//Event file generated from Sappy .s format.
	#include "MPlayDef.event"

	#define	songAFormidableFoe_grp  voicegroup000
	#define	songAFormidableFoe_pri  10
	#define	songAFormidableFoe_rev  0
	#define	songAFormidableFoe_mvl  127
	#define	songAFormidableFoe_key  0
	#define	songAFormidableFoe_tbs  1
	#define	songAFormidableFoe_exg  0
	#define	songAFormidableFoe_cmp  1

	// .rodata
	//	songAFormidableFoe
	ALIGN 4


//**************** Track 1 (Midi-Chn.0) ****************//

songAFormidableFoe_001:
// 000   ----------------------------------------
Label_AFormidableFow0_014613A0:
 BYTE   KEYSH   songAFormidableFoe_key+0
 BYTE   VOICE   18
 BYTE   VOL   70*songAFormidableFoe_mvl/mxv
 BYTE   PAN   c_v+0
 BYTE   N06  Cn4  v066
 BYTE   TEMPO   96*songAFormidableFoe_tbs/2
 BYTE   W06
 BYTE   N06  Bn3  v066
 BYTE   W06
 BYTE   N03  An3
 BYTE   W06
 BYTE   N12  En3
 BYTE   N12  En4  v044
 BYTE   W12
 BYTE   N10  An4  v066
 BYTE   W12
 BYTE   N11  Gn4
 BYTE   W12
 BYTE   N06  Fn4
 BYTE   W06
 BYTE   En4
 BYTE   W06
 BYTE   Dn4
 BYTE   W06
 BYTE   Cn4
 BYTE   W06
 BYTE   Bn3
 BYTE   W06
 BYTE   N03  An3
 BYTE   W06
 BYTE   N30  Fn3
 BYTE   W30
// 001   ----------------------------------------
 BYTE   N03  An3
 BYTE   N03  Fn3
 BYTE   N03  Cn4  v044
 BYTE   W06
 BYTE   Bn3  v066
 BYTE   N03  Gn3
 BYTE   W06
 BYTE   Cn4  v055
 BYTE   N03  An3
 BYTE   N03  Fn3
 BYTE   W06
 BYTE   N16  Bn3  v066
 BYTE   N24  Gn3
 BYTE   W24
 BYTE   N18  Dn4
 BYTE   N18  Bn3
 BYTE   W18
 BYTE   N12  Gn4
 BYTE   W12
 BYTE   N06  Cn4
 BYTE   W06
 BYTE   Bn3
 BYTE   W06
 BYTE   An3
 BYTE   W06
 BYTE   N12  En4
 BYTE   W12
// 002   ----------------------------------------
 BYTE   N10  An4
 BYTE   W12
 BYTE   N12  Gn4
 BYTE   W12
 BYTE   N06  Fn4
 BYTE   W06
 BYTE   En4
 BYTE   W06
 BYTE   Dn4
 BYTE   W06
 BYTE   Cn5
 BYTE   W06
 BYTE   Bn4
 BYTE   W06
 BYTE   An4
 BYTE   W06
 BYTE   Gn4
 BYTE   W06
 BYTE   N14  Dn4  v044
 BYTE   N14  Fn4
 BYTE   N14  An3
 BYTE   N18  An4  v066
 BYTE   W18
 BYTE   N19  An3  v044
 BYTE   N19  En4
 BYTE   N19  Cn4
 BYTE   N24  Gs4  v066
 BYTE   W30
// 003   ----------------------------------------
 BYTE   N14  Gs3  v044
 BYTE   N14  Bn3
 BYTE   N18  Dn4  v066
 BYTE   N18  Fn4
 BYTE   W18
 BYTE   N14  Gs3  v044
 BYTE   N14  Dn4
 BYTE   N14  En4  v066
 BYTE   N14  Bn3  v044
 BYTE   W18
 BYTE   N09
 BYTE   N09  Dn4
 BYTE   N09  En4  v066
 BYTE   N09  Gs3  v044
 BYTE   W96
// 004   ----------------------------------------
 BYTE   W36
 BYTE   W02
 BYTE   N03  An3  v066
 BYTE   N03  Fn3
 BYTE   N03  Cn4  v055
 BYTE   W06
 BYTE   Bn3  v066
 BYTE   N03  Gn3
 BYTE   W06
 BYTE   Cn4
 BYTE   N03  An3
 BYTE   N03  Fn3
 BYTE   W06
 BYTE   N16  Bn3
 BYTE   N24  Gn3
 BYTE   W24
 BYTE   N18  Dn4
 BYTE   N18  Bn3
 BYTE   W18
// 005   ----------------------------------------
 BYTE   N12  Gn4
 BYTE   W96
// 006   ----------------------------------------
 BYTE   W96
// 007   ----------------------------------------
 BYTE   W36
 BYTE   W03
 BYTE   N08  En4
 BYTE   W08
 BYTE   Fs4
 BYTE   W08
 BYTE   Gn4
 BYTE   W08
 BYTE   N18
 BYTE   W18
 BYTE   Fs4
 BYTE   W18
// 008   ----------------------------------------
 BYTE   N12  Dn4
 BYTE   W12
 BYTE   N06  Ds4
 BYTE   W06
 BYTE   En4
 BYTE   W06
 BYTE   Fs4
 BYTE   W06
 BYTE   Bn3
 BYTE   W06
 BYTE   Bn4
 BYTE   W06
 BYTE   An4
 BYTE   W06
 BYTE   Gn4
 BYTE   W06
 BYTE   Fs4
 BYTE   W06
 BYTE   N24  Gn4
 BYTE   W24
 BYTE   N06
 BYTE   W06
 BYTE   Fs4
 BYTE   W06
// 009   ----------------------------------------
 BYTE   Gn4
 BYTE   W06
 BYTE   An4
 BYTE   W06
 BYTE   N48  Bn4
 BYTE   W48
 BYTE   An4
 BYTE   W96
// 010   ----------------------------------------
 BYTE   W96
// 011   ----------------------------------------
 BYTE   W96
// 012   ----------------------------------------
 BYTE   W96
// 013   ----------------------------------------
 BYTE   W54
 BYTE   W01
 BYTE   N42  Cn4
 BYTE   N42  Gn3
 BYTE   W01
 BYTE   N01  Cn4
 BYTE   N01  Gn3
 BYTE   W44
// 014   ----------------------------------------
 BYTE   W03
 BYTE   N21  Cn4
 BYTE   N21  Gn3
 BYTE   W24
 BYTE   N01  Gn2  v055
 BYTE   N01  Dn2
 BYTE   W01
 BYTE   Bn2
 BYTE   N01  Fn2
 BYTE   W02
 BYTE   En3
 BYTE   N01  Bn2
 BYTE   W01
 BYTE   Gn3
 BYTE   N01  Dn3
 BYTE   W01
 BYTE   Bn3
 BYTE   N01  Fn3
 BYTE   W01
 BYTE   Dn4
 BYTE   N01  An3
 BYTE   W01
 BYTE   Fn4
 BYTE   N01  Cn4
 BYTE   W01
 BYTE   Gn2  v066
 BYTE   N01  Dn2
 BYTE   W02
 BYTE   Dn3
 BYTE   N01  An2
 BYTE   W01
 BYTE   Fn3
 BYTE   N01  Cn3
 BYTE   W01
 BYTE   An3
 BYTE   N01  En3
 BYTE   W01
 BYTE   Cn4
 BYTE   N01  Gn3
 BYTE   W02
 BYTE   Gn4
 BYTE   N01  Dn4
 BYTE   W01
 BYTE   Bn4
 BYTE   N01  Fn4
 BYTE   W01
 BYTE   Cn5
 BYTE   N01  Fn5
 BYTE   W01
 BYTE   An4
 BYTE   N01  En4
 BYTE   W01
 BYTE   Fn4
 BYTE   N01  Cn4
 BYTE   W01
 BYTE   Dn4
 BYTE   N01  An3
 BYTE   W04
 BYTE   N06  Dn3
 BYTE   N06  Gn3
 BYTE   N06  Gn1
 BYTE   N06  Gn2
 BYTE   W06
 BYTE   Gn2
 BYTE   N06  Gn1
 BYTE   W06
 BYTE   Gn2
 BYTE   N06  Gn1
 BYTE   W06
 BYTE   As3
 BYTE   N06  Fn3
 BYTE   N12  Gn2
 BYTE   N12  Gn1
 BYTE   W12
 BYTE   N06  Gn2
 BYTE   N06  Gn1
 BYTE   W06
 BYTE   Dn3
 BYTE   N06  Gn3
 BYTE   N06  Gn1
 BYTE   N06  Gn2
 BYTE   W06
 BYTE   Gn2
 BYTE   N06  Gn1
 BYTE   W06
// 015   ----------------------------------------
 BYTE   Gn2
 BYTE   N06  Gn1
 BYTE   W06
 BYTE   Gn3
 BYTE   N06  Cn4
 BYTE   N06  Gn1
 BYTE   N06  Gn2
 BYTE   W06
 BYTE   Gn2
 BYTE   N06  Gn1
 BYTE   W06
 BYTE   N12
 BYTE   N12  Gn2
 BYTE   W06
 BYTE   N06  Fn3
 BYTE   N06  As3
 BYTE   W06
 BYTE   Gn2
 BYTE   N06  Gn1
 BYTE   W06
 BYTE   Dn3
 BYTE   N06  Gn3
 BYTE   N06  Gn1
 BYTE   N06  Gn2
 BYTE   W06
 BYTE   Gn2
 BYTE   N06  Gn1
 BYTE   W06
 BYTE   Cn3
 BYTE   N06  Fn3
 BYTE   N06  Gn1
 BYTE   N06  Gn2
 BYTE   W06
 BYTE   Gn2
 BYTE   N06  Gn1
 BYTE   W06
 BYTE   Gn2
 BYTE   N06  Gn1
 BYTE   W06
 BYTE   Dn3
 BYTE   N06  Gn3
 BYTE   N06  Gn1
 BYTE   N06  Gn2
 BYTE   W06
 BYTE   N12
 BYTE   N12  Gn1
 BYTE   W12
 BYTE   N06  Fn3
 BYTE   N06  As3
 BYTE   N06  Gn1
 BYTE   N06  Gn2
 BYTE   W06
 BYTE   Gn2
 BYTE   N06  Gn1
 BYTE   W06
// 016   ----------------------------------------
 BYTE   Gn2
 BYTE   N06  Gn1
 BYTE   W06
 BYTE   Gn3
 BYTE   N06  Cn4
 BYTE   N06  Gn1
 BYTE   N06  Gn2
 BYTE   W06
 BYTE   Gn2  v053
 BYTE   N06  Gn1
 BYTE   W06
 BYTE   Gn2
 BYTE   N06  Gn1
 BYTE   W06
 BYTE   Gn3  v066
 BYTE   N06  Dn3
 BYTE   N12  Gn2
 BYTE   N12  Gn1
 BYTE   W12
 BYTE   N06  Fn3
 BYTE   N06  As3
 BYTE   N06  Gn1
 BYTE   N06  Gn2
 BYTE   W06
 BYTE   Gn2
 BYTE   N06  Gn1
 BYTE   W06
 BYTE   Gn3
 BYTE   N06  Cn4
 BYTE   N06  Gn1
 BYTE   N06  Gn2
 BYTE   W06
 BYTE   Gn2
 BYTE   N06  Gn1
 BYTE   W06
 BYTE   Gn2
 BYTE   N06  Gn1
 BYTE   W06
 BYTE   As3
 BYTE   N06  Fn3
 BYTE   N12  Gn2
 BYTE   N12  Gn1
 BYTE   W12
 BYTE   N06  Gn2
 BYTE   N06  Gn1
 BYTE   W06
 BYTE   Gn3
 BYTE   N06  Cn4
 BYTE   N06  Gn1
 BYTE   N06  Gn2
 BYTE   W06
 BYTE   Gn2
 BYTE   N06  Gn1
 BYTE   W06
// 017   ----------------------------------------
 BYTE   Gn2
 BYTE   N06  Gn1
 BYTE   W06
 BYTE   Gs3
 BYTE   N06  Cs4
 BYTE   N06  Gn1
 BYTE   N06  Gn2
 BYTE   W06
 BYTE   Gn2
 BYTE   N06  Gn1
 BYTE   W06
 BYTE   N12
 BYTE   N12  Gn2
 BYTE   W06
 BYTE   N06  Gn3
 BYTE   N06  Cn4
 BYTE   W06
 BYTE   Gn2
 BYTE   N06  Gn1
 BYTE   W06
 BYTE   As3
 BYTE   N06  Fn3
 BYTE   N06  Gn1
 BYTE   N06  Gn2
 BYTE   W06
 BYTE   Gn2
 BYTE   N06  Gn1
 BYTE   W06
 BYTE   Dn3
 BYTE   N06  Gn3
 BYTE   N06  Gn1
 BYTE   N06  Gn2
 BYTE   W06
 BYTE   Gn2
 BYTE   N06  Gn1
 BYTE   W06
 BYTE   Gn2
 BYTE   N06  Gn1
 BYTE   W06
 BYTE   Fn3
 BYTE   N06  As3
 BYTE   N06  Gn1
 BYTE   N06  Gn2
 BYTE   W06
 BYTE   N12
 BYTE   N12  Gn1
 BYTE   W12
 BYTE   N06  Gn3
 BYTE   N06  Cn4
 BYTE   N06  Gn1
 BYTE   N06  Gn2
 BYTE   W06
 BYTE   Gn2
 BYTE   N06  Gn1
 BYTE   W06
// 018   ----------------------------------------
 BYTE   Gn2
 BYTE   N06  Gn1
 BYTE   W06
 BYTE   Fn3
 BYTE   N06  As3
 BYTE   N06  Gn1
 BYTE   N06  Gn2
 BYTE   W06
 BYTE   Gn2
 BYTE   N06  Gn1
 BYTE   W06
 BYTE   Gn2
 BYTE   N06  Gn1
 BYTE   W06
 BYTE   Gn3
 BYTE   N06  Dn3
 BYTE   N12  Gn2
 BYTE   N12  Gn1
 BYTE   W12
 BYTE   N06  Cn3
 BYTE   N06  Fn3
 BYTE   N06  Gn1
 BYTE   N06  Gn2
 BYTE   W06
 BYTE   Gn2
 BYTE   N06  Gn1
 BYTE   W06
Label_AFormidableFow0_0146164B:
 BYTE   N30  An3  v066
 BYTE   N42  Fn3
 BYTE   W30
 BYTE   N06  Bn3
 BYTE   W06
 BYTE   N03  Cn4
 BYTE   W06
 BYTE   N06  En4
 BYTE   N06  Cn4
 BYTE   W12
// 019   ----------------------------------------
 BYTE   N42  Dn4
 BYTE   N42  Bn3
 BYTE   W01
 BYTE   N01  Dn4
 BYTE   N01  Bn3
 BYTE   W40
 BYTE   W01
 BYTE   PEND 
 BYTE   N30  An3  v066
 BYTE   N42  Fn3
 BYTE   W30
 BYTE   N06  Bn3
 BYTE   W06
 BYTE   N03  Cn4
 BYTE   W06
 BYTE   N06  En4
 BYTE   N06  Cn4
 BYTE   W12
// 020   ----------------------------------------
 BYTE   N42  Dn4
 BYTE   N42  Bn3
 BYTE   W01
 BYTE   N01  Dn4
 BYTE   N01  Bn3
 BYTE   W40
 BYTE   W01
 BYTE   PATT
  POIN2 Label_AFormidableFow0_0146164B
// 021   ----------------------------------------
 BYTE   N30  An3  v066
 BYTE   N42  Fn3
 BYTE   W30
 BYTE   N06  Bn3
 BYTE   W06
 BYTE   An3
 BYTE   W06
 BYTE   N18  Gs3
 BYTE   N54  En3
 BYTE   W24
 BYTE   N30  En4
 BYTE   W30
// 022   ----------------------------------------
 BYTE   W96
// 023   ----------------------------------------
 BYTE   W96
// 024   ----------------------------------------
 BYTE   W96
// 025   ----------------------------------------
 BYTE   W96
// 026   ----------------------------------------
 BYTE   W96
// 027   ----------------------------------------
 BYTE   W96
// 028   ----------------------------------------
 BYTE   W03
 BYTE   W06
 BYTE   GoTo
  POIN2 Label_AFormidableFow0_014613A0
 BYTE   FINE

//**************** Track 2 (Midi-Chn.1) ****************//

songAFormidableFoe_002:
// 000   ----------------------------------------
Label_AFormidableFow1_014616AC:
 BYTE   KEYSH   songAFormidableFoe_key+0
 BYTE   VOICE   63
 BYTE   VOL   40*songAFormidableFoe_mvl/mxv
 BYTE   PAN   c_v+24
 BYTE   N36  An1  v066
 BYTE   TEMPO   96*songAFormidableFoe_tbs/2
 BYTE   W42
 BYTE   N48  Gn1  v066
 BYTE   W48
 BYTE   N42  Fn1
 BYTE   W48
// 001   ----------------------------------------
 BYTE   N48  Gn1
 BYTE   W54
 BYTE   N36  An1
 BYTE   W42
// 002   ----------------------------------------
 BYTE   N48  Gn1
 BYTE   W54
 BYTE   N18  Fn1
 BYTE   W18
 BYTE   N24  En1
 BYTE   W30
// 003   ----------------------------------------
 BYTE   N18  Fn1
 BYTE   W18
 BYTE   Fn1
 BYTE   W18
 BYTE   N12
 BYTE   W12
 BYTE   N36  An1
 BYTE   W42
 BYTE   N48  Gn1
 BYTE   W48
// 004   ----------------------------------------
 BYTE   N42  Fn1
 BYTE   W48
 BYTE   N48  Gn1
 BYTE   W54
// 005   ----------------------------------------
 BYTE   N36  An1
 BYTE   W42
 BYTE   N48  Gn1
 BYTE   W54
// 006   ----------------------------------------
 BYTE   Fn1
 BYTE   W48
 BYTE   En1
 BYTE   W48
// 007   ----------------------------------------
 BYTE   Cn2  v055
 BYTE   W48
 BYTE   Dn2
 BYTE   W48
// 008   ----------------------------------------
 BYTE   Bn1
 BYTE   W48
 BYTE   Gn1
 BYTE   W96
// 009   ----------------------------------------
 BYTE   W48
 BYTE   W02
Label_AFormidableFow1_014616F8:
 BYTE   N48  En2  v044
 BYTE   W48
// 010   ----------------------------------------
 BYTE   Cn2
 BYTE   W48
 BYTE   PEND 
 BYTE   N48  An1  v044
 BYTE   W48
// 011   ----------------------------------------
 BYTE   Dn2
 BYTE   W48
 BYTE   PATT
  POIN2 Label_AFormidableFow1_014616F8
// 012   ----------------------------------------
 BYTE   N48  An1  v044
 BYTE   W48
 BYTE   Bn1
 BYTE   W96
// 013   ----------------------------------------
 BYTE   W96
// 014   ----------------------------------------
 BYTE   W96
// 015   ----------------------------------------
 BYTE   W96
// 016   ----------------------------------------
 BYTE   W96
// 017   ----------------------------------------
 BYTE   W56
 BYTE   N42  Dn1  v066
 BYTE   N42  Fn1
 BYTE   W42
// 018   ----------------------------------------
 BYTE   N06
 BYTE   N06  An1
 BYTE   W12
 BYTE   N48  En1
 BYTE   N48  Gn1
 BYTE   W42
 BYTE   N42  Dn1
 BYTE   N42  Fn1
 BYTE   W42
// 019   ----------------------------------------
 BYTE   N06
 BYTE   N06  An1
 BYTE   W12
 BYTE   N48  En1
 BYTE   N48  Gn1
 BYTE   W42
 BYTE   N42  Dn1
 BYTE   N42  Fn1
 BYTE   W42
// 020   ----------------------------------------
 BYTE   N06
 BYTE   N06  An1
 BYTE   W12
 BYTE   N42  En1
 BYTE   N48  Gn1
 BYTE   W42
 BYTE   N42  En1  v055
 BYTE   N42  An1
 BYTE   W42
// 021   ----------------------------------------
 BYTE   N54  En1
 BYTE   N54  Gs1
 BYTE   W54
 BYTE   N24  An0  v066
 BYTE   N24  An1
 BYTE   W24
 BYTE   N24  Bn0  v066
 BYTE   N24  Bn1
 BYTE   W24
// 022   ----------------------------------------
 BYTE   Cn1
 BYTE   N24  Cn2
 BYTE   W24
 BYTE   Bn0
 BYTE   N24  Bn1
 BYTE   W24
Label_AFormidableFow1_0146175F:
 BYTE   N24  An0  v066
 BYTE   N24  An1
 BYTE   W24
 BYTE   En1
 BYTE   N24  En2
 BYTE   W24
// 023   ----------------------------------------
 BYTE   N48  Dn1
 BYTE   N48  Dn2
 BYTE   W48
 BYTE   PEND 
 BYTE   N24  An0  v066
 BYTE   N24  An1
 BYTE   W24
 BYTE   Bn0
 BYTE   N24  Bn1
 BYTE   W24
// 024   ----------------------------------------
 BYTE   Cn1
 BYTE   N24  Cn2
 BYTE   W24
 BYTE   Bn0
 BYTE   N24  Bn1
 BYTE   W24
 BYTE   PATT
  POIN2 Label_AFormidableFow1_0146175F
// 025   ----------------------------------------
 BYTE   N96  Fn1  v066
 BYTE   W02
 BYTE   N01
 BYTE   W92
 BYTE   W03
// 026   ----------------------------------------
 BYTE   N96
 BYTE   W02
 BYTE   N01
 BYTE   W88
 BYTE   W01
 BYTE   W06
// 027   ----------------------------------------
 BYTE   GoTo
  POIN2 Label_AFormidableFow1_014616AC
 BYTE   FINE

//**************** Track 3 (Midi-Chn.2) ****************//

songAFormidableFoe_003:
// 000   ----------------------------------------
Label_AFormidableFow2_0146179C:
 BYTE   KEYSH   songAFormidableFoe_key+0
 BYTE   VOICE   18
 BYTE   VOL   60*songAFormidableFoe_mvl/mxv
 BYTE   PAN   c_v+0
 BYTE   TEMPO   96*songAFormidableFoe_tbs/2
 BYTE   W96
// 001   ----------------------------------------
 BYTE   W96
// 002   ----------------------------------------
 BYTE   W96
// 003   ----------------------------------------
 BYTE   W96
// 004   ----------------------------------------
 BYTE   W96
// 005   ----------------------------------------
 BYTE   W96
// 006   ----------------------------------------
 BYTE   W96
// 007   ----------------------------------------
 BYTE   W84
 BYTE   N01  En5  v066
 BYTE   N01  An4
 BYTE   W01
 BYTE   Dn5
 BYTE   N01  Gn4
 BYTE   W02
 BYTE   Bn4
 BYTE   N01  En4
 BYTE   W01
 BYTE   An4
 BYTE   N01  Dn4
 BYTE   W01
 BYTE   Gn4
 BYTE   N01  Cn4
 BYTE   W01
 BYTE   Fn4
 BYTE   N01  Bn3
 BYTE   W01
 BYTE   En4
 BYTE   N01  An3
 BYTE   W01
 BYTE   Dn4
 BYTE   N01  Gn3
 BYTE   W02
 BYTE   Bn3  v055
 BYTE   N01  En3
 BYTE   W01
 BYTE   An3
 BYTE   N01  Dn3
 BYTE   W01
// 008   ----------------------------------------
 BYTE   Gn3
 BYTE   N01  Cn3
 BYTE   W01
 BYTE   Fn3  v044
 BYTE   N01  Bn2
 BYTE   W02
 BYTE   Dn3
 BYTE   N01  Gn2
 BYTE   W01
 BYTE   Cn3  v066
 BYTE   N01  Fn2
 BYTE   W01
 BYTE   Bn2  v044
 BYTE   N01  En2
 BYTE   W01
 BYTE   An2
 BYTE   N01  Dn2
 BYTE   W01
 BYTE   Gn2
 BYTE   N01  Cn2
 BYTE   W01
 BYTE   Fn2
 BYTE   N01  Bn1
 BYTE   W02
 BYTE   Dn2  v032
 BYTE   N01  Gn1
 BYTE   W01
 BYTE   Cn2
 BYTE   N01  Fn1
 BYTE   W01
 BYTE   N48  Gn3  v044
 BYTE   N48  En3
 BYTE   N48  Cn3
 BYTE   N48  Cn4
 BYTE   W48
 BYTE   An3
 BYTE   N48  Dn4
 BYTE   N48  Fs3
 BYTE   N48  Dn3
 BYTE   W48
// 009   ----------------------------------------
 BYTE   Bn2
 BYTE   N48  Ds3
 BYTE   N48  Bn3
 BYTE   W48
 BYTE   N18  En3
 BYTE   N18  En4
 BYTE   N18  Bn3
 BYTE   N18  Gn3
 BYTE   W24
 BYTE   Gn4
 BYTE   N18  En4
 BYTE   N18  Bn3
 BYTE   N18  Gn3
 BYTE   W96
// 010   ----------------------------------------
 BYTE   W01
 BYTE   N01  Gn2  v055
 BYTE   N01  Dn2
 BYTE   W01
 BYTE   Bn2
 BYTE   N01  Fn2
 BYTE   W02
 BYTE   En3
 BYTE   N01  Bn2
 BYTE   W01
 BYTE   Gn3
 BYTE   N01  Dn3
 BYTE   W01
 BYTE   Bn3
 BYTE   N01  Fn3
 BYTE   W01
 BYTE   Dn4
 BYTE   N01  An3
 BYTE   W01
 BYTE   Fn4
 BYTE   N01  Cn4
 BYTE   W01
 BYTE   Gn2  v066
 BYTE   N01  Dn2
 BYTE   W02
 BYTE   Dn3
 BYTE   N01  An2
 BYTE   W01
 BYTE   Fn3
 BYTE   N01  Cn3
 BYTE   W01
 BYTE   An3
 BYTE   N01  En3
 BYTE   W01
 BYTE   Cn4
 BYTE   N01  Gn3
 BYTE   W02
 BYTE   Gn4
 BYTE   N01  Dn4
 BYTE   W01
 BYTE   Bn4
 BYTE   N01  Fn4
 BYTE   W01
 BYTE   Cn5
 BYTE   N01  Fn5
 BYTE   W01
 BYTE   An4
 BYTE   N01  En4
 BYTE   W01
 BYTE   Fn4
 BYTE   N01  Cn4
 BYTE   W01
 BYTE   Dn4
 BYTE   N01  An3
 BYTE   W02
 BYTE   Fn3
 BYTE   N01  Cn3
 BYTE   W01
 BYTE   Dn3
 BYTE   N01  Bn2
 BYTE   W01
 BYTE   N48  En3  v044
 BYTE   N48  En4
 BYTE   N48  Bn3
 BYTE   N48  Gn3
 BYTE   W48
 BYTE   Gn3
 BYTE   N48  En3
 BYTE   N48  Cn3
 BYTE   N48  Cn4
 BYTE   W48
// 011   ----------------------------------------
 BYTE   Cs3
 BYTE   N48  An3
 BYTE   N48  En3
 BYTE   N48  An2
 BYTE   W48
 BYTE   N18  An3
 BYTE   N18  Fs3
 BYTE   N18  Dn3
 BYTE   N18  Dn4
 BYTE   W18
 BYTE   An3
 BYTE   N18  Fs3
 BYTE   N18  Fs4
 BYTE   N18  Dn4
 BYTE   N18  Dn3
 BYTE   W18
 BYTE   N12  An3
 BYTE   N12  Fs3
 BYTE   N12  Fs4
 BYTE   N12  Dn4
 BYTE   N12  Dn3
 BYTE   W12
// 012   ----------------------------------------
 BYTE   N48  En3
 BYTE   N48  En4
 BYTE   N48  Bn3
 BYTE   N48  Gn3
 BYTE   W48
 BYTE   Gn3
 BYTE   N48  En3
 BYTE   N48  Cn3
 BYTE   N48  Cn4
 BYTE   W48
// 013   ----------------------------------------
 BYTE   Cs3
 BYTE   N48  An3
 BYTE   N48  En3
 BYTE   N48  An2
 BYTE   W48
 BYTE   Bn2
 BYTE   N48  Bn3
 BYTE   N48  Ds3
 BYTE   N48  Fs3
 BYTE   W96
// 014   ----------------------------------------
 BYTE   W96
// 015   ----------------------------------------
 BYTE   W96
// 016   ----------------------------------------
 BYTE   W96
// 017   ----------------------------------------
 BYTE   W96
// 018   ----------------------------------------
 BYTE   W96
// 019   ----------------------------------------
 BYTE   W96
// 020   ----------------------------------------
 BYTE   W04
 BYTE   N06  An2  v066
 BYTE   W12
 BYTE   Bn2
 BYTE   N06  Dn3
 BYTE   W12
 BYTE   Cn3
 BYTE   N06  An2
 BYTE   W12
 BYTE   N18  Bn2
 BYTE   N18  Dn3
 BYTE   W96
// 021   ----------------------------------------
 BYTE   W96
// 022   ----------------------------------------
 BYTE   W21
 BYTE   N19  En3  v055
 BYTE   N19  An3
 BYTE   N19  Cn4
 BYTE   N19  An2
 BYTE   W24
 BYTE   N19  En3  v055
 BYTE   N19  Cn4
 BYTE   N19  An3
 BYTE   N19  Bn2
 BYTE   W24
 BYTE   An3
 BYTE   N19  Cn3
 BYTE   N19  Fn3
 BYTE   W24
 BYTE   Gs3
 BYTE   N19  Bn2
 BYTE   N19  En3
 BYTE   W24
// 023   ----------------------------------------
 BYTE   Dn4
 BYTE   N19  Dn3
 BYTE   N19  Bn2
 BYTE   N24  Bn3
 BYTE   W24
 BYTE   N19  Cn3
 BYTE   N19  En3
 BYTE   N19  Cn4
 BYTE   N19  Gn3
 BYTE   W24
 BYTE   Bn2
 BYTE   N19  En3
 BYTE   N19  Bn3
 BYTE   N19  Dn4
 BYTE   W24
 BYTE   Bn2
 BYTE   N19  En3
 BYTE   N19  Bn3
 BYTE   N19  Dn4
 BYTE   W24
// 024   ----------------------------------------
 BYTE   En3
 BYTE   N19  An3
 BYTE   N19  Cn4
 BYTE   N19  An2
 BYTE   W24
 BYTE   En3
 BYTE   N19  Cn4
 BYTE   N19  An3
 BYTE   N19  Bn2
 BYTE   W24
 BYTE   An3
 BYTE   N19  Cn3
 BYTE   N19  Fn3
 BYTE   W24
 BYTE   Gs3
 BYTE   N19  Bn2
 BYTE   N19  En3
 BYTE   W24
// 025   ----------------------------------------
 BYTE   Dn4
 BYTE   N19  Dn3
 BYTE   N19  Bn2
 BYTE   N24  Bn3
 BYTE   W24
 BYTE   N19  Cn3
 BYTE   N19  En3
 BYTE   N19  Cn4
 BYTE   N19  Gn3
 BYTE   W24
 BYTE   N36  Dn4
 BYTE   N36  En3
 BYTE   N36  Bn3
 BYTE   N36  Bn2
 BYTE   N03  En3
 BYTE   N03  Bn2
 BYTE   N03  Bn3
 BYTE   N03  Dn4
 BYTE   W44
 BYTE   W03
 BYTE   N96  Cn3
 BYTE   N96  Fn3
 BYTE   N96  Fn2
 BYTE   W02
// 026   ----------------------------------------
 BYTE   N01  Fn3
 BYTE   N01  Fn2
 BYTE   N01  Cn3
 BYTE   W92
 BYTE   W03
 BYTE   N96
 BYTE   N96  Fn2
 BYTE   N96  Fn3
 BYTE   W02
// 027   ----------------------------------------
 BYTE   N01  Fn2
 BYTE   N01  Fn3
 BYTE   N01  Cn3
 BYTE   W88
 BYTE   W01
 BYTE   W06
 BYTE   GoTo
  POIN2 Label_AFormidableFow2_0146179C
 BYTE   FINE

//**************** Track 4 (Midi-Chn.3) ****************//

songAFormidableFoe_004:
// 000   ----------------------------------------
Label_AFormidableFow3_0146199C:
 BYTE   KEYSH   songAFormidableFoe_key+0
 BYTE   VOICE   30
 BYTE   VOL   40*songAFormidableFoe_mvl/mxv
 BYTE   PAN   c_v+0
 BYTE   N18  An1  v055
 BYTE   N18  En1
 BYTE   TEMPO   96*songAFormidableFoe_tbs/2
 BYTE   W18
 BYTE   N04  An1  v044
 BYTE   N04  En1
 BYTE   W06
 BYTE   An1
 BYTE   N04  En1
 BYTE   W06
 BYTE   An1
 BYTE   N04  En1
 BYTE   W06
 BYTE   An1
 BYTE   N04  En1
 BYTE   W06
 BYTE   N24  Gn1  v055
 BYTE   W24
 BYTE   N06
 BYTE   W06
 BYTE   N04  Gn1  v044
 BYTE   W06
 BYTE   Gn1
 BYTE   W06
 BYTE   Gn1
 BYTE   W06
 BYTE   N24  Fn1  v055
 BYTE   W24
// 001   ----------------------------------------
 BYTE   N06
 BYTE   W06
 BYTE   N04  Fn1  v044
 BYTE   W06
 BYTE   Fn1
 BYTE   W06
 BYTE   Fn1
 BYTE   W06
 BYTE   N24  Gn1  v055
 BYTE   W24
 BYTE   N06
 BYTE   W06
 BYTE   N04  Gn1  v044
 BYTE   W06
 BYTE   Gn1
 BYTE   W06
 BYTE   Gn1
 BYTE   W12
 BYTE   N18  An1  v055
 BYTE   N18  En1
 BYTE   W18
// 002   ----------------------------------------
 BYTE   N04  An1  v044
 BYTE   N04  En1
 BYTE   W06
 BYTE   An1
 BYTE   N04  En1
 BYTE   W06
 BYTE   An1
 BYTE   N04  En1
 BYTE   W06
 BYTE   An1
 BYTE   N04  En1
 BYTE   W06
 BYTE   N24  Gn1  v055
 BYTE   W24
 BYTE   N06
 BYTE   W06
 BYTE   N04  Gn1  v044
 BYTE   W06
 BYTE   Gn1
 BYTE   W06
 BYTE   Gn1
 BYTE   W06
 BYTE   N06  Fn1  v055
 BYTE   W06
 BYTE   N12  An1  v066
 BYTE   N12  Fn1  v055
 BYTE   W12
 BYTE   N06  An1
 BYTE   N06  Fn1
 BYTE   W06
// 003   ----------------------------------------
 BYTE   N12  An1
 BYTE   N12  Fn1
 BYTE   W12
 BYTE   N06  En1
 BYTE   W06
 BYTE   En1
 BYTE   W06
 BYTE   En1
 BYTE   W06
 BYTE   N18  Gs1
 BYTE   W18
 BYTE   N12  Gs1  v066
 BYTE   W12
 BYTE   N06  Gs1  v055
 BYTE   W06
 BYTE   Gs1
 BYTE   W06
 BYTE   Gs1
 BYTE   W06
 BYTE   N18  An1
 BYTE   N18  En1
 BYTE   W18
// 004   ----------------------------------------
 BYTE   N04  An1  v044
 BYTE   N04  En1
 BYTE   W06
 BYTE   An1
 BYTE   N04  En1
 BYTE   W06
 BYTE   An1
 BYTE   N04  En1
 BYTE   W06
 BYTE   An1
 BYTE   N04  En1
 BYTE   W06
 BYTE   N24  Gn1  v055
 BYTE   W24
 BYTE   N06
 BYTE   W06
 BYTE   Gn1
 BYTE   W06
 BYTE   Gn1
 BYTE   W06
 BYTE   Gn1
 BYTE   W06
 BYTE   N24  Fn1
 BYTE   W24
// 005   ----------------------------------------
 BYTE   N06
 BYTE   W06
 BYTE   Fn1
 BYTE   W06
 BYTE   Fn1
 BYTE   W06
 BYTE   Fn1
 BYTE   W06
 BYTE   N24  Gn1
 BYTE   W24
 BYTE   N06
 BYTE   W06
 BYTE   Gn1
 BYTE   W06
 BYTE   Gn1
 BYTE   W06
 BYTE   Gn1
 BYTE   W12
 BYTE   N18  An1
 BYTE   N18  En1
 BYTE   W18
// 006   ----------------------------------------
 BYTE   N04  An1  v044
 BYTE   N04  En1
 BYTE   W06
 BYTE   An1
 BYTE   N04  En1
 BYTE   W06
 BYTE   An1
 BYTE   N04  En1
 BYTE   W06
 BYTE   An1
 BYTE   N04  En1
 BYTE   W06
 BYTE   N24  Gn1  v055
 BYTE   W24
 BYTE   N06
 BYTE   W06
 BYTE   Gn1
 BYTE   W06
 BYTE   Gn1
 BYTE   W06
 BYTE   Gn1
 BYTE   W06
 BYTE   Fn1
 BYTE   W96
// 007   ----------------------------------------
 BYTE   W07
 BYTE   N48  Cn2  v066
 BYTE   W48
 BYTE   Dn2
 BYTE   W48
// 008   ----------------------------------------
 BYTE   Bn1
 BYTE   W48
 BYTE   Gn1
 BYTE   W48
// 009   ----------------------------------------
 BYTE   N06  Dn2  v053
 BYTE   N06  An1
 BYTE   W06
 BYTE   Dn2
 BYTE   N06  An1
 BYTE   W06
 BYTE   N01  Dn2  v066
 BYTE   N01  An1
 BYTE   W06
 BYTE   N12  Dn2
 BYTE   N12  An1
 BYTE   W12
 BYTE   N06  Dn2
 BYTE   N06  An1
 BYTE   W06
 BYTE   Dn2
 BYTE   N06  An1
 BYTE   W06
 BYTE   Dn2
 BYTE   N06  An1
 BYTE   W06
 BYTE   Dn2  v053
 BYTE   N06  An1
 BYTE   W06
 BYTE   Dn2
 BYTE   N06  An1
 BYTE   W06
 BYTE   N01  Dn2  v066
 BYTE   N01  An1
 BYTE   W06
 BYTE   N12  Dn2
 BYTE   N12  An1
 BYTE   W12
 BYTE   N06  Dn2
 BYTE   N06  An1
 BYTE   W06
 BYTE   Dn2
 BYTE   N06  An1
 BYTE   W06
 BYTE   Dn2
 BYTE   N06  An1
 BYTE   W06
// 010   ----------------------------------------
Label_AFormidableFow3_01461AE5:
 BYTE   N48  En2  v055
 BYTE   W48
 BYTE   Cn2
 BYTE   W48
 BYTE   PEND 
// 011   ----------------------------------------
 BYTE   N48  An1  v055
 BYTE   W48
 BYTE   Dn2
 BYTE   W48
 BYTE   PATT
  POIN2 Label_AFormidableFow3_01461AE5
// 012   ----------------------------------------
 BYTE   N48  An1  v055
 BYTE   W48
 BYTE   Bn1
 BYTE   W48
// 013   ----------------------------------------
 BYTE   N24  Cn2
 BYTE   N24  Gn1
 BYTE   W24
 BYTE   Cn2
 BYTE   N24  Gn1
 BYTE   W24
 BYTE   N12  Cn2
 BYTE   N12  Gn1
 BYTE   W12
 BYTE   N01  Cn2
 BYTE   N01  Gn1
 BYTE   W06
 BYTE   N12  Cn2
 BYTE   N12  Gn1
 BYTE   W12
 BYTE   N04  Cn2  v044
 BYTE   N04  Gn1
 BYTE   W06
 BYTE   N06  Cn2  v055
 BYTE   N06  Gn1
 BYTE   W12
// 014   ----------------------------------------
 BYTE   Gn1  v077
 BYTE   W06
 BYTE   N04  Gn1  v053
 BYTE   W06
 BYTE   Gn1
 BYTE   W06
 BYTE   N06  Gn1  v077
 BYTE   W06
 BYTE   N04  Gn1  v053
 BYTE   W06
 BYTE   Gn1
 BYTE   W06
 BYTE   N06  Gn1  v077
 BYTE   W06
 BYTE   N04  Gn1  v053
 BYTE   W06
 BYTE   N06  Dn2  v077
 BYTE   N06  Gn1
 BYTE   W06
 BYTE   N04  Gn1  v053
 BYTE   W06
 BYTE   Gn1
 BYTE   W06
 BYTE   N06  Dn2  v077
 BYTE   N06  Gn1
 BYTE   W06
 BYTE   N04  Gn1  v053
 BYTE   W06
 BYTE   Gn1
 BYTE   W06
 BYTE   Gn1
 BYTE   W06
 BYTE   Gn1
 BYTE   W06
// 015   ----------------------------------------
 BYTE   N06  Gn1  v077
 BYTE   W06
 BYTE   N04  Gn1  v053
 BYTE   W06
 BYTE   Gn1
 BYTE   W06
 BYTE   N06  As1  v077
 BYTE   N06  Fn1
 BYTE   W06
 BYTE   N04  Gn1  v053
 BYTE   W06
 BYTE   Gn1
 BYTE   W06
 BYTE   Gn1  v062
 BYTE   W06
 BYTE   Gn1  v053
 BYTE   W06
 BYTE   Gn1  v062
 BYTE   W06
 BYTE   Gn1  v053
 BYTE   W06
 BYTE   Gn1  v062
 BYTE   W06
 BYTE   Gn1  v053
 BYTE   W06
 BYTE   Gn1  v062
 BYTE   W06
 BYTE   Gn1  v053
 BYTE   W06
 BYTE   Gn1  v062
 BYTE   W06
 BYTE   Gn1  v053
 BYTE   W06
// 016   ----------------------------------------
 BYTE   N06  Cn2  v066
 BYTE   N06  Gn1
 BYTE   W06
 BYTE   N04  Gn1  v053
 BYTE   W06
 BYTE   Gn1
 BYTE   W06
 BYTE   N06  Cn2  v066
 BYTE   N06  Gn1
 BYTE   W06
 BYTE   N04  Gn1  v053
 BYTE   W06
 BYTE   Gn1
 BYTE   W06
 BYTE   Gn1
 BYTE   W06
 BYTE   Gn1
 BYTE   W06
 BYTE   N06  Cn2  v066
 BYTE   N06  Gn1
 BYTE   W06
 BYTE   N04  Gn1  v053
 BYTE   W06
 BYTE   Gn1
 BYTE   W06
 BYTE   Gn1
 BYTE   W06
 BYTE   Gn1
 BYTE   W06
 BYTE   Gn1
 BYTE   W06
 BYTE   N06  Cn2  v066
 BYTE   N06  Gn1
 BYTE   W06
 BYTE   N04  Gn1  v053
 BYTE   W06
// 017   ----------------------------------------
 BYTE   Cn2
 BYTE   N04  Gn1
 BYTE   W06
 BYTE   N06  Gn1  v066
 BYTE   W06
 BYTE   Gn1
 BYTE   W06
 BYTE   N04  Cn2  v053
 BYTE   N04  Gn1
 BYTE   W06
 BYTE   Gn1
 BYTE   W06
 BYTE   Gn1
 BYTE   W06
 BYTE   Gn1
 BYTE   W06
 BYTE   Gn1
 BYTE   W06
 BYTE   N06  Cn2  v066
 BYTE   N06  Gn1
 BYTE   W06
 BYTE   N04  Gn1  v053
 BYTE   W06
 BYTE   Gn1
 BYTE   W06
 BYTE   Gn1
 BYTE   W06
 BYTE   Gn1
 BYTE   W06
 BYTE   Gn1
 BYTE   W06
 BYTE   N06  Cn2  v066
 BYTE   N06  Gn1
 BYTE   W06
 BYTE   N04  Gn1  v053
 BYTE   W06
// 018   ----------------------------------------
 BYTE   N30  An1  v055
 BYTE   W30
 BYTE   N06
 BYTE   W06
 BYTE   An1
 BYTE   W06
 BYTE   N01  Cn2
 BYTE   W12
 BYTE   N36  Dn2
 BYTE   W42
// 019   ----------------------------------------
 BYTE   N42  An1
 BYTE   W42
 BYTE   N03  Gn1
 BYTE   W12
 BYTE   Bn1
 BYTE   W12
 BYTE   Cn2
 BYTE   W12
 BYTE   N18  Dn2
 BYTE   W18
// 020   ----------------------------------------
 BYTE   N42  An1
 BYTE   W42
 BYTE   N01
 BYTE   W12
 BYTE   N42  Dn2
 BYTE   W42
// 021   ----------------------------------------
 BYTE   An1
 BYTE   W42
 BYTE   N54  Gs1
 BYTE   W54
// 022   ----------------------------------------
 BYTE   W96
// 023   ----------------------------------------
 BYTE   W96
// 024   ----------------------------------------
 BYTE   W96
// 025   ----------------------------------------
 BYTE   W96
// 026   ----------------------------------------
 BYTE   W96
// 027   ----------------------------------------
 BYTE   W96
// 028   ----------------------------------------
 BYTE   W03
 BYTE   W06
 BYTE   GoTo
  POIN2 Label_AFormidableFow3_0146199C
 BYTE   FINE

//**************** Track 5 (Midi-Chn.4) ****************//

songAFormidableFoe_005:
// 000   ----------------------------------------
Label_AFormidableFow4_01461C30:
 BYTE   KEYSH   songAFormidableFoe_key+0
 BYTE   VOICE   33
 BYTE   VOL   50*songAFormidableFoe_mvl/mxv
 BYTE   PAN   c_v+0
 BYTE   N06  An1  v066
 BYTE   TEMPO   96*songAFormidableFoe_tbs/2
 BYTE   W06
 BYTE   N06  An1  v066
 BYTE   W06
 BYTE   An1
 BYTE   W06
 BYTE   An1
 BYTE   W06
 BYTE   An1
 BYTE   W06
 BYTE   An1
 BYTE   W06
 BYTE   An1
 BYTE   W06
 BYTE   Gn1
 BYTE   W06
 BYTE   Gn1
 BYTE   W06
 BYTE   Gn1
 BYTE   W06
 BYTE   Gn1
 BYTE   W06
 BYTE   Gn1
 BYTE   W06
 BYTE   Gn1
 BYTE   W06
 BYTE   Gn1
 BYTE   W06
 BYTE   Gn1
 BYTE   W06
 BYTE   Fn1
 BYTE   W06
// 001   ----------------------------------------
Label_AFormidableFow4_01461C5E:
 BYTE   N06  Fn1  v066
 BYTE   W06
 BYTE   Fn1
 BYTE   W06
 BYTE   Fn1
 BYTE   W06
 BYTE   Fn1
 BYTE   W06
 BYTE   Fn1
 BYTE   W06
 BYTE   Fn1
 BYTE   W06
 BYTE   Fn1
 BYTE   W06
 BYTE   Fn1
 BYTE   W06
 BYTE   Gn1
 BYTE   W06
 BYTE   Gn1
 BYTE   W06
 BYTE   Gn1
 BYTE   W06
 BYTE   Gn1
 BYTE   W06
 BYTE   Gn1
 BYTE   W06
 BYTE   Gn1
 BYTE   W06
 BYTE   Gn1
 BYTE   W06
 BYTE   Gn1
 BYTE   W06
 BYTE   PEND 
// 002   ----------------------------------------
Label_AFormidableFow4_01461C81:
 BYTE   N06  An1  v066
 BYTE   W06
 BYTE   An1
 BYTE   W06
 BYTE   An1
 BYTE   W06
 BYTE   An1
 BYTE   W06
 BYTE   An1
 BYTE   W06
 BYTE   An1
 BYTE   W06
 BYTE   An1
 BYTE   W06
 BYTE   Gn1
 BYTE   W06
 BYTE   Gn1
 BYTE   W06
 BYTE   Gn1
 BYTE   W06
 BYTE   Gn1
 BYTE   W06
 BYTE   Gn1
 BYTE   W06
 BYTE   Gn1
 BYTE   W06
 BYTE   Gn1
 BYTE   W06
 BYTE   Gn1
 BYTE   W06
 BYTE   Fn1
 BYTE   W06
 BYTE   PEND 
// 003   ----------------------------------------
 BYTE   N12  Fn0  v066
 BYTE   W12
 BYTE   N06  Fn1
 BYTE   W06
 BYTE   Fn0
 BYTE   W12
 BYTE   Fn0
 BYTE   W06
 BYTE   Fn1
 BYTE   W06
 BYTE   Fn0
 BYTE   W06
 BYTE   N12
 BYTE   W12
 BYTE   N06  Fn1
 BYTE   W06
 BYTE   Fn0
 BYTE   W12
 BYTE   Fn0
 BYTE   W06
 BYTE   Fn1
 BYTE   W06
 BYTE   Fn0
 BYTE   W06
 BYTE   PATT
  POIN2 Label_AFormidableFow4_01461C81
 BYTE   PATT
  POIN2 Label_AFormidableFow4_01461C5E
 BYTE   PATT
  POIN2 Label_AFormidableFow4_01461C81
// 004   ----------------------------------------
 BYTE   N06  Fn1  v066
 BYTE   W06
 BYTE   Fn1
 BYTE   W06
 BYTE   Fn1
 BYTE   W06
 BYTE   Fn1
 BYTE   W06
 BYTE   Fn1
 BYTE   W06
 BYTE   Fn1
 BYTE   W06
 BYTE   Fn1
 BYTE   W06
 BYTE   Fn1
 BYTE   W06
 BYTE   En1
 BYTE   W06
 BYTE   En1
 BYTE   W06
 BYTE   En1
 BYTE   W06
 BYTE   En1
 BYTE   W06
 BYTE   En1
 BYTE   W06
 BYTE   En1
 BYTE   W06
 BYTE   En1
 BYTE   W06
 BYTE   En1
 BYTE   W06
// 005   ----------------------------------------
 BYTE   N12  Cn1
 BYTE   W12
 BYTE   Cn1
 BYTE   W12
 BYTE   Cn1
 BYTE   W12
 BYTE   Cn1
 BYTE   W12
 BYTE   Dn1
 BYTE   W12
 BYTE   Dn1
 BYTE   W12
 BYTE   Dn1
 BYTE   W12
 BYTE   Dn1
 BYTE   W12
// 006   ----------------------------------------
 BYTE   N06  Bn0
 BYTE   W06
 BYTE   Bn0
 BYTE   W06
 BYTE   Bn0
 BYTE   W06
 BYTE   Bn0
 BYTE   W06
 BYTE   Bn1
 BYTE   W06
 BYTE   An1
 BYTE   W06
 BYTE   Gn1
 BYTE   W06
 BYTE   Fs1
 BYTE   W06
 BYTE   En1
 BYTE   W06
 BYTE   En1
 BYTE   W06
 BYTE   En1
 BYTE   W06
 BYTE   En1
 BYTE   W06
 BYTE   Dn1
 BYTE   W06
 BYTE   Dn1
 BYTE   W06
 BYTE   Dn1
 BYTE   W06
 BYTE   Dn1
 BYTE   W06
// 007   ----------------------------------------
 BYTE   Dn2
 BYTE   W06
 BYTE   Dn2
 BYTE   W06
 BYTE   Dn2
 BYTE   W06
 BYTE   Dn2
 BYTE   W06
 BYTE   Dn2
 BYTE   W06
 BYTE   Dn2
 BYTE   W06
 BYTE   Dn2
 BYTE   W06
 BYTE   Dn2
 BYTE   W06
 BYTE   Dn2
 BYTE   W06
 BYTE   Dn2
 BYTE   W06
 BYTE   Dn2
 BYTE   W06
 BYTE   Dn2
 BYTE   W06
 BYTE   Dn2
 BYTE   W06
 BYTE   Dn2
 BYTE   W06
 BYTE   Dn2
 BYTE   W06
 BYTE   Dn2
 BYTE   W06
// 008   ----------------------------------------
Label_AFormidableFow4_01461D43:
 BYTE   N06  En1  v066
 BYTE   W06
 BYTE   En1
 BYTE   W06
 BYTE   En1
 BYTE   W06
 BYTE   En1
 BYTE   W06
 BYTE   En1
 BYTE   W06
 BYTE   En1
 BYTE   W06
 BYTE   En1
 BYTE   W06
 BYTE   En1
 BYTE   W06
 BYTE   Cn1
 BYTE   W06
 BYTE   Cn1
 BYTE   W06
 BYTE   Cn1
 BYTE   W06
 BYTE   Cn1
 BYTE   W06
 BYTE   Cn1
 BYTE   W06
 BYTE   Cn1
 BYTE   W06
 BYTE   Cn1
 BYTE   W06
 BYTE   Cn1
 BYTE   W06
 BYTE   PEND 
// 009   ----------------------------------------
 BYTE   N06  An0  v066
 BYTE   W06
 BYTE   An0
 BYTE   W06
 BYTE   An0
 BYTE   W06
 BYTE   An0
 BYTE   W06
 BYTE   An0
 BYTE   W06
 BYTE   An0
 BYTE   W06
 BYTE   An0
 BYTE   W06
 BYTE   An0
 BYTE   W06
 BYTE   Dn1
 BYTE   W06
 BYTE   Dn1
 BYTE   W06
 BYTE   Dn1
 BYTE   W06
 BYTE   Dn1
 BYTE   W06
 BYTE   Dn1
 BYTE   W06
 BYTE   Dn1
 BYTE   W06
 BYTE   Dn1
 BYTE   W06
 BYTE   Dn1
 BYTE   W06
 BYTE   PATT
  POIN2 Label_AFormidableFow4_01461D43
// 010   ----------------------------------------
 BYTE   N06  An0  v066
 BYTE   W06
 BYTE   An0
 BYTE   W06
 BYTE   An0
 BYTE   W06
 BYTE   An0
 BYTE   W06
 BYTE   An0
 BYTE   W06
 BYTE   An0
 BYTE   W06
 BYTE   An0
 BYTE   W06
 BYTE   An0
 BYTE   W06
 BYTE   Cn1
 BYTE   W06
 BYTE   Ds1
 BYTE   W06
 BYTE   Fs1
 BYTE   W06
 BYTE   Bn0
 BYTE   W06
 BYTE   Bn1
 BYTE   W06
 BYTE   Fs1
 BYTE   W06
 BYTE   Ds1
 BYTE   W06
 BYTE   Fs1
 BYTE   W06
// 011   ----------------------------------------
 BYTE   Cn1
 BYTE   W06
 BYTE   Cn2
 BYTE   W06
 BYTE   Cn1
 BYTE   W06
 BYTE   Cn2
 BYTE   W06
 BYTE   Cn1
 BYTE   W06
 BYTE   Cn2
 BYTE   W06
 BYTE   Cn1
 BYTE   W06
 BYTE   Cn2
 BYTE   W06
 BYTE   Cn1
 BYTE   W06
 BYTE   Cn2
 BYTE   W06
 BYTE   Cn1
 BYTE   W06
 BYTE   Cn2
 BYTE   W06
 BYTE   Cn1
 BYTE   W06
 BYTE   Cn2
 BYTE   W06
 BYTE   Cn1
 BYTE   W06
 BYTE   Cn2
 BYTE   W06
// 012   ----------------------------------------
Label_AFormidableFow4_01461DCF:
 BYTE   N06  Gn1  v077
 BYTE   W06
 BYTE   Gn1  v066
 BYTE   W06
 BYTE   Gn1
 BYTE   W06
 BYTE   Gn1  v077
 BYTE   W06
 BYTE   Gn1  v066
 BYTE   W06
 BYTE   Gn1
 BYTE   W06
 BYTE   Gn1  v077
 BYTE   W06
 BYTE   Gn1  v066
 BYTE   W06
 BYTE   Gn1  v077
 BYTE   W06
 BYTE   Gn1  v066
 BYTE   W06
 BYTE   Gn1
 BYTE   W06
 BYTE   Gn1  v077
 BYTE   W06
 BYTE   Gn1  v066
 BYTE   W06
 BYTE   Gn1  v077
 BYTE   W06
 BYTE   Gn1  v066
 BYTE   W06
 BYTE   Gn1
 BYTE   W06
 BYTE   PEND 
 BYTE   PATT
  POIN2 Label_AFormidableFow4_01461DCF
// 013   ----------------------------------------
 BYTE   N06  Gn1  v077
 BYTE   W06
 BYTE   Gn1  v066
 BYTE   W06
 BYTE   Gn1
 BYTE   W06
 BYTE   Gn1  v077
 BYTE   W06
 BYTE   Gn1  v066
 BYTE   W06
 BYTE   Gn1
 BYTE   W06
 BYTE   Gn1  v077
 BYTE   W06
 BYTE   Gn1  v066
 BYTE   W06
 BYTE   Gn1  v077
 BYTE   W06
 BYTE   Gn1  v066
 BYTE   W06
 BYTE   Gn1
 BYTE   W06
 BYTE   Gn1  v077
 BYTE   W06
 BYTE   Gn1  v066
 BYTE   W06
 BYTE   Gn1  v077
 BYTE   W06
 BYTE   Gn1  v066
 BYTE   W06
 BYTE   Gn1
 BYTE   W06
 BYTE   PATT
  POIN2 Label_AFormidableFow4_01461DCF
// 014   ----------------------------------------
Label_AFormidableFow4_01461E34:
 BYTE   N12  An0  v066
 BYTE   W12
 BYTE   An1
 BYTE   W12
 BYTE   N04  An0
 BYTE   W04
 BYTE   An0
 BYTE   W04
 BYTE   An0
 BYTE   W04
 BYTE   N06  An1
 BYTE   W06
 BYTE   En1
 BYTE   W12
 BYTE   N42  Dn1
 BYTE   W42
 BYTE   PEND 
// 015   ----------------------------------------
 BYTE   N12  An0  v066
 BYTE   W12
 BYTE   An1
 BYTE   W12
 BYTE   N04  An0
 BYTE   W04
 BYTE   An0
 BYTE   W04
 BYTE   An0
 BYTE   W04
 BYTE   N06  An1
 BYTE   W06
 BYTE   En1
 BYTE   W12
 BYTE   N42  Dn1
 BYTE   W42
 BYTE   PATT
  POIN2 Label_AFormidableFow4_01461E34
// 016   ----------------------------------------
 BYTE   N12  An0  v066
 BYTE   W12
 BYTE   An1
 BYTE   W12
 BYTE   N04  An0
 BYTE   W04
 BYTE   An0
 BYTE   W04
 BYTE   An0
 BYTE   W04
 BYTE   N06  An1
 BYTE   W06
 BYTE   N54  En1
 BYTE   W54
// 017   ----------------------------------------
 BYTE   N12  An0
 BYTE   W12
 BYTE   N12  An1  v066
 BYTE   W12
 BYTE   Bn0
 BYTE   W12
 BYTE   Bn1
 BYTE   W12
 BYTE   Cn1
 BYTE   W12
 BYTE   Cn2
 BYTE   W12
 BYTE   Gs0
 BYTE   W12
 BYTE   N06  Bn0
 BYTE   W06
 BYTE   En1
 BYTE   W06
// 018   ----------------------------------------
Label_AFormidableFow4_01461E8D:
 BYTE   N06  Dn1  v066
 BYTE   W06
 BYTE   Dn1
 BYTE   W06
 BYTE   Dn1
 BYTE   W06
 BYTE   Dn1
 BYTE   W06
 BYTE   Fn1
 BYTE   W06
 BYTE   Fn1
 BYTE   W06
 BYTE   Fn1
 BYTE   W06
 BYTE   Fn1
 BYTE   W06
 BYTE   En1
 BYTE   W06
 BYTE   En1
 BYTE   W06
 BYTE   En1
 BYTE   W06
 BYTE   En1
 BYTE   W06
 BYTE   En1
 BYTE   W06
 BYTE   En1
 BYTE   W06
 BYTE   En1
 BYTE   W06
 BYTE   En1
 BYTE   W06
 BYTE   PEND 
// 019   ----------------------------------------
 BYTE   N12  An0  v066
 BYTE   W12
 BYTE   An1
 BYTE   W12
 BYTE   Bn0
 BYTE   W12
 BYTE   Bn1
 BYTE   W12
 BYTE   Cn1
 BYTE   W12
 BYTE   Cn2
 BYTE   W12
 BYTE   Gs0
 BYTE   W12
 BYTE   N06  Bn0
 BYTE   W06
 BYTE   En1
 BYTE   W06
 BYTE   PATT
  POIN2 Label_AFormidableFow4_01461E8D
// 020   ----------------------------------------
 BYTE   N06  Fn0  v066
 BYTE   W06
 BYTE   Cn1
 BYTE   W06
 BYTE   Fn0
 BYTE   W06
 BYTE   Cn1
 BYTE   W06
 BYTE   Fn0
 BYTE   W06
 BYTE   Cn1
 BYTE   W06
 BYTE   Fn0
 BYTE   W06
 BYTE   Cn1
 BYTE   W06
 BYTE   Fn0
 BYTE   W06
 BYTE   Cn1
 BYTE   W06
 BYTE   Fn0
 BYTE   W06
 BYTE   Cn1
 BYTE   W06
 BYTE   Fn0
 BYTE   W06
 BYTE   Cn1
 BYTE   W06
 BYTE   Fn0
 BYTE   W06
 BYTE   Cn1
 BYTE   W06
// 021   ----------------------------------------
 BYTE   Fn0
 BYTE   W06
 BYTE   Cn1
 BYTE   W06
 BYTE   Fn0
 BYTE   W06
 BYTE   Cn1
 BYTE   W06
 BYTE   Fn0
 BYTE   W06
 BYTE   Cn1
 BYTE   W06
 BYTE   Fn0
 BYTE   W06
 BYTE   Cn1
 BYTE   W06
 BYTE   Fn0
 BYTE   W06
 BYTE   Cn1
 BYTE   W06
 BYTE   Fn0
 BYTE   W06
 BYTE   Cn1
 BYTE   W06
 BYTE   Fn0
 BYTE   W06
 BYTE   Cn1
 BYTE   W06
 BYTE   Fn0
 BYTE   W06
 BYTE   Cn1
 BYTE   W06
// 022   ----------------------------------------
 BYTE   GoTo
  POIN2 Label_AFormidableFow4_01461C30
 BYTE   FINE

//**************** Track 6 (Midi-Chn.5) ****************//

songAFormidableFoe_006:
// 000   ----------------------------------------
Label_AFormidableFow5_01461F14:
 BYTE   KEYSH   songAFormidableFoe_key+0
 BYTE   VOICE   63
 BYTE   VOL   40*songAFormidableFoe_mvl/mxv
 BYTE   PAN   c_v+0
 BYTE   TEMPO   96*songAFormidableFoe_tbs/2
 BYTE   W96
// 001   ----------------------------------------
 BYTE   W96
// 002   ----------------------------------------
 BYTE   W96
// 003   ----------------------------------------
 BYTE   W96
// 004   ----------------------------------------
 BYTE   N06  Bn3  v066
 BYTE   W06
 BYTE   Bn3
 BYTE   W06
 BYTE   An3
 BYTE   W06
 BYTE   N10  En4
 BYTE   W12
 BYTE   An4
 BYTE   W12
 BYTE   N11  Gn4
 BYTE   W12
 BYTE   N06  Fn4
 BYTE   W06
 BYTE   En4
 BYTE   W06
 BYTE   Dn4
 BYTE   W06
 BYTE   Cn4
 BYTE   W06
 BYTE   Bn3
 BYTE   W06
 BYTE   N03  An3
 BYTE   W06
 BYTE   N30  Fn3
 BYTE   W30
// 005   ----------------------------------------
 BYTE   N12  Fn3  v044
 BYTE   W12
 BYTE   N06
 BYTE   W06
 BYTE   N18  Gn3
 BYTE   W18
 BYTE   Gn3
 BYTE   W18
 BYTE   Gn3
 BYTE   W18
 BYTE   N06  Cn4  v066
 BYTE   W06
 BYTE   Bn3
 BYTE   W06
 BYTE   An3
 BYTE   W06
 BYTE   N10  En4
 BYTE   W12
// 006   ----------------------------------------
 BYTE   An4
 BYTE   W12
 BYTE   N12  Gn4
 BYTE   W12
 BYTE   N06  Fn4
 BYTE   W06
 BYTE   En4
 BYTE   W06
 BYTE   Dn4
 BYTE   W06
 BYTE   Cn5
 BYTE   W06
 BYTE   Bn4
 BYTE   W06
 BYTE   An4
 BYTE   W06
 BYTE   Gn4
 BYTE   W06
 BYTE   An4
 BYTE   W06
 BYTE   Gs4
 BYTE   W06
 BYTE   Fn4
 BYTE   W06
 BYTE   En4
 BYTE   W06
 BYTE   Dn4
 BYTE   W06
// 007   ----------------------------------------
 BYTE   Cn4
 BYTE   W06
 BYTE   Bn3
 BYTE   W06
 BYTE   An3
 BYTE   W06
 BYTE   Gs3
 BYTE   W06
 BYTE   Fn3
 BYTE   W06
 BYTE   En3
 BYTE   W06
 BYTE   Dn3
 BYTE   W06
 BYTE   En3
 BYTE   W06
 BYTE   Cn3
 BYTE   W06
 BYTE   Bn2
 BYTE   W06
 BYTE   Cn3
 BYTE   W96
// 008   ----------------------------------------
 BYTE   W96
// 009   ----------------------------------------
 BYTE   W96
// 010   ----------------------------------------
 BYTE   W10
 BYTE   En4
 BYTE   W06
 BYTE   Fs4
 BYTE   W12
 BYTE   N12
 BYTE   W12
 BYTE   N06
 BYTE   W06
 BYTE   En4
 BYTE   W06
 BYTE   Dn4
 BYTE   W06
 BYTE   N24  En4
 BYTE   W24
 BYTE   N06
 BYTE   W06
 BYTE   Dn4
 BYTE   W06
 BYTE   Cn4
 BYTE   W06
// 011   ----------------------------------------
 BYTE   Dn4
 BYTE   W06
 BYTE   N24  An3
 BYTE   W24
 BYTE   N08
 BYTE   W08
 BYTE   Bn3
 BYTE   W08
 BYTE   Cn4
 BYTE   W08
 BYTE   N18  Dn4
 BYTE   W18
 BYTE   Fs4
 BYTE   W18
 BYTE   N12  An4
 BYTE   W12
// 012   ----------------------------------------
 BYTE   N06  En4
 BYTE   W06
 BYTE   Fs4
 BYTE   W12
 BYTE   N12
 BYTE   W12
 BYTE   N06
 BYTE   W06
 BYTE   En4
 BYTE   W06
 BYTE   Dn4
 BYTE   W06
 BYTE   N24  En4
 BYTE   W24
 BYTE   N06  Dn4
 BYTE   W06
 BYTE   Cn4
 BYTE   W06
 BYTE   Bn3
 BYTE   W06
 BYTE   Cn4
 BYTE   W06
// 013   ----------------------------------------
 BYTE   N24  An3
 BYTE   W24
 BYTE   N06
 BYTE   W06
 BYTE   Bn3
 BYTE   W06
 BYTE   Cn4
 BYTE   W06
 BYTE   Dn4
 BYTE   W06
 BYTE   N18  Ds4
 BYTE   W18
 BYTE   En4
 BYTE   W18
 BYTE   N12  Fs4
 BYTE   W96
// 014   ----------------------------------------
 BYTE   W96
// 015   ----------------------------------------
 BYTE   W96
// 016   ----------------------------------------
 BYTE   W96
// 017   ----------------------------------------
 BYTE   W96
// 018   ----------------------------------------
 BYTE   W96
// 019   ----------------------------------------
 BYTE   W96
// 020   ----------------------------------------
 BYTE   W96
// 021   ----------------------------------------
 BYTE   W96
// 022   ----------------------------------------
 BYTE   W24
 BYTE   W02
 BYTE   N06  En4
 BYTE   W06
 BYTE   Dn4
 BYTE   W06
 BYTE   N06  Cn4  v066
 BYTE   W06
 BYTE   Bn3
 BYTE   W06
 BYTE   An3
 BYTE   W06
 BYTE   Gs3
 BYTE   W06
 BYTE   An3
 BYTE   W06
 BYTE   Bn3
 BYTE   W06
 BYTE   Cn4
 BYTE   W06
 BYTE   En3
 BYTE   W06
 BYTE   An3
 BYTE   W06
 BYTE   Cn4
 BYTE   W06
// 023   ----------------------------------------
 BYTE   En4
 BYTE   W06
 BYTE   Dn4
 BYTE   W06
 BYTE   Cn4
 BYTE   W06
 BYTE   Bn3
 BYTE   W06
 BYTE   Dn4
 BYTE   W06
 BYTE   An3
 BYTE   W06
 BYTE   Fn4
 BYTE   W06
 BYTE   En4
 BYTE   W06
 BYTE   Dn4
 BYTE   W06
 BYTE   Cn4
 BYTE   W06
 BYTE   Bn3
 BYTE   W06
 BYTE   Cn4
 BYTE   W06
 BYTE   En4
 BYTE   W06
 BYTE   Gs3
 BYTE   W06
 BYTE   An3
 BYTE   W06
 BYTE   Bn3
 BYTE   W06
// 024   ----------------------------------------
 BYTE   Cn4
 BYTE   W06
 BYTE   Bn3
 BYTE   W06
 BYTE   An3
 BYTE   W06
 BYTE   Gs3
 BYTE   W06
 BYTE   En4
 BYTE   W06
 BYTE   Dn4
 BYTE   W06
 BYTE   Cn4
 BYTE   W06
 BYTE   Bn3
 BYTE   W06
 BYTE   An3
 BYTE   W06
 BYTE   Gs3
 BYTE   W06
 BYTE   An3
 BYTE   W06
 BYTE   Bn3
 BYTE   W06
 BYTE   Cn4
 BYTE   W06
 BYTE   En3
 BYTE   W06
 BYTE   An3
 BYTE   W06
 BYTE   Cn4
 BYTE   W06
// 025   ----------------------------------------
 BYTE   En4
 BYTE   W06
 BYTE   Dn4
 BYTE   W06
 BYTE   Cn4
 BYTE   W06
 BYTE   Bn3
 BYTE   W06
 BYTE   Dn4
 BYTE   W06
 BYTE   An3
 BYTE   W06
 BYTE   Fn4
 BYTE   W06
 BYTE   En4
 BYTE   W06
 BYTE   Dn4
 BYTE   W06
 BYTE   Cn4
 BYTE   W06
 BYTE   Bn3
 BYTE   W06
 BYTE   Cn4
 BYTE   W06
 BYTE   En4
 BYTE   W06
 BYTE   Gs3
 BYTE   W06
 BYTE   An3
 BYTE   W06
 BYTE   Bn3
 BYTE   W06
// 026   ----------------------------------------
 BYTE   Cn4
 BYTE   W06
 BYTE   Bn3
 BYTE   W06
 BYTE   An3
 BYTE   W06
 BYTE   Gs3
 BYTE   W06
 BYTE   Fn3
 BYTE   W06
 BYTE   Cn4
 BYTE   W06
 BYTE   Bn3
 BYTE   W06
 BYTE   Cn4
 BYTE   W06
 BYTE   An3
 BYTE   W06
 BYTE   Cn4
 BYTE   W06
 BYTE   Gn3
 BYTE   W06
 BYTE   Cn4
 BYTE   W06
 BYTE   Fn3
 BYTE   W06
 BYTE   Cn4
 BYTE   W06
 BYTE   En3
 BYTE   W06
 BYTE   Cn4
 BYTE   W06
// 027   ----------------------------------------
 BYTE   Fn3
 BYTE   W06
 BYTE   Cn4
 BYTE   W06
 BYTE   Gn3
 BYTE   W06
 BYTE   Cn4
 BYTE   W06
 BYTE   Fn3
 BYTE   W06
 BYTE   Cn4
 BYTE   W06
 BYTE   Bn3
 BYTE   W06
 BYTE   Cn4
 BYTE   W06
 BYTE   An3
 BYTE   W06
 BYTE   Cn4
 BYTE   W06
 BYTE   Gn3
 BYTE   W06
 BYTE   Cn4
 BYTE   W06
 BYTE   Fn3
 BYTE   W06
 BYTE   Cn4
 BYTE   W06
 BYTE   En3
 BYTE   W06
 BYTE   Cn4
 BYTE   W06
// 028   ----------------------------------------
 BYTE   Fn3
 BYTE   W06
 BYTE   Cn4
 BYTE   W06
 BYTE   Gn3
 BYTE   W06
 BYTE   Cn4
 BYTE   W06
 BYTE   W06
 BYTE   GoTo
  POIN2 Label_AFormidableFow5_01461F14
 BYTE   FINE

//**************** Track 7 (Midi-Chn.6) ****************//

songAFormidableFoe_007:
// 000   ----------------------------------------
Label_AFormidableFow6_014620BC:
 BYTE   KEYSH   songAFormidableFoe_key+0
 BYTE   VOICE   18
 BYTE   VOL   60*songAFormidableFoe_mvl/mxv
 BYTE   PAN   c_v+0
 BYTE   N06  Cn4  v066
 BYTE   TEMPO   96*songAFormidableFoe_tbs/2
 BYTE   W06
 BYTE   N06  Bn3  v066
 BYTE   W06
 BYTE   N03  An3
 BYTE   W06
 BYTE   N12  En4  v044
 BYTE   W12
 BYTE   N10  An4  v066
 BYTE   W12
 BYTE   N11  Gn4
 BYTE   W12
 BYTE   N06  Fn4
 BYTE   W06
 BYTE   En4
 BYTE   W06
 BYTE   Dn4
 BYTE   W06
 BYTE   Cn4
 BYTE   W06
 BYTE   Bn3
 BYTE   W06
 BYTE   N03  An3
 BYTE   W06
 BYTE   N30  Fn3
 BYTE   W30
// 001   ----------------------------------------
 BYTE   N03  An3
 BYTE   W06
 BYTE   Bn3
 BYTE   W06
 BYTE   Cn4  v055
 BYTE   W06
 BYTE   N16  Bn3  v066
 BYTE   N24  Gn3
 BYTE   W24
 BYTE   N18  Dn4
 BYTE   N18  Bn3
 BYTE   W18
 BYTE   N12  Gn4
 BYTE   W12
 BYTE   N06  Cn4
 BYTE   W06
 BYTE   Bn3
 BYTE   W06
 BYTE   An3
 BYTE   W06
 BYTE   N12  En4
 BYTE   W12
// 002   ----------------------------------------
 BYTE   N10  An4
 BYTE   W12
 BYTE   N12  Gn4
 BYTE   W12
 BYTE   N06  Fn4
 BYTE   W06
 BYTE   En4
 BYTE   W06
 BYTE   Dn4
 BYTE   W06
 BYTE   Cn5
 BYTE   W06
 BYTE   Bn4
 BYTE   W06
 BYTE   An4
 BYTE   W06
 BYTE   Gn4
 BYTE   W06
 BYTE   N14  Fn4
 BYTE   W18
 BYTE   N19  En4
 BYTE   W30
// 003   ----------------------------------------
 BYTE   N14  Dn4
 BYTE   W18
 BYTE   Dn4
 BYTE   W18
 BYTE   N09
 BYTE   W96
// 004   ----------------------------------------
 BYTE   W36
 BYTE   W02
 BYTE   N03  An3
 BYTE   W06
 BYTE   Bn3
 BYTE   W06
 BYTE   Cn4
 BYTE   W06
 BYTE   N16  Bn3
 BYTE   N24  Gn3
 BYTE   W24
 BYTE   N18  Dn4
 BYTE   W18
// 005   ----------------------------------------
 BYTE   N12  Gn4
 BYTE   W96
// 006   ----------------------------------------
 BYTE   W96
// 007   ----------------------------------------
 BYTE   W36
 BYTE   W03
 BYTE   N08  En4
 BYTE   W08
 BYTE   Fs4
 BYTE   W08
 BYTE   Gn4
 BYTE   W08
 BYTE   N18
 BYTE   W18
 BYTE   Fs4
 BYTE   W18
// 008   ----------------------------------------
 BYTE   N12  Dn4
 BYTE   W12
 BYTE   N06  Ds4
 BYTE   W06
 BYTE   En4
 BYTE   W06
 BYTE   Fs4
 BYTE   W06
 BYTE   Bn3
 BYTE   W06
 BYTE   Bn4
 BYTE   W06
 BYTE   An4
 BYTE   W06
 BYTE   Gn4
 BYTE   W06
 BYTE   Fs4
 BYTE   W06
 BYTE   N24  Gn4
 BYTE   W24
 BYTE   N06
 BYTE   W06
 BYTE   Fs4
 BYTE   W06
// 009   ----------------------------------------
 BYTE   Gn4
 BYTE   W06
 BYTE   An4
 BYTE   W06
 BYTE   N48  Bn4
 BYTE   W48
 BYTE   An4
 BYTE   W96
// 010   ----------------------------------------
 BYTE   W96
// 011   ----------------------------------------
 BYTE   W96
// 012   ----------------------------------------
 BYTE   W96
// 013   ----------------------------------------
 BYTE   W96
// 014   ----------------------------------------
 BYTE   W56
 BYTE   N06  Gn3
 BYTE   N06  Gn2
 BYTE   N06  Gn1
 BYTE   W06
 BYTE   Gn2
 BYTE   N06  Gn1
 BYTE   W06
 BYTE   Gn2
 BYTE   N06  Gn1
 BYTE   W06
 BYTE   As3
 BYTE   N12  Gn2
 BYTE   N12  Gn1
 BYTE   W12
 BYTE   N06  Gn2
 BYTE   N06  Gn1
 BYTE   W06
 BYTE   Gn3
 BYTE   N06  Gn2
 BYTE   N06  Gn1
 BYTE   W06
// 015   ----------------------------------------
 BYTE   Gn2
 BYTE   N06  Gn1
 BYTE   W06
 BYTE   Gn2
 BYTE   N06  Gn1
 BYTE   W06
 BYTE   Cn4
 BYTE   N06  Gn2
 BYTE   N06  Gn1
 BYTE   W06
 BYTE   Gn2
 BYTE   N06  Gn1
 BYTE   W06
 BYTE   N12  Gn2
 BYTE   N12  Gn1
 BYTE   W06
 BYTE   N06  As3
 BYTE   W06
 BYTE   Gn2
 BYTE   N06  Gn1
 BYTE   W06
 BYTE   Gn3
 BYTE   N06  Gn2
 BYTE   N06  Gn1
 BYTE   W06
 BYTE   Gn2
 BYTE   N06  Gn1
 BYTE   W06
 BYTE   Fn3
 BYTE   N06  Gn2
 BYTE   N06  Gn1
 BYTE   W06
 BYTE   Gn2
 BYTE   N06  Gn1
 BYTE   W06
 BYTE   Gn2
 BYTE   N06  Gn1
 BYTE   W06
 BYTE   Gn3
 BYTE   N06  Gn2
 BYTE   N06  Gn1
 BYTE   W06
 BYTE   N12  Gn2
 BYTE   N12  Gn1
 BYTE   W12
 BYTE   N06  As3
 BYTE   N06  Gn2
 BYTE   N06  Gn1
 BYTE   W06
// 016   ----------------------------------------
 BYTE   Gn2
 BYTE   N06  Gn1
 BYTE   W06
 BYTE   Gn2
 BYTE   N06  Gn1
 BYTE   W06
 BYTE   Cn4
 BYTE   N06  Gn2
 BYTE   N06  Gn1
 BYTE   W06
 BYTE   Gn2  v053
 BYTE   N06  Gn1
 BYTE   W06
 BYTE   Gn2
 BYTE   N06  Gn1
 BYTE   W06
 BYTE   Gn3  v066
 BYTE   N12  Gn2
 BYTE   N12  Gn1
 BYTE   W12
 BYTE   N06  As3
 BYTE   N06  Gn2
 BYTE   N06  Gn1
 BYTE   W06
 BYTE   Gn2
 BYTE   N06  Gn1
 BYTE   W06
 BYTE   Cn4
 BYTE   N06  Gn2
 BYTE   N06  Gn1
 BYTE   W06
 BYTE   Gn2
 BYTE   N06  Gn1
 BYTE   W06
 BYTE   Gn2
 BYTE   N06  Gn1
 BYTE   W06
 BYTE   As3
 BYTE   N12  Gn2
 BYTE   N12  Gn1
 BYTE   W12
 BYTE   N06  Gn2
 BYTE   N06  Gn1
 BYTE   W06
 BYTE   Cn4
 BYTE   N06  Gn2
 BYTE   N06  Gn1
 BYTE   W06
// 017   ----------------------------------------
 BYTE   Gn2
 BYTE   N06  Gn1
 BYTE   W06
 BYTE   Gn2
 BYTE   N06  Gn1
 BYTE   W06
 BYTE   Cs4
 BYTE   N06  Gn2
 BYTE   N06  Gn1
 BYTE   W06
 BYTE   Gn2
 BYTE   N06  Gn1
 BYTE   W06
 BYTE   N12
 BYTE   N12  Gn2
 BYTE   W06
 BYTE   N06  Cn4
 BYTE   W06
 BYTE   Gn2
 BYTE   N06  Gn1
 BYTE   W06
 BYTE   As3
 BYTE   N06  Gn2
 BYTE   N06  Gn1
 BYTE   W06
 BYTE   Gn2
 BYTE   N06  Gn1
 BYTE   W06
 BYTE   Gn3
 BYTE   N06  Gn2
 BYTE   N06  Gn1
 BYTE   W06
 BYTE   Gn2
 BYTE   N06  Gn1
 BYTE   W06
 BYTE   Gn2
 BYTE   N06  Gn1
 BYTE   W06
 BYTE   As3
 BYTE   N06  Gn2
 BYTE   N06  Gn1
 BYTE   W06
 BYTE   N12  Gn2
 BYTE   N12  Gn1
 BYTE   W12
 BYTE   N06  Cn4
 BYTE   N06  Gn2
 BYTE   N06  Gn1
 BYTE   W06
// 018   ----------------------------------------
 BYTE   Gn2
 BYTE   N06  Gn1
 BYTE   W06
 BYTE   Gn2
 BYTE   N06  Gn1
 BYTE   W06
 BYTE   As3
 BYTE   N06  Gn2
 BYTE   N06  Gn1
 BYTE   W06
 BYTE   Gn2
 BYTE   N06  Gn1
 BYTE   W06
 BYTE   Gn2
 BYTE   N06  Gn1
 BYTE   W06
 BYTE   Gn3
 BYTE   N12  Gn2
 BYTE   N12  Gn1
 BYTE   W12
 BYTE   N06  Fn3
 BYTE   N06  Gn2
 BYTE   N06  Gn1
 BYTE   W06
 BYTE   Gn2
 BYTE   N06  Gn1
 BYTE   W06
Label_AFormidableFow6_01462298:
 BYTE   N30  An3  v066
 BYTE   W30
 BYTE   N06  Bn3
 BYTE   W06
 BYTE   N03  Cn4
 BYTE   W06
// 019   ----------------------------------------
 BYTE   N06  En4
 BYTE   W12
 BYTE   N42  Dn4
 BYTE   W01
 BYTE   N01
 BYTE   W40
 BYTE   W01
 BYTE   PEND 
 BYTE   N30  An3  v066
 BYTE   W30
 BYTE   N06  Bn3
 BYTE   W06
 BYTE   N03  Cn4
 BYTE   W06
// 020   ----------------------------------------
 BYTE   N06  En4
 BYTE   W12
 BYTE   N42  Dn4
 BYTE   W01
 BYTE   N01
 BYTE   W40
 BYTE   W01
 BYTE   PATT
  POIN2 Label_AFormidableFow6_01462298
// 021   ----------------------------------------
 BYTE   N30  An3  v066
 BYTE   W30
 BYTE   N06  Bn3
 BYTE   W06
 BYTE   An3
 BYTE   W06
 BYTE   N18  Gs3
 BYTE   W18
 BYTE   N06  En3
 BYTE   W06
 BYTE   N30  En4
 BYTE   W30
// 022   ----------------------------------------
 BYTE   W96
// 023   ----------------------------------------
 BYTE   W96
// 024   ----------------------------------------
 BYTE   W96
// 025   ----------------------------------------
 BYTE   W96
// 026   ----------------------------------------
 BYTE   W96
// 027   ----------------------------------------
 BYTE   W96
// 028   ----------------------------------------
 BYTE   W03
 BYTE   W06
 BYTE   GoTo
  POIN2 Label_AFormidableFow6_014620BC
 BYTE   FINE

//**************** Track 8 (Midi-Chn.7) ****************//

songAFormidableFoe_008:
// 000   ----------------------------------------
Label_AFormidableFow7_014622E4:
 BYTE   KEYSH   songAFormidableFoe_key+0
 BYTE   VOICE   127
 BYTE   VOL   50*songAFormidableFoe_mvl/mxv
 BYTE   PAN   c_v+0
 BYTE   N06  As1  v010
 BYTE   N06  Cn1  v066
 BYTE   N12  Cs2
 BYTE   N12  An2
 BYTE   N12  Gn2
 BYTE   TEMPO   96*songAFormidableFoe_tbs/2
 BYTE   W12
 BYTE   N06  As1  v055
 BYTE   N06  En1  v066
 BYTE   N06  Dn1
 BYTE   W12
 BYTE   As1  v055
 BYTE   N06  Cn1  v066
 BYTE   W12
 BYTE   As1  v055
 BYTE   N06  En1  v066
 BYTE   N06  Dn1
 BYTE   W12
 BYTE   As1  v055
 BYTE   N06  Cn1  v066
 BYTE   W12
 BYTE   As1  v055
 BYTE   N06  En1  v066
 BYTE   N06  Dn1
 BYTE   W12
 BYTE   As1  v055
 BYTE   N06  Cn1  v066
 BYTE   W12
 BYTE   As1  v055
 BYTE   N06  En1  v066
 BYTE   N06  Dn1
 BYTE   W12
// 001   ----------------------------------------
Label_AFormidableFow7_0146232E:
 BYTE   N06  As1  v055
 BYTE   N06  Cn1  v066
 BYTE   W12
 BYTE   As1  v055
 BYTE   N06  En1  v066
 BYTE   N06  Dn1
 BYTE   W12
 BYTE   As1  v055
 BYTE   N06  Cn1  v066
 BYTE   W12
 BYTE   As1  v055
 BYTE   N06  En1  v066
 BYTE   N06  Dn1
 BYTE   W12
 BYTE   As1  v055
 BYTE   N06  Cn1  v066
 BYTE   W12
 BYTE   As1  v055
 BYTE   N06  En1  v066
 BYTE   N06  Dn1
 BYTE   W12
 BYTE   As1  v055
 BYTE   N06  Cn1  v066
 BYTE   W12
 BYTE   As1  v055
 BYTE   N06  En1  v066
 BYTE   N06  Dn1
 BYTE   W12
 BYTE   PEND 
// 002   ----------------------------------------
Label_AFormidableFow7_01462368:
 BYTE   N06  Cs2  v066
 BYTE   N06  As1  v010
 BYTE   N06  An2  v066
 BYTE   N06  Cn1
 BYTE   N06  Gn2
 BYTE   W12
 BYTE   As1  v055
 BYTE   N06  En1  v066
 BYTE   N06  Dn1
 BYTE   W12
 BYTE   As1  v055
 BYTE   N06  Cn1  v066
 BYTE   W12
 BYTE   As1  v055
 BYTE   N06  En1  v066
 BYTE   N06  Dn1
 BYTE   W12
 BYTE   As1  v055
 BYTE   N06  Cn1  v066
 BYTE   W12
 BYTE   As1  v055
 BYTE   N06  En1  v066
 BYTE   N06  Dn1
 BYTE   W12
 BYTE   As1  v055
 BYTE   N06  Cn1  v066
 BYTE   W12
 BYTE   As1  v055
 BYTE   N06  En1  v066
 BYTE   N06  Dn1
 BYTE   W12
 BYTE   PEND 
// 003   ----------------------------------------
 BYTE   N06  An2  v066
 BYTE   N06  Gn2
 BYTE   N06  Cn1
 BYTE   W12
 BYTE   Gn2
 BYTE   N06  En1
 BYTE   W06
 BYTE   Gn2
 BYTE   N06  An2
 BYTE   N06  Cn1
 BYTE   W12
 BYTE   Cn1
 BYTE   W06
 BYTE   En1
 BYTE   N06  Dn1
 BYTE   W12
 BYTE   An2
 BYTE   N06  Gn2
 BYTE   N06  Cn1
 BYTE   W12
 BYTE   Gn2
 BYTE   N06  Cs2
 BYTE   N06  En1
 BYTE   W06
 BYTE   Gn2
 BYTE   N06  An2
 BYTE   N06  Cn1
 BYTE   W12
 BYTE   An2
 BYTE   N06  Gn2
 BYTE   N06  Cn1
 BYTE   W06
 BYTE   An2
 BYTE   N06  Gn2
 BYTE   N06  Dn1
 BYTE   N06  En1
 BYTE   W06
 BYTE   Dn1
 BYTE   N06  En1
 BYTE   N06  An2
 BYTE   N06  Gn2
 BYTE   W06
 BYTE   PATT
  POIN2 Label_AFormidableFow7_01462368
 BYTE   PATT
  POIN2 Label_AFormidableFow7_0146232E
 BYTE   PATT
  POIN2 Label_AFormidableFow7_01462368
// 004   ----------------------------------------
 BYTE   N06  Bn2  v010
 BYTE   N06  Cn1  v066
 BYTE   N06  Ds2
 BYTE   W12
 BYTE   En1
 BYTE   N06  Bn2  v010
 BYTE   N06  Ds2  v066
 BYTE   N06  Dn1
 BYTE   W12
 BYTE   Bn2  v010
 BYTE   N06  Cn1  v066
 BYTE   N06  Ds2
 BYTE   W12
 BYTE   En1
 BYTE   N06  Bn2  v010
 BYTE   N06  Ds2  v066
 BYTE   N06  Dn1
 BYTE   W12
 BYTE   Bn2  v010
 BYTE   N06  Cn1  v066
 BYTE   N06  Ds2
 BYTE   W12
 BYTE   En1
 BYTE   N06  Bn2  v010
 BYTE   N06  Ds2  v066
 BYTE   N06  Dn1
 BYTE   W12
 BYTE   Bn2  v010
 BYTE   N06  Cn1  v066
 BYTE   N06  Ds2
 BYTE   W12
 BYTE   En1
 BYTE   N06  Bn2  v010
 BYTE   N06  Ds2  v066
 BYTE   N06  Dn1
 BYTE   W12
// 005   ----------------------------------------
 BYTE   An2
 BYTE   N06  Gn2
 BYTE   N06  Cn1
 BYTE   N06  Cs2
 BYTE   W12
 BYTE   Ds2
 BYTE   N06  En1
 BYTE   N06  Dn1
 BYTE   W12
 BYTE   Ds2
 BYTE   N06  Cn1
 BYTE   W06
 BYTE   Cn1
 BYTE   W06
 BYTE   Ds2
 BYTE   N06  Dn1
 BYTE   N06  En1
 BYTE   W12
 BYTE   Ds2
 BYTE   N06  Cn1
 BYTE   W12
 BYTE   Ds2
 BYTE   N06  En1
 BYTE   N06  Dn1
 BYTE   W12
 BYTE   Ds2
 BYTE   N06  Cn1
 BYTE   W06
 BYTE   Cn1
 BYTE   W06
 BYTE   Ds2
 BYTE   N06  Dn1
 BYTE   N06  En1
 BYTE   W12
// 006   ----------------------------------------
 BYTE   Ds2
 BYTE   N06  Cn1
 BYTE   W12
 BYTE   Ds2
 BYTE   N06  En1
 BYTE   N06  Dn1
 BYTE   W12
 BYTE   Ds2
 BYTE   N06  Cn1
 BYTE   W06
 BYTE   Cn1
 BYTE   W06
 BYTE   Ds2
 BYTE   N06  Dn1
 BYTE   N06  En1
 BYTE   W12
 BYTE   Ds2
 BYTE   N06  Cn1
 BYTE   W12
 BYTE   Ds2
 BYTE   N06  En1
 BYTE   N06  Dn1
 BYTE   W12
 BYTE   Ds2
 BYTE   N06  Cn1
 BYTE   W06
 BYTE   Cn1
 BYTE   W06
 BYTE   Ds2
 BYTE   N06  Dn1
 BYTE   N06  En1
 BYTE   W12
// 007   ----------------------------------------
Label_AFormidableFow7_0146249D:
 BYTE   N06  As1  v010
 BYTE   N06  Cn1  v066
 BYTE   N12  Cs2
 BYTE   N12  An2
 BYTE   N12  Gn2
 BYTE   W12
 BYTE   N06  As1  v055
 BYTE   N06  En1  v066
 BYTE   N06  Dn1
 BYTE   W12
 BYTE   As1  v055
 BYTE   N06  Cn1  v066
 BYTE   W12
 BYTE   As1  v055
 BYTE   N06  En1  v066
 BYTE   N06  Dn1
 BYTE   W12
 BYTE   As1  v055
 BYTE   N06  Cn1  v066
 BYTE   W12
 BYTE   As1  v055
 BYTE   N06  En1  v066
 BYTE   N06  Dn1
 BYTE   W12
 BYTE   As1  v055
 BYTE   N06  Cn1  v066
 BYTE   W12
 BYTE   As1  v055
 BYTE   N06  En1  v066
 BYTE   N06  Dn1
 BYTE   W12
 BYTE   PEND 
// 008   ----------------------------------------
Label_AFormidableFow7_014624DE:
 BYTE   N06  Cn1  v066
 BYTE   N06  Cs2
 BYTE   N06  Gn2
 BYTE   W12
 BYTE   Cn1
 BYTE   W06
 BYTE   En1
 BYTE   N06  Dn1
 BYTE   N06  Bn2
 BYTE   W12
 BYTE   Bn2
 BYTE   W06
 BYTE   En1
 BYTE   N06  Dn1
 BYTE   N06  Bn2
 BYTE   W06
 BYTE   Bn2
 BYTE   W06
 BYTE   Ds2
 BYTE   W12
 BYTE   Cn1
 BYTE   W06
 BYTE   En1
 BYTE   N06  Dn1
 BYTE   N06  Bn2
 BYTE   W12
 BYTE   Bn2
 BYTE   W06
 BYTE   En1
 BYTE   N06  Dn1
 BYTE   N06  Bn2
 BYTE   W06
 BYTE   Bn2
 BYTE   W06
 BYTE   PEND 
// 009   ----------------------------------------
Label_AFormidableFow7_0146250D:
 BYTE   N06  Cn1  v066
 BYTE   N06  Ds2
 BYTE   W12
 BYTE   Cn1
 BYTE   W06
 BYTE   En1
 BYTE   N06  Dn1
 BYTE   N06  Bn2
 BYTE   W12
 BYTE   Bn2
 BYTE   W06
 BYTE   En1
 BYTE   N06  Dn1
 BYTE   N06  Bn2
 BYTE   W06
 BYTE   Bn2
 BYTE   W06
 BYTE   Ds2
 BYTE   W12
 BYTE   Cn1
 BYTE   W06
 BYTE   En1
 BYTE   N06  Dn1
 BYTE   N06  Bn2
 BYTE   W12
 BYTE   Bn2
 BYTE   W06
 BYTE   En1
 BYTE   N06  Dn1
 BYTE   N06  Bn2
 BYTE   W06
 BYTE   Bn2
 BYTE   W06
 BYTE   PEND 
 BYTE   PATT
  POIN2 Label_AFormidableFow7_014624DE
 BYTE   PATT
  POIN2 Label_AFormidableFow7_0146250D
// 010   ----------------------------------------
 BYTE   N06  Cs2  v066
 BYTE   N06  An2
 BYTE   N06  En2
 BYTE   N06  Dn1
 BYTE   N06  En1
 BYTE   W06
 BYTE   Cn1
 BYTE   W06
 BYTE   Cs2
 BYTE   N06  An2
 BYTE   N06  En2
 BYTE   N06  Dn1
 BYTE   N06  En1
 BYTE   W06
 BYTE   Cn1
 BYTE   W06
 BYTE   Cs2
 BYTE   N06  An2
 BYTE   N06  En2
 BYTE   N06  Dn1
 BYTE   N06  En1
 BYTE   W06
 BYTE   Cn1
 BYTE   W06
 BYTE   Cs2
 BYTE   N06  An2
 BYTE   N06  En2
 BYTE   N06  Dn1
 BYTE   N06  En1
 BYTE   W06
 BYTE   Cn1
 BYTE   W06
 BYTE   Cs2
 BYTE   N06  An2
 BYTE   N06  En2
 BYTE   N06  Dn1
 BYTE   N06  En1
 BYTE   W06
 BYTE   Cn1
 BYTE   W06
 BYTE   Cs2
 BYTE   N06  An2
 BYTE   N06  En2
 BYTE   N06  Dn1
 BYTE   N06  En1
 BYTE   W06
 BYTE   Cn1
 BYTE   W06
 BYTE   Cs2
 BYTE   N06  An2
 BYTE   N06  En2
 BYTE   N06  Dn1
 BYTE   N06  En1
 BYTE   W06
 BYTE   Cn1
 BYTE   W06
 BYTE   Cs2
 BYTE   N06  An2
 BYTE   N06  En2
 BYTE   N06  Dn1
 BYTE   N06  En1
 BYTE   W06
 BYTE   Cn1
 BYTE   W06
// 011   ----------------------------------------
 BYTE   An2
 BYTE   N06  Gn2
 BYTE   N06  Cn1
 BYTE   N06  Cs2
 BYTE   W12
 BYTE   Cn1
 BYTE   W12
 BYTE   Cn1
 BYTE   W12
 BYTE   Cn1
 BYTE   W12
 BYTE   Cn1
 BYTE   W06
 BYTE   Cn1
 BYTE   W06
 BYTE   Cn1
 BYTE   W12
 BYTE   Cn1
 BYTE   W12
 BYTE   Cn1
 BYTE   W12
// 012   ----------------------------------------
 BYTE   Gn2
 BYTE   N06  An2
 BYTE   N06  Cs2
 BYTE   W12
 BYTE   Cn1
 BYTE   W12
 BYTE   Cn1
 BYTE   W06
 BYTE   Cn1
 BYTE   W06
 BYTE   Cn1
 BYTE   W12
 BYTE   Cn1
 BYTE   W06
 BYTE   Gn2
 BYTE   N06  An2
 BYTE   N06  Cs2
 BYTE   W06
 BYTE   Cn1
 BYTE   W12
 BYTE   Gn2
 BYTE   N06  As1
 BYTE   N06  Cn1
 BYTE   W12
 BYTE   Gn2
 BYTE   N06  As1
 BYTE   N06  Cn1
 BYTE   W12
// 013   ----------------------------------------
 BYTE   An2
 BYTE   N06  Gn2
 BYTE   N06  Cn1
 BYTE   N06  Cs2
 BYTE   W12
 BYTE   As1
 BYTE   N06  En1
 BYTE   N06  Dn1
 BYTE   W12
 BYTE   As1
 BYTE   N06  Cn1
 BYTE   W06
 BYTE   Cn1
 BYTE   W06
 BYTE   As1
 BYTE   N06  En1
 BYTE   N06  Dn1
 BYTE   W12
 BYTE   As1
 BYTE   N06  Cn1
 BYTE   W12
 BYTE   As1
 BYTE   N06  En1
 BYTE   N06  Dn1
 BYTE   W12
 BYTE   As1
 BYTE   N06  Cn1
 BYTE   W06
 BYTE   Cn1
 BYTE   W06
 BYTE   As1
 BYTE   N06  En1
 BYTE   N06  Dn1
 BYTE   W12
// 014   ----------------------------------------
 BYTE   Cn1
 BYTE   N06  As1
 BYTE   W12
 BYTE   As1
 BYTE   N06  En1
 BYTE   N06  Dn1
 BYTE   W12
 BYTE   As1
 BYTE   N06  Cn1
 BYTE   W06
 BYTE   Cn1
 BYTE   W06
 BYTE   As1
 BYTE   N06  En1
 BYTE   N06  Dn1
 BYTE   W12
 BYTE   As1
 BYTE   N06  Cn1
 BYTE   W12
 BYTE   As1
 BYTE   N06  En1
 BYTE   N06  Dn1
 BYTE   W12
 BYTE   As1
 BYTE   N06  Cn1
 BYTE   W06
 BYTE   Cn1
 BYTE   W06
 BYTE   As1
 BYTE   N06  En1
 BYTE   N06  Dn1
 BYTE   W12
// 015   ----------------------------------------
 BYTE   Gn2
 BYTE   N06  Cn1  v010
 BYTE   N06  An2  v055
 BYTE   N06  Cs2
 BYTE   W12
 BYTE   Ds2  v066
 BYTE   N06  En1
 BYTE   N06  Dn1
 BYTE   W12
 BYTE   Ds2
 BYTE   N06  Cn1
 BYTE   W06
 BYTE   Cn1
 BYTE   W06
 BYTE   Ds2
 BYTE   N06  En1
 BYTE   N06  Dn1
 BYTE   W06
 BYTE   Dn1  v055
 BYTE   N06  Cn1  v077
 BYTE   N12  An2  v055
 BYTE   W12
 BYTE   N06  Dn1  v066
 BYTE   N06  En1
 BYTE   N12  Ds2
 BYTE   W12
 BYTE   N06  Cn1
 BYTE   N06  Cs2  v055
 BYTE   N06  An2
 BYTE   W12
 BYTE   Cn1  v066
 BYTE   N06  Gn2
 BYTE   N06  Cs2  v055
 BYTE   W06
 BYTE   Dn1  v066
 BYTE   N06  En1
 BYTE   N06  Cs2  v055
 BYTE   N06  An2
 BYTE   W12
// 016   ----------------------------------------
 BYTE   Gn2  v066
 BYTE   N06  Cn1  v010
 BYTE   N06  An2  v055
 BYTE   N06  Cs2
 BYTE   W12
 BYTE   Ds2  v066
 BYTE   N06  En1
 BYTE   N06  Dn1
 BYTE   W12
 BYTE   Ds2
 BYTE   N06  Cn1
 BYTE   W12
 BYTE   Ds2
 BYTE   N06  En1
 BYTE   N06  Dn1
 BYTE   W06
 BYTE   Dn1
 BYTE   N06  Cn1
 BYTE   N12  An2  v055
 BYTE   W12
 BYTE   N06  Dn1  v066
 BYTE   N06  En1
 BYTE   N12  Ds2
 BYTE   W12
 BYTE   N06  Cs2  v055
 BYTE   N06  An2
 BYTE   W12
 BYTE   Ds2  v066
 BYTE   N06  En1
 BYTE   N06  Dn1
 BYTE   W06
 BYTE   An2  v055
 BYTE   N06  Cs2
 BYTE   N12  Cn1
 BYTE   N12  Dn1
 BYTE   W12
// 017   ----------------------------------------
 BYTE   N06  Gn2  v066
 BYTE   N06  Cn1  v010
 BYTE   N06  An2  v066
 BYTE   N06  Cs2
 BYTE   W12
 BYTE   Ds2
 BYTE   N06  En1
 BYTE   N06  Dn1
 BYTE   W12
 BYTE   Ds2
 BYTE   N06  Cn1
 BYTE   W06
 BYTE   Cn1
 BYTE   W06
 BYTE   Ds2
 BYTE   N06  En1
 BYTE   N06  Dn1
 BYTE   W06
 BYTE   Dn1  v055
 BYTE   N06  Cn1  v077
 BYTE   N12  An2  v066
 BYTE   W12
 BYTE   N06  Dn1
 BYTE   N06  En1
 BYTE   N12  Ds2
 BYTE   W12
 BYTE   N06  Cn1
 BYTE   N06  Cs2
 BYTE   N06  An2
 BYTE   W12
 BYTE   Cn1
 BYTE   N06  Gn2
 BYTE   N06  Cs2
 BYTE   W06
 BYTE   Dn1
 BYTE   N06  En1
 BYTE   N06  Cs2
 BYTE   N06  An2
 BYTE   W12
// 018   ----------------------------------------
 BYTE   Gn2  v077
 BYTE   N06  Cs2
 BYTE   N06  Cn1  v066
 BYTE   W12
 BYTE   Dn1
 BYTE   N06  En1
 BYTE   N06  Ds2  v077
 BYTE   N06  Fs1
 BYTE   W12
 BYTE   Fs1
 BYTE   N06  Ds2
 BYTE   N06  Cn1  v066
 BYTE   W12
 BYTE   Ds2  v077
 BYTE   N06  Fs1
 BYTE   N06  Dn1  v066
 BYTE   N06  En1
 BYTE   W06
 BYTE   As1  v077
 BYTE   N06  Cn1  v066
 BYTE   W12
 BYTE   As1
 BYTE   N06  Cn1
 BYTE   W06
 BYTE   An2
 BYTE   N06  As1
 BYTE   N06  Gn2
 BYTE   N06  Dn1
 BYTE   N06  En1
 BYTE   W12
 BYTE   Gn2
 BYTE   N06  As1
 BYTE   N06  An2
 BYTE   N06  Cn1  v077
 BYTE   N06  Dn1  v055
 BYTE   W12
 BYTE   As1  v066
 BYTE   N06  Cs2
 BYTE   N06  Cn1
 BYTE   W06
 BYTE   Cs2
 BYTE   N06  Gn2
 BYTE   N06  As1
 BYTE   N06  Dn1
 BYTE   N06  En1
 BYTE   W06
// 019   ----------------------------------------
 BYTE   Gn2
 BYTE   N06  Cn1
 BYTE   W12
 BYTE   N06  Ds2  v066
 BYTE   N06  En1
 BYTE   N06  Dn1
 BYTE   W12
 BYTE   Ds2
 BYTE   N06  Cn1
 BYTE   W12
 BYTE   Ds2
 BYTE   N06  En1
 BYTE   N06  Dn1
 BYTE   W12
 BYTE   Ds2
 BYTE   N06  Cn1
 BYTE   W12
 BYTE   Ds2
 BYTE   N06  En1
 BYTE   N06  Dn1
 BYTE   W12
 BYTE   Ds2
 BYTE   N06  Cn1
 BYTE   W12
 BYTE   Ds2
 BYTE   N06  En1
 BYTE   N06  Dn1
 BYTE   W12
// 020   ----------------------------------------
Label_AFormidableFow7_01462787:
 BYTE   N06  Ds2  v066
 BYTE   N06  Cn1
 BYTE   W12
 BYTE   Ds2
 BYTE   N06  En1
 BYTE   N06  Dn1
 BYTE   W12
 BYTE   Ds2
 BYTE   N06  Cn1
 BYTE   W12
 BYTE   Ds2
 BYTE   N06  En1
 BYTE   N06  Dn1
 BYTE   W12
 BYTE   Ds2
 BYTE   N06  Cn1
 BYTE   W12
 BYTE   Ds2
 BYTE   N06  En1
 BYTE   N06  Dn1
 BYTE   W12
 BYTE   Ds2
 BYTE   N06  Cn1
 BYTE   W12
 BYTE   Ds2
 BYTE   N06  En1
 BYTE   N06  Dn1
 BYTE   W12
 BYTE   PEND 
// 021   ----------------------------------------
 BYTE   N06  Gn2  v066
 BYTE   N06  Cn1
 BYTE   W12
 BYTE   Ds2
 BYTE   N06  En1
 BYTE   N06  Dn1
 BYTE   W12
 BYTE   Ds2
 BYTE   N06  Cn1
 BYTE   W12
 BYTE   Ds2
 BYTE   N06  En1
 BYTE   N06  Dn1
 BYTE   W12
 BYTE   Ds2
 BYTE   N06  Cn1
 BYTE   W12
 BYTE   Ds2
 BYTE   N06  En1
 BYTE   N06  Dn1
 BYTE   W12
 BYTE   Ds2
 BYTE   N06  Cn1
 BYTE   W12
 BYTE   Ds2
 BYTE   N06  En1
 BYTE   N06  Dn1
 BYTE   W12
 BYTE   PATT
  POIN2 Label_AFormidableFow7_01462787
 BYTE   PATT
  POIN2 Label_AFormidableFow7_0146249D
// 022   ----------------------------------------
 BYTE   N06  As1  v010
 BYTE   N06  Cn1  v066
 BYTE   N12  Cs2
 BYTE   N12  An2
 BYTE   N12  Gn2
 BYTE   W12
 BYTE   N06  As1  v055
 BYTE   N06  En1  v066
 BYTE   N06  Dn1
 BYTE   W12
 BYTE   As1  v055
 BYTE   N06  Cn1  v066
 BYTE   W12
 BYTE   As1  v055
 BYTE   N06  En1  v066
 BYTE   N06  Dn1
 BYTE   W12
 BYTE   As1  v055
 BYTE   N06  Cn1  v066
 BYTE   W12
 BYTE   As1  v055
 BYTE   N06  En1  v066
 BYTE   N06  Dn1
 BYTE   W12
 BYTE   As1  v055
 BYTE   N06  Cn1  v066
 BYTE   W12
 BYTE   As1  v055
 BYTE   N06  En1  v066
 BYTE   N06  Dn1
 BYTE   W06
 BYTE   W06
// 023   ----------------------------------------
 BYTE   GoTo
  POIN2 Label_AFormidableFow7_014622E4
 BYTE   FINE

//******************************************************//
	ALIGN 4

songAFormidableFoeStandsInTheWay:
	BYTE	8	// NumTrks
	BYTE	0	// NumBlks
	BYTE	songAFormidableFoe_pri	// Priority
	BYTE	songAFormidableFoe_rev	// Reverb.
    
	POIN2	songAFormidableFoe_grp
    
	POIN2	songAFormidableFoe_001
	POIN2	songAFormidableFoe_002
	POIN2	songAFormidableFoe_003
	POIN2	songAFormidableFoe_004
	POIN2	songAFormidableFoe_005
	POIN2	songAFormidableFoe_006
	POIN2	songAFormidableFoe_007
	POIN2	songAFormidableFoe_008

	
