//Event file generated from Sappy .s format.
	#include "MPlayDef.event"

	#define	songAFormidableFriendJoinsInTheFray_grp  voicegroup000
	#define	songAFormidableFriendJoinsInTheFray_pri  0
	#define	songAFormidableFriendJoinsInTheFray_rev  0
	#define	songAFormidableFriendJoinsInTheFray_mvl  127
	#define	songAFormidableFriendJoinsInTheFray_key  0
	#define	songAFormidableFriendJoinsInTheFray_tbs  1
	#define	songAFormidableFriendJoinsInTheFray_exg  0
	#define	songAFormidableFriendJoinsInTheFray_cmp  1

	// .rodata
	//	songAFormidableFriendJoinsInTheFray
	ALIGN 4


//**************** Track 1 (Midi-Chn.0) ****************//

songAFormidableFriendJoinsInTheFray_001:
// 000   ----------------------------------------
 BYTE   VOL   80*songAFormidableFriendJoinsInTheFray_mvl/mxv
 BYTE   KEYSH   songAFormidableFriendJoinsInTheFray_key+0
 BYTE   TEMPO   160*songAFormidableFriendJoinsInTheFray_tbs/2
 BYTE   VOICE   61
 BYTE   N24  En3  v056
 BYTE   W24
 BYTE   N12  Dn4
 BYTE   W12
 BYTE   Cn4
 BYTE   W12
 BYTE   En4
 BYTE   W12
 BYTE   Dn4
 BYTE   W12
 BYTE   N04  En4
 BYTE   W06
 BYTE   Dn4
 BYTE   W06
 BYTE   En4
 BYTE   W06
 BYTE   N04
 BYTE   W06
// 001   ----------------------------------------
Label_0_01360C56:
 BYTE   N24  Bn3  v056
 BYTE   N24  En4
 BYTE   W36
 BYTE   N12  Bn3
 BYTE   N12  En4
 BYTE   W12
 BYTE   N06  An3
 BYTE   N06  Dn4
 BYTE   W06
 BYTE   Bn3
 BYTE   N06  En4
 BYTE   W18
 BYTE   N12  Gn3
 BYTE   N12  Bn3
 BYTE   W24
// 002   ----------------------------------------
Label_0_01360C6F:
 BYTE   N12  An3  v056
 BYTE   N12  Cn4
 BYTE   W12
 BYTE   Gn3
 BYTE   N12  Bn3
 BYTE   W12
 BYTE   Fs3
 BYTE   N12  An3
 BYTE   W12
 BYTE   En4
 BYTE   N12  Gn4
 BYTE   W12
 BYTE   Dn4
 BYTE   N12  Fs4
 BYTE   W12
 BYTE   Cn4
 BYTE   N12  En4
 BYTE   W18
 BYTE   N06  Cn4
 BYTE   N06  En4
 BYTE   W06
 BYTE   N08  Bn3
 BYTE   N08  Dn4
 BYTE   W12
 BYTE   PEND 
// 003   ----------------------------------------
 BYTE   N72
 BYTE   N72  Fs4
 BYTE   W96
// 004   ----------------------------------------
 BYTE   N24  Bn3
 BYTE   N24  En4
 BYTE   W36
 BYTE   N12  Bn3
 BYTE   N12  En4
 BYTE   W12
 BYTE   N06  An3
 BYTE   N06  Dn4
 BYTE   W06
 BYTE   Bn3
 BYTE   N06  En4
 BYTE   W18
 BYTE   N24
 BYTE   N24  Gn4
 BYTE   W24
// 005   ----------------------------------------
 BYTE   PATT
  POIN2 Label_0_01360C6F
// 006   ----------------------------------------
 BYTE   N12  Dn4  v056
 BYTE   N12  Fs4
 BYTE   W12
 BYTE   Cn4
 BYTE   N12  En4
 BYTE   W12
 BYTE   Bn3
 BYTE   N12  Dn4
 BYTE   W12
 BYTE   An3
 BYTE   N12  Cn4
 BYTE   W12
 BYTE   Gn3
 BYTE   N12  Bn3
 BYTE   W12
 BYTE   Dn4
 BYTE   N12  Fs4
 BYTE   W12
 BYTE   An3
 BYTE   N12  Dn4
 BYTE   W12
 BYTE   Fs3
 BYTE   N12  An3
 BYTE   W12
// 007   ----------------------------------------
 BYTE   En3  v048
 BYTE   W12
 BYTE   Fs3
 BYTE   W12
 BYTE   Gn3
 BYTE   W12
 BYTE   Bn3
 BYTE   W12
 BYTE   En3
 BYTE   W12
 BYTE   Fs3
 BYTE   W12
 BYTE   Gn3
 BYTE   W12
 BYTE   Bn3
 BYTE   W12
// 008   ----------------------------------------
 BYTE   Bn2
 BYTE   W12
 BYTE   Cn3
 BYTE   W12
 BYTE   En3
 BYTE   W12
 BYTE   An3
 BYTE   W12
 BYTE   Bn2
 BYTE   W12
 BYTE   Cn3
 BYTE   W12
 BYTE   En3
 BYTE   W12
 BYTE   An3
 BYTE   W12
// 009   ----------------------------------------
 BYTE   Cn3
 BYTE   W12
 BYTE   Dn3
 BYTE   W12
 BYTE   Fs3
 BYTE   W12
 BYTE   Bn3
 BYTE   W12
 BYTE   Cn3
 BYTE   W12
 BYTE   Dn3
 BYTE   W12
 BYTE   Fs3
 BYTE   W12
 BYTE   Bn3
 BYTE   W12
// 010   ----------------------------------------
 BYTE   N12
 BYTE   W12
 BYTE   Gn3
 BYTE   W12
 BYTE   Fs3
 BYTE   W12
 BYTE   En3
 BYTE   W12
 BYTE   Bn3
 BYTE   W12
 BYTE   Gn3
 BYTE   W12
 BYTE   Fs3
 BYTE   W12
 BYTE   En3
 BYTE   W12
// 011   ----------------------------------------
 BYTE   GoTo
  POIN2 Label_0_01360C56
 BYTE   FINE

//**************** Track 2 (Midi-Chn.1) ****************//

songAFormidableFriendJoinsInTheFray_002:
// 000   ----------------------------------------
 BYTE   VOL   80*songAFormidableFriendJoinsInTheFray_mvl/mxv
 BYTE   KEYSH   songAFormidableFriendJoinsInTheFray_key+0
 BYTE   VOICE   104
 BYTE   W96
// 001   ----------------------------------------
Label_1_01360A23:
 BYTE   W96
// 002   ----------------------------------------
 BYTE   W96
// 003   ----------------------------------------
 BYTE   W96
// 004   ----------------------------------------
 BYTE   W96
// 005   ----------------------------------------
 BYTE   W96
// 006   ----------------------------------------
 BYTE   W96
// 007   ----------------------------------------
 BYTE   N12  Fs3  v048
 BYTE   N12  An3
 BYTE   N12  Dn4
 BYTE   W24
 BYTE   N48  Gn3
 BYTE   N48  Bn3
 BYTE   N48  En4
 BYTE   W72
// 008   ----------------------------------------
 BYTE   N12  Bn2
 BYTE   N12  Dn3
 BYTE   N12  Gn3
 BYTE   W24
 BYTE   N48  Cn3
 BYTE   N48  En3
 BYTE   N48  An3
 BYTE   W72
// 009   ----------------------------------------
 BYTE   N08  Dn3
 BYTE   N08  Fs3
 BYTE   N08  Bn3
 BYTE   W12
 BYTE   Dn3
 BYTE   N08  Fs3
 BYTE   N08  Bn3
 BYTE   W12
 BYTE   Dn3
 BYTE   N08  Fs3
 BYTE   N08  Bn3
 BYTE   W12
 BYTE   Dn3
 BYTE   N08  Fs3
 BYTE   N08  Bn3
 BYTE   W24
 BYTE   N12  Dn3
 BYTE   N12  Fs3
 BYTE   N12  Bn3
 BYTE   W12
 BYTE   N06  Dn3
 BYTE   N06  Fs3
 BYTE   N06  Bn3
 BYTE   W12
 BYTE   Dn3
 BYTE   N06  Fs3
 BYTE   N06  Bn3
 BYTE   W12
// 010   ----------------------------------------
 BYTE   N96  An3
 BYTE   N96  Bn3
 BYTE   N96  En4
 BYTE   W96
// 011   ----------------------------------------
 BYTE   GoTo
  POIN2 Label_1_01360A23
 BYTE   FINE

//**************** Track 3 (Midi-Chn.2) ****************//

songAFormidableFriendJoinsInTheFray_003:
// 000   ----------------------------------------
 BYTE   VOL   80*songAFormidableFriendJoinsInTheFray_mvl/mxv
 BYTE   KEYSH   songAFormidableFriendJoinsInTheFray_key+0
 BYTE   VOICE   48
 BYTE   N96  En3  v040
 BYTE   N96  An3
 BYTE   N96  Bn3
 BYTE   W96
// 001   ----------------------------------------
Label_2_01360A8E:
 BYTE   N96  En3  v040
 BYTE   N96  Gn3
 BYTE   N96  Bn3
 BYTE   W96
// 002   ----------------------------------------
Label_2_01360A96:
 BYTE   N96  Cn3  v040
 BYTE   N96  En3
 BYTE   N96  Gn3
 BYTE   W96
 BYTE   PEND 
// 003   ----------------------------------------
Label_2_01360A9F:
 BYTE   N96  Dn3  v040
 BYTE   N96  Fs3
 BYTE   N96  An3
 BYTE   W96
 BYTE   PEND 
// 004   ----------------------------------------
 BYTE   En3
 BYTE   N96  Gn3
 BYTE   N96  Bn3
 BYTE   W96
// 005   ----------------------------------------
 BYTE   PATT
  POIN2 Label_2_01360A96
// 006   ----------------------------------------
 BYTE   PATT
  POIN2 Label_2_01360A9F
// 007   ----------------------------------------
 BYTE   N96  En3  v040
 BYTE   N96  Gn3
 BYTE   N96  Bn3
 BYTE   W96
// 008   ----------------------------------------
 BYTE   Cn3
 BYTE   N96  En3
 BYTE   N96  An3
 BYTE   W96
// 009   ----------------------------------------
 BYTE   Bn2
 BYTE   N96  Dn3
 BYTE   N96  Fs3
 BYTE   W96
// 010   ----------------------------------------
 BYTE   Gn2
 BYTE   N96  Bn2
 BYTE   N96  En3
 BYTE   W96
// 011   ----------------------------------------
 BYTE   GoTo
  POIN2 Label_2_01360A8E
 BYTE   FINE

//**************** Track 4 (Midi-Chn.3) ****************//

songAFormidableFriendJoinsInTheFray_004:
// 000   ----------------------------------------
 BYTE   VOL   80*songAFormidableFriendJoinsInTheFray_mvl/mxv
 BYTE   KEYSH   songAFormidableFriendJoinsInTheFray_key+0
 BYTE   VOICE   36
 BYTE   N12  En3  v064
 BYTE   W12
 BYTE   N12
 BYTE   W12
 BYTE   N12
 BYTE   W12
 BYTE   N12
 BYTE   W12
 BYTE   N12
 BYTE   W12
 BYTE   N12
 BYTE   W12
 BYTE   N12
 BYTE   W12
 BYTE   N12
 BYTE   W12
// 001   ----------------------------------------
Label_3_01360AF0:
 BYTE   N12  En3  v064
 BYTE   W12
 BYTE   N12
 BYTE   W12
 BYTE   N12
 BYTE   W12
 BYTE   N12
 BYTE   W12
 BYTE   N12
 BYTE   W12
 BYTE   N12
 BYTE   W12
 BYTE   N12
 BYTE   W12
 BYTE   N12
 BYTE   W12
 BYTE   PEND 
// 002   ----------------------------------------
Label_3_01360B03:
 BYTE   N12  Cn3  v064
 BYTE   W12
 BYTE   N12
 BYTE   W12
 BYTE   N12
 BYTE   W12
 BYTE   N12
 BYTE   W12
 BYTE   N12
 BYTE   W12
 BYTE   N12
 BYTE   W12
 BYTE   N12
 BYTE   W12
 BYTE   N12
 BYTE   W12
 BYTE   PEND 
// 003   ----------------------------------------
Label_3_01360B16:
 BYTE   N12  Dn3  v064
 BYTE   W12
 BYTE   N12
 BYTE   W12
 BYTE   N12
 BYTE   W12
 BYTE   N12
 BYTE   W12
 BYTE   N12
 BYTE   W12
 BYTE   N12
 BYTE   W12
 BYTE   N12
 BYTE   W12
 BYTE   N12
 BYTE   W12
 BYTE   PEND 
// 004   ----------------------------------------
 BYTE   PATT
  POIN2 Label_3_01360AF0
// 005   ----------------------------------------
 BYTE   PATT
  POIN2 Label_3_01360B03
// 006   ----------------------------------------
 BYTE   PATT
  POIN2 Label_3_01360B16
// 007   ----------------------------------------
 BYTE   PATT
  POIN2 Label_3_01360AF0
// 008   ----------------------------------------
 BYTE   PATT
  POIN2 Label_3_01360B03
// 009   ----------------------------------------
 BYTE   N12  Bn2  v064
 BYTE   W12
 BYTE   N12
 BYTE   W12
 BYTE   N12
 BYTE   W12
 BYTE   N12
 BYTE   W12
 BYTE   N12
 BYTE   W12
 BYTE   N12
 BYTE   W12
 BYTE   N12
 BYTE   W12
 BYTE   N12
 BYTE   W12
// 010   ----------------------------------------
 BYTE   PATT
  POIN2 Label_3_01360AF0
// 011   ----------------------------------------
 BYTE   GoTo
  POIN2 Label_3_01360AF0
 BYTE   FINE

//**************** Track 5 (Midi-Chn.4) ****************//

songAFormidableFriendJoinsInTheFray_005:
// 000   ----------------------------------------
 BYTE   VOL   80*songAFormidableFriendJoinsInTheFray_mvl/mxv
 BYTE   KEYSH   songAFormidableFriendJoinsInTheFray_key+0
 BYTE   VOICE   124
 BYTE   N24  Cn1  v064
 BYTE   N12  Fs1
 BYTE   W12
 BYTE   N12
 BYTE   W12
 BYTE   N24  Dn1
 BYTE   N12  Fs1
 BYTE   W12
 BYTE   N12
 BYTE   W12
 BYTE   N24  Cn1
 BYTE   N12  Fs1
 BYTE   W12
 BYTE   N12
 BYTE   W12
 BYTE   Dn1
 BYTE   N12  Fs1
 BYTE   W12
 BYTE   Dn1
 BYTE   N12  Fs1
 BYTE   W12
// 001   ----------------------------------------
Label_4_01360B84:
 BYTE   N24  Cn1  v064
 BYTE   N12  Fs1
 BYTE   W12
 BYTE   N12
 BYTE   W12
 BYTE   N24  Dn1
 BYTE   N12  Fs1
 BYTE   W12
 BYTE   N12
 BYTE   W12
 BYTE   N24  Cn1
 BYTE   N12  Fs1
 BYTE   W12
 BYTE   N12
 BYTE   W12
 BYTE   Dn1
 BYTE   N12  Fs1
 BYTE   W12
 BYTE   Dn1
 BYTE   N12  Fs1
 BYTE   W12
 BYTE   PEND 
// 002   ----------------------------------------
 BYTE   PATT
  POIN2 Label_4_01360B84
// 003   ----------------------------------------
 BYTE   N24  Cn1  v064
 BYTE   N12  Fs1
 BYTE   W12
 BYTE   N12
 BYTE   W12
 BYTE   N24  Dn1
 BYTE   N12  Fs1
 BYTE   W12
 BYTE   N12
 BYTE   W12
 BYTE   N24  Cn1
 BYTE   N12  Fs1
 BYTE   W12
 BYTE   N12
 BYTE   W12
 BYTE   N06  Gn1
 BYTE   W06
 BYTE   Fn1
 BYTE   W06
 BYTE   Gn1
 BYTE   W06
 BYTE   En1
 BYTE   W06
// 004   ----------------------------------------
 BYTE   PATT
  POIN2 Label_4_01360B84
// 005   ----------------------------------------
 BYTE   PATT
  POIN2 Label_4_01360B84
// 006   ----------------------------------------
 BYTE   N24  Cn1  v064
 BYTE   N12  Fs1
 BYTE   W12
 BYTE   N12
 BYTE   W12
 BYTE   N24  Dn1
 BYTE   N12  Fs1
 BYTE   W12
 BYTE   N12
 BYTE   W12
 BYTE   N24  Cn1
 BYTE   N12  Fs1
 BYTE   W48
// 007   ----------------------------------------
 BYTE   PATT
  POIN2 Label_4_01360B84
// 008   ----------------------------------------
 BYTE   PATT
  POIN2 Label_4_01360B84
// 009   ----------------------------------------
 BYTE   PATT
  POIN2 Label_4_01360B84
// 010   ----------------------------------------
 BYTE   N06  Gn1  v064
 BYTE   W06
 BYTE   Fn1
 BYTE   W06
 BYTE   Gn1
 BYTE   W06
 BYTE   En1
 BYTE   W06
 BYTE   An1
 BYTE   W06
 BYTE   Gn1
 BYTE   W06
 BYTE   An1
 BYTE   W06
 BYTE   Fn1
 BYTE   W06
 BYTE   En1
 BYTE   W06
 BYTE   N06
 BYTE   W18
 BYTE   Gn1
 BYTE   W06
 BYTE   Fn1
 BYTE   W06
 BYTE   Gn1
 BYTE   W06
 BYTE   En1
 BYTE   W06
// 011   ----------------------------------------
 BYTE   GoTo
  POIN2 Label_4_01360B84
 BYTE   FINE

//******************************************************//
	ALIGN 4

songAFormidableFriendJoinsInTheFray:
	BYTE	5	// NumTrks
	BYTE	0	// NumBlks
	BYTE	songAFormidableFriendJoinsInTheFray_pri	// Priority
	BYTE	songAFormidableFriendJoinsInTheFray_rev	// Reverb.
    
	POIN2	songAFormidableFriendJoinsInTheFray_grp
    
	POIN2	songAFormidableFriendJoinsInTheFray_001
	POIN2	songAFormidableFriendJoinsInTheFray_002
	POIN2	songAFormidableFriendJoinsInTheFray_003
	POIN2	songAFormidableFriendJoinsInTheFray_004
	POIN2	songAFormidableFriendJoinsInTheFray_005

	
