//Event file generated from Sappy .s format.
	#include "MPlayDef.event"

	#define	AltinCaves_grp  voicegroup000
	#define	AltinCaves_pri  10
	#define	AltinCaves_rev  0
	#define	AltinCaves_mvl  127
	#define	AltinCaves_key  0
	#define	AltinCaves_tbs  1
	#define	AltinCaves_exg  0
	#define	AltinCaves_cmp  1

	// .rodata
	//	m
	ALIGN 4


//**************** Track 1 (Midi-Chn.0) ****************//

AltinCaves_001:
// 000   ----------------------------------------
Label_0_00:
 BYTE   TEMPO   72*AltinCaves_tbs/2
 BYTE   KEYSH   AltinCaves_key+0
 BYTE   VOICE   0
 BYTE   VOL   22*AltinCaves_mvl/mxv
 BYTE   PAN   c_v-44
 BYTE   N11  Fs0  v127
 BYTE   W12
 BYTE   N05  Fs0  v090
 BYTE   W06
 BYTE   N11  Fs0  v127
 BYTE   W12
 BYTE   N05  Fs0  v090
 BYTE   W06
 BYTE   N11  Fs0  v127
 BYTE   W12
 BYTE   N05  Fs0  v110
 BYTE   W06
 BYTE   N11  Fs0  v082
 BYTE   W12
 BYTE   N05  Fs0  v062
 BYTE   W06
 BYTE   Fs0  v050
 BYTE   W06
 BYTE   Fs0  v030
 BYTE   W12
 BYTE   Fs0  v022
 BYTE   W06
// 001   ----------------------------------------
 BYTE   Fs0  v018
 BYTE   W06
 BYTE   Fs0
 BYTE   W12
 BYTE   Fs0
 BYTE   W06
 BYTE   N11  Fs0  v127
 BYTE   W12
 BYTE   N05  Fs0  v090
 BYTE   W06
 BYTE   N11  Fs0  v127
 BYTE   W12
 BYTE   N05  Fs0  v090
 BYTE   W06
 BYTE   N11  Fs0  v127
 BYTE   W12
 BYTE   N05  Fs0  v110
 BYTE   W06
 BYTE   N11  Fs0  v082
 BYTE   W12
 BYTE   N05  Fs0  v062
 BYTE   W06
// 002   ----------------------------------------
 BYTE   Fs0  v050
 BYTE   W06
 BYTE   Fs0  v030
 BYTE   W12
 BYTE   Fs0  v022
 BYTE   W06
 BYTE   Fs0  v018
 BYTE   W06
 BYTE   Fs0
 BYTE   W12
 BYTE   Fs0
 BYTE   W06
 BYTE   N11  Fs0  v127
 BYTE   W12
 BYTE   N05  Fs0  v090
 BYTE   W06
 BYTE   N11  Fs0  v127
 BYTE   W12
 BYTE   N05  Fs0  v090
 BYTE   W06
 BYTE   N11  Fs0  v127
 BYTE   W12
// 003   ----------------------------------------
Label_0_05A0:
 BYTE   N05  Fs0  v090
 BYTE   W06
 BYTE   N11  Fs0  v127
 BYTE   W12
 BYTE   N05  Fs0  v090
 BYTE   W06
 BYTE   N11  Fs0  v127
 BYTE   W12
 BYTE   N05  Fs0  v090
 BYTE   W06
 BYTE   N11  Fs0  v127
 BYTE   W12
 BYTE   N05  Fs0  v090
 BYTE   W06
 BYTE   N11  Fs0  v127
 BYTE   W12
 BYTE   N05  Fs0  v090
 BYTE   W06
 BYTE   N11  Fs0  v127
 BYTE   W12
 BYTE   N05  Fs0  v090
 BYTE   W06
 BYTE   PEND 
// 004   ----------------------------------------
Label_0_0780:
 BYTE   N11  Fs0  v127
 BYTE   W12
 BYTE   N05  Fs0  v090
 BYTE   W06
 BYTE   N11  Fs0  v127
 BYTE   W12
 BYTE   N05  Fs0  v090
 BYTE   W06
 BYTE   N11  Fs0  v127
 BYTE   W12
 BYTE   N05  Fs0  v090
 BYTE   W06
 BYTE   N11  Fs0  v127
 BYTE   W12
 BYTE   N05  Fs0  v090
 BYTE   W06
 BYTE   N11  Fs0  v127
 BYTE   W12
 BYTE   N05  Fs0  v090
 BYTE   W06
 BYTE   N11  Fs0  v127
 BYTE   W12
 BYTE   PEND 
 BYTE   PATT
  POIN2 Label_0_05A0
 BYTE   PATT
  POIN2 Label_0_0780
 BYTE   PATT
  POIN2 Label_0_05A0
// 005   ----------------------------------------
Label_0_0F3C:
 BYTE   N11  Fs0  v127
 BYTE   W12
 BYTE   N05  Fs0  v090
 BYTE   W06
 BYTE   N11  Fs0  v127
 BYTE   W12
 BYTE   N05  Fs0  v090
 BYTE   W06
 BYTE   N11  En0  v127
 BYTE   W12
 BYTE   N05  En0  v090
 BYTE   W06
 BYTE   N11  En0  v127
 BYTE   W12
 BYTE   N05  En0  v090
 BYTE   W06
 BYTE   N11  En0  v127
 BYTE   W12
 BYTE   N05  En0  v090
 BYTE   W06
 BYTE   N11  En0  v127
 BYTE   W12
 BYTE   PEND 
// 006   ----------------------------------------
Label_0_113A:
 BYTE   N05  En0  v090
 BYTE   W06
 BYTE   N11  En0  v127
 BYTE   W12
 BYTE   N05  En0  v090
 BYTE   W06
 BYTE   N11  En0  v127
 BYTE   W12
 BYTE   N05  En0  v090
 BYTE   W06
 BYTE   N11  En0  v127
 BYTE   W12
 BYTE   N05  En0  v090
 BYTE   W06
 BYTE   N11  En0  v127
 BYTE   W12
 BYTE   N05  En0  v090
 BYTE   W06
 BYTE   N11  En0  v127
 BYTE   W12
 BYTE   N05  En0  v090
 BYTE   W06
 BYTE   PEND 
// 007   ----------------------------------------
Label_0_131A:
 BYTE   N11  En0  v127
 BYTE   W12
 BYTE   N05  En0  v090
 BYTE   W06
 BYTE   N11  En0  v127
 BYTE   W12
 BYTE   N05  En0  v090
 BYTE   W06
 BYTE   N11  En0  v127
 BYTE   W12
 BYTE   N05  En0  v090
 BYTE   W06
 BYTE   N11  En0  v127
 BYTE   W12
 BYTE   N05  En0  v090
 BYTE   W06
 BYTE   N11  En0  v127
 BYTE   W12
 BYTE   N05  En0  v090
 BYTE   W06
 BYTE   N11  En0  v127
 BYTE   W12
 BYTE   PEND 
// 008   ----------------------------------------
Label_0_1518:
 BYTE   N05  En0  v090
 BYTE   W06
 BYTE   N11  En0  v127
 BYTE   W12
 BYTE   N05  En0  v090
 BYTE   W06
 BYTE   N11  Fs0  v127
 BYTE   W12
 BYTE   N05  Fs0  v090
 BYTE   W06
 BYTE   N11  Fs0  v127
 BYTE   W12
 BYTE   N05  Fs0  v090
 BYTE   W06
 BYTE   N11  Fs0  v127
 BYTE   W12
 BYTE   N05  Fs0  v090
 BYTE   W06
 BYTE   N11  Fs0  v127
 BYTE   W12
 BYTE   N05  Fs0  v090
 BYTE   W06
 BYTE   PEND 
 BYTE   PATT
  POIN2 Label_0_0780
 BYTE   PATT
  POIN2 Label_0_05A0
// 009   ----------------------------------------
Label_0_1AD6:
 BYTE   N11  Fs0  v127
 BYTE   W12
 BYTE   N05  Fs0  v090
 BYTE   W06
 BYTE   N11  En0  v127
 BYTE   W12
 BYTE   N05  En0  v090
 BYTE   W06
 BYTE   N11  En0  v127
 BYTE   W12
 BYTE   N05  En0  v090
 BYTE   W06
 BYTE   N11  En0  v127
 BYTE   W12
 BYTE   N05  En0  v090
 BYTE   W06
 BYTE   N11  En0  v127
 BYTE   W12
 BYTE   N05  En0  v090
 BYTE   W06
 BYTE   N11  En0  v127
 BYTE   W12
 BYTE   PEND 
 BYTE   PATT
  POIN2 Label_0_113A
 BYTE   PATT
  POIN2 Label_0_131A
// 010   ----------------------------------------
Label_0_20B2:
 BYTE   N05  En0  v090
 BYTE   W06
 BYTE   N11  En0  v127
 BYTE   W12
 BYTE   N05  En0  v090
 BYTE   W06
 BYTE   Fs1  v102
 BYTE   N05  Bn0
 BYTE   W06
 BYTE   En0
 BYTE   W06
 BYTE   Gn1
 BYTE   N05  Cn1
 BYTE   W06
 BYTE   An1
 BYTE   N05  Dn1
 BYTE   W06
 BYTE   En0
 BYTE   W06
 BYTE   Gn1
 BYTE   N05  Cn1
 BYTE   W06
 BYTE   En0
 BYTE   W06
 BYTE   Fs1
 BYTE   N05  Bn0
 BYTE   W06
 BYTE   En0
 BYTE   W06
 BYTE   N11  An1
 BYTE   N11  Dn1
 BYTE   W12
 BYTE   N05  En0
 BYTE   W06
 BYTE   PEND 
// 011   ----------------------------------------
Label_0_2292:
 BYTE   N11  Bn1  v102
 BYTE   N11  En1
 BYTE   W12
 BYTE   N05  En0
 BYTE   W06
 BYTE   N11  Bn1
 BYTE   N11  Fs1
 BYTE   W12
 BYTE   N05  En0
 BYTE   W06
 BYTE   N11  En0  v127
 BYTE   W12
 BYTE   N05  En0  v102
 BYTE   W06
 BYTE   N11  En0  v127
 BYTE   W12
 BYTE   N05  En0  v090
 BYTE   W06
 BYTE   Fs1  v102
 BYTE   N05  Bn0
 BYTE   W06
 BYTE   En0
 BYTE   W06
 BYTE   Gn1
 BYTE   N05  Cn1
 BYTE   W06
 BYTE   An1
 BYTE   N05  Dn1
 BYTE   W06
 BYTE   PEND 
// 012   ----------------------------------------
Label_0_2472:
 BYTE   N05  En0  v102
 BYTE   W06
 BYTE   Gn1
 BYTE   N05  Cn1
 BYTE   W06
 BYTE   En0
 BYTE   W06
 BYTE   Fs1
 BYTE   N05  Bn0
 BYTE   W06
 BYTE   En0
 BYTE   W06
 BYTE   N11  An1
 BYTE   N11  Dn1
 BYTE   W12
 BYTE   N05  En0
 BYTE   W06
 BYTE   N11  Bn1
 BYTE   N11  En1
 BYTE   W12
 BYTE   N05  En0
 BYTE   W06
 BYTE   N11  Bn1
 BYTE   N11  Fs1
 BYTE   W12
 BYTE   N05  En0
 BYTE   W06
 BYTE   N11  En0  v127
 BYTE   W12
 BYTE   PEND 
// 013   ----------------------------------------
Label_0_2652:
 BYTE   N05  En0  v102
 BYTE   W06
 BYTE   N11  Fs0  v127
 BYTE   W12
 BYTE   N05  Fs0  v102
 BYTE   W06
 BYTE   Cs1  v127
 BYTE   W06
 BYTE   Fs0  v102
 BYTE   W06
 BYTE   Cs1
 BYTE   W06
 BYTE   Fs1  v127
 BYTE   W06
 BYTE   Fs0  v102
 BYTE   W06
 BYTE   Fs1  v127
 BYTE   W06
 BYTE   Fs0  v102
 BYTE   W06
 BYTE   Gs1  v127
 BYTE   W06
 BYTE   An1  v102
 BYTE   W06
 BYTE   N11  Fs0  v127
 BYTE   W12
 BYTE   N05  Fs0  v102
 BYTE   W06
 BYTE   PEND 
// 014   ----------------------------------------
Label_0_2832:
 BYTE   N05  Cs1  v127
 BYTE   W06
 BYTE   Fs0  v102
 BYTE   W06
 BYTE   Cs1
 BYTE   W06
 BYTE   Fs1  v127
 BYTE   W06
 BYTE   Fs0  v102
 BYTE   W06
 BYTE   Fs1  v127
 BYTE   W06
 BYTE   Fs0  v102
 BYTE   W06
 BYTE   Gs1  v127
 BYTE   W06
 BYTE   An1  v102
 BYTE   W06
 BYTE   N11  Gs0  v127
 BYTE   W12
 BYTE   N05  Gs0  v102
 BYTE   W06
 BYTE   Ds1  v127
 BYTE   W06
 BYTE   Gs0  v102
 BYTE   W06
 BYTE   Ds1
 BYTE   W06
 BYTE   Gs1  v127
 BYTE   W06
 BYTE   PEND 
// 015   ----------------------------------------
Label_0_2A12:
 BYTE   N05  Gs0  v102
 BYTE   W06
 BYTE   Gs1  v127
 BYTE   W06
 BYTE   Gs0  v102
 BYTE   W06
 BYTE   As1  v127
 BYTE   W06
 BYTE   Bn1  v102
 BYTE   W06
 BYTE   N11  Gs0  v127
 BYTE   W12
 BYTE   N05  Gs0  v102
 BYTE   W06
 BYTE   Ds1  v127
 BYTE   W06
 BYTE   Gs0  v102
 BYTE   W06
 BYTE   Ds1
 BYTE   W06
 BYTE   Gs1  v127
 BYTE   W06
 BYTE   Gs0  v102
 BYTE   W06
 BYTE   Gs1  v127
 BYTE   W06
 BYTE   Gs0  v102
 BYTE   W06
 BYTE   As1  v127
 BYTE   W06
 BYTE   PEND 
// 016   ----------------------------------------
Label_0_2BF2:
 BYTE   N05  Bn1  v102
 BYTE   W06
 BYTE   N11  Fs0  v127
 BYTE   W12
 BYTE   N05  Fs0  v090
 BYTE   W06
 BYTE   N11  Fs0  v127
 BYTE   W12
 BYTE   N05  Fs0  v090
 BYTE   W06
 BYTE   N11  Fs0  v127
 BYTE   W12
 BYTE   N05  Fs0  v090
 BYTE   W06
 BYTE   N11  Fs0  v127
 BYTE   W12
 BYTE   N05  Fs0  v090
 BYTE   W06
 BYTE   N11  Fs0  v127
 BYTE   W12
 BYTE   N05  Fs0  v090
 BYTE   W06
 BYTE   PEND 
 BYTE   PATT
  POIN2 Label_0_0780
 BYTE   PATT
  POIN2 Label_0_05A0
 BYTE   PATT
  POIN2 Label_0_131A
 BYTE   PATT
  POIN2 Label_0_113A
// 017   ----------------------------------------
Label_0_358E:
 BYTE   N11  En0  v127
 BYTE   W12
 BYTE   N05  En0  v090
 BYTE   W06
 BYTE   N11  En0  v127
 BYTE   W12
 BYTE   N05  En0  v090
 BYTE   W06
 BYTE   N11  En0  v127
 BYTE   W12
 BYTE   N05  En0  v090
 BYTE   W06
 BYTE   N11  En0  v127
 BYTE   W12
 BYTE   N05  En0  v090
 BYTE   W06
 BYTE   N11  En0  v127
 BYTE   W12
 BYTE   N05  En0  v090
 BYTE   W06
 BYTE   N11  Fs0  v127
 BYTE   W12
 BYTE   PEND 
// 018   ----------------------------------------
Label_0_378C:
 BYTE   N05  Fs0  v090
 BYTE   W06
 BYTE   N11  Fs0  v127
 BYTE   W12
 BYTE   N05  Fs0  v090
 BYTE   W06
 BYTE   N11  Fs0  v127
 BYTE   W12
 BYTE   N05  Fs0  v110
 BYTE   W06
 BYTE   N11  Fs0  v082
 BYTE   W12
 BYTE   N05  Fs0  v062
 BYTE   W06
 BYTE   Fs0  v050
 BYTE   W06
 BYTE   Fs0  v030
 BYTE   W12
 BYTE   Fs0  v022
 BYTE   W06
 BYTE   Fs0  v018
 BYTE   W06
 BYTE   Fs0
 BYTE   W12
 BYTE   PEND 
// 019   ----------------------------------------
Label_0_398A:
 BYTE   N05  Fs0  v018
 BYTE   W06
 BYTE   N11  Fs0  v127
 BYTE   W12
 BYTE   N05  Fs0  v090
 BYTE   W06
 BYTE   N11  Fs0  v127
 BYTE   W12
 BYTE   N05  Fs0  v090
 BYTE   W06
 BYTE   N11  Fs0  v127
 BYTE   W12
 BYTE   N05  Fs0  v110
 BYTE   W06
 BYTE   N11  Fs0  v082
 BYTE   W12
 BYTE   N05  Fs0  v062
 BYTE   W06
 BYTE   Fs0  v050
 BYTE   W06
 BYTE   Fs0  v030
 BYTE   W12
 BYTE   PEND 
// 020   ----------------------------------------
Label_0_3B6A:
 BYTE   N05  Fs0  v022
 BYTE   W06
 BYTE   Fs0  v018
 BYTE   W06
 BYTE   Fs0
 BYTE   W12
 BYTE   Fs0
 BYTE   W06
 BYTE   N11  Fs0  v127
 BYTE   W12
 BYTE   N05  Fs0  v090
 BYTE   W06
 BYTE   N11  Fs0  v127
 BYTE   W12
 BYTE   N05  Fs0  v090
 BYTE   W06
 BYTE   N11  Fs0  v127
 BYTE   W12
 BYTE   N05  Fs0  v090
 BYTE   W06
 BYTE   N11  Fs0  v127
 BYTE   W12
 BYTE   PEND 
 BYTE   PATT
  POIN2 Label_0_05A0
 BYTE   PATT
  POIN2 Label_0_0780
 BYTE   PATT
  POIN2 Label_0_05A0
 BYTE   PATT
  POIN2 Label_0_0780
 BYTE   PATT
  POIN2 Label_0_05A0
 BYTE   PATT
  POIN2 Label_0_1AD6
 BYTE   PATT
  POIN2 Label_0_113A
 BYTE   PATT
  POIN2 Label_0_131A
// 021   ----------------------------------------
Label_0_4CC2:
 BYTE   N05  En0  v090
 BYTE   W06
 BYTE   N11  Fs0  v127
 BYTE   W12
 BYTE   N05  Fs0  v090
 BYTE   W06
 BYTE   N11  Fs0  v127
 BYTE   W12
 BYTE   N05  Fs0  v090
 BYTE   W06
 BYTE   N11  Fs0  v127
 BYTE   W12
 BYTE   N05  Fs0  v090
 BYTE   W06
 BYTE   N11  Fs0  v127
 BYTE   W12
 BYTE   N05  Fs0  v090
 BYTE   W06
 BYTE   N11  Fs0  v127
 BYTE   W12
 BYTE   N05  Fs0  v090
 BYTE   W06
 BYTE   PEND 
 BYTE   PATT
  POIN2 Label_0_0780
 BYTE   PATT
  POIN2 Label_0_05A0
 BYTE   PATT
  POIN2 Label_0_131A
 BYTE   PATT
  POIN2 Label_0_113A
 BYTE   PATT
  POIN2 Label_0_131A
// 022   ----------------------------------------
Label_0_585C:
 BYTE   N05  En0  v090
 BYTE   W06
 BYTE   Fs1  v102
 BYTE   N05  Bn0
 BYTE   W06
 BYTE   En0
 BYTE   W06
 BYTE   Gn1
 BYTE   N05  Cn1
 BYTE   W06
 BYTE   An1
 BYTE   N05  Dn1
 BYTE   W06
 BYTE   En0
 BYTE   W06
 BYTE   Gn1
 BYTE   N05  Cn1
 BYTE   W06
 BYTE   En0
 BYTE   W06
 BYTE   Fs1
 BYTE   N05  Bn0
 BYTE   W06
 BYTE   En0
 BYTE   W06
 BYTE   N11  An1
 BYTE   N11  Dn1
 BYTE   W12
 BYTE   N05  En0
 BYTE   W06
 BYTE   N11  Bn1
 BYTE   N11  En1
 BYTE   W12
 BYTE   N05  En0
 BYTE   W06
 BYTE   PEND 
// 023   ----------------------------------------
Label_0_5A3C:
 BYTE   N11  Bn1  v102
 BYTE   N11  Fs1
 BYTE   W12
 BYTE   N05  En0
 BYTE   W06
 BYTE   N11  En0  v127
 BYTE   W12
 BYTE   N05  En0  v102
 BYTE   W06
 BYTE   N11  En0  v127
 BYTE   W12
 BYTE   N05  En0  v090
 BYTE   W06
 BYTE   Fs1  v102
 BYTE   N05  Bn0
 BYTE   W06
 BYTE   En0
 BYTE   W06
 BYTE   Gn1
 BYTE   N05  Cn1
 BYTE   W06
 BYTE   An1
 BYTE   N05  Dn1
 BYTE   W06
 BYTE   En0
 BYTE   W06
 BYTE   Gn1
 BYTE   N05  Cn1
 BYTE   W06
 BYTE   En0
 BYTE   W06
 BYTE   PEND 
// 024   ----------------------------------------
Label_0_5C1C:
 BYTE   N05  Fs1  v102
 BYTE   N05  Bn0
 BYTE   W06
 BYTE   En0
 BYTE   W06
 BYTE   N11  An1
 BYTE   N11  Dn1
 BYTE   W12
 BYTE   N05  En0
 BYTE   W06
 BYTE   N11  Bn1
 BYTE   N11  En1
 BYTE   W12
 BYTE   N05  En0
 BYTE   W06
 BYTE   N11  Bn1
 BYTE   N11  Fs1
 BYTE   W12
 BYTE   N05  En0
 BYTE   W06
 BYTE   N11  En0  v127
 BYTE   W12
 BYTE   N05  En0  v102
 BYTE   W06
 BYTE   N11  Fs0  v127
 BYTE   W12
 BYTE   PEND 
// 025   ----------------------------------------
Label_0_5DFC:
 BYTE   N05  Fs0  v102
 BYTE   W06
 BYTE   Cs1  v127
 BYTE   W06
 BYTE   Fs0  v102
 BYTE   W06
 BYTE   Cs1
 BYTE   W06
 BYTE   Fs1  v127
 BYTE   W06
 BYTE   Fs0  v102
 BYTE   W06
 BYTE   Fs1  v127
 BYTE   W06
 BYTE   Fs0  v102
 BYTE   W06
 BYTE   Gs1  v127
 BYTE   W06
 BYTE   An1  v102
 BYTE   W06
 BYTE   N11  Fs0  v127
 BYTE   W12
 BYTE   N05  Fs0  v102
 BYTE   W06
 BYTE   Cs1  v127
 BYTE   W06
 BYTE   Fs0  v102
 BYTE   W06
 BYTE   Cs1
 BYTE   W06
 BYTE   PEND 
// 026   ----------------------------------------
Label_0_5FDC:
 BYTE   N05  Fs1  v127
 BYTE   W06
 BYTE   Fs0  v102
 BYTE   W06
 BYTE   Fs1  v127
 BYTE   W06
 BYTE   Fs0  v102
 BYTE   W06
 BYTE   Gs1  v127
 BYTE   W06
 BYTE   An1  v102
 BYTE   W06
 BYTE   N11  Gs0  v127
 BYTE   W12
 BYTE   N05  Gs0  v102
 BYTE   W06
 BYTE   Ds1  v127
 BYTE   W06
 BYTE   Gs0  v102
 BYTE   W06
 BYTE   Ds1
 BYTE   W06
 BYTE   Gs1  v127
 BYTE   W06
 BYTE   Gs0  v102
 BYTE   W06
 BYTE   Gs1  v127
 BYTE   W06
 BYTE   Gs0  v102
 BYTE   W06
 BYTE   PEND 
// 027   ----------------------------------------
Label_0_61BC:
 BYTE   N05  As1  v127
 BYTE   W06
 BYTE   Bn1  v102
 BYTE   W06
 BYTE   N11  Gs0  v127
 BYTE   W12
 BYTE   N05  Gs0  v102
 BYTE   W06
 BYTE   Ds1  v127
 BYTE   W06
 BYTE   Gs0  v102
 BYTE   W06
 BYTE   Ds1
 BYTE   W06
 BYTE   Gs1  v127
 BYTE   W06
 BYTE   Gs0  v102
 BYTE   W06
 BYTE   Gs1  v127
 BYTE   W06
 BYTE   Gs0  v102
 BYTE   W06
 BYTE   As1  v127
 BYTE   W06
 BYTE   Bn1  v102
 BYTE   W06
 BYTE   N11  Fs0  v127
 BYTE   W12
 BYTE   PEND 
 BYTE   PATT
  POIN2 Label_0_05A0
 BYTE   PATT
  POIN2 Label_0_0780
// 028   ----------------------------------------
Label_0_677A:
 BYTE   N05  Fs0  v090
 BYTE   W06
 BYTE   N11  Fs0  v127
 BYTE   W12
 BYTE   N05  Fs0  v090
 BYTE   W06
 BYTE   N11  Fs0  v127
 BYTE   W12
 BYTE   N05  Fs0  v090
 BYTE   W06
 BYTE   N11  Fs0  v127
 BYTE   W12
 BYTE   N05  Fs0  v090
 BYTE   W06
 BYTE   N11  Fs0  v127
 BYTE   W12
 BYTE   N05  Fs0  v090
 BYTE   W06
 BYTE   N11  En0  v127
 BYTE   W12
 BYTE   N05  En0  v090
 BYTE   W06
 BYTE   PEND 
 BYTE   PATT
  POIN2 Label_0_131A
 BYTE   PATT
  POIN2 Label_0_113A
// 029   ----------------------------------------
 BYTE   N11  En0  v127
 BYTE   W12
 BYTE   N05  En0  v090
 BYTE   W06
 BYTE   N11  En0  v127
 BYTE   W12
 BYTE   N05  En0  v090
 BYTE   W06
 BYTE   N11  En0  v127
 BYTE   W12
 BYTE   N05  En0  v090
 BYTE   W06
 BYTE   N11  En0  v127
 BYTE   W12
 BYTE   N05  En0  v090
 BYTE   W06
 BYTE   N11  Fs0  v127
 BYTE   W12
 BYTE   N05  Fs0  v090
 BYTE   W06
 BYTE   N11  Fs0  v127
 BYTE   W12
// 030   ----------------------------------------
 BYTE   N05  Fs0  v090
 BYTE   W06
 BYTE   N11  Fs0  v127
 BYTE   W12
 BYTE   N05  Fs0  v110
 BYTE   W06
 BYTE   N11  Fs0  v082
 BYTE   W12
 BYTE   N05  Fs0  v062
 BYTE   W06
 BYTE   Fs0  v050
 BYTE   W06
 BYTE   Fs0  v030
 BYTE   W12
 BYTE   Fs0  v022
 BYTE   W06
 BYTE   Fs0  v018
 BYTE   W06
 BYTE   Fs0
 BYTE   W12
 BYTE   Fs0
 BYTE   W06
 BYTE   N11  Fs0  v127
 BYTE   W12
 BYTE   PATT
  POIN2 Label_0_378C
// 031   ----------------------------------------
 BYTE   N05  Fs0  v018
 BYTE   W06
 BYTE   N11  Fs0  v127
 BYTE   W12
 BYTE   N05  Fs0  v090
 BYTE   W06
 BYTE   N11  Fs0  v127
 BYTE   W12
 BYTE   N05  Fs0  v090
 BYTE   W06
 BYTE   N11  Fs0  v127
 BYTE   W12
 BYTE   N05  Fs0  v090
 BYTE   W06
 BYTE   N11  Fs0  v127
 BYTE   W12
 BYTE   N05  Fs0  v090
 BYTE   W06
 BYTE   N11  Fs0  v127
 BYTE   W12
 BYTE   N05  Fs0  v090
 BYTE   W06
 BYTE   PATT
  POIN2 Label_0_0780
 BYTE   PATT
  POIN2 Label_0_05A0
 BYTE   PATT
  POIN2 Label_0_0780
 BYTE   PATT
  POIN2 Label_0_05A0
// 032   ----------------------------------------
 BYTE   N11  Fs0  v127
 BYTE   W12
 BYTE   N05  Fs0  v090
 BYTE   W06
 BYTE   N11  Fs0  v127
 BYTE   W12
 BYTE   N05  Fs0  v090
 BYTE   W06
 BYTE   N11  Fs0  v127
 BYTE   W12
 BYTE   N05  Fs0  v090
 BYTE   W06
 BYTE   N11  Fs0  v127
 BYTE   W12
 BYTE   N05  Fs0  v090
 BYTE   W06
 BYTE   N11  Fs0  v127
 BYTE   W12
 BYTE   N05  Fs0  v090
 BYTE   W06
 BYTE   N11  En0  v127
 BYTE   W12
 BYTE   PATT
  POIN2 Label_0_113A
 BYTE   PATT
  POIN2 Label_0_131A
// 033   ----------------------------------------
 BYTE   N05  En0  v090
 BYTE   W06
 BYTE   N11  En0  v127
 BYTE   W12
 BYTE   N05  En0  v090
 BYTE   W06
 BYTE   N11  En0  v127
 BYTE   W12
 BYTE   N05  En0  v090
 BYTE   W06
 BYTE   N11  En0  v127
 BYTE   W12
 BYTE   N05  En0  v090
 BYTE   W06
 BYTE   N11  En0  v127
 BYTE   W12
 BYTE   N05  En0  v090
 BYTE   W06
 BYTE   N11  Fs0  v127
 BYTE   W12
 BYTE   N05  Fs0  v090
 BYTE   W06
 BYTE   PATT
  POIN2 Label_0_0780
 BYTE   PATT
  POIN2 Label_0_05A0
// 034   ----------------------------------------
 BYTE   N11  Fs0  v127
 BYTE   W12
 BYTE   N05  Fs0  v090
 BYTE   W06
 BYTE   N11  Fs0  v127
 BYTE   W12
 BYTE   N05  Fs0  v090
 BYTE   W06
 BYTE   N11  Fs0  v127
 BYTE   W12
 BYTE   N05  Fs0  v090
 BYTE   W06
 BYTE   N11  Fs0  v127
 BYTE   W12
 BYTE   N05  Fs0  v090
 BYTE   W06
 BYTE   N11  En0  v127
 BYTE   W12
 BYTE   N05  En0  v090
 BYTE   W06
 BYTE   N11  En0  v127
 BYTE   W12
 BYTE   PATT
  POIN2 Label_0_113A
 BYTE   PATT
  POIN2 Label_0_131A
// 035   ----------------------------------------
 BYTE   N05  En0  v090
 BYTE   W06
 BYTE   N11  En0  v127
 BYTE   W12
 BYTE   N05  En0  v090
 BYTE   W06
 BYTE   N11  En0  v127
 BYTE   W12
 BYTE   N05  En0  v090
 BYTE   W06
 BYTE   N11  En0  v127
 BYTE   W12
 BYTE   N05  En0  v090
 BYTE   W06
 BYTE   N11  En0  v127
 BYTE   W12
 BYTE   N05  En0  v090
 BYTE   W06
 BYTE   Fs1  v102
 BYTE   N05  Bn0
 BYTE   W06
 BYTE   En0
 BYTE   W06
 BYTE   Gn1
 BYTE   N05  Cn1
 BYTE   W06
// 036   ----------------------------------------
 BYTE   An1
 BYTE   N05  Dn1
 BYTE   W06
 BYTE   En0
 BYTE   W06
 BYTE   Gn1
 BYTE   N05  Cn1
 BYTE   W06
 BYTE   En0
 BYTE   W06
 BYTE   Fs1
 BYTE   N05  Bn0
 BYTE   W06
 BYTE   En0
 BYTE   W06
 BYTE   N11  An1
 BYTE   N11  Dn1
 BYTE   W12
 BYTE   N05  En0
 BYTE   W06
 BYTE   N11  Bn1
 BYTE   N11  En1
 BYTE   W12
 BYTE   N05  En0
 BYTE   W06
 BYTE   N11  Bn1
 BYTE   N11  Fs1
 BYTE   W12
 BYTE   N05  En0
 BYTE   W06
 BYTE   N11  En0  v127
 BYTE   W12
// 037   ----------------------------------------
 BYTE   N05  En0  v102
 BYTE   W06
 BYTE   N11  En0  v127
 BYTE   W12
 BYTE   N05  En0  v090
 BYTE   W06
 BYTE   Fs1  v102
 BYTE   N05  Bn0
 BYTE   W06
 BYTE   En0
 BYTE   W06
 BYTE   Gn1
 BYTE   N05  Cn1
 BYTE   W06
 BYTE   An1
 BYTE   N05  Dn1
 BYTE   W06
 BYTE   En0
 BYTE   W06
 BYTE   Gn1
 BYTE   N05  Cn1
 BYTE   W06
 BYTE   En0
 BYTE   W06
 BYTE   Fs1
 BYTE   N05  Bn0
 BYTE   W06
 BYTE   En0
 BYTE   W06
 BYTE   N11  An1
 BYTE   N11  Dn1
 BYTE   W12
 BYTE   N05  En0
 BYTE   W06
// 038   ----------------------------------------
 BYTE   N11  Bn1
 BYTE   N11  En1
 BYTE   W12
 BYTE   N05  En0
 BYTE   W06
 BYTE   N11  Bn1
 BYTE   N11  Fs1
 BYTE   W12
 BYTE   N05  En0
 BYTE   W06
 BYTE   N11  En0  v127
 BYTE   W12
 BYTE   N05  En0  v102
 BYTE   W06
 BYTE   N11  Fs0  v127
 BYTE   W12
 BYTE   N05  Fs0  v102
 BYTE   W06
 BYTE   Cs1  v127
 BYTE   W06
 BYTE   Fs0  v102
 BYTE   W06
 BYTE   Cs1
 BYTE   W06
 BYTE   Fs1  v127
 BYTE   W06
// 039   ----------------------------------------
 BYTE   Fs0  v102
 BYTE   W06
 BYTE   Fs1  v127
 BYTE   W06
 BYTE   Fs0  v102
 BYTE   W06
 BYTE   Gs1  v127
 BYTE   W06
 BYTE   An1  v102
 BYTE   W06
 BYTE   N11  Fs0  v127
 BYTE   W12
 BYTE   N05  Fs0  v102
 BYTE   W06
 BYTE   Cs1  v127
 BYTE   W06
 BYTE   Fs0  v102
 BYTE   W06
 BYTE   Cs1
 BYTE   W06
 BYTE   Fs1  v127
 BYTE   W06
 BYTE   Fs0  v102
 BYTE   W06
 BYTE   Fs1  v127
 BYTE   W06
 BYTE   Fs0  v102
 BYTE   W06
 BYTE   Gs1  v127
 BYTE   W06
// 040   ----------------------------------------
 BYTE   An1  v102
 BYTE   W06
 BYTE   N11  Gs0  v127
 BYTE   W12
 BYTE   N05  Gs0  v102
 BYTE   W06
 BYTE   Ds1  v127
 BYTE   W06
 BYTE   Gs0  v102
 BYTE   W06
 BYTE   Ds1
 BYTE   W06
 BYTE   Gs1  v127
 BYTE   W06
 BYTE   Gs0  v102
 BYTE   W06
 BYTE   Gs1  v127
 BYTE   W06
 BYTE   Gs0  v102
 BYTE   W06
 BYTE   As1  v127
 BYTE   W06
 BYTE   Bn1  v102
 BYTE   W06
 BYTE   N11  Gs0  v127
 BYTE   W12
 BYTE   N05  Gs0  v102
 BYTE   W06
// 041   ----------------------------------------
 BYTE   Ds1  v127
 BYTE   W06
 BYTE   Gs0  v102
 BYTE   W06
 BYTE   Ds1
 BYTE   W06
 BYTE   Gs1  v127
 BYTE   W06
 BYTE   Gs0  v102
 BYTE   W06
 BYTE   Gs1  v127
 BYTE   W06
 BYTE   Gs0  v102
 BYTE   W06
 BYTE   As1  v127
 BYTE   W06
 BYTE   Bn1  v102
 BYTE   W06
 BYTE   N11  Fs0  v127
 BYTE   W12
 BYTE   N05  Fs0  v090
 BYTE   W06
 BYTE   N11  Fs0  v127
 BYTE   W12
 BYTE   N05  Fs0  v090
 BYTE   W06
 BYTE   N11  Fs0  v127
 BYTE   W12
 BYTE   PATT
  POIN2 Label_0_05A0
 BYTE   PATT
  POIN2 Label_0_0780
// 042   ----------------------------------------
 BYTE   N05  Fs0  v090
 BYTE   W06
 BYTE   N11  Fs0  v127
 BYTE   W12
 BYTE   N05  Fs0  v090
 BYTE   W06
 BYTE   N11  Fs0  v127
 BYTE   W12
 BYTE   N05  Fs0  v090
 BYTE   W06
 BYTE   N11  En0  v127
 BYTE   W12
 BYTE   N05  En0  v090
 BYTE   W06
 BYTE   N11  En0  v127
 BYTE   W12
 BYTE   N05  En0  v090
 BYTE   W06
 BYTE   N11  En0  v127
 BYTE   W12
 BYTE   N05  En0  v090
 BYTE   W06
 BYTE   PATT
  POIN2 Label_0_131A
 BYTE   PATT
  POIN2 Label_0_113A
// 043   ----------------------------------------
 BYTE   N11  En0  v127
 BYTE   W12
 BYTE   N05  En0  v090
 BYTE   W06
 BYTE   N11  En0  v127
 BYTE   W12
 BYTE   N05  En0  v090
 BYTE   W06
 BYTE   N11  Fs0  v127
 BYTE   W12
 BYTE   N05  Fs0  v090
 BYTE   W06
 BYTE   N11  Fs0  v127
 BYTE   W12
 BYTE   N05  Fs0  v090
 BYTE   W06
 BYTE   N11  Fs0  v127
 BYTE   W12
 BYTE   N05  Fs0  v110
 BYTE   W06
 BYTE   N11  Fs0  v082
 BYTE   W12
// 044   ----------------------------------------
Label_0_A73A:
 BYTE   N05  Fs0  v062
 BYTE   W06
 BYTE   Fs0  v050
 BYTE   W06
 BYTE   Fs0  v030
 BYTE   W12
 BYTE   Fs0  v022
 BYTE   W06
 BYTE   Fs0  v018
 BYTE   W06
 BYTE   Fs0
 BYTE   W12
 BYTE   Fs0
 BYTE   W06
 BYTE   N11  Fs0  v127
 BYTE   W12
 BYTE   N05  Fs0  v090
 BYTE   W06
 BYTE   N11  Fs0  v127
 BYTE   W12
 BYTE   N05  Fs0  v090
 BYTE   W06
 BYTE   N11  Fs0  v127
 BYTE   W12
 BYTE   PEND 
// 045   ----------------------------------------
 BYTE   N05  Fs0  v110
 BYTE   W06
 BYTE   N11  Fs0  v082
 BYTE   W12
 BYTE   N05  Fs0  v062
 BYTE   W06
 BYTE   Fs0  v050
 BYTE   W06
 BYTE   Fs0  v030
 BYTE   W12
 BYTE   Fs0  v022
 BYTE   W06
 BYTE   Fs0  v018
 BYTE   W06
 BYTE   Fs0
 BYTE   W12
 BYTE   Fs0
 BYTE   W06
 BYTE   N11  Fs0  v127
 BYTE   W12
 BYTE   N05  Fs0  v090
 BYTE   W06
 BYTE   N11  Fs0  v127
 BYTE   W12
 BYTE   PATT
  POIN2 Label_0_05A0
 BYTE   PATT
  POIN2 Label_0_0780
 BYTE   PATT
  POIN2 Label_0_05A0
 BYTE   PATT
  POIN2 Label_0_0780
 BYTE   PATT
  POIN2 Label_0_05A0
// 046   ----------------------------------------
 BYTE   N11  Fs0  v127
 BYTE   W12
 BYTE   N05  Fs0  v090
 BYTE   W06
 BYTE   N11  Fs0  v127
 BYTE   W12
 BYTE   N05  Fs0  v090
 BYTE   W06
 BYTE   N11  Fs0  v127
 BYTE   W12
 BYTE   N05  Fs0  v090
 BYTE   W06
 BYTE   N11  En0  v127
 BYTE   W12
 BYTE   N05  En0  v090
 BYTE   W06
 BYTE   N11  En0  v127
 BYTE   W12
 BYTE   N05  En0  v090
 BYTE   W06
 BYTE   N11  En0  v127
 BYTE   W12
 BYTE   PATT
  POIN2 Label_0_113A
 BYTE   PATT
  POIN2 Label_0_131A
// 047   ----------------------------------------
 BYTE   N05  En0  v090
 BYTE   W06
 BYTE   N11  En0  v127
 BYTE   W12
 BYTE   N05  En0  v090
 BYTE   W06
 BYTE   N11  En0  v127
 BYTE   W12
 BYTE   N05  En0  v090
 BYTE   W06
 BYTE   N11  Fs0  v127
 BYTE   W12
 BYTE   N05  Fs0  v090
 BYTE   W06
 BYTE   N11  Fs0  v127
 BYTE   W12
 BYTE   N05  Fs0  v090
 BYTE   W06
 BYTE   N11  Fs0  v127
 BYTE   W12
 BYTE   N05  Fs0  v090
 BYTE   W06
 BYTE   PATT
  POIN2 Label_0_0780
 BYTE   PATT
  POIN2 Label_0_05A0
 BYTE   PATT
  POIN2 Label_0_0F3C
 BYTE   PATT
  POIN2 Label_0_113A
 BYTE   PATT
  POIN2 Label_0_131A
// 048   ----------------------------------------
 BYTE   N05  En0  v090
 BYTE   W06
 BYTE   N11  En0  v127
 BYTE   W12
 BYTE   N05  En0  v090
 BYTE   W06
 BYTE   N11  En0  v127
 BYTE   W12
 BYTE   N05  En0  v090
 BYTE   W06
 BYTE   Fs1  v102
 BYTE   N05  Bn0
 BYTE   W06
 BYTE   En0
 BYTE   W06
 BYTE   Gn1
 BYTE   N05  Cn1
 BYTE   W06
 BYTE   An1
 BYTE   N05  Dn1
 BYTE   W06
 BYTE   En0
 BYTE   W06
 BYTE   Gn1
 BYTE   N05  Cn1
 BYTE   W06
 BYTE   En0
 BYTE   W06
 BYTE   Fs1
 BYTE   N05  Bn0
 BYTE   W06
 BYTE   En0
 BYTE   W06
// 049   ----------------------------------------
 BYTE   N11  An1
 BYTE   N11  Dn1
 BYTE   W12
 BYTE   N05  En0
 BYTE   W06
 BYTE   N11  Bn1
 BYTE   N11  En1
 BYTE   W12
 BYTE   N05  En0
 BYTE   W06
 BYTE   N11  Bn1
 BYTE   N11  Fs1
 BYTE   W12
 BYTE   N05  En0
 BYTE   W06
 BYTE   N11  En0  v127
 BYTE   W12
 BYTE   N05  En0  v102
 BYTE   W06
 BYTE   N11  En0  v127
 BYTE   W12
 BYTE   N05  En0  v090
 BYTE   W06
 BYTE   Fs1  v102
 BYTE   N05  Bn0
 BYTE   W06
// 050   ----------------------------------------
 BYTE   En0
 BYTE   W06
 BYTE   Gn1
 BYTE   N05  Cn1
 BYTE   W06
 BYTE   An1
 BYTE   N05  Dn1
 BYTE   W06
 BYTE   En0
 BYTE   W06
 BYTE   Gn1
 BYTE   N05  Cn1
 BYTE   W06
 BYTE   En0
 BYTE   W06
 BYTE   Fs1
 BYTE   N05  Bn0
 BYTE   W06
 BYTE   En0
 BYTE   W06
 BYTE   N11  An1
 BYTE   N11  Dn1
 BYTE   W12
 BYTE   N05  En0
 BYTE   W06
 BYTE   N11  Bn1
 BYTE   N11  En1
 BYTE   W12
 BYTE   N05  En0
 BYTE   W06
 BYTE   N11  Bn1
 BYTE   N11  Fs1
 BYTE   W12
// 051   ----------------------------------------
 BYTE   N05  En0
 BYTE   W06
 BYTE   N11  En0  v127
 BYTE   W12
 BYTE   N05  En0  v102
 BYTE   W06
 BYTE   N11  Fs0  v127
 BYTE   W12
 BYTE   N05  Fs0  v102
 BYTE   W06
 BYTE   Cs1  v127
 BYTE   W06
 BYTE   Fs0  v102
 BYTE   W06
 BYTE   Cs1
 BYTE   W06
 BYTE   Fs1  v127
 BYTE   W06
 BYTE   Fs0  v102
 BYTE   W06
 BYTE   Fs1  v127
 BYTE   W06
 BYTE   Fs0  v102
 BYTE   W06
 BYTE   Gs1  v127
 BYTE   W06
 BYTE   An1  v102
 BYTE   W06
// 052   ----------------------------------------
 BYTE   N11  Fs0  v127
 BYTE   W12
 BYTE   N05  Fs0  v102
 BYTE   W06
 BYTE   Cs1  v127
 BYTE   W06
 BYTE   Fs0  v102
 BYTE   W06
 BYTE   Cs1
 BYTE   W06
 BYTE   Fs1  v127
 BYTE   W06
 BYTE   Fs0  v102
 BYTE   W06
 BYTE   Fs1  v127
 BYTE   W06
 BYTE   Fs0  v102
 BYTE   W06
 BYTE   Gs1  v127
 BYTE   W06
 BYTE   An1  v102
 BYTE   W06
 BYTE   N11  Gs0  v127
 BYTE   W12
 BYTE   N05  Gs0  v102
 BYTE   W06
 BYTE   Ds1  v127
 BYTE   W06
// 053   ----------------------------------------
 BYTE   Gs0  v102
 BYTE   W06
 BYTE   Ds1
 BYTE   W06
 BYTE   Gs1  v127
 BYTE   W06
 BYTE   Gs0  v102
 BYTE   W06
 BYTE   Gs1  v127
 BYTE   W06
 BYTE   Gs0  v102
 BYTE   W06
 BYTE   As1  v127
 BYTE   W06
 BYTE   Bn1  v102
 BYTE   W06
 BYTE   N11  Gs0  v127
 BYTE   W12
 BYTE   N05  Gs0  v102
 BYTE   W06
 BYTE   Ds1  v127
 BYTE   W06
 BYTE   Gs0  v102
 BYTE   W06
 BYTE   Ds1
 BYTE   W06
 BYTE   Gs1  v127
 BYTE   W06
 BYTE   Gs0  v102
 BYTE   W06
// 054   ----------------------------------------
 BYTE   Gs1  v127
 BYTE   W06
 BYTE   Gs0  v102
 BYTE   W06
 BYTE   As1  v127
 BYTE   W06
 BYTE   Bn1  v102
 BYTE   W06
 BYTE   N11  Fs0  v127
 BYTE   W12
 BYTE   N05  Fs0  v090
 BYTE   W06
 BYTE   N11  Fs0  v127
 BYTE   W12
 BYTE   N05  Fs0  v090
 BYTE   W06
 BYTE   N11  Fs0  v127
 BYTE   W12
 BYTE   N05  Fs0  v090
 BYTE   W06
 BYTE   N11  Fs0  v127
 BYTE   W12
 BYTE   N05  Fs0  v090
 BYTE   W06
 BYTE   PATT
  POIN2 Label_0_0780
 BYTE   PATT
  POIN2 Label_0_05A0
 BYTE   PATT
  POIN2 Label_0_1AD6
 BYTE   PATT
  POIN2 Label_0_113A
 BYTE   PATT
  POIN2 Label_0_131A
// 055   ----------------------------------------
 BYTE   N05  En0  v090
 BYTE   W06
 BYTE   N11  Fs0  v127
 BYTE   W12
 BYTE   N05  Fs0  v090
 BYTE   W06
 BYTE   N11  Fs0  v127
 BYTE   W12
 BYTE   N05  Fs0  v090
 BYTE   W06
 BYTE   N11  Fs0  v127
 BYTE   W12
 BYTE   N05  Fs0  v110
 BYTE   W06
 BYTE   N11  Fs0  v082
 BYTE   W12
 BYTE   N05  Fs0  v062
 BYTE   W06
 BYTE   Fs0  v050
 BYTE   W06
 BYTE   Fs0  v030
 BYTE   W12
// 056   ----------------------------------------
 BYTE   Fs0  v022
 BYTE   W06
 BYTE   Fs0  v018
 BYTE   W06
 BYTE   Fs0
 BYTE   W12
 BYTE   Fs0
 BYTE   W06
 BYTE   N11  Fs0  v127
 BYTE   W12
 BYTE   N05  Fs0  v090
 BYTE   W06
 BYTE   N11  Fs0  v127
 BYTE   W12
 BYTE   N05  Fs0  v090
 BYTE   W06
 BYTE   N11  Fs0  v127
 BYTE   W12
 BYTE   N05  Fs0  v110
 BYTE   W06
 BYTE   N11  Fs0  v082
 BYTE   W12
 BYTE   PATT
  POIN2 Label_0_A73A
 BYTE   PATT
  POIN2 Label_0_05A0
 BYTE   PATT
  POIN2 Label_0_0780
 BYTE   PATT
  POIN2 Label_0_05A0
 BYTE   PATT
  POIN2 Label_0_0780
 BYTE   PATT
  POIN2 Label_0_05A0
 BYTE   PATT
  POIN2 Label_0_0F3C
 BYTE   PATT
  POIN2 Label_0_113A
 BYTE   PATT
  POIN2 Label_0_131A
 BYTE   PATT
  POIN2 Label_0_1518
 BYTE   PATT
  POIN2 Label_0_0780
 BYTE   PATT
  POIN2 Label_0_05A0
 BYTE   PATT
  POIN2 Label_0_1AD6
 BYTE   PATT
  POIN2 Label_0_113A
 BYTE   PATT
  POIN2 Label_0_131A
 BYTE   PATT
  POIN2 Label_0_20B2
 BYTE   PATT
  POIN2 Label_0_2292
 BYTE   PATT
  POIN2 Label_0_2472
 BYTE   PATT
  POIN2 Label_0_2652
 BYTE   PATT
  POIN2 Label_0_2832
 BYTE   PATT
  POIN2 Label_0_2A12
 BYTE   PATT
  POIN2 Label_0_2BF2
 BYTE   PATT
  POIN2 Label_0_0780
 BYTE   PATT
  POIN2 Label_0_05A0
 BYTE   PATT
  POIN2 Label_0_131A
 BYTE   PATT
  POIN2 Label_0_113A
 BYTE   PATT
  POIN2 Label_0_358E
 BYTE   PATT
  POIN2 Label_0_378C
 BYTE   PATT
  POIN2 Label_0_398A
 BYTE   PATT
  POIN2 Label_0_3B6A
 BYTE   PATT
  POIN2 Label_0_05A0
 BYTE   PATT
  POIN2 Label_0_0780
 BYTE   PATT
  POIN2 Label_0_05A0
 BYTE   PATT
  POIN2 Label_0_0780
 BYTE   PATT
  POIN2 Label_0_05A0
 BYTE   PATT
  POIN2 Label_0_1AD6
 BYTE   PATT
  POIN2 Label_0_113A
 BYTE   PATT
  POIN2 Label_0_131A
 BYTE   PATT
  POIN2 Label_0_4CC2
 BYTE   PATT
  POIN2 Label_0_0780
 BYTE   PATT
  POIN2 Label_0_05A0
 BYTE   PATT
  POIN2 Label_0_131A
 BYTE   PATT
  POIN2 Label_0_113A
 BYTE   PATT
  POIN2 Label_0_131A
 BYTE   PATT
  POIN2 Label_0_585C
 BYTE   PATT
  POIN2 Label_0_5A3C
 BYTE   PATT
  POIN2 Label_0_5C1C
 BYTE   PATT
  POIN2 Label_0_5DFC
 BYTE   PATT
  POIN2 Label_0_5FDC
 BYTE   PATT
  POIN2 Label_0_61BC
 BYTE   PATT
  POIN2 Label_0_05A0
 BYTE   PATT
  POIN2 Label_0_0780
 BYTE   PATT
  POIN2 Label_0_677A
 BYTE   PATT
  POIN2 Label_0_131A
 BYTE   PATT
  POIN2 Label_0_113A
// 057   ----------------------------------------
 BYTE   N11  En0  v127
 BYTE   W12
 BYTE   N05  En0  v090
 BYTE   W06
 BYTE   N11  En0  v127
 BYTE   W12
 BYTE   N05  En0  v090
 BYTE   W06
 BYTE   N11  En0  v127
 BYTE   W12
 BYTE   N05  En0  v090
 BYTE   W06
 BYTE   N11  En0  v127
 BYTE   W12
 BYTE   N05  En0  v090
 BYTE   W10
// 058   ----------------------------------------
 BYTE   GoTo
  POIN2 Label_0_00
 BYTE   FINE

//**************** Track 2 (Midi-Chn.1) ****************//

AltinCaves_002:
// 000   ----------------------------------------
Label_1_00:
 BYTE   TEMPO   72*AltinCaves_tbs/2
 BYTE   KEYSH   AltinCaves_key+0
 BYTE   VOICE   44
 BYTE   PAN   c_v-54
 BYTE   W96
 BYTE   W96
 BYTE   W96
 BYTE   W96
 BYTE   W96
// 001   ----------------------------------------
 BYTE   W44
 BYTE   W03
// 002   ----------------------------------------
Label_1_0A4B:
 BYTE   VOL   8*AltinCaves_mvl/mxv
 BYTE   W01
 BYTE   N96  An3  v100
 BYTE   N96  Cs3
 BYTE   N96  Fs4
 BYTE   VOL   9*AltinCaves_mvl/mxv
 BYTE   W01
 BYTE   VOL   10*AltinCaves_mvl/mxv
 BYTE   W01
 BYTE   VOL   10*AltinCaves_mvl/mxv
 BYTE   W01
 BYTE   VOL   11*AltinCaves_mvl/mxv
 BYTE   W01
 BYTE   VOL   11*AltinCaves_mvl/mxv
 BYTE   W01
 BYTE   VOL   12*AltinCaves_mvl/mxv
 BYTE   W01
 BYTE   VOL   13*AltinCaves_mvl/mxv
 BYTE   W01
 BYTE   VOL   13*AltinCaves_mvl/mxv
 BYTE   W01
 BYTE   VOL   14*AltinCaves_mvl/mxv
 BYTE   W01
 BYTE   VOL   15*AltinCaves_mvl/mxv
 BYTE   W01
 BYTE   VOL   16*AltinCaves_mvl/mxv
 BYTE   W01
 BYTE   N44  Fs4  v100
 BYTE   N44  An3
 BYTE   N44  Cs3
 BYTE   PEND 
// 003   ----------------------------------------
Label_1_0AB1:
 BYTE   VOL   16*AltinCaves_mvl/mxv
 BYTE   W01
 BYTE   VOL   17*AltinCaves_mvl/mxv
 BYTE   W01
 BYTE   VOL   18*AltinCaves_mvl/mxv
 BYTE   W01
 BYTE   VOL   19*AltinCaves_mvl/mxv
 BYTE   W01
 BYTE   VOL   19*AltinCaves_mvl/mxv
 BYTE   W01
 BYTE   VOL   20*AltinCaves_mvl/mxv
 BYTE   N03  Fs4  v100
 BYTE   N03  An3
 BYTE   N03  Cs3
 BYTE   W01
 BYTE   VOL   21*AltinCaves_mvl/mxv
 BYTE   W01
 BYTE   VOL   22*AltinCaves_mvl/mxv
 BYTE   W01
 BYTE   VOL   23*AltinCaves_mvl/mxv
 BYTE   W01
 BYTE   VOL   23*AltinCaves_mvl/mxv
 BYTE   W01
 BYTE   VOL   24*AltinCaves_mvl/mxv
 BYTE   W01
 BYTE   VOL   25*AltinCaves_mvl/mxv
 BYTE   W01
 BYTE   PEND 
// 004   ----------------------------------------
Label_1_0B17:
 BYTE   VOL   26*AltinCaves_mvl/mxv
 BYTE   W01
 BYTE   VOL   27*AltinCaves_mvl/mxv
 BYTE   W01
 BYTE   VOL   28*AltinCaves_mvl/mxv
 BYTE   W01
 BYTE   VOL   29*AltinCaves_mvl/mxv
 BYTE   W01
 BYTE   VOL   30*AltinCaves_mvl/mxv
 BYTE   W01
 BYTE   VOL   31*AltinCaves_mvl/mxv
 BYTE   W01
 BYTE   VOL   31*AltinCaves_mvl/mxv
 BYTE   W01
 BYTE   VOL   32*AltinCaves_mvl/mxv
 BYTE   W01
 BYTE   VOL   33*AltinCaves_mvl/mxv
 BYTE   W01
 BYTE   VOL   34*AltinCaves_mvl/mxv
 BYTE   W01
 BYTE   VOL   35*AltinCaves_mvl/mxv
 BYTE   W01
 BYTE   VOL   36*AltinCaves_mvl/mxv
 BYTE   W01
 BYTE   PEND 
// 005   ----------------------------------------
Label_1_0B7D:
 BYTE   VOL   37*AltinCaves_mvl/mxv
 BYTE   W01
 BYTE   VOL   38*AltinCaves_mvl/mxv
 BYTE   W01
 BYTE   VOL   39*AltinCaves_mvl/mxv
 BYTE   W01
 BYTE   VOL   41*AltinCaves_mvl/mxv
 BYTE   W01
 BYTE   VOL   42*AltinCaves_mvl/mxv
 BYTE   W01
 BYTE   VOL   43*AltinCaves_mvl/mxv
 BYTE   W01
 BYTE   VOL   44*AltinCaves_mvl/mxv
 BYTE   W01
 BYTE   VOL   45*AltinCaves_mvl/mxv
 BYTE   W01
 BYTE   VOL   46*AltinCaves_mvl/mxv
 BYTE   W01
 BYTE   VOL   47*AltinCaves_mvl/mxv
 BYTE   W01
 BYTE   VOL   48*AltinCaves_mvl/mxv
 BYTE   W01
 BYTE   VOL   49*AltinCaves_mvl/mxv
 BYTE   W01
 BYTE   PEND 
// 006   ----------------------------------------
Label_1_0BE3:
 BYTE   VOL   50*AltinCaves_mvl/mxv
 BYTE   W01
 BYTE   VOL   52*AltinCaves_mvl/mxv
 BYTE   W01
 BYTE   VOL   53*AltinCaves_mvl/mxv
 BYTE   W01
 BYTE   VOL   54*AltinCaves_mvl/mxv
 BYTE   W01
 BYTE   VOL   55*AltinCaves_mvl/mxv
 BYTE   W01
 BYTE   VOL   56*AltinCaves_mvl/mxv
 BYTE   W01
 BYTE   VOL   58*AltinCaves_mvl/mxv
 BYTE   W01
 BYTE   VOL   59*AltinCaves_mvl/mxv
 BYTE   W01
 BYTE   VOL   60*AltinCaves_mvl/mxv
 BYTE   W01
 BYTE   VOL   61*AltinCaves_mvl/mxv
 BYTE   W01
 BYTE   VOL   63*AltinCaves_mvl/mxv
 BYTE   W01
 BYTE   VOL   64*AltinCaves_mvl/mxv
 BYTE   W01
 BYTE   PEND 
// 007   ----------------------------------------
Label_1_0C49:
 BYTE   VOL   65*AltinCaves_mvl/mxv
 BYTE   W01
 BYTE   VOL   66*AltinCaves_mvl/mxv
 BYTE   W01
 BYTE   VOL   68*AltinCaves_mvl/mxv
 BYTE   W01
 BYTE   VOL   69*AltinCaves_mvl/mxv
 BYTE   W01
 BYTE   VOL   70*AltinCaves_mvl/mxv
 BYTE   W01
 BYTE   VOL   72*AltinCaves_mvl/mxv
 BYTE   W01
 BYTE   VOL   73*AltinCaves_mvl/mxv
 BYTE   W01
 BYTE   VOL   74*AltinCaves_mvl/mxv
 BYTE   W01
 BYTE   VOL   76*AltinCaves_mvl/mxv
 BYTE   W01
 BYTE   VOL   77*AltinCaves_mvl/mxv
 BYTE   W01
 BYTE   VOL   78*AltinCaves_mvl/mxv
 BYTE   W01
 BYTE   VOL   80*AltinCaves_mvl/mxv
 BYTE   W01
 BYTE   PEND 
// 008   ----------------------------------------
Label_1_0CAF:
 BYTE   VOL   81*AltinCaves_mvl/mxv
 BYTE   W01
 BYTE   VOL   82*AltinCaves_mvl/mxv
 BYTE   W01
 BYTE   VOL   84*AltinCaves_mvl/mxv
 BYTE   W01
 BYTE   VOL   85*AltinCaves_mvl/mxv
 BYTE   VOL   84*AltinCaves_mvl/mxv
 BYTE   W01
 BYTE   VOL   85*AltinCaves_mvl/mxv
 BYTE   W01
 BYTE   VOL   87*AltinCaves_mvl/mxv
 BYTE   W01
 BYTE   VOL   88*AltinCaves_mvl/mxv
 BYTE   W96
 BYTE   W56
 BYTE   W01
 BYTE   PEND 
// 009   ----------------------------------------
Label_1_0FE3:
 BYTE   VOL   13*AltinCaves_mvl/mxv
 BYTE   W02
 BYTE   VOL   13*AltinCaves_mvl/mxv
 BYTE   N96  En4  v100
 BYTE   N96  Bn2
 BYTE   N96  Gn3
 BYTE   W01
 BYTE   VOL   14*AltinCaves_mvl/mxv
 BYTE   W02
 BYTE   VOL   15*AltinCaves_mvl/mxv
 BYTE   W01
 BYTE   VOL   16*AltinCaves_mvl/mxv
 BYTE   W02
 BYTE   VOL   16*AltinCaves_mvl/mxv
 BYTE   W01
 BYTE   VOL   17*AltinCaves_mvl/mxv
 BYTE   W02
 BYTE   VOL   18*AltinCaves_mvl/mxv
 BYTE   W02
 BYTE   VOL   19*AltinCaves_mvl/mxv
 BYTE   W01
 BYTE   VOL   19*AltinCaves_mvl/mxv
 BYTE   W02
 BYTE   PEND 
// 010   ----------------------------------------
 BYTE   VOL   20*AltinCaves_mvl/mxv
 BYTE   W01
 BYTE   VOL   21*AltinCaves_mvl/mxv
 BYTE   N44  En4  v100
 BYTE   N44  Bn2
 BYTE   N44  Gn3
 BYTE   W01
 BYTE   VOL   22*AltinCaves_mvl/mxv
 BYTE   W02
 BYTE   VOL   23*AltinCaves_mvl/mxv
 BYTE   W01
 BYTE   VOL   23*AltinCaves_mvl/mxv
 BYTE   W02
 BYTE   VOL   24*AltinCaves_mvl/mxv
 BYTE   W01
 BYTE   VOL   25*AltinCaves_mvl/mxv
 BYTE   N03  En4  v100
 BYTE   N03  Bn2
 BYTE   N03  Gn3
 BYTE   W02
 BYTE   VOL   26*AltinCaves_mvl/mxv
 BYTE   W01
 BYTE   VOL   27*AltinCaves_mvl/mxv
 BYTE   W02
 BYTE   VOL   28*AltinCaves_mvl/mxv
 BYTE   W02
// 011   ----------------------------------------
Label_1_10A3:
 BYTE   VOL   29*AltinCaves_mvl/mxv
 BYTE   W01
 BYTE   VOL   30*AltinCaves_mvl/mxv
 BYTE   W02
 BYTE   VOL   31*AltinCaves_mvl/mxv
 BYTE   W01
 BYTE   VOL   31*AltinCaves_mvl/mxv
 BYTE   W02
 BYTE   VOL   32*AltinCaves_mvl/mxv
 BYTE   W01
 BYTE   VOL   33*AltinCaves_mvl/mxv
 BYTE   W02
 BYTE   VOL   34*AltinCaves_mvl/mxv
 BYTE   W02
 BYTE   VOL   35*AltinCaves_mvl/mxv
 BYTE   W01
 BYTE   VOL   36*AltinCaves_mvl/mxv
 BYTE   W02
 BYTE   VOL   37*AltinCaves_mvl/mxv
 BYTE   W01
 BYTE   VOL   38*AltinCaves_mvl/mxv
 BYTE   W02
 BYTE   PEND 
// 012   ----------------------------------------
Label_1_110C:
 BYTE   VOL   39*AltinCaves_mvl/mxv
 BYTE   W02
 BYTE   VOL   41*AltinCaves_mvl/mxv
 BYTE   W01
 BYTE   VOL   42*AltinCaves_mvl/mxv
 BYTE   W02
 BYTE   VOL   43*AltinCaves_mvl/mxv
 BYTE   W01
 BYTE   VOL   44*AltinCaves_mvl/mxv
 BYTE   W02
 BYTE   VOL   45*AltinCaves_mvl/mxv
 BYTE   W01
 BYTE   VOL   46*AltinCaves_mvl/mxv
 BYTE   W02
 BYTE   VOL   47*AltinCaves_mvl/mxv
 BYTE   W02
 BYTE   VOL   48*AltinCaves_mvl/mxv
 BYTE   W01
 BYTE   VOL   49*AltinCaves_mvl/mxv
 BYTE   W02
 BYTE   PEND 
// 013   ----------------------------------------
Label_1_116C:
 BYTE   VOL   50*AltinCaves_mvl/mxv
 BYTE   W01
 BYTE   VOL   52*AltinCaves_mvl/mxv
 BYTE   W02
 BYTE   VOL   53*AltinCaves_mvl/mxv
 BYTE   W02
 BYTE   VOL   54*AltinCaves_mvl/mxv
 BYTE   W01
 BYTE   VOL   55*AltinCaves_mvl/mxv
 BYTE   W02
 BYTE   VOL   56*AltinCaves_mvl/mxv
 BYTE   W01
 BYTE   VOL   58*AltinCaves_mvl/mxv
 BYTE   W02
 BYTE   VOL   59*AltinCaves_mvl/mxv
 BYTE   W01
 BYTE   VOL   60*AltinCaves_mvl/mxv
 BYTE   W02
 BYTE   VOL   61*AltinCaves_mvl/mxv
 BYTE   W02
 BYTE   PEND 
// 014   ----------------------------------------
Label_1_11CC:
 BYTE   VOL   63*AltinCaves_mvl/mxv
 BYTE   W01
 BYTE   VOL   64*AltinCaves_mvl/mxv
 BYTE   W02
 BYTE   VOL   65*AltinCaves_mvl/mxv
 BYTE   W01
 BYTE   VOL   66*AltinCaves_mvl/mxv
 BYTE   W02
 BYTE   VOL   68*AltinCaves_mvl/mxv
 BYTE   W01
 BYTE   VOL   69*AltinCaves_mvl/mxv
 BYTE   W02
 BYTE   VOL   70*AltinCaves_mvl/mxv
 BYTE   W02
 BYTE   VOL   72*AltinCaves_mvl/mxv
 BYTE   W01
 BYTE   VOL   73*AltinCaves_mvl/mxv
 BYTE   W02
 BYTE   VOL   74*AltinCaves_mvl/mxv
 BYTE   W01
 BYTE   VOL   76*AltinCaves_mvl/mxv
 BYTE   W02
 BYTE   PEND 
// 015   ----------------------------------------
Label_1_1235:
 BYTE   VOL   77*AltinCaves_mvl/mxv
 BYTE   W02
 BYTE   VOL   78*AltinCaves_mvl/mxv
 BYTE   W01
 BYTE   VOL   80*AltinCaves_mvl/mxv
 BYTE   W02
 BYTE   VOL   81*AltinCaves_mvl/mxv
 BYTE   W01
 BYTE   VOL   82*AltinCaves_mvl/mxv
 BYTE   W02
 BYTE   VOL   84*AltinCaves_mvl/mxv
 BYTE   W01
 BYTE   VOL   85*AltinCaves_mvl/mxv
 BYTE   W02
 BYTE   VOL   87*AltinCaves_mvl/mxv
 BYTE   W01
 BYTE   VOL   87*AltinCaves_mvl/mxv
 BYTE   W01
 BYTE   VOL   88*AltinCaves_mvl/mxv
 BYTE   W96
 BYTE   W52
 BYTE   W01
 BYTE   PEND 
// 016   ----------------------------------------
Label_1_1572:
 BYTE   VOL   8*AltinCaves_mvl/mxv
 BYTE   W01
 BYTE   VOL   9*AltinCaves_mvl/mxv
 BYTE   W01
 BYTE   VOL   10*AltinCaves_mvl/mxv
 BYTE   W01
 BYTE   VOL   10*AltinCaves_mvl/mxv
 BYTE   N96  Cs3  v100
 BYTE   N96  An3
 BYTE   N96  Fs4
 BYTE   VOL   11*AltinCaves_mvl/mxv
 BYTE   W01
 BYTE   VOL   11*AltinCaves_mvl/mxv
 BYTE   W01
 BYTE   VOL   12*AltinCaves_mvl/mxv
 BYTE   W01
 BYTE   VOL   13*AltinCaves_mvl/mxv
 BYTE   W01
 BYTE   VOL   13*AltinCaves_mvl/mxv
 BYTE   W01
 BYTE   VOL   14*AltinCaves_mvl/mxv
 BYTE   W01
 BYTE   VOL   15*AltinCaves_mvl/mxv
 BYTE   W01
 BYTE   VOL   16*AltinCaves_mvl/mxv
 BYTE   W01
 BYTE   PEND 
// 017   ----------------------------------------
 BYTE   VOL   16*AltinCaves_mvl/mxv
 BYTE   W01
 BYTE   VOL   17*AltinCaves_mvl/mxv
 BYTE   W01
 BYTE   VOL   18*AltinCaves_mvl/mxv
 BYTE   W01
 BYTE   N44  Cs3  v100
 BYTE   N44  An3
 BYTE   N44  Fs4
 BYTE   VOL   19*AltinCaves_mvl/mxv
 BYTE   W01
 BYTE   VOL   19*AltinCaves_mvl/mxv
 BYTE   W01
 BYTE   VOL   20*AltinCaves_mvl/mxv
 BYTE   W01
 BYTE   VOL   21*AltinCaves_mvl/mxv
 BYTE   W01
 BYTE   VOL   22*AltinCaves_mvl/mxv
 BYTE   W01
 BYTE   VOL   23*AltinCaves_mvl/mxv
 BYTE   N03  Cs3  v100
 BYTE   N03  Fs4
 BYTE   N03  An3
 BYTE   W01
 BYTE   VOL   23*AltinCaves_mvl/mxv
 BYTE   W01
 BYTE   VOL   24*AltinCaves_mvl/mxv
 BYTE   W01
 BYTE   VOL   25*AltinCaves_mvl/mxv
 BYTE   W01
 BYTE   PATT
  POIN2 Label_1_0B17
 BYTE   PATT
  POIN2 Label_1_0B7D
 BYTE   PATT
  POIN2 Label_1_0BE3
 BYTE   PATT
  POIN2 Label_1_0C49
// 018   ----------------------------------------
Label_1_17D6:
 BYTE   VOL   81*AltinCaves_mvl/mxv
 BYTE   W01
 BYTE   VOL   82*AltinCaves_mvl/mxv
 BYTE   W01
 BYTE   VOL   84*AltinCaves_mvl/mxv
 BYTE   W01
 BYTE   VOL   85*AltinCaves_mvl/mxv
 BYTE   VOL   84*AltinCaves_mvl/mxv
 BYTE   W01
 BYTE   VOL   85*AltinCaves_mvl/mxv
 BYTE   W01
 BYTE   VOL   87*AltinCaves_mvl/mxv
 BYTE   W01
 BYTE   VOL   88*AltinCaves_mvl/mxv
 BYTE   W96
 BYTE   W56
 BYTE   W03
 BYTE   PEND 
// 019   ----------------------------------------
Label_1_1B12:
 BYTE   VOL   8*AltinCaves_mvl/mxv
 BYTE   W01
 BYTE   VOL   9*AltinCaves_mvl/mxv
 BYTE   W01
 BYTE   VOL   10*AltinCaves_mvl/mxv
 BYTE   W01
 BYTE   VOL   10*AltinCaves_mvl/mxv
 BYTE   N96  En4  v100
 BYTE   N96  Gn3
 BYTE   N96  Bn2
 BYTE   VOL   11*AltinCaves_mvl/mxv
 BYTE   W01
 BYTE   VOL   11*AltinCaves_mvl/mxv
 BYTE   W01
 BYTE   VOL   12*AltinCaves_mvl/mxv
 BYTE   W01
 BYTE   VOL   13*AltinCaves_mvl/mxv
 BYTE   W01
 BYTE   VOL   13*AltinCaves_mvl/mxv
 BYTE   W01
 BYTE   VOL   14*AltinCaves_mvl/mxv
 BYTE   W01
 BYTE   VOL   15*AltinCaves_mvl/mxv
 BYTE   W01
 BYTE   VOL   16*AltinCaves_mvl/mxv
 BYTE   W01
 BYTE   PEND 
// 020   ----------------------------------------
Label_1_1B78:
 BYTE   VOL   16*AltinCaves_mvl/mxv
 BYTE   W01
 BYTE   VOL   17*AltinCaves_mvl/mxv
 BYTE   W01
 BYTE   VOL   18*AltinCaves_mvl/mxv
 BYTE   W01
 BYTE   N44  Gn3  v100
 BYTE   N44  En4
 BYTE   N44  Bn2
 BYTE   VOL   19*AltinCaves_mvl/mxv
 BYTE   W01
 BYTE   VOL   19*AltinCaves_mvl/mxv
 BYTE   W01
 BYTE   VOL   20*AltinCaves_mvl/mxv
 BYTE   W01
 BYTE   VOL   21*AltinCaves_mvl/mxv
 BYTE   W01
 BYTE   VOL   22*AltinCaves_mvl/mxv
 BYTE   W01
 BYTE   VOL   23*AltinCaves_mvl/mxv
 BYTE   N03  Bn2  v100
 BYTE   N03  Gn3
 BYTE   N03  En4
 BYTE   W01
 BYTE   VOL   23*AltinCaves_mvl/mxv
 BYTE   W01
 BYTE   VOL   24*AltinCaves_mvl/mxv
 BYTE   W01
 BYTE   VOL   25*AltinCaves_mvl/mxv
 BYTE   W01
 BYTE   PEND 
 BYTE   PATT
  POIN2 Label_1_0B17
 BYTE   PATT
  POIN2 Label_1_0B7D
 BYTE   PATT
  POIN2 Label_1_0BE3
 BYTE   PATT
  POIN2 Label_1_0C49
// 021   ----------------------------------------
Label_1_1D76:
 BYTE   VOL   81*AltinCaves_mvl/mxv
 BYTE   W01
 BYTE   VOL   82*AltinCaves_mvl/mxv
 BYTE   W01
 BYTE   VOL   84*AltinCaves_mvl/mxv
 BYTE   W01
 BYTE   VOL   85*AltinCaves_mvl/mxv
 BYTE   VOL   84*AltinCaves_mvl/mxv
 BYTE   W01
 BYTE   VOL   85*AltinCaves_mvl/mxv
 BYTE   W01
 BYTE   VOL   87*AltinCaves_mvl/mxv
 BYTE   W01
 BYTE   VOL   88*AltinCaves_mvl/mxv
 BYTE   W96
 BYTE   W64
 BYTE   W01
 BYTE   N96  En1  v127
 BYTE   W19
 BYTE   En1
 BYTE   W19
 BYTE   N92
 BYTE   W18
 BYTE   N03
 BYTE   W96
 BYTE   W96
 BYTE   W36
 BYTE   W03
 BYTE   N96  Fs1
 BYTE   W19
 BYTE   N44
 BYTE   W08
 BYTE   N03
 BYTE   W96
 BYTE   W20
 BYTE   N96  Gs1
 BYTE   W19
 BYTE   N44
 BYTE   W08
 BYTE   N03
 BYTE   W96
 BYTE   W20
 BYTE   PEND 
// 022   ----------------------------------------
 BYTE   VOL   8*AltinCaves_mvl/mxv
 BYTE   N96  Cs3  v100
 BYTE   N96  Fs4
 BYTE   N96  An3
 BYTE   W01
 BYTE   VOL   9*AltinCaves_mvl/mxv
 BYTE   W01
 BYTE   VOL   10*AltinCaves_mvl/mxv
 BYTE   W01
 BYTE   VOL   10*AltinCaves_mvl/mxv
 BYTE   W01
 BYTE   VOL   11*AltinCaves_mvl/mxv
 BYTE   W01
 BYTE   VOL   11*AltinCaves_mvl/mxv
 BYTE   W01
 BYTE   VOL   12*AltinCaves_mvl/mxv
 BYTE   W01
 BYTE   VOL   13*AltinCaves_mvl/mxv
 BYTE   W01
 BYTE   VOL   13*AltinCaves_mvl/mxv
 BYTE   W01
 BYTE   VOL   14*AltinCaves_mvl/mxv
 BYTE   W01
 BYTE   VOL   15*AltinCaves_mvl/mxv
 BYTE   W01
 BYTE   VOL   16*AltinCaves_mvl/mxv
 BYTE   N44  An3  v100
 BYTE   N44  Cs3
 BYTE   N44  Fs4
 BYTE   W01
// 023   ----------------------------------------
Label_1_2C76:
 BYTE   VOL   16*AltinCaves_mvl/mxv
 BYTE   W01
 BYTE   VOL   17*AltinCaves_mvl/mxv
 BYTE   W01
 BYTE   VOL   18*AltinCaves_mvl/mxv
 BYTE   W01
 BYTE   VOL   19*AltinCaves_mvl/mxv
 BYTE   W01
 BYTE   VOL   19*AltinCaves_mvl/mxv
 BYTE   N03  An3  v100
 BYTE   N03  Fs4
 BYTE   N03  Cs3
 BYTE   W01
 BYTE   VOL   20*AltinCaves_mvl/mxv
 BYTE   W01
 BYTE   VOL   21*AltinCaves_mvl/mxv
 BYTE   W01
 BYTE   VOL   22*AltinCaves_mvl/mxv
 BYTE   W01
 BYTE   VOL   23*AltinCaves_mvl/mxv
 BYTE   W01
 BYTE   VOL   23*AltinCaves_mvl/mxv
 BYTE   W01
 BYTE   VOL   24*AltinCaves_mvl/mxv
 BYTE   W01
 BYTE   VOL   25*AltinCaves_mvl/mxv
 BYTE   W01
 BYTE   PEND 
 BYTE   PATT
  POIN2 Label_1_0B17
 BYTE   PATT
  POIN2 Label_1_0B7D
 BYTE   PATT
  POIN2 Label_1_0BE3
 BYTE   PATT
  POIN2 Label_1_0C49
// 024   ----------------------------------------
Label_1_2E74:
 BYTE   VOL   81*AltinCaves_mvl/mxv
 BYTE   W01
 BYTE   VOL   82*AltinCaves_mvl/mxv
 BYTE   W01
 BYTE   VOL   84*AltinCaves_mvl/mxv
 BYTE   W01
 BYTE   VOL   85*AltinCaves_mvl/mxv
 BYTE   VOL   84*AltinCaves_mvl/mxv
 BYTE   W01
 BYTE   VOL   85*AltinCaves_mvl/mxv
 BYTE   W01
 BYTE   VOL   87*AltinCaves_mvl/mxv
 BYTE   W01
 BYTE   VOL   88*AltinCaves_mvl/mxv
 BYTE   W96
 BYTE   W52
 BYTE   W01
 BYTE   PEND 
 BYTE   PATT
  POIN2 Label_1_1B12
// 025   ----------------------------------------
 BYTE   VOL   16*AltinCaves_mvl/mxv
 BYTE   W01
 BYTE   VOL   17*AltinCaves_mvl/mxv
 BYTE   W01
 BYTE   VOL   18*AltinCaves_mvl/mxv
 BYTE   W01
 BYTE   N44  Bn2  v100
 BYTE   N44  En4
 BYTE   N44  Gn3
 BYTE   VOL   19*AltinCaves_mvl/mxv
 BYTE   W01
 BYTE   VOL   19*AltinCaves_mvl/mxv
 BYTE   W01
 BYTE   VOL   20*AltinCaves_mvl/mxv
 BYTE   W01
 BYTE   VOL   21*AltinCaves_mvl/mxv
 BYTE   W01
 BYTE   VOL   22*AltinCaves_mvl/mxv
 BYTE   W01
 BYTE   VOL   23*AltinCaves_mvl/mxv
 BYTE   N03  Bn2  v100
 BYTE   N03  En4
 BYTE   N03  Gn3
 BYTE   W01
 BYTE   VOL   23*AltinCaves_mvl/mxv
 BYTE   W01
 BYTE   VOL   24*AltinCaves_mvl/mxv
 BYTE   W01
 BYTE   VOL   25*AltinCaves_mvl/mxv
 BYTE   W01
 BYTE   PATT
  POIN2 Label_1_0B17
 BYTE   PATT
  POIN2 Label_1_0B7D
 BYTE   PATT
  POIN2 Label_1_0BE3
 BYTE   PATT
  POIN2 Label_1_0C49
// 026   ----------------------------------------
Label_1_33F6:
 BYTE   VOL   81*AltinCaves_mvl/mxv
 BYTE   W01
 BYTE   VOL   82*AltinCaves_mvl/mxv
 BYTE   W01
 BYTE   VOL   84*AltinCaves_mvl/mxv
 BYTE   W01
 BYTE   VOL   85*AltinCaves_mvl/mxv
 BYTE   VOL   84*AltinCaves_mvl/mxv
 BYTE   W01
 BYTE   VOL   85*AltinCaves_mvl/mxv
 BYTE   W01
 BYTE   VOL   87*AltinCaves_mvl/mxv
 BYTE   W01
 BYTE   VOL   88*AltinCaves_mvl/mxv
 BYTE   W96
 BYTE   W96
 BYTE   W96
 BYTE   W96
 BYTE   W96
 BYTE   W96
 BYTE   W96
 BYTE   W16
 BYTE   PEND 
// 027   ----------------------------------------
 BYTE   VOL   8*AltinCaves_mvl/mxv
 BYTE   W01
 BYTE   N96  An3  v100
 BYTE   N96  Cs3
 BYTE   N96  Fs4
 BYTE   VOL   9*AltinCaves_mvl/mxv
 BYTE   W01
 BYTE   VOL   10*AltinCaves_mvl/mxv
 BYTE   W01
 BYTE   VOL   10*AltinCaves_mvl/mxv
 BYTE   W01
 BYTE   VOL   11*AltinCaves_mvl/mxv
 BYTE   W01
 BYTE   VOL   11*AltinCaves_mvl/mxv
 BYTE   W01
 BYTE   VOL   12*AltinCaves_mvl/mxv
 BYTE   W01
 BYTE   VOL   13*AltinCaves_mvl/mxv
 BYTE   W01
 BYTE   VOL   13*AltinCaves_mvl/mxv
 BYTE   W01
 BYTE   VOL   14*AltinCaves_mvl/mxv
 BYTE   W01
 BYTE   VOL   15*AltinCaves_mvl/mxv
 BYTE   W01
 BYTE   VOL   16*AltinCaves_mvl/mxv
 BYTE   W01
 BYTE   N44  Cs3  v100
 BYTE   N44  An3
 BYTE   N44  Fs4
// 028   ----------------------------------------
 BYTE   VOL   16*AltinCaves_mvl/mxv
 BYTE   W01
 BYTE   VOL   17*AltinCaves_mvl/mxv
 BYTE   W01
 BYTE   VOL   18*AltinCaves_mvl/mxv
 BYTE   W01
 BYTE   VOL   19*AltinCaves_mvl/mxv
 BYTE   W01
 BYTE   VOL   19*AltinCaves_mvl/mxv
 BYTE   W01
 BYTE   VOL   20*AltinCaves_mvl/mxv
 BYTE   N03  An3  v100
 BYTE   N03  Fs4
 BYTE   N03  Cs3
 BYTE   W01
 BYTE   VOL   21*AltinCaves_mvl/mxv
 BYTE   W01
 BYTE   VOL   22*AltinCaves_mvl/mxv
 BYTE   W01
 BYTE   VOL   23*AltinCaves_mvl/mxv
 BYTE   W01
 BYTE   VOL   23*AltinCaves_mvl/mxv
 BYTE   W01
 BYTE   VOL   24*AltinCaves_mvl/mxv
 BYTE   W01
 BYTE   VOL   25*AltinCaves_mvl/mxv
 BYTE   W01
 BYTE   PATT
  POIN2 Label_1_0B17
 BYTE   PATT
  POIN2 Label_1_0B7D
 BYTE   PATT
  POIN2 Label_1_0BE3
 BYTE   PATT
  POIN2 Label_1_0C49
 BYTE   PATT
  POIN2 Label_1_0CAF
// 029   ----------------------------------------
Label_1_4733:
 BYTE   VOL   13*AltinCaves_mvl/mxv
 BYTE   W02
 BYTE   VOL   13*AltinCaves_mvl/mxv
 BYTE   N96  Gn3  v100
 BYTE   N96  En4
 BYTE   N96  Bn2
 BYTE   W01
 BYTE   VOL   14*AltinCaves_mvl/mxv
 BYTE   W02
 BYTE   VOL   15*AltinCaves_mvl/mxv
 BYTE   W01
 BYTE   VOL   16*AltinCaves_mvl/mxv
 BYTE   W02
 BYTE   VOL   16*AltinCaves_mvl/mxv
 BYTE   W01
 BYTE   VOL   17*AltinCaves_mvl/mxv
 BYTE   W02
 BYTE   VOL   18*AltinCaves_mvl/mxv
 BYTE   W02
 BYTE   VOL   19*AltinCaves_mvl/mxv
 BYTE   W01
 BYTE   VOL   19*AltinCaves_mvl/mxv
 BYTE   W02
 BYTE   PEND 
// 030   ----------------------------------------
 BYTE   VOL   20*AltinCaves_mvl/mxv
 BYTE   W01
 BYTE   VOL   21*AltinCaves_mvl/mxv
 BYTE   N44  En4  v100
 BYTE   N44  Bn2
 BYTE   N44  Gn3
 BYTE   W01
 BYTE   VOL   22*AltinCaves_mvl/mxv
 BYTE   W02
 BYTE   VOL   23*AltinCaves_mvl/mxv
 BYTE   W01
 BYTE   VOL   23*AltinCaves_mvl/mxv
 BYTE   W02
 BYTE   VOL   24*AltinCaves_mvl/mxv
 BYTE   W01
 BYTE   VOL   25*AltinCaves_mvl/mxv
 BYTE   N03  Gn3  v100
 BYTE   N03  En4
 BYTE   N03  Bn2
 BYTE   W02
 BYTE   VOL   26*AltinCaves_mvl/mxv
 BYTE   W01
 BYTE   VOL   27*AltinCaves_mvl/mxv
 BYTE   W02
 BYTE   VOL   28*AltinCaves_mvl/mxv
 BYTE   W02
 BYTE   PATT
  POIN2 Label_1_10A3
 BYTE   PATT
  POIN2 Label_1_110C
 BYTE   PATT
  POIN2 Label_1_116C
 BYTE   PATT
  POIN2 Label_1_11CC
 BYTE   PATT
  POIN2 Label_1_1235
 BYTE   PATT
  POIN2 Label_1_1572
// 031   ----------------------------------------
 BYTE   VOL   16*AltinCaves_mvl/mxv
 BYTE   W01
 BYTE   VOL   17*AltinCaves_mvl/mxv
 BYTE   W01
 BYTE   VOL   18*AltinCaves_mvl/mxv
 BYTE   W01
 BYTE   N44  Fs4  v100
 BYTE   N44  Cs3
 BYTE   N44  An3
 BYTE   VOL   19*AltinCaves_mvl/mxv
 BYTE   W01
 BYTE   VOL   19*AltinCaves_mvl/mxv
 BYTE   W01
 BYTE   VOL   20*AltinCaves_mvl/mxv
 BYTE   W01
 BYTE   VOL   21*AltinCaves_mvl/mxv
 BYTE   W01
 BYTE   VOL   22*AltinCaves_mvl/mxv
 BYTE   W01
 BYTE   VOL   23*AltinCaves_mvl/mxv
 BYTE   N03  Fs4  v100
 BYTE   N03  Cs3
 BYTE   N03  An3
 BYTE   W01
 BYTE   VOL   23*AltinCaves_mvl/mxv
 BYTE   W01
 BYTE   VOL   24*AltinCaves_mvl/mxv
 BYTE   W01
 BYTE   VOL   25*AltinCaves_mvl/mxv
 BYTE   W01
 BYTE   PATT
  POIN2 Label_1_0B17
 BYTE   PATT
  POIN2 Label_1_0B7D
 BYTE   PATT
  POIN2 Label_1_0BE3
 BYTE   PATT
  POIN2 Label_1_0C49
 BYTE   PATT
  POIN2 Label_1_17D6
 BYTE   PATT
  POIN2 Label_1_1B12
 BYTE   PATT
  POIN2 Label_1_1B78
 BYTE   PATT
  POIN2 Label_1_0B17
 BYTE   PATT
  POIN2 Label_1_0B7D
 BYTE   PATT
  POIN2 Label_1_0BE3
 BYTE   PATT
  POIN2 Label_1_0C49
 BYTE   PATT
  POIN2 Label_1_1D76
// 032   ----------------------------------------
Label_1_6360:
 BYTE   VOL   8*AltinCaves_mvl/mxv
 BYTE   N96  Cs3  v100
 BYTE   N96  Fs4
 BYTE   N96  An3
 BYTE   W01
 BYTE   VOL   9*AltinCaves_mvl/mxv
 BYTE   W01
 BYTE   VOL   10*AltinCaves_mvl/mxv
 BYTE   W01
 BYTE   VOL   10*AltinCaves_mvl/mxv
 BYTE   W01
 BYTE   VOL   11*AltinCaves_mvl/mxv
 BYTE   W01
 BYTE   VOL   11*AltinCaves_mvl/mxv
 BYTE   W01
 BYTE   VOL   12*AltinCaves_mvl/mxv
 BYTE   W01
 BYTE   VOL   13*AltinCaves_mvl/mxv
 BYTE   W01
 BYTE   VOL   13*AltinCaves_mvl/mxv
 BYTE   W01
 BYTE   VOL   14*AltinCaves_mvl/mxv
 BYTE   W01
 BYTE   VOL   15*AltinCaves_mvl/mxv
 BYTE   W01
 BYTE   VOL   16*AltinCaves_mvl/mxv
 BYTE   N44  Fs4  v100
 BYTE   N44  An3
 BYTE   N44  Cs3
 BYTE   W01
 BYTE   PEND 
// 033   ----------------------------------------
Label_1_63C6:
 BYTE   VOL   16*AltinCaves_mvl/mxv
 BYTE   W01
 BYTE   VOL   17*AltinCaves_mvl/mxv
 BYTE   W01
 BYTE   VOL   18*AltinCaves_mvl/mxv
 BYTE   W01
 BYTE   VOL   19*AltinCaves_mvl/mxv
 BYTE   W01
 BYTE   VOL   19*AltinCaves_mvl/mxv
 BYTE   N03  An3  v100
 BYTE   N03  Cs3
 BYTE   N03  Fs4
 BYTE   W01
 BYTE   VOL   20*AltinCaves_mvl/mxv
 BYTE   W01
 BYTE   VOL   21*AltinCaves_mvl/mxv
 BYTE   W01
 BYTE   VOL   22*AltinCaves_mvl/mxv
 BYTE   W01
 BYTE   VOL   23*AltinCaves_mvl/mxv
 BYTE   W01
 BYTE   VOL   23*AltinCaves_mvl/mxv
 BYTE   W01
 BYTE   VOL   24*AltinCaves_mvl/mxv
 BYTE   W01
 BYTE   VOL   25*AltinCaves_mvl/mxv
 BYTE   W01
 BYTE   PEND 
 BYTE   PATT
  POIN2 Label_1_0B17
 BYTE   PATT
  POIN2 Label_1_0B7D
 BYTE   PATT
  POIN2 Label_1_0BE3
 BYTE   PATT
  POIN2 Label_1_0C49
 BYTE   PATT
  POIN2 Label_1_2E74
 BYTE   PATT
  POIN2 Label_1_1B12
// 034   ----------------------------------------
 BYTE   VOL   16*AltinCaves_mvl/mxv
 BYTE   W01
 BYTE   VOL   17*AltinCaves_mvl/mxv
 BYTE   W01
 BYTE   VOL   18*AltinCaves_mvl/mxv
 BYTE   W01
 BYTE   N44  Gn3  v100
 BYTE   N44  Bn2
 BYTE   N44  En4
 BYTE   VOL   19*AltinCaves_mvl/mxv
 BYTE   W01
 BYTE   VOL   19*AltinCaves_mvl/mxv
 BYTE   W01
 BYTE   VOL   20*AltinCaves_mvl/mxv
 BYTE   W01
 BYTE   VOL   21*AltinCaves_mvl/mxv
 BYTE   W01
 BYTE   VOL   22*AltinCaves_mvl/mxv
 BYTE   W01
 BYTE   VOL   23*AltinCaves_mvl/mxv
 BYTE   N03  Gn3  v100
 BYTE   N03  En4
 BYTE   N03  Bn2
 BYTE   W01
 BYTE   VOL   23*AltinCaves_mvl/mxv
 BYTE   W01
 BYTE   VOL   24*AltinCaves_mvl/mxv
 BYTE   W01
 BYTE   VOL   25*AltinCaves_mvl/mxv
 BYTE   W01
 BYTE   PATT
  POIN2 Label_1_0B17
 BYTE   PATT
  POIN2 Label_1_0B7D
 BYTE   PATT
  POIN2 Label_1_0BE3
 BYTE   PATT
  POIN2 Label_1_0C49
 BYTE   PATT
  POIN2 Label_1_33F6
// 035   ----------------------------------------
 BYTE   VOL   8*AltinCaves_mvl/mxv
 BYTE   W01
 BYTE   N96  An3  v100
 BYTE   N96  Fs4
 BYTE   N96  Cs3
 BYTE   VOL   9*AltinCaves_mvl/mxv
 BYTE   W01
 BYTE   VOL   10*AltinCaves_mvl/mxv
 BYTE   W01
 BYTE   VOL   10*AltinCaves_mvl/mxv
 BYTE   W01
 BYTE   VOL   11*AltinCaves_mvl/mxv
 BYTE   W01
 BYTE   VOL   11*AltinCaves_mvl/mxv
 BYTE   W01
 BYTE   VOL   12*AltinCaves_mvl/mxv
 BYTE   W01
 BYTE   VOL   13*AltinCaves_mvl/mxv
 BYTE   W01
 BYTE   VOL   13*AltinCaves_mvl/mxv
 BYTE   W01
 BYTE   VOL   14*AltinCaves_mvl/mxv
 BYTE   W01
 BYTE   VOL   15*AltinCaves_mvl/mxv
 BYTE   W01
 BYTE   VOL   16*AltinCaves_mvl/mxv
 BYTE   W01
 BYTE   N44  Cs3  v100
 BYTE   N44  Fs4
 BYTE   N44  An3
// 036   ----------------------------------------
 BYTE   VOL   16*AltinCaves_mvl/mxv
 BYTE   W01
 BYTE   VOL   17*AltinCaves_mvl/mxv
 BYTE   W01
 BYTE   VOL   18*AltinCaves_mvl/mxv
 BYTE   W01
 BYTE   VOL   19*AltinCaves_mvl/mxv
 BYTE   W01
 BYTE   VOL   19*AltinCaves_mvl/mxv
 BYTE   W01
 BYTE   VOL   20*AltinCaves_mvl/mxv
 BYTE   N03  Cs3  v100
 BYTE   N03  An3
 BYTE   N03  Fs4
 BYTE   W01
 BYTE   VOL   21*AltinCaves_mvl/mxv
 BYTE   W01
 BYTE   VOL   22*AltinCaves_mvl/mxv
 BYTE   W01
 BYTE   VOL   23*AltinCaves_mvl/mxv
 BYTE   W01
 BYTE   VOL   23*AltinCaves_mvl/mxv
 BYTE   W01
 BYTE   VOL   24*AltinCaves_mvl/mxv
 BYTE   W01
 BYTE   VOL   25*AltinCaves_mvl/mxv
 BYTE   W01
 BYTE   PATT
  POIN2 Label_1_0B17
 BYTE   PATT
  POIN2 Label_1_0B7D
 BYTE   PATT
  POIN2 Label_1_0BE3
 BYTE   PATT
  POIN2 Label_1_0C49
 BYTE   PATT
  POIN2 Label_1_0CAF
 BYTE   PATT
  POIN2 Label_1_4733
// 037   ----------------------------------------
 BYTE   VOL   20*AltinCaves_mvl/mxv
 BYTE   W01
 BYTE   VOL   21*AltinCaves_mvl/mxv
 BYTE   N44  Bn2  v100
 BYTE   N44  En4
 BYTE   N44  Gn3
 BYTE   W01
 BYTE   VOL   22*AltinCaves_mvl/mxv
 BYTE   W02
 BYTE   VOL   23*AltinCaves_mvl/mxv
 BYTE   W01
 BYTE   VOL   23*AltinCaves_mvl/mxv
 BYTE   W02
 BYTE   VOL   24*AltinCaves_mvl/mxv
 BYTE   W01
 BYTE   VOL   25*AltinCaves_mvl/mxv
 BYTE   N03  Bn2  v100
 BYTE   N03  En4
 BYTE   N03  Gn3
 BYTE   W02
 BYTE   VOL   26*AltinCaves_mvl/mxv
 BYTE   W01
 BYTE   VOL   27*AltinCaves_mvl/mxv
 BYTE   W02
 BYTE   VOL   28*AltinCaves_mvl/mxv
 BYTE   W02
 BYTE   PATT
  POIN2 Label_1_10A3
 BYTE   PATT
  POIN2 Label_1_110C
 BYTE   PATT
  POIN2 Label_1_116C
 BYTE   PATT
  POIN2 Label_1_11CC
 BYTE   PATT
  POIN2 Label_1_1235
 BYTE   PATT
  POIN2 Label_1_1572
// 038   ----------------------------------------
 BYTE   VOL   16*AltinCaves_mvl/mxv
 BYTE   W01
 BYTE   VOL   17*AltinCaves_mvl/mxv
 BYTE   W01
 BYTE   VOL   18*AltinCaves_mvl/mxv
 BYTE   W01
 BYTE   N44  Fs4  v100
 BYTE   N44  An3
 BYTE   N44  Cs3
 BYTE   VOL   19*AltinCaves_mvl/mxv
 BYTE   W01
 BYTE   VOL   19*AltinCaves_mvl/mxv
 BYTE   W01
 BYTE   VOL   20*AltinCaves_mvl/mxv
 BYTE   W01
 BYTE   VOL   21*AltinCaves_mvl/mxv
 BYTE   W01
 BYTE   VOL   22*AltinCaves_mvl/mxv
 BYTE   W01
 BYTE   VOL   23*AltinCaves_mvl/mxv
 BYTE   N03  Cs3  v100
 BYTE   N03  An3
 BYTE   N03  Fs4
 BYTE   W01
 BYTE   VOL   23*AltinCaves_mvl/mxv
 BYTE   W01
 BYTE   VOL   24*AltinCaves_mvl/mxv
 BYTE   W01
 BYTE   VOL   25*AltinCaves_mvl/mxv
 BYTE   W01
 BYTE   PATT
  POIN2 Label_1_0B17
 BYTE   PATT
  POIN2 Label_1_0B7D
 BYTE   PATT
  POIN2 Label_1_0BE3
 BYTE   PATT
  POIN2 Label_1_0C49
 BYTE   PATT
  POIN2 Label_1_17D6
 BYTE   PATT
  POIN2 Label_1_1B12
// 039   ----------------------------------------
 BYTE   VOL   16*AltinCaves_mvl/mxv
 BYTE   W01
 BYTE   VOL   17*AltinCaves_mvl/mxv
 BYTE   W01
 BYTE   VOL   18*AltinCaves_mvl/mxv
 BYTE   W01
 BYTE   N44  Gn3  v100
 BYTE   N44  Bn2
 BYTE   N44  En4
 BYTE   VOL   19*AltinCaves_mvl/mxv
 BYTE   W01
 BYTE   VOL   19*AltinCaves_mvl/mxv
 BYTE   W01
 BYTE   VOL   20*AltinCaves_mvl/mxv
 BYTE   W01
 BYTE   VOL   21*AltinCaves_mvl/mxv
 BYTE   W01
 BYTE   VOL   22*AltinCaves_mvl/mxv
 BYTE   W01
 BYTE   VOL   23*AltinCaves_mvl/mxv
 BYTE   N03  Bn2  v100
 BYTE   N03  Gn3
 BYTE   N03  En4
 BYTE   W01
 BYTE   VOL   23*AltinCaves_mvl/mxv
 BYTE   W01
 BYTE   VOL   24*AltinCaves_mvl/mxv
 BYTE   W01
 BYTE   VOL   25*AltinCaves_mvl/mxv
 BYTE   W01
 BYTE   PATT
  POIN2 Label_1_0B17
 BYTE   PATT
  POIN2 Label_1_0B7D
 BYTE   PATT
  POIN2 Label_1_0BE3
 BYTE   PATT
  POIN2 Label_1_0C49
 BYTE   PATT
  POIN2 Label_1_1D76
 BYTE   PATT
  POIN2 Label_1_6360
 BYTE   PATT
  POIN2 Label_1_63C6
 BYTE   PATT
  POIN2 Label_1_0B17
 BYTE   PATT
  POIN2 Label_1_0B7D
 BYTE   PATT
  POIN2 Label_1_0BE3
 BYTE   PATT
  POIN2 Label_1_0C49
 BYTE   PATT
  POIN2 Label_1_2E74
 BYTE   PATT
  POIN2 Label_1_1B12
// 040   ----------------------------------------
Label_1_A098:
 BYTE   VOL   16*AltinCaves_mvl/mxv
 BYTE   W01
 BYTE   VOL   17*AltinCaves_mvl/mxv
 BYTE   W01
 BYTE   VOL   18*AltinCaves_mvl/mxv
 BYTE   W01
 BYTE   N44  Bn2  v100
 BYTE   N44  En4
 BYTE   N44  Gn3
 BYTE   VOL   19*AltinCaves_mvl/mxv
 BYTE   W01
 BYTE   VOL   19*AltinCaves_mvl/mxv
 BYTE   W01
 BYTE   VOL   20*AltinCaves_mvl/mxv
 BYTE   W01
 BYTE   VOL   21*AltinCaves_mvl/mxv
 BYTE   W01
 BYTE   VOL   22*AltinCaves_mvl/mxv
 BYTE   W01
 BYTE   VOL   23*AltinCaves_mvl/mxv
 BYTE   N03  Gn3  v100
 BYTE   N03  En4
 BYTE   N03  Bn2
 BYTE   W01
 BYTE   VOL   23*AltinCaves_mvl/mxv
 BYTE   W01
 BYTE   VOL   24*AltinCaves_mvl/mxv
 BYTE   W01
 BYTE   VOL   25*AltinCaves_mvl/mxv
 BYTE   W01
 BYTE   PEND 
 BYTE   PATT
  POIN2 Label_1_0B17
 BYTE   PATT
  POIN2 Label_1_0B7D
 BYTE   PATT
  POIN2 Label_1_0BE3
 BYTE   PATT
  POIN2 Label_1_0C49
 BYTE   PATT
  POIN2 Label_1_33F6
// 041   ----------------------------------------
 BYTE   VOL   8*AltinCaves_mvl/mxv
 BYTE   W01
 BYTE   N96  An3  v100
 BYTE   N96  Cs3
 BYTE   N96  Fs4
 BYTE   VOL   9*AltinCaves_mvl/mxv
 BYTE   W01
 BYTE   VOL   10*AltinCaves_mvl/mxv
 BYTE   W01
 BYTE   VOL   10*AltinCaves_mvl/mxv
 BYTE   W01
 BYTE   VOL   11*AltinCaves_mvl/mxv
 BYTE   W01
 BYTE   VOL   11*AltinCaves_mvl/mxv
 BYTE   W01
 BYTE   VOL   12*AltinCaves_mvl/mxv
 BYTE   W01
 BYTE   VOL   13*AltinCaves_mvl/mxv
 BYTE   W01
 BYTE   VOL   13*AltinCaves_mvl/mxv
 BYTE   W01
 BYTE   VOL   14*AltinCaves_mvl/mxv
 BYTE   W01
 BYTE   VOL   15*AltinCaves_mvl/mxv
 BYTE   W01
 BYTE   VOL   16*AltinCaves_mvl/mxv
 BYTE   W01
 BYTE   N44  Cs3  v100
 BYTE   N44  Fs4
 BYTE   N44  An3
 BYTE   PATT
  POIN2 Label_1_0AB1
 BYTE   PATT
  POIN2 Label_1_0B17
 BYTE   PATT
  POIN2 Label_1_0B7D
 BYTE   PATT
  POIN2 Label_1_0BE3
 BYTE   PATT
  POIN2 Label_1_0C49
 BYTE   PATT
  POIN2 Label_1_0CAF
 BYTE   PATT
  POIN2 Label_1_4733
// 042   ----------------------------------------
 BYTE   VOL   20*AltinCaves_mvl/mxv
 BYTE   W01
 BYTE   VOL   21*AltinCaves_mvl/mxv
 BYTE   N44  En4  v100
 BYTE   N44  Gn3
 BYTE   N44  Bn2
 BYTE   W01
 BYTE   VOL   22*AltinCaves_mvl/mxv
 BYTE   W02
 BYTE   VOL   23*AltinCaves_mvl/mxv
 BYTE   W01
 BYTE   VOL   23*AltinCaves_mvl/mxv
 BYTE   W02
 BYTE   VOL   24*AltinCaves_mvl/mxv
 BYTE   W01
 BYTE   VOL   25*AltinCaves_mvl/mxv
 BYTE   N03  En4  v100
 BYTE   N03  Gn3
 BYTE   N03  Bn2
 BYTE   W02
 BYTE   VOL   26*AltinCaves_mvl/mxv
 BYTE   W01
 BYTE   VOL   27*AltinCaves_mvl/mxv
 BYTE   W02
 BYTE   VOL   28*AltinCaves_mvl/mxv
 BYTE   W02
 BYTE   PATT
  POIN2 Label_1_10A3
 BYTE   PATT
  POIN2 Label_1_110C
 BYTE   PATT
  POIN2 Label_1_116C
 BYTE   PATT
  POIN2 Label_1_11CC
 BYTE   PATT
  POIN2 Label_1_1235
// 043   ----------------------------------------
 BYTE   VOL   8*AltinCaves_mvl/mxv
 BYTE   W01
 BYTE   VOL   9*AltinCaves_mvl/mxv
 BYTE   W01
 BYTE   VOL   10*AltinCaves_mvl/mxv
 BYTE   W01
 BYTE   VOL   10*AltinCaves_mvl/mxv
 BYTE   N96  An3  v100
 BYTE   N96  Fs4
 BYTE   N96  Cs3
 BYTE   VOL   11*AltinCaves_mvl/mxv
 BYTE   W01
 BYTE   VOL   11*AltinCaves_mvl/mxv
 BYTE   W01
 BYTE   VOL   12*AltinCaves_mvl/mxv
 BYTE   W01
 BYTE   VOL   13*AltinCaves_mvl/mxv
 BYTE   W01
 BYTE   VOL   13*AltinCaves_mvl/mxv
 BYTE   W01
 BYTE   VOL   14*AltinCaves_mvl/mxv
 BYTE   W01
 BYTE   VOL   15*AltinCaves_mvl/mxv
 BYTE   W01
 BYTE   VOL   16*AltinCaves_mvl/mxv
 BYTE   W01
// 044   ----------------------------------------
 BYTE   VOL   16*AltinCaves_mvl/mxv
 BYTE   W01
 BYTE   VOL   17*AltinCaves_mvl/mxv
 BYTE   W01
 BYTE   VOL   18*AltinCaves_mvl/mxv
 BYTE   W01
 BYTE   N44  Fs4  v100
 BYTE   N44  An3
 BYTE   N44  Cs3
 BYTE   VOL   19*AltinCaves_mvl/mxv
 BYTE   W01
 BYTE   VOL   19*AltinCaves_mvl/mxv
 BYTE   W01
 BYTE   VOL   20*AltinCaves_mvl/mxv
 BYTE   W01
 BYTE   VOL   21*AltinCaves_mvl/mxv
 BYTE   W01
 BYTE   VOL   22*AltinCaves_mvl/mxv
 BYTE   W01
 BYTE   VOL   23*AltinCaves_mvl/mxv
 BYTE   N03  An3  v100
 BYTE   N03  Fs4
 BYTE   N03  Cs3
 BYTE   W01
 BYTE   VOL   23*AltinCaves_mvl/mxv
 BYTE   W01
 BYTE   VOL   24*AltinCaves_mvl/mxv
 BYTE   W01
 BYTE   VOL   25*AltinCaves_mvl/mxv
 BYTE   W01
 BYTE   PATT
  POIN2 Label_1_0B17
 BYTE   PATT
  POIN2 Label_1_0B7D
 BYTE   PATT
  POIN2 Label_1_0BE3
 BYTE   PATT
  POIN2 Label_1_0C49
 BYTE   PATT
  POIN2 Label_1_17D6
// 045   ----------------------------------------
Label_1_C102:
 BYTE   VOL   8*AltinCaves_mvl/mxv
 BYTE   W01
 BYTE   VOL   9*AltinCaves_mvl/mxv
 BYTE   W01
 BYTE   VOL   10*AltinCaves_mvl/mxv
 BYTE   W01
 BYTE   VOL   10*AltinCaves_mvl/mxv
 BYTE   N96  Gn3  v100
 BYTE   N96  Bn2
 BYTE   N96  En4
 BYTE   VOL   11*AltinCaves_mvl/mxv
 BYTE   W01
 BYTE   VOL   11*AltinCaves_mvl/mxv
 BYTE   W01
 BYTE   VOL   12*AltinCaves_mvl/mxv
 BYTE   W01
 BYTE   VOL   13*AltinCaves_mvl/mxv
 BYTE   W01
 BYTE   VOL   13*AltinCaves_mvl/mxv
 BYTE   W01
 BYTE   VOL   14*AltinCaves_mvl/mxv
 BYTE   W01
 BYTE   VOL   15*AltinCaves_mvl/mxv
 BYTE   W01
 BYTE   VOL   16*AltinCaves_mvl/mxv
 BYTE   W01
 BYTE   PEND 
// 046   ----------------------------------------
 BYTE   VOL   16*AltinCaves_mvl/mxv
 BYTE   W01
 BYTE   VOL   17*AltinCaves_mvl/mxv
 BYTE   W01
 BYTE   VOL   18*AltinCaves_mvl/mxv
 BYTE   W01
 BYTE   N44  En4  v100
 BYTE   N44  Bn2
 BYTE   N44  Gn3
 BYTE   VOL   19*AltinCaves_mvl/mxv
 BYTE   W01
 BYTE   VOL   19*AltinCaves_mvl/mxv
 BYTE   W01
 BYTE   VOL   20*AltinCaves_mvl/mxv
 BYTE   W01
 BYTE   VOL   21*AltinCaves_mvl/mxv
 BYTE   W01
 BYTE   VOL   22*AltinCaves_mvl/mxv
 BYTE   W01
 BYTE   VOL   23*AltinCaves_mvl/mxv
 BYTE   N03  En4  v100
 BYTE   N03  Bn2
 BYTE   N03  Gn3
 BYTE   W01
 BYTE   VOL   23*AltinCaves_mvl/mxv
 BYTE   W01
 BYTE   VOL   24*AltinCaves_mvl/mxv
 BYTE   W01
 BYTE   VOL   25*AltinCaves_mvl/mxv
 BYTE   W01
 BYTE   PATT
  POIN2 Label_1_0B17
 BYTE   PATT
  POIN2 Label_1_0B7D
 BYTE   PATT
  POIN2 Label_1_0BE3
 BYTE   PATT
  POIN2 Label_1_0C49
 BYTE   PATT
  POIN2 Label_1_1D76
 BYTE   PATT
  POIN2 Label_1_6360
 BYTE   PATT
  POIN2 Label_1_63C6
 BYTE   PATT
  POIN2 Label_1_0B17
 BYTE   PATT
  POIN2 Label_1_0B7D
 BYTE   PATT
  POIN2 Label_1_0BE3
 BYTE   PATT
  POIN2 Label_1_0C49
 BYTE   PATT
  POIN2 Label_1_2E74
 BYTE   PATT
  POIN2 Label_1_C102
 BYTE   PATT
  POIN2 Label_1_A098
 BYTE   PATT
  POIN2 Label_1_0B17
 BYTE   PATT
  POIN2 Label_1_0B7D
 BYTE   PATT
  POIN2 Label_1_0BE3
 BYTE   PATT
  POIN2 Label_1_0C49
 BYTE   PATT
  POIN2 Label_1_33F6
 BYTE   PATT
  POIN2 Label_1_0A4B
// 047   ----------------------------------------
 BYTE   VOL   16*AltinCaves_mvl/mxv
 BYTE   W01
 BYTE   VOL   17*AltinCaves_mvl/mxv
 BYTE   W01
 BYTE   VOL   18*AltinCaves_mvl/mxv
 BYTE   W01
 BYTE   VOL   19*AltinCaves_mvl/mxv
 BYTE   W01
 BYTE   VOL   19*AltinCaves_mvl/mxv
 BYTE   W01
 BYTE   VOL   20*AltinCaves_mvl/mxv
 BYTE   N03  Fs4  v100
 BYTE   N03  Cs3
 BYTE   N03  An3
 BYTE   W01
 BYTE   VOL   21*AltinCaves_mvl/mxv
 BYTE   W01
 BYTE   VOL   22*AltinCaves_mvl/mxv
 BYTE   W01
 BYTE   VOL   23*AltinCaves_mvl/mxv
 BYTE   W01
 BYTE   VOL   23*AltinCaves_mvl/mxv
 BYTE   W01
 BYTE   VOL   24*AltinCaves_mvl/mxv
 BYTE   W01
 BYTE   VOL   25*AltinCaves_mvl/mxv
 BYTE   W01
 BYTE   PATT
  POIN2 Label_1_0B17
 BYTE   PATT
  POIN2 Label_1_0B7D
 BYTE   PATT
  POIN2 Label_1_0BE3
 BYTE   PATT
  POIN2 Label_1_0C49
 BYTE   PATT
  POIN2 Label_1_0CAF
 BYTE   PATT
  POIN2 Label_1_0FE3
// 048   ----------------------------------------
 BYTE   VOL   20*AltinCaves_mvl/mxv
 BYTE   W01
 BYTE   VOL   21*AltinCaves_mvl/mxv
 BYTE   N44  En4  v100
 BYTE   N44  Bn2
 BYTE   N44  Gn3
 BYTE   W01
 BYTE   VOL   22*AltinCaves_mvl/mxv
 BYTE   W02
 BYTE   VOL   23*AltinCaves_mvl/mxv
 BYTE   W01
 BYTE   VOL   23*AltinCaves_mvl/mxv
 BYTE   W02
 BYTE   VOL   24*AltinCaves_mvl/mxv
 BYTE   W01
 BYTE   VOL   25*AltinCaves_mvl/mxv
 BYTE   N03  Bn2  v100
 BYTE   N03  Gn3
 BYTE   N03  En4
 BYTE   W02
 BYTE   VOL   26*AltinCaves_mvl/mxv
 BYTE   W01
 BYTE   VOL   27*AltinCaves_mvl/mxv
 BYTE   W02
 BYTE   VOL   28*AltinCaves_mvl/mxv
 BYTE   W02
 BYTE   PATT
  POIN2 Label_1_10A3
 BYTE   PATT
  POIN2 Label_1_110C
 BYTE   PATT
  POIN2 Label_1_116C
 BYTE   PATT
  POIN2 Label_1_11CC
 BYTE   PATT
  POIN2 Label_1_1235
 BYTE   PATT
  POIN2 Label_1_1572
// 049   ----------------------------------------
 BYTE   VOL   16*AltinCaves_mvl/mxv
 BYTE   W01
 BYTE   VOL   17*AltinCaves_mvl/mxv
 BYTE   W01
 BYTE   VOL   18*AltinCaves_mvl/mxv
 BYTE   W01
 BYTE   N44  An3  v100
 BYTE   N44  Cs3
 BYTE   N44  Fs4
 BYTE   VOL   19*AltinCaves_mvl/mxv
 BYTE   W01
 BYTE   VOL   19*AltinCaves_mvl/mxv
 BYTE   W01
 BYTE   VOL   20*AltinCaves_mvl/mxv
 BYTE   W01
 BYTE   VOL   21*AltinCaves_mvl/mxv
 BYTE   W01
 BYTE   VOL   22*AltinCaves_mvl/mxv
 BYTE   W01
 BYTE   VOL   23*AltinCaves_mvl/mxv
 BYTE   N03  Fs4  v100
 BYTE   N03  An3
 BYTE   N03  Cs3
 BYTE   W01
 BYTE   VOL   23*AltinCaves_mvl/mxv
 BYTE   W01
 BYTE   VOL   24*AltinCaves_mvl/mxv
 BYTE   W01
 BYTE   VOL   25*AltinCaves_mvl/mxv
 BYTE   W01
 BYTE   PATT
  POIN2 Label_1_0B17
 BYTE   PATT
  POIN2 Label_1_0B7D
 BYTE   PATT
  POIN2 Label_1_0BE3
 BYTE   PATT
  POIN2 Label_1_0C49
 BYTE   PATT
  POIN2 Label_1_17D6
// 050   ----------------------------------------
 BYTE   VOL   8*AltinCaves_mvl/mxv
 BYTE   W01
 BYTE   VOL   9*AltinCaves_mvl/mxv
 BYTE   W01
 BYTE   VOL   10*AltinCaves_mvl/mxv
 BYTE   W01
 BYTE   VOL   10*AltinCaves_mvl/mxv
 BYTE   N96  En4  v100
 BYTE   N96  Bn2
 BYTE   N96  Gn3
 BYTE   VOL   11*AltinCaves_mvl/mxv
 BYTE   W01
 BYTE   VOL   11*AltinCaves_mvl/mxv
 BYTE   W01
 BYTE   VOL   12*AltinCaves_mvl/mxv
 BYTE   W01
 BYTE   VOL   13*AltinCaves_mvl/mxv
 BYTE   W01
 BYTE   VOL   13*AltinCaves_mvl/mxv
 BYTE   W01
 BYTE   VOL   14*AltinCaves_mvl/mxv
 BYTE   W01
 BYTE   VOL   15*AltinCaves_mvl/mxv
 BYTE   W01
 BYTE   VOL   16*AltinCaves_mvl/mxv
 BYTE   W01
// 051   ----------------------------------------
 BYTE   VOL   16*AltinCaves_mvl/mxv
 BYTE   W01
 BYTE   VOL   17*AltinCaves_mvl/mxv
 BYTE   W01
 BYTE   VOL   18*AltinCaves_mvl/mxv
 BYTE   W01
 BYTE   N44  Gn3  v100
 BYTE   N44  En4
 BYTE   N44  Bn2
 BYTE   VOL   19*AltinCaves_mvl/mxv
 BYTE   W01
 BYTE   VOL   19*AltinCaves_mvl/mxv
 BYTE   W01
 BYTE   VOL   20*AltinCaves_mvl/mxv
 BYTE   W01
 BYTE   VOL   21*AltinCaves_mvl/mxv
 BYTE   W01
 BYTE   VOL   22*AltinCaves_mvl/mxv
 BYTE   W01
 BYTE   VOL   23*AltinCaves_mvl/mxv
 BYTE   N03  Gn3  v100
 BYTE   N03  En4
 BYTE   N03  Bn2
 BYTE   W01
 BYTE   VOL   23*AltinCaves_mvl/mxv
 BYTE   W01
 BYTE   VOL   24*AltinCaves_mvl/mxv
 BYTE   W01
 BYTE   VOL   25*AltinCaves_mvl/mxv
 BYTE   W01
 BYTE   PATT
  POIN2 Label_1_0B17
 BYTE   PATT
  POIN2 Label_1_0B7D
 BYTE   PATT
  POIN2 Label_1_0BE3
 BYTE   PATT
  POIN2 Label_1_0C49
 BYTE   PATT
  POIN2 Label_1_1D76
// 052   ----------------------------------------
 BYTE   VOL   8*AltinCaves_mvl/mxv
 BYTE   N96  Cs3  v100
 BYTE   N96  Fs4
 BYTE   N96  An3
 BYTE   W01
 BYTE   VOL   9*AltinCaves_mvl/mxv
 BYTE   W01
 BYTE   VOL   10*AltinCaves_mvl/mxv
 BYTE   W01
 BYTE   VOL   10*AltinCaves_mvl/mxv
 BYTE   W01
 BYTE   VOL   11*AltinCaves_mvl/mxv
 BYTE   W01
 BYTE   VOL   11*AltinCaves_mvl/mxv
 BYTE   W01
 BYTE   VOL   12*AltinCaves_mvl/mxv
 BYTE   W01
 BYTE   VOL   13*AltinCaves_mvl/mxv
 BYTE   W01
 BYTE   VOL   13*AltinCaves_mvl/mxv
 BYTE   W01
 BYTE   VOL   14*AltinCaves_mvl/mxv
 BYTE   W01
 BYTE   VOL   15*AltinCaves_mvl/mxv
 BYTE   W01
 BYTE   VOL   16*AltinCaves_mvl/mxv
 BYTE   N44  Cs3  v100
 BYTE   N44  Fs4
 BYTE   N44  An3
 BYTE   W01
 BYTE   PATT
  POIN2 Label_1_2C76
 BYTE   PATT
  POIN2 Label_1_0B17
 BYTE   PATT
  POIN2 Label_1_0B7D
 BYTE   PATT
  POIN2 Label_1_0BE3
 BYTE   PATT
  POIN2 Label_1_0C49
 BYTE   PATT
  POIN2 Label_1_2E74
 BYTE   PATT
  POIN2 Label_1_C102
// 053   ----------------------------------------
Label_1_010F38:
 BYTE   VOL   16*AltinCaves_mvl/mxv
 BYTE   W01
 BYTE   VOL   17*AltinCaves_mvl/mxv
 BYTE   W01
 BYTE   VOL   18*AltinCaves_mvl/mxv
 BYTE   W01
 BYTE   N44  Gn3  v100
 BYTE   N44  En4
 BYTE   N44  Bn2
 BYTE   VOL   19*AltinCaves_mvl/mxv
 BYTE   W01
 BYTE   VOL   19*AltinCaves_mvl/mxv
 BYTE   W01
 BYTE   VOL   20*AltinCaves_mvl/mxv
 BYTE   W01
 BYTE   VOL   21*AltinCaves_mvl/mxv
 BYTE   W01
 BYTE   VOL   22*AltinCaves_mvl/mxv
 BYTE   W01
 BYTE   VOL   23*AltinCaves_mvl/mxv
 BYTE   N03  Gn3  v100
 BYTE   N03  Bn2
 BYTE   N03  En4
 BYTE   W01
 BYTE   VOL   23*AltinCaves_mvl/mxv
 BYTE   W01
 BYTE   VOL   24*AltinCaves_mvl/mxv
 BYTE   W01
 BYTE   VOL   25*AltinCaves_mvl/mxv
 BYTE   W01
 BYTE   PEND 
 BYTE   PATT
  POIN2 Label_1_0B17
 BYTE   PATT
  POIN2 Label_1_0B7D
 BYTE   PATT
  POIN2 Label_1_0BE3
 BYTE   PATT
  POIN2 Label_1_0C49
 BYTE   PATT
  POIN2 Label_1_33F6
 BYTE   PATT
  POIN2 Label_1_0A4B
 BYTE   PATT
  POIN2 Label_1_0AB1
 BYTE   PATT
  POIN2 Label_1_0B17
 BYTE   PATT
  POIN2 Label_1_0B7D
 BYTE   PATT
  POIN2 Label_1_0BE3
 BYTE   PATT
  POIN2 Label_1_0C49
 BYTE   PATT
  POIN2 Label_1_0CAF
 BYTE   PATT
  POIN2 Label_1_0FE3
// 054   ----------------------------------------
 BYTE   VOL   20*AltinCaves_mvl/mxv
 BYTE   W01
 BYTE   VOL   21*AltinCaves_mvl/mxv
 BYTE   N44  En4  v100
 BYTE   N44  Gn3
 BYTE   N44  Bn2
 BYTE   W01
 BYTE   VOL   22*AltinCaves_mvl/mxv
 BYTE   W02
 BYTE   VOL   23*AltinCaves_mvl/mxv
 BYTE   W01
 BYTE   VOL   23*AltinCaves_mvl/mxv
 BYTE   W02
 BYTE   VOL   24*AltinCaves_mvl/mxv
 BYTE   W01
 BYTE   VOL   25*AltinCaves_mvl/mxv
 BYTE   N03  Bn2  v100
 BYTE   N03  En4
 BYTE   N03  Gn3
 BYTE   W02
 BYTE   VOL   26*AltinCaves_mvl/mxv
 BYTE   W01
 BYTE   VOL   27*AltinCaves_mvl/mxv
 BYTE   W02
 BYTE   VOL   28*AltinCaves_mvl/mxv
 BYTE   W02
 BYTE   PATT
  POIN2 Label_1_10A3
 BYTE   PATT
  POIN2 Label_1_110C
 BYTE   PATT
  POIN2 Label_1_116C
 BYTE   PATT
  POIN2 Label_1_11CC
 BYTE   PATT
  POIN2 Label_1_1235
 BYTE   PATT
  POIN2 Label_1_1572
// 055   ----------------------------------------
 BYTE   VOL   16*AltinCaves_mvl/mxv
 BYTE   W01
 BYTE   VOL   17*AltinCaves_mvl/mxv
 BYTE   W01
 BYTE   VOL   18*AltinCaves_mvl/mxv
 BYTE   W01
 BYTE   N44  An3  v100
 BYTE   N44  Cs3
 BYTE   N44  Fs4
 BYTE   VOL   19*AltinCaves_mvl/mxv
 BYTE   W01
 BYTE   VOL   19*AltinCaves_mvl/mxv
 BYTE   W01
 BYTE   VOL   20*AltinCaves_mvl/mxv
 BYTE   W01
 BYTE   VOL   21*AltinCaves_mvl/mxv
 BYTE   W01
 BYTE   VOL   22*AltinCaves_mvl/mxv
 BYTE   W01
 BYTE   VOL   23*AltinCaves_mvl/mxv
 BYTE   N03  Cs3  v100
 BYTE   N03  Fs4
 BYTE   N03  An3
 BYTE   W01
 BYTE   VOL   23*AltinCaves_mvl/mxv
 BYTE   W01
 BYTE   VOL   24*AltinCaves_mvl/mxv
 BYTE   W01
 BYTE   VOL   25*AltinCaves_mvl/mxv
 BYTE   W01
 BYTE   PATT
  POIN2 Label_1_0B17
 BYTE   PATT
  POIN2 Label_1_0B7D
 BYTE   PATT
  POIN2 Label_1_0BE3
 BYTE   PATT
  POIN2 Label_1_0C49
 BYTE   PATT
  POIN2 Label_1_17D6
 BYTE   PATT
  POIN2 Label_1_1B12
// 056   ----------------------------------------
 BYTE   VOL   16*AltinCaves_mvl/mxv
 BYTE   W01
 BYTE   VOL   17*AltinCaves_mvl/mxv
 BYTE   W01
 BYTE   VOL   18*AltinCaves_mvl/mxv
 BYTE   W01
 BYTE   N44  En4  v100
 BYTE   N44  Gn3
 BYTE   N44  Bn2
 BYTE   VOL   19*AltinCaves_mvl/mxv
 BYTE   W01
 BYTE   VOL   19*AltinCaves_mvl/mxv
 BYTE   W01
 BYTE   VOL   20*AltinCaves_mvl/mxv
 BYTE   W01
 BYTE   VOL   21*AltinCaves_mvl/mxv
 BYTE   W01
 BYTE   VOL   22*AltinCaves_mvl/mxv
 BYTE   W01
 BYTE   VOL   23*AltinCaves_mvl/mxv
 BYTE   N03  Gn3  v100
 BYTE   N03  En4
 BYTE   N03  Bn2
 BYTE   W01
 BYTE   VOL   23*AltinCaves_mvl/mxv
 BYTE   W01
 BYTE   VOL   24*AltinCaves_mvl/mxv
 BYTE   W01
 BYTE   VOL   25*AltinCaves_mvl/mxv
 BYTE   W01
 BYTE   PATT
  POIN2 Label_1_0B17
 BYTE   PATT
  POIN2 Label_1_0B7D
 BYTE   PATT
  POIN2 Label_1_0BE3
 BYTE   PATT
  POIN2 Label_1_0C49
 BYTE   PATT
  POIN2 Label_1_1D76
// 057   ----------------------------------------
 BYTE   VOL   8*AltinCaves_mvl/mxv
 BYTE   N96  Cs3  v100
 BYTE   N96  An3
 BYTE   N96  Fs4
 BYTE   W01
 BYTE   VOL   9*AltinCaves_mvl/mxv
 BYTE   W01
 BYTE   VOL   10*AltinCaves_mvl/mxv
 BYTE   W01
 BYTE   VOL   10*AltinCaves_mvl/mxv
 BYTE   W01
 BYTE   VOL   11*AltinCaves_mvl/mxv
 BYTE   W01
 BYTE   VOL   11*AltinCaves_mvl/mxv
 BYTE   W01
 BYTE   VOL   12*AltinCaves_mvl/mxv
 BYTE   W01
 BYTE   VOL   13*AltinCaves_mvl/mxv
 BYTE   W01
 BYTE   VOL   13*AltinCaves_mvl/mxv
 BYTE   W01
 BYTE   VOL   14*AltinCaves_mvl/mxv
 BYTE   W01
 BYTE   VOL   15*AltinCaves_mvl/mxv
 BYTE   W01
 BYTE   VOL   16*AltinCaves_mvl/mxv
 BYTE   N44  Fs4  v100
 BYTE   N44  Cs3
 BYTE   N44  An3
 BYTE   W01
 BYTE   PATT
  POIN2 Label_1_63C6
 BYTE   PATT
  POIN2 Label_1_0B17
 BYTE   PATT
  POIN2 Label_1_0B7D
 BYTE   PATT
  POIN2 Label_1_0BE3
 BYTE   PATT
  POIN2 Label_1_0C49
 BYTE   PATT
  POIN2 Label_1_2E74
 BYTE   PATT
  POIN2 Label_1_1B12
 BYTE   PATT
  POIN2 Label_1_010F38
 BYTE   PATT
  POIN2 Label_1_0B17
 BYTE   PATT
  POIN2 Label_1_0B7D
 BYTE   PATT
  POIN2 Label_1_0BE3
 BYTE   PATT
  POIN2 Label_1_0C49
// 058   ----------------------------------------
 BYTE   VOL   81*AltinCaves_mvl/mxv
 BYTE   W01
 BYTE   VOL   82*AltinCaves_mvl/mxv
 BYTE   W01
 BYTE   VOL   84*AltinCaves_mvl/mxv
 BYTE   W01
 BYTE   VOL   85*AltinCaves_mvl/mxv
 BYTE   VOL   84*AltinCaves_mvl/mxv
 BYTE   W01
 BYTE   VOL   85*AltinCaves_mvl/mxv
 BYTE   W01
 BYTE   VOL   87*AltinCaves_mvl/mxv
 BYTE   W01
 BYTE   VOL   88*AltinCaves_mvl/mxv
 BYTE   W96
 BYTE   W68
 BYTE   W01
 BYTE   GoTo
  POIN2 Label_1_00
 BYTE   FINE

//**************** Track 3 (Midi-Chn.2) ****************//

AltinCaves_003:
// 000   ----------------------------------------
Label_2_00:
 BYTE   TEMPO   72*AltinCaves_tbs/2
 BYTE   KEYSH   AltinCaves_key+0
 BYTE   VOICE   75
 BYTE   VOL   13*AltinCaves_mvl/mxv
 BYTE   PAN   c_v-24
 BYTE   W96
 BYTE   W96
 BYTE   W96
 BYTE   W96
 BYTE   W96
// 001   ----------------------------------------
 BYTE   W96
 BYTE   W96
// 002   ----------------------------------------
Label_2_0D20:
 BYTE   N05  Fs4  v090
 BYTE   W06
 BYTE   Fs4  v066
 BYTE   W06
 BYTE   Fs4  v090
 BYTE   W06
 BYTE   Bn4  v066
 BYTE   W06
 BYTE   Fs4
 BYTE   W06
 BYTE   Fs4  v090
 BYTE   W06
 BYTE   Bn4  v066
 BYTE   W06
 BYTE   Cs5  v090
 BYTE   W06
 BYTE   Fs4  v066
 BYTE   W06
 BYTE   Dn5
 BYTE   W06
 BYTE   Fs4  v090
 BYTE   W06
 BYTE   Cs5  v066
 BYTE   W06
 BYTE   En5
 BYTE   W06
 BYTE   Fs4  v090
 BYTE   W06
 BYTE   Dn5
 BYTE   W06
 BYTE   Fs4  v066
 BYTE   W06
 BYTE   PEND 
// 003   ----------------------------------------
Label_2_0F00:
 BYTE   N05  Cs5  v066
 BYTE   W06
 BYTE   Fs4  v090
 BYTE   W06
 BYTE   Bn4  v066
 BYTE   W06
 BYTE   Cs5  v090
 BYTE   W06
 BYTE   Fs4  v066
 BYTE   W06
 BYTE   Bn4
 BYTE   W06
 BYTE   Fs4  v090
 BYTE   W06
 BYTE   An4
 BYTE   W96
 BYTE   W54
 BYTE   PEND 
// 004   ----------------------------------------
Label_2_12C0:
 BYTE   N05  En5  v090
 BYTE   W06
 BYTE   En4  v066
 BYTE   W06
 BYTE   En5  v090
 BYTE   W06
 BYTE   Dn5  v066
 BYTE   W06
 BYTE   En4
 BYTE   W06
 BYTE   Dn5  v090
 BYTE   W06
 BYTE   Cn5  v066
 BYTE   W06
 BYTE   En4  v090
 BYTE   W06
 BYTE   Cn5  v066
 BYTE   W06
 BYTE   Bn4
 BYTE   W06
 BYTE   En4  v090
 BYTE   W06
 BYTE   Bn4  v066
 BYTE   W06
 BYTE   An4
 BYTE   W06
 BYTE   En4  v090
 BYTE   W06
 BYTE   Bn4
 BYTE   W06
 BYTE   An4  v066
 BYTE   W06
 BYTE   PEND 
// 005   ----------------------------------------
Label_2_14A0:
 BYTE   N05  Bn4  v066
 BYTE   W06
 BYTE   Cn5  v090
 BYTE   W06
 BYTE   En4  v066
 BYTE   W06
 BYTE   Dn5  v090
 BYTE   W06
 BYTE   En4  v066
 BYTE   W06
 BYTE   En5
 BYTE   W06
 BYTE   En4  v090
 BYTE   W06
 BYTE   Dn5
 BYTE   W06
 BYTE   N52  An4
 BYTE   W10
 BYTE   N01
 BYTE   W54
 BYTE   W01
 BYTE   PEND 
// 006   ----------------------------------------
Label_2_16DA:
 BYTE   N02  Gs4  v090
 BYTE   W03
 BYTE   An4
 BYTE   W03
 BYTE   N32  Bn4
 BYTE   W06
 BYTE   N03
 BYTE   W28
 BYTE   W01
 BYTE   N28  Fs4
 BYTE   W05
 BYTE   N01
 BYTE   W30
 BYTE   N40  Cs5
 BYTE   W08
 BYTE   N01
 BYTE   W44
 BYTE   W02
 BYTE   PEND 
// 007   ----------------------------------------
Label_2_196E:
 BYTE   N05  Cs5  v090
 BYTE   W06
 BYTE   Dn5
 BYTE   W06
 BYTE   Bn4
 BYTE   W06
 BYTE   N64  Cs5
 BYTE   W12
 BYTE   N01
 BYTE   W96
 BYTE   W96
 BYTE   W11
 BYTE   PEND 
 BYTE   PATT
  POIN2 Label_2_12C0
// 008   ----------------------------------------
Label_2_1FE0:
 BYTE   N05  Bn4  v066
 BYTE   W06
 BYTE   Cn5  v090
 BYTE   W06
 BYTE   En4  v066
 BYTE   W06
 BYTE   Dn5  v090
 BYTE   W06
 BYTE   En4  v066
 BYTE   W06
 BYTE   En5
 BYTE   W06
 BYTE   En4  v090
 BYTE   W06
 BYTE   Dn5
 BYTE   W96
 BYTE   W96
 BYTE   W96
// 009   ----------------------------------------
 BYTE   W06
 BYTE   PEND 
// 010   ----------------------------------------
Label_2_2670:
 BYTE   N02  Fs4  v090
 BYTE   W03
 BYTE   An4
 BYTE   W03
 BYTE   N23  Fs4
 BYTE   W24
 BYTE   N02  En4
 BYTE   W03
 BYTE   Gs4
 BYTE   W03
 BYTE   N32  En4
 BYTE   W06
 BYTE   N03
 BYTE   W28
 BYTE   W01
 BYTE   N02  An4
 BYTE   W03
 BYTE   Cs5
 BYTE   W03
 BYTE   N23  An4
 BYTE   W24
 BYTE   PEND 
// 011   ----------------------------------------
Label_2_286E:
 BYTE   N02  Gs4  v090
 BYTE   W03
 BYTE   Bn4
 BYTE   W03
 BYTE   N28  Gs4
 BYTE   W05
 BYTE   N01
 BYTE   W30
 BYTE   N02
 BYTE   W03
 BYTE   Bn4
 BYTE   W03
 BYTE   N23  Gs4
 BYTE   W24
 BYTE   N02  Fs4
 BYTE   W03
 BYTE   As4
 BYTE   W03
 BYTE   N28  Fs4
 BYTE   W05
 BYTE   N01
 BYTE   W30
 BYTE   PEND 
// 012   ----------------------------------------
Label_2_2AA8:
 BYTE   N05  Ds5  v090
 BYTE   W06
 BYTE   Cs5
 BYTE   W06
 BYTE   Ds5
 BYTE   W06
 BYTE   En5
 BYTE   W06
 BYTE   Ds5
 BYTE   W06
 BYTE   Cs5
 BYTE   W06
 BYTE   N28  Ds5
 BYTE   W05
 BYTE   N01
 BYTE   W30
 BYTE   N52  An4
 BYTE   W10
 BYTE   N01
 BYTE   W54
 BYTE   W01
 BYTE   PEND 
 BYTE   PATT
  POIN2 Label_2_16DA
 BYTE   PATT
  POIN2 Label_2_196E
 BYTE   PATT
  POIN2 Label_2_12C0
// 013   ----------------------------------------
Label_2_3660:
 BYTE   N05  Bn4  v066
 BYTE   W06
 BYTE   Cn5  v090
 BYTE   W06
 BYTE   En4  v066
 BYTE   W06
 BYTE   Dn5  v090
 BYTE   W06
 BYTE   En4  v066
 BYTE   W06
 BYTE   En5
 BYTE   W06
 BYTE   En4  v090
 BYTE   W06
 BYTE   Dn5
 BYTE   W96
 BYTE   W96
 BYTE   W96
// 014   ----------------------------------------
 BYTE   W96
 BYTE   W96
 BYTE   W96
 BYTE   W96
 BYTE   W06
 BYTE   PEND 
 BYTE   PATT
  POIN2 Label_2_0D20
 BYTE   PATT
  POIN2 Label_2_0F00
 BYTE   PATT
  POIN2 Label_2_12C0
 BYTE   PATT
  POIN2 Label_2_14A0
 BYTE   PATT
  POIN2 Label_2_16DA
 BYTE   PATT
  POIN2 Label_2_196E
 BYTE   PATT
  POIN2 Label_2_12C0
 BYTE   PATT
  POIN2 Label_2_1FE0
 BYTE   PATT
  POIN2 Label_2_2670
 BYTE   PATT
  POIN2 Label_2_286E
 BYTE   PATT
  POIN2 Label_2_2AA8
 BYTE   PATT
  POIN2 Label_2_16DA
 BYTE   PATT
  POIN2 Label_2_196E
 BYTE   PATT
  POIN2 Label_2_12C0
 BYTE   PATT
  POIN2 Label_2_3660
 BYTE   PATT
  POIN2 Label_2_0D20
 BYTE   PATT
  POIN2 Label_2_0F00
 BYTE   PATT
  POIN2 Label_2_12C0
 BYTE   PATT
  POIN2 Label_2_14A0
 BYTE   PATT
  POIN2 Label_2_16DA
 BYTE   PATT
  POIN2 Label_2_196E
 BYTE   PATT
  POIN2 Label_2_12C0
 BYTE   PATT
  POIN2 Label_2_1FE0
 BYTE   PATT
  POIN2 Label_2_2670
 BYTE   PATT
  POIN2 Label_2_286E
 BYTE   PATT
  POIN2 Label_2_2AA8
 BYTE   PATT
  POIN2 Label_2_16DA
 BYTE   PATT
  POIN2 Label_2_196E
 BYTE   PATT
  POIN2 Label_2_12C0
 BYTE   PATT
  POIN2 Label_2_3660
 BYTE   PATT
  POIN2 Label_2_0D20
 BYTE   PATT
  POIN2 Label_2_0F00
 BYTE   PATT
  POIN2 Label_2_12C0
 BYTE   PATT
  POIN2 Label_2_14A0
 BYTE   PATT
  POIN2 Label_2_16DA
 BYTE   PATT
  POIN2 Label_2_196E
 BYTE   PATT
  POIN2 Label_2_12C0
 BYTE   PATT
  POIN2 Label_2_1FE0
 BYTE   PATT
  POIN2 Label_2_2670
 BYTE   PATT
  POIN2 Label_2_286E
 BYTE   PATT
  POIN2 Label_2_2AA8
 BYTE   PATT
  POIN2 Label_2_16DA
 BYTE   PATT
  POIN2 Label_2_196E
 BYTE   PATT
  POIN2 Label_2_12C0
 BYTE   PATT
  POIN2 Label_2_3660
 BYTE   PATT
  POIN2 Label_2_0D20
 BYTE   PATT
  POIN2 Label_2_0F00
 BYTE   PATT
  POIN2 Label_2_12C0
 BYTE   PATT
  POIN2 Label_2_14A0
 BYTE   PATT
  POIN2 Label_2_16DA
 BYTE   PATT
  POIN2 Label_2_196E
 BYTE   PATT
  POIN2 Label_2_12C0
 BYTE   PATT
  POIN2 Label_2_1FE0
 BYTE   PATT
  POIN2 Label_2_2670
 BYTE   PATT
  POIN2 Label_2_286E
 BYTE   PATT
  POIN2 Label_2_2AA8
 BYTE   PATT
  POIN2 Label_2_16DA
 BYTE   PATT
  POIN2 Label_2_196E
 BYTE   PATT
  POIN2 Label_2_12C0
 BYTE   PATT
  POIN2 Label_2_3660
 BYTE   PATT
  POIN2 Label_2_0D20
 BYTE   PATT
  POIN2 Label_2_0F00
 BYTE   PATT
  POIN2 Label_2_12C0
 BYTE   PATT
  POIN2 Label_2_14A0
 BYTE   PATT
  POIN2 Label_2_16DA
 BYTE   PATT
  POIN2 Label_2_196E
 BYTE   PATT
  POIN2 Label_2_12C0
 BYTE   PATT
  POIN2 Label_2_1FE0
 BYTE   PATT
  POIN2 Label_2_2670
 BYTE   PATT
  POIN2 Label_2_286E
 BYTE   PATT
  POIN2 Label_2_2AA8
 BYTE   PATT
  POIN2 Label_2_16DA
 BYTE   PATT
  POIN2 Label_2_196E
 BYTE   PATT
  POIN2 Label_2_12C0
// 015   ----------------------------------------
 BYTE   N05  Bn4  v066
 BYTE   W06
 BYTE   Cn5  v090
 BYTE   W06
 BYTE   En4  v066
 BYTE   W06
 BYTE   Dn5  v090
 BYTE   W06
 BYTE   En4  v066
 BYTE   W06
 BYTE   En5
 BYTE   W06
 BYTE   En4  v090
 BYTE   W06
 BYTE   Dn5
 BYTE   W10
// 016   ----------------------------------------
 BYTE   GoTo
  POIN2 Label_2_00
 BYTE   FINE

//**************** Track 4 (Midi-Chn.3) ****************//

AltinCaves_004:
// 000   ----------------------------------------
Label_3_00:
 BYTE   TEMPO   72*AltinCaves_tbs/2
 BYTE   KEYSH   AltinCaves_key+0
 BYTE   VOICE   24
 BYTE   VOL   13*AltinCaves_mvl/mxv
 BYTE   PAN   c_v+16
 BYTE   BEND   c_v-2
 BYTE   W11
 BYTE   N11  Fs0  v100
 BYTE   W12
 BYTE   N05  Fs0  v063
 BYTE   W06
 BYTE   N11  Fs0  v100
 BYTE   W12
 BYTE   N05  Fs0  v063
 BYTE   W06
 BYTE   N11  Fs0  v100
 BYTE   W12
 BYTE   N05  Fs0  v083
 BYTE   W06
 BYTE   N11  Fs0  v055
 BYTE   W12
 BYTE   N05  Fs0  v035
 BYTE   W06
 BYTE   Fs0  v023
 BYTE   W06
 BYTE   Fs0  v003
 BYTE   W12
// 001   ----------------------------------------
 BYTE   Fs0  v001
 BYTE   W06
 BYTE   Fs0
 BYTE   W06
 BYTE   Fs0
 BYTE   W12
 BYTE   Fs0
 BYTE   W06
 BYTE   N11  Fs0  v100
 BYTE   W12
 BYTE   N05  Fs0  v063
 BYTE   W06
 BYTE   N11  Fs0  v100
 BYTE   W12
 BYTE   N05  Fs0  v063
 BYTE   W06
 BYTE   N11  Fs0  v100
 BYTE   W12
 BYTE   N05  Fs0  v083
 BYTE   W06
 BYTE   N11  Fs0  v055
 BYTE   W12
// 002   ----------------------------------------
Label_3_03D9:
 BYTE   N05  Fs0  v035
 BYTE   W06
 BYTE   Fs0  v023
 BYTE   W06
 BYTE   Fs0  v003
 BYTE   W12
 BYTE   Fs0  v001
 BYTE   W06
 BYTE   Fs0
 BYTE   W06
 BYTE   Fs0
 BYTE   W12
 BYTE   Fs0
 BYTE   W06
 BYTE   N11  Fs0  v100
 BYTE   W12
 BYTE   N05  Fs0  v063
 BYTE   W06
 BYTE   N11  Fs0  v100
 BYTE   W12
 BYTE   N05  Fs0  v063
 BYTE   W06
 BYTE   N11  Fs0  v100
 BYTE   W12
 BYTE   PEND 
// 003   ----------------------------------------
Label_3_05D7:
 BYTE   N05  Fs0  v063
 BYTE   W06
 BYTE   N11  Fs0  v100
 BYTE   W12
 BYTE   N05  Fs0  v063
 BYTE   W06
 BYTE   N11  Fs0  v100
 BYTE   W12
 BYTE   N05  Fs0  v063
 BYTE   W06
 BYTE   N11  Fs0  v100
 BYTE   W12
 BYTE   N05  Fs0  v063
 BYTE   W06
 BYTE   N11  Fs0  v100
 BYTE   W12
 BYTE   N05  Fs0  v063
 BYTE   W06
 BYTE   N11  Fs0  v100
 BYTE   W12
 BYTE   N05  Fs0  v063
 BYTE   W06
 BYTE   PEND 
// 004   ----------------------------------------
Label_3_07B7:
 BYTE   N11  Fs0  v100
 BYTE   W12
 BYTE   N05  Fs0  v063
 BYTE   W06
 BYTE   N11  Fs0  v100
 BYTE   W12
 BYTE   N05  Fs0  v063
 BYTE   W06
 BYTE   N11  Fs0  v100
 BYTE   W12
 BYTE   N05  Fs0  v063
 BYTE   W06
 BYTE   N11  Fs0  v100
 BYTE   W12
 BYTE   N05  Fs0  v063
 BYTE   W06
 BYTE   N11  Fs0  v100
 BYTE   W12
 BYTE   N05  Fs0  v063
 BYTE   W06
 BYTE   N11  Fs0  v100
 BYTE   W12
 BYTE   PEND 
 BYTE   PATT
  POIN2 Label_3_05D7
 BYTE   PATT
  POIN2 Label_3_07B7
 BYTE   PATT
  POIN2 Label_3_05D7
// 005   ----------------------------------------
Label_3_0F73:
 BYTE   N11  Fs0  v100
 BYTE   W12
 BYTE   N05  Fs0  v063
 BYTE   W06
 BYTE   N11  Fs0  v100
 BYTE   W12
 BYTE   N05  Fs0  v063
 BYTE   W06
 BYTE   N11  En0  v100
 BYTE   W12
 BYTE   N05  En0  v063
 BYTE   W06
 BYTE   N11  En0  v100
 BYTE   W12
 BYTE   N05  En0  v063
 BYTE   W06
 BYTE   N11  En0  v100
 BYTE   W12
 BYTE   N05  En0  v063
 BYTE   W06
 BYTE   N11  En0  v100
 BYTE   W12
 BYTE   PEND 
// 006   ----------------------------------------
Label_3_1171:
 BYTE   N05  En0  v063
 BYTE   W06
 BYTE   N11  En0  v100
 BYTE   W12
 BYTE   N05  En0  v063
 BYTE   W06
 BYTE   N11  En0  v100
 BYTE   W12
 BYTE   N05  En0  v063
 BYTE   W06
 BYTE   N11  En0  v100
 BYTE   W12
 BYTE   N05  En0  v063
 BYTE   W06
 BYTE   N11  En0  v100
 BYTE   W12
 BYTE   N05  En0  v063
 BYTE   W06
 BYTE   N11  En0  v100
 BYTE   W12
 BYTE   N05  En0  v063
 BYTE   W06
 BYTE   PEND 
// 007   ----------------------------------------
Label_3_1351:
 BYTE   N11  En0  v100
 BYTE   W12
 BYTE   N05  En0  v063
 BYTE   W06
 BYTE   N11  En0  v100
 BYTE   W12
 BYTE   N05  En0  v063
 BYTE   W06
 BYTE   N11  En0  v100
 BYTE   W12
 BYTE   N05  En0  v063
 BYTE   W06
 BYTE   N11  En0  v100
 BYTE   W12
 BYTE   N05  En0  v063
 BYTE   W06
 BYTE   N11  En0  v100
 BYTE   W12
 BYTE   N05  En0  v063
 BYTE   W06
 BYTE   N11  En0  v100
 BYTE   W12
 BYTE   PEND 
// 008   ----------------------------------------
Label_3_154F:
 BYTE   N05  En0  v063
 BYTE   W06
 BYTE   N11  En0  v100
 BYTE   W12
 BYTE   N05  En0  v063
 BYTE   W06
 BYTE   N11  Fs0  v100
 BYTE   W12
 BYTE   N05  Fs0  v063
 BYTE   W06
 BYTE   N11  Fs0  v100
 BYTE   W12
 BYTE   N05  Fs0  v063
 BYTE   W06
 BYTE   N11  Fs0  v100
 BYTE   W12
 BYTE   N05  Fs0  v063
 BYTE   W06
 BYTE   N11  Fs0  v100
 BYTE   W12
 BYTE   N05  Fs0  v063
 BYTE   W06
 BYTE   PEND 
 BYTE   PATT
  POIN2 Label_3_07B7
 BYTE   PATT
  POIN2 Label_3_05D7
// 009   ----------------------------------------
Label_3_1B0D:
 BYTE   N11  Fs0  v100
 BYTE   W12
 BYTE   N05  Fs0  v063
 BYTE   W06
 BYTE   N11  En0  v100
 BYTE   W12
 BYTE   N05  En0  v063
 BYTE   W06
 BYTE   N11  En0  v100
 BYTE   W12
 BYTE   N05  En0  v063
 BYTE   W06
 BYTE   N11  En0  v100
 BYTE   W12
 BYTE   N05  En0  v063
 BYTE   W06
 BYTE   N11  En0  v100
 BYTE   W12
 BYTE   N05  En0  v063
 BYTE   W06
 BYTE   N11  En0  v100
 BYTE   W12
 BYTE   PEND 
 BYTE   PATT
  POIN2 Label_3_1171
 BYTE   PATT
  POIN2 Label_3_1351
// 010   ----------------------------------------
Label_3_20E9:
 BYTE   N05  En0  v063
 BYTE   W06
 BYTE   N11  En0  v100
 BYTE   W12
 BYTE   N05  En0  v063
 BYTE   W06
 BYTE   Fs1  v075
 BYTE   N05  Bn0
 BYTE   W06
 BYTE   En0
 BYTE   W06
 BYTE   Gn1
 BYTE   N05  Cn1
 BYTE   W06
 BYTE   An1
 BYTE   N05  Dn1
 BYTE   W06
 BYTE   En0
 BYTE   W06
 BYTE   Gn1
 BYTE   N05  Cn1
 BYTE   W06
 BYTE   En0
 BYTE   W06
 BYTE   Fs1
 BYTE   N05  Bn0
 BYTE   W06
 BYTE   En0
 BYTE   W06
 BYTE   N11  An1
 BYTE   N11  Dn1
 BYTE   W12
 BYTE   N05  En0
 BYTE   W06
 BYTE   PEND 
// 011   ----------------------------------------
Label_3_22C9:
 BYTE   N11  Bn1  v075
 BYTE   N11  En1
 BYTE   W12
 BYTE   N05  En0
 BYTE   W06
 BYTE   N11  Bn1
 BYTE   N11  Fs1
 BYTE   W12
 BYTE   N05  En0
 BYTE   W06
 BYTE   N11  En0  v100
 BYTE   W12
 BYTE   N05  En0  v075
 BYTE   W06
 BYTE   N11  En0  v100
 BYTE   W12
 BYTE   N05  En0  v063
 BYTE   W06
 BYTE   Fs1  v075
 BYTE   N05  Bn0
 BYTE   W06
 BYTE   En0
 BYTE   W06
 BYTE   Gn1
 BYTE   N05  Cn1
 BYTE   W06
 BYTE   An1
 BYTE   N05  Dn1
 BYTE   W06
 BYTE   PEND 
// 012   ----------------------------------------
Label_3_24A9:
 BYTE   N05  En0  v075
 BYTE   W06
 BYTE   Gn1
 BYTE   N05  Cn1
 BYTE   W06
 BYTE   En0
 BYTE   W06
 BYTE   Fs1
 BYTE   N05  Bn0
 BYTE   W06
 BYTE   En0
 BYTE   W06
 BYTE   N11  An1
 BYTE   N11  Dn1
 BYTE   W12
 BYTE   N05  En0
 BYTE   W06
 BYTE   N11  Bn1
 BYTE   N11  En1
 BYTE   W12
 BYTE   N05  En0
 BYTE   W06
 BYTE   N11  Bn1
 BYTE   N11  Fs1
 BYTE   W12
 BYTE   N05  En0
 BYTE   W06
 BYTE   N11  En0  v100
 BYTE   W12
 BYTE   PEND 
// 013   ----------------------------------------
Label_3_2689:
 BYTE   N05  En0  v075
 BYTE   W06
 BYTE   N11  Fs0  v100
 BYTE   W12
 BYTE   N05  Fs0  v075
 BYTE   W06
 BYTE   Cs1  v100
 BYTE   W06
 BYTE   Fs0  v075
 BYTE   W06
 BYTE   Cs1
 BYTE   W06
 BYTE   Fs1  v100
 BYTE   W06
 BYTE   Fs0  v075
 BYTE   W06
 BYTE   Fs1  v100
 BYTE   W06
 BYTE   Fs0  v075
 BYTE   W06
 BYTE   Gs1  v100
 BYTE   W06
 BYTE   An1  v075
 BYTE   W06
 BYTE   N11  Fs0  v100
 BYTE   W12
 BYTE   N05  Fs0  v075
 BYTE   W06
 BYTE   PEND 
// 014   ----------------------------------------
Label_3_2869:
 BYTE   N05  Cs1  v100
 BYTE   W06
 BYTE   Fs0  v075
 BYTE   W06
 BYTE   Cs1
 BYTE   W06
 BYTE   Fs1  v100
 BYTE   W06
 BYTE   Fs0  v075
 BYTE   W06
 BYTE   Fs1  v100
 BYTE   W06
 BYTE   Fs0  v075
 BYTE   W06
 BYTE   Gs1  v100
 BYTE   W06
 BYTE   An1  v075
 BYTE   W06
 BYTE   N11  Gs0  v100
 BYTE   W12
 BYTE   N05  Gs0  v075
 BYTE   W06
 BYTE   Ds1  v100
 BYTE   W06
 BYTE   Gs0  v075
 BYTE   W06
 BYTE   Ds1
 BYTE   W06
 BYTE   Gs1  v100
 BYTE   W06
 BYTE   PEND 
// 015   ----------------------------------------
Label_3_2A49:
 BYTE   N05  Gs0  v075
 BYTE   W06
 BYTE   Gs1  v100
 BYTE   W06
 BYTE   Gs0  v075
 BYTE   W06
 BYTE   As1  v100
 BYTE   W06
 BYTE   Bn1  v075
 BYTE   W06
 BYTE   N11  Gs0  v100
 BYTE   W12
 BYTE   N05  Gs0  v075
 BYTE   W06
 BYTE   Ds1  v100
 BYTE   W06
 BYTE   Gs0  v075
 BYTE   W06
 BYTE   Ds1
 BYTE   W06
 BYTE   Gs1  v100
 BYTE   W06
 BYTE   Gs0  v075
 BYTE   W06
 BYTE   Gs1  v100
 BYTE   W06
 BYTE   Gs0  v075
 BYTE   W06
 BYTE   As1  v100
 BYTE   W06
 BYTE   PEND 
// 016   ----------------------------------------
Label_3_2C29:
 BYTE   N05  Bn1  v075
 BYTE   W06
 BYTE   N11  Fs0  v100
 BYTE   W12
 BYTE   N05  Fs0  v063
 BYTE   W06
 BYTE   N11  Fs0  v100
 BYTE   W12
 BYTE   N05  Fs0  v063
 BYTE   W06
 BYTE   N11  Fs0  v100
 BYTE   W12
 BYTE   N05  Fs0  v063
 BYTE   W06
 BYTE   N11  Fs0  v100
 BYTE   W12
 BYTE   N05  Fs0  v063
 BYTE   W06
 BYTE   N11  Fs0  v100
 BYTE   W12
 BYTE   N05  Fs0  v063
 BYTE   W06
 BYTE   PEND 
 BYTE   PATT
  POIN2 Label_3_07B7
 BYTE   PATT
  POIN2 Label_3_05D7
 BYTE   PATT
  POIN2 Label_3_1351
 BYTE   PATT
  POIN2 Label_3_1171
// 017   ----------------------------------------
Label_3_35C5:
 BYTE   N11  En0  v100
 BYTE   W12
 BYTE   N05  En0  v063
 BYTE   W06
 BYTE   N11  En0  v100
 BYTE   W12
 BYTE   N05  En0  v063
 BYTE   W06
 BYTE   N11  En0  v100
 BYTE   W12
 BYTE   N05  En0  v063
 BYTE   W06
 BYTE   N11  En0  v100
 BYTE   W12
 BYTE   N05  En0  v063
 BYTE   W06
 BYTE   N11  En0  v100
 BYTE   W18
 BYTE   Fs0
 BYTE   W12
 BYTE   PEND 
// 018   ----------------------------------------
Label_3_37C3:
 BYTE   N05  Fs0  v063
 BYTE   W06
 BYTE   N11  Fs0  v100
 BYTE   W12
 BYTE   N05  Fs0  v063
 BYTE   W06
 BYTE   N11  Fs0  v100
 BYTE   W12
 BYTE   N05  Fs0  v083
 BYTE   W06
 BYTE   N11  Fs0  v055
 BYTE   W12
 BYTE   N05  Fs0  v035
 BYTE   W06
 BYTE   Fs0  v023
 BYTE   W06
 BYTE   Fs0  v003
 BYTE   W12
 BYTE   Fs0  v001
 BYTE   W06
 BYTE   Fs0
 BYTE   W06
 BYTE   Fs0
 BYTE   W12
 BYTE   PEND 
// 019   ----------------------------------------
Label_3_39C1:
 BYTE   N05  Fs0  v001
 BYTE   W06
 BYTE   N11  Fs0  v100
 BYTE   W12
 BYTE   N05  Fs0  v063
 BYTE   W06
 BYTE   N11  Fs0  v100
 BYTE   W12
 BYTE   N05  Fs0  v063
 BYTE   W06
 BYTE   N11  Fs0  v100
 BYTE   W12
 BYTE   N05  Fs0  v083
 BYTE   W06
 BYTE   N11  Fs0  v055
 BYTE   W12
 BYTE   N05  Fs0  v035
 BYTE   W06
 BYTE   Fs0  v023
 BYTE   W06
 BYTE   Fs0  v003
 BYTE   W12
 BYTE   PEND 
// 020   ----------------------------------------
Label_3_3BA1:
 BYTE   N05  Fs0  v001
 BYTE   W06
 BYTE   Fs0
 BYTE   W06
 BYTE   Fs0
 BYTE   W12
 BYTE   Fs0
 BYTE   W06
 BYTE   N11  Fs0  v100
 BYTE   W12
 BYTE   N05  Fs0  v063
 BYTE   W06
 BYTE   N11  Fs0  v100
 BYTE   W12
 BYTE   N05  Fs0  v063
 BYTE   W06
 BYTE   N11  Fs0  v100
 BYTE   W12
 BYTE   N05  Fs0  v063
 BYTE   W06
 BYTE   N11  Fs0  v100
 BYTE   W12
 BYTE   PEND 
 BYTE   PATT
  POIN2 Label_3_05D7
 BYTE   PATT
  POIN2 Label_3_07B7
 BYTE   PATT
  POIN2 Label_3_05D7
 BYTE   PATT
  POIN2 Label_3_07B7
 BYTE   PATT
  POIN2 Label_3_05D7
 BYTE   PATT
  POIN2 Label_3_1B0D
 BYTE   PATT
  POIN2 Label_3_1171
 BYTE   PATT
  POIN2 Label_3_1351
// 021   ----------------------------------------
Label_3_4CF9:
 BYTE   N05  En0  v063
 BYTE   W06
 BYTE   N11  Fs0  v100
 BYTE   W12
 BYTE   N05  Fs0  v063
 BYTE   W06
 BYTE   N11  Fs0  v100
 BYTE   W12
 BYTE   N05  Fs0  v063
 BYTE   W06
 BYTE   N11  Fs0  v100
 BYTE   W12
 BYTE   N05  Fs0  v063
 BYTE   W06
 BYTE   N11  Fs0  v100
 BYTE   W12
 BYTE   N05  Fs0  v063
 BYTE   W06
 BYTE   N11  Fs0  v100
 BYTE   W12
 BYTE   N05  Fs0  v063
 BYTE   W06
 BYTE   PEND 
 BYTE   PATT
  POIN2 Label_3_07B7
 BYTE   PATT
  POIN2 Label_3_05D7
 BYTE   PATT
  POIN2 Label_3_1351
 BYTE   PATT
  POIN2 Label_3_1171
 BYTE   PATT
  POIN2 Label_3_1351
// 022   ----------------------------------------
Label_3_5893:
 BYTE   N05  En0  v063
 BYTE   W06
 BYTE   Fs1  v075
 BYTE   N05  Bn0
 BYTE   W06
 BYTE   En0
 BYTE   W06
 BYTE   Gn1
 BYTE   N05  Cn1
 BYTE   W06
 BYTE   An1
 BYTE   N05  Dn1
 BYTE   W06
 BYTE   En0
 BYTE   W06
 BYTE   Gn1
 BYTE   N05  Cn1
 BYTE   W06
 BYTE   En0
 BYTE   W06
 BYTE   Fs1
 BYTE   N05  Bn0
 BYTE   W06
 BYTE   En0
 BYTE   W06
 BYTE   N11  An1
 BYTE   N11  Dn1
 BYTE   W12
 BYTE   N05  En0
 BYTE   W06
 BYTE   N11  Bn1
 BYTE   N11  En1
 BYTE   W12
 BYTE   N05  En0
 BYTE   W06
 BYTE   PEND 
// 023   ----------------------------------------
Label_3_5A73:
 BYTE   N11  Bn1  v075
 BYTE   N11  Fs1
 BYTE   W12
 BYTE   N05  En0
 BYTE   W06
 BYTE   N11  En0  v100
 BYTE   W12
 BYTE   N05  En0  v075
 BYTE   W06
 BYTE   N11  En0  v100
 BYTE   W12
 BYTE   N05  En0  v063
 BYTE   W06
 BYTE   Fs1  v075
 BYTE   N05  Bn0
 BYTE   W06
 BYTE   En0
 BYTE   W06
 BYTE   Gn1
 BYTE   N05  Cn1
 BYTE   W06
 BYTE   An1
 BYTE   N05  Dn1
 BYTE   W06
 BYTE   En0
 BYTE   W06
 BYTE   Gn1
 BYTE   N05  Cn1
 BYTE   W06
 BYTE   En0
 BYTE   W06
 BYTE   PEND 
// 024   ----------------------------------------
Label_3_5C53:
 BYTE   N05  Fs1  v075
 BYTE   N05  Bn0
 BYTE   W06
 BYTE   En0
 BYTE   W06
 BYTE   N11  An1
 BYTE   N11  Dn1
 BYTE   W12
 BYTE   N05  En0
 BYTE   W06
 BYTE   N11  Bn1
 BYTE   N11  En1
 BYTE   W12
 BYTE   N05  En0
 BYTE   W06
 BYTE   N11  Bn1
 BYTE   N11  Fs1
 BYTE   W12
 BYTE   N05  En0
 BYTE   W06
 BYTE   N11  En0  v100
 BYTE   W12
 BYTE   N05  En0  v075
 BYTE   W06
 BYTE   N11  Fs0  v100
 BYTE   W12
 BYTE   PEND 
// 025   ----------------------------------------
Label_3_5E33:
 BYTE   N05  Fs0  v075
 BYTE   W06
 BYTE   Cs1  v100
 BYTE   W06
 BYTE   Fs0  v075
 BYTE   W06
 BYTE   Cs1
 BYTE   W06
 BYTE   Fs1  v100
 BYTE   W06
 BYTE   Fs0  v075
 BYTE   W06
 BYTE   Fs1  v100
 BYTE   W06
 BYTE   Fs0  v075
 BYTE   W06
 BYTE   Gs1  v100
 BYTE   W06
 BYTE   An1  v075
 BYTE   W06
 BYTE   N11  Fs0  v100
 BYTE   W12
 BYTE   N05  Fs0  v075
 BYTE   W06
 BYTE   Cs1  v100
 BYTE   W06
 BYTE   Fs0  v075
 BYTE   W06
 BYTE   Cs1
 BYTE   W06
 BYTE   PEND 
// 026   ----------------------------------------
Label_3_6013:
 BYTE   N05  Fs1  v100
 BYTE   W06
 BYTE   Fs0  v075
 BYTE   W06
 BYTE   Fs1  v100
 BYTE   W06
 BYTE   Fs0  v075
 BYTE   W06
 BYTE   Gs1  v100
 BYTE   W06
 BYTE   An1  v075
 BYTE   W06
 BYTE   N11  Gs0  v100
 BYTE   W12
 BYTE   N05  Gs0  v075
 BYTE   W06
 BYTE   Ds1  v100
 BYTE   W06
 BYTE   Gs0  v075
 BYTE   W06
 BYTE   Ds1
 BYTE   W06
 BYTE   Gs1  v100
 BYTE   W06
 BYTE   Gs0  v075
 BYTE   W06
 BYTE   Gs1  v100
 BYTE   W06
 BYTE   Gs0  v075
 BYTE   W06
 BYTE   PEND 
// 027   ----------------------------------------
Label_3_61F3:
 BYTE   N05  As1  v100
 BYTE   W06
 BYTE   Bn1  v075
 BYTE   W06
 BYTE   N11  Gs0  v100
 BYTE   W12
 BYTE   N05  Gs0  v075
 BYTE   W06
 BYTE   Ds1  v100
 BYTE   W06
 BYTE   Gs0  v075
 BYTE   W06
 BYTE   Ds1
 BYTE   W06
 BYTE   Gs1  v100
 BYTE   W06
 BYTE   Gs0  v075
 BYTE   W06
 BYTE   Gs1  v100
 BYTE   W06
 BYTE   Gs0  v075
 BYTE   W06
 BYTE   As1  v100
 BYTE   W06
 BYTE   Bn1  v075
 BYTE   W06
 BYTE   N11  Fs0  v100
 BYTE   W12
 BYTE   PEND 
 BYTE   PATT
  POIN2 Label_3_05D7
 BYTE   PATT
  POIN2 Label_3_07B7
// 028   ----------------------------------------
Label_3_67B1:
 BYTE   N05  Fs0  v063
 BYTE   W06
 BYTE   N11  Fs0  v100
 BYTE   W12
 BYTE   N05  Fs0  v063
 BYTE   W06
 BYTE   N11  Fs0  v100
 BYTE   W12
 BYTE   N05  Fs0  v063
 BYTE   W06
 BYTE   N11  Fs0  v100
 BYTE   W12
 BYTE   N05  Fs0  v063
 BYTE   W06
 BYTE   N11  Fs0  v100
 BYTE   W12
 BYTE   N05  Fs0  v063
 BYTE   W06
 BYTE   N11  En0  v100
 BYTE   W12
 BYTE   N05  En0  v063
 BYTE   W06
 BYTE   PEND 
 BYTE   PATT
  POIN2 Label_3_1351
 BYTE   PATT
  POIN2 Label_3_1171
// 029   ----------------------------------------
 BYTE   N11  En0  v100
 BYTE   W12
 BYTE   N05  En0  v063
 BYTE   W06
 BYTE   N11  En0  v100
 BYTE   W12
 BYTE   N05  En0  v063
 BYTE   W06
 BYTE   N11  En0  v100
 BYTE   W12
 BYTE   N05  En0  v063
 BYTE   W06
 BYTE   N11  En0  v100
 BYTE   W18
 BYTE   Fs0
 BYTE   W12
 BYTE   N05  Fs0  v063
 BYTE   W06
 BYTE   N11  Fs0  v100
 BYTE   W12
// 030   ----------------------------------------
 BYTE   N05  Fs0  v063
 BYTE   W06
 BYTE   N11  Fs0  v100
 BYTE   W12
 BYTE   N05  Fs0  v083
 BYTE   W06
 BYTE   N11  Fs0  v055
 BYTE   W12
 BYTE   N05  Fs0  v035
 BYTE   W06
 BYTE   Fs0  v023
 BYTE   W06
 BYTE   Fs0  v003
 BYTE   W12
 BYTE   Fs0  v001
 BYTE   W06
 BYTE   Fs0
 BYTE   W06
 BYTE   Fs0
 BYTE   W12
 BYTE   Fs0
 BYTE   W06
 BYTE   N11  Fs0  v100
 BYTE   W12
 BYTE   PATT
  POIN2 Label_3_37C3
// 031   ----------------------------------------
 BYTE   N05  Fs0  v001
 BYTE   W06
 BYTE   N11  Fs0  v100
 BYTE   W12
 BYTE   N05  Fs0  v063
 BYTE   W06
 BYTE   N11  Fs0  v100
 BYTE   W12
 BYTE   N05  Fs0  v063
 BYTE   W06
 BYTE   N11  Fs0  v100
 BYTE   W12
 BYTE   N05  Fs0  v063
 BYTE   W06
 BYTE   N11  Fs0  v100
 BYTE   W12
 BYTE   N05  Fs0  v063
 BYTE   W06
 BYTE   N11  Fs0  v100
 BYTE   W12
 BYTE   N05  Fs0  v063
 BYTE   W06
 BYTE   PATT
  POIN2 Label_3_07B7
 BYTE   PATT
  POIN2 Label_3_05D7
 BYTE   PATT
  POIN2 Label_3_07B7
 BYTE   PATT
  POIN2 Label_3_05D7
// 032   ----------------------------------------
 BYTE   N11  Fs0  v100
 BYTE   W12
 BYTE   N05  Fs0  v063
 BYTE   W06
 BYTE   N11  Fs0  v100
 BYTE   W12
 BYTE   N05  Fs0  v063
 BYTE   W06
 BYTE   N11  Fs0  v100
 BYTE   W12
 BYTE   N05  Fs0  v063
 BYTE   W06
 BYTE   N11  Fs0  v100
 BYTE   W12
 BYTE   N05  Fs0  v063
 BYTE   W06
 BYTE   N11  Fs0  v100
 BYTE   W12
 BYTE   N05  Fs0  v063
 BYTE   W06
 BYTE   N11  En0  v100
 BYTE   W12
 BYTE   PATT
  POIN2 Label_3_1171
 BYTE   PATT
  POIN2 Label_3_1351
// 033   ----------------------------------------
 BYTE   N05  En0  v063
 BYTE   W06
 BYTE   N11  En0  v100
 BYTE   W12
 BYTE   N05  En0  v063
 BYTE   W06
 BYTE   N11  En0  v100
 BYTE   W12
 BYTE   N05  En0  v063
 BYTE   W06
 BYTE   N11  En0  v100
 BYTE   W12
 BYTE   N05  En0  v063
 BYTE   W06
 BYTE   N11  En0  v100
 BYTE   W12
 BYTE   N05  En0  v063
 BYTE   W06
 BYTE   N11  Fs0  v100
 BYTE   W12
 BYTE   N05  Fs0  v063
 BYTE   W06
 BYTE   PATT
  POIN2 Label_3_07B7
 BYTE   PATT
  POIN2 Label_3_05D7
// 034   ----------------------------------------
 BYTE   N11  Fs0  v100
 BYTE   W12
 BYTE   N05  Fs0  v063
 BYTE   W06
 BYTE   N11  Fs0  v100
 BYTE   W12
 BYTE   N05  Fs0  v063
 BYTE   W06
 BYTE   N11  Fs0  v100
 BYTE   W12
 BYTE   N05  Fs0  v063
 BYTE   W06
 BYTE   N11  Fs0  v100
 BYTE   W12
 BYTE   N05  Fs0  v063
 BYTE   W06
 BYTE   N11  En0  v100
 BYTE   W12
 BYTE   N05  En0  v063
 BYTE   W06
 BYTE   N11  En0  v100
 BYTE   W12
 BYTE   PATT
  POIN2 Label_3_1171
 BYTE   PATT
  POIN2 Label_3_1351
// 035   ----------------------------------------
 BYTE   N05  En0  v063
 BYTE   W06
 BYTE   N11  En0  v100
 BYTE   W12
 BYTE   N05  En0  v063
 BYTE   W06
 BYTE   N11  En0  v100
 BYTE   W12
 BYTE   N05  En0  v063
 BYTE   W06
 BYTE   N11  En0  v100
 BYTE   W12
 BYTE   N05  En0  v063
 BYTE   W06
 BYTE   N11  En0  v100
 BYTE   W12
 BYTE   N05  En0  v063
 BYTE   W06
 BYTE   Fs1  v075
 BYTE   N05  Bn0
 BYTE   W06
 BYTE   En0
 BYTE   W06
 BYTE   Gn1
 BYTE   N05  Cn1
 BYTE   W06
// 036   ----------------------------------------
 BYTE   An1
 BYTE   N05  Dn1
 BYTE   W06
 BYTE   En0
 BYTE   W06
 BYTE   Gn1
 BYTE   N05  Cn1
 BYTE   W06
 BYTE   En0
 BYTE   W06
 BYTE   Fs1
 BYTE   N05  Bn0
 BYTE   W06
 BYTE   En0
 BYTE   W06
 BYTE   N11  An1
 BYTE   N11  Dn1
 BYTE   W12
 BYTE   N05  En0
 BYTE   W06
 BYTE   N11  Bn1
 BYTE   N11  En1
 BYTE   W12
 BYTE   N05  En0
 BYTE   W06
 BYTE   N11  Bn1
 BYTE   N11  Fs1
 BYTE   W12
 BYTE   N05  En0
 BYTE   W06
 BYTE   N11  En0  v100
 BYTE   W12
// 037   ----------------------------------------
 BYTE   N05  En0  v075
 BYTE   W06
 BYTE   N11  En0  v100
 BYTE   W12
 BYTE   N05  En0  v063
 BYTE   W06
 BYTE   Fs1  v075
 BYTE   N05  Bn0
 BYTE   W06
 BYTE   En0
 BYTE   W06
 BYTE   Gn1
 BYTE   N05  Cn1
 BYTE   W06
 BYTE   An1
 BYTE   N05  Dn1
 BYTE   W06
 BYTE   En0
 BYTE   W06
 BYTE   Gn1
 BYTE   N05  Cn1
 BYTE   W06
 BYTE   En0
 BYTE   W06
 BYTE   Fs1
 BYTE   N05  Bn0
 BYTE   W06
 BYTE   En0
 BYTE   W06
 BYTE   N11  An1
 BYTE   N11  Dn1
 BYTE   W12
 BYTE   N05  En0
 BYTE   W06
// 038   ----------------------------------------
 BYTE   N11  Bn1
 BYTE   N11  En1
 BYTE   W12
 BYTE   N05  En0
 BYTE   W06
 BYTE   N11  Bn1
 BYTE   N11  Fs1
 BYTE   W12
 BYTE   N05  En0
 BYTE   W06
 BYTE   N11  En0  v100
 BYTE   W12
 BYTE   N05  En0  v075
 BYTE   W06
 BYTE   N11  Fs0  v100
 BYTE   W12
 BYTE   N05  Fs0  v075
 BYTE   W06
 BYTE   Cs1  v100
 BYTE   W06
 BYTE   Fs0  v075
 BYTE   W06
 BYTE   Cs1
 BYTE   W06
 BYTE   Fs1  v100
 BYTE   W06
// 039   ----------------------------------------
 BYTE   Fs0  v075
 BYTE   W06
 BYTE   Fs1  v100
 BYTE   W06
 BYTE   Fs0  v075
 BYTE   W06
 BYTE   Gs1  v100
 BYTE   W06
 BYTE   An1  v075
 BYTE   W06
 BYTE   N11  Fs0  v100
 BYTE   W12
 BYTE   N05  Fs0  v075
 BYTE   W06
 BYTE   Cs1  v100
 BYTE   W06
 BYTE   Fs0  v075
 BYTE   W06
 BYTE   Cs1
 BYTE   W06
 BYTE   Fs1  v100
 BYTE   W06
 BYTE   Fs0  v075
 BYTE   W06
 BYTE   Fs1  v100
 BYTE   W06
 BYTE   Fs0  v075
 BYTE   W06
 BYTE   Gs1  v100
 BYTE   W06
// 040   ----------------------------------------
 BYTE   An1  v075
 BYTE   W06
 BYTE   N11  Gs0  v100
 BYTE   W12
 BYTE   N05  Gs0  v075
 BYTE   W06
 BYTE   Ds1  v100
 BYTE   W06
 BYTE   Gs0  v075
 BYTE   W06
 BYTE   Ds1
 BYTE   W06
 BYTE   Gs1  v100
 BYTE   W06
 BYTE   Gs0  v075
 BYTE   W06
 BYTE   Gs1  v100
 BYTE   W06
 BYTE   Gs0  v075
 BYTE   W06
 BYTE   As1  v100
 BYTE   W06
 BYTE   Bn1  v075
 BYTE   W06
 BYTE   N11  Gs0  v100
 BYTE   W12
 BYTE   N05  Gs0  v075
 BYTE   W06
// 041   ----------------------------------------
 BYTE   Ds1  v100
 BYTE   W06
 BYTE   Gs0  v075
 BYTE   W06
 BYTE   Ds1
 BYTE   W06
 BYTE   Gs1  v100
 BYTE   W06
 BYTE   Gs0  v075
 BYTE   W06
 BYTE   Gs1  v100
 BYTE   W06
 BYTE   Gs0  v075
 BYTE   W06
 BYTE   As1  v100
 BYTE   W06
 BYTE   Bn1  v075
 BYTE   W06
 BYTE   N11  Fs0  v100
 BYTE   W12
 BYTE   N05  Fs0  v063
 BYTE   W06
 BYTE   N11  Fs0  v100
 BYTE   W12
 BYTE   N05  Fs0  v063
 BYTE   W06
 BYTE   N11  Fs0  v100
 BYTE   W12
 BYTE   PATT
  POIN2 Label_3_05D7
 BYTE   PATT
  POIN2 Label_3_07B7
// 042   ----------------------------------------
 BYTE   N05  Fs0  v063
 BYTE   W06
 BYTE   N11  Fs0  v100
 BYTE   W12
 BYTE   N05  Fs0  v063
 BYTE   W06
 BYTE   N11  Fs0  v100
 BYTE   W12
 BYTE   N05  Fs0  v063
 BYTE   W06
 BYTE   N11  En0  v100
 BYTE   W12
 BYTE   N05  En0  v063
 BYTE   W06
 BYTE   N11  En0  v100
 BYTE   W12
 BYTE   N05  En0  v063
 BYTE   W06
 BYTE   N11  En0  v100
 BYTE   W12
 BYTE   N05  En0  v063
 BYTE   W06
 BYTE   PATT
  POIN2 Label_3_1351
 BYTE   PATT
  POIN2 Label_3_1171
// 043   ----------------------------------------
 BYTE   N11  En0  v100
 BYTE   W12
 BYTE   N05  En0  v063
 BYTE   W06
 BYTE   N11  En0  v100
 BYTE   W18
 BYTE   Fs0
 BYTE   W12
 BYTE   N05  Fs0  v063
 BYTE   W06
 BYTE   N11  Fs0  v100
 BYTE   W12
 BYTE   N05  Fs0  v063
 BYTE   W06
 BYTE   N11  Fs0  v100
 BYTE   W12
 BYTE   N05  Fs0  v083
 BYTE   W06
 BYTE   N11  Fs0  v055
 BYTE   W12
 BYTE   PATT
  POIN2 Label_3_03D9
// 044   ----------------------------------------
 BYTE   N05  Fs0  v083
 BYTE   W06
 BYTE   N11  Fs0  v055
 BYTE   W12
 BYTE   N05  Fs0  v035
 BYTE   W06
 BYTE   Fs0  v023
 BYTE   W06
 BYTE   Fs0  v003
 BYTE   W12
 BYTE   Fs0  v001
 BYTE   W06
 BYTE   Fs0
 BYTE   W06
 BYTE   Fs0
 BYTE   W12
 BYTE   Fs0
 BYTE   W06
 BYTE   N11  Fs0  v100
 BYTE   W12
 BYTE   N05  Fs0  v063
 BYTE   W06
 BYTE   N11  Fs0  v100
 BYTE   W12
 BYTE   PATT
  POIN2 Label_3_05D7
 BYTE   PATT
  POIN2 Label_3_07B7
 BYTE   PATT
  POIN2 Label_3_05D7
 BYTE   PATT
  POIN2 Label_3_07B7
 BYTE   PATT
  POIN2 Label_3_05D7
// 045   ----------------------------------------
 BYTE   N11  Fs0  v100
 BYTE   W12
 BYTE   N05  Fs0  v063
 BYTE   W06
 BYTE   N11  Fs0  v100
 BYTE   W12
 BYTE   N05  Fs0  v063
 BYTE   W06
 BYTE   N11  Fs0  v100
 BYTE   W12
 BYTE   N05  Fs0  v063
 BYTE   W06
 BYTE   N11  En0  v100
 BYTE   W12
 BYTE   N05  En0  v063
 BYTE   W06
 BYTE   N11  En0  v100
 BYTE   W12
 BYTE   N05  En0  v063
 BYTE   W06
 BYTE   N11  En0  v100
 BYTE   W12
 BYTE   PATT
  POIN2 Label_3_1171
 BYTE   PATT
  POIN2 Label_3_1351
// 046   ----------------------------------------
 BYTE   N05  En0  v063
 BYTE   W06
 BYTE   N11  En0  v100
 BYTE   W12
 BYTE   N05  En0  v063
 BYTE   W06
 BYTE   N11  En0  v100
 BYTE   W12
 BYTE   N05  En0  v063
 BYTE   W06
 BYTE   N11  Fs0  v100
 BYTE   W12
 BYTE   N05  Fs0  v063
 BYTE   W06
 BYTE   N11  Fs0  v100
 BYTE   W12
 BYTE   N05  Fs0  v063
 BYTE   W06
 BYTE   N11  Fs0  v100
 BYTE   W12
 BYTE   N05  Fs0  v063
 BYTE   W06
 BYTE   PATT
  POIN2 Label_3_07B7
 BYTE   PATT
  POIN2 Label_3_05D7
 BYTE   PATT
  POIN2 Label_3_0F73
 BYTE   PATT
  POIN2 Label_3_1171
 BYTE   PATT
  POIN2 Label_3_1351
// 047   ----------------------------------------
 BYTE   N05  En0  v063
 BYTE   W06
 BYTE   N11  En0  v100
 BYTE   W12
 BYTE   N05  En0  v063
 BYTE   W06
 BYTE   N11  En0  v100
 BYTE   W12
 BYTE   N05  En0  v063
 BYTE   W06
 BYTE   Fs1  v075
 BYTE   N05  Bn0
 BYTE   W06
 BYTE   En0
 BYTE   W06
 BYTE   Gn1
 BYTE   N05  Cn1
 BYTE   W06
 BYTE   An1
 BYTE   N05  Dn1
 BYTE   W06
 BYTE   En0
 BYTE   W06
 BYTE   Gn1
 BYTE   N05  Cn1
 BYTE   W06
 BYTE   En0
 BYTE   W06
 BYTE   Fs1
 BYTE   N05  Bn0
 BYTE   W06
 BYTE   En0
 BYTE   W06
// 048   ----------------------------------------
 BYTE   N11  An1
 BYTE   N11  Dn1
 BYTE   W12
 BYTE   N05  En0
 BYTE   W06
 BYTE   N11  Bn1
 BYTE   N11  En1
 BYTE   W12
 BYTE   N05  En0
 BYTE   W06
 BYTE   N11  Bn1
 BYTE   N11  Fs1
 BYTE   W12
 BYTE   N05  En0
 BYTE   W06
 BYTE   N11  En0  v100
 BYTE   W12
 BYTE   N05  En0  v075
 BYTE   W06
 BYTE   N11  En0  v100
 BYTE   W12
 BYTE   N05  En0  v063
 BYTE   W06
 BYTE   Fs1  v075
 BYTE   N05  Bn0
 BYTE   W06
// 049   ----------------------------------------
 BYTE   En0
 BYTE   W06
 BYTE   Gn1
 BYTE   N05  Cn1
 BYTE   W06
 BYTE   An1
 BYTE   N05  Dn1
 BYTE   W06
 BYTE   En0
 BYTE   W06
 BYTE   Gn1
 BYTE   N05  Cn1
 BYTE   W06
 BYTE   En0
 BYTE   W06
 BYTE   Fs1
 BYTE   N05  Bn0
 BYTE   W06
 BYTE   En0
 BYTE   W06
 BYTE   N11  An1
 BYTE   N11  Dn1
 BYTE   W12
 BYTE   N05  En0
 BYTE   W06
 BYTE   N11  Bn1
 BYTE   N11  En1
 BYTE   W12
 BYTE   N05  En0
 BYTE   W06
 BYTE   N11  Bn1
 BYTE   N11  Fs1
 BYTE   W12
// 050   ----------------------------------------
 BYTE   N05  En0
 BYTE   W06
 BYTE   N11  En0  v100
 BYTE   W12
 BYTE   N05  En0  v075
 BYTE   W06
 BYTE   N11  Fs0  v100
 BYTE   W12
 BYTE   N05  Fs0  v075
 BYTE   W06
 BYTE   Cs1  v100
 BYTE   W06
 BYTE   Fs0  v075
 BYTE   W06
 BYTE   Cs1
 BYTE   W06
 BYTE   Fs1  v100
 BYTE   W06
 BYTE   Fs0  v075
 BYTE   W06
 BYTE   Fs1  v100
 BYTE   W06
 BYTE   Fs0  v075
 BYTE   W06
 BYTE   Gs1  v100
 BYTE   W06
 BYTE   An1  v075
 BYTE   W06
// 051   ----------------------------------------
 BYTE   N11  Fs0  v100
 BYTE   W12
 BYTE   N05  Fs0  v075
 BYTE   W06
 BYTE   Cs1  v100
 BYTE   W06
 BYTE   Fs0  v075
 BYTE   W06
 BYTE   Cs1
 BYTE   W06
 BYTE   Fs1  v100
 BYTE   W06
 BYTE   Fs0  v075
 BYTE   W06
 BYTE   Fs1  v100
 BYTE   W06
 BYTE   Fs0  v075
 BYTE   W06
 BYTE   Gs1  v100
 BYTE   W06
 BYTE   An1  v075
 BYTE   W06
 BYTE   N11  Gs0  v100
 BYTE   W12
 BYTE   N05  Gs0  v075
 BYTE   W06
 BYTE   Ds1  v100
 BYTE   W06
// 052   ----------------------------------------
 BYTE   Gs0  v075
 BYTE   W06
 BYTE   Ds1
 BYTE   W06
 BYTE   Gs1  v100
 BYTE   W06
 BYTE   Gs0  v075
 BYTE   W06
 BYTE   Gs1  v100
 BYTE   W06
 BYTE   Gs0  v075
 BYTE   W06
 BYTE   As1  v100
 BYTE   W06
 BYTE   Bn1  v075
 BYTE   W06
 BYTE   N11  Gs0  v100
 BYTE   W12
 BYTE   N05  Gs0  v075
 BYTE   W06
 BYTE   Ds1  v100
 BYTE   W06
 BYTE   Gs0  v075
 BYTE   W06
 BYTE   Ds1
 BYTE   W06
 BYTE   Gs1  v100
 BYTE   W06
 BYTE   Gs0  v075
 BYTE   W06
// 053   ----------------------------------------
 BYTE   Gs1  v100
 BYTE   W06
 BYTE   Gs0  v075
 BYTE   W06
 BYTE   As1  v100
 BYTE   W06
 BYTE   Bn1  v075
 BYTE   W06
 BYTE   N11  Fs0  v100
 BYTE   W12
 BYTE   N05  Fs0  v063
 BYTE   W06
 BYTE   N11  Fs0  v100
 BYTE   W12
 BYTE   N05  Fs0  v063
 BYTE   W06
 BYTE   N11  Fs0  v100
 BYTE   W12
 BYTE   N05  Fs0  v063
 BYTE   W06
 BYTE   N11  Fs0  v100
 BYTE   W12
 BYTE   N05  Fs0  v063
 BYTE   W06
 BYTE   PATT
  POIN2 Label_3_07B7
 BYTE   PATT
  POIN2 Label_3_05D7
 BYTE   PATT
  POIN2 Label_3_1B0D
 BYTE   PATT
  POIN2 Label_3_1171
// 054   ----------------------------------------
 BYTE   N11  En0  v100
 BYTE   W12
 BYTE   N05  En0  v063
 BYTE   W06
 BYTE   N11  En0  v100
 BYTE   W12
 BYTE   N05  En0  v063
 BYTE   W06
 BYTE   N11  En0  v100
 BYTE   W12
 BYTE   N05  En0  v063
 BYTE   W06
 BYTE   N11  En0  v100
 BYTE   W12
 BYTE   N05  En0  v063
 BYTE   W06
 BYTE   N11  En0  v100
 BYTE   W12
 BYTE   N05  En0  v063
 BYTE   W06
 BYTE   N11  En0  v100
 BYTE   W18
// 055   ----------------------------------------
 BYTE   Fs0
 BYTE   W12
 BYTE   N05  Fs0  v063
 BYTE   W06
 BYTE   N11  Fs0  v100
 BYTE   W12
 BYTE   N05  Fs0  v063
 BYTE   W06
 BYTE   N11  Fs0  v100
 BYTE   W12
 BYTE   N05  Fs0  v083
 BYTE   W06
 BYTE   N11  Fs0  v055
 BYTE   W12
 BYTE   N05  Fs0  v035
 BYTE   W06
 BYTE   Fs0  v023
 BYTE   W06
 BYTE   Fs0  v003
 BYTE   W12
 BYTE   Fs0  v001
 BYTE   W06
// 056   ----------------------------------------
 BYTE   Fs0
 BYTE   W06
 BYTE   Fs0
 BYTE   W12
 BYTE   Fs0
 BYTE   W06
 BYTE   N11  Fs0  v100
 BYTE   W12
 BYTE   N05  Fs0  v063
 BYTE   W06
 BYTE   N11  Fs0  v100
 BYTE   W12
 BYTE   N05  Fs0  v063
 BYTE   W06
 BYTE   N11  Fs0  v100
 BYTE   W12
 BYTE   N05  Fs0  v083
 BYTE   W06
 BYTE   N11  Fs0  v055
 BYTE   W12
 BYTE   N05  Fs0  v035
 BYTE   W06
// 057   ----------------------------------------
 BYTE   Fs0  v023
 BYTE   W06
 BYTE   Fs0  v003
 BYTE   W12
 BYTE   Fs0  v001
 BYTE   W06
 BYTE   Fs0
 BYTE   W06
 BYTE   Fs0
 BYTE   W12
 BYTE   Fs0
 BYTE   W06
 BYTE   N11  Fs0  v100
 BYTE   W12
 BYTE   N05  Fs0  v063
 BYTE   W06
 BYTE   N11  Fs0  v100
 BYTE   W12
 BYTE   N05  Fs0  v063
 BYTE   W06
 BYTE   N11  Fs0  v100
 BYTE   W12
 BYTE   PATT
  POIN2 Label_3_05D7
 BYTE   PATT
  POIN2 Label_3_07B7
 BYTE   PATT
  POIN2 Label_3_05D7
 BYTE   PATT
  POIN2 Label_3_07B7
 BYTE   PATT
  POIN2 Label_3_05D7
 BYTE   PATT
  POIN2 Label_3_0F73
 BYTE   PATT
  POIN2 Label_3_1171
 BYTE   PATT
  POIN2 Label_3_1351
 BYTE   PATT
  POIN2 Label_3_154F
 BYTE   PATT
  POIN2 Label_3_07B7
 BYTE   PATT
  POIN2 Label_3_05D7
 BYTE   PATT
  POIN2 Label_3_1B0D
 BYTE   PATT
  POIN2 Label_3_1171
 BYTE   PATT
  POIN2 Label_3_1351
 BYTE   PATT
  POIN2 Label_3_20E9
 BYTE   PATT
  POIN2 Label_3_22C9
 BYTE   PATT
  POIN2 Label_3_24A9
 BYTE   PATT
  POIN2 Label_3_2689
 BYTE   PATT
  POIN2 Label_3_2869
 BYTE   PATT
  POIN2 Label_3_2A49
 BYTE   PATT
  POIN2 Label_3_2C29
 BYTE   PATT
  POIN2 Label_3_07B7
 BYTE   PATT
  POIN2 Label_3_05D7
 BYTE   PATT
  POIN2 Label_3_1351
 BYTE   PATT
  POIN2 Label_3_1171
 BYTE   PATT
  POIN2 Label_3_35C5
 BYTE   PATT
  POIN2 Label_3_37C3
 BYTE   PATT
  POIN2 Label_3_39C1
 BYTE   PATT
  POIN2 Label_3_3BA1
 BYTE   PATT
  POIN2 Label_3_05D7
 BYTE   PATT
  POIN2 Label_3_07B7
 BYTE   PATT
  POIN2 Label_3_05D7
 BYTE   PATT
  POIN2 Label_3_07B7
 BYTE   PATT
  POIN2 Label_3_05D7
 BYTE   PATT
  POIN2 Label_3_1B0D
 BYTE   PATT
  POIN2 Label_3_1171
 BYTE   PATT
  POIN2 Label_3_1351
 BYTE   PATT
  POIN2 Label_3_4CF9
 BYTE   PATT
  POIN2 Label_3_07B7
 BYTE   PATT
  POIN2 Label_3_05D7
 BYTE   PATT
  POIN2 Label_3_1351
 BYTE   PATT
  POIN2 Label_3_1171
 BYTE   PATT
  POIN2 Label_3_1351
 BYTE   PATT
  POIN2 Label_3_5893
 BYTE   PATT
  POIN2 Label_3_5A73
 BYTE   PATT
  POIN2 Label_3_5C53
 BYTE   PATT
  POIN2 Label_3_5E33
 BYTE   PATT
  POIN2 Label_3_6013
 BYTE   PATT
  POIN2 Label_3_61F3
 BYTE   PATT
  POIN2 Label_3_05D7
 BYTE   PATT
  POIN2 Label_3_07B7
 BYTE   PATT
  POIN2 Label_3_67B1
 BYTE   PATT
  POIN2 Label_3_1351
 BYTE   PATT
  POIN2 Label_3_1171
// 058   ----------------------------------------
 BYTE   N11  En0  v100
 BYTE   W12
 BYTE   N05  En0  v063
 BYTE   W06
 BYTE   N11  En0  v100
 BYTE   W12
 BYTE   N05  En0  v063
 BYTE   W06
 BYTE   N11  En0  v100
 BYTE   W12
 BYTE   N05  En0  v063
 BYTE   W06
 BYTE   N11  En0  v100
 BYTE   W11
// 059   ----------------------------------------
 BYTE   GoTo
  POIN2 Label_3_00
 BYTE   FINE

//**************** Track 5 (Midi-Chn.4) ****************//

AltinCaves_005:
// 000   ----------------------------------------
Label_4_00:
 BYTE   TEMPO   72*AltinCaves_tbs/2
 BYTE   KEYSH   AltinCaves_key+0
 BYTE   VOICE   40
 BYTE   VOL   13*AltinCaves_mvl/mxv
 BYTE   PAN   c_v+36
 BYTE   BEND   c_v+2
 BYTE   W96
 BYTE   W96
 BYTE   W96
 BYTE   W96
 BYTE   W96
// 001   ----------------------------------------
 BYTE   W96
 BYTE   W96
 BYTE   W05
// 002   ----------------------------------------
Label_4_0D39:
 BYTE   N05  Fs4  v080
 BYTE   W06
 BYTE   Fs4  v056
 BYTE   W06
 BYTE   Fs4  v080
 BYTE   W06
 BYTE   Bn4  v056
 BYTE   W06
 BYTE   Fs4
 BYTE   W06
 BYTE   Fs4  v080
 BYTE   W06
 BYTE   Bn4  v056
 BYTE   W06
 BYTE   Cs5  v080
 BYTE   W06
 BYTE   Fs4  v056
 BYTE   W06
 BYTE   Dn5
 BYTE   W06
 BYTE   Fs4  v080
 BYTE   W06
 BYTE   Cs5  v056
 BYTE   W06
 BYTE   En5
 BYTE   W06
 BYTE   Fs4  v080
 BYTE   W06
 BYTE   Dn5
 BYTE   W06
 BYTE   Fs4  v056
 BYTE   W06
 BYTE   PEND 
// 003   ----------------------------------------
Label_4_0F19:
 BYTE   N05  Cs5  v056
 BYTE   W06
 BYTE   Fs4  v080
 BYTE   W06
 BYTE   Bn4  v056
 BYTE   W06
 BYTE   Cs5  v080
 BYTE   W06
 BYTE   Fs4  v056
 BYTE   W06
 BYTE   Bn4
 BYTE   W06
 BYTE   Fs4  v080
 BYTE   W06
 BYTE   An4
 BYTE   W96
 BYTE   W54
 BYTE   PEND 
// 004   ----------------------------------------
Label_4_12D9:
 BYTE   N05  En5  v080
 BYTE   W06
 BYTE   En4  v056
 BYTE   W06
 BYTE   En5  v080
 BYTE   W06
 BYTE   Dn5  v056
 BYTE   W06
 BYTE   En4
 BYTE   W06
 BYTE   Dn5  v080
 BYTE   W06
 BYTE   Cn5  v056
 BYTE   W06
 BYTE   En4  v080
 BYTE   W06
 BYTE   Cn5  v056
 BYTE   W06
 BYTE   Bn4
 BYTE   W06
 BYTE   En4  v080
 BYTE   W06
 BYTE   Bn4  v056
 BYTE   W06
 BYTE   An4
 BYTE   W06
 BYTE   En4  v080
 BYTE   W06
 BYTE   Bn4
 BYTE   W06
 BYTE   An4  v056
 BYTE   W06
 BYTE   PEND 
// 005   ----------------------------------------
Label_4_14B9:
 BYTE   N05  Bn4  v056
 BYTE   W06
 BYTE   Cn5  v080
 BYTE   W06
 BYTE   En4  v056
 BYTE   W06
 BYTE   Dn5  v080
 BYTE   W06
 BYTE   En4  v056
 BYTE   W06
 BYTE   En5
 BYTE   W06
 BYTE   En4  v080
 BYTE   W06
 BYTE   Dn5
 BYTE   W06
 BYTE   N52  An4
 BYTE   W10
 BYTE   N01
 BYTE   W54
 BYTE   W01
 BYTE   PEND 
// 006   ----------------------------------------
Label_4_16F3:
 BYTE   N02  Gs4  v080
 BYTE   W03
 BYTE   An4
 BYTE   W03
 BYTE   N32  Bn4
 BYTE   W06
 BYTE   N03
 BYTE   W28
 BYTE   W01
 BYTE   N28  Fs4
 BYTE   W05
 BYTE   N01
 BYTE   W30
 BYTE   N40  Cs5
 BYTE   W08
 BYTE   N01
 BYTE   W44
 BYTE   W02
 BYTE   PEND 
// 007   ----------------------------------------
Label_4_1987:
 BYTE   N05  Cs5  v080
 BYTE   W06
 BYTE   Dn5
 BYTE   W06
 BYTE   Bn4
 BYTE   W06
 BYTE   N64  Cs5
 BYTE   W12
 BYTE   N01
 BYTE   W96
 BYTE   W96
 BYTE   W11
 BYTE   PEND 
 BYTE   PATT
  POIN2 Label_4_12D9
// 008   ----------------------------------------
Label_4_1FF9:
 BYTE   N05  Bn4  v056
 BYTE   W06
 BYTE   Cn5  v080
 BYTE   W06
 BYTE   En4  v056
 BYTE   W06
 BYTE   Dn5  v080
 BYTE   W06
 BYTE   En4  v056
 BYTE   W06
 BYTE   En5
 BYTE   W06
 BYTE   En4  v080
 BYTE   W06
 BYTE   Dn5
 BYTE   W96
 BYTE   W96
 BYTE   W96
// 009   ----------------------------------------
 BYTE   W06
 BYTE   PEND 
// 010   ----------------------------------------
Label_4_2689:
 BYTE   N02  Fs4  v080
 BYTE   W03
 BYTE   An4
 BYTE   W03
 BYTE   N23  Fs4
 BYTE   W24
 BYTE   N02  En4
 BYTE   W03
 BYTE   Gs4
 BYTE   W03
 BYTE   N32  En4
 BYTE   W06
 BYTE   N03
 BYTE   W28
 BYTE   W01
 BYTE   N02  An4
 BYTE   W03
 BYTE   Cs5
 BYTE   W03
 BYTE   N23  An4
 BYTE   W24
 BYTE   PEND 
// 011   ----------------------------------------
Label_4_2887:
 BYTE   N02  Gs4  v080
 BYTE   W03
 BYTE   Bn4
 BYTE   W03
 BYTE   N28  Gs4
 BYTE   W05
 BYTE   N01
 BYTE   W30
 BYTE   N02
 BYTE   W03
 BYTE   Bn4
 BYTE   W03
 BYTE   N23  Gs4
 BYTE   W24
 BYTE   N02  Fs4
 BYTE   W03
 BYTE   As4
 BYTE   W03
 BYTE   N28  Fs4
 BYTE   W05
 BYTE   N01
 BYTE   W30
 BYTE   PEND 
// 012   ----------------------------------------
Label_4_2AC1:
 BYTE   N05  Ds5  v080
 BYTE   W06
 BYTE   Cs5
 BYTE   W06
 BYTE   Ds5
 BYTE   W06
 BYTE   En5
 BYTE   W06
 BYTE   Ds5
 BYTE   W06
 BYTE   Cs5
 BYTE   W06
 BYTE   N28  Ds5
 BYTE   W05
 BYTE   N01
 BYTE   W30
 BYTE   N52  An4
 BYTE   W10
 BYTE   N01
 BYTE   W54
 BYTE   W01
 BYTE   PEND 
 BYTE   PATT
  POIN2 Label_4_16F3
 BYTE   PATT
  POIN2 Label_4_1987
 BYTE   PATT
  POIN2 Label_4_12D9
// 013   ----------------------------------------
Label_4_3679:
 BYTE   N05  Bn4  v056
 BYTE   W06
 BYTE   Cn5  v080
 BYTE   W06
 BYTE   En4  v056
 BYTE   W06
 BYTE   Dn5  v080
 BYTE   W06
 BYTE   En4  v056
 BYTE   W06
 BYTE   En5
 BYTE   W06
 BYTE   En4  v080
 BYTE   W06
 BYTE   Dn5
 BYTE   W96
 BYTE   W96
 BYTE   W96
// 014   ----------------------------------------
 BYTE   W96
 BYTE   W96
 BYTE   W96
 BYTE   W96
 BYTE   W06
 BYTE   PEND 
 BYTE   PATT
  POIN2 Label_4_0D39
 BYTE   PATT
  POIN2 Label_4_0F19
 BYTE   PATT
  POIN2 Label_4_12D9
 BYTE   PATT
  POIN2 Label_4_14B9
 BYTE   PATT
  POIN2 Label_4_16F3
 BYTE   PATT
  POIN2 Label_4_1987
 BYTE   PATT
  POIN2 Label_4_12D9
 BYTE   PATT
  POIN2 Label_4_1FF9
 BYTE   PATT
  POIN2 Label_4_2689
 BYTE   PATT
  POIN2 Label_4_2887
 BYTE   PATT
  POIN2 Label_4_2AC1
 BYTE   PATT
  POIN2 Label_4_16F3
 BYTE   PATT
  POIN2 Label_4_1987
 BYTE   PATT
  POIN2 Label_4_12D9
 BYTE   PATT
  POIN2 Label_4_3679
 BYTE   PATT
  POIN2 Label_4_0D39
 BYTE   PATT
  POIN2 Label_4_0F19
 BYTE   PATT
  POIN2 Label_4_12D9
 BYTE   PATT
  POIN2 Label_4_14B9
 BYTE   PATT
  POIN2 Label_4_16F3
 BYTE   PATT
  POIN2 Label_4_1987
 BYTE   PATT
  POIN2 Label_4_12D9
 BYTE   PATT
  POIN2 Label_4_1FF9
 BYTE   PATT
  POIN2 Label_4_2689
 BYTE   PATT
  POIN2 Label_4_2887
 BYTE   PATT
  POIN2 Label_4_2AC1
 BYTE   PATT
  POIN2 Label_4_16F3
 BYTE   PATT
  POIN2 Label_4_1987
 BYTE   PATT
  POIN2 Label_4_12D9
 BYTE   PATT
  POIN2 Label_4_3679
 BYTE   PATT
  POIN2 Label_4_0D39
 BYTE   PATT
  POIN2 Label_4_0F19
 BYTE   PATT
  POIN2 Label_4_12D9
 BYTE   PATT
  POIN2 Label_4_14B9
 BYTE   PATT
  POIN2 Label_4_16F3
 BYTE   PATT
  POIN2 Label_4_1987
 BYTE   PATT
  POIN2 Label_4_12D9
 BYTE   PATT
  POIN2 Label_4_1FF9
 BYTE   PATT
  POIN2 Label_4_2689
 BYTE   PATT
  POIN2 Label_4_2887
 BYTE   PATT
  POIN2 Label_4_2AC1
 BYTE   PATT
  POIN2 Label_4_16F3
 BYTE   PATT
  POIN2 Label_4_1987
 BYTE   PATT
  POIN2 Label_4_12D9
 BYTE   PATT
  POIN2 Label_4_3679
 BYTE   PATT
  POIN2 Label_4_0D39
 BYTE   PATT
  POIN2 Label_4_0F19
 BYTE   PATT
  POIN2 Label_4_12D9
 BYTE   PATT
  POIN2 Label_4_14B9
 BYTE   PATT
  POIN2 Label_4_16F3
 BYTE   PATT
  POIN2 Label_4_1987
 BYTE   PATT
  POIN2 Label_4_12D9
 BYTE   PATT
  POIN2 Label_4_1FF9
 BYTE   PATT
  POIN2 Label_4_2689
 BYTE   PATT
  POIN2 Label_4_2887
 BYTE   PATT
  POIN2 Label_4_2AC1
 BYTE   PATT
  POIN2 Label_4_16F3
 BYTE   PATT
  POIN2 Label_4_1987
 BYTE   PATT
  POIN2 Label_4_12D9
 BYTE   PATT
  POIN2 Label_4_3679
 BYTE   PATT
  POIN2 Label_4_0D39
 BYTE   PATT
  POIN2 Label_4_0F19
 BYTE   PATT
  POIN2 Label_4_12D9
 BYTE   PATT
  POIN2 Label_4_14B9
 BYTE   PATT
  POIN2 Label_4_16F3
 BYTE   PATT
  POIN2 Label_4_1987
 BYTE   PATT
  POIN2 Label_4_12D9
 BYTE   PATT
  POIN2 Label_4_1FF9
 BYTE   PATT
  POIN2 Label_4_2689
 BYTE   PATT
  POIN2 Label_4_2887
 BYTE   PATT
  POIN2 Label_4_2AC1
 BYTE   PATT
  POIN2 Label_4_16F3
 BYTE   PATT
  POIN2 Label_4_1987
 BYTE   PATT
  POIN2 Label_4_12D9
// 015   ----------------------------------------
 BYTE   N05  Bn4  v056
 BYTE   W06
 BYTE   Cn5  v080
 BYTE   W06
 BYTE   En4  v056
 BYTE   W06
 BYTE   Dn5  v080
 BYTE   W06
 BYTE   En4  v056
 BYTE   W06
 BYTE   En5
 BYTE   W06
 BYTE   En4  v080
 BYTE   W06
 BYTE   Dn5
 BYTE   W05
// 016   ----------------------------------------
 BYTE   GoTo
  POIN2 Label_4_00
 BYTE   FINE

//**************** Track 6 (Midi-Chn.5) ****************//

AltinCaves_006:
// 000   ----------------------------------------
Label_5_00:
 BYTE   TEMPO   72*AltinCaves_tbs/2
 BYTE   KEYSH   AltinCaves_key+0
 BYTE   VOICE   1
 BYTE   PAN   c_v+26
 BYTE   BEND   c_v-2
 BYTE   W96
 BYTE   W96
 BYTE   W96
 BYTE   W96
 BYTE   W96
// 001   ----------------------------------------
 BYTE   W44
 BYTE   W03
// 002   ----------------------------------------
 BYTE   VOL   8*AltinCaves_mvl/mxv
 BYTE   W01
 BYTE   N96  An3  v070
 BYTE   N96  Cs3
 BYTE   N96  Fs4
 BYTE   VOL   9*AltinCaves_mvl/mxv
 BYTE   W01
 BYTE   VOL   10*AltinCaves_mvl/mxv
 BYTE   W01
 BYTE   VOL   10*AltinCaves_mvl/mxv
 BYTE   W01
 BYTE   VOL   11*AltinCaves_mvl/mxv
 BYTE   W01
 BYTE   VOL   11*AltinCaves_mvl/mxv
 BYTE   W01
 BYTE   VOL   12*AltinCaves_mvl/mxv
 BYTE   W01
 BYTE   VOL   13*AltinCaves_mvl/mxv
 BYTE   W01
 BYTE   VOL   13*AltinCaves_mvl/mxv
 BYTE   W01
 BYTE   VOL   14*AltinCaves_mvl/mxv
 BYTE   W01
 BYTE   VOL   15*AltinCaves_mvl/mxv
 BYTE   W01
 BYTE   VOL   16*AltinCaves_mvl/mxv
 BYTE   W01
 BYTE   N44  Fs4  v070
 BYTE   N44  An3
 BYTE   N44  Cs3
// 003   ----------------------------------------
Label_5_0AB1:
 BYTE   VOL   16*AltinCaves_mvl/mxv
 BYTE   W01
 BYTE   VOL   17*AltinCaves_mvl/mxv
 BYTE   W01
 BYTE   VOL   18*AltinCaves_mvl/mxv
 BYTE   W01
 BYTE   VOL   19*AltinCaves_mvl/mxv
 BYTE   W01
 BYTE   VOL   19*AltinCaves_mvl/mxv
 BYTE   W01
 BYTE   VOL   20*AltinCaves_mvl/mxv
 BYTE   N03  Fs4  v070
 BYTE   N03  An3
 BYTE   N03  Cs3
 BYTE   W01
 BYTE   VOL   21*AltinCaves_mvl/mxv
 BYTE   W01
 BYTE   VOL   22*AltinCaves_mvl/mxv
 BYTE   W01
 BYTE   VOL   23*AltinCaves_mvl/mxv
 BYTE   W01
 BYTE   VOL   23*AltinCaves_mvl/mxv
 BYTE   W01
 BYTE   VOL   24*AltinCaves_mvl/mxv
 BYTE   W01
 BYTE   VOL   25*AltinCaves_mvl/mxv
 BYTE   W01
 BYTE   PEND 
// 004   ----------------------------------------
Label_5_0B17:
 BYTE   VOL   26*AltinCaves_mvl/mxv
 BYTE   W01
 BYTE   VOL   27*AltinCaves_mvl/mxv
 BYTE   W01
 BYTE   VOL   28*AltinCaves_mvl/mxv
 BYTE   W01
 BYTE   VOL   29*AltinCaves_mvl/mxv
 BYTE   W01
 BYTE   VOL   30*AltinCaves_mvl/mxv
 BYTE   W01
 BYTE   VOL   31*AltinCaves_mvl/mxv
 BYTE   W01
 BYTE   VOL   31*AltinCaves_mvl/mxv
 BYTE   W01
 BYTE   VOL   32*AltinCaves_mvl/mxv
 BYTE   W01
 BYTE   VOL   33*AltinCaves_mvl/mxv
 BYTE   W01
 BYTE   VOL   34*AltinCaves_mvl/mxv
 BYTE   W01
 BYTE   VOL   35*AltinCaves_mvl/mxv
 BYTE   W01
 BYTE   VOL   36*AltinCaves_mvl/mxv
 BYTE   W01
 BYTE   PEND 
// 005   ----------------------------------------
Label_5_0B7D:
 BYTE   VOL   37*AltinCaves_mvl/mxv
 BYTE   W01
 BYTE   VOL   38*AltinCaves_mvl/mxv
 BYTE   W01
 BYTE   VOL   39*AltinCaves_mvl/mxv
 BYTE   W01
 BYTE   VOL   41*AltinCaves_mvl/mxv
 BYTE   W01
 BYTE   VOL   42*AltinCaves_mvl/mxv
 BYTE   W01
 BYTE   VOL   43*AltinCaves_mvl/mxv
 BYTE   W01
 BYTE   VOL   44*AltinCaves_mvl/mxv
 BYTE   W01
 BYTE   VOL   45*AltinCaves_mvl/mxv
 BYTE   W01
 BYTE   VOL   46*AltinCaves_mvl/mxv
 BYTE   W01
 BYTE   VOL   47*AltinCaves_mvl/mxv
 BYTE   W01
 BYTE   VOL   48*AltinCaves_mvl/mxv
 BYTE   W01
 BYTE   VOL   49*AltinCaves_mvl/mxv
 BYTE   W01
 BYTE   PEND 
// 006   ----------------------------------------
Label_5_0BE3:
 BYTE   VOL   50*AltinCaves_mvl/mxv
 BYTE   W01
 BYTE   VOL   52*AltinCaves_mvl/mxv
 BYTE   W01
 BYTE   VOL   53*AltinCaves_mvl/mxv
 BYTE   W01
 BYTE   VOL   54*AltinCaves_mvl/mxv
 BYTE   W01
 BYTE   VOL   55*AltinCaves_mvl/mxv
 BYTE   W01
 BYTE   VOL   56*AltinCaves_mvl/mxv
 BYTE   W01
 BYTE   VOL   58*AltinCaves_mvl/mxv
 BYTE   W01
 BYTE   VOL   59*AltinCaves_mvl/mxv
 BYTE   W01
 BYTE   VOL   60*AltinCaves_mvl/mxv
 BYTE   W01
 BYTE   VOL   61*AltinCaves_mvl/mxv
 BYTE   W01
 BYTE   VOL   63*AltinCaves_mvl/mxv
 BYTE   W01
 BYTE   VOL   64*AltinCaves_mvl/mxv
 BYTE   W01
 BYTE   PEND 
// 007   ----------------------------------------
Label_5_0C49:
 BYTE   VOL   65*AltinCaves_mvl/mxv
 BYTE   W01
 BYTE   VOL   66*AltinCaves_mvl/mxv
 BYTE   W01
 BYTE   VOL   68*AltinCaves_mvl/mxv
 BYTE   W01
 BYTE   VOL   69*AltinCaves_mvl/mxv
 BYTE   W01
 BYTE   VOL   70*AltinCaves_mvl/mxv
 BYTE   W01
 BYTE   VOL   72*AltinCaves_mvl/mxv
 BYTE   W01
 BYTE   VOL   73*AltinCaves_mvl/mxv
 BYTE   W01
 BYTE   VOL   74*AltinCaves_mvl/mxv
 BYTE   W01
 BYTE   VOL   76*AltinCaves_mvl/mxv
 BYTE   W01
 BYTE   VOL   77*AltinCaves_mvl/mxv
 BYTE   W01
 BYTE   VOL   78*AltinCaves_mvl/mxv
 BYTE   W01
 BYTE   VOL   80*AltinCaves_mvl/mxv
 BYTE   W01
 BYTE   PEND 
// 008   ----------------------------------------
Label_5_0CAF:
 BYTE   VOL   81*AltinCaves_mvl/mxv
 BYTE   W01
 BYTE   VOL   82*AltinCaves_mvl/mxv
 BYTE   W01
 BYTE   VOL   84*AltinCaves_mvl/mxv
 BYTE   W01
 BYTE   VOL   85*AltinCaves_mvl/mxv
 BYTE   VOL   84*AltinCaves_mvl/mxv
 BYTE   W01
 BYTE   VOL   85*AltinCaves_mvl/mxv
 BYTE   W01
 BYTE   VOL   87*AltinCaves_mvl/mxv
 BYTE   W01
 BYTE   VOL   88*AltinCaves_mvl/mxv
 BYTE   W96
 BYTE   W56
 BYTE   W01
 BYTE   PEND 
// 009   ----------------------------------------
Label_5_0FE3:
 BYTE   VOL   13*AltinCaves_mvl/mxv
 BYTE   W02
 BYTE   VOL   13*AltinCaves_mvl/mxv
 BYTE   N96  En4  v070
 BYTE   N96  Bn2
 BYTE   N96  Gn3
 BYTE   W01
 BYTE   VOL   14*AltinCaves_mvl/mxv
 BYTE   W02
 BYTE   VOL   15*AltinCaves_mvl/mxv
 BYTE   W01
 BYTE   VOL   16*AltinCaves_mvl/mxv
 BYTE   W02
 BYTE   VOL   16*AltinCaves_mvl/mxv
 BYTE   W01
 BYTE   VOL   17*AltinCaves_mvl/mxv
 BYTE   W02
 BYTE   VOL   18*AltinCaves_mvl/mxv
 BYTE   W02
 BYTE   VOL   19*AltinCaves_mvl/mxv
 BYTE   W01
 BYTE   VOL   19*AltinCaves_mvl/mxv
 BYTE   W02
 BYTE   PEND 
// 010   ----------------------------------------
Label_5_1043:
 BYTE   VOL   20*AltinCaves_mvl/mxv
 BYTE   W01
 BYTE   VOL   21*AltinCaves_mvl/mxv
 BYTE   N44  En4  v070
 BYTE   N44  Gn3
 BYTE   N44  Bn2
 BYTE   W01
 BYTE   VOL   22*AltinCaves_mvl/mxv
 BYTE   W02
 BYTE   VOL   23*AltinCaves_mvl/mxv
 BYTE   W01
 BYTE   VOL   23*AltinCaves_mvl/mxv
 BYTE   W02
 BYTE   VOL   24*AltinCaves_mvl/mxv
 BYTE   W01
 BYTE   VOL   25*AltinCaves_mvl/mxv
 BYTE   N03  Gn3  v070
 BYTE   N03  Bn2
 BYTE   N03  En4
 BYTE   W02
 BYTE   VOL   26*AltinCaves_mvl/mxv
 BYTE   W01
 BYTE   VOL   27*AltinCaves_mvl/mxv
 BYTE   W02
 BYTE   VOL   28*AltinCaves_mvl/mxv
 BYTE   W02
 BYTE   PEND 
// 011   ----------------------------------------
Label_5_10A3:
 BYTE   VOL   29*AltinCaves_mvl/mxv
 BYTE   W01
 BYTE   VOL   30*AltinCaves_mvl/mxv
 BYTE   W02
 BYTE   VOL   31*AltinCaves_mvl/mxv
 BYTE   W01
 BYTE   VOL   31*AltinCaves_mvl/mxv
 BYTE   W02
 BYTE   VOL   32*AltinCaves_mvl/mxv
 BYTE   W01
 BYTE   VOL   33*AltinCaves_mvl/mxv
 BYTE   W02
 BYTE   VOL   34*AltinCaves_mvl/mxv
 BYTE   W02
 BYTE   VOL   35*AltinCaves_mvl/mxv
 BYTE   W01
 BYTE   VOL   36*AltinCaves_mvl/mxv
 BYTE   W02
 BYTE   VOL   37*AltinCaves_mvl/mxv
 BYTE   W01
 BYTE   VOL   38*AltinCaves_mvl/mxv
 BYTE   W02
 BYTE   PEND 
// 012   ----------------------------------------
Label_5_110C:
 BYTE   VOL   39*AltinCaves_mvl/mxv
 BYTE   W02
 BYTE   VOL   41*AltinCaves_mvl/mxv
 BYTE   W01
 BYTE   VOL   42*AltinCaves_mvl/mxv
 BYTE   W02
 BYTE   VOL   43*AltinCaves_mvl/mxv
 BYTE   W01
 BYTE   VOL   44*AltinCaves_mvl/mxv
 BYTE   W02
 BYTE   VOL   45*AltinCaves_mvl/mxv
 BYTE   W01
 BYTE   VOL   46*AltinCaves_mvl/mxv
 BYTE   W02
 BYTE   VOL   47*AltinCaves_mvl/mxv
 BYTE   W02
 BYTE   VOL   48*AltinCaves_mvl/mxv
 BYTE   W01
 BYTE   VOL   49*AltinCaves_mvl/mxv
 BYTE   W02
 BYTE   PEND 
// 013   ----------------------------------------
Label_5_116C:
 BYTE   VOL   50*AltinCaves_mvl/mxv
 BYTE   W01
 BYTE   VOL   52*AltinCaves_mvl/mxv
 BYTE   W02
 BYTE   VOL   53*AltinCaves_mvl/mxv
 BYTE   W02
 BYTE   VOL   54*AltinCaves_mvl/mxv
 BYTE   W01
 BYTE   VOL   55*AltinCaves_mvl/mxv
 BYTE   W02
 BYTE   VOL   56*AltinCaves_mvl/mxv
 BYTE   W01
 BYTE   VOL   58*AltinCaves_mvl/mxv
 BYTE   W02
 BYTE   VOL   59*AltinCaves_mvl/mxv
 BYTE   W01
 BYTE   VOL   60*AltinCaves_mvl/mxv
 BYTE   W02
 BYTE   VOL   61*AltinCaves_mvl/mxv
 BYTE   W02
 BYTE   PEND 
// 014   ----------------------------------------
Label_5_11CC:
 BYTE   VOL   63*AltinCaves_mvl/mxv
 BYTE   W01
 BYTE   VOL   64*AltinCaves_mvl/mxv
 BYTE   W02
 BYTE   VOL   65*AltinCaves_mvl/mxv
 BYTE   W01
 BYTE   VOL   66*AltinCaves_mvl/mxv
 BYTE   W02
 BYTE   VOL   68*AltinCaves_mvl/mxv
 BYTE   W01
 BYTE   VOL   69*AltinCaves_mvl/mxv
 BYTE   W02
 BYTE   VOL   70*AltinCaves_mvl/mxv
 BYTE   W02
 BYTE   VOL   72*AltinCaves_mvl/mxv
 BYTE   W01
 BYTE   VOL   73*AltinCaves_mvl/mxv
 BYTE   W02
 BYTE   VOL   74*AltinCaves_mvl/mxv
 BYTE   W01
 BYTE   VOL   76*AltinCaves_mvl/mxv
 BYTE   W02
 BYTE   PEND 
// 015   ----------------------------------------
Label_5_1235:
 BYTE   VOL   77*AltinCaves_mvl/mxv
 BYTE   W02
 BYTE   VOL   78*AltinCaves_mvl/mxv
 BYTE   W01
 BYTE   VOL   80*AltinCaves_mvl/mxv
 BYTE   W02
 BYTE   VOL   81*AltinCaves_mvl/mxv
 BYTE   W01
 BYTE   VOL   82*AltinCaves_mvl/mxv
 BYTE   W02
 BYTE   VOL   84*AltinCaves_mvl/mxv
 BYTE   W01
 BYTE   VOL   85*AltinCaves_mvl/mxv
 BYTE   W02
 BYTE   VOL   87*AltinCaves_mvl/mxv
 BYTE   W01
 BYTE   VOL   87*AltinCaves_mvl/mxv
 BYTE   W01
 BYTE   VOL   88*AltinCaves_mvl/mxv
 BYTE   W96
 BYTE   W52
 BYTE   W01
 BYTE   PEND 
// 016   ----------------------------------------
Label_5_1572:
 BYTE   VOL   8*AltinCaves_mvl/mxv
 BYTE   W01
 BYTE   VOL   9*AltinCaves_mvl/mxv
 BYTE   W01
 BYTE   VOL   10*AltinCaves_mvl/mxv
 BYTE   W01
 BYTE   VOL   10*AltinCaves_mvl/mxv
 BYTE   N96  Cs3  v070
 BYTE   N96  An3
 BYTE   N96  Fs4
 BYTE   VOL   11*AltinCaves_mvl/mxv
 BYTE   W01
 BYTE   VOL   11*AltinCaves_mvl/mxv
 BYTE   W01
 BYTE   VOL   12*AltinCaves_mvl/mxv
 BYTE   W01
 BYTE   VOL   13*AltinCaves_mvl/mxv
 BYTE   W01
 BYTE   VOL   13*AltinCaves_mvl/mxv
 BYTE   W01
 BYTE   VOL   14*AltinCaves_mvl/mxv
 BYTE   W01
 BYTE   VOL   15*AltinCaves_mvl/mxv
 BYTE   W01
 BYTE   VOL   16*AltinCaves_mvl/mxv
 BYTE   W01
 BYTE   PEND 
// 017   ----------------------------------------
 BYTE   VOL   16*AltinCaves_mvl/mxv
 BYTE   W01
 BYTE   VOL   17*AltinCaves_mvl/mxv
 BYTE   W01
 BYTE   VOL   18*AltinCaves_mvl/mxv
 BYTE   W01
 BYTE   N44  Cs3  v070
 BYTE   N44  Fs4
 BYTE   N44  An3
 BYTE   VOL   19*AltinCaves_mvl/mxv
 BYTE   W01
 BYTE   VOL   19*AltinCaves_mvl/mxv
 BYTE   W01
 BYTE   VOL   20*AltinCaves_mvl/mxv
 BYTE   W01
 BYTE   VOL   21*AltinCaves_mvl/mxv
 BYTE   W01
 BYTE   VOL   22*AltinCaves_mvl/mxv
 BYTE   W01
 BYTE   VOL   23*AltinCaves_mvl/mxv
 BYTE   N03  Cs3  v070
 BYTE   N03  Fs4
 BYTE   N03  An3
 BYTE   W01
 BYTE   VOL   23*AltinCaves_mvl/mxv
 BYTE   W01
 BYTE   VOL   24*AltinCaves_mvl/mxv
 BYTE   W01
 BYTE   VOL   25*AltinCaves_mvl/mxv
 BYTE   W01
 BYTE   PATT
  POIN2 Label_5_0B17
 BYTE   PATT
  POIN2 Label_5_0B7D
 BYTE   PATT
  POIN2 Label_5_0BE3
 BYTE   PATT
  POIN2 Label_5_0C49
// 018   ----------------------------------------
Label_5_17D6:
 BYTE   VOL   81*AltinCaves_mvl/mxv
 BYTE   W01
 BYTE   VOL   82*AltinCaves_mvl/mxv
 BYTE   W01
 BYTE   VOL   84*AltinCaves_mvl/mxv
 BYTE   W01
 BYTE   VOL   85*AltinCaves_mvl/mxv
 BYTE   VOL   84*AltinCaves_mvl/mxv
 BYTE   W01
 BYTE   VOL   85*AltinCaves_mvl/mxv
 BYTE   W01
 BYTE   VOL   87*AltinCaves_mvl/mxv
 BYTE   W01
 BYTE   VOL   88*AltinCaves_mvl/mxv
 BYTE   W96
 BYTE   W56
 BYTE   W03
 BYTE   PEND 
// 019   ----------------------------------------
Label_5_1B12:
 BYTE   VOL   8*AltinCaves_mvl/mxv
 BYTE   W01
 BYTE   VOL   9*AltinCaves_mvl/mxv
 BYTE   W01
 BYTE   VOL   10*AltinCaves_mvl/mxv
 BYTE   W01
 BYTE   VOL   10*AltinCaves_mvl/mxv
 BYTE   N96  Gn3  v070
 BYTE   N96  Bn2
 BYTE   N96  En4
 BYTE   VOL   11*AltinCaves_mvl/mxv
 BYTE   W01
 BYTE   VOL   11*AltinCaves_mvl/mxv
 BYTE   W01
 BYTE   VOL   12*AltinCaves_mvl/mxv
 BYTE   W01
 BYTE   VOL   13*AltinCaves_mvl/mxv
 BYTE   W01
 BYTE   VOL   13*AltinCaves_mvl/mxv
 BYTE   W01
 BYTE   VOL   14*AltinCaves_mvl/mxv
 BYTE   W01
 BYTE   VOL   15*AltinCaves_mvl/mxv
 BYTE   W01
 BYTE   VOL   16*AltinCaves_mvl/mxv
 BYTE   W01
 BYTE   PEND 
// 020   ----------------------------------------
 BYTE   VOL   16*AltinCaves_mvl/mxv
 BYTE   W01
 BYTE   VOL   17*AltinCaves_mvl/mxv
 BYTE   W01
 BYTE   VOL   18*AltinCaves_mvl/mxv
 BYTE   W01
 BYTE   N44  Gn3  v070
 BYTE   N44  En4
 BYTE   N44  Bn2
 BYTE   VOL   19*AltinCaves_mvl/mxv
 BYTE   W01
 BYTE   VOL   19*AltinCaves_mvl/mxv
 BYTE   W01
 BYTE   VOL   20*AltinCaves_mvl/mxv
 BYTE   W01
 BYTE   VOL   21*AltinCaves_mvl/mxv
 BYTE   W01
 BYTE   VOL   22*AltinCaves_mvl/mxv
 BYTE   W01
 BYTE   VOL   23*AltinCaves_mvl/mxv
 BYTE   N03  Bn2  v070
 BYTE   N03  Gn3
 BYTE   N03  En4
 BYTE   W01
 BYTE   VOL   23*AltinCaves_mvl/mxv
 BYTE   W01
 BYTE   VOL   24*AltinCaves_mvl/mxv
 BYTE   W01
 BYTE   VOL   25*AltinCaves_mvl/mxv
 BYTE   W01
 BYTE   PATT
  POIN2 Label_5_0B17
 BYTE   PATT
  POIN2 Label_5_0B7D
 BYTE   PATT
  POIN2 Label_5_0BE3
 BYTE   PATT
  POIN2 Label_5_0C49
// 021   ----------------------------------------
Label_5_1D76:
 BYTE   VOL   81*AltinCaves_mvl/mxv
 BYTE   W01
 BYTE   VOL   82*AltinCaves_mvl/mxv
 BYTE   W01
 BYTE   VOL   84*AltinCaves_mvl/mxv
 BYTE   W01
 BYTE   VOL   85*AltinCaves_mvl/mxv
 BYTE   VOL   84*AltinCaves_mvl/mxv
 BYTE   W01
 BYTE   VOL   85*AltinCaves_mvl/mxv
 BYTE   W01
 BYTE   VOL   87*AltinCaves_mvl/mxv
 BYTE   W01
 BYTE   VOL   88*AltinCaves_mvl/mxv
 BYTE   W96
 BYTE   W64
 BYTE   W01
 BYTE   N96  En1  v097
 BYTE   W19
 BYTE   En1
 BYTE   W19
 BYTE   N92
 BYTE   W18
 BYTE   N03
 BYTE   W96
 BYTE   W96
 BYTE   W36
 BYTE   W03
 BYTE   N96  Fs1
 BYTE   W19
 BYTE   N44
 BYTE   W08
 BYTE   N03
 BYTE   W96
 BYTE   W20
 BYTE   N96  Gs1
 BYTE   W19
 BYTE   N44
 BYTE   W08
 BYTE   N03
 BYTE   W96
 BYTE   W20
 BYTE   PEND 
// 022   ----------------------------------------
Label_5_2C10:
 BYTE   VOL   8*AltinCaves_mvl/mxv
 BYTE   N96  Cs3  v070
 BYTE   N96  Fs4
 BYTE   N96  An3
 BYTE   W01
 BYTE   VOL   9*AltinCaves_mvl/mxv
 BYTE   W01
 BYTE   VOL   10*AltinCaves_mvl/mxv
 BYTE   W01
 BYTE   VOL   10*AltinCaves_mvl/mxv
 BYTE   W01
 BYTE   VOL   11*AltinCaves_mvl/mxv
 BYTE   W01
 BYTE   VOL   11*AltinCaves_mvl/mxv
 BYTE   W01
 BYTE   VOL   12*AltinCaves_mvl/mxv
 BYTE   W01
 BYTE   VOL   13*AltinCaves_mvl/mxv
 BYTE   W01
 BYTE   VOL   13*AltinCaves_mvl/mxv
 BYTE   W01
 BYTE   VOL   14*AltinCaves_mvl/mxv
 BYTE   W01
 BYTE   VOL   15*AltinCaves_mvl/mxv
 BYTE   W01
 BYTE   VOL   16*AltinCaves_mvl/mxv
 BYTE   N44  Fs4  v070
 BYTE   N44  An3
 BYTE   N44  Cs3
 BYTE   W01
 BYTE   PEND 
// 023   ----------------------------------------
Label_5_2C76:
 BYTE   VOL   16*AltinCaves_mvl/mxv
 BYTE   W01
 BYTE   VOL   17*AltinCaves_mvl/mxv
 BYTE   W01
 BYTE   VOL   18*AltinCaves_mvl/mxv
 BYTE   W01
 BYTE   VOL   19*AltinCaves_mvl/mxv
 BYTE   W01
 BYTE   VOL   19*AltinCaves_mvl/mxv
 BYTE   N03  An3  v070
 BYTE   N03  Fs4
 BYTE   N03  Cs3
 BYTE   W01
 BYTE   VOL   20*AltinCaves_mvl/mxv
 BYTE   W01
 BYTE   VOL   21*AltinCaves_mvl/mxv
 BYTE   W01
 BYTE   VOL   22*AltinCaves_mvl/mxv
 BYTE   W01
 BYTE   VOL   23*AltinCaves_mvl/mxv
 BYTE   W01
 BYTE   VOL   23*AltinCaves_mvl/mxv
 BYTE   W01
 BYTE   VOL   24*AltinCaves_mvl/mxv
 BYTE   W01
 BYTE   VOL   25*AltinCaves_mvl/mxv
 BYTE   W01
 BYTE   PEND 
 BYTE   PATT
  POIN2 Label_5_0B17
 BYTE   PATT
  POIN2 Label_5_0B7D
 BYTE   PATT
  POIN2 Label_5_0BE3
 BYTE   PATT
  POIN2 Label_5_0C49
// 024   ----------------------------------------
Label_5_2E74:
 BYTE   VOL   81*AltinCaves_mvl/mxv
 BYTE   W01
 BYTE   VOL   82*AltinCaves_mvl/mxv
 BYTE   W01
 BYTE   VOL   84*AltinCaves_mvl/mxv
 BYTE   W01
 BYTE   VOL   85*AltinCaves_mvl/mxv
 BYTE   VOL   84*AltinCaves_mvl/mxv
 BYTE   W01
 BYTE   VOL   85*AltinCaves_mvl/mxv
 BYTE   W01
 BYTE   VOL   87*AltinCaves_mvl/mxv
 BYTE   W01
 BYTE   VOL   88*AltinCaves_mvl/mxv
 BYTE   W96
 BYTE   W52
 BYTE   W01
 BYTE   PEND 
// 025   ----------------------------------------
Label_5_3192:
 BYTE   VOL   8*AltinCaves_mvl/mxv
 BYTE   W01
 BYTE   VOL   9*AltinCaves_mvl/mxv
 BYTE   W01
 BYTE   VOL   10*AltinCaves_mvl/mxv
 BYTE   W01
 BYTE   VOL   10*AltinCaves_mvl/mxv
 BYTE   N96  En4  v070
 BYTE   N96  Gn3
 BYTE   N96  Bn2
 BYTE   VOL   11*AltinCaves_mvl/mxv
 BYTE   W01
 BYTE   VOL   11*AltinCaves_mvl/mxv
 BYTE   W01
 BYTE   VOL   12*AltinCaves_mvl/mxv
 BYTE   W01
 BYTE   VOL   13*AltinCaves_mvl/mxv
 BYTE   W01
 BYTE   VOL   13*AltinCaves_mvl/mxv
 BYTE   W01
 BYTE   VOL   14*AltinCaves_mvl/mxv
 BYTE   W01
 BYTE   VOL   15*AltinCaves_mvl/mxv
 BYTE   W01
 BYTE   VOL   16*AltinCaves_mvl/mxv
 BYTE   W01
 BYTE   PEND 
// 026   ----------------------------------------
 BYTE   VOL   16*AltinCaves_mvl/mxv
 BYTE   W01
 BYTE   VOL   17*AltinCaves_mvl/mxv
 BYTE   W01
 BYTE   VOL   18*AltinCaves_mvl/mxv
 BYTE   W01
 BYTE   N44  Gn3  v070
 BYTE   N44  En4
 BYTE   N44  Bn2
 BYTE   VOL   19*AltinCaves_mvl/mxv
 BYTE   W01
 BYTE   VOL   19*AltinCaves_mvl/mxv
 BYTE   W01
 BYTE   VOL   20*AltinCaves_mvl/mxv
 BYTE   W01
 BYTE   VOL   21*AltinCaves_mvl/mxv
 BYTE   W01
 BYTE   VOL   22*AltinCaves_mvl/mxv
 BYTE   W01
 BYTE   VOL   23*AltinCaves_mvl/mxv
 BYTE   N03  Bn2  v070
 BYTE   N03  En4
 BYTE   N03  Gn3
 BYTE   W01
 BYTE   VOL   23*AltinCaves_mvl/mxv
 BYTE   W01
 BYTE   VOL   24*AltinCaves_mvl/mxv
 BYTE   W01
 BYTE   VOL   25*AltinCaves_mvl/mxv
 BYTE   W01
 BYTE   PATT
  POIN2 Label_5_0B17
 BYTE   PATT
  POIN2 Label_5_0B7D
 BYTE   PATT
  POIN2 Label_5_0BE3
 BYTE   PATT
  POIN2 Label_5_0C49
// 027   ----------------------------------------
Label_5_33F6:
 BYTE   VOL   81*AltinCaves_mvl/mxv
 BYTE   W01
 BYTE   VOL   82*AltinCaves_mvl/mxv
 BYTE   W01
 BYTE   VOL   84*AltinCaves_mvl/mxv
 BYTE   W01
 BYTE   VOL   85*AltinCaves_mvl/mxv
 BYTE   VOL   84*AltinCaves_mvl/mxv
 BYTE   W01
 BYTE   VOL   85*AltinCaves_mvl/mxv
 BYTE   W01
 BYTE   VOL   87*AltinCaves_mvl/mxv
 BYTE   W01
 BYTE   VOL   88*AltinCaves_mvl/mxv
 BYTE   W96
 BYTE   W96
 BYTE   W96
 BYTE   W96
 BYTE   W96
 BYTE   W96
 BYTE   W96
 BYTE   W16
 BYTE   PEND 
// 028   ----------------------------------------
 BYTE   VOL   8*AltinCaves_mvl/mxv
 BYTE   W01
 BYTE   N96  An3  v070
 BYTE   N96  Cs3
 BYTE   N96  Fs4
 BYTE   VOL   9*AltinCaves_mvl/mxv
 BYTE   W01
 BYTE   VOL   10*AltinCaves_mvl/mxv
 BYTE   W01
 BYTE   VOL   10*AltinCaves_mvl/mxv
 BYTE   W01
 BYTE   VOL   11*AltinCaves_mvl/mxv
 BYTE   W01
 BYTE   VOL   11*AltinCaves_mvl/mxv
 BYTE   W01
 BYTE   VOL   12*AltinCaves_mvl/mxv
 BYTE   W01
 BYTE   VOL   13*AltinCaves_mvl/mxv
 BYTE   W01
 BYTE   VOL   13*AltinCaves_mvl/mxv
 BYTE   W01
 BYTE   VOL   14*AltinCaves_mvl/mxv
 BYTE   W01
 BYTE   VOL   15*AltinCaves_mvl/mxv
 BYTE   W01
 BYTE   VOL   16*AltinCaves_mvl/mxv
 BYTE   W01
 BYTE   N44  Cs3  v070
 BYTE   N44  Fs4
 BYTE   N44  An3
 BYTE   PATT
  POIN2 Label_5_0AB1
 BYTE   PATT
  POIN2 Label_5_0B17
 BYTE   PATT
  POIN2 Label_5_0B7D
 BYTE   PATT
  POIN2 Label_5_0BE3
 BYTE   PATT
  POIN2 Label_5_0C49
 BYTE   PATT
  POIN2 Label_5_0CAF
// 029   ----------------------------------------
Label_5_4733:
 BYTE   VOL   13*AltinCaves_mvl/mxv
 BYTE   W02
 BYTE   VOL   13*AltinCaves_mvl/mxv
 BYTE   N96  Gn3  v070
 BYTE   N96  En4
 BYTE   N96  Bn2
 BYTE   W01
 BYTE   VOL   14*AltinCaves_mvl/mxv
 BYTE   W02
 BYTE   VOL   15*AltinCaves_mvl/mxv
 BYTE   W01
 BYTE   VOL   16*AltinCaves_mvl/mxv
 BYTE   W02
 BYTE   VOL   16*AltinCaves_mvl/mxv
 BYTE   W01
 BYTE   VOL   17*AltinCaves_mvl/mxv
 BYTE   W02
 BYTE   VOL   18*AltinCaves_mvl/mxv
 BYTE   W02
 BYTE   VOL   19*AltinCaves_mvl/mxv
 BYTE   W01
 BYTE   VOL   19*AltinCaves_mvl/mxv
 BYTE   W02
 BYTE   PEND 
 BYTE   PATT
  POIN2 Label_5_1043
 BYTE   PATT
  POIN2 Label_5_10A3
 BYTE   PATT
  POIN2 Label_5_110C
 BYTE   PATT
  POIN2 Label_5_116C
 BYTE   PATT
  POIN2 Label_5_11CC
 BYTE   PATT
  POIN2 Label_5_1235
 BYTE   PATT
  POIN2 Label_5_1572
// 030   ----------------------------------------
 BYTE   VOL   16*AltinCaves_mvl/mxv
 BYTE   W01
 BYTE   VOL   17*AltinCaves_mvl/mxv
 BYTE   W01
 BYTE   VOL   18*AltinCaves_mvl/mxv
 BYTE   W01
 BYTE   N44  Fs4  v070
 BYTE   N44  Cs3
 BYTE   N44  An3
 BYTE   VOL   19*AltinCaves_mvl/mxv
 BYTE   W01
 BYTE   VOL   19*AltinCaves_mvl/mxv
 BYTE   W01
 BYTE   VOL   20*AltinCaves_mvl/mxv
 BYTE   W01
 BYTE   VOL   21*AltinCaves_mvl/mxv
 BYTE   W01
 BYTE   VOL   22*AltinCaves_mvl/mxv
 BYTE   W01
 BYTE   VOL   23*AltinCaves_mvl/mxv
 BYTE   N03  An3  v070
 BYTE   N03  Fs4
 BYTE   N03  Cs3
 BYTE   W01
 BYTE   VOL   23*AltinCaves_mvl/mxv
 BYTE   W01
 BYTE   VOL   24*AltinCaves_mvl/mxv
 BYTE   W01
 BYTE   VOL   25*AltinCaves_mvl/mxv
 BYTE   W01
 BYTE   PATT
  POIN2 Label_5_0B17
 BYTE   PATT
  POIN2 Label_5_0B7D
 BYTE   PATT
  POIN2 Label_5_0BE3
 BYTE   PATT
  POIN2 Label_5_0C49
 BYTE   PATT
  POIN2 Label_5_17D6
// 031   ----------------------------------------
Label_5_5262:
 BYTE   VOL   8*AltinCaves_mvl/mxv
 BYTE   W01
 BYTE   VOL   9*AltinCaves_mvl/mxv
 BYTE   W01
 BYTE   VOL   10*AltinCaves_mvl/mxv
 BYTE   W01
 BYTE   VOL   10*AltinCaves_mvl/mxv
 BYTE   N96  Gn3  v070
 BYTE   N96  En4
 BYTE   N96  Bn2
 BYTE   VOL   11*AltinCaves_mvl/mxv
 BYTE   W01
 BYTE   VOL   11*AltinCaves_mvl/mxv
 BYTE   W01
 BYTE   VOL   12*AltinCaves_mvl/mxv
 BYTE   W01
 BYTE   VOL   13*AltinCaves_mvl/mxv
 BYTE   W01
 BYTE   VOL   13*AltinCaves_mvl/mxv
 BYTE   W01
 BYTE   VOL   14*AltinCaves_mvl/mxv
 BYTE   W01
 BYTE   VOL   15*AltinCaves_mvl/mxv
 BYTE   W01
 BYTE   VOL   16*AltinCaves_mvl/mxv
 BYTE   W01
 BYTE   PEND 
// 032   ----------------------------------------
 BYTE   VOL   16*AltinCaves_mvl/mxv
 BYTE   W01
 BYTE   VOL   17*AltinCaves_mvl/mxv
 BYTE   W01
 BYTE   VOL   18*AltinCaves_mvl/mxv
 BYTE   W01
 BYTE   N44  En4  v070
 BYTE   N44  Gn3
 BYTE   N44  Bn2
 BYTE   VOL   19*AltinCaves_mvl/mxv
 BYTE   W01
 BYTE   VOL   19*AltinCaves_mvl/mxv
 BYTE   W01
 BYTE   VOL   20*AltinCaves_mvl/mxv
 BYTE   W01
 BYTE   VOL   21*AltinCaves_mvl/mxv
 BYTE   W01
 BYTE   VOL   22*AltinCaves_mvl/mxv
 BYTE   W01
 BYTE   VOL   23*AltinCaves_mvl/mxv
 BYTE   N03  Gn3  v070
 BYTE   N03  Bn2
 BYTE   N03  En4
 BYTE   W01
 BYTE   VOL   23*AltinCaves_mvl/mxv
 BYTE   W01
 BYTE   VOL   24*AltinCaves_mvl/mxv
 BYTE   W01
 BYTE   VOL   25*AltinCaves_mvl/mxv
 BYTE   W01
 BYTE   PATT
  POIN2 Label_5_0B17
 BYTE   PATT
  POIN2 Label_5_0B7D
 BYTE   PATT
  POIN2 Label_5_0BE3
 BYTE   PATT
  POIN2 Label_5_0C49
 BYTE   PATT
  POIN2 Label_5_1D76
// 033   ----------------------------------------
Label_5_6360:
 BYTE   VOL   8*AltinCaves_mvl/mxv
 BYTE   N96  Cs3  v070
 BYTE   N96  Fs4
 BYTE   N96  An3
 BYTE   W01
 BYTE   VOL   9*AltinCaves_mvl/mxv
 BYTE   W01
 BYTE   VOL   10*AltinCaves_mvl/mxv
 BYTE   W01
 BYTE   VOL   10*AltinCaves_mvl/mxv
 BYTE   W01
 BYTE   VOL   11*AltinCaves_mvl/mxv
 BYTE   W01
 BYTE   VOL   11*AltinCaves_mvl/mxv
 BYTE   W01
 BYTE   VOL   12*AltinCaves_mvl/mxv
 BYTE   W01
 BYTE   VOL   13*AltinCaves_mvl/mxv
 BYTE   W01
 BYTE   VOL   13*AltinCaves_mvl/mxv
 BYTE   W01
 BYTE   VOL   14*AltinCaves_mvl/mxv
 BYTE   W01
 BYTE   VOL   15*AltinCaves_mvl/mxv
 BYTE   W01
 BYTE   VOL   16*AltinCaves_mvl/mxv
 BYTE   N44  An3  v070
 BYTE   N44  Cs3
 BYTE   N44  Fs4
 BYTE   W01
 BYTE   PEND 
// 034   ----------------------------------------
Label_5_63C6:
 BYTE   VOL   16*AltinCaves_mvl/mxv
 BYTE   W01
 BYTE   VOL   17*AltinCaves_mvl/mxv
 BYTE   W01
 BYTE   VOL   18*AltinCaves_mvl/mxv
 BYTE   W01
 BYTE   VOL   19*AltinCaves_mvl/mxv
 BYTE   W01
 BYTE   VOL   19*AltinCaves_mvl/mxv
 BYTE   N03  Cs3  v070
 BYTE   N03  Fs4
 BYTE   N03  An3
 BYTE   W01
 BYTE   VOL   20*AltinCaves_mvl/mxv
 BYTE   W01
 BYTE   VOL   21*AltinCaves_mvl/mxv
 BYTE   W01
 BYTE   VOL   22*AltinCaves_mvl/mxv
 BYTE   W01
 BYTE   VOL   23*AltinCaves_mvl/mxv
 BYTE   W01
 BYTE   VOL   23*AltinCaves_mvl/mxv
 BYTE   W01
 BYTE   VOL   24*AltinCaves_mvl/mxv
 BYTE   W01
 BYTE   VOL   25*AltinCaves_mvl/mxv
 BYTE   W01
 BYTE   PEND 
 BYTE   PATT
  POIN2 Label_5_0B17
 BYTE   PATT
  POIN2 Label_5_0B7D
 BYTE   PATT
  POIN2 Label_5_0BE3
 BYTE   PATT
  POIN2 Label_5_0C49
 BYTE   PATT
  POIN2 Label_5_2E74
// 035   ----------------------------------------
Label_5_68E2:
 BYTE   VOL   8*AltinCaves_mvl/mxv
 BYTE   W01
 BYTE   VOL   9*AltinCaves_mvl/mxv
 BYTE   W01
 BYTE   VOL   10*AltinCaves_mvl/mxv
 BYTE   W01
 BYTE   VOL   10*AltinCaves_mvl/mxv
 BYTE   N96  En4  v070
 BYTE   N96  Bn2
 BYTE   N96  Gn3
 BYTE   VOL   11*AltinCaves_mvl/mxv
 BYTE   W01
 BYTE   VOL   11*AltinCaves_mvl/mxv
 BYTE   W01
 BYTE   VOL   12*AltinCaves_mvl/mxv
 BYTE   W01
 BYTE   VOL   13*AltinCaves_mvl/mxv
 BYTE   W01
 BYTE   VOL   13*AltinCaves_mvl/mxv
 BYTE   W01
 BYTE   VOL   14*AltinCaves_mvl/mxv
 BYTE   W01
 BYTE   VOL   15*AltinCaves_mvl/mxv
 BYTE   W01
 BYTE   VOL   16*AltinCaves_mvl/mxv
 BYTE   W01
 BYTE   PEND 
// 036   ----------------------------------------
 BYTE   VOL   16*AltinCaves_mvl/mxv
 BYTE   W01
 BYTE   VOL   17*AltinCaves_mvl/mxv
 BYTE   W01
 BYTE   VOL   18*AltinCaves_mvl/mxv
 BYTE   W01
 BYTE   N44  Gn3  v070
 BYTE   N44  En4
 BYTE   N44  Bn2
 BYTE   VOL   19*AltinCaves_mvl/mxv
 BYTE   W01
 BYTE   VOL   19*AltinCaves_mvl/mxv
 BYTE   W01
 BYTE   VOL   20*AltinCaves_mvl/mxv
 BYTE   W01
 BYTE   VOL   21*AltinCaves_mvl/mxv
 BYTE   W01
 BYTE   VOL   22*AltinCaves_mvl/mxv
 BYTE   W01
 BYTE   VOL   23*AltinCaves_mvl/mxv
 BYTE   N03  Gn3  v070
 BYTE   N03  Bn2
 BYTE   N03  En4
 BYTE   W01
 BYTE   VOL   23*AltinCaves_mvl/mxv
 BYTE   W01
 BYTE   VOL   24*AltinCaves_mvl/mxv
 BYTE   W01
 BYTE   VOL   25*AltinCaves_mvl/mxv
 BYTE   W01
 BYTE   PATT
  POIN2 Label_5_0B17
 BYTE   PATT
  POIN2 Label_5_0B7D
 BYTE   PATT
  POIN2 Label_5_0BE3
 BYTE   PATT
  POIN2 Label_5_0C49
 BYTE   PATT
  POIN2 Label_5_33F6
// 037   ----------------------------------------
 BYTE   VOL   8*AltinCaves_mvl/mxv
 BYTE   W01
 BYTE   N96  Cs3  v070
 BYTE   N96  An3
 BYTE   N96  Fs4
 BYTE   VOL   9*AltinCaves_mvl/mxv
 BYTE   W01
 BYTE   VOL   10*AltinCaves_mvl/mxv
 BYTE   W01
 BYTE   VOL   10*AltinCaves_mvl/mxv
 BYTE   W01
 BYTE   VOL   11*AltinCaves_mvl/mxv
 BYTE   W01
 BYTE   VOL   11*AltinCaves_mvl/mxv
 BYTE   W01
 BYTE   VOL   12*AltinCaves_mvl/mxv
 BYTE   W01
 BYTE   VOL   13*AltinCaves_mvl/mxv
 BYTE   W01
 BYTE   VOL   13*AltinCaves_mvl/mxv
 BYTE   W01
 BYTE   VOL   14*AltinCaves_mvl/mxv
 BYTE   W01
 BYTE   VOL   15*AltinCaves_mvl/mxv
 BYTE   W01
 BYTE   VOL   16*AltinCaves_mvl/mxv
 BYTE   W01
 BYTE   N44  Cs3  v070
 BYTE   N44  An3
 BYTE   N44  Fs4
// 038   ----------------------------------------
 BYTE   VOL   16*AltinCaves_mvl/mxv
 BYTE   W01
 BYTE   VOL   17*AltinCaves_mvl/mxv
 BYTE   W01
 BYTE   VOL   18*AltinCaves_mvl/mxv
 BYTE   W01
 BYTE   VOL   19*AltinCaves_mvl/mxv
 BYTE   W01
 BYTE   VOL   19*AltinCaves_mvl/mxv
 BYTE   W01
 BYTE   VOL   20*AltinCaves_mvl/mxv
 BYTE   N03  Cs3  v070
 BYTE   N03  Fs4
 BYTE   N03  An3
 BYTE   W01
 BYTE   VOL   21*AltinCaves_mvl/mxv
 BYTE   W01
 BYTE   VOL   22*AltinCaves_mvl/mxv
 BYTE   W01
 BYTE   VOL   23*AltinCaves_mvl/mxv
 BYTE   W01
 BYTE   VOL   23*AltinCaves_mvl/mxv
 BYTE   W01
 BYTE   VOL   24*AltinCaves_mvl/mxv
 BYTE   W01
 BYTE   VOL   25*AltinCaves_mvl/mxv
 BYTE   W01
 BYTE   PATT
  POIN2 Label_5_0B17
 BYTE   PATT
  POIN2 Label_5_0B7D
 BYTE   PATT
  POIN2 Label_5_0BE3
 BYTE   PATT
  POIN2 Label_5_0C49
 BYTE   PATT
  POIN2 Label_5_0CAF
 BYTE   PATT
  POIN2 Label_5_4733
// 039   ----------------------------------------
 BYTE   VOL   20*AltinCaves_mvl/mxv
 BYTE   W01
 BYTE   VOL   21*AltinCaves_mvl/mxv
 BYTE   N44  En4  v070
 BYTE   N44  Bn2
 BYTE   N44  Gn3
 BYTE   W01
 BYTE   VOL   22*AltinCaves_mvl/mxv
 BYTE   W02
 BYTE   VOL   23*AltinCaves_mvl/mxv
 BYTE   W01
 BYTE   VOL   23*AltinCaves_mvl/mxv
 BYTE   W02
 BYTE   VOL   24*AltinCaves_mvl/mxv
 BYTE   W01
 BYTE   VOL   25*AltinCaves_mvl/mxv
 BYTE   N03  Bn2  v070
 BYTE   N03  Gn3
 BYTE   N03  En4
 BYTE   W02
 BYTE   VOL   26*AltinCaves_mvl/mxv
 BYTE   W01
 BYTE   VOL   27*AltinCaves_mvl/mxv
 BYTE   W02
 BYTE   VOL   28*AltinCaves_mvl/mxv
 BYTE   W02
 BYTE   PATT
  POIN2 Label_5_10A3
 BYTE   PATT
  POIN2 Label_5_110C
 BYTE   PATT
  POIN2 Label_5_116C
 BYTE   PATT
  POIN2 Label_5_11CC
 BYTE   PATT
  POIN2 Label_5_1235
// 040   ----------------------------------------
 BYTE   VOL   8*AltinCaves_mvl/mxv
 BYTE   W01
 BYTE   VOL   9*AltinCaves_mvl/mxv
 BYTE   W01
 BYTE   VOL   10*AltinCaves_mvl/mxv
 BYTE   W01
 BYTE   VOL   10*AltinCaves_mvl/mxv
 BYTE   N96  An3  v070
 BYTE   N96  Fs4
 BYTE   N96  Cs3
 BYTE   VOL   11*AltinCaves_mvl/mxv
 BYTE   W01
 BYTE   VOL   11*AltinCaves_mvl/mxv
 BYTE   W01
 BYTE   VOL   12*AltinCaves_mvl/mxv
 BYTE   W01
 BYTE   VOL   13*AltinCaves_mvl/mxv
 BYTE   W01
 BYTE   VOL   13*AltinCaves_mvl/mxv
 BYTE   W01
 BYTE   VOL   14*AltinCaves_mvl/mxv
 BYTE   W01
 BYTE   VOL   15*AltinCaves_mvl/mxv
 BYTE   W01
 BYTE   VOL   16*AltinCaves_mvl/mxv
 BYTE   W01
// 041   ----------------------------------------
 BYTE   VOL   16*AltinCaves_mvl/mxv
 BYTE   W01
 BYTE   VOL   17*AltinCaves_mvl/mxv
 BYTE   W01
 BYTE   VOL   18*AltinCaves_mvl/mxv
 BYTE   W01
 BYTE   N44  Fs4  v070
 BYTE   N44  Cs3
 BYTE   N44  An3
 BYTE   VOL   19*AltinCaves_mvl/mxv
 BYTE   W01
 BYTE   VOL   19*AltinCaves_mvl/mxv
 BYTE   W01
 BYTE   VOL   20*AltinCaves_mvl/mxv
 BYTE   W01
 BYTE   VOL   21*AltinCaves_mvl/mxv
 BYTE   W01
 BYTE   VOL   22*AltinCaves_mvl/mxv
 BYTE   W01
 BYTE   VOL   23*AltinCaves_mvl/mxv
 BYTE   N03  Fs4  v070
 BYTE   N03  Cs3
 BYTE   N03  An3
 BYTE   W01
 BYTE   VOL   23*AltinCaves_mvl/mxv
 BYTE   W01
 BYTE   VOL   24*AltinCaves_mvl/mxv
 BYTE   W01
 BYTE   VOL   25*AltinCaves_mvl/mxv
 BYTE   W01
 BYTE   PATT
  POIN2 Label_5_0B17
 BYTE   PATT
  POIN2 Label_5_0B7D
 BYTE   PATT
  POIN2 Label_5_0BE3
 BYTE   PATT
  POIN2 Label_5_0C49
 BYTE   PATT
  POIN2 Label_5_17D6
 BYTE   PATT
  POIN2 Label_5_1B12
// 042   ----------------------------------------
Label_5_8A18:
 BYTE   VOL   16*AltinCaves_mvl/mxv
 BYTE   W01
 BYTE   VOL   17*AltinCaves_mvl/mxv
 BYTE   W01
 BYTE   VOL   18*AltinCaves_mvl/mxv
 BYTE   W01
 BYTE   N44  Gn3  v070
 BYTE   N44  Bn2
 BYTE   N44  En4
 BYTE   VOL   19*AltinCaves_mvl/mxv
 BYTE   W01
 BYTE   VOL   19*AltinCaves_mvl/mxv
 BYTE   W01
 BYTE   VOL   20*AltinCaves_mvl/mxv
 BYTE   W01
 BYTE   VOL   21*AltinCaves_mvl/mxv
 BYTE   W01
 BYTE   VOL   22*AltinCaves_mvl/mxv
 BYTE   W01
 BYTE   VOL   23*AltinCaves_mvl/mxv
 BYTE   N03  Gn3  v070
 BYTE   N03  Bn2
 BYTE   N03  En4
 BYTE   W01
 BYTE   VOL   23*AltinCaves_mvl/mxv
 BYTE   W01
 BYTE   VOL   24*AltinCaves_mvl/mxv
 BYTE   W01
 BYTE   VOL   25*AltinCaves_mvl/mxv
 BYTE   W01
 BYTE   PEND 
 BYTE   PATT
  POIN2 Label_5_0B17
 BYTE   PATT
  POIN2 Label_5_0B7D
 BYTE   PATT
  POIN2 Label_5_0BE3
 BYTE   PATT
  POIN2 Label_5_0C49
 BYTE   PATT
  POIN2 Label_5_1D76
// 043   ----------------------------------------
 BYTE   VOL   8*AltinCaves_mvl/mxv
 BYTE   N96  Fs4  v070
 BYTE   N96  An3
 BYTE   N96  Cs3
 BYTE   W01
 BYTE   VOL   9*AltinCaves_mvl/mxv
 BYTE   W01
 BYTE   VOL   10*AltinCaves_mvl/mxv
 BYTE   W01
 BYTE   VOL   10*AltinCaves_mvl/mxv
 BYTE   W01
 BYTE   VOL   11*AltinCaves_mvl/mxv
 BYTE   W01
 BYTE   VOL   11*AltinCaves_mvl/mxv
 BYTE   W01
 BYTE   VOL   12*AltinCaves_mvl/mxv
 BYTE   W01
 BYTE   VOL   13*AltinCaves_mvl/mxv
 BYTE   W01
 BYTE   VOL   13*AltinCaves_mvl/mxv
 BYTE   W01
 BYTE   VOL   14*AltinCaves_mvl/mxv
 BYTE   W01
 BYTE   VOL   15*AltinCaves_mvl/mxv
 BYTE   W01
 BYTE   VOL   16*AltinCaves_mvl/mxv
 BYTE   N44  Fs4  v070
 BYTE   N44  Cs3
 BYTE   N44  An3
 BYTE   W01
// 044   ----------------------------------------
 BYTE   VOL   16*AltinCaves_mvl/mxv
 BYTE   W01
 BYTE   VOL   17*AltinCaves_mvl/mxv
 BYTE   W01
 BYTE   VOL   18*AltinCaves_mvl/mxv
 BYTE   W01
 BYTE   VOL   19*AltinCaves_mvl/mxv
 BYTE   W01
 BYTE   VOL   19*AltinCaves_mvl/mxv
 BYTE   N03  Fs4  v070
 BYTE   N03  Cs3
 BYTE   N03  An3
 BYTE   W01
 BYTE   VOL   20*AltinCaves_mvl/mxv
 BYTE   W01
 BYTE   VOL   21*AltinCaves_mvl/mxv
 BYTE   W01
 BYTE   VOL   22*AltinCaves_mvl/mxv
 BYTE   W01
 BYTE   VOL   23*AltinCaves_mvl/mxv
 BYTE   W01
 BYTE   VOL   23*AltinCaves_mvl/mxv
 BYTE   W01
 BYTE   VOL   24*AltinCaves_mvl/mxv
 BYTE   W01
 BYTE   VOL   25*AltinCaves_mvl/mxv
 BYTE   W01
 BYTE   PATT
  POIN2 Label_5_0B17
 BYTE   PATT
  POIN2 Label_5_0B7D
 BYTE   PATT
  POIN2 Label_5_0BE3
 BYTE   PATT
  POIN2 Label_5_0C49
 BYTE   PATT
  POIN2 Label_5_2E74
 BYTE   PATT
  POIN2 Label_5_68E2
// 045   ----------------------------------------
 BYTE   VOL   16*AltinCaves_mvl/mxv
 BYTE   W01
 BYTE   VOL   17*AltinCaves_mvl/mxv
 BYTE   W01
 BYTE   VOL   18*AltinCaves_mvl/mxv
 BYTE   W01
 BYTE   N44  Gn3  v070
 BYTE   N44  En4
 BYTE   N44  Bn2
 BYTE   VOL   19*AltinCaves_mvl/mxv
 BYTE   W01
 BYTE   VOL   19*AltinCaves_mvl/mxv
 BYTE   W01
 BYTE   VOL   20*AltinCaves_mvl/mxv
 BYTE   W01
 BYTE   VOL   21*AltinCaves_mvl/mxv
 BYTE   W01
 BYTE   VOL   22*AltinCaves_mvl/mxv
 BYTE   W01
 BYTE   VOL   23*AltinCaves_mvl/mxv
 BYTE   N03  En4  v070
 BYTE   N03  Bn2
 BYTE   N03  Gn3
 BYTE   W01
 BYTE   VOL   23*AltinCaves_mvl/mxv
 BYTE   W01
 BYTE   VOL   24*AltinCaves_mvl/mxv
 BYTE   W01
 BYTE   VOL   25*AltinCaves_mvl/mxv
 BYTE   W01
 BYTE   PATT
  POIN2 Label_5_0B17
 BYTE   PATT
  POIN2 Label_5_0B7D
 BYTE   PATT
  POIN2 Label_5_0BE3
 BYTE   PATT
  POIN2 Label_5_0C49
 BYTE   PATT
  POIN2 Label_5_33F6
 BYTE   PATT
  POIN2 Label_5_6360
// 046   ----------------------------------------
 BYTE   VOL   16*AltinCaves_mvl/mxv
 BYTE   W01
 BYTE   VOL   17*AltinCaves_mvl/mxv
 BYTE   W01
 BYTE   VOL   18*AltinCaves_mvl/mxv
 BYTE   W01
 BYTE   VOL   19*AltinCaves_mvl/mxv
 BYTE   W01
 BYTE   VOL   19*AltinCaves_mvl/mxv
 BYTE   W01
 BYTE   VOL   20*AltinCaves_mvl/mxv
 BYTE   N03  An3  v070
 BYTE   N03  Cs3
 BYTE   N03  Fs4
 BYTE   W01
 BYTE   VOL   21*AltinCaves_mvl/mxv
 BYTE   W01
 BYTE   VOL   22*AltinCaves_mvl/mxv
 BYTE   W01
 BYTE   VOL   23*AltinCaves_mvl/mxv
 BYTE   W01
 BYTE   VOL   23*AltinCaves_mvl/mxv
 BYTE   W01
 BYTE   VOL   24*AltinCaves_mvl/mxv
 BYTE   W01
 BYTE   VOL   25*AltinCaves_mvl/mxv
 BYTE   W01
 BYTE   PATT
  POIN2 Label_5_0B17
 BYTE   PATT
  POIN2 Label_5_0B7D
 BYTE   PATT
  POIN2 Label_5_0BE3
 BYTE   PATT
  POIN2 Label_5_0C49
 BYTE   PATT
  POIN2 Label_5_0CAF
 BYTE   PATT
  POIN2 Label_5_0FE3
// 047   ----------------------------------------
 BYTE   VOL   20*AltinCaves_mvl/mxv
 BYTE   W01
 BYTE   VOL   21*AltinCaves_mvl/mxv
 BYTE   N44  Bn2  v070
 BYTE   N44  Gn3
 BYTE   N44  En4
 BYTE   W01
 BYTE   VOL   22*AltinCaves_mvl/mxv
 BYTE   W02
 BYTE   VOL   23*AltinCaves_mvl/mxv
 BYTE   W01
 BYTE   VOL   23*AltinCaves_mvl/mxv
 BYTE   W02
 BYTE   VOL   24*AltinCaves_mvl/mxv
 BYTE   W01
 BYTE   VOL   25*AltinCaves_mvl/mxv
 BYTE   N03  Bn2  v070
 BYTE   N03  En4
 BYTE   N03  Gn3
 BYTE   W02
 BYTE   VOL   26*AltinCaves_mvl/mxv
 BYTE   W01
 BYTE   VOL   27*AltinCaves_mvl/mxv
 BYTE   W02
 BYTE   VOL   28*AltinCaves_mvl/mxv
 BYTE   W02
 BYTE   PATT
  POIN2 Label_5_10A3
 BYTE   PATT
  POIN2 Label_5_110C
 BYTE   PATT
  POIN2 Label_5_116C
 BYTE   PATT
  POIN2 Label_5_11CC
 BYTE   PATT
  POIN2 Label_5_1235
 BYTE   PATT
  POIN2 Label_5_1572
// 048   ----------------------------------------
 BYTE   VOL   16*AltinCaves_mvl/mxv
 BYTE   W01
 BYTE   VOL   17*AltinCaves_mvl/mxv
 BYTE   W01
 BYTE   VOL   18*AltinCaves_mvl/mxv
 BYTE   W01
 BYTE   N44  An3  v070
 BYTE   N44  Fs4
 BYTE   N44  Cs3
 BYTE   VOL   19*AltinCaves_mvl/mxv
 BYTE   W01
 BYTE   VOL   19*AltinCaves_mvl/mxv
 BYTE   W01
 BYTE   VOL   20*AltinCaves_mvl/mxv
 BYTE   W01
 BYTE   VOL   21*AltinCaves_mvl/mxv
 BYTE   W01
 BYTE   VOL   22*AltinCaves_mvl/mxv
 BYTE   W01
 BYTE   VOL   23*AltinCaves_mvl/mxv
 BYTE   N03  Cs3  v070
 BYTE   N03  An3
 BYTE   N03  Fs4
 BYTE   W01
 BYTE   VOL   23*AltinCaves_mvl/mxv
 BYTE   W01
 BYTE   VOL   24*AltinCaves_mvl/mxv
 BYTE   W01
 BYTE   VOL   25*AltinCaves_mvl/mxv
 BYTE   W01
 BYTE   PATT
  POIN2 Label_5_0B17
 BYTE   PATT
  POIN2 Label_5_0B7D
 BYTE   PATT
  POIN2 Label_5_0BE3
 BYTE   PATT
  POIN2 Label_5_0C49
 BYTE   PATT
  POIN2 Label_5_17D6
 BYTE   PATT
  POIN2 Label_5_3192
// 049   ----------------------------------------
 BYTE   VOL   16*AltinCaves_mvl/mxv
 BYTE   W01
 BYTE   VOL   17*AltinCaves_mvl/mxv
 BYTE   W01
 BYTE   VOL   18*AltinCaves_mvl/mxv
 BYTE   W01
 BYTE   N44  Bn2  v070
 BYTE   N44  Gn3
 BYTE   N44  En4
 BYTE   VOL   19*AltinCaves_mvl/mxv
 BYTE   W01
 BYTE   VOL   19*AltinCaves_mvl/mxv
 BYTE   W01
 BYTE   VOL   20*AltinCaves_mvl/mxv
 BYTE   W01
 BYTE   VOL   21*AltinCaves_mvl/mxv
 BYTE   W01
 BYTE   VOL   22*AltinCaves_mvl/mxv
 BYTE   W01
 BYTE   VOL   23*AltinCaves_mvl/mxv
 BYTE   N03  Bn2  v070
 BYTE   N03  Gn3
 BYTE   N03  En4
 BYTE   W01
 BYTE   VOL   23*AltinCaves_mvl/mxv
 BYTE   W01
 BYTE   VOL   24*AltinCaves_mvl/mxv
 BYTE   W01
 BYTE   VOL   25*AltinCaves_mvl/mxv
 BYTE   W01
 BYTE   PATT
  POIN2 Label_5_0B17
 BYTE   PATT
  POIN2 Label_5_0B7D
 BYTE   PATT
  POIN2 Label_5_0BE3
 BYTE   PATT
  POIN2 Label_5_0C49
 BYTE   PATT
  POIN2 Label_5_1D76
// 050   ----------------------------------------
 BYTE   VOL   8*AltinCaves_mvl/mxv
 BYTE   N96  Cs3  v070
 BYTE   N96  Fs4
 BYTE   N96  An3
 BYTE   W01
 BYTE   VOL   9*AltinCaves_mvl/mxv
 BYTE   W01
 BYTE   VOL   10*AltinCaves_mvl/mxv
 BYTE   W01
 BYTE   VOL   10*AltinCaves_mvl/mxv
 BYTE   W01
 BYTE   VOL   11*AltinCaves_mvl/mxv
 BYTE   W01
 BYTE   VOL   11*AltinCaves_mvl/mxv
 BYTE   W01
 BYTE   VOL   12*AltinCaves_mvl/mxv
 BYTE   W01
 BYTE   VOL   13*AltinCaves_mvl/mxv
 BYTE   W01
 BYTE   VOL   13*AltinCaves_mvl/mxv
 BYTE   W01
 BYTE   VOL   14*AltinCaves_mvl/mxv
 BYTE   W01
 BYTE   VOL   15*AltinCaves_mvl/mxv
 BYTE   W01
 BYTE   VOL   16*AltinCaves_mvl/mxv
 BYTE   N44  Fs4  v070
 BYTE   N44  Cs3
 BYTE   N44  An3
 BYTE   W01
 BYTE   PATT
  POIN2 Label_5_2C76
 BYTE   PATT
  POIN2 Label_5_0B17
 BYTE   PATT
  POIN2 Label_5_0B7D
 BYTE   PATT
  POIN2 Label_5_0BE3
 BYTE   PATT
  POIN2 Label_5_0C49
 BYTE   PATT
  POIN2 Label_5_2E74
 BYTE   PATT
  POIN2 Label_5_3192
// 051   ----------------------------------------
 BYTE   VOL   16*AltinCaves_mvl/mxv
 BYTE   W01
 BYTE   VOL   17*AltinCaves_mvl/mxv
 BYTE   W01
 BYTE   VOL   18*AltinCaves_mvl/mxv
 BYTE   W01
 BYTE   N44  Bn2  v070
 BYTE   N44  En4
 BYTE   N44  Gn3
 BYTE   VOL   19*AltinCaves_mvl/mxv
 BYTE   W01
 BYTE   VOL   19*AltinCaves_mvl/mxv
 BYTE   W01
 BYTE   VOL   20*AltinCaves_mvl/mxv
 BYTE   W01
 BYTE   VOL   21*AltinCaves_mvl/mxv
 BYTE   W01
 BYTE   VOL   22*AltinCaves_mvl/mxv
 BYTE   W01
 BYTE   VOL   23*AltinCaves_mvl/mxv
 BYTE   N03  Gn3  v070
 BYTE   N03  Bn2
 BYTE   N03  En4
 BYTE   W01
 BYTE   VOL   23*AltinCaves_mvl/mxv
 BYTE   W01
 BYTE   VOL   24*AltinCaves_mvl/mxv
 BYTE   W01
 BYTE   VOL   25*AltinCaves_mvl/mxv
 BYTE   W01
 BYTE   PATT
  POIN2 Label_5_0B17
 BYTE   PATT
  POIN2 Label_5_0B7D
 BYTE   PATT
  POIN2 Label_5_0BE3
 BYTE   PATT
  POIN2 Label_5_0C49
 BYTE   PATT
  POIN2 Label_5_33F6
// 052   ----------------------------------------
 BYTE   VOL   8*AltinCaves_mvl/mxv
 BYTE   W01
 BYTE   N96  Cs3  v070
 BYTE   N96  Fs4
 BYTE   N96  An3
 BYTE   VOL   9*AltinCaves_mvl/mxv
 BYTE   W01
 BYTE   VOL   10*AltinCaves_mvl/mxv
 BYTE   W01
 BYTE   VOL   10*AltinCaves_mvl/mxv
 BYTE   W01
 BYTE   VOL   11*AltinCaves_mvl/mxv
 BYTE   W01
 BYTE   VOL   11*AltinCaves_mvl/mxv
 BYTE   W01
 BYTE   VOL   12*AltinCaves_mvl/mxv
 BYTE   W01
 BYTE   VOL   13*AltinCaves_mvl/mxv
 BYTE   W01
 BYTE   VOL   13*AltinCaves_mvl/mxv
 BYTE   W01
 BYTE   VOL   14*AltinCaves_mvl/mxv
 BYTE   W01
 BYTE   VOL   15*AltinCaves_mvl/mxv
 BYTE   W01
 BYTE   VOL   16*AltinCaves_mvl/mxv
 BYTE   W01
 BYTE   N44  Cs3  v070
 BYTE   N44  An3
 BYTE   N44  Fs4
// 053   ----------------------------------------
 BYTE   VOL   16*AltinCaves_mvl/mxv
 BYTE   W01
 BYTE   VOL   17*AltinCaves_mvl/mxv
 BYTE   W01
 BYTE   VOL   18*AltinCaves_mvl/mxv
 BYTE   W01
 BYTE   VOL   19*AltinCaves_mvl/mxv
 BYTE   W01
 BYTE   VOL   19*AltinCaves_mvl/mxv
 BYTE   W01
 BYTE   VOL   20*AltinCaves_mvl/mxv
 BYTE   N03  Cs3  v070
 BYTE   N03  An3
 BYTE   N03  Fs4
 BYTE   W01
 BYTE   VOL   21*AltinCaves_mvl/mxv
 BYTE   W01
 BYTE   VOL   22*AltinCaves_mvl/mxv
 BYTE   W01
 BYTE   VOL   23*AltinCaves_mvl/mxv
 BYTE   W01
 BYTE   VOL   23*AltinCaves_mvl/mxv
 BYTE   W01
 BYTE   VOL   24*AltinCaves_mvl/mxv
 BYTE   W01
 BYTE   VOL   25*AltinCaves_mvl/mxv
 BYTE   W01
 BYTE   PATT
  POIN2 Label_5_0B17
 BYTE   PATT
  POIN2 Label_5_0B7D
 BYTE   PATT
  POIN2 Label_5_0BE3
 BYTE   PATT
  POIN2 Label_5_0C49
 BYTE   PATT
  POIN2 Label_5_0CAF
 BYTE   PATT
  POIN2 Label_5_4733
// 054   ----------------------------------------
 BYTE   VOL   20*AltinCaves_mvl/mxv
 BYTE   W01
 BYTE   VOL   21*AltinCaves_mvl/mxv
 BYTE   N44  Bn2  v070
 BYTE   N44  En4
 BYTE   N44  Gn3
 BYTE   W01
 BYTE   VOL   22*AltinCaves_mvl/mxv
 BYTE   W02
 BYTE   VOL   23*AltinCaves_mvl/mxv
 BYTE   W01
 BYTE   VOL   23*AltinCaves_mvl/mxv
 BYTE   W02
 BYTE   VOL   24*AltinCaves_mvl/mxv
 BYTE   W01
 BYTE   VOL   25*AltinCaves_mvl/mxv
 BYTE   N03  Bn2  v070
 BYTE   N03  En4
 BYTE   N03  Gn3
 BYTE   W02
 BYTE   VOL   26*AltinCaves_mvl/mxv
 BYTE   W01
 BYTE   VOL   27*AltinCaves_mvl/mxv
 BYTE   W02
 BYTE   VOL   28*AltinCaves_mvl/mxv
 BYTE   W02
 BYTE   PATT
  POIN2 Label_5_10A3
 BYTE   PATT
  POIN2 Label_5_110C
 BYTE   PATT
  POIN2 Label_5_116C
 BYTE   PATT
  POIN2 Label_5_11CC
 BYTE   PATT
  POIN2 Label_5_1235
 BYTE   PATT
  POIN2 Label_5_1572
// 055   ----------------------------------------
 BYTE   VOL   16*AltinCaves_mvl/mxv
 BYTE   W01
 BYTE   VOL   17*AltinCaves_mvl/mxv
 BYTE   W01
 BYTE   VOL   18*AltinCaves_mvl/mxv
 BYTE   W01
 BYTE   N44  Fs4  v070
 BYTE   N44  An3
 BYTE   N44  Cs3
 BYTE   VOL   19*AltinCaves_mvl/mxv
 BYTE   W01
 BYTE   VOL   19*AltinCaves_mvl/mxv
 BYTE   W01
 BYTE   VOL   20*AltinCaves_mvl/mxv
 BYTE   W01
 BYTE   VOL   21*AltinCaves_mvl/mxv
 BYTE   W01
 BYTE   VOL   22*AltinCaves_mvl/mxv
 BYTE   W01
 BYTE   VOL   23*AltinCaves_mvl/mxv
 BYTE   N03  An3  v070
 BYTE   N03  Fs4
 BYTE   N03  Cs3
 BYTE   W01
 BYTE   VOL   23*AltinCaves_mvl/mxv
 BYTE   W01
 BYTE   VOL   24*AltinCaves_mvl/mxv
 BYTE   W01
 BYTE   VOL   25*AltinCaves_mvl/mxv
 BYTE   W01
 BYTE   PATT
  POIN2 Label_5_0B17
 BYTE   PATT
  POIN2 Label_5_0B7D
 BYTE   PATT
  POIN2 Label_5_0BE3
 BYTE   PATT
  POIN2 Label_5_0C49
 BYTE   PATT
  POIN2 Label_5_17D6
 BYTE   PATT
  POIN2 Label_5_3192
 BYTE   PATT
  POIN2 Label_5_8A18
 BYTE   PATT
  POIN2 Label_5_0B17
 BYTE   PATT
  POIN2 Label_5_0B7D
 BYTE   PATT
  POIN2 Label_5_0BE3
 BYTE   PATT
  POIN2 Label_5_0C49
 BYTE   PATT
  POIN2 Label_5_1D76
// 056   ----------------------------------------
 BYTE   VOL   8*AltinCaves_mvl/mxv
 BYTE   N96  Cs3  v070
 BYTE   N96  Fs4
 BYTE   N96  An3
 BYTE   W01
 BYTE   VOL   9*AltinCaves_mvl/mxv
 BYTE   W01
 BYTE   VOL   10*AltinCaves_mvl/mxv
 BYTE   W01
 BYTE   VOL   10*AltinCaves_mvl/mxv
 BYTE   W01
 BYTE   VOL   11*AltinCaves_mvl/mxv
 BYTE   W01
 BYTE   VOL   11*AltinCaves_mvl/mxv
 BYTE   W01
 BYTE   VOL   12*AltinCaves_mvl/mxv
 BYTE   W01
 BYTE   VOL   13*AltinCaves_mvl/mxv
 BYTE   W01
 BYTE   VOL   13*AltinCaves_mvl/mxv
 BYTE   W01
 BYTE   VOL   14*AltinCaves_mvl/mxv
 BYTE   W01
 BYTE   VOL   15*AltinCaves_mvl/mxv
 BYTE   W01
 BYTE   VOL   16*AltinCaves_mvl/mxv
 BYTE   N44  An3  v070
 BYTE   N44  Fs4
 BYTE   N44  Cs3
 BYTE   W01
 BYTE   PATT
  POIN2 Label_5_63C6
 BYTE   PATT
  POIN2 Label_5_0B17
 BYTE   PATT
  POIN2 Label_5_0B7D
 BYTE   PATT
  POIN2 Label_5_0BE3
 BYTE   PATT
  POIN2 Label_5_0C49
 BYTE   PATT
  POIN2 Label_5_2E74
 BYTE   PATT
  POIN2 Label_5_3192
// 057   ----------------------------------------
 BYTE   VOL   16*AltinCaves_mvl/mxv
 BYTE   W01
 BYTE   VOL   17*AltinCaves_mvl/mxv
 BYTE   W01
 BYTE   VOL   18*AltinCaves_mvl/mxv
 BYTE   W01
 BYTE   N44  Bn2  v070
 BYTE   N44  En4
 BYTE   N44  Gn3
 BYTE   VOL   19*AltinCaves_mvl/mxv
 BYTE   W01
 BYTE   VOL   19*AltinCaves_mvl/mxv
 BYTE   W01
 BYTE   VOL   20*AltinCaves_mvl/mxv
 BYTE   W01
 BYTE   VOL   21*AltinCaves_mvl/mxv
 BYTE   W01
 BYTE   VOL   22*AltinCaves_mvl/mxv
 BYTE   W01
 BYTE   VOL   23*AltinCaves_mvl/mxv
 BYTE   N03  Bn2  v070
 BYTE   N03  En4
 BYTE   N03  Gn3
 BYTE   W01
 BYTE   VOL   23*AltinCaves_mvl/mxv
 BYTE   W01
 BYTE   VOL   24*AltinCaves_mvl/mxv
 BYTE   W01
 BYTE   VOL   25*AltinCaves_mvl/mxv
 BYTE   W01
 BYTE   PATT
  POIN2 Label_5_0B17
 BYTE   PATT
  POIN2 Label_5_0B7D
 BYTE   PATT
  POIN2 Label_5_0BE3
 BYTE   PATT
  POIN2 Label_5_0C49
 BYTE   PATT
  POIN2 Label_5_33F6
 BYTE   PATT
  POIN2 Label_5_2C10
// 058   ----------------------------------------
 BYTE   VOL   16*AltinCaves_mvl/mxv
 BYTE   W01
 BYTE   VOL   17*AltinCaves_mvl/mxv
 BYTE   W01
 BYTE   VOL   18*AltinCaves_mvl/mxv
 BYTE   W01
 BYTE   VOL   19*AltinCaves_mvl/mxv
 BYTE   W01
 BYTE   VOL   19*AltinCaves_mvl/mxv
 BYTE   W01
 BYTE   VOL   20*AltinCaves_mvl/mxv
 BYTE   N03  Fs4  v070
 BYTE   N03  Cs3
 BYTE   N03  An3
 BYTE   W01
 BYTE   VOL   21*AltinCaves_mvl/mxv
 BYTE   W01
 BYTE   VOL   22*AltinCaves_mvl/mxv
 BYTE   W01
 BYTE   VOL   23*AltinCaves_mvl/mxv
 BYTE   W01
 BYTE   VOL   23*AltinCaves_mvl/mxv
 BYTE   W01
 BYTE   VOL   24*AltinCaves_mvl/mxv
 BYTE   W01
 BYTE   VOL   25*AltinCaves_mvl/mxv
 BYTE   W01
 BYTE   PATT
  POIN2 Label_5_0B17
 BYTE   PATT
  POIN2 Label_5_0B7D
 BYTE   PATT
  POIN2 Label_5_0BE3
 BYTE   PATT
  POIN2 Label_5_0C49
 BYTE   PATT
  POIN2 Label_5_0CAF
 BYTE   PATT
  POIN2 Label_5_4733
// 059   ----------------------------------------
 BYTE   VOL   20*AltinCaves_mvl/mxv
 BYTE   W01
 BYTE   VOL   21*AltinCaves_mvl/mxv
 BYTE   N44  Bn2  v070
 BYTE   N44  Gn3
 BYTE   N44  En4
 BYTE   W01
 BYTE   VOL   22*AltinCaves_mvl/mxv
 BYTE   W02
 BYTE   VOL   23*AltinCaves_mvl/mxv
 BYTE   W01
 BYTE   VOL   23*AltinCaves_mvl/mxv
 BYTE   W02
 BYTE   VOL   24*AltinCaves_mvl/mxv
 BYTE   W01
 BYTE   VOL   25*AltinCaves_mvl/mxv
 BYTE   N03  En4  v070
 BYTE   N03  Bn2
 BYTE   N03  Gn3
 BYTE   W02
 BYTE   VOL   26*AltinCaves_mvl/mxv
 BYTE   W01
 BYTE   VOL   27*AltinCaves_mvl/mxv
 BYTE   W02
 BYTE   VOL   28*AltinCaves_mvl/mxv
 BYTE   W02
 BYTE   PATT
  POIN2 Label_5_10A3
 BYTE   PATT
  POIN2 Label_5_110C
 BYTE   PATT
  POIN2 Label_5_116C
 BYTE   PATT
  POIN2 Label_5_11CC
 BYTE   PATT
  POIN2 Label_5_1235
 BYTE   PATT
  POIN2 Label_5_1572
// 060   ----------------------------------------
 BYTE   VOL   16*AltinCaves_mvl/mxv
 BYTE   W01
 BYTE   VOL   17*AltinCaves_mvl/mxv
 BYTE   W01
 BYTE   VOL   18*AltinCaves_mvl/mxv
 BYTE   W01
 BYTE   N44  An3  v070
 BYTE   N44  Fs4
 BYTE   N44  Cs3
 BYTE   VOL   19*AltinCaves_mvl/mxv
 BYTE   W01
 BYTE   VOL   19*AltinCaves_mvl/mxv
 BYTE   W01
 BYTE   VOL   20*AltinCaves_mvl/mxv
 BYTE   W01
 BYTE   VOL   21*AltinCaves_mvl/mxv
 BYTE   W01
 BYTE   VOL   22*AltinCaves_mvl/mxv
 BYTE   W01
 BYTE   VOL   23*AltinCaves_mvl/mxv
 BYTE   N03  An3  v070
 BYTE   N03  Fs4
 BYTE   N03  Cs3
 BYTE   W01
 BYTE   VOL   23*AltinCaves_mvl/mxv
 BYTE   W01
 BYTE   VOL   24*AltinCaves_mvl/mxv
 BYTE   W01
 BYTE   VOL   25*AltinCaves_mvl/mxv
 BYTE   W01
 BYTE   PATT
  POIN2 Label_5_0B17
 BYTE   PATT
  POIN2 Label_5_0B7D
 BYTE   PATT
  POIN2 Label_5_0BE3
 BYTE   PATT
  POIN2 Label_5_0C49
 BYTE   PATT
  POIN2 Label_5_17D6
 BYTE   PATT
  POIN2 Label_5_3192
// 061   ----------------------------------------
 BYTE   VOL   16*AltinCaves_mvl/mxv
 BYTE   W01
 BYTE   VOL   17*AltinCaves_mvl/mxv
 BYTE   W01
 BYTE   VOL   18*AltinCaves_mvl/mxv
 BYTE   W01
 BYTE   N44  Gn3  v070
 BYTE   N44  Bn2
 BYTE   N44  En4
 BYTE   VOL   19*AltinCaves_mvl/mxv
 BYTE   W01
 BYTE   VOL   19*AltinCaves_mvl/mxv
 BYTE   W01
 BYTE   VOL   20*AltinCaves_mvl/mxv
 BYTE   W01
 BYTE   VOL   21*AltinCaves_mvl/mxv
 BYTE   W01
 BYTE   VOL   22*AltinCaves_mvl/mxv
 BYTE   W01
 BYTE   VOL   23*AltinCaves_mvl/mxv
 BYTE   N03  En4  v070
 BYTE   N03  Bn2
 BYTE   N03  Gn3
 BYTE   W01
 BYTE   VOL   23*AltinCaves_mvl/mxv
 BYTE   W01
 BYTE   VOL   24*AltinCaves_mvl/mxv
 BYTE   W01
 BYTE   VOL   25*AltinCaves_mvl/mxv
 BYTE   W01
 BYTE   PATT
  POIN2 Label_5_0B17
 BYTE   PATT
  POIN2 Label_5_0B7D
 BYTE   PATT
  POIN2 Label_5_0BE3
 BYTE   PATT
  POIN2 Label_5_0C49
 BYTE   PATT
  POIN2 Label_5_1D76
// 062   ----------------------------------------
 BYTE   VOL   8*AltinCaves_mvl/mxv
 BYTE   N96  Fs4  v070
 BYTE   N96  Cs3
 BYTE   N96  An3
 BYTE   W01
 BYTE   VOL   9*AltinCaves_mvl/mxv
 BYTE   W01
 BYTE   VOL   10*AltinCaves_mvl/mxv
 BYTE   W01
 BYTE   VOL   10*AltinCaves_mvl/mxv
 BYTE   W01
 BYTE   VOL   11*AltinCaves_mvl/mxv
 BYTE   W01
 BYTE   VOL   11*AltinCaves_mvl/mxv
 BYTE   W01
 BYTE   VOL   12*AltinCaves_mvl/mxv
 BYTE   W01
 BYTE   VOL   13*AltinCaves_mvl/mxv
 BYTE   W01
 BYTE   VOL   13*AltinCaves_mvl/mxv
 BYTE   W01
 BYTE   VOL   14*AltinCaves_mvl/mxv
 BYTE   W01
 BYTE   VOL   15*AltinCaves_mvl/mxv
 BYTE   W01
 BYTE   VOL   16*AltinCaves_mvl/mxv
 BYTE   N44  Fs4  v070
 BYTE   N44  An3
 BYTE   N44  Cs3
 BYTE   W01
 BYTE   PATT
  POIN2 Label_5_2C76
 BYTE   PATT
  POIN2 Label_5_0B17
 BYTE   PATT
  POIN2 Label_5_0B7D
 BYTE   PATT
  POIN2 Label_5_0BE3
 BYTE   PATT
  POIN2 Label_5_0C49
 BYTE   PATT
  POIN2 Label_5_2E74
 BYTE   PATT
  POIN2 Label_5_5262
// 063   ----------------------------------------
 BYTE   VOL   16*AltinCaves_mvl/mxv
 BYTE   W01
 BYTE   VOL   17*AltinCaves_mvl/mxv
 BYTE   W01
 BYTE   VOL   18*AltinCaves_mvl/mxv
 BYTE   W01
 BYTE   N44  Bn2  v070
 BYTE   N44  Gn3
 BYTE   N44  En4
 BYTE   VOL   19*AltinCaves_mvl/mxv
 BYTE   W01
 BYTE   VOL   19*AltinCaves_mvl/mxv
 BYTE   W01
 BYTE   VOL   20*AltinCaves_mvl/mxv
 BYTE   W01
 BYTE   VOL   21*AltinCaves_mvl/mxv
 BYTE   W01
 BYTE   VOL   22*AltinCaves_mvl/mxv
 BYTE   W01
 BYTE   VOL   23*AltinCaves_mvl/mxv
 BYTE   N03  Gn3  v070
 BYTE   N03  Bn2
 BYTE   N03  En4
 BYTE   W01
 BYTE   VOL   23*AltinCaves_mvl/mxv
 BYTE   W01
 BYTE   VOL   24*AltinCaves_mvl/mxv
 BYTE   W01
 BYTE   VOL   25*AltinCaves_mvl/mxv
 BYTE   W01
 BYTE   PATT
  POIN2 Label_5_0B17
 BYTE   PATT
  POIN2 Label_5_0B7D
 BYTE   PATT
  POIN2 Label_5_0BE3
 BYTE   PATT
  POIN2 Label_5_0C49
// 064   ----------------------------------------
 BYTE   VOL   81*AltinCaves_mvl/mxv
 BYTE   W01
 BYTE   VOL   82*AltinCaves_mvl/mxv
 BYTE   W01
 BYTE   VOL   84*AltinCaves_mvl/mxv
 BYTE   W01
 BYTE   VOL   85*AltinCaves_mvl/mxv
 BYTE   VOL   84*AltinCaves_mvl/mxv
 BYTE   W01
 BYTE   VOL   85*AltinCaves_mvl/mxv
 BYTE   W01
 BYTE   VOL   87*AltinCaves_mvl/mxv
 BYTE   W01
 BYTE   VOL   88*AltinCaves_mvl/mxv
 BYTE   W96
 BYTE   W68
 BYTE   W01
 BYTE   GoTo
  POIN2 Label_5_00
 BYTE   FINE

//**************** Track 7 (Midi-Chn.6) ****************//

AltinCaves_007:
// 000   ----------------------------------------
Label_6_00:
 BYTE   TEMPO   72*AltinCaves_tbs/2
 BYTE   KEYSH   AltinCaves_key+0
 BYTE   VOICE   24
 BYTE   VOL   16*AltinCaves_mvl/mxv
 BYTE   PAN   c_v+6
 BYTE   BEND   c_v-24
 BYTE   W96
 BYTE   W96
 BYTE   W96
 BYTE   W96
 BYTE   W96
// 001   ----------------------------------------
 BYTE   W96
 BYTE   W96
// 002   ----------------------------------------
Label_6_0D20:
 BYTE   N02  Bn0  v110
 BYTE   W24
 BYTE   Cn2
 BYTE   W03
 BYTE   An1
 BYTE   W03
 BYTE   Fn1
 BYTE   W03
 BYTE   Cn2
 BYTE   W03
 BYTE   Cn2
 BYTE   W10
 BYTE   An1
 BYTE   W03
 BYTE   An1
 BYTE   W03
 BYTE   An1
 BYTE   W08
 BYTE   Fn1
 BYTE   N02  Bn0
 BYTE   W06
 BYTE   Fn1
 BYTE   N02  Bn0
 BYTE   W06
 BYTE   Cn2
 BYTE   W06
 BYTE   Cn2
 BYTE   W03
 BYTE   Cn2
 BYTE   W03
 BYTE   Cn2
 BYTE   W06
 BYTE   An1
 BYTE   W06
 BYTE   PEND 
// 003   ----------------------------------------
Label_6_0F00:
 BYTE   N02  An1  v110
 BYTE   W03
 BYTE   An1
 BYTE   W03
 BYTE   An1
 BYTE   W06
 BYTE   En1
 BYTE   W06
 BYTE   Bn0
 BYTE   W06
 BYTE   Bn0
 BYTE   W06
 BYTE   En1
 BYTE   W03
 BYTE   En1
 BYTE   W03
 BYTE   An1
 BYTE   W03
 BYTE   An1
 BYTE   W03
 BYTE   Fn1
 BYTE   W03
 BYTE   Fn1
 BYTE   W03
 BYTE   Bn0
 BYTE   W96
 BYTE   W30
 BYTE   PEND 
// 004   ----------------------------------------
Label_6_1266:
 BYTE   N02  En1  v110
 BYTE   W18
 BYTE   Bn0
 BYTE   W06
 BYTE   Bn0
 BYTE   W03
 BYTE   Bn0
 BYTE   W03
 BYTE   Bn0
 BYTE   W06
 BYTE   Bn0
 BYTE   W03
 BYTE   Bn0
 BYTE   W03
 BYTE   Bn0
 BYTE   W03
 BYTE   Bn0
 BYTE   W03
 BYTE   Fn1
 BYTE   N02  En1
 BYTE   W06
 BYTE   En1
 BYTE   W06
 BYTE   Bn0
 BYTE   W06
 BYTE   Bn0
 BYTE   W06
 BYTE   En1
 BYTE   W06
 BYTE   Bn0
 BYTE   W06
 BYTE   Bn0
 BYTE   W06
 BYTE   Bn0
 BYTE   W06
 BYTE   PEND 
// 005   ----------------------------------------
Label_6_1446:
 BYTE   N02  Bn0  v110
 BYTE   W06
 BYTE   Bn0
 BYTE   W06
 BYTE   En1
 BYTE   W06
 BYTE   Bn0
 BYTE   W06
 BYTE   Bn0
 BYTE   W06
 BYTE   Cn2
 BYTE   W03
 BYTE   Cn2
 BYTE   W03
 BYTE   Cn2
 BYTE   W03
 BYTE   An1
 BYTE   W03
 BYTE   An1
 BYTE   W03
 BYTE   An1
 BYTE   W03
 BYTE   Cn2
 BYTE   W03
 BYTE   Cn2
 BYTE   W03
 BYTE   An1
 BYTE   W03
 BYTE   Fn1
 BYTE   W03
 BYTE   Fn1
 BYTE   W03
 BYTE   Fn1
 BYTE   W03
 BYTE   Fs1
 BYTE   N02  Bn0
 BYTE   W06
 BYTE   Fs1
 BYTE   W06
 BYTE   Bn0
 BYTE   N02  Fs1
 BYTE   W06
 BYTE   Fs1
 BYTE   N02  En1
 BYTE   W06
 BYTE   Bn0
 BYTE   N02  Fs1
 BYTE   W12
 BYTE   PEND 
// 006   ----------------------------------------
Label_6_1644:
 BYTE   N02  Bn0  v110
 BYTE   N02  Fs1
 BYTE   W06
 BYTE   Fs1
 BYTE   W06
 BYTE   Bn0
 BYTE   N02  Fs1
 BYTE   W06
 BYTE   Fs1
 BYTE   N02  En1
 BYTE   W06
 BYTE   Fs1
 BYTE   W12
 BYTE   Fs1
 BYTE   N02  Bn0
 BYTE   W06
 BYTE   Fs1
 BYTE   W06
 BYTE   Bn0
 BYTE   N02  Fs1
 BYTE   W06
 BYTE   Fs1
 BYTE   N02  En1
 BYTE   W06
 BYTE   Fs1
 BYTE   N02  Bn0
 BYTE   W12
 BYTE   Fs1
 BYTE   N02  Bn0
 BYTE   W06
 BYTE   Fs1
 BYTE   W06
 BYTE   Fs1
 BYTE   N02  Bn0
 BYTE   W06
 BYTE   En1
 BYTE   N02  Fs1
 BYTE   W06
 BYTE   PEND 
// 007   ----------------------------------------
Label_6_1824:
 BYTE   N02  Fs1  v110
 BYTE   N02  Bn0
 BYTE   W12
 BYTE   Fs1
 BYTE   N02  Bn0
 BYTE   W06
 BYTE   Fs1
 BYTE   W06
 BYTE   Fs1
 BYTE   N02  Bn0
 BYTE   W06
 BYTE   En1
 BYTE   N02  Fs1
 BYTE   W06
 BYTE   Fs1
 BYTE   N02  Bn0
 BYTE   W12
 BYTE   Fs1
 BYTE   N02  Bn0
 BYTE   W06
 BYTE   Fs1
 BYTE   W06
 BYTE   Fs1
 BYTE   N02  Bn0
 BYTE   W06
 BYTE   Fs1
 BYTE   N02  En1
 BYTE   W06
 BYTE   An1
 BYTE   N02  Fs1
 BYTE   W06
 BYTE   Fn1
 BYTE   W06
 BYTE   Bn0
 BYTE   N02  Fs1
 BYTE   W06
 BYTE   Fs1
 BYTE   W06
 BYTE   PEND 
// 008   ----------------------------------------
Label_6_1A04:
 BYTE   N02  Bn0  v110
 BYTE   N02  Fs1
 BYTE   W06
 BYTE   En1
 BYTE   N02  Fs1
 BYTE   W06
 BYTE   Fs1
 BYTE   N02  Bn0
 BYTE   W12
 BYTE   Bn0
 BYTE   N02  Fs1
 BYTE   W06
 BYTE   Fs1
 BYTE   W06
 BYTE   Bn0
 BYTE   N02  Fs1
 BYTE   W06
 BYTE   En1
 BYTE   N02  Fs1
 BYTE   W06
 BYTE   Bn0
 BYTE   N02  Fs1
 BYTE   W06
 BYTE   En1
 BYTE   W06
 BYTE   Fs1
 BYTE   N02  Bn0
 BYTE   W06
 BYTE   Fs1
 BYTE   W06
 BYTE   Fs1
 BYTE   W06
 BYTE   En1
 BYTE   N02  Fs1
 BYTE   W06
 BYTE   Bn0
 BYTE   N02  Fs1
 BYTE   W06
 BYTE   En1
 BYTE   W06
 BYTE   PEND 
// 009   ----------------------------------------
Label_6_1BE4:
 BYTE   N02  Fs1  v110
 BYTE   N02  Bn0
 BYTE   W06
 BYTE   Fs1
 BYTE   W06
 BYTE   Fs1
 BYTE   W06
 BYTE   En1
 BYTE   N02  Fs1
 BYTE   W06
 BYTE   Bn0
 BYTE   N02  Fs1
 BYTE   W06
 BYTE   En1
 BYTE   W06
 BYTE   Bn0
 BYTE   N02  Fs1
 BYTE   W06
 BYTE   Fs1
 BYTE   W06
 BYTE   Fs1
 BYTE   W06
 BYTE   En1
 BYTE   N02  Fs1
 BYTE   W06
 BYTE   Fs1
 BYTE   N02  Bn0
 BYTE   W06
 BYTE   En1
 BYTE   W06
 BYTE   Fs1
 BYTE   N02  Bn0
 BYTE   W06
 BYTE   Fs1
 BYTE   W06
 BYTE   Fs1
 BYTE   W06
 BYTE   Fs1
 BYTE   N02  En1
 BYTE   W06
 BYTE   PEND 
// 010   ----------------------------------------
Label_6_1DC4:
 BYTE   N02  Fs1  v110
 BYTE   N02  Bn0
 BYTE   W06
 BYTE   En1
 BYTE   W06
 BYTE   Bn0
 BYTE   W24
 BYTE   Cn2
 BYTE   W03
 BYTE   An1
 BYTE   W03
 BYTE   Fn1
 BYTE   W03
 BYTE   Cn2
 BYTE   W03
 BYTE   Cn2
 BYTE   W10
 BYTE   An1
 BYTE   W03
 BYTE   An1
 BYTE   W03
 BYTE   An1
 BYTE   W08
 BYTE   Fn1
 BYTE   N02  Bn0
 BYTE   W06
 BYTE   Fn1
 BYTE   N02  Bn0
 BYTE   W06
 BYTE   Cn2
 BYTE   W06
 BYTE   Cn2
 BYTE   W03
 BYTE   Cn2
 BYTE   W03
 BYTE   PEND 
// 011   ----------------------------------------
Label_6_1FA4:
 BYTE   N02  Cn2  v110
 BYTE   W06
 BYTE   An1
 BYTE   W06
 BYTE   An1
 BYTE   W03
 BYTE   An1
 BYTE   W03
 BYTE   An1
 BYTE   W06
 BYTE   En1
 BYTE   W06
 BYTE   Bn0
 BYTE   W06
 BYTE   Bn0
 BYTE   W06
 BYTE   En1
 BYTE   W03
 BYTE   En1
 BYTE   W03
 BYTE   An1
 BYTE   W03
 BYTE   An1
 BYTE   W03
 BYTE   Fn1
 BYTE   W03
 BYTE   Fn1
 BYTE   W03
 BYTE   Fs1
 BYTE   W06
 BYTE   Fs1  v074
 BYTE   W06
 BYTE   Fs1
 BYTE   W06
 BYTE   Fs1  v110
 BYTE   W06
 BYTE   Fs1  v074
 BYTE   W06
 BYTE   Fs1
 BYTE   W06
 BYTE   PEND 
// 012   ----------------------------------------
Label_6_2184:
 BYTE   N02  Fs1  v110
 BYTE   W06
 BYTE   Fs1  v074
 BYTE   W06
 BYTE   Fs1
 BYTE   W06
 BYTE   Fs1  v110
 BYTE   W06
 BYTE   Fs1  v074
 BYTE   W06
 BYTE   Fs1
 BYTE   W06
 BYTE   Fs1  v110
 BYTE   W06
 BYTE   Fs1  v074
 BYTE   W06
 BYTE   Fs1
 BYTE   W06
 BYTE   Fs1  v110
 BYTE   W06
 BYTE   Fs1  v074
 BYTE   W03
 BYTE   Fs1
 BYTE   W03
 BYTE   Fs1
 BYTE   W06
 BYTE   Fs1  v110
 BYTE   W06
 BYTE   Fs1  v074
 BYTE   W06
 BYTE   Fs1
 BYTE   W06
 BYTE   Fs1  v110
 BYTE   W06
 BYTE   PEND 
// 013   ----------------------------------------
Label_6_2364:
 BYTE   N02  Fs1  v074
 BYTE   W06
 BYTE   Fs1
 BYTE   W06
 BYTE   Fs1  v110
 BYTE   W06
 BYTE   Fs1  v074
 BYTE   W06
 BYTE   Fs1
 BYTE   W06
 BYTE   Fs1  v110
 BYTE   W06
 BYTE   Fs1  v074
 BYTE   W06
 BYTE   Fs1
 BYTE   W06
 BYTE   Fs1  v110
 BYTE   W06
 BYTE   Fs1  v074
 BYTE   W06
 BYTE   Fs1
 BYTE   W06
 BYTE   Fs1  v110
 BYTE   W06
 BYTE   Fs1  v074
 BYTE   W06
 BYTE   Fs1
 BYTE   W06
 BYTE   Fs1  v110
 BYTE   W06
 BYTE   Fs1  v074
 BYTE   W06
 BYTE   PEND 
// 014   ----------------------------------------
Label_6_2544:
 BYTE   N02  Fs1  v074
 BYTE   W06
 BYTE   Fs1  v110
 BYTE   W06
 BYTE   Fs1  v074
 BYTE   W03
 BYTE   Fs1
 BYTE   W03
 BYTE   Fs1
 BYTE   W06
 BYTE   Fs1  v110
 BYTE   W06
 BYTE   Fs1  v074
 BYTE   W06
 BYTE   Fs1
 BYTE   W06
 BYTE   Fs1  v110
 BYTE   W06
 BYTE   Fs1  v074
 BYTE   W06
 BYTE   Fs1
 BYTE   W06
 BYTE   Bn0  v110
 BYTE   N02  Fs1
 BYTE   W06
 BYTE   Fs1  v074
 BYTE   N02  Bn0  v110
 BYTE   W06
 BYTE   Fs1  v074
 BYTE   N02  Bn0  v110
 BYTE   W06
 BYTE   Fs1
 BYTE   N02  Bn0
 BYTE   W06
 BYTE   Fs1  v074
 BYTE   N02  Bn0  v110
 BYTE   W03
 BYTE   Bn0
 BYTE   W03
 BYTE   Bn0
 BYTE   N02  Fs1  v074
 BYTE   W06
 BYTE   PEND 
// 015   ----------------------------------------
Label_6_2724:
 BYTE   N02  Fs1  v110
 BYTE   N02  En1
 BYTE   W06
 BYTE   Bn0
 BYTE   N02  Fs1  v074
 BYTE   W03
 BYTE   Bn0  v110
 BYTE   W03
 BYTE   Bn0
 BYTE   N02  Fs1  v074
 BYTE   W03
 BYTE   Bn0  v110
 BYTE   W03
 BYTE   En1
 BYTE   N02  Fs1
 BYTE   W06
 BYTE   Bn0
 BYTE   N02  Fs1  v074
 BYTE   W03
 BYTE   Bn0  v110
 BYTE   W03
 BYTE   Bn0
 BYTE   N02  Fs1  v074
 BYTE   W03
 BYTE   Bn0  v110
 BYTE   W03
 BYTE   Fs1
 BYTE   W06
 BYTE   Fs1  v074
 BYTE   W06
 BYTE   Fs1
 BYTE   W06
 BYTE   Fs1  v110
 BYTE   N02  Bn0
 BYTE   W06
 BYTE   Fs1  v074
 BYTE   W06
 BYTE   Fs1
 BYTE   W06
 BYTE   Fs1  v110
 BYTE   W06
 BYTE   Bn0
 BYTE   N02  Fs1  v074
 BYTE   W06
 BYTE   Fs1
 BYTE   N02  Bn0  v110
 BYTE   W06
 BYTE   Bn0
 BYTE   N02  Fs1
 BYTE   W06
 BYTE   PEND 
// 016   ----------------------------------------
Label_6_2904:
 BYTE   N02  Fs1  v074
 BYTE   W06
 BYTE   Fs1
 BYTE   W06
 BYTE   Fs1  v110
 BYTE   N02  Bn0
 BYTE   W06
 BYTE   Fs1  v097
 BYTE   W06
 BYTE   Fs1
 BYTE   W06
 BYTE   En1  v110
 BYTE   N02  Fs1
 BYTE   W06
 BYTE   Fs1  v097
 BYTE   N02  Bn0  v110
 BYTE   W06
 BYTE   En1
 BYTE   W06
 BYTE   Bn0
 BYTE   N02  Fs1
 BYTE   W06
 BYTE   Fs1  v097
 BYTE   W06
 BYTE   Fs1
 BYTE   W06
 BYTE   Fs1  v110
 BYTE   N02  En1
 BYTE   W06
 BYTE   Fs1  v097
 BYTE   N02  Bn0  v110
 BYTE   W06
 BYTE   En1
 BYTE   W06
 BYTE   Bn0
 BYTE   N02  Fs1
 BYTE   W06
 BYTE   Fs1  v097
 BYTE   W06
 BYTE   PEND 
// 017   ----------------------------------------
Label_6_2AE4:
 BYTE   N02  Fs1  v097
 BYTE   W06
 BYTE   En1  v110
 BYTE   N02  Fs1
 BYTE   W06
 BYTE   Fs1  v097
 BYTE   N02  Bn0  v110
 BYTE   W06
 BYTE   En1
 BYTE   W06
 BYTE   Fs1
 BYTE   N02  Bn0
 BYTE   W06
 BYTE   Fs1  v097
 BYTE   W06
 BYTE   Fs1
 BYTE   W06
 BYTE   En1  v110
 BYTE   N02  Fs1
 BYTE   W06
 BYTE   Fs1  v097
 BYTE   N02  Bn0  v110
 BYTE   W06
 BYTE   En1
 BYTE   W06
 BYTE   Fs1
 BYTE   N02  Bn0
 BYTE   W06
 BYTE   Fs1  v097
 BYTE   W06
 BYTE   Fs1
 BYTE   N02  Bn0  v110
 BYTE   W06
 BYTE   En1
 BYTE   N02  Fs1
 BYTE   W06
 BYTE   Bn0
 BYTE   N02  Fs1  v097
 BYTE   W12
 BYTE   PEND 
// 018   ----------------------------------------
Label_6_2CC4:
 BYTE   N02  Bn0  v110
 BYTE   N02  Fs1
 BYTE   W06
 BYTE   Fs1  v097
 BYTE   W06
 BYTE   Fs1
 BYTE   N02  Bn0  v110
 BYTE   W06
 BYTE   En1
 BYTE   N02  Fs1
 BYTE   W06
 BYTE   Fs1  v097
 BYTE   W12
 BYTE   Bn0  v110
 BYTE   N02  Fs1
 BYTE   W06
 BYTE   Fs1  v097
 BYTE   W06
 BYTE   Fs1
 BYTE   N02  Bn0  v110
 BYTE   W06
 BYTE   En1
 BYTE   N02  Fs1
 BYTE   W06
 BYTE   Fs1  v097
 BYTE   N02  Bn0  v110
 BYTE   W12
 BYTE   Bn0
 BYTE   N02  Fs1
 BYTE   W06
 BYTE   Fs1  v097
 BYTE   W06
 BYTE   Bn0  v110
 BYTE   N02  Fs1  v097
 BYTE   W06
 BYTE   Fs1  v110
 BYTE   N02  En1
 BYTE   W06
 BYTE   PEND 
// 019   ----------------------------------------
Label_6_2EA4:
 BYTE   N02  Bn0  v110
 BYTE   N02  Fs1  v097
 BYTE   W12
 BYTE   Bn0  v110
 BYTE   N02  Fs1
 BYTE   W06
 BYTE   Fs1  v097
 BYTE   W06
 BYTE   Bn0  v110
 BYTE   N02  Fs1  v097
 BYTE   W06
 BYTE   Fs1  v110
 BYTE   N02  En1
 BYTE   W06
 BYTE   Bn0
 BYTE   N02  Fs1  v097
 BYTE   W12
 BYTE   Bn0  v110
 BYTE   N02  Fs1
 BYTE   W06
 BYTE   Fs1  v097
 BYTE   W06
 BYTE   Fs1
 BYTE   N02  Bn0  v110
 BYTE   W06
 BYTE   Fs1
 BYTE   N02  En1
 BYTE   W06
 BYTE   Fs1  v097
 BYTE   N02  An1  v110
 BYTE   W06
 BYTE   Fn1
 BYTE   W06
 BYTE   Fs1
 BYTE   N02  Bn0
 BYTE   W06
 BYTE   Fs1  v097
 BYTE   W06
 BYTE   PEND 
// 020   ----------------------------------------
Label_6_3084:
 BYTE   N02  Fs1  v097
 BYTE   N02  Bn0  v110
 BYTE   W06
 BYTE   En1
 BYTE   N02  Fs1
 BYTE   W06
 BYTE   Fs1  v097
 BYTE   N02  Bn0  v110
 BYTE   W12
 BYTE   Fs1
 BYTE   N02  Bn0
 BYTE   W06
 BYTE   Fs1  v097
 BYTE   W06
 BYTE   Bn0  v110
 BYTE   N02  Fs1  v097
 BYTE   W06
 BYTE   Fs1  v110
 BYTE   N02  En1
 BYTE   W06
 BYTE   Fs1  v097
 BYTE   N02  Bn0  v110
 BYTE   W06
 BYTE   En1
 BYTE   W06
 BYTE   Fs1
 BYTE   N02  Bn0
 BYTE   W06
 BYTE   Fs1  v097
 BYTE   W06
 BYTE   Fs1
 BYTE   W06
 BYTE   Bn0  v110
 BYTE   N02  Fs1
 BYTE   W06
 BYTE   Fs1  v097
 BYTE   W12
 BYTE   PEND 
// 021   ----------------------------------------
Label_6_3264:
 BYTE   N02  Bn0  v110
 BYTE   N02  Fs1
 BYTE   W06
 BYTE   Fs1  v097
 BYTE   W06
 BYTE   Fs1
 BYTE   W06
 BYTE   Bn0  v110
 BYTE   N02  Fs1
 BYTE   W06
 BYTE   Fs1  v097
 BYTE   W12
 BYTE   Bn0  v110
 BYTE   N02  Fs1
 BYTE   W06
 BYTE   Bn0
 BYTE   N02  Fs1  v097
 BYTE   W06
 BYTE   Bn0  v110
 BYTE   N02  Fs1  v097
 BYTE   W06
 BYTE   Fs1  v110
 BYTE   N02  Bn0
 BYTE   W06
 BYTE   Fs1  v097
 BYTE   W06
 BYTE   Bn0  v110
 BYTE   W06
 BYTE   En1
 BYTE   N02  Fs1
 BYTE   W06
 BYTE   Bn0
 BYTE   N02  Fs1  v097
 BYTE   W03
 BYTE   Bn0  v110
 BYTE   W03
 BYTE   Fs1  v097
 BYTE   N02  Bn0  v110
 BYTE   W06
 BYTE   Fs1
 BYTE   N02  En1
 BYTE   W06
 BYTE   PEND 
// 022   ----------------------------------------
Label_6_3444:
 BYTE   N02  Bn0  v110
 BYTE   N02  Fs1  v097
 BYTE   W03
 BYTE   Bn0  v110
 BYTE   W03
 BYTE   Bn0
 BYTE   W06
 BYTE   Bn0
 BYTE   W12
 BYTE   Bn0
 BYTE   W06
 BYTE   En1
 BYTE   W06
 BYTE   Bn0
 BYTE   W12
 BYTE   Bn0
 BYTE   W12
 BYTE   Bn0
 BYTE   W06
 BYTE   En1
 BYTE   W06
 BYTE   An1
 BYTE   W06
 BYTE   Fn1
 BYTE   W06
 BYTE   Bn0
 BYTE   W12
 BYTE   PEND 
// 023   ----------------------------------------
Label_6_3624:
 BYTE   N02  Bn0  v110
 BYTE   W06
 BYTE   En1
 BYTE   W06
 BYTE   Bn0
 BYTE   W12
 BYTE   Bn0
 BYTE   W12
 BYTE   Bn0
 BYTE   W06
 BYTE   En1
 BYTE   W06
 BYTE   Bn0
 BYTE   W06
 BYTE   En1
 BYTE   W96
 BYTE   W96
 BYTE   W96
// 024   ----------------------------------------
 BYTE   W96
 BYTE   W96
 BYTE   W96
 BYTE   W96
 BYTE   W06
 BYTE   PEND 
 BYTE   PATT
  POIN2 Label_6_0D20
 BYTE   PATT
  POIN2 Label_6_0F00
 BYTE   PATT
  POIN2 Label_6_1266
 BYTE   PATT
  POIN2 Label_6_1446
 BYTE   PATT
  POIN2 Label_6_1644
 BYTE   PATT
  POIN2 Label_6_1824
 BYTE   PATT
  POIN2 Label_6_1A04
 BYTE   PATT
  POIN2 Label_6_1BE4
 BYTE   PATT
  POIN2 Label_6_1DC4
 BYTE   PATT
  POIN2 Label_6_1FA4
 BYTE   PATT
  POIN2 Label_6_2184
 BYTE   PATT
  POIN2 Label_6_2364
 BYTE   PATT
  POIN2 Label_6_2544
 BYTE   PATT
  POIN2 Label_6_2724
 BYTE   PATT
  POIN2 Label_6_2904
 BYTE   PATT
  POIN2 Label_6_2AE4
 BYTE   PATT
  POIN2 Label_6_2CC4
 BYTE   PATT
  POIN2 Label_6_2EA4
 BYTE   PATT
  POIN2 Label_6_3084
 BYTE   PATT
  POIN2 Label_6_3264
 BYTE   PATT
  POIN2 Label_6_3444
 BYTE   PATT
  POIN2 Label_6_3624
 BYTE   PATT
  POIN2 Label_6_0D20
 BYTE   PATT
  POIN2 Label_6_0F00
 BYTE   PATT
  POIN2 Label_6_1266
 BYTE   PATT
  POIN2 Label_6_1446
 BYTE   PATT
  POIN2 Label_6_1644
 BYTE   PATT
  POIN2 Label_6_1824
 BYTE   PATT
  POIN2 Label_6_1A04
 BYTE   PATT
  POIN2 Label_6_1BE4
 BYTE   PATT
  POIN2 Label_6_1DC4
 BYTE   PATT
  POIN2 Label_6_1FA4
 BYTE   PATT
  POIN2 Label_6_2184
 BYTE   PATT
  POIN2 Label_6_2364
 BYTE   PATT
  POIN2 Label_6_2544
 BYTE   PATT
  POIN2 Label_6_2724
 BYTE   PATT
  POIN2 Label_6_2904
 BYTE   PATT
  POIN2 Label_6_2AE4
 BYTE   PATT
  POIN2 Label_6_2CC4
 BYTE   PATT
  POIN2 Label_6_2EA4
 BYTE   PATT
  POIN2 Label_6_3084
 BYTE   PATT
  POIN2 Label_6_3264
 BYTE   PATT
  POIN2 Label_6_3444
 BYTE   PATT
  POIN2 Label_6_3624
 BYTE   PATT
  POIN2 Label_6_0D20
 BYTE   PATT
  POIN2 Label_6_0F00
 BYTE   PATT
  POIN2 Label_6_1266
 BYTE   PATT
  POIN2 Label_6_1446
 BYTE   PATT
  POIN2 Label_6_1644
 BYTE   PATT
  POIN2 Label_6_1824
 BYTE   PATT
  POIN2 Label_6_1A04
 BYTE   PATT
  POIN2 Label_6_1BE4
 BYTE   PATT
  POIN2 Label_6_1DC4
 BYTE   PATT
  POIN2 Label_6_1FA4
 BYTE   PATT
  POIN2 Label_6_2184
 BYTE   PATT
  POIN2 Label_6_2364
 BYTE   PATT
  POIN2 Label_6_2544
 BYTE   PATT
  POIN2 Label_6_2724
 BYTE   PATT
  POIN2 Label_6_2904
 BYTE   PATT
  POIN2 Label_6_2AE4
 BYTE   PATT
  POIN2 Label_6_2CC4
 BYTE   PATT
  POIN2 Label_6_2EA4
 BYTE   PATT
  POIN2 Label_6_3084
 BYTE   PATT
  POIN2 Label_6_3264
 BYTE   PATT
  POIN2 Label_6_3444
 BYTE   PATT
  POIN2 Label_6_3624
 BYTE   PATT
  POIN2 Label_6_0D20
 BYTE   PATT
  POIN2 Label_6_0F00
 BYTE   PATT
  POIN2 Label_6_1266
 BYTE   PATT
  POIN2 Label_6_1446
 BYTE   PATT
  POIN2 Label_6_1644
 BYTE   PATT
  POIN2 Label_6_1824
 BYTE   PATT
  POIN2 Label_6_1A04
 BYTE   PATT
  POIN2 Label_6_1BE4
 BYTE   PATT
  POIN2 Label_6_1DC4
 BYTE   PATT
  POIN2 Label_6_1FA4
 BYTE   PATT
  POIN2 Label_6_2184
 BYTE   PATT
  POIN2 Label_6_2364
 BYTE   PATT
  POIN2 Label_6_2544
 BYTE   PATT
  POIN2 Label_6_2724
 BYTE   PATT
  POIN2 Label_6_2904
 BYTE   PATT
  POIN2 Label_6_2AE4
 BYTE   PATT
  POIN2 Label_6_2CC4
 BYTE   PATT
  POIN2 Label_6_2EA4
 BYTE   PATT
  POIN2 Label_6_3084
 BYTE   PATT
  POIN2 Label_6_3264
 BYTE   PATT
  POIN2 Label_6_3444
 BYTE   PATT
  POIN2 Label_6_3624
 BYTE   PATT
  POIN2 Label_6_0D20
 BYTE   PATT
  POIN2 Label_6_0F00
 BYTE   PATT
  POIN2 Label_6_1266
 BYTE   PATT
  POIN2 Label_6_1446
 BYTE   PATT
  POIN2 Label_6_1644
 BYTE   PATT
  POIN2 Label_6_1824
 BYTE   PATT
  POIN2 Label_6_1A04
 BYTE   PATT
  POIN2 Label_6_1BE4
 BYTE   PATT
  POIN2 Label_6_1DC4
 BYTE   PATT
  POIN2 Label_6_1FA4
 BYTE   PATT
  POIN2 Label_6_2184
 BYTE   PATT
  POIN2 Label_6_2364
 BYTE   PATT
  POIN2 Label_6_2544
 BYTE   PATT
  POIN2 Label_6_2724
 BYTE   PATT
  POIN2 Label_6_2904
 BYTE   PATT
  POIN2 Label_6_2AE4
 BYTE   PATT
  POIN2 Label_6_2CC4
 BYTE   PATT
  POIN2 Label_6_2EA4
 BYTE   PATT
  POIN2 Label_6_3084
 BYTE   PATT
  POIN2 Label_6_3264
 BYTE   PATT
  POIN2 Label_6_3444
// 025   ----------------------------------------
 BYTE   N02  Bn0  v110
 BYTE   W06
 BYTE   En1
 BYTE   W06
 BYTE   Bn0
 BYTE   W12
 BYTE   Bn0
 BYTE   W12
 BYTE   Bn0
 BYTE   W06
 BYTE   En1
 BYTE   W06
 BYTE   Bn0
 BYTE   W06
 BYTE   En1
 BYTE   W10
// 026   ----------------------------------------
 BYTE   GoTo
  POIN2 Label_6_00
 BYTE   FINE

//******************************************************//
	ALIGN 4

songAltinCaves:
	BYTE	7	// NumTrks
	BYTE	0	// NumBlks
	BYTE	AltinCaves_pri	// Priority
	BYTE	AltinCaves_rev	// Reverb.
    
	POIN2	AltinCaves_grp
    
	POIN2	AltinCaves_001
	POIN2	AltinCaves_002
	POIN2	AltinCaves_003
	POIN2	AltinCaves_004
	POIN2	AltinCaves_005
	POIN2	AltinCaves_006
	POIN2	AltinCaves_007

	
