//Event file generated from Sappy .s format.
	#include "MPlayDef.event"

	#define	songArmoriesOfAvenir_grp  voicegroup000
	#define	songArmoriesOfAvenir_pri  0
	#define	songArmoriesOfAvenir_rev  0
	#define	songArmoriesOfAvenir_mvl  127
	#define	songArmoriesOfAvenir_key  0
	#define	songArmoriesOfAvenir_tbs  1
	#define	songArmoriesOfAvenir_exg  0
	#define	songArmoriesOfAvenir_cmp  1

	// .rodata
	//	songArmoriesOfAvenir
	ALIGN 4


//**************** Track 1 (Midi-Chn.0) ****************//

songArmoriesOfAvenir_001:
// 000   ----------------------------------------
 BYTE   VOL   80*songArmoriesOfAvenir_mvl/mxv
 BYTE   KEYSH   songArmoriesOfAvenir_key+0
 BYTE   TEMPO   90*songArmoriesOfAvenir_tbs/2
 BYTE   VOICE   57
 BYTE   W96
// 001   ----------------------------------------
 BYTE   W96
// 002   ----------------------------------------
 BYTE   W96
// 003   ----------------------------------------
Label_0_01447F47:
 BYTE   N96  En3  v064
 BYTE   W96
// 004   ----------------------------------------
 BYTE   N48  Gs3
 BYTE   W48
 BYTE   An3
 BYTE   W48
// 005   ----------------------------------------
 BYTE   N96  Bn3
 BYTE   W96
// 006   ----------------------------------------
 BYTE   N48  Ds3
 BYTE   W48
 BYTE   En3
 BYTE   W48
// 007   ----------------------------------------
 BYTE   N24  Fs3
 BYTE   W24
 BYTE   N48  Gs3
 BYTE   W72
// 008   ----------------------------------------
 BYTE   N24  Bn3
 BYTE   W24
 BYTE   N48  Cs4
 BYTE   W72
// 009   ----------------------------------------
 BYTE   N96  Bn3
 BYTE   W96
// 010   ----------------------------------------
 BYTE   N24  An3
 BYTE   W24
 BYTE   Gs3
 BYTE   W24
 BYTE   N48  Fs3
 BYTE   W48
// 011   ----------------------------------------
 BYTE   GoTo
  POIN2 Label_0_01447F47
 BYTE   FINE

//**************** Track 2 (Midi-Chn.1) ****************//

songArmoriesOfAvenir_002:
// 000   ----------------------------------------
 BYTE   VOL   80*songArmoriesOfAvenir_mvl/mxv
 BYTE   KEYSH   songArmoriesOfAvenir_key+0
 BYTE   VOICE   58
 BYTE   TIE  En2  v064
 BYTE   W96
// 001   ----------------------------------------
 BYTE   W96
// 002   ----------------------------------------
 BYTE   W48
 BYTE   EOT
 BYTE   N48  Ds2
 BYTE   W48
// 003   ----------------------------------------
Label_1_01447FD0:
 BYTE   TIE  En2  v064
 BYTE   W96
// 004   ----------------------------------------
 BYTE   W96
// 005   ----------------------------------------
 BYTE   W48
 BYTE   EOT
 BYTE   N48  Ds2
 BYTE   W48
// 006   ----------------------------------------
 BYTE   TIE  En2
 BYTE   W96
// 007   ----------------------------------------
 BYTE   W96
// 008   ----------------------------------------
 BYTE   EOT
 BYTE   N96  Gs2
 BYTE   W96
// 009   ----------------------------------------
 BYTE   TIE  Fs2
 BYTE   W96
// 010   ----------------------------------------
 BYTE   W96
// 011   ----------------------------------------
 BYTE   EOT
 BYTE   GoTo
  POIN2 Label_1_01447FD0
 BYTE   FINE

//**************** Track 3 (Midi-Chn.2) ****************//

songArmoriesOfAvenir_003:
// 000   ----------------------------------------
 BYTE   VOL   80*songArmoriesOfAvenir_mvl/mxv
 BYTE   KEYSH   songArmoriesOfAvenir_key+0
 BYTE   VOICE   60
 BYTE   N96  En2  v040
 BYTE   N48  An2
 BYTE   N96  Bn2
 BYTE   W48
 BYTE   N48  Gs2
 BYTE   W48
// 001   ----------------------------------------
Label_2_01447E81:
 BYTE   N96  En2  v040
 BYTE   N96  An2
 BYTE   N96  Cs3
 BYTE   W96
 BYTE   PEND 
// 002   ----------------------------------------
Label_2_01447E8A:
 BYTE   N48  En2  v040
 BYTE   N96  Fs2
 BYTE   N96  Bn2
 BYTE   W48
 BYTE   N48  Ds2
 BYTE   W48
 BYTE   PEND 
// 003   ----------------------------------------
Label_2_01447E96:
 BYTE   N96  En2  v040
 BYTE   N48  An2
 BYTE   N96  Bn2
 BYTE   W48
 BYTE   N48  Gs2
 BYTE   W48
 BYTE   PATT
  POIN2 Label_2_01447E81
 BYTE   PATT
  POIN2 Label_2_01447E8A
// 004   ----------------------------------------
 BYTE   N96  En2  v040
 BYTE   N48  Gs2
 BYTE   N96  Bn2
 BYTE   W48
 BYTE   N48  An2
 BYTE   W48
 BYTE   PATT
  POIN2 Label_2_01447E81
// 005   ----------------------------------------
 BYTE   N96  Gs2  v040
 BYTE   N96  Cs3
 BYTE   N96  En3
 BYTE   W96
// 006   ----------------------------------------
 BYTE   TIE  Fs2
 BYTE   TIE  Bn2
 BYTE   TIE  Ds3
 BYTE   W96
// 007   ----------------------------------------
 BYTE   W96
// 008   ----------------------------------------
 BYTE   EOT
 BYTE   Fs2  v059
 BYTE   Ds3
 BYTE   GoTo
  POIN2 Label_2_01447E96
 BYTE   FINE

//**************** Track 4 (Midi-Chn.3) ****************//

songArmoriesOfAvenir_004:
// 000   ----------------------------------------
 BYTE   VOL   80*songArmoriesOfAvenir_mvl/mxv
 BYTE   KEYSH   songArmoriesOfAvenir_key+0
 BYTE   VOICE   124
 BYTE   N12  Cn1  v064
 BYTE   N12  Dn1
 BYTE   N12  Fs1
 BYTE   N24  En2
 BYTE   W12
 BYTE   N12  Cn1
 BYTE   N06  Dn1
 BYTE   N12  Fs1
 BYTE   W06
 BYTE   N06  Dn1
 BYTE   W06
 BYTE   N12  Cn1
 BYTE   N12  Dn1
 BYTE   N12  Fs1
 BYTE   W12
 BYTE   Cn1
 BYTE   N06  Dn1
 BYTE   N12  Fs1
 BYTE   W06
 BYTE   N06  Dn1
 BYTE   W06
 BYTE   N12  Cn1
 BYTE   N12  Dn1
 BYTE   N12  Fs1
 BYTE   W12
 BYTE   Cn1
 BYTE   N06  Dn1
 BYTE   N12  Fs1
 BYTE   W06
 BYTE   N06  Dn1
 BYTE   W06
 BYTE   N12  Cn1
 BYTE   N12  Dn1
 BYTE   N12  Fs1
 BYTE   W12
 BYTE   Cn1
 BYTE   N06  Dn1
 BYTE   N12  Fs1
 BYTE   W06
 BYTE   N06  Dn1
 BYTE   W06
// 001   ----------------------------------------
 BYTE   N12  Cn1
 BYTE   N12  Dn1
 BYTE   N12  Fs1
 BYTE   N24  En2
 BYTE   W12
 BYTE   N12  Cn1
 BYTE   N06  Dn1
 BYTE   N12  Fs1
 BYTE   W06
 BYTE   N06  Dn1
 BYTE   W06
 BYTE   N12  Cn1
 BYTE   N12  Dn1
 BYTE   N12  Fs1
 BYTE   W12
 BYTE   Cn1
 BYTE   N06  Dn1
 BYTE   N12  Fs1
 BYTE   W06
 BYTE   N06  Dn1
 BYTE   W06
 BYTE   N12  Cn1
 BYTE   N12  Dn1
 BYTE   N12  Fs1
 BYTE   W12
 BYTE   Cn1
 BYTE   N06  Dn1
 BYTE   N12  Fs1
 BYTE   W06
 BYTE   N06  Dn1
 BYTE   W06
 BYTE   N12  Cn1
 BYTE   N12  Dn1
 BYTE   N12  Fs1
 BYTE   W12
 BYTE   Cn1
 BYTE   N06  Dn1
 BYTE   N12  Fs1
 BYTE   W06
 BYTE   N06  Dn1
 BYTE   W06
// 002   ----------------------------------------
 BYTE   N12  Cn1
 BYTE   N12  Dn1
 BYTE   N12  Fs1
 BYTE   N24  En2
 BYTE   W12
 BYTE   N12  Cn1
 BYTE   N06  Dn1
 BYTE   N12  Fs1
 BYTE   W06
 BYTE   N06  Dn1
 BYTE   W06
 BYTE   N12  Cn1
 BYTE   N12  Dn1
 BYTE   N12  Fs1
 BYTE   W12
 BYTE   Cn1
 BYTE   N06  Dn1
 BYTE   N12  Fs1
 BYTE   W06
 BYTE   N06  Dn1
 BYTE   W06
 BYTE   N12  Cn1
 BYTE   N12  Dn1
 BYTE   N12  Fs1
 BYTE   W12
 BYTE   Cn1
 BYTE   N06  Dn1
 BYTE   N12  Fs1
 BYTE   W06
 BYTE   N06  Dn1
 BYTE   W06
 BYTE   Cn1  v048
 BYTE   N06  Dn1
 BYTE   W06
 BYTE   Cn1  v052
 BYTE   N06  En1
 BYTE   W06
 BYTE   Cn1  v056
 BYTE   N06  Gn1
 BYTE   W06
 BYTE   Cn1  v064
 BYTE   N06  En1
 BYTE   W06
// 003   ----------------------------------------
Label_3_0145C8E8:
 BYTE   N12  Cn1  v064
 BYTE   N12  Dn1
 BYTE   N12  Fs1
 BYTE   N24  Cs2
 BYTE   W12
 BYTE   N12  Cn1
 BYTE   N06  Dn1
 BYTE   N12  Fs1
 BYTE   W06
 BYTE   N06  Dn1
 BYTE   W06
 BYTE   N12  Cn1
 BYTE   N12  Dn1
 BYTE   N12  Fs1
 BYTE   W12
 BYTE   Cn1
 BYTE   N06  Dn1
 BYTE   N12  Fs1
 BYTE   W06
 BYTE   N06  Dn1
 BYTE   W06
 BYTE   N12  Cn1
 BYTE   N12  Dn1
 BYTE   N12  Fs1
 BYTE   W12
 BYTE   Cn1
 BYTE   N06  Dn1
 BYTE   N12  Fs1
 BYTE   W06
 BYTE   N06  Dn1
 BYTE   W06
 BYTE   N12  Cn1
 BYTE   N12  Dn1
 BYTE   N12  Fs1
 BYTE   W12
 BYTE   Cn1
 BYTE   N06  Dn1
 BYTE   N12  Fs1
 BYTE   W06
 BYTE   N06  Dn1
 BYTE   W06
 BYTE   PEND 
// 004   ----------------------------------------
Label_3_0145C92D:
 BYTE   N12  Cn1  v064
 BYTE   N12  Dn1
 BYTE   N12  Fs1
 BYTE   W12
 BYTE   Cn1
 BYTE   N06  Dn1
 BYTE   N12  Fs1
 BYTE   W06
 BYTE   N06  Dn1
 BYTE   W06
 BYTE   N12  Cn1
 BYTE   N12  Dn1
 BYTE   N12  Fs1
 BYTE   W12
 BYTE   Cn1
 BYTE   N06  Dn1
 BYTE   N12  Fs1
 BYTE   W06
 BYTE   N06  Dn1
 BYTE   W06
 BYTE   N12  Cn1
 BYTE   N12  Dn1
 BYTE   N12  Fs1
 BYTE   W12
 BYTE   Cn1
 BYTE   N06  Dn1
 BYTE   N12  Fs1
 BYTE   W06
 BYTE   N06  Dn1
 BYTE   W06
 BYTE   N12  Cn1
 BYTE   N12  Dn1
 BYTE   N12  Fs1
 BYTE   W12
 BYTE   Cn1
 BYTE   N06  Dn1
 BYTE   N12  Fs1
 BYTE   W06
 BYTE   N06  Dn1
 BYTE   W06
 BYTE   PEND 
// 005   ----------------------------------------
 BYTE   N12  Cn1
 BYTE   N12  Dn1
 BYTE   N12  Fs1
 BYTE   W12
 BYTE   Cn1
 BYTE   N06  Dn1
 BYTE   N12  Fs1
 BYTE   W06
 BYTE   N06  Dn1
 BYTE   W06
 BYTE   N12  Cn1
 BYTE   N12  Dn1
 BYTE   N12  Fs1
 BYTE   W12
 BYTE   Cn1
 BYTE   N06  Dn1
 BYTE   N12  Fs1
 BYTE   W06
 BYTE   N06  Dn1
 BYTE   W06
 BYTE   N12  Cn1
 BYTE   N12  Dn1
 BYTE   N12  Fs1
 BYTE   W12
 BYTE   Cn1
 BYTE   N06  Dn1
 BYTE   N12  Fs1
 BYTE   W06
 BYTE   N06  Dn1
 BYTE   W06
 BYTE   Cn1  v048
 BYTE   N06  Dn1
 BYTE   W06
 BYTE   Cn1  v052
 BYTE   N06  En1
 BYTE   W06
 BYTE   Cn1  v056
 BYTE   N06  Gn1
 BYTE   W06
 BYTE   Cn1  v064
 BYTE   N06  En1
 BYTE   W06
 BYTE   PATT
  POIN2 Label_3_0145C8E8
 BYTE   PATT
  POIN2 Label_3_0145C92D
 BYTE   PATT
  POIN2 Label_3_0145C92D
 BYTE   PATT
  POIN2 Label_3_0145C92D
// 006   ----------------------------------------
 BYTE   N12  Cn1  v064
 BYTE   N12  Dn1
 BYTE   N12  Fs1
 BYTE   W12
 BYTE   Cn1
 BYTE   N06  Dn1
 BYTE   N12  Fs1
 BYTE   W06
 BYTE   N06  Dn1
 BYTE   W06
 BYTE   N12  Cn1
 BYTE   N12  Dn1
 BYTE   N12  Fs1
 BYTE   W12
 BYTE   Cn1
 BYTE   N06  Dn1
 BYTE   N12  Fs1
 BYTE   W06
 BYTE   N06  Dn1
 BYTE   W06
 BYTE   N12  Cn1
 BYTE   N12  Dn1
 BYTE   N12  Fs1
 BYTE   W12
 BYTE   Cn1
 BYTE   N06  Dn1
 BYTE   N12  Fs1
 BYTE   W06
 BYTE   N06  Dn1
 BYTE   W06
 BYTE   N12  Fs1
 BYTE   W12
 BYTE   N12
 BYTE   W12
// 007   ----------------------------------------
 BYTE   GoTo
  POIN2 Label_3_0145C8E8
 BYTE   FINE

//******************************************************//
	ALIGN 4

songArmoriesOfAvenir:
	BYTE	4	// NumTrks
	BYTE	0	// NumBlks
	BYTE	songArmoriesOfAvenir_pri	// Priority
	BYTE	songArmoriesOfAvenir_rev	// Reverb.
    
	POIN2	songArmoriesOfAvenir_grp
    
	POIN2	songArmoriesOfAvenir_001
	POIN2	songArmoriesOfAvenir_002
	POIN2	songArmoriesOfAvenir_003
	POIN2	songArmoriesOfAvenir_004

	
