//Event file generated from Sappy .s format.
	#include "MPlayDef.event"

	#define	Acent_grp  voicegroup000
	#define	Acent_pri  0
	#define	Acent_rev  0
	#define	Acent_mvl  127
	#define	Acent_key  0
	#define	Acent_tbs  1
	#define	Acent_exg  0
	#define	Acent_cmp  1

	// .rodata
	//	Acent
	ALIGN 4


//**************** Track 1 (Midi-Chn.0) ****************//

Acent_001:
// 000   ----------------------------------------
 BYTE   KEYSH   Acent_key+0
 BYTE   TEMPO   160*Acent_tbs/2
 BYTE   VOICE   56
 BYTE   VOL   51*Acent_mvl/mxv
 BYTE   PAN   c_v-54
 BYTE   N08  Cn3  v100
 BYTE   W08
 BYTE   Gn2
 BYTE   W08
 BYTE   Cn3
 BYTE   W08
 BYTE   TIE  As2
 BYTE   W32
 BYTE   N08  Gs2  v072
 BYTE   W08
 BYTE   Fs2
 BYTE   W08
 BYTE   N24  Gs2
 BYTE   TIE  Ds3  v100
 BYTE   W24
// 001   ----------------------------------------
 BYTE   W96
// 002   ----------------------------------------
 BYTE   N48  Fn3  v080
 BYTE   W24
 BYTE   EOT
 BYTE   As2  v063
 BYTE   W24
 BYTE   N24  Fn3
 BYTE   W24
 BYTE   En3
 BYTE   W24
// 003   ----------------------------------------
Acent_Label_0_0162A1EB:
 BYTE   N09  Fn3  v080
 BYTE   W96
// 004   ----------------------------------------
 BYTE   W96
// 005   ----------------------------------------
 BYTE   W96
// 006   ----------------------------------------
 BYTE   W96
// 007   ----------------------------------------
 BYTE   W96
// 008   ----------------------------------------
 BYTE   W96
// 009   ----------------------------------------
 BYTE   W96
// 010   ----------------------------------------
 BYTE   W96
// 011   ----------------------------------------
 BYTE   W96
// 012   ----------------------------------------
 BYTE   W96
// 013   ----------------------------------------
 BYTE   W96
// 014   ----------------------------------------
 BYTE   W96
// 015   ----------------------------------------
 BYTE   W96
// 016   ----------------------------------------
 BYTE   W48
 BYTE   N24  As2  v060
 BYTE   W24
 BYTE   Gs2
 BYTE   W24
// 017   ----------------------------------------
 BYTE   N48  Fn2
 BYTE   W48
 BYTE   Gn2
 BYTE   W48
// 018   ----------------------------------------
 BYTE   Gs2
 BYTE   W48
 BYTE   As2
 BYTE   W48
// 019   ----------------------------------------
 BYTE   W96
// 020   ----------------------------------------
 BYTE   W96
// 021   ----------------------------------------
 BYTE   W96
// 022   ----------------------------------------
 BYTE   W96
// 023   ----------------------------------------
 BYTE   W96
// 024   ----------------------------------------
 BYTE   N24  Bn3  v100
 BYTE   W24
 BYTE   N08  As3
 BYTE   W24
 BYTE   N24  Fs3
 BYTE   W24
 BYTE   N08  Fn3
 BYTE   W24
// 025   ----------------------------------------
 BYTE   N96  Fn3  v072
 BYTE   N96  Fn4
 BYTE   W96
// 026   ----------------------------------------
 BYTE   N48  En3
 BYTE   N48  En4
 BYTE   W48
 BYTE   Cs3
 BYTE   N48  Cs4
 BYTE   W48
// 027   ----------------------------------------
 BYTE   N96  Gs3
 BYTE   N96  Gs4
 BYTE   W96
// 028   ----------------------------------------
 BYTE   N48  Gn3
 BYTE   N48  Gn4
 BYTE   W48
 BYTE   En3
 BYTE   N48  En4
 BYTE   W48
// 029   ----------------------------------------
 BYTE   W96
// 030   ----------------------------------------
 BYTE   W96
// 031   ----------------------------------------
 BYTE   W96
// 032   ----------------------------------------
 BYTE   W48
 BYTE   W96
// 033   ----------------------------------------
Acent_Label_0_0162A23F:
 BYTE   N08  An2  v060
 BYTE   W16
 BYTE   N08
 BYTE   W08
 BYTE   N08
 BYTE   W08
 BYTE   N08
 BYTE   W08
 BYTE   N08
 BYTE   W08
 BYTE   N08
 BYTE   W16
 BYTE   N08
 BYTE   W08
 BYTE   N08
 BYTE   W16
 BYTE   N08
 BYTE   W08
 BYTE   PEND 
// 034   ----------------------------------------
Acent_Label_0_0162A254:
 BYTE   N08  An2  v060
 BYTE   W16
 BYTE   N08
 BYTE   W08
 BYTE   N08
 BYTE   W08
 BYTE   N08
 BYTE   W08
 BYTE   N08
 BYTE   W08
 BYTE   N08
 BYTE   W16
 BYTE   N08
 BYTE   W08
 BYTE   N08
 BYTE   W24
 BYTE   PEND 
 BYTE   PATT
  POIN2 Acent_Label_0_0162A23F
 BYTE   PATT
  POIN2 Acent_Label_0_0162A254
 BYTE   PATT
  POIN2 Acent_Label_0_0162A254
 BYTE   PATT
  POIN2 Acent_Label_0_0162A254
// 035   ----------------------------------------
 BYTE   W96
// 036   ----------------------------------------
 BYTE   W96
// 037   ----------------------------------------
 BYTE   W96
// 038   ----------------------------------------
 BYTE   W96
// 039   ----------------------------------------
 BYTE   W96
// 040   ----------------------------------------
 BYTE   W96
// 041   ----------------------------------------
 BYTE   W96
// 042   ----------------------------------------
 BYTE   W96
// 043   ----------------------------------------
 BYTE   W96
// 044   ----------------------------------------
 BYTE   W96
// 045   ----------------------------------------
 BYTE   W01
 BYTE   N48  Fn1  v100
 BYTE   W48
 BYTE   Cs1
 BYTE   W44
 BYTE   W03
// 046   ----------------------------------------
 BYTE   W01
 BYTE   Fn1
 BYTE   W44
 BYTE   W03
 BYTE   W01
 BYTE   N96  An0
 BYTE   W01
 BYTE   W01
 BYTE   W01
 BYTE   W01
 BYTE   W01
 BYTE   W01
 BYTE   W01
 BYTE   W01
 BYTE   W01
 BYTE   W01
 BYTE   W01
 BYTE   W01
 BYTE   W01
 BYTE   W01
 BYTE   W01
 BYTE   W01
 BYTE   W01
 BYTE   W01
 BYTE   W01
 BYTE   W01
 BYTE   W02
 BYTE   W01
 BYTE   W01
 BYTE   W02
 BYTE   W01
 BYTE   W02
 BYTE   W01
 BYTE   W01
 BYTE   W02
 BYTE   W01
 BYTE   W01
 BYTE   W02
 BYTE   W01
 BYTE   W01
 BYTE   W02
 BYTE   W01
 BYTE   W02
 BYTE   W01
 BYTE   W01
 BYTE   W01
// 047   ----------------------------------------
 BYTE   W01
 BYTE   W01
 BYTE   W01
 BYTE   W01
 BYTE   W01
 BYTE   W01
 BYTE   W01
 BYTE   W01
 BYTE   W01
 BYTE   W01
 BYTE   W01
 BYTE   W01
 BYTE   W01
 BYTE   W01
 BYTE   W01
 BYTE   W01
 BYTE   W01
 BYTE   W01
 BYTE   W01
 BYTE   W01
 BYTE   W01
 BYTE   W01
 BYTE   W01
 BYTE   W01
 BYTE   W01
 BYTE   W01
 BYTE   W01
 BYTE   W01
 BYTE   W01
 BYTE   W01
 BYTE   W01
 BYTE   W01
 BYTE   W01
 BYTE   W01
 BYTE   W01
 BYTE   W01
 BYTE   W01
 BYTE   W01
 BYTE   W01
 BYTE   W01
 BYTE   W01
 BYTE   W01
 BYTE   W01
 BYTE   W01
 BYTE   W01
 BYTE   W01
 BYTE   W01
 BYTE   W01
 BYTE   W04
 BYTE   W44
// 048   ----------------------------------------
 BYTE   W96
// 049   ----------------------------------------
 BYTE   W96
// 050   ----------------------------------------
 BYTE   N72  An1  v040
 BYTE   N72  En2
 BYTE   W24
 BYTE   N24  Fn3  v100
 BYTE   N24  Fn4
 BYTE   W40
 BYTE   N08  Dn3
 BYTE   N08  Dn4
 BYTE   W08
 BYTE   N96  En1  v040
 BYTE   N96  Dn2
 BYTE   N96  Fs3  v100
 BYTE   N96  Fs4
 BYTE   W96
// 051   ----------------------------------------
 BYTE   N24  As1  v040
 BYTE   N24  Fn2
 BYTE   N48  Fn3  v100
 BYTE   N48  Fn4
 BYTE   W24
 BYTE   N24  Cn2  v040
 BYTE   N24  Gn2
 BYTE   W24
 BYTE   As1
 BYTE   N24  Fn2
 BYTE   N24  En3  v100
 BYTE   N24  En4
 BYTE   W24
 BYTE   TIE  An1  v040
 BYTE   TIE  En2
 BYTE   N96  An2  v100
 BYTE   N96  An3
 BYTE   W96
// 052   ----------------------------------------
 BYTE   N24  Fn2
 BYTE   W48
 BYTE   As2
 BYTE   W24
 BYTE   EOT
 BYTE   An1  v052
 BYTE   W24
// 053   ----------------------------------------
 BYTE   N08  Fn3  v072
 BYTE   N08  Fn4
 BYTE   W08
 BYTE   Fn3
 BYTE   N08  Fn4
 BYTE   W08
 BYTE   Fn3
 BYTE   N08  Fn4
 BYTE   W08
 BYTE   Fn3
 BYTE   N08  Fn4
 BYTE   W16
 BYTE   Cs3
 BYTE   N08  Cs4
 BYTE   W08
 BYTE   N96  Fs3
 BYTE   N96  Fs4
 BYTE   W96
// 054   ----------------------------------------
 BYTE   N24  Fn3
 BYTE   N24  Fn4
 BYTE   W24
 BYTE   En3
 BYTE   N24  En4
 BYTE   W24
 BYTE   N96  An2
 BYTE   N08  Fn3  v060
 BYTE   N96  An3  v072
 BYTE   N08  Fn4  v060
 BYTE   W08
 BYTE   Fn3
 BYTE   N08  Fn4
 BYTE   W08
 BYTE   Fn3
 BYTE   N08  Fn4
 BYTE   W08
 BYTE   Fn3
 BYTE   N08  Fn4
 BYTE   W16
 BYTE   Cs3
 BYTE   N08  Cs4
 BYTE   W32
// 055   ----------------------------------------
 BYTE   W96
// 056   ----------------------------------------
 BYTE   N16  Ds3  v100
 BYTE   W16
 BYTE   N08  Fn3
 BYTE   W08
 BYTE   N24  Gn3
 BYTE   W24
 BYTE   N16  An3
 BYTE   W16
 BYTE   N08  Gn3
 BYTE   W08
 BYTE   N24  Fn3
 BYTE   W24
// 057   ----------------------------------------
 BYTE   N16  Ds3
 BYTE   W16
 BYTE   N08  Fn3
 BYTE   W08
 BYTE   N24  Gn3
 BYTE   W24
 BYTE   N48  Fn3
 BYTE   W48
// 058   ----------------------------------------
 BYTE   N16  Ds3
 BYTE   W16
 BYTE   N08  Fn3
 BYTE   W08
 BYTE   N24  Gn3
 BYTE   W24
 BYTE   N16  Fn3
 BYTE   W16
 BYTE   N08  Gn3
 BYTE   W08
 BYTE   N24  An3
 BYTE   W24
// 059   ----------------------------------------
 BYTE   Gn4
 BYTE   W24
 BYTE   N12  Fn4
 BYTE   W12
 BYTE   Ds4
 BYTE   W12
 BYTE   N48  Cs4
 BYTE   W48
// 060   ----------------------------------------
 BYTE   W96
// 061   ----------------------------------------
 BYTE   W96
// 062   ----------------------------------------
 BYTE   W96
// 063   ----------------------------------------
 BYTE   W96
// 064   ----------------------------------------
 BYTE   W96
// 065   ----------------------------------------
 BYTE   W96
// 066   ----------------------------------------
 BYTE   W48
 BYTE   TIE  Fn3  v072
 BYTE   W48
// 067   ----------------------------------------
 BYTE   W01
 BYTE   W02
 BYTE   W01
 BYTE   W01
 BYTE   W02
 BYTE   W01
 BYTE   W01
 BYTE   W02
 BYTE   W01
 BYTE   W02
 BYTE   W01
 BYTE   W01
 BYTE   W02
 BYTE   W01
 BYTE   W01
 BYTE   W01
 BYTE   W02
 BYTE   W02
 BYTE   W01
 BYTE   W01
 BYTE   W01
 BYTE   W02
 BYTE   W01
 BYTE   W01
 BYTE   W02
 BYTE   W01
 BYTE   W02
 BYTE   W01
 BYTE   W01
 BYTE   W02
 BYTE   W01
 BYTE   W01
 BYTE   W02
 BYTE   W01
 BYTE   W01
 BYTE   W02
 BYTE   W01
 BYTE   W02
 BYTE   W01
 BYTE   W01
 BYTE   W01
 BYTE   W02
 BYTE   W01
 BYTE   W01
 BYTE   W02
 BYTE   W01
 BYTE   W02
 BYTE   W01
 BYTE   W01
 BYTE   W02
 BYTE   W01
 BYTE   W01
 BYTE   W02
 BYTE   W01
 BYTE   W02
 BYTE   W01
 BYTE   W01
 BYTE   W02
 BYTE   W01
 BYTE   W01
 BYTE   W02
 BYTE   W01
 BYTE   W02
 BYTE   W01
 BYTE   W01
 BYTE   W02
 BYTE   W01
 BYTE   W01
 BYTE   W01
 BYTE   W02
 BYTE   W01
// 068   ----------------------------------------
 BYTE   W01
 BYTE   W01
 BYTE   W01
 BYTE   W01
 BYTE   W02
 BYTE   W01
 BYTE   W01
 BYTE   W02
 BYTE   W01
 BYTE   W02
 BYTE   W01
 BYTE   W01
 BYTE   W02
 BYTE   W01
 BYTE   W01
 BYTE   W02
 BYTE   W01
 BYTE   W01
 BYTE   W02
 BYTE   W01
 BYTE   W02
 BYTE   W01
 BYTE   W01
 BYTE   W01
 BYTE   W02
 BYTE   W01
 BYTE   W01
 BYTE   W02
 BYTE   W01
 BYTE   W02
 BYTE   W01
 BYTE   W01
 BYTE   W02
 BYTE   W01
 BYTE   W01
 BYTE   W02
 BYTE   EOT
 BYTE   W24
 BYTE   W01
 BYTE   W23
// 069   ----------------------------------------
 BYTE   W96
// 070   ----------------------------------------
 BYTE   W96
// 071   ----------------------------------------
 BYTE   W96
// 072   ----------------------------------------
 BYTE   W88
 BYTE   N08  Fn3  v080
 BYTE   W08
// 073   ----------------------------------------
 BYTE   TIE  Gn3
 BYTE   W96
// 074   ----------------------------------------
 BYTE   W96
// 075   ----------------------------------------
 BYTE   EOT
 BYTE   N48  Gs4  v072
 BYTE   W48
 BYTE   N24  Gn4
 BYTE   W24
 BYTE   En4
 BYTE   W24
// 076   ----------------------------------------
 BYTE   GoTo
  POIN2 Acent_Label_0_0162A1EB
 BYTE   FINE

//**************** Track 2 (Midi-Chn.1) ****************//

Acent_002:
// 000   ----------------------------------------
 BYTE   KEYSH   Acent_key+0
 BYTE   VOICE   57
 BYTE   VOL   51*Acent_mvl/mxv
 BYTE   PAN   c_v+53
 BYTE   N08  Cn2  v100
 BYTE   W08
 BYTE   Gn2
 BYTE   W08
 BYTE   Cn3
 BYTE   W08
 BYTE   N72  As2
 BYTE   N72  Dn3
 BYTE   W72
// 001   ----------------------------------------
 BYTE   W96
// 002   ----------------------------------------
 BYTE   N48  Fn3  v080
 BYTE   W48
 BYTE   N24
 BYTE   W24
 BYTE   En3
 BYTE   W24
// 003   ----------------------------------------
Acent_Label_1_0162A46A:
 BYTE   N08  Fn3  v080
 BYTE   W96
// 004   ----------------------------------------
 BYTE   W96
// 005   ----------------------------------------
 BYTE   W96
// 006   ----------------------------------------
 BYTE   W96
// 007   ----------------------------------------
 BYTE   W96
// 008   ----------------------------------------
 BYTE   W96
// 009   ----------------------------------------
 BYTE   W96
// 010   ----------------------------------------
 BYTE   W96
// 011   ----------------------------------------
 BYTE   W96
// 012   ----------------------------------------
 BYTE   W96
// 013   ----------------------------------------
 BYTE   W96
// 014   ----------------------------------------
 BYTE   W96
// 015   ----------------------------------------
 BYTE   W96
// 016   ----------------------------------------
 BYTE   W96
// 017   ----------------------------------------
 BYTE   W96
// 018   ----------------------------------------
 BYTE   W96
// 019   ----------------------------------------
 BYTE   W96
// 020   ----------------------------------------
 BYTE   W96
// 021   ----------------------------------------
 BYTE   W96
// 022   ----------------------------------------
 BYTE   W96
// 023   ----------------------------------------
 BYTE   W96
// 024   ----------------------------------------
 BYTE   N24  Fs3  v100
 BYTE   W24
 BYTE   Fn3
 BYTE   W24
 BYTE   Ds3
 BYTE   W24
 BYTE   Dn3
 BYTE   W24
// 025   ----------------------------------------
 BYTE   N96  Cs3  v072
 BYTE   N96  Fn4  v060
 BYTE   W96
// 026   ----------------------------------------
 BYTE   N48  An2  v072
 BYTE   N48  En4  v060
 BYTE   W48
 BYTE   Cs3  v072
 BYTE   N48  Cs4  v060
 BYTE   W48
// 027   ----------------------------------------
 BYTE   N96  En3  v072
 BYTE   N96  Gs4  v060
 BYTE   W96
// 028   ----------------------------------------
 BYTE   N48  Bn2  v072
 BYTE   N48  Gn4  v060
 BYTE   W48
 BYTE   Gn2  v072
 BYTE   N48  En4  v060
 BYTE   W48
// 029   ----------------------------------------
 BYTE   W96
// 030   ----------------------------------------
 BYTE   W96
// 031   ----------------------------------------
 BYTE   W96
// 032   ----------------------------------------
 BYTE   W48
 BYTE   W96
// 033   ----------------------------------------
Acent_Label_1_0162A4B9:
 BYTE   N08  En2  v052
 BYTE   W16
 BYTE   N08
 BYTE   W08
 BYTE   N08
 BYTE   W08
 BYTE   N08
 BYTE   W08
 BYTE   N08
 BYTE   W08
 BYTE   N08
 BYTE   W16
 BYTE   N08
 BYTE   W08
 BYTE   N08
 BYTE   W16
 BYTE   N08
 BYTE   W08
 BYTE   PEND 
// 034   ----------------------------------------
Acent_Label_1_0162A4CE:
 BYTE   N08  En2  v052
 BYTE   W16
 BYTE   N08
 BYTE   W08
 BYTE   N08
 BYTE   W08
 BYTE   N08
 BYTE   W08
 BYTE   N08
 BYTE   W08
 BYTE   N08
 BYTE   W16
 BYTE   N08
 BYTE   W08
 BYTE   N08
 BYTE   W24
 BYTE   PEND 
 BYTE   PATT
  POIN2 Acent_Label_1_0162A4B9
 BYTE   PATT
  POIN2 Acent_Label_1_0162A4CE
 BYTE   PATT
  POIN2 Acent_Label_1_0162A4CE
 BYTE   PATT
  POIN2 Acent_Label_1_0162A4CE
// 035   ----------------------------------------
 BYTE   W96
// 036   ----------------------------------------
 BYTE   W96
// 037   ----------------------------------------
 BYTE   N24  An2  v100
 BYTE   W24
 BYTE   En2
 BYTE   W24
 BYTE   Gn3
 BYTE   W24
 BYTE   N16  Fs3
 BYTE   W16
 BYTE   N08  En3
 BYTE   W08
// 038   ----------------------------------------
 BYTE   N16  Dn3
 BYTE   W16
 BYTE   N08  En3
 BYTE   W08
 BYTE   N24  Fs3
 BYTE   W24
 BYTE   En3
 BYTE   W24
 BYTE   Bn2
 BYTE   W24
// 039   ----------------------------------------
 BYTE   N16  An2
 BYTE   W16
 BYTE   N08  Bn2
 BYTE   W08
 BYTE   N24  Cn3
 BYTE   W24
 BYTE   N16  Bn2
 BYTE   W16
 BYTE   N08  Cn3
 BYTE   W08
 BYTE   N24  Dn3
 BYTE   W24
// 040   ----------------------------------------
 BYTE   N16  Cs3
 BYTE   W16
 BYTE   N08  Dn3
 BYTE   W08
 BYTE   N24  En3
 BYTE   W24
 BYTE   N16  Ds3
 BYTE   W16
 BYTE   N08  En3
 BYTE   W08
 BYTE   N24  Fs3
 BYTE   W24
// 041   ----------------------------------------
 BYTE   N16  Gn3  v072
 BYTE   W16
 BYTE   N08
 BYTE   W08
 BYTE   N16
 BYTE   W16
 BYTE   N08
 BYTE   W08
 BYTE   N08
 BYTE   W24
 BYTE   N48  An3  v052
 BYTE   W24
// 042   ----------------------------------------
 BYTE   W96
// 043   ----------------------------------------
 BYTE   W96
// 044   ----------------------------------------
 BYTE   W96
// 045   ----------------------------------------
 BYTE   W96
// 046   ----------------------------------------
 BYTE   W96
// 047   ----------------------------------------
 BYTE   N96  As1
 BYTE   N96  Ds2  v060
 BYTE   W96
// 048   ----------------------------------------
 BYTE   TIE  An1  v052
 BYTE   TIE  Cs2  v060
 BYTE   W96
// 049   ----------------------------------------
 BYTE   W96
// 050   ----------------------------------------
 BYTE   EOT
 BYTE   An1  v049
 BYTE   W24
 BYTE   N24  An2  v100
 BYTE   W40
 BYTE   N08  Cs3
 BYTE   W08
 BYTE   N96  An2
 BYTE   W96
// 051   ----------------------------------------
 BYTE   N48  Cs3
 BYTE   W48
 BYTE   N24  En3
 BYTE   W24
 BYTE   N96  An2
 BYTE   W96
// 052   ----------------------------------------
 BYTE   N24  Fn2
 BYTE   W24
 BYTE   En2
 BYTE   W24
 BYTE   As2
 BYTE   W24
 BYTE   W24
// 053   ----------------------------------------
 BYTE   N08  Fn3
 BYTE   W08
 BYTE   N08
 BYTE   W08
 BYTE   N08
 BYTE   W08
 BYTE   N08
 BYTE   W16
 BYTE   Cs3
 BYTE   W08
 BYTE   N96  Fs3
 BYTE   W96
// 054   ----------------------------------------
 BYTE   N24  Fn3
 BYTE   W24
 BYTE   En3
 BYTE   W24
 BYTE   N72  An2
 BYTE   W64
// 055   ----------------------------------------
 BYTE   N08  As3
 BYTE   W08
 BYTE   TIE  An3
 BYTE   W24
 BYTE   N24  Gs2
 BYTE   N24  Cn3
 BYTE   W24
 BYTE   An2
 BYTE   N24  Cs3
 BYTE   W24
 BYTE   As2
 BYTE   N24  Dn3
 BYTE   W24
// 056   ----------------------------------------
 BYTE   TIE  Bn2  v080
 BYTE   TIE  Ds3
 BYTE   W01
 BYTE   W01
 BYTE   W02
 BYTE   W01
 BYTE   W02
 BYTE   W01
 BYTE   W02
 BYTE   W02
 BYTE   W01
 BYTE   W02
 BYTE   W01
 BYTE   W02
 BYTE   W02
 BYTE   W01
 BYTE   W02
 BYTE   W01
 BYTE   W02
 BYTE   W02
 BYTE   W01
 BYTE   W02
 BYTE   W01
 BYTE   W02
 BYTE   W01
 BYTE   W02
 BYTE   W01
 BYTE   W02
 BYTE   W02
 BYTE   W01
 BYTE   W02
 BYTE   W01
 BYTE   W02
 BYTE   W01
 BYTE   W02
 BYTE   W01
 BYTE   W02
 BYTE   W01
 BYTE   W02
 BYTE   W02
 BYTE   W01
 BYTE   W02
 BYTE   W01
 BYTE   W02
 BYTE   W01
 BYTE   W02
 BYTE   W02
 BYTE   W01
 BYTE   W02
 BYTE   W01
 BYTE   W02
 BYTE   W02
 BYTE   W01
 BYTE   W02
 BYTE   W01
 BYTE   W02
 BYTE   W01
 BYTE   W02
 BYTE   W02
 BYTE   W01
 BYTE   W02
 BYTE   W01
 BYTE   W02
 BYTE   W01
// 057   ----------------------------------------
 BYTE   W01
 BYTE   W01
 BYTE   W02
 BYTE   W01
 BYTE   W02
 BYTE   W01
 BYTE   W02
 BYTE   W01
 BYTE   W02
 BYTE   W01
 BYTE   W02
 BYTE   W02
 BYTE   W01
 BYTE   W02
 BYTE   W01
 BYTE   W02
 BYTE   EOT
 BYTE   Bn2  v063
 BYTE   An3
 BYTE   W03
 BYTE   W68
 BYTE   W01
// 058   ----------------------------------------
 BYTE   W96
// 059   ----------------------------------------
 BYTE   W96
// 060   ----------------------------------------
 BYTE   W96
// 061   ----------------------------------------
 BYTE   W96
// 062   ----------------------------------------
 BYTE   N24  Gn2  v100
 BYTE   N24  As2
 BYTE   W24
 BYTE   An2
 BYTE   N24  Cn3
 BYTE   W24
 BYTE   As2
 BYTE   N24  Dn3
 BYTE   W24
 BYTE   N24
 BYTE   N24  Fn3
 BYTE   W24
// 063   ----------------------------------------
 BYTE   Cn3
 BYTE   N24  En3
 BYTE   W24
 BYTE   N08  As2
 BYTE   N08  Dn3
 BYTE   W16
 BYTE   An2
 BYTE   N08  Cn3
 BYTE   W08
 BYTE   N48  As2
 BYTE   N48  Dn3
 BYTE   W48
// 064   ----------------------------------------
 BYTE   N96  Gs2  v072
 BYTE   N96  Cn3  v100
 BYTE   N96  Ds4  v072
 BYTE   W96
// 065   ----------------------------------------
 BYTE   N48  As2  v100
 BYTE   N48  Dn4  v080
 BYTE   W48
 BYTE   Gn2  v100
 BYTE   N48  As3
 BYTE   W48
// 066   ----------------------------------------
 BYTE   As2
 BYTE   N96  Ds4
 BYTE   W96
// 067   ----------------------------------------
 BYTE   TIE  Dn4
 BYTE   W02
 BYTE   W01
 BYTE   W01
 BYTE   W02
 BYTE   W01
 BYTE   W02
 BYTE   W01
 BYTE   W02
 BYTE   W01
 BYTE   W01
 BYTE   W02
 BYTE   W01
 BYTE   W02
 BYTE   W01
 BYTE   W02
 BYTE   W01
 BYTE   W01
 BYTE   W02
 BYTE   W01
 BYTE   W02
 BYTE   W01
 BYTE   W01
 BYTE   W02
 BYTE   W01
 BYTE   W02
 BYTE   W01
 BYTE   W02
 BYTE   W01
 BYTE   W01
 BYTE   W02
 BYTE   W01
 BYTE   W02
 BYTE   W01
 BYTE   W02
 BYTE   W01
 BYTE   W01
 BYTE   W02
 BYTE   W01
 BYTE   W02
 BYTE   W01
 BYTE   W01
 BYTE   W02
 BYTE   W01
 BYTE   W02
 BYTE   W01
 BYTE   W02
 BYTE   W01
 BYTE   W01
 BYTE   W02
 BYTE   W01
 BYTE   W02
 BYTE   W01
 BYTE   W02
 BYTE   W01
 BYTE   W01
 BYTE   W02
 BYTE   W01
 BYTE   W02
 BYTE   W01
 BYTE   W02
 BYTE   W01
 BYTE   W01
 BYTE   W02
 BYTE   W02
 BYTE   W01
 BYTE   W01
 BYTE   W01
 BYTE   W01
// 068   ----------------------------------------
 BYTE   W01
 BYTE   W01
 BYTE   W02
 BYTE   W01
 BYTE   W02
 BYTE   W01
 BYTE   W01
 BYTE   W02
 BYTE   W02
 BYTE   W01
 BYTE   W01
 BYTE   W02
 BYTE   W01
 BYTE   W02
 BYTE   W01
 BYTE   W02
 BYTE   W01
 BYTE   W01
 BYTE   W01
 BYTE   W02
 BYTE   W02
 BYTE   W01
 BYTE   W02
 BYTE   W01
 BYTE   W01
 BYTE   W02
 BYTE   W01
 BYTE   W02
 BYTE   EOT
 BYTE   W01
 BYTE   W01
 BYTE   W02
 BYTE   W01
 BYTE   W02
 BYTE   W01
 BYTE   W01
 BYTE   W44
 BYTE   W03
// 069   ----------------------------------------
 BYTE   W96
// 070   ----------------------------------------
 BYTE   W96
// 071   ----------------------------------------
 BYTE   W96
// 072   ----------------------------------------
 BYTE   W96
// 073   ----------------------------------------
 BYTE   W96
// 074   ----------------------------------------
 BYTE   W96
// 075   ----------------------------------------
 BYTE   N24  Gs1
 BYTE   N48  Gs3
 BYTE   N48  Gs4
 BYTE   W24
 BYTE   N24  Cs2
 BYTE   W24
 BYTE   Gn1
 BYTE   N24  Gn3
 BYTE   N24  Gn4
 BYTE   W24
 BYTE   En1
 BYTE   N24  En3
 BYTE   N24  En4
 BYTE   W24
// 076   ----------------------------------------
 BYTE   GoTo
  POIN2 Acent_Label_1_0162A46A
 BYTE   FINE

//**************** Track 3 (Midi-Chn.2) ****************//

Acent_003:
// 000   ----------------------------------------
 BYTE   KEYSH   Acent_key+0
 BYTE   VOICE   48
 BYTE   VOL   40*Acent_mvl/mxv
 BYTE   PAN   c_v+36
 BYTE   N08  Cn1  v100
 BYTE   W08
 BYTE   Gn1
 BYTE   W08
 BYTE   Cn2
 BYTE   W08
 BYTE   N72  Cs1
 BYTE   N72  Cs2
 BYTE   W72
// 001   ----------------------------------------
 BYTE   W96
// 002   ----------------------------------------
 BYTE   N48  Cs1
 BYTE   N48  Cs2
 BYTE   W48
 BYTE   N24  Cn1
 BYTE   N24  Cn2
 BYTE   W24
 BYTE   En0
 BYTE   N24  En1
 BYTE   W24
// 003   ----------------------------------------
Acent_Label_2_0162A6F0:
 BYTE   N08  Fn1  v100
 BYTE   N08  Fn2
 BYTE   W24
 BYTE   En1
 BYTE   N08  En2
 BYTE   W24
 BYTE   Ds1
 BYTE   N08  Ds2
 BYTE   W24
 BYTE   Dn1
 BYTE   N08  Dn2
 BYTE   W24
 BYTE   PEND 
// 004   ----------------------------------------
Acent_Label_2_0162A703:
 BYTE   N08  Cs1  v100
 BYTE   N08  Cs2
 BYTE   W24
 BYTE   As0
 BYTE   N08  As1
 BYTE   W24
 BYTE   Cs1
 BYTE   N08  Cs2
 BYTE   W24
 BYTE   Cn1
 BYTE   N08  Cn2
 BYTE   W24
 BYTE   PEND 
 BYTE   PATT
  POIN2 Acent_Label_2_0162A6F0
// 005   ----------------------------------------
 BYTE   N08  Cs1  v100
 BYTE   N08  Cs2
 BYTE   W24
 BYTE   Fs1
 BYTE   N08  Fs2
 BYTE   W24
 BYTE   Cn1
 BYTE   N08  Cn2
 BYTE   W24
 BYTE   En0
 BYTE   N08  En1
 BYTE   W24
 BYTE   PATT
  POIN2 Acent_Label_2_0162A6F0
 BYTE   PATT
  POIN2 Acent_Label_2_0162A703
 BYTE   PATT
  POIN2 Acent_Label_2_0162A6F0
// 006   ----------------------------------------
 BYTE   N08  Cs1  v100
 BYTE   N08  Cs2
 BYTE   W24
 BYTE   Fs1
 BYTE   N08  Fs2
 BYTE   W24
 BYTE   Gn1
 BYTE   N08  Gn2
 BYTE   W24
 BYTE   Cn1
 BYTE   N08  Cn2
 BYTE   W24
// 007   ----------------------------------------
 BYTE   W96
// 008   ----------------------------------------
 BYTE   W96
// 009   ----------------------------------------
 BYTE   W96
// 010   ----------------------------------------
 BYTE   W96
// 011   ----------------------------------------
 BYTE   W96
// 012   ----------------------------------------
 BYTE   W96
// 013   ----------------------------------------
 BYTE   W96
// 014   ----------------------------------------
 BYTE   W96
// 015   ----------------------------------------
 BYTE   N48  Ds2
 BYTE   W48
 BYTE   Fn2
 BYTE   W48
// 016   ----------------------------------------
 BYTE   Cn2
 BYTE   W48
 BYTE   Gs1
 BYTE   W48
// 017   ----------------------------------------
 BYTE   As1
 BYTE   W48
 BYTE   Gs2
 BYTE   W48
// 018   ----------------------------------------
 BYTE   N96  Ds1
 BYTE   N96  Gn2
 BYTE   W96
// 019   ----------------------------------------
 BYTE   N48  Fs1
 BYTE   N48  Fs2
 BYTE   W48
 BYTE   Cn1
 BYTE   N48  Cn2
 BYTE   W48
// 020   ----------------------------------------
 BYTE   N24  Bn0
 BYTE   N24  Bn1
 BYTE   W24
 BYTE   N08  As0
 BYTE   N08  As1
 BYTE   W24
 BYTE   N24  Fs0
 BYTE   N24  Fs1
 BYTE   W24
 BYTE   N08  Fn0
 BYTE   N08  Fn1
 BYTE   W24
// 021   ----------------------------------------
 BYTE   As0
 BYTE   N08  As1
 BYTE   W24
 BYTE   As0
 BYTE   N08  As1
 BYTE   W24
 BYTE   Fn0
 BYTE   N08  Fn1
 BYTE   W24
 BYTE   Fn0
 BYTE   N08  Fn1
 BYTE   W24
// 022   ----------------------------------------
 BYTE   An0
 BYTE   N08  An1
 BYTE   W24
 BYTE   An0
 BYTE   N08  An1
 BYTE   W24
 BYTE   En0
 BYTE   N08  En1
 BYTE   W24
 BYTE   En0
 BYTE   N08  En1
 BYTE   W24
// 023   ----------------------------------------
 BYTE   Cs1
 BYTE   N08  Cs2
 BYTE   W24
 BYTE   Gs0
 BYTE   N08  Gs1
 BYTE   W24
 BYTE   Cs1
 BYTE   N08  Cs2
 BYTE   W24
 BYTE   Bn0
 BYTE   N08  Bn1
 BYTE   W24
// 024   ----------------------------------------
 BYTE   En1
 BYTE   N08  En2
 BYTE   W24
 BYTE   Bn0
 BYTE   N08  Bn1
 BYTE   W24
 BYTE   Gn0
 BYTE   N08  Gn1
 BYTE   W24
 BYTE   En0
 BYTE   N08  En1
 BYTE   W24
// 025   ----------------------------------------
 BYTE   Fn0
 BYTE   N08  Fn1
 BYTE   W24
 BYTE   En0
 BYTE   N08  En1
 BYTE   W24
 BYTE   Dn0
 BYTE   N08  Dn1
 BYTE   W24
 BYTE   Cn0
 BYTE   N08  Cn1
 BYTE   W24
// 026   ----------------------------------------
 BYTE   Gs0
 BYTE   N08  Gs1
 BYTE   W24
 BYTE   Gn0
 BYTE   N08  Gn1
 BYTE   W24
 BYTE   Fn0
 BYTE   N08  Fn1
 BYTE   W24
 BYTE   Ds0
 BYTE   N08  Ds1
 BYTE   W24
// 027   ----------------------------------------
 BYTE   Bn0
 BYTE   N08  Bn1
 BYTE   W24
 BYTE   As0
 BYTE   N08  As1
 BYTE   W24
 BYTE   Gs0
 BYTE   N08  Gs1
 BYTE   W24
 BYTE   Fs0
 BYTE   N08  Fs1
 BYTE   W24
// 028   ----------------------------------------
 BYTE   En0
 BYTE   N08  En1
 BYTE   W24
 BYTE   Ds0
 BYTE   N08  Ds1
 BYTE   W24
 BYTE   N96  Dn0
 BYTE   N96  Dn1
 BYTE   W96
// 029   ----------------------------------------
Acent_Label_2_0162A802:
 BYTE   N08  An1  v100
 BYTE   W24
 BYTE   N08
 BYTE   W16
 BYTE   N08
 BYTE   W08
 BYTE   Cn2
 BYTE   W24
 BYTE   N08
 BYTE   W16
 BYTE   N08
 BYTE   W08
 BYTE   PEND 
// 030   ----------------------------------------
 BYTE   Bn1
 BYTE   W24
 BYTE   N08
 BYTE   W16
 BYTE   N08
 BYTE   W08
 BYTE   An1
 BYTE   W24
 BYTE   N08
 BYTE   W16
 BYTE   N08
 BYTE   W08
// 031   ----------------------------------------
 BYTE   Dn2
 BYTE   W24
 BYTE   N08
 BYTE   W16
 BYTE   N08
 BYTE   W08
 BYTE   Bn1
 BYTE   W24
 BYTE   N08
 BYTE   W16
 BYTE   N08
 BYTE   W08
// 032   ----------------------------------------
 BYTE   Gn1
 BYTE   W24
 BYTE   N08
 BYTE   W16
 BYTE   N08
 BYTE   W08
 BYTE   An1
 BYTE   W24
 BYTE   N08
 BYTE   W16
 BYTE   N08
 BYTE   W08
// 033   ----------------------------------------
 BYTE   Fn1
 BYTE   W24
 BYTE   N08
 BYTE   W08
 BYTE   Gn1
 BYTE   W08
 BYTE   An1
 BYTE   W08
 BYTE   Gn1
 BYTE   W08
 BYTE   An1
 BYTE   W08
 BYTE   N14  Bn1
 BYTE   W14
 BYTE   N06  An1
 BYTE   W06
 BYTE   Bn1
 BYTE   W06
 BYTE   Cn2
 BYTE   W06
// 034   ----------------------------------------
 BYTE   N08  Dn2
 BYTE   W24
 BYTE   N08
 BYTE   W16
 BYTE   N08
 BYTE   W08
 BYTE   Gn1
 BYTE   W24
 BYTE   N08
 BYTE   W16
 BYTE   N08
 BYTE   W08
// 035   ----------------------------------------
 BYTE   Cn2
 BYTE   W24
 BYTE   N08
 BYTE   W16
 BYTE   N08
 BYTE   W08
 BYTE   Dn2
 BYTE   W24
 BYTE   N08
 BYTE   W16
 BYTE   N08
 BYTE   W08
// 036   ----------------------------------------
 BYTE   N96  En2
 BYTE   W96
 BYTE   PATT
  POIN2 Acent_Label_2_0162A802
// 037   ----------------------------------------
 BYTE   N08  Dn2  v100
 BYTE   W24
 BYTE   N08
 BYTE   W16
 BYTE   N08
 BYTE   W08
 BYTE   En2
 BYTE   W24
 BYTE   N08
 BYTE   W16
 BYTE   N08
 BYTE   W08
// 038   ----------------------------------------
 BYTE   Fn1
 BYTE   W24
 BYTE   N08
 BYTE   W16
 BYTE   N08
 BYTE   W08
 BYTE   Gn1
 BYTE   W24
 BYTE   N08
 BYTE   W16
 BYTE   N08
 BYTE   W08
// 039   ----------------------------------------
 BYTE   An1
 BYTE   W24
 BYTE   N08
 BYTE   W16
 BYTE   N08
 BYTE   W08
 BYTE   Bn1
 BYTE   W24
 BYTE   N08
 BYTE   W16
 BYTE   N08
 BYTE   W08
// 040   ----------------------------------------
 BYTE   En1
 BYTE   W24
 BYTE   N08
 BYTE   W16
 BYTE   N08
 BYTE   W08
 BYTE   N08
 BYTE   W24
 BYTE   N72  Dn1
 BYTE   W24
// 041   ----------------------------------------
 BYTE   W48
 BYTE   N08  En1
 BYTE   W24
 BYTE   N12  Fn1
 BYTE   W12
 BYTE   En1
 BYTE   W12
// 042   ----------------------------------------
 BYTE   TIE  Fn1  v060
 BYTE   W96
// 043   ----------------------------------------
 BYTE   W96
// 044   ----------------------------------------
 BYTE   EOT
 BYTE   N48  Fn1  v072
 BYTE   W48
 BYTE   Cs1
 BYTE   W48
// 045   ----------------------------------------
 BYTE   Fn1
 BYTE   W48
 BYTE   N96  An0
 BYTE   W48
// 046   ----------------------------------------
 BYTE   W96
// 047   ----------------------------------------
 BYTE   W96
// 048   ----------------------------------------
 BYTE   W96
// 049   ----------------------------------------
 BYTE   W96
// 050   ----------------------------------------
 BYTE   W72
 BYTE   W96
// 051   ----------------------------------------
 BYTE   W72
 BYTE   W72
// 052   ----------------------------------------
 BYTE   N72  An1  v100
 BYTE   W72
 BYTE   N24  Gn1
 BYTE   W24
// 053   ----------------------------------------
 BYTE   N72  An1
 BYTE   W72
 BYTE   N24  Gn1
 BYTE   W24
// 054   ----------------------------------------
 BYTE   N72  An1
 BYTE   W72
 BYTE   N24  Gn1
 BYTE   W24
// 055   ----------------------------------------
Acent_Label_2_0162A8D2:
 BYTE   N72  An1  v100
 BYTE   W72
 BYTE   N24  Gn1
 BYTE   W24
 BYTE   PEND 
 BYTE   PATT
  POIN2 Acent_Label_2_0162A8D2
// 056   ----------------------------------------
 BYTE   N72  An1  v100
 BYTE   W72
 BYTE   N24  Ds1
 BYTE   W24
// 057   ----------------------------------------
 BYTE   N72  An1
 BYTE   W72
 BYTE   N24  Fn1
 BYTE   W24
// 058   ----------------------------------------
 BYTE   As1
 BYTE   W24
 BYTE   Fn1
 BYTE   W24
 BYTE   N48  As1
 BYTE   W48
// 059   ----------------------------------------
 BYTE   Cs2
 BYTE   W48
 BYTE   As1
 BYTE   W48
// 060   ----------------------------------------
 BYTE   N96  Fn2
 BYTE   W96
// 061   ----------------------------------------
 BYTE   TIE  Gn1
 BYTE   W96
// 062   ----------------------------------------
 BYTE   W96
// 063   ----------------------------------------
 BYTE   EOT
 BYTE   TIE  Ds1
 BYTE   W96
// 064   ----------------------------------------
 BYTE   W48
 BYTE   EOT
 BYTE   N48  Gn1
 BYTE   W48
// 065   ----------------------------------------
 BYTE   TIE  Ds1
 BYTE   W01
 BYTE   W02
 BYTE   W01
 BYTE   W01
 BYTE   W01
 BYTE   W01
 BYTE   W01
 BYTE   W01
 BYTE   W02
 BYTE   W02
 BYTE   W01
 BYTE   W01
 BYTE   W01
 BYTE   W01
 BYTE   W01
 BYTE   W02
 BYTE   W01
 BYTE   W01
 BYTE   W01
 BYTE   W01
 BYTE   W01
 BYTE   W01
 BYTE   W02
 BYTE   W01
 BYTE   W01
 BYTE   W01
 BYTE   W01
 BYTE   W01
 BYTE   W01
 BYTE   W01
 BYTE   W02
 BYTE   W01
 BYTE   W01
 BYTE   W01
 BYTE   W01
 BYTE   W01
 BYTE   W01
 BYTE   W02
 BYTE   W01
 BYTE   W01
 BYTE   W01
 BYTE   W01
 BYTE   W01
 BYTE   W01
 BYTE   W02
 BYTE   W01
 BYTE   W01
 BYTE   W01
 BYTE   W01
 BYTE   W01
 BYTE   W01
 BYTE   W01
 BYTE   W02
 BYTE   W01
 BYTE   W01
 BYTE   W01
 BYTE   W01
 BYTE   W01
 BYTE   W01
 BYTE   W02
 BYTE   W01
 BYTE   W01
 BYTE   W01
 BYTE   W01
 BYTE   W01
 BYTE   W02
 BYTE   W02
 BYTE   W01
 BYTE   W01
 BYTE   W01
 BYTE   W01
 BYTE   W01
 BYTE   W01
 BYTE   W02
 BYTE   W01
 BYTE   W01
 BYTE   W01
 BYTE   W01
 BYTE   W01
 BYTE   W02
 BYTE   W02
// 066   ----------------------------------------
 BYTE   W01
 BYTE   W01
 BYTE   W01
 BYTE   W01
 BYTE   W01
 BYTE   W01
 BYTE   W02
 BYTE   W01
 BYTE   W01
 BYTE   W01
 BYTE   W01
 BYTE   W01
 BYTE   W02
 BYTE   W02
 BYTE   W01
 BYTE   W01
 BYTE   W01
 BYTE   W01
 BYTE   W01
 BYTE   W01
 BYTE   W01
 BYTE   EOT
 BYTE   W24
 BYTE   W48
// 067   ----------------------------------------
 BYTE   W96
// 068   ----------------------------------------
 BYTE   W96
// 069   ----------------------------------------
 BYTE   W96
// 070   ----------------------------------------
 BYTE   W96
// 071   ----------------------------------------
 BYTE   TIE  Gn1
 BYTE   W96
// 072   ----------------------------------------
 BYTE   W40
 BYTE   N08  Gs3
 BYTE   W08
 BYTE   TIE  Gn3
 BYTE   W48
// 073   ----------------------------------------
 BYTE   W96
// 074   ----------------------------------------
 BYTE   EOT
 BYTE   Gn1  v067
 BYTE   N24  Gs1
 BYTE   W24
 BYTE   Cs2
 BYTE   W24
 BYTE   Gn1
 BYTE   W24
 BYTE   En1
 BYTE   W24
// 075   ----------------------------------------
 BYTE   GoTo
  POIN2 Acent_Label_2_0162A6F0
 BYTE   FINE

//**************** Track 4 (Midi-Chn.3) ****************//

Acent_004:
// 000   ----------------------------------------
 BYTE   KEYSH   Acent_key+0
 BYTE   VOICE   48
 BYTE   VOL   51*Acent_mvl/mxv
 BYTE   PAN   c_v-44
 BYTE   N08  Cn2  v100
 BYTE   W08
 BYTE   Gn2
 BYTE   W08
 BYTE   Cn3
 BYTE   W08
 BYTE   Gn2
 BYTE   W08
 BYTE   Fn3
 BYTE   W08
 BYTE   Ds3
 BYTE   W08
 BYTE   N48  Dn3
 BYTE   W24
 BYTE   TIE  Ds4  v072
 BYTE   W16
 BYTE   N08  Cn3  v100
 BYTE   W08
// 001   ----------------------------------------
 BYTE   Gn3
 BYTE   W16
 BYTE   As3
 BYTE   W08
 BYTE   N48  An3
 BYTE   W48
 BYTE   Fn3
 BYTE   W24
// 002   ----------------------------------------
 BYTE   Fn4  v080
 BYTE   W24
 BYTE   EOT
 BYTE   Ds4
 BYTE   W24
 BYTE   N04  Cn5  v127
 BYTE   W08
 BYTE   Gs4
 BYTE   W08
 BYTE   Gn4
 BYTE   W08
 BYTE   Cn4
 BYTE   W08
 BYTE   Gs3
 BYTE   W08
 BYTE   Gn3
 BYTE   W08
// 003   ----------------------------------------
Acent_Label_3_0162A9D2:
 BYTE   N04  Fn3  v127
 BYTE   W08
 BYTE   Cn3
 BYTE   W08
 BYTE   Gs3
 BYTE   W08
 BYTE   Gn3
 BYTE   W16
 BYTE   N04
 BYTE   W08
 BYTE   N04
 BYTE   W16
 BYTE   N04
 BYTE   W08
 BYTE   Fn3
 BYTE   W16
 BYTE   N04
 BYTE   W08
// 004   ----------------------------------------
 BYTE   N04
 BYTE   W24
 BYTE   Gn3
 BYTE   W16
 BYTE   Fn3
 BYTE   W08
 BYTE   En3
 BYTE   W24
 BYTE   Cn3
 BYTE   W24
// 005   ----------------------------------------
 BYTE   Gs2
 BYTE   W08
 BYTE   Cn3
 BYTE   W08
 BYTE   Gs3
 BYTE   W08
 BYTE   Gn3
 BYTE   W16
 BYTE   N04
 BYTE   W08
 BYTE   Gs3
 BYTE   W16
 BYTE   N04
 BYTE   W08
 BYTE   As3
 BYTE   W16
 BYTE   N04
 BYTE   W08
// 006   ----------------------------------------
 BYTE   Cn4
 BYTE   W08
 BYTE   Fn3
 BYTE   W08
 BYTE   Gs3
 BYTE   W08
 BYTE   As3
 BYTE   W08
 BYTE   Cs3
 BYTE   W08
 BYTE   Fs3
 BYTE   W08
 BYTE   Gs3
 BYTE   W08
 BYTE   Gn3
 BYTE   W16
 BYTE   N04
 BYTE   W08
 BYTE   En3
 BYTE   W08
 BYTE   Cn3
 BYTE   W08
// 007   ----------------------------------------
 BYTE   Gs3
 BYTE   W08
 BYTE   Cn4
 BYTE   W08
 BYTE   Gs4
 BYTE   W08
 BYTE   Gn4
 BYTE   W16
 BYTE   N04
 BYTE   W08
 BYTE   N04
 BYTE   W16
 BYTE   N04
 BYTE   W08
 BYTE   Fn4
 BYTE   W16
 BYTE   N04
 BYTE   W08
// 008   ----------------------------------------
 BYTE   N04
 BYTE   W24
 BYTE   Gn4
 BYTE   W16
 BYTE   Fn4
 BYTE   W08
 BYTE   En4
 BYTE   W24
 BYTE   Cn4
 BYTE   W24
// 009   ----------------------------------------
 BYTE   W08
 BYTE   N04
 BYTE   W08
 BYTE   Gs4
 BYTE   W08
 BYTE   Gn4
 BYTE   W16
 BYTE   N04
 BYTE   W08
 BYTE   Gs4
 BYTE   W16
 BYTE   N04
 BYTE   W08
 BYTE   As4
 BYTE   W16
 BYTE   N04
 BYTE   W08
// 010   ----------------------------------------
 BYTE   Cn5
 BYTE   W08
 BYTE   Fn4
 BYTE   W08
 BYTE   Gs4
 BYTE   W08
 BYTE   As4
 BYTE   W08
 BYTE   Cs4
 BYTE   W08
 BYTE   Fs4
 BYTE   W08
 BYTE   Gs4
 BYTE   W08
 BYTE   Gn4
 BYTE   W16
 BYTE   N04
 BYTE   W08
 BYTE   En4
 BYTE   W16
// 011   ----------------------------------------
 BYTE   N06  Fn4  v100
 BYTE   W96
// 012   ----------------------------------------
 BYTE   W96
// 013   ----------------------------------------
 BYTE   W96
// 014   ----------------------------------------
 BYTE   W96
// 015   ----------------------------------------
 BYTE   W96
// 016   ----------------------------------------
 BYTE   W96
// 017   ----------------------------------------
 BYTE   W96
// 018   ----------------------------------------
 BYTE   N48  Fn4  v060
 BYTE   W48
 BYTE   Gn4  v100
 BYTE   W48
// 019   ----------------------------------------
 BYTE   N88  Fs4
 BYTE   W01
 BYTE   W02
 BYTE   W01
 BYTE   W02
 BYTE   W01
 BYTE   W02
 BYTE   W02
 BYTE   W01
 BYTE   W02
 BYTE   W01
 BYTE   W02
 BYTE   W01
 BYTE   W02
 BYTE   W01
 BYTE   W02
 BYTE   W01
 BYTE   W02
 BYTE   W01
 BYTE   W02
 BYTE   W01
 BYTE   W01
 BYTE   W02
 BYTE   W02
 BYTE   W01
 BYTE   W02
 BYTE   W01
 BYTE   W02
 BYTE   W01
 BYTE   W02
 BYTE   W01
 BYTE   W02
 BYTE   W02
 BYTE   W01
 BYTE   W02
 BYTE   W01
 BYTE   W02
 BYTE   W01
 BYTE   W02
 BYTE   W01
 BYTE   W02
 BYTE   W01
 BYTE   W01
 BYTE   W02
 BYTE   W01
 BYTE   W02
 BYTE   W01
 BYTE   W02
 BYTE   W02
 BYTE   W01
 BYTE   W02
 BYTE   W01
 BYTE   W02
 BYTE   W01
 BYTE   W02
 BYTE   W01
 BYTE   W02
 BYTE   W01
 BYTE   W02
 BYTE   W02
 BYTE   W01
 BYTE   W02
 BYTE   W01
 BYTE   W01
 BYTE   W01
// 020   ----------------------------------------
 BYTE   W96
// 021   ----------------------------------------
 BYTE   W96
// 022   ----------------------------------------
 BYTE   W96
// 023   ----------------------------------------
 BYTE   W96
// 024   ----------------------------------------
 BYTE   N24  Bn4
 BYTE   W24
 BYTE   N08  As4
 BYTE   W24
 BYTE   N24  Fs4
 BYTE   W24
 BYTE   N08  Fn4
 BYTE   W24
// 025   ----------------------------------------
 BYTE   As3
 BYTE   W24
 BYTE   N08
 BYTE   W24
 BYTE   Cn4
 BYTE   W24
 BYTE   N08
 BYTE   W24
// 026   ----------------------------------------
 BYTE   Cs4
 BYTE   W24
 BYTE   N08
 BYTE   W24
 BYTE   Ds4
 BYTE   W24
 BYTE   N08
 BYTE   W24
// 027   ----------------------------------------
 BYTE   En4
 BYTE   W24
 BYTE   N08
 BYTE   W24
 BYTE   Fs4
 BYTE   W24
 BYTE   N08
 BYTE   W24
// 028   ----------------------------------------
 BYTE   Gn4
 BYTE   W24
 BYTE   N08
 BYTE   W24
 BYTE   An4
 BYTE   W24
 BYTE   N08
 BYTE   W24
// 029   ----------------------------------------
 BYTE   N48  Bn4
 BYTE   W48
 BYTE   N24  An4
 BYTE   W24
 BYTE   Dn5
 BYTE   W24
// 030   ----------------------------------------
 BYTE   N48  Cn5
 BYTE   W48
 BYTE   As4
 BYTE   W48
// 031   ----------------------------------------
 BYTE   W96
// 032   ----------------------------------------
 BYTE   W48
 BYTE   W96
// 033   ----------------------------------------
 BYTE   An3
 BYTE   W48
 BYTE   N24  Gn4
 BYTE   W24
 BYTE   N16  Fs4
 BYTE   W16
 BYTE   N08  En4
 BYTE   W08
// 034   ----------------------------------------
 BYTE   N16  Dn4
 BYTE   W16
 BYTE   N08  En4
 BYTE   W08
 BYTE   N24  Fs4
 BYTE   W24
 BYTE   En4
 BYTE   W24
 BYTE   Bn3
 BYTE   W24
// 035   ----------------------------------------
 BYTE   An3
 BYTE   W24
 BYTE   N16  Gn3
 BYTE   W16
 BYTE   N08  Fs3
 BYTE   W08
 BYTE   N24  En3
 BYTE   W24
 BYTE   Dn4
 BYTE   W24
// 036   ----------------------------------------
 BYTE   N24
 BYTE   W24
 BYTE   N16  Cn4
 BYTE   W16
 BYTE   N08  Bn3
 BYTE   W08
 BYTE   N48  An3
 BYTE   W48
// 037   ----------------------------------------
 BYTE   N16
 BYTE   W16
 BYTE   N08  Bn3
 BYTE   W08
 BYTE   N24  Cn4
 BYTE   W24
 BYTE   Bn3
 BYTE   W24
 BYTE   Fs4
 BYTE   W24
// 038   ----------------------------------------
 BYTE   En4
 BYTE   W24
 BYTE   N48  An4
 BYTE   W48
 BYTE   N16  Gn4
 BYTE   W16
 BYTE   N08  Fs4
 BYTE   W08
// 039   ----------------------------------------
 BYTE   N72  En4
 BYTE   W72
 BYTE   N24  Dn4
 BYTE   W24
// 040   ----------------------------------------
 BYTE   N96  En4
 BYTE   W96
// 041   ----------------------------------------
 BYTE   N08  An4
 BYTE   W08
 BYTE   En4
 BYTE   W08
 BYTE   An3
 BYTE   W08
 BYTE   En3
 BYTE   W24
 BYTE   Cn5
 BYTE   W08
 BYTE   Gn4
 BYTE   W08
 BYTE   Cn4
 BYTE   W08
 BYTE   Gn3
 BYTE   W24
// 042   ----------------------------------------
 BYTE   An4
 BYTE   W08
 BYTE   Dn4
 BYTE   W08
 BYTE   An3
 BYTE   W08
 BYTE   Dn3
 BYTE   W24
 BYTE   Bn4
 BYTE   W08
 BYTE   En4
 BYTE   W08
 BYTE   Bn3
 BYTE   W08
 BYTE   En3
 BYTE   W24
// 043   ----------------------------------------
 BYTE   Cn5
 BYTE   W08
 BYTE   Fn4
 BYTE   W08
 BYTE   An3
 BYTE   W08
 BYTE   En3
 BYTE   W24
 BYTE   Bn4
 BYTE   W08
 BYTE   Dn4
 BYTE   W08
 BYTE   Bn3
 BYTE   W08
 BYTE   Gn3
 BYTE   W24
// 044   ----------------------------------------
 BYTE   En5
 BYTE   W08
 BYTE   An4
 BYTE   W08
 BYTE   En4
 BYTE   W08
 BYTE   Cs4
 BYTE   W08
 BYTE   An3
 BYTE   W08
 BYTE   En3
 BYTE   W08
 BYTE   Fs5
 BYTE   W08
 BYTE   Bn4
 BYTE   W08
 BYTE   Fs4
 BYTE   W08
 BYTE   Ds4
 BYTE   W08
 BYTE   Bn3
 BYTE   W08
 BYTE   Fs3
 BYTE   W08
// 045   ----------------------------------------
 BYTE   Gn4
 BYTE   W16
 BYTE   N08
 BYTE   W08
 BYTE   Fs4
 BYTE   W16
 BYTE   En4
 BYTE   W08
 BYTE   Dn4
 BYTE   W24
 BYTE   N48  Fs4  v080
 BYTE   N48  An4
 BYTE   W24
// 046   ----------------------------------------
 BYTE   W24
 BYTE   N12  Gn5
 BYTE   W12
 BYTE   Fs5
 BYTE   W12
 BYTE   En5
 BYTE   W12
 BYTE   Dn5
 BYTE   W12
 BYTE   Cn5
 BYTE   W12
 BYTE   Bn4
 BYTE   W12
// 047   ----------------------------------------
 BYTE   TIE  An4
 BYTE   W01
 BYTE   W02
 BYTE   W01
 BYTE   W02
 BYTE   W01
 BYTE   W02
 BYTE   W02
 BYTE   W01
 BYTE   W02
 BYTE   W01
 BYTE   W02
 BYTE   W01
 BYTE   W02
 BYTE   W01
 BYTE   W02
 BYTE   W02
 BYTE   W01
 BYTE   W02
 BYTE   W01
 BYTE   W02
 BYTE   W01
 BYTE   W02
 BYTE   W01
 BYTE   W02
 BYTE   W01
 BYTE   W02
 BYTE   W01
 BYTE   W02
 BYTE   W01
 BYTE   W02
 BYTE   W01
 BYTE   W02
 BYTE   W01
 BYTE   W02
 BYTE   W01
 BYTE   W02
 BYTE   W01
 BYTE   W02
 BYTE   W01
 BYTE   W02
 BYTE   W01
 BYTE   W02
 BYTE   W02
 BYTE   W01
 BYTE   W02
 BYTE   W01
 BYTE   W02
 BYTE   W01
 BYTE   W02
 BYTE   W01
 BYTE   W02
 BYTE   W01
 BYTE   W02
 BYTE   W02
 BYTE   W01
 BYTE   W02
 BYTE   W01
 BYTE   W02
 BYTE   W01
 BYTE   W02
 BYTE   W01
 BYTE   W02
 BYTE   W01
// 048   ----------------------------------------
 BYTE   W01
 BYTE   W01
 BYTE   W02
 BYTE   W01
 BYTE   W02
 BYTE   W01
 BYTE   W02
 BYTE   W01
 BYTE   W02
 BYTE   W01
 BYTE   W02
 BYTE   W01
 BYTE   W02
 BYTE   W01
 BYTE   W02
 BYTE   W01
 BYTE   W02
 BYTE   W01
 BYTE   W02
 BYTE   W01
 BYTE   W02
 BYTE   W02
 BYTE   W01
 BYTE   W02
 BYTE   W01
 BYTE   W02
 BYTE   W01
 BYTE   W02
 BYTE   W01
 BYTE   W02
 BYTE   W01
 BYTE   W02
 BYTE   EOT
 BYTE   W01
 BYTE   W02
 BYTE   W01
 BYTE   W02
 BYTE   W01
 BYTE   W02
 BYTE   W02
 BYTE   W01
 BYTE   W02
 BYTE   W01
 BYTE   W02
 BYTE   W01
 BYTE   W02
 BYTE   W01
 BYTE   W02
 BYTE   W02
 BYTE   W01
 BYTE   W02
 BYTE   W01
 BYTE   W02
 BYTE   W01
 BYTE   W02
 BYTE   W01
 BYTE   W02
 BYTE   W01
 BYTE   W02
 BYTE   W01
 BYTE   W02
 BYTE   W01
 BYTE   W02
 BYTE   W02
// 049   ----------------------------------------
 BYTE   W01
 BYTE   W92
 BYTE   W03
// 050   ----------------------------------------
 BYTE   W96
// 051   ----------------------------------------
 BYTE   W96
// 052   ----------------------------------------
 BYTE   W96
// 053   ----------------------------------------
 BYTE   W96
// 054   ----------------------------------------
 BYTE   W96
// 055   ----------------------------------------
 BYTE   W72
 BYTE   W96
// 056   ----------------------------------------
 BYTE   W72
 BYTE   N24  Fn3  v072
 BYTE   N24  Fn4
 BYTE   W24
// 057   ----------------------------------------
 BYTE   En3
 BYTE   N24  En4
 BYTE   W24
 BYTE   As3
 BYTE   N24  As4
 BYTE   W24
 BYTE   W96
// 058   ----------------------------------------
 BYTE   W72
 BYTE   W96
// 059   ----------------------------------------
 BYTE   W24
 BYTE   W96
// 060   ----------------------------------------
 BYTE   N16  Ds4
 BYTE   N16  Gn4  v100
 BYTE   W16
 BYTE   N08  Fn4  v072
 BYTE   N08  An4  v100
 BYTE   W08
 BYTE   N24  Gn4  v072
 BYTE   N24  As4  v100
 BYTE   W24
 BYTE   N16  An4  v072
 BYTE   N16  Cn5  v100
 BYTE   W16
 BYTE   N08  Gn4  v072
 BYTE   N08  As4  v100
 BYTE   W08
 BYTE   N24  Fn4  v072
 BYTE   N24  An4  v100
 BYTE   W24
// 061   ----------------------------------------
 BYTE   N16  Ds4  v072
 BYTE   N16  Gn4  v100
 BYTE   W16
 BYTE   N08  Fn4  v072
 BYTE   N08  An4  v100
 BYTE   W08
 BYTE   N24  Gn4  v072
 BYTE   N24  As4  v100
 BYTE   W24
 BYTE   N48  Fn4  v072
 BYTE   N48  An4  v100
 BYTE   W48
// 062   ----------------------------------------
 BYTE   N16  Ds4  v072
 BYTE   N16  Gn4  v100
 BYTE   W16
 BYTE   N08  Fn4  v072
 BYTE   N08  An4  v100
 BYTE   W08
 BYTE   N24  Gn4  v072
 BYTE   N24  As4  v100
 BYTE   W24
 BYTE   N16  Fn4  v072
 BYTE   N16  An4  v100
 BYTE   W16
 BYTE   N08  Gn4  v072
 BYTE   N08  As4  v100
 BYTE   W08
 BYTE   N24  An4  v072
 BYTE   N24  Cn5  v100
 BYTE   W24
// 063   ----------------------------------------
 BYTE   Gn5  v072
 BYTE   N24  As5  v100
 BYTE   W24
 BYTE   N12  Fn5  v072
 BYTE   N12  Gs5  v100
 BYTE   W12
 BYTE   Ds5  v072
 BYTE   N12  Gn5  v100
 BYTE   W12
 BYTE   N48  Cs5  v072
 BYTE   N48  Fn5  v100
 BYTE   W48
// 064   ----------------------------------------
 BYTE   N16  Cs4
 BYTE   W16
 BYTE   N08  As3
 BYTE   W08
 BYTE   N16  Cs4
 BYTE   W16
 BYTE   N08  Ds4
 BYTE   W08
 BYTE   N24  Fn4
 BYTE   W24
 BYTE   As3
 BYTE   W24
// 065   ----------------------------------------
 BYTE   N16  Gs4
 BYTE   W16
 BYTE   N08  Gn4
 BYTE   W08
 BYTE   N40  Fn4
 BYTE   W40
 BYTE   N08  Ds4
 BYTE   W08
 BYTE   Cs4
 BYTE   W16
 BYTE   Cn4
 BYTE   W08
// 066   ----------------------------------------
 BYTE   N48  As3
 BYTE   W48
 BYTE   TIE  Fn4
 BYTE   W48
// 067   ----------------------------------------
 BYTE   W72
 BYTE   EOT
 BYTE   W24
// 068   ----------------------------------------
 BYTE   N96  Ds5  v072
 BYTE   W96
// 069   ----------------------------------------
 BYTE   N48  Dn5
 BYTE   W48
 BYTE   As4
 BYTE   W48
// 070   ----------------------------------------
 BYTE   N96  Ds5
 BYTE   W96
// 071   ----------------------------------------
 BYTE   Dn5
 BYTE   W01
 BYTE   W01
 BYTE   W01
 BYTE   W01
 BYTE   W01
 BYTE   W02
 BYTE   W01
 BYTE   W01
 BYTE   W01
 BYTE   W01
 BYTE   W01
 BYTE   W02
 BYTE   W02
 BYTE   W01
 BYTE   W01
 BYTE   W01
 BYTE   W01
 BYTE   W01
 BYTE   W01
 BYTE   W02
 BYTE   W01
 BYTE   W01
 BYTE   W01
 BYTE   W01
 BYTE   W01
 BYTE   W01
 BYTE   W01
 BYTE   W01
 BYTE   W02
 BYTE   W01
 BYTE   W01
 BYTE   W01
 BYTE   W01
 BYTE   W01
 BYTE   W02
 BYTE   W01
 BYTE   W01
 BYTE   W01
 BYTE   W01
 BYTE   W01
 BYTE   W01
 BYTE   W02
 BYTE   W02
 BYTE   W01
 BYTE   W01
 BYTE   W01
 BYTE   W01
 BYTE   W01
 BYTE   W01
 BYTE   W02
 BYTE   W02
 BYTE   W01
 BYTE   W01
 BYTE   W01
 BYTE   W01
 BYTE   W01
 BYTE   W02
 BYTE   W01
 BYTE   W01
 BYTE   W01
 BYTE   W01
 BYTE   W01
 BYTE   W01
 BYTE   W02
 BYTE   W02
 BYTE   W01
 BYTE   W01
 BYTE   W01
 BYTE   W01
 BYTE   W01
 BYTE   W01
 BYTE   W02
 BYTE   W01
 BYTE   W01
 BYTE   W01
 BYTE   W01
 BYTE   W06
// 072   ----------------------------------------
 BYTE   N04  Cn4
 BYTE   W08
 BYTE   Ds4
 BYTE   W08
 BYTE   Ds5
 BYTE   W08
 BYTE   Dn5
 BYTE   W16
 BYTE   N04
 BYTE   W08
 BYTE   N04
 BYTE   W16
 BYTE   N04
 BYTE   W08
 BYTE   Cn5
 BYTE   W16
 BYTE   N04
 BYTE   W08
// 073   ----------------------------------------
 BYTE   N04
 BYTE   W24
 BYTE   Dn5
 BYTE   W16
 BYTE   Cn5
 BYTE   W08
 BYTE   Bn4
 BYTE   W24
 BYTE   Gn4
 BYTE   W24
// 074   ----------------------------------------
 BYTE   Cn4
 BYTE   W08
 BYTE   Ds4
 BYTE   W08
 BYTE   Ds5
 BYTE   W08
 BYTE   Dn5
 BYTE   W16
 BYTE   N04
 BYTE   W08
 BYTE   Ds5
 BYTE   W16
 BYTE   N04
 BYTE   W08
 BYTE   Fn5
 BYTE   W16
 BYTE   N04
 BYTE   W08
// 075   ----------------------------------------
 BYTE   Gn5
 BYTE   W16
 BYTE   Ds5
 BYTE   W08
 BYTE   Fn5
 BYTE   W16
 BYTE   Cs5
 BYTE   W08
 BYTE   Ds5
 BYTE   W16
 BYTE   Gn4
 BYTE   W08
 BYTE   Dn5
 BYTE   W24
// 076   ----------------------------------------
 BYTE   Cn4  v100
 BYTE   W08
 BYTE   Ds4
 BYTE   W08
 BYTE   Ds5
 BYTE   W08
 BYTE   Dn5
 BYTE   W16
 BYTE   N04
 BYTE   W08
 BYTE   N04
 BYTE   W16
 BYTE   N04
 BYTE   W08
 BYTE   Cn5
 BYTE   W16
 BYTE   N04
 BYTE   W08
// 077   ----------------------------------------
 BYTE   N04
 BYTE   W24
 BYTE   Dn5
 BYTE   W16
 BYTE   Cn5
 BYTE   W08
 BYTE   Bn4
 BYTE   W24
 BYTE   Gn4
 BYTE   W24
// 078   ----------------------------------------
 BYTE   Cn4
 BYTE   W08
 BYTE   Ds4
 BYTE   W08
 BYTE   Ds5
 BYTE   W08
 BYTE   Dn5
 BYTE   W16
 BYTE   N04
 BYTE   W08
 BYTE   Ds5
 BYTE   W16
 BYTE   N04
 BYTE   W08
 BYTE   Fn5
 BYTE   W16
 BYTE   N04
 BYTE   W08
// 079   ----------------------------------------
 BYTE   W96
// 080   ----------------------------------------
 BYTE   GoTo
  POIN2 Acent_Label_3_0162A9D2
 BYTE   FINE

//**************** Track 5 (Midi-Chn.4) ****************//

Acent_005:
// 000   ----------------------------------------
 BYTE   KEYSH   Acent_key+0
 BYTE   VOICE   89
 BYTE   VOL   40*Acent_mvl/mxv
 BYTE   PAN   c_v+0
 BYTE   W96
// 001   ----------------------------------------
 BYTE   W96
// 002   ----------------------------------------
 BYTE   W96
// 003   ----------------------------------------
Acent_Label_4_0162ADCF:
 BYTE   N24  Cn4  v100
 BYTE   W24
 BYTE   As3
 BYTE   W24
 BYTE   Cn4
 BYTE   W24
 BYTE   Cs4
 BYTE   W24
 BYTE   PEND 
// 004   ----------------------------------------
Acent_Label_4_0162ADDA:
 BYTE   N24  Ds4  v100
 BYTE   W24
 BYTE   Cs4
 BYTE   W24
 BYTE   Cn4
 BYTE   W24
 BYTE   As3
 BYTE   W24
 BYTE   PEND 
// 005   ----------------------------------------
Acent_Label_4_0162ADE5:
 BYTE   N24  Ds4  v100
 BYTE   W24
 BYTE   Cs4
 BYTE   W24
 BYTE   Ds4
 BYTE   W24
 BYTE   Fn4
 BYTE   W24
 BYTE   PEND 
// 006   ----------------------------------------
Acent_Label_4_0162ADF0:
 BYTE   N24  Gn4  v100
 BYTE   W24
 BYTE   Fs4
 BYTE   W24
 BYTE   Ds4
 BYTE   W24
 BYTE   Cs4
 BYTE   W24
 BYTE   PEND 
 BYTE   PATT
  POIN2 Acent_Label_4_0162ADCF
 BYTE   PATT
  POIN2 Acent_Label_4_0162ADDA
 BYTE   PATT
  POIN2 Acent_Label_4_0162ADE5
 BYTE   PATT
  POIN2 Acent_Label_4_0162ADF0
// 007   ----------------------------------------
 BYTE   W96
// 008   ----------------------------------------
 BYTE   W96
// 009   ----------------------------------------
 BYTE   W96
// 010   ----------------------------------------
 BYTE   W96
// 011   ----------------------------------------
 BYTE   W96
// 012   ----------------------------------------
 BYTE   W96
// 013   ----------------------------------------
 BYTE   W96
// 014   ----------------------------------------
 BYTE   W96
// 015   ----------------------------------------
 BYTE   W96
// 016   ----------------------------------------
 BYTE   W96
// 017   ----------------------------------------
 BYTE   W96
// 018   ----------------------------------------
 BYTE   W96
// 019   ----------------------------------------
 BYTE   W96
// 020   ----------------------------------------
 BYTE   W96
// 021   ----------------------------------------
 BYTE   W96
// 022   ----------------------------------------
 BYTE   W96
// 023   ----------------------------------------
 BYTE   W96
// 024   ----------------------------------------
 BYTE   W96
// 025   ----------------------------------------
 BYTE   W96
// 026   ----------------------------------------
 BYTE   W96
// 027   ----------------------------------------
 BYTE   W96
// 028   ----------------------------------------
 BYTE   W48
 BYTE   W96
// 029   ----------------------------------------
 BYTE   W96
// 030   ----------------------------------------
 BYTE   W96
// 031   ----------------------------------------
 BYTE   W96
// 032   ----------------------------------------
 BYTE   W96
// 033   ----------------------------------------
 BYTE   W96
// 034   ----------------------------------------
 BYTE   W96
// 035   ----------------------------------------
 BYTE   W96
// 036   ----------------------------------------
 BYTE   W96
// 037   ----------------------------------------
 BYTE   W96
// 038   ----------------------------------------
 BYTE   W96
// 039   ----------------------------------------
 BYTE   W96
// 040   ----------------------------------------
 BYTE   W96
// 041   ----------------------------------------
 BYTE   W96
// 042   ----------------------------------------
 BYTE   W96
// 043   ----------------------------------------
 BYTE   W96
// 044   ----------------------------------------
 BYTE   W96
// 045   ----------------------------------------
 BYTE   W96
// 046   ----------------------------------------
 BYTE   W96
// 047   ----------------------------------------
 BYTE   W96
// 048   ----------------------------------------
 BYTE   W96
// 049   ----------------------------------------
 BYTE   W96
// 050   ----------------------------------------
 BYTE   W96
// 051   ----------------------------------------
 BYTE   W72
 BYTE   W96
// 052   ----------------------------------------
 BYTE   W72
 BYTE   W72
// 053   ----------------------------------------
 BYTE   W96
// 054   ----------------------------------------
 BYTE   W72
 BYTE   W96
// 055   ----------------------------------------
 BYTE   W24
 BYTE   W96
// 056   ----------------------------------------
 BYTE   W96
// 057   ----------------------------------------
 BYTE   W96
// 058   ----------------------------------------
 BYTE   W96
// 059   ----------------------------------------
 BYTE   W96
// 060   ----------------------------------------
 BYTE   W96
// 061   ----------------------------------------
 BYTE   W96
// 062   ----------------------------------------
 BYTE   W96
// 063   ----------------------------------------
 BYTE   W96
// 064   ----------------------------------------
 BYTE   W96
// 065   ----------------------------------------
 BYTE   W96
// 066   ----------------------------------------
 BYTE   W96
// 067   ----------------------------------------
 BYTE   W96
// 068   ----------------------------------------
 BYTE   W96
// 069   ----------------------------------------
 BYTE   W96
// 070   ----------------------------------------
 BYTE   W96
// 071   ----------------------------------------
 BYTE   W96
// 072   ----------------------------------------
 BYTE   W96
// 073   ----------------------------------------
 BYTE   W96
// 074   ----------------------------------------
 BYTE   W96
// 075   ----------------------------------------
 BYTE   W96
// 076   ----------------------------------------
 BYTE   GoTo
  POIN2 Acent_Label_4_0162ADCF
 BYTE   FINE

//**************** Track 6 (Midi-Chn.5) ****************//

Acent_006:
// 000   ----------------------------------------
 BYTE   KEYSH   Acent_key+0
 BYTE   VOICE   70
 BYTE   VOL   51*Acent_mvl/mxv
 BYTE   PAN   c_v+0
 BYTE   W96
// 001   ----------------------------------------
 BYTE   W96
// 002   ----------------------------------------
 BYTE   W96
// 003   ----------------------------------------
Acent_Label_5_0162AE6B:
 BYTE   W96
// 004   ----------------------------------------
 BYTE   W96
// 005   ----------------------------------------
 BYTE   W96
// 006   ----------------------------------------
 BYTE   W96
// 007   ----------------------------------------
 BYTE   W96
// 008   ----------------------------------------
 BYTE   W96
// 009   ----------------------------------------
 BYTE   W96
// 010   ----------------------------------------
 BYTE   W96
// 011   ----------------------------------------
 BYTE   N72  Cn3  v052
 BYTE   W72
 BYTE   N08  Ds3
 BYTE   W16
 BYTE   Dn3
 BYTE   W08
// 012   ----------------------------------------
 BYTE   N72  Cn3
 BYTE   W72
 BYTE   N08  Fn3
 BYTE   W16
 BYTE   Ds3
 BYTE   W08
// 013   ----------------------------------------
 BYTE   N72  Dn3
 BYTE   W96
// 014   ----------------------------------------
 BYTE   N48
 BYTE   W48
 BYTE   N24  Ds3
 BYTE   W24
 BYTE   Dn3
 BYTE   W24
// 015   ----------------------------------------
 BYTE   N72  Cn3
 BYTE   W72
 BYTE   N16  Ds3
 BYTE   W16
 BYTE   N08  Dn3
 BYTE   W08
// 016   ----------------------------------------
 BYTE   N72  Cn3
 BYTE   W72
 BYTE   N24  Ds3
 BYTE   W24
// 017   ----------------------------------------
 BYTE   N48  Cn3
 BYTE   W48
 BYTE   Ds3
 BYTE   W48
// 018   ----------------------------------------
 BYTE   Fn3
 BYTE   W48
 BYTE   Gn3
 BYTE   W48
// 019   ----------------------------------------
 BYTE   W96
// 020   ----------------------------------------
 BYTE   W96
// 021   ----------------------------------------
 BYTE   W96
// 022   ----------------------------------------
 BYTE   W96
// 023   ----------------------------------------
 BYTE   W96
// 024   ----------------------------------------
 BYTE   W96
// 025   ----------------------------------------
 BYTE   W96
// 026   ----------------------------------------
 BYTE   W96
// 027   ----------------------------------------
 BYTE   W96
// 028   ----------------------------------------
 BYTE   W96
// 029   ----------------------------------------
 BYTE   W96
// 030   ----------------------------------------
 BYTE   W96
// 031   ----------------------------------------
 BYTE   W96
// 032   ----------------------------------------
 BYTE   W48
 BYTE   W96
// 033   ----------------------------------------
 BYTE   W96
// 034   ----------------------------------------
 BYTE   W96
// 035   ----------------------------------------
 BYTE   W96
// 036   ----------------------------------------
 BYTE   W96
// 037   ----------------------------------------
 BYTE   W96
// 038   ----------------------------------------
 BYTE   W96
// 039   ----------------------------------------
 BYTE   W96
// 040   ----------------------------------------
 BYTE   W96
// 041   ----------------------------------------
 BYTE   W96
// 042   ----------------------------------------
 BYTE   W96
// 043   ----------------------------------------
 BYTE   W96
// 044   ----------------------------------------
 BYTE   W96
// 045   ----------------------------------------
 BYTE   W96
// 046   ----------------------------------------
 BYTE   W96
// 047   ----------------------------------------
 BYTE   W96
// 048   ----------------------------------------
 BYTE   W96
// 049   ----------------------------------------
 BYTE   W96
// 050   ----------------------------------------
 BYTE   W96
// 051   ----------------------------------------
 BYTE   W96
// 052   ----------------------------------------
 BYTE   W96
// 053   ----------------------------------------
 BYTE   W96
// 054   ----------------------------------------
 BYTE   W96
// 055   ----------------------------------------
 BYTE   W72
 BYTE   W96
// 056   ----------------------------------------
 BYTE   W72
 BYTE   W72
// 057   ----------------------------------------
 BYTE   W96
// 058   ----------------------------------------
 BYTE   W72
 BYTE   W96
// 059   ----------------------------------------
 BYTE   W24
 BYTE   W96
// 060   ----------------------------------------
 BYTE   W96
// 061   ----------------------------------------
 BYTE   W96
// 062   ----------------------------------------
 BYTE   W96
// 063   ----------------------------------------
 BYTE   W96
// 064   ----------------------------------------
 BYTE   W96
// 065   ----------------------------------------
 BYTE   W96
// 066   ----------------------------------------
 BYTE   W96
// 067   ----------------------------------------
 BYTE   W96
// 068   ----------------------------------------
 BYTE   W96
// 069   ----------------------------------------
 BYTE   W96
// 070   ----------------------------------------
 BYTE   W96
// 071   ----------------------------------------
 BYTE   W96
// 072   ----------------------------------------
 BYTE   W72
 BYTE   N24  Cn2  v060
 BYTE   N24  Fn2
 BYTE   W24
// 073   ----------------------------------------
 BYTE   Bn1
 BYTE   N24  Ds2
 BYTE   W24
 BYTE   Dn2
 BYTE   N24  Gs2
 BYTE   W24
 BYTE   Cn2
 BYTE   N24  Gn2
 BYTE   W24
 BYTE   Bn1
 BYTE   N24  Fn2
 BYTE   W24
// 074   ----------------------------------------
 BYTE   Cn2
 BYTE   N24  Ds2
 BYTE   W24
 BYTE   Dn2
 BYTE   N24  Gs2
 BYTE   W24
 BYTE   Ds2
 BYTE   N24  Gn2
 BYTE   W24
 BYTE   Fn2
 BYTE   N24  Cn3
 BYTE   W24
// 075   ----------------------------------------
 BYTE   Gs2
 BYTE   N24  Bn2
 BYTE   W24
 BYTE   Fn2
 BYTE   N24  Cs3
 BYTE   W24
 BYTE   Ds2
 BYTE   N24  Cn3
 BYTE   W24
 BYTE   Dn2
 BYTE   N24  Bn2
 BYTE   W24
// 076   ----------------------------------------
 BYTE   W96
// 077   ----------------------------------------
 BYTE   W96
// 078   ----------------------------------------
 BYTE   W96
// 079   ----------------------------------------
 BYTE   W96
// 080   ----------------------------------------
 BYTE   GoTo
  POIN2 Acent_Label_5_0162AE6B
 BYTE   FINE

//**************** Track 7 (Midi-Chn.6) ****************//

Acent_007:
// 000   ----------------------------------------
 BYTE   KEYSH   Acent_key+0
 BYTE   VOICE   71
 BYTE   VOL   51*Acent_mvl/mxv
 BYTE   PAN   c_v+0
 BYTE   W96
// 001   ----------------------------------------
 BYTE   W96
// 002   ----------------------------------------
 BYTE   W96
// 003   ----------------------------------------
Acent_Label_6_0162AF2F:
 BYTE   W96
// 004   ----------------------------------------
 BYTE   W96
// 005   ----------------------------------------
 BYTE   W96
// 006   ----------------------------------------
 BYTE   W96
// 007   ----------------------------------------
 BYTE   W96
// 008   ----------------------------------------
 BYTE   W96
// 009   ----------------------------------------
 BYTE   W96
// 010   ----------------------------------------
 BYTE   W96
// 011   ----------------------------------------
 BYTE   N24  Fn4  v100
 BYTE   W24
 BYTE   Ds4
 BYTE   W24
 BYTE   Fn4
 BYTE   W24
 BYTE   As4
 BYTE   W24
// 012   ----------------------------------------
 BYTE   N48  Cn5
 BYTE   W48
 BYTE   Gn4
 BYTE   W48
// 013   ----------------------------------------
 BYTE   N72  Fn4
 BYTE   W72
 BYTE   N24  Ds4
 BYTE   W24
// 014   ----------------------------------------
 BYTE   N96  Fn4
 BYTE   W96
// 015   ----------------------------------------
 BYTE   N24
 BYTE   W24
 BYTE   Ds4
 BYTE   W24
 BYTE   Fn4
 BYTE   W24
 BYTE   N12  Ds5
 BYTE   W12
 BYTE   Dn5
 BYTE   W12
// 016   ----------------------------------------
 BYTE   N24  Cn5
 BYTE   W24
 BYTE   As4
 BYTE   W24
 BYTE   Cn5
 BYTE   W24
 BYTE   Fn5
 BYTE   W24
// 017   ----------------------------------------
 BYTE   N24
 BYTE   W24
 BYTE   N12  Ds5
 BYTE   W12
 BYTE   Dn5
 BYTE   W12
 BYTE   TIE  Cn5
 BYTE   W48
// 018   ----------------------------------------
 BYTE   W96
// 019   ----------------------------------------
 BYTE   EOT
 BYTE   W96
// 020   ----------------------------------------
 BYTE   W96
// 021   ----------------------------------------
 BYTE   W96
// 022   ----------------------------------------
 BYTE   W96
// 023   ----------------------------------------
 BYTE   W96
// 024   ----------------------------------------
 BYTE   W96
// 025   ----------------------------------------
 BYTE   W96
// 026   ----------------------------------------
 BYTE   W96
// 027   ----------------------------------------
 BYTE   W96
// 028   ----------------------------------------
 BYTE   W96
// 029   ----------------------------------------
 BYTE   N48  Bn4  v052
 BYTE   N48  Bn5  v040
 BYTE   W48
 BYTE   N24  An4  v052
 BYTE   N24  An5  v040
 BYTE   W24
 BYTE   Dn5  v052
 BYTE   N24  Dn6  v040
 BYTE   W24
// 030   ----------------------------------------
 BYTE   N48  Cn5  v052
 BYTE   N48  Cn6  v040
 BYTE   W48
 BYTE   Dn5  v072
 BYTE   N48  As5  v040
 BYTE   W48
// 031   ----------------------------------------
 BYTE   Ds5  v080
 BYTE   W48
 BYTE   N24  Cs5
 BYTE   W24
 BYTE   Fn5
 BYTE   W24
// 032   ----------------------------------------
 BYTE   N48  Fs5
 BYTE   W48
 BYTE   N04  An5
 BYTE   W04
 BYTE   As5
 BYTE   W04
 BYTE   Bn5
 BYTE   W04
 BYTE   N84  An5
 BYTE   W84
// 033   ----------------------------------------
 BYTE   N48  An3  v060
 BYTE   N48  An4
 BYTE   W48
 BYTE   N24  Gn4
 BYTE   N24  Gn5
 BYTE   W24
 BYTE   N16  Fs4
 BYTE   N16  Fs5
 BYTE   W16
 BYTE   N08  En4
 BYTE   N08  En5
 BYTE   W08
// 034   ----------------------------------------
 BYTE   N16  Dn4
 BYTE   N16  Dn5
 BYTE   W16
 BYTE   N08  En4
 BYTE   N08  En5
 BYTE   W08
 BYTE   N24  Fs4
 BYTE   N24  Fs5
 BYTE   W24
 BYTE   En4
 BYTE   N24  En5
 BYTE   W24
 BYTE   Bn3
 BYTE   N24  Bn4
 BYTE   W24
// 035   ----------------------------------------
 BYTE   An3
 BYTE   N24  An4
 BYTE   W24
 BYTE   N16  Gn3
 BYTE   N16  Gn4
 BYTE   W16
 BYTE   N08  Fs3
 BYTE   N08  Fs4
 BYTE   W08
 BYTE   N24  En3
 BYTE   N24  En4
 BYTE   W24
 BYTE   N04  Bn4
 BYTE   W04
 BYTE   En5
 BYTE   W04
 BYTE   N16  Dn5
 BYTE   W16
// 036   ----------------------------------------
 BYTE   N24
 BYTE   W24
 BYTE   N16  Cn5
 BYTE   N04  En5
 BYTE   W04
 BYTE   N12
 BYTE   W12
 BYTE   N08  Bn4
 BYTE   N08  Dn5
 BYTE   W08
 BYTE   N48  An4
 BYTE   N48  Cs5
 BYTE   W48
// 037   ----------------------------------------
 BYTE   N16  An4
 BYTE   N16  Cn5
 BYTE   W16
 BYTE   N08  Bn4
 BYTE   N08  Dn5
 BYTE   W08
 BYTE   N24  Cn5
 BYTE   N24  En5
 BYTE   W24
 BYTE   Bn4
 BYTE   N04  Gn5
 BYTE   W04
 BYTE   N20  Dn5
 BYTE   W20
 BYTE   N24  An4
 BYTE   W24
// 038   ----------------------------------------
 BYTE   Cn5
 BYTE   W24
 BYTE   N48  Cn6
 BYTE   W48
 BYTE   N16
 BYTE   W16
 BYTE   N08  Bn5
 BYTE   W08
// 039   ----------------------------------------
 BYTE   N48  Gn5
 BYTE   W48
 BYTE   Fs5
 BYTE   W48
// 040   ----------------------------------------
 BYTE   N96  En5
 BYTE   W96
// 041   ----------------------------------------
 BYTE   W96
// 042   ----------------------------------------
 BYTE   W96
// 043   ----------------------------------------
 BYTE   W96
// 044   ----------------------------------------
 BYTE   W96
// 045   ----------------------------------------
 BYTE   W96
// 046   ----------------------------------------
 BYTE   W96
// 047   ----------------------------------------
 BYTE   W96
// 048   ----------------------------------------
 BYTE   W96
// 049   ----------------------------------------
 BYTE   W96
// 050   ----------------------------------------
 BYTE   W96
// 051   ----------------------------------------
 BYTE   W96
// 052   ----------------------------------------
 BYTE   W96
// 053   ----------------------------------------
 BYTE   W96
// 054   ----------------------------------------
 BYTE   W96
// 055   ----------------------------------------
 BYTE   W72
 BYTE   W96
// 056   ----------------------------------------
 BYTE   W72
 BYTE   W72
// 057   ----------------------------------------
 BYTE   W96
// 058   ----------------------------------------
 BYTE   W72
 BYTE   W96
// 059   ----------------------------------------
 BYTE   W24
 BYTE   W96
// 060   ----------------------------------------
 BYTE   W96
// 061   ----------------------------------------
 BYTE   W96
// 062   ----------------------------------------
 BYTE   W96
// 063   ----------------------------------------
 BYTE   N24  As5  v072
 BYTE   W24
 BYTE   N12  Gs5
 BYTE   W12
 BYTE   Gn5
 BYTE   W12
 BYTE   N48  Fn5
 BYTE   W48
// 064   ----------------------------------------
 BYTE   N16  Cs5  v080
 BYTE   W16
 BYTE   N08  As4
 BYTE   W08
 BYTE   N16  Cs5
 BYTE   W16
 BYTE   N08  Ds5
 BYTE   W08
 BYTE   N24  Fn5
 BYTE   W24
 BYTE   As4
 BYTE   W24
// 065   ----------------------------------------
 BYTE   N16  Gs5
 BYTE   W16
 BYTE   N08  Gn5
 BYTE   W08
 BYTE   N40  Fn5
 BYTE   W40
 BYTE   N08  Ds5
 BYTE   W08
 BYTE   Cs5
 BYTE   W16
 BYTE   Cn5
 BYTE   W08
// 066   ----------------------------------------
 BYTE   N48  As4
 BYTE   W48
 BYTE   TIE  Fn5
 BYTE   W48
// 067   ----------------------------------------
 BYTE   W72
 BYTE   EOT
 BYTE   W24
// 068   ----------------------------------------
 BYTE   N96  Ds5
 BYTE   W96
// 069   ----------------------------------------
 BYTE   N48  Dn5
 BYTE   W48
 BYTE   As4
 BYTE   W48
// 070   ----------------------------------------
 BYTE   N96  Ds5
 BYTE   W96
// 071   ----------------------------------------
 BYTE   TIE  Dn5
 BYTE   W24
 BYTE   W01
 BYTE   W01
 BYTE   W02
 BYTE   W02
 BYTE   W01
 BYTE   W01
 BYTE   W01
 BYTE   W02
 BYTE   W01
 BYTE   W01
 BYTE   W01
 BYTE   W01
 BYTE   W02
 BYTE   W01
 BYTE   W01
 BYTE   W01
 BYTE   W01
 BYTE   W02
 BYTE   W01
 BYTE   W01
 BYTE   W01
 BYTE   W02
 BYTE   W02
 BYTE   W01
 BYTE   W01
 BYTE   W01
 BYTE   W02
 BYTE   W01
 BYTE   W01
 BYTE   W01
 BYTE   W01
 BYTE   W02
 BYTE   W01
 BYTE   W01
 BYTE   W01
 BYTE   W01
 BYTE   W02
 BYTE   W01
 BYTE   W01
 BYTE   W01
 BYTE   W02
 BYTE   W02
 BYTE   W01
 BYTE   W01
 BYTE   W01
 BYTE   W02
 BYTE   W01
 BYTE   W01
 BYTE   W01
 BYTE   W01
 BYTE   W02
 BYTE   W01
 BYTE   W01
 BYTE   W01
 BYTE   W01
 BYTE   W02
 BYTE   W01
// 072   ----------------------------------------
 BYTE   W01
 BYTE   W01
 BYTE   W02
 BYTE   W02
 BYTE   W01
 BYTE   W01
 BYTE   W01
 BYTE   W02
 BYTE   W01
 BYTE   W01
 BYTE   W01
 BYTE   W01
 BYTE   W02
 BYTE   W01
 BYTE   W01
 BYTE   W01
 BYTE   W01
 BYTE   W02
 BYTE   W01
 BYTE   W01
 BYTE   W01
 BYTE   W02
 BYTE   W02
 BYTE   W01
 BYTE   W01
 BYTE   W01
 BYTE   W02
 BYTE   W01
 BYTE   W01
 BYTE   W01
 BYTE   W01
 BYTE   W02
 BYTE   W01
 BYTE   W01
 BYTE   W01
 BYTE   W01
 BYTE   W02
 BYTE   W01
 BYTE   EOT
 BYTE   W24
 BYTE   W24
// 073   ----------------------------------------
 BYTE   W96
// 074   ----------------------------------------
 BYTE   W96
// 075   ----------------------------------------
 BYTE   W96
// 076   ----------------------------------------
 BYTE   W96
// 077   ----------------------------------------
 BYTE   W96
// 078   ----------------------------------------
 BYTE   W96
// 079   ----------------------------------------
 BYTE   W96
// 080   ----------------------------------------
 BYTE   GoTo
  POIN2 Acent_Label_6_0162AF2F
 BYTE   FINE

//**************** Track 8 (Midi-Chn.7) ****************//

Acent_008:
// 000   ----------------------------------------
 BYTE   KEYSH   Acent_key+0
 BYTE   VOICE   6
 BYTE   VOL   46*Acent_mvl/mxv
 BYTE   PAN   c_v+11
 BYTE   W96
// 001   ----------------------------------------
 BYTE   W96
// 002   ----------------------------------------
 BYTE   W96
// 003   ----------------------------------------
Acent_Label_7_0162B10F:
 BYTE   W96
// 004   ----------------------------------------
 BYTE   W96
// 005   ----------------------------------------
 BYTE   W96
// 006   ----------------------------------------
 BYTE   W96
// 007   ----------------------------------------
 BYTE   N08  Fn2  v100
 BYTE   W08
 BYTE   Cn3
 BYTE   W08
 BYTE   Fn3
 BYTE   W08
 BYTE   En3
 BYTE   W08
 BYTE   En2
 BYTE   W08
 BYTE   En3
 BYTE   W08
 BYTE   Ds3
 BYTE   W08
 BYTE   Ds2
 BYTE   W08
 BYTE   Ds3
 BYTE   W08
 BYTE   Dn3
 BYTE   W08
 BYTE   Dn2
 BYTE   W08
 BYTE   Dn3
 BYTE   W08
// 008   ----------------------------------------
 BYTE   Cs3
 BYTE   W08
 BYTE   Cs2
 BYTE   W08
 BYTE   Gs1
 BYTE   W08
 BYTE   Ds3
 BYTE   W08
 BYTE   Cs2
 BYTE   W08
 BYTE   Cs3
 BYTE   W08
 BYTE   Cn3
 BYTE   W08
 BYTE   Cn2
 BYTE   W08
 BYTE   Gs1
 BYTE   W08
 BYTE   Gs2
 BYTE   W08
 BYTE   En2
 BYTE   W08
 BYTE   Cn2
 BYTE   W08
// 009   ----------------------------------------
 BYTE   Fn2
 BYTE   W08
 BYTE   Cn3
 BYTE   W08
 BYTE   Fn3
 BYTE   W08
 BYTE   En3
 BYTE   W08
 BYTE   En2
 BYTE   W08
 BYTE   En3
 BYTE   W08
 BYTE   Fn3
 BYTE   W08
 BYTE   Fn2
 BYTE   W08
 BYTE   Fn3
 BYTE   W08
 BYTE   Gn3
 BYTE   W08
 BYTE   Cn3
 BYTE   W08
 BYTE   Gn3
 BYTE   W08
// 010   ----------------------------------------
 BYTE   Cn4
 BYTE   W08
 BYTE   Cn3
 BYTE   W08
 BYTE   Cs4
 BYTE   W08
 BYTE   As3
 BYTE   W08
 BYTE   Cs3
 BYTE   W08
 BYTE   Fs3
 BYTE   W08
 BYTE   Cn4
 BYTE   W08
 BYTE   Cn3
 BYTE   W08
 BYTE   Cn4
 BYTE   W08
 BYTE   As3
 BYTE   W08
 BYTE   Gn3
 BYTE   W08
 BYTE   Cn3
 BYTE   W08
// 011   ----------------------------------------
 BYTE   W96
// 012   ----------------------------------------
 BYTE   W96
// 013   ----------------------------------------
 BYTE   W96
// 014   ----------------------------------------
 BYTE   W96
// 015   ----------------------------------------
 BYTE   W96
// 016   ----------------------------------------
 BYTE   W96
// 017   ----------------------------------------
 BYTE   W96
// 018   ----------------------------------------
 BYTE   W96
// 019   ----------------------------------------
 BYTE   W96
// 020   ----------------------------------------
 BYTE   W96
// 021   ----------------------------------------
 BYTE   W96
// 022   ----------------------------------------
 BYTE   W96
// 023   ----------------------------------------
 BYTE   W96
// 024   ----------------------------------------
 BYTE   W96
// 025   ----------------------------------------
 BYTE   W96
// 026   ----------------------------------------
 BYTE   W96
// 027   ----------------------------------------
 BYTE   W96
// 028   ----------------------------------------
 BYTE   W96
// 029   ----------------------------------------
 BYTE   W96
// 030   ----------------------------------------
 BYTE   W96
// 031   ----------------------------------------
 BYTE   W96
// 032   ----------------------------------------
 BYTE   W48
 BYTE   W96
// 033   ----------------------------------------
 BYTE   W96
// 034   ----------------------------------------
 BYTE   W96
// 035   ----------------------------------------
 BYTE   W96
// 036   ----------------------------------------
 BYTE   W96
// 037   ----------------------------------------
 BYTE   W96
// 038   ----------------------------------------
 BYTE   W96
// 039   ----------------------------------------
 BYTE   W96
// 040   ----------------------------------------
 BYTE   W96
// 041   ----------------------------------------
 BYTE   W96
// 042   ----------------------------------------
 BYTE   W96
// 043   ----------------------------------------
 BYTE   W96
// 044   ----------------------------------------
 BYTE   W96
// 045   ----------------------------------------
 BYTE   W96
// 046   ----------------------------------------
 BYTE   W96
// 047   ----------------------------------------
 BYTE   W96
// 048   ----------------------------------------
 BYTE   W96
// 049   ----------------------------------------
 BYTE   W96
// 050   ----------------------------------------
 BYTE   W96
// 051   ----------------------------------------
 BYTE   W96
// 052   ----------------------------------------
 BYTE   W96
// 053   ----------------------------------------
 BYTE   W96
// 054   ----------------------------------------
 BYTE   W96
// 055   ----------------------------------------
 BYTE   W72
 BYTE   W96
// 056   ----------------------------------------
 BYTE   W72
 BYTE   W72
// 057   ----------------------------------------
 BYTE   W96
// 058   ----------------------------------------
 BYTE   W72
 BYTE   W96
// 059   ----------------------------------------
 BYTE   W24
 BYTE   W96
// 060   ----------------------------------------
 BYTE   W96
// 061   ----------------------------------------
 BYTE   W96
// 062   ----------------------------------------
 BYTE   W96
// 063   ----------------------------------------
 BYTE   W96
// 064   ----------------------------------------
 BYTE   W96
// 065   ----------------------------------------
 BYTE   W96
// 066   ----------------------------------------
 BYTE   W96
// 067   ----------------------------------------
 BYTE   W96
// 068   ----------------------------------------
 BYTE   W96
// 069   ----------------------------------------
 BYTE   W96
// 070   ----------------------------------------
 BYTE   W96
// 071   ----------------------------------------
 BYTE   W96
// 072   ----------------------------------------
 BYTE   W96
// 073   ----------------------------------------
 BYTE   W96
// 074   ----------------------------------------
 BYTE   W96
// 075   ----------------------------------------
 BYTE   W96
// 076   ----------------------------------------
 BYTE   N12  Cn2
 BYTE   N12  Cn4
 BYTE   W08
 BYTE   Ds2
 BYTE   N12  Ds4
 BYTE   W08
 BYTE   Ds3
 BYTE   N12  Ds5
 BYTE   W08
 BYTE   Dn3
 BYTE   N12  Dn5
 BYTE   W16
 BYTE   N08  Dn3
 BYTE   N08  Dn5
 BYTE   W08
 BYTE   N12  Dn3
 BYTE   N12  Dn5
 BYTE   W16
 BYTE   Dn3
 BYTE   N12  Dn5
 BYTE   W08
 BYTE   Cn3
 BYTE   N12  Cn5
 BYTE   W16
 BYTE   N08  Cn3
 BYTE   N08  Cn5
 BYTE   W08
// 077   ----------------------------------------
 BYTE   N16  Cn3
 BYTE   N16  Cn5
 BYTE   W24
 BYTE   N12  Dn3
 BYTE   N12  Dn5
 BYTE   W16
 BYTE   Cn3
 BYTE   N12  Cn5
 BYTE   W08
 BYTE   Bn2
 BYTE   N12  Bn4
 BYTE   W24
 BYTE   Gn2
 BYTE   N12  Gn4
 BYTE   W24
// 078   ----------------------------------------
 BYTE   Cn2
 BYTE   N12  Cn4
 BYTE   W08
 BYTE   Ds2
 BYTE   N12  Ds4
 BYTE   W08
 BYTE   Ds3
 BYTE   N12  Ds5
 BYTE   W08
 BYTE   Dn3
 BYTE   N12  Dn5
 BYTE   W16
 BYTE   Dn3
 BYTE   N12  Dn5
 BYTE   W08
 BYTE   Ds3
 BYTE   N12  Ds5
 BYTE   W16
 BYTE   Ds3
 BYTE   N12  Ds5
 BYTE   W08
 BYTE   Fn3
 BYTE   N12  Fn5
 BYTE   W16
 BYTE   Fn3
 BYTE   N12  Fn5
 BYTE   W08
// 079   ----------------------------------------
 BYTE   Gs3
 BYTE   N12  Gs5
 BYTE   W96
// 080   ----------------------------------------
 BYTE   GoTo
  POIN2 Acent_Label_7_0162B10F
 BYTE   FINE

//**************** Track 9 (Midi-Chn.8) ****************//

Acent_009:
// 000   ----------------------------------------
 BYTE   KEYSH   Acent_key+0
 BYTE   VOICE   48
 BYTE   VOL   51*Acent_mvl/mxv
 BYTE   PAN   c_v-24
 BYTE   W96
// 001   ----------------------------------------
 BYTE   W96
// 002   ----------------------------------------
 BYTE   W96
// 003   ----------------------------------------
Acent_Label_8_0162B233:
 BYTE   N04  Gs2  v127
 BYTE   W32
 BYTE   Gn2
 BYTE   W24
 BYTE   N04
 BYTE   W24
 BYTE   Gs2
 BYTE   W16
// 004   ----------------------------------------
 BYTE   W08
 BYTE   Gn2
 BYTE   W08
 BYTE   Gs2
 BYTE   W16
 BYTE   Gn2
 BYTE   W24
 BYTE   N04
 BYTE   W08
 BYTE   Gs2
 BYTE   W16
 BYTE   En2
 BYTE   W08
 BYTE   Gn2
 BYTE   W08
// 005   ----------------------------------------
 BYTE   W24
 BYTE   En2
 BYTE   W08
 BYTE   Gn2
 BYTE   W24
 BYTE   Cn3
 BYTE   W24
 BYTE   As2
 BYTE   W16
// 006   ----------------------------------------
 BYTE   Cn3
 BYTE   W16
 BYTE   Cs3
 BYTE   W08
 BYTE   As2
 BYTE   W24
 BYTE   Cn3
 BYTE   W16
 BYTE   N04
 BYTE   W08
 BYTE   N08  As2
 BYTE   W24
// 007   ----------------------------------------
 BYTE   W32
 BYTE   N04  Gn3
 BYTE   W24
 BYTE   N04
 BYTE   W24
 BYTE   Gs3
 BYTE   W16
// 008   ----------------------------------------
 BYTE   W08
 BYTE   Gn3
 BYTE   W08
 BYTE   Gs3
 BYTE   W16
 BYTE   Gn3
 BYTE   W24
 BYTE   N04
 BYTE   W08
 BYTE   Gs3
 BYTE   W16
 BYTE   En3
 BYTE   W08
 BYTE   Gn3
 BYTE   W08
// 009   ----------------------------------------
 BYTE   Gs3
 BYTE   W32
 BYTE   Gn3
 BYTE   W24
 BYTE   Cn4
 BYTE   W24
 BYTE   As3
 BYTE   W16
// 010   ----------------------------------------
 BYTE   Cn4
 BYTE   W16
 BYTE   Cs4
 BYTE   W08
 BYTE   As3
 BYTE   W24
 BYTE   Cn4
 BYTE   W16
 BYTE   N04
 BYTE   W08
 BYTE   As3
 BYTE   W16
 BYTE   Cn4
 BYTE   W08
// 011   ----------------------------------------
 BYTE   N96  Cn3  v060
 BYTE   N96  Fn3
 BYTE   W96
// 012   ----------------------------------------
 BYTE   Cn3
 BYTE   N96  Fn3
 BYTE   W96
// 013   ----------------------------------------
 BYTE   Dn3
 BYTE   N96  Fn3
 BYTE   W96
// 014   ----------------------------------------
 BYTE   Dn3
 BYTE   N96  Fn3
 BYTE   W96
// 015   ----------------------------------------
 BYTE   W96
// 016   ----------------------------------------
 BYTE   W96
// 017   ----------------------------------------
 BYTE   W96
// 018   ----------------------------------------
 BYTE   N48  Dn3  v100
 BYTE   W48
 BYTE   En3
 BYTE   W48
// 019   ----------------------------------------
 BYTE   N96  Ds3
 BYTE   W01
 BYTE   W02
 BYTE   W01
 BYTE   W02
 BYTE   W01
 BYTE   W02
 BYTE   W02
 BYTE   W01
 BYTE   W02
 BYTE   W01
 BYTE   W02
 BYTE   W01
 BYTE   W02
 BYTE   W01
 BYTE   W02
 BYTE   W01
 BYTE   W02
 BYTE   W01
 BYTE   W02
 BYTE   W01
 BYTE   W01
 BYTE   W02
 BYTE   W02
 BYTE   W01
 BYTE   W02
 BYTE   W01
 BYTE   W02
 BYTE   W01
 BYTE   W02
 BYTE   W01
 BYTE   W02
 BYTE   W02
 BYTE   W01
 BYTE   W02
 BYTE   W01
 BYTE   W02
 BYTE   W01
 BYTE   W02
 BYTE   W01
 BYTE   W02
 BYTE   W01
 BYTE   W01
 BYTE   W02
 BYTE   W01
 BYTE   W02
 BYTE   W01
 BYTE   W02
 BYTE   W02
 BYTE   W01
 BYTE   W02
 BYTE   W01
 BYTE   W02
 BYTE   W01
 BYTE   W02
 BYTE   W01
 BYTE   W02
 BYTE   W01
 BYTE   W02
 BYTE   W02
 BYTE   W01
 BYTE   W02
 BYTE   W01
 BYTE   W01
 BYTE   W01
// 020   ----------------------------------------
 BYTE   W72
 BYTE   N08  Ds4  v060
 BYTE   W08
 BYTE   Cs4
 BYTE   W08
 BYTE   Cn4
 BYTE   W08
// 021   ----------------------------------------
 BYTE   N48  As3
 BYTE   W48
 BYTE   Gs3
 BYTE   N48  Fn4
 BYTE   W48
// 022   ----------------------------------------
 BYTE   N96  Gn3
 BYTE   N48  Ds4
 BYTE   W48
 BYTE   Bn4
 BYTE   W48
// 023   ----------------------------------------
 BYTE   Fs3
 BYTE   N48  As4
 BYTE   W48
 BYTE   N24  Cn3
 BYTE   N48  Fn4
 BYTE   W24
 BYTE   N24  Cs3
 BYTE   W24
// 024   ----------------------------------------
 BYTE   Bn2  v100
 BYTE   W24
 BYTE   N08  As2
 BYTE   W24
 BYTE   N24  Fs2
 BYTE   W24
 BYTE   N08  Fn2
 BYTE   W16
 BYTE   Fn3
 BYTE   W08
// 025   ----------------------------------------
 BYTE   W08
 BYTE   N08
 BYTE   W08
 BYTE   N08
 BYTE   W24
 BYTE   Cs3
 BYTE   W16
 BYTE   N08
 BYTE   W08
 BYTE   N08
 BYTE   W24
 BYTE   En3
 BYTE   W08
// 026   ----------------------------------------
 BYTE   W08
 BYTE   N08
 BYTE   W08
 BYTE   N08
 BYTE   W24
 BYTE   Cs3
 BYTE   W16
 BYTE   N08
 BYTE   W08
 BYTE   N08
 BYTE   W24
 BYTE   Gs3
 BYTE   W08
// 027   ----------------------------------------
 BYTE   W08
 BYTE   N08
 BYTE   W08
 BYTE   N08
 BYTE   W24
 BYTE   En3
 BYTE   W16
 BYTE   N08
 BYTE   W08
 BYTE   N08
 BYTE   W24
 BYTE   Gn3
 BYTE   W08
// 028   ----------------------------------------
 BYTE   W08
 BYTE   N08
 BYTE   W08
 BYTE   N08
 BYTE   W24
 BYTE   En3
 BYTE   W16
 BYTE   N08
 BYTE   W08
 BYTE   N08
 BYTE   W32
// 029   ----------------------------------------
 BYTE   N24  An3  v072
 BYTE   W24
 BYTE   Gn3
 BYTE   W24
 BYTE   Fn3
 BYTE   W24
 BYTE   En3
 BYTE   W24
// 030   ----------------------------------------
 BYTE   N48  Ds3
 BYTE   W48
 BYTE   N24  Gn3
 BYTE   W24
 BYTE   As3
 BYTE   W24
// 031   ----------------------------------------
 BYTE   N48  Fn3  v100
 BYTE   W48
 BYTE   N24  Ds3
 BYTE   W24
 BYTE   Fn3
 BYTE   W24
// 032   ----------------------------------------
 BYTE   N48  Fs3
 BYTE   W48
 BYTE   N96  Dn3
 BYTE   W96
// 033   ----------------------------------------
 BYTE   W96
// 034   ----------------------------------------
 BYTE   W96
// 035   ----------------------------------------
 BYTE   W96
// 036   ----------------------------------------
 BYTE   W96
// 037   ----------------------------------------
 BYTE   N48  An2  v060
 BYTE   W48
 BYTE   N48
 BYTE   W48
// 038   ----------------------------------------
 BYTE   Dn3
 BYTE   W48
 BYTE   Gn2
 BYTE   W48
// 039   ----------------------------------------
 BYTE   Cn3
 BYTE   W48
 BYTE   Dn3
 BYTE   W48
// 040   ----------------------------------------
 BYTE   N96  En3
 BYTE   W96
// 041   ----------------------------------------
 BYTE   N24  An2
 BYTE   W24
 BYTE   En2
 BYTE   W24
 BYTE   Gn3
 BYTE   W24
 BYTE   N16  Fs3
 BYTE   W16
 BYTE   N08  En3
 BYTE   W08
// 042   ----------------------------------------
 BYTE   N16  Dn3
 BYTE   W16
 BYTE   N08  En3
 BYTE   W08
 BYTE   N24  Fs3
 BYTE   W24
 BYTE   En3
 BYTE   W24
 BYTE   Bn2
 BYTE   W24
// 043   ----------------------------------------
 BYTE   N16  An2
 BYTE   W16
 BYTE   N08  Bn2
 BYTE   W08
 BYTE   N24  Cn3
 BYTE   W24
 BYTE   N16  Bn2
 BYTE   W16
 BYTE   N08  Cn3
 BYTE   W08
 BYTE   N24  Dn3
 BYTE   W24
// 044   ----------------------------------------
 BYTE   N16  Cs3
 BYTE   W16
 BYTE   N08  Dn3
 BYTE   W08
 BYTE   N24  En3
 BYTE   W24
 BYTE   N16  Ds3
 BYTE   W16
 BYTE   N08  En3
 BYTE   W08
 BYTE   N24  Fs3
 BYTE   W24
// 045   ----------------------------------------
 BYTE   W72
 BYTE   N48  An3  v100
 BYTE   W24
// 046   ----------------------------------------
 BYTE   W24
 BYTE   N12  Gn4  v080
 BYTE   W12
 BYTE   Fs4
 BYTE   W12
 BYTE   En4
 BYTE   W12
 BYTE   Dn4
 BYTE   W12
 BYTE   Cn4
 BYTE   W12
 BYTE   Bn3
 BYTE   W12
// 047   ----------------------------------------
 BYTE   N96  An3
 BYTE   W02
 BYTE   W01
 BYTE   W02
 BYTE   W01
 BYTE   W02
 BYTE   W01
 BYTE   W02
 BYTE   W01
 BYTE   W02
 BYTE   W01
 BYTE   W02
 BYTE   W01
 BYTE   W02
 BYTE   W01
 BYTE   W02
 BYTE   W02
 BYTE   W01
 BYTE   W02
 BYTE   W01
 BYTE   W01
 BYTE   W02
 BYTE   W01
 BYTE   W02
 BYTE   W01
 BYTE   W02
 BYTE   W01
 BYTE   W02
 BYTE   W01
 BYTE   W02
 BYTE   W01
 BYTE   W02
 BYTE   W02
 BYTE   W01
 BYTE   W02
 BYTE   W01
 BYTE   W02
 BYTE   W01
 BYTE   W02
 BYTE   W01
 BYTE   W01
 BYTE   W02
 BYTE   W01
 BYTE   W02
 BYTE   W01
 BYTE   W02
 BYTE   W01
 BYTE   W02
 BYTE   W02
 BYTE   W01
 BYTE   W02
 BYTE   W01
 BYTE   W02
 BYTE   W01
 BYTE   W02
 BYTE   W01
 BYTE   W02
 BYTE   W01
 BYTE   W02
 BYTE   W01
 BYTE   W01
 BYTE   W02
 BYTE   W04
// 048   ----------------------------------------
 BYTE   TIE  En4  v060
 BYTE   W01
 BYTE   W01
 BYTE   W01
 BYTE   W01
 BYTE   W01
 BYTE   W01
 BYTE   W01
 BYTE   W01
 BYTE   W01
 BYTE   W01
 BYTE   W01
 BYTE   W01
 BYTE   W01
 BYTE   W01
 BYTE   W01
 BYTE   W01
 BYTE   W01
 BYTE   W01
 BYTE   W01
 BYTE   W01
 BYTE   W01
 BYTE   W01
 BYTE   W01
 BYTE   W01
 BYTE   W01
 BYTE   W01
 BYTE   W01
 BYTE   W01
 BYTE   W01
 BYTE   W01
 BYTE   W01
 BYTE   W01
 BYTE   W01
 BYTE   W01
 BYTE   W01
 BYTE   W01
 BYTE   W01
 BYTE   W01
 BYTE   W01
 BYTE   W01
 BYTE   W01
 BYTE   W01
 BYTE   W01
 BYTE   W01
 BYTE   W01
 BYTE   W01
 BYTE   W01
 BYTE   W01
 BYTE   W01
 BYTE   W01
 BYTE   W01
 BYTE   W01
 BYTE   W01
 BYTE   W01
 BYTE   W01
 BYTE   W01
 BYTE   W01
 BYTE   W01
 BYTE   W01
 BYTE   W01
 BYTE   W01
 BYTE   W01
 BYTE   W01
 BYTE   W01
 BYTE   W01
 BYTE   W01
 BYTE   W01
 BYTE   W01
 BYTE   W01
 BYTE   W01
 BYTE   W01
 BYTE   W01
 BYTE   W01
 BYTE   W01
 BYTE   W22
// 049   ----------------------------------------
 BYTE   W96
// 050   ----------------------------------------
 BYTE   W96
// 051   ----------------------------------------
 BYTE   W96
// 052   ----------------------------------------
 BYTE   W96
// 053   ----------------------------------------
 BYTE   W96
// 054   ----------------------------------------
 BYTE   EOT
 BYTE   W24
 BYTE   N24  An3
 BYTE   W40
 BYTE   N08  Cs4
 BYTE   W08
 BYTE   N96  An3
 BYTE   W96
// 055   ----------------------------------------
 BYTE   N48  Cs4
 BYTE   W48
 BYTE   N24  En4
 BYTE   W24
 BYTE   N96  An3
 BYTE   W96
// 056   ----------------------------------------
 BYTE   W72
 BYTE   W96
// 057   ----------------------------------------
 BYTE   N24  An2  v040
 BYTE   N24  An4
 BYTE   W24
 BYTE   An2
 BYTE   N24  An4
 BYTE   W24
 BYTE   An2
 BYTE   N24  An4
 BYTE   W24
 BYTE   An2
 BYTE   N24  An4
 BYTE   W96
// 058   ----------------------------------------
 BYTE   W24
 BYTE   An2
 BYTE   N24  An4
 BYTE   W24
 BYTE   An2
 BYTE   N24  An4
 BYTE   W24
 BYTE   An2
 BYTE   N24  An4
 BYTE   W24
// 059   ----------------------------------------
 BYTE   An2
 BYTE   N24  An4
 BYTE   W24
 BYTE   N16  Ds3  v080
 BYTE   W16
 BYTE   N08  Fn3
 BYTE   W08
 BYTE   N24  Gn3
 BYTE   W24
 BYTE   N16  An3
 BYTE   W16
 BYTE   N08  Gn3
 BYTE   W08
// 060   ----------------------------------------
 BYTE   N24  Fn3
 BYTE   W24
 BYTE   N16  Ds3
 BYTE   W16
 BYTE   N08  Fn3
 BYTE   W08
 BYTE   N24  Gn3
 BYTE   W24
 BYTE   N48  Fn3
 BYTE   W48
// 061   ----------------------------------------
 BYTE   N16  Ds3  v100
 BYTE   W16
 BYTE   N08  Fn3
 BYTE   W08
 BYTE   N24  Gn3
 BYTE   W24
 BYTE   N16  Fn3
 BYTE   W16
 BYTE   N08  Gn3
 BYTE   W08
 BYTE   N24  An3
 BYTE   W24
// 062   ----------------------------------------
 BYTE   Gn4  v072
 BYTE   W24
 BYTE   N12  Fn4
 BYTE   W12
 BYTE   Ds4
 BYTE   W12
 BYTE   N48  Cs4
 BYTE   W48
// 063   ----------------------------------------
 BYTE   N16  Cs3  v100
 BYTE   W16
 BYTE   N08  As2
 BYTE   W08
 BYTE   N16  Cs3
 BYTE   W16
 BYTE   N08  Ds3
 BYTE   W08
 BYTE   N24  Fn3
 BYTE   W24
 BYTE   As2
 BYTE   W24
// 064   ----------------------------------------
 BYTE   N16  Gs3
 BYTE   W16
 BYTE   N08  Gn3
 BYTE   W08
 BYTE   N40  Fn3
 BYTE   W40
 BYTE   N08  Ds3
 BYTE   W08
 BYTE   Cs3
 BYTE   W16
 BYTE   Cn3
 BYTE   W08
// 065   ----------------------------------------
 BYTE   N48  As2
 BYTE   W48
 BYTE   TIE  Fn3
 BYTE   W48
// 066   ----------------------------------------
 BYTE   W72
 BYTE   EOT
 BYTE   N08  Ds3  v072
 BYTE   W08
 BYTE   Gn3
 BYTE   W08
 BYTE   As3
 BYTE   W08
// 067   ----------------------------------------
 BYTE   N96  Cn4  v052
 BYTE   W96
// 068   ----------------------------------------
 BYTE   N48  As3
 BYTE   W48
 BYTE   Gn3  v040
 BYTE   W48
// 069   ----------------------------------------
 BYTE   N96  As3
 BYTE   W96
// 070   ----------------------------------------
 BYTE   W96
// 071   ----------------------------------------
 BYTE   W96
// 072   ----------------------------------------
 BYTE   W96
// 073   ----------------------------------------
 BYTE   W96
// 074   ----------------------------------------
 BYTE   W96
// 075   ----------------------------------------
 BYTE   W96
// 076   ----------------------------------------
 BYTE   W88
 BYTE   N08  Bn3  v052
 BYTE   W08
// 077   ----------------------------------------
 BYTE   N24  Cn4
 BYTE   W24
 BYTE   Dn4  v064
 BYTE   W24
 BYTE   Ds4  v076
 BYTE   W24
 BYTE   Fn4  v088
 BYTE   W24
// 078   ----------------------------------------
 BYTE   N48  Gs4  v100
 BYTE   W48
 BYTE   N24  Gn4
 BYTE   W24
 BYTE   En4
 BYTE   W24
// 079   ----------------------------------------
 BYTE   GoTo
  POIN2 Acent_Label_8_0162B233
 BYTE   FINE

//**************** Track 10 (Midi-Chn.9) ****************//

Acent_010:
// 000   ----------------------------------------
 BYTE   KEYSH   Acent_key+0
 BYTE   VOICE   47
 BYTE   VOL   51*Acent_mvl/mxv
 BYTE   PAN   c_v+26
 BYTE   W24
 BYTE   N03  An0  v060
 BYTE   N03  Cn1
 BYTE   N03  En1
 BYTE   W24
 BYTE   Cn1
 BYTE   W04
 BYTE   N03
 BYTE   W04
 BYTE   N03
 BYTE   W04
 BYTE   N03
 BYTE   W04
 BYTE   N03
 BYTE   W04
 BYTE   N03
 BYTE   W04
 BYTE   N03
 BYTE   W04
 BYTE   N03
 BYTE   W04
 BYTE   N03
 BYTE   W04
 BYTE   N03
 BYTE   W04
 BYTE   N03
 BYTE   W04
 BYTE   N03
 BYTE   W04
// 001   ----------------------------------------
 BYTE   N03
 BYTE   W04
 BYTE   N03
 BYTE   W04
 BYTE   N03
 BYTE   W04
 BYTE   N03
 BYTE   W04
 BYTE   N03
 BYTE   W04
 BYTE   N03
 BYTE   W04
 BYTE   N03
 BYTE   W04
 BYTE   N03
 BYTE   W04
 BYTE   N03
 BYTE   W04
 BYTE   N03
 BYTE   W04
 BYTE   N03
 BYTE   W04
 BYTE   N03
 BYTE   W04
 BYTE   N03
 BYTE   W48
// 002   ----------------------------------------
 BYTE   N04  Cn1  v040
 BYTE   W04
 BYTE   Cn1  v044
 BYTE   W04
 BYTE   N04
 BYTE   W04
 BYTE   Cn1  v048
 BYTE   W04
 BYTE   N04
 BYTE   W04
 BYTE   Cn1  v052
 BYTE   W04
 BYTE   N04
 BYTE   W04
 BYTE   N04
 BYTE   W04
 BYTE   Cn1  v056
 BYTE   W04
 BYTE   N04
 BYTE   W04
 BYTE   Cn1  v060
 BYTE   W04
 BYTE   N04
 BYTE   W04
 BYTE   N06  Dn1
 BYTE   W08
 BYTE   N06
 BYTE   W08
 BYTE   N06
 BYTE   W08
 BYTE   Cn1
 BYTE   W08
 BYTE   N06
 BYTE   W08
 BYTE   N06
 BYTE   W08
// 003   ----------------------------------------
Acent_Label_9_0162B5B7:
 BYTE   N08  Cn1  v060
 BYTE   W24
 BYTE   N08
 BYTE   W24
 BYTE   N08
 BYTE   W24
 BYTE   N08
 BYTE   W24
 BYTE   PEND 
 BYTE   PATT
  POIN2 Acent_Label_9_0162B5B7
 BYTE   PATT
  POIN2 Acent_Label_9_0162B5B7
// 004   ----------------------------------------
 BYTE   N08  Cn1  v060
 BYTE   W24
 BYTE   N08
 BYTE   W24
 BYTE   N08
 BYTE   W48
 BYTE   PATT
  POIN2 Acent_Label_9_0162B5B7
 BYTE   PATT
  POIN2 Acent_Label_9_0162B5B7
 BYTE   PATT
  POIN2 Acent_Label_9_0162B5B7
// 005   ----------------------------------------
 BYTE   N08  Cn1  v060
 BYTE   W24
 BYTE   N08
 BYTE   W24
 BYTE   Gs1  v100
 BYTE   W08
 BYTE   N08
 BYTE   W08
 BYTE   N08
 BYTE   W08
 BYTE   En1
 BYTE   W08
 BYTE   N08
 BYTE   W08
 BYTE   N08
 BYTE   W08
// 006   ----------------------------------------
 BYTE   W96
// 007   ----------------------------------------
 BYTE   W96
// 008   ----------------------------------------
 BYTE   W96
// 009   ----------------------------------------
 BYTE   W96
// 010   ----------------------------------------
 BYTE   W96
// 011   ----------------------------------------
 BYTE   W96
// 012   ----------------------------------------
 BYTE   W96
// 013   ----------------------------------------
 BYTE   W96
// 014   ----------------------------------------
 BYTE   W96
// 015   ----------------------------------------
 BYTE   W96
// 016   ----------------------------------------
 BYTE   W96
// 017   ----------------------------------------
 BYTE   W96
// 018   ----------------------------------------
 BYTE   W96
// 019   ----------------------------------------
 BYTE   Cn2
 BYTE   W24
 BYTE   As1
 BYTE   W24
 BYTE   An1
 BYTE   W24
 BYTE   Gn1
 BYTE   W24
// 020   ----------------------------------------
Acent_Label_9_0162B60B:
 BYTE   N08  Bn1  v072
 BYTE   W24
 BYTE   N08
 BYTE   W24
 BYTE   Fn1
 BYTE   W24
 BYTE   N08
 BYTE   W24
 BYTE   PEND 
 BYTE   PATT
  POIN2 Acent_Label_9_0162B60B
 BYTE   PATT
  POIN2 Acent_Label_9_0162B60B
// 021   ----------------------------------------
 BYTE   N08  Bn1  v072
 BYTE   W16
 BYTE   N08
 BYTE   W08
 BYTE   N08
 BYTE   W24
 BYTE   Fn1
 BYTE   W24
 BYTE   N08
 BYTE   W24
// 022   ----------------------------------------
Acent_Label_9_0162B62C:
 BYTE   N08  Fn1  v072
 BYTE   W24
 BYTE   N08
 BYTE   W48
 BYTE   Bn1
 BYTE   W24
 BYTE   PEND 
 BYTE   PATT
  POIN2 Acent_Label_9_0162B62C
// 023   ----------------------------------------
 BYTE   N03  Cn1  v032
 BYTE   W04
 BYTE   N03
 BYTE   W04
 BYTE   N03
 BYTE   W04
 BYTE   N03
 BYTE   W04
 BYTE   Cn1  v036
 BYTE   W04
 BYTE   N03
 BYTE   W04
 BYTE   N03
 BYTE   W04
 BYTE   N03
 BYTE   W04
 BYTE   N03
 BYTE   W04
 BYTE   Cn1  v040
 BYTE   W04
 BYTE   N03
 BYTE   W04
 BYTE   N03
 BYTE   W04
 BYTE   N03
 BYTE   W04
 BYTE   Cn1  v044
 BYTE   W04
 BYTE   N03
 BYTE   W04
 BYTE   N03
 BYTE   W04
 BYTE   N03
 BYTE   W04
 BYTE   N03
 BYTE   W04
 BYTE   Cn1  v048
 BYTE   W04
 BYTE   N03
 BYTE   W04
 BYTE   N03
 BYTE   W04
 BYTE   N03
 BYTE   W04
 BYTE   N03
 BYTE   W04
 BYTE   Cn1  v052
 BYTE   W04
// 024   ----------------------------------------
 BYTE   N03
 BYTE   W04
 BYTE   N03
 BYTE   W04
 BYTE   N03
 BYTE   W04
 BYTE   Cn1  v056
 BYTE   W04
 BYTE   N03
 BYTE   W04
 BYTE   N03
 BYTE   W04
 BYTE   N03
 BYTE   W04
 BYTE   N03
 BYTE   W04
 BYTE   Cn1  v060
 BYTE   W04
 BYTE   N03
 BYTE   W04
 BYTE   N03
 BYTE   W04
 BYTE   N03
 BYTE   W04
 BYTE   Fn1  v072
 BYTE   W04
 BYTE   Fn1  v052
 BYTE   W04
 BYTE   N03
 BYTE   W04
 BYTE   N03
 BYTE   W04
 BYTE   N03
 BYTE   W04
 BYTE   N03
 BYTE   W04
 BYTE   N03
 BYTE   W04
 BYTE   N03
 BYTE   W04
 BYTE   N03
 BYTE   W04
 BYTE   N03
 BYTE   W04
 BYTE   N03
 BYTE   W04
 BYTE   N03
 BYTE   W04
// 025   ----------------------------------------
 BYTE   N03
 BYTE   W04
 BYTE   N03
 BYTE   W04
 BYTE   N03
 BYTE   W04
 BYTE   N03
 BYTE   W04
 BYTE   N03
 BYTE   W04
 BYTE   N03
 BYTE   W04
 BYTE   N03
 BYTE   W04
 BYTE   N03
 BYTE   W04
 BYTE   N03
 BYTE   W04
 BYTE   N03
 BYTE   W04
 BYTE   N03
 BYTE   W04
 BYTE   N03
 BYTE   W04
Acent_Label_9_0162B6BD:
 BYTE   N08  Cn1  v060
 BYTE   W24
 BYTE   N08
 BYTE   W16
 BYTE   N08
 BYTE   W08
// 026   ----------------------------------------
 BYTE   N08
 BYTE   W24
 BYTE   N08
 BYTE   W16
 BYTE   N08
 BYTE   W08
 BYTE   PEND 
 BYTE   PATT
  POIN2 Acent_Label_9_0162B6BD
 BYTE   PATT
  POIN2 Acent_Label_9_0162B6BD
 BYTE   PATT
  POIN2 Acent_Label_9_0162B6BD
 BYTE   PATT
  POIN2 Acent_Label_9_0162B6BD
 BYTE   PATT
  POIN2 Acent_Label_9_0162B6BD
 BYTE   PATT
  POIN2 Acent_Label_9_0162B6BD
 BYTE   PATT
  POIN2 Acent_Label_9_0162B6BD
 BYTE   PATT
  POIN2 Acent_Label_9_0162B6BD
 BYTE   PATT
  POIN2 Acent_Label_9_0162B6BD
 BYTE   PATT
  POIN2 Acent_Label_9_0162B6BD
 BYTE   PATT
  POIN2 Acent_Label_9_0162B6BD
// 027   ----------------------------------------
 BYTE   W40
 BYTE   N08  Cn2  v072
 BYTE   W32
 BYTE   Dn2  v080
 BYTE   W24
// 028   ----------------------------------------
 BYTE   W88
 BYTE   As1
 BYTE   W08
// 029   ----------------------------------------
 BYTE   N03  Ds1  v072
 BYTE   W04
 BYTE   N03
 BYTE   W04
 BYTE   Ds1  v068
 BYTE   W04
 BYTE   N03
 BYTE   W04
 BYTE   Ds1  v064
 BYTE   W04
 BYTE   N03
 BYTE   W04
 BYTE   Ds1  v060
 BYTE   W04
 BYTE   N03
 BYTE   W04
 BYTE   N03
 BYTE   W04
 BYTE   Ds1  v056
 BYTE   W04
 BYTE   N03
 BYTE   W04
 BYTE   Ds1  v052
 BYTE   W04
 BYTE   N03
 BYTE   W04
 BYTE   Ds1  v048
 BYTE   W04
 BYTE   N03
 BYTE   W04
 BYTE   Ds1  v044
 BYTE   W04
 BYTE   N03
 BYTE   W04
 BYTE   N03
 BYTE   W04
 BYTE   Ds1  v040
 BYTE   W04
 BYTE   N03
 BYTE   W04
 BYTE   Ds1  v036
 BYTE   W04
 BYTE   N03
 BYTE   W04
 BYTE   Ds1  v032
 BYTE   W04
 BYTE   N03
 BYTE   W04
// 030   ----------------------------------------
 BYTE   W96
// 031   ----------------------------------------
 BYTE   W96
// 032   ----------------------------------------
 BYTE   W96
// 033   ----------------------------------------
 BYTE   W16
 BYTE   N04  En1  v072
 BYTE   W16
 BYTE   Cn2
 BYTE   W64
// 034   ----------------------------------------
 BYTE   W48
 BYTE   N03  En1
 BYTE   W04
 BYTE   Bn0  v032
 BYTE   W04
 BYTE   N03
 BYTE   W04
 BYTE   N03
 BYTE   W04
 BYTE   N03
 BYTE   W04
 BYTE   Bn0  v036
 BYTE   W04
 BYTE   N03
 BYTE   W04
 BYTE   N03
 BYTE   W04
 BYTE   N03
 BYTE   W04
 BYTE   Bn0  v040
 BYTE   W04
 BYTE   N03
 BYTE   W04
 BYTE   N03
 BYTE   W04
// 035   ----------------------------------------
 BYTE   N03
 BYTE   W04
 BYTE   N03
 BYTE   W04
 BYTE   Bn0  v044
 BYTE   W04
 BYTE   N03
 BYTE   W04
 BYTE   N03
 BYTE   W04
 BYTE   N03
 BYTE   W04
 BYTE   Bn0  v048
 BYTE   W04
 BYTE   N03
 BYTE   W04
 BYTE   N03
 BYTE   W04
 BYTE   N03
 BYTE   W04
 BYTE   N03
 BYTE   W04
 BYTE   Bn0  v052
 BYTE   W04
 BYTE   N03
 BYTE   W04
 BYTE   N03
 BYTE   W04
 BYTE   N03
 BYTE   W04
 BYTE   N03
 BYTE   W04
 BYTE   Bn0  v056
 BYTE   W04
 BYTE   N03
 BYTE   W04
 BYTE   N03
 BYTE   W04
 BYTE   N03
 BYTE   W04
 BYTE   Bn0  v060
 BYTE   W04
 BYTE   N03
 BYTE   W04
 BYTE   N03
 BYTE   W04
 BYTE   N03
 BYTE   W04
// 036   ----------------------------------------
 BYTE   W72
 BYTE   N08  En1
 BYTE   W04
 BYTE   N03  Bn0  v032
 BYTE   W04
 BYTE   N03
 BYTE   W04
 BYTE   N03
 BYTE   W04
 BYTE   N03
 BYTE   W04
 BYTE   Bn0  v036
 BYTE   W04
// 037   ----------------------------------------
 BYTE   N03
 BYTE   W04
 BYTE   N03
 BYTE   W04
 BYTE   N03
 BYTE   W04
 BYTE   Bn0  v040
 BYTE   W04
 BYTE   N03
 BYTE   W04
 BYTE   N03
 BYTE   W04
 BYTE   N03
 BYTE   W04
 BYTE   N03
 BYTE   W04
 BYTE   Bn0  v044
 BYTE   W04
 BYTE   N03
 BYTE   W04
 BYTE   N03
 BYTE   W04
 BYTE   N03
 BYTE   W04
 BYTE   Bn0  v048
 BYTE   W04
 BYTE   N03
 BYTE   W04
 BYTE   N03
 BYTE   W04
 BYTE   N03
 BYTE   W04
 BYTE   N03
 BYTE   W04
 BYTE   Bn0  v052
 BYTE   W03
 BYTE   N03
 BYTE   W01
 BYTE   N08  Gs1  v060
 BYTE   W03
 BYTE   N03  Bn0  v052
 BYTE   W04
 BYTE   N03
 BYTE   W04
 BYTE   N03
 BYTE   W04
 BYTE   Bn0  v056
 BYTE   W04
 BYTE   N03
 BYTE   W04
 BYTE   N03
 BYTE   W04
// 038   ----------------------------------------
 BYTE   N03
 BYTE   W04
 BYTE   Bn0  v060
 BYTE   W04
 BYTE   N03
 BYTE   W04
 BYTE   N03
 BYTE   W05
 BYTE   N03
 BYTE   W76
 BYTE   N08  Gs1
 BYTE   W24
// 039   ----------------------------------------
 BYTE   En1
 BYTE   W24
 BYTE   W24
 BYTE   N03  Gs1  v032
 BYTE   W04
 BYTE   Gs1  v036
 BYTE   W04
 BYTE   Gs1  v040
 BYTE   W04
 BYTE   Gs1  v044
 BYTE   W04
 BYTE   Gs1  v048
 BYTE   W04
 BYTE   Gs1  v052
 BYTE   W04
 BYTE   Gs1  v060
 BYTE   W04
 BYTE   Gs1  v064
 BYTE   W04
 BYTE   Gs1  v068
 BYTE   W04
 BYTE   Gs1  v072
 BYTE   W04
 BYTE   Gs1  v076
 BYTE   W04
 BYTE   Gs1  v080
 BYTE   W04
// 040   ----------------------------------------
 BYTE   N08  An0  v072
 BYTE   W40
 BYTE   Ds2  v060
 BYTE   W08
 BYTE   N08
 BYTE   W24
 BYTE   An1
 BYTE   W16
 BYTE   En1  v072
 BYTE   W08
// 041   ----------------------------------------
 BYTE   An0
 BYTE   W40
 BYTE   Ds2  v060
 BYTE   W08
 BYTE   N08
 BYTE   W24
 BYTE   An1
 BYTE   W16
 BYTE   En1  v072
 BYTE   W08
// 042   ----------------------------------------
 BYTE   An0
 BYTE   W40
 BYTE   Ds2  v060
 BYTE   W08
 BYTE   N08
 BYTE   W24
 BYTE   An1
 BYTE   W16
 BYTE   En1  v072
 BYTE   W08
// 043   ----------------------------------------
 BYTE   An0
 BYTE   W40
 BYTE   Ds2  v060
 BYTE   W08
 BYTE   N08
 BYTE   W24
 BYTE   An1
 BYTE   W24
// 044   ----------------------------------------
 BYTE   N09
 BYTE   W16
 BYTE   N09
 BYTE   W08
 BYTE   Ds2
 BYTE   W48
 BYTE   N08  An1
 BYTE   W08
 BYTE   N08
 BYTE   W08
 BYTE   N08
 BYTE   W08
// 045   ----------------------------------------
 BYTE   N09
 BYTE   W24
 BYTE   N09
 BYTE   W72
// 046   ----------------------------------------
 BYTE   N09
 BYTE   W64
 BYTE   N08
 BYTE   W08
 BYTE   N01
 BYTE   W24
// 047   ----------------------------------------
 BYTE   N09
 BYTE   W24
 BYTE   Fn1
 BYTE   W24
 BYTE   An1
 BYTE   W48
// 048   ----------------------------------------
 BYTE   N08
 BYTE   W72
 BYTE   Fn1
 BYTE   W08
 BYTE   N08
 BYTE   W08
 BYTE   N08
 BYTE   W08
// 049   ----------------------------------------
Acent_Label_9_0162B87E:
 BYTE   N08  An1  v060
 BYTE   W24
 BYTE   N08
 BYTE   W72
 BYTE   PEND 
 BYTE   PATT
  POIN2 Acent_Label_9_0162B87E
// 050   ----------------------------------------
 BYTE   N08  An1  v060
 BYTE   W24
 BYTE   Fn1
 BYTE   W72
// 051   ----------------------------------------
 BYTE   N03  Bn0
 BYTE   W04
 BYTE   Bn0  v020
 BYTE   W04
 BYTE   N03
 BYTE   W04
 BYTE   Bn0  v024
 BYTE   W04
 BYTE   N03
 BYTE   W04
 BYTE   N03
 BYTE   W04
 BYTE   N03
 BYTE   W04
 BYTE   N03
 BYTE   W04
 BYTE   N03
 BYTE   W04
 BYTE   Bn0  v028
 BYTE   W04
 BYTE   N03
 BYTE   W04
 BYTE   N03
 BYTE   W04
 BYTE   N03
 BYTE   W04
 BYTE   N03
 BYTE   W04
 BYTE   N03
 BYTE   W04
 BYTE   Bn0  v032
 BYTE   W04
 BYTE   N03
 BYTE   W04
 BYTE   N03
 BYTE   W04
 BYTE   N03
 BYTE   W04
 BYTE   N03
 BYTE   W04
 BYTE   N03
 BYTE   W04
 BYTE   Bn0  v036
 BYTE   W04
 BYTE   N03
 BYTE   W03
 BYTE   N03
 BYTE   W04
 BYTE   N03
 BYTE   W01
// 052   ----------------------------------------
 BYTE   W03
 BYTE   N03
 BYTE   W04
 BYTE   N03
 BYTE   W04
 BYTE   N03
 BYTE   W04
 BYTE   Bn0  v040
 BYTE   W04
 BYTE   N03
 BYTE   W04
 BYTE   N03
 BYTE   W04
 BYTE   N03
 BYTE   W04
 BYTE   N03
 BYTE   W04
 BYTE   N03
 BYTE   W05
 BYTE   Bn0  v044
 BYTE   W04
 BYTE   N03
 BYTE   W04
 BYTE   N03
 BYTE   W04
 BYTE   N03
 BYTE   W04
 BYTE   N03
 BYTE   W04
 BYTE   N03
 BYTE   W04
 BYTE   Bn0  v048
 BYTE   W04
 BYTE   N03
 BYTE   W04
 BYTE   N03
 BYTE   W04
 BYTE   N03
 BYTE   W04
 BYTE   N03
 BYTE   W04
 BYTE   N03
 BYTE   W04
 BYTE   Bn0  v052
 BYTE   W04
 BYTE   N03
 BYTE   W04
// 053   ----------------------------------------
 BYTE   N03
 BYTE   W04
 BYTE   N03
 BYTE   W04
 BYTE   N03
 BYTE   W04
 BYTE   Bn0  v048
 BYTE   W04
 BYTE   N03
 BYTE   W04
 BYTE   N03
 BYTE   W04
 BYTE   N03
 BYTE   W04
 BYTE   N03
 BYTE   W04
 BYTE   Bn0  v044
 BYTE   W03
 BYTE   N03
 BYTE   W04
 BYTE   N03
 BYTE   W04
 BYTE   N03
 BYTE   W04
 BYTE   Bn0  v040
 BYTE   W04
 BYTE   N03
 BYTE   W04
 BYTE   N03
 BYTE   W04
 BYTE   N03
 BYTE   W04
 BYTE   N03
 BYTE   W04
 BYTE   Bn0  v036
 BYTE   W04
 BYTE   N03
 BYTE   W04
 BYTE   N03
 BYTE   W05
 BYTE   N03
 BYTE   W04
 BYTE   N03
 BYTE   W04
 BYTE   Bn0  v032
 BYTE   W04
 BYTE   N03
 BYTE   W04
// 054   ----------------------------------------
 BYTE   N03
 BYTE   W04
 BYTE   N03
 BYTE   W04
 BYTE   Bn0  v028
 BYTE   W04
 BYTE   N03
 BYTE   W04
 BYTE   N03
 BYTE   W04
 BYTE   N03
 BYTE   W03
 BYTE   N03
 BYTE   W04
 BYTE   Bn0  v024
 BYTE   W04
 BYTE   N03
 BYTE   W04
 BYTE   N03
 BYTE   W04
 BYTE   N03
 BYTE   W04
 BYTE   N03
 BYTE   W04
 BYTE   Bn0  v020
 BYTE   W04
 BYTE   N03
 BYTE   W04
 BYTE   N03
 BYTE   W04
 BYTE   N03
 BYTE   W04
 BYTE   N03
 BYTE   W05
 BYTE   Bn0  v016
 BYTE   W04
 BYTE   N03
 BYTE   W04
 BYTE   N03
 BYTE   W04
 BYTE   N03
 BYTE   W04
 BYTE   Bn0  v012
 BYTE   W04
 BYTE   N03
 BYTE   W04
 BYTE   N03
 BYTE   W04
// 055   ----------------------------------------
 BYTE   W96
// 056   ----------------------------------------
 BYTE   W96
// 057   ----------------------------------------
 BYTE   W96
// 058   ----------------------------------------
 BYTE   W96
// 059   ----------------------------------------
 BYTE   N04  Cs1  v100
 BYTE   W24
 BYTE   N03  Bn0  v040
 BYTE   N04  Cs1  v100
 BYTE   W04
 BYTE   N03  Bn0  v040
 BYTE   W04
 BYTE   N03
 BYTE   W03
 BYTE   N03
 BYTE   W04
 BYTE   N03
 BYTE   W04
 BYTE   N03
 BYTE   W04
 BYTE   N03
 BYTE   W04
 BYTE   N03
 BYTE   W04
 BYTE   N03
 BYTE   W04
 BYTE   Bn0  v036
 BYTE   W04
 BYTE   N03
 BYTE   W04
 BYTE   N03
 BYTE   W04
 BYTE   N03
 BYTE   W04
 BYTE   N03
 BYTE   W05
 BYTE   N03
 BYTE   W04
 BYTE   N03
 BYTE   W04
 BYTE   N03
 BYTE   W04
 BYTE   Bn0  v032
 BYTE   W04
// 060   ----------------------------------------
 BYTE   N03
 BYTE   W04
 BYTE   N03
 BYTE   W04
 BYTE   N03
 BYTE   W04
 BYTE   N03
 BYTE   W04
 BYTE   N03
 BYTE   W04
 BYTE   N03
 BYTE   W03
 BYTE   N03
 BYTE   W04
 BYTE   Bn0  v028
 BYTE   W04
 BYTE   N03
 BYTE   W04
 BYTE   N03
 BYTE   W04
 BYTE   N03
 BYTE   W04
 BYTE   N03
 BYTE   W04
 BYTE   N03
 BYTE   W04
 BYTE   N03
 BYTE   W04
 BYTE   N03
 BYTE   W04
 BYTE   Bn0  v024
 BYTE   W04
 BYTE   N03
 BYTE   W05
 BYTE   N03
 BYTE   W04
 BYTE   N03
 BYTE   W04
 BYTE   N03
 BYTE   W04
 BYTE   N03
 BYTE   W04
 BYTE   N03
 BYTE   W04
 BYTE   N03
 BYTE   W04
 BYTE   Bn0  v020
 BYTE   W04
// 061   ----------------------------------------
 BYTE   N03
 BYTE   W04
 BYTE   N03
 BYTE   W04
 BYTE   N03
 BYTE   W03
 BYTE   N03
 BYTE   W04
 BYTE   N03
 BYTE   W04
 BYTE   N03
 BYTE   W04
 BYTE   N03
 BYTE   W04
 BYTE   N03
 BYTE   W04
 BYTE   N03
 BYTE   W04
 BYTE   N03
 BYTE   W04
 BYTE   N03
 BYTE   W04
 BYTE   N03
 BYTE   W04
 BYTE   N03
 BYTE   W04
 BYTE   Bn0  v024
 BYTE   W05
 BYTE   N03
 BYTE   W04
 BYTE   N03
 BYTE   W04
 BYTE   N03
 BYTE   W04
 BYTE   Bn0  v028
 BYTE   W04
 BYTE   N03
 BYTE   W04
 BYTE   N03
 BYTE   W04
 BYTE   N03
 BYTE   W04
 BYTE   Bn0  v032
 BYTE   W04
 BYTE   N03
 BYTE   W04
 BYTE   N03
 BYTE   W03
 BYTE   N03
 BYTE   W01
// 062   ----------------------------------------
 BYTE   W03
 BYTE   Bn0  v036
 BYTE   W04
 BYTE   N03
 BYTE   W04
 BYTE   N03
 BYTE   W04
 BYTE   N03
 BYTE   W04
 BYTE   Bn0  v040
 BYTE   W04
 BYTE   N03
 BYTE   W04
 BYTE   N03
 BYTE   W04
 BYTE   N03
 BYTE   W04
 BYTE   Bn0  v044
 BYTE   W04
 BYTE   N03
 BYTE   W05
 BYTE   N03
 BYTE   W04
 BYTE   N08  Fn1  v100
 BYTE   W24
 BYTE   N08
 BYTE   W24
// 063   ----------------------------------------
 BYTE   GoTo
  POIN2 Acent_Label_9_0162B5B7
 BYTE   FINE

//**************** Track 11 (Midi-Chn.10) ****************//

Acent_011:
// 000   ----------------------------------------
 BYTE   KEYSH   Acent_key+0
 BYTE   VOICE   60
 BYTE   VOL   51*Acent_mvl/mxv
 BYTE   PAN   c_v+16
 BYTE   W88
 BYTE   N09  Cn3  v100
 BYTE   W08
// 001   ----------------------------------------
 BYTE   Gn3
 BYTE   W16
 BYTE   As3
 BYTE   W08
 BYTE   N48  An3
 BYTE   W48
 BYTE   N96  Fn3
 BYTE   W24
// 002   ----------------------------------------
 BYTE   W96
// 003   ----------------------------------------
Acent_Label_10_0162BA40:
 BYTE   W96
// 004   ----------------------------------------
 BYTE   W96
// 005   ----------------------------------------
 BYTE   W96
// 006   ----------------------------------------
 BYTE   W96
// 007   ----------------------------------------
 BYTE   W96
// 008   ----------------------------------------
 BYTE   W96
// 009   ----------------------------------------
 BYTE   W96
// 010   ----------------------------------------
 BYTE   W96
// 011   ----------------------------------------
 BYTE   N72  Cn3  v060
 BYTE   W72
 BYTE   N16  Ds3
 BYTE   W16
 BYTE   N08  Dn3
 BYTE   W08
// 012   ----------------------------------------
 BYTE   N72  Cn3
 BYTE   W72
 BYTE   N16  Fn3
 BYTE   W16
 BYTE   N08  Ds3
 BYTE   W08
// 013   ----------------------------------------
 BYTE   N72  Dn3
 BYTE   W72
 BYTE   N24  Cn3
 BYTE   W24
// 014   ----------------------------------------
 BYTE   N96  Dn3
 BYTE   W96
// 015   ----------------------------------------
 BYTE   N24  Cn4  v100
 BYTE   W24
 BYTE   As3
 BYTE   W24
 BYTE   Gs3
 BYTE   W24
 BYTE   Gn3
 BYTE   W24
// 016   ----------------------------------------
 BYTE   N48  Fn3
 BYTE   W48
 BYTE   Ds3
 BYTE   W48
// 017   ----------------------------------------
 BYTE   Fn2  v052
 BYTE   N48  Cn3  v100
 BYTE   W48
 BYTE   Gs2  v052
 BYTE   N48  Ds3  v084
 BYTE   W48
// 018   ----------------------------------------
 BYTE   As2  v052
 BYTE   N48  Fn3  v068
 BYTE   W48
 BYTE   Gn3  v052
 BYTE   W48
// 019   ----------------------------------------
 BYTE   N24  As3  v100
 BYTE   W24
 BYTE   Ds3
 BYTE   W24
 BYTE   Gs3
 BYTE   W24
 BYTE   N16  Cn3
 BYTE   W16
 BYTE   N08  Cs3
 BYTE   W08
// 020   ----------------------------------------
 BYTE   N24  Ds3
 BYTE   W24
 BYTE   Fn3
 BYTE   W24
 BYTE   Ds3
 BYTE   W24
 BYTE   N16  Cs3
 BYTE   W16
 BYTE   N08  Cn3
 BYTE   W08
// 021   ----------------------------------------
 BYTE   N48  As2
 BYTE   W48
 BYTE   TIE  Fn3
 BYTE   W48
// 022   ----------------------------------------
 BYTE   W72
 BYTE   EOT
 BYTE   N16  Ds3
 BYTE   W16
 BYTE   N08  Fn3
 BYTE   W08
// 023   ----------------------------------------
 BYTE   N72  Gs3
 BYTE   W72
 BYTE   N08  Fs3
 BYTE   W16
 BYTE   Fn3
 BYTE   W08
// 024   ----------------------------------------
 BYTE   N24  Fs3  v080
 BYTE   W24
 BYTE   Fn3
 BYTE   W24
 BYTE   Ds3
 BYTE   W24
 BYTE   Dn3
 BYTE   W24
// 025   ----------------------------------------
 BYTE   N96  Cs3  v100
 BYTE   W96
// 026   ----------------------------------------
 BYTE   N48  An2
 BYTE   W48
 BYTE   Cs3
 BYTE   W48
// 027   ----------------------------------------
 BYTE   N96  En3
 BYTE   W96
// 028   ----------------------------------------
 BYTE   N48  Bn2
 BYTE   W48
 BYTE   Gn2
 BYTE   W48
// 029   ----------------------------------------
 BYTE   Bn3
 BYTE   W48
 BYTE   N24  An3
 BYTE   W24
 BYTE   Dn4
 BYTE   W24
// 030   ----------------------------------------
 BYTE   N48  Cn4
 BYTE   W48
 BYTE   As3
 BYTE   W48
// 031   ----------------------------------------
 BYTE   Fn3
 BYTE   W48
 BYTE   N24  Ds3
 BYTE   W24
 BYTE   Fn3
 BYTE   W24
// 032   ----------------------------------------
 BYTE   N48  Fs3
 BYTE   W48
 BYTE   N96  Fn3
 BYTE   W96
// 033   ----------------------------------------
 BYTE   W96
// 034   ----------------------------------------
 BYTE   W96
// 035   ----------------------------------------
 BYTE   W96
// 036   ----------------------------------------
 BYTE   W96
// 037   ----------------------------------------
 BYTE   W96
// 038   ----------------------------------------
 BYTE   W96
// 039   ----------------------------------------
 BYTE   W96
// 040   ----------------------------------------
 BYTE   W96
// 041   ----------------------------------------
 BYTE   N24  An2  v080
 BYTE   W24
 BYTE   En2
 BYTE   W24
 BYTE   Gn3
 BYTE   W24
 BYTE   N16  Fs3
 BYTE   W16
 BYTE   N08  En3
 BYTE   W08
// 042   ----------------------------------------
 BYTE   N16  Dn3
 BYTE   W16
 BYTE   N08  En3
 BYTE   W08
 BYTE   N24  Fs3
 BYTE   W24
 BYTE   En3
 BYTE   W24
 BYTE   Bn2
 BYTE   W24
// 043   ----------------------------------------
 BYTE   N16  An2
 BYTE   W16
 BYTE   N08  Bn2
 BYTE   W08
 BYTE   N24  Cn3
 BYTE   W24
 BYTE   N16  Bn2
 BYTE   W16
 BYTE   N08  Cn3
 BYTE   W08
 BYTE   N24  Dn3
 BYTE   W24
// 044   ----------------------------------------
 BYTE   N16  Cs3
 BYTE   W16
 BYTE   N08  Dn3
 BYTE   W08
 BYTE   N24  En3
 BYTE   W24
 BYTE   N16  Ds3
 BYTE   W16
 BYTE   N08  En3
 BYTE   W08
 BYTE   N24  Fs3
 BYTE   W24
// 045   ----------------------------------------
 BYTE   N16  Gn3
 BYTE   W16
 BYTE   N08
 BYTE   W08
 BYTE   N16
 BYTE   W16
 BYTE   N08
 BYTE   W08
 BYTE   N08
 BYTE   W24
 BYTE   N48  An3
 BYTE   W24
// 046   ----------------------------------------
 BYTE   W96
// 047   ----------------------------------------
 BYTE   W96
// 048   ----------------------------------------
 BYTE   W96
// 049   ----------------------------------------
 BYTE   W96
// 050   ----------------------------------------
 BYTE   W96
// 051   ----------------------------------------
 BYTE   W96
// 052   ----------------------------------------
 BYTE   W96
// 053   ----------------------------------------
 BYTE   W96
// 054   ----------------------------------------
 BYTE   W96
// 055   ----------------------------------------
 BYTE   W72
 BYTE   W96
// 056   ----------------------------------------
 BYTE   W72
 BYTE   W72
// 057   ----------------------------------------
 BYTE   W24
 BYTE   N08  Fn3  v060
 BYTE   W08
 BYTE   N08
 BYTE   W08
 BYTE   N08
 BYTE   W08
 BYTE   N08
 BYTE   W16
 BYTE   Cs3
 BYTE   W08
 BYTE   N96  Fs3
 BYTE   W96
// 058   ----------------------------------------
 BYTE   N24  Fn3
 BYTE   W24
 BYTE   En3
 BYTE   W24
 BYTE   N72  An2
 BYTE   W64
// 059   ----------------------------------------
 BYTE   N08  As3
 BYTE   W08
 BYTE   N48  An3
 BYTE   W96
// 060   ----------------------------------------
 BYTE   N16  Gn3  v080
 BYTE   W16
 BYTE   N08  An3
 BYTE   W08
 BYTE   N24  As3
 BYTE   W24
 BYTE   N16  Cn4
 BYTE   W16
 BYTE   N08  As3
 BYTE   W08
 BYTE   N24  An3
 BYTE   W24
// 061   ----------------------------------------
 BYTE   N16  Gn3
 BYTE   W16
 BYTE   N08  An3
 BYTE   W08
 BYTE   N24  As3
 BYTE   W24
 BYTE   N48  An3
 BYTE   W48
// 062   ----------------------------------------
 BYTE   N16  Gn3
 BYTE   W16
 BYTE   N08  An3
 BYTE   W08
 BYTE   N24  As3
 BYTE   W24
 BYTE   N16  An3
 BYTE   W16
 BYTE   N08  As3
 BYTE   W08
 BYTE   N24  Cn4
 BYTE   W24
// 063   ----------------------------------------
 BYTE   As4
 BYTE   W24
 BYTE   N12  Gs4
 BYTE   W12
 BYTE   Gn4
 BYTE   W12
 BYTE   N48  Fn4
 BYTE   W48
// 064   ----------------------------------------
 BYTE   W96
// 065   ----------------------------------------
 BYTE   W96
// 066   ----------------------------------------
 BYTE   N24  Gn2  v072
 BYTE   N24  As2
 BYTE   W24
 BYTE   An2
 BYTE   N24  Cn3
 BYTE   W24
 BYTE   As2
 BYTE   N24  Dn3
 BYTE   W24
 BYTE   N24
 BYTE   N24  Fn3
 BYTE   W24
// 067   ----------------------------------------
 BYTE   Cn3
 BYTE   N24  En3
 BYTE   W24
 BYTE   N08  As2
 BYTE   N08  Dn3
 BYTE   W16
 BYTE   An2
 BYTE   N08  Cn3
 BYTE   W08
 BYTE   N48  As2
 BYTE   N48  Dn3
 BYTE   W48
// 068   ----------------------------------------
 BYTE   N96  Ds4
 BYTE   W96
// 069   ----------------------------------------
 BYTE   N48  Dn4
 BYTE   W48
 BYTE   As3
 BYTE   W48
// 070   ----------------------------------------
 BYTE   N96  Ds4
 BYTE   W48
 BYTE   TIE  Fn3  v052
 BYTE   W48
// 071   ----------------------------------------
 BYTE   N96  Dn4  v072
 BYTE   W96
// 072   ----------------------------------------
 BYTE   EOT
 BYTE   Fn3
 BYTE   W96
// 073   ----------------------------------------
 BYTE   W96
// 074   ----------------------------------------
 BYTE   W96
// 075   ----------------------------------------
 BYTE   W96
// 076   ----------------------------------------
 BYTE   N24  Cn3
 BYTE   W24
 BYTE   N16  Gn2
 BYTE   W16
 BYTE   N08  Fn2
 BYTE   W08
 BYTE   TIE  Gn2  v100
 BYTE   W04
 BYTE   W04
 BYTE   W04
 BYTE   W04
 BYTE   W04
 BYTE   W04
 BYTE   W04
 BYTE   W03
 BYTE   W04
 BYTE   W04
 BYTE   W04
 BYTE   W04
 BYTE   W01
// 077   ----------------------------------------
 BYTE   W03
 BYTE   W04
 BYTE   W04
 BYTE   W04
 BYTE   W04
 BYTE   W04
 BYTE   W04
 BYTE   W04
 BYTE   W04
 BYTE   W03
 BYTE   W04
 BYTE   W04
 BYTE   W04
 BYTE   W04
 BYTE   W04
 BYTE   W04
 BYTE   W04
 BYTE   W04
 BYTE   W04
 BYTE   W04
 BYTE   W04
 BYTE   W04
 BYTE   W04
 BYTE   W03
 BYTE   W03
// 078   ----------------------------------------
 BYTE   W01
 BYTE   W04
 BYTE   W04
 BYTE   W04
 BYTE   W04
 BYTE   W04
 BYTE   W04
 BYTE   W04
 BYTE   W04
 BYTE   W04
 BYTE   W04
 BYTE   W04
 BYTE   W04
 BYTE   W03
 BYTE   W04
 BYTE   W04
 BYTE   W04
 BYTE   W04
 BYTE   W04
 BYTE   W04
 BYTE   W04
 BYTE   W04
 BYTE   W04
 BYTE   W04
 BYTE   W04
// 079   ----------------------------------------
 BYTE   EOT
 BYTE   N24  Gs1  v060
 BYTE   W02
 BYTE   W22
 BYTE   Cs2
 BYTE   W24
 BYTE   Gn1
 BYTE   W24
 BYTE   En1
 BYTE   W24
// 080   ----------------------------------------
 BYTE   GoTo
  POIN2 Acent_Label_10_0162BA40
 BYTE   FINE

//**************** Track 12 (Midi-Chn.11) ****************//

Acent_012:
// 000   ----------------------------------------
 BYTE   KEYSH   Acent_key+0
 BYTE   VOICE   46
 BYTE   VOL   51*Acent_mvl/mxv
 BYTE   PAN   c_v+26
 BYTE   W96
// 001   ----------------------------------------
 BYTE   W96
// 002   ----------------------------------------
 BYTE   W96
// 003   ----------------------------------------
Acent_Label_11_0162BC4F:
 BYTE   W96
// 004   ----------------------------------------
 BYTE   W96
// 005   ----------------------------------------
 BYTE   W96
// 006   ----------------------------------------
 BYTE   W96
// 007   ----------------------------------------
 BYTE   W96
// 008   ----------------------------------------
 BYTE   W96
// 009   ----------------------------------------
 BYTE   W96
// 010   ----------------------------------------
 BYTE   W96
// 011   ----------------------------------------
 BYTE   W72
 BYTE   N08  Fn5  v040
 BYTE   W08
 BYTE   Cn5
 BYTE   W08
 BYTE   Gs4
 BYTE   W08
// 012   ----------------------------------------
 BYTE   Fn4
 BYTE   W72
 BYTE   N16  Fn5
 BYTE   W16
 BYTE   N08  Cn5
 BYTE   W08
// 013   ----------------------------------------
 BYTE   Fn4
 BYTE   W72
 BYTE   N08
 BYTE   W16
 BYTE   An4
 BYTE   W08
// 014   ----------------------------------------
 BYTE   Fs5  v032
 BYTE   W16
 BYTE   Gn5
 BYTE   W08
 BYTE   Fs5
 BYTE   W16
 BYTE   Gn5
 BYTE   W08
 BYTE   Fs5
 BYTE   W48
// 015   ----------------------------------------
 BYTE   W96
// 016   ----------------------------------------
 BYTE   W96
// 017   ----------------------------------------
 BYTE   W96
// 018   ----------------------------------------
 BYTE   Fn5  v040
 BYTE   W08
 BYTE   Cn5
 BYTE   W08
 BYTE   Gs4
 BYTE   W08
 BYTE   Fn4
 BYTE   W72
// 019   ----------------------------------------
 BYTE   W96
// 020   ----------------------------------------
 BYTE   W72
 BYTE   Ds4  v052
 BYTE   W08
 BYTE   Cs4
 BYTE   W08
 BYTE   Cn4
 BYTE   W08
// 021   ----------------------------------------
 BYTE   As3
 BYTE   W96
// 022   ----------------------------------------
 BYTE   W72
 BYTE   Ds4
 BYTE   W16
 BYTE   Bn4  v080
 BYTE   W08
// 023   ----------------------------------------
 BYTE   As4  v060
 BYTE   W96
// 024   ----------------------------------------
 BYTE   W96
// 025   ----------------------------------------
 BYTE   W96
// 026   ----------------------------------------
 BYTE   W96
// 027   ----------------------------------------
 BYTE   W96
// 028   ----------------------------------------
 BYTE   W96
// 029   ----------------------------------------
 BYTE   W96
// 030   ----------------------------------------
 BYTE   W96
// 031   ----------------------------------------
 BYTE   W96
// 032   ----------------------------------------
 BYTE   W48
 BYTE   W96
// 033   ----------------------------------------
 BYTE   W96
// 034   ----------------------------------------
 BYTE   W96
// 035   ----------------------------------------
 BYTE   W96
// 036   ----------------------------------------
 BYTE   W96
// 037   ----------------------------------------
 BYTE   W96
// 038   ----------------------------------------
 BYTE   W96
// 039   ----------------------------------------
 BYTE   W96
// 040   ----------------------------------------
 BYTE   W96
// 041   ----------------------------------------
 BYTE   W96
// 042   ----------------------------------------
 BYTE   W96
// 043   ----------------------------------------
 BYTE   W96
// 044   ----------------------------------------
 BYTE   W96
// 045   ----------------------------------------
 BYTE   W96
// 046   ----------------------------------------
 BYTE   W96
// 047   ----------------------------------------
 BYTE   W96
// 048   ----------------------------------------
 BYTE   W96
// 049   ----------------------------------------
 BYTE   W96
// 050   ----------------------------------------
 BYTE   W96
// 051   ----------------------------------------
 BYTE   W96
// 052   ----------------------------------------
 BYTE   W96
// 053   ----------------------------------------
 BYTE   W44
 BYTE   W01
 BYTE   N03  An4  v040
 BYTE   W03
 BYTE   N06  Fn4  v060
 BYTE   W06
 BYTE   An4
 BYTE   W06
 BYTE   Fn5
 BYTE   W03
 BYTE   N03  En5  v040
 BYTE   W09
 BYTE   Fn5  v060
 BYTE   W03
 BYTE   En5
 BYTE   W03
 BYTE   Cs5
 BYTE   W03
 BYTE   An4
 BYTE   W03
 BYTE   Fn5
 BYTE   W03
 BYTE   Cs5
 BYTE   W03
 BYTE   An4
 BYTE   W03
 BYTE   En4
 BYTE   W03
// 054   ----------------------------------------
 BYTE   W96
// 055   ----------------------------------------
 BYTE   W72
 BYTE   W96
// 056   ----------------------------------------
 BYTE   W72
 BYTE   W24
// 057   ----------------------------------------
 BYTE   N04  En4  v052
 BYTE   W04
 BYTE   An4
 BYTE   W04
 BYTE   Cs5
 BYTE   W04
 BYTE   En5
 BYTE   W04
 BYTE   Fs5
 BYTE   W04
 BYTE   Gn5
 BYTE   W28
 BYTE   W96
// 058   ----------------------------------------
 BYTE   W72
 BYTE   W96
// 059   ----------------------------------------
 BYTE   W24
 BYTE   W96
// 060   ----------------------------------------
 BYTE   W64
 BYTE   N04
 BYTE   W08
 BYTE   Ds5
 BYTE   W24
// 061   ----------------------------------------
 BYTE   W36
 BYTE   N03  Gn5
 BYTE   W03
 BYTE   Ds5
 BYTE   W03
 BYTE   As4
 BYTE   W03
 BYTE   Gn4
 BYTE   W03
 BYTE   An5
 BYTE   W48
// 062   ----------------------------------------
 BYTE   W96
// 063   ----------------------------------------
 BYTE   W96
// 064   ----------------------------------------
 BYTE   W96
// 065   ----------------------------------------
 BYTE   W96
// 066   ----------------------------------------
 BYTE   W96
// 067   ----------------------------------------
 BYTE   W96
// 068   ----------------------------------------
 BYTE   W96
// 069   ----------------------------------------
 BYTE   W96
// 070   ----------------------------------------
 BYTE   W96
// 071   ----------------------------------------
 BYTE   W96
// 072   ----------------------------------------
 BYTE   W96
// 073   ----------------------------------------
 BYTE   W96
// 074   ----------------------------------------
 BYTE   W96
// 075   ----------------------------------------
 BYTE   W96
// 076   ----------------------------------------
 BYTE   W96
// 077   ----------------------------------------
 BYTE   W96
// 078   ----------------------------------------
 BYTE   W96
// 079   ----------------------------------------
 BYTE   W96
// 080   ----------------------------------------
 BYTE   GoTo
  POIN2 Acent_Label_11_0162BC4F
 BYTE   FINE

//**************** Track 13 (Midi-Chn.12) ****************//

Acent_013:
// 000   ----------------------------------------
 BYTE   KEYSH   Acent_key+0
 BYTE   VOICE   14
 BYTE   VOL   51*Acent_mvl/mxv
 BYTE   PAN   c_v-9
 BYTE   W24
 BYTE   N04  Gs6  v060
 BYTE   W04
 BYTE   N04
 BYTE   W04
 BYTE   N04
 BYTE   W40
 BYTE   N04
 BYTE   W24
// 001   ----------------------------------------
 BYTE   An6
 BYTE   W04
 BYTE   Gs6
 BYTE   W04
 BYTE   An6
 BYTE   W04
 BYTE   Gs6
 BYTE   W04
 BYTE   An6
 BYTE   W04
 BYTE   Gs6
 BYTE   W04
 BYTE   An6
 BYTE   W04
 BYTE   Gs6
 BYTE   W04
 BYTE   An6
 BYTE   W04
 BYTE   Gs6
 BYTE   W04
 BYTE   An6
 BYTE   W04
 BYTE   Gs6
 BYTE   W52
// 002   ----------------------------------------
 BYTE   W96
// 003   ----------------------------------------
Acent_Label_12_0162BD48:
 BYTE   W96
// 004   ----------------------------------------
 BYTE   W96
// 005   ----------------------------------------
 BYTE   W96
// 006   ----------------------------------------
 BYTE   W96
// 007   ----------------------------------------
 BYTE   W96
// 008   ----------------------------------------
 BYTE   W96
// 009   ----------------------------------------
 BYTE   W96
// 010   ----------------------------------------
 BYTE   W96
// 011   ----------------------------------------
 BYTE   W96
// 012   ----------------------------------------
 BYTE   W96
// 013   ----------------------------------------
 BYTE   W96
// 014   ----------------------------------------
 BYTE   W96
// 015   ----------------------------------------
 BYTE   W96
// 016   ----------------------------------------
 BYTE   W96
// 017   ----------------------------------------
 BYTE   W96
// 018   ----------------------------------------
 BYTE   W96
// 019   ----------------------------------------
 BYTE   W96
// 020   ----------------------------------------
 BYTE   W96
// 021   ----------------------------------------
 BYTE   W96
// 022   ----------------------------------------
 BYTE   W96
// 023   ----------------------------------------
 BYTE   W96
// 024   ----------------------------------------
 BYTE   W96
// 025   ----------------------------------------
 BYTE   N04  An6  v060
 BYTE   W04
 BYTE   Gs6
 BYTE   W04
 BYTE   An6
 BYTE   W04
 BYTE   Gs6
 BYTE   W04
 BYTE   An6
 BYTE   W04
 BYTE   Gs6
 BYTE   W04
 BYTE   An6
 BYTE   W04
 BYTE   Gs6
 BYTE   W04
 BYTE   An6
 BYTE   W04
 BYTE   Gs6
 BYTE   W04
 BYTE   An6
 BYTE   W04
 BYTE   Gs6
 BYTE   W04
 BYTE   N04
 BYTE   W24
 BYTE   N04
 BYTE   W24
// 026   ----------------------------------------
Acent_Label_12_0162BD7C:
 BYTE   W16
 BYTE   N04  Gs6  v060
 BYTE   W08
 BYTE   N04
 BYTE   W24
 BYTE   N04
 BYTE   W24
 BYTE   N04
 BYTE   W24
 BYTE   PEND 
// 027   ----------------------------------------
 BYTE   W48
 BYTE   N04
 BYTE   W24
 BYTE   N04
 BYTE   W24
 BYTE   PATT
  POIN2 Acent_Label_12_0162BD7C
// 028   ----------------------------------------
 BYTE   W96
// 029   ----------------------------------------
 BYTE   W96
// 030   ----------------------------------------
 BYTE   W96
// 031   ----------------------------------------
 BYTE   W48
 BYTE   N04  An6  v060
 BYTE   W04
 BYTE   Gs6
 BYTE   W04
 BYTE   An6
 BYTE   W04
 BYTE   Gs6
 BYTE   W04
 BYTE   An6
 BYTE   W04
 BYTE   Gs6
 BYTE   W04
 BYTE   An6
 BYTE   W04
 BYTE   Gs6
 BYTE   W04
 BYTE   An6
 BYTE   W04
 BYTE   Gs6
 BYTE   W04
 BYTE   An6
 BYTE   W04
 BYTE   Gs6
 BYTE   W04
// 032   ----------------------------------------
 BYTE   An6
 BYTE   W04
 BYTE   Gs6
 BYTE   W04
 BYTE   An6
 BYTE   W04
 BYTE   Gs6
 BYTE   W04
 BYTE   An6
 BYTE   W04
 BYTE   Gs6
 BYTE   W04
 BYTE   An6
 BYTE   W04
 BYTE   Gs6
 BYTE   W04
 BYTE   An6
 BYTE   W04
 BYTE   Gs6
 BYTE   W04
 BYTE   An6
 BYTE   W04
 BYTE   Gs6
 BYTE   W04
 BYTE   An6
 BYTE   W96
// 033   ----------------------------------------
 BYTE   W96
// 034   ----------------------------------------
 BYTE   W96
// 035   ----------------------------------------
 BYTE   W96
// 036   ----------------------------------------
 BYTE   W96
// 037   ----------------------------------------
 BYTE   W96
// 038   ----------------------------------------
 BYTE   W96
// 039   ----------------------------------------
 BYTE   W96
// 040   ----------------------------------------
 BYTE   W96
// 041   ----------------------------------------
 BYTE   W96
// 042   ----------------------------------------
 BYTE   W96
// 043   ----------------------------------------
 BYTE   W96
// 044   ----------------------------------------
 BYTE   W72
 BYTE   N08  An6  v052
 BYTE   W04
 BYTE   Gs6
 BYTE   W04
 BYTE   An6
 BYTE   W04
 BYTE   Gs6
 BYTE   W04
 BYTE   An6
 BYTE   W04
 BYTE   Gs6
 BYTE   W04
// 045   ----------------------------------------
 BYTE   An6
 BYTE   W04
 BYTE   Gs6
 BYTE   W04
 BYTE   An6
 BYTE   W04
 BYTE   Gs6
 BYTE   W04
 BYTE   An6
 BYTE   W04
 BYTE   Gs6
 BYTE   W04
 BYTE   An6
 BYTE   W04
 BYTE   Gs6
 BYTE   W04
 BYTE   An6
 BYTE   W04
 BYTE   Gs6
 BYTE   W04
 BYTE   An6
 BYTE   W04
 BYTE   Gs6
 BYTE   W52
// 046   ----------------------------------------
 BYTE   N04  Gs6  v080
 BYTE   W96
// 047   ----------------------------------------
 BYTE   Gs6  v100
 BYTE   W48
 BYTE   Ds4  v080
 BYTE   W48
// 048   ----------------------------------------
 BYTE   W48
 BYTE   Fs4
 BYTE   W48
// 049   ----------------------------------------
 BYTE   W48
 BYTE   Fn4
 BYTE   W48
// 050   ----------------------------------------
 BYTE   En4
 BYTE   W96
// 051   ----------------------------------------
 BYTE   W96
// 052   ----------------------------------------
 BYTE   W96
// 053   ----------------------------------------
 BYTE   N03  Fs6  v100
 BYTE   W72
 BYTE   N03
 BYTE   W24
// 054   ----------------------------------------
 BYTE   Gs6
 BYTE   W72
 BYTE   N03
 BYTE   W24
// 055   ----------------------------------------
 BYTE   Gs6  v060
 BYTE   W03
 BYTE   Gn6
 BYTE   W03
 BYTE   Gs6
 BYTE   W03
 BYTE   Gn6
 BYTE   W03
 BYTE   Gs6
 BYTE   W03
 BYTE   Gn6
 BYTE   W03
 BYTE   N06  Gs6
 BYTE   W03
 BYTE   N21  Gn6
 BYTE   W03
 BYTE   N36  Gs6
 BYTE   W96
// 056   ----------------------------------------
 BYTE   W24
 BYTE   W24
 BYTE   N03
 BYTE   W03
 BYTE   Gn6
 BYTE   W03
 BYTE   Gs6
 BYTE   W03
 BYTE   Gn6
 BYTE   W03
 BYTE   Gs6
 BYTE   W03
 BYTE   Gn6
 BYTE   W03
 BYTE   Gs6
 BYTE   W03
 BYTE   Gn6
 BYTE   W03
 BYTE   Gs6
 BYTE   W03
 BYTE   Gn6
 BYTE   W03
 BYTE   Gs6
 BYTE   W03
 BYTE   Gn6
 BYTE   W03
 BYTE   Gs6
 BYTE   W03
 BYTE   Gn6
 BYTE   W03
 BYTE   Gs6
 BYTE   W03
 BYTE   N24  Gn6
 BYTE   W03
// 057   ----------------------------------------
 BYTE   N03  Gs6
 BYTE   W48
 BYTE   N03
 BYTE   W03
 BYTE   Gn6
 BYTE   W03
 BYTE   Gs6
 BYTE   W03
 BYTE   Gn6
 BYTE   W03
 BYTE   Gs6
 BYTE   W03
 BYTE   Gn6
 BYTE   W03
 BYTE   Gs6
 BYTE   W03
 BYTE   N24  Gn6
 BYTE   W03
 BYTE   Gs6
 BYTE   W72
// 058   ----------------------------------------
 BYTE   N03
 BYTE   W03
 BYTE   Gn6
 BYTE   W03
 BYTE   Gs6
 BYTE   W03
 BYTE   Gn6
 BYTE   W03
 BYTE   Gs6
 BYTE   W03
 BYTE   Gn6
 BYTE   W03
 BYTE   Gs6
 BYTE   W03
 BYTE   N24  Gn6
 BYTE   W03
 BYTE   Gs6
 BYTE   W72
// 059   ----------------------------------------
 BYTE   N03
 BYTE   W03
 BYTE   Gn6
 BYTE   W03
 BYTE   Gs6
 BYTE   W03
 BYTE   Gn6
 BYTE   W03
 BYTE   Gs6
 BYTE   W03
 BYTE   Gn6
 BYTE   W03
 BYTE   Gs6
 BYTE   W03
 BYTE   N24  Gn6
 BYTE   W03
 BYTE   Gs6
 BYTE   W24
 BYTE   W48
// 060   ----------------------------------------
 BYTE   N03
 BYTE   W03
 BYTE   Gn6
 BYTE   W03
 BYTE   Gs6
 BYTE   W03
 BYTE   Gn6
 BYTE   W03
 BYTE   Gs6
 BYTE   W03
 BYTE   Gn6
 BYTE   W03
 BYTE   Gs6
 BYTE   W03
 BYTE   N24  Gn6
 BYTE   W03
 BYTE   Gs6
 BYTE   W24
 BYTE   W96
// 061   ----------------------------------------
 BYTE   W96
// 062   ----------------------------------------
 BYTE   W96
// 063   ----------------------------------------
 BYTE   W96
// 064   ----------------------------------------
 BYTE   W96
// 065   ----------------------------------------
 BYTE   W96
// 066   ----------------------------------------
 BYTE   W96
// 067   ----------------------------------------
 BYTE   W96
// 068   ----------------------------------------
 BYTE   W96
// 069   ----------------------------------------
 BYTE   W96
// 070   ----------------------------------------
 BYTE   W96
// 071   ----------------------------------------
 BYTE   W96
// 072   ----------------------------------------
 BYTE   W96
// 073   ----------------------------------------
 BYTE   W96
// 074   ----------------------------------------
 BYTE   W96
// 075   ----------------------------------------
 BYTE   W96
// 076   ----------------------------------------
 BYTE   W96
// 077   ----------------------------------------
 BYTE   W96
// 078   ----------------------------------------
 BYTE   W96
// 079   ----------------------------------------
 BYTE   W96
// 080   ----------------------------------------
 BYTE   GoTo
  POIN2 Acent_Label_12_0162BD48
 BYTE   FINE

//**************** Track 14 (Midi-Chn.13) ****************//

Acent_014:
// 000   ----------------------------------------
 BYTE   KEYSH   Acent_key+0
 BYTE   VOICE   45
 BYTE   VOL   30*Acent_mvl/mxv
 BYTE   PAN   c_v+36
 BYTE   W96
// 001   ----------------------------------------
 BYTE   W96
// 002   ----------------------------------------
 BYTE   W96
// 003   ----------------------------------------
Acent_Label_13_0162BECB:
 BYTE   W96
// 004   ----------------------------------------
 BYTE   W96
// 005   ----------------------------------------
 BYTE   W96
// 006   ----------------------------------------
 BYTE   W96
// 007   ----------------------------------------
 BYTE   W96
// 008   ----------------------------------------
 BYTE   W96
// 009   ----------------------------------------
 BYTE   W96
// 010   ----------------------------------------
 BYTE   W96
// 011   ----------------------------------------
 BYTE   W96
// 012   ----------------------------------------
 BYTE   W96
// 013   ----------------------------------------
 BYTE   W96
// 014   ----------------------------------------
 BYTE   W96
// 015   ----------------------------------------
 BYTE   W96
// 016   ----------------------------------------
 BYTE   W96
// 017   ----------------------------------------
 BYTE   W96
// 018   ----------------------------------------
 BYTE   W96
// 019   ----------------------------------------
 BYTE   W96
// 020   ----------------------------------------
 BYTE   W96
// 021   ----------------------------------------
 BYTE   W96
// 022   ----------------------------------------
 BYTE   W96
// 023   ----------------------------------------
 BYTE   W96
// 024   ----------------------------------------
 BYTE   W96
// 025   ----------------------------------------
 BYTE   W96
// 026   ----------------------------------------
 BYTE   W96
// 027   ----------------------------------------
 BYTE   W96
// 028   ----------------------------------------
 BYTE   W96
// 029   ----------------------------------------
 BYTE   W96
// 030   ----------------------------------------
 BYTE   W96
// 031   ----------------------------------------
 BYTE   W96
// 032   ----------------------------------------
 BYTE   W48
 BYTE   W96
// 033   ----------------------------------------
 BYTE   W96
// 034   ----------------------------------------
 BYTE   W96
// 035   ----------------------------------------
 BYTE   W96
// 036   ----------------------------------------
 BYTE   W96
// 037   ----------------------------------------
 BYTE   W96
// 038   ----------------------------------------
 BYTE   W96
// 039   ----------------------------------------
 BYTE   W96
// 040   ----------------------------------------
 BYTE   W96
// 041   ----------------------------------------
 BYTE   W96
// 042   ----------------------------------------
 BYTE   W96
// 043   ----------------------------------------
 BYTE   W96
// 044   ----------------------------------------
 BYTE   W96
// 045   ----------------------------------------
 BYTE   W96
// 046   ----------------------------------------
 BYTE   W96
// 047   ----------------------------------------
 BYTE   W96
// 048   ----------------------------------------
 BYTE   W96
// 049   ----------------------------------------
 BYTE   W96
// 050   ----------------------------------------
 BYTE   W96
// 051   ----------------------------------------
 BYTE   W96
// 052   ----------------------------------------
 BYTE   W96
// 053   ----------------------------------------
 BYTE   W96
// 054   ----------------------------------------
 BYTE   W96
// 055   ----------------------------------------
 BYTE   W72
 BYTE   W96
// 056   ----------------------------------------
 BYTE   W72
 BYTE   W72
// 057   ----------------------------------------
 BYTE   W96
// 058   ----------------------------------------
 BYTE   W72
 BYTE   W96
// 059   ----------------------------------------
 BYTE   W24
 BYTE   W96
// 060   ----------------------------------------
 BYTE   W96
// 061   ----------------------------------------
 BYTE   W96
// 062   ----------------------------------------
 BYTE   W96
// 063   ----------------------------------------
 BYTE   W96
// 064   ----------------------------------------
 BYTE   W96
// 065   ----------------------------------------
 BYTE   W96
// 066   ----------------------------------------
 BYTE   W96
// 067   ----------------------------------------
 BYTE   W96
// 068   ----------------------------------------
 BYTE   W96
// 069   ----------------------------------------
 BYTE   W96
// 070   ----------------------------------------
 BYTE   W96
// 071   ----------------------------------------
 BYTE   W96
// 072   ----------------------------------------
Acent_Label_13_0162BF15:
 BYTE   N04  Cn4  v100
 BYTE   W08
 BYTE   Ds4
 BYTE   W08
 BYTE   Ds5
 BYTE   W08
 BYTE   Dn5
 BYTE   W16
 BYTE   N04
 BYTE   W08
 BYTE   N04
 BYTE   W16
 BYTE   N04
 BYTE   W08
 BYTE   Cn5
 BYTE   W16
 BYTE   N04
 BYTE   W08
 BYTE   PEND 
// 073   ----------------------------------------
Acent_Label_13_0162BF2A:
 BYTE   N04  Cn5  v100
 BYTE   W24
 BYTE   Dn5
 BYTE   W16
 BYTE   Cn5
 BYTE   W08
 BYTE   Bn4
 BYTE   W24
 BYTE   Gn4
 BYTE   W24
 BYTE   PEND 
// 074   ----------------------------------------
Acent_Label_13_0162BF37:
 BYTE   N04  Cn4  v100
 BYTE   W08
 BYTE   Ds4
 BYTE   W08
 BYTE   Ds5
 BYTE   W08
 BYTE   Dn5
 BYTE   W16
 BYTE   N04
 BYTE   W08
 BYTE   Ds5
 BYTE   W16
 BYTE   N04
 BYTE   W08
 BYTE   Fn5
 BYTE   W16
 BYTE   N04
 BYTE   W08
 BYTE   PEND 
// 075   ----------------------------------------
 BYTE   Gn5
 BYTE   W16
 BYTE   Ds5
 BYTE   W08
 BYTE   Fn5
 BYTE   W16
 BYTE   Cs5
 BYTE   W08
 BYTE   Ds5
 BYTE   W16
 BYTE   Gn4
 BYTE   W08
 BYTE   Dn5
 BYTE   W24
 BYTE   PATT
  POIN2 Acent_Label_13_0162BF15
 BYTE   PATT
  POIN2 Acent_Label_13_0162BF2A
 BYTE   PATT
  POIN2 Acent_Label_13_0162BF37
// 076   ----------------------------------------
 BYTE   N04  Gs5  v100
 BYTE   W96
// 077   ----------------------------------------
 BYTE   GoTo
  POIN2 Acent_Label_13_0162BECB
 BYTE   FINE

//**************** Track 15 (Midi-Chn.14) ****************//

Acent_015:
// 000   ----------------------------------------
 BYTE   KEYSH   Acent_key+0
 BYTE   VOICE   127
 BYTE   VOL   51*Acent_mvl/mxv
 BYTE   PAN   c_v+0
 BYTE   W96
// 001   ----------------------------------------
 BYTE   W96
// 002   ----------------------------------------
 BYTE   W96
// 003   ----------------------------------------
Acent_Label_14_0162BF7F:
 BYTE   N03  Cs2  v100
 BYTE   N03  An2
 BYTE   W24
 BYTE   En1  v060
 BYTE   W08
 BYTE   N03
 BYTE   W32
 BYTE   N03
 BYTE   W08
 BYTE   N03
 BYTE   W16
 BYTE   N03
 BYTE   W08
// 004   ----------------------------------------
 BYTE   W16
 BYTE   N03
 BYTE   W08
 BYTE   N03
 BYTE   W16
 BYTE   N03
 BYTE   W08
 BYTE   An3  v100
 BYTE   W08
 BYTE   En1  v060
 BYTE   W08
 BYTE   N03
 BYTE   W08
 BYTE   An3  v100
 BYTE   W08
 BYTE   En1  v060
 BYTE   W08
 BYTE   N03
 BYTE   W08
// 005   ----------------------------------------
 BYTE   N03
 BYTE   W08
 BYTE   An3  v100
 BYTE   W08
 BYTE   En1  v060
 BYTE   W08
 BYTE   N03
 BYTE   W16
 BYTE   N03
 BYTE   W16
 BYTE   An3  v100
 BYTE   W08
 BYTE   En1  v060
 BYTE   W08
 BYTE   N03
 BYTE   W16
 BYTE   N03
 BYTE   W08
// 006   ----------------------------------------
 BYTE   W08
 BYTE   An3  v100
 BYTE   W16
 BYTE   En1  v060
 BYTE   W24
 BYTE   N03
 BYTE   N03  An3  v100
 BYTE   W24
 BYTE   En1  v060
 BYTE   N03  An3  v100
 BYTE   N03  Ds5
 BYTE   W08
 BYTE   N03
 BYTE   W08
 BYTE   N03
 BYTE   W08
// 007   ----------------------------------------
 BYTE   En1  v060
 BYTE   N03  An2  v100
 BYTE   W08
 BYTE   En1  v060
 BYTE   W32
 BYTE   N03
 BYTE   W08
 BYTE   N03
 BYTE   W16
 BYTE   N03
 BYTE   W24
 BYTE   N03
 BYTE   W08
// 008   ----------------------------------------
 BYTE   N03
 BYTE   W16
 BYTE   N03
 BYTE   W16
 BYTE   N03
 BYTE   W08
 BYTE   N03
 BYTE   W16
 BYTE   N03
 BYTE   W08
 BYTE   N03
 BYTE   W08
 BYTE   N03
 BYTE   W16
 BYTE   N03
 BYTE   W08
// 009   ----------------------------------------
 BYTE   N03
 BYTE   W16
 BYTE   N03
 BYTE   W24
 BYTE   N03
 BYTE   W08
 BYTE   N03
 BYTE   W16
 BYTE   N03
 BYTE   W32
// 010   ----------------------------------------
 BYTE   N03
 BYTE   W24
 BYTE   N03
 BYTE   W24
 BYTE   N03
 BYTE   W48
// 011   ----------------------------------------
 BYTE   Cs2  v100
 BYTE   N03  An2
 BYTE   W72
 BYTE   Ds5
 BYTE   W16
 BYTE   N03
 BYTE   W08
// 012   ----------------------------------------
 BYTE   N03
 BYTE   W24
 BYTE   N03
 BYTE   W72
// 013   ----------------------------------------
 BYTE   Ds5  v080
 BYTE   W04
 BYTE   N03
 BYTE   W04
 BYTE   Ds5  v076
 BYTE   W04
 BYTE   Ds5  v072
 BYTE   W04
 BYTE   Ds5  v068
 BYTE   W04
 BYTE   Ds5  v064
 BYTE   W04
 BYTE   Ds5  v060
 BYTE   W04
 BYTE   Ds5  v056
 BYTE   W04
 BYTE   N03
 BYTE   W04
 BYTE   Ds5  v052
 BYTE   W04
 BYTE   Ds5  v048
 BYTE   W04
 BYTE   Ds5  v044
 BYTE   W04
 BYTE   Ds5  v040
 BYTE   W04
 BYTE   Ds5  v036
 BYTE   W04
 BYTE   Ds5  v032
 BYTE   W04
 BYTE   Ds5  v028
 BYTE   W04
 BYTE   N03
 BYTE   W04
 BYTE   Ds5  v024
 BYTE   W04
 BYTE   Ds5  v020
 BYTE   W04
 BYTE   Ds5  v016
 BYTE   W04
 BYTE   Ds5  v012
 BYTE   W04
 BYTE   Ds5  v008
 BYTE   W04
 BYTE   Ds5  v004
 BYTE   W08
// 014   ----------------------------------------
 BYTE   W24
 BYTE   En1  v060
 BYTE   W16
 BYTE   N03
 BYTE   W08
 BYTE   N03
 BYTE   W03
 BYTE   En1  v056
 BYTE   W03
 BYTE   En1  v052
 BYTE   W03
 BYTE   En1  v048
 BYTE   W03
 BYTE   En1  v040
 BYTE   W03
 BYTE   En1  v036
 BYTE   W03
 BYTE   En1  v032
 BYTE   W03
 BYTE   En1  v024
 BYTE   W03
 BYTE   En1  v060
 BYTE   N03  Ds5  v100
 BYTE   W08
 BYTE   En1  v060
 BYTE   W08
 BYTE   N03
 BYTE   N03  Ds5  v100
 BYTE   W08
// 015   ----------------------------------------
 BYTE   En1  v060
 BYTE   N03  Ds5  v100
 BYTE   W03
 BYTE   En1  v056
 BYTE   W03
 BYTE   En1  v052
 BYTE   W03
 BYTE   En1  v048
 BYTE   W03
 BYTE   En1  v040
 BYTE   W03
 BYTE   En1  v036
 BYTE   W03
 BYTE   En1  v032
 BYTE   W03
 BYTE   En1  v024
 BYTE   W03
 BYTE   En1  v060
 BYTE   N03  Ds5  v100
 BYTE   W16
 BYTE   En1  v060
 BYTE   W08
 BYTE   N03
 BYTE   W08
 BYTE   N03
 BYTE   W08
 BYTE   N03
 BYTE   W08
 BYTE   N03
 BYTE   W03
 BYTE   En1  v056
 BYTE   W03
 BYTE   En1  v052
 BYTE   W03
 BYTE   En1  v048
 BYTE   W03
 BYTE   En1  v040
 BYTE   W03
 BYTE   En1  v036
 BYTE   W03
 BYTE   En1  v032
 BYTE   W03
 BYTE   En1  v024
 BYTE   W03
// 016   ----------------------------------------
 BYTE   En1  v060
 BYTE   W08
 BYTE   N03
 BYTE   W08
 BYTE   N03
 BYTE   W08
 BYTE   N03
 BYTE   W03
 BYTE   En1  v056
 BYTE   W03
 BYTE   En1  v052
 BYTE   W03
 BYTE   En1  v048
 BYTE   W03
 BYTE   En1  v040
 BYTE   W03
 BYTE   En1  v036
 BYTE   W03
 BYTE   En1  v060
 BYTE   W06
 BYTE   N03
 BYTE   W03
 BYTE   En1  v056
 BYTE   W03
 BYTE   En1  v052
 BYTE   W03
 BYTE   En1  v048
 BYTE   W03
 BYTE   En1  v040
 BYTE   W03
 BYTE   En1  v036
 BYTE   W03
 BYTE   En1  v060
 BYTE   W06
 BYTE   N03
 BYTE   W03
 BYTE   En1  v056
 BYTE   W03
 BYTE   En1  v052
 BYTE   W03
 BYTE   En1  v048
 BYTE   W03
 BYTE   En1  v040
 BYTE   W03
 BYTE   En1  v036
 BYTE   W09
// 017   ----------------------------------------
 BYTE   En1  v060
 BYTE   W24
 BYTE   N03
 BYTE   W16
 BYTE   N03
 BYTE   W08
 BYTE   N03
 BYTE   W08
 BYTE   N03
 BYTE   W08
 BYTE   N03
 BYTE   W08
 BYTE   N03
 BYTE   W03
 BYTE   En1  v056
 BYTE   W03
 BYTE   En1  v052
 BYTE   W03
 BYTE   En1  v048
 BYTE   W03
 BYTE   En1  v040
 BYTE   W03
 BYTE   En1  v036
 BYTE   W03
 BYTE   En1  v032
 BYTE   W03
 BYTE   En1  v024
 BYTE   W03
// 018   ----------------------------------------
 BYTE   En1  v060
 BYTE   W08
 BYTE   N03
 BYTE   W08
 BYTE   N03
 BYTE   W08
 BYTE   N03
 BYTE   W24
 BYTE   N03
 BYTE   W24
 BYTE   N03
 BYTE   W24
// 019   ----------------------------------------
 BYTE   N03
 BYTE   W08
 BYTE   N03
 BYTE   W08
 BYTE   N03
 BYTE   W08
 BYTE   N03
 BYTE   W03
 BYTE   En1  v056
 BYTE   W03
 BYTE   En1  v052
 BYTE   W03
 BYTE   En1  v048
 BYTE   W03
 BYTE   En1  v040
 BYTE   W03
 BYTE   En1  v036
 BYTE   W03
 BYTE   En1  v060
 BYTE   W06
 BYTE   N03
 BYTE   W08
 BYTE   N03
 BYTE   W08
 BYTE   N03
 BYTE   W08
 BYTE   N03
 BYTE   W03
 BYTE   En1  v056
 BYTE   W03
 BYTE   En1  v052
 BYTE   W03
 BYTE   En1  v048
 BYTE   W03
 BYTE   En1  v040
 BYTE   W03
 BYTE   En1  v036
 BYTE   W03
 BYTE   En1  v060
 BYTE   W06
// 020   ----------------------------------------
Acent_Label_14_0162C166:
 BYTE   N03  En1  v060
 BYTE   W03
 BYTE   En1  v056
 BYTE   W03
 BYTE   En1  v052
 BYTE   W03
 BYTE   En1  v048
 BYTE   W03
 BYTE   En1  v040
 BYTE   W03
 BYTE   En1  v036
 BYTE   W03
 BYTE   En1  v060
 BYTE   W06
 BYTE   N03
 BYTE   W03
 BYTE   En1  v056
 BYTE   W03
 BYTE   En1  v052
 BYTE   W03
 BYTE   En1  v048
 BYTE   W03
 BYTE   En1  v040
 BYTE   W03
 BYTE   En1  v036
 BYTE   W03
 BYTE   En1  v060
 BYTE   W06
 BYTE   N03
 BYTE   W12
 BYTE   N03
 BYTE   W04
 BYTE   N03
 BYTE   W08
 BYTE   N03
 BYTE   W08
 BYTE   N03
 BYTE   W08
 BYTE   N03
 BYTE   W08
 BYTE   PEND 
// 021   ----------------------------------------
 BYTE   N03
 BYTE   W03
 BYTE   En1  v056
 BYTE   W03
 BYTE   En1  v052
 BYTE   W03
 BYTE   En1  v048
 BYTE   W03
 BYTE   En1  v040
 BYTE   W03
 BYTE   En1  v036
 BYTE   W03
 BYTE   En1  v060
 BYTE   W06
 BYTE   N03
 BYTE   W03
 BYTE   En1  v056
 BYTE   W03
 BYTE   En1  v052
 BYTE   W03
 BYTE   En1  v048
 BYTE   W03
 BYTE   En1  v040
 BYTE   W03
 BYTE   En1  v036
 BYTE   W09
 BYTE   En1  v060
 BYTE   W03
 BYTE   En1  v056
 BYTE   W03
 BYTE   En1  v052
 BYTE   W03
 BYTE   En1  v048
 BYTE   W03
 BYTE   En1  v040
 BYTE   W03
 BYTE   En1  v036
 BYTE   W03
 BYTE   En1  v060
 BYTE   W06
 BYTE   N03
 BYTE   W03
 BYTE   En1  v056
 BYTE   W03
 BYTE   En1  v052
 BYTE   W03
 BYTE   En1  v048
 BYTE   W03
 BYTE   En1  v040
 BYTE   W03
 BYTE   En1  v036
 BYTE   W09
 BYTE   PATT
  POIN2 Acent_Label_14_0162C166
// 022   ----------------------------------------
 BYTE   N03  En1  v060
 BYTE   W16
 BYTE   N03
 BYTE   W08
 BYTE   N03
 BYTE   W16
 BYTE   N03
 BYTE   W08
 BYTE   Dn1
 BYTE   W16
 BYTE   N03
 BYTE   W08
 BYTE   N03
 BYTE   W24
// 023   ----------------------------------------
 BYTE   W96
// 024   ----------------------------------------
 BYTE   Cs2  v100
 BYTE   N03  An2
 BYTE   W96
// 025   ----------------------------------------
 BYTE   W96
// 026   ----------------------------------------
 BYTE   W96
// 027   ----------------------------------------
 BYTE   W96
// 028   ----------------------------------------
 BYTE   W96
// 029   ----------------------------------------
 BYTE   W96
// 030   ----------------------------------------
 BYTE   W96
// 031   ----------------------------------------
 BYTE   En1  v060
 BYTE   W08
 BYTE   N03
 BYTE   W08
 BYTE   N03
 BYTE   W08
 BYTE   N03
 BYTE   W08
 BYTE   N03
 BYTE   W08
 BYTE   N03
 BYTE   W08
 BYTE   W96
// 032   ----------------------------------------
Acent_Label_14_0162C217:
 BYTE   N03  En1  v060
 BYTE   N03  Cs2  v100
 BYTE   N03  An2
 BYTE   W16
 BYTE   En1  v060
 BYTE   W08
 BYTE   N03
 BYTE   W16
 BYTE   N03
 BYTE   W08
 BYTE   N03
 BYTE   W03
 BYTE   En1  v056
 BYTE   W03
 BYTE   En1  v052
 BYTE   W03
 BYTE   En1  v048
 BYTE   W03
 BYTE   En1  v040
 BYTE   W04
 BYTE   En1  v060
 BYTE   W08
 BYTE   N03
 BYTE   W16
 BYTE   N03
 BYTE   W08
 BYTE   PEND 
// 033   ----------------------------------------
Acent_Label_14_0162C23D:
 BYTE   N03  En1  v060
 BYTE   W16
 BYTE   N03
 BYTE   W08
 BYTE   N03
 BYTE   W16
 BYTE   N03
 BYTE   W08
 BYTE   N03
 BYTE   W03
 BYTE   En1  v056
 BYTE   W03
 BYTE   En1  v052
 BYTE   W03
 BYTE   En1  v048
 BYTE   W03
 BYTE   En1  v040
 BYTE   W04
 BYTE   En1  v060
 BYTE   W08
 BYTE   N03
 BYTE   W16
 BYTE   N03
 BYTE   W08
 BYTE   PEND 
// 034   ----------------------------------------
 BYTE   N03
 BYTE   W16
 BYTE   N03
 BYTE   W08
 BYTE   N03
 BYTE   W08
 BYTE   N03
 BYTE   W08
 BYTE   N03
 BYTE   W08
 BYTE   N03
 BYTE   W03
 BYTE   En1  v056
 BYTE   W03
 BYTE   En1  v052
 BYTE   W03
 BYTE   En1  v048
 BYTE   W03
 BYTE   En1  v040
 BYTE   W04
 BYTE   En1  v060
 BYTE   W08
 BYTE   N03
 BYTE   W16
 BYTE   N03
 BYTE   W08
// 035   ----------------------------------------
 BYTE   N03
 BYTE   W08
 BYTE   N03
 BYTE   W08
 BYTE   N03
 BYTE   W08
 BYTE   N03
 BYTE   W08
 BYTE   N03
 BYTE   W08
 BYTE   N03
 BYTE   W08
 BYTE   N03
 BYTE   W03
 BYTE   En1  v056
 BYTE   W03
 BYTE   En1  v052
 BYTE   W03
 BYTE   En1  v048
 BYTE   W03
 BYTE   En1  v040
 BYTE   W04
 BYTE   En1  v060
 BYTE   W08
 BYTE   N03
 BYTE   W16
 BYTE   N03
 BYTE   W08
 BYTE   PATT
  POIN2 Acent_Label_14_0162C23D
 BYTE   PATT
  POIN2 Acent_Label_14_0162C23D
 BYTE   PATT
  POIN2 Acent_Label_14_0162C23D
// 036   ----------------------------------------
 BYTE   N03  En1  v060
 BYTE   W08
 BYTE   N03
 BYTE   W08
 BYTE   N03
 BYTE   W08
 BYTE   N03
 BYTE   W08
 BYTE   N03
 BYTE   W08
 BYTE   N03
 BYTE   W08
 BYTE   N03
 BYTE   W03
 BYTE   En1  v056
 BYTE   W03
 BYTE   En1  v052
 BYTE   W03
 BYTE   En1  v048
 BYTE   W03
 BYTE   En1  v040
 BYTE   W04
 BYTE   En1  v060
 BYTE   W08
 BYTE   N03
 BYTE   W24
 BYTE   PATT
  POIN2 Acent_Label_14_0162C217
 BYTE   PATT
  POIN2 Acent_Label_14_0162C23D
// 037   ----------------------------------------
 BYTE   N03  En1  v060
 BYTE   N03  An2  v100
 BYTE   N03  Ds5
 BYTE   W16
 BYTE   En1  v060
 BYTE   W08
 BYTE   N03
 BYTE   W16
 BYTE   N03
 BYTE   W08
 BYTE   N03
 BYTE   N03  An2  v100
 BYTE   N03  Ds5
 BYTE   W03
 BYTE   En1  v056
 BYTE   W03
 BYTE   En1  v052
 BYTE   W03
 BYTE   En1  v048
 BYTE   W03
 BYTE   En1  v040
 BYTE   W04
 BYTE   En1  v060
 BYTE   W08
 BYTE   N03
 BYTE   W16
 BYTE   N03
 BYTE   W08
// 038   ----------------------------------------
 BYTE   N03
 BYTE   N03  An2  v100
 BYTE   N03  Ds5
 BYTE   W08
 BYTE   En1  v060
 BYTE   W08
 BYTE   N03
 BYTE   W08
 BYTE   N03
 BYTE   W08
 BYTE   N03
 BYTE   W08
 BYTE   N03
 BYTE   W08
 BYTE   N03
 BYTE   N03  An2  v100
 BYTE   N03  Ds5
 BYTE   W03
 BYTE   En1  v056
 BYTE   W03
 BYTE   En1  v052
 BYTE   W03
 BYTE   En1  v048
 BYTE   W03
 BYTE   En1  v040
 BYTE   W04
 BYTE   En1  v060
 BYTE   W08
 BYTE   N03
 BYTE   W16
 BYTE   N03
 BYTE   W08
// 039   ----------------------------------------
 BYTE   N03
 BYTE   W16
 BYTE   N03
 BYTE   W08
 BYTE   Dn1
 BYTE   N03  En1
 BYTE   W08
 BYTE   Dn1
 BYTE   N03  En1
 BYTE   W08
 BYTE   Dn1
 BYTE   N03  En1
 BYTE   W08
 BYTE   Dn1
 BYTE   N03  En1
 BYTE   W48
// 040   ----------------------------------------
 BYTE   W48
 BYTE   Dn1
 BYTE   N03  En1
 BYTE   W48
// 041   ----------------------------------------
 BYTE   W96
// 042   ----------------------------------------
 BYTE   W96
// 043   ----------------------------------------
 BYTE   W96
// 044   ----------------------------------------
 BYTE   W96
// 045   ----------------------------------------
 BYTE   W96
// 046   ----------------------------------------
 BYTE   W96
// 047   ----------------------------------------
 BYTE   W96
// 048   ----------------------------------------
 BYTE   En2  v100
 BYTE   N03  Ds5
 BYTE   W96
// 049   ----------------------------------------
 BYTE   W72
 BYTE   W48
// 050   ----------------------------------------
 BYTE   N03
 BYTE   W96
// 051   ----------------------------------------
 BYTE   W24
 BYTE   W72
// 052   ----------------------------------------
 BYTE   Cs2
 BYTE   N03  An2
 BYTE   W40
 BYTE   En1  v060
 BYTE   W08
 BYTE   N03
 BYTE   W03
 BYTE   En1  v056
 BYTE   W03
 BYTE   En1  v052
 BYTE   W03
 BYTE   En1  v048
 BYTE   W03
 BYTE   En1  v040
 BYTE   W12
 BYTE   En1  v060
 BYTE   W24
// 053   ----------------------------------------
 BYTE   N03
 BYTE   W03
 BYTE   En1  v056
 BYTE   W03
 BYTE   En1  v052
 BYTE   W03
 BYTE   En1  v048
 BYTE   W03
 BYTE   En1  v040
 BYTE   W03
 BYTE   En1  v036
 BYTE   W03
 BYTE   En1  v028
 BYTE   W03
 BYTE   En1  v024
 BYTE   W03
 BYTE   En1  v060
 BYTE   W03
 BYTE   En1  v056
 BYTE   W03
 BYTE   En1  v052
 BYTE   W03
 BYTE   En1  v048
 BYTE   W03
 BYTE   En1  v040
 BYTE   W03
 BYTE   En1  v036
 BYTE   W03
 BYTE   En1  v028
 BYTE   W03
 BYTE   En1  v024
 BYTE   W03
 BYTE   En1  v060
 BYTE   W03
 BYTE   En1  v056
 BYTE   W03
 BYTE   En1  v052
 BYTE   W03
 BYTE   En1  v048
 BYTE   W03
 BYTE   En1  v040
 BYTE   W03
 BYTE   En1  v036
 BYTE   W03
 BYTE   En1  v028
 BYTE   W03
 BYTE   En1  v024
 BYTE   W03
 BYTE   En1  v060
 BYTE   W24
// 054   ----------------------------------------
 BYTE   Cs2  v100
 BYTE   N03  An2
 BYTE   W96
// 055   ----------------------------------------
 BYTE   W96
// 056   ----------------------------------------
 BYTE   W24
 BYTE   N03
 BYTE   W72
// 057   ----------------------------------------
 BYTE   W96
// 058   ----------------------------------------
 BYTE   W96
// 059   ----------------------------------------
 BYTE   W24
 BYTE   N03
 BYTE   W72
// 060   ----------------------------------------
 BYTE   W96
// 061   ----------------------------------------
 BYTE   W96
// 062   ----------------------------------------
 BYTE   W96
// 063   ----------------------------------------
 BYTE   W96
// 064   ----------------------------------------
 BYTE   W96
// 065   ----------------------------------------
 BYTE   W96
// 066   ----------------------------------------
 BYTE   W96
// 067   ----------------------------------------
 BYTE   W96
// 068   ----------------------------------------
 BYTE   W96
// 069   ----------------------------------------
 BYTE   W96
// 070   ----------------------------------------
 BYTE   En1  v032
 BYTE   W03
 BYTE   En1  v028
 BYTE   W03
 BYTE   En1  v024
 BYTE   W03
 BYTE   En1  v020
 BYTE   W03
 BYTE   En1  v016
 BYTE   W03
 BYTE   N03
 BYTE   W03
 BYTE   En1  v020
 BYTE   W03
 BYTE   En1  v024
 BYTE   W03
 BYTE   En1  v028
 BYTE   W03
 BYTE   En1  v032
 BYTE   W03
 BYTE   N03
 BYTE   W03
 BYTE   N03
 BYTE   W03
 BYTE   En1  v028
 BYTE   W03
 BYTE   N03
 BYTE   W03
 BYTE   N03
 BYTE   W03
 BYTE   En1  v024
 BYTE   W03
 BYTE   N03
 BYTE   W03
 BYTE   En1  v020
 BYTE   W03
 BYTE   N03
 BYTE   W03
 BYTE   En1  v024
 BYTE   W03
 BYTE   En1  v028
 BYTE   W03
 BYTE   En1  v032
 BYTE   W03
 BYTE   En1  v036
 BYTE   W03
 BYTE   N03
 BYTE   W03
 BYTE   En1  v040
 BYTE   W03
 BYTE   N03
 BYTE   W03
 BYTE   N03
 BYTE   W03
 BYTE   En1  v036
 BYTE   W03
 BYTE   N03
 BYTE   W03
 BYTE   N03
 BYTE   W03
 BYTE   En1  v032
 BYTE   W03
 BYTE   En1  v036
 BYTE   W03
// 071   ----------------------------------------
 BYTE   En1  v040
 BYTE   W03
 BYTE   N03
 BYTE   W03
 BYTE   N03
 BYTE   W03
 BYTE   En1  v036
 BYTE   W03
 BYTE   N03
 BYTE   W03
 BYTE   N03
 BYTE   W03
 BYTE   En1  v032
 BYTE   W03
 BYTE   N03
 BYTE   W03
 BYTE   N03
 BYTE   W03
 BYTE   N03
 BYTE   W03
 BYTE   En1  v028
 BYTE   W03
 BYTE   N03
 BYTE   W03
 BYTE   N03
 BYTE   W03
 BYTE   N03
 BYTE   W03
 BYTE   En1  v024
 BYTE   W03
 BYTE   N03
 BYTE   W03
 BYTE   N03
 BYTE   W03
 BYTE   N03
 BYTE   W03
 BYTE   En1  v020
 BYTE   W03
 BYTE   N03
 BYTE   W03
 BYTE   N03
 BYTE   W03
 BYTE   N03
 BYTE   W03
 BYTE   En1  v016
 BYTE   W03
 BYTE   N03
 BYTE   W03
 BYTE   En1  v080
 BYTE   W08
 BYTE   N03
 BYTE   W08
 BYTE   N03
 BYTE   W08
// 072   ----------------------------------------
 BYTE   N03
 BYTE   N03  Fs1  v100
 BYTE   W08
 BYTE   Gs1
 BYTE   W08
 BYTE   N03
 BYTE   W08
 BYTE   En1  v080
 BYTE   N03  Fs1  v100
 BYTE   W08
 BYTE   Gs1
 BYTE   W08
 BYTE   N03
 BYTE   W08
 BYTE   En1  v060
 BYTE   N03  Fs1  v100
 BYTE   W08
 BYTE   En1  v060
 BYTE   N03  Gs1  v100
 BYTE   W08
 BYTE   En1  v060
 BYTE   N03  Gs1  v100
 BYTE   W08
 BYTE   En1  v060
 BYTE   N03  Fs1  v100
 BYTE   W03
 BYTE   En1  v056
 BYTE   W03
 BYTE   En1  v052
 BYTE   W02
 BYTE   Gs1  v100
 BYTE   W01
 BYTE   En1  v048
 BYTE   W03
 BYTE   En1  v044
 BYTE   W03
 BYTE   En1  v040
 BYTE   W01
 BYTE   Gs1  v100
 BYTE   W02
 BYTE   En1  v036
 BYTE   W03
 BYTE   En1  v032
 BYTE   W03
// 073   ----------------------------------------
 BYTE   En1  v060
 BYTE   N03  Fs1  v100
 BYTE   W08
 BYTE   Gs1
 BYTE   W08
 BYTE   N03
 BYTE   W08
 BYTE   En1  v060
 BYTE   N03  Fs1  v100
 BYTE   W08
 BYTE   En1  v060
 BYTE   N03  Gs1  v100
 BYTE   W08
 BYTE   En1  v060
 BYTE   N03  Fs1  v100
 BYTE   W08
 BYTE   En1  v060
 BYTE   N03  Fs1  v100
 BYTE   W03
 BYTE   En1  v056
 BYTE   W03
 BYTE   En1  v052
 BYTE   W02
 BYTE   Gs1  v100
 BYTE   W01
 BYTE   En1  v048
 BYTE   W03
 BYTE   En1  v044
 BYTE   W03
 BYTE   En1  v040
 BYTE   W01
 BYTE   Gs1  v100
 BYTE   W02
 BYTE   En1  v036
 BYTE   W03
 BYTE   En1  v032
 BYTE   W03
 BYTE   En1  v080
 BYTE   N03  Fs1  v100
 BYTE   W08
 BYTE   En1  v080
 BYTE   N03  Gs1  v100
 BYTE   W08
 BYTE   En1  v080
 BYTE   N03  Fs1  v100
 BYTE   W08
// 074   ----------------------------------------
 BYTE   En1  v080
 BYTE   N03  Fs1  v100
 BYTE   W08
 BYTE   Gs1
 BYTE   W08
 BYTE   N03
 BYTE   W08
 BYTE   En1  v080
 BYTE   N03  Fs1  v100
 BYTE   W08
 BYTE   Gs1
 BYTE   W08
 BYTE   N03
 BYTE   W08
 BYTE   En1  v060
 BYTE   N03  Fs1  v100
 BYTE   W03
 BYTE   En1  v056
 BYTE   W03
 BYTE   En1  v052
 BYTE   W02
 BYTE   Gs1  v100
 BYTE   W01
 BYTE   En1  v048
 BYTE   W03
 BYTE   En1  v044
 BYTE   W03
 BYTE   En1  v040
 BYTE   W01
 BYTE   Gs1  v100
 BYTE   W02
 BYTE   En1  v036
 BYTE   W03
 BYTE   En1  v032
 BYTE   W03
 BYTE   En1  v080
 BYTE   N03  Fs1  v100
 BYTE   W08
 BYTE   Gs1
 BYTE   W08
 BYTE   N03
 BYTE   W08
// 075   ----------------------------------------
 BYTE   Fs1
 BYTE   W08
 BYTE   Gs1
 BYTE   W08
 BYTE   N03
 BYTE   W08
 BYTE   Fs1
 BYTE   W08
 BYTE   Gs1
 BYTE   W08
 BYTE   N03
 BYTE   W08
 BYTE   En1  v060
 BYTE   N03  Fs1  v100
 BYTE   W03
 BYTE   En1  v056
 BYTE   W03
 BYTE   En1  v052
 BYTE   W02
 BYTE   Gs1  v100
 BYTE   W01
 BYTE   En1  v048
 BYTE   W03
 BYTE   En1  v044
 BYTE   W03
 BYTE   En1  v040
 BYTE   W01
 BYTE   Gs1  v100
 BYTE   W02
 BYTE   En1  v036
 BYTE   W03
 BYTE   En1  v032
 BYTE   W03
 BYTE   En1  v080
 BYTE   N03  Fs1  v100
 BYTE   W08
 BYTE   Gs1
 BYTE   W08
 BYTE   N03
 BYTE   W08
// 076   ----------------------------------------
 BYTE   GoTo
  POIN2 Acent_Label_14_0162BF7F
 BYTE   FINE

//******************************************************//
	ALIGN 4

songAscent:
	BYTE	15	// NumTrks
	BYTE	0	// NumBlks
	BYTE	Acent_pri	// Priority
	BYTE	Acent_rev	// Reverb.
    
	POIN2	Acent_grp
    
	POIN2	Acent_001
	POIN2	Acent_002
	POIN2	Acent_003
	POIN2	Acent_004
	POIN2	Acent_005
	POIN2	Acent_006
	POIN2	Acent_007
	POIN2	Acent_008
	POIN2	Acent_009
	POIN2	Acent_010
	POIN2	Acent_011
	POIN2	Acent_012
	POIN2	Acent_013
	POIN2	Acent_014
	POIN2	Acent_015

	
