//Event file generated from Sappy .s format.
	#include "MPlayDef.event"

	#define	songATragicDecision_grp  voicegroup000
	#define	songATragicDecision_pri  0
	#define	songATragicDecision_rev  0
	#define	songATragicDecision_mvl  250
	#define	songATragicDecision_key  0
	#define	songATragicDecision_tbs  1
	#define	songATragicDecision_exg  0
	#define	songATragicDecision_cmp  1

	// .rodata
	//	songATragicDecision
	ALIGN 4


//**************** Track 1 (Midi-Chn.0) ****************//

songATragicDecision_001:
// 000   ----------------------------------------
 BYTE   KEYSH   songATragicDecision_key+0
Label_0_0103A6E2:
 BYTE   TEMPO   154*songATragicDecision_tbs/2
 BYTE   VOICE   73
 BYTE   MODT 0
 BYTE   CnM2
 BYTE   LFOS 0
 BYTE   Gs1
 BYTE   VOL   35*songATragicDecision_mvl/mxv
 BYTE   PAN   c_v+0
 BYTE   W96
// 001   ----------------------------------------
 BYTE   W96
// 002   ----------------------------------------
 BYTE   W96
// 003   ----------------------------------------
 BYTE   W96
// 004   ----------------------------------------
 BYTE   W96
// 005   ----------------------------------------
 BYTE   W96
// 006   ----------------------------------------
 BYTE   W96
// 007   ----------------------------------------
 BYTE   W72
 BYTE   N11  Bn3  v080
 BYTE   W12
 BYTE   Cs4
 BYTE   W12
// 008   ----------------------------------------
 BYTE   N22  Ds4  v064
 BYTE   W24
 BYTE   N11  En4  v056
 BYTE   W12
 BYTE   N32  Ds4  v052
 BYTE   W36
 BYTE   N11  Bn3  v044
 BYTE   W12
 BYTE   Cs4  v056
 BYTE   W12
// 009   ----------------------------------------
 BYTE   N22  Ds4  v064
 BYTE   W24
 BYTE   N11  En4
 BYTE   W12
 BYTE   N32  Ds4  v060
 BYTE   W36
 BYTE   N11  Bn3  v048
 BYTE   W12
 BYTE   Cs4  v060
 BYTE   W12
// 010   ----------------------------------------
 BYTE   N22  Ds4  v064
 BYTE   W24
 BYTE   N11  Gs4  v068
 BYTE   W12
 BYTE   N22  Ds4  v048
 BYTE   W24
 BYTE   Cs4  v052
 BYTE   W24
 BYTE   N78  Ds4  v060
 BYTE   W12
// 011   ----------------------------------------
 BYTE   W72
 BYTE   N11  Bn3  v044
 BYTE   W12
 BYTE   Cs4  v060
 BYTE   W12
// 012   ----------------------------------------
 BYTE   N22  Ds4  v068
 BYTE   W24
 BYTE   N11  En4  v060
 BYTE   W12
 BYTE   N22  Ds4  v052
 BYTE   W24
 BYTE   Cs4  v048
 BYTE   W24
 BYTE   N56  Bn3  v052
 BYTE   W12
// 013   ----------------------------------------
 BYTE   W48
 BYTE   N11  Gs3  v048
 BYTE   W12
 BYTE   As3  v064
 BYTE   W12
 BYTE   Bn3
 BYTE   W12
 BYTE   Cs4
 BYTE   W12
// 014   ----------------------------------------
 BYTE   N90  Ds4  v056
 BYTE   W96
// 015   ----------------------------------------
 BYTE   N68  As3  v044
 BYTE   W72
 BYTE   N11  Bn3  v064
 BYTE   W12
 BYTE   Cs4  v056
 BYTE   W12
// 016   ----------------------------------------
 BYTE   N22  Ds4  v060
 BYTE   W24
 BYTE   N11  En4  v064
 BYTE   W12
 BYTE   N32  Ds4  v052
 BYTE   W36
 BYTE   N11  Bn3  v048
 BYTE   W12
 BYTE   Cs4  v064
 BYTE   W12
// 017   ----------------------------------------
 BYTE   N22  Ds4  v060
 BYTE   W24
 BYTE   N11  En4  v064
 BYTE   W12
 BYTE   N32  Ds4  v052
 BYTE   W36
 BYTE   N11  Bn3  v044
 BYTE   W12
 BYTE   Cs4  v056
 BYTE   W12
// 018   ----------------------------------------
 BYTE   N22  Ds4  v060
 BYTE   W24
 BYTE   N11  Gs4  v072
 BYTE   W12
 BYTE   N22  Ds4  v044
 BYTE   W24
 BYTE   Cs4  v052
 BYTE   W24
 BYTE   N78  Ds4  v060
 BYTE   W12
// 019   ----------------------------------------
 BYTE   W72
 BYTE   N11  Bn3  v052
 BYTE   W12
 BYTE   Cs4  v060
 BYTE   W12
// 020   ----------------------------------------
 BYTE   N22  Ds4  v056
 BYTE   W24
 BYTE   N11  En4  v060
 BYTE   W12
 BYTE   N22  Ds4  v052
 BYTE   W24
 BYTE   Cs4  v048
 BYTE   W24
 BYTE   N56  Bn3  v052
 BYTE   W12
// 021   ----------------------------------------
 BYTE   W48
 BYTE   N11  Gs3  v044
 BYTE   W12
 BYTE   As3  v060
 BYTE   W12
 BYTE   Bn3
 BYTE   W12
 BYTE   Cs4  v068
 BYTE   W12
// 022   ----------------------------------------
 BYTE   N90  Ds4  v056
 BYTE   W96
// 023   ----------------------------------------
 BYTE   As3  v044
 BYTE   W90
 BYTE   W01
 BYTE   VOICE   38
 BYTE   VOL   35*songATragicDecision_mvl/mxv
 BYTE   PAN   c_v+0
 BYTE   W05
// 024   ----------------------------------------
 BYTE   W96
// 025   ----------------------------------------
 BYTE   W96
// 026   ----------------------------------------
 BYTE   W96
// 027   ----------------------------------------
 BYTE   W96
// 028   ----------------------------------------
 BYTE   W96
// 029   ----------------------------------------
 BYTE   W96
// 030   ----------------------------------------
 BYTE   W96
// 031   ----------------------------------------
 BYTE   W96
// 032   ----------------------------------------
 BYTE   W96
// 033   ----------------------------------------
 BYTE   W96
// 034   ----------------------------------------
 BYTE   W96
// 035   ----------------------------------------
 BYTE   W96
// 036   ----------------------------------------
 BYTE   W96
// 037   ----------------------------------------
 BYTE   W96
// 038   ----------------------------------------
 BYTE   W96
// 039   ----------------------------------------
 BYTE   W96
// 040   ----------------------------------------
 BYTE   W96
// 041   ----------------------------------------
 BYTE   W96
// 042   ----------------------------------------
 BYTE   W96
// 043   ----------------------------------------
 BYTE   W96
// 044   ----------------------------------------
 BYTE   W96
// 045   ----------------------------------------
 BYTE   W96
// 046   ----------------------------------------
 BYTE   W96
// 047   ----------------------------------------
 BYTE   W96
// 048   ----------------------------------------
 BYTE   W96
// 049   ----------------------------------------
 BYTE   W96
// 050   ----------------------------------------
 BYTE   W96
// 051   ----------------------------------------
 BYTE   W96
// 052   ----------------------------------------
 BYTE   W96
// 053   ----------------------------------------
 BYTE   W96
// 054   ----------------------------------------
 BYTE   W96
// 055   ----------------------------------------
 BYTE   W90
 BYTE   GoTo
  POIN2 Label_0_0103A6E2
// 056   ----------------------------------------
 BYTE   W05
 BYTE   FINE

//**************** Track 2 (Midi-Chn.1) ****************//

songATragicDecision_002:
// 000   ----------------------------------------
 BYTE   KEYSH   songATragicDecision_key+0
Label_1_0103A806:
 BYTE   VOICE   40
 BYTE   MODT 0
 BYTE   CnM2
 BYTE   LFOS 0
 BYTE   Gs1
 BYTE   VOL   25*songATragicDecision_mvl/mxv
 BYTE   PAN   c_v+0
 BYTE   W96
// 001   ----------------------------------------
 BYTE   W96
// 002   ----------------------------------------
 BYTE   W96
// 003   ----------------------------------------
 BYTE   W96
// 004   ----------------------------------------
 BYTE   W96
// 005   ----------------------------------------
 BYTE   W96
// 006   ----------------------------------------
 BYTE   W96
// 007   ----------------------------------------
 BYTE   W96
// 008   ----------------------------------------
 BYTE   W96
// 009   ----------------------------------------
 BYTE   W96
// 010   ----------------------------------------
 BYTE   W96
// 011   ----------------------------------------
 BYTE   W96
// 012   ----------------------------------------
 BYTE   W96
// 013   ----------------------------------------
 BYTE   W96
// 014   ----------------------------------------
 BYTE   W96
// 015   ----------------------------------------
 BYTE   W96
// 016   ----------------------------------------
 BYTE   W96
// 017   ----------------------------------------
 BYTE   W96
// 018   ----------------------------------------
 BYTE   W96
// 019   ----------------------------------------
 BYTE   W96
// 020   ----------------------------------------
 BYTE   W96
// 021   ----------------------------------------
 BYTE   W96
// 022   ----------------------------------------
 BYTE   W96
// 023   ----------------------------------------
 BYTE   W96
// 024   ----------------------------------------
 BYTE   N92  Fs3  v044
 BYTE   W96
// 025   ----------------------------------------
 BYTE   N44  En3  v052
 BYTE   W48
 BYTE   Ds3  v048
 BYTE   W48
// 026   ----------------------------------------
 BYTE   N92  Ds3  v052
 BYTE   W96
// 027   ----------------------------------------
 BYTE   N68  Cs3  v048
 BYTE   W72
 BYTE   N23  Ds3  v064
 BYTE   W24
// 028   ----------------------------------------
 BYTE   N68  En3  v060
 BYTE   W72
 BYTE   N23  Fs3
 BYTE   W24
// 029   ----------------------------------------
 BYTE   N44  Gs3  v056
 BYTE   W48
 BYTE   En3  v044
 BYTE   W48
// 030   ----------------------------------------
 BYTE   N92  En3  v048
 BYTE   W96
// 031   ----------------------------------------
 BYTE   N68  Ds3  v052
 BYTE   W72
 BYTE   N11  Cs3
 BYTE   W12
 BYTE   Bn2  v048
 BYTE   W12
// 032   ----------------------------------------
 BYTE   N68  Cs3  v064
 BYTE   W72
 BYTE   N11  Ds3  v060
 BYTE   W12
 BYTE   En3
 BYTE   W12
// 033   ----------------------------------------
 BYTE   N44  Fs3  v064
 BYTE   W48
 BYTE   Gs3
 BYTE   W48
// 034   ----------------------------------------
 BYTE   N92  Fs3  v052
 BYTE   W96
// 035   ----------------------------------------
 BYTE   Ds3  v044
 BYTE   W96
// 036   ----------------------------------------
 BYTE   Fs3  v064
 BYTE   W96
// 037   ----------------------------------------
 BYTE   En3  v048
 BYTE   W96
// 038   ----------------------------------------
 BYTE   En3  v056
 BYTE   W96
// 039   ----------------------------------------
 BYTE   Ds3
 BYTE   W96
// 040   ----------------------------------------
 BYTE   N68  Cs4  v072
 BYTE   W72
 BYTE   N11  Bn3  v056
 BYTE   W12
 BYTE   As3  v052
 BYTE   W12
// 041   ----------------------------------------
 BYTE   N44  Bn3  v056
 BYTE   W48
 BYTE   Ds4
 BYTE   W48
// 042   ----------------------------------------
 BYTE   N68  Cs4  v052
 BYTE   W72
 BYTE   N23  En4  v064
 BYTE   W24
// 043   ----------------------------------------
 BYTE   N44  Ds4  v052
 BYTE   W48
 BYTE   As3  v044
 BYTE   W48
// 044   ----------------------------------------
 BYTE   N68  Bn3  v060
 BYTE   W72
 BYTE   N23  Cs4  v056
 BYTE   W24
// 045   ----------------------------------------
 BYTE   N92  Ds4  v060
 BYTE   W96
// 046   ----------------------------------------
 BYTE   Gs3  v036
 BYTE   W96
// 047   ----------------------------------------
 BYTE   N44  Gs3  v052
 BYTE   W48
 BYTE   As3  v056
 BYTE   W48
// 048   ----------------------------------------
 BYTE   N92  Bn3  v064
 BYTE   W96
// 049   ----------------------------------------
 BYTE   N44  Fs4  v072
 BYTE   W48
 BYTE   En4  v048
 BYTE   W48
// 050   ----------------------------------------
 BYTE   N92  Ds4  v052
 BYTE   W96
// 051   ----------------------------------------
 BYTE   As3  v044
 BYTE   W96
// 052   ----------------------------------------
 BYTE   N44  Gs3  v048
 BYTE   W48
 BYTE   As3  v056
 BYTE   W48
// 053   ----------------------------------------
 BYTE   Bn3  v064
 BYTE   W48
 BYTE   Cs4
 BYTE   W48
// 054   ----------------------------------------
 BYTE   N80  As3  v048
 BYTE   W84
 BYTE   N05  Ds4  v068
 BYTE   W06
 BYTE   En4  v064
 BYTE   W06
// 055   ----------------------------------------
 BYTE   N92  Ds4  v052
 BYTE   W90
 BYTE   GoTo
  POIN2 Label_1_0103A806
// 056   ----------------------------------------
 BYTE   W05
 BYTE   FINE

//**************** Track 3 (Midi-Chn.2) ****************//

songATragicDecision_003:
// 000   ----------------------------------------
 BYTE   KEYSH   songATragicDecision_key+0
Label_2_0103A8EA:
 BYTE   VOICE   42
 BYTE   MODT 0
 BYTE   CnM2
 BYTE   LFOS 0
 BYTE   Gs1
 BYTE   VOL   25*songATragicDecision_mvl/mxv
 BYTE   PAN   c_v+0
 BYTE   N11  Gs2  v048
 BYTE   W12
 BYTE   Ds3  v072
 BYTE   W12
 BYTE   Bn2  v056
 BYTE   W12
 BYTE   Ds3  v072
 BYTE   W12
 BYTE   Gs3  v068
 BYTE   W12
 BYTE   Ds3  v044
 BYTE   W12
 BYTE   Bn2  v052
 BYTE   W12
 BYTE   Ds3  v072
 BYTE   W12
// 001   ----------------------------------------
 BYTE   Gs2  v048
 BYTE   W12
 BYTE   Ds3  v076
 BYTE   W12
 BYTE   Bn2  v060
 BYTE   W12
 BYTE   Ds3  v064
 BYTE   W12
 BYTE   Gs3  v072
 BYTE   W12
 BYTE   Ds3  v048
 BYTE   W12
 BYTE   Bn2  v052
 BYTE   W12
 BYTE   Ds3  v064
 BYTE   W12
// 002   ----------------------------------------
 BYTE   Gs2  v052
 BYTE   W12
 BYTE   Ds3  v072
 BYTE   W12
 BYTE   Bn2  v052
 BYTE   W12
 BYTE   Ds3  v068
 BYTE   W12
 BYTE   Gs3
 BYTE   W12
 BYTE   Ds3  v044
 BYTE   W12
 BYTE   Bn2
 BYTE   W12
 BYTE   Ds3  v068
 BYTE   W12
// 003   ----------------------------------------
 BYTE   Gs2  v048
 BYTE   W12
 BYTE   Ds3  v072
 BYTE   W12
 BYTE   Bn2  v056
 BYTE   W12
 BYTE   Ds3  v064
 BYTE   W12
 BYTE   Gs3  v072
 BYTE   W12
 BYTE   Ds3  v052
 BYTE   W12
 BYTE   Bn2
 BYTE   W12
 BYTE   Ds3  v064
 BYTE   W12
// 004   ----------------------------------------
 BYTE   Gs2  v048
 BYTE   W12
 BYTE   Ds3  v076
 BYTE   W12
 BYTE   Bn2  v048
 BYTE   W12
 BYTE   Ds3  v068
 BYTE   W12
 BYTE   Gs3
 BYTE   W12
 BYTE   Ds3  v048
 BYTE   W12
 BYTE   Bn2  v052
 BYTE   W12
 BYTE   Ds3  v064
 BYTE   W12
// 005   ----------------------------------------
 BYTE   Gs2  v048
 BYTE   W12
 BYTE   Ds3  v072
 BYTE   W12
 BYTE   Bn2  v052
 BYTE   W12
 BYTE   Ds3  v060
 BYTE   W12
 BYTE   Gs3  v068
 BYTE   W12
 BYTE   Ds3  v048
 BYTE   W12
 BYTE   Bn2
 BYTE   W12
 BYTE   Ds3  v064
 BYTE   W12
// 006   ----------------------------------------
 BYTE   Gs2  v048
 BYTE   W12
 BYTE   Ds3  v072
 BYTE   W12
 BYTE   Bn2  v052
 BYTE   W12
 BYTE   Ds3  v060
 BYTE   W12
 BYTE   Gs3  v068
 BYTE   W12
 BYTE   Ds3  v052
 BYTE   W12
 BYTE   Bn2  v048
 BYTE   W12
 BYTE   Ds3  v064
 BYTE   W12
// 007   ----------------------------------------
 BYTE   Gs2  v052
 BYTE   W12
 BYTE   Ds3  v076
 BYTE   W12
 BYTE   Bn2  v056
 BYTE   W12
 BYTE   Ds3  v064
 BYTE   W12
 BYTE   Gs3  v068
 BYTE   W12
 BYTE   Ds3  v044
 BYTE   W12
 BYTE   Bn3  v072
 BYTE   W12
 BYTE   Cs4  v064
 BYTE   W12
// 008   ----------------------------------------
 BYTE   W12
 BYTE   Ds3  v048
 BYTE   W12
 BYTE   Bn2  v052
 BYTE   W12
 BYTE   Ds3  v068
 BYTE   W12
 BYTE   Gs3
 BYTE   W12
 BYTE   Ds3  v044
 BYTE   W12
 BYTE   Bn2  v052
 BYTE   W12
 BYTE   Ds3  v068
 BYTE   W12
// 009   ----------------------------------------
 BYTE   W12
 BYTE   Ds3  v044
 BYTE   W12
 BYTE   Bn2  v048
 BYTE   W12
 BYTE   Ds3  v068
 BYTE   W12
 BYTE   Gs3
 BYTE   W12
 BYTE   Ds3  v044
 BYTE   W12
 BYTE   Bn2
 BYTE   W12
 BYTE   Ds3  v064
 BYTE   W12
// 010   ----------------------------------------
 BYTE   W12
 BYTE   En3  v048
 BYTE   W12
 BYTE   Bn2
 BYTE   W12
 BYTE   En3  v060
 BYTE   W12
 BYTE   Gs3  v068
 BYTE   W12
 BYTE   En3  v048
 BYTE   W12
 BYTE   Bn2
 BYTE   W12
 BYTE   En3  v068
 BYTE   W12
// 011   ----------------------------------------
 BYTE   W12
 BYTE   Ds3  v044
 BYTE   W12
 BYTE   As2  v048
 BYTE   W12
 BYTE   Ds3  v072
 BYTE   W12
 BYTE   Gn3  v068
 BYTE   W12
 BYTE   Ds3  v052
 BYTE   W12
 BYTE   As2  v048
 BYTE   W12
 BYTE   Ds3  v068
 BYTE   W12
// 012   ----------------------------------------
 BYTE   W12
 BYTE   Cs3  v048
 BYTE   W12
 BYTE   Gs2  v052
 BYTE   W12
 BYTE   Cs3  v068
 BYTE   W12
 BYTE   En3
 BYTE   W12
 BYTE   Cs3  v052
 BYTE   W12
 BYTE   Gs2  v048
 BYTE   W12
 BYTE   Cs3  v068
 BYTE   W12
// 013   ----------------------------------------
 BYTE   W12
 BYTE   Cs3  v048
 BYTE   W12
 BYTE   Gs2
 BYTE   W12
 BYTE   Cs3  v064
 BYTE   W12
 BYTE   En3  v068
 BYTE   W12
 BYTE   Cs3  v056
 BYTE   W12
 BYTE   Gs2  v052
 BYTE   W12
 BYTE   Cs3  v068
 BYTE   W12
// 014   ----------------------------------------
 BYTE   W12
 BYTE   Ds3  v044
 BYTE   W12
 BYTE   As2  v052
 BYTE   W12
 BYTE   Ds3  v072
 BYTE   W12
 BYTE   Gn3  v068
 BYTE   W12
 BYTE   Ds3  v044
 BYTE   W12
 BYTE   As2  v048
 BYTE   W12
 BYTE   Ds3  v068
 BYTE   W12
// 015   ----------------------------------------
 BYTE   W12
 BYTE   Ds3  v044
 BYTE   W12
 BYTE   As2  v048
 BYTE   W12
 BYTE   Ds3  v068
 BYTE   W12
 BYTE   Gn3  v076
 BYTE   W12
 BYTE   Ds3  v048
 BYTE   W12
 BYTE   As2
 BYTE   W12
 BYTE   Ds3  v064
 BYTE   W12
// 016   ----------------------------------------
 BYTE   W12
 BYTE   Ds3  v044
 BYTE   W12
 BYTE   Bn2  v048
 BYTE   W12
 BYTE   Ds3  v068
 BYTE   W12
 BYTE   Gs3
 BYTE   W12
 BYTE   Ds3  v048
 BYTE   W12
 BYTE   Bn2
 BYTE   W12
 BYTE   Ds3  v068
 BYTE   W12
// 017   ----------------------------------------
 BYTE   W12
 BYTE   Ds3  v044
 BYTE   W12
 BYTE   Bn2  v052
 BYTE   W12
 BYTE   Ds3  v060
 BYTE   W12
 BYTE   Gs3  v068
 BYTE   W12
 BYTE   Ds3  v044
 BYTE   W12
 BYTE   Bn2  v052
 BYTE   W12
 BYTE   Ds3  v064
 BYTE   W12
// 018   ----------------------------------------
 BYTE   W12
 BYTE   En3  v048
 BYTE   W12
 BYTE   Bn2
 BYTE   W12
 BYTE   En3  v076
 BYTE   W12
 BYTE   Gs3  v072
 BYTE   W12
 BYTE   En3  v048
 BYTE   W12
 BYTE   Bn2
 BYTE   W12
 BYTE   En3  v068
 BYTE   W12
// 019   ----------------------------------------
 BYTE   W12
 BYTE   Ds3  v052
 BYTE   W12
 BYTE   As2  v048
 BYTE   W12
 BYTE   Ds3  v072
 BYTE   W12
 BYTE   Gn3
 BYTE   W12
 BYTE   Ds3  v048
 BYTE   W12
 BYTE   As2  v052
 BYTE   W12
 BYTE   Ds3  v060
 BYTE   W12
// 020   ----------------------------------------
 BYTE   W12
 BYTE   Cs3  v056
 BYTE   W12
 BYTE   Gs2  v044
 BYTE   W12
 BYTE   Cs3  v072
 BYTE   W12
 BYTE   En3  v068
 BYTE   W12
 BYTE   Cs3  v052
 BYTE   W12
 BYTE   Gs2  v048
 BYTE   W12
 BYTE   Cs3  v072
 BYTE   W12
// 021   ----------------------------------------
 BYTE   W12
 BYTE   Cs3  v044
 BYTE   W12
 BYTE   Gs2  v048
 BYTE   W12
 BYTE   Cs3  v060
 BYTE   W12
 BYTE   En3  v064
 BYTE   W12
 BYTE   Cs3  v044
 BYTE   W12
 BYTE   Gs2  v056
 BYTE   W12
 BYTE   Cs3  v072
 BYTE   W12
// 022   ----------------------------------------
 BYTE   W12
 BYTE   Ds3  v044
 BYTE   W12
 BYTE   As2  v052
 BYTE   W12
 BYTE   Ds3  v064
 BYTE   W12
 BYTE   Gn3  v072
 BYTE   W12
 BYTE   Ds3  v048
 BYTE   W12
 BYTE   As2  v044
 BYTE   W12
 BYTE   Ds3  v072
 BYTE   W12
// 023   ----------------------------------------
 BYTE   W12
 BYTE   Ds3  v044
 BYTE   W12
 BYTE   As2  v052
 BYTE   W12
 BYTE   Ds3  v064
 BYTE   W12
 BYTE   Gn3  v072
 BYTE   W12
 BYTE   Ds3  v048
 BYTE   W12
 BYTE   As2
 BYTE   W12
 BYTE   Ds3  v068
 BYTE   W12
// 024   ----------------------------------------
 BYTE   W12
 BYTE   Cs3  v052
 BYTE   W12
 BYTE   An2
 BYTE   W12
 BYTE   Cs3  v068
 BYTE   W12
 BYTE   En3
 BYTE   W12
 BYTE   Cs3  v048
 BYTE   W12
 BYTE   An2  v056
 BYTE   W12
 BYTE   Cs3  v064
 BYTE   W12
// 025   ----------------------------------------
 BYTE   W12
 BYTE   Cs3  v044
 BYTE   W12
 BYTE   An2  v056
 BYTE   W12
 BYTE   Cs3  v064
 BYTE   W12
 BYTE   En3
 BYTE   W12
 BYTE   Cs3  v048
 BYTE   W12
 BYTE   An2  v052
 BYTE   W12
 BYTE   Cs3  v064
 BYTE   W12
// 026   ----------------------------------------
 BYTE   W12
 BYTE   Cs3  v044
 BYTE   W12
 BYTE   Gs2  v048
 BYTE   W12
 BYTE   Cs3  v064
 BYTE   W12
 BYTE   Ds3
 BYTE   W12
 BYTE   Cs3  v052
 BYTE   W12
 BYTE   Gs2  v048
 BYTE   W12
 BYTE   Cs3  v072
 BYTE   W12
// 027   ----------------------------------------
 BYTE   W12
 BYTE   Cs3  v052
 BYTE   W12
 BYTE   Gs2  v048
 BYTE   W12
 BYTE   Cs3  v064
 BYTE   W12
 BYTE   Ds3
 BYTE   W12
 BYTE   Cs3  v052
 BYTE   W12
 BYTE   Gs2  v056
 BYTE   W12
 BYTE   Cs3  v068
 BYTE   W12
// 028   ----------------------------------------
 BYTE   W12
 BYTE   Bn2  v048
 BYTE   W12
 BYTE   Gs2
 BYTE   W12
 BYTE   Bn2  v056
 BYTE   W12
 BYTE   En3  v068
 BYTE   W12
 BYTE   Bn2  v048
 BYTE   W12
 BYTE   Gs2  v052
 BYTE   W12
 BYTE   Bn2  v056
 BYTE   W12
// 029   ----------------------------------------
 BYTE   W12
 BYTE   Bn2  v044
 BYTE   W12
 BYTE   Gs2  v056
 BYTE   W12
 BYTE   Bn2
 BYTE   W12
 BYTE   En3  v064
 BYTE   W12
 BYTE   Bn2  v052
 BYTE   W12
 BYTE   Gs2  v048
 BYTE   W12
 BYTE   Bn2  v056
 BYTE   W12
// 030   ----------------------------------------
 BYTE   W12
 BYTE   As2  v044
 BYTE   W12
 BYTE   Gn2  v052
 BYTE   W12
 BYTE   As2  v060
 BYTE   W12
 BYTE   Ds3  v072
 BYTE   W12
 BYTE   As2  v056
 BYTE   W12
 BYTE   Gn2  v052
 BYTE   W12
 BYTE   As2  v060
 BYTE   W12
// 031   ----------------------------------------
 BYTE   W12
 BYTE   As2  v044
 BYTE   W12
 BYTE   Gn2  v052
 BYTE   W12
 BYTE   As2  v056
 BYTE   W12
 BYTE   Ds3  v064
 BYTE   W12
 BYTE   As2  v056
 BYTE   W12
 BYTE   Gn2  v044
 BYTE   W12
 BYTE   As2  v056
 BYTE   W12
// 032   ----------------------------------------
 BYTE   W12
 BYTE   Gs2  v048
 BYTE   W12
 BYTE   En2
 BYTE   W12
 BYTE   Gs2  v060
 BYTE   W12
 BYTE   Cs3  v068
 BYTE   W12
 BYTE   Gs2  v056
 BYTE   W12
 BYTE   En2  v044
 BYTE   W12
 BYTE   Gs2  v064
 BYTE   W12
// 033   ----------------------------------------
 BYTE   W12
 BYTE   Gs2  v044
 BYTE   W12
 BYTE   En2  v048
 BYTE   W12
 BYTE   Gs2  v060
 BYTE   W12
 BYTE   Cs3  v068
 BYTE   W12
 BYTE   Gs2  v056
 BYTE   W12
 BYTE   En2
 BYTE   W12
 BYTE   Gs2  v060
 BYTE   W12
// 034   ----------------------------------------
 BYTE   W12
 BYTE   As2  v056
 BYTE   W12
 BYTE   Fs2  v044
 BYTE   W12
 BYTE   As2  v060
 BYTE   W12
 BYTE   Ds3  v072
 BYTE   W12
 BYTE   As2  v056
 BYTE   W12
 BYTE   Fs2  v052
 BYTE   W12
 BYTE   As2  v060
 BYTE   W12
// 035   ----------------------------------------
 BYTE   W12
 BYTE   As2  v052
 BYTE   W12
 BYTE   Fs2
 BYTE   W12
 BYTE   As2  v068
 BYTE   W12
 BYTE   Ds3  v072
 BYTE   W12
 BYTE   As2  v052
 BYTE   W12
 BYTE   Fs2  v048
 BYTE   W12
 BYTE   As2  v056
 BYTE   W12
// 036   ----------------------------------------
 BYTE   W12
 BYTE   Gs2  v048
 BYTE   W12
 BYTE   En2
 BYTE   W12
 BYTE   Gs2  v056
 BYTE   W12
 BYTE   Cs3  v068
 BYTE   W12
 BYTE   Gs2  v056
 BYTE   W12
 BYTE   En2  v052
 BYTE   W12
 BYTE   Gs2  v060
 BYTE   W12
// 037   ----------------------------------------
 BYTE   W12
 BYTE   Gs2  v048
 BYTE   W12
 BYTE   En2  v044
 BYTE   W12
 BYTE   Gs2  v056
 BYTE   W12
 BYTE   Cs3  v064
 BYTE   W12
 BYTE   Gs2  v056
 BYTE   W12
 BYTE   En2
 BYTE   W12
 BYTE   Gs2  v064
 BYTE   W12
// 038   ----------------------------------------
 BYTE   W12
 BYTE   As2  v048
 BYTE   W12
 BYTE   Gn2
 BYTE   W12
 BYTE   As2  v060
 BYTE   W12
 BYTE   Ds3  v064
 BYTE   W12
 BYTE   As2  v048
 BYTE   W12
 BYTE   Gn2  v056
 BYTE   W12
 BYTE   As2  v064
 BYTE   W12
// 039   ----------------------------------------
 BYTE   W12
 BYTE   As2  v048
 BYTE   W12
 BYTE   Gn2
 BYTE   W12
 BYTE   As2  v060
 BYTE   W12
 BYTE   Ds3  v064
 BYTE   W12
 BYTE   As2  v056
 BYTE   W12
 BYTE   Gn2  v052
 BYTE   W12
 BYTE   As2  v060
 BYTE   W12
// 040   ----------------------------------------
 BYTE   W12
 BYTE   Bn2  v048
 BYTE   W12
 BYTE   Gs2
 BYTE   W12
 BYTE   Bn2  v064
 BYTE   W12
 BYTE   En3
 BYTE   W12
 BYTE   Bn2  v052
 BYTE   W12
 BYTE   Gs2  v048
 BYTE   W12
 BYTE   Bn2  v060
 BYTE   W12
// 041   ----------------------------------------
 BYTE   W12
 BYTE   Bn2  v044
 BYTE   W12
 BYTE   Gs2  v052
 BYTE   W12
 BYTE   Bn2  v060
 BYTE   W12
 BYTE   Fn3  v068
 BYTE   W12
 BYTE   Bn2  v052
 BYTE   W12
 BYTE   Gs2
 BYTE   W12
 BYTE   Bn2  v056
 BYTE   W12
// 042   ----------------------------------------
 BYTE   W12
 BYTE   Cs3  v044
 BYTE   W12
 BYTE   As2  v048
 BYTE   W12
 BYTE   Cs3  v072
 BYTE   W12
 BYTE   Fs3  v068
 BYTE   W12
 BYTE   Cs3  v044
 BYTE   W12
 BYTE   As2  v052
 BYTE   W12
 BYTE   Cs3  v064
 BYTE   W12
// 043   ----------------------------------------
 BYTE   W12
 BYTE   Cs3  v044
 BYTE   W12
 BYTE   As2  v052
 BYTE   W12
 BYTE   Cs3  v064
 BYTE   W12
 BYTE   Gn3  v068
 BYTE   W12
 BYTE   Cs3  v044
 BYTE   W12
 BYTE   As2  v056
 BYTE   W12
 BYTE   Cs3  v060
 BYTE   W12
// 044   ----------------------------------------
 BYTE   W12
 BYTE   Ds3  v048
 BYTE   W12
 BYTE   Bn2  v052
 BYTE   W12
 BYTE   Ds3  v068
 BYTE   W12
 BYTE   Gs3  v072
 BYTE   W12
 BYTE   Ds3  v048
 BYTE   W12
 BYTE   Bn2  v052
 BYTE   W12
 BYTE   Ds3  v068
 BYTE   W12
// 045   ----------------------------------------
 BYTE   W12
 BYTE   Ds3  v048
 BYTE   W12
 BYTE   Bn2
 BYTE   W12
 BYTE   Ds3  v068
 BYTE   W12
 BYTE   Gs3  v072
 BYTE   W12
 BYTE   Ds3  v048
 BYTE   W12
 BYTE   Bn2
 BYTE   W12
 BYTE   Ds3  v060
 BYTE   W12
// 046   ----------------------------------------
 BYTE   W12
 BYTE   Bn2  v048
 BYTE   W12
 BYTE   Gs2  v052
 BYTE   W12
 BYTE   Bn2  v056
 BYTE   W12
 BYTE   En3  v072
 BYTE   W12
 BYTE   Bn2  v060
 BYTE   W12
 BYTE   Gs2  v044
 BYTE   W12
 BYTE   Bn2  v060
 BYTE   W12
// 047   ----------------------------------------
 BYTE   W12
 BYTE   Bn2  v048
 BYTE   W12
 BYTE   Gs2  v052
 BYTE   W12
 BYTE   Bn2  v056
 BYTE   W24
 BYTE   As2  v044
 BYTE   W12
 BYTE   Fs2  v056
 BYTE   W12
 BYTE   As2  v060
 BYTE   W12
// 048   ----------------------------------------
 BYTE   W12
 BYTE   Gs2  v048
 BYTE   W12
 BYTE   En2  v056
 BYTE   W12
 BYTE   Gs2  v064
 BYTE   W12
 BYTE   Cs3  v072
 BYTE   W12
 BYTE   Gs2  v052
 BYTE   W12
 BYTE   En2  v056
 BYTE   W12
 BYTE   Gs2  v064
 BYTE   W12
// 049   ----------------------------------------
 BYTE   W12
 BYTE   Gs2  v048
 BYTE   W12
 BYTE   En2
 BYTE   W12
 BYTE   Gs2  v056
 BYTE   W12
 BYTE   Cs3  v072
 BYTE   W12
 BYTE   Gs2  v056
 BYTE   W12
 BYTE   En2
 BYTE   W12
 BYTE   Gs2
 BYTE   W12
// 050   ----------------------------------------
 BYTE   W12
 BYTE   As2  v048
 BYTE   W12
 BYTE   Fs2  v052
 BYTE   W12
 BYTE   As2  v064
 BYTE   W12
 BYTE   Ds3  v072
 BYTE   W12
 BYTE   As2  v048
 BYTE   W12
 BYTE   Fs2  v044
 BYTE   W12
 BYTE   As2  v060
 BYTE   W12
// 051   ----------------------------------------
 BYTE   W12
 BYTE   As2  v040
 BYTE   W12
 BYTE   Fs2  v052
 BYTE   W12
 BYTE   As2  v056
 BYTE   W12
 BYTE   Ds3  v068
 BYTE   W12
 BYTE   As2  v052
 BYTE   W12
 BYTE   Fs2
 BYTE   W12
 BYTE   As2  v064
 BYTE   W12
// 052   ----------------------------------------
 BYTE   W12
 BYTE   Gs2  v044
 BYTE   W12
 BYTE   En2  v048
 BYTE   W12
 BYTE   Gs2  v060
 BYTE   W12
 BYTE   Cs3  v068
 BYTE   W12
 BYTE   Gs2  v052
 BYTE   W12
 BYTE   En2  v056
 BYTE   W12
 BYTE   Gs2  v064
 BYTE   W12
// 053   ----------------------------------------
 BYTE   W12
 BYTE   Gs2  v040
 BYTE   W12
 BYTE   En2  v048
 BYTE   W12
 BYTE   Gs2  v060
 BYTE   W12
 BYTE   Cs3  v064
 BYTE   W12
 BYTE   Gs2  v048
 BYTE   W12
 BYTE   En2  v052
 BYTE   W12
 BYTE   Gs2  v060
 BYTE   W12
// 054   ----------------------------------------
 BYTE   W12
 BYTE   As2  v048
 BYTE   W12
 BYTE   Gn2  v052
 BYTE   W12
 BYTE   As2  v064
 BYTE   W12
 BYTE   Ds3  v072
 BYTE   W12
 BYTE   As2  v056
 BYTE   W12
 BYTE   Gn2  v052
 BYTE   W12
 BYTE   As2  v060
 BYTE   W12
// 055   ----------------------------------------
 BYTE   W12
 BYTE   As2  v044
 BYTE   W12
 BYTE   Gn2  v048
 BYTE   W12
 BYTE   As2  v060
 BYTE   W12
 BYTE   Ds3  v068
 BYTE   W12
 BYTE   As2  v056
 BYTE   W12
 BYTE   Gn2
 BYTE   W12
 BYTE   As2  v060
 BYTE   W06
 BYTE   GoTo
  POIN2 Label_2_0103A8EA
// 056   ----------------------------------------
 BYTE   W05
 BYTE   FINE

//**************** Track 4 (Midi-Chn.3) ****************//

songATragicDecision_004:
// 000   ----------------------------------------
 BYTE   KEYSH   songATragicDecision_key+0
Label_3_0103ADB2:
 BYTE   VOICE   11
 BYTE   MODT 0
 BYTE   CnM2
 BYTE   LFOS 0
 BYTE   Gs1
 BYTE   VOL   15*songATragicDecision_mvl/mxv
 BYTE   PAN   c_v+0
 BYTE   N44  Ds3  v052
 BYTE   W48
 BYTE   Ds5  v076
 BYTE   W48
// 001   ----------------------------------------
 BYTE   En3  v052
 BYTE   W48
 BYTE   En5  v084
 BYTE   W48
// 002   ----------------------------------------
 BYTE   Cs3  v052
 BYTE   W48
 BYTE   Cs5  v080
 BYTE   W48
// 003   ----------------------------------------
 BYTE   Ds3  v048
 BYTE   W48
 BYTE   Ds5  v084
 BYTE   W48
// 004   ----------------------------------------
 BYTE   Ds3  v048
 BYTE   W48
 BYTE   Ds5  v076
 BYTE   W48
// 005   ----------------------------------------
 BYTE   En3  v048
 BYTE   W48
 BYTE   En5  v080
 BYTE   W48
// 006   ----------------------------------------
 BYTE   Cs3  v048
 BYTE   W48
 BYTE   Cs5  v084
 BYTE   W48
// 007   ----------------------------------------
 BYTE   Ds3  v044
 BYTE   W48
 BYTE   Ds5  v080
 BYTE   W48
// 008   ----------------------------------------
 BYTE   W96
// 009   ----------------------------------------
 BYTE   W96
// 010   ----------------------------------------
 BYTE   W96
// 011   ----------------------------------------
 BYTE   W96
// 012   ----------------------------------------
 BYTE   W96
// 013   ----------------------------------------
 BYTE   W96
// 014   ----------------------------------------
 BYTE   W96
// 015   ----------------------------------------
 BYTE   W96
// 016   ----------------------------------------
 BYTE   W96
// 017   ----------------------------------------
 BYTE   W96
// 018   ----------------------------------------
 BYTE   W96
// 019   ----------------------------------------
 BYTE   W96
// 020   ----------------------------------------
 BYTE   W96
// 021   ----------------------------------------
 BYTE   W96
// 022   ----------------------------------------
 BYTE   W96
// 023   ----------------------------------------
 BYTE   W96
// 024   ----------------------------------------
 BYTE   W96
// 025   ----------------------------------------
 BYTE   W96
// 026   ----------------------------------------
 BYTE   W96
// 027   ----------------------------------------
 BYTE   W96
// 028   ----------------------------------------
 BYTE   W96
// 029   ----------------------------------------
 BYTE   W96
// 030   ----------------------------------------
 BYTE   W96
// 031   ----------------------------------------
 BYTE   W96
// 032   ----------------------------------------
 BYTE   W96
// 033   ----------------------------------------
 BYTE   W96
// 034   ----------------------------------------
 BYTE   W96
// 035   ----------------------------------------
 BYTE   W96
// 036   ----------------------------------------
 BYTE   W96
// 037   ----------------------------------------
 BYTE   W96
// 038   ----------------------------------------
 BYTE   W96
// 039   ----------------------------------------
 BYTE   W96
// 040   ----------------------------------------
 BYTE   W96
// 041   ----------------------------------------
 BYTE   W96
// 042   ----------------------------------------
 BYTE   W96
// 043   ----------------------------------------
 BYTE   W96
// 044   ----------------------------------------
 BYTE   W96
// 045   ----------------------------------------
 BYTE   W96
// 046   ----------------------------------------
 BYTE   W96
// 047   ----------------------------------------
 BYTE   W96
// 048   ----------------------------------------
 BYTE   W96
// 049   ----------------------------------------
 BYTE   W96
// 050   ----------------------------------------
 BYTE   W96
// 051   ----------------------------------------
 BYTE   W96
// 052   ----------------------------------------
 BYTE   W96
// 053   ----------------------------------------
 BYTE   W96
// 054   ----------------------------------------
 BYTE   W96
// 055   ----------------------------------------
 BYTE   W90
 BYTE   GoTo
  POIN2 Label_3_0103ADB2
// 056   ----------------------------------------
 BYTE   W05
 BYTE   FINE

//**************** Track 5 (Midi-Chn.4) ****************//

songATragicDecision_005:
// 000   ----------------------------------------
 BYTE   KEYSH   songATragicDecision_key+0
Label_4_0103AE26:
 BYTE   VOICE   11
 BYTE   MODT 0
 BYTE   CnM2
 BYTE   LFOS 0
 BYTE   Gs1
 BYTE   VOL   15*songATragicDecision_mvl/mxv
 BYTE   PAN   c_v+0
 BYTE   N44  Bn2  v052
 BYTE   W48
 BYTE   Ds5  v076
 BYTE   W48
// 001   ----------------------------------------
 BYTE   Bn2  v052
 BYTE   W48
 BYTE   En5  v084
 BYTE   W48
// 002   ----------------------------------------
 BYTE   Bn2  v052
 BYTE   W48
 BYTE   Cs5  v080
 BYTE   W48
// 003   ----------------------------------------
 BYTE   Bn2  v048
 BYTE   W48
 BYTE   Ds5  v084
 BYTE   W48
// 004   ----------------------------------------
 BYTE   Bn2  v048
 BYTE   W48
 BYTE   Ds5  v076
 BYTE   W48
// 005   ----------------------------------------
 BYTE   Bn2  v048
 BYTE   W48
 BYTE   En5  v080
 BYTE   W48
// 006   ----------------------------------------
 BYTE   Bn2  v048
 BYTE   W48
 BYTE   Cs5  v084
 BYTE   W48
// 007   ----------------------------------------
 BYTE   Bn2  v044
 BYTE   W48
 BYTE   Ds5  v080
 BYTE   W48
// 008   ----------------------------------------
 BYTE   W96
// 009   ----------------------------------------
 BYTE   W96
// 010   ----------------------------------------
 BYTE   W96
// 011   ----------------------------------------
 BYTE   W96
// 012   ----------------------------------------
 BYTE   W96
// 013   ----------------------------------------
 BYTE   W96
// 014   ----------------------------------------
 BYTE   W96
// 015   ----------------------------------------
 BYTE   W96
// 016   ----------------------------------------
 BYTE   W96
// 017   ----------------------------------------
 BYTE   W96
// 018   ----------------------------------------
 BYTE   W96
// 019   ----------------------------------------
 BYTE   W96
// 020   ----------------------------------------
 BYTE   W96
// 021   ----------------------------------------
 BYTE   W96
// 022   ----------------------------------------
 BYTE   W96
// 023   ----------------------------------------
 BYTE   W96
// 024   ----------------------------------------
 BYTE   W96
// 025   ----------------------------------------
 BYTE   W96
// 026   ----------------------------------------
 BYTE   W96
// 027   ----------------------------------------
 BYTE   W96
// 028   ----------------------------------------
 BYTE   W96
// 029   ----------------------------------------
 BYTE   W96
// 030   ----------------------------------------
 BYTE   W96
// 031   ----------------------------------------
 BYTE   W96
// 032   ----------------------------------------
 BYTE   W96
// 033   ----------------------------------------
 BYTE   W96
// 034   ----------------------------------------
 BYTE   W96
// 035   ----------------------------------------
 BYTE   W96
// 036   ----------------------------------------
 BYTE   W96
// 037   ----------------------------------------
 BYTE   W96
// 038   ----------------------------------------
 BYTE   W96
// 039   ----------------------------------------
 BYTE   W96
// 040   ----------------------------------------
 BYTE   W96
// 041   ----------------------------------------
 BYTE   W96
// 042   ----------------------------------------
 BYTE   W96
// 043   ----------------------------------------
 BYTE   W96
// 044   ----------------------------------------
 BYTE   W96
// 045   ----------------------------------------
 BYTE   W96
// 046   ----------------------------------------
 BYTE   W96
// 047   ----------------------------------------
 BYTE   W96
// 048   ----------------------------------------
 BYTE   W96
// 049   ----------------------------------------
 BYTE   W96
// 050   ----------------------------------------
 BYTE   W96
// 051   ----------------------------------------
 BYTE   W96
// 052   ----------------------------------------
 BYTE   W96
// 053   ----------------------------------------
 BYTE   W96
// 054   ----------------------------------------
 BYTE   W96
// 055   ----------------------------------------
 BYTE   W90
 BYTE   GoTo
  POIN2 Label_4_0103AE26
// 056   ----------------------------------------
 BYTE   W05
 BYTE   FINE

//**************** Track 6 (Midi-Chn.5) ****************//

songATragicDecision_006:
// 000   ----------------------------------------
 BYTE   KEYSH   songATragicDecision_key+0
Label_5_0103AE9A:
 BYTE   VOICE   11
 BYTE   MODT 0
 BYTE   CnM2
 BYTE   LFOS 0
 BYTE   Gs1
 BYTE   VOL   15*songATragicDecision_mvl/mxv
 BYTE   PAN   c_v+0
 BYTE   N44  Gs2  v052
 BYTE   W48
 BYTE   Bn4  v076
 BYTE   W48
// 001   ----------------------------------------
 BYTE   Gs2  v052
 BYTE   W48
 BYTE   Bn4  v084
 BYTE   W48
// 002   ----------------------------------------
 BYTE   Gs2  v052
 BYTE   W48
 BYTE   Bn4  v080
 BYTE   W48
// 003   ----------------------------------------
Label_5_0103AEB7:
 BYTE   N44  Gs2  v048
 BYTE   W48
 BYTE   Bn4  v084
 BYTE   W48
 BYTE   PEND 
// 004   ----------------------------------------
 BYTE   Gs2  v048
 BYTE   W48
 BYTE   Bn4  v076
 BYTE   W48
// 005   ----------------------------------------
 BYTE   Gs2  v048
 BYTE   W48
 BYTE   Bn4  v080
 BYTE   W48
 BYTE   PATT
  POIN2 Label_5_0103AEB7
// 006   ----------------------------------------
 BYTE   N44  Gs2  v044
 BYTE   W48
 BYTE   Bn4  v080
 BYTE   W48
// 007   ----------------------------------------
 BYTE   W96
// 008   ----------------------------------------
 BYTE   W96
// 009   ----------------------------------------
 BYTE   W96
// 010   ----------------------------------------
 BYTE   W96
// 011   ----------------------------------------
 BYTE   W96
// 012   ----------------------------------------
 BYTE   W96
// 013   ----------------------------------------
 BYTE   W96
// 014   ----------------------------------------
 BYTE   W96
// 015   ----------------------------------------
 BYTE   W96
// 016   ----------------------------------------
 BYTE   W96
// 017   ----------------------------------------
 BYTE   W96
// 018   ----------------------------------------
 BYTE   W96
// 019   ----------------------------------------
 BYTE   W96
// 020   ----------------------------------------
 BYTE   W96
// 021   ----------------------------------------
 BYTE   W96
// 022   ----------------------------------------
 BYTE   W96
// 023   ----------------------------------------
 BYTE   W96
// 024   ----------------------------------------
 BYTE   W96
// 025   ----------------------------------------
 BYTE   W96
// 026   ----------------------------------------
 BYTE   W96
// 027   ----------------------------------------
 BYTE   W96
// 028   ----------------------------------------
 BYTE   W96
// 029   ----------------------------------------
 BYTE   W96
// 030   ----------------------------------------
 BYTE   W96
// 031   ----------------------------------------
 BYTE   W96
// 032   ----------------------------------------
 BYTE   W96
// 033   ----------------------------------------
 BYTE   W96
// 034   ----------------------------------------
 BYTE   W96
// 035   ----------------------------------------
 BYTE   W96
// 036   ----------------------------------------
 BYTE   W96
// 037   ----------------------------------------
 BYTE   W96
// 038   ----------------------------------------
 BYTE   W96
// 039   ----------------------------------------
 BYTE   W96
// 040   ----------------------------------------
 BYTE   W96
// 041   ----------------------------------------
 BYTE   W96
// 042   ----------------------------------------
 BYTE   W96
// 043   ----------------------------------------
 BYTE   W96
// 044   ----------------------------------------
 BYTE   W96
// 045   ----------------------------------------
 BYTE   W96
// 046   ----------------------------------------
 BYTE   W96
// 047   ----------------------------------------
 BYTE   W96
// 048   ----------------------------------------
 BYTE   W96
// 049   ----------------------------------------
 BYTE   W96
// 050   ----------------------------------------
 BYTE   W96
// 051   ----------------------------------------
 BYTE   W96
// 052   ----------------------------------------
 BYTE   W96
// 053   ----------------------------------------
 BYTE   W96
// 054   ----------------------------------------
 BYTE   W90
 BYTE   GoTo
  POIN2 Label_5_0103AE9A
// 055   ----------------------------------------
 BYTE   W05
 BYTE   FINE

//**************** Track 7 (Midi-Chn.6) ****************//

songATragicDecision_007:
// 000   ----------------------------------------
 BYTE   KEYSH   songATragicDecision_key+0
Label_6_0103AF12:
 BYTE   VOICE   38
 BYTE   MODT 0
 BYTE   CnM2
 BYTE   LFOS 0
 BYTE   Gs1
 BYTE   VOL   25*songATragicDecision_mvl/mxv
 BYTE   PAN   c_v+0
 BYTE   W96
// 001   ----------------------------------------
 BYTE   W96
// 002   ----------------------------------------
 BYTE   W96
// 003   ----------------------------------------
 BYTE   W96
// 004   ----------------------------------------
 BYTE   W96
// 005   ----------------------------------------
 BYTE   W96
// 006   ----------------------------------------
 BYTE   W96
// 007   ----------------------------------------
 BYTE   W96
// 008   ----------------------------------------
 BYTE   N92  Gs1  v060
 BYTE   W96
// 009   ----------------------------------------
 BYTE   Fs1
 BYTE   W96
// 010   ----------------------------------------
 BYTE   En1
 BYTE   W96
// 011   ----------------------------------------
 BYTE   Ds1
 BYTE   W96
// 012   ----------------------------------------
 BYTE   Cs1
 BYTE   W96
// 013   ----------------------------------------
 BYTE   N92
 BYTE   W96
// 014   ----------------------------------------
 BYTE   Ds1
 BYTE   W96
// 015   ----------------------------------------
 BYTE   N92
 BYTE   W96
// 016   ----------------------------------------
 BYTE   Gs1
 BYTE   W96
// 017   ----------------------------------------
 BYTE   Fs1
 BYTE   W96
// 018   ----------------------------------------
 BYTE   En1
 BYTE   W96
// 019   ----------------------------------------
 BYTE   Ds1
 BYTE   W96
// 020   ----------------------------------------
 BYTE   Cs1
 BYTE   W96
// 021   ----------------------------------------
 BYTE   N92
 BYTE   W96
// 022   ----------------------------------------
 BYTE   Ds1
 BYTE   W96
// 023   ----------------------------------------
 BYTE   N92
 BYTE   W96
// 024   ----------------------------------------
 BYTE   Fs1
 BYTE   W96
// 025   ----------------------------------------
 BYTE   N92
 BYTE   W96
// 026   ----------------------------------------
 BYTE   Fn1
 BYTE   W96
// 027   ----------------------------------------
 BYTE   N92
 BYTE   W96
// 028   ----------------------------------------
 BYTE   En1
 BYTE   W96
// 029   ----------------------------------------
 BYTE   N92
 BYTE   W96
// 030   ----------------------------------------
 BYTE   Ds1
 BYTE   W96
// 031   ----------------------------------------
 BYTE   N92
 BYTE   W96
// 032   ----------------------------------------
 BYTE   Cs1
 BYTE   W96
// 033   ----------------------------------------
 BYTE   N92
 BYTE   W96
// 034   ----------------------------------------
 BYTE   Ds1
 BYTE   W96
// 035   ----------------------------------------
 BYTE   N92
 BYTE   W96
// 036   ----------------------------------------
 BYTE   Cs1
 BYTE   W96
// 037   ----------------------------------------
 BYTE   N92
 BYTE   W96
// 038   ----------------------------------------
 BYTE   Ds1
 BYTE   W96
// 039   ----------------------------------------
 BYTE   N92
 BYTE   W96
// 040   ----------------------------------------
 BYTE   En1
 BYTE   W96
// 041   ----------------------------------------
 BYTE   Fn1
 BYTE   W96
// 042   ----------------------------------------
 BYTE   Fs1
 BYTE   W96
// 043   ----------------------------------------
 BYTE   Gn1
 BYTE   W96
// 044   ----------------------------------------
 BYTE   Gs1
 BYTE   W96
// 045   ----------------------------------------
 BYTE   Fs1
 BYTE   W96
// 046   ----------------------------------------
 BYTE   En1
 BYTE   W96
// 047   ----------------------------------------
 BYTE   N44
 BYTE   W48
 BYTE   Ds1
 BYTE   W48
// 048   ----------------------------------------
 BYTE   N92  Cs1
 BYTE   W96
// 049   ----------------------------------------
 BYTE   N92
 BYTE   W96
// 050   ----------------------------------------
 BYTE   Ds1
 BYTE   W96
// 051   ----------------------------------------
 BYTE   N92
 BYTE   W96
// 052   ----------------------------------------
 BYTE   Cs1
 BYTE   W96
// 053   ----------------------------------------
 BYTE   N92
 BYTE   W96
// 054   ----------------------------------------
 BYTE   Ds1
 BYTE   W96
// 055   ----------------------------------------
 BYTE   N92
 BYTE   W90
 BYTE   GoTo
  POIN2 Label_6_0103AF12
// 056   ----------------------------------------
 BYTE   W05
 BYTE   FINE

//**************** Track 8 (Midi-Chn.7) ****************//

songATragicDecision_008:
// 000   ----------------------------------------
 BYTE   KEYSH   songATragicDecision_key+0
Label_7_0103AF92:
 BYTE   VOICE   38
 BYTE   MODT 0
 BYTE   CnM2
 BYTE   LFOS 0
 BYTE   Gs1
 BYTE   VOL   25*songATragicDecision_mvl/mxv
 BYTE   PAN   c_v+0
 BYTE   W96
// 001   ----------------------------------------
 BYTE   W96
// 002   ----------------------------------------
 BYTE   W96
// 003   ----------------------------------------
 BYTE   W96
// 004   ----------------------------------------
 BYTE   W96
// 005   ----------------------------------------
 BYTE   W96
// 006   ----------------------------------------
 BYTE   W96
// 007   ----------------------------------------
 BYTE   W96
// 008   ----------------------------------------
 BYTE   N92  Gs0  v060
 BYTE   W96
// 009   ----------------------------------------
 BYTE   Fs0
 BYTE   W96
// 010   ----------------------------------------
 BYTE   En0
 BYTE   W96
// 011   ----------------------------------------
 BYTE   Ds0
 BYTE   W96
// 012   ----------------------------------------
 BYTE   Cs0
 BYTE   W96
// 013   ----------------------------------------
 BYTE   N92
 BYTE   W96
// 014   ----------------------------------------
 BYTE   Ds0
 BYTE   W96
// 015   ----------------------------------------
 BYTE   N92
 BYTE   W96
// 016   ----------------------------------------
 BYTE   Gs0
 BYTE   W96
// 017   ----------------------------------------
 BYTE   Fs0
 BYTE   W96
// 018   ----------------------------------------
 BYTE   En0
 BYTE   W96
// 019   ----------------------------------------
 BYTE   Ds0
 BYTE   W96
// 020   ----------------------------------------
 BYTE   Cs0
 BYTE   W96
// 021   ----------------------------------------
 BYTE   N92
 BYTE   W96
// 022   ----------------------------------------
 BYTE   Ds0
 BYTE   W96
// 023   ----------------------------------------
 BYTE   N92
 BYTE   W96
// 024   ----------------------------------------
 BYTE   Fs0
 BYTE   W96
// 025   ----------------------------------------
 BYTE   N92
 BYTE   W96
// 026   ----------------------------------------
 BYTE   Fn0
 BYTE   W96
// 027   ----------------------------------------
 BYTE   N92
 BYTE   W96
// 028   ----------------------------------------
 BYTE   En0
 BYTE   W96
// 029   ----------------------------------------
 BYTE   N92
 BYTE   W96
// 030   ----------------------------------------
 BYTE   Ds0
 BYTE   W96
// 031   ----------------------------------------
 BYTE   N92
 BYTE   W96
// 032   ----------------------------------------
 BYTE   Cs0
 BYTE   W96
// 033   ----------------------------------------
 BYTE   N92
 BYTE   W96
// 034   ----------------------------------------
 BYTE   Ds0
 BYTE   W96
// 035   ----------------------------------------
 BYTE   N92
 BYTE   W96
// 036   ----------------------------------------
 BYTE   Cs0
 BYTE   W96
// 037   ----------------------------------------
 BYTE   N92
 BYTE   W96
// 038   ----------------------------------------
 BYTE   Ds0
 BYTE   W96
// 039   ----------------------------------------
 BYTE   N92
 BYTE   W96
// 040   ----------------------------------------
 BYTE   En0
 BYTE   W96
// 041   ----------------------------------------
 BYTE   Fn0
 BYTE   W96
// 042   ----------------------------------------
 BYTE   Fs0
 BYTE   W96
// 043   ----------------------------------------
 BYTE   Gn0
 BYTE   W96
// 044   ----------------------------------------
 BYTE   Gs0
 BYTE   W96
// 045   ----------------------------------------
 BYTE   Fs0
 BYTE   W96
// 046   ----------------------------------------
 BYTE   En0
 BYTE   W96
// 047   ----------------------------------------
 BYTE   N44
 BYTE   W48
 BYTE   Ds0
 BYTE   W48
// 048   ----------------------------------------
 BYTE   N92  Cs0
 BYTE   W96
// 049   ----------------------------------------
 BYTE   N92
 BYTE   W96
// 050   ----------------------------------------
 BYTE   Ds0
 BYTE   W96
// 051   ----------------------------------------
 BYTE   N92
 BYTE   W96
// 052   ----------------------------------------
 BYTE   Cs0
 BYTE   W96
// 053   ----------------------------------------
 BYTE   N92
 BYTE   W96
// 054   ----------------------------------------
 BYTE   Ds0
 BYTE   W96
// 055   ----------------------------------------
 BYTE   N92
 BYTE   W90
 BYTE   GoTo
  POIN2 Label_7_0103AF92
// 056   ----------------------------------------
 BYTE   W05
 BYTE   FINE

//******************************************************//
	ALIGN 4

songATragicDecision:
	BYTE	8	// NumTrks
	BYTE	0	// NumBlks
	BYTE	songATragicDecision_pri	// Priority
	BYTE	songATragicDecision_rev	// Reverb.
    
	POIN2	songATragicDecision_grp
    
	POIN2	songATragicDecision_001
	POIN2	songATragicDecision_002
	POIN2	songATragicDecision_003
	POIN2	songATragicDecision_004
	POIN2	songATragicDecision_005
	POIN2	songATragicDecision_006
	POIN2	songATragicDecision_007
	POIN2	songATragicDecision_008

	
