//Event file generated from Sappy .s format.
	#include "MPlayDef.event"

	#define	songAvatarsOfAvenir_grp  voicegroup000
	#define	songAvatarsOfAvenir_pri  0
	#define	songAvatarsOfAvenir_rev  0
	#define	songAvatarsOfAvenir_mvl  127
	#define	songAvatarsOfAvenir_key  0
	#define	songAvatarsOfAvenir_tbs  1
	#define	songAvatarsOfAvenir_exg  0
	#define	songAvatarsOfAvenir_cmp  1

	// .rodata
	//	songAvatarsOfAvenir
	ALIGN 4


//**************** Track 1 (Midi-Chn.0) ****************//

songAvatarsOfAvenir_001:
// 000   ----------------------------------------
 BYTE   VOL   80*songAvatarsOfAvenir_mvl/mxv
 BYTE   KEYSH   songAvatarsOfAvenir_key+0
 BYTE   TEMPO   90*songAvatarsOfAvenir_tbs/2
 BYTE   VOICE   68
 BYTE   N96  En4  v064
 BYTE   W96
// 001   ----------------------------------------
 BYTE   TIE  Cn4
 BYTE   W96
// 002   ----------------------------------------
 BYTE   W96
// 003   ----------------------------------------
 BYTE   EOT
 BYTE   N96  Bn3
 BYTE   W96
// 004   ----------------------------------------
 BYTE   W96
// 005   ----------------------------------------
 BYTE   W96
// 006   ----------------------------------------
 BYTE   W96
// 007   ----------------------------------------
 BYTE   W96
// 008   ----------------------------------------
 BYTE   W96
// 009   ----------------------------------------
 BYTE   W96
// 010   ----------------------------------------
 BYTE   W96
// 011   ----------------------------------------
 BYTE   W96
// 012   ----------------------------------------
Label_0_01495E2C:
 BYTE   N72  Bn3  v064
 BYTE   W72
 BYTE   N06  An3
 BYTE   W12
 BYTE   Bn3
 BYTE   W12
 BYTE   PEND 
// 013   ----------------------------------------
Label_0_01495E36:
 BYTE   N72  Gn3  v064
 BYTE   W72
 BYTE   N06  Fn3
 BYTE   W12
 BYTE   Gn3
 BYTE   W12
 BYTE   PEND 
// 014   ----------------------------------------
Label_0_01495E40:
 BYTE   N24  An3  v064
 BYTE   W24
 BYTE   N48  Gn3
 BYTE   W72
 BYTE   PEND 
// 015   ----------------------------------------
Label_0_01495E48:
 BYTE   N24  Fn3  v064
 BYTE   W24
 BYTE   N48  En3
 BYTE   W72
 BYTE   PEND 
// 016   ----------------------------------------
 BYTE   W96
// 017   ----------------------------------------
 BYTE   W96
// 018   ----------------------------------------
 BYTE   W96
// 019   ----------------------------------------
 BYTE   W96
// 020   ----------------------------------------
 BYTE   W96
// 021   ----------------------------------------
 BYTE   W96
// 022   ----------------------------------------
 BYTE   W96
// 023   ----------------------------------------
 BYTE   W96
// 024   ----------------------------------------
 BYTE   W96
// 025   ----------------------------------------
 BYTE   W96
// 026   ----------------------------------------
 BYTE   W96
// 027   ----------------------------------------
 BYTE   W96
// 028   ----------------------------------------
Label_0_01495E5C:
 BYTE   N96  En4  v064
 BYTE   W96
// 029   ----------------------------------------
 BYTE   TIE  Cn4
 BYTE   W96
// 030   ----------------------------------------
 BYTE   W96
// 031   ----------------------------------------
 BYTE   EOT
 BYTE   N96  Bn3
 BYTE   W96
// 032   ----------------------------------------
 BYTE   W96
// 033   ----------------------------------------
 BYTE   W96
// 034   ----------------------------------------
 BYTE   W96
// 035   ----------------------------------------
 BYTE   W96
// 036   ----------------------------------------
 BYTE   W96
// 037   ----------------------------------------
 BYTE   W96
// 038   ----------------------------------------
 BYTE   W96
// 039   ----------------------------------------
 BYTE   W96
 BYTE   PATT
  POIN2 Label_0_01495E2C
 BYTE   PATT
  POIN2 Label_0_01495E36
 BYTE   PATT
  POIN2 Label_0_01495E40
 BYTE   PATT
  POIN2 Label_0_01495E48
// 040   ----------------------------------------
 BYTE   W96
// 041   ----------------------------------------
 BYTE   W96
// 042   ----------------------------------------
 BYTE   W96
// 043   ----------------------------------------
 BYTE   W96
// 044   ----------------------------------------
 BYTE   W96
// 045   ----------------------------------------
 BYTE   W96
// 046   ----------------------------------------
 BYTE   W96
// 047   ----------------------------------------
 BYTE   W96
// 048   ----------------------------------------
 BYTE   W96
// 049   ----------------------------------------
 BYTE   W96
// 050   ----------------------------------------
 BYTE   W96
// 051   ----------------------------------------
 BYTE   W96
// 052   ----------------------------------------
 BYTE   GoTo
  POIN2 Label_0_01495E5C
 BYTE   FINE

//**************** Track 2 (Midi-Chn.1) ****************//

songAvatarsOfAvenir_002:
// 000   ----------------------------------------
 BYTE   VOL   80*songAvatarsOfAvenir_mvl/mxv
 BYTE   KEYSH   songAvatarsOfAvenir_key+0
 BYTE   VOICE   71
 BYTE   W96
// 001   ----------------------------------------
 BYTE   W96
// 002   ----------------------------------------
 BYTE   W96
// 003   ----------------------------------------
 BYTE   W96
// 004   ----------------------------------------
Label_1_01495D86:
 BYTE   N06  An3  v064
 BYTE   W06
 BYTE   Bn3
 BYTE   W06
 BYTE   Cn4
 BYTE   W12
 BYTE   An3
 BYTE   W06
 BYTE   Cn4
 BYTE   W06
 BYTE   En4
 BYTE   W12
 BYTE   N48  Cn4
 BYTE   W48
 BYTE   PEND 
// 005   ----------------------------------------
Label_1_01495D98:
 BYTE   N12  Bn3  v064
 BYTE   W12
 BYTE   N48  An3
 BYTE   W84
 BYTE   PEND 
// 006   ----------------------------------------
Label_1_01495DA0:
 BYTE   N48  Gn4  v064
 BYTE   W48
 BYTE   N24  Fn4
 BYTE   W24
 BYTE   En4
 BYTE   W24
 BYTE   PEND 
// 007   ----------------------------------------
 BYTE   N96  Dn4
 BYTE   W96
// 008   ----------------------------------------
 BYTE   W96
// 009   ----------------------------------------
 BYTE   W96
// 010   ----------------------------------------
 BYTE   W96
// 011   ----------------------------------------
 BYTE   W96
// 012   ----------------------------------------
 BYTE   W96
// 013   ----------------------------------------
 BYTE   W96
// 014   ----------------------------------------
 BYTE   W96
// 015   ----------------------------------------
 BYTE   W96
// 016   ----------------------------------------
 BYTE   Bn3
 BYTE   W96
// 017   ----------------------------------------
 BYTE   Dn4
 BYTE   W96
// 018   ----------------------------------------
Label_1_01495DB9:
 BYTE   W48
 BYTE   N12  Dn4  v064
 BYTE   W12
 BYTE   Cn4
 BYTE   W12
 BYTE   Bn3
 BYTE   W12
 BYTE   Dn4
 BYTE   W12
 BYTE   PEND 
// 019   ----------------------------------------
 BYTE   N96  Gn3
 BYTE   W96
// 020   ----------------------------------------
 BYTE   W96
// 021   ----------------------------------------
 BYTE   W96
// 022   ----------------------------------------
 BYTE   W96
// 023   ----------------------------------------
 BYTE   W96
// 024   ----------------------------------------
 BYTE   W96
// 025   ----------------------------------------
 BYTE   W96
// 026   ----------------------------------------
 BYTE   W96
// 027   ----------------------------------------
 BYTE   W96
// 028   ----------------------------------------
Label_1_01495DD0:
 BYTE   W96
// 029   ----------------------------------------
 BYTE   W96
// 030   ----------------------------------------
 BYTE   W96
// 031   ----------------------------------------
 BYTE   W96
 BYTE   PATT
  POIN2 Label_1_01495D86
 BYTE   PATT
  POIN2 Label_1_01495D98
 BYTE   PATT
  POIN2 Label_1_01495DA0
// 032   ----------------------------------------
 BYTE   N96  Dn4  v064
 BYTE   W96
// 033   ----------------------------------------
 BYTE   W96
// 034   ----------------------------------------
 BYTE   W96
// 035   ----------------------------------------
 BYTE   W96
// 036   ----------------------------------------
 BYTE   W96
// 037   ----------------------------------------
 BYTE   W96
// 038   ----------------------------------------
 BYTE   W96
// 039   ----------------------------------------
 BYTE   W96
// 040   ----------------------------------------
 BYTE   W96
// 041   ----------------------------------------
 BYTE   Bn3
 BYTE   W96
// 042   ----------------------------------------
 BYTE   Dn4
 BYTE   W96
 BYTE   PATT
  POIN2 Label_1_01495DB9
// 043   ----------------------------------------
 BYTE   N96  Gn3  v064
 BYTE   W96
// 044   ----------------------------------------
 BYTE   W96
// 045   ----------------------------------------
 BYTE   W96
// 046   ----------------------------------------
 BYTE   W96
// 047   ----------------------------------------
 BYTE   W96
// 048   ----------------------------------------
 BYTE   W96
// 049   ----------------------------------------
 BYTE   W96
// 050   ----------------------------------------
 BYTE   W96
// 051   ----------------------------------------
 BYTE   W96
// 052   ----------------------------------------
 BYTE   GoTo
  POIN2 Label_1_01495DD0
 BYTE   FINE

//**************** Track 3 (Midi-Chn.2) ****************//

songAvatarsOfAvenir_003:
// 000   ----------------------------------------
 BYTE   VOL   80*songAvatarsOfAvenir_mvl/mxv
 BYTE   KEYSH   songAvatarsOfAvenir_key+0
 BYTE   VOICE   73
 BYTE   W96
// 001   ----------------------------------------
 BYTE   W96
// 002   ----------------------------------------
 BYTE   W96
// 003   ----------------------------------------
 BYTE   W96
// 004   ----------------------------------------
 BYTE   W96
// 005   ----------------------------------------
 BYTE   W96
// 006   ----------------------------------------
 BYTE   W96
// 007   ----------------------------------------
 BYTE   W96
// 008   ----------------------------------------
Label_2_01495C82:
 BYTE   N06  En4  v064
 BYTE   W06
 BYTE   Gn4
 BYTE   W06
 BYTE   An4
 BYTE   W12
 BYTE   En4
 BYTE   W06
 BYTE   Gn4
 BYTE   W06
 BYTE   Bn4
 BYTE   W12
 BYTE   N48  An4
 BYTE   W48
 BYTE   PEND 
// 009   ----------------------------------------
Label_2_01495C94:
 BYTE   N12  Bn4  v064
 BYTE   W12
 BYTE   N48  Cn5
 BYTE   W84
 BYTE   PEND 
// 010   ----------------------------------------
Label_2_01495C9C:
 BYTE   N48  Gn4  v064
 BYTE   W48
 BYTE   N24  Bn4
 BYTE   W24
 BYTE   Cn5
 BYTE   W24
 BYTE   PEND 
// 011   ----------------------------------------
 BYTE   N96  Dn5
 BYTE   W96
// 012   ----------------------------------------
 BYTE   W96
// 013   ----------------------------------------
 BYTE   W96
// 014   ----------------------------------------
 BYTE   W96
// 015   ----------------------------------------
 BYTE   W96
// 016   ----------------------------------------
Label_2_01495CAD:
 BYTE   W36
 BYTE   N12  En4  v064
 BYTE   W12
 BYTE   Fn4
 BYTE   W12
 BYTE   N24  Gn4
 BYTE   W36
 BYTE   PEND 
// 017   ----------------------------------------
Label_2_01495CB8:
 BYTE   W36
 BYTE   N12  En4  v064
 BYTE   W12
 BYTE   Fn4
 BYTE   W12
 BYTE   An4
 BYTE   W12
 BYTE   Gn4
 BYTE   W24
 BYTE   PEND 
// 018   ----------------------------------------
 BYTE   N96  Cn5
 BYTE   W96
// 019   ----------------------------------------
Label_2_01495CC7:
 BYTE   W48
 BYTE   N12  Gn4  v064
 BYTE   W12
 BYTE   Fn4
 BYTE   W12
 BYTE   En4
 BYTE   W12
 BYTE   Gn4
 BYTE   W12
 BYTE   PEND 
// 020   ----------------------------------------
 BYTE   N96  En4
 BYTE   W96
// 021   ----------------------------------------
 BYTE   An4
 BYTE   W96
// 022   ----------------------------------------
 BYTE   Bn4
 BYTE   W96
// 023   ----------------------------------------
 BYTE   Cn5
 BYTE   W96
// 024   ----------------------------------------
 BYTE   En4
 BYTE   W96
// 025   ----------------------------------------
 BYTE   An4
 BYTE   W96
// 026   ----------------------------------------
 BYTE   Bn4
 BYTE   W96
// 027   ----------------------------------------
 BYTE   Gn4
 BYTE   W96
// 028   ----------------------------------------
Label_2_01495CE4:
 BYTE   W96
// 029   ----------------------------------------
 BYTE   W96
// 030   ----------------------------------------
 BYTE   W96
// 031   ----------------------------------------
 BYTE   W96
// 032   ----------------------------------------
 BYTE   W96
// 033   ----------------------------------------
 BYTE   W96
// 034   ----------------------------------------
 BYTE   W96
// 035   ----------------------------------------
 BYTE   W96
 BYTE   PATT
  POIN2 Label_2_01495C82
 BYTE   PATT
  POIN2 Label_2_01495C94
 BYTE   PATT
  POIN2 Label_2_01495C9C
// 036   ----------------------------------------
 BYTE   N96  Dn5  v064
 BYTE   W96
// 037   ----------------------------------------
 BYTE   W96
// 038   ----------------------------------------
 BYTE   W96
// 039   ----------------------------------------
 BYTE   W96
// 040   ----------------------------------------
 BYTE   W96
 BYTE   PATT
  POIN2 Label_2_01495CAD
 BYTE   PATT
  POIN2 Label_2_01495CB8
// 041   ----------------------------------------
 BYTE   N96  Cn5  v064
 BYTE   W96
 BYTE   PATT
  POIN2 Label_2_01495CC7
// 042   ----------------------------------------
 BYTE   N96  En4  v064
 BYTE   W96
// 043   ----------------------------------------
 BYTE   An4
 BYTE   W96
// 044   ----------------------------------------
 BYTE   Bn4
 BYTE   W96
// 045   ----------------------------------------
 BYTE   Cn5
 BYTE   W96
// 046   ----------------------------------------
 BYTE   En4
 BYTE   W96
// 047   ----------------------------------------
 BYTE   An4
 BYTE   W96
// 048   ----------------------------------------
 BYTE   Bn4
 BYTE   W96
// 049   ----------------------------------------
 BYTE   Gn4
 BYTE   W96
// 050   ----------------------------------------
 BYTE   GoTo
  POIN2 Label_2_01495CE4
 BYTE   FINE

//**************** Track 4 (Midi-Chn.3) ****************//

songAvatarsOfAvenir_004:
// 000   ----------------------------------------
 BYTE   VOL   80*songAvatarsOfAvenir_mvl/mxv
 BYTE   KEYSH   songAvatarsOfAvenir_key+0
 BYTE   VOICE   94
 BYTE   N96  An3  v032
 BYTE   N96  Cn4
 BYTE   N96  En4
 BYTE   W96
// 001   ----------------------------------------
Label_3_0149629E:
 BYTE   N96  Fn3  v032
 BYTE   N96  An3
 BYTE   N96  Cn4
 BYTE   W96
 BYTE   PEND 
// 002   ----------------------------------------
Label_3_014962A7:
 BYTE   N96  Dn3  v032
 BYTE   N96  Gn3
 BYTE   N96  Cn4
 BYTE   W96
 BYTE   PEND 
// 003   ----------------------------------------
Label_3_014962B0:
 BYTE   N96  Dn3  v032
 BYTE   N96  Gn3
 BYTE   N96  Bn3
 BYTE   W96
 BYTE   PEND 
// 004   ----------------------------------------
Label_3_014962B9:
 BYTE   N96  An3  v032
 BYTE   N96  Cn4
 BYTE   N96  En4
 BYTE   W96
 BYTE   PEND 
 BYTE   PATT
  POIN2 Label_3_0149629E
 BYTE   PATT
  POIN2 Label_3_014962A7
 BYTE   PATT
  POIN2 Label_3_014962B0
 BYTE   PATT
  POIN2 Label_3_014962B9
 BYTE   PATT
  POIN2 Label_3_0149629E
 BYTE   PATT
  POIN2 Label_3_014962A7
 BYTE   PATT
  POIN2 Label_3_014962B0
 BYTE   PATT
  POIN2 Label_3_014962B9
 BYTE   PATT
  POIN2 Label_3_0149629E
// 005   ----------------------------------------
Label_3_014962EF:
 BYTE   N96  Gn3  v032
 BYTE   N96  Bn3
 BYTE   N96  Dn4
 BYTE   W96
 BYTE   PEND 
// 006   ----------------------------------------
Label_3_014962F8:
 BYTE   N96  Gn3  v032
 BYTE   N96  Cn4
 BYTE   N96  En4
 BYTE   W96
 BYTE   PEND 
 BYTE   PATT
  POIN2 Label_3_014962B9
 BYTE   PATT
  POIN2 Label_3_0149629E
 BYTE   PATT
  POIN2 Label_3_014962B0
 BYTE   PATT
  POIN2 Label_3_014962F8
 BYTE   PATT
  POIN2 Label_3_014962B9
 BYTE   PATT
  POIN2 Label_3_0149629E
 BYTE   PATT
  POIN2 Label_3_014962B0
 BYTE   PATT
  POIN2 Label_3_014962F8
 BYTE   PATT
  POIN2 Label_3_014962B9
 BYTE   PATT
  POIN2 Label_3_0149629E
 BYTE   PATT
  POIN2 Label_3_014962B0
 BYTE   PATT
  POIN2 Label_3_014962F8
// 007   ----------------------------------------
Label_3_0149633D:
 BYTE   PATT
  POIN2 Label_3_014962B9
 BYTE   PATT
  POIN2 Label_3_0149629E
 BYTE   PATT
  POIN2 Label_3_014962A7
 BYTE   PATT
  POIN2 Label_3_014962B0
 BYTE   PATT
  POIN2 Label_3_014962B9
 BYTE   PATT
  POIN2 Label_3_0149629E
 BYTE   PATT
  POIN2 Label_3_014962A7
 BYTE   PATT
  POIN2 Label_3_014962B0
 BYTE   PATT
  POIN2 Label_3_014962B9
 BYTE   PATT
  POIN2 Label_3_0149629E
 BYTE   PATT
  POIN2 Label_3_014962A7
 BYTE   PATT
  POIN2 Label_3_014962B0
 BYTE   PATT
  POIN2 Label_3_014962B9
 BYTE   PATT
  POIN2 Label_3_0149629E
 BYTE   PATT
  POIN2 Label_3_014962EF
 BYTE   PATT
  POIN2 Label_3_014962F8
 BYTE   PATT
  POIN2 Label_3_014962B9
 BYTE   PATT
  POIN2 Label_3_0149629E
 BYTE   PATT
  POIN2 Label_3_014962B0
 BYTE   PATT
  POIN2 Label_3_014962F8
 BYTE   PATT
  POIN2 Label_3_014962B9
 BYTE   PATT
  POIN2 Label_3_0149629E
 BYTE   PATT
  POIN2 Label_3_014962B0
 BYTE   PATT
  POIN2 Label_3_014962F8
 BYTE   PATT
  POIN2 Label_3_014962B9
 BYTE   PATT
  POIN2 Label_3_0149629E
 BYTE   PATT
  POIN2 Label_3_014962B0
 BYTE   PATT
  POIN2 Label_3_014962F8
// 008   ----------------------------------------
 BYTE   GoTo
  POIN2 Label_3_0149633D
 BYTE   FINE

//**************** Track 5 (Midi-Chn.4) ****************//

songAvatarsOfAvenir_005:
// 000   ----------------------------------------
 BYTE   VOL   80*songAvatarsOfAvenir_mvl/mxv
 BYTE   KEYSH   songAvatarsOfAvenir_key+0
 BYTE   VOICE   100
 BYTE   W96
// 001   ----------------------------------------
 BYTE   W96
// 002   ----------------------------------------
 BYTE   W96
// 003   ----------------------------------------
 BYTE   W96
// 004   ----------------------------------------
 BYTE   W96
// 005   ----------------------------------------
 BYTE   W96
// 006   ----------------------------------------
 BYTE   W96
// 007   ----------------------------------------
 BYTE   W96
// 008   ----------------------------------------
 BYTE   W96
// 009   ----------------------------------------
 BYTE   W96
// 010   ----------------------------------------
 BYTE   W96
// 011   ----------------------------------------
 BYTE   W96
// 012   ----------------------------------------
 BYTE   W96
// 013   ----------------------------------------
 BYTE   W96
// 014   ----------------------------------------
 BYTE   W96
// 015   ----------------------------------------
 BYTE   W96
// 016   ----------------------------------------
 BYTE   W96
// 017   ----------------------------------------
 BYTE   W96
// 018   ----------------------------------------
 BYTE   W96
// 019   ----------------------------------------
 BYTE   W96
// 020   ----------------------------------------
Label_4_014963EA:
 BYTE   N12  En4  v048
 BYTE   W12
 BYTE   Fn4
 BYTE   W12
 BYTE   Gn4
 BYTE   W12
 BYTE   An3
 BYTE   W24
 BYTE   N12
 BYTE   W12
 BYTE   Bn3
 BYTE   W12
 BYTE   Cn4
 BYTE   W12
 BYTE   PEND 
// 021   ----------------------------------------
Label_4_014963FB:
 BYTE   N12  Fn3  v048
 BYTE   W12
 BYTE   Bn3
 BYTE   W12
 BYTE   Cn4
 BYTE   W12
 BYTE   En4
 BYTE   W12
 BYTE   Fn4
 BYTE   W12
 BYTE   N24  Dn4
 BYTE   W36
 BYTE   PEND 
// 022   ----------------------------------------
Label_4_0149640B:
 BYTE   N12  Gn3  v048
 BYTE   W12
 BYTE   Cn4
 BYTE   W12
 BYTE   Dn4
 BYTE   W12
 BYTE   Fn4
 BYTE   W12
 BYTE   Gn4
 BYTE   W12
 BYTE   N24  En4
 BYTE   W36
 BYTE   PEND 
// 023   ----------------------------------------
Label_4_0149641B:
 BYTE   N24  Cn4  v048
 BYTE   W24
 BYTE   N12  Bn3
 BYTE   W24
 BYTE   En4
 BYTE   W12
 BYTE   N06  Dn4
 BYTE   W06
 BYTE   Cn4
 BYTE   W06
 BYTE   Bn3
 BYTE   W06
 BYTE   An3
 BYTE   W06
 BYTE   Gn3
 BYTE   W12
 BYTE   PEND 
 BYTE   PATT
  POIN2 Label_4_014963EA
 BYTE   PATT
  POIN2 Label_4_014963FB
// 024   ----------------------------------------
Label_4_0149643A:
 BYTE   N12  Gn4  v048
 BYTE   W12
 BYTE   Fn4
 BYTE   W12
 BYTE   Dn4
 BYTE   W12
 BYTE   Cn4
 BYTE   W12
 BYTE   Bn3
 BYTE   W12
 BYTE   Gn3
 BYTE   W12
 BYTE   Cn4
 BYTE   W12
 BYTE   Bn3
 BYTE   W12
 BYTE   PEND 
 BYTE   PATT
  POIN2 Label_4_0149641B
// 025   ----------------------------------------
Label_4_01496452:
 BYTE   W96
// 026   ----------------------------------------
 BYTE   W96
// 027   ----------------------------------------
 BYTE   W96
// 028   ----------------------------------------
 BYTE   W96
// 029   ----------------------------------------
 BYTE   W96
// 030   ----------------------------------------
 BYTE   W96
// 031   ----------------------------------------
 BYTE   W96
// 032   ----------------------------------------
 BYTE   W96
// 033   ----------------------------------------
 BYTE   W96
// 034   ----------------------------------------
 BYTE   W96
// 035   ----------------------------------------
 BYTE   W96
// 036   ----------------------------------------
 BYTE   W96
// 037   ----------------------------------------
 BYTE   W96
// 038   ----------------------------------------
 BYTE   W96
// 039   ----------------------------------------
 BYTE   W96
// 040   ----------------------------------------
 BYTE   W96
// 041   ----------------------------------------
 BYTE   W96
// 042   ----------------------------------------
 BYTE   W96
// 043   ----------------------------------------
 BYTE   W96
// 044   ----------------------------------------
 BYTE   W96
 BYTE   PATT
  POIN2 Label_4_014963EA
 BYTE   PATT
  POIN2 Label_4_014963FB
 BYTE   PATT
  POIN2 Label_4_0149640B
 BYTE   PATT
  POIN2 Label_4_0149641B
 BYTE   PATT
  POIN2 Label_4_014963EA
 BYTE   PATT
  POIN2 Label_4_014963FB
 BYTE   PATT
  POIN2 Label_4_0149643A
 BYTE   PATT
  POIN2 Label_4_0149641B
// 045   ----------------------------------------
 BYTE   GoTo
  POIN2 Label_4_01496452
 BYTE   FINE

//**************** Track 6 (Midi-Chn.5) ****************//

songAvatarsOfAvenir_006:
// 000   ----------------------------------------
 BYTE   VOL   80*songAvatarsOfAvenir_mvl/mxv
 BYTE   KEYSH   songAvatarsOfAvenir_key+0
 BYTE   VOICE   46
 BYTE   N24  An3  v064
 BYTE   W24
 BYTE   Bn3
 BYTE   W24
 BYTE   Cn4
 BYTE   W24
 BYTE   En4
 BYTE   W24
// 001   ----------------------------------------
Label_5_014964A4:
 BYTE   N24  Fn3  v064
 BYTE   W24
 BYTE   Gn3
 BYTE   W24
 BYTE   An3
 BYTE   W24
 BYTE   Cn4
 BYTE   W24
 BYTE   PEND 
// 002   ----------------------------------------
Label_5_014964AF:
 BYTE   N24  Gn4  v064
 BYTE   W24
 BYTE   Dn4
 BYTE   W24
 BYTE   Cn4
 BYTE   W24
 BYTE   Bn3
 BYTE   W24
 BYTE   PEND 
// 003   ----------------------------------------
Label_5_014964BA:
 BYTE   N24  Dn4  v064
 BYTE   W24
 BYTE   Cn4
 BYTE   W24
 BYTE   Bn3
 BYTE   W24
 BYTE   Gn3
 BYTE   W24
 BYTE   PEND 
// 004   ----------------------------------------
Label_5_014964C5:
 BYTE   N24  An3  v064
 BYTE   W24
 BYTE   Bn3
 BYTE   W24
 BYTE   Cn4
 BYTE   W24
 BYTE   En4
 BYTE   W24
 BYTE   PEND 
 BYTE   PATT
  POIN2 Label_5_014964A4
 BYTE   PATT
  POIN2 Label_5_014964AF
 BYTE   PATT
  POIN2 Label_5_014964BA
 BYTE   PATT
  POIN2 Label_5_014964C5
 BYTE   PATT
  POIN2 Label_5_014964A4
 BYTE   PATT
  POIN2 Label_5_014964AF
 BYTE   PATT
  POIN2 Label_5_014964BA
// 005   ----------------------------------------
Label_5_014964F3:
 BYTE   N24  An3  v064
 BYTE   W24
 BYTE   Cn4
 BYTE   W24
 BYTE   Dn4
 BYTE   W24
 BYTE   En4
 BYTE   W24
 BYTE   PEND 
// 006   ----------------------------------------
Label_5_014964FE:
 BYTE   N24  Fn3  v064
 BYTE   W24
 BYTE   An3
 BYTE   W24
 BYTE   Bn3
 BYTE   W24
 BYTE   Cn4
 BYTE   W24
 BYTE   PEND 
// 007   ----------------------------------------
Label_5_01496509:
 BYTE   N24  Gn3  v064
 BYTE   W24
 BYTE   Cn4
 BYTE   W24
 BYTE   Dn4
 BYTE   W24
 BYTE   Bn3
 BYTE   W24
 BYTE   PEND 
// 008   ----------------------------------------
Label_5_01496514:
 BYTE   N24  Cn4  v064
 BYTE   W24
 BYTE   En4
 BYTE   W24
 BYTE   Dn4
 BYTE   W24
 BYTE   Cn4
 BYTE   W24
 BYTE   PEND 
 BYTE   PATT
  POIN2 Label_5_014964F3
 BYTE   PATT
  POIN2 Label_5_014964FE
 BYTE   PATT
  POIN2 Label_5_01496509
 BYTE   PATT
  POIN2 Label_5_01496514
// 009   ----------------------------------------
Label_5_01496533:
 BYTE   N12  En4  v064
 BYTE   W12
 BYTE   Fn4
 BYTE   W12
 BYTE   Gn4
 BYTE   W12
 BYTE   An3
 BYTE   W24
 BYTE   N12
 BYTE   W12
 BYTE   Bn3
 BYTE   W12
 BYTE   Cn4
 BYTE   W12
 BYTE   PEND 
// 010   ----------------------------------------
Label_5_01496544:
 BYTE   N12  Fn3  v064
 BYTE   W12
 BYTE   Bn3
 BYTE   W12
 BYTE   Cn4
 BYTE   W12
 BYTE   En4
 BYTE   W12
 BYTE   Fn4
 BYTE   W12
 BYTE   N24  Dn4
 BYTE   W36
 BYTE   PEND 
// 011   ----------------------------------------
Label_5_01496554:
 BYTE   N12  Gn3  v064
 BYTE   W12
 BYTE   Cn4
 BYTE   W12
 BYTE   Dn4
 BYTE   W12
 BYTE   Fn4
 BYTE   W12
 BYTE   Gn4
 BYTE   W12
 BYTE   N24  En4
 BYTE   W36
 BYTE   PEND 
// 012   ----------------------------------------
Label_5_01496564:
 BYTE   N24  Cn4  v064
 BYTE   W24
 BYTE   N12  Bn3
 BYTE   W24
 BYTE   En4
 BYTE   W12
 BYTE   N06  Dn4
 BYTE   W06
 BYTE   Cn4
 BYTE   W06
 BYTE   Bn3
 BYTE   W06
 BYTE   An3
 BYTE   W06
 BYTE   Gn3
 BYTE   W12
 BYTE   PEND 
 BYTE   PATT
  POIN2 Label_5_01496533
 BYTE   PATT
  POIN2 Label_5_01496544
// 013   ----------------------------------------
Label_5_01496583:
 BYTE   N12  Gn4  v064
 BYTE   W12
 BYTE   Fn4
 BYTE   W12
 BYTE   Dn4
 BYTE   W12
 BYTE   Cn4
 BYTE   W12
 BYTE   Bn3
 BYTE   W12
 BYTE   Gn3
 BYTE   W12
 BYTE   Cn4
 BYTE   W12
 BYTE   Bn3
 BYTE   W12
 BYTE   PEND 
 BYTE   PATT
  POIN2 Label_5_01496564
// 014   ----------------------------------------
Label_5_0149659B:
 BYTE   PATT
  POIN2 Label_5_014964C5
 BYTE   PATT
  POIN2 Label_5_014964A4
 BYTE   PATT
  POIN2 Label_5_014964AF
 BYTE   PATT
  POIN2 Label_5_014964BA
 BYTE   PATT
  POIN2 Label_5_014964C5
 BYTE   PATT
  POIN2 Label_5_014964A4
 BYTE   PATT
  POIN2 Label_5_014964AF
 BYTE   PATT
  POIN2 Label_5_014964BA
 BYTE   PATT
  POIN2 Label_5_014964C5
 BYTE   PATT
  POIN2 Label_5_014964A4
 BYTE   PATT
  POIN2 Label_5_014964AF
 BYTE   PATT
  POIN2 Label_5_014964BA
 BYTE   PATT
  POIN2 Label_5_014964F3
 BYTE   PATT
  POIN2 Label_5_014964FE
 BYTE   PATT
  POIN2 Label_5_01496509
 BYTE   PATT
  POIN2 Label_5_01496514
 BYTE   PATT
  POIN2 Label_5_014964F3
 BYTE   PATT
  POIN2 Label_5_014964FE
 BYTE   PATT
  POIN2 Label_5_01496509
 BYTE   PATT
  POIN2 Label_5_01496514
 BYTE   PATT
  POIN2 Label_5_01496533
 BYTE   PATT
  POIN2 Label_5_01496544
 BYTE   PATT
  POIN2 Label_5_01496554
 BYTE   PATT
  POIN2 Label_5_01496564
 BYTE   PATT
  POIN2 Label_5_01496533
 BYTE   PATT
  POIN2 Label_5_01496544
 BYTE   PATT
  POIN2 Label_5_01496583
 BYTE   PATT
  POIN2 Label_5_01496564
// 015   ----------------------------------------
 BYTE   GoTo
  POIN2 Label_5_0149659B
 BYTE   FINE

//**************** Track 7 (Midi-Chn.6) ****************//

songAvatarsOfAvenir_007:
// 000   ----------------------------------------
 BYTE   VOL   80*songAvatarsOfAvenir_mvl/mxv
 BYTE   KEYSH   songAvatarsOfAvenir_key+0
 BYTE   VOICE   33
 BYTE   N96  An2  v064
 BYTE   W96
// 001   ----------------------------------------
 BYTE   Fn2
 BYTE   W96
// 002   ----------------------------------------
 BYTE   Dn2
 BYTE   W96
// 003   ----------------------------------------
 BYTE   N96
 BYTE   W96
// 004   ----------------------------------------
 BYTE   An2
 BYTE   W96
// 005   ----------------------------------------
 BYTE   Fn2
 BYTE   W96
// 006   ----------------------------------------
 BYTE   Dn2
 BYTE   W96
// 007   ----------------------------------------
 BYTE   N96
 BYTE   W96
// 008   ----------------------------------------
 BYTE   An2
 BYTE   W96
// 009   ----------------------------------------
 BYTE   Fn2
 BYTE   W96
// 010   ----------------------------------------
 BYTE   Dn2
 BYTE   W96
// 011   ----------------------------------------
 BYTE   N96
 BYTE   W96
// 012   ----------------------------------------
Label_6_01496650:
 BYTE   N24  An2  v064
 BYTE   W24
 BYTE   N24
 BYTE   W24
 BYTE   N12
 BYTE   W12
 BYTE   N12
 BYTE   W12
 BYTE   N24
 BYTE   W24
 BYTE   PEND 
// 013   ----------------------------------------
Label_6_0149665D:
 BYTE   N24  Fn2  v064
 BYTE   W24
 BYTE   N24
 BYTE   W24
 BYTE   N12
 BYTE   W12
 BYTE   N12
 BYTE   W12
 BYTE   N24
 BYTE   W24
 BYTE   PEND 
// 014   ----------------------------------------
Label_6_0149666A:
 BYTE   N24  Gn2  v064
 BYTE   W24
 BYTE   N24
 BYTE   W24
 BYTE   N12
 BYTE   W12
 BYTE   N12
 BYTE   W12
 BYTE   N24
 BYTE   W24
 BYTE   PEND 
 BYTE   PATT
  POIN2 Label_6_0149666A
 BYTE   PATT
  POIN2 Label_6_01496650
 BYTE   PATT
  POIN2 Label_6_0149665D
// 015   ----------------------------------------
Label_6_01496686:
 BYTE   N24  Dn2  v064
 BYTE   W24
 BYTE   N24
 BYTE   W24
 BYTE   N12
 BYTE   W12
 BYTE   N12
 BYTE   W12
 BYTE   N24
 BYTE   W24
 BYTE   PEND 
 BYTE   PATT
  POIN2 Label_6_0149666A
 BYTE   PATT
  POIN2 Label_6_01496650
 BYTE   PATT
  POIN2 Label_6_0149665D
 BYTE   PATT
  POIN2 Label_6_01496686
 BYTE   PATT
  POIN2 Label_6_0149666A
 BYTE   PATT
  POIN2 Label_6_01496650
 BYTE   PATT
  POIN2 Label_6_0149665D
 BYTE   PATT
  POIN2 Label_6_01496686
 BYTE   PATT
  POIN2 Label_6_0149666A
// 016   ----------------------------------------
Label_6_014966C0:
 BYTE   N12  An2  v064
 BYTE   W12
 BYTE   N12
 BYTE   W12
 BYTE   N12
 BYTE   W12
 BYTE   N12
 BYTE   W12
 BYTE   N12
 BYTE   W12
 BYTE   N12
 BYTE   W12
 BYTE   N12
 BYTE   W12
 BYTE   N12
 BYTE   W12
 BYTE   PEND 
// 017   ----------------------------------------
Label_6_014966D3:
 BYTE   N12  Fn2  v064
 BYTE   W12
 BYTE   N12
 BYTE   W12
 BYTE   N12
 BYTE   W12
 BYTE   N12
 BYTE   W12
 BYTE   N12
 BYTE   W12
 BYTE   N12
 BYTE   W12
 BYTE   N12
 BYTE   W12
 BYTE   N12
 BYTE   W12
 BYTE   PEND 
// 018   ----------------------------------------
Label_6_014966E6:
 BYTE   N12  Dn2  v064
 BYTE   W12
 BYTE   N12
 BYTE   W12
 BYTE   N12
 BYTE   W12
 BYTE   N12
 BYTE   W12
 BYTE   N12
 BYTE   W12
 BYTE   N12
 BYTE   W12
 BYTE   N12
 BYTE   W12
 BYTE   N12
 BYTE   W12
 BYTE   PEND 
 BYTE   PATT
  POIN2 Label_6_014966E6
 BYTE   PATT
  POIN2 Label_6_014966C0
 BYTE   PATT
  POIN2 Label_6_014966D3
 BYTE   PATT
  POIN2 Label_6_014966E6
 BYTE   PATT
  POIN2 Label_6_014966E6
 BYTE   PATT
  POIN2 Label_6_014966C0
 BYTE   PATT
  POIN2 Label_6_014966D3
 BYTE   PATT
  POIN2 Label_6_014966E6
 BYTE   PATT
  POIN2 Label_6_014966E6
 BYTE   PATT
  POIN2 Label_6_014966C0
 BYTE   PATT
  POIN2 Label_6_014966D3
// 019   ----------------------------------------
Label_6_01496730:
 BYTE   N12  Gn2  v064
 BYTE   W12
 BYTE   N12
 BYTE   W12
 BYTE   N12
 BYTE   W12
 BYTE   N12
 BYTE   W12
 BYTE   N12
 BYTE   W12
 BYTE   N12
 BYTE   W12
 BYTE   N12
 BYTE   W12
 BYTE   N12
 BYTE   W12
 BYTE   PEND 
 BYTE   PATT
  POIN2 Label_6_01496730
 BYTE   PATT
  POIN2 Label_6_014966C0
 BYTE   PATT
  POIN2 Label_6_014966D3
 BYTE   PATT
  POIN2 Label_6_014966E6
 BYTE   PATT
  POIN2 Label_6_01496730
 BYTE   PATT
  POIN2 Label_6_014966C0
 BYTE   PATT
  POIN2 Label_6_014966D3
 BYTE   PATT
  POIN2 Label_6_014966E6
 BYTE   PATT
  POIN2 Label_6_01496730
 BYTE   PATT
  POIN2 Label_6_014966C0
 BYTE   PATT
  POIN2 Label_6_014966D3
 BYTE   PATT
  POIN2 Label_6_014966E6
 BYTE   PATT
  POIN2 Label_6_01496730
// 020   ----------------------------------------
 BYTE   GoTo
  POIN2 Label_6_014966C0
 BYTE   FINE

//**************** Track 8 (Midi-Chn.7) ****************//

songAvatarsOfAvenir_008:
// 000   ----------------------------------------
 BYTE   VOL   80*songAvatarsOfAvenir_mvl/mxv
 BYTE   KEYSH   songAvatarsOfAvenir_key+0
 BYTE   VOICE   121
 BYTE   W96
// 001   ----------------------------------------
 BYTE   W96
// 002   ----------------------------------------
 BYTE   W96
// 003   ----------------------------------------
 BYTE   W96
// 004   ----------------------------------------
 BYTE   W96
// 005   ----------------------------------------
 BYTE   W96
// 006   ----------------------------------------
 BYTE   W96
// 007   ----------------------------------------
 BYTE   W96
// 008   ----------------------------------------
 BYTE   W96
// 009   ----------------------------------------
 BYTE   W96
// 010   ----------------------------------------
 BYTE   W96
// 011   ----------------------------------------
 BYTE   W48
 BYTE   N12  Fn1  v064
 BYTE   W12
 BYTE   En1
 BYTE   W18
 BYTE   N06  Gn1
 BYTE   W06
 BYTE   N12  En1
 BYTE   W12
// 012   ----------------------------------------
Label_7_014967AA:
 BYTE   N24  Cn1  v064
 BYTE   W24
 BYTE   Cs1
 BYTE   W24
 BYTE   Cn1
 BYTE   W24
 BYTE   Cs1
 BYTE   W24
 BYTE   PEND 
 BYTE   PATT
  POIN2 Label_7_014967AA
 BYTE   PATT
  POIN2 Label_7_014967AA
 BYTE   PATT
  POIN2 Label_7_014967AA
 BYTE   PATT
  POIN2 Label_7_014967AA
 BYTE   PATT
  POIN2 Label_7_014967AA
 BYTE   PATT
  POIN2 Label_7_014967AA
// 013   ----------------------------------------
 BYTE   N24  Cn1  v064
 BYTE   W24
 BYTE   Cs1
 BYTE   W24
 BYTE   Cn1
 BYTE   W24
 BYTE   N12  Fn1
 BYTE   W12
 BYTE   En1
 BYTE   W12
// 014   ----------------------------------------
Label_7_014967E0:
 BYTE   N24  Cn1  v064
 BYTE   N12  Fs1
 BYTE   W12
 BYTE   N12
 BYTE   W12
 BYTE   N24  Cs1
 BYTE   N12  Fs1
 BYTE   W12
 BYTE   N12
 BYTE   W12
 BYTE   N24  Cn1
 BYTE   N12  Fs1
 BYTE   W12
 BYTE   N12
 BYTE   W12
 BYTE   N24  Cs1
 BYTE   N12  Fs1
 BYTE   W12
 BYTE   N12
 BYTE   W12
 BYTE   PEND 
 BYTE   PATT
  POIN2 Label_7_014967E0
 BYTE   PATT
  POIN2 Label_7_014967E0
 BYTE   PATT
  POIN2 Label_7_014967E0
 BYTE   PATT
  POIN2 Label_7_014967E0
 BYTE   PATT
  POIN2 Label_7_014967E0
 BYTE   PATT
  POIN2 Label_7_014967E0
// 015   ----------------------------------------
 BYTE   N24  Cn1  v064
 BYTE   N12  Fs1
 BYTE   W12
 BYTE   N12
 BYTE   W12
 BYTE   N24  Cs1
 BYTE   N12  Fs1
 BYTE   W12
 BYTE   N12
 BYTE   W12
 BYTE   N24  Cn1
 BYTE   W24
 BYTE   N12  Fn1
 BYTE   W12
 BYTE   En1
 BYTE   W12
// 016   ----------------------------------------
Label_7_01496833:
 BYTE   N24  Cn1  v064
 BYTE   N12  Fs1
 BYTE   N12  An2
 BYTE   W12
 BYTE   Fs1
 BYTE   W12
 BYTE   N24  Cs1
 BYTE   N12  Fs1
 BYTE   W12
 BYTE   N12
 BYTE   W12
 BYTE   N24  Cn1
 BYTE   N12  Fs1
 BYTE   W12
 BYTE   N12
 BYTE   W12
 BYTE   N24  Cs1
 BYTE   N12  Fs1
 BYTE   W12
 BYTE   N12
 BYTE   W12
 BYTE   PATT
  POIN2 Label_7_014967E0
 BYTE   PATT
  POIN2 Label_7_014967E0
 BYTE   PATT
  POIN2 Label_7_014967E0
 BYTE   PATT
  POIN2 Label_7_014967E0
 BYTE   PATT
  POIN2 Label_7_014967E0
 BYTE   PATT
  POIN2 Label_7_014967E0
 BYTE   PATT
  POIN2 Label_7_014967E0
 BYTE   PATT
  POIN2 Label_7_014967E0
 BYTE   PATT
  POIN2 Label_7_014967E0
 BYTE   PATT
  POIN2 Label_7_014967E0
// 017   ----------------------------------------
 BYTE   N24  Cn1  v064
 BYTE   N12  Fs1
 BYTE   W12
 BYTE   N12
 BYTE   W12
 BYTE   N24  Cs1
 BYTE   N12  Fs1
 BYTE   W12
 BYTE   N12
 BYTE   W12
 BYTE   Fn1
 BYTE   W12
 BYTE   En1
 BYTE   W18
 BYTE   N06  Gn1
 BYTE   W06
 BYTE   N12  En1
 BYTE   W12
 BYTE   PATT
  POIN2 Label_7_014967E0
 BYTE   PATT
  POIN2 Label_7_014967E0
 BYTE   PATT
  POIN2 Label_7_014967E0
 BYTE   PATT
  POIN2 Label_7_014967E0
 BYTE   PATT
  POIN2 Label_7_014967E0
 BYTE   PATT
  POIN2 Label_7_014967E0
 BYTE   PATT
  POIN2 Label_7_014967E0
// 018   ----------------------------------------
 BYTE   N24  Cn1  v064
 BYTE   N12  Fs1
 BYTE   W12
 BYTE   N12
 BYTE   W12
 BYTE   N24  Cs1
 BYTE   N12  Fs1
 BYTE   W12
 BYTE   N12
 BYTE   W12
 BYTE   N24  Cn1
 BYTE   N12  Fs1
 BYTE   W12
 BYTE   N12
 BYTE   W12
 BYTE   Fn1
 BYTE   W12
 BYTE   En1
 BYTE   W12
 BYTE   PATT
  POIN2 Label_7_014967E0
 BYTE   PATT
  POIN2 Label_7_014967E0
 BYTE   PATT
  POIN2 Label_7_014967E0
 BYTE   PATT
  POIN2 Label_7_014967E0
 BYTE   PATT
  POIN2 Label_7_014967E0
 BYTE   PATT
  POIN2 Label_7_014967E0
 BYTE   PATT
  POIN2 Label_7_014967E0
// 019   ----------------------------------------
 BYTE   N24  Cn1  v064
 BYTE   N12  Fs1
 BYTE   W12
 BYTE   N12
 BYTE   W12
 BYTE   N24  Cs1
 BYTE   N12  Fs1
 BYTE   W12
 BYTE   N12
 BYTE   W12
 BYTE   N24  Cn1
 BYTE   W24
 BYTE   Cs1
 BYTE   N12  Fn1
 BYTE   W12
 BYTE   En1
 BYTE   W12
// 020   ----------------------------------------
 BYTE   GoTo
  POIN2 Label_7_01496833
 BYTE   FINE

//******************************************************//
	ALIGN 4

songAvatarsOfAvenir:
	BYTE	8	// NumTrks
	BYTE	0	// NumBlks
	BYTE	songAvatarsOfAvenir_pri	// Priority
	BYTE	songAvatarsOfAvenir_rev	// Reverb.
    
	POIN2	songAvatarsOfAvenir_grp
    
	POIN2	songAvatarsOfAvenir_001
	POIN2	songAvatarsOfAvenir_002
	POIN2	songAvatarsOfAvenir_003
	POIN2	songAvatarsOfAvenir_004
	POIN2	songAvatarsOfAvenir_005
	POIN2	songAvatarsOfAvenir_006
	POIN2	songAvatarsOfAvenir_007
	POIN2	songAvatarsOfAvenir_008

	
