//Event file generated from Sappy .s format.
	#include "MPlayDef.event"

	#define	BattleOne_grp  voicegroup000
	#define	BattleOne_pri  0
	#define	BattleOne_rev  0
	#define	BattleOne_mvl  127
	#define	BattleOne_key  0
	#define	BattleOne_tbs  1
	#define	BattleOne_exg  0
	#define	BattleOne_cmp  1

	// .rodata
	//	BattleOne
	ALIGN 4


//**************** Track 1 (Midi-Chn.0) ****************//

BattleOne_001:
// 000   ----------------------------------------
 BYTE   KEYSH   BattleOne_key+0
Label_BattleOne0_0147118E:
 BYTE   TEMPO   288*BattleOne_tbs/2
 BYTE   VOICE   48
 BYTE   VOL   25*BattleOne_mvl/mxv
 BYTE   TIE  Dn2  v092
 BYTE   TIE  Fs2
 BYTE   W96
// 001   ----------------------------------------
 BYTE   W24
 BYTE   EOT
 BYTE   N72  Gn2
 BYTE   W72
// 002   ----------------------------------------
 BYTE   EOT
 BYTE   Dn2
Label_BattleOne0_014711A1:
 BYTE   TIE  Cs2  v092
 BYTE   TIE  Fs2
 BYTE   W48
 BYTE   Cs4  v104
 BYTE   W48
 BYTE   PEND 
// 003   ----------------------------------------
 BYTE   W24
 BYTE   EOT
 BYTE   Fs2
 BYTE   N72  An2  v092
 BYTE   W72
// 004   ----------------------------------------
 BYTE   EOT
 BYTE   Cs2  v073
Label_BattleOne0_014711B5:
 BYTE   TIE  Bn1  v092
 BYTE   TIE  Fs2
 BYTE   TIE  Bn3  v104
 BYTE   W96
 BYTE   PEND 
// 005   ----------------------------------------
 BYTE   W96
// 006   ----------------------------------------
 BYTE   EOT
 BYTE   TIE  Dn4  v116
 BYTE   W96
// 007   ----------------------------------------
 BYTE   EOT
 BYTE   Bn1  v054
 BYTE   N96  Dn2  v104
 BYTE   N96  Gn2
 BYTE   W96
// 008   ----------------------------------------
 BYTE   EOT
 BYTE   Dn4
Label_BattleOne0_014711D0:
 BYTE   TIE  Fs3  v116
 BYTE   N96  Cs4  v127
 BYTE   W96
 BYTE   PEND 
// 009   ----------------------------------------
 BYTE   Dn4
 BYTE   W96
// 010   ----------------------------------------
 BYTE   Cs4
 BYTE   W96
// 011   ----------------------------------------
 BYTE   En4
 BYTE   W96
// 012   ----------------------------------------
 BYTE   EOT
 BYTE   Fs3
 BYTE   N96  Bn2
 BYTE   W96
// 013   ----------------------------------------
 BYTE   En3
 BYTE   W96
// 014   ----------------------------------------
 BYTE   Dn3
 BYTE   W96
// 015   ----------------------------------------
 BYTE   Cs3
 BYTE   W96
// 016   ----------------------------------------
Label_BattleOne0_014711E9:
 BYTE   TIE  Cs3  v092
 BYTE   TIE  Fs3  v116
 BYTE   W96
 BYTE   PEND 
// 017   ----------------------------------------
 BYTE   W96
// 018   ----------------------------------------
 BYTE   EOT
 BYTE   Cs3  v066
Label_BattleOne0_014711F5:
 BYTE   TIE  Dn3  v092
 BYTE   N96  Bn3  v116
 BYTE   W96
 BYTE   PEND 
// 019   ----------------------------------------
 BYTE   An3
 BYTE   W96
// 020   ----------------------------------------
 BYTE   EOT
 BYTE   Dn3
Label_BattleOne0_01471201:
 BYTE   TIE  En3  v092
 BYTE   TIE  Fs3  v127
 BYTE   W96
 BYTE   PEND 
// 021   ----------------------------------------
 BYTE   W96
// 022   ----------------------------------------
 BYTE   EOT
 BYTE   En3  v066
Label_BattleOne0_0147120D:
 BYTE   TIE  En3  v092
 BYTE   TIE  An3  v127
 BYTE   W96
 BYTE   PEND 
// 023   ----------------------------------------
 BYTE   W96
// 024   ----------------------------------------
 BYTE   EOT
 BYTE   En3  v069
Label_BattleOne0_01471219:
 BYTE   TIE  Cs3  v104
 BYTE   N96  Fs3  v127
 BYTE   W96
 BYTE   PEND 
// 025   ----------------------------------------
 BYTE   N96
 BYTE   W96
// 026   ----------------------------------------
 BYTE   EOT
 BYTE   Cs3
Label_BattleOne0_01471225:
 BYTE   N96  Dn3  v104
 BYTE   N96  Bn3  v127
 BYTE   W96
 BYTE   PEND 
// 027   ----------------------------------------
Label_BattleOne0_0147122D:
 BYTE   N96  En3  v104
 BYTE   N96  An3
 BYTE   N96  Cs4  v127
 BYTE   W96
 BYTE   PEND 
// 028   ----------------------------------------
Label_BattleOne0_01471237:
 BYTE   TIE  Fs3  v104
 BYTE   TIE  En4  v116
 BYTE   TIE  Fs4  v127
 BYTE   W96
 BYTE   PEND 
// 029   ----------------------------------------
 BYTE   W96
// 030   ----------------------------------------
 BYTE   EOT
 BYTE   Fs3  v076
 BYTE   Fs4
Label_BattleOne0_01471247:
 BYTE   N96  An3  v104
 BYTE   N96  Dn4  v116
 BYTE   TIE  Fs4  v127
 BYTE   W96
 BYTE   PEND 
// 031   ----------------------------------------
Label_BattleOne0_01471252:
 BYTE   N96  An3  v104
 BYTE   N96  Cs4  v116
 BYTE   W96
 BYTE   PEND 
// 032   ----------------------------------------
 BYTE   EOT
 BYTE   Fs4
 BYTE   PATT
  POIN2 Label_BattleOne0_014711E9
// 033   ----------------------------------------
 BYTE   W96
// 034   ----------------------------------------
 BYTE   EOT
 BYTE   Cs3  v066
 BYTE   PATT
  POIN2 Label_BattleOne0_014711F5
// 035   ----------------------------------------
 BYTE   N96  An3  v116
 BYTE   W96
// 036   ----------------------------------------
 BYTE   EOT
 BYTE   Dn3
 BYTE   PATT
  POIN2 Label_BattleOne0_01471201
// 037   ----------------------------------------
 BYTE   W96
// 038   ----------------------------------------
 BYTE   EOT
 BYTE   En3  v066
 BYTE   PATT
  POIN2 Label_BattleOne0_0147120D
// 039   ----------------------------------------
 BYTE   W96
// 040   ----------------------------------------
 BYTE   EOT
 BYTE   En3  v069
 BYTE   PATT
  POIN2 Label_BattleOne0_01471219
// 041   ----------------------------------------
 BYTE   N96  Fs3  v127
 BYTE   W96
// 042   ----------------------------------------
 BYTE   EOT
 BYTE   Cs3
 BYTE   PATT
  POIN2 Label_BattleOne0_01471225
 BYTE   PATT
  POIN2 Label_BattleOne0_0147122D
 BYTE   PATT
  POIN2 Label_BattleOne0_01471237
// 043   ----------------------------------------
 BYTE   W96
// 044   ----------------------------------------
 BYTE   EOT
 BYTE   Fs3  v076
 BYTE   Fs4
 BYTE   PATT
  POIN2 Label_BattleOne0_01471247
 BYTE   PATT
  POIN2 Label_BattleOne0_01471252
// 045   ----------------------------------------
 BYTE   EOT
 BYTE   Fs4
Label_BattleOne0_014712AD:
 BYTE   TIE  Dn2  v092
 BYTE   TIE  Fs2
 BYTE   W96
 BYTE   PEND 
// 046   ----------------------------------------
 BYTE   W24
 BYTE   EOT
 BYTE   N72  Gn2
 BYTE   W72
// 047   ----------------------------------------
 BYTE   EOT
 BYTE   Dn2
 BYTE   PATT
  POIN2 Label_BattleOne0_014711A1
// 048   ----------------------------------------
 BYTE   W24
 BYTE   EOT
 BYTE   Fs2
 BYTE   N72  An2  v092
 BYTE   W72
// 049   ----------------------------------------
 BYTE   EOT
 BYTE   Cs2  v073
 BYTE   PATT
  POIN2 Label_BattleOne0_014711B5
// 050   ----------------------------------------
 BYTE   W96
// 051   ----------------------------------------
 BYTE   EOT
 BYTE   Bn3
 BYTE   TIE  Dn4  v116
 BYTE   W96
// 052   ----------------------------------------
 BYTE   EOT
 BYTE   Bn1  v054
 BYTE   N96  Dn2  v104
 BYTE   N96  Gn2
 BYTE   W96
// 053   ----------------------------------------
 BYTE   EOT
 BYTE   Dn4
 BYTE   PATT
  POIN2 Label_BattleOne0_014711D0
// 054   ----------------------------------------
 BYTE   N96  Dn4  v127
 BYTE   W96
// 055   ----------------------------------------
 BYTE   Cs4
 BYTE   W96
// 056   ----------------------------------------
 BYTE   En4
 BYTE   W96
// 057   ----------------------------------------
 BYTE   EOT
 BYTE   Fs3
 BYTE   N96  Bn2
 BYTE   W96
// 058   ----------------------------------------
 BYTE   En3
 BYTE   W96
// 059   ----------------------------------------
 BYTE   Dn3
 BYTE   W96
// 060   ----------------------------------------
 BYTE   Cs3
 BYTE   W96
// 061   ----------------------------------------
 BYTE   W96
// 062   ----------------------------------------
 BYTE   W96
// 063   ----------------------------------------
 BYTE   W96
// 064   ----------------------------------------
 BYTE   W96
// 065   ----------------------------------------
 BYTE   W96
// 066   ----------------------------------------
 BYTE   W96
// 067   ----------------------------------------
 BYTE   W96
// 068   ----------------------------------------
 BYTE   W96
// 069   ----------------------------------------
 BYTE   W96
// 070   ----------------------------------------
 BYTE   W96
// 071   ----------------------------------------
 BYTE   W96
// 072   ----------------------------------------
 BYTE   W96
// 073   ----------------------------------------
 BYTE   W96
// 074   ----------------------------------------
 BYTE   W96
// 075   ----------------------------------------
 BYTE   W96
// 076   ----------------------------------------
 BYTE   W96
// 077   ----------------------------------------
 BYTE   TIE  En3
 BYTE   W48
 BYTE   N96  Fs3
 BYTE   W48
// 078   ----------------------------------------
 BYTE   W48
 BYTE   N48  An2  v104
 BYTE   N48  An3  v127
 BYTE   W48
// 079   ----------------------------------------
 BYTE   EOT
 BYTE   En3
 BYTE   N96  Bn2  v104
 BYTE   N96  Dn3  v127
 BYTE   N96  Bn3
 BYTE   W96
// 080   ----------------------------------------
 BYTE   An2  v104
 BYTE   N96  Cs3  v127
 BYTE   N96  An3  v116
 BYTE   W96
// 081   ----------------------------------------
Label_BattleOne0_0147132B:
 BYTE   TIE  En3  v104
 BYTE   W48
 BYTE   N72  Fs3  v127
 BYTE   W48
 BYTE   PEND 
// 082   ----------------------------------------
Label_BattleOne0_01471334:
 BYTE   W24
 BYTE   N72  Bn2  v104
 BYTE   N72  An3  v127
 BYTE   W72
 BYTE   PEND 
// 083   ----------------------------------------
 BYTE   EOT
 BYTE   En3
Label_BattleOne0_0147133F:
 BYTE   TIE  An2  v104
 BYTE   TIE  Cs3  v127
 BYTE   N96  Fs3
 BYTE   N96  Bn3
 BYTE   W96
 BYTE   PEND 
// 084   ----------------------------------------
 BYTE   En3
 BYTE   N96  An3
 BYTE   N96  En4
 BYTE   W96
// 085   ----------------------------------------
 BYTE   EOT
 BYTE   An2  v061
 BYTE   PATT
  POIN2 Label_BattleOne0_0147132B
 BYTE   PATT
  POIN2 Label_BattleOne0_01471334
// 086   ----------------------------------------
 BYTE   EOT
 BYTE   En3
 BYTE   PATT
  POIN2 Label_BattleOne0_0147133F
// 087   ----------------------------------------
 BYTE   N96  En3  v127
 BYTE   N96  An3
 BYTE   W96
// 088   ----------------------------------------
 BYTE   EOT
 BYTE   An2  v061
 BYTE   PATT
  POIN2 Label_BattleOne0_0147132B
 BYTE   PATT
  POIN2 Label_BattleOne0_01471334
// 089   ----------------------------------------
 BYTE   EOT
 BYTE   En3
 BYTE   PATT
  POIN2 Label_BattleOne0_0147133F
// 090   ----------------------------------------
 BYTE   N96  En3  v127
 BYTE   N96  An3
 BYTE   N96  En4
 BYTE   W96
// 091   ----------------------------------------
 BYTE   EOT
 BYTE   An2  v061
 BYTE   PATT
  POIN2 Label_BattleOne0_014712AD
// 092   ----------------------------------------
 BYTE   W24
 BYTE   EOT
 BYTE   Fs2
 BYTE   N72  Gn2  v092
 BYTE   W72
// 093   ----------------------------------------
 BYTE   EOT
 BYTE   Dn2
 BYTE   PATT
  POIN2 Label_BattleOne0_014711A1
// 094   ----------------------------------------
 BYTE   W24
 BYTE   EOT
 BYTE   Fs2
 BYTE   N72  An2  v092
 BYTE   W72
// 095   ----------------------------------------
 BYTE   EOT
 BYTE   Cs2  v073
 BYTE   PATT
  POIN2 Label_BattleOne0_014711B5
// 096   ----------------------------------------
 BYTE   W96
// 097   ----------------------------------------
 BYTE   EOT
 BYTE   Bn3
 BYTE   TIE  Dn4  v116
 BYTE   W96
// 098   ----------------------------------------
 BYTE   EOT
 BYTE   Bn1  v054
 BYTE   N96  Dn2  v104
 BYTE   N96  Gn2
 BYTE   W96
// 099   ----------------------------------------
 BYTE   EOT
 BYTE   Dn4
 BYTE   PATT
  POIN2 Label_BattleOne0_014711D0
// 100   ----------------------------------------
 BYTE   N96  Dn4  v127
 BYTE   W96
// 101   ----------------------------------------
 BYTE   Cs4
 BYTE   W96
// 102   ----------------------------------------
 BYTE   En4
 BYTE   W96
// 103   ----------------------------------------
 BYTE   EOT
 BYTE   Fs3
 BYTE   N96  Bn2
 BYTE   W96
// 104   ----------------------------------------
 BYTE   En3
 BYTE   W96
// 105   ----------------------------------------
 BYTE   Dn3
 BYTE   W96
// 106   ----------------------------------------
 BYTE   Cs3
 BYTE   W96
// 107   ----------------------------------------
 BYTE   W06
 BYTE   GoTo
  POIN2 Label_BattleOne0_0147118E
 BYTE   FINE

//**************** Track 2 (Midi-Chn.1) ****************//

BattleOne_002:
// 000   ----------------------------------------
 BYTE   VOL   60*BattleOne_mvl/mxv
 BYTE   KEYSH   BattleOne_key+0
Label_BattleOne1_014713E4:
 BYTE   VOICE   34
 BYTE   N36  Bn0  v127
 BYTE   W36
 BYTE   N12
 BYTE   W12
 BYTE   N24  Bn1
 BYTE   W24
 BYTE   N12  Bn0
 BYTE   W24
// 001   ----------------------------------------
Label_BattleOne1_014713F2:
 BYTE   W24
 BYTE   N24  Bn0  v127
 BYTE   W24
 BYTE   Bn1
 BYTE   W48
 BYTE   PEND 
// 002   ----------------------------------------
Label_BattleOne1_014713FA:
 BYTE   N36  An0  v127
 BYTE   W36
 BYTE   N12
 BYTE   W12
 BYTE   N24  An1
 BYTE   W24
 BYTE   N12  An0
 BYTE   W24
 BYTE   PEND 
// 003   ----------------------------------------
Label_BattleOne1_01471407:
 BYTE   W24
 BYTE   N24  An0  v127
 BYTE   W24
 BYTE   An1
 BYTE   W48
 BYTE   PEND 
// 004   ----------------------------------------
Label_BattleOne1_0147140F:
 BYTE   N36  Gn0  v127
 BYTE   W36
 BYTE   N12
 BYTE   W12
 BYTE   N24  Gn1
 BYTE   W24
 BYTE   N12
 BYTE   W24
 BYTE   PEND 
// 005   ----------------------------------------
Label_BattleOne1_0147141B:
 BYTE   W24
 BYTE   N12  Gn0  v127
 BYTE   W24
 BYTE   En1
 BYTE   W24
 BYTE   Dn1
 BYTE   W24
 BYTE   PEND 
// 006   ----------------------------------------
Label_BattleOne1_01471425:
 BYTE   N36  En0  v127
 BYTE   W36
 BYTE   N12
 BYTE   W12
 BYTE   N24  En1
 BYTE   W24
 BYTE   N12  En0
 BYTE   W24
 BYTE   PEND 
// 007   ----------------------------------------
Label_BattleOne1_01471432:
 BYTE   W24
 BYTE   N24  En0  v127
 BYTE   W24
 BYTE   N12  En1
 BYTE   W12
 BYTE   N12
 BYTE   W12
 BYTE   N12
 BYTE   W24
 BYTE   PEND 
// 008   ----------------------------------------
Label_BattleOne1_0147143F:
 BYTE   N36  Bn0  v127
 BYTE   W36
 BYTE   N12
 BYTE   W12
 BYTE   N24  Bn1
 BYTE   W24
 BYTE   N12  Bn0
 BYTE   W24
 BYTE   PEND 
// 009   ----------------------------------------
Label_BattleOne1_0147144C:
 BYTE   W24
 BYTE   N24  Bn0  v127
 BYTE   W24
 BYTE   Bn1
 BYTE   W24
 BYTE   N24
 BYTE   W24
 BYTE   PEND 
 BYTE   PATT
  POIN2 Label_BattleOne1_014713FA
 BYTE   PATT
  POIN2 Label_BattleOne1_01471407
// 010   ----------------------------------------
Label_BattleOne1_01471460:
 BYTE   N36  Gn0  v127
 BYTE   W36
 BYTE   N12
 BYTE   W12
 BYTE   Gn1
 BYTE   W48
 BYTE   PEND 
// 011   ----------------------------------------
Label_BattleOne1_01471469:
 BYTE   W24
 BYTE   N12  Fs0  v127
 BYTE   W24
 BYTE   Fs1
 BYTE   W24
 BYTE   En1
 BYTE   W24
 BYTE   PEND 
 BYTE   PATT
  POIN2 Label_BattleOne1_01471425
// 012   ----------------------------------------
Label_BattleOne1_01471478:
 BYTE   W24
 BYTE   N24  Fs1  v127
 BYTE   W24
 BYTE   N12
 BYTE   W12
 BYTE   Fs0
 BYTE   W12
 BYTE   Fs1
 BYTE   W24
 BYTE   PEND 
// 013   ----------------------------------------
 BYTE   N24  Bn1
 BYTE   W96
// 014   ----------------------------------------
 BYTE   W72
 BYTE   En2
 BYTE   W24
// 015   ----------------------------------------
 BYTE   W24
 BYTE   N24
 BYTE   W72
// 016   ----------------------------------------
 BYTE   W96
// 017   ----------------------------------------
 BYTE   An1
 BYTE   W96
// 018   ----------------------------------------
 BYTE   W72
 BYTE   Dn2
 BYTE   W24
// 019   ----------------------------------------
 BYTE   W24
 BYTE   N24
 BYTE   W72
// 020   ----------------------------------------
Label_BattleOne1_01471496:
 BYTE   N24  Cs2  v127
 BYTE   W48
 BYTE   Fs1
 BYTE   W48
 BYTE   PEND 
// 021   ----------------------------------------
 BYTE   Bn1
 BYTE   W96
// 022   ----------------------------------------
 BYTE   W72
 BYTE   En2
 BYTE   W24
// 023   ----------------------------------------
 BYTE   W24
 BYTE   N24
 BYTE   W72
// 024   ----------------------------------------
 BYTE   W96
// 025   ----------------------------------------
 BYTE   An1
 BYTE   W96
// 026   ----------------------------------------
 BYTE   W72
 BYTE   Dn2
 BYTE   W24
// 027   ----------------------------------------
 BYTE   W24
 BYTE   N24
 BYTE   W72
 BYTE   PATT
  POIN2 Label_BattleOne1_01471496
// 028   ----------------------------------------
 BYTE   N24  Bn1  v127
 BYTE   W96
// 029   ----------------------------------------
 BYTE   W72
 BYTE   En2
 BYTE   W24
// 030   ----------------------------------------
 BYTE   W24
 BYTE   N24
 BYTE   W72
// 031   ----------------------------------------
 BYTE   W96
// 032   ----------------------------------------
 BYTE   An1
 BYTE   W96
// 033   ----------------------------------------
 BYTE   W72
 BYTE   Dn2
 BYTE   W24
// 034   ----------------------------------------
 BYTE   W24
 BYTE   N24
 BYTE   W72
 BYTE   PATT
  POIN2 Label_BattleOne1_01471496
// 035   ----------------------------------------
 BYTE   N24  Bn1  v127
 BYTE   W96
// 036   ----------------------------------------
 BYTE   W72
 BYTE   En2
 BYTE   W24
// 037   ----------------------------------------
 BYTE   W24
 BYTE   N24
 BYTE   W72
// 038   ----------------------------------------
 BYTE   W96
// 039   ----------------------------------------
 BYTE   An1
 BYTE   W96
// 040   ----------------------------------------
 BYTE   W72
 BYTE   Dn2
 BYTE   W24
// 041   ----------------------------------------
 BYTE   W24
 BYTE   N24
 BYTE   W72
 BYTE   PATT
  POIN2 Label_BattleOne1_01471496
 BYTE   PATT
  POIN2 Label_BattleOne1_0147143F
 BYTE   PATT
  POIN2 Label_BattleOne1_014713F2
 BYTE   PATT
  POIN2 Label_BattleOne1_014713FA
 BYTE   PATT
  POIN2 Label_BattleOne1_01471407
 BYTE   PATT
  POIN2 Label_BattleOne1_0147140F
 BYTE   PATT
  POIN2 Label_BattleOne1_0147141B
 BYTE   PATT
  POIN2 Label_BattleOne1_01471425
 BYTE   PATT
  POIN2 Label_BattleOne1_01471432
 BYTE   PATT
  POIN2 Label_BattleOne1_0147143F
 BYTE   PATT
  POIN2 Label_BattleOne1_0147144C
 BYTE   PATT
  POIN2 Label_BattleOne1_014713FA
 BYTE   PATT
  POIN2 Label_BattleOne1_01471407
 BYTE   PATT
  POIN2 Label_BattleOne1_01471460
 BYTE   PATT
  POIN2 Label_BattleOne1_01471469
 BYTE   PATT
  POIN2 Label_BattleOne1_01471425
 BYTE   PATT
  POIN2 Label_BattleOne1_01471478
// 042   ----------------------------------------
Label_BattleOne1_01471533:
 BYTE   N12  Bn1  v127
 BYTE   W84
 BYTE   N24
 BYTE   W12
 BYTE   PEND 
// 043   ----------------------------------------
Label_BattleOne1_0147153A:
 BYTE   W48
 BYTE   N12  Fs1  v127
 BYTE   W24
 BYTE   An1
 BYTE   W24
 BYTE   PEND 
 BYTE   PATT
  POIN2 Label_BattleOne1_01471533
 BYTE   PATT
  POIN2 Label_BattleOne1_0147153A
// 044   ----------------------------------------
Label_BattleOne1_0147154C:
 BYTE   N12  Gn1  v127
 BYTE   W84
 BYTE   N24  Fs1
 BYTE   W12
 BYTE   PEND 
// 045   ----------------------------------------
Label_BattleOne1_01471554:
 BYTE   W48
 BYTE   N12  Dn1  v127
 BYTE   W24
 BYTE   Fs1
 BYTE   W24
 BYTE   PEND 
 BYTE   PATT
  POIN2 Label_BattleOne1_0147154C
 BYTE   PATT
  POIN2 Label_BattleOne1_01471554
 BYTE   PATT
  POIN2 Label_BattleOne1_01471533
 BYTE   PATT
  POIN2 Label_BattleOne1_0147153A
 BYTE   PATT
  POIN2 Label_BattleOne1_01471533
 BYTE   PATT
  POIN2 Label_BattleOne1_0147153A
 BYTE   PATT
  POIN2 Label_BattleOne1_0147154C
 BYTE   PATT
  POIN2 Label_BattleOne1_01471554
 BYTE   PATT
  POIN2 Label_BattleOne1_0147154C
 BYTE   PATT
  POIN2 Label_BattleOne1_01471554
// 046   ----------------------------------------
Label_BattleOne1_0147158E:
 BYTE   N12  En1  v127
 BYTE   W84
 BYTE   N24
 BYTE   W12
 BYTE   PEND 
// 047   ----------------------------------------
Label_BattleOne1_01471595:
 BYTE   W48
 BYTE   N12  Dn1  v127
 BYTE   W24
 BYTE   En1
 BYTE   W24
 BYTE   PEND 
// 048   ----------------------------------------
Label_BattleOne1_0147159D:
 BYTE   N12  Fs1  v127
 BYTE   W84
 BYTE   N24
 BYTE   W12
 BYTE   PEND 
 BYTE   PATT
  POIN2 Label_BattleOne1_01471595
 BYTE   PATT
  POIN2 Label_BattleOne1_0147158E
 BYTE   PATT
  POIN2 Label_BattleOne1_01471595
 BYTE   PATT
  POIN2 Label_BattleOne1_0147159D
 BYTE   PATT
  POIN2 Label_BattleOne1_01471595
 BYTE   PATT
  POIN2 Label_BattleOne1_0147158E
 BYTE   PATT
  POIN2 Label_BattleOne1_01471595
 BYTE   PATT
  POIN2 Label_BattleOne1_0147159D
 BYTE   PATT
  POIN2 Label_BattleOne1_01471595
 BYTE   PATT
  POIN2 Label_BattleOne1_0147158E
 BYTE   PATT
  POIN2 Label_BattleOne1_01471595
// 049   ----------------------------------------
 BYTE   N12  Fs1  v127
 BYTE   W48
 BYTE   Dn1
 BYTE   W12
 BYTE   En1
 BYTE   W36
// 050   ----------------------------------------
 BYTE   Fs1
 BYTE   W36
 BYTE   N12
 BYTE   W12
 BYTE   En1
 BYTE   W24
 BYTE   Bn0
 BYTE   W24
 BYTE   PATT
  POIN2 Label_BattleOne1_0147143F
 BYTE   PATT
  POIN2 Label_BattleOne1_014713F2
 BYTE   PATT
  POIN2 Label_BattleOne1_014713FA
 BYTE   PATT
  POIN2 Label_BattleOne1_01471407
 BYTE   PATT
  POIN2 Label_BattleOne1_0147140F
 BYTE   PATT
  POIN2 Label_BattleOne1_0147141B
 BYTE   PATT
  POIN2 Label_BattleOne1_01471425
 BYTE   PATT
  POIN2 Label_BattleOne1_01471432
 BYTE   PATT
  POIN2 Label_BattleOne1_0147143F
 BYTE   PATT
  POIN2 Label_BattleOne1_0147144C
 BYTE   PATT
  POIN2 Label_BattleOne1_014713FA
 BYTE   PATT
  POIN2 Label_BattleOne1_01471407
 BYTE   PATT
  POIN2 Label_BattleOne1_01471460
 BYTE   PATT
  POIN2 Label_BattleOne1_01471469
 BYTE   PATT
  POIN2 Label_BattleOne1_01471425
 BYTE   PATT
  POIN2 Label_BattleOne1_01471478
// 051   ----------------------------------------
 BYTE   W06
 BYTE   GoTo
  POIN2 Label_BattleOne1_014713E4
 BYTE   FINE

//**************** Track 3 (Midi-Chn.2) ****************//

BattleOne_003:
// 000   ----------------------------------------
 BYTE   VOL   60*BattleOne_mvl/mxv
 BYTE   KEYSH   BattleOne_key+0
Label_BattleOne2_01471648:
 BYTE   VOICE   107
 BYTE   PAN   c_v-26
 BYTE   N24  Cs4  v127
 BYTE   W24
 BYTE   N12  Bn3
 BYTE   W12
 BYTE   Cs4
 BYTE   W12
 BYTE   N48  Fs3
 BYTE   W48
// 001   ----------------------------------------
Label_BattleOne2_01471658:
 BYTE   W24
 BYTE   N06  Bn3  v127
 BYTE   W24
 BYTE   Cs4
 BYTE   W24
 BYTE   Dn4
 BYTE   W24
 BYTE   PEND 
// 002   ----------------------------------------
Label_BattleOne2_01471662:
 BYTE   N24  Cs4  v127
 BYTE   W24
 BYTE   N12  Bn3
 BYTE   W12
 BYTE   Cs4
 BYTE   W12
 BYTE   N48  Fs3
 BYTE   W48
 BYTE   PEND 
 BYTE   PATT
  POIN2 Label_BattleOne2_01471658
// 003   ----------------------------------------
Label_BattleOne2_01471674:
 BYTE   N24  Fs4  v127
 BYTE   W24
 BYTE   N12  En4
 BYTE   W12
 BYTE   Fs4
 BYTE   W12
 BYTE   N48  Bn3
 BYTE   W48
 BYTE   PEND 
// 004   ----------------------------------------
Label_BattleOne2_01471681:
 BYTE   W24
 BYTE   N06  En4  v127
 BYTE   W24
 BYTE   An4
 BYTE   W24
 BYTE   Gn4
 BYTE   W24
 BYTE   PEND 
// 005   ----------------------------------------
Label_BattleOne2_0147168B:
 BYTE   N24  Fs4  v127
 BYTE   W24
 BYTE   N12  En4
 BYTE   W12
 BYTE   Fs4
 BYTE   W12
 BYTE   Bn3
 BYTE   W24
 BYTE   N36  An4
 BYTE   W24
 BYTE   PEND 
// 006   ----------------------------------------
Label_BattleOne2_0147169A:
 BYTE   W24
 BYTE   N06  Gn4  v127
 BYTE   W24
 BYTE   Fs4
 BYTE   W24
 BYTE   En4
 BYTE   W24
 BYTE   PEND 
 BYTE   PATT
  POIN2 Label_BattleOne2_01471662
 BYTE   PATT
  POIN2 Label_BattleOne2_01471658
// 007   ----------------------------------------
Label_BattleOne2_014716AE:
 BYTE   N24  Fs4  v127
 BYTE   W24
 BYTE   N12  En4
 BYTE   W12
 BYTE   Fs4
 BYTE   W12
 BYTE   N48  Cs4
 BYTE   W48
 BYTE   PEND 
// 008   ----------------------------------------
Label_BattleOne2_014716BB:
 BYTE   W24
 BYTE   N06  Dn4  v127
 BYTE   W24
 BYTE   En4
 BYTE   W24
 BYTE   Fs4
 BYTE   W24
 BYTE   PEND 
// 009   ----------------------------------------
Label_BattleOne2_014716C5:
 BYTE   N48  Bn4  v127
 BYTE   W48
 BYTE   Fs4
 BYTE   W48
 BYTE   PEND 
// 010   ----------------------------------------
Label_BattleOne2_014716CC:
 BYTE   N48  Bn3  v127
 BYTE   W48
 BYTE   Bn4
 BYTE   W48
 BYTE   PEND 
// 011   ----------------------------------------
Label_BattleOne2_014716D3:
 BYTE   N48  Fs4  v127
 BYTE   W48
 BYTE   Bn3
 BYTE   W48
 BYTE   PEND 
// 012   ----------------------------------------
Label_BattleOne2_014716DA:
 BYTE   N24  En4  v127
 BYTE   W24
 BYTE   Dn4
 BYTE   W24
 BYTE   Cs4
 BYTE   W24
 BYTE   N12  Dn4
 BYTE   W24
 BYTE   PEND 
// 013   ----------------------------------------
 BYTE   W96
// 014   ----------------------------------------
 BYTE   W96
// 015   ----------------------------------------
 BYTE   W96
// 016   ----------------------------------------
 BYTE   W96
// 017   ----------------------------------------
 BYTE   W96
// 018   ----------------------------------------
 BYTE   W96
// 019   ----------------------------------------
 BYTE   W96
// 020   ----------------------------------------
 BYTE   W96
// 021   ----------------------------------------
 BYTE   W96
// 022   ----------------------------------------
 BYTE   W96
// 023   ----------------------------------------
 BYTE   W96
// 024   ----------------------------------------
 BYTE   W96
// 025   ----------------------------------------
 BYTE   W96
// 026   ----------------------------------------
 BYTE   W96
// 027   ----------------------------------------
 BYTE   W96
// 028   ----------------------------------------
 BYTE   W96
// 029   ----------------------------------------
Label_BattleOne2_014716F6:
 BYTE   N12  Cs4  v127
 BYTE   W12
 BYTE   Bn3
 BYTE   W12
 BYTE   An3
 BYTE   W12
 BYTE   Bn3
 BYTE   W12
 BYTE   TIE  Cs4
 BYTE   W48
 BYTE   PEND 
// 030   ----------------------------------------
 BYTE   W96
// 031   ----------------------------------------
 BYTE   W48
 BYTE   EOT
 BYTE   N12  Dn4
 BYTE   W12
 BYTE   Cs4
 BYTE   W12
 BYTE   Bn3
 BYTE   W12
 BYTE   Cs4
 BYTE   W12
// 032   ----------------------------------------
Label_BattleOne2_01471710:
 BYTE   N48  Dn4  v127
 BYTE   W48
 BYTE   En4
 BYTE   W48
 BYTE   PEND 
// 033   ----------------------------------------
 BYTE   TIE  En3  v104
 BYTE   TIE  An3  v127
 BYTE   W96
// 034   ----------------------------------------
 BYTE   W24
 BYTE   EOT
 BYTE   En3  v069
 BYTE   N24  En3  v092
 BYTE   N24  An3  v127
 BYTE   W24
 BYTE   TIE  An3  v104
 BYTE   TIE  En4  v127
 BYTE   W48
// 035   ----------------------------------------
 BYTE   W72
 BYTE   EOT
 BYTE   An3  v076
 BYTE   W24
// 036   ----------------------------------------
 BYTE   W24
 BYTE   N06  Dn4
 BYTE   W24
 BYTE   Cs4
 BYTE   W24
 BYTE   An3
 BYTE   W24
 BYTE   PATT
  POIN2 Label_BattleOne2_014716F6
// 037   ----------------------------------------
 BYTE   W96
// 038   ----------------------------------------
 BYTE   W48
 BYTE   EOT
 BYTE   Cs4
 BYTE   N12  Dn4  v127
 BYTE   W12
 BYTE   Cs4
 BYTE   W12
 BYTE   Bn3
 BYTE   W12
 BYTE   Cs4
 BYTE   W12
 BYTE   PATT
  POIN2 Label_BattleOne2_01471710
// 039   ----------------------------------------
 BYTE   N48  En3  v116
 BYTE   N72  An3  v127
 BYTE   W48
 BYTE   N24  En3
 BYTE   W24
 BYTE   N72  En3  v116
 BYTE   N72  En4  v127
 BYTE   W24
// 040   ----------------------------------------
 BYTE   W48
 BYTE   TIE  En4  v104
 BYTE   TIE  An4  v127
 BYTE   W48
// 041   ----------------------------------------
 BYTE   W96
// 042   ----------------------------------------
 BYTE   EOT
 BYTE   En4  v081
 BYTE   W24
 BYTE   N06  An3
 BYTE   W24
 BYTE   N12  Cs3
 BYTE   W12
 BYTE   Fs3
 BYTE   W12
 BYTE   An3
 BYTE   W12
 BYTE   Bn3
 BYTE   W12
 BYTE   PATT
  POIN2 Label_BattleOne2_01471662
 BYTE   PATT
  POIN2 Label_BattleOne2_01471658
 BYTE   PATT
  POIN2 Label_BattleOne2_01471662
 BYTE   PATT
  POIN2 Label_BattleOne2_01471658
 BYTE   PATT
  POIN2 Label_BattleOne2_01471674
 BYTE   PATT
  POIN2 Label_BattleOne2_01471681
 BYTE   PATT
  POIN2 Label_BattleOne2_0147168B
 BYTE   PATT
  POIN2 Label_BattleOne2_0147169A
 BYTE   PATT
  POIN2 Label_BattleOne2_01471662
 BYTE   PATT
  POIN2 Label_BattleOne2_01471658
 BYTE   PATT
  POIN2 Label_BattleOne2_014716AE
 BYTE   PATT
  POIN2 Label_BattleOne2_014716BB
 BYTE   PATT
  POIN2 Label_BattleOne2_014716C5
// 043   ----------------------------------------
 BYTE   N48  Bn3  v127
 BYTE   W48
 BYTE   An4
 BYTE   W48
// 044   ----------------------------------------
 BYTE   TIE  Bn4
 BYTE   W96
// 045   ----------------------------------------
 BYTE   W96
// 046   ----------------------------------------
 BYTE   EOT
Label_BattleOne2_014717CB:
 BYTE   W48
 BYTE   TIE  En4  v127
 BYTE   W48
 BYTE   PEND 
// 047   ----------------------------------------
 BYTE   W60
 BYTE   EOT
 BYTE   W12
 BYTE   N06  Dn4
 BYTE   W24
// 048   ----------------------------------------
Label_BattleOne2_014717D7:
 BYTE   N06  Cs4  v127
 BYTE   W24
 BYTE   Bn3
 BYTE   W24
 BYTE   TIE  An3
 BYTE   W48
 BYTE   PEND 
// 049   ----------------------------------------
 BYTE   W60
 BYTE   EOT
 BYTE   W12
 BYTE   N12  Bn3
 BYTE   W24
// 050   ----------------------------------------
 BYTE   TIE  Fs3
 BYTE   W96
// 051   ----------------------------------------
 BYTE   W60
 BYTE   EOT
 BYTE   W12
 BYTE   N12  En3
 BYTE   W24
// 052   ----------------------------------------
 BYTE   TIE  An3
 BYTE   W96
// 053   ----------------------------------------
 BYTE   W96
// 054   ----------------------------------------
 BYTE   EOT
 BYTE   PATT
  POIN2 Label_BattleOne2_014717CB
// 055   ----------------------------------------
 BYTE   W60
 BYTE   EOT
 BYTE   En4
 BYTE   W12
 BYTE   N06  Dn4  v127
 BYTE   W24
 BYTE   PATT
  POIN2 Label_BattleOne2_014717D7
// 056   ----------------------------------------
 BYTE   W60
 BYTE   EOT
 BYTE   An3
 BYTE   W12
 BYTE   N12  Bn3  v127
 BYTE   W24
// 057   ----------------------------------------
 BYTE   TIE  Fs3
 BYTE   W96
// 058   ----------------------------------------
 BYTE   W60
 BYTE   EOT
 BYTE   W12
 BYTE   N12  En3
 BYTE   W24
// 059   ----------------------------------------
 BYTE   N96  An3
 BYTE   W96
// 060   ----------------------------------------
 BYTE   W24
 BYTE   N12  Dn3
 BYTE   W12
 BYTE   Fs3
 BYTE   W12
 BYTE   An3
 BYTE   W12
 BYTE   Bn3
 BYTE   W12
 BYTE   Cs4
 BYTE   W12
 BYTE   Dn4
 BYTE   W12
// 061   ----------------------------------------
Label_BattleOne2_01471829:
 BYTE   N24  Fs4  v127
 BYTE   W24
 BYTE   N12  En4
 BYTE   W12
 BYTE   Fs4
 BYTE   W12
 BYTE   N60  Bn3
 BYTE   W48
 BYTE   PEND 
 BYTE   PATT
  POIN2 Label_BattleOne2_01471681
// 062   ----------------------------------------
Label_BattleOne2_0147183B:
 BYTE   N24  Fs4  v127
 BYTE   W24
 BYTE   N12  En4
 BYTE   W12
 BYTE   Dn4
 BYTE   W12
 BYTE   N60  Cs4
 BYTE   W48
 BYTE   PEND 
// 063   ----------------------------------------
Label_BattleOne2_01471848:
 BYTE   W24
 BYTE   N12  Cs4  v127
 BYTE   W24
 BYTE   Dn4
 BYTE   W24
 BYTE   Fs4
 BYTE   W24
 BYTE   PEND 
// 064   ----------------------------------------
 BYTE   N24  Bn4
 BYTE   W24
 BYTE   N12  An4
 BYTE   W12
 BYTE   Bn4
 BYTE   W12
 BYTE   N60  Fs4
 BYTE   W48
// 065   ----------------------------------------
 BYTE   W24
 BYTE   N12  Bn4
 BYTE   W24
 BYTE   En5
 BYTE   W24
 BYTE   Dn5
 BYTE   W24
// 066   ----------------------------------------
 BYTE   N24  Cs5
 BYTE   W24
 BYTE   N12  Bn4
 BYTE   W12
 BYTE   An4
 BYTE   W12
 BYTE   N96  Fs4
 BYTE   W48
// 067   ----------------------------------------
 BYTE   W48
 BYTE   N48  En4
 BYTE   W48
 BYTE   PATT
  POIN2 Label_BattleOne2_01471829
 BYTE   PATT
  POIN2 Label_BattleOne2_01471681
 BYTE   PATT
  POIN2 Label_BattleOne2_0147183B
 BYTE   PATT
  POIN2 Label_BattleOne2_01471848
// 068   ----------------------------------------
 BYTE   N48  Dn4  v127
 BYTE   N48  Bn4
 BYTE   W48
 BYTE   Bn3
 BYTE   N48  Fs4
 BYTE   W48
// 069   ----------------------------------------
 BYTE   Fs3
 BYTE   W48
 BYTE   En3
 BYTE   N48  An3
 BYTE   W48
// 070   ----------------------------------------
 BYTE   N96  En3
 BYTE   N96  Bn3
 BYTE   W96
// 071   ----------------------------------------
 BYTE   An3
 BYTE   N96  En4
 BYTE   W96
 BYTE   PATT
  POIN2 Label_BattleOne2_01471662
 BYTE   PATT
  POIN2 Label_BattleOne2_01471658
 BYTE   PATT
  POIN2 Label_BattleOne2_01471662
 BYTE   PATT
  POIN2 Label_BattleOne2_01471658
 BYTE   PATT
  POIN2 Label_BattleOne2_01471674
 BYTE   PATT
  POIN2 Label_BattleOne2_01471681
 BYTE   PATT
  POIN2 Label_BattleOne2_0147168B
 BYTE   PATT
  POIN2 Label_BattleOne2_0147169A
 BYTE   PATT
  POIN2 Label_BattleOne2_01471662
 BYTE   PATT
  POIN2 Label_BattleOne2_01471658
 BYTE   PATT
  POIN2 Label_BattleOne2_014716AE
 BYTE   PATT
  POIN2 Label_BattleOne2_014716BB
 BYTE   PATT
  POIN2 Label_BattleOne2_014716C5
 BYTE   PATT
  POIN2 Label_BattleOne2_014716CC
 BYTE   PATT
  POIN2 Label_BattleOne2_014716D3
 BYTE   PATT
  POIN2 Label_BattleOne2_014716DA
// 072   ----------------------------------------
 BYTE   W06
 BYTE   GoTo
  POIN2 Label_BattleOne2_01471648
 BYTE   FINE

//**************** Track 4 (Midi-Chn.3) ****************//

BattleOne_004:
// 000   ----------------------------------------
 BYTE   VOL   60*BattleOne_mvl/mxv
 BYTE   KEYSH   BattleOne_key+0
Label_BattleOne3_014718FC:
 BYTE   VOICE   46
 BYTE   W96
// 001   ----------------------------------------
 BYTE   W96
// 002   ----------------------------------------
 BYTE   W96
// 003   ----------------------------------------
 BYTE   W96
// 004   ----------------------------------------
 BYTE   W96
// 005   ----------------------------------------
 BYTE   W96
// 006   ----------------------------------------
 BYTE   W96
// 007   ----------------------------------------
 BYTE   W96
// 008   ----------------------------------------
 BYTE   W96
// 009   ----------------------------------------
 BYTE   W96
// 010   ----------------------------------------
 BYTE   W96
// 011   ----------------------------------------
 BYTE   W96
// 012   ----------------------------------------
Label_BattleOne3_0147190A:
 BYTE   N24  Bn4  v127
 BYTE   W48
 BYTE   Fs4
 BYTE   W48
 BYTE   PEND 
// 013   ----------------------------------------
Label_BattleOne3_01471911:
 BYTE   N24  Bn3  v127
 BYTE   W48
 BYTE   Bn4
 BYTE   W48
 BYTE   PEND 
// 014   ----------------------------------------
Label_BattleOne3_01471918:
 BYTE   N24  Fs4  v127
 BYTE   W48
 BYTE   Bn3
 BYTE   W48
 BYTE   PEND 
// 015   ----------------------------------------
Label_BattleOne3_0147191F:
 BYTE   N12  En4  v127
 BYTE   W24
 BYTE   Dn4
 BYTE   W24
 BYTE   Cs4
 BYTE   W24
 BYTE   Dn4
 BYTE   W24
 BYTE   PEND 
// 016   ----------------------------------------
 BYTE   W48
 BYTE   N24  Dn5
 BYTE   W48
// 017   ----------------------------------------
 BYTE   N12  Bn4
 BYTE   W24
 BYTE   Bn4  v116
 BYTE   W24
 BYTE   An4
 BYTE   W24
 BYTE   N48  Fs4  v127
 BYTE   W24
// 018   ----------------------------------------
 BYTE   W24
 BYTE   N12  Bn4
 BYTE   W12
 BYTE   An4  v104
 BYTE   W12
 BYTE   Bn4  v127
 BYTE   W48
// 019   ----------------------------------------
 BYTE   W48
 BYTE   N12
 BYTE   W12
 BYTE   An4  v104
 BYTE   W12
 BYTE   N24  Bn4
 BYTE   W24
// 020   ----------------------------------------
 BYTE   N12  Fs5  v127
 BYTE   N12  An5
 BYTE   W72
 BYTE   Fs5
 BYTE   N12  An5
 BYTE   W24
// 021   ----------------------------------------
 BYTE   Bn4
 BYTE   W12
 BYTE   An4
 BYTE   W12
 BYTE   Bn4
 BYTE   W48
 BYTE   Fs5
 BYTE   N12  An5
 BYTE   W24
// 022   ----------------------------------------
 BYTE   W24
 BYTE   Bn4
 BYTE   W12
 BYTE   An4
 BYTE   W12
 BYTE   Bn4
 BYTE   W48
// 023   ----------------------------------------
 BYTE   W24
 BYTE   An5
 BYTE   W12
 BYTE   Dn5
 BYTE   W12
 BYTE   Bn4
 BYTE   W12
 BYTE   An4
 BYTE   W12
 BYTE   Bn4
 BYTE   W24
// 024   ----------------------------------------
 BYTE   N12
 BYTE   W24
 BYTE   An4
 BYTE   W24
 BYTE   Bn4
 BYTE   W24
 BYTE   Bn3  v104
 BYTE   W24
// 025   ----------------------------------------
 BYTE   Bn4
 BYTE   W12
 BYTE   An4
 BYTE   W12
 BYTE   En4  v116
 BYTE   N12  Bn4  v104
 BYTE   W48
 BYTE   Dn4  v127
 BYTE   W24
// 026   ----------------------------------------
 BYTE   W24
 BYTE   Bn4  v104
 BYTE   W12
 BYTE   An4
 BYTE   W12
 BYTE   Bn4
 BYTE   W24
 BYTE   N24  Cs4
 BYTE   N24  En4  v127
 BYTE   W24
// 027   ----------------------------------------
 BYTE   W24
 BYTE   N12  En4  v116
 BYTE   W24
 BYTE   Bn4  v104
 BYTE   W12
 BYTE   An4  v092
 BYTE   W12
 BYTE   Bn4  v104
 BYTE   W24
// 028   ----------------------------------------
 BYTE   N24  An3  v127
 BYTE   W48
 BYTE   N12  Bn3
 BYTE   N12  En4
 BYTE   W24
 BYTE   An3
 BYTE   W24
// 029   ----------------------------------------
 BYTE   Bn4  v104
 BYTE   W12
 BYTE   An4
 BYTE   W12
 BYTE   Bn3
 BYTE   N12  En4  v127
 BYTE   N12  Bn4  v092
 BYTE   W48
 BYTE   Fs4  v127
 BYTE   N12  An4
 BYTE   W24
// 030   ----------------------------------------
 BYTE   W12
 BYTE   En4
 BYTE   W12
 BYTE   Fs4
 BYTE   N12  Bn4  v104
 BYTE   W12
 BYTE   An4  v092
 BYTE   W12
 BYTE   Dn4  v127
 BYTE   N12  An4
 BYTE   N12  Bn4  v104
 BYTE   W48
// 031   ----------------------------------------
 BYTE   An4  v127
 BYTE   W24
 BYTE   N12
 BYTE   W24
 BYTE   En4
 BYTE   N12  Bn4  v104
 BYTE   W12
 BYTE   Dn4  v127
 BYTE   N12  An4  v092
 BYTE   W12
 BYTE   Cs4  v127
 BYTE   N12  Bn4  v104
 BYTE   W12
 BYTE   An3  v127
 BYTE   W12
// 032   ----------------------------------------
 BYTE   W72
 BYTE   Bn4
 BYTE   N12  Dn5
 BYTE   W24
// 033   ----------------------------------------
 BYTE   Bn4
 BYTE   W12
 BYTE   An4  v092
 BYTE   W12
 BYTE   Bn4  v127
 BYTE   W24
 BYTE   Dn5
 BYTE   W24
 BYTE   En5
 BYTE   W24
// 034   ----------------------------------------
 BYTE   W24
 BYTE   Bn4
 BYTE   N12  En5
 BYTE   W12
 BYTE   An4  v092
 BYTE   W12
 BYTE   Bn4  v127
 BYTE   N12  En5
 BYTE   W24
 BYTE   N12
 BYTE   W24
// 035   ----------------------------------------
 BYTE   N12
 BYTE   W24
 BYTE   An4  v104
 BYTE   W12
 BYTE   An5
 BYTE   W12
 BYTE   An4  v116
 BYTE   W12
 BYTE   An5
 BYTE   W12
 BYTE   An4  v127
 BYTE   W24
// 036   ----------------------------------------
 BYTE   N24  En5
 BYTE   N24  An5
 BYTE   W72
 BYTE   N12  En5
 BYTE   N12  An5
 BYTE   W24
// 037   ----------------------------------------
 BYTE   Bn4  v104
 BYTE   W12
 BYTE   An4  v092
 BYTE   W12
 BYTE   Bn4  v104
 BYTE   W48
 BYTE   En5  v127
 BYTE   N12  An5
 BYTE   W24
// 038   ----------------------------------------
 BYTE   W24
 BYTE   Bn4  v104
 BYTE   W12
 BYTE   An4  v092
 BYTE   W12
 BYTE   Bn4  v116
 BYTE   W12
 BYTE   Dn5  v127
 BYTE   W36
// 039   ----------------------------------------
 BYTE   N12
 BYTE   W12
 BYTE   Cs5
 BYTE   W12
 BYTE   Bn4
 BYTE   W12
 BYTE   An4
 BYTE   W12
 BYTE   Bn4
 BYTE   W12
 BYTE   An4
 BYTE   W12
 BYTE   Bn4
 BYTE   W12
 BYTE   En5
 BYTE   W12
// 040   ----------------------------------------
 BYTE   W36
 BYTE   Dn5
 BYTE   W12
 BYTE   En5
 BYTE   W24
 BYTE   Bn4
 BYTE   W12
 BYTE   An4
 BYTE   W12
// 041   ----------------------------------------
 BYTE   Bn4
 BYTE   W12
 BYTE   Dn5
 BYTE   W12
 BYTE   En5
 BYTE   W24
 BYTE   Bn4
 BYTE   W12
 BYTE   An4
 BYTE   W12
 BYTE   Bn4
 BYTE   W12
 BYTE   Dn5
 BYTE   W12
// 042   ----------------------------------------
 BYTE   En5
 BYTE   W24
 BYTE   Bn4
 BYTE   W12
 BYTE   An4
 BYTE   W12
 BYTE   Bn4
 BYTE   W12
 BYTE   Dn5
 BYTE   W12
 BYTE   En5
 BYTE   W24
// 043   ----------------------------------------
 BYTE   Fs4
 BYTE   W12
 BYTE   An4
 BYTE   W12
 BYTE   Bn4
 BYTE   W12
 BYTE   Dn5
 BYTE   W12
 BYTE   En5
 BYTE   W12
 BYTE   Dn5
 BYTE   W12
 BYTE   Bn4
 BYTE   W12
 BYTE   An4
 BYTE   W12
// 044   ----------------------------------------
 BYTE   Cs5
 BYTE   W12
 BYTE   Dn5
 BYTE   W12
 BYTE   En5
 BYTE   W12
 BYTE   Bn4
 BYTE   W12
 BYTE   Gs4
 BYTE   W12
 BYTE   An4
 BYTE   W12
 BYTE   Fs4
 BYTE   W24
// 045   ----------------------------------------
 BYTE   N12
 BYTE   N12  Bn4  v104
 BYTE   W12
 BYTE   En4  v127
 BYTE   N12  An4  v104
 BYTE   W12
 BYTE   Dn4  v127
 BYTE   N12  Bn4  v104
 BYTE   W24
 BYTE   En4  v127
 BYTE   W12
 BYTE   Dn4
 BYTE   W12
 BYTE   Cs4
 BYTE   W24
// 046   ----------------------------------------
 BYTE   W24
 BYTE   Fs4
 BYTE   N12  Bn4  v104
 BYTE   W12
 BYTE   An4
 BYTE   W12
 BYTE   En4  v127
 BYTE   N12  Bn4  v104
 BYTE   W12
 BYTE   Cs4
 BYTE   N12  An4
 BYTE   W36
// 047   ----------------------------------------
 BYTE   Fs5  v127
 BYTE   W12
 BYTE   N06  An4
 BYTE   W06
 BYTE   Gn4
 BYTE   W06
 BYTE   Fn4
 BYTE   W06
 BYTE   En4
 BYTE   W06
 BYTE   Dn4
 BYTE   W06
 BYTE   Cn4
 BYTE   W06
 BYTE   Bn3
 BYTE   W06
 BYTE   An3
 BYTE   W42
// 048   ----------------------------------------
 BYTE   W96
// 049   ----------------------------------------
 BYTE   W96
// 050   ----------------------------------------
 BYTE   W96
// 051   ----------------------------------------
 BYTE   W96
// 052   ----------------------------------------
 BYTE   W96
// 053   ----------------------------------------
 BYTE   W96
// 054   ----------------------------------------
 BYTE   W96
// 055   ----------------------------------------
 BYTE   W96
// 056   ----------------------------------------
 BYTE   W96
// 057   ----------------------------------------
 BYTE   W96
// 058   ----------------------------------------
 BYTE   W96
// 059   ----------------------------------------
 BYTE   W96
 BYTE   PATT
  POIN2 Label_BattleOne3_0147190A
 BYTE   PATT
  POIN2 Label_BattleOne3_01471911
 BYTE   PATT
  POIN2 Label_BattleOne3_01471918
 BYTE   PATT
  POIN2 Label_BattleOne3_0147191F
// 060   ----------------------------------------
Label_BattleOne3_01471AF1:
 BYTE   W24
 BYTE   N12  Bn3  v127
 BYTE   W12
 BYTE   An3
 BYTE   W24
 BYTE   Cs4
 BYTE   W12
 BYTE   Dn4
 BYTE   W12
 BYTE   Cs4
 BYTE   W12
 BYTE   PEND 
// 061   ----------------------------------------
Label_BattleOne3_01471AFF:
 BYTE   N12  Fs4  v127
 BYTE   W12
 BYTE   An4
 BYTE   W12
 BYTE   Cs5
 BYTE   W12
 BYTE   Dn5
 BYTE   W12
 BYTE   Cs5
 BYTE   N12  Fs5
 BYTE   W48
 BYTE   PEND 
// 062   ----------------------------------------
Label_BattleOne3_01471B0E:
 BYTE   W24
 BYTE   N12  Cs5  v127
 BYTE   W12
 BYTE   Dn5
 BYTE   W12
 BYTE   Fs5
 BYTE   W12
 BYTE   Dn5
 BYTE   W12
 BYTE   Cs5
 BYTE   W12
 BYTE   Bn4
 BYTE   W12
 BYTE   PEND 
// 063   ----------------------------------------
Label_BattleOne3_01471B1E:
 BYTE   N12  Fs4  v127
 BYTE   W12
 BYTE   En4
 BYTE   W12
 BYTE   Fs4
 BYTE   W12
 BYTE   Cs4
 BYTE   W24
 BYTE   N12
 BYTE   W36
 BYTE   PEND 
// 064   ----------------------------------------
 BYTE   N06  An4
 BYTE   N06  Bn4
 BYTE   W24
 BYTE   An4
 BYTE   W24
 BYTE   N12
 BYTE   W12
 BYTE   Cs5
 BYTE   W12
 BYTE   Fs5
 BYTE   W24
// 065   ----------------------------------------
 BYTE   W96
// 066   ----------------------------------------
 BYTE   W24
 BYTE   Cs5
 BYTE   W12
 BYTE   Dn5
 BYTE   W12
 BYTE   Cs5
 BYTE   W12
 BYTE   Bn4
 BYTE   W12
 BYTE   Cs5
 BYTE   W24
// 067   ----------------------------------------
 BYTE   En4
 BYTE   W36
 BYTE   Fs4
 BYTE   W36
 BYTE   An4
 BYTE   W24
 BYTE   PATT
  POIN2 Label_BattleOne3_01471AF1
 BYTE   PATT
  POIN2 Label_BattleOne3_01471AFF
 BYTE   PATT
  POIN2 Label_BattleOne3_01471B0E
 BYTE   PATT
  POIN2 Label_BattleOne3_01471B1E
// 068   ----------------------------------------
 BYTE   W24
 BYTE   N12  Fs4  v127
 BYTE   W12
 BYTE   Dn4
 BYTE   N12  Bn4
 BYTE   W24
 BYTE   Fs4
 BYTE   W24
 BYTE   An4
 BYTE   W12
// 069   ----------------------------------------
 BYTE   W12
 BYTE   An4  v116
 BYTE   W24
 BYTE   An4  v127
 BYTE   W12
 BYTE   En4  v104
 BYTE   N12  An4  v127
 BYTE   W24
 BYTE   N12
 BYTE   W24
// 070   ----------------------------------------
 BYTE   W24
 BYTE   N06  An3
 BYTE   N06  Dn4
 BYTE   W48
 BYTE   Bn3
 BYTE   N06  Fs4
 BYTE   W12
 BYTE   N12  Dn4
 BYTE   W12
// 071   ----------------------------------------
 BYTE   Bn3
 BYTE   N12  Fs4
 BYTE   W12
 BYTE   Dn4
 BYTE   W12
 BYTE   An3
 BYTE   W12
 BYTE   En4
 BYTE   N12  An4
 BYTE   W12
 BYTE   Fs4
 BYTE   W12
 BYTE   En4
 BYTE   N12  Gn4  v104
 BYTE   W12
 BYTE   Cs4  v127
 BYTE   N12  Fs4  v104
 BYTE   W24
// 072   ----------------------------------------
 BYTE   W96
// 073   ----------------------------------------
 BYTE   W96
// 074   ----------------------------------------
 BYTE   W96
// 075   ----------------------------------------
 BYTE   W96
// 076   ----------------------------------------
 BYTE   W96
// 077   ----------------------------------------
 BYTE   W96
// 078   ----------------------------------------
 BYTE   W96
// 079   ----------------------------------------
 BYTE   W96
// 080   ----------------------------------------
 BYTE   W96
// 081   ----------------------------------------
 BYTE   W96
// 082   ----------------------------------------
 BYTE   W96
// 083   ----------------------------------------
 BYTE   W96
// 084   ----------------------------------------
 BYTE   W96
// 085   ----------------------------------------
 BYTE   W96
// 086   ----------------------------------------
 BYTE   W96
// 087   ----------------------------------------
 BYTE   W96
// 088   ----------------------------------------
 BYTE   W96
// 089   ----------------------------------------
 BYTE   W96
// 090   ----------------------------------------
 BYTE   W96
// 091   ----------------------------------------
 BYTE   W96
// 092   ----------------------------------------
 BYTE   W96
// 093   ----------------------------------------
 BYTE   W96
// 094   ----------------------------------------
 BYTE   W96
// 095   ----------------------------------------
 BYTE   W96
// 096   ----------------------------------------
 BYTE   W96
// 097   ----------------------------------------
 BYTE   W96
// 098   ----------------------------------------
 BYTE   W96
// 099   ----------------------------------------
 BYTE   W96
 BYTE   PATT
  POIN2 Label_BattleOne3_0147190A
 BYTE   PATT
  POIN2 Label_BattleOne3_01471911
 BYTE   PATT
  POIN2 Label_BattleOne3_01471918
 BYTE   PATT
  POIN2 Label_BattleOne3_0147191F
// 100   ----------------------------------------
 BYTE   W06
 BYTE   GoTo
  POIN2 Label_BattleOne3_014718FC
 BYTE   FINE

//**************** Track 5 (Midi-Chn.4) ****************//

BattleOne_005:
// 000   ----------------------------------------
 BYTE   VOL   60*BattleOne_mvl/mxv
 BYTE   KEYSH   BattleOne_key+0
Label_BattleOne4_01471BDC:
 BYTE   VOICE   0
 BYTE   W96
// 001   ----------------------------------------
 BYTE   W96
// 002   ----------------------------------------
 BYTE   W96
// 003   ----------------------------------------
 BYTE   W96
// 004   ----------------------------------------
 BYTE   W96
// 005   ----------------------------------------
 BYTE   W96
// 006   ----------------------------------------
 BYTE   W96
// 007   ----------------------------------------
 BYTE   W96
// 008   ----------------------------------------
 BYTE   W96
// 009   ----------------------------------------
 BYTE   W96
// 010   ----------------------------------------
 BYTE   W96
// 011   ----------------------------------------
 BYTE   W96
// 012   ----------------------------------------
 BYTE   W96
// 013   ----------------------------------------
 BYTE   W96
// 014   ----------------------------------------
 BYTE   W96
// 015   ----------------------------------------
 BYTE   W96
// 016   ----------------------------------------
 BYTE   W96
// 017   ----------------------------------------
 BYTE   W96
// 018   ----------------------------------------
 BYTE   W96
// 019   ----------------------------------------
 BYTE   W96
// 020   ----------------------------------------
 BYTE   W96
// 021   ----------------------------------------
 BYTE   W96
// 022   ----------------------------------------
 BYTE   W96
// 023   ----------------------------------------
 BYTE   W96
// 024   ----------------------------------------
 BYTE   W96
// 025   ----------------------------------------
 BYTE   W96
// 026   ----------------------------------------
 BYTE   W96
// 027   ----------------------------------------
 BYTE   W96
// 028   ----------------------------------------
 BYTE   W96
// 029   ----------------------------------------
 BYTE   W96
// 030   ----------------------------------------
 BYTE   W96
// 031   ----------------------------------------
 BYTE   W96
// 032   ----------------------------------------
 BYTE   W96
// 033   ----------------------------------------
 BYTE   W96
// 034   ----------------------------------------
 BYTE   W96
// 035   ----------------------------------------
 BYTE   W96
// 036   ----------------------------------------
 BYTE   W96
// 037   ----------------------------------------
 BYTE   W96
// 038   ----------------------------------------
 BYTE   W96
// 039   ----------------------------------------
 BYTE   W96
// 040   ----------------------------------------
 BYTE   W96
// 041   ----------------------------------------
 BYTE   W96
// 042   ----------------------------------------
 BYTE   W96
// 043   ----------------------------------------
 BYTE   W96
// 044   ----------------------------------------
 BYTE   W96
// 045   ----------------------------------------
 BYTE   W96
// 046   ----------------------------------------
 BYTE   W96
// 047   ----------------------------------------
 BYTE   W96
// 048   ----------------------------------------
 BYTE   W96
// 049   ----------------------------------------
 BYTE   W96
// 050   ----------------------------------------
 BYTE   W96
// 051   ----------------------------------------
 BYTE   W96
// 052   ----------------------------------------
 BYTE   W96
// 053   ----------------------------------------
 BYTE   W96
// 054   ----------------------------------------
 BYTE   W96
// 055   ----------------------------------------
 BYTE   W96
// 056   ----------------------------------------
 BYTE   W96
// 057   ----------------------------------------
 BYTE   W96
// 058   ----------------------------------------
 BYTE   W96
// 059   ----------------------------------------
 BYTE   W96
// 060   ----------------------------------------
 BYTE   W96
// 061   ----------------------------------------
 BYTE   W96
// 062   ----------------------------------------
 BYTE   W96
// 063   ----------------------------------------
 BYTE   W96
// 064   ----------------------------------------
Label_BattleOne4_01471C1E:
 BYTE   W24
 BYTE   N03  An1  v127
 BYTE   N03  Cs2
 BYTE   W24
 BYTE   N12  Dn2
 BYTE   W12
 BYTE   N02  An1
 BYTE   N02  Cs2
 BYTE   W24
 BYTE   Bn1
 BYTE   N02  Dn2
 BYTE   W12
 BYTE   PEND 
// 065   ----------------------------------------
Label_BattleOne4_01471C32:
 BYTE   W12
 BYTE   N06  An1  v127
 BYTE   N06  Cs2
 BYTE   W24
 BYTE   An1
 BYTE   N06  Cs2
 BYTE   W12
 BYTE   An1
 BYTE   N06  Cs2
 BYTE   W24
 BYTE   An1
 BYTE   N06  Cs2
 BYTE   W24
 BYTE   PEND 
// 066   ----------------------------------------
Label_BattleOne4_01471C46:
 BYTE   W24
 BYTE   N06  Bn1  v127
 BYTE   N06  Dn2
 BYTE   W24
 BYTE   N12  Cs2
 BYTE   W12
 BYTE   N06  Bn1
 BYTE   N06  Dn2
 BYTE   W24
 BYTE   An1
 BYTE   N06  Cs2
 BYTE   W12
 BYTE   PEND 
 BYTE   PATT
  POIN2 Label_BattleOne4_01471C32
 BYTE   PATT
  POIN2 Label_BattleOne4_01471C46
 BYTE   PATT
  POIN2 Label_BattleOne4_01471C32
 BYTE   PATT
  POIN2 Label_BattleOne4_01471C46
 BYTE   PATT
  POIN2 Label_BattleOne4_01471C32
 BYTE   PATT
  POIN2 Label_BattleOne4_01471C1E
 BYTE   PATT
  POIN2 Label_BattleOne4_01471C32
 BYTE   PATT
  POIN2 Label_BattleOne4_01471C46
 BYTE   PATT
  POIN2 Label_BattleOne4_01471C32
 BYTE   PATT
  POIN2 Label_BattleOne4_01471C46
 BYTE   PATT
  POIN2 Label_BattleOne4_01471C32
 BYTE   PATT
  POIN2 Label_BattleOne4_01471C46
 BYTE   PATT
  POIN2 Label_BattleOne4_01471C32
// 067   ----------------------------------------
 BYTE   W96
// 068   ----------------------------------------
 BYTE   W96
// 069   ----------------------------------------
 BYTE   W96
// 070   ----------------------------------------
 BYTE   W96
// 071   ----------------------------------------
 BYTE   W96
// 072   ----------------------------------------
 BYTE   W96
// 073   ----------------------------------------
 BYTE   W96
// 074   ----------------------------------------
 BYTE   W96
// 075   ----------------------------------------
 BYTE   W96
// 076   ----------------------------------------
 BYTE   W96
// 077   ----------------------------------------
 BYTE   W96
// 078   ----------------------------------------
 BYTE   W96
// 079   ----------------------------------------
 BYTE   W96
// 080   ----------------------------------------
 BYTE   W96
// 081   ----------------------------------------
 BYTE   W96
// 082   ----------------------------------------
 BYTE   W96
// 083   ----------------------------------------
 BYTE   W96
// 084   ----------------------------------------
 BYTE   W96
// 085   ----------------------------------------
 BYTE   W96
// 086   ----------------------------------------
 BYTE   W96
// 087   ----------------------------------------
 BYTE   W96
// 088   ----------------------------------------
 BYTE   W96
// 089   ----------------------------------------
 BYTE   W96
// 090   ----------------------------------------
 BYTE   W96
// 091   ----------------------------------------
 BYTE   W96
// 092   ----------------------------------------
 BYTE   W96
// 093   ----------------------------------------
 BYTE   W96
// 094   ----------------------------------------
 BYTE   W96
// 095   ----------------------------------------
 BYTE   W96
// 096   ----------------------------------------
 BYTE   W96
// 097   ----------------------------------------
 BYTE   W96
// 098   ----------------------------------------
 BYTE   W96
// 099   ----------------------------------------
 BYTE   W06
 BYTE   GoTo
  POIN2 Label_BattleOne4_01471BDC
 BYTE   FINE

//**************** Track 6 (Midi-Chn.5) ****************//

BattleOne_006:
// 000   ----------------------------------------
 BYTE   VOL   60*BattleOne_mvl/mxv
 BYTE   KEYSH   BattleOne_key+0
Label_BattleOne5_01471CC8:
 BYTE   VOICE   124
 BYTE   N06  Cn1  v127
 BYTE   N06  Cs2
 BYTE   W24
 BYTE   Gs1
 BYTE   W12
 BYTE   Cn1
 BYTE   W12
 BYTE   En1
 BYTE   W24
 BYTE   Cn1
 BYTE   N06  Gs1
 BYTE   W24
// 001   ----------------------------------------
Label_BattleOne5_01471CDA:
 BYTE   W24
 BYTE   N06  Cn1  v127
 BYTE   N06  Gs1
 BYTE   W24
 BYTE   En1
 BYTE   W24
 BYTE   Gs1
 BYTE   W24
 BYTE   PEND 
// 002   ----------------------------------------
Label_BattleOne5_01471CE6:
 BYTE   N06  Cn1  v127
 BYTE   W24
 BYTE   Gs1
 BYTE   W24
 BYTE   En1
 BYTE   W24
 BYTE   Cn1
 BYTE   N06  Gs1
 BYTE   W24
 BYTE   PEND 
 BYTE   PATT
  POIN2 Label_BattleOne5_01471CDA
// 003   ----------------------------------------
Label_BattleOne5_01471CF8:
 BYTE   N06  Cn1  v127
 BYTE   W24
 BYTE   Gs1
 BYTE   W12
 BYTE   Cn1
 BYTE   W12
 BYTE   En1
 BYTE   W24
 BYTE   Cn1
 BYTE   N06  Gs1
 BYTE   W24
 BYTE   PEND 
 BYTE   PATT
  POIN2 Label_BattleOne5_01471CDA
 BYTE   PATT
  POIN2 Label_BattleOne5_01471CE6
 BYTE   PATT
  POIN2 Label_BattleOne5_01471CDA
 BYTE   PATT
  POIN2 Label_BattleOne5_01471CF8
 BYTE   PATT
  POIN2 Label_BattleOne5_01471CDA
 BYTE   PATT
  POIN2 Label_BattleOne5_01471CE6
 BYTE   PATT
  POIN2 Label_BattleOne5_01471CDA
 BYTE   PATT
  POIN2 Label_BattleOne5_01471CF8
 BYTE   PATT
  POIN2 Label_BattleOne5_01471CDA
// 004   ----------------------------------------
Label_BattleOne5_01471D34:
 BYTE   W24
 BYTE   N06  Cn1  v127
 BYTE   N06  Gs1
 BYTE   W24
 BYTE   En1
 BYTE   W24
 BYTE   Cn1
 BYTE   N06  Gs1
 BYTE   W24
 BYTE   PEND 
// 005   ----------------------------------------
Label_BattleOne5_01471D42:
 BYTE   N06  En1  v127
 BYTE   N06  Gs1
 BYTE   W12
 BYTE   En1
 BYTE   W12
 BYTE   Cn1
 BYTE   W12
 BYTE   Gs1
 BYTE   W12
 BYTE   En1
 BYTE   W12
 BYTE   N06
 BYTE   W12
 BYTE   Cn1
 BYTE   N06  Gs1
 BYTE   W24
 BYTE   PEND 
// 006   ----------------------------------------
Label_BattleOne5_01471D57:
 BYTE   N06  Cs2  v127
 BYTE   W24
 BYTE   Gs1
 BYTE   W24
 BYTE   En1
 BYTE   W24
 BYTE   Gs1
 BYTE   W24
 BYTE   PEND 
// 007   ----------------------------------------
Label_BattleOne5_01471D62:
 BYTE   N06  Gs1  v127
 BYTE   W24
 BYTE   En1
 BYTE   W48
 BYTE   N06
 BYTE   N06  Gs1
 BYTE   W24
 BYTE   PEND 
// 008   ----------------------------------------
Label_BattleOne5_01471D6D:
 BYTE   W24
 BYTE   N06  En1  v127
 BYTE   W24
 BYTE   N06
 BYTE   W24
 BYTE   Gs1
 BYTE   W24
 BYTE   PEND 
// 009   ----------------------------------------
Label_BattleOne5_01471D77:
 BYTE   N06  Gs1  v127
 BYTE   W48
 BYTE   En1
 BYTE   N06  Gs1
 BYTE   W24
 BYTE   N06
 BYTE   W24
 BYTE   PEND 
// 010   ----------------------------------------
Label_BattleOne5_01471D82:
 BYTE   N06  Cn1  v127
 BYTE   N06  Gs1
 BYTE   W36
 BYTE   N06
 BYTE   W12
 BYTE   En1
 BYTE   W48
 BYTE   PEND 
// 011   ----------------------------------------
Label_BattleOne5_01471D8D:
 BYTE   N06  Gs1  v127
 BYTE   W24
 BYTE   En1
 BYTE   W12
 BYTE   Gs1
 BYTE   W36
 BYTE   N06
 BYTE   W24
 BYTE   PEND 
// 012   ----------------------------------------
Label_BattleOne5_01471D98:
 BYTE   W48
 BYTE   N06  En1  v127
 BYTE   N06  Gs1
 BYTE   W24
 BYTE   N06
 BYTE   W24
 BYTE   PEND 
// 013   ----------------------------------------
Label_BattleOne5_01471DA2:
 BYTE   N06  Gs1  v127
 BYTE   W24
 BYTE   En1
 BYTE   W12
 BYTE   Gs1
 BYTE   W36
 BYTE   En1
 BYTE   N06  Gs1
 BYTE   W24
 BYTE   PEND 
// 014   ----------------------------------------
 BYTE   W24
 BYTE   N06
 BYTE   W24
 BYTE   En1
 BYTE   W24
 BYTE   Gs1
 BYTE   W24
 BYTE   PATT
  POIN2 Label_BattleOne5_01471D62
 BYTE   PATT
  POIN2 Label_BattleOne5_01471D6D
 BYTE   PATT
  POIN2 Label_BattleOne5_01471D77
 BYTE   PATT
  POIN2 Label_BattleOne5_01471D82
 BYTE   PATT
  POIN2 Label_BattleOne5_01471D8D
 BYTE   PATT
  POIN2 Label_BattleOne5_01471D98
 BYTE   PATT
  POIN2 Label_BattleOne5_01471DA2
 BYTE   PATT
  POIN2 Label_BattleOne5_01471D57
 BYTE   PATT
  POIN2 Label_BattleOne5_01471D62
 BYTE   PATT
  POIN2 Label_BattleOne5_01471D6D
 BYTE   PATT
  POIN2 Label_BattleOne5_01471D77
 BYTE   PATT
  POIN2 Label_BattleOne5_01471D82
 BYTE   PATT
  POIN2 Label_BattleOne5_01471D8D
 BYTE   PATT
  POIN2 Label_BattleOne5_01471D98
 BYTE   PATT
  POIN2 Label_BattleOne5_01471DA2
// 015   ----------------------------------------
 BYTE   N06  Cs2  v104
 BYTE   W24
 BYTE   Gs1  v127
 BYTE   W24
 BYTE   En1
 BYTE   W24
 BYTE   Gs1
 BYTE   W24
 BYTE   PATT
  POIN2 Label_BattleOne5_01471D62
 BYTE   PATT
  POIN2 Label_BattleOne5_01471D6D
 BYTE   PATT
  POIN2 Label_BattleOne5_01471D77
 BYTE   PATT
  POIN2 Label_BattleOne5_01471D82
 BYTE   PATT
  POIN2 Label_BattleOne5_01471D8D
 BYTE   PATT
  POIN2 Label_BattleOne5_01471D98
// 016   ----------------------------------------
 BYTE   N06  En1  v127
 BYTE   N06  Gs1
 BYTE   W24
 BYTE   En1
 BYTE   W12
 BYTE   Gs1
 BYTE   W12
 BYTE   En1
 BYTE   W12
 BYTE   N06
 BYTE   W12
 BYTE   N06
 BYTE   N06  Gs1
 BYTE   W12
 BYTE   En1
 BYTE   W12
// 017   ----------------------------------------
Label_BattleOne5_01471E3E:
 BYTE   N06  Cn1  v127
 BYTE   N06  Cs2
 BYTE   W24
 BYTE   Gs1
 BYTE   W12
 BYTE   Cn1
 BYTE   W12
 BYTE   En1
 BYTE   W24
 BYTE   Cn1
 BYTE   N06  Gs1
 BYTE   W24
 BYTE   PEND 
 BYTE   PATT
  POIN2 Label_BattleOne5_01471CDA
 BYTE   PATT
  POIN2 Label_BattleOne5_01471CE6
 BYTE   PATT
  POIN2 Label_BattleOne5_01471CDA
 BYTE   PATT
  POIN2 Label_BattleOne5_01471CF8
 BYTE   PATT
  POIN2 Label_BattleOne5_01471CDA
 BYTE   PATT
  POIN2 Label_BattleOne5_01471CE6
 BYTE   PATT
  POIN2 Label_BattleOne5_01471CDA
 BYTE   PATT
  POIN2 Label_BattleOne5_01471CF8
 BYTE   PATT
  POIN2 Label_BattleOne5_01471CDA
 BYTE   PATT
  POIN2 Label_BattleOne5_01471CE6
 BYTE   PATT
  POIN2 Label_BattleOne5_01471CDA
 BYTE   PATT
  POIN2 Label_BattleOne5_01471CF8
 BYTE   PATT
  POIN2 Label_BattleOne5_01471CDA
 BYTE   PATT
  POIN2 Label_BattleOne5_01471D34
 BYTE   PATT
  POIN2 Label_BattleOne5_01471D42
 BYTE   PATT
  POIN2 Label_BattleOne5_01471E3E
 BYTE   PATT
  POIN2 Label_BattleOne5_01471CDA
 BYTE   PATT
  POIN2 Label_BattleOne5_01471CE6
 BYTE   PATT
  POIN2 Label_BattleOne5_01471CDA
 BYTE   PATT
  POIN2 Label_BattleOne5_01471CF8
 BYTE   PATT
  POIN2 Label_BattleOne5_01471CDA
 BYTE   PATT
  POIN2 Label_BattleOne5_01471CE6
 BYTE   PATT
  POIN2 Label_BattleOne5_01471CDA
 BYTE   PATT
  POIN2 Label_BattleOne5_01471CF8
 BYTE   PATT
  POIN2 Label_BattleOne5_01471CDA
 BYTE   PATT
  POIN2 Label_BattleOne5_01471CE6
 BYTE   PATT
  POIN2 Label_BattleOne5_01471CDA
 BYTE   PATT
  POIN2 Label_BattleOne5_01471CF8
 BYTE   PATT
  POIN2 Label_BattleOne5_01471CDA
 BYTE   PATT
  POIN2 Label_BattleOne5_01471D34
 BYTE   PATT
  POIN2 Label_BattleOne5_01471D42
 BYTE   PATT
  POIN2 Label_BattleOne5_01471E3E
 BYTE   PATT
  POIN2 Label_BattleOne5_01471CDA
 BYTE   PATT
  POIN2 Label_BattleOne5_01471CE6
 BYTE   PATT
  POIN2 Label_BattleOne5_01471CDA
 BYTE   PATT
  POIN2 Label_BattleOne5_01471CF8
 BYTE   PATT
  POIN2 Label_BattleOne5_01471CDA
 BYTE   PATT
  POIN2 Label_BattleOne5_01471CE6
 BYTE   PATT
  POIN2 Label_BattleOne5_01471CDA
 BYTE   PATT
  POIN2 Label_BattleOne5_01471CF8
 BYTE   PATT
  POIN2 Label_BattleOne5_01471CDA
 BYTE   PATT
  POIN2 Label_BattleOne5_01471CE6
 BYTE   PATT
  POIN2 Label_BattleOne5_01471CDA
 BYTE   PATT
  POIN2 Label_BattleOne5_01471CF8
 BYTE   PATT
  POIN2 Label_BattleOne5_01471CDA
 BYTE   PATT
  POIN2 Label_BattleOne5_01471D34
 BYTE   PATT
  POIN2 Label_BattleOne5_01471D42
 BYTE   PATT
  POIN2 Label_BattleOne5_01471E3E
 BYTE   PATT
  POIN2 Label_BattleOne5_01471CDA
 BYTE   PATT
  POIN2 Label_BattleOne5_01471CE6
 BYTE   PATT
  POIN2 Label_BattleOne5_01471CDA
 BYTE   PATT
  POIN2 Label_BattleOne5_01471CF8
 BYTE   PATT
  POIN2 Label_BattleOne5_01471CDA
 BYTE   PATT
  POIN2 Label_BattleOne5_01471CE6
 BYTE   PATT
  POIN2 Label_BattleOne5_01471CDA
 BYTE   PATT
  POIN2 Label_BattleOne5_01471CF8
 BYTE   PATT
  POIN2 Label_BattleOne5_01471CDA
 BYTE   PATT
  POIN2 Label_BattleOne5_01471CE6
 BYTE   PATT
  POIN2 Label_BattleOne5_01471CDA
 BYTE   PATT
  POIN2 Label_BattleOne5_01471CF8
 BYTE   PATT
  POIN2 Label_BattleOne5_01471CDA
 BYTE   PATT
  POIN2 Label_BattleOne5_01471D34
 BYTE   PATT
  POIN2 Label_BattleOne5_01471D42
// 018   ----------------------------------------
 BYTE   N06  Cs2  v127
 BYTE   W06
 BYTE   GoTo
  POIN2 Label_BattleOne5_01471CC8
 BYTE   FINE

//******************************************************//
	ALIGN 4

songBattleOne:
	BYTE	6	// NumTrks
	BYTE	0	// NumBlks
	BYTE	BattleOne_pri	// Priority
	BYTE	BattleOne_rev	// Reverb.
    
	POIN2	BattleOne_grp
    
	POIN2	BattleOne_001
	POIN2	BattleOne_002
	POIN2	BattleOne_003
	POIN2	BattleOne_004
	POIN2	BattleOne_005
	POIN2	BattleOne_006

	
