//Event file generated from Sappy .s format.
	#include "MPlayDef.event"

	#define	songBeedlesShop_grp  voicegroup000
	#define	songBeedlesShop_pri  0
	#define	songBeedlesShop_rev  0
	#define	songBeedlesShop_mvl  160
	#define	songBeedlesShop_key  0
	#define	songBeedlesShop_tbs  1
	#define	songBeedlesShop_exg  0
	#define	songBeedlesShop_cmp  1

	// .rodata
	//	songBeedlesShop
	ALIGN 4


//**************** Track 1 (Midi-Chn.0) ****************//

songBeedlesShop_001:
// 000   ----------------------------------------
 BYTE   KEYSH   songBeedlesShop_key+0
Label_0_010276A2:
 BYTE   TEMPO   120*songBeedlesShop_tbs/2
 BYTE   VOICE   13
 BYTE   MODT 0
 BYTE   CnM2
 BYTE   LFOS 0
 BYTE   Gs1
 BYTE   VOL   35*songBeedlesShop_mvl/mxv
 BYTE   PAN   c_v+3
 BYTE   N05  Bn3  v116
 BYTE   N05  Gn4
 BYTE   W12
 BYTE   Bn3
 BYTE   N05  Gn4
 BYTE   W24
 BYTE   An3
 BYTE   N05  Fn4
 BYTE   W24
 BYTE   An3
 BYTE   N05  Fn4
 BYTE   W12
 BYTE   Bn3
 BYTE   N05  Gn4
 BYTE   W24
// 001   ----------------------------------------
 BYTE   W96
// 002   ----------------------------------------
Label_0_010276C5:
 BYTE   W23
 BYTE   N05  Gn3  v116
 BYTE   W01
 BYTE   En4
 BYTE   W12
 BYTE   Gn3
 BYTE   N05  En4
 BYTE   W12
 BYTE   En3
 BYTE   N05  Cn4
 BYTE   W12
 BYTE   En3
 BYTE   N05  Cn4
 BYTE   W12
 BYTE   Ds3
 BYTE   N05  Bn3
 BYTE   W11
 BYTE   En3
 BYTE   W01
 BYTE   Cn4
 BYTE   W12
 BYTE   PEND 
// 003   ----------------------------------------
Label_0_010276E1:
 BYTE   W23
 BYTE   N05  En3  v116
 BYTE   W01
 BYTE   Gn3
 BYTE   W11
 BYTE   En3
 BYTE   W01
 BYTE   Gn3
 BYTE   W12
 BYTE   Ds3
 BYTE   N05  An3
 BYTE   W23
 BYTE   En3
 BYTE   W01
 BYTE   Gn3
 BYTE   W23
 BYTE   Dn3
 BYTE   W01
 BYTE   PEND 
// 004   ----------------------------------------
Label_0_010276F7:
 BYTE   N05  Fn3  v116
 BYTE   W12
 BYTE   Dn3
 BYTE   N05  Fn3
 BYTE   W12
 BYTE   Cs3
 BYTE   N05  En3
 BYTE   W11
 BYTE   Dn3
 BYTE   W01
 BYTE   Fn3
 BYTE   W60
 BYTE   PEND 
// 005   ----------------------------------------
 BYTE   W96
// 006   ----------------------------------------
Label_0_01027709:
 BYTE   W23
 BYTE   N05  Fn3  v116
 BYTE   W01
 BYTE   Dn4
 BYTE   W12
 BYTE   Fn3
 BYTE   N05  Dn4
 BYTE   W12
 BYTE   Dn3
 BYTE   N05  Bn3
 BYTE   W12
 BYTE   Dn3
 BYTE   N05  Bn3
 BYTE   W12
 BYTE   Cs3
 BYTE   N05  As3
 BYTE   W11
 BYTE   Dn3
 BYTE   W01
 BYTE   Bn3
 BYTE   W12
 BYTE   PEND 
// 007   ----------------------------------------
Label_0_01027725:
 BYTE   W23
 BYTE   N05  Dn3  v116
 BYTE   W01
 BYTE   Gn3
 BYTE   W11
 BYTE   Dn3
 BYTE   W01
 BYTE   Gn3
 BYTE   W12
 BYTE   Cs3
 BYTE   N05  An3
 BYTE   W23
 BYTE   Dn3
 BYTE   W01
 BYTE   Gn3
 BYTE   W23
 BYTE   Cn3
 BYTE   W01
 BYTE   PEND 
// 008   ----------------------------------------
Label_0_0102773B:
 BYTE   N05  En3  v116
 BYTE   W12
 BYTE   Cn3
 BYTE   N05  En3
 BYTE   W12
 BYTE   Bn2
 BYTE   N05  Ds3
 BYTE   W11
 BYTE   Cn3
 BYTE   W01
 BYTE   En3
 BYTE   W56
 BYTE   W03
 BYTE   Bn2
 BYTE   W01
 BYTE   PEND 
// 009   ----------------------------------------
Label_0_0102774F:
 BYTE   N05  Gn3  v116
 BYTE   W11
 BYTE   Bn2
 BYTE   W01
 BYTE   Gn3
 BYTE   W11
 BYTE   Bn2
 BYTE   W01
 BYTE   Gn3
 BYTE   W72
 BYTE   PEND 
 BYTE   PATT
  POIN2 Label_0_010276C5
// 010   ----------------------------------------
Label_0_01027761:
 BYTE   W24
 BYTE   N05  En3  v116
 BYTE   N05  Gn3
 BYTE   W11
 BYTE   En3
 BYTE   W01
 BYTE   Gn3
 BYTE   W12
 BYTE   Ds3
 BYTE   N05  An3
 BYTE   W23
 BYTE   En3
 BYTE   W01
 BYTE   Gn3
 BYTE   W23
 BYTE   Dn3
 BYTE   W01
 BYTE   PEND 
 BYTE   PATT
  POIN2 Label_0_010276F7
// 011   ----------------------------------------
 BYTE   W96
 BYTE   PATT
  POIN2 Label_0_01027709
// 012   ----------------------------------------
Label_0_01027782:
 BYTE   W24
 BYTE   N05  Dn3  v116
 BYTE   N05  Gn3
 BYTE   W12
 BYTE   Dn3
 BYTE   N05  Gn3
 BYTE   W12
 BYTE   Fn3
 BYTE   N05  An3
 BYTE   W24
 BYTE   Fn3
 BYTE   N05  Bn3
 BYTE   W24
 BYTE   PEND 
// 013   ----------------------------------------
Label_0_01027796:
 BYTE   N05  En3  v116
 BYTE   N05  Cn4
 BYTE   W12
 BYTE   En3
 BYTE   N05  Cn4
 BYTE   W12
 BYTE   En3
 BYTE   N05  Cn4
 BYTE   W32
 BYTE   W03
 BYTE   Fn3
 BYTE   W01
 BYTE   An3
 BYTE   N05  Cn4
 BYTE   W23
 BYTE   Fn3
 BYTE   W01
 BYTE   An3
 BYTE   N05  Cn4
 BYTE   W11
 BYTE   En3
 BYTE   W01
 BYTE   PEND 
// 014   ----------------------------------------
Label_0_010277B4:
 BYTE   N05  Gn3  v116
 BYTE   N05  Cn4
 BYTE   W11
 BYTE   En3
 BYTE   W01
 BYTE   Gn3
 BYTE   N05  Cn4
 BYTE   W11
 BYTE   En3
 BYTE   W01
 BYTE   Gn3
 BYTE   N05  Cn4
 BYTE   W72
 BYTE   PEND 
// 015   ----------------------------------------
 BYTE   W96
// 016   ----------------------------------------
 BYTE   W96
// 017   ----------------------------------------
 BYTE   W96
// 018   ----------------------------------------
 BYTE   W96
// 019   ----------------------------------------
 BYTE   W96
// 020   ----------------------------------------
 BYTE   W96
// 021   ----------------------------------------
 BYTE   W96
// 022   ----------------------------------------
 BYTE   W96
// 023   ----------------------------------------
 BYTE   W96
// 024   ----------------------------------------
 BYTE   W96
// 025   ----------------------------------------
 BYTE   W96
// 026   ----------------------------------------
 BYTE   W96
// 027   ----------------------------------------
 BYTE   W96
// 028   ----------------------------------------
 BYTE   W96
 BYTE   PATT
  POIN2 Label_0_01027796
 BYTE   PATT
  POIN2 Label_0_010277B4
 BYTE   PATT
  POIN2 Label_0_010276C5
 BYTE   PATT
  POIN2 Label_0_010276E1
 BYTE   PATT
  POIN2 Label_0_010276F7
// 029   ----------------------------------------
 BYTE   W96
 BYTE   PATT
  POIN2 Label_0_01027709
 BYTE   PATT
  POIN2 Label_0_01027725
 BYTE   PATT
  POIN2 Label_0_0102773B
 BYTE   PATT
  POIN2 Label_0_0102774F
 BYTE   PATT
  POIN2 Label_0_010276C5
 BYTE   PATT
  POIN2 Label_0_01027761
 BYTE   PATT
  POIN2 Label_0_010276F7
// 030   ----------------------------------------
 BYTE   W96
 BYTE   PATT
  POIN2 Label_0_01027709
 BYTE   PATT
  POIN2 Label_0_01027782
 BYTE   PATT
  POIN2 Label_0_01027796
 BYTE   PATT
  POIN2 Label_0_010277B4
// 031   ----------------------------------------
 BYTE   W96
// 032   ----------------------------------------
 BYTE   W96
// 033   ----------------------------------------
 BYTE   W96
// 034   ----------------------------------------
 BYTE   W96
// 035   ----------------------------------------
 BYTE   W96
// 036   ----------------------------------------
 BYTE   W96
// 037   ----------------------------------------
 BYTE   W96
// 038   ----------------------------------------
 BYTE   W96
// 039   ----------------------------------------
 BYTE   W96
// 040   ----------------------------------------
 BYTE   W96
// 041   ----------------------------------------
 BYTE   W96
// 042   ----------------------------------------
 BYTE   W96
// 043   ----------------------------------------
 BYTE   W96
// 044   ----------------------------------------
 BYTE   W96
 BYTE   PATT
  POIN2 Label_0_01027796
 BYTE   PATT
  POIN2 Label_0_010277B4
 BYTE   PATT
  POIN2 Label_0_010276C5
 BYTE   PATT
  POIN2 Label_0_010276E1
 BYTE   PATT
  POIN2 Label_0_010276F7
// 045   ----------------------------------------
 BYTE   W96
 BYTE   PATT
  POIN2 Label_0_01027709
 BYTE   PATT
  POIN2 Label_0_01027725
 BYTE   PATT
  POIN2 Label_0_0102773B
 BYTE   PATT
  POIN2 Label_0_0102774F
 BYTE   PATT
  POIN2 Label_0_010276C5
 BYTE   PATT
  POIN2 Label_0_01027761
 BYTE   PATT
  POIN2 Label_0_010276F7
// 046   ----------------------------------------
 BYTE   W96
 BYTE   PATT
  POIN2 Label_0_01027709
 BYTE   PATT
  POIN2 Label_0_01027782
 BYTE   PATT
  POIN2 Label_0_01027796
 BYTE   PATT
  POIN2 Label_0_010277B4
// 047   ----------------------------------------
 BYTE   W96
// 048   ----------------------------------------
 BYTE   W96
// 049   ----------------------------------------
 BYTE   W96
// 050   ----------------------------------------
 BYTE   W96
// 051   ----------------------------------------
 BYTE   W96
// 052   ----------------------------------------
 BYTE   W96
// 053   ----------------------------------------
 BYTE   W96
// 054   ----------------------------------------
 BYTE   W96
// 055   ----------------------------------------
 BYTE   W96
// 056   ----------------------------------------
 BYTE   W96
// 057   ----------------------------------------
 BYTE   W96
// 058   ----------------------------------------
 BYTE   W96
// 059   ----------------------------------------
 BYTE   W96
// 060   ----------------------------------------
 BYTE   W96
 BYTE   PATT
  POIN2 Label_0_01027796
// 061   ----------------------------------------
 BYTE   N05  Gn3  v116
 BYTE   N05  Cn4
 BYTE   W11
 BYTE   En3
 BYTE   W01
 BYTE   Gn3
 BYTE   N05  Cn4
 BYTE   W11
 BYTE   En3
 BYTE   W01
 BYTE   Gn3
 BYTE   N05  Cn4
 BYTE   W68
 BYTE   W02
 BYTE   VOL   33*songBeedlesShop_mvl/mxv
 BYTE   W02
// 062   ----------------------------------------
 BYTE   Bn7
 BYTE   W03
 BYTE   Gs7
 BYTE   W05
 BYTE   En7
 BYTE   W04
 BYTE   Ds7
 BYTE   W04
 BYTE   Cs7
 BYTE   W03
 BYTE   Cn7
 BYTE   W04
 BYTE   N05  Gn3
 BYTE   W01
 BYTE   VOL   19*songBeedlesShop_mvl/mxv
 BYTE   N05  En4
 BYTE   W06
 BYTE   VOL   16*songBeedlesShop_mvl/mxv
 BYTE   W05
 BYTE   Fn6
 BYTE   W01
 BYTE   N05  Gn3
 BYTE   N05  En4
 BYTE   W02
 BYTE   VOL   13*songBeedlesShop_mvl/mxv
 BYTE   W03
 BYTE   Dn6
 BYTE   W05
 BYTE   Cs6
 BYTE   W02
 BYTE   Bn5
 BYTE   N05  En3
 BYTE   N05  Cn4
 BYTE   W04
 BYTE   VOL   7*songBeedlesShop_mvl/mxv
 BYTE   W02
 BYTE   Gs5
 BYTE   W03
 BYTE   Gn5
 BYTE   W03
 BYTE   N05  En3
 BYTE   N05  Cn4
 BYTE   W04
 BYTE   VOL   3*songBeedlesShop_mvl/mxv
 BYTE   W03
 BYTE   En5
 BYTE   W01
 BYTE   Ds5
 BYTE   W04
 BYTE   N05  Ds3
 BYTE   N05  Bn3
 BYTE   W01
 BYTE   VOL   0*songBeedlesShop_mvl/mxv
 BYTE   W05
 BYTE   As4
 BYTE   W05
 BYTE   An4
 BYTE   N05  En3
 BYTE   W01
 BYTE   VOL   0*songBeedlesShop_mvl/mxv
 BYTE   N05  Cn4
 BYTE   W05
 BYTE   VOL   0*songBeedlesShop_mvl/mxv
 BYTE   W03
 BYTE   En4
 BYTE   W04
// 063   ----------------------------------------
 BYTE   Dn4
 BYTE   W03
 BYTE   Cs4
 BYTE   W05
 BYTE   Cn4
 BYTE   W04
 BYTE   As3
 BYTE   W04
 BYTE   An3
 BYTE   W03
 BYTE   Gs3
 BYTE   W03
 BYTE   Fs3
 BYTE   W01
 BYTE   N05  En3
 BYTE   W01
 BYTE   Gn3
 BYTE   W01
 BYTE   VOL   0*songBeedlesShop_mvl/mxv
 BYTE   W05
 BYTE   Ds3
 BYTE   W05
 BYTE   Cs3
 BYTE   N05  En3
 BYTE   W01
 BYTE   Gn3
 BYTE   W02
 BYTE   VOL   0*songBeedlesShop_mvl/mxv
 BYTE   W08
 BYTE   As2
 BYTE   W02
 BYTE   N05  Ds3
 BYTE   N05  An3
 BYTE   W04
 BYTE   VOL   0*songBeedlesShop_mvl/mxv
 BYTE   W02
 BYTE   Gn2
 BYTE   W03
 BYTE   Fs2
 BYTE   W05
 BYTE   Fn2
 BYTE   W03
 BYTE   Dn2
 BYTE   W06
 BYTE   N05  En3
 BYTE   W01
 BYTE   VOL   0*songBeedlesShop_mvl/mxv
 BYTE   N05  Gn3
 BYTE   W03
 BYTE   VOL   0*songBeedlesShop_mvl/mxv
 BYTE   W03
 BYTE   Bn1
 BYTE   W03
 BYTE   As1
 BYTE   W02
 BYTE   An1
 BYTE   W06
 BYTE   Gn1
 BYTE   W03
 BYTE   Fs1
 BYTE   W03
 BYTE   N05  Dn3
 BYTE   W01
// 064   ----------------------------------------
 BYTE   Fn3
 BYTE   W01
 BYTE   VOL   0*songBeedlesShop_mvl/mxv
 BYTE   W03
 BYTE   Dn1
 BYTE   W04
 BYTE   Cs1
 BYTE   W04
 BYTE   Bn0
 BYTE   N05  Dn3
 BYTE   N05  Fn3
 BYTE   W04
 BYTE   VOL   0*songBeedlesShop_mvl/mxv
 BYTE   W04
 BYTE   An0
 BYTE   W04
 BYTE   Gn0
 BYTE   N05  Cs3
 BYTE   N05  En3
 BYTE   W04
 BYTE   VOL   0*songBeedlesShop_mvl/mxv
 BYTE   W05
 BYTE   Fn0
 BYTE   W02
 BYTE   N05  Dn3
 BYTE   W01
 BYTE   Fn3
 BYTE   W02
 BYTE   VOL   0*songBeedlesShop_mvl/mxv
 BYTE   W03
 BYTE   Dn0
 BYTE   W03
 BYTE   Cs0
 BYTE   W04
 BYTE   BnM1
 BYTE   W08
 BYTE   BnM1
 BYTE   W03
 BYTE   AnM1
 BYTE   W06
 BYTE   GnM1
 BYTE   W03
 BYTE   GnM1
 BYTE   W02
 BYTE   FsM1
 BYTE   W03
 BYTE   FnM1
 BYTE   W02
 BYTE   EnM1
 BYTE   W01
 BYTE   EnM1
 BYTE   W04
 BYTE   DsM1
 BYTE   W04
 BYTE   DnM1
 BYTE   W02
 BYTE   CsM1
 BYTE   W03
 BYTE   CsM1
 BYTE   W02
 BYTE   CnM1
 BYTE   W05
// 065   ----------------------------------------
 BYTE   BnM2
 BYTE   W06
 BYTE   AsM2
 BYTE   W03
 BYTE   AnM2
 BYTE   W05
 BYTE   GsM2
 BYTE   W02
 BYTE   GsM2
 BYTE   W03
 BYTE   GnM2
 BYTE   W03
 BYTE   GnM2
 BYTE   W03
 BYTE   FsM2
 BYTE   W03
 BYTE   FsM2
 BYTE   W02
 BYTE   FnM2
 BYTE   W03
 BYTE   EnM2
 BYTE   W07
 BYTE   EnM2
 BYTE   W03
 BYTE   DsM2
 BYTE   W03
 BYTE   DnM2
 BYTE   W05
 BYTE   DnM2
 BYTE   W01
 BYTE   DnM2
 BYTE   W04
 BYTE   DnM2
 BYTE   W03
 BYTE   CsM2
 BYTE   W06
 BYTE   CsM2
 BYTE   W02
 BYTE   CsM2
 BYTE   W03
 BYTE   CnM2
 BYTE   W05
 BYTE   CnM2
 BYTE   W01
 BYTE   CnM2
 BYTE   W04
 BYTE   CnM2
 BYTE   W06
 BYTE   GoTo
  POIN2 Label_0_010276A2
// 066   ----------------------------------------
 BYTE   VOL   0*songBeedlesShop_mvl/mxv
 BYTE   W09
 BYTE   FINE

//**************** Track 2 (Midi-Chn.1) ****************//

songBeedlesShop_002:
// 000   ----------------------------------------
 BYTE   KEYSH   songBeedlesShop_key+0
Label_1_010279D6:
 BYTE   VOICE   32
 BYTE   MODT 0
 BYTE   CnM2
 BYTE   LFOS 0
 BYTE   Gs1
 BYTE   VOL   26*songBeedlesShop_mvl/mxv
 BYTE   PAN   c_v-1
 BYTE   N11  Gn1  v104
 BYTE   W12
 BYTE   N23
 BYTE   W24
 BYTE   Dn1
 BYTE   W24
 BYTE   N11
 BYTE   W12
 BYTE   TIE  Gn0
 BYTE   W24
// 001   ----------------------------------------
 BYTE   W92
 BYTE   W03
 BYTE   EOT
 BYTE   W01
// 002   ----------------------------------------
Label_1_010279F1:
 BYTE   N32  Cn1  v104
 BYTE   W36
 BYTE   N11  Cn1  v088
 BYTE   W12
 BYTE   N23  Gn1  v104
 BYTE   W24
 BYTE   Gn0
 BYTE   W24
 BYTE   PEND 
 BYTE   PATT
  POIN2 Label_1_010279F1
// 003   ----------------------------------------
Label_1_01027A05:
 BYTE   N32  Dn1  v104
 BYTE   W36
 BYTE   N11  Dn1  v088
 BYTE   W12
 BYTE   N23  Gn1  v104
 BYTE   W24
 BYTE   Gn0
 BYTE   W24
 BYTE   PEND 
 BYTE   PATT
  POIN2 Label_1_01027A05
 BYTE   PATT
  POIN2 Label_1_01027A05
 BYTE   PATT
  POIN2 Label_1_01027A05
 BYTE   PATT
  POIN2 Label_1_010279F1
// 004   ----------------------------------------
Label_1_01027A28:
 BYTE   N11  Gn0  v104
 BYTE   W12
 BYTE   N11
 BYTE   W12
 BYTE   N23
 BYTE   W48
 BYTE   N11  Gn0  v088
 BYTE   W12
 BYTE   N11
 BYTE   W12
 BYTE   PEND 
 BYTE   PATT
  POIN2 Label_1_010279F1
 BYTE   PATT
  POIN2 Label_1_010279F1
 BYTE   PATT
  POIN2 Label_1_01027A05
 BYTE   PATT
  POIN2 Label_1_01027A05
 BYTE   PATT
  POIN2 Label_1_01027A05
 BYTE   PATT
  POIN2 Label_1_01027A05
// 005   ----------------------------------------
Label_1_01027A55:
 BYTE   N11  Cn1  v104
 BYTE   W12
 BYTE   N11
 BYTE   W12
 BYTE   N23
 BYTE   W36
 BYTE   Fn1
 BYTE   W24
 BYTE   N11
 BYTE   W12
 BYTE   PEND 
// 006   ----------------------------------------
Label_1_01027A62:
 BYTE   N11  Cn1  v104
 BYTE   W12
 BYTE   N11
 BYTE   W12
 BYTE   N23
 BYTE   W72
 BYTE   PEND 
// 007   ----------------------------------------
Label_1_01027A6B:
 BYTE   N32  Fn0  v104
 BYTE   W36
 BYTE   N11  Cn1
 BYTE   W12
 BYTE   N23  Fn1
 BYTE   W24
 BYTE   Cn1
 BYTE   W24
 BYTE   PEND 
 BYTE   PATT
  POIN2 Label_1_01027A6B
// 008   ----------------------------------------
Label_1_01027A7D:
 BYTE   N32  Cn0  v104
 BYTE   W36
 BYTE   N11  Gn0
 BYTE   W12
 BYTE   N23  Cn1
 BYTE   W24
 BYTE   Gn0
 BYTE   W24
 BYTE   PEND 
 BYTE   PATT
  POIN2 Label_1_01027A7D
// 009   ----------------------------------------
Label_1_01027A8F:
 BYTE   N32  Gn0  v104
 BYTE   W36
 BYTE   N11  Dn1
 BYTE   W12
 BYTE   N23  Gn1
 BYTE   W24
 BYTE   Dn1
 BYTE   W24
 BYTE   PEND 
 BYTE   PATT
  POIN2 Label_1_01027A8F
 BYTE   PATT
  POIN2 Label_1_01027A7D
 BYTE   PATT
  POIN2 Label_1_01027A7D
 BYTE   PATT
  POIN2 Label_1_01027A6B
 BYTE   PATT
  POIN2 Label_1_01027A6B
 BYTE   PATT
  POIN2 Label_1_01027A7D
 BYTE   PATT
  POIN2 Label_1_01027A7D
 BYTE   PATT
  POIN2 Label_1_01027A8F
 BYTE   PATT
  POIN2 Label_1_01027A8F
 BYTE   PATT
  POIN2 Label_1_01027A55
 BYTE   PATT
  POIN2 Label_1_01027A62
 BYTE   PATT
  POIN2 Label_1_010279F1
 BYTE   PATT
  POIN2 Label_1_010279F1
 BYTE   PATT
  POIN2 Label_1_01027A05
 BYTE   PATT
  POIN2 Label_1_01027A05
 BYTE   PATT
  POIN2 Label_1_01027A05
 BYTE   PATT
  POIN2 Label_1_01027A05
 BYTE   PATT
  POIN2 Label_1_010279F1
 BYTE   PATT
  POIN2 Label_1_01027A28
 BYTE   PATT
  POIN2 Label_1_010279F1
 BYTE   PATT
  POIN2 Label_1_010279F1
 BYTE   PATT
  POIN2 Label_1_01027A05
 BYTE   PATT
  POIN2 Label_1_01027A05
 BYTE   PATT
  POIN2 Label_1_01027A05
 BYTE   PATT
  POIN2 Label_1_01027A05
 BYTE   PATT
  POIN2 Label_1_01027A55
 BYTE   PATT
  POIN2 Label_1_01027A62
 BYTE   PATT
  POIN2 Label_1_01027A6B
 BYTE   PATT
  POIN2 Label_1_01027A6B
 BYTE   PATT
  POIN2 Label_1_01027A7D
 BYTE   PATT
  POIN2 Label_1_01027A7D
 BYTE   PATT
  POIN2 Label_1_01027A8F
 BYTE   PATT
  POIN2 Label_1_01027A8F
 BYTE   PATT
  POIN2 Label_1_01027A7D
 BYTE   PATT
  POIN2 Label_1_01027A7D
 BYTE   PATT
  POIN2 Label_1_01027A6B
 BYTE   PATT
  POIN2 Label_1_01027A6B
 BYTE   PATT
  POIN2 Label_1_01027A7D
 BYTE   PATT
  POIN2 Label_1_01027A7D
 BYTE   PATT
  POIN2 Label_1_01027A8F
 BYTE   PATT
  POIN2 Label_1_01027A8F
 BYTE   PATT
  POIN2 Label_1_01027A55
 BYTE   PATT
  POIN2 Label_1_01027A62
 BYTE   PATT
  POIN2 Label_1_010279F1
 BYTE   PATT
  POIN2 Label_1_010279F1
 BYTE   PATT
  POIN2 Label_1_01027A05
 BYTE   PATT
  POIN2 Label_1_01027A05
 BYTE   PATT
  POIN2 Label_1_01027A05
 BYTE   PATT
  POIN2 Label_1_01027A05
 BYTE   PATT
  POIN2 Label_1_010279F1
 BYTE   PATT
  POIN2 Label_1_01027A28
 BYTE   PATT
  POIN2 Label_1_010279F1
 BYTE   PATT
  POIN2 Label_1_010279F1
 BYTE   PATT
  POIN2 Label_1_01027A05
 BYTE   PATT
  POIN2 Label_1_01027A05
 BYTE   PATT
  POIN2 Label_1_01027A05
 BYTE   PATT
  POIN2 Label_1_01027A05
 BYTE   PATT
  POIN2 Label_1_01027A55
 BYTE   PATT
  POIN2 Label_1_01027A62
 BYTE   PATT
  POIN2 Label_1_01027A6B
 BYTE   PATT
  POIN2 Label_1_01027A6B
 BYTE   PATT
  POIN2 Label_1_01027A7D
 BYTE   PATT
  POIN2 Label_1_01027A7D
 BYTE   PATT
  POIN2 Label_1_01027A8F
 BYTE   PATT
  POIN2 Label_1_01027A8F
 BYTE   PATT
  POIN2 Label_1_01027A7D
 BYTE   PATT
  POIN2 Label_1_01027A7D
 BYTE   PATT
  POIN2 Label_1_01027A6B
 BYTE   PATT
  POIN2 Label_1_01027A6B
 BYTE   PATT
  POIN2 Label_1_01027A7D
 BYTE   PATT
  POIN2 Label_1_01027A7D
 BYTE   PATT
  POIN2 Label_1_01027A8F
 BYTE   PATT
  POIN2 Label_1_01027A8F
 BYTE   PATT
  POIN2 Label_1_01027A55
 BYTE   PATT
  POIN2 Label_1_01027A62
// 010   ----------------------------------------
 BYTE   VOL   24*songBeedlesShop_mvl/mxv
 BYTE   N32  Cn1  v104
 BYTE   W01
 BYTE   VOL   23*songBeedlesShop_mvl/mxv
 BYTE   W02
 BYTE   Cs7
 BYTE   W01
 BYTE   Cn7
 BYTE   W05
 BYTE   As6
 BYTE   W03
 BYTE   An6
 BYTE   W02
 BYTE   Gn6
 BYTE   W03
 BYTE   Fn6
 BYTE   W02
 BYTE   En6
 BYTE   W01
 BYTE   Dn6
 BYTE   W04
 BYTE   Cs6
 BYTE   W03
 BYTE   Bn5
 BYTE   W01
 BYTE   As5
 BYTE   W05
 BYTE   Gs5
 BYTE   W03
 BYTE   Gn5
 BYTE   N11  Cn1  v088
 BYTE   W05
 BYTE   VOL   2*songBeedlesShop_mvl/mxv
 BYTE   W02
 BYTE   En5
 BYTE   W01
 BYTE   Ds5
 BYTE   W04
 BYTE   N23  Gn1  v104
 BYTE   W03
 BYTE   VOL   0*songBeedlesShop_mvl/mxv
 BYTE   W01
 BYTE   Cn5
 BYTE   W04
 BYTE   As4
 BYTE   W06
 BYTE   Gs4
 BYTE   W03
 BYTE   Fs4
 BYTE   W07
 BYTE   Fn4
 BYTE   N23  Gn0
 BYTE   W03
 BYTE   VOL   0*songBeedlesShop_mvl/mxv
 BYTE   W08
 BYTE   Cn4
 BYTE   W05
 BYTE   An3
 BYTE   W06
 BYTE   Gs3
 BYTE   W02
// 011   ----------------------------------------
 BYTE   Fs3
 BYTE   N32  Cn1
 BYTE   W03
 BYTE   VOL   0*songBeedlesShop_mvl/mxv
 BYTE   W05
 BYTE   En3
 BYTE   W03
 BYTE   Ds3
 BYTE   W05
 BYTE   Cn3
 BYTE   W06
 BYTE   As2
 BYTE   W03
 BYTE   Gs2
 BYTE   W03
 BYTE   Gn2
 BYTE   W05
 BYTE   Fs2
 BYTE   W03
 BYTE   Fn2
 BYTE   N11  Cn1  v088
 BYTE   W05
 BYTE   VOL   0*songBeedlesShop_mvl/mxv
 BYTE   W05
 BYTE   Cs2
 BYTE   W02
 BYTE   N23  Gn1  v104
 BYTE   W01
 BYTE   VOL   0*songBeedlesShop_mvl/mxv
 BYTE   W05
 BYTE   As1
 BYTE   W05
 BYTE   An1
 BYTE   W05
 BYTE   Gs1
 BYTE   W04
 BYTE   Gn1
 BYTE   W04
 BYTE   Fs1
 BYTE   N23  Gn0
 BYTE   W03
 BYTE   VOL   0*songBeedlesShop_mvl/mxv
 BYTE   W05
 BYTE   Ds1
 BYTE   W01
 BYTE   Dn1
 BYTE   W05
 BYTE   Cs1
 BYTE   W03
 BYTE   Cn1
 BYTE   W02
 BYTE   Bn0
 BYTE   W05
// 012   ----------------------------------------
 BYTE   N32  Dn1
 BYTE   W01
 BYTE   VOL   0*songBeedlesShop_mvl/mxv
 BYTE   W02
 BYTE   An0
 BYTE   W05
 BYTE   Gn0
 BYTE   W04
 BYTE   Gn0
 BYTE   W02
 BYTE   Fs0
 BYTE   W03
 BYTE   Fn0
 BYTE   W03
 BYTE   En0
 BYTE   W04
 BYTE   Ds0
 BYTE   W03
 BYTE   Cs0
 BYTE   W05
 BYTE   Cn0
 BYTE   W04
 BYTE   N11  Dn1  v088
 BYTE   W02
 BYTE   VOL   0*songBeedlesShop_mvl/mxv
 BYTE   W03
 BYTE   BnM1
 BYTE   W02
 BYTE   AnM1
 BYTE   W03
 BYTE   GsM1
 BYTE   W02
 BYTE   N23  Gn1  v104
 BYTE   W04
 BYTE   VOL   0*songBeedlesShop_mvl/mxv
 BYTE   W07
 BYTE   FnM1
 BYTE   W03
 BYTE   EnM1
 BYTE   W05
 BYTE   DsM1
 BYTE   W05
 BYTE   N23  Gn0
 BYTE   W01
 BYTE   VOL   0*songBeedlesShop_mvl/mxv
 BYTE   W02
 BYTE   CsM1
 BYTE   W03
 BYTE   CsM1
 BYTE   W03
 BYTE   CnM1
 BYTE   W05
 BYTE   BnM2
 BYTE   W02
 BYTE   BnM2
 BYTE   W06
 BYTE   AsM2
 BYTE   W02
// 013   ----------------------------------------
 BYTE   AsM2
 BYTE   N32  Dn1
 BYTE   W03
 BYTE   VOL   0*songBeedlesShop_mvl/mxv
 BYTE   W05
 BYTE   GsM2
 BYTE   W01
 BYTE   GsM2
 BYTE   W02
 BYTE   GnM2
 BYTE   W06
 BYTE   GnM2
 BYTE   W02
 BYTE   FsM2
 BYTE   W06
 BYTE   FsM2
 BYTE   W07
 BYTE   FnM2
 BYTE   W01
 BYTE   FnM2
 BYTE   W03
 BYTE   EnM2
 BYTE   N11  Dn1  v088
 BYTE   W02
 BYTE   VOL   0*songBeedlesShop_mvl/mxv
 BYTE   W02
 BYTE   EnM2
 BYTE   W03
 BYTE   DsM2
 BYTE   W03
 BYTE   DnM2
 BYTE   W02
 BYTE   N23  Gn1  v104
 BYTE   W03
 BYTE   VOL   0*songBeedlesShop_mvl/mxv
 BYTE   W01
 BYTE   DnM2
 BYTE   W05
 BYTE   DnM2
 BYTE   W02
 BYTE   CsM2
 BYTE   W08
 BYTE   CsM2
 BYTE   W01
 BYTE   CsM2
 BYTE   W02
 BYTE   CnM2
 BYTE   W02
 BYTE   N23  Gn0
 BYTE   W03
 BYTE   VOL   0*songBeedlesShop_mvl/mxv
 BYTE   W03
 BYTE   CnM2
 BYTE   W03
 BYTE   CnM2
 BYTE   W05
 BYTE   GoTo
  POIN2 Label_1_010279D6
// 014   ----------------------------------------
 BYTE   W02
 BYTE   VOL   0*songBeedlesShop_mvl/mxv
 BYTE   W07
 BYTE   FINE

//**************** Track 3 (Midi-Chn.2) ****************//

songBeedlesShop_003:
// 000   ----------------------------------------
 BYTE   KEYSH   songBeedlesShop_key+0
Label_2_01027D2E:
 BYTE   VOICE   108
 BYTE   MODT 0
 BYTE   CnM2
 BYTE   LFOS 0
 BYTE   Gs1
 BYTE   VOL   26*songBeedlesShop_mvl/mxv
 BYTE   PAN   c_v-1
 BYTE   W96
// 001   ----------------------------------------
 BYTE   W96
// 002   ----------------------------------------
 BYTE   W96
// 003   ----------------------------------------
 BYTE   W96
// 004   ----------------------------------------
 BYTE   W96
// 005   ----------------------------------------
 BYTE   W96
// 006   ----------------------------------------
 BYTE   W96
// 007   ----------------------------------------
 BYTE   W96
// 008   ----------------------------------------
 BYTE   W96
// 009   ----------------------------------------
 BYTE   W96
// 010   ----------------------------------------
 BYTE   W96
// 011   ----------------------------------------
 BYTE   W96
// 012   ----------------------------------------
 BYTE   W96
// 013   ----------------------------------------
 BYTE   W96
// 014   ----------------------------------------
 BYTE   W96
// 015   ----------------------------------------
 BYTE   W96
// 016   ----------------------------------------
 BYTE   W96
// 017   ----------------------------------------
 BYTE   W96
// 018   ----------------------------------------
Label_2_01027D4A:
 BYTE   W16
 BYTE   N05  Fn3  v048
 BYTE   W04
 BYTE   Cn3
 BYTE   W04
 BYTE   An2
 BYTE   W36
 BYTE   N05
 BYTE   W12
 BYTE   Cn3
 BYTE   W12
 BYTE   Fn3
 BYTE   W12
 BYTE   PEND 
 BYTE   PATT
  POIN2 Label_2_01027D4A
// 019   ----------------------------------------
Label_2_01027D5F:
 BYTE   W16
 BYTE   N05  En3  v048
 BYTE   W04
 BYTE   Cn3
 BYTE   W04
 BYTE   Gn2
 BYTE   W36
 BYTE   N05
 BYTE   W12
 BYTE   Cn3
 BYTE   W12
 BYTE   En3
 BYTE   W12
 BYTE   PEND 
 BYTE   PATT
  POIN2 Label_2_01027D5F
// 020   ----------------------------------------
Label_2_01027D74:
 BYTE   W16
 BYTE   N05  Gn3  v048
 BYTE   W04
 BYTE   Dn3
 BYTE   W04
 BYTE   Bn2
 BYTE   W36
 BYTE   N05
 BYTE   W12
 BYTE   Dn3
 BYTE   W12
 BYTE   Gn3
 BYTE   W12
 BYTE   PEND 
// 021   ----------------------------------------
Label_2_01027D84:
 BYTE   W16
 BYTE   N05  Fn3  v048
 BYTE   W04
 BYTE   Dn3
 BYTE   W04
 BYTE   Bn2
 BYTE   W36
 BYTE   N05
 BYTE   W12
 BYTE   Dn3
 BYTE   W12
 BYTE   Fn3
 BYTE   W12
 BYTE   PEND 
 BYTE   PATT
  POIN2 Label_2_01027D5F
 BYTE   PATT
  POIN2 Label_2_01027D5F
 BYTE   PATT
  POIN2 Label_2_01027D4A
 BYTE   PATT
  POIN2 Label_2_01027D4A
 BYTE   PATT
  POIN2 Label_2_01027D5F
 BYTE   PATT
  POIN2 Label_2_01027D5F
 BYTE   PATT
  POIN2 Label_2_01027D74
// 022   ----------------------------------------
Label_2_01027DB7:
 BYTE   W16
 BYTE   N05  Fn3  v048
 BYTE   W04
 BYTE   Dn3
 BYTE   W04
 BYTE   Bn2
 BYTE   W24
 BYTE   Gn2
 BYTE   W12
 BYTE   Bn2
 BYTE   W12
 BYTE   Dn3
 BYTE   W12
 BYTE   Fn3
 BYTE   W12
 BYTE   PEND 
// 023   ----------------------------------------
Label_2_01027DC9:
 BYTE   N05  En3  v048
 BYTE   W12
 BYTE   N05
 BYTE   W12
 BYTE   N05
 BYTE   W36
 BYTE   Fn3
 BYTE   W24
 BYTE   N05
 BYTE   W12
 BYTE   PEND 
// 024   ----------------------------------------
Label_2_01027DD6:
 BYTE   N05  En3  v048
 BYTE   W12
 BYTE   N05
 BYTE   W12
 BYTE   N05
 BYTE   W72
 BYTE   PEND 
// 025   ----------------------------------------
 BYTE   W96
// 026   ----------------------------------------
 BYTE   W96
// 027   ----------------------------------------
 BYTE   W96
// 028   ----------------------------------------
 BYTE   W96
// 029   ----------------------------------------
 BYTE   W96
// 030   ----------------------------------------
 BYTE   W96
// 031   ----------------------------------------
 BYTE   W96
// 032   ----------------------------------------
 BYTE   W96
// 033   ----------------------------------------
 BYTE   W96
// 034   ----------------------------------------
 BYTE   W96
// 035   ----------------------------------------
 BYTE   W96
// 036   ----------------------------------------
 BYTE   W96
// 037   ----------------------------------------
 BYTE   W96
// 038   ----------------------------------------
 BYTE   W96
// 039   ----------------------------------------
 BYTE   W96
// 040   ----------------------------------------
 BYTE   W96
 BYTE   PATT
  POIN2 Label_2_01027D4A
 BYTE   PATT
  POIN2 Label_2_01027D4A
 BYTE   PATT
  POIN2 Label_2_01027D5F
 BYTE   PATT
  POIN2 Label_2_01027D5F
 BYTE   PATT
  POIN2 Label_2_01027D74
 BYTE   PATT
  POIN2 Label_2_01027D84
 BYTE   PATT
  POIN2 Label_2_01027D5F
 BYTE   PATT
  POIN2 Label_2_01027D5F
 BYTE   PATT
  POIN2 Label_2_01027D4A
 BYTE   PATT
  POIN2 Label_2_01027D4A
 BYTE   PATT
  POIN2 Label_2_01027D5F
 BYTE   PATT
  POIN2 Label_2_01027D5F
 BYTE   PATT
  POIN2 Label_2_01027D74
 BYTE   PATT
  POIN2 Label_2_01027DB7
 BYTE   PATT
  POIN2 Label_2_01027DC9
 BYTE   PATT
  POIN2 Label_2_01027DD6
// 041   ----------------------------------------
 BYTE   W96
// 042   ----------------------------------------
 BYTE   W96
// 043   ----------------------------------------
 BYTE   W96
// 044   ----------------------------------------
 BYTE   W96
// 045   ----------------------------------------
 BYTE   W96
// 046   ----------------------------------------
 BYTE   W96
// 047   ----------------------------------------
 BYTE   W96
// 048   ----------------------------------------
 BYTE   W96
// 049   ----------------------------------------
 BYTE   W96
// 050   ----------------------------------------
 BYTE   W96
// 051   ----------------------------------------
 BYTE   W96
// 052   ----------------------------------------
 BYTE   W96
// 053   ----------------------------------------
 BYTE   W96
// 054   ----------------------------------------
 BYTE   W96
// 055   ----------------------------------------
 BYTE   W96
// 056   ----------------------------------------
 BYTE   W96
 BYTE   PATT
  POIN2 Label_2_01027D4A
 BYTE   PATT
  POIN2 Label_2_01027D4A
 BYTE   PATT
  POIN2 Label_2_01027D5F
 BYTE   PATT
  POIN2 Label_2_01027D5F
 BYTE   PATT
  POIN2 Label_2_01027D74
 BYTE   PATT
  POIN2 Label_2_01027D84
 BYTE   PATT
  POIN2 Label_2_01027D5F
 BYTE   PATT
  POIN2 Label_2_01027D5F
 BYTE   PATT
  POIN2 Label_2_01027D4A
 BYTE   PATT
  POIN2 Label_2_01027D4A
 BYTE   PATT
  POIN2 Label_2_01027D5F
 BYTE   PATT
  POIN2 Label_2_01027D5F
 BYTE   PATT
  POIN2 Label_2_01027D74
 BYTE   PATT
  POIN2 Label_2_01027DB7
 BYTE   PATT
  POIN2 Label_2_01027DC9
 BYTE   PATT
  POIN2 Label_2_01027DD6
// 057   ----------------------------------------
 BYTE   W96
// 058   ----------------------------------------
 BYTE   W96
// 059   ----------------------------------------
 BYTE   W96
// 060   ----------------------------------------
 BYTE   W84
 BYTE   W02
 BYTE   GoTo
  POIN2 Label_2_01027D2E
// 061   ----------------------------------------
 BYTE   W09
 BYTE   FINE

//**************** Track 4 (Midi-Chn.3) ****************//

songBeedlesShop_004:
// 000   ----------------------------------------
 BYTE   KEYSH   songBeedlesShop_key+0
Label_3_01027EAE:
 BYTE   VOICE   60
 BYTE   MODT 0
 BYTE   CnM2
 BYTE   LFOS 0
 BYTE   Gs1
 BYTE   VOL   26*songBeedlesShop_mvl/mxv
 BYTE   PAN   c_v-1
 BYTE   W96
// 001   ----------------------------------------
 BYTE   W96
// 002   ----------------------------------------
 BYTE   W96
// 003   ----------------------------------------
 BYTE   W96
// 004   ----------------------------------------
 BYTE   W96
// 005   ----------------------------------------
 BYTE   W96
// 006   ----------------------------------------
 BYTE   W96
// 007   ----------------------------------------
 BYTE   W96
// 008   ----------------------------------------
 BYTE   W96
// 009   ----------------------------------------
 BYTE   W96
// 010   ----------------------------------------
 BYTE   W96
// 011   ----------------------------------------
 BYTE   W96
// 012   ----------------------------------------
 BYTE   W96
// 013   ----------------------------------------
 BYTE   W96
// 014   ----------------------------------------
 BYTE   W96
// 015   ----------------------------------------
 BYTE   W96
// 016   ----------------------------------------
 BYTE   W96
// 017   ----------------------------------------
Label_3_01027EC9:
 BYTE   W60
 BYTE   N11  Cn3  v056
 BYTE   W12
 BYTE   Dn3
 BYTE   W12
 BYTE   En3
 BYTE   W12
 BYTE   PEND 
// 018   ----------------------------------------
Label_3_01027ED3:
 BYTE   BEND   c_v-16
 BYTE   N32  An2  v056
 BYTE   N32  Fn3
 BYTE   W01
 BYTE   BEND   c_v-14
 BYTE   W01
 BYTE   En2
 BYTE   W01
 BYTE   Fs2
 BYTE   W01
 BYTE   Gs2
 BYTE   W01
 BYTE   Gs2
 BYTE   W01
 BYTE   An2
 BYTE   W01
 BYTE   As2
 BYTE   W01
 BYTE   Bn2
 BYTE   W01
 BYTE   Bn2
 BYTE   W01
 BYTE   Cn3
 BYTE   W01
 BYTE   Dn3
 BYTE   W02
 BYTE   Dn3
 BYTE   W01
 BYTE   En3
 BYTE   W02
 BYTE   VOL   25*songBeedlesShop_mvl/mxv
 BYTE   W01
 BYTE   Bn5
 BYTE   W01
 BYTE   As5
 BYTE   W04
 BYTE   Gs5
 BYTE   W01
 BYTE   Gn5
 BYTE   W04
 BYTE   Fs5
 BYTE   W01
 BYTE   En5
 BYTE   W01
 BYTE   Ds5
 BYTE   W03
 BYTE   Cs5
 BYTE   W01
 BYTE   As4
 BYTE   W02
 BYTE   Dn6
 BYTE   W01
 BYTE   N32  Fn2
 BYTE   N32  Cn3
 BYTE   W17
 BYTE   VOL   25*songBeedlesShop_mvl/mxv
 BYTE   W01
 BYTE   Bn5
 BYTE   W02
 BYTE   As5
 BYTE   W03
 BYTE   Gs5
 BYTE   W01
 BYTE   Gn5
 BYTE   W02
 BYTE   Fs5
 BYTE   W01
 BYTE   En5
 BYTE   W01
 BYTE   Ds5
 BYTE   W02
 BYTE   Cs5
 BYTE   W01
 BYTE   Cn5
 BYTE   W02
 BYTE   As4
 BYTE   W01
 BYTE   An4
 BYTE   W02
 BYTE   Dn6
 BYTE   N92  Fn2
 BYTE   N92  An2
 BYTE   W14
 BYTE   BEND   c_v-2
 BYTE   W01
 BYTE   En3
 BYTE   W04
 BYTE   Ds3
 BYTE   W05
 BYTE   PEND 
// 019   ----------------------------------------
Label_3_01027F39:
 BYTE   BEND   c_v-2
 BYTE   W02
 BYTE   Dn3
 BYTE   W01
 BYTE   Ds3
 BYTE   W01
 BYTE   Dn3
 BYTE   W01
 BYTE   VOL   25*songBeedlesShop_mvl/mxv
 BYTE   BEND   c_v-2
 BYTE   W01
 BYTE   Cs3
 BYTE   W03
 BYTE   Cn3
 BYTE   W01
 BYTE   Bn2
 BYTE   W01
 BYTE   VOL   23*songBeedlesShop_mvl/mxv
 BYTE   W02
 BYTE   As5
 BYTE   BEND   c_v-5
 BYTE   W02
 BYTE   As2
 BYTE   W01
 BYTE   An2
 BYTE   W02
 BYTE   VOL   19*songBeedlesShop_mvl/mxv
 BYTE   BEND   c_v-8
 BYTE   W01
 BYTE   Gs2
 BYTE   W01
 BYTE   Gn2
 BYTE   W01
 BYTE   Fs2
 BYTE   W01
 BYTE   VOL   18*songBeedlesShop_mvl/mxv
 BYTE   BEND   c_v-10
 BYTE   W01
 BYTE   Fn2
 BYTE   W01
 BYTE   En2
 BYTE   W01
 BYTE   VOL   16*songBeedlesShop_mvl/mxv
 BYTE   W01
 BYTE   BEND   c_v-13
 BYTE   W06
 BYTE   En2
 BYTE   W01
 BYTE   VOL   15*songBeedlesShop_mvl/mxv
 BYTE   W01
 BYTE   BEND   c_v-11
 BYTE   W01
 BYTE   Fs2
 BYTE   W01
 BYTE   VOL   13*songBeedlesShop_mvl/mxv
 BYTE   BEND   c_v-10
 BYTE   W01
 BYTE   Gs2
 BYTE   W01
 BYTE   VOL   12*songBeedlesShop_mvl/mxv
 BYTE   BEND   c_v-8
 BYTE   W01
 BYTE   An2
 BYTE   W01
 BYTE   VOL   10*songBeedlesShop_mvl/mxv
 BYTE   BEND   c_v-6
 BYTE   W01
 BYTE   Bn2
 BYTE   W01
 BYTE   Bn2
 BYTE   W01
 BYTE   Cn3
 BYTE   W03
 BYTE   VOL   8*songBeedlesShop_mvl/mxv
 BYTE   BEND   c_v-3
 BYTE   W03
 BYTE   VOL   6*songBeedlesShop_mvl/mxv
 BYTE   W01
 BYTE   Fn4
 BYTE   W01
 BYTE   BEND   c_v-2
 BYTE   W01
 BYTE   VOL   2*songBeedlesShop_mvl/mxv
 BYTE   BEND   c_v-2
 BYTE   W02
 BYTE   En3
 BYTE   W01
 BYTE   VOL   1*songBeedlesShop_mvl/mxv
 BYTE   W01
 BYTE   Cn4
 BYTE   W03
 BYTE   As3
 BYTE   W03
 BYTE   An3
 BYTE   W02
 BYTE   Gs3
 BYTE   W02
 BYTE   Fs3
 BYTE   W02
 BYTE   En3
 BYTE   W03
 BYTE   Ds3
 BYTE   W01
 BYTE   Dn6
 BYTE   BEND   c_v+29
 BYTE   N56  Gn2  v056
 BYTE   N56  En3
 BYTE   W01
 BYTE   BEND   c_v+31
 BYTE   W01
 BYTE   Cn6
 BYTE   W01
 BYTE   Dn6
 BYTE   W02
 BYTE   Ds6
 BYTE   W02
 BYTE   Ds6
 BYTE   W08
 BYTE   Ds6
 BYTE   W02
 BYTE   Cs6
 BYTE   W01
 BYTE   Cn6
 BYTE   W01
 BYTE   As5
 BYTE   W01
 BYTE   An5
 BYTE   W01
 BYTE   Gn5
 BYTE   W01
 BYTE   En5
 BYTE   W01
 BYTE   Cs5
 BYTE   W01
 BYTE   PEND 
// 020   ----------------------------------------
Label_3_01027FDF:
 BYTE   BEND   c_v+18
 BYTE   W01
 BYTE   Gn4
 BYTE   W01
 BYTE   VOL   25*songBeedlesShop_mvl/mxv
 BYTE   BEND   c_v+12
 BYTE   W01
 BYTE   Dn4
 BYTE   W01
 BYTE   Bn3
 BYTE   W01
 BYTE   As3
 BYTE   W01
 BYTE   Gs3
 BYTE   W01
 BYTE   Gs3
 BYTE   W01
 BYTE   Fs3
 BYTE   W01
 BYTE   VOL   23*songBeedlesShop_mvl/mxv
 BYTE   W01
 BYTE   BEND   c_v+1
 BYTE   W01
 BYTE   En3
 BYTE   W08
 BYTE   VOL   22*songBeedlesShop_mvl/mxv
 BYTE   W03
 BYTE   Gs5
 BYTE   W02
 BYTE   Gn5
 BYTE   W05
 BYTE   En5
 BYTE   W01
 BYTE   Ds5
 BYTE   W02
 BYTE   Cs5
 BYTE   W01
 BYTE   Cn5
 BYTE   W01
 BYTE   As4
 BYTE   W01
 BYTE   Dn6
 BYTE   W01
 BYTE   N32  En2  v056
 BYTE   N32  Cn3
 BYTE   W16
 BYTE   VOL   25*songBeedlesShop_mvl/mxv
 BYTE   W01
 BYTE   Bn5
 BYTE   W02
 BYTE   As5
 BYTE   W03
 BYTE   Gs5
 BYTE   W02
 BYTE   Gn5
 BYTE   W01
 BYTE   Fs5
 BYTE   W01
 BYTE   En5
 BYTE   W01
 BYTE   Ds5
 BYTE   W02
 BYTE   Cs5
 BYTE   W01
 BYTE   Cn5
 BYTE   W01
 BYTE   As4
 BYTE   W03
 BYTE   Gs4
 BYTE   W02
 BYTE   Dn6
 BYTE   N92  En2
 BYTE   N92  Gn2
 BYTE   W20
 BYTE   BEND   c_v-2
 BYTE   W03
 BYTE   Dn3
 BYTE   W01
 BYTE   PEND 
// 021   ----------------------------------------
Label_3_0102803B:
 BYTE   W03
 BYTE   BEND   c_v-3
 BYTE   W01
 BYTE   Cs3
 BYTE   W02
 BYTE   Cn3
 BYTE   W01
 BYTE   VOL   25*songBeedlesShop_mvl/mxv
 BYTE   BEND   c_v-5
 BYTE   W01
 BYTE   Bn2
 BYTE   W01
 BYTE   As2
 BYTE   W01
 BYTE   VOL   23*songBeedlesShop_mvl/mxv
 BYTE   BEND   c_v-7
 BYTE   W02
 BYTE   Gs2
 BYTE   W02
 BYTE   Gs2
 BYTE   W01
 BYTE   Gn2
 BYTE   W01
 BYTE   Fs2
 BYTE   W01
 BYTE   VOL   22*songBeedlesShop_mvl/mxv
 BYTE   BEND   c_v-10
 BYTE   W03
 BYTE   Fn2
 BYTE   W02
 BYTE   VOL   20*songBeedlesShop_mvl/mxv
 BYTE   W02
 BYTE   Gn5
 BYTE   W01
 BYTE   BEND   c_v-10
 BYTE   W01
 BYTE   VOL   18*songBeedlesShop_mvl/mxv
 BYTE   W02
 BYTE   En5
 BYTE   BEND   c_v-10
 BYTE   W03
 BYTE   VOL   15*songBeedlesShop_mvl/mxv
 BYTE   BEND   c_v-9
 BYTE   W01
 BYTE   Gs2
 BYTE   W01
 BYTE   Gs2
 BYTE   W01
 BYTE   An2
 BYTE   W01
 BYTE   VOL   13*songBeedlesShop_mvl/mxv
 BYTE   BEND   c_v-6
 BYTE   W01
 BYTE   VOL   12*songBeedlesShop_mvl/mxv
 BYTE   W01
 BYTE   BEND   c_v-5
 BYTE   W01
 BYTE   VOL   10*songBeedlesShop_mvl/mxv
 BYTE   W02
 BYTE   BEND   c_v-5
 BYTE   W01
 BYTE   VOL   9*songBeedlesShop_mvl/mxv
 BYTE   W01
 BYTE   Gs4
 BYTE   W02
 BYTE   Fs4
 BYTE   BEND   c_v-3
 BYTE   W01
 BYTE   VOL   5*songBeedlesShop_mvl/mxv
 BYTE   W01
 BYTE   En4
 BYTE   BEND   c_v-2
 BYTE   W01
 BYTE   VOL   2*songBeedlesShop_mvl/mxv
 BYTE   W02
 BYTE   Cs4
 BYTE   W01
 BYTE   Cn4
 BYTE   W01
 BYTE   BEND   c_v-1
 BYTE   W01
 BYTE   VOL   0*songBeedlesShop_mvl/mxv
 BYTE   BEND   c_v-2
 BYTE   W01
 BYTE   VOL   0*songBeedlesShop_mvl/mxv
 BYTE   W01
 BYTE   Gs3
 BYTE   W02
 BYTE   Fs3
 BYTE   W01
 BYTE   Fn3
 BYTE   W01
 BYTE   En3
 BYTE   W01
 BYTE   BEND   c_v+0
 BYTE   W01
 BYTE   VOL   0*songBeedlesShop_mvl/mxv
 BYTE   W01
 BYTE   Cs3
 BYTE   W01
 BYTE   Cn3
 BYTE   W02
 BYTE   Bn2
 BYTE   W01
 BYTE   As2
 BYTE   W02
 BYTE   Gs2
 BYTE   W01
 BYTE   Gn2
 BYTE   W01
 BYTE   Fs2
 BYTE   BEND   c_v-1
 BYTE   W01
 BYTE   Fn3
 BYTE   W01
 BYTE   Gs3
 BYTE   W01
 BYTE   VOL   26*songBeedlesShop_mvl/mxv
 BYTE   BEND   c_v+13
 BYTE   TIE  Fn2  v056
 BYTE   TIE  Dn3
 BYTE   W01
 BYTE   BEND   c_v+19
 BYTE   W01
 BYTE   Fs6
 BYTE   W01
 BYTE   Fn7
 BYTE   W01
 BYTE   Dn8
 BYTE   W01
 BYTE   Gn8
 BYTE   W01
 BYTE   Gn8
 BYTE   W12
 BYTE   Fn8
 BYTE   W01
 BYTE   Cs8
 BYTE   W01
 BYTE   Gn7
 BYTE   W01
 BYTE   Cn7
 BYTE   W01
 BYTE   Dn6
 BYTE   W01
 BYTE   Gn5
 BYTE   W01
 BYTE   PEND 
// 022   ----------------------------------------
Label_3_010280F3:
 BYTE   BEND   c_v+18
 BYTE   W01
 BYTE   En4
 BYTE   W01
 BYTE   Cn4
 BYTE   W01
 BYTE   As3
 BYTE   W01
 BYTE   Gn3
 BYTE   W01
 BYTE   Fs3
 BYTE   W01
 BYTE   Fn3
 BYTE   W01
 BYTE   En3
 BYTE   W01
 BYTE   Ds3
 BYTE   W01
 BYTE   En3
 BYTE   W10
 BYTE   VOL   25*songBeedlesShop_mvl/mxv
 BYTE   W01
 BYTE   Bn5
 BYTE   W03
 BYTE   As5
 BYTE   W05
 BYTE   Gs5
 BYTE   W01
 BYTE   Gn5
 BYTE   W03
 BYTE   Fs5
 BYTE   W01
 BYTE   En5
 BYTE   W02
 BYTE   Ds5
 BYTE   W06
 BYTE   Cs5
 BYTE   W01
 BYTE   BEND   c_v-3
 BYTE   W02
 BYTE   Cn3
 BYTE   W01
 BYTE   VOL   12*songBeedlesShop_mvl/mxv
 BYTE   W01
 BYTE   BEND   c_v-5
 BYTE   W01
 BYTE   As2
 BYTE   W01
 BYTE   An2
 BYTE   W01
 BYTE   Gs2
 BYTE   W01
 BYTE   VOL   10*songBeedlesShop_mvl/mxv
 BYTE   W03
 BYTE   BEND   c_v-7
 BYTE   W01
 BYTE   VOL   8*songBeedlesShop_mvl/mxv
 BYTE   W01
 BYTE   Fs4
 BYTE   BEND   c_v-6
 BYTE   W01
 BYTE   Bn2
 BYTE   W02
 BYTE   VOL   5*songBeedlesShop_mvl/mxv
 BYTE   BEND   c_v-4
 BYTE   W02
 BYTE   VOL   2*songBeedlesShop_mvl/mxv
 BYTE   W01
 BYTE   BEND   c_v-3
 BYTE   W02
 BYTE   VOL   1*songBeedlesShop_mvl/mxv
 BYTE   BEND   c_v-2
 BYTE   W01
 BYTE   VOL   0*songBeedlesShop_mvl/mxv
 BYTE   BEND   c_v-2
 BYTE   W02
 BYTE   VOL   0*songBeedlesShop_mvl/mxv
 BYTE   BEND   c_v+0
 BYTE   W02
 BYTE   VOL   0*songBeedlesShop_mvl/mxv
 BYTE   W03
 BYTE   Fs3
 BYTE   W01
 BYTE   Fn3
 BYTE   W05
 BYTE   En3
 BYTE   W03
 BYTE   Cs3
 BYTE   W03
 BYTE   Cn3
 BYTE   W04
 BYTE   Bn2
 BYTE   W02
 BYTE   As2
 BYTE   W05
 BYTE   Gs2
 BYTE   W01
 BYTE   PEND 
 BYTE   EOT
 BYTE   Fn2  v062
 BYTE   W01
// 023   ----------------------------------------
Label_3_0102816D:
 BYTE   VOL   26*songBeedlesShop_mvl/mxv
 BYTE   BEND   c_v-20
 BYTE   N92  An2  v056
 BYTE   N92  Fn3
 BYTE   W01
 BYTE   BEND   c_v-18
 BYTE   W01
 BYTE   Cs2
 BYTE   W01
 BYTE   Dn2
 BYTE   W01
 BYTE   En2
 BYTE   W01
 BYTE   Fn2
 BYTE   W01
 BYTE   Fs2
 BYTE   W02
 BYTE   Gs2
 BYTE   W01
 BYTE   Gs2
 BYTE   W01
 BYTE   An2
 BYTE   W01
 BYTE   As2
 BYTE   W01
 BYTE   Bn2
 BYTE   W01
 BYTE   Cn3
 BYTE   W02
 BYTE   Cs3
 BYTE   W01
 BYTE   Dn3
 BYTE   W03
 BYTE   Dn3
 BYTE   W01
 BYTE   En3
 BYTE   W04
 BYTE   VOL   25*songBeedlesShop_mvl/mxv
 BYTE   W03
 BYTE   Bn5
 BYTE   W02
 BYTE   As5
 BYTE   W03
 BYTE   Gs5
 BYTE   W02
 BYTE   Gn5
 BYTE   W04
 BYTE   Fs5
 BYTE   W04
 BYTE   En5
 BYTE   W01
 BYTE   Ds5
 BYTE   W03
 BYTE   Cs5
 BYTE   W01
 BYTE   Cn5
 BYTE   W02
 BYTE   As4
 BYTE   W02
 BYTE   An4
 BYTE   W02
 BYTE   Gs4
 BYTE   W01
 BYTE   Fs4
 BYTE   W03
 BYTE   Fn4
 BYTE   W01
 BYTE   En4
 BYTE   W02
 BYTE   Dn4
 BYTE   W06
 BYTE   Cs4
 BYTE   W02
 BYTE   Cn4
 BYTE   W02
 BYTE   As3
 BYTE   W02
 BYTE   An3
 BYTE   W01
 BYTE   Gs3
 BYTE   W01
 BYTE   BEND   c_v-2
 BYTE   W02
 BYTE   Dn3
 BYTE   W02
 BYTE   VOL   0*songBeedlesShop_mvl/mxv
 BYTE   W01
 BYTE   BEND   c_v-3
 BYTE   W01
 BYTE   VOL   0*songBeedlesShop_mvl/mxv
 BYTE   BEND   c_v-4
 BYTE   W02
 BYTE   VOL   0*songBeedlesShop_mvl/mxv
 BYTE   BEND   c_v-5
 BYTE   W02
 BYTE   VOL   0*songBeedlesShop_mvl/mxv
 BYTE   W03
 BYTE   Cs3
 BYTE   BEND   c_v-5
 BYTE   W01
 BYTE   VOL   0*songBeedlesShop_mvl/mxv
 BYTE   W01
 BYTE   BEND   c_v-6
 BYTE   W01
 BYTE   VOL   0*songBeedlesShop_mvl/mxv
 BYTE   W01
 BYTE   BEND   c_v-7
 BYTE   W01
 BYTE   VOL   0*songBeedlesShop_mvl/mxv
 BYTE   W01
 BYTE   BEND   c_v-8
 BYTE   W01
 BYTE   VOL   0*songBeedlesShop_mvl/mxv
 BYTE   W01
 BYTE   BEND   c_v-8
 BYTE   W01
 BYTE   PEND 
// 024   ----------------------------------------
Label_3_010281FA:
 BYTE   VOL   26*songBeedlesShop_mvl/mxv
 BYTE   BEND   c_v-2
 BYTE   N92  Gn2  v056
 BYTE   TIE  En3
 BYTE   W03
 BYTE   BEND   c_v-1
 BYTE   W01
 BYTE   Dn3
 BYTE   W02
 BYTE   Dn3
 BYTE   W02
 BYTE   Cn3
 BYTE   W01
 BYTE   Bn2
 BYTE   W01
 BYTE   Bn2
 BYTE   W01
 BYTE   As2
 BYTE   W01
 BYTE   Gs2
 BYTE   W01
 BYTE   Fs2
 BYTE   W01
 BYTE   Ds2
 BYTE   W01
 BYTE   Cs2
 BYTE   W01
 BYTE   As1
 BYTE   W01
 BYTE   Gs1
 BYTE   W01
 BYTE   Fn1
 BYTE   W01
 BYTE   Ds1
 BYTE   W01
 BYTE   Dn1
 BYTE   W01
 BYTE   Cs1
 BYTE   W01
 BYTE   Bn0
 BYTE   W01
 BYTE   As0
 BYTE   W01
 BYTE   VOL   25*songBeedlesShop_mvl/mxv
 BYTE   W02
 BYTE   BEND   c_v-30
 BYTE   W02
 BYTE   As0
 BYTE   W01
 BYTE   Cn1
 BYTE   W01
 BYTE   Cs1
 BYTE   W01
 BYTE   VOL   23*songBeedlesShop_mvl/mxv
 BYTE   BEND   c_v-26
 BYTE   W01
 BYTE   VOL   22*songBeedlesShop_mvl/mxv
 BYTE   BEND   c_v-25
 BYTE   W01
 BYTE   En1
 BYTE   W01
 BYTE   Gn1
 BYTE   W01
 BYTE   Gs1
 BYTE   W01
 BYTE   As1
 BYTE   W01
 BYTE   VOL   20*songBeedlesShop_mvl/mxv
 BYTE   BEND   c_v-16
 BYTE   W01
 BYTE   VOL   19*songBeedlesShop_mvl/mxv
 BYTE   BEND   c_v-13
 BYTE   W01
 BYTE   Fn2
 BYTE   W01
 BYTE   Gn2
 BYTE   W01
 BYTE   Gs2
 BYTE   W01
 BYTE   Bn2
 BYTE   W01
 BYTE   Cn3
 BYTE   W01
 BYTE   Cs3
 BYTE   W01
 BYTE   VOL   18*songBeedlesShop_mvl/mxv
 BYTE   BEND   c_v-2
 BYTE   W01
 BYTE   Dn3
 BYTE   W01
 BYTE   En3
 BYTE   W01
 BYTE   VOL   16*songBeedlesShop_mvl/mxv
 BYTE   W11
 BYTE   Ds5
 BYTE   W03
 BYTE   Cs5
 BYTE   W05
 BYTE   Cn5
 BYTE   W03
 BYTE   As4
 BYTE   W13
 BYTE   An4
 BYTE   W03
 BYTE   Gs4
 BYTE   W01
 BYTE   Fs4
 BYTE   W06
 BYTE   Fn4
 BYTE   W03
 BYTE   PEND 
// 025   ----------------------------------------
Label_3_0102827C:
 BYTE   VOL   4*songBeedlesShop_mvl/mxv
 BYTE   N68  As2  v056
 BYTE   W01
 BYTE   VOL   2*songBeedlesShop_mvl/mxv
 BYTE   W04
 BYTE   Cs4
 BYTE   W01
 BYTE   Cn4
 BYTE   W03
 BYTE   As3
 BYTE   W03
 BYTE   An3
 BYTE   W04
 BYTE   Gs3
 BYTE   W04
 BYTE   Fs3
 BYTE   W03
 BYTE   Fn3
 BYTE   W01
 BYTE   En3
 BYTE   W03
 BYTE   Ds3
 BYTE   W01
 BYTE   Cs3
 BYTE   W02
 BYTE   Cn3
 BYTE   W02
 BYTE   Bn2
 BYTE   W02
 BYTE   As2
 BYTE   W07
 BYTE   Gs2
 BYTE   W01
 BYTE   Gn2
 BYTE   W02
 BYTE   Fs2
 BYTE   W04
 BYTE   Fn2
 BYTE   W01
 BYTE   En2
 BYTE   W01
 BYTE   Dn2
 BYTE   W04
 BYTE   Cs2
 BYTE   W02
 BYTE   Cn2
 BYTE   W02
 BYTE   Bn1
 BYTE   W02
 BYTE   As1
 BYTE   W02
 BYTE   An1
 BYTE   W01
 BYTE   Gs1
 BYTE   W01
 BYTE   Gn1
 BYTE   W02
 BYTE   Fs1
 BYTE   W01
 BYTE   Fn1
 BYTE   W01
 BYTE   Ds1
 BYTE   W01
 BYTE   Dn1
 BYTE   W02
 BYTE   PEND 
 BYTE   EOT
 BYTE   En3
 BYTE   W01
 BYTE   VOL   26*songBeedlesShop_mvl/mxv
 BYTE   N23  Cn3
 BYTE   W24
 BYTE   PATT
  POIN2 Label_3_01027ED3
 BYTE   PATT
  POIN2 Label_3_01027F39
 BYTE   PATT
  POIN2 Label_3_01027FDF
 BYTE   PATT
  POIN2 Label_3_0102803B
 BYTE   PATT
  POIN2 Label_3_010280F3
// 026   ----------------------------------------
 BYTE   EOT
 BYTE   Fn2  v062
 BYTE   W01
Label_3_010282E7:
 BYTE   VOL   26*songBeedlesShop_mvl/mxv
 BYTE   BEND   c_v-20
 BYTE   N92  Fn2  v056
 BYTE   N92  Bn2
 BYTE   W01
 BYTE   BEND   c_v-18
 BYTE   W01
 BYTE   Cs2
 BYTE   W01
 BYTE   Dn2
 BYTE   W01
 BYTE   En2
 BYTE   W01
 BYTE   Fn2
 BYTE   W01
 BYTE   Fs2
 BYTE   W02
 BYTE   Gs2
 BYTE   W01
 BYTE   Gs2
 BYTE   W01
 BYTE   An2
 BYTE   W01
 BYTE   As2
 BYTE   W01
 BYTE   Bn2
 BYTE   W01
 BYTE   Cn3
 BYTE   W02
 BYTE   Cs3
 BYTE   W01
 BYTE   Dn3
 BYTE   W03
 BYTE   Dn3
 BYTE   W01
 BYTE   En3
 BYTE   W04
 BYTE   VOL   25*songBeedlesShop_mvl/mxv
 BYTE   W03
 BYTE   Bn5
 BYTE   W02
 BYTE   As5
 BYTE   W03
 BYTE   Gs5
 BYTE   W02
 BYTE   Gn5
 BYTE   W04
 BYTE   Fs5
 BYTE   W04
 BYTE   En5
 BYTE   W01
 BYTE   Ds5
 BYTE   W03
 BYTE   Cs5
 BYTE   W01
 BYTE   Cn5
 BYTE   W02
 BYTE   As4
 BYTE   W02
 BYTE   An4
 BYTE   W02
 BYTE   Gs4
 BYTE   W01
 BYTE   Fs4
 BYTE   W03
 BYTE   Fn4
 BYTE   W01
 BYTE   En4
 BYTE   W02
 BYTE   Dn4
 BYTE   W06
 BYTE   Cs4
 BYTE   W02
 BYTE   Cn4
 BYTE   W02
 BYTE   As3
 BYTE   W02
 BYTE   An3
 BYTE   W01
 BYTE   Gs3
 BYTE   W01
 BYTE   BEND   c_v-2
 BYTE   W02
 BYTE   Dn3
 BYTE   W02
 BYTE   VOL   0*songBeedlesShop_mvl/mxv
 BYTE   W01
 BYTE   BEND   c_v-3
 BYTE   W01
 BYTE   VOL   0*songBeedlesShop_mvl/mxv
 BYTE   BEND   c_v-4
 BYTE   W02
 BYTE   VOL   0*songBeedlesShop_mvl/mxv
 BYTE   BEND   c_v-5
 BYTE   W02
 BYTE   VOL   0*songBeedlesShop_mvl/mxv
 BYTE   W03
 BYTE   Cs3
 BYTE   BEND   c_v-5
 BYTE   W01
 BYTE   VOL   0*songBeedlesShop_mvl/mxv
 BYTE   W01
 BYTE   BEND   c_v-6
 BYTE   W01
 BYTE   VOL   0*songBeedlesShop_mvl/mxv
 BYTE   W01
 BYTE   BEND   c_v-7
 BYTE   W01
 BYTE   VOL   0*songBeedlesShop_mvl/mxv
 BYTE   W01
 BYTE   BEND   c_v-8
 BYTE   W01
 BYTE   VOL   0*songBeedlesShop_mvl/mxv
 BYTE   W01
// 027   ----------------------------------------
 BYTE   BEND   c_v-8
 BYTE   W01
 BYTE   PEND 
Label_3_01028374:
 BYTE   VOL   26*songBeedlesShop_mvl/mxv
 BYTE   BEND   c_v-2
 BYTE   N11  En2  v044
 BYTE   N11  Cn3
 BYTE   W03
 BYTE   BEND   c_v-1
 BYTE   W01
 BYTE   En3
 BYTE   W08
 BYTE   N11  En2
 BYTE   N11  Cn3
 BYTE   W12
 BYTE   En2
 BYTE   N11  Cn3
 BYTE   W36
 BYTE   Fn2
 BYTE   N11  An2
 BYTE   W24
 BYTE   Fn2
 BYTE   N11  An2
 BYTE   W12
 BYTE   PEND 
// 028   ----------------------------------------
Label_3_01028395:
 BYTE   N11  En2  v044
 BYTE   N11  Cn3
 BYTE   W12
 BYTE   En2
 BYTE   N11  Cn3
 BYTE   W12
 BYTE   En2
 BYTE   N11  Cn3
 BYTE   W72
 BYTE   PEND 
// 029   ----------------------------------------
 BYTE   W96
// 030   ----------------------------------------
 BYTE   W96
// 031   ----------------------------------------
 BYTE   W96
// 032   ----------------------------------------
 BYTE   W96
// 033   ----------------------------------------
 BYTE   W96
// 034   ----------------------------------------
 BYTE   W96
// 035   ----------------------------------------
 BYTE   W96
// 036   ----------------------------------------
 BYTE   W96
// 037   ----------------------------------------
 BYTE   W96
// 038   ----------------------------------------
 BYTE   W96
// 039   ----------------------------------------
 BYTE   W96
// 040   ----------------------------------------
 BYTE   W96
// 041   ----------------------------------------
 BYTE   W96
// 042   ----------------------------------------
 BYTE   W96
// 043   ----------------------------------------
 BYTE   W96
 BYTE   PATT
  POIN2 Label_3_01027EC9
 BYTE   PATT
  POIN2 Label_3_01027ED3
 BYTE   PATT
  POIN2 Label_3_01027F39
 BYTE   PATT
  POIN2 Label_3_01027FDF
 BYTE   PATT
  POIN2 Label_3_0102803B
 BYTE   PATT
  POIN2 Label_3_010280F3
// 044   ----------------------------------------
 BYTE   EOT
 BYTE   Fn2  v062
 BYTE   W01
 BYTE   PATT
  POIN2 Label_3_0102816D
 BYTE   PATT
  POIN2 Label_3_010281FA
 BYTE   PATT
  POIN2 Label_3_0102827C
// 045   ----------------------------------------
 BYTE   EOT
 BYTE   En3
 BYTE   W01
 BYTE   VOL   26*songBeedlesShop_mvl/mxv
 BYTE   N23  Cn3  v056
 BYTE   W24
 BYTE   PATT
  POIN2 Label_3_01027ED3
 BYTE   PATT
  POIN2 Label_3_01027F39
 BYTE   PATT
  POIN2 Label_3_01027FDF
 BYTE   PATT
  POIN2 Label_3_0102803B
 BYTE   PATT
  POIN2 Label_3_010280F3
// 046   ----------------------------------------
 BYTE   EOT
 BYTE   Fn2  v062
 BYTE   W01
 BYTE   PATT
  POIN2 Label_3_010282E7
 BYTE   PATT
  POIN2 Label_3_01028374
 BYTE   PATT
  POIN2 Label_3_01028395
// 047   ----------------------------------------
 BYTE   W96
// 048   ----------------------------------------
 BYTE   W96
// 049   ----------------------------------------
 BYTE   W96
// 050   ----------------------------------------
 BYTE   W96
// 051   ----------------------------------------
 BYTE   W96
// 052   ----------------------------------------
 BYTE   W96
// 053   ----------------------------------------
 BYTE   W96
// 054   ----------------------------------------
 BYTE   W96
// 055   ----------------------------------------
 BYTE   W96
// 056   ----------------------------------------
 BYTE   W96
// 057   ----------------------------------------
 BYTE   W96
// 058   ----------------------------------------
 BYTE   W96
// 059   ----------------------------------------
 BYTE   W96
// 060   ----------------------------------------
 BYTE   W96
// 061   ----------------------------------------
 BYTE   W96
 BYTE   PATT
  POIN2 Label_3_01027EC9
 BYTE   PATT
  POIN2 Label_3_01027ED3
 BYTE   PATT
  POIN2 Label_3_01027F39
 BYTE   PATT
  POIN2 Label_3_01027FDF
 BYTE   PATT
  POIN2 Label_3_0102803B
 BYTE   PATT
  POIN2 Label_3_010280F3
// 062   ----------------------------------------
 BYTE   EOT
 BYTE   Fn2  v062
 BYTE   W01
 BYTE   PATT
  POIN2 Label_3_0102816D
 BYTE   PATT
  POIN2 Label_3_010281FA
 BYTE   PATT
  POIN2 Label_3_0102827C
// 063   ----------------------------------------
 BYTE   EOT
 BYTE   En3
 BYTE   W01
 BYTE   VOL   26*songBeedlesShop_mvl/mxv
 BYTE   N23  Cn3  v056
 BYTE   W24
 BYTE   PATT
  POIN2 Label_3_01027ED3
 BYTE   PATT
  POIN2 Label_3_01027F39
 BYTE   PATT
  POIN2 Label_3_01027FDF
 BYTE   PATT
  POIN2 Label_3_0102803B
 BYTE   PATT
  POIN2 Label_3_010280F3
// 064   ----------------------------------------
 BYTE   EOT
 BYTE   Fn2  v062
 BYTE   W01
 BYTE   PATT
  POIN2 Label_3_010282E7
 BYTE   PATT
  POIN2 Label_3_01028374
 BYTE   PATT
  POIN2 Label_3_01028395
// 065   ----------------------------------------
 BYTE   W96
// 066   ----------------------------------------
 BYTE   W96
// 067   ----------------------------------------
 BYTE   W96
// 068   ----------------------------------------
 BYTE   W84
 BYTE   W02
 BYTE   GoTo
  POIN2 Label_3_01027EAE
// 069   ----------------------------------------
 BYTE   W09
 BYTE   FINE

//**************** Track 5 (Midi-Chn.4) ****************//

songBeedlesShop_005:
// 000   ----------------------------------------
 BYTE   KEYSH   songBeedlesShop_key+0
Label_4_0102849E:
 BYTE   VOICE   121
 BYTE   MODT 0
 BYTE   CnM2
 BYTE   LFOS 0
 BYTE   Gs1
 BYTE   PAN   c_v-1
 BYTE   VOL   26*songBeedlesShop_mvl/mxv
 BYTE   N05  Cs3  v080
 BYTE   N05  An3  v052
 BYTE   W12
 BYTE   Cs3  v080
 BYTE   N05  An3  v052
 BYTE   W12
 BYTE   Ds3  v080
 BYTE   N05  An3  v028
 BYTE   W12
 BYTE   Dn3  v080
 BYTE   N05  An3  v052
 BYTE   W12
 BYTE   Cs3  v080
 BYTE   N05  An3  v036
 BYTE   W12
 BYTE   Cs3  v080
 BYTE   N05  An3  v052
 BYTE   W12
 BYTE   Dn3  v080
 BYTE   N05  An3  v052
 BYTE   W12
 BYTE   N03  Ds3
 BYTE   N05  An3  v036
 BYTE   W04
 BYTE   N03  Ds3  v064
 BYTE   W04
 BYTE   Ds3  v080
 BYTE   W04
// 001   ----------------------------------------
 BYTE   N05
 BYTE   N05  An3  v028
 BYTE   N05  Fn4  v100
 BYTE   W12
 BYTE   Cs3  v080
 BYTE   N03  An3  v016
 BYTE   W04
 BYTE   N03
 BYTE   W04
 BYTE   An3  v028
 BYTE   W04
 BYTE   N05  Cs3  v080
 BYTE   N05  An3  v036
 BYTE   W12
 BYTE   Dn3  v080
 BYTE   N05  Ds3
 BYTE   N05  An3  v028
 BYTE   N05  Fn4  v100
 BYTE   W12
 BYTE   Cs3  v080
 BYTE   N05  An3  v052
 BYTE   N11  Dn4  v080
 BYTE   W06
 BYTE   N05  Cs3
 BYTE   W06
 BYTE   En3
 BYTE   N05  An3  v052
 BYTE   W12
 BYTE   Ds3  v080
 BYTE   N05  An3  v036
 BYTE   N05  Cs4  v052
 BYTE   N05  Fn4  v100
 BYTE   W12
 BYTE   Ds3  v080
 BYTE   N05  An3  v052
 BYTE   N05  Cs4  v100
 BYTE   W12
// 002   ----------------------------------------
Label_4_0102852B:
 BYTE   N05  Gs2  v064
 BYTE   N05  Ds3  v088
 BYTE   N05  An3  v028
 BYTE   W12
 BYTE   An3  v016
 BYTE   W12
 BYTE   Gs2  v064
 BYTE   N05  An3  v016
 BYTE   W12
 BYTE   Cs3  v088
 BYTE   N05  An3  v036
 BYTE   W12
 BYTE   Gs2  v064
 BYTE   N05  Dn3  v104
 BYTE   N05  An3  v036
 BYTE   W12
 BYTE   Cs3  v088
 BYTE   N05  An3  v016
 BYTE   W12
 BYTE   Gs2  v064
 BYTE   N05  Ds3  v088
 BYTE   N05  An3  v016
 BYTE   W12
 BYTE   En3  v088
 BYTE   N05  An3  v036
 BYTE   W12
 BYTE   PEND 
 BYTE   PATT
  POIN2 Label_4_0102852B
 BYTE   PATT
  POIN2 Label_4_0102852B
// 003   ----------------------------------------
Label_4_0102856D:
 BYTE   N05  Gs2  v064
 BYTE   N05  Ds3  v088
 BYTE   N05  An3  v028
 BYTE   N11  Dn4  v080
 BYTE   W12
 BYTE   N05  An3  v016
 BYTE   W12
 BYTE   Gs2  v064
 BYTE   N05  An3  v016
 BYTE   N05  Cs4  v052
 BYTE   W12
 BYTE   Cs3  v088
 BYTE   N05  An3  v036
 BYTE   N05  Cs4  v100
 BYTE   W12
 BYTE   Gs2  v064
 BYTE   N05  Dn3  v104
 BYTE   N05  An3  v036
 BYTE   W12
 BYTE   Cs3  v088
 BYTE   N05  An3  v016
 BYTE   W12
 BYTE   Gs2  v064
 BYTE   N05  Ds3  v088
 BYTE   N05  An3  v016
 BYTE   W12
 BYTE   En3  v088
 BYTE   N05  An3  v036
 BYTE   W12
 BYTE   PEND 
 BYTE   PATT
  POIN2 Label_4_0102852B
 BYTE   PATT
  POIN2 Label_4_0102852B
 BYTE   PATT
  POIN2 Label_4_0102852B
// 004   ----------------------------------------
Label_4_010285BE:
 BYTE   N05  Gs2  v064
 BYTE   N05  Ds3  v088
 BYTE   N05  An3  v036
 BYTE   W12
 BYTE   Dn3  v104
 BYTE   N05  An3  v016
 BYTE   W06
 BYTE   N05
 BYTE   W06
 BYTE   Gs2  v064
 BYTE   N05  Ds3  v088
 BYTE   N05  An3  v036
 BYTE   W12
 BYTE   An3  v028
 BYTE   W12
 BYTE   Gs2  v064
 BYTE   N05  Cs3  v088
 BYTE   N05  An3  v016
 BYTE   N11  Dn4  v080
 BYTE   W12
 BYTE   N05  Ds3  v088
 BYTE   N05  An3  v036
 BYTE   W12
 BYTE   Gs2  v064
 BYTE   N05  Cs3
 BYTE   N05  En3  v088
 BYTE   N05  An3  v028
 BYTE   N05  Cs4  v052
 BYTE   W12
 BYTE   En3  v088
 BYTE   N05  An3  v036
 BYTE   N05  Cs4  v100
 BYTE   W12
 BYTE   PEND 
 BYTE   PATT
  POIN2 Label_4_0102852B
 BYTE   PATT
  POIN2 Label_4_0102852B
 BYTE   PATT
  POIN2 Label_4_0102852B
 BYTE   PATT
  POIN2 Label_4_0102856D
 BYTE   PATT
  POIN2 Label_4_0102852B
 BYTE   PATT
  POIN2 Label_4_0102852B
// 005   ----------------------------------------
Label_4_01028625:
 BYTE   N05  Gs2  v064
 BYTE   N05  Ds3  v088
 BYTE   N05  An3  v044
 BYTE   W12
 BYTE   N05
 BYTE   W12
 BYTE   Gs2  v064
 BYTE   N05  An3  v044
 BYTE   W12
 BYTE   Cs3  v088
 BYTE   N03  An3  v020
 BYTE   W04
 BYTE   N03
 BYTE   W04
 BYTE   An3  v032
 BYTE   W04
 BYTE   N05  Gs2  v064
 BYTE   N05  Dn3  v104
 BYTE   N05  An3  v044
 BYTE   W12
 BYTE   Cs3  v088
 BYTE   N05  An3  v020
 BYTE   W12
 BYTE   Gs2  v064
 BYTE   N05  Ds3  v088
 BYTE   N05  An3  v044
 BYTE   W12
 BYTE   En3  v088
 BYTE   N05  An3  v032
 BYTE   W12
 BYTE   PEND 
// 006   ----------------------------------------
Label_4_01028662:
 BYTE   N05  Gs2  v064
 BYTE   N05  Cs3  v088
 BYTE   N05  An3  v044
 BYTE   W06
 BYTE   N05
 BYTE   W06
 BYTE   Dn3  v088
 BYTE   N05  An3  v032
 BYTE   W12
 BYTE   Gs2  v064
 BYTE   N05  Dn3  v088
 BYTE   N05  An3  v044
 BYTE   W12
 BYTE   An3  v032
 BYTE   W12
 BYTE   Gs2  v064
 BYTE   N05  An3  v032
 BYTE   N11  Dn4  v080
 BYTE   W12
 BYTE   N05  Cs3  v088
 BYTE   N05  An3  v020
 BYTE   W12
 BYTE   Gs2  v064
 BYTE   N05  Ds3  v088
 BYTE   N05  An3  v032
 BYTE   N05  Cs4  v052
 BYTE   W12
 BYTE   En3  v088
 BYTE   N05  An3  v032
 BYTE   N05  Cs4  v100
 BYTE   W12
 BYTE   PEND 
 BYTE   PATT
  POIN2 Label_4_0102852B
 BYTE   PATT
  POIN2 Label_4_0102852B
 BYTE   PATT
  POIN2 Label_4_0102852B
 BYTE   PATT
  POIN2 Label_4_0102856D
 BYTE   PATT
  POIN2 Label_4_0102852B
 BYTE   PATT
  POIN2 Label_4_0102852B
 BYTE   PATT
  POIN2 Label_4_0102852B
 BYTE   PATT
  POIN2 Label_4_010285BE
 BYTE   PATT
  POIN2 Label_4_0102852B
 BYTE   PATT
  POIN2 Label_4_0102852B
 BYTE   PATT
  POIN2 Label_4_0102852B
 BYTE   PATT
  POIN2 Label_4_0102856D
 BYTE   PATT
  POIN2 Label_4_0102852B
 BYTE   PATT
  POIN2 Label_4_0102852B
 BYTE   PATT
  POIN2 Label_4_01028625
 BYTE   PATT
  POIN2 Label_4_01028662
 BYTE   PATT
  POIN2 Label_4_0102852B
 BYTE   PATT
  POIN2 Label_4_0102852B
 BYTE   PATT
  POIN2 Label_4_0102852B
 BYTE   PATT
  POIN2 Label_4_0102856D
 BYTE   PATT
  POIN2 Label_4_0102852B
 BYTE   PATT
  POIN2 Label_4_0102852B
 BYTE   PATT
  POIN2 Label_4_0102852B
 BYTE   PATT
  POIN2 Label_4_010285BE
 BYTE   PATT
  POIN2 Label_4_0102852B
 BYTE   PATT
  POIN2 Label_4_0102852B
 BYTE   PATT
  POIN2 Label_4_0102852B
 BYTE   PATT
  POIN2 Label_4_0102856D
 BYTE   PATT
  POIN2 Label_4_0102852B
 BYTE   PATT
  POIN2 Label_4_0102852B
 BYTE   PATT
  POIN2 Label_4_01028625
 BYTE   PATT
  POIN2 Label_4_01028662
 BYTE   PATT
  POIN2 Label_4_0102852B
 BYTE   PATT
  POIN2 Label_4_0102852B
 BYTE   PATT
  POIN2 Label_4_0102852B
 BYTE   PATT
  POIN2 Label_4_0102856D
 BYTE   PATT
  POIN2 Label_4_0102852B
 BYTE   PATT
  POIN2 Label_4_0102852B
 BYTE   PATT
  POIN2 Label_4_0102852B
 BYTE   PATT
  POIN2 Label_4_010285BE
 BYTE   PATT
  POIN2 Label_4_0102852B
 BYTE   PATT
  POIN2 Label_4_0102852B
 BYTE   PATT
  POIN2 Label_4_0102852B
 BYTE   PATT
  POIN2 Label_4_0102856D
 BYTE   PATT
  POIN2 Label_4_0102852B
 BYTE   PATT
  POIN2 Label_4_0102852B
 BYTE   PATT
  POIN2 Label_4_01028625
 BYTE   PATT
  POIN2 Label_4_01028662
 BYTE   PATT
  POIN2 Label_4_0102852B
 BYTE   PATT
  POIN2 Label_4_0102852B
 BYTE   PATT
  POIN2 Label_4_0102852B
 BYTE   PATT
  POIN2 Label_4_0102856D
 BYTE   PATT
  POIN2 Label_4_0102852B
 BYTE   PATT
  POIN2 Label_4_0102852B
 BYTE   PATT
  POIN2 Label_4_0102852B
 BYTE   PATT
  POIN2 Label_4_010285BE
 BYTE   PATT
  POIN2 Label_4_0102852B
 BYTE   PATT
  POIN2 Label_4_0102852B
 BYTE   PATT
  POIN2 Label_4_0102852B
 BYTE   PATT
  POIN2 Label_4_0102856D
 BYTE   PATT
  POIN2 Label_4_0102852B
 BYTE   PATT
  POIN2 Label_4_0102852B
 BYTE   PATT
  POIN2 Label_4_01028625
 BYTE   PATT
  POIN2 Label_4_01028662
 BYTE   PATT
  POIN2 Label_4_0102852B
 BYTE   PATT
  POIN2 Label_4_0102852B
 BYTE   PATT
  POIN2 Label_4_0102852B
 BYTE   PATT
  POIN2 Label_4_0102856D
 BYTE   PATT
  POIN2 Label_4_0102852B
 BYTE   PATT
  POIN2 Label_4_0102852B
 BYTE   PATT
  POIN2 Label_4_0102852B
 BYTE   PATT
  POIN2 Label_4_010285BE
 BYTE   PATT
  POIN2 Label_4_0102852B
 BYTE   PATT
  POIN2 Label_4_0102852B
 BYTE   PATT
  POIN2 Label_4_0102852B
 BYTE   PATT
  POIN2 Label_4_0102856D
 BYTE   PATT
  POIN2 Label_4_0102852B
 BYTE   PATT
  POIN2 Label_4_0102852B
 BYTE   PATT
  POIN2 Label_4_01028625
 BYTE   PATT
  POIN2 Label_4_01028662
// 007   ----------------------------------------
 BYTE   VOL   23*songBeedlesShop_mvl/mxv
 BYTE   N05  Gs2  v064
 BYTE   N05  Ds3  v088
 BYTE   N05  An3  v028
 BYTE   W01
 BYTE   VOL   21*songBeedlesShop_mvl/mxv
 BYTE   W03
 BYTE   Gs7
 BYTE   W05
 BYTE   Fs7
 BYTE   W02
 BYTE   En7
 BYTE   W01
 BYTE   Ds7
 BYTE   N05  An3  v016
 BYTE   W04
 BYTE   VOL   12*songBeedlesShop_mvl/mxv
 BYTE   W04
 BYTE   As6
 BYTE   W04
 BYTE   An6
 BYTE   N05  Gs2  v064
 BYTE   N05  An3  v016
 BYTE   W01
 BYTE   VOL   7*songBeedlesShop_mvl/mxv
 BYTE   W07
 BYTE   Fn6
 BYTE   W01
 BYTE   En6
 BYTE   W02
 BYTE   Dn6
 BYTE   W01
 BYTE   N05  Cs3  v088
 BYTE   N05  An3  v036
 BYTE   W05
 BYTE   VOL   0*songBeedlesShop_mvl/mxv
 BYTE   W03
 BYTE   As5
 BYTE   W04
 BYTE   N05  Gs2  v064
 BYTE   N05  Dn3  v104
 BYTE   N05  An3  v036
 BYTE   W03
 BYTE   VOL   0*songBeedlesShop_mvl/mxv
 BYTE   W05
 BYTE   Gn5
 BYTE   W01
 BYTE   Fs5
 BYTE   W03
 BYTE   N05  Cs3  v088
 BYTE   N05  An3  v016
 BYTE   W02
 BYTE   VOL   0*songBeedlesShop_mvl/mxv
 BYTE   W02
 BYTE   Ds5
 BYTE   W06
 BYTE   Cs5
 BYTE   W02
 BYTE   N05  Gs2  v064
 BYTE   N05  Ds3  v088
 BYTE   N05  An3  v016
 BYTE   W01
 BYTE   VOL   0*songBeedlesShop_mvl/mxv
 BYTE   W03
 BYTE   As4
 BYTE   W04
 BYTE   An4
 BYTE   W03
 BYTE   Gs4
 BYTE   W01
 BYTE   N05  En3  v088
 BYTE   N05  An3  v036
 BYTE   W04
 BYTE   VOL   0*songBeedlesShop_mvl/mxv
 BYTE   W06
 BYTE   Fn4
 BYTE   W02
// 008   ----------------------------------------
 BYTE   N05  Gs2  v064
 BYTE   N05  Ds3  v088
 BYTE   N05  An3  v028
 BYTE   W03
 BYTE   VOL   0*songBeedlesShop_mvl/mxv
 BYTE   W01
 BYTE   Dn4
 BYTE   W07
 BYTE   Cs4
 BYTE   W01
 BYTE   N05  An3  v016
 BYTE   W02
 BYTE   VOL   0*songBeedlesShop_mvl/mxv
 BYTE   W03
 BYTE   As3
 BYTE   W02
 BYTE   An3
 BYTE   W03
 BYTE   Gs3
 BYTE   W02
 BYTE   Fs3
 BYTE   N05  Gs2  v064
 BYTE   N05  An3  v016
 BYTE   W03
 BYTE   VOL   0*songBeedlesShop_mvl/mxv
 BYTE   W01
 BYTE   En3
 BYTE   W05
 BYTE   Ds3
 BYTE   W02
 BYTE   Cn3
 BYTE   W01
 BYTE   N05  Cs3  v088
 BYTE   N05  An3  v036
 BYTE   W05
 BYTE   VOL   0*songBeedlesShop_mvl/mxv
 BYTE   W02
 BYTE   As2
 BYTE   W03
 BYTE   Gs2
 BYTE   W02
 BYTE   N05  Gs2  v064
 BYTE   N05  Dn3  v104
 BYTE   N05  An3  v036
 BYTE   W03
 BYTE   VOL   0*songBeedlesShop_mvl/mxv
 BYTE   W05
 BYTE   Fn2
 BYTE   W01
 BYTE   En2
 BYTE   W03
 BYTE   Dn2
 BYTE   N05  Cs3  v088
 BYTE   N05  An3  v016
 BYTE   W07
 BYTE   VOL   0*songBeedlesShop_mvl/mxv
 BYTE   W03
 BYTE   Bn1
 BYTE   W02
 BYTE   N05  Gs2  v064
 BYTE   N05  Ds3  v088
 BYTE   N05  An3  v016
 BYTE   W03
 BYTE   VOL   0*songBeedlesShop_mvl/mxv
 BYTE   W03
 BYTE   Gs1
 BYTE   W03
 BYTE   Gn1
 BYTE   W03
 BYTE   Fs1
 BYTE   N05  En3  v088
 BYTE   N05  An3  v036
 BYTE   W04
 BYTE   VOL   0*songBeedlesShop_mvl/mxv
 BYTE   W01
 BYTE   Ds1
 BYTE   W03
 BYTE   Dn1
 BYTE   W04
// 009   ----------------------------------------
 BYTE   N05  Gs2  v064
 BYTE   N05  Ds3  v088
 BYTE   N05  An3  v028
 BYTE   W01
 BYTE   VOL   0*songBeedlesShop_mvl/mxv
 BYTE   W03
 BYTE   Bn0
 BYTE   W05
 BYTE   An0
 BYTE   W03
 BYTE   N05  An3  v016
 BYTE   W02
 BYTE   VOL   0*songBeedlesShop_mvl/mxv
 BYTE   W03
 BYTE   Gn0
 BYTE   W02
 BYTE   Gn0
 BYTE   W05
 BYTE   N05  Gs2  v064
 BYTE   N05  An3  v016
 BYTE   W01
 BYTE   VOL   0*songBeedlesShop_mvl/mxv
 BYTE   W02
 BYTE   Fn0
 BYTE   W05
 BYTE   En0
 BYTE   W01
 BYTE   Ds0
 BYTE   W03
 BYTE   N05  Cs3  v088
 BYTE   N05  An3  v036
 BYTE   W02
 BYTE   VOL   0*songBeedlesShop_mvl/mxv
 BYTE   W02
 BYTE   Cs0
 BYTE   W04
 BYTE   Cn0
 BYTE   W02
 BYTE   BnM1
 BYTE   W02
 BYTE   N05  Gs2  v064
 BYTE   N05  Dn3  v104
 BYTE   N05  An3  v036
 BYTE   W06
 BYTE   VOL   0*songBeedlesShop_mvl/mxv
 BYTE   W02
 BYTE   AnM1
 BYTE   W04
 BYTE   GsM1
 BYTE   N05  Cs3  v088
 BYTE   N05  An3  v016
 BYTE   W04
 BYTE   VOL   0*songBeedlesShop_mvl/mxv
 BYTE   W04
 BYTE   GnM1
 BYTE   W04
 BYTE   FsM1
 BYTE   N05  Gs2  v064
 BYTE   N05  Ds3  v088
 BYTE   N05  An3  v016
 BYTE   W01
 BYTE   VOL   0*songBeedlesShop_mvl/mxv
 BYTE   W02
 BYTE   EnM1
 BYTE   W05
 BYTE   EnM1
 BYTE   W01
 BYTE   DsM1
 BYTE   W03
 BYTE   N05  En3  v088
 BYTE   N05  An3  v036
 BYTE   W04
 BYTE   VOL   0*songBeedlesShop_mvl/mxv
 BYTE   W01
 BYTE   CsM1
 BYTE   W02
 BYTE   CsM1
 BYTE   W05
// 010   ----------------------------------------
 BYTE   CnM1
 BYTE   N05  Gs2  v064
 BYTE   N05  Ds3  v088
 BYTE   N05  An3  v028
 BYTE   N11  Dn4  v080
 BYTE   W01
 BYTE   VOL   0*songBeedlesShop_mvl/mxv
 BYTE   W02
 BYTE   BnM2
 BYTE   W06
 BYTE   AsM2
 BYTE   W02
 BYTE   AsM2
 BYTE   W01
 BYTE   N05  An3  v016
 BYTE   W02
 BYTE   VOL   0*songBeedlesShop_mvl/mxv
 BYTE   W05
 BYTE   GsM2
 BYTE   W01
 BYTE   GsM2
 BYTE   W02
 BYTE   GnM2
 BYTE   W02
 BYTE   N05  Gs2  v064
 BYTE   N05  An3  v016
 BYTE   N05  Cs4  v052
 BYTE   W03
 BYTE   VOL   0*songBeedlesShop_mvl/mxv
 BYTE   W01
 BYTE   FsM2
 BYTE   W05
 BYTE   FnM2
 BYTE   W03
 BYTE   FnM2
 BYTE   N05  Cs3  v088
 BYTE   N05  An3  v036
 BYTE   N05  Cs4  v100
 BYTE   W04
 BYTE   VOL   0*songBeedlesShop_mvl/mxv
 BYTE   W01
 BYTE   EnM2
 BYTE   W02
 BYTE   EnM2
 BYTE   W03
 BYTE   DsM2
 BYTE   W02
 BYTE   DsM2
 BYTE   N05  Gs2  v064
 BYTE   N05  Dn3  v104
 BYTE   N05  An3  v036
 BYTE   W01
 BYTE   VOL   0*songBeedlesShop_mvl/mxv
 BYTE   W05
 BYTE   DnM2
 BYTE   W02
 BYTE   DnM2
 BYTE   W04
 BYTE   N05  Cs3  v088
 BYTE   N05  An3  v016
 BYTE   W02
 BYTE   VOL   0*songBeedlesShop_mvl/mxv
 BYTE   W02
 BYTE   CsM2
 BYTE   W03
 BYTE   CsM2
 BYTE   W03
 BYTE   CsM2
 BYTE   W02
 BYTE   N05  Gs2  v064
 BYTE   N05  Ds3  v088
 BYTE   N05  An3  v016
 BYTE   W01
 BYTE   VOL   0*songBeedlesShop_mvl/mxv
 BYTE   W02
 BYTE   CnM2
 BYTE   W05
 BYTE   CnM2
 BYTE   W03
 BYTE   CnM2
 BYTE   W01
 BYTE   N05  En3  v088
 BYTE   N05  An3  v036
 BYTE   W02
 BYTE   GoTo
  POIN2 Label_4_0102849E
// 011   ----------------------------------------
 BYTE   VOL   0*songBeedlesShop_mvl/mxv
 BYTE   W05
 BYTE   CnM2
 BYTE   W04
 BYTE   FINE

//******************************************************//
	ALIGN 4

songBeedlesShop:
	BYTE	5	// NumTrks
	BYTE	0	// NumBlks
	BYTE	songBeedlesShop_pri	// Priority
	BYTE	songBeedlesShop_rev	// Reverb.
    
	POIN2	songBeedlesShop_grp
    
	POIN2	songBeedlesShop_001
	POIN2	songBeedlesShop_002
	POIN2	songBeedlesShop_003
	POIN2	songBeedlesShop_004
	POIN2	songBeedlesShop_005

	
