//Event file generated from Sappy .s format.
	#include "MPlayDef.event"

	#define	Bergentruckung_grp  voicegroup000
	#define	Bergentruckung_pri  0
	#define	Bergentruckung_rev  0
	#define	Bergentruckung_mvl  45
	#define	Bergentruckung_key  0
	#define	Bergentruckung_tbs  1
	#define	Bergentruckung_exg  0
	#define	Bergentruckung_cmp  1

	// .rodata
	//	Bergentruckung
	ALIGN 4

//**************** Track 1 (Midi-Chn.1) ****************//

Bergentruckung_1:
	BYTE	KEYSH   Bergentruckung_key+0
// 000   ----------------------------------------
	BYTE	TEMPO   113*Bergentruckung_tbs/2
	BYTE		VOICE   60
	BYTE		VOL     107*Bergentruckung_mvl/mxv
	BYTE		N06     Gs2   v127
	BYTE		N06     En3 
	BYTE	W12
	BYTE		        Gs2   v064
	BYTE		N06     En3 
	BYTE	W12
	BYTE		        Bn2   v127
	BYTE		N06     Gs3 
	BYTE	W12
	BYTE		        Bn2   v064
	BYTE		N06     Gs3 
	BYTE	W12
Bergentruckung_1_B1:
	BYTE		N24     Cs3   v127
	BYTE		N24     Fs3 
	BYTE	W06
	BYTE		N03     Gs2 
	BYTE	W06
	BYTE		        An2 
	BYTE	W06
	BYTE		        Gs2 
	BYTE	W06
	BYTE		        Fs2 
	BYTE	W06
	BYTE		        Gs2 
	BYTE		N06     Fs3 
	BYTE	W06
	BYTE		N03     Bn2 
	BYTE		N06     Gs3 
	BYTE	W06
	BYTE		N03     Gs2 
	BYTE	W06
// 001   ----------------------------------------
Bergentruckung_1_001:
	BYTE		N12     Cs3   v127
	BYTE	W06
	BYTE		N03     Ds2 
	BYTE	W06
	BYTE		        Fs2 
	BYTE	W06
	BYTE		        Gs2 
	BYTE		N12     Ds3 
	BYTE	W12
	BYTE		N03     Bn2 
	BYTE	W06
	BYTE		N06     En3 
	BYTE	W06
	BYTE		N03     Cs3 
	BYTE	W06
	BYTE		N42     Gs3 
	BYTE	W06
	BYTE		N03     Cs3 
	BYTE	W06
	BYTE		        Ds3 
	BYTE	W06
	BYTE		        Bn2 
	BYTE	W12
	BYTE		        Cs3 
	BYTE	W06
	BYTE		        Bn2 
	BYTE	W06
	BYTE		        Gs2 
	BYTE	W06
	BYTE	PEND
// 002   ----------------------------------------
Bergentruckung_1_002:
	BYTE		N06     Gs2   v127
	BYTE		N06     En3 
	BYTE	W06
	BYTE		N03     Ds2 
	BYTE	W06
	BYTE		        En2 
	BYTE		N06     Gs2   v064
	BYTE		N06     En3 
	BYTE	W06
	BYTE		N03     Gs2   v127
	BYTE	W06
	BYTE		        Fs2 
	BYTE		N06     Bn2 
	BYTE		N06     Gs3 
	BYTE	W06
	BYTE		N03     Bn2 
	BYTE	W06
	BYTE		N06     Bn2   v064
	BYTE		N03     Ds3   v127
	BYTE		N06     Gs3   v064
	BYTE	W06
	BYTE		N03     Bn2   v127
	BYTE	W06
	BYTE		N24     Cs3 
	BYTE		N24     Fs3 
	BYTE	W06
	BYTE		N03     Fs2 
	BYTE	W06
	BYTE		        Gs2 
	BYTE	W06
	BYTE		        Fs2 
	BYTE	W06
	BYTE		        Gs2 
	BYTE	W06
	BYTE		        Bn2 
	BYTE		N06     Fs3 
	BYTE	W06
	BYTE		N03     Fs2 
	BYTE		N06     Gs3 
	BYTE	W06
	BYTE		N03     Gs2 
	BYTE	W06
	BYTE	PEND
// 003   ----------------------------------------
Bergentruckung_1_003:
	BYTE		N12     Cs3   v127
	BYTE	W06
	BYTE		N03     Ds2 
	BYTE	W06
	BYTE		        Fs2 
	BYTE	W06
	BYTE		        Gs2 
	BYTE		N12     Ds3 
	BYTE	W06
	BYTE		N03     Fs2 
	BYTE	W06
	BYTE		        Cs3 
	BYTE	W06
	BYTE		        Ds3 
	BYTE		N06     Bn3 
	BYTE	W06
	BYTE		N03     Bn2 
	BYTE	W06
	BYTE		N42     Gs3 
	BYTE	W06
	BYTE		N03     Bn2 
	BYTE	W06
	BYTE		        Cs3 
	BYTE	W06
	BYTE		        Gs2 
	BYTE	W06
	BYTE		        Bn2 
	BYTE	W06
	BYTE		        Cs3 
	BYTE	W06
	BYTE		        En3 
	BYTE	W06
	BYTE		        Bn2 
	BYTE	W06
	BYTE	PEND
// 004   ----------------------------------------
Bergentruckung_1_004:
	BYTE		N06     Cs3   v127
	BYTE		N06     Gs3 
	BYTE	W12
	BYTE		        Cs3   v064
	BYTE		N06     Gs3 
	BYTE	W12
	BYTE		        Ds3   v127
	BYTE		N06     An3 
	BYTE	W12
	BYTE		        Ds3   v064
	BYTE		N06     An3 
	BYTE	W12
	BYTE		N36     En3   v127
	BYTE		N36     Bn3 
	BYTE	W36
	BYTE		N06     Fs3 
	BYTE		N06     Cs4 
	BYTE	W12
	BYTE	PEND
// 005   ----------------------------------------
Bergentruckung_1_005:
	BYTE		N12     Gs2   v127
	BYTE		N12     En3 
	BYTE	W18
	BYTE		        Bn2 
	BYTE		N12     Fs3 
	BYTE	W18
	BYTE		N06     Cs3 
	BYTE		N06     Gs3 
	BYTE	W12
	BYTE		N36     Ds3 
	BYTE		N36     Bn3 
	BYTE	W36
	BYTE		N06     En3 
	BYTE		N06     Cs4 
	BYTE	W12
	BYTE	PEND
// 006   ----------------------------------------
Bergentruckung_1_006:
	BYTE		N12     Fs2   v127
	BYTE		N12     Ds3 
	BYTE	W18
	BYTE		        Fs3 
	BYTE		N12     Ds4 
	BYTE	W18
	BYTE		        Ds3 
	BYTE		N12     Bn3 
	BYTE	W12
	BYTE		N84     En3 
	BYTE		N84     Gs3 
	BYTE	W48
	BYTE	PEND
// 007   ----------------------------------------
Bergentruckung_1_007:
	BYTE	W36
	BYTE		N06     Fs3   v127
	BYTE		N06     An3 
	BYTE	W06
	BYTE		        En3 
	BYTE		N06     Gs3 
	BYTE	W06
	BYTE		N24     Ds3 
	BYTE		N24     Fs3 
	BYTE	W48
	BYTE	PEND
// 008   ----------------------------------------
	BYTE		N06     Gs2 
	BYTE		N06     En3 
	BYTE	W12
	BYTE		        Gs2   v064
	BYTE		N06     En3 
	BYTE	W12
	BYTE		        Bn2   v127
	BYTE		N06     Gs3 
	BYTE	W12
	BYTE		        Bn2   v064
	BYTE		N06     Gs3 
	BYTE	W12
	BYTE		N24     Cs3   v127
	BYTE		N24     Fs3 
	BYTE	W06
	BYTE		N03     Gs2 
	BYTE	W06
	BYTE		        An2 
	BYTE	W06
	BYTE		        Gs2 
	BYTE	W06
	BYTE		        Fs2 
	BYTE	W06
	BYTE		        Gs2 
	BYTE		N06     Fs3 
	BYTE	W06
	BYTE		N03     Bn2 
	BYTE		N06     Gs3 
	BYTE	W06
	BYTE		N03     Gs2 
	BYTE	W06
// 009   ----------------------------------------
	BYTE	PATT
	 POIN2	Bergentruckung_1_001
// 010   ----------------------------------------
	BYTE	PATT
	 POIN2	Bergentruckung_1_002
// 011   ----------------------------------------
	BYTE	PATT
	 POIN2	Bergentruckung_1_003
// 012   ----------------------------------------
	BYTE	PATT
	 POIN2	Bergentruckung_1_004
// 013   ----------------------------------------
	BYTE	PATT
	 POIN2	Bergentruckung_1_005
// 014   ----------------------------------------
	BYTE	PATT
	 POIN2	Bergentruckung_1_006
// 015   ----------------------------------------
	BYTE	PATT
	 POIN2	Bergentruckung_1_007
// 016   ----------------------------------------
	BYTE		N06     Gs2   v127
	BYTE		N06     En3 
	BYTE	W12
	BYTE		        Gs2   v064
	BYTE		N06     En3 
	BYTE	W12
	BYTE		        Fs2   v127
	BYTE		N06     Ds3 
	BYTE	W12
	BYTE		        Fs2   v064
	BYTE		N06     Ds3 
	BYTE	W12
	BYTE		N03     Cs2   v127
	BYTE		N03     Cs3 
	BYTE	W03
	BYTE		        Cs2   v064
	BYTE		N03     Cs3 
	BYTE	W03
	BYTE		        En2   v127
	BYTE		N03     En3 
	BYTE	W03
	BYTE		        En2   v064
	BYTE		N03     En3 
	BYTE	W03
	BYTE		        Ds2   v127
	BYTE		N03     Ds3 
	BYTE	W03
	BYTE		        Ds2   v064
	BYTE		N03     Ds3 
	BYTE	W03
	BYTE		        En2   v127
	BYTE		N03     En3 
	BYTE	W03
	BYTE		        En2   v064
	BYTE		N03     En3 
	BYTE	W03
	BYTE		        Cs2   v127
	BYTE		N03     Cs3 
	BYTE	W03
	BYTE		        Cs2   v064
	BYTE		N03     Cs3 
	BYTE	W03
	BYTE		        Cs2   v032
	BYTE		N03     Cs3 
	BYTE	W03
	BYTE		        Cs2   v016
	BYTE		N03     Cs3 
	BYTE	W09
	BYTE		N12     Cs2   v127
	BYTE		N12     Cs3 
	BYTE	W06
// 017   ----------------------------------------
Bergentruckung_1_017:
	BYTE	W06
	BYTE		N03     Ds2   v127
	BYTE		N03     Ds3 
	BYTE	W03
	BYTE		        Ds2   v064
	BYTE		N03     Ds3 
	BYTE	W03
	BYTE		        En2   v127
	BYTE		N03     En3 
	BYTE	W03
	BYTE		        En2   v064
	BYTE		N03     En3 
	BYTE	W03
	BYTE		        Bn2   v127
	BYTE		N03     Bn3 
	BYTE	W03
	BYTE		        Bn2   v064
	BYTE		N03     Bn3 
	BYTE	W03
	BYTE		        Gs2   v127
	BYTE		N03     Gs3 
	BYTE	W03
	BYTE		        Gs2   v064
	BYTE		N03     Gs3 
	BYTE	W03
	BYTE		        Gs2   v032
	BYTE		N03     Gs3 
	BYTE	W03
	BYTE		        Gs2   v016
	BYTE		N03     Gs3 
	BYTE	W15
	BYTE		        Cs2   v127
	BYTE		N03     Cs3 
	BYTE	W03
	BYTE		        Cs2   v064
	BYTE		N03     Cs3 
	BYTE	W03
	BYTE		        En2   v127
	BYTE		N03     En3 
	BYTE	W03
	BYTE		        En2   v064
	BYTE		N03     En3 
	BYTE	W03
	BYTE		        Ds2   v127
	BYTE		N03     Ds3 
	BYTE	W03
	BYTE		        Ds2   v064
	BYTE		N03     Ds3 
	BYTE	W03
	BYTE		        En2   v127
	BYTE		N03     En3 
	BYTE	W03
	BYTE		        En2   v064
	BYTE		N03     En3 
	BYTE	W03
	BYTE		        Cs2   v127
	BYTE		N03     Cs3 
	BYTE	W03
	BYTE		        Cs2   v064
	BYTE		N03     Cs3 
	BYTE	W03
	BYTE		        Cs2   v032
	BYTE		N03     Cs3 
	BYTE	W03
	BYTE		        Cs2   v016
	BYTE		N03     Cs3 
	BYTE	W09
	BYTE		N12     Cs2   v127
	BYTE		N12     Cs3 
	BYTE	W06
	BYTE	PEND
// 018   ----------------------------------------
	BYTE	PATT
	 POIN2	Bergentruckung_1_017
// 019   ----------------------------------------
Bergentruckung_1_019:
	BYTE	W06
	BYTE		N03     Ds2   v127
	BYTE		N03     Ds3 
	BYTE	W03
	BYTE		        Ds2   v064
	BYTE		N03     Ds3 
	BYTE	W03
	BYTE		        En2   v127
	BYTE		N03     En3 
	BYTE	W03
	BYTE		        En2   v064
	BYTE		N03     En3 
	BYTE	W03
	BYTE		        Bn2   v127
	BYTE		N03     Bn3 
	BYTE	W03
	BYTE		        Bn2   v064
	BYTE		N03     Bn3 
	BYTE	W03
	BYTE		        Gs2   v127
	BYTE		N03     Gs3 
	BYTE	W03
	BYTE		        Gs2   v064
	BYTE		N03     Gs3 
	BYTE	W03
	BYTE		        Gs2   v032
	BYTE		N03     Gs3 
	BYTE	W03
	BYTE		        Gs2   v016
	BYTE		N03     Gs3 
	BYTE	W15
	BYTE		N18     Bn1   v127
	BYTE		N18     Bn2 
	BYTE	W18
	BYTE		        Fs2 
	BYTE		N18     Fs3 
	BYTE	W18
	BYTE		N06     En2 
	BYTE		N06     En3 
	BYTE	W06
	BYTE		N03     En2   v064
	BYTE		N03     En3 
	BYTE	W03
	BYTE		        Dn2   v127
	BYTE		N03     Dn3 
	BYTE	W03
	BYTE	PEND
// 020   ----------------------------------------
	BYTE		N06     Ds2 
	BYTE		N06     Ds3 
	BYTE	W06
	BYTE		        Cs2 
	BYTE		N06     Cs3 
	BYTE	W06
	BYTE		        Cs2   v064
	BYTE		N06     Cs3 
	BYTE	W06
	BYTE		N12     Bn1   v127
	BYTE		N12     Bn2 
	BYTE	W12
	BYTE		N03     Cs2 
	BYTE		N03     Cs3 
	BYTE	W03
	BYTE		        Dn2 
	BYTE		N03     Dn3 
	BYTE	W03
	BYTE		N12     Ds2 
	BYTE		N12     Ds3 
	BYTE	W12
	BYTE		N03     Cs2 
	BYTE		N03     Cs3 
	BYTE	W03
	BYTE		        Cs2   v064
	BYTE		N03     Cs3 
	BYTE	W03
	BYTE		        En2   v127
	BYTE		N03     En3 
	BYTE	W03
	BYTE		        En2   v064
	BYTE		N03     En3 
	BYTE	W03
	BYTE		        Ds2   v127
	BYTE		N03     Ds3 
	BYTE	W03
	BYTE		        Ds2   v064
	BYTE		N03     Ds3 
	BYTE	W03
	BYTE		        En2   v127
	BYTE		N03     En3 
	BYTE	W03
	BYTE		        En2   v064
	BYTE		N03     En3 
	BYTE	W03
	BYTE		        Cs2   v127
	BYTE		N03     Cs3 
	BYTE	W03
	BYTE		        Cs2   v064
	BYTE		N03     Cs3 
	BYTE	W03
	BYTE		        Cs2   v032
	BYTE		N03     Cs3 
	BYTE	W03
	BYTE		        Cs2   v016
	BYTE		N03     Cs3 
	BYTE	W09
	BYTE		N12     Cs2   v127
	BYTE		N12     Cs3 
	BYTE	W06
// 021   ----------------------------------------
	BYTE	PATT
	 POIN2	Bergentruckung_1_017
// 022   ----------------------------------------
	BYTE	PATT
	 POIN2	Bergentruckung_1_017
// 023   ----------------------------------------
	BYTE	PATT
	 POIN2	Bergentruckung_1_019
// 024   ----------------------------------------
	BYTE		N06     Ds2   v127
	BYTE		N06     Ds3 
	BYTE	W06
	BYTE		        Cs2 
	BYTE		N06     Cs3 
	BYTE	W06
	BYTE		        Cs2   v064
	BYTE		N06     Cs3 
	BYTE	W06
	BYTE		N12     Bn1   v127
	BYTE		N12     Bn2 
	BYTE	W12
	BYTE		N03     Cs2 
	BYTE		N03     Cs3 
	BYTE	W03
	BYTE		        Dn2 
	BYTE		N03     Dn3 
	BYTE	W03
	BYTE		N12     Ds2 
	BYTE		N12     Ds3 
	BYTE	W12
	BYTE		N03     En2 
	BYTE		N03     Cs3 
	BYTE	W03
	BYTE		        En2   v064
	BYTE		N03     Cs3 
	BYTE	W03
	BYTE		        Gs2   v127
	BYTE		N03     En3 
	BYTE	W03
	BYTE		        Gs2   v064
	BYTE		N03     En3 
	BYTE	W03
	BYTE		        Fs2   v127
	BYTE		N03     Ds3 
	BYTE	W03
	BYTE		        Fs2   v064
	BYTE		N03     Ds3 
	BYTE	W03
	BYTE		        Gs2   v127
	BYTE		N03     En3 
	BYTE	W03
	BYTE		        Gs2   v064
	BYTE		N03     En3 
	BYTE	W03
	BYTE		        En2   v127
	BYTE		N03     Cs3 
	BYTE	W03
	BYTE		        En2   v064
	BYTE		N03     Cs3 
	BYTE	W03
	BYTE		        En2   v032
	BYTE		N03     Cs3 
	BYTE	W03
	BYTE		        En2   v016
	BYTE		N03     Cs3 
	BYTE	W09
	BYTE		N12     En2   v127
	BYTE		N12     Cs3 
	BYTE	W06
// 025   ----------------------------------------
Bergentruckung_1_025:
	BYTE	W06
	BYTE		N03     Fs2   v127
	BYTE		N03     Ds3 
	BYTE	W03
	BYTE		        Fs2   v064
	BYTE		N03     Ds3 
	BYTE	W03
	BYTE		        Gs2   v127
	BYTE		N03     En3 
	BYTE	W03
	BYTE		        Gs2   v064
	BYTE		N03     En3 
	BYTE	W03
	BYTE		        En3   v127
	BYTE		N03     Bn3 
	BYTE	W03
	BYTE		        En3   v064
	BYTE		N03     Bn3 
	BYTE	W03
	BYTE		        Cs3   v127
	BYTE		N03     Gs3 
	BYTE	W03
	BYTE		        Cs3   v064
	BYTE		N03     Gs3 
	BYTE	W03
	BYTE		        Cs3   v032
	BYTE		N03     Gs3 
	BYTE	W03
	BYTE		        Cs3   v016
	BYTE		N03     Gs3 
	BYTE	W15
	BYTE		        En2   v127
	BYTE		N03     Cs3 
	BYTE	W03
	BYTE		        En2   v064
	BYTE		N03     Cs3 
	BYTE	W03
	BYTE		        Gs2   v127
	BYTE		N03     En3 
	BYTE	W03
	BYTE		        Gs2   v064
	BYTE		N03     En3 
	BYTE	W03
	BYTE		        Fs2   v127
	BYTE		N03     Ds3 
	BYTE	W03
	BYTE		        Fs2   v064
	BYTE		N03     Ds3 
	BYTE	W03
	BYTE		        Gs2   v127
	BYTE		N03     En3 
	BYTE	W03
	BYTE		        Gs2   v064
	BYTE		N03     En3 
	BYTE	W03
	BYTE		        En2   v127
	BYTE		N03     Cs3 
	BYTE	W03
	BYTE		        En2   v064
	BYTE		N03     Cs3 
	BYTE	W03
	BYTE		        En2   v032
	BYTE		N03     Cs3 
	BYTE	W03
	BYTE		        En2   v016
	BYTE		N03     Cs3 
	BYTE	W09
	BYTE		N12     En2   v127
	BYTE		N12     Cs3 
	BYTE	W06
	BYTE	PEND
// 026   ----------------------------------------
	BYTE	PATT
	 POIN2	Bergentruckung_1_025
// 027   ----------------------------------------
Bergentruckung_1_027:
	BYTE	W06
	BYTE		N03     Fs2   v127
	BYTE		N03     Ds3 
	BYTE	W03
	BYTE		        Fs2   v064
	BYTE		N03     Ds3 
	BYTE	W03
	BYTE		        Gs2   v127
	BYTE		N03     En3 
	BYTE	W03
	BYTE		        Gs2   v064
	BYTE		N03     En3 
	BYTE	W03
	BYTE		        En3   v127
	BYTE		N03     Bn3 
	BYTE	W03
	BYTE		        En3   v064
	BYTE		N03     Bn3 
	BYTE	W03
	BYTE		        Cs3   v127
	BYTE		N03     Gs3 
	BYTE	W03
	BYTE		        Cs3   v064
	BYTE		N03     Gs3 
	BYTE	W03
	BYTE		        Cs3   v032
	BYTE		N03     Gs3 
	BYTE	W03
	BYTE		        Cs3   v016
	BYTE		N03     Gs3 
	BYTE	W15
	BYTE		        Ds2   v127
	BYTE		N18     Bn2 
	BYTE	W03
	BYTE		N03     Ds2   v064
	BYTE	W03
	BYTE		        Fs2   v127
	BYTE	W03
	BYTE		        Fs2   v064
	BYTE	W03
	BYTE		        Gs2   v127
	BYTE	W03
	BYTE		        Gs2   v064
	BYTE	W03
	BYTE		        Fs2   v127
	BYTE		N18     Fs3 
	BYTE	W03
	BYTE		N03     Fs2   v064
	BYTE	W09
	BYTE		        Gs2   v127
	BYTE	W03
	BYTE		        Gs2   v064
	BYTE	W03
	BYTE		N06     Bn2   v127
	BYTE		N06     En3 
	BYTE	W06
	BYTE		        Bn2   v064
	BYTE		N03     En3 
	BYTE	W03
	BYTE		        Dn3   v127
	BYTE	W03
	BYTE	PEND
// 028   ----------------------------------------
Bergentruckung_1_028:
	BYTE		N06     Bn2   v127
	BYTE		N06     Ds3 
	BYTE	W06
	BYTE		        Gs2 
	BYTE		N06     Cs3 
	BYTE	W06
	BYTE		        Gs2   v064
	BYTE		N06     Cs3 
	BYTE	W06
	BYTE		N12     Fs2   v127
	BYTE		N12     Bn2 
	BYTE	W12
	BYTE		N06     Fs2   v064
	BYTE		N03     Cs3   v127
	BYTE	W03
	BYTE		        Dn3 
	BYTE	W03
	BYTE		N12     Bn2 
	BYTE		N12     Ds3 
	BYTE	W12
	BYTE		N03     En2 
	BYTE		N03     Cs3 
	BYTE	W03
	BYTE		        En2   v064
	BYTE		N03     Cs3 
	BYTE	W03
	BYTE		        Gs2   v127
	BYTE		N03     En3 
	BYTE	W03
	BYTE		        Gs2   v064
	BYTE		N03     En3 
	BYTE	W03
	BYTE		        Fs2   v127
	BYTE		N03     Ds3 
	BYTE	W03
	BYTE		        Fs2   v064
	BYTE		N03     Ds3 
	BYTE	W03
	BYTE		        Gs2   v127
	BYTE		N03     En3 
	BYTE	W03
	BYTE		        Gs2   v064
	BYTE		N03     En3 
	BYTE	W03
	BYTE		        En2   v127
	BYTE		N03     Cs3 
	BYTE	W03
	BYTE		        En2   v064
	BYTE		N03     Cs3 
	BYTE	W03
	BYTE		        En2   v032
	BYTE		N03     Cs3 
	BYTE	W03
	BYTE		        En2   v016
	BYTE		N03     Cs3 
	BYTE	W09
	BYTE		N12     En2   v127
	BYTE		N12     Cs3 
	BYTE	W06
	BYTE	PEND
// 029   ----------------------------------------
	BYTE	PATT
	 POIN2	Bergentruckung_1_025
// 030   ----------------------------------------
	BYTE	PATT
	 POIN2	Bergentruckung_1_025
// 031   ----------------------------------------
Bergentruckung_1_031:
	BYTE	W06
	BYTE		N03     Fs2   v127
	BYTE		N03     Ds3 
	BYTE	W03
	BYTE		        Fs2   v064
	BYTE		N03     Ds3 
	BYTE	W03
	BYTE		        Gs2   v127
	BYTE		N03     En3 
	BYTE	W03
	BYTE		        Gs2   v064
	BYTE		N03     En3 
	BYTE	W03
	BYTE		        En3   v127
	BYTE		N03     Bn3 
	BYTE	W03
	BYTE		        En3   v064
	BYTE		N03     Bn3 
	BYTE	W03
	BYTE		        Cs3   v127
	BYTE		N03     Gs3 
	BYTE	W03
	BYTE		        Cs3   v064
	BYTE		N03     Gs3 
	BYTE	W03
	BYTE		        Cs3   v032
	BYTE		N03     Gs3 
	BYTE	W03
	BYTE		        Cs3   v016
	BYTE		N03     Gs3 
	BYTE	W15
	BYTE		        Ds2   v127
	BYTE		N18     Cn3 
	BYTE	W03
	BYTE		N03     Ds2   v064
	BYTE	W03
	BYTE		        Fs2   v127
	BYTE	W03
	BYTE		        Fs2   v064
	BYTE	W03
	BYTE		        Gs2   v127
	BYTE	W03
	BYTE		        Gs2   v064
	BYTE	W03
	BYTE		        Fs2   v127
	BYTE		N18     Fs3 
	BYTE	W03
	BYTE		N03     Fs2   v064
	BYTE	W09
	BYTE		        Gs2   v127
	BYTE	W03
	BYTE		        Gs2   v064
	BYTE	W03
	BYTE		N06     Cn3   v127
	BYTE		N06     En3 
	BYTE	W06
	BYTE		        Cn3   v064
	BYTE		N03     En3 
	BYTE	W03
	BYTE		        Dn3   v127
	BYTE	W03
	BYTE	PEND
// 032   ----------------------------------------
	BYTE		N06     Cn3 
	BYTE		N06     Ds3 
	BYTE	W06
	BYTE		        Gs2 
	BYTE		N06     Cs3 
	BYTE	W06
	BYTE		        Gs2   v064
	BYTE		N06     Cs3 
	BYTE	W06
	BYTE		N12     Fs2   v127
	BYTE		N12     Cn3 
	BYTE	W12
	BYTE		N06     Fs2   v064
	BYTE		N03     Cs3   v127
	BYTE	W03
	BYTE		        Dn3 
	BYTE	W03
	BYTE		N12     Gs2 
	BYTE		N12     Ds3 
	BYTE	W12
	BYTE		N03     En2 
	BYTE		N03     Cs3 
	BYTE	W03
	BYTE		        En2   v064
	BYTE		N03     Cs3 
	BYTE	W03
	BYTE		        Gs2   v127
	BYTE		N03     En3 
	BYTE	W03
	BYTE		        Gs2   v064
	BYTE		N03     En3 
	BYTE	W03
	BYTE		        Fs2   v127
	BYTE		N03     Ds3 
	BYTE	W03
	BYTE		        Fs2   v064
	BYTE		N03     Ds3 
	BYTE	W03
	BYTE		        Gs2   v127
	BYTE		N03     En3 
	BYTE	W03
	BYTE		        Gs2   v064
	BYTE		N03     En3 
	BYTE	W03
	BYTE		        En2   v127
	BYTE		N03     Cs3 
	BYTE	W03
	BYTE		        En2   v064
	BYTE		N03     Cs3 
	BYTE	W03
	BYTE		        En2   v032
	BYTE		N03     Cs3 
	BYTE	W03
	BYTE		        En2   v016
	BYTE		N03     Cs3 
	BYTE	W09
	BYTE		N12     En2   v127
	BYTE		N12     Cs3 
	BYTE	W06
// 033   ----------------------------------------
	BYTE	PATT
	 POIN2	Bergentruckung_1_025
// 034   ----------------------------------------
	BYTE	PATT
	 POIN2	Bergentruckung_1_025
// 035   ----------------------------------------
	BYTE	PATT
	 POIN2	Bergentruckung_1_027
// 036   ----------------------------------------
	BYTE	PATT
	 POIN2	Bergentruckung_1_028
// 037   ----------------------------------------
	BYTE	PATT
	 POIN2	Bergentruckung_1_025
// 038   ----------------------------------------
	BYTE	PATT
	 POIN2	Bergentruckung_1_025
// 039   ----------------------------------------
	BYTE	PATT
	 POIN2	Bergentruckung_1_031
// 040   ----------------------------------------
	BYTE		N06     Cn3   v127
	BYTE		N06     Ds3 
	BYTE	W06
	BYTE		        Gs2 
	BYTE		N06     Cs3 
	BYTE	W06
	BYTE		        Gs2   v064
	BYTE		N06     Cs3 
	BYTE	W06
	BYTE		N12     Fs2   v127
	BYTE		N12     Cn3 
	BYTE	W12
	BYTE		N06     Fs2   v064
	BYTE		N03     Cs3   v127
	BYTE	W03
	BYTE		        Dn3 
	BYTE	W03
	BYTE		N12     Gs2 
	BYTE		N12     Ds3 
	BYTE	W12
	BYTE		        An1 
	BYTE		N72     Gs3 
	BYTE		N72     Cs4 
	BYTE	W24
	BYTE		N12     An1 
	BYTE	W24
// 041   ----------------------------------------
	BYTE		N12   
	BYTE	W24
	BYTE		N06   
	BYTE		N06     En3 
	BYTE	W06
	BYTE		        En3   v064
	BYTE		N06     Gs3 
	BYTE	W06
	BYTE		N12     Cs2   v127
	BYTE		N06     Fs3 
	BYTE		N06     Bn3 
	BYTE	W06
	BYTE		        Fs3   v064
	BYTE		N06     Bn3 
	BYTE	W06
	BYTE		N12     Bn1   v127
	BYTE		N36     Gs3 
	BYTE		N36     Cs4 
	BYTE	W24
	BYTE		N12     Bn1 
	BYTE	W12
	BYTE		        Bn3 
	BYTE		N12     En4 
	BYTE	W12
// 042   ----------------------------------------
	BYTE		        Bn1 
	BYTE		N06     Cs4 
	BYTE		N06     Fs4 
	BYTE	W06
	BYTE		        Bn3 
	BYTE		N06     En4 
	BYTE	W06
	BYTE		N03     Bn3   v064
	BYTE		N03     En4 
	BYTE	W03
	BYTE		        Dn4   v127
	BYTE	W03
	BYTE		N12     Gs3 
	BYTE		N12     Ds4 
	BYTE	W06
	BYTE		N06     Bn1 
	BYTE	W06
	BYTE		        Gs3   v064
	BYTE		N06     Ds4 
	BYTE	W06
	BYTE		N12     Ds2   v127
	BYTE		N12     Bn3 
	BYTE		N12     En4 
	BYTE	W12
	BYTE		        Cs2 
	BYTE		N42     Gs3 
	BYTE		N42     Cs4 
	BYTE	W24
	BYTE		N12     Cs2 
	BYTE	W24
// 043   ----------------------------------------
	BYTE		N12   
	BYTE		N06     Gs3 
	BYTE	W06
	BYTE		        Gs3   v064
	BYTE	W06
	BYTE		        Gs3   v127
	BYTE	W06
	BYTE		N12     Cs2 
	BYTE		N06     Bn3 
	BYTE	W06
	BYTE		        Bn3   v064
	BYTE	W06
	BYTE		N03     Bn3   v127
	BYTE	W03
	BYTE		        Ds4 
	BYTE	W03
	BYTE		N12     Bn1 
	BYTE		N06     En4 
	BYTE	W06
	BYTE		        En4   v064
	BYTE	W06
	BYTE		        Gs1   v127
	BYTE		N36     Ds4 
	BYTE	W18
	BYTE		N06     Gs1 
	BYTE	W18
	BYTE		N06   
	BYTE	W12
// 044   ----------------------------------------
	BYTE		        Cs2 
	BYTE		N18     En3 
	BYTE		N18     Cs4 
	BYTE	W06
	BYTE		N06     Cs2   v096
	BYTE	W06
	BYTE		        Cs2   v064
	BYTE	W06
	BYTE		        Ds2   v127
	BYTE		N18     Gs3 
	BYTE		N18     En4 
	BYTE	W06
	BYTE		N06     Ds2   v096
	BYTE	W06
	BYTE		        Ds2   v064
	BYTE	W06
	BYTE		        Gs2 
	BYTE		N12     Bn3   v127
	BYTE		N12     Fs4 
	BYTE	W06
	BYTE		N06     Gs2   v064
	BYTE	W06
	BYTE		N48     Cs4   v127
	BYTE		N48     Gs4 
	BYTE	W48
// 045   ----------------------------------------
Bergentruckung_1_045:
	BYTE	W24
	BYTE		N06     Gs3   v127
	BYTE		N06     En4 
	BYTE	W06
	BYTE		        Gs3   v064
	BYTE		N06     En4 
	BYTE	W06
	BYTE		        Bn3   v127
	BYTE		N06     Fs4 
	BYTE	W06
	BYTE		        Bn3   v064
	BYTE		N06     Fs4 
	BYTE	W06
	BYTE		N24     Cs4   v127
	BYTE		N24     Gs4 
	BYTE	W36
	BYTE		N12     Bn3 
	BYTE		N12     Fs4 
	BYTE	W12
	BYTE	PEND
// 046   ----------------------------------------
	BYTE		        Gs3 
	BYTE		N12     En4 
	BYTE	W12
	BYTE		N06     Bn3 
	BYTE		N06     Fs4 
	BYTE	W06
	BYTE		        Fs3 
	BYTE		N06     Ds4 
	BYTE	W18
	BYTE		N12     Ds3 
	BYTE		N12     Bn3 
	BYTE	W12
	BYTE		N48     En3 
	BYTE		N48     Cs4 
	BYTE	W48
// 047   ----------------------------------------
	BYTE	W24
	BYTE		N06     Gs3 
	BYTE		N06     En4 
	BYTE	W06
	BYTE		        Gs3   v064
	BYTE		N06     En4 
	BYTE	W06
	BYTE		        Bn3   v127
	BYTE		N06     Fs4 
	BYTE	W06
	BYTE		        Bn3   v064
	BYTE		N06     Fs4 
	BYTE	W06
	BYTE		N24     Cs4   v127
	BYTE		N24     Gs4 
	BYTE	W32
	BYTE	W01
	BYTE		N03     Fn4 
	BYTE	W03
	BYTE		N06     Bn3 
	BYTE		N06     Fs4 
	BYTE	W12
// 048   ----------------------------------------
	BYTE		N12     Gs3 
	BYTE		N12     En4 
	BYTE	W12
	BYTE		N06     Bn3 
	BYTE		N06     Fs4 
	BYTE	W06
	BYTE		        Fs3 
	BYTE		N06     Ds4 
	BYTE	W18
	BYTE		N12   
	BYTE		N12     Bn4 
	BYTE	W12
	BYTE		N48     Cs4 
	BYTE		N48     Gs4 
	BYTE	W48
// 049   ----------------------------------------
	BYTE	PATT
	 POIN2	Bergentruckung_1_045
// 050   ----------------------------------------
	BYTE		N12     Gs3   v127
	BYTE		N12     En4 
	BYTE	W12
	BYTE		N06     Bn3 
	BYTE		N06     Fs4 
	BYTE	W06
	BYTE		        Fs3 
	BYTE		N06     Ds4 
	BYTE	W18
	BYTE		N12     Ds3 
	BYTE		N12     Bn3 
	BYTE	W12
	BYTE		N90     En3 
	BYTE		N90     Cs4 
	BYTE	W48
// 051   ----------------------------------------
	BYTE	W48
	BYTE		N84     Bn3 
	BYTE		N72     Ds4 
	BYTE	W48
// 052   ----------------------------------------
	BYTE	W96
// 053   ----------------------------------------
	BYTE	W96
// 054   ----------------------------------------
	BYTE	W96
// 055   ----------------------------------------
	BYTE	W96
// 056   ----------------------------------------
	BYTE	W96
// 057   ----------------------------------------
	BYTE	W96
// 058   ----------------------------------------
	BYTE	W96
// 059   ----------------------------------------
	BYTE	W96
// 060   ----------------------------------------
	BYTE	W96
// 061   ----------------------------------------
	BYTE	W96
// 062   ----------------------------------------
	BYTE	W96
// 063   ----------------------------------------
	BYTE	W96
// 064   ----------------------------------------
	BYTE	W96
// 065   ----------------------------------------
	BYTE	W96
// 066   ----------------------------------------
	BYTE	W96
// 067   ----------------------------------------
	BYTE	W96
// 068   ----------------------------------------
	BYTE	W96
// 069   ----------------------------------------
	BYTE	W96
// 070   ----------------------------------------
	BYTE	W96
// 071   ----------------------------------------
	BYTE	W48
	BYTE	GoTo
	 POIN2	Bergentruckung_1_B1
Bergentruckung_1_B2:
	BYTE	FINE

//**************** Track 2 (Midi-Chn.2) ****************//

Bergentruckung_2:
	BYTE	KEYSH   Bergentruckung_key+0
// 000   ----------------------------------------
	BYTE		VOICE   119
	BYTE		VOL     95*Bergentruckung_mvl/mxv
	BYTE	W48
Bergentruckung_2_B1:
	BYTE	W48
// 001   ----------------------------------------
	BYTE	W96
// 002   ----------------------------------------
	BYTE	W96
// 003   ----------------------------------------
	BYTE	W96
// 004   ----------------------------------------
	BYTE	W96
// 005   ----------------------------------------
	BYTE	W96
// 006   ----------------------------------------
	BYTE	W96
// 007   ----------------------------------------
	BYTE	W96
// 008   ----------------------------------------
	BYTE	W96
// 009   ----------------------------------------
	BYTE	W96
// 010   ----------------------------------------
	BYTE	W96
// 011   ----------------------------------------
	BYTE	W96
// 012   ----------------------------------------
	BYTE	W96
// 013   ----------------------------------------
	BYTE	W96
// 014   ----------------------------------------
	BYTE	W96
// 015   ----------------------------------------
	BYTE	W96
// 016   ----------------------------------------
	BYTE	W96
// 017   ----------------------------------------
	BYTE	W96
// 018   ----------------------------------------
	BYTE	W96
// 019   ----------------------------------------
	BYTE	W96
// 020   ----------------------------------------
	BYTE	W96
// 021   ----------------------------------------
	BYTE	W96
// 022   ----------------------------------------
	BYTE	W96
// 023   ----------------------------------------
	BYTE	W96
// 024   ----------------------------------------
	BYTE		N48     Fn3   v127
	BYTE	W96
// 025   ----------------------------------------
	BYTE	W96
// 026   ----------------------------------------
	BYTE	W96
// 027   ----------------------------------------
	BYTE	W96
// 028   ----------------------------------------
	BYTE	W96
// 029   ----------------------------------------
	BYTE	W96
// 030   ----------------------------------------
	BYTE	W96
// 031   ----------------------------------------
	BYTE	W96
// 032   ----------------------------------------
	BYTE	W96
// 033   ----------------------------------------
	BYTE	W96
// 034   ----------------------------------------
	BYTE	W96
// 035   ----------------------------------------
	BYTE	W96
// 036   ----------------------------------------
	BYTE	W96
// 037   ----------------------------------------
	BYTE	W96
// 038   ----------------------------------------
	BYTE	W96
// 039   ----------------------------------------
	BYTE	W96
// 040   ----------------------------------------
	BYTE	W96
// 041   ----------------------------------------
	BYTE	W96
// 042   ----------------------------------------
	BYTE	W96
// 043   ----------------------------------------
	BYTE	W96
// 044   ----------------------------------------
	BYTE	W96
// 045   ----------------------------------------
	BYTE	W96
// 046   ----------------------------------------
	BYTE	W96
// 047   ----------------------------------------
	BYTE	W96
// 048   ----------------------------------------
	BYTE	W96
// 049   ----------------------------------------
	BYTE	W96
// 050   ----------------------------------------
	BYTE	W96
// 051   ----------------------------------------
	BYTE	W96
// 052   ----------------------------------------
	BYTE	W96
// 053   ----------------------------------------
	BYTE	W96
// 054   ----------------------------------------
	BYTE	W96
// 055   ----------------------------------------
	BYTE	W96
// 056   ----------------------------------------
	BYTE	W96
// 057   ----------------------------------------
	BYTE	W96
// 058   ----------------------------------------
	BYTE	W96
// 059   ----------------------------------------
	BYTE	W96
// 060   ----------------------------------------
	BYTE	W96
// 061   ----------------------------------------
	BYTE	W96
// 062   ----------------------------------------
	BYTE	W96
// 063   ----------------------------------------
	BYTE	W96
// 064   ----------------------------------------
	BYTE	W96
// 065   ----------------------------------------
	BYTE	W96
// 066   ----------------------------------------
	BYTE	W96
// 067   ----------------------------------------
	BYTE	W96
// 068   ----------------------------------------
	BYTE	W96
// 069   ----------------------------------------
	BYTE	W96
// 070   ----------------------------------------
	BYTE	W96
// 071   ----------------------------------------
	BYTE	W48
	BYTE	GoTo
	 POIN2	Bergentruckung_2_B1
Bergentruckung_2_B2:
	BYTE	FINE

//**************** Track 3 (Midi-Chn.3) ****************//

Bergentruckung_3:
	BYTE	KEYSH   Bergentruckung_key+0
// 000   ----------------------------------------
	BYTE		VOICE   67
	BYTE		VOL     95*Bergentruckung_mvl/mxv
	BYTE		N06     Cs2   v127
	BYTE	W24
	BYTE		        Ds2 
	BYTE	W24
Bergentruckung_3_B1:
	BYTE		N03     An1   v127
	BYTE	W06
	BYTE		N03   
	BYTE	W06
	BYTE		        Cs2 
	BYTE	W06
	BYTE		        An1 
	BYTE	W06
	BYTE		N03   
	BYTE	W06
	BYTE		        Ds2 
	BYTE	W06
	BYTE		        An1 
	BYTE	W06
	BYTE		        En2 
	BYTE	W06
// 001   ----------------------------------------
Bergentruckung_3_001:
	BYTE		N03     An1   v127
	BYTE	W06
	BYTE		N03   
	BYTE	W06
	BYTE		        Fs2 
	BYTE	W06
	BYTE		        An1 
	BYTE	W06
	BYTE		N03   
	BYTE	W06
	BYTE		        En2 
	BYTE	W06
	BYTE		        An1 
	BYTE	W06
	BYTE		N03   
	BYTE	W06
	BYTE		N03   
	BYTE	W06
	BYTE		N03   
	BYTE	W06
	BYTE		        Ds2 
	BYTE	W06
	BYTE		        An1 
	BYTE	W06
	BYTE		N03   
	BYTE	W06
	BYTE		        En2 
	BYTE	W06
	BYTE		        An1 
	BYTE	W06
	BYTE		        En2 
	BYTE	W06
	BYTE	PEND
// 002   ----------------------------------------
Bergentruckung_3_002:
	BYTE		N03     An1   v127
	BYTE	W06
	BYTE		        Cs2 
	BYTE	W06
	BYTE		        En2 
	BYTE	W06
	BYTE		        An1 
	BYTE	W06
	BYTE		        Bn1 
	BYTE	W06
	BYTE		        Ds2 
	BYTE	W06
	BYTE		        Fs2 
	BYTE	W06
	BYTE		        Bn1 
	BYTE	W06
	BYTE		        Cs2 
	BYTE	W06
	BYTE		N03   
	BYTE	W06
	BYTE		        Gs2 
	BYTE	W06
	BYTE		        Cs2 
	BYTE	W06
	BYTE		N03   
	BYTE	W06
	BYTE		        Fs2 
	BYTE	W06
	BYTE		        En2 
	BYTE	W06
	BYTE		        Bn1 
	BYTE	W06
	BYTE	PEND
// 003   ----------------------------------------
Bergentruckung_3_003:
	BYTE		N03     Cs2   v127
	BYTE	W06
	BYTE		N03   
	BYTE	W06
	BYTE		        Gs2 
	BYTE	W06
	BYTE		        Cs2 
	BYTE	W06
	BYTE		N03   
	BYTE	W06
	BYTE		        Fs2 
	BYTE	W06
	BYTE		        En2 
	BYTE	W06
	BYTE		        Bn1 
	BYTE	W06
	BYTE		        Cs2 
	BYTE	W06
	BYTE		N03   
	BYTE	W06
	BYTE		        Gs2 
	BYTE	W06
	BYTE		        Cs2 
	BYTE	W06
	BYTE		N03   
	BYTE	W06
	BYTE		        Fs2 
	BYTE	W06
	BYTE		        En2 
	BYTE	W06
	BYTE		        Bn1 
	BYTE	W06
	BYTE	PEND
// 004   ----------------------------------------
Bergentruckung_3_004:
	BYTE		N03     Cs2   v127
	BYTE	W06
	BYTE		N03   
	BYTE	W18
	BYTE		        Bn1 
	BYTE	W06
	BYTE		N03   
	BYTE	W18
	BYTE		        Fs1 
	BYTE	W06
	BYTE		N03   
	BYTE	W06
	BYTE		        Cs2 
	BYTE	W06
	BYTE		        Fs1 
	BYTE	W06
	BYTE		N03   
	BYTE	W06
	BYTE		N03   
	BYTE	W06
	BYTE		        Fs2 
	BYTE	W06
	BYTE		        Gs2 
	BYTE	W06
	BYTE	PEND
// 005   ----------------------------------------
Bergentruckung_3_005:
	BYTE		N03     Fs1   v127
	BYTE	W06
	BYTE		N03   
	BYTE	W06
	BYTE		        Cs2 
	BYTE	W06
	BYTE		        Fs1 
	BYTE	W06
	BYTE		N03   
	BYTE	W06
	BYTE		N03   
	BYTE	W06
	BYTE		        Fs2 
	BYTE	W06
	BYTE		        Gs2 
	BYTE	W06
	BYTE		        Gs1 
	BYTE	W06
	BYTE		N03   
	BYTE	W06
	BYTE		        Ds2 
	BYTE	W06
	BYTE		        Gs1 
	BYTE	W06
	BYTE		        Fs2 
	BYTE	W06
	BYTE		        Gs1 
	BYTE	W06
	BYTE		        Gs2 
	BYTE	W06
	BYTE		        Bn2 
	BYTE	W06
	BYTE	PEND
// 006   ----------------------------------------
Bergentruckung_3_006:
	BYTE		N03     Gs1   v127
	BYTE	W06
	BYTE		N03   
	BYTE	W06
	BYTE		        Ds2 
	BYTE	W06
	BYTE		        Gs1 
	BYTE	W06
	BYTE		        Fs2 
	BYTE	W06
	BYTE		        Gs1 
	BYTE	W06
	BYTE		        Gs2 
	BYTE	W06
	BYTE		        Bn2 
	BYTE	W06
	BYTE		        An1 
	BYTE	W06
	BYTE		N03   
	BYTE	W06
	BYTE		        En2 
	BYTE	W06
	BYTE		        An1 
	BYTE	W06
	BYTE		        Fs2 
	BYTE	W06
	BYTE		        An1 
	BYTE	W06
	BYTE		        En2 
	BYTE	W06
	BYTE		        An1 
	BYTE	W06
	BYTE	PEND
// 007   ----------------------------------------
	BYTE		        Gs2 
	BYTE	W06
	BYTE		        An1 
	BYTE	W06
	BYTE		        En2 
	BYTE	W06
	BYTE		        An1 
	BYTE	W06
	BYTE		        Fs2 
	BYTE	W06
	BYTE		        An1 
	BYTE	W06
	BYTE		        En2 
	BYTE	W06
	BYTE		        An1 
	BYTE	W06
	BYTE		        Bn1 
	BYTE	W06
	BYTE		N03   
	BYTE	W06
	BYTE		        Ds2 
	BYTE	W06
	BYTE		        Bn1 
	BYTE	W06
	BYTE		        Fs2 
	BYTE	W06
	BYTE		        Bn1 
	BYTE	W06
	BYTE		        Ds2 
	BYTE	W06
	BYTE		        Fs2 
	BYTE	W06
// 008   ----------------------------------------
	BYTE		N06     Cs2 
	BYTE	W24
	BYTE		        Ds2 
	BYTE	W24
	BYTE		N03     An1 
	BYTE	W06
	BYTE		N03   
	BYTE	W06
	BYTE		        Cs2 
	BYTE	W06
	BYTE		        An1 
	BYTE	W06
	BYTE		N03   
	BYTE	W06
	BYTE		        Ds2 
	BYTE	W06
	BYTE		        An1 
	BYTE	W06
	BYTE		        En2 
	BYTE	W06
// 009   ----------------------------------------
	BYTE	PATT
	 POIN2	Bergentruckung_3_001
// 010   ----------------------------------------
	BYTE	PATT
	 POIN2	Bergentruckung_3_002
// 011   ----------------------------------------
	BYTE	PATT
	 POIN2	Bergentruckung_3_003
// 012   ----------------------------------------
	BYTE	PATT
	 POIN2	Bergentruckung_3_004
// 013   ----------------------------------------
	BYTE	PATT
	 POIN2	Bergentruckung_3_005
// 014   ----------------------------------------
	BYTE	PATT
	 POIN2	Bergentruckung_3_006
// 015   ----------------------------------------
	BYTE		N03     Gs2   v127
	BYTE	W06
	BYTE		        An1 
	BYTE	W06
	BYTE		        En2 
	BYTE	W06
	BYTE		        An1 
	BYTE	W06
	BYTE		        Fs2 
	BYTE	W06
	BYTE		        An1 
	BYTE	W06
	BYTE		        En2 
	BYTE	W06
	BYTE		        An1 
	BYTE	W06
	BYTE		N24     Gs1 
	BYTE	W48
// 016   ----------------------------------------
	BYTE		N06     Cs2 
	BYTE	W24
	BYTE		        Bn1 
	BYTE	W24
	BYTE		        An1 
	BYTE	W18
	BYTE		N06   
	BYTE	W24
	BYTE		N06   
	BYTE	W06
// 017   ----------------------------------------
Bergentruckung_3_017:
	BYTE	W12
	BYTE		N06     An1   v127
	BYTE	W12
	BYTE		N06   
	BYTE	W12
	BYTE		N12     Bn1 
	BYTE	W12
	BYTE		N06     An1 
	BYTE	W18
	BYTE		N06   
	BYTE	W24
	BYTE		N06   
	BYTE	W06
	BYTE	PEND
// 018   ----------------------------------------
Bergentruckung_3_018:
	BYTE	W12
	BYTE		N06     An1   v127
	BYTE	W12
	BYTE		N06   
	BYTE	W12
	BYTE		N12     Bn1 
	BYTE	W12
	BYTE		N06     Cs2 
	BYTE	W18
	BYTE		N06   
	BYTE	W24
	BYTE		N06   
	BYTE	W06
	BYTE	PEND
// 019   ----------------------------------------
Bergentruckung_3_019:
	BYTE	W12
	BYTE		N06     Cs2   v127
	BYTE	W12
	BYTE		N06   
	BYTE	W12
	BYTE		N12     Bn1 
	BYTE	W12
	BYTE		N06     Gs1 
	BYTE	W18
	BYTE		N06   
	BYTE	W18
	BYTE		N06   
	BYTE	W12
	BYTE	PEND
// 020   ----------------------------------------
	BYTE		        Bn1 
	BYTE	W18
	BYTE		        Ds2 
	BYTE	W18
	BYTE		N12     Fs2 
	BYTE	W12
	BYTE		N06     An1 
	BYTE	W18
	BYTE		N06   
	BYTE	W24
	BYTE		N06   
	BYTE	W06
// 021   ----------------------------------------
	BYTE	PATT
	 POIN2	Bergentruckung_3_017
// 022   ----------------------------------------
	BYTE	PATT
	 POIN2	Bergentruckung_3_018
// 023   ----------------------------------------
	BYTE	PATT
	 POIN2	Bergentruckung_3_019
// 024   ----------------------------------------
Bergentruckung_3_024:
	BYTE		N06     Bn1   v127
	BYTE	W18
	BYTE		        Ds2 
	BYTE	W18
	BYTE		N12     Fs2 
	BYTE	W12
	BYTE		N03     An1 
	BYTE	W06
	BYTE		N03   
	BYTE	W06
	BYTE		N01     En2 
	BYTE	W06
	BYTE		N03     An1 
	BYTE	W06
	BYTE		N03   
	BYTE	W06
	BYTE		N03   
	BYTE	W06
	BYTE		N01     En2 
	BYTE	W06
	BYTE		N03     An1 
	BYTE	W06
	BYTE	PEND
// 025   ----------------------------------------
Bergentruckung_3_025:
	BYTE		N03     An1   v127
	BYTE	W06
	BYTE		N03   
	BYTE	W06
	BYTE		N01     En2 
	BYTE	W06
	BYTE		N03     An1 
	BYTE	W06
	BYTE		N06   
	BYTE	W12
	BYTE		        Bn1 
	BYTE	W12
	BYTE		N03     An1 
	BYTE	W06
	BYTE		N03   
	BYTE	W06
	BYTE		N01     En2 
	BYTE	W06
	BYTE		N03     An1 
	BYTE	W06
	BYTE		N03   
	BYTE	W06
	BYTE		N03   
	BYTE	W06
	BYTE		N01     En2 
	BYTE	W06
	BYTE		N03     An1 
	BYTE	W06
	BYTE	PEND
// 026   ----------------------------------------
Bergentruckung_3_026:
	BYTE		N03     An1   v127
	BYTE	W06
	BYTE		N03   
	BYTE	W06
	BYTE		N01     En2 
	BYTE	W06
	BYTE		N03     An1 
	BYTE	W06
	BYTE		N06   
	BYTE	W12
	BYTE		        Bn1 
	BYTE	W12
	BYTE		N03     Cs2 
	BYTE	W06
	BYTE		N03   
	BYTE	W06
	BYTE		N01     Gs2 
	BYTE	W06
	BYTE		N03     Cs2 
	BYTE	W06
	BYTE		N03   
	BYTE	W06
	BYTE		N03   
	BYTE	W06
	BYTE		N01     Gs2 
	BYTE	W06
	BYTE		N03     Cs2 
	BYTE	W06
	BYTE	PEND
// 027   ----------------------------------------
Bergentruckung_3_027:
	BYTE		N03     Cs2   v127
	BYTE	W06
	BYTE		N03   
	BYTE	W06
	BYTE		N01     Gs2 
	BYTE	W06
	BYTE		N03     Cs2 
	BYTE	W06
	BYTE		N06   
	BYTE	W12
	BYTE		        Bn1 
	BYTE	W12
	BYTE		        Gs1 
	BYTE	W18
	BYTE		N06   
	BYTE	W18
	BYTE		N06   
	BYTE	W12
	BYTE	PEND
// 028   ----------------------------------------
	BYTE	PATT
	 POIN2	Bergentruckung_3_024
// 029   ----------------------------------------
	BYTE	PATT
	 POIN2	Bergentruckung_3_025
// 030   ----------------------------------------
	BYTE	PATT
	 POIN2	Bergentruckung_3_026
// 031   ----------------------------------------
	BYTE	PATT
	 POIN2	Bergentruckung_3_027
// 032   ----------------------------------------
	BYTE		N06     Cn2   v127
	BYTE	W18
	BYTE		        Ds2 
	BYTE	W18
	BYTE		N12     Fs2 
	BYTE	W12
	BYTE		N03     An1 
	BYTE	W06
	BYTE		N03   
	BYTE	W06
	BYTE		N01     En2 
	BYTE	W06
	BYTE		N03     An1 
	BYTE	W06
	BYTE		N03   
	BYTE	W06
	BYTE		N03   
	BYTE	W06
	BYTE		N01     En2 
	BYTE	W06
	BYTE		N03     An1 
	BYTE	W06
// 033   ----------------------------------------
	BYTE	PATT
	 POIN2	Bergentruckung_3_025
// 034   ----------------------------------------
	BYTE	PATT
	 POIN2	Bergentruckung_3_026
// 035   ----------------------------------------
	BYTE	PATT
	 POIN2	Bergentruckung_3_027
// 036   ----------------------------------------
	BYTE	PATT
	 POIN2	Bergentruckung_3_024
// 037   ----------------------------------------
	BYTE	PATT
	 POIN2	Bergentruckung_3_025
// 038   ----------------------------------------
	BYTE	PATT
	 POIN2	Bergentruckung_3_026
// 039   ----------------------------------------
	BYTE	PATT
	 POIN2	Bergentruckung_3_027
// 040   ----------------------------------------
	BYTE		N06     Cn2   v127
	BYTE	W18
	BYTE		        Ds2 
	BYTE	W18
	BYTE		N12     Fs2 
	BYTE	W12
	BYTE		N06     An0   v064
	BYTE	W06
	BYTE		N03     An1   v127
	BYTE	W06
	BYTE		N01     En2 
	BYTE	W06
	BYTE		N03     An1 
	BYTE	W06
	BYTE		N06     An0   v064
	BYTE	W06
	BYTE		N03     An1   v127
	BYTE	W06
	BYTE		N01     En2 
	BYTE	W06
	BYTE		N03     An1 
	BYTE	W06
// 041   ----------------------------------------
	BYTE		N06     An0   v064
	BYTE	W06
	BYTE		N03     An1   v127
	BYTE	W06
	BYTE		N01     En2 
	BYTE	W06
	BYTE		N03     An1 
	BYTE	W06
	BYTE		N06     An0   v064
	BYTE	W12
	BYTE		N12     Cs1 
	BYTE	W12
	BYTE		N06     Bn0 
	BYTE	W06
	BYTE		N03     Bn1   v127
	BYTE	W06
	BYTE		N01     Fs2 
	BYTE	W06
	BYTE		N03     Bn1 
	BYTE	W06
	BYTE		N06     Bn0   v064
	BYTE	W06
	BYTE		N03     Bn1   v127
	BYTE	W06
	BYTE		N01     Fs2 
	BYTE	W06
	BYTE		N03     Bn1 
	BYTE	W06
// 042   ----------------------------------------
	BYTE		N06     Bn0   v064
	BYTE	W06
	BYTE		N03     Bn1   v127
	BYTE	W06
	BYTE		N01     Fs2 
	BYTE	W06
	BYTE		N03     Bn1 
	BYTE	W06
	BYTE		N06     Bn0   v064
	BYTE	W12
	BYTE		N12     Ds1 
	BYTE	W12
	BYTE		N06     Cs1   v127
	BYTE	W06
	BYTE		N03     Cs2 
	BYTE	W06
	BYTE		N01     Gs2 
	BYTE	W06
	BYTE		N03     Cs2 
	BYTE	W06
	BYTE		N06     Cs1 
	BYTE	W06
	BYTE		N03     Cs2 
	BYTE	W06
	BYTE		N01     Gs2 
	BYTE	W06
	BYTE		N03     Cs2 
	BYTE	W06
// 043   ----------------------------------------
	BYTE		N06     Cs1 
	BYTE	W06
	BYTE		N03     Cs2 
	BYTE	W06
	BYTE		N01     Gs2 
	BYTE	W06
	BYTE		N06     Cs1 
	BYTE	W06
	BYTE		        Cs2 
	BYTE	W12
	BYTE		N12     Bn0 
	BYTE	W12
	BYTE		N06     Gs0 
	BYTE	W18
	BYTE		N06   
	BYTE	W18
	BYTE		N06   
	BYTE	W12
// 044   ----------------------------------------
	BYTE		        Cs1 
	BYTE	W18
	BYTE		        Ds1 
	BYTE	W18
	BYTE		        Gs1 
	BYTE	W12
	BYTE		N03     Fs1 
	BYTE	W06
	BYTE		        Cs2 
	BYTE	W06
	BYTE		        Fs2 
	BYTE	W06
	BYTE		        Cs2 
	BYTE	W06
	BYTE		        Fs1 
	BYTE	W06
	BYTE		        Cs2 
	BYTE	W06
	BYTE		        Fs2 
	BYTE	W06
	BYTE		        Cs2 
	BYTE	W06
// 045   ----------------------------------------
Bergentruckung_3_045:
	BYTE		N03     Fs1   v127
	BYTE	W06
	BYTE		        Cs2 
	BYTE	W06
	BYTE		        Fs2 
	BYTE	W06
	BYTE		        Cs2 
	BYTE	W06
	BYTE		N06     Gs1 
	BYTE	W12
	BYTE		        Bn1 
	BYTE	W12
	BYTE		N03     Gs1 
	BYTE	W06
	BYTE		        Ds2 
	BYTE	W06
	BYTE		        Gs2 
	BYTE	W06
	BYTE		        Ds2 
	BYTE	W06
	BYTE		        Gs1 
	BYTE	W06
	BYTE		        Ds2 
	BYTE	W06
	BYTE		        Gs2 
	BYTE	W06
	BYTE		        Ds2 
	BYTE	W06
	BYTE	PEND
// 046   ----------------------------------------
Bergentruckung_3_046:
	BYTE		N03     Gs1   v127
	BYTE	W06
	BYTE		        Ds2 
	BYTE	W06
	BYTE		        Gs2 
	BYTE	W06
	BYTE		        Ds2 
	BYTE	W06
	BYTE		N06     Bn1 
	BYTE	W12
	BYTE		        Ds2 
	BYTE	W12
	BYTE		N03     An1 
	BYTE	W06
	BYTE		        En2 
	BYTE	W06
	BYTE		        An2 
	BYTE	W06
	BYTE		        En2 
	BYTE	W06
	BYTE		        An1 
	BYTE	W06
	BYTE		        En2 
	BYTE	W06
	BYTE		        An2 
	BYTE	W06
	BYTE		        En2 
	BYTE	W06
	BYTE	PEND
// 047   ----------------------------------------
	BYTE		        An1 
	BYTE	W06
	BYTE		        En2 
	BYTE	W06
	BYTE		        An2 
	BYTE	W06
	BYTE		        En2 
	BYTE	W06
	BYTE		        An1 
	BYTE	W06
	BYTE		        En2 
	BYTE	W06
	BYTE		        An2 
	BYTE	W06
	BYTE		        En2 
	BYTE	W06
	BYTE		        Gs1 
	BYTE	W06
	BYTE		        Ds2 
	BYTE	W06
	BYTE		        Gs2 
	BYTE	W06
	BYTE		        Ds2 
	BYTE	W06
	BYTE		        Gs1 
	BYTE	W06
	BYTE		        Ds2 
	BYTE	W06
	BYTE		        Gs2 
	BYTE	W06
	BYTE		        Ds2 
	BYTE	W06
// 048   ----------------------------------------
	BYTE		N06     Bn1 
	BYTE	W18
	BYTE		        Ds2 
	BYTE	W18
	BYTE		N12     Gs2 
	BYTE	W12
	BYTE		N03     Fs1 
	BYTE	W06
	BYTE		        Cs2 
	BYTE	W06
	BYTE		        Fs2 
	BYTE	W06
	BYTE		        Cs2 
	BYTE	W06
	BYTE		        Fs1 
	BYTE	W06
	BYTE		        Cs2 
	BYTE	W06
	BYTE		        Fs2 
	BYTE	W06
	BYTE		        Cs2 
	BYTE	W06
// 049   ----------------------------------------
	BYTE	PATT
	 POIN2	Bergentruckung_3_045
// 050   ----------------------------------------
	BYTE	PATT
	 POIN2	Bergentruckung_3_046
// 051   ----------------------------------------
	BYTE		N03     An1   v127
	BYTE	W06
	BYTE		        En2 
	BYTE	W06
	BYTE		        An2 
	BYTE	W06
	BYTE		        En2 
	BYTE	W06
	BYTE		        An1 
	BYTE	W06
	BYTE		        En2 
	BYTE	W06
	BYTE		        An2 
	BYTE	W06
	BYTE		        En2 
	BYTE	W06
	BYTE		N42     Gs1 
	BYTE	W48
// 052   ----------------------------------------
	BYTE		N06     Bn1 
	BYTE	W18
	BYTE		        Ds2 
	BYTE	W18
	BYTE		N12     Fs2 
	BYTE	W60
// 053   ----------------------------------------
	BYTE	W96
// 054   ----------------------------------------
	BYTE	W96
// 055   ----------------------------------------
	BYTE	W96
// 056   ----------------------------------------
	BYTE	W96
// 057   ----------------------------------------
	BYTE	W96
// 058   ----------------------------------------
	BYTE	W96
// 059   ----------------------------------------
	BYTE	W96
// 060   ----------------------------------------
	BYTE	W48
	BYTE		N06     Dn2 
	BYTE	W06
	BYTE		        An1 
	BYTE	W06
	BYTE		        Dn2 
	BYTE	W06
	BYTE		N12     En2 
	BYTE	W12
	BYTE		N06     Dn2 
	BYTE	W06
	BYTE		        Bn1 
	BYTE	W06
	BYTE		        Dn2 
	BYTE	W06
// 061   ----------------------------------------
Bergentruckung_3_061:
	BYTE		N06     Cs2   v127
	BYTE	W06
	BYTE		        Cs3 
	BYTE	W06
	BYTE		        Gs1 
	BYTE	W06
	BYTE		        Gs2 
	BYTE	W06
	BYTE		        En1 
	BYTE	W06
	BYTE		        En2 
	BYTE	W06
	BYTE		        Gs1 
	BYTE	W06
	BYTE		        Gs2 
	BYTE	W06
	BYTE		        Dn2 
	BYTE	W06
	BYTE		        An1 
	BYTE	W06
	BYTE		        Dn2 
	BYTE	W06
	BYTE		N12     En2 
	BYTE	W12
	BYTE		N06     Dn2 
	BYTE	W06
	BYTE		        Bn1 
	BYTE	W06
	BYTE		        Dn3 
	BYTE	W06
	BYTE	PEND
// 062   ----------------------------------------
Bergentruckung_3_062:
	BYTE		N06     Cs2   v127
	BYTE	W06
	BYTE		        Cs3 
	BYTE	W06
	BYTE		        Ds2 
	BYTE	W06
	BYTE		        Ds3 
	BYTE	W06
	BYTE		        En2 
	BYTE	W06
	BYTE		        En3 
	BYTE	W06
	BYTE		        Bn2 
	BYTE	W06
	BYTE		        En2 
	BYTE	W06
	BYTE		        Fs2 
	BYTE	W06
	BYTE		        Cs2 
	BYTE	W06
	BYTE		        Fs2 
	BYTE	W06
	BYTE		N12     Bn2 
	BYTE	W12
	BYTE		N06     As2 
	BYTE	W06
	BYTE		        Fs2 
	BYTE	W06
	BYTE		        En2 
	BYTE	W06
	BYTE	PEND
// 063   ----------------------------------------
Bergentruckung_3_063:
	BYTE		N06     Cs2   v127
	BYTE	W06
	BYTE		        Gs1 
	BYTE	W06
	BYTE		        Ds2 
	BYTE	W06
	BYTE		        Gs1 
	BYTE	W06
	BYTE		        En2 
	BYTE	W06
	BYTE		        Gs1 
	BYTE	W06
	BYTE		        Fs2 
	BYTE	W06
	BYTE		        Gs1 
	BYTE	W06
	BYTE		        An1 
	BYTE	W06
	BYTE		        Cs2 
	BYTE	W06
	BYTE		        En2 
	BYTE	W06
	BYTE		N12     An2 
	BYTE	W12
	BYTE		N06     Gs2 
	BYTE	W06
	BYTE		        En2 
	BYTE	W06
	BYTE		        Cs2 
	BYTE	W06
	BYTE	PEND
// 064   ----------------------------------------
	BYTE		        Cn2 
	BYTE	W12
	BYTE		        Gs2 
	BYTE	W12
	BYTE		        Ds2 
	BYTE	W12
	BYTE		        Gs2 
	BYTE	W12
	BYTE		        Dn2 
	BYTE	W06
	BYTE		        An1 
	BYTE	W06
	BYTE		        Dn2 
	BYTE	W06
	BYTE		N12     En2 
	BYTE	W12
	BYTE		N06     Dn2 
	BYTE	W06
	BYTE		        Bn1 
	BYTE	W06
	BYTE		        Dn2 
	BYTE	W06
// 065   ----------------------------------------
	BYTE	PATT
	 POIN2	Bergentruckung_3_061
// 066   ----------------------------------------
	BYTE	PATT
	 POIN2	Bergentruckung_3_062
// 067   ----------------------------------------
	BYTE	PATT
	 POIN2	Bergentruckung_3_063
// 068   ----------------------------------------
Bergentruckung_3_068:
	BYTE		N06     An1   v127
	BYTE	W06
	BYTE		        Cs2 
	BYTE	W06
	BYTE		        En2 
	BYTE	W06
	BYTE		N12     An2 
	BYTE	W12
	BYTE		N06     Gs2 
	BYTE	W06
	BYTE		        En2 
	BYTE	W06
	BYTE		        Cs2 
	BYTE	W06
	BYTE		        Bn1 
	BYTE	W06
	BYTE		        Ds2 
	BYTE	W06
	BYTE		        Fs2 
	BYTE	W06
	BYTE		N12     Bn2 
	BYTE	W12
	BYTE		N06     Fs2 
	BYTE	W06
	BYTE		        Ds2 
	BYTE	W06
	BYTE		        Cs2 
	BYTE	W06
	BYTE	PEND
// 069   ----------------------------------------
	BYTE		        Bn1 
	BYTE	W06
	BYTE		        Ds2 
	BYTE	W06
	BYTE		        Fs2 
	BYTE	W06
	BYTE		N12     Bn2 
	BYTE	W12
	BYTE		N06     Fs2 
	BYTE	W06
	BYTE		        Ds2 
	BYTE	W06
	BYTE		        Bn1 
	BYTE	W06
	BYTE		        An1 
	BYTE	W06
	BYTE		        Cs2 
	BYTE	W06
	BYTE		        En2 
	BYTE	W06
	BYTE		N12     An2 
	BYTE	W12
	BYTE		N06     Gs2 
	BYTE	W06
	BYTE		        En2 
	BYTE	W06
	BYTE		        Cs2 
	BYTE	W06
// 070   ----------------------------------------
	BYTE	PATT
	 POIN2	Bergentruckung_3_068
// 071   ----------------------------------------
	BYTE		N06     Bn1   v127
	BYTE	W06
	BYTE		        Ds2 
	BYTE	W06
	BYTE		        Fs2 
	BYTE	W06
	BYTE		N12     Bn2 
	BYTE	W18
	BYTE		        Gs2 
	BYTE	W12
	BYTE	GoTo
	 POIN2	Bergentruckung_3_B1
Bergentruckung_3_B2:
	BYTE	FINE

//**************** Track 4 (Midi-Chn.4) ****************//

Bergentruckung_4:
	BYTE	KEYSH   Bergentruckung_key+0
// 000   ----------------------------------------
	BYTE		VOICE   2
	BYTE		VOL     95*Bergentruckung_mvl/mxv
	BYTE		N06     Cs1   v127
	BYTE		N06     Gs2 
	BYTE		N06     En3 
	BYTE	W12
	BYTE		        Gs2   v064
	BYTE		N06     En3 
	BYTE	W12
	BYTE		        Ds1   v127
	BYTE		N06     Bn2 
	BYTE		N06     Gs3 
	BYTE	W12
	BYTE		        Bn2   v064
	BYTE		N06     Gs3 
	BYTE	W12
Bergentruckung_4_B1:
	BYTE		N03     An0   v127
	BYTE		N24     Cs3 
	BYTE		N24     Fs3 
	BYTE	W06
	BYTE		N03     An0 
	BYTE	W06
	BYTE		        Cs1 
	BYTE	W06
	BYTE		        An0 
	BYTE	W06
	BYTE		N03   
	BYTE	W06
	BYTE		        Ds1 
	BYTE	W06
	BYTE		        An0 
	BYTE		N06     Gs3 
	BYTE	W06
	BYTE		N03     En1 
	BYTE	W06
// 001   ----------------------------------------
Bergentruckung_4_001:
	BYTE		N03     An0   v127
	BYTE		N12     Cs3 
	BYTE	W06
	BYTE		N03     An0 
	BYTE	W06
	BYTE		        Fs1 
	BYTE	W06
	BYTE		        An0 
	BYTE		N12     Ds3 
	BYTE	W06
	BYTE		N03     An0 
	BYTE	W06
	BYTE		        En1 
	BYTE	W06
	BYTE		        An0 
	BYTE		N06     En3 
	BYTE	W06
	BYTE		N03     An0 
	BYTE	W06
	BYTE		N03   
	BYTE		N42     Gs3 
	BYTE	W06
	BYTE		N03     An0 
	BYTE	W06
	BYTE		        Ds1 
	BYTE	W06
	BYTE		        An0 
	BYTE	W06
	BYTE		N03   
	BYTE	W06
	BYTE		        En1 
	BYTE	W06
	BYTE		        An0 
	BYTE	W06
	BYTE		        En1 
	BYTE	W06
	BYTE	PEND
// 002   ----------------------------------------
	BYTE		        An0 
	BYTE		N06     Gs2 
	BYTE		N06     En3 
	BYTE	W06
	BYTE		N03     Cs1 
	BYTE	W06
	BYTE		        En1 
	BYTE		N06     Gs2   v064
	BYTE		N06     En3 
	BYTE	W06
	BYTE		N03     An0   v127
	BYTE	W06
	BYTE		        Bn0 
	BYTE		N06     Bn2 
	BYTE		N06     Gs3 
	BYTE	W06
	BYTE		N03     Ds1 
	BYTE	W06
	BYTE		        Fs1 
	BYTE		N06     Bn2   v064
	BYTE		N06     Gs3 
	BYTE	W06
	BYTE		N03     Bn0   v127
	BYTE	W06
	BYTE		        Cs1 
	BYTE		N24     Cs3 
	BYTE		N24     Fs3 
	BYTE	W06
	BYTE		N03     Cs1 
	BYTE	W06
	BYTE		        Gs1 
	BYTE	W06
	BYTE		        Cs1 
	BYTE	W06
	BYTE		N03   
	BYTE	W06
	BYTE		        Fs1 
	BYTE	W06
	BYTE		        En1 
	BYTE		N06     Gs3 
	BYTE	W06
	BYTE		N03     Bn0 
	BYTE	W06
// 003   ----------------------------------------
Bergentruckung_4_003:
	BYTE		N03     Cs1   v127
	BYTE		N12     Cs3 
	BYTE	W06
	BYTE		N03     Cs1 
	BYTE	W06
	BYTE		        Gs1 
	BYTE	W06
	BYTE		        Cs1 
	BYTE		N12     Ds3 
	BYTE	W06
	BYTE		N03     Cs1 
	BYTE	W06
	BYTE		        Fs1 
	BYTE	W06
	BYTE		        En1 
	BYTE		N06     Bn3 
	BYTE	W06
	BYTE		N03     Bn0 
	BYTE	W06
	BYTE		        Cs1 
	BYTE		N42     Gs3 
	BYTE	W06
	BYTE		N03     Cs1 
	BYTE	W06
	BYTE		        Gs1 
	BYTE	W06
	BYTE		        Cs1 
	BYTE	W06
	BYTE		N03   
	BYTE	W06
	BYTE		        Fs1 
	BYTE	W06
	BYTE		        En1 
	BYTE	W06
	BYTE		        Bn0 
	BYTE	W06
	BYTE	PEND
// 004   ----------------------------------------
Bergentruckung_4_004:
	BYTE		N06     Cs1   v127
	BYTE		N06     Cs3 
	BYTE		N06     Gs3 
	BYTE	W12
	BYTE		        Cs3   v064
	BYTE		N06     Gs3 
	BYTE	W12
	BYTE		        Bn0   v127
	BYTE		N06     Ds3 
	BYTE		N06     An3 
	BYTE	W12
	BYTE		        Ds3   v064
	BYTE		N06     An3 
	BYTE	W12
	BYTE		N03     Fs0   v127
	BYTE		N36     En3 
	BYTE		N36     Bn3 
	BYTE	W06
	BYTE		N03     Fs0 
	BYTE	W06
	BYTE		        Cs1 
	BYTE	W06
	BYTE		        Fs0 
	BYTE	W06
	BYTE		N03   
	BYTE	W06
	BYTE		N03   
	BYTE	W06
	BYTE		        Fs1 
	BYTE		N06     Fs3 
	BYTE		N06     Cs4 
	BYTE	W06
	BYTE		N03     Gs1 
	BYTE	W06
	BYTE	PEND
// 005   ----------------------------------------
Bergentruckung_4_005:
	BYTE		N03     Fs0   v127
	BYTE		N12     Gs2 
	BYTE		N12     En3 
	BYTE	W06
	BYTE		N03     Fs0 
	BYTE	W06
	BYTE		        Cs1 
	BYTE	W06
	BYTE		        Fs0 
	BYTE		N12     Bn2 
	BYTE		N12     Fs3 
	BYTE	W06
	BYTE		N03     Fs0 
	BYTE	W06
	BYTE		N03   
	BYTE	W06
	BYTE		        Fs1 
	BYTE		N06     Cs3 
	BYTE		N06     Gs3 
	BYTE	W06
	BYTE		N03     Gs1 
	BYTE	W06
	BYTE		        Gs0 
	BYTE		N36     Ds3 
	BYTE		N36     Bn3 
	BYTE	W06
	BYTE		N03     Gs0 
	BYTE	W06
	BYTE		        Ds1 
	BYTE	W06
	BYTE		        Gs0 
	BYTE	W06
	BYTE		        Fs1 
	BYTE	W06
	BYTE		        Gs0 
	BYTE	W06
	BYTE		        Gs1 
	BYTE		N06     En3 
	BYTE		N06     Cs4 
	BYTE	W06
	BYTE		N03     Bn1 
	BYTE	W06
	BYTE	PEND
// 006   ----------------------------------------
Bergentruckung_4_006:
	BYTE		N03     Gs0   v127
	BYTE		N12     Fs2 
	BYTE		N12     Ds3 
	BYTE	W06
	BYTE		N03     Gs0 
	BYTE	W06
	BYTE		        Ds1 
	BYTE	W06
	BYTE		        Gs0 
	BYTE		N12     Fs3 
	BYTE		N12     Ds4 
	BYTE	W06
	BYTE		N03     Fs1 
	BYTE	W06
	BYTE		        Gs0 
	BYTE	W06
	BYTE		        Gs1 
	BYTE		N12     Ds3 
	BYTE		N12     Bn3 
	BYTE	W06
	BYTE		N03     Bn1 
	BYTE	W06
	BYTE		        An0 
	BYTE		N84     En3 
	BYTE		N84     Gs3 
	BYTE	W06
	BYTE		N03     An0 
	BYTE	W06
	BYTE		        En1 
	BYTE	W06
	BYTE		        An0 
	BYTE	W06
	BYTE		        Fs1 
	BYTE	W06
	BYTE		        An0 
	BYTE	W06
	BYTE		        En1 
	BYTE	W06
	BYTE		        An0 
	BYTE	W06
	BYTE	PEND
// 007   ----------------------------------------
	BYTE		        Gs1 
	BYTE	W06
	BYTE		        An0 
	BYTE	W06
	BYTE		        En1 
	BYTE	W06
	BYTE		        An0 
	BYTE	W06
	BYTE		        Fs1 
	BYTE	W06
	BYTE		        An0 
	BYTE	W06
	BYTE		        En1 
	BYTE		N06     Fs3 
	BYTE		N06     An3 
	BYTE	W06
	BYTE		N03     An0 
	BYTE		N06     En3 
	BYTE		N06     Gs3 
	BYTE	W06
	BYTE		N03     Bn0 
	BYTE		N24     Ds3 
	BYTE		N24     Fs3 
	BYTE	W06
	BYTE		N03     Bn0 
	BYTE	W06
	BYTE		        Ds1 
	BYTE	W06
	BYTE		        Bn0 
	BYTE	W06
	BYTE		        Fs1 
	BYTE	W06
	BYTE		        Bn0 
	BYTE	W06
	BYTE		        Ds1 
	BYTE	W06
	BYTE		        Fs1 
	BYTE	W06
// 008   ----------------------------------------
	BYTE		N06     Cs1 
	BYTE		N06     Gs2 
	BYTE		N06     En3 
	BYTE	W12
	BYTE		        Gs2   v064
	BYTE		N06     En3 
	BYTE	W12
	BYTE		        Ds1   v127
	BYTE		N06     Bn2 
	BYTE		N06     Gs3 
	BYTE	W12
	BYTE		        Bn2   v064
	BYTE		N06     Gs3 
	BYTE	W12
	BYTE		N03     An0   v127
	BYTE		N24     Cs3 
	BYTE		N24     Fs3 
	BYTE	W06
	BYTE		N03     An0 
	BYTE	W06
	BYTE		        Cs1 
	BYTE	W06
	BYTE		        An0 
	BYTE	W06
	BYTE		N03   
	BYTE	W06
	BYTE		        Ds1 
	BYTE		N06     Fs3 
	BYTE	W06
	BYTE		N03     An0 
	BYTE		N06     Gs3 
	BYTE	W06
	BYTE		N03     En1 
	BYTE	W06
// 009   ----------------------------------------
	BYTE	PATT
	 POIN2	Bergentruckung_4_001
// 010   ----------------------------------------
	BYTE		N03     An0   v127
	BYTE		N06     Gs2 
	BYTE		N06     En3 
	BYTE	W06
	BYTE		N03     Cs1 
	BYTE	W06
	BYTE		        En1 
	BYTE		N06     Gs2   v064
	BYTE		N06     En3 
	BYTE	W06
	BYTE		N03     An0   v127
	BYTE	W06
	BYTE		        Bn0 
	BYTE		N06     Bn2 
	BYTE		N06     Gs3 
	BYTE	W06
	BYTE		N03     Ds1 
	BYTE	W06
	BYTE		        Fs1 
	BYTE		N06     Bn2   v064
	BYTE		N06     Gs3 
	BYTE	W06
	BYTE		N03     Bn0   v127
	BYTE	W06
	BYTE		        Cs1 
	BYTE		N24     Cs3 
	BYTE		N24     Fs3 
	BYTE	W06
	BYTE		N03     Cs1 
	BYTE	W06
	BYTE		        Gs1 
	BYTE	W06
	BYTE		        Cs1 
	BYTE	W06
	BYTE		N03   
	BYTE	W06
	BYTE		        Fs1 
	BYTE		N06     Fs3 
	BYTE	W06
	BYTE		N03     En1 
	BYTE		N06     Gs3 
	BYTE	W06
	BYTE		N03     Bn0 
	BYTE	W06
// 011   ----------------------------------------
	BYTE	PATT
	 POIN2	Bergentruckung_4_003
// 012   ----------------------------------------
	BYTE	PATT
	 POIN2	Bergentruckung_4_004
// 013   ----------------------------------------
	BYTE	PATT
	 POIN2	Bergentruckung_4_005
// 014   ----------------------------------------
	BYTE	PATT
	 POIN2	Bergentruckung_4_006
// 015   ----------------------------------------
	BYTE		N03     Gs1   v127
	BYTE	W06
	BYTE		        An0 
	BYTE	W06
	BYTE		        En1 
	BYTE	W06
	BYTE		        An0 
	BYTE	W06
	BYTE		        Fs1 
	BYTE	W06
	BYTE		        An0 
	BYTE	W06
	BYTE		        En1 
	BYTE		N06     Fs3 
	BYTE		N06     An3 
	BYTE	W06
	BYTE		N03     An0 
	BYTE		N06     En3 
	BYTE		N06     Gs3 
	BYTE	W06
	BYTE		N24     Gs0 
	BYTE		N24     Ds3 
	BYTE		N24     Fs3 
	BYTE	W48
// 016   ----------------------------------------
	BYTE		N06     Cs1 
	BYTE		N06     Gs2 
	BYTE	W12
	BYTE		        Gs2   v064
	BYTE	W12
	BYTE		        Bn0   v127
	BYTE		N06     Fs2 
	BYTE	W12
	BYTE		        Fs2   v064
	BYTE	W12
	BYTE		        An0   v127
	BYTE		N03     Cs3   v052
	BYTE	W03
	BYTE		N03   
	BYTE	W03
	BYTE		        En3 
	BYTE	W03
	BYTE		N03   
	BYTE	W03
	BYTE		        Ds3 
	BYTE	W03
	BYTE		N03   
	BYTE	W03
	BYTE		N06     An0   v127
	BYTE		N03     En3   v052
	BYTE	W03
	BYTE		N03   
	BYTE	W03
	BYTE		        Cs3 
	BYTE	W03
	BYTE		N03   
	BYTE	W03
	BYTE		N03   
	BYTE	W03
	BYTE		N03   
	BYTE	W09
	BYTE		N06     An0   v127
	BYTE		N12     Cs3   v052
	BYTE	W06
// 017   ----------------------------------------
Bergentruckung_4_017:
	BYTE	W06
	BYTE		N03     Ds3   v052
	BYTE	W03
	BYTE		N03   
	BYTE	W03
	BYTE		N06     An0   v127
	BYTE		N03     En3   v052
	BYTE	W03
	BYTE		N03   
	BYTE	W03
	BYTE		        Bn3 
	BYTE	W03
	BYTE		N03   
	BYTE	W03
	BYTE		N06     An0   v127
	BYTE		N03     Gs3   v052
	BYTE	W03
	BYTE		N03   
	BYTE	W03
	BYTE		N03   
	BYTE	W03
	BYTE		N03   
	BYTE	W03
	BYTE		N12     Bn0   v127
	BYTE	W12
	BYTE		N06     An0 
	BYTE		N03     Cs3   v052
	BYTE	W03
	BYTE		N03   
	BYTE	W03
	BYTE		        En3 
	BYTE	W03
	BYTE		N03   
	BYTE	W03
	BYTE		        Ds3 
	BYTE	W03
	BYTE		N03   
	BYTE	W03
	BYTE		N06     An0   v127
	BYTE		N03     En3   v052
	BYTE	W03
	BYTE		N03   
	BYTE	W03
	BYTE		        Cs3 
	BYTE	W03
	BYTE		N03   
	BYTE	W03
	BYTE		N03   
	BYTE	W03
	BYTE		N03   
	BYTE	W09
	BYTE		N06     An0   v127
	BYTE		N12     Cs3   v052
	BYTE	W06
	BYTE	PEND
// 018   ----------------------------------------
Bergentruckung_4_018:
	BYTE	W06
	BYTE		N03     Ds3   v052
	BYTE	W03
	BYTE		N03   
	BYTE	W03
	BYTE		N06     An0   v127
	BYTE		N03     En3   v052
	BYTE	W03
	BYTE		N03   
	BYTE	W03
	BYTE		        Bn3 
	BYTE	W03
	BYTE		N03   
	BYTE	W03
	BYTE		N06     An0   v127
	BYTE		N03     Gs3   v052
	BYTE	W03
	BYTE		N03   
	BYTE	W03
	BYTE		N03   
	BYTE	W03
	BYTE		N03   
	BYTE	W03
	BYTE		N12     Bn0   v127
	BYTE	W12
	BYTE		N06     Cs1 
	BYTE		N03     Cs3   v052
	BYTE	W03
	BYTE		N03   
	BYTE	W03
	BYTE		        En3 
	BYTE	W03
	BYTE		N03   
	BYTE	W03
	BYTE		        Ds3 
	BYTE	W03
	BYTE		N03   
	BYTE	W03
	BYTE		N06     Cs1   v127
	BYTE		N03     En3   v052
	BYTE	W03
	BYTE		N03   
	BYTE	W03
	BYTE		        Cs3 
	BYTE	W03
	BYTE		N03   
	BYTE	W03
	BYTE		N03   
	BYTE	W03
	BYTE		N03   
	BYTE	W09
	BYTE		N06     Cs1   v127
	BYTE		N12     Cs3   v052
	BYTE	W06
	BYTE	PEND
// 019   ----------------------------------------
Bergentruckung_4_019:
	BYTE	W06
	BYTE		N03     Ds3   v052
	BYTE	W03
	BYTE		N03   
	BYTE	W03
	BYTE		N06     Cs1   v127
	BYTE		N03     En3   v052
	BYTE	W03
	BYTE		N03   
	BYTE	W03
	BYTE		        Bn3 
	BYTE	W03
	BYTE		N03   
	BYTE	W03
	BYTE		N06     Cs1   v127
	BYTE		N03     Gs3   v052
	BYTE	W03
	BYTE		N03   
	BYTE	W03
	BYTE		N03   
	BYTE	W03
	BYTE		N03   
	BYTE	W03
	BYTE		N12     Bn0   v127
	BYTE	W12
	BYTE		N06     Gs0 
	BYTE		N18     Bn2   v052
	BYTE	W18
	BYTE		N06     Gs0   v127
	BYTE		N18     Fs3   v052
	BYTE	W18
	BYTE		N06     Gs0   v127
	BYTE		N06     En3   v052
	BYTE	W06
	BYTE		N03   
	BYTE	W03
	BYTE		        Dn3 
	BYTE	W03
	BYTE	PEND
// 020   ----------------------------------------
	BYTE		N06     Bn0   v127
	BYTE		N06     Ds3   v052
	BYTE	W06
	BYTE		        Cs3 
	BYTE	W06
	BYTE		N06   
	BYTE	W06
	BYTE		        Ds1   v127
	BYTE		N12     Bn2   v052
	BYTE	W12
	BYTE		N03     Cs3 
	BYTE	W03
	BYTE		        Dn3 
	BYTE	W03
	BYTE		N12     Fs1   v127
	BYTE		N12     Ds3   v052
	BYTE	W12
	BYTE		N06     An0   v127
	BYTE		N03     Cs3   v052
	BYTE	W03
	BYTE		N03   
	BYTE	W03
	BYTE		        En3 
	BYTE	W03
	BYTE		N03   
	BYTE	W03
	BYTE		        Ds3 
	BYTE	W03
	BYTE		N03   
	BYTE	W03
	BYTE		N06     An0   v127
	BYTE		N03     En3   v052
	BYTE	W03
	BYTE		N03   
	BYTE	W03
	BYTE		        Cs3 
	BYTE	W03
	BYTE		N03   
	BYTE	W03
	BYTE		N03   
	BYTE	W03
	BYTE		N03   
	BYTE	W09
	BYTE		N06     An0   v127
	BYTE		N12     Cs3   v052
	BYTE	W06
// 021   ----------------------------------------
	BYTE	PATT
	 POIN2	Bergentruckung_4_017
// 022   ----------------------------------------
	BYTE	PATT
	 POIN2	Bergentruckung_4_018
// 023   ----------------------------------------
	BYTE	PATT
	 POIN2	Bergentruckung_4_019
// 024   ----------------------------------------
	BYTE		N06     Bn0   v127
	BYTE		N06     Ds3   v052
	BYTE	W06
	BYTE		        Cs3 
	BYTE	W06
	BYTE		N06   
	BYTE	W06
	BYTE		        Ds1   v127
	BYTE		N12     Bn2   v052
	BYTE	W12
	BYTE		N03     Cs3 
	BYTE	W03
	BYTE		        Dn3 
	BYTE	W03
	BYTE		N12     Fs1   v127
	BYTE		N12     Ds3   v052
	BYTE	W12
	BYTE		N03     An0   v127
	BYTE		N03     En2   v032
	BYTE		N03     Cs3   v052
	BYTE		N06     Gs5   v096
	BYTE	W03
	BYTE		N03     En2   v032
	BYTE		N03     Cs3   v052
	BYTE	W03
	BYTE		        Cs1   v127
	BYTE		N03     Gs2   v032
	BYTE		N03     En3   v052
	BYTE	W03
	BYTE		        Gs2   v032
	BYTE		N03     En3   v052
	BYTE	W03
	BYTE		        En1   v127
	BYTE		N03     Fs2   v032
	BYTE		N03     Ds3   v052
	BYTE		N06     Cs5   v096
	BYTE	W03
	BYTE		N03     Fs2   v032
	BYTE		N03     Ds3   v052
	BYTE	W03
	BYTE		N12     An1   v127
	BYTE		N03     Gs2   v032
	BYTE		N03     En3   v052
	BYTE	W03
	BYTE		        Gs2   v032
	BYTE		N03     En3   v052
	BYTE	W03
	BYTE		        En2   v032
	BYTE		N03     Cs3   v052
	BYTE	W03
	BYTE		        En2   v032
	BYTE		N03     Cs3   v052
	BYTE	W03
	BYTE		N06     Gs1   v127
	BYTE		N03     En2   v032
	BYTE		N03     Cs3   v052
	BYTE		N06     En5   v096
	BYTE	W03
	BYTE		N03     En2   v032
	BYTE		N03     Cs3   v052
	BYTE	W03
	BYTE		N06     En1   v127
	BYTE	W06
	BYTE		        Cs1 
	BYTE		N12     En2   v032
	BYTE		N12     Cs3   v052
	BYTE		N06     Gs5   v096
	BYTE	W06
// 025   ----------------------------------------
Bergentruckung_4_025:
	BYTE		N06     An0   v127
	BYTE	W06
	BYTE		N03     Fs2   v032
	BYTE		N03     Ds3   v052
	BYTE		N06     Cs5   v096
	BYTE	W03
	BYTE		N03     Fs2   v032
	BYTE		N03     Ds3   v052
	BYTE	W03
	BYTE		        An0   v127
	BYTE		N03     Gs2   v032
	BYTE		N03     En3   v052
	BYTE	W03
	BYTE		        Gs2   v032
	BYTE		N03     En3   v052
	BYTE	W03
	BYTE		N06     An0   v127
	BYTE		N03     En3   v032
	BYTE		N03     Bn3   v052
	BYTE	W03
	BYTE		        En3   v032
	BYTE		N03     Bn3   v052
	BYTE	W03
	BYTE		        Cs3   v032
	BYTE		N03     Gs3   v052
	BYTE	W03
	BYTE		        Cs3   v032
	BYTE		N03     Gs3   v052
	BYTE	W03
	BYTE		        Cs3   v032
	BYTE		N03     Gs3   v052
	BYTE		N06     En5   v096
	BYTE	W03
	BYTE		N03     Cs3   v032
	BYTE		N03     Gs3   v052
	BYTE	W03
	BYTE		N12     Bn0   v127
	BYTE	W12
	BYTE		N03     An0 
	BYTE		N03     En2   v032
	BYTE		N03     Cs3   v052
	BYTE		N06     Gs5   v096
	BYTE	W03
	BYTE		N03     En2   v032
	BYTE		N03     Cs3   v052
	BYTE	W03
	BYTE		        Cs1   v127
	BYTE		N03     Gs2   v032
	BYTE		N03     En3   v052
	BYTE	W03
	BYTE		        Gs2   v032
	BYTE		N03     En3   v052
	BYTE	W03
	BYTE		        En1   v127
	BYTE		N03     Fs2   v032
	BYTE		N03     Ds3   v052
	BYTE		N06     Cs5   v096
	BYTE	W03
	BYTE		N03     Fs2   v032
	BYTE		N03     Ds3   v052
	BYTE	W03
	BYTE		N12     An1   v127
	BYTE		N03     Gs2   v032
	BYTE		N03     En3   v052
	BYTE	W03
	BYTE		        Gs2   v032
	BYTE		N03     En3   v052
	BYTE	W03
	BYTE		        En2   v032
	BYTE		N03     Cs3   v052
	BYTE	W03
	BYTE		        En2   v032
	BYTE		N03     Cs3   v052
	BYTE	W03
	BYTE		N06     Gs1   v127
	BYTE		N03     En2   v032
	BYTE		N03     Cs3   v052
	BYTE		N06     En5   v096
	BYTE	W03
	BYTE		N03     En2   v032
	BYTE		N03     Cs3   v052
	BYTE	W03
	BYTE		N06     En1   v127
	BYTE		N06     Gs5   v096
	BYTE	W06
	BYTE		        Cs1   v127
	BYTE		N12     En2   v032
	BYTE		N12     Cs3   v052
	BYTE	W06
	BYTE	PEND
// 026   ----------------------------------------
Bergentruckung_4_026:
	BYTE		N06     An0   v127
	BYTE		N06     Bn5   v096
	BYTE	W06
	BYTE		N03     Fs2   v032
	BYTE		N03     Ds3   v052
	BYTE	W03
	BYTE		        Fs2   v032
	BYTE		N03     Ds3   v052
	BYTE	W03
	BYTE		        An0   v127
	BYTE		N03     Gs2   v032
	BYTE		N03     En3   v052
	BYTE		N06     Fs5   v096
	BYTE	W03
	BYTE		N03     Gs2   v032
	BYTE		N03     En3   v052
	BYTE	W03
	BYTE		N06     An0   v127
	BYTE		N03     En3   v032
	BYTE		N03     Bn3   v052
	BYTE		N06     Gs5   v096
	BYTE	W03
	BYTE		N03     En3   v032
	BYTE		N03     Bn3   v052
	BYTE	W03
	BYTE		        Cs3   v032
	BYTE		N03     Gs3   v052
	BYTE	W03
	BYTE		        Cs3   v032
	BYTE		N03     Gs3   v052
	BYTE	W03
	BYTE		        Cs3   v032
	BYTE		N03     Gs3   v052
	BYTE		N06     Cs5   v096
	BYTE	W03
	BYTE		N03     Cs3   v032
	BYTE		N03     Gs3   v052
	BYTE	W03
	BYTE		N12     Bn0   v127
	BYTE		N06     En5   v096
	BYTE	W12
	BYTE		N03     Cs1   v127
	BYTE		N03     En2   v032
	BYTE		N03     Cs3   v052
	BYTE	W03
	BYTE		        En2   v032
	BYTE		N03     Cs3   v052
	BYTE	W03
	BYTE		        En1   v127
	BYTE		N03     Gs2   v032
	BYTE		N03     En3   v052
	BYTE	W03
	BYTE		        Gs2   v032
	BYTE		N03     En3   v052
	BYTE	W03
	BYTE		        Gs1   v127
	BYTE		N03     Fs2   v032
	BYTE		N03     Ds3   v052
	BYTE	W03
	BYTE		        Fs2   v032
	BYTE		N03     Ds3   v052
	BYTE	W03
	BYTE		N12     Cs2   v127
	BYTE		N03     Gs2   v032
	BYTE		N03     En3   v052
	BYTE	W03
	BYTE		        Gs2   v032
	BYTE		N03     En3   v052
	BYTE	W03
	BYTE		        En2   v032
	BYTE		N03     Cs3   v052
	BYTE	W03
	BYTE		        En2   v032
	BYTE		N03     Cs3   v052
	BYTE	W03
	BYTE		N06     Bn1   v127
	BYTE		N03     En2   v032
	BYTE		N03     Cs3   v052
	BYTE	W03
	BYTE		        En2   v032
	BYTE		N03     Cs3   v052
	BYTE	W03
	BYTE		N06     Gs1   v127
	BYTE	W06
	BYTE		        En1 
	BYTE		N12     En2   v032
	BYTE		N12     Cs3   v052
	BYTE	W06
	BYTE	PEND
// 027   ----------------------------------------
Bergentruckung_4_027:
	BYTE		N06     Cs1   v127
	BYTE	W06
	BYTE		N03     Fs2   v032
	BYTE		N03     Ds3   v052
	BYTE	W03
	BYTE		        Fs2   v032
	BYTE		N03     Ds3   v052
	BYTE	W03
	BYTE		        Cs1   v127
	BYTE		N03     Gs2   v032
	BYTE		N03     En3   v052
	BYTE	W03
	BYTE		        Gs2   v032
	BYTE		N03     En3   v052
	BYTE	W03
	BYTE		N06     Cs1   v127
	BYTE		N03     En3   v032
	BYTE		N03     Bn3   v052
	BYTE	W03
	BYTE		        En3   v032
	BYTE		N03     Bn3   v052
	BYTE	W03
	BYTE		        Cs3   v032
	BYTE		N03     Gs3   v052
	BYTE	W03
	BYTE		        Cs3   v032
	BYTE		N03     Gs3   v052
	BYTE	W03
	BYTE		        Cs3   v032
	BYTE		N03     Gs3   v052
	BYTE	W03
	BYTE		        Cs3   v032
	BYTE		N03     Gs3   v052
	BYTE	W03
	BYTE		N12     Bn0   v127
	BYTE	W12
	BYTE		N06     Gs0 
	BYTE		N03     Ds2   v032
	BYTE		N18     Bn2   v052
	BYTE	W03
	BYTE		N03     Ds2   v032
	BYTE	W03
	BYTE		        Fs2 
	BYTE	W03
	BYTE		N03   
	BYTE	W03
	BYTE		        Gs2 
	BYTE	W03
	BYTE		N03   
	BYTE	W03
	BYTE		N06     Gs0   v127
	BYTE		N03     Fs2   v032
	BYTE		N18     Fs3   v052
	BYTE	W03
	BYTE		N03     Fs2   v032
	BYTE	W09
	BYTE		        Gs2 
	BYTE	W03
	BYTE		N03   
	BYTE	W03
	BYTE		N06     Gs0   v127
	BYTE		N06     Bn2   v032
	BYTE		N06     En3   v052
	BYTE	W06
	BYTE		        Bn2   v032
	BYTE		N03     En3   v052
	BYTE	W03
	BYTE		        Dn3 
	BYTE	W03
	BYTE	PEND
// 028   ----------------------------------------
Bergentruckung_4_028:
	BYTE		N06     Bn0   v127
	BYTE		N06     Bn2   v032
	BYTE		N06     Ds3   v052
	BYTE	W06
	BYTE		        Gs2   v032
	BYTE		N06     Cs3   v052
	BYTE	W06
	BYTE		        Gs2   v032
	BYTE		N06     Cs3   v052
	BYTE	W06
	BYTE		        Ds1   v127
	BYTE		N12     Fs2   v032
	BYTE		N12     Bn2   v052
	BYTE	W12
	BYTE		N06     Fs2   v032
	BYTE		N03     Cs3   v052
	BYTE	W03
	BYTE		        Dn3 
	BYTE	W03
	BYTE		N12     Fs1   v127
	BYTE		N12     Bn2   v032
	BYTE		N12     Ds3   v052
	BYTE	W12
	BYTE		N03     An0   v127
	BYTE		N03     En2   v032
	BYTE		N03     Cs3   v052
	BYTE		N06     Gs5   v096
	BYTE	W03
	BYTE		N03     En2   v032
	BYTE		N03     Cs3   v052
	BYTE	W03
	BYTE		        Cs1   v127
	BYTE		N03     Gs2   v032
	BYTE		N03     En3   v052
	BYTE	W03
	BYTE		        Gs2   v032
	BYTE		N03     En3   v052
	BYTE	W03
	BYTE		        En1   v127
	BYTE		N03     Fs2   v032
	BYTE		N03     Ds3   v052
	BYTE		N06     Cs5   v096
	BYTE	W03
	BYTE		N03     Fs2   v032
	BYTE		N03     Ds3   v052
	BYTE	W03
	BYTE		N12     An1   v127
	BYTE		N03     Gs2   v032
	BYTE		N03     En3   v052
	BYTE	W03
	BYTE		        Gs2   v032
	BYTE		N03     En3   v052
	BYTE	W03
	BYTE		        En2   v032
	BYTE		N03     Cs3   v052
	BYTE	W03
	BYTE		        En2   v032
	BYTE		N03     Cs3   v052
	BYTE	W03
	BYTE		N06     Gs1   v127
	BYTE		N03     En2   v032
	BYTE		N03     Cs3   v052
	BYTE		N06     En5   v096
	BYTE	W03
	BYTE		N03     En2   v032
	BYTE		N03     Cs3   v052
	BYTE	W03
	BYTE		N06     En1   v127
	BYTE	W06
	BYTE		        Cs1 
	BYTE		N12     En2   v032
	BYTE		N12     Cs3   v052
	BYTE		N06     Gs5   v096
	BYTE	W06
	BYTE	PEND
// 029   ----------------------------------------
	BYTE	PATT
	 POIN2	Bergentruckung_4_025
// 030   ----------------------------------------
	BYTE	PATT
	 POIN2	Bergentruckung_4_026
// 031   ----------------------------------------
Bergentruckung_4_031:
	BYTE		N06     Cs1   v127
	BYTE	W06
	BYTE		N03     Fs2   v032
	BYTE		N03     Ds3   v052
	BYTE	W03
	BYTE		        Fs2   v032
	BYTE		N03     Ds3   v052
	BYTE	W03
	BYTE		        Cs1   v127
	BYTE		N03     Gs2   v032
	BYTE		N03     En3   v052
	BYTE	W03
	BYTE		        Gs2   v032
	BYTE		N03     En3   v052
	BYTE	W03
	BYTE		N06     Cs1   v127
	BYTE		N03     En3   v032
	BYTE		N03     Bn3   v052
	BYTE	W03
	BYTE		        En3   v032
	BYTE		N03     Bn3   v052
	BYTE	W03
	BYTE		        Cs3   v032
	BYTE		N03     Gs3   v052
	BYTE	W03
	BYTE		        Cs3   v032
	BYTE		N03     Gs3   v052
	BYTE	W03
	BYTE		        Cs3   v032
	BYTE		N03     Gs3   v052
	BYTE	W03
	BYTE		        Cs3   v032
	BYTE		N03     Gs3   v052
	BYTE	W03
	BYTE		N12     Bn0   v127
	BYTE	W12
	BYTE		N06     Gs0 
	BYTE		N03     Ds2   v032
	BYTE		N18     Cn3   v052
	BYTE	W03
	BYTE		N03     Ds2   v032
	BYTE	W03
	BYTE		        Fs2 
	BYTE	W03
	BYTE		N03   
	BYTE	W03
	BYTE		        Gs2 
	BYTE	W03
	BYTE		N03   
	BYTE	W03
	BYTE		N06     Gs0   v127
	BYTE		N03     Fs2   v032
	BYTE		N18     Fs3   v052
	BYTE	W03
	BYTE		N03     Fs2   v032
	BYTE	W09
	BYTE		        Gs2 
	BYTE	W03
	BYTE		N03   
	BYTE	W03
	BYTE		N06     Gs0   v127
	BYTE		N06     Cn3   v032
	BYTE		N06     En3   v052
	BYTE	W06
	BYTE		        Cn3   v032
	BYTE		N03     En3   v052
	BYTE	W03
	BYTE		        Dn3 
	BYTE	W03
	BYTE	PEND
// 032   ----------------------------------------
	BYTE		N06     Cn1   v127
	BYTE		N06     Cn3   v032
	BYTE		N06     Ds3   v052
	BYTE	W06
	BYTE		        Gs2   v032
	BYTE		N06     Cs3   v052
	BYTE	W06
	BYTE		        Gs2   v032
	BYTE		N06     Cs3   v052
	BYTE	W06
	BYTE		        Ds1   v127
	BYTE		N12     Fs2   v032
	BYTE		N12     Cn3   v052
	BYTE	W12
	BYTE		N06     Fs2   v032
	BYTE		N03     Cs3   v052
	BYTE	W03
	BYTE		        Dn3 
	BYTE	W03
	BYTE		N12     Fs1   v127
	BYTE		N12     Gs2   v032
	BYTE		N12     Ds3   v052
	BYTE	W12
	BYTE		N03     An0   v127
	BYTE		N03     En2   v032
	BYTE		N03     Cs3   v052
	BYTE		N06     Gs5   v096
	BYTE	W03
	BYTE		N03     En2   v032
	BYTE		N03     Cs3   v052
	BYTE	W03
	BYTE		        Cs1   v127
	BYTE		N03     Gs2   v032
	BYTE		N03     En3   v052
	BYTE	W03
	BYTE		        Gs2   v032
	BYTE		N03     En3   v052
	BYTE	W03
	BYTE		        En1   v127
	BYTE		N03     Fs2   v032
	BYTE		N03     Ds3   v052
	BYTE		N06     Cs5   v096
	BYTE	W03
	BYTE		N03     Fs2   v032
	BYTE		N03     Ds3   v052
	BYTE	W03
	BYTE		N12     An1   v127
	BYTE		N03     Gs2   v032
	BYTE		N03     En3   v052
	BYTE	W03
	BYTE		        Gs2   v032
	BYTE		N03     En3   v052
	BYTE	W03
	BYTE		        En2   v032
	BYTE		N03     Cs3   v052
	BYTE	W03
	BYTE		        En2   v032
	BYTE		N03     Cs3   v052
	BYTE	W03
	BYTE		N06     Gs1   v127
	BYTE		N03     En2   v032
	BYTE		N03     Cs3   v052
	BYTE		N06     En5   v096
	BYTE	W03
	BYTE		N03     En2   v032
	BYTE		N03     Cs3   v052
	BYTE	W03
	BYTE		N06     En1   v127
	BYTE	W06
	BYTE		        Cs1 
	BYTE		N12     En2   v032
	BYTE		N12     Cs3   v052
	BYTE		N06     Gs5   v096
	BYTE	W06
// 033   ----------------------------------------
	BYTE	PATT
	 POIN2	Bergentruckung_4_025
// 034   ----------------------------------------
	BYTE	PATT
	 POIN2	Bergentruckung_4_026
// 035   ----------------------------------------
	BYTE	PATT
	 POIN2	Bergentruckung_4_027
// 036   ----------------------------------------
	BYTE	PATT
	 POIN2	Bergentruckung_4_028
// 037   ----------------------------------------
	BYTE	PATT
	 POIN2	Bergentruckung_4_025
// 038   ----------------------------------------
	BYTE	PATT
	 POIN2	Bergentruckung_4_026
// 039   ----------------------------------------
	BYTE	PATT
	 POIN2	Bergentruckung_4_031
// 040   ----------------------------------------
	BYTE		N06     Cn1   v127
	BYTE		N06     Cn3   v032
	BYTE		N06     Ds3   v052
	BYTE	W06
	BYTE		        Gs2   v032
	BYTE		N06     Cs3   v052
	BYTE	W06
	BYTE		        Gs2   v032
	BYTE		N06     Cs3   v052
	BYTE	W06
	BYTE		        Ds1   v127
	BYTE		N12     Fs2   v032
	BYTE		N12     Cn3   v052
	BYTE	W12
	BYTE		N06     Fs2   v032
	BYTE		N03     Cs3   v052
	BYTE	W03
	BYTE		        Dn3 
	BYTE	W03
	BYTE		N12     Fs1   v127
	BYTE		N12     Gs2   v032
	BYTE		N12     Ds3   v052
	BYTE	W60
// 041   ----------------------------------------
	BYTE	W96
// 042   ----------------------------------------
	BYTE	W96
// 043   ----------------------------------------
	BYTE	W96
// 044   ----------------------------------------
	BYTE	W48
	BYTE		N03     Fs0   v127
	BYTE	W06
	BYTE		        Cs1 
	BYTE	W06
	BYTE		        Fs1 
	BYTE	W06
	BYTE		        Cs1 
	BYTE	W06
	BYTE		        Fs0 
	BYTE	W06
	BYTE		        Cs1 
	BYTE	W06
	BYTE		        Fs1 
	BYTE	W06
	BYTE		        Cs1 
	BYTE	W06
// 045   ----------------------------------------
Bergentruckung_4_045:
	BYTE		N03     Fs0   v127
	BYTE	W06
	BYTE		        Cs1 
	BYTE	W06
	BYTE		        Fs1 
	BYTE	W06
	BYTE		        Cs1 
	BYTE	W06
	BYTE		N06     Gs0 
	BYTE	W12
	BYTE		        Bn0 
	BYTE	W12
	BYTE		N03     Gs0 
	BYTE	W06
	BYTE		        Ds1 
	BYTE	W06
	BYTE		        Gs1 
	BYTE	W06
	BYTE		        Ds1 
	BYTE	W06
	BYTE		        Gs0 
	BYTE	W06
	BYTE		        Ds1 
	BYTE	W06
	BYTE		        Gs1 
	BYTE	W06
	BYTE		        Ds1 
	BYTE	W06
	BYTE	PEND
// 046   ----------------------------------------
Bergentruckung_4_046:
	BYTE		N03     Gs0   v127
	BYTE	W06
	BYTE		        Ds1 
	BYTE	W06
	BYTE		        Gs1 
	BYTE	W06
	BYTE		        Ds1 
	BYTE	W06
	BYTE		N06     Bn0 
	BYTE	W12
	BYTE		        Ds1 
	BYTE	W12
	BYTE		N03     An0 
	BYTE	W06
	BYTE		        En1 
	BYTE	W06
	BYTE		        An1 
	BYTE	W06
	BYTE		        En1 
	BYTE	W06
	BYTE		        An0 
	BYTE	W06
	BYTE		        En1 
	BYTE	W06
	BYTE		        An1 
	BYTE	W06
	BYTE		        En1 
	BYTE	W06
	BYTE	PEND
// 047   ----------------------------------------
	BYTE		        An0 
	BYTE	W06
	BYTE		        En1 
	BYTE	W06
	BYTE		        An1 
	BYTE	W06
	BYTE		        En1 
	BYTE	W06
	BYTE		        An0 
	BYTE	W06
	BYTE		        En1 
	BYTE	W06
	BYTE		        An1 
	BYTE	W06
	BYTE		        En1 
	BYTE	W06
	BYTE		        Gs0 
	BYTE	W06
	BYTE		        Ds1 
	BYTE	W06
	BYTE		        Gs1 
	BYTE	W06
	BYTE		        Ds1 
	BYTE	W06
	BYTE		        Gs0 
	BYTE	W06
	BYTE		        Ds1 
	BYTE	W06
	BYTE		        Gs1 
	BYTE	W06
	BYTE		        Ds1 
	BYTE	W06
// 048   ----------------------------------------
	BYTE		N06     Bn0 
	BYTE	W18
	BYTE		        Ds1 
	BYTE	W18
	BYTE		N12     Gs1 
	BYTE	W12
	BYTE		N03     Fs0 
	BYTE	W06
	BYTE		        Cs1 
	BYTE	W06
	BYTE		        Fs1 
	BYTE	W06
	BYTE		        Cs1 
	BYTE	W06
	BYTE		        Fs0 
	BYTE	W06
	BYTE		        Cs1 
	BYTE	W06
	BYTE		        Fs1 
	BYTE	W06
	BYTE		        Cs1 
	BYTE	W06
// 049   ----------------------------------------
	BYTE	PATT
	 POIN2	Bergentruckung_4_045
// 050   ----------------------------------------
	BYTE	PATT
	 POIN2	Bergentruckung_4_046
// 051   ----------------------------------------
	BYTE		N03     An0   v127
	BYTE	W06
	BYTE		        En1 
	BYTE	W06
	BYTE		        An1 
	BYTE	W06
	BYTE		        En1 
	BYTE	W06
	BYTE		        An0 
	BYTE	W06
	BYTE		        En1 
	BYTE	W06
	BYTE		        An1 
	BYTE	W06
	BYTE		        En1 
	BYTE	W06
	BYTE		N42     Gs0 
	BYTE		N03     Ds4 
	BYTE	W03
	BYTE		        Ds4   v064
	BYTE	W03
	BYTE		        Fs4   v127
	BYTE	W03
	BYTE		        Fs4   v064
	BYTE	W03
	BYTE		        Gs4   v127
	BYTE	W03
	BYTE		        Gs4   v064
	BYTE	W03
	BYTE		        Fs4   v127
	BYTE	W03
	BYTE		        Fs4   v064
	BYTE	W09
	BYTE		        Gs4   v127
	BYTE	W03
	BYTE		        Gs4   v064
	BYTE	W03
	BYTE		N06     Bn4   v127
	BYTE		N06     En5 
	BYTE	W06
	BYTE		        Bn4   v064
	BYTE		N06     En5 
	BYTE	W06
// 052   ----------------------------------------
	BYTE		        Bn0   v127
	BYTE		N06     Bn4 
	BYTE		N06     Ds5 
	BYTE	W06
	BYTE		        Gs4 
	BYTE		N06     Cs5 
	BYTE	W06
	BYTE		        Gs4   v064
	BYTE		N06     Cs5 
	BYTE	W06
	BYTE		        Ds1   v127
	BYTE		N12     Fs4 
	BYTE		N12     Bn4 
	BYTE	W12
	BYTE		N06     Fs4   v064
	BYTE		N06     Bn4 
	BYTE	W06
	BYTE		N12     Fs1   v127
	BYTE		N12     Bn4 
	BYTE		N12     Ds5 
	BYTE	W12
	BYTE		N48     Cs2 
	BYTE		N06     Gs4 
	BYTE		N06     En5 
	BYTE	W06
	BYTE		        Fs4 
	BYTE		N06     Ds5 
	BYTE	W06
	BYTE		        En4 
	BYTE		N06     Cs5 
	BYTE	W06
	BYTE		        Ds4 
	BYTE		N06     Bn4 
	BYTE	W06
	BYTE		N12     En4 
	BYTE		N12     Cs5 
	BYTE	W12
	BYTE		        Cs4 
	BYTE		N12     Gs4 
	BYTE	W12
// 053   ----------------------------------------
	BYTE		N48     As1 
	BYTE		N18     Cs4 
	BYTE		N18     As4 
	BYTE	W18
	BYTE		N06     As3 
	BYTE		N06     Fs4 
	BYTE	W18
	BYTE		        Fs3 
	BYTE		N06     Cs4 
	BYTE	W06
	BYTE		        Gs3 
	BYTE		N06     Ds4 
	BYTE	W06
	BYTE		N24     An1 
	BYTE		N18     An3 
	BYTE		N18     En4 
	BYTE	W18
	BYTE		N12     Bn3 
	BYTE		N12     Fs4 
	BYTE	W06
	BYTE		N24     Bn1 
	BYTE	W06
	BYTE		N06     Cs4 
	BYTE	W06
	BYTE		N12     Ds4 
	BYTE		N12     Bn4 
	BYTE	W12
// 054   ----------------------------------------
	BYTE		N48     Cs2 
	BYTE		N48     En4 
	BYTE		N48     Gs4 
	BYTE	W48
	BYTE		        Cs2 
	BYTE		N06     Gs4 
	BYTE		N06     En5 
	BYTE	W06
	BYTE		        Fs4 
	BYTE		N06     Ds5 
	BYTE	W06
	BYTE		        En4 
	BYTE		N06     Cs5 
	BYTE	W06
	BYTE		        Ds4 
	BYTE		N06     Bn4 
	BYTE	W06
	BYTE		N12     En4 
	BYTE		N12     Cs5 
	BYTE	W12
	BYTE		        Cs4 
	BYTE		N12     Gs4 
	BYTE	W12
// 055   ----------------------------------------
	BYTE		N48     As1 
	BYTE		N18     Cs4 
	BYTE		N18     As4 
	BYTE	W18
	BYTE		N06     As3 
	BYTE		N06     Fs4 
	BYTE	W18
	BYTE		        Fs3 
	BYTE		N06     Cs4 
	BYTE	W06
	BYTE		        Gs3 
	BYTE		N06     Ds4 
	BYTE	W06
	BYTE		N24     An1 
	BYTE		N18     An3 
	BYTE		N18     En4 
	BYTE	W18
	BYTE		N12     Bn3 
	BYTE		N12     Ds4 
	BYTE	W06
	BYTE		N24     Bn1 
	BYTE	W06
	BYTE		N06     Gs3 
	BYTE	W06
	BYTE		N12     Bn3 
	BYTE		N12     Ds4 
	BYTE	W12
// 056   ----------------------------------------
	BYTE		N48     Cs2 
	BYTE		N48     Gs3 
	BYTE		N48     Cs4 
	BYTE	W48
	BYTE		        Cs2 
	BYTE		N06     Gs3 
	BYTE		N06     En4 
	BYTE	W06
	BYTE		        Fs3 
	BYTE		N06     Ds4 
	BYTE	W06
	BYTE		        En3 
	BYTE		N06     Cs4 
	BYTE	W06
	BYTE		        Ds3 
	BYTE		N06     Bn3 
	BYTE	W06
	BYTE		N12     En3 
	BYTE		N12     Cs4 
	BYTE	W12
	BYTE		        Cs3 
	BYTE		N12     Gs3 
	BYTE	W12
// 057   ----------------------------------------
	BYTE		N48     As1 
	BYTE		N18     Cs3 
	BYTE		N18     As3 
	BYTE	W18
	BYTE		N06     As2 
	BYTE		N06     Fs3 
	BYTE	W18
	BYTE		        Fs2 
	BYTE		N06     Cs3 
	BYTE	W06
	BYTE		        Gs2 
	BYTE		N06     Ds3 
	BYTE	W06
	BYTE		N24     An1 
	BYTE		N18     An2 
	BYTE		N18     En3 
	BYTE	W18
	BYTE		N12     Bn2 
	BYTE		N12     Fs3 
	BYTE	W06
	BYTE		N24     Bn1 
	BYTE	W06
	BYTE		N06     Cs3 
	BYTE	W06
	BYTE		N12     Ds3 
	BYTE		N12     Bn3 
	BYTE	W12
// 058   ----------------------------------------
	BYTE		N48     Cs2 
	BYTE		N48     En3 
	BYTE		N48     Gs3 
	BYTE	W48
	BYTE		        Cs2 
	BYTE		N06     Gs3 
	BYTE		N06     En4 
	BYTE	W06
	BYTE		        Fs3 
	BYTE		N06     Ds4 
	BYTE	W06
	BYTE		        En3 
	BYTE		N06     Cs4 
	BYTE	W06
	BYTE		        Ds3 
	BYTE		N06     Bn3 
	BYTE	W06
	BYTE		N12     En3 
	BYTE		N12     Cs4 
	BYTE	W12
	BYTE		        Cs3 
	BYTE		N12     Gs3 
	BYTE	W12
// 059   ----------------------------------------
	BYTE		N48     As1 
	BYTE		N18     Cs3 
	BYTE		N18     As3 
	BYTE	W18
	BYTE		N06     As2 
	BYTE		N06     Fs3 
	BYTE	W18
	BYTE		        Fs2 
	BYTE		N06     Cs3 
	BYTE	W06
	BYTE		        Gs2 
	BYTE		N06     Ds3 
	BYTE	W06
	BYTE		N24     An1 
	BYTE		N18     An2 
	BYTE		N18     En3 
	BYTE	W18
	BYTE		N12     Bn2 
	BYTE		N12     Ds3 
	BYTE	W06
	BYTE		N24     Bn1 
	BYTE	W06
	BYTE		N06     Gs2 
	BYTE	W06
	BYTE		N12     Bn2 
	BYTE		N12     Ds3 
	BYTE	W12
// 060   ----------------------------------------
	BYTE		N48     Cs2 
	BYTE		N48     Gs2 
	BYTE		N48     Cs3 
	BYTE	W48
	BYTE		N06     Dn1 
	BYTE		N06     Dn4 
	BYTE		N06     Fs4 
	BYTE	W06
	BYTE		        An0 
	BYTE		N06     Cs4 
	BYTE		N06     En4 
	BYTE	W06
	BYTE		        Dn1 
	BYTE		N06     Bn3 
	BYTE		N06     Dn4 
	BYTE	W06
	BYTE		N12     En1 
	BYTE		N06     An3 
	BYTE		N06     Cs4 
	BYTE	W06
	BYTE		        Bn3 
	BYTE		N06     Dn4 
	BYTE	W06
	BYTE		        Dn1 
	BYTE		N06     An3 
	BYTE		N06     Cs4 
	BYTE	W06
	BYTE		        Bn0 
	BYTE		N06     Gs3 
	BYTE		N06     Bn3 
	BYTE	W06
	BYTE		        Dn1 
	BYTE		N06     Bn3 
	BYTE		N06     Dn4 
	BYTE	W06
// 061   ----------------------------------------
Bergentruckung_4_061:
	BYTE		N06     Cs1   v127
	BYTE		N06     Gs3 
	BYTE		N06     Cs4 
	BYTE	W06
	BYTE		        Cs2 
	BYTE	W06
	BYTE		        Gs0 
	BYTE	W06
	BYTE		        Gs1 
	BYTE		N06     Cs3 
	BYTE		N06     Gs3 
	BYTE	W06
	BYTE		        En0 
	BYTE	W06
	BYTE		        En1 
	BYTE	W06
	BYTE		        Gs0 
	BYTE		N06     Cs3 
	BYTE		N06     Gs3 
	BYTE	W06
	BYTE		        Gs1 
	BYTE		N06     Gs3 
	BYTE		N06     Cs4 
	BYTE	W06
	BYTE		        Dn1 
	BYTE		N06     Dn4 
	BYTE		N06     Fs4 
	BYTE	W06
	BYTE		        An0 
	BYTE		N06     Cs4 
	BYTE		N06     En4 
	BYTE	W06
	BYTE		        Dn1 
	BYTE		N06     Bn3 
	BYTE		N06     Dn4 
	BYTE	W06
	BYTE		N12     En1 
	BYTE		N06     An3 
	BYTE		N06     Cs4 
	BYTE	W06
	BYTE		        Gs3 
	BYTE		N06     Bn3 
	BYTE	W06
	BYTE		        Dn1 
	BYTE		N06     Fs3 
	BYTE		N06     An3 
	BYTE	W06
	BYTE		        Bn0 
	BYTE		N06     En4 
	BYTE		N06     Gs4 
	BYTE	W06
	BYTE		        Dn2 
	BYTE		N06     Ds4 
	BYTE		N06     Fs4 
	BYTE	W06
	BYTE	PEND
// 062   ----------------------------------------
Bergentruckung_4_062:
	BYTE		N06     Cs1   v127
	BYTE		N12     Cs4 
	BYTE		N12     En4 
	BYTE	W06
	BYTE		N06     Cs2 
	BYTE	W06
	BYTE		        Ds1 
	BYTE		N12     Ds4 
	BYTE		N12     Fs4 
	BYTE	W06
	BYTE		N06     Ds2 
	BYTE	W06
	BYTE		        En1 
	BYTE		N12     En4 
	BYTE		N12     Gs4 
	BYTE	W06
	BYTE		N06     En2 
	BYTE	W06
	BYTE		        Bn1 
	BYTE		N06     En4 
	BYTE		N06     Gs4 
	BYTE	W06
	BYTE		        En1 
	BYTE		N06     Fs4 
	BYTE		N06     As4 
	BYTE	W06
	BYTE		        Fs1 
	BYTE		N06     Gs4 
	BYTE		N06     Bn4 
	BYTE	W06
	BYTE		        Cs1 
	BYTE		N06     Fs4 
	BYTE		N06     As4 
	BYTE	W06
	BYTE		        Fs1 
	BYTE		N06     En4 
	BYTE		N06     Gs4 
	BYTE	W06
	BYTE		N12     Bn1 
	BYTE		N06     Ds4 
	BYTE		N06     Fs4 
	BYTE	W06
	BYTE		        En4 
	BYTE		N06     Gs4 
	BYTE	W06
	BYTE		        As1 
	BYTE		N06     Ds4 
	BYTE		N06     Fs4 
	BYTE	W06
	BYTE		        Fs1 
	BYTE		N06     En4 
	BYTE		N06     Gs4 
	BYTE	W06
	BYTE		        En1 
	BYTE		N06     Fs4 
	BYTE		N06     As4 
	BYTE	W06
	BYTE	PEND
// 063   ----------------------------------------
	BYTE		        Cs1 
	BYTE		N06     En4 
	BYTE		N06     Gs4 
	BYTE	W06
	BYTE		        Gs0 
	BYTE	W06
	BYTE		        Ds1 
	BYTE	W06
	BYTE		        Gs0 
	BYTE		N06     Gs3 
	BYTE		N06     Cs4 
	BYTE	W06
	BYTE		        En1 
	BYTE	W06
	BYTE		        Gs0 
	BYTE	W06
	BYTE		        Fs1 
	BYTE		N06     Gs3 
	BYTE		N06     Cs4 
	BYTE	W06
	BYTE		        Gs0 
	BYTE		N06     Bn3 
	BYTE		N06     Ds4 
	BYTE	W06
	BYTE		        An0 
	BYTE		N18     Cs4 
	BYTE		N18     En4 
	BYTE	W06
	BYTE		N06     Cs1 
	BYTE	W06
	BYTE		        En1 
	BYTE	W06
	BYTE		N12     An1 
	BYTE		N18     Ds4 
	BYTE		N18     Fs4 
	BYTE	W12
	BYTE		N06     Gs1 
	BYTE	W06
	BYTE		        En1 
	BYTE		N12     Fs4 
	BYTE		N12     An4 
	BYTE	W06
	BYTE		N06     Cs1 
	BYTE	W06
// 064   ----------------------------------------
	BYTE		        Cn1 
	BYTE		N06     Gs4 
	BYTE	W12
	BYTE		        Gs1 
	BYTE		N06     Ds4 
	BYTE	W12
	BYTE		        Ds1 
	BYTE		N06     Cn4 
	BYTE	W12
	BYTE		        Gs1 
	BYTE		N06     Gs3 
	BYTE	W12
	BYTE		        Dn1 
	BYTE		N06     Dn4 
	BYTE		N06     Fs4 
	BYTE	W06
	BYTE		        An0 
	BYTE		N06     Cs4 
	BYTE		N06     En4 
	BYTE	W06
	BYTE		        Dn1 
	BYTE		N06     Bn3 
	BYTE		N06     Dn4 
	BYTE	W06
	BYTE		N12     En1 
	BYTE		N06     An3 
	BYTE		N06     Cs4 
	BYTE	W06
	BYTE		        Bn3 
	BYTE		N06     Dn4 
	BYTE	W06
	BYTE		        Dn1 
	BYTE		N06     An3 
	BYTE		N06     Cs4 
	BYTE	W06
	BYTE		        Bn0 
	BYTE		N06     Gs3 
	BYTE		N06     Bn3 
	BYTE	W06
	BYTE		        Dn1 
	BYTE		N06     Bn3 
	BYTE		N06     Dn4 
	BYTE	W06
// 065   ----------------------------------------
	BYTE	PATT
	 POIN2	Bergentruckung_4_061
// 066   ----------------------------------------
	BYTE	PATT
	 POIN2	Bergentruckung_4_062
// 067   ----------------------------------------
	BYTE		N06     Cs1   v127
	BYTE		N06     En4 
	BYTE		N06     Gs4 
	BYTE	W06
	BYTE		        Gs0 
	BYTE	W06
	BYTE		        Ds1 
	BYTE	W06
	BYTE		        Gs0 
	BYTE		N06     Gs3 
	BYTE		N06     Cs4 
	BYTE	W06
	BYTE		        En1 
	BYTE	W06
	BYTE		        Gs0 
	BYTE	W06
	BYTE		        Fs1 
	BYTE		N06     Gs3 
	BYTE		N06     Cs4 
	BYTE	W06
	BYTE		        Gs0 
	BYTE		N06     Bn3 
	BYTE		N06     Ds4 
	BYTE	W06
	BYTE		        An0 
	BYTE		N18     Cs4 
	BYTE		N18     En4 
	BYTE	W06
	BYTE		N06     Cs1 
	BYTE	W06
	BYTE		        En1 
	BYTE	W06
	BYTE		N12     An1 
	BYTE		N18     Bn3 
	BYTE		N18     Ds4 
	BYTE	W12
	BYTE		N06     Gs1 
	BYTE	W06
	BYTE		        En1 
	BYTE		N12     Fs3 
	BYTE	W06
	BYTE		N06     Cs1 
	BYTE	W06
// 068   ----------------------------------------
Bergentruckung_4_068:
	BYTE		N06     An0   v127
	BYTE		N36     Gs3 
	BYTE		N36     Cs4 
	BYTE	W06
	BYTE		N06     Cs1 
	BYTE	W06
	BYTE		        En1 
	BYTE	W06
	BYTE		N12     An1 
	BYTE	W12
	BYTE		N06     Gs1 
	BYTE	W06
	BYTE		        En1 
	BYTE		N06     Gs3 
	BYTE		N06     Cs4 
	BYTE	W06
	BYTE		        Cs1 
	BYTE		N06     Bn3 
	BYTE		N06     Ds4 
	BYTE	W06
	BYTE		        Bn0 
	BYTE		N18     Cs4 
	BYTE		N18     En4 
	BYTE	W06
	BYTE		N06     Ds1 
	BYTE	W06
	BYTE		        Fs1 
	BYTE	W06
	BYTE		N12     Bn1 
	BYTE		N18     Bn3 
	BYTE		N18     Ds4 
	BYTE	W12
	BYTE		N06     Fs1 
	BYTE	W06
	BYTE		        Ds1 
	BYTE		N12     Fs3 
	BYTE	W06
	BYTE		N06     Cs1 
	BYTE	W06
	BYTE	PEND
// 069   ----------------------------------------
	BYTE		        Bn0 
	BYTE		N36     Gs3 
	BYTE		N36     Cs4 
	BYTE	W06
	BYTE		N06     Ds1 
	BYTE	W06
	BYTE		        Fs1 
	BYTE	W06
	BYTE		N12     Bn1 
	BYTE	W12
	BYTE		N06     Fs1 
	BYTE	W06
	BYTE		        Ds1 
	BYTE		N06     Gs3 
	BYTE		N06     Cs4 
	BYTE	W06
	BYTE		        Bn0 
	BYTE		N06     Bn3 
	BYTE		N06     Ds4 
	BYTE	W06
	BYTE		        An0 
	BYTE		N18     Cs4 
	BYTE		N18     En4 
	BYTE	W06
	BYTE		N06     Cs1 
	BYTE	W06
	BYTE		        En1 
	BYTE	W06
	BYTE		N12     An1 
	BYTE		N18     Bn3 
	BYTE		N18     Ds4 
	BYTE	W12
	BYTE		N06     Gs1 
	BYTE	W06
	BYTE		        En1 
	BYTE		N12     Fs3 
	BYTE	W06
	BYTE		N06     Cs1 
	BYTE	W06
// 070   ----------------------------------------
	BYTE	PATT
	 POIN2	Bergentruckung_4_068
// 071   ----------------------------------------
	BYTE		N06     Bn0   v127
	BYTE		N36     Gs3 
	BYTE		N36     Cs4 
	BYTE	W06
	BYTE		N06     Ds1 
	BYTE	W06
	BYTE		        Fs1 
	BYTE	W06
	BYTE		N12     Bn1 
	BYTE	W18
	BYTE		        Gs1 
	BYTE		N12     Fs3 
	BYTE		N12     Bn3 
	BYTE	W12
	BYTE	GoTo
	 POIN2	Bergentruckung_4_B1
Bergentruckung_4_B2:
	BYTE	FINE

//**************** Track 5 (Midi-Chn.5) ****************//

Bergentruckung_5:
	BYTE	KEYSH   Bergentruckung_key+0
// 000   ----------------------------------------
	BYTE		VOICE   56
	BYTE		VOL     95*Bergentruckung_mvl/mxv
	BYTE	W48
Bergentruckung_5_B1:
	BYTE	W48
// 001   ----------------------------------------
	BYTE	W96
// 002   ----------------------------------------
	BYTE	W96
// 003   ----------------------------------------
	BYTE	W96
// 004   ----------------------------------------
	BYTE	W96
// 005   ----------------------------------------
	BYTE	W96
// 006   ----------------------------------------
	BYTE	W96
// 007   ----------------------------------------
	BYTE	W96
// 008   ----------------------------------------
	BYTE	W96
// 009   ----------------------------------------
	BYTE	W96
// 010   ----------------------------------------
	BYTE	W96
// 011   ----------------------------------------
	BYTE	W96
// 012   ----------------------------------------
	BYTE	W96
// 013   ----------------------------------------
	BYTE	W96
// 014   ----------------------------------------
	BYTE	W96
// 015   ----------------------------------------
	BYTE	W96
// 016   ----------------------------------------
	BYTE	W96
// 017   ----------------------------------------
	BYTE	W96
// 018   ----------------------------------------
	BYTE	W96
// 019   ----------------------------------------
	BYTE	W96
// 020   ----------------------------------------
	BYTE	W96
// 021   ----------------------------------------
	BYTE	W96
// 022   ----------------------------------------
	BYTE	W96
// 023   ----------------------------------------
	BYTE	W96
// 024   ----------------------------------------
	BYTE	W96
// 025   ----------------------------------------
	BYTE	W96
// 026   ----------------------------------------
	BYTE	W96
// 027   ----------------------------------------
	BYTE	W96
// 028   ----------------------------------------
	BYTE	W96
// 029   ----------------------------------------
	BYTE	W96
// 030   ----------------------------------------
	BYTE	W96
// 031   ----------------------------------------
	BYTE	W96
// 032   ----------------------------------------
	BYTE	W96
// 033   ----------------------------------------
	BYTE	W96
// 034   ----------------------------------------
	BYTE	W96
// 035   ----------------------------------------
	BYTE	W96
// 036   ----------------------------------------
	BYTE	W96
// 037   ----------------------------------------
	BYTE	W96
// 038   ----------------------------------------
	BYTE	W96
// 039   ----------------------------------------
	BYTE	W96
// 040   ----------------------------------------
	BYTE	W96
// 041   ----------------------------------------
	BYTE	W96
// 042   ----------------------------------------
	BYTE	W96
// 043   ----------------------------------------
	BYTE	W96
// 044   ----------------------------------------
	BYTE		N18     En3   v127
	BYTE		N18     Cs4 
	BYTE	W18
	BYTE		        Gs3 
	BYTE		N18     En4 
	BYTE	W18
	BYTE		N12     Bn3 
	BYTE		N12     Fs4 
	BYTE	W12
	BYTE		N48     Cs4 
	BYTE		N48     Gs4 
	BYTE	W48
// 045   ----------------------------------------
Bergentruckung_5_045:
	BYTE	W24
	BYTE		N06     Gs3   v127
	BYTE		N06     En4 
	BYTE	W06
	BYTE		        Gs3   v064
	BYTE		N06     En4 
	BYTE	W06
	BYTE		        Bn3   v127
	BYTE		N06     Fs4 
	BYTE	W06
	BYTE		        Bn3   v064
	BYTE		N06     Fs4 
	BYTE	W06
	BYTE		N24     Cs4   v127
	BYTE		N24     Gs4 
	BYTE	W36
	BYTE		N12     Bn3 
	BYTE		N12     Fs4 
	BYTE	W12
	BYTE	PEND
// 046   ----------------------------------------
	BYTE		        Gs3 
	BYTE		N12     En4 
	BYTE	W12
	BYTE		N06     Bn3 
	BYTE		N06     Fs4 
	BYTE	W06
	BYTE		        Fs3 
	BYTE		N06     Ds4 
	BYTE	W18
	BYTE		N12     Ds3 
	BYTE		N12     Bn3 
	BYTE	W12
	BYTE		N48     En3 
	BYTE		N48     Cs4 
	BYTE	W48
// 047   ----------------------------------------
	BYTE	W24
	BYTE		N06     Gs3 
	BYTE		N06     En4 
	BYTE	W06
	BYTE		        Gs3   v064
	BYTE		N06     En4 
	BYTE	W06
	BYTE		        Bn3   v127
	BYTE		N06     Fs4 
	BYTE	W06
	BYTE		        Bn3   v064
	BYTE		N06     Fs4 
	BYTE	W06
	BYTE		N24     Cs4   v127
	BYTE		N24     Gs4 
	BYTE	W32
	BYTE	W01
	BYTE		N03     Fn4 
	BYTE	W03
	BYTE		N06     Bn3 
	BYTE		N06     Fs4 
	BYTE	W12
// 048   ----------------------------------------
	BYTE		N12     Gs3 
	BYTE		N12     En4 
	BYTE	W12
	BYTE		N06     Bn3 
	BYTE		N06     Fs4 
	BYTE	W06
	BYTE		        Fs3 
	BYTE		N06     Ds4 
	BYTE	W18
	BYTE		N12   
	BYTE		N12     Bn4 
	BYTE	W12
	BYTE		N48     Cs4 
	BYTE		N48     Gs4 
	BYTE	W48
// 049   ----------------------------------------
	BYTE	PATT
	 POIN2	Bergentruckung_5_045
// 050   ----------------------------------------
	BYTE		N12     Gs3   v127
	BYTE		N12     En4 
	BYTE	W12
	BYTE		N06     Bn3 
	BYTE		N06     Fs4 
	BYTE	W06
	BYTE		        Fs3 
	BYTE		N06     Ds4 
	BYTE	W18
	BYTE		N12     Ds3 
	BYTE		N12     Bn3 
	BYTE	W12
	BYTE		N90     En3 
	BYTE		N90     Cs4 
	BYTE	W48
// 051   ----------------------------------------
	BYTE	W96
// 052   ----------------------------------------
	BYTE	W96
// 053   ----------------------------------------
	BYTE	W96
// 054   ----------------------------------------
	BYTE	W96
// 055   ----------------------------------------
	BYTE	W96
// 056   ----------------------------------------
	BYTE	W96
// 057   ----------------------------------------
	BYTE	W96
// 058   ----------------------------------------
	BYTE	W96
// 059   ----------------------------------------
	BYTE	W96
// 060   ----------------------------------------
	BYTE	W96
// 061   ----------------------------------------
	BYTE	W96
// 062   ----------------------------------------
	BYTE	W96
// 063   ----------------------------------------
	BYTE	W96
// 064   ----------------------------------------
	BYTE	W96
// 065   ----------------------------------------
	BYTE	W96
// 066   ----------------------------------------
	BYTE	W96
// 067   ----------------------------------------
	BYTE	W96
// 068   ----------------------------------------
	BYTE	W96
// 069   ----------------------------------------
	BYTE	W96
// 070   ----------------------------------------
	BYTE	W96
// 071   ----------------------------------------
	BYTE	W48
	BYTE	GoTo
	 POIN2	Bergentruckung_5_B1
Bergentruckung_5_B2:
	BYTE	FINE

//**************** Track 6 (Midi-Chn.6) ****************//

Bergentruckung_6:
	BYTE	KEYSH   Bergentruckung_key+0
// 000   ----------------------------------------
	BYTE		VOICE   63
	BYTE		VOL     63*Bergentruckung_mvl/mxv
	BYTE	W48
Bergentruckung_6_B1:
	BYTE	W48
// 001   ----------------------------------------
	BYTE	W96
// 002   ----------------------------------------
	BYTE	W96
// 003   ----------------------------------------
	BYTE	W96
// 004   ----------------------------------------
	BYTE	W96
// 005   ----------------------------------------
	BYTE	W96
// 006   ----------------------------------------
	BYTE	W96
// 007   ----------------------------------------
	BYTE	W96
// 008   ----------------------------------------
	BYTE	W96
// 009   ----------------------------------------
	BYTE	W96
// 010   ----------------------------------------
	BYTE	W96
// 011   ----------------------------------------
	BYTE	W96
// 012   ----------------------------------------
	BYTE	W96
// 013   ----------------------------------------
	BYTE	W96
// 014   ----------------------------------------
	BYTE	W96
// 015   ----------------------------------------
	BYTE	W96
// 016   ----------------------------------------
	BYTE	W96
// 017   ----------------------------------------
	BYTE	W96
// 018   ----------------------------------------
	BYTE	W96
// 019   ----------------------------------------
	BYTE	W96
// 020   ----------------------------------------
	BYTE	W96
// 021   ----------------------------------------
	BYTE	W96
// 022   ----------------------------------------
	BYTE	W96
// 023   ----------------------------------------
	BYTE	W96
// 024   ----------------------------------------
	BYTE	W96
// 025   ----------------------------------------
	BYTE	W96
// 026   ----------------------------------------
	BYTE	W96
// 027   ----------------------------------------
	BYTE	W96
// 028   ----------------------------------------
	BYTE	W96
// 029   ----------------------------------------
	BYTE	W96
// 030   ----------------------------------------
	BYTE	W96
// 031   ----------------------------------------
	BYTE	W96
// 032   ----------------------------------------
	BYTE	W96
// 033   ----------------------------------------
	BYTE	W96
// 034   ----------------------------------------
	BYTE	W96
// 035   ----------------------------------------
	BYTE	W96
// 036   ----------------------------------------
	BYTE	W96
// 037   ----------------------------------------
	BYTE	W96
// 038   ----------------------------------------
	BYTE	W96
// 039   ----------------------------------------
	BYTE	W96
// 040   ----------------------------------------
	BYTE	W96
// 041   ----------------------------------------
	BYTE	W96
// 042   ----------------------------------------
	BYTE	W96
// 043   ----------------------------------------
	BYTE	W96
// 044   ----------------------------------------
Bergentruckung_6_044:
	BYTE	W48
	BYTE		N06     Cs4   v127
	BYTE		N06     En4 
	BYTE	W06
	BYTE		N06   
	BYTE		N06     Gs4 
	BYTE	W06
	BYTE		        Ds4 
	BYTE		N06     Fs4 
	BYTE	W06
	BYTE		        En4 
	BYTE		N06     Gs4 
	BYTE	W06
	BYTE		        Cs4 
	BYTE	W18
	BYTE		N12   
	BYTE		N12     En4 
	BYTE	W06
	BYTE	PEND
// 045   ----------------------------------------
Bergentruckung_6_045:
	BYTE	W06
	BYTE		N06     Ds4   v127
	BYTE		N06     Fs4 
	BYTE	W06
	BYTE		        En4 
	BYTE		N06     Gs4 
	BYTE	W06
	BYTE		        Bn4 
	BYTE		N06     En5 
	BYTE	W06
	BYTE		        Gs4 
	BYTE		N06     Cs5 
	BYTE	W24
	BYTE		        Cs4 
	BYTE		N06     En4 
	BYTE	W06
	BYTE		N06   
	BYTE		N06     Gs4 
	BYTE	W06
	BYTE		        Ds4 
	BYTE		N06     Fs4 
	BYTE	W06
	BYTE		        En4 
	BYTE		N06     Gs4 
	BYTE	W06
	BYTE		        Cs4 
	BYTE	W24
	BYTE	PEND
// 046   ----------------------------------------
	BYTE	PATT
	 POIN2	Bergentruckung_6_044
// 047   ----------------------------------------
	BYTE	PATT
	 POIN2	Bergentruckung_6_045
// 048   ----------------------------------------
	BYTE	PATT
	 POIN2	Bergentruckung_6_044
// 049   ----------------------------------------
	BYTE	PATT
	 POIN2	Bergentruckung_6_045
// 050   ----------------------------------------
	BYTE	PATT
	 POIN2	Bergentruckung_6_044
// 051   ----------------------------------------
	BYTE	W06
	BYTE		N06     Ds4   v127
	BYTE		N06     Fs4 
	BYTE	W06
	BYTE		        En4 
	BYTE		N06     Gs4 
	BYTE	W06
	BYTE		        Bn4 
	BYTE		N06     En5 
	BYTE	W06
	BYTE		        Gs4 
	BYTE		N06     Cs5 
	BYTE	W72
// 052   ----------------------------------------
	BYTE	W96
// 053   ----------------------------------------
	BYTE	W96
// 054   ----------------------------------------
	BYTE	W96
// 055   ----------------------------------------
	BYTE	W96
// 056   ----------------------------------------
	BYTE	W96
// 057   ----------------------------------------
	BYTE	W96
// 058   ----------------------------------------
	BYTE	W96
// 059   ----------------------------------------
	BYTE	W96
// 060   ----------------------------------------
	BYTE	W96
// 061   ----------------------------------------
	BYTE	W96
// 062   ----------------------------------------
	BYTE	W96
// 063   ----------------------------------------
	BYTE	W96
// 064   ----------------------------------------
	BYTE	W96
// 065   ----------------------------------------
	BYTE	W96
// 066   ----------------------------------------
	BYTE	W96
// 067   ----------------------------------------
	BYTE	W96
// 068   ----------------------------------------
	BYTE	W96
// 069   ----------------------------------------
	BYTE	W96
// 070   ----------------------------------------
	BYTE	W96
// 071   ----------------------------------------
	BYTE	W48
	BYTE	GoTo
	 POIN2	Bergentruckung_6_B1
Bergentruckung_6_B2:
	BYTE	FINE

//**************** Track 7 (Midi-Chn.7) ****************//

Bergentruckung_7:
	BYTE	KEYSH   Bergentruckung_key+0
// 000   ----------------------------------------
	BYTE		VOICE   57
	BYTE		VOL     64*Bergentruckung_mvl/mxv
	BYTE	W48
Bergentruckung_7_B1:
	BYTE	W48
// 001   ----------------------------------------
	BYTE	W96
// 002   ----------------------------------------
	BYTE	W96
// 003   ----------------------------------------
	BYTE	W96
// 004   ----------------------------------------
	BYTE	W96
// 005   ----------------------------------------
	BYTE	W96
// 006   ----------------------------------------
	BYTE	W96
// 007   ----------------------------------------
	BYTE	W96
// 008   ----------------------------------------
	BYTE	W96
// 009   ----------------------------------------
	BYTE	W96
// 010   ----------------------------------------
	BYTE	W96
// 011   ----------------------------------------
	BYTE	W96
// 012   ----------------------------------------
	BYTE	W96
// 013   ----------------------------------------
	BYTE	W96
// 014   ----------------------------------------
	BYTE	W96
// 015   ----------------------------------------
	BYTE	W96
// 016   ----------------------------------------
	BYTE	W96
// 017   ----------------------------------------
	BYTE	W96
// 018   ----------------------------------------
	BYTE	W96
// 019   ----------------------------------------
	BYTE	W96
// 020   ----------------------------------------
	BYTE	W96
// 021   ----------------------------------------
	BYTE	W96
// 022   ----------------------------------------
	BYTE	W96
// 023   ----------------------------------------
	BYTE	W96
// 024   ----------------------------------------
	BYTE	W96
// 025   ----------------------------------------
	BYTE	W96
// 026   ----------------------------------------
	BYTE	W96
// 027   ----------------------------------------
	BYTE	W96
// 028   ----------------------------------------
	BYTE	W96
// 029   ----------------------------------------
	BYTE	W96
// 030   ----------------------------------------
	BYTE	W96
// 031   ----------------------------------------
	BYTE	W96
// 032   ----------------------------------------
	BYTE	W96
// 033   ----------------------------------------
	BYTE	W96
// 034   ----------------------------------------
	BYTE	W96
// 035   ----------------------------------------
	BYTE	W96
// 036   ----------------------------------------
	BYTE	W96
// 037   ----------------------------------------
	BYTE	W96
// 038   ----------------------------------------
	BYTE	W96
// 039   ----------------------------------------
	BYTE	W96
// 040   ----------------------------------------
	BYTE	W96
// 041   ----------------------------------------
	BYTE	W96
// 042   ----------------------------------------
	BYTE	W96
// 043   ----------------------------------------
	BYTE	W96
// 044   ----------------------------------------
	BYTE	W96
// 045   ----------------------------------------
	BYTE	W96
// 046   ----------------------------------------
	BYTE	W96
// 047   ----------------------------------------
	BYTE	W96
// 048   ----------------------------------------
	BYTE	W96
// 049   ----------------------------------------
	BYTE	W96
// 050   ----------------------------------------
	BYTE	W96
// 051   ----------------------------------------
	BYTE	W96
// 052   ----------------------------------------
	BYTE	W96
// 053   ----------------------------------------
	BYTE	W96
// 054   ----------------------------------------
	BYTE	W96
// 055   ----------------------------------------
	BYTE	W96
// 056   ----------------------------------------
	BYTE	W48
	BYTE		N06     Gs4   v127
	BYTE		N06     En5 
	BYTE	W06
	BYTE		        Fs4 
	BYTE		N06     Ds5 
	BYTE	W06
	BYTE		        En4 
	BYTE		N06     Cs5 
	BYTE	W06
	BYTE		        Ds4 
	BYTE		N06     Bn4 
	BYTE	W06
	BYTE		N12     En4 
	BYTE		N12     Cs5 
	BYTE	W12
	BYTE		        Cs4 
	BYTE		N12     Gs4 
	BYTE	W12
// 057   ----------------------------------------
	BYTE		N18     Cs4 
	BYTE		N18     As4 
	BYTE	W18
	BYTE		N06     As3 
	BYTE		N06     Fs4 
	BYTE	W18
	BYTE		        Fs3 
	BYTE		N06     Cs4 
	BYTE	W06
	BYTE		        Gs3 
	BYTE		N06     Ds4 
	BYTE	W06
	BYTE		N18     An3 
	BYTE		N18     En4 
	BYTE	W18
	BYTE		N12     Bn3 
	BYTE		N12     Fs4 
	BYTE	W12
	BYTE		N06     Cs4 
	BYTE	W06
	BYTE		N12     Ds4 
	BYTE		N12     Bn4 
	BYTE	W12
// 058   ----------------------------------------
	BYTE		N48     En4 
	BYTE		N48     Gs4 
	BYTE	W48
	BYTE		N06   
	BYTE		N06     En5 
	BYTE	W06
	BYTE		        Fs4 
	BYTE		N06     Ds5 
	BYTE	W06
	BYTE		        En4 
	BYTE		N06     Cs5 
	BYTE	W06
	BYTE		        Ds4 
	BYTE		N06     Bn4 
	BYTE	W06
	BYTE		N12     En4 
	BYTE		N12     Cs5 
	BYTE	W12
	BYTE		        Cs4 
	BYTE		N12     Gs4 
	BYTE	W12
// 059   ----------------------------------------
	BYTE		N18     Cs4 
	BYTE		N18     As4 
	BYTE	W18
	BYTE		N06     As3 
	BYTE		N06     Fs4 
	BYTE	W18
	BYTE		        Fs3 
	BYTE		N06     Cs4 
	BYTE	W06
	BYTE		        Gs3 
	BYTE		N06     Ds4 
	BYTE	W06
	BYTE		N18     An3 
	BYTE		N18     En4 
	BYTE	W18
	BYTE		N12     Bn3 
	BYTE		N12     Ds4 
	BYTE	W12
	BYTE		N06     Gs3 
	BYTE	W06
	BYTE		N12     Bn3 
	BYTE		N12     Ds4 
	BYTE	W12
// 060   ----------------------------------------
	BYTE		N48     Gs3 
	BYTE		N48     Cs4 
	BYTE	W48
	BYTE		N06     Dn5 
	BYTE		N06     Fs5 
	BYTE	W06
	BYTE		        Cs5 
	BYTE		N06     En5 
	BYTE	W06
	BYTE		        Bn4 
	BYTE		N06     Dn5 
	BYTE	W06
	BYTE		        An4 
	BYTE		N06     Cs5 
	BYTE	W06
	BYTE		        Bn4 
	BYTE		N06     Dn5 
	BYTE	W06
	BYTE		        An4 
	BYTE		N06     Cs5 
	BYTE	W06
	BYTE		        Gs4 
	BYTE		N06     Bn4 
	BYTE	W06
	BYTE		N06   
	BYTE		N06     Dn5 
	BYTE	W06
// 061   ----------------------------------------
Bergentruckung_7_061:
	BYTE		N06     Gs4   v127
	BYTE		N06     Cs5 
	BYTE	W18
	BYTE		        Cs4 
	BYTE		N06     Gs4 
	BYTE	W18
	BYTE		        Cs4 
	BYTE		N06     Gs4 
	BYTE	W06
	BYTE		N06   
	BYTE		N06     Cs5 
	BYTE	W06
	BYTE		        Dn5 
	BYTE		N06     Fs5 
	BYTE	W06
	BYTE		        Cs5 
	BYTE		N06     En5 
	BYTE	W06
	BYTE		        Bn4 
	BYTE		N06     Dn5 
	BYTE	W06
	BYTE		        An4 
	BYTE		N06     Cs5 
	BYTE	W06
	BYTE		        Gs4 
	BYTE		N06     Bn4 
	BYTE	W06
	BYTE		        Fs4 
	BYTE		N06     An4 
	BYTE	W06
	BYTE		        En5 
	BYTE		N06     Gs5 
	BYTE	W06
	BYTE		        Ds5 
	BYTE		N06     Fs5 
	BYTE	W06
	BYTE	PEND
// 062   ----------------------------------------
Bergentruckung_7_062:
	BYTE		N12     Cs5   v127
	BYTE		N12     En5 
	BYTE	W12
	BYTE		        Ds5 
	BYTE		N12     Fs5 
	BYTE	W12
	BYTE		        En5 
	BYTE		N12     Gs5 
	BYTE	W12
	BYTE		N06     En5 
	BYTE		N06     Gs5 
	BYTE	W06
	BYTE		        Fs5 
	BYTE		N06     As5 
	BYTE	W06
	BYTE		        Gs5 
	BYTE		N06     Bn5 
	BYTE	W06
	BYTE		        Fs5 
	BYTE		N06     As5 
	BYTE	W06
	BYTE		        En5 
	BYTE		N06     Gs5 
	BYTE	W06
	BYTE		        Ds5 
	BYTE		N06     Fs5 
	BYTE	W06
	BYTE		        En5 
	BYTE		N06     Gs5 
	BYTE	W06
	BYTE		        Ds5 
	BYTE		N06     Fs5 
	BYTE	W06
	BYTE		        En5 
	BYTE		N06     Gs5 
	BYTE	W06
	BYTE		        Fs5 
	BYTE		N06     As5 
	BYTE	W06
	BYTE	PEND
// 063   ----------------------------------------
	BYTE		        En5 
	BYTE		N06     Gs5 
	BYTE	W18
	BYTE		        Gs4 
	BYTE		N06     Cs5 
	BYTE	W18
	BYTE		        Gs4 
	BYTE		N06     Cs5 
	BYTE	W06
	BYTE		        Bn4 
	BYTE		N06     Ds5 
	BYTE	W06
	BYTE		N18     Cs5 
	BYTE		N18     En5 
	BYTE	W18
	BYTE		        Ds5 
	BYTE		N18     Fs5 
	BYTE	W18
	BYTE		N12   
	BYTE		N12     An5 
	BYTE	W12
// 064   ----------------------------------------
	BYTE		N06     Gs5 
	BYTE	W12
	BYTE		        Ds5 
	BYTE	W12
	BYTE		        Cn5 
	BYTE	W12
	BYTE		        Gs4 
	BYTE	W12
	BYTE		        Dn5 
	BYTE		N06     Fs5 
	BYTE	W06
	BYTE		        Cs5 
	BYTE		N06     En5 
	BYTE	W06
	BYTE		        Bn4 
	BYTE		N06     Dn5 
	BYTE	W06
	BYTE		        An4 
	BYTE		N06     Cs5 
	BYTE	W06
	BYTE		        Bn4 
	BYTE		N06     Dn5 
	BYTE	W06
	BYTE		        An4 
	BYTE		N06     Cs5 
	BYTE	W06
	BYTE		        Gs4 
	BYTE		N06     Bn4 
	BYTE	W06
	BYTE		N06   
	BYTE		N06     Dn5 
	BYTE	W06
// 065   ----------------------------------------
	BYTE	PATT
	 POIN2	Bergentruckung_7_061
// 066   ----------------------------------------
	BYTE	PATT
	 POIN2	Bergentruckung_7_062
// 067   ----------------------------------------
	BYTE		N06     En5   v127
	BYTE		N06     Gs5 
	BYTE	W18
	BYTE		        Gs4 
	BYTE		N06     Cs5 
	BYTE	W18
	BYTE		        Gs4 
	BYTE		N06     Cs5 
	BYTE	W06
	BYTE		        Bn4 
	BYTE		N06     Ds5 
	BYTE	W06
	BYTE		N18     Cs5 
	BYTE		N18     En5 
	BYTE	W18
	BYTE		        Bn4 
	BYTE		N18     Ds5 
	BYTE	W18
	BYTE		N12     Fs4 
	BYTE	W12
// 068   ----------------------------------------
Bergentruckung_7_068:
	BYTE		N36     Gs4   v127
	BYTE		N36     Cs5 
	BYTE	W36
	BYTE		N06     Gs4 
	BYTE		N06     Cs5 
	BYTE	W06
	BYTE		        Bn4 
	BYTE		N06     Ds5 
	BYTE	W06
	BYTE		N18     Cs5 
	BYTE		N18     En5 
	BYTE	W18
	BYTE		        Bn4 
	BYTE		N18     Ds5 
	BYTE	W18
	BYTE		N12     Fs4 
	BYTE	W12
	BYTE	PEND
// 069   ----------------------------------------
	BYTE	PATT
	 POIN2	Bergentruckung_7_068
// 070   ----------------------------------------
	BYTE	PATT
	 POIN2	Bergentruckung_7_068
// 071   ----------------------------------------
	BYTE		N36     Gs4   v127
	BYTE		N36     Cs5 
	BYTE	W36
	BYTE		N12     Fs4 
	BYTE		N12     Bn4 
	BYTE	W12
	BYTE	GoTo
	 POIN2	Bergentruckung_7_B1
Bergentruckung_7_B2:
	BYTE	FINE

//**************** Track 8 (Midi-Chn.8) ****************//

Bergentruckung_8:
	BYTE	KEYSH   Bergentruckung_key+0
// 000   ----------------------------------------
	BYTE		VOICE   40
	BYTE		VOL     63*Bergentruckung_mvl/mxv
	BYTE	W48
Bergentruckung_8_B1:
	BYTE	W48
// 001   ----------------------------------------
	BYTE	W96
// 002   ----------------------------------------
	BYTE	W96
// 003   ----------------------------------------
	BYTE	W96
// 004   ----------------------------------------
Bergentruckung_8_004:
	BYTE		N06     En4   v127
	BYTE	W12
	BYTE		        En4   v064
	BYTE	W12
	BYTE		        Fs4   v127
	BYTE	W12
	BYTE		        Fs4   v064
	BYTE	W12
	BYTE		N42     Fs4   v127
	BYTE		N36     Bn4 
	BYTE	W36
	BYTE		N06     Cs5 
	BYTE	W12
	BYTE	PEND
// 005   ----------------------------------------
Bergentruckung_8_005:
	BYTE		N12     Gs3   v127
	BYTE		N12     En4 
	BYTE	W18
	BYTE		        Bn3 
	BYTE		N12     Fs4 
	BYTE	W18
	BYTE		N06     Cs4 
	BYTE		N06     Gs4 
	BYTE	W12
	BYTE		N42     Fs4 
	BYTE		N36     Bn4 
	BYTE	W36
	BYTE		N06     Cs5 
	BYTE	W12
	BYTE	PEND
// 006   ----------------------------------------
Bergentruckung_8_006:
	BYTE		N12     Fs3   v127
	BYTE		N12     Ds4 
	BYTE	W18
	BYTE		        Fs4 
	BYTE		N12     Ds5 
	BYTE	W18
	BYTE		        Ds4 
	BYTE		N12     Bn4 
	BYTE	W12
	BYTE		N84     Cs4 
	BYTE		N84     Gs4 
	BYTE	W48
	BYTE	PEND
// 007   ----------------------------------------
Bergentruckung_8_007:
	BYTE	W36
	BYTE		N06     Ds4   v127
	BYTE		N06     An4 
	BYTE	W06
	BYTE		        Cs4 
	BYTE		N06     Gs4 
	BYTE	W06
	BYTE		N24     Bn3 
	BYTE		N24     Fs4 
	BYTE	W48
	BYTE	PEND
// 008   ----------------------------------------
	BYTE	W96
// 009   ----------------------------------------
	BYTE	W96
// 010   ----------------------------------------
	BYTE	W96
// 011   ----------------------------------------
	BYTE	W96
// 012   ----------------------------------------
	BYTE	PATT
	 POIN2	Bergentruckung_8_004
// 013   ----------------------------------------
	BYTE	PATT
	 POIN2	Bergentruckung_8_005
// 014   ----------------------------------------
	BYTE	PATT
	 POIN2	Bergentruckung_8_006
// 015   ----------------------------------------
	BYTE	PATT
	 POIN2	Bergentruckung_8_007
// 016   ----------------------------------------
	BYTE	W96
// 017   ----------------------------------------
	BYTE	W96
// 018   ----------------------------------------
	BYTE	W96
// 019   ----------------------------------------
	BYTE	W96
// 020   ----------------------------------------
	BYTE	W96
// 021   ----------------------------------------
	BYTE	W96
// 022   ----------------------------------------
	BYTE	W96
// 023   ----------------------------------------
	BYTE	W96
// 024   ----------------------------------------
	BYTE	W48
	BYTE		N03     Cs4   v127
	BYTE		TIE     Cs5 
	BYTE	W03
	BYTE		N03     Cs4   v064
	BYTE	W03
	BYTE		        En4   v127
	BYTE	W03
	BYTE		        En4   v064
	BYTE	W03
	BYTE		        Ds4   v127
	BYTE	W03
	BYTE		        Ds4   v064
	BYTE	W03
	BYTE		        En4   v127
	BYTE	W03
	BYTE		        En4   v064
	BYTE	W03
	BYTE		        Cs4   v127
	BYTE	W03
	BYTE		        Cs4   v064
	BYTE	W03
	BYTE		        Cs4   v032
	BYTE	W03
	BYTE		        Cs4   v016
	BYTE	W09
	BYTE		N12     Cs4   v127
	BYTE	W06
// 025   ----------------------------------------
Bergentruckung_8_025:
	BYTE	W06
	BYTE		N03     Ds4   v127
	BYTE	W03
	BYTE		        Ds4   v064
	BYTE	W03
	BYTE		        En4   v127
	BYTE	W03
	BYTE		        En4   v064
	BYTE	W03
	BYTE		        Bn4   v127
	BYTE	W03
	BYTE		        Bn4   v064
	BYTE	W03
	BYTE		        Gs4   v127
	BYTE	W03
	BYTE		        Gs4   v064
	BYTE	W03
	BYTE		        Gs4   v032
	BYTE	W03
	BYTE		        Gs4   v016
	BYTE	W15
	BYTE		        Cs4   v127
	BYTE	W03
	BYTE		        Cs4   v064
	BYTE	W03
	BYTE		        En4   v127
	BYTE	W03
	BYTE		        En4   v064
	BYTE	W03
	BYTE		        Ds4   v127
	BYTE	W03
	BYTE		        Ds4   v064
	BYTE	W03
	BYTE		        En4   v127
	BYTE	W03
	BYTE		        En4   v064
	BYTE	W03
	BYTE		        Cs4   v127
	BYTE	W03
	BYTE		        Cs4   v064
	BYTE	W03
	BYTE		        Cs4   v032
	BYTE	W03
	BYTE		        Cs4   v016
	BYTE	W09
	BYTE		N12     Cs4   v127
	BYTE	W06
	BYTE	PEND
// 026   ----------------------------------------
Bergentruckung_8_026:
	BYTE	W06
	BYTE		N03     Ds4   v127
	BYTE	W03
	BYTE		        Ds4   v064
	BYTE	W03
	BYTE		        En4   v127
	BYTE	W03
	BYTE		        En4   v064
	BYTE	W03
	BYTE		        Bn4   v127
	BYTE	W03
	BYTE		        Bn4   v064
	BYTE	W03
	BYTE		        Gs4   v127
	BYTE	W03
	BYTE		        Gs4   v064
	BYTE	W03
	BYTE		        Gs4   v032
	BYTE	W03
	BYTE		        Gs4   v016
	BYTE	W15
	BYTE	PEND
	BYTE		EOT     Cs5 
	BYTE		N03     Cs4   v127
	BYTE		N96     Ds5 
	BYTE	W03
	BYTE		N03     Cs4   v064
	BYTE	W03
	BYTE		        En4   v127
	BYTE	W03
	BYTE		        En4   v064
	BYTE	W03
	BYTE		        Ds4   v127
	BYTE	W03
	BYTE		        Ds4   v064
	BYTE	W03
	BYTE		        En4   v127
	BYTE	W03
	BYTE		        En4   v064
	BYTE	W03
	BYTE		        Cs4   v127
	BYTE	W03
	BYTE		        Cs4   v064
	BYTE	W03
	BYTE		        Cs4   v032
	BYTE	W03
	BYTE		        Cs4   v016
	BYTE	W09
	BYTE		N12     Cs4   v127
	BYTE	W06
// 027   ----------------------------------------
Bergentruckung_8_027:
	BYTE	W06
	BYTE		N03     Ds4   v127
	BYTE	W03
	BYTE		        Ds4   v064
	BYTE	W03
	BYTE		        En4   v127
	BYTE	W03
	BYTE		        En4   v064
	BYTE	W03
	BYTE		        Bn4   v127
	BYTE	W03
	BYTE		        Bn4   v064
	BYTE	W03
	BYTE		        Gs4   v127
	BYTE	W03
	BYTE		        Gs4   v064
	BYTE	W03
	BYTE		        Gs4   v032
	BYTE	W03
	BYTE		        Gs4   v016
	BYTE	W15
	BYTE		N18     Bn3   v127
	BYTE		N96     Fs5 
	BYTE	W18
	BYTE		N18     Fs4 
	BYTE	W18
	BYTE		N06     En4 
	BYTE	W06
	BYTE		N03     En4   v064
	BYTE	W03
	BYTE		        Dn4   v127
	BYTE	W03
	BYTE	PEND
// 028   ----------------------------------------
Bergentruckung_8_028:
	BYTE		N06     Ds4   v127
	BYTE	W06
	BYTE		        Cs4 
	BYTE	W06
	BYTE		        Cs4   v064
	BYTE	W06
	BYTE		N12     Bn3   v127
	BYTE	W12
	BYTE		N03     Cs4 
	BYTE	W03
	BYTE		        Dn4 
	BYTE	W03
	BYTE		N12     Ds4 
	BYTE	W12
	BYTE		N03     Cs4 
	BYTE		TIE     Cs5 
	BYTE	W03
	BYTE		N03     Cs4   v064
	BYTE	W03
	BYTE		        En4   v127
	BYTE	W03
	BYTE		        En4   v064
	BYTE	W03
	BYTE		        Ds4   v127
	BYTE	W03
	BYTE		        Ds4   v064
	BYTE	W03
	BYTE		        En4   v127
	BYTE	W03
	BYTE		        En4   v064
	BYTE	W03
	BYTE		        Cs4   v127
	BYTE	W03
	BYTE		        Cs4   v064
	BYTE	W03
	BYTE		        Cs4   v032
	BYTE	W03
	BYTE		        Cs4   v016
	BYTE	W09
	BYTE		N12     Cs4   v127
	BYTE	W06
	BYTE	PEND
// 029   ----------------------------------------
	BYTE	PATT
	 POIN2	Bergentruckung_8_025
// 030   ----------------------------------------
	BYTE	PATT
	 POIN2	Bergentruckung_8_026
	BYTE		EOT     Cs5 
	BYTE		N03     Cs4   v127
	BYTE		N96     Ds5 
	BYTE	W03
	BYTE		N03     Cs4   v064
	BYTE	W03
	BYTE		        En4   v127
	BYTE	W03
	BYTE		        En4   v064
	BYTE	W03
	BYTE		        Ds4   v127
	BYTE	W03
	BYTE		        Ds4   v064
	BYTE	W03
	BYTE		        En4   v127
	BYTE	W03
	BYTE		        En4   v064
	BYTE	W03
	BYTE		        Cs4   v127
	BYTE	W03
	BYTE		        Cs4   v064
	BYTE	W03
	BYTE		        Cs4   v032
	BYTE	W03
	BYTE		        Cs4   v016
	BYTE	W09
	BYTE		N12     Cs4   v127
	BYTE	W06
// 031   ----------------------------------------
Bergentruckung_8_031:
	BYTE	W06
	BYTE		N03     Ds4   v127
	BYTE	W03
	BYTE		        Ds4   v064
	BYTE	W03
	BYTE		        En4   v127
	BYTE	W03
	BYTE		        En4   v064
	BYTE	W03
	BYTE		        Bn4   v127
	BYTE	W03
	BYTE		        Bn4   v064
	BYTE	W03
	BYTE		        Gs4   v127
	BYTE	W03
	BYTE		        Gs4   v064
	BYTE	W03
	BYTE		        Gs4   v032
	BYTE	W03
	BYTE		        Gs4   v016
	BYTE	W15
	BYTE		N18     Cn4   v127
	BYTE		N96     Fs5 
	BYTE	W18
	BYTE		N18     Fs4 
	BYTE	W18
	BYTE		N06     En4 
	BYTE	W06
	BYTE		N03     En4   v064
	BYTE	W03
	BYTE		        Dn4   v127
	BYTE	W03
	BYTE	PEND
// 032   ----------------------------------------
	BYTE		N06     Ds4 
	BYTE	W06
	BYTE		        Cs4 
	BYTE	W06
	BYTE		        Cs4   v064
	BYTE	W06
	BYTE		N12     Cn4   v127
	BYTE	W12
	BYTE		N03     Cs4 
	BYTE	W03
	BYTE		        Dn4 
	BYTE	W03
	BYTE		N12     Ds4 
	BYTE	W12
	BYTE		N03     Cs4 
	BYTE		TIE     Cs5 
	BYTE	W03
	BYTE		N03     Cs4   v064
	BYTE	W03
	BYTE		        En4   v127
	BYTE	W03
	BYTE		        En4   v064
	BYTE	W03
	BYTE		        Ds4   v127
	BYTE	W03
	BYTE		        Ds4   v064
	BYTE	W03
	BYTE		        En4   v127
	BYTE	W03
	BYTE		        En4   v064
	BYTE	W03
	BYTE		        Cs4   v127
	BYTE	W03
	BYTE		        Cs4   v064
	BYTE	W03
	BYTE		        Cs4   v032
	BYTE	W03
	BYTE		        Cs4   v016
	BYTE	W09
	BYTE		N12     Cs4   v127
	BYTE	W06
// 033   ----------------------------------------
	BYTE	PATT
	 POIN2	Bergentruckung_8_025
// 034   ----------------------------------------
	BYTE	PATT
	 POIN2	Bergentruckung_8_026
	BYTE		EOT     Cs5 
	BYTE		N03     Cs4   v127
	BYTE		N96     Ds5 
	BYTE	W03
	BYTE		N03     Cs4   v064
	BYTE	W03
	BYTE		        En4   v127
	BYTE	W03
	BYTE		        En4   v064
	BYTE	W03
	BYTE		        Ds4   v127
	BYTE	W03
	BYTE		        Ds4   v064
	BYTE	W03
	BYTE		        En4   v127
	BYTE	W03
	BYTE		        En4   v064
	BYTE	W03
	BYTE		        Cs4   v127
	BYTE	W03
	BYTE		        Cs4   v064
	BYTE	W03
	BYTE		        Cs4   v032
	BYTE	W03
	BYTE		        Cs4   v016
	BYTE	W09
	BYTE		N12     Cs4   v127
	BYTE	W06
// 035   ----------------------------------------
	BYTE	PATT
	 POIN2	Bergentruckung_8_027
// 036   ----------------------------------------
	BYTE	PATT
	 POIN2	Bergentruckung_8_028
// 037   ----------------------------------------
	BYTE	PATT
	 POIN2	Bergentruckung_8_025
// 038   ----------------------------------------
	BYTE	PATT
	 POIN2	Bergentruckung_8_026
	BYTE		EOT     Cs5 
	BYTE		N03     Cs4   v127
	BYTE		N96     Ds5 
	BYTE	W03
	BYTE		N03     Cs4   v064
	BYTE	W03
	BYTE		        En4   v127
	BYTE	W03
	BYTE		        En4   v064
	BYTE	W03
	BYTE		        Ds4   v127
	BYTE	W03
	BYTE		        Ds4   v064
	BYTE	W03
	BYTE		        En4   v127
	BYTE	W03
	BYTE		        En4   v064
	BYTE	W03
	BYTE		        Cs4   v127
	BYTE	W03
	BYTE		        Cs4   v064
	BYTE	W03
	BYTE		        Cs4   v032
	BYTE	W03
	BYTE		        Cs4   v016
	BYTE	W09
	BYTE		N12     Cs4   v127
	BYTE	W06
// 039   ----------------------------------------
	BYTE	PATT
	 POIN2	Bergentruckung_8_031
// 040   ----------------------------------------
	BYTE		N06     Ds4   v127
	BYTE	W06
	BYTE		        Cs4 
	BYTE	W06
	BYTE		        Cs4   v064
	BYTE	W06
	BYTE		N12     Cn4   v127
	BYTE	W12
	BYTE		N03     Cs4 
	BYTE	W03
	BYTE		        Dn4 
	BYTE	W03
	BYTE		N12     Ds4 
	BYTE	W60
// 041   ----------------------------------------
	BYTE	W96
// 042   ----------------------------------------
	BYTE	W96
// 043   ----------------------------------------
	BYTE	W96
// 044   ----------------------------------------
	BYTE	W96
// 045   ----------------------------------------
	BYTE	W96
// 046   ----------------------------------------
	BYTE	W96
// 047   ----------------------------------------
	BYTE	W96
// 048   ----------------------------------------
	BYTE	W96
// 049   ----------------------------------------
	BYTE	W96
// 050   ----------------------------------------
	BYTE	W96
// 051   ----------------------------------------
	BYTE	W96
// 052   ----------------------------------------
	BYTE	W96
// 053   ----------------------------------------
	BYTE	W96
// 054   ----------------------------------------
	BYTE	W96
// 055   ----------------------------------------
	BYTE	W96
// 056   ----------------------------------------
	BYTE	W96
// 057   ----------------------------------------
	BYTE	W96
// 058   ----------------------------------------
	BYTE	W96
// 059   ----------------------------------------
	BYTE	W96
// 060   ----------------------------------------
	BYTE	W96
// 061   ----------------------------------------
	BYTE	W96
// 062   ----------------------------------------
	BYTE	W96
// 063   ----------------------------------------
	BYTE	W96
// 064   ----------------------------------------
	BYTE	W96
// 065   ----------------------------------------
	BYTE	W96
// 066   ----------------------------------------
	BYTE	W96
// 067   ----------------------------------------
	BYTE	W96
// 068   ----------------------------------------
	BYTE	W96
// 069   ----------------------------------------
	BYTE	W96
// 070   ----------------------------------------
	BYTE	W96
// 071   ----------------------------------------
	BYTE	W48
	BYTE	GoTo
	 POIN2	Bergentruckung_8_B1
Bergentruckung_8_B2:
	BYTE	FINE

//**************** Track 9 (Midi-Chn.9) ****************//

Bergentruckung_9:
	BYTE	KEYSH   Bergentruckung_key+0
// 000   ----------------------------------------
	BYTE		VOICE   2
	BYTE		VOL     63*Bergentruckung_mvl/mxv
	BYTE	W48
Bergentruckung_9_B1:
	BYTE	W48
// 001   ----------------------------------------
	BYTE	W96
// 002   ----------------------------------------
	BYTE	W96
// 003   ----------------------------------------
	BYTE	W96
// 004   ----------------------------------------
	BYTE	W96
// 005   ----------------------------------------
	BYTE	W96
// 006   ----------------------------------------
	BYTE	W96
// 007   ----------------------------------------
	BYTE	W96
// 008   ----------------------------------------
	BYTE	W96
// 009   ----------------------------------------
	BYTE	W96
// 010   ----------------------------------------
	BYTE	W96
// 011   ----------------------------------------
	BYTE	W96
// 012   ----------------------------------------
	BYTE	W96
// 013   ----------------------------------------
	BYTE	W96
// 014   ----------------------------------------
	BYTE	W96
// 015   ----------------------------------------
	BYTE	W96
// 016   ----------------------------------------
	BYTE	W96
// 017   ----------------------------------------
	BYTE	W96
// 018   ----------------------------------------
	BYTE	W96
// 019   ----------------------------------------
	BYTE	W96
// 020   ----------------------------------------
	BYTE	W96
// 021   ----------------------------------------
	BYTE	W96
// 022   ----------------------------------------
	BYTE	W96
// 023   ----------------------------------------
	BYTE	W96
// 024   ----------------------------------------
	BYTE	W96
// 025   ----------------------------------------
	BYTE	W96
// 026   ----------------------------------------
	BYTE	W96
// 027   ----------------------------------------
	BYTE	W96
// 028   ----------------------------------------
	BYTE	W96
// 029   ----------------------------------------
	BYTE	W96
// 030   ----------------------------------------
	BYTE	W96
// 031   ----------------------------------------
	BYTE	W96
// 032   ----------------------------------------
	BYTE	W96
// 033   ----------------------------------------
	BYTE	W96
// 034   ----------------------------------------
	BYTE	W96
// 035   ----------------------------------------
	BYTE	W96
// 036   ----------------------------------------
	BYTE	W96
// 037   ----------------------------------------
	BYTE	W96
// 038   ----------------------------------------
	BYTE	W96
// 039   ----------------------------------------
	BYTE	W96
// 040   ----------------------------------------
	BYTE	W96
// 041   ----------------------------------------
	BYTE	W96
// 042   ----------------------------------------
	BYTE	W96
// 043   ----------------------------------------
	BYTE	W96
// 044   ----------------------------------------
	BYTE	W96
// 045   ----------------------------------------
	BYTE	W96
// 046   ----------------------------------------
	BYTE	W96
// 047   ----------------------------------------
	BYTE	W96
// 048   ----------------------------------------
	BYTE	W96
// 049   ----------------------------------------
	BYTE	W96
// 050   ----------------------------------------
	BYTE	W96
// 051   ----------------------------------------
	BYTE	W96
// 052   ----------------------------------------
	BYTE	W56
	BYTE	W01
	BYTE		N06     Gs4   v064
	BYTE		N06     En5 
	BYTE	W06
	BYTE		        Fs4 
	BYTE		N06     Ds5 
	BYTE	W06
	BYTE		        En4 
	BYTE		N06     Cs5 
	BYTE	W06
	BYTE		        Ds4 
	BYTE		N06     Bn4 
	BYTE	W06
	BYTE		N12     En4 
	BYTE		N12     Cs5 
	BYTE	W12
	BYTE		        Cs4 
	BYTE		N12     Gs4 
	BYTE	W03
// 053   ----------------------------------------
	BYTE	W09
	BYTE		N18     Cs4 
	BYTE		N18     As4 
	BYTE	W18
	BYTE		N06     As3 
	BYTE		N06     Fs4 
	BYTE	W18
	BYTE		        Fs3 
	BYTE		N06     Cs4 
	BYTE	W06
	BYTE		        Gs3 
	BYTE		N06     Ds4 
	BYTE	W06
	BYTE		N18     An3 
	BYTE		N18     En4 
	BYTE	W18
	BYTE		N12     Bn3 
	BYTE		N12     Fs4 
	BYTE	W12
	BYTE		N06     Cs4 
	BYTE	W06
	BYTE		N12     Ds4 
	BYTE		N12     Bn4 
	BYTE	W03
// 054   ----------------------------------------
	BYTE	W09
	BYTE		N48     En4 
	BYTE		N48     Gs4 
	BYTE	W48
	BYTE		N06   
	BYTE		N06     En5 
	BYTE	W06
	BYTE		        Fs4 
	BYTE		N06     Ds5 
	BYTE	W06
	BYTE		        En4 
	BYTE		N06     Cs5 
	BYTE	W06
	BYTE		        Ds4 
	BYTE		N06     Bn4 
	BYTE	W06
	BYTE		N12     En4 
	BYTE		N12     Cs5 
	BYTE	W12
	BYTE		        Cs4 
	BYTE		N12     Gs4 
	BYTE	W03
// 055   ----------------------------------------
	BYTE	W09
	BYTE		N18     Cs4 
	BYTE		N18     As4 
	BYTE	W18
	BYTE		N06     As3 
	BYTE		N06     Fs4 
	BYTE	W18
	BYTE		        Fs3 
	BYTE		N06     Cs4 
	BYTE	W06
	BYTE		        Gs3 
	BYTE		N06     Ds4 
	BYTE	W06
	BYTE		N18     An3 
	BYTE		N18     En4 
	BYTE	W18
	BYTE		N12     Bn3 
	BYTE		N12     Ds4 
	BYTE	W12
	BYTE		N06     Gs3 
	BYTE	W06
	BYTE		N12     Bn3 
	BYTE		N12     Ds4 
	BYTE	W03
// 056   ----------------------------------------
	BYTE	W09
	BYTE		N48     Gs3 
	BYTE		N48     Cs4 
	BYTE	W48
	BYTE		N06     Gs3 
	BYTE		N06     En4 
	BYTE	W06
	BYTE		        Fs3 
	BYTE		N06     Ds4 
	BYTE	W06
	BYTE		        En3 
	BYTE		N06     Cs4 
	BYTE	W06
	BYTE		        Ds3 
	BYTE		N06     Bn3 
	BYTE	W06
	BYTE		N12     En3 
	BYTE		N12     Cs4 
	BYTE	W12
	BYTE		        Cs3 
	BYTE		N12     Gs3 
	BYTE	W03
// 057   ----------------------------------------
	BYTE	W09
	BYTE		N18     Cs3 
	BYTE		N18     As3 
	BYTE	W18
	BYTE		N06     As2 
	BYTE		N06     Fs3 
	BYTE	W18
	BYTE		        Fs2 
	BYTE		N06     Cs3 
	BYTE	W06
	BYTE		        Gs2 
	BYTE		N06     Ds3 
	BYTE	W06
	BYTE		N18     An2 
	BYTE		N18     En3 
	BYTE	W18
	BYTE		N12     Bn2 
	BYTE		N12     Fs3 
	BYTE	W12
	BYTE		N06     Cs3 
	BYTE	W06
	BYTE		N12     Ds3 
	BYTE		N12     Bn3 
	BYTE	W03
// 058   ----------------------------------------
	BYTE	W09
	BYTE		N48     En3 
	BYTE		N48     Gs3 
	BYTE	W48
	BYTE		N06   
	BYTE		N06     En4 
	BYTE	W06
	BYTE		        Fs3 
	BYTE		N06     Ds4 
	BYTE	W06
	BYTE		        En3 
	BYTE		N06     Cs4 
	BYTE	W06
	BYTE		        Ds3 
	BYTE		N06     Bn3 
	BYTE	W06
	BYTE		N12     En3 
	BYTE		N12     Cs4 
	BYTE	W12
	BYTE		        Cs3 
	BYTE		N12     Gs3 
	BYTE	W03
// 059   ----------------------------------------
	BYTE	W09
	BYTE		N18     Cs3 
	BYTE		N18     As3 
	BYTE	W18
	BYTE		N06     As2 
	BYTE		N06     Fs3 
	BYTE	W18
	BYTE		        Fs2 
	BYTE		N06     Cs3 
	BYTE	W06
	BYTE		        Gs2 
	BYTE		N06     Ds3 
	BYTE	W06
	BYTE		N18     An2 
	BYTE		N18     En3 
	BYTE	W18
	BYTE		N12     Bn2 
	BYTE		N12     Ds3 
	BYTE	W12
	BYTE		N06     Gs2 
	BYTE	W06
	BYTE		N12     Bn2 
	BYTE		N12     Ds3 
	BYTE	W03
// 060   ----------------------------------------
	BYTE	W09
	BYTE		N48     Gs2 
	BYTE		N48     Cs3 
	BYTE	W48
	BYTE		N06     Dn4 
	BYTE		N06     Fs4 
	BYTE	W06
	BYTE		        Cs4 
	BYTE		N06     En4 
	BYTE	W06
	BYTE		        Bn3 
	BYTE		N06     Dn4 
	BYTE	W06
	BYTE		        An3 
	BYTE		N06     Cs4 
	BYTE	W06
	BYTE		        Bn3 
	BYTE		N06     Dn4 
	BYTE	W06
	BYTE		        An3 
	BYTE		N06     Cs4 
	BYTE	W06
	BYTE		        Gs3 
	BYTE		N06     Bn3 
	BYTE	W03
// 061   ----------------------------------------
Bergentruckung_9_061:
	BYTE	W03
	BYTE		N06     Bn3   v064
	BYTE		N06     Dn4 
	BYTE	W06
	BYTE		        Gs3 
	BYTE		N06     Cs4 
	BYTE	W18
	BYTE		        Cs3 
	BYTE		N06     Gs3 
	BYTE	W18
	BYTE		        Cs3 
	BYTE		N06     Gs3 
	BYTE	W06
	BYTE		N06   
	BYTE		N06     Cs4 
	BYTE	W06
	BYTE		        Dn4 
	BYTE		N06     Fs4 
	BYTE	W06
	BYTE		        Cs4 
	BYTE		N06     En4 
	BYTE	W06
	BYTE		        Bn3 
	BYTE		N06     Dn4 
	BYTE	W06
	BYTE		        An3 
	BYTE		N06     Cs4 
	BYTE	W06
	BYTE		        Gs3 
	BYTE		N06     Bn3 
	BYTE	W06
	BYTE		        Fs3 
	BYTE		N06     An3 
	BYTE	W06
	BYTE		        En4 
	BYTE		N06     Gs4 
	BYTE	W03
	BYTE	PEND
// 062   ----------------------------------------
Bergentruckung_9_062:
	BYTE	W03
	BYTE		N06     Ds4   v064
	BYTE		N06     Fs4 
	BYTE	W06
	BYTE		N12     Cs4 
	BYTE		N12     En4 
	BYTE	W12
	BYTE		        Ds4 
	BYTE		N12     Fs4 
	BYTE	W12
	BYTE		        En4 
	BYTE		N12     Gs4 
	BYTE	W12
	BYTE		N06     En4 
	BYTE		N06     Gs4 
	BYTE	W06
	BYTE		        Fs4 
	BYTE		N06     As4 
	BYTE	W06
	BYTE		        Gs4 
	BYTE		N06     Bn4 
	BYTE	W06
	BYTE		        Fs4 
	BYTE		N06     As4 
	BYTE	W06
	BYTE		        En4 
	BYTE		N06     Gs4 
	BYTE	W06
	BYTE		        Ds4 
	BYTE		N06     Fs4 
	BYTE	W06
	BYTE		        En4 
	BYTE		N06     Gs4 
	BYTE	W06
	BYTE		        Ds4 
	BYTE		N06     Fs4 
	BYTE	W06
	BYTE		        En4 
	BYTE		N06     Gs4 
	BYTE	W03
	BYTE	PEND
// 063   ----------------------------------------
	BYTE	W03
	BYTE		        Fs4 
	BYTE		N06     As4 
	BYTE	W06
	BYTE		        En4 
	BYTE		N06     Gs4 
	BYTE	W18
	BYTE		        Gs3 
	BYTE		N06     Cs4 
	BYTE	W18
	BYTE		        Gs3 
	BYTE		N06     Cs4 
	BYTE	W06
	BYTE		        Bn3 
	BYTE		N06     Ds4 
	BYTE	W06
	BYTE		N18     Cs4 
	BYTE		N18     En4 
	BYTE	W18
	BYTE		        Ds4 
	BYTE		N18     Fs4 
	BYTE	W18
	BYTE		N12   
	BYTE		N12     An4 
	BYTE	W03
// 064   ----------------------------------------
	BYTE	W09
	BYTE		N06     Gs4 
	BYTE	W12
	BYTE		        Ds4 
	BYTE	W12
	BYTE		        Cn4 
	BYTE	W12
	BYTE		        Gs3 
	BYTE	W12
	BYTE		        Dn4 
	BYTE		N06     Fs4 
	BYTE	W06
	BYTE		        Cs4 
	BYTE		N06     En4 
	BYTE	W06
	BYTE		        Bn3 
	BYTE		N06     Dn4 
	BYTE	W06
	BYTE		        An3 
	BYTE		N06     Cs4 
	BYTE	W06
	BYTE		        Bn3 
	BYTE		N06     Dn4 
	BYTE	W06
	BYTE		        An3 
	BYTE		N06     Cs4 
	BYTE	W06
	BYTE		        Gs3 
	BYTE		N06     Bn3 
	BYTE	W03
// 065   ----------------------------------------
	BYTE	PATT
	 POIN2	Bergentruckung_9_061
// 066   ----------------------------------------
	BYTE	PATT
	 POIN2	Bergentruckung_9_062
// 067   ----------------------------------------
	BYTE	W03
	BYTE		N06     Fs4   v064
	BYTE		N06     As4 
	BYTE	W06
	BYTE		        En4 
	BYTE		N06     Gs4 
	BYTE	W18
	BYTE		        Gs3 
	BYTE		N06     Cs4 
	BYTE	W18
	BYTE		        Gs3 
	BYTE		N06     Cs4 
	BYTE	W06
	BYTE		        Bn3 
	BYTE		N06     Ds4 
	BYTE	W06
	BYTE		N18     Cs4 
	BYTE		N18     En4 
	BYTE	W18
	BYTE		        Bn3 
	BYTE		N18     Ds4 
	BYTE	W18
	BYTE		N12     Fs3 
	BYTE	W03
// 068   ----------------------------------------
Bergentruckung_9_068:
	BYTE	W09
	BYTE		N36     Gs3   v064
	BYTE		N36     Cs4 
	BYTE	W36
	BYTE		N06     Gs3 
	BYTE		N06     Cs4 
	BYTE	W06
	BYTE		        Bn3 
	BYTE		N06     Ds4 
	BYTE	W06
	BYTE		N18     Cs4 
	BYTE		N18     En4 
	BYTE	W18
	BYTE		        Bn3 
	BYTE		N18     Ds4 
	BYTE	W18
	BYTE		N12     Fs3 
	BYTE	W03
	BYTE	PEND
// 069   ----------------------------------------
	BYTE	PATT
	 POIN2	Bergentruckung_9_068
// 070   ----------------------------------------
	BYTE	PATT
	 POIN2	Bergentruckung_9_068
// 071   ----------------------------------------
	BYTE	W09
	BYTE		N36     Gs3   v064
	BYTE		N36     Cs4 
	BYTE	W36
	BYTE	W03
	BYTE	GoTo
	 POIN2	Bergentruckung_9_B1
Bergentruckung_9_B2:
	BYTE	FINE

//**************** Track 10 (Midi-Chn.11) ****************//

Bergentruckung_10:
	BYTE	KEYSH   Bergentruckung_key+0
// 000   ----------------------------------------
	BYTE		VOICE   48
	BYTE		VOL     63*Bergentruckung_mvl/mxv
	BYTE	W48
Bergentruckung_10_B1:
	BYTE	W48
// 001   ----------------------------------------
	BYTE	W96
// 002   ----------------------------------------
	BYTE	W96
// 003   ----------------------------------------
	BYTE	W96
// 004   ----------------------------------------
Bergentruckung_10_004:
	BYTE	W48
	BYTE		N96     Fs1   v127
	BYTE		N96     Cs2 
	BYTE	W48
	BYTE	PEND
// 005   ----------------------------------------
Bergentruckung_10_005:
	BYTE	W48
	BYTE		N96     Gs1   v127
	BYTE		N96     Ds2 
	BYTE	W48
	BYTE	PEND
// 006   ----------------------------------------
Bergentruckung_10_006:
	BYTE	W48
	BYTE		N96     An1   v127
	BYTE		N96     En2 
	BYTE	W48
	BYTE	PEND
// 007   ----------------------------------------
Bergentruckung_10_007:
	BYTE	W48
	BYTE		N24     Bn1   v127
	BYTE		N24     Ds2 
	BYTE	W48
	BYTE	PEND
// 008   ----------------------------------------
	BYTE	W96
// 009   ----------------------------------------
	BYTE	W96
// 010   ----------------------------------------
	BYTE	W96
// 011   ----------------------------------------
	BYTE	W96
// 012   ----------------------------------------
	BYTE	PATT
	 POIN2	Bergentruckung_10_004
// 013   ----------------------------------------
	BYTE	PATT
	 POIN2	Bergentruckung_10_005
// 014   ----------------------------------------
	BYTE	PATT
	 POIN2	Bergentruckung_10_006
// 015   ----------------------------------------
	BYTE	PATT
	 POIN2	Bergentruckung_10_007
// 016   ----------------------------------------
	BYTE	W48
	BYTE		TIE     An1   v127
	BYTE		N96     Gs2 
	BYTE		N96     Cs3 
	BYTE	W48
// 017   ----------------------------------------
Bergentruckung_10_017:
	BYTE	W48
	BYTE		N96     Fs2   v127
	BYTE		N96     Bn2 
	BYTE	W48
	BYTE	PEND
// 018   ----------------------------------------
	BYTE	W48
	BYTE		EOT     An1 
	BYTE		N96     Cs2 
	BYTE		N96     Gs2 
	BYTE		N96     Cs3 
	BYTE	W48
// 019   ----------------------------------------
	BYTE	W48
	BYTE		        Gs1 
	BYTE		N48     Ds2 
	BYTE		N48     Gs2 
	BYTE	W48
// 020   ----------------------------------------
	BYTE		        Fs2 
	BYTE		N48     Bn2 
	BYTE	W48
	BYTE		TIE     An1 
	BYTE		N96     Gs2 
	BYTE		N96     Cs3 
	BYTE	W48
// 021   ----------------------------------------
	BYTE	PATT
	 POIN2	Bergentruckung_10_017
// 022   ----------------------------------------
	BYTE	W48
	BYTE		EOT     An1 
	BYTE		N96     Cs2   v127
	BYTE		N96     Gs2 
	BYTE		N96     Cs3 
	BYTE	W48
// 023   ----------------------------------------
	BYTE	W96
// 024   ----------------------------------------
	BYTE	W48
	BYTE		TIE     An0 
	BYTE		N96     Gs2 
	BYTE		N96     Cs3 
	BYTE	W48
// 025   ----------------------------------------
	BYTE	PATT
	 POIN2	Bergentruckung_10_017
// 026   ----------------------------------------
	BYTE	W48
	BYTE		EOT     An0 
	BYTE		N96     Cs1   v127
	BYTE		N96     Gs2 
	BYTE		N96     Cs3 
	BYTE	W48
// 027   ----------------------------------------
Bergentruckung_10_027:
	BYTE	W48
	BYTE		N96     Gs0   v127
	BYTE		N48     Ds2 
	BYTE		N48     Gs2 
	BYTE	W48
	BYTE	PEND
// 028   ----------------------------------------
Bergentruckung_10_028:
	BYTE		N48     Fs2   v127
	BYTE		N48     Bn2 
	BYTE	W48
	BYTE		TIE     An0 
	BYTE		N96     Gs2 
	BYTE		N96     Cs3 
	BYTE	W48
	BYTE	PEND
// 029   ----------------------------------------
	BYTE	PATT
	 POIN2	Bergentruckung_10_017
// 030   ----------------------------------------
	BYTE	W48
	BYTE		EOT     An0 
	BYTE		N96     Cs1   v127
	BYTE		N96     Gs2 
	BYTE		N96     Cs3 
	BYTE	W48
// 031   ----------------------------------------
	BYTE	PATT
	 POIN2	Bergentruckung_10_027
// 032   ----------------------------------------
	BYTE		N48     Fs2   v127
	BYTE		N48     Cn3 
	BYTE	W48
	BYTE		TIE     An0 
	BYTE		N96     Gs2 
	BYTE		N96     Cs3 
	BYTE	W48
// 033   ----------------------------------------
	BYTE	PATT
	 POIN2	Bergentruckung_10_017
// 034   ----------------------------------------
	BYTE	W48
	BYTE		EOT     An0 
	BYTE		N96     Cs1   v127
	BYTE		N96     Gs2 
	BYTE		N96     Cs3 
	BYTE	W48
// 035   ----------------------------------------
	BYTE	PATT
	 POIN2	Bergentruckung_10_027
// 036   ----------------------------------------
	BYTE	PATT
	 POIN2	Bergentruckung_10_028
// 037   ----------------------------------------
	BYTE	PATT
	 POIN2	Bergentruckung_10_017
// 038   ----------------------------------------
	BYTE	W48
	BYTE		EOT     An0 
	BYTE		N96     Cs1   v127
	BYTE		N96     Gs2 
	BYTE		N96     Cs3 
	BYTE	W48
// 039   ----------------------------------------
	BYTE	PATT
	 POIN2	Bergentruckung_10_027
// 040   ----------------------------------------
	BYTE		N48     Fs2   v127
	BYTE		N48     Cn3 
	BYTE	W96
// 041   ----------------------------------------
	BYTE	W96
// 042   ----------------------------------------
	BYTE	W96
// 043   ----------------------------------------
	BYTE	W96
// 044   ----------------------------------------
Bergentruckung_10_044:
	BYTE	W48
	BYTE		N96     Fs0   v127
	BYTE		N96     Fs1 
	BYTE	W48
	BYTE	PEND
// 045   ----------------------------------------
Bergentruckung_10_045:
	BYTE	W48
	BYTE		N96     Gs0   v127
	BYTE		N96     Gs1 
	BYTE	W48
	BYTE	PEND
// 046   ----------------------------------------
Bergentruckung_10_046:
	BYTE	W48
	BYTE		N96     An0   v127
	BYTE		N96     An1 
	BYTE	W48
	BYTE	PEND
// 047   ----------------------------------------
	BYTE	PATT
	 POIN2	Bergentruckung_10_045
// 048   ----------------------------------------
	BYTE	PATT
	 POIN2	Bergentruckung_10_044
// 049   ----------------------------------------
	BYTE	PATT
	 POIN2	Bergentruckung_10_045
// 050   ----------------------------------------
	BYTE	PATT
	 POIN2	Bergentruckung_10_046
// 051   ----------------------------------------
	BYTE	W48
	BYTE		N48     Gs0   v127
	BYTE		N48     Gs1 
	BYTE	W48
// 052   ----------------------------------------
	BYTE	W96
// 053   ----------------------------------------
	BYTE	W96
// 054   ----------------------------------------
	BYTE	W96
// 055   ----------------------------------------
	BYTE	W96
// 056   ----------------------------------------
	BYTE	W96
// 057   ----------------------------------------
	BYTE	W96
// 058   ----------------------------------------
	BYTE	W96
// 059   ----------------------------------------
	BYTE	W96
// 060   ----------------------------------------
	BYTE	W96
// 061   ----------------------------------------
	BYTE	W96
// 062   ----------------------------------------
	BYTE	W96
// 063   ----------------------------------------
	BYTE	W96
// 064   ----------------------------------------
	BYTE	W96
// 065   ----------------------------------------
	BYTE	W96
// 066   ----------------------------------------
	BYTE	W96
// 067   ----------------------------------------
	BYTE	W96
// 068   ----------------------------------------
	BYTE	W96
// 069   ----------------------------------------
	BYTE	W96
// 070   ----------------------------------------
	BYTE	W96
// 071   ----------------------------------------
	BYTE	W48
	BYTE	GoTo
	 POIN2	Bergentruckung_10_B1
Bergentruckung_10_B2:
	BYTE	FINE

//**************** Track 11 (Midi-Chn.12) ****************//

Bergentruckung_11:
	BYTE	KEYSH   Bergentruckung_key+0
// 000   ----------------------------------------
	BYTE		VOICE   8
	BYTE		VOL     95*Bergentruckung_mvl/mxv
	BYTE	W48
Bergentruckung_11_B1:
	BYTE	W48
// 001   ----------------------------------------
	BYTE	W96
// 002   ----------------------------------------
	BYTE	W96
// 003   ----------------------------------------
	BYTE	W96
// 004   ----------------------------------------
Bergentruckung_11_004:
	BYTE	W48
	BYTE		N09     Bn5   v127
	BYTE	W09
	BYTE		N24     Bn5   v084
	BYTE	W24
	BYTE	W03
	BYTE		N06     Cs6   v127
	BYTE	W09
	BYTE		        Cs6   v084
	BYTE	W03
	BYTE	PEND
// 005   ----------------------------------------
Bergentruckung_11_005:
	BYTE		N09     En5   v127
	BYTE	W09
	BYTE		N03     En5   v084
	BYTE	W09
	BYTE		N09     Fs5   v127
	BYTE	W09
	BYTE		N03     Fs5   v084
	BYTE	W09
	BYTE		N06     Gs5   v127
	BYTE	W09
	BYTE		        Gs5   v084
	BYTE	W03
	BYTE		N09     Bn5   v127
	BYTE	W09
	BYTE		N24     Bn5   v084
	BYTE	W24
	BYTE	W03
	BYTE		N06     Cs6   v127
	BYTE	W09
	BYTE		        Cs6   v084
	BYTE	W03
	BYTE	PEND
// 006   ----------------------------------------
Bergentruckung_11_006:
	BYTE		N09     Ds5   v127
	BYTE	W09
	BYTE		N03     Ds5   v084
	BYTE	W09
	BYTE		N09     Ds6   v127
	BYTE	W09
	BYTE		N03     Ds6   v084
	BYTE	W09
	BYTE		N09     Bn5   v127
	BYTE	W09
	BYTE		N03     Bn5   v084
	BYTE	W03
	BYTE		N09     Gs5   v127
	BYTE	W09
	BYTE		N72     Gs5   v084
	BYTE	W36
	BYTE	W03
	BYTE	PEND
// 007   ----------------------------------------
Bergentruckung_11_007:
	BYTE	W36
	BYTE		N06     An5   v127
	BYTE	W06
	BYTE		N03     Gs5 
	BYTE	W03
	BYTE		N06     An5   v084
	BYTE	W03
	BYTE		N09     Fs5   v127
	BYTE	W03
	BYTE		N06     Gs5   v084
	BYTE	W06
	BYTE		N15     Fs5 
	BYTE	W36
	BYTE	W03
	BYTE	PEND
// 008   ----------------------------------------
	BYTE	W96
// 009   ----------------------------------------
	BYTE	W96
// 010   ----------------------------------------
	BYTE	W96
// 011   ----------------------------------------
	BYTE	W96
// 012   ----------------------------------------
	BYTE	PATT
	 POIN2	Bergentruckung_11_004
// 013   ----------------------------------------
	BYTE	PATT
	 POIN2	Bergentruckung_11_005
// 014   ----------------------------------------
	BYTE	PATT
	 POIN2	Bergentruckung_11_006
// 015   ----------------------------------------
	BYTE	PATT
	 POIN2	Bergentruckung_11_007
// 016   ----------------------------------------
	BYTE	W96
// 017   ----------------------------------------
	BYTE	W96
// 018   ----------------------------------------
	BYTE	W96
// 019   ----------------------------------------
	BYTE	W96
// 020   ----------------------------------------
	BYTE	W96
// 021   ----------------------------------------
	BYTE	W96
// 022   ----------------------------------------
	BYTE	W96
// 023   ----------------------------------------
	BYTE	W96
// 024   ----------------------------------------
	BYTE	W96
// 025   ----------------------------------------
	BYTE	W96
// 026   ----------------------------------------
	BYTE	W96
// 027   ----------------------------------------
	BYTE	W96
// 028   ----------------------------------------
	BYTE	W96
// 029   ----------------------------------------
	BYTE	W96
// 030   ----------------------------------------
	BYTE	W96
// 031   ----------------------------------------
	BYTE	W96
// 032   ----------------------------------------
	BYTE	W96
// 033   ----------------------------------------
	BYTE	W96
// 034   ----------------------------------------
	BYTE	W96
// 035   ----------------------------------------
	BYTE	W96
// 036   ----------------------------------------
	BYTE	W96
// 037   ----------------------------------------
	BYTE	W96
// 038   ----------------------------------------
	BYTE	W96
// 039   ----------------------------------------
	BYTE	W96
// 040   ----------------------------------------
	BYTE	W96
// 041   ----------------------------------------
	BYTE	W96
// 042   ----------------------------------------
	BYTE	W96
// 043   ----------------------------------------
	BYTE	W96
// 044   ----------------------------------------
	BYTE	W96
// 045   ----------------------------------------
	BYTE	W96
// 046   ----------------------------------------
	BYTE	W96
// 047   ----------------------------------------
	BYTE	W96
// 048   ----------------------------------------
	BYTE	W96
// 049   ----------------------------------------
	BYTE	W96
// 050   ----------------------------------------
	BYTE	W96
// 051   ----------------------------------------
	BYTE	W96
// 052   ----------------------------------------
	BYTE	W96
// 053   ----------------------------------------
	BYTE	W96
// 054   ----------------------------------------
	BYTE	W96
// 055   ----------------------------------------
	BYTE	W96
// 056   ----------------------------------------
	BYTE	W96
// 057   ----------------------------------------
	BYTE	W96
// 058   ----------------------------------------
	BYTE	W96
// 059   ----------------------------------------
	BYTE	W96
// 060   ----------------------------------------
	BYTE	W96
// 061   ----------------------------------------
	BYTE	W96
// 062   ----------------------------------------
	BYTE	W96
// 063   ----------------------------------------
	BYTE	W96
// 064   ----------------------------------------
	BYTE	W96
// 065   ----------------------------------------
	BYTE	W96
// 066   ----------------------------------------
	BYTE	W96
// 067   ----------------------------------------
	BYTE	W96
// 068   ----------------------------------------
	BYTE	W96
// 069   ----------------------------------------
	BYTE	W96
// 070   ----------------------------------------
	BYTE	W96
// 071   ----------------------------------------
	BYTE	W48
	BYTE	GoTo
	 POIN2	Bergentruckung_11_B1
Bergentruckung_11_B2:
	BYTE	FINE

//**************** Track 12 (Midi-Chn.13) ****************//

Bergentruckung_12:
	BYTE	KEYSH   Bergentruckung_key+0
// 000   ----------------------------------------
	BYTE		VOICE   127
	BYTE		VOL     95*Bergentruckung_mvl/mxv
	BYTE	W48
Bergentruckung_12_B1:
	BYTE		N12     Cn1   v127
	BYTE		N06     As1 
	BYTE	W06
	BYTE		        Gs1 
	BYTE	W06
	BYTE		N12     En1 
	BYTE		N06     Fs1 
	BYTE	W06
	BYTE		        Gs1 
	BYTE	W06
	BYTE		N12     Cn1 
	BYTE		N06     As1 
	BYTE	W06
	BYTE		        Gs1 
	BYTE	W06
	BYTE		N12     En1 
	BYTE		N06     Fs1 
	BYTE	W06
	BYTE		        Gs1 
	BYTE	W06
// 001   ----------------------------------------
Bergentruckung_12_001:
	BYTE		N12     Cn1   v127
	BYTE		N06     As1 
	BYTE	W06
	BYTE		        Gs1 
	BYTE	W06
	BYTE		N12     En1 
	BYTE		N06     Fs1 
	BYTE	W06
	BYTE		        Gs1 
	BYTE	W06
	BYTE		N12     Cn1 
	BYTE		N06     As1 
	BYTE	W06
	BYTE		        Gs1 
	BYTE	W06
	BYTE		N12     En1 
	BYTE		N06     Fs1 
	BYTE	W06
	BYTE		        Gs1 
	BYTE	W06
	BYTE		N12     Cn1 
	BYTE		N06     As1 
	BYTE	W06
	BYTE		        Gs1 
	BYTE	W06
	BYTE		N12     En1 
	BYTE		N06     Fs1 
	BYTE	W06
	BYTE		        Gs1 
	BYTE	W06
	BYTE		N12     Cn1 
	BYTE		N06     As1 
	BYTE	W06
	BYTE		        Gs1 
	BYTE	W06
	BYTE		N12     En1 
	BYTE		N06     Fs1 
	BYTE	W06
	BYTE		        Gs1 
	BYTE	W06
	BYTE	PEND
// 002   ----------------------------------------
	BYTE	PATT
	 POIN2	Bergentruckung_12_001
// 003   ----------------------------------------
	BYTE	PATT
	 POIN2	Bergentruckung_12_001
// 004   ----------------------------------------
Bergentruckung_12_004:
	BYTE		N06     As1   v127
	BYTE	W24
	BYTE		N06   
	BYTE	W24
	BYTE		N12     Cn1 
	BYTE		N06     As1 
	BYTE	W06
	BYTE		        Gs1 
	BYTE	W06
	BYTE		N12     En1 
	BYTE		N06     Fs1 
	BYTE	W06
	BYTE		        Gs1 
	BYTE	W06
	BYTE		N12     Cn1 
	BYTE		N06     As1 
	BYTE	W06
	BYTE		        Gs1 
	BYTE	W06
	BYTE		N12     En1 
	BYTE		N06     Fs1 
	BYTE	W06
	BYTE		        Gs1 
	BYTE	W06
	BYTE	PEND
// 005   ----------------------------------------
	BYTE	PATT
	 POIN2	Bergentruckung_12_001
// 006   ----------------------------------------
	BYTE	PATT
	 POIN2	Bergentruckung_12_001
// 007   ----------------------------------------
	BYTE	PATT
	 POIN2	Bergentruckung_12_001
// 008   ----------------------------------------
Bergentruckung_12_008:
	BYTE	W48
	BYTE		N12     Cn1   v127
	BYTE		N06     As1 
	BYTE	W06
	BYTE		        Gs1 
	BYTE	W06
	BYTE		N12     En1 
	BYTE		N06     Fs1 
	BYTE	W06
	BYTE		        Gs1 
	BYTE	W06
	BYTE		N12     Cn1 
	BYTE		N06     As1 
	BYTE	W06
	BYTE		        Gs1 
	BYTE	W06
	BYTE		N12     En1 
	BYTE		N06     Fs1 
	BYTE	W06
	BYTE		        Gs1 
	BYTE	W06
	BYTE	PEND
// 009   ----------------------------------------
	BYTE	PATT
	 POIN2	Bergentruckung_12_001
// 010   ----------------------------------------
	BYTE	PATT
	 POIN2	Bergentruckung_12_001
// 011   ----------------------------------------
	BYTE	PATT
	 POIN2	Bergentruckung_12_001
// 012   ----------------------------------------
	BYTE	PATT
	 POIN2	Bergentruckung_12_004
// 013   ----------------------------------------
	BYTE	PATT
	 POIN2	Bergentruckung_12_001
// 014   ----------------------------------------
	BYTE	PATT
	 POIN2	Bergentruckung_12_001
// 015   ----------------------------------------
Bergentruckung_12_015:
	BYTE		N12     Cn1   v127
	BYTE		N06     As1 
	BYTE	W06
	BYTE		        Gs1 
	BYTE	W06
	BYTE		N12     En1 
	BYTE		N06     Fs1 
	BYTE	W06
	BYTE		        Gs1 
	BYTE	W06
	BYTE		N12     Cn1 
	BYTE		N06     As1 
	BYTE	W06
	BYTE		        Gs1 
	BYTE	W06
	BYTE		N12     En1 
	BYTE		N06     Fs1 
	BYTE	W06
	BYTE		        Gs1 
	BYTE	W54
	BYTE	PEND
// 016   ----------------------------------------
	BYTE	W60
	BYTE		N12     Fs2 
	BYTE	W24
	BYTE		N12   
	BYTE	W12
// 017   ----------------------------------------
Bergentruckung_12_017:
	BYTE	W12
	BYTE		N12     Fs2   v127
	BYTE	W24
	BYTE		N12   
	BYTE	W24
	BYTE		N12   
	BYTE	W24
	BYTE		N12   
	BYTE	W12
	BYTE	PEND
// 018   ----------------------------------------
	BYTE	PATT
	 POIN2	Bergentruckung_12_017
// 019   ----------------------------------------
	BYTE	PATT
	 POIN2	Bergentruckung_12_017
// 020   ----------------------------------------
	BYTE	PATT
	 POIN2	Bergentruckung_12_017
// 021   ----------------------------------------
	BYTE	PATT
	 POIN2	Bergentruckung_12_017
// 022   ----------------------------------------
	BYTE	PATT
	 POIN2	Bergentruckung_12_017
// 023   ----------------------------------------
	BYTE	W12
	BYTE		N12     Fs2   v127
	BYTE	W24
	BYTE		N12   
	BYTE	W60
// 024   ----------------------------------------
	BYTE	PATT
	 POIN2	Bergentruckung_12_008
// 025   ----------------------------------------
	BYTE	PATT
	 POIN2	Bergentruckung_12_001
// 026   ----------------------------------------
	BYTE	PATT
	 POIN2	Bergentruckung_12_001
// 027   ----------------------------------------
	BYTE	PATT
	 POIN2	Bergentruckung_12_001
// 028   ----------------------------------------
	BYTE	PATT
	 POIN2	Bergentruckung_12_001
// 029   ----------------------------------------
	BYTE	PATT
	 POIN2	Bergentruckung_12_001
// 030   ----------------------------------------
	BYTE	PATT
	 POIN2	Bergentruckung_12_001
// 031   ----------------------------------------
	BYTE	PATT
	 POIN2	Bergentruckung_12_001
// 032   ----------------------------------------
	BYTE	PATT
	 POIN2	Bergentruckung_12_001
// 033   ----------------------------------------
	BYTE	PATT
	 POIN2	Bergentruckung_12_001
// 034   ----------------------------------------
	BYTE	PATT
	 POIN2	Bergentruckung_12_001
// 035   ----------------------------------------
	BYTE	PATT
	 POIN2	Bergentruckung_12_001
// 036   ----------------------------------------
	BYTE	PATT
	 POIN2	Bergentruckung_12_001
// 037   ----------------------------------------
	BYTE	PATT
	 POIN2	Bergentruckung_12_001
// 038   ----------------------------------------
	BYTE	PATT
	 POIN2	Bergentruckung_12_001
// 039   ----------------------------------------
	BYTE	PATT
	 POIN2	Bergentruckung_12_001
// 040   ----------------------------------------
	BYTE	PATT
	 POIN2	Bergentruckung_12_001
// 041   ----------------------------------------
	BYTE	PATT
	 POIN2	Bergentruckung_12_001
// 042   ----------------------------------------
	BYTE	PATT
	 POIN2	Bergentruckung_12_001
// 043   ----------------------------------------
	BYTE	PATT
	 POIN2	Bergentruckung_12_001
// 044   ----------------------------------------
	BYTE	PATT
	 POIN2	Bergentruckung_12_008
// 045   ----------------------------------------
	BYTE	PATT
	 POIN2	Bergentruckung_12_001
// 046   ----------------------------------------
	BYTE	PATT
	 POIN2	Bergentruckung_12_001
// 047   ----------------------------------------
	BYTE	PATT
	 POIN2	Bergentruckung_12_001
// 048   ----------------------------------------
	BYTE	PATT
	 POIN2	Bergentruckung_12_001
// 049   ----------------------------------------
	BYTE	PATT
	 POIN2	Bergentruckung_12_001
// 050   ----------------------------------------
	BYTE	PATT
	 POIN2	Bergentruckung_12_001
// 051   ----------------------------------------
	BYTE	PATT
	 POIN2	Bergentruckung_12_015
// 052   ----------------------------------------
	BYTE	W96
// 053   ----------------------------------------
	BYTE	W96
// 054   ----------------------------------------
	BYTE	W96
// 055   ----------------------------------------
	BYTE	W96
// 056   ----------------------------------------
	BYTE	W96
// 057   ----------------------------------------
	BYTE	W96
// 058   ----------------------------------------
	BYTE	W96
// 059   ----------------------------------------
	BYTE	W96
// 060   ----------------------------------------
	BYTE	PATT
	 POIN2	Bergentruckung_12_008
// 061   ----------------------------------------
	BYTE	PATT
	 POIN2	Bergentruckung_12_001
// 062   ----------------------------------------
	BYTE	PATT
	 POIN2	Bergentruckung_12_001
// 063   ----------------------------------------
	BYTE	PATT
	 POIN2	Bergentruckung_12_001
// 064   ----------------------------------------
	BYTE	PATT
	 POIN2	Bergentruckung_12_001
// 065   ----------------------------------------
	BYTE	PATT
	 POIN2	Bergentruckung_12_001
// 066   ----------------------------------------
	BYTE	PATT
	 POIN2	Bergentruckung_12_001
// 067   ----------------------------------------
	BYTE	PATT
	 POIN2	Bergentruckung_12_001
// 068   ----------------------------------------
	BYTE	PATT
	 POIN2	Bergentruckung_12_001
// 069   ----------------------------------------
	BYTE	PATT
	 POIN2	Bergentruckung_12_001
// 070   ----------------------------------------
	BYTE	PATT
	 POIN2	Bergentruckung_12_001
// 071   ----------------------------------------
	BYTE		N12     Cn1   v127
	BYTE		N06     As1 
	BYTE	W06
	BYTE		        Gs1 
	BYTE	W06
	BYTE		N12     En1 
	BYTE		N06     Fs1 
	BYTE	W06
	BYTE		        Gs1 
	BYTE	W06
	BYTE		N12     Cn1 
	BYTE		N06     As1 
	BYTE	W06
	BYTE		        Gs1 
	BYTE	W06
	BYTE		N12     En1 
	BYTE		N06     Fs1 
	BYTE	W06
	BYTE		        Gs1 
	BYTE	W06
	BYTE	GoTo
	 POIN2	Bergentruckung_12_B1
Bergentruckung_12_B2:
	BYTE	FINE

//**************** Track 13 (Midi-Chn.14) ****************//

Bergentruckung_13:
	BYTE	KEYSH   Bergentruckung_key+0
// 000   ----------------------------------------
	BYTE		VOICE   52
	BYTE		VOL     95*Bergentruckung_mvl/mxv
	BYTE	W48
Bergentruckung_13_B1:
	BYTE	W48
// 001   ----------------------------------------
	BYTE	W96
// 002   ----------------------------------------
	BYTE	W96
// 003   ----------------------------------------
	BYTE	W96
// 004   ----------------------------------------
Bergentruckung_13_004:
	BYTE	W48
	BYTE		N96     An1   v127
	BYTE		N96     Fs2 
	BYTE	W48
	BYTE	PEND
// 005   ----------------------------------------
Bergentruckung_13_005:
	BYTE	W48
	BYTE		N96     Ds2   v127
	BYTE		N96     Bn2 
	BYTE	W48
	BYTE	PEND
// 006   ----------------------------------------
Bergentruckung_13_006:
	BYTE	W48
	BYTE		N96     En2   v127
	BYTE		N96     Cs3 
	BYTE	W48
	BYTE	PEND
// 007   ----------------------------------------
Bergentruckung_13_007:
	BYTE	W48
	BYTE		N24     Fs2   v127
	BYTE		N24     Bn2 
	BYTE	W48
	BYTE	PEND
// 008   ----------------------------------------
	BYTE	W96
// 009   ----------------------------------------
	BYTE	W96
// 010   ----------------------------------------
	BYTE	W96
// 011   ----------------------------------------
	BYTE	W96
// 012   ----------------------------------------
	BYTE	PATT
	 POIN2	Bergentruckung_13_004
// 013   ----------------------------------------
	BYTE	PATT
	 POIN2	Bergentruckung_13_005
// 014   ----------------------------------------
	BYTE	PATT
	 POIN2	Bergentruckung_13_006
// 015   ----------------------------------------
	BYTE	PATT
	 POIN2	Bergentruckung_13_007
// 016   ----------------------------------------
	BYTE	W96
// 017   ----------------------------------------
	BYTE	W96
// 018   ----------------------------------------
	BYTE	W96
// 019   ----------------------------------------
	BYTE	W96
// 020   ----------------------------------------
	BYTE	W48
	BYTE		N06     An1   v127
	BYTE		N06     En2 
	BYTE	W18
	BYTE		        An1 
	BYTE		N06     En2 
	BYTE	W24
	BYTE		        An1 
	BYTE		N06     En2 
	BYTE	W06
// 021   ----------------------------------------
	BYTE	W12
	BYTE		        An1 
	BYTE		N06     En2 
	BYTE	W12
	BYTE		        An1 
	BYTE		N06     En2 
	BYTE	W12
	BYTE		N12     Bn1 
	BYTE		N12     Fs2 
	BYTE	W12
	BYTE		N06     An1 
	BYTE		N06     En2 
	BYTE	W18
	BYTE		        An1 
	BYTE		N06     En2 
	BYTE	W24
	BYTE		        An1 
	BYTE		N06     En2 
	BYTE	W06
// 022   ----------------------------------------
	BYTE	W12
	BYTE		        An1 
	BYTE		N06     En2 
	BYTE	W12
	BYTE		        An1 
	BYTE		N06     En2 
	BYTE	W12
	BYTE		N12     Bn1 
	BYTE		N12     Fs2 
	BYTE	W12
	BYTE		N06     Cs2 
	BYTE		N06     Gs2 
	BYTE	W18
	BYTE		        Cs2 
	BYTE		N06     Gs2 
	BYTE	W24
	BYTE		        Cs2 
	BYTE		N06     Gs2 
	BYTE	W06
// 023   ----------------------------------------
	BYTE	W12
	BYTE		        Cs2 
	BYTE		N06     Gs2 
	BYTE	W12
	BYTE		        Cs2 
	BYTE		N06     Gs2 
	BYTE	W12
	BYTE		N12     Bn1 
	BYTE		N12     Fs2 
	BYTE	W60
// 024   ----------------------------------------
	BYTE	W96
// 025   ----------------------------------------
	BYTE	W96
// 026   ----------------------------------------
	BYTE	W96
// 027   ----------------------------------------
	BYTE	W96
// 028   ----------------------------------------
	BYTE	W96
// 029   ----------------------------------------
	BYTE	W96
// 030   ----------------------------------------
	BYTE	W96
// 031   ----------------------------------------
	BYTE	W96
// 032   ----------------------------------------
	BYTE	W96
// 033   ----------------------------------------
	BYTE	W96
// 034   ----------------------------------------
	BYTE	W96
// 035   ----------------------------------------
	BYTE	W96
// 036   ----------------------------------------
	BYTE	W96
// 037   ----------------------------------------
	BYTE	W96
// 038   ----------------------------------------
	BYTE	W96
// 039   ----------------------------------------
	BYTE	W96
// 040   ----------------------------------------
	BYTE	W96
// 041   ----------------------------------------
	BYTE	W96
// 042   ----------------------------------------
	BYTE	W96
// 043   ----------------------------------------
	BYTE	W96
// 044   ----------------------------------------
	BYTE	W96
// 045   ----------------------------------------
	BYTE	W96
// 046   ----------------------------------------
	BYTE	W96
// 047   ----------------------------------------
	BYTE	W96
// 048   ----------------------------------------
	BYTE	W96
// 049   ----------------------------------------
	BYTE	W96
// 050   ----------------------------------------
	BYTE	W96
// 051   ----------------------------------------
	BYTE	W96
// 052   ----------------------------------------
	BYTE	W96
// 053   ----------------------------------------
	BYTE	W96
// 054   ----------------------------------------
	BYTE	W96
// 055   ----------------------------------------
	BYTE	W96
// 056   ----------------------------------------
	BYTE	W96
// 057   ----------------------------------------
	BYTE	W96
// 058   ----------------------------------------
	BYTE	W96
// 059   ----------------------------------------
	BYTE	W96
// 060   ----------------------------------------
	BYTE	W96
// 061   ----------------------------------------
	BYTE	W96
// 062   ----------------------------------------
	BYTE	W96
// 063   ----------------------------------------
	BYTE	W96
// 064   ----------------------------------------
	BYTE	W96
// 065   ----------------------------------------
	BYTE	W96
// 066   ----------------------------------------
	BYTE	W96
// 067   ----------------------------------------
	BYTE	W96
// 068   ----------------------------------------
	BYTE	W96
// 069   ----------------------------------------
	BYTE	W96
// 070   ----------------------------------------
	BYTE	W96
// 071   ----------------------------------------
	BYTE	W48
	BYTE	GoTo
	 POIN2	Bergentruckung_13_B1
Bergentruckung_13_B2:
	BYTE	FINE

//**************** Track 14 (Midi-Chn.15) ****************//

Bergentruckung_14:
	BYTE	KEYSH   Bergentruckung_key+0
// 000   ----------------------------------------
	BYTE		VOICE   47
	BYTE		VOL     95*Bergentruckung_mvl/mxv
	BYTE	W48
Bergentruckung_14_B1:
	BYTE	W48
// 001   ----------------------------------------
	BYTE	W96
// 002   ----------------------------------------
	BYTE	W96
// 003   ----------------------------------------
	BYTE	W96
// 004   ----------------------------------------
	BYTE	W96
// 005   ----------------------------------------
	BYTE	W96
// 006   ----------------------------------------
	BYTE	W96
// 007   ----------------------------------------
	BYTE	W96
// 008   ----------------------------------------
	BYTE	W96
// 009   ----------------------------------------
	BYTE	W96
// 010   ----------------------------------------
	BYTE	W96
// 011   ----------------------------------------
	BYTE	W96
// 012   ----------------------------------------
	BYTE	W96
// 013   ----------------------------------------
	BYTE	W96
// 014   ----------------------------------------
	BYTE	W96
// 015   ----------------------------------------
	BYTE	W96
// 016   ----------------------------------------
	BYTE	W30
	BYTE		N06     Bn1   v064
	BYTE	W06
	BYTE		N03     Bn1   v080
	BYTE	W03
	BYTE		        Bn1   v096
	BYTE	W03
	BYTE		N01     Bn1   v112
	BYTE	W01
	BYTE		        Bn1   v120
	BYTE	W02
	BYTE		        Bn1   v127
	BYTE	W01
	BYTE		N01   
	BYTE	W02
	BYTE		N06     An1 
	BYTE	W12
	BYTE		        En1 
	BYTE	W06
	BYTE		        An1 
	BYTE	W12
	BYTE		N03     En1 
	BYTE	W03
	BYTE		N03   
	BYTE	W03
	BYTE		N03   
	BYTE	W03
	BYTE		N03   
	BYTE	W03
	BYTE		N06     An1 
	BYTE	W06
// 017   ----------------------------------------
Bergentruckung_14_017:
	BYTE	W06
	BYTE		N06     En1   v127
	BYTE	W06
	BYTE		        An1 
	BYTE	W12
	BYTE		N06   
	BYTE	W12
	BYTE		N12     Bn1 
	BYTE	W12
	BYTE		N06     An1 
	BYTE	W12
	BYTE		        En1 
	BYTE	W06
	BYTE		        An1 
	BYTE	W12
	BYTE		        En1 
	BYTE	W06
	BYTE		N06   
	BYTE	W06
	BYTE		        An1 
	BYTE	W06
	BYTE	PEND
// 018   ----------------------------------------
Bergentruckung_14_018:
	BYTE	W06
	BYTE		N06     En1   v127
	BYTE	W06
	BYTE		        An1 
	BYTE	W12
	BYTE		N06   
	BYTE	W12
	BYTE		N03     Bn1 
	BYTE	W03
	BYTE		N03   
	BYTE	W03
	BYTE		N03   
	BYTE	W03
	BYTE		N03   
	BYTE	W03
	BYTE		N06     Cs2 
	BYTE	W12
	BYTE		        Gs1 
	BYTE	W06
	BYTE		        Cs2 
	BYTE	W12
	BYTE		        Gs1 
	BYTE	W06
	BYTE		N06   
	BYTE	W06
	BYTE		        Cs2 
	BYTE	W06
	BYTE	PEND
// 019   ----------------------------------------
Bergentruckung_14_019:
	BYTE	W06
	BYTE		N06     Gs1   v127
	BYTE	W06
	BYTE		        Cs2 
	BYTE	W12
	BYTE		N06   
	BYTE	W12
	BYTE		N03     Bn1 
	BYTE	W03
	BYTE		N03   
	BYTE	W03
	BYTE		N03   
	BYTE	W03
	BYTE		N03   
	BYTE	W03
	BYTE		N06     Gs1 
	BYTE	W06
	BYTE		        Ds1 
	BYTE	W06
	BYTE		N06   
	BYTE	W06
	BYTE		        Gs1 
	BYTE	W12
	BYTE		        Ds1 
	BYTE	W06
	BYTE		        Gs1 
	BYTE	W06
	BYTE		        Ds1 
	BYTE	W06
	BYTE	PEND
// 020   ----------------------------------------
Bergentruckung_14_020:
	BYTE		N06     Bn1   v127
	BYTE	W12
	BYTE		N03     Fs1 
	BYTE	W03
	BYTE		N03   
	BYTE	W03
	BYTE		N06     Ds2 
	BYTE	W12
	BYTE		N03     Bn1 
	BYTE	W03
	BYTE		N03   
	BYTE	W03
	BYTE		N12     Fs2 
	BYTE	W12
	BYTE		N06     An1 
	BYTE	W12
	BYTE		        En1 
	BYTE	W06
	BYTE		        An1 
	BYTE	W12
	BYTE		N03     En1 
	BYTE	W03
	BYTE		N03   
	BYTE	W03
	BYTE		N03   
	BYTE	W03
	BYTE		N03   
	BYTE	W03
	BYTE		N06     An1 
	BYTE	W06
	BYTE	PEND
// 021   ----------------------------------------
	BYTE	PATT
	 POIN2	Bergentruckung_14_017
// 022   ----------------------------------------
	BYTE	PATT
	 POIN2	Bergentruckung_14_018
// 023   ----------------------------------------
	BYTE	W06
	BYTE		N06     Gs1   v127
	BYTE	W06
	BYTE		        Cs2 
	BYTE	W12
	BYTE		N06   
	BYTE	W12
	BYTE		N03     Bn1 
	BYTE	W03
	BYTE		N03   
	BYTE	W03
	BYTE		N03   
	BYTE	W03
	BYTE		N03   
	BYTE	W48
	BYTE	W03
// 024   ----------------------------------------
	BYTE	W48
	BYTE		N06     An1 
	BYTE	W12
	BYTE		        En1 
	BYTE	W06
	BYTE		        An1 
	BYTE	W12
	BYTE		N03     En1 
	BYTE	W03
	BYTE		N03   
	BYTE	W03
	BYTE		N03   
	BYTE	W03
	BYTE		N03   
	BYTE	W03
	BYTE		N06     An1 
	BYTE	W06
// 025   ----------------------------------------
	BYTE	PATT
	 POIN2	Bergentruckung_14_017
// 026   ----------------------------------------
	BYTE	PATT
	 POIN2	Bergentruckung_14_018
// 027   ----------------------------------------
	BYTE	PATT
	 POIN2	Bergentruckung_14_019
// 028   ----------------------------------------
	BYTE	PATT
	 POIN2	Bergentruckung_14_020
// 029   ----------------------------------------
	BYTE	PATT
	 POIN2	Bergentruckung_14_017
// 030   ----------------------------------------
	BYTE	PATT
	 POIN2	Bergentruckung_14_018
// 031   ----------------------------------------
	BYTE	PATT
	 POIN2	Bergentruckung_14_019
// 032   ----------------------------------------
	BYTE		N06     Cn2   v127
	BYTE	W12
	BYTE		N03     Fs1 
	BYTE	W03
	BYTE		N03   
	BYTE	W03
	BYTE		N06     Ds2 
	BYTE	W12
	BYTE		N03     Cn2 
	BYTE	W03
	BYTE		N03   
	BYTE	W03
	BYTE		N12     Fs2 
	BYTE	W12
	BYTE		N06     An1 
	BYTE	W12
	BYTE		        En1 
	BYTE	W06
	BYTE		        An1 
	BYTE	W12
	BYTE		N03     En1 
	BYTE	W03
	BYTE		N03   
	BYTE	W03
	BYTE		N03   
	BYTE	W03
	BYTE		N03   
	BYTE	W03
	BYTE		N06     An1 
	BYTE	W06
// 033   ----------------------------------------
	BYTE	PATT
	 POIN2	Bergentruckung_14_017
// 034   ----------------------------------------
	BYTE	PATT
	 POIN2	Bergentruckung_14_018
// 035   ----------------------------------------
	BYTE	PATT
	 POIN2	Bergentruckung_14_019
// 036   ----------------------------------------
	BYTE	PATT
	 POIN2	Bergentruckung_14_020
// 037   ----------------------------------------
	BYTE	PATT
	 POIN2	Bergentruckung_14_017
// 038   ----------------------------------------
	BYTE	PATT
	 POIN2	Bergentruckung_14_018
// 039   ----------------------------------------
	BYTE	PATT
	 POIN2	Bergentruckung_14_019
// 040   ----------------------------------------
	BYTE		N06     Cn2   v127
	BYTE	W12
	BYTE		N03     Fs1 
	BYTE	W03
	BYTE		N03   
	BYTE	W03
	BYTE		N06     Ds2 
	BYTE	W12
	BYTE		N03     Cn2 
	BYTE	W03
	BYTE		N03   
	BYTE	W03
	BYTE		N12     Fs2 
	BYTE	W60
// 041   ----------------------------------------
	BYTE	W96
// 042   ----------------------------------------
	BYTE	W96
// 043   ----------------------------------------
	BYTE	W96
// 044   ----------------------------------------
	BYTE	W96
// 045   ----------------------------------------
	BYTE	W96
// 046   ----------------------------------------
	BYTE	W96
// 047   ----------------------------------------
	BYTE	W96
// 048   ----------------------------------------
	BYTE	W96
// 049   ----------------------------------------
	BYTE	W96
// 050   ----------------------------------------
	BYTE	W96
// 051   ----------------------------------------
	BYTE	W96
// 052   ----------------------------------------
	BYTE	W96
// 053   ----------------------------------------
	BYTE	W96
// 054   ----------------------------------------
	BYTE	W96
// 055   ----------------------------------------
	BYTE	W96
// 056   ----------------------------------------
	BYTE	W96
// 057   ----------------------------------------
	BYTE	W96
// 058   ----------------------------------------
	BYTE	W96
// 059   ----------------------------------------
	BYTE	W96
// 060   ----------------------------------------
	BYTE	W96
// 061   ----------------------------------------
	BYTE	W96
// 062   ----------------------------------------
	BYTE	W96
// 063   ----------------------------------------
	BYTE	W96
// 064   ----------------------------------------
	BYTE	W96
// 065   ----------------------------------------
	BYTE	W96
// 066   ----------------------------------------
	BYTE	W96
// 067   ----------------------------------------
	BYTE	W96
// 068   ----------------------------------------
	BYTE	W96
// 069   ----------------------------------------
	BYTE	W96
// 070   ----------------------------------------
	BYTE	W96
// 071   ----------------------------------------
	BYTE	W48
	BYTE	GoTo
	 POIN2	Bergentruckung_14_B1
Bergentruckung_14_B2:
	BYTE	FINE

//**************** Track 15 (Midi-Chn.16) ****************//

Bergentruckung_15:
	BYTE	KEYSH   Bergentruckung_key+0
// 000   ----------------------------------------
	BYTE		VOICE   57
	BYTE		VOL     63*Bergentruckung_mvl/mxv
	BYTE	W48
Bergentruckung_15_B1:
	BYTE	W48
// 001   ----------------------------------------
	BYTE	W96
// 002   ----------------------------------------
	BYTE	W96
// 003   ----------------------------------------
	BYTE	W96
// 004   ----------------------------------------
	BYTE	W96
// 005   ----------------------------------------
	BYTE	W96
// 006   ----------------------------------------
	BYTE	W96
// 007   ----------------------------------------
	BYTE	W96
// 008   ----------------------------------------
	BYTE	W96
// 009   ----------------------------------------
	BYTE	W96
// 010   ----------------------------------------
	BYTE	W96
// 011   ----------------------------------------
	BYTE	W96
// 012   ----------------------------------------
	BYTE	W96
// 013   ----------------------------------------
	BYTE	W96
// 014   ----------------------------------------
	BYTE	W96
// 015   ----------------------------------------
	BYTE	W96
// 016   ----------------------------------------
	BYTE	W96
// 017   ----------------------------------------
	BYTE	W96
// 018   ----------------------------------------
	BYTE	W96
// 019   ----------------------------------------
	BYTE	W96
// 020   ----------------------------------------
	BYTE	W96
// 021   ----------------------------------------
	BYTE	W96
// 022   ----------------------------------------
	BYTE	W96
// 023   ----------------------------------------
	BYTE	W96
// 024   ----------------------------------------
	BYTE	W96
// 025   ----------------------------------------
	BYTE	W96
// 026   ----------------------------------------
	BYTE	W96
// 027   ----------------------------------------
	BYTE	W96
// 028   ----------------------------------------
	BYTE	W96
// 029   ----------------------------------------
	BYTE	W96
// 030   ----------------------------------------
	BYTE	W96
// 031   ----------------------------------------
	BYTE	W96
// 032   ----------------------------------------
	BYTE	W96
// 033   ----------------------------------------
	BYTE	W96
// 034   ----------------------------------------
	BYTE	W96
// 035   ----------------------------------------
	BYTE	W96
// 036   ----------------------------------------
	BYTE	W96
// 037   ----------------------------------------
	BYTE	W96
// 038   ----------------------------------------
	BYTE	W96
// 039   ----------------------------------------
	BYTE	W96
// 040   ----------------------------------------
	BYTE	W96
// 041   ----------------------------------------
	BYTE	W96
// 042   ----------------------------------------
	BYTE	W96
// 043   ----------------------------------------
	BYTE	W96
// 044   ----------------------------------------
	BYTE	W96
// 045   ----------------------------------------
	BYTE	W96
// 046   ----------------------------------------
	BYTE	W96
// 047   ----------------------------------------
	BYTE	W96
// 048   ----------------------------------------
	BYTE	W96
// 049   ----------------------------------------
	BYTE	W96
// 050   ----------------------------------------
	BYTE	W96
// 051   ----------------------------------------
	BYTE	W96
// 052   ----------------------------------------
	BYTE	W96
// 053   ----------------------------------------
	BYTE	W96
// 054   ----------------------------------------
	BYTE	W96
// 055   ----------------------------------------
	BYTE	W96
// 056   ----------------------------------------
	BYTE	W56
	BYTE	W01
	BYTE		N06     Gs4   v064
	BYTE		N06     En5 
	BYTE	W06
	BYTE		        Fs4 
	BYTE		N06     Ds5 
	BYTE	W06
	BYTE		        En4 
	BYTE		N06     Cs5 
	BYTE	W06
	BYTE		        Ds4 
	BYTE		N06     Bn4 
	BYTE	W06
	BYTE		N12     En4 
	BYTE		N12     Cs5 
	BYTE	W12
	BYTE		        Cs4 
	BYTE		N12     Gs4 
	BYTE	W03
// 057   ----------------------------------------
	BYTE	W09
	BYTE		N18     Cs4 
	BYTE		N18     As4 
	BYTE	W18
	BYTE		N06     As3 
	BYTE		N06     Fs4 
	BYTE	W18
	BYTE		        Fs3 
	BYTE		N06     Cs4 
	BYTE	W06
	BYTE		        Gs3 
	BYTE		N06     Ds4 
	BYTE	W06
	BYTE		N18     An3 
	BYTE		N18     En4 
	BYTE	W18
	BYTE		N12     Bn3 
	BYTE		N12     Fs4 
	BYTE	W12
	BYTE		N06     Cs4 
	BYTE	W06
	BYTE		N12     Ds4 
	BYTE		N12     Bn4 
	BYTE	W03
// 058   ----------------------------------------
	BYTE	W09
	BYTE		N48     En4 
	BYTE		N48     Gs4 
	BYTE	W48
	BYTE		N06   
	BYTE		N06     En5 
	BYTE	W06
	BYTE		        Fs4 
	BYTE		N06     Ds5 
	BYTE	W06
	BYTE		        En4 
	BYTE		N06     Cs5 
	BYTE	W06
	BYTE		        Ds4 
	BYTE		N06     Bn4 
	BYTE	W06
	BYTE		N12     En4 
	BYTE		N12     Cs5 
	BYTE	W12
	BYTE		        Cs4 
	BYTE		N12     Gs4 
	BYTE	W03
// 059   ----------------------------------------
	BYTE	W09
	BYTE		N18     Cs4 
	BYTE		N18     As4 
	BYTE	W18
	BYTE		N06     As3 
	BYTE		N06     Fs4 
	BYTE	W18
	BYTE		        Fs3 
	BYTE		N06     Cs4 
	BYTE	W06
	BYTE		        Gs3 
	BYTE		N06     Ds4 
	BYTE	W06
	BYTE		N18     An3 
	BYTE		N18     En4 
	BYTE	W18
	BYTE		N12     Bn3 
	BYTE		N12     Ds4 
	BYTE	W12
	BYTE		N06     Gs3 
	BYTE	W06
	BYTE		N12     Bn3 
	BYTE		N12     Ds4 
	BYTE	W03
// 060   ----------------------------------------
	BYTE	W09
	BYTE		N48     Gs3 
	BYTE		N48     Cs4 
	BYTE	W48
	BYTE		N06     Dn5 
	BYTE		N06     Fs5 
	BYTE	W06
	BYTE		        Cs5 
	BYTE		N06     En5 
	BYTE	W06
	BYTE		        Bn4 
	BYTE		N06     Dn5 
	BYTE	W06
	BYTE		        An4 
	BYTE		N06     Cs5 
	BYTE	W06
	BYTE		        Bn4 
	BYTE		N06     Dn5 
	BYTE	W06
	BYTE		        An4 
	BYTE		N06     Cs5 
	BYTE	W06
	BYTE		        Gs4 
	BYTE		N06     Bn4 
	BYTE	W03
// 061   ----------------------------------------
Bergentruckung_15_061:
	BYTE	W03
	BYTE		N06     Bn4   v064
	BYTE		N06     Dn5 
	BYTE	W06
	BYTE		        Gs4 
	BYTE		N06     Cs5 
	BYTE	W18
	BYTE		        Cs4 
	BYTE		N06     Gs4 
	BYTE	W18
	BYTE		        Cs4 
	BYTE		N06     Gs4 
	BYTE	W06
	BYTE		N06   
	BYTE		N06     Cs5 
	BYTE	W06
	BYTE		        Dn5 
	BYTE		N06     Fs5 
	BYTE	W06
	BYTE		        Cs5 
	BYTE		N06     En5 
	BYTE	W06
	BYTE		        Bn4 
	BYTE		N06     Dn5 
	BYTE	W06
	BYTE		        An4 
	BYTE		N06     Cs5 
	BYTE	W06
	BYTE		        Gs4 
	BYTE		N06     Bn4 
	BYTE	W06
	BYTE		        Fs4 
	BYTE		N06     An4 
	BYTE	W06
	BYTE		        En5 
	BYTE		N06     Gs5 
	BYTE	W03
	BYTE	PEND
// 062   ----------------------------------------
Bergentruckung_15_062:
	BYTE	W03
	BYTE		N06     Ds5   v064
	BYTE		N06     Fs5 
	BYTE	W06
	BYTE		N12     Cs5 
	BYTE		N12     En5 
	BYTE	W12
	BYTE		        Ds5 
	BYTE		N12     Fs5 
	BYTE	W12
	BYTE		        En5 
	BYTE		N12     Gs5 
	BYTE	W12
	BYTE		N06     En5 
	BYTE		N06     Gs5 
	BYTE	W06
	BYTE		        Fs5 
	BYTE		N06     As5 
	BYTE	W06
	BYTE		        Gs5 
	BYTE		N06     Bn5 
	BYTE	W06
	BYTE		        Fs5 
	BYTE		N06     As5 
	BYTE	W06
	BYTE		        En5 
	BYTE		N06     Gs5 
	BYTE	W06
	BYTE		        Ds5 
	BYTE		N06     Fs5 
	BYTE	W06
	BYTE		        En5 
	BYTE		N06     Gs5 
	BYTE	W06
	BYTE		        Ds5 
	BYTE		N06     Fs5 
	BYTE	W06
	BYTE		        En5 
	BYTE		N06     Gs5 
	BYTE	W03
	BYTE	PEND
// 063   ----------------------------------------
	BYTE	W03
	BYTE		        Fs5 
	BYTE		N06     As5 
	BYTE	W06
	BYTE		        En5 
	BYTE		N06     Gs5 
	BYTE	W18
	BYTE		        Gs4 
	BYTE		N06     Cs5 
	BYTE	W18
	BYTE		        Gs4 
	BYTE		N06     Cs5 
	BYTE	W06
	BYTE		        Bn4 
	BYTE		N06     Ds5 
	BYTE	W06
	BYTE		N18     Cs5 
	BYTE		N18     En5 
	BYTE	W18
	BYTE		        Ds5 
	BYTE		N18     Fs5 
	BYTE	W18
	BYTE		N12   
	BYTE		N12     An5 
	BYTE	W03
// 064   ----------------------------------------
	BYTE	W09
	BYTE		N06     Gs5 
	BYTE	W12
	BYTE		        Ds5 
	BYTE	W12
	BYTE		        Cn5 
	BYTE	W12
	BYTE		        Gs4 
	BYTE	W12
	BYTE		        Dn5 
	BYTE		N06     Fs5 
	BYTE	W06
	BYTE		        Cs5 
	BYTE		N06     En5 
	BYTE	W06
	BYTE		        Bn4 
	BYTE		N06     Dn5 
	BYTE	W06
	BYTE		        An4 
	BYTE		N06     Cs5 
	BYTE	W06
	BYTE		        Bn4 
	BYTE		N06     Dn5 
	BYTE	W06
	BYTE		        An4 
	BYTE		N06     Cs5 
	BYTE	W06
	BYTE		        Gs4 
	BYTE		N06     Bn4 
	BYTE	W03
// 065   ----------------------------------------
	BYTE	PATT
	 POIN2	Bergentruckung_15_061
// 066   ----------------------------------------
	BYTE	PATT
	 POIN2	Bergentruckung_15_062
// 067   ----------------------------------------
	BYTE	W03
	BYTE		N06     Fs5   v064
	BYTE		N06     As5 
	BYTE	W06
	BYTE		        En5 
	BYTE		N06     Gs5 
	BYTE	W18
	BYTE		        Gs4 
	BYTE		N06     Cs5 
	BYTE	W18
	BYTE		        Gs4 
	BYTE		N06     Cs5 
	BYTE	W06
	BYTE		        Bn4 
	BYTE		N06     Ds5 
	BYTE	W06
	BYTE		N18     Cs5 
	BYTE		N18     En5 
	BYTE	W18
	BYTE		        Bn4 
	BYTE		N18     Ds5 
	BYTE	W18
	BYTE		N12     Fs4 
	BYTE	W03
// 068   ----------------------------------------
Bergentruckung_15_068:
	BYTE	W09
	BYTE		N36     Gs4   v064
	BYTE		N36     Cs5 
	BYTE	W36
	BYTE		N06     Gs4 
	BYTE		N06     Cs5 
	BYTE	W06
	BYTE		        Bn4 
	BYTE		N06     Ds5 
	BYTE	W06
	BYTE		N18     Cs5 
	BYTE		N18     En5 
	BYTE	W18
	BYTE		        Bn4 
	BYTE		N18     Ds5 
	BYTE	W18
	BYTE		N12     Fs4 
	BYTE	W03
	BYTE	PEND
// 069   ----------------------------------------
	BYTE	PATT
	 POIN2	Bergentruckung_15_068
// 070   ----------------------------------------
	BYTE	PATT
	 POIN2	Bergentruckung_15_068
// 071   ----------------------------------------
	BYTE	W09
	BYTE		N36     Gs4   v064
	BYTE		N36     Cs5 
	BYTE	W36
	BYTE	W03
	BYTE	GoTo
	 POIN2	Bergentruckung_15_B1
Bergentruckung_15_B2:
	BYTE	FINE

//******************************************************//
	ALIGN 4

songBergentruckung:
	BYTE	15	// NumTrks
	BYTE	0	// NumBlks
	BYTE	Bergentruckung_pri	// Priority
	BYTE	Bergentruckung_rev	// Reverb.

	POIN2	Bergentruckung_grp

	POIN2	Bergentruckung_1
	POIN2	Bergentruckung_2
	POIN2	Bergentruckung_3
	POIN2	Bergentruckung_4
	POIN2	Bergentruckung_5
	POIN2	Bergentruckung_6
	POIN2	Bergentruckung_7
	POIN2	Bergentruckung_8
	POIN2	Bergentruckung_9
	POIN2	Bergentruckung_10
	POIN2	Bergentruckung_11
	POIN2	Bergentruckung_12
	POIN2	Bergentruckung_13
	POIN2	Bergentruckung_14
	POIN2	Bergentruckung_15

	
