//Event file generated from Sappy .s format.
	#include "MPlayDef.event"

	#define	BloodyTears_grp  voicegroup000
	#define	BloodyTears_pri  0
	#define	BloodyTears_rev  0
	#define	BloodyTears_mvl  70
	#define	BloodyTears_key  0
	#define	BloodyTears_tbs  1
	#define	BloodyTears_exg  0
	#define	BloodyTears_cmp  1

	// .rodata
	//	BloodyTears
	ALIGN 4

//**************** Track 1 (Midi-Chn.1) ****************//

BloodyTears_1:
	BYTE	KEYSH   BloodyTears_key+0
BloodyTears_1_B1:
// 000   ----------------------------------------
	BYTE	TEMPO   125*BloodyTears_tbs/2
	BYTE		VOICE   28
	BYTE		VOL     96*BloodyTears_mvl/mxv
	BYTE		PAN     c_v+0
	BYTE		BEND    c_v+0
	BYTE		N96     Bn1   v096
	BYTE	W96
// 001   ----------------------------------------
BloodyTears_1_001:
	BYTE		N48     Gn1   v096
	BYTE	W48
	BYTE		        An1 
	BYTE	W48
	BYTE	PEND
// 002   ----------------------------------------
	BYTE		N96     Gs1 
	BYTE	W96
// 003   ----------------------------------------
	BYTE	PATT
	 POIN2	BloodyTears_1_001
// 004   ----------------------------------------
BloodyTears_1_004:
	BYTE		N12     Bn1   v096
	BYTE	W12
	BYTE		N03   
	BYTE	W06
	BYTE		N12   
	BYTE	W12
	BYTE		N03   
	BYTE	W06
	BYTE		N12   
	BYTE	W12
	BYTE		N03   
	BYTE	W06
	BYTE		N03   
	BYTE	W06
	BYTE		N12   
	BYTE	W12
	BYTE		N03   
	BYTE	W06
	BYTE		N03   
	BYTE	W06
	BYTE		N12   
	BYTE	W12
	BYTE	PEND
// 005   ----------------------------------------
BloodyTears_1_005:
	BYTE		N12     An1   v096
	BYTE	W12
	BYTE		N03   
	BYTE	W06
	BYTE		N12   
	BYTE	W12
	BYTE		N03   
	BYTE	W06
	BYTE		N12   
	BYTE	W12
	BYTE		N03   
	BYTE	W06
	BYTE		N03   
	BYTE	W06
	BYTE		N12   
	BYTE	W12
	BYTE		N03   
	BYTE	W06
	BYTE		N03   
	BYTE	W06
	BYTE		N12   
	BYTE	W12
	BYTE	PEND
// 006   ----------------------------------------
BloodyTears_1_006:
	BYTE		N12     Gn1   v096
	BYTE	W12
	BYTE		N03   
	BYTE	W06
	BYTE		N12   
	BYTE	W12
	BYTE		N03   
	BYTE	W06
	BYTE		N12   
	BYTE	W12
	BYTE		N03   
	BYTE	W06
	BYTE		N03   
	BYTE	W06
	BYTE		N12   
	BYTE	W12
	BYTE		N03   
	BYTE	W06
	BYTE		N03   
	BYTE	W06
	BYTE		N12   
	BYTE	W12
	BYTE	PEND
// 007   ----------------------------------------
	BYTE		        Fs1 
	BYTE	W12
	BYTE		N03   
	BYTE	W06
	BYTE		N12   
	BYTE	W12
	BYTE		N03   
	BYTE	W06
	BYTE		N12   
	BYTE	W12
	BYTE		N03   
	BYTE	W06
	BYTE		N03   
	BYTE	W06
	BYTE		N12   
	BYTE	W12
	BYTE		N03   
	BYTE	W06
	BYTE		N03   
	BYTE	W06
	BYTE		N12   
	BYTE	W12
// 008   ----------------------------------------
	BYTE	PATT
	 POIN2	BloodyTears_1_004
// 009   ----------------------------------------
	BYTE	PATT
	 POIN2	BloodyTears_1_005
// 010   ----------------------------------------
	BYTE	PATT
	 POIN2	BloodyTears_1_006
// 011   ----------------------------------------
	BYTE		N12     Fs1   v096
	BYTE	W12
	BYTE		N03   
	BYTE	W06
	BYTE		N12   
	BYTE	W12
	BYTE		N03   
	BYTE	W06
	BYTE		N12   
	BYTE	W12
	BYTE		N12   
	BYTE	W12
	BYTE		        Gs1 
	BYTE	W12
	BYTE		        As1 
	BYTE	W12
	BYTE		        Cs2 
	BYTE	W12
// 012   ----------------------------------------
BloodyTears_1_012:
	BYTE		N12     Bn1   v096
	BYTE	W12
	BYTE		N03   
	BYTE	W06
	BYTE		N12   
	BYTE	W12
	BYTE		N03   
	BYTE	W06
	BYTE		N12   
	BYTE	W12
	BYTE		        An1 
	BYTE	W12
	BYTE		N03   
	BYTE	W06
	BYTE		N12   
	BYTE	W12
	BYTE		N03   
	BYTE	W06
	BYTE		N12   
	BYTE	W12
	BYTE	PEND
// 013   ----------------------------------------
BloodyTears_1_013:
	BYTE		N12     Gn1   v096
	BYTE	W12
	BYTE		N03   
	BYTE	W06
	BYTE		N12   
	BYTE	W12
	BYTE		N03   
	BYTE	W06
	BYTE		N12   
	BYTE	W12
	BYTE		        Fs1 
	BYTE	W12
	BYTE		N03   
	BYTE	W06
	BYTE		N12   
	BYTE	W12
	BYTE		N03   
	BYTE	W06
	BYTE		N12   
	BYTE	W12
	BYTE	PEND
// 014   ----------------------------------------
	BYTE	PATT
	 POIN2	BloodyTears_1_012
// 015   ----------------------------------------
	BYTE	PATT
	 POIN2	BloodyTears_1_013
	BYTE	GoTo
	 POIN2	BloodyTears_1_B1
BloodyTears_1_B2:
// 016   ----------------------------------------
	BYTE	FINE

//**************** Track 2 (Midi-Chn.2) ****************//

BloodyTears_2:
	BYTE	KEYSH   BloodyTears_key+0
BloodyTears_2_B1:
// 000   ----------------------------------------
	BYTE		VOICE   127
	BYTE		VOL     79*BloodyTears_mvl/mxv
	BYTE		PAN     c_v+0
	BYTE		BEND    c_v+0
	BYTE		N12     Cn1   v112
	BYTE		N12     En2   v096
	BYTE	W96
// 001   ----------------------------------------
	BYTE		        Cn1   v112
	BYTE		N12     An2   v080
	BYTE	W48
	BYTE		        Cn1   v112
	BYTE		N12     Cs2   v080
	BYTE	W48
// 002   ----------------------------------------
	BYTE		        Cn1   v112
	BYTE		N12     En2   v096
	BYTE	W96
// 003   ----------------------------------------
	BYTE		        Cn1   v112
	BYTE		N12     Gn2   v096
	BYTE	W48
	BYTE		        Cn1   v112
	BYTE		N12     Gn2   v096
	BYTE	W36
	BYTE		N06     En1 
	BYTE	W06
	BYTE		N06   
	BYTE	W06
// 004   ----------------------------------------
BloodyTears_2_004:
	BYTE		N06     En2   v096
	BYTE	W12
	BYTE		        En1 
	BYTE		N06     As1   v080
	BYTE	W12
	BYTE		N06   
	BYTE	W12
	BYTE		        En1   v096
	BYTE		N06     As1   v080
	BYTE	W12
	BYTE		N06   
	BYTE	W12
	BYTE		        En1   v096
	BYTE		N06     As1   v080
	BYTE	W12
	BYTE		N06   
	BYTE	W12
	BYTE		        En1   v096
	BYTE		N06     As1   v080
	BYTE	W12
	BYTE	PEND
// 005   ----------------------------------------
BloodyTears_2_005:
	BYTE		N06     As1   v080
	BYTE	W12
	BYTE		        En1   v096
	BYTE		N06     As1   v080
	BYTE	W12
	BYTE		N06   
	BYTE	W12
	BYTE		        En1   v096
	BYTE		N06     As1   v080
	BYTE	W12
	BYTE		N06   
	BYTE	W12
	BYTE		        En1   v096
	BYTE		N06     As1   v080
	BYTE	W12
	BYTE		N06   
	BYTE	W12
	BYTE		        En1   v096
	BYTE		N06     As1   v080
	BYTE	W12
	BYTE	PEND
// 006   ----------------------------------------
	BYTE	PATT
	 POIN2	BloodyTears_2_005
// 007   ----------------------------------------
	BYTE		N06     As1   v080
	BYTE	W12
	BYTE		        En1   v096
	BYTE		N06     As1   v080
	BYTE	W12
	BYTE		N06   
	BYTE	W12
	BYTE		        En1   v096
	BYTE		N06     As1   v080
	BYTE	W12
	BYTE		N06   
	BYTE	W12
	BYTE		        En1   v096
	BYTE		N06     As1   v080
	BYTE	W12
	BYTE		N06   
	BYTE	W12
	BYTE		        En1   v096
	BYTE		N06     Gn2 
	BYTE	W12
// 008   ----------------------------------------
	BYTE	PATT
	 POIN2	BloodyTears_2_004
// 009   ----------------------------------------
	BYTE	PATT
	 POIN2	BloodyTears_2_005
// 010   ----------------------------------------
	BYTE	PATT
	 POIN2	BloodyTears_2_005
// 011   ----------------------------------------
	BYTE		N06     As1   v080
	BYTE	W12
	BYTE		        En1   v096
	BYTE		N06     As1   v080
	BYTE	W12
	BYTE		N06   
	BYTE	W12
	BYTE		        En1   v096
	BYTE		N06     Gn2 
	BYTE	W12
	BYTE		        En1 
	BYTE	W06
	BYTE		N06   
	BYTE	W06
	BYTE		        Dn2 
	BYTE	W06
	BYTE		        Cn2 
	BYTE	W06
	BYTE		        Bn1 
	BYTE	W06
	BYTE		        An1 
	BYTE	W06
	BYTE		        Gn1 
	BYTE	W06
	BYTE		        Fn1 
	BYTE	W06
// 012   ----------------------------------------
BloodyTears_2_012:
	BYTE		N06     Cn1   v112
	BYTE		N06     En2   v096
	BYTE	W12
	BYTE		        En1 
	BYTE		N06     Bn2 
	BYTE	W06
	BYTE		        Cn1   v112
	BYTE	W06
	BYTE		        Bn2   v096
	BYTE	W06
	BYTE		        Cn1   v112
	BYTE	W06
	BYTE		        En1   v096
	BYTE		N06     Bn2 
	BYTE	W12
	BYTE		        Cn1   v112
	BYTE		N06     Bn2   v096
	BYTE	W12
	BYTE		        En1 
	BYTE		N06     Bn2 
	BYTE	W06
	BYTE		        Cn1   v112
	BYTE	W06
	BYTE		        Bn2   v096
	BYTE	W06
	BYTE		        Cn1   v112
	BYTE	W06
	BYTE		        En1   v096
	BYTE		N06     Bn2 
	BYTE	W12
	BYTE	PEND
// 013   ----------------------------------------
	BYTE		        Cn1   v112
	BYTE		N06     Bn2   v096
	BYTE	W12
	BYTE		        En1 
	BYTE		N06     Bn2 
	BYTE	W06
	BYTE		        Cn1   v112
	BYTE	W06
	BYTE		        Bn2   v096
	BYTE	W06
	BYTE		        Cn1   v112
	BYTE	W06
	BYTE		        En1   v096
	BYTE		N06     Bn2 
	BYTE	W12
	BYTE		        Cn1   v112
	BYTE		N06     Bn2   v096
	BYTE	W06
	BYTE		        Cn1   v112
	BYTE	W06
	BYTE		        En1   v096
	BYTE		N06     Gn2 
	BYTE	W12
	BYTE		        Cn1   v112
	BYTE		N06     Bn2   v096
	BYTE	W06
	BYTE		        Cn1   v112
	BYTE	W06
	BYTE		        En1   v096
	BYTE		N06     Gn2 
	BYTE	W12
// 014   ----------------------------------------
	BYTE	PATT
	 POIN2	BloodyTears_2_012
// 015   ----------------------------------------
	BYTE		N06     Cn1   v112
	BYTE		N06     Bn2   v096
	BYTE	W12
	BYTE		        En1 
	BYTE		N06     Bn2 
	BYTE	W06
	BYTE		        Cn1   v112
	BYTE	W06
	BYTE		        Bn2   v096
	BYTE	W06
	BYTE		        Cn1   v112
	BYTE	W06
	BYTE		        En1   v096
	BYTE		N06     Gn2 
	BYTE	W12
	BYTE		        En1 
	BYTE	W06
	BYTE		N06   
	BYTE	W06
	BYTE		N12     Cn1   v112
	BYTE		N12     An2   v080
	BYTE	W12
	BYTE		        Cn1   v112
	BYTE		N12     Cs2   v080
	BYTE	W12
	BYTE		N06     En1   v096
	BYTE	W06
	BYTE		N06   
	BYTE	W06
	BYTE	GoTo
	 POIN2	BloodyTears_2_B1
BloodyTears_2_B2:
// 016   ----------------------------------------
	BYTE	FINE

//**************** Track 3 (Midi-Chn.3) ****************//

BloodyTears_3:
	BYTE	KEYSH   BloodyTears_key+0
BloodyTears_3_B1:
// 000   ----------------------------------------
	BYTE		VOICE   0
	BYTE		VOL     97*BloodyTears_mvl/mxv
	BYTE		PAN     c_v+24
	BYTE		BEND    c_v+0
	BYTE		N06     Bn4   v096
	BYTE	W06
	BYTE		        Bn4   v064
	BYTE	W06
	BYTE		        Fs5   v096
	BYTE	W06
	BYTE		        Fs5   v064
	BYTE	W06
	BYTE		        En5   v096
	BYTE	W06
	BYTE		        En5   v064
	BYTE	W06
	BYTE		        Dn5   v096
	BYTE	W06
	BYTE		        Dn5   v064
	BYTE	W06
	BYTE		        Cs5   v096
	BYTE	W06
	BYTE		        Cs5   v064
	BYTE	W06
	BYTE		        Dn5   v096
	BYTE	W06
	BYTE		        Dn5   v064
	BYTE	W06
	BYTE		        Cs5   v096
	BYTE	W06
	BYTE		        Cs5   v064
	BYTE	W06
	BYTE		        Bn4   v096
	BYTE	W06
	BYTE		        Bn4   v064
	BYTE	W06
// 001   ----------------------------------------
BloodyTears_3_001:
	BYTE		N06     Cs5   v096
	BYTE	W06
	BYTE		        Cs5   v064
	BYTE	W06
	BYTE		        Dn5   v096
	BYTE	W06
	BYTE		        Dn5   v064
	BYTE	W06
	BYTE		        En5   v096
	BYTE	W06
	BYTE		        En5   v064
	BYTE	W06
	BYTE		        Dn5   v096
	BYTE	W06
	BYTE		        Dn5   v064
	BYTE	W06
	BYTE		        Cs5   v096
	BYTE	W06
	BYTE		        Cs5   v064
	BYTE	W06
	BYTE		        An4   v096
	BYTE	W06
	BYTE		        An4   v064
	BYTE	W06
	BYTE		        Cs5   v096
	BYTE	W06
	BYTE		        Cs5   v064
	BYTE	W06
	BYTE		        Bn4   v096
	BYTE	W06
	BYTE		        Bn4   v064
	BYTE	W06
	BYTE	PEND
// 002   ----------------------------------------
	BYTE		        Bn4   v096
	BYTE	W06
	BYTE		        Bn4   v064
	BYTE	W06
	BYTE		        Fs5   v096
	BYTE	W06
	BYTE		        Fs5   v064
	BYTE	W06
	BYTE		        En5   v096
	BYTE	W06
	BYTE		        En5   v064
	BYTE	W06
	BYTE		        Dn5   v096
	BYTE	W06
	BYTE		        Dn5   v064
	BYTE	W06
	BYTE		        Cs5   v096
	BYTE	W06
	BYTE		        Cs5   v064
	BYTE	W06
	BYTE		        Dn5   v096
	BYTE	W06
	BYTE		        Dn5   v064
	BYTE	W06
	BYTE		        Cs5   v096
	BYTE	W06
	BYTE		        Cs5   v064
	BYTE	W06
	BYTE		        Bn4   v096
	BYTE	W06
	BYTE		        Bn4   v064
	BYTE	W06
// 003   ----------------------------------------
	BYTE	PATT
	 POIN2	BloodyTears_3_001
// 004   ----------------------------------------
BloodyTears_3_004:
	BYTE	W30
	BYTE		N06     Cs4   v127
	BYTE	W06
	BYTE		        Bn3 
	BYTE	W06
	BYTE		        Cs4 
	BYTE	W06
	BYTE		N12     Dn4 
	BYTE	W12
	BYTE		        En4 
	BYTE	W12
	BYTE		N24     Fs4 
	BYTE	W24
	BYTE	PEND
// 005   ----------------------------------------
	BYTE	W96
// 006   ----------------------------------------
BloodyTears_3_006:
	BYTE	W30
	BYTE		N06     En4   v127
	BYTE	W06
	BYTE		        Dn4 
	BYTE	W06
	BYTE		        En4 
	BYTE	W06
	BYTE		N12     Fs4 
	BYTE	W12
	BYTE		        Gn4 
	BYTE	W12
	BYTE		        An4 
	BYTE	W12
	BYTE		        Bn4 
	BYTE	W12
	BYTE	PEND
// 007   ----------------------------------------
	BYTE	W96
// 008   ----------------------------------------
	BYTE	PATT
	 POIN2	BloodyTears_3_004
// 009   ----------------------------------------
	BYTE	W96
// 010   ----------------------------------------
	BYTE	PATT
	 POIN2	BloodyTears_3_006
// 011   ----------------------------------------
	BYTE	W96
// 012   ----------------------------------------
	BYTE	W96
// 013   ----------------------------------------
	BYTE	W96
// 014   ----------------------------------------
	BYTE	W96
// 015   ----------------------------------------
	BYTE	W96
	BYTE	GoTo
	 POIN2	BloodyTears_3_B1
BloodyTears_3_B2:
// 016   ----------------------------------------
	BYTE	FINE

//**************** Track 4 (Midi-Chn.5) ****************//

BloodyTears_4:
	BYTE	KEYSH   BloodyTears_key+0
BloodyTears_4_B1:
// 000   ----------------------------------------
	BYTE		VOICE   33
	BYTE		VOL     90*BloodyTears_mvl/mxv
	BYTE		PAN     c_v+0
	BYTE		BEND    c_v+0
	BYTE		N96     Bn0   v096
	BYTE	W96
// 001   ----------------------------------------
BloodyTears_4_001:
	BYTE		N48     Gn0   v096
	BYTE	W48
	BYTE		        An0 
	BYTE	W48
	BYTE	PEND
// 002   ----------------------------------------
	BYTE		N96     Gs0 
	BYTE	W96
// 003   ----------------------------------------
	BYTE	PATT
	 POIN2	BloodyTears_4_001
// 004   ----------------------------------------
BloodyTears_4_004:
	BYTE		N12     Bn0   v096
	BYTE	W12
	BYTE		N03   
	BYTE	W06
	BYTE		N12   
	BYTE	W12
	BYTE		N03   
	BYTE	W06
	BYTE		N12   
	BYTE	W12
	BYTE		N03   
	BYTE	W06
	BYTE		N03   
	BYTE	W06
	BYTE		N12   
	BYTE	W12
	BYTE		N03   
	BYTE	W06
	BYTE		N03   
	BYTE	W06
	BYTE		N12   
	BYTE	W12
	BYTE	PEND
// 005   ----------------------------------------
BloodyTears_4_005:
	BYTE		N12     An0   v096
	BYTE	W12
	BYTE		N03   
	BYTE	W06
	BYTE		N12   
	BYTE	W12
	BYTE		N03   
	BYTE	W06
	BYTE		N12   
	BYTE	W12
	BYTE		N03   
	BYTE	W06
	BYTE		N03   
	BYTE	W06
	BYTE		N12   
	BYTE	W12
	BYTE		N03   
	BYTE	W06
	BYTE		N03   
	BYTE	W06
	BYTE		N12   
	BYTE	W12
	BYTE	PEND
// 006   ----------------------------------------
BloodyTears_4_006:
	BYTE		N12     Gn0   v096
	BYTE	W12
	BYTE		N03   
	BYTE	W06
	BYTE		N12   
	BYTE	W12
	BYTE		N03   
	BYTE	W06
	BYTE		N12   
	BYTE	W12
	BYTE		N03   
	BYTE	W06
	BYTE		N03   
	BYTE	W06
	BYTE		N12   
	BYTE	W12
	BYTE		N03   
	BYTE	W06
	BYTE		N03   
	BYTE	W06
	BYTE		N12   
	BYTE	W12
	BYTE	PEND
// 007   ----------------------------------------
	BYTE		        Fs0 
	BYTE	W12
	BYTE		N03   
	BYTE	W06
	BYTE		N12   
	BYTE	W12
	BYTE		N03   
	BYTE	W06
	BYTE		N12   
	BYTE	W12
	BYTE		N03   
	BYTE	W06
	BYTE		N03   
	BYTE	W06
	BYTE		N12   
	BYTE	W12
	BYTE		N03   
	BYTE	W06
	BYTE		N03   
	BYTE	W06
	BYTE		N12   
	BYTE	W12
// 008   ----------------------------------------
	BYTE	PATT
	 POIN2	BloodyTears_4_004
// 009   ----------------------------------------
	BYTE	PATT
	 POIN2	BloodyTears_4_005
// 010   ----------------------------------------
	BYTE	PATT
	 POIN2	BloodyTears_4_006
// 011   ----------------------------------------
	BYTE		N12     Fs0   v096
	BYTE	W12
	BYTE		N03   
	BYTE	W06
	BYTE		N12   
	BYTE	W12
	BYTE		N03   
	BYTE	W06
	BYTE		N12   
	BYTE	W12
	BYTE		N12   
	BYTE	W12
	BYTE		        Gs0 
	BYTE	W12
	BYTE		        As0 
	BYTE	W12
	BYTE		        Cs1 
	BYTE	W12
// 012   ----------------------------------------
BloodyTears_4_012:
	BYTE		N12     Bn0   v096
	BYTE	W12
	BYTE		N03   
	BYTE	W06
	BYTE		N12   
	BYTE	W12
	BYTE		N03   
	BYTE	W06
	BYTE		N12   
	BYTE	W12
	BYTE		        An0 
	BYTE	W12
	BYTE		N03   
	BYTE	W06
	BYTE		N12   
	BYTE	W12
	BYTE		N03   
	BYTE	W06
	BYTE		N12   
	BYTE	W12
	BYTE	PEND
// 013   ----------------------------------------
BloodyTears_4_013:
	BYTE		N12     Gn0   v096
	BYTE	W12
	BYTE		N03   
	BYTE	W06
	BYTE		N12   
	BYTE	W12
	BYTE		N03   
	BYTE	W06
	BYTE		N12   
	BYTE	W12
	BYTE		        Fs0 
	BYTE	W12
	BYTE		N03   
	BYTE	W06
	BYTE		N12   
	BYTE	W12
	BYTE		N03   
	BYTE	W06
	BYTE		N12   
	BYTE	W12
	BYTE	PEND
// 014   ----------------------------------------
	BYTE	PATT
	 POIN2	BloodyTears_4_012
// 015   ----------------------------------------
	BYTE	PATT
	 POIN2	BloodyTears_4_013
	BYTE	GoTo
	 POIN2	BloodyTears_4_B1
BloodyTears_4_B2:
// 016   ----------------------------------------
	BYTE	FINE

//**************** Track 5 (Midi-Chn.7) ****************//

BloodyTears_5:
	BYTE	KEYSH   BloodyTears_key+0
BloodyTears_5_B1:
// 000   ----------------------------------------
	BYTE		VOICE   34
	BYTE		VOL     90*BloodyTears_mvl/mxv
	BYTE		PAN     c_v+0
	BYTE		BEND    c_v+0
	BYTE		N96     Bn1   v096
	BYTE	W96
// 001   ----------------------------------------
BloodyTears_5_001:
	BYTE		N48     Gn1   v096
	BYTE	W48
	BYTE		        An1 
	BYTE	W48
	BYTE	PEND
// 002   ----------------------------------------
	BYTE		N96     Gs1 
	BYTE	W96
// 003   ----------------------------------------
	BYTE	PATT
	 POIN2	BloodyTears_5_001
// 004   ----------------------------------------
BloodyTears_5_004:
	BYTE		N12     Bn1   v096
	BYTE	W12
	BYTE		N03   
	BYTE	W06
	BYTE		N12   
	BYTE	W12
	BYTE		N03   
	BYTE	W06
	BYTE		N12   
	BYTE	W12
	BYTE		N03   
	BYTE	W06
	BYTE		N03   
	BYTE	W06
	BYTE		N12   
	BYTE	W12
	BYTE		N03   
	BYTE	W06
	BYTE		N03   
	BYTE	W06
	BYTE		N12   
	BYTE	W12
	BYTE	PEND
// 005   ----------------------------------------
BloodyTears_5_005:
	BYTE		N12     An1   v096
	BYTE	W12
	BYTE		N03   
	BYTE	W06
	BYTE		N12   
	BYTE	W12
	BYTE		N03   
	BYTE	W06
	BYTE		N12   
	BYTE	W12
	BYTE		N03   
	BYTE	W06
	BYTE		N03   
	BYTE	W06
	BYTE		N12   
	BYTE	W12
	BYTE		N03   
	BYTE	W06
	BYTE		N03   
	BYTE	W06
	BYTE		N12   
	BYTE	W12
	BYTE	PEND
// 006   ----------------------------------------
BloodyTears_5_006:
	BYTE		N12     Gn1   v096
	BYTE	W12
	BYTE		N03   
	BYTE	W06
	BYTE		N12   
	BYTE	W12
	BYTE		N03   
	BYTE	W06
	BYTE		N12   
	BYTE	W12
	BYTE		N03   
	BYTE	W06
	BYTE		N03   
	BYTE	W06
	BYTE		N12   
	BYTE	W12
	BYTE		N03   
	BYTE	W06
	BYTE		N03   
	BYTE	W06
	BYTE		N12   
	BYTE	W12
	BYTE	PEND
// 007   ----------------------------------------
	BYTE		        Fs1 
	BYTE	W12
	BYTE		N03   
	BYTE	W06
	BYTE		N12   
	BYTE	W12
	BYTE		N03   
	BYTE	W06
	BYTE		N12   
	BYTE	W12
	BYTE		N03   
	BYTE	W06
	BYTE		N03   
	BYTE	W06
	BYTE		N12   
	BYTE	W12
	BYTE		N03   
	BYTE	W06
	BYTE		N03   
	BYTE	W06
	BYTE		N12   
	BYTE	W12
// 008   ----------------------------------------
	BYTE	PATT
	 POIN2	BloodyTears_5_004
// 009   ----------------------------------------
	BYTE	PATT
	 POIN2	BloodyTears_5_005
// 010   ----------------------------------------
	BYTE	PATT
	 POIN2	BloodyTears_5_006
// 011   ----------------------------------------
	BYTE		N12     Fs1   v096
	BYTE	W12
	BYTE		N03   
	BYTE	W06
	BYTE		N12   
	BYTE	W12
	BYTE		N03   
	BYTE	W06
	BYTE		N12   
	BYTE	W12
	BYTE		N12   
	BYTE	W12
	BYTE		        Gs1 
	BYTE	W12
	BYTE		        As1 
	BYTE	W12
	BYTE		        Cs2 
	BYTE	W12
// 012   ----------------------------------------
BloodyTears_5_012:
	BYTE		N12     Bn1   v096
	BYTE	W12
	BYTE		N03   
	BYTE	W06
	BYTE		N12   
	BYTE	W12
	BYTE		N03   
	BYTE	W06
	BYTE		N12   
	BYTE	W12
	BYTE		        An1 
	BYTE	W12
	BYTE		N03   
	BYTE	W06
	BYTE		N12   
	BYTE	W12
	BYTE		N03   
	BYTE	W06
	BYTE		N12   
	BYTE	W12
	BYTE	PEND
// 013   ----------------------------------------
BloodyTears_5_013:
	BYTE		N12     Gn1   v096
	BYTE	W12
	BYTE		N03   
	BYTE	W06
	BYTE		N12   
	BYTE	W12
	BYTE		N03   
	BYTE	W06
	BYTE		N12   
	BYTE	W12
	BYTE		        Fs1 
	BYTE	W12
	BYTE		N03   
	BYTE	W06
	BYTE		N12   
	BYTE	W12
	BYTE		N03   
	BYTE	W06
	BYTE		N12   
	BYTE	W12
	BYTE	PEND
// 014   ----------------------------------------
	BYTE	PATT
	 POIN2	BloodyTears_5_012
// 015   ----------------------------------------
	BYTE	PATT
	 POIN2	BloodyTears_5_013
	BYTE	GoTo
	 POIN2	BloodyTears_5_B1
BloodyTears_5_B2:
// 016   ----------------------------------------
	BYTE	FINE

//**************** Track 6 (Midi-Chn.9) ****************//

BloodyTears_6:
	BYTE	KEYSH   BloodyTears_key+0
BloodyTears_6_B1:
// 000   ----------------------------------------
	BYTE		VOICE   0
	BYTE		VOL     95*BloodyTears_mvl/mxv
	BYTE		PAN     c_v-24
	BYTE		BEND    c_v+0
	BYTE		N06     Bn3   v096
	BYTE	W06
	BYTE		        Bn3   v064
	BYTE	W06
	BYTE		        Fs4   v096
	BYTE	W06
	BYTE		        Fs4   v064
	BYTE	W06
	BYTE		        En4   v096
	BYTE	W06
	BYTE		        En4   v064
	BYTE	W06
	BYTE		        Dn4   v096
	BYTE	W06
	BYTE		        Dn4   v064
	BYTE	W06
	BYTE		        Cs4   v096
	BYTE	W06
	BYTE		        Cs4   v064
	BYTE	W06
	BYTE		        Dn4   v096
	BYTE	W06
	BYTE		        Dn4   v064
	BYTE	W06
	BYTE		        Cs4   v096
	BYTE	W06
	BYTE		        Cs4   v064
	BYTE	W06
	BYTE		        Bn3   v096
	BYTE	W06
	BYTE		        Bn3   v064
	BYTE	W06
// 001   ----------------------------------------
BloodyTears_6_001:
	BYTE		N06     Cs4   v096
	BYTE	W06
	BYTE		        Cs4   v064
	BYTE	W06
	BYTE		        Dn4   v096
	BYTE	W06
	BYTE		        Dn4   v064
	BYTE	W06
	BYTE		        En4   v096
	BYTE	W06
	BYTE		        En4   v064
	BYTE	W06
	BYTE		        Dn4   v096
	BYTE	W06
	BYTE		        Dn4   v064
	BYTE	W06
	BYTE		        Cs4   v096
	BYTE	W06
	BYTE		        Cs4   v064
	BYTE	W06
	BYTE		        An3   v096
	BYTE	W06
	BYTE		        An3   v064
	BYTE	W06
	BYTE		        Cs4   v096
	BYTE	W06
	BYTE		        Cs4   v064
	BYTE	W06
	BYTE		        Bn3   v096
	BYTE	W06
	BYTE		        Bn3   v064
	BYTE	W06
	BYTE	PEND
// 002   ----------------------------------------
	BYTE		        Bn3   v096
	BYTE	W06
	BYTE		        Bn3   v064
	BYTE	W06
	BYTE		        Fs4   v096
	BYTE	W06
	BYTE		        Fs4   v064
	BYTE	W06
	BYTE		        En4   v096
	BYTE	W06
	BYTE		        En4   v064
	BYTE	W06
	BYTE		        Dn4   v096
	BYTE	W06
	BYTE		        Dn4   v064
	BYTE	W06
	BYTE		        Cs4   v096
	BYTE	W06
	BYTE		        Cs4   v064
	BYTE	W06
	BYTE		        Dn4   v096
	BYTE	W06
	BYTE		        Dn4   v064
	BYTE	W06
	BYTE		        Cs4   v096
	BYTE	W06
	BYTE		        Cs4   v064
	BYTE	W06
	BYTE		        Bn3   v096
	BYTE	W06
	BYTE		        Bn3   v064
	BYTE	W06
// 003   ----------------------------------------
	BYTE	PATT
	 POIN2	BloodyTears_6_001
// 004   ----------------------------------------
BloodyTears_6_004:
	BYTE	W30
	BYTE		N06     Cs3   v127
	BYTE	W06
	BYTE		        Bn2 
	BYTE	W06
	BYTE		        Cs3 
	BYTE	W06
	BYTE		N12     Dn3 
	BYTE	W12
	BYTE		        En3 
	BYTE	W12
	BYTE		N24     Fs3 
	BYTE	W24
	BYTE	PEND
// 005   ----------------------------------------
	BYTE	W96
// 006   ----------------------------------------
BloodyTears_6_006:
	BYTE	W30
	BYTE		N06     En3   v127
	BYTE	W06
	BYTE		        Dn3 
	BYTE	W06
	BYTE		        En3 
	BYTE	W06
	BYTE		N12     Fs3 
	BYTE	W12
	BYTE		        Gn3 
	BYTE	W12
	BYTE		        An3 
	BYTE	W12
	BYTE		        Bn3 
	BYTE	W12
	BYTE	PEND
// 007   ----------------------------------------
	BYTE	W96
// 008   ----------------------------------------
	BYTE	PATT
	 POIN2	BloodyTears_6_004
// 009   ----------------------------------------
	BYTE	W96
// 010   ----------------------------------------
	BYTE	PATT
	 POIN2	BloodyTears_6_006
// 011   ----------------------------------------
	BYTE	W96
// 012   ----------------------------------------
	BYTE	W96
// 013   ----------------------------------------
	BYTE	W96
// 014   ----------------------------------------
	BYTE	W96
// 015   ----------------------------------------
	BYTE	W96
	BYTE	GoTo
	 POIN2	BloodyTears_6_B1
BloodyTears_6_B2:
// 016   ----------------------------------------
	BYTE	FINE

//**************** Track 7 (Midi-Chn.12) ****************//

BloodyTears_7:
	BYTE	KEYSH   BloodyTears_key+0
BloodyTears_7_B1:
// 000   ----------------------------------------
	BYTE		VOICE   48
	BYTE		PAN     c_v+9
	BYTE		VOL     101*BloodyTears_mvl/mxv
	BYTE		BEND    c_v+0
	BYTE		N96     Bn1   v096
	BYTE		N96     Bn2 
	BYTE	W96
// 001   ----------------------------------------
BloodyTears_7_001:
	BYTE		N48     Gn1   v096
	BYTE		N48     Gn2 
	BYTE	W48
	BYTE		        An1 
	BYTE		N48     An2 
	BYTE	W48
	BYTE	PEND
// 002   ----------------------------------------
	BYTE		N96     Gs1 
	BYTE		N96     Gs2 
	BYTE	W96
// 003   ----------------------------------------
	BYTE	PATT
	 POIN2	BloodyTears_7_001
// 004   ----------------------------------------
BloodyTears_7_004:
	BYTE		N12     Cs4   v096
	BYTE		N12     En4 
	BYTE	W12
	BYTE		N06   
	BYTE		N06     An4 
	BYTE	W06
	BYTE		N54     Dn4 
	BYTE		N54     Fs4 
	BYTE	W54
	BYTE		N12     Cs4 
	BYTE		N12     En4 
	BYTE	W12
	BYTE		        Bn3 
	BYTE		N12     Dn4 
	BYTE	W12
	BYTE	PEND
// 005   ----------------------------------------
BloodyTears_7_005:
	BYTE		N18     Cs4   v096
	BYTE		N18     En4 
	BYTE	W18
	BYTE		N18   
	BYTE		N18     An4 
	BYTE	W18
	BYTE		N36     Dn4 
	BYTE		N36     Fs4 
	BYTE	W36
	BYTE		N12     Cs4 
	BYTE		N12     En4 
	BYTE	W12
	BYTE		        Bn3 
	BYTE		N12     Dn4 
	BYTE	W12
	BYTE	PEND
// 006   ----------------------------------------
BloodyTears_7_006:
	BYTE		N12     Cs4   v096
	BYTE		N12     En4 
	BYTE	W12
	BYTE		N06   
	BYTE		N06     An4 
	BYTE	W06
	BYTE		N54     Dn4 
	BYTE		N54     Fs4 
	BYTE	W54
	BYTE		N12     Cs4 
	BYTE		N12     En4 
	BYTE	W12
	BYTE		        Dn4 
	BYTE		N12     Fs4 
	BYTE	W12
	BYTE	PEND
// 007   ----------------------------------------
	BYTE		N18     Cs4 
	BYTE		N18     Gn4 
	BYTE	W18
	BYTE		N30     Cs4 
	BYTE		N30     An4 
	BYTE	W30
	BYTE		N18     Bn3 
	BYTE		N18     Fs4 
	BYTE	W18
	BYTE		N30     Bn3 
	BYTE		N30     Gn4 
	BYTE	W30
// 008   ----------------------------------------
	BYTE	PATT
	 POIN2	BloodyTears_7_004
// 009   ----------------------------------------
	BYTE	PATT
	 POIN2	BloodyTears_7_005
// 010   ----------------------------------------
	BYTE	PATT
	 POIN2	BloodyTears_7_006
// 011   ----------------------------------------
	BYTE		N18     Cs4   v096
	BYTE		N18     Gn4 
	BYTE	W18
	BYTE		N30     Cs4 
	BYTE		N30     An4 
	BYTE	W30
	BYTE		N12     As3 
	BYTE		N12     Fs4 
	BYTE	W12
	BYTE		        Bn3 
	BYTE		N12     Gs4 
	BYTE	W12
	BYTE		        Cs4 
	BYTE		N12     As4 
	BYTE	W12
	BYTE		        En4 
	BYTE		N12     Cs5 
	BYTE	W12
// 012   ----------------------------------------
	BYTE		N18     En3 
	BYTE		N18     Cs4 
	BYTE	W18
	BYTE		        Dn3 
	BYTE		N18     Bn3 
	BYTE	W18
	BYTE		N12     Dn4 
	BYTE		N12     Bn4 
	BYTE	W12
	BYTE		N18     En3 
	BYTE		N18     Cs4 
	BYTE	W18
	BYTE		        Dn3 
	BYTE		N18     Bn3 
	BYTE	W18
	BYTE		N12     Dn4 
	BYTE		N12     Bn4 
	BYTE	W12
// 013   ----------------------------------------
	BYTE		N18     En3 
	BYTE		N18     Cs4 
	BYTE	W18
	BYTE		        Dn3 
	BYTE		N18     Bn3 
	BYTE	W18
	BYTE		N12     Dn4 
	BYTE		N12     Bn4 
	BYTE	W12
	BYTE		N06     Dn3 
	BYTE		N06     Dn4 
	BYTE	W06
	BYTE		N06   
	BYTE		N06     Dn5 
	BYTE	W06
	BYTE		        Cs3 
	BYTE		N06     Cs4 
	BYTE	W06
	BYTE		N06   
	BYTE		N06     Cs5 
	BYTE	W06
	BYTE		        Bn2 
	BYTE		N06     Bn3 
	BYTE	W06
	BYTE		N06   
	BYTE		N06     Bn4 
	BYTE	W06
	BYTE		        An2 
	BYTE		N06     An3 
	BYTE	W06
	BYTE		N06   
	BYTE		N06     An4 
	BYTE	W06
// 014   ----------------------------------------
	BYTE		N12     En3 
	BYTE		N12     Cs4 
	BYTE	W12
	BYTE		N06     Dn3 
	BYTE		N06     Bn3 
	BYTE	W06
	BYTE		N30     Dn4 
	BYTE		N30     Bn4 
	BYTE	W30
	BYTE		N12     En3 
	BYTE		N12     Cs4 
	BYTE	W12
	BYTE		N06     Dn3 
	BYTE		N06     Bn3 
	BYTE	W06
	BYTE		N30     Dn4 
	BYTE		N30     Bn4 
	BYTE	W30
// 015   ----------------------------------------
	BYTE		N12     En3 
	BYTE		N12     Cs4 
	BYTE	W12
	BYTE		N06     Dn3 
	BYTE		N06     Bn3 
	BYTE	W06
	BYTE		N30     Dn4 
	BYTE		N30     Bn4 
	BYTE	W30
	BYTE		N12     Dn4 
	BYTE		N12     Dn5 
	BYTE	W12
	BYTE		        En4 
	BYTE		N12     En5 
	BYTE	W12
	BYTE		N06     Cs4 
	BYTE		N06     Cs5 
	BYTE	W06
	BYTE		N18     Dn4 
	BYTE		N18     Dn5 
	BYTE	W18
	BYTE	GoTo
	 POIN2	BloodyTears_7_B1
BloodyTears_7_B2:
// 016   ----------------------------------------
	BYTE	FINE

//**************** Track 8 (Midi-Chn.14) ****************//

BloodyTears_8:
	BYTE	KEYSH   BloodyTears_key+0
BloodyTears_8_B1:
// 000   ----------------------------------------
	BYTE		VOICE   30
	BYTE		PAN     c_v-9
	BYTE		VOL     81*BloodyTears_mvl/mxv
	BYTE		BEND    c_v+0
	BYTE		N96     Bn1   v080
	BYTE		N96     Fs2 
	BYTE		N96     Bn2 
	BYTE	W96
// 001   ----------------------------------------
BloodyTears_8_001:
	BYTE		N48     Gn1   v080
	BYTE		N48     Dn2 
	BYTE		N48     Gn2 
	BYTE	W48
	BYTE		        An1 
	BYTE		N48     En2 
	BYTE		N48     An2 
	BYTE	W48
	BYTE	PEND
// 002   ----------------------------------------
	BYTE		N96     Gs1 
	BYTE		N96     Ds2 
	BYTE		N96     Gs2 
	BYTE	W96
// 003   ----------------------------------------
	BYTE	PATT
	 POIN2	BloodyTears_8_001
// 004   ----------------------------------------
BloodyTears_8_004:
	BYTE		N12     Bn1   v080
	BYTE		N12     Fs2 
	BYTE		N12     Bn2 
	BYTE	W12
	BYTE		N03     Bn1 
	BYTE		N03     Fs2 
	BYTE	W06
	BYTE		N12     Bn1 
	BYTE		N12     Fs2 
	BYTE		N12     Bn2 
	BYTE	W12
	BYTE		N03     Bn1 
	BYTE		N03     Fs2 
	BYTE	W06
	BYTE		N12     Bn1 
	BYTE		N12     Fs2 
	BYTE		N12     Bn2 
	BYTE	W12
	BYTE		N03     Bn1 
	BYTE		N03     Fs2 
	BYTE	W06
	BYTE		        Bn1 
	BYTE		N03     Fs2 
	BYTE	W06
	BYTE		N12     Bn1 
	BYTE		N12     Fs2 
	BYTE		N12     Bn2 
	BYTE	W12
	BYTE		N03     Bn1 
	BYTE		N03     Fs2 
	BYTE	W06
	BYTE		        Bn1 
	BYTE		N03     Fs2 
	BYTE	W06
	BYTE		N12     Bn1 
	BYTE		N12     Fs2 
	BYTE		N12     Bn2 
	BYTE	W12
	BYTE	PEND
// 005   ----------------------------------------
BloodyTears_8_005:
	BYTE		N12     An1   v080
	BYTE		N12     En2 
	BYTE		N12     An2 
	BYTE	W12
	BYTE		N03     An1 
	BYTE		N03     En2 
	BYTE	W06
	BYTE		N12     An1 
	BYTE		N12     En2 
	BYTE		N12     An2 
	BYTE	W12
	BYTE		N03     An1 
	BYTE		N03     En2 
	BYTE	W06
	BYTE		N12     An1 
	BYTE		N12     En2 
	BYTE		N12     An2 
	BYTE	W12
	BYTE		N03     An1 
	BYTE		N03     En2 
	BYTE	W06
	BYTE		        An1 
	BYTE		N03     En2 
	BYTE	W06
	BYTE		N12     An1 
	BYTE		N12     En2 
	BYTE		N12     An2 
	BYTE	W12
	BYTE		N03     An1 
	BYTE		N03     En2 
	BYTE	W06
	BYTE		        An1 
	BYTE		N03     En2 
	BYTE	W06
	BYTE		N12     An1 
	BYTE		N12     En2 
	BYTE		N12     An2 
	BYTE	W12
	BYTE	PEND
// 006   ----------------------------------------
BloodyTears_8_006:
	BYTE		N12     Gn1   v080
	BYTE		N12     Dn2 
	BYTE		N12     Gn2 
	BYTE	W12
	BYTE		N03     Gn1 
	BYTE		N03     Dn2 
	BYTE	W06
	BYTE		N12     Gn1 
	BYTE		N12     Dn2 
	BYTE		N12     Gn2 
	BYTE	W12
	BYTE		N03     Gn1 
	BYTE		N03     Dn2 
	BYTE	W06
	BYTE		N12     Gn1 
	BYTE		N12     Dn2 
	BYTE		N12     Gn2 
	BYTE	W12
	BYTE		N03     Gn1 
	BYTE		N03     Dn2 
	BYTE	W06
	BYTE		        Gn1 
	BYTE		N03     Dn2 
	BYTE	W06
	BYTE		N12     Gn1 
	BYTE		N12     Dn2 
	BYTE		N12     Gn2 
	BYTE	W12
	BYTE		N03     Gn1 
	BYTE		N03     Dn2 
	BYTE	W06
	BYTE		        Gn1 
	BYTE		N03     Dn2 
	BYTE	W06
	BYTE		N12     Gn1 
	BYTE		N12     Dn2 
	BYTE		N12     Gn2 
	BYTE	W12
	BYTE	PEND
// 007   ----------------------------------------
	BYTE		        Fs1 
	BYTE		N12     Cs2 
	BYTE		N12     Fs2 
	BYTE	W12
	BYTE		N03     Fs1 
	BYTE		N03     Cs2 
	BYTE	W06
	BYTE		N12     Fs1 
	BYTE		N12     Cs2 
	BYTE		N12     Fs2 
	BYTE	W12
	BYTE		N03     Fs1 
	BYTE		N03     Cs2 
	BYTE	W06
	BYTE		N12     Fs1 
	BYTE		N12     Cs2 
	BYTE		N12     Fs2 
	BYTE	W12
	BYTE		N03     Fs1 
	BYTE		N03     Cs2 
	BYTE	W06
	BYTE		        Fs1 
	BYTE		N03     Cs2 
	BYTE	W06
	BYTE		N12     Fs1 
	BYTE		N12     Cs2 
	BYTE		N12     Fs2 
	BYTE	W12
	BYTE		N03     Fs1 
	BYTE		N03     Cs2 
	BYTE	W06
	BYTE		        Fs1 
	BYTE		N03     Cs2 
	BYTE	W06
	BYTE		N12     Fs1 
	BYTE		N12     Cs2 
	BYTE		N12     Fs2 
	BYTE	W12
// 008   ----------------------------------------
	BYTE	PATT
	 POIN2	BloodyTears_8_004
// 009   ----------------------------------------
	BYTE	PATT
	 POIN2	BloodyTears_8_005
// 010   ----------------------------------------
	BYTE	PATT
	 POIN2	BloodyTears_8_006
// 011   ----------------------------------------
	BYTE		N12     Fs1   v080
	BYTE		N12     Cs2 
	BYTE		N12     Fs2 
	BYTE	W12
	BYTE		N03     Fs1 
	BYTE		N03     Cs2 
	BYTE	W06
	BYTE		N12     Fs1 
	BYTE		N12     Cs2 
	BYTE		N12     Fs2 
	BYTE	W12
	BYTE		N03     Fs1 
	BYTE		N03     Cs2 
	BYTE	W06
	BYTE		N12     Fs1 
	BYTE		N12     Cs2 
	BYTE		N12     Fs2 
	BYTE	W12
	BYTE		        Fs1 
	BYTE		N12     Cs2 
	BYTE		N12     Fs2 
	BYTE	W12
	BYTE		        Gs1 
	BYTE		N12     Ds2 
	BYTE		N12     Gs2 
	BYTE	W12
	BYTE		        As1 
	BYTE		N12     Fn2 
	BYTE		N12     As2 
	BYTE	W12
	BYTE		        Cs2 
	BYTE		N12     Gs2 
	BYTE		N12     Cs3 
	BYTE	W12
// 012   ----------------------------------------
BloodyTears_8_012:
	BYTE		N12     Bn1   v080
	BYTE		N12     Fs2 
	BYTE		N12     Bn2 
	BYTE	W12
	BYTE		N03     Bn1 
	BYTE		N03     Fs2 
	BYTE	W06
	BYTE		N12     Bn1 
	BYTE		N12     Fs2 
	BYTE		N12     Bn2 
	BYTE	W12
	BYTE		N03     Bn1 
	BYTE		N03     Fs2 
	BYTE	W06
	BYTE		N12     Bn1 
	BYTE		N12     Fs2 
	BYTE		N12     Bn2 
	BYTE	W12
	BYTE		        An1 
	BYTE		N12     En2 
	BYTE		N12     An2 
	BYTE	W12
	BYTE		N03     An1 
	BYTE		N03     En2 
	BYTE	W06
	BYTE		N12     An1 
	BYTE		N12     En2 
	BYTE		N12     An2 
	BYTE	W12
	BYTE		N03     An1 
	BYTE		N03     En2 
	BYTE	W06
	BYTE		N12     An1 
	BYTE		N12     En2 
	BYTE		N12     An2 
	BYTE	W12
	BYTE	PEND
// 013   ----------------------------------------
BloodyTears_8_013:
	BYTE		N12     Gn1   v080
	BYTE		N12     Dn2 
	BYTE		N12     Gn2 
	BYTE	W12
	BYTE		N03     Gn1 
	BYTE		N03     Dn2 
	BYTE	W06
	BYTE		N12     Gn1 
	BYTE		N12     Dn2 
	BYTE		N12     Gn2 
	BYTE	W12
	BYTE		N03     Gn1 
	BYTE		N03     Dn2 
	BYTE	W06
	BYTE		N12     Gn1 
	BYTE		N12     Dn2 
	BYTE		N12     Gn2 
	BYTE	W12
	BYTE		        An1 
	BYTE		N12     En2 
	BYTE		N12     An2 
	BYTE	W12
	BYTE		N03     An1 
	BYTE		N03     En2 
	BYTE	W06
	BYTE		N12     An1 
	BYTE		N12     En2 
	BYTE		N12     An2 
	BYTE	W12
	BYTE		N03     An1 
	BYTE		N03     En2 
	BYTE	W06
	BYTE		N12     An1 
	BYTE		N12     En2 
	BYTE		N12     An2 
	BYTE	W12
	BYTE	PEND
// 014   ----------------------------------------
	BYTE	PATT
	 POIN2	BloodyTears_8_012
// 015   ----------------------------------------
	BYTE	PATT
	 POIN2	BloodyTears_8_013
	BYTE	GoTo
	 POIN2	BloodyTears_8_B1
BloodyTears_8_B2:
// 016   ----------------------------------------
	BYTE	FINE

//******************************************************//
	ALIGN 4

songBloodyTears:
	BYTE	8	// NumTrks
	BYTE	0	// NumBlks
	BYTE	BloodyTears_pri	// Priority
	BYTE	BloodyTears_rev	// Reverb.

	POIN2	BloodyTears_grp

	POIN2	BloodyTears_1
	POIN2	BloodyTears_2
	POIN2	BloodyTears_3
	POIN2	BloodyTears_4
	POIN2	BloodyTears_5
	POIN2	BloodyTears_6
	POIN2	BloodyTears_7
	POIN2	BloodyTears_8

	
