//Event file generated from Sappy .s format.
	#include "MPlayDef.event"

	#define	CasinoNightZone_grp  voicegroup000
	#define	CasinoNightZone_pri  0
	#define	CasinoNightZone_rev  0
	#define	CasinoNightZone_mvl  85
	#define	CasinoNightZone_key  0
	#define	CasinoNightZone_tbs  1
	#define	CasinoNightZone_exg  0
	#define	CasinoNightZone_cmp  1

	// .rodata
	//	CasinoNightZone
	ALIGN 4

//**************** Track 1 (Midi-Chn.1) ****************//

CasinoNightZone_1:
	BYTE	KEYSH   CasinoNightZone_key+0
// 000   ----------------------------------------
	BYTE	TEMPO   170*CasinoNightZone_tbs/2
	BYTE		VOICE   61
	BYTE		VOL     72*CasinoNightZone_mvl/mxv
	BYTE	W96
CasinoNightZone_1_B1:
// 001   ----------------------------------------
	BYTE	W24
	BYTE		N44     Cn4   v064
	BYTE		N44     Ds4   v080
	BYTE	W48
	BYTE		N07     Gn3   v064
	BYTE		N07     Cn4   v080
	BYTE	W24
// 002   ----------------------------------------
	BYTE		N15     Ds4   v064
	BYTE		N15     Fs4   v080
	BYTE	W16
	BYTE		N07     Dn4   v064
	BYTE		N07     Fn4   v080
	BYTE	W24
	BYTE		        Cn4   v064
	BYTE		N07     Ds4   v080
	BYTE	W24
	BYTE		N23     Gn3   v064
	BYTE		N23     Cn4   v080
	BYTE	W32
// 003   ----------------------------------------
	BYTE	W24
	BYTE		N07     Dn3   v064
	BYTE		N07     Gn3   v080
	BYTE	W24
	BYTE		N15     Fn3   v064
	BYTE		N15     As3   v080
	BYTE	W16
	BYTE		N07     Ds3   v064
	BYTE		N07     Gs3   v080
	BYTE	W24
	BYTE		        Dn3   v064
	BYTE		N07     Gn3   v080
	BYTE	W08
// 004   ----------------------------------------
	BYTE	W48
	BYTE		N15     An2   v064
	BYTE		N15     En3   v080
	BYTE	W24
	BYTE		        Bn2   v064
	BYTE		N15     En3   v080
	BYTE	W24
// 005   ----------------------------------------
CasinoNightZone_1_005:
	BYTE		N92     Cn3   v064
	BYTE		N92     En3   v080
	BYTE	W96
	BYTE	PEND
// 006   ----------------------------------------
CasinoNightZone_1_006:
	BYTE	W24
	BYTE		N15     Cn3   v064
	BYTE		N15     En3   v080
	BYTE	W24
	BYTE		        Dn3   v064
	BYTE		N15     Fn3   v080
	BYTE	W16
	BYTE		N30     Cn3   v064
	BYTE		N30     En3   v080
	BYTE	W32
	BYTE	PEND
// 007   ----------------------------------------
CasinoNightZone_1_007:
	BYTE		N15     En3   v064
	BYTE		N15     Gs3   v080
	BYTE	W16
	BYTE		N07     En3   v064
	BYTE		N07     Gs3   v080
	BYTE	W24
	BYTE		TIE     Bn2   v064
	BYTE		TIE     En3   v080
	BYTE	W56
	BYTE	PEND
// 008   ----------------------------------------
	BYTE	W44
	BYTE	W03
	BYTE		EOT     Bn2 
	BYTE		        En3 
	BYTE	W24
	BYTE	W01
	BYTE		N23     Bn2   v064
	BYTE		N23     En3   v080
	BYTE	W24
// 009   ----------------------------------------
CasinoNightZone_1_009:
	BYTE		N15     En3   v064
	BYTE		N15     An3   v080
	BYTE	W16
	BYTE		N07     En3   v064
	BYTE		N07     An3   v080
	BYTE	W24
	BYTE		        Cn3   v064
	BYTE		N07     En3   v080
	BYTE	W08
	BYTE		N68     An2   v064
	BYTE		N68     Cn3   v080
	BYTE	W48
	BYTE	PEND
// 010   ----------------------------------------
	BYTE	W48
	BYTE		N15     An2   v064
	BYTE		N15     Cn3   v080
	BYTE	W24
	BYTE		        Bn2   v064
	BYTE		N15     Dn3   v080
	BYTE	W16
	BYTE		N07     An2   v064
	BYTE		N07     Cn3   v080
	BYTE	W08
// 011   ----------------------------------------
CasinoNightZone_1_011:
	BYTE		N23     Cn3   v064
	BYTE		N23     Ds3   v080
	BYTE	W24
	BYTE		N15     As2   v064
	BYTE		N15     Dn3   v080
	BYTE	W16
	BYTE		TIE     Gs2   v064
	BYTE		TIE     Cn3   v080
	BYTE	W56
	BYTE	PEND
// 012   ----------------------------------------
	BYTE	W92
	BYTE	W03
	BYTE		EOT     Gs2 
	BYTE		        Cn3 
	BYTE	W01
// 013   ----------------------------------------
CasinoNightZone_1_013:
	BYTE	W24
	BYTE		N15     Cn3   v064
	BYTE		N15     En3   v080
	BYTE	W24
	BYTE		        Dn3   v064
	BYTE		N15     Fn3   v080
	BYTE	W24
	BYTE		        Cn3   v064
	BYTE		N15     En3   v080
	BYTE	W24
	BYTE	PEND
// 014   ----------------------------------------
CasinoNightZone_1_014:
	BYTE		N15     En3   v064
	BYTE		N15     Gs3   v080
	BYTE	W16
	BYTE		N07     En3   v064
	BYTE		N07     Gs3   v080
	BYTE	W24
	BYTE		N54     Bn2   v064
	BYTE		N54     En3   v080
	BYTE	W56
	BYTE	PEND
// 015   ----------------------------------------
CasinoNightZone_1_015:
	BYTE	W24
	BYTE		N44     En3   v064
	BYTE		N44     An3   v080
	BYTE	W48
	BYTE		N15     Gn3   v064
	BYTE		N15     Bn3   v080
	BYTE	W16
	BYTE		N07     En3   v064
	BYTE		N07     An3   v080
	BYTE	W08
	BYTE	PEND
// 016   ----------------------------------------
CasinoNightZone_1_016:
	BYTE		N44     An3   v064
	BYTE		N44     Cn4   v080
	BYTE	W72
	BYTE		N07     Fn3   v064
	BYTE		N07     An3   v080
	BYTE	W24
	BYTE	PEND
// 017   ----------------------------------------
CasinoNightZone_1_017:
	BYTE		N44     En3   v064
	BYTE		N44     Gn3   v080
	BYTE	W48
	BYTE		        Cn3   v064
	BYTE		N44     En3   v080
	BYTE	W48
	BYTE	PEND
// 018   ----------------------------------------
	BYTE		        An2   v064
	BYTE		N44     Cn3   v080
	BYTE	W48
	BYTE		        Bn2   v064
	BYTE		N44     Dn3   v080
	BYTE	W48
// 019   ----------------------------------------
	BYTE		        Cn3   v064
	BYTE		N44     Ds3   v080
	BYTE	W48
	BYTE		N15     Dn3   v064
	BYTE		N15     Fn3   v080
	BYTE	W16
	BYTE		N07     Cn3   v064
	BYTE		N07     Ds3   v080
	BYTE	W08
	BYTE		N15     Dn3   v064
	BYTE		N15     Fn3   v080
	BYTE	W16
	BYTE		N07     Dn3   v064
	BYTE		N07     Gn3   v080
	BYTE	W08
// 020   ----------------------------------------
	BYTE	W64
	BYTE		        Dn2   v064
	BYTE		N07     Gn2   v080
	BYTE	W08
	BYTE		N15     En2   v064
	BYTE		N15     An2   v080
	BYTE	W16
	BYTE		N07     Gn2   v064
	BYTE		N07     Cn3   v080
	BYTE	W08
// 021   ----------------------------------------
	BYTE	PATT
	 POIN2	CasinoNightZone_1_005
// 022   ----------------------------------------
	BYTE	PATT
	 POIN2	CasinoNightZone_1_006
// 023   ----------------------------------------
	BYTE	PATT
	 POIN2	CasinoNightZone_1_007
// 024   ----------------------------------------
	BYTE	W44
	BYTE	W03
	BYTE		EOT     Bn2 
	BYTE		        En3 
	BYTE	W24
	BYTE	W01
	BYTE		N23     Bn2   v064
	BYTE		N23     En3   v080
	BYTE	W24
// 025   ----------------------------------------
	BYTE	PATT
	 POIN2	CasinoNightZone_1_009
// 026   ----------------------------------------
	BYTE	W48
	BYTE		N23     An2   v064
	BYTE		N23     Cn3   v080
	BYTE	W24
	BYTE		N15     Bn2   v064
	BYTE		N15     Dn3   v080
	BYTE	W16
	BYTE		N07     An2   v064
	BYTE		N07     Cn3   v080
	BYTE	W08
// 027   ----------------------------------------
	BYTE	PATT
	 POIN2	CasinoNightZone_1_011
// 028   ----------------------------------------
	BYTE	W92
	BYTE	W03
	BYTE		EOT     Gs2 
	BYTE		        Cn3 
	BYTE	W01
// 029   ----------------------------------------
	BYTE	PATT
	 POIN2	CasinoNightZone_1_013
// 030   ----------------------------------------
	BYTE	PATT
	 POIN2	CasinoNightZone_1_014
// 031   ----------------------------------------
	BYTE	PATT
	 POIN2	CasinoNightZone_1_015
// 032   ----------------------------------------
	BYTE	PATT
	 POIN2	CasinoNightZone_1_016
// 033   ----------------------------------------
	BYTE	PATT
	 POIN2	CasinoNightZone_1_017
// 034   ----------------------------------------
	BYTE		N44     An2   v064
	BYTE		N44     Cn3   v080
	BYTE	W48
	BYTE		N23     Bn2   v064
	BYTE		N23     Dn3   v080
	BYTE	W24
	BYTE		N07     Fn3   v064
	BYTE		N07     An3   v080
	BYTE	W24
// 035   ----------------------------------------
	BYTE		N44     En3   v040
	BYTE		N44     Gn3   v056
	BYTE	W48
	BYTE		        Cn3   v040
	BYTE		N44     En3   v056
	BYTE	W48
// 036   ----------------------------------------
	BYTE		        An2   v040
	BYTE		N44     Cn3   v056
	BYTE	W48
	BYTE		N23     Bn2   v040
	BYTE		N23     Dn3   v056
	BYTE	W24
	BYTE		N07     Fn3   v064
	BYTE		N07     An3   v080
	BYTE	W24
// 037   ----------------------------------------
	BYTE	PATT
	 POIN2	CasinoNightZone_1_017
// 038   ----------------------------------------
	BYTE		N44     An2   v064
	BYTE		N44     Cn3   v080
	BYTE	W48
	BYTE		N36     Fn2   v064
	BYTE		N36     Dn3   v080
	BYTE	W40
	BYTE		N07     En2   v064
	BYTE		N07     Cn3   v080
	BYTE	W08
// 039   ----------------------------------------
	BYTE	W96
// 040   ----------------------------------------
	BYTE	W96
	BYTE	GoTo
	 POIN2	CasinoNightZone_1_B1
CasinoNightZone_1_B2:
// 041   ----------------------------------------
	BYTE	FINE

//**************** Track 2 (Midi-Chn.2) ****************//

CasinoNightZone_2:
	BYTE	KEYSH   CasinoNightZone_key+0
// 000   ----------------------------------------
	BYTE		VOICE   4
	BYTE		VOL     50*CasinoNightZone_mvl/mxv
	BYTE	W96
CasinoNightZone_2_B1:
// 001   ----------------------------------------
CasinoNightZone_2_001:
	BYTE	W24
	BYTE		N15     Ds3   v072
	BYTE		N15     Gn3 
	BYTE	W48
	BYTE		        Ds3 
	BYTE		N15     Gn3 
	BYTE	W24
	BYTE	PEND
// 002   ----------------------------------------
	BYTE	PATT
	 POIN2	CasinoNightZone_2_001
// 003   ----------------------------------------
	BYTE	W24
	BYTE		N07     Dn3   v072
	BYTE		N07     Fn3 
	BYTE	W24
	BYTE		N15     Dn3 
	BYTE		N15     Fn3 
	BYTE	W16
	BYTE		N07     Dn3 
	BYTE		N07     Fn3 
	BYTE	W24
	BYTE		        Dn3 
	BYTE		N07     Fn3 
	BYTE	W08
// 004   ----------------------------------------
	BYTE	W96
// 005   ----------------------------------------
CasinoNightZone_2_005:
	BYTE	W24
	BYTE		N07     En2   v072
	BYTE		N07     Gn2 
	BYTE	W40
	BYTE		        En2 
	BYTE		N07     Gn2 
	BYTE	W32
	BYTE	PEND
// 006   ----------------------------------------
	BYTE		N23     En2 
	BYTE		N23     Gn2 
	BYTE	W40
	BYTE		        En2 
	BYTE		N23     Gn2 
	BYTE	W32
	BYTE		N15     En2 
	BYTE		N15     Gn2 
	BYTE	W16
	BYTE		N07     En2 
	BYTE		N07     Gn2 
	BYTE	W08
// 007   ----------------------------------------
	BYTE	W24
	BYTE		        En2 
	BYTE		N07     Gs2 
	BYTE	W40
	BYTE		        En2 
	BYTE		N07     Gs2 
	BYTE	W32
// 008   ----------------------------------------
CasinoNightZone_2_008:
	BYTE		N23     En2   v072
	BYTE		N23     Gs2 
	BYTE	W40
	BYTE		        En2 
	BYTE		N23     Gs2 
	BYTE	W32
	BYTE		N15     En2 
	BYTE		N15     Gs2 
	BYTE	W16
	BYTE		N07     En2 
	BYTE		N07     Gs2 
	BYTE	W08
	BYTE	PEND
// 009   ----------------------------------------
CasinoNightZone_2_009:
	BYTE	W24
	BYTE		N07     En2   v072
	BYTE		N07     An2 
	BYTE	W40
	BYTE		        En2 
	BYTE		N07     An2 
	BYTE	W32
	BYTE	PEND
// 010   ----------------------------------------
	BYTE		N23     En2 
	BYTE		N23     An2 
	BYTE	W40
	BYTE		        En2 
	BYTE		N23     An2 
	BYTE	W32
	BYTE		N15     En2 
	BYTE		N15     An2 
	BYTE	W16
	BYTE		N07     En2 
	BYTE		N07     An2 
	BYTE	W08
// 011   ----------------------------------------
	BYTE	W24
	BYTE		        Ds2 
	BYTE		N07     Gs2 
	BYTE	W40
	BYTE		        Ds2 
	BYTE		N07     Gs2 
	BYTE	W32
// 012   ----------------------------------------
	BYTE		N23     Ds2 
	BYTE		N23     Gs2 
	BYTE	W40
	BYTE		        Ds2 
	BYTE		N23     Gs2 
	BYTE	W32
	BYTE		N15     Ds2 
	BYTE		N15     Gs2 
	BYTE	W16
	BYTE		N07     Ds2 
	BYTE		N07     Gs2 
	BYTE	W08
// 013   ----------------------------------------
	BYTE	PATT
	 POIN2	CasinoNightZone_2_005
// 014   ----------------------------------------
	BYTE	PATT
	 POIN2	CasinoNightZone_2_008
// 015   ----------------------------------------
	BYTE	PATT
	 POIN2	CasinoNightZone_2_009
// 016   ----------------------------------------
	BYTE		N23     Fn2   v072
	BYTE		N23     An2 
	BYTE	W40
	BYTE		        Fn2 
	BYTE		N23     An2 
	BYTE	W32
	BYTE		N15     Fn2 
	BYTE		N15     An2 
	BYTE	W16
	BYTE		N07     Fn2 
	BYTE		N07     An2 
	BYTE	W08
// 017   ----------------------------------------
	BYTE	W24
	BYTE		N23     En2 
	BYTE		N23     Gn2 
	BYTE	W48
	BYTE		        En2 
	BYTE		N23     Gn2 
	BYTE	W24
// 018   ----------------------------------------
	BYTE	W24
	BYTE		        Fn2 
	BYTE		N23     An2 
	BYTE	W48
	BYTE		        Fn2 
	BYTE		N23     An2 
	BYTE	W24
// 019   ----------------------------------------
	BYTE		N44     Gs2 
	BYTE		N44     Cn3 
	BYTE	W48
	BYTE		N23     Gs2 
	BYTE		N23     Cn3 
	BYTE	W24
	BYTE		N15     Gs2 
	BYTE		N15     Cn3 
	BYTE	W16
	BYTE		N07     Gn2 
	BYTE		N07     Bn2 
	BYTE	W08
// 020   ----------------------------------------
	BYTE	W96
// 021   ----------------------------------------
	BYTE	W96
// 022   ----------------------------------------
	BYTE	W96
// 023   ----------------------------------------
	BYTE	W96
// 024   ----------------------------------------
	BYTE	W96
// 025   ----------------------------------------
	BYTE	W96
// 026   ----------------------------------------
	BYTE	W96
// 027   ----------------------------------------
	BYTE	W96
// 028   ----------------------------------------
	BYTE	W96
// 029   ----------------------------------------
	BYTE	W96
// 030   ----------------------------------------
	BYTE	W96
// 031   ----------------------------------------
	BYTE	W96
// 032   ----------------------------------------
	BYTE	W96
// 033   ----------------------------------------
	BYTE	W96
// 034   ----------------------------------------
	BYTE	W96
// 035   ----------------------------------------
	BYTE	W96
// 036   ----------------------------------------
	BYTE	W96
// 037   ----------------------------------------
	BYTE	W96
// 038   ----------------------------------------
	BYTE	W96
// 039   ----------------------------------------
	BYTE	W96
// 040   ----------------------------------------
	BYTE	W96
	BYTE	GoTo
	 POIN2	CasinoNightZone_2_B1
CasinoNightZone_2_B2:
// 041   ----------------------------------------
	BYTE	FINE

//**************** Track 3 (Midi-Chn.3) ****************//

CasinoNightZone_3:
	BYTE	KEYSH   CasinoNightZone_key+0
// 000   ----------------------------------------
	BYTE		VOICE   28
	BYTE		VOL     60*CasinoNightZone_mvl/mxv
	BYTE	W96
CasinoNightZone_3_B1:
// 001   ----------------------------------------
	BYTE	W24
	BYTE		N44     Gn3   v056
	BYTE		N44     Ds4 
	BYTE	W48
	BYTE		N07     Ds3 
	BYTE		N07     Cn4 
	BYTE	W24
// 002   ----------------------------------------
	BYTE		N15     An3 
	BYTE		N15     Fs4 
	BYTE	W16
	BYTE		N07     Gs3 
	BYTE		N07     Fn4 
	BYTE	W24
	BYTE		        Gn3 
	BYTE		N07     Ds4 
	BYTE	W24
	BYTE		N23     Ds3 
	BYTE		N23     Cn4 
	BYTE	W32
// 003   ----------------------------------------
	BYTE	W24
	BYTE		N07     Bn2 
	BYTE		N07     Gn3 
	BYTE	W24
	BYTE		N15     Dn3 
	BYTE		N15     As3 
	BYTE	W16
	BYTE		N07     Cn3 
	BYTE		N07     Gs3 
	BYTE	W24
	BYTE		        Bn2 
	BYTE		N07     Gn3 
	BYTE	W08
// 004   ----------------------------------------
	BYTE	W96
// 005   ----------------------------------------
CasinoNightZone_3_005:
	BYTE	W24
	BYTE		N07     En3   v056
	BYTE		N07     Gn3 
	BYTE	W40
	BYTE		        En3 
	BYTE		N07     Gn3 
	BYTE	W32
	BYTE	PEND
// 006   ----------------------------------------
	BYTE		N23     En3 
	BYTE		N23     Gn3 
	BYTE	W40
	BYTE		        En3 
	BYTE		N23     Gn3 
	BYTE	W32
	BYTE		N15     En3 
	BYTE		N15     Gn3 
	BYTE	W16
	BYTE		N07     En3 
	BYTE		N07     Gn3 
	BYTE	W08
// 007   ----------------------------------------
	BYTE	W24
	BYTE		        En3 
	BYTE		N07     Gs3 
	BYTE	W40
	BYTE		        En3 
	BYTE		N07     Gs3 
	BYTE	W32
// 008   ----------------------------------------
CasinoNightZone_3_008:
	BYTE		N23     En3   v056
	BYTE		N23     Gs3 
	BYTE	W40
	BYTE		        En3 
	BYTE		N23     Gs3 
	BYTE	W32
	BYTE		N15     En3 
	BYTE		N15     Gs3 
	BYTE	W16
	BYTE		N07     En3 
	BYTE		N07     Gs3 
	BYTE	W08
	BYTE	PEND
// 009   ----------------------------------------
CasinoNightZone_3_009:
	BYTE	W24
	BYTE		N07     En3   v056
	BYTE		N07     An3 
	BYTE	W40
	BYTE		        En3 
	BYTE		N07     An3 
	BYTE	W32
	BYTE	PEND
// 010   ----------------------------------------
	BYTE		N23     En3 
	BYTE		N23     An3 
	BYTE	W40
	BYTE		        En3 
	BYTE		N23     An3 
	BYTE	W32
	BYTE		N15     En3 
	BYTE		N15     An3 
	BYTE	W16
	BYTE		N07     En3 
	BYTE		N07     An3 
	BYTE	W08
// 011   ----------------------------------------
	BYTE	W24
	BYTE		        Ds3 
	BYTE		N07     Gs3 
	BYTE	W40
	BYTE		        Ds3 
	BYTE		N07     Gs3 
	BYTE	W32
// 012   ----------------------------------------
	BYTE		N23     Ds3 
	BYTE		N23     Gs3 
	BYTE	W40
	BYTE		        Ds3 
	BYTE		N23     Gs3 
	BYTE	W32
	BYTE		N15     Ds3 
	BYTE		N15     Gs3 
	BYTE	W16
	BYTE		N07     Ds3 
	BYTE		N07     Gs3 
	BYTE	W08
// 013   ----------------------------------------
	BYTE	PATT
	 POIN2	CasinoNightZone_3_005
// 014   ----------------------------------------
	BYTE	PATT
	 POIN2	CasinoNightZone_3_008
// 015   ----------------------------------------
	BYTE	PATT
	 POIN2	CasinoNightZone_3_009
// 016   ----------------------------------------
	BYTE		N23     Fn3   v056
	BYTE		N23     An3 
	BYTE	W40
	BYTE		        Fn3 
	BYTE		N23     An3 
	BYTE	W32
	BYTE		N15     Fn3 
	BYTE		N15     An3 
	BYTE	W16
	BYTE		N07     Fn3 
	BYTE		N07     An3 
	BYTE	W08
// 017   ----------------------------------------
CasinoNightZone_3_017:
	BYTE	W24
	BYTE		N23     En3   v056
	BYTE		N23     Gn3 
	BYTE	W48
	BYTE		        En3 
	BYTE		N23     Gn3 
	BYTE	W24
	BYTE	PEND
// 018   ----------------------------------------
CasinoNightZone_3_018:
	BYTE	W24
	BYTE		N23     Fn3   v056
	BYTE		N23     An3 
	BYTE	W48
	BYTE		        Fn3 
	BYTE		N23     An3 
	BYTE	W24
	BYTE	PEND
// 019   ----------------------------------------
	BYTE		N44     Gs3 
	BYTE		N44     Cn4 
	BYTE	W48
	BYTE		N23     Gs3 
	BYTE		N23     Cn4 
	BYTE	W24
	BYTE		N15     Gs3 
	BYTE		N15     Cn4 
	BYTE	W16
	BYTE		N07     Gn3 
	BYTE		N07     Bn3 
	BYTE	W08
// 020   ----------------------------------------
	BYTE	W96
// 021   ----------------------------------------
	BYTE	W24
	BYTE		        Cn3 
	BYTE		N07     En3 
	BYTE	W40
	BYTE		        Cn3 
	BYTE		N07     En3 
	BYTE	W32
// 022   ----------------------------------------
	BYTE		N23     Cn3 
	BYTE		N23     En3 
	BYTE	W24
	BYTE		N15     Dn3 
	BYTE		N15     Fn3 
	BYTE	W16
	BYTE		N07     Cn3 
	BYTE		N07     En3 
	BYTE	W56
// 023   ----------------------------------------
	BYTE	W24
	BYTE		        Bn2 
	BYTE		N07     Dn3 
	BYTE	W40
	BYTE		        Bn2 
	BYTE		N07     Dn3 
	BYTE	W32
// 024   ----------------------------------------
	BYTE		N23     Bn2 
	BYTE		N23     Dn3 
	BYTE	W24
	BYTE		N15     Cn3 
	BYTE		N15     En3 
	BYTE	W16
	BYTE		N07     Bn2 
	BYTE		N07     Dn3 
	BYTE	W56
// 025   ----------------------------------------
	BYTE	W24
	BYTE		        An2 
	BYTE		N07     Cn3 
	BYTE	W40
	BYTE		        An2 
	BYTE		N07     Cn3 
	BYTE	W32
// 026   ----------------------------------------
	BYTE		N23     An2 
	BYTE		N23     Cn3 
	BYTE	W24
	BYTE		N15     Bn2 
	BYTE		N15     Dn3 
	BYTE	W16
	BYTE		N07     An2 
	BYTE		N07     Cn3 
	BYTE	W56
// 027   ----------------------------------------
	BYTE	W24
	BYTE		        Gs2 
	BYTE		N07     Cn3 
	BYTE	W40
	BYTE		        Gs2 
	BYTE		N07     Cn3 
	BYTE	W32
// 028   ----------------------------------------
	BYTE		N23     Gs2 
	BYTE		N23     Cn3 
	BYTE	W24
	BYTE		N15     As2 
	BYTE		N15     Dn3 
	BYTE	W16
	BYTE		N07     Gs2 
	BYTE		N07     Cn3 
	BYTE	W56
// 029   ----------------------------------------
	BYTE		N92   
	BYTE		N92     En3 
	BYTE	W96
// 030   ----------------------------------------
	BYTE		N44     Bn2 
	BYTE		N44     Dn3 
	BYTE	W48
	BYTE		N23     Cn3 
	BYTE		N23     En3 
	BYTE	W24
	BYTE		        Bn2 
	BYTE		N23     Dn3 
	BYTE	W24
// 031   ----------------------------------------
	BYTE		N92     An2 
	BYTE		N92     Cn3 
	BYTE	W96
// 032   ----------------------------------------
	BYTE		N92   
	BYTE		N92     Fn3 
	BYTE	W96
// 033   ----------------------------------------
	BYTE	PATT
	 POIN2	CasinoNightZone_3_017
// 034   ----------------------------------------
	BYTE	PATT
	 POIN2	CasinoNightZone_3_018
// 035   ----------------------------------------
	BYTE		N44     Gn4   v040
	BYTE	W24
	BYTE		N23     Cn3 
	BYTE	W24
	BYTE		N44     En4 
	BYTE	W24
	BYTE		N23     Cn3 
	BYTE	W24
// 036   ----------------------------------------
	BYTE		N44     Cn4 
	BYTE	W24
	BYTE		N23     Cn3 
	BYTE	W24
	BYTE		        Dn4 
	BYTE	W24
	BYTE		        Cn3 
	BYTE	W24
// 037   ----------------------------------------
	BYTE	W24
	BYTE		        Cn3   v056
	BYTE		N23     Gn3 
	BYTE	W48
	BYTE		        Cn3 
	BYTE		N23     Gn3 
	BYTE	W24
// 038   ----------------------------------------
	BYTE	W24
	BYTE		N60     Cn3 
	BYTE		N60     An3 
	BYTE	W64
	BYTE		N07     Cn3 
	BYTE		N07     Gn3 
	BYTE	W08
// 039   ----------------------------------------
	BYTE	W96
// 040   ----------------------------------------
	BYTE	W96
	BYTE	GoTo
	 POIN2	CasinoNightZone_3_B1
CasinoNightZone_3_B2:
// 041   ----------------------------------------
	BYTE	FINE

//**************** Track 4 (Midi-Chn.4) ****************//

CasinoNightZone_4:
	BYTE	KEYSH   CasinoNightZone_key+0
// 000   ----------------------------------------
	BYTE		VOICE   34
	BYTE		VOL     64*CasinoNightZone_mvl/mxv
	BYTE	W96
CasinoNightZone_4_B1:
// 001   ----------------------------------------
CasinoNightZone_4_001:
	BYTE		N23     Cn3   v096
	BYTE	W24
	BYTE		        Cn2 
	BYTE	W24
	BYTE		        Cn3 
	BYTE	W24
	BYTE		        Cn2 
	BYTE	W24
	BYTE	PEND
// 002   ----------------------------------------
	BYTE	PATT
	 POIN2	CasinoNightZone_4_001
// 003   ----------------------------------------
	BYTE	W24
	BYTE		N15     Gn1   v096
	BYTE	W24
	BYTE		        As1 
	BYTE	W16
	BYTE		        Gs1 
	BYTE	W24
	BYTE		N07     Gn1 
	BYTE	W08
// 004   ----------------------------------------
	BYTE	W16
	BYTE		        Gn2 
	BYTE	W08
	BYTE		N23     Gn1 
	BYTE	W24
	BYTE		        An1 
	BYTE	W24
	BYTE		        Bn1 
	BYTE	W24
// 005   ----------------------------------------
	BYTE		        Cn2 
	BYTE	W24
	BYTE		        Bn1 
	BYTE	W24
	BYTE		        An1 
	BYTE	W24
	BYTE		        Gn1 
	BYTE	W24
// 006   ----------------------------------------
	BYTE		        Cn2 
	BYTE	W24
	BYTE		        Gn1 
	BYTE	W24
	BYTE		        Cn2 
	BYTE	W24
	BYTE		        Dn2 
	BYTE	W24
// 007   ----------------------------------------
	BYTE		        En2 
	BYTE	W24
	BYTE		        Dn2 
	BYTE	W24
	BYTE		        Cn2 
	BYTE	W24
	BYTE		        Bn1 
	BYTE	W24
// 008   ----------------------------------------
	BYTE		        En1 
	BYTE	W24
	BYTE		        Fs1 
	BYTE	W24
	BYTE		        Gs1 
	BYTE	W24
	BYTE		        En1 
	BYTE	W24
// 009   ----------------------------------------
	BYTE		        An1 
	BYTE	W24
	BYTE		N23   
	BYTE	W24
	BYTE		        En2 
	BYTE	W24
	BYTE		N23   
	BYTE	W24
// 010   ----------------------------------------
CasinoNightZone_4_010:
	BYTE		N23     An1   v096
	BYTE	W24
	BYTE		        Bn1 
	BYTE	W24
	BYTE		        Cn2 
	BYTE	W24
	BYTE		        En2 
	BYTE	W24
	BYTE	PEND
// 011   ----------------------------------------
	BYTE		        Gs1 
	BYTE	W24
	BYTE		        As1 
	BYTE	W24
	BYTE		        Cn2 
	BYTE	W24
	BYTE		        Dn2 
	BYTE	W24
// 012   ----------------------------------------
	BYTE		N15     Ds2 
	BYTE	W16
	BYTE		N07   
	BYTE	W08
	BYTE		N23     Gs1 
	BYTE	W24
	BYTE		        Cn2 
	BYTE	W24
	BYTE		        Gs1 
	BYTE	W24
// 013   ----------------------------------------
	BYTE		        Cn2 
	BYTE	W24
	BYTE		N23   
	BYTE	W24
	BYTE		        Dn2 
	BYTE	W24
	BYTE		        Ds2 
	BYTE	W24
// 014   ----------------------------------------
	BYTE		N15     En2 
	BYTE	W16
	BYTE		N07   
	BYTE	W08
	BYTE		N23     En1 
	BYTE	W24
	BYTE		        Fs1 
	BYTE	W24
	BYTE		        Gs1 
	BYTE	W24
// 015   ----------------------------------------
	BYTE		        An1 
	BYTE	W24
	BYTE		N23   
	BYTE	W24
	BYTE		        Gn1 
	BYTE	W24
	BYTE		N23   
	BYTE	W24
// 016   ----------------------------------------
	BYTE		        Fn1 
	BYTE	W24
	BYTE		        Cn2 
	BYTE	W24
	BYTE		        Fn1 
	BYTE	W24
	BYTE		        An1 
	BYTE	W24
// 017   ----------------------------------------
CasinoNightZone_4_017:
	BYTE	W24
	BYTE		N23     Cn2   v096
	BYTE	W48
	BYTE		N23   
	BYTE	W24
	BYTE	PEND
// 018   ----------------------------------------
CasinoNightZone_4_018:
	BYTE	W24
	BYTE		N23     Fn2   v096
	BYTE	W48
	BYTE		N23   
	BYTE	W24
	BYTE	PEND
// 019   ----------------------------------------
	BYTE		        Gs1 
	BYTE	W48
	BYTE		N23   
	BYTE	W40
	BYTE		        Gn1 
	BYTE	W08
// 020   ----------------------------------------
	BYTE	W16
	BYTE		N07     Gn2 
	BYTE	W08
	BYTE		N23     Fn2 
	BYTE	W24
	BYTE		N15     En2 
	BYTE	W16
	BYTE		N07     Cn2 
	BYTE	W08
	BYTE		N15     Dn2 
	BYTE	W16
	BYTE		N07     Cn2 
	BYTE	W08
// 021   ----------------------------------------
	BYTE		N15   
	BYTE	W16
	BYTE		N07   
	BYTE	W08
	BYTE		N23     En1 
	BYTE	W24
	BYTE		        Fn1 
	BYTE	W24
	BYTE		        Fs1 
	BYTE	W24
// 022   ----------------------------------------
	BYTE		        Gn1 
	BYTE	W24
	BYTE		        Cn2 
	BYTE	W24
	BYTE		N23   
	BYTE	W24
	BYTE		        Dn2 
	BYTE	W24
// 023   ----------------------------------------
	BYTE		        En2 
	BYTE	W24
	BYTE		        Bn1 
	BYTE	W24
	BYTE		        Gs1 
	BYTE	W24
	BYTE		        Fs1 
	BYTE	W24
// 024   ----------------------------------------
	BYTE		        En1 
	BYTE	W24
	BYTE		        Bn1 
	BYTE	W24
	BYTE		        En2 
	BYTE	W24
	BYTE		        En1 
	BYTE	W24
// 025   ----------------------------------------
	BYTE		        An1 
	BYTE	W24
	BYTE		        Bn1 
	BYTE	W24
	BYTE		        Cn2 
	BYTE	W24
	BYTE		        Bn1 
	BYTE	W24
// 026   ----------------------------------------
	BYTE		        An1 
	BYTE	W24
	BYTE		        Cn2 
	BYTE	W24
	BYTE		        En2 
	BYTE	W24
	BYTE		        An1 
	BYTE	W24
// 027   ----------------------------------------
	BYTE		        Gs1 
	BYTE	W24
	BYTE		        As1 
	BYTE	W24
	BYTE		        Cn2 
	BYTE	W24
	BYTE		        As1 
	BYTE	W24
// 028   ----------------------------------------
	BYTE		        Gs1 
	BYTE	W24
	BYTE		        An1 
	BYTE	W24
	BYTE		        As1 
	BYTE	W24
	BYTE		        Bn1 
	BYTE	W24
// 029   ----------------------------------------
	BYTE		        Cn2 
	BYTE	W24
	BYTE		        Bn1 
	BYTE	W24
	BYTE		        Cn2 
	BYTE	W24
	BYTE		        Dn2 
	BYTE	W24
// 030   ----------------------------------------
	BYTE		N15     En2 
	BYTE	W16
	BYTE		N07   
	BYTE	W08
	BYTE		N23     Bn1 
	BYTE	W24
	BYTE		        En1 
	BYTE	W24
	BYTE		        Gs1 
	BYTE	W24
// 031   ----------------------------------------
	BYTE	PATT
	 POIN2	CasinoNightZone_4_010
// 032   ----------------------------------------
	BYTE		N15     Fn2   v096
	BYTE	W16
	BYTE		N30     An1 
	BYTE	W32
	BYTE		N23     As1 
	BYTE	W24
	BYTE		        Bn1 
	BYTE	W24
// 033   ----------------------------------------
	BYTE	PATT
	 POIN2	CasinoNightZone_4_017
// 034   ----------------------------------------
	BYTE	PATT
	 POIN2	CasinoNightZone_4_018
// 035   ----------------------------------------
	BYTE	W24
	BYTE		N23     Cn2   v080
	BYTE	W48
	BYTE		N23   
	BYTE	W24
// 036   ----------------------------------------
	BYTE	W24
	BYTE		        Fn2 
	BYTE	W48
	BYTE		N23   
	BYTE	W24
// 037   ----------------------------------------
	BYTE	PATT
	 POIN2	CasinoNightZone_4_017
// 038   ----------------------------------------
	BYTE	W24
	BYTE		N23     Fn2   v096
	BYTE	W48
	BYTE		N15   
	BYTE	W16
	BYTE		N07     Cn2 
	BYTE	W08
// 039   ----------------------------------------
	BYTE	W96
// 040   ----------------------------------------
	BYTE		N07   
	BYTE	W16
	BYTE		N07   
	BYTE	W08
	BYTE		N23     Bn1 
	BYTE	W24
	BYTE		        An1 
	BYTE	W24
	BYTE		        Gn1 
	BYTE	W24
	BYTE	GoTo
	 POIN2	CasinoNightZone_4_B1
CasinoNightZone_4_B2:
// 041   ----------------------------------------
	BYTE	FINE

//**************** Track 5 (Midi-Chn.5) ****************//

CasinoNightZone_5:
	BYTE	KEYSH   CasinoNightZone_key+0
// 000   ----------------------------------------
	BYTE		VOICE   59
	BYTE		VOL     70*CasinoNightZone_mvl/mxv
	BYTE	W96
CasinoNightZone_5_B1:
// 001   ----------------------------------------
	BYTE	W96
// 002   ----------------------------------------
	BYTE	W96
// 003   ----------------------------------------
	BYTE	W96
// 004   ----------------------------------------
	BYTE	W96
// 005   ----------------------------------------
	BYTE	W96
// 006   ----------------------------------------
	BYTE	W96
// 007   ----------------------------------------
	BYTE	W96
// 008   ----------------------------------------
	BYTE	W96
// 009   ----------------------------------------
	BYTE	W96
// 010   ----------------------------------------
	BYTE	W96
// 011   ----------------------------------------
	BYTE	W96
// 012   ----------------------------------------
	BYTE	W96
// 013   ----------------------------------------
	BYTE	W96
// 014   ----------------------------------------
	BYTE	W96
// 015   ----------------------------------------
	BYTE	W96
// 016   ----------------------------------------
	BYTE	W96
// 017   ----------------------------------------
	BYTE	W96
// 018   ----------------------------------------
	BYTE	W96
// 019   ----------------------------------------
	BYTE	W96
// 020   ----------------------------------------
	BYTE	W96
// 021   ----------------------------------------
	BYTE	W24
	BYTE		N07     Cn4   v056
	BYTE		N07     En4 
	BYTE	W40
	BYTE		        Cn4 
	BYTE		N07     En4 
	BYTE	W32
// 022   ----------------------------------------
	BYTE		N23     Cn4 
	BYTE		N23     En4 
	BYTE	W24
	BYTE		N15     Dn4 
	BYTE		N15     Fn4 
	BYTE	W16
	BYTE		N07     Cn4 
	BYTE		N07     En4 
	BYTE	W56
// 023   ----------------------------------------
	BYTE	W24
	BYTE		        Bn3 
	BYTE		N07     Dn4 
	BYTE	W40
	BYTE		        Bn3 
	BYTE		N07     Dn4 
	BYTE	W32
// 024   ----------------------------------------
	BYTE		N23     Bn3 
	BYTE		N23     Dn4 
	BYTE	W24
	BYTE		N15     Cn4 
	BYTE		N15     En4 
	BYTE	W16
	BYTE		N07     Bn3 
	BYTE		N07     Dn4 
	BYTE	W56
// 025   ----------------------------------------
	BYTE	W24
	BYTE		        An3 
	BYTE		N07     Cn4 
	BYTE	W40
	BYTE		        An3 
	BYTE		N07     Cn4 
	BYTE	W32
// 026   ----------------------------------------
	BYTE		N23     An3 
	BYTE		N23     Cn4 
	BYTE	W24
	BYTE		N15     Bn3 
	BYTE		N15     Dn4 
	BYTE	W16
	BYTE		N07     An3 
	BYTE		N07     Cn4 
	BYTE	W56
// 027   ----------------------------------------
	BYTE	W24
	BYTE		        Gs3 
	BYTE		N07     Cn4 
	BYTE	W40
	BYTE		        Gs3 
	BYTE		N07     Cn4 
	BYTE	W32
// 028   ----------------------------------------
	BYTE		N23     Gs3 
	BYTE		N23     Cn4 
	BYTE	W24
	BYTE		N15     As3 
	BYTE		N15     Dn4 
	BYTE	W16
	BYTE		N07     Gs3 
	BYTE		N07     Cn4 
	BYTE	W56
// 029   ----------------------------------------
	BYTE		N92   
	BYTE		N92     En4 
	BYTE	W96
// 030   ----------------------------------------
	BYTE		N44     Bn3 
	BYTE		N44     Dn4 
	BYTE	W48
	BYTE		N23     Cn4 
	BYTE		N23     En4 
	BYTE	W24
	BYTE		        Bn3 
	BYTE		N23     Dn4 
	BYTE	W24
// 031   ----------------------------------------
	BYTE		N92     An3 
	BYTE		N92     Cn4 
	BYTE	W96
// 032   ----------------------------------------
	BYTE		N92   
	BYTE		N92     Fn4 
	BYTE	W96
// 033   ----------------------------------------
CasinoNightZone_5_033:
	BYTE	W24
	BYTE		N23     En3   v056
	BYTE		N23     Gn3 
	BYTE	W48
	BYTE		        En3 
	BYTE		N23     Gn3 
	BYTE	W24
	BYTE	PEND
// 034   ----------------------------------------
	BYTE	W24
	BYTE		        Fn3 
	BYTE		N23     An3 
	BYTE	W48
	BYTE		        Fn3 
	BYTE		N23     An3 
	BYTE	W24
// 035   ----------------------------------------
	BYTE	W24
	BYTE		        En3   v040
	BYTE		N23     Gn3 
	BYTE	W48
	BYTE		        En3 
	BYTE		N23     Gn3 
	BYTE	W24
// 036   ----------------------------------------
	BYTE	W24
	BYTE		        Fn3 
	BYTE		N23     An3 
	BYTE	W48
	BYTE		        Fn3 
	BYTE		N23     An3 
	BYTE	W24
// 037   ----------------------------------------
	BYTE	PATT
	 POIN2	CasinoNightZone_5_033
// 038   ----------------------------------------
	BYTE	W24
	BYTE		N23     Fn3   v056
	BYTE		N23     An3 
	BYTE	W48
	BYTE		N15     Fn3 
	BYTE		N15     An3 
	BYTE	W16
	BYTE		N07     En3 
	BYTE		N07     Gn3 
	BYTE	W08
// 039   ----------------------------------------
	BYTE	W96
// 040   ----------------------------------------
	BYTE	W96
	BYTE	GoTo
	 POIN2	CasinoNightZone_5_B1
CasinoNightZone_5_B2:
// 041   ----------------------------------------
	BYTE	FINE

//**************** Track 6 (Midi-Chn.6) ****************//

CasinoNightZone_6:
	BYTE	KEYSH   CasinoNightZone_key+0
// 000   ----------------------------------------
	BYTE		VOICE   123
	BYTE		VOL     24*CasinoNightZone_mvl/mxv
	BYTE		N23     Cn1   v127
	BYTE	W24
	BYTE		N23   
	BYTE	W24
	BYTE		N15   
	BYTE	W16
	BYTE		N07     Dn1 
	BYTE	W08
	BYTE		N23   
	BYTE	W24
CasinoNightZone_6_B1:
// 001   ----------------------------------------
CasinoNightZone_6_001:
	BYTE		N23     Cn1   v127
	BYTE		N23     As1 
	BYTE	W24
	BYTE		        Dn1 
	BYTE		N15     Fs1 
	BYTE	W16
	BYTE		N07     As1 
	BYTE	W08
	BYTE		N23     Cn1 
	BYTE		N23     As1 
	BYTE	W24
	BYTE		        Dn1 
	BYTE		N15     Fs1 
	BYTE	W16
	BYTE		N07     As1 
	BYTE	W08
	BYTE	PEND
// 002   ----------------------------------------
	BYTE	PATT
	 POIN2	CasinoNightZone_6_001
// 003   ----------------------------------------
CasinoNightZone_6_003:
	BYTE		N23     Cn1   v127
	BYTE		N23     As1 
	BYTE	W24
	BYTE		        Dn1 
	BYTE		N15     Fs1 
	BYTE	W16
	BYTE		N07     As1 
	BYTE	W08
	BYTE		N15     Dn1 
	BYTE		N23     As1 
	BYTE	W16
	BYTE		        Dn1 
	BYTE	W08
	BYTE		N15     Fs1 
	BYTE	W16
	BYTE		N23     Dn1 
	BYTE		N07     As1 
	BYTE	W08
	BYTE	PEND
// 004   ----------------------------------------
CasinoNightZone_6_004:
	BYTE		N23     As1   v127
	BYTE	W16
	BYTE		N07     Cn1 
	BYTE	W08
	BYTE		N23   
	BYTE		N15     Fs1 
	BYTE	W16
	BYTE		N07     As1 
	BYTE	W08
	BYTE		N23     Cn1 
	BYTE		N15     As1 
	BYTE	W16
	BYTE		N07   
	BYTE	W08
	BYTE		N23     Dn1 
	BYTE		N15     As1 
	BYTE	W16
	BYTE		N07   
	BYTE	W08
	BYTE	PEND
// 005   ----------------------------------------
	BYTE	PATT
	 POIN2	CasinoNightZone_6_001
// 006   ----------------------------------------
	BYTE	PATT
	 POIN2	CasinoNightZone_6_001
// 007   ----------------------------------------
	BYTE	PATT
	 POIN2	CasinoNightZone_6_001
// 008   ----------------------------------------
	BYTE	PATT
	 POIN2	CasinoNightZone_6_001
// 009   ----------------------------------------
	BYTE	PATT
	 POIN2	CasinoNightZone_6_001
// 010   ----------------------------------------
	BYTE	PATT
	 POIN2	CasinoNightZone_6_001
// 011   ----------------------------------------
	BYTE	PATT
	 POIN2	CasinoNightZone_6_001
// 012   ----------------------------------------
	BYTE	PATT
	 POIN2	CasinoNightZone_6_001
// 013   ----------------------------------------
	BYTE	PATT
	 POIN2	CasinoNightZone_6_001
// 014   ----------------------------------------
	BYTE	PATT
	 POIN2	CasinoNightZone_6_001
// 015   ----------------------------------------
	BYTE	PATT
	 POIN2	CasinoNightZone_6_001
// 016   ----------------------------------------
	BYTE	PATT
	 POIN2	CasinoNightZone_6_001
// 017   ----------------------------------------
	BYTE	PATT
	 POIN2	CasinoNightZone_6_001
// 018   ----------------------------------------
	BYTE	PATT
	 POIN2	CasinoNightZone_6_001
// 019   ----------------------------------------
	BYTE	PATT
	 POIN2	CasinoNightZone_6_003
// 020   ----------------------------------------
	BYTE	PATT
	 POIN2	CasinoNightZone_6_004
// 021   ----------------------------------------
	BYTE	PATT
	 POIN2	CasinoNightZone_6_001
// 022   ----------------------------------------
	BYTE	PATT
	 POIN2	CasinoNightZone_6_001
// 023   ----------------------------------------
	BYTE	PATT
	 POIN2	CasinoNightZone_6_001
// 024   ----------------------------------------
	BYTE	PATT
	 POIN2	CasinoNightZone_6_001
// 025   ----------------------------------------
	BYTE	PATT
	 POIN2	CasinoNightZone_6_001
// 026   ----------------------------------------
	BYTE	PATT
	 POIN2	CasinoNightZone_6_001
// 027   ----------------------------------------
	BYTE	PATT
	 POIN2	CasinoNightZone_6_001
// 028   ----------------------------------------
	BYTE	PATT
	 POIN2	CasinoNightZone_6_001
// 029   ----------------------------------------
	BYTE	PATT
	 POIN2	CasinoNightZone_6_001
// 030   ----------------------------------------
	BYTE	PATT
	 POIN2	CasinoNightZone_6_001
// 031   ----------------------------------------
	BYTE	PATT
	 POIN2	CasinoNightZone_6_001
// 032   ----------------------------------------
	BYTE	PATT
	 POIN2	CasinoNightZone_6_001
// 033   ----------------------------------------
	BYTE	PATT
	 POIN2	CasinoNightZone_6_001
// 034   ----------------------------------------
	BYTE	PATT
	 POIN2	CasinoNightZone_6_001
// 035   ----------------------------------------
	BYTE	PATT
	 POIN2	CasinoNightZone_6_001
// 036   ----------------------------------------
	BYTE	PATT
	 POIN2	CasinoNightZone_6_001
// 037   ----------------------------------------
	BYTE	PATT
	 POIN2	CasinoNightZone_6_001
// 038   ----------------------------------------
	BYTE		N23     Cn1   v127
	BYTE		N23     As1 
	BYTE	W24
	BYTE		        Dn1 
	BYTE		N15     Fs1 
	BYTE	W16
	BYTE		N07     As1 
	BYTE	W08
	BYTE		N15     Dn1 
	BYTE		N23     As1 
	BYTE	W16
	BYTE		        Dn1 
	BYTE	W08
	BYTE		N15     Fs1 
	BYTE	W16
	BYTE		TIE     Dn1 
	BYTE		N07     As1 
	BYTE	W08
// 039   ----------------------------------------
	BYTE	W96
// 040   ----------------------------------------
	BYTE	W60
	BYTE	W03
	BYTE		EOT     Dn1 
	BYTE	W01
	BYTE		N07   
	BYTE	W08
	BYTE		N23   
	BYTE	W24
	BYTE	GoTo
	 POIN2	CasinoNightZone_6_B1
CasinoNightZone_6_B2:
// 041   ----------------------------------------
	BYTE	FINE

//******************************************************//
	ALIGN 4

songCasinoNight:
	BYTE	6	// NumTrks
	BYTE	0	// NumBlks
	BYTE	CasinoNightZone_pri	// Priority
	BYTE	CasinoNightZone_rev	// Reverb.

	POIN2	CasinoNightZone_grp

	POIN2	CasinoNightZone_1
	POIN2	CasinoNightZone_2
	POIN2	CasinoNightZone_3
	POIN2	CasinoNightZone_4
	POIN2	CasinoNightZone_5
	POIN2	CasinoNightZone_6

	
