//Event file generated from Sappy .s format.
	#include "MPlayDef.event"

	#define	CourageAndPrideFromTheHeart_grp  voicegroup000
	#define	CourageAndPrideFromTheHeart_pri  0
	#define	CourageAndPrideFromTheHeart_rev  0
	#define	CourageAndPrideFromTheHeart_mvl  127
	#define	CourageAndPrideFromTheHeart_key  0
	#define	CourageAndPrideFromTheHeart_tbs  1
	#define	CourageAndPrideFromTheHeart_exg  0
	#define	CourageAndPrideFromTheHeart_cmp  1

	// .rodata
	//	CourageAndPrideFromTheHeart
	ALIGN 4


//**************** Track 1 (Midi-Chn.0) ****************//

CourageAndPrideFromTheHeart_001:
// 000   ----------------------------------------
 BYTE   KEYSH   CourageAndPrideFromTheHeart_key+0
Label_CourageAndPrideFromTheHeart0_01464496:
 BYTE   TEMPO   154*CourageAndPrideFromTheHeart_tbs/2
 BYTE   VOICE   48
 BYTE   VOL   55*CourageAndPrideFromTheHeart_mvl/mxv
 BYTE   PAN   c_v+0
 BYTE   W12
 BYTE   N12  Fs3  v092
 BYTE   W12
 BYTE   Gn3
 BYTE   W12
 BYTE   Fs3
 BYTE   W12
Label_CourageAndPrideFromTheHeart0_014644A7:
 BYTE   N06  En3  v092
 BYTE   W06
 BYTE   N30  Fs3
 BYTE   W30
 BYTE   N12  Gn3
 BYTE   W12
// 001   ----------------------------------------
 BYTE   An3
 BYTE   W12
 BYTE   N18
 BYTE   W18
 BYTE   Gn3
 BYTE   W18
 BYTE   PEND 
Label_CourageAndPrideFromTheHeart0_014644B8:
 BYTE   N12  Fs3  v092
 BYTE   W12
 BYTE   N36  En3
 BYTE   W36
// 002   ----------------------------------------
 BYTE   N06  Fs3
 BYTE   W06
 BYTE   An3
 BYTE   W06
 BYTE   N12  Bn3
 BYTE   W12
 BYTE   An3
 BYTE   W12
 BYTE   Gn3
 BYTE   W12
 BYTE   PEND 
Label_CourageAndPrideFromTheHeart0_014644CC:
 BYTE   N06  An3  v092
 BYTE   W06
 BYTE   N30  Bn3
 BYTE   W30
 BYTE   N12  Cs4
 BYTE   W12
// 003   ----------------------------------------
 BYTE   Bn3
 BYTE   W12
 BYTE   N18  An3
 BYTE   W18
 BYTE   Gn3
 BYTE   W18
 BYTE   PEND 
Label_CourageAndPrideFromTheHeart0_014644DE:
 BYTE   N12  Fs3  v092
 BYTE   W12
 BYTE   En3
 BYTE   W12
 BYTE   Dn3
 BYTE   W12
 BYTE   En3
 BYTE   W12
// 004   ----------------------------------------
 BYTE   N06  Gn3
 BYTE   W06
 BYTE   An3
 BYTE   W06
 BYTE   N36  Gn3
 BYTE   W36
 BYTE   PEND 
Label_CourageAndPrideFromTheHeart0_014644F1:
 BYTE   N06  An3  v092
 BYTE   W06
 BYTE   N06
 BYTE   W06
 BYTE   N18  Gn3
 BYTE   W18
 BYTE   Fs3
 BYTE   W18
// 005   ----------------------------------------
 BYTE   N12  En3
 BYTE   W12
 BYTE   N18  Gn3
 BYTE   W18
 BYTE   Fs3
 BYTE   W18
 BYTE   PEND 
Label_CourageAndPrideFromTheHeart0_01464505:
 BYTE   N12  En3  v092
 BYTE   W12
 BYTE   N18
 BYTE   W18
 BYTE   Fs3
 BYTE   W18
// 006   ----------------------------------------
 BYTE   N12  Gn3
 BYTE   W12
 BYTE   N18  Fs3
 BYTE   W18
 BYTE   Cs3
 BYTE   W18
 BYTE   PEND 
Label_CourageAndPrideFromTheHeart0_01464516:
 BYTE   N12  Fs3  v092
 BYTE   W12
 BYTE   N18  Gn3
 BYTE   W18
 BYTE   Dn3
 BYTE   W18
// 007   ----------------------------------------
 BYTE   N12  Gn3
 BYTE   W12
 BYTE   N18  Gs3
 BYTE   W18
 BYTE   En3
 BYTE   W18
 BYTE   PEND 
Label_CourageAndPrideFromTheHeart0_01464528:
 BYTE   N12  Gs3  v092
 BYTE   W12
 BYTE   N06  An3
 BYTE   W06
 BYTE   Cs3
 BYTE   W06
 BYTE   Bn2
 BYTE   W06
 BYTE   Cs3
 BYTE   W06
 BYTE   Dn3
 BYTE   W06
 BYTE   Cs3
 BYTE   W06
// 008   ----------------------------------------
 BYTE   Bn2
 BYTE   W06
 BYTE   Cs3
 BYTE   W06
 BYTE   N12  Fs3
 BYTE   W12
 BYTE   Gn3
 BYTE   W12
 BYTE   Fs3
 BYTE   W12
 BYTE   PEND 
 BYTE   PATT
  POIN2 Label_CourageAndPrideFromTheHeart0_014644A7
 BYTE   PATT
  POIN2 Label_CourageAndPrideFromTheHeart0_014644B8
 BYTE   PATT
  POIN2 Label_CourageAndPrideFromTheHeart0_014644CC
// 009   ----------------------------------------
Label_CourageAndPrideFromTheHeart0_01464554:
 BYTE   N12  Fs3  v092
 BYTE   W12
 BYTE   N18  Cs4
 BYTE   W18
 BYTE   Bn3
 BYTE   W18
 BYTE   N12  An3
 BYTE   W12
 BYTE   N18  Bn3
 BYTE   W18
 BYTE   An3
 BYTE   W18
 BYTE   PEND 
// 010   ----------------------------------------
Label_CourageAndPrideFromTheHeart0_01464566:
 BYTE   N12  Bn3  v092
 BYTE   W12
 BYTE   N24  Cs4
 BYTE   W24
 BYTE   Bn3
 BYTE   W24
 BYTE   N18  An3
 BYTE   W18
 BYTE   En3
 BYTE   W18
 BYTE   PEND 
// 011   ----------------------------------------
Label_CourageAndPrideFromTheHeart0_01464575:
 BYTE   N12  Gn3  v092
 BYTE   W12
 BYTE   N24  Fs3
 BYTE   W24
 BYTE   En3
 BYTE   W24
 BYTE   N18  Gn3
 BYTE   W18
 BYTE   Dn3
 BYTE   W18
 BYTE   PEND 
// 012   ----------------------------------------
Label_CourageAndPrideFromTheHeart0_01464584:
 BYTE   N06  En3  v092
 BYTE   W06
 BYTE   Fs3
 BYTE   W06
 BYTE   N24  En3
 BYTE   W24
 BYTE   Cs3
 BYTE   W24
 BYTE   N06  Bn2
 BYTE   W06
 BYTE   Dn3
 BYTE   W06
 BYTE   Fs3
 BYTE   W06
 BYTE   An3
 BYTE   W06
 BYTE   Bn3
 BYTE   W06
 BYTE   Dn4
 BYTE   W06
 BYTE   PEND 
// 013   ----------------------------------------
 BYTE   Fs4
 BYTE   W06
 BYTE   An4
 BYTE   W06
 BYTE   N48  Dn4
 BYTE   N48  Bn4
 BYTE   W48
 BYTE   N96  Fs3
 BYTE   W36
// 014   ----------------------------------------
 BYTE   W60
 BYTE   N18  En3
 BYTE   W18
 BYTE   An3
 BYTE   W18
// 015   ----------------------------------------
 BYTE   N12  Gn3
 BYTE   W12
 BYTE   N48  Fs3
 BYTE   W48
 BYTE   N96  En3
 BYTE   W36
// 016   ----------------------------------------
 BYTE   W60
 BYTE   N06  An3
 BYTE   W06
 BYTE   En3
 BYTE   W06
 BYTE   An3
 BYTE   W06
 BYTE   Bn3
 BYTE   W06
 BYTE   N24  Cs4
 BYTE   W12
// 017   ----------------------------------------
 BYTE   W12
 BYTE   Bn3
 BYTE   W24
 BYTE   An3
 BYTE   W24
 BYTE   N12  Cn4
 BYTE   W12
 BYTE   Bn3
 BYTE   W12
 BYTE   An3
 BYTE   W12
// 018   ----------------------------------------
 BYTE   Bn3
 BYTE   W12
 BYTE   N18  Cn4
 BYTE   W18
 BYTE   Dn4
 BYTE   W18
 BYTE   N12  En4
 BYTE   W12
 BYTE   N24  Ds4
 BYTE   W24
 BYTE   N12  Bn3
 BYTE   W12
// 019   ----------------------------------------
 BYTE   N24  Ds4
 BYTE   W24
 BYTE   N12  Bn3
 BYTE   W12
 BYTE   An3
 BYTE   W12
 BYTE   Gs3
 BYTE   W12
 BYTE   N06  Gn3
 BYTE   W06
 BYTE   Fs3
 BYTE   W06
 BYTE   En3
 BYTE   W06
 BYTE   Fs3
 BYTE   W06
 BYTE   N24  Gn3
 BYTE   W12
// 020   ----------------------------------------
 BYTE   W12
 BYTE   N06
 BYTE   W06
 BYTE   Fs3
 BYTE   W06
 BYTE   En3
 BYTE   W06
 BYTE   Fs3
 BYTE   W06
 BYTE   N24  Gn3
 BYTE   W24
 BYTE   N24
 BYTE   W24
 BYTE   Bn3
 BYTE   W12
// 021   ----------------------------------------
 BYTE   W12
 BYTE   An3
 BYTE   W24
 BYTE   Gn3
 BYTE   W24
 BYTE   N18  Fs3
 BYTE   W18
 BYTE   Cs3
 BYTE   W18
// 022   ----------------------------------------
 BYTE   N12  Fs3
 BYTE   W12
 BYTE   N18  Gn3
 BYTE   W18
 BYTE   Dn3
 BYTE   W18
 BYTE   N12  Gn3
 BYTE   W12
 BYTE   N06  An3
 BYTE   W06
 BYTE   Cs4
 BYTE   W06
 BYTE   Dn4
 BYTE   W06
 BYTE   En4
 BYTE   W06
 BYTE   Fs4
 BYTE   W06
 BYTE   En4
 BYTE   W06
// 023   ----------------------------------------
 BYTE   Fs4
 BYTE   W06
 BYTE   En4
 BYTE   W06
 BYTE   N48  Fs4
 BYTE   N48  As4
 BYTE   W48
 BYTE   N12  Fs3
 BYTE   W12
 BYTE   Gn3
 BYTE   W12
 BYTE   Fs3
 BYTE   W12
 BYTE   PATT
  POIN2 Label_CourageAndPrideFromTheHeart0_014644A7
 BYTE   PATT
  POIN2 Label_CourageAndPrideFromTheHeart0_014644B8
 BYTE   PATT
  POIN2 Label_CourageAndPrideFromTheHeart0_014644CC
 BYTE   PATT
  POIN2 Label_CourageAndPrideFromTheHeart0_014644DE
 BYTE   PATT
  POIN2 Label_CourageAndPrideFromTheHeart0_014644F1
 BYTE   PATT
  POIN2 Label_CourageAndPrideFromTheHeart0_01464505
 BYTE   PATT
  POIN2 Label_CourageAndPrideFromTheHeart0_01464516
 BYTE   PATT
  POIN2 Label_CourageAndPrideFromTheHeart0_01464528
 BYTE   PATT
  POIN2 Label_CourageAndPrideFromTheHeart0_014644A7
 BYTE   PATT
  POIN2 Label_CourageAndPrideFromTheHeart0_014644B8
 BYTE   PATT
  POIN2 Label_CourageAndPrideFromTheHeart0_014644CC
 BYTE   PATT
  POIN2 Label_CourageAndPrideFromTheHeart0_01464554
 BYTE   PATT
  POIN2 Label_CourageAndPrideFromTheHeart0_01464566
 BYTE   PATT
  POIN2 Label_CourageAndPrideFromTheHeart0_01464575
 BYTE   PATT
  POIN2 Label_CourageAndPrideFromTheHeart0_01464584
// 024   ----------------------------------------
 BYTE   N06  Fs4  v092
 BYTE   W06
 BYTE   An4
 BYTE   W06
 BYTE   N48  Dn4
 BYTE   N48  Bn4
 BYTE   W48
 BYTE   GoTo
  POIN2 Label_CourageAndPrideFromTheHeart0_01464496
 BYTE   FINE

//**************** Track 2 (Midi-Chn.1) ****************//

CourageAndPrideFromTheHeart_002:
// 000   ----------------------------------------
 BYTE   KEYSH   CourageAndPrideFromTheHeart_key+0
Label_CourageAndPrideFromTheHeart1_0146469A:
 BYTE   VOICE   68
 BYTE   VOL   55*CourageAndPrideFromTheHeart_mvl/mxv
 BYTE   PAN   c_v+0
 BYTE   W48
 BYTE   W96
// 001   ----------------------------------------
 BYTE   W96
// 002   ----------------------------------------
 BYTE   W96
// 003   ----------------------------------------
 BYTE   W96
// 004   ----------------------------------------
 BYTE   W96
// 005   ----------------------------------------
 BYTE   W96
// 006   ----------------------------------------
 BYTE   W96
// 007   ----------------------------------------
 BYTE   W96
// 008   ----------------------------------------
 BYTE   W96
// 009   ----------------------------------------
 BYTE   W96
// 010   ----------------------------------------
 BYTE   W96
// 011   ----------------------------------------
 BYTE   W96
// 012   ----------------------------------------
 BYTE   W96
// 013   ----------------------------------------
 BYTE   W96
// 014   ----------------------------------------
 BYTE   W96
// 015   ----------------------------------------
 BYTE   W24
 BYTE   N06  Dn3  v112
 BYTE   W06
 BYTE   Fs3
 BYTE   W06
 BYTE   Bn3
 BYTE   W06
 BYTE   Cs4
 BYTE   W06
 BYTE   Dn4
 BYTE   W06
 BYTE   En4
 BYTE   W06
 BYTE   N36  Fs4
 BYTE   W36
// 016   ----------------------------------------
 BYTE   N06  En4
 BYTE   W06
 BYTE   Dn4
 BYTE   W06
 BYTE   N18  Cs4
 BYTE   W18
 BYTE   Bn3
 BYTE   W18
 BYTE   N36  Cs4
 BYTE   W48
// 017   ----------------------------------------
 BYTE   W24
 BYTE   N06  Gn3
 BYTE   W06
 BYTE   Bn3
 BYTE   W06
 BYTE   Cs4
 BYTE   W06
 BYTE   Dn4
 BYTE   W06
 BYTE   Cs4
 BYTE   W06
 BYTE   Bn3
 BYTE   W06
 BYTE   N36  An3
 BYTE   W36
// 018   ----------------------------------------
 BYTE   N24  An4
 BYTE   W24
 BYTE   En4
 BYTE   W24
 BYTE   N12  Gn4
 BYTE   W12
 BYTE   N72  Fs4
 BYTE   W36
// 019   ----------------------------------------
 BYTE   W48
 BYTE   N06
 BYTE   W06
 BYTE   Gn4
 BYTE   W06
 BYTE   N12  An4
 BYTE   W12
 BYTE   Gn4
 BYTE   W12
 BYTE   Fs4
 BYTE   W12
// 020   ----------------------------------------
 BYTE   Gn4
 BYTE   W12
 BYTE   N18  An4
 BYTE   W18
 BYTE   Bn4
 BYTE   W18
 BYTE   N12  Cn5
 BYTE   W12
 BYTE   N24  Bn4
 BYTE   W24
 BYTE   N12  Fs4
 BYTE   W12
// 021   ----------------------------------------
 BYTE   N24  Bn4
 BYTE   W24
 BYTE   N12  An4
 BYTE   W12
 BYTE   Gn4
 BYTE   W12
 BYTE   Fs4
 BYTE   W12
 BYTE   N72  Gn4
 BYTE   W36
// 022   ----------------------------------------
 BYTE   W48
 BYTE   N06  En4
 BYTE   W06
 BYTE   Fs4
 BYTE   W06
 BYTE   N24  Gn4
 BYTE   W24
 BYTE   Fs4
 BYTE   W12
// 023   ----------------------------------------
 BYTE   W12
 BYTE   En4
 BYTE   W24
 BYTE   Dn4
 BYTE   W24
 BYTE   N18  Cs4
 BYTE   W18
 BYTE   Fs3
 BYTE   W18
// 024   ----------------------------------------
 BYTE   N12  Cs4
 BYTE   W12
 BYTE   N18  Dn4
 BYTE   W18
 BYTE   Gn3
 BYTE   W18
 BYTE   N12  Dn4
 BYTE   W12
 BYTE   N18  En4
 BYTE   W18
 BYTE   An3
 BYTE   W18
// 025   ----------------------------------------
 BYTE   N12  En4
 BYTE   W12
 BYTE   N48  Fs4
 BYTE   W84
// 026   ----------------------------------------
 BYTE   W96
// 027   ----------------------------------------
 BYTE   W96
// 028   ----------------------------------------
 BYTE   W96
// 029   ----------------------------------------
 BYTE   W96
// 030   ----------------------------------------
 BYTE   W96
// 031   ----------------------------------------
 BYTE   W96
// 032   ----------------------------------------
 BYTE   W96
// 033   ----------------------------------------
 BYTE   W96
// 034   ----------------------------------------
 BYTE   W96
// 035   ----------------------------------------
 BYTE   W96
// 036   ----------------------------------------
 BYTE   W96
// 037   ----------------------------------------
 BYTE   W96
// 038   ----------------------------------------
 BYTE   W96
// 039   ----------------------------------------
 BYTE   W96
// 040   ----------------------------------------
 BYTE   W96
// 041   ----------------------------------------
 BYTE   W24
 BYTE   N06  Dn3
 BYTE   W06
 BYTE   Fs3
 BYTE   W06
 BYTE   Bn3
 BYTE   W06
 BYTE   Cs4
 BYTE   W06
 BYTE   Dn4
 BYTE   W06
 BYTE   En4
 BYTE   W06
 BYTE   GoTo
  POIN2 Label_CourageAndPrideFromTheHeart1_0146469A
 BYTE   FINE

//**************** Track 3 (Midi-Chn.2) ****************//

CourageAndPrideFromTheHeart_003:
// 000   ----------------------------------------
 BYTE   KEYSH   CourageAndPrideFromTheHeart_key+0
Label_CourageAndPrideFromTheHeart2_01464766:
 BYTE   VOICE   61
 BYTE   VOL   55*CourageAndPrideFromTheHeart_mvl/mxv
 BYTE   PAN   c_v+0
 BYTE   N06  Bn3  v112
 BYTE   W06
 BYTE   Cs4
 BYTE   W06
 BYTE   N48  Dn4
 BYTE   W36
Label_CourageAndPrideFromTheHeart2_01464775:
 BYTE   W24
 BYTE   N12  Dn4  v112
 BYTE   W12
 BYTE   En4
 BYTE   W12
// 001   ----------------------------------------
 BYTE   Fs4
 BYTE   W12
 BYTE   N18
 BYTE   W18
 BYTE   En4
 BYTE   W18
 BYTE   PEND 
Label_CourageAndPrideFromTheHeart2_01464783:
 BYTE   N12  Dn4  v112
 BYTE   W12
 BYTE   N24  Cs4
 BYTE   W36
// 002   ----------------------------------------
 BYTE   N06  Bn3
 BYTE   W06
 BYTE   Cs4
 BYTE   W06
 BYTE   N48  Dn4
 BYTE   W36
 BYTE   PEND 
Label_CourageAndPrideFromTheHeart2_01464793:
 BYTE   W24
 BYTE   N12  Dn4  v112
 BYTE   W12
 BYTE   En4
 BYTE   W12
// 003   ----------------------------------------
 BYTE   Dn4
 BYTE   W12
 BYTE   N18  Cs4
 BYTE   W18
 BYTE   Bn3
 BYTE   W18
 BYTE   PEND 
Label_CourageAndPrideFromTheHeart2_014647A2:
 BYTE   N12  An3  v112
 BYTE   W12
 BYTE   N24
 BYTE   W36
// 004   ----------------------------------------
 BYTE   N06  Bn3
 BYTE   W06
 BYTE   Cs4
 BYTE   W06
 BYTE   N18  Dn4
 BYTE   W18
 BYTE   Cs4
 BYTE   W18
 BYTE   PEND 
Label_CourageAndPrideFromTheHeart2_014647B3:
 BYTE   N12  Bn3  v112
 BYTE   W12
 BYTE   N24
 BYTE   W36
// 005   ----------------------------------------
 BYTE   N06  Cs4
 BYTE   W06
 BYTE   Dn4
 BYTE   W06
 BYTE   N18  En4
 BYTE   W18
 BYTE   Dn4
 BYTE   W18
 BYTE   PEND 
Label_CourageAndPrideFromTheHeart2_014647C4:
 BYTE   N12  Cs4  v112
 BYTE   W12
 BYTE   N18
 BYTE   W18
 BYTE   Dn4
 BYTE   W18
// 006   ----------------------------------------
 BYTE   N12  En4
 BYTE   W12
 BYTE   N24  Fs4
 BYTE   W36
 BYTE   PEND 
Label_CourageAndPrideFromTheHeart2_014647D3:
 BYTE   N06  En4  v112
 BYTE   W06
 BYTE   Fs4
 BYTE   W06
 BYTE   N24  Gn4
 BYTE   W36
// 007   ----------------------------------------
 BYTE   N06  Fn4
 BYTE   W06
 BYTE   Fs4
 BYTE   W06
 BYTE   N24  Gs4
 BYTE   W36
 BYTE   PEND 
Label_CourageAndPrideFromTheHeart2_014647E5:
 BYTE   N06  Fs4  v112
 BYTE   W06
 BYTE   Gs4
 BYTE   W06
 BYTE   N24  An4
 BYTE   W36
// 008   ----------------------------------------
 BYTE   N06  Bn3
 BYTE   W06
 BYTE   Cs4
 BYTE   W06
 BYTE   N48  Dn4
 BYTE   W36
 BYTE   PEND 
 BYTE   PATT
  POIN2 Label_CourageAndPrideFromTheHeart2_01464775
 BYTE   PATT
  POIN2 Label_CourageAndPrideFromTheHeart2_01464783
 BYTE   PATT
  POIN2 Label_CourageAndPrideFromTheHeart2_01464793
// 009   ----------------------------------------
Label_CourageAndPrideFromTheHeart2_01464806:
 BYTE   N12  An3  v112
 BYTE   W12
 BYTE   N24  An4
 BYTE   W36
 BYTE   N06  Fs4
 BYTE   W06
 BYTE   Gn4
 BYTE   W06
 BYTE   N18  An4
 BYTE   W18
 BYTE   Gn4
 BYTE   W18
 BYTE   PEND 
// 010   ----------------------------------------
Label_CourageAndPrideFromTheHeart2_01464818:
 BYTE   N12  Fs4  v112
 BYTE   W12
 BYTE   N48  Gn4
 BYTE   W48
 BYTE   N18  Fs4
 BYTE   W18
 BYTE   Cs4
 BYTE   W18
 BYTE   PEND 
// 011   ----------------------------------------
Label_CourageAndPrideFromTheHeart2_01464825:
 BYTE   N12  En4  v112
 BYTE   W12
 BYTE   N24  Dn4
 BYTE   W24
 BYTE   Cs4
 BYTE   W24
 BYTE   N36  Bn3
 BYTE   W36
 BYTE   PEND 
// 012   ----------------------------------------
Label_CourageAndPrideFromTheHeart2_01464832:
 BYTE   N06  Cs4  v112
 BYTE   W06
 BYTE   Dn4
 BYTE   W06
 BYTE   N24  Cs4
 BYTE   W24
 BYTE   An3
 BYTE   W24
 BYTE   N96  Bn3
 BYTE   W36
 BYTE   PEND 
// 013   ----------------------------------------
 BYTE   W96
// 014   ----------------------------------------
 BYTE   W96
// 015   ----------------------------------------
 BYTE   W96
// 016   ----------------------------------------
 BYTE   W96
// 017   ----------------------------------------
 BYTE   W96
// 018   ----------------------------------------
 BYTE   W96
// 019   ----------------------------------------
 BYTE   W96
// 020   ----------------------------------------
 BYTE   W96
// 021   ----------------------------------------
 BYTE   W96
// 022   ----------------------------------------
 BYTE   W96
// 023   ----------------------------------------
 BYTE   W48
 BYTE   N06
 BYTE   W06
 BYTE   Cs4
 BYTE   W06
 BYTE   N48  Dn4
 BYTE   W36
 BYTE   PATT
  POIN2 Label_CourageAndPrideFromTheHeart2_01464775
 BYTE   PATT
  POIN2 Label_CourageAndPrideFromTheHeart2_01464783
 BYTE   PATT
  POIN2 Label_CourageAndPrideFromTheHeart2_01464793
 BYTE   PATT
  POIN2 Label_CourageAndPrideFromTheHeart2_014647A2
 BYTE   PATT
  POIN2 Label_CourageAndPrideFromTheHeart2_014647B3
 BYTE   PATT
  POIN2 Label_CourageAndPrideFromTheHeart2_014647C4
 BYTE   PATT
  POIN2 Label_CourageAndPrideFromTheHeart2_014647D3
 BYTE   PATT
  POIN2 Label_CourageAndPrideFromTheHeart2_014647E5
 BYTE   PATT
  POIN2 Label_CourageAndPrideFromTheHeart2_01464775
 BYTE   PATT
  POIN2 Label_CourageAndPrideFromTheHeart2_01464783
 BYTE   PATT
  POIN2 Label_CourageAndPrideFromTheHeart2_01464793
 BYTE   PATT
  POIN2 Label_CourageAndPrideFromTheHeart2_01464806
 BYTE   PATT
  POIN2 Label_CourageAndPrideFromTheHeart2_01464818
 BYTE   PATT
  POIN2 Label_CourageAndPrideFromTheHeart2_01464825
 BYTE   PATT
  POIN2 Label_CourageAndPrideFromTheHeart2_01464832
// 024   ----------------------------------------
 BYTE   W60
 BYTE   GoTo
  POIN2 Label_CourageAndPrideFromTheHeart2_01464766
 BYTE   FINE

//**************** Track 4 (Midi-Chn.3) ****************//

CourageAndPrideFromTheHeart_004:
// 000   ----------------------------------------
 BYTE   KEYSH   CourageAndPrideFromTheHeart_key+0
Label_CourageAndPrideFromTheHeart3_014648AA:
 BYTE   VOICE   81
 BYTE   VOL   55*CourageAndPrideFromTheHeart_mvl/mxv
 BYTE   PAN   c_v+7
 BYTE   N06  Dn3  v127
 BYTE   W06
 BYTE   Bn2
 BYTE   W06
 BYTE   N12  Dn3  v092
 BYTE   W12
 BYTE   En3
 BYTE   W12
 BYTE   Dn3
 BYTE   W12
Label_CourageAndPrideFromTheHeart3_014648BE:
 BYTE   N06  Cs3  v092
 BYTE   W06
 BYTE   N54  Dn3
 BYTE   W54
// 001   ----------------------------------------
 BYTE   N36  Cs3
 BYTE   W36
 BYTE   PEND 
Label_CourageAndPrideFromTheHeart3_014648C9:
 BYTE   N12  Bn2  v092
 BYTE   W12
 BYTE   N48  An2
 BYTE   W48
// 002   ----------------------------------------
 BYTE   N12  Dn3
 BYTE   W12
 BYTE   Cs3
 BYTE   W12
 BYTE   Bn2
 BYTE   W12
 BYTE   PEND 
 BYTE   PATT
  POIN2 Label_CourageAndPrideFromTheHeart3_014648BE
// 003   ----------------------------------------
Label_CourageAndPrideFromTheHeart3_014648DD:
 BYTE   N12  Bn2  v092
 BYTE   W12
 BYTE   N48  An2
 BYTE   W48
 BYTE   N36  Bn2
 BYTE   W36
 BYTE   PEND 
// 004   ----------------------------------------
Label_CourageAndPrideFromTheHeart3_014648E8:
 BYTE   N12  Cs3  v092
 BYTE   W12
 BYTE   N48  Dn3
 BYTE   W48
 BYTE   N18  Bn2
 BYTE   W18
 BYTE   An2
 BYTE   W18
 BYTE   PEND 
// 005   ----------------------------------------
Label_CourageAndPrideFromTheHeart3_014648F5:
 BYTE   N12  Gn2  v092
 BYTE   W12
 BYTE   N18
 BYTE   W18
 BYTE   An2
 BYTE   W18
 BYTE   N12  Bn2
 BYTE   W12
 BYTE   N48  As2
 BYTE   W36
 BYTE   PEND 
// 006   ----------------------------------------
Label_CourageAndPrideFromTheHeart3_01464904:
 BYTE   W12
 BYTE   N48  Bn2  v092
 BYTE   W48
 BYTE   Cs3
 BYTE   W36
 BYTE   PEND 
// 007   ----------------------------------------
Label_CourageAndPrideFromTheHeart3_0146490C:
 BYTE   W12
 BYTE   N06  Cs3  v092
 BYTE   W06
 BYTE   An2
 BYTE   W06
 BYTE   Gn2
 BYTE   W06
 BYTE   An2
 BYTE   W06
 BYTE   Bn2
 BYTE   W06
 BYTE   An2
 BYTE   W06
 BYTE   Bn2
 BYTE   W06
 BYTE   Fs2
 BYTE   W06
 BYTE   N12  Dn3
 BYTE   W12
 BYTE   En3
 BYTE   W12
 BYTE   Dn3
 BYTE   W12
 BYTE   PEND 
 BYTE   PATT
  POIN2 Label_CourageAndPrideFromTheHeart3_014648BE
 BYTE   PATT
  POIN2 Label_CourageAndPrideFromTheHeart3_014648C9
 BYTE   PATT
  POIN2 Label_CourageAndPrideFromTheHeart3_014648BE
// 008   ----------------------------------------
Label_CourageAndPrideFromTheHeart3_01464936:
 BYTE   N12  Bn2  v092
 BYTE   W12
 BYTE   N48  En3
 BYTE   W48
 BYTE   Dn3
 BYTE   W36
 BYTE   PEND 
// 009   ----------------------------------------
Label_CourageAndPrideFromTheHeart3_01464940:
 BYTE   W12
 BYTE   N48  En3  v092
 BYTE   W48
 BYTE   Cs3
 BYTE   W36
 BYTE   PEND 
// 010   ----------------------------------------
Label_CourageAndPrideFromTheHeart3_01464948:
 BYTE   W12
 BYTE   N24  Dn3  v092
 BYTE   W24
 BYTE   Cs3
 BYTE   W24
 BYTE   N48  Bn2
 BYTE   W36
 BYTE   PEND 
// 011   ----------------------------------------
Label_CourageAndPrideFromTheHeart3_01464953:
 BYTE   W12
 BYTE   N48  An2  v092
 BYTE   W48
 BYTE   N96  Fs2
 BYTE   W36
 BYTE   PEND 
// 012   ----------------------------------------
 BYTE   W60
 BYTE   N36  Bn2
 BYTE   W36
// 013   ----------------------------------------
 BYTE   Cs3
 BYTE   W36
 BYTE   N24  Bn2
 BYTE   W24
 BYTE   N72  Cs3
 BYTE   W36
// 014   ----------------------------------------
 BYTE   W36
 BYTE   N24  Bn2
 BYTE   W24
 BYTE   N36  An2
 BYTE   W36
// 015   ----------------------------------------
 BYTE   Bn2
 BYTE   W36
 BYTE   N24  An2
 BYTE   W24
 BYTE   Bn2
 BYTE   W24
 BYTE   En3
 BYTE   W12
// 016   ----------------------------------------
 BYTE   W12
 BYTE   Dn3
 BYTE   W24
 BYTE   Cs3
 BYTE   W24
 BYTE   N48  En3
 BYTE   W36
// 017   ----------------------------------------
 BYTE   W12
 BYTE   N24  Fs3
 BYTE   W24
 BYTE   Gn3
 BYTE   W24
 BYTE   Fs3
 BYTE   W24
 BYTE   N12  Cs3
 BYTE   W12
// 018   ----------------------------------------
 BYTE   N24  Fs3
 BYTE   W24
 BYTE   N12  En3
 BYTE   W12
 BYTE   Dn3
 BYTE   W12
 BYTE   Cs3
 BYTE   W12
 BYTE   N36  Bn2
 BYTE   W36
// 019   ----------------------------------------
 BYTE   W12
 BYTE   N36
 BYTE   W48
 BYTE   N48  En3
 BYTE   W36
// 020   ----------------------------------------
 BYTE   W12
 BYTE   Bn2
 BYTE   W48
 BYTE   As2
 BYTE   W36
// 021   ----------------------------------------
 BYTE   W12
 BYTE   Bn2
 BYTE   W48
 BYTE   N18  Cs3
 BYTE   W18
 BYTE   Dn3
 BYTE   W18
// 022   ----------------------------------------
 BYTE   N12  En3
 BYTE   W12
 BYTE   Fs3
 BYTE   W48
 BYTE   Dn3
 BYTE   W12
 BYTE   En3
 BYTE   W12
 BYTE   Dn3
 BYTE   W12
 BYTE   PATT
  POIN2 Label_CourageAndPrideFromTheHeart3_014648BE
 BYTE   PATT
  POIN2 Label_CourageAndPrideFromTheHeart3_014648C9
 BYTE   PATT
  POIN2 Label_CourageAndPrideFromTheHeart3_014648BE
 BYTE   PATT
  POIN2 Label_CourageAndPrideFromTheHeart3_014648DD
 BYTE   PATT
  POIN2 Label_CourageAndPrideFromTheHeart3_014648E8
 BYTE   PATT
  POIN2 Label_CourageAndPrideFromTheHeart3_014648F5
 BYTE   PATT
  POIN2 Label_CourageAndPrideFromTheHeart3_01464904
 BYTE   PATT
  POIN2 Label_CourageAndPrideFromTheHeart3_0146490C
 BYTE   PATT
  POIN2 Label_CourageAndPrideFromTheHeart3_014648BE
 BYTE   PATT
  POIN2 Label_CourageAndPrideFromTheHeart3_014648C9
 BYTE   PATT
  POIN2 Label_CourageAndPrideFromTheHeart3_014648BE
 BYTE   PATT
  POIN2 Label_CourageAndPrideFromTheHeart3_01464936
 BYTE   PATT
  POIN2 Label_CourageAndPrideFromTheHeart3_01464940
 BYTE   PATT
  POIN2 Label_CourageAndPrideFromTheHeart3_01464948
 BYTE   PATT
  POIN2 Label_CourageAndPrideFromTheHeart3_01464953
// 023   ----------------------------------------
 BYTE   W60
 BYTE   GoTo
  POIN2 Label_CourageAndPrideFromTheHeart3_014648AA
 BYTE   FINE

//**************** Track 5 (Midi-Chn.4) ****************//

CourageAndPrideFromTheHeart_005:
// 000   ----------------------------------------
 BYTE   KEYSH   CourageAndPrideFromTheHeart_key+0
Label_CourageAndPrideFromTheHeart4_01464A0A:
 BYTE   VOICE   80
 BYTE   VOL   55*CourageAndPrideFromTheHeart_mvl/mxv
 BYTE   PAN   c_v+0
 BYTE   N03  Fs1  v112
 BYTE   W12
 BYTE   N11  Bn1
 BYTE   W12
 BYTE   N05  Bn2
 BYTE   W12
 BYTE   N11  Bn1
 BYTE   W12
Label_CourageAndPrideFromTheHeart4_01464A1D:
 BYTE   N05  Bn2  v112
 BYTE   W12
 BYTE   N11  Bn1
 BYTE   W12
 BYTE   N05  Bn2
 BYTE   W12
 BYTE   N11  Bn1
 BYTE   W12
// 001   ----------------------------------------
 BYTE   N05  Bn2
 BYTE   W12
 BYTE   N11  An1
 BYTE   W12
 BYTE   N05  An2
 BYTE   W12
 BYTE   N11  An1
 BYTE   W12
 BYTE   PEND 
Label_CourageAndPrideFromTheHeart4_01464A37:
 BYTE   N05  An2  v112
 BYTE   W12
 BYTE   N11  An1
 BYTE   W12
 BYTE   N05  An2
 BYTE   W12
 BYTE   N11  An1
 BYTE   W12
// 002   ----------------------------------------
 BYTE   N05  An2
 BYTE   W12
 BYTE   N11  Gn1
 BYTE   W12
 BYTE   N05  Gn2
 BYTE   W12
 BYTE   N11  Gn1
 BYTE   W12
 BYTE   PEND 
Label_CourageAndPrideFromTheHeart4_01464A51:
 BYTE   N05  Gn2  v112
 BYTE   W12
 BYTE   N11  Gn1
 BYTE   W12
 BYTE   N05  Gn2
 BYTE   W12
 BYTE   N11  Gn1
 BYTE   W12
// 003   ----------------------------------------
 BYTE   N05  Gn2
 BYTE   W12
 BYTE   N11  Fs1
 BYTE   W12
 BYTE   N05  Fs2
 BYTE   W12
 BYTE   N11  Fs1
 BYTE   W12
 BYTE   PEND 
Label_CourageAndPrideFromTheHeart4_01464A6B:
 BYTE   N05  Fs2  v112
 BYTE   W12
 BYTE   N11  Fs1
 BYTE   W12
 BYTE   N05  Fs2
 BYTE   W12
 BYTE   N11  Fs1
 BYTE   W12
// 004   ----------------------------------------
 BYTE   N05  Fs2
 BYTE   W12
 BYTE   N11  En1
 BYTE   W12
 BYTE   N05  En2
 BYTE   W12
 BYTE   N11  En1
 BYTE   W12
 BYTE   PEND 
Label_CourageAndPrideFromTheHeart4_01464A85:
 BYTE   N05  En2  v112
 BYTE   W12
 BYTE   N11  En1
 BYTE   W12
 BYTE   N05  En2
 BYTE   W12
 BYTE   N11  En1
 BYTE   W12
// 005   ----------------------------------------
 BYTE   N05  En2
 BYTE   W12
 BYTE   N11  Cs2
 BYTE   W12
 BYTE   N05  Cs3
 BYTE   W12
 BYTE   N11  Cs2
 BYTE   W12
 BYTE   PEND 
Label_CourageAndPrideFromTheHeart4_01464A9F:
 BYTE   N05  Cs3  v112
 BYTE   W12
 BYTE   N11  Cs2
 BYTE   W12
 BYTE   N05  Cs3
 BYTE   W12
 BYTE   N11  Cs2
 BYTE   W12
// 006   ----------------------------------------
 BYTE   N05  Cs3
 BYTE   W12
 BYTE   N20  Fs1
 BYTE   W24
 BYTE   N11  Fs2
 BYTE   W12
 BYTE   PEND 
Label_CourageAndPrideFromTheHeart4_01464AB6:
 BYTE   N05  Gn1  v112
 BYTE   W06
 BYTE   N05
 BYTE   W06
 BYTE   N20
 BYTE   W24
 BYTE   N11  Gn2
 BYTE   W12
// 007   ----------------------------------------
 BYTE   N05  Gs1
 BYTE   W06
 BYTE   N05
 BYTE   W06
 BYTE   N20
 BYTE   W24
 BYTE   N11  Gs2
 BYTE   W12
 BYTE   PEND 
Label_CourageAndPrideFromTheHeart4_01464ACC:
 BYTE   N05  An1  v112
 BYTE   W06
 BYTE   N05
 BYTE   W06
 BYTE   N11  Fs1
 BYTE   W24
 BYTE   N20  Fs2
 BYTE   W24
// 008   ----------------------------------------
 BYTE   N11  Bn1
 BYTE   W12
 BYTE   N05  Bn2
 BYTE   W12
 BYTE   N11  Bn1
 BYTE   W12
 BYTE   PEND 
 BYTE   PATT
  POIN2 Label_CourageAndPrideFromTheHeart4_01464A1D
 BYTE   PATT
  POIN2 Label_CourageAndPrideFromTheHeart4_01464A37
 BYTE   PATT
  POIN2 Label_CourageAndPrideFromTheHeart4_01464A51
// 009   ----------------------------------------
Label_CourageAndPrideFromTheHeart4_01464AF1:
 BYTE   N05  Fs2  v112
 BYTE   W12
 BYTE   N11  Fs1
 BYTE   W12
 BYTE   N05  Fs2
 BYTE   W12
 BYTE   N11  Fs1
 BYTE   W12
 BYTE   N05  Fs2
 BYTE   W12
 BYTE   N11  Gn1
 BYTE   W12
 BYTE   N05  Gn2
 BYTE   W12
 BYTE   N11  Gn1
 BYTE   W12
 BYTE   PEND 
// 010   ----------------------------------------
Label_CourageAndPrideFromTheHeart4_01464B0B:
 BYTE   N05  Gn2  v112
 BYTE   W12
 BYTE   N11  En1
 BYTE   W12
 BYTE   N05  En2
 BYTE   W12
 BYTE   N11  En1
 BYTE   W12
 BYTE   N05  En2
 BYTE   W12
 BYTE   N11  Fs1
 BYTE   W12
 BYTE   N05  Fs2
 BYTE   W12
 BYTE   N11  Fs1
 BYTE   W12
 BYTE   PEND 
// 011   ----------------------------------------
Label_CourageAndPrideFromTheHeart4_01464B25:
 BYTE   N05  Fs2  v112
 BYTE   W12
 BYTE   N11  Bn1
 BYTE   W12
 BYTE   N05  Bn2
 BYTE   W12
 BYTE   N11  An1
 BYTE   W12
 BYTE   N05  An2
 BYTE   W12
 BYTE   N11  Gn1
 BYTE   W12
 BYTE   N05  Gn2
 BYTE   W12
 BYTE   N11  Gn1
 BYTE   W12
 BYTE   PEND 
// 012   ----------------------------------------
Label_CourageAndPrideFromTheHeart4_01464B3F:
 BYTE   N05  Gn2  v112
 BYTE   W12
 BYTE   N11  An1
 BYTE   W12
 BYTE   N05  An2
 BYTE   W12
 BYTE   N11  An1
 BYTE   W12
 BYTE   N05  An2
 BYTE   W12
 BYTE   Gn1
 BYTE   W06
 BYTE   Dn2
 BYTE   W06
 BYTE   Fs2
 BYTE   W06
 BYTE   Bn2
 BYTE   W06
 BYTE   An2
 BYTE   W06
 BYTE   Bn2
 BYTE   W06
 BYTE   PEND 
// 013   ----------------------------------------
 BYTE   An2
 BYTE   W06
 BYTE   Bn2
 BYTE   W06
 BYTE   N20  Bn1
 BYTE   W24
 BYTE   An1
 BYTE   W24
 BYTE   N56  Gn1
 BYTE   W36
// 014   ----------------------------------------
 BYTE   W24
 BYTE   N11  Gn2
 BYTE   W12
 BYTE   Dn2
 BYTE   W12
 BYTE   Gn2
 BYTE   W12
 BYTE   N56  Gn1
 BYTE   W36
// 015   ----------------------------------------
 BYTE   W24
 BYTE   N11  Fs2
 BYTE   W12
 BYTE   Cs2
 BYTE   W12
 BYTE   Gn1
 BYTE   W12
 BYTE   N56  Fs1
 BYTE   W36
// 016   ----------------------------------------
 BYTE   W24
 BYTE   N11  Fs2
 BYTE   W12
 BYTE   Cs2
 BYTE   W12
 BYTE   Fs2
 BYTE   W12
 BYTE   N20  Fs1
 BYTE   W24
 BYTE   Fs2
 BYTE   W12
// 017   ----------------------------------------
 BYTE   W12
 BYTE   Cs2
 BYTE   W24
 BYTE   Fs1
 BYTE   W24
 BYTE   N11  Gn1
 BYTE   W12
 BYTE   N05  Gn2
 BYTE   W12
 BYTE   N11  Gn1
 BYTE   W12
// 018   ----------------------------------------
 BYTE   N05  Gn2
 BYTE   W12
 BYTE   N11  Gn1
 BYTE   W12
 BYTE   N05  Gn2
 BYTE   W12
 BYTE   N11  Gn1
 BYTE   W12
 BYTE   N05  Gn2
 BYTE   W12
 BYTE   N11  An1
 BYTE   W12
 BYTE   N05  An2
 BYTE   W12
 BYTE   N11  An1
 BYTE   W12
// 019   ----------------------------------------
 BYTE   N05  An2
 BYTE   W12
 BYTE   N11  Bn1
 BYTE   W12
 BYTE   N05  Bn2
 BYTE   W12
 BYTE   N11  Cs2
 BYTE   W12
 BYTE   N05  Cs3
 BYTE   W12
 BYTE   En2
 BYTE   W12
 BYTE   N05
 BYTE   W12
 BYTE   N05
 BYTE   W12
// 020   ----------------------------------------
 BYTE   N05
 BYTE   W12
 BYTE   Dn2
 BYTE   W12
 BYTE   N05
 BYTE   W12
 BYTE   N05
 BYTE   W12
 BYTE   N05
 BYTE   W12
 BYTE   N90  Cs2
 BYTE   W36
// 021   ----------------------------------------
 BYTE   W60
 BYTE   N05  Fs1
 BYTE   W12
 BYTE   N05
 BYTE   W12
 BYTE   N05
 BYTE   W12
// 022   ----------------------------------------
 BYTE   N05
 BYTE   W12
 BYTE   Gn1
 BYTE   W12
 BYTE   N05
 BYTE   W12
 BYTE   N05
 BYTE   W12
 BYTE   N05
 BYTE   W12
 BYTE   An1
 BYTE   W12
 BYTE   N05
 BYTE   W12
 BYTE   N05
 BYTE   W12
// 023   ----------------------------------------
 BYTE   N05
 BYTE   W12
 BYTE   N20  Bn1
 BYTE   W24
 BYTE   Fs1
 BYTE   W24
 BYTE   N11  Bn1
 BYTE   W12
 BYTE   N05  Bn2
 BYTE   W12
 BYTE   N11  Bn1
 BYTE   W12
 BYTE   PATT
  POIN2 Label_CourageAndPrideFromTheHeart4_01464A1D
 BYTE   PATT
  POIN2 Label_CourageAndPrideFromTheHeart4_01464A37
 BYTE   PATT
  POIN2 Label_CourageAndPrideFromTheHeart4_01464A51
 BYTE   PATT
  POIN2 Label_CourageAndPrideFromTheHeart4_01464A6B
 BYTE   PATT
  POIN2 Label_CourageAndPrideFromTheHeart4_01464A85
 BYTE   PATT
  POIN2 Label_CourageAndPrideFromTheHeart4_01464A9F
 BYTE   PATT
  POIN2 Label_CourageAndPrideFromTheHeart4_01464AB6
 BYTE   PATT
  POIN2 Label_CourageAndPrideFromTheHeart4_01464ACC
 BYTE   PATT
  POIN2 Label_CourageAndPrideFromTheHeart4_01464A1D
 BYTE   PATT
  POIN2 Label_CourageAndPrideFromTheHeart4_01464A37
 BYTE   PATT
  POIN2 Label_CourageAndPrideFromTheHeart4_01464A51
 BYTE   PATT
  POIN2 Label_CourageAndPrideFromTheHeart4_01464AF1
 BYTE   PATT
  POIN2 Label_CourageAndPrideFromTheHeart4_01464B0B
 BYTE   PATT
  POIN2 Label_CourageAndPrideFromTheHeart4_01464B25
 BYTE   PATT
  POIN2 Label_CourageAndPrideFromTheHeart4_01464B3F
// 024   ----------------------------------------
 BYTE   N05  An2  v112
 BYTE   W06
 BYTE   Bn2
 BYTE   W06
 BYTE   N20  Bn1
 BYTE   W24
 BYTE   An1
 BYTE   W24
 BYTE   GoTo
  POIN2 Label_CourageAndPrideFromTheHeart4_01464A0A
 BYTE   FINE

//**************** Track 6 (Midi-Chn.5) ****************//

CourageAndPrideFromTheHeart_006:
// 000   ----------------------------------------
 BYTE   KEYSH   CourageAndPrideFromTheHeart_key+0
Label_CourageAndPrideFromTheHeart5_01464C5A:
 BYTE   VOICE   124
 BYTE   VOL   55*CourageAndPrideFromTheHeart_mvl/mxv
 BYTE   PAN   c_v+0
 BYTE   W12
 BYTE   N11  Cn1  v112
 BYTE   W24
 BYTE   N17  En1
 BYTE   W12
Label_CourageAndPrideFromTheHeart5_01464C68:
 BYTE   W06
 BYTE   N05  En1  v112
 BYTE   W06
 BYTE   N11  Cn1
 BYTE   W12
 BYTE   N11
 BYTE   W12
 BYTE   En1
 BYTE   W24
// 001   ----------------------------------------
 BYTE   Cn1
 BYTE   W24
 BYTE   N17  En1
 BYTE   W12
 BYTE   PEND 
 BYTE   PATT
  POIN2 Label_CourageAndPrideFromTheHeart5_01464C68
 BYTE   PATT
  POIN2 Label_CourageAndPrideFromTheHeart5_01464C68
 BYTE   PATT
  POIN2 Label_CourageAndPrideFromTheHeart5_01464C68
 BYTE   PATT
  POIN2 Label_CourageAndPrideFromTheHeart5_01464C68
// 002   ----------------------------------------
Label_CourageAndPrideFromTheHeart5_01464C8E:
 BYTE   W06
 BYTE   N05  En1  v112
 BYTE   W06
 BYTE   N11  Cn1
 BYTE   W12
 BYTE   N11
 BYTE   W12
 BYTE   En1
 BYTE   W24
 BYTE   N11
 BYTE   W18
 BYTE   N11
 BYTE   W18
 BYTE   PEND 
// 003   ----------------------------------------
Label_CourageAndPrideFromTheHeart5_01464C9F:
 BYTE   N05  En1  v112
 BYTE   W06
 BYTE   N05
 BYTE   W06
 BYTE   N11
 BYTE   W18
 BYTE   N11
 BYTE   W18
 BYTE   N05
 BYTE   W06
 BYTE   N05
 BYTE   W06
 BYTE   N11
 BYTE   W18
 BYTE   N11
 BYTE   W18
 BYTE   PEND 
// 004   ----------------------------------------
Label_CourageAndPrideFromTheHeart5_01464CB2:
 BYTE   N05  En1  v112
 BYTE   W06
 BYTE   N05
 BYTE   W06
 BYTE   N11
 BYTE   W24
 BYTE   N11
 BYTE   W24
 BYTE   Cn1
 BYTE   W24
 BYTE   N17  En1
 BYTE   W12
 BYTE   PEND 
 BYTE   PATT
  POIN2 Label_CourageAndPrideFromTheHeart5_01464C68
 BYTE   PATT
  POIN2 Label_CourageAndPrideFromTheHeart5_01464C68
 BYTE   PATT
  POIN2 Label_CourageAndPrideFromTheHeart5_01464C68
 BYTE   PATT
  POIN2 Label_CourageAndPrideFromTheHeart5_01464C68
 BYTE   PATT
  POIN2 Label_CourageAndPrideFromTheHeart5_01464C68
// 005   ----------------------------------------
Label_CourageAndPrideFromTheHeart5_01464CDB:
 BYTE   W06
 BYTE   N05  En1  v112
 BYTE   W06
 BYTE   N11  Cn1
 BYTE   W12
 BYTE   N11
 BYTE   W12
 BYTE   En1
 BYTE   W24
 BYTE   Cn1
 BYTE   W18
 BYTE   N05
 BYTE   W06
 BYTE   N11  En1
 BYTE   W12
 BYTE   PEND 
// 006   ----------------------------------------
Label_CourageAndPrideFromTheHeart5_01464CEF:
 BYTE   N05  Cn1  v112
 BYTE   W06
 BYTE   En1
 BYTE   W06
 BYTE   N11  Cn1
 BYTE   W12
 BYTE   N11
 BYTE   W12
 BYTE   En1
 BYTE   W12
 BYTE   N05  Cn1
 BYTE   W12
 BYTE   N11
 BYTE   W24
 BYTE   N05  En1
 BYTE   W06
 BYTE   N05
 BYTE   W06
 BYTE   PEND 
// 007   ----------------------------------------
 BYTE   N05
 BYTE   W06
 BYTE   N05
 BYTE   W06
 BYTE   N11
 BYTE   W12
 BYTE   N11
 BYTE   W12
 BYTE   N11
 BYTE   W12
 BYTE   N11
 BYTE   W12
 BYTE   N11
 BYTE   W12
 BYTE   N05
 BYTE   W06
 BYTE   N05
 BYTE   W06
 BYTE   N11
 BYTE   W12
// 008   ----------------------------------------
Label_CourageAndPrideFromTheHeart5_01464D1B:
 BYTE   N11  En1  v112
 BYTE   W12
 BYTE   N05
 BYTE   W06
 BYTE   N05
 BYTE   W06
 BYTE   N11
 BYTE   W12
 BYTE   N05
 BYTE   W06
 BYTE   N05
 BYTE   W06
 BYTE   N05
 BYTE   W06
 BYTE   N05
 BYTE   W06
 BYTE   N11
 BYTE   W12
 BYTE   N05
 BYTE   W06
 BYTE   N05
 BYTE   W06
 BYTE   N11
 BYTE   W12
 BYTE   PEND 
 BYTE   PATT
  POIN2 Label_CourageAndPrideFromTheHeart5_01464D1B
// 009   ----------------------------------------
 BYTE   N11  En1  v112
 BYTE   W12
 BYTE   N05
 BYTE   W06
 BYTE   N05
 BYTE   W06
 BYTE   N11
 BYTE   W12
 BYTE   N05
 BYTE   W06
 BYTE   N05
 BYTE   W06
 BYTE   N05
 BYTE   W06
 BYTE   N05
 BYTE   W06
 BYTE   N11
 BYTE   W24
 BYTE   N05
 BYTE   W06
 BYTE   N05
 BYTE   W06
// 010   ----------------------------------------
 BYTE   N05
 BYTE   W06
 BYTE   N05
 BYTE   W06
 BYTE   N05
 BYTE   W06
 BYTE   N05
 BYTE   W06
 BYTE   N05
 BYTE   W06
 BYTE   N05
 BYTE   W06
 BYTE   N11
 BYTE   W24
 BYTE   Cn1
 BYTE   W24
 BYTE   N17  En1
 BYTE   W12
 BYTE   PATT
  POIN2 Label_CourageAndPrideFromTheHeart5_01464C68
// 011   ----------------------------------------
 BYTE   W06
 BYTE   N05  En1  v112
 BYTE   W06
 BYTE   N11  Cn1
 BYTE   W12
 BYTE   N11
 BYTE   W12
 BYTE   En1
 BYTE   W24
 BYTE   N05
 BYTE   W06
 BYTE   N05
 BYTE   W06
 BYTE   N05
 BYTE   W06
 BYTE   N05
 BYTE   W06
 BYTE   N11
 BYTE   W12
// 012   ----------------------------------------
 BYTE   N11
 BYTE   W12
 BYTE   N05
 BYTE   W06
 BYTE   N05
 BYTE   W06
 BYTE   N05
 BYTE   W06
 BYTE   N05
 BYTE   W06
 BYTE   N11
 BYTE   W12
 BYTE   N11
 BYTE   W12
 BYTE   N11
 BYTE   W36
// 013   ----------------------------------------
 BYTE   W24
 BYTE   N11
 BYTE   W12
 BYTE   N11
 BYTE   W12
 BYTE   N11
 BYTE   W12
 BYTE   N20  Cn1
 BYTE   W24
 BYTE   N20
 BYTE   W12
// 014   ----------------------------------------
 BYTE   W12
 BYTE   N20
 BYTE   W24
 BYTE   N20
 BYTE   W24
 BYTE   N20
 BYTE   N05  En1
 BYTE   W06
 BYTE   N05
 BYTE   W06
 BYTE   N05
 BYTE   W06
 BYTE   N05
 BYTE   W06
 BYTE   N20  Cn1
 BYTE   N05  En1
 BYTE   W06
 BYTE   N05
 BYTE   W06
// 015   ----------------------------------------
 BYTE   N05
 BYTE   W06
 BYTE   N05
 BYTE   W06
 BYTE   N20  Cn1
 BYTE   N20  En1
 BYTE   W24
 BYTE   Cn1
 BYTE   N20  En1
 BYTE   W24
 BYTE   N11  Cn1
 BYTE   W24
 BYTE   N17  En1
 BYTE   W12
 BYTE   PATT
  POIN2 Label_CourageAndPrideFromTheHeart5_01464C68
 BYTE   PATT
  POIN2 Label_CourageAndPrideFromTheHeart5_01464C68
 BYTE   PATT
  POIN2 Label_CourageAndPrideFromTheHeart5_01464C68
 BYTE   PATT
  POIN2 Label_CourageAndPrideFromTheHeart5_01464C68
 BYTE   PATT
  POIN2 Label_CourageAndPrideFromTheHeart5_01464C68
 BYTE   PATT
  POIN2 Label_CourageAndPrideFromTheHeart5_01464C8E
 BYTE   PATT
  POIN2 Label_CourageAndPrideFromTheHeart5_01464C9F
 BYTE   PATT
  POIN2 Label_CourageAndPrideFromTheHeart5_01464CB2
 BYTE   PATT
  POIN2 Label_CourageAndPrideFromTheHeart5_01464C68
 BYTE   PATT
  POIN2 Label_CourageAndPrideFromTheHeart5_01464C68
 BYTE   PATT
  POIN2 Label_CourageAndPrideFromTheHeart5_01464C68
 BYTE   PATT
  POIN2 Label_CourageAndPrideFromTheHeart5_01464C68
 BYTE   PATT
  POIN2 Label_CourageAndPrideFromTheHeart5_01464C68
 BYTE   PATT
  POIN2 Label_CourageAndPrideFromTheHeart5_01464CDB
 BYTE   PATT
  POIN2 Label_CourageAndPrideFromTheHeart5_01464CEF
// 016   ----------------------------------------
 BYTE   N05  En1  v112
 BYTE   W06
 BYTE   N05
 BYTE   W06
 BYTE   N11
 BYTE   W12
 BYTE   N11
 BYTE   W12
 BYTE   N11
 BYTE   W12
 BYTE   N11
 BYTE   W12
 BYTE   GoTo
  POIN2 Label_CourageAndPrideFromTheHeart5_01464C5A
 BYTE   FINE

//******************************************************//
	ALIGN 4

songCourageAndPrideFromTheHeart:
	BYTE	6	// NumTrks
	BYTE	0	// NumBlks
	BYTE	CourageAndPrideFromTheHeart_pri	// Priority
	BYTE	CourageAndPrideFromTheHeart_rev	// Reverb.
    
	POIN2	CourageAndPrideFromTheHeart_grp
    
	POIN2	CourageAndPrideFromTheHeart_001
	POIN2	CourageAndPrideFromTheHeart_002
	POIN2	CourageAndPrideFromTheHeart_003
	POIN2	CourageAndPrideFromTheHeart_004
	POIN2	CourageAndPrideFromTheHeart_005
	POIN2	CourageAndPrideFromTheHeart_006

	
