//Event file generated from Sappy .s format.
	#include "MPlayDef.event"

	#define	CuttingEdgeOfNotion_grp  voicegroup000
	#define	CuttingEdgeOfNotion_pri  0
	#define	CuttingEdgeOfNotion_rev  0
	#define	CuttingEdgeOfNotion_mvl  150
	#define	CuttingEdgeOfNotion_key  0
	#define	CuttingEdgeOfNotion_tbs  1
	#define	CuttingEdgeOfNotion_exg  0
	#define	CuttingEdgeOfNotion_cmp  1

	// .rodata
	//	CuttingEdgeOfNotion
	ALIGN 4


//**************** Track 1 (Midi-Chn.0) ****************//

CuttingEdgeOfNotion_001:
// 000   ----------------------------------------
 BYTE   VOL   40*CuttingEdgeOfNotion_mvl/mxv
 BYTE   KEYSH   CuttingEdgeOfNotion_key+0
Label_CuttingEdgeOfNotion0_01464E50:
 BYTE   TEMPO   114*CuttingEdgeOfNotion_tbs/2
 BYTE   VOICE   18
 BYTE   N30  Cs4  v100
 BYTE   W12
Label_CuttingEdgeOfNotion0_01464E58:
 BYTE   W18
 BYTE   N06  Bn3  v100
 BYTE   W06
 BYTE   An3
 BYTE   W06
 BYTE   Gs3
 BYTE   W06
 BYTE   N18  Fs3
 BYTE   W18
 BYTE   N06  Gs3
 BYTE   W06
 BYTE   N07  En3
 BYTE   W08
 BYTE   N08  Fs3
 BYTE   W08
 BYTE   Gs3
 BYTE   W08
// 001   ----------------------------------------
 BYTE   N18  An3
 BYTE   W12
 BYTE   PEND 
 BYTE   W06
 BYTE   Bn3
 BYTE   W18
 BYTE   N12  Cs4
 BYTE   W12
 BYTE   N02  An3
 BYTE   W03
 BYTE   N03  As3
 BYTE   W03
 BYTE   N12  Bn3
 BYTE   W12
 BYTE   N24  Fs3
 BYTE   W30
// 002   ----------------------------------------
 BYTE   Gs3
 BYTE   W12
Label_CuttingEdgeOfNotion0_01464E87:
 BYTE   W12
 BYTE   N07  Gs3  v100
 BYTE   W08
 BYTE   N08  An3
 BYTE   W08
 BYTE   Bn3
 BYTE   W08
 BYTE   N18  An3
 BYTE   W18
 BYTE   Cs4
 BYTE   W18
 BYTE   N12  Fs4
 BYTE   W12
// 003   ----------------------------------------
 BYTE   N18  Gs4
 BYTE   W12
 BYTE   PEND 
Label_CuttingEdgeOfNotion0_01464E9D:
 BYTE   W06
 BYTE   N18  An4  v100
 BYTE   W18
 BYTE   N12  En4
 BYTE   W12
 BYTE   N24  Fs4
 BYTE   W24
 BYTE   N06
 BYTE   W06
 BYTE   En4
 BYTE   W06
 BYTE   Dn4
 BYTE   W06
 BYTE   Cs4
 BYTE   W06
// 004   ----------------------------------------
 BYTE   N24  Bn3
 BYTE   W12
 BYTE   PEND 
Label_CuttingEdgeOfNotion0_01464EB4:
 BYTE   W18
 BYTE   N06  Bn3  v100
 BYTE   W06
 BYTE   Cs4
 BYTE   W06
 BYTE   Dn4
 BYTE   W06
 BYTE   N18  Cs4
 BYTE   W18
 BYTE   Fn4
 BYTE   W18
 BYTE   N12  Gs4
 BYTE   W12
// 005   ----------------------------------------
 BYTE   N24  An4
 BYTE   W12
 BYTE   PEND 
Label_CuttingEdgeOfNotion0_01464EC9:
 BYTE   W12
 BYTE   N06  Gs4  v100
 BYTE   W06
 BYTE   An4
 BYTE   W06
 BYTE   Gs4
 BYTE   W06
 BYTE   N48  Fs4
 BYTE   W54
// 006   ----------------------------------------
 BYTE   N06  Bn3
 BYTE   W06
 BYTE   Cs4
 BYTE   W06
 BYTE   PEND 
 BYTE   Dn4
 BYTE   W06
 BYTE   N12  Bn3
 BYTE   W12
 BYTE   N06  Fs4
 BYTE   W06
 BYTE   Dn4
 BYTE   W06
 BYTE   Bn3
 BYTE   W06
 BYTE   N24  Fn4
 BYTE   W24
 BYTE   N07
 BYTE   W08
 BYTE   N08  Fs4
 BYTE   W08
 BYTE   Gs4
 BYTE   W08
// 007   ----------------------------------------
 BYTE   N96  Fs4
 BYTE   W12
 BYTE   W84
// 008   ----------------------------------------
 BYTE   N30  Cs4
 BYTE   W12
 BYTE   PATT
  POIN2 Label_CuttingEdgeOfNotion0_01464E58
// 009   ----------------------------------------
 BYTE   W06
 BYTE   N18  Bn3  v100
 BYTE   W18
 BYTE   N12  Cs4
 BYTE   W12
 BYTE   N18  Bn3
 BYTE   W18
 BYTE   N24  Fs3
 BYTE   W30
 BYTE   Gs3
 BYTE   W12
 BYTE   PATT
  POIN2 Label_CuttingEdgeOfNotion0_01464E87
 BYTE   PATT
  POIN2 Label_CuttingEdgeOfNotion0_01464E9D
 BYTE   PATT
  POIN2 Label_CuttingEdgeOfNotion0_01464EB4
 BYTE   PATT
  POIN2 Label_CuttingEdgeOfNotion0_01464EC9
// 010   ----------------------------------------
 BYTE   N06  Dn4  v100
 BYTE   W06
 BYTE   N12  Bn3
 BYTE   W12
 BYTE   N06  Fs4
 BYTE   W06
 BYTE   Dn4
 BYTE   W06
 BYTE   Bn3
 BYTE   W06
 BYTE   N18  Fn4
 BYTE   W18
 BYTE   Fs4
 BYTE   W18
 BYTE   N12  Gs4
 BYTE   W12
 BYTE   N96  An3
 BYTE   W12
// 011   ----------------------------------------
 BYTE   W84
 BYTE   N48  Gn3
 BYTE   W12
// 012   ----------------------------------------
 BYTE   W36
 BYTE   N18  Cn4
 BYTE   W18
 BYTE   Bn3
 BYTE   W18
 BYTE   N12  Gn3
 BYTE   W12
 BYTE   N48  An3
 BYTE   W12
// 013   ----------------------------------------
 BYTE   W36
 BYTE   N18
 BYTE   W18
 BYTE   Cn4
 BYTE   W18
 BYTE   N12  En4
 BYTE   W12
 BYTE   N48
 BYTE   W12
// 014   ----------------------------------------
 BYTE   W36
 BYTE   N24  Dn4
 BYTE   W24
 BYTE   Bn3
 BYTE   W24
 BYTE   N48  Fn3
 BYTE   W12
// 015   ----------------------------------------
 BYTE   W36
 BYTE   N18  Gn3
 BYTE   W18
 BYTE   An3
 BYTE   W18
 BYTE   N12  Bn3
 BYTE   W12
 BYTE   N18  An3
 BYTE   W12
// 016   ----------------------------------------
 BYTE   W06
 BYTE   Cn4
 BYTE   W18
 BYTE   N12  Bn3
 BYTE   W12
 BYTE   N18  Dn4
 BYTE   W18
 BYTE   Cn4
 BYTE   W18
 BYTE   N12  Bn3
 BYTE   W12
 BYTE   N48  An3
 BYTE   W12
// 017   ----------------------------------------
 BYTE   W36
 BYTE   N18  Bn3
 BYTE   W18
 BYTE   Cn4
 BYTE   W18
 BYTE   N12  Dn4
 BYTE   W12
 BYTE   N48
 BYTE   W12
// 018   ----------------------------------------
 BYTE   W36
 BYTE   Cs4
 BYTE   W48
 BYTE   N06  An3
 BYTE   W06
 BYTE   Gs3
 BYTE   W06
// 019   ----------------------------------------
Label_CuttingEdgeOfNotion0_01464F8D:
 BYTE   N06  An3  v100
 BYTE   W06
 BYTE   Bn3
 BYTE   W12
 BYTE   An3
 BYTE   W12
 BYTE   Gs3
 BYTE   W12
 BYTE   An3
 BYTE   W06
 BYTE   N36
 BYTE   W36
 BYTE   N06
 BYTE   W06
 BYTE   Gs3
 BYTE   W06
 BYTE   PEND 
// 020   ----------------------------------------
Label_CuttingEdgeOfNotion0_01464FA0:
 BYTE   N06  An3  v100
 BYTE   W06
 BYTE   Bn3
 BYTE   W12
 BYTE   An3
 BYTE   W12
 BYTE   Gs3
 BYTE   W12
 BYTE   An3
 BYTE   W06
 BYTE   N36
 BYTE   W36
 BYTE   N18  Bn3
 BYTE   W12
 BYTE   PEND 
// 021   ----------------------------------------
Label_CuttingEdgeOfNotion0_01464FB2:
 BYTE   W06
 BYTE   N18  An3  v100
 BYTE   W18
 BYTE   N12  Bn3
 BYTE   W12
 BYTE   N24  Cs4
 BYTE   W24
 BYTE   Fn4
 BYTE   W24
 BYTE   N06  An3
 BYTE   W06
 BYTE   Gs3
 BYTE   W06
 BYTE   PEND 
 BYTE   PATT
  POIN2 Label_CuttingEdgeOfNotion0_01464F8D
 BYTE   PATT
  POIN2 Label_CuttingEdgeOfNotion0_01464FA0
// 022   ----------------------------------------
Label_CuttingEdgeOfNotion0_01464FCF:
 BYTE   W06
 BYTE   N18  An3  v100
 BYTE   W18
 BYTE   N12  Bn3
 BYTE   W12
 BYTE   N24  Cs4
 BYTE   W24
 BYTE   Fn4
 BYTE   W36
 BYTE   PEND 
// 023   ----------------------------------------
 BYTE   W96
// 024   ----------------------------------------
 BYTE   W96
// 025   ----------------------------------------
 BYTE   W96
// 026   ----------------------------------------
 BYTE   W96
// 027   ----------------------------------------
 BYTE   W96
// 028   ----------------------------------------
 BYTE   W96
// 029   ----------------------------------------
 BYTE   W96
// 030   ----------------------------------------
 BYTE   W36
 BYTE   N06  Dn3
 BYTE   W06
 BYTE   Gn3
 BYTE   W06
 BYTE   An3
 BYTE   W06
 BYTE   Dn4
 BYTE   W06
 BYTE   Gn4
 BYTE   W06
 BYTE   An4
 BYTE   W06
 BYTE   Dn5
 BYTE   W06
 BYTE   Gn5
 BYTE   W06
 BYTE   N24  En4
 BYTE   W12
// 031   ----------------------------------------
Label_CuttingEdgeOfNotion0_01464FF9:
 BYTE   W12
 BYTE   N06  Fs4  v100
 BYTE   W06
 BYTE   Gn4
 BYTE   W06
 BYTE   An4
 BYTE   W06
 BYTE   N24  Bn4
 BYTE   W30
 BYTE   N06
 BYTE   W06
 BYTE   An4
 BYTE   W06
 BYTE   Gn4
 BYTE   W06
 BYTE   Fs4
 BYTE   W06
 BYTE   N24  Gn4
 BYTE   W12
 BYTE   PEND 
// 032   ----------------------------------------
Label_CuttingEdgeOfNotion0_01465011:
 BYTE   W12
 BYTE   N06  Fs4  v100
 BYTE   W06
 BYTE   Gn4
 BYTE   W06
 BYTE   Fs4
 BYTE   W06
 BYTE   N24  En4
 BYTE   W30
 BYTE   N12
 BYTE   W12
 BYTE   Dn4
 BYTE   W12
 BYTE   N24  En4
 BYTE   W12
 BYTE   PEND 
// 033   ----------------------------------------
 BYTE   W12
 BYTE   N06  Fs4
 BYTE   W06
 BYTE   Gn4
 BYTE   W06
 BYTE   An4
 BYTE   W06
 BYTE   N24  Bn4
 BYTE   W30
 BYTE   N06
 BYTE   W06
 BYTE   An4
 BYTE   W06
 BYTE   Gn4
 BYTE   W06
 BYTE   Fs4
 BYTE   W06
 BYTE   En4
 BYTE   W06
 BYTE   Bn4
 BYTE   W06
// 034   ----------------------------------------
 BYTE   An4
 BYTE   W06
 BYTE   Bn4
 BYTE   W06
 BYTE   Gn4
 BYTE   W06
 BYTE   Bn4
 BYTE   W06
 BYTE   Fs4
 BYTE   W06
 BYTE   Bn4
 BYTE   W06
 BYTE   En4
 BYTE   W06
 BYTE   Bn4
 BYTE   W06
 BYTE   Ds4
 BYTE   W06
 BYTE   Bn4
 BYTE   W06
 BYTE   En4
 BYTE   W06
 BYTE   Bn4
 BYTE   W06
 BYTE   Fs4
 BYTE   W06
 BYTE   Bn4
 BYTE   W06
 BYTE   N24  En4
 BYTE   W12
 BYTE   PATT
  POIN2 Label_CuttingEdgeOfNotion0_01464FF9
 BYTE   PATT
  POIN2 Label_CuttingEdgeOfNotion0_01465011
// 035   ----------------------------------------
 BYTE   W12
 BYTE   N06  Fs4  v100
 BYTE   W06
 BYTE   Gn4
 BYTE   W06
 BYTE   An4
 BYTE   W06
 BYTE   N24  Bn4
 BYTE   W30
 BYTE   N06
 BYTE   W06
 BYTE   An4
 BYTE   W06
 BYTE   Gn4
 BYTE   W06
 BYTE   Fs4
 BYTE   W06
 BYTE   Bn2
 BYTE   W06
 BYTE   Ds3
 BYTE   W06
// 036   ----------------------------------------
 BYTE   En3
 BYTE   W06
 BYTE   Fs3
 BYTE   W06
 BYTE   Bn3
 BYTE   W06
 BYTE   Ds4
 BYTE   W06
 BYTE   En4
 BYTE   W06
 BYTE   Fs4
 BYTE   W06
 BYTE   Bn4
 BYTE   W06
 BYTE   Ds5
 BYTE   W06
 BYTE   En5
 BYTE   W06
 BYTE   Fs5
 BYTE   W06
 BYTE   Bn5
 BYTE   W06
 BYTE   Fs5
 BYTE   W06
 BYTE   Ds5
 BYTE   W06
 BYTE   Bn4
 BYTE   W06
 BYTE   An3
 BYTE   W06
 BYTE   Gs3
 BYTE   W06
 BYTE   PATT
  POIN2 Label_CuttingEdgeOfNotion0_01464F8D
 BYTE   PATT
  POIN2 Label_CuttingEdgeOfNotion0_01464FA0
 BYTE   PATT
  POIN2 Label_CuttingEdgeOfNotion0_01464FB2
 BYTE   PATT
  POIN2 Label_CuttingEdgeOfNotion0_01464F8D
 BYTE   PATT
  POIN2 Label_CuttingEdgeOfNotion0_01464FA0
 BYTE   PATT
  POIN2 Label_CuttingEdgeOfNotion0_01464FCF
// 037   ----------------------------------------
 BYTE   W96
// 038   ----------------------------------------
 BYTE   W96
// 039   ----------------------------------------
 BYTE   W96
// 040   ----------------------------------------
 BYTE   W96
// 041   ----------------------------------------
 BYTE   W96
// 042   ----------------------------------------
 BYTE   W96
// 043   ----------------------------------------
 BYTE   W96
// 044   ----------------------------------------
 BYTE   W78
 BYTE   GoTo
  POIN2 Label_CuttingEdgeOfNotion0_01464E50
 BYTE   FINE

//**************** Track 2 (Midi-Chn.1) ****************//

CuttingEdgeOfNotion_002:
// 000   ----------------------------------------
 BYTE   VOL   20*CuttingEdgeOfNotion_mvl/mxv
 BYTE   KEYSH   CuttingEdgeOfNotion_key+0
Label_CuttingEdgeOfNotion1_014650D0:
 BYTE   VOICE   104
 BYTE   N48  Fs2  v100
 BYTE   W12
Label_CuttingEdgeOfNotion1_014650D6:
 BYTE   W36
 BYTE   N48  En2  v100
 BYTE   W48
// 001   ----------------------------------------
 BYTE   An2
 BYTE   W12
 BYTE   PEND 
Label_CuttingEdgeOfNotion1_014650DE:
 BYTE   W36
 BYTE   N48  Bn2  v100
 BYTE   W48
// 002   ----------------------------------------
 BYTE   Cs3
 BYTE   W12
 BYTE   PEND 
Label_CuttingEdgeOfNotion1_014650E6:
 BYTE   W36
 BYTE   N48  Fs2  v100
 BYTE   W48
// 003   ----------------------------------------
 BYTE   N96  Dn2
 BYTE   W12
 BYTE   PEND 
 BYTE   W84
// 004   ----------------------------------------
 BYTE   N48  Bn2
 BYTE   W12
Label_CuttingEdgeOfNotion1_014650F3:
 BYTE   W36
 BYTE   N48  Cs3  v100
 BYTE   W48
// 005   ----------------------------------------
 BYTE   N18  Fs3
 BYTE   W12
 BYTE   PEND 
Label_CuttingEdgeOfNotion1_014650FC:
 BYTE   W12
 BYTE   N12  En3  v100
 BYTE   W18
 BYTE   N48  Dn3
 BYTE   W66
 BYTE   PEND 
// 006   ----------------------------------------
 BYTE   W96
// 007   ----------------------------------------
 BYTE   W84
 BYTE   Fs2
 BYTE   W12
 BYTE   PATT
  POIN2 Label_CuttingEdgeOfNotion1_014650D6
 BYTE   PATT
  POIN2 Label_CuttingEdgeOfNotion1_014650DE
 BYTE   PATT
  POIN2 Label_CuttingEdgeOfNotion1_014650E6
// 008   ----------------------------------------
 BYTE   W84
 BYTE   N48  Bn2  v100
 BYTE   W12
 BYTE   PATT
  POIN2 Label_CuttingEdgeOfNotion1_014650F3
 BYTE   PATT
  POIN2 Label_CuttingEdgeOfNotion1_014650FC
// 009   ----------------------------------------
 BYTE   W84
 BYTE   N18  Cn3  v100
 BYTE   N18  Cn4
 BYTE   W12
// 010   ----------------------------------------
 BYTE   W06
 BYTE   Bn2
 BYTE   N18  Bn3
 BYTE   W18
 BYTE   N12  Cn3
 BYTE   N12  Cn4
 BYTE   W12
 BYTE   N18  Dn3
 BYTE   N18  Dn4
 BYTE   W18
 BYTE   Cn3
 BYTE   N18  Cn4
 BYTE   W18
 BYTE   N12  Bn2
 BYTE   N12  Bn3
 BYTE   W12
 BYTE   N96  Gn2
 BYTE   N96  Gn3
 BYTE   W12
// 011   ----------------------------------------
 BYTE   W84
 BYTE   N48  Fn2
 BYTE   N48  Fn3
 BYTE   W12
// 012   ----------------------------------------
 BYTE   W36
 BYTE   N18  Fn2
 BYTE   N18  Fn3
 BYTE   W18
 BYTE   Bn2
 BYTE   N18  Bn3
 BYTE   W18
 BYTE   N12  Cn3
 BYTE   N12  Cn4
 BYTE   W12
 BYTE   N48  Cn3
 BYTE   N48  Cn4
 BYTE   W12
// 013   ----------------------------------------
 BYTE   W36
 BYTE   N24  Bn2
 BYTE   N24  Bn3
 BYTE   W24
 BYTE   Gn2
 BYTE   N24  Gn3
 BYTE   W24
 BYTE   N48  Fn2
 BYTE   N48  Fn3
 BYTE   W12
// 014   ----------------------------------------
 BYTE   W36
 BYTE   N18  Gn2
 BYTE   N18  Gn3
 BYTE   W18
 BYTE   An2
 BYTE   N18  An3
 BYTE   W18
 BYTE   N12  Bn2
 BYTE   N12  Bn3
 BYTE   W12
 BYTE   N18  An2
 BYTE   N18  An3
 BYTE   W12
// 015   ----------------------------------------
 BYTE   W06
 BYTE   Cn3
 BYTE   N18  Cn4
 BYTE   W18
 BYTE   N12  Bn2
 BYTE   N12  Bn3
 BYTE   W12
 BYTE   N18  Dn3
 BYTE   N18  Dn4
 BYTE   W18
 BYTE   Cn3
 BYTE   N18  Cn4
 BYTE   W18
 BYTE   N12  Bn2
 BYTE   N12  Bn3
 BYTE   W12
 BYTE   N48  An2
 BYTE   N48  An3
 BYTE   W12
// 016   ----------------------------------------
 BYTE   W36
 BYTE   N18  Bn2
 BYTE   N18  Bn3
 BYTE   W18
 BYTE   Cn3
 BYTE   N18  Cn4
 BYTE   W18
 BYTE   N06  Dn3
 BYTE   N06  Dn4
 BYTE   W06
 BYTE   N02  Cn3
 BYTE   N02  Cn4
 BYTE   W03
 BYTE   N03  Cs3
 BYTE   N03  Cs4
 BYTE   W03
 BYTE   N48  Dn3
 BYTE   N48  Dn4
 BYTE   W12
// 017   ----------------------------------------
 BYTE   W36
 BYTE   Cs3
 BYTE   N48  Cs4
 BYTE   W48
 BYTE   N72  Fs3
 BYTE   W12
// 018   ----------------------------------------
Label_CuttingEdgeOfNotion1_014651CB:
 BYTE   W60
 BYTE   N12  Fs3  v100
 BYTE   W12
 BYTE   En3
 BYTE   W12
 BYTE   N96  Dn3
 BYTE   W12
 BYTE   PEND 
// 019   ----------------------------------------
 BYTE   W84
 BYTE   N48  Bn2
 BYTE   W12
// 020   ----------------------------------------
Label_CuttingEdgeOfNotion1_014651DA:
 BYTE   W36
 BYTE   N48  Cs3  v100
 BYTE   W48
 BYTE   N72  Fs3
 BYTE   W12
 BYTE   PEND 
 BYTE   PATT
  POIN2 Label_CuttingEdgeOfNotion1_014651CB
// 021   ----------------------------------------
 BYTE   W84
 BYTE   N48  Bn2  v100
 BYTE   W12
// 022   ----------------------------------------
 BYTE   W36
 BYTE   Cs3
 BYTE   W48
 BYTE   N96  Dn3
 BYTE   W12
// 023   ----------------------------------------
 BYTE   W84
 BYTE   Gn3
 BYTE   W12
// 024   ----------------------------------------
 BYTE   W84
 BYTE   Cn3
 BYTE   W12
// 025   ----------------------------------------
 BYTE   W84
 BYTE   N48  Dn3
 BYTE   W12
// 026   ----------------------------------------
 BYTE   W36
 BYTE   Cn3
 BYTE   W48
 BYTE   N96  Dn3
 BYTE   W12
// 027   ----------------------------------------
 BYTE   W84
 BYTE   Gn3
 BYTE   W12
// 028   ----------------------------------------
 BYTE   W84
 BYTE   Cn3
 BYTE   W12
// 029   ----------------------------------------
 BYTE   W84
 BYTE   Dn3
 BYTE   W12
// 030   ----------------------------------------
 BYTE   W96
// 031   ----------------------------------------
 BYTE   W96
// 032   ----------------------------------------
 BYTE   W96
// 033   ----------------------------------------
 BYTE   W96
// 034   ----------------------------------------
 BYTE   W96
// 035   ----------------------------------------
 BYTE   W96
// 036   ----------------------------------------
 BYTE   W96
// 037   ----------------------------------------
 BYTE   W96
// 038   ----------------------------------------
 BYTE   W84
 BYTE   N72  Fs3
 BYTE   W12
 BYTE   PATT
  POIN2 Label_CuttingEdgeOfNotion1_014651CB
// 039   ----------------------------------------
 BYTE   W84
 BYTE   N48  Bn2  v100
 BYTE   W12
 BYTE   PATT
  POIN2 Label_CuttingEdgeOfNotion1_014651DA
 BYTE   PATT
  POIN2 Label_CuttingEdgeOfNotion1_014651CB
// 040   ----------------------------------------
 BYTE   W84
 BYTE   N48  Bn2  v100
 BYTE   W12
// 041   ----------------------------------------
 BYTE   W36
 BYTE   Cs3
 BYTE   W60
// 042   ----------------------------------------
 BYTE   W96
// 043   ----------------------------------------
 BYTE   W96
// 044   ----------------------------------------
 BYTE   W96
// 045   ----------------------------------------
 BYTE   W96
// 046   ----------------------------------------
 BYTE   W96
// 047   ----------------------------------------
 BYTE   W96
// 048   ----------------------------------------
 BYTE   W96
// 049   ----------------------------------------
 BYTE   W78
 BYTE   GoTo
  POIN2 Label_CuttingEdgeOfNotion1_014650D0
 BYTE   FINE

//**************** Track 3 (Midi-Chn.2) ****************//

CuttingEdgeOfNotion_003:
// 000   ----------------------------------------
 BYTE   VOL   20*CuttingEdgeOfNotion_mvl/mxv
 BYTE   KEYSH   CuttingEdgeOfNotion_key+0
Label_CuttingEdgeOfNotion2_01465248:
 BYTE   VOICE   18
 BYTE   N48  An2  v100
 BYTE   N48  Cs3
 BYTE   N48  Fs3
 BYTE   W12
Label_CuttingEdgeOfNotion2_01465252:
 BYTE   W36
 BYTE   N48  Gs2  v100
 BYTE   N48  Bn2
 BYTE   N48  En3
 BYTE   W48
// 001   ----------------------------------------
 BYTE   An2
 BYTE   N48  Cs3
 BYTE   N48  En3
 BYTE   W12
 BYTE   PEND 
Label_CuttingEdgeOfNotion2_01465262:
 BYTE   W36
 BYTE   N48  Bn2  v100
 BYTE   N48  Ds3
 BYTE   N48  Fs3
 BYTE   W48
// 002   ----------------------------------------
 BYTE   Cs3
 BYTE   N48  Fn3
 BYTE   N48  Gs3
 BYTE   W12
 BYTE   PEND 
Label_CuttingEdgeOfNotion2_01465272:
 BYTE   W36
 BYTE   N48  An2  v100
 BYTE   N48  Cs3
 BYTE   N48  Fs3
 BYTE   W48
// 003   ----------------------------------------
 BYTE   N96  An2
 BYTE   N96  Dn3
 BYTE   N96  Fs3
 BYTE   W12
 BYTE   PEND 
Label_CuttingEdgeOfNotion2_01465283:
 BYTE   W84
// 004   ----------------------------------------
 BYTE   N48  Fs2  v100
 BYTE   N48  Bn2
 BYTE   N48  Dn3
 BYTE   W12
 BYTE   PEND 
Label_CuttingEdgeOfNotion2_0146528D:
 BYTE   W36
 BYTE   N48  Fs2  v100
 BYTE   N48  Gs2
 BYTE   N48  Cs3
 BYTE   W48
// 005   ----------------------------------------
 BYTE   N18  An2
 BYTE   N18  Cs3
 BYTE   N18  Fs3
 BYTE   W12
 BYTE   PEND 
Label_CuttingEdgeOfNotion2_0146529E:
 BYTE   W12
 BYTE   N12  Gs2  v100
 BYTE   N12  Bn2
 BYTE   N12  En3
 BYTE   W18
 BYTE   N48  Fs2
 BYTE   N48  An2
 BYTE   N48  Dn3
 BYTE   W54
// 006   ----------------------------------------
 BYTE   Fs2
 BYTE   N48  Bn2
 BYTE   N48  Dn3
 BYTE   W12
 BYTE   PEND 
 BYTE   W36
 BYTE   Cs3
 BYTE   N48  Fn3
 BYTE   N48  Gs3
 BYTE   W48
// 007   ----------------------------------------
 BYTE   Cs3
 BYTE   N48  Fs3
 BYTE   N48  Bn3
 BYTE   W12
 BYTE   W36
 BYTE   Cs3
 BYTE   N48  Fs3
 BYTE   N48  As3
 BYTE   W48
// 008   ----------------------------------------
 BYTE   An2
 BYTE   N48  Cs3
 BYTE   N48  Fs3
 BYTE   W12
 BYTE   PATT
  POIN2 Label_CuttingEdgeOfNotion2_01465252
 BYTE   PATT
  POIN2 Label_CuttingEdgeOfNotion2_01465262
 BYTE   PATT
  POIN2 Label_CuttingEdgeOfNotion2_01465272
 BYTE   PATT
  POIN2 Label_CuttingEdgeOfNotion2_01465283
 BYTE   PATT
  POIN2 Label_CuttingEdgeOfNotion2_0146528D
 BYTE   PATT
  POIN2 Label_CuttingEdgeOfNotion2_0146529E
// 009   ----------------------------------------
 BYTE   W36
 BYTE   N48  Cs3  v100
 BYTE   N48  Fn3
 BYTE   N48  Gs3
 BYTE   W48
 BYTE   N96  Cn3
 BYTE   N96  En3
 BYTE   N96  An3
 BYTE   W12
// 010   ----------------------------------------
Label_CuttingEdgeOfNotion2_014652FD:
 BYTE   W84
 BYTE   N96  Bn2  v100
 BYTE   N96  Dn3
 BYTE   N96  Gn3
 BYTE   W12
 BYTE   PEND 
// 011   ----------------------------------------
 BYTE   W84
 BYTE   An2
 BYTE   N96  Cn3
 BYTE   N96  Fn3
 BYTE   W12
 BYTE   PATT
  POIN2 Label_CuttingEdgeOfNotion2_014652FD
// 012   ----------------------------------------
 BYTE   W84
 BYTE   N48  An2  v100
 BYTE   N48  Cn3
 BYTE   N48  Fn3
 BYTE   W12
// 013   ----------------------------------------
 BYTE   W36
 BYTE   Bn2
 BYTE   N48  En3
 BYTE   N48  Gn3
 BYTE   W48
 BYTE   Cn3
 BYTE   N48  En3
 BYTE   N48  An3
 BYTE   W12
// 014   ----------------------------------------
 BYTE   W36
 BYTE   Bn2
 BYTE   N48  Dn3
 BYTE   N48  Gn3
 BYTE   W48
 BYTE   An2
 BYTE   N48  Dn3
 BYTE   N48  Fn3
 BYTE   W12
// 015   ----------------------------------------
 BYTE   W36
 BYTE   Bn2
 BYTE   N48  En3
 BYTE   N48  Gn3
 BYTE   W48
 BYTE   Dn3
 BYTE   N48  Gn3
 BYTE   N48  An3
 BYTE   W12
// 016   ----------------------------------------
 BYTE   W36
 BYTE   Cs3
 BYTE   N48  En3
 BYTE   N48  An3
 BYTE   W48
 BYTE   N72  An2
 BYTE   N72  Cs3
 BYTE   N72  Fs3
 BYTE   W12
// 017   ----------------------------------------
Label_CuttingEdgeOfNotion2_01465351:
 BYTE   W60
 BYTE   N12  An2  v100
 BYTE   N12  Cs3
 BYTE   N12  Fs3
 BYTE   W12
 BYTE   Gs2
 BYTE   N12  Bn2
 BYTE   N12  En3
 BYTE   W12
 BYTE   N96  Fs2
 BYTE   N96  An2
 BYTE   N96  Dn3
 BYTE   W12
 BYTE   PEND 
// 018   ----------------------------------------
Label_CuttingEdgeOfNotion2_01465368:
 BYTE   W84
 BYTE   N48  Bn2  v100
 BYTE   N48  Dn3
 BYTE   N48  Fs3
 BYTE   W12
 BYTE   PEND 
// 019   ----------------------------------------
Label_CuttingEdgeOfNotion2_01465372:
 BYTE   W36
 BYTE   N48  Cs3  v100
 BYTE   N48  Fn3
 BYTE   N48  Gs3
 BYTE   W48
 BYTE   N72  An2
 BYTE   N72  Cs3
 BYTE   N72  Fs3
 BYTE   W12
 BYTE   PEND 
 BYTE   PATT
  POIN2 Label_CuttingEdgeOfNotion2_01465351
 BYTE   PATT
  POIN2 Label_CuttingEdgeOfNotion2_01465368
// 020   ----------------------------------------
 BYTE   W36
 BYTE   N48  Cs3  v100
 BYTE   N48  Fn3
 BYTE   N48  Gs3
 BYTE   W48
 BYTE   N96  An2
 BYTE   N96  Dn3
 BYTE   N96  Fn3
 BYTE   W12
// 021   ----------------------------------------
Label_CuttingEdgeOfNotion2_0146539D:
 BYTE   W84
 BYTE   N96  Cn3  v100
 BYTE   N96  En3
 BYTE   N96  Gn3
 BYTE   W12
 BYTE   PEND 
 BYTE   PATT
  POIN2 Label_CuttingEdgeOfNotion2_0146539D
// 022   ----------------------------------------
 BYTE   W84
 BYTE   N48  Dn3  v100
 BYTE   N48  Fn3
 BYTE   N48  An3
 BYTE   W12
// 023   ----------------------------------------
 BYTE   W36
 BYTE   Cn3
 BYTE   N48  En3
 BYTE   N48  Gn3
 BYTE   W48
 BYTE   N96  An2
 BYTE   N96  Dn3
 BYTE   N96  Fn3
 BYTE   W12
// 024   ----------------------------------------
 BYTE   W84
 BYTE   An2
 BYTE   N96  Dn3
 BYTE   N96  Gn3
 BYTE   W12
 BYTE   PATT
  POIN2 Label_CuttingEdgeOfNotion2_0146539D
// 025   ----------------------------------------
 BYTE   W84
 BYTE   N48  Dn3  v100
 BYTE   N48  Gn3
 BYTE   N48  An3
 BYTE   W12
// 026   ----------------------------------------
 BYTE   W36
 BYTE   N48
 BYTE   N48  Dn4
 BYTE   N48  Gn4
 BYTE   W48
 BYTE   N24  En3
 BYTE   N24  Gn3
 BYTE   N24  Bn3
 BYTE   W12
// 027   ----------------------------------------
Label_CuttingEdgeOfNotion2_014653E6:
 BYTE   W12
 BYTE   N18  Dn3  v100
 BYTE   N18  Fs3
 BYTE   N18  An3
 BYTE   W18
 BYTE   N54  Cn3
 BYTE   N54  En3
 BYTE   N54  Gn3
 BYTE   W54
 BYTE   N24  En3
 BYTE   N24  Gn3
 BYTE   N24  Bn3
 BYTE   W12
 BYTE   PEND 
// 028   ----------------------------------------
Label_CuttingEdgeOfNotion2_014653FE:
 BYTE   W12
 BYTE   N18  Dn3  v100
 BYTE   N18  Fs3
 BYTE   N18  An3
 BYTE   W18
 BYTE   N54  En3
 BYTE   N54  Gn3
 BYTE   N54  Cn4
 BYTE   W54
 BYTE   N24  En3
 BYTE   N24  Gn3
 BYTE   N24  Bn3
 BYTE   W12
 BYTE   PEND 
// 029   ----------------------------------------
 BYTE   W12
 BYTE   N18  Dn3
 BYTE   N18  Fs3
 BYTE   N18  An3
 BYTE   W18
 BYTE   N54  Cn3
 BYTE   N54  En3
 BYTE   N54  Gn3
 BYTE   W54
 BYTE   N96  Bn2
 BYTE   N96  Ds3
 BYTE   N96  Fs3
 BYTE   W12
// 030   ----------------------------------------
 BYTE   W84
 BYTE   N24  En3
 BYTE   N24  Gn3
 BYTE   N24  Bn3
 BYTE   W12
 BYTE   PATT
  POIN2 Label_CuttingEdgeOfNotion2_014653E6
 BYTE   PATT
  POIN2 Label_CuttingEdgeOfNotion2_014653FE
// 031   ----------------------------------------
 BYTE   W12
 BYTE   N18  Dn3  v100
 BYTE   N18  Fs3
 BYTE   N18  An3
 BYTE   W18
 BYTE   N54  Cn3
 BYTE   N54  En3
 BYTE   N54  Gn3
 BYTE   W54
 BYTE   N96  Ds3
 BYTE   N96  Fs3
 BYTE   N96  Bn3
 BYTE   W12
// 032   ----------------------------------------
 BYTE   W84
 BYTE   N72  An2
 BYTE   N72  Cs3
 BYTE   N72  Fs3
 BYTE   W12
 BYTE   PATT
  POIN2 Label_CuttingEdgeOfNotion2_01465351
 BYTE   PATT
  POIN2 Label_CuttingEdgeOfNotion2_01465368
 BYTE   PATT
  POIN2 Label_CuttingEdgeOfNotion2_01465372
 BYTE   PATT
  POIN2 Label_CuttingEdgeOfNotion2_01465351
 BYTE   PATT
  POIN2 Label_CuttingEdgeOfNotion2_01465368
// 033   ----------------------------------------
 BYTE   W36
 BYTE   N48  Cs3  v100
 BYTE   N48  Fn3
 BYTE   N48  Gs3
 BYTE   W48
 BYTE   Gs2
 BYTE   N48  Bn2
 BYTE   N48  En3
 BYTE   W12
// 034   ----------------------------------------
Label_CuttingEdgeOfNotion2_01465485:
 BYTE   W36
 BYTE   N48  Fs2  v100
 BYTE   N48  An2
 BYTE   N48  Dn3
 BYTE   W48
 BYTE   N96  En2
 BYTE   N96  Gn2
 BYTE   N96  Cn3
 BYTE   W12
 BYTE   PEND 
// 035   ----------------------------------------
Label_CuttingEdgeOfNotion2_01465496:
 BYTE   W84
 BYTE   N48  Gs2  v100
 BYTE   N48  Bn2
 BYTE   N48  En3
 BYTE   W12
 BYTE   PEND 
// 036   ----------------------------------------
 BYTE   W36
 BYTE   Fs2
 BYTE   N48  An2
 BYTE   N48  Dn3
 BYTE   W48
 BYTE   N96  An2
 BYTE   N96  Cn3
 BYTE   N96  Fn3
 BYTE   W12
 BYTE   PATT
  POIN2 Label_CuttingEdgeOfNotion2_01465496
 BYTE   PATT
  POIN2 Label_CuttingEdgeOfNotion2_01465485
 BYTE   PATT
  POIN2 Label_CuttingEdgeOfNotion2_01465496
// 037   ----------------------------------------
 BYTE   W36
 BYTE   N48  Fs2  v100
 BYTE   N48  An2
 BYTE   N48  Dn3
 BYTE   W48
 BYTE   N88  An2
 BYTE   N88  Cn3
 BYTE   N88  Fn3
 BYTE   W12
// 038   ----------------------------------------
 BYTE   W78
 BYTE   GoTo
  POIN2 Label_CuttingEdgeOfNotion2_01465248
 BYTE   FINE

//**************** Track 4 (Midi-Chn.3) ****************//

CuttingEdgeOfNotion_004:
// 000   ----------------------------------------
 BYTE   VOL   40*CuttingEdgeOfNotion_mvl/mxv
 BYTE   KEYSH   CuttingEdgeOfNotion_key+0
Label_CuttingEdgeOfNotion3_014654D8:
 BYTE   VOICE   18
 BYTE   N30  Cs4  v100
 BYTE   W12
Label_CuttingEdgeOfNotion3_014654DE:
 BYTE   W18
 BYTE   N06  Bn3  v100
 BYTE   W06
 BYTE   An3
 BYTE   W06
 BYTE   Gs3
 BYTE   W06
 BYTE   N18  Fs3
 BYTE   W18
 BYTE   N06  Gs3
 BYTE   W06
 BYTE   N07  En3
 BYTE   W08
 BYTE   N08  Fs3
 BYTE   W08
 BYTE   Gs3
 BYTE   W08
// 001   ----------------------------------------
 BYTE   N18  An3
 BYTE   W12
 BYTE   PEND 
 BYTE   W06
 BYTE   Bn3
 BYTE   W18
 BYTE   N12  Cs4
 BYTE   W12
 BYTE   N02  An3
 BYTE   W03
 BYTE   N03  As3
 BYTE   W03
 BYTE   N12  Bn3
 BYTE   W12
 BYTE   N24  Fs3
 BYTE   W30
// 002   ----------------------------------------
 BYTE   Gs3
 BYTE   W12
Label_CuttingEdgeOfNotion3_0146550D:
 BYTE   W12
 BYTE   N07  Gs3  v100
 BYTE   W08
 BYTE   N08  An3
 BYTE   W08
 BYTE   Bn3
 BYTE   W08
 BYTE   N18  An3
 BYTE   W18
 BYTE   Cs4
 BYTE   W18
 BYTE   N12  Fs4
 BYTE   W12
// 003   ----------------------------------------
 BYTE   N18  Gs4
 BYTE   W12
 BYTE   PEND 
Label_CuttingEdgeOfNotion3_01465523:
 BYTE   W06
 BYTE   N18  An4  v100
 BYTE   W18
 BYTE   N12  En4
 BYTE   W12
 BYTE   N24  Fs4
 BYTE   W24
 BYTE   N06
 BYTE   W06
 BYTE   En4
 BYTE   W06
 BYTE   Dn4
 BYTE   W06
 BYTE   Cs4
 BYTE   W06
// 004   ----------------------------------------
 BYTE   N24  Bn3
 BYTE   W12
 BYTE   PEND 
Label_CuttingEdgeOfNotion3_0146553A:
 BYTE   W18
 BYTE   N06  Bn3  v100
 BYTE   W06
 BYTE   Cs4
 BYTE   W06
 BYTE   Dn4
 BYTE   W06
 BYTE   N18  Cs4
 BYTE   W18
 BYTE   Fn4
 BYTE   W18
 BYTE   N12  Gs4
 BYTE   W12
// 005   ----------------------------------------
 BYTE   N24  An4
 BYTE   W12
 BYTE   PEND 
Label_CuttingEdgeOfNotion3_0146554F:
 BYTE   W12
 BYTE   N06  Gs4  v100
 BYTE   W06
 BYTE   An4
 BYTE   W06
 BYTE   Gs4
 BYTE   W06
 BYTE   N48  Fs4
 BYTE   W54
// 006   ----------------------------------------
 BYTE   N06  Bn3
 BYTE   W06
 BYTE   Cs4
 BYTE   W06
 BYTE   PEND 
 BYTE   Dn4
 BYTE   W06
 BYTE   N12  Bn3
 BYTE   W12
 BYTE   N06  Fs4
 BYTE   W06
 BYTE   Dn4
 BYTE   W06
 BYTE   Bn3
 BYTE   W06
 BYTE   N24  Fn4
 BYTE   W24
 BYTE   N07
 BYTE   W08
 BYTE   N08  Fs4
 BYTE   W08
 BYTE   Gs4
 BYTE   W08
// 007   ----------------------------------------
 BYTE   N96  Fs4
 BYTE   W12
 BYTE   W84
// 008   ----------------------------------------
 BYTE   N30  Cs4
 BYTE   W12
 BYTE   PATT
  POIN2 Label_CuttingEdgeOfNotion3_014654DE
// 009   ----------------------------------------
 BYTE   W06
 BYTE   N18  Bn3  v100
 BYTE   W18
 BYTE   N12  Cs4
 BYTE   W12
 BYTE   N18  Bn3
 BYTE   W18
 BYTE   N24  Fs3
 BYTE   W30
 BYTE   Gs3
 BYTE   W12
 BYTE   PATT
  POIN2 Label_CuttingEdgeOfNotion3_0146550D
 BYTE   PATT
  POIN2 Label_CuttingEdgeOfNotion3_01465523
 BYTE   PATT
  POIN2 Label_CuttingEdgeOfNotion3_0146553A
 BYTE   PATT
  POIN2 Label_CuttingEdgeOfNotion3_0146554F
// 010   ----------------------------------------
 BYTE   N06  Dn4  v100
 BYTE   W06
 BYTE   N12  Bn3
 BYTE   W12
 BYTE   N06  Fs4
 BYTE   W06
 BYTE   Dn4
 BYTE   W06
 BYTE   Bn3
 BYTE   W06
 BYTE   N18  Fn4
 BYTE   W18
 BYTE   Fs4
 BYTE   W18
 BYTE   N12  Gs4
 BYTE   W12
 BYTE   N96  An3
 BYTE   W12
// 011   ----------------------------------------
 BYTE   W84
 BYTE   N48  Gn3
 BYTE   W12
// 012   ----------------------------------------
 BYTE   W36
 BYTE   N18  Cn4
 BYTE   W18
 BYTE   Bn3
 BYTE   W18
 BYTE   N12  Gn3
 BYTE   W12
 BYTE   N48  An3
 BYTE   W12
// 013   ----------------------------------------
 BYTE   W36
 BYTE   N18
 BYTE   W18
 BYTE   Cn4
 BYTE   W18
 BYTE   N12  En4
 BYTE   W12
 BYTE   N48
 BYTE   W12
// 014   ----------------------------------------
 BYTE   W36
 BYTE   N24  Dn4
 BYTE   W24
 BYTE   Bn3
 BYTE   W24
 BYTE   N48  Fn3
 BYTE   W12
// 015   ----------------------------------------
 BYTE   W36
 BYTE   N18  Gn3
 BYTE   W18
 BYTE   An3
 BYTE   W18
 BYTE   N12  Bn3
 BYTE   W12
 BYTE   N18  An3
 BYTE   W12
// 016   ----------------------------------------
 BYTE   W06
 BYTE   Cn4
 BYTE   W18
 BYTE   N12  Bn3
 BYTE   W12
 BYTE   N18  Dn4
 BYTE   W18
 BYTE   Cn4
 BYTE   W18
 BYTE   N12  Bn3
 BYTE   W12
 BYTE   N48  An3
 BYTE   W12
// 017   ----------------------------------------
 BYTE   W36
 BYTE   N18  Bn3
 BYTE   W18
 BYTE   Cn4
 BYTE   W18
 BYTE   N12  Dn4
 BYTE   W12
 BYTE   N48
 BYTE   W12
// 018   ----------------------------------------
 BYTE   W36
 BYTE   Cs4
 BYTE   W60
// 019   ----------------------------------------
 BYTE   W96
// 020   ----------------------------------------
 BYTE   W96
// 021   ----------------------------------------
 BYTE   W96
// 022   ----------------------------------------
 BYTE   W96
// 023   ----------------------------------------
 BYTE   W96
// 024   ----------------------------------------
 BYTE   W96
// 025   ----------------------------------------
 BYTE   W96
// 026   ----------------------------------------
 BYTE   W96
// 027   ----------------------------------------
 BYTE   W96
// 028   ----------------------------------------
 BYTE   W96
// 029   ----------------------------------------
 BYTE   W96
// 030   ----------------------------------------
 BYTE   W96
// 031   ----------------------------------------
 BYTE   W96
// 032   ----------------------------------------
 BYTE   W84
 BYTE   N24  En3
 BYTE   W12
// 033   ----------------------------------------
Label_CuttingEdgeOfNotion3_0146561F:
 BYTE   W12
 BYTE   N06  Fs3  v100
 BYTE   W06
 BYTE   Gn3
 BYTE   W06
 BYTE   An3
 BYTE   W06
 BYTE   N24  Bn3
 BYTE   W30
 BYTE   N06
 BYTE   W06
 BYTE   An3
 BYTE   W06
 BYTE   Gn3
 BYTE   W06
 BYTE   Fs3
 BYTE   W06
 BYTE   N24  Gn3
 BYTE   W12
 BYTE   PEND 
// 034   ----------------------------------------
Label_CuttingEdgeOfNotion3_01465637:
 BYTE   W12
 BYTE   N06  Fs3  v100
 BYTE   W06
 BYTE   Gn3
 BYTE   W06
 BYTE   Fs3
 BYTE   W06
 BYTE   N24  En3
 BYTE   W30
 BYTE   N12
 BYTE   W12
 BYTE   Dn3
 BYTE   W12
 BYTE   N24  En3
 BYTE   W12
 BYTE   PEND 
// 035   ----------------------------------------
 BYTE   W12
 BYTE   N06  Fs3
 BYTE   W06
 BYTE   Gn3
 BYTE   W06
 BYTE   An3
 BYTE   W06
 BYTE   N24  Bn3
 BYTE   W30
 BYTE   N06
 BYTE   W06
 BYTE   An3
 BYTE   W06
 BYTE   Gn3
 BYTE   W06
 BYTE   Fs3
 BYTE   W06
 BYTE   En3
 BYTE   W06
 BYTE   Bn3
 BYTE   W06
// 036   ----------------------------------------
 BYTE   An3
 BYTE   W06
 BYTE   Bn3
 BYTE   W06
 BYTE   Gn3
 BYTE   W06
 BYTE   Bn3
 BYTE   W06
 BYTE   Fs3
 BYTE   W06
 BYTE   Bn3
 BYTE   W06
 BYTE   En3
 BYTE   W06
 BYTE   Bn3
 BYTE   W06
 BYTE   Ds3
 BYTE   W06
 BYTE   Bn3
 BYTE   W06
 BYTE   En3
 BYTE   W06
 BYTE   Bn3
 BYTE   W06
 BYTE   Fs3
 BYTE   W06
 BYTE   Bn3
 BYTE   W06
 BYTE   N24  En3
 BYTE   W12
 BYTE   PATT
  POIN2 Label_CuttingEdgeOfNotion3_0146561F
 BYTE   PATT
  POIN2 Label_CuttingEdgeOfNotion3_01465637
// 037   ----------------------------------------
 BYTE   W12
 BYTE   N06  Fs3  v100
 BYTE   W06
 BYTE   Gn3
 BYTE   W06
 BYTE   An3
 BYTE   W06
 BYTE   N24  Bn3
 BYTE   W30
 BYTE   N06
 BYTE   W06
 BYTE   An3
 BYTE   W06
 BYTE   Gn3
 BYTE   W06
 BYTE   Fs3
 BYTE   W06
 BYTE   Bn2
 BYTE   W06
 BYTE   Ds3
 BYTE   W06
// 038   ----------------------------------------
 BYTE   En3
 BYTE   W06
 BYTE   Fs3
 BYTE   W06
 BYTE   Bn3
 BYTE   W06
 BYTE   Ds4
 BYTE   W06
 BYTE   En4
 BYTE   W06
 BYTE   Fs4
 BYTE   W06
 BYTE   Bn4
 BYTE   W06
 BYTE   Ds5
 BYTE   W06
 BYTE   En5
 BYTE   W06
 BYTE   Fs5
 BYTE   W06
 BYTE   Bn5
 BYTE   W06
 BYTE   Fs5
 BYTE   W06
 BYTE   Ds5
 BYTE   W06
 BYTE   Bn4
 BYTE   W18
// 039   ----------------------------------------
 BYTE   W96
// 040   ----------------------------------------
 BYTE   W96
// 041   ----------------------------------------
 BYTE   W96
// 042   ----------------------------------------
 BYTE   W96
// 043   ----------------------------------------
 BYTE   W96
// 044   ----------------------------------------
 BYTE   W96
// 045   ----------------------------------------
 BYTE   W96
// 046   ----------------------------------------
 BYTE   W96
// 047   ----------------------------------------
 BYTE   W96
// 048   ----------------------------------------
 BYTE   W96
// 049   ----------------------------------------
 BYTE   W96
// 050   ----------------------------------------
 BYTE   W96
// 051   ----------------------------------------
 BYTE   W96
// 052   ----------------------------------------
 BYTE   W78
 BYTE   GoTo
  POIN2 Label_CuttingEdgeOfNotion3_014654D8
 BYTE   FINE

//**************** Track 5 (Midi-Chn.4) ****************//

CuttingEdgeOfNotion_005:
// 000   ----------------------------------------
 BYTE   VOL   20*CuttingEdgeOfNotion_mvl/mxv
 BYTE   KEYSH   CuttingEdgeOfNotion_key+0
Label_CuttingEdgeOfNotion4_014656D8:
 BYTE   VOICE   106
 BYTE   N48  An2  v100
 BYTE   N48  Cs3
 BYTE   N48  Fs3
 BYTE   W12
Label_CuttingEdgeOfNotion4_014656E2:
 BYTE   W36
 BYTE   N48  Gs2  v100
 BYTE   N48  Bn2
 BYTE   N48  En3
 BYTE   W48
// 001   ----------------------------------------
 BYTE   An2
 BYTE   N48  Cs3
 BYTE   N48  En3
 BYTE   W12
 BYTE   PEND 
Label_CuttingEdgeOfNotion4_014656F2:
 BYTE   W36
 BYTE   N48  Bn2  v100
 BYTE   N48  Ds3
 BYTE   N48  Fs3
 BYTE   W48
// 002   ----------------------------------------
 BYTE   Cs3
 BYTE   N48  Fn3
 BYTE   N48  Gs3
 BYTE   W12
 BYTE   PEND 
Label_CuttingEdgeOfNotion4_01465702:
 BYTE   W36
 BYTE   N48  An2  v100
 BYTE   N48  Cs3
 BYTE   N48  Fs3
 BYTE   W48
// 003   ----------------------------------------
 BYTE   N96  An2
 BYTE   N96  Dn3
 BYTE   N96  Fs3
 BYTE   W12
 BYTE   PEND 
Label_CuttingEdgeOfNotion4_01465713:
 BYTE   W84
// 004   ----------------------------------------
 BYTE   N48  Fs2  v100
 BYTE   N48  Bn2
 BYTE   N48  Dn3
 BYTE   W12
 BYTE   PEND 
Label_CuttingEdgeOfNotion4_0146571D:
 BYTE   W36
 BYTE   N48  Fs2  v100
 BYTE   N48  Gs2
 BYTE   N48  Cs3
 BYTE   W48
// 005   ----------------------------------------
 BYTE   N18  An2
 BYTE   N18  Cs3
 BYTE   N18  Fs3
 BYTE   W12
 BYTE   PEND 
Label_CuttingEdgeOfNotion4_0146572E:
 BYTE   W12
 BYTE   N12  Gs2  v100
 BYTE   N12  Bn2
 BYTE   N12  En3
 BYTE   W18
 BYTE   N48  Fs2
 BYTE   N48  An2
 BYTE   N48  Dn3
 BYTE   W54
// 006   ----------------------------------------
 BYTE   Fs2
 BYTE   N48  Bn2
 BYTE   N48  Dn3
 BYTE   W12
 BYTE   PEND 
 BYTE   W36
 BYTE   Cs3
 BYTE   N48  Fn3
 BYTE   N48  Gs3
 BYTE   W48
// 007   ----------------------------------------
 BYTE   Cs3
 BYTE   N48  Fs3
 BYTE   N48  Bn3
 BYTE   W12
 BYTE   W36
 BYTE   Cs3
 BYTE   N48  Fs3
 BYTE   N48  As3
 BYTE   W48
// 008   ----------------------------------------
 BYTE   An2
 BYTE   N48  Cs3
 BYTE   N48  Fs3
 BYTE   W12
 BYTE   PATT
  POIN2 Label_CuttingEdgeOfNotion4_014656E2
 BYTE   PATT
  POIN2 Label_CuttingEdgeOfNotion4_014656F2
 BYTE   PATT
  POIN2 Label_CuttingEdgeOfNotion4_01465702
 BYTE   PATT
  POIN2 Label_CuttingEdgeOfNotion4_01465713
 BYTE   PATT
  POIN2 Label_CuttingEdgeOfNotion4_0146571D
 BYTE   PATT
  POIN2 Label_CuttingEdgeOfNotion4_0146572E
// 009   ----------------------------------------
 BYTE   W36
 BYTE   N48  Cs3  v100
 BYTE   N48  Fn3
 BYTE   N48  Gs3
 BYTE   W48
 BYTE   N96  Cn3
 BYTE   N96  En3
 BYTE   N96  An3
 BYTE   W12
// 010   ----------------------------------------
Label_CuttingEdgeOfNotion4_0146578D:
 BYTE   W84
 BYTE   N96  Bn2  v100
 BYTE   N96  Dn3
 BYTE   N96  Gn3
 BYTE   W12
 BYTE   PEND 
// 011   ----------------------------------------
 BYTE   W84
 BYTE   An2
 BYTE   N96  Cn3
 BYTE   N96  Fn3
 BYTE   W12
 BYTE   PATT
  POIN2 Label_CuttingEdgeOfNotion4_0146578D
// 012   ----------------------------------------
 BYTE   W84
 BYTE   N48  An2  v100
 BYTE   N48  Cn3
 BYTE   N48  Fn3
 BYTE   W12
// 013   ----------------------------------------
 BYTE   W36
 BYTE   Bn2
 BYTE   N48  En3
 BYTE   N48  Gn3
 BYTE   W48
 BYTE   Cn3
 BYTE   N48  En3
 BYTE   N48  An3
 BYTE   W12
// 014   ----------------------------------------
 BYTE   W36
 BYTE   Bn2
 BYTE   N48  Dn3
 BYTE   N48  Gn3
 BYTE   W48
 BYTE   An2
 BYTE   N48  Dn3
 BYTE   N48  Fn3
 BYTE   W12
// 015   ----------------------------------------
 BYTE   W36
 BYTE   Bn2
 BYTE   N48  En3
 BYTE   N48  Gn3
 BYTE   W48
 BYTE   Dn3
 BYTE   N48  Gn3
 BYTE   N48  An3
 BYTE   W12
// 016   ----------------------------------------
 BYTE   W36
 BYTE   Cs3
 BYTE   N48  En3
 BYTE   N48  An3
 BYTE   W48
 BYTE   N72  An2
 BYTE   N72  Cs3
 BYTE   N72  Fs3
 BYTE   W12
// 017   ----------------------------------------
Label_CuttingEdgeOfNotion4_014657E1:
 BYTE   W60
 BYTE   N12  An2  v100
 BYTE   N12  Cs3
 BYTE   N12  Fs3
 BYTE   W12
 BYTE   Gs2
 BYTE   N12  Bn2
 BYTE   N12  En3
 BYTE   W12
 BYTE   N96  Fs2
 BYTE   N96  An2
 BYTE   N96  Dn3
 BYTE   W12
 BYTE   PEND 
// 018   ----------------------------------------
Label_CuttingEdgeOfNotion4_014657F8:
 BYTE   W84
 BYTE   N48  Bn2  v100
 BYTE   N48  Dn3
 BYTE   N48  Fs3
 BYTE   W12
 BYTE   PEND 
// 019   ----------------------------------------
Label_CuttingEdgeOfNotion4_01465802:
 BYTE   W36
 BYTE   N48  Cs3  v100
 BYTE   N48  Fn3
 BYTE   N48  Gs3
 BYTE   W48
 BYTE   N72  An2
 BYTE   N72  Cs3
 BYTE   N72  Fs3
 BYTE   W12
 BYTE   PEND 
 BYTE   PATT
  POIN2 Label_CuttingEdgeOfNotion4_014657E1
 BYTE   PATT
  POIN2 Label_CuttingEdgeOfNotion4_014657F8
// 020   ----------------------------------------
 BYTE   W36
 BYTE   N48  Cs3  v100
 BYTE   N48  Fn3
 BYTE   N48  Gs3
 BYTE   W48
 BYTE   N96  An2
 BYTE   N96  Dn3
 BYTE   N96  Fn3
 BYTE   W12
// 021   ----------------------------------------
Label_CuttingEdgeOfNotion4_0146582D:
 BYTE   W84
 BYTE   N96  Cn3  v100
 BYTE   N96  En3
 BYTE   N96  Gn3
 BYTE   W12
 BYTE   PEND 
 BYTE   PATT
  POIN2 Label_CuttingEdgeOfNotion4_0146582D
// 022   ----------------------------------------
 BYTE   W84
 BYTE   N48  Dn3  v100
 BYTE   N48  Fn3
 BYTE   N48  An3
 BYTE   W12
// 023   ----------------------------------------
 BYTE   W36
 BYTE   Cn3
 BYTE   N48  En3
 BYTE   N48  Gn3
 BYTE   W48
 BYTE   N96  An2
 BYTE   N96  Dn3
 BYTE   N96  Fn3
 BYTE   W12
// 024   ----------------------------------------
 BYTE   W84
 BYTE   An2
 BYTE   N96  Dn3
 BYTE   N96  Gn3
 BYTE   W12
 BYTE   PATT
  POIN2 Label_CuttingEdgeOfNotion4_0146582D
// 025   ----------------------------------------
 BYTE   W84
 BYTE   N48  Dn3  v100
 BYTE   N48  Gn3
 BYTE   N48  An3
 BYTE   W12
// 026   ----------------------------------------
 BYTE   W36
 BYTE   N48
 BYTE   N48  Dn4
 BYTE   N48  Gn4
 BYTE   W48
 BYTE   N24  En3
 BYTE   N24  Gn3
 BYTE   N24  Bn3
 BYTE   W12
// 027   ----------------------------------------
Label_CuttingEdgeOfNotion4_01465876:
 BYTE   W12
 BYTE   N18  Dn3  v100
 BYTE   N18  Fs3
 BYTE   N18  An3
 BYTE   W18
 BYTE   N54  Cn3
 BYTE   N54  En3
 BYTE   N54  Gn3
 BYTE   W54
 BYTE   N24  En3
 BYTE   N24  Gn3
 BYTE   N24  Bn3
 BYTE   W12
 BYTE   PEND 
// 028   ----------------------------------------
Label_CuttingEdgeOfNotion4_0146588E:
 BYTE   W12
 BYTE   N18  Dn3  v100
 BYTE   N18  Fs3
 BYTE   N18  An3
 BYTE   W18
 BYTE   N54  En3
 BYTE   N54  Gn3
 BYTE   N54  Cn4
 BYTE   W54
 BYTE   N24  En3
 BYTE   N24  Gn3
 BYTE   N24  Bn3
 BYTE   W12
 BYTE   PEND 
// 029   ----------------------------------------
 BYTE   W12
 BYTE   N18  Dn3
 BYTE   N18  Fs3
 BYTE   N18  An3
 BYTE   W18
 BYTE   N54  Cn3
 BYTE   N54  En3
 BYTE   N54  Gn3
 BYTE   W54
 BYTE   N96  Bn2
 BYTE   N96  Ds3
 BYTE   N96  Fs3
 BYTE   W12
// 030   ----------------------------------------
 BYTE   W84
 BYTE   N24  En3
 BYTE   N24  Gn3
 BYTE   N24  Bn3
 BYTE   W12
 BYTE   PATT
  POIN2 Label_CuttingEdgeOfNotion4_01465876
 BYTE   PATT
  POIN2 Label_CuttingEdgeOfNotion4_0146588E
// 031   ----------------------------------------
 BYTE   W12
 BYTE   N18  Dn3  v100
 BYTE   N18  Fs3
 BYTE   N18  An3
 BYTE   W18
 BYTE   N54  Cn3
 BYTE   N54  En3
 BYTE   N54  Gn3
 BYTE   W54
 BYTE   N96  Ds3
 BYTE   N96  Fs3
 BYTE   N96  Bn3
 BYTE   W12
// 032   ----------------------------------------
 BYTE   W84
 BYTE   N72  An2
 BYTE   N72  Cs3
 BYTE   N72  Fs3
 BYTE   W12
 BYTE   PATT
  POIN2 Label_CuttingEdgeOfNotion4_014657E1
 BYTE   PATT
  POIN2 Label_CuttingEdgeOfNotion4_014657F8
 BYTE   PATT
  POIN2 Label_CuttingEdgeOfNotion4_01465802
 BYTE   PATT
  POIN2 Label_CuttingEdgeOfNotion4_014657E1
 BYTE   PATT
  POIN2 Label_CuttingEdgeOfNotion4_014657F8
// 033   ----------------------------------------
 BYTE   W36
 BYTE   N48  Cs3  v100
 BYTE   N48  Fn3
 BYTE   N48  Gs3
 BYTE   W48
 BYTE   Gs2
 BYTE   N48  Bn2
 BYTE   N48  En3
 BYTE   W12
// 034   ----------------------------------------
Label_CuttingEdgeOfNotion4_01465915:
 BYTE   W36
 BYTE   N48  Fs2  v100
 BYTE   N48  An2
 BYTE   N48  Dn3
 BYTE   W48
 BYTE   N96  En2
 BYTE   N96  Gn2
 BYTE   N96  Cn3
 BYTE   W12
 BYTE   PEND 
// 035   ----------------------------------------
Label_CuttingEdgeOfNotion4_01465926:
 BYTE   W84
 BYTE   N48  Gs2  v100
 BYTE   N48  Bn2
 BYTE   N48  En3
 BYTE   W12
 BYTE   PEND 
// 036   ----------------------------------------
 BYTE   W36
 BYTE   Fs2
 BYTE   N48  An2
 BYTE   N48  Dn3
 BYTE   W48
 BYTE   N96  An2
 BYTE   N96  Cn3
 BYTE   N96  Fn3
 BYTE   W12
 BYTE   PATT
  POIN2 Label_CuttingEdgeOfNotion4_01465926
 BYTE   PATT
  POIN2 Label_CuttingEdgeOfNotion4_01465915
 BYTE   PATT
  POIN2 Label_CuttingEdgeOfNotion4_01465926
// 037   ----------------------------------------
 BYTE   W36
 BYTE   N48  Fs2  v100
 BYTE   N48  An2
 BYTE   N48  Dn3
 BYTE   W48
 BYTE   N88  An2
 BYTE   N88  Cn3
 BYTE   N88  Fn3
 BYTE   W12
// 038   ----------------------------------------
 BYTE   W78
 BYTE   GoTo
  POIN2 Label_CuttingEdgeOfNotion4_014656D8
 BYTE   FINE

//**************** Track 6 (Midi-Chn.5) ****************//

CuttingEdgeOfNotion_006:
// 000   ----------------------------------------
 BYTE   VOL   40*CuttingEdgeOfNotion_mvl/mxv
 BYTE   KEYSH   CuttingEdgeOfNotion_key+0
Label_CuttingEdgeOfNotion5_01465968:
 BYTE   VOICE   18
 BYTE   W12
 BYTE   W96
// 001   ----------------------------------------
 BYTE   W96
// 002   ----------------------------------------
 BYTE   W96
// 003   ----------------------------------------
 BYTE   W96
// 004   ----------------------------------------
 BYTE   W96
// 005   ----------------------------------------
 BYTE   W96
// 006   ----------------------------------------
 BYTE   W96
// 007   ----------------------------------------
 BYTE   W96
// 008   ----------------------------------------
 BYTE   W96
// 009   ----------------------------------------
 BYTE   W96
// 010   ----------------------------------------
 BYTE   W96
// 011   ----------------------------------------
 BYTE   W96
// 012   ----------------------------------------
 BYTE   W96
// 013   ----------------------------------------
 BYTE   W96
// 014   ----------------------------------------
 BYTE   W96
// 015   ----------------------------------------
 BYTE   W96
// 016   ----------------------------------------
 BYTE   W96
// 017   ----------------------------------------
 BYTE   W96
// 018   ----------------------------------------
 BYTE   W96
// 019   ----------------------------------------
 BYTE   W96
// 020   ----------------------------------------
 BYTE   W96
// 021   ----------------------------------------
 BYTE   W96
// 022   ----------------------------------------
 BYTE   W96
// 023   ----------------------------------------
 BYTE   W96
// 024   ----------------------------------------
 BYTE   W96
// 025   ----------------------------------------
 BYTE   W96
// 026   ----------------------------------------
 BYTE   W96
// 027   ----------------------------------------
 BYTE   W96
// 028   ----------------------------------------
 BYTE   W96
// 029   ----------------------------------------
 BYTE   W96
// 030   ----------------------------------------
 BYTE   W96
// 031   ----------------------------------------
 BYTE   W96
// 032   ----------------------------------------
 BYTE   W96
// 033   ----------------------------------------
 BYTE   W96
// 034   ----------------------------------------
 BYTE   W96
// 035   ----------------------------------------
 BYTE   W96
// 036   ----------------------------------------
 BYTE   W84
 BYTE   N24  En3  v100
 BYTE   W12
// 037   ----------------------------------------
Label_CuttingEdgeOfNotion5_01465994:
 BYTE   W12
 BYTE   N06  Fs3  v100
 BYTE   W06
 BYTE   Gn3
 BYTE   W06
 BYTE   An3
 BYTE   W06
 BYTE   N24  Bn3
 BYTE   W30
 BYTE   N06
 BYTE   W06
 BYTE   An3
 BYTE   W06
 BYTE   Gn3
 BYTE   W06
 BYTE   Fs3
 BYTE   W06
 BYTE   N24  Gn3
 BYTE   W12
 BYTE   PEND 
// 038   ----------------------------------------
Label_CuttingEdgeOfNotion5_014659AC:
 BYTE   W12
 BYTE   N06  Fs3  v100
 BYTE   W06
 BYTE   Gn3
 BYTE   W06
 BYTE   Fs3
 BYTE   W06
 BYTE   N24  En3
 BYTE   W30
 BYTE   N12
 BYTE   W12
 BYTE   Dn3
 BYTE   W12
 BYTE   N24  En3
 BYTE   W12
 BYTE   PEND 
// 039   ----------------------------------------
 BYTE   W12
 BYTE   N06  Fs3
 BYTE   W06
 BYTE   Gn3
 BYTE   W06
 BYTE   An3
 BYTE   W06
 BYTE   N24  Bn3
 BYTE   W30
 BYTE   N06
 BYTE   W06
 BYTE   An3
 BYTE   W06
 BYTE   Gn3
 BYTE   W06
 BYTE   Fs3
 BYTE   W06
 BYTE   En3
 BYTE   W06
 BYTE   Bn3
 BYTE   W06
// 040   ----------------------------------------
 BYTE   An3
 BYTE   W06
 BYTE   Bn3
 BYTE   W06
 BYTE   Gn3
 BYTE   W06
 BYTE   Bn3
 BYTE   W06
 BYTE   Fs3
 BYTE   W06
 BYTE   Bn3
 BYTE   W06
 BYTE   En3
 BYTE   W06
 BYTE   Bn3
 BYTE   W06
 BYTE   Ds3
 BYTE   W06
 BYTE   Bn3
 BYTE   W06
 BYTE   En3
 BYTE   W06
 BYTE   Bn3
 BYTE   W06
 BYTE   Fs3
 BYTE   W06
 BYTE   Bn3
 BYTE   W06
 BYTE   N24  En3
 BYTE   W12
 BYTE   PATT
  POIN2 Label_CuttingEdgeOfNotion5_01465994
 BYTE   PATT
  POIN2 Label_CuttingEdgeOfNotion5_014659AC
// 041   ----------------------------------------
 BYTE   W12
 BYTE   N06  Fs3  v100
 BYTE   W06
 BYTE   Gn3
 BYTE   W06
 BYTE   An3
 BYTE   W06
 BYTE   N24  Bn3
 BYTE   W30
 BYTE   N06
 BYTE   W06
 BYTE   An3
 BYTE   W06
 BYTE   Gn3
 BYTE   W06
 BYTE   Fs3
 BYTE   W06
 BYTE   Bn2
 BYTE   W06
 BYTE   Ds3
 BYTE   W06
// 042   ----------------------------------------
 BYTE   En3
 BYTE   W06
 BYTE   Fs3
 BYTE   W06
 BYTE   Bn3
 BYTE   W06
 BYTE   Ds4
 BYTE   W06
 BYTE   En4
 BYTE   W06
 BYTE   Fs4
 BYTE   W06
 BYTE   Bn4
 BYTE   W06
 BYTE   Ds5
 BYTE   W06
 BYTE   En5
 BYTE   W06
 BYTE   Fs5
 BYTE   W06
 BYTE   Bn5
 BYTE   W06
 BYTE   Fs5
 BYTE   W06
 BYTE   Ds5
 BYTE   W06
 BYTE   Bn4
 BYTE   W18
// 043   ----------------------------------------
 BYTE   W96
// 044   ----------------------------------------
 BYTE   W96
// 045   ----------------------------------------
 BYTE   W96
// 046   ----------------------------------------
 BYTE   W96
// 047   ----------------------------------------
 BYTE   W96
// 048   ----------------------------------------
 BYTE   W80
 BYTE   W01
 BYTE   N03  Gs3
 BYTE   W03
 BYTE   N18  An3
 BYTE   W12
// 049   ----------------------------------------
 BYTE   W06
 BYTE   N24  Gs3
 BYTE   W30
 BYTE   N18
 BYTE   W18
 BYTE   N24  Fs3
 BYTE   W24
 BYTE   W03
 BYTE   N03  En3
 BYTE   W03
 BYTE   N18  Fs3
 BYTE   W12
// 050   ----------------------------------------
 BYTE   W06
 BYTE   N72  En3
 BYTE   W72
 BYTE   W03
 BYTE   N03  Gs3
 BYTE   W03
 BYTE   N18  An3
 BYTE   W12
// 051   ----------------------------------------
 BYTE   W06
 BYTE   N24  Gs3
 BYTE   W30
 BYTE   N18
 BYTE   W18
 BYTE   N24  Fs3
 BYTE   W24
 BYTE   W03
 BYTE   N03  An3
 BYTE   W03
 BYTE   N18  Bn3
 BYTE   W12
// 052   ----------------------------------------
 BYTE   W06
 BYTE   N72  An3
 BYTE   W72
 BYTE   W03
 BYTE   N03  Gs3
 BYTE   W03
 BYTE   N18  En3
 BYTE   N18  An3
 BYTE   W12
// 053   ----------------------------------------
 BYTE   W06
 BYTE   N24  En3
 BYTE   N24  Gs3
 BYTE   W30
 BYTE   N18  Dn3
 BYTE   N18  Gs3
 BYTE   W18
 BYTE   N24  Dn3
 BYTE   N24  Fs3
 BYTE   W24
 BYTE   W03
 BYTE   N03  En3
 BYTE   W03
 BYTE   N18  Cn3
 BYTE   N18  Fs3
 BYTE   W12
// 054   ----------------------------------------
 BYTE   W06
 BYTE   N72  Cn3
 BYTE   N72  En3
 BYTE   W72
 BYTE   W03
 BYTE   N03  Gs3
 BYTE   W03
 BYTE   N18  En3
 BYTE   N18  An3
 BYTE   W12
// 055   ----------------------------------------
 BYTE   W06
 BYTE   N24  En3
 BYTE   N24  Gs3
 BYTE   W30
 BYTE   N18  Dn3
 BYTE   N18  Gs3
 BYTE   W18
 BYTE   N24  Dn3
 BYTE   N24  Fs3
 BYTE   W24
 BYTE   W03
 BYTE   N03  An3
 BYTE   W03
 BYTE   N18  Fn3
 BYTE   N18  Bn3
 BYTE   W12
// 056   ----------------------------------------
 BYTE   W06
 BYTE   N68  Fn3
 BYTE   N68  An3
 BYTE   W72
 BYTE   GoTo
  POIN2 Label_CuttingEdgeOfNotion5_01465968
 BYTE   FINE

//**************** Track 7 (Midi-Chn.6) ****************//

CuttingEdgeOfNotion_007:
// 000   ----------------------------------------
 BYTE   VOL   40*CuttingEdgeOfNotion_mvl/mxv
 BYTE   KEYSH   CuttingEdgeOfNotion_key+0
Label_CuttingEdgeOfNotion6_01465ACC:
 BYTE   VOICE   18
 BYTE   W12
 BYTE   W96
// 001   ----------------------------------------
 BYTE   W96
// 002   ----------------------------------------
 BYTE   W96
// 003   ----------------------------------------
 BYTE   W96
// 004   ----------------------------------------
 BYTE   W96
// 005   ----------------------------------------
 BYTE   W96
// 006   ----------------------------------------
 BYTE   W96
// 007   ----------------------------------------
 BYTE   W96
// 008   ----------------------------------------
 BYTE   W96
// 009   ----------------------------------------
 BYTE   W96
// 010   ----------------------------------------
 BYTE   W96
// 011   ----------------------------------------
 BYTE   W96
// 012   ----------------------------------------
 BYTE   W96
// 013   ----------------------------------------
 BYTE   W96
// 014   ----------------------------------------
 BYTE   W96
// 015   ----------------------------------------
 BYTE   W96
// 016   ----------------------------------------
 BYTE   W96
// 017   ----------------------------------------
 BYTE   W96
// 018   ----------------------------------------
 BYTE   W96
// 019   ----------------------------------------
 BYTE   W96
// 020   ----------------------------------------
 BYTE   W96
// 021   ----------------------------------------
 BYTE   W96
// 022   ----------------------------------------
Label_CuttingEdgeOfNotion6_01465AE5:
 BYTE   W84
 BYTE   N06  Fs3  v100
 BYTE   W06
 BYTE   En3
 BYTE   W06
 BYTE   PEND 
// 023   ----------------------------------------
Label_CuttingEdgeOfNotion6_01465AED:
 BYTE   N06  Fs3  v100
 BYTE   W06
 BYTE   Gs3
 BYTE   W12
 BYTE   Fs3
 BYTE   W12
 BYTE   En3
 BYTE   W12
 BYTE   Fs3
 BYTE   W06
 BYTE   N36
 BYTE   W36
 BYTE   N06
 BYTE   W06
 BYTE   En3
 BYTE   W06
 BYTE   PEND 
// 024   ----------------------------------------
Label_CuttingEdgeOfNotion6_01465B00:
 BYTE   N06  Fs3  v100
 BYTE   W06
 BYTE   Gs3
 BYTE   W12
 BYTE   Fs3
 BYTE   W12
 BYTE   En3
 BYTE   W12
 BYTE   Fs3
 BYTE   W06
 BYTE   N36
 BYTE   W36
 BYTE   N18
 BYTE   W12
 BYTE   PEND 
// 025   ----------------------------------------
Label_CuttingEdgeOfNotion6_01465B11:
 BYTE   W06
 BYTE   N18  En3  v100
 BYTE   W18
 BYTE   N12  Fs3
 BYTE   W12
 BYTE   N24  Gs3
 BYTE   W24
 BYTE   Cs4
 BYTE   W24
 BYTE   N06  Fs3
 BYTE   W06
 BYTE   En3
 BYTE   W06
 BYTE   PEND 
 BYTE   PATT
  POIN2 Label_CuttingEdgeOfNotion6_01465AED
 BYTE   PATT
  POIN2 Label_CuttingEdgeOfNotion6_01465B00
// 026   ----------------------------------------
Label_CuttingEdgeOfNotion6_01465B2E:
 BYTE   W06
 BYTE   N18  En3  v100
 BYTE   W18
 BYTE   N12  Fs3
 BYTE   W12
 BYTE   N24  Gs3
 BYTE   W24
 BYTE   Cs4
 BYTE   W36
 BYTE   PEND 
// 027   ----------------------------------------
 BYTE   W96
// 028   ----------------------------------------
 BYTE   W96
// 029   ----------------------------------------
 BYTE   W96
// 030   ----------------------------------------
 BYTE   W96
// 031   ----------------------------------------
 BYTE   W96
// 032   ----------------------------------------
 BYTE   W96
// 033   ----------------------------------------
 BYTE   W96
// 034   ----------------------------------------
 BYTE   W96
// 035   ----------------------------------------
 BYTE   W96
// 036   ----------------------------------------
 BYTE   W96
// 037   ----------------------------------------
 BYTE   W96
// 038   ----------------------------------------
 BYTE   W96
// 039   ----------------------------------------
 BYTE   W96
// 040   ----------------------------------------
 BYTE   W96
// 041   ----------------------------------------
 BYTE   W96
 BYTE   PATT
  POIN2 Label_CuttingEdgeOfNotion6_01465AE5
 BYTE   PATT
  POIN2 Label_CuttingEdgeOfNotion6_01465AED
 BYTE   PATT
  POIN2 Label_CuttingEdgeOfNotion6_01465B00
 BYTE   PATT
  POIN2 Label_CuttingEdgeOfNotion6_01465B11
 BYTE   PATT
  POIN2 Label_CuttingEdgeOfNotion6_01465AED
 BYTE   PATT
  POIN2 Label_CuttingEdgeOfNotion6_01465B00
 BYTE   PATT
  POIN2 Label_CuttingEdgeOfNotion6_01465B2E
// 042   ----------------------------------------
 BYTE   W96
// 043   ----------------------------------------
 BYTE   W96
// 044   ----------------------------------------
 BYTE   W96
// 045   ----------------------------------------
 BYTE   W96
// 046   ----------------------------------------
 BYTE   W96
// 047   ----------------------------------------
 BYTE   W96
// 048   ----------------------------------------
 BYTE   W96
// 049   ----------------------------------------
 BYTE   W78
 BYTE   GoTo
  POIN2 Label_CuttingEdgeOfNotion6_01465ACC
 BYTE   FINE

//**************** Track 8 (Midi-Chn.7) ****************//

CuttingEdgeOfNotion_008:
// 000   ----------------------------------------
 BYTE   VOL   40*CuttingEdgeOfNotion_mvl/mxv
 BYTE   KEYSH   CuttingEdgeOfNotion_key+0
Label_CuttingEdgeOfNotion7_01465B80:
 BYTE   VOICE   104
 BYTE   W12
 BYTE   W96
// 001   ----------------------------------------
 BYTE   W96
// 002   ----------------------------------------
 BYTE   W96
// 003   ----------------------------------------
 BYTE   W96
// 004   ----------------------------------------
 BYTE   W96
// 005   ----------------------------------------
 BYTE   W96
// 006   ----------------------------------------
 BYTE   W96
// 007   ----------------------------------------
 BYTE   W96
// 008   ----------------------------------------
 BYTE   W96
// 009   ----------------------------------------
 BYTE   W96
// 010   ----------------------------------------
 BYTE   W96
// 011   ----------------------------------------
 BYTE   W96
// 012   ----------------------------------------
 BYTE   W96
// 013   ----------------------------------------
 BYTE   W96
// 014   ----------------------------------------
 BYTE   W96
// 015   ----------------------------------------
 BYTE   W96
// 016   ----------------------------------------
 BYTE   W96
// 017   ----------------------------------------
 BYTE   W96
// 018   ----------------------------------------
 BYTE   W96
// 019   ----------------------------------------
 BYTE   W96
// 020   ----------------------------------------
 BYTE   W96
// 021   ----------------------------------------
 BYTE   W96
// 022   ----------------------------------------
 BYTE   W96
// 023   ----------------------------------------
 BYTE   W96
// 024   ----------------------------------------
 BYTE   W96
// 025   ----------------------------------------
 BYTE   W96
// 026   ----------------------------------------
 BYTE   W96
// 027   ----------------------------------------
 BYTE   W96
// 028   ----------------------------------------
 BYTE   W96
// 029   ----------------------------------------
 BYTE   W96
// 030   ----------------------------------------
 BYTE   W96
// 031   ----------------------------------------
 BYTE   W96
// 032   ----------------------------------------
 BYTE   W96
// 033   ----------------------------------------
 BYTE   W96
// 034   ----------------------------------------
 BYTE   W96
// 035   ----------------------------------------
 BYTE   W96
// 036   ----------------------------------------
 BYTE   W96
// 037   ----------------------------------------
 BYTE   W96
// 038   ----------------------------------------
 BYTE   W96
// 039   ----------------------------------------
 BYTE   W96
// 040   ----------------------------------------
 BYTE   W96
// 041   ----------------------------------------
 BYTE   W96
// 042   ----------------------------------------
 BYTE   W96
// 043   ----------------------------------------
 BYTE   W96
// 044   ----------------------------------------
 BYTE   W96
// 045   ----------------------------------------
 BYTE   W96
// 046   ----------------------------------------
 BYTE   W96
// 047   ----------------------------------------
 BYTE   W96
// 048   ----------------------------------------
 BYTE   W96
// 049   ----------------------------------------
 BYTE   W96
// 050   ----------------------------------------
 BYTE   W80
 BYTE   W01
 BYTE   N03  Gs2  v100
 BYTE   W03
 BYTE   N18  An2
 BYTE   W12
// 051   ----------------------------------------
 BYTE   W06
 BYTE   N24  Gs2
 BYTE   W30
 BYTE   N18
 BYTE   W18
 BYTE   N24  Fs2
 BYTE   W24
 BYTE   W03
 BYTE   N03  En2
 BYTE   W03
 BYTE   N18  Fs2
 BYTE   W12
// 052   ----------------------------------------
 BYTE   W06
 BYTE   N72  En2
 BYTE   W72
 BYTE   W03
 BYTE   N03  Gs2
 BYTE   W03
 BYTE   N18  An2
 BYTE   W12
// 053   ----------------------------------------
 BYTE   W06
 BYTE   N24  Gs2
 BYTE   W30
 BYTE   N18
 BYTE   W18
 BYTE   N24  Fs2
 BYTE   W24
 BYTE   W03
 BYTE   N03  An2
 BYTE   W03
 BYTE   N18  Bn2
 BYTE   W12
// 054   ----------------------------------------
 BYTE   W06
 BYTE   N72  An2
 BYTE   W72
 BYTE   W03
 BYTE   N03  Gs2
 BYTE   W03
 BYTE   N18  En2
 BYTE   N18  An2
 BYTE   W12
// 055   ----------------------------------------
 BYTE   W06
 BYTE   N24  En2
 BYTE   N24  Gs2
 BYTE   W30
 BYTE   N18  Dn2
 BYTE   N18  Gs2
 BYTE   W18
 BYTE   N24  Dn2
 BYTE   N24  Fs2
 BYTE   W24
 BYTE   W03
 BYTE   N03  En2
 BYTE   W03
 BYTE   N18  Cn2
 BYTE   N18  Fs2
 BYTE   W12
// 056   ----------------------------------------
 BYTE   W06
 BYTE   N72  Cn2
 BYTE   N72  En2
 BYTE   W72
 BYTE   W03
 BYTE   N03  Gs2
 BYTE   W03
 BYTE   N18  En2
 BYTE   N18  An2
 BYTE   W12
// 057   ----------------------------------------
 BYTE   W06
 BYTE   N24  En2
 BYTE   N24  Gs2
 BYTE   W30
 BYTE   N18  Dn2
 BYTE   N18  Gs2
 BYTE   W18
 BYTE   N24  Dn2
 BYTE   N24  Fs2
 BYTE   W24
 BYTE   W03
 BYTE   N03  An2
 BYTE   W03
 BYTE   N18  Fn2
 BYTE   N18  Bn2
 BYTE   W12
// 058   ----------------------------------------
 BYTE   W06
 BYTE   N68  Fn2
 BYTE   N68  An2
 BYTE   W72
 BYTE   GoTo
  POIN2 Label_CuttingEdgeOfNotion7_01465B80
 BYTE   FINE

//**************** Track 9 (Midi-Chn.8) ****************//

CuttingEdgeOfNotion_009:
// 000   ----------------------------------------
 BYTE   VOL   40*CuttingEdgeOfNotion_mvl/mxv
 BYTE   KEYSH   CuttingEdgeOfNotion_key+0
Label_CuttingEdgeOfNotion8_01465C48:
 BYTE   VOICE   34
 BYTE   N06  Fs0  v100
 BYTE   W06
 BYTE   N06
 BYTE   W06
Label_CuttingEdgeOfNotion8_01465C50:
 BYTE   N06  Fs1  v100
 BYTE   W06
 BYTE   Cs1
 BYTE   W06
 BYTE   En1
 BYTE   W06
 BYTE   Fs0
 BYTE   W06
 BYTE   Fs1
 BYTE   W06
 BYTE   Fs0
 BYTE   W06
 BYTE   En0
 BYTE   W06
 BYTE   N06
 BYTE   W06
 BYTE   En1
 BYTE   W06
 BYTE   En0
 BYTE   W06
 BYTE   Dn1
 BYTE   W06
 BYTE   En0
 BYTE   W06
 BYTE   En1
 BYTE   W06
 BYTE   En0
 BYTE   W06
// 001   ----------------------------------------
 BYTE   An0
 BYTE   W06
 BYTE   N06
 BYTE   W06
 BYTE   PEND 
Label_CuttingEdgeOfNotion8_01465C73:
 BYTE   N06  An1  v100
 BYTE   W06
 BYTE   An0
 BYTE   W06
 BYTE   N06
 BYTE   W06
 BYTE   En0
 BYTE   W06
 BYTE   Gs0
 BYTE   W06
 BYTE   An0
 BYTE   W06
 BYTE   Bn0
 BYTE   W06
 BYTE   N06
 BYTE   W06
 BYTE   Bn1
 BYTE   W06
 BYTE   Bn0
 BYTE   W06
 BYTE   An1
 BYTE   W06
 BYTE   En0
 BYTE   W06
 BYTE   Bn1
 BYTE   W06
 BYTE   En0
 BYTE   W06
// 002   ----------------------------------------
 BYTE   Cs1
 BYTE   W06
 BYTE   N06
 BYTE   W06
 BYTE   PEND 
Label_CuttingEdgeOfNotion8_01465C96:
 BYTE   N06  Bn1  v100
 BYTE   W06
 BYTE   Cs1
 BYTE   W06
 BYTE   Bn1
 BYTE   W06
 BYTE   Gs0
 BYTE   W06
 BYTE   Cs2
 BYTE   W06
 BYTE   Gs0
 BYTE   W06
 BYTE   Fs0
 BYTE   W06
 BYTE   N06
 BYTE   W06
 BYTE   Fs1
 BYTE   W06
 BYTE   Fs0
 BYTE   W06
 BYTE   N06
 BYTE   W06
 BYTE   Cs0
 BYTE   W06
 BYTE   En0
 BYTE   W06
 BYTE   Fs0
 BYTE   W06
// 003   ----------------------------------------
 BYTE   Dn0
 BYTE   W06
 BYTE   N06
 BYTE   W06
 BYTE   PEND 
Label_CuttingEdgeOfNotion8_01465CB9:
 BYTE   N06  Dn1  v100
 BYTE   W06
 BYTE   En0
 BYTE   W06
 BYTE   Dn0
 BYTE   W06
 BYTE   An0
 BYTE   W06
 BYTE   Cs0
 BYTE   W06
 BYTE   Dn0
 BYTE   W06
 BYTE   N06
 BYTE   W06
 BYTE   N06
 BYTE   W06
 BYTE   Dn1
 BYTE   W06
 BYTE   Dn0
 BYTE   W06
 BYTE   Cs0
 BYTE   W06
 BYTE   N06
 BYTE   W06
 BYTE   Dn1
 BYTE   W06
 BYTE   An0
 BYTE   W06
// 004   ----------------------------------------
 BYTE   Bn0
 BYTE   W06
 BYTE   N06
 BYTE   W06
 BYTE   PEND 
Label_CuttingEdgeOfNotion8_01465CDC:
 BYTE   N06  An1  v100
 BYTE   W06
 BYTE   Bn0
 BYTE   W06
 BYTE   Fs0
 BYTE   W06
 BYTE   N06
 BYTE   W06
 BYTE   Bn0
 BYTE   W06
 BYTE   Fs0
 BYTE   W06
 BYTE   Cs1
 BYTE   W06
 BYTE   N06
 BYTE   W06
 BYTE   Bn0
 BYTE   W06
 BYTE   Cs1
 BYTE   W06
 BYTE   Gs0
 BYTE   W06
 BYTE   N06
 BYTE   W06
 BYTE   Cs1
 BYTE   W06
 BYTE   Gs0
 BYTE   W06
// 005   ----------------------------------------
 BYTE   N24  Fs1
 BYTE   W12
 BYTE   PEND 
Label_CuttingEdgeOfNotion8_01465CFE:
 BYTE   W12
 BYTE   N18  En1  v100
 BYTE   W18
 BYTE   N48  Dn1
 BYTE   W54
// 006   ----------------------------------------
 BYTE   N06  Bn0
 BYTE   W06
 BYTE   N06
 BYTE   W06
 BYTE   PEND 
 BYTE   Fs1
 BYTE   W06
 BYTE   Bn0
 BYTE   W06
 BYTE   N06
 BYTE   W06
 BYTE   Fs1
 BYTE   W06
 BYTE   Dn1
 BYTE   W06
 BYTE   Bn0
 BYTE   W06
 BYTE   Cs1
 BYTE   W06
 BYTE   N06
 BYTE   W06
 BYTE   Cs2
 BYTE   W06
 BYTE   Gn1
 BYTE   W06
 BYTE   Bn1
 BYTE   W06
 BYTE   Gn1
 BYTE   W06
 BYTE   Cs2
 BYTE   W06
 BYTE   Cs1
 BYTE   W06
// 007   ----------------------------------------
 BYTE   Fs1
 BYTE   W06
 BYTE   N06
 BYTE   W06
 BYTE   Fs2
 BYTE   W06
 BYTE   Fs1
 BYTE   W06
 BYTE   N06
 BYTE   W06
 BYTE   N06
 BYTE   W06
 BYTE   Fs2
 BYTE   W06
 BYTE   Fs1
 BYTE   W06
 BYTE   N06
 BYTE   W06
 BYTE   N06
 BYTE   W06
 BYTE   Fs2
 BYTE   W06
 BYTE   Fs1
 BYTE   W06
 BYTE   Cs2
 BYTE   W06
 BYTE   En1
 BYTE   W06
 BYTE   Fs2
 BYTE   W06
 BYTE   Fs1
 BYTE   W06
// 008   ----------------------------------------
 BYTE   Fs0
 BYTE   W06
 BYTE   N06
 BYTE   W06
 BYTE   PATT
  POIN2 Label_CuttingEdgeOfNotion8_01465C50
 BYTE   PATT
  POIN2 Label_CuttingEdgeOfNotion8_01465C73
 BYTE   PATT
  POIN2 Label_CuttingEdgeOfNotion8_01465C96
 BYTE   PATT
  POIN2 Label_CuttingEdgeOfNotion8_01465CB9
 BYTE   PATT
  POIN2 Label_CuttingEdgeOfNotion8_01465CDC
 BYTE   PATT
  POIN2 Label_CuttingEdgeOfNotion8_01465CFE
// 009   ----------------------------------------
 BYTE   N06  Fs1  v100
 BYTE   W06
 BYTE   Bn0
 BYTE   W06
 BYTE   N06
 BYTE   W06
 BYTE   Fs1
 BYTE   W06
 BYTE   Dn1
 BYTE   W06
 BYTE   Bn0
 BYTE   W06
 BYTE   Cs1
 BYTE   W06
 BYTE   N06
 BYTE   W06
 BYTE   Cs2
 BYTE   W06
 BYTE   Gn1
 BYTE   W06
 BYTE   Bn1
 BYTE   W06
 BYTE   Gn1
 BYTE   W06
 BYTE   Cs2
 BYTE   W06
 BYTE   Cs1
 BYTE   W06
 BYTE   An0
 BYTE   W12
// 010   ----------------------------------------
 BYTE   N06
 BYTE   W12
 BYTE   N06
 BYTE   W12
 BYTE   N06
 BYTE   W12
 BYTE   N06
 BYTE   W12
 BYTE   N06
 BYTE   W12
 BYTE   N06
 BYTE   W12
 BYTE   N06
 BYTE   W12
 BYTE   Gn0
 BYTE   W12
// 011   ----------------------------------------
 BYTE   N06
 BYTE   W12
 BYTE   N06
 BYTE   W12
 BYTE   N06
 BYTE   W12
 BYTE   N06
 BYTE   W12
 BYTE   N06
 BYTE   W12
 BYTE   N06
 BYTE   W12
 BYTE   N06
 BYTE   W12
 BYTE   Fn0
 BYTE   W12
// 012   ----------------------------------------
 BYTE   N06
 BYTE   W12
 BYTE   N06
 BYTE   W12
 BYTE   N06
 BYTE   W12
 BYTE   N06
 BYTE   W12
 BYTE   N06
 BYTE   W12
 BYTE   N06
 BYTE   W12
 BYTE   N06
 BYTE   W12
 BYTE   Gn0
 BYTE   W12
// 013   ----------------------------------------
 BYTE   N06
 BYTE   W12
 BYTE   N06
 BYTE   W12
 BYTE   N06
 BYTE   W12
 BYTE   N06
 BYTE   W12
 BYTE   Bn0
 BYTE   W06
 BYTE   Cn1
 BYTE   W06
 BYTE   Dn1
 BYTE   W06
 BYTE   Cn1
 BYTE   W06
 BYTE   Bn0
 BYTE   W06
 BYTE   Gn0
 BYTE   W06
 BYTE   N12  Fn0
 BYTE   W12
// 014   ----------------------------------------
 BYTE   N06  Fn1
 BYTE   W06
 BYTE   Cn1
 BYTE   W06
 BYTE   Fn0
 BYTE   W06
 BYTE   Cn0
 BYTE   W06
 BYTE   N12  Fn1
 BYTE   W12
 BYTE   En0
 BYTE   W12
 BYTE   N06  En1
 BYTE   W06
 BYTE   En0
 BYTE   W06
 BYTE   Dn1
 BYTE   W06
 BYTE   An0
 BYTE   W06
 BYTE   N12  En1
 BYTE   W12
 BYTE   An0
 BYTE   W12
// 015   ----------------------------------------
 BYTE   N06  An1
 BYTE   W06
 BYTE   An0
 BYTE   W06
 BYTE   Gn1
 BYTE   W06
 BYTE   Dn1
 BYTE   W06
 BYTE   N12  An1
 BYTE   W12
 BYTE   Gn0
 BYTE   W12
 BYTE   N06  Dn0
 BYTE   W06
 BYTE   An0
 BYTE   W06
 BYTE   Gn0
 BYTE   W06
 BYTE   Dn0
 BYTE   W06
 BYTE   N12  Gn0
 BYTE   W12
 BYTE   N06  AnM1
 BYTE   W06
 BYTE   Dn0
 BYTE   W06
// 016   ----------------------------------------
 BYTE   Fn0
 BYTE   W06
 BYTE   An0
 BYTE   W06
 BYTE   Dn0
 BYTE   W06
 BYTE   AnM1
 BYTE   W06
 BYTE   N12  An0
 BYTE   W12
 BYTE   N06  BnM1
 BYTE   W06
 BYTE   En0
 BYTE   W06
 BYTE   Gn0
 BYTE   W06
 BYTE   Bn0
 BYTE   W06
 BYTE   Gn0
 BYTE   W06
 BYTE   En0
 BYTE   W06
 BYTE   Bn0
 BYTE   W06
 BYTE   Gn0
 BYTE   W06
 BYTE   An0
 BYTE   W06
 BYTE   N06
 BYTE   W06
// 017   ----------------------------------------
 BYTE   An1
 BYTE   W06
 BYTE   An0
 BYTE   W06
 BYTE   Gn1
 BYTE   W06
 BYTE   An0
 BYTE   W06
 BYTE   An1
 BYTE   W06
 BYTE   En1
 BYTE   W06
 BYTE   An0
 BYTE   W06
 BYTE   N06
 BYTE   W06
 BYTE   An1
 BYTE   W06
 BYTE   An0
 BYTE   W06
 BYTE   Gn1
 BYTE   W06
 BYTE   An0
 BYTE   W06
 BYTE   An1
 BYTE   W06
 BYTE   En1
 BYTE   W06
 BYTE   Fs0
 BYTE   W06
 BYTE   N06
 BYTE   W06
// 018   ----------------------------------------
Label_CuttingEdgeOfNotion8_01465E4C:
 BYTE   N06  Fs1  v100
 BYTE   W06
 BYTE   Fs0
 BYTE   W06
 BYTE   En1
 BYTE   W06
 BYTE   Cs1
 BYTE   W06
 BYTE   Fs1
 BYTE   W06
 BYTE   N12  Fs0
 BYTE   W12
 BYTE   N06
 BYTE   W06
 BYTE   Fs1
 BYTE   W06
 BYTE   Fs0
 BYTE   W06
 BYTE   En1
 BYTE   W06
 BYTE   Cs1
 BYTE   W06
 BYTE   N12  En1
 BYTE   W12
 BYTE   N06  Dn0
 BYTE   W06
 BYTE   N06
 BYTE   W06
 BYTE   PEND 
// 019   ----------------------------------------
Label_CuttingEdgeOfNotion8_01465E6E:
 BYTE   N06  Dn1  v100
 BYTE   W06
 BYTE   Dn0
 BYTE   W06
 BYTE   Cn1
 BYTE   W06
 BYTE   Bn0
 BYTE   W06
 BYTE   Dn1
 BYTE   W06
 BYTE   N12  Dn0
 BYTE   W12
 BYTE   N06
 BYTE   W06
 BYTE   Dn1
 BYTE   W06
 BYTE   Dn0
 BYTE   W06
 BYTE   Cn1
 BYTE   W06
 BYTE   Bn0
 BYTE   W06
 BYTE   Dn1
 BYTE   W06
 BYTE   Dn0
 BYTE   W06
 BYTE   N12  Bn0
 BYTE   W12
 BYTE   PEND 
// 020   ----------------------------------------
Label_CuttingEdgeOfNotion8_01465E8F:
 BYTE   N06  Fs0  v100
 BYTE   W06
 BYTE   Fs1
 BYTE   W06
 BYTE   Bn1
 BYTE   W06
 BYTE   Fs1
 BYTE   W06
 BYTE   Cs1
 BYTE   W06
 BYTE   Bn0
 BYTE   W06
 BYTE   N12  Cs1
 BYTE   W12
 BYTE   N12
 BYTE   W12
 BYTE   N06  Cs2
 BYTE   W06
 BYTE   Gs1
 BYTE   W06
 BYTE   Fn1
 BYTE   W06
 BYTE   Cs1
 BYTE   W06
 BYTE   Fs0
 BYTE   W06
 BYTE   N06
 BYTE   W06
 BYTE   PEND 
 BYTE   PATT
  POIN2 Label_CuttingEdgeOfNotion8_01465E4C
// 021   ----------------------------------------
Label_CuttingEdgeOfNotion8_01465EB5:
 BYTE   N06  Dn1  v100
 BYTE   W06
 BYTE   Dn0
 BYTE   W06
 BYTE   Bn0
 BYTE   W06
 BYTE   Cs1
 BYTE   W06
 BYTE   Dn1
 BYTE   W06
 BYTE   N12  Dn0
 BYTE   W12
 BYTE   N06
 BYTE   W06
 BYTE   Dn1
 BYTE   W06
 BYTE   Dn0
 BYTE   W06
 BYTE   Bn0
 BYTE   W06
 BYTE   Cs1
 BYTE   W06
 BYTE   Dn1
 BYTE   W06
 BYTE   Dn0
 BYTE   W06
 BYTE   N12  Bn0
 BYTE   W12
 BYTE   PEND 
// 022   ----------------------------------------
 BYTE   N06  An0
 BYTE   W06
 BYTE   Bn0
 BYTE   W06
 BYTE   Fs0
 BYTE   W06
 BYTE   Bn1
 BYTE   W06
 BYTE   Fs1
 BYTE   W06
 BYTE   Bn0
 BYTE   W06
 BYTE   N12  Cs1
 BYTE   W12
 BYTE   N06  Bn0
 BYTE   W06
 BYTE   Cs1
 BYTE   W06
 BYTE   Gs0
 BYTE   W06
 BYTE   Gs1
 BYTE   W06
 BYTE   Cs1
 BYTE   W06
 BYTE   Gs0
 BYTE   W06
 BYTE   N12  Dn0
 BYTE   W12
// 023   ----------------------------------------
Label_CuttingEdgeOfNotion8_01465EF6:
 BYTE   N12  Dn0  v100
 BYTE   W12
 BYTE   N06  Cn1
 BYTE   W06
 BYTE   Dn1
 BYTE   W06
 BYTE   An0
 BYTE   W06
 BYTE   N12  Dn0
 BYTE   W12
 BYTE   N12
 BYTE   W12
 BYTE   N06
 BYTE   W06
 BYTE   N12  Cn1
 BYTE   W12
 BYTE   Dn1
 BYTE   W12
 BYTE   Dn0
 BYTE   W12
 BYTE   PEND 
// 024   ----------------------------------------
Label_CuttingEdgeOfNotion8_01465F10:
 BYTE   N12  Dn0  v100
 BYTE   W12
 BYTE   N06  Cn1
 BYTE   W06
 BYTE   Dn1
 BYTE   W06
 BYTE   An0
 BYTE   W06
 BYTE   N12  Dn0
 BYTE   W12
 BYTE   N12
 BYTE   W12
 BYTE   N06
 BYTE   W06
 BYTE   Fn1
 BYTE   W06
 BYTE   En1
 BYTE   W06
 BYTE   Dn1
 BYTE   W06
 BYTE   Cn1
 BYTE   W06
 BYTE   N12  Dn0
 BYTE   W12
 BYTE   PEND 
 BYTE   PATT
  POIN2 Label_CuttingEdgeOfNotion8_01465EF6
// 025   ----------------------------------------
 BYTE   N12  Dn0  v100
 BYTE   W12
 BYTE   N06  Cn1
 BYTE   W06
 BYTE   Dn1
 BYTE   W06
 BYTE   An0
 BYTE   W06
 BYTE   N12  Dn0
 BYTE   W12
 BYTE   N12
 BYTE   W12
 BYTE   N06
 BYTE   W06
 BYTE   En1
 BYTE   W06
 BYTE   Fn1
 BYTE   W06
 BYTE   An0
 BYTE   W06
 BYTE   Fn0
 BYTE   W06
 BYTE   N12  Dn0
 BYTE   W12
 BYTE   PATT
  POIN2 Label_CuttingEdgeOfNotion8_01465EF6
 BYTE   PATT
  POIN2 Label_CuttingEdgeOfNotion8_01465F10
 BYTE   PATT
  POIN2 Label_CuttingEdgeOfNotion8_01465EF6
// 026   ----------------------------------------
 BYTE   N12  Dn0  v100
 BYTE   W12
 BYTE   N06  Cn1
 BYTE   W06
 BYTE   Dn1
 BYTE   W06
 BYTE   An0
 BYTE   W06
 BYTE   N12  Dn0
 BYTE   W12
 BYTE   N12
 BYTE   W12
 BYTE   N06
 BYTE   W06
 BYTE   Dn1
 BYTE   W06
 BYTE   An0
 BYTE   W06
 BYTE   Cn1
 BYTE   W06
 BYTE   Dn1
 BYTE   W06
 BYTE   N12  En0
 BYTE   W12
// 027   ----------------------------------------
Label_CuttingEdgeOfNotion8_01465F7C:
 BYTE   N06  En1  v100
 BYTE   W06
 BYTE   Bn0
 BYTE   W06
 BYTE   Dn1
 BYTE   W06
 BYTE   En1
 BYTE   W06
 BYTE   Dn1
 BYTE   W06
 BYTE   N12  Cn1
 BYTE   W12
 BYTE   N06
 BYTE   W06
 BYTE   N06
 BYTE   W06
 BYTE   N06
 BYTE   W06
 BYTE   N06
 BYTE   W06
 BYTE   N06
 BYTE   W06
 BYTE   N06
 BYTE   W06
 BYTE   N06
 BYTE   W06
 BYTE   N12  En0
 BYTE   W12
 BYTE   PEND 
 BYTE   PATT
  POIN2 Label_CuttingEdgeOfNotion8_01465F7C
// 028   ----------------------------------------
Label_CuttingEdgeOfNotion8_01465FA2:
 BYTE   N06  En1  v100
 BYTE   W06
 BYTE   Bn0
 BYTE   W06
 BYTE   Dn1
 BYTE   W06
 BYTE   En1
 BYTE   W06
 BYTE   Dn1
 BYTE   W06
 BYTE   N12  Cn1
 BYTE   W12
 BYTE   N06
 BYTE   W06
 BYTE   N06
 BYTE   W06
 BYTE   N06
 BYTE   W06
 BYTE   N06
 BYTE   W06
 BYTE   N06
 BYTE   W06
 BYTE   N06
 BYTE   W06
 BYTE   N06
 BYTE   W06
 BYTE   N12  BnM1
 BYTE   W12
 BYTE   PEND 
// 029   ----------------------------------------
 BYTE   An0
 BYTE   W12
 BYTE   N24
 BYTE   W24
 BYTE   Gn0
 BYTE   W24
 BYTE   Fs0
 BYTE   W24
 BYTE   N12  En0
 BYTE   W12
 BYTE   PATT
  POIN2 Label_CuttingEdgeOfNotion8_01465F7C
 BYTE   PATT
  POIN2 Label_CuttingEdgeOfNotion8_01465F7C
 BYTE   PATT
  POIN2 Label_CuttingEdgeOfNotion8_01465FA2
// 030   ----------------------------------------
 BYTE   N12  An0  v100
 BYTE   W12
 BYTE   N24
 BYTE   W24
 BYTE   Gn0
 BYTE   W24
 BYTE   Fs0
 BYTE   W24
 BYTE   N06
 BYTE   W06
 BYTE   N06
 BYTE   W06
 BYTE   PATT
  POIN2 Label_CuttingEdgeOfNotion8_01465E4C
 BYTE   PATT
  POIN2 Label_CuttingEdgeOfNotion8_01465E6E
 BYTE   PATT
  POIN2 Label_CuttingEdgeOfNotion8_01465E8F
 BYTE   PATT
  POIN2 Label_CuttingEdgeOfNotion8_01465E4C
 BYTE   PATT
  POIN2 Label_CuttingEdgeOfNotion8_01465EB5
// 031   ----------------------------------------
 BYTE   N06  An0  v100
 BYTE   W06
 BYTE   Bn0
 BYTE   W06
 BYTE   Fs0
 BYTE   W06
 BYTE   Bn1
 BYTE   W06
 BYTE   Fs1
 BYTE   W06
 BYTE   Bn0
 BYTE   W06
 BYTE   N12  Cs1
 BYTE   W12
 BYTE   N06  Bn0
 BYTE   W06
 BYTE   Cs1
 BYTE   W06
 BYTE   Gs0
 BYTE   W06
 BYTE   Gs1
 BYTE   W06
 BYTE   Cs1
 BYTE   W06
 BYTE   Gs0
 BYTE   W06
 BYTE   En0
 BYTE   W06
 BYTE   N06
 BYTE   W06
// 032   ----------------------------------------
Label_CuttingEdgeOfNotion8_01466026:
 BYTE   N06  En1  v100
 BYTE   W06
 BYTE   Bn0
 BYTE   W06
 BYTE   Dn1
 BYTE   W06
 BYTE   En1
 BYTE   W06
 BYTE   Fn0
 BYTE   W06
 BYTE   En0
 BYTE   W06
 BYTE   N06
 BYTE   W06
 BYTE   N06
 BYTE   W06
 BYTE   En1
 BYTE   W06
 BYTE   Bn0
 BYTE   W06
 BYTE   Dn1
 BYTE   W06
 BYTE   En0
 BYTE   W06
 BYTE   Dn1
 BYTE   W06
 BYTE   En1
 BYTE   W06
 BYTE   En0
 BYTE   W06
 BYTE   N06
 BYTE   W06
 BYTE   PEND 
 BYTE   PATT
  POIN2 Label_CuttingEdgeOfNotion8_01466026
 BYTE   PATT
  POIN2 Label_CuttingEdgeOfNotion8_01466026
 BYTE   PATT
  POIN2 Label_CuttingEdgeOfNotion8_01466026
 BYTE   PATT
  POIN2 Label_CuttingEdgeOfNotion8_01466026
 BYTE   PATT
  POIN2 Label_CuttingEdgeOfNotion8_01466026
// 033   ----------------------------------------
 BYTE   N06  En1  v100
 BYTE   W06
 BYTE   Bn0
 BYTE   W06
 BYTE   Dn1
 BYTE   W06
 BYTE   En1
 BYTE   W06
 BYTE   Fn0
 BYTE   W06
 BYTE   En0
 BYTE   W06
 BYTE   N06
 BYTE   W06
 BYTE   N06
 BYTE   W06
 BYTE   En1
 BYTE   W06
 BYTE   Bn0
 BYTE   W06
 BYTE   Dn1
 BYTE   W06
 BYTE   En0
 BYTE   W06
 BYTE   Dn1
 BYTE   W06
 BYTE   En1
 BYTE   W06
 BYTE   Fn0
 BYTE   W06
 BYTE   N06
 BYTE   W06
// 034   ----------------------------------------
 BYTE   Fn1
 BYTE   W06
 BYTE   Fn0
 BYTE   W06
 BYTE   En1
 BYTE   W06
 BYTE   Cn1
 BYTE   W06
 BYTE   Fn1
 BYTE   W06
 BYTE   Fn0
 BYTE   W06
 BYTE   N06
 BYTE   W06
 BYTE   N06
 BYTE   W06
 BYTE   Fn1
 BYTE   W06
 BYTE   Fn0
 BYTE   W06
 BYTE   En1
 BYTE   W06
 BYTE   Cn1
 BYTE   W06
 BYTE   N05  Fn1
 BYTE   W06
 BYTE   GoTo
  POIN2 Label_CuttingEdgeOfNotion8_01465C48
 BYTE   FINE

//**************** Track 10 (Midi-Chn.9) ****************//

CuttingEdgeOfNotion_010:
// 000   ----------------------------------------
 BYTE   VOL   40*CuttingEdgeOfNotion_mvl/mxv
 BYTE   KEYSH   CuttingEdgeOfNotion_key+0
Label_CuttingEdgeOfNotion9_014660AC:
 BYTE   VOICE   18
 BYTE   N30  Cs4  v100
 BYTE   W12
Label_CuttingEdgeOfNotion9_014660B2:
 BYTE   W18
 BYTE   N06  Bn3  v100
 BYTE   W06
 BYTE   An3
 BYTE   W06
 BYTE   Gs3
 BYTE   W06
 BYTE   N18  Fs3
 BYTE   W18
 BYTE   N06  Gs3
 BYTE   W06
 BYTE   N07  En3
 BYTE   W08
 BYTE   N08  Fs3
 BYTE   W08
 BYTE   Gs3
 BYTE   W08
// 001   ----------------------------------------
 BYTE   N18  An3
 BYTE   W12
 BYTE   PEND 
 BYTE   W06
 BYTE   Bn3
 BYTE   W18
 BYTE   N12  Cs4
 BYTE   W12
 BYTE   N02  An3
 BYTE   W03
 BYTE   N03  As3
 BYTE   W03
 BYTE   N12  Bn3
 BYTE   W12
 BYTE   N24  Fs3
 BYTE   W30
// 002   ----------------------------------------
 BYTE   Gs3
 BYTE   W12
Label_CuttingEdgeOfNotion9_014660E1:
 BYTE   W12
 BYTE   N07  Gs3  v100
 BYTE   W08
 BYTE   N08  An3
 BYTE   W08
 BYTE   Bn3
 BYTE   W08
 BYTE   N18  An3
 BYTE   W18
 BYTE   Cs4
 BYTE   W18
 BYTE   N12  Fs4
 BYTE   W12
// 003   ----------------------------------------
 BYTE   N18  Gs4
 BYTE   W12
 BYTE   PEND 
Label_CuttingEdgeOfNotion9_014660F7:
 BYTE   W06
 BYTE   N18  An4  v100
 BYTE   W18
 BYTE   N12  En4
 BYTE   W12
 BYTE   N24  Fs4
 BYTE   W24
 BYTE   N06
 BYTE   W06
 BYTE   En4
 BYTE   W06
 BYTE   Dn4
 BYTE   W06
 BYTE   Cs4
 BYTE   W06
// 004   ----------------------------------------
 BYTE   N24  Bn3
 BYTE   W12
 BYTE   PEND 
Label_CuttingEdgeOfNotion9_0146610E:
 BYTE   W18
 BYTE   N06  Bn3  v100
 BYTE   W06
 BYTE   Cs4
 BYTE   W06
 BYTE   Dn4
 BYTE   W06
 BYTE   N18  Cs4
 BYTE   W18
 BYTE   Fn4
 BYTE   W18
 BYTE   N12  Gs4
 BYTE   W12
// 005   ----------------------------------------
 BYTE   N24  An4
 BYTE   W12
 BYTE   PEND 
Label_CuttingEdgeOfNotion9_01466123:
 BYTE   W12
 BYTE   N06  Gs4  v100
 BYTE   W06
 BYTE   An4
 BYTE   W06
 BYTE   Gs4
 BYTE   W06
 BYTE   N48  Fs4
 BYTE   W66
 BYTE   PEND 
// 006   ----------------------------------------
 BYTE   W96
// 007   ----------------------------------------
 BYTE   W84
 BYTE   N30  Cs4
 BYTE   W12
 BYTE   PATT
  POIN2 Label_CuttingEdgeOfNotion9_014660B2
// 008   ----------------------------------------
 BYTE   W06
 BYTE   N18  Bn3  v100
 BYTE   W18
 BYTE   N12  Cs4
 BYTE   W12
 BYTE   N18  Bn3
 BYTE   W18
 BYTE   N24  Fs3
 BYTE   W30
 BYTE   Gs3
 BYTE   W12
 BYTE   PATT
  POIN2 Label_CuttingEdgeOfNotion9_014660E1
 BYTE   PATT
  POIN2 Label_CuttingEdgeOfNotion9_014660F7
 BYTE   PATT
  POIN2 Label_CuttingEdgeOfNotion9_0146610E
 BYTE   PATT
  POIN2 Label_CuttingEdgeOfNotion9_01466123
// 009   ----------------------------------------
 BYTE   W96
// 010   ----------------------------------------
 BYTE   W96
// 011   ----------------------------------------
 BYTE   W96
// 012   ----------------------------------------
 BYTE   W96
// 013   ----------------------------------------
 BYTE   W96
// 014   ----------------------------------------
 BYTE   W96
// 015   ----------------------------------------
 BYTE   W96
// 016   ----------------------------------------
 BYTE   W96
// 017   ----------------------------------------
Label_CuttingEdgeOfNotion9_01466166:
 BYTE   W84
 BYTE   N06  Fs3  v100
 BYTE   N06  An3
 BYTE   W06
 BYTE   En3
 BYTE   N06  Gs3
 BYTE   W06
 BYTE   PEND 
// 018   ----------------------------------------
Label_CuttingEdgeOfNotion9_01466172:
 BYTE   N06  Fs3  v100
 BYTE   N06  An3
 BYTE   W06
 BYTE   Gs3
 BYTE   N06  Bn3
 BYTE   W12
 BYTE   Fs3
 BYTE   N06  An3
 BYTE   W12
 BYTE   En3
 BYTE   N06  Gs3
 BYTE   W12
 BYTE   Fs3
 BYTE   N06  An3
 BYTE   W06
 BYTE   N36  Fs3
 BYTE   N36  An3
 BYTE   W36
 BYTE   N06  Fs3
 BYTE   N06  An3
 BYTE   W06
 BYTE   En3
 BYTE   N06  Gs3
 BYTE   W06
 BYTE   PEND 
// 019   ----------------------------------------
Label_CuttingEdgeOfNotion9_01466197:
 BYTE   N06  Fs3  v100
 BYTE   N06  An3
 BYTE   W06
 BYTE   Gs3
 BYTE   N06  Bn3
 BYTE   W12
 BYTE   Fs3
 BYTE   N06  An3
 BYTE   W12
 BYTE   En3
 BYTE   N06  Gs3
 BYTE   W12
 BYTE   Fs3
 BYTE   N06  An3
 BYTE   W06
 BYTE   N36  Fs3
 BYTE   N36  An3
 BYTE   W36
 BYTE   N18  Fs3
 BYTE   N18  Bn3
 BYTE   W12
 BYTE   PEND 
// 020   ----------------------------------------
Label_CuttingEdgeOfNotion9_014661B8:
 BYTE   W06
 BYTE   N18  En3  v100
 BYTE   N18  An3
 BYTE   W18
 BYTE   N12  Fs3
 BYTE   N12  Bn3
 BYTE   W12
 BYTE   N24  Gs3
 BYTE   N24  Cs4
 BYTE   W24
 BYTE   N24
 BYTE   N24  Fn4
 BYTE   W24
 BYTE   N06  Fs3
 BYTE   N06  An3
 BYTE   W06
 BYTE   En3
 BYTE   N06  Gs3
 BYTE   W06
 BYTE   PEND 
 BYTE   PATT
  POIN2 Label_CuttingEdgeOfNotion9_01466172
 BYTE   PATT
  POIN2 Label_CuttingEdgeOfNotion9_01466197
// 021   ----------------------------------------
Label_CuttingEdgeOfNotion9_014661E1:
 BYTE   W06
 BYTE   N18  En3  v100
 BYTE   N18  An3
 BYTE   W18
 BYTE   N12  Fs3
 BYTE   N12  Bn3
 BYTE   W12
 BYTE   N24  Gs3
 BYTE   N24  Cs4
 BYTE   W24
 BYTE   N24
 BYTE   N24  Fn4
 BYTE   W36
 BYTE   PEND 
// 022   ----------------------------------------
 BYTE   W96
// 023   ----------------------------------------
 BYTE   W96
// 024   ----------------------------------------
 BYTE   W96
// 025   ----------------------------------------
 BYTE   W96
// 026   ----------------------------------------
 BYTE   W96
// 027   ----------------------------------------
 BYTE   W96
// 028   ----------------------------------------
 BYTE   W96
// 029   ----------------------------------------
 BYTE   W96
// 030   ----------------------------------------
 BYTE   W96
// 031   ----------------------------------------
 BYTE   W96
// 032   ----------------------------------------
 BYTE   W96
// 033   ----------------------------------------
 BYTE   W96
// 034   ----------------------------------------
 BYTE   W96
// 035   ----------------------------------------
 BYTE   W96
// 036   ----------------------------------------
 BYTE   W96
 BYTE   PATT
  POIN2 Label_CuttingEdgeOfNotion9_01466166
 BYTE   PATT
  POIN2 Label_CuttingEdgeOfNotion9_01466172
 BYTE   PATT
  POIN2 Label_CuttingEdgeOfNotion9_01466197
 BYTE   PATT
  POIN2 Label_CuttingEdgeOfNotion9_014661B8
 BYTE   PATT
  POIN2 Label_CuttingEdgeOfNotion9_01466172
 BYTE   PATT
  POIN2 Label_CuttingEdgeOfNotion9_01466197
 BYTE   PATT
  POIN2 Label_CuttingEdgeOfNotion9_014661E1
// 037   ----------------------------------------
 BYTE   W96
// 038   ----------------------------------------
 BYTE   W96
// 039   ----------------------------------------
 BYTE   W96
// 040   ----------------------------------------
 BYTE   W96
// 041   ----------------------------------------
 BYTE   W96
// 042   ----------------------------------------
 BYTE   W96
// 043   ----------------------------------------
 BYTE   W96
// 044   ----------------------------------------
 BYTE   W78
 BYTE   GoTo
  POIN2 Label_CuttingEdgeOfNotion9_014660AC
 BYTE   FINE

//**************** Track 11 (Midi-Chn.10) ****************//

CuttingEdgeOfNotion_011:
// 000   ----------------------------------------
 BYTE   VOL   40*CuttingEdgeOfNotion_mvl/mxv
 BYTE   KEYSH   CuttingEdgeOfNotion_key+0
Label_CuttingEdgeOfNotion10_0146623C:
 BYTE   VOICE   18
 BYTE   N48  Fs2  v100
 BYTE   W12
Label_CuttingEdgeOfNotion10_01466242:
 BYTE   W36
 BYTE   N48  En2  v100
 BYTE   W48
// 001   ----------------------------------------
 BYTE   An2
 BYTE   W12
 BYTE   PEND 
Label_CuttingEdgeOfNotion10_0146624A:
 BYTE   W36
 BYTE   N48  Bn2  v100
 BYTE   W48
// 002   ----------------------------------------
 BYTE   Cs3
 BYTE   W12
 BYTE   PEND 
Label_CuttingEdgeOfNotion10_01466252:
 BYTE   W36
 BYTE   N48  Fs2  v100
 BYTE   W48
// 003   ----------------------------------------
 BYTE   N96  Dn2
 BYTE   W12
 BYTE   PEND 
 BYTE   W84
// 004   ----------------------------------------
 BYTE   N48  Bn2
 BYTE   W12
Label_CuttingEdgeOfNotion10_0146625F:
 BYTE   W36
 BYTE   N48  Cs3  v100
 BYTE   W48
// 005   ----------------------------------------
 BYTE   N18  Fs3
 BYTE   W12
 BYTE   PEND 
Label_CuttingEdgeOfNotion10_01466268:
 BYTE   W12
 BYTE   N12  En3  v100
 BYTE   W18
 BYTE   N48  Dn3
 BYTE   W54
// 006   ----------------------------------------
 BYTE   N06  Bn2
 BYTE   W06
 BYTE   Cs3
 BYTE   W06
 BYTE   PEND 
 BYTE   Dn3
 BYTE   W06
 BYTE   N12  Bn2
 BYTE   W12
 BYTE   N06  Fs3
 BYTE   W06
 BYTE   Dn3
 BYTE   W06
 BYTE   Bn2
 BYTE   W06
 BYTE   N24  Fn3
 BYTE   W24
 BYTE   N07
 BYTE   W08
 BYTE   N08  Fs3
 BYTE   W08
 BYTE   Gs3
 BYTE   W08
// 007   ----------------------------------------
 BYTE   N96  Fs3
 BYTE   W12
 BYTE   W84
// 008   ----------------------------------------
 BYTE   N48  Fs2
 BYTE   W12
 BYTE   PATT
  POIN2 Label_CuttingEdgeOfNotion10_01466242
 BYTE   PATT
  POIN2 Label_CuttingEdgeOfNotion10_0146624A
 BYTE   PATT
  POIN2 Label_CuttingEdgeOfNotion10_01466252
// 009   ----------------------------------------
 BYTE   W84
 BYTE   N48  Bn2  v100
 BYTE   W12
 BYTE   PATT
  POIN2 Label_CuttingEdgeOfNotion10_0146625F
 BYTE   PATT
  POIN2 Label_CuttingEdgeOfNotion10_01466268
// 010   ----------------------------------------
 BYTE   N06  Dn3  v100
 BYTE   W06
 BYTE   N12  Bn2
 BYTE   W12
 BYTE   N06  Fs3
 BYTE   W06
 BYTE   Dn3
 BYTE   W06
 BYTE   Bn2
 BYTE   W06
 BYTE   N18  Fn3
 BYTE   W18
 BYTE   Fs3
 BYTE   W18
 BYTE   N12  Gs3
 BYTE   W12
 BYTE   N18  Cn4
 BYTE   W12
// 011   ----------------------------------------
 BYTE   W06
 BYTE   Bn3
 BYTE   W18
 BYTE   N12  Cn4
 BYTE   W12
 BYTE   N18  Dn4
 BYTE   W18
 BYTE   Cn4
 BYTE   W18
 BYTE   N12  Bn3
 BYTE   W12
 BYTE   N96  Gn3
 BYTE   W12
// 012   ----------------------------------------
 BYTE   W84
 BYTE   N48  Fn3
 BYTE   W12
// 013   ----------------------------------------
 BYTE   W36
 BYTE   N18
 BYTE   W18
 BYTE   Bn3
 BYTE   W18
 BYTE   N12  Cn4
 BYTE   W12
 BYTE   N48
 BYTE   W12
// 014   ----------------------------------------
 BYTE   W36
 BYTE   N24  Bn3
 BYTE   W24
 BYTE   Gn3
 BYTE   W24
 BYTE   N48  Fn3
 BYTE   W12
// 015   ----------------------------------------
 BYTE   W36
 BYTE   N18  Gn3
 BYTE   W18
 BYTE   An3
 BYTE   W18
 BYTE   N12  Bn3
 BYTE   W12
 BYTE   N18  An3
 BYTE   W12
// 016   ----------------------------------------
 BYTE   W06
 BYTE   Cn4
 BYTE   W18
 BYTE   N12  Bn3
 BYTE   W12
 BYTE   N18  Dn4
 BYTE   W18
 BYTE   Cn4
 BYTE   W18
 BYTE   N12  Bn3
 BYTE   W12
 BYTE   N48  An3
 BYTE   W12
// 017   ----------------------------------------
 BYTE   W36
 BYTE   N18  Bn3
 BYTE   W18
 BYTE   Cn4
 BYTE   W18
 BYTE   N06  Dn4
 BYTE   W06
 BYTE   N02  Cn4
 BYTE   W03
 BYTE   N03  Cs4
 BYTE   W03
 BYTE   N48  Dn4
 BYTE   W12
// 018   ----------------------------------------
 BYTE   W36
 BYTE   Cs4
 BYTE   W48
 BYTE   N72  Fs3
 BYTE   W12
// 019   ----------------------------------------
Label_CuttingEdgeOfNotion10_01466327:
 BYTE   W60
 BYTE   N12  Fs3  v100
 BYTE   W12
 BYTE   En3
 BYTE   W12
 BYTE   N96  Dn3
 BYTE   W12
 BYTE   PEND 
// 020   ----------------------------------------
 BYTE   W84
 BYTE   N48  Bn2
 BYTE   W12
// 021   ----------------------------------------
Label_CuttingEdgeOfNotion10_01466336:
 BYTE   W36
 BYTE   N48  Cs3  v100
 BYTE   W48
 BYTE   N72  Fs3
 BYTE   W12
 BYTE   PEND 
 BYTE   PATT
  POIN2 Label_CuttingEdgeOfNotion10_01466327
// 022   ----------------------------------------
 BYTE   W84
 BYTE   N48  Bn2  v100
 BYTE   W12
// 023   ----------------------------------------
 BYTE   W36
 BYTE   Cs3
 BYTE   W48
 BYTE   N96  Dn3
 BYTE   W12
// 024   ----------------------------------------
 BYTE   W84
 BYTE   Gn3
 BYTE   W12
// 025   ----------------------------------------
 BYTE   W84
 BYTE   Cn3
 BYTE   W12
// 026   ----------------------------------------
 BYTE   W84
 BYTE   N48  Dn3
 BYTE   W12
// 027   ----------------------------------------
 BYTE   W36
 BYTE   Cn3
 BYTE   W48
 BYTE   N96  Dn3
 BYTE   W12
// 028   ----------------------------------------
 BYTE   W84
 BYTE   Gn3
 BYTE   W12
// 029   ----------------------------------------
 BYTE   W84
 BYTE   Cn3
 BYTE   W12
// 030   ----------------------------------------
 BYTE   W84
 BYTE   Dn3
 BYTE   W12
// 031   ----------------------------------------
 BYTE   W84
 BYTE   N24  En3
 BYTE   W12
// 032   ----------------------------------------
Label_CuttingEdgeOfNotion10_0146636C:
 BYTE   W12
 BYTE   N06  Fs3  v100
 BYTE   W06
 BYTE   Gn3
 BYTE   W06
 BYTE   An3
 BYTE   W06
 BYTE   N24  Bn3
 BYTE   W30
 BYTE   N06
 BYTE   W06
 BYTE   An3
 BYTE   W06
 BYTE   Gn3
 BYTE   W06
 BYTE   Fs3
 BYTE   W06
 BYTE   N24  Gn3
 BYTE   W12
 BYTE   PEND 
// 033   ----------------------------------------
Label_CuttingEdgeOfNotion10_01466384:
 BYTE   W12
 BYTE   N06  Fs3  v100
 BYTE   W06
 BYTE   Gn3
 BYTE   W06
 BYTE   Fs3
 BYTE   W06
 BYTE   N24  En3
 BYTE   W30
 BYTE   N12
 BYTE   W12
 BYTE   Dn3
 BYTE   W12
 BYTE   N24  En3
 BYTE   W12
 BYTE   PEND 
// 034   ----------------------------------------
 BYTE   W12
 BYTE   N06  Fs3
 BYTE   W06
 BYTE   Gn3
 BYTE   W06
 BYTE   An3
 BYTE   W06
 BYTE   N24  Bn3
 BYTE   W30
 BYTE   N06
 BYTE   W06
 BYTE   An3
 BYTE   W06
 BYTE   Gn3
 BYTE   W06
 BYTE   Fs3
 BYTE   W06
 BYTE   En3
 BYTE   W06
 BYTE   Bn3
 BYTE   W06
// 035   ----------------------------------------
 BYTE   An3
 BYTE   W06
 BYTE   Bn3
 BYTE   W06
 BYTE   Gn3
 BYTE   W06
 BYTE   Bn3
 BYTE   W06
 BYTE   Fs3
 BYTE   W06
 BYTE   Bn3
 BYTE   W06
 BYTE   En3
 BYTE   W06
 BYTE   Bn3
 BYTE   W06
 BYTE   Ds3
 BYTE   W06
 BYTE   Bn3
 BYTE   W06
 BYTE   En3
 BYTE   W06
 BYTE   Bn3
 BYTE   W06
 BYTE   Fs3
 BYTE   W06
 BYTE   Bn3
 BYTE   W06
 BYTE   N24  En3
 BYTE   W12
 BYTE   PATT
  POIN2 Label_CuttingEdgeOfNotion10_0146636C
 BYTE   PATT
  POIN2 Label_CuttingEdgeOfNotion10_01466384
// 036   ----------------------------------------
 BYTE   W12
 BYTE   N06  Fs3  v100
 BYTE   W06
 BYTE   Gn3
 BYTE   W06
 BYTE   An3
 BYTE   W06
 BYTE   N24  Bn3
 BYTE   W30
 BYTE   N06
 BYTE   W06
 BYTE   An3
 BYTE   W06
 BYTE   Gn3
 BYTE   W06
 BYTE   Fs3
 BYTE   W06
 BYTE   Bn2
 BYTE   W06
 BYTE   Ds3
 BYTE   W06
// 037   ----------------------------------------
 BYTE   En3
 BYTE   W06
 BYTE   Fs3
 BYTE   W06
 BYTE   Bn3
 BYTE   W06
 BYTE   Ds4
 BYTE   W06
 BYTE   En4
 BYTE   W06
 BYTE   Fs4
 BYTE   W06
 BYTE   Bn4
 BYTE   W06
 BYTE   Ds5
 BYTE   W06
 BYTE   En5
 BYTE   W06
 BYTE   Fs5
 BYTE   W06
 BYTE   Bn5
 BYTE   W06
 BYTE   Fs5
 BYTE   W06
 BYTE   Ds5
 BYTE   W06
 BYTE   Bn4
 BYTE   W06
 BYTE   N72  Fs3
 BYTE   W12
 BYTE   PATT
  POIN2 Label_CuttingEdgeOfNotion10_01466327
// 038   ----------------------------------------
 BYTE   W84
 BYTE   N48  Bn2  v100
 BYTE   W12
 BYTE   PATT
  POIN2 Label_CuttingEdgeOfNotion10_01466336
 BYTE   PATT
  POIN2 Label_CuttingEdgeOfNotion10_01466327
// 039   ----------------------------------------
 BYTE   W84
 BYTE   N48  Bn2  v100
 BYTE   W12
// 040   ----------------------------------------
 BYTE   W36
 BYTE   Cs3
 BYTE   W60
// 041   ----------------------------------------
 BYTE   W96
// 042   ----------------------------------------
 BYTE   W96
// 043   ----------------------------------------
 BYTE   W96
// 044   ----------------------------------------
 BYTE   W96
// 045   ----------------------------------------
 BYTE   W96
// 046   ----------------------------------------
 BYTE   W96
// 047   ----------------------------------------
 BYTE   W96
// 048   ----------------------------------------
 BYTE   W78
 BYTE   GoTo
  POIN2 Label_CuttingEdgeOfNotion10_0146623C
 BYTE   FINE

//**************** Track 12 (Midi-Chn.11) ****************//

CuttingEdgeOfNotion_012:
// 000   ----------------------------------------
 BYTE   VOL   40*CuttingEdgeOfNotion_mvl/mxv
 BYTE   KEYSH   CuttingEdgeOfNotion_key+0
Label_CuttingEdgeOfNotion11_01466440:
 BYTE   VOICE   18
 BYTE   N30  Cs4  v100
 BYTE   W12
Label_CuttingEdgeOfNotion11_01466446:
 BYTE   W18
 BYTE   N06  Bn3  v100
 BYTE   W06
 BYTE   An3
 BYTE   W06
 BYTE   Gs3
 BYTE   W06
 BYTE   N18  Fs3
 BYTE   W18
 BYTE   N06  Gs3
 BYTE   W06
 BYTE   N07  En3
 BYTE   W08
 BYTE   N08  Fs3
 BYTE   W08
 BYTE   Gs3
 BYTE   W08
// 001   ----------------------------------------
 BYTE   N18  An3
 BYTE   W12
 BYTE   PEND 
 BYTE   W06
 BYTE   Bn3
 BYTE   W18
 BYTE   N12  Cs4
 BYTE   W12
 BYTE   N02  An3
 BYTE   W03
 BYTE   N03  As3
 BYTE   W03
 BYTE   N12  Bn3
 BYTE   W12
 BYTE   N24  Fs3
 BYTE   W30
// 002   ----------------------------------------
 BYTE   Gs3
 BYTE   W12
Label_CuttingEdgeOfNotion11_01466475:
 BYTE   W12
 BYTE   N07  Gs3  v100
 BYTE   W08
 BYTE   N08  An3
 BYTE   W08
 BYTE   Bn3
 BYTE   W08
 BYTE   N18  An3
 BYTE   W18
 BYTE   Cs4
 BYTE   W18
 BYTE   N12  Fs4
 BYTE   W12
// 003   ----------------------------------------
 BYTE   N18  Gs4
 BYTE   W12
 BYTE   PEND 
Label_CuttingEdgeOfNotion11_0146648B:
 BYTE   W06
 BYTE   N18  An4  v100
 BYTE   W18
 BYTE   N12  En4
 BYTE   W12
 BYTE   N24  Fs4
 BYTE   W24
 BYTE   N06
 BYTE   W06
 BYTE   En4
 BYTE   W06
 BYTE   Dn4
 BYTE   W06
 BYTE   Cs4
 BYTE   W06
// 004   ----------------------------------------
 BYTE   N24  Bn3
 BYTE   W12
 BYTE   PEND 
Label_CuttingEdgeOfNotion11_014664A2:
 BYTE   W18
 BYTE   N06  Bn3  v100
 BYTE   W06
 BYTE   Cs4
 BYTE   W06
 BYTE   Dn4
 BYTE   W06
 BYTE   N18  Cs4
 BYTE   W18
 BYTE   Fn4
 BYTE   W18
 BYTE   N12  Gs4
 BYTE   W12
// 005   ----------------------------------------
 BYTE   N24  An4
 BYTE   W12
 BYTE   PEND 
Label_CuttingEdgeOfNotion11_014664B7:
 BYTE   W12
 BYTE   N06  Gs4  v100
 BYTE   W06
 BYTE   An4
 BYTE   W06
 BYTE   Gs4
 BYTE   W06
 BYTE   N48  Fs4
 BYTE   W54
// 006   ----------------------------------------
 BYTE   N06  Bn3
 BYTE   W06
 BYTE   Cs4
 BYTE   W06
 BYTE   PEND 
 BYTE   Dn4
 BYTE   W06
 BYTE   N12  Bn3
 BYTE   W12
 BYTE   N06  Fs4
 BYTE   W06
 BYTE   Dn4
 BYTE   W06
 BYTE   Bn3
 BYTE   W06
 BYTE   N24  Fn4
 BYTE   W24
 BYTE   N07
 BYTE   W08
 BYTE   N08  Fs4
 BYTE   W08
 BYTE   Gs4
 BYTE   W08
// 007   ----------------------------------------
 BYTE   N96  Fs4
 BYTE   W12
 BYTE   W84
// 008   ----------------------------------------
 BYTE   N30  Cs4
 BYTE   W12
 BYTE   PATT
  POIN2 Label_CuttingEdgeOfNotion11_01466446
// 009   ----------------------------------------
 BYTE   W06
 BYTE   N18  Bn3  v100
 BYTE   W18
 BYTE   N12  Cs4
 BYTE   W12
 BYTE   N18  Bn3
 BYTE   W18
 BYTE   N24  Fs3
 BYTE   W30
 BYTE   Gs3
 BYTE   W12
 BYTE   PATT
  POIN2 Label_CuttingEdgeOfNotion11_01466475
 BYTE   PATT
  POIN2 Label_CuttingEdgeOfNotion11_0146648B
 BYTE   PATT
  POIN2 Label_CuttingEdgeOfNotion11_014664A2
 BYTE   PATT
  POIN2 Label_CuttingEdgeOfNotion11_014664B7
// 010   ----------------------------------------
 BYTE   N06  Dn4  v100
 BYTE   W06
 BYTE   N12  Bn3
 BYTE   W12
 BYTE   N06  Fs4
 BYTE   W06
 BYTE   Dn4
 BYTE   W06
 BYTE   Bn3
 BYTE   W06
 BYTE   N18  Fn4
 BYTE   W18
 BYTE   Fs4
 BYTE   W18
 BYTE   N12  Gs4
 BYTE   W12
 BYTE   N96  An3
 BYTE   W12
// 011   ----------------------------------------
 BYTE   W84
 BYTE   N48  Gn3
 BYTE   W12
// 012   ----------------------------------------
 BYTE   W36
 BYTE   N18  Cn4
 BYTE   W18
 BYTE   Bn3
 BYTE   W18
 BYTE   N12  Gn3
 BYTE   W12
 BYTE   N48  An3
 BYTE   W12
// 013   ----------------------------------------
 BYTE   W36
 BYTE   N18
 BYTE   W18
 BYTE   Cn4
 BYTE   W18
 BYTE   N12  En4
 BYTE   W12
 BYTE   N48
 BYTE   W12
// 014   ----------------------------------------
 BYTE   W36
 BYTE   N24  Dn4
 BYTE   W24
 BYTE   Bn3
 BYTE   W24
 BYTE   N48  Fn3
 BYTE   W12
// 015   ----------------------------------------
 BYTE   W36
 BYTE   N18  Gn3
 BYTE   W18
 BYTE   An3
 BYTE   W18
 BYTE   N12  Bn3
 BYTE   W12
 BYTE   N18  An3
 BYTE   W12
// 016   ----------------------------------------
 BYTE   W06
 BYTE   Cn4
 BYTE   W18
 BYTE   N12  Bn3
 BYTE   W12
 BYTE   N18  Dn4
 BYTE   W18
 BYTE   Cn4
 BYTE   W18
 BYTE   N12  Bn3
 BYTE   W12
 BYTE   N48  An3
 BYTE   W12
// 017   ----------------------------------------
 BYTE   W36
 BYTE   N18  Bn3
 BYTE   W18
 BYTE   Cn4
 BYTE   W18
 BYTE   N12  Dn4
 BYTE   W12
 BYTE   N48
 BYTE   W12
// 018   ----------------------------------------
 BYTE   W36
 BYTE   Cs4
 BYTE   W48
 BYTE   N06  An3
 BYTE   W06
 BYTE   Gs3
 BYTE   W06
// 019   ----------------------------------------
Label_CuttingEdgeOfNotion11_0146657B:
 BYTE   N06  An3  v100
 BYTE   W06
 BYTE   Bn3
 BYTE   W12
 BYTE   An3
 BYTE   W12
 BYTE   Gs3
 BYTE   W12
 BYTE   An3
 BYTE   W06
 BYTE   N36
 BYTE   W36
 BYTE   N06
 BYTE   W06
 BYTE   Gs3
 BYTE   W06
 BYTE   PEND 
// 020   ----------------------------------------
Label_CuttingEdgeOfNotion11_0146658E:
 BYTE   N06  An3  v100
 BYTE   W06
 BYTE   Bn3
 BYTE   W12
 BYTE   An3
 BYTE   W12
 BYTE   Gs3
 BYTE   W12
 BYTE   An3
 BYTE   W06
 BYTE   N36
 BYTE   W36
 BYTE   N18  Bn3
 BYTE   W12
 BYTE   PEND 
// 021   ----------------------------------------
Label_CuttingEdgeOfNotion11_014665A0:
 BYTE   W06
 BYTE   N18  An3  v100
 BYTE   W18
 BYTE   N12  Bn3
 BYTE   W12
 BYTE   N24  Cs4
 BYTE   W24
 BYTE   Fn4
 BYTE   W24
 BYTE   N06  An3
 BYTE   W06
 BYTE   Gs3
 BYTE   W06
 BYTE   PEND 
 BYTE   PATT
  POIN2 Label_CuttingEdgeOfNotion11_0146657B
 BYTE   PATT
  POIN2 Label_CuttingEdgeOfNotion11_0146658E
// 022   ----------------------------------------
Label_CuttingEdgeOfNotion11_014665BD:
 BYTE   W06
 BYTE   N18  An3  v100
 BYTE   W18
 BYTE   N12  Bn3
 BYTE   W12
 BYTE   N24  Cs4
 BYTE   W24
 BYTE   Fn4
 BYTE   W36
 BYTE   PEND 
// 023   ----------------------------------------
 BYTE   W96
// 024   ----------------------------------------
 BYTE   W96
// 025   ----------------------------------------
 BYTE   W96
// 026   ----------------------------------------
 BYTE   W96
// 027   ----------------------------------------
 BYTE   W96
// 028   ----------------------------------------
 BYTE   W96
// 029   ----------------------------------------
 BYTE   W96
// 030   ----------------------------------------
 BYTE   W84
 BYTE   En3
 BYTE   W12
// 031   ----------------------------------------
Label_CuttingEdgeOfNotion11_014665D5:
 BYTE   W12
 BYTE   N06  Fs3  v100
 BYTE   W06
 BYTE   Gn3
 BYTE   W06
 BYTE   An3
 BYTE   W06
 BYTE   N24  Bn3
 BYTE   W30
 BYTE   N06
 BYTE   W06
 BYTE   An3
 BYTE   W06
 BYTE   Gn3
 BYTE   W06
 BYTE   Fs3
 BYTE   W06
 BYTE   N24  Gn3
 BYTE   W12
 BYTE   PEND 
// 032   ----------------------------------------
Label_CuttingEdgeOfNotion11_014665ED:
 BYTE   W12
 BYTE   N06  Fs3  v100
 BYTE   W06
 BYTE   Gn3
 BYTE   W06
 BYTE   Fs3
 BYTE   W06
 BYTE   N24  En3
 BYTE   W30
 BYTE   N12
 BYTE   W12
 BYTE   Dn3
 BYTE   W12
 BYTE   N24  En3
 BYTE   W12
 BYTE   PEND 
// 033   ----------------------------------------
 BYTE   W12
 BYTE   N06  Fs3
 BYTE   W06
 BYTE   Gn3
 BYTE   W06
 BYTE   An3
 BYTE   W06
 BYTE   N24  Bn3
 BYTE   W30
 BYTE   N06
 BYTE   W06
 BYTE   An3
 BYTE   W06
 BYTE   Gn3
 BYTE   W06
 BYTE   Fs3
 BYTE   W06
 BYTE   En3
 BYTE   W06
 BYTE   Bn3
 BYTE   W06
// 034   ----------------------------------------
 BYTE   An3
 BYTE   W06
 BYTE   Bn3
 BYTE   W06
 BYTE   Gn3
 BYTE   W06
 BYTE   Bn3
 BYTE   W06
 BYTE   Fs3
 BYTE   W06
 BYTE   Bn3
 BYTE   W06
 BYTE   En3
 BYTE   W06
 BYTE   Bn3
 BYTE   W06
 BYTE   Ds3
 BYTE   W06
 BYTE   Bn3
 BYTE   W06
 BYTE   En3
 BYTE   W06
 BYTE   Bn3
 BYTE   W06
 BYTE   Fs3
 BYTE   W06
 BYTE   Bn3
 BYTE   W06
 BYTE   N24  En3
 BYTE   W12
 BYTE   PATT
  POIN2 Label_CuttingEdgeOfNotion11_014665D5
 BYTE   PATT
  POIN2 Label_CuttingEdgeOfNotion11_014665ED
// 035   ----------------------------------------
 BYTE   W12
 BYTE   N06  Fs3  v100
 BYTE   W06
 BYTE   Gn3
 BYTE   W06
 BYTE   An3
 BYTE   W06
 BYTE   N24  Bn3
 BYTE   W30
 BYTE   N06
 BYTE   W06
 BYTE   An3
 BYTE   W06
 BYTE   Gn3
 BYTE   W06
 BYTE   Fs3
 BYTE   W06
 BYTE   Bn2
 BYTE   W06
 BYTE   Ds3
 BYTE   W06
// 036   ----------------------------------------
 BYTE   En3
 BYTE   W06
 BYTE   Fs3
 BYTE   W06
 BYTE   Bn3
 BYTE   W06
 BYTE   Ds4
 BYTE   W06
 BYTE   En4
 BYTE   W06
 BYTE   Fs4
 BYTE   W06
 BYTE   Bn4
 BYTE   W06
 BYTE   Ds5
 BYTE   W06
 BYTE   En5
 BYTE   W06
 BYTE   Fs5
 BYTE   W06
 BYTE   Bn5
 BYTE   W06
 BYTE   Fs5
 BYTE   W06
 BYTE   Ds5
 BYTE   W06
 BYTE   Bn4
 BYTE   W06
 BYTE   An3
 BYTE   W06
 BYTE   Gs3
 BYTE   W06
 BYTE   PATT
  POIN2 Label_CuttingEdgeOfNotion11_0146657B
 BYTE   PATT
  POIN2 Label_CuttingEdgeOfNotion11_0146658E
 BYTE   PATT
  POIN2 Label_CuttingEdgeOfNotion11_014665A0
 BYTE   PATT
  POIN2 Label_CuttingEdgeOfNotion11_0146657B
 BYTE   PATT
  POIN2 Label_CuttingEdgeOfNotion11_0146658E
 BYTE   PATT
  POIN2 Label_CuttingEdgeOfNotion11_014665BD
// 037   ----------------------------------------
 BYTE   W96
// 038   ----------------------------------------
 BYTE   W96
// 039   ----------------------------------------
 BYTE   W96
// 040   ----------------------------------------
 BYTE   W96
// 041   ----------------------------------------
 BYTE   W96
// 042   ----------------------------------------
 BYTE   W96
// 043   ----------------------------------------
 BYTE   W96
// 044   ----------------------------------------
 BYTE   W78
 BYTE   GoTo
  POIN2 Label_CuttingEdgeOfNotion11_01466440
 BYTE   FINE

//**************** Track 13 (Midi-Chn.12) ****************//

CuttingEdgeOfNotion_013:
// 000   ----------------------------------------
 BYTE   VOL   40*CuttingEdgeOfNotion_mvl/mxv
 BYTE   KEYSH   CuttingEdgeOfNotion_key+0
Label_CuttingEdgeOfNotion12_014666AC:
 BYTE   VOICE   124
 BYTE   N18  Cn1  v100
 BYTE   N12  Cs2
 BYTE   W12
Label_CuttingEdgeOfNotion12_014666B4:
 BYTE   N12  Dn1  v100
 BYTE   N12  Ds2
 BYTE   W06
 BYTE   N06  Cn1
 BYTE   W06
 BYTE   N12  Ds2
 BYTE   W06
 BYTE   N18  Cn1
 BYTE   W06
 BYTE   N12  Dn1
 BYTE   N12  Ds2
 BYTE   W12
 BYTE   N06  Cn1
 BYTE   N12  Ds2
 BYTE   W06
 BYTE   Cn1
 BYTE   W06
 BYTE   Dn1
 BYTE   N12  Ds2
 BYTE   W06
 BYTE   Cn1
 BYTE   W06
 BYTE   Ds2
 BYTE   W06
 BYTE   Cn1
 BYTE   W06
 BYTE   Dn1
 BYTE   N12  Ds2
 BYTE   W12
// 001   ----------------------------------------
 BYTE   N18  Cn1
 BYTE   N12  Ds2
 BYTE   W12
 BYTE   PEND 
Label_CuttingEdgeOfNotion12_014666E3:
 BYTE   N12  Dn1  v100
 BYTE   N12  Ds2
 BYTE   W06
 BYTE   N06  Cn1
 BYTE   W06
 BYTE   N12  Ds2
 BYTE   W06
 BYTE   N18  Cn1
 BYTE   W06
 BYTE   N12  Dn1
 BYTE   N12  Ds2
 BYTE   W12
 BYTE   N06  Cn1
 BYTE   N12  Ds2
 BYTE   W06
 BYTE   Cn1
 BYTE   W06
 BYTE   Dn1
 BYTE   N12  En2
 BYTE   W06
 BYTE   Cn1
 BYTE   W06
 BYTE   Ds2
 BYTE   W06
 BYTE   Cn1
 BYTE   W06
 BYTE   Dn1
 BYTE   N12  En2
 BYTE   W12
// 002   ----------------------------------------
 BYTE   N18  Cn1
 BYTE   N12  Cs2
 BYTE   W12
 BYTE   PEND 
Label_CuttingEdgeOfNotion12_01466712:
 BYTE   N12  Dn1  v100
 BYTE   N12  Ds2
 BYTE   W06
 BYTE   N06  Cn1
 BYTE   W06
 BYTE   N12  Ds2
 BYTE   W06
 BYTE   N18  Cn1
 BYTE   W06
 BYTE   N12  Dn1
 BYTE   N12  Ds2
 BYTE   W12
 BYTE   N06  Cn1
 BYTE   N12  Ds2
 BYTE   W06
 BYTE   Cn1
 BYTE   W06
 BYTE   Dn1
 BYTE   N12  Ds2
 BYTE   W06
 BYTE   Cn1
 BYTE   W06
 BYTE   Ds2
 BYTE   W06
 BYTE   Cn1
 BYTE   W06
 BYTE   Dn1
 BYTE   N12  Ds2
 BYTE   W12
// 003   ----------------------------------------
 BYTE   N18  Cn1
 BYTE   N12  En2
 BYTE   W12
 BYTE   PEND 
Label_CuttingEdgeOfNotion12_01466741:
 BYTE   N06  Dn1  v100
 BYTE   W06
 BYTE   Cn1
 BYTE   N06  Cs2
 BYTE   W12
 BYTE   N18  Cn1
 BYTE   W06
 BYTE   N12  Dn1
 BYTE   N12  En2
 BYTE   W12
 BYTE   N06  Cn1
 BYTE   N12  Cs2
 BYTE   W06
 BYTE   Cn1
 BYTE   W06
 BYTE   Dn1
 BYTE   N12  Ds2
 BYTE   W06
 BYTE   Cn1
 BYTE   W06
 BYTE   N06  Dn1
 BYTE   W06
 BYTE   N06
 BYTE   W06
 BYTE   N06
 BYTE   W06
 BYTE   N06
 BYTE   W06
// 004   ----------------------------------------
 BYTE   N18  Cn1
 BYTE   N12  Cs2
 BYTE   W12
 BYTE   PEND 
Label_CuttingEdgeOfNotion12_0146676D:
 BYTE   N12  Dn1  v100
 BYTE   N12  Ds2
 BYTE   W06
 BYTE   N06  Cn1
 BYTE   W06
 BYTE   N12  Ds2
 BYTE   W06
 BYTE   N18  Cn1
 BYTE   W06
 BYTE   N12  Dn1
 BYTE   N12  Ds2
 BYTE   W12
 BYTE   N06  Cn1
 BYTE   N12  Ds2
 BYTE   W06
 BYTE   Cn1
 BYTE   W06
 BYTE   Dn1
 BYTE   N12  Ds2
 BYTE   W06
 BYTE   Cn1
 BYTE   W06
 BYTE   Ds2
 BYTE   W06
 BYTE   Cn1
 BYTE   W06
 BYTE   Dn1
 BYTE   N12  Ds2
 BYTE   W12
// 005   ----------------------------------------
 BYTE   N18  Cn1
 BYTE   N12  Cs2
 BYTE   W12
 BYTE   PEND 
 BYTE   Dn1
 BYTE   N12  Ds2
 BYTE   W06
 BYTE   N24  Cn1
 BYTE   W06
 BYTE   N06  Dn2
 BYTE   W06
 BYTE   Cn2
 BYTE   W06
 BYTE   Bn1
 BYTE   W06
 BYTE   Cn1
 BYTE   N06  Cs2
 BYTE   W06
 BYTE   N12  Cn1
 BYTE   W06
 BYTE   N06  Dn1
 BYTE   W12
 BYTE   N06
 BYTE   W06
 BYTE   N12  Cn1
 BYTE   W06
 BYTE   N06  Dn1
 BYTE   W06
 BYTE   Cn2
 BYTE   W06
 BYTE   Bn1
 BYTE   W06
// 006   ----------------------------------------
 BYTE   N18  Cn1
 BYTE   N12  Cs2
 BYTE   W12
 BYTE   PATT
  POIN2 Label_CuttingEdgeOfNotion12_01466712
// 007   ----------------------------------------
 BYTE   N12  Dn1  v100
 BYTE   N12  Ds2
 BYTE   W06
 BYTE   N06  Cn1
 BYTE   W06
 BYTE   N12  Ds2
 BYTE   W06
 BYTE   N18  Cn1
 BYTE   W06
 BYTE   N12  Dn1
 BYTE   N12  Ds2
 BYTE   W12
 BYTE   N06  Cn1
 BYTE   N12  Cs2
 BYTE   W06
 BYTE   Cn1
 BYTE   W06
 BYTE   N06  Dn1
 BYTE   N06  Ds2
 BYTE   W06
 BYTE   Dn1
 BYTE   W06
 BYTE   N06
 BYTE   W06
 BYTE   N06
 BYTE   W06
 BYTE   N06
 BYTE   W06
 BYTE   N06
 BYTE   W06
 BYTE   N18  Cn1
 BYTE   N12  Cs2
 BYTE   W12
 BYTE   PATT
  POIN2 Label_CuttingEdgeOfNotion12_014666B4
 BYTE   PATT
  POIN2 Label_CuttingEdgeOfNotion12_014666E3
 BYTE   PATT
  POIN2 Label_CuttingEdgeOfNotion12_01466712
 BYTE   PATT
  POIN2 Label_CuttingEdgeOfNotion12_01466741
// 008   ----------------------------------------
 BYTE   N06  Dn1  v100
 BYTE   N06  Ds2
 BYTE   W06
 BYTE   Dn1
 BYTE   W06
 BYTE   Cn1
 BYTE   N12  Ds2
 BYTE   W06
 BYTE   N18  Cn1
 BYTE   W06
 BYTE   N06  Dn1
 BYTE   N06  Ds2
 BYTE   W06
 BYTE   Dn1
 BYTE   W06
 BYTE   Cn1
 BYTE   N12  Ds2
 BYTE   W06
 BYTE   Cn1
 BYTE   W06
 BYTE   Dn1
 BYTE   N12  Ds2
 BYTE   W06
 BYTE   Cn1
 BYTE   W06
 BYTE   Ds2
 BYTE   W06
 BYTE   Cn1
 BYTE   W06
 BYTE   Dn1
 BYTE   N12  Ds2
 BYTE   W12
 BYTE   N18  Cn1
 BYTE   N12  Cs2
 BYTE   W12
// 009   ----------------------------------------
 BYTE   Dn1
 BYTE   N12  Ds2
 BYTE   W06
 BYTE   N24  Cn1
 BYTE   W06
 BYTE   N06  Dn2
 BYTE   W06
 BYTE   Cn2
 BYTE   W06
 BYTE   Bn1
 BYTE   W06
 BYTE   Cn1
 BYTE   N06  Cs2
 BYTE   W06
 BYTE   N12  Cn1
 BYTE   W06
 BYTE   N06  Dn1
 BYTE   W06
 BYTE   N06
 BYTE   W06
 BYTE   N06
 BYTE   W06
 BYTE   An1
 BYTE   W06
 BYTE   N06
 BYTE   W06
 BYTE   Gn1
 BYTE   W06
 BYTE   N06
 BYTE   W06
 BYTE   N18  Cn1
 BYTE   N12  Cs2
 BYTE   W12
// 010   ----------------------------------------
 BYTE   Dn1
 BYTE   N12  Ds2
 BYTE   W06
 BYTE   N06  Cn1
 BYTE   W06
 BYTE   N12  Ds2
 BYTE   W06
 BYTE   N18  Cn1
 BYTE   W06
 BYTE   N12  Dn1
 BYTE   N12  Ds2
 BYTE   W12
 BYTE   N06  Cn1
 BYTE   N12  Cs2
 BYTE   W06
 BYTE   Cn1
 BYTE   W06
 BYTE   N06  Dn1
 BYTE   W06
 BYTE   N06
 BYTE   W06
 BYTE   N06
 BYTE   W06
 BYTE   N06
 BYTE   W06
 BYTE   N06
 BYTE   W06
 BYTE   N06
 BYTE   W06
 BYTE   N12  Cn1
 BYTE   W12
// 011   ----------------------------------------
 BYTE   N12
 BYTE   W06
 BYTE   Dn1
 BYTE   N12  Cs2
 BYTE   W06
 BYTE   N06  Cn1
 BYTE   W06
 BYTE   Dn1
 BYTE   W06
 BYTE   Cn2
 BYTE   W06
 BYTE   Bn1
 BYTE   W06
 BYTE   Cn1
 BYTE   W06
 BYTE   N06
 BYTE   W06
 BYTE   N12  Dn1
 BYTE   N12  Cs2
 BYTE   W12
 BYTE   N06  Cn2
 BYTE   W06
 BYTE   Bn1
 BYTE   W06
 BYTE   Dn1
 BYTE   N06  Cs2
 BYTE   W06
 BYTE   Dn1
 BYTE   W06
 BYTE   N12  Cn1
 BYTE   W12
// 012   ----------------------------------------
 BYTE   N12
 BYTE   W06
 BYTE   Dn1
 BYTE   N12  Cs2
 BYTE   W06
 BYTE   Cn1
 BYTE   W06
 BYTE   N06  Dn2
 BYTE   W06
 BYTE   Cn2
 BYTE   W06
 BYTE   Bn1
 BYTE   W06
 BYTE   Cn1
 BYTE   W06
 BYTE   N12
 BYTE   W06
 BYTE   N18  Dn1
 BYTE   N18  Cs2
 BYTE   W06
 BYTE   N06  Cn1
 BYTE   W06
 BYTE   N12
 BYTE   W06
 BYTE   N06  Dn1
 BYTE   W06
 BYTE   N06
 BYTE   W06
 BYTE   N06
 BYTE   W06
 BYTE   N12  Cn1
 BYTE   N12  Cs2
 BYTE   W12
// 013   ----------------------------------------
 BYTE   Dn1
 BYTE   W06
 BYTE   N06  Cn1
 BYTE   W06
 BYTE   N24
 BYTE   W06
 BYTE   N06  Dn1
 BYTE   W06
 BYTE   Cn2
 BYTE   W06
 BYTE   Bn1
 BYTE   W06
 BYTE   N18  Cn1
 BYTE   W12
 BYTE   N12  Dn1
 BYTE   N12  Cs2
 BYTE   W06
 BYTE   N06  Cn1
 BYTE   W06
 BYTE   Dn1
 BYTE   W06
 BYTE   Dn2
 BYTE   W06
 BYTE   Cn2
 BYTE   W06
 BYTE   Bn1
 BYTE   W06
 BYTE   N12  Cn1
 BYTE   W12
// 014   ----------------------------------------
 BYTE   N12
 BYTE   W06
 BYTE   Dn1
 BYTE   N12  Cs2
 BYTE   W06
 BYTE   N24  Cn1
 BYTE   W06
 BYTE   N06  Dn1
 BYTE   W06
 BYTE   Cn2
 BYTE   W06
 BYTE   Bn1
 BYTE   W06
 BYTE   Cn1
 BYTE   W06
 BYTE   N12
 BYTE   W06
 BYTE   Dn1
 BYTE   N12  En2
 BYTE   W06
 BYTE   N06  Cn1
 BYTE   W06
 BYTE   Dn1
 BYTE   W06
 BYTE   N06
 BYTE   W06
 BYTE   N06
 BYTE   W06
 BYTE   N06
 BYTE   W06
 BYTE   N18  Cn1
 BYTE   N12  Cs2
 BYTE   W12
 BYTE   PATT
  POIN2 Label_CuttingEdgeOfNotion12_0146676D
// 015   ----------------------------------------
 BYTE   N06  Dn1  v100
 BYTE   W06
 BYTE   Cn1
 BYTE   N06  En2
 BYTE   W12
 BYTE   N18  Cn1
 BYTE   W06
 BYTE   N12  Dn1
 BYTE   N12  En2
 BYTE   W12
 BYTE   N06  Cn1
 BYTE   N12  Cs2
 BYTE   W06
 BYTE   Cn1
 BYTE   W06
 BYTE   Dn1
 BYTE   N12  Ds2
 BYTE   W06
 BYTE   Cn1
 BYTE   W06
 BYTE   N06  Dn1
 BYTE   W06
 BYTE   N06
 BYTE   W06
 BYTE   Cn2
 BYTE   W06
 BYTE   Bn1
 BYTE   W06
 BYTE   N12  Cn1
 BYTE   N12  Cs2
 BYTE   W12
// 016   ----------------------------------------
 BYTE   Cn1
 BYTE   N06  Ds2
 BYTE   W06
 BYTE   Dn1
 BYTE   W06
 BYTE   N12  Cn1
 BYTE   N12  Ds2
 BYTE   W12
 BYTE   Cn1
 BYTE   N06  Ds2
 BYTE   W06
 BYTE   Dn1
 BYTE   W06
 BYTE   N12  Cn1
 BYTE   N12  Ds2
 BYTE   W12
 BYTE   Cn1
 BYTE   N06  Ds2
 BYTE   W06
 BYTE   Dn1
 BYTE   W06
 BYTE   N12  Cn1
 BYTE   N06  Ds2
 BYTE   W06
 BYTE   Cn2
 BYTE   W06
 BYTE   Bn1
 BYTE   W06
 BYTE   Dn1
 BYTE   W06
 BYTE   N12  Cn1
 BYTE   N12  Cs2
 BYTE   W12
// 017   ----------------------------------------
 BYTE   N06  Cn1
 BYTE   N12  Ds2
 BYTE   W06
 BYTE   Cn1
 BYTE   W06
 BYTE   Ds2
 BYTE   W06
 BYTE   N06  Cn1
 BYTE   W06
 BYTE   N12  Dn1
 BYTE   N12  Ds2
 BYTE   W06
 BYTE   N06  Cn1
 BYTE   W06
 BYTE   N06
 BYTE   N06  Cs2
 BYTE   W06
 BYTE   Dn1
 BYTE   W06
 BYTE   N06
 BYTE   W06
 BYTE   N06
 BYTE   W06
 BYTE   N06
 BYTE   W06
 BYTE   N06
 BYTE   W06
 BYTE   N06
 BYTE   W06
 BYTE   N06
 BYTE   W06
 BYTE   N18  Cn1
 BYTE   N12  Cs2
 BYTE   W12
// 018   ----------------------------------------
Label_CuttingEdgeOfNotion12_014669B0:
 BYTE   N12  Dn1  v100
 BYTE   N12  Ds2
 BYTE   W06
 BYTE   N06  Cn1
 BYTE   W06
 BYTE   N12  Ds2
 BYTE   W06
 BYTE   N18  Cn1
 BYTE   W06
 BYTE   N12  Dn1
 BYTE   N12  Ds2
 BYTE   W12
 BYTE   N06  Cn1
 BYTE   N12  Ds2
 BYTE   W06
 BYTE   Cn1
 BYTE   W06
 BYTE   Dn1
 BYTE   N12  Ds2
 BYTE   W06
 BYTE   Cn1
 BYTE   W06
 BYTE   As1
 BYTE   W06
 BYTE   Cn1
 BYTE   W06
 BYTE   Dn1
 BYTE   N12  En2
 BYTE   W12
 BYTE   N18  Cn1
 BYTE   N12  Cs2
 BYTE   W12
 BYTE   PEND 
// 019   ----------------------------------------
Label_CuttingEdgeOfNotion12_014669DF:
 BYTE   N12  Dn1  v100
 BYTE   N12  Ds2
 BYTE   W06
 BYTE   N06  Cn1
 BYTE   W06
 BYTE   N12  Ds2
 BYTE   W06
 BYTE   N18  Cn1
 BYTE   W06
 BYTE   N12  Dn1
 BYTE   N12  Ds2
 BYTE   W12
 BYTE   N06  Cn1
 BYTE   N12  Ds2
 BYTE   W06
 BYTE   Cn1
 BYTE   W06
 BYTE   Dn1
 BYTE   N12  Ds2
 BYTE   W06
 BYTE   Cn1
 BYTE   W06
 BYTE   Ds2
 BYTE   W06
 BYTE   Cn1
 BYTE   W06
 BYTE   Dn1
 BYTE   N12  En2
 BYTE   W12
 BYTE   N18  Cn1
 BYTE   N12  Cs2
 BYTE   W12
 BYTE   PEND 
// 020   ----------------------------------------
Label_CuttingEdgeOfNotion12_01466A0E:
 BYTE   N12  Dn1  v100
 BYTE   N12  Ds2
 BYTE   W06
 BYTE   N06  Cn1
 BYTE   W06
 BYTE   N12  Ds2
 BYTE   W06
 BYTE   N18  Cn1
 BYTE   W06
 BYTE   N12  Dn1
 BYTE   N12  Ds2
 BYTE   W12
 BYTE   N06  Cn1
 BYTE   N12  Cs2
 BYTE   W06
 BYTE   Cn1
 BYTE   W06
 BYTE   Dn1
 BYTE   N12  Ds2
 BYTE   W06
 BYTE   Cn1
 BYTE   W06
 BYTE   N06  Dn1
 BYTE   W06
 BYTE   N06
 BYTE   W06
 BYTE   N06
 BYTE   W06
 BYTE   N06
 BYTE   W06
 BYTE   N18  Cn1
 BYTE   N12  Cs2
 BYTE   W12
 BYTE   PEND 
 BYTE   PATT
  POIN2 Label_CuttingEdgeOfNotion12_014669B0
 BYTE   PATT
  POIN2 Label_CuttingEdgeOfNotion12_014669DF
// 021   ----------------------------------------
 BYTE   N12  Dn1  v100
 BYTE   N12  Ds2
 BYTE   W06
 BYTE   N06  Cn1
 BYTE   W06
 BYTE   N12  Ds2
 BYTE   W06
 BYTE   N18  Cn1
 BYTE   W06
 BYTE   N12  Dn1
 BYTE   N12  Ds2
 BYTE   W12
 BYTE   N06  Cn1
 BYTE   N12  Cs2
 BYTE   W06
 BYTE   Cn1
 BYTE   W06
 BYTE   Dn1
 BYTE   N12  Ds2
 BYTE   W06
 BYTE   Cn1
 BYTE   W06
 BYTE   N06  Dn1
 BYTE   W06
 BYTE   N06
 BYTE   W06
 BYTE   N06
 BYTE   W06
 BYTE   N06
 BYTE   W06
 BYTE   N12  Cn1
 BYTE   N12  Cs2
 BYTE   W12
// 022   ----------------------------------------
 BYTE   Cn1
 BYTE   N12  Ds2
 BYTE   W12
 BYTE   Dn1
 BYTE   N12  Ds2
 BYTE   W06
 BYTE   Cn1
 BYTE   W06
 BYTE   Ds2
 BYTE   W06
 BYTE   Cn1
 BYTE   W06
 BYTE   Ds2
 BYTE   W06
 BYTE   Cn1
 BYTE   W06
 BYTE   Ds2
 BYTE   W06
 BYTE   Cn1
 BYTE   W06
 BYTE   Dn1
 BYTE   N12  Ds2
 BYTE   W06
 BYTE   Cn1
 BYTE   W06
 BYTE   Dn1
 BYTE   N12  Ds2
 BYTE   W06
 BYTE   N06  Cn1
 BYTE   W06
 BYTE   N12
 BYTE   N12  Cs2
 BYTE   W12
// 023   ----------------------------------------
 BYTE   Cn1
 BYTE   N12  Ds2
 BYTE   W12
 BYTE   Dn1
 BYTE   N12  Ds2
 BYTE   W06
 BYTE   Cn1
 BYTE   W06
 BYTE   Ds2
 BYTE   W06
 BYTE   Cn1
 BYTE   W06
 BYTE   N06  Ds2
 BYTE   W06
 BYTE   Dn1
 BYTE   W06
 BYTE   Cn1
 BYTE   N06  Ds2
 BYTE   W12
 BYTE   Dn1
 BYTE   W06
 BYTE   N06
 BYTE   W06
 BYTE   Cn2
 BYTE   W06
 BYTE   Bn1
 BYTE   W06
 BYTE   N12  Cn1
 BYTE   N12  Cs2
 BYTE   W12
// 024   ----------------------------------------
 BYTE   Cn1
 BYTE   N12  Ds2
 BYTE   W12
 BYTE   Dn1
 BYTE   N12  Ds2
 BYTE   W06
 BYTE   Cn1
 BYTE   W06
 BYTE   N06  Ds2
 BYTE   W06
 BYTE   Dn1
 BYTE   W06
 BYTE   N12  Cn1
 BYTE   N12  Ds2
 BYTE   W12
 BYTE   Cn1
 BYTE   N12  Dn1
 BYTE   N12  Ds2
 BYTE   W12
 BYTE   Cn1
 BYTE   N06  Ds2
 BYTE   W06
 BYTE   Dn1
 BYTE   W06
 BYTE   N12
 BYTE   N12  Ds2
 BYTE   W06
 BYTE   N06  Cn1
 BYTE   W06
 BYTE   N12
 BYTE   N12  Cs2
 BYTE   W12
// 025   ----------------------------------------
 BYTE   Cn1
 BYTE   N12  Ds2
 BYTE   W12
 BYTE   Dn1
 BYTE   N12  Ds2
 BYTE   W06
 BYTE   Cn1
 BYTE   W06
 BYTE   N06  Ds2
 BYTE   W06
 BYTE   Dn1
 BYTE   W06
 BYTE   N12  Cn1
 BYTE   N12  Ds2
 BYTE   W12
 BYTE   Cn1
 BYTE   N12  Dn1
 BYTE   N12  Ds2
 BYTE   W12
 BYTE   N06  Dn1
 BYTE   W06
 BYTE   N06
 BYTE   W06
 BYTE   Cn2
 BYTE   W06
 BYTE   Bn1
 BYTE   W06
 BYTE   N12  Cn1
 BYTE   N12  Cs2
 BYTE   W12
// 026   ----------------------------------------
 BYTE   Cn1
 BYTE   N12  Ds2
 BYTE   W12
 BYTE   Dn1
 BYTE   N12  Ds2
 BYTE   W06
 BYTE   Cn1
 BYTE   W06
 BYTE   Ds2
 BYTE   W06
 BYTE   Cn1
 BYTE   W06
 BYTE   Ds2
 BYTE   W06
 BYTE   Cn1
 BYTE   W06
 BYTE   Ds2
 BYTE   W06
 BYTE   Cn1
 BYTE   W06
 BYTE   Dn1
 BYTE   N12  Ds2
 BYTE   W06
 BYTE   Cn1
 BYTE   W06
 BYTE   Ds2
 BYTE   W06
 BYTE   N06  Cn1
 BYTE   W06
 BYTE   N12
 BYTE   N12  Cs2
 BYTE   W12
// 027   ----------------------------------------
 BYTE   Cn1
 BYTE   N12  Ds2
 BYTE   W12
 BYTE   Dn1
 BYTE   N12  Ds2
 BYTE   W06
 BYTE   Cn1
 BYTE   W06
 BYTE   Ds2
 BYTE   W06
 BYTE   Cn1
 BYTE   W06
 BYTE   N06  Ds2
 BYTE   W06
 BYTE   Dn1
 BYTE   W06
 BYTE   N12  Ds2
 BYTE   W06
 BYTE   N06  Cn1
 BYTE   W06
 BYTE   N12  Dn1
 BYTE   N12  Ds2
 BYTE   W12
 BYTE   Cn1
 BYTE   N12  Ds2
 BYTE   W12
 BYTE   Cn1
 BYTE   N12  Cs2
 BYTE   W12
// 028   ----------------------------------------
 BYTE   Cn1
 BYTE   N12  Ds2
 BYTE   W12
 BYTE   Dn1
 BYTE   N12  Ds2
 BYTE   W06
 BYTE   Cn1
 BYTE   W06
 BYTE   N06  Ds2
 BYTE   W06
 BYTE   Dn1
 BYTE   W06
 BYTE   N12  Cn1
 BYTE   N12  Ds2
 BYTE   W12
 BYTE   Cn1
 BYTE   N12  Dn1
 BYTE   N12  Ds2
 BYTE   W12
 BYTE   Cn1
 BYTE   N06  Ds2
 BYTE   W06
 BYTE   Dn1
 BYTE   W06
 BYTE   Cn1
 BYTE   N12  Ds2
 BYTE   W12
 BYTE   Cn1
 BYTE   N12  Cs2
 BYTE   W12
// 029   ----------------------------------------
 BYTE   Cn1
 BYTE   N12  Ds2
 BYTE   W12
 BYTE   Dn1
 BYTE   N12  Ds2
 BYTE   W06
 BYTE   Cn1
 BYTE   W06
 BYTE   N06  Ds2
 BYTE   W06
 BYTE   Dn1
 BYTE   W06
 BYTE   N12  Cn1
 BYTE   N06  Cs2
 BYTE   W06
 BYTE   Dn1
 BYTE   W06
 BYTE   N06
 BYTE   W06
 BYTE   N06
 BYTE   W06
 BYTE   N06
 BYTE   W06
 BYTE   N06
 BYTE   W06
 BYTE   N06
 BYTE   W06
 BYTE   N06
 BYTE   W06
 BYTE   N18  Cn1
 BYTE   N12  Cs2
 BYTE   W12
// 030   ----------------------------------------
Label_CuttingEdgeOfNotion12_01466BAF:
 BYTE   N12  Dn1  v100
 BYTE   N12  Ds2
 BYTE   W06
 BYTE   Cn1
 BYTE   W06
 BYTE   Ds2
 BYTE   W06
 BYTE   N18  Cn1
 BYTE   W06
 BYTE   N12  Dn1
 BYTE   N12  Ds2
 BYTE   W12
 BYTE   N06  Cn1
 BYTE   N12  Ds2
 BYTE   W06
 BYTE   Cn1
 BYTE   W06
 BYTE   Dn1
 BYTE   N12  Ds2
 BYTE   W06
 BYTE   Cn1
 BYTE   W06
 BYTE   Ds2
 BYTE   W06
 BYTE   Cn1
 BYTE   W06
 BYTE   Dn1
 BYTE   N12  Ds2
 BYTE   W12
 BYTE   N18  Cn1
 BYTE   N12  Cs2
 BYTE   W12
 BYTE   PEND 
// 031   ----------------------------------------
Label_CuttingEdgeOfNotion12_01466BDC:
 BYTE   N12  Dn1  v100
 BYTE   N12  Ds2
 BYTE   W06
 BYTE   Cn1
 BYTE   W06
 BYTE   Ds2
 BYTE   W06
 BYTE   N18  Cn1
 BYTE   W06
 BYTE   N12  Dn1
 BYTE   N12  Ds2
 BYTE   W12
 BYTE   N06  Cn1
 BYTE   N12  Ds2
 BYTE   W06
 BYTE   Cn1
 BYTE   W06
 BYTE   Dn1
 BYTE   N12  Ds2
 BYTE   W06
 BYTE   Cn1
 BYTE   W06
 BYTE   Ds2
 BYTE   W06
 BYTE   Cn1
 BYTE   W06
 BYTE   Dn1
 BYTE   N12  Ds2
 BYTE   N12  En2
 BYTE   W12
 BYTE   N18  Cn1
 BYTE   N12  Cs2
 BYTE   W12
 BYTE   PEND 
 BYTE   PATT
  POIN2 Label_CuttingEdgeOfNotion12_01466BAF
// 032   ----------------------------------------
 BYTE   N12  Dn1  v100
 BYTE   N12  Ds2
 BYTE   W06
 BYTE   Cn1
 BYTE   W06
 BYTE   En2
 BYTE   W06
 BYTE   N18  Cn1
 BYTE   W06
 BYTE   N12  Dn1
 BYTE   N12  Ds2
 BYTE   W12
 BYTE   N06  Cn1
 BYTE   N12  Cs2
 BYTE   W06
 BYTE   Cn1
 BYTE   W06
 BYTE   N06  Dn1
 BYTE   W06
 BYTE   N06
 BYTE   W06
 BYTE   N06
 BYTE   W06
 BYTE   N06
 BYTE   W06
 BYTE   N06
 BYTE   W06
 BYTE   N06
 BYTE   W06
 BYTE   N18  Cn1
 BYTE   N12  Cs2
 BYTE   W12
 BYTE   PATT
  POIN2 Label_CuttingEdgeOfNotion12_01466BAF
 BYTE   PATT
  POIN2 Label_CuttingEdgeOfNotion12_01466BDC
 BYTE   PATT
  POIN2 Label_CuttingEdgeOfNotion12_01466BAF
// 033   ----------------------------------------
 BYTE   N12  Dn1  v100
 BYTE   N12  Ds2
 BYTE   W06
 BYTE   Cn1
 BYTE   W06
 BYTE   Cs2
 BYTE   W06
 BYTE   N18  Cn1
 BYTE   W06
 BYTE   N12  Dn1
 BYTE   N12  Ds2
 BYTE   W12
 BYTE   N06  Cn1
 BYTE   N12  Cs2
 BYTE   W06
 BYTE   Cn1
 BYTE   W06
 BYTE   N06  Dn1
 BYTE   W06
 BYTE   N06
 BYTE   W06
 BYTE   N06
 BYTE   W06
 BYTE   N06
 BYTE   W06
 BYTE   N06
 BYTE   W06
 BYTE   N06
 BYTE   W06
 BYTE   N18  Cn1
 BYTE   N12  Cs2
 BYTE   W12
 BYTE   PATT
  POIN2 Label_CuttingEdgeOfNotion12_014669B0
 BYTE   PATT
  POIN2 Label_CuttingEdgeOfNotion12_014669DF
 BYTE   PATT
  POIN2 Label_CuttingEdgeOfNotion12_01466A0E
 BYTE   PATT
  POIN2 Label_CuttingEdgeOfNotion12_014669B0
 BYTE   PATT
  POIN2 Label_CuttingEdgeOfNotion12_014669DF
// 034   ----------------------------------------
 BYTE   N12  Dn1  v100
 BYTE   N12  Ds2
 BYTE   W06
 BYTE   N06  Cn1
 BYTE   W06
 BYTE   N12  Ds2
 BYTE   W06
 BYTE   N18  Cn1
 BYTE   W06
 BYTE   N12  Dn1
 BYTE   N12  Cs2
 BYTE   W12
 BYTE   N06  Cn1
 BYTE   N12  Ds2
 BYTE   W06
 BYTE   Cn1
 BYTE   W06
 BYTE   Dn1
 BYTE   N12  Ds2
 BYTE   W06
 BYTE   Cn1
 BYTE   W06
 BYTE   N06  Dn1
 BYTE   W06
 BYTE   N06
 BYTE   W06
 BYTE   N06
 BYTE   W06
 BYTE   N06
 BYTE   W06
 BYTE   N12
 BYTE   N12  Cs2
 BYTE   W06
 BYTE   Cn1
 BYTE   W06
// 035   ----------------------------------------
 BYTE   Ds2
 BYTE   W06
 BYTE   Cn1
 BYTE   W06
 BYTE   Dn1
 BYTE   N12  Ds2
 BYTE   W12
 BYTE   N12
 BYTE   W06
 BYTE   Cn1
 BYTE   W06
 BYTE   Dn1
 BYTE   N12  Ds2
 BYTE   W06
 BYTE   Cn1
 BYTE   W06
 BYTE   Ds2
 BYTE   W06
 BYTE   Cn1
 BYTE   W06
 BYTE   Dn1
 BYTE   N12  Ds2
 BYTE   W06
 BYTE   Cn1
 BYTE   W06
 BYTE   Ds2
 BYTE   W06
 BYTE   N06  Cn1
 BYTE   W06
 BYTE   N12  Dn1
 BYTE   N12  Ds2
 BYTE   W06
 BYTE   N06  Cn1
 BYTE   W06
// 036   ----------------------------------------
 BYTE   N12
 BYTE   N06  Ds2
 BYTE   W06
 BYTE   Dn1
 BYTE   W06
 BYTE   N12  Cn1
 BYTE   N12  Ds2
 BYTE   W12
 BYTE   Dn1
 BYTE   N12  Ds2
 BYTE   W06
 BYTE   Cn1
 BYTE   W06
 BYTE   Dn1
 BYTE   N12  Ds2
 BYTE   W06
 BYTE   Cn1
 BYTE   W06
 BYTE   Ds2
 BYTE   W06
 BYTE   Cn1
 BYTE   W06
 BYTE   N06  Dn1
 BYTE   W06
 BYTE   N06
 BYTE   W06
 BYTE   N06
 BYTE   W06
 BYTE   N06
 BYTE   W06
 BYTE   N12
 BYTE   N12  Cs2
 BYTE   W06
 BYTE   Cn1
 BYTE   W06
// 037   ----------------------------------------
 BYTE   Ds2
 BYTE   W06
 BYTE   Cn1
 BYTE   W06
 BYTE   Dn1
 BYTE   N12  Ds2
 BYTE   W12
 BYTE   N12
 BYTE   W06
 BYTE   Cn1
 BYTE   W06
 BYTE   Dn1
 BYTE   N12  Ds2
 BYTE   W06
 BYTE   Cn1
 BYTE   W06
 BYTE   Ds2
 BYTE   W06
 BYTE   Cn1
 BYTE   W06
 BYTE   Dn1
 BYTE   N12  Ds2
 BYTE   W06
 BYTE   Cn1
 BYTE   W06
 BYTE   Ds2
 BYTE   W06
 BYTE   N06  Cn1
 BYTE   W06
 BYTE   N12  Dn1
 BYTE   N12  Ds2
 BYTE   W06
 BYTE   Cn1
 BYTE   W06
// 038   ----------------------------------------
 BYTE   Ds2
 BYTE   W06
 BYTE   Cn1
 BYTE   W06
 BYTE   Dn1
 BYTE   N12  Ds2
 BYTE   W06
 BYTE   N06  Cn1
 BYTE   W06
 BYTE   N12  Ds2
 BYTE   W06
 BYTE   Cn1
 BYTE   W06
 BYTE   N06  Dn1
 BYTE   W06
 BYTE   N06
 BYTE   W06
 BYTE   N06
 BYTE   W06
 BYTE   N06
 BYTE   W06
 BYTE   N06
 BYTE   W06
 BYTE   N06
 BYTE   W06
 BYTE   N12
 BYTE   W12
 BYTE   N24
 BYTE   N24  En2
 BYTE   W12
// 039   ----------------------------------------
 BYTE   N06  Cn1
 BYTE   W06
 BYTE   N12
 BYTE   W06
 BYTE   N24  Dn1
 BYTE   N24  En2
 BYTE   W06
 BYTE   N12  Cn1
 BYTE   W12
 BYTE   N12
 BYTE   W06
 BYTE   N24  Dn1
 BYTE   N24  En2
 BYTE   W06
 BYTE   N06  Cn1
 BYTE   W06
 BYTE   N06
 BYTE   W06
 BYTE   N12
 BYTE   W06
 BYTE   N24  Dn1
 BYTE   N24  En2
 BYTE   W06
 BYTE   N12  Cn1
 BYTE   W12
 BYTE   N06
 BYTE   W06
 BYTE   N24  Dn1
 BYTE   N24  En2
 BYTE   W12
// 040   ----------------------------------------
 BYTE   N06  Cn1
 BYTE   W06
 BYTE   N12
 BYTE   W06
 BYTE   N24  Dn1
 BYTE   N24  En2
 BYTE   W06
 BYTE   N12  Cn1
 BYTE   W12
 BYTE   N12
 BYTE   W06
 BYTE   N24  Dn1
 BYTE   N24  En2
 BYTE   W06
 BYTE   N06  Cn1
 BYTE   W06
 BYTE   N06
 BYTE   W06
 BYTE   N12
 BYTE   W06
 BYTE   N24  Dn1
 BYTE   N24  En2
 BYTE   W06
 BYTE   N12  Cn1
 BYTE   W12
 BYTE   N06
 BYTE   W06
 BYTE   N24  Dn1
 BYTE   N24  Cs2
 BYTE   W12
// 041   ----------------------------------------
 BYTE   N06  Cn1
 BYTE   W06
 BYTE   N12
 BYTE   W06
 BYTE   N24  Dn1
 BYTE   N24  Cs2
 BYTE   W06
 BYTE   N12  Cn1
 BYTE   W12
 BYTE   N12
 BYTE   W06
 BYTE   N24  Dn1
 BYTE   N24  Cs2
 BYTE   W06
 BYTE   N06  Cn1
 BYTE   W06
 BYTE   N06
 BYTE   W06
 BYTE   N12
 BYTE   W06
 BYTE   N24  Dn1
 BYTE   N24  Cs2
 BYTE   W06
 BYTE   N12  Cn1
 BYTE   W12
 BYTE   N06
 BYTE   W06
 BYTE   N24  Dn1
 BYTE   N24  Cs2
 BYTE   W12
// 042   ----------------------------------------
 BYTE   N06  Cn1
 BYTE   W06
 BYTE   N12
 BYTE   W06
 BYTE   N24  Dn1
 BYTE   N24  Cs2
 BYTE   W06
 BYTE   N12  Cn1
 BYTE   W12
 BYTE   N12
 BYTE   W06
 BYTE   N24  Dn1
 BYTE   N24  En2
 BYTE   W06
 BYTE   N06  Cn1
 BYTE   W06
 BYTE   N06
 BYTE   W06
 BYTE   N12
 BYTE   W06
 BYTE   N06  Dn1
 BYTE   N06  Cs2
 BYTE   W06
 BYTE   Dn1
 BYTE   W06
 BYTE   N05
 BYTE   W06
 BYTE   GoTo
  POIN2 Label_CuttingEdgeOfNotion12_014666AC
 BYTE   FINE

//******************************************************//
	ALIGN 4

songCuttingEdgeOfNotion:
	BYTE	13	// NumTrks
	BYTE	0	// NumBlks
	BYTE	CuttingEdgeOfNotion_pri	// Priority
	BYTE	CuttingEdgeOfNotion_rev	// Reverb.
    
	POIN2	CuttingEdgeOfNotion_grp
    
	POIN2	CuttingEdgeOfNotion_001
	POIN2	CuttingEdgeOfNotion_002
	POIN2	CuttingEdgeOfNotion_003
	POIN2	CuttingEdgeOfNotion_004
	POIN2	CuttingEdgeOfNotion_005
	POIN2	CuttingEdgeOfNotion_006
	POIN2	CuttingEdgeOfNotion_007
	POIN2	CuttingEdgeOfNotion_008
	POIN2	CuttingEdgeOfNotion_009
	POIN2	CuttingEdgeOfNotion_010
	POIN2	CuttingEdgeOfNotion_011
	POIN2	CuttingEdgeOfNotion_012
	POIN2	CuttingEdgeOfNotion_013

	
