//Event file generated from Sappy .s format.
	#include "MPlayDef.event"

	#define	songDerrisKharlanAppear_grp  voicegroup000
	#define	songDerrisKharlanAppear_pri  0
	#define	songDerrisKharlanAppear_rev  0
	#define	songDerrisKharlanAppear_mvl  160
	#define	songDerrisKharlanAppear_key  0
	#define	songDerrisKharlanAppear_tbs  1
	#define	songDerrisKharlanAppear_exg  0
	#define	songDerrisKharlanAppear_cmp  1

	// .rodata
	//	songDerrisKharlanAppear
	ALIGN 4


//**************** Track 1 (Midi-Chn.0) ****************//

songDerrisKharlanAppear_001:
// 000   ----------------------------------------
 BYTE   KEYSH   songDerrisKharlanAppear_key+0
Label_0_0100CA06:
 BYTE   TEMPO   240*songDerrisKharlanAppear_tbs/2
 BYTE   VOICE   19
 BYTE   MODT 0
 BYTE   CnM2  v000
 BYTE   LFOS 0
 BYTE   CnM2  v044
 BYTE   VOL   14*songDerrisKharlanAppear_mvl/mxv
 BYTE   PAN   c_v+0
 BYTE   W24
 BYTE   N48  An4  v127
 BYTE   W48
 BYTE   En5
 BYTE   W24
// 001   ----------------------------------------
 BYTE   W24
 BYTE   Dn5
 BYTE   W48
 BYTE   Gn5
 BYTE   W24
// 002   ----------------------------------------
 BYTE   W24
 BYTE   Fn5
 BYTE   W48
 BYTE   N24  En5
 BYTE   W24
// 003   ----------------------------------------
 BYTE   Dn5
 BYTE   W24
 BYTE   N48  En5
 BYTE   W48
 BYTE   Bn4
 BYTE   W24
// 004   ----------------------------------------
 BYTE   W24
 BYTE   N16  An4
 BYTE   W16
 BYTE   En5
 BYTE   W16
 BYTE   Dn5
 BYTE   W16
 BYTE   En5
 BYTE   W16
 BYTE   Cn5
 BYTE   W08
// 005   ----------------------------------------
 BYTE   W08
 BYTE   En5
 BYTE   W16
 BYTE   As4
 BYTE   W16
 BYTE   Gn5
 BYTE   W16
 BYTE   Fn5
 BYTE   W16
 BYTE   En5
 BYTE   W16
 BYTE   Dn5
 BYTE   W08
// 006   ----------------------------------------
 BYTE   W08
 BYTE   En5
 BYTE   W16
 BYTE   N48  Dn5
 BYTE   W48
 BYTE   N44  An5
 BYTE   W24
// 007   ----------------------------------------
 BYTE   W24
 BYTE   N48
 BYTE   W48
 BYTE   Gs5
 BYTE   W24
// 008   ----------------------------------------
 BYTE   W24
 BYTE   TIE  An2
 BYTE   W72
// 009   ----------------------------------------
 BYTE   W96
// 010   ----------------------------------------
 BYTE   W24
 BYTE   EOT
 BYTE   TIE  Gs2
 BYTE   W72
// 011   ----------------------------------------
 BYTE   W96
// 012   ----------------------------------------
 BYTE   W24
 BYTE   EOT
 BYTE   N08  En5
 BYTE   W08
 BYTE   Cn5
 BYTE   W08
 BYTE   An4
 BYTE   W08
 BYTE   En4
 BYTE   W08
 BYTE   An4
 BYTE   W08
 BYTE   Cn5
 BYTE   W08
 BYTE   En5
 BYTE   W08
 BYTE   Cn5
 BYTE   W08
 BYTE   An4
 BYTE   W08
// 013   ----------------------------------------
 BYTE   En4
 BYTE   W08
 BYTE   An4
 BYTE   W08
 BYTE   Cn5
 BYTE   W08
 BYTE   En5
 BYTE   W08
 BYTE   Bn4
 BYTE   W08
 BYTE   Gs4
 BYTE   W08
 BYTE   En4
 BYTE   W08
 BYTE   Gs4
 BYTE   W08
 BYTE   Bn4
 BYTE   W08
 BYTE   En5
 BYTE   W08
 BYTE   Bn4
 BYTE   W08
 BYTE   Gs4
 BYTE   W08
// 014   ----------------------------------------
 BYTE   En4
 BYTE   W08
 BYTE   Gs4
 BYTE   W08
 BYTE   Bn4
 BYTE   W08
 BYTE   Dn5
 BYTE   W08
 BYTE   Bn4
 BYTE   W08
 BYTE   Gn4
 BYTE   W08
 BYTE   Dn4
 BYTE   W08
 BYTE   Gn4
 BYTE   W08
 BYTE   Bn4
 BYTE   W08
 BYTE   Dn5
 BYTE   W08
 BYTE   Bn4
 BYTE   W08
 BYTE   Gn4
 BYTE   W08
// 015   ----------------------------------------
 BYTE   Dn4
 BYTE   W08
 BYTE   Gn4
 BYTE   W08
 BYTE   Bn4
 BYTE   W08
 BYTE   Dn5
 BYTE   W08
 BYTE   Bn4
 BYTE   W08
 BYTE   Gs4
 BYTE   W08
 BYTE   En4
 BYTE   W08
 BYTE   Gs4
 BYTE   W08
 BYTE   Bn4
 BYTE   W08
 BYTE   En5
 BYTE   W08
 BYTE   Bn4
 BYTE   W08
 BYTE   Gs4
 BYTE   W08
// 016   ----------------------------------------
 BYTE   En4
 BYTE   W08
 BYTE   Gs4
 BYTE   W08
 BYTE   Bn4
 BYTE   W08
 BYTE   N96  Fn3
 BYTE   W72
// 017   ----------------------------------------
 BYTE   W24
 BYTE   N12  Dn5
 BYTE   W24
 BYTE   N12
 BYTE   W12
 BYTE   N36  En4
 BYTE   W36
// 018   ----------------------------------------
 BYTE   N12  Dn5
 BYTE   W24
 BYTE   TIE  Gn2
 BYTE   W72
// 019   ----------------------------------------
 BYTE   W96
// 020   ----------------------------------------
 BYTE   W24
 BYTE   EOT
 BYTE   TIE  Ds2
 BYTE   W72
// 021   ----------------------------------------
 BYTE   W96
// 022   ----------------------------------------
 BYTE   W24
 BYTE   EOT
 BYTE   TIE  An2
 BYTE   W72
// 023   ----------------------------------------
 BYTE   W96
// 024   ----------------------------------------
 BYTE   W24
 BYTE   EOT
 BYTE   N96  Fn3
 BYTE   W72
// 025   ----------------------------------------
 BYTE   W24
 BYTE   N12  Dn5
 BYTE   W24
 BYTE   N12
 BYTE   W12
 BYTE   N06  Fn4
 BYTE   W06
 BYTE   En4
 BYTE   W06
 BYTE   N48  Fn4
 BYTE   W24
// 026   ----------------------------------------
 BYTE   W24
 BYTE   TIE  Gn2
 BYTE   W72
// 027   ----------------------------------------
 BYTE   W96
// 028   ----------------------------------------
 BYTE   W24
 BYTE   EOT
 BYTE   N96  Ds4
 BYTE   W72
// 029   ----------------------------------------
 BYTE   W24
 BYTE   N36  Ds3
 BYTE   W36
 BYTE   N06  Ds4
 BYTE   W06
 BYTE   As3
 BYTE   W06
 BYTE   N48  Ds4
 BYTE   W24
// 030   ----------------------------------------
 BYTE   W24
 BYTE   TIE  Fs3
 BYTE   W72
// 031   ----------------------------------------
 BYTE   W96
// 032   ----------------------------------------
 BYTE   W24
 BYTE   EOT
 BYTE   N96  An2
 BYTE   W72
// 033   ----------------------------------------
Label_0_0100CB14:
 BYTE   W24
 BYTE   N08  An3  v127
 BYTE   W08
 BYTE   As3
 BYTE   W08
 BYTE   Cn4
 BYTE   W08
 BYTE   An3
 BYTE   W08
 BYTE   As3
 BYTE   W08
 BYTE   Cn4
 BYTE   W08
 BYTE   An3
 BYTE   W08
 BYTE   As3
 BYTE   W08
 BYTE   Cn4
 BYTE   W08
 BYTE   PEND 
// 034   ----------------------------------------
Label_0_0100CB2A:
 BYTE   N08  An3  v127
 BYTE   W08
 BYTE   As3
 BYTE   W08
 BYTE   Cn4
 BYTE   W08
 BYTE   N96  An2
 BYTE   W72
 BYTE   PEND 
// 035   ----------------------------------------
Label_0_0100CB36:
 BYTE   W24
 BYTE   N08  Gn3  v127
 BYTE   W08
 BYTE   An3
 BYTE   W08
 BYTE   As3
 BYTE   W08
 BYTE   Gn3
 BYTE   W08
 BYTE   An3
 BYTE   W08
 BYTE   As3
 BYTE   W08
 BYTE   Gn3
 BYTE   W08
 BYTE   An3
 BYTE   W08
 BYTE   As3
 BYTE   W08
 BYTE   PEND 
// 036   ----------------------------------------
Label_0_0100CB4C:
 BYTE   N08  Gn3  v127
 BYTE   W08
 BYTE   An3
 BYTE   W08
 BYTE   As3
 BYTE   W08
 BYTE   Gn3
 BYTE   W08
 BYTE   An3
 BYTE   W08
 BYTE   As3
 BYTE   W08
 BYTE   Gn3
 BYTE   W08
 BYTE   An3
 BYTE   W08
 BYTE   As3
 BYTE   W08
 BYTE   Gn3
 BYTE   W08
 BYTE   An3
 BYTE   W08
 BYTE   As3
 BYTE   W08
 BYTE   PEND 
// 037   ----------------------------------------
Label_0_0100CB67:
 BYTE   N08  Gn3  v127
 BYTE   W08
 BYTE   An3
 BYTE   W08
 BYTE   As3
 BYTE   W08
 BYTE   An3
 BYTE   W08
 BYTE   As3
 BYTE   W08
 BYTE   Cn4
 BYTE   W08
 BYTE   An3
 BYTE   W08
 BYTE   As3
 BYTE   W08
 BYTE   Cn4
 BYTE   W08
 BYTE   An3
 BYTE   W08
 BYTE   As3
 BYTE   W08
 BYTE   Cn4
 BYTE   W08
 BYTE   PEND 
// 038   ----------------------------------------
Label_0_0100CB82:
 BYTE   N08  An3  v127
 BYTE   W08
 BYTE   As3
 BYTE   W08
 BYTE   Cn4
 BYTE   W08
 BYTE   TIE  As2
 BYTE   W72
 BYTE   PEND 
// 039   ----------------------------------------
 BYTE   W96
// 040   ----------------------------------------
 BYTE   W24
 BYTE   EOT
 BYTE   N96  An2
 BYTE   W72
 BYTE   PATT
  POIN2 Label_0_0100CB14
 BYTE   PATT
  POIN2 Label_0_0100CB2A
 BYTE   PATT
  POIN2 Label_0_0100CB36
 BYTE   PATT
  POIN2 Label_0_0100CB4C
 BYTE   PATT
  POIN2 Label_0_0100CB67
 BYTE   PATT
  POIN2 Label_0_0100CB82
// 041   ----------------------------------------
 BYTE   W96
// 042   ----------------------------------------
 BYTE   GoTo
  POIN2 Label_0_0100CA06
// 043   ----------------------------------------
 BYTE   W24
 BYTE   EOT
 BYTE   As2
 BYTE   FINE

//**************** Track 2 (Midi-Chn.1) ****************//

songDerrisKharlanAppear_002:
// 000   ----------------------------------------
 BYTE   KEYSH   songDerrisKharlanAppear_key+0
Label_1_0100CBBE:
 BYTE   VOICE   19
 BYTE   MODT 0
 BYTE   CnM2  v000
 BYTE   LFOS 0
 BYTE   CnM2  v044
 BYTE   VOL   14*songDerrisKharlanAppear_mvl/mxv
 BYTE   PAN   c_v+0
 BYTE   W24
 BYTE   N48  An3  v127
 BYTE   W48
 BYTE   En4
 BYTE   W24
// 001   ----------------------------------------
 BYTE   W24
 BYTE   Dn4
 BYTE   W48
 BYTE   Gn4
 BYTE   W24
// 002   ----------------------------------------
 BYTE   W24
 BYTE   Fn4
 BYTE   W48
 BYTE   N24  En4
 BYTE   W24
// 003   ----------------------------------------
 BYTE   Dn4
 BYTE   W24
 BYTE   N96  Bn2
 BYTE   W72
// 004   ----------------------------------------
 BYTE   W24
 BYTE   N16  An3
 BYTE   W16
 BYTE   En4
 BYTE   W16
 BYTE   Dn4
 BYTE   W16
 BYTE   En4
 BYTE   W16
 BYTE   Cn4
 BYTE   W08
// 005   ----------------------------------------
 BYTE   W08
 BYTE   En4
 BYTE   W16
 BYTE   As3
 BYTE   W16
 BYTE   Gn4
 BYTE   W16
 BYTE   Fn4
 BYTE   W16
 BYTE   En4
 BYTE   W16
 BYTE   Dn4
 BYTE   W08
// 006   ----------------------------------------
 BYTE   W08
 BYTE   En4
 BYTE   W16
 BYTE   N48  Dn4
 BYTE   W48
 BYTE   N44  An4
 BYTE   W24
// 007   ----------------------------------------
 BYTE   W24
 BYTE   N48
 BYTE   W48
 BYTE   Gs4
 BYTE   W24
// 008   ----------------------------------------
 BYTE   W24
 BYTE   N96  Dn4
 BYTE   W72
// 009   ----------------------------------------
 BYTE   W24
 BYTE   N24
 BYTE   W24
 BYTE   Cn4
 BYTE   W24
 BYTE   Bn3
 BYTE   W24
// 010   ----------------------------------------
 BYTE   N96  An3
 BYTE   W96
// 011   ----------------------------------------
 BYTE   N24  Bn3
 BYTE   W24
 BYTE   N96  En4
 BYTE   W72
// 012   ----------------------------------------
 BYTE   W24
 BYTE   N08
 BYTE   W08
 BYTE   Cn4
 BYTE   W08
 BYTE   An3
 BYTE   W08
 BYTE   En3
 BYTE   W08
 BYTE   An3
 BYTE   W08
 BYTE   Cn4
 BYTE   W08
 BYTE   En4
 BYTE   W08
 BYTE   Cn4
 BYTE   W08
 BYTE   An3
 BYTE   W08
// 013   ----------------------------------------
 BYTE   En3
 BYTE   W08
 BYTE   An3
 BYTE   W08
 BYTE   Cn4
 BYTE   W08
 BYTE   En4
 BYTE   W08
 BYTE   Bn3
 BYTE   W08
 BYTE   Gs3
 BYTE   W08
 BYTE   En3
 BYTE   W08
 BYTE   Gs3
 BYTE   W08
 BYTE   Bn3
 BYTE   W08
 BYTE   En4
 BYTE   W08
 BYTE   Bn3
 BYTE   W08
 BYTE   Gs3
 BYTE   W08
// 014   ----------------------------------------
 BYTE   En3
 BYTE   W08
 BYTE   Gs3
 BYTE   W08
 BYTE   Bn3
 BYTE   W08
 BYTE   Dn4
 BYTE   W08
 BYTE   Bn3
 BYTE   W08
 BYTE   Gn3
 BYTE   W08
 BYTE   Dn3
 BYTE   W08
 BYTE   Gn3
 BYTE   W08
 BYTE   Bn3
 BYTE   W08
 BYTE   Dn4
 BYTE   W08
 BYTE   Bn3
 BYTE   W08
 BYTE   Gn3
 BYTE   W08
// 015   ----------------------------------------
 BYTE   Dn3
 BYTE   W08
 BYTE   Gn3
 BYTE   W08
 BYTE   Bn3
 BYTE   W08
 BYTE   Dn4
 BYTE   W08
 BYTE   Bn3
 BYTE   W08
 BYTE   Gs3
 BYTE   W08
 BYTE   En3
 BYTE   W08
 BYTE   Gs3
 BYTE   W08
 BYTE   Bn3
 BYTE   W08
 BYTE   En4
 BYTE   W08
 BYTE   Bn3
 BYTE   W08
 BYTE   Gs3
 BYTE   W08
// 016   ----------------------------------------
 BYTE   En3
 BYTE   W08
 BYTE   Gs3
 BYTE   W08
 BYTE   Bn3
 BYTE   W08
 BYTE   N96  Fn2
 BYTE   W72
// 017   ----------------------------------------
 BYTE   W24
 BYTE   N12  Fn5
 BYTE   W24
 BYTE   N12
 BYTE   W12
 BYTE   N36  En3
 BYTE   W36
// 018   ----------------------------------------
 BYTE   N12  Fn5
 BYTE   W24
 BYTE   N96  Gn3
 BYTE   W72
// 019   ----------------------------------------
 BYTE   W24
 BYTE   N36  Gn4
 BYTE   W36
 BYTE   N06
 BYTE   W06
 BYTE   Dn4
 BYTE   W06
 BYTE   N12  Dn5
 BYTE   W24
// 020   ----------------------------------------
 BYTE   N12
 BYTE   W24
 BYTE   N96  Ds3
 BYTE   W72
// 021   ----------------------------------------
Label_1_0100CC9F:
 BYTE   W24
 BYTE   N36  Ds4  v127
 BYTE   W36
 BYTE   N06  Ds3
 BYTE   W06
 BYTE   As2
 BYTE   W06
 BYTE   N48  Ds3
 BYTE   W24
 BYTE   PEND 
// 022   ----------------------------------------
 BYTE   W24
 BYTE   TIE  Fs3
 BYTE   W72
// 023   ----------------------------------------
 BYTE   W96
// 024   ----------------------------------------
 BYTE   W24
 BYTE   EOT
 BYTE   N96  Fn2
 BYTE   W72
// 025   ----------------------------------------
 BYTE   W24
 BYTE   N12  Fn5
 BYTE   W24
 BYTE   N12
 BYTE   W12
 BYTE   N06  Fn3
 BYTE   W06
 BYTE   En3
 BYTE   W06
 BYTE   N48  Fn3
 BYTE   W24
// 026   ----------------------------------------
 BYTE   W24
 BYTE   N96  Gn4
 BYTE   W72
// 027   ----------------------------------------
 BYTE   W24
 BYTE   N36
 BYTE   W36
 BYTE   N12  Dn4
 BYTE   W12
 BYTE   N48  Gn4
 BYTE   W24
// 028   ----------------------------------------
 BYTE   W24
 BYTE   N96  Ds3
 BYTE   W72
 BYTE   PATT
  POIN2 Label_1_0100CC9F
// 029   ----------------------------------------
 BYTE   W24
 BYTE   TIE  An2  v127
 BYTE   W72
// 030   ----------------------------------------
 BYTE   W96
// 031   ----------------------------------------
 BYTE   W24
 BYTE   EOT
 BYTE   N08  Gn3
 BYTE   W08
 BYTE   An3
 BYTE   W08
 BYTE   As3
 BYTE   W08
 BYTE   Gn3
 BYTE   W08
 BYTE   An3
 BYTE   W08
 BYTE   As3
 BYTE   W08
 BYTE   Gn3
 BYTE   W08
 BYTE   An3
 BYTE   W08
 BYTE   As3
 BYTE   W08
// 032   ----------------------------------------
Label_1_0100CCF6:
 BYTE   N08  Gn3  v127
 BYTE   W08
 BYTE   An3
 BYTE   W08
 BYTE   As3
 BYTE   W08
 BYTE   An4
 BYTE   W08
 BYTE   As4
 BYTE   W08
 BYTE   Cn5
 BYTE   W08
 BYTE   An4
 BYTE   W08
 BYTE   As4
 BYTE   W08
 BYTE   Cn5
 BYTE   W08
 BYTE   An4
 BYTE   W08
 BYTE   As4
 BYTE   W08
 BYTE   Cn5
 BYTE   W08
 BYTE   PEND 
// 033   ----------------------------------------
Label_1_0100CD11:
 BYTE   N08  An4  v127
 BYTE   W08
 BYTE   As4
 BYTE   W08
 BYTE   Cn5
 BYTE   W08
 BYTE   As3
 BYTE   W08
 BYTE   Cn4
 BYTE   W08
 BYTE   Dn4
 BYTE   W08
 BYTE   As3
 BYTE   W08
 BYTE   Cn4
 BYTE   W08
 BYTE   Dn4
 BYTE   W08
 BYTE   As3
 BYTE   W08
 BYTE   Cn4
 BYTE   W08
 BYTE   Dn4
 BYTE   W08
 BYTE   PEND 
// 034   ----------------------------------------
Label_1_0100CD2C:
 BYTE   N08  As3  v127
 BYTE   W08
 BYTE   Cn4
 BYTE   W08
 BYTE   Dn4
 BYTE   W08
 BYTE   Gn4
 BYTE   W08
 BYTE   An4
 BYTE   W08
 BYTE   As4
 BYTE   W08
 BYTE   Gn4
 BYTE   W08
 BYTE   An4
 BYTE   W08
 BYTE   As4
 BYTE   W08
 BYTE   Gn4
 BYTE   W08
 BYTE   An4
 BYTE   W08
 BYTE   As4
 BYTE   W08
 BYTE   PEND 
// 035   ----------------------------------------
Label_1_0100CD47:
 BYTE   N08  Gn4  v127
 BYTE   W08
 BYTE   An4
 BYTE   W08
 BYTE   As4
 BYTE   W08
 BYTE   Gn4
 BYTE   W08
 BYTE   An4
 BYTE   W08
 BYTE   As4
 BYTE   W08
 BYTE   Gn4
 BYTE   W08
 BYTE   An4
 BYTE   W08
 BYTE   As4
 BYTE   W08
 BYTE   Gn4
 BYTE   W08
 BYTE   An4
 BYTE   W08
 BYTE   As4
 BYTE   W08
 BYTE   PEND 
// 036   ----------------------------------------
Label_1_0100CD62:
 BYTE   N08  Gn4  v127
 BYTE   W08
 BYTE   An4
 BYTE   W08
 BYTE   As4
 BYTE   W08
 BYTE   An4
 BYTE   W08
 BYTE   As4
 BYTE   W08
 BYTE   Cn5
 BYTE   W08
 BYTE   An4
 BYTE   W08
 BYTE   As4
 BYTE   W08
 BYTE   Cn5
 BYTE   W08
 BYTE   An4
 BYTE   W08
 BYTE   As4
 BYTE   W08
 BYTE   Cn5
 BYTE   W08
 BYTE   PEND 
 BYTE   PATT
  POIN2 Label_1_0100CD11
// 037   ----------------------------------------
Label_1_0100CD82:
 BYTE   N08  As3  v127
 BYTE   W08
 BYTE   Cn4
 BYTE   W08
 BYTE   Dn4
 BYTE   W08
 BYTE   Gn3
 BYTE   W08
 BYTE   An3
 BYTE   W08
 BYTE   As3
 BYTE   W08
 BYTE   Gn3
 BYTE   W08
 BYTE   An3
 BYTE   W08
 BYTE   As3
 BYTE   W08
 BYTE   Gn3
 BYTE   W08
 BYTE   An3
 BYTE   W08
 BYTE   As3
 BYTE   W08
 BYTE   PEND 
// 038   ----------------------------------------
 BYTE   Gn3
 BYTE   W08
 BYTE   An3
 BYTE   W08
 BYTE   As3
 BYTE   W08
 BYTE   Gn3
 BYTE   W08
 BYTE   An3
 BYTE   W08
 BYTE   As3
 BYTE   W08
 BYTE   Gn3
 BYTE   W08
 BYTE   An3
 BYTE   W08
 BYTE   As3
 BYTE   W08
 BYTE   Gn3
 BYTE   W08
 BYTE   An3
 BYTE   W08
 BYTE   As3
 BYTE   W08
 BYTE   PATT
  POIN2 Label_1_0100CCF6
 BYTE   PATT
  POIN2 Label_1_0100CD11
 BYTE   PATT
  POIN2 Label_1_0100CD2C
 BYTE   PATT
  POIN2 Label_1_0100CD47
 BYTE   PATT
  POIN2 Label_1_0100CD62
 BYTE   PATT
  POIN2 Label_1_0100CD11
 BYTE   PATT
  POIN2 Label_1_0100CD82
// 039   ----------------------------------------
 BYTE   GoTo
  POIN2 Label_1_0100CBBE
// 040   ----------------------------------------
 BYTE   N08  Gn3  v127
 BYTE   W08
 BYTE   An3
 BYTE   W08
 BYTE   As3
 BYTE   W08
 BYTE   FINE

//**************** Track 3 (Midi-Chn.2) ****************//

songDerrisKharlanAppear_003:
// 000   ----------------------------------------
 BYTE   KEYSH   songDerrisKharlanAppear_key+0
Label_2_0100CDEA:
 BYTE   VOICE   19
 BYTE   MODT 0
 BYTE   CnM2  v000
 BYTE   LFOS 0
 BYTE   CnM2  v044
 BYTE   VOL   14*songDerrisKharlanAppear_mvl/mxv
 BYTE   PAN   c_v+0
 BYTE   W24
 BYTE   N96  An2  v127
 BYTE   W72
// 001   ----------------------------------------
 BYTE   W24
 BYTE   As2
 BYTE   W72
// 002   ----------------------------------------
 BYTE   W24
 BYTE   An2
 BYTE   W72
// 003   ----------------------------------------
 BYTE   W72
 BYTE   N12  Bn3
 BYTE   W12
 BYTE   En4
 BYTE   W12
// 004   ----------------------------------------
 BYTE   En3
 BYTE   W12
 BYTE   Bn3
 BYTE   W12
 BYTE   N96  An2
 BYTE   W72
// 005   ----------------------------------------
 BYTE   W24
 BYTE   As2
 BYTE   W72
// 006   ----------------------------------------
 BYTE   W24
 BYTE   An2
 BYTE   W72
// 007   ----------------------------------------
 BYTE   W24
 BYTE   N72
 BYTE   W72
// 008   ----------------------------------------
 BYTE   N24  Gs2
 BYTE   W24
 BYTE   N96  Dn5
 BYTE   W72
// 009   ----------------------------------------
 BYTE   W24
 BYTE   N24
 BYTE   W24
 BYTE   Cn5
 BYTE   W24
 BYTE   Bn4
 BYTE   W24
// 010   ----------------------------------------
 BYTE   N96  An4
 BYTE   W96
// 011   ----------------------------------------
 BYTE   N24  Bn4
 BYTE   W24
 BYTE   N96  En5
 BYTE   W72
// 012   ----------------------------------------
 BYTE   W24
 BYTE   An2
 BYTE   W72
// 013   ----------------------------------------
 BYTE   W24
 BYTE   Gs2
 BYTE   W72
// 014   ----------------------------------------
 BYTE   W24
 BYTE   Gn2
 BYTE   W72
// 015   ----------------------------------------
 BYTE   W24
 BYTE   Gs2
 BYTE   W72
// 016   ----------------------------------------
 BYTE   W24
 BYTE   N12  Dn5
 BYTE   W24
 BYTE   N12
 BYTE   W24
 BYTE   N12
 BYTE   W24
// 017   ----------------------------------------
 BYTE   N12
 BYTE   W24
 BYTE   N48  En2
 BYTE   W48
 BYTE   N12  Dn5
 BYTE   W24
// 018   ----------------------------------------
 BYTE   N24  Fn3
 BYTE   W24
 BYTE   N96  Gn4
 BYTE   W72
// 019   ----------------------------------------
 BYTE   W24
 BYTE   N12  Gn5
 BYTE   W24
 BYTE   Dn5
 BYTE   W12
 BYTE   N06  Gn3
 BYTE   W06
 BYTE   Dn3
 BYTE   W06
 BYTE   N12  Gn5
 BYTE   W24
// 020   ----------------------------------------
 BYTE   N12
 BYTE   W24
 BYTE   N96  Ds4
 BYTE   W72
// 021   ----------------------------------------
 BYTE   W24
 BYTE   N36  Ds3
 BYTE   W36
 BYTE   N06  Ds4
 BYTE   W06
 BYTE   As3
 BYTE   W06
 BYTE   N48  Ds4
 BYTE   W24
// 022   ----------------------------------------
 BYTE   W24
 BYTE   N96  Gn4
 BYTE   W72
// 023   ----------------------------------------
 BYTE   W24
 BYTE   Fs4
 BYTE   W72
// 024   ----------------------------------------
 BYTE   W24
 BYTE   Fn4
 BYTE   W72
// 025   ----------------------------------------
 BYTE   W24
 BYTE   N48  En2
 BYTE   W48
 BYTE   Fn2
 BYTE   W24
// 026   ----------------------------------------
 BYTE   W24
 BYTE   N96  Gn3
 BYTE   W72
// 027   ----------------------------------------
 BYTE   W24
 BYTE   N36
 BYTE   W36
 BYTE   N12  Dn3
 BYTE   W12
 BYTE   N48  Gn3
 BYTE   W24
// 028   ----------------------------------------
 BYTE   W24
 BYTE   TIE  Ds2
 BYTE   W72
// 029   ----------------------------------------
 BYTE   W96
// 030   ----------------------------------------
 BYTE   W24
 BYTE   EOT
 BYTE   N96  Gn4
 BYTE   W72
// 031   ----------------------------------------
 BYTE   W24
 BYTE   Fs4
 BYTE   W72
// 032   ----------------------------------------
 BYTE   W24
 BYTE   N08  Gn4
 BYTE   W08
 BYTE   An4
 BYTE   W08
 BYTE   As4
 BYTE   W08
 BYTE   Gn4
 BYTE   W08
 BYTE   An4
 BYTE   W08
 BYTE   As4
 BYTE   W08
 BYTE   Gn4
 BYTE   W08
 BYTE   An4
 BYTE   W08
 BYTE   As4
 BYTE   W08
// 033   ----------------------------------------
Label_2_0100CEAC:
 BYTE   N08  Gn4  v127
 BYTE   W08
 BYTE   An4
 BYTE   W08
 BYTE   As4
 BYTE   W08
 BYTE   N96  Gn2
 BYTE   W72
 BYTE   PEND 
// 034   ----------------------------------------
Label_2_0100CEB8:
 BYTE   W24
 BYTE   N08  As4  v127
 BYTE   W08
 BYTE   Cn5
 BYTE   W08
 BYTE   Dn5
 BYTE   W08
 BYTE   As4
 BYTE   W08
 BYTE   Cn5
 BYTE   W08
 BYTE   Dn5
 BYTE   W08
 BYTE   As4
 BYTE   W08
 BYTE   Cn5
 BYTE   W08
 BYTE   Dn5
 BYTE   W08
 BYTE   PEND 
// 035   ----------------------------------------
Label_2_0100CECE:
 BYTE   N08  As4  v127
 BYTE   W08
 BYTE   Cn5
 BYTE   W08
 BYTE   Dn5
 BYTE   W08
 BYTE   N96  As2
 BYTE   W72
 BYTE   PEND 
// 036   ----------------------------------------
Label_2_0100CEDA:
 BYTE   W24
 BYTE   TIE  As2  v127
 BYTE   W72
 BYTE   PEND 
// 037   ----------------------------------------
 BYTE   W96
// 038   ----------------------------------------
 BYTE   W24
 BYTE   EOT
 BYTE   N08  As4
 BYTE   W08
 BYTE   Cn5
 BYTE   W08
 BYTE   Dn5
 BYTE   W08
 BYTE   As4
 BYTE   W08
 BYTE   Cn5
 BYTE   W08
 BYTE   Dn5
 BYTE   W08
 BYTE   As4
 BYTE   W08
 BYTE   Cn5
 BYTE   W08
 BYTE   Dn5
 BYTE   W08
// 039   ----------------------------------------
Label_2_0100CEF6:
 BYTE   N08  As4  v127
 BYTE   W08
 BYTE   Cn5
 BYTE   W08
 BYTE   Dn5
 BYTE   W08
 BYTE   Gn4
 BYTE   W08
 BYTE   An4
 BYTE   W08
 BYTE   As4
 BYTE   W08
 BYTE   Gn4
 BYTE   W08
 BYTE   An4
 BYTE   W08
 BYTE   As4
 BYTE   W08
 BYTE   Gn4
 BYTE   W08
 BYTE   An4
 BYTE   W08
 BYTE   As4
 BYTE   W08
 BYTE   PEND 
// 040   ----------------------------------------
 BYTE   Gn4
 BYTE   W08
 BYTE   An4
 BYTE   W08
 BYTE   As4
 BYTE   W08
 BYTE   Gn4
 BYTE   W08
 BYTE   An4
 BYTE   W08
 BYTE   As4
 BYTE   W08
 BYTE   Gn4
 BYTE   W08
 BYTE   An4
 BYTE   W08
 BYTE   As4
 BYTE   W08
 BYTE   Gn4
 BYTE   W08
 BYTE   An4
 BYTE   W08
 BYTE   As4
 BYTE   W08
 BYTE   PATT
  POIN2 Label_2_0100CEAC
 BYTE   PATT
  POIN2 Label_2_0100CEB8
 BYTE   PATT
  POIN2 Label_2_0100CECE
 BYTE   PATT
  POIN2 Label_2_0100CEDA
// 041   ----------------------------------------
 BYTE   W96
// 042   ----------------------------------------
 BYTE   W24
 BYTE   EOT
 BYTE   As2
 BYTE   N08  As4  v127
 BYTE   W08
 BYTE   Cn5
 BYTE   W08
 BYTE   Dn5
 BYTE   W08
 BYTE   As4
 BYTE   W08
 BYTE   Cn5
 BYTE   W08
 BYTE   Dn5
 BYTE   W08
 BYTE   As4
 BYTE   W08
 BYTE   Cn5
 BYTE   W08
 BYTE   Dn5
 BYTE   W08
 BYTE   PATT
  POIN2 Label_2_0100CEF6
// 043   ----------------------------------------
 BYTE   GoTo
  POIN2 Label_2_0100CDEA
// 044   ----------------------------------------
 BYTE   N08  Gn4  v127
 BYTE   W08
 BYTE   An4
 BYTE   W08
 BYTE   As4
 BYTE   W08
 BYTE   FINE

//**************** Track 4 (Midi-Chn.3) ****************//

songDerrisKharlanAppear_004:
// 000   ----------------------------------------
 BYTE   KEYSH   songDerrisKharlanAppear_key+0
Label_3_0100CF6A:
 BYTE   VOICE   19
 BYTE   MODT 0
 BYTE   CnM2  v000
 BYTE   LFOS 0
 BYTE   CnM2  v044
 BYTE   VOL   14*songDerrisKharlanAppear_mvl/mxv
 BYTE   PAN   c_v+0
 BYTE   W96
// 001   ----------------------------------------
 BYTE   W96
// 002   ----------------------------------------
 BYTE   W96
// 003   ----------------------------------------
 BYTE   W96
// 004   ----------------------------------------
 BYTE   W96
// 005   ----------------------------------------
 BYTE   W96
// 006   ----------------------------------------
 BYTE   W96
// 007   ----------------------------------------
 BYTE   W96
// 008   ----------------------------------------
 BYTE   W96
// 009   ----------------------------------------
 BYTE   W96
// 010   ----------------------------------------
 BYTE   W96
// 011   ----------------------------------------
 BYTE   W96
// 012   ----------------------------------------
 BYTE   W96
// 013   ----------------------------------------
 BYTE   W96
// 014   ----------------------------------------
 BYTE   W96
// 015   ----------------------------------------
 BYTE   W96
// 016   ----------------------------------------
 BYTE   W24
 BYTE   N12  Fn5  v127
 BYTE   W24
 BYTE   N12
 BYTE   W24
 BYTE   N12
 BYTE   W24
// 017   ----------------------------------------
 BYTE   N12
 BYTE   W24
 BYTE   N36  Gn4
 BYTE   W48
 BYTE   N12  Fn5
 BYTE   W24
// 018   ----------------------------------------
 BYTE   N24  Fn4
 BYTE   W24
 BYTE   N12  Dn5
 BYTE   W24
 BYTE   N12
 BYTE   W24
 BYTE   N12
 BYTE   W24
// 019   ----------------------------------------
 BYTE   N12
 BYTE   W24
 BYTE   N12
 BYTE   W24
 BYTE   Gn5
 BYTE   W24
 BYTE   N48  Gn4
 BYTE   W24
// 020   ----------------------------------------
 BYTE   W24
 BYTE   N12  Gn5
 BYTE   W24
 BYTE   N12
 BYTE   W24
 BYTE   N12
 BYTE   W24
// 021   ----------------------------------------
 BYTE   N12
 BYTE   W24
 BYTE   Ds5
 BYTE   W24
 BYTE   N12
 BYTE   W24
 BYTE   N12
 BYTE   W24
// 022   ----------------------------------------
Label_3_0100CFBA:
 BYTE   N12  Ds5  v127
 BYTE   W24
 BYTE   Dn5
 BYTE   W24
 BYTE   N12
 BYTE   W24
 BYTE   N12
 BYTE   W24
 BYTE   PEND 
// 023   ----------------------------------------
Label_3_0100CFC5:
 BYTE   N12  Dn5  v127
 BYTE   W24
 BYTE   N12
 BYTE   W24
 BYTE   N12
 BYTE   W24
 BYTE   N12
 BYTE   W24
 BYTE   PEND 
 BYTE   PATT
  POIN2 Label_3_0100CFC5
// 024   ----------------------------------------
 BYTE   N12  Dn5  v127
 BYTE   W24
 BYTE   N36  Gn4
 BYTE   W48
 BYTE   N12  Fn5
 BYTE   W24
// 025   ----------------------------------------
 BYTE   N12
 BYTE   W24
 BYTE   Dn5
 BYTE   W24
 BYTE   N12
 BYTE   W24
 BYTE   N12
 BYTE   W24
// 026   ----------------------------------------
 BYTE   N12
 BYTE   W24
 BYTE   N12
 BYTE   W24
 BYTE   N12
 BYTE   W48
// 027   ----------------------------------------
 BYTE   N12
 BYTE   W24
 BYTE   Ds5
 BYTE   W24
 BYTE   N12
 BYTE   W24
 BYTE   N12
 BYTE   W24
// 028   ----------------------------------------
 BYTE   N12
 BYTE   W24
 BYTE   N12
 BYTE   W24
 BYTE   N12
 BYTE   W24
 BYTE   N12
 BYTE   W24
 BYTE   PATT
  POIN2 Label_3_0100CFBA
 BYTE   PATT
  POIN2 Label_3_0100CFC5
// 029   ----------------------------------------
 BYTE   N12  Dn5  v127
 BYTE   W96
// 030   ----------------------------------------
 BYTE   W96
// 031   ----------------------------------------
 BYTE   W96
// 032   ----------------------------------------
 BYTE   W96
// 033   ----------------------------------------
 BYTE   W96
// 034   ----------------------------------------
 BYTE   W96
// 035   ----------------------------------------
 BYTE   W96
// 036   ----------------------------------------
 BYTE   W96
// 037   ----------------------------------------
 BYTE   W96
// 038   ----------------------------------------
 BYTE   W96
// 039   ----------------------------------------
 BYTE   W96
// 040   ----------------------------------------
 BYTE   W96
// 041   ----------------------------------------
 BYTE   W96
// 042   ----------------------------------------
 BYTE   W96
// 043   ----------------------------------------
 BYTE   W96
// 044   ----------------------------------------
 BYTE   W96
// 045   ----------------------------------------
 BYTE   GoTo
  POIN2 Label_3_0100CF6A
// 046   ----------------------------------------
 BYTE   W24
 BYTE   FINE

//**************** Track 5 (Midi-Chn.4) ****************//

songDerrisKharlanAppear_005:
// 000   ----------------------------------------
 BYTE   KEYSH   songDerrisKharlanAppear_key+0
Label_4_0100D026:
 BYTE   VOICE   19
 BYTE   MODT 0
 BYTE   CnM2  v000
 BYTE   LFOS 0
 BYTE   CnM2  v044
 BYTE   VOL   14*songDerrisKharlanAppear_mvl/mxv
 BYTE   PAN   c_v+0
 BYTE   W96
// 001   ----------------------------------------
 BYTE   W96
// 002   ----------------------------------------
 BYTE   W96
// 003   ----------------------------------------
 BYTE   W96
// 004   ----------------------------------------
 BYTE   W96
// 005   ----------------------------------------
 BYTE   W96
// 006   ----------------------------------------
 BYTE   W96
// 007   ----------------------------------------
 BYTE   W96
// 008   ----------------------------------------
 BYTE   W96
// 009   ----------------------------------------
 BYTE   W96
// 010   ----------------------------------------
 BYTE   W96
// 011   ----------------------------------------
 BYTE   W96
// 012   ----------------------------------------
 BYTE   W96
// 013   ----------------------------------------
 BYTE   W96
// 014   ----------------------------------------
 BYTE   W96
// 015   ----------------------------------------
 BYTE   W96
// 016   ----------------------------------------
 BYTE   W24
 BYTE   N96  Fn4  v127
 BYTE   W72
// 017   ----------------------------------------
 BYTE   W24
 BYTE   N36  Gn3
 BYTE   W48
 BYTE   N48  Fn2
 BYTE   W24
// 018   ----------------------------------------
 BYTE   W24
 BYTE   N12  Gn5
 BYTE   W24
 BYTE   N12
 BYTE   W24
 BYTE   N12
 BYTE   W24
// 019   ----------------------------------------
 BYTE   N12
 BYTE   W24
 BYTE   N36  Gn3
 BYTE   W48
 BYTE   N48
 BYTE   W24
// 020   ----------------------------------------
 BYTE   W24
 BYTE   N12  Ds5
 BYTE   W24
 BYTE   N12
 BYTE   W24
 BYTE   N12
 BYTE   W24
// 021   ----------------------------------------
 BYTE   N12
 BYTE   W24
 BYTE   Gn5
 BYTE   W24
 BYTE   N12
 BYTE   W24
 BYTE   N12
 BYTE   W24
// 022   ----------------------------------------
Label_4_0100D06D:
 BYTE   N12  Gn5  v127
 BYTE   W24
 BYTE   Fs5
 BYTE   W24
 BYTE   N12
 BYTE   W24
 BYTE   N12
 BYTE   W24
 BYTE   PEND 
// 023   ----------------------------------------
Label_4_0100D078:
 BYTE   N12  Fs5  v127
 BYTE   W24
 BYTE   N12
 BYTE   W24
 BYTE   N12
 BYTE   W24
 BYTE   N12
 BYTE   W24
 BYTE   PEND 
// 024   ----------------------------------------
 BYTE   N12
 BYTE   W24
 BYTE   Fn5
 BYTE   W24
 BYTE   N12
 BYTE   W24
 BYTE   N12
 BYTE   W24
// 025   ----------------------------------------
 BYTE   N12
 BYTE   W24
 BYTE   N36  Gn3
 BYTE   W48
 BYTE   N12  Dn5
 BYTE   W24
// 026   ----------------------------------------
 BYTE   N12
 BYTE   W24
 BYTE   Gn5
 BYTE   W24
 BYTE   N12
 BYTE   W24
 BYTE   N12
 BYTE   W24
// 027   ----------------------------------------
 BYTE   N12
 BYTE   W24
 BYTE   N12
 BYTE   W24
 BYTE   N12
 BYTE   W48
// 028   ----------------------------------------
Label_4_0100D0A1:
 BYTE   N12  Gn5  v127
 BYTE   W24
 BYTE   N12
 BYTE   W24
 BYTE   N12
 BYTE   W24
 BYTE   N12
 BYTE   W24
 BYTE   PEND 
 BYTE   PATT
  POIN2 Label_4_0100D0A1
 BYTE   PATT
  POIN2 Label_4_0100D06D
 BYTE   PATT
  POIN2 Label_4_0100D078
// 029   ----------------------------------------
 BYTE   N12  Fs5  v127
 BYTE   W96
// 030   ----------------------------------------
 BYTE   W96
// 031   ----------------------------------------
 BYTE   W96
// 032   ----------------------------------------
 BYTE   W96
// 033   ----------------------------------------
 BYTE   W96
// 034   ----------------------------------------
 BYTE   W96
// 035   ----------------------------------------
 BYTE   W96
// 036   ----------------------------------------
 BYTE   W96
// 037   ----------------------------------------
 BYTE   W96
// 038   ----------------------------------------
 BYTE   W96
// 039   ----------------------------------------
 BYTE   W96
// 040   ----------------------------------------
 BYTE   W96
// 041   ----------------------------------------
 BYTE   W96
// 042   ----------------------------------------
 BYTE   W96
// 043   ----------------------------------------
 BYTE   W96
// 044   ----------------------------------------
 BYTE   W96
// 045   ----------------------------------------
 BYTE   GoTo
  POIN2 Label_4_0100D026
// 046   ----------------------------------------
 BYTE   W24
 BYTE   FINE

//**************** Track 6 (Midi-Chn.5) ****************//

songDerrisKharlanAppear_006:
// 000   ----------------------------------------
 BYTE   KEYSH   songDerrisKharlanAppear_key+0
Label_5_0100D0DA:
 BYTE   VOICE   73
 BYTE   MODT 0
 BYTE   CnM2  v000
 BYTE   LFOS 0
 BYTE   CnM2  v044
 BYTE   VOL   19*songDerrisKharlanAppear_mvl/mxv
 BYTE   PAN   c_v+0
 BYTE   W24
 BYTE   N96  En3  v127
 BYTE   W72
// 001   ----------------------------------------
 BYTE   W24
 BYTE   N48  Dn3
 BYTE   W48
 BYTE   Gn3
 BYTE   W24
// 002   ----------------------------------------
 BYTE   W24
 BYTE   N96  An3
 BYTE   W72
// 003   ----------------------------------------
 BYTE   W24
 BYTE   Bn3
 BYTE   W72
// 004   ----------------------------------------
 BYTE   W24
 BYTE   Cn4
 BYTE   W72
// 005   ----------------------------------------
Label_5_0100D0FB:
 BYTE   W24
 BYTE   N48  Dn4  v127
 BYTE   W48
 BYTE   As3
 BYTE   W24
 BYTE   PEND 
// 006   ----------------------------------------
 BYTE   W24
 BYTE   N96  An3
 BYTE   W72
// 007   ----------------------------------------
 BYTE   W24
 BYTE   N48
 BYTE   W48
 BYTE   Bn3
 BYTE   W24
// 008   ----------------------------------------
 BYTE   W24
 BYTE   An3
 BYTE   W48
 BYTE   Dn4
 BYTE   W24
// 009   ----------------------------------------
 BYTE   W24
 BYTE   En4
 BYTE   W48
 BYTE   Fn4
 BYTE   W24
// 010   ----------------------------------------
 BYTE   W24
 BYTE   En4
 BYTE   W48
 BYTE   Bn3
 BYTE   W24
// 011   ----------------------------------------
 BYTE   W24
 BYTE   N36  Gs3
 BYTE   W36
 BYTE   An3
 BYTE   W36
// 012   ----------------------------------------
 BYTE   N24  Bn3
 BYTE   W24
 BYTE   N96  Cn4
 BYTE   W72
// 013   ----------------------------------------
Label_5_0100D127:
 BYTE   W24
 BYTE   N48  En4  v127
 BYTE   W48
 BYTE   Dn4
 BYTE   W24
 BYTE   PEND 
// 014   ----------------------------------------
 BYTE   W24
 BYTE   Cn4
 BYTE   W48
 BYTE   N24  Bn3
 BYTE   W24
// 015   ----------------------------------------
 BYTE   An3
 BYTE   W24
 BYTE   N96  Bn3
 BYTE   W72
// 016   ----------------------------------------
 BYTE   W24
 BYTE   An3
 BYTE   W72
// 017   ----------------------------------------
 BYTE   W24
 BYTE   Dn4
 BYTE   W72
 BYTE   PATT
  POIN2 Label_5_0100D127
// 018   ----------------------------------------
 BYTE   W24
 BYTE   N36  Fn4  v127
 BYTE   W36
 BYTE   En4
 BYTE   W36
// 019   ----------------------------------------
 BYTE   N24  Dn4
 BYTE   W24
 BYTE   N96  Ds4
 BYTE   W72
// 020   ----------------------------------------
 BYTE   W24
 BYTE   As3
 BYTE   W72
// 021   ----------------------------------------
 BYTE   W24
 BYTE   Dn4
 BYTE   W72
// 022   ----------------------------------------
 BYTE   W24
 BYTE   N48  Gn4
 BYTE   W48
 BYTE   Fs4
 BYTE   W24
// 023   ----------------------------------------
 BYTE   W24
 BYTE   N96  Fn4
 BYTE   W72
// 024   ----------------------------------------
 BYTE   W24
 BYTE   N48  Dn4
 BYTE   W48
 BYTE   An3
 BYTE   W24
// 025   ----------------------------------------
 BYTE   W24
 BYTE   N96  As3
 BYTE   W72
// 026   ----------------------------------------
 BYTE   W24
 BYTE   Dn4
 BYTE   W72
// 027   ----------------------------------------
 BYTE   W24
 BYTE   Cn4
 BYTE   W72
 BYTE   PATT
  POIN2 Label_5_0100D0FB
// 028   ----------------------------------------
 BYTE   W24
 BYTE   N96  An3  v127
 BYTE   W72
// 029   ----------------------------------------
 BYTE   W24
 BYTE   Dn4
 BYTE   W72
// 030   ----------------------------------------
Label_5_0100D17F:
 BYTE   W24
 BYTE   N48  Gn3  v127
 BYTE   W48
 BYTE   N24  Dn3
 BYTE   W24
 BYTE   PEND 
// 031   ----------------------------------------
Label_5_0100D188:
 BYTE   N24  Gn3  v127
 BYTE   W24
 BYTE   N36  An3
 BYTE   W36
 BYTE   As3
 BYTE   W36
 BYTE   PEND 
 BYTE   PATT
  POIN2 Label_5_0100D188
// 032   ----------------------------------------
Label_5_0100D197:
 BYTE   N24  Cn4  v127
 BYTE   W24
 BYTE   N96  Dn4
 BYTE   W72
 BYTE   PEND 
// 033   ----------------------------------------
Label_5_0100D19F:
 BYTE   W24
 BYTE   N24  Gn3  v127
 BYTE   W24
 BYTE   N48  Dn3
 BYTE   W48
 BYTE   PEND 
// 034   ----------------------------------------
Label_5_0100D1A8:
 BYTE   N24  An2  v127
 BYTE   W24
 BYTE   N48  As2
 BYTE   W48
 BYTE   Dn3
 BYTE   W24
 BYTE   PEND 
// 035   ----------------------------------------
Label_5_0100D1B2:
 BYTE   W24
 BYTE   N36  En3  v127
 BYTE   W36
 BYTE   Fn3
 BYTE   W36
 BYTE   PEND 
// 036   ----------------------------------------
Label_5_0100D1BA:
 BYTE   N24  Gn3  v127
 BYTE   W24
 BYTE   N48  An3
 BYTE   W48
 BYTE   Gn3
 BYTE   W24
 BYTE   PEND 
 BYTE   PATT
  POIN2 Label_5_0100D17F
 BYTE   PATT
  POIN2 Label_5_0100D188
 BYTE   PATT
  POIN2 Label_5_0100D188
 BYTE   PATT
  POIN2 Label_5_0100D197
 BYTE   PATT
  POIN2 Label_5_0100D19F
 BYTE   PATT
  POIN2 Label_5_0100D1A8
 BYTE   PATT
  POIN2 Label_5_0100D1B2
 BYTE   PATT
  POIN2 Label_5_0100D1BA
// 037   ----------------------------------------
 BYTE   GoTo
  POIN2 Label_5_0100D0DA
// 038   ----------------------------------------
 BYTE   W24
 BYTE   FINE

//**************** Track 7 (Midi-Chn.6) ****************//

songDerrisKharlanAppear_007:
// 000   ----------------------------------------
 BYTE   KEYSH   songDerrisKharlanAppear_key+0
Label_6_0100D1F6:
 BYTE   VOICE   35
 BYTE   MODT 0
 BYTE   CnM2  v000
 BYTE   LFOS 0
 BYTE   CnM2  v044
 BYTE   VOL   19*songDerrisKharlanAppear_mvl/mxv
 BYTE   PAN   c_v+0
 BYTE   W24
 BYTE   N24  An1  v127
 BYTE   W24
 BYTE   N12
 BYTE   W12
 BYTE   N24
 BYTE   W24
 BYTE   N24
 BYTE   W12
// 001   ----------------------------------------
 BYTE   W12
 BYTE   N12
 BYTE   W12
 BYTE   N24  Gn1
 BYTE   W24
 BYTE   N12
 BYTE   W12
 BYTE   N24
 BYTE   W24
 BYTE   N24
 BYTE   W12
// 002   ----------------------------------------
 BYTE   W12
 BYTE   N12
 BYTE   W12
 BYTE   N24  An1
 BYTE   W24
 BYTE   N12
 BYTE   W12
 BYTE   N24
 BYTE   W24
 BYTE   N24
 BYTE   W12
// 003   ----------------------------------------
 BYTE   W12
 BYTE   N12  Dn2
 BYTE   W12
 BYTE   En1
 BYTE   W12
 BYTE   N24
 BYTE   W24
 BYTE   N12
 BYTE   W12
 BYTE   N24
 BYTE   W24
// 004   ----------------------------------------
 BYTE   N24
 BYTE   W24
 BYTE   N12  An1
 BYTE   W12
 BYTE   N12
 BYTE   W12
 BYTE   N12
 BYTE   W12
 BYTE   N12
 BYTE   W12
 BYTE   N12
 BYTE   W12
 BYTE   N12
 BYTE   W12
// 005   ----------------------------------------
 BYTE   N12
 BYTE   W12
 BYTE   N12
 BYTE   W12
 BYTE   Gn1
 BYTE   W12
 BYTE   N12
 BYTE   W12
 BYTE   N12
 BYTE   W12
 BYTE   N12
 BYTE   W12
 BYTE   N12
 BYTE   W12
 BYTE   N12
 BYTE   W12
// 006   ----------------------------------------
 BYTE   N12
 BYTE   W12
 BYTE   N12
 BYTE   W12
 BYTE   An1
 BYTE   W12
 BYTE   N12
 BYTE   W12
 BYTE   N12
 BYTE   W12
 BYTE   N12
 BYTE   W12
 BYTE   N12
 BYTE   W12
 BYTE   N12
 BYTE   W12
// 007   ----------------------------------------
 BYTE   N12
 BYTE   W12
 BYTE   N12
 BYTE   W12
 BYTE   En1
 BYTE   W12
 BYTE   N12
 BYTE   W12
 BYTE   N12
 BYTE   W12
 BYTE   N12
 BYTE   W12
 BYTE   N08
 BYTE   W08
 BYTE   N08
 BYTE   W08
 BYTE   N08
 BYTE   W08
// 008   ----------------------------------------
 BYTE   N08
 BYTE   W08
 BYTE   N08
 BYTE   W08
 BYTE   N08
 BYTE   W08
 BYTE   N12  An1
 BYTE   W12
 BYTE   N24
 BYTE   W24
 BYTE   N24
 BYTE   W24
 BYTE   N12
 BYTE   W12
// 009   ----------------------------------------
Label_6_0100D281:
 BYTE   N24  An1  v127
 BYTE   W36
 BYTE   Gn1
 BYTE   W36
 BYTE   N12  Dn2
 BYTE   W12
 BYTE   Gn1
 BYTE   W12
 BYTE   PEND 
// 010   ----------------------------------------
 BYTE   N12
 BYTE   W12
 BYTE   Dn2
 BYTE   W12
 BYTE   En1
 BYTE   W12
 BYTE   N24
 BYTE   W24
 BYTE   N24
 BYTE   W24
 BYTE   N12
 BYTE   W12
// 011   ----------------------------------------
 BYTE   N24
 BYTE   W36
 BYTE   N24
 BYTE   W36
 BYTE   N12  En2
 BYTE   W12
 BYTE   En1
 BYTE   W12
// 012   ----------------------------------------
 BYTE   N12
 BYTE   W12
 BYTE   En2
 BYTE   W12
 BYTE   An1
 BYTE   W12
 BYTE   N12
 BYTE   W12
 BYTE   N12
 BYTE   W12
 BYTE   N12
 BYTE   W12
 BYTE   N12
 BYTE   W12
 BYTE   N12
 BYTE   W12
// 013   ----------------------------------------
 BYTE   N12
 BYTE   W12
 BYTE   N12
 BYTE   W12
 BYTE   Gs1
 BYTE   W12
 BYTE   N12
 BYTE   W12
 BYTE   N12
 BYTE   W12
 BYTE   N12
 BYTE   W12
 BYTE   N12
 BYTE   W12
 BYTE   N12
 BYTE   W12
// 014   ----------------------------------------
 BYTE   N12
 BYTE   W12
 BYTE   N12
 BYTE   W12
 BYTE   Gn1
 BYTE   W12
 BYTE   N12
 BYTE   W12
 BYTE   N12
 BYTE   W12
 BYTE   N12
 BYTE   W12
 BYTE   N12
 BYTE   W12
 BYTE   N12
 BYTE   W12
// 015   ----------------------------------------
 BYTE   N12
 BYTE   W12
 BYTE   N12
 BYTE   W12
 BYTE   En1
 BYTE   W12
 BYTE   N12
 BYTE   W12
 BYTE   N12
 BYTE   W12
 BYTE   N12
 BYTE   W12
 BYTE   N12
 BYTE   W12
 BYTE   N12
 BYTE   W12
// 016   ----------------------------------------
 BYTE   N12
 BYTE   W12
 BYTE   N12
 BYTE   W12
 BYTE   An1
 BYTE   W12
 BYTE   N24
 BYTE   W24
 BYTE   N24
 BYTE   W24
 BYTE   N12
 BYTE   W12
// 017   ----------------------------------------
 BYTE   N24
 BYTE   W36
 BYTE   Gn1
 BYTE   W36
 BYTE   N12
 BYTE   W12
 BYTE   Dn2
 BYTE   W12
// 018   ----------------------------------------
Label_6_0100D2F6:
 BYTE   N12  Gn1  v127
 BYTE   W12
 BYTE   Dn2
 BYTE   W12
 BYTE   Gn1
 BYTE   W12
 BYTE   N24
 BYTE   W24
 BYTE   N24
 BYTE   W24
 BYTE   N12
 BYTE   W12
 BYTE   PEND 
// 019   ----------------------------------------
Label_6_0100D305:
 BYTE   N24  Gn1  v127
 BYTE   W36
 BYTE   N24
 BYTE   W36
 BYTE   N12  Gn2
 BYTE   W12
 BYTE   Gn1
 BYTE   W12
 BYTE   PEND 
// 020   ----------------------------------------
Label_6_0100D311:
 BYTE   N12  Gn1  v127
 BYTE   W12
 BYTE   Gn2
 BYTE   W12
 BYTE   An1
 BYTE   W12
 BYTE   N24
 BYTE   W24
 BYTE   N24
 BYTE   W24
 BYTE   N12
 BYTE   W12
 BYTE   PEND 
// 021   ----------------------------------------
Label_6_0100D320:
 BYTE   N24  An1  v127
 BYTE   W24
 BYTE   N12  Gn1
 BYTE   W12
 BYTE   N24
 BYTE   W24
 BYTE   N12
 BYTE   W12
 BYTE   N24  Ds2
 BYTE   W24
 BYTE   PEND 
// 022   ----------------------------------------
Label_6_0100D32F:
 BYTE   N24  Ds2  v127
 BYTE   W24
 BYTE   N12  An1
 BYTE   W12
 BYTE   N24
 BYTE   W24
 BYTE   N24
 BYTE   W24
 BYTE   N12
 BYTE   W12
 BYTE   PEND 
// 023   ----------------------------------------
 BYTE   N24
 BYTE   W24
 BYTE   N12  Gn1
 BYTE   W12
 BYTE   N24
 BYTE   W24
 BYTE   N12
 BYTE   W12
 BYTE   N24  Dn2
 BYTE   W24
// 024   ----------------------------------------
 BYTE   N12  Gn1
 BYTE   W12
 BYTE   Dn2
 BYTE   W12
 BYTE   An1
 BYTE   W12
 BYTE   N24
 BYTE   W24
 BYTE   N24
 BYTE   W24
 BYTE   N12
 BYTE   W12
 BYTE   PATT
  POIN2 Label_6_0100D281
 BYTE   PATT
  POIN2 Label_6_0100D2F6
 BYTE   PATT
  POIN2 Label_6_0100D305
 BYTE   PATT
  POIN2 Label_6_0100D311
 BYTE   PATT
  POIN2 Label_6_0100D320
 BYTE   PATT
  POIN2 Label_6_0100D32F
// 025   ----------------------------------------
 BYTE   N24  An1  v127
 BYTE   W24
 BYTE   N12  Gn1
 BYTE   W12
 BYTE   N24
 BYTE   W24
 BYTE   N12
 BYTE   W12
 BYTE   Dn2
 BYTE   W12
 BYTE   Gn1
 BYTE   W12
// 026   ----------------------------------------
 BYTE   N12
 BYTE   W12
 BYTE   Dn2
 BYTE   W12
 BYTE   Gn1
 BYTE   W12
 BYTE   N24
 BYTE   W24
 BYTE   Gn2
 BYTE   W24
 BYTE   Gn1
 BYTE   W12
// 027   ----------------------------------------
Label_6_0100D38F:
 BYTE   W12
 BYTE   N12  Gn1  v127
 BYTE   W12
 BYTE   Fn1
 BYTE   W12
 BYTE   N24
 BYTE   W24
 BYTE   Fn2
 BYTE   W24
 BYTE   N12  Fn1
 BYTE   W12
 BYTE   PEND 
// 028   ----------------------------------------
Label_6_0100D39E:
 BYTE   N12  Fn1  v127
 BYTE   W12
 BYTE   En1
 BYTE   W12
 BYTE   N12
 BYTE   W12
 BYTE   N24
 BYTE   W24
 BYTE   En2
 BYTE   W24
 BYTE   N12  En1
 BYTE   W12
 BYTE   PEND 
// 029   ----------------------------------------
Label_6_0100D3AE:
 BYTE   N24  En1  v127
 BYTE   W24
 BYTE   N12  Gn1
 BYTE   W12
 BYTE   N24
 BYTE   W24
 BYTE   Ds2
 BYTE   W24
 BYTE   N12  Gn1
 BYTE   W12
 BYTE   PEND 
// 030   ----------------------------------------
Label_6_0100D3BD:
 BYTE   N24  Gn1  v127
 BYTE   W24
 BYTE   N12
 BYTE   W12
 BYTE   N24
 BYTE   W24
 BYTE   Gn2
 BYTE   W24
 BYTE   N12  Gn1
 BYTE   W12
 BYTE   PEND 
// 031   ----------------------------------------
Label_6_0100D3CB:
 BYTE   N24  Gn1  v127
 BYTE   W24
 BYTE   N12  Fn1
 BYTE   W12
 BYTE   N24
 BYTE   W24
 BYTE   Fn2
 BYTE   W24
 BYTE   N12  Fn1
 BYTE   W12
 BYTE   PEND 
 BYTE   PATT
  POIN2 Label_6_0100D39E
 BYTE   PATT
  POIN2 Label_6_0100D3AE
// 032   ----------------------------------------
 BYTE   N24  Gn1  v127
 BYTE   W24
 BYTE   N12
 BYTE   W12
 BYTE   N24
 BYTE   W24
 BYTE   Gn2
 BYTE   W24
 BYTE   Gn1
 BYTE   W12
 BYTE   PATT
  POIN2 Label_6_0100D38F
 BYTE   PATT
  POIN2 Label_6_0100D39E
 BYTE   PATT
  POIN2 Label_6_0100D3AE
 BYTE   PATT
  POIN2 Label_6_0100D3BD
 BYTE   PATT
  POIN2 Label_6_0100D3CB
 BYTE   PATT
  POIN2 Label_6_0100D39E
 BYTE   PATT
  POIN2 Label_6_0100D3AE
// 033   ----------------------------------------
 BYTE   GoTo
  POIN2 Label_6_0100D1F6
// 034   ----------------------------------------
 BYTE   N24  Gn1  v127
 BYTE   W24
 BYTE   FINE

//**************** Track 8 (Midi-Chn.7) ****************//

songDerrisKharlanAppear_008:
// 000   ----------------------------------------
 BYTE   KEYSH   songDerrisKharlanAppear_key+0
Label_7_0100D422:
 BYTE   VOICE   14
 BYTE   MODT 0
 BYTE   CnM2  v000
 BYTE   LFOS 0
 BYTE   CnM2  v044
 BYTE   VOL   19*songDerrisKharlanAppear_mvl/mxv
 BYTE   PAN   c_v+0
 BYTE   W24
 BYTE   N24  An3  v127
 BYTE   W72
// 001   ----------------------------------------
 BYTE   W24
 BYTE   Gn3
 BYTE   W48
 BYTE   Dn4
 BYTE   W24
// 002   ----------------------------------------
 BYTE   W24
 BYTE   An3
 BYTE   W72
// 003   ----------------------------------------
 BYTE   W24
 BYTE   Bn3
 BYTE   W72
// 004   ----------------------------------------
 BYTE   W24
 BYTE   Cn4
 BYTE   W72
// 005   ----------------------------------------
 BYTE   W24
 BYTE   Dn4
 BYTE   W48
 BYTE   As3
 BYTE   W24
// 006   ----------------------------------------
 BYTE   W24
 BYTE   An3
 BYTE   W72
// 007   ----------------------------------------
 BYTE   W24
 BYTE   N24
 BYTE   W48
 BYTE   Bn3
 BYTE   W24
// 008   ----------------------------------------
 BYTE   W24
 BYTE   Dn4
 BYTE   W72
// 009   ----------------------------------------
 BYTE   W72
 BYTE   N24
 BYTE   W24
// 010   ----------------------------------------
 BYTE   W24
 BYTE   En4
 BYTE   W72
// 011   ----------------------------------------
 BYTE   W24
 BYTE   N24
 BYTE   W72
// 012   ----------------------------------------
 BYTE   W24
 BYTE   An3
 BYTE   W72
// 013   ----------------------------------------
 BYTE   W24
 BYTE   Bn3
 BYTE   W72
// 014   ----------------------------------------
 BYTE   W24
 BYTE   Cn4
 BYTE   W48
 BYTE   Dn4
 BYTE   W24
// 015   ----------------------------------------
 BYTE   W24
 BYTE   En4
 BYTE   W48
 BYTE   En3
 BYTE   W24
// 016   ----------------------------------------
 BYTE   W96
// 017   ----------------------------------------
 BYTE   W96
// 018   ----------------------------------------
 BYTE   W96
// 019   ----------------------------------------
 BYTE   W96
// 020   ----------------------------------------
 BYTE   W96
// 021   ----------------------------------------
 BYTE   W96
// 022   ----------------------------------------
 BYTE   W96
// 023   ----------------------------------------
 BYTE   W96
// 024   ----------------------------------------
 BYTE   W96
// 025   ----------------------------------------
 BYTE   W96
// 026   ----------------------------------------
 BYTE   W96
// 027   ----------------------------------------
 BYTE   W96
// 028   ----------------------------------------
 BYTE   W96
// 029   ----------------------------------------
 BYTE   W96
// 030   ----------------------------------------
 BYTE   W96
// 031   ----------------------------------------
 BYTE   W96
// 032   ----------------------------------------
 BYTE   W24
 BYTE   Gn3
 BYTE   W72
// 033   ----------------------------------------
 BYTE   W24
 BYTE   An3
 BYTE   W72
// 034   ----------------------------------------
 BYTE   W24
 BYTE   Gn3
 BYTE   W72
// 035   ----------------------------------------
 BYTE   W24
 BYTE   N24
 BYTE   W72
// 036   ----------------------------------------
 BYTE   W24
 BYTE   N24
 BYTE   W72
// 037   ----------------------------------------
 BYTE   W24
 BYTE   An3
 BYTE   W72
// 038   ----------------------------------------
 BYTE   W24
 BYTE   Gn3
 BYTE   W72
// 039   ----------------------------------------
 BYTE   W24
 BYTE   N24
 BYTE   W72
// 040   ----------------------------------------
 BYTE   W24
 BYTE   N24
 BYTE   W72
// 041   ----------------------------------------
 BYTE   W24
 BYTE   An3
 BYTE   W72
// 042   ----------------------------------------
 BYTE   W24
 BYTE   Gn3
 BYTE   W72
// 043   ----------------------------------------
 BYTE   W24
 BYTE   N24
 BYTE   W72
// 044   ----------------------------------------
 BYTE   W24
 BYTE   N24
 BYTE   W72
// 045   ----------------------------------------
 BYTE   W24
 BYTE   An3
 BYTE   W72
// 046   ----------------------------------------
 BYTE   W24
 BYTE   Gn3
 BYTE   W72
// 047   ----------------------------------------
 BYTE   W24
 BYTE   N24
 BYTE   W72
// 048   ----------------------------------------
 BYTE   GoTo
  POIN2 Label_7_0100D422
// 049   ----------------------------------------
 BYTE   W24
 BYTE   FINE

//**************** Track 9 (Midi-Chn.8) ****************//

songDerrisKharlanAppear_009:
// 000   ----------------------------------------
 BYTE   KEYSH   songDerrisKharlanAppear_key+0
Label_8_0100D4B6:
 BYTE   VOICE   121
 BYTE   MODT 0
 BYTE   CnM2  v000
 BYTE   LFOS 0
 BYTE   CnM2  v044
 BYTE   VOL   14*songDerrisKharlanAppear_mvl/mxv
 BYTE   PAN   c_v+0
 BYTE   W24
 BYTE   N96  En2  v127
 BYTE   W72
// 001   ----------------------------------------
 BYTE   W24
 BYTE   N48  Dn2
 BYTE   W48
 BYTE   Gn2
 BYTE   W24
// 002   ----------------------------------------
 BYTE   W24
 BYTE   N96  An2
 BYTE   W72
// 003   ----------------------------------------
 BYTE   W24
 BYTE   Bn2
 BYTE   W72
// 004   ----------------------------------------
 BYTE   W24
 BYTE   Cn3
 BYTE   W72
// 005   ----------------------------------------
Label_8_0100D4D7:
 BYTE   W24
 BYTE   N48  Dn3  v127
 BYTE   W48
 BYTE   As2
 BYTE   W24
 BYTE   PEND 
// 006   ----------------------------------------
 BYTE   W24
 BYTE   N96  An2
 BYTE   W72
// 007   ----------------------------------------
Label_8_0100D4E3:
 BYTE   W24
 BYTE   N48  An2  v127
 BYTE   W48
 BYTE   Bn2
 BYTE   W24
 BYTE   PEND 
 BYTE   PATT
  POIN2 Label_8_0100D4E3
// 008   ----------------------------------------
 BYTE   W24
 BYTE   N48  En3  v127
 BYTE   W48
 BYTE   Fn3
 BYTE   W24
// 009   ----------------------------------------
 BYTE   W24
 BYTE   En3
 BYTE   W48
 BYTE   Bn2
 BYTE   W24
// 010   ----------------------------------------
 BYTE   W24
 BYTE   N36  Gs2
 BYTE   W36
 BYTE   An2
 BYTE   W36
// 011   ----------------------------------------
 BYTE   N24  Bn2
 BYTE   W24
 BYTE   N96  Cn3
 BYTE   W72
// 012   ----------------------------------------
Label_8_0100D508:
 BYTE   W24
 BYTE   N48  En3  v127
 BYTE   W48
 BYTE   Dn3
 BYTE   W24
 BYTE   PEND 
// 013   ----------------------------------------
 BYTE   W24
 BYTE   Cn3
 BYTE   W48
 BYTE   N24  Bn2
 BYTE   W24
// 014   ----------------------------------------
 BYTE   An2
 BYTE   W24
 BYTE   N96  Bn2
 BYTE   W72
// 015   ----------------------------------------
 BYTE   W24
 BYTE   An2
 BYTE   W72
// 016   ----------------------------------------
 BYTE   W24
 BYTE   Dn3
 BYTE   W72
 BYTE   PATT
  POIN2 Label_8_0100D508
// 017   ----------------------------------------
 BYTE   W24
 BYTE   N06  Cn1  v127
 BYTE   W12
 BYTE   N06
 BYTE   W12
 BYTE   N06
 BYTE   W12
 BYTE   En1
 BYTE   W24
 BYTE   Cn1
 BYTE   W12
// 018   ----------------------------------------
 BYTE   En1
 BYTE   W24
 BYTE   Cn1
 BYTE   W12
 BYTE   N06
 BYTE   W24
 BYTE   En1
 BYTE   W24
 BYTE   Cn1
 BYTE   W12
// 019   ----------------------------------------
 BYTE   En1
 BYTE   W24
 BYTE   N96  As2
 BYTE   W72
// 020   ----------------------------------------
 BYTE   W24
 BYTE   Bn2
 BYTE   W72
// 021   ----------------------------------------
 BYTE   W24
 BYTE   N48  Gn3
 BYTE   W48
 BYTE   Fs3
 BYTE   W24
// 022   ----------------------------------------
 BYTE   W24
 BYTE   N96  Fn3
 BYTE   W72
// 023   ----------------------------------------
 BYTE   W24
 BYTE   N48  Dn3
 BYTE   W48
 BYTE   An2
 BYTE   W24
// 024   ----------------------------------------
 BYTE   W24
 BYTE   N96  As2
 BYTE   W72
// 025   ----------------------------------------
 BYTE   W24
 BYTE   Dn3
 BYTE   W72
// 026   ----------------------------------------
 BYTE   W24
 BYTE   Cn3
 BYTE   W72
 BYTE   PATT
  POIN2 Label_8_0100D4D7
// 027   ----------------------------------------
 BYTE   W24
 BYTE   N96  An2  v127
 BYTE   W72
// 028   ----------------------------------------
 BYTE   W24
 BYTE   Dn3
 BYTE   W72
// 029   ----------------------------------------
 BYTE   W24
 BYTE   Gn2
 BYTE   W72
// 030   ----------------------------------------
Label_8_0100D56F:
 BYTE   W24
 BYTE   N48  An2  v127
 BYTE   W48
 BYTE   Gn2
 BYTE   W24
 BYTE   PEND 
// 031   ----------------------------------------
Label_8_0100D577:
 BYTE   W24
 BYTE   N36  An2  v127
 BYTE   W36
 BYTE   As2
 BYTE   W36
 BYTE   PEND 
// 032   ----------------------------------------
Label_8_0100D57F:
 BYTE   N24  Cn3  v127
 BYTE   W24
 BYTE   N96  Dn3
 BYTE   W72
 BYTE   PEND 
// 033   ----------------------------------------
Label_8_0100D587:
 BYTE   W24
 BYTE   N48  Ds3  v127
 BYTE   W48
 BYTE   N24  Dn3
 BYTE   W24
 BYTE   PEND 
// 034   ----------------------------------------
Label_8_0100D590:
 BYTE   N06  As1  v127
 BYTE   W12
 BYTE   An1
 BYTE   W12
 BYTE   N48  Dn3
 BYTE   W48
 BYTE   Gn2
 BYTE   W24
 BYTE   PEND 
// 035   ----------------------------------------
Label_8_0100D59C:
 BYTE   W24
 BYTE   N06  As1  v127
 BYTE   W24
 BYTE   N06
 BYTE   W12
 BYTE   N36  An2
 BYTE   W36
 BYTE   PEND 
// 036   ----------------------------------------
Label_8_0100D5A7:
 BYTE   N24  As2  v127
 BYTE   W24
 BYTE   N48  Cn3
 BYTE   W48
 BYTE   Dn3
 BYTE   W24
 BYTE   PEND 
// 037   ----------------------------------------
 BYTE   W24
 BYTE   N96  Gn2
 BYTE   W72
 BYTE   PATT
  POIN2 Label_8_0100D56F
 BYTE   PATT
  POIN2 Label_8_0100D577
 BYTE   PATT
  POIN2 Label_8_0100D57F
 BYTE   PATT
  POIN2 Label_8_0100D587
 BYTE   PATT
  POIN2 Label_8_0100D590
 BYTE   PATT
  POIN2 Label_8_0100D59C
 BYTE   PATT
  POIN2 Label_8_0100D5A7
// 038   ----------------------------------------
 BYTE   GoTo
  POIN2 Label_8_0100D4B6
// 039   ----------------------------------------
 BYTE   W24
 BYTE   FINE

//**************** Track 10 (Midi-Chn.9) ****************//

songDerrisKharlanAppear_010:
// 000   ----------------------------------------
 BYTE   KEYSH   songDerrisKharlanAppear_key+0
Label_9_0100D5E2:
 BYTE   VOICE   121
 BYTE   MODT 0
 BYTE   CnM2  v000
 BYTE   LFOS 0
 BYTE   CnM2  v044
 BYTE   VOL   14*songDerrisKharlanAppear_mvl/mxv
 BYTE   PAN   c_v+0
 BYTE   W24
 BYTE   N06  Cn1  v127
 BYTE   W24
 BYTE   N06
 BYTE   W24
 BYTE   As1
 BYTE   W24
// 001   ----------------------------------------
 BYTE   Fs1
 BYTE   W24
 BYTE   Cn1
 BYTE   W12
 BYTE   N06
 BYTE   W12
 BYTE   Fs1
 BYTE   W24
 BYTE   As1
 BYTE   W12
 BYTE   Cn1
 BYTE   W12
// 002   ----------------------------------------
 BYTE   Fs1
 BYTE   W12
 BYTE   Cn1
 BYTE   W12
 BYTE   Fs1
 BYTE   W24
 BYTE   N06
 BYTE   W12
 BYTE   Cn1
 BYTE   W12
 BYTE   Fs1
 BYTE   W12
 BYTE   Cn1
 BYTE   W12
// 003   ----------------------------------------
 BYTE   En1
 BYTE   W12
 BYTE   Cn1
 BYTE   W12
 BYTE   N06
 BYTE   W12
 BYTE   N06
 BYTE   W12
 BYTE   Fs1
 BYTE   W12
 BYTE   En1
 BYTE   W12
 BYTE   Fs1
 BYTE   W12
 BYTE   Cn1
 BYTE   W12
// 004   ----------------------------------------
 BYTE   N06
 BYTE   W12
 BYTE   As1
 BYTE   W12
 BYTE   Bn1
 BYTE   W12
 BYTE   N06
 BYTE   W12
 BYTE   An1
 BYTE   W12
 BYTE   Gn1
 BYTE   W12
 BYTE   As1
 BYTE   W12
 BYTE   Cn1
 BYTE   W12
// 005   ----------------------------------------
 BYTE   Fs1
 BYTE   W12
 BYTE   Cn1
 BYTE   W12
 BYTE   Fs1
 BYTE   W12
 BYTE   Cn1
 BYTE   W12
 BYTE   Fs1
 BYTE   W12
 BYTE   Cn1
 BYTE   W12
 BYTE   En1
 BYTE   W24
// 006   ----------------------------------------
 BYTE   Fs1
 BYTE   W24
 BYTE   Cn1
 BYTE   W12
 BYTE   N06
 BYTE   W12
 BYTE   Fs1
 BYTE   W12
 BYTE   Cn1
 BYTE   W12
 BYTE   En1
 BYTE   W24
// 007   ----------------------------------------
 BYTE   Fs1
 BYTE   W24
 BYTE   N06
 BYTE   W12
 BYTE   Cn1
 BYTE   W12
 BYTE   Fs1
 BYTE   W12
 BYTE   Cn1
 BYTE   W12
 BYTE   N08  Bn1
 BYTE   W08
 BYTE   N08
 BYTE   W08
 BYTE   N08
 BYTE   W08
// 008   ----------------------------------------
 BYTE   An1
 BYTE   W08
 BYTE   Gn1
 BYTE   W08
 BYTE   Fn1
 BYTE   W08
 BYTE   N06  Fs1
 BYTE   W12
 BYTE   Cn1
 BYTE   W12
 BYTE   Fs1
 BYTE   W12
 BYTE   Cn1
 BYTE   W12
 BYTE   Fs1
 BYTE   W12
 BYTE   Cn1
 BYTE   W12
// 009   ----------------------------------------
 BYTE   En1
 BYTE   W24
 BYTE   Fs1
 BYTE   W12
 BYTE   Cn1
 BYTE   W12
 BYTE   Fs1
 BYTE   W24
 BYTE   Cn1
 BYTE   W12
 BYTE   N06
 BYTE   W12
// 010   ----------------------------------------
 BYTE   En1
 BYTE   W24
 BYTE   Cn1
 BYTE   W12
 BYTE   N06
 BYTE   W12
 BYTE   Fs1
 BYTE   W12
 BYTE   Cn1
 BYTE   W12
 BYTE   Fs1
 BYTE   W12
 BYTE   Cn1
 BYTE   W12
// 011   ----------------------------------------
 BYTE   As1
 BYTE   W24
 BYTE   Fs1
 BYTE   W12
 BYTE   Cn1
 BYTE   W12
 BYTE   Fs1
 BYTE   W24
 BYTE   Cn1
 BYTE   W12
 BYTE   N06
 BYTE   W12
// 012   ----------------------------------------
 BYTE   As1
 BYTE   W12
 BYTE   Gn1
 BYTE   W12
 BYTE   Fs1
 BYTE   W12
 BYTE   Cn1
 BYTE   W12
 BYTE   N06
 BYTE   W12
 BYTE   N06
 BYTE   W12
 BYTE   En1
 BYTE   W12
 BYTE   Cn1
 BYTE   W12
// 013   ----------------------------------------
 BYTE   Fs1
 BYTE   W12
 BYTE   Cn1
 BYTE   W12
 BYTE   N06
 BYTE   W12
 BYTE   N06
 BYTE   W12
 BYTE   N06
 BYTE   W12
 BYTE   N06
 BYTE   W12
 BYTE   As1
 BYTE   W12
 BYTE   Cn1
 BYTE   W12
// 014   ----------------------------------------
 BYTE   Fs1
 BYTE   W12
 BYTE   Cn1
 BYTE   W12
 BYTE   N06
 BYTE   W12
 BYTE   N06
 BYTE   W12
 BYTE   N06
 BYTE   W12
 BYTE   N06
 BYTE   W12
 BYTE   En1
 BYTE   W12
 BYTE   Cn1
 BYTE   W12
// 015   ----------------------------------------
 BYTE   Fs1
 BYTE   W12
 BYTE   Cn1
 BYTE   W12
 BYTE   Fs1
 BYTE   W12
 BYTE   Cn1
 BYTE   W12
 BYTE   N06
 BYTE   W12
 BYTE   N06
 BYTE   W12
 BYTE   As1
 BYTE   W12
 BYTE   Cn1
 BYTE   W12
// 016   ----------------------------------------
 BYTE   Fs1
 BYTE   W12
 BYTE   Cn1
 BYTE   W12
 BYTE   En1
 BYTE   W36
 BYTE   Cn1
 BYTE   W24
 BYTE   N06
 BYTE   W12
// 017   ----------------------------------------
Label_9_0100D6DF:
 BYTE   N06  En1  v127
 BYTE   W24
 BYTE   Cn1
 BYTE   W12
 BYTE   N06
 BYTE   W12
 BYTE   N06
 BYTE   W12
 BYTE   En1
 BYTE   W24
 BYTE   Cn1
 BYTE   W12
 BYTE   PEND 
// 018   ----------------------------------------
 BYTE   En1
 BYTE   W24
 BYTE   N06
 BYTE   W36
 BYTE   Cn1
 BYTE   W24
 BYTE   N06
 BYTE   W12
// 019   ----------------------------------------
 BYTE   En1
 BYTE   W24
 BYTE   N36  Fn3
 BYTE   W36
 BYTE   En3
 BYTE   W36
// 020   ----------------------------------------
 BYTE   N24  Dn3
 BYTE   W96
// 021   ----------------------------------------
 BYTE   W24
 BYTE   N06  Cn1
 BYTE   W12
 BYTE   N06
 BYTE   W12
 BYTE   N06
 BYTE   W12
 BYTE   En1
 BYTE   W24
 BYTE   Cn1
 BYTE   W12
// 022   ----------------------------------------
 BYTE   En1
 BYTE   W24
 BYTE   Cn1
 BYTE   W12
 BYTE   N06
 BYTE   W24
 BYTE   En1
 BYTE   W24
 BYTE   Cn1
 BYTE   W12
 BYTE   PATT
  POIN2 Label_9_0100D6DF
// 023   ----------------------------------------
 BYTE   N06  En1  v127
 BYTE   W12
 BYTE   N06
 BYTE   W12
 BYTE   Cn1
 BYTE   W24
 BYTE   Fs1
 BYTE   W24
 BYTE   As1
 BYTE   W24
// 024   ----------------------------------------
 BYTE   Fs1
 BYTE   W24
 BYTE   N06
 BYTE   W12
 BYTE   Cn1
 BYTE   W12
 BYTE   Fs1
 BYTE   W24
 BYTE   As1
 BYTE   W12
 BYTE   Cn1
 BYTE   W12
// 025   ----------------------------------------
 BYTE   Fs1
 BYTE   W12
 BYTE   Cn1
 BYTE   W12
 BYTE   As1
 BYTE   W24
 BYTE   Fs1
 BYTE   W12
 BYTE   Cn1
 BYTE   W12
 BYTE   Fs1
 BYTE   W12
 BYTE   Cn1
 BYTE   W12
// 026   ----------------------------------------
 BYTE   En1
 BYTE   W12
 BYTE   Cn1
 BYTE   W12
 BYTE   N06
 BYTE   W12
 BYTE   N06
 BYTE   W24
 BYTE   En1
 BYTE   W12
 BYTE   Fs1
 BYTE   W12
 BYTE   Cn1
 BYTE   W12
// 027   ----------------------------------------
 BYTE   N06
 BYTE   W12
 BYTE   En1
 BYTE   W12
 BYTE   Cn1
 BYTE   W12
 BYTE   N06
 BYTE   W24
 BYTE   N06
 BYTE   W12
 BYTE   En1
 BYTE   W24
// 028   ----------------------------------------
 BYTE   W24
 BYTE   Fs1
 BYTE   W36
 BYTE   Cn1
 BYTE   W12
 BYTE   N08  Bn1
 BYTE   W08
 BYTE   N08
 BYTE   W08
 BYTE   N08
 BYTE   W08
// 029   ----------------------------------------
 BYTE   An1
 BYTE   W08
 BYTE   N08
 BYTE   W08
 BYTE   N08
 BYTE   W08
 BYTE   N06  Fs1
 BYTE   W12
 BYTE   Cn1
 BYTE   W24
 BYTE   N06
 BYTE   W12
 BYTE   Fs1
 BYTE   W12
 BYTE   Cn1
 BYTE   W12
// 030   ----------------------------------------
 BYTE   En1
 BYTE   W24
 BYTE   Fs1
 BYTE   W12
 BYTE   Cn1
 BYTE   W12
 BYTE   Fs1
 BYTE   W24
 BYTE   Bn1
 BYTE   W12
 BYTE   N06
 BYTE   W12
// 031   ----------------------------------------
 BYTE   An1
 BYTE   W12
 BYTE   Fs1
 BYTE   W12
 BYTE   As1
 BYTE   W24
 BYTE   N06
 BYTE   W12
 BYTE   Bn1
 BYTE   W12
 BYTE   As1
 BYTE   W24
// 032   ----------------------------------------
Label_9_0100D790:
 BYTE   N06  As1  v127
 BYTE   W12
 BYTE   An1
 BYTE   W12
 BYTE   Cn1
 BYTE   W12
 BYTE   N06
 BYTE   W12
 BYTE   As1
 BYTE   W12
 BYTE   Cn1
 BYTE   W12
 BYTE   As1
 BYTE   W24
 BYTE   PEND 
// 033   ----------------------------------------
Label_9_0100D7A1:
 BYTE   N06  As1  v127
 BYTE   W12
 BYTE   Gn1
 BYTE   W12
 BYTE   As1
 BYTE   W24
 BYTE   N06
 BYTE   W12
 BYTE   Bn1
 BYTE   W12
 BYTE   As1
 BYTE   W24
 BYTE   PEND 
// 034   ----------------------------------------
Label_9_0100D7B0:
 BYTE   N06  As1  v127
 BYTE   W12
 BYTE   An1
 BYTE   W12
 BYTE   As1
 BYTE   W12
 BYTE   Cn1
 BYTE   W12
 BYTE   As1
 BYTE   W12
 BYTE   Cn1
 BYTE   W12
 BYTE   As1
 BYTE   W24
 BYTE   PEND 
// 035   ----------------------------------------
Label_9_0100D7C1:
 BYTE   N06  En1  v127
 BYTE   W12
 BYTE   N06
 BYTE   W12
 BYTE   As1
 BYTE   W24
 BYTE   N06
 BYTE   W12
 BYTE   Bn1
 BYTE   W12
 BYTE   As1
 BYTE   W24
 BYTE   PEND 
// 036   ----------------------------------------
Label_9_0100D7D0:
 BYTE   N24  Cn3  v127
 BYTE   W24
 BYTE   N06  Cn1
 BYTE   W12
 BYTE   N06
 BYTE   W12
 BYTE   As1
 BYTE   W12
 BYTE   Cn1
 BYTE   W12
 BYTE   As1
 BYTE   W24
 BYTE   PEND 
// 037   ----------------------------------------
Label_9_0100D7E0:
 BYTE   N06  As1  v127
 BYTE   W12
 BYTE   Gn1
 BYTE   W12
 BYTE   N36  Gn2
 BYTE   W36
 BYTE   N06  Bn1
 BYTE   W12
 BYTE   As1
 BYTE   W24
 BYTE   PEND 
// 038   ----------------------------------------
Label_9_0100D7EF:
 BYTE   N06  As1  v127
 BYTE   W12
 BYTE   An1
 BYTE   W12
 BYTE   As1
 BYTE   W12
 BYTE   Cn1
 BYTE   W12
 BYTE   As1
 BYTE   W12
 BYTE   Cn1
 BYTE   W12
 BYTE   En1
 BYTE   W12
 BYTE   N06
 BYTE   W12
 BYTE   PEND 
 BYTE   PATT
  POIN2 Label_9_0100D7C1
 BYTE   PATT
  POIN2 Label_9_0100D790
 BYTE   PATT
  POIN2 Label_9_0100D7A1
 BYTE   PATT
  POIN2 Label_9_0100D7B0
 BYTE   PATT
  POIN2 Label_9_0100D7C1
 BYTE   PATT
  POIN2 Label_9_0100D7D0
 BYTE   PATT
  POIN2 Label_9_0100D7E0
 BYTE   PATT
  POIN2 Label_9_0100D7EF
// 039   ----------------------------------------
 BYTE   GoTo
  POIN2 Label_9_0100D5E2
// 040   ----------------------------------------
 BYTE   N06  En1  v127
 BYTE   W12
 BYTE   N06
 BYTE   W12
 BYTE   FINE

//**************** Track 11 (Midi-Chn.10) ****************//

songDerrisKharlanAppear_011:
// 000   ----------------------------------------
 BYTE   KEYSH   songDerrisKharlanAppear_key+0
Label_10_0100D83A:
 BYTE   VOICE   121
 BYTE   MODT 0
 BYTE   CnM2  v000
 BYTE   LFOS 0
 BYTE   CnM2  v044
 BYTE   VOL   14*songDerrisKharlanAppear_mvl/mxv
 BYTE   PAN   c_v+0
 BYTE   W24
 BYTE   N06  Fs1  v127
 BYTE   W24
 BYTE   N06
 BYTE   W24
 BYTE   En1
 BYTE   W24
// 001   ----------------------------------------
Label_10_0100D84F:
 BYTE   W24
 BYTE   N06  Fs1  v127
 BYTE   W48
 BYTE   En1
 BYTE   W24
 BYTE   PEND 
// 002   ----------------------------------------
 BYTE   W24
 BYTE   As1
 BYTE   W72
// 003   ----------------------------------------
 BYTE   W24
 BYTE   Fs1
 BYTE   W72
// 004   ----------------------------------------
 BYTE   N06
 BYTE   W24
 BYTE   N06
 BYTE   W24
 BYTE   N06
 BYTE   W24
 BYTE   En1
 BYTE   W24
// 005   ----------------------------------------
 BYTE   W24
 BYTE   Cn1
 BYTE   W48
 BYTE   Fs1
 BYTE   W24
// 006   ----------------------------------------
 BYTE   W24
 BYTE   As1
 BYTE   W48
 BYTE   Fs1
 BYTE   W24
// 007   ----------------------------------------
 BYTE   W24
 BYTE   Cn1
 BYTE   W72
// 008   ----------------------------------------
 BYTE   W24
 BYTE   N06
 BYTE   W72
// 009   ----------------------------------------
 BYTE   Fs1
 BYTE   W72
 BYTE   N06
 BYTE   W24
// 010   ----------------------------------------
 BYTE   N06
 BYTE   W24
 BYTE   As1
 BYTE   W72
// 011   ----------------------------------------
 BYTE   En1
 BYTE   W72
 BYTE   Fs1
 BYTE   W24
// 012   ----------------------------------------
 BYTE   En1
 BYTE   W24
 BYTE   Cn1
 BYTE   W24
 BYTE   Fs1
 BYTE   W24
 BYTE   N06
 BYTE   W24
// 013   ----------------------------------------
 BYTE   W24
 BYTE   N06
 BYTE   W24
 BYTE   N06
 BYTE   W24
 BYTE   En1
 BYTE   W24
// 014   ----------------------------------------
 BYTE   W24
 BYTE   Fs1
 BYTE   W24
 BYTE   N06
 BYTE   W24
 BYTE   N06
 BYTE   W24
// 015   ----------------------------------------
 BYTE   W24
 BYTE   Cn1
 BYTE   W24
 BYTE   Fs1
 BYTE   W24
 BYTE   En1
 BYTE   W24
// 016   ----------------------------------------
 BYTE   W96
// 017   ----------------------------------------
 BYTE   W96
// 018   ----------------------------------------
 BYTE   W96
// 019   ----------------------------------------
 BYTE   W96
// 020   ----------------------------------------
 BYTE   W96
// 021   ----------------------------------------
 BYTE   W96
// 022   ----------------------------------------
 BYTE   W96
// 023   ----------------------------------------
 BYTE   W96
 BYTE   PATT
  POIN2 Label_10_0100D84F
// 024   ----------------------------------------
 BYTE   W24
 BYTE   N06  Cn1  v127
 BYTE   W48
 BYTE   En1
 BYTE   W24
// 025   ----------------------------------------
 BYTE   W24
 BYTE   N06
 BYTE   W72
// 026   ----------------------------------------
 BYTE   W24
 BYTE   Fs1
 BYTE   W72
// 027   ----------------------------------------
 BYTE   W12
 BYTE   As1
 BYTE   W60
 BYTE   Fs1
 BYTE   W24
// 028   ----------------------------------------
 BYTE   W24
 BYTE   Cn1
 BYTE   W72
// 029   ----------------------------------------
 BYTE   W24
 BYTE   N06
 BYTE   W72
// 030   ----------------------------------------
 BYTE   W96
// 031   ----------------------------------------
 BYTE   W72
 BYTE   En1
 BYTE   W24
// 032   ----------------------------------------
 BYTE   W24
 BYTE   As1
 BYTE   W72
// 033   ----------------------------------------
Label_10_0100D8CA:
 BYTE   N06  En1  v127
 BYTE   W72
 BYTE   N06
 BYTE   W24
 BYTE   PEND 
// 034   ----------------------------------------
 BYTE   W24
 BYTE   Cn1
 BYTE   W72
// 035   ----------------------------------------
 BYTE   W72
 BYTE   En1
 BYTE   W24
// 036   ----------------------------------------
 BYTE   W24
 BYTE   As1
 BYTE   W72
 BYTE   PATT
  POIN2 Label_10_0100D8CA
// 037   ----------------------------------------
 BYTE   W24
 BYTE   N06  Cn1  v127
 BYTE   W72
// 038   ----------------------------------------
 BYTE   W72
 BYTE   En1
 BYTE   W24
// 039   ----------------------------------------
 BYTE   W24
 BYTE   As1
 BYTE   W72
 BYTE   PATT
  POIN2 Label_10_0100D8CA
// 040   ----------------------------------------
 BYTE   W24
 BYTE   N06  Cn1  v127
 BYTE   W72
// 041   ----------------------------------------
 BYTE   W72
 BYTE   En1
 BYTE   W24
// 042   ----------------------------------------
 BYTE   W24
 BYTE   As1
 BYTE   W72
 BYTE   PATT
  POIN2 Label_10_0100D8CA
// 043   ----------------------------------------
 BYTE   W24
 BYTE   N06  Cn1  v127
 BYTE   W72
// 044   ----------------------------------------
 BYTE   GoTo
  POIN2 Label_10_0100D83A
// 045   ----------------------------------------
 BYTE   W24
 BYTE   FINE

//******************************************************//
	ALIGN 4

songDerrisKharlanAppear:
	BYTE	11	// NumTrks
	BYTE	0	// NumBlks
	BYTE	songDerrisKharlanAppear_pri	// Priority
	BYTE	songDerrisKharlanAppear_rev	// Reverb.
    
	POIN2	songDerrisKharlanAppear_grp
    
	POIN2	songDerrisKharlanAppear_001
	POIN2	songDerrisKharlanAppear_002
	POIN2	songDerrisKharlanAppear_003
	POIN2	songDerrisKharlanAppear_004
	POIN2	songDerrisKharlanAppear_005
	POIN2	songDerrisKharlanAppear_006
	POIN2	songDerrisKharlanAppear_007
	POIN2	songDerrisKharlanAppear_008
	POIN2	songDerrisKharlanAppear_009
	POIN2	songDerrisKharlanAppear_010
	POIN2	songDerrisKharlanAppear_011

	
