//Event file generated from Sappy .s format.
	#include "MPlayDef.event"

	#define	DestinedFate_grp  voicegroup000
	#define	DestinedFate_pri  10
	#define	DestinedFate_rev  0
	#define	DestinedFate_mvl  127
	#define	DestinedFate_key  0
	#define	DestinedFate_tbs  1
	#define	DestinedFate_exg  0
	#define	DestinedFate_cmp  1

	// .rodata
	//	m
	ALIGN 4


//**************** Track 1 (Midi-Chn.0) ****************//

DestinedFate_001:
// 000   ----------------------------------------
DestinedFate_Label_0_00:
 BYTE   TEMPO   120*DestinedFate_tbs/2
 BYTE   KEYSH   DestinedFate_key+0
 BYTE   VOICE   24
 BYTE   VOL   27*DestinedFate_mvl/mxv
 BYTE   PAN   c_v+0
 BYTE   W96
// 001   ----------------------------------------
 BYTE   TEMPO   140*DestinedFate_tbs/2
 BYTE   N08  Ds3  v100
 BYTE   W12
 BYTE   Gs3
 BYTE   W12
 BYTE   Gn3
 BYTE   W12
 BYTE   Gs3
 BYTE   W12
 BYTE   Ds3
 BYTE   W12
 BYTE   As3
 BYTE   W12
 BYTE   Gs3
 BYTE   W12
 BYTE   As3
 BYTE   W12
// 002   ----------------------------------------
DestinedFate_Label_0_0F00:
 BYTE   N08  Ds3  v100
 BYTE   W12
 BYTE   Gs3
 BYTE   W12
 BYTE   Gn3
 BYTE   W12
 BYTE   Gs3
 BYTE   W12
 BYTE   Ds3
 BYTE   W12
 BYTE   As3
 BYTE   W12
 BYTE   Gs3
 BYTE   W12
 BYTE   As3
 BYTE   W12
 BYTE   PEND 
 BYTE   PATT
  POIN2 DestinedFate_Label_0_0F00
// 003   ----------------------------------------
DestinedFate_Label_0_1E00:
 BYTE   N08  Ds3  v100
 BYTE   W12
 BYTE   Gs3
 BYTE   W12
 BYTE   Gn3
 BYTE   W12
 BYTE   Gs3
 BYTE   W60
 BYTE   PEND 
 BYTE   PATT
  POIN2 DestinedFate_Label_0_0F00
 BYTE   PATT
  POIN2 DestinedFate_Label_0_0F00
 BYTE   PATT
  POIN2 DestinedFate_Label_0_0F00
 BYTE   PATT
  POIN2 DestinedFate_Label_0_0F00
// 004   ----------------------------------------
DestinedFate_Label_0_4380:
 BYTE   N08  Fn3  v100
 BYTE   W12
 BYTE   Gs3
 BYTE   W12
 BYTE   Gn3
 BYTE   W12
 BYTE   Gs3
 BYTE   W12
 BYTE   Fn3
 BYTE   W12
 BYTE   As3
 BYTE   W12
 BYTE   Gs3
 BYTE   W12
 BYTE   As3
 BYTE   W12
 BYTE   PEND 
 BYTE   PATT
  POIN2 DestinedFate_Label_0_4380
 BYTE   PATT
  POIN2 DestinedFate_Label_0_4380
// 005   ----------------------------------------
DestinedFate_Label_0_5A00:
 BYTE   N08  Fn3  v100
 BYTE   W12
 BYTE   Gs3
 BYTE   W12
 BYTE   Gn3
 BYTE   W12
 BYTE   Gs3
 BYTE   W12
 BYTE   Fn3
 BYTE   W12
 BYTE   As3
 BYTE   W12
 BYTE   Gs3
 BYTE   W12
 BYTE   Gn3
 BYTE   W12
 BYTE   PEND 
 BYTE   PATT
  POIN2 DestinedFate_Label_0_4380
 BYTE   PATT
  POIN2 DestinedFate_Label_0_4380
// 006   ----------------------------------------
DestinedFate_Label_0_7080:
 BYTE   N08  Ds3  v100
 BYTE   W12
 BYTE   Gn3
 BYTE   W12
 BYTE   Fn3
 BYTE   W12
 BYTE   Gn3
 BYTE   W12
 BYTE   Ds3
 BYTE   W12
 BYTE   Gn3
 BYTE   W12
 BYTE   Fn3
 BYTE   W12
 BYTE   Gn3
 BYTE   W12
 BYTE   PEND 
// 007   ----------------------------------------
DestinedFate_Label_0_7800:
 BYTE   N21  Ds3  v100
 BYTE   W24
 BYTE   As3
 BYTE   W24
 BYTE   Gn3
 BYTE   W24
 BYTE   Ds3
 BYTE   W24
 BYTE   PEND 
// 008   ----------------------------------------
DestinedFate_Label_0_7F80:
 BYTE   N08  Ds3  v100
 BYTE   W12
 BYTE   Gs3
 BYTE   W12
 BYTE   Gn3
 BYTE   W12
 BYTE   Gs3
 BYTE   W12
 BYTE   Ds3
 BYTE   W12
 BYTE   Gs3
 BYTE   W12
 BYTE   Gn3
 BYTE   W12
 BYTE   Gs3
 BYTE   W12
 BYTE   PEND 
// 009   ----------------------------------------
DestinedFate_Label_0_8700:
 BYTE   N08  Ds3  v100
 BYTE   W12
 BYTE   As3
 BYTE   W12
 BYTE   Gs3
 BYTE   W12
 BYTE   As3
 BYTE   W12
 BYTE   Ds3
 BYTE   W12
 BYTE   As3
 BYTE   W12
 BYTE   Gs3
 BYTE   W12
 BYTE   As3
 BYTE   W12
 BYTE   PEND 
 BYTE   PATT
  POIN2 DestinedFate_Label_0_7F80
 BYTE   PATT
  POIN2 DestinedFate_Label_0_8700
 BYTE   PATT
  POIN2 DestinedFate_Label_0_0F00
 BYTE   PATT
  POIN2 DestinedFate_Label_0_0F00
 BYTE   PATT
  POIN2 DestinedFate_Label_0_0F00
 BYTE   PATT
  POIN2 DestinedFate_Label_0_0F00
 BYTE   PATT
  POIN2 DestinedFate_Label_0_4380
 BYTE   PATT
  POIN2 DestinedFate_Label_0_4380
 BYTE   PATT
  POIN2 DestinedFate_Label_0_4380
 BYTE   PATT
  POIN2 DestinedFate_Label_0_5A00
 BYTE   PATT
  POIN2 DestinedFate_Label_0_4380
 BYTE   PATT
  POIN2 DestinedFate_Label_0_4380
 BYTE   PATT
  POIN2 DestinedFate_Label_0_7080
 BYTE   PATT
  POIN2 DestinedFate_Label_0_7800
 BYTE   PATT
  POIN2 DestinedFate_Label_0_0F00
// 010   ----------------------------------------
DestinedFate_Label_0_FF00:
 BYTE   N08  Ds3  v100
 BYTE   W12
 BYTE   Gs3
 BYTE   W12
 BYTE   Gn3
 BYTE   W12
 BYTE   Gs3
 BYTE   W12
 BYTE   Ds3
 BYTE   W12
 BYTE   As3
 BYTE   W12
 BYTE   Gs3
 BYTE   W12
 BYTE   Gn3
 BYTE   W12
 BYTE   PEND 
// 011   ----------------------------------------
DestinedFate_Label_0_010680:
 BYTE   N08  Fn3  v100
 BYTE   W12
 BYTE   Gn3
 BYTE   W12
 BYTE   Gs3
 BYTE   W12
 BYTE   Fn3
 BYTE   W12
 BYTE   Gn3
 BYTE   W12
 BYTE   Gs3
 BYTE   W12
 BYTE   Fn3
 BYTE   W12
 BYTE   Gn3
 BYTE   W12
 BYTE   PEND 
// 012   ----------------------------------------
DestinedFate_Label_0_010E00:
 BYTE   N08  Gs3  v100
 BYTE   W12
 BYTE   Fn3
 BYTE   W12
 BYTE   Gn3
 BYTE   W12
 BYTE   Gs3
 BYTE   W12
 BYTE   As3
 BYTE   W12
 BYTE   Gs3
 BYTE   W12
 BYTE   Gn3
 BYTE   W12
 BYTE   Fn3
 BYTE   W12
 BYTE   PEND 
// 013   ----------------------------------------
DestinedFate_Label_0_011580:
 BYTE   N08  Ds3  v100
 BYTE   W12
 BYTE   Fn3
 BYTE   W12
 BYTE   Gn3
 BYTE   W12
 BYTE   Ds3
 BYTE   W12
 BYTE   Fn3
 BYTE   W12
 BYTE   Gn3
 BYTE   W12
 BYTE   Ds3
 BYTE   W12
 BYTE   Fn3
 BYTE   W12
 BYTE   PEND 
// 014   ----------------------------------------
DestinedFate_Label_0_011D00:
 BYTE   N08  Gn3  v100
 BYTE   W12
 BYTE   Ds3
 BYTE   W12
 BYTE   Fn3
 BYTE   W12
 BYTE   Gn3
 BYTE   W12
 BYTE   Gs3
 BYTE   W12
 BYTE   Gn3
 BYTE   W12
 BYTE   Fn3
 BYTE   W12
 BYTE   Ds3
 BYTE   W12
 BYTE   PEND 
// 015   ----------------------------------------
DestinedFate_Label_0_012480:
 BYTE   N08  Cs3  v100
 BYTE   W12
 BYTE   Ds3
 BYTE   W12
 BYTE   Fn3
 BYTE   W12
 BYTE   Cs3
 BYTE   W12
 BYTE   Ds3
 BYTE   W12
 BYTE   Fn3
 BYTE   W12
 BYTE   Cs3
 BYTE   W12
 BYTE   Ds3
 BYTE   W12
 BYTE   PEND 
// 016   ----------------------------------------
DestinedFate_Label_0_012C00:
 BYTE   N08  Fn3  v100
 BYTE   W12
 BYTE   Cs3
 BYTE   W12
 BYTE   Ds3
 BYTE   W12
 BYTE   Fn3
 BYTE   W12
 BYTE   Gn3
 BYTE   W12
 BYTE   Fn3
 BYTE   W12
 BYTE   Ds3
 BYTE   W12
 BYTE   Cs3
 BYTE   W12
 BYTE   PEND 
// 017   ----------------------------------------
DestinedFate_Label_0_013380:
 BYTE   N08  Cn3  v100
 BYTE   W12
 BYTE   Cs3
 BYTE   W12
 BYTE   Ds3
 BYTE   W12
 BYTE   Cn3
 BYTE   W12
 BYTE   Cs3
 BYTE   W12
 BYTE   Ds3
 BYTE   W12
 BYTE   Cn3
 BYTE   W12
 BYTE   Cs3
 BYTE   W12
 BYTE   PEND 
// 018   ----------------------------------------
DestinedFate_Label_0_013B00:
 BYTE   N21  Ds3  v100
 BYTE   W24
 BYTE   Fn3
 BYTE   W24
 BYTE   Gn3
 BYTE   W24
 BYTE   Gs3
 BYTE   W24
 BYTE   PEND 
// 019   ----------------------------------------
DestinedFate_Label_0_014280:
 BYTE   N42  As3  v100
 BYTE   W02
 BYTE   N01
 BYTE   W44
 BYTE   W01
 BYTE   N42  Gs3
 BYTE   W02
 BYTE   N01
 BYTE   W44
 BYTE   W01
 BYTE   PEND 
// 020   ----------------------------------------
DestinedFate_Label_0_014A00:
 BYTE   N42  Fs3  v100
 BYTE   W02
 BYTE   N01
 BYTE   W44
 BYTE   W01
 BYTE   N42  Gs3
 BYTE   W02
 BYTE   N01
 BYTE   W44
 BYTE   W01
 BYTE   PEND 
// 021   ----------------------------------------
DestinedFate_Label_0_015180:
 BYTE   N96  Fn3  v100
 BYTE   W04
 BYTE   Fn3
 BYTE   W04
 BYTE   Fn3
 BYTE   W04
 BYTE   N84
 BYTE   W04
 BYTE   N02
 BYTE   W96
 BYTE   W96
 BYTE   W96
 BYTE   W76
 BYTE   W01
 BYTE   PEND 
 BYTE   PATT
  POIN2 DestinedFate_Label_0_0F00
 BYTE   PATT
  POIN2 DestinedFate_Label_0_0F00
 BYTE   PATT
  POIN2 DestinedFate_Label_0_0F00
 BYTE   PATT
  POIN2 DestinedFate_Label_0_1E00
 BYTE   PATT
  POIN2 DestinedFate_Label_0_0F00
 BYTE   PATT
  POIN2 DestinedFate_Label_0_0F00
 BYTE   PATT
  POIN2 DestinedFate_Label_0_0F00
 BYTE   PATT
  POIN2 DestinedFate_Label_0_0F00
 BYTE   PATT
  POIN2 DestinedFate_Label_0_4380
 BYTE   PATT
  POIN2 DestinedFate_Label_0_4380
 BYTE   PATT
  POIN2 DestinedFate_Label_0_4380
 BYTE   PATT
  POIN2 DestinedFate_Label_0_5A00
 BYTE   PATT
  POIN2 DestinedFate_Label_0_4380
 BYTE   PATT
  POIN2 DestinedFate_Label_0_4380
 BYTE   PATT
  POIN2 DestinedFate_Label_0_7080
 BYTE   PATT
  POIN2 DestinedFate_Label_0_7800
 BYTE   PATT
  POIN2 DestinedFate_Label_0_7F80
 BYTE   PATT
  POIN2 DestinedFate_Label_0_8700
 BYTE   PATT
  POIN2 DestinedFate_Label_0_7F80
 BYTE   PATT
  POIN2 DestinedFate_Label_0_8700
 BYTE   PATT
  POIN2 DestinedFate_Label_0_0F00
 BYTE   PATT
  POIN2 DestinedFate_Label_0_0F00
 BYTE   PATT
  POIN2 DestinedFate_Label_0_0F00
 BYTE   PATT
  POIN2 DestinedFate_Label_0_0F00
 BYTE   PATT
  POIN2 DestinedFate_Label_0_4380
 BYTE   PATT
  POIN2 DestinedFate_Label_0_4380
 BYTE   PATT
  POIN2 DestinedFate_Label_0_4380
 BYTE   PATT
  POIN2 DestinedFate_Label_0_5A00
 BYTE   PATT
  POIN2 DestinedFate_Label_0_4380
 BYTE   PATT
  POIN2 DestinedFate_Label_0_4380
 BYTE   PATT
  POIN2 DestinedFate_Label_0_7080
 BYTE   PATT
  POIN2 DestinedFate_Label_0_7800
 BYTE   PATT
  POIN2 DestinedFate_Label_0_0F00
 BYTE   PATT
  POIN2 DestinedFate_Label_0_FF00
 BYTE   PATT
  POIN2 DestinedFate_Label_0_010680
 BYTE   PATT
  POIN2 DestinedFate_Label_0_010E00
 BYTE   PATT
  POIN2 DestinedFate_Label_0_011580
 BYTE   PATT
  POIN2 DestinedFate_Label_0_011D00
 BYTE   PATT
  POIN2 DestinedFate_Label_0_012480
 BYTE   PATT
  POIN2 DestinedFate_Label_0_012C00
 BYTE   PATT
  POIN2 DestinedFate_Label_0_013380
 BYTE   PATT
  POIN2 DestinedFate_Label_0_013B00
 BYTE   PATT
  POIN2 DestinedFate_Label_0_014280
 BYTE   PATT
  POIN2 DestinedFate_Label_0_014A00
 BYTE   PATT
  POIN2 DestinedFate_Label_0_015180
 BYTE   PATT
  POIN2 DestinedFate_Label_0_0F00
 BYTE   PATT
  POIN2 DestinedFate_Label_0_0F00
 BYTE   PATT
  POIN2 DestinedFate_Label_0_0F00
// 022   ----------------------------------------
 BYTE   N08  Ds3  v100
 BYTE   W12
 BYTE   Gs3
 BYTE   W12
 BYTE   Gn3
 BYTE   W12
 BYTE   Gs3
 BYTE   W84
 BYTE   W02
// 023   ----------------------------------------
 BYTE   GoTo
  POIN2 DestinedFate_Label_0_00
 BYTE   FINE

//**************** Track 2 (Midi-Chn.1) ****************//

DestinedFate_002:
// 000   ----------------------------------------
DestinedFate_Label_1_00:
 BYTE   TEMPO   120*DestinedFate_tbs/2
 BYTE   KEYSH   DestinedFate_key+0
 BYTE   VOICE   24
 BYTE   VOL   23*DestinedFate_mvl/mxv
 BYTE   PAN   c_v+0
 BYTE   W96
// 001   ----------------------------------------
 BYTE   TEMPO   140*DestinedFate_tbs/2
 BYTE   W96
 BYTE   W96
 BYTE   W96
 BYTE   W48
// 002   ----------------------------------------
DestinedFate_Label_1_21C0:
 BYTE   N05  As3  v100
 BYTE   W06
 BYTE   Cn4
 BYTE   W06
 BYTE   Cs4
 BYTE   W06
 BYTE   Ds4
 BYTE   W06
 BYTE   Fn4
 BYTE   W06
 BYTE   Gn4
 BYTE   W06
 BYTE   Gs4
 BYTE   W06
 BYTE   As4
 BYTE   W06
 BYTE   N64  Cn5
 BYTE   W72
 BYTE   PEND 
// 003   ----------------------------------------
DestinedFate_Label_1_2B20:
 BYTE   N21  As4  v100
 BYTE   W24
 BYTE   Ds5
 BYTE   W24
 BYTE   Dn5
 BYTE   W24
 BYTE   Cn5
 BYTE   W24
 BYTE   PEND 
// 004   ----------------------------------------
DestinedFate_Label_1_32A0:
 BYTE   N21  As4  v100
 BYTE   W24
 BYTE   N96  Cn5
 BYTE   W04
 BYTE   N84
 BYTE   W04
 BYTE   N02
 BYTE   W96
 BYTE   W84
 BYTE   W03
 BYTE   PEND 
// 005   ----------------------------------------
DestinedFate_Label_1_4380:
 BYTE   N64  Cn5  v100
 BYTE   W72
 BYTE   N10  As4
 BYTE   W12
 BYTE   Gs4
 BYTE   W12
 BYTE   PEND 
// 006   ----------------------------------------
DestinedFate_Label_1_4B00:
 BYTE   N42  Gn4  v100
 BYTE   W02
 BYTE   N01
 BYTE   W44
 BYTE   W01
 BYTE   N21  Gs4
 BYTE   W24
 BYTE   As4
 BYTE   W24
 BYTE   PEND 
// 007   ----------------------------------------
DestinedFate_Label_1_5280:
 BYTE   N96  Gn4  v100
 BYTE   W04
 BYTE   N84
 BYTE   W04
 BYTE   N02
 BYTE   W96
 BYTE   W84
 BYTE   W03
 BYTE   PEND 
// 008   ----------------------------------------
DestinedFate_Label_1_6180:
 BYTE   N21  Fn4  v100
 BYTE   W24
 BYTE   Gn4
 BYTE   W24
 BYTE   As4
 BYTE   W24
 BYTE   Gs4
 BYTE   W24
 BYTE   PEND 
// 009   ----------------------------------------
DestinedFate_Label_1_6900:
 BYTE   N42  Cs4  v100
 BYTE   W02
 BYTE   N01
 BYTE   W44
 BYTE   W01
 BYTE   N21  Ds4
 BYTE   W24
 BYTE   Fn4
 BYTE   W24
 BYTE   PEND 
 BYTE   PATT
  POIN2 DestinedFate_Label_1_4B00
// 010   ----------------------------------------
DestinedFate_Label_1_7800:
 BYTE   N42  Gn4  v100
 BYTE   W02
 BYTE   N01
 BYTE   W44
 BYTE   W01
 BYTE   N42  Ds4
 BYTE   W02
 BYTE   N01
 BYTE   W44
 BYTE   W01
 BYTE   PEND 
// 011   ----------------------------------------
DestinedFate_Label_1_7F80:
 BYTE   N84  Cn4  v100
 BYTE   W04
 BYTE   N02
 BYTE   W90
 BYTE   W01
 BYTE   PEND 
// 012   ----------------------------------------
DestinedFate_Label_1_8700:
 BYTE   N84  Dn4  v100
 BYTE   W04
 BYTE   N02
 BYTE   W90
 BYTE   W01
 BYTE   PEND 
// 013   ----------------------------------------
DestinedFate_Label_1_8E80:
 BYTE   N84  Ds4  v100
 BYTE   W04
 BYTE   N02
 BYTE   W90
 BYTE   W01
 BYTE   PEND 
 BYTE   PATT
  POIN2 DestinedFate_Label_1_8700
// 014   ----------------------------------------
DestinedFate_Label_1_9D80:
 BYTE   N64  Cn5  v100
 BYTE   W72
 BYTE   N21  As4
 BYTE   W24
 BYTE   PEND 
// 015   ----------------------------------------
DestinedFate_Label_1_A500:
 BYTE   N21  Ds5  v100
 BYTE   W24
 BYTE   Dn5
 BYTE   W24
 BYTE   Cn5
 BYTE   W24
 BYTE   As4
 BYTE   W24
 BYTE   PEND 
// 016   ----------------------------------------
DestinedFate_Label_1_AC80:
 BYTE   N96  Cn5  v100
 BYTE   W04
 BYTE   N84
 BYTE   W04
 BYTE   N02
 BYTE   W96
 BYTE   W84
 BYTE   W03
 BYTE   PEND 
 BYTE   PATT
  POIN2 DestinedFate_Label_1_4380
 BYTE   PATT
  POIN2 DestinedFate_Label_1_4B00
 BYTE   PATT
  POIN2 DestinedFate_Label_1_5280
 BYTE   PATT
  POIN2 DestinedFate_Label_1_6180
 BYTE   PATT
  POIN2 DestinedFate_Label_1_6900
 BYTE   PATT
  POIN2 DestinedFate_Label_1_4B00
 BYTE   PATT
  POIN2 DestinedFate_Label_1_7800
// 017   ----------------------------------------
DestinedFate_Label_1_F780:
 BYTE   N96  Fn4  v100
 BYTE   W04
 BYTE   N42
 BYTE   W02
 BYTE   N01
 BYTE   W96
 BYTE   W40
 BYTE   W01
 BYTE   PEND 
// 018   ----------------------------------------
DestinedFate_Label_1_0102C0:
 BYTE   N10  Fn4  v100
 BYTE   W12
 BYTE   Gn4
 BYTE   W12
 BYTE   Gs4
 BYTE   W12
 BYTE   As4
 BYTE   W12
 BYTE   N21  Cn5
 BYTE   W24
 BYTE   As4
 BYTE   W24
 BYTE   PEND 
// 019   ----------------------------------------
DestinedFate_Label_1_010A40:
 BYTE   N21  Fn4  v100
 BYTE   W24
 BYTE   N44  Cn5
 BYTE   W02
 BYTE   N01
 BYTE   W44
 BYTE   W01
 BYTE   N21  As4
 BYTE   W24
 BYTE   PEND 
// 020   ----------------------------------------
DestinedFate_Label_1_0111C0:
 BYTE   N21  Fn4  v100
 BYTE   W24
 BYTE   As4
 BYTE   W24
 BYTE   N96  Gn4
 BYTE   W04
 BYTE   N84
 BYTE   W04
 BYTE   N02
 BYTE   W96
 BYTE   W84
 BYTE   W03
 BYTE   PEND 
// 021   ----------------------------------------
DestinedFate_Label_1_012480:
 BYTE   N21  Fn4  v100
 BYTE   W24
 BYTE   Gn4
 BYTE   W24
 BYTE   Gs4
 BYTE   W24
 BYTE   Gn4
 BYTE   W24
 BYTE   PEND 
// 022   ----------------------------------------
DestinedFate_Label_1_012C00:
 BYTE   N42  As4  v100
 BYTE   W02
 BYTE   N01
 BYTE   W44
 BYTE   W01
 BYTE   N42  Cs4
 BYTE   W02
 BYTE   N01
 BYTE   W44
 BYTE   W01
 BYTE   PEND 
// 023   ----------------------------------------
DestinedFate_Label_1_013380:
 BYTE   N90  Cn4  v100
 BYTE   W04
 BYTE   N01
 BYTE   W90
 BYTE   W01
 BYTE   PEND 
// 024   ----------------------------------------
DestinedFate_Label_1_013B00:
 BYTE   N42  Cs4  v100
 BYTE   W02
 BYTE   N01
 BYTE   W44
 BYTE   W01
 BYTE   N42  Ds4
 BYTE   W02
 BYTE   N01
 BYTE   W44
 BYTE   W01
 BYTE   PEND 
// 025   ----------------------------------------
DestinedFate_Label_1_014280:
 BYTE   N42  Fn4  v100
 BYTE   W02
 BYTE   N01
 BYTE   W44
 BYTE   W01
 BYTE   N42  Ds4
 BYTE   W02
 BYTE   N01
 BYTE   W44
 BYTE   W01
 BYTE   PEND 
 BYTE   PATT
  POIN2 DestinedFate_Label_1_013B00
// 026   ----------------------------------------
DestinedFate_Label_1_015180:
 BYTE   N96  Fn4  v100
 BYTE   W04
 BYTE   Fn4
 BYTE   W04
 BYTE   Fn4
 BYTE   W04
 BYTE   N84
 BYTE   W04
 BYTE   N02
 BYTE   W96
 BYTE   W96
 BYTE   W96
 BYTE   W96
 BYTE   W96
 BYTE   W96
 BYTE   W96
 BYTE   W28
 BYTE   W01
 BYTE   PEND 
 BYTE   PATT
  POIN2 DestinedFate_Label_1_21C0
 BYTE   PATT
  POIN2 DestinedFate_Label_1_2B20
 BYTE   PATT
  POIN2 DestinedFate_Label_1_32A0
 BYTE   PATT
  POIN2 DestinedFate_Label_1_4380
 BYTE   PATT
  POIN2 DestinedFate_Label_1_4B00
 BYTE   PATT
  POIN2 DestinedFate_Label_1_5280
 BYTE   PATT
  POIN2 DestinedFate_Label_1_6180
 BYTE   PATT
  POIN2 DestinedFate_Label_1_6900
 BYTE   PATT
  POIN2 DestinedFate_Label_1_4B00
 BYTE   PATT
  POIN2 DestinedFate_Label_1_7800
 BYTE   PATT
  POIN2 DestinedFate_Label_1_7F80
 BYTE   PATT
  POIN2 DestinedFate_Label_1_8700
 BYTE   PATT
  POIN2 DestinedFate_Label_1_8E80
 BYTE   PATT
  POIN2 DestinedFate_Label_1_8700
 BYTE   PATT
  POIN2 DestinedFate_Label_1_9D80
 BYTE   PATT
  POIN2 DestinedFate_Label_1_A500
 BYTE   PATT
  POIN2 DestinedFate_Label_1_AC80
 BYTE   PATT
  POIN2 DestinedFate_Label_1_4380
 BYTE   PATT
  POIN2 DestinedFate_Label_1_4B00
 BYTE   PATT
  POIN2 DestinedFate_Label_1_5280
 BYTE   PATT
  POIN2 DestinedFate_Label_1_6180
 BYTE   PATT
  POIN2 DestinedFate_Label_1_6900
 BYTE   PATT
  POIN2 DestinedFate_Label_1_4B00
 BYTE   PATT
  POIN2 DestinedFate_Label_1_7800
 BYTE   PATT
  POIN2 DestinedFate_Label_1_F780
 BYTE   PATT
  POIN2 DestinedFate_Label_1_0102C0
 BYTE   PATT
  POIN2 DestinedFate_Label_1_010A40
 BYTE   PATT
  POIN2 DestinedFate_Label_1_0111C0
 BYTE   PATT
  POIN2 DestinedFate_Label_1_012480
 BYTE   PATT
  POIN2 DestinedFate_Label_1_012C00
 BYTE   PATT
  POIN2 DestinedFate_Label_1_013380
 BYTE   PATT
  POIN2 DestinedFate_Label_1_013B00
 BYTE   PATT
  POIN2 DestinedFate_Label_1_014280
 BYTE   PATT
  POIN2 DestinedFate_Label_1_013B00
 BYTE   PATT
  POIN2 DestinedFate_Label_1_015180
// 027   ----------------------------------------
 BYTE   N05  As3  v100
 BYTE   W06
 BYTE   Cn4
 BYTE   W06
 BYTE   Cs4
 BYTE   W06
 BYTE   Ds4
 BYTE   W06
 BYTE   Fn4
 BYTE   W06
 BYTE   Gn4
 BYTE   W06
 BYTE   Gs4
 BYTE   W06
 BYTE   As4
 BYTE   W32
 BYTE   GoTo
  POIN2 DestinedFate_Label_1_00
 BYTE   FINE

//**************** Track 3 (Midi-Chn.2) ****************//

DestinedFate_003:
// 000   ----------------------------------------
DestinedFate_Label_2_00:
 BYTE   TEMPO   120*DestinedFate_tbs/2
 BYTE   KEYSH   DestinedFate_key+0
 BYTE   VOICE   24
 BYTE   VOL   24*DestinedFate_mvl/mxv
 BYTE   PAN   c_v-1
 BYTE   W96
// 001   ----------------------------------------
 BYTE   TEMPO   140*DestinedFate_tbs/2
 BYTE   N08  Fn2  v100
 BYTE   W12
 BYTE   Cn3
 BYTE   W12
 BYTE   N10  As2
 BYTE   W12
 BYTE   N08  Cn3
 BYTE   W12
 BYTE   Fn2
 BYTE   W12
 BYTE   Cs3
 BYTE   W12
 BYTE   Cn3
 BYTE   W12
 BYTE   Cs3
 BYTE   W12
// 002   ----------------------------------------
DestinedFate_Label_2_0F00:
 BYTE   N08  Fn2  v100
 BYTE   W12
 BYTE   Cn3
 BYTE   W12
 BYTE   N10  As2
 BYTE   W12
 BYTE   N08  Cn3
 BYTE   W12
 BYTE   Fn2
 BYTE   W12
 BYTE   Cs3
 BYTE   W12
 BYTE   Cn3
 BYTE   W12
 BYTE   Cs3
 BYTE   W12
 BYTE   PEND 
 BYTE   PATT
  POIN2 DestinedFate_Label_2_0F00
// 003   ----------------------------------------
DestinedFate_Label_2_1E00:
 BYTE   N08  Fn2  v100
 BYTE   W12
 BYTE   Cn3
 BYTE   W12
 BYTE   N10  As2
 BYTE   W12
 BYTE   N08  Cn3
 BYTE   W60
 BYTE   PEND 
 BYTE   PATT
  POIN2 DestinedFate_Label_2_0F00
 BYTE   PATT
  POIN2 DestinedFate_Label_2_0F00
 BYTE   PATT
  POIN2 DestinedFate_Label_2_0F00
// 004   ----------------------------------------
DestinedFate_Label_2_3C00:
 BYTE   N08  Fn2  v100
 BYTE   W12
 BYTE   Cn3
 BYTE   W12
 BYTE   N10  As2
 BYTE   W12
 BYTE   N08  Cn3
 BYTE   W12
 BYTE   Gn2
 BYTE   W12
 BYTE   Cs3
 BYTE   W12
 BYTE   Cn3
 BYTE   W12
 BYTE   Cs3
 BYTE   W12
 BYTE   PEND 
// 005   ----------------------------------------
DestinedFate_Label_2_4380:
 BYTE   N08  Gs2  v100
 BYTE   W12
 BYTE   Cn3
 BYTE   W12
 BYTE   As2
 BYTE   W12
 BYTE   Cn3
 BYTE   W12
 BYTE   Gs2
 BYTE   W12
 BYTE   Cs3
 BYTE   W12
 BYTE   Cn3
 BYTE   W12
 BYTE   Cs3
 BYTE   W12
 BYTE   PEND 
 BYTE   PATT
  POIN2 DestinedFate_Label_2_4380
 BYTE   PATT
  POIN2 DestinedFate_Label_2_4380
// 006   ----------------------------------------
DestinedFate_Label_2_5A00:
 BYTE   N08  Gs2  v100
 BYTE   W12
 BYTE   Cn3
 BYTE   W12
 BYTE   As2
 BYTE   W12
 BYTE   Cn3
 BYTE   W12
 BYTE   Gs2
 BYTE   W12
 BYTE   Cs3
 BYTE   W12
 BYTE   Cn3
 BYTE   W12
 BYTE   As2
 BYTE   W12
 BYTE   PEND 
 BYTE   PATT
  POIN2 DestinedFate_Label_2_4380
 BYTE   PATT
  POIN2 DestinedFate_Label_2_4380
// 007   ----------------------------------------
DestinedFate_Label_2_7080:
 BYTE   N08  Gn2  v100
 BYTE   W12
 BYTE   Cn3
 BYTE   W12
 BYTE   As2
 BYTE   W12
 BYTE   Cn3
 BYTE   W12
 BYTE   Gn2
 BYTE   W12
 BYTE   Cn3
 BYTE   W12
 BYTE   As2
 BYTE   W12
 BYTE   Cn3
 BYTE   W12
 BYTE   PEND 
// 008   ----------------------------------------
DestinedFate_Label_2_7800:
 BYTE   N42  Gn2  v100
 BYTE   W02
 BYTE   N01
 BYTE   W44
 BYTE   W01
 BYTE   N21  Cn3
 BYTE   W24
 BYTE   Gn2
 BYTE   W24
 BYTE   PEND 
// 009   ----------------------------------------
DestinedFate_Label_2_7F80:
 BYTE   N08  Fn2  v100
 BYTE   W12
 BYTE   Cn3
 BYTE   W12
 BYTE   As2
 BYTE   W12
 BYTE   Cn3
 BYTE   W12
 BYTE   Fn2
 BYTE   W12
 BYTE   Cn3
 BYTE   W12
 BYTE   As2
 BYTE   W12
 BYTE   Cn3
 BYTE   W12
 BYTE   PEND 
// 010   ----------------------------------------
DestinedFate_Label_2_8700:
 BYTE   N08  Fn2  v100
 BYTE   W12
 BYTE   Dn3
 BYTE   W12
 BYTE   Cn3
 BYTE   W12
 BYTE   Dn3
 BYTE   W12
 BYTE   Fn2
 BYTE   W12
 BYTE   Dn3
 BYTE   W12
 BYTE   Cn3
 BYTE   W12
 BYTE   Dn3
 BYTE   W12
 BYTE   PEND 
 BYTE   PATT
  POIN2 DestinedFate_Label_2_7F80
 BYTE   PATT
  POIN2 DestinedFate_Label_2_8700
 BYTE   PATT
  POIN2 DestinedFate_Label_2_0F00
 BYTE   PATT
  POIN2 DestinedFate_Label_2_0F00
 BYTE   PATT
  POIN2 DestinedFate_Label_2_0F00
 BYTE   PATT
  POIN2 DestinedFate_Label_2_3C00
 BYTE   PATT
  POIN2 DestinedFate_Label_2_4380
 BYTE   PATT
  POIN2 DestinedFate_Label_2_4380
 BYTE   PATT
  POIN2 DestinedFate_Label_2_4380
 BYTE   PATT
  POIN2 DestinedFate_Label_2_5A00
 BYTE   PATT
  POIN2 DestinedFate_Label_2_4380
 BYTE   PATT
  POIN2 DestinedFate_Label_2_4380
 BYTE   PATT
  POIN2 DestinedFate_Label_2_7080
 BYTE   PATT
  POIN2 DestinedFate_Label_2_7800
// 011   ----------------------------------------
DestinedFate_Label_2_F780:
 BYTE   N08  Fn2  v100
 BYTE   W12
 BYTE   Cn3
 BYTE   W12
 BYTE   As2
 BYTE   W12
 BYTE   Cn3
 BYTE   W12
 BYTE   Fn2
 BYTE   W12
 BYTE   Cs3
 BYTE   W12
 BYTE   Cn3
 BYTE   W12
 BYTE   Cs3
 BYTE   W12
 BYTE   PEND 
// 012   ----------------------------------------
DestinedFate_Label_2_FF00:
 BYTE   N08  Fn2  v100
 BYTE   W12
 BYTE   Cn3
 BYTE   W12
 BYTE   As2
 BYTE   W12
 BYTE   Cn3
 BYTE   W12
 BYTE   Fn2
 BYTE   W12
 BYTE   Cs3
 BYTE   W12
 BYTE   Cn3
 BYTE   W12
 BYTE   As2
 BYTE   W12
 BYTE   PEND 
// 013   ----------------------------------------
DestinedFate_Label_2_010680:
 BYTE   N08  Gs2  v100
 BYTE   W12
 BYTE   As2
 BYTE   W12
 BYTE   Cn3
 BYTE   W12
 BYTE   Gs2
 BYTE   W12
 BYTE   As2
 BYTE   W12
 BYTE   Cn3
 BYTE   W12
 BYTE   Gs2
 BYTE   W12
 BYTE   As2
 BYTE   W12
 BYTE   PEND 
// 014   ----------------------------------------
DestinedFate_Label_2_010E00:
 BYTE   N08  Cn3  v100
 BYTE   W12
 BYTE   Gs2
 BYTE   W12
 BYTE   As2
 BYTE   W12
 BYTE   Cn3
 BYTE   W12
 BYTE   Cs3
 BYTE   W12
 BYTE   Cn3
 BYTE   W12
 BYTE   As2
 BYTE   W12
 BYTE   Gs2
 BYTE   W12
 BYTE   PEND 
// 015   ----------------------------------------
DestinedFate_Label_2_011580:
 BYTE   N08  Gn2  v100
 BYTE   W12
 BYTE   Gs2
 BYTE   W12
 BYTE   As2
 BYTE   W12
 BYTE   Gn2
 BYTE   W12
 BYTE   Gs2
 BYTE   W12
 BYTE   As2
 BYTE   W12
 BYTE   Gn2
 BYTE   W12
 BYTE   Gs2
 BYTE   W12
 BYTE   PEND 
// 016   ----------------------------------------
DestinedFate_Label_2_011D00:
 BYTE   N08  As2  v100
 BYTE   W12
 BYTE   Gn2
 BYTE   W12
 BYTE   Gs2
 BYTE   W12
 BYTE   As2
 BYTE   W12
 BYTE   Cn3
 BYTE   W12
 BYTE   As2
 BYTE   W12
 BYTE   Gs2
 BYTE   W12
 BYTE   Gn2
 BYTE   W12
 BYTE   PEND 
// 017   ----------------------------------------
DestinedFate_Label_2_012480:
 BYTE   N08  Fn2  v100
 BYTE   W12
 BYTE   Gn2
 BYTE   W12
 BYTE   Gs2
 BYTE   W12
 BYTE   Fn2
 BYTE   W12
 BYTE   Gn2
 BYTE   W12
 BYTE   Gs2
 BYTE   W12
 BYTE   Fn2
 BYTE   W12
 BYTE   Gn2
 BYTE   W12
 BYTE   PEND 
// 018   ----------------------------------------
DestinedFate_Label_2_012C00:
 BYTE   N08  Gs2  v100
 BYTE   W12
 BYTE   Fn2
 BYTE   W12
 BYTE   Gn2
 BYTE   W12
 BYTE   Gs2
 BYTE   W12
 BYTE   As2
 BYTE   W12
 BYTE   Gs2
 BYTE   W12
 BYTE   Gn2
 BYTE   W12
 BYTE   Fn2
 BYTE   W12
 BYTE   PEND 
// 019   ----------------------------------------
DestinedFate_Label_2_013380:
 BYTE   N08  Ds2  v100
 BYTE   W12
 BYTE   Fn2
 BYTE   W12
 BYTE   Gn2
 BYTE   W12
 BYTE   Ds2
 BYTE   W12
 BYTE   Fn2
 BYTE   W12
 BYTE   Gn2
 BYTE   W12
 BYTE   Ds2
 BYTE   W12
 BYTE   Fn2
 BYTE   W12
 BYTE   PEND 
// 020   ----------------------------------------
DestinedFate_Label_2_013B00:
 BYTE   N21  Gn2  v100
 BYTE   W24
 BYTE   Gs2
 BYTE   W24
 BYTE   As2
 BYTE   W24
 BYTE   Cn3
 BYTE   W24
 BYTE   PEND 
// 021   ----------------------------------------
DestinedFate_Label_2_014280:
 BYTE   N42  Cs3  v100
 BYTE   W02
 BYTE   N01
 BYTE   W44
 BYTE   W01
 BYTE   N42  Cn3
 BYTE   W02
 BYTE   N01
 BYTE   W44
 BYTE   W01
 BYTE   PEND 
// 022   ----------------------------------------
DestinedFate_Label_2_014A00:
 BYTE   N42  As2  v100
 BYTE   W02
 BYTE   N01
 BYTE   W44
 BYTE   W01
 BYTE   N42  Cn3
 BYTE   W02
 BYTE   N01
 BYTE   W44
 BYTE   W01
 BYTE   PEND 
// 023   ----------------------------------------
DestinedFate_Label_2_015180:
 BYTE   N96  Cn3  v100
 BYTE   W04
 BYTE   Cn3
 BYTE   W04
 BYTE   Cn3
 BYTE   W04
 BYTE   N84
 BYTE   W04
 BYTE   N02
 BYTE   W96
 BYTE   W96
 BYTE   W96
 BYTE   W76
 BYTE   W01
 BYTE   PEND 
 BYTE   PATT
  POIN2 DestinedFate_Label_2_0F00
 BYTE   PATT
  POIN2 DestinedFate_Label_2_0F00
 BYTE   PATT
  POIN2 DestinedFate_Label_2_0F00
 BYTE   PATT
  POIN2 DestinedFate_Label_2_1E00
 BYTE   PATT
  POIN2 DestinedFate_Label_2_0F00
 BYTE   PATT
  POIN2 DestinedFate_Label_2_0F00
 BYTE   PATT
  POIN2 DestinedFate_Label_2_0F00
 BYTE   PATT
  POIN2 DestinedFate_Label_2_3C00
 BYTE   PATT
  POIN2 DestinedFate_Label_2_4380
 BYTE   PATT
  POIN2 DestinedFate_Label_2_4380
 BYTE   PATT
  POIN2 DestinedFate_Label_2_4380
 BYTE   PATT
  POIN2 DestinedFate_Label_2_5A00
 BYTE   PATT
  POIN2 DestinedFate_Label_2_4380
 BYTE   PATT
  POIN2 DestinedFate_Label_2_4380
 BYTE   PATT
  POIN2 DestinedFate_Label_2_7080
 BYTE   PATT
  POIN2 DestinedFate_Label_2_7800
 BYTE   PATT
  POIN2 DestinedFate_Label_2_7F80
 BYTE   PATT
  POIN2 DestinedFate_Label_2_8700
 BYTE   PATT
  POIN2 DestinedFate_Label_2_7F80
 BYTE   PATT
  POIN2 DestinedFate_Label_2_8700
 BYTE   PATT
  POIN2 DestinedFate_Label_2_0F00
 BYTE   PATT
  POIN2 DestinedFate_Label_2_0F00
 BYTE   PATT
  POIN2 DestinedFate_Label_2_0F00
 BYTE   PATT
  POIN2 DestinedFate_Label_2_3C00
 BYTE   PATT
  POIN2 DestinedFate_Label_2_4380
 BYTE   PATT
  POIN2 DestinedFate_Label_2_4380
 BYTE   PATT
  POIN2 DestinedFate_Label_2_4380
 BYTE   PATT
  POIN2 DestinedFate_Label_2_5A00
 BYTE   PATT
  POIN2 DestinedFate_Label_2_4380
 BYTE   PATT
  POIN2 DestinedFate_Label_2_4380
 BYTE   PATT
  POIN2 DestinedFate_Label_2_7080
 BYTE   PATT
  POIN2 DestinedFate_Label_2_7800
 BYTE   PATT
  POIN2 DestinedFate_Label_2_F780
 BYTE   PATT
  POIN2 DestinedFate_Label_2_FF00
 BYTE   PATT
  POIN2 DestinedFate_Label_2_010680
 BYTE   PATT
  POIN2 DestinedFate_Label_2_010E00
 BYTE   PATT
  POIN2 DestinedFate_Label_2_011580
 BYTE   PATT
  POIN2 DestinedFate_Label_2_011D00
 BYTE   PATT
  POIN2 DestinedFate_Label_2_012480
 BYTE   PATT
  POIN2 DestinedFate_Label_2_012C00
 BYTE   PATT
  POIN2 DestinedFate_Label_2_013380
 BYTE   PATT
  POIN2 DestinedFate_Label_2_013B00
 BYTE   PATT
  POIN2 DestinedFate_Label_2_014280
 BYTE   PATT
  POIN2 DestinedFate_Label_2_014A00
 BYTE   PATT
  POIN2 DestinedFate_Label_2_015180
 BYTE   PATT
  POIN2 DestinedFate_Label_2_0F00
 BYTE   PATT
  POIN2 DestinedFate_Label_2_0F00
 BYTE   PATT
  POIN2 DestinedFate_Label_2_0F00
// 024   ----------------------------------------
 BYTE   N08  Fn2  v100
 BYTE   W12
 BYTE   Cn3
 BYTE   W12
 BYTE   N10  As2
 BYTE   W12
 BYTE   N08  Cn3
 BYTE   W84
 BYTE   W02
// 025   ----------------------------------------
 BYTE   GoTo
  POIN2 DestinedFate_Label_2_00
 BYTE   FINE

//**************** Track 4 (Midi-Chn.3) ****************//

DestinedFate_004:
// 000   ----------------------------------------
DestinedFate_Label_3_00:
 BYTE   TEMPO   120*DestinedFate_tbs/2
 BYTE   KEYSH   DestinedFate_key+0
 BYTE   VOL   25*DestinedFate_mvl/mxv
 BYTE   PAN   c_v-1
 BYTE   W96
// 001   ----------------------------------------
 BYTE   TEMPO   140*DestinedFate_tbs/2
// 002   ----------------------------------------
 BYTE   VOICE   56
 BYTE   W96
 BYTE   W96
 BYTE   W96
 BYTE   W96
 BYTE   W96
 BYTE   W96
 BYTE   W24
 BYTE   N21  Cn4  v100
 BYTE   W24
 BYTE   Gn4
 BYTE   W24
 BYTE   Fn4
 BYTE   W24
 BYTE   As4
 BYTE   W24
 BYTE   Gs4
 BYTE   W24
 BYTE   Gn4
 BYTE   W24
 BYTE   Fn4
 BYTE   W24
 BYTE   N96  Cs4
 BYTE   W04
 BYTE   N84
 BYTE   W04
 BYTE   N02
 BYTE   W96
 BYTE   W96
 BYTE   W60
 BYTE   W03
 BYTE   N10
 BYTE   W12
 BYTE   Ds4
 BYTE   W12
 BYTE   N21  Fn4
 BYTE   W24
 BYTE   N10  Ds4
 BYTE   W12
 BYTE   Cs4
 BYTE   W12
 BYTE   N21  Cn4
 BYTE   W24
 BYTE   Ds4
 BYTE   W24
 BYTE   N64  Cs4
 BYTE   W72
 BYTE   N21  Cn4
 BYTE   W24
 BYTE   N84  As3
 BYTE   W04
 BYTE   N02
 BYTE   W90
 BYTE   W01
 BYTE   N96  Cn4
 BYTE   W04
 BYTE   N84
 BYTE   W04
 BYTE   N02
 BYTE   W96
 BYTE   W84
 BYTE   W03
 BYTE   N56
 BYTE   W02
 BYTE   N02
 BYTE   W56
 BYTE   W01
 BYTE   N10  Fn3
 BYTE   W12
 BYTE   Gs3
 BYTE   W12
 BYTE   Cn4
 BYTE   W12
 BYTE   N56  Dn4
 BYTE   W02
 BYTE   N02
 BYTE   W56
 BYTE   W01
 BYTE   N10  Fn3
 BYTE   W12
 BYTE   Gs3
 BYTE   W12
 BYTE   Dn4
 BYTE   W12
 BYTE   N56  Ds4
 BYTE   W02
 BYTE   N02
 BYTE   W56
 BYTE   W01
 BYTE   N10  Fn3
 BYTE   W12
 BYTE   Gs3
 BYTE   W12
 BYTE   Ds4
 BYTE   W12
 BYTE   N56  Dn4
 BYTE   W02
 BYTE   N02
 BYTE   W56
 BYTE   W01
 BYTE   N10  Fn3
 BYTE   W12
 BYTE   Gs3
 BYTE   W12
 BYTE   Dn4
 BYTE   W96
 BYTE   W96
 BYTE   W36
// 003   ----------------------------------------
DestinedFate_Label_3_AE60:
 BYTE   N21  Cn4  v100
 BYTE   W24
 BYTE   Gn4
 BYTE   W24
 BYTE   Fn4
 BYTE   W24
 BYTE   As4
 BYTE   W24
 BYTE   PEND 
// 004   ----------------------------------------
DestinedFate_Label_3_B5E0:
 BYTE   N21  Gs4  v100
 BYTE   W24
 BYTE   Gn4
 BYTE   W24
 BYTE   Fn4
 BYTE   W24
 BYTE   N96  Cs4
 BYTE   W04
 BYTE   N84
 BYTE   W04
 BYTE   N02
 BYTE   W96
 BYTE   W96
 BYTE   W60
 BYTE   W03
 BYTE   PEND 
// 005   ----------------------------------------
DestinedFate_Label_3_D020:
 BYTE   N10  Cs4  v100
 BYTE   W12
 BYTE   Ds4
 BYTE   W12
 BYTE   N21  Fn4
 BYTE   W24
 BYTE   N10  Ds4
 BYTE   W12
 BYTE   Cs4
 BYTE   W12
 BYTE   N21  Cn4
 BYTE   W24
 BYTE   PEND 
// 006   ----------------------------------------
DestinedFate_Label_3_D7A0:
 BYTE   N21  Ds4  v100
 BYTE   W24
 BYTE   N64  Cs4
 BYTE   W72
 BYTE   PEND 
// 007   ----------------------------------------
DestinedFate_Label_3_DF20:
 BYTE   N21  Cn4  v100
 BYTE   W24
 BYTE   N84  As3
 BYTE   W04
 BYTE   N02
 BYTE   W90
 BYTE   W01
 BYTE   PEND 
// 008   ----------------------------------------
DestinedFate_Label_3_E880:
 BYTE   N96  Cn4  v100
 BYTE   W04
 BYTE   N84
 BYTE   W04
 BYTE   N02
 BYTE   W96
 BYTE   W84
 BYTE   W03
 BYTE   PEND 
// 009   ----------------------------------------
DestinedFate_Label_3_F780:
 BYTE   N96  Cn4  v100
 BYTE   W04
 BYTE   N42
 BYTE   W02
 BYTE   N01
 BYTE   W96
 BYTE   W40
 BYTE   W01
 BYTE   PEND 
// 010   ----------------------------------------
DestinedFate_Label_3_0102C0:
 BYTE   N10  Fn4  v100
 BYTE   W12
 BYTE   Gn4
 BYTE   W12
 BYTE   Gs4
 BYTE   W12
 BYTE   As4
 BYTE   W96
 BYTE   W96
 BYTE   W60
 BYTE   PEND 
// 011   ----------------------------------------
DestinedFate_Label_3_011940:
 BYTE   N21  Cn4  v100
 BYTE   W24
 BYTE   Cs4
 BYTE   W24
 BYTE   N42  Ds4
 BYTE   W02
 BYTE   N01
 BYTE   W44
 BYTE   W01
 BYTE   PEND 
// 012   ----------------------------------------
DestinedFate_Label_3_0120C0:
 BYTE   N21  Cs4  v100
 BYTE   W24
 BYTE   Cn4
 BYTE   W24
 BYTE   N96  Gs3
 BYTE   W04
 BYTE   N84
 BYTE   W04
 BYTE   N02
 BYTE   W96
 BYTE   W96
 BYTE   W36
 BYTE   W03
 BYTE   PEND 
// 013   ----------------------------------------
DestinedFate_Label_3_013740:
 BYTE   N42  Gs3  v100
 BYTE   W02
 BYTE   N01
 BYTE   W44
 BYTE   W01
 BYTE   N42  As3
 BYTE   W02
 BYTE   N01
 BYTE   W44
 BYTE   W01
 BYTE   PEND 
// 014   ----------------------------------------
DestinedFate_Label_3_013EC0:
 BYTE   N42  Cn4  v100
 BYTE   W02
 BYTE   N01
 BYTE   W96
 BYTE   W96
 BYTE   W44
 BYTE   W01
 BYTE   PEND 
// 015   ----------------------------------------
DestinedFate_Label_3_015180:
 BYTE   N64  As3  v100
 BYTE   W72
 BYTE   N10
 BYTE   W12
 BYTE   As3
 BYTE   W12
 BYTE   PEND 
 BYTE   PATT
  POIN2 DestinedFate_Label_3_015180
// 016   ----------------------------------------
 BYTE   N96  An3  v100
 BYTE   W04
 BYTE   N84
 BYTE   W04
 BYTE   N02
 BYTE   W96
 BYTE   W96
 BYTE   W96
 BYTE   W96
 BYTE   W96
 BYTE   W96
 BYTE   W96
 BYTE   W96
 BYTE   W15
 BYTE   PATT
  POIN2 DestinedFate_Label_3_AE60
 BYTE   PATT
  POIN2 DestinedFate_Label_3_B5E0
 BYTE   PATT
  POIN2 DestinedFate_Label_3_D020
 BYTE   PATT
  POIN2 DestinedFate_Label_3_D7A0
 BYTE   PATT
  POIN2 DestinedFate_Label_3_DF20
 BYTE   PATT
  POIN2 DestinedFate_Label_3_E880
// 017   ----------------------------------------
 BYTE   N56  Cn4  v100
 BYTE   W02
 BYTE   N02
 BYTE   W56
 BYTE   W01
 BYTE   N10  Fn3
 BYTE   W12
 BYTE   Gs3
 BYTE   W12
 BYTE   Cn4
 BYTE   W12
// 018   ----------------------------------------
 BYTE   N56  Dn4
 BYTE   W02
 BYTE   N02
 BYTE   W56
 BYTE   W01
 BYTE   N10  Fn3
 BYTE   W12
 BYTE   Gs3
 BYTE   W12
 BYTE   Dn4
 BYTE   W12
// 019   ----------------------------------------
 BYTE   N56  Ds4
 BYTE   W02
 BYTE   N02
 BYTE   W56
 BYTE   W01
 BYTE   N10  Fn3
 BYTE   W12
 BYTE   Gs3
 BYTE   W12
 BYTE   Ds4
 BYTE   W12
// 020   ----------------------------------------
 BYTE   N56  Dn4
 BYTE   W02
 BYTE   N02
 BYTE   W56
 BYTE   W01
 BYTE   N10  Fn3
 BYTE   W12
 BYTE   Gs3
 BYTE   W12
 BYTE   Dn4
 BYTE   W96
 BYTE   W96
 BYTE   W36
 BYTE   PATT
  POIN2 DestinedFate_Label_3_AE60
 BYTE   PATT
  POIN2 DestinedFate_Label_3_B5E0
 BYTE   PATT
  POIN2 DestinedFate_Label_3_D020
 BYTE   PATT
  POIN2 DestinedFate_Label_3_D7A0
 BYTE   PATT
  POIN2 DestinedFate_Label_3_DF20
 BYTE   PATT
  POIN2 DestinedFate_Label_3_E880
 BYTE   PATT
  POIN2 DestinedFate_Label_3_F780
 BYTE   PATT
  POIN2 DestinedFate_Label_3_0102C0
 BYTE   PATT
  POIN2 DestinedFate_Label_3_011940
 BYTE   PATT
  POIN2 DestinedFate_Label_3_0120C0
 BYTE   PATT
  POIN2 DestinedFate_Label_3_013740
 BYTE   PATT
  POIN2 DestinedFate_Label_3_013EC0
 BYTE   PATT
  POIN2 DestinedFate_Label_3_015180
 BYTE   PATT
  POIN2 DestinedFate_Label_3_015180
// 021   ----------------------------------------
 BYTE   N96  An3  v100
 BYTE   W04
 BYTE   N84
 BYTE   W04
 BYTE   N02
 BYTE   W96
 BYTE   W96
 BYTE   W96
 BYTE   W96
 BYTE   W96
 BYTE   W96
 BYTE   W17
// 022   ----------------------------------------
 BYTE   GoTo
  POIN2 DestinedFate_Label_3_00
 BYTE   FINE

//**************** Track 5 (Midi-Chn.4) ****************//

DestinedFate_005:
// 000   ----------------------------------------
DestinedFate_Label_4_00:
 BYTE   TEMPO   120*DestinedFate_tbs/2
 BYTE   KEYSH   DestinedFate_key+0
 BYTE   VOICE   56
 BYTE   VOL   24*DestinedFate_mvl/mxv
 BYTE   PAN   c_v-1
 BYTE   W96
// 001   ----------------------------------------
 BYTE   TEMPO   140*DestinedFate_tbs/2
 BYTE   N42  Fn1  v100
 BYTE   W02
 BYTE   N01
 BYTE   W96
 BYTE   W96
 BYTE   W96
 BYTE   W44
 BYTE   W01
// 002   ----------------------------------------
DestinedFate_Label_4_21C0:
 BYTE   N03  Fn1  v100
 BYTE   W04
 BYTE   Fn1
 BYTE   W04
 BYTE   Fn1
 BYTE   W04
 BYTE   Fn1
 BYTE   W04
 BYTE   Fn1
 BYTE   W04
 BYTE   Fn1
 BYTE   W04
 BYTE   Fn1
 BYTE   W04
 BYTE   Fn1
 BYTE   W04
 BYTE   Fn1
 BYTE   W04
 BYTE   Fn1
 BYTE   W04
 BYTE   Fn1
 BYTE   W04
 BYTE   Fn1
 BYTE   W04
 BYTE   N42
 BYTE   W02
 BYTE   N01
 BYTE   W68
 BYTE   W01
 BYTE   PEND 
// 003   ----------------------------------------
DestinedFate_Label_4_2B20:
 BYTE   N05  Fn1  v100
 BYTE   W06
 BYTE   Fn1
 BYTE   W06
 BYTE   Fn1
 BYTE   W06
 BYTE   Fn1
 BYTE   W06
 BYTE   N42
 BYTE   W02
 BYTE   N01
 BYTE   W92
 BYTE   W01
 BYTE   PEND 
// 004   ----------------------------------------
DestinedFate_Label_4_3480:
 BYTE   N42  Fn1  v100
 BYTE   W02
 BYTE   N01
 BYTE   W68
 BYTE   W01
 BYTE   N05
 BYTE   W06
 BYTE   Fn1
 BYTE   W06
 BYTE   Fn1
 BYTE   W06
 BYTE   Fn1
 BYTE   W06
 BYTE   PEND 
// 005   ----------------------------------------
DestinedFate_Label_4_3C00:
 BYTE   N21  Fn1  v100
 BYTE   W24
 BYTE   Fn1
 BYTE   W24
 BYTE   Fn1
 BYTE   W24
 BYTE   Fn1
 BYTE   W24
 BYTE   PEND 
 BYTE   PATT
  POIN2 DestinedFate_Label_4_3480
// 006   ----------------------------------------
DestinedFate_Label_4_4B00:
 BYTE   N42  Fn1  v100
 BYTE   W02
 BYTE   N01
 BYTE   W92
 BYTE   W01
 BYTE   PEND 
 BYTE   PATT
  POIN2 DestinedFate_Label_4_3480
 BYTE   PATT
  POIN2 DestinedFate_Label_4_3C00
// 007   ----------------------------------------
DestinedFate_Label_4_6180:
 BYTE   N42  Fn1  v100
 BYTE   W02
 BYTE   N01
 BYTE   W96
 BYTE   W44
 BYTE   W01
 BYTE   PEND 
// 008   ----------------------------------------
DestinedFate_Label_4_6CC0:
 BYTE   N10  Fn1  v100
 BYTE   W12
 BYTE   Fn1
 BYTE   W12
 BYTE   Fn1
 BYTE   W12
 BYTE   Fn1
 BYTE   W12
 BYTE   N42
 BYTE   W02
 BYTE   N01
 BYTE   W44
 BYTE   W01
 BYTE   PEND 
// 009   ----------------------------------------
DestinedFate_Label_4_7440:
 BYTE   N42  Fn1  v100
 BYTE   W02
 BYTE   N01
 BYTE   W44
 BYTE   W01
 BYTE   N42
 BYTE   W02
 BYTE   N01
 BYTE   W44
 BYTE   W01
 BYTE   PEND 
// 010   ----------------------------------------
DestinedFate_Label_4_7BC0:
 BYTE   N42  Fn1  v100
 BYTE   W02
 BYTE   N01
 BYTE   W44
 BYTE   W01
 BYTE   N42
 BYTE   W02
 BYTE   N01
 BYTE   W68
 BYTE   W01
 BYTE   PEND 
// 011   ----------------------------------------
DestinedFate_Label_4_8520:
 BYTE   N21  Fn1  v100
 BYTE   W24
 BYTE   N42
 BYTE   W02
 BYTE   N01
 BYTE   W68
 BYTE   W01
 BYTE   PEND 
 BYTE   PATT
  POIN2 DestinedFate_Label_4_8520
 BYTE   PATT
  POIN2 DestinedFate_Label_4_8520
 BYTE   PATT
  POIN2 DestinedFate_Label_4_8520
 BYTE   PATT
  POIN2 DestinedFate_Label_4_2B20
 BYTE   PATT
  POIN2 DestinedFate_Label_4_3480
 BYTE   PATT
  POIN2 DestinedFate_Label_4_3C00
 BYTE   PATT
  POIN2 DestinedFate_Label_4_3480
 BYTE   PATT
  POIN2 DestinedFate_Label_4_4B00
 BYTE   PATT
  POIN2 DestinedFate_Label_4_3480
 BYTE   PATT
  POIN2 DestinedFate_Label_4_3C00
 BYTE   PATT
  POIN2 DestinedFate_Label_4_6180
 BYTE   PATT
  POIN2 DestinedFate_Label_4_6CC0
 BYTE   PATT
  POIN2 DestinedFate_Label_4_7440
// 012   ----------------------------------------
DestinedFate_Label_4_F3C0:
 BYTE   N42  Fn1  v100
 BYTE   W02
 BYTE   N01
 BYTE   W44
 BYTE   W01
 BYTE   N84
 BYTE   W04
 BYTE   N02
 BYTE   W90
 BYTE   W01
 BYTE   PEND 
// 013   ----------------------------------------
DestinedFate_Label_4_FF00:
 BYTE   N03  Fn1  v100
 BYTE   W04
 BYTE   Fn1
 BYTE   W04
 BYTE   Fn1
 BYTE   W04
 BYTE   Fn1
 BYTE   W04
 BYTE   Fn1
 BYTE   W04
 BYTE   Fn1
 BYTE   W04
 BYTE   Fn1
 BYTE   W04
 BYTE   Fn1
 BYTE   W04
 BYTE   Fn1
 BYTE   W04
 BYTE   Fn1
 BYTE   W04
 BYTE   Fn1
 BYTE   W04
 BYTE   Fn1
 BYTE   W04
 BYTE   Fn1
 BYTE   W04
 BYTE   Fn1
 BYTE   W04
 BYTE   Fn1
 BYTE   W04
 BYTE   Fn1
 BYTE   W04
 BYTE   Fn1
 BYTE   W04
 BYTE   Fn1
 BYTE   W04
 BYTE   Fn1
 BYTE   W04
 BYTE   Fn1
 BYTE   W04
 BYTE   Fn1
 BYTE   W04
 BYTE   Fn1
 BYTE   W04
 BYTE   Fn1
 BYTE   W04
 BYTE   Fn1
 BYTE   W04
 BYTE   PEND 
// 014   ----------------------------------------
DestinedFate_Label_4_010680:
 BYTE   N21  Fn1  v100
 BYTE   W24
 BYTE   Fn1
 BYTE   W48
 BYTE   Fn1
 BYTE   W48
 BYTE   PEND 
 BYTE   PATT
  POIN2 DestinedFate_Label_4_010680
// 015   ----------------------------------------
DestinedFate_Label_4_011940:
 BYTE   N21  Fn1  v100
 BYTE   W48
 BYTE   Fn1
 BYTE   W48
 BYTE   PEND 
// 016   ----------------------------------------
DestinedFate_Label_4_0120C0:
 BYTE   N21  Fn1  v100
 BYTE   W24
 BYTE   Fn1
 BYTE   W24
 BYTE   Fn1
 BYTE   W24
 BYTE   Fn1
 BYTE   W48
 BYTE   PEND 
 BYTE   PATT
  POIN2 DestinedFate_Label_4_011940
// 017   ----------------------------------------
DestinedFate_Label_4_0131A0:
 BYTE   N21  Fn1  v100
 BYTE   W24
 BYTE   Fn1
 BYTE   W24
 BYTE   Fn1
 BYTE   W48
 BYTE   PEND 
 BYTE   PATT
  POIN2 DestinedFate_Label_4_011940
// 018   ----------------------------------------
 BYTE   N21  Fn1  v100
 BYTE   W96
 BYTE   W96
 BYTE   W24
// 019   ----------------------------------------
DestinedFate_Label_4_015180:
 BYTE   N21  Fn1  v100
 BYTE   W72
 BYTE   N10
 BYTE   W12
 BYTE   Fn1
 BYTE   W12
 BYTE   PEND 
 BYTE   PATT
  POIN2 DestinedFate_Label_4_015180
// 020   ----------------------------------------
 BYTE   N21  Fn1  v100
 BYTE   W96
 BYTE   PATT
  POIN2 DestinedFate_Label_4_FF00
// 021   ----------------------------------------
DestinedFate_Label_4_016F80:
 BYTE   N42  Fn1  v100
 BYTE   W02
 BYTE   N01
 BYTE   W96
 BYTE   W96
 BYTE   W96
 BYTE   W44
 BYTE   W01
 BYTE   PEND 
 BYTE   PATT
  POIN2 DestinedFate_Label_4_21C0
 BYTE   PATT
  POIN2 DestinedFate_Label_4_2B20
 BYTE   PATT
  POIN2 DestinedFate_Label_4_3480
 BYTE   PATT
  POIN2 DestinedFate_Label_4_3C00
 BYTE   PATT
  POIN2 DestinedFate_Label_4_3480
 BYTE   PATT
  POIN2 DestinedFate_Label_4_4B00
 BYTE   PATT
  POIN2 DestinedFate_Label_4_3480
 BYTE   PATT
  POIN2 DestinedFate_Label_4_3C00
 BYTE   PATT
  POIN2 DestinedFate_Label_4_6180
 BYTE   PATT
  POIN2 DestinedFate_Label_4_6CC0
 BYTE   PATT
  POIN2 DestinedFate_Label_4_7440
 BYTE   PATT
  POIN2 DestinedFate_Label_4_7BC0
 BYTE   PATT
  POIN2 DestinedFate_Label_4_8520
 BYTE   PATT
  POIN2 DestinedFate_Label_4_8520
 BYTE   PATT
  POIN2 DestinedFate_Label_4_8520
 BYTE   PATT
  POIN2 DestinedFate_Label_4_8520
 BYTE   PATT
  POIN2 DestinedFate_Label_4_2B20
 BYTE   PATT
  POIN2 DestinedFate_Label_4_3480
 BYTE   PATT
  POIN2 DestinedFate_Label_4_3C00
 BYTE   PATT
  POIN2 DestinedFate_Label_4_3480
 BYTE   PATT
  POIN2 DestinedFate_Label_4_4B00
 BYTE   PATT
  POIN2 DestinedFate_Label_4_3480
 BYTE   PATT
  POIN2 DestinedFate_Label_4_3C00
 BYTE   PATT
  POIN2 DestinedFate_Label_4_6180
 BYTE   PATT
  POIN2 DestinedFate_Label_4_6CC0
 BYTE   PATT
  POIN2 DestinedFate_Label_4_7440
 BYTE   PATT
  POIN2 DestinedFate_Label_4_F3C0
 BYTE   PATT
  POIN2 DestinedFate_Label_4_FF00
 BYTE   PATT
  POIN2 DestinedFate_Label_4_010680
 BYTE   PATT
  POIN2 DestinedFate_Label_4_010680
 BYTE   PATT
  POIN2 DestinedFate_Label_4_011940
 BYTE   PATT
  POIN2 DestinedFate_Label_4_0120C0
 BYTE   PATT
  POIN2 DestinedFate_Label_4_011940
 BYTE   PATT
  POIN2 DestinedFate_Label_4_0131A0
 BYTE   PATT
  POIN2 DestinedFate_Label_4_011940
// 022   ----------------------------------------
 BYTE   N21  Fn1  v100
 BYTE   W96
 BYTE   W96
 BYTE   W24
 BYTE   PATT
  POIN2 DestinedFate_Label_4_015180
 BYTE   PATT
  POIN2 DestinedFate_Label_4_015180
// 023   ----------------------------------------
 BYTE   N21  Fn1  v100
 BYTE   W96
 BYTE   PATT
  POIN2 DestinedFate_Label_4_FF00
 BYTE   PATT
  POIN2 DestinedFate_Label_4_016F80
// 024   ----------------------------------------
 BYTE   N03  Fn1  v100
 BYTE   W04
 BYTE   Fn1
 BYTE   W04
 BYTE   Fn1
 BYTE   W04
 BYTE   Fn1
 BYTE   W04
 BYTE   Fn1
 BYTE   W04
 BYTE   Fn1
 BYTE   W04
 BYTE   Fn1
 BYTE   W04
 BYTE   Fn1
 BYTE   W04
 BYTE   Fn1
 BYTE   W04
 BYTE   Fn1
 BYTE   W04
 BYTE   Fn1
 BYTE   W04
 BYTE   Fn1
 BYTE   W30
 BYTE   GoTo
  POIN2 DestinedFate_Label_4_00
 BYTE   FINE

//******************************************************//
	ALIGN 4

songDestinedFate:
	BYTE	5	// NumTrks
	BYTE	0	// NumBlks
	BYTE	DestinedFate_pri	// Priority
	BYTE	DestinedFate_rev	// Reverb.
    
	POIN2	DestinedFate_grp
    
	POIN2	DestinedFate_001
	POIN2	DestinedFate_002
	POIN2	DestinedFate_003
	POIN2	DestinedFate_004
	POIN2	DestinedFate_005

	
