//Event file generated from Sappy .s format.
	#include "MPlayDef.event"

	#define	songDropEm_grp  voicegroup000
	#define	songDropEm_pri  0
	#define	songDropEm_rev  0
	#define	songDropEm_mvl  127
	#define	songDropEm_key  0
	#define	songDropEm_tbs  1
	#define	songDropEm_exg  0
	#define	songDropEm_cmp  1

	// .rodata
	//	songDropEm
	ALIGN 4


//**************** Track 1 (Midi-Chn.0) ****************//

songDropEm_001:
// 000   ----------------------------------------
 BYTE   VOL   80*songDropEm_mvl/mxv
 BYTE   KEYSH   songDropEm_key+0
Label_0_012C7194:
 BYTE   TEMPO   160*songDropEm_tbs/2
 BYTE   VOICE   61
 BYTE   N24  As2  v064
 BYTE   W24
 BYTE   N06  Ds3
 BYTE   W12
 BYTE   N48  Fn3
 BYTE   W60
// 001   ----------------------------------------
 BYTE   N72  Ds3
 BYTE   W72
 BYTE   N06  Cs3
 BYTE   W06
 BYTE   Cn3
 BYTE   W18
// 002   ----------------------------------------
 BYTE   N72  Cs3
 BYTE   W72
 BYTE   N06
 BYTE   W06
 BYTE   Cn3
 BYTE   W18
// 003   ----------------------------------------
 BYTE   N48  Cs4
 BYTE   W48
 BYTE   N12  Cn4
 BYTE   W12
 BYTE   As3
 BYTE   W12
 BYTE   Gs3
 BYTE   W24
// 004   ----------------------------------------
 BYTE   N48  Ds3
 BYTE   W48
 BYTE   Fn3
 BYTE   W48
// 005   ----------------------------------------
 BYTE   Gn3
 BYTE   W48
 BYTE   Gs3
 BYTE   W48
// 006   ----------------------------------------
 BYTE   N24  As2
 BYTE   W24
 BYTE   N06  Ds3
 BYTE   W12
 BYTE   N48  Fn3
 BYTE   W60
// 007   ----------------------------------------
 BYTE   N72  As3
 BYTE   W72
 BYTE   N06  Gn3
 BYTE   W06
 BYTE   Gs3
 BYTE   W18
// 008   ----------------------------------------
 BYTE   N72  Cs3
 BYTE   W72
 BYTE   N06  Cn3
 BYTE   W06
 BYTE   Cs3
 BYTE   W18
// 009   ----------------------------------------
 BYTE   N48  Gs3
 BYTE   W48
 BYTE   N12  As3
 BYTE   W12
 BYTE   Cn4
 BYTE   W12
 BYTE   Cs4
 BYTE   W24
// 010   ----------------------------------------
 BYTE   N48
 BYTE   W48
 BYTE   Cn4
 BYTE   W48
// 011   ----------------------------------------
 BYTE   As3
 BYTE   W48
 BYTE   Gs3
 BYTE   W48
// 012   ----------------------------------------
 BYTE   GoTo
  POIN2 Label_0_012C7194
 BYTE   FINE

//**************** Track 2 (Midi-Chn.1) ****************//

songDropEm_002:
// 000   ----------------------------------------
 BYTE   VOL   80*songDropEm_mvl/mxv
 BYTE   KEYSH   songDropEm_key+0
Label_1_012C68B4:
 BYTE   VOICE   106
 BYTE   N24  Cs3  v064
 BYTE   W24
 BYTE   N06  Gn3
 BYTE   W12
 BYTE   N48  Gs3
 BYTE   W60
// 001   ----------------------------------------
Label_1_012C68C0:
 BYTE   N72  Gn3  v064
 BYTE   W72
 BYTE   N06  Fn3
 BYTE   W06
 BYTE   Ds3
 BYTE   W18
 BYTE   PEND 
// 002   ----------------------------------------
Label_1_012C68CA:
 BYTE   N72  Fn3  v064
 BYTE   W72
 BYTE   N06
 BYTE   W06
 BYTE   Ds3
 BYTE   W18
 BYTE   PEND 
 BYTE   PATT
  POIN2 Label_1_012C68CA
// 003   ----------------------------------------
Label_1_012C68D8:
 BYTE   N48  Gn3  v064
 BYTE   W48
 BYTE   Gs3
 BYTE   W48
 BYTE   PEND 
// 004   ----------------------------------------
Label_1_012C68DF:
 BYTE   N48  As3  v064
 BYTE   W48
 BYTE   Cn4
 BYTE   W48
 BYTE   PEND 
// 005   ----------------------------------------
 BYTE   N24  Cs3
 BYTE   W24
 BYTE   N06  Gn3
 BYTE   W12
 BYTE   N48  Gs3
 BYTE   W60
 BYTE   PATT
  POIN2 Label_1_012C68C0
 BYTE   PATT
  POIN2 Label_1_012C68CA
 BYTE   PATT
  POIN2 Label_1_012C68CA
 BYTE   PATT
  POIN2 Label_1_012C68D8
 BYTE   PATT
  POIN2 Label_1_012C68DF
// 006   ----------------------------------------
 BYTE   GoTo
  POIN2 Label_1_012C68B4
 BYTE   FINE

//**************** Track 3 (Midi-Chn.2) ****************//

songDropEm_003:
// 000   ----------------------------------------
 BYTE   VOL   80*songDropEm_mvl/mxv
 BYTE   KEYSH   songDropEm_key+0
Label_2_0145BCEC:
 BYTE   VOICE   36
 BYTE   N12  Ds1  v064
 BYTE   W12
 BYTE   N12
 BYTE   W12
 BYTE   As1
 BYTE   W12
 BYTE   Cs1
 BYTE   W12
 BYTE   Ds1
 BYTE   W12
 BYTE   N12
 BYTE   W12
 BYTE   As1
 BYTE   W12
 BYTE   Cs1
 BYTE   W12
// 001   ----------------------------------------
Label_2_0145BD00:
 BYTE   N12  Gs1  v064
 BYTE   W12
 BYTE   N12
 BYTE   W12
 BYTE   Ds2
 BYTE   W12
 BYTE   Gn1
 BYTE   W12
 BYTE   Gs1
 BYTE   W12
 BYTE   N12
 BYTE   W12
 BYTE   Ds2
 BYTE   W12
 BYTE   Gn1
 BYTE   W12
 BYTE   PEND 
// 002   ----------------------------------------
Label_2_0145BD13:
 BYTE   N12  As1  v064
 BYTE   W12
 BYTE   N12
 BYTE   W12
 BYTE   Fn2
 BYTE   W12
 BYTE   Gs1
 BYTE   W12
 BYTE   As1
 BYTE   W12
 BYTE   N12
 BYTE   W12
 BYTE   Fn2
 BYTE   W12
 BYTE   Gs1
 BYTE   W12
 BYTE   PEND 
 BYTE   PATT
  POIN2 Label_2_0145BD13
// 003   ----------------------------------------
Label_2_0145BD2B:
 BYTE   N12  Gn1  v064
 BYTE   W12
 BYTE   N12
 BYTE   W12
 BYTE   Cs2
 BYTE   W12
 BYTE   Fn1
 BYTE   W12
 BYTE   Gn1
 BYTE   W12
 BYTE   N12
 BYTE   W12
 BYTE   Cs2
 BYTE   W12
 BYTE   Fn1
 BYTE   W12
 BYTE   PEND 
 BYTE   PATT
  POIN2 Label_2_0145BD2B
// 004   ----------------------------------------
 BYTE   N12  Ds1  v064
 BYTE   W12
 BYTE   N12
 BYTE   W12
 BYTE   As1
 BYTE   W12
 BYTE   Cs1
 BYTE   W12
 BYTE   Ds1
 BYTE   W12
 BYTE   N12
 BYTE   W12
 BYTE   As1
 BYTE   W12
 BYTE   Cs1
 BYTE   W12
 BYTE   PATT
  POIN2 Label_2_0145BD00
 BYTE   PATT
  POIN2 Label_2_0145BD13
 BYTE   PATT
  POIN2 Label_2_0145BD13
 BYTE   PATT
  POIN2 Label_2_0145BD2B
 BYTE   PATT
  POIN2 Label_2_0145BD2B
// 005   ----------------------------------------
 BYTE   GoTo
  POIN2 Label_2_0145BCEC
 BYTE   FINE

//**************** Track 4 (Midi-Chn.3) ****************//

songDropEm_004:
// 000   ----------------------------------------
 BYTE   VOL   80*songDropEm_mvl/mxv
 BYTE   KEYSH   songDropEm_key+0
Label_3_012C6914:
 BYTE   VOICE   60
 BYTE   N96  Ds2  v040
 BYTE   N96  Gs2
 BYTE   N96  As2
 BYTE   W96
// 001   ----------------------------------------
Label_3_012C691E:
 BYTE   N96  Gs2  v040
 BYTE   N96  Cn3
 BYTE   N96  Ds3
 BYTE   W96
 BYTE   PEND 
// 002   ----------------------------------------
Label_3_012C6927:
 BYTE   TIE  As2  v040
 BYTE   TIE  Cs3
 BYTE   TIE  Fn3
 BYTE   W96
 BYTE   PEND 
// 003   ----------------------------------------
 BYTE   W96
// 004   ----------------------------------------
 BYTE   EOT
 BYTE   As2  v061
 BYTE   Fn3
Label_3_012C6935:
 BYTE   TIE  Gn2  v040
 BYTE   TIE  As2
 BYTE   TIE  Ds3
 BYTE   W96
 BYTE   PEND 
// 005   ----------------------------------------
 BYTE   W96
// 006   ----------------------------------------
 BYTE   EOT
 BYTE   Gn2  v058
 BYTE   Ds3
 BYTE   N96  Ds2
 BYTE   N96  Gs2
 BYTE   N96  As2
 BYTE   W96
 BYTE   PATT
  POIN2 Label_3_012C691E
 BYTE   PATT
  POIN2 Label_3_012C6927
// 007   ----------------------------------------
 BYTE   W96
// 008   ----------------------------------------
 BYTE   EOT
 BYTE   As2  v061
 BYTE   Fn3
 BYTE   PATT
  POIN2 Label_3_012C6935
// 009   ----------------------------------------
 BYTE   W96
// 010   ----------------------------------------
 BYTE   EOT
 BYTE   Gn2  v058
 BYTE   Ds3
 BYTE   GoTo
  POIN2 Label_3_012C6914
 BYTE   FINE

//**************** Track 5 (Midi-Chn.4) ****************//

songDropEm_005:
// 000   ----------------------------------------
 BYTE   VOL   80*songDropEm_mvl/mxv
 BYTE   KEYSH   songDropEm_key+0
Label_4_0145BD78:
 BYTE   VOICE   127
 BYTE   N24  En1  v064
 BYTE   W24
 BYTE   N24
 BYTE   W24
 BYTE   N06  En1  v040
 BYTE   W06
 BYTE   En1  v048
 BYTE   W06
 BYTE   En1  v052
 BYTE   W06
 BYTE   En1  v056
 BYTE   W06
 BYTE   N12  En1  v064
 BYTE   W12
 BYTE   N12
 BYTE   W12
// 001   ----------------------------------------
Label_4_0145BD93:
 BYTE   N24  En1  v064
 BYTE   W24
 BYTE   N24
 BYTE   W24
 BYTE   N06  En1  v040
 BYTE   W06
 BYTE   En1  v048
 BYTE   W06
 BYTE   En1  v052
 BYTE   W06
 BYTE   En1  v056
 BYTE   W06
 BYTE   N12  En1  v064
 BYTE   W12
 BYTE   N12
 BYTE   W12
 BYTE   PEND 
 BYTE   PATT
  POIN2 Label_4_0145BD93
 BYTE   PATT
  POIN2 Label_4_0145BD93
 BYTE   PATT
  POIN2 Label_4_0145BD93
 BYTE   PATT
  POIN2 Label_4_0145BD93
 BYTE   PATT
  POIN2 Label_4_0145BD93
 BYTE   PATT
  POIN2 Label_4_0145BD93
 BYTE   PATT
  POIN2 Label_4_0145BD93
 BYTE   PATT
  POIN2 Label_4_0145BD93
 BYTE   PATT
  POIN2 Label_4_0145BD93
 BYTE   PATT
  POIN2 Label_4_0145BD93
// 002   ----------------------------------------
 BYTE   GoTo
  POIN2 Label_4_0145BD78
 BYTE   FINE

//******************************************************//
	ALIGN 4

songDropEm:
	BYTE	5	// NumTrks
	BYTE	0	// NumBlks
	BYTE	songDropEm_pri	// Priority
	BYTE	songDropEm_rev	// Reverb.
    
	POIN2	songDropEm_grp
    
	POIN2	songDropEm_001
	POIN2	songDropEm_002
	POIN2	songDropEm_003
	POIN2	songDropEm_004
	POIN2	songDropEm_005

	
