//Event file generated from Sappy .s format.
	#include "MPlayDef.event"

	#define	songDryTrail_grp  voicegroup000
	#define	songDryTrail_pri  0
	#define	songDryTrail_rev  0
	#define	songDryTrail_mvl  127
	#define	songDryTrail_key  0
	#define	songDryTrail_tbs  1
	#define	songDryTrail_exg  0
	#define	songDryTrail_cmp  1

	// .rodata
	//	songDryTrail
	ALIGN 4


//**************** Track 1 (Midi-Chn.0) ****************//

songDryTrail_001:
// 000   ----------------------------------------
 BYTE   KEYSH   songDryTrail_key+0
Label_0_0102575A:
 BYTE   TEMPO   120*songDryTrail_tbs/2
 BYTE   VOICE   46
 BYTE   VOL   10*songDryTrail_mvl/mxv
 BYTE   MODT 0
 BYTE   CnM2
 BYTE   LFOS 0
 BYTE   Gs1
 BYTE   VOL   39*songDryTrail_mvl/mxv
 BYTE   PAN   c_v+0
 BYTE   VOL   39*songDryTrail_mvl/mxv
 BYTE   N12  An3  v127
 BYTE   W12
 BYTE   An4
 BYTE   W12
 BYTE   En4
 BYTE   W48
 BYTE   An3
 BYTE   W12
 BYTE   Cn4
 BYTE   W12
// 001   ----------------------------------------
Label_0_01025776:
 BYTE   N12  Dn4  v127
 BYTE   W48
 BYTE   Gn3
 BYTE   W12
 BYTE   Gn4
 BYTE   W12
 BYTE   Dn4
 BYTE   W12
 BYTE   Cn4
 BYTE   W12
 BYTE   PEND 
// 002   ----------------------------------------
Label_0_01025783:
 BYTE   N12  Dn4  v127
 BYTE   W12
 BYTE   Bn3
 BYTE   W12
 BYTE   Cn4
 BYTE   W12
 BYTE   An3
 BYTE   W12
 BYTE   Bn3
 BYTE   W12
 BYTE   Gn3
 BYTE   W36
 BYTE   PEND 
// 003   ----------------------------------------
Label_0_01025792:
 BYTE   N12  An3  v127
 BYTE   W12
 BYTE   An4
 BYTE   W12
 BYTE   En4
 BYTE   W48
 BYTE   An3
 BYTE   W12
 BYTE   Cn4
 BYTE   W12
 BYTE   PEND 
 BYTE   PATT
  POIN2 Label_0_01025776
// 004   ----------------------------------------
Label_0_010257A4:
 BYTE   N12  Dn4  v127
 BYTE   W12
 BYTE   Bn3
 BYTE   W12
 BYTE   Cn4
 BYTE   W12
 BYTE   An3
 BYTE   W12
 BYTE   Bn3
 BYTE   W12
 BYTE   Gn3
 BYTE   W12
 BYTE   An3
 BYTE   W24
 BYTE   PEND 
 BYTE   PATT
  POIN2 Label_0_01025792
// 005   ----------------------------------------
Label_0_010257BA:
 BYTE   N12  Dn4  v127
 BYTE   W48
 BYTE   An3
 BYTE   W12
 BYTE   An4
 BYTE   W12
 BYTE   En4
 BYTE   W12
 BYTE   Dn4
 BYTE   W12
 BYTE   PEND 
// 006   ----------------------------------------
Label_0_010257C7:
 BYTE   N12  En4  v127
 BYTE   W12
 BYTE   Cn4
 BYTE   W12
 BYTE   Dn4
 BYTE   W12
 BYTE   Bn3
 BYTE   W12
 BYTE   Cn4
 BYTE   W12
 BYTE   An3
 BYTE   W12
 BYTE   En3
 BYTE   W24
 BYTE   PEND 
// 007   ----------------------------------------
Label_0_010257D8:
 BYTE   N12  Fn3  v127
 BYTE   W12
 BYTE   Fn4
 BYTE   W12
 BYTE   Cn4
 BYTE   W48
 BYTE   Gn3
 BYTE   W12
 BYTE   Cn4
 BYTE   W12
 BYTE   PEND 
 BYTE   PATT
  POIN2 Label_0_01025776
 BYTE   PATT
  POIN2 Label_0_010257A4
 BYTE   PATT
  POIN2 Label_0_01025792
 BYTE   PATT
  POIN2 Label_0_01025776
 BYTE   PATT
  POIN2 Label_0_01025783
 BYTE   PATT
  POIN2 Label_0_01025792
 BYTE   PATT
  POIN2 Label_0_01025776
 BYTE   PATT
  POIN2 Label_0_010257A4
 BYTE   PATT
  POIN2 Label_0_01025792
 BYTE   PATT
  POIN2 Label_0_010257BA
 BYTE   PATT
  POIN2 Label_0_010257C7
// 008   ----------------------------------------
 BYTE   N12  Fn3  v127
 BYTE   W12
 BYTE   Fn4
 BYTE   W12
 BYTE   Cn4
 BYTE   W48
 BYTE   Fn3
 BYTE   W12
 BYTE   An3
 BYTE   W12
// 009   ----------------------------------------
 BYTE   Cn4
 BYTE   W48
 BYTE   Gn3
 BYTE   W12
 BYTE   Gn4
 BYTE   W12
 BYTE   Dn4
 BYTE   W12
 BYTE   Cn4
 BYTE   W12
 BYTE   PATT
  POIN2 Label_0_010257A4
 BYTE   PATT
  POIN2 Label_0_01025792
 BYTE   PATT
  POIN2 Label_0_01025776
 BYTE   PATT
  POIN2 Label_0_01025783
 BYTE   PATT
  POIN2 Label_0_01025792
 BYTE   PATT
  POIN2 Label_0_01025776
 BYTE   PATT
  POIN2 Label_0_010257A4
 BYTE   PATT
  POIN2 Label_0_01025792
 BYTE   PATT
  POIN2 Label_0_010257BA
 BYTE   PATT
  POIN2 Label_0_010257C7
 BYTE   PATT
  POIN2 Label_0_010257D8
 BYTE   PATT
  POIN2 Label_0_01025776
 BYTE   PATT
  POIN2 Label_0_010257A4
// 010   ----------------------------------------
Label_0_01025873:
 BYTE   N12  An3  v127
 BYTE   W12
 BYTE   Bn3
 BYTE   W12
 BYTE   Cn4
 BYTE   W48
 BYTE   An3
 BYTE   W12
 BYTE   Cn4
 BYTE   W12
 BYTE   PEND 
// 011   ----------------------------------------
Label_0_01025880:
 BYTE   N12  Dn4  v127
 BYTE   W48
 BYTE   An3
 BYTE   W12
 BYTE   Dn4
 BYTE   W12
 BYTE   En4
 BYTE   W24
 BYTE   PEND 
// 012   ----------------------------------------
 BYTE   W24
 BYTE   Gn3
 BYTE   W12
 BYTE   Dn4
 BYTE   W12
 BYTE   Cn4
 BYTE   W48
 BYTE   PATT
  POIN2 Label_0_01025873
// 013   ----------------------------------------
 BYTE   N12  Dn4  v127
 BYTE   W48
 BYTE   Gn3
 BYTE   W12
 BYTE   Dn4
 BYTE   W36
// 014   ----------------------------------------
 BYTE   Gn3
 BYTE   W12
 BYTE   Dn4
 BYTE   W12
 BYTE   Gn3
 BYTE   W12
 BYTE   Cn4
 BYTE   W60
 BYTE   PATT
  POIN2 Label_0_01025873
 BYTE   PATT
  POIN2 Label_0_01025880
// 015   ----------------------------------------
 BYTE   N12  An3  v127
 BYTE   W12
 BYTE   Dn4
 BYTE   W24
 BYTE   Cn4
 BYTE   W60
// 016   ----------------------------------------
 BYTE   Fn3
 BYTE   W12
 BYTE   An3
 BYTE   W12
 BYTE   Cn4
 BYTE   W48
 BYTE   An3
 BYTE   W12
 BYTE   Cn4
 BYTE   W12
// 017   ----------------------------------------
 BYTE   Fn4
 BYTE   W48
 BYTE   An3
 BYTE   W12
 BYTE   Cn4
 BYTE   W12
 BYTE   Dn4
 BYTE   W24
// 018   ----------------------------------------
 BYTE   Gn3
 BYTE   W12
 BYTE   Gn4
 BYTE   W12
 BYTE   VOL   39*songDryTrail_mvl/mxv
 BYTE   W56
 BYTE   GoTo
  POIN2 Label_0_0102575A
// 019   ----------------------------------------
 BYTE   W04
 BYTE   FINE

//**************** Track 2 (Midi-Chn.1) ****************//

songDryTrail_002:
// 000   ----------------------------------------
 BYTE   KEYSH   songDryTrail_key+0
Label_1_010258DE:
 BYTE   VOICE   52
 BYTE   VOL   15*songDryTrail_mvl/mxv
 BYTE   MODT 0
 BYTE   CnM2
 BYTE   LFOS 0
 BYTE   Gs1
 BYTE   VOL   44*songDryTrail_mvl/mxv
 BYTE   PAN   c_v+0
 BYTE   VOL   15*songDryTrail_mvl/mxv
 BYTE   MODT 0
 BYTE   CnM2
 BYTE   LFOS 0
 BYTE   Gs1
 BYTE   VOL   44*songDryTrail_mvl/mxv
 BYTE   PAN   c_v+0
 BYTE   VOL   15*songDryTrail_mvl/mxv
 BYTE   MODT 0
 BYTE   CnM2
 BYTE   LFOS 0
 BYTE   Gs1
 BYTE   VOL   44*songDryTrail_mvl/mxv
 BYTE   PAN   c_v+0
 BYTE   VOL   44*songDryTrail_mvl/mxv
 BYTE   W12
 BYTE   N12  An2  v127
 BYTE   N12  Cn3
 BYTE   N12  En3
 BYTE   W72
 BYTE   Fn2
 BYTE   N12  An2
 BYTE   N12  Cn3
 BYTE   W12
// 001   ----------------------------------------
Label_1_0102590F:
 BYTE   W60
 BYTE   N12  Gn2  v127
 BYTE   N12  Bn2
 BYTE   N12  Dn3
 BYTE   W36
 BYTE   PEND 
// 002   ----------------------------------------
Label_1_01025919:
 BYTE   W36
 BYTE   N12  Gn2  v127
 BYTE   N12  Bn2
 BYTE   N12  Dn3
 BYTE   W24
 BYTE   Gn2
 BYTE   N12  Bn2
 BYTE   N12  Dn3
 BYTE   W36
 BYTE   PEND 
// 003   ----------------------------------------
Label_1_01025929:
 BYTE   W12
 BYTE   N12  An2  v127
 BYTE   N12  Cn3
 BYTE   N12  En3
 BYTE   W72
 BYTE   Fn2
 BYTE   N12  An2
 BYTE   N12  Cn3
 BYTE   W12
 BYTE   PEND 
 BYTE   PATT
  POIN2 Label_1_0102590F
 BYTE   PATT
  POIN2 Label_1_01025919
// 004   ----------------------------------------
Label_1_01025943:
 BYTE   W12
 BYTE   N12  Fn2  v127
 BYTE   N12  An2
 BYTE   N12  Cn3
 BYTE   W72
 BYTE   Gn2
 BYTE   N12  Bn2
 BYTE   N12  Dn3
 BYTE   W12
 BYTE   PEND 
// 005   ----------------------------------------
Label_1_01025953:
 BYTE   W60
 BYTE   N12  An2  v127
 BYTE   N12  Cn3
 BYTE   N12  En3
 BYTE   W36
 BYTE   PEND 
// 006   ----------------------------------------
Label_1_0102595D:
 BYTE   W36
 BYTE   N12  Gn2  v127
 BYTE   N12  Bn2
 BYTE   N12  En3
 BYTE   W24
 BYTE   Gn2
 BYTE   N12  Bn2
 BYTE   N12  En3
 BYTE   W36
 BYTE   PEND 
// 007   ----------------------------------------
Label_1_0102596D:
 BYTE   W12
 BYTE   N12  Fn2  v127
 BYTE   N12  An2
 BYTE   N12  Cn3
 BYTE   W72
 BYTE   N12
 BYTE   N12  En3
 BYTE   N12  Gn3
 BYTE   W12
 BYTE   PEND 
 BYTE   PATT
  POIN2 Label_1_0102590F
// 008   ----------------------------------------
 BYTE   W36
 BYTE   N12  Gn2  v127
 BYTE   N12  Bn2
 BYTE   N12  Dn3
 BYTE   W24
 BYTE   Gn2
 BYTE   N12  Bn2
 BYTE   N12  Dn3
 BYTE   W24
 BYTE   N96  En3
 BYTE   N96  En4
 BYTE   W12
// 009   ----------------------------------------
 BYTE   W84
 BYTE   N24  Dn3
 BYTE   N24  Dn4
 BYTE   W12
// 010   ----------------------------------------
 BYTE   W12
 BYTE   Cn3
 BYTE   N24  Cn4
 BYTE   W24
 BYTE   N72  Bn2
 BYTE   N72  Bn3
 BYTE   W60
// 011   ----------------------------------------
 BYTE   W12
 BYTE   Gn2
 BYTE   N72  Gn3
 BYTE   W72
 BYTE   N24  An2
 BYTE   N24  An3
 BYTE   W12
// 012   ----------------------------------------
 BYTE   W12
 BYTE   Bn2
 BYTE   N24  Bn3
 BYTE   W24
 BYTE   Cn3
 BYTE   N24  Cn4
 BYTE   W24
 BYTE   N48  Bn2
 BYTE   N48  Bn3
 BYTE   W36
// 013   ----------------------------------------
 BYTE   W12
 BYTE   N24  Cn3
 BYTE   N24  Cn4
 BYTE   W24
 BYTE   N72  Dn3
 BYTE   N72  Dn4
 BYTE   W60
// 014   ----------------------------------------
 BYTE   W12
 BYTE   Gn2
 BYTE   N68  Gn3
 BYTE   W72
 BYTE   N96
 BYTE   N96  Gn4
 BYTE   W12
// 015   ----------------------------------------
 BYTE   W84
 BYTE   N24  Fn3
 BYTE   N24  Fn4
 BYTE   W12
// 016   ----------------------------------------
 BYTE   W12
 BYTE   En3
 BYTE   N24  En4
 BYTE   W24
 BYTE   Dn3
 BYTE   N24  Dn4
 BYTE   W24
 BYTE   En3
 BYTE   N24  En4
 BYTE   W24
 BYTE   Cn3
 BYTE   N24  Cn4
 BYTE   W12
// 017   ----------------------------------------
 BYTE   W12
 BYTE   N48  Bn2
 BYTE   N48  Bn3
 BYTE   W48
 BYTE   N24  Gn2
 BYTE   N24  Gn3
 BYTE   W24
 BYTE   N96  An2
 BYTE   N96  An3
 BYTE   W12
// 018   ----------------------------------------
 BYTE   W84
 BYTE   N24  Bn2
 BYTE   N24  Bn3
 BYTE   W12
// 019   ----------------------------------------
 BYTE   W12
 BYTE   Cn3
 BYTE   N24  Cn4
 BYTE   W24
 BYTE   N96  Dn3
 BYTE   N96  Dn4
 BYTE   W60
// 020   ----------------------------------------
 BYTE   W36
 BYTE   N12  Cn3
 BYTE   N12  Cn4
 BYTE   W12
 BYTE   Bn2
 BYTE   N12  Bn3
 BYTE   W12
 BYTE   An2
 BYTE   N12  An3
 BYTE   W12
 BYTE   Gn2
 BYTE   N12  Gn3
 BYTE   W24
 BYTE   PATT
  POIN2 Label_1_01025929
 BYTE   PATT
  POIN2 Label_1_0102590F
 BYTE   PATT
  POIN2 Label_1_01025919
 BYTE   PATT
  POIN2 Label_1_01025929
 BYTE   PATT
  POIN2 Label_1_0102590F
 BYTE   PATT
  POIN2 Label_1_01025919
 BYTE   PATT
  POIN2 Label_1_01025943
 BYTE   PATT
  POIN2 Label_1_01025953
 BYTE   PATT
  POIN2 Label_1_0102595D
 BYTE   PATT
  POIN2 Label_1_0102596D
 BYTE   PATT
  POIN2 Label_1_0102590F
// 021   ----------------------------------------
 BYTE   W36
 BYTE   N12  Gn2  v127
 BYTE   N12  Bn2
 BYTE   N12  Dn3
 BYTE   W24
 BYTE   Gn2
 BYTE   N12  Bn2
 BYTE   N12  Dn3
 BYTE   W24
 BYTE   An2
 BYTE   N12  Cn3
 BYTE   W12
// 022   ----------------------------------------
Label_1_01025A65:
 BYTE   W12
 BYTE   N12  An2  v127
 BYTE   N12  Cn3
 BYTE   W24
 BYTE   An2
 BYTE   N12  Cn3
 BYTE   W24
 BYTE   Bn2
 BYTE   N12  Dn3
 BYTE   W24
 BYTE   Bn2
 BYTE   N12  Dn3
 BYTE   W12
 BYTE   PEND 
// 023   ----------------------------------------
Label_1_01025A79:
 BYTE   W12
 BYTE   N12  Bn2  v127
 BYTE   N12  Dn3
 BYTE   W24
 BYTE   Cn3
 BYTE   N12  En3
 BYTE   W24
 BYTE   Cn3
 BYTE   N12  En3
 BYTE   W24
 BYTE   Cn3
 BYTE   N12  En3
 BYTE   W12
 BYTE   PEND 
// 024   ----------------------------------------
Label_1_01025A8D:
 BYTE   W12
 BYTE   N12  Cn3  v127
 BYTE   N12  En3
 BYTE   W24
 BYTE   Cn3
 BYTE   N12  En3
 BYTE   W24
 BYTE   Cn3
 BYTE   N12  En3
 BYTE   W24
 BYTE   An2
 BYTE   N12  Cn3
 BYTE   W12
 BYTE   PEND 
 BYTE   PATT
  POIN2 Label_1_01025A65
 BYTE   PATT
  POIN2 Label_1_01025A79
 BYTE   PATT
  POIN2 Label_1_01025A8D
 BYTE   PATT
  POIN2 Label_1_01025A65
 BYTE   PATT
  POIN2 Label_1_01025A79
 BYTE   PATT
  POIN2 Label_1_01025A8D
// 025   ----------------------------------------
 BYTE   W12
 BYTE   N12  An2  v127
 BYTE   N12  Cn3
 BYTE   W24
 BYTE   An2
 BYTE   N12  Cn3
 BYTE   W24
 BYTE   An2
 BYTE   N12  Cn3
 BYTE   W24
 BYTE   An2
 BYTE   N12  Cn3
 BYTE   W12
// 026   ----------------------------------------
 BYTE   W12
 BYTE   An2
 BYTE   N12  Cn3
 BYTE   W24
 BYTE   Bn2
 BYTE   N12  Dn3
 BYTE   W24
 BYTE   Bn2
 BYTE   N12  Dn3
 BYTE   W24
 BYTE   Bn2
 BYTE   N12  Dn3
 BYTE   W12
// 027   ----------------------------------------
 BYTE   W12
 BYTE   Bn2
 BYTE   N12  Dn3
 BYTE   W24
 BYTE   Bn2
 BYTE   N12  Dn3
 BYTE   W24
 BYTE   Bn2
 BYTE   N12  Dn3
 BYTE   W12
 BYTE   VOL   44*songDryTrail_mvl/mxv
 BYTE   W08
 BYTE   GoTo
  POIN2 Label_1_010258DE
// 028   ----------------------------------------
 BYTE   W04
 BYTE   FINE

//**************** Track 3 (Midi-Chn.2) ****************//

songDryTrail_003:
// 000   ----------------------------------------
 BYTE   KEYSH   songDryTrail_key+0
Label_2_01025AFE:
 BYTE   VOICE   54
 BYTE   VOL   15*songDryTrail_mvl/mxv
 BYTE   MODT 0
 BYTE   CnM2
 BYTE   LFOS 0
 BYTE   Gs1
 BYTE   VOL   36*songDryTrail_mvl/mxv
 BYTE   PAN   c_v+0
 BYTE   VOL   15*songDryTrail_mvl/mxv
 BYTE   MODT 0
 BYTE   CnM2
 BYTE   LFOS 0
 BYTE   Gs1
 BYTE   VOL   36*songDryTrail_mvl/mxv
 BYTE   PAN   c_v+0
 BYTE   VOL   15*songDryTrail_mvl/mxv
 BYTE   MODT 0
 BYTE   CnM2
 BYTE   LFOS 0
 BYTE   Gs1
 BYTE   VOL   36*songDryTrail_mvl/mxv
 BYTE   PAN   c_v+0
 BYTE   VOL   36*songDryTrail_mvl/mxv
 BYTE   W60
 BYTE   N72  Fn2  v127
 BYTE   N72  An2
 BYTE   N72  Cn3
 BYTE   W36
// 001   ----------------------------------------
Label_2_01025B29:
 BYTE   W36
 BYTE   N68  Gn2  v127
 BYTE   N68  Bn2
 BYTE   N72  Dn3
 BYTE   W60
 BYTE   PEND 
// 002   ----------------------------------------
Label_2_01025B33:
 BYTE   W12
 BYTE   N72  Dn2  v127
 BYTE   N72  Gn2
 BYTE   N72  Bn2
 BYTE   W72
 BYTE   Cn2
 BYTE   N72  En2
 BYTE   N68  An2
 BYTE   W12
 BYTE   PEND 
// 003   ----------------------------------------
Label_2_01025B43:
 BYTE   W60
 BYTE   N72  Fn2  v127
 BYTE   N72  An2
 BYTE   N72  Cn3
 BYTE   W36
 BYTE   PEND 
 BYTE   PATT
  POIN2 Label_2_01025B29
// 004   ----------------------------------------
Label_2_01025B52:
 BYTE   W12
 BYTE   N72  Dn2  v127
 BYTE   N72  Gn2
 BYTE   N72  Bn2
 BYTE   W72
 BYTE   Fn2
 BYTE   N72  An2
 BYTE   N72  Cn3
 BYTE   W12
 BYTE   PEND 
// 005   ----------------------------------------
Label_2_01025B62:
 BYTE   W60
 BYTE   N72  Gn2  v127
 BYTE   N72  Bn2
 BYTE   N72  Dn3
 BYTE   W36
 BYTE   PEND 
// 006   ----------------------------------------
Label_2_01025B6C:
 BYTE   W36
 BYTE   N72  An2  v127
 BYTE   N72  Cn3
 BYTE   N68  En3
 BYTE   W60
 BYTE   PEND 
// 007   ----------------------------------------
Label_2_01025B76:
 BYTE   W12
 BYTE   N72  Gn2  v127
 BYTE   N72  Bn2
 BYTE   N72  En3
 BYTE   W72
 BYTE   An2
 BYTE   N68  Cn3
 BYTE   N72  Fn3
 BYTE   W12
 BYTE   PEND 
// 008   ----------------------------------------
Label_2_01025B86:
 BYTE   W60
 BYTE   N72  Gn2  v127
 BYTE   N72  Cn3
 BYTE   N72  En3
 BYTE   W36
 BYTE   PEND 
// 009   ----------------------------------------
Label_2_01025B90:
 BYTE   W36
 BYTE   N68  Gn2  v127
 BYTE   N68  Bn2
 BYTE   N68  Dn3
 BYTE   W60
 BYTE   PEND 
// 010   ----------------------------------------
 BYTE   W12
 BYTE   N72  Gn2
 BYTE   N72  Bn2
 BYTE   N72  Dn3
 BYTE   W72
 BYTE   Cn2
 BYTE   N72  En2
 BYTE   N68  An2
 BYTE   W12
 BYTE   PATT
  POIN2 Label_2_01025B43
 BYTE   PATT
  POIN2 Label_2_01025B29
 BYTE   PATT
  POIN2 Label_2_01025B33
 BYTE   PATT
  POIN2 Label_2_01025B43
 BYTE   PATT
  POIN2 Label_2_01025B29
// 011   ----------------------------------------
 BYTE   W12
 BYTE   N72  Dn2  v127
 BYTE   N68  Gn2
 BYTE   N72  Bn2
 BYTE   W72
 BYTE   En2
 BYTE   N68  Gn2
 BYTE   N72  Cn3
 BYTE   W12
 BYTE   PATT
  POIN2 Label_2_01025B62
 BYTE   PATT
  POIN2 Label_2_01025B6C
// 012   ----------------------------------------
 BYTE   W12
 BYTE   N72  Gn2  v127
 BYTE   N72  Bn2
 BYTE   N72  En3
 BYTE   W72
 BYTE   N68  An2
 BYTE   N68  Cn3
 BYTE   N68  Fn3
 BYTE   W12
// 013   ----------------------------------------
 BYTE   W60
 BYTE   N72  An2
 BYTE   N72  Cn3
 BYTE   N72  Fn3
 BYTE   W36
// 014   ----------------------------------------
 BYTE   W36
 BYTE   N68  Bn2
 BYTE   N68  Dn3
 BYTE   N68  Gn3
 BYTE   W60
// 015   ----------------------------------------
 BYTE   W12
 BYTE   N72  Bn2
 BYTE   N72  Dn3
 BYTE   N72  Gn3
 BYTE   W72
 BYTE   Cn2
 BYTE   N72  En2
 BYTE   N68  An2
 BYTE   W12
 BYTE   PATT
  POIN2 Label_2_01025B43
 BYTE   PATT
  POIN2 Label_2_01025B29
 BYTE   PATT
  POIN2 Label_2_01025B33
 BYTE   PATT
  POIN2 Label_2_01025B43
 BYTE   PATT
  POIN2 Label_2_01025B29
 BYTE   PATT
  POIN2 Label_2_01025B52
 BYTE   PATT
  POIN2 Label_2_01025B62
 BYTE   PATT
  POIN2 Label_2_01025B6C
 BYTE   PATT
  POIN2 Label_2_01025B76
 BYTE   PATT
  POIN2 Label_2_01025B86
 BYTE   PATT
  POIN2 Label_2_01025B90
// 016   ----------------------------------------
 BYTE   W12
 BYTE   N72  Gn2  v127
 BYTE   N72  Bn2
 BYTE   N72  Dn3
 BYTE   W72
 BYTE   En3
 BYTE   N68  Gn3
 BYTE   N72  Cn4
 BYTE   W12
// 017   ----------------------------------------
Label_2_01025C4E:
 BYTE   W60
 BYTE   N72  Dn3  v127
 BYTE   N68  Gn3
 BYTE   N72  Bn3
 BYTE   W36
 BYTE   PEND 
// 018   ----------------------------------------
Label_2_01025C58:
 BYTE   W36
 BYTE   N68  En3  v127
 BYTE   N68  Gn3
 BYTE   N68  Cn4
 BYTE   W60
 BYTE   PEND 
// 019   ----------------------------------------
 BYTE   W12
 BYTE   En3
 BYTE   N72  Gn3
 BYTE   N68  Cn4
 BYTE   W72
 BYTE   N72  En3
 BYTE   N72  An3
 BYTE   N72  Cn4
 BYTE   W12
 BYTE   PATT
  POIN2 Label_2_01025C4E
 BYTE   PATT
  POIN2 Label_2_01025C58
// 020   ----------------------------------------
 BYTE   W12
 BYTE   N68  En3  v127
 BYTE   N68  Gn3
 BYTE   N68  Cn4
 BYTE   W72
 BYTE   N72  En3
 BYTE   N68  Gn3
 BYTE   N72  Cn4
 BYTE   W12
 BYTE   PATT
  POIN2 Label_2_01025C4E
 BYTE   PATT
  POIN2 Label_2_01025C58
// 021   ----------------------------------------
 BYTE   W12
 BYTE   N72  En3  v127
 BYTE   N72  Gn3
 BYTE   N68  Cn4
 BYTE   W72
 BYTE   Fn3
 BYTE   N68  An3
 BYTE   N68  Cn4
 BYTE   W12
// 022   ----------------------------------------
 BYTE   W60
 BYTE   N72  Fn3
 BYTE   N72  An3
 BYTE   N72  Cn4
 BYTE   W36
// 023   ----------------------------------------
 BYTE   W36
 BYTE   N68  Gn3
 BYTE   N68  Bn3
 BYTE   N68  Dn4
 BYTE   W60
// 024   ----------------------------------------
 BYTE   W12
 BYTE   N72  Gn3
 BYTE   N72  Bn3
 BYTE   N72  Dn4
 BYTE   W68
 BYTE   GoTo
  POIN2 Label_2_01025AFE
// 025   ----------------------------------------
 BYTE   W04
 BYTE   FINE

//**************** Track 4 (Midi-Chn.3) ****************//

songDryTrail_004:
// 000   ----------------------------------------
 BYTE   KEYSH   songDryTrail_key+0
Label_3_01025CC6:
 BYTE   VOICE   32
 BYTE   VOL   26*songDryTrail_mvl/mxv
 BYTE   MODT 0
 BYTE   CnM2
 BYTE   LFOS 0
 BYTE   Gs1
 BYTE   VOL   55*songDryTrail_mvl/mxv
 BYTE   PAN   c_v+0
 BYTE   VOL   55*songDryTrail_mvl/mxv
 BYTE   W60
 BYTE   N72  Cn2  v127
 BYTE   W36
// 001   ----------------------------------------
 BYTE   W36
 BYTE   Dn2
 BYTE   W60
// 002   ----------------------------------------
Label_3_01025CDC:
 BYTE   W12
 BYTE   N72  Bn1  v127
 BYTE   W72
 BYTE   An1
 BYTE   W12
 BYTE   PEND 
// 003   ----------------------------------------
 BYTE   W60
 BYTE   Cn2
 BYTE   W36
// 004   ----------------------------------------
 BYTE   W36
 BYTE   Dn2
 BYTE   W60
// 005   ----------------------------------------
Label_3_01025CEA:
 BYTE   W12
 BYTE   N72  Bn1  v127
 BYTE   W72
 BYTE   Cn2
 BYTE   W12
 BYTE   PEND 
// 006   ----------------------------------------
 BYTE   W60
 BYTE   Dn2
 BYTE   W36
// 007   ----------------------------------------
 BYTE   W36
 BYTE   En2
 BYTE   W60
// 008   ----------------------------------------
Label_3_01025CF8:
 BYTE   W12
 BYTE   N72  Bn1  v127
 BYTE   W72
 BYTE   Fn2
 BYTE   W12
 BYTE   PEND 
// 009   ----------------------------------------
 BYTE   W60
 BYTE   Gn2
 BYTE   W36
// 010   ----------------------------------------
 BYTE   W36
 BYTE   Gn1
 BYTE   W60
// 011   ----------------------------------------
 BYTE   W12
 BYTE   Gn2
 BYTE   W72
 BYTE   An1
 BYTE   W12
// 012   ----------------------------------------
 BYTE   W60
 BYTE   Cn2
 BYTE   W36
// 013   ----------------------------------------
 BYTE   W36
 BYTE   Dn2
 BYTE   W60
 BYTE   PATT
  POIN2 Label_3_01025CDC
// 014   ----------------------------------------
 BYTE   W60
 BYTE   N72  Cn2  v127
 BYTE   W36
// 015   ----------------------------------------
 BYTE   W36
 BYTE   Dn2
 BYTE   W60
 BYTE   PATT
  POIN2 Label_3_01025CEA
// 016   ----------------------------------------
 BYTE   W60
 BYTE   N72  Dn2  v127
 BYTE   W36
// 017   ----------------------------------------
 BYTE   W36
 BYTE   En2
 BYTE   W60
// 018   ----------------------------------------
 BYTE   W12
 BYTE   Bn1
 BYTE   W72
 BYTE   N48  Cn2
 BYTE   W12
// 019   ----------------------------------------
 BYTE   W36
 BYTE   N24
 BYTE   W24
 BYTE   N72
 BYTE   W36
// 020   ----------------------------------------
 BYTE   W36
 BYTE   Dn2
 BYTE   W60
// 021   ----------------------------------------
 BYTE   W12
 BYTE   N24  Gn2
 BYTE   W24
 BYTE   Dn2
 BYTE   W24
 BYTE   Bn1
 BYTE   W24
 BYTE   N72  An1
 BYTE   W12
// 022   ----------------------------------------
 BYTE   W60
 BYTE   Cn2
 BYTE   W36
// 023   ----------------------------------------
 BYTE   W36
 BYTE   Dn2
 BYTE   W60
 BYTE   PATT
  POIN2 Label_3_01025CDC
// 024   ----------------------------------------
 BYTE   W60
 BYTE   N72  Cn2  v127
 BYTE   W36
// 025   ----------------------------------------
 BYTE   W36
 BYTE   Dn2
 BYTE   W60
 BYTE   PATT
  POIN2 Label_3_01025CEA
// 026   ----------------------------------------
 BYTE   W60
 BYTE   N72  Dn2  v127
 BYTE   W36
// 027   ----------------------------------------
 BYTE   W36
 BYTE   En2
 BYTE   W60
 BYTE   PATT
  POIN2 Label_3_01025CF8
// 028   ----------------------------------------
 BYTE   W60
 BYTE   N72  Gn2  v127
 BYTE   W36
// 029   ----------------------------------------
 BYTE   W36
 BYTE   Gn1
 BYTE   W60
// 030   ----------------------------------------
 BYTE   W12
 BYTE   Gn2
 BYTE   W72
 BYTE   N48  Fn1
 BYTE   W12
// 031   ----------------------------------------
 BYTE   W36
 BYTE   N12  Cn2
 BYTE   W12
 BYTE   Fn1
 BYTE   W12
 BYTE   N24  Gn1
 BYTE   W24
 BYTE   Gn2
 BYTE   W12
// 032   ----------------------------------------
 BYTE   W12
 BYTE   Dn2
 BYTE   W24
 BYTE   N36  Cn2
 BYTE   W36
 BYTE   N12  Gn1
 BYTE   W12
 BYTE   Cn2
 BYTE   W12
// 033   ----------------------------------------
 BYTE   Gn1
 BYTE   W12
 BYTE   N36  Cn2
 BYTE   W36
 BYTE   N12  Gn1
 BYTE   W12
 BYTE   N24  Cn2
 BYTE   W24
 BYTE   N36  Fn1
 BYTE   W12
// 034   ----------------------------------------
 BYTE   W24
 BYTE   N12
 BYTE   W12
 BYTE   N24
 BYTE   W24
 BYTE   Gn1
 BYTE   W24
 BYTE   Gn2
 BYTE   W12
// 035   ----------------------------------------
 BYTE   W12
 BYTE   Dn2
 BYTE   W24
 BYTE   N36  Cn2
 BYTE   W36
 BYTE   N12  Gn1
 BYTE   W12
 BYTE   An1
 BYTE   W12
// 036   ----------------------------------------
 BYTE   Gn1
 BYTE   W12
 BYTE   Cn2
 BYTE   W12
 BYTE   Gn1
 BYTE   W12
 BYTE   An1
 BYTE   W12
 BYTE   N36  Cn2
 BYTE   W36
 BYTE   N24  An1
 BYTE   W12
// 037   ----------------------------------------
 BYTE   W12
 BYTE   Fn1
 BYTE   W24
 BYTE   N12  Cn2
 BYTE   W12
 BYTE   Fn1
 BYTE   W12
 BYTE   N24  Gn1
 BYTE   W24
 BYTE   Gn2
 BYTE   W12
// 038   ----------------------------------------
 BYTE   W12
 BYTE   N12  Dn2
 BYTE   W12
 BYTE   Gn1
 BYTE   W12
 BYTE   N36  Cn2
 BYTE   W36
 BYTE   N12  Gn1
 BYTE   W12
 BYTE   Cn2
 BYTE   W12
// 039   ----------------------------------------
 BYTE   Bn1
 BYTE   W12
 BYTE   N24  An1
 BYTE   W24
 BYTE   An2
 BYTE   W24
 BYTE   N12  En2
 BYTE   W12
 BYTE   Cn2
 BYTE   W12
 BYTE   N36  Fn1
 BYTE   W12
// 040   ----------------------------------------
 BYTE   W24
 BYTE   N12  Fn2
 BYTE   W12
 BYTE   Cn2
 BYTE   W12
 BYTE   An1
 BYTE   W12
 BYTE   N24  Cn2
 BYTE   W24
 BYTE   Fn2
 BYTE   W12
// 041   ----------------------------------------
 BYTE   W12
 BYTE   Cn2
 BYTE   W24
 BYTE   Dn2
 BYTE   W24
 BYTE   N36  Gn2
 BYTE   W36
// 042   ----------------------------------------
 BYTE   N12  Dn2
 BYTE   W12
 BYTE   Gn2
 BYTE   W12
 BYTE   Dn2
 BYTE   W12
 BYTE   N48  Gn2
 BYTE   W44
 BYTE   GoTo
  POIN2 Label_3_01025CC6
// 043   ----------------------------------------
 BYTE   W04
 BYTE   FINE

//**************** Track 5 (Midi-Chn.4) ****************//

songDryTrail_005:
// 000   ----------------------------------------
 BYTE   KEYSH   songDryTrail_key+0
Label_4_01025E12:
 BYTE   VOICE   47
 BYTE   VOL   10*songDryTrail_mvl/mxv
 BYTE   MODT 0
 BYTE   CnM2
 BYTE   LFOS 0
 BYTE   Gs1
 BYTE   VOL   52*songDryTrail_mvl/mxv
 BYTE   PAN   c_v+0
 BYTE   VOL   52*songDryTrail_mvl/mxv
 BYTE   W96
// 001   ----------------------------------------
 BYTE   W96
// 002   ----------------------------------------
 BYTE   W84
 BYTE   N12  Fn1  v127
 BYTE   W12
// 003   ----------------------------------------
 BYTE   W96
// 004   ----------------------------------------
 BYTE   W96
// 005   ----------------------------------------
 BYTE   W84
 BYTE   En1
 BYTE   W12
// 006   ----------------------------------------
 BYTE   W96
// 007   ----------------------------------------
 BYTE   W96
// 008   ----------------------------------------
 BYTE   W84
 BYTE   N12
 BYTE   W12
// 009   ----------------------------------------
 BYTE   W96
// 010   ----------------------------------------
 BYTE   W96
// 011   ----------------------------------------
 BYTE   W84
 BYTE   N12
 BYTE   W12
// 012   ----------------------------------------
 BYTE   W96
// 013   ----------------------------------------
 BYTE   W96
// 014   ----------------------------------------
 BYTE   W84
 BYTE   N12
 BYTE   W12
// 015   ----------------------------------------
 BYTE   W96
// 016   ----------------------------------------
 BYTE   W96
// 017   ----------------------------------------
 BYTE   W84
 BYTE   N12
 BYTE   W12
// 018   ----------------------------------------
 BYTE   W96
// 019   ----------------------------------------
 BYTE   W96
// 020   ----------------------------------------
 BYTE   W84
 BYTE   N12
 BYTE   W12
// 021   ----------------------------------------
 BYTE   W96
// 022   ----------------------------------------
 BYTE   W96
// 023   ----------------------------------------
 BYTE   W84
 BYTE   N12
 BYTE   W12
// 024   ----------------------------------------
 BYTE   W96
// 025   ----------------------------------------
 BYTE   W96
// 026   ----------------------------------------
 BYTE   W84
 BYTE   Fn1
 BYTE   W12
// 027   ----------------------------------------
 BYTE   W96
// 028   ----------------------------------------
 BYTE   W96
// 029   ----------------------------------------
 BYTE   W84
 BYTE   En1
 BYTE   W12
// 030   ----------------------------------------
 BYTE   W96
// 031   ----------------------------------------
 BYTE   W96
// 032   ----------------------------------------
 BYTE   W84
 BYTE   N12
 BYTE   W12
// 033   ----------------------------------------
 BYTE   W96
// 034   ----------------------------------------
 BYTE   W96
// 035   ----------------------------------------
 BYTE   W84
 BYTE   N12
 BYTE   W12
// 036   ----------------------------------------
 BYTE   W96
// 037   ----------------------------------------
 BYTE   W96
// 038   ----------------------------------------
 BYTE   W84
 BYTE   N12
 BYTE   W12
// 039   ----------------------------------------
 BYTE   W96
// 040   ----------------------------------------
 BYTE   W96
// 041   ----------------------------------------
 BYTE   W84
 BYTE   N12
 BYTE   W12
// 042   ----------------------------------------
 BYTE   W96
// 043   ----------------------------------------
 BYTE   W96
// 044   ----------------------------------------
 BYTE   W84
 BYTE   N12
 BYTE   W12
// 045   ----------------------------------------
 BYTE   VOL   52*songDryTrail_mvl/mxv
 BYTE   W96
// 046   ----------------------------------------
 BYTE   W96
// 047   ----------------------------------------
 BYTE   W80
 BYTE   GoTo
  POIN2 Label_4_01025E12
// 048   ----------------------------------------
 BYTE   W04
 BYTE   FINE

//**************** Track 6 (Midi-Chn.5) ****************//

songDryTrail_006:
// 000   ----------------------------------------
 BYTE   KEYSH   songDryTrail_key+0
Label_5_01025E7E:
 BYTE   VOICE   6
 BYTE   VOL   26*songDryTrail_mvl/mxv
 BYTE   MODT 0
 BYTE   CnM2
 BYTE   LFOS 0
 BYTE   Gs1
 BYTE   VOL   42*songDryTrail_mvl/mxv
 BYTE   PAN   c_v+0
 BYTE   VOL   42*songDryTrail_mvl/mxv
 BYTE   W96
// 001   ----------------------------------------
 BYTE   W96
// 002   ----------------------------------------
 BYTE   W96
// 003   ----------------------------------------
 BYTE   W96
// 004   ----------------------------------------
 BYTE   W96
// 005   ----------------------------------------
 BYTE   W96
// 006   ----------------------------------------
 BYTE   W96
// 007   ----------------------------------------
 BYTE   W96
// 008   ----------------------------------------
 BYTE   W96
// 009   ----------------------------------------
 BYTE   W96
// 010   ----------------------------------------
 BYTE   W96
// 011   ----------------------------------------
 BYTE   W96
// 012   ----------------------------------------
Label_5_01025E98:
 BYTE   W12
 BYTE   N03  En3  v127
 BYTE   W03
 BYTE   An3
 BYTE   W03
 BYTE   N12  Cn4
 BYTE   W66
 BYTE   N03  Cn3
 BYTE   W03
 BYTE   Fn3
 BYTE   W03
 BYTE   N12  An3
 BYTE   W06
 BYTE   PEND 
// 013   ----------------------------------------
Label_5_01025EAB:
 BYTE   W60
 BYTE   N03  Dn3  v127
 BYTE   W03
 BYTE   Gn3
 BYTE   W03
 BYTE   N12  Bn3
 BYTE   W30
 BYTE   PEND 
// 014   ----------------------------------------
Label_5_01025EB6:
 BYTE   W36
 BYTE   N03  Dn3  v127
 BYTE   W03
 BYTE   Gn3
 BYTE   W03
 BYTE   N12  Bn3
 BYTE   W18
 BYTE   N03  Dn3
 BYTE   W03
 BYTE   Gn3
 BYTE   W03
 BYTE   N12  Bn3
 BYTE   W30
 BYTE   PEND 
 BYTE   PATT
  POIN2 Label_5_01025E98
 BYTE   PATT
  POIN2 Label_5_01025EAB
 BYTE   PATT
  POIN2 Label_5_01025EB6
// 015   ----------------------------------------
 BYTE   W12
 BYTE   N03  En3  v127
 BYTE   W03
 BYTE   Gn3
 BYTE   W03
 BYTE   N12  Cn4
 BYTE   W66
 BYTE   N03  Dn3
 BYTE   W03
 BYTE   Gn3
 BYTE   W03
 BYTE   N12  Bn3
 BYTE   W06
// 016   ----------------------------------------
 BYTE   W60
 BYTE   N03  En3
 BYTE   W03
 BYTE   An3
 BYTE   W03
 BYTE   N12  Cn4
 BYTE   W30
// 017   ----------------------------------------
 BYTE   W36
 BYTE   N03  En3
 BYTE   W03
 BYTE   Gn3
 BYTE   W03
 BYTE   N12  Bn3
 BYTE   W18
 BYTE   N03  En3
 BYTE   W03
 BYTE   Gn3
 BYTE   W03
 BYTE   N12  Bn3
 BYTE   W30
// 018   ----------------------------------------
 BYTE   W12
 BYTE   N03  Fn3
 BYTE   W03
 BYTE   An3
 BYTE   W03
 BYTE   N12  Cn4
 BYTE   W66
 BYTE   N03  Fn3
 BYTE   W03
 BYTE   An3
 BYTE   W03
 BYTE   N12  Cn4
 BYTE   W06
 BYTE   PATT
  POIN2 Label_5_01025EAB
// 019   ----------------------------------------
 BYTE   W12
 BYTE   N03  Dn3  v127
 BYTE   W03
 BYTE   Gn3
 BYTE   W03
 BYTE   N12  Bn3
 BYTE   W18
 BYTE   N03  Dn3
 BYTE   W03
 BYTE   Gn3
 BYTE   W03
 BYTE   N12  Bn3
 BYTE   W18
 BYTE   N03  Dn3
 BYTE   W03
 BYTE   Gn3
 BYTE   W03
 BYTE   N12  Bn3
 BYTE   W18
 BYTE   VOL   42*songDryTrail_mvl/mxv
 BYTE   W12
// 020   ----------------------------------------
 BYTE   W96
// 021   ----------------------------------------
 BYTE   W96
// 022   ----------------------------------------
 BYTE   W96
// 023   ----------------------------------------
 BYTE   W96
// 024   ----------------------------------------
 BYTE   W96
// 025   ----------------------------------------
 BYTE   W96
// 026   ----------------------------------------
 BYTE   W96
// 027   ----------------------------------------
 BYTE   W96
// 028   ----------------------------------------
 BYTE   W96
// 029   ----------------------------------------
 BYTE   W96
// 030   ----------------------------------------
 BYTE   W96
// 031   ----------------------------------------
 BYTE   W96
// 032   ----------------------------------------
 BYTE   W96
// 033   ----------------------------------------
 BYTE   W96
// 034   ----------------------------------------
 BYTE   W96
// 035   ----------------------------------------
 BYTE   W96
// 036   ----------------------------------------
 BYTE   W96
// 037   ----------------------------------------
 BYTE   W96
// 038   ----------------------------------------
 BYTE   W96
// 039   ----------------------------------------
 BYTE   W96
// 040   ----------------------------------------
 BYTE   W96
// 041   ----------------------------------------
 BYTE   W96
// 042   ----------------------------------------
 BYTE   W96
// 043   ----------------------------------------
 BYTE   W80
 BYTE   GoTo
  POIN2 Label_5_01025E7E
// 044   ----------------------------------------
 BYTE   W04
 BYTE   FINE

//**************** Track 7 (Midi-Chn.6) ****************//

songDryTrail_007:
// 000   ----------------------------------------
 BYTE   KEYSH   songDryTrail_key+0
Label_6_01025F5A:
 BYTE   VOICE   60
 BYTE   VOL   26*songDryTrail_mvl/mxv
 BYTE   MODT 0
 BYTE   CnM2
 BYTE   LFOS 0
 BYTE   Gs1
 BYTE   VOL   68*songDryTrail_mvl/mxv
 BYTE   PAN   c_v+0
 BYTE   VOL   68*songDryTrail_mvl/mxv
 BYTE   W96
// 001   ----------------------------------------
 BYTE   W96
// 002   ----------------------------------------
 BYTE   W96
// 003   ----------------------------------------
 BYTE   W96
// 004   ----------------------------------------
 BYTE   W96
// 005   ----------------------------------------
 BYTE   W96
// 006   ----------------------------------------
 BYTE   W96
// 007   ----------------------------------------
 BYTE   W96
// 008   ----------------------------------------
 BYTE   W96
// 009   ----------------------------------------
 BYTE   W96
// 010   ----------------------------------------
 BYTE   W96
// 011   ----------------------------------------
 BYTE   W96
// 012   ----------------------------------------
 BYTE   W96
// 013   ----------------------------------------
 BYTE   W96
// 014   ----------------------------------------
 BYTE   W96
// 015   ----------------------------------------
 BYTE   W96
// 016   ----------------------------------------
 BYTE   W96
// 017   ----------------------------------------
 BYTE   W96
// 018   ----------------------------------------
 BYTE   W96
// 019   ----------------------------------------
 BYTE   W96
// 020   ----------------------------------------
 BYTE   W96
// 021   ----------------------------------------
 BYTE   W96
// 022   ----------------------------------------
 BYTE   W96
// 023   ----------------------------------------
 BYTE   W96
// 024   ----------------------------------------
 BYTE   W96
// 025   ----------------------------------------
 BYTE   W60
 BYTE   N24  Bn2  v127
 BYTE   W24
 BYTE   Cn3
 BYTE   W12
// 026   ----------------------------------------
 BYTE   W12
 BYTE   Bn2
 BYTE   W24
 BYTE   An2
 BYTE   W24
 BYTE   Gn2
 BYTE   W24
 BYTE   N96  An2
 BYTE   W12
// 027   ----------------------------------------
 BYTE   W84
 BYTE   N24  Bn2
 BYTE   W12
// 028   ----------------------------------------
 BYTE   W12
 BYTE   Cn3
 BYTE   W24
 BYTE   N72  Dn3
 BYTE   W60
// 029   ----------------------------------------
 BYTE   W12
 BYTE   Bn2
 BYTE   W72
 BYTE   En3
 BYTE   W12
// 030   ----------------------------------------
 BYTE   W60
 BYTE   Dn3
 BYTE   W36
// 031   ----------------------------------------
 BYTE   W36
 BYTE   Cn3
 BYTE   W60
// 032   ----------------------------------------
 BYTE   W12
 BYTE   N48  Bn2
 BYTE   W48
 BYTE   N24  Gn2
 BYTE   W24
 BYTE   N96  An2
 BYTE   W12
// 033   ----------------------------------------
 BYTE   W84
 BYTE   N24  Bn2
 BYTE   W12
// 034   ----------------------------------------
 BYTE   W12
 BYTE   Cn3
 BYTE   W24
 BYTE   TIE  Dn3
 BYTE   W60
// 035   ----------------------------------------
 BYTE   W84
 BYTE   EOT
 BYTE   N72  Gn3
 BYTE   W12
// 036   ----------------------------------------
 BYTE   W60
 BYTE   N48  Fn3
 BYTE   W36
// 037   ----------------------------------------
 BYTE   W12
 BYTE   N24  En3
 BYTE   W24
 BYTE   N72  Dn3
 BYTE   W60
// 038   ----------------------------------------
 BYTE   W12
 BYTE   En3
 BYTE   W72
 BYTE   Cn3
 BYTE   W12
// 039   ----------------------------------------
 BYTE   W60
 BYTE   Dn3
 BYTE   W36
// 040   ----------------------------------------
 BYTE   W36
 BYTE   TIE  En3
 BYTE   W60
// 041   ----------------------------------------
 BYTE   W84
 BYTE   EOT
 BYTE   N72  An3
 BYTE   W12
// 042   ----------------------------------------
 BYTE   W60
 BYTE   N48  Gn3
 BYTE   W36
// 043   ----------------------------------------
 BYTE   W12
 BYTE   N24  Fn3
 BYTE   W24
 BYTE   N72
 BYTE   W60
// 044   ----------------------------------------
 BYTE   W12
 BYTE   Gn3
 BYTE   W72
 BYTE   TIE  Fn3
 BYTE   W12
// 045   ----------------------------------------
 BYTE   W96
// 046   ----------------------------------------
 BYTE   W36
 BYTE   EOT
 BYTE   TIE  Gn3
 BYTE   W60
// 047   ----------------------------------------
 BYTE   W80
 BYTE   GoTo
  POIN2 Label_6_01025F5A
// 048   ----------------------------------------
 BYTE   W04
 BYTE   EOT
 BYTE   Gn3
 BYTE   FINE

//**************** Track 8 (Midi-Chn.7) ****************//

songDryTrail_008:
// 000   ----------------------------------------
 BYTE   KEYSH   songDryTrail_key+0
Label_7_01025FFE:
 BYTE   VOICE   62
 BYTE   VOL   26*songDryTrail_mvl/mxv
 BYTE   MODT 0
 BYTE   CnM2
 BYTE   LFOS 0
 BYTE   Gs1
 BYTE   VOL   42*songDryTrail_mvl/mxv
 BYTE   PAN   c_v+0
 BYTE   VOL   42*songDryTrail_mvl/mxv
 BYTE   W96
// 001   ----------------------------------------
 BYTE   W96
// 002   ----------------------------------------
 BYTE   W96
// 003   ----------------------------------------
 BYTE   W96
// 004   ----------------------------------------
 BYTE   W96
// 005   ----------------------------------------
 BYTE   W96
// 006   ----------------------------------------
 BYTE   W96
// 007   ----------------------------------------
 BYTE   W96
// 008   ----------------------------------------
 BYTE   W96
// 009   ----------------------------------------
 BYTE   W96
// 010   ----------------------------------------
 BYTE   W96
// 011   ----------------------------------------
 BYTE   W96
// 012   ----------------------------------------
 BYTE   W96
// 013   ----------------------------------------
 BYTE   W96
// 014   ----------------------------------------
 BYTE   W96
// 015   ----------------------------------------
 BYTE   W96
// 016   ----------------------------------------
 BYTE   W96
// 017   ----------------------------------------
 BYTE   W96
// 018   ----------------------------------------
 BYTE   W96
// 019   ----------------------------------------
 BYTE   W96
// 020   ----------------------------------------
 BYTE   W96
// 021   ----------------------------------------
 BYTE   W96
// 022   ----------------------------------------
 BYTE   W96
// 023   ----------------------------------------
 BYTE   W96
// 024   ----------------------------------------
 BYTE   W96
// 025   ----------------------------------------
 BYTE   W96
// 026   ----------------------------------------
 BYTE   W84
 BYTE   N96  An2  v127
 BYTE   W12
// 027   ----------------------------------------
 BYTE   W84
 BYTE   N24  Bn2
 BYTE   W12
// 028   ----------------------------------------
 BYTE   W12
 BYTE   Cn3
 BYTE   W24
 BYTE   N72  Bn2
 BYTE   W60
// 029   ----------------------------------------
 BYTE   W12
 BYTE   Gn2
 BYTE   W72
 BYTE   En3
 BYTE   W12
// 030   ----------------------------------------
 BYTE   W60
 BYTE   Dn3
 BYTE   W36
// 031   ----------------------------------------
 BYTE   W36
 BYTE   Cn3
 BYTE   W60
// 032   ----------------------------------------
 BYTE   W12
 BYTE   N48  Bn2
 BYTE   W48
 BYTE   N24  Gn2
 BYTE   W24
 BYTE   N96  An2
 BYTE   W12
// 033   ----------------------------------------
 BYTE   W84
 BYTE   N24  Bn2
 BYTE   W12
// 034   ----------------------------------------
 BYTE   W12
 BYTE   Cn3
 BYTE   W24
 BYTE   TIE  Bn2
 BYTE   W60
// 035   ----------------------------------------
 BYTE   W84
 BYTE   EOT
 BYTE   W12
// 036   ----------------------------------------
 BYTE   W96
// 037   ----------------------------------------
 BYTE   W36
 BYTE   N72  Dn3
 BYTE   W60
// 038   ----------------------------------------
 BYTE   W12
 BYTE   En3
 BYTE   W72
 BYTE   Cn3
 BYTE   W12
// 039   ----------------------------------------
 BYTE   W60
 BYTE   Dn3
 BYTE   W36
// 040   ----------------------------------------
 BYTE   W36
 BYTE   TIE  En3
 BYTE   W60
// 041   ----------------------------------------
 BYTE   W84
 BYTE   EOT
 BYTE   VOL   42*songDryTrail_mvl/mxv
 BYTE   W12
// 042   ----------------------------------------
 BYTE   W96
// 043   ----------------------------------------
 BYTE   W96
// 044   ----------------------------------------
 BYTE   W96
// 045   ----------------------------------------
 BYTE   W96
// 046   ----------------------------------------
 BYTE   W96
// 047   ----------------------------------------
 BYTE   W80
 BYTE   GoTo
  POIN2 Label_7_01025FFE
// 048   ----------------------------------------
 BYTE   W04
 BYTE   FINE

//**************** Track 9 (Midi-Chn.8) ****************//

songDryTrail_009:
// 000   ----------------------------------------
 BYTE   KEYSH   songDryTrail_key+0
Label_8_0102607E:
 BYTE   VOICE   48
 BYTE   VOL   35*songDryTrail_mvl/mxv
 BYTE   MODT 0
 BYTE   CnM2
 BYTE   LFOS 0
 BYTE   Gs1
 BYTE   VOL   64*songDryTrail_mvl/mxv
 BYTE   PAN   c_v+0
 BYTE   VOL   64*songDryTrail_mvl/mxv
 BYTE   W96
// 001   ----------------------------------------
 BYTE   W96
// 002   ----------------------------------------
 BYTE   W96
// 003   ----------------------------------------
 BYTE   W96
// 004   ----------------------------------------
 BYTE   W96
// 005   ----------------------------------------
 BYTE   W96
// 006   ----------------------------------------
 BYTE   W96
// 007   ----------------------------------------
 BYTE   W96
// 008   ----------------------------------------
 BYTE   W96
// 009   ----------------------------------------
 BYTE   W96
// 010   ----------------------------------------
 BYTE   W96
// 011   ----------------------------------------
 BYTE   W96
// 012   ----------------------------------------
 BYTE   W96
// 013   ----------------------------------------
 BYTE   W96
// 014   ----------------------------------------
 BYTE   W96
// 015   ----------------------------------------
 BYTE   W96
// 016   ----------------------------------------
 BYTE   W96
// 017   ----------------------------------------
 BYTE   W96
// 018   ----------------------------------------
 BYTE   W96
// 019   ----------------------------------------
 BYTE   W96
// 020   ----------------------------------------
 BYTE   W96
// 021   ----------------------------------------
 BYTE   W96
// 022   ----------------------------------------
 BYTE   W96
// 023   ----------------------------------------
 BYTE   W96
// 024   ----------------------------------------
 BYTE   W96
// 025   ----------------------------------------
 BYTE   W96
// 026   ----------------------------------------
 BYTE   W96
// 027   ----------------------------------------
 BYTE   W96
// 028   ----------------------------------------
 BYTE   W96
// 029   ----------------------------------------
 BYTE   W96
// 030   ----------------------------------------
 BYTE   W96
// 031   ----------------------------------------
 BYTE   W96
// 032   ----------------------------------------
 BYTE   W96
// 033   ----------------------------------------
 BYTE   W96
// 034   ----------------------------------------
 BYTE   W96
// 035   ----------------------------------------
 BYTE   W84
 BYTE   N72  Gn4  v127
 BYTE   W12
// 036   ----------------------------------------
 BYTE   W60
 BYTE   N48  Fn4
 BYTE   W36
// 037   ----------------------------------------
Label_8_010260B8:
 BYTE   W12
 BYTE   N24  En4  v127
 BYTE   W24
 BYTE   N72  Dn4
 BYTE   W60
 BYTE   PEND 
// 038   ----------------------------------------
 BYTE   W12
 BYTE   En4
 BYTE   W72
 BYTE   N96  Cn4
 BYTE   W12
// 039   ----------------------------------------
 BYTE   W84
 BYTE   N48  Dn4
 BYTE   W12
// 040   ----------------------------------------
 BYTE   W36
 BYTE   TIE  En4
 BYTE   W60
// 041   ----------------------------------------
 BYTE   W84
 BYTE   EOT
 BYTE   N72  Gn4
 BYTE   W12
// 042   ----------------------------------------
 BYTE   W60
 BYTE   N48  Fn4
 BYTE   W36
 BYTE   PATT
  POIN2 Label_8_010260B8
// 043   ----------------------------------------
 BYTE   W12
 BYTE   N72  En4  v127
 BYTE   W72
 BYTE   TIE  Cn4
 BYTE   W12
// 044   ----------------------------------------
 BYTE   W96
// 045   ----------------------------------------
 BYTE   W36
 BYTE   EOT
 BYTE   TIE  Dn4
 BYTE   W60
// 046   ----------------------------------------
 BYTE   W80
 BYTE   GoTo
  POIN2 Label_8_0102607E
// 047   ----------------------------------------
 BYTE   W04
 BYTE   EOT
 BYTE   Dn4
 BYTE   FINE

//**************** Track 10 (Midi-Chn.9) ****************//

songDryTrail_010:
// 000   ----------------------------------------
 BYTE   KEYSH   songDryTrail_key+0
Label_9_010260FA:
 BYTE   VOICE   121
 BYTE   VOL   26*songDryTrail_mvl/mxv
 BYTE   MODT 0
 BYTE   CnM2
 BYTE   LFOS 0
 BYTE   Gs1
 BYTE   VOL   42*songDryTrail_mvl/mxv
 BYTE   PAN   c_v+0
 BYTE   VOL   26*songDryTrail_mvl/mxv
 BYTE   MODT 0
 BYTE   CnM2
 BYTE   LFOS 0
 BYTE   Gs1
 BYTE   VOL   42*songDryTrail_mvl/mxv
 BYTE   PAN   c_v+0
 BYTE   VOL   26*songDryTrail_mvl/mxv
 BYTE   MODT 0
 BYTE   CnM2
 BYTE   LFOS 0
 BYTE   Gs1
 BYTE   VOL   42*songDryTrail_mvl/mxv
 BYTE   PAN   c_v+0
 BYTE   VOL   26*songDryTrail_mvl/mxv
 BYTE   MODT 0
 BYTE   CnM2
 BYTE   LFOS 0
 BYTE   Gs1
 BYTE   VOL   42*songDryTrail_mvl/mxv
 BYTE   PAN   c_v+0
 BYTE   VOL   26*songDryTrail_mvl/mxv
 BYTE   MODT 0
 BYTE   CnM2
 BYTE   LFOS 0
 BYTE   Gs1
 BYTE   VOL   42*songDryTrail_mvl/mxv
 BYTE   PAN   c_v+0
 BYTE   VOL   42*songDryTrail_mvl/mxv
 BYTE   W12
 BYTE   N06  En3  v127
 BYTE   N06  An3
 BYTE   N06  An4
 BYTE   W24
 BYTE   Dn3
 BYTE   N06  An3
 BYTE   W24
 BYTE   N06
 BYTE   W24
 BYTE   En3
 BYTE   N06  As3
 BYTE   W12
// 001   ----------------------------------------
Label_9_01026143:
 BYTE   W12
 BYTE   N06  Ds4  v127
 BYTE   W24
 BYTE   An3
 BYTE   W24
 BYTE   En3
 BYTE   W24
 BYTE   Ds3
 BYTE   N06  An3
 BYTE   W12
 BYTE   PEND 
// 002   ----------------------------------------
Label_9_01026151:
 BYTE   W12
 BYTE   N06  Fs2  v127
 BYTE   N06  An2
 BYTE   N06  An3
 BYTE   W24
 BYTE   Dn3
 BYTE   W24
 BYTE   En3
 BYTE   N06  As3
 BYTE   W24
 BYTE   An3
 BYTE   W12
 BYTE   PEND 
// 003   ----------------------------------------
Label_9_01026163:
 BYTE   W12
 BYTE   N06  En3  v127
 BYTE   N06  An3
 BYTE   N06  An4
 BYTE   W24
 BYTE   Dn3
 BYTE   N06  An3
 BYTE   W24
 BYTE   N06
 BYTE   W24
 BYTE   En3
 BYTE   N06  As3
 BYTE   W12
 BYTE   PEND 
 BYTE   PATT
  POIN2 Label_9_01026143
// 004   ----------------------------------------
Label_9_0102617C:
 BYTE   W12
 BYTE   N06  Fs2  v127
 BYTE   N06  An2
 BYTE   N06  Dn3
 BYTE   N06  An3
 BYTE   W24
 BYTE   En3
 BYTE   W24
 BYTE   Ds3
 BYTE   N06  As3
 BYTE   W24
 BYTE   An3
 BYTE   W12
 BYTE   PEND 
 BYTE   PATT
  POIN2 Label_9_01026163
 BYTE   PATT
  POIN2 Label_9_01026143
 BYTE   PATT
  POIN2 Label_9_01026151
 BYTE   PATT
  POIN2 Label_9_01026163
 BYTE   PATT
  POIN2 Label_9_01026143
// 005   ----------------------------------------
Label_9_010261A9:
 BYTE   W12
 BYTE   N06  Fs2  v127
 BYTE   N06  An2
 BYTE   N06  Dn3
 BYTE   N06  An3
 BYTE   W24
 BYTE   En3
 BYTE   W24
 BYTE   Ds3
 BYTE   N06  As3
 BYTE   W24
 BYTE   Cn1
 BYTE   N06  An3
 BYTE   W12
 BYTE   PEND 
// 006   ----------------------------------------
Label_9_010261BF:
 BYTE   W12
 BYTE   N06  En3  v127
 BYTE   N06  An3
 BYTE   N06  An4
 BYTE   W24
 BYTE   Cn1
 BYTE   N06  Dn3
 BYTE   N06  An3
 BYTE   W24
 BYTE   Cn1
 BYTE   N06  An3
 BYTE   W24
 BYTE   Fs1
 BYTE   N06  En3
 BYTE   N06  As3
 BYTE   W12
 BYTE   PEND 
// 007   ----------------------------------------
Label_9_010261D9:
 BYTE   W12
 BYTE   N06  As1  v127
 BYTE   N06  Ds4
 BYTE   W24
 BYTE   Cn1
 BYTE   N06  An3
 BYTE   W24
 BYTE   En3
 BYTE   W24
 BYTE   Cn1
 BYTE   N06  Ds3
 BYTE   N06  An3
 BYTE   W12
 BYTE   PEND 
// 008   ----------------------------------------
Label_9_010261ED:
 BYTE   W12
 BYTE   N06  Cn1  v127
 BYTE   N06  Fs2
 BYTE   N06  An2
 BYTE   N06  An3
 BYTE   W24
 BYTE   Dn3
 BYTE   W24
 BYTE   Cn1
 BYTE   N06  En3
 BYTE   N06  As3
 BYTE   W24
 BYTE   Cn1
 BYTE   N06  An3
 BYTE   W12
 BYTE   PEND 
 BYTE   PATT
  POIN2 Label_9_010261BF
 BYTE   PATT
  POIN2 Label_9_010261D9
// 009   ----------------------------------------
Label_9_0102620F:
 BYTE   W12
 BYTE   N06  Cn1  v127
 BYTE   N06  Fs2
 BYTE   N06  An2
 BYTE   N06  Dn3
 BYTE   N06  An3
 BYTE   W24
 BYTE   En3
 BYTE   W24
 BYTE   Cn1
 BYTE   N06  Ds3
 BYTE   N06  As3
 BYTE   W24
 BYTE   Cn1
 BYTE   N06  An3
 BYTE   W12
 BYTE   PEND 
 BYTE   PATT
  POIN2 Label_9_010261BF
 BYTE   PATT
  POIN2 Label_9_010261D9
 BYTE   PATT
  POIN2 Label_9_010261ED
 BYTE   PATT
  POIN2 Label_9_010261BF
 BYTE   PATT
  POIN2 Label_9_010261D9
// 010   ----------------------------------------
 BYTE   W12
 BYTE   N06  Cn1  v127
 BYTE   N06  Fs2
 BYTE   N06  An2
 BYTE   N06  Dn3
 BYTE   N06  An3
 BYTE   W24
 BYTE   En3
 BYTE   W24
 BYTE   Cn1
 BYTE   N06  Ds3
 BYTE   N06  As3
 BYTE   W24
 BYTE   VOL   42*songDryTrail_mvl/mxv
 BYTE   N06  An3
 BYTE   W12
 BYTE   PATT
  POIN2 Label_9_01026163
 BYTE   PATT
  POIN2 Label_9_01026143
 BYTE   PATT
  POIN2 Label_9_01026151
 BYTE   PATT
  POIN2 Label_9_01026163
 BYTE   PATT
  POIN2 Label_9_01026143
 BYTE   PATT
  POIN2 Label_9_0102617C
 BYTE   PATT
  POIN2 Label_9_01026163
 BYTE   PATT
  POIN2 Label_9_01026143
 BYTE   PATT
  POIN2 Label_9_01026151
 BYTE   PATT
  POIN2 Label_9_01026163
 BYTE   PATT
  POIN2 Label_9_01026143
 BYTE   PATT
  POIN2 Label_9_010261A9
 BYTE   PATT
  POIN2 Label_9_010261BF
 BYTE   PATT
  POIN2 Label_9_010261D9
 BYTE   PATT
  POIN2 Label_9_010261ED
 BYTE   PATT
  POIN2 Label_9_010261BF
 BYTE   PATT
  POIN2 Label_9_010261D9
 BYTE   PATT
  POIN2 Label_9_0102620F
 BYTE   PATT
  POIN2 Label_9_010261BF
 BYTE   PATT
  POIN2 Label_9_010261D9
 BYTE   PATT
  POIN2 Label_9_010261ED
 BYTE   PATT
  POIN2 Label_9_010261BF
 BYTE   PATT
  POIN2 Label_9_010261D9
// 011   ----------------------------------------
 BYTE   W12
 BYTE   N06  Cn1  v127
 BYTE   N06  Fs2
 BYTE   N06  An2
 BYTE   N06  Dn3
 BYTE   N06  An3
 BYTE   W24
 BYTE   En3
 BYTE   W24
 BYTE   Cn1
 BYTE   N06  Ds3
 BYTE   N06  As3
 BYTE   W20
 BYTE   GoTo
  POIN2 Label_9_010260FA
// 012   ----------------------------------------
 BYTE   W04
 BYTE   FINE

//******************************************************//
	ALIGN 4

songDryTrail:
	BYTE	10	// NumTrks
	BYTE	0	// NumBlks
	BYTE	songDryTrail_pri	// Priority
	BYTE	songDryTrail_rev	// Reverb.
    
	POIN2	songDryTrail_grp
    
	POIN2	songDryTrail_001
	POIN2	songDryTrail_002
	POIN2	songDryTrail_003
	POIN2	songDryTrail_004
	POIN2	songDryTrail_005
	POIN2	songDryTrail_006
	POIN2	songDryTrail_007
	POIN2	songDryTrail_008
	POIN2	songDryTrail_009
	POIN2	songDryTrail_010

	
