//Event file generated from Sappy .s format.
	#include "MPlayDef.event"

	#define	EmeraldHillZone_grp  voicegroup000
	#define	EmeraldHillZone_pri  0
	#define	EmeraldHillZone_rev  0
	#define	EmeraldHillZone_mvl  85
	#define	EmeraldHillZone_key  0
	#define	EmeraldHillZone_tbs  1
	#define	EmeraldHillZone_exg  0
	#define	EmeraldHillZone_cmp  1

	// .rodata
	//	EmeraldHillZone
	ALIGN 4

//**************** Track 1 (Midi-Chn.1) ****************//

EmeraldHillZone_1:
	BYTE	KEYSH   EmeraldHillZone_key+0
// 000   ----------------------------------------
	BYTE	TEMPO   140*EmeraldHillZone_tbs/2
	BYTE		VOICE   57
	BYTE		VOL     68*EmeraldHillZone_mvl/mxv
	BYTE		PAN     c_v+12
	BYTE		N11     Fn3   v127
	BYTE		N11     Dn4 
	BYTE		N11     Fn4 
	BYTE	W18
	BYTE		N64     Gn3 
	BYTE		N64     En4 
	BYTE		N64     Gn4 
	BYTE	W78
// 001   ----------------------------------------
	BYTE		N40     En3 
	BYTE		N40     Cn4 
	BYTE		N40     En4 
	BYTE	W48
	BYTE		        Fn3 
	BYTE		N40     Dn4 
	BYTE		N40     Fn4 
	BYTE	W48
EmeraldHillZone_1_B1:
// 002   ----------------------------------------
EmeraldHillZone_1_002:
	BYTE	W12
	BYTE		N08     Gn3   v127
	BYTE		N08     Gn4 
	BYTE	W12
	BYTE		        An3 
	BYTE		N08     An4 
	BYTE	W12
	BYTE		        Gn3 
	BYTE		N08     Gn4 
	BYTE	W12
	BYTE		        Cn4 
	BYTE		N08     Cn5 
	BYTE	W12
	BYTE		        Cn4 
	BYTE		N08     Cn5 
	BYTE	W12
	BYTE		N05     Dn4 
	BYTE		N05     Dn5 
	BYTE	W06
	BYTE		N08     En4 
	BYTE		N08     En5 
	BYTE	W18
	BYTE	PEND
// 003   ----------------------------------------
EmeraldHillZone_1_003:
	BYTE	W12
	BYTE		N20     Dn4   v127
	BYTE		N20     Dn5 
	BYTE	W24
	BYTE		N08     An3 
	BYTE		N08     An4 
	BYTE	W12
	BYTE		N05     Cn4 
	BYTE		N05     Cn5 
	BYTE	W06
	BYTE		N08     Cn4 
	BYTE		N08     Cn5 
	BYTE	W12
	BYTE		        Dn4 
	BYTE		N08     Dn5 
	BYTE	W30
	BYTE	PEND
// 004   ----------------------------------------
EmeraldHillZone_1_004:
	BYTE	W30
	BYTE		N05     As3   v127
	BYTE		N05     As4 
	BYTE	W06
	BYTE		        Cn4 
	BYTE		N05     Cn5 
	BYTE	W06
	BYTE		        As3 
	BYTE		N05     As4 
	BYTE	W06
	BYTE		N08     Dn4 
	BYTE		N08     Dn5 
	BYTE	W12
	BYTE		        Cn4 
	BYTE		N08     Cn5 
	BYTE	W12
	BYTE		N05     As3 
	BYTE		N05     As4 
	BYTE	W06
	BYTE		N08     Cn4 
	BYTE		N08     Cn5 
	BYTE	W12
	BYTE		N80     An3 
	BYTE		N80     An4 
	BYTE	W06
	BYTE	PEND
// 005   ----------------------------------------
	BYTE	W96
// 006   ----------------------------------------
	BYTE	PATT
	 POIN2	EmeraldHillZone_1_002
// 007   ----------------------------------------
	BYTE	PATT
	 POIN2	EmeraldHillZone_1_003
// 008   ----------------------------------------
	BYTE	PATT
	 POIN2	EmeraldHillZone_1_004
// 009   ----------------------------------------
	BYTE	W96
// 010   ----------------------------------------
	BYTE	W96
// 011   ----------------------------------------
	BYTE	W96
// 012   ----------------------------------------
	BYTE	W96
// 013   ----------------------------------------
	BYTE	W48
	BYTE		N05     An3   v127
	BYTE	W06
	BYTE		        En4 
	BYTE	W12
	BYTE		N05   
	BYTE	W06
	BYTE		N08     Dn4 
	BYTE	W12
	BYTE		        Cn4 
	BYTE	W12
// 014   ----------------------------------------
	BYTE	W96
// 015   ----------------------------------------
	BYTE	W96
// 016   ----------------------------------------
	BYTE	W96
// 017   ----------------------------------------
	BYTE	W12
	BYTE		N11     An3 
	BYTE	W12
	BYTE		        Cn4 
	BYTE	W12
	BYTE		        An3 
	BYTE	W12
	BYTE		N14     Dn4 
	BYTE	W18
	BYTE		N08     Cn4 
	BYTE	W30
// 018   ----------------------------------------
EmeraldHillZone_1_018:
	BYTE		N32     Cn5   v127
	BYTE	W24
	BYTE		N23     Fn3   v096
	BYTE	W12
	BYTE		N11     An4   v127
	BYTE	W12
	BYTE		N23     Gn3   v096
	BYTE	W24
	BYTE		        An3 
	BYTE	W12
	BYTE		N05     An4   v127
	BYTE	W06
	BYTE		        Cn5 
	BYTE	W06
	BYTE	PEND
// 019   ----------------------------------------
EmeraldHillZone_1_019:
	BYTE		N23     Bn3   v096
	BYTE		N11     Bn4   v127
	BYTE	W12
	BYTE		N05     Cn5 
	BYTE	W06
	BYTE		N11     Bn4 
	BYTE	W06
	BYTE		N23     Cn4   v096
	BYTE	W24
	BYTE		        Dn4 
	BYTE	W24
	BYTE		        Bn3 
	BYTE	W24
	BYTE	PEND
// 020   ----------------------------------------
	BYTE	W24
	BYTE		N23   
	BYTE		N11     Bn4   v127
	BYTE	W12
	BYTE		        Cn5 
	BYTE	W12
	BYTE		N23     Cn4   v096
	BYTE		N11     Dn5   v127
	BYTE	W12
	BYTE		        Cn5 
	BYTE	W12
	BYTE		N23     Dn4   v096
	BYTE		N11     Bn4   v127
	BYTE	W12
	BYTE		        Dn5 
	BYTE	W12
// 021   ----------------------------------------
	BYTE		N23     Cn4   v096
	BYTE		N08     Cn5   v127
	BYTE	W12
	BYTE		N23   
	BYTE	W12
	BYTE		        Dn4   v096
	BYTE	W12
	BYTE		N11     An4   v127
	BYTE	W12
	BYTE		N23     En4   v096
	BYTE	W24
	BYTE		        Cn4 
	BYTE	W24
// 022   ----------------------------------------
	BYTE	PATT
	 POIN2	EmeraldHillZone_1_018
// 023   ----------------------------------------
	BYTE	PATT
	 POIN2	EmeraldHillZone_1_019
// 024   ----------------------------------------
	BYTE		N05     Dn4   v127
	BYTE		N05     Dn5 
	BYTE	W06
	BYTE		N11     Dn4 
	BYTE		N11     Cn5 
	BYTE	W12
	BYTE		N76     En4 
	BYTE		TIE     An4 
	BYTE		N76     En5 
	BYTE	W78
// 025   ----------------------------------------
	BYTE	W80
	BYTE	W03
	BYTE		EOT     An4 
	BYTE	W13
	BYTE	GoTo
	 POIN2	EmeraldHillZone_1_B1
EmeraldHillZone_1_B2:
// 026   ----------------------------------------
	BYTE	FINE

//**************** Track 2 (Midi-Chn.2) ****************//

EmeraldHillZone_2:
	BYTE	KEYSH   EmeraldHillZone_key+0
// 000   ----------------------------------------
	BYTE		VOICE   51
	BYTE		PAN     c_v-12
	BYTE		VOL     61*EmeraldHillZone_mvl/mxv
	BYTE	W48
	BYTE		N05     Bn4   v096
	BYTE	W06
	BYTE		        Gn4 
	BYTE	W06
	BYTE		        En4 
	BYTE	W06
	BYTE		        Cn4 
	BYTE	W06
	BYTE		        Gn4 
	BYTE	W06
	BYTE		        En4 
	BYTE	W06
	BYTE		        Cn4 
	BYTE	W06
	BYTE		        An3 
	BYTE	W06
// 001   ----------------------------------------
	BYTE		        Gn4 
	BYTE	W06
	BYTE		        En4 
	BYTE	W06
	BYTE		        Cn4 
	BYTE	W06
	BYTE		        An3 
	BYTE	W06
	BYTE		        Gn4 
	BYTE	W06
	BYTE		        En4 
	BYTE	W06
	BYTE		        Cn4 
	BYTE	W06
	BYTE		        An3 
	BYTE	W06
	BYTE		        An4 
	BYTE	W06
	BYTE		        Fn4 
	BYTE	W06
	BYTE		        Dn4 
	BYTE	W06
	BYTE		        As3 
	BYTE	W06
	BYTE		        An4 
	BYTE	W06
	BYTE		        Fn4 
	BYTE	W06
	BYTE		        Dn4 
	BYTE	W06
	BYTE		        As3 
	BYTE	W06
EmeraldHillZone_2_B1:
// 002   ----------------------------------------
EmeraldHillZone_2_002:
	BYTE		N92     Gn3   v096
	BYTE		N92     En4 
	BYTE		N92     Gn4 
	BYTE	W96
	BYTE	PEND
// 003   ----------------------------------------
EmeraldHillZone_2_003:
	BYTE		N92     An3   v096
	BYTE		N92     Fs4 
	BYTE		N92     An4 
	BYTE	W96
	BYTE	PEND
// 004   ----------------------------------------
EmeraldHillZone_2_004:
	BYTE		N92     Fn3   v096
	BYTE		N92     Dn4 
	BYTE		N92     Fn4 
	BYTE	W96
	BYTE	PEND
// 005   ----------------------------------------
	BYTE		        En3 
	BYTE		N92     Cn4 
	BYTE		N92     En4 
	BYTE	W96
// 006   ----------------------------------------
	BYTE	PATT
	 POIN2	EmeraldHillZone_2_002
// 007   ----------------------------------------
	BYTE	PATT
	 POIN2	EmeraldHillZone_2_003
// 008   ----------------------------------------
	BYTE	PATT
	 POIN2	EmeraldHillZone_2_004
// 009   ----------------------------------------
	BYTE		N92     En3   v096
	BYTE		N92     Cn4 
	BYTE		N92     En4 
	BYTE	W96
// 010   ----------------------------------------
	BYTE	PATT
	 POIN2	EmeraldHillZone_2_002
// 011   ----------------------------------------
	BYTE	PATT
	 POIN2	EmeraldHillZone_2_003
// 012   ----------------------------------------
	BYTE	PATT
	 POIN2	EmeraldHillZone_2_004
// 013   ----------------------------------------
	BYTE		N92     En3   v096
	BYTE		N92     Cn4 
	BYTE		N92     En4 
	BYTE	W96
// 014   ----------------------------------------
	BYTE	PATT
	 POIN2	EmeraldHillZone_2_002
// 015   ----------------------------------------
	BYTE	PATT
	 POIN2	EmeraldHillZone_2_003
// 016   ----------------------------------------
	BYTE	PATT
	 POIN2	EmeraldHillZone_2_004
// 017   ----------------------------------------
	BYTE		N92     En3   v096
	BYTE		N92     Cn4 
	BYTE		N92     En4 
	BYTE	W96
// 018   ----------------------------------------
EmeraldHillZone_2_018:
	BYTE		N23     Cn5   v096
	BYTE		N23     En5 
	BYTE	W24
	BYTE		        Cn5 
	BYTE		N23     En5 
	BYTE	W24
	BYTE		        Cn5 
	BYTE		N23     En5 
	BYTE	W24
	BYTE		        Cn5 
	BYTE		N23     En5 
	BYTE	W24
	BYTE	PEND
// 019   ----------------------------------------
EmeraldHillZone_2_019:
	BYTE		N23     Bn4   v096
	BYTE		N23     Dn5 
	BYTE	W24
	BYTE		        Bn4 
	BYTE		N23     Dn5 
	BYTE	W24
	BYTE		N11     Bn4 
	BYTE		N23     Dn5 
	BYTE	W12
	BYTE		N05     Cn5 
	BYTE	W06
	BYTE		        Bn4 
	BYTE	W06
	BYTE		N05   
	BYTE		N23     Dn5 
	BYTE	W24
	BYTE	PEND
// 020   ----------------------------------------
	BYTE		        Bn4 
	BYTE		N23     Dn5 
	BYTE	W24
	BYTE		        Bn4 
	BYTE		N23     Dn5 
	BYTE	W24
	BYTE		        Bn4 
	BYTE		N23     Dn5 
	BYTE	W24
	BYTE		        Bn4 
	BYTE		N23     Dn5 
	BYTE	W24
// 021   ----------------------------------------
	BYTE	PATT
	 POIN2	EmeraldHillZone_2_018
// 022   ----------------------------------------
	BYTE	PATT
	 POIN2	EmeraldHillZone_2_018
// 023   ----------------------------------------
	BYTE	PATT
	 POIN2	EmeraldHillZone_2_019
// 024   ----------------------------------------
	BYTE	W96
// 025   ----------------------------------------
	BYTE		N05     An5   v096
	BYTE	W06
	BYTE		        En5 
	BYTE	W06
	BYTE		        Cn5 
	BYTE	W06
	BYTE		        An4 
	BYTE	W06
	BYTE		        En5 
	BYTE	W06
	BYTE		        Cn5 
	BYTE	W06
	BYTE		        An4 
	BYTE	W06
	BYTE		        En4 
	BYTE	W06
	BYTE		        Cn5 
	BYTE	W06
	BYTE		        An4 
	BYTE	W06
	BYTE		        En4 
	BYTE	W06
	BYTE		        Cn4 
	BYTE	W06
	BYTE		        An4 
	BYTE	W06
	BYTE		        En4 
	BYTE	W06
	BYTE		        Cn4 
	BYTE	W06
	BYTE		        An3 
	BYTE	W06
	BYTE	GoTo
	 POIN2	EmeraldHillZone_2_B1
EmeraldHillZone_2_B2:
// 026   ----------------------------------------
	BYTE	FINE

//**************** Track 3 (Midi-Chn.3) ****************//

EmeraldHillZone_3:
	BYTE	KEYSH   EmeraldHillZone_key+0
// 000   ----------------------------------------
	BYTE		VOICE   73
	BYTE		PAN     c_v+12
	BYTE		VOL     75*EmeraldHillZone_mvl/mxv
	BYTE	W96
// 001   ----------------------------------------
	BYTE	W96
EmeraldHillZone_3_B1:
// 002   ----------------------------------------
	BYTE		N92     En3   v048
	BYTE		N92     Gn3 
	BYTE		N92     Gn4 
	BYTE	W96
// 003   ----------------------------------------
EmeraldHillZone_3_003:
	BYTE		N92     Fs3   v048
	BYTE		N92     An3 
	BYTE		N92     An4 
	BYTE	W96
	BYTE	PEND
// 004   ----------------------------------------
EmeraldHillZone_3_004:
	BYTE		N92     Dn3   v048
	BYTE		N92     Fn3 
	BYTE		N92     Fn4 
	BYTE	W96
	BYTE	PEND
// 005   ----------------------------------------
EmeraldHillZone_3_005:
	BYTE		N92     Cn3   v048
	BYTE		N92     En3 
	BYTE		N92     En4 
	BYTE	W96
	BYTE	PEND
// 006   ----------------------------------------
	BYTE		        En3 
	BYTE		N92     Gn3 
	BYTE		N92     Gn4 
	BYTE	W96
// 007   ----------------------------------------
	BYTE	PATT
	 POIN2	EmeraldHillZone_3_003
// 008   ----------------------------------------
	BYTE	PATT
	 POIN2	EmeraldHillZone_3_004
// 009   ----------------------------------------
	BYTE	PATT
	 POIN2	EmeraldHillZone_3_005
// 010   ----------------------------------------
	BYTE		N92     En3   v048
	BYTE		N92     Gn3 
	BYTE		N92     Gn4 
	BYTE	W96
// 011   ----------------------------------------
	BYTE	PATT
	 POIN2	EmeraldHillZone_3_003
// 012   ----------------------------------------
	BYTE	PATT
	 POIN2	EmeraldHillZone_3_004
// 013   ----------------------------------------
	BYTE	PATT
	 POIN2	EmeraldHillZone_3_005
// 014   ----------------------------------------
	BYTE		N92     En3   v048
	BYTE		N92     Gn3 
	BYTE		N92     Gn4 
	BYTE	W96
// 015   ----------------------------------------
	BYTE	PATT
	 POIN2	EmeraldHillZone_3_003
// 016   ----------------------------------------
	BYTE	PATT
	 POIN2	EmeraldHillZone_3_004
// 017   ----------------------------------------
	BYTE	PATT
	 POIN2	EmeraldHillZone_3_005
// 018   ----------------------------------------
	BYTE	W96
// 019   ----------------------------------------
EmeraldHillZone_3_019:
	BYTE	W48
	BYTE		N11     Bn3   v064
	BYTE	W12
	BYTE		N05     Cn4 
	BYTE	W06
	BYTE		N11     Bn3 
	BYTE	W30
	BYTE	PEND
// 020   ----------------------------------------
	BYTE	W96
// 021   ----------------------------------------
	BYTE		        Cn4 
	BYTE	W12
	BYTE		N23   
	BYTE	W24
	BYTE		N11     An3 
	BYTE	W60
// 022   ----------------------------------------
	BYTE	W96
// 023   ----------------------------------------
	BYTE	PATT
	 POIN2	EmeraldHillZone_3_019
// 024   ----------------------------------------
	BYTE	W96
// 025   ----------------------------------------
	BYTE	W96
	BYTE	GoTo
	 POIN2	EmeraldHillZone_3_B1
EmeraldHillZone_3_B2:
// 026   ----------------------------------------
	BYTE	FINE

//**************** Track 4 (Midi-Chn.4) ****************//

EmeraldHillZone_4:
	BYTE	KEYSH   EmeraldHillZone_key+0
// 000   ----------------------------------------
	BYTE		VOICE   59
	BYTE		VOL     104*EmeraldHillZone_mvl/mxv
	BYTE	W96
// 001   ----------------------------------------
	BYTE	W96
EmeraldHillZone_4_B1:
// 002   ----------------------------------------
	BYTE	W96
// 003   ----------------------------------------
	BYTE	W96
// 004   ----------------------------------------
	BYTE	W96
// 005   ----------------------------------------
	BYTE	W96
// 006   ----------------------------------------
	BYTE	W96
// 007   ----------------------------------------
	BYTE	W96
// 008   ----------------------------------------
	BYTE	W96
// 009   ----------------------------------------
	BYTE	W96
// 010   ----------------------------------------
	BYTE	W12
	BYTE		N08     Gn3   v127
	BYTE	W12
	BYTE		N08   
	BYTE	W12
	BYTE		        An3 
	BYTE	W12
	BYTE		        Cn4 
	BYTE	W12
	BYTE		N08   
	BYTE	W12
	BYTE		        Dn4 
	BYTE	W12
	BYTE		        Cn4 
	BYTE	W12
// 011   ----------------------------------------
EmeraldHillZone_4_011:
	BYTE		N08     En4   v127
	BYTE	W12
	BYTE		N20     Dn4 
	BYTE	W24
	BYTE		N44     An3 
	BYTE	W60
	BYTE	PEND
// 012   ----------------------------------------
	BYTE	W12
	BYTE		N08     As3 
	BYTE	W12
	BYTE		N08   
	BYTE	W12
	BYTE		        Cn4 
	BYTE	W12
	BYTE		        Dn4 
	BYTE	W12
	BYTE		        Cn4 
	BYTE	W12
	BYTE		N05     As3 
	BYTE	W06
	BYTE		N14     Cn4 
	BYTE	W18
// 013   ----------------------------------------
	BYTE		N76     An3 
	BYTE	W96
// 014   ----------------------------------------
	BYTE	W12
	BYTE		N20     Gn3 
	BYTE	W24
	BYTE		N08     An3 
	BYTE	W12
	BYTE		        Cn4 
	BYTE	W12
	BYTE		N08   
	BYTE	W12
	BYTE		        Dn4 
	BYTE	W12
	BYTE		        Cn4 
	BYTE	W12
// 015   ----------------------------------------
	BYTE	PATT
	 POIN2	EmeraldHillZone_4_011
// 016   ----------------------------------------
	BYTE	W12
	BYTE		N08     As3   v127
	BYTE	W12
	BYTE		N08   
	BYTE	W12
	BYTE		        Cn4 
	BYTE	W12
	BYTE		        Dn4 
	BYTE	W12
	BYTE		        Cn4 
	BYTE	W12
	BYTE		N05     As3 
	BYTE	W06
	BYTE		N08     Cn4 
	BYTE	W12
	BYTE		N80     An3 
	BYTE	W06
// 017   ----------------------------------------
	BYTE	W96
// 018   ----------------------------------------
	BYTE	W96
// 019   ----------------------------------------
	BYTE	W96
// 020   ----------------------------------------
	BYTE	W96
// 021   ----------------------------------------
	BYTE	W96
// 022   ----------------------------------------
	BYTE	W96
// 023   ----------------------------------------
	BYTE	W96
// 024   ----------------------------------------
	BYTE	W96
// 025   ----------------------------------------
	BYTE	W96
	BYTE	GoTo
	 POIN2	EmeraldHillZone_4_B1
EmeraldHillZone_4_B2:
// 026   ----------------------------------------
	BYTE	FINE

//**************** Track 5 (Midi-Chn.6) ****************//

EmeraldHillZone_5:
	BYTE	KEYSH   EmeraldHillZone_key+0
// 000   ----------------------------------------
	BYTE		VOICE   34
	BYTE		VOL     76*EmeraldHillZone_mvl/mxv
	BYTE		N17     As1   v096
	BYTE	W18
	BYTE		N56     Cn2 
	BYTE	W60
	BYTE		N05     Gn2 
	BYTE	W06
	BYTE		        En2 
	BYTE	W06
	BYTE		        Cn2 
	BYTE	W06
// 001   ----------------------------------------
	BYTE		N11     An1 
	BYTE	W12
	BYTE		N05     An2 
	BYTE	W06
	BYTE		N05   
	BYTE	W06
	BYTE		N11     An1 
	BYTE	W12
	BYTE		N05     An2 
	BYTE	W06
	BYTE		N05   
	BYTE	W06
	BYTE		N11     As1 
	BYTE	W12
	BYTE		N05     As2 
	BYTE	W06
	BYTE		N05   
	BYTE	W06
	BYTE		N11     As1 
	BYTE	W12
	BYTE		N05     As2 
	BYTE	W06
	BYTE		N05   
	BYTE	W06
EmeraldHillZone_5_B1:
// 002   ----------------------------------------
EmeraldHillZone_5_002:
	BYTE		N11     Cn2   v096
	BYTE	W12
	BYTE		N05     Cn3 
	BYTE	W12
	BYTE		N11   
	BYTE	W12
	BYTE		        Gn2 
	BYTE	W12
	BYTE		N17     Dn3 
	BYTE	W18
	BYTE		N11     Cn3 
	BYTE	W12
	BYTE		N05     Gn2 
	BYTE	W06
	BYTE		        An2 
	BYTE	W06
	BYTE		        Cn3 
	BYTE	W06
	BYTE	PEND
// 003   ----------------------------------------
EmeraldHillZone_5_003:
	BYTE		N11     Dn2   v096
	BYTE	W12
	BYTE		N05     Dn3 
	BYTE	W12
	BYTE		N11   
	BYTE	W12
	BYTE		        An2 
	BYTE	W12
	BYTE		N05     En3 
	BYTE	W06
	BYTE		N11   
	BYTE	W12
	BYTE		        Dn3 
	BYTE	W12
	BYTE		N05     An2 
	BYTE	W06
	BYTE		        Cn3 
	BYTE	W06
	BYTE		        Dn3 
	BYTE	W06
	BYTE	PEND
// 004   ----------------------------------------
EmeraldHillZone_5_004:
	BYTE		N11     As1   v096
	BYTE	W12
	BYTE		N05     As2 
	BYTE	W12
	BYTE		N11   
	BYTE	W12
	BYTE		        Fn2 
	BYTE	W12
	BYTE		N17     Cn3 
	BYTE	W18
	BYTE		N11     As2 
	BYTE	W12
	BYTE		N05     Fn2 
	BYTE	W06
	BYTE		        Gn2 
	BYTE	W06
	BYTE		        As2 
	BYTE	W06
	BYTE	PEND
// 005   ----------------------------------------
EmeraldHillZone_5_005:
	BYTE		N11     An1   v096
	BYTE	W12
	BYTE		N05     An2 
	BYTE	W06
	BYTE		        An1 
	BYTE	W06
	BYTE		N11     Bn1 
	BYTE	W12
	BYTE		N05     Bn2 
	BYTE	W06
	BYTE		        Bn1 
	BYTE	W06
	BYTE		N11     Cn2 
	BYTE	W12
	BYTE		N05     Cn3 
	BYTE	W06
	BYTE		        Cn2 
	BYTE	W06
	BYTE		N11     An1 
	BYTE	W12
	BYTE		N05     An2 
	BYTE	W06
	BYTE		        An1 
	BYTE	W06
	BYTE	PEND
// 006   ----------------------------------------
	BYTE	PATT
	 POIN2	EmeraldHillZone_5_002
// 007   ----------------------------------------
	BYTE	PATT
	 POIN2	EmeraldHillZone_5_003
// 008   ----------------------------------------
	BYTE	PATT
	 POIN2	EmeraldHillZone_5_004
// 009   ----------------------------------------
	BYTE	PATT
	 POIN2	EmeraldHillZone_5_005
// 010   ----------------------------------------
	BYTE	PATT
	 POIN2	EmeraldHillZone_5_002
// 011   ----------------------------------------
	BYTE	PATT
	 POIN2	EmeraldHillZone_5_003
// 012   ----------------------------------------
	BYTE	PATT
	 POIN2	EmeraldHillZone_5_004
// 013   ----------------------------------------
	BYTE	PATT
	 POIN2	EmeraldHillZone_5_005
// 014   ----------------------------------------
	BYTE	PATT
	 POIN2	EmeraldHillZone_5_002
// 015   ----------------------------------------
	BYTE	PATT
	 POIN2	EmeraldHillZone_5_003
// 016   ----------------------------------------
	BYTE	PATT
	 POIN2	EmeraldHillZone_5_004
// 017   ----------------------------------------
	BYTE	PATT
	 POIN2	EmeraldHillZone_5_005
// 018   ----------------------------------------
EmeraldHillZone_5_018:
	BYTE		N11     Fn2   v096
	BYTE	W12
	BYTE		        Fn3 
	BYTE	W12
	BYTE		        Cn2 
	BYTE	W12
	BYTE		        Cn3 
	BYTE	W12
	BYTE		        Fn2 
	BYTE	W12
	BYTE		        Fn3 
	BYTE	W12
	BYTE		        Cn2 
	BYTE	W12
	BYTE		        Cn3 
	BYTE	W12
	BYTE	PEND
// 019   ----------------------------------------
EmeraldHillZone_5_019:
	BYTE		N11     En2   v096
	BYTE	W12
	BYTE		        En3 
	BYTE	W12
	BYTE		        Bn1 
	BYTE	W12
	BYTE		        Bn2 
	BYTE	W12
	BYTE		        En2 
	BYTE	W12
	BYTE		        En3 
	BYTE	W12
	BYTE		        Bn1 
	BYTE	W12
	BYTE		        Bn2 
	BYTE	W12
	BYTE	PEND
// 020   ----------------------------------------
	BYTE		        En2 
	BYTE	W12
	BYTE		        En3 
	BYTE	W12
	BYTE		        Bn1 
	BYTE	W12
	BYTE		        Bn2 
	BYTE	W12
	BYTE		        Gs1 
	BYTE	W12
	BYTE		        Gs2 
	BYTE	W12
	BYTE		        En1 
	BYTE	W12
	BYTE		        En2 
	BYTE	W12
// 021   ----------------------------------------
	BYTE		        An1 
	BYTE	W12
	BYTE		        An2 
	BYTE	W12
	BYTE		        Bn1 
	BYTE	W12
	BYTE		        Bn2 
	BYTE	W12
	BYTE		        Cn2 
	BYTE	W12
	BYTE		        Cn3 
	BYTE	W12
	BYTE		        An1 
	BYTE	W12
	BYTE		        An2 
	BYTE	W12
// 022   ----------------------------------------
	BYTE	PATT
	 POIN2	EmeraldHillZone_5_018
// 023   ----------------------------------------
	BYTE	PATT
	 POIN2	EmeraldHillZone_5_019
// 024   ----------------------------------------
	BYTE		N05     Gn1   v096
	BYTE	W06
	BYTE		N11   
	BYTE	W12
	BYTE		N76     An1 
	BYTE	W78
// 025   ----------------------------------------
	BYTE		N05   
	BYTE	W06
	BYTE		N11   
	BYTE	W12
	BYTE		N05   
	BYTE	W06
	BYTE		N11     Bn1 
	BYTE	W12
	BYTE		        Cn2 
	BYTE	W12
	BYTE		        Dn2 
	BYTE	W12
	BYTE		        Cn2 
	BYTE	W12
	BYTE		N05     Bn1 
	BYTE	W06
	BYTE		N11     An1 
	BYTE	W18
	BYTE	GoTo
	 POIN2	EmeraldHillZone_5_B1
EmeraldHillZone_5_B2:
// 026   ----------------------------------------
	BYTE	FINE

//**************** Track 6 (Midi-Chn.7) ****************//

EmeraldHillZone_6:
	BYTE	KEYSH   EmeraldHillZone_key+0
// 000   ----------------------------------------
	BYTE		VOICE   123
	BYTE		PAN     c_v-1
	BYTE		VOL     58*EmeraldHillZone_mvl/mxv
	BYTE		N17     Cn1   v127
	BYTE	W12
	BYTE		N23     Fs1 
	BYTE	W06
	BYTE		N44     Cn1 
	BYTE	W18
	BYTE		N23     Fs1 
	BYTE	W24
	BYTE		N23   
	BYTE	W06
	BYTE		N28     Cn1 
	BYTE	W18
	BYTE		N11     Fs1 
	BYTE	W12
// 001   ----------------------------------------
	BYTE		N05     Cn1 
	BYTE	W06
	BYTE		N11     Dn2 
	BYTE	W12
	BYTE		N05     Bn1 
	BYTE	W06
	BYTE		N11     Dn2 
	BYTE	W12
	BYTE		N11   
	BYTE	W12
	BYTE		N11   
	BYTE	W12
	BYTE		        Cn1 
	BYTE	W12
	BYTE		N05     Bn1 
	BYTE	W06
	BYTE		        Dn2 
	BYTE	W06
	BYTE		N11     Bn1 
	BYTE	W12
EmeraldHillZone_6_B1:
// 002   ----------------------------------------
EmeraldHillZone_6_002:
	BYTE		N23     Cn1   v127
	BYTE		N11     Fs1 
	BYTE	W12
	BYTE		N05   
	BYTE	W06
	BYTE		N05   
	BYTE	W06
	BYTE		N23     Dn1 
	BYTE		N11     Fs1 
	BYTE	W12
	BYTE		N05   
	BYTE	W06
	BYTE		N05   
	BYTE	W06
	BYTE		N23     Cn1 
	BYTE		N11     Fs1 
	BYTE	W12
	BYTE		N05   
	BYTE	W06
	BYTE		N05   
	BYTE	W06
	BYTE		N23     Dn1 
	BYTE		N11     Fs1 
	BYTE	W12
	BYTE		N05   
	BYTE	W06
	BYTE		N05   
	BYTE	W06
	BYTE	PEND
// 003   ----------------------------------------
	BYTE	PATT
	 POIN2	EmeraldHillZone_6_002
// 004   ----------------------------------------
	BYTE	PATT
	 POIN2	EmeraldHillZone_6_002
// 005   ----------------------------------------
	BYTE	PATT
	 POIN2	EmeraldHillZone_6_002
// 006   ----------------------------------------
	BYTE	PATT
	 POIN2	EmeraldHillZone_6_002
// 007   ----------------------------------------
	BYTE	PATT
	 POIN2	EmeraldHillZone_6_002
// 008   ----------------------------------------
	BYTE	PATT
	 POIN2	EmeraldHillZone_6_002
// 009   ----------------------------------------
	BYTE		N23     Cn1   v127
	BYTE		N11     Fs1 
	BYTE	W12
	BYTE		N05   
	BYTE	W06
	BYTE		N05   
	BYTE	W06
	BYTE		N23     Dn1 
	BYTE		N11     Fs1 
	BYTE	W12
	BYTE		N05   
	BYTE	W06
	BYTE		N05   
	BYTE	W06
	BYTE		N11     Cn1 
	BYTE		N11     Fs1 
	BYTE	W12
	BYTE		N23     Dn1 
	BYTE		N05     Fs1 
	BYTE	W06
	BYTE		N05   
	BYTE	W06
	BYTE		N11   
	BYTE	W12
	BYTE		N05     Dn1 
	BYTE		N11     As1 
	BYTE	W06
	BYTE		N05     Dn1 
	BYTE	W06
// 010   ----------------------------------------
	BYTE	PATT
	 POIN2	EmeraldHillZone_6_002
// 011   ----------------------------------------
	BYTE	PATT
	 POIN2	EmeraldHillZone_6_002
// 012   ----------------------------------------
	BYTE	PATT
	 POIN2	EmeraldHillZone_6_002
// 013   ----------------------------------------
	BYTE		N23     Cn1   v127
	BYTE		N11     Fs1 
	BYTE	W12
	BYTE		N05   
	BYTE	W06
	BYTE		N05   
	BYTE	W06
	BYTE		N23     Dn1 
	BYTE		N11     Fs1 
	BYTE	W12
	BYTE		N05   
	BYTE	W06
	BYTE		N05   
	BYTE	W06
	BYTE		N11     Cn1 
	BYTE		N11     Fs1 
	BYTE	W12
	BYTE		N23     Dn1 
	BYTE		N05     Fs1 
	BYTE	W06
	BYTE		N05   
	BYTE	W06
	BYTE		N11   
	BYTE	W12
	BYTE		        Dn1 
	BYTE		N05     Fs1 
	BYTE	W06
	BYTE		N05   
	BYTE	W06
// 014   ----------------------------------------
	BYTE	PATT
	 POIN2	EmeraldHillZone_6_002
// 015   ----------------------------------------
	BYTE	PATT
	 POIN2	EmeraldHillZone_6_002
// 016   ----------------------------------------
	BYTE	PATT
	 POIN2	EmeraldHillZone_6_002
// 017   ----------------------------------------
	BYTE		N23     Cn1   v127
	BYTE		N11     Fs1 
	BYTE	W12
	BYTE		N05   
	BYTE	W06
	BYTE		N05   
	BYTE	W06
	BYTE		N23     Dn1 
	BYTE		N11     Fs1 
	BYTE	W12
	BYTE		N05   
	BYTE	W06
	BYTE		N05   
	BYTE	W06
	BYTE		N23     Cn1 
	BYTE		N11     Fs1 
	BYTE	W12
	BYTE		N05   
	BYTE	W06
	BYTE		N05   
	BYTE	W06
	BYTE		N11     Dn1 
	BYTE		N11     As1 
	BYTE	W12
	BYTE		N05     Dn1 
	BYTE		N05     Fs1 
	BYTE	W06
	BYTE		        Dn1 
	BYTE		N05     Fs1 
	BYTE	W06
// 018   ----------------------------------------
	BYTE	PATT
	 POIN2	EmeraldHillZone_6_002
// 019   ----------------------------------------
EmeraldHillZone_6_019:
	BYTE		N23     Cn1   v127
	BYTE		N11     Fs1 
	BYTE	W12
	BYTE		N05   
	BYTE	W06
	BYTE		N05   
	BYTE	W06
	BYTE		N23     Dn1 
	BYTE		N11     Fs1 
	BYTE	W12
	BYTE		N05   
	BYTE	W06
	BYTE		N05   
	BYTE	W06
	BYTE		N11     Cn1 
	BYTE		N11     Fs1 
	BYTE	W12
	BYTE		        Dn1 
	BYTE		N05     Fs1 
	BYTE	W06
	BYTE		N05   
	BYTE	W06
	BYTE		N23     Dn1 
	BYTE		N11     Fs1 
	BYTE	W12
	BYTE		N05   
	BYTE	W06
	BYTE		N05   
	BYTE	W06
	BYTE	PEND
// 020   ----------------------------------------
	BYTE	PATT
	 POIN2	EmeraldHillZone_6_002
// 021   ----------------------------------------
	BYTE		N23     Cn1   v127
	BYTE		N11     Fs1 
	BYTE	W12
	BYTE		N05   
	BYTE	W06
	BYTE		N05   
	BYTE	W06
	BYTE		N23     Dn1 
	BYTE		N11     Fs1 
	BYTE	W12
	BYTE		N05   
	BYTE	W06
	BYTE		N05   
	BYTE	W06
	BYTE		N23     Cn1 
	BYTE		N11     Fs1 
	BYTE	W12
	BYTE		N05   
	BYTE	W06
	BYTE		N05   
	BYTE	W06
	BYTE		N23     Dn1 
	BYTE		N11     As1 
	BYTE	W12
	BYTE		N05     Fs1 
	BYTE	W06
	BYTE		N05   
	BYTE	W06
// 022   ----------------------------------------
	BYTE	PATT
	 POIN2	EmeraldHillZone_6_002
// 023   ----------------------------------------
	BYTE	PATT
	 POIN2	EmeraldHillZone_6_019
// 024   ----------------------------------------
	BYTE		N17     Cn1   v127
	BYTE		N11     Fs1 
	BYTE	W12
	BYTE		N05   
	BYTE	W06
	BYTE		N44     Dn1 
	BYTE		N05     Fs1 
	BYTE	W06
	BYTE		N11   
	BYTE	W12
	BYTE		N05   
	BYTE	W06
	BYTE		N05   
	BYTE	W06
	BYTE		N11   
	BYTE	W12
	BYTE		N05   
	BYTE	W06
	BYTE		N28     Dn1 
	BYTE		N05     Fs1 
	BYTE	W06
	BYTE		N11     As1 
	BYTE	W12
	BYTE		N05     Fs1 
	BYTE	W06
	BYTE		N05   
	BYTE	W06
// 025   ----------------------------------------
	BYTE		        Cn1 
	BYTE		N11     As1 
	BYTE	W06
	BYTE		        Dn2 
	BYTE	W12
	BYTE		N05   
	BYTE	W06
	BYTE		N11     Dn1 
	BYTE		N11     As1 
	BYTE		N11     Dn2 
	BYTE	W12
	BYTE		N11   
	BYTE	W12
	BYTE		        Cn1 
	BYTE		N11     As1 
	BYTE		N11     Bn1 
	BYTE	W12
	BYTE		N11   
	BYTE	W12
	BYTE		        As1 
	BYTE		N11     Bn1 
	BYTE	W12
	BYTE		N05   
	BYTE	W06
	BYTE		N05   
	BYTE	W06
	BYTE	GoTo
	 POIN2	EmeraldHillZone_6_B1
EmeraldHillZone_6_B2:
// 026   ----------------------------------------
	BYTE	FINE

//******************************************************//
	ALIGN 4

songEmeraldHill:
	BYTE	6	// NumTrks
	BYTE	0	// NumBlks
	BYTE	EmeraldHillZone_pri	// Priority
	BYTE	EmeraldHillZone_rev	// Reverb.

	POIN2	EmeraldHillZone_grp

	POIN2	EmeraldHillZone_1
	POIN2	EmeraldHillZone_2
	POIN2	EmeraldHillZone_3
	POIN2	EmeraldHillZone_4
	POIN2	EmeraldHillZone_5
	POIN2	EmeraldHillZone_6

	
