	.include "MPlayDef.s"

	.equ	Emergency_grp, voicegroup000
	.equ	Emergency_pri, 0
	.equ	Emergency_rev, 0
	.equ	Emergency_mvl, 127
	.equ	Emergency_key, 0
	.equ	Emergency_tbs, 1
	.equ	Emergency_exg, 0
	.equ	Emergency_cmp, 1

	.section .rodata
	.global	Emergency
	.align	2

@**************** Track 1 (Midi-Chn.3) ****************@

Emergency_1:
	.byte	KEYSH , Emergency_key+0
Emergency_1_B1:
@ 000   ----------------------------------------
	.byte	TEMPO , 160*Emergency_tbs/2
	.byte		VOICE , 0
	.byte		VOL   , 100*Emergency_mvl/mxv
	.byte		PAN   , c_v+0
	.byte	W96
@ 001   ----------------------------------------
	.byte	W96
@ 002   ----------------------------------------
	.byte	W96
@ 003   ----------------------------------------
	.byte	W96
@ 004   ----------------------------------------
	.byte	W96
@ 005   ----------------------------------------
	.byte	W96
@ 006   ----------------------------------------
	.byte	W96
@ 007   ----------------------------------------
	.byte	W96
@ 008   ----------------------------------------
	.byte	W96
@ 009   ----------------------------------------
	.byte	W96
@ 010   ----------------------------------------
	.byte	W96
@ 011   ----------------------------------------
	.byte	W96
@ 012   ----------------------------------------
	.byte	W96
@ 013   ----------------------------------------
	.byte	W96
@ 014   ----------------------------------------
	.byte	W96
@ 015   ----------------------------------------
	.byte	W96
@ 016   ----------------------------------------
	.byte	W96
@ 017   ----------------------------------------
	.byte	W96
@ 018   ----------------------------------------
	.byte	W96
@ 019   ----------------------------------------
	.byte	W96
@ 020   ----------------------------------------
	.byte	W96
@ 021   ----------------------------------------
	.byte	W96
@ 022   ----------------------------------------
	.byte	W96
@ 023   ----------------------------------------
	.byte	W96
@ 024   ----------------------------------------
	.byte	W96
@ 025   ----------------------------------------
	.byte	W96
@ 026   ----------------------------------------
	.byte		N05   , Ds1 , v044
	.byte		N05   , Ds2 
	.byte	W12
	.byte		        Dn1 
	.byte		N05   , Dn2 
	.byte	W12
	.byte		        Cs1 
	.byte		N05   , Cs2 
	.byte	W12
	.byte		        Ds1 
	.byte		N05   , Ds2 
	.byte	W12
	.byte		        Dn1 
	.byte		N05   , Dn2 
	.byte	W12
	.byte		        Cs1 
	.byte		N05   , Cs2 
	.byte	W12
	.byte		N11   , Ds1 
	.byte		N11   , Ds2 
	.byte	W12
	.byte		        Dn1 
	.byte		N11   , Dn2 
	.byte	W12
@ 027   ----------------------------------------
	.byte		N05   , Ds1 
	.byte		N05   , Ds2 
	.byte	W12
	.byte		        Dn1 
	.byte		N05   , Dn2 
	.byte	W12
	.byte		        Cs1 
	.byte		N05   , Cs2 
	.byte	W12
	.byte		        Cn1 
	.byte		N05   , Cn2 
	.byte	W12
	.byte		        Bn0 
	.byte		N05   , Bn1 
	.byte	W12
	.byte		        As0 
	.byte		N05   , As1 
	.byte	W12
	.byte		        An0 
	.byte		N05   , An1 
	.byte	W12
	.byte		        Gs0 
	.byte		N05   , Gs1 
	.byte	W12
@ 028   ----------------------------------------
	.byte		N11   , Gn0 
	.byte		N11   , Gn1 
	.byte	W12
	.byte		        Fs0 
	.byte		N11   , Fs1 
	.byte	W12
	.byte		        Gn0 
	.byte		N11   , Gn1 
	.byte	W12
	.byte		N05   , Gs0 
	.byte		N05   , Gs1 
	.byte	W12
	.byte		N11   , An0 
	.byte		N11   , An1 
	.byte	W12
	.byte		        Gs0 
	.byte		N11   , Gs1 
	.byte	W12
	.byte		        An0 
	.byte		N11   , An1 
	.byte	W12
	.byte		N05   , As0 
	.byte		N05   , As1 
	.byte	W12
@ 029   ----------------------------------------
	.byte		N11   , Bn0 
	.byte		N11   , Bn1 
	.byte	W12
	.byte		N05   , Cn1 
	.byte		N05   , Cn2 
	.byte	W12
	.byte		N11   , Cs1 
	.byte		N11   , Cs2 
	.byte	W12
	.byte		N05   , Dn1 
	.byte		N05   , Dn2 
	.byte	W12
	.byte		        Ds1 
	.byte		N05   , Ds2 
	.byte	W06
	.byte		        Dn1 
	.byte		N05   , Dn2 
	.byte	W06
	.byte		        Cs1 
	.byte		N05   , Cs2 
	.byte	W06
	.byte		        Cn1 
	.byte		N05   , Cn2 
	.byte	W06
	.byte		        Bn0 
	.byte		N05   , Bn1 
	.byte	W06
	.byte		        As0 
	.byte		N05   , As1 
	.byte	W06
	.byte		        An0 
	.byte		N05   , An1 
	.byte	W12
@ 030   ----------------------------------------
	.byte	W16
	.byte	GOTO
	 .word	Emergency_1_B1
Emergency_1_B2:
	.byte	W80
@ 031   ----------------------------------------
	.byte	W96
@ 032   ----------------------------------------
	.byte	W96
@ 033   ----------------------------------------
	.byte	W96
@ 034   ----------------------------------------
	.byte	W96
@ 035   ----------------------------------------
	.byte	W96
@ 036   ----------------------------------------
	.byte	W96
@ 037   ----------------------------------------
	.byte	W96
@ 038   ----------------------------------------
	.byte	W96
@ 039   ----------------------------------------
	.byte	W96
@ 040   ----------------------------------------
	.byte	W96
@ 041   ----------------------------------------
	.byte	W96
@ 042   ----------------------------------------
	.byte	W96
@ 043   ----------------------------------------
	.byte	W96
@ 044   ----------------------------------------
	.byte	W96
@ 045   ----------------------------------------
	.byte	W96
@ 046   ----------------------------------------
	.byte	W96
@ 047   ----------------------------------------
	.byte	W96
@ 048   ----------------------------------------
	.byte	W96
@ 049   ----------------------------------------
	.byte	W96
@ 050   ----------------------------------------
	.byte	W96
@ 051   ----------------------------------------
	.byte	W96
@ 052   ----------------------------------------
	.byte	W96
@ 053   ----------------------------------------
	.byte	FINE

@**************** Track 2 (Midi-Chn.5) ****************@

Emergency_2:
	.byte	KEYSH , Emergency_key+0
Emergency_2_B1:
@ 000   ----------------------------------------
	.byte		VOICE , 56
	.byte		VOL   , 100*Emergency_mvl/mxv
	.byte		PAN   , c_v+0
	.byte	W96
@ 001   ----------------------------------------
	.byte	W96
@ 002   ----------------------------------------
	.byte	W96
@ 003   ----------------------------------------
Emergency_2_003:
	.byte	W48
	.byte		N02   , Bn3 , v064
	.byte		N02   , Cs4 
	.byte	W06
	.byte		        Bn3 
	.byte		N02   , Cs4 
	.byte	W06
	.byte		        Bn3 
	.byte		N02   , Cs4 
	.byte	W06
	.byte		        Bn3 
	.byte		N02   , Cs4 
	.byte	W06
	.byte		        Bn3 
	.byte		N02   , Cs4 
	.byte	W06
	.byte		        Bn3 
	.byte		N02   , Cs4 
	.byte	W06
	.byte		        Bn3 
	.byte		N02   , Cs4 
	.byte	W06
	.byte		        Bn3 
	.byte		N02   , Cs4 
	.byte	W06
	.byte	PEND
@ 004   ----------------------------------------
Emergency_2_004:
	.byte		N11   , Cn4 , v064
	.byte		N11   , Dn4 
	.byte	W12
	.byte		N05   , Bn3 
	.byte		N05   , Cs4 
	.byte	W84
	.byte	PEND
@ 005   ----------------------------------------
	.byte	PATT
	 .word	Emergency_2_003
@ 006   ----------------------------------------
	.byte	PATT
	 .word	Emergency_2_004
@ 007   ----------------------------------------
	.byte	PATT
	 .word	Emergency_2_004
@ 008   ----------------------------------------
	.byte	W48
	.byte		N44   , Cs3 , v064
	.byte		N44   , Fs3 
	.byte		N44   , An3 
	.byte	W48
@ 009   ----------------------------------------
	.byte		        Cs3 
	.byte		N44   , Fn3 
	.byte		N44   , Gs3 
	.byte	W48
	.byte		        En3 
	.byte		N44   , Gs3 
	.byte		N44   , Cs4 
	.byte	W48
@ 010   ----------------------------------------
	.byte		N92   , Ds3 
	.byte		N92   , Gn3 
	.byte		N92   , Cn4 
	.byte	W96
@ 011   ----------------------------------------
	.byte	W96
@ 012   ----------------------------------------
	.byte	W96
@ 013   ----------------------------------------
	.byte	W96
@ 014   ----------------------------------------
	.byte	W96
@ 015   ----------------------------------------
	.byte		N44   
	.byte	W48
	.byte		N44   
	.byte		N44   , Gn4 
	.byte	W48
@ 016   ----------------------------------------
	.byte		N92   , Cs4 
	.byte		N92   , Gs4 
	.byte	W96
@ 017   ----------------------------------------
	.byte		N44   , Ds4 
	.byte		N44   , As4 
	.byte	W48
	.byte		        Cs4 
	.byte		N44   , Gs4 
	.byte	W48
@ 018   ----------------------------------------
	.byte		N92   , Cn4 
	.byte		N92   , Gn4 
	.byte	W96
@ 019   ----------------------------------------
	.byte		        Fn4 
	.byte		N92   , Fs4 
	.byte	W96
@ 020   ----------------------------------------
	.byte	W96
@ 021   ----------------------------------------
	.byte	W96
@ 022   ----------------------------------------
	.byte	W48
	.byte		N44   , Cn3 
	.byte		N44   , Fs3 
	.byte	W48
@ 023   ----------------------------------------
	.byte		        Cs3 
	.byte		N44   , Gn3 
	.byte	W48
	.byte		        Dn3 
	.byte		N44   , Gs3 
	.byte	W48
@ 024   ----------------------------------------
	.byte		        En2 
	.byte		N44   , Ds3 
	.byte		N44   , An3 
	.byte	W48
	.byte		        Fn2 
	.byte		N44   , En3 
	.byte		N44   , As3 
	.byte	W48
@ 025   ----------------------------------------
	.byte		N23   , Fs2 
	.byte		N23   , Fn3 
	.byte		N23   , Bn3 
	.byte	W24
	.byte		        Gn2 
	.byte		N23   , Fs3 
	.byte		N23   , Cn4 
	.byte	W24
	.byte		        Gs2 
	.byte		N23   , Gn3 
	.byte		N23   , Cs4 
	.byte	W24
	.byte		        An2 
	.byte		N23   , Gs3 
	.byte		N23   , Dn4 
	.byte	W24
@ 026   ----------------------------------------
	.byte		N92   , As2 
	.byte		N92   , Gs3 
	.byte		N92   , Ds4 
	.byte	W96
@ 027   ----------------------------------------
	.byte	W96
@ 028   ----------------------------------------
	.byte	W96
@ 029   ----------------------------------------
	.byte	W96
@ 030   ----------------------------------------
	.byte	W16
	.byte	GOTO
	 .word	Emergency_2_B1
Emergency_2_B2:
	.byte	W80
@ 031   ----------------------------------------
	.byte	W96
@ 032   ----------------------------------------
	.byte	W96
@ 033   ----------------------------------------
	.byte	W96
@ 034   ----------------------------------------
	.byte	W96
@ 035   ----------------------------------------
	.byte	W96
@ 036   ----------------------------------------
	.byte	W96
@ 037   ----------------------------------------
	.byte	W96
@ 038   ----------------------------------------
	.byte	W96
@ 039   ----------------------------------------
	.byte	W96
@ 040   ----------------------------------------
	.byte	W96
@ 041   ----------------------------------------
	.byte	W96
@ 042   ----------------------------------------
	.byte	W96
@ 043   ----------------------------------------
	.byte	W96
@ 044   ----------------------------------------
	.byte	W96
@ 045   ----------------------------------------
	.byte	W96
@ 046   ----------------------------------------
	.byte	W96
@ 047   ----------------------------------------
	.byte	W96
@ 048   ----------------------------------------
	.byte	W96
@ 049   ----------------------------------------
	.byte	W96
@ 050   ----------------------------------------
	.byte	W96
@ 051   ----------------------------------------
	.byte	W96
@ 052   ----------------------------------------
	.byte	W96
@ 053   ----------------------------------------
	.byte	FINE

@**************** Track 3 (Midi-Chn.7) ****************@

Emergency_3:
	.byte	KEYSH , Emergency_key+0
Emergency_3_B1:
@ 000   ----------------------------------------
	.byte		VOICE , 56
	.byte		VOL   , 100*Emergency_mvl/mxv
	.byte		PAN   , c_v+0
	.byte	W96
@ 001   ----------------------------------------
	.byte	W96
@ 002   ----------------------------------------
	.byte	W96
@ 003   ----------------------------------------
	.byte	W96
@ 004   ----------------------------------------
	.byte	W96
@ 005   ----------------------------------------
	.byte	W96
@ 006   ----------------------------------------
	.byte	W96
@ 007   ----------------------------------------
	.byte	W96
@ 008   ----------------------------------------
	.byte	W96
@ 009   ----------------------------------------
	.byte	W96
@ 010   ----------------------------------------
	.byte	W96
@ 011   ----------------------------------------
	.byte	W96
@ 012   ----------------------------------------
	.byte	W96
@ 013   ----------------------------------------
	.byte	W96
@ 014   ----------------------------------------
	.byte	W96
@ 015   ----------------------------------------
	.byte	W96
@ 016   ----------------------------------------
	.byte	W96
@ 017   ----------------------------------------
	.byte	W96
@ 018   ----------------------------------------
	.byte	W96
@ 019   ----------------------------------------
	.byte	W96
@ 020   ----------------------------------------
	.byte	W96
@ 021   ----------------------------------------
	.byte	W96
@ 022   ----------------------------------------
	.byte	W96
@ 023   ----------------------------------------
	.byte	W96
@ 024   ----------------------------------------
	.byte	W96
@ 025   ----------------------------------------
	.byte		N23   , Bn1 , v064
	.byte	W24
	.byte		        Cn2 
	.byte	W24
	.byte		        Cs2 
	.byte	W24
	.byte		        Dn2 
	.byte	W24
@ 026   ----------------------------------------
	.byte		N92   , Ds2 
	.byte	W96
@ 027   ----------------------------------------
	.byte	W96
@ 028   ----------------------------------------
	.byte		N23   , Fs2 
	.byte	W24
	.byte		        Gn2 
	.byte	W24
	.byte		        Gs2 
	.byte	W24
	.byte		        An2 
	.byte	W24
@ 029   ----------------------------------------
	.byte		N92   , Dn2 
	.byte		N92   , An2 
	.byte	W96
@ 030   ----------------------------------------
	.byte	W16
	.byte	GOTO
	 .word	Emergency_3_B1
Emergency_3_B2:
	.byte	W80
@ 031   ----------------------------------------
	.byte	W96
@ 032   ----------------------------------------
	.byte	W96
@ 033   ----------------------------------------
	.byte	W96
@ 034   ----------------------------------------
	.byte	W96
@ 035   ----------------------------------------
	.byte	W96
@ 036   ----------------------------------------
	.byte	W96
@ 037   ----------------------------------------
	.byte	W96
@ 038   ----------------------------------------
	.byte	W96
@ 039   ----------------------------------------
	.byte	W96
@ 040   ----------------------------------------
	.byte	W96
@ 041   ----------------------------------------
	.byte	W96
@ 042   ----------------------------------------
	.byte	W96
@ 043   ----------------------------------------
	.byte	W96
@ 044   ----------------------------------------
	.byte	W96
@ 045   ----------------------------------------
	.byte	W96
@ 046   ----------------------------------------
	.byte	W96
@ 047   ----------------------------------------
	.byte	W96
@ 048   ----------------------------------------
	.byte	W96
@ 049   ----------------------------------------
	.byte	W96
@ 050   ----------------------------------------
	.byte	W96
@ 051   ----------------------------------------
	.byte	W96
@ 052   ----------------------------------------
	.byte	W96
@ 053   ----------------------------------------
	.byte	FINE

@**************** Track 4 (Midi-Chn.9) ****************@

Emergency_4:
	.byte	KEYSH , Emergency_key+0
Emergency_4_B1:
@ 000   ----------------------------------------
	.byte		VOICE , 60
	.byte		VOL   , 100*Emergency_mvl/mxv
	.byte		PAN   , c_v+0
	.byte	W96
@ 001   ----------------------------------------
	.byte	W96
@ 002   ----------------------------------------
	.byte	W96
@ 003   ----------------------------------------
	.byte	W96
@ 004   ----------------------------------------
	.byte	W96
@ 005   ----------------------------------------
	.byte	W96
@ 006   ----------------------------------------
	.byte	W96
@ 007   ----------------------------------------
	.byte	W96
@ 008   ----------------------------------------
	.byte	W96
@ 009   ----------------------------------------
	.byte	W96
@ 010   ----------------------------------------
	.byte	W96
@ 011   ----------------------------------------
	.byte	W48
	.byte		N44   , Cn3 , v064
	.byte		N44   , Gn3 
	.byte	W48
@ 012   ----------------------------------------
	.byte		N92   , Cs3 
	.byte		N92   , Gs3 
	.byte	W96
@ 013   ----------------------------------------
Emergency_4_013:
	.byte		N44   , Ds3 , v064
	.byte		N44   , As3 
	.byte	W48
	.byte		        Cs3 
	.byte		N44   , Gs3 
	.byte	W48
	.byte	PEND
@ 014   ----------------------------------------
	.byte		N92   , Cn3 
	.byte		N92   , Gn3 
	.byte	W96
@ 015   ----------------------------------------
	.byte		        Cn3 
	.byte		N92   , Gn3 
	.byte	W96
@ 016   ----------------------------------------
	.byte		        Cs3 
	.byte		N92   , Gs3 
	.byte	W96
@ 017   ----------------------------------------
	.byte	PATT
	 .word	Emergency_4_013
@ 018   ----------------------------------------
	.byte		N92   , Cn3 , v064
	.byte		N92   , Gn3 
	.byte	W96
@ 019   ----------------------------------------
	.byte	W96
@ 020   ----------------------------------------
	.byte	W96
@ 021   ----------------------------------------
	.byte	W96
@ 022   ----------------------------------------
	.byte	W96
@ 023   ----------------------------------------
	.byte	W96
@ 024   ----------------------------------------
	.byte	W96
@ 025   ----------------------------------------
	.byte	W96
@ 026   ----------------------------------------
	.byte	W96
@ 027   ----------------------------------------
	.byte	W96
@ 028   ----------------------------------------
	.byte	W96
@ 029   ----------------------------------------
	.byte	W96
@ 030   ----------------------------------------
	.byte	W16
	.byte	GOTO
	 .word	Emergency_4_B1
Emergency_4_B2:
	.byte	W80
@ 031   ----------------------------------------
	.byte	W96
@ 032   ----------------------------------------
	.byte	W96
@ 033   ----------------------------------------
	.byte	W96
@ 034   ----------------------------------------
	.byte	W96
@ 035   ----------------------------------------
	.byte	W96
@ 036   ----------------------------------------
	.byte	W96
@ 037   ----------------------------------------
	.byte	W96
@ 038   ----------------------------------------
	.byte	W96
@ 039   ----------------------------------------
	.byte	W96
@ 040   ----------------------------------------
	.byte	W96
@ 041   ----------------------------------------
	.byte	W96
@ 042   ----------------------------------------
	.byte	W96
@ 043   ----------------------------------------
	.byte	W96
@ 044   ----------------------------------------
	.byte	W96
@ 045   ----------------------------------------
	.byte	W96
@ 046   ----------------------------------------
	.byte	W96
@ 047   ----------------------------------------
	.byte	W96
@ 048   ----------------------------------------
	.byte	W96
@ 049   ----------------------------------------
	.byte	W96
@ 050   ----------------------------------------
	.byte	W96
@ 051   ----------------------------------------
	.byte	W96
@ 052   ----------------------------------------
	.byte	W96
@ 053   ----------------------------------------
	.byte	FINE

@**************** Track 5 (Midi-Chn.11) ****************@

Emergency_5:
	.byte	KEYSH , Emergency_key+0
Emergency_5_B1:
@ 000   ----------------------------------------
	.byte		VOICE , 48
	.byte		VOL   , 100*Emergency_mvl/mxv
	.byte		PAN   , c_v+0
	.byte	W24
	.byte		N23   , Gs3 , v048
	.byte		N23   , Cn4 
	.byte		N23   , Ds4 
	.byte		N23   , An4 
	.byte	W24
	.byte		        Gn3 
	.byte		N23   , Bn3 
	.byte		N23   , Dn4 
	.byte		N23   , Gs4 
	.byte	W48
@ 001   ----------------------------------------
	.byte		        Gn3 
	.byte		N23   , Bn3 
	.byte		N23   , Dn4 
	.byte		N23   , Gs4 
	.byte	W24
	.byte		        Fs3 
	.byte		N23   , As3 
	.byte		N23   , Cs4 
	.byte		N23   , Gn4 
	.byte	W48
	.byte		        Fs3 
	.byte		N23   , As3 
	.byte		N23   , Cs4 
	.byte		N23   , Gn4 
	.byte	W24
@ 002   ----------------------------------------
	.byte		        Fs3 
	.byte		N23   , An3 
	.byte		N23   , Cs4 
	.byte		N23   , Fs4 
	.byte	W96
@ 003   ----------------------------------------
	.byte	W96
@ 004   ----------------------------------------
Emergency_5_004:
	.byte		N11   , Fs3 , v048
	.byte	W12
	.byte		        Gs3 
	.byte	W12
	.byte		        An3 
	.byte	W12
	.byte		        Fs3 
	.byte	W12
	.byte		        Gs3 
	.byte	W12
	.byte		        An3 
	.byte	W12
	.byte		        Fn3 
	.byte	W12
	.byte		        Gn3 
	.byte	W12
	.byte	PEND
@ 005   ----------------------------------------
	.byte	PATT
	 .word	Emergency_5_004
@ 006   ----------------------------------------
Emergency_5_006:
	.byte		N11   , Fs3 , v048
	.byte		N11   , Fs4 
	.byte	W12
	.byte		        Gs3 
	.byte		N11   , Gs4 
	.byte	W12
	.byte		        An3 
	.byte		N11   , An4 
	.byte	W12
	.byte		        Fs3 
	.byte		N11   , Fs4 
	.byte	W12
	.byte		        Gs3 
	.byte		N11   , Gs4 
	.byte	W12
	.byte		        An3 
	.byte		N11   , An4 
	.byte	W12
	.byte		        Fn3 
	.byte		N11   , Fn4 
	.byte	W12
	.byte		        Gn3 
	.byte		N11   , Gn4 
	.byte	W12
	.byte	PEND
@ 007   ----------------------------------------
	.byte	PATT
	 .word	Emergency_5_006
@ 008   ----------------------------------------
	.byte		N92   , Fs3 , v048
	.byte		N92   , Fs4 
	.byte	W96
@ 009   ----------------------------------------
	.byte	W96
@ 010   ----------------------------------------
	.byte	W96
@ 011   ----------------------------------------
	.byte	W96
@ 012   ----------------------------------------
	.byte	W96
@ 013   ----------------------------------------
	.byte	W96
@ 014   ----------------------------------------
	.byte		N11   , Cn3 
	.byte		N11   , Cn4 
	.byte	W12
	.byte		        Dn3 
	.byte		N11   , Dn4 
	.byte	W12
	.byte		        Ds3 
	.byte		N11   , Ds4 
	.byte	W12
	.byte		        Cn3 
	.byte		N11   , Cn4 
	.byte	W12
	.byte		        Dn3 
	.byte	W12
	.byte		        Ds3 
	.byte		N11   , Ds4 
	.byte	W12
	.byte		        Bn2 
	.byte		N11   , Bn3 
	.byte	W12
	.byte		        Cs3 
	.byte		N11   , Cs4 
	.byte	W12
@ 015   ----------------------------------------
Emergency_5_015:
	.byte		N11   , Cn3 , v048
	.byte		N11   , Cn4 
	.byte	W12
	.byte		        Dn3 
	.byte		N11   , Dn4 
	.byte	W12
	.byte		        Ds3 
	.byte		N11   , Ds4 
	.byte	W12
	.byte		        Cn3 
	.byte		N11   , Cn4 
	.byte	W12
	.byte		        Fn3 
	.byte		N11   , Fn4 
	.byte	W12
	.byte		        Ds3 
	.byte		N11   , Ds4 
	.byte	W12
	.byte		        Dn3 
	.byte		N11   , Dn4 
	.byte	W12
	.byte		        As2 
	.byte		N11   , As3 
	.byte	W12
	.byte	PEND
@ 016   ----------------------------------------
Emergency_5_016:
	.byte		N11   , Cn3 , v048
	.byte		N11   , Cn4 
	.byte	W12
	.byte		        Dn3 
	.byte		N11   , Dn4 
	.byte	W12
	.byte		        Ds3 
	.byte		N11   , Ds4 
	.byte	W12
	.byte		        Cn3 
	.byte		N11   , Cn4 
	.byte	W12
	.byte		        Dn3 
	.byte		N11   , Dn4 
	.byte	W12
	.byte		        Ds3 
	.byte		N11   , Ds4 
	.byte	W12
	.byte		        Bn2 
	.byte		N11   , Bn3 
	.byte	W12
	.byte		        Cs3 
	.byte		N11   , Cs4 
	.byte	W12
	.byte	PEND
@ 017   ----------------------------------------
	.byte		        Cn3 
	.byte		N11   , Cn4 
	.byte	W12
	.byte		        Cs3 
	.byte		N11   , Cs4 
	.byte	W12
	.byte		        Ds3 
	.byte		N11   , Ds4 
	.byte	W12
	.byte		        Cn3 
	.byte		N11   , Cn4 
	.byte	W12
	.byte		        Fn3 
	.byte		N11   , Fn4 
	.byte	W12
	.byte		        Ds3 
	.byte		N11   , Ds4 
	.byte	W12
	.byte		        Cs3 
	.byte		N11   , Cs4 
	.byte	W12
	.byte		        As2 
	.byte		N11   , As3 
	.byte	W12
@ 018   ----------------------------------------
	.byte	PATT
	 .word	Emergency_5_016
@ 019   ----------------------------------------
	.byte	PATT
	 .word	Emergency_5_015
@ 020   ----------------------------------------
	.byte		N11   , Cn3 , v048
	.byte		N11   , Cn4 
	.byte		N11   , Cn5 
	.byte	W12
	.byte		        Dn3 
	.byte		N11   , Dn4 
	.byte		N11   , Dn5 
	.byte	W12
	.byte		        Ds3 
	.byte		N11   , Ds4 
	.byte		N11   , Ds5 
	.byte	W12
	.byte		        Cn3 
	.byte		N11   , Cn4 
	.byte		N11   , Cn5 
	.byte	W12
	.byte		        Dn3 
	.byte		N11   , Dn4 
	.byte		N11   , Dn5 
	.byte	W12
	.byte		        Ds3 
	.byte		N11   , Ds4 
	.byte		N11   , Ds5 
	.byte	W12
	.byte		        Bn2 
	.byte		N11   , Bn3 
	.byte		N11   , Bn4 
	.byte	W12
	.byte		        Cs3 
	.byte		N11   , Cs4 
	.byte		N11   , Cs5 
	.byte	W12
@ 021   ----------------------------------------
	.byte		        Cn3 
	.byte		N11   , Cn4 
	.byte		N11   , Cn5 
	.byte	W12
	.byte		        Dn3 
	.byte		N11   , Dn4 
	.byte		N11   , Dn5 
	.byte	W12
	.byte		        Ds3 
	.byte		N11   , Ds4 
	.byte		N11   , Ds5 
	.byte	W12
	.byte		        Cn3 
	.byte		N11   , Cn4 
	.byte		N11   , Cn5 
	.byte	W12
	.byte		        Fn3 
	.byte		N11   , Fn4 
	.byte		N11   , Fn5 
	.byte	W12
	.byte		        Ds3 
	.byte		N11   , Ds4 
	.byte		N11   , Ds5 
	.byte	W12
	.byte		        Dn3 
	.byte		N11   , Dn4 
	.byte		N11   , Dn5 
	.byte	W12
	.byte		        As2 
	.byte		N11   , As3 
	.byte		N11   , As4 
	.byte	W12
@ 022   ----------------------------------------
	.byte		TIE   , Cn3 
	.byte		TIE   , Cn4 
	.byte		TIE   , Cn5 
	.byte	W96
@ 023   ----------------------------------------
	.byte	W92
	.byte	W03
	.byte		EOT   , Cn3 
	.byte		        Cn4 
	.byte		        Cn5 
	.byte	W01
@ 024   ----------------------------------------
	.byte	W96
@ 025   ----------------------------------------
	.byte	W96
@ 026   ----------------------------------------
	.byte	W96
@ 027   ----------------------------------------
	.byte		N05   , Ds4 
	.byte	W06
	.byte		        Dn4 
	.byte	W06
	.byte		        Cs4 
	.byte	W06
	.byte		        Cn4 
	.byte	W06
	.byte		        Ds4 
	.byte	W06
	.byte		        Dn4 
	.byte	W06
	.byte		        Cs4 
	.byte	W06
	.byte		        Cn4 
	.byte	W06
	.byte		        Ds4 
	.byte	W06
	.byte		        Dn4 
	.byte	W06
	.byte		        Cs4 
	.byte	W06
	.byte		        Cn4 
	.byte	W06
	.byte		        Ds4 
	.byte	W06
	.byte		        Dn4 
	.byte	W06
	.byte		        Cs4 
	.byte	W06
	.byte		        Cn4 
	.byte	W06
@ 028   ----------------------------------------
	.byte		        Ds4 
	.byte	W06
	.byte		        En4 
	.byte	W06
	.byte		        Fn4 
	.byte	W06
	.byte		        Fs4 
	.byte	W06
	.byte		N23   , Gn4 
	.byte	W24
	.byte		N05   , Fn4 
	.byte	W06
	.byte		        Fs4 
	.byte	W06
	.byte		        Gn4 
	.byte	W06
	.byte		        Gs4 
	.byte	W06
	.byte		N23   , An4 
	.byte	W24
@ 029   ----------------------------------------
	.byte		N05   , Dn4 
	.byte	W06
	.byte		        Ds4 
	.byte	W06
	.byte		        Dn4 
	.byte	W06
	.byte		        Ds4 
	.byte	W06
	.byte		        Dn4 
	.byte	W06
	.byte		        Ds4 
	.byte	W06
	.byte		        Dn4 
	.byte	W06
	.byte		        Ds4 
	.byte	W06
	.byte		        Dn4 
	.byte	W06
	.byte		        Ds4 
	.byte	W06
	.byte		        Dn4 
	.byte	W06
	.byte		        Ds4 
	.byte	W06
	.byte		        Dn4 
	.byte	W06
	.byte		        Ds4 
	.byte	W06
	.byte		        Dn4 
	.byte	W06
	.byte		        Ds4 
	.byte	W06
@ 030   ----------------------------------------
	.byte	W16
	.byte	GOTO
	 .word	Emergency_5_B1
Emergency_5_B2:
	.byte	W80
@ 031   ----------------------------------------
	.byte	W96
@ 032   ----------------------------------------
	.byte	W96
@ 033   ----------------------------------------
	.byte	W96
@ 034   ----------------------------------------
	.byte	W96
@ 035   ----------------------------------------
	.byte	W96
@ 036   ----------------------------------------
	.byte	W96
@ 037   ----------------------------------------
	.byte	W96
@ 038   ----------------------------------------
	.byte	W96
@ 039   ----------------------------------------
	.byte	W96
@ 040   ----------------------------------------
	.byte	W96
@ 041   ----------------------------------------
	.byte	W96
@ 042   ----------------------------------------
	.byte	W96
@ 043   ----------------------------------------
	.byte	W96
@ 044   ----------------------------------------
	.byte	W96
@ 045   ----------------------------------------
	.byte	W96
@ 046   ----------------------------------------
	.byte	W96
@ 047   ----------------------------------------
	.byte	W96
@ 048   ----------------------------------------
	.byte	W96
@ 049   ----------------------------------------
	.byte	W96
@ 050   ----------------------------------------
	.byte	W96
@ 051   ----------------------------------------
	.byte	W96
@ 052   ----------------------------------------
	.byte	W96
@ 053   ----------------------------------------
	.byte	FINE

@**************** Track 6 (Midi-Chn.13) ****************@

Emergency_6:
	.byte	KEYSH , Emergency_key+0
Emergency_6_B1:
@ 000   ----------------------------------------
	.byte		VOICE , 48
	.byte		VOL   , 100*Emergency_mvl/mxv
	.byte		PAN   , c_v+0
	.byte	W24
	.byte		N23   , An1 , v048
	.byte		N23   , En2 
	.byte		N23   , An2 
	.byte	W24
	.byte		        Gs1 
	.byte		N23   , Ds2 
	.byte		N23   , Gs2 
	.byte	W48
@ 001   ----------------------------------------
	.byte		        Gs1 
	.byte		N23   , Ds2 
	.byte		N23   , Gs2 
	.byte	W24
	.byte		        Gn1 
	.byte		N23   , Dn2 
	.byte		N23   , Gn2 
	.byte	W48
	.byte		        Gn1 
	.byte		N23   , Dn2 
	.byte		N23   , Gn2 
	.byte	W24
@ 002   ----------------------------------------
	.byte		        Fs1 
	.byte		N23   , Cs2 
	.byte		N23   , Fs2 
	.byte	W96
@ 003   ----------------------------------------
	.byte	W96
@ 004   ----------------------------------------
Emergency_6_004:
	.byte		N11   , Fs2 , v048
	.byte	W12
	.byte		        Gs2 
	.byte	W12
	.byte		        An2 
	.byte	W12
	.byte		        Fs2 
	.byte	W12
	.byte		        Gs2 
	.byte	W12
	.byte		        An2 
	.byte	W12
	.byte		        Fn2 
	.byte	W12
	.byte		        Gn2 
	.byte	W12
	.byte	PEND
@ 005   ----------------------------------------
	.byte	PATT
	 .word	Emergency_6_004
@ 006   ----------------------------------------
	.byte	PATT
	 .word	Emergency_6_004
@ 007   ----------------------------------------
	.byte	PATT
	 .word	Emergency_6_004
@ 008   ----------------------------------------
	.byte		N92   , Fs2 , v048
	.byte	W96
@ 009   ----------------------------------------
	.byte	W96
@ 010   ----------------------------------------
	.byte	W96
@ 011   ----------------------------------------
	.byte	W96
@ 012   ----------------------------------------
	.byte	W96
@ 013   ----------------------------------------
	.byte	W96
@ 014   ----------------------------------------
	.byte	W96
@ 015   ----------------------------------------
	.byte	W96
@ 016   ----------------------------------------
	.byte	W96
@ 017   ----------------------------------------
	.byte	W96
@ 018   ----------------------------------------
	.byte	W96
@ 019   ----------------------------------------
	.byte	W96
@ 020   ----------------------------------------
	.byte	W96
@ 021   ----------------------------------------
	.byte	W96
@ 022   ----------------------------------------
	.byte	W96
@ 023   ----------------------------------------
	.byte	W96
@ 024   ----------------------------------------
	.byte	W96
@ 025   ----------------------------------------
	.byte	W96
@ 026   ----------------------------------------
	.byte	W96
@ 027   ----------------------------------------
	.byte	W96
@ 028   ----------------------------------------
	.byte	W96
@ 029   ----------------------------------------
	.byte	W96
@ 030   ----------------------------------------
	.byte	W16
	.byte	GOTO
	 .word	Emergency_6_B1
Emergency_6_B2:
	.byte	W80
@ 031   ----------------------------------------
	.byte	W96
@ 032   ----------------------------------------
	.byte	W96
@ 033   ----------------------------------------
	.byte	W96
@ 034   ----------------------------------------
	.byte	W96
@ 035   ----------------------------------------
	.byte	W96
@ 036   ----------------------------------------
	.byte	W96
@ 037   ----------------------------------------
	.byte	W96
@ 038   ----------------------------------------
	.byte	W96
@ 039   ----------------------------------------
	.byte	W96
@ 040   ----------------------------------------
	.byte	W96
@ 041   ----------------------------------------
	.byte	W96
@ 042   ----------------------------------------
	.byte	W96
@ 043   ----------------------------------------
	.byte	W96
@ 044   ----------------------------------------
	.byte	W96
@ 045   ----------------------------------------
	.byte	W96
@ 046   ----------------------------------------
	.byte	W96
@ 047   ----------------------------------------
	.byte	W96
@ 048   ----------------------------------------
	.byte	W96
@ 049   ----------------------------------------
	.byte	W96
@ 050   ----------------------------------------
	.byte	W96
@ 051   ----------------------------------------
	.byte	W96
@ 052   ----------------------------------------
	.byte	W96
@ 053   ----------------------------------------
	.byte	FINE

@**************** Track 7 (Midi-Chn.14) ****************@

Emergency_7:
	.byte	KEYSH , Emergency_key+0
Emergency_7_B1:
@ 000   ----------------------------------------
	.byte		VOICE , 0
	.byte		VOL   , 100*Emergency_mvl/mxv
	.byte		PAN   , c_v+0
	.byte		N22   , An0 , v044
	.byte		N22   , An1 
	.byte	W72
	.byte		        Gs0 
	.byte		N22   , Gs1 
	.byte	W24
@ 001   ----------------------------------------
	.byte	W48
	.byte		        Gn0 
	.byte		N22   , Gn1 
	.byte	W48
@ 002   ----------------------------------------
Emergency_7_002:
	.byte		N11   , Fs0 , v044
	.byte		N11   , Fs1 
	.byte	W12
	.byte		        Gs0 
	.byte		N11   , Gs1 
	.byte	W12
	.byte		        An0 
	.byte		N11   , An1 
	.byte	W12
	.byte		        Fs0 
	.byte		N11   , Fs1 
	.byte	W12
	.byte		        Gs0 
	.byte		N11   , Gs1 
	.byte	W12
	.byte		        An0 
	.byte		N11   , An1 
	.byte	W12
	.byte		        Fn0 
	.byte		N11   , Fn1 
	.byte	W12
	.byte		        Gn0 
	.byte		N11   , Gn1 
	.byte	W12
	.byte	PEND
@ 003   ----------------------------------------
	.byte	PATT
	 .word	Emergency_7_002
@ 004   ----------------------------------------
	.byte	PATT
	 .word	Emergency_7_002
@ 005   ----------------------------------------
	.byte	PATT
	 .word	Emergency_7_002
@ 006   ----------------------------------------
	.byte	PATT
	 .word	Emergency_7_002
@ 007   ----------------------------------------
	.byte	PATT
	 .word	Emergency_7_002
@ 008   ----------------------------------------
	.byte		TIE   , Fs0 , v044
	.byte		TIE   , Fs1 
	.byte	W96
@ 009   ----------------------------------------
	.byte	W84
	.byte	W02
	.byte		EOT   , Fs0 
	.byte		        Fs1 
	.byte	W10
@ 010   ----------------------------------------
Emergency_7_010:
	.byte		N11   , Cn1 , v044
	.byte		N11   , Cn2 
	.byte	W12
	.byte		        Dn1 
	.byte		N11   , Dn2 
	.byte	W12
	.byte		        Ds1 
	.byte		N11   , Ds2 
	.byte	W12
	.byte		        Cn1 
	.byte		N11   , Cn2 
	.byte	W12
	.byte		        Dn1 
	.byte		N11   , Dn2 
	.byte	W12
	.byte		        Ds1 
	.byte		N11   , Ds2 
	.byte	W12
	.byte		        Bn0 
	.byte		N11   , Bn1 
	.byte	W12
	.byte		        Cs1 
	.byte		N11   , Cs2 
	.byte	W12
	.byte	PEND
@ 011   ----------------------------------------
Emergency_7_011:
	.byte		N11   , Cn1 , v044
	.byte		N11   , Cn2 
	.byte	W12
	.byte		        Dn1 
	.byte		N11   , Dn2 
	.byte	W12
	.byte		        Ds1 
	.byte		N11   , Ds2 
	.byte	W12
	.byte		        Cn1 
	.byte		N11   , Cn2 
	.byte	W12
	.byte		        Fn1 
	.byte		N11   , Fn2 
	.byte	W12
	.byte		        Ds1 
	.byte		N11   , Ds2 
	.byte	W12
	.byte		        Dn1 
	.byte		N11   , Dn2 
	.byte	W12
	.byte		        As0 
	.byte		N11   , As1 
	.byte	W12
	.byte	PEND
@ 012   ----------------------------------------
	.byte	PATT
	 .word	Emergency_7_010
@ 013   ----------------------------------------
Emergency_7_013:
	.byte		N11   , Cn1 , v044
	.byte		N11   , Cn2 
	.byte	W12
	.byte		        Cs1 
	.byte		N11   , Cs2 
	.byte	W12
	.byte		        Ds1 
	.byte		N11   , Ds2 
	.byte	W12
	.byte		        Cn1 
	.byte		N11   , Cn2 
	.byte	W12
	.byte		        Fn1 
	.byte		N11   , Fn2 
	.byte	W12
	.byte		        Ds1 
	.byte		N11   , Ds2 
	.byte	W12
	.byte		        Cs1 
	.byte		N11   , Cs2 
	.byte	W12
	.byte		        As0 
	.byte		N11   , As1 
	.byte	W12
	.byte	PEND
@ 014   ----------------------------------------
	.byte	PATT
	 .word	Emergency_7_010
@ 015   ----------------------------------------
	.byte	PATT
	 .word	Emergency_7_011
@ 016   ----------------------------------------
	.byte	PATT
	 .word	Emergency_7_010
@ 017   ----------------------------------------
	.byte	PATT
	 .word	Emergency_7_013
@ 018   ----------------------------------------
	.byte	PATT
	 .word	Emergency_7_010
@ 019   ----------------------------------------
	.byte	PATT
	 .word	Emergency_7_011
@ 020   ----------------------------------------
	.byte	PATT
	 .word	Emergency_7_010
@ 021   ----------------------------------------
	.byte	PATT
	 .word	Emergency_7_011
@ 022   ----------------------------------------
	.byte		TIE   , Cn1 , v044
	.byte		TIE   , Cn2 
	.byte	W96
@ 023   ----------------------------------------
	.byte	W84
	.byte	W02
	.byte		EOT   , Cn1 
	.byte		        Cn2 
	.byte	W10
@ 024   ----------------------------------------
	.byte	W96
@ 025   ----------------------------------------
	.byte	W96
@ 026   ----------------------------------------
	.byte	W96
@ 027   ----------------------------------------
	.byte	W96
@ 028   ----------------------------------------
	.byte	W96
@ 029   ----------------------------------------
	.byte	W96
@ 030   ----------------------------------------
	.byte	W16
	.byte	GOTO
	 .word	Emergency_7_B1
Emergency_7_B2:
	.byte	W80
@ 031   ----------------------------------------
	.byte	W96
@ 032   ----------------------------------------
	.byte	W96
@ 033   ----------------------------------------
	.byte	W96
@ 034   ----------------------------------------
	.byte	W96
@ 035   ----------------------------------------
	.byte	W96
@ 036   ----------------------------------------
	.byte	W96
@ 037   ----------------------------------------
	.byte	W96
@ 038   ----------------------------------------
	.byte	W96
@ 039   ----------------------------------------
	.byte	W96
@ 040   ----------------------------------------
	.byte	W96
@ 041   ----------------------------------------
	.byte	W96
@ 042   ----------------------------------------
	.byte	W96
@ 043   ----------------------------------------
	.byte	W96
@ 044   ----------------------------------------
	.byte	W96
@ 045   ----------------------------------------
	.byte	W96
@ 046   ----------------------------------------
	.byte	W96
@ 047   ----------------------------------------
	.byte	W96
@ 048   ----------------------------------------
	.byte	W96
@ 049   ----------------------------------------
	.byte	W96
@ 050   ----------------------------------------
	.byte	W96
@ 051   ----------------------------------------
	.byte	W96
@ 052   ----------------------------------------
	.byte	W96
@ 053   ----------------------------------------
	.byte	FINE

@******************************************************@
	.align	2

songEmergency:
	.byte	7	@ NumTrks
	.byte	0	@ NumBlks
	.byte	Emergency_pri	@ Priority
	.byte	Emergency_rev	@ Reverb.

	.word	Emergency_grp

	.word	Emergency_1
	.word	Emergency_2
	.word	Emergency_3
	.word	Emergency_4
	.word	Emergency_5
	.word	Emergency_6
	.word	Emergency_7

	.end
