//Event file generated from Sappy .s format.
	#include "MPlayDef.event"

	#define	Emergency_grp  voicegroup000
	#define	Emergency_pri  0
	#define	Emergency_rev  0
	#define	Emergency_mvl  127
	#define	Emergency_key  0
	#define	Emergency_tbs  1
	#define	Emergency_exg  0
	#define	Emergency_cmp  1

	// .rodata
	//	Emergency
	ALIGN 4

//**************** Track 1 (Midi-Chn.3) ****************//

Emergency_1:
	BYTE	KEYSH   Emergency_key+0
Emergency_1_B1:
// 000   ----------------------------------------
	BYTE	TEMPO   160*Emergency_tbs/2
	BYTE		VOICE   0
	BYTE		VOL     100*Emergency_mvl/mxv
	BYTE		PAN     c_v+0
	BYTE	W96
// 001   ----------------------------------------
	BYTE	W96
// 002   ----------------------------------------
	BYTE	W96
// 003   ----------------------------------------
	BYTE	W96
// 004   ----------------------------------------
	BYTE	W96
// 005   ----------------------------------------
	BYTE	W96
// 006   ----------------------------------------
	BYTE	W96
// 007   ----------------------------------------
	BYTE	W96
// 008   ----------------------------------------
	BYTE	W96
// 009   ----------------------------------------
	BYTE	W96
// 010   ----------------------------------------
	BYTE	W96
// 011   ----------------------------------------
	BYTE	W96
// 012   ----------------------------------------
	BYTE	W96
// 013   ----------------------------------------
	BYTE	W96
// 014   ----------------------------------------
	BYTE	W96
// 015   ----------------------------------------
	BYTE	W96
// 016   ----------------------------------------
	BYTE	W96
// 017   ----------------------------------------
	BYTE	W96
// 018   ----------------------------------------
	BYTE	W96
// 019   ----------------------------------------
	BYTE	W96
// 020   ----------------------------------------
	BYTE	W96
// 021   ----------------------------------------
	BYTE	W96
// 022   ----------------------------------------
	BYTE	W96
// 023   ----------------------------------------
	BYTE	W96
// 024   ----------------------------------------
	BYTE	W96
// 025   ----------------------------------------
	BYTE	W96
// 026   ----------------------------------------
	BYTE		N05     Ds1   v044
	BYTE		N05     Ds2 
	BYTE	W12
	BYTE		        Dn1 
	BYTE		N05     Dn2 
	BYTE	W12
	BYTE		        Cs1 
	BYTE		N05     Cs2 
	BYTE	W12
	BYTE		        Ds1 
	BYTE		N05     Ds2 
	BYTE	W12
	BYTE		        Dn1 
	BYTE		N05     Dn2 
	BYTE	W12
	BYTE		        Cs1 
	BYTE		N05     Cs2 
	BYTE	W12
	BYTE		N11     Ds1 
	BYTE		N11     Ds2 
	BYTE	W12
	BYTE		        Dn1 
	BYTE		N11     Dn2 
	BYTE	W12
// 027   ----------------------------------------
	BYTE		N05     Ds1 
	BYTE		N05     Ds2 
	BYTE	W12
	BYTE		        Dn1 
	BYTE		N05     Dn2 
	BYTE	W12
	BYTE		        Cs1 
	BYTE		N05     Cs2 
	BYTE	W12
	BYTE		        Cn1 
	BYTE		N05     Cn2 
	BYTE	W12
	BYTE		        Bn0 
	BYTE		N05     Bn1 
	BYTE	W12
	BYTE		        As0 
	BYTE		N05     As1 
	BYTE	W12
	BYTE		        An0 
	BYTE		N05     An1 
	BYTE	W12
	BYTE		        Gs0 
	BYTE		N05     Gs1 
	BYTE	W12
// 028   ----------------------------------------
	BYTE		N11     Gn0 
	BYTE		N11     Gn1 
	BYTE	W12
	BYTE		        Fs0 
	BYTE		N11     Fs1 
	BYTE	W12
	BYTE		        Gn0 
	BYTE		N11     Gn1 
	BYTE	W12
	BYTE		N05     Gs0 
	BYTE		N05     Gs1 
	BYTE	W12
	BYTE		N11     An0 
	BYTE		N11     An1 
	BYTE	W12
	BYTE		        Gs0 
	BYTE		N11     Gs1 
	BYTE	W12
	BYTE		        An0 
	BYTE		N11     An1 
	BYTE	W12
	BYTE		N05     As0 
	BYTE		N05     As1 
	BYTE	W12
// 029   ----------------------------------------
	BYTE		N11     Bn0 
	BYTE		N11     Bn1 
	BYTE	W12
	BYTE		N05     Cn1 
	BYTE		N05     Cn2 
	BYTE	W12
	BYTE		N11     Cs1 
	BYTE		N11     Cs2 
	BYTE	W12
	BYTE		N05     Dn1 
	BYTE		N05     Dn2 
	BYTE	W12
	BYTE		        Ds1 
	BYTE		N05     Ds2 
	BYTE	W06
	BYTE		        Dn1 
	BYTE		N05     Dn2 
	BYTE	W06
	BYTE		        Cs1 
	BYTE		N05     Cs2 
	BYTE	W06
	BYTE		        Cn1 
	BYTE		N05     Cn2 
	BYTE	W06
	BYTE		        Bn0 
	BYTE		N05     Bn1 
	BYTE	W06
	BYTE		        As0 
	BYTE		N05     As1 
	BYTE	W06
	BYTE		        An0 
	BYTE		N05     An1 
	BYTE	W12
// 030   ----------------------------------------
	BYTE	W16
	BYTE	GoTo
	 POIN2	Emergency_1_B1
Emergency_1_B2:
	BYTE	W80
// 031   ----------------------------------------
	BYTE	W96
// 032   ----------------------------------------
	BYTE	W96
// 033   ----------------------------------------
	BYTE	W96
// 034   ----------------------------------------
	BYTE	W96
// 035   ----------------------------------------
	BYTE	W96
// 036   ----------------------------------------
	BYTE	W96
// 037   ----------------------------------------
	BYTE	W96
// 038   ----------------------------------------
	BYTE	W96
// 039   ----------------------------------------
	BYTE	W96
// 040   ----------------------------------------
	BYTE	W96
// 041   ----------------------------------------
	BYTE	W96
// 042   ----------------------------------------
	BYTE	W96
// 043   ----------------------------------------
	BYTE	W96
// 044   ----------------------------------------
	BYTE	W96
// 045   ----------------------------------------
	BYTE	W96
// 046   ----------------------------------------
	BYTE	W96
// 047   ----------------------------------------
	BYTE	W96
// 048   ----------------------------------------
	BYTE	W96
// 049   ----------------------------------------
	BYTE	W96
// 050   ----------------------------------------
	BYTE	W96
// 051   ----------------------------------------
	BYTE	W96
// 052   ----------------------------------------
	BYTE	W96
// 053   ----------------------------------------
	BYTE	FINE

//**************** Track 2 (Midi-Chn.5) ****************//

Emergency_2:
	BYTE	KEYSH   Emergency_key+0
Emergency_2_B1:
// 000   ----------------------------------------
	BYTE		VOICE   56
	BYTE		VOL     100*Emergency_mvl/mxv
	BYTE		PAN     c_v+0
	BYTE	W96
// 001   ----------------------------------------
	BYTE	W96
// 002   ----------------------------------------
	BYTE	W96
// 003   ----------------------------------------
Emergency_2_003:
	BYTE	W48
	BYTE		N02     Bn3   v064
	BYTE		N02     Cs4 
	BYTE	W06
	BYTE		        Bn3 
	BYTE		N02     Cs4 
	BYTE	W06
	BYTE		        Bn3 
	BYTE		N02     Cs4 
	BYTE	W06
	BYTE		        Bn3 
	BYTE		N02     Cs4 
	BYTE	W06
	BYTE		        Bn3 
	BYTE		N02     Cs4 
	BYTE	W06
	BYTE		        Bn3 
	BYTE		N02     Cs4 
	BYTE	W06
	BYTE		        Bn3 
	BYTE		N02     Cs4 
	BYTE	W06
	BYTE		        Bn3 
	BYTE		N02     Cs4 
	BYTE	W06
	BYTE	PEND
// 004   ----------------------------------------
Emergency_2_004:
	BYTE		N11     Cn4   v064
	BYTE		N11     Dn4 
	BYTE	W12
	BYTE		N05     Bn3 
	BYTE		N05     Cs4 
	BYTE	W84
	BYTE	PEND
// 005   ----------------------------------------
	BYTE	PATT
	 POIN2	Emergency_2_003
// 006   ----------------------------------------
	BYTE	PATT
	 POIN2	Emergency_2_004
// 007   ----------------------------------------
	BYTE	PATT
	 POIN2	Emergency_2_004
// 008   ----------------------------------------
	BYTE	W48
	BYTE		N44     Cs3   v064
	BYTE		N44     Fs3 
	BYTE		N44     An3 
	BYTE	W48
// 009   ----------------------------------------
	BYTE		        Cs3 
	BYTE		N44     Fn3 
	BYTE		N44     Gs3 
	BYTE	W48
	BYTE		        En3 
	BYTE		N44     Gs3 
	BYTE		N44     Cs4 
	BYTE	W48
// 010   ----------------------------------------
	BYTE		N92     Ds3 
	BYTE		N92     Gn3 
	BYTE		N92     Cn4 
	BYTE	W96
// 011   ----------------------------------------
	BYTE	W96
// 012   ----------------------------------------
	BYTE	W96
// 013   ----------------------------------------
	BYTE	W96
// 014   ----------------------------------------
	BYTE	W96
// 015   ----------------------------------------
	BYTE		N44   
	BYTE	W48
	BYTE		N44   
	BYTE		N44     Gn4 
	BYTE	W48
// 016   ----------------------------------------
	BYTE		N92     Cs4 
	BYTE		N92     Gs4 
	BYTE	W96
// 017   ----------------------------------------
	BYTE		N44     Ds4 
	BYTE		N44     As4 
	BYTE	W48
	BYTE		        Cs4 
	BYTE		N44     Gs4 
	BYTE	W48
// 018   ----------------------------------------
	BYTE		N92     Cn4 
	BYTE		N92     Gn4 
	BYTE	W96
// 019   ----------------------------------------
	BYTE		        Fn4 
	BYTE		N92     Fs4 
	BYTE	W96
// 020   ----------------------------------------
	BYTE	W96
// 021   ----------------------------------------
	BYTE	W96
// 022   ----------------------------------------
	BYTE	W48
	BYTE		N44     Cn3 
	BYTE		N44     Fs3 
	BYTE	W48
// 023   ----------------------------------------
	BYTE		        Cs3 
	BYTE		N44     Gn3 
	BYTE	W48
	BYTE		        Dn3 
	BYTE		N44     Gs3 
	BYTE	W48
// 024   ----------------------------------------
	BYTE		        En2 
	BYTE		N44     Ds3 
	BYTE		N44     An3 
	BYTE	W48
	BYTE		        Fn2 
	BYTE		N44     En3 
	BYTE		N44     As3 
	BYTE	W48
// 025   ----------------------------------------
	BYTE		N23     Fs2 
	BYTE		N23     Fn3 
	BYTE		N23     Bn3 
	BYTE	W24
	BYTE		        Gn2 
	BYTE		N23     Fs3 
	BYTE		N23     Cn4 
	BYTE	W24
	BYTE		        Gs2 
	BYTE		N23     Gn3 
	BYTE		N23     Cs4 
	BYTE	W24
	BYTE		        An2 
	BYTE		N23     Gs3 
	BYTE		N23     Dn4 
	BYTE	W24
// 026   ----------------------------------------
	BYTE		N92     As2 
	BYTE		N92     Gs3 
	BYTE		N92     Ds4 
	BYTE	W96
// 027   ----------------------------------------
	BYTE	W96
// 028   ----------------------------------------
	BYTE	W96
// 029   ----------------------------------------
	BYTE	W96
// 030   ----------------------------------------
	BYTE	W16
	BYTE	GoTo
	 POIN2	Emergency_2_B1
Emergency_2_B2:
	BYTE	W80
// 031   ----------------------------------------
	BYTE	W96
// 032   ----------------------------------------
	BYTE	W96
// 033   ----------------------------------------
	BYTE	W96
// 034   ----------------------------------------
	BYTE	W96
// 035   ----------------------------------------
	BYTE	W96
// 036   ----------------------------------------
	BYTE	W96
// 037   ----------------------------------------
	BYTE	W96
// 038   ----------------------------------------
	BYTE	W96
// 039   ----------------------------------------
	BYTE	W96
// 040   ----------------------------------------
	BYTE	W96
// 041   ----------------------------------------
	BYTE	W96
// 042   ----------------------------------------
	BYTE	W96
// 043   ----------------------------------------
	BYTE	W96
// 044   ----------------------------------------
	BYTE	W96
// 045   ----------------------------------------
	BYTE	W96
// 046   ----------------------------------------
	BYTE	W96
// 047   ----------------------------------------
	BYTE	W96
// 048   ----------------------------------------
	BYTE	W96
// 049   ----------------------------------------
	BYTE	W96
// 050   ----------------------------------------
	BYTE	W96
// 051   ----------------------------------------
	BYTE	W96
// 052   ----------------------------------------
	BYTE	W96
// 053   ----------------------------------------
	BYTE	FINE

//**************** Track 3 (Midi-Chn.7) ****************//

Emergency_3:
	BYTE	KEYSH   Emergency_key+0
Emergency_3_B1:
// 000   ----------------------------------------
	BYTE		VOICE   56
	BYTE		VOL     100*Emergency_mvl/mxv
	BYTE		PAN     c_v+0
	BYTE	W96
// 001   ----------------------------------------
	BYTE	W96
// 002   ----------------------------------------
	BYTE	W96
// 003   ----------------------------------------
	BYTE	W96
// 004   ----------------------------------------
	BYTE	W96
// 005   ----------------------------------------
	BYTE	W96
// 006   ----------------------------------------
	BYTE	W96
// 007   ----------------------------------------
	BYTE	W96
// 008   ----------------------------------------
	BYTE	W96
// 009   ----------------------------------------
	BYTE	W96
// 010   ----------------------------------------
	BYTE	W96
// 011   ----------------------------------------
	BYTE	W96
// 012   ----------------------------------------
	BYTE	W96
// 013   ----------------------------------------
	BYTE	W96
// 014   ----------------------------------------
	BYTE	W96
// 015   ----------------------------------------
	BYTE	W96
// 016   ----------------------------------------
	BYTE	W96
// 017   ----------------------------------------
	BYTE	W96
// 018   ----------------------------------------
	BYTE	W96
// 019   ----------------------------------------
	BYTE	W96
// 020   ----------------------------------------
	BYTE	W96
// 021   ----------------------------------------
	BYTE	W96
// 022   ----------------------------------------
	BYTE	W96
// 023   ----------------------------------------
	BYTE	W96
// 024   ----------------------------------------
	BYTE	W96
// 025   ----------------------------------------
	BYTE		N23     Bn1   v064
	BYTE	W24
	BYTE		        Cn2 
	BYTE	W24
	BYTE		        Cs2 
	BYTE	W24
	BYTE		        Dn2 
	BYTE	W24
// 026   ----------------------------------------
	BYTE		N92     Ds2 
	BYTE	W96
// 027   ----------------------------------------
	BYTE	W96
// 028   ----------------------------------------
	BYTE		N23     Fs2 
	BYTE	W24
	BYTE		        Gn2 
	BYTE	W24
	BYTE		        Gs2 
	BYTE	W24
	BYTE		        An2 
	BYTE	W24
// 029   ----------------------------------------
	BYTE		N92     Dn2 
	BYTE		N92     An2 
	BYTE	W96
// 030   ----------------------------------------
	BYTE	W16
	BYTE	GoTo
	 POIN2	Emergency_3_B1
Emergency_3_B2:
	BYTE	W80
// 031   ----------------------------------------
	BYTE	W96
// 032   ----------------------------------------
	BYTE	W96
// 033   ----------------------------------------
	BYTE	W96
// 034   ----------------------------------------
	BYTE	W96
// 035   ----------------------------------------
	BYTE	W96
// 036   ----------------------------------------
	BYTE	W96
// 037   ----------------------------------------
	BYTE	W96
// 038   ----------------------------------------
	BYTE	W96
// 039   ----------------------------------------
	BYTE	W96
// 040   ----------------------------------------
	BYTE	W96
// 041   ----------------------------------------
	BYTE	W96
// 042   ----------------------------------------
	BYTE	W96
// 043   ----------------------------------------
	BYTE	W96
// 044   ----------------------------------------
	BYTE	W96
// 045   ----------------------------------------
	BYTE	W96
// 046   ----------------------------------------
	BYTE	W96
// 047   ----------------------------------------
	BYTE	W96
// 048   ----------------------------------------
	BYTE	W96
// 049   ----------------------------------------
	BYTE	W96
// 050   ----------------------------------------
	BYTE	W96
// 051   ----------------------------------------
	BYTE	W96
// 052   ----------------------------------------
	BYTE	W96
// 053   ----------------------------------------
	BYTE	FINE

//**************** Track 4 (Midi-Chn.9) ****************//

Emergency_4:
	BYTE	KEYSH   Emergency_key+0
Emergency_4_B1:
// 000   ----------------------------------------
	BYTE		VOICE   60
	BYTE		VOL     100*Emergency_mvl/mxv
	BYTE		PAN     c_v+0
	BYTE	W96
// 001   ----------------------------------------
	BYTE	W96
// 002   ----------------------------------------
	BYTE	W96
// 003   ----------------------------------------
	BYTE	W96
// 004   ----------------------------------------
	BYTE	W96
// 005   ----------------------------------------
	BYTE	W96
// 006   ----------------------------------------
	BYTE	W96
// 007   ----------------------------------------
	BYTE	W96
// 008   ----------------------------------------
	BYTE	W96
// 009   ----------------------------------------
	BYTE	W96
// 010   ----------------------------------------
	BYTE	W96
// 011   ----------------------------------------
	BYTE	W48
	BYTE		N44     Cn3   v064
	BYTE		N44     Gn3 
	BYTE	W48
// 012   ----------------------------------------
	BYTE		N92     Cs3 
	BYTE		N92     Gs3 
	BYTE	W96
// 013   ----------------------------------------
Emergency_4_013:
	BYTE		N44     Ds3   v064
	BYTE		N44     As3 
	BYTE	W48
	BYTE		        Cs3 
	BYTE		N44     Gs3 
	BYTE	W48
	BYTE	PEND
// 014   ----------------------------------------
	BYTE		N92     Cn3 
	BYTE		N92     Gn3 
	BYTE	W96
// 015   ----------------------------------------
	BYTE		        Cn3 
	BYTE		N92     Gn3 
	BYTE	W96
// 016   ----------------------------------------
	BYTE		        Cs3 
	BYTE		N92     Gs3 
	BYTE	W96
// 017   ----------------------------------------
	BYTE	PATT
	 POIN2	Emergency_4_013
// 018   ----------------------------------------
	BYTE		N92     Cn3   v064
	BYTE		N92     Gn3 
	BYTE	W96
// 019   ----------------------------------------
	BYTE	W96
// 020   ----------------------------------------
	BYTE	W96
// 021   ----------------------------------------
	BYTE	W96
// 022   ----------------------------------------
	BYTE	W96
// 023   ----------------------------------------
	BYTE	W96
// 024   ----------------------------------------
	BYTE	W96
// 025   ----------------------------------------
	BYTE	W96
// 026   ----------------------------------------
	BYTE	W96
// 027   ----------------------------------------
	BYTE	W96
// 028   ----------------------------------------
	BYTE	W96
// 029   ----------------------------------------
	BYTE	W96
// 030   ----------------------------------------
	BYTE	W16
	BYTE	GoTo
	 POIN2	Emergency_4_B1
Emergency_4_B2:
	BYTE	W80
// 031   ----------------------------------------
	BYTE	W96
// 032   ----------------------------------------
	BYTE	W96
// 033   ----------------------------------------
	BYTE	W96
// 034   ----------------------------------------
	BYTE	W96
// 035   ----------------------------------------
	BYTE	W96
// 036   ----------------------------------------
	BYTE	W96
// 037   ----------------------------------------
	BYTE	W96
// 038   ----------------------------------------
	BYTE	W96
// 039   ----------------------------------------
	BYTE	W96
// 040   ----------------------------------------
	BYTE	W96
// 041   ----------------------------------------
	BYTE	W96
// 042   ----------------------------------------
	BYTE	W96
// 043   ----------------------------------------
	BYTE	W96
// 044   ----------------------------------------
	BYTE	W96
// 045   ----------------------------------------
	BYTE	W96
// 046   ----------------------------------------
	BYTE	W96
// 047   ----------------------------------------
	BYTE	W96
// 048   ----------------------------------------
	BYTE	W96
// 049   ----------------------------------------
	BYTE	W96
// 050   ----------------------------------------
	BYTE	W96
// 051   ----------------------------------------
	BYTE	W96
// 052   ----------------------------------------
	BYTE	W96
// 053   ----------------------------------------
	BYTE	FINE

//**************** Track 5 (Midi-Chn.11) ****************//

Emergency_5:
	BYTE	KEYSH   Emergency_key+0
Emergency_5_B1:
// 000   ----------------------------------------
	BYTE		VOICE   48
	BYTE		VOL     100*Emergency_mvl/mxv
	BYTE		PAN     c_v+0
	BYTE	W24
	BYTE		N23     Gs3   v048
	BYTE		N23     Cn4 
	BYTE		N23     Ds4 
	BYTE		N23     An4 
	BYTE	W24
	BYTE		        Gn3 
	BYTE		N23     Bn3 
	BYTE		N23     Dn4 
	BYTE		N23     Gs4 
	BYTE	W48
// 001   ----------------------------------------
	BYTE		        Gn3 
	BYTE		N23     Bn3 
	BYTE		N23     Dn4 
	BYTE		N23     Gs4 
	BYTE	W24
	BYTE		        Fs3 
	BYTE		N23     As3 
	BYTE		N23     Cs4 
	BYTE		N23     Gn4 
	BYTE	W48
	BYTE		        Fs3 
	BYTE		N23     As3 
	BYTE		N23     Cs4 
	BYTE		N23     Gn4 
	BYTE	W24
// 002   ----------------------------------------
	BYTE		        Fs3 
	BYTE		N23     An3 
	BYTE		N23     Cs4 
	BYTE		N23     Fs4 
	BYTE	W96
// 003   ----------------------------------------
	BYTE	W96
// 004   ----------------------------------------
Emergency_5_004:
	BYTE		N11     Fs3   v048
	BYTE	W12
	BYTE		        Gs3 
	BYTE	W12
	BYTE		        An3 
	BYTE	W12
	BYTE		        Fs3 
	BYTE	W12
	BYTE		        Gs3 
	BYTE	W12
	BYTE		        An3 
	BYTE	W12
	BYTE		        Fn3 
	BYTE	W12
	BYTE		        Gn3 
	BYTE	W12
	BYTE	PEND
// 005   ----------------------------------------
	BYTE	PATT
	 POIN2	Emergency_5_004
// 006   ----------------------------------------
Emergency_5_006:
	BYTE		N11     Fs3   v048
	BYTE		N11     Fs4 
	BYTE	W12
	BYTE		        Gs3 
	BYTE		N11     Gs4 
	BYTE	W12
	BYTE		        An3 
	BYTE		N11     An4 
	BYTE	W12
	BYTE		        Fs3 
	BYTE		N11     Fs4 
	BYTE	W12
	BYTE		        Gs3 
	BYTE		N11     Gs4 
	BYTE	W12
	BYTE		        An3 
	BYTE		N11     An4 
	BYTE	W12
	BYTE		        Fn3 
	BYTE		N11     Fn4 
	BYTE	W12
	BYTE		        Gn3 
	BYTE		N11     Gn4 
	BYTE	W12
	BYTE	PEND
// 007   ----------------------------------------
	BYTE	PATT
	 POIN2	Emergency_5_006
// 008   ----------------------------------------
	BYTE		N92     Fs3   v048
	BYTE		N92     Fs4 
	BYTE	W96
// 009   ----------------------------------------
	BYTE	W96
// 010   ----------------------------------------
	BYTE	W96
// 011   ----------------------------------------
	BYTE	W96
// 012   ----------------------------------------
	BYTE	W96
// 013   ----------------------------------------
	BYTE	W96
// 014   ----------------------------------------
	BYTE		N11     Cn3 
	BYTE		N11     Cn4 
	BYTE	W12
	BYTE		        Dn3 
	BYTE		N11     Dn4 
	BYTE	W12
	BYTE		        Ds3 
	BYTE		N11     Ds4 
	BYTE	W12
	BYTE		        Cn3 
	BYTE		N11     Cn4 
	BYTE	W12
	BYTE		        Dn3 
	BYTE	W12
	BYTE		        Ds3 
	BYTE		N11     Ds4 
	BYTE	W12
	BYTE		        Bn2 
	BYTE		N11     Bn3 
	BYTE	W12
	BYTE		        Cs3 
	BYTE		N11     Cs4 
	BYTE	W12
// 015   ----------------------------------------
Emergency_5_015:
	BYTE		N11     Cn3   v048
	BYTE		N11     Cn4 
	BYTE	W12
	BYTE		        Dn3 
	BYTE		N11     Dn4 
	BYTE	W12
	BYTE		        Ds3 
	BYTE		N11     Ds4 
	BYTE	W12
	BYTE		        Cn3 
	BYTE		N11     Cn4 
	BYTE	W12
	BYTE		        Fn3 
	BYTE		N11     Fn4 
	BYTE	W12
	BYTE		        Ds3 
	BYTE		N11     Ds4 
	BYTE	W12
	BYTE		        Dn3 
	BYTE		N11     Dn4 
	BYTE	W12
	BYTE		        As2 
	BYTE		N11     As3 
	BYTE	W12
	BYTE	PEND
// 016   ----------------------------------------
Emergency_5_016:
	BYTE		N11     Cn3   v048
	BYTE		N11     Cn4 
	BYTE	W12
	BYTE		        Dn3 
	BYTE		N11     Dn4 
	BYTE	W12
	BYTE		        Ds3 
	BYTE		N11     Ds4 
	BYTE	W12
	BYTE		        Cn3 
	BYTE		N11     Cn4 
	BYTE	W12
	BYTE		        Dn3 
	BYTE		N11     Dn4 
	BYTE	W12
	BYTE		        Ds3 
	BYTE		N11     Ds4 
	BYTE	W12
	BYTE		        Bn2 
	BYTE		N11     Bn3 
	BYTE	W12
	BYTE		        Cs3 
	BYTE		N11     Cs4 
	BYTE	W12
	BYTE	PEND
// 017   ----------------------------------------
	BYTE		        Cn3 
	BYTE		N11     Cn4 
	BYTE	W12
	BYTE		        Cs3 
	BYTE		N11     Cs4 
	BYTE	W12
	BYTE		        Ds3 
	BYTE		N11     Ds4 
	BYTE	W12
	BYTE		        Cn3 
	BYTE		N11     Cn4 
	BYTE	W12
	BYTE		        Fn3 
	BYTE		N11     Fn4 
	BYTE	W12
	BYTE		        Ds3 
	BYTE		N11     Ds4 
	BYTE	W12
	BYTE		        Cs3 
	BYTE		N11     Cs4 
	BYTE	W12
	BYTE		        As2 
	BYTE		N11     As3 
	BYTE	W12
// 018   ----------------------------------------
	BYTE	PATT
	 POIN2	Emergency_5_016
// 019   ----------------------------------------
	BYTE	PATT
	 POIN2	Emergency_5_015
// 020   ----------------------------------------
	BYTE		N11     Cn3   v048
	BYTE		N11     Cn4 
	BYTE		N11     Cn5 
	BYTE	W12
	BYTE		        Dn3 
	BYTE		N11     Dn4 
	BYTE		N11     Dn5 
	BYTE	W12
	BYTE		        Ds3 
	BYTE		N11     Ds4 
	BYTE		N11     Ds5 
	BYTE	W12
	BYTE		        Cn3 
	BYTE		N11     Cn4 
	BYTE		N11     Cn5 
	BYTE	W12
	BYTE		        Dn3 
	BYTE		N11     Dn4 
	BYTE		N11     Dn5 
	BYTE	W12
	BYTE		        Ds3 
	BYTE		N11     Ds4 
	BYTE		N11     Ds5 
	BYTE	W12
	BYTE		        Bn2 
	BYTE		N11     Bn3 
	BYTE		N11     Bn4 
	BYTE	W12
	BYTE		        Cs3 
	BYTE		N11     Cs4 
	BYTE		N11     Cs5 
	BYTE	W12
// 021   ----------------------------------------
	BYTE		        Cn3 
	BYTE		N11     Cn4 
	BYTE		N11     Cn5 
	BYTE	W12
	BYTE		        Dn3 
	BYTE		N11     Dn4 
	BYTE		N11     Dn5 
	BYTE	W12
	BYTE		        Ds3 
	BYTE		N11     Ds4 
	BYTE		N11     Ds5 
	BYTE	W12
	BYTE		        Cn3 
	BYTE		N11     Cn4 
	BYTE		N11     Cn5 
	BYTE	W12
	BYTE		        Fn3 
	BYTE		N11     Fn4 
	BYTE		N11     Fn5 
	BYTE	W12
	BYTE		        Ds3 
	BYTE		N11     Ds4 
	BYTE		N11     Ds5 
	BYTE	W12
	BYTE		        Dn3 
	BYTE		N11     Dn4 
	BYTE		N11     Dn5 
	BYTE	W12
	BYTE		        As2 
	BYTE		N11     As3 
	BYTE		N11     As4 
	BYTE	W12
// 022   ----------------------------------------
	BYTE		TIE     Cn3 
	BYTE		TIE     Cn4 
	BYTE		TIE     Cn5 
	BYTE	W96
// 023   ----------------------------------------
	BYTE	W92
	BYTE	W03
	BYTE		EOT     Cn3 
	BYTE		        Cn4 
	BYTE		        Cn5 
	BYTE	W01
// 024   ----------------------------------------
	BYTE	W96
// 025   ----------------------------------------
	BYTE	W96
// 026   ----------------------------------------
	BYTE	W96
// 027   ----------------------------------------
	BYTE		N05     Ds4 
	BYTE	W06
	BYTE		        Dn4 
	BYTE	W06
	BYTE		        Cs4 
	BYTE	W06
	BYTE		        Cn4 
	BYTE	W06
	BYTE		        Ds4 
	BYTE	W06
	BYTE		        Dn4 
	BYTE	W06
	BYTE		        Cs4 
	BYTE	W06
	BYTE		        Cn4 
	BYTE	W06
	BYTE		        Ds4 
	BYTE	W06
	BYTE		        Dn4 
	BYTE	W06
	BYTE		        Cs4 
	BYTE	W06
	BYTE		        Cn4 
	BYTE	W06
	BYTE		        Ds4 
	BYTE	W06
	BYTE		        Dn4 
	BYTE	W06
	BYTE		        Cs4 
	BYTE	W06
	BYTE		        Cn4 
	BYTE	W06
// 028   ----------------------------------------
	BYTE		        Ds4 
	BYTE	W06
	BYTE		        En4 
	BYTE	W06
	BYTE		        Fn4 
	BYTE	W06
	BYTE		        Fs4 
	BYTE	W06
	BYTE		N23     Gn4 
	BYTE	W24
	BYTE		N05     Fn4 
	BYTE	W06
	BYTE		        Fs4 
	BYTE	W06
	BYTE		        Gn4 
	BYTE	W06
	BYTE		        Gs4 
	BYTE	W06
	BYTE		N23     An4 
	BYTE	W24
// 029   ----------------------------------------
	BYTE		N05     Dn4 
	BYTE	W06
	BYTE		        Ds4 
	BYTE	W06
	BYTE		        Dn4 
	BYTE	W06
	BYTE		        Ds4 
	BYTE	W06
	BYTE		        Dn4 
	BYTE	W06
	BYTE		        Ds4 
	BYTE	W06
	BYTE		        Dn4 
	BYTE	W06
	BYTE		        Ds4 
	BYTE	W06
	BYTE		        Dn4 
	BYTE	W06
	BYTE		        Ds4 
	BYTE	W06
	BYTE		        Dn4 
	BYTE	W06
	BYTE		        Ds4 
	BYTE	W06
	BYTE		        Dn4 
	BYTE	W06
	BYTE		        Ds4 
	BYTE	W06
	BYTE		        Dn4 
	BYTE	W06
	BYTE		        Ds4 
	BYTE	W06
// 030   ----------------------------------------
	BYTE	W16
	BYTE	GoTo
	 POIN2	Emergency_5_B1
Emergency_5_B2:
	BYTE	W80
// 031   ----------------------------------------
	BYTE	W96
// 032   ----------------------------------------
	BYTE	W96
// 033   ----------------------------------------
	BYTE	W96
// 034   ----------------------------------------
	BYTE	W96
// 035   ----------------------------------------
	BYTE	W96
// 036   ----------------------------------------
	BYTE	W96
// 037   ----------------------------------------
	BYTE	W96
// 038   ----------------------------------------
	BYTE	W96
// 039   ----------------------------------------
	BYTE	W96
// 040   ----------------------------------------
	BYTE	W96
// 041   ----------------------------------------
	BYTE	W96
// 042   ----------------------------------------
	BYTE	W96
// 043   ----------------------------------------
	BYTE	W96
// 044   ----------------------------------------
	BYTE	W96
// 045   ----------------------------------------
	BYTE	W96
// 046   ----------------------------------------
	BYTE	W96
// 047   ----------------------------------------
	BYTE	W96
// 048   ----------------------------------------
	BYTE	W96
// 049   ----------------------------------------
	BYTE	W96
// 050   ----------------------------------------
	BYTE	W96
// 051   ----------------------------------------
	BYTE	W96
// 052   ----------------------------------------
	BYTE	W96
// 053   ----------------------------------------
	BYTE	FINE

//**************** Track 6 (Midi-Chn.13) ****************//

Emergency_6:
	BYTE	KEYSH   Emergency_key+0
Emergency_6_B1:
// 000   ----------------------------------------
	BYTE		VOICE   48
	BYTE		VOL     100*Emergency_mvl/mxv
	BYTE		PAN     c_v+0
	BYTE	W24
	BYTE		N23     An1   v048
	BYTE		N23     En2 
	BYTE		N23     An2 
	BYTE	W24
	BYTE		        Gs1 
	BYTE		N23     Ds2 
	BYTE		N23     Gs2 
	BYTE	W48
// 001   ----------------------------------------
	BYTE		        Gs1 
	BYTE		N23     Ds2 
	BYTE		N23     Gs2 
	BYTE	W24
	BYTE		        Gn1 
	BYTE		N23     Dn2 
	BYTE		N23     Gn2 
	BYTE	W48
	BYTE		        Gn1 
	BYTE		N23     Dn2 
	BYTE		N23     Gn2 
	BYTE	W24
// 002   ----------------------------------------
	BYTE		        Fs1 
	BYTE		N23     Cs2 
	BYTE		N23     Fs2 
	BYTE	W96
// 003   ----------------------------------------
	BYTE	W96
// 004   ----------------------------------------
Emergency_6_004:
	BYTE		N11     Fs2   v048
	BYTE	W12
	BYTE		        Gs2 
	BYTE	W12
	BYTE		        An2 
	BYTE	W12
	BYTE		        Fs2 
	BYTE	W12
	BYTE		        Gs2 
	BYTE	W12
	BYTE		        An2 
	BYTE	W12
	BYTE		        Fn2 
	BYTE	W12
	BYTE		        Gn2 
	BYTE	W12
	BYTE	PEND
// 005   ----------------------------------------
	BYTE	PATT
	 POIN2	Emergency_6_004
// 006   ----------------------------------------
	BYTE	PATT
	 POIN2	Emergency_6_004
// 007   ----------------------------------------
	BYTE	PATT
	 POIN2	Emergency_6_004
// 008   ----------------------------------------
	BYTE		N92     Fs2   v048
	BYTE	W96
// 009   ----------------------------------------
	BYTE	W96
// 010   ----------------------------------------
	BYTE	W96
// 011   ----------------------------------------
	BYTE	W96
// 012   ----------------------------------------
	BYTE	W96
// 013   ----------------------------------------
	BYTE	W96
// 014   ----------------------------------------
	BYTE	W96
// 015   ----------------------------------------
	BYTE	W96
// 016   ----------------------------------------
	BYTE	W96
// 017   ----------------------------------------
	BYTE	W96
// 018   ----------------------------------------
	BYTE	W96
// 019   ----------------------------------------
	BYTE	W96
// 020   ----------------------------------------
	BYTE	W96
// 021   ----------------------------------------
	BYTE	W96
// 022   ----------------------------------------
	BYTE	W96
// 023   ----------------------------------------
	BYTE	W96
// 024   ----------------------------------------
	BYTE	W96
// 025   ----------------------------------------
	BYTE	W96
// 026   ----------------------------------------
	BYTE	W96
// 027   ----------------------------------------
	BYTE	W96
// 028   ----------------------------------------
	BYTE	W96
// 029   ----------------------------------------
	BYTE	W96
// 030   ----------------------------------------
	BYTE	W16
	BYTE	GoTo
	 POIN2	Emergency_6_B1
Emergency_6_B2:
	BYTE	W80
// 031   ----------------------------------------
	BYTE	W96
// 032   ----------------------------------------
	BYTE	W96
// 033   ----------------------------------------
	BYTE	W96
// 034   ----------------------------------------
	BYTE	W96
// 035   ----------------------------------------
	BYTE	W96
// 036   ----------------------------------------
	BYTE	W96
// 037   ----------------------------------------
	BYTE	W96
// 038   ----------------------------------------
	BYTE	W96
// 039   ----------------------------------------
	BYTE	W96
// 040   ----------------------------------------
	BYTE	W96
// 041   ----------------------------------------
	BYTE	W96
// 042   ----------------------------------------
	BYTE	W96
// 043   ----------------------------------------
	BYTE	W96
// 044   ----------------------------------------
	BYTE	W96
// 045   ----------------------------------------
	BYTE	W96
// 046   ----------------------------------------
	BYTE	W96
// 047   ----------------------------------------
	BYTE	W96
// 048   ----------------------------------------
	BYTE	W96
// 049   ----------------------------------------
	BYTE	W96
// 050   ----------------------------------------
	BYTE	W96
// 051   ----------------------------------------
	BYTE	W96
// 052   ----------------------------------------
	BYTE	W96
// 053   ----------------------------------------
	BYTE	FINE

//**************** Track 7 (Midi-Chn.14) ****************//

Emergency_7:
	BYTE	KEYSH   Emergency_key+0
Emergency_7_B1:
// 000   ----------------------------------------
	BYTE		VOICE   0
	BYTE		VOL     100*Emergency_mvl/mxv
	BYTE		PAN     c_v+0
	BYTE		N22     An0   v044
	BYTE		N22     An1 
	BYTE	W72
	BYTE		        Gs0 
	BYTE		N22     Gs1 
	BYTE	W24
// 001   ----------------------------------------
	BYTE	W48
	BYTE		        Gn0 
	BYTE		N22     Gn1 
	BYTE	W48
// 002   ----------------------------------------
Emergency_7_002:
	BYTE		N11     Fs0   v044
	BYTE		N11     Fs1 
	BYTE	W12
	BYTE		        Gs0 
	BYTE		N11     Gs1 
	BYTE	W12
	BYTE		        An0 
	BYTE		N11     An1 
	BYTE	W12
	BYTE		        Fs0 
	BYTE		N11     Fs1 
	BYTE	W12
	BYTE		        Gs0 
	BYTE		N11     Gs1 
	BYTE	W12
	BYTE		        An0 
	BYTE		N11     An1 
	BYTE	W12
	BYTE		        Fn0 
	BYTE		N11     Fn1 
	BYTE	W12
	BYTE		        Gn0 
	BYTE		N11     Gn1 
	BYTE	W12
	BYTE	PEND
// 003   ----------------------------------------
	BYTE	PATT
	 POIN2	Emergency_7_002
// 004   ----------------------------------------
	BYTE	PATT
	 POIN2	Emergency_7_002
// 005   ----------------------------------------
	BYTE	PATT
	 POIN2	Emergency_7_002
// 006   ----------------------------------------
	BYTE	PATT
	 POIN2	Emergency_7_002
// 007   ----------------------------------------
	BYTE	PATT
	 POIN2	Emergency_7_002
// 008   ----------------------------------------
	BYTE		TIE     Fs0   v044
	BYTE		TIE     Fs1 
	BYTE	W96
// 009   ----------------------------------------
	BYTE	W84
	BYTE	W02
	BYTE		EOT     Fs0 
	BYTE		        Fs1 
	BYTE	W10
// 010   ----------------------------------------
Emergency_7_010:
	BYTE		N11     Cn1   v044
	BYTE		N11     Cn2 
	BYTE	W12
	BYTE		        Dn1 
	BYTE		N11     Dn2 
	BYTE	W12
	BYTE		        Ds1 
	BYTE		N11     Ds2 
	BYTE	W12
	BYTE		        Cn1 
	BYTE		N11     Cn2 
	BYTE	W12
	BYTE		        Dn1 
	BYTE		N11     Dn2 
	BYTE	W12
	BYTE		        Ds1 
	BYTE		N11     Ds2 
	BYTE	W12
	BYTE		        Bn0 
	BYTE		N11     Bn1 
	BYTE	W12
	BYTE		        Cs1 
	BYTE		N11     Cs2 
	BYTE	W12
	BYTE	PEND
// 011   ----------------------------------------
Emergency_7_011:
	BYTE		N11     Cn1   v044
	BYTE		N11     Cn2 
	BYTE	W12
	BYTE		        Dn1 
	BYTE		N11     Dn2 
	BYTE	W12
	BYTE		        Ds1 
	BYTE		N11     Ds2 
	BYTE	W12
	BYTE		        Cn1 
	BYTE		N11     Cn2 
	BYTE	W12
	BYTE		        Fn1 
	BYTE		N11     Fn2 
	BYTE	W12
	BYTE		        Ds1 
	BYTE		N11     Ds2 
	BYTE	W12
	BYTE		        Dn1 
	BYTE		N11     Dn2 
	BYTE	W12
	BYTE		        As0 
	BYTE		N11     As1 
	BYTE	W12
	BYTE	PEND
// 012   ----------------------------------------
	BYTE	PATT
	 POIN2	Emergency_7_010
// 013   ----------------------------------------
Emergency_7_013:
	BYTE		N11     Cn1   v044
	BYTE		N11     Cn2 
	BYTE	W12
	BYTE		        Cs1 
	BYTE		N11     Cs2 
	BYTE	W12
	BYTE		        Ds1 
	BYTE		N11     Ds2 
	BYTE	W12
	BYTE		        Cn1 
	BYTE		N11     Cn2 
	BYTE	W12
	BYTE		        Fn1 
	BYTE		N11     Fn2 
	BYTE	W12
	BYTE		        Ds1 
	BYTE		N11     Ds2 
	BYTE	W12
	BYTE		        Cs1 
	BYTE		N11     Cs2 
	BYTE	W12
	BYTE		        As0 
	BYTE		N11     As1 
	BYTE	W12
	BYTE	PEND
// 014   ----------------------------------------
	BYTE	PATT
	 POIN2	Emergency_7_010
// 015   ----------------------------------------
	BYTE	PATT
	 POIN2	Emergency_7_011
// 016   ----------------------------------------
	BYTE	PATT
	 POIN2	Emergency_7_010
// 017   ----------------------------------------
	BYTE	PATT
	 POIN2	Emergency_7_013
// 018   ----------------------------------------
	BYTE	PATT
	 POIN2	Emergency_7_010
// 019   ----------------------------------------
	BYTE	PATT
	 POIN2	Emergency_7_011
// 020   ----------------------------------------
	BYTE	PATT
	 POIN2	Emergency_7_010
// 021   ----------------------------------------
	BYTE	PATT
	 POIN2	Emergency_7_011
// 022   ----------------------------------------
	BYTE		TIE     Cn1   v044
	BYTE		TIE     Cn2 
	BYTE	W96
// 023   ----------------------------------------
	BYTE	W84
	BYTE	W02
	BYTE		EOT     Cn1 
	BYTE		        Cn2 
	BYTE	W10
// 024   ----------------------------------------
	BYTE	W96
// 025   ----------------------------------------
	BYTE	W96
// 026   ----------------------------------------
	BYTE	W96
// 027   ----------------------------------------
	BYTE	W96
// 028   ----------------------------------------
	BYTE	W96
// 029   ----------------------------------------
	BYTE	W96
// 030   ----------------------------------------
	BYTE	W16
	BYTE	GoTo
	 POIN2	Emergency_7_B1
Emergency_7_B2:
	BYTE	W80
// 031   ----------------------------------------
	BYTE	W96
// 032   ----------------------------------------
	BYTE	W96
// 033   ----------------------------------------
	BYTE	W96
// 034   ----------------------------------------
	BYTE	W96
// 035   ----------------------------------------
	BYTE	W96
// 036   ----------------------------------------
	BYTE	W96
// 037   ----------------------------------------
	BYTE	W96
// 038   ----------------------------------------
	BYTE	W96
// 039   ----------------------------------------
	BYTE	W96
// 040   ----------------------------------------
	BYTE	W96
// 041   ----------------------------------------
	BYTE	W96
// 042   ----------------------------------------
	BYTE	W96
// 043   ----------------------------------------
	BYTE	W96
// 044   ----------------------------------------
	BYTE	W96
// 045   ----------------------------------------
	BYTE	W96
// 046   ----------------------------------------
	BYTE	W96
// 047   ----------------------------------------
	BYTE	W96
// 048   ----------------------------------------
	BYTE	W96
// 049   ----------------------------------------
	BYTE	W96
// 050   ----------------------------------------
	BYTE	W96
// 051   ----------------------------------------
	BYTE	W96
// 052   ----------------------------------------
	BYTE	W96
// 053   ----------------------------------------
	BYTE	FINE

//******************************************************//
	ALIGN 4

songEmergency:
	BYTE	7	// NumTrks
	BYTE	0	// NumBlks
	BYTE	Emergency_pri	// Priority
	BYTE	Emergency_rev	// Reverb.

	POIN2	Emergency_grp

	POIN2	Emergency_1
	POIN2	Emergency_2
	POIN2	Emergency_3
	POIN2	Emergency_4
	POIN2	Emergency_5
	POIN2	Emergency_6
	POIN2	Emergency_7

	
