//Event file generated from Sappy .s format.
	#include "MPlayDef.event"

	#define	songEndEm_grp  voicegroup000
	#define	songEndEm_pri  0
	#define	songEndEm_rev  0
	#define	songEndEm_mvl  127
	#define	songEndEm_key  0
	#define	songEndEm_tbs  1
	#define	songEndEm_exg  0
	#define	songEndEm_cmp  1

	// .rodata
	//	songEndEm
	ALIGN 4


//**************** Track 1 (Midi-Chn.0) ****************//

songEndEm_001:
// 000   ----------------------------------------
 BYTE   VOL   80*songEndEm_mvl/mxv
 BYTE   KEYSH   songEndEm_key+0
Label_0_0145A924:
 BYTE   TEMPO   168*songEndEm_tbs/2
 BYTE   VOICE   66
 BYTE   TIE  Cs4  v052
 BYTE   W96
// 001   ----------------------------------------
 BYTE   W96
// 002   ----------------------------------------
 BYTE   W96
// 003   ----------------------------------------
 BYTE   EOT
 BYTE   N12  Gs4  v064
 BYTE   W12
 BYTE   Fs4
 BYTE   W12
 BYTE   En4
 BYTE   W12
 BYTE   Cs4
 BYTE   W12
 BYTE   N24  Gs3
 BYTE   W48
// 004   ----------------------------------------
 BYTE   N12  Gs4
 BYTE   W12
 BYTE   Cs4
 BYTE   W12
 BYTE   Gs4
 BYTE   W12
 BYTE   N06  As4
 BYTE   W12
 BYTE   Bn4
 BYTE   W12
 BYTE   N06
 BYTE   W12
 BYTE   As4
 BYTE   W12
 BYTE   Gs4
 BYTE   W12
// 005   ----------------------------------------
 BYTE   N48  Fs4
 BYTE   W60
 BYTE   N12  Gs4
 BYTE   W12
 BYTE   N24  As4
 BYTE   W24
// 006   ----------------------------------------
 BYTE   N48  Bn4
 BYTE   W60
 BYTE   N06
 BYTE   W12
 BYTE   As4
 BYTE   W12
 BYTE   Gs4
 BYTE   W12
// 007   ----------------------------------------
 BYTE   TIE  Cs4  v052
 BYTE   W96
// 008   ----------------------------------------
 BYTE   W96
// 009   ----------------------------------------
 BYTE   W96
// 010   ----------------------------------------
 BYTE   W96
// 011   ----------------------------------------
 BYTE   EOT
 BYTE   TIE  En4
 BYTE   W96
// 012   ----------------------------------------
 BYTE   W96
// 013   ----------------------------------------
 BYTE   EOT
 BYTE   N12  Fs3  v064
 BYTE   W12
 BYTE   Fs4
 BYTE   W12
 BYTE   Fs3
 BYTE   W12
 BYTE   Fs4
 BYTE   W12
 BYTE   En4
 BYTE   W12
 BYTE   Cs4
 BYTE   W12
 BYTE   Bn3
 BYTE   W12
 BYTE   Gs3
 BYTE   W12
// 014   ----------------------------------------
 BYTE   N24  Cs4
 BYTE   W24
 BYTE   Gs3
 BYTE   W24
 BYTE   N48  En3
 BYTE   W48
// 015   ----------------------------------------
 BYTE   GoTo
  POIN2 Label_0_0145A924
 BYTE   FINE

//**************** Track 2 (Midi-Chn.1) ****************//

songEndEm_002:
// 000   ----------------------------------------
 BYTE   VOL   80*songEndEm_mvl/mxv
 BYTE   KEYSH   songEndEm_key+0
Label_1_0145A994:
 BYTE   VOICE   104
 BYTE   N12  Cs2  v064
 BYTE   W12
 BYTE   En2
 BYTE   W12
 BYTE   Fs2
 BYTE   W12
 BYTE   Gs2
 BYTE   W12
 BYTE   Bn2
 BYTE   W12
 BYTE   Cs3
 BYTE   W12
 BYTE   Bn2
 BYTE   W12
 BYTE   Gs2
 BYTE   W12
// 001   ----------------------------------------
 BYTE   En2
 BYTE   W12
 BYTE   Fs2
 BYTE   W12
 BYTE   Gs2
 BYTE   W12
 BYTE   Bn2
 BYTE   W12
 BYTE   Cs3
 BYTE   W12
 BYTE   Bn2
 BYTE   W12
 BYTE   Gs2
 BYTE   W12
 BYTE   Fs2
 BYTE   W12
// 002   ----------------------------------------
 BYTE   Cs3
 BYTE   W12
 BYTE   Bn2
 BYTE   W12
 BYTE   Gs2
 BYTE   W12
 BYTE   Fs2
 BYTE   W12
 BYTE   En3
 BYTE   W12
 BYTE   Cs3
 BYTE   W12
 BYTE   Bn2
 BYTE   W12
 BYTE   Gs2
 BYTE   W12
// 003   ----------------------------------------
 BYTE   TIE  Cs2  v052
 BYTE   W96
// 004   ----------------------------------------
 BYTE   W96
// 005   ----------------------------------------
 BYTE   W96
// 006   ----------------------------------------
 BYTE   W96
// 007   ----------------------------------------
 BYTE   EOT
Label_1_0145A9D0:
 BYTE   N12  Cs2  v064
 BYTE   W12
 BYTE   Cs3
 BYTE   W12
 BYTE   Cs2
 BYTE   W12
 BYTE   Cs3
 BYTE   W12
 BYTE   Bn2
 BYTE   W12
 BYTE   Gs2
 BYTE   W12
 BYTE   Fs2
 BYTE   W12
 BYTE   En2
 BYTE   W12
 BYTE   PEND 
// 008   ----------------------------------------
 BYTE   N48  Bn2
 BYTE   W48
 BYTE   As2
 BYTE   W48
// 009   ----------------------------------------
 BYTE   Fs2
 BYTE   W48
 BYTE   N24  En2
 BYTE   W24
 BYTE   Ds2
 BYTE   W24
// 010   ----------------------------------------
 BYTE   N96  Cs3
 BYTE   W96
 BYTE   PATT
  POIN2 Label_1_0145A9D0
// 011   ----------------------------------------
 BYTE   N12  En2  v064
 BYTE   W12
 BYTE   En3
 BYTE   W12
 BYTE   En2
 BYTE   W12
 BYTE   En3
 BYTE   W12
 BYTE   Cs3
 BYTE   W12
 BYTE   Bn2
 BYTE   W12
 BYTE   Gs2
 BYTE   W12
 BYTE   Fs2
 BYTE   W12
// 012   ----------------------------------------
 BYTE   TIE  Cs2  v052
 BYTE   W96
// 013   ----------------------------------------
 BYTE   W96
// 014   ----------------------------------------
 BYTE   EOT
 BYTE   GoTo
  POIN2 Label_1_0145A994
 BYTE   FINE

//**************** Track 3 (Midi-Chn.2) ****************//

songEndEm_003:
// 000   ----------------------------------------
 BYTE   VOL   80*songEndEm_mvl/mxv
 BYTE   KEYSH   songEndEm_key+0
Label_2_0145AA1C:
 BYTE   VOICE   36
 BYTE   N12  Cs2  v064
 BYTE   W12
 BYTE   N12
 BYTE   W12
 BYTE   Bn1
 BYTE   W12
 BYTE   Cs2
 BYTE   W12
 BYTE   N12
 BYTE   W12
 BYTE   N12
 BYTE   W12
 BYTE   Bn1
 BYTE   W12
 BYTE   Cs2
 BYTE   W12
// 001   ----------------------------------------
Label_2_0145AA30:
 BYTE   N12  Ds2  v064
 BYTE   W12
 BYTE   N12
 BYTE   W12
 BYTE   Cs2
 BYTE   W12
 BYTE   Ds2
 BYTE   W12
 BYTE   N12
 BYTE   W12
 BYTE   N12
 BYTE   W12
 BYTE   Cs2
 BYTE   W12
 BYTE   Ds2
 BYTE   W12
 BYTE   PEND 
// 002   ----------------------------------------
Label_2_0145AA43:
 BYTE   N12  Cs2  v064
 BYTE   W12
 BYTE   N12
 BYTE   W12
 BYTE   Bn1
 BYTE   W12
 BYTE   Cs2
 BYTE   W12
 BYTE   N12
 BYTE   W12
 BYTE   N12
 BYTE   W12
 BYTE   Bn1
 BYTE   W12
 BYTE   Cs2
 BYTE   W12
 BYTE   PEND 
 BYTE   PATT
  POIN2 Label_2_0145AA43
 BYTE   PATT
  POIN2 Label_2_0145AA30
 BYTE   PATT
  POIN2 Label_2_0145AA43
 BYTE   PATT
  POIN2 Label_2_0145AA43
 BYTE   PATT
  POIN2 Label_2_0145AA43
 BYTE   PATT
  POIN2 Label_2_0145AA30
 BYTE   PATT
  POIN2 Label_2_0145AA43
 BYTE   PATT
  POIN2 Label_2_0145AA43
 BYTE   PATT
  POIN2 Label_2_0145AA43
 BYTE   PATT
  POIN2 Label_2_0145AA30
 BYTE   PATT
  POIN2 Label_2_0145AA43
 BYTE   PATT
  POIN2 Label_2_0145AA43
// 003   ----------------------------------------
 BYTE   GoTo
  POIN2 Label_2_0145AA1C
 BYTE   FINE

//**************** Track 4 (Midi-Chn.3) ****************//

songEndEm_004:
// 000   ----------------------------------------
 BYTE   VOL   80*songEndEm_mvl/mxv
 BYTE   KEYSH   songEndEm_key+0
Label_3_0145AA9C:
 BYTE   VOICE   1
 BYTE   N12  Cs3  v064
 BYTE   W12
 BYTE   En3
 BYTE   W12
 BYTE   Fs3
 BYTE   W12
 BYTE   Gs3
 BYTE   W12
 BYTE   En3
 BYTE   W12
 BYTE   Fs3
 BYTE   W12
 BYTE   Gs3
 BYTE   W12
 BYTE   Cs4
 BYTE   W12
// 001   ----------------------------------------
Label_3_0145AAB0:
 BYTE   N12  Ds3  v064
 BYTE   W12
 BYTE   Gs3
 BYTE   W12
 BYTE   Bn3
 BYTE   W12
 BYTE   Cs4
 BYTE   W12
 BYTE   Gs3
 BYTE   W12
 BYTE   Bn3
 BYTE   W12
 BYTE   Cs4
 BYTE   W12
 BYTE   Ds4
 BYTE   W12
 BYTE   PEND 
// 002   ----------------------------------------
Label_3_0145AAC3:
 BYTE   N12  As3  v064
 BYTE   W12
 BYTE   Fs3
 BYTE   W12
 BYTE   Ds3
 BYTE   W12
 BYTE   Cs3
 BYTE   W12
 BYTE   Cs4
 BYTE   W12
 BYTE   As3
 BYTE   W12
 BYTE   Fs3
 BYTE   W12
 BYTE   Ds3
 BYTE   W12
 BYTE   PEND 
// 003   ----------------------------------------
Label_3_0145AAD6:
 BYTE   N12  Cs3  v064
 BYTE   W12
 BYTE   En3
 BYTE   W12
 BYTE   Fs3
 BYTE   W12
 BYTE   Gs3
 BYTE   W12
 BYTE   En3
 BYTE   W12
 BYTE   Fs3
 BYTE   W12
 BYTE   Gs3
 BYTE   W12
 BYTE   Cs4
 BYTE   W12
 BYTE   PEND 
 BYTE   PATT
  POIN2 Label_3_0145AAB0
 BYTE   PATT
  POIN2 Label_3_0145AAC3
 BYTE   PATT
  POIN2 Label_3_0145AAD6
// 004   ----------------------------------------
Label_3_0145AAF8:
 BYTE   N96  Cs3  v048
 BYTE   N96  En3
 BYTE   N96  Gs3
 BYTE   W96
 BYTE   PEND 
// 005   ----------------------------------------
Label_3_0145AB01:
 BYTE   N96  Ds3  v048
 BYTE   N96  Gs3
 BYTE   N96  Bn3
 BYTE   W96
 BYTE   PEND 
// 006   ----------------------------------------
Label_3_0145AB0A:
 BYTE   N96  Cs3  v048
 BYTE   N96  Fs3
 BYTE   N96  As3
 BYTE   W96
 BYTE   PEND 
 BYTE   PATT
  POIN2 Label_3_0145AAD6
 BYTE   PATT
  POIN2 Label_3_0145AAF8
 BYTE   PATT
  POIN2 Label_3_0145AB01
 BYTE   PATT
  POIN2 Label_3_0145AB0A
// 007   ----------------------------------------
 BYTE   N12  Cs4  v064
 BYTE   W12
 BYTE   Gs3
 BYTE   W12
 BYTE   Fs3
 BYTE   W12
 BYTE   En3
 BYTE   W12
 BYTE   Gs3
 BYTE   W12
 BYTE   Fs3
 BYTE   W12
 BYTE   En3
 BYTE   W12
 BYTE   Cs3
 BYTE   W12
// 008   ----------------------------------------
 BYTE   GoTo
  POIN2 Label_3_0145AA9C
 BYTE   FINE

//**************** Track 5 (Midi-Chn.4) ****************//

songEndEm_005:
// 000   ----------------------------------------
 BYTE   VOL   80*songEndEm_mvl/mxv
 BYTE   KEYSH   songEndEm_key+0
Label_4_0145AB44:
 BYTE   VOICE   60
 BYTE   N96  Cs2  v032
 BYTE   N96  En2
 BYTE   N96  Gs2
 BYTE   W96
// 001   ----------------------------------------
Label_4_0145AB4E:
 BYTE   N96  Ds2  v032
 BYTE   N96  Gs2
 BYTE   N96  Bn2
 BYTE   W96
 BYTE   PEND 
// 002   ----------------------------------------
Label_4_0145AB57:
 BYTE   N96  Cs2  v032
 BYTE   N96  Fs2
 BYTE   N96  As2
 BYTE   W96
 BYTE   PEND 
// 003   ----------------------------------------
Label_4_0145AB60:
 BYTE   N96  Cs2  v032
 BYTE   N96  En2
 BYTE   N96  Gs2
 BYTE   W96
 BYTE   PEND 
 BYTE   PATT
  POIN2 Label_4_0145AB4E
 BYTE   PATT
  POIN2 Label_4_0145AB57
 BYTE   PATT
  POIN2 Label_4_0145AB60
 BYTE   PATT
  POIN2 Label_4_0145AB60
 BYTE   PATT
  POIN2 Label_4_0145AB4E
 BYTE   PATT
  POIN2 Label_4_0145AB57
 BYTE   PATT
  POIN2 Label_4_0145AB60
 BYTE   PATT
  POIN2 Label_4_0145AB60
 BYTE   PATT
  POIN2 Label_4_0145AB4E
 BYTE   PATT
  POIN2 Label_4_0145AB57
 BYTE   PATT
  POIN2 Label_4_0145AB60
// 004   ----------------------------------------
 BYTE   GoTo
  POIN2 Label_4_0145AB44
 BYTE   FINE

//**************** Track 6 (Midi-Chn.5) ****************//

songEndEm_006:
// 000   ----------------------------------------
 BYTE   VOL   80*songEndEm_mvl/mxv
 BYTE   KEYSH   songEndEm_key+0
Label_5_0145ABAC:
 BYTE   VOICE   124
 BYTE   N24  Dn1  v064
 BYTE   W24
 BYTE   N12
 BYTE   W12
 BYTE   N12
 BYTE   W12
 BYTE   N24
 BYTE   W24
 BYTE   N12
 BYTE   W12
 BYTE   N12
 BYTE   W12
// 001   ----------------------------------------
 BYTE   N24
 BYTE   W24
 BYTE   N12
 BYTE   W12
 BYTE   N12
 BYTE   W12
 BYTE   N24
 BYTE   W24
 BYTE   N12
 BYTE   W12
 BYTE   N12
 BYTE   W12
// 002   ----------------------------------------
 BYTE   N24
 BYTE   W24
 BYTE   N12
 BYTE   W12
 BYTE   N12
 BYTE   W12
 BYTE   En1
 BYTE   W12
 BYTE   N06  Fn1
 BYTE   W06
 BYTE   N06
 BYTE   W06
 BYTE   An1
 BYTE   W12
 BYTE   En1
 BYTE   W06
 BYTE   Fn1
 BYTE   W06
// 003   ----------------------------------------
Label_5_0145ABDB:
 BYTE   N12  Dn1  v064
 BYTE   N12  Fs1
 BYTE   N24  Cs2
 BYTE   W12
 BYTE   N12  Dn1
 BYTE   N12  Fs1
 BYTE   W12
 BYTE   N12
 BYTE   W12
 BYTE   N06  Dn1
 BYTE   N12  Fs1
 BYTE   W06
 BYTE   N06  En1
 BYTE   W06
 BYTE   N12  Dn1
 BYTE   N12  Fs1
 BYTE   W12
 BYTE   Dn1
 BYTE   N12  Fs1
 BYTE   W12
 BYTE   N12
 BYTE   W12
 BYTE   N06  Dn1
 BYTE   N12  Fs1
 BYTE   W06
 BYTE   N06  En1
 BYTE   W06
 BYTE   PEND 
// 004   ----------------------------------------
Label_5_0145AC06:
 BYTE   N12  Dn1  v064
 BYTE   N12  Fs1
 BYTE   W12
 BYTE   Dn1
 BYTE   N12  Fs1
 BYTE   W12
 BYTE   N12
 BYTE   W12
 BYTE   N06  Dn1
 BYTE   N12  Fs1
 BYTE   W06
 BYTE   N06  En1
 BYTE   W06
 BYTE   N12  Dn1
 BYTE   N12  Fs1
 BYTE   W12
 BYTE   Dn1
 BYTE   N12  Fs1
 BYTE   W12
 BYTE   N12
 BYTE   W12
 BYTE   N06  Dn1
 BYTE   N12  Fs1
 BYTE   W06
 BYTE   N06  En1
 BYTE   W06
 BYTE   PEND 
 BYTE   PATT
  POIN2 Label_5_0145AC06
// 005   ----------------------------------------
Label_5_0145AC33:
 BYTE   N12  Dn1  v064
 BYTE   N12  Fs1
 BYTE   W12
 BYTE   Dn1
 BYTE   N12  Fs1
 BYTE   W12
 BYTE   N12
 BYTE   W12
 BYTE   N06  Dn1
 BYTE   N12  Fs1
 BYTE   W06
 BYTE   N06  En1
 BYTE   W06
 BYTE   N12
 BYTE   W12
 BYTE   N12
 BYTE   W12
 BYTE   N12
 BYTE   W12
 BYTE   N06
 BYTE   W06
 BYTE   N06
 BYTE   W06
 BYTE   PEND 
 BYTE   PATT
  POIN2 Label_5_0145ABDB
 BYTE   PATT
  POIN2 Label_5_0145AC06
 BYTE   PATT
  POIN2 Label_5_0145AC06
 BYTE   PATT
  POIN2 Label_5_0145AC33
 BYTE   PATT
  POIN2 Label_5_0145ABDB
 BYTE   PATT
  POIN2 Label_5_0145AC06
 BYTE   PATT
  POIN2 Label_5_0145AC06
 BYTE   PATT
  POIN2 Label_5_0145AC33
// 006   ----------------------------------------
 BYTE   GoTo
  POIN2 Label_5_0145ABAC
 BYTE   FINE

//******************************************************//
	ALIGN 4

songEndEm:
	BYTE	6	// NumTrks
	BYTE	0	// NumBlks
	BYTE	songEndEm_pri	// Priority
	BYTE	songEndEm_rev	// Reverb.
    
	POIN2	songEndEm_grp
    
	POIN2	songEndEm_001
	POIN2	songEndEm_002
	POIN2	songEndEm_003
	POIN2	songEndEm_004
	POIN2	songEndEm_005
	POIN2	songEndEm_006

	
