	.include "MPlayDef.s"

	.equ	songEverythingTastesPurple_grp, voicegroup000
	.equ	songEverythingTastesPurple_pri, 0
	.equ	songEverythingTastesPurple_rev, 0
	.equ	songEverythingTastesPurple_mvl, 127
	.equ	songEverythingTastesPurple_key, 0
	.equ	songEverythingTastesPurple_tbs, 1
	.equ	songEverythingTastesPurple_exg, 0
	.equ	songEverythingTastesPurple_cmp, 1

	.section .rodata
	.global	songEverythingTastesPurple
	.align	2


@**************** Track 1 (Midi-Chn.0) ****************@

songEverythingTastesPurple_001:
@  #01 @000   ----------------------------------------
 .byte   VOL , 80*songEverythingTastesPurple_mvl/mxv
 .byte   KEYSH , songEverythingTastesPurple_key+0
 .byte   TEMPO , 98*songEverythingTastesPurple_tbs/2
 .byte   VOICE , 74
 .byte   W96
@  #01 @001   ----------------------------------------
 .byte   W96
@  #01 @002   ----------------------------------------
 .byte   W96
@  #01 @003   ----------------------------------------
 .byte   W84
 .byte   N03 ,Cs4 ,v048
 .byte   W03
 .byte   N02 ,Dn4
 .byte   W03
 .byte   Ds4
 .byte   W02
 .byte   N03 ,En4
 .byte   W04
@  #01 @004   ----------------------------------------
Label_552C54:
 .byte   N12 ,Fn4 ,v064
 .byte   W12
 .byte   N24 ,Dn4 ,v052
 .byte   W36
 .byte   N12 ,Cn4 ,v056
 .byte   W12
 .byte   N06 ,As3 ,v052
 .byte   W06
 .byte   Cn4
 .byte   W06
 .byte   An3
 .byte   W06
 .byte   N12 ,Gn3
 .byte   W18
@  #01 @005   ----------------------------------------
 .byte   N24 ,Cn4 ,v064
 .byte   W36
 .byte   Cn4 ,v056
 .byte   W36
 .byte   N18 ,Cn4 ,v052
 .byte   W18
 .byte   N03 ,Cs4 ,v048
 .byte   W03
 .byte   N02 ,Dn4
 .byte   W03
@  #01 @006   ----------------------------------------
 .byte   N24 ,Ds4 ,v064
 .byte   W36
 .byte   Ds4 ,v056
 .byte   W36
 .byte   N18 ,Ds4 ,v052
 .byte   W18
 .byte   N02 ,Fn4 ,v048
 .byte   W02
 .byte   N03 ,Fs4
 .byte   W04
@  #01 @007   ----------------------------------------
 .byte   N12 ,Gn4 ,v064
 .byte   W18
 .byte   Fn4 ,v052
 .byte   W18
 .byte   Ds4
 .byte   W12
 .byte   N36 ,Gn4 ,v056
 .byte   W36
 .byte   N03 ,Cs4 ,v048
 .byte   W03
 .byte   N02 ,Dn4
 .byte   W03
 .byte   N03 ,Ds4
 .byte   W03
 .byte   N02 ,En4
 .byte   W03
@  #01 @008   ----------------------------------------
 .byte   N12 ,Fn4 ,v064
 .byte   W12
 .byte   N24 ,Dn4 ,v052
 .byte   W36
 .byte   N12 ,Cn5 ,v056
 .byte   W12
 .byte   N06 ,As4 ,v052
 .byte   W06
 .byte   Cn5
 .byte   W06
 .byte   An4
 .byte   W06
 .byte   N12 ,Gn4
 .byte   W12
 .byte   N02 ,Ds4 ,v048
 .byte   W02
 .byte   N03 ,En4
 .byte   W04
@  #01 @009   ----------------------------------------
 .byte   N24 ,Fn4 ,v064
 .byte   W36
 .byte   N06 ,Fn4 ,v052
 .byte   W06
 .byte   As4
 .byte   W06
 .byte   Cn5 ,v056
 .byte   W06
 .byte   N12 ,An4 ,v052
 .byte   W18
 .byte   N06 ,Gn4
 .byte   W12
 .byte   Fn4
 .byte   W06
 .byte   N03 ,An4 ,v048
 .byte   W03
 .byte   N02 ,Gs4
 .byte   W03
@  #01 @010   ----------------------------------------
 .byte   N24 ,Gn4 ,v064
 .byte   W36
 .byte   N06 ,Gn4 ,v052
 .byte   W06
 .byte   Cn5
 .byte   W06
 .byte   Dn5 ,v056
 .byte   W06
 .byte   N12 ,As4 ,v052
 .byte   W18
 .byte   N06 ,An4
 .byte   W12
 .byte   Gn4
 .byte   W06
 .byte   N02 ,Cs5 ,v048
 .byte   W02
 .byte   N03 ,Dn5
 .byte   W04
@  #01 @011   ----------------------------------------
 .byte   N12 ,Ds5 ,v064
 .byte   W18
 .byte   Dn5 ,v052
 .byte   W18
 .byte   Cn5
 .byte   W12
 .byte   N48 ,Gn4 ,v056
 .byte   W48
@  #01 @012   ----------------------------------------
 .byte   W96
@  #01 @013   ----------------------------------------
 .byte   W96
@  #01 @014   ----------------------------------------
 .byte   W96
@  #01 @015   ----------------------------------------
 .byte   W96
@  #01 @016   ----------------------------------------
 .byte   W96
@  #01 @017   ----------------------------------------
 .byte   W96
@  #01 @018   ----------------------------------------
 .byte   W96
@  #01 @019   ----------------------------------------
 .byte   W96
@  #01 @020   ----------------------------------------
 .byte   W96
@  #01 @021   ----------------------------------------
 .byte   W96
@  #01 @022   ----------------------------------------
 .byte   W96
@  #01 @023   ----------------------------------------
 .byte   W96
@  #01 @024   ----------------------------------------
 .byte   W96
@  #01 @025   ----------------------------------------
 .byte   W96
@  #01 @026   ----------------------------------------
 .byte   W96
@  #01 @027   ----------------------------------------
 .byte   W96
@  #01 @028   ----------------------------------------
 .byte   W96
@  #01 @029   ----------------------------------------
 .byte   W96
@  #01 @030   ----------------------------------------
 .byte   W96
@  #01 @031   ----------------------------------------
 .byte   W96
@  #01 @032   ----------------------------------------
 .byte   W96
@  #01 @033   ----------------------------------------
 .byte   W84
 .byte   N03 ,Cs4 ,v048
 .byte   W03
 .byte   N02 ,Dn4
 .byte   W03
 .byte   N03 ,Ds4
 .byte   W03
 .byte   N02 ,En4
 .byte   W03
@  #01 @034   ----------------------------------------
 .byte   GOTO
  .word Label_552C54
 .byte   FINE

@**************** Track 2 (Midi-Chn.1) ****************@

songEverythingTastesPurple_002:
@  #02 @000   ----------------------------------------
 .byte   VOL , 80*songEverythingTastesPurple_mvl/mxv
 .byte   KEYSH , songEverythingTastesPurple_key+0
 .byte   VOICE , 18
 .byte   W96
@  #02 @001   ----------------------------------------
 .byte   W96
@  #02 @002   ----------------------------------------
 .byte   W96
@  #02 @003   ----------------------------------------
 .byte   W96
@  #02 @004   ----------------------------------------
Label_552EB6:
 .byte   W96
@  #02 @005   ----------------------------------------
 .byte   W96
@  #02 @006   ----------------------------------------
 .byte   W96
@  #02 @007   ----------------------------------------
 .byte   W96
@  #02 @008   ----------------------------------------
 .byte   W96
@  #02 @009   ----------------------------------------
 .byte   W96
@  #02 @010   ----------------------------------------
 .byte   W96
@  #02 @011   ----------------------------------------
 .byte   W96
@  #02 @012   ----------------------------------------
 .byte   W96
@  #02 @013   ----------------------------------------
 .byte   W96
@  #02 @014   ----------------------------------------
 .byte   W96
@  #02 @015   ----------------------------------------
 .byte   W96
@  #02 @016   ----------------------------------------
 .byte   W96
@  #02 @017   ----------------------------------------
 .byte   W80
 .byte   W03
 .byte   N03 ,Cs4 ,v048
 .byte   W03
 .byte   N02 ,Dn4
 .byte   W03
 .byte   N03 ,Ds4
 .byte   W03
 .byte   En4
 .byte   W04
@  #02 @018   ----------------------------------------
 .byte   N12 ,Fn4 ,v064
 .byte   W12
 .byte   N24 ,Dn4 ,v052
 .byte   W36
 .byte   N11 ,Cn4 ,v056
 .byte   W11
 .byte   N06 ,As3 ,v052
 .byte   W06
 .byte   Cn4
 .byte   W07
 .byte   An3
 .byte   W06
 .byte   N12 ,Gn3
 .byte   W18
@  #02 @019   ----------------------------------------
 .byte   N24 ,Cn4 ,v064
 .byte   W36
 .byte   Cn4 ,v056
 .byte   W36
 .byte   N17 ,Cn4 ,v052
 .byte   W17
 .byte   N03 ,Cs4 ,v048
 .byte   W03
 .byte   N02 ,Dn4
 .byte   W04
@  #02 @020   ----------------------------------------
 .byte   N23 ,Ds4 ,v064
 .byte   W32
 .byte   W03
 .byte   N24 ,Ds4 ,v056
 .byte   W36
 .byte   N18 ,Ds4 ,v052
 .byte   W19
 .byte   N02 ,Fn4 ,v048
 .byte   W02
 .byte   N03 ,Fs4
 .byte   W04
@  #02 @021   ----------------------------------------
 .byte   N11 ,Gn4 ,v064
 .byte   W17
 .byte   N12 ,Fn4 ,v052
 .byte   W19
 .byte   N11 ,Ds4
 .byte   W11
 .byte   N36 ,Gn4 ,v056
 .byte   W36
 .byte   W01
 .byte   N02 ,Cs4 ,v048
 .byte   W02
 .byte   Dn4
 .byte   W03
 .byte   N03 ,Ds4
 .byte   W03
 .byte   N02 ,En4
 .byte   W03
 .byte   N12 ,Fn4 ,v064
 .byte   W01
@  #02 @022   ----------------------------------------
 .byte   W12
 .byte   N23 ,Dn4 ,v052
 .byte   W36
 .byte   N12 ,Cn5 ,v056
 .byte   W12
 .byte   N06 ,As4 ,v052
 .byte   W06
 .byte   N05 ,Cn5
 .byte   W05
 .byte   N06 ,An4
 .byte   W06
 .byte   N12 ,Gn4
 .byte   W13
 .byte   N02 ,Ds4 ,v048
 .byte   W02
 .byte   N03 ,En4
 .byte   W04
@  #02 @023   ----------------------------------------
 .byte   N23 ,Fn4 ,v064
 .byte   W36
 .byte   N06 ,Fn4 ,v052
 .byte   W06
 .byte   As4
 .byte   W06
 .byte   N05 ,Cn5 ,v056
 .byte   W05
 .byte   N12 ,An4 ,v052
 .byte   W19
 .byte   N06 ,Gn4
 .byte   W12
 .byte   Fn4
 .byte   W06
 .byte   N02 ,An4 ,v048
 .byte   W02
 .byte   Gs4
 .byte   W03
 .byte   N24 ,Gn4 ,v064
 .byte   W01
@  #02 @024   ----------------------------------------
 .byte   W32
 .byte   W03
 .byte   N06 ,Gn4 ,v052
 .byte   W06
 .byte   Cn5
 .byte   W06
 .byte   Dn5 ,v056
 .byte   W07
 .byte   N12 ,As4 ,v052
 .byte   W18
 .byte   N05 ,An4
 .byte   W11
 .byte   N06 ,Gn4
 .byte   W06
 .byte   N03 ,Cs5 ,v048
 .byte   W03
 .byte   Dn5
 .byte   W04
@  #02 @025   ----------------------------------------
 .byte   N12 ,Ds5 ,v064
 .byte   W18
 .byte   N11 ,Dn5 ,v052
 .byte   W18
 .byte   N12 ,Cn5
 .byte   W12
 .byte   N48 ,Gn4 ,v056
 .byte   W48
@  #02 @026   ----------------------------------------
 .byte   W96
@  #02 @027   ----------------------------------------
 .byte   W96
@  #02 @028   ----------------------------------------
 .byte   W96
@  #02 @029   ----------------------------------------
 .byte   W96
@  #02 @030   ----------------------------------------
 .byte   W96
@  #02 @031   ----------------------------------------
 .byte   W96
@  #02 @032   ----------------------------------------
 .byte   W96
@  #02 @033   ----------------------------------------
 .byte   W96
@  #02 @034   ----------------------------------------
 .byte   GOTO
  .word Label_552EB6
 .byte   FINE

@**************** Track 3 (Midi-Chn.2) ****************@

songEverythingTastesPurple_003:
@  #03 @000   ----------------------------------------
 .byte   VOL , 80*songEverythingTastesPurple_mvl/mxv
 .byte   KEYSH , songEverythingTastesPurple_key+0
 .byte   VOICE , 8
 .byte   W96
@  #03 @001   ----------------------------------------
 .byte   W96
@  #03 @002   ----------------------------------------
 .byte   W96
@  #03 @003   ----------------------------------------
 .byte   W96
@  #03 @004   ----------------------------------------
Label_5531F2:
 .byte   W96
@  #03 @005   ----------------------------------------
 .byte   W96
@  #03 @006   ----------------------------------------
 .byte   W96
@  #03 @007   ----------------------------------------
 .byte   W96
@  #03 @008   ----------------------------------------
 .byte   W96
@  #03 @009   ----------------------------------------
 .byte   W96
@  #03 @010   ----------------------------------------
 .byte   W96
@  #03 @011   ----------------------------------------
 .byte   W96
@  #03 @012   ----------------------------------------
 .byte   W96
@  #03 @013   ----------------------------------------
 .byte   W96
@  #03 @014   ----------------------------------------
 .byte   W96
@  #03 @015   ----------------------------------------
 .byte   W96
@  #03 @016   ----------------------------------------
 .byte   W96
@  #03 @017   ----------------------------------------
 .byte   W96
@  #03 @018   ----------------------------------------
 .byte   W96
@  #03 @019   ----------------------------------------
 .byte   W96
@  #03 @020   ----------------------------------------
 .byte   W96
@  #03 @021   ----------------------------------------
 .byte   W96
@  #03 @022   ----------------------------------------
 .byte   W96
@  #03 @023   ----------------------------------------
 .byte   W96
@  #03 @024   ----------------------------------------
 .byte   W96
@  #03 @025   ----------------------------------------
 .byte   W96
@  #03 @026   ----------------------------------------
Label_553208:
 .byte   N36 ,Fn4 ,v064
 .byte   W36
 .byte   Dn4 ,v052
 .byte   W36
 .byte   N12 ,Cn4
 .byte   W12
 .byte   As3
 .byte   W12
 .byte   PEND 
@  #03 @027   ----------------------------------------
Label_553215:
 .byte   N12 ,Gn4 ,v052
 .byte   W12
 .byte   N24 ,Gn4 ,v064
 .byte   W24
 .byte   N36 ,Fn4 ,v052
 .byte   W36
 .byte   N12 ,Dn4
 .byte   W12
 .byte   Cn4
 .byte   W12
 .byte   PEND 
@  #03 @028   ----------------------------------------
Label_553227:
 .byte   N12 ,Gn4 ,v052
 .byte   W12
 .byte   N24 ,As4 ,v064
 .byte   W24
 .byte   N36 ,Gn4 ,v052
 .byte   W36
 .byte   N12 ,Fn4
 .byte   W12
 .byte   Dn4
 .byte   W12
 .byte   PEND 
@  #03 @029   ----------------------------------------
 .byte   N96 ,Gn4 ,v064
 .byte   W96
@  #03 @030   ----------------------------------------
 .byte   PATT
  .word Label_553208
@  #03 @031   ----------------------------------------
 .byte   PATT
  .word Label_553215
@  #03 @032   ----------------------------------------
 .byte   PATT
  .word Label_553227
@  #03 @033   ----------------------------------------
 .byte   N96 ,Gn3 ,v064
 .byte   W96
@  #03 @034   ----------------------------------------
 .byte   GOTO
  .word Label_5531F2
 .byte   FINE

@**************** Track 4 (Midi-Chn.3) ****************@

songEverythingTastesPurple_004:
@  #04 @000   ----------------------------------------
 .byte   VOL , 80*songEverythingTastesPurple_mvl/mxv
 .byte   KEYSH , songEverythingTastesPurple_key+0
 .byte   VOICE , 61
 .byte   N12 ,Gn3 ,v048
 .byte   W18
 .byte   N12
 .byte   W18
 .byte   N12
 .byte   W12
 .byte   Fn3
 .byte   W12
 .byte   N06 ,As3
 .byte   W06
 .byte   An3
 .byte   W06
 .byte   N18 ,Gn3
 .byte   W24
@  #04 @001   ----------------------------------------
 .byte   N12 ,Fn3
 .byte   W18
 .byte   N12
 .byte   W18
 .byte   N12
 .byte   W12
 .byte   Ds3
 .byte   W12
 .byte   N06 ,Gs3
 .byte   W06
 .byte   Gn3
 .byte   W06
 .byte   N18 ,Fn3
 .byte   W24
@  #04 @002   ----------------------------------------
 .byte   N12 ,Cn4
 .byte   W18
 .byte   N12
 .byte   W18
 .byte   N12
 .byte   W12
 .byte   As3
 .byte   W12
 .byte   N06 ,Ds4
 .byte   W06
 .byte   Dn4
 .byte   W06
 .byte   N18 ,Cn4
 .byte   W24
@  #04 @003   ----------------------------------------
 .byte   N96 ,Gn3
 .byte   W96
@  #04 @004   ----------------------------------------
Label_552ABD:
 .byte   W96
@  #04 @005   ----------------------------------------
 .byte   W96
@  #04 @006   ----------------------------------------
 .byte   W96
@  #04 @007   ----------------------------------------
 .byte   W96
@  #04 @008   ----------------------------------------
 .byte   W96
@  #04 @009   ----------------------------------------
 .byte   W96
@  #04 @010   ----------------------------------------
 .byte   W96
@  #04 @011   ----------------------------------------
 .byte   W96
@  #04 @012   ----------------------------------------
 .byte   N24 ,Ds3 ,v064
 .byte   W24
 .byte   N12 ,As3 ,v052
 .byte   W12
 .byte   An3 ,v056
 .byte   W24
 .byte   N24 ,Ds3 ,v052
 .byte   W36
@  #04 @013   ----------------------------------------
 .byte   Fn3 ,v064
 .byte   W24
 .byte   N12 ,Cn4 ,v052
 .byte   W12
 .byte   As3 ,v056
 .byte   W24
 .byte   N24 ,Fn3 ,v052
 .byte   W36
@  #04 @014   ----------------------------------------
 .byte   N06 ,Gn3
 .byte   W12
 .byte   Gn3 ,v056
 .byte   W06
 .byte   Gn3 ,v052
 .byte   W12
 .byte   Gn3 ,v056
 .byte   W06
 .byte   Gn3 ,v052
 .byte   W12
 .byte   Fn3
 .byte   W12
 .byte   Gn3
 .byte   W12
 .byte   Gn3 ,v056
 .byte   W06
 .byte   N12 ,Gn3 ,v052
 .byte   W18
@  #04 @015   ----------------------------------------
 .byte   N24 ,Ds3 ,v064
 .byte   W24
 .byte   N12 ,An3 ,v052
 .byte   W12
 .byte   As3 ,v056
 .byte   W24
 .byte   N24 ,Ds3 ,v052
 .byte   W36
@  #04 @016   ----------------------------------------
 .byte   Fn3 ,v064
 .byte   W24
 .byte   N12 ,An3 ,v052
 .byte   W12
 .byte   As3 ,v056
 .byte   W24
 .byte   N24 ,Cn4 ,v052
 .byte   W36
@  #04 @017   ----------------------------------------
 .byte   N06 ,Dn4
 .byte   W12
 .byte   Dn4 ,v056
 .byte   W06
 .byte   Dn4 ,v052
 .byte   W12
 .byte   Dn4 ,v056
 .byte   W06
 .byte   Dn4 ,v052
 .byte   W12
 .byte   Cn4
 .byte   W12
 .byte   Dn4
 .byte   W12
 .byte   Dn4 ,v056
 .byte   W06
 .byte   N12 ,Dn4 ,v052
 .byte   W18
@  #04 @018   ----------------------------------------
 .byte   W96
@  #04 @019   ----------------------------------------
 .byte   W96
@  #04 @020   ----------------------------------------
 .byte   W96
@  #04 @021   ----------------------------------------
 .byte   W96
@  #04 @022   ----------------------------------------
 .byte   W96
@  #04 @023   ----------------------------------------
 .byte   W96
@  #04 @024   ----------------------------------------
 .byte   W96
@  #04 @025   ----------------------------------------
 .byte   W96
@  #04 @026   ----------------------------------------
 .byte   W96
@  #04 @027   ----------------------------------------
 .byte   W96
@  #04 @028   ----------------------------------------
 .byte   W96
@  #04 @029   ----------------------------------------
 .byte   W96
@  #04 @030   ----------------------------------------
 .byte   W96
@  #04 @031   ----------------------------------------
 .byte   W96
@  #04 @032   ----------------------------------------
 .byte   W96
@  #04 @033   ----------------------------------------
 .byte   W96
@  #04 @034   ----------------------------------------
 .byte   GOTO
  .word Label_552ABD
 .byte   FINE

@**************** Track 5 (Midi-Chn.4) ****************@

songEverythingTastesPurple_005:
@  #05 @000   ----------------------------------------
 .byte   VOL , 80*songEverythingTastesPurple_mvl/mxv
 .byte   KEYSH , songEverythingTastesPurple_key+0
 .byte   VOICE , 42
 .byte   W96
@  #05 @001   ----------------------------------------
 .byte   W96
@  #05 @002   ----------------------------------------
 .byte   W96
@  #05 @003   ----------------------------------------
 .byte   W90
 .byte   N02 ,Cs4 ,v024
 .byte   W02
 .byte   N03 ,Dn4
 .byte   W04
@  #05 @004   ----------------------------------------
Label_552FB5:
 .byte   N02 ,Ds4 ,v024
 .byte   W02
 .byte   N03 ,En4
 .byte   W04
 .byte   N12 ,Fn4 ,v032
 .byte   W12
 .byte   N24 ,Dn4 ,v028
 .byte   W36
 .byte   N12 ,Cn4
 .byte   W12
 .byte   N06 ,As3
 .byte   W06
 .byte   Cn4
 .byte   W06
 .byte   An3
 .byte   W06
 .byte   N12 ,Gn3
 .byte   W12
 .byte   PEND 
@  #05 @005   ----------------------------------------
Label_552FD2:
 .byte   W06
 .byte   N24 ,Cn4 ,v032
 .byte   W36
 .byte   Cn4 ,v028
 .byte   W36
 .byte   N18
 .byte   W18
 .byte   PEND 
@  #05 @006   ----------------------------------------
Label_552FDD:
 .byte   N02 ,Cs4 ,v024
 .byte   W02
 .byte   N03 ,Dn4
 .byte   W04
 .byte   N24 ,Ds4 ,v032
 .byte   W36
 .byte   Ds4 ,v028
 .byte   W36
 .byte   N18
 .byte   W18
 .byte   PEND 
@  #05 @007   ----------------------------------------
 .byte   N02 ,Fn4 ,v024
 .byte   W02
 .byte   N03 ,Fs4
 .byte   W04
 .byte   N12 ,Gn4 ,v032
 .byte   W18
 .byte   Fn4 ,v028
 .byte   W18
 .byte   Ds4
 .byte   W12
 .byte   N36 ,Gn4
 .byte   W36
 .byte   N03 ,Cs4 ,v024
 .byte   W03
 .byte   N02 ,Dn4
 .byte   W03
@  #05 @008   ----------------------------------------
Label_553008:
 .byte   N03 ,Ds4 ,v024
 .byte   W03
 .byte   N02 ,En4
 .byte   W03
 .byte   N12 ,Fn4 ,v032
 .byte   W12
 .byte   N24 ,Dn4 ,v028
 .byte   W36
 .byte   N12 ,Cn5
 .byte   W12
 .byte   N06 ,As4
 .byte   W06
 .byte   Cn5
 .byte   W06
 .byte   An4
 .byte   W06
 .byte   N12 ,Gn4
 .byte   W12
 .byte   PEND 
@  #05 @009   ----------------------------------------
Label_553025:
 .byte   N02 ,Ds4 ,v024
 .byte   W02
 .byte   N03 ,En4
 .byte   W04
 .byte   N24 ,Fn4 ,v032
 .byte   W36
 .byte   N06 ,Fn4 ,v028
 .byte   W06
 .byte   As4
 .byte   W06
 .byte   Cn5
 .byte   W06
 .byte   N12 ,An4
 .byte   W18
 .byte   N06 ,Gn4
 .byte   W12
 .byte   Fn4
 .byte   W06
 .byte   PEND 
@  #05 @010   ----------------------------------------
 .byte   N03 ,An4 ,v024
 .byte   W03
 .byte   N02 ,Gs4
 .byte   W03
 .byte   N24 ,Gn4 ,v032
 .byte   W36
 .byte   N06 ,Gn4 ,v028
 .byte   W06
 .byte   Cn5
 .byte   W06
 .byte   Dn5
 .byte   W06
 .byte   N12 ,As4
 .byte   W18
 .byte   N06 ,An4
 .byte   W12
 .byte   Gn4
 .byte   W06
@  #05 @011   ----------------------------------------
Label_55305C:
 .byte   N02 ,Cs5 ,v024
 .byte   W02
 .byte   N03 ,Dn5
 .byte   W04
 .byte   N12 ,Ds5 ,v032
 .byte   W18
 .byte   Dn5 ,v028
 .byte   W18
 .byte   Cn5
 .byte   W12
 .byte   N42 ,Gn4
 .byte   W42
 .byte   PEND 
@  #05 @012   ----------------------------------------
 .byte   N96 ,Ds4 ,v048
 .byte   W96
@  #05 @013   ----------------------------------------
 .byte   Fn4
 .byte   W96
@  #05 @014   ----------------------------------------
 .byte   N12 ,Gn4 ,v064
 .byte   W18
 .byte   Fn4 ,v052
 .byte   W18
 .byte   Dn4
 .byte   W12
 .byte   Cn4
 .byte   W12
 .byte   N36 ,Gn3 ,v064
 .byte   W36
@  #05 @015   ----------------------------------------
 .byte   N96 ,Ds4 ,v048
 .byte   W96
@  #05 @016   ----------------------------------------
 .byte   Fn4
 .byte   W96
@  #05 @017   ----------------------------------------
 .byte   N12 ,Gn4 ,v064
 .byte   W18
 .byte   Fn4 ,v052
 .byte   W18
 .byte   Dn4
 .byte   W12
 .byte   Cn4
 .byte   W12
 .byte   N24 ,Gn4 ,v064
 .byte   W30
 .byte   N02 ,Cs4 ,v024
 .byte   W02
 .byte   N03 ,Dn4
 .byte   W04
@  #05 @018   ----------------------------------------
 .byte   PATT
  .word Label_552FB5
@  #05 @019   ----------------------------------------
 .byte   PATT
  .word Label_552FD2
@  #05 @020   ----------------------------------------
 .byte   PATT
  .word Label_552FDD
@  #05 @021   ----------------------------------------
 .byte   N02 ,Fn4 ,v024
 .byte   W02
 .byte   N03 ,Fs4
 .byte   W04
 .byte   N12 ,Gn4 ,v032
 .byte   W18
 .byte   Fn4 ,v028
 .byte   W18
 .byte   Ds4
 .byte   W12
 .byte   N36 ,Gn4
 .byte   W36
 .byte   N02 ,Cs4 ,v024
 .byte   W02
 .byte   N03 ,Dn4
 .byte   W04
@  #05 @022   ----------------------------------------
 .byte   PATT
  .word Label_553008
@  #05 @023   ----------------------------------------
 .byte   PATT
  .word Label_553025
@  #05 @024   ----------------------------------------
 .byte   N02 ,An4 ,v024
 .byte   W02
 .byte   N03 ,Gs4
 .byte   W04
 .byte   N24 ,Gn4 ,v032
 .byte   W36
 .byte   N06 ,Gn4 ,v028
 .byte   W06
 .byte   Cn5
 .byte   W06
 .byte   Dn5
 .byte   W06
 .byte   N12 ,As4
 .byte   W18
 .byte   N06 ,An4
 .byte   W12
 .byte   Gn4
 .byte   W06
@  #05 @025   ----------------------------------------
 .byte   PATT
  .word Label_55305C
@  #05 @026   ----------------------------------------
 .byte   W96
@  #05 @027   ----------------------------------------
 .byte   W96
@  #05 @028   ----------------------------------------
 .byte   W96
@  #05 @029   ----------------------------------------
 .byte   W96
@  #05 @030   ----------------------------------------
 .byte   W96
@  #05 @031   ----------------------------------------
 .byte   W96
@  #05 @032   ----------------------------------------
 .byte   W96
@  #05 @033   ----------------------------------------
 .byte   W90
 .byte   N03 ,Cs4 ,v024
 .byte   W03
 .byte   N02 ,Dn4
 .byte   W03
@  #05 @034   ----------------------------------------
 .byte   GOTO
  .word Label_552FB5
 .byte   FINE

@**************** Track 6 (Midi-Chn.5) ****************@

songEverythingTastesPurple_006:
@  #06 @000   ----------------------------------------
 .byte   VOL , 80*songEverythingTastesPurple_mvl/mxv
 .byte   KEYSH , songEverythingTastesPurple_key+0
 .byte   VOICE , 36
 .byte   N06 ,Gn2 ,v064
 .byte   W06
 .byte   Gn2 ,v052
 .byte   W12
 .byte   N06
 .byte   W12
 .byte   N02
 .byte   W12
 .byte   N03 ,Dn3
 .byte   W06
 .byte   N06 ,Gn2 ,v056
 .byte   W06
 .byte   Fn2 ,v052
 .byte   W12
 .byte   Gn2
 .byte   W12
 .byte   N03
 .byte   W18
@  #06 @001   ----------------------------------------
 .byte   N06 ,Fn2 ,v064
 .byte   W06
 .byte   Fn2 ,v052
 .byte   W12
 .byte   N06
 .byte   W12
 .byte   N03
 .byte   W12
 .byte   N02 ,Cn3
 .byte   W06
 .byte   N06 ,Fn2 ,v056
 .byte   W06
 .byte   Ds2 ,v052
 .byte   W12
 .byte   Fn2
 .byte   W12
 .byte   N03
 .byte   W18
@  #06 @002   ----------------------------------------
Label_01007D14:
 .byte   N06 ,Cn3 ,v064
 .byte   W06
 .byte   Cn3 ,v052
 .byte   W12
 .byte   N06
 .byte   W12
 .byte   N02
 .byte   W12
 .byte   Gn3
 .byte   W06
 .byte   N06 ,Cn3 ,v056
 .byte   W06
 .byte   As2 ,v052
 .byte   W12
 .byte   Cn3
 .byte   W12
 .byte   N02
 .byte   W18
 .byte   PEND 
@  #06 @003   ----------------------------------------
Label_01007D2D:
 .byte   N06 ,Ds3 ,v064
 .byte   W06
 .byte   Ds3 ,v052
 .byte   W12
 .byte   N06
 .byte   W12
 .byte   N03
 .byte   W12
 .byte   As3
 .byte   W06
 .byte   N12 ,Ds3 ,v056
 .byte   W12
 .byte   N06 ,Dn3 ,v052
 .byte   W12
 .byte   Ds3
 .byte   W06
 .byte   N06
 .byte   W06
 .byte   N12 ,As2
 .byte   W12
 .byte   PEND 
@  #06 @004   ----------------------------------------
Label_01007D4A:
 .byte   N06 ,Gn2 ,v064
 .byte   W06
 .byte   Gn2 ,v052
 .byte   W12
 .byte   N06
 .byte   W12
 .byte   N02
 .byte   W12
 .byte   N03 ,Dn3
 .byte   W06
 .byte   N06 ,Gn2 ,v056
 .byte   W06
 .byte   Fn2 ,v052
 .byte   W12
 .byte   Gn2
 .byte   W12
 .byte   N03
 .byte   W18
 .byte   PEND 
@  #06 @005   ----------------------------------------
Label_01007D64:
 .byte   N06 ,Fn2 ,v064
 .byte   W06
 .byte   Fn2 ,v052
 .byte   W12
 .byte   N06
 .byte   W12
 .byte   N03
 .byte   W12
 .byte   Cn3
 .byte   W06
 .byte   N06 ,Fn2 ,v056
 .byte   W06
 .byte   Ds2 ,v052
 .byte   W12
 .byte   Fn2
 .byte   W12
 .byte   N03
 .byte   W18
 .byte   PEND 
@  #06 @006   ----------------------------------------
Label_01007D7D:
 .byte   N06 ,Cn3 ,v064
 .byte   W06
 .byte   Cn3 ,v052
 .byte   W12
 .byte   N06
 .byte   W12
 .byte   N03
 .byte   W12
 .byte   N02 ,Gn3
 .byte   W06
 .byte   N06 ,Cn3 ,v056
 .byte   W06
 .byte   As2 ,v052
 .byte   W12
 .byte   Cn3
 .byte   W12
 .byte   N02
 .byte   W18
 .byte   PEND 
@  #06 @007   ----------------------------------------
 .byte   PATT
  .word Label_01007D2D
@  #06 @008   ----------------------------------------
 .byte   N06 ,Gn2 ,v064
 .byte   W06
 .byte   Gn2 ,v052
 .byte   W12
 .byte   N06
 .byte   W12
 .byte   N02
 .byte   W12
 .byte   Dn3
 .byte   W06
 .byte   N06 ,Gn2 ,v056
 .byte   W06
 .byte   Fn2 ,v052
 .byte   W12
 .byte   Gn2
 .byte   W12
 .byte   N03
 .byte   W18
@  #06 @009   ----------------------------------------
Label_01007DB4:
 .byte   N06 ,Fn2 ,v064
 .byte   W06
 .byte   Fn2 ,v052
 .byte   W12
 .byte   N06
 .byte   W12
 .byte   N02
 .byte   W12
 .byte   Cn3
 .byte   W06
 .byte   N06 ,Fn2 ,v056
 .byte   W06
 .byte   Ds2 ,v052
 .byte   W12
 .byte   Fn2
 .byte   W12
 .byte   N02
 .byte   W18
 .byte   PEND 
@  #06 @010   ----------------------------------------
 .byte   PATT
  .word Label_01007D14
@  #06 @011   ----------------------------------------
Label_01007DD2:
 .byte   N06 ,Ds3 ,v064
 .byte   W06
 .byte   Ds3 ,v052
 .byte   W12
 .byte   N06
 .byte   W12
 .byte   N03
 .byte   W12
 .byte   N02 ,As3
 .byte   W06
 .byte   N12 ,Ds3 ,v056
 .byte   W12
 .byte   N06 ,Dn3 ,v052
 .byte   W12
 .byte   Ds3
 .byte   W06
 .byte   N06
 .byte   W06
 .byte   N12 ,As2
 .byte   W12
 .byte   PEND 
@  #06 @012   ----------------------------------------
Label_01007DF0:
 .byte   N12 ,Ds2 ,v064
 .byte   W12
 .byte   N06 ,Dn2 ,v052
 .byte   W06
 .byte   N12 ,Ds2
 .byte   W18
 .byte   N12
 .byte   W12
 .byte   Ds2 ,v056
 .byte   W12
 .byte   N06 ,Dn2 ,v052
 .byte   W06
 .byte   N12 ,Ds2
 .byte   W18
 .byte   N12
 .byte   W12
 .byte   PEND 
@  #06 @013   ----------------------------------------
Label_01007E0A:
 .byte   N12 ,Fn2 ,v064
 .byte   W12
 .byte   N06 ,Ds2 ,v052
 .byte   W06
 .byte   N12 ,Fn2
 .byte   W18
 .byte   N12
 .byte   W12
 .byte   Fn2 ,v056
 .byte   W12
 .byte   N06 ,Ds2 ,v052
 .byte   W06
 .byte   N12 ,Fn2
 .byte   W18
 .byte   N12
 .byte   W12
 .byte   PEND 
@  #06 @014   ----------------------------------------
Label_01007E24:
 .byte   N12 ,Gn2 ,v064
 .byte   W12
 .byte   N06 ,Fn2 ,v052
 .byte   W06
 .byte   N12 ,Gn2
 .byte   W18
 .byte   N12
 .byte   W12
 .byte   Gn3 ,v056
 .byte   W12
 .byte   N06 ,Fn3 ,v052
 .byte   W06
 .byte   N12 ,Dn3
 .byte   W18
 .byte   Gn2
 .byte   W12
 .byte   PEND 
@  #06 @015   ----------------------------------------
 .byte   PATT
  .word Label_01007DF0
@  #06 @016   ----------------------------------------
 .byte   PATT
  .word Label_01007E0A
@  #06 @017   ----------------------------------------
 .byte   PATT
  .word Label_01007E24
@  #06 @018   ----------------------------------------
 .byte   N06 ,Gn2 ,v064
 .byte   N01 ,As2 ,v052
 .byte   W06
 .byte   N06 ,Gn2
 .byte   W12
 .byte   N06
 .byte   W12
 .byte   N03
 .byte   W12
 .byte   Dn3
 .byte   W06
 .byte   N06 ,Gn2 ,v056
 .byte   W06
 .byte   Fn2 ,v052
 .byte   W12
 .byte   Gn2
 .byte   W12
 .byte   N03
 .byte   W18
@  #06 @019   ----------------------------------------
 .byte   PATT
  .word Label_01007D64
@  #06 @020   ----------------------------------------
 .byte   PATT
  .word Label_01007D7D
@  #06 @021   ----------------------------------------
 .byte   PATT
  .word Label_01007D2D
@  #06 @022   ----------------------------------------
 .byte   PATT
  .word Label_01007D4A
@  #06 @023   ----------------------------------------
 .byte   PATT
  .word Label_01007DB4
@  #06 @024   ----------------------------------------
 .byte   PATT
  .word Label_01007D14
@  #06 @025   ----------------------------------------
 .byte   PATT
  .word Label_01007DD2
@  #06 @026   ----------------------------------------
Label_01007E8B:
 .byte   N12 ,Gn2 ,v064
 .byte   W12
 .byte   N06 ,Gn2 ,v048
 .byte   W06
 .byte   N12 ,Gn2 ,v052
 .byte   W12
 .byte   N06 ,Gn2 ,v048
 .byte   W06
 .byte   N24 ,Fn2 ,v052
 .byte   W24
 .byte   N12 ,Gn2 ,v064
 .byte   W12
 .byte   N06 ,Fn2 ,v048
 .byte   W06
 .byte   N12 ,Gn2 ,v052
 .byte   W12
 .byte   N06 ,Fn2 ,v048
 .byte   W06
 .byte   PEND 
@  #06 @027   ----------------------------------------
Label_01007EB0:
 .byte   N12 ,As2 ,v064
 .byte   W12
 .byte   N06 ,As2 ,v048
 .byte   W06
 .byte   N12 ,As2 ,v052
 .byte   W12
 .byte   N06 ,As2 ,v048
 .byte   W06
 .byte   N24 ,An2 ,v052
 .byte   W24
 .byte   N12 ,As2 ,v064
 .byte   W12
 .byte   N06 ,An2 ,v048
 .byte   W06
 .byte   N12 ,As2 ,v052
 .byte   W12
 .byte   N06 ,An2 ,v048
 .byte   W06
 .byte   PEND 
@  #06 @028   ----------------------------------------
Label_01007ED5:
 .byte   N12 ,Fn2 ,v064
 .byte   W12
 .byte   N06 ,Fn2 ,v048
 .byte   W06
 .byte   N12 ,Fn2 ,v052
 .byte   W12
 .byte   N06 ,Fn2 ,v048
 .byte   W06
 .byte   N24 ,Ds2 ,v052
 .byte   W24
 .byte   N12 ,Fn2 ,v064
 .byte   W12
 .byte   N06 ,Ds2 ,v048
 .byte   W06
 .byte   N12 ,Fn2 ,v052
 .byte   W12
 .byte   N06 ,Ds2 ,v048
 .byte   W06
 .byte   PEND 
@  #06 @029   ----------------------------------------
 .byte   N24 ,Dn3 ,v064
 .byte   W24
 .byte   Cn3
 .byte   W24
 .byte   An2
 .byte   W24
 .byte   N06 ,Dn2
 .byte   W06
 .byte   Cn2
 .byte   W06
 .byte   N12 ,Dn2
 .byte   W12
@  #06 @030   ----------------------------------------
 .byte   PATT
  .word Label_01007E8B
@  #06 @031   ----------------------------------------
 .byte   PATT
  .word Label_01007EB0
@  #06 @032   ----------------------------------------
 .byte   PATT
  .word Label_01007ED5
@  #06 @033   ----------------------------------------
 .byte   N24 ,Dn2 ,v064
 .byte   W24
 .byte   An2
 .byte   W24
 .byte   Cn3
 .byte   W24
 .byte   N06 ,Dn3
 .byte   W06
 .byte   Cn3
 .byte   W06
 .byte   N12 ,Dn3
 .byte   W12
@  #06 @034   ----------------------------------------
 .byte   GOTO
  .word Label_01007D4A
 .byte   FINE

@**************** Track 7 (Midi-Chn.6) ****************@

songEverythingTastesPurple_007:
@  #07 @000   ----------------------------------------
 .byte   VOL , 80*songEverythingTastesPurple_mvl/mxv
 .byte   KEYSH , songEverythingTastesPurple_key+0
 .byte   VOICE , 4
 .byte   N72 ,Gn2 ,v040
 .byte   N72 ,As2
 .byte   N72 ,Dn3
 .byte   W72
 .byte   N24 ,Gn2
 .byte   N24 ,An2
 .byte   N24 ,Dn3
 .byte   W24
@  #07 @001   ----------------------------------------
Label_01007F45:
 .byte   N96 ,Fn2 ,v040
 .byte   N96 ,An2
 .byte   N96 ,Cn3
 .byte   W96
 .byte   PEND 
@  #07 @002   ----------------------------------------
Label_01007F4E:
 .byte   N72 ,Ds2 ,v040
 .byte   N72 ,Gn2
 .byte   N72 ,Cn3
 .byte   W72
 .byte   N24 ,Gn2
 .byte   N24 ,Cn3
 .byte   N24 ,Ds3
 .byte   W24
 .byte   PEND 
@  #07 @003   ----------------------------------------
Label_01007F5E:
 .byte   N96 ,Gn2 ,v040
 .byte   N96 ,As2
 .byte   N96 ,Ds3
 .byte   W96
 .byte   PEND 
@  #07 @004   ----------------------------------------
Label_01007F67:
 .byte   N72 ,Gn2 ,v040
 .byte   N72 ,As2
 .byte   N72 ,Dn3
 .byte   W72
 .byte   N24 ,Gn2
 .byte   N24 ,An2
 .byte   N24 ,Dn3
 .byte   W24
@  #07 @005   ----------------------------------------
 .byte   PATT
  .word Label_01007F45
@  #07 @006   ----------------------------------------
 .byte   PATT
  .word Label_01007F4E
@  #07 @007   ----------------------------------------
 .byte   PATT
  .word Label_01007F5E
@  #07 @008   ----------------------------------------
Label_01007F85:
 .byte   N72 ,Gn2 ,v040
 .byte   N72 ,As2
 .byte   N72 ,Dn3
 .byte   N01 ,Ds3
 .byte   W72
 .byte   N24 ,Gn2
 .byte   N24 ,An2
 .byte   N24 ,Dn3
 .byte   W24
 .byte   PEND 
@  #07 @009   ----------------------------------------
 .byte   PATT
  .word Label_01007F45
@  #07 @010   ----------------------------------------
 .byte   PATT
  .word Label_01007F4E
@  #07 @011   ----------------------------------------
 .byte   PATT
  .word Label_01007F5E
@  #07 @012   ----------------------------------------
Label_01007FA6:
 .byte   N24 ,Ds2 ,v040
 .byte   N24 ,Gn2
 .byte   N24 ,As2
 .byte   W24
 .byte   Ds2
 .byte   N24 ,Gn2
 .byte   N24 ,As2
 .byte   W24
 .byte   Ds2
 .byte   N24 ,Gn2
 .byte   N24 ,As2
 .byte   W24
 .byte   Ds2
 .byte   N24 ,Gn2
 .byte   N24 ,As2
 .byte   W24
 .byte   PEND 
@  #07 @013   ----------------------------------------
Label_01007FC1:
 .byte   N24 ,Fn2 ,v040
 .byte   N24 ,An2
 .byte   N24 ,Cn3
 .byte   W24
 .byte   Fn2
 .byte   N24 ,An2
 .byte   N24 ,Cn3
 .byte   W24
 .byte   Fn2
 .byte   N24 ,An2
 .byte   N24 ,Cn3
 .byte   W24
 .byte   Fn2
 .byte   N24 ,An2
 .byte   N24 ,Cn3
 .byte   W24
 .byte   PEND 
@  #07 @014   ----------------------------------------
Label_01007FDC:
 .byte   N12 ,Gn2 ,v040
 .byte   N12 ,Cn3
 .byte   N12 ,Dn3
 .byte   W24
 .byte   N72 ,Gn2
 .byte   N72 ,As2
 .byte   N72 ,Dn3
 .byte   W72
 .byte   PEND 
@  #07 @015   ----------------------------------------
 .byte   PATT
  .word Label_01007FA6
@  #07 @016   ----------------------------------------
 .byte   PATT
  .word Label_01007FC1
@  #07 @017   ----------------------------------------
 .byte   PATT
  .word Label_01007FDC
@  #07 @018   ----------------------------------------
 .byte   PATT
  .word Label_01007F85
@  #07 @019   ----------------------------------------
 .byte   PATT
  .word Label_01007F45
@  #07 @020   ----------------------------------------
 .byte   PATT
  .word Label_01007F4E
@  #07 @021   ----------------------------------------
 .byte   PATT
  .word Label_01007F5E
@  #07 @022   ----------------------------------------
 .byte   PATT
  .word Label_01007F85
@  #07 @023   ----------------------------------------
 .byte   PATT
  .word Label_01007F45
@  #07 @024   ----------------------------------------
 .byte   PATT
  .word Label_01007F4E
@  #07 @025   ----------------------------------------
 .byte   PATT
  .word Label_01007F5E
@  #07 @026   ----------------------------------------
Label_01008023:
 .byte   N96 ,Gn2 ,v040
 .byte   N96 ,As2
 .byte   N96 ,Dn3
 .byte   W96
 .byte   PEND 
@  #07 @027   ----------------------------------------
Label_0100802C:
 .byte   N72 ,Fn2 ,v040
 .byte   N72 ,As2
 .byte   N72 ,Dn3
 .byte   W72
 .byte   N24 ,Fn2
 .byte   N24 ,As2
 .byte   N24 ,Cn3
 .byte   W24
 .byte   PEND 
@  #07 @028   ----------------------------------------
Label_0100803C:
 .byte   N72 ,Fn2 ,v040
 .byte   N72 ,An2
 .byte   N72 ,Cn3
 .byte   W72
 .byte   N24 ,Fn2
 .byte   N24 ,Gn2
 .byte   N24 ,Cn3
 .byte   W24
 .byte   PEND 
@  #07 @029   ----------------------------------------
Label_0100804C:
 .byte   N24 ,Dn2 ,v040
 .byte   N24 ,Gn2
 .byte   N24 ,An2
 .byte   W24
 .byte   N72 ,Dn2
 .byte   N72 ,Fn2
 .byte   N72 ,An2
 .byte   W72
 .byte   PEND 
@  #07 @030   ----------------------------------------
 .byte   PATT
  .word Label_01008023
@  #07 @031   ----------------------------------------
 .byte   PATT
  .word Label_0100802C
@  #07 @032   ----------------------------------------
 .byte   PATT
  .word Label_0100803C
@  #07 @033   ----------------------------------------
 .byte   PATT
  .word Label_0100804C
@  #07 @034   ----------------------------------------
 .byte   GOTO
  .word Label_01007F67
 .byte   FINE

@**************** Track 8 (Midi-Chn.7) ****************@

songEverythingTastesPurple_008:
@  #08 @000   ----------------------------------------
 .byte   VOL , 80*songEverythingTastesPurple_mvl/mxv
 .byte   KEYSH , songEverythingTastesPurple_key+0
 .byte   VOICE , 124
 .byte   N96 ,Cn1 ,v064
 .byte   N24 ,Gs1
 .byte   W24
 .byte   Gs1 ,v052
 .byte   W24
 .byte   Gs1 ,v056
 .byte   W24
 .byte   Gs1 ,v052
 .byte   W24
@  #08 @001   ----------------------------------------
Label_0100808D:
 .byte   N48 ,Cn1 ,v064
 .byte   N24 ,Gs1
 .byte   W24
 .byte   Gs1 ,v052
 .byte   W24
 .byte   N48 ,Cn1 ,v056
 .byte   N24 ,Gs1
 .byte   W24
 .byte   Gs1 ,v052
 .byte   W24
 .byte   PEND 
@  #08 @002   ----------------------------------------
 .byte   PATT
  .word Label_0100808D
@  #08 @003   ----------------------------------------
 .byte   N48 ,Cn1 ,v064
 .byte   N24 ,Gs1
 .byte   W24
 .byte   Gs1 ,v052
 .byte   W24
 .byte   N12 ,Cn1 ,v048
 .byte   W12
 .byte   Cn1 ,v052
 .byte   W12
 .byte   Cn1 ,v056
 .byte   W12
 .byte   Cn1 ,v060
 .byte   W12
@  #08 @004   ----------------------------------------
Label_010080BB:
 .byte   N24 ,Cn1 ,v064
 .byte   N12 ,Gs1
 .byte   W12
 .byte   Gs1 ,v048
 .byte   W12
 .byte   N24 ,En1 ,v052
 .byte   N12 ,Gs1
 .byte   W12
 .byte   Gs1 ,v048
 .byte   W12
 .byte   N24 ,Cn1 ,v056
 .byte   N12 ,Gs1
 .byte   W12
 .byte   Gs1 ,v048
 .byte   W12
 .byte   En1 ,v052
 .byte   N12 ,Gs1
 .byte   W12
 .byte   En1 ,v048
 .byte   N12 ,Gs1
 .byte   W12
 .byte   PEND 
@  #08 @005   ----------------------------------------
 .byte   PATT
  .word Label_010080BB
@  #08 @006   ----------------------------------------
 .byte   PATT
  .word Label_010080BB
@  #08 @007   ----------------------------------------
Label_010080EB:
 .byte   N24 ,Cn1 ,v064
 .byte   N12 ,Gs1
 .byte   W12
 .byte   Gs1 ,v048
 .byte   W12
 .byte   N24 ,En1 ,v052
 .byte   N12 ,Gs1
 .byte   W12
 .byte   Gs1 ,v048
 .byte   W12
 .byte   Cn1
 .byte   N12 ,En1
 .byte   W12
 .byte   Cn1 ,v052
 .byte   N12 ,En1
 .byte   W12
 .byte   N06 ,Cn1 ,v056
 .byte   N06 ,En1
 .byte   W06
 .byte   Cn1
 .byte   N06 ,En1
 .byte   W06
 .byte   Cn1 ,v060
 .byte   N06 ,En1
 .byte   W06
 .byte   Cn1
 .byte   N06 ,En1
 .byte   W06
 .byte   PEND 
@  #08 @008   ----------------------------------------
 .byte   PATT
  .word Label_010080BB
@  #08 @009   ----------------------------------------
 .byte   PATT
  .word Label_010080BB
@  #08 @010   ----------------------------------------
 .byte   PATT
  .word Label_010080BB
@  #08 @011   ----------------------------------------
Label_01008129:
 .byte   N24 ,An1 ,v052
 .byte   W24
 .byte   N12 ,Gn1 ,v048
 .byte   W12
 .byte   Gn1 ,v056
 .byte   W12
 .byte   N06 ,Fn1
 .byte   W06
 .byte   Fn1 ,v060
 .byte   W06
 .byte   N12 ,Gn1 ,v056
 .byte   W12
 .byte   N06 ,En1
 .byte   W06
 .byte   N06
 .byte   W06
 .byte   N06
 .byte   W06
 .byte   N06
 .byte   W06
 .byte   PEND 
@  #08 @012   ----------------------------------------
 .byte   N24 ,Cn1 ,v064
 .byte   N12 ,Gs1
 .byte   N24 ,Cs2
 .byte   W12
 .byte   N12 ,Gs1 ,v048
 .byte   W12
 .byte   N24 ,En1 ,v052
 .byte   N12 ,Gs1
 .byte   W12
 .byte   Gs1 ,v048
 .byte   W12
 .byte   N24 ,Cn1 ,v056
 .byte   N12 ,Gs1
 .byte   W12
 .byte   Gs1 ,v048
 .byte   W12
 .byte   En1 ,v052
 .byte   N12 ,Gs1
 .byte   W12
 .byte   En1 ,v048
 .byte   N12 ,Gs1
 .byte   W12
@  #08 @013   ----------------------------------------
 .byte   PATT
  .word Label_010080BB
@  #08 @014   ----------------------------------------
Label_01008175:
 .byte   N24 ,Cn1 ,v064
 .byte   N12 ,Gs1
 .byte   W12
 .byte   Gs1 ,v048
 .byte   W12
 .byte   N24 ,En1 ,v052
 .byte   N12 ,Gs1
 .byte   W12
 .byte   Gs1 ,v048
 .byte   W12
 .byte   Cn1
 .byte   N06 ,Gn1
 .byte   W06
 .byte   N06
 .byte   W06
 .byte   N12 ,Cn1 ,v052
 .byte   N06 ,Fn1
 .byte   W06
 .byte   N06
 .byte   W06
 .byte   N12 ,Cn1 ,v056
 .byte   N06 ,En1
 .byte   W06
 .byte   N06
 .byte   W06
 .byte   N12 ,Cn1 ,v060
 .byte   N12 ,En1
 .byte   W12
 .byte   PEND 
@  #08 @015   ----------------------------------------
 .byte   PATT
  .word Label_010080BB
@  #08 @016   ----------------------------------------
 .byte   PATT
  .word Label_010080BB
@  #08 @017   ----------------------------------------
 .byte   PATT
  .word Label_01008175
@  #08 @018   ----------------------------------------
 .byte   PATT
  .word Label_010080BB
@  #08 @019   ----------------------------------------
 .byte   PATT
  .word Label_010080BB
@  #08 @020   ----------------------------------------
 .byte   PATT
  .word Label_010080BB
@  #08 @021   ----------------------------------------
 .byte   PATT
  .word Label_010080EB
@  #08 @022   ----------------------------------------
 .byte   PATT
  .word Label_010080BB
@  #08 @023   ----------------------------------------
 .byte   PATT
  .word Label_010080BB
@  #08 @024   ----------------------------------------
 .byte   PATT
  .word Label_010080BB
@  #08 @025   ----------------------------------------
 .byte   PATT
  .word Label_01008129
@  #08 @026   ----------------------------------------
Label_010081DB:
 .byte   N12 ,Dn1 ,v064
 .byte   W12
 .byte   N06 ,Gs1 ,v048
 .byte   W12
 .byte   N12 ,Dn1 ,v052
 .byte   N06 ,Gs1 ,v048
 .byte   W12
 .byte   N06
 .byte   W12
 .byte   N12 ,Dn1 ,v056
 .byte   N06 ,Gs1 ,v048
 .byte   W12
 .byte   N06
 .byte   W12
 .byte   Dn1 ,v052
 .byte   N06 ,Gs1 ,v048
 .byte   W06
 .byte   Dn1 ,v052
 .byte   N06 ,Gs1 ,v048
 .byte   W06
 .byte   Dn1
 .byte   W06
 .byte   N06
 .byte   N06 ,Gs1
 .byte   W06
 .byte   PEND 
@  #08 @027   ----------------------------------------
 .byte   PATT
  .word Label_010081DB
@  #08 @028   ----------------------------------------
 .byte   PATT
  .word Label_010081DB
@  #08 @029   ----------------------------------------
Label_01008212:
 .byte   N12 ,Dn1 ,v064
 .byte   W12
 .byte   N06 ,Gs1 ,v048
 .byte   W12
 .byte   N12 ,Dn1 ,v052
 .byte   N06 ,Gs1 ,v048
 .byte   W12
 .byte   N06
 .byte   W12
 .byte   Fn1 ,v064
 .byte   W06
 .byte   En1
 .byte   W06
 .byte   N06
 .byte   W06
 .byte   Ds1
 .byte   W30
 .byte   PEND 
@  #08 @030   ----------------------------------------
 .byte   PATT
  .word Label_010081DB
@  #08 @031   ----------------------------------------
 .byte   PATT
  .word Label_010081DB
@  #08 @032   ----------------------------------------
 .byte   PATT
  .word Label_010081DB
@  #08 @033   ----------------------------------------
 .byte   PATT
  .word Label_01008212
@  #08 @034   ----------------------------------------
 .byte   GOTO
  .word Label_010080BB
 .byte   FINE

@******************************************************@
	.align	2

songEverythingTastesPurple:
	.byte	8	@ NumTrks
	.byte	0	@ NumBlks
	.byte	songEverythingTastesPurple_pri	@ Priority
	.byte	songEverythingTastesPurple_rev	@ Reverb.
    
	.word	songEverythingTastesPurple_grp
    
	.word	songEverythingTastesPurple_001
	.word	songEverythingTastesPurple_002
	.word	songEverythingTastesPurple_003
	.word	songEverythingTastesPurple_004
	.word	songEverythingTastesPurple_005
	.word	songEverythingTastesPurple_006
	.word	songEverythingTastesPurple_007
	.word	songEverythingTastesPurple_008

	.end
