//Event file generated from Sappy .s format.
	#include "MPlayDef.event"

	#define	Fatalize_grp  voicegroup000
	#define	Fatalize_pri  0
	#define	Fatalize_rev  0
	#define	Fatalize_mvl  60
	#define	Fatalize_key  0
	#define	Fatalize_tbs  1
	#define	Fatalize_exg  0
	#define	Fatalize_cmp  1

	// .rodata
	//	Fatalize
	ALIGN 4

//**************** Track 1 (Midi-Chn.1) ****************//

Fatalize_1:
	BYTE	KEYSH   Fatalize_key+0
Fatalize_1_B1:
// 000   ----------------------------------------
	BYTE	TEMPO   159*Fatalize_tbs/2
	BYTE		VOICE   85
	BYTE		VOL     106*Fatalize_mvl/mxv
	BYTE		PAN     c_v+0
	BYTE		        c_v+0
	BYTE		N05     Fs4   v096
	BYTE	W06
	BYTE		        Gs4 
	BYTE	W06
	BYTE		        An4 
	BYTE	W06
	BYTE		        Bn4 
	BYTE	W06
// 001   ----------------------------------------
Fatalize_1_001:
	BYTE		N80     Cs5   v096
	BYTE	W84
	BYTE		N05     Bn4 
	BYTE	W06
	BYTE		        An4 
	BYTE	W06
	BYTE	PEND
// 002   ----------------------------------------
Fatalize_1_002:
	BYTE		N11     Gs4   v096
	BYTE	W12
	BYTE		        An4 
	BYTE	W12
	BYTE		        Gs4 
	BYTE	W12
	BYTE		N23     En4 
	BYTE	W24
	BYTE		N11     Cs4 
	BYTE	W12
	BYTE		N23     En4 
	BYTE	W24
	BYTE	PEND
// 003   ----------------------------------------
Fatalize_1_003:
	BYTE		N11     En4   v096
	BYTE	W12
	BYTE		        Fs4 
	BYTE	W12
	BYTE		        Gs4 
	BYTE	W12
	BYTE		        An4 
	BYTE	W12
	BYTE		        Bn4 
	BYTE	W12
	BYTE		N05     An4 
	BYTE	W06
	BYTE		        Bn4 
	BYTE	W06
	BYTE		N11     An4 
	BYTE	W12
	BYTE		        Gs4 
	BYTE	W12
	BYTE	PEND
// 004   ----------------------------------------
Fatalize_1_004:
	BYTE		N11     An4   v096
	BYTE	W12
	BYTE		N23     Gs4 
	BYTE	W24
	BYTE		N32     Fs4 
	BYTE	W36
	BYTE		N05   
	BYTE	W06
	BYTE		        Gs4 
	BYTE	W06
	BYTE		        An4 
	BYTE	W06
	BYTE		        Bn4 
	BYTE	W06
	BYTE	PEND
// 005   ----------------------------------------
Fatalize_1_005:
	BYTE		N23     Cs5   v096
	BYTE	W24
	BYTE		N11     An4 
	BYTE	W12
	BYTE		N23     Bn4 
	BYTE	W24
	BYTE		N11     Gs4 
	BYTE	W12
	BYTE		N23     An4 
	BYTE	W24
	BYTE	PEND
// 006   ----------------------------------------
Fatalize_1_006:
	BYTE		N11     Fs4   v096
	BYTE	W12
	BYTE		N23     Gs4 
	BYTE	W24
	BYTE		        En4 
	BYTE	W24
	BYTE		N11     Fs4 
	BYTE	W12
	BYTE		        Gs4 
	BYTE	W12
	BYTE		        An4 
	BYTE	W12
	BYTE	PEND
// 007   ----------------------------------------
Fatalize_1_007:
	BYTE		N23     Bn4   v096
	BYTE	W24
	BYTE		N11     An4 
	BYTE	W12
	BYTE		N23     Gs4 
	BYTE	W24
	BYTE		        An4 
	BYTE	W24
	BYTE		        Gs4 
	BYTE	W12
	BYTE	PEND
// 008   ----------------------------------------
Fatalize_1_008:
	BYTE	W12
	BYTE		N23     Fs4   v096
	BYTE	W24
	BYTE		        Fn4 
	BYTE	W24
	BYTE		N11     Fs4 
	BYTE	W12
	BYTE		        Gs4 
	BYTE	W12
	BYTE		        Fn4 
	BYTE	W12
	BYTE	PEND
// 009   ----------------------------------------
	BYTE	W96
// 010   ----------------------------------------
	BYTE	W96
// 011   ----------------------------------------
	BYTE	W96
// 012   ----------------------------------------
	BYTE	W96
// 013   ----------------------------------------
	BYTE	W96
// 014   ----------------------------------------
	BYTE	W96
// 015   ----------------------------------------
	BYTE	W96
// 016   ----------------------------------------
	BYTE	W96
// 017   ----------------------------------------
	BYTE	W96
// 018   ----------------------------------------
	BYTE	W96
// 019   ----------------------------------------
	BYTE	W96
// 020   ----------------------------------------
	BYTE	W96
// 021   ----------------------------------------
	BYTE	W96
// 022   ----------------------------------------
	BYTE	W96
// 023   ----------------------------------------
	BYTE	W96
// 024   ----------------------------------------
	BYTE	W96
// 025   ----------------------------------------
	BYTE	W96
// 026   ----------------------------------------
	BYTE	W96
// 027   ----------------------------------------
	BYTE	W96
// 028   ----------------------------------------
	BYTE	W96
// 029   ----------------------------------------
	BYTE	W96
// 030   ----------------------------------------
	BYTE	W96
// 031   ----------------------------------------
	BYTE	W96
// 032   ----------------------------------------
	BYTE	W96
// 033   ----------------------------------------
	BYTE	W96
// 034   ----------------------------------------
	BYTE	W96
// 035   ----------------------------------------
	BYTE	W96
// 036   ----------------------------------------
	BYTE	W96
// 037   ----------------------------------------
	BYTE	W96
// 038   ----------------------------------------
	BYTE	W96
// 039   ----------------------------------------
	BYTE	W96
// 040   ----------------------------------------
Fatalize_1_040:
	BYTE	W72
	BYTE		N05     Fs4   v096
	BYTE	W06
	BYTE		        Gs4 
	BYTE	W06
	BYTE		        An4 
	BYTE	W06
	BYTE		        Bn4 
	BYTE	W06
	BYTE	PEND
// 041   ----------------------------------------
	BYTE	PATT
	 POIN2	Fatalize_1_001
// 042   ----------------------------------------
	BYTE	PATT
	 POIN2	Fatalize_1_002
// 043   ----------------------------------------
	BYTE	PATT
	 POIN2	Fatalize_1_003
// 044   ----------------------------------------
	BYTE	PATT
	 POIN2	Fatalize_1_004
// 045   ----------------------------------------
	BYTE	PATT
	 POIN2	Fatalize_1_005
// 046   ----------------------------------------
	BYTE	PATT
	 POIN2	Fatalize_1_006
// 047   ----------------------------------------
	BYTE	PATT
	 POIN2	Fatalize_1_007
// 048   ----------------------------------------
	BYTE	PATT
	 POIN2	Fatalize_1_008
// 049   ----------------------------------------
	BYTE	W96
// 050   ----------------------------------------
	BYTE	W96
// 051   ----------------------------------------
	BYTE	W96
// 052   ----------------------------------------
	BYTE	W96
// 053   ----------------------------------------
	BYTE	W96
// 054   ----------------------------------------
	BYTE	W96
// 055   ----------------------------------------
	BYTE	W96
// 056   ----------------------------------------
	BYTE	W96
// 057   ----------------------------------------
	BYTE	W96
// 058   ----------------------------------------
	BYTE	W96
// 059   ----------------------------------------
	BYTE	W96
// 060   ----------------------------------------
	BYTE	W96
// 061   ----------------------------------------
	BYTE	W96
// 062   ----------------------------------------
	BYTE	W96
// 063   ----------------------------------------
	BYTE	W96
// 064   ----------------------------------------
	BYTE	W96
// 065   ----------------------------------------
	BYTE	W96
// 066   ----------------------------------------
	BYTE	W96
// 067   ----------------------------------------
	BYTE	W96
// 068   ----------------------------------------
	BYTE	W96
// 069   ----------------------------------------
	BYTE	W96
// 070   ----------------------------------------
	BYTE	W96
// 071   ----------------------------------------
	BYTE	W96
// 072   ----------------------------------------
	BYTE	W96
// 073   ----------------------------------------
	BYTE	W96
// 074   ----------------------------------------
	BYTE	W96
// 075   ----------------------------------------
	BYTE	W96
// 076   ----------------------------------------
	BYTE	W96
// 077   ----------------------------------------
	BYTE	W96
// 078   ----------------------------------------
	BYTE	W96
// 079   ----------------------------------------
	BYTE	W96
// 080   ----------------------------------------
	BYTE	PATT
	 POIN2	Fatalize_1_040
// 081   ----------------------------------------
	BYTE	PATT
	 POIN2	Fatalize_1_001
// 082   ----------------------------------------
	BYTE	PATT
	 POIN2	Fatalize_1_002
// 083   ----------------------------------------
	BYTE	PATT
	 POIN2	Fatalize_1_003
// 084   ----------------------------------------
	BYTE	PATT
	 POIN2	Fatalize_1_004
// 085   ----------------------------------------
	BYTE	PATT
	 POIN2	Fatalize_1_005
// 086   ----------------------------------------
	BYTE	PATT
	 POIN2	Fatalize_1_006
// 087   ----------------------------------------
	BYTE	PATT
	 POIN2	Fatalize_1_007
// 088   ----------------------------------------
	BYTE	PATT
	 POIN2	Fatalize_1_008
// 089   ----------------------------------------
	BYTE	W96
// 090   ----------------------------------------
	BYTE	W96
// 091   ----------------------------------------
	BYTE	W96
// 092   ----------------------------------------
	BYTE	W96
// 093   ----------------------------------------
	BYTE	W96
// 094   ----------------------------------------
	BYTE	W96
// 095   ----------------------------------------
	BYTE	W96
// 096   ----------------------------------------
	BYTE	W96
// 097   ----------------------------------------
	BYTE	W96
// 098   ----------------------------------------
	BYTE	W96
// 099   ----------------------------------------
	BYTE	W96
// 100   ----------------------------------------
	BYTE	W96
// 101   ----------------------------------------
	BYTE	W96
// 102   ----------------------------------------
	BYTE	W96
// 103   ----------------------------------------
	BYTE	W96
// 104   ----------------------------------------
	BYTE	W96
// 105   ----------------------------------------
	BYTE	W96
// 106   ----------------------------------------
	BYTE	W96
// 107   ----------------------------------------
	BYTE	W96
// 108   ----------------------------------------
	BYTE	W96
// 109   ----------------------------------------
	BYTE	W96
// 110   ----------------------------------------
	BYTE	W96
// 111   ----------------------------------------
	BYTE	W96
// 112   ----------------------------------------
	BYTE	W96
// 113   ----------------------------------------
	BYTE	W96
// 114   ----------------------------------------
	BYTE	W96
// 115   ----------------------------------------
	BYTE	W96
// 116   ----------------------------------------
	BYTE	W96
// 117   ----------------------------------------
	BYTE	W96
// 118   ----------------------------------------
	BYTE	W96
// 119   ----------------------------------------
	BYTE	W96
// 120   ----------------------------------------
	BYTE	PATT
	 POIN2	Fatalize_1_040
// 121   ----------------------------------------
	BYTE	W23
	BYTE	GoTo
	 POIN2	Fatalize_1_B1
Fatalize_1_B2:
	BYTE	FINE

//**************** Track 2 (Midi-Chn.2) ****************//

Fatalize_2:
	BYTE	KEYSH   Fatalize_key+0
Fatalize_2_B1:
// 000   ----------------------------------------
	BYTE		VOICE   51
	BYTE		VOL     93*Fatalize_mvl/mxv
	BYTE		PAN     c_v+0
	BYTE		VOL     1*Fatalize_mvl/mxv
	BYTE		PAN     c_v+0
	BYTE	W24
// 001   ----------------------------------------
	BYTE	W96
// 002   ----------------------------------------
	BYTE	W96
// 003   ----------------------------------------
	BYTE	W96
// 004   ----------------------------------------
	BYTE	W96
// 005   ----------------------------------------
	BYTE	W96
// 006   ----------------------------------------
	BYTE	W96
// 007   ----------------------------------------
	BYTE	W96
// 008   ----------------------------------------
	BYTE	W96
// 009   ----------------------------------------
Fatalize_2_009:
	BYTE	W24
	BYTE		N23     Cs4   v080
	BYTE	W24
	BYTE		        Bn3 
	BYTE	W24
	BYTE		        An3 
	BYTE	W24
	BYTE	PEND
// 010   ----------------------------------------
Fatalize_2_010:
	BYTE		N44     Gs3   v080
	BYTE	W48
	BYTE		N68     En3 
	BYTE	W48
	BYTE	PEND
// 011   ----------------------------------------
Fatalize_2_011:
	BYTE	W24
	BYTE		N23     Bn3   v080
	BYTE	W24
	BYTE		        An3 
	BYTE	W24
	BYTE		        Gs3 
	BYTE	W24
	BYTE	PEND
// 012   ----------------------------------------
Fatalize_2_012:
	BYTE		N44     Fs3   v080
	BYTE	W48
	BYTE		N68     Dn3 
	BYTE	W48
	BYTE	PEND
// 013   ----------------------------------------
	BYTE	PATT
	 POIN2	Fatalize_2_009
// 014   ----------------------------------------
Fatalize_2_014:
	BYTE		N44     Gs3   v080
	BYTE	W48
	BYTE		        En3 
	BYTE	W48
	BYTE	PEND
// 015   ----------------------------------------
Fatalize_2_015:
	BYTE		N44     Dn3   v080
	BYTE	W48
	BYTE		        Fs3 
	BYTE	W48
	BYTE	PEND
// 016   ----------------------------------------
Fatalize_2_016:
	BYTE		N44     Fn3   v080
	BYTE	W48
	BYTE		        Gs3 
	BYTE	W48
	BYTE	PEND
// 017   ----------------------------------------
Fatalize_2_017:
	BYTE		N32     Dn4   v096
	BYTE	W36
	BYTE		        Cs4 
	BYTE	W36
	BYTE		N23     Bn3 
	BYTE	W24
	BYTE	PEND
// 018   ----------------------------------------
Fatalize_2_018:
	BYTE		N32     Gs3   v096
	BYTE	W36
	BYTE		        An3 
	BYTE	W36
	BYTE		N23     Gs3 
	BYTE	W24
	BYTE	PEND
// 019   ----------------------------------------
	BYTE		TIE     Fs3 
	BYTE	W96
// 020   ----------------------------------------
	BYTE	W23
	BYTE		EOT   
	BYTE	W01
	BYTE		N23     Gs3 
	BYTE	W24
	BYTE		        An3 
	BYTE	W24
	BYTE		        Gs3 
	BYTE	W24
// 021   ----------------------------------------
Fatalize_2_021:
	BYTE		N32     Cs4   v096
	BYTE	W36
	BYTE		        Fs3 
	BYTE	W36
	BYTE		N23     Cs4 
	BYTE	W24
	BYTE	PEND
// 022   ----------------------------------------
Fatalize_2_022:
	BYTE		N32     Bn3   v096
	BYTE	W36
	BYTE		        Gs3 
	BYTE	W36
	BYTE		N23     Bn3 
	BYTE	W24
	BYTE	PEND
// 023   ----------------------------------------
	BYTE		N92     An3 
	BYTE	W96
// 024   ----------------------------------------
Fatalize_2_024:
	BYTE		N23     Fs3   v096
	BYTE	W24
	BYTE		        Gs3 
	BYTE	W24
	BYTE		        An3 
	BYTE	W24
	BYTE		        Bn3 
	BYTE	W24
	BYTE	PEND
// 025   ----------------------------------------
Fatalize_2_025:
	BYTE		N32     Fs4   v096
	BYTE	W36
	BYTE		        Cs4 
	BYTE	W36
	BYTE		N23     Fs4 
	BYTE	W24
	BYTE	PEND
// 026   ----------------------------------------
Fatalize_2_026:
	BYTE		N32     En4   v096
	BYTE	W36
	BYTE		        Cs4 
	BYTE	W36
	BYTE		N23     En4 
	BYTE	W24
	BYTE	PEND
// 027   ----------------------------------------
Fatalize_2_027:
	BYTE		N32     Gs4   v096
	BYTE	W36
	BYTE		N68     Fs4 
	BYTE	W60
	BYTE	PEND
// 028   ----------------------------------------
Fatalize_2_028:
	BYTE	W12
	BYTE		N11     Cs4   v116
	BYTE	W12
	BYTE		        Cn4 
	BYTE	W12
	BYTE		        Bn3 
	BYTE	W12
	BYTE		        An3 
	BYTE	W12
	BYTE		        Bn3 
	BYTE	W12
	BYTE		        Gs3 
	BYTE	W12
	BYTE		        An3 
	BYTE	W12
	BYTE	PEND
// 029   ----------------------------------------
Fatalize_2_029:
	BYTE		N32     Fs3   v096
	BYTE	W36
	BYTE		        An3 
	BYTE	W36
	BYTE		N23     Cs4 
	BYTE	W24
	BYTE	PEND
// 030   ----------------------------------------
Fatalize_2_030:
	BYTE		N32     Bn3   v096
	BYTE	W36
	BYTE		        Gs3 
	BYTE	W36
	BYTE		N23     En3 
	BYTE	W24
	BYTE	PEND
// 031   ----------------------------------------
	BYTE		N92     Fs4 
	BYTE	W96
// 032   ----------------------------------------
Fatalize_2_032:
	BYTE		N05     Fs3   v096
	BYTE	W06
	BYTE		        Gs3 
	BYTE	W06
	BYTE		        An3 
	BYTE	W06
	BYTE		        Bn3 
	BYTE	W06
	BYTE		        Gs3 
	BYTE	W06
	BYTE		        An3 
	BYTE	W06
	BYTE		        Bn3 
	BYTE	W06
	BYTE		        Cs4 
	BYTE	W06
	BYTE		        An3 
	BYTE	W06
	BYTE		        Bn3 
	BYTE	W06
	BYTE		        Cs4 
	BYTE	W06
	BYTE		        Dn4 
	BYTE	W06
	BYTE		        Fs4 
	BYTE	W06
	BYTE		        Gs4 
	BYTE	W06
	BYTE		        An4 
	BYTE	W06
	BYTE		        Bn4 
	BYTE	W06
	BYTE	PEND
// 033   ----------------------------------------
Fatalize_2_033:
	BYTE		N56     Cs5   v096
	BYTE	W60
	BYTE		N23     Bn4 
	BYTE	W24
	BYTE		N11     An4 
	BYTE	W12
	BYTE	PEND
// 034   ----------------------------------------
Fatalize_2_034:
	BYTE		N23     Gs4   v096
	BYTE	W24
	BYTE		N11     An4 
	BYTE	W12
	BYTE		N23     Gs4 
	BYTE	W24
	BYTE		N32     En4 
	BYTE	W36
	BYTE	PEND
// 035   ----------------------------------------
Fatalize_2_035:
	BYTE		N44     Fs4   v096
	BYTE	W48
	BYTE		N32     En4 
	BYTE	W36
	BYTE		N68     Fs4 
	BYTE	W12
	BYTE	PEND
// 036   ----------------------------------------
Fatalize_2_036:
	BYTE	W60
	BYTE		N11     Cs4   v096
	BYTE	W12
	BYTE		        Cn4 
	BYTE	W12
	BYTE		        Bn3 
	BYTE	W12
	BYTE	PEND
// 037   ----------------------------------------
Fatalize_2_037:
	BYTE		N32     An3   v096
	BYTE	W36
	BYTE		        Bn3 
	BYTE	W36
	BYTE		N23     Cs4 
	BYTE	W24
	BYTE	PEND
// 038   ----------------------------------------
Fatalize_2_038:
	BYTE		N32     Gs4   v096
	BYTE	W36
	BYTE		        Fs4 
	BYTE	W36
	BYTE		N23     En4 
	BYTE	W24
	BYTE	PEND
// 039   ----------------------------------------
Fatalize_2_039:
	BYTE		N44     Fs4   v096
	BYTE	W48
	BYTE		        En4 
	BYTE	W48
	BYTE	PEND
// 040   ----------------------------------------
	BYTE		N92     Cs4 
	BYTE	W96
// 041   ----------------------------------------
	BYTE	W96
// 042   ----------------------------------------
	BYTE	W96
// 043   ----------------------------------------
	BYTE	W96
// 044   ----------------------------------------
	BYTE	W96
// 045   ----------------------------------------
	BYTE	W96
// 046   ----------------------------------------
	BYTE	W96
// 047   ----------------------------------------
	BYTE	W96
// 048   ----------------------------------------
	BYTE	W96
// 049   ----------------------------------------
	BYTE	PATT
	 POIN2	Fatalize_2_009
// 050   ----------------------------------------
	BYTE	PATT
	 POIN2	Fatalize_2_010
// 051   ----------------------------------------
	BYTE	PATT
	 POIN2	Fatalize_2_011
// 052   ----------------------------------------
	BYTE	PATT
	 POIN2	Fatalize_2_012
// 053   ----------------------------------------
	BYTE	PATT
	 POIN2	Fatalize_2_009
// 054   ----------------------------------------
	BYTE	PATT
	 POIN2	Fatalize_2_014
// 055   ----------------------------------------
	BYTE	PATT
	 POIN2	Fatalize_2_015
// 056   ----------------------------------------
	BYTE	PATT
	 POIN2	Fatalize_2_016
// 057   ----------------------------------------
	BYTE	PATT
	 POIN2	Fatalize_2_017
// 058   ----------------------------------------
	BYTE	PATT
	 POIN2	Fatalize_2_018
// 059   ----------------------------------------
	BYTE		TIE     Fs3   v096
	BYTE	W96
// 060   ----------------------------------------
	BYTE	W23
	BYTE		EOT   
	BYTE	W01
	BYTE		N23     Gs3 
	BYTE	W24
	BYTE		        An3 
	BYTE	W24
	BYTE		        Gs3 
	BYTE	W24
// 061   ----------------------------------------
	BYTE	PATT
	 POIN2	Fatalize_2_021
// 062   ----------------------------------------
	BYTE	PATT
	 POIN2	Fatalize_2_022
// 063   ----------------------------------------
	BYTE		N92     An3   v096
	BYTE	W96
// 064   ----------------------------------------
	BYTE	PATT
	 POIN2	Fatalize_2_024
// 065   ----------------------------------------
	BYTE	PATT
	 POIN2	Fatalize_2_025
// 066   ----------------------------------------
	BYTE	PATT
	 POIN2	Fatalize_2_026
// 067   ----------------------------------------
	BYTE	PATT
	 POIN2	Fatalize_2_027
// 068   ----------------------------------------
	BYTE	PATT
	 POIN2	Fatalize_2_028
// 069   ----------------------------------------
	BYTE	PATT
	 POIN2	Fatalize_2_029
// 070   ----------------------------------------
	BYTE	PATT
	 POIN2	Fatalize_2_030
// 071   ----------------------------------------
	BYTE		N92     Fs4   v096
	BYTE	W96
// 072   ----------------------------------------
	BYTE	PATT
	 POIN2	Fatalize_2_032
// 073   ----------------------------------------
	BYTE	PATT
	 POIN2	Fatalize_2_033
// 074   ----------------------------------------
	BYTE	PATT
	 POIN2	Fatalize_2_034
// 075   ----------------------------------------
	BYTE	PATT
	 POIN2	Fatalize_2_035
// 076   ----------------------------------------
	BYTE	PATT
	 POIN2	Fatalize_2_036
// 077   ----------------------------------------
	BYTE	PATT
	 POIN2	Fatalize_2_037
// 078   ----------------------------------------
	BYTE	PATT
	 POIN2	Fatalize_2_038
// 079   ----------------------------------------
	BYTE	PATT
	 POIN2	Fatalize_2_039
// 080   ----------------------------------------
	BYTE		N92     Cs4   v096
	BYTE	W96
// 081   ----------------------------------------
	BYTE	W96
// 082   ----------------------------------------
	BYTE	W96
// 083   ----------------------------------------
	BYTE	W96
// 084   ----------------------------------------
	BYTE	W96
// 085   ----------------------------------------
	BYTE	W96
// 086   ----------------------------------------
	BYTE	W96
// 087   ----------------------------------------
	BYTE	W96
// 088   ----------------------------------------
	BYTE	W96
// 089   ----------------------------------------
	BYTE	PATT
	 POIN2	Fatalize_2_009
// 090   ----------------------------------------
	BYTE	PATT
	 POIN2	Fatalize_2_010
// 091   ----------------------------------------
	BYTE	PATT
	 POIN2	Fatalize_2_011
// 092   ----------------------------------------
	BYTE	PATT
	 POIN2	Fatalize_2_012
// 093   ----------------------------------------
	BYTE	PATT
	 POIN2	Fatalize_2_009
// 094   ----------------------------------------
	BYTE	PATT
	 POIN2	Fatalize_2_014
// 095   ----------------------------------------
	BYTE	PATT
	 POIN2	Fatalize_2_015
// 096   ----------------------------------------
	BYTE	PATT
	 POIN2	Fatalize_2_016
// 097   ----------------------------------------
	BYTE	PATT
	 POIN2	Fatalize_2_017
// 098   ----------------------------------------
	BYTE	PATT
	 POIN2	Fatalize_2_018
// 099   ----------------------------------------
	BYTE		TIE     Fs3   v096
	BYTE	W96
// 100   ----------------------------------------
	BYTE	W23
	BYTE		EOT   
	BYTE	W01
	BYTE		N23     Gs3 
	BYTE	W24
	BYTE		        An3 
	BYTE	W24
	BYTE		        Gs3 
	BYTE	W24
// 101   ----------------------------------------
	BYTE	PATT
	 POIN2	Fatalize_2_021
// 102   ----------------------------------------
	BYTE	PATT
	 POIN2	Fatalize_2_022
// 103   ----------------------------------------
	BYTE		N92     An3   v096
	BYTE	W96
// 104   ----------------------------------------
	BYTE	PATT
	 POIN2	Fatalize_2_024
// 105   ----------------------------------------
	BYTE	PATT
	 POIN2	Fatalize_2_025
// 106   ----------------------------------------
	BYTE	PATT
	 POIN2	Fatalize_2_026
// 107   ----------------------------------------
	BYTE	PATT
	 POIN2	Fatalize_2_027
// 108   ----------------------------------------
	BYTE	PATT
	 POIN2	Fatalize_2_028
// 109   ----------------------------------------
	BYTE	PATT
	 POIN2	Fatalize_2_029
// 110   ----------------------------------------
	BYTE	PATT
	 POIN2	Fatalize_2_030
// 111   ----------------------------------------
	BYTE		N92     Fs4   v096
	BYTE	W96
// 112   ----------------------------------------
	BYTE	PATT
	 POIN2	Fatalize_2_032
// 113   ----------------------------------------
	BYTE	PATT
	 POIN2	Fatalize_2_033
// 114   ----------------------------------------
	BYTE	PATT
	 POIN2	Fatalize_2_034
// 115   ----------------------------------------
	BYTE	PATT
	 POIN2	Fatalize_2_035
// 116   ----------------------------------------
	BYTE	PATT
	 POIN2	Fatalize_2_036
// 117   ----------------------------------------
	BYTE	PATT
	 POIN2	Fatalize_2_037
// 118   ----------------------------------------
	BYTE	PATT
	 POIN2	Fatalize_2_038
// 119   ----------------------------------------
	BYTE	PATT
	 POIN2	Fatalize_2_039
// 120   ----------------------------------------
	BYTE		N92     Cs4   v096
	BYTE	W96
// 121   ----------------------------------------
	BYTE	W23
	BYTE	GoTo
	 POIN2	Fatalize_2_B1
Fatalize_2_B2:
	BYTE	FINE

//**************** Track 3 (Midi-Chn.5) ****************//

Fatalize_3:
	BYTE	KEYSH   Fatalize_key+0
Fatalize_3_B1:
// 000   ----------------------------------------
	BYTE		VOICE   51
	BYTE		VOL     83*Fatalize_mvl/mxv
	BYTE		PAN     c_v+0
	BYTE	W24
// 001   ----------------------------------------
	BYTE	W96
// 002   ----------------------------------------
	BYTE	W96
// 003   ----------------------------------------
	BYTE	W96
// 004   ----------------------------------------
	BYTE	W96
// 005   ----------------------------------------
	BYTE	W96
// 006   ----------------------------------------
	BYTE	W96
// 007   ----------------------------------------
	BYTE	W96
// 008   ----------------------------------------
	BYTE	W96
// 009   ----------------------------------------
	BYTE	W96
// 010   ----------------------------------------
	BYTE	W96
// 011   ----------------------------------------
	BYTE	W96
// 012   ----------------------------------------
	BYTE	W96
// 013   ----------------------------------------
	BYTE	W96
// 014   ----------------------------------------
	BYTE	W96
// 015   ----------------------------------------
	BYTE	W96
// 016   ----------------------------------------
	BYTE	W96
// 017   ----------------------------------------
Fatalize_3_017:
	BYTE		N32     Dn4   v096
	BYTE	W36
	BYTE		        Cs4 
	BYTE	W36
	BYTE		N23     Bn3 
	BYTE	W24
	BYTE	PEND
// 018   ----------------------------------------
Fatalize_3_018:
	BYTE		N32     Gs3   v096
	BYTE	W36
	BYTE		        An3 
	BYTE	W36
	BYTE		N23     Gs3 
	BYTE	W24
	BYTE	PEND
// 019   ----------------------------------------
	BYTE		TIE     Fs3 
	BYTE	W96
// 020   ----------------------------------------
	BYTE	W23
	BYTE		EOT   
	BYTE	W01
	BYTE		N23     Gs3 
	BYTE	W24
	BYTE		        An3 
	BYTE	W24
	BYTE		        Gs3 
	BYTE	W24
// 021   ----------------------------------------
Fatalize_3_021:
	BYTE		N32     Cs4   v096
	BYTE	W36
	BYTE		        Fs3 
	BYTE	W36
	BYTE		N23     Cs4 
	BYTE	W24
	BYTE	PEND
// 022   ----------------------------------------
Fatalize_3_022:
	BYTE		N32     Bn3   v096
	BYTE	W36
	BYTE		        Gs3 
	BYTE	W36
	BYTE		N23     Bn3 
	BYTE	W24
	BYTE	PEND
// 023   ----------------------------------------
	BYTE		N92     An3 
	BYTE	W96
// 024   ----------------------------------------
Fatalize_3_024:
	BYTE		N23     Fs3   v096
	BYTE	W24
	BYTE		        Gs3 
	BYTE	W24
	BYTE		        An3 
	BYTE	W24
	BYTE		        Bn3 
	BYTE	W24
	BYTE	PEND
// 025   ----------------------------------------
Fatalize_3_025:
	BYTE		N32     Fs4   v096
	BYTE	W36
	BYTE		        Cs4 
	BYTE	W36
	BYTE		N23     Fs4 
	BYTE	W24
	BYTE	PEND
// 026   ----------------------------------------
Fatalize_3_026:
	BYTE		N32     En4   v096
	BYTE	W36
	BYTE		        Cs4 
	BYTE	W36
	BYTE		N23     En4 
	BYTE	W24
	BYTE	PEND
// 027   ----------------------------------------
Fatalize_3_027:
	BYTE		N32     Gs4   v096
	BYTE	W36
	BYTE		N68     Fs4 
	BYTE	W60
	BYTE	PEND
// 028   ----------------------------------------
Fatalize_3_028:
	BYTE	W12
	BYTE		N11     Cs4   v116
	BYTE	W12
	BYTE		        Cn4 
	BYTE	W12
	BYTE		        Bn3 
	BYTE	W12
	BYTE		        An3 
	BYTE	W12
	BYTE		        Bn3 
	BYTE	W12
	BYTE		        Gs3 
	BYTE	W12
	BYTE		        An3 
	BYTE	W12
	BYTE	PEND
// 029   ----------------------------------------
	BYTE		N92     Dn4   v080
	BYTE	W96
// 030   ----------------------------------------
	BYTE		        En4 
	BYTE	W96
// 031   ----------------------------------------
	BYTE		        Fs3 
	BYTE	W96
// 032   ----------------------------------------
Fatalize_3_032:
	BYTE		N05     Fs3   v096
	BYTE	W06
	BYTE		        Gs3 
	BYTE	W06
	BYTE		        An3 
	BYTE	W06
	BYTE		        Bn3 
	BYTE	W06
	BYTE		        Gs3 
	BYTE	W06
	BYTE		        An3 
	BYTE	W06
	BYTE		        Bn3 
	BYTE	W06
	BYTE		        Cs4 
	BYTE	W06
	BYTE		        An3 
	BYTE	W06
	BYTE		        Bn3 
	BYTE	W06
	BYTE		        Cs4 
	BYTE	W06
	BYTE		        Dn4 
	BYTE	W06
	BYTE		        Fs4 
	BYTE	W06
	BYTE		        Gs4 
	BYTE	W06
	BYTE		        An4 
	BYTE	W06
	BYTE		        Bn4 
	BYTE	W06
	BYTE	PEND
// 033   ----------------------------------------
Fatalize_3_033:
	BYTE		N56     Cs5   v096
	BYTE	W60
	BYTE		N23     Bn4 
	BYTE	W24
	BYTE		N11     An4 
	BYTE	W12
	BYTE	PEND
// 034   ----------------------------------------
Fatalize_3_034:
	BYTE		N23     Gs4   v096
	BYTE	W24
	BYTE		N11     An4 
	BYTE	W12
	BYTE		N23     Gs4 
	BYTE	W24
	BYTE		N32     En4 
	BYTE	W36
	BYTE	PEND
// 035   ----------------------------------------
Fatalize_3_035:
	BYTE		N44     Fs4   v096
	BYTE	W48
	BYTE		N32     En4 
	BYTE	W36
	BYTE		N68     Fs4 
	BYTE	W12
	BYTE	PEND
// 036   ----------------------------------------
Fatalize_3_036:
	BYTE	W60
	BYTE		N11     Cs4   v096
	BYTE	W12
	BYTE		        Cn4 
	BYTE	W12
	BYTE		        Bn3 
	BYTE	W12
	BYTE	PEND
// 037   ----------------------------------------
Fatalize_3_037:
	BYTE		N32     An3   v096
	BYTE	W36
	BYTE		        Bn3 
	BYTE	W36
	BYTE		N23     Cs4 
	BYTE	W24
	BYTE	PEND
// 038   ----------------------------------------
Fatalize_3_038:
	BYTE		N32     Gs4   v096
	BYTE	W36
	BYTE		        Fs4 
	BYTE	W36
	BYTE		N23     En4 
	BYTE	W24
	BYTE	PEND
// 039   ----------------------------------------
Fatalize_3_039:
	BYTE		N44     Fs4   v096
	BYTE	W48
	BYTE		        En4 
	BYTE	W48
	BYTE	PEND
// 040   ----------------------------------------
	BYTE		N92     Cs4 
	BYTE	W96
// 041   ----------------------------------------
	BYTE	W96
// 042   ----------------------------------------
	BYTE	W96
// 043   ----------------------------------------
	BYTE	W96
// 044   ----------------------------------------
	BYTE	W96
// 045   ----------------------------------------
	BYTE	W96
// 046   ----------------------------------------
	BYTE	W96
// 047   ----------------------------------------
	BYTE	W96
// 048   ----------------------------------------
	BYTE	W96
// 049   ----------------------------------------
	BYTE	W96
// 050   ----------------------------------------
	BYTE	W96
// 051   ----------------------------------------
	BYTE	W96
// 052   ----------------------------------------
	BYTE	W96
// 053   ----------------------------------------
	BYTE	W96
// 054   ----------------------------------------
	BYTE	W96
// 055   ----------------------------------------
	BYTE	W96
// 056   ----------------------------------------
	BYTE	W96
// 057   ----------------------------------------
	BYTE	PATT
	 POIN2	Fatalize_3_017
// 058   ----------------------------------------
	BYTE	PATT
	 POIN2	Fatalize_3_018
// 059   ----------------------------------------
	BYTE		TIE     Fs3   v096
	BYTE	W96
// 060   ----------------------------------------
	BYTE	W23
	BYTE		EOT   
	BYTE	W01
	BYTE		N23     Gs3 
	BYTE	W24
	BYTE		        An3 
	BYTE	W24
	BYTE		        Gs3 
	BYTE	W24
// 061   ----------------------------------------
	BYTE	PATT
	 POIN2	Fatalize_3_021
// 062   ----------------------------------------
	BYTE	PATT
	 POIN2	Fatalize_3_022
// 063   ----------------------------------------
	BYTE		N92     An3   v096
	BYTE	W96
// 064   ----------------------------------------
	BYTE	PATT
	 POIN2	Fatalize_3_024
// 065   ----------------------------------------
	BYTE	PATT
	 POIN2	Fatalize_3_025
// 066   ----------------------------------------
	BYTE	PATT
	 POIN2	Fatalize_3_026
// 067   ----------------------------------------
	BYTE	PATT
	 POIN2	Fatalize_3_027
// 068   ----------------------------------------
	BYTE	PATT
	 POIN2	Fatalize_3_028
// 069   ----------------------------------------
	BYTE		N92     Dn4   v080
	BYTE	W96
// 070   ----------------------------------------
	BYTE		        En4 
	BYTE	W96
// 071   ----------------------------------------
	BYTE		        Fs3 
	BYTE	W96
// 072   ----------------------------------------
	BYTE	PATT
	 POIN2	Fatalize_3_032
// 073   ----------------------------------------
	BYTE	PATT
	 POIN2	Fatalize_3_033
// 074   ----------------------------------------
	BYTE	PATT
	 POIN2	Fatalize_3_034
// 075   ----------------------------------------
	BYTE	PATT
	 POIN2	Fatalize_3_035
// 076   ----------------------------------------
	BYTE	PATT
	 POIN2	Fatalize_3_036
// 077   ----------------------------------------
	BYTE	PATT
	 POIN2	Fatalize_3_037
// 078   ----------------------------------------
	BYTE	PATT
	 POIN2	Fatalize_3_038
// 079   ----------------------------------------
	BYTE	PATT
	 POIN2	Fatalize_3_039
// 080   ----------------------------------------
	BYTE		N92     Cs4   v096
	BYTE	W96
// 081   ----------------------------------------
	BYTE	W96
// 082   ----------------------------------------
	BYTE	W96
// 083   ----------------------------------------
	BYTE	W96
// 084   ----------------------------------------
	BYTE	W96
// 085   ----------------------------------------
	BYTE	W96
// 086   ----------------------------------------
	BYTE	W96
// 087   ----------------------------------------
	BYTE	W96
// 088   ----------------------------------------
	BYTE	W96
// 089   ----------------------------------------
	BYTE	W96
// 090   ----------------------------------------
	BYTE	W96
// 091   ----------------------------------------
	BYTE	W96
// 092   ----------------------------------------
	BYTE	W96
// 093   ----------------------------------------
	BYTE	W96
// 094   ----------------------------------------
	BYTE	W96
// 095   ----------------------------------------
	BYTE	W96
// 096   ----------------------------------------
	BYTE	W96
// 097   ----------------------------------------
	BYTE	PATT
	 POIN2	Fatalize_3_017
// 098   ----------------------------------------
	BYTE	PATT
	 POIN2	Fatalize_3_018
// 099   ----------------------------------------
	BYTE		TIE     Fs3   v096
	BYTE	W96
// 100   ----------------------------------------
	BYTE	W23
	BYTE		EOT   
	BYTE	W01
	BYTE		N23     Gs3 
	BYTE	W24
	BYTE		        An3 
	BYTE	W24
	BYTE		        Gs3 
	BYTE	W24
// 101   ----------------------------------------
	BYTE	PATT
	 POIN2	Fatalize_3_021
// 102   ----------------------------------------
	BYTE	PATT
	 POIN2	Fatalize_3_022
// 103   ----------------------------------------
	BYTE		N92     An3   v096
	BYTE	W96
// 104   ----------------------------------------
	BYTE	PATT
	 POIN2	Fatalize_3_024
// 105   ----------------------------------------
	BYTE	PATT
	 POIN2	Fatalize_3_025
// 106   ----------------------------------------
	BYTE	PATT
	 POIN2	Fatalize_3_026
// 107   ----------------------------------------
	BYTE	PATT
	 POIN2	Fatalize_3_027
// 108   ----------------------------------------
	BYTE	PATT
	 POIN2	Fatalize_3_028
// 109   ----------------------------------------
	BYTE		N92     Dn4   v080
	BYTE	W96
// 110   ----------------------------------------
	BYTE		        En4 
	BYTE	W96
// 111   ----------------------------------------
	BYTE		        Fs3 
	BYTE	W96
// 112   ----------------------------------------
	BYTE	PATT
	 POIN2	Fatalize_3_032
// 113   ----------------------------------------
	BYTE	PATT
	 POIN2	Fatalize_3_033
// 114   ----------------------------------------
	BYTE	PATT
	 POIN2	Fatalize_3_034
// 115   ----------------------------------------
	BYTE	PATT
	 POIN2	Fatalize_3_035
// 116   ----------------------------------------
	BYTE	PATT
	 POIN2	Fatalize_3_036
// 117   ----------------------------------------
	BYTE	PATT
	 POIN2	Fatalize_3_037
// 118   ----------------------------------------
	BYTE	PATT
	 POIN2	Fatalize_3_038
// 119   ----------------------------------------
	BYTE	PATT
	 POIN2	Fatalize_3_039
// 120   ----------------------------------------
	BYTE		N92     Cs4   v096
	BYTE	W96
// 121   ----------------------------------------
	BYTE	W23
	BYTE	GoTo
	 POIN2	Fatalize_3_B1
Fatalize_3_B2:
	BYTE	FINE

//**************** Track 4 (Midi-Chn.8) ****************//

Fatalize_4:
	BYTE	KEYSH   Fatalize_key+0
Fatalize_4_B1:
// 000   ----------------------------------------
	BYTE		VOICE   40
	BYTE		VOL     105*Fatalize_mvl/mxv
	BYTE		PAN     c_v+0
	BYTE	W24
// 001   ----------------------------------------
Fatalize_4_001:
	BYTE		N23     Fs2   v080
	BYTE	W36
	BYTE		N23   
	BYTE	W24
	BYTE		N23   
	BYTE	W36
	BYTE	PEND
// 002   ----------------------------------------
Fatalize_4_002:
	BYTE		N23     En2   v080
	BYTE	W36
	BYTE		N23   
	BYTE	W24
	BYTE		N23   
	BYTE	W36
	BYTE	PEND
// 003   ----------------------------------------
	BYTE	PATT
	 POIN2	Fatalize_4_002
// 004   ----------------------------------------
Fatalize_4_004:
	BYTE		N23     Dn2   v080
	BYTE	W36
	BYTE		N23   
	BYTE	W24
	BYTE		N23   
	BYTE	W36
	BYTE	PEND
// 005   ----------------------------------------
	BYTE	PATT
	 POIN2	Fatalize_4_001
// 006   ----------------------------------------
	BYTE	PATT
	 POIN2	Fatalize_4_002
// 007   ----------------------------------------
Fatalize_4_007:
	BYTE		N23     Bn1   v080
	BYTE	W36
	BYTE		N23   
	BYTE	W24
	BYTE		N23   
	BYTE	W36
	BYTE	PEND
// 008   ----------------------------------------
Fatalize_4_008:
	BYTE		N23     Cs2   v080
	BYTE	W36
	BYTE		N23   
	BYTE	W24
	BYTE		N23   
	BYTE	W36
	BYTE	PEND
// 009   ----------------------------------------
	BYTE		TIE     Fs4   v116
	BYTE	W96
// 010   ----------------------------------------
	BYTE	W32
	BYTE	W03
	BYTE		EOT   
	BYTE	W01
	BYTE		N11     En4   v096
	BYTE	W12
	BYTE		        Cs4 
	BYTE	W12
	BYTE		        Cn4 
	BYTE	W12
	BYTE		        Bn3 
	BYTE	W12
	BYTE		        An3 
	BYTE	W12
// 011   ----------------------------------------
Fatalize_4_011:
	BYTE		N11     Bn3   v096
	BYTE	W12
	BYTE		        Fs3 
	BYTE	W12
	BYTE		        An3 
	BYTE	W12
	BYTE		N23     Fs3 
	BYTE	W24
	BYTE		N11     An3 
	BYTE	W12
	BYTE		        Bn3 
	BYTE	W12
	BYTE		        Cn4 
	BYTE	W12
	BYTE	PEND
// 012   ----------------------------------------
Fatalize_4_012:
	BYTE		N11     Bn3   v096
	BYTE	W12
	BYTE		        An3 
	BYTE	W12
	BYTE		        Gs3 
	BYTE	W12
	BYTE		N23     En3 
	BYTE	W24
	BYTE		N11     Cs3 
	BYTE	W12
	BYTE		        En3 
	BYTE	W12
	BYTE		        Cs3 
	BYTE	W12
	BYTE	PEND
// 013   ----------------------------------------
Fatalize_4_013:
	BYTE		N05     Cs4   v096
	BYTE	W06
	BYTE		        En4 
	BYTE	W06
	BYTE		        Fs4 
	BYTE	W06
	BYTE		        Cs4 
	BYTE	W06
	BYTE		        En4 
	BYTE	W06
	BYTE		        Fs4 
	BYTE	W06
	BYTE		        Cs4 
	BYTE	W06
	BYTE		        En4 
	BYTE	W06
	BYTE		        Fs4 
	BYTE	W06
	BYTE		        Cs4 
	BYTE	W06
	BYTE		        En4 
	BYTE	W06
	BYTE		        Fs4 
	BYTE	W06
	BYTE		        Cs4 
	BYTE	W06
	BYTE		        En4 
	BYTE	W06
	BYTE		        Fs4 
	BYTE	W06
	BYTE		N11     Cs4 
	BYTE	W06
	BYTE	PEND
// 014   ----------------------------------------
Fatalize_4_014:
	BYTE	W06
	BYTE		N05     Fs4   v096
	BYTE	W06
	BYTE		N11     An4 
	BYTE	W12
	BYTE		        Gs4 
	BYTE	W12
	BYTE		N05     Gn4 
	BYTE	W06
	BYTE		        Fs4 
	BYTE	W06
	BYTE		N11     En4 
	BYTE	W12
	BYTE		        Fs4 
	BYTE	W12
	BYTE		N05     Cs4 
	BYTE	W06
	BYTE		N11     En4 
	BYTE	W12
	BYTE		N05     Cs4 
	BYTE	W06
	BYTE	PEND
// 015   ----------------------------------------
Fatalize_4_015:
	BYTE		N11     Cn4   v096
	BYTE	W12
	BYTE		N05     Bn3 
	BYTE	W06
	BYTE		        An3 
	BYTE	W06
	BYTE		N11     Bn3 
	BYTE	W12
	BYTE		        Fs3 
	BYTE	W12
	BYTE		        An3 
	BYTE	W12
	BYTE		        Fs3 
	BYTE	W12
	BYTE		N05     En3 
	BYTE	W06
	BYTE		        Fs3 
	BYTE	W06
	BYTE		N11     Cs3 
	BYTE	W12
	BYTE	PEND
// 016   ----------------------------------------
Fatalize_4_016:
	BYTE		N11     En3   v096
	BYTE	W12
	BYTE		N23     Fs3 
	BYTE	W24
	BYTE		N56     Gs3 
	BYTE	W60
	BYTE	PEND
// 017   ----------------------------------------
	BYTE	W96
// 018   ----------------------------------------
	BYTE	W96
// 019   ----------------------------------------
	BYTE	W96
// 020   ----------------------------------------
	BYTE	W96
// 021   ----------------------------------------
	BYTE	W96
// 022   ----------------------------------------
	BYTE	W96
// 023   ----------------------------------------
	BYTE	W96
// 024   ----------------------------------------
	BYTE	W96
// 025   ----------------------------------------
	BYTE	W96
// 026   ----------------------------------------
	BYTE	W96
// 027   ----------------------------------------
	BYTE	W96
// 028   ----------------------------------------
	BYTE	W96
// 029   ----------------------------------------
	BYTE	W96
// 030   ----------------------------------------
	BYTE	W96
// 031   ----------------------------------------
	BYTE	W96
// 032   ----------------------------------------
	BYTE	W96
// 033   ----------------------------------------
	BYTE	W96
// 034   ----------------------------------------
	BYTE	W96
// 035   ----------------------------------------
	BYTE	W96
// 036   ----------------------------------------
	BYTE	W96
// 037   ----------------------------------------
	BYTE	W96
// 038   ----------------------------------------
	BYTE	W96
// 039   ----------------------------------------
	BYTE	W96
// 040   ----------------------------------------
	BYTE	W96
// 041   ----------------------------------------
	BYTE	PATT
	 POIN2	Fatalize_4_001
// 042   ----------------------------------------
	BYTE	PATT
	 POIN2	Fatalize_4_002
// 043   ----------------------------------------
	BYTE	PATT
	 POIN2	Fatalize_4_002
// 044   ----------------------------------------
	BYTE	PATT
	 POIN2	Fatalize_4_004
// 045   ----------------------------------------
	BYTE	PATT
	 POIN2	Fatalize_4_001
// 046   ----------------------------------------
	BYTE	PATT
	 POIN2	Fatalize_4_002
// 047   ----------------------------------------
	BYTE	PATT
	 POIN2	Fatalize_4_007
// 048   ----------------------------------------
	BYTE	PATT
	 POIN2	Fatalize_4_008
// 049   ----------------------------------------
	BYTE		TIE     Fs4   v116
	BYTE	W96
// 050   ----------------------------------------
	BYTE	W32
	BYTE	W03
	BYTE		EOT   
	BYTE	W01
	BYTE		N11     En4   v096
	BYTE	W12
	BYTE		        Cs4 
	BYTE	W12
	BYTE		        Cn4 
	BYTE	W12
	BYTE		        Bn3 
	BYTE	W12
	BYTE		        An3 
	BYTE	W12
// 051   ----------------------------------------
	BYTE	PATT
	 POIN2	Fatalize_4_011
// 052   ----------------------------------------
	BYTE	PATT
	 POIN2	Fatalize_4_012
// 053   ----------------------------------------
	BYTE	PATT
	 POIN2	Fatalize_4_013
// 054   ----------------------------------------
	BYTE	PATT
	 POIN2	Fatalize_4_014
// 055   ----------------------------------------
	BYTE	PATT
	 POIN2	Fatalize_4_015
// 056   ----------------------------------------
	BYTE	PATT
	 POIN2	Fatalize_4_016
// 057   ----------------------------------------
	BYTE	W96
// 058   ----------------------------------------
	BYTE	W96
// 059   ----------------------------------------
	BYTE	W96
// 060   ----------------------------------------
	BYTE	W96
// 061   ----------------------------------------
	BYTE	W96
// 062   ----------------------------------------
	BYTE	W96
// 063   ----------------------------------------
	BYTE	W96
// 064   ----------------------------------------
	BYTE	W96
// 065   ----------------------------------------
	BYTE	W96
// 066   ----------------------------------------
	BYTE	W96
// 067   ----------------------------------------
	BYTE	W96
// 068   ----------------------------------------
	BYTE	W96
// 069   ----------------------------------------
	BYTE	W96
// 070   ----------------------------------------
	BYTE	W96
// 071   ----------------------------------------
	BYTE	W96
// 072   ----------------------------------------
	BYTE	W96
// 073   ----------------------------------------
	BYTE	W96
// 074   ----------------------------------------
	BYTE	W96
// 075   ----------------------------------------
	BYTE	W96
// 076   ----------------------------------------
	BYTE	W96
// 077   ----------------------------------------
	BYTE	W96
// 078   ----------------------------------------
	BYTE	W96
// 079   ----------------------------------------
	BYTE	W96
// 080   ----------------------------------------
	BYTE	W96
// 081   ----------------------------------------
	BYTE	PATT
	 POIN2	Fatalize_4_001
// 082   ----------------------------------------
	BYTE	PATT
	 POIN2	Fatalize_4_002
// 083   ----------------------------------------
	BYTE	PATT
	 POIN2	Fatalize_4_002
// 084   ----------------------------------------
	BYTE	PATT
	 POIN2	Fatalize_4_004
// 085   ----------------------------------------
	BYTE	PATT
	 POIN2	Fatalize_4_001
// 086   ----------------------------------------
	BYTE	PATT
	 POIN2	Fatalize_4_002
// 087   ----------------------------------------
	BYTE	PATT
	 POIN2	Fatalize_4_007
// 088   ----------------------------------------
	BYTE	PATT
	 POIN2	Fatalize_4_008
// 089   ----------------------------------------
	BYTE		TIE     Fs4   v116
	BYTE	W96
// 090   ----------------------------------------
	BYTE	W32
	BYTE	W03
	BYTE		EOT   
	BYTE	W01
	BYTE		N11     En4   v096
	BYTE	W12
	BYTE		        Cs4 
	BYTE	W12
	BYTE		        Cn4 
	BYTE	W12
	BYTE		        Bn3 
	BYTE	W12
	BYTE		        An3 
	BYTE	W12
// 091   ----------------------------------------
	BYTE	PATT
	 POIN2	Fatalize_4_011
// 092   ----------------------------------------
	BYTE	PATT
	 POIN2	Fatalize_4_012
// 093   ----------------------------------------
	BYTE	PATT
	 POIN2	Fatalize_4_013
// 094   ----------------------------------------
	BYTE	PATT
	 POIN2	Fatalize_4_014
// 095   ----------------------------------------
	BYTE	PATT
	 POIN2	Fatalize_4_015
// 096   ----------------------------------------
	BYTE	PATT
	 POIN2	Fatalize_4_016
// 097   ----------------------------------------
	BYTE	W96
// 098   ----------------------------------------
	BYTE	W96
// 099   ----------------------------------------
	BYTE	W96
// 100   ----------------------------------------
	BYTE	W96
// 101   ----------------------------------------
	BYTE	W96
// 102   ----------------------------------------
	BYTE	W96
// 103   ----------------------------------------
	BYTE	W96
// 104   ----------------------------------------
	BYTE	W96
// 105   ----------------------------------------
	BYTE	W96
// 106   ----------------------------------------
	BYTE	W96
// 107   ----------------------------------------
	BYTE	W96
// 108   ----------------------------------------
	BYTE	W96
// 109   ----------------------------------------
	BYTE	W96
// 110   ----------------------------------------
	BYTE	W96
// 111   ----------------------------------------
	BYTE	W96
// 112   ----------------------------------------
	BYTE	W96
// 113   ----------------------------------------
	BYTE	W96
// 114   ----------------------------------------
	BYTE	W96
// 115   ----------------------------------------
	BYTE	W96
// 116   ----------------------------------------
	BYTE	W96
// 117   ----------------------------------------
	BYTE	W96
// 118   ----------------------------------------
	BYTE	W96
// 119   ----------------------------------------
	BYTE	W96
// 120   ----------------------------------------
	BYTE	W96
// 121   ----------------------------------------
	BYTE	W23
	BYTE	GoTo
	 POIN2	Fatalize_4_B1
Fatalize_4_B2:
	BYTE	FINE

//**************** Track 5 (Midi-Chn.9) ****************//

Fatalize_5:
	BYTE	KEYSH   Fatalize_key+0
Fatalize_5_B1:
// 000   ----------------------------------------
	BYTE		VOICE   34
	BYTE		VOL     107*Fatalize_mvl/mxv
	BYTE		PAN     c_v+0
	BYTE	W24
// 001   ----------------------------------------
Fatalize_5_001:
	BYTE		N11     Fs1   v096
	BYTE	W12
	BYTE		        Fs2 
	BYTE	W12
	BYTE		        Fs1 
	BYTE	W12
	BYTE		        Fs2 
	BYTE	W12
	BYTE		        Fs1 
	BYTE	W12
	BYTE		        Fs2 
	BYTE	W12
	BYTE		        Fs1 
	BYTE	W12
	BYTE		        Fs2 
	BYTE	W12
	BYTE	PEND
// 002   ----------------------------------------
Fatalize_5_002:
	BYTE		N11     En1   v096
	BYTE	W12
	BYTE		        En2 
	BYTE	W12
	BYTE		        En1 
	BYTE	W12
	BYTE		        En2 
	BYTE	W12
	BYTE		        En1 
	BYTE	W12
	BYTE		        En2 
	BYTE	W12
	BYTE		        En1 
	BYTE	W12
	BYTE		        En2 
	BYTE	W12
	BYTE	PEND
// 003   ----------------------------------------
Fatalize_5_003:
	BYTE		N11     En1   v096
	BYTE	W12
	BYTE		        En2 
	BYTE	W12
	BYTE		        En1 
	BYTE	W12
	BYTE		        En2 
	BYTE	W12
	BYTE		        En1 
	BYTE	W12
	BYTE		        En2 
	BYTE	W12
	BYTE		        Fs1 
	BYTE	W12
	BYTE		        En2 
	BYTE	W12
	BYTE	PEND
// 004   ----------------------------------------
Fatalize_5_004:
	BYTE		N11     Dn1   v096
	BYTE	W12
	BYTE		        Dn2 
	BYTE	W12
	BYTE		        Dn1 
	BYTE	W12
	BYTE		        Dn2 
	BYTE	W12
	BYTE		        Dn1 
	BYTE	W12
	BYTE		        Dn2 
	BYTE	W12
	BYTE		        En1 
	BYTE	W12
	BYTE		        En2 
	BYTE	W12
	BYTE	PEND
// 005   ----------------------------------------
	BYTE	PATT
	 POIN2	Fatalize_5_001
// 006   ----------------------------------------
	BYTE	PATT
	 POIN2	Fatalize_5_002
// 007   ----------------------------------------
Fatalize_5_007:
	BYTE		N11     Bn1   v096
	BYTE	W12
	BYTE		        Bn2 
	BYTE	W12
	BYTE		        Bn1 
	BYTE	W12
	BYTE		        Bn2 
	BYTE	W12
	BYTE		        Bn1 
	BYTE	W12
	BYTE		        Bn2 
	BYTE	W12
	BYTE		        Bn1 
	BYTE	W12
	BYTE		        Bn2 
	BYTE	W12
	BYTE	PEND
// 008   ----------------------------------------
Fatalize_5_008:
	BYTE		N11     Cs2   v096
	BYTE	W12
	BYTE		        Cs3 
	BYTE	W12
	BYTE		        Cs2 
	BYTE	W12
	BYTE		        Cs3 
	BYTE	W12
	BYTE		        Cs2 
	BYTE	W12
	BYTE		        Cs3 
	BYTE	W12
	BYTE		        Cs2 
	BYTE	W12
	BYTE		        Cs3 
	BYTE	W12
	BYTE	PEND
// 009   ----------------------------------------
	BYTE	PATT
	 POIN2	Fatalize_5_001
// 010   ----------------------------------------
	BYTE	PATT
	 POIN2	Fatalize_5_002
// 011   ----------------------------------------
	BYTE	PATT
	 POIN2	Fatalize_5_002
// 012   ----------------------------------------
Fatalize_5_012:
	BYTE		N11     Dn1   v096
	BYTE	W12
	BYTE		        Dn2 
	BYTE	W12
	BYTE		        Dn1 
	BYTE	W12
	BYTE		        Dn2 
	BYTE	W12
	BYTE		        Dn1 
	BYTE	W12
	BYTE		        Dn2 
	BYTE	W12
	BYTE		        Dn1 
	BYTE	W12
	BYTE		        Dn2 
	BYTE	W12
	BYTE	PEND
// 013   ----------------------------------------
	BYTE	PATT
	 POIN2	Fatalize_5_001
// 014   ----------------------------------------
	BYTE	PATT
	 POIN2	Fatalize_5_002
// 015   ----------------------------------------
	BYTE	PATT
	 POIN2	Fatalize_5_007
// 016   ----------------------------------------
Fatalize_5_016:
	BYTE		N11     Cs2   v096
	BYTE	W12
	BYTE		N23     Fn2 
	BYTE	W24
	BYTE		N56     Cs2 
	BYTE	W60
	BYTE	PEND
// 017   ----------------------------------------
Fatalize_5_017:
	BYTE		N32     Dn1   v096
	BYTE	W36
	BYTE		N23     Dn2 
	BYTE	W24
	BYTE		N11     Dn1 
	BYTE	W12
	BYTE		        Dn2 
	BYTE	W12
	BYTE		        Dn1 
	BYTE	W12
	BYTE	PEND
// 018   ----------------------------------------
Fatalize_5_018:
	BYTE		N32     En1   v096
	BYTE	W36
	BYTE		N23     En2 
	BYTE	W24
	BYTE		N11     En1 
	BYTE	W12
	BYTE		        En2 
	BYTE	W12
	BYTE		        En1 
	BYTE	W12
	BYTE	PEND
// 019   ----------------------------------------
Fatalize_5_019:
	BYTE		N11     Fs1   v096
	BYTE	W12
	BYTE		N11   
	BYTE	W12
	BYTE		        En1 
	BYTE	W12
	BYTE		N23     Fs1 
	BYTE	W24
	BYTE		        En1 
	BYTE	W24
	BYTE		        Fs1 
	BYTE	W12
	BYTE	PEND
// 020   ----------------------------------------
Fatalize_5_020:
	BYTE	W12
	BYTE		N23     En1   v096
	BYTE	W24
	BYTE		        Fs1 
	BYTE	W24
	BYTE		N11     En1 
	BYTE	W12
	BYTE		        Fs1 
	BYTE	W12
	BYTE		        En1 
	BYTE	W12
	BYTE	PEND
// 021   ----------------------------------------
	BYTE	PATT
	 POIN2	Fatalize_5_017
// 022   ----------------------------------------
	BYTE	PATT
	 POIN2	Fatalize_5_018
// 023   ----------------------------------------
	BYTE	PATT
	 POIN2	Fatalize_5_019
// 024   ----------------------------------------
	BYTE	PATT
	 POIN2	Fatalize_5_020
// 025   ----------------------------------------
	BYTE	PATT
	 POIN2	Fatalize_5_017
// 026   ----------------------------------------
	BYTE	PATT
	 POIN2	Fatalize_5_018
// 027   ----------------------------------------
	BYTE	PATT
	 POIN2	Fatalize_5_019
// 028   ----------------------------------------
Fatalize_5_028:
	BYTE	W12
	BYTE		N11     Cs2   v096
	BYTE	W12
	BYTE		        Cn2 
	BYTE	W12
	BYTE		        Bn1 
	BYTE	W12
	BYTE		        An1 
	BYTE	W12
	BYTE		        Bn1 
	BYTE	W12
	BYTE		        Gs1 
	BYTE	W12
	BYTE		        An1 
	BYTE	W12
	BYTE	PEND
// 029   ----------------------------------------
	BYTE	PATT
	 POIN2	Fatalize_5_017
// 030   ----------------------------------------
	BYTE	PATT
	 POIN2	Fatalize_5_018
// 031   ----------------------------------------
Fatalize_5_031:
	BYTE		N32     Fs1   v096
	BYTE	W36
	BYTE		N23   
	BYTE	W24
	BYTE		N11     Cs1 
	BYTE	W12
	BYTE		        Dn1 
	BYTE	W12
	BYTE		        En1 
	BYTE	W12
	BYTE	PEND
// 032   ----------------------------------------
	BYTE		N92     Fs1 
	BYTE	W96
// 033   ----------------------------------------
	BYTE	PATT
	 POIN2	Fatalize_5_001
// 034   ----------------------------------------
	BYTE	PATT
	 POIN2	Fatalize_5_002
// 035   ----------------------------------------
Fatalize_5_035:
	BYTE		N11     Dn1   v096
	BYTE	W12
	BYTE		        Dn2 
	BYTE	W12
	BYTE		        Dn1 
	BYTE	W12
	BYTE		        Dn2 
	BYTE	W12
	BYTE		        En1 
	BYTE	W12
	BYTE		        En2 
	BYTE	W12
	BYTE		        En1 
	BYTE	W12
	BYTE		        En2 
	BYTE	W12
	BYTE	PEND
// 036   ----------------------------------------
	BYTE	PATT
	 POIN2	Fatalize_5_001
// 037   ----------------------------------------
	BYTE	PATT
	 POIN2	Fatalize_5_001
// 038   ----------------------------------------
	BYTE	PATT
	 POIN2	Fatalize_5_002
// 039   ----------------------------------------
	BYTE	PATT
	 POIN2	Fatalize_5_012
// 040   ----------------------------------------
Fatalize_5_040:
	BYTE		N11     Cs1   v096
	BYTE	W12
	BYTE		        Cs2 
	BYTE	W12
	BYTE		        Cs1 
	BYTE	W12
	BYTE		        Cs2 
	BYTE	W12
	BYTE		        Cs1 
	BYTE	W12
	BYTE		        Cs2 
	BYTE	W12
	BYTE		        Cs1 
	BYTE	W12
	BYTE		        Cs2 
	BYTE	W12
	BYTE	PEND
// 041   ----------------------------------------
	BYTE	PATT
	 POIN2	Fatalize_5_001
// 042   ----------------------------------------
	BYTE	PATT
	 POIN2	Fatalize_5_002
// 043   ----------------------------------------
	BYTE	PATT
	 POIN2	Fatalize_5_003
// 044   ----------------------------------------
	BYTE	PATT
	 POIN2	Fatalize_5_004
// 045   ----------------------------------------
	BYTE	PATT
	 POIN2	Fatalize_5_001
// 046   ----------------------------------------
	BYTE	PATT
	 POIN2	Fatalize_5_002
// 047   ----------------------------------------
	BYTE	PATT
	 POIN2	Fatalize_5_007
// 048   ----------------------------------------
	BYTE	PATT
	 POIN2	Fatalize_5_008
// 049   ----------------------------------------
	BYTE	PATT
	 POIN2	Fatalize_5_001
// 050   ----------------------------------------
	BYTE	PATT
	 POIN2	Fatalize_5_002
// 051   ----------------------------------------
	BYTE	PATT
	 POIN2	Fatalize_5_002
// 052   ----------------------------------------
	BYTE	PATT
	 POIN2	Fatalize_5_012
// 053   ----------------------------------------
	BYTE	PATT
	 POIN2	Fatalize_5_001
// 054   ----------------------------------------
	BYTE	PATT
	 POIN2	Fatalize_5_002
// 055   ----------------------------------------
	BYTE	PATT
	 POIN2	Fatalize_5_007
// 056   ----------------------------------------
	BYTE	PATT
	 POIN2	Fatalize_5_016
// 057   ----------------------------------------
	BYTE	PATT
	 POIN2	Fatalize_5_017
// 058   ----------------------------------------
	BYTE	PATT
	 POIN2	Fatalize_5_018
// 059   ----------------------------------------
	BYTE	PATT
	 POIN2	Fatalize_5_019
// 060   ----------------------------------------
	BYTE	PATT
	 POIN2	Fatalize_5_020
// 061   ----------------------------------------
	BYTE	PATT
	 POIN2	Fatalize_5_017
// 062   ----------------------------------------
	BYTE	PATT
	 POIN2	Fatalize_5_018
// 063   ----------------------------------------
	BYTE	PATT
	 POIN2	Fatalize_5_019
// 064   ----------------------------------------
	BYTE	PATT
	 POIN2	Fatalize_5_020
// 065   ----------------------------------------
	BYTE	PATT
	 POIN2	Fatalize_5_017
// 066   ----------------------------------------
	BYTE	PATT
	 POIN2	Fatalize_5_018
// 067   ----------------------------------------
	BYTE	PATT
	 POIN2	Fatalize_5_019
// 068   ----------------------------------------
	BYTE	PATT
	 POIN2	Fatalize_5_028
// 069   ----------------------------------------
	BYTE	PATT
	 POIN2	Fatalize_5_017
// 070   ----------------------------------------
	BYTE	PATT
	 POIN2	Fatalize_5_018
// 071   ----------------------------------------
	BYTE	PATT
	 POIN2	Fatalize_5_031
// 072   ----------------------------------------
	BYTE		N92     Fs1   v096
	BYTE	W96
// 073   ----------------------------------------
	BYTE	PATT
	 POIN2	Fatalize_5_001
// 074   ----------------------------------------
	BYTE	PATT
	 POIN2	Fatalize_5_002
// 075   ----------------------------------------
	BYTE	PATT
	 POIN2	Fatalize_5_035
// 076   ----------------------------------------
	BYTE	PATT
	 POIN2	Fatalize_5_001
// 077   ----------------------------------------
	BYTE	PATT
	 POIN2	Fatalize_5_001
// 078   ----------------------------------------
	BYTE	PATT
	 POIN2	Fatalize_5_002
// 079   ----------------------------------------
	BYTE	PATT
	 POIN2	Fatalize_5_012
// 080   ----------------------------------------
	BYTE	PATT
	 POIN2	Fatalize_5_040
// 081   ----------------------------------------
	BYTE	PATT
	 POIN2	Fatalize_5_001
// 082   ----------------------------------------
	BYTE	PATT
	 POIN2	Fatalize_5_002
// 083   ----------------------------------------
	BYTE	PATT
	 POIN2	Fatalize_5_003
// 084   ----------------------------------------
	BYTE	PATT
	 POIN2	Fatalize_5_004
// 085   ----------------------------------------
	BYTE	PATT
	 POIN2	Fatalize_5_001
// 086   ----------------------------------------
	BYTE	PATT
	 POIN2	Fatalize_5_002
// 087   ----------------------------------------
	BYTE	PATT
	 POIN2	Fatalize_5_007
// 088   ----------------------------------------
	BYTE	PATT
	 POIN2	Fatalize_5_008
// 089   ----------------------------------------
	BYTE	PATT
	 POIN2	Fatalize_5_001
// 090   ----------------------------------------
	BYTE	PATT
	 POIN2	Fatalize_5_002
// 091   ----------------------------------------
	BYTE	PATT
	 POIN2	Fatalize_5_002
// 092   ----------------------------------------
	BYTE	PATT
	 POIN2	Fatalize_5_012
// 093   ----------------------------------------
	BYTE	PATT
	 POIN2	Fatalize_5_001
// 094   ----------------------------------------
	BYTE	PATT
	 POIN2	Fatalize_5_002
// 095   ----------------------------------------
	BYTE	PATT
	 POIN2	Fatalize_5_007
// 096   ----------------------------------------
	BYTE	PATT
	 POIN2	Fatalize_5_016
// 097   ----------------------------------------
	BYTE	PATT
	 POIN2	Fatalize_5_017
// 098   ----------------------------------------
	BYTE	PATT
	 POIN2	Fatalize_5_018
// 099   ----------------------------------------
	BYTE	PATT
	 POIN2	Fatalize_5_019
// 100   ----------------------------------------
	BYTE	PATT
	 POIN2	Fatalize_5_020
// 101   ----------------------------------------
	BYTE	PATT
	 POIN2	Fatalize_5_017
// 102   ----------------------------------------
	BYTE	PATT
	 POIN2	Fatalize_5_018
// 103   ----------------------------------------
	BYTE	PATT
	 POIN2	Fatalize_5_019
// 104   ----------------------------------------
	BYTE	PATT
	 POIN2	Fatalize_5_020
// 105   ----------------------------------------
	BYTE	PATT
	 POIN2	Fatalize_5_017
// 106   ----------------------------------------
	BYTE	PATT
	 POIN2	Fatalize_5_018
// 107   ----------------------------------------
	BYTE	PATT
	 POIN2	Fatalize_5_019
// 108   ----------------------------------------
	BYTE	PATT
	 POIN2	Fatalize_5_028
// 109   ----------------------------------------
	BYTE	PATT
	 POIN2	Fatalize_5_017
// 110   ----------------------------------------
	BYTE	PATT
	 POIN2	Fatalize_5_018
// 111   ----------------------------------------
	BYTE	PATT
	 POIN2	Fatalize_5_031
// 112   ----------------------------------------
	BYTE		N92     Fs1   v096
	BYTE	W96
// 113   ----------------------------------------
	BYTE	PATT
	 POIN2	Fatalize_5_001
// 114   ----------------------------------------
	BYTE	PATT
	 POIN2	Fatalize_5_002
// 115   ----------------------------------------
	BYTE	PATT
	 POIN2	Fatalize_5_035
// 116   ----------------------------------------
	BYTE	PATT
	 POIN2	Fatalize_5_001
// 117   ----------------------------------------
	BYTE	PATT
	 POIN2	Fatalize_5_001
// 118   ----------------------------------------
	BYTE	PATT
	 POIN2	Fatalize_5_002
// 119   ----------------------------------------
	BYTE	PATT
	 POIN2	Fatalize_5_012
// 120   ----------------------------------------
	BYTE	PATT
	 POIN2	Fatalize_5_040
// 121   ----------------------------------------
	BYTE	W23
	BYTE	GoTo
	 POIN2	Fatalize_5_B1
Fatalize_5_B2:
	BYTE	FINE

//**************** Track 6 (Midi-Chn.10) ****************//

Fatalize_6:
	BYTE	KEYSH   Fatalize_key+0
Fatalize_6_B1:
// 000   ----------------------------------------
	BYTE		VOICE   124
	BYTE		VOL     121*Fatalize_mvl/mxv
	BYTE		PAN     c_v+0
	BYTE	W24
// 001   ----------------------------------------
Fatalize_6_001:
	BYTE		N23     Cn1   v096
	BYTE		N23     Cs2 
	BYTE	W24
	BYTE		N11     Dn1 
	BYTE		N11     Fs1 
	BYTE	W12
	BYTE		        Cn1 
	BYTE		N11     Fs1 
	BYTE	W12
	BYTE		N11   
	BYTE	W12
	BYTE		        Cn1 
	BYTE		N11     Fs1 
	BYTE	W12
	BYTE		        Dn1 
	BYTE		N11     Fs1 
	BYTE	W12
	BYTE		N11   
	BYTE	W12
	BYTE	PEND
// 002   ----------------------------------------
Fatalize_6_002:
	BYTE		N11     Cn1   v096
	BYTE		N11     Fs1 
	BYTE	W12
	BYTE		N11   
	BYTE	W12
	BYTE		        Dn1 
	BYTE		N11     Fs1 
	BYTE	W12
	BYTE		        Cn1 
	BYTE		N11     Fs1 
	BYTE	W12
	BYTE		N11   
	BYTE	W12
	BYTE		        Cn1 
	BYTE		N11     Fs1 
	BYTE	W12
	BYTE		        Dn1 
	BYTE		N11     Fs1 
	BYTE	W12
	BYTE		N11   
	BYTE	W12
	BYTE	PEND
// 003   ----------------------------------------
	BYTE	PATT
	 POIN2	Fatalize_6_002
// 004   ----------------------------------------
Fatalize_6_004:
	BYTE		N11     Cn1   v096
	BYTE		N11     Fs1 
	BYTE	W12
	BYTE		N11   
	BYTE	W12
	BYTE		        Dn1 
	BYTE		N11     Fs1 
	BYTE	W12
	BYTE		        Cn1 
	BYTE		N11     Fs1 
	BYTE	W12
	BYTE		N11   
	BYTE	W12
	BYTE		        Cn1 
	BYTE		N11     Fs1 
	BYTE	W12
	BYTE		        Dn1 
	BYTE		N11     Fs1 
	BYTE	W12
	BYTE		N05     Dn1 
	BYTE		N05     Fs1 
	BYTE	W06
	BYTE		        Dn1 
	BYTE	W06
	BYTE	PEND
// 005   ----------------------------------------
	BYTE	PATT
	 POIN2	Fatalize_6_002
// 006   ----------------------------------------
Fatalize_6_006:
	BYTE		N11     Cn1   v096
	BYTE		N11     Fs1 
	BYTE	W12
	BYTE		N11   
	BYTE	W12
	BYTE		        Dn1 
	BYTE		N11     Fs1 
	BYTE	W12
	BYTE		        Cn1 
	BYTE		N11     Fs1 
	BYTE	W12
	BYTE		N11   
	BYTE	W12
	BYTE		        Cn1 
	BYTE		N11     Fs1 
	BYTE	W12
	BYTE		        Dn1 
	BYTE		N11     Fs1 
	BYTE	W12
	BYTE		        As1 
	BYTE	W12
	BYTE	PEND
// 007   ----------------------------------------
	BYTE	PATT
	 POIN2	Fatalize_6_002
// 008   ----------------------------------------
	BYTE	PATT
	 POIN2	Fatalize_6_004
// 009   ----------------------------------------
	BYTE	PATT
	 POIN2	Fatalize_6_002
// 010   ----------------------------------------
	BYTE	PATT
	 POIN2	Fatalize_6_002
// 011   ----------------------------------------
	BYTE	PATT
	 POIN2	Fatalize_6_006
// 012   ----------------------------------------
	BYTE	PATT
	 POIN2	Fatalize_6_002
// 013   ----------------------------------------
	BYTE	PATT
	 POIN2	Fatalize_6_002
// 014   ----------------------------------------
	BYTE	PATT
	 POIN2	Fatalize_6_006
// 015   ----------------------------------------
	BYTE	PATT
	 POIN2	Fatalize_6_002
// 016   ----------------------------------------
Fatalize_6_016:
	BYTE		N11     Cn1   v096
	BYTE		N11     Fs1 
	BYTE	W12
	BYTE		N11   
	BYTE	W12
	BYTE		        Dn1 
	BYTE		N11     Fs1 
	BYTE	W12
	BYTE		        Cn1 
	BYTE		N11     Fs1 
	BYTE	W12
	BYTE		N11   
	BYTE	W12
	BYTE		        Cn1 
	BYTE		N11     Fs1 
	BYTE	W12
	BYTE		N05     Dn1   v108
	BYTE	W06
	BYTE		N05   
	BYTE	W06
	BYTE		N05   
	BYTE	W06
	BYTE		N05   
	BYTE	W06
	BYTE	PEND
// 017   ----------------------------------------
	BYTE	PATT
	 POIN2	Fatalize_6_002
// 018   ----------------------------------------
	BYTE	PATT
	 POIN2	Fatalize_6_002
// 019   ----------------------------------------
	BYTE	PATT
	 POIN2	Fatalize_6_002
// 020   ----------------------------------------
	BYTE	PATT
	 POIN2	Fatalize_6_006
// 021   ----------------------------------------
	BYTE	PATT
	 POIN2	Fatalize_6_002
// 022   ----------------------------------------
	BYTE	PATT
	 POIN2	Fatalize_6_006
// 023   ----------------------------------------
	BYTE	PATT
	 POIN2	Fatalize_6_002
// 024   ----------------------------------------
	BYTE	PATT
	 POIN2	Fatalize_6_006
// 025   ----------------------------------------
Fatalize_6_025:
	BYTE		N11     Cn1   v096
	BYTE		N11     Cs2 
	BYTE	W12
	BYTE		        Fs1 
	BYTE	W12
	BYTE		        Dn1 
	BYTE		N11     Fs1 
	BYTE	W12
	BYTE		        Cn1 
	BYTE		N11     Fs1 
	BYTE	W12
	BYTE		N11   
	BYTE	W12
	BYTE		        Cn1 
	BYTE		N11     Fs1 
	BYTE	W12
	BYTE		        Dn1 
	BYTE		N11     Fs1 
	BYTE	W12
	BYTE		N11   
	BYTE	W12
	BYTE	PEND
// 026   ----------------------------------------
	BYTE	PATT
	 POIN2	Fatalize_6_002
// 027   ----------------------------------------
	BYTE	PATT
	 POIN2	Fatalize_6_002
// 028   ----------------------------------------
	BYTE	PATT
	 POIN2	Fatalize_6_002
// 029   ----------------------------------------
	BYTE	PATT
	 POIN2	Fatalize_6_002
// 030   ----------------------------------------
	BYTE	PATT
	 POIN2	Fatalize_6_006
// 031   ----------------------------------------
	BYTE	PATT
	 POIN2	Fatalize_6_002
// 032   ----------------------------------------
Fatalize_6_032:
	BYTE		N11     Cn1   v096
	BYTE		N11     Fs1 
	BYTE	W12
	BYTE		N11   
	BYTE	W12
	BYTE		        Dn1 
	BYTE		N11     Fs1 
	BYTE	W12
	BYTE		        Cn1 
	BYTE		N11     Fs1 
	BYTE	W12
	BYTE		        Dn1 
	BYTE	W12
	BYTE		N05     Cn1 
	BYTE		N05     Dn1   v108
	BYTE	W06
	BYTE		N05   
	BYTE	W06
	BYTE		N05   
	BYTE	W06
	BYTE		N05   
	BYTE	W06
	BYTE		N05   
	BYTE	W06
	BYTE		N05   
	BYTE	W06
	BYTE	PEND
// 033   ----------------------------------------
	BYTE	PATT
	 POIN2	Fatalize_6_025
// 034   ----------------------------------------
	BYTE	PATT
	 POIN2	Fatalize_6_006
// 035   ----------------------------------------
	BYTE	PATT
	 POIN2	Fatalize_6_002
// 036   ----------------------------------------
	BYTE	PATT
	 POIN2	Fatalize_6_002
// 037   ----------------------------------------
	BYTE	PATT
	 POIN2	Fatalize_6_002
// 038   ----------------------------------------
	BYTE	PATT
	 POIN2	Fatalize_6_002
// 039   ----------------------------------------
	BYTE	PATT
	 POIN2	Fatalize_6_002
// 040   ----------------------------------------
	BYTE	PATT
	 POIN2	Fatalize_6_004
// 041   ----------------------------------------
	BYTE	PATT
	 POIN2	Fatalize_6_001
// 042   ----------------------------------------
	BYTE	PATT
	 POIN2	Fatalize_6_002
// 043   ----------------------------------------
	BYTE	PATT
	 POIN2	Fatalize_6_002
// 044   ----------------------------------------
	BYTE	PATT
	 POIN2	Fatalize_6_004
// 045   ----------------------------------------
	BYTE	PATT
	 POIN2	Fatalize_6_002
// 046   ----------------------------------------
	BYTE	PATT
	 POIN2	Fatalize_6_006
// 047   ----------------------------------------
	BYTE	PATT
	 POIN2	Fatalize_6_002
// 048   ----------------------------------------
	BYTE	PATT
	 POIN2	Fatalize_6_004
// 049   ----------------------------------------
	BYTE	PATT
	 POIN2	Fatalize_6_002
// 050   ----------------------------------------
	BYTE	PATT
	 POIN2	Fatalize_6_002
// 051   ----------------------------------------
	BYTE	PATT
	 POIN2	Fatalize_6_006
// 052   ----------------------------------------
	BYTE	PATT
	 POIN2	Fatalize_6_002
// 053   ----------------------------------------
	BYTE	PATT
	 POIN2	Fatalize_6_002
// 054   ----------------------------------------
	BYTE	PATT
	 POIN2	Fatalize_6_006
// 055   ----------------------------------------
	BYTE	PATT
	 POIN2	Fatalize_6_002
// 056   ----------------------------------------
	BYTE	PATT
	 POIN2	Fatalize_6_016
// 057   ----------------------------------------
	BYTE	PATT
	 POIN2	Fatalize_6_002
// 058   ----------------------------------------
	BYTE	PATT
	 POIN2	Fatalize_6_002
// 059   ----------------------------------------
	BYTE	PATT
	 POIN2	Fatalize_6_002
// 060   ----------------------------------------
	BYTE	PATT
	 POIN2	Fatalize_6_006
// 061   ----------------------------------------
	BYTE	PATT
	 POIN2	Fatalize_6_002
// 062   ----------------------------------------
	BYTE	PATT
	 POIN2	Fatalize_6_006
// 063   ----------------------------------------
	BYTE	PATT
	 POIN2	Fatalize_6_002
// 064   ----------------------------------------
	BYTE	PATT
	 POIN2	Fatalize_6_006
// 065   ----------------------------------------
	BYTE	PATT
	 POIN2	Fatalize_6_025
// 066   ----------------------------------------
	BYTE	PATT
	 POIN2	Fatalize_6_002
// 067   ----------------------------------------
	BYTE	PATT
	 POIN2	Fatalize_6_002
// 068   ----------------------------------------
	BYTE	PATT
	 POIN2	Fatalize_6_002
// 069   ----------------------------------------
	BYTE	PATT
	 POIN2	Fatalize_6_002
// 070   ----------------------------------------
	BYTE	PATT
	 POIN2	Fatalize_6_006
// 071   ----------------------------------------
	BYTE	PATT
	 POIN2	Fatalize_6_002
// 072   ----------------------------------------
	BYTE	PATT
	 POIN2	Fatalize_6_032
// 073   ----------------------------------------
	BYTE	PATT
	 POIN2	Fatalize_6_025
// 074   ----------------------------------------
	BYTE	PATT
	 POIN2	Fatalize_6_006
// 075   ----------------------------------------
	BYTE	PATT
	 POIN2	Fatalize_6_002
// 076   ----------------------------------------
	BYTE	PATT
	 POIN2	Fatalize_6_002
// 077   ----------------------------------------
	BYTE	PATT
	 POIN2	Fatalize_6_002
// 078   ----------------------------------------
	BYTE	PATT
	 POIN2	Fatalize_6_002
// 079   ----------------------------------------
	BYTE	PATT
	 POIN2	Fatalize_6_002
// 080   ----------------------------------------
	BYTE	PATT
	 POIN2	Fatalize_6_004
// 081   ----------------------------------------
	BYTE	PATT
	 POIN2	Fatalize_6_001
// 082   ----------------------------------------
	BYTE	PATT
	 POIN2	Fatalize_6_002
// 083   ----------------------------------------
	BYTE	PATT
	 POIN2	Fatalize_6_002
// 084   ----------------------------------------
	BYTE	PATT
	 POIN2	Fatalize_6_004
// 085   ----------------------------------------
	BYTE	PATT
	 POIN2	Fatalize_6_002
// 086   ----------------------------------------
	BYTE	PATT
	 POIN2	Fatalize_6_006
// 087   ----------------------------------------
	BYTE	PATT
	 POIN2	Fatalize_6_002
// 088   ----------------------------------------
	BYTE	PATT
	 POIN2	Fatalize_6_004
// 089   ----------------------------------------
	BYTE	PATT
	 POIN2	Fatalize_6_002
// 090   ----------------------------------------
	BYTE	PATT
	 POIN2	Fatalize_6_002
// 091   ----------------------------------------
	BYTE	PATT
	 POIN2	Fatalize_6_006
// 092   ----------------------------------------
	BYTE	PATT
	 POIN2	Fatalize_6_002
// 093   ----------------------------------------
	BYTE	PATT
	 POIN2	Fatalize_6_002
// 094   ----------------------------------------
	BYTE	PATT
	 POIN2	Fatalize_6_006
// 095   ----------------------------------------
	BYTE	PATT
	 POIN2	Fatalize_6_002
// 096   ----------------------------------------
	BYTE	PATT
	 POIN2	Fatalize_6_016
// 097   ----------------------------------------
	BYTE	PATT
	 POIN2	Fatalize_6_002
// 098   ----------------------------------------
	BYTE	PATT
	 POIN2	Fatalize_6_002
// 099   ----------------------------------------
	BYTE	PATT
	 POIN2	Fatalize_6_002
// 100   ----------------------------------------
	BYTE	PATT
	 POIN2	Fatalize_6_006
// 101   ----------------------------------------
	BYTE	PATT
	 POIN2	Fatalize_6_002
// 102   ----------------------------------------
	BYTE	PATT
	 POIN2	Fatalize_6_006
// 103   ----------------------------------------
	BYTE	PATT
	 POIN2	Fatalize_6_002
// 104   ----------------------------------------
	BYTE	PATT
	 POIN2	Fatalize_6_006
// 105   ----------------------------------------
	BYTE	PATT
	 POIN2	Fatalize_6_025
// 106   ----------------------------------------
	BYTE	PATT
	 POIN2	Fatalize_6_002
// 107   ----------------------------------------
	BYTE	PATT
	 POIN2	Fatalize_6_002
// 108   ----------------------------------------
	BYTE	PATT
	 POIN2	Fatalize_6_002
// 109   ----------------------------------------
	BYTE	PATT
	 POIN2	Fatalize_6_002
// 110   ----------------------------------------
	BYTE	PATT
	 POIN2	Fatalize_6_006
// 111   ----------------------------------------
	BYTE	PATT
	 POIN2	Fatalize_6_002
// 112   ----------------------------------------
	BYTE	PATT
	 POIN2	Fatalize_6_032
// 113   ----------------------------------------
	BYTE	PATT
	 POIN2	Fatalize_6_025
// 114   ----------------------------------------
	BYTE	PATT
	 POIN2	Fatalize_6_006
// 115   ----------------------------------------
	BYTE	PATT
	 POIN2	Fatalize_6_002
// 116   ----------------------------------------
	BYTE	PATT
	 POIN2	Fatalize_6_002
// 117   ----------------------------------------
	BYTE	PATT
	 POIN2	Fatalize_6_002
// 118   ----------------------------------------
	BYTE	PATT
	 POIN2	Fatalize_6_002
// 119   ----------------------------------------
	BYTE	PATT
	 POIN2	Fatalize_6_002
// 120   ----------------------------------------
	BYTE	PATT
	 POIN2	Fatalize_6_004
// 121   ----------------------------------------
	BYTE	W23
	BYTE	GoTo
	 POIN2	Fatalize_6_B1
Fatalize_6_B2:
	BYTE	FINE

//**************** Track 7 (Midi-Chn.11) ****************//

Fatalize_7:
	BYTE	KEYSH   Fatalize_key+0
Fatalize_7_B1:
// 000   ----------------------------------------
	BYTE		VOICE   18
	BYTE		VOL     127*Fatalize_mvl/mxv
	BYTE		PAN     c_v+0
	BYTE	W24
// 001   ----------------------------------------
	BYTE	W96
// 002   ----------------------------------------
	BYTE	W96
// 003   ----------------------------------------
	BYTE	W96
// 004   ----------------------------------------
	BYTE	W96
// 005   ----------------------------------------
	BYTE	W96
// 006   ----------------------------------------
	BYTE	W96
// 007   ----------------------------------------
	BYTE	W96
// 008   ----------------------------------------
	BYTE	W96
// 009   ----------------------------------------
	BYTE	W96
// 010   ----------------------------------------
	BYTE		N23     En4   v096
	BYTE	W96
// 011   ----------------------------------------
	BYTE		N23   
	BYTE	W96
// 012   ----------------------------------------
Fatalize_7_012:
	BYTE		N23     Dn4   v096
	BYTE	W72
	BYTE		        En4 
	BYTE	W24
	BYTE	PEND
// 013   ----------------------------------------
	BYTE		        Fs4 
	BYTE	W96
// 014   ----------------------------------------
	BYTE		        En4 
	BYTE	W96
// 015   ----------------------------------------
	BYTE		        Cn4 
	BYTE	W96
// 016   ----------------------------------------
	BYTE		        Gs3 
	BYTE	W96
// 017   ----------------------------------------
	BYTE		        Dn4 
	BYTE	W96
// 018   ----------------------------------------
	BYTE		        En4 
	BYTE	W96
// 019   ----------------------------------------
Fatalize_7_019:
	BYTE		N11     Fs4   v096
	BYTE	W12
	BYTE		N11   
	BYTE	W12
	BYTE		        En4 
	BYTE	W12
	BYTE		        Fs4 
	BYTE	W24
	BYTE		        En4 
	BYTE	W24
	BYTE		        Fs4 
	BYTE	W12
	BYTE	PEND
// 020   ----------------------------------------
Fatalize_7_020:
	BYTE	W12
	BYTE		N11     En4   v096
	BYTE	W24
	BYTE		        Fs4 
	BYTE	W24
	BYTE		        En4 
	BYTE	W12
	BYTE		        Fs4 
	BYTE	W12
	BYTE		        En4 
	BYTE	W12
	BYTE	PEND
// 021   ----------------------------------------
Fatalize_7_021:
	BYTE		N11     Dn4   v096
	BYTE	W72
	BYTE		N23   
	BYTE	W24
	BYTE	PEND
// 022   ----------------------------------------
	BYTE		        En4 
	BYTE	W96
// 023   ----------------------------------------
	BYTE	PATT
	 POIN2	Fatalize_7_019
// 024   ----------------------------------------
	BYTE	PATT
	 POIN2	Fatalize_7_020
// 025   ----------------------------------------
Fatalize_7_025:
	BYTE		N11     Dn4   v096
	BYTE	W72
	BYTE		N23     Fs4 
	BYTE	W24
	BYTE	PEND
// 026   ----------------------------------------
	BYTE		        En4 
	BYTE	W96
// 027   ----------------------------------------
	BYTE	PATT
	 POIN2	Fatalize_7_019
// 028   ----------------------------------------
Fatalize_7_028:
	BYTE	W12
	BYTE		N11     Cs4   v096
	BYTE	W12
	BYTE		        Cn4 
	BYTE	W12
	BYTE		        Bn3 
	BYTE	W12
	BYTE		        An3 
	BYTE	W12
	BYTE		        Bn3 
	BYTE	W12
	BYTE		        Gs3 
	BYTE	W12
	BYTE		        An3 
	BYTE	W12
	BYTE	PEND
// 029   ----------------------------------------
Fatalize_7_029:
	BYTE		N23     Fs3   v096
	BYTE	W72
	BYTE		N23   
	BYTE	W24
	BYTE	PEND
// 030   ----------------------------------------
Fatalize_7_030:
	BYTE		N23     Gs3   v096
	BYTE	W72
	BYTE		        En4 
	BYTE	W24
	BYTE	PEND
// 031   ----------------------------------------
Fatalize_7_031:
	BYTE		N23     Fs4   v096
	BYTE	W60
	BYTE		N11     En4 
	BYTE	W12
	BYTE		        Fs4 
	BYTE	W12
	BYTE		        En4 
	BYTE	W12
	BYTE	PEND
// 032   ----------------------------------------
Fatalize_7_032:
	BYTE		N11     Fs4   v096
	BYTE	W24
	BYTE		        En4 
	BYTE	W12
	BYTE		        Fs4 
	BYTE	W24
	BYTE		        En4 
	BYTE	W12
	BYTE		        Fs4 
	BYTE	W24
	BYTE	PEND
// 033   ----------------------------------------
	BYTE	W72
	BYTE		N23   
	BYTE	W24
// 034   ----------------------------------------
Fatalize_7_034:
	BYTE		N23     En4   v096
	BYTE	W72
	BYTE		N23   
	BYTE	W24
	BYTE	PEND
// 035   ----------------------------------------
Fatalize_7_035:
	BYTE		N23     Dn4   v096
	BYTE	W48
	BYTE		        En4 
	BYTE	W36
	BYTE		N11     Fs4 
	BYTE	W12
	BYTE	PEND
// 036   ----------------------------------------
	BYTE	W96
// 037   ----------------------------------------
	BYTE		N23   
	BYTE	W96
// 038   ----------------------------------------
	BYTE		        En4 
	BYTE	W96
// 039   ----------------------------------------
	BYTE		        Dn4 
	BYTE	W96
// 040   ----------------------------------------
Fatalize_7_040:
	BYTE		N23     Cs4   v096
	BYTE	W36
	BYTE		N11     Fn4 
	BYTE	W24
	BYTE		        Fs4 
	BYTE	W12
	BYTE		        Gs4 
	BYTE	W24
	BYTE	PEND
// 041   ----------------------------------------
	BYTE	W96
// 042   ----------------------------------------
	BYTE	W96
// 043   ----------------------------------------
	BYTE	W96
// 044   ----------------------------------------
	BYTE	W96
// 045   ----------------------------------------
	BYTE	W96
// 046   ----------------------------------------
	BYTE	W96
// 047   ----------------------------------------
	BYTE	W96
// 048   ----------------------------------------
	BYTE	W96
// 049   ----------------------------------------
	BYTE	W96
// 050   ----------------------------------------
	BYTE		N23     En4 
	BYTE	W96
// 051   ----------------------------------------
	BYTE		N23   
	BYTE	W96
// 052   ----------------------------------------
	BYTE	PATT
	 POIN2	Fatalize_7_012
// 053   ----------------------------------------
	BYTE		N23     Fs4   v096
	BYTE	W96
// 054   ----------------------------------------
	BYTE		        En4 
	BYTE	W96
// 055   ----------------------------------------
	BYTE		        Cn4 
	BYTE	W96
// 056   ----------------------------------------
	BYTE		        Gs3 
	BYTE	W96
// 057   ----------------------------------------
	BYTE		        Dn4 
	BYTE	W96
// 058   ----------------------------------------
	BYTE		        En4 
	BYTE	W96
// 059   ----------------------------------------
	BYTE	PATT
	 POIN2	Fatalize_7_019
// 060   ----------------------------------------
	BYTE	PATT
	 POIN2	Fatalize_7_020
// 061   ----------------------------------------
	BYTE	PATT
	 POIN2	Fatalize_7_021
// 062   ----------------------------------------
	BYTE		N23     En4   v096
	BYTE	W96
// 063   ----------------------------------------
	BYTE	PATT
	 POIN2	Fatalize_7_019
// 064   ----------------------------------------
	BYTE	PATT
	 POIN2	Fatalize_7_020
// 065   ----------------------------------------
	BYTE	PATT
	 POIN2	Fatalize_7_025
// 066   ----------------------------------------
	BYTE		N23     En4   v096
	BYTE	W96
// 067   ----------------------------------------
	BYTE	PATT
	 POIN2	Fatalize_7_019
// 068   ----------------------------------------
	BYTE	PATT
	 POIN2	Fatalize_7_028
// 069   ----------------------------------------
	BYTE	PATT
	 POIN2	Fatalize_7_029
// 070   ----------------------------------------
	BYTE	PATT
	 POIN2	Fatalize_7_030
// 071   ----------------------------------------
	BYTE	PATT
	 POIN2	Fatalize_7_031
// 072   ----------------------------------------
	BYTE	PATT
	 POIN2	Fatalize_7_032
// 073   ----------------------------------------
	BYTE	W72
	BYTE		N23     Fs4   v096
	BYTE	W24
// 074   ----------------------------------------
	BYTE	PATT
	 POIN2	Fatalize_7_034
// 075   ----------------------------------------
	BYTE	PATT
	 POIN2	Fatalize_7_035
// 076   ----------------------------------------
	BYTE	W96
// 077   ----------------------------------------
	BYTE		N23     Fs4   v096
	BYTE	W96
// 078   ----------------------------------------
	BYTE		        En4 
	BYTE	W96
// 079   ----------------------------------------
	BYTE		        Dn4 
	BYTE	W96
// 080   ----------------------------------------
	BYTE	PATT
	 POIN2	Fatalize_7_040
// 081   ----------------------------------------
	BYTE	W96
// 082   ----------------------------------------
	BYTE	W96
// 083   ----------------------------------------
	BYTE	W96
// 084   ----------------------------------------
	BYTE	W96
// 085   ----------------------------------------
	BYTE	W96
// 086   ----------------------------------------
	BYTE	W96
// 087   ----------------------------------------
	BYTE	W96
// 088   ----------------------------------------
	BYTE	W96
// 089   ----------------------------------------
	BYTE	W96
// 090   ----------------------------------------
	BYTE		N23     En4   v096
	BYTE	W96
// 091   ----------------------------------------
	BYTE		N23   
	BYTE	W96
// 092   ----------------------------------------
	BYTE	PATT
	 POIN2	Fatalize_7_012
// 093   ----------------------------------------
	BYTE		N23     Fs4   v096
	BYTE	W96
// 094   ----------------------------------------
	BYTE		        En4 
	BYTE	W96
// 095   ----------------------------------------
	BYTE		        Cn4 
	BYTE	W96
// 096   ----------------------------------------
	BYTE		        Gs3 
	BYTE	W96
// 097   ----------------------------------------
	BYTE		        Dn4 
	BYTE	W96
// 098   ----------------------------------------
	BYTE		        En4 
	BYTE	W96
// 099   ----------------------------------------
	BYTE	PATT
	 POIN2	Fatalize_7_019
// 100   ----------------------------------------
	BYTE	PATT
	 POIN2	Fatalize_7_020
// 101   ----------------------------------------
	BYTE	PATT
	 POIN2	Fatalize_7_021
// 102   ----------------------------------------
	BYTE		N23     En4   v096
	BYTE	W96
// 103   ----------------------------------------
	BYTE	PATT
	 POIN2	Fatalize_7_019
// 104   ----------------------------------------
	BYTE	PATT
	 POIN2	Fatalize_7_020
// 105   ----------------------------------------
	BYTE	PATT
	 POIN2	Fatalize_7_025
// 106   ----------------------------------------
	BYTE		N23     En4   v096
	BYTE	W96
// 107   ----------------------------------------
	BYTE	PATT
	 POIN2	Fatalize_7_019
// 108   ----------------------------------------
	BYTE	PATT
	 POIN2	Fatalize_7_028
// 109   ----------------------------------------
	BYTE	PATT
	 POIN2	Fatalize_7_029
// 110   ----------------------------------------
	BYTE	PATT
	 POIN2	Fatalize_7_030
// 111   ----------------------------------------
	BYTE	PATT
	 POIN2	Fatalize_7_031
// 112   ----------------------------------------
	BYTE	PATT
	 POIN2	Fatalize_7_032
// 113   ----------------------------------------
	BYTE	W72
	BYTE		N23     Fs4   v096
	BYTE	W24
// 114   ----------------------------------------
	BYTE	PATT
	 POIN2	Fatalize_7_034
// 115   ----------------------------------------
	BYTE	PATT
	 POIN2	Fatalize_7_035
// 116   ----------------------------------------
	BYTE	W96
// 117   ----------------------------------------
	BYTE		N23     Fs4   v096
	BYTE	W96
// 118   ----------------------------------------
	BYTE		        En4 
	BYTE	W96
// 119   ----------------------------------------
	BYTE		        Dn4 
	BYTE	W96
// 120   ----------------------------------------
	BYTE	PATT
	 POIN2	Fatalize_7_040
// 121   ----------------------------------------
	BYTE	W23
	BYTE	GoTo
	 POIN2	Fatalize_7_B1
Fatalize_7_B2:
	BYTE	FINE

//******************************************************//
	ALIGN 4

songFatalize:
	BYTE	7	// NumTrks
	BYTE	0	// NumBlks
	BYTE	Fatalize_pri	// Priority
	BYTE	Fatalize_rev	// Reverb.

	POIN2	Fatalize_grp

	POIN2	Fatalize_1
	POIN2	Fatalize_2
	POIN2	Fatalize_3
	POIN2	Fatalize_4
	POIN2	Fatalize_5
	POIN2	Fatalize_6
	POIN2	Fatalize_7

	
