//Event file generated from Sappy .s format.
	#include "MPlayDef.event"

	#define	FE5Field_grp  voicegroup000
	#define	FE5Field_pri  0
	#define	FE5Field_rev  0
	#define	FE5Field_mvl  150
	#define	FE5Field_key  0
	#define	FE5Field_tbs  1
	#define	FE5Field_exg  0
	#define	FE5Field_cmp  1

	// .rodata
	//	FE5Field
	ALIGN 4


//**************** Track 1 (Midi-Chn.0) ****************//

FE5Field_001:
// 000   ----------------------------------------
 BYTE   KEYSH   FE5Field_key+0
 BYTE   TEMPO   112*FE5Field_tbs/2
 BYTE   VOICE   51
 BYTE   VOL   26*FE5Field_mvl/mxv
 BYTE   W48
 BYTE   TIE  As0  v127
 BYTE   TIE  As1
 BYTE   W48
// 001   ----------------------------------------
 BYTE   W96
// 002   ----------------------------------------
 BYTE   W96
// 003   ----------------------------------------
 BYTE   W96
// 004   ----------------------------------------
 BYTE   W36
 BYTE   EOT
 BYTE   As0  v046
 BYTE   W12
 BYTE   TIE  As0
 BYTE   TIE  As1
 BYTE   W48
// 005   ----------------------------------------
 BYTE   W96
// 006   ----------------------------------------
 BYTE   W96
// 007   ----------------------------------------
 BYTE   W96
// 008   ----------------------------------------
 BYTE   W30
 BYTE   EOT
 BYTE   As0  v046
 BYTE   W06
 BYTE   N09  An0
 BYTE   N09  An1
 BYTE   W12
 BYTE   N06  Gn0
 BYTE   N06  Gn1
 BYTE   W12
 BYTE   Gn0
 BYTE   N06  Gn1
 BYTE   W36
// 009   ----------------------------------------
Label_FE5Field0_0121B4FA:
 BYTE   N06  Fn0  v127
 BYTE   N06  Fn1
 BYTE   W12
 BYTE   Fn0
 BYTE   N06  Fn1
 BYTE   W36
 BYTE   Ds0
 BYTE   N06  Ds1
 BYTE   W12
 BYTE   Ds0
 BYTE   N06  Ds1
 BYTE   W36
 BYTE   PEND 
// 010   ----------------------------------------
 BYTE   Dn0
 BYTE   N06  Dn1
 BYTE   W12
 BYTE   Dn0
 BYTE   N06  Dn1
 BYTE   W36
 BYTE   Gn0
 BYTE   N06  Gn1
 BYTE   W12
 BYTE   Gn0
 BYTE   N06  Gn1
 BYTE   W36
// 011   ----------------------------------------
 BYTE   An0
 BYTE   N06  An1
 BYTE   W12
 BYTE   An0
 BYTE   N06  An1
 BYTE   W36
 BYTE   As0
 BYTE   N06  As1
 BYTE   W12
 BYTE   As0
 BYTE   N06  As1
 BYTE   W36
// 012   ----------------------------------------
 BYTE   As0
 BYTE   N06  As1
 BYTE   W12
 BYTE   As0
 BYTE   N06  As1
 BYTE   W24
 BYTE   N09  An0
 BYTE   N09  An1
 BYTE   W12
 BYTE   N06  Gn0
 BYTE   N06  Gn1
 BYTE   W12
 BYTE   Gn0
 BYTE   N06  Gn1
 BYTE   W36
 BYTE   PATT
  POIN2 Label_FE5Field0_0121B4FA
// 013   ----------------------------------------
 BYTE   N06  Dn0  v127
 BYTE   N06  Dn1
 BYTE   W12
 BYTE   Dn0
 BYTE   N06  Dn1
 BYTE   W36
 BYTE   Gs0
 BYTE   N06  Gs1
 BYTE   W12
 BYTE   Gs0
 BYTE   N06  Gs1
 BYTE   W36
// 014   ----------------------------------------
 BYTE   Gs0
 BYTE   N06  Gs1
 BYTE   W12
 BYTE   Gs0
 BYTE   N06  Gs1
 BYTE   W36
 BYTE   Fn0
 BYTE   N06  Fn1
 BYTE   W12
 BYTE   Fn0
 BYTE   N06  Fn1
 BYTE   W24
 BYTE   N03  Fn0
 BYTE   N03  Fn1
 BYTE   W06
 BYTE   Fn0
 BYTE   N03  Fn1
 BYTE   W06
// 015   ----------------------------------------
 BYTE   N06  Fn0
 BYTE   N06  Fn1
 BYTE   W12
 BYTE   Fn0
 BYTE   N06  Fn1
 BYTE   W36
 BYTE   TIE  As0
 BYTE   TIE  As1
 BYTE   W48
// 016   ----------------------------------------
 BYTE   W96
// 017   ----------------------------------------
 BYTE   W96
// 018   ----------------------------------------
 BYTE   W96
// 019   ----------------------------------------
 BYTE   W96
// 020   ----------------------------------------
 BYTE   W96
// 021   ----------------------------------------
 BYTE   W44
 BYTE   EOT
 BYTE   As0  v046
 BYTE   W04
 BYTE   TIE  Gn0
 BYTE   TIE  Gn1
 BYTE   W48
// 022   ----------------------------------------
 BYTE   W96
// 023   ----------------------------------------
 BYTE   W96
// 024   ----------------------------------------
 BYTE   W96
// 025   ----------------------------------------
 BYTE   W21
 BYTE   EOT
 BYTE   Gn0  v043
 BYTE   W03
 BYTE   N21  Fn1
 BYTE   N21  Fn2
 BYTE   W24
 BYTE   N92  Ds1
 BYTE   N92  Ds2
 BYTE   W48
// 026   ----------------------------------------
Label_FE5Field0_0121B5A2:
 BYTE   W48
 BYTE   N92  Dn1  v127
 BYTE   N92  Dn2
 BYTE   W48
 BYTE   PEND 
// 027   ----------------------------------------
 BYTE   W48
 BYTE   N48  Gn1
 BYTE   N48  Gn2
 BYTE   W48
// 028   ----------------------------------------
 BYTE   Fn1
 BYTE   N48  Fn2
 BYTE   W48
 BYTE   N72  Ds1
 BYTE   N72  Ds2
 BYTE   W48
 BYTE   PATT
  POIN2 Label_FE5Field0_0121B5A2
// 029   ----------------------------------------
 BYTE   W48
 BYTE   N52  Dn1  v127
 BYTE   N52  Dn2
 BYTE   W48
// 030   ----------------------------------------
 BYTE   W12
 BYTE   N08  Dn1
 BYTE   N08  Dn2
 BYTE   W36
 BYTE   TIE  As0
 BYTE   TIE  As1
 BYTE   W48
// 031   ----------------------------------------
 BYTE   W96
// 032   ----------------------------------------
 BYTE   W96
// 033   ----------------------------------------
 BYTE   W96
// 034   ----------------------------------------
 BYTE   W36
 BYTE   EOT
 BYTE   As0  v046
 BYTE   W12
 BYTE   TIE  As0
 BYTE   TIE  As1
 BYTE   W48
// 035   ----------------------------------------
 BYTE   W96
// 036   ----------------------------------------
 BYTE   W96
// 037   ----------------------------------------
 BYTE   W96
// 038   ----------------------------------------
 BYTE   W30
 BYTE   EOT
 BYTE   As0  v046
 BYTE   W06
 BYTE   N09  An0
 BYTE   N09  An1
 BYTE   W12
 BYTE   N06  Gn0
 BYTE   N06  Gn1
 BYTE   W12
 BYTE   Gn0
 BYTE   N06  Gn1
 BYTE   W36
// 039   ----------------------------------------
 BYTE   GoTo
  POIN2 Label_FE5Field0_0121B4FA
 BYTE   FINE

//**************** Track 2 (Midi-Chn.1) ****************//

FE5Field_002:
// 000   ----------------------------------------
 BYTE   KEYSH   FE5Field_key+0
 BYTE   VOICE   68
 BYTE   VOL   26*FE5Field_mvl/mxv
 BYTE   W96
// 001   ----------------------------------------
 BYTE   W96
// 002   ----------------------------------------
 BYTE   W96
// 003   ----------------------------------------
 BYTE   W96
// 004   ----------------------------------------
 BYTE   W96
// 005   ----------------------------------------
 BYTE   W96
// 006   ----------------------------------------
 BYTE   W96
// 007   ----------------------------------------
 BYTE   W96
// 008   ----------------------------------------
Label_FE5Field1_0121B60A:
 BYTE   W36
 BYTE   N03  Dn4  v127
 BYTE   W06
 BYTE   Cn4
 BYTE   W06
 BYTE   N24  As3
 BYTE   W36
 BYTE   N03  An3
 BYTE   W06
 BYTE   As3
 BYTE   W06
 BYTE   PEND 
// 009   ----------------------------------------
Label_FE5Field1_0121B61A:
 BYTE   N24  Cn4  v127
 BYTE   W36
 BYTE   N03  An3
 BYTE   W06
 BYTE   Fn3
 BYTE   W06
 BYTE   N14  Gn3
 BYTE   W24
 BYTE   Dn4
 BYTE   W24
// 010   ----------------------------------------
 BYTE   Cn4
 BYTE   W24
 BYTE   N03  An3
 BYTE   W12
 BYTE   Fn3
 BYTE   W12
 BYTE   N24  As3
 BYTE   W36
 BYTE   N03  An3
 BYTE   W06
 BYTE   As3
 BYTE   W06
// 011   ----------------------------------------
 BYTE   N24  Cn4
 BYTE   W30
 BYTE   N03  Fn3
 BYTE   W06
 BYTE   Cn4
 BYTE   W06
 BYTE   Dn4
 BYTE   W06
 BYTE   N24  Ds4
 BYTE   W36
 BYTE   N03  Fn4
 BYTE   W06
 BYTE   Ds4
 BYTE   W06
// 012   ----------------------------------------
 BYTE   N24  Dn4
 BYTE   W36
 BYTE   N03
 BYTE   W06
 BYTE   Cn4
 BYTE   W06
 BYTE   N24  As3
 BYTE   W36
 BYTE   N03  An3
 BYTE   W06
 BYTE   As3
 BYTE   W06
// 013   ----------------------------------------
 BYTE   N24  Cn4
 BYTE   W36
 BYTE   N03  Fn4
 BYTE   W06
 BYTE   Ds4
 BYTE   W06
 BYTE   N14  Dn4
 BYTE   W24
 BYTE   Cn4
 BYTE   W24
// 014   ----------------------------------------
 BYTE   As3
 BYTE   W24
 BYTE   N21  Dn4
 BYTE   W24
 BYTE   N24  Cn4
 BYTE   W36
 BYTE   N03
 BYTE   W06
 BYTE   Dn4
 BYTE   W06
// 015   ----------------------------------------
 BYTE   N24  Ds4
 BYTE   W36
 BYTE   N03
 BYTE   W06
 BYTE   Dn4
 BYTE   W06
 BYTE   N80  Cn4
 BYTE   W48
// 016   ----------------------------------------
 BYTE   W96
// 017   ----------------------------------------
 BYTE   W96
// 018   ----------------------------------------
 BYTE   W96
// 019   ----------------------------------------
 BYTE   W96
// 020   ----------------------------------------
 BYTE   W96
// 021   ----------------------------------------
 BYTE   W96
// 022   ----------------------------------------
 BYTE   W96
// 023   ----------------------------------------
 BYTE   W96
// 024   ----------------------------------------
 BYTE   W96
// 025   ----------------------------------------
 BYTE   W96
// 026   ----------------------------------------
 BYTE   W96
// 027   ----------------------------------------
 BYTE   W96
// 028   ----------------------------------------
 BYTE   W96
// 029   ----------------------------------------
 BYTE   W96
// 030   ----------------------------------------
 BYTE   W96
// 031   ----------------------------------------
 BYTE   W96
// 032   ----------------------------------------
 BYTE   W96
// 033   ----------------------------------------
 BYTE   W96
// 034   ----------------------------------------
 BYTE   W96
// 035   ----------------------------------------
 BYTE   W96
// 036   ----------------------------------------
 BYTE   W96
// 037   ----------------------------------------
 BYTE   W96
// 038   ----------------------------------------
 BYTE   W96
// 039   ----------------------------------------
 BYTE   W96
 BYTE   PATT
  POIN2 Label_FE5Field1_0121B60A
// 040   ----------------------------------------
 BYTE   GoTo
  POIN2 Label_FE5Field1_0121B61A
 BYTE   FINE

//**************** Track 3 (Midi-Chn.2) ****************//

FE5Field_003:
// 000   ----------------------------------------
 BYTE   KEYSH   FE5Field_key+0
 BYTE   VOICE   57
 BYTE   VOL   18*FE5Field_mvl/mxv
 BYTE   W96
// 001   ----------------------------------------
 BYTE   W96
// 002   ----------------------------------------
 BYTE   W96
// 003   ----------------------------------------
 BYTE   W96
// 004   ----------------------------------------
 BYTE   W96
// 005   ----------------------------------------
 BYTE   W96
// 006   ----------------------------------------
 BYTE   W96
// 007   ----------------------------------------
 BYTE   W96
// 008   ----------------------------------------
 BYTE   W96
// 009   ----------------------------------------
Label_FE5Field2_0121B6AF:
 BYTE   W96
// 010   ----------------------------------------
 BYTE   W96
// 011   ----------------------------------------
 BYTE   W96
// 012   ----------------------------------------
 BYTE   W96
// 013   ----------------------------------------
 BYTE   W96
// 014   ----------------------------------------
 BYTE   W96
// 015   ----------------------------------------
 BYTE   W96
// 016   ----------------------------------------
 BYTE   W96
// 017   ----------------------------------------
 BYTE   W96
// 018   ----------------------------------------
 BYTE   W96
// 019   ----------------------------------------
 BYTE   W96
// 020   ----------------------------------------
 BYTE   W96
// 021   ----------------------------------------
 BYTE   W48
 BYTE   N48  Ds2  v127
 BYTE   N48  Cn3
 BYTE   W48
// 022   ----------------------------------------
 BYTE   N24  Fn2
 BYTE   N24  Dn3
 BYTE   W24
 BYTE   N36  Gn2
 BYTE   N36  Ds3
 BYTE   W72
// 023   ----------------------------------------
 BYTE   W96
// 024   ----------------------------------------
 BYTE   W96
// 025   ----------------------------------------
 BYTE   W48
 BYTE   N48  Gn2
 BYTE   N48  Ds3
 BYTE   W48
// 026   ----------------------------------------
 BYTE   An2
 BYTE   N48  Fn3
 BYTE   W48
 BYTE   N92  As2
 BYTE   N92  Gn3
 BYTE   W48
// 027   ----------------------------------------
 BYTE   W48
 BYTE   N48  Cn3
 BYTE   N48  Gn3
 BYTE   W48
// 028   ----------------------------------------
 BYTE   Cn3
 BYTE   N48  Fs3
 BYTE   W48
 BYTE   Dn3
 BYTE   N48  As3
 BYTE   W48
// 029   ----------------------------------------
 BYTE   Ds3
 BYTE   N48  Cn4
 BYTE   W48
 BYTE   N96  Fn3
 BYTE   N96  Dn4
 BYTE   W48
// 030   ----------------------------------------
 BYTE   W48
 BYTE   N92  Gn3
 BYTE   N92  An3
 BYTE   W48
// 031   ----------------------------------------
 BYTE   W48
 BYTE   N56  Fs3
 BYTE   N56  An3
 BYTE   W48
// 032   ----------------------------------------
 BYTE   W12
 BYTE   N28  Fs3
 BYTE   N28  An3
 BYTE   W84
// 033   ----------------------------------------
 BYTE   W96
// 034   ----------------------------------------
 BYTE   W96
// 035   ----------------------------------------
 BYTE   W96
// 036   ----------------------------------------
 BYTE   W96
// 037   ----------------------------------------
 BYTE   W96
// 038   ----------------------------------------
 BYTE   W96
// 039   ----------------------------------------
 BYTE   W96
// 040   ----------------------------------------
 BYTE   W96
// 041   ----------------------------------------
 BYTE   GoTo
  POIN2 Label_FE5Field2_0121B6AF
 BYTE   FINE

//**************** Track 4 (Midi-Chn.3) ****************//

FE5Field_004:
// 000   ----------------------------------------
 BYTE   KEYSH   FE5Field_key+0
 BYTE   VOICE   40
 BYTE   VOL   30*FE5Field_mvl/mxv
 BYTE   W96
// 001   ----------------------------------------
 BYTE   W96
// 002   ----------------------------------------
 BYTE   W96
// 003   ----------------------------------------
 BYTE   W96
// 004   ----------------------------------------
 BYTE   W96
// 005   ----------------------------------------
 BYTE   W96
// 006   ----------------------------------------
 BYTE   W96
// 007   ----------------------------------------
 BYTE   W96
// 008   ----------------------------------------
 BYTE   W96
// 009   ----------------------------------------
Label_FE5Field3_0121B723:
 BYTE   W96
// 010   ----------------------------------------
 BYTE   W96
// 011   ----------------------------------------
 BYTE   W96
// 012   ----------------------------------------
 BYTE   W96
// 013   ----------------------------------------
 BYTE   W96
// 014   ----------------------------------------
 BYTE   W96
// 015   ----------------------------------------
 BYTE   W96
// 016   ----------------------------------------
 BYTE   W96
// 017   ----------------------------------------
 BYTE   W96
// 018   ----------------------------------------
Label_FE5Field3_0121B72C:
 BYTE   W30
 BYTE   N03  Fn2  v127
 BYTE   W06
 BYTE   As2
 BYTE   W06
 BYTE   Cn3
 BYTE   W06
 BYTE   N72  Dn3
 BYTE   W48
 BYTE   PEND 
// 019   ----------------------------------------
Label_FE5Field3_0121B739:
 BYTE   W36
 BYTE   N03  Cn3  v127
 BYTE   W06
 BYTE   Dn3
 BYTE   W06
 BYTE   N72  Ds3
 BYTE   W48
 BYTE   PEND 
// 020   ----------------------------------------
Label_FE5Field3_0121B744:
 BYTE   W36
 BYTE   N03  Dn3  v127
 BYTE   W06
 BYTE   Cn3
 BYTE   W06
 BYTE   N84  Dn3
 BYTE   W48
 BYTE   PEND 
// 021   ----------------------------------------
 BYTE   W96
 BYTE   PATT
  POIN2 Label_FE5Field3_0121B72C
 BYTE   PATT
  POIN2 Label_FE5Field3_0121B739
 BYTE   PATT
  POIN2 Label_FE5Field3_0121B744
// 022   ----------------------------------------
 BYTE   W96
// 023   ----------------------------------------
 BYTE   W96
// 024   ----------------------------------------
 BYTE   W96
// 025   ----------------------------------------
 BYTE   W96
// 026   ----------------------------------------
 BYTE   W96
// 027   ----------------------------------------
 BYTE   W96
// 028   ----------------------------------------
 BYTE   W96
// 029   ----------------------------------------
 BYTE   W96
// 030   ----------------------------------------
 BYTE   W96
// 031   ----------------------------------------
 BYTE   W96
// 032   ----------------------------------------
 BYTE   W96
// 033   ----------------------------------------
 BYTE   W96
// 034   ----------------------------------------
 BYTE   W96
// 035   ----------------------------------------
 BYTE   W96
// 036   ----------------------------------------
 BYTE   W96
// 037   ----------------------------------------
 BYTE   W42
 BYTE   N03  Dn3  v127
 BYTE   W06
 BYTE   Cn3
 BYTE   W06
 BYTE   N24  As2
 BYTE   W36
 BYTE   N03  An2
 BYTE   W06
// 038   ----------------------------------------
 BYTE   GoTo
  POIN2 Label_FE5Field3_0121B723
 BYTE   FINE

//**************** Track 5 (Midi-Chn.4) ****************//

FE5Field_005:
// 000   ----------------------------------------
 BYTE   KEYSH   FE5Field_key+0
 BYTE   VOICE   58
 BYTE   VOL   30*FE5Field_mvl/mxv
 BYTE   W96
// 001   ----------------------------------------
 BYTE   W96
// 002   ----------------------------------------
 BYTE   W96
// 003   ----------------------------------------
 BYTE   W96
// 004   ----------------------------------------
 BYTE   W96
// 005   ----------------------------------------
 BYTE   W96
// 006   ----------------------------------------
 BYTE   W96
// 007   ----------------------------------------
 BYTE   W96
// 008   ----------------------------------------
Label_FE5Field4_0121B792:
 BYTE   W36
 BYTE   N03  Dn4  v127
 BYTE   W06
 BYTE   Cn4
 BYTE   W06
 BYTE   N24  As3
 BYTE   W36
 BYTE   N03  An3
 BYTE   W06
 BYTE   As3
 BYTE   W06
 BYTE   PEND 
// 009   ----------------------------------------
Label_FE5Field4_0121B7A2:
 BYTE   N24  Cn4  v127
 BYTE   W36
 BYTE   N03  An3
 BYTE   W06
 BYTE   Fn3
 BYTE   W06
 BYTE   N21  Gn3
 BYTE   W24
 BYTE   Dn4
 BYTE   W24
// 010   ----------------------------------------
 BYTE   N20  Cn4
 BYTE   W24
 BYTE   N04  An3
 BYTE   W12
 BYTE   Fn3
 BYTE   W12
 BYTE   N24  As3
 BYTE   W36
 BYTE   N03  An3
 BYTE   W06
 BYTE   As3
 BYTE   W06
// 011   ----------------------------------------
 BYTE   N24  Cn4
 BYTE   W30
 BYTE   N03  Fn3
 BYTE   W06
 BYTE   Cn4
 BYTE   W06
 BYTE   Dn4
 BYTE   W06
 BYTE   N24  Ds4
 BYTE   W36
 BYTE   N03  Fn4
 BYTE   W06
 BYTE   Ds4
 BYTE   W06
// 012   ----------------------------------------
 BYTE   N24  Dn4
 BYTE   W36
 BYTE   N03
 BYTE   W06
 BYTE   Cn4
 BYTE   W06
 BYTE   N24  As3
 BYTE   W36
 BYTE   N03  An3
 BYTE   W06
 BYTE   As3
 BYTE   W06
// 013   ----------------------------------------
 BYTE   N24  Cn4
 BYTE   W36
 BYTE   N03  Fn4
 BYTE   W06
 BYTE   Ds4
 BYTE   W06
 BYTE   N21  Dn4
 BYTE   W24
 BYTE   Cn4
 BYTE   W24
// 014   ----------------------------------------
 BYTE   N20  As3
 BYTE   W24
 BYTE   N21  Dn4
 BYTE   W24
 BYTE   N24  Cn4
 BYTE   W36
 BYTE   N03
 BYTE   W06
 BYTE   Dn4
 BYTE   W06
// 015   ----------------------------------------
 BYTE   N24  Ds4
 BYTE   W36
 BYTE   N03
 BYTE   W06
 BYTE   Dn4
 BYTE   W06
 BYTE   N80  Cn4
 BYTE   W48
// 016   ----------------------------------------
 BYTE   W96
// 017   ----------------------------------------
 BYTE   W96
// 018   ----------------------------------------
 BYTE   W96
// 019   ----------------------------------------
 BYTE   W96
// 020   ----------------------------------------
 BYTE   W96
// 021   ----------------------------------------
 BYTE   W96
// 022   ----------------------------------------
 BYTE   W96
// 023   ----------------------------------------
 BYTE   W96
// 024   ----------------------------------------
 BYTE   W96
// 025   ----------------------------------------
 BYTE   W96
// 026   ----------------------------------------
 BYTE   W96
// 027   ----------------------------------------
 BYTE   W96
// 028   ----------------------------------------
 BYTE   W96
// 029   ----------------------------------------
 BYTE   W96
// 030   ----------------------------------------
 BYTE   W48
 BYTE   N30  Dn4
 BYTE   W36
 BYTE   N03
 BYTE   W06
 BYTE   N03
 BYTE   W06
// 031   ----------------------------------------
 BYTE   N04
 BYTE   W12
 BYTE   N04
 BYTE   W12
 BYTE   N04
 BYTE   W12
 BYTE   N04
 BYTE   W12
 BYTE   N30
 BYTE   W36
 BYTE   N03
 BYTE   W06
 BYTE   N03
 BYTE   W06
// 032   ----------------------------------------
 BYTE   N04
 BYTE   W12
 BYTE   N28
 BYTE   W84
// 033   ----------------------------------------
 BYTE   W96
// 034   ----------------------------------------
 BYTE   W96
// 035   ----------------------------------------
 BYTE   W96
// 036   ----------------------------------------
 BYTE   W96
// 037   ----------------------------------------
 BYTE   W96
// 038   ----------------------------------------
 BYTE   W96
// 039   ----------------------------------------
 BYTE   W96
 BYTE   PATT
  POIN2 Label_FE5Field4_0121B792
// 040   ----------------------------------------
 BYTE   GoTo
  POIN2 Label_FE5Field4_0121B7A2
 BYTE   FINE

//**************** Track 6 (Midi-Chn.5) ****************//

FE5Field_006:
// 000   ----------------------------------------
 BYTE   KEYSH   FE5Field_key+0
 BYTE   VOICE   58
 BYTE   VOL   46*FE5Field_mvl/mxv
 BYTE   W48
 BYTE   N84  Fn2  v127
 BYTE   W48
// 001   ----------------------------------------
 BYTE   W48
 BYTE   N84
 BYTE   W48
// 002   ----------------------------------------
 BYTE   W48
 BYTE   Gn2
 BYTE   W48
// 003   ----------------------------------------
 BYTE   W48
 BYTE   Fn2
 BYTE   W48
// 004   ----------------------------------------
 BYTE   W48
 BYTE   N84
 BYTE   W48
// 005   ----------------------------------------
 BYTE   W48
 BYTE   N84
 BYTE   W48
// 006   ----------------------------------------
 BYTE   W48
 BYTE   Gn2
 BYTE   W48
// 007   ----------------------------------------
 BYTE   W48
 BYTE   N76  Fn2
 BYTE   W48
// 008   ----------------------------------------
Label_FE5Field5_0121B861:
 BYTE   W36
 BYTE   N03  Dn3  v127
 BYTE   W06
 BYTE   Cn3
 BYTE   W06
 BYTE   N24  As2
 BYTE   W36
 BYTE   N03  An2
 BYTE   W06
 BYTE   As2
 BYTE   W06
 BYTE   PEND 
// 009   ----------------------------------------
Label_FE5Field5_0121B871:
 BYTE   N24  Cn3  v127
 BYTE   W36
 BYTE   N03  An2
 BYTE   W06
 BYTE   Fn2
 BYTE   W06
 BYTE   N21  Gn2
 BYTE   W24
 BYTE   Dn3
 BYTE   W24
 BYTE   PEND 
// 010   ----------------------------------------
 BYTE   N20  Cn3
 BYTE   W24
 BYTE   N04  An2
 BYTE   W12
 BYTE   Fn2
 BYTE   W12
 BYTE   N24  As2
 BYTE   W36
 BYTE   N03  An2
 BYTE   W06
 BYTE   As2
 BYTE   W06
// 011   ----------------------------------------
 BYTE   N24  Cn3
 BYTE   W30
 BYTE   N03  Fn2
 BYTE   W06
 BYTE   Cn3
 BYTE   W06
 BYTE   Dn3
 BYTE   W06
 BYTE   N24  Ds3
 BYTE   W36
 BYTE   N03  Fn3
 BYTE   W06
 BYTE   Ds3
 BYTE   W06
// 012   ----------------------------------------
 BYTE   N24  Dn3
 BYTE   W36
 BYTE   N03
 BYTE   W06
 BYTE   Cn3
 BYTE   W06
 BYTE   N24  As2
 BYTE   W36
 BYTE   N03  An2
 BYTE   W06
 BYTE   As2
 BYTE   W06
 BYTE   PATT
  POIN2 Label_FE5Field5_0121B871
// 013   ----------------------------------------
 BYTE   N20  Cn3  v127
 BYTE   W24
 BYTE   N21  Gn3
 BYTE   W24
 BYTE   N24  Fn3
 BYTE   W36
 BYTE   N03  Ds3
 BYTE   W06
 BYTE   Dn3
 BYTE   W06
// 014   ----------------------------------------
 BYTE   N24  Cn3
 BYTE   W36
 BYTE   N03  As2
 BYTE   W12
 BYTE   N80  Cn3
 BYTE   W48
// 015   ----------------------------------------
 BYTE   W96
// 016   ----------------------------------------
 BYTE   W96
// 017   ----------------------------------------
 BYTE   W48
 BYTE   N84  Fn2
 BYTE   W48
// 018   ----------------------------------------
 BYTE   W48
 BYTE   N84
 BYTE   W48
// 019   ----------------------------------------
 BYTE   W48
 BYTE   N84
 BYTE   W48
// 020   ----------------------------------------
 BYTE   W96
// 021   ----------------------------------------
 BYTE   W48
 BYTE   Gn2
 BYTE   W48
// 022   ----------------------------------------
 BYTE   W48
 BYTE   N84
 BYTE   W48
// 023   ----------------------------------------
 BYTE   W48
 BYTE   N84
 BYTE   W48
// 024   ----------------------------------------
 BYTE   W96
// 025   ----------------------------------------
 BYTE   W96
// 026   ----------------------------------------
 BYTE   W96
// 027   ----------------------------------------
 BYTE   W96
// 028   ----------------------------------------
 BYTE   W96
// 029   ----------------------------------------
 BYTE   W96
// 030   ----------------------------------------
 BYTE   W96
// 031   ----------------------------------------
 BYTE   W48
 BYTE   Fn2
 BYTE   W48
// 032   ----------------------------------------
 BYTE   W48
 BYTE   N84
 BYTE   W48
// 033   ----------------------------------------
 BYTE   W48
 BYTE   Gn2
 BYTE   W48
// 034   ----------------------------------------
 BYTE   W48
 BYTE   Fn2
 BYTE   W48
// 035   ----------------------------------------
 BYTE   W48
 BYTE   N84
 BYTE   W48
// 036   ----------------------------------------
 BYTE   W48
 BYTE   N84
 BYTE   W48
// 037   ----------------------------------------
 BYTE   W48
 BYTE   Gn2
 BYTE   W48
// 038   ----------------------------------------
 BYTE   W48
 BYTE   N76  Fn2
 BYTE   W48
 BYTE   PATT
  POIN2 Label_FE5Field5_0121B861
// 039   ----------------------------------------
 BYTE   GoTo
  POIN2 Label_FE5Field5_0121B871
 BYTE   FINE

//**************** Track 7 (Midi-Chn.6) ****************//

FE5Field_007:
// 000   ----------------------------------------
 BYTE   KEYSH   FE5Field_key+0
 BYTE   VOICE   60
 BYTE   VOL   32*FE5Field_mvl/mxv
 BYTE   W36
 BYTE   N03  Fn2  v127
 BYTE   W06
 BYTE   As2
 BYTE   W06
 BYTE   N72  Cn3
 BYTE   W48
// 001   ----------------------------------------
Label_FE5Field6_0121B920:
 BYTE   W36
 BYTE   N03  As2  v127
 BYTE   W06
 BYTE   Cn3
 BYTE   W06
 BYTE   N72  Dn3
 BYTE   W48
 BYTE   PEND 
// 002   ----------------------------------------
Label_FE5Field6_0121B92B:
 BYTE   W30
 BYTE   N03  Fn2  v127
 BYTE   W06
 BYTE   Cn3
 BYTE   W06
 BYTE   Dn3
 BYTE   W06
 BYTE   N72  Ds3
 BYTE   W48
 BYTE   PEND 
// 003   ----------------------------------------
Label_FE5Field6_0121B938:
 BYTE   W36
 BYTE   N03  Dn3  v127
 BYTE   W06
 BYTE   Cn3
 BYTE   W06
 BYTE   N72  Dn3
 BYTE   W48
 BYTE   PEND 
// 004   ----------------------------------------
Label_FE5Field6_0121B943:
 BYTE   W36
 BYTE   N03  Fn2  v127
 BYTE   W06
 BYTE   As2
 BYTE   W06
 BYTE   N72  Cn3
 BYTE   W48
 BYTE   PEND 
 BYTE   PATT
  POIN2 Label_FE5Field6_0121B920
// 005   ----------------------------------------
Label_FE5Field6_0121B953:
 BYTE   W36
 BYTE   N03  Cn3  v127
 BYTE   W06
 BYTE   Dn3
 BYTE   W06
 BYTE   N72  Ds3
 BYTE   W48
 BYTE   PEND 
// 006   ----------------------------------------
Label_FE5Field6_0121B95E:
 BYTE   W36
 BYTE   N03  Fn3  v127
 BYTE   W06
 BYTE   Cn3
 BYTE   W06
 BYTE   N03
 BYTE   W06
 BYTE   Dn3
 BYTE   W06
 BYTE   N80
 BYTE   W36
 BYTE   PEND 
// 007   ----------------------------------------
 BYTE   W96
// 008   ----------------------------------------
Label_FE5Field6_0121B96D:
 BYTE   W96
// 009   ----------------------------------------
 BYTE   W96
// 010   ----------------------------------------
 BYTE   W96
// 011   ----------------------------------------
 BYTE   W96
// 012   ----------------------------------------
 BYTE   W96
// 013   ----------------------------------------
 BYTE   W96
// 014   ----------------------------------------
 BYTE   W96
// 015   ----------------------------------------
 BYTE   W96
// 016   ----------------------------------------
 BYTE   W96
// 017   ----------------------------------------
 BYTE   W96
// 018   ----------------------------------------
 BYTE   W96
// 019   ----------------------------------------
 BYTE   W96
// 020   ----------------------------------------
 BYTE   W96
// 021   ----------------------------------------
 BYTE   W96
// 022   ----------------------------------------
 BYTE   W96
// 023   ----------------------------------------
 BYTE   W96
// 024   ----------------------------------------
 BYTE   W96
// 025   ----------------------------------------
 BYTE   W96
// 026   ----------------------------------------
 BYTE   W96
// 027   ----------------------------------------
 BYTE   W96
// 028   ----------------------------------------
 BYTE   W96
// 029   ----------------------------------------
 BYTE   W96
// 030   ----------------------------------------
 BYTE   W96
 BYTE   PATT
  POIN2 Label_FE5Field6_0121B943
 BYTE   PATT
  POIN2 Label_FE5Field6_0121B920
 BYTE   PATT
  POIN2 Label_FE5Field6_0121B92B
 BYTE   PATT
  POIN2 Label_FE5Field6_0121B938
 BYTE   PATT
  POIN2 Label_FE5Field6_0121B943
 BYTE   PATT
  POIN2 Label_FE5Field6_0121B920
 BYTE   PATT
  POIN2 Label_FE5Field6_0121B953
 BYTE   PATT
  POIN2 Label_FE5Field6_0121B95E
// 031   ----------------------------------------
 BYTE   W96
// 032   ----------------------------------------
 BYTE   GoTo
  POIN2 Label_FE5Field6_0121B96D
 BYTE   FINE

//**************** Track 8 (Midi-Chn.7) ****************//

FE5Field_008:
// 000   ----------------------------------------
 BYTE   KEYSH   FE5Field_key+0
 BYTE   VOICE   57
 BYTE   VOL   21*FE5Field_mvl/mxv
 BYTE   W96
// 001   ----------------------------------------
 BYTE   W96
// 002   ----------------------------------------
 BYTE   W96
// 003   ----------------------------------------
 BYTE   W96
// 004   ----------------------------------------
 BYTE   W96
// 005   ----------------------------------------
 BYTE   W96
// 006   ----------------------------------------
 BYTE   W96
// 007   ----------------------------------------
 BYTE   W96
// 008   ----------------------------------------
 BYTE   W48
 BYTE   N44  Dn3  v127
 BYTE   W48
// 009   ----------------------------------------
Label_FE5Field7_0121B9C7:
 BYTE   N44  Ds3  v127
 BYTE   W48
 BYTE   N21  Dn3
 BYTE   W24
 BYTE   Gn3
 BYTE   W24
// 010   ----------------------------------------
 BYTE   Fn3
 BYTE   W24
 BYTE   Dn3
 BYTE   W24
 BYTE   N44
 BYTE   W48
// 011   ----------------------------------------
 BYTE   Fn3
 BYTE   W48
 BYTE   Gn3
 BYTE   W48
// 012   ----------------------------------------
 BYTE   Fn3
 BYTE   W48
 BYTE   Dn3
 BYTE   W48
// 013   ----------------------------------------
 BYTE   Fn3
 BYTE   W48
 BYTE   N21  Ds3
 BYTE   W24
 BYTE   Gn3
 BYTE   W24
// 014   ----------------------------------------
 BYTE   Fn3
 BYTE   W24
 BYTE   As3
 BYTE   W24
 BYTE   N92  Gs3
 BYTE   W48
// 015   ----------------------------------------
 BYTE   W48
 BYTE   Fn3
 BYTE   W48
// 016   ----------------------------------------
 BYTE   W96
// 017   ----------------------------------------
 BYTE   W96
// 018   ----------------------------------------
 BYTE   W96
// 019   ----------------------------------------
 BYTE   W96
// 020   ----------------------------------------
 BYTE   W96
// 021   ----------------------------------------
 BYTE   W96
// 022   ----------------------------------------
 BYTE   W96
// 023   ----------------------------------------
 BYTE   W96
// 024   ----------------------------------------
 BYTE   W96
// 025   ----------------------------------------
 BYTE   W96
// 026   ----------------------------------------
 BYTE   W36
 BYTE   N03  Ds3
 BYTE   W06
 BYTE   Fn3
 BYTE   W06
 BYTE   N36  Gn3
 BYTE   W42
 BYTE   N03  Ds3
 BYTE   W06
// 027   ----------------------------------------
 BYTE   N20  As2
 BYTE   W24
 BYTE   Gn3
 BYTE   W24
 BYTE   N32
 BYTE   W36
 BYTE   N03  An3
 BYTE   W06
 BYTE   Gn3
 BYTE   W06
// 028   ----------------------------------------
 BYTE   N16  Fs3
 BYTE   W24
 BYTE   N24  Dn3
 BYTE   W24
 BYTE   As3
 BYTE   W36
 BYTE   N09
 BYTE   W12
// 029   ----------------------------------------
 BYTE   N15  An3
 BYTE   W18
 BYTE   Gn3
 BYTE   W18
 BYTE   N09  Fn3
 BYTE   W12
 BYTE   N72  Gn3
 BYTE   W48
// 030   ----------------------------------------
 BYTE   W30
 BYTE   N03  As2
 BYTE   W06
 BYTE   Ds3
 BYTE   W06
 BYTE   Gn3
 BYTE   W06
 BYTE   N76
 BYTE   W48
// 031   ----------------------------------------
 BYTE   W36
 BYTE   N03  Fs3
 BYTE   W06
 BYTE   Gn3
 BYTE   W06
 BYTE   N84  An3
 BYTE   W48
// 032   ----------------------------------------
 BYTE   W96
// 033   ----------------------------------------
 BYTE   W96
// 034   ----------------------------------------
 BYTE   W96
// 035   ----------------------------------------
 BYTE   W96
// 036   ----------------------------------------
 BYTE   W96
// 037   ----------------------------------------
 BYTE   W96
// 038   ----------------------------------------
 BYTE   W96
// 039   ----------------------------------------
 BYTE   W96
// 040   ----------------------------------------
 BYTE   W48
 BYTE   N44  Dn3
 BYTE   W48
// 041   ----------------------------------------
 BYTE   GoTo
  POIN2 Label_FE5Field7_0121B9C7
 BYTE   FINE

//**************** Track 9 (Midi-Chn.8) ****************//

FE5Field_009:
// 000   ----------------------------------------
 BYTE   KEYSH   FE5Field_key+0
 BYTE   VOICE   51
 BYTE   VOL   29*FE5Field_mvl/mxv
 BYTE   W48
 BYTE   N03  FsM2  v127
 BYTE   W12
 BYTE   N03
 BYTE   W24
 BYTE   N03
 BYTE   W06
 BYTE   N03
 BYTE   W06
// 001   ----------------------------------------
Label_FE5Field8_0121BA5D:
 BYTE   N03  FsM2  v127
 BYTE   W12
 BYTE   N03
 BYTE   W24
 BYTE   GnM2
 BYTE   W12
 BYTE   FsM2
 BYTE   W12
 BYTE   N03
 BYTE   W24
 BYTE   N03
 BYTE   W06
 BYTE   N03
 BYTE   W06
 BYTE   PEND 
 BYTE   PATT
  POIN2 Label_FE5Field8_0121BA5D
 BYTE   PATT
  POIN2 Label_FE5Field8_0121BA5D
 BYTE   PATT
  POIN2 Label_FE5Field8_0121BA5D
 BYTE   PATT
  POIN2 Label_FE5Field8_0121BA5D
 BYTE   PATT
  POIN2 Label_FE5Field8_0121BA5D
 BYTE   PATT
  POIN2 Label_FE5Field8_0121BA5D
// 002   ----------------------------------------
Label_FE5Field8_0121BA8C:
 BYTE   N03  FsM2  v127
 BYTE   W12
 BYTE   N03
 BYTE   W12
 BYTE   GnM2
 BYTE   W12
 BYTE   FsM2
 BYTE   W06
 BYTE   N03
 BYTE   W06
 BYTE   N03
 BYTE   W12
 BYTE   N03
 BYTE   W36
 BYTE   PEND 
// 003   ----------------------------------------
Label_FE5Field8_0121BA9D:
 BYTE   N03  FsM2  v127
 BYTE   W12
 BYTE   N03
 BYTE   W36
 BYTE   N03
 BYTE   W12
 BYTE   N03
 BYTE   W36
// 004   ----------------------------------------
Label_FE5Field8_0121BAA7:
 BYTE   N03  FsM2  v127
 BYTE   W12
 BYTE   N03
 BYTE   W24
 BYTE   N03
 BYTE   W06
 BYTE   N03
 BYTE   W06
 BYTE   N03
 BYTE   W12
 BYTE   N03
 BYTE   W36
 BYTE   PEND 
 BYTE   PATT
  POIN2 Label_FE5Field8_0121BAA7
// 005   ----------------------------------------
 BYTE   N03  FsM2  v127
 BYTE   W12
 BYTE   N03
 BYTE   W12
 BYTE   N03
 BYTE   W12
 BYTE   N03
 BYTE   W03
 BYTE   N03
 BYTE   W06
 BYTE   N03
 BYTE   W03
 BYTE   N03
 BYTE   W12
 BYTE   N03
 BYTE   W24
 BYTE   N03
 BYTE   W06
 BYTE   N03
 BYTE   W06
// 006   ----------------------------------------
Label_FE5Field8_0121BAD1:
 BYTE   N03  FsM2  v127
 BYTE   W12
 BYTE   N03
 BYTE   W24
 BYTE   N03
 BYTE   W12
 BYTE   N03
 BYTE   W12
 BYTE   N03
 BYTE   W24
 BYTE   N03
 BYTE   W06
 BYTE   N03
 BYTE   W06
 BYTE   PEND 
// 007   ----------------------------------------
 BYTE   N03
 BYTE   W12
 BYTE   N03
 BYTE   W12
 BYTE   N03
 BYTE   W12
 BYTE   N03
 BYTE   W06
 BYTE   N03
 BYTE   W06
 BYTE   N03
 BYTE   W12
 BYTE   N03
 BYTE   W24
 BYTE   N03
 BYTE   W06
 BYTE   N03
 BYTE   W06
 BYTE   PATT
  POIN2 Label_FE5Field8_0121BAD1
// 008   ----------------------------------------
 BYTE   N03  FsM2  v127
 BYTE   W12
 BYTE   N03
 BYTE   W12
 BYTE   N03
 BYTE   W12
 BYTE   N03
 BYTE   W03
 BYTE   N03
 BYTE   W06
 BYTE   N03
 BYTE   W03
 BYTE   N03
 BYTE   W12
 BYTE   N03
 BYTE   W06
 BYTE   N03
 BYTE   W06
 BYTE   N03
 BYTE   W12
 BYTE   N03
 BYTE   W06
 BYTE   N03
 BYTE   W06
// 009   ----------------------------------------
Label_FE5Field8_0121BB13:
 BYTE   N03  FsM2  v127
 BYTE   W12
 BYTE   N03
 BYTE   W12
 BYTE   N03
 BYTE   W12
 BYTE   N03
 BYTE   W12
 BYTE   N03
 BYTE   W12
 BYTE   N03
 BYTE   W06
 BYTE   N03
 BYTE   W06
 BYTE   N03
 BYTE   W12
 BYTE   N03
 BYTE   W06
 BYTE   N03
 BYTE   W06
 BYTE   PEND 
 BYTE   PATT
  POIN2 Label_FE5Field8_0121BB13
 BYTE   PATT
  POIN2 Label_FE5Field8_0121BB13
 BYTE   PATT
  POIN2 Label_FE5Field8_0121BB13
 BYTE   PATT
  POIN2 Label_FE5Field8_0121BB13
// 010   ----------------------------------------
 BYTE   N03  FsM2  v127
 BYTE   W12
 BYTE   N03
 BYTE   W12
 BYTE   N03
 BYTE   W12
 BYTE   GnM2
 BYTE   W12
 BYTE   FsM2
 BYTE   W12
 BYTE   N03
 BYTE   W06
 BYTE   N03
 BYTE   W06
 BYTE   N03
 BYTE   W12
 BYTE   N03
 BYTE   W06
 BYTE   N03
 BYTE   W06
 BYTE   PATT
  POIN2 Label_FE5Field8_0121BB13
 BYTE   PATT
  POIN2 Label_FE5Field8_0121BB13
 BYTE   PATT
  POIN2 Label_FE5Field8_0121BB13
// 011   ----------------------------------------
 BYTE   N03  FsM2  v127
 BYTE   W12
 BYTE   N03
 BYTE   W12
 BYTE   N03
 BYTE   W12
 BYTE   N03
 BYTE   W12
 BYTE   N03
 BYTE   W12
 BYTE   N03
 BYTE   W36
 BYTE   PATT
  POIN2 Label_FE5Field8_0121BAA7
 BYTE   PATT
  POIN2 Label_FE5Field8_0121BAA7
// 012   ----------------------------------------
 BYTE   N03  FsM2  v127
 BYTE   W12
 BYTE   N03
 BYTE   W24
 BYTE   N03
 BYTE   W06
 BYTE   N03
 BYTE   W06
 BYTE   N03
 BYTE   W12
 BYTE   N03
 BYTE   W12
 BYTE   N03
 BYTE   W12
 BYTE   N03
 BYTE   W06
 BYTE   N03
 BYTE   W06
// 013   ----------------------------------------
 BYTE   N03
 BYTE   W12
 BYTE   N03
 BYTE   W12
 BYTE   N03
 BYTE   W12
 BYTE   N03
 BYTE   W06
 BYTE   N03
 BYTE   W06
 BYTE   N03
 BYTE   W12
 BYTE   N03
 BYTE   W36
// 014   ----------------------------------------
 BYTE   N03
 BYTE   W12
 BYTE   N03
 BYTE   W24
 BYTE   N03
 BYTE   W06
 BYTE   N03
 BYTE   W06
 BYTE   N03
 BYTE   W12
 BYTE   N03
 BYTE   W06
 BYTE   N03
 BYTE   W06
 BYTE   N03
 BYTE   W12
 BYTE   N03
 BYTE   W06
 BYTE   N03
 BYTE   W06
// 015   ----------------------------------------
 BYTE   N03
 BYTE   W12
 BYTE   N03
 BYTE   W24
 BYTE   N03
 BYTE   W06
 BYTE   N03
 BYTE   W06
 BYTE   N03
 BYTE   W12
 BYTE   N03
 BYTE   W24
 BYTE   N03
 BYTE   W06
 BYTE   N03
 BYTE   W06
 BYTE   PATT
  POIN2 Label_FE5Field8_0121BA5D
 BYTE   PATT
  POIN2 Label_FE5Field8_0121BA5D
 BYTE   PATT
  POIN2 Label_FE5Field8_0121BA5D
 BYTE   PATT
  POIN2 Label_FE5Field8_0121BA5D
 BYTE   PATT
  POIN2 Label_FE5Field8_0121BA5D
 BYTE   PATT
  POIN2 Label_FE5Field8_0121BA5D
 BYTE   PATT
  POIN2 Label_FE5Field8_0121BA5D
 BYTE   PATT
  POIN2 Label_FE5Field8_0121BA8C
// 016   ----------------------------------------
 BYTE   GoTo
  POIN2 Label_FE5Field8_0121BA9D
 BYTE   FINE

//**************** Track 10 (Midi-Chn.9) ****************//

FE5Field_010:
// 000   ----------------------------------------
 BYTE   KEYSH   FE5Field_key+0
 BYTE   VOICE   51
 BYTE   VOL   31*FE5Field_mvl/mxv
 BYTE   W48
 BYTE   N04  Fn2  v127
 BYTE   N04  As2
 BYTE   W12
 BYTE   Fn2
 BYTE   N04  As2
 BYTE   W24
 BYTE   N03  Fn2
 BYTE   N03  As2
 BYTE   W06
 BYTE   Fn2
 BYTE   N03  As2
 BYTE   W06
// 001   ----------------------------------------
Label_FE5Field9_0121BC0A:
 BYTE   N04  Fn2  v127
 BYTE   N04  As2
 BYTE   W12
 BYTE   Fn2
 BYTE   N04  As2
 BYTE   W36
 BYTE   Fn2
 BYTE   N04  As2
 BYTE   W12
 BYTE   Fn2
 BYTE   N04  As2
 BYTE   W24
 BYTE   N03  Fn2
 BYTE   N03  As2
 BYTE   W06
 BYTE   Fn2
 BYTE   N03  As2
 BYTE   W06
 BYTE   PEND 
 BYTE   PATT
  POIN2 Label_FE5Field9_0121BC0A
 BYTE   PATT
  POIN2 Label_FE5Field9_0121BC0A
 BYTE   PATT
  POIN2 Label_FE5Field9_0121BC0A
 BYTE   PATT
  POIN2 Label_FE5Field9_0121BC0A
 BYTE   PATT
  POIN2 Label_FE5Field9_0121BC0A
 BYTE   PATT
  POIN2 Label_FE5Field9_0121BC0A
// 002   ----------------------------------------
Label_FE5Field9_0121BC44:
 BYTE   N04  Fn2  v127
 BYTE   N04  As2
 BYTE   W12
 BYTE   Fn2
 BYTE   N04  As2
 BYTE   W84
 BYTE   PEND 
// 003   ----------------------------------------
Label_FE5Field9_0121BC4F:
 BYTE   W96
// 004   ----------------------------------------
 BYTE   W96
// 005   ----------------------------------------
 BYTE   W96
// 006   ----------------------------------------
 BYTE   W96
// 007   ----------------------------------------
 BYTE   W96
// 008   ----------------------------------------
 BYTE   W96
// 009   ----------------------------------------
 BYTE   W96
// 010   ----------------------------------------
 BYTE   W48
 BYTE   N04  Fn2  v127
 BYTE   N04  As2
 BYTE   W12
 BYTE   Fn2
 BYTE   N04  As2
 BYTE   W24
 BYTE   N03  Fn2
 BYTE   N03  As2
 BYTE   W06
 BYTE   Fn2
 BYTE   N03  As2
 BYTE   W06
 BYTE   PATT
  POIN2 Label_FE5Field9_0121BC0A
 BYTE   PATT
  POIN2 Label_FE5Field9_0121BC0A
 BYTE   PATT
  POIN2 Label_FE5Field9_0121BC0A
 BYTE   PATT
  POIN2 Label_FE5Field9_0121BC0A
 BYTE   PATT
  POIN2 Label_FE5Field9_0121BC0A
// 011   ----------------------------------------
 BYTE   N04  Fn2  v127
 BYTE   N04  As2
 BYTE   W12
 BYTE   Fn2
 BYTE   N04  As2
 BYTE   W36
 BYTE   Dn2
 BYTE   N04  Gn2
 BYTE   W12
 BYTE   Dn2
 BYTE   N04  Gn2
 BYTE   W24
 BYTE   N03  Dn2
 BYTE   N03  Gn2
 BYTE   W06
 BYTE   Dn2
 BYTE   N03  Gn2
 BYTE   W06
// 012   ----------------------------------------
Label_FE5Field9_0121BC9E:
 BYTE   N04  Dn2  v127
 BYTE   N04  Gn2
 BYTE   W12
 BYTE   Dn2
 BYTE   N04  Gn2
 BYTE   W36
 BYTE   Dn2
 BYTE   N04  Gn2
 BYTE   W12
 BYTE   Dn2
 BYTE   N04  Gn2
 BYTE   W24
 BYTE   N03  Dn2
 BYTE   N03  Gn2
 BYTE   W06
 BYTE   Dn2
 BYTE   N03  Gn2
 BYTE   W06
 BYTE   PEND 
 BYTE   PATT
  POIN2 Label_FE5Field9_0121BC9E
 BYTE   PATT
  POIN2 Label_FE5Field9_0121BC9E
// 013   ----------------------------------------
 BYTE   N04  Dn2  v127
 BYTE   N04  Gn2
 BYTE   W24
 BYTE   Cn2
 BYTE   N04  Fn2
 BYTE   W24
 BYTE   As1
 BYTE   N04  Ds2
 BYTE   W12
 BYTE   As1
 BYTE   N04  Ds2
 BYTE   W36
// 014   ----------------------------------------
 BYTE   As1
 BYTE   N04  Ds2
 BYTE   W12
 BYTE   As1
 BYTE   N04  Ds2
 BYTE   W36
 BYTE   An1
 BYTE   N04  Dn2
 BYTE   W12
 BYTE   An1
 BYTE   N04  Dn2
 BYTE   W36
// 015   ----------------------------------------
 BYTE   An1
 BYTE   N04  Dn2
 BYTE   W12
 BYTE   An1
 BYTE   N04  Dn2
 BYTE   W24
 BYTE   N03  An1
 BYTE   N03  Dn2
 BYTE   W12
 BYTE   N04
 BYTE   N04  Gn2
 BYTE   W12
 BYTE   Dn2
 BYTE   N04  Gn2
 BYTE   W36
// 016   ----------------------------------------
 BYTE   Cn2
 BYTE   N04  Fn2
 BYTE   W12
 BYTE   Cn2
 BYTE   N04  Fn2
 BYTE   W36
 BYTE   As1
 BYTE   N04  Ds2
 BYTE   W12
 BYTE   As1
 BYTE   N04  Ds2
 BYTE   W36
// 017   ----------------------------------------
 BYTE   W36
 BYTE   N03  As1
 BYTE   N03  Ds2
 BYTE   W12
 BYTE   N04  An1
 BYTE   N04  Dn2
 BYTE   W12
 BYTE   An1
 BYTE   N04  Dn2
 BYTE   W36
// 018   ----------------------------------------
 BYTE   An1
 BYTE   N04  Dn2
 BYTE   W12
 BYTE   An1
 BYTE   N04  Dn2
 BYTE   W24
 BYTE   N03  An1
 BYTE   N03  Dn2
 BYTE   W12
 BYTE   N04  An1
 BYTE   N04  Dn2
 BYTE   W12
 BYTE   An1
 BYTE   N04  Dn2
 BYTE   W24
 BYTE   N03  An1
 BYTE   N03  Dn2
 BYTE   W06
 BYTE   An1
 BYTE   N03  Dn2
 BYTE   W06
// 019   ----------------------------------------
 BYTE   N04  An1
 BYTE   N04  Dn2
 BYTE   W12
 BYTE   An1
 BYTE   N04  Dn2
 BYTE   W24
 BYTE   N03  An1
 BYTE   N03  Dn2
 BYTE   W12
 BYTE   N04  Fn2
 BYTE   N04  As2
 BYTE   W12
 BYTE   Fn2
 BYTE   N04  As2
 BYTE   W24
 BYTE   N03  Fn2
 BYTE   N03  As2
 BYTE   W06
 BYTE   Fn2
 BYTE   N03  As2
 BYTE   W06
 BYTE   PATT
  POIN2 Label_FE5Field9_0121BC0A
 BYTE   PATT
  POIN2 Label_FE5Field9_0121BC0A
 BYTE   PATT
  POIN2 Label_FE5Field9_0121BC0A
 BYTE   PATT
  POIN2 Label_FE5Field9_0121BC0A
 BYTE   PATT
  POIN2 Label_FE5Field9_0121BC0A
 BYTE   PATT
  POIN2 Label_FE5Field9_0121BC0A
 BYTE   PATT
  POIN2 Label_FE5Field9_0121BC0A
 BYTE   PATT
  POIN2 Label_FE5Field9_0121BC44
// 020   ----------------------------------------
 BYTE   GoTo
  POIN2 Label_FE5Field9_0121BC4F
 BYTE   FINE

//**************** Track 11 (Midi-Chn.10) ****************//

FE5Field_011:
// 000   ----------------------------------------
 BYTE   KEYSH   FE5Field_key+0
 BYTE   VOICE   8
 BYTE   VOL   39*FE5Field_mvl/mxv
 BYTE   W48
 BYTE   N04  As1  v127
 BYTE   W12
 BYTE   N04
 BYTE   W24
 BYTE   N03
 BYTE   W06
 BYTE   Fn1
 BYTE   W06
// 001   ----------------------------------------
Label_FE5Field10_0121BD99:
 BYTE   N04  As1  v127
 BYTE   W12
 BYTE   N04
 BYTE   W24
 BYTE   N04
 BYTE   W12
 BYTE   N04
 BYTE   W12
 BYTE   N04
 BYTE   W24
 BYTE   N03
 BYTE   W06
 BYTE   Fn1
 BYTE   W06
 BYTE   PEND 
 BYTE   PATT
  POIN2 Label_FE5Field10_0121BD99
 BYTE   PATT
  POIN2 Label_FE5Field10_0121BD99
// 002   ----------------------------------------
Label_FE5Field10_0121BDB4:
 BYTE   N04  As1  v127
 BYTE   W12
 BYTE   N04
 BYTE   W24
 BYTE   N04
 BYTE   W02
 BYTE   An1
 BYTE   W02
 BYTE   As1
 BYTE   W02
 BYTE   An1
 BYTE   W02
 BYTE   As1
 BYTE   W02
 BYTE   An1
 BYTE   W02
 BYTE   As1
 BYTE   W12
 BYTE   N04
 BYTE   W24
 BYTE   N03
 BYTE   W06
 BYTE   Fn1
 BYTE   W06
 BYTE   PEND 
 BYTE   PATT
  POIN2 Label_FE5Field10_0121BD99
 BYTE   PATT
  POIN2 Label_FE5Field10_0121BD99
 BYTE   PATT
  POIN2 Label_FE5Field10_0121BD99
// 003   ----------------------------------------
Label_FE5Field10_0121BDDE:
 BYTE   N04  As1  v127
 BYTE   W12
 BYTE   N04
 BYTE   W24
 BYTE   N04
 BYTE   W02
 BYTE   An1
 BYTE   W02
 BYTE   As1
 BYTE   W02
 BYTE   An1
 BYTE   W02
 BYTE   As1
 BYTE   W02
 BYTE   An1
 BYTE   W48
 BYTE   W02
 BYTE   PEND 
// 004   ----------------------------------------
Label_FE5Field10_0121BDF2:
 BYTE   W96
// 005   ----------------------------------------
 BYTE   W96
// 006   ----------------------------------------
 BYTE   W96
// 007   ----------------------------------------
 BYTE   W96
// 008   ----------------------------------------
 BYTE   W96
// 009   ----------------------------------------
 BYTE   W96
// 010   ----------------------------------------
 BYTE   W96
// 011   ----------------------------------------
Label_FE5Field10_0121BDF9:
 BYTE   W48
 BYTE   N04  As1  v127
 BYTE   W12
 BYTE   N04
 BYTE   W24
 BYTE   N03
 BYTE   W06
 BYTE   Fn1
 BYTE   W06
 BYTE   PEND 
 BYTE   PATT
  POIN2 Label_FE5Field10_0121BD99
 BYTE   PATT
  POIN2 Label_FE5Field10_0121BD99
 BYTE   PATT
  POIN2 Label_FE5Field10_0121BD99
 BYTE   PATT
  POIN2 Label_FE5Field10_0121BDB4
 BYTE   PATT
  POIN2 Label_FE5Field10_0121BD99
// 012   ----------------------------------------
 BYTE   N04  As1  v127
 BYTE   W12
 BYTE   N04
 BYTE   W24
 BYTE   N04
 BYTE   W12
 BYTE   Gn1
 BYTE   W12
 BYTE   N04
 BYTE   W24
 BYTE   N03
 BYTE   W06
 BYTE   Dn1
 BYTE   W06
// 013   ----------------------------------------
Label_FE5Field10_0121BE2E:
 BYTE   N04  Gn1  v127
 BYTE   W12
 BYTE   N04
 BYTE   W24
 BYTE   N04
 BYTE   W12
 BYTE   N04
 BYTE   W12
 BYTE   N04
 BYTE   W24
 BYTE   N03
 BYTE   W06
 BYTE   Dn1
 BYTE   W06
 BYTE   PEND 
// 014   ----------------------------------------
 BYTE   N04  Gn1
 BYTE   W12
 BYTE   N04
 BYTE   W24
 BYTE   N04
 BYTE   W02
 BYTE   Fs1
 BYTE   W02
 BYTE   Gn1
 BYTE   W02
 BYTE   Fs1
 BYTE   W02
 BYTE   Gn1
 BYTE   W02
 BYTE   Fs1
 BYTE   W02
 BYTE   Gn1
 BYTE   W12
 BYTE   N04
 BYTE   W24
 BYTE   N03
 BYTE   W06
 BYTE   Dn1
 BYTE   W06
 BYTE   PATT
  POIN2 Label_FE5Field10_0121BE2E
// 015   ----------------------------------------
 BYTE   N04  Gn1  v127
 BYTE   W12
 BYTE   N04
 BYTE   W24
 BYTE   N04
 BYTE   W60
// 016   ----------------------------------------
 BYTE   W96
// 017   ----------------------------------------
 BYTE   W96
// 018   ----------------------------------------
 BYTE   W96
// 019   ----------------------------------------
 BYTE   W96
// 020   ----------------------------------------
 BYTE   W96
 BYTE   PATT
  POIN2 Label_FE5Field10_0121BDF9
 BYTE   PATT
  POIN2 Label_FE5Field10_0121BD99
 BYTE   PATT
  POIN2 Label_FE5Field10_0121BD99
 BYTE   PATT
  POIN2 Label_FE5Field10_0121BD99
 BYTE   PATT
  POIN2 Label_FE5Field10_0121BDB4
 BYTE   PATT
  POIN2 Label_FE5Field10_0121BD99
 BYTE   PATT
  POIN2 Label_FE5Field10_0121BD99
 BYTE   PATT
  POIN2 Label_FE5Field10_0121BD99
 BYTE   PATT
  POIN2 Label_FE5Field10_0121BDDE
// 021   ----------------------------------------
 BYTE   GoTo
  POIN2 Label_FE5Field10_0121BDF2
 BYTE   FINE

//**************** Track 12 (Midi-Chn.11) ****************//

FE5Field_012:
// 000   ----------------------------------------
 BYTE   KEYSH   FE5Field_key+0
 BYTE   VOICE   13
 BYTE   VOL   31*FE5Field_mvl/mxv
 BYTE   W96
// 001   ----------------------------------------
 BYTE   W96
// 002   ----------------------------------------
 BYTE   W96
// 003   ----------------------------------------
 BYTE   W96
// 004   ----------------------------------------
 BYTE   W96
// 005   ----------------------------------------
 BYTE   W96
// 006   ----------------------------------------
 BYTE   W96
// 007   ----------------------------------------
 BYTE   W96
// 008   ----------------------------------------
 BYTE   W96
// 009   ----------------------------------------
Label_FE5Field11_0121BEAF:
 BYTE   W96
// 010   ----------------------------------------
 BYTE   W96
// 011   ----------------------------------------
 BYTE   W96
// 012   ----------------------------------------
 BYTE   W96
// 013   ----------------------------------------
 BYTE   W96
// 014   ----------------------------------------
 BYTE   W96
// 015   ----------------------------------------
 BYTE   W48
 BYTE   N03  Fn3  v127
 BYTE   W06
 BYTE   Fn2
 BYTE   W06
 BYTE   Cn3
 BYTE   W06
 BYTE   Fn3
 BYTE   W06
 BYTE   Fn2
 BYTE   W06
 BYTE   N03
 BYTE   W06
 BYTE   Cn3
 BYTE   W06
 BYTE   Fn3
 BYTE   W06
// 016   ----------------------------------------
 BYTE   N03
 BYTE   W06
 BYTE   N03
 BYTE   W06
 BYTE   Cn4
 BYTE   W06
 BYTE   Fn4
 BYTE   W06
 BYTE   N03
 BYTE   W06
 BYTE   N03
 BYTE   W06
 BYTE   Cn5
 BYTE   W06
 BYTE   N04  Fn5
 BYTE   W54
// 017   ----------------------------------------
 BYTE   W96
// 018   ----------------------------------------
 BYTE   W96
// 019   ----------------------------------------
 BYTE   W96
// 020   ----------------------------------------
 BYTE   W96
// 021   ----------------------------------------
 BYTE   W96
// 022   ----------------------------------------
 BYTE   W96
// 023   ----------------------------------------
 BYTE   W96
// 024   ----------------------------------------
 BYTE   W96
// 025   ----------------------------------------
 BYTE   W96
// 026   ----------------------------------------
 BYTE   W96
// 027   ----------------------------------------
 BYTE   W96
// 028   ----------------------------------------
 BYTE   W96
// 029   ----------------------------------------
 BYTE   W96
// 030   ----------------------------------------
 BYTE   W96
// 031   ----------------------------------------
 BYTE   W96
// 032   ----------------------------------------
 BYTE   W96
// 033   ----------------------------------------
 BYTE   W96
// 034   ----------------------------------------
 BYTE   W96
// 035   ----------------------------------------
 BYTE   W96
// 036   ----------------------------------------
 BYTE   W96
// 037   ----------------------------------------
 BYTE   W96
// 038   ----------------------------------------
 BYTE   W96
// 039   ----------------------------------------
 BYTE   W96
// 040   ----------------------------------------
 BYTE   W96
// 041   ----------------------------------------
 BYTE   GoTo
  POIN2 Label_FE5Field11_0121BEAF
 BYTE   FINE

//******************************************************//
	ALIGN 4

songFE5Field:
	BYTE	12	// NumTrks
	BYTE	0	// NumBlks
	BYTE	FE5Field_pri	// Priority
	BYTE	FE5Field_rev	// Reverb.
    
	POIN2	FE5Field_grp
    
	POIN2	FE5Field_001
	POIN2	FE5Field_002
	POIN2	FE5Field_003
	POIN2	FE5Field_004
	POIN2	FE5Field_005
	POIN2	FE5Field_006
	POIN2	FE5Field_007
	POIN2	FE5Field_008
	POIN2	FE5Field_009
	POIN2	FE5Field_010
	POIN2	FE5Field_011
	POIN2	FE5Field_012

	
