//Event file generated from Sappy .s format.
	#include "MPlayDef.event"

	#define	FE5MapA_grp  voicegroup000
	#define	FE5MapA_pri  10
	#define	FE5MapA_rev  128
	#define	FE5MapA_mvl  150
	#define	FE5MapA_key  0
	#define	FE5MapA_tbs  1
	#define	FE5MapA_exg  0
	#define	FE5MapA_cmp  1

	// .rodata
	//	FE5MapA
	ALIGN 4


//**************** Track 1 (Midi-Chn.0) ****************//

FE5MapA_001:
// 000   ----------------------------------------
 BYTE   KEYSH   FE5MapA_key+0
 BYTE   TEMPO   50*FE5MapA_tbs/2
 BYTE   VOICE   57
 BYTE   VOL   60*FE5MapA_mvl/mxv
 BYTE   W06
Label_FE5MapA0_0131E239:
 BYTE   VOICE   57
 BYTE   VOL   60*FE5MapA_mvl/mxv
 BYTE   W90
// 001   ----------------------------------------
 BYTE   W96
// 002   ----------------------------------------
 BYTE   W96
// 003   ----------------------------------------
 BYTE   W96
// 004   ----------------------------------------
 BYTE   W90
 BYTE   W01
 BYTE   Cn0  v037
 BYTE   PAN   c_v+25
 BYTE   Fs0
 BYTE   VOL   24*FE5MapA_mvl/mxv
 BYTE   W01
 BYTE   Cs0
 BYTE   W01
 BYTE   Dn0
 BYTE   W01
 BYTE   Ds0
 BYTE   N32  Fs3  v092
 BYTE   W01
 BYTE   VOL   29*FE5MapA_mvl/mxv
 BYTE   W01
// 005   ----------------------------------------
 BYTE   Fs0
 BYTE   W01
 BYTE   Gn0
 BYTE   W01
 BYTE   Gs0
 BYTE   W01
 BYTE   An0
 BYTE   W01
 BYTE   As0
 BYTE   W01
 BYTE   Bn0
 BYTE   W01
 BYTE   Cn1
 BYTE   W01
 BYTE   Cs1
 BYTE   W24
 BYTE   W03
 BYTE   N21  Cs3
 BYTE   W24
 BYTE   N08  Ds3
 BYTE   W12
 BYTE   N32  Fn3
 BYTE   W24
 BYTE   W02
// 006   ----------------------------------------
 BYTE   W10
 BYTE   Cn3
 BYTE   W36
 BYTE   Ds3
 BYTE   W36
 BYTE   N16  As2
 BYTE   W14
// 007   ----------------------------------------
 BYTE   W10
 BYTE   N07  Cn3
 BYTE   W12
 BYTE   N32  Cs3
 BYTE   W36
 BYTE   N21
 BYTE   W24
 BYTE   N06
 BYTE   W12
 BYTE   VOL   24*FE5MapA_mvl/mxv
 BYTE   N56
 BYTE   W01
 BYTE   VOL   25*FE5MapA_mvl/mxv
 BYTE   W01
// 008   ----------------------------------------
 BYTE   Dn0
 BYTE   W01
 BYTE   Ds0
 BYTE   W01
 BYTE   Fn0
 BYTE   W01
 BYTE   Fs0
 BYTE   W01
 BYTE   Gn0
 BYTE   W01
 BYTE   Gs0
 BYTE   W01
 BYTE   An0
 BYTE   W01
 BYTE   As0
 BYTE   W01
 BYTE   Bn0
 BYTE   W01
 BYTE   Cn1
 BYTE   W01
 BYTE   Cs1
 BYTE   W48
 BYTE   N10  Ds3
 BYTE   W12
 BYTE   N68  Fn3
 BYTE   W24
 BYTE   W02
// 009   ----------------------------------------
 BYTE   W40
 BYTE   W03
 BYTE   GoTo
  POIN2 Label_FE5MapA0_0131E239
 BYTE   FINE

//**************** Track 2 (Midi-Chn.1) ****************//

FE5MapA_002:
// 000   ----------------------------------------
 BYTE   KEYSH   FE5MapA_key+0
 BYTE   VOICE   57
 BYTE   VOL   60*FE5MapA_mvl/mxv
 BYTE   W06
Label_FE5MapA1_0131E2BB:
 BYTE   VOICE   57
 BYTE   VOL   60*FE5MapA_mvl/mxv
 BYTE   Gn2
 BYTE   PAN   c_v-14
 BYTE   W36
 BYTE   N28  Ds2  v084
 BYTE   W36
 BYTE   N23  Ds2  v092
 BYTE   W18
// 001   ----------------------------------------
 BYTE   W15
 BYTE   N01  Ds2  v084
 BYTE   W03
 BYTE   N52
 BYTE   W72
 BYTE   N28  Ds2  v080
 BYTE   W06
// 002   ----------------------------------------
 BYTE   W30
 BYTE   N23  Ds2  v088
 BYTE   W32
 BYTE   W01
 BYTE   N01  Ds2  v084
 BYTE   W03
 BYTE   N44
 BYTE   W30
// 003   ----------------------------------------
 BYTE   W30
 BYTE   N05  Ds2  v088
 BYTE   W12
 BYTE   N64  Fs2  v096
 BYTE   W54
// 004   ----------------------------------------
 BYTE   W15
 BYTE   N01  Fs2  v084
 BYTE   W03
 BYTE   N64  Fn2  v096
 BYTE   W72
 BYTE   W01
 BYTE   VOL   19*FE5MapA_mvl/mxv
 BYTE   Cs1
 BYTE   PAN   c_v+25
 BYTE   VOL   20*FE5MapA_mvl/mxv
 BYTE   N32  Fs4
 BYTE   W01
 BYTE   VOL   22*FE5MapA_mvl/mxv
 BYTE   W01
 BYTE   Cn0
 BYTE   W01
 BYTE   Cs0
 BYTE   W01
 BYTE   Ds0
 BYTE   W01
// 005   ----------------------------------------
 BYTE   Fn0
 BYTE   W01
 BYTE   Gn0
 BYTE   W01
 BYTE   An0
 BYTE   W01
 BYTE   Bn0
 BYTE   W01
 BYTE   Cn1
 BYTE   W01
 BYTE   Dn1
 BYTE   W01
 BYTE   En1
 BYTE   W01
 BYTE   Fs1
 BYTE   W24
 BYTE   N21  Cs4  v092
 BYTE   W24
 BYTE   N08  Ds4
 BYTE   W12
 BYTE   N32  Fn4
 BYTE   W28
 BYTE   W01
// 006   ----------------------------------------
 BYTE   W07
 BYTE   Cn4
 BYTE   W36
 BYTE   VOL   29*FE5MapA_mvl/mxv
 BYTE   N32  Ds4
 BYTE   W01
 BYTE   VOL   30*FE5MapA_mvl/mxv
 BYTE   W01
 BYTE   Gn0
 BYTE   W01
 BYTE   Gs0
 BYTE   W01
 BYTE   An0
 BYTE   W01
 BYTE   As0
 BYTE   W01
 BYTE   As0
 BYTE   W01
 BYTE   Bn0
 BYTE   W01
 BYTE   Cn1
 BYTE   W01
 BYTE   Cs1
 BYTE   W01
 BYTE   Dn1
 BYTE   W01
 BYTE   Ds1
 BYTE   W01
 BYTE   En1
 BYTE   W01
 BYTE   Fn1
 BYTE   W01
 BYTE   Fs1
 BYTE   W22
 BYTE   N16  As3
 BYTE   W17
// 007   ----------------------------------------
 BYTE   W07
 BYTE   N07  Cn4
 BYTE   W12
 BYTE   N32  Cs4
 BYTE   W36
 BYTE   N21
 BYTE   W24
 BYTE   N06
 BYTE   W12
 BYTE   VOL   29*FE5MapA_mvl/mxv
 BYTE   N56
 BYTE   W01
 BYTE   VOL   30*FE5MapA_mvl/mxv
 BYTE   W01
 BYTE   Gn0
 BYTE   W01
 BYTE   Gs0
 BYTE   W01
 BYTE   As0
 BYTE   W01
// 008   ----------------------------------------
 BYTE   As0
 BYTE   W01
 BYTE   Bn0
 BYTE   W01
 BYTE   Cn1
 BYTE   W01
 BYTE   Dn1
 BYTE   W01
 BYTE   Ds1
 BYTE   W01
 BYTE   En1
 BYTE   W01
 BYTE   Fn1
 BYTE   W01
 BYTE   Fs1
 BYTE   W48
 BYTE   N10  Ds4
 BYTE   W12
 BYTE   N68  Fn4
 BYTE   W28
 BYTE   W01
// 009   ----------------------------------------
 BYTE   W40
 BYTE   W03
 BYTE   GoTo
  POIN2 Label_FE5MapA1_0131E2BB
 BYTE   FINE

//**************** Track 3 (Midi-Chn.2) ****************//

FE5MapA_003:
// 000   ----------------------------------------
 BYTE   KEYSH   FE5MapA_key+0
 BYTE   VOICE   48
 BYTE   VOL   60*FE5MapA_mvl/mxv
 BYTE   W06
Label_FE5MapA2_0131E38B:
 BYTE   VOICE   48
 BYTE   VOL   60*FE5MapA_mvl/mxv
 BYTE   Gn2
 BYTE   PAN   c_v+0
 BYTE   W36
 BYTE   N28  Fs2  v080
 BYTE   W36
 BYTE   N23  Fs2  v092
 BYTE   W18
// 001   ----------------------------------------
 BYTE   W15
 BYTE   N01  Fs2  v080
 BYTE   W03
 BYTE   N52  Fn2
 BYTE   W72
 BYTE   N28  Fs2  v084
 BYTE   W06
// 002   ----------------------------------------
 BYTE   W30
 BYTE   N23  Fs2  v096
 BYTE   W32
 BYTE   W01
 BYTE   N01  Fs2  v088
 BYTE   W03
 BYTE   N44  Fn2
 BYTE   W30
// 003   ----------------------------------------
 BYTE   W30
 BYTE   N05
 BYTE   W12
 BYTE   N64  As2  v096
 BYTE   W54
// 004   ----------------------------------------
 BYTE   W15
 BYTE   N01  As2  v084
 BYTE   W03
 BYTE   N64
 BYTE   W72
 BYTE   W01
 BYTE   VOL   36*FE5MapA_mvl/mxv
 BYTE   Gn2
 BYTE   PAN   c_v-14
 BYTE   VOL   36*FE5MapA_mvl/mxv
 BYTE   N28  As2  v076
 BYTE   W01
 BYTE   VOL   38*FE5MapA_mvl/mxv
 BYTE   W01
 BYTE   En1
 BYTE   W01
 BYTE   Fn1
 BYTE   W01
 BYTE   Fs1
 BYTE   W01
// 005   ----------------------------------------
 BYTE   Gs1
 BYTE   W01
 BYTE   As1
 BYTE   W01
 BYTE   Bn1
 BYTE   W01
 BYTE   Cs2
 BYTE   W01
 BYTE   Dn2
 BYTE   W01
 BYTE   En2
 BYTE   W01
 BYTE   Fn2
 BYTE   W01
 BYTE   Gn2
 BYTE   W24
 BYTE   N32  Fs2  v084
 BYTE   W36
 BYTE   Gs2  v092
 BYTE   W28
 BYTE   W01
// 006   ----------------------------------------
 BYTE   W07
 BYTE   Fn2  v064
 BYTE   W36
 BYTE   Fs2  v076
 BYTE   W36
 BYTE   Ds2
 BYTE   W17
// 007   ----------------------------------------
 BYTE   W19
 BYTE   Fn2  v092
 BYTE   W36
 BYTE   N20  Fn2  v072
 BYTE   W24
 BYTE   N08  Fn2  v076
 BYTE   W12
 BYTE   VOL   28*FE5MapA_mvl/mxv
 BYTE   N68  Fs2  v092
 BYTE   W01
 BYTE   VOL   31*FE5MapA_mvl/mxv
 BYTE   W01
 BYTE   An0
 BYTE   W01
 BYTE   Bn0
 BYTE   W01
 BYTE   Cs1
 BYTE   W01
// 008   ----------------------------------------
 BYTE   Ds1
 BYTE   W01
 BYTE   Fs1
 BYTE   W01
 BYTE   Gn1
 BYTE   W01
 BYTE   An1
 BYTE   W01
 BYTE   Cn2
 BYTE   W01
 BYTE   Dn2
 BYTE   W01
 BYTE   Ds2
 BYTE   W01
 BYTE   Fs2
 BYTE   W01
 BYTE   Gn2
 BYTE   W56
 BYTE   W03
 BYTE   N68  Gs2  v084
 BYTE   W28
 BYTE   W01
// 009   ----------------------------------------
 BYTE   W40
 BYTE   W03
 BYTE   GoTo
  POIN2 Label_FE5MapA2_0131E38B
 BYTE   FINE

//**************** Track 4 (Midi-Chn.3) ****************//

FE5MapA_004:
// 000   ----------------------------------------
 BYTE   KEYSH   FE5MapA_key+0
 BYTE   VOICE   48
 BYTE   VOL   60*FE5MapA_mvl/mxv
 BYTE   W06
Label_FE5MapA3_0131E43B:
 BYTE   VOICE   48
 BYTE   VOL   60*FE5MapA_mvl/mxv
 BYTE   W30
 BYTE   Gs2
 BYTE   PAN   c_v+14
 BYTE   N01  Ds2  v064
 BYTE   W02
 BYTE   Fn2  v088
 BYTE   W01
 BYTE   Fs2  v084
 BYTE   W02
 BYTE   Gs2
 BYTE   W01
 BYTE   N28  As2  v072
 BYTE   W36
 BYTE   N23  As2  v080
 BYTE   W18
// 001   ----------------------------------------
 BYTE   W15
 BYTE   N01  As2  v084
 BYTE   W03
 BYTE   N52  An2  v096
 BYTE   W66
 BYTE   N01  Ds2  v084
 BYTE   W02
 BYTE   Fn2
 BYTE   W01
 BYTE   Fs2
 BYTE   W02
 BYTE   Gs2  v088
 BYTE   W01
 BYTE   N28  As2  v076
 BYTE   W06
// 002   ----------------------------------------
 BYTE   W30
 BYTE   N23  As2  v080
 BYTE   W32
 BYTE   W01
 BYTE   N01
 BYTE   W03
 BYTE   N44  Cn3  v092
 BYTE   W30
// 003   ----------------------------------------
 BYTE   W30
 BYTE   N05  Cn3  v088
 BYTE   W12
 BYTE   N64  Cs3  v096
 BYTE   W54
// 004   ----------------------------------------
 BYTE   W15
 BYTE   N01  Cs3  v084
 BYTE   W03
 BYTE   N64  Cn3
 BYTE   W72
 BYTE   W01
 BYTE   VOL   36*FE5MapA_mvl/mxv
 BYTE   Gn2
 BYTE   PAN   c_v+0
 BYTE   VOL   36*FE5MapA_mvl/mxv
 BYTE   N28  Cs3  v092
 BYTE   W01
 BYTE   VOL   38*FE5MapA_mvl/mxv
 BYTE   W01
 BYTE   En1
 BYTE   W01
 BYTE   Fn1
 BYTE   W01
 BYTE   Gn1
 BYTE   W01
// 005   ----------------------------------------
 BYTE   Gs1
 BYTE   W01
 BYTE   As1
 BYTE   W01
 BYTE   Bn1
 BYTE   W01
 BYTE   Cs2
 BYTE   W01
 BYTE   Ds2
 BYTE   W01
 BYTE   En2
 BYTE   W01
 BYTE   Fs2
 BYTE   W01
 BYTE   Gn2
 BYTE   W24
 BYTE   N32  As2  v076
 BYTE   W36
 BYTE   Cn3
 BYTE   W28
 BYTE   W01
// 006   ----------------------------------------
 BYTE   W07
 BYTE   Gs2  v092
 BYTE   W36
 BYTE   As2
 BYTE   W36
 BYTE   N20  Fs2  v076
 BYTE   W17
// 007   ----------------------------------------
 BYTE   W07
 BYTE   N08  Gs2  v084
 BYTE   W12
 BYTE   N32  As2  v076
 BYTE   W36
 BYTE   N20  Gs2  v084
 BYTE   W24
 BYTE   N08
 BYTE   W12
 BYTE   VOL   30*FE5MapA_mvl/mxv
 BYTE   N68  As2  v092
 BYTE   W01
 BYTE   VOL   32*FE5MapA_mvl/mxv
 BYTE   W01
 BYTE   As0
 BYTE   W01
 BYTE   Cn1
 BYTE   W01
 BYTE   Dn1
 BYTE   W01
// 008   ----------------------------------------
 BYTE   Fn1
 BYTE   W01
 BYTE   Fs1
 BYTE   W01
 BYTE   An1
 BYTE   W01
 BYTE   Bn1
 BYTE   W01
 BYTE   Cs2
 BYTE   W01
 BYTE   Ds2
 BYTE   W01
 BYTE   Fn2
 BYTE   W01
 BYTE   Gn2
 BYTE   W60
 BYTE   N32  Ds3  v064
 BYTE   W28
 BYTE   W01
// 009   ----------------------------------------
 BYTE   W07
 BYTE   Cn3  v084
 BYTE   W32
 BYTE   W01
 BYTE   W03
 BYTE   GoTo
  POIN2 Label_FE5MapA3_0131E43B
 BYTE   FINE

//**************** Track 5 (Midi-Chn.4) ****************//

FE5MapA_005:
// 000   ----------------------------------------
 BYTE   KEYSH   FE5MapA_key+0
 BYTE   VOICE   48
 BYTE   VOL   60*FE5MapA_mvl/mxv
 BYTE   W06
Label_FE5MapA4_0131E50B:
 BYTE   VOICE   48
 BYTE   VOL   60*FE5MapA_mvl/mxv
 BYTE   W30
 BYTE   Fs2
 BYTE   PAN   c_v+0
 BYTE   N01  Ds2  v076
 BYTE   W02
 BYTE   Fn2
 BYTE   W01
 BYTE   Fs2
 BYTE   W02
 BYTE   Gs2
 BYTE   W01
 BYTE   N28  As2
 BYTE   W36
 BYTE   N24
 BYTE   W18
// 001   ----------------------------------------
 BYTE   W15
 BYTE   N01
 BYTE   W03
 BYTE   N11  An2
 BYTE   W06
 BYTE   VOICE   57
 BYTE   W06
 BYTE   VOL   56*FE5MapA_mvl/mxv
 BYTE   PAN   c_v-34
 BYTE   N06  Cn3  v092
 BYTE   W12
 BYTE   Fn3
 BYTE   W12
 BYTE   N24  Cn4
 BYTE   W30
 BYTE   VOL   54*FE5MapA_mvl/mxv
 BYTE   PAN   c_v+0
 BYTE   N01  Ds2  v076
 BYTE   W02
 BYTE   Fn2
 BYTE   W01
 BYTE   Gs2
 BYTE   W02
 BYTE   Fs2
 BYTE   W01
 BYTE   N30  As2
 BYTE   W06
// 002   ----------------------------------------
 BYTE   W30
 BYTE   N24
 BYTE   W32
 BYTE   W01
 BYTE   N01
 BYTE   W03
 BYTE   N23  Cn3
 BYTE   W24
 BYTE   VOL   56*FE5MapA_mvl/mxv
 BYTE   PAN   c_v-34
 BYTE   N11  Fn3  v092
 BYTE   W06
// 003   ----------------------------------------
 BYTE   W06
 BYTE   N19  Cn4
 BYTE   W24
 BYTE   VOL   54*FE5MapA_mvl/mxv
 BYTE   PAN   c_v+0
 BYTE   N05  Cn3  v076
 BYTE   W12
 BYTE   N66  Cs3
 BYTE   W54
// 004   ----------------------------------------
 BYTE   W15
 BYTE   N01
 BYTE   W03
 BYTE   N66  Cn3
 BYTE   W72
 BYTE   W01
 BYTE   VOL   36*FE5MapA_mvl/mxv
 BYTE   Gs2
 BYTE   PAN   c_v+14
 BYTE   VOL   36*FE5MapA_mvl/mxv
 BYTE   N28  Fs3  v084
 BYTE   W01
 BYTE   VOL   38*FE5MapA_mvl/mxv
 BYTE   W01
 BYTE   En1
 BYTE   W01
 BYTE   Fs1
 BYTE   W01
 BYTE   Gn1
 BYTE   W01
// 005   ----------------------------------------
 BYTE   An1
 BYTE   W01
 BYTE   As1
 BYTE   W01
 BYTE   Cn2
 BYTE   W01
 BYTE   Dn2
 BYTE   W01
 BYTE   Ds2
 BYTE   W01
 BYTE   Fn2
 BYTE   W01
 BYTE   Gn2
 BYTE   W01
 BYTE   Gs2
 BYTE   W24
 BYTE   N21  Cs3  v092
 BYTE   W24
 BYTE   N08  Ds3  v076
 BYTE   W12
 BYTE   N32  Fn3  v092
 BYTE   W28
 BYTE   W01
// 006   ----------------------------------------
 BYTE   W07
 BYTE   Cn3  v076
 BYTE   W36
 BYTE   Ds3  v084
 BYTE   W36
 BYTE   N20  As2  v092
 BYTE   W17
// 007   ----------------------------------------
 BYTE   W07
 BYTE   N08  Cn3  v076
 BYTE   W12
 BYTE   N32  Cs3  v072
 BYTE   W36
 BYTE   N20  Cs3  v092
 BYTE   W24
 BYTE   N08  Cs3  v084
 BYTE   W12
 BYTE   VOL   36*FE5MapA_mvl/mxv
 BYTE   N56
 BYTE   W01
 BYTE   VOL   38*FE5MapA_mvl/mxv
 BYTE   W01
 BYTE   En1
 BYTE   W01
 BYTE   Fs1
 BYTE   W01
 BYTE   Gn1
 BYTE   W01
// 008   ----------------------------------------
 BYTE   An1
 BYTE   W01
 BYTE   As1
 BYTE   W01
 BYTE   Cn2
 BYTE   W01
 BYTE   Dn2
 BYTE   W01
 BYTE   Ds2
 BYTE   W01
 BYTE   Fn2
 BYTE   W01
 BYTE   Gn2
 BYTE   W01
 BYTE   Gs2
 BYTE   W48
 BYTE   N08  Ds3  v092
 BYTE   W12
 BYTE   N68  Fn3  v096
 BYTE   W28
 BYTE   W01
// 009   ----------------------------------------
 BYTE   W40
 BYTE   W03
 BYTE   GoTo
  POIN2 Label_FE5MapA4_0131E50B
 BYTE   FINE

//**************** Track 6 (Midi-Chn.5) ****************//

FE5MapA_006:
// 000   ----------------------------------------
 BYTE   KEYSH   FE5MapA_key+0
 BYTE   VOICE   48
 BYTE   VOL   60*FE5MapA_mvl/mxv
 BYTE   W06
Label_FE5MapA5_0131E5F3:
 BYTE   VOICE   48
 BYTE   VOL   60*FE5MapA_mvl/mxv
 BYTE   W30
 BYTE   W02
 BYTE   Cs1
 BYTE   PAN   c_v+25
 BYTE   N01  Ds2  v076
 BYTE   W02
 BYTE   Fn2
 BYTE   W01
 BYTE   Fs2
 BYTE   W02
 BYTE   Gs2
 BYTE   W01
 BYTE   N28  As2
 BYTE   W36
 BYTE   N24
 BYTE   W16
// 001   ----------------------------------------
 BYTE   W17
 BYTE   N01
 BYTE   W03
 BYTE   N11  An2
 BYTE   W12
 BYTE   VOL   35*FE5MapA_mvl/mxv
 BYTE   PAN   c_v+34
 BYTE   N06  Cn3  v092
 BYTE   W12
 BYTE   Fn3
 BYTE   W12
 BYTE   N24  Cn4
 BYTE   W30
 BYTE   VOL   37*FE5MapA_mvl/mxv
 BYTE   PAN   c_v+25
 BYTE   N01  Ds2  v076
 BYTE   W02
 BYTE   Fn2
 BYTE   W01
 BYTE   Gs2
 BYTE   W02
 BYTE   Fs2
 BYTE   W01
 BYTE   N30  As2
 BYTE   W04
// 002   ----------------------------------------
 BYTE   W32
 BYTE   N24
 BYTE   W32
 BYTE   W01
 BYTE   N01
 BYTE   W03
 BYTE   N23  Cn3
 BYTE   W24
 BYTE   VOL   35*FE5MapA_mvl/mxv
 BYTE   PAN   c_v+34
 BYTE   N11  Fn3  v092
 BYTE   W04
// 003   ----------------------------------------
 BYTE   W08
 BYTE   N19  Cn4
 BYTE   W24
 BYTE   VOL   37*FE5MapA_mvl/mxv
 BYTE   PAN   c_v+25
 BYTE   N05  Cn3  v076
 BYTE   W12
 BYTE   N66  Cs3
 BYTE   W52
// 004   ----------------------------------------
 BYTE   W17
 BYTE   N01
 BYTE   W03
 BYTE   N64  Cn3
 BYTE   W64
 BYTE   VOICE   47
 BYTE   W07
 BYTE   VOL   49*FE5MapA_mvl/mxv
 BYTE   PAN   c_v+0
 BYTE   N05  Gn2  v124
 BYTE   W05
// 005   ----------------------------------------
Label_FE5MapA5_0131E660:
 BYTE   W01
 BYTE   N05  Fn2  v064
 BYTE   W06
 BYTE   Gn2  v092
 BYTE   W06
 BYTE   Fn2  v064
 BYTE   W06
 BYTE   Gn2  v084
 BYTE   W06
 BYTE   Fn2  v072
 BYTE   W06
 BYTE   Gn2  v124
 BYTE   W06
 BYTE   Fn2  v072
 BYTE   W06
 BYTE   Gn2
 BYTE   W06
 BYTE   Fn2  v064
 BYTE   W06
 BYTE   Gn2  v076
 BYTE   W06
 BYTE   N02  Gn2  v124
 BYTE   W03
 BYTE   Fn2  v108
 BYTE   W03
 BYTE   N05  Gn2  v124
 BYTE   W06
 BYTE   Fn2  v064
 BYTE   W06
 BYTE   Gn2  v092
 BYTE   W06
 BYTE   Fn2  v064
 BYTE   W06
 BYTE   Gn2  v084
 BYTE   W05
 BYTE   PEND 
// 006   ----------------------------------------
 BYTE   W01
 BYTE   Fn2  v072
 BYTE   W06
 BYTE   Gn2  v124
 BYTE   W06
 BYTE   Fn2  v072
 BYTE   W06
 BYTE   Gn2
 BYTE   W06
 BYTE   Fn2  v064
 BYTE   W06
 BYTE   Gn2  v076
 BYTE   W06
 BYTE   N02  Gn2  v124
 BYTE   W03
 BYTE   Fn2  v108
 BYTE   W03
 BYTE   N05  Gn2  v124
 BYTE   W06
 BYTE   Fn2  v064
 BYTE   W06
 BYTE   Gn2  v092
 BYTE   W06
 BYTE   Fn2  v064
 BYTE   W06
 BYTE   Gn2  v084
 BYTE   W06
 BYTE   Fn2  v072
 BYTE   W06
 BYTE   Gn2  v124
 BYTE   W06
 BYTE   Fn2  v072
 BYTE   W06
 BYTE   Gn2
 BYTE   W05
// 007   ----------------------------------------
 BYTE   W01
 BYTE   Fn2  v064
 BYTE   W06
 BYTE   Gn2  v076
 BYTE   W06
 BYTE   N02  Gn2  v124
 BYTE   W03
 BYTE   Fn2  v108
 BYTE   W03
 BYTE   N05  Gn2  v124
 BYTE   W06
 BYTE   Fn2  v064
 BYTE   W06
 BYTE   Gn2  v092
 BYTE   W06
 BYTE   Fn2  v064
 BYTE   W06
 BYTE   Gn2  v084
 BYTE   W06
 BYTE   Fn2  v072
 BYTE   W06
 BYTE   Gn2  v124
 BYTE   W06
 BYTE   Fn2  v072
 BYTE   W06
 BYTE   Gn2
 BYTE   W06
 BYTE   Fn2  v064
 BYTE   W06
 BYTE   Gn2  v076
 BYTE   W06
 BYTE   N02  Gn2  v124
 BYTE   W03
 BYTE   Fn2  v108
 BYTE   W03
 BYTE   N05  Gn2  v124
 BYTE   W05
 BYTE   PATT
  POIN2 Label_FE5MapA5_0131E660
// 008   ----------------------------------------
 BYTE   W01
 BYTE   N05  Fn2  v072
 BYTE   W06
 BYTE   Gn2  v124
 BYTE   W06
 BYTE   Fn2  v072
 BYTE   W06
 BYTE   Gn2
 BYTE   W06
 BYTE   Fn2  v064
 BYTE   W06
 BYTE   Gn2  v076
 BYTE   W06
 BYTE   N02  Gn2  v124
 BYTE   W03
 BYTE   Fn2  v108
 BYTE   W03
 BYTE   GoTo
  POIN2 Label_FE5MapA5_0131E5F3
 BYTE   FINE

//**************** Track 7 (Midi-Chn.6) ****************//

FE5MapA_007:
// 000   ----------------------------------------
 BYTE   KEYSH   FE5MapA_key+0
 BYTE   VOICE   32
 BYTE   VOL   60*FE5MapA_mvl/mxv
 BYTE   W06
Label_FE5MapA6_0131E733:
 BYTE   VOICE   32
 BYTE   VOL   60*FE5MapA_mvl/mxv
 BYTE   Fs2
 BYTE   PAN   c_v+0
 BYTE   N02  Ds1  v124
 BYTE   W06
 BYTE   Ds1  v116
 BYTE   W06
 BYTE   N02
 BYTE   W06
 BYTE   N02
 BYTE   W06
 BYTE   N02
 BYTE   W06
 BYTE   N03
 BYTE   W06
 BYTE   N02  Ds1  v124
 BYTE   W06
 BYTE   Ds1  v116
 BYTE   W06
 BYTE   N02
 BYTE   W06
 BYTE   N02
 BYTE   W06
 BYTE   N02
 BYTE   W06
 BYTE   N03
 BYTE   W06
 BYTE   N02  Ds1  v124
 BYTE   W06
 BYTE   Ds1  v116
 BYTE   W06
 BYTE   N02
 BYTE   W06
// 001   ----------------------------------------
 BYTE   N02
 BYTE   W06
 BYTE   N02
 BYTE   W06
 BYTE   N03
 BYTE   W06
 BYTE   N02  Ds1  v124
 BYTE   W06
 BYTE   Ds1  v116
 BYTE   W06
 BYTE   N02
 BYTE   W06
 BYTE   N02
 BYTE   W06
 BYTE   N02
 BYTE   W06
 BYTE   N03
 BYTE   W06
 BYTE   N02  Ds1  v124
 BYTE   W06
 BYTE   Ds1  v116
 BYTE   W06
 BYTE   N02
 BYTE   W06
 BYTE   N02
 BYTE   W06
 BYTE   N02
 BYTE   W06
 BYTE   N03
 BYTE   W06
 BYTE   N02  Ds1  v124
 BYTE   W06
// 002   ----------------------------------------
 BYTE   Ds1  v116
 BYTE   W06
 BYTE   N02
 BYTE   W06
 BYTE   N02
 BYTE   W06
 BYTE   N02
 BYTE   W06
 BYTE   N03
 BYTE   W06
 BYTE   N02  Ds1  v124
 BYTE   W06
 BYTE   Ds1  v116
 BYTE   W06
 BYTE   N02
 BYTE   W06
 BYTE   N02
 BYTE   W06
 BYTE   N02
 BYTE   W06
 BYTE   N03
 BYTE   W06
 BYTE   N02  Ds1  v124
 BYTE   W06
 BYTE   Ds1  v116
 BYTE   W06
 BYTE   N02
 BYTE   W06
 BYTE   N02
 BYTE   W06
 BYTE   N02
 BYTE   W06
// 003   ----------------------------------------
 BYTE   N03
 BYTE   W06
 BYTE   N02  Ds1  v124
 BYTE   W06
 BYTE   Ds1  v116
 BYTE   W06
 BYTE   N02
 BYTE   W06
 BYTE   N02
 BYTE   W06
 BYTE   N02
 BYTE   W06
 BYTE   N03
 BYTE   W06
 BYTE   N02  Ds1  v124
 BYTE   W06
 BYTE   Ds1  v116
 BYTE   W06
 BYTE   N02
 BYTE   W06
 BYTE   N02
 BYTE   W06
 BYTE   N02
 BYTE   W06
 BYTE   N03
 BYTE   W06
 BYTE   N02  Ds1  v124
 BYTE   W06
 BYTE   Ds1  v116
 BYTE   W06
 BYTE   N02
 BYTE   W06
// 004   ----------------------------------------
 BYTE   N02
 BYTE   W06
 BYTE   N02
 BYTE   W06
 BYTE   N03
 BYTE   W06
 BYTE   N02  Fn1  v124
 BYTE   W06
 BYTE   Fn1  v116
 BYTE   W06
 BYTE   N02
 BYTE   W06
 BYTE   N02
 BYTE   W06
 BYTE   N02
 BYTE   W06
 BYTE   N03
 BYTE   W06
 BYTE   N02  Fn1  v124
 BYTE   W06
 BYTE   Fn1  v116
 BYTE   W06
 BYTE   N02
 BYTE   W06
 BYTE   N02
 BYTE   W06
 BYTE   N02
 BYTE   W06
 BYTE   N03
 BYTE   W07
 BYTE   VOL   36*FE5MapA_mvl/mxv
 BYTE   Fs2
 BYTE   PAN   c_v+0
 BYTE   VOL   36*FE5MapA_mvl/mxv
 BYTE   N03  Cs1  v127
 BYTE   W01
 BYTE   VOL   38*FE5MapA_mvl/mxv
 BYTE   W01
 BYTE   En1
 BYTE   W01
 BYTE   Fn1
 BYTE   W01
 BYTE   Gn1
 BYTE   W01
// 005   ----------------------------------------
 BYTE   Gs1
 BYTE   W01
 BYTE   As1
 BYTE   N02  Cs1  v124
 BYTE   W01
 BYTE   VOL   48*FE5MapA_mvl/mxv
 BYTE   W01
 BYTE   Cs2
 BYTE   W01
 BYTE   Ds2
 BYTE   W01
 BYTE   En2
 BYTE   W01
 BYTE   Fs2
 BYTE   W01
 BYTE   N03
 BYTE   W06
 BYTE   N02
 BYTE   W06
 BYTE   N02
 BYTE   W06
 BYTE   N03
 BYTE   W06
 BYTE   Cs1  v127
 BYTE   W06
 BYTE   Cs1  v124
 BYTE   W06
 BYTE   N03
 BYTE   W06
 BYTE   N03
 BYTE   W06
 BYTE   N02
 BYTE   W06
 BYTE   N06
 BYTE   W06
 BYTE   N03  Cn1  v127
 BYTE   W06
 BYTE   N02  Cn1  v124
 BYTE   W06
 BYTE   N02
 BYTE   W06
 BYTE   N02
 BYTE   W06
 BYTE   N02
 BYTE   W05
// 006   ----------------------------------------
 BYTE   W01
 BYTE   N02
 BYTE   W06
 BYTE   N03  Fn1  v127
 BYTE   W06
 BYTE   N02  Fn1  v124
 BYTE   W06
 BYTE   N02
 BYTE   W06
 BYTE   N02
 BYTE   W06
 BYTE   N02
 BYTE   W06
 BYTE   N06
 BYTE   W06
 BYTE   N03  Ds1  v127
 BYTE   W06
 BYTE   Ds1  v124
 BYTE   W06
 BYTE   N02
 BYTE   W06
 BYTE   N03
 BYTE   W06
 BYTE   N03
 BYTE   W06
 BYTE   N03
 BYTE   W06
 BYTE   Ds1  v127
 BYTE   W06
 BYTE   Ds1  v124
 BYTE   W06
 BYTE   N02
 BYTE   W05
// 007   ----------------------------------------
 BYTE   W01
 BYTE   N02
 BYTE   W06
 BYTE   N02
 BYTE   W06
 BYTE   N05
 BYTE   W06
 BYTE   N03  As1  v127
 BYTE   W06
 BYTE   As1  v124
 BYTE   W06
 BYTE   N03
 BYTE   W06
 BYTE   N02
 BYTE   W06
 BYTE   N02
 BYTE   W06
 BYTE   N06
 BYTE   W06
 BYTE   N03  Gs1  v127
 BYTE   W06
 BYTE   N02  Gs1  v124
 BYTE   W06
 BYTE   N03
 BYTE   W06
 BYTE   N03
 BYTE   W06
 BYTE   N02
 BYTE   W06
 BYTE   N06
 BYTE   W06
 BYTE   VOL   36*FE5MapA_mvl/mxv
 BYTE   N03  Fs1  v127
 BYTE   W01
 BYTE   VOL   38*FE5MapA_mvl/mxv
 BYTE   W01
 BYTE   En1
 BYTE   W01
 BYTE   Fn1
 BYTE   W01
 BYTE   Gn1
 BYTE   W01
// 008   ----------------------------------------
 BYTE   Gs1
 BYTE   W01
 BYTE   As1
 BYTE   N03  Fs1  v124
 BYTE   W01
 BYTE   VOL   48*FE5MapA_mvl/mxv
 BYTE   W01
 BYTE   Cs2
 BYTE   W01
 BYTE   Ds2
 BYTE   W01
 BYTE   En2
 BYTE   W01
 BYTE   Fs2
 BYTE   W01
 BYTE   N03
 BYTE   W06
 BYTE   N03
 BYTE   W06
 BYTE   N02
 BYTE   W06
 BYTE   N02
 BYTE   W06
 BYTE   Fs1  v127
 BYTE   W06
 BYTE   Fs1  v124
 BYTE   W06
 BYTE   N02
 BYTE   W06
 BYTE   N02
 BYTE   W06
 BYTE   N02
 BYTE   W06
 BYTE   N06
 BYTE   W06
 BYTE   N03  Fn1  v127
 BYTE   W06
 BYTE   N02  Fn1  v124
 BYTE   W06
 BYTE   N03
 BYTE   W06
 BYTE   N03
 BYTE   W06
 BYTE   N03
 BYTE   W05
// 009   ----------------------------------------
 BYTE   W01
 BYTE   N03
 BYTE   W06
 BYTE   Fn1  v127
 BYTE   W06
 BYTE   Fn1  v124
 BYTE   W06
 BYTE   N02
 BYTE   W06
 BYTE   N02
 BYTE   W06
 BYTE   N02
 BYTE   W06
 BYTE   N02
 BYTE   W03
 BYTE   W03
 BYTE   GoTo
  POIN2 Label_FE5MapA6_0131E733
 BYTE   FINE

//**************** Track 8 (Midi-Chn.7) ****************//

FE5MapA_008:
// 000   ----------------------------------------
 BYTE   KEYSH   FE5MapA_key+0
 BYTE   VOICE   47
 BYTE   VOL   60*FE5MapA_mvl/mxv
 BYTE   W06
Label_FE5MapA7_0131E8FB:
 BYTE   VOICE   47
 BYTE   VOL   60*FE5MapA_mvl/mxv
 BYTE   Cs2
 BYTE   PAN   c_v+0
 BYTE   N24  Gn2  v116
 BYTE   W30
 BYTE   N05  Gn2  v068
 BYTE   W06
 BYTE   N16  Gn2  v116
 BYTE   W18
 BYTE   N05  Gn2  v068
 BYTE   W06
 BYTE   Gn2  v064
 BYTE   W06
 BYTE   Gn2  v072
 BYTE   W06
 BYTE   N16  Gn2  v120
 BYTE   W18
// 001   ----------------------------------------
 BYTE   N05  Fn2  v076
 BYTE   W06
 BYTE   Gn2  v080
 BYTE   W06
 BYTE   Fn2  v068
 BYTE   W06
 BYTE   N17  Gn2  v116
 BYTE   W18
 BYTE   N05  Fn2  v072
 BYTE   W06
 BYTE   Gn2  v096
 BYTE   W06
 BYTE   Fn2  v088
 BYTE   W06
 BYTE   N17  Gn2  v108
 BYTE   W18
 BYTE   N05  Fn2  v068
 BYTE   W06
 BYTE   Gn2  v088
 BYTE   W06
 BYTE   Fn2
 BYTE   W06
 BYTE   N11  Gn2  v116
 BYTE   W06
// 002   ----------------------------------------
 BYTE   W06
 BYTE   N05  Gn2  v076
 BYTE   W06
 BYTE   Fn2  v068
 BYTE   W06
 BYTE   Gn2  v044
 BYTE   W06
 BYTE   Fn2  v064
 BYTE   W06
 BYTE   N17  Gn2  v120
 BYTE   W18
 BYTE   N05  Fn2  v068
 BYTE   W06
 BYTE   Gn2  v088
 BYTE   W06
 BYTE   Fn2  v116
 BYTE   W06
 BYTE   N16  Gn2  v112
 BYTE   W18
 BYTE   N05  Fn2  v072
 BYTE   W06
 BYTE   Gn2  v088
 BYTE   W06
// 003   ----------------------------------------
 BYTE   Fn2  v068
 BYTE   W06
 BYTE   N24  Gn2  v116
 BYTE   W30
 BYTE   N02  Gn2  v112
 BYTE   W03
 BYTE   Fn2  v116
 BYTE   W03
 BYTE   N32  Gn2
 BYTE   W36
 BYTE   N24  Gn2  v112
 BYTE   W18
// 004   ----------------------------------------
 BYTE   W12
 BYTE   N02  Gn2  v108
 BYTE   W03
 BYTE   Fn2  v076
 BYTE   W03
 BYTE   N05  Gn2  v120
 BYTE   W06
 BYTE   Fn2  v044
 BYTE   W06
 BYTE   Gn2  v072
 BYTE   W06
 BYTE   Fn2  v092
 BYTE   W06
 BYTE   Gn2
 BYTE   W06
 BYTE   Fn2
 BYTE   W06
 BYTE   Gn2  v120
 BYTE   W06
 BYTE   Fn2  v052
 BYTE   W06
 BYTE   Gn2  v080
 BYTE   W06
 BYTE   Fn2  v092
 BYTE   W06
 BYTE   Gn2  v076
 BYTE   W06
 BYTE   N02  Gn2  v096
 BYTE   W03
 BYTE   Fn2  v104
 BYTE   W04
 BYTE   VOL   24*FE5MapA_mvl/mxv
 BYTE   Fs2
 BYTE   PAN   c_v+0
 BYTE   VOL   25*FE5MapA_mvl/mxv
 BYTE   N32  Fs3
 BYTE   W01
 BYTE   VOL   28*FE5MapA_mvl/mxv
 BYTE   W01
 BYTE   Fs0
 BYTE   W01
 BYTE   Gs0
 BYTE   W01
 BYTE   As0
 BYTE   W01
// 005   ----------------------------------------
 BYTE   VOICE   57
 BYTE   VOL   37*FE5MapA_mvl/mxv
 BYTE   W01
 BYTE   Ds1
 BYTE   W01
 BYTE   Fn1
 BYTE   W01
 BYTE   Gn1
 BYTE   W01
 BYTE   As1
 BYTE   W01
 BYTE   Cn2
 BYTE   W01
 BYTE   Dn2
 BYTE   W01
 BYTE   En2
 BYTE   W24
 BYTE   N21  Cs3  v096
 BYTE   W24
 BYTE   N08  Ds3
 BYTE   W12
 BYTE   N32  Fn3
 BYTE   W28
 BYTE   W01
// 006   ----------------------------------------
 BYTE   W07
 BYTE   Cn3
 BYTE   W36
 BYTE   VOL   41*FE5MapA_mvl/mxv
 BYTE   N32  Ds3
 BYTE   W01
 BYTE   VOL   42*FE5MapA_mvl/mxv
 BYTE   W01
 BYTE   Fs1
 BYTE   W01
 BYTE   Gn1
 BYTE   W01
 BYTE   Gs1
 BYTE   W01
 BYTE   An1
 BYTE   W01
 BYTE   As1
 BYTE   W01
 BYTE   Bn1
 BYTE   W01
 BYTE   Cn2
 BYTE   W01
 BYTE   Cs2
 BYTE   W01
 BYTE   Dn2
 BYTE   W01
 BYTE   Ds2
 BYTE   W01
 BYTE   En2
 BYTE   W01
 BYTE   Fn2
 BYTE   W01
 BYTE   Fs2
 BYTE   W22
 BYTE   N16  As2
 BYTE   W17
// 007   ----------------------------------------
 BYTE   W07
 BYTE   N07  Cn3
 BYTE   W12
 BYTE   N32  Cs3
 BYTE   W36
 BYTE   N21
 BYTE   W24
 BYTE   N06
 BYTE   W12
 BYTE   VOL   25*FE5MapA_mvl/mxv
 BYTE   N56  Cs3  v104
 BYTE   W01
 BYTE   VOL   28*FE5MapA_mvl/mxv
 BYTE   W01
 BYTE   Fs0
 BYTE   W01
 BYTE   Gs0
 BYTE   W01
 BYTE   As0
 BYTE   W01
// 008   ----------------------------------------
 BYTE   Cs1
 BYTE   W01
 BYTE   Ds1
 BYTE   W01
 BYTE   Fn1
 BYTE   W01
 BYTE   Gn1
 BYTE   W01
 BYTE   As1
 BYTE   W01
 BYTE   Cn2
 BYTE   W01
 BYTE   Dn2
 BYTE   W01
 BYTE   En2
 BYTE   W48
 BYTE   N10  Ds3
 BYTE   W12
 BYTE   N68  Fn3
 BYTE   W28
 BYTE   W01
// 009   ----------------------------------------
 BYTE   W40
 BYTE   W03
 BYTE   GoTo
  POIN2 Label_FE5MapA7_0131E8FB
 BYTE   FINE

//******************************************************//
	ALIGN 4

songFE5MapA:
	BYTE	8	// NumTrks
	BYTE	0	// NumBlks
	BYTE	FE5MapA_pri	// Priority
	BYTE	FE5MapA_rev	// Reverb.
    
	POIN2	FE5MapA_grp
    
	POIN2	FE5MapA_001
	POIN2	FE5MapA_002
	POIN2	FE5MapA_003
	POIN2	FE5MapA_004
	POIN2	FE5MapA_005
	POIN2	FE5MapA_006
	POIN2	FE5MapA_007
	POIN2	FE5MapA_008

	
