//Event file generated from Sappy .s format.
	#include "MPlayDef.event"

	#define	FE5SearchingTheEnemy_grp  voicegroup000
	#define	FE5SearchingTheEnemy_pri  0
	#define	FE5SearchingTheEnemy_rev  0
	#define	FE5SearchingTheEnemy_mvl  170
	#define	FE5SearchingTheEnemy_key  0
	#define	FE5SearchingTheEnemy_tbs  1
	#define	FE5SearchingTheEnemy_exg  0
	#define	FE5SearchingTheEnemy_cmp  1

	// .rodata
	//	FE5SearchingTheEnemy
	ALIGN 4


//**************** Track 1 (Midi-Chn.0) ****************//

FE5SearchingTheEnemy_001:
// 000   ----------------------------------------
 BYTE   KEYSH   FE5SearchingTheEnemy_key+0
Label_FE5SearchingTheEnemy0_014BA72E:
 BYTE   TEMPO   110*FE5SearchingTheEnemy_tbs/2
 BYTE   VOICE   56
 BYTE   VOL   66*FE5SearchingTheEnemy_mvl/mxv
 BYTE   N24  An2  v100
 BYTE   W42
 BYTE   N06
 BYTE   W06
 BYTE   TIE  Bn2
 BYTE   W48
// 001   ----------------------------------------
 BYTE   W72
 BYTE   EOT
 BYTE   W24
// 002   ----------------------------------------
Label_FE5SearchingTheEnemy0_014BA740:
 BYTE   N24  An2  v100
 BYTE   W42
 BYTE   N06  Bn2  v104
 BYTE   W06
 BYTE   N60  Cn3  v100
 BYTE   W48
 BYTE   PEND 
// 003   ----------------------------------------
Label_FE5SearchingTheEnemy0_014BA74D:
 BYTE   W24
 BYTE   N18  Gn3  v100
 BYTE   W24
 BYTE   Fs3
 BYTE   W24
 BYTE   Dn3
 BYTE   W24
 BYTE   PEND 
// 004   ----------------------------------------
 BYTE   N96  En3
 BYTE   W96
// 005   ----------------------------------------
 BYTE   N72  An2
 BYTE   W96
// 006   ----------------------------------------
Label_FE5SearchingTheEnemy0_014BA75D:
 BYTE   N24  An2  v100
 BYTE   W42
 BYTE   N06
 BYTE   W06
 BYTE   TIE  Bn2
 BYTE   W48
 BYTE   PEND 
// 007   ----------------------------------------
 BYTE   W72
 BYTE   EOT
 BYTE   W24
 BYTE   PATT
  POIN2 Label_FE5SearchingTheEnemy0_014BA740
// 008   ----------------------------------------
Label_FE5SearchingTheEnemy0_014BA76F:
 BYTE   W24
 BYTE   N18  Bn2  v100
 BYTE   W24
 BYTE   Cn3
 BYTE   W24
 BYTE   Dn3
 BYTE   W24
 BYTE   PEND 
// 009   ----------------------------------------
Label_FE5SearchingTheEnemy0_014BA779:
 BYTE   N36  Dn3  v100
 BYTE   W36
 BYTE   N12  Cn3
 BYTE   W12
 BYTE   N72
 BYTE   W48
 BYTE   PEND 
// 010   ----------------------------------------
Label_FE5SearchingTheEnemy0_014BA783:
 BYTE   W48
 BYTE   N18  En3  v100
 BYTE   W24
 BYTE   Gn3
 BYTE   W24
 BYTE   PEND 
// 011   ----------------------------------------
Label_FE5SearchingTheEnemy0_014BA78B:
 BYTE   N36  Fs3  v100
 BYTE   W48
 BYTE   Dn3
 BYTE   W48
 BYTE   PEND 
// 012   ----------------------------------------
 BYTE   N72  En3
 BYTE   W96
// 013   ----------------------------------------
 BYTE   W96
// 014   ----------------------------------------
 BYTE   W96
// 015   ----------------------------------------
 BYTE   W96
// 016   ----------------------------------------
 BYTE   W96
// 017   ----------------------------------------
 BYTE   W96
// 018   ----------------------------------------
 BYTE   W96
// 019   ----------------------------------------
Label_FE5SearchingTheEnemy0_014BA79B:
 BYTE   W84
 BYTE   N06  En2  v100
 BYTE   W06
 BYTE   An2
 BYTE   W06
 BYTE   PEND 
// 020   ----------------------------------------
 BYTE   N72  Bn2
 BYTE   W96
// 021   ----------------------------------------
 BYTE   VOL   66*FE5SearchingTheEnemy_mvl/mxv
 BYTE   N24  An2
 BYTE   W42
 BYTE   N06
 BYTE   W06
 BYTE   TIE  Bn2
 BYTE   W48
// 022   ----------------------------------------
 BYTE   W72
 BYTE   EOT
 BYTE   W24
 BYTE   PATT
  POIN2 Label_FE5SearchingTheEnemy0_014BA740
 BYTE   PATT
  POIN2 Label_FE5SearchingTheEnemy0_014BA74D
// 023   ----------------------------------------
 BYTE   N96  En3  v100
 BYTE   W96
// 024   ----------------------------------------
 BYTE   N72  An2
 BYTE   W96
 BYTE   PATT
  POIN2 Label_FE5SearchingTheEnemy0_014BA75D
// 025   ----------------------------------------
 BYTE   W72
 BYTE   EOT
 BYTE   Bn2
 BYTE   W24
 BYTE   PATT
  POIN2 Label_FE5SearchingTheEnemy0_014BA740
 BYTE   PATT
  POIN2 Label_FE5SearchingTheEnemy0_014BA76F
 BYTE   PATT
  POIN2 Label_FE5SearchingTheEnemy0_014BA779
 BYTE   PATT
  POIN2 Label_FE5SearchingTheEnemy0_014BA783
 BYTE   PATT
  POIN2 Label_FE5SearchingTheEnemy0_014BA78B
// 026   ----------------------------------------
 BYTE   N72  En3  v100
 BYTE   W96
// 027   ----------------------------------------
 BYTE   W96
// 028   ----------------------------------------
 BYTE   W96
// 029   ----------------------------------------
 BYTE   W96
// 030   ----------------------------------------
 BYTE   W96
// 031   ----------------------------------------
 BYTE   W96
// 032   ----------------------------------------
 BYTE   W96
 BYTE   PATT
  POIN2 Label_FE5SearchingTheEnemy0_014BA79B
// 033   ----------------------------------------
 BYTE   N72  Bn2  v100
 BYTE   W90
 BYTE   GoTo
  POIN2 Label_FE5SearchingTheEnemy0_014BA72E
// 034   ----------------------------------------
 BYTE   W06
 BYTE   FINE

//**************** Track 2 (Midi-Chn.1) ****************//

FE5SearchingTheEnemy_002:
// 000   ----------------------------------------
 BYTE   KEYSH   FE5SearchingTheEnemy_key+0
Label_FE5SearchingTheEnemy1_014BA802:
 BYTE   VOICE   56
 BYTE   VOL   66*FE5SearchingTheEnemy_mvl/mxv
 BYTE   N24  En2  v100
 BYTE   W42
 BYTE   N06
 BYTE   W06
 BYTE   TIE  Fs2
 BYTE   W48
// 001   ----------------------------------------
 BYTE   W72
 BYTE   EOT
 BYTE   W24
// 002   ----------------------------------------
Label_FE5SearchingTheEnemy1_014BA812:
 BYTE   N24  En2  v100
 BYTE   W42
 BYTE   N06  Fs2
 BYTE   W06
 BYTE   N60  Gn2
 BYTE   W48
 BYTE   PEND 
// 003   ----------------------------------------
 BYTE   W96
// 004   ----------------------------------------
 BYTE   N96  An2
 BYTE   W96
// 005   ----------------------------------------
 BYTE   N72  En2
 BYTE   W96
// 006   ----------------------------------------
Label_FE5SearchingTheEnemy1_014BA824:
 BYTE   N24  En2  v100
 BYTE   W42
 BYTE   N06
 BYTE   W06
 BYTE   TIE  Fs2
 BYTE   W48
 BYTE   PEND 
// 007   ----------------------------------------
 BYTE   W72
 BYTE   EOT
 BYTE   W24
 BYTE   PATT
  POIN2 Label_FE5SearchingTheEnemy1_014BA812
// 008   ----------------------------------------
Label_FE5SearchingTheEnemy1_014BA836:
 BYTE   W24
 BYTE   N18  Fs2  v100
 BYTE   W24
 BYTE   Gn2
 BYTE   W24
 BYTE   An2
 BYTE   W24
 BYTE   PEND 
// 009   ----------------------------------------
Label_FE5SearchingTheEnemy1_014BA840:
 BYTE   N36  An2  v100
 BYTE   W36
 BYTE   N12  Gn2
 BYTE   W12
 BYTE   N72
 BYTE   W48
 BYTE   PEND 
// 010   ----------------------------------------
 BYTE   W96
// 011   ----------------------------------------
 BYTE   W96
// 012   ----------------------------------------
 BYTE   W96
// 013   ----------------------------------------
 BYTE   W96
// 014   ----------------------------------------
 BYTE   W96
// 015   ----------------------------------------
 BYTE   W96
// 016   ----------------------------------------
 BYTE   W96
// 017   ----------------------------------------
 BYTE   W96
// 018   ----------------------------------------
 BYTE   W96
// 019   ----------------------------------------
 BYTE   W96
// 020   ----------------------------------------
 BYTE   En2
 BYTE   W96
// 021   ----------------------------------------
 BYTE   VOL   66*FE5SearchingTheEnemy_mvl/mxv
 BYTE   N24
 BYTE   W42
 BYTE   N06
 BYTE   W06
 BYTE   TIE  Fs2
 BYTE   W48
// 022   ----------------------------------------
 BYTE   W72
 BYTE   EOT
 BYTE   W24
 BYTE   PATT
  POIN2 Label_FE5SearchingTheEnemy1_014BA812
// 023   ----------------------------------------
 BYTE   W96
// 024   ----------------------------------------
 BYTE   N96  An2  v100
 BYTE   W96
// 025   ----------------------------------------
 BYTE   N72  En2
 BYTE   W96
 BYTE   PATT
  POIN2 Label_FE5SearchingTheEnemy1_014BA824
// 026   ----------------------------------------
 BYTE   W72
 BYTE   EOT
 BYTE   Fs2
 BYTE   W24
 BYTE   PATT
  POIN2 Label_FE5SearchingTheEnemy1_014BA812
 BYTE   PATT
  POIN2 Label_FE5SearchingTheEnemy1_014BA836
 BYTE   PATT
  POIN2 Label_FE5SearchingTheEnemy1_014BA840
// 027   ----------------------------------------
 BYTE   W96
// 028   ----------------------------------------
 BYTE   W96
// 029   ----------------------------------------
 BYTE   W96
// 030   ----------------------------------------
 BYTE   W96
// 031   ----------------------------------------
 BYTE   W96
// 032   ----------------------------------------
 BYTE   W96
// 033   ----------------------------------------
 BYTE   W96
// 034   ----------------------------------------
 BYTE   W96
// 035   ----------------------------------------
 BYTE   W96
// 036   ----------------------------------------
 BYTE   W96
// 037   ----------------------------------------
 BYTE   N72  En2  v100
 BYTE   W90
 BYTE   GoTo
  POIN2 Label_FE5SearchingTheEnemy1_014BA802
// 038   ----------------------------------------
 BYTE   W06
 BYTE   FINE

//**************** Track 3 (Midi-Chn.2) ****************//

FE5SearchingTheEnemy_003:
// 000   ----------------------------------------
 BYTE   KEYSH   FE5SearchingTheEnemy_key+0
Label_FE5SearchingTheEnemy2_014BA89E:
 BYTE   VOICE   57
 BYTE   VOL   60*FE5SearchingTheEnemy_mvl/mxv
 BYTE   W96
// 001   ----------------------------------------
 BYTE   W96
// 002   ----------------------------------------
 BYTE   W96
// 003   ----------------------------------------
 BYTE   W96
// 004   ----------------------------------------
 BYTE   W96
// 005   ----------------------------------------
 BYTE   W96
// 006   ----------------------------------------
 BYTE   W96
// 007   ----------------------------------------
 BYTE   W96
// 008   ----------------------------------------
 BYTE   W96
// 009   ----------------------------------------
 BYTE   W96
// 010   ----------------------------------------
 BYTE   W96
// 011   ----------------------------------------
 BYTE   W96
// 012   ----------------------------------------
 BYTE   W96
// 013   ----------------------------------------
Label_FE5SearchingTheEnemy2_014BA8AF:
 BYTE   W84
 BYTE   N06  En3  v100
 BYTE   W06
 BYTE   Fn3
 BYTE   W06
 BYTE   PEND 
// 014   ----------------------------------------
Label_FE5SearchingTheEnemy2_014BA8B7:
 BYTE   N36  Gn3  v100
 BYTE   W36
 BYTE   N12  Cn3
 BYTE   W12
 BYTE   N24
 BYTE   W24
 BYTE   An3
 BYTE   W24
 BYTE   PEND 
// 015   ----------------------------------------
Label_FE5SearchingTheEnemy2_014BA8C3:
 BYTE   N36  Gn3  v100
 BYTE   W36
 BYTE   N12  Fn3
 BYTE   W12
 BYTE   N24
 BYTE   W24
 BYTE   En3
 BYTE   W24
 BYTE   PEND 
// 016   ----------------------------------------
Label_FE5SearchingTheEnemy2_014BA8CF:
 BYTE   N36  Gn3  v100
 BYTE   W36
 BYTE   Cn3
 BYTE   W36
 BYTE   N24  Dn3
 BYTE   W24
 BYTE   PEND 
// 017   ----------------------------------------
Label_FE5SearchingTheEnemy2_014BA8D9:
 BYTE   N36  En3  v100
 BYTE   W36
 BYTE   Dn3
 BYTE   W36
 BYTE   N24  Gn3
 BYTE   W24
 BYTE   PEND 
// 018   ----------------------------------------
 BYTE   TIE  En4
 BYTE   W96
// 019   ----------------------------------------
 BYTE   W72
 BYTE   EOT
 BYTE   W12
 BYTE   N06
 BYTE   W06
 BYTE   An4
 BYTE   W06
// 020   ----------------------------------------
 BYTE   TIE  Bn4
 BYTE   W96
// 021   ----------------------------------------
 BYTE   W72
 BYTE   EOT
 BYTE   W24
// 022   ----------------------------------------
 BYTE   W96
// 023   ----------------------------------------
 BYTE   W96
// 024   ----------------------------------------
 BYTE   W96
// 025   ----------------------------------------
 BYTE   W96
// 026   ----------------------------------------
 BYTE   W96
// 027   ----------------------------------------
 BYTE   W96
// 028   ----------------------------------------
 BYTE   W96
// 029   ----------------------------------------
 BYTE   W96
// 030   ----------------------------------------
 BYTE   W96
// 031   ----------------------------------------
 BYTE   W96
// 032   ----------------------------------------
 BYTE   W96
// 033   ----------------------------------------
 BYTE   W96
// 034   ----------------------------------------
 BYTE   W96
 BYTE   PATT
  POIN2 Label_FE5SearchingTheEnemy2_014BA8AF
 BYTE   PATT
  POIN2 Label_FE5SearchingTheEnemy2_014BA8B7
 BYTE   PATT
  POIN2 Label_FE5SearchingTheEnemy2_014BA8C3
 BYTE   PATT
  POIN2 Label_FE5SearchingTheEnemy2_014BA8CF
 BYTE   PATT
  POIN2 Label_FE5SearchingTheEnemy2_014BA8D9
// 035   ----------------------------------------
 BYTE   TIE  En4  v100
 BYTE   W96
// 036   ----------------------------------------
 BYTE   W72
 BYTE   EOT
 BYTE   W12
 BYTE   N06
 BYTE   W06
 BYTE   An4
 BYTE   W06
// 037   ----------------------------------------
 BYTE   TIE  Bn4
 BYTE   W96
// 038   ----------------------------------------
 BYTE   W72
 BYTE   EOT
 BYTE   W18
 BYTE   GoTo
  POIN2 Label_FE5SearchingTheEnemy2_014BA89E
// 039   ----------------------------------------
 BYTE   W06
 BYTE   FINE

//**************** Track 4 (Midi-Chn.3) ****************//

FE5SearchingTheEnemy_004:
// 000   ----------------------------------------
 BYTE   KEYSH   FE5SearchingTheEnemy_key+0
Label_FE5SearchingTheEnemy3_014BA936:
 BYTE   VOICE   57
 BYTE   VOL   60*FE5SearchingTheEnemy_mvl/mxv
 BYTE   W84
 BYTE   N06  En2  v100
 BYTE   W06
 BYTE   An2
 BYTE   W06
// 001   ----------------------------------------
 BYTE   N72  Bn2
 BYTE   W96
// 002   ----------------------------------------
Label_FE5SearchingTheEnemy3_014BA944:
 BYTE   W84
 BYTE   N06  An2  v100
 BYTE   W06
 BYTE   Bn2
 BYTE   W06
 BYTE   PEND 
// 003   ----------------------------------------
Label_FE5SearchingTheEnemy3_014BA94C:
 BYTE   N12  Cn3  v100
 BYTE   W24
 BYTE   Gn3
 BYTE   W24
 BYTE   Fs3
 BYTE   W24
 BYTE   Dn3
 BYTE   W24
 BYTE   PEND 
// 004   ----------------------------------------
 BYTE   N96  En3
 BYTE   W96
// 005   ----------------------------------------
 BYTE   W96
// 006   ----------------------------------------
Label_FE5SearchingTheEnemy3_014BA95B:
 BYTE   W84
 BYTE   N06  En2  v100
 BYTE   W06
 BYTE   An2
 BYTE   W06
 BYTE   PEND 
// 007   ----------------------------------------
 BYTE   N72  Bn2
 BYTE   W96
// 008   ----------------------------------------
Label_FE5SearchingTheEnemy3_014BA966:
 BYTE   W84
 BYTE   N06  Cn3  v100
 BYTE   W06
 BYTE   Dn3
 BYTE   W06
 BYTE   PEND 
// 009   ----------------------------------------
 BYTE   N36  En3
 BYTE   W48
 BYTE   Gn3
 BYTE   W48
// 010   ----------------------------------------
Label_FE5SearchingTheEnemy3_014BA973:
 BYTE   N36  Fs3  v100
 BYTE   W48
 BYTE   Dn3
 BYTE   W48
 BYTE   PEND 
// 011   ----------------------------------------
 BYTE   N96  En3
 BYTE   W96
// 012   ----------------------------------------
 BYTE   W96
// 013   ----------------------------------------
Label_FE5SearchingTheEnemy3_014BA97E:
 BYTE   W48
 BYTE   N06  An1  v100
 BYTE   W06
 BYTE   Bn1
 BYTE   W06
 BYTE   Cn2
 BYTE   W06
 BYTE   Dn2
 BYTE   W06
 BYTE   En2
 BYTE   W06
 BYTE   Fs2
 BYTE   W06
 BYTE   Gn2
 BYTE   W06
 BYTE   An2
 BYTE   W06
 BYTE   PEND 
// 014   ----------------------------------------
Label_FE5SearchingTheEnemy3_014BA992:
 BYTE   N48  Bn2  v100
 BYTE   W48
 BYTE   An2
 BYTE   W48
 BYTE   PEND 
// 015   ----------------------------------------
Label_FE5SearchingTheEnemy3_014BA999:
 BYTE   N48  En2  v100
 BYTE   W48
 BYTE   An2
 BYTE   W48
 BYTE   PEND 
 BYTE   PATT
  POIN2 Label_FE5SearchingTheEnemy3_014BA992
// 016   ----------------------------------------
Label_FE5SearchingTheEnemy3_014BA9A5:
 BYTE   N48  Cn3  v100
 BYTE   W48
 BYTE   Bn2
 BYTE   W48
 BYTE   PEND 
// 017   ----------------------------------------
 BYTE   TIE  An3
 BYTE   W96
// 018   ----------------------------------------
 BYTE   W72
 BYTE   EOT
 BYTE   W24
// 019   ----------------------------------------
 BYTE   TIE  En4
 BYTE   W96
// 020   ----------------------------------------
 BYTE   W72
 BYTE   EOT
 BYTE   W24
 BYTE   PATT
  POIN2 Label_FE5SearchingTheEnemy3_014BA95B
// 021   ----------------------------------------
 BYTE   N72  Bn2  v100
 BYTE   W96
 BYTE   PATT
  POIN2 Label_FE5SearchingTheEnemy3_014BA944
 BYTE   PATT
  POIN2 Label_FE5SearchingTheEnemy3_014BA94C
// 022   ----------------------------------------
 BYTE   N96  En3  v100
 BYTE   W96
// 023   ----------------------------------------
 BYTE   W96
 BYTE   PATT
  POIN2 Label_FE5SearchingTheEnemy3_014BA95B
// 024   ----------------------------------------
 BYTE   N72  Bn2  v100
 BYTE   W96
 BYTE   PATT
  POIN2 Label_FE5SearchingTheEnemy3_014BA966
// 025   ----------------------------------------
 BYTE   N36  En3  v100
 BYTE   W48
 BYTE   Gn3
 BYTE   W48
 BYTE   PATT
  POIN2 Label_FE5SearchingTheEnemy3_014BA973
// 026   ----------------------------------------
 BYTE   N96  En3  v100
 BYTE   W96
// 027   ----------------------------------------
 BYTE   W96
 BYTE   PATT
  POIN2 Label_FE5SearchingTheEnemy3_014BA97E
 BYTE   PATT
  POIN2 Label_FE5SearchingTheEnemy3_014BA992
 BYTE   PATT
  POIN2 Label_FE5SearchingTheEnemy3_014BA999
 BYTE   PATT
  POIN2 Label_FE5SearchingTheEnemy3_014BA992
 BYTE   PATT
  POIN2 Label_FE5SearchingTheEnemy3_014BA9A5
// 028   ----------------------------------------
 BYTE   TIE  An3  v100
 BYTE   W96
// 029   ----------------------------------------
 BYTE   W72
 BYTE   EOT
 BYTE   W24
// 030   ----------------------------------------
 BYTE   TIE  En4
 BYTE   W96
// 031   ----------------------------------------
 BYTE   W72
 BYTE   EOT
 BYTE   W18
 BYTE   GoTo
  POIN2 Label_FE5SearchingTheEnemy3_014BA936
// 032   ----------------------------------------
 BYTE   W06
 BYTE   FINE

//**************** Track 5 (Midi-Chn.4) ****************//

FE5SearchingTheEnemy_005:
// 000   ----------------------------------------
 BYTE   KEYSH   FE5SearchingTheEnemy_key+0
Label_FE5SearchingTheEnemy4_014BAA1E:
 BYTE   VOICE   57
 BYTE   VOL   60*FE5SearchingTheEnemy_mvl/mxv
 BYTE   W96
// 001   ----------------------------------------
 BYTE   N72  En2  v100
 BYTE   W96
// 002   ----------------------------------------
 BYTE   W96
// 003   ----------------------------------------
Label_FE5SearchingTheEnemy4_014BAA28:
 BYTE   N12  An2  v100
 BYTE   W24
 BYTE   En3
 BYTE   W24
 BYTE   Dn3
 BYTE   W24
 BYTE   An2
 BYTE   W24
 BYTE   PEND 
// 004   ----------------------------------------
 BYTE   N96
 BYTE   W96
// 005   ----------------------------------------
 BYTE   W96
// 006   ----------------------------------------
 BYTE   W96
// 007   ----------------------------------------
 BYTE   N72  En2
 BYTE   W96
// 008   ----------------------------------------
 BYTE   W96
// 009   ----------------------------------------
Label_FE5SearchingTheEnemy4_014BAA3B:
 BYTE   N36  An2  v100
 BYTE   W48
 BYTE   En3
 BYTE   W48
 BYTE   PEND 
// 010   ----------------------------------------
Label_FE5SearchingTheEnemy4_014BAA42:
 BYTE   N36  Dn3  v100
 BYTE   W48
 BYTE   An2
 BYTE   W48
 BYTE   PEND 
// 011   ----------------------------------------
 BYTE   N96  Cn3
 BYTE   W96
// 012   ----------------------------------------
 BYTE   W96
// 013   ----------------------------------------
 BYTE   W96
// 014   ----------------------------------------
 BYTE   W96
// 015   ----------------------------------------
 BYTE   W96
// 016   ----------------------------------------
 BYTE   W96
// 017   ----------------------------------------
 BYTE   W96
// 018   ----------------------------------------
 BYTE   W96
// 019   ----------------------------------------
 BYTE   W96
// 020   ----------------------------------------
 BYTE   W96
// 021   ----------------------------------------
 BYTE   W96
// 022   ----------------------------------------
 BYTE   W96
// 023   ----------------------------------------
 BYTE   N72  En2
 BYTE   W96
// 024   ----------------------------------------
 BYTE   W96
 BYTE   PATT
  POIN2 Label_FE5SearchingTheEnemy4_014BAA28
// 025   ----------------------------------------
 BYTE   N96  An2  v100
 BYTE   W96
// 026   ----------------------------------------
 BYTE   W96
// 027   ----------------------------------------
 BYTE   W96
// 028   ----------------------------------------
 BYTE   N72  En2
 BYTE   W96
// 029   ----------------------------------------
 BYTE   W96
 BYTE   PATT
  POIN2 Label_FE5SearchingTheEnemy4_014BAA3B
 BYTE   PATT
  POIN2 Label_FE5SearchingTheEnemy4_014BAA42
// 030   ----------------------------------------
 BYTE   N96  Cn3  v100
 BYTE   W96
// 031   ----------------------------------------
 BYTE   W96
// 032   ----------------------------------------
 BYTE   W96
// 033   ----------------------------------------
 BYTE   W96
// 034   ----------------------------------------
 BYTE   W96
// 035   ----------------------------------------
 BYTE   W96
// 036   ----------------------------------------
 BYTE   W96
// 037   ----------------------------------------
 BYTE   W96
// 038   ----------------------------------------
 BYTE   W96
// 039   ----------------------------------------
 BYTE   W96
// 040   ----------------------------------------
 BYTE   W90
 BYTE   GoTo
  POIN2 Label_FE5SearchingTheEnemy4_014BAA1E
// 041   ----------------------------------------
 BYTE   W06
 BYTE   FINE

//**************** Track 6 (Midi-Chn.5) ****************//

FE5SearchingTheEnemy_006:
// 000   ----------------------------------------
 BYTE   KEYSH   FE5SearchingTheEnemy_key+0
Label_FE5SearchingTheEnemy5_014BAA8E:
 BYTE   VOICE   34
 BYTE   VOL   59*FE5SearchingTheEnemy_mvl/mxv
 BYTE   N12  An0  v127
 BYTE   W12
 BYTE   An0  v100
 BYTE   W12
 BYTE   N12
 BYTE   W12
 BYTE   An0  v127
 BYTE   W12
 BYTE   An0  v100
 BYTE   W12
 BYTE   N12
 BYTE   W12
 BYTE   An0  v127
 BYTE   W12
 BYTE   An0  v100
 BYTE   W12
// 001   ----------------------------------------
Label_FE5SearchingTheEnemy5_014BAAA9:
 BYTE   N12  An0  v127
 BYTE   W12
 BYTE   An0  v100
 BYTE   W12
 BYTE   N12
 BYTE   W12
 BYTE   An0  v127
 BYTE   W12
 BYTE   An0  v100
 BYTE   W12
 BYTE   N12
 BYTE   W12
 BYTE   An0  v127
 BYTE   W12
 BYTE   An0  v100
 BYTE   W12
 BYTE   PEND 
 BYTE   PATT
  POIN2 Label_FE5SearchingTheEnemy5_014BAAA9
 BYTE   PATT
  POIN2 Label_FE5SearchingTheEnemy5_014BAAA9
 BYTE   PATT
  POIN2 Label_FE5SearchingTheEnemy5_014BAAA9
 BYTE   PATT
  POIN2 Label_FE5SearchingTheEnemy5_014BAAA9
 BYTE   PATT
  POIN2 Label_FE5SearchingTheEnemy5_014BAAA9
 BYTE   PATT
  POIN2 Label_FE5SearchingTheEnemy5_014BAAA9
 BYTE   PATT
  POIN2 Label_FE5SearchingTheEnemy5_014BAAA9
 BYTE   PATT
  POIN2 Label_FE5SearchingTheEnemy5_014BAAA9
 BYTE   PATT
  POIN2 Label_FE5SearchingTheEnemy5_014BAAA9
 BYTE   PATT
  POIN2 Label_FE5SearchingTheEnemy5_014BAAA9
 BYTE   PATT
  POIN2 Label_FE5SearchingTheEnemy5_014BAAA9
 BYTE   PATT
  POIN2 Label_FE5SearchingTheEnemy5_014BAAA9
// 002   ----------------------------------------
Label_FE5SearchingTheEnemy5_014BAAFD:
 BYTE   N12  Fn0  v127
 BYTE   W12
 BYTE   Fn0  v100
 BYTE   W12
 BYTE   N12
 BYTE   W12
 BYTE   Fn0  v127
 BYTE   W12
 BYTE   Fn0  v100
 BYTE   W12
 BYTE   N12
 BYTE   W12
 BYTE   Fn0  v127
 BYTE   W12
 BYTE   Fn0  v100
 BYTE   W12
 BYTE   PEND 
 BYTE   PATT
  POIN2 Label_FE5SearchingTheEnemy5_014BAAFD
// 003   ----------------------------------------
Label_FE5SearchingTheEnemy5_014BAB1A:
 BYTE   N12  Dn0  v127
 BYTE   W12
 BYTE   Dn0  v100
 BYTE   W12
 BYTE   N12
 BYTE   W12
 BYTE   Dn0  v127
 BYTE   W12
 BYTE   Dn0  v100
 BYTE   W12
 BYTE   N12
 BYTE   W12
 BYTE   Dn0  v127
 BYTE   W12
 BYTE   Dn0  v100
 BYTE   W12
 BYTE   PEND 
// 004   ----------------------------------------
Label_FE5SearchingTheEnemy5_014BAB32:
 BYTE   N12  Gn0  v127
 BYTE   W12
 BYTE   Gn0  v100
 BYTE   W12
 BYTE   N12
 BYTE   W12
 BYTE   Gn0  v127
 BYTE   W12
 BYTE   Gn0  v100
 BYTE   W12
 BYTE   N12
 BYTE   W12
 BYTE   Gn0  v127
 BYTE   W12
 BYTE   Gn0  v100
 BYTE   W12
 BYTE   PEND 
 BYTE   PATT
  POIN2 Label_FE5SearchingTheEnemy5_014BAAA9
 BYTE   PATT
  POIN2 Label_FE5SearchingTheEnemy5_014BAAA9
 BYTE   PATT
  POIN2 Label_FE5SearchingTheEnemy5_014BAAA9
 BYTE   PATT
  POIN2 Label_FE5SearchingTheEnemy5_014BAAA9
 BYTE   PATT
  POIN2 Label_FE5SearchingTheEnemy5_014BAAA9
 BYTE   PATT
  POIN2 Label_FE5SearchingTheEnemy5_014BAAA9
 BYTE   PATT
  POIN2 Label_FE5SearchingTheEnemy5_014BAAA9
 BYTE   PATT
  POIN2 Label_FE5SearchingTheEnemy5_014BAAA9
 BYTE   PATT
  POIN2 Label_FE5SearchingTheEnemy5_014BAAA9
 BYTE   PATT
  POIN2 Label_FE5SearchingTheEnemy5_014BAAA9
 BYTE   PATT
  POIN2 Label_FE5SearchingTheEnemy5_014BAAA9
 BYTE   PATT
  POIN2 Label_FE5SearchingTheEnemy5_014BAAA9
 BYTE   PATT
  POIN2 Label_FE5SearchingTheEnemy5_014BAAA9
 BYTE   PATT
  POIN2 Label_FE5SearchingTheEnemy5_014BAAA9
 BYTE   PATT
  POIN2 Label_FE5SearchingTheEnemy5_014BAAA9
 BYTE   PATT
  POIN2 Label_FE5SearchingTheEnemy5_014BAAA9
 BYTE   PATT
  POIN2 Label_FE5SearchingTheEnemy5_014BAAA9
 BYTE   PATT
  POIN2 Label_FE5SearchingTheEnemy5_014BAAA9
 BYTE   PATT
  POIN2 Label_FE5SearchingTheEnemy5_014BAAFD
 BYTE   PATT
  POIN2 Label_FE5SearchingTheEnemy5_014BAAFD
 BYTE   PATT
  POIN2 Label_FE5SearchingTheEnemy5_014BAB1A
 BYTE   PATT
  POIN2 Label_FE5SearchingTheEnemy5_014BAB32
 BYTE   PATT
  POIN2 Label_FE5SearchingTheEnemy5_014BAAA9
 BYTE   PATT
  POIN2 Label_FE5SearchingTheEnemy5_014BAAA9
 BYTE   PATT
  POIN2 Label_FE5SearchingTheEnemy5_014BAAA9
// 005   ----------------------------------------
 BYTE   N12  An0  v127
 BYTE   W12
 BYTE   An0  v100
 BYTE   W12
 BYTE   N12
 BYTE   W12
 BYTE   An0  v127
 BYTE   W12
 BYTE   An0  v100
 BYTE   W12
 BYTE   N12
 BYTE   W12
 BYTE   An0  v127
 BYTE   W12
 BYTE   An0  v100
 BYTE   W06
 BYTE   GoTo
  POIN2 Label_FE5SearchingTheEnemy5_014BAA8E
// 006   ----------------------------------------
 BYTE   W06
 BYTE   FINE

//**************** Track 7 (Midi-Chn.6) ****************//

FE5SearchingTheEnemy_007:
// 000   ----------------------------------------
 BYTE   KEYSH   FE5SearchingTheEnemy_key+0
Label_FE5SearchingTheEnemy6_014BABEA:
 BYTE   VOICE   71
 BYTE   VOL   55*FE5SearchingTheEnemy_mvl/mxv
 BYTE   W96
// 001   ----------------------------------------
 BYTE   W96
// 002   ----------------------------------------
 BYTE   W96
// 003   ----------------------------------------
 BYTE   W96
// 004   ----------------------------------------
 BYTE   W96
// 005   ----------------------------------------
 BYTE   W96
// 006   ----------------------------------------
 BYTE   W96
// 007   ----------------------------------------
 BYTE   W96
// 008   ----------------------------------------
 BYTE   W96
// 009   ----------------------------------------
 BYTE   W96
// 010   ----------------------------------------
 BYTE   W96
// 011   ----------------------------------------
 BYTE   W96
// 012   ----------------------------------------
 BYTE   W96
// 013   ----------------------------------------
Label_FE5SearchingTheEnemy6_014BABFB:
 BYTE   W48
 BYTE   N06  An1  v100
 BYTE   W06
 BYTE   Bn1
 BYTE   W06
 BYTE   Cn2
 BYTE   W06
 BYTE   Dn2
 BYTE   W06
 BYTE   En2
 BYTE   W06
 BYTE   Fs2
 BYTE   W06
 BYTE   Gn2
 BYTE   W06
 BYTE   An2
 BYTE   W06
 BYTE   PEND 
// 014   ----------------------------------------
 BYTE   W96
// 015   ----------------------------------------
 BYTE   W96
// 016   ----------------------------------------
 BYTE   W96
// 017   ----------------------------------------
 BYTE   W96
// 018   ----------------------------------------
 BYTE   W96
// 019   ----------------------------------------
 BYTE   N84
 BYTE   N84  En3
 BYTE   W96
// 020   ----------------------------------------
 BYTE   W96
// 021   ----------------------------------------
 BYTE   W96
// 022   ----------------------------------------
 BYTE   W96
// 023   ----------------------------------------
 BYTE   W96
// 024   ----------------------------------------
 BYTE   W96
// 025   ----------------------------------------
 BYTE   W96
// 026   ----------------------------------------
 BYTE   W96
// 027   ----------------------------------------
 BYTE   W96
// 028   ----------------------------------------
 BYTE   W96
// 029   ----------------------------------------
 BYTE   W96
// 030   ----------------------------------------
 BYTE   W96
// 031   ----------------------------------------
 BYTE   W96
// 032   ----------------------------------------
 BYTE   W96
// 033   ----------------------------------------
 BYTE   W96
// 034   ----------------------------------------
 BYTE   W96
 BYTE   PATT
  POIN2 Label_FE5SearchingTheEnemy6_014BABFB
// 035   ----------------------------------------
 BYTE   W96
// 036   ----------------------------------------
 BYTE   W96
// 037   ----------------------------------------
 BYTE   W96
// 038   ----------------------------------------
 BYTE   W96
// 039   ----------------------------------------
 BYTE   W96
// 040   ----------------------------------------
 BYTE   N84  An2  v100
 BYTE   N84  En3
 BYTE   W96
// 041   ----------------------------------------
 BYTE   W96
// 042   ----------------------------------------
 BYTE   W90
 BYTE   GoTo
  POIN2 Label_FE5SearchingTheEnemy6_014BABEA
// 043   ----------------------------------------
 BYTE   W06
 BYTE   FINE

//**************** Track 8 (Midi-Chn.7) ****************//

FE5SearchingTheEnemy_008:
// 000   ----------------------------------------
 BYTE   KEYSH   FE5SearchingTheEnemy_key+0
Label_FE5SearchingTheEnemy7_014BAC42:
 BYTE   VOICE   56
 BYTE   VOL   51*FE5SearchingTheEnemy_mvl/mxv
 BYTE   PAN   c_v-33
 BYTE   W96
// 001   ----------------------------------------
 BYTE   W96
// 002   ----------------------------------------
 BYTE   W96
// 003   ----------------------------------------
Label_FE5SearchingTheEnemy7_014BAC4B:
 BYTE   W24
 BYTE   W03
 BYTE   N18  Gn3  v100
 BYTE   W24
 BYTE   Fs3
 BYTE   W24
 BYTE   Dn3
 BYTE   W21
 BYTE   PEND 
// 004   ----------------------------------------
 BYTE   W96
// 005   ----------------------------------------
 BYTE   W96
// 006   ----------------------------------------
 BYTE   W96
// 007   ----------------------------------------
 BYTE   W96
// 008   ----------------------------------------
 BYTE   W96
// 009   ----------------------------------------
 BYTE   W96
// 010   ----------------------------------------
 BYTE   W96
// 011   ----------------------------------------
Label_FE5SearchingTheEnemy7_014BAC5D:
 BYTE   W48
 BYTE   W03
 BYTE   N18  En3  v100
 BYTE   W24
 BYTE   Gn3
 BYTE   W21
 BYTE   PEND 
// 012   ----------------------------------------
Label_FE5SearchingTheEnemy7_014BAC66:
 BYTE   W03
 BYTE   N36  Fs3  v100
 BYTE   W48
 BYTE   Dn3
 BYTE   W44
 BYTE   W01
 BYTE   PEND 
// 013   ----------------------------------------
Label_FE5SearchingTheEnemy7_014BAC6F:
 BYTE   W03
 BYTE   N72  En3  v100
 BYTE   W92
 BYTE   W01
 BYTE   PEND 
// 014   ----------------------------------------
 BYTE   W96
// 015   ----------------------------------------
 BYTE   W96
// 016   ----------------------------------------
 BYTE   W96
// 017   ----------------------------------------
 BYTE   W96
// 018   ----------------------------------------
 BYTE   W96
// 019   ----------------------------------------
 BYTE   W96
// 020   ----------------------------------------
 BYTE   W96
// 021   ----------------------------------------
 BYTE   W96
// 022   ----------------------------------------
 BYTE   VOL   51*FE5SearchingTheEnemy_mvl/mxv
 BYTE   PAN   c_v-33
 BYTE   W96
// 023   ----------------------------------------
 BYTE   W96
// 024   ----------------------------------------
 BYTE   W96
 BYTE   PATT
  POIN2 Label_FE5SearchingTheEnemy7_014BAC4B
// 025   ----------------------------------------
 BYTE   W96
// 026   ----------------------------------------
 BYTE   W96
// 027   ----------------------------------------
 BYTE   W96
// 028   ----------------------------------------
 BYTE   W96
// 029   ----------------------------------------
 BYTE   W96
// 030   ----------------------------------------
 BYTE   W96
// 031   ----------------------------------------
 BYTE   W96
 BYTE   PATT
  POIN2 Label_FE5SearchingTheEnemy7_014BAC5D
 BYTE   PATT
  POIN2 Label_FE5SearchingTheEnemy7_014BAC66
 BYTE   PATT
  POIN2 Label_FE5SearchingTheEnemy7_014BAC6F
// 032   ----------------------------------------
 BYTE   W96
// 033   ----------------------------------------
 BYTE   W96
// 034   ----------------------------------------
 BYTE   W96
// 035   ----------------------------------------
 BYTE   W96
// 036   ----------------------------------------
 BYTE   W96
// 037   ----------------------------------------
 BYTE   W96
// 038   ----------------------------------------
 BYTE   W96
// 039   ----------------------------------------
 BYTE   W90
 BYTE   GoTo
  POIN2 Label_FE5SearchingTheEnemy7_014BAC42
// 040   ----------------------------------------
 BYTE   W06
 BYTE   FINE

//**************** Track 9 (Midi-Chn.8) ****************//

FE5SearchingTheEnemy_009:
// 000   ----------------------------------------
 BYTE   KEYSH   FE5SearchingTheEnemy_key+0
Label_FE5SearchingTheEnemy8_014BACB2:
 BYTE   VOICE   58
 BYTE   VOL   50*FE5SearchingTheEnemy_mvl/mxv
 BYTE   N12  An0  v100
 BYTE   W36
 BYTE   N12
 BYTE   W36
 BYTE   N12
 BYTE   W24
// 001   ----------------------------------------
Label_FE5SearchingTheEnemy8_014BACBE:
 BYTE   N12  An0  v100
 BYTE   W36
 BYTE   N12
 BYTE   W36
 BYTE   N12
 BYTE   W24
 BYTE   PEND 
 BYTE   PATT
  POIN2 Label_FE5SearchingTheEnemy8_014BACBE
 BYTE   PATT
  POIN2 Label_FE5SearchingTheEnemy8_014BACBE
 BYTE   PATT
  POIN2 Label_FE5SearchingTheEnemy8_014BACBE
 BYTE   PATT
  POIN2 Label_FE5SearchingTheEnemy8_014BACBE
 BYTE   PATT
  POIN2 Label_FE5SearchingTheEnemy8_014BACBE
 BYTE   PATT
  POIN2 Label_FE5SearchingTheEnemy8_014BACBE
 BYTE   PATT
  POIN2 Label_FE5SearchingTheEnemy8_014BACBE
 BYTE   PATT
  POIN2 Label_FE5SearchingTheEnemy8_014BACBE
 BYTE   PATT
  POIN2 Label_FE5SearchingTheEnemy8_014BACBE
 BYTE   PATT
  POIN2 Label_FE5SearchingTheEnemy8_014BACBE
 BYTE   PATT
  POIN2 Label_FE5SearchingTheEnemy8_014BACBE
 BYTE   PATT
  POIN2 Label_FE5SearchingTheEnemy8_014BACBE
// 002   ----------------------------------------
Label_FE5SearchingTheEnemy8_014BAD03:
 BYTE   N12  Fn0  v100
 BYTE   W36
 BYTE   N12
 BYTE   W36
 BYTE   N12
 BYTE   W24
 BYTE   PEND 
 BYTE   PATT
  POIN2 Label_FE5SearchingTheEnemy8_014BAD03
// 003   ----------------------------------------
Label_FE5SearchingTheEnemy8_014BAD11:
 BYTE   N12  Dn0  v100
 BYTE   W36
 BYTE   N12
 BYTE   W36
 BYTE   N12
 BYTE   W24
 BYTE   PEND 
// 004   ----------------------------------------
Label_FE5SearchingTheEnemy8_014BAD1A:
 BYTE   N12  Gn0  v100
 BYTE   W36
 BYTE   N12
 BYTE   W36
 BYTE   N12
 BYTE   W24
 BYTE   PEND 
 BYTE   PATT
  POIN2 Label_FE5SearchingTheEnemy8_014BACBE
 BYTE   PATT
  POIN2 Label_FE5SearchingTheEnemy8_014BACBE
 BYTE   PATT
  POIN2 Label_FE5SearchingTheEnemy8_014BACBE
 BYTE   PATT
  POIN2 Label_FE5SearchingTheEnemy8_014BACBE
 BYTE   PATT
  POIN2 Label_FE5SearchingTheEnemy8_014BACBE
 BYTE   PATT
  POIN2 Label_FE5SearchingTheEnemy8_014BACBE
 BYTE   PATT
  POIN2 Label_FE5SearchingTheEnemy8_014BACBE
 BYTE   PATT
  POIN2 Label_FE5SearchingTheEnemy8_014BACBE
 BYTE   PATT
  POIN2 Label_FE5SearchingTheEnemy8_014BACBE
 BYTE   PATT
  POIN2 Label_FE5SearchingTheEnemy8_014BACBE
 BYTE   PATT
  POIN2 Label_FE5SearchingTheEnemy8_014BACBE
 BYTE   PATT
  POIN2 Label_FE5SearchingTheEnemy8_014BACBE
 BYTE   PATT
  POIN2 Label_FE5SearchingTheEnemy8_014BACBE
 BYTE   PATT
  POIN2 Label_FE5SearchingTheEnemy8_014BACBE
 BYTE   PATT
  POIN2 Label_FE5SearchingTheEnemy8_014BACBE
 BYTE   PATT
  POIN2 Label_FE5SearchingTheEnemy8_014BACBE
 BYTE   PATT
  POIN2 Label_FE5SearchingTheEnemy8_014BACBE
 BYTE   PATT
  POIN2 Label_FE5SearchingTheEnemy8_014BACBE
 BYTE   PATT
  POIN2 Label_FE5SearchingTheEnemy8_014BAD03
 BYTE   PATT
  POIN2 Label_FE5SearchingTheEnemy8_014BAD03
 BYTE   PATT
  POIN2 Label_FE5SearchingTheEnemy8_014BAD11
 BYTE   PATT
  POIN2 Label_FE5SearchingTheEnemy8_014BAD1A
 BYTE   PATT
  POIN2 Label_FE5SearchingTheEnemy8_014BACBE
 BYTE   PATT
  POIN2 Label_FE5SearchingTheEnemy8_014BACBE
 BYTE   PATT
  POIN2 Label_FE5SearchingTheEnemy8_014BACBE
// 005   ----------------------------------------
 BYTE   N12  An0  v100
 BYTE   W36
 BYTE   N12
 BYTE   W36
 BYTE   N12
 BYTE   W18
 BYTE   GoTo
  POIN2 Label_FE5SearchingTheEnemy8_014BACB2
// 006   ----------------------------------------
 BYTE   W06
 BYTE   FINE

//**************** Track 10 (Midi-Chn.9) ****************//

FE5SearchingTheEnemy_010:
// 000   ----------------------------------------
 BYTE   KEYSH   FE5SearchingTheEnemy_key+0
Label_FE5SearchingTheEnemy9_014BADB2:
 BYTE   VOICE   0
 BYTE   VOL   44*FE5SearchingTheEnemy_mvl/mxv
 BYTE   N06  Dn1  v100
 BYTE   N06  En1
 BYTE   W36
 BYTE   Dn1
 BYTE   N06  En1
 BYTE   W48
 BYTE   Dn1
 BYTE   N06  En1
 BYTE   W06
 BYTE   Dn1
 BYTE   N06  En1
 BYTE   W06
// 001   ----------------------------------------
Label_FE5SearchingTheEnemy9_014BADC8:
 BYTE   N06  Dn1  v100
 BYTE   N06  En1
 BYTE   W24
 BYTE   Dn1
 BYTE   N06  En1
 BYTE   W72
 BYTE   PEND 
// 002   ----------------------------------------
Label_FE5SearchingTheEnemy9_014BADD3:
 BYTE   N06  Dn1  v100
 BYTE   N06  En1
 BYTE   W36
 BYTE   Dn1
 BYTE   N06  En1
 BYTE   W48
 BYTE   Dn1
 BYTE   N06  En1
 BYTE   W06
 BYTE   Dn1
 BYTE   N06  En1
 BYTE   W06
 BYTE   PEND 
 BYTE   PATT
  POIN2 Label_FE5SearchingTheEnemy9_014BADC8
 BYTE   PATT
  POIN2 Label_FE5SearchingTheEnemy9_014BADD3
 BYTE   PATT
  POIN2 Label_FE5SearchingTheEnemy9_014BADC8
 BYTE   PATT
  POIN2 Label_FE5SearchingTheEnemy9_014BADD3
 BYTE   PATT
  POIN2 Label_FE5SearchingTheEnemy9_014BADC8
 BYTE   PATT
  POIN2 Label_FE5SearchingTheEnemy9_014BADD3
 BYTE   PATT
  POIN2 Label_FE5SearchingTheEnemy9_014BADC8
 BYTE   PATT
  POIN2 Label_FE5SearchingTheEnemy9_014BADD3
 BYTE   PATT
  POIN2 Label_FE5SearchingTheEnemy9_014BADC8
 BYTE   PATT
  POIN2 Label_FE5SearchingTheEnemy9_014BADD3
 BYTE   PATT
  POIN2 Label_FE5SearchingTheEnemy9_014BADC8
// 003   ----------------------------------------
 BYTE   W96
// 004   ----------------------------------------
 BYTE   W96
// 005   ----------------------------------------
 BYTE   W96
// 006   ----------------------------------------
 BYTE   W96
// 007   ----------------------------------------
 BYTE   W96
// 008   ----------------------------------------
 BYTE   W96
 BYTE   PATT
  POIN2 Label_FE5SearchingTheEnemy9_014BADD3
 BYTE   PATT
  POIN2 Label_FE5SearchingTheEnemy9_014BADC8
 BYTE   PATT
  POIN2 Label_FE5SearchingTheEnemy9_014BADD3
 BYTE   PATT
  POIN2 Label_FE5SearchingTheEnemy9_014BADC8
 BYTE   PATT
  POIN2 Label_FE5SearchingTheEnemy9_014BADD3
 BYTE   PATT
  POIN2 Label_FE5SearchingTheEnemy9_014BADC8
 BYTE   PATT
  POIN2 Label_FE5SearchingTheEnemy9_014BADD3
 BYTE   PATT
  POIN2 Label_FE5SearchingTheEnemy9_014BADC8
 BYTE   PATT
  POIN2 Label_FE5SearchingTheEnemy9_014BADD3
 BYTE   PATT
  POIN2 Label_FE5SearchingTheEnemy9_014BADC8
 BYTE   PATT
  POIN2 Label_FE5SearchingTheEnemy9_014BADD3
 BYTE   PATT
  POIN2 Label_FE5SearchingTheEnemy9_014BADC8
 BYTE   PATT
  POIN2 Label_FE5SearchingTheEnemy9_014BADD3
 BYTE   PATT
  POIN2 Label_FE5SearchingTheEnemy9_014BADC8
 BYTE   PATT
  POIN2 Label_FE5SearchingTheEnemy9_014BADD3
 BYTE   PATT
  POIN2 Label_FE5SearchingTheEnemy9_014BADC8
// 009   ----------------------------------------
 BYTE   W96
// 010   ----------------------------------------
 BYTE   W96
// 011   ----------------------------------------
 BYTE   W96
// 012   ----------------------------------------
 BYTE   W96
// 013   ----------------------------------------
 BYTE   W96
// 014   ----------------------------------------
 BYTE   W96
 BYTE   PATT
  POIN2 Label_FE5SearchingTheEnemy9_014BADD3
// 015   ----------------------------------------
 BYTE   N06  Dn1  v100
 BYTE   N06  En1
 BYTE   W24
 BYTE   Dn1
 BYTE   N06  En1
 BYTE   W66
 BYTE   GoTo
  POIN2 Label_FE5SearchingTheEnemy9_014BADB2
// 016   ----------------------------------------
 BYTE   W06
 BYTE   FINE

//**************** Track 11 (Midi-Chn.10) ****************//

FE5SearchingTheEnemy_011:
// 000   ----------------------------------------
 BYTE   KEYSH   FE5SearchingTheEnemy_key+0
Label_FE5SearchingTheEnemy10_014BAE92:
 BYTE   VOICE   47
 BYTE   VOL   44*FE5SearchingTheEnemy_mvl/mxv
 BYTE   N12  An2  v100
 BYTE   W96
// 001   ----------------------------------------
Label_FE5SearchingTheEnemy10_014BAE9A:
 BYTE   W84
 BYTE   N06  An2  v100
 BYTE   W06
 BYTE   En2
 BYTE   W06
 BYTE   PEND 
// 002   ----------------------------------------
 BYTE   N12  An2
 BYTE   W96
// 003   ----------------------------------------
Label_FE5SearchingTheEnemy10_014BAEA5:
 BYTE   W84
 BYTE   N06  An2  v100
 BYTE   W06
 BYTE   Fn2
 BYTE   W06
 BYTE   PEND 
// 004   ----------------------------------------
 BYTE   N12  An2
 BYTE   W96
 BYTE   PATT
  POIN2 Label_FE5SearchingTheEnemy10_014BAEA5
// 005   ----------------------------------------
 BYTE   N12  An2  v100
 BYTE   W96
 BYTE   PATT
  POIN2 Label_FE5SearchingTheEnemy10_014BAEA5
// 006   ----------------------------------------
 BYTE   N12  An2  v100
 BYTE   W96
 BYTE   PATT
  POIN2 Label_FE5SearchingTheEnemy10_014BAEA5
// 007   ----------------------------------------
 BYTE   N12  An2  v100
 BYTE   W96
 BYTE   PATT
  POIN2 Label_FE5SearchingTheEnemy10_014BAEA5
// 008   ----------------------------------------
 BYTE   N12  An2  v100
 BYTE   W96
 BYTE   PATT
  POIN2 Label_FE5SearchingTheEnemy10_014BAEA5
// 009   ----------------------------------------
Label_FE5SearchingTheEnemy10_014BAED9:
 BYTE   N12  An2  v100
 BYTE   W12
 BYTE   N24  Fn2
 BYTE   W24
 BYTE   N24
 BYTE   W24
 BYTE   N24
 BYTE   W24
 BYTE   N12
 BYTE   W12
 BYTE   PEND 
// 010   ----------------------------------------
Label_FE5SearchingTheEnemy10_014BAEE7:
 BYTE   N12  An2  v100
 BYTE   W12
 BYTE   N24  Fn2
 BYTE   W24
 BYTE   N24
 BYTE   W24
 BYTE   N24
 BYTE   W24
 BYTE   N06  An2
 BYTE   W06
 BYTE   Fn2
 BYTE   W06
 BYTE   PEND 
 BYTE   PATT
  POIN2 Label_FE5SearchingTheEnemy10_014BAED9
 BYTE   PATT
  POIN2 Label_FE5SearchingTheEnemy10_014BAEE7
// 011   ----------------------------------------
Label_FE5SearchingTheEnemy10_014BAF02:
 BYTE   N12  An2  v100
 BYTE   W12
 BYTE   N24  Fn2
 BYTE   W24
 BYTE   N24
 BYTE   W48
 BYTE   N06
 BYTE   W06
 BYTE   An2
 BYTE   W06
 BYTE   PEND 
 BYTE   PATT
  POIN2 Label_FE5SearchingTheEnemy10_014BAEE7
 BYTE   PATT
  POIN2 Label_FE5SearchingTheEnemy10_014BAED9
 BYTE   PATT
  POIN2 Label_FE5SearchingTheEnemy10_014BAEE7
// 012   ----------------------------------------
 BYTE   N12  An2  v100
 BYTE   W96
 BYTE   PATT
  POIN2 Label_FE5SearchingTheEnemy10_014BAE9A
// 013   ----------------------------------------
 BYTE   N12  An2  v100
 BYTE   W96
 BYTE   PATT
  POIN2 Label_FE5SearchingTheEnemy10_014BAEA5
// 014   ----------------------------------------
 BYTE   N12  An2  v100
 BYTE   W96
 BYTE   PATT
  POIN2 Label_FE5SearchingTheEnemy10_014BAEA5
// 015   ----------------------------------------
 BYTE   N12  An2  v100
 BYTE   W96
 BYTE   PATT
  POIN2 Label_FE5SearchingTheEnemy10_014BAEA5
// 016   ----------------------------------------
 BYTE   N12  An2  v100
 BYTE   W96
 BYTE   PATT
  POIN2 Label_FE5SearchingTheEnemy10_014BAEA5
// 017   ----------------------------------------
 BYTE   N12  An2  v100
 BYTE   W96
 BYTE   PATT
  POIN2 Label_FE5SearchingTheEnemy10_014BAEA5
// 018   ----------------------------------------
 BYTE   N12  An2  v100
 BYTE   W96
 BYTE   PATT
  POIN2 Label_FE5SearchingTheEnemy10_014BAEA5
 BYTE   PATT
  POIN2 Label_FE5SearchingTheEnemy10_014BAED9
 BYTE   PATT
  POIN2 Label_FE5SearchingTheEnemy10_014BAEE7
 BYTE   PATT
  POIN2 Label_FE5SearchingTheEnemy10_014BAED9
 BYTE   PATT
  POIN2 Label_FE5SearchingTheEnemy10_014BAEE7
 BYTE   PATT
  POIN2 Label_FE5SearchingTheEnemy10_014BAF02
 BYTE   PATT
  POIN2 Label_FE5SearchingTheEnemy10_014BAEE7
 BYTE   PATT
  POIN2 Label_FE5SearchingTheEnemy10_014BAED9
// 019   ----------------------------------------
 BYTE   N12  An2  v100
 BYTE   W12
 BYTE   N24  Fn2
 BYTE   W24
 BYTE   N24
 BYTE   W24
 BYTE   N24
 BYTE   W24
 BYTE   N06  An2
 BYTE   W06
 BYTE   GoTo
  POIN2 Label_FE5SearchingTheEnemy10_014BAE92
// 020   ----------------------------------------
 BYTE   N06  Fn2  v100
 BYTE   W06
 BYTE   FINE

//**************** Track 12 (Midi-Chn.11) ****************//

FE5SearchingTheEnemy_012:
// 000   ----------------------------------------
 BYTE   KEYSH   FE5SearchingTheEnemy_key+0
Label_FE5SearchingTheEnemy11_014BAF9E:
 BYTE   VOICE   47
 BYTE   VOL   53*FE5SearchingTheEnemy_mvl/mxv
 BYTE   N12  An1  v100
 BYTE   W96
// 001   ----------------------------------------
Label_FE5SearchingTheEnemy11_014BAFA6:
 BYTE   W84
 BYTE   N06  An1  v100
 BYTE   W06
 BYTE   En1
 BYTE   W06
 BYTE   PEND 
// 002   ----------------------------------------
 BYTE   N12  An1
 BYTE   W96
// 003   ----------------------------------------
Label_FE5SearchingTheEnemy11_014BAFB1:
 BYTE   W84
 BYTE   N06  An1  v100
 BYTE   W06
 BYTE   Fn1
 BYTE   W06
 BYTE   PEND 
// 004   ----------------------------------------
 BYTE   N12  An1
 BYTE   W96
 BYTE   PATT
  POIN2 Label_FE5SearchingTheEnemy11_014BAFB1
// 005   ----------------------------------------
 BYTE   N12  An1  v100
 BYTE   W96
 BYTE   PATT
  POIN2 Label_FE5SearchingTheEnemy11_014BAFB1
// 006   ----------------------------------------
 BYTE   N12  An1  v100
 BYTE   W96
 BYTE   PATT
  POIN2 Label_FE5SearchingTheEnemy11_014BAFB1
// 007   ----------------------------------------
 BYTE   N12  An1  v100
 BYTE   W96
 BYTE   PATT
  POIN2 Label_FE5SearchingTheEnemy11_014BAFB1
// 008   ----------------------------------------
 BYTE   N12  An1  v100
 BYTE   W96
 BYTE   PATT
  POIN2 Label_FE5SearchingTheEnemy11_014BAFB1
// 009   ----------------------------------------
Label_FE5SearchingTheEnemy11_014BAFE5:
 BYTE   N12  An1  v100
 BYTE   W12
 BYTE   N24  Fn1
 BYTE   W24
 BYTE   N24
 BYTE   W24
 BYTE   N24
 BYTE   W24
 BYTE   N12
 BYTE   W12
 BYTE   PEND 
// 010   ----------------------------------------
Label_FE5SearchingTheEnemy11_014BAFF3:
 BYTE   N12  An1  v100
 BYTE   W12
 BYTE   N24  Fn1
 BYTE   W24
 BYTE   N24
 BYTE   W24
 BYTE   N24
 BYTE   W24
 BYTE   N06  An1
 BYTE   W06
 BYTE   Fn1
 BYTE   W06
 BYTE   PEND 
 BYTE   PATT
  POIN2 Label_FE5SearchingTheEnemy11_014BAFE5
 BYTE   PATT
  POIN2 Label_FE5SearchingTheEnemy11_014BAFF3
// 011   ----------------------------------------
Label_FE5SearchingTheEnemy11_014BB00E:
 BYTE   N12  An1  v100
 BYTE   W12
 BYTE   N24  Fn1
 BYTE   W24
 BYTE   N24
 BYTE   W48
 BYTE   N06
 BYTE   W06
 BYTE   An1
 BYTE   W06
 BYTE   PEND 
 BYTE   PATT
  POIN2 Label_FE5SearchingTheEnemy11_014BAFF3
 BYTE   PATT
  POIN2 Label_FE5SearchingTheEnemy11_014BAFE5
 BYTE   PATT
  POIN2 Label_FE5SearchingTheEnemy11_014BAFF3
// 012   ----------------------------------------
 BYTE   N12  An1  v100
 BYTE   W96
 BYTE   PATT
  POIN2 Label_FE5SearchingTheEnemy11_014BAFA6
// 013   ----------------------------------------
 BYTE   N12  An1  v100
 BYTE   W96
 BYTE   PATT
  POIN2 Label_FE5SearchingTheEnemy11_014BAFB1
// 014   ----------------------------------------
 BYTE   N12  An1  v100
 BYTE   W96
 BYTE   PATT
  POIN2 Label_FE5SearchingTheEnemy11_014BAFB1
// 015   ----------------------------------------
 BYTE   N12  An1  v100
 BYTE   W96
 BYTE   PATT
  POIN2 Label_FE5SearchingTheEnemy11_014BAFB1
// 016   ----------------------------------------
 BYTE   N12  An1  v100
 BYTE   W96
 BYTE   PATT
  POIN2 Label_FE5SearchingTheEnemy11_014BAFB1
// 017   ----------------------------------------
 BYTE   N12  An1  v100
 BYTE   W96
 BYTE   PATT
  POIN2 Label_FE5SearchingTheEnemy11_014BAFB1
// 018   ----------------------------------------
 BYTE   N12  An1  v100
 BYTE   W96
 BYTE   PATT
  POIN2 Label_FE5SearchingTheEnemy11_014BAFB1
 BYTE   PATT
  POIN2 Label_FE5SearchingTheEnemy11_014BAFE5
 BYTE   PATT
  POIN2 Label_FE5SearchingTheEnemy11_014BAFF3
 BYTE   PATT
  POIN2 Label_FE5SearchingTheEnemy11_014BAFE5
 BYTE   PATT
  POIN2 Label_FE5SearchingTheEnemy11_014BAFF3
 BYTE   PATT
  POIN2 Label_FE5SearchingTheEnemy11_014BB00E
 BYTE   PATT
  POIN2 Label_FE5SearchingTheEnemy11_014BAFF3
 BYTE   PATT
  POIN2 Label_FE5SearchingTheEnemy11_014BAFE5
// 019   ----------------------------------------
 BYTE   N12  An1  v100
 BYTE   W12
 BYTE   N24  Fn1
 BYTE   W24
 BYTE   N24
 BYTE   W24
 BYTE   N24
 BYTE   W24
 BYTE   N06  An1
 BYTE   W06
 BYTE   GoTo
  POIN2 Label_FE5SearchingTheEnemy11_014BAF9E
// 020   ----------------------------------------
 BYTE   N06  Fn1  v100
 BYTE   W06
 BYTE   FINE

//******************************************************//
	ALIGN 4

songFE5SearchingTheEnemy:
	BYTE	12	// NumTrks
	BYTE	0	// NumBlks
	BYTE	FE5SearchingTheEnemy_pri	// Priority
	BYTE	FE5SearchingTheEnemy_rev	// Reverb.
    
	POIN2	FE5SearchingTheEnemy_grp
    
	POIN2	FE5SearchingTheEnemy_001
	POIN2	FE5SearchingTheEnemy_002
	POIN2	FE5SearchingTheEnemy_003
	POIN2	FE5SearchingTheEnemy_004
	POIN2	FE5SearchingTheEnemy_005
	POIN2	FE5SearchingTheEnemy_006
	POIN2	FE5SearchingTheEnemy_007
	POIN2	FE5SearchingTheEnemy_008
	POIN2	FE5SearchingTheEnemy_009
	POIN2	FE5SearchingTheEnemy_010
	POIN2	FE5SearchingTheEnemy_011
	POIN2	FE5SearchingTheEnemy_012

	
