//Event file generated from Sappy .s format.
	#include "MPlayDef.event"

	#define	FE5Victory_grp  voicegroup000
	#define	FE5Victory_pri  0
	#define	FE5Victory_rev  0
	#define	FE5Victory_mvl  135
	#define	FE5Victory_key  0
	#define	FE5Victory_tbs  1
	#define	FE5Victory_exg  0
	#define	FE5Victory_cmp  1

	// .rodata
	//	FE5Victory
	ALIGN 4


//**************** Track 1 (Midi-Chn.0) ****************//

FE5Victory_001:
// 000   ----------------------------------------
 BYTE   KEYSH   FE5Victory_key+0
Label_FE5Victory0_011919FE:
 BYTE   TEMPO   114*FE5Victory_tbs/2
 BYTE   VOICE   56
 BYTE   VOL   70*FE5Victory_mvl/mxv
 BYTE   N36  Fn3  v100
 BYTE   W48
 BYTE   An3
 BYTE   W48
// 001   ----------------------------------------
Label_FE5Victory0_01191A0A:
 BYTE   N06  Gn3  v100
 BYTE   W18
 BYTE   An3
 BYTE   W06
 BYTE   N60  As3
 BYTE   W72
 BYTE   PEND 
// 002   ----------------------------------------
Label_FE5Victory0_01191A14:
 BYTE   N36  Fn3  v100
 BYTE   W48
 BYTE   An3
 BYTE   W48
 BYTE   PEND 
 BYTE   PATT
  POIN2 Label_FE5Victory0_01191A0A
// 003   ----------------------------------------
 BYTE   W96
// 004   ----------------------------------------
 BYTE   W96
// 005   ----------------------------------------
 BYTE   W96
// 006   ----------------------------------------
 BYTE   N96  Fn4  v088
 BYTE   W96
// 007   ----------------------------------------
 BYTE   W96
// 008   ----------------------------------------
 BYTE   W96
// 009   ----------------------------------------
 BYTE   W96
// 010   ----------------------------------------
 BYTE   W96
// 011   ----------------------------------------
 BYTE   W96
// 012   ----------------------------------------
 BYTE   W96
// 013   ----------------------------------------
 BYTE   W96
// 014   ----------------------------------------
Label_FE5Victory0_01191A2E:
 BYTE   W72
 BYTE   N12  Gn3  v100
 BYTE   W12
 BYTE   An3
 BYTE   W12
 BYTE   PEND 
// 015   ----------------------------------------
Label_FE5Victory0_01191A36:
 BYTE   N18  Gn3  v100
 BYTE   W24
 BYTE   Dn4
 BYTE   W24
 BYTE   Bn3
 BYTE   W24
 BYTE   Gn3
 BYTE   W24
 BYTE   PEND 
// 016   ----------------------------------------
Label_FE5Victory0_01191A41:
 BYTE   N18  Gn3  v060
 BYTE   W24
 BYTE   Fn3  v100
 BYTE   W24
 BYTE   An3
 BYTE   W24
 BYTE   Cn4
 BYTE   W24
 BYTE   PEND 
// 017   ----------------------------------------
Label_FE5Victory0_01191A4D:
 BYTE   N18  En4  v100
 BYTE   W24
 BYTE   Dn4
 BYTE   W24
 BYTE   Fn4
 BYTE   W24
 BYTE   An4
 BYTE   W24
 BYTE   PEND 
// 018   ----------------------------------------
 BYTE   N36
 BYTE   W48
 BYTE   Bn4
 BYTE   W48
// 019   ----------------------------------------
 BYTE   VOL   70*FE5Victory_mvl/mxv
 BYTE   N36  Fn3
 BYTE   W48
 BYTE   An3
 BYTE   W48
 BYTE   PATT
  POIN2 Label_FE5Victory0_01191A0A
 BYTE   PATT
  POIN2 Label_FE5Victory0_01191A14
 BYTE   PATT
  POIN2 Label_FE5Victory0_01191A0A
// 020   ----------------------------------------
 BYTE   W96
// 021   ----------------------------------------
 BYTE   W96
// 022   ----------------------------------------
 BYTE   W96
// 023   ----------------------------------------
 BYTE   N96  Fn4  v088
 BYTE   W96
// 024   ----------------------------------------
 BYTE   W96
// 025   ----------------------------------------
 BYTE   W96
// 026   ----------------------------------------
 BYTE   W96
// 027   ----------------------------------------
 BYTE   W96
// 028   ----------------------------------------
 BYTE   W96
// 029   ----------------------------------------
 BYTE   W96
// 030   ----------------------------------------
 BYTE   W96
 BYTE   PATT
  POIN2 Label_FE5Victory0_01191A2E
 BYTE   PATT
  POIN2 Label_FE5Victory0_01191A36
 BYTE   PATT
  POIN2 Label_FE5Victory0_01191A41
 BYTE   PATT
  POIN2 Label_FE5Victory0_01191A4D
// 031   ----------------------------------------
 BYTE   N36  An4  v100
 BYTE   W48
 BYTE   Bn4
 BYTE   W44
 BYTE   W03
 BYTE   GoTo
  POIN2 Label_FE5Victory0_011919FE
// 032   ----------------------------------------
 BYTE   W01
 BYTE   FINE

//**************** Track 2 (Midi-Chn.1) ****************//

FE5Victory_002:
// 000   ----------------------------------------
 BYTE   KEYSH   FE5Victory_key+0
Label_FE5Victory1_01191AA6:
 BYTE   VOICE   57
 BYTE   VOL   72*FE5Victory_mvl/mxv
 BYTE   W96
// 001   ----------------------------------------
Label_FE5Victory1_01191AAB:
 BYTE   W48
 BYTE   N12  Dn3  v100
 BYTE   W24
 BYTE   As2
 BYTE   W24
 BYTE   PEND 
// 002   ----------------------------------------
 BYTE   W96
// 003   ----------------------------------------
 BYTE   W96
// 004   ----------------------------------------
Label_FE5Victory1_01191AB5:
 BYTE   N36  Fn3  v100
 BYTE   W48
 BYTE   An3
 BYTE   W48
 BYTE   PEND 
// 005   ----------------------------------------
Label_FE5Victory1_01191ABC:
 BYTE   N06  Gn3  v100
 BYTE   W18
 BYTE   Ds3
 BYTE   W06
 BYTE   N60  As2
 BYTE   W60
 BYTE   N06
 BYTE   W06
 BYTE   Cn3
 BYTE   W06
 BYTE   PEND 
// 006   ----------------------------------------
Label_FE5Victory1_01191ACA:
 BYTE   N72  Cs3  v100
 BYTE   W72
 BYTE   N24  Fn3
 BYTE   W24
 BYTE   PEND 
// 007   ----------------------------------------
 BYTE   W96
// 008   ----------------------------------------
 BYTE   N12  Dn3
 BYTE   W96
// 009   ----------------------------------------
Label_FE5Victory1_01191AD6:
 BYTE   N18  Fn3  v100
 BYTE   W48
 BYTE   Cn3
 BYTE   W48
 BYTE   PEND 
// 010   ----------------------------------------
 BYTE   N12  Dn3
 BYTE   W96
// 011   ----------------------------------------
Label_FE5Victory1_01191AE0:
 BYTE   N18  Dn3  v100
 BYTE   W48
 BYTE   En3
 BYTE   W48
 BYTE   PEND 
// 012   ----------------------------------------
 BYTE   N84
 BYTE   W96
// 013   ----------------------------------------
 BYTE   N48
 BYTE   W48
 BYTE   Dn3
 BYTE   W48
// 014   ----------------------------------------
Label_FE5Victory1_01191AED:
 BYTE   N48  En3  v100
 BYTE   W48
 BYTE   N36  Cn3
 BYTE   W36
 BYTE   N06  Gn3
 BYTE   W12
 BYTE   PEND 
// 015   ----------------------------------------
Label_FE5Victory1_01191AF8:
 BYTE   N72  Fs3  v100
 BYTE   W72
 BYTE   N12  Gn3
 BYTE   W12
 BYTE   An3
 BYTE   W12
 BYTE   PEND 
// 016   ----------------------------------------
 BYTE   W96
// 017   ----------------------------------------
 BYTE   W96
// 018   ----------------------------------------
 BYTE   W96
// 019   ----------------------------------------
 BYTE   W96
// 020   ----------------------------------------
 BYTE   VOL   72*FE5Victory_mvl/mxv
 BYTE   W96
 BYTE   PATT
  POIN2 Label_FE5Victory1_01191AAB
// 021   ----------------------------------------
 BYTE   W96
// 022   ----------------------------------------
 BYTE   W96
 BYTE   PATT
  POIN2 Label_FE5Victory1_01191AB5
 BYTE   PATT
  POIN2 Label_FE5Victory1_01191ABC
 BYTE   PATT
  POIN2 Label_FE5Victory1_01191ACA
// 023   ----------------------------------------
 BYTE   W96
// 024   ----------------------------------------
 BYTE   N12  Dn3  v100
 BYTE   W96
 BYTE   PATT
  POIN2 Label_FE5Victory1_01191AD6
// 025   ----------------------------------------
 BYTE   N12  Dn3  v100
 BYTE   W96
 BYTE   PATT
  POIN2 Label_FE5Victory1_01191AE0
// 026   ----------------------------------------
 BYTE   N84  En3  v100
 BYTE   W96
// 027   ----------------------------------------
 BYTE   N48
 BYTE   W48
 BYTE   Dn3
 BYTE   W48
 BYTE   PATT
  POIN2 Label_FE5Victory1_01191AED
 BYTE   PATT
  POIN2 Label_FE5Victory1_01191AF8
// 028   ----------------------------------------
 BYTE   W96
// 029   ----------------------------------------
 BYTE   W96
// 030   ----------------------------------------
 BYTE   W96
// 031   ----------------------------------------
 BYTE   W92
 BYTE   W03
 BYTE   GoTo
  POIN2 Label_FE5Victory1_01191AA6
// 032   ----------------------------------------
 BYTE   W01
 BYTE   FINE

//**************** Track 3 (Midi-Chn.2) ****************//

FE5Victory_003:
// 000   ----------------------------------------
 BYTE   KEYSH   FE5Victory_key+0
Label_FE5Victory2_01191B52:
 BYTE   VOICE   56
 BYTE   VOL   70*FE5Victory_mvl/mxv
 BYTE   N36  Cn3  v100
 BYTE   W48
 BYTE   N36
 BYTE   W48
// 001   ----------------------------------------
Label_FE5Victory2_01191B5C:
 BYTE   N06  As2  v100
 BYTE   W18
 BYTE   Cn3
 BYTE   W06
 BYTE   N24  Dn3
 BYTE   W72
 BYTE   PEND 
// 002   ----------------------------------------
Label_FE5Victory2_01191B66:
 BYTE   N36  Cn3  v100
 BYTE   W48
 BYTE   N36
 BYTE   W48
 BYTE   PEND 
// 003   ----------------------------------------
Label_FE5Victory2_01191B6D:
 BYTE   N06  As2  v100
 BYTE   W18
 BYTE   Cn3
 BYTE   W06
 BYTE   N12  Dn3
 BYTE   W24
 BYTE   N06  Gn3
 BYTE   W18
 BYTE   An3
 BYTE   W06
 BYTE   N24  As3
 BYTE   W24
 BYTE   PEND 
// 004   ----------------------------------------
Label_FE5Victory2_01191B7F:
 BYTE   N36  Cn3  v100
 BYTE   W48
 BYTE   Fn3
 BYTE   W48
 BYTE   PEND 
// 005   ----------------------------------------
Label_FE5Victory2_01191B86:
 BYTE   N06  Ds3  v100
 BYTE   W18
 BYTE   As2
 BYTE   W06
 BYTE   N60  Gn2
 BYTE   W60
 BYTE   N06
 BYTE   W06
 BYTE   Gs2
 BYTE   W06
 BYTE   PEND 
// 006   ----------------------------------------
Label_FE5Victory2_01191B94:
 BYTE   N72  Gs2  v100
 BYTE   W72
 BYTE   N24  Cs3
 BYTE   W24
 BYTE   PEND 
// 007   ----------------------------------------
 BYTE   N96  An3  v088
 BYTE   W96
// 008   ----------------------------------------
 BYTE   N12  As2  v100
 BYTE   W96
// 009   ----------------------------------------
Label_FE5Victory2_01191BA4:
 BYTE   N18  Cn3  v100
 BYTE   W48
 BYTE   An2
 BYTE   W48
 BYTE   PEND 
// 010   ----------------------------------------
 BYTE   N12  As2
 BYTE   W96
// 011   ----------------------------------------
Label_FE5Victory2_01191BAE:
 BYTE   N18  As2  v100
 BYTE   W48
 BYTE   N18
 BYTE   W48
 BYTE   PEND 
// 012   ----------------------------------------
Label_FE5Victory2_01191BB5:
 BYTE   N48  Cn3  v100
 BYTE   W48
 BYTE   N12
 BYTE   W12
 BYTE   N24  En3
 BYTE   W24
 BYTE   N12  Cn3
 BYTE   W12
 BYTE   PEND 
// 013   ----------------------------------------
Label_FE5Victory2_01191BC2:
 BYTE   N12  Dn3  v100
 BYTE   W24
 BYTE   N72
 BYTE   W72
 BYTE   PEND 
// 014   ----------------------------------------
Label_FE5Victory2_01191BC9:
 BYTE   N24  Cn3  v100
 BYTE   W36
 BYTE   N24
 BYTE   W24
 BYTE   En3
 BYTE   W24
 BYTE   N12  Cn3
 BYTE   W12
 BYTE   PEND 
// 015   ----------------------------------------
Label_FE5Victory2_01191BD5:
 BYTE   N24  Dn3  v100
 BYTE   W24
 BYTE   N60  Fs3
 BYTE   W60
 BYTE   N12  En3
 BYTE   W12
 BYTE   PEND 
// 016   ----------------------------------------
Label_FE5Victory2_01191BE0:
 BYTE   N18  Cn3  v100
 BYTE   W24
 BYTE   Gn3
 BYTE   W24
 BYTE   Dn3
 BYTE   W24
 BYTE   Cn3
 BYTE   W24
 BYTE   PEND 
// 017   ----------------------------------------
Label_FE5Victory2_01191BEB:
 BYTE   N18  Bn2  v100
 BYTE   W24
 BYTE   As2
 BYTE   W24
 BYTE   Dn3
 BYTE   W24
 BYTE   Fn3
 BYTE   W24
 BYTE   PEND 
// 018   ----------------------------------------
Label_FE5Victory2_01191BF6:
 BYTE   N18  Gn3  v100
 BYTE   W24
 BYTE   Fn3
 BYTE   W24
 BYTE   An3
 BYTE   W24
 BYTE   Cn4
 BYTE   W24
 BYTE   PEND 
// 019   ----------------------------------------
 BYTE   N36  Bn3
 BYTE   W48
 BYTE   En4
 BYTE   W48
// 020   ----------------------------------------
 BYTE   VOL   70*FE5Victory_mvl/mxv
 BYTE   N36  Cn3
 BYTE   W48
 BYTE   N36
 BYTE   W48
 BYTE   PATT
  POIN2 Label_FE5Victory2_01191B5C
 BYTE   PATT
  POIN2 Label_FE5Victory2_01191B66
 BYTE   PATT
  POIN2 Label_FE5Victory2_01191B6D
 BYTE   PATT
  POIN2 Label_FE5Victory2_01191B7F
 BYTE   PATT
  POIN2 Label_FE5Victory2_01191B86
 BYTE   PATT
  POIN2 Label_FE5Victory2_01191B94
// 021   ----------------------------------------
 BYTE   N96  An3  v088
 BYTE   W96
// 022   ----------------------------------------
 BYTE   N12  As2  v100
 BYTE   W96
 BYTE   PATT
  POIN2 Label_FE5Victory2_01191BA4
// 023   ----------------------------------------
 BYTE   N12  As2  v100
 BYTE   W96
 BYTE   PATT
  POIN2 Label_FE5Victory2_01191BAE
 BYTE   PATT
  POIN2 Label_FE5Victory2_01191BB5
 BYTE   PATT
  POIN2 Label_FE5Victory2_01191BC2
 BYTE   PATT
  POIN2 Label_FE5Victory2_01191BC9
 BYTE   PATT
  POIN2 Label_FE5Victory2_01191BD5
 BYTE   PATT
  POIN2 Label_FE5Victory2_01191BE0
 BYTE   PATT
  POIN2 Label_FE5Victory2_01191BEB
 BYTE   PATT
  POIN2 Label_FE5Victory2_01191BF6
// 024   ----------------------------------------
 BYTE   N36  Bn3  v100
 BYTE   W48
 BYTE   En4
 BYTE   W44
 BYTE   W03
 BYTE   GoTo
  POIN2 Label_FE5Victory2_01191B52
// 025   ----------------------------------------
 BYTE   W01
 BYTE   FINE

//**************** Track 4 (Midi-Chn.3) ****************//

FE5Victory_004:
// 000   ----------------------------------------
 BYTE   KEYSH   FE5Victory_key+0
Label_FE5Victory3_01191C76:
 BYTE   VOICE   48
 BYTE   VOL   69*FE5Victory_mvl/mxv
 BYTE   W96
// 001   ----------------------------------------
Label_FE5Victory3_01191C7B:
 BYTE   W48
 BYTE   N12  As3  v100
 BYTE   W24
 BYTE   Fn3
 BYTE   W24
 BYTE   PEND 
// 002   ----------------------------------------
 BYTE   W96
// 003   ----------------------------------------
Label_FE5Victory3_01191C84:
 BYTE   W48
 BYTE   N06  As2  v100
 BYTE   W18
 BYTE   Cn3
 BYTE   W06
 BYTE   N24  Dn3
 BYTE   W24
 BYTE   PEND 
// 004   ----------------------------------------
 BYTE   W96
// 005   ----------------------------------------
Label_FE5Victory3_01191C90:
 BYTE   W48
 BYTE   N06  Gn2  v100
 BYTE   W06
 BYTE   An2
 BYTE   W06
 BYTE   As2
 BYTE   W06
 BYTE   Cn3
 BYTE   W06
 BYTE   Dn3
 BYTE   W06
 BYTE   Ds3
 BYTE   W06
 BYTE   Fn3
 BYTE   W06
 BYTE   Gn3
 BYTE   W06
 BYTE   PEND 
// 006   ----------------------------------------
Label_FE5Victory3_01191CA4:
 BYTE   N84  Gs3  v100
 BYTE   W84
 BYTE   N06  An3
 BYTE   W06
 BYTE   As3
 BYTE   W06
 BYTE   PEND 
// 007   ----------------------------------------
 BYTE   W96
// 008   ----------------------------------------
 BYTE   W96
// 009   ----------------------------------------
 BYTE   W96
// 010   ----------------------------------------
Label_FE5Victory3_01191CB1:
 BYTE   W36
 BYTE   N06  Fn2  v100
 BYTE   W06
 BYTE   An2
 BYTE   W06
 BYTE   Cn3
 BYTE   W06
 BYTE   Fn3
 BYTE   W06
 BYTE   Cn3
 BYTE   W06
 BYTE   An2
 BYTE   W06
 BYTE   Fn3
 BYTE   W06
 BYTE   Cn3
 BYTE   W06
 BYTE   An2
 BYTE   W06
 BYTE   Fn2
 BYTE   W06
 BYTE   PEND 
// 011   ----------------------------------------
 BYTE   W96
// 012   ----------------------------------------
 BYTE   W96
// 013   ----------------------------------------
 BYTE   W96
// 014   ----------------------------------------
 BYTE   W96
// 015   ----------------------------------------
 BYTE   W96
// 016   ----------------------------------------
 BYTE   W96
// 017   ----------------------------------------
 BYTE   W96
// 018   ----------------------------------------
 BYTE   W96
// 019   ----------------------------------------
 BYTE   W96
// 020   ----------------------------------------
 BYTE   VOL   69*FE5Victory_mvl/mxv
 BYTE   W96
 BYTE   PATT
  POIN2 Label_FE5Victory3_01191C7B
// 021   ----------------------------------------
 BYTE   W96
 BYTE   PATT
  POIN2 Label_FE5Victory3_01191C84
// 022   ----------------------------------------
 BYTE   W96
 BYTE   PATT
  POIN2 Label_FE5Victory3_01191C90
 BYTE   PATT
  POIN2 Label_FE5Victory3_01191CA4
// 023   ----------------------------------------
 BYTE   W96
// 024   ----------------------------------------
 BYTE   W96
// 025   ----------------------------------------
 BYTE   W96
 BYTE   PATT
  POIN2 Label_FE5Victory3_01191CB1
// 026   ----------------------------------------
 BYTE   W96
// 027   ----------------------------------------
 BYTE   W96
// 028   ----------------------------------------
 BYTE   W96
// 029   ----------------------------------------
 BYTE   W96
// 030   ----------------------------------------
 BYTE   W96
// 031   ----------------------------------------
 BYTE   W96
// 032   ----------------------------------------
 BYTE   W96
// 033   ----------------------------------------
 BYTE   W96
// 034   ----------------------------------------
 BYTE   W92
 BYTE   W03
 BYTE   GoTo
  POIN2 Label_FE5Victory3_01191C76
// 035   ----------------------------------------
 BYTE   W01
 BYTE   FINE

//**************** Track 5 (Midi-Chn.4) ****************//

FE5Victory_005:
// 000   ----------------------------------------
 BYTE   KEYSH   FE5Victory_key+0
Label_FE5Victory4_01191D06:
 BYTE   VOICE   57
 BYTE   VOL   72*FE5Victory_mvl/mxv
 BYTE   W96
// 001   ----------------------------------------
 BYTE   W96
// 002   ----------------------------------------
 BYTE   W96
// 003   ----------------------------------------
 BYTE   W96
// 004   ----------------------------------------
Label_FE5Victory4_01191D0E:
 BYTE   N36  An2  v100
 BYTE   W48
 BYTE   Cn3
 BYTE   W48
 BYTE   PEND 
// 005   ----------------------------------------
Label_FE5Victory4_01191D15:
 BYTE   N06  As2  v100
 BYTE   W18
 BYTE   N06
 BYTE   W06
 BYTE   N24
 BYTE   W72
 BYTE   PEND 
// 006   ----------------------------------------
 BYTE   W96
// 007   ----------------------------------------
 BYTE   W96
// 008   ----------------------------------------
 BYTE   N12  Fn2
 BYTE   W96
// 009   ----------------------------------------
Label_FE5Victory4_01191D23:
 BYTE   N18  An2  v100
 BYTE   W48
 BYTE   Fn2
 BYTE   W48
 BYTE   PEND 
// 010   ----------------------------------------
 BYTE   N12
 BYTE   W96
// 011   ----------------------------------------
Label_FE5Victory4_01191D2C:
 BYTE   N18  Fn2  v100
 BYTE   W48
 BYTE   Gn2
 BYTE   W48
 BYTE   PEND 
// 012   ----------------------------------------
Label_FE5Victory4_01191D33:
 BYTE   N48  Gn2  v100
 BYTE   W48
 BYTE   N12
 BYTE   W12
 BYTE   N24  Cn3
 BYTE   W24
 BYTE   N12  Gn2
 BYTE   W12
 BYTE   PEND 
// 013   ----------------------------------------
Label_FE5Victory4_01191D40:
 BYTE   N12  Gn2  v100
 BYTE   W24
 BYTE   N72  An2
 BYTE   W72
 BYTE   PEND 
// 014   ----------------------------------------
Label_FE5Victory4_01191D48:
 BYTE   N24  Gn2  v100
 BYTE   W36
 BYTE   N24
 BYTE   W24
 BYTE   Cn3
 BYTE   W24
 BYTE   N12  Gn2
 BYTE   W12
 BYTE   PEND 
// 015   ----------------------------------------
Label_FE5Victory4_01191D54:
 BYTE   N24  An2  v100
 BYTE   W24
 BYTE   N72  Dn3
 BYTE   W72
 BYTE   PEND 
// 016   ----------------------------------------
Label_FE5Victory4_01191D5C:
 BYTE   N36  An3  v100
 BYTE   W48
 BYTE   N24  Gn3
 BYTE   W24
 BYTE   N18  Dn3
 BYTE   W24
 BYTE   PEND 
// 017   ----------------------------------------
Label_FE5Victory4_01191D67:
 BYTE   N84  Gn3  v100
 BYTE   W84
 BYTE   N06  Fn3
 BYTE   W06
 BYTE   Cn3
 BYTE   W06
 BYTE   PEND 
// 018   ----------------------------------------
Label_FE5Victory4_01191D71:
 BYTE   N36  Gn3  v100
 BYTE   W48
 BYTE   Dn3
 BYTE   W48
 BYTE   PEND 
// 019   ----------------------------------------
 BYTE   N36
 BYTE   W48
 BYTE   En3
 BYTE   W48
// 020   ----------------------------------------
 BYTE   VOL   72*FE5Victory_mvl/mxv
 BYTE   W96
// 021   ----------------------------------------
 BYTE   W96
// 022   ----------------------------------------
 BYTE   W96
// 023   ----------------------------------------
 BYTE   W96
 BYTE   PATT
  POIN2 Label_FE5Victory4_01191D0E
 BYTE   PATT
  POIN2 Label_FE5Victory4_01191D15
// 024   ----------------------------------------
 BYTE   W96
// 025   ----------------------------------------
 BYTE   W96
// 026   ----------------------------------------
 BYTE   N12  Fn2  v100
 BYTE   W96
 BYTE   PATT
  POIN2 Label_FE5Victory4_01191D23
// 027   ----------------------------------------
 BYTE   N12  Fn2  v100
 BYTE   W96
 BYTE   PATT
  POIN2 Label_FE5Victory4_01191D2C
 BYTE   PATT
  POIN2 Label_FE5Victory4_01191D33
 BYTE   PATT
  POIN2 Label_FE5Victory4_01191D40
 BYTE   PATT
  POIN2 Label_FE5Victory4_01191D48
 BYTE   PATT
  POIN2 Label_FE5Victory4_01191D54
 BYTE   PATT
  POIN2 Label_FE5Victory4_01191D5C
 BYTE   PATT
  POIN2 Label_FE5Victory4_01191D67
 BYTE   PATT
  POIN2 Label_FE5Victory4_01191D71
// 028   ----------------------------------------
 BYTE   N36  Dn3  v100
 BYTE   W48
 BYTE   En3
 BYTE   W44
 BYTE   W03
 BYTE   GoTo
  POIN2 Label_FE5Victory4_01191D06
// 029   ----------------------------------------
 BYTE   W01
 BYTE   FINE

//**************** Track 6 (Midi-Chn.5) ****************//

FE5Victory_006:
// 000   ----------------------------------------
 BYTE   KEYSH   FE5Victory_key+0
Label_FE5Victory5_01191DD6:
 BYTE   VOICE   56
 BYTE   VOL   70*FE5Victory_mvl/mxv
 BYTE   W96
// 001   ----------------------------------------
 BYTE   W96
// 002   ----------------------------------------
 BYTE   W96
// 003   ----------------------------------------
 BYTE   W96
// 004   ----------------------------------------
 BYTE   W96
// 005   ----------------------------------------
 BYTE   W96
// 006   ----------------------------------------
 BYTE   W96
// 007   ----------------------------------------
Label_FE5Victory5_01191DE1:
 BYTE   N72  Cn4  v088
 BYTE   W72
 BYTE   N06  Cn3  v100
 BYTE   W06
 BYTE   Fn3
 BYTE   W06
 BYTE   An3
 BYTE   W06
 BYTE   Cn4
 BYTE   W06
 BYTE   PEND 
// 008   ----------------------------------------
 BYTE   N12  Dn3
 BYTE   W96
// 009   ----------------------------------------
Label_FE5Victory5_01191DF3:
 BYTE   N18  Fn3  v100
 BYTE   W48
 BYTE   Cn3
 BYTE   W48
 BYTE   PEND 
// 010   ----------------------------------------
 BYTE   N12  Dn3
 BYTE   W96
// 011   ----------------------------------------
Label_FE5Victory5_01191DFD:
 BYTE   N18  Dn3  v100
 BYTE   W48
 BYTE   En3
 BYTE   W48
 BYTE   PEND 
// 012   ----------------------------------------
Label_FE5Victory5_01191E04:
 BYTE   W36
 BYTE   N06  Gn2  v100
 BYTE   W06
 BYTE   Cn3
 BYTE   W06
 BYTE   N12  En3
 BYTE   W12
 BYTE   N24  Gn3
 BYTE   W24
 BYTE   N06  En3
 BYTE   W12
 BYTE   PEND 
// 013   ----------------------------------------
Label_FE5Victory5_01191E15:
 BYTE   N12  Fs3  v100
 BYTE   W18
 BYTE   N06  An2
 BYTE   W06
 BYTE   N48  Fs3
 BYTE   W60
 BYTE   N12  En3
 BYTE   W12
 BYTE   PEND 
// 014   ----------------------------------------
Label_FE5Victory5_01191E23:
 BYTE   N36  Gn3  v100
 BYTE   W48
 BYTE   N12  En3
 BYTE   W12
 BYTE   N24  Gn3
 BYTE   W24
 BYTE   N06  En3
 BYTE   W12
 BYTE   PEND 
// 015   ----------------------------------------
Label_FE5Victory5_01191E31:
 BYTE   N06  Fs3  v100
 BYTE   W18
 BYTE   Gn3
 BYTE   W06
 BYTE   N48  An3
 BYTE   W72
 BYTE   PEND 
// 016   ----------------------------------------
Label_FE5Victory5_01191E3B:
 BYTE   N36  An3  v100
 BYTE   W48
 BYTE   N24  Gn3
 BYTE   W24
 BYTE   N18  Dn3
 BYTE   W24
 BYTE   PEND 
// 017   ----------------------------------------
Label_FE5Victory5_01191E46:
 BYTE   N84  Gn3  v100
 BYTE   W84
 BYTE   N06  Fn3
 BYTE   W06
 BYTE   Cn3
 BYTE   W06
 BYTE   PEND 
// 018   ----------------------------------------
Label_FE5Victory5_01191E50:
 BYTE   N36  Gn3  v100
 BYTE   W48
 BYTE   Dn3
 BYTE   W48
 BYTE   PEND 
// 019   ----------------------------------------
 BYTE   N36
 BYTE   W48
 BYTE   En3
 BYTE   W48
// 020   ----------------------------------------
 BYTE   VOL   70*FE5Victory_mvl/mxv
 BYTE   W96
// 021   ----------------------------------------
 BYTE   W96
// 022   ----------------------------------------
 BYTE   W96
// 023   ----------------------------------------
 BYTE   W96
// 024   ----------------------------------------
 BYTE   W96
// 025   ----------------------------------------
 BYTE   W96
// 026   ----------------------------------------
 BYTE   W96
 BYTE   PATT
  POIN2 Label_FE5Victory5_01191DE1
// 027   ----------------------------------------
 BYTE   N12  Dn3  v100
 BYTE   W96
 BYTE   PATT
  POIN2 Label_FE5Victory5_01191DF3
// 028   ----------------------------------------
 BYTE   N12  Dn3  v100
 BYTE   W96
 BYTE   PATT
  POIN2 Label_FE5Victory5_01191DFD
 BYTE   PATT
  POIN2 Label_FE5Victory5_01191E04
 BYTE   PATT
  POIN2 Label_FE5Victory5_01191E15
 BYTE   PATT
  POIN2 Label_FE5Victory5_01191E23
 BYTE   PATT
  POIN2 Label_FE5Victory5_01191E31
 BYTE   PATT
  POIN2 Label_FE5Victory5_01191E3B
 BYTE   PATT
  POIN2 Label_FE5Victory5_01191E46
 BYTE   PATT
  POIN2 Label_FE5Victory5_01191E50
// 029   ----------------------------------------
 BYTE   N36  Dn3  v100
 BYTE   W48
 BYTE   En3
 BYTE   W44
 BYTE   W03
 BYTE   GoTo
  POIN2 Label_FE5Victory5_01191DD6
// 030   ----------------------------------------
 BYTE   W01
 BYTE   FINE

//**************** Track 7 (Midi-Chn.6) ****************//

FE5Victory_007:
// 000   ----------------------------------------
 BYTE   KEYSH   FE5Victory_key+0
Label_FE5Victory6_01191EAE:
 BYTE   VOICE   48
 BYTE   VOL   69*FE5Victory_mvl/mxv
 BYTE   W96
// 001   ----------------------------------------
Label_FE5Victory6_01191EB3:
 BYTE   N06  Fn2  v100
 BYTE   W06
 BYTE   Gn2
 BYTE   W06
 BYTE   An2
 BYTE   W06
 BYTE   As2
 BYTE   W06
 BYTE   Gn2
 BYTE   W06
 BYTE   An2
 BYTE   W06
 BYTE   As2
 BYTE   W06
 BYTE   Cn3
 BYTE   W06
 BYTE   An2
 BYTE   W06
 BYTE   As2
 BYTE   W06
 BYTE   Cn3
 BYTE   W06
 BYTE   Dn3
 BYTE   W06
 BYTE   As2
 BYTE   W06
 BYTE   Cn3
 BYTE   W06
 BYTE   Dn3
 BYTE   W06
 BYTE   En3
 BYTE   W06
 BYTE   PEND 
// 002   ----------------------------------------
 BYTE   W96
// 003   ----------------------------------------
Label_FE5Victory6_01191ED7:
 BYTE   W48
 BYTE   N06  Gn2  v100
 BYTE   W06
 BYTE   An2
 BYTE   W06
 BYTE   As2
 BYTE   W06
 BYTE   Dn3
 BYTE   W06
 BYTE   As2
 BYTE   W06
 BYTE   Cn3
 BYTE   W06
 BYTE   Dn3
 BYTE   W06
 BYTE   En3
 BYTE   W06
 BYTE   PEND 
// 004   ----------------------------------------
 BYTE   W96
// 005   ----------------------------------------
 BYTE   W12
 BYTE   N36  Gn2
 BYTE   W84
// 006   ----------------------------------------
 BYTE   W96
// 007   ----------------------------------------
Label_FE5Victory6_01191EF1:
 BYTE   N72  Fn4  v088
 BYTE   W72
 BYTE   N06  Cn3  v100
 BYTE   W06
 BYTE   Fn3
 BYTE   W06
 BYTE   An3
 BYTE   W06
 BYTE   Cn4
 BYTE   W06
 BYTE   PEND 
// 008   ----------------------------------------
 BYTE   N12  Dn3
 BYTE   W96
// 009   ----------------------------------------
Label_FE5Victory6_01191F03:
 BYTE   N18  Fn3  v100
 BYTE   W48
 BYTE   Cn3
 BYTE   W48
 BYTE   PEND 
// 010   ----------------------------------------
Label_FE5Victory6_01191F0A:
 BYTE   N12  Dn3  v100
 BYTE   W36
 BYTE   N06  Fn3
 BYTE   W06
 BYTE   An3
 BYTE   W06
 BYTE   Cn4
 BYTE   W06
 BYTE   Fn4
 BYTE   W06
 BYTE   Cn4
 BYTE   W06
 BYTE   An3
 BYTE   W06
 BYTE   Fn4
 BYTE   W06
 BYTE   Cn4
 BYTE   W06
 BYTE   An3
 BYTE   W06
 BYTE   Fn3
 BYTE   W06
 BYTE   PEND 
// 011   ----------------------------------------
Label_FE5Victory6_01191F24:
 BYTE   N18  Dn3  v100
 BYTE   W48
 BYTE   En3
 BYTE   W48
 BYTE   PEND 
// 012   ----------------------------------------
 BYTE   N96  En5  v080
 BYTE   W96
// 013   ----------------------------------------
Label_FE5Victory6_01191F2F:
 BYTE   N48  En5  v080
 BYTE   W48
 BYTE   Dn5
 BYTE   W48
 BYTE   PEND 
// 014   ----------------------------------------
Label_FE5Victory6_01191F36:
 BYTE   N48  En5  v080
 BYTE   W48
 BYTE   N36  Cn5
 BYTE   W36
 BYTE   N06  Gn5
 BYTE   W12
 BYTE   PEND 
// 015   ----------------------------------------
 BYTE   N72  Fs5
 BYTE   W96
// 016   ----------------------------------------
 BYTE   W96
// 017   ----------------------------------------
 BYTE   W96
// 018   ----------------------------------------
 BYTE   W96
// 019   ----------------------------------------
 BYTE   W96
// 020   ----------------------------------------
 BYTE   VOL   69*FE5Victory_mvl/mxv
 BYTE   W96
 BYTE   PATT
  POIN2 Label_FE5Victory6_01191EB3
// 021   ----------------------------------------
 BYTE   W96
 BYTE   PATT
  POIN2 Label_FE5Victory6_01191ED7
// 022   ----------------------------------------
 BYTE   W96
// 023   ----------------------------------------
 BYTE   W12
 BYTE   N36  Gn2  v100
 BYTE   W84
// 024   ----------------------------------------
 BYTE   W96
 BYTE   PATT
  POIN2 Label_FE5Victory6_01191EF1
// 025   ----------------------------------------
 BYTE   N12  Dn3  v100
 BYTE   W96
 BYTE   PATT
  POIN2 Label_FE5Victory6_01191F03
 BYTE   PATT
  POIN2 Label_FE5Victory6_01191F0A
 BYTE   PATT
  POIN2 Label_FE5Victory6_01191F24
// 026   ----------------------------------------
 BYTE   N96  En5  v080
 BYTE   W96
 BYTE   PATT
  POIN2 Label_FE5Victory6_01191F2F
 BYTE   PATT
  POIN2 Label_FE5Victory6_01191F36
// 027   ----------------------------------------
 BYTE   N72  Fs5  v080
 BYTE   W96
// 028   ----------------------------------------
 BYTE   W96
// 029   ----------------------------------------
 BYTE   W96
// 030   ----------------------------------------
 BYTE   W96
// 031   ----------------------------------------
 BYTE   W92
 BYTE   W03
 BYTE   GoTo
  POIN2 Label_FE5Victory6_01191EAE
// 032   ----------------------------------------
 BYTE   W01
 BYTE   FINE

//**************** Track 8 (Midi-Chn.7) ****************//

FE5Victory_008:
// 000   ----------------------------------------
 BYTE   KEYSH   FE5Victory_key+0
Label_FE5Victory7_01191F96:
 BYTE   VOICE   58
 BYTE   VOL   62*FE5Victory_mvl/mxv
 BYTE   N24  Fn1  v100
 BYTE   W24
 BYTE   N24
 BYTE   W24
 BYTE   N24
 BYTE   W24
 BYTE   N12
 BYTE   W12
 BYTE   Cn1
 BYTE   W12
// 001   ----------------------------------------
Label_FE5Victory7_01191FA6:
 BYTE   N24  Fn1  v100
 BYTE   W24
 BYTE   N24
 BYTE   W24
 BYTE   N24
 BYTE   W24
 BYTE   N12
 BYTE   W12
 BYTE   Cn1
 BYTE   W12
 BYTE   PEND 
 BYTE   PATT
  POIN2 Label_FE5Victory7_01191FA6
 BYTE   PATT
  POIN2 Label_FE5Victory7_01191FA6
 BYTE   PATT
  POIN2 Label_FE5Victory7_01191FA6
 BYTE   PATT
  POIN2 Label_FE5Victory7_01191FA6
 BYTE   PATT
  POIN2 Label_FE5Victory7_01191FA6
 BYTE   PATT
  POIN2 Label_FE5Victory7_01191FA6
// 002   ----------------------------------------
 BYTE   N12  As1  v100
 BYTE   W96
// 003   ----------------------------------------
Label_FE5Victory7_01191FD5:
 BYTE   N18  An1  v100
 BYTE   W48
 BYTE   N18
 BYTE   W48
 BYTE   PEND 
// 004   ----------------------------------------
 BYTE   N12  Cn1
 BYTE   W96
// 005   ----------------------------------------
Label_FE5Victory7_01191FDF:
 BYTE   N18  Cn1  v100
 BYTE   W48
 BYTE   N18
 BYTE   W48
 BYTE   PEND 
// 006   ----------------------------------------
Label_FE5Victory7_01191FE6:
 BYTE   N24  Cn1  v100
 BYTE   W24
 BYTE   N24
 BYTE   W24
 BYTE   N24
 BYTE   W24
 BYTE   N24
 BYTE   W24
 BYTE   PEND 
 BYTE   PATT
  POIN2 Label_FE5Victory7_01191FE6
 BYTE   PATT
  POIN2 Label_FE5Victory7_01191FE6
 BYTE   PATT
  POIN2 Label_FE5Victory7_01191FE6
// 007   ----------------------------------------
 BYTE   N96  Bn0  v100
 BYTE   W96
// 008   ----------------------------------------
 BYTE   As0
 BYTE   W96
// 009   ----------------------------------------
 BYTE   An0
 BYTE   W96
// 010   ----------------------------------------
 BYTE   N48  Gn0
 BYTE   W48
 BYTE   En1
 BYTE   W48
// 011   ----------------------------------------
 BYTE   VOL   62*FE5Victory_mvl/mxv
 BYTE   N24  Fn1
 BYTE   W24
 BYTE   N24
 BYTE   W24
 BYTE   N24
 BYTE   W24
 BYTE   N12
 BYTE   W12
 BYTE   Cn1
 BYTE   W12
 BYTE   PATT
  POIN2 Label_FE5Victory7_01191FA6
 BYTE   PATT
  POIN2 Label_FE5Victory7_01191FA6
 BYTE   PATT
  POIN2 Label_FE5Victory7_01191FA6
 BYTE   PATT
  POIN2 Label_FE5Victory7_01191FA6
 BYTE   PATT
  POIN2 Label_FE5Victory7_01191FA6
 BYTE   PATT
  POIN2 Label_FE5Victory7_01191FA6
 BYTE   PATT
  POIN2 Label_FE5Victory7_01191FA6
// 012   ----------------------------------------
 BYTE   N12  As1  v100
 BYTE   W96
 BYTE   PATT
  POIN2 Label_FE5Victory7_01191FD5
// 013   ----------------------------------------
 BYTE   N12  Cn1  v100
 BYTE   W96
 BYTE   PATT
  POIN2 Label_FE5Victory7_01191FDF
 BYTE   PATT
  POIN2 Label_FE5Victory7_01191FE6
 BYTE   PATT
  POIN2 Label_FE5Victory7_01191FE6
 BYTE   PATT
  POIN2 Label_FE5Victory7_01191FE6
 BYTE   PATT
  POIN2 Label_FE5Victory7_01191FE6
// 014   ----------------------------------------
 BYTE   N96  Bn0  v100
 BYTE   W96
// 015   ----------------------------------------
 BYTE   As0
 BYTE   W96
// 016   ----------------------------------------
 BYTE   An0
 BYTE   W96
// 017   ----------------------------------------
 BYTE   N48  Gn0
 BYTE   W48
 BYTE   En1
 BYTE   W44
 BYTE   W03
 BYTE   GoTo
  POIN2 Label_FE5Victory7_01191F96
// 018   ----------------------------------------
 BYTE   W01
 BYTE   FINE

//**************** Track 9 (Midi-Chn.8) ****************//

FE5Victory_009:
// 000   ----------------------------------------
 BYTE   KEYSH   FE5Victory_key+0
Label_FE5Victory8_0119207A:
 BYTE   VOICE   47
 BYTE   VOL   48*FE5Victory_mvl/mxv
 BYTE   N24  Fn2  v100
 BYTE   W24
 BYTE   N24
 BYTE   W24
 BYTE   N24
 BYTE   W24
 BYTE   N12
 BYTE   W12
 BYTE   Cn2
 BYTE   W12
// 001   ----------------------------------------
Label_FE5Victory8_0119208A:
 BYTE   N24  Fn2  v100
 BYTE   W24
 BYTE   N24
 BYTE   W24
 BYTE   N24
 BYTE   W24
 BYTE   N12
 BYTE   W12
 BYTE   Cn2
 BYTE   W12
 BYTE   PEND 
 BYTE   PATT
  POIN2 Label_FE5Victory8_0119208A
 BYTE   PATT
  POIN2 Label_FE5Victory8_0119208A
 BYTE   PATT
  POIN2 Label_FE5Victory8_0119208A
 BYTE   PATT
  POIN2 Label_FE5Victory8_0119208A
 BYTE   PATT
  POIN2 Label_FE5Victory8_0119208A
 BYTE   PATT
  POIN2 Label_FE5Victory8_0119208A
// 002   ----------------------------------------
 BYTE   W96
// 003   ----------------------------------------
 BYTE   W96
// 004   ----------------------------------------
 BYTE   W96
// 005   ----------------------------------------
 BYTE   W96
// 006   ----------------------------------------
 BYTE   W96
// 007   ----------------------------------------
 BYTE   W96
// 008   ----------------------------------------
 BYTE   W96
// 009   ----------------------------------------
 BYTE   W96
// 010   ----------------------------------------
Label_FE5Victory8_011920BD:
 BYTE   N12  Fn2  v100
 BYTE   W12
 BYTE   N06  Cn2
 BYTE   W06
 BYTE   N06
 BYTE   W06
 BYTE   N12  Fn2
 BYTE   W12
 BYTE   N06  Cn2
 BYTE   W06
 BYTE   N06
 BYTE   W06
 BYTE   N12  Fn2
 BYTE   W12
 BYTE   N06  Cn2
 BYTE   W06
 BYTE   N06
 BYTE   W06
 BYTE   N12  Fn2
 BYTE   W12
 BYTE   Cn2
 BYTE   W12
 BYTE   PEND 
 BYTE   PATT
  POIN2 Label_FE5Victory8_011920BD
 BYTE   PATT
  POIN2 Label_FE5Victory8_011920BD
 BYTE   PATT
  POIN2 Label_FE5Victory8_011920BD
// 011   ----------------------------------------
 BYTE   VOL   48*FE5Victory_mvl/mxv
 BYTE   N24  Fn2  v100
 BYTE   W24
 BYTE   N24
 BYTE   W24
 BYTE   N24
 BYTE   W24
 BYTE   N12
 BYTE   W12
 BYTE   Cn2
 BYTE   W12
 BYTE   PATT
  POIN2 Label_FE5Victory8_0119208A
 BYTE   PATT
  POIN2 Label_FE5Victory8_0119208A
 BYTE   PATT
  POIN2 Label_FE5Victory8_0119208A
 BYTE   PATT
  POIN2 Label_FE5Victory8_0119208A
 BYTE   PATT
  POIN2 Label_FE5Victory8_0119208A
 BYTE   PATT
  POIN2 Label_FE5Victory8_0119208A
 BYTE   PATT
  POIN2 Label_FE5Victory8_0119208A
// 012   ----------------------------------------
 BYTE   W96
// 013   ----------------------------------------
 BYTE   W96
// 014   ----------------------------------------
 BYTE   W96
// 015   ----------------------------------------
 BYTE   W96
// 016   ----------------------------------------
 BYTE   W96
// 017   ----------------------------------------
 BYTE   W96
// 018   ----------------------------------------
 BYTE   W96
// 019   ----------------------------------------
 BYTE   W96
 BYTE   PATT
  POIN2 Label_FE5Victory8_011920BD
 BYTE   PATT
  POIN2 Label_FE5Victory8_011920BD
 BYTE   PATT
  POIN2 Label_FE5Victory8_011920BD
// 020   ----------------------------------------
 BYTE   N12  Fn2  v100
 BYTE   W12
 BYTE   N06  Cn2
 BYTE   W06
 BYTE   N06
 BYTE   W06
 BYTE   N12  Fn2
 BYTE   W12
 BYTE   N06  Cn2
 BYTE   W06
 BYTE   N06
 BYTE   W06
 BYTE   N12  Fn2
 BYTE   W12
 BYTE   N06  Cn2
 BYTE   W06
 BYTE   N06
 BYTE   W06
 BYTE   N12  Fn2
 BYTE   W12
 BYTE   Cn2
 BYTE   W11
 BYTE   GoTo
  POIN2 Label_FE5Victory8_0119207A
// 021   ----------------------------------------
 BYTE   W01
 BYTE   FINE

//**************** Track 10 (Midi-Chn.9) ****************//

FE5Victory_010:
// 000   ----------------------------------------
 BYTE   KEYSH   FE5Victory_key+0
Label_FE5Victory9_0119215A:
 BYTE   VOICE   0
 BYTE   VOL   48*FE5Victory_mvl/mxv
 BYTE   N06  Dn1  v100
 BYTE   N06  En1  v072
 BYTE   W24
 BYTE   Dn1  v100
 BYTE   N06  En1  v072
 BYTE   W24
 BYTE   Dn1  v100
 BYTE   N06  En1  v072
 BYTE   W24
 BYTE   N03  Dn1  v080
 BYTE   N03  En1  v056
 BYTE   W03
 BYTE   Dn1  v072
 BYTE   N03  En1  v052
 BYTE   W03
 BYTE   Dn1  v060
 BYTE   N03  En1  v040
 BYTE   W03
 BYTE   Dn1  v068
 BYTE   N03  En1  v048
 BYTE   W03
 BYTE   Dn1  v060
 BYTE   N03  En1  v040
 BYTE   N06  Fn1  v100
 BYTE   W03
 BYTE   N03  Dn1  v068
 BYTE   N03  En1  v048
 BYTE   W03
 BYTE   Dn1  v060
 BYTE   N03  En1  v040
 BYTE   W03
 BYTE   Dn1  v068
 BYTE   N03  En1  v048
 BYTE   W03
// 001   ----------------------------------------
Label_FE5Victory9_011921A6:
 BYTE   N06  Dn1  v100
 BYTE   N06  En1  v072
 BYTE   W24
 BYTE   Dn1  v100
 BYTE   N06  En1  v072
 BYTE   W24
 BYTE   Dn1  v100
 BYTE   N06  En1  v072
 BYTE   W24
 BYTE   N03  Dn1  v080
 BYTE   N03  En1  v056
 BYTE   W03
 BYTE   Dn1  v072
 BYTE   N03  En1  v052
 BYTE   W03
 BYTE   Dn1  v060
 BYTE   N03  En1  v040
 BYTE   W03
 BYTE   Dn1  v068
 BYTE   N03  En1  v048
 BYTE   W03
 BYTE   Dn1  v060
 BYTE   N03  En1  v040
 BYTE   N06  Fn1  v100
 BYTE   W03
 BYTE   N03  Dn1  v068
 BYTE   N03  En1  v048
 BYTE   W03
 BYTE   Dn1  v060
 BYTE   N03  En1  v040
 BYTE   W03
 BYTE   Dn1  v068
 BYTE   N03  En1  v048
 BYTE   W03
 BYTE   PEND 
 BYTE   PATT
  POIN2 Label_FE5Victory9_011921A6
 BYTE   PATT
  POIN2 Label_FE5Victory9_011921A6
 BYTE   PATT
  POIN2 Label_FE5Victory9_011921A6
 BYTE   PATT
  POIN2 Label_FE5Victory9_011921A6
 BYTE   PATT
  POIN2 Label_FE5Victory9_011921A6
 BYTE   PATT
  POIN2 Label_FE5Victory9_011921A6
// 002   ----------------------------------------
Label_FE5Victory9_0119220D:
 BYTE   N06  Dn1  v100
 BYTE   N06  En1  v072
 BYTE   W12
 BYTE   Dn1
 BYTE   N06  En1  v040
 BYTE   W06
 BYTE   Dn1  v072
 BYTE   N06  En1  v040
 BYTE   W06
 BYTE   Dn1  v100
 BYTE   N06  En1  v072
 BYTE   W12
 BYTE   Dn1
 BYTE   N06  En1  v040
 BYTE   W06
 BYTE   Dn1  v072
 BYTE   N06  En1  v040
 BYTE   W06
 BYTE   Dn1  v100
 BYTE   N06  En1  v072
 BYTE   W12
 BYTE   Dn1  v100
 BYTE   N06  En1  v072
 BYTE   W24
 BYTE   Dn1
 BYTE   N06  En1  v040
 BYTE   W12
 BYTE   PEND 
 BYTE   PATT
  POIN2 Label_FE5Victory9_0119220D
 BYTE   PATT
  POIN2 Label_FE5Victory9_0119220D
 BYTE   PATT
  POIN2 Label_FE5Victory9_0119220D
// 003   ----------------------------------------
Label_FE5Victory9_01192251:
 BYTE   N06  Dn1  v100
 BYTE   N06  En1  v072
 BYTE   W12
 BYTE   Dn1
 BYTE   N06  En1  v040
 BYTE   W06
 BYTE   Dn1  v072
 BYTE   N06  En1  v040
 BYTE   W06
 BYTE   Dn1  v100
 BYTE   N06  En1  v072
 BYTE   W12
 BYTE   Dn1
 BYTE   N06  En1  v040
 BYTE   W06
 BYTE   Dn1  v072
 BYTE   N06  En1  v040
 BYTE   W06
 BYTE   Dn1  v100
 BYTE   N06  En1  v072
 BYTE   W12
 BYTE   Dn1
 BYTE   N06  En1  v040
 BYTE   W06
 BYTE   Dn1  v072
 BYTE   N06  En1  v040
 BYTE   W06
 BYTE   Dn1  v100
 BYTE   N06  En1  v072
 BYTE   W12
 BYTE   Dn1
 BYTE   N06  En1  v040
 BYTE   W06
 BYTE   Dn1  v072
 BYTE   N06  En1  v040
 BYTE   W06
 BYTE   PEND 
 BYTE   PATT
  POIN2 Label_FE5Victory9_01192251
 BYTE   PATT
  POIN2 Label_FE5Victory9_01192251
 BYTE   PATT
  POIN2 Label_FE5Victory9_01192251
// 004   ----------------------------------------
Label_FE5Victory9_011922A6:
 BYTE   N06  Dn1  v100
 BYTE   N06  En1  v072
 BYTE   W12
 BYTE   Dn1
 BYTE   N06  En1  v040
 BYTE   W06
 BYTE   Dn1  v072
 BYTE   N06  En1  v040
 BYTE   W06
 BYTE   Dn1  v100
 BYTE   N06  En1  v072
 BYTE   W12
 BYTE   Dn1
 BYTE   N06  En1  v040
 BYTE   W06
 BYTE   Dn1  v072
 BYTE   N06  En1  v040
 BYTE   W06
 BYTE   Dn1  v100
 BYTE   N06  En1  v072
 BYTE   W12
 BYTE   Dn1
 BYTE   N06  En1  v040
 BYTE   W06
 BYTE   Dn1  v072
 BYTE   N06  En1  v040
 BYTE   W06
 BYTE   Dn1  v100
 BYTE   N06  En1  v072
 BYTE   W12
 BYTE   Fn1  v100
 BYTE   W12
 BYTE   PEND 
// 005   ----------------------------------------
Label_FE5Victory9_011922E4:
 BYTE   N06  Dn1  v100
 BYTE   N06  En1  v072
 BYTE   W12
 BYTE   Dn1
 BYTE   N06  En1  v040
 BYTE   W06
 BYTE   Dn1  v072
 BYTE   N06  En1  v040
 BYTE   W06
 BYTE   Dn1  v100
 BYTE   N06  En1  v072
 BYTE   W12
 BYTE   Dn1
 BYTE   N06  En1  v040
 BYTE   W06
 BYTE   Dn1  v072
 BYTE   N06  En1  v040
 BYTE   W06
 BYTE   Dn1  v100
 BYTE   N06  En1  v072
 BYTE   W12
 BYTE   Dn1
 BYTE   N06  En1  v040
 BYTE   W06
 BYTE   Dn1  v072
 BYTE   N06  En1  v040
 BYTE   W06
 BYTE   Dn1  v100
 BYTE   N06  En1  v072
 BYTE   W12
 BYTE   Fn1  v100
 BYTE   W06
 BYTE   N06
 BYTE   W06
 BYTE   PEND 
 BYTE   PATT
  POIN2 Label_FE5Victory9_011922E4
 BYTE   PATT
  POIN2 Label_FE5Victory9_011922A6
// 006   ----------------------------------------
 BYTE   VOL   48*FE5Victory_mvl/mxv
 BYTE   N06  Dn1  v100
 BYTE   N06  En1  v072
 BYTE   W24
 BYTE   Dn1  v100
 BYTE   N06  En1  v072
 BYTE   W24
 BYTE   Dn1  v100
 BYTE   N06  En1  v072
 BYTE   W24
 BYTE   N03  Dn1  v080
 BYTE   N03  En1  v056
 BYTE   W03
 BYTE   Dn1  v072
 BYTE   N03  En1  v052
 BYTE   W03
 BYTE   Dn1  v060
 BYTE   N03  En1  v040
 BYTE   W03
 BYTE   Dn1  v068
 BYTE   N03  En1  v048
 BYTE   W03
 BYTE   Dn1  v060
 BYTE   N03  En1  v040
 BYTE   N06  Fn1  v100
 BYTE   W03
 BYTE   N03  Dn1  v068
 BYTE   N03  En1  v048
 BYTE   W03
 BYTE   Dn1  v060
 BYTE   N03  En1  v040
 BYTE   W03
 BYTE   Dn1  v068
 BYTE   N03  En1  v048
 BYTE   W03
 BYTE   PATT
  POIN2 Label_FE5Victory9_011921A6
 BYTE   PATT
  POIN2 Label_FE5Victory9_011921A6
 BYTE   PATT
  POIN2 Label_FE5Victory9_011921A6
 BYTE   PATT
  POIN2 Label_FE5Victory9_011921A6
 BYTE   PATT
  POIN2 Label_FE5Victory9_011921A6
 BYTE   PATT
  POIN2 Label_FE5Victory9_011921A6
 BYTE   PATT
  POIN2 Label_FE5Victory9_011921A6
 BYTE   PATT
  POIN2 Label_FE5Victory9_0119220D
 BYTE   PATT
  POIN2 Label_FE5Victory9_0119220D
 BYTE   PATT
  POIN2 Label_FE5Victory9_0119220D
 BYTE   PATT
  POIN2 Label_FE5Victory9_0119220D
 BYTE   PATT
  POIN2 Label_FE5Victory9_01192251
 BYTE   PATT
  POIN2 Label_FE5Victory9_01192251
 BYTE   PATT
  POIN2 Label_FE5Victory9_01192251
 BYTE   PATT
  POIN2 Label_FE5Victory9_01192251
 BYTE   PATT
  POIN2 Label_FE5Victory9_011922A6
 BYTE   PATT
  POIN2 Label_FE5Victory9_011922E4
 BYTE   PATT
  POIN2 Label_FE5Victory9_011922E4
// 007   ----------------------------------------
 BYTE   N06  Dn1  v100
 BYTE   N06  En1  v072
 BYTE   W12
 BYTE   Dn1
 BYTE   N06  En1  v040
 BYTE   W06
 BYTE   Dn1  v072
 BYTE   N06  En1  v040
 BYTE   W06
 BYTE   Dn1  v100
 BYTE   N06  En1  v072
 BYTE   W12
 BYTE   Dn1
 BYTE   N06  En1  v040
 BYTE   W06
 BYTE   Dn1  v072
 BYTE   N06  En1  v040
 BYTE   W06
 BYTE   Dn1  v100
 BYTE   N06  En1  v072
 BYTE   W12
 BYTE   Dn1
 BYTE   N06  En1  v040
 BYTE   W06
 BYTE   Dn1  v072
 BYTE   N06  En1  v040
 BYTE   W06
 BYTE   Dn1  v100
 BYTE   N06  En1  v072
 BYTE   W12
 BYTE   Fn1  v100
 BYTE   W11
 BYTE   GoTo
  POIN2 Label_FE5Victory9_0119215A
// 008   ----------------------------------------
 BYTE   W01
 BYTE   FINE

//**************** Track 11 (Midi-Chn.10) ****************//

FE5Victory_011:
// 000   ----------------------------------------
 BYTE   KEYSH   FE5Victory_key+0
Label_FE5Victory10_0119241A:
 BYTE   VOICE   47
 BYTE   VOL   56*FE5Victory_mvl/mxv
 BYTE   N24  Fn1  v100
 BYTE   W24
 BYTE   N24
 BYTE   W24
 BYTE   N24
 BYTE   W24
 BYTE   N12
 BYTE   W12
 BYTE   Cn1
 BYTE   W12
// 001   ----------------------------------------
Label_FE5Victory10_0119242A:
 BYTE   N24  Fn1  v100
 BYTE   W24
 BYTE   N24
 BYTE   W24
 BYTE   N24
 BYTE   W24
 BYTE   N12
 BYTE   W12
 BYTE   Cn1
 BYTE   W12
 BYTE   PEND 
 BYTE   PATT
  POIN2 Label_FE5Victory10_0119242A
 BYTE   PATT
  POIN2 Label_FE5Victory10_0119242A
 BYTE   PATT
  POIN2 Label_FE5Victory10_0119242A
 BYTE   PATT
  POIN2 Label_FE5Victory10_0119242A
 BYTE   PATT
  POIN2 Label_FE5Victory10_0119242A
 BYTE   PATT
  POIN2 Label_FE5Victory10_0119242A
// 002   ----------------------------------------
 BYTE   W96
// 003   ----------------------------------------
 BYTE   W96
// 004   ----------------------------------------
 BYTE   W96
// 005   ----------------------------------------
 BYTE   W96
// 006   ----------------------------------------
 BYTE   W96
// 007   ----------------------------------------
 BYTE   W96
// 008   ----------------------------------------
 BYTE   W96
// 009   ----------------------------------------
 BYTE   W96
// 010   ----------------------------------------
Label_FE5Victory10_0119245D:
 BYTE   N12  Fn1  v100
 BYTE   W12
 BYTE   N06  Cn1
 BYTE   W06
 BYTE   N06
 BYTE   W06
 BYTE   N12  Fn1
 BYTE   W12
 BYTE   N06  Cn1
 BYTE   W06
 BYTE   N06
 BYTE   W06
 BYTE   N12  Fn1
 BYTE   W12
 BYTE   N06  Cn1
 BYTE   W06
 BYTE   N06
 BYTE   W06
 BYTE   N12  Fn1
 BYTE   W12
 BYTE   Cn1
 BYTE   W12
 BYTE   PEND 
 BYTE   PATT
  POIN2 Label_FE5Victory10_0119245D
 BYTE   PATT
  POIN2 Label_FE5Victory10_0119245D
 BYTE   PATT
  POIN2 Label_FE5Victory10_0119245D
// 011   ----------------------------------------
 BYTE   VOL   56*FE5Victory_mvl/mxv
 BYTE   N24  Fn1  v100
 BYTE   W24
 BYTE   N24
 BYTE   W24
 BYTE   N24
 BYTE   W24
 BYTE   N12
 BYTE   W12
 BYTE   Cn1
 BYTE   W12
 BYTE   PATT
  POIN2 Label_FE5Victory10_0119242A
 BYTE   PATT
  POIN2 Label_FE5Victory10_0119242A
 BYTE   PATT
  POIN2 Label_FE5Victory10_0119242A
 BYTE   PATT
  POIN2 Label_FE5Victory10_0119242A
 BYTE   PATT
  POIN2 Label_FE5Victory10_0119242A
 BYTE   PATT
  POIN2 Label_FE5Victory10_0119242A
 BYTE   PATT
  POIN2 Label_FE5Victory10_0119242A
// 012   ----------------------------------------
 BYTE   W96
// 013   ----------------------------------------
 BYTE   W96
// 014   ----------------------------------------
 BYTE   W96
// 015   ----------------------------------------
 BYTE   W96
// 016   ----------------------------------------
 BYTE   W96
// 017   ----------------------------------------
 BYTE   W96
// 018   ----------------------------------------
 BYTE   W96
// 019   ----------------------------------------
 BYTE   W96
 BYTE   PATT
  POIN2 Label_FE5Victory10_0119245D
 BYTE   PATT
  POIN2 Label_FE5Victory10_0119245D
 BYTE   PATT
  POIN2 Label_FE5Victory10_0119245D
// 020   ----------------------------------------
 BYTE   N12  Fn1  v100
 BYTE   W12
 BYTE   N06  Cn1
 BYTE   W06
 BYTE   N06
 BYTE   W06
 BYTE   N12  Fn1
 BYTE   W12
 BYTE   N06  Cn1
 BYTE   W06
 BYTE   N06
 BYTE   W06
 BYTE   N12  Fn1
 BYTE   W12
 BYTE   N06  Cn1
 BYTE   W06
 BYTE   N06
 BYTE   W06
 BYTE   N12  Fn1
 BYTE   W12
 BYTE   Cn1
 BYTE   W11
 BYTE   GoTo
  POIN2 Label_FE5Victory10_0119241A
// 021   ----------------------------------------
 BYTE   W01
 BYTE   FINE

//******************************************************//
	ALIGN 4

songFE5Victory:
	BYTE	11	// NumTrks
	BYTE	0	// NumBlks
	BYTE	FE5Victory_pri	// Priority
	BYTE	FE5Victory_rev	// Reverb.
    
	POIN2	FE5Victory_grp
    
	POIN2	FE5Victory_001
	POIN2	FE5Victory_002
	POIN2	FE5Victory_003
	POIN2	FE5Victory_004
	POIN2	FE5Victory_005
	POIN2	FE5Victory_006
	POIN2	FE5Victory_007
	POIN2	FE5Victory_008
	POIN2	FE5Victory_009
	POIN2	FE5Victory_010
	POIN2	FE5Victory_011

	
