//Event file generated from Sappy .s format.
	#include "MPlayDef.event"

	#define	songFightingOfTheSpirit_grp  voicegroup000
	#define	songFightingOfTheSpirit_pri  0
	#define	songFightingOfTheSpirit_rev  0
	#define	songFightingOfTheSpirit_mvl  55
	#define	songFightingOfTheSpirit_key  0
	#define	songFightingOfTheSpirit_tbs  1
	#define	songFightingOfTheSpirit_exg  0
	#define	songFightingOfTheSpirit_cmp  1

	// .rodata
	//	songFightingOfTheSpirit
	ALIGN 4

//**************** Track 1 (Midi-Chn.1) ****************//

songFightingOfTheSpirit_1:
	BYTE	KEYSH   songFightingOfTheSpirit_key+0
songFightingOfTheSpirit_1_B1:
// 000   ----------------------------------------
	BYTE	TEMPO   181*songFightingOfTheSpirit_tbs/2
	BYTE		VOICE   40
	BYTE		VOL     127*songFightingOfTheSpirit_mvl/mxv
	BYTE		PAN     c_v+0
	BYTE		TIE     An1   v096
	BYTE		TIE     En2 
	BYTE	W96
// 001   ----------------------------------------
	BYTE	W92
	BYTE	W03
	BYTE		EOT     An1 
	BYTE		        En2 
	BYTE	W01
// 002   ----------------------------------------
	BYTE		TIE     An1 
	BYTE		TIE     En2 
	BYTE	W96
// 003   ----------------------------------------
	BYTE	W48
	BYTE		N03     Cn3 
	BYTE	W03
	BYTE		        Cs3 
	BYTE	W04
	BYTE		        Dn3 
	BYTE	W05
	BYTE		        Ds3 
	BYTE	W03
	BYTE		        En3 
	BYTE	W04
	BYTE		        Fn3 
	BYTE	W05
	BYTE		        Fs3 
	BYTE	W03
	BYTE		        Gn3 
	BYTE	W04
	BYTE		        Gs3 
	BYTE	W05
	BYTE		        An3 
	BYTE	W03
	BYTE		        As3 
	BYTE	W04
	BYTE		        Bn3 
	BYTE	W04
	BYTE		EOT     An1 
	BYTE		        En2 
	BYTE	W01
// 004   ----------------------------------------
songFightingOfTheSpirit_1_004:
	BYTE		N32     Cn4   v096
	BYTE	W36
	BYTE		        Bn3 
	BYTE	W36
	BYTE		N80     An3 
	BYTE	W24
	BYTE	PEND
// 005   ----------------------------------------
songFightingOfTheSpirit_1_005:
	BYTE	W60
	BYTE		N11     Bn3   v096
	BYTE	W12
	BYTE		        Cn4 
	BYTE	W12
	BYTE		        Dn4 
	BYTE	W12
	BYTE	PEND
// 006   ----------------------------------------
songFightingOfTheSpirit_1_006:
	BYTE		N32     En4   v096
	BYTE	W36
	BYTE		N80     An3 
	BYTE	W60
	BYTE	PEND
// 007   ----------------------------------------
songFightingOfTheSpirit_1_007:
	BYTE	W24
	BYTE		N23     Bn3   v096
	BYTE	W24
	BYTE		        Cn4 
	BYTE	W24
	BYTE		        Dn4 
	BYTE	W24
	BYTE	PEND
// 008   ----------------------------------------
songFightingOfTheSpirit_1_008:
	BYTE		N11     Cn4   v096
	BYTE	W12
	BYTE		        Bn3 
	BYTE	W24
	BYTE		        Gn3 
	BYTE	W24
	BYTE		N11   
	BYTE	W24
	BYTE		N32   
	BYTE	W12
	BYTE	PEND
// 009   ----------------------------------------
	BYTE	PATT
	 POIN2	songFightingOfTheSpirit_1_007
// 010   ----------------------------------------
songFightingOfTheSpirit_1_010:
	BYTE		N11     Cn4   v096
	BYTE	W12
	BYTE		        Bn3 
	BYTE	W24
	BYTE		N56     An3 
	BYTE	W60
	BYTE	PEND
// 011   ----------------------------------------
	BYTE		N92     En3 
	BYTE	W96
// 012   ----------------------------------------
	BYTE	PATT
	 POIN2	songFightingOfTheSpirit_1_004
// 013   ----------------------------------------
	BYTE	PATT
	 POIN2	songFightingOfTheSpirit_1_005
// 014   ----------------------------------------
songFightingOfTheSpirit_1_014:
	BYTE		N44     En4   v096
	BYTE	W48
	BYTE		N32     Dn4 
	BYTE	W36
	BYTE		N11     Cn4 
	BYTE	W12
	BYTE	PEND
// 015   ----------------------------------------
songFightingOfTheSpirit_1_015:
	BYTE		N32     Bn3   v096
	BYTE	W36
	BYTE		N56     An3 
	BYTE	W60
	BYTE	PEND
// 016   ----------------------------------------
songFightingOfTheSpirit_1_016:
	BYTE		N23     An3   v096
	BYTE	W24
	BYTE		N11     Bn3 
	BYTE	W12
	BYTE		        Cn4 
	BYTE	W24
	BYTE		        Dn4 
	BYTE	W24
	BYTE		N32     En4 
	BYTE	W12
	BYTE	PEND
// 017   ----------------------------------------
songFightingOfTheSpirit_1_017:
	BYTE	W24
	BYTE		N11     Dn4   v096
	BYTE	W24
	BYTE		        Cn4 
	BYTE	W24
	BYTE		        Bn3 
	BYTE	W24
	BYTE	PEND
// 018   ----------------------------------------
songFightingOfTheSpirit_1_018:
	BYTE		N11     Cn4   v096
	BYTE	W12
	BYTE		        Bn3 
	BYTE	W24
	BYTE		BEND    c_v+26
	BYTE		TIE     En3 
	BYTE	W36
	BYTE	W03
	BYTE		BEND    c_v+26
	BYTE	W01
	BYTE		        c_v+25
	BYTE	W01
	BYTE		        c_v+24
	BYTE	W01
	BYTE		        c_v+24
	BYTE	W01
	BYTE		        c_v+23
	BYTE	W01
	BYTE		        c_v+22
	BYTE	W01
	BYTE		        c_v+22
	BYTE	W01
	BYTE		        c_v+21
	BYTE	W01
	BYTE		        c_v+20
	BYTE	W01
	BYTE		        c_v+20
	BYTE	W01
	BYTE		        c_v+19
	BYTE	W01
	BYTE		        c_v+18
	BYTE	W01
	BYTE		        c_v+17
	BYTE	W01
	BYTE		        c_v+17
	BYTE	W01
	BYTE		        c_v+16
	BYTE	W01
	BYTE		        c_v+16
	BYTE	W01
	BYTE		        c_v+15
	BYTE	W01
	BYTE		        c_v+14
	BYTE	W01
	BYTE		        c_v+14
	BYTE	W01
	BYTE		        c_v+13
	BYTE	W01
	BYTE		        c_v+12
	BYTE	W01
	BYTE	PEND
// 019   ----------------------------------------
songFightingOfTheSpirit_1_019:
	BYTE		BEND    c_v+11
	BYTE	W01
	BYTE		        c_v+11
	BYTE	W01
	BYTE		        c_v+10
	BYTE	W01
	BYTE		        c_v+9
	BYTE	W01
	BYTE		        c_v+9
	BYTE	W01
	BYTE		        c_v+8
	BYTE	W01
	BYTE		        c_v+8
	BYTE	W01
	BYTE		        c_v+6
	BYTE	W01
	BYTE		        c_v+6
	BYTE	W01
	BYTE		        c_v+5
	BYTE	W01
	BYTE		        c_v+5
	BYTE	W01
	BYTE		        c_v+4
	BYTE	W01
	BYTE		        c_v+3
	BYTE	W01
	BYTE		        c_v+3
	BYTE	W01
	BYTE		        c_v+2
	BYTE	W01
	BYTE		        c_v+1
	BYTE	W01
	BYTE		        c_v+0
	BYTE	W01
	BYTE		        c_v+0
	BYTE	W52
	BYTE	W01
	BYTE		        c_v+1
	BYTE	W01
	BYTE		        c_v+3
	BYTE	W01
	BYTE		        c_v+4
	BYTE	W01
	BYTE		        c_v+6
	BYTE	W01
	BYTE		        c_v+9
	BYTE	W01
	BYTE		        c_v+11
	BYTE	W01
	BYTE		        c_v+13
	BYTE	W01
	BYTE		        c_v+14
	BYTE	W01
	BYTE		        c_v+18
	BYTE	W01
	BYTE		        c_v+19
	BYTE	W01
	BYTE		        c_v+21
	BYTE	W01
	BYTE		        c_v+22
	BYTE	W01
	BYTE		        c_v+26
	BYTE	W13
	BYTE	PEND
	BYTE		EOT     En3 
	BYTE	W01
// 020   ----------------------------------------
songFightingOfTheSpirit_1_020:
	BYTE		BEND    c_v+0
	BYTE		N56     Dn4   v096
	BYTE	W01
	BYTE		BEND    c_v+1
	BYTE	W01
	BYTE		        c_v+1
	BYTE	W01
	BYTE		        c_v+2
	BYTE	W01
	BYTE		        c_v+3
	BYTE	W01
	BYTE		        c_v+3
	BYTE	W01
	BYTE		        c_v+4
	BYTE	W01
	BYTE		        c_v+5
	BYTE	W01
	BYTE		        c_v+6
	BYTE	W01
	BYTE		        c_v+6
	BYTE	W01
	BYTE		        c_v+7
	BYTE	W01
	BYTE		        c_v+7
	BYTE	W01
	BYTE		        c_v+9
	BYTE	W01
	BYTE		        c_v+9
	BYTE	W01
	BYTE		        c_v+10
	BYTE	W44
	BYTE	W02
	BYTE		        c_v+0
	BYTE		N23   
	BYTE	W24
	BYTE		N11     Cn4 
	BYTE	W12
	BYTE	PEND
// 021   ----------------------------------------
songFightingOfTheSpirit_1_021:
	BYTE		N44     Bn3   v096
	BYTE	W48
	BYTE		N15   
	BYTE	W16
	BYTE		        Cn4 
	BYTE	W16
	BYTE		        Dn4 
	BYTE	W16
	BYTE	PEND
// 022   ----------------------------------------
songFightingOfTheSpirit_1_022:
	BYTE		N44     Cn4   v096
	BYTE	W48
	BYTE		        Bn3 
	BYTE	W48
	BYTE	PEND
// 023   ----------------------------------------
songFightingOfTheSpirit_1_023:
	BYTE		N44     An3   v096
	BYTE	W48
	BYTE		        Gn3 
	BYTE	W48
	BYTE	PEND
// 024   ----------------------------------------
songFightingOfTheSpirit_1_024:
	BYTE		BEND    c_v+0
	BYTE		N44     Dn4   v096
	BYTE	W01
	BYTE		BEND    c_v+1
	BYTE	W01
	BYTE		        c_v+2
	BYTE	W01
	BYTE		        c_v+2
	BYTE	W01
	BYTE		        c_v+4
	BYTE	W01
	BYTE		        c_v+4
	BYTE	W01
	BYTE		        c_v+5
	BYTE	W01
	BYTE		        c_v+6
	BYTE	W01
	BYTE		        c_v+7
	BYTE	W01
	BYTE		        c_v+8
	BYTE	W01
	BYTE		        c_v+9
	BYTE	W01
	BYTE		        c_v+9
	BYTE	W01
	BYTE		        c_v+10
	BYTE	W36
	BYTE		        c_v+0
	BYTE		N32   
	BYTE	W36
	BYTE		N11     Cn4 
	BYTE	W12
	BYTE	PEND
// 025   ----------------------------------------
songFightingOfTheSpirit_1_025:
	BYTE		N23     Bn3   v096
	BYTE	W24
	BYTE		        An3 
	BYTE	W24
	BYTE		        Fn4 
	BYTE	W24
	BYTE		        En4 
	BYTE	W24
	BYTE	PEND
// 026   ----------------------------------------
songFightingOfTheSpirit_1_026:
	BYTE		N44     Dn4   v096
	BYTE	W48
	BYTE		N32     Cn4 
	BYTE	W36
	BYTE		N05     Dn4 
	BYTE	W06
	BYTE		        Cn4 
	BYTE	W06
	BYTE	PEND
// 027   ----------------------------------------
songFightingOfTheSpirit_1_027:
	BYTE		N44     Bn3   v096
	BYTE	W48
	BYTE		N23     An3 
	BYTE	W24
	BYTE		        Gn3 
	BYTE	W24
	BYTE	PEND
// 028   ----------------------------------------
songFightingOfTheSpirit_1_028:
	BYTE		N44     An3   v096
	BYTE	W48
	BYTE		N11   
	BYTE	W12
	BYTE		        Bn3 
	BYTE	W12
	BYTE		        Cn4 
	BYTE	W12
	BYTE		N23     Dn4 
	BYTE	W12
	BYTE	PEND
// 029   ----------------------------------------
songFightingOfTheSpirit_1_029:
	BYTE	W12
	BYTE		N11     Dn4   v096
	BYTE	W12
	BYTE		N23     Cn4 
	BYTE	W24
	BYTE		        Bn3 
	BYTE	W24
	BYTE		        An3 
	BYTE	W24
	BYTE	PEND
// 030   ----------------------------------------
	BYTE	PATT
	 POIN2	songFightingOfTheSpirit_1_028
// 031   ----------------------------------------
	BYTE	PATT
	 POIN2	songFightingOfTheSpirit_1_029
// 032   ----------------------------------------
songFightingOfTheSpirit_1_032:
	BYTE		N44     An3   v096
	BYTE	W48
	BYTE		N11   
	BYTE	W12
	BYTE		        Bn3 
	BYTE	W12
	BYTE		        Cn4 
	BYTE	W12
	BYTE		N23     Gn4 
	BYTE	W12
	BYTE	PEND
// 033   ----------------------------------------
songFightingOfTheSpirit_1_033:
	BYTE	W12
	BYTE		N11     Gn4   v096
	BYTE	W12
	BYTE		N23     Fn4 
	BYTE	W24
	BYTE		        En4 
	BYTE	W24
	BYTE		        Dn4 
	BYTE	W24
	BYTE	PEND
// 034   ----------------------------------------
songFightingOfTheSpirit_1_034:
	BYTE		N56     Bn3   v096
	BYTE	W60
	BYTE		N11     Cn4 
	BYTE	W12
	BYTE		        Dn4 
	BYTE	W12
	BYTE		N23     En4 
	BYTE	W12
	BYTE	PEND
// 035   ----------------------------------------
songFightingOfTheSpirit_1_035:
	BYTE	W12
	BYTE		N11     Dn4   v096
	BYTE	W12
	BYTE		        Cn4 
	BYTE	W12
	BYTE		N23     Bn3 
	BYTE	W24
	BYTE		N11     An3 
	BYTE	W12
	BYTE		N23     Bn3 
	BYTE	W24
	BYTE	PEND
// 036   ----------------------------------------
songFightingOfTheSpirit_1_036:
	BYTE		N32     Bn3   v096
	BYTE	W36
	BYTE		TIE     An3 
	BYTE	W60
	BYTE	PEND
// 037   ----------------------------------------
	BYTE	W44
	BYTE	W03
	BYTE		EOT   
	BYTE	W01
	BYTE		N11   
	BYTE	W12
	BYTE		        Bn3 
	BYTE	W12
	BYTE		        Cn4 
	BYTE	W12
	BYTE		        Dn4 
	BYTE	W12
// 038   ----------------------------------------
songFightingOfTheSpirit_1_038:
	BYTE		N32     En4   v096
	BYTE	W36
	BYTE		TIE     An3 
	BYTE	W60
	BYTE	PEND
// 039   ----------------------------------------
	BYTE	W44
	BYTE	W03
	BYTE		EOT   
	BYTE	W01
	BYTE		N11   
	BYTE	W12
	BYTE		        Bn3 
	BYTE	W12
	BYTE		        Cn4 
	BYTE	W12
	BYTE		        En4 
	BYTE	W12
// 040   ----------------------------------------
songFightingOfTheSpirit_1_040:
	BYTE		N11     Dn4   v096
	BYTE	W12
	BYTE		        Cn4 
	BYTE	W24
	BYTE		        Bn3 
	BYTE	W24
	BYTE		        Cn4 
	BYTE	W24
	BYTE		        Bn3 
	BYTE	W12
	BYTE	PEND
// 041   ----------------------------------------
songFightingOfTheSpirit_1_041:
	BYTE	W12
	BYTE		N11     An3   v096
	BYTE	W24
	BYTE		        Gn3 
	BYTE	W12
	BYTE		N11   
	BYTE	W12
	BYTE		        En3 
	BYTE	W12
	BYTE		        Gn3 
	BYTE	W12
	BYTE		        Bn3 
	BYTE	W12
	BYTE	PEND
// 042   ----------------------------------------
	BYTE		TIE     An3 
	BYTE	W96
// 043   ----------------------------------------
	BYTE	W11
	BYTE		EOT   
	BYTE	W01
	BYTE		N11     En3 
	BYTE	W12
	BYTE		        Gn3 
	BYTE	W12
	BYTE		        En3 
	BYTE	W12
	BYTE		        An3 
	BYTE	W12
	BYTE		        En3 
	BYTE	W12
	BYTE		        Bn3 
	BYTE	W12
	BYTE		        En3 
	BYTE	W12
// 044   ----------------------------------------
	BYTE	PATT
	 POIN2	songFightingOfTheSpirit_1_036
// 045   ----------------------------------------
	BYTE	W44
	BYTE	W03
	BYTE		EOT     An3 
	BYTE	W01
	BYTE		N11     An3   v096
	BYTE	W12
	BYTE		        Bn3 
	BYTE	W12
	BYTE		        Cn4 
	BYTE	W12
	BYTE		        Dn4 
	BYTE	W12
// 046   ----------------------------------------
	BYTE	PATT
	 POIN2	songFightingOfTheSpirit_1_038
// 047   ----------------------------------------
	BYTE	W44
	BYTE	W03
	BYTE		EOT     An3 
	BYTE	W01
	BYTE		N11     An3   v096
	BYTE	W12
	BYTE		        Bn3 
	BYTE	W12
	BYTE		        Cn4 
	BYTE	W12
	BYTE		        En4 
	BYTE	W12
// 048   ----------------------------------------
	BYTE	PATT
	 POIN2	songFightingOfTheSpirit_1_040
// 049   ----------------------------------------
	BYTE	PATT
	 POIN2	songFightingOfTheSpirit_1_041
// 050   ----------------------------------------
	BYTE		TIE     An3   v096
	BYTE	W96
// 051   ----------------------------------------
	BYTE	W11
	BYTE		EOT   
	BYTE	W01
	BYTE		N11     En3 
	BYTE	W12
	BYTE		        Dn3 
	BYTE	W12
	BYTE		        Cn3 
	BYTE	W12
	BYTE		        Dn3 
	BYTE	W12
	BYTE		        Cn3 
	BYTE	W12
	BYTE		        Bn2 
	BYTE	W12
	BYTE		        An2 
	BYTE	W12
// 052   ----------------------------------------
songFightingOfTheSpirit_1_052:
	BYTE		N11     Cn3   v096
	BYTE	W12
	BYTE		N11   
	BYTE	W12
	BYTE		        Bn2 
	BYTE	W12
	BYTE		        Cn3 
	BYTE	W24
	BYTE		        Bn2 
	BYTE	W24
	BYTE		        Dn3 
	BYTE	W12
	BYTE	PEND
// 053   ----------------------------------------
songFightingOfTheSpirit_1_053:
	BYTE	W12
	BYTE		N11     Cn3   v096
	BYTE	W12
	BYTE		        Bn2 
	BYTE	W24
	BYTE		N32     Cn3 
	BYTE	W48
	BYTE	PEND
// 054   ----------------------------------------
	BYTE	PATT
	 POIN2	songFightingOfTheSpirit_1_052
// 055   ----------------------------------------
	BYTE	PATT
	 POIN2	songFightingOfTheSpirit_1_053
// 056   ----------------------------------------
songFightingOfTheSpirit_1_056:
	BYTE		N11     Dn3   v096
	BYTE	W12
	BYTE		N11   
	BYTE	W12
	BYTE		        Cn3 
	BYTE	W12
	BYTE		        Dn3 
	BYTE	W24
	BYTE		        Cn3 
	BYTE	W24
	BYTE		        En3 
	BYTE	W12
	BYTE	PEND
// 057   ----------------------------------------
songFightingOfTheSpirit_1_057:
	BYTE	W12
	BYTE		N11     Dn3   v096
	BYTE	W12
	BYTE		        Cn3 
	BYTE	W24
	BYTE		N32     Dn3 
	BYTE	W48
	BYTE	PEND
// 058   ----------------------------------------
	BYTE	PATT
	 POIN2	songFightingOfTheSpirit_1_052
// 059   ----------------------------------------
	BYTE	PATT
	 POIN2	songFightingOfTheSpirit_1_053
// 060   ----------------------------------------
	BYTE	PATT
	 POIN2	songFightingOfTheSpirit_1_052
// 061   ----------------------------------------
	BYTE	PATT
	 POIN2	songFightingOfTheSpirit_1_053
// 062   ----------------------------------------
	BYTE	PATT
	 POIN2	songFightingOfTheSpirit_1_052
// 063   ----------------------------------------
	BYTE	PATT
	 POIN2	songFightingOfTheSpirit_1_053
// 064   ----------------------------------------
	BYTE	PATT
	 POIN2	songFightingOfTheSpirit_1_056
// 065   ----------------------------------------
	BYTE	PATT
	 POIN2	songFightingOfTheSpirit_1_057
// 066   ----------------------------------------
	BYTE	PATT
	 POIN2	songFightingOfTheSpirit_1_052
// 067   ----------------------------------------
	BYTE	PATT
	 POIN2	songFightingOfTheSpirit_1_053
// 068   ----------------------------------------
	BYTE	PATT
	 POIN2	songFightingOfTheSpirit_1_004
// 069   ----------------------------------------
	BYTE	PATT
	 POIN2	songFightingOfTheSpirit_1_005
// 070   ----------------------------------------
	BYTE	PATT
	 POIN2	songFightingOfTheSpirit_1_006
// 071   ----------------------------------------
	BYTE	PATT
	 POIN2	songFightingOfTheSpirit_1_007
// 072   ----------------------------------------
	BYTE	PATT
	 POIN2	songFightingOfTheSpirit_1_008
// 073   ----------------------------------------
	BYTE	PATT
	 POIN2	songFightingOfTheSpirit_1_007
// 074   ----------------------------------------
	BYTE	PATT
	 POIN2	songFightingOfTheSpirit_1_010
// 075   ----------------------------------------
	BYTE		N92     En3   v096
	BYTE	W96
// 076   ----------------------------------------
	BYTE	PATT
	 POIN2	songFightingOfTheSpirit_1_004
// 077   ----------------------------------------
	BYTE	PATT
	 POIN2	songFightingOfTheSpirit_1_005
// 078   ----------------------------------------
	BYTE	PATT
	 POIN2	songFightingOfTheSpirit_1_014
// 079   ----------------------------------------
	BYTE	PATT
	 POIN2	songFightingOfTheSpirit_1_015
// 080   ----------------------------------------
	BYTE	PATT
	 POIN2	songFightingOfTheSpirit_1_016
// 081   ----------------------------------------
	BYTE	PATT
	 POIN2	songFightingOfTheSpirit_1_017
// 082   ----------------------------------------
	BYTE	PATT
	 POIN2	songFightingOfTheSpirit_1_018
// 083   ----------------------------------------
	BYTE	PATT
	 POIN2	songFightingOfTheSpirit_1_019
	BYTE		EOT     En3 
	BYTE	W01
// 084   ----------------------------------------
	BYTE	PATT
	 POIN2	songFightingOfTheSpirit_1_020
// 085   ----------------------------------------
	BYTE	PATT
	 POIN2	songFightingOfTheSpirit_1_021
// 086   ----------------------------------------
	BYTE	PATT
	 POIN2	songFightingOfTheSpirit_1_022
// 087   ----------------------------------------
	BYTE	PATT
	 POIN2	songFightingOfTheSpirit_1_023
// 088   ----------------------------------------
	BYTE	PATT
	 POIN2	songFightingOfTheSpirit_1_024
// 089   ----------------------------------------
	BYTE	PATT
	 POIN2	songFightingOfTheSpirit_1_025
// 090   ----------------------------------------
	BYTE	PATT
	 POIN2	songFightingOfTheSpirit_1_026
// 091   ----------------------------------------
	BYTE	PATT
	 POIN2	songFightingOfTheSpirit_1_027
// 092   ----------------------------------------
	BYTE	PATT
	 POIN2	songFightingOfTheSpirit_1_028
// 093   ----------------------------------------
	BYTE	PATT
	 POIN2	songFightingOfTheSpirit_1_029
// 094   ----------------------------------------
	BYTE	PATT
	 POIN2	songFightingOfTheSpirit_1_028
// 095   ----------------------------------------
	BYTE	PATT
	 POIN2	songFightingOfTheSpirit_1_029
// 096   ----------------------------------------
	BYTE	PATT
	 POIN2	songFightingOfTheSpirit_1_032
// 097   ----------------------------------------
	BYTE	PATT
	 POIN2	songFightingOfTheSpirit_1_033
// 098   ----------------------------------------
	BYTE	PATT
	 POIN2	songFightingOfTheSpirit_1_034
// 099   ----------------------------------------
	BYTE	PATT
	 POIN2	songFightingOfTheSpirit_1_035
// 100   ----------------------------------------
	BYTE	PATT
	 POIN2	songFightingOfTheSpirit_1_036
// 101   ----------------------------------------
	BYTE	W44
	BYTE	W03
	BYTE		EOT     An3 
	BYTE	W01
	BYTE		N11     An3   v096
	BYTE	W12
	BYTE		        Bn3 
	BYTE	W12
	BYTE		        Cn4 
	BYTE	W12
	BYTE		        Dn4 
	BYTE	W12
// 102   ----------------------------------------
	BYTE	PATT
	 POIN2	songFightingOfTheSpirit_1_038
// 103   ----------------------------------------
	BYTE	W44
	BYTE	W03
	BYTE		EOT     An3 
	BYTE	W01
	BYTE		N11     An3   v096
	BYTE	W12
	BYTE		        Bn3 
	BYTE	W12
	BYTE		        Cn4 
	BYTE	W12
	BYTE		        En4 
	BYTE	W12
// 104   ----------------------------------------
	BYTE	PATT
	 POIN2	songFightingOfTheSpirit_1_040
// 105   ----------------------------------------
	BYTE	PATT
	 POIN2	songFightingOfTheSpirit_1_041
// 106   ----------------------------------------
	BYTE		TIE     An3   v096
	BYTE	W96
// 107   ----------------------------------------
	BYTE	W11
	BYTE		EOT   
	BYTE	W01
	BYTE		N11     En3 
	BYTE	W12
	BYTE		        Gn3 
	BYTE	W12
	BYTE		        En3 
	BYTE	W12
	BYTE		        An3 
	BYTE	W12
	BYTE		        En3 
	BYTE	W12
	BYTE		        Bn3 
	BYTE	W12
	BYTE		        En3 
	BYTE	W12
// 108   ----------------------------------------
	BYTE	PATT
	 POIN2	songFightingOfTheSpirit_1_036
// 109   ----------------------------------------
	BYTE	W44
	BYTE	W03
	BYTE		EOT     An3 
	BYTE	W01
	BYTE		N11     An3   v096
	BYTE	W12
	BYTE		        Bn3 
	BYTE	W12
	BYTE		        Cn4 
	BYTE	W12
	BYTE		        Dn4 
	BYTE	W12
// 110   ----------------------------------------
	BYTE	PATT
	 POIN2	songFightingOfTheSpirit_1_038
// 111   ----------------------------------------
	BYTE	W44
	BYTE	W03
	BYTE		EOT     An3 
	BYTE	W01
	BYTE		N11     An3   v096
	BYTE	W12
	BYTE		        Bn3 
	BYTE	W12
	BYTE		        Cn4 
	BYTE	W12
	BYTE		        En4 
	BYTE	W12
// 112   ----------------------------------------
	BYTE	PATT
	 POIN2	songFightingOfTheSpirit_1_040
// 113   ----------------------------------------
	BYTE	PATT
	 POIN2	songFightingOfTheSpirit_1_041
// 114   ----------------------------------------
	BYTE		TIE     An3   v096
	BYTE	W96
// 115   ----------------------------------------
	BYTE	W11
	BYTE		EOT   
	BYTE	W01
	BYTE		N11     En3 
	BYTE	W12
	BYTE		        Dn3 
	BYTE	W12
	BYTE		        Cn3 
	BYTE	W12
	BYTE		        Dn3 
	BYTE	W12
	BYTE		        Cn3 
	BYTE	W12
	BYTE		        Bn2 
	BYTE	W12
	BYTE		        An2 
	BYTE	W12
// 116   ----------------------------------------
	BYTE	PATT
	 POIN2	songFightingOfTheSpirit_1_052
// 117   ----------------------------------------
	BYTE	PATT
	 POIN2	songFightingOfTheSpirit_1_053
// 118   ----------------------------------------
	BYTE	PATT
	 POIN2	songFightingOfTheSpirit_1_052
// 119   ----------------------------------------
	BYTE	PATT
	 POIN2	songFightingOfTheSpirit_1_053
// 120   ----------------------------------------
	BYTE	PATT
	 POIN2	songFightingOfTheSpirit_1_056
// 121   ----------------------------------------
	BYTE	PATT
	 POIN2	songFightingOfTheSpirit_1_057
// 122   ----------------------------------------
	BYTE	PATT
	 POIN2	songFightingOfTheSpirit_1_052
// 123   ----------------------------------------
	BYTE	PATT
	 POIN2	songFightingOfTheSpirit_1_053
// 124   ----------------------------------------
	BYTE	PATT
	 POIN2	songFightingOfTheSpirit_1_052
// 125   ----------------------------------------
	BYTE	PATT
	 POIN2	songFightingOfTheSpirit_1_053
// 126   ----------------------------------------
	BYTE	PATT
	 POIN2	songFightingOfTheSpirit_1_052
// 127   ----------------------------------------
	BYTE	PATT
	 POIN2	songFightingOfTheSpirit_1_053
// 128   ----------------------------------------
	BYTE	PATT
	 POIN2	songFightingOfTheSpirit_1_056
// 129   ----------------------------------------
	BYTE	PATT
	 POIN2	songFightingOfTheSpirit_1_057
// 130   ----------------------------------------
	BYTE	PATT
	 POIN2	songFightingOfTheSpirit_1_052
// 131   ----------------------------------------
	BYTE	PATT
	 POIN2	songFightingOfTheSpirit_1_053
// 132   ----------------------------------------
	BYTE	PATT
	 POIN2	songFightingOfTheSpirit_1_004
// 133   ----------------------------------------
	BYTE	PATT
	 POIN2	songFightingOfTheSpirit_1_005
// 134   ----------------------------------------
	BYTE	PATT
	 POIN2	songFightingOfTheSpirit_1_006
// 135   ----------------------------------------
	BYTE	PATT
	 POIN2	songFightingOfTheSpirit_1_007
// 136   ----------------------------------------
	BYTE	PATT
	 POIN2	songFightingOfTheSpirit_1_008
// 137   ----------------------------------------
	BYTE	PATT
	 POIN2	songFightingOfTheSpirit_1_007
// 138   ----------------------------------------
	BYTE	PATT
	 POIN2	songFightingOfTheSpirit_1_010
// 139   ----------------------------------------
	BYTE		N92     En3   v096
	BYTE	W96
// 140   ----------------------------------------
	BYTE	PATT
	 POIN2	songFightingOfTheSpirit_1_004
// 141   ----------------------------------------
	BYTE	PATT
	 POIN2	songFightingOfTheSpirit_1_005
// 142   ----------------------------------------
	BYTE	PATT
	 POIN2	songFightingOfTheSpirit_1_014
// 143   ----------------------------------------
	BYTE	PATT
	 POIN2	songFightingOfTheSpirit_1_015
// 144   ----------------------------------------
	BYTE	PATT
	 POIN2	songFightingOfTheSpirit_1_016
// 145   ----------------------------------------
	BYTE	PATT
	 POIN2	songFightingOfTheSpirit_1_017
// 146   ----------------------------------------
	BYTE	PATT
	 POIN2	songFightingOfTheSpirit_1_018
// 147   ----------------------------------------
	BYTE	PATT
	 POIN2	songFightingOfTheSpirit_1_019
	BYTE		EOT     En3 
	BYTE	W01
// 148   ----------------------------------------
	BYTE	PATT
	 POIN2	songFightingOfTheSpirit_1_020
// 149   ----------------------------------------
	BYTE	PATT
	 POIN2	songFightingOfTheSpirit_1_021
// 150   ----------------------------------------
	BYTE	PATT
	 POIN2	songFightingOfTheSpirit_1_022
// 151   ----------------------------------------
	BYTE	PATT
	 POIN2	songFightingOfTheSpirit_1_023
// 152   ----------------------------------------
	BYTE	PATT
	 POIN2	songFightingOfTheSpirit_1_024
// 153   ----------------------------------------
	BYTE	PATT
	 POIN2	songFightingOfTheSpirit_1_025
// 154   ----------------------------------------
	BYTE	PATT
	 POIN2	songFightingOfTheSpirit_1_026
// 155   ----------------------------------------
	BYTE	PATT
	 POIN2	songFightingOfTheSpirit_1_027
// 156   ----------------------------------------
	BYTE	PATT
	 POIN2	songFightingOfTheSpirit_1_028
// 157   ----------------------------------------
	BYTE	PATT
	 POIN2	songFightingOfTheSpirit_1_029
// 158   ----------------------------------------
	BYTE	PATT
	 POIN2	songFightingOfTheSpirit_1_028
// 159   ----------------------------------------
	BYTE	PATT
	 POIN2	songFightingOfTheSpirit_1_029
// 160   ----------------------------------------
	BYTE	PATT
	 POIN2	songFightingOfTheSpirit_1_032
// 161   ----------------------------------------
	BYTE	PATT
	 POIN2	songFightingOfTheSpirit_1_033
// 162   ----------------------------------------
	BYTE	PATT
	 POIN2	songFightingOfTheSpirit_1_034
// 163   ----------------------------------------
	BYTE	PATT
	 POIN2	songFightingOfTheSpirit_1_035
// 164   ----------------------------------------
	BYTE	PATT
	 POIN2	songFightingOfTheSpirit_1_036
// 165   ----------------------------------------
	BYTE	W44
	BYTE	W03
	BYTE		EOT     An3 
	BYTE	W01
	BYTE		N11     An3   v096
	BYTE	W12
	BYTE		        Bn3 
	BYTE	W12
	BYTE		        Cn4 
	BYTE	W12
	BYTE		        Dn4 
	BYTE	W12
// 166   ----------------------------------------
	BYTE	PATT
	 POIN2	songFightingOfTheSpirit_1_038
// 167   ----------------------------------------
	BYTE	W44
	BYTE	W03
	BYTE		EOT     An3 
	BYTE	W01
	BYTE		N11     An3   v096
	BYTE	W12
	BYTE		        Bn3 
	BYTE	W12
	BYTE		        Cn4 
	BYTE	W12
	BYTE		        En4 
	BYTE	W12
// 168   ----------------------------------------
	BYTE	PATT
	 POIN2	songFightingOfTheSpirit_1_040
// 169   ----------------------------------------
	BYTE	PATT
	 POIN2	songFightingOfTheSpirit_1_041
// 170   ----------------------------------------
	BYTE		TIE     An3   v096
	BYTE	W96
// 171   ----------------------------------------
	BYTE	W11
	BYTE		EOT   
	BYTE	W01
	BYTE		N11     En3 
	BYTE	W12
	BYTE		        Gn3 
	BYTE	W12
	BYTE		        En3 
	BYTE	W12
	BYTE		        An3 
	BYTE	W12
	BYTE		        En3 
	BYTE	W12
	BYTE		        Bn3 
	BYTE	W12
	BYTE		        En3 
	BYTE	W12
// 172   ----------------------------------------
	BYTE	PATT
	 POIN2	songFightingOfTheSpirit_1_036
// 173   ----------------------------------------
	BYTE	W44
	BYTE	W03
	BYTE		EOT     An3 
	BYTE	W01
	BYTE		N11     An3   v096
	BYTE	W12
	BYTE		        Bn3 
	BYTE	W12
	BYTE		        Cn4 
	BYTE	W12
	BYTE		        Dn4 
	BYTE	W12
// 174   ----------------------------------------
	BYTE	PATT
	 POIN2	songFightingOfTheSpirit_1_038
// 175   ----------------------------------------
	BYTE	W44
	BYTE	W03
	BYTE		EOT     An3 
	BYTE	W01
	BYTE		N11     An3   v096
	BYTE	W12
	BYTE		        Bn3 
	BYTE	W12
	BYTE		        Cn4 
	BYTE	W12
	BYTE		        En4 
	BYTE	W12
// 176   ----------------------------------------
	BYTE	PATT
	 POIN2	songFightingOfTheSpirit_1_040
// 177   ----------------------------------------
	BYTE	PATT
	 POIN2	songFightingOfTheSpirit_1_041
// 178   ----------------------------------------
	BYTE		TIE     An3   v096
	BYTE	W96
// 179   ----------------------------------------
	BYTE	W11
	BYTE		EOT   
	BYTE	W01
	BYTE		N11     En3 
	BYTE	W12
	BYTE		        Dn3 
	BYTE	W12
	BYTE		        Cn3 
	BYTE	W12
	BYTE		        Dn3 
	BYTE	W12
	BYTE		        Cn3 
	BYTE	W12
	BYTE		        Bn2 
	BYTE	W12
	BYTE		        An2 
	BYTE	W12
// 180   ----------------------------------------
	BYTE	PATT
	 POIN2	songFightingOfTheSpirit_1_052
// 181   ----------------------------------------
	BYTE	PATT
	 POIN2	songFightingOfTheSpirit_1_053
// 182   ----------------------------------------
	BYTE	PATT
	 POIN2	songFightingOfTheSpirit_1_052
// 183   ----------------------------------------
	BYTE	PATT
	 POIN2	songFightingOfTheSpirit_1_053
// 184   ----------------------------------------
	BYTE	PATT
	 POIN2	songFightingOfTheSpirit_1_056
// 185   ----------------------------------------
	BYTE	PATT
	 POIN2	songFightingOfTheSpirit_1_057
// 186   ----------------------------------------
	BYTE	PATT
	 POIN2	songFightingOfTheSpirit_1_052
// 187   ----------------------------------------
	BYTE	PATT
	 POIN2	songFightingOfTheSpirit_1_053
// 188   ----------------------------------------
	BYTE	PATT
	 POIN2	songFightingOfTheSpirit_1_052
// 189   ----------------------------------------
	BYTE	PATT
	 POIN2	songFightingOfTheSpirit_1_053
// 190   ----------------------------------------
	BYTE	PATT
	 POIN2	songFightingOfTheSpirit_1_052
// 191   ----------------------------------------
	BYTE	PATT
	 POIN2	songFightingOfTheSpirit_1_053
// 192   ----------------------------------------
	BYTE	PATT
	 POIN2	songFightingOfTheSpirit_1_056
// 193   ----------------------------------------
	BYTE	PATT
	 POIN2	songFightingOfTheSpirit_1_057
// 194   ----------------------------------------
	BYTE	PATT
	 POIN2	songFightingOfTheSpirit_1_052
// 195   ----------------------------------------
	BYTE	PATT
	 POIN2	songFightingOfTheSpirit_1_053
// 196   ----------------------------------------
	BYTE	PATT
	 POIN2	songFightingOfTheSpirit_1_004
// 197   ----------------------------------------
	BYTE	PATT
	 POIN2	songFightingOfTheSpirit_1_005
// 198   ----------------------------------------
	BYTE	PATT
	 POIN2	songFightingOfTheSpirit_1_006
// 199   ----------------------------------------
	BYTE	PATT
	 POIN2	songFightingOfTheSpirit_1_007
// 200   ----------------------------------------
	BYTE	PATT
	 POIN2	songFightingOfTheSpirit_1_008
// 201   ----------------------------------------
	BYTE	PATT
	 POIN2	songFightingOfTheSpirit_1_007
// 202   ----------------------------------------
	BYTE	PATT
	 POIN2	songFightingOfTheSpirit_1_010
// 203   ----------------------------------------
	BYTE		N92     En3   v096
	BYTE	W96
// 204   ----------------------------------------
	BYTE	PATT
	 POIN2	songFightingOfTheSpirit_1_004
// 205   ----------------------------------------
	BYTE	PATT
	 POIN2	songFightingOfTheSpirit_1_005
// 206   ----------------------------------------
	BYTE	PATT
	 POIN2	songFightingOfTheSpirit_1_014
// 207   ----------------------------------------
	BYTE	PATT
	 POIN2	songFightingOfTheSpirit_1_015
// 208   ----------------------------------------
	BYTE	PATT
	 POIN2	songFightingOfTheSpirit_1_016
// 209   ----------------------------------------
	BYTE	PATT
	 POIN2	songFightingOfTheSpirit_1_017
// 210   ----------------------------------------
	BYTE	PATT
	 POIN2	songFightingOfTheSpirit_1_018
// 211   ----------------------------------------
	BYTE	PATT
	 POIN2	songFightingOfTheSpirit_1_019
	BYTE		EOT     En3 
	BYTE	W01
// 212   ----------------------------------------
	BYTE	PATT
	 POIN2	songFightingOfTheSpirit_1_020
// 213   ----------------------------------------
	BYTE	PATT
	 POIN2	songFightingOfTheSpirit_1_021
// 214   ----------------------------------------
	BYTE	PATT
	 POIN2	songFightingOfTheSpirit_1_022
// 215   ----------------------------------------
	BYTE	PATT
	 POIN2	songFightingOfTheSpirit_1_023
// 216   ----------------------------------------
	BYTE	PATT
	 POIN2	songFightingOfTheSpirit_1_024
// 217   ----------------------------------------
	BYTE	PATT
	 POIN2	songFightingOfTheSpirit_1_025
// 218   ----------------------------------------
	BYTE	PATT
	 POIN2	songFightingOfTheSpirit_1_026
// 219   ----------------------------------------
	BYTE	PATT
	 POIN2	songFightingOfTheSpirit_1_027
// 220   ----------------------------------------
	BYTE	PATT
	 POIN2	songFightingOfTheSpirit_1_028
// 221   ----------------------------------------
	BYTE	PATT
	 POIN2	songFightingOfTheSpirit_1_029
// 222   ----------------------------------------
	BYTE	PATT
	 POIN2	songFightingOfTheSpirit_1_028
// 223   ----------------------------------------
	BYTE	PATT
	 POIN2	songFightingOfTheSpirit_1_029
// 224   ----------------------------------------
	BYTE	PATT
	 POIN2	songFightingOfTheSpirit_1_032
// 225   ----------------------------------------
	BYTE	PATT
	 POIN2	songFightingOfTheSpirit_1_033
// 226   ----------------------------------------
	BYTE	PATT
	 POIN2	songFightingOfTheSpirit_1_034
// 227   ----------------------------------------
	BYTE	PATT
	 POIN2	songFightingOfTheSpirit_1_035
// 228   ----------------------------------------
	BYTE	PATT
	 POIN2	songFightingOfTheSpirit_1_036
// 229   ----------------------------------------
	BYTE	W44
	BYTE	W03
	BYTE		EOT     An3 
	BYTE	W01
	BYTE		N11     An3   v096
	BYTE	W12
	BYTE		        Bn3 
	BYTE	W12
	BYTE		        Cn4 
	BYTE	W12
	BYTE		        Dn4 
	BYTE	W12
// 230   ----------------------------------------
	BYTE	PATT
	 POIN2	songFightingOfTheSpirit_1_038
// 231   ----------------------------------------
	BYTE	W44
	BYTE	W03
	BYTE		EOT     An3 
	BYTE	W01
	BYTE		N11     An3   v096
	BYTE	W12
	BYTE		        Bn3 
	BYTE	W12
	BYTE		        Cn4 
	BYTE	W12
	BYTE		        En4 
	BYTE	W12
// 232   ----------------------------------------
	BYTE	PATT
	 POIN2	songFightingOfTheSpirit_1_040
// 233   ----------------------------------------
	BYTE	PATT
	 POIN2	songFightingOfTheSpirit_1_041
// 234   ----------------------------------------
	BYTE		TIE     An3   v096
	BYTE	W96
// 235   ----------------------------------------
	BYTE	W11
	BYTE		EOT   
	BYTE	W01
	BYTE		N11     En3 
	BYTE	W12
	BYTE		        Gn3 
	BYTE	W12
	BYTE		        En3 
	BYTE	W12
	BYTE		        An3 
	BYTE	W12
	BYTE		        En3 
	BYTE	W12
	BYTE		        Bn3 
	BYTE	W12
	BYTE		        En3 
	BYTE	W12
// 236   ----------------------------------------
	BYTE	PATT
	 POIN2	songFightingOfTheSpirit_1_036
// 237   ----------------------------------------
	BYTE	W44
	BYTE	W03
	BYTE		EOT     An3 
	BYTE	W01
	BYTE		N11     An3   v096
	BYTE	W12
	BYTE		        Bn3 
	BYTE	W12
	BYTE		        Cn4 
	BYTE	W12
	BYTE		        Dn4 
	BYTE	W12
// 238   ----------------------------------------
	BYTE	PATT
	 POIN2	songFightingOfTheSpirit_1_038
// 239   ----------------------------------------
	BYTE	W44
	BYTE	W03
	BYTE		EOT     An3 
	BYTE	W01
	BYTE		N11     An3   v096
	BYTE	W12
	BYTE		        Bn3 
	BYTE	W12
	BYTE		        Cn4 
	BYTE	W12
	BYTE		        En4 
	BYTE	W12
// 240   ----------------------------------------
	BYTE	PATT
	 POIN2	songFightingOfTheSpirit_1_040
// 241   ----------------------------------------
	BYTE	PATT
	 POIN2	songFightingOfTheSpirit_1_041
// 242   ----------------------------------------
	BYTE		TIE     An3   v096
	BYTE	W96
// 243   ----------------------------------------
	BYTE	W11
	BYTE		EOT   
	BYTE	W01
	BYTE		N11     En3 
	BYTE	W12
	BYTE		        Dn3 
	BYTE	W12
	BYTE		        Cn3 
	BYTE	W12
	BYTE		        Dn3 
	BYTE	W12
	BYTE		        Cn3 
	BYTE	W12
	BYTE		        Bn2 
	BYTE	W12
	BYTE		        An2 
	BYTE	W12
// 244   ----------------------------------------
	BYTE	PATT
	 POIN2	songFightingOfTheSpirit_1_052
// 245   ----------------------------------------
	BYTE	PATT
	 POIN2	songFightingOfTheSpirit_1_053
// 246   ----------------------------------------
	BYTE	PATT
	 POIN2	songFightingOfTheSpirit_1_052
// 247   ----------------------------------------
	BYTE	PATT
	 POIN2	songFightingOfTheSpirit_1_053
// 248   ----------------------------------------
	BYTE	PATT
	 POIN2	songFightingOfTheSpirit_1_056
// 249   ----------------------------------------
	BYTE	PATT
	 POIN2	songFightingOfTheSpirit_1_057
// 250   ----------------------------------------
	BYTE	PATT
	 POIN2	songFightingOfTheSpirit_1_052
// 251   ----------------------------------------
	BYTE	PATT
	 POIN2	songFightingOfTheSpirit_1_053
// 252   ----------------------------------------
	BYTE	PATT
	 POIN2	songFightingOfTheSpirit_1_052
// 253   ----------------------------------------
	BYTE	PATT
	 POIN2	songFightingOfTheSpirit_1_053
// 254   ----------------------------------------
	BYTE	PATT
	 POIN2	songFightingOfTheSpirit_1_052
// 255   ----------------------------------------
	BYTE	PATT
	 POIN2	songFightingOfTheSpirit_1_053
// 256   ----------------------------------------
	BYTE	PATT
	 POIN2	songFightingOfTheSpirit_1_056
// 257   ----------------------------------------
	BYTE	PATT
	 POIN2	songFightingOfTheSpirit_1_057
// 258   ----------------------------------------
	BYTE	PATT
	 POIN2	songFightingOfTheSpirit_1_052
// 259   ----------------------------------------
	BYTE	PATT
	 POIN2	songFightingOfTheSpirit_1_053
// 260   ----------------------------------------
	BYTE	PATT
	 POIN2	songFightingOfTheSpirit_1_004
// 261   ----------------------------------------
	BYTE	PATT
	 POIN2	songFightingOfTheSpirit_1_005
// 262   ----------------------------------------
	BYTE	PATT
	 POIN2	songFightingOfTheSpirit_1_006
// 263   ----------------------------------------
	BYTE	PATT
	 POIN2	songFightingOfTheSpirit_1_007
// 264   ----------------------------------------
	BYTE	PATT
	 POIN2	songFightingOfTheSpirit_1_008
// 265   ----------------------------------------
	BYTE	PATT
	 POIN2	songFightingOfTheSpirit_1_007
// 266   ----------------------------------------
	BYTE	PATT
	 POIN2	songFightingOfTheSpirit_1_010
// 267   ----------------------------------------
	BYTE		N92     En3   v096
	BYTE	W96
// 268   ----------------------------------------
	BYTE	PATT
	 POIN2	songFightingOfTheSpirit_1_004
// 269   ----------------------------------------
	BYTE	PATT
	 POIN2	songFightingOfTheSpirit_1_005
// 270   ----------------------------------------
	BYTE	PATT
	 POIN2	songFightingOfTheSpirit_1_014
// 271   ----------------------------------------
	BYTE	PATT
	 POIN2	songFightingOfTheSpirit_1_015
// 272   ----------------------------------------
	BYTE	PATT
	 POIN2	songFightingOfTheSpirit_1_016
// 273   ----------------------------------------
	BYTE	PATT
	 POIN2	songFightingOfTheSpirit_1_017
// 274   ----------------------------------------
	BYTE	PATT
	 POIN2	songFightingOfTheSpirit_1_018
// 275   ----------------------------------------
	BYTE	PATT
	 POIN2	songFightingOfTheSpirit_1_019
	BYTE		EOT     En3 
	BYTE	W01
// 276   ----------------------------------------
	BYTE	PATT
	 POIN2	songFightingOfTheSpirit_1_020
// 277   ----------------------------------------
	BYTE	PATT
	 POIN2	songFightingOfTheSpirit_1_021
// 278   ----------------------------------------
	BYTE	PATT
	 POIN2	songFightingOfTheSpirit_1_022
// 279   ----------------------------------------
	BYTE	PATT
	 POIN2	songFightingOfTheSpirit_1_023
// 280   ----------------------------------------
	BYTE	PATT
	 POIN2	songFightingOfTheSpirit_1_024
// 281   ----------------------------------------
	BYTE	PATT
	 POIN2	songFightingOfTheSpirit_1_025
// 282   ----------------------------------------
	BYTE	PATT
	 POIN2	songFightingOfTheSpirit_1_026
// 283   ----------------------------------------
	BYTE	PATT
	 POIN2	songFightingOfTheSpirit_1_027
// 284   ----------------------------------------
	BYTE	PATT
	 POIN2	songFightingOfTheSpirit_1_028
// 285   ----------------------------------------
	BYTE	PATT
	 POIN2	songFightingOfTheSpirit_1_029
// 286   ----------------------------------------
	BYTE	PATT
	 POIN2	songFightingOfTheSpirit_1_028
// 287   ----------------------------------------
	BYTE	PATT
	 POIN2	songFightingOfTheSpirit_1_029
// 288   ----------------------------------------
	BYTE	PATT
	 POIN2	songFightingOfTheSpirit_1_032
// 289   ----------------------------------------
	BYTE	PATT
	 POIN2	songFightingOfTheSpirit_1_033
// 290   ----------------------------------------
	BYTE	PATT
	 POIN2	songFightingOfTheSpirit_1_034
// 291   ----------------------------------------
	BYTE	PATT
	 POIN2	songFightingOfTheSpirit_1_035
// 292   ----------------------------------------
	BYTE	PATT
	 POIN2	songFightingOfTheSpirit_1_036
// 293   ----------------------------------------
	BYTE	W44
	BYTE	W03
	BYTE		EOT     An3 
	BYTE	W01
	BYTE		N11     An3   v096
	BYTE	W12
	BYTE		        Bn3 
	BYTE	W12
	BYTE		        Cn4 
	BYTE	W12
	BYTE		        Dn4 
	BYTE	W12
// 294   ----------------------------------------
	BYTE	PATT
	 POIN2	songFightingOfTheSpirit_1_038
// 295   ----------------------------------------
	BYTE	W44
	BYTE	W03
	BYTE		EOT     An3 
	BYTE	W01
	BYTE		N11     An3   v096
	BYTE	W12
	BYTE		        Bn3 
	BYTE	W12
	BYTE		        Cn4 
	BYTE	W12
	BYTE		        En4 
	BYTE	W12
// 296   ----------------------------------------
	BYTE	PATT
	 POIN2	songFightingOfTheSpirit_1_040
// 297   ----------------------------------------
	BYTE	PATT
	 POIN2	songFightingOfTheSpirit_1_041
// 298   ----------------------------------------
	BYTE		TIE     An3   v096
	BYTE	W96
// 299   ----------------------------------------
	BYTE	W11
	BYTE		EOT   
	BYTE	W01
	BYTE		N11     En3 
	BYTE	W12
	BYTE		        Gn3 
	BYTE	W12
	BYTE		        En3 
	BYTE	W12
	BYTE		        An3 
	BYTE	W12
	BYTE		        En3 
	BYTE	W12
	BYTE		        Bn3 
	BYTE	W12
	BYTE		        En3 
	BYTE	W12
// 300   ----------------------------------------
	BYTE	PATT
	 POIN2	songFightingOfTheSpirit_1_036
// 301   ----------------------------------------
	BYTE	W44
	BYTE	W03
	BYTE		EOT     An3 
	BYTE	W01
	BYTE		N11     An3   v096
	BYTE	W12
	BYTE		        Bn3 
	BYTE	W12
	BYTE		        Cn4 
	BYTE	W12
	BYTE		        Dn4 
	BYTE	W12
// 302   ----------------------------------------
	BYTE	PATT
	 POIN2	songFightingOfTheSpirit_1_038
// 303   ----------------------------------------
	BYTE	W44
	BYTE	W03
	BYTE		EOT     An3 
	BYTE	W01
	BYTE		N11     An3   v096
	BYTE	W12
	BYTE		        Bn3 
	BYTE	W12
	BYTE		        Cn4 
	BYTE	W12
	BYTE		        En4 
	BYTE	W12
// 304   ----------------------------------------
	BYTE	PATT
	 POIN2	songFightingOfTheSpirit_1_040
// 305   ----------------------------------------
	BYTE	PATT
	 POIN2	songFightingOfTheSpirit_1_041
// 306   ----------------------------------------
	BYTE		TIE     An3   v096
	BYTE	W96
// 307   ----------------------------------------
	BYTE	W11
	BYTE		EOT   
	BYTE	W01
	BYTE		N11     En3 
	BYTE	W12
	BYTE		        Dn3 
	BYTE	W12
	BYTE		        Cn3 
	BYTE	W12
	BYTE		        Dn3 
	BYTE	W12
	BYTE		        Cn3 
	BYTE	W12
	BYTE		        Bn2 
	BYTE	W12
	BYTE		        An2 
	BYTE	W12
// 308   ----------------------------------------
	BYTE	PATT
	 POIN2	songFightingOfTheSpirit_1_052
// 309   ----------------------------------------
	BYTE	PATT
	 POIN2	songFightingOfTheSpirit_1_053
// 310   ----------------------------------------
	BYTE	PATT
	 POIN2	songFightingOfTheSpirit_1_052
// 311   ----------------------------------------
	BYTE	PATT
	 POIN2	songFightingOfTheSpirit_1_053
// 312   ----------------------------------------
	BYTE	PATT
	 POIN2	songFightingOfTheSpirit_1_056
// 313   ----------------------------------------
	BYTE	PATT
	 POIN2	songFightingOfTheSpirit_1_057
// 314   ----------------------------------------
	BYTE	PATT
	 POIN2	songFightingOfTheSpirit_1_052
// 315   ----------------------------------------
	BYTE	PATT
	 POIN2	songFightingOfTheSpirit_1_053
// 316   ----------------------------------------
	BYTE	PATT
	 POIN2	songFightingOfTheSpirit_1_052
// 317   ----------------------------------------
	BYTE	PATT
	 POIN2	songFightingOfTheSpirit_1_053
// 318   ----------------------------------------
	BYTE	PATT
	 POIN2	songFightingOfTheSpirit_1_052
// 319   ----------------------------------------
	BYTE	PATT
	 POIN2	songFightingOfTheSpirit_1_053
// 320   ----------------------------------------
	BYTE	PATT
	 POIN2	songFightingOfTheSpirit_1_056
// 321   ----------------------------------------
	BYTE	PATT
	 POIN2	songFightingOfTheSpirit_1_057
// 322   ----------------------------------------
	BYTE	PATT
	 POIN2	songFightingOfTheSpirit_1_052
// 323   ----------------------------------------
	BYTE	PATT
	 POIN2	songFightingOfTheSpirit_1_053
// 324   ----------------------------------------
	BYTE	W23
	BYTE	GoTo
	 POIN2	songFightingOfTheSpirit_1_B1
songFightingOfTheSpirit_1_B2:
	BYTE	FINE

//**************** Track 2 (Midi-Chn.2) ****************//

songFightingOfTheSpirit_2:
	BYTE	KEYSH   songFightingOfTheSpirit_key+0
songFightingOfTheSpirit_2_B1:
// 000   ----------------------------------------
	BYTE		VOICE   81
	BYTE		VOL     109*songFightingOfTheSpirit_mvl/mxv
	BYTE		PAN     c_v+0
	BYTE		N11     En4   v080
	BYTE	W12
	BYTE		        An3 
	BYTE	W12
	BYTE		        Cn4 
	BYTE	W12
	BYTE		        An3 
	BYTE	W12
	BYTE		        Dn4 
	BYTE	W12
	BYTE		        An3 
	BYTE	W12
	BYTE		        Cn4 
	BYTE	W12
	BYTE		        An3 
	BYTE	W12
// 001   ----------------------------------------
songFightingOfTheSpirit_2_001:
	BYTE		N11     En4   v080
	BYTE	W12
	BYTE		        An3 
	BYTE	W12
	BYTE		        Cn4 
	BYTE	W12
	BYTE		        An3 
	BYTE	W12
	BYTE		        Dn4 
	BYTE	W12
	BYTE		        An3 
	BYTE	W12
	BYTE		        Cn4 
	BYTE	W12
	BYTE		        An3 
	BYTE	W12
	BYTE	PEND
// 002   ----------------------------------------
	BYTE	PATT
	 POIN2	songFightingOfTheSpirit_2_001
// 003   ----------------------------------------
	BYTE	PATT
	 POIN2	songFightingOfTheSpirit_2_001
// 004   ----------------------------------------
	BYTE	PATT
	 POIN2	songFightingOfTheSpirit_2_001
// 005   ----------------------------------------
	BYTE	PATT
	 POIN2	songFightingOfTheSpirit_2_001
// 006   ----------------------------------------
	BYTE	PATT
	 POIN2	songFightingOfTheSpirit_2_001
// 007   ----------------------------------------
	BYTE	PATT
	 POIN2	songFightingOfTheSpirit_2_001
// 008   ----------------------------------------
	BYTE	PATT
	 POIN2	songFightingOfTheSpirit_2_001
// 009   ----------------------------------------
	BYTE	PATT
	 POIN2	songFightingOfTheSpirit_2_001
// 010   ----------------------------------------
	BYTE	PATT
	 POIN2	songFightingOfTheSpirit_2_001
// 011   ----------------------------------------
	BYTE	PATT
	 POIN2	songFightingOfTheSpirit_2_001
// 012   ----------------------------------------
	BYTE	PATT
	 POIN2	songFightingOfTheSpirit_2_001
// 013   ----------------------------------------
	BYTE	PATT
	 POIN2	songFightingOfTheSpirit_2_001
// 014   ----------------------------------------
	BYTE	PATT
	 POIN2	songFightingOfTheSpirit_2_001
// 015   ----------------------------------------
	BYTE	PATT
	 POIN2	songFightingOfTheSpirit_2_001
// 016   ----------------------------------------
	BYTE	PATT
	 POIN2	songFightingOfTheSpirit_2_001
// 017   ----------------------------------------
	BYTE	PATT
	 POIN2	songFightingOfTheSpirit_2_001
// 018   ----------------------------------------
	BYTE	PATT
	 POIN2	songFightingOfTheSpirit_2_001
// 019   ----------------------------------------
	BYTE	PATT
	 POIN2	songFightingOfTheSpirit_2_001
// 020   ----------------------------------------
	BYTE	PATT
	 POIN2	songFightingOfTheSpirit_2_001
// 021   ----------------------------------------
	BYTE	PATT
	 POIN2	songFightingOfTheSpirit_2_001
// 022   ----------------------------------------
	BYTE	PATT
	 POIN2	songFightingOfTheSpirit_2_001
// 023   ----------------------------------------
	BYTE	PATT
	 POIN2	songFightingOfTheSpirit_2_001
// 024   ----------------------------------------
	BYTE	PATT
	 POIN2	songFightingOfTheSpirit_2_001
// 025   ----------------------------------------
	BYTE	PATT
	 POIN2	songFightingOfTheSpirit_2_001
// 026   ----------------------------------------
	BYTE	PATT
	 POIN2	songFightingOfTheSpirit_2_001
// 027   ----------------------------------------
	BYTE	PATT
	 POIN2	songFightingOfTheSpirit_2_001
// 028   ----------------------------------------
	BYTE	PATT
	 POIN2	songFightingOfTheSpirit_2_001
// 029   ----------------------------------------
	BYTE	PATT
	 POIN2	songFightingOfTheSpirit_2_001
// 030   ----------------------------------------
	BYTE	PATT
	 POIN2	songFightingOfTheSpirit_2_001
// 031   ----------------------------------------
	BYTE	PATT
	 POIN2	songFightingOfTheSpirit_2_001
// 032   ----------------------------------------
	BYTE	PATT
	 POIN2	songFightingOfTheSpirit_2_001
// 033   ----------------------------------------
	BYTE	PATT
	 POIN2	songFightingOfTheSpirit_2_001
// 034   ----------------------------------------
	BYTE	PATT
	 POIN2	songFightingOfTheSpirit_2_001
// 035   ----------------------------------------
	BYTE	PATT
	 POIN2	songFightingOfTheSpirit_2_001
// 036   ----------------------------------------
	BYTE	PATT
	 POIN2	songFightingOfTheSpirit_2_001
// 037   ----------------------------------------
	BYTE	PATT
	 POIN2	songFightingOfTheSpirit_2_001
// 038   ----------------------------------------
	BYTE	PATT
	 POIN2	songFightingOfTheSpirit_2_001
// 039   ----------------------------------------
	BYTE	PATT
	 POIN2	songFightingOfTheSpirit_2_001
// 040   ----------------------------------------
	BYTE	PATT
	 POIN2	songFightingOfTheSpirit_2_001
// 041   ----------------------------------------
	BYTE	PATT
	 POIN2	songFightingOfTheSpirit_2_001
// 042   ----------------------------------------
	BYTE	PATT
	 POIN2	songFightingOfTheSpirit_2_001
// 043   ----------------------------------------
	BYTE	PATT
	 POIN2	songFightingOfTheSpirit_2_001
// 044   ----------------------------------------
	BYTE	PATT
	 POIN2	songFightingOfTheSpirit_2_001
// 045   ----------------------------------------
	BYTE	PATT
	 POIN2	songFightingOfTheSpirit_2_001
// 046   ----------------------------------------
	BYTE	PATT
	 POIN2	songFightingOfTheSpirit_2_001
// 047   ----------------------------------------
	BYTE	PATT
	 POIN2	songFightingOfTheSpirit_2_001
// 048   ----------------------------------------
	BYTE	PATT
	 POIN2	songFightingOfTheSpirit_2_001
// 049   ----------------------------------------
	BYTE	PATT
	 POIN2	songFightingOfTheSpirit_2_001
// 050   ----------------------------------------
	BYTE	PATT
	 POIN2	songFightingOfTheSpirit_2_001
// 051   ----------------------------------------
	BYTE	PATT
	 POIN2	songFightingOfTheSpirit_2_001
// 052   ----------------------------------------
songFightingOfTheSpirit_2_052:
	BYTE		N05     En4   v080
	BYTE	W06
	BYTE		        Dn4 
	BYTE	W06
	BYTE		        Cn4 
	BYTE	W06
	BYTE		        Bn3 
	BYTE	W06
	BYTE		        En4 
	BYTE	W06
	BYTE		        Dn4 
	BYTE	W06
	BYTE		        Cn4 
	BYTE	W06
	BYTE		        Bn3 
	BYTE	W06
	BYTE		        En4 
	BYTE	W06
	BYTE		        Dn4 
	BYTE	W06
	BYTE		        Cn4 
	BYTE	W06
	BYTE		        Bn3 
	BYTE	W06
	BYTE		        En4 
	BYTE	W06
	BYTE		        Dn4 
	BYTE	W06
	BYTE		        Cn4 
	BYTE	W06
	BYTE		        Bn3 
	BYTE	W06
	BYTE	PEND
// 053   ----------------------------------------
	BYTE	PATT
	 POIN2	songFightingOfTheSpirit_2_052
// 054   ----------------------------------------
	BYTE	PATT
	 POIN2	songFightingOfTheSpirit_2_052
// 055   ----------------------------------------
	BYTE	PATT
	 POIN2	songFightingOfTheSpirit_2_052
// 056   ----------------------------------------
	BYTE	PATT
	 POIN2	songFightingOfTheSpirit_2_052
// 057   ----------------------------------------
	BYTE	PATT
	 POIN2	songFightingOfTheSpirit_2_052
// 058   ----------------------------------------
	BYTE	PATT
	 POIN2	songFightingOfTheSpirit_2_052
// 059   ----------------------------------------
	BYTE	PATT
	 POIN2	songFightingOfTheSpirit_2_052
// 060   ----------------------------------------
	BYTE	PATT
	 POIN2	songFightingOfTheSpirit_2_052
// 061   ----------------------------------------
	BYTE	PATT
	 POIN2	songFightingOfTheSpirit_2_052
// 062   ----------------------------------------
	BYTE	PATT
	 POIN2	songFightingOfTheSpirit_2_052
// 063   ----------------------------------------
	BYTE	PATT
	 POIN2	songFightingOfTheSpirit_2_052
// 064   ----------------------------------------
	BYTE	PATT
	 POIN2	songFightingOfTheSpirit_2_052
// 065   ----------------------------------------
	BYTE	PATT
	 POIN2	songFightingOfTheSpirit_2_052
// 066   ----------------------------------------
	BYTE	PATT
	 POIN2	songFightingOfTheSpirit_2_052
// 067   ----------------------------------------
	BYTE	PATT
	 POIN2	songFightingOfTheSpirit_2_052
// 068   ----------------------------------------
	BYTE	PATT
	 POIN2	songFightingOfTheSpirit_2_001
// 069   ----------------------------------------
	BYTE	PATT
	 POIN2	songFightingOfTheSpirit_2_001
// 070   ----------------------------------------
	BYTE	PATT
	 POIN2	songFightingOfTheSpirit_2_001
// 071   ----------------------------------------
	BYTE	PATT
	 POIN2	songFightingOfTheSpirit_2_001
// 072   ----------------------------------------
	BYTE	PATT
	 POIN2	songFightingOfTheSpirit_2_001
// 073   ----------------------------------------
	BYTE	PATT
	 POIN2	songFightingOfTheSpirit_2_001
// 074   ----------------------------------------
	BYTE	PATT
	 POIN2	songFightingOfTheSpirit_2_001
// 075   ----------------------------------------
	BYTE	PATT
	 POIN2	songFightingOfTheSpirit_2_001
// 076   ----------------------------------------
	BYTE	PATT
	 POIN2	songFightingOfTheSpirit_2_001
// 077   ----------------------------------------
	BYTE	PATT
	 POIN2	songFightingOfTheSpirit_2_001
// 078   ----------------------------------------
	BYTE	PATT
	 POIN2	songFightingOfTheSpirit_2_001
// 079   ----------------------------------------
	BYTE	PATT
	 POIN2	songFightingOfTheSpirit_2_001
// 080   ----------------------------------------
	BYTE	PATT
	 POIN2	songFightingOfTheSpirit_2_001
// 081   ----------------------------------------
	BYTE	PATT
	 POIN2	songFightingOfTheSpirit_2_001
// 082   ----------------------------------------
	BYTE	PATT
	 POIN2	songFightingOfTheSpirit_2_001
// 083   ----------------------------------------
	BYTE	PATT
	 POIN2	songFightingOfTheSpirit_2_001
// 084   ----------------------------------------
	BYTE	PATT
	 POIN2	songFightingOfTheSpirit_2_001
// 085   ----------------------------------------
	BYTE	PATT
	 POIN2	songFightingOfTheSpirit_2_001
// 086   ----------------------------------------
	BYTE	PATT
	 POIN2	songFightingOfTheSpirit_2_001
// 087   ----------------------------------------
	BYTE	PATT
	 POIN2	songFightingOfTheSpirit_2_001
// 088   ----------------------------------------
	BYTE	PATT
	 POIN2	songFightingOfTheSpirit_2_001
// 089   ----------------------------------------
	BYTE	PATT
	 POIN2	songFightingOfTheSpirit_2_001
// 090   ----------------------------------------
	BYTE	PATT
	 POIN2	songFightingOfTheSpirit_2_001
// 091   ----------------------------------------
	BYTE	PATT
	 POIN2	songFightingOfTheSpirit_2_001
// 092   ----------------------------------------
	BYTE	PATT
	 POIN2	songFightingOfTheSpirit_2_001
// 093   ----------------------------------------
	BYTE	PATT
	 POIN2	songFightingOfTheSpirit_2_001
// 094   ----------------------------------------
	BYTE	PATT
	 POIN2	songFightingOfTheSpirit_2_001
// 095   ----------------------------------------
	BYTE	PATT
	 POIN2	songFightingOfTheSpirit_2_001
// 096   ----------------------------------------
	BYTE	PATT
	 POIN2	songFightingOfTheSpirit_2_001
// 097   ----------------------------------------
	BYTE	PATT
	 POIN2	songFightingOfTheSpirit_2_001
// 098   ----------------------------------------
	BYTE	PATT
	 POIN2	songFightingOfTheSpirit_2_001
// 099   ----------------------------------------
	BYTE	PATT
	 POIN2	songFightingOfTheSpirit_2_001
// 100   ----------------------------------------
	BYTE	PATT
	 POIN2	songFightingOfTheSpirit_2_001
// 101   ----------------------------------------
	BYTE	PATT
	 POIN2	songFightingOfTheSpirit_2_001
// 102   ----------------------------------------
	BYTE	PATT
	 POIN2	songFightingOfTheSpirit_2_001
// 103   ----------------------------------------
	BYTE	PATT
	 POIN2	songFightingOfTheSpirit_2_001
// 104   ----------------------------------------
	BYTE	PATT
	 POIN2	songFightingOfTheSpirit_2_001
// 105   ----------------------------------------
	BYTE	PATT
	 POIN2	songFightingOfTheSpirit_2_001
// 106   ----------------------------------------
	BYTE	PATT
	 POIN2	songFightingOfTheSpirit_2_001
// 107   ----------------------------------------
	BYTE	PATT
	 POIN2	songFightingOfTheSpirit_2_001
// 108   ----------------------------------------
	BYTE	PATT
	 POIN2	songFightingOfTheSpirit_2_001
// 109   ----------------------------------------
	BYTE	PATT
	 POIN2	songFightingOfTheSpirit_2_001
// 110   ----------------------------------------
	BYTE	PATT
	 POIN2	songFightingOfTheSpirit_2_001
// 111   ----------------------------------------
	BYTE	PATT
	 POIN2	songFightingOfTheSpirit_2_001
// 112   ----------------------------------------
	BYTE	PATT
	 POIN2	songFightingOfTheSpirit_2_001
// 113   ----------------------------------------
	BYTE	PATT
	 POIN2	songFightingOfTheSpirit_2_001
// 114   ----------------------------------------
	BYTE	PATT
	 POIN2	songFightingOfTheSpirit_2_001
// 115   ----------------------------------------
	BYTE	PATT
	 POIN2	songFightingOfTheSpirit_2_001
// 116   ----------------------------------------
	BYTE	PATT
	 POIN2	songFightingOfTheSpirit_2_052
// 117   ----------------------------------------
	BYTE	PATT
	 POIN2	songFightingOfTheSpirit_2_052
// 118   ----------------------------------------
	BYTE	PATT
	 POIN2	songFightingOfTheSpirit_2_052
// 119   ----------------------------------------
	BYTE	PATT
	 POIN2	songFightingOfTheSpirit_2_052
// 120   ----------------------------------------
	BYTE	PATT
	 POIN2	songFightingOfTheSpirit_2_052
// 121   ----------------------------------------
	BYTE	PATT
	 POIN2	songFightingOfTheSpirit_2_052
// 122   ----------------------------------------
	BYTE	PATT
	 POIN2	songFightingOfTheSpirit_2_052
// 123   ----------------------------------------
	BYTE	PATT
	 POIN2	songFightingOfTheSpirit_2_052
// 124   ----------------------------------------
	BYTE	PATT
	 POIN2	songFightingOfTheSpirit_2_052
// 125   ----------------------------------------
	BYTE	PATT
	 POIN2	songFightingOfTheSpirit_2_052
// 126   ----------------------------------------
	BYTE	PATT
	 POIN2	songFightingOfTheSpirit_2_052
// 127   ----------------------------------------
	BYTE	PATT
	 POIN2	songFightingOfTheSpirit_2_052
// 128   ----------------------------------------
	BYTE	PATT
	 POIN2	songFightingOfTheSpirit_2_052
// 129   ----------------------------------------
	BYTE	PATT
	 POIN2	songFightingOfTheSpirit_2_052
// 130   ----------------------------------------
	BYTE	PATT
	 POIN2	songFightingOfTheSpirit_2_052
// 131   ----------------------------------------
	BYTE	PATT
	 POIN2	songFightingOfTheSpirit_2_052
// 132   ----------------------------------------
	BYTE	PATT
	 POIN2	songFightingOfTheSpirit_2_001
// 133   ----------------------------------------
	BYTE	PATT
	 POIN2	songFightingOfTheSpirit_2_001
// 134   ----------------------------------------
	BYTE	PATT
	 POIN2	songFightingOfTheSpirit_2_001
// 135   ----------------------------------------
	BYTE	PATT
	 POIN2	songFightingOfTheSpirit_2_001
// 136   ----------------------------------------
	BYTE	PATT
	 POIN2	songFightingOfTheSpirit_2_001
// 137   ----------------------------------------
	BYTE	PATT
	 POIN2	songFightingOfTheSpirit_2_001
// 138   ----------------------------------------
	BYTE	PATT
	 POIN2	songFightingOfTheSpirit_2_001
// 139   ----------------------------------------
	BYTE	PATT
	 POIN2	songFightingOfTheSpirit_2_001
// 140   ----------------------------------------
	BYTE	PATT
	 POIN2	songFightingOfTheSpirit_2_001
// 141   ----------------------------------------
	BYTE	PATT
	 POIN2	songFightingOfTheSpirit_2_001
// 142   ----------------------------------------
	BYTE	PATT
	 POIN2	songFightingOfTheSpirit_2_001
// 143   ----------------------------------------
	BYTE	PATT
	 POIN2	songFightingOfTheSpirit_2_001
// 144   ----------------------------------------
	BYTE	PATT
	 POIN2	songFightingOfTheSpirit_2_001
// 145   ----------------------------------------
	BYTE	PATT
	 POIN2	songFightingOfTheSpirit_2_001
// 146   ----------------------------------------
	BYTE	PATT
	 POIN2	songFightingOfTheSpirit_2_001
// 147   ----------------------------------------
	BYTE	PATT
	 POIN2	songFightingOfTheSpirit_2_001
// 148   ----------------------------------------
	BYTE	PATT
	 POIN2	songFightingOfTheSpirit_2_001
// 149   ----------------------------------------
	BYTE	PATT
	 POIN2	songFightingOfTheSpirit_2_001
// 150   ----------------------------------------
	BYTE	PATT
	 POIN2	songFightingOfTheSpirit_2_001
// 151   ----------------------------------------
	BYTE	PATT
	 POIN2	songFightingOfTheSpirit_2_001
// 152   ----------------------------------------
	BYTE	PATT
	 POIN2	songFightingOfTheSpirit_2_001
// 153   ----------------------------------------
	BYTE	PATT
	 POIN2	songFightingOfTheSpirit_2_001
// 154   ----------------------------------------
	BYTE	PATT
	 POIN2	songFightingOfTheSpirit_2_001
// 155   ----------------------------------------
	BYTE	PATT
	 POIN2	songFightingOfTheSpirit_2_001
// 156   ----------------------------------------
	BYTE	PATT
	 POIN2	songFightingOfTheSpirit_2_001
// 157   ----------------------------------------
	BYTE	PATT
	 POIN2	songFightingOfTheSpirit_2_001
// 158   ----------------------------------------
	BYTE	PATT
	 POIN2	songFightingOfTheSpirit_2_001
// 159   ----------------------------------------
	BYTE	PATT
	 POIN2	songFightingOfTheSpirit_2_001
// 160   ----------------------------------------
	BYTE	PATT
	 POIN2	songFightingOfTheSpirit_2_001
// 161   ----------------------------------------
	BYTE	PATT
	 POIN2	songFightingOfTheSpirit_2_001
// 162   ----------------------------------------
	BYTE	PATT
	 POIN2	songFightingOfTheSpirit_2_001
// 163   ----------------------------------------
	BYTE	PATT
	 POIN2	songFightingOfTheSpirit_2_001
// 164   ----------------------------------------
	BYTE	PATT
	 POIN2	songFightingOfTheSpirit_2_001
// 165   ----------------------------------------
	BYTE	PATT
	 POIN2	songFightingOfTheSpirit_2_001
// 166   ----------------------------------------
	BYTE	PATT
	 POIN2	songFightingOfTheSpirit_2_001
// 167   ----------------------------------------
	BYTE	PATT
	 POIN2	songFightingOfTheSpirit_2_001
// 168   ----------------------------------------
	BYTE	PATT
	 POIN2	songFightingOfTheSpirit_2_001
// 169   ----------------------------------------
	BYTE	PATT
	 POIN2	songFightingOfTheSpirit_2_001
// 170   ----------------------------------------
	BYTE	PATT
	 POIN2	songFightingOfTheSpirit_2_001
// 171   ----------------------------------------
	BYTE	PATT
	 POIN2	songFightingOfTheSpirit_2_001
// 172   ----------------------------------------
	BYTE	PATT
	 POIN2	songFightingOfTheSpirit_2_001
// 173   ----------------------------------------
	BYTE	PATT
	 POIN2	songFightingOfTheSpirit_2_001
// 174   ----------------------------------------
	BYTE	PATT
	 POIN2	songFightingOfTheSpirit_2_001
// 175   ----------------------------------------
	BYTE	PATT
	 POIN2	songFightingOfTheSpirit_2_001
// 176   ----------------------------------------
	BYTE	PATT
	 POIN2	songFightingOfTheSpirit_2_001
// 177   ----------------------------------------
	BYTE	PATT
	 POIN2	songFightingOfTheSpirit_2_001
// 178   ----------------------------------------
	BYTE	PATT
	 POIN2	songFightingOfTheSpirit_2_001
// 179   ----------------------------------------
	BYTE	PATT
	 POIN2	songFightingOfTheSpirit_2_001
// 180   ----------------------------------------
	BYTE	PATT
	 POIN2	songFightingOfTheSpirit_2_052
// 181   ----------------------------------------
	BYTE	PATT
	 POIN2	songFightingOfTheSpirit_2_052
// 182   ----------------------------------------
	BYTE	PATT
	 POIN2	songFightingOfTheSpirit_2_052
// 183   ----------------------------------------
	BYTE	PATT
	 POIN2	songFightingOfTheSpirit_2_052
// 184   ----------------------------------------
	BYTE	PATT
	 POIN2	songFightingOfTheSpirit_2_052
// 185   ----------------------------------------
	BYTE	PATT
	 POIN2	songFightingOfTheSpirit_2_052
// 186   ----------------------------------------
	BYTE	PATT
	 POIN2	songFightingOfTheSpirit_2_052
// 187   ----------------------------------------
	BYTE	PATT
	 POIN2	songFightingOfTheSpirit_2_052
// 188   ----------------------------------------
	BYTE	PATT
	 POIN2	songFightingOfTheSpirit_2_052
// 189   ----------------------------------------
	BYTE	PATT
	 POIN2	songFightingOfTheSpirit_2_052
// 190   ----------------------------------------
	BYTE	PATT
	 POIN2	songFightingOfTheSpirit_2_052
// 191   ----------------------------------------
	BYTE	PATT
	 POIN2	songFightingOfTheSpirit_2_052
// 192   ----------------------------------------
	BYTE	PATT
	 POIN2	songFightingOfTheSpirit_2_052
// 193   ----------------------------------------
	BYTE	PATT
	 POIN2	songFightingOfTheSpirit_2_052
// 194   ----------------------------------------
	BYTE	PATT
	 POIN2	songFightingOfTheSpirit_2_052
// 195   ----------------------------------------
	BYTE	PATT
	 POIN2	songFightingOfTheSpirit_2_052
// 196   ----------------------------------------
	BYTE	PATT
	 POIN2	songFightingOfTheSpirit_2_001
// 197   ----------------------------------------
	BYTE	PATT
	 POIN2	songFightingOfTheSpirit_2_001
// 198   ----------------------------------------
	BYTE	PATT
	 POIN2	songFightingOfTheSpirit_2_001
// 199   ----------------------------------------
	BYTE	PATT
	 POIN2	songFightingOfTheSpirit_2_001
// 200   ----------------------------------------
	BYTE	PATT
	 POIN2	songFightingOfTheSpirit_2_001
// 201   ----------------------------------------
	BYTE	PATT
	 POIN2	songFightingOfTheSpirit_2_001
// 202   ----------------------------------------
	BYTE	PATT
	 POIN2	songFightingOfTheSpirit_2_001
// 203   ----------------------------------------
	BYTE	PATT
	 POIN2	songFightingOfTheSpirit_2_001
// 204   ----------------------------------------
	BYTE	PATT
	 POIN2	songFightingOfTheSpirit_2_001
// 205   ----------------------------------------
	BYTE	PATT
	 POIN2	songFightingOfTheSpirit_2_001
// 206   ----------------------------------------
	BYTE	PATT
	 POIN2	songFightingOfTheSpirit_2_001
// 207   ----------------------------------------
	BYTE	PATT
	 POIN2	songFightingOfTheSpirit_2_001
// 208   ----------------------------------------
	BYTE	PATT
	 POIN2	songFightingOfTheSpirit_2_001
// 209   ----------------------------------------
	BYTE	PATT
	 POIN2	songFightingOfTheSpirit_2_001
// 210   ----------------------------------------
	BYTE	PATT
	 POIN2	songFightingOfTheSpirit_2_001
// 211   ----------------------------------------
	BYTE	PATT
	 POIN2	songFightingOfTheSpirit_2_001
// 212   ----------------------------------------
	BYTE	PATT
	 POIN2	songFightingOfTheSpirit_2_001
// 213   ----------------------------------------
	BYTE	PATT
	 POIN2	songFightingOfTheSpirit_2_001
// 214   ----------------------------------------
	BYTE	PATT
	 POIN2	songFightingOfTheSpirit_2_001
// 215   ----------------------------------------
	BYTE	PATT
	 POIN2	songFightingOfTheSpirit_2_001
// 216   ----------------------------------------
	BYTE	PATT
	 POIN2	songFightingOfTheSpirit_2_001
// 217   ----------------------------------------
	BYTE	PATT
	 POIN2	songFightingOfTheSpirit_2_001
// 218   ----------------------------------------
	BYTE	PATT
	 POIN2	songFightingOfTheSpirit_2_001
// 219   ----------------------------------------
	BYTE	PATT
	 POIN2	songFightingOfTheSpirit_2_001
// 220   ----------------------------------------
	BYTE	PATT
	 POIN2	songFightingOfTheSpirit_2_001
// 221   ----------------------------------------
	BYTE	PATT
	 POIN2	songFightingOfTheSpirit_2_001
// 222   ----------------------------------------
	BYTE	PATT
	 POIN2	songFightingOfTheSpirit_2_001
// 223   ----------------------------------------
	BYTE	PATT
	 POIN2	songFightingOfTheSpirit_2_001
// 224   ----------------------------------------
	BYTE	PATT
	 POIN2	songFightingOfTheSpirit_2_001
// 225   ----------------------------------------
	BYTE	PATT
	 POIN2	songFightingOfTheSpirit_2_001
// 226   ----------------------------------------
	BYTE	PATT
	 POIN2	songFightingOfTheSpirit_2_001
// 227   ----------------------------------------
	BYTE	PATT
	 POIN2	songFightingOfTheSpirit_2_001
// 228   ----------------------------------------
	BYTE	PATT
	 POIN2	songFightingOfTheSpirit_2_001
// 229   ----------------------------------------
	BYTE	PATT
	 POIN2	songFightingOfTheSpirit_2_001
// 230   ----------------------------------------
	BYTE	PATT
	 POIN2	songFightingOfTheSpirit_2_001
// 231   ----------------------------------------
	BYTE	PATT
	 POIN2	songFightingOfTheSpirit_2_001
// 232   ----------------------------------------
	BYTE	PATT
	 POIN2	songFightingOfTheSpirit_2_001
// 233   ----------------------------------------
	BYTE	PATT
	 POIN2	songFightingOfTheSpirit_2_001
// 234   ----------------------------------------
	BYTE	PATT
	 POIN2	songFightingOfTheSpirit_2_001
// 235   ----------------------------------------
	BYTE	PATT
	 POIN2	songFightingOfTheSpirit_2_001
// 236   ----------------------------------------
	BYTE	PATT
	 POIN2	songFightingOfTheSpirit_2_001
// 237   ----------------------------------------
	BYTE	PATT
	 POIN2	songFightingOfTheSpirit_2_001
// 238   ----------------------------------------
	BYTE	PATT
	 POIN2	songFightingOfTheSpirit_2_001
// 239   ----------------------------------------
	BYTE	PATT
	 POIN2	songFightingOfTheSpirit_2_001
// 240   ----------------------------------------
	BYTE	PATT
	 POIN2	songFightingOfTheSpirit_2_001
// 241   ----------------------------------------
	BYTE	PATT
	 POIN2	songFightingOfTheSpirit_2_001
// 242   ----------------------------------------
	BYTE	PATT
	 POIN2	songFightingOfTheSpirit_2_001
// 243   ----------------------------------------
	BYTE	PATT
	 POIN2	songFightingOfTheSpirit_2_001
// 244   ----------------------------------------
	BYTE	PATT
	 POIN2	songFightingOfTheSpirit_2_052
// 245   ----------------------------------------
	BYTE	PATT
	 POIN2	songFightingOfTheSpirit_2_052
// 246   ----------------------------------------
	BYTE	PATT
	 POIN2	songFightingOfTheSpirit_2_052
// 247   ----------------------------------------
	BYTE	PATT
	 POIN2	songFightingOfTheSpirit_2_052
// 248   ----------------------------------------
	BYTE	PATT
	 POIN2	songFightingOfTheSpirit_2_052
// 249   ----------------------------------------
	BYTE	PATT
	 POIN2	songFightingOfTheSpirit_2_052
// 250   ----------------------------------------
	BYTE	PATT
	 POIN2	songFightingOfTheSpirit_2_052
// 251   ----------------------------------------
	BYTE	PATT
	 POIN2	songFightingOfTheSpirit_2_052
// 252   ----------------------------------------
	BYTE	PATT
	 POIN2	songFightingOfTheSpirit_2_052
// 253   ----------------------------------------
	BYTE	PATT
	 POIN2	songFightingOfTheSpirit_2_052
// 254   ----------------------------------------
	BYTE	PATT
	 POIN2	songFightingOfTheSpirit_2_052
// 255   ----------------------------------------
	BYTE	PATT
	 POIN2	songFightingOfTheSpirit_2_052
// 256   ----------------------------------------
	BYTE	PATT
	 POIN2	songFightingOfTheSpirit_2_052
// 257   ----------------------------------------
	BYTE	PATT
	 POIN2	songFightingOfTheSpirit_2_052
// 258   ----------------------------------------
	BYTE	PATT
	 POIN2	songFightingOfTheSpirit_2_052
// 259   ----------------------------------------
	BYTE	PATT
	 POIN2	songFightingOfTheSpirit_2_052
// 260   ----------------------------------------
	BYTE	PATT
	 POIN2	songFightingOfTheSpirit_2_001
// 261   ----------------------------------------
	BYTE	PATT
	 POIN2	songFightingOfTheSpirit_2_001
// 262   ----------------------------------------
	BYTE	PATT
	 POIN2	songFightingOfTheSpirit_2_001
// 263   ----------------------------------------
	BYTE	PATT
	 POIN2	songFightingOfTheSpirit_2_001
// 264   ----------------------------------------
	BYTE	PATT
	 POIN2	songFightingOfTheSpirit_2_001
// 265   ----------------------------------------
	BYTE	PATT
	 POIN2	songFightingOfTheSpirit_2_001
// 266   ----------------------------------------
	BYTE	PATT
	 POIN2	songFightingOfTheSpirit_2_001
// 267   ----------------------------------------
	BYTE	PATT
	 POIN2	songFightingOfTheSpirit_2_001
// 268   ----------------------------------------
	BYTE	PATT
	 POIN2	songFightingOfTheSpirit_2_001
// 269   ----------------------------------------
	BYTE	PATT
	 POIN2	songFightingOfTheSpirit_2_001
// 270   ----------------------------------------
	BYTE	PATT
	 POIN2	songFightingOfTheSpirit_2_001
// 271   ----------------------------------------
	BYTE	PATT
	 POIN2	songFightingOfTheSpirit_2_001
// 272   ----------------------------------------
	BYTE	PATT
	 POIN2	songFightingOfTheSpirit_2_001
// 273   ----------------------------------------
	BYTE	PATT
	 POIN2	songFightingOfTheSpirit_2_001
// 274   ----------------------------------------
	BYTE	PATT
	 POIN2	songFightingOfTheSpirit_2_001
// 275   ----------------------------------------
	BYTE	PATT
	 POIN2	songFightingOfTheSpirit_2_001
// 276   ----------------------------------------
	BYTE	PATT
	 POIN2	songFightingOfTheSpirit_2_001
// 277   ----------------------------------------
	BYTE	PATT
	 POIN2	songFightingOfTheSpirit_2_001
// 278   ----------------------------------------
	BYTE	PATT
	 POIN2	songFightingOfTheSpirit_2_001
// 279   ----------------------------------------
	BYTE	PATT
	 POIN2	songFightingOfTheSpirit_2_001
// 280   ----------------------------------------
	BYTE	PATT
	 POIN2	songFightingOfTheSpirit_2_001
// 281   ----------------------------------------
	BYTE	PATT
	 POIN2	songFightingOfTheSpirit_2_001
// 282   ----------------------------------------
	BYTE	PATT
	 POIN2	songFightingOfTheSpirit_2_001
// 283   ----------------------------------------
	BYTE	PATT
	 POIN2	songFightingOfTheSpirit_2_001
// 284   ----------------------------------------
	BYTE	PATT
	 POIN2	songFightingOfTheSpirit_2_001
// 285   ----------------------------------------
	BYTE	PATT
	 POIN2	songFightingOfTheSpirit_2_001
// 286   ----------------------------------------
	BYTE	PATT
	 POIN2	songFightingOfTheSpirit_2_001
// 287   ----------------------------------------
	BYTE	PATT
	 POIN2	songFightingOfTheSpirit_2_001
// 288   ----------------------------------------
	BYTE	PATT
	 POIN2	songFightingOfTheSpirit_2_001
// 289   ----------------------------------------
	BYTE	PATT
	 POIN2	songFightingOfTheSpirit_2_001
// 290   ----------------------------------------
	BYTE	PATT
	 POIN2	songFightingOfTheSpirit_2_001
// 291   ----------------------------------------
	BYTE	PATT
	 POIN2	songFightingOfTheSpirit_2_001
// 292   ----------------------------------------
	BYTE	PATT
	 POIN2	songFightingOfTheSpirit_2_001
// 293   ----------------------------------------
	BYTE	PATT
	 POIN2	songFightingOfTheSpirit_2_001
// 294   ----------------------------------------
	BYTE	PATT
	 POIN2	songFightingOfTheSpirit_2_001
// 295   ----------------------------------------
	BYTE	PATT
	 POIN2	songFightingOfTheSpirit_2_001
// 296   ----------------------------------------
	BYTE	PATT
	 POIN2	songFightingOfTheSpirit_2_001
// 297   ----------------------------------------
	BYTE	PATT
	 POIN2	songFightingOfTheSpirit_2_001
// 298   ----------------------------------------
	BYTE	PATT
	 POIN2	songFightingOfTheSpirit_2_001
// 299   ----------------------------------------
	BYTE	PATT
	 POIN2	songFightingOfTheSpirit_2_001
// 300   ----------------------------------------
	BYTE	PATT
	 POIN2	songFightingOfTheSpirit_2_001
// 301   ----------------------------------------
	BYTE	PATT
	 POIN2	songFightingOfTheSpirit_2_001
// 302   ----------------------------------------
	BYTE	PATT
	 POIN2	songFightingOfTheSpirit_2_001
// 303   ----------------------------------------
	BYTE	PATT
	 POIN2	songFightingOfTheSpirit_2_001
// 304   ----------------------------------------
	BYTE	PATT
	 POIN2	songFightingOfTheSpirit_2_001
// 305   ----------------------------------------
	BYTE	PATT
	 POIN2	songFightingOfTheSpirit_2_001
// 306   ----------------------------------------
	BYTE	PATT
	 POIN2	songFightingOfTheSpirit_2_001
// 307   ----------------------------------------
	BYTE	PATT
	 POIN2	songFightingOfTheSpirit_2_001
// 308   ----------------------------------------
	BYTE	PATT
	 POIN2	songFightingOfTheSpirit_2_052
// 309   ----------------------------------------
	BYTE	PATT
	 POIN2	songFightingOfTheSpirit_2_052
// 310   ----------------------------------------
	BYTE	PATT
	 POIN2	songFightingOfTheSpirit_2_052
// 311   ----------------------------------------
	BYTE	PATT
	 POIN2	songFightingOfTheSpirit_2_052
// 312   ----------------------------------------
	BYTE	PATT
	 POIN2	songFightingOfTheSpirit_2_052
// 313   ----------------------------------------
	BYTE	PATT
	 POIN2	songFightingOfTheSpirit_2_052
// 314   ----------------------------------------
	BYTE	PATT
	 POIN2	songFightingOfTheSpirit_2_052
// 315   ----------------------------------------
	BYTE	PATT
	 POIN2	songFightingOfTheSpirit_2_052
// 316   ----------------------------------------
	BYTE	PATT
	 POIN2	songFightingOfTheSpirit_2_052
// 317   ----------------------------------------
	BYTE	PATT
	 POIN2	songFightingOfTheSpirit_2_052
// 318   ----------------------------------------
	BYTE	PATT
	 POIN2	songFightingOfTheSpirit_2_052
// 319   ----------------------------------------
	BYTE	PATT
	 POIN2	songFightingOfTheSpirit_2_052
// 320   ----------------------------------------
	BYTE	PATT
	 POIN2	songFightingOfTheSpirit_2_052
// 321   ----------------------------------------
	BYTE	PATT
	 POIN2	songFightingOfTheSpirit_2_052
// 322   ----------------------------------------
	BYTE	PATT
	 POIN2	songFightingOfTheSpirit_2_052
// 323   ----------------------------------------
	BYTE	PATT
	 POIN2	songFightingOfTheSpirit_2_052
// 324   ----------------------------------------
	BYTE	W23
	BYTE	GoTo
	 POIN2	songFightingOfTheSpirit_2_B1
songFightingOfTheSpirit_2_B2:
	BYTE	FINE

//**************** Track 3 (Midi-Chn.3) ****************//

songFightingOfTheSpirit_3:
	BYTE	KEYSH   songFightingOfTheSpirit_key+0
songFightingOfTheSpirit_3_B1:
// 000   ----------------------------------------
	BYTE		VOICE   91
	BYTE		VOL     87*songFightingOfTheSpirit_mvl/mxv
	BYTE		PAN     c_v+0
	BYTE	W96
// 001   ----------------------------------------
	BYTE	W96
// 002   ----------------------------------------
	BYTE	W96
// 003   ----------------------------------------
	BYTE	W96
// 004   ----------------------------------------
songFightingOfTheSpirit_3_004:
	BYTE		N32     En4   v096
	BYTE	W36
	BYTE		        Dn4 
	BYTE	W36
	BYTE		N92     Cn4 
	BYTE	W24
	BYTE	PEND
// 005   ----------------------------------------
	BYTE	W72
	BYTE		N23     Bn3 
	BYTE	W24
// 006   ----------------------------------------
	BYTE		TIE     An3 
	BYTE	W96
// 007   ----------------------------------------
	BYTE	W23
	BYTE		EOT   
	BYTE	W01
	BYTE		N23     Bn3 
	BYTE	W24
	BYTE		        Cn4 
	BYTE	W24
	BYTE		        Dn4 
	BYTE	W24
// 008   ----------------------------------------
songFightingOfTheSpirit_3_008:
	BYTE		N44     En4   v096
	BYTE	W48
	BYTE		        Dn4 
	BYTE	W48
	BYTE	PEND
// 009   ----------------------------------------
songFightingOfTheSpirit_3_009:
	BYTE		N44     Bn3   v096
	BYTE	W48
	BYTE		        Gn3 
	BYTE	W48
	BYTE	PEND
// 010   ----------------------------------------
	BYTE		N92     An3 
	BYTE	W96
// 011   ----------------------------------------
	BYTE		        En3 
	BYTE	W96
// 012   ----------------------------------------
	BYTE	PATT
	 POIN2	songFightingOfTheSpirit_3_004
// 013   ----------------------------------------
	BYTE	W72
	BYTE		N23     Bn3   v096
	BYTE	W24
// 014   ----------------------------------------
	BYTE		N44     En3 
	BYTE	W48
	BYTE		        An3 
	BYTE	W48
// 015   ----------------------------------------
songFightingOfTheSpirit_3_015:
	BYTE		N44     Cn4   v096
	BYTE	W48
	BYTE		        Fn4 
	BYTE	W48
	BYTE	PEND
// 016   ----------------------------------------
	BYTE	PATT
	 POIN2	songFightingOfTheSpirit_3_008
// 017   ----------------------------------------
	BYTE	PATT
	 POIN2	songFightingOfTheSpirit_3_009
// 018   ----------------------------------------
	BYTE		N92     An3   v096
	BYTE	W96
// 019   ----------------------------------------
	BYTE		        En3 
	BYTE	W96
// 020   ----------------------------------------
	BYTE		TIE   
	BYTE	W96
// 021   ----------------------------------------
	BYTE	W44
	BYTE	W03
	BYTE		EOT   
	BYTE	W01
	BYTE		N23     Fn3 
	BYTE	W24
	BYTE		        An3 
	BYTE	W24
// 022   ----------------------------------------
	BYTE		N92     Gn3 
	BYTE	W96
// 023   ----------------------------------------
songFightingOfTheSpirit_3_023:
	BYTE		N44     An3   v096
	BYTE	W48
	BYTE		        Cn4 
	BYTE	W48
	BYTE	PEND
// 024   ----------------------------------------
	BYTE		N92     Bn3 
	BYTE	W96
// 025   ----------------------------------------
	BYTE		N44     En3 
	BYTE	W48
	BYTE		        Bn3 
	BYTE	W48
// 026   ----------------------------------------
	BYTE		N92     An3 
	BYTE	W96
// 027   ----------------------------------------
songFightingOfTheSpirit_3_027:
	BYTE		N44     Dn4   v096
	BYTE	W48
	BYTE		N23     Cn4 
	BYTE	W24
	BYTE		        Bn3 
	BYTE	W24
	BYTE	PEND
// 028   ----------------------------------------
songFightingOfTheSpirit_3_028:
	BYTE		N44     An3   v096
	BYTE	W48
	BYTE		N11   
	BYTE	W12
	BYTE		        Bn3 
	BYTE	W12
	BYTE		        Cn4 
	BYTE	W12
	BYTE		N23     Dn4 
	BYTE	W12
	BYTE	PEND
// 029   ----------------------------------------
songFightingOfTheSpirit_3_029:
	BYTE	W12
	BYTE		N11     Dn4   v096
	BYTE	W12
	BYTE		N23     Cn4 
	BYTE	W24
	BYTE		        Bn3 
	BYTE	W24
	BYTE		        An3 
	BYTE	W24
	BYTE	PEND
// 030   ----------------------------------------
	BYTE	PATT
	 POIN2	songFightingOfTheSpirit_3_028
// 031   ----------------------------------------
	BYTE	PATT
	 POIN2	songFightingOfTheSpirit_3_029
// 032   ----------------------------------------
songFightingOfTheSpirit_3_032:
	BYTE		N44     An3   v096
	BYTE	W48
	BYTE		N11   
	BYTE	W12
	BYTE		        Bn3 
	BYTE	W12
	BYTE		        Cn4 
	BYTE	W12
	BYTE		N23     Gn4 
	BYTE	W12
	BYTE	PEND
// 033   ----------------------------------------
songFightingOfTheSpirit_3_033:
	BYTE	W12
	BYTE		N11     Gn4   v096
	BYTE	W12
	BYTE		N23     Fn4 
	BYTE	W24
	BYTE		        Gn4 
	BYTE	W24
	BYTE		        Fn4 
	BYTE	W24
	BYTE	PEND
// 034   ----------------------------------------
songFightingOfTheSpirit_3_034:
	BYTE		N68     En4   v096
	BYTE	W72
	BYTE		N23     Gs4 
	BYTE	W24
	BYTE	PEND
// 035   ----------------------------------------
songFightingOfTheSpirit_3_035:
	BYTE		N23     Bn4   v096
	BYTE	W24
	BYTE		N11     An4 
	BYTE	W12
	BYTE		N23     Gn4 
	BYTE	W24
	BYTE		N11     An4 
	BYTE	W12
	BYTE		N23     Bn4 
	BYTE	W24
	BYTE	PEND
// 036   ----------------------------------------
	BYTE	PATT
	 POIN2	songFightingOfTheSpirit_3_008
// 037   ----------------------------------------
songFightingOfTheSpirit_3_037:
	BYTE		N44     Cn4   v096
	BYTE	W48
	BYTE		        Bn3 
	BYTE	W48
	BYTE	PEND
// 038   ----------------------------------------
songFightingOfTheSpirit_3_038:
	BYTE		N44     An3   v096
	BYTE	W48
	BYTE		        Bn3 
	BYTE	W48
	BYTE	PEND
// 039   ----------------------------------------
songFightingOfTheSpirit_3_039:
	BYTE		N44     Cn4   v096
	BYTE	W48
	BYTE		        En4 
	BYTE	W48
	BYTE	PEND
// 040   ----------------------------------------
songFightingOfTheSpirit_3_040:
	BYTE		N44     Dn4   v096
	BYTE	W48
	BYTE		        Bn3 
	BYTE	W48
	BYTE	PEND
// 041   ----------------------------------------
songFightingOfTheSpirit_3_041:
	BYTE		N44     Gn3   v096
	BYTE	W48
	BYTE		        Bn3 
	BYTE	W48
	BYTE	PEND
// 042   ----------------------------------------
songFightingOfTheSpirit_3_042:
	BYTE		N44     An3   v096
	BYTE	W48
	BYTE		        En3 
	BYTE	W48
	BYTE	PEND
// 043   ----------------------------------------
	BYTE	PATT
	 POIN2	songFightingOfTheSpirit_3_023
// 044   ----------------------------------------
	BYTE	PATT
	 POIN2	songFightingOfTheSpirit_3_008
// 045   ----------------------------------------
	BYTE	PATT
	 POIN2	songFightingOfTheSpirit_3_037
// 046   ----------------------------------------
	BYTE	PATT
	 POIN2	songFightingOfTheSpirit_3_038
// 047   ----------------------------------------
	BYTE	PATT
	 POIN2	songFightingOfTheSpirit_3_039
// 048   ----------------------------------------
	BYTE	PATT
	 POIN2	songFightingOfTheSpirit_3_040
// 049   ----------------------------------------
	BYTE	PATT
	 POIN2	songFightingOfTheSpirit_3_041
// 050   ----------------------------------------
songFightingOfTheSpirit_3_050:
	BYTE		TIE     En3   v096
	BYTE		TIE     An3 
	BYTE		TIE     Cn4 
	BYTE	W96
	BYTE	PEND
// 051   ----------------------------------------
	BYTE	W92
	BYTE	W03
	BYTE		EOT     En3 
	BYTE		        An3 
	BYTE		        Cn4 
	BYTE	W01
// 052   ----------------------------------------
	BYTE	W96
// 053   ----------------------------------------
	BYTE	W96
// 054   ----------------------------------------
	BYTE	W96
// 055   ----------------------------------------
	BYTE	W96
// 056   ----------------------------------------
	BYTE	W96
// 057   ----------------------------------------
	BYTE	W96
// 058   ----------------------------------------
	BYTE	W96
// 059   ----------------------------------------
	BYTE	W96
// 060   ----------------------------------------
	BYTE		TIE     An2 
	BYTE	W96
// 061   ----------------------------------------
	BYTE	W68
	BYTE	W03
	BYTE		EOT   
	BYTE	W01
	BYTE		N23     En3 
	BYTE	W24
// 062   ----------------------------------------
	BYTE		N92     Fn2 
	BYTE	W96
// 063   ----------------------------------------
	BYTE		N44     En3 
	BYTE	W48
	BYTE		        Dn3 
	BYTE	W48
// 064   ----------------------------------------
	BYTE		N92     Gn2 
	BYTE	W96
// 065   ----------------------------------------
songFightingOfTheSpirit_3_065:
	BYTE		N44     Cn3   v096
	BYTE	W48
	BYTE		        Dn3 
	BYTE	W48
	BYTE	PEND
// 066   ----------------------------------------
	BYTE		TIE     An2 
	BYTE	W96
// 067   ----------------------------------------
	BYTE	W92
	BYTE	W03
	BYTE		EOT   
	BYTE	W01
// 068   ----------------------------------------
	BYTE	PATT
	 POIN2	songFightingOfTheSpirit_3_004
// 069   ----------------------------------------
	BYTE	W72
	BYTE		N23     Bn3   v096
	BYTE	W24
// 070   ----------------------------------------
	BYTE		TIE     An3 
	BYTE	W96
// 071   ----------------------------------------
	BYTE	W23
	BYTE		EOT   
	BYTE	W01
	BYTE		N23     Bn3 
	BYTE	W24
	BYTE		        Cn4 
	BYTE	W24
	BYTE		        Dn4 
	BYTE	W24
// 072   ----------------------------------------
	BYTE	PATT
	 POIN2	songFightingOfTheSpirit_3_008
// 073   ----------------------------------------
	BYTE	PATT
	 POIN2	songFightingOfTheSpirit_3_009
// 074   ----------------------------------------
	BYTE		N92     An3   v096
	BYTE	W96
// 075   ----------------------------------------
	BYTE		        En3 
	BYTE	W96
// 076   ----------------------------------------
	BYTE	PATT
	 POIN2	songFightingOfTheSpirit_3_004
// 077   ----------------------------------------
	BYTE	W72
	BYTE		N23     Bn3   v096
	BYTE	W24
// 078   ----------------------------------------
	BYTE		N44     En3 
	BYTE	W48
	BYTE		        An3 
	BYTE	W48
// 079   ----------------------------------------
	BYTE	PATT
	 POIN2	songFightingOfTheSpirit_3_015
// 080   ----------------------------------------
	BYTE	PATT
	 POIN2	songFightingOfTheSpirit_3_008
// 081   ----------------------------------------
	BYTE	PATT
	 POIN2	songFightingOfTheSpirit_3_009
// 082   ----------------------------------------
	BYTE		N92     An3   v096
	BYTE	W96
// 083   ----------------------------------------
	BYTE		        En3 
	BYTE	W96
// 084   ----------------------------------------
	BYTE		TIE   
	BYTE	W96
// 085   ----------------------------------------
	BYTE	W44
	BYTE	W03
	BYTE		EOT   
	BYTE	W01
	BYTE		N23     Fn3 
	BYTE	W24
	BYTE		        An3 
	BYTE	W24
// 086   ----------------------------------------
	BYTE		N92     Gn3 
	BYTE	W96
// 087   ----------------------------------------
	BYTE	PATT
	 POIN2	songFightingOfTheSpirit_3_023
// 088   ----------------------------------------
	BYTE		N92     Bn3   v096
	BYTE	W96
// 089   ----------------------------------------
	BYTE		N44     En3 
	BYTE	W48
	BYTE		        Bn3 
	BYTE	W48
// 090   ----------------------------------------
	BYTE		N92     An3 
	BYTE	W96
// 091   ----------------------------------------
	BYTE	PATT
	 POIN2	songFightingOfTheSpirit_3_027
// 092   ----------------------------------------
	BYTE	PATT
	 POIN2	songFightingOfTheSpirit_3_028
// 093   ----------------------------------------
	BYTE	PATT
	 POIN2	songFightingOfTheSpirit_3_029
// 094   ----------------------------------------
	BYTE	PATT
	 POIN2	songFightingOfTheSpirit_3_028
// 095   ----------------------------------------
	BYTE	PATT
	 POIN2	songFightingOfTheSpirit_3_029
// 096   ----------------------------------------
	BYTE	PATT
	 POIN2	songFightingOfTheSpirit_3_032
// 097   ----------------------------------------
	BYTE	PATT
	 POIN2	songFightingOfTheSpirit_3_033
// 098   ----------------------------------------
	BYTE	PATT
	 POIN2	songFightingOfTheSpirit_3_034
// 099   ----------------------------------------
	BYTE	PATT
	 POIN2	songFightingOfTheSpirit_3_035
// 100   ----------------------------------------
	BYTE	PATT
	 POIN2	songFightingOfTheSpirit_3_008
// 101   ----------------------------------------
	BYTE	PATT
	 POIN2	songFightingOfTheSpirit_3_037
// 102   ----------------------------------------
	BYTE	PATT
	 POIN2	songFightingOfTheSpirit_3_038
// 103   ----------------------------------------
	BYTE	PATT
	 POIN2	songFightingOfTheSpirit_3_039
// 104   ----------------------------------------
	BYTE	PATT
	 POIN2	songFightingOfTheSpirit_3_040
// 105   ----------------------------------------
	BYTE	PATT
	 POIN2	songFightingOfTheSpirit_3_041
// 106   ----------------------------------------
	BYTE	PATT
	 POIN2	songFightingOfTheSpirit_3_042
// 107   ----------------------------------------
	BYTE	PATT
	 POIN2	songFightingOfTheSpirit_3_023
// 108   ----------------------------------------
	BYTE	PATT
	 POIN2	songFightingOfTheSpirit_3_008
// 109   ----------------------------------------
	BYTE	PATT
	 POIN2	songFightingOfTheSpirit_3_037
// 110   ----------------------------------------
	BYTE	PATT
	 POIN2	songFightingOfTheSpirit_3_038
// 111   ----------------------------------------
	BYTE	PATT
	 POIN2	songFightingOfTheSpirit_3_039
// 112   ----------------------------------------
	BYTE	PATT
	 POIN2	songFightingOfTheSpirit_3_040
// 113   ----------------------------------------
	BYTE	PATT
	 POIN2	songFightingOfTheSpirit_3_041
// 114   ----------------------------------------
	BYTE	PATT
	 POIN2	songFightingOfTheSpirit_3_050
// 115   ----------------------------------------
	BYTE	W92
	BYTE	W03
	BYTE		EOT     En3 
	BYTE		        An3 
	BYTE		        Cn4 
	BYTE	W01
// 116   ----------------------------------------
	BYTE	W96
// 117   ----------------------------------------
	BYTE	W96
// 118   ----------------------------------------
	BYTE	W96
// 119   ----------------------------------------
	BYTE	W96
// 120   ----------------------------------------
	BYTE	W96
// 121   ----------------------------------------
	BYTE	W96
// 122   ----------------------------------------
	BYTE	W96
// 123   ----------------------------------------
	BYTE	W96
// 124   ----------------------------------------
	BYTE		TIE     An2   v096
	BYTE	W96
// 125   ----------------------------------------
	BYTE	W68
	BYTE	W03
	BYTE		EOT   
	BYTE	W01
	BYTE		N23     En3 
	BYTE	W24
// 126   ----------------------------------------
	BYTE		N92     Fn2 
	BYTE	W96
// 127   ----------------------------------------
	BYTE		N44     En3 
	BYTE	W48
	BYTE		        Dn3 
	BYTE	W48
// 128   ----------------------------------------
	BYTE		N92     Gn2 
	BYTE	W96
// 129   ----------------------------------------
	BYTE	PATT
	 POIN2	songFightingOfTheSpirit_3_065
// 130   ----------------------------------------
	BYTE		TIE     An2   v096
	BYTE	W96
// 131   ----------------------------------------
	BYTE	W92
	BYTE	W03
	BYTE		EOT   
	BYTE	W01
// 132   ----------------------------------------
	BYTE	PATT
	 POIN2	songFightingOfTheSpirit_3_004
// 133   ----------------------------------------
	BYTE	W72
	BYTE		N23     Bn3   v096
	BYTE	W24
// 134   ----------------------------------------
	BYTE		TIE     An3 
	BYTE	W96
// 135   ----------------------------------------
	BYTE	W23
	BYTE		EOT   
	BYTE	W01
	BYTE		N23     Bn3 
	BYTE	W24
	BYTE		        Cn4 
	BYTE	W24
	BYTE		        Dn4 
	BYTE	W24
// 136   ----------------------------------------
	BYTE	PATT
	 POIN2	songFightingOfTheSpirit_3_008
// 137   ----------------------------------------
	BYTE	PATT
	 POIN2	songFightingOfTheSpirit_3_009
// 138   ----------------------------------------
	BYTE		N92     An3   v096
	BYTE	W96
// 139   ----------------------------------------
	BYTE		        En3 
	BYTE	W96
// 140   ----------------------------------------
	BYTE	PATT
	 POIN2	songFightingOfTheSpirit_3_004
// 141   ----------------------------------------
	BYTE	W72
	BYTE		N23     Bn3   v096
	BYTE	W24
// 142   ----------------------------------------
	BYTE		N44     En3 
	BYTE	W48
	BYTE		        An3 
	BYTE	W48
// 143   ----------------------------------------
	BYTE	PATT
	 POIN2	songFightingOfTheSpirit_3_015
// 144   ----------------------------------------
	BYTE	PATT
	 POIN2	songFightingOfTheSpirit_3_008
// 145   ----------------------------------------
	BYTE	PATT
	 POIN2	songFightingOfTheSpirit_3_009
// 146   ----------------------------------------
	BYTE		N92     An3   v096
	BYTE	W96
// 147   ----------------------------------------
	BYTE		        En3 
	BYTE	W96
// 148   ----------------------------------------
	BYTE		TIE   
	BYTE	W96
// 149   ----------------------------------------
	BYTE	W44
	BYTE	W03
	BYTE		EOT   
	BYTE	W01
	BYTE		N23     Fn3 
	BYTE	W24
	BYTE		        An3 
	BYTE	W24
// 150   ----------------------------------------
	BYTE		N92     Gn3 
	BYTE	W96
// 151   ----------------------------------------
	BYTE	PATT
	 POIN2	songFightingOfTheSpirit_3_023
// 152   ----------------------------------------
	BYTE		N92     Bn3   v096
	BYTE	W96
// 153   ----------------------------------------
	BYTE		N44     En3 
	BYTE	W48
	BYTE		        Bn3 
	BYTE	W48
// 154   ----------------------------------------
	BYTE		N92     An3 
	BYTE	W96
// 155   ----------------------------------------
	BYTE	PATT
	 POIN2	songFightingOfTheSpirit_3_027
// 156   ----------------------------------------
	BYTE	PATT
	 POIN2	songFightingOfTheSpirit_3_028
// 157   ----------------------------------------
	BYTE	PATT
	 POIN2	songFightingOfTheSpirit_3_029
// 158   ----------------------------------------
	BYTE	PATT
	 POIN2	songFightingOfTheSpirit_3_028
// 159   ----------------------------------------
	BYTE	PATT
	 POIN2	songFightingOfTheSpirit_3_029
// 160   ----------------------------------------
	BYTE	PATT
	 POIN2	songFightingOfTheSpirit_3_032
// 161   ----------------------------------------
	BYTE	PATT
	 POIN2	songFightingOfTheSpirit_3_033
// 162   ----------------------------------------
	BYTE	PATT
	 POIN2	songFightingOfTheSpirit_3_034
// 163   ----------------------------------------
	BYTE	PATT
	 POIN2	songFightingOfTheSpirit_3_035
// 164   ----------------------------------------
	BYTE	PATT
	 POIN2	songFightingOfTheSpirit_3_008
// 165   ----------------------------------------
	BYTE	PATT
	 POIN2	songFightingOfTheSpirit_3_037
// 166   ----------------------------------------
	BYTE	PATT
	 POIN2	songFightingOfTheSpirit_3_038
// 167   ----------------------------------------
	BYTE	PATT
	 POIN2	songFightingOfTheSpirit_3_039
// 168   ----------------------------------------
	BYTE	PATT
	 POIN2	songFightingOfTheSpirit_3_040
// 169   ----------------------------------------
	BYTE	PATT
	 POIN2	songFightingOfTheSpirit_3_041
// 170   ----------------------------------------
	BYTE	PATT
	 POIN2	songFightingOfTheSpirit_3_042
// 171   ----------------------------------------
	BYTE	PATT
	 POIN2	songFightingOfTheSpirit_3_023
// 172   ----------------------------------------
	BYTE	PATT
	 POIN2	songFightingOfTheSpirit_3_008
// 173   ----------------------------------------
	BYTE	PATT
	 POIN2	songFightingOfTheSpirit_3_037
// 174   ----------------------------------------
	BYTE	PATT
	 POIN2	songFightingOfTheSpirit_3_038
// 175   ----------------------------------------
	BYTE	PATT
	 POIN2	songFightingOfTheSpirit_3_039
// 176   ----------------------------------------
	BYTE	PATT
	 POIN2	songFightingOfTheSpirit_3_040
// 177   ----------------------------------------
	BYTE	PATT
	 POIN2	songFightingOfTheSpirit_3_041
// 178   ----------------------------------------
	BYTE	PATT
	 POIN2	songFightingOfTheSpirit_3_050
// 179   ----------------------------------------
	BYTE	W92
	BYTE	W03
	BYTE		EOT     En3 
	BYTE		        An3 
	BYTE		        Cn4 
	BYTE	W01
// 180   ----------------------------------------
	BYTE	W96
// 181   ----------------------------------------
	BYTE	W96
// 182   ----------------------------------------
	BYTE	W96
// 183   ----------------------------------------
	BYTE	W96
// 184   ----------------------------------------
	BYTE	W96
// 185   ----------------------------------------
	BYTE	W96
// 186   ----------------------------------------
	BYTE	W96
// 187   ----------------------------------------
	BYTE	W96
// 188   ----------------------------------------
	BYTE		TIE     An2   v096
	BYTE	W96
// 189   ----------------------------------------
	BYTE	W68
	BYTE	W03
	BYTE		EOT   
	BYTE	W01
	BYTE		N23     En3 
	BYTE	W24
// 190   ----------------------------------------
	BYTE		N92     Fn2 
	BYTE	W96
// 191   ----------------------------------------
	BYTE		N44     En3 
	BYTE	W48
	BYTE		        Dn3 
	BYTE	W48
// 192   ----------------------------------------
	BYTE		N92     Gn2 
	BYTE	W96
// 193   ----------------------------------------
	BYTE	PATT
	 POIN2	songFightingOfTheSpirit_3_065
// 194   ----------------------------------------
	BYTE		TIE     An2   v096
	BYTE	W96
// 195   ----------------------------------------
	BYTE	W92
	BYTE	W03
	BYTE		EOT   
	BYTE	W01
// 196   ----------------------------------------
	BYTE	PATT
	 POIN2	songFightingOfTheSpirit_3_004
// 197   ----------------------------------------
	BYTE	W72
	BYTE		N23     Bn3   v096
	BYTE	W24
// 198   ----------------------------------------
	BYTE		TIE     An3 
	BYTE	W96
// 199   ----------------------------------------
	BYTE	W23
	BYTE		EOT   
	BYTE	W01
	BYTE		N23     Bn3 
	BYTE	W24
	BYTE		        Cn4 
	BYTE	W24
	BYTE		        Dn4 
	BYTE	W24
// 200   ----------------------------------------
	BYTE	PATT
	 POIN2	songFightingOfTheSpirit_3_008
// 201   ----------------------------------------
	BYTE	PATT
	 POIN2	songFightingOfTheSpirit_3_009
// 202   ----------------------------------------
	BYTE		N92     An3   v096
	BYTE	W96
// 203   ----------------------------------------
	BYTE		        En3 
	BYTE	W96
// 204   ----------------------------------------
	BYTE	PATT
	 POIN2	songFightingOfTheSpirit_3_004
// 205   ----------------------------------------
	BYTE	W72
	BYTE		N23     Bn3   v096
	BYTE	W24
// 206   ----------------------------------------
	BYTE		N44     En3 
	BYTE	W48
	BYTE		        An3 
	BYTE	W48
// 207   ----------------------------------------
	BYTE	PATT
	 POIN2	songFightingOfTheSpirit_3_015
// 208   ----------------------------------------
	BYTE	PATT
	 POIN2	songFightingOfTheSpirit_3_008
// 209   ----------------------------------------
	BYTE	PATT
	 POIN2	songFightingOfTheSpirit_3_009
// 210   ----------------------------------------
	BYTE		N92     An3   v096
	BYTE	W96
// 211   ----------------------------------------
	BYTE		        En3 
	BYTE	W96
// 212   ----------------------------------------
	BYTE		TIE   
	BYTE	W96
// 213   ----------------------------------------
	BYTE	W44
	BYTE	W03
	BYTE		EOT   
	BYTE	W01
	BYTE		N23     Fn3 
	BYTE	W24
	BYTE		        An3 
	BYTE	W24
// 214   ----------------------------------------
	BYTE		N92     Gn3 
	BYTE	W96
// 215   ----------------------------------------
	BYTE	PATT
	 POIN2	songFightingOfTheSpirit_3_023
// 216   ----------------------------------------
	BYTE		N92     Bn3   v096
	BYTE	W96
// 217   ----------------------------------------
	BYTE		N44     En3 
	BYTE	W48
	BYTE		        Bn3 
	BYTE	W48
// 218   ----------------------------------------
	BYTE		N92     An3 
	BYTE	W96
// 219   ----------------------------------------
	BYTE	PATT
	 POIN2	songFightingOfTheSpirit_3_027
// 220   ----------------------------------------
	BYTE	PATT
	 POIN2	songFightingOfTheSpirit_3_028
// 221   ----------------------------------------
	BYTE	PATT
	 POIN2	songFightingOfTheSpirit_3_029
// 222   ----------------------------------------
	BYTE	PATT
	 POIN2	songFightingOfTheSpirit_3_028
// 223   ----------------------------------------
	BYTE	PATT
	 POIN2	songFightingOfTheSpirit_3_029
// 224   ----------------------------------------
	BYTE	PATT
	 POIN2	songFightingOfTheSpirit_3_032
// 225   ----------------------------------------
	BYTE	PATT
	 POIN2	songFightingOfTheSpirit_3_033
// 226   ----------------------------------------
	BYTE	PATT
	 POIN2	songFightingOfTheSpirit_3_034
// 227   ----------------------------------------
	BYTE	PATT
	 POIN2	songFightingOfTheSpirit_3_035
// 228   ----------------------------------------
	BYTE	PATT
	 POIN2	songFightingOfTheSpirit_3_008
// 229   ----------------------------------------
	BYTE	PATT
	 POIN2	songFightingOfTheSpirit_3_037
// 230   ----------------------------------------
	BYTE	PATT
	 POIN2	songFightingOfTheSpirit_3_038
// 231   ----------------------------------------
	BYTE	PATT
	 POIN2	songFightingOfTheSpirit_3_039
// 232   ----------------------------------------
	BYTE	PATT
	 POIN2	songFightingOfTheSpirit_3_040
// 233   ----------------------------------------
	BYTE	PATT
	 POIN2	songFightingOfTheSpirit_3_041
// 234   ----------------------------------------
	BYTE	PATT
	 POIN2	songFightingOfTheSpirit_3_042
// 235   ----------------------------------------
	BYTE	PATT
	 POIN2	songFightingOfTheSpirit_3_023
// 236   ----------------------------------------
	BYTE	PATT
	 POIN2	songFightingOfTheSpirit_3_008
// 237   ----------------------------------------
	BYTE	PATT
	 POIN2	songFightingOfTheSpirit_3_037
// 238   ----------------------------------------
	BYTE	PATT
	 POIN2	songFightingOfTheSpirit_3_038
// 239   ----------------------------------------
	BYTE	PATT
	 POIN2	songFightingOfTheSpirit_3_039
// 240   ----------------------------------------
	BYTE	PATT
	 POIN2	songFightingOfTheSpirit_3_040
// 241   ----------------------------------------
	BYTE	PATT
	 POIN2	songFightingOfTheSpirit_3_041
// 242   ----------------------------------------
	BYTE	PATT
	 POIN2	songFightingOfTheSpirit_3_050
// 243   ----------------------------------------
	BYTE	W92
	BYTE	W03
	BYTE		EOT     En3 
	BYTE		        An3 
	BYTE		        Cn4 
	BYTE	W01
// 244   ----------------------------------------
	BYTE	W96
// 245   ----------------------------------------
	BYTE	W96
// 246   ----------------------------------------
	BYTE	W96
// 247   ----------------------------------------
	BYTE	W96
// 248   ----------------------------------------
	BYTE	W96
// 249   ----------------------------------------
	BYTE	W96
// 250   ----------------------------------------
	BYTE	W96
// 251   ----------------------------------------
	BYTE	W96
// 252   ----------------------------------------
	BYTE		TIE     An2   v096
	BYTE	W96
// 253   ----------------------------------------
	BYTE	W68
	BYTE	W03
	BYTE		EOT   
	BYTE	W01
	BYTE		N23     En3 
	BYTE	W24
// 254   ----------------------------------------
	BYTE		N92     Fn2 
	BYTE	W96
// 255   ----------------------------------------
	BYTE		N44     En3 
	BYTE	W48
	BYTE		        Dn3 
	BYTE	W48
// 256   ----------------------------------------
	BYTE		N92     Gn2 
	BYTE	W96
// 257   ----------------------------------------
	BYTE	PATT
	 POIN2	songFightingOfTheSpirit_3_065
// 258   ----------------------------------------
	BYTE		TIE     An2   v096
	BYTE	W96
// 259   ----------------------------------------
	BYTE	W92
	BYTE	W03
	BYTE		EOT   
	BYTE	W01
// 260   ----------------------------------------
	BYTE	PATT
	 POIN2	songFightingOfTheSpirit_3_004
// 261   ----------------------------------------
	BYTE	W72
	BYTE		N23     Bn3   v096
	BYTE	W24
// 262   ----------------------------------------
	BYTE		TIE     An3 
	BYTE	W96
// 263   ----------------------------------------
	BYTE	W23
	BYTE		EOT   
	BYTE	W01
	BYTE		N23     Bn3 
	BYTE	W24
	BYTE		        Cn4 
	BYTE	W24
	BYTE		        Dn4 
	BYTE	W24
// 264   ----------------------------------------
	BYTE	PATT
	 POIN2	songFightingOfTheSpirit_3_008
// 265   ----------------------------------------
	BYTE	PATT
	 POIN2	songFightingOfTheSpirit_3_009
// 266   ----------------------------------------
	BYTE		N92     An3   v096
	BYTE	W96
// 267   ----------------------------------------
	BYTE		        En3 
	BYTE	W96
// 268   ----------------------------------------
	BYTE	PATT
	 POIN2	songFightingOfTheSpirit_3_004
// 269   ----------------------------------------
	BYTE	W72
	BYTE		N23     Bn3   v096
	BYTE	W24
// 270   ----------------------------------------
	BYTE		N44     En3 
	BYTE	W48
	BYTE		        An3 
	BYTE	W48
// 271   ----------------------------------------
	BYTE	PATT
	 POIN2	songFightingOfTheSpirit_3_015
// 272   ----------------------------------------
	BYTE	PATT
	 POIN2	songFightingOfTheSpirit_3_008
// 273   ----------------------------------------
	BYTE	PATT
	 POIN2	songFightingOfTheSpirit_3_009
// 274   ----------------------------------------
	BYTE		N92     An3   v096
	BYTE	W96
// 275   ----------------------------------------
	BYTE		        En3 
	BYTE	W96
// 276   ----------------------------------------
	BYTE		TIE   
	BYTE	W96
// 277   ----------------------------------------
	BYTE	W44
	BYTE	W03
	BYTE		EOT   
	BYTE	W01
	BYTE		N23     Fn3 
	BYTE	W24
	BYTE		        An3 
	BYTE	W24
// 278   ----------------------------------------
	BYTE		N92     Gn3 
	BYTE	W96
// 279   ----------------------------------------
	BYTE	PATT
	 POIN2	songFightingOfTheSpirit_3_023
// 280   ----------------------------------------
	BYTE		N92     Bn3   v096
	BYTE	W96
// 281   ----------------------------------------
	BYTE		N44     En3 
	BYTE	W48
	BYTE		        Bn3 
	BYTE	W48
// 282   ----------------------------------------
	BYTE		N92     An3 
	BYTE	W96
// 283   ----------------------------------------
	BYTE	PATT
	 POIN2	songFightingOfTheSpirit_3_027
// 284   ----------------------------------------
	BYTE	PATT
	 POIN2	songFightingOfTheSpirit_3_028
// 285   ----------------------------------------
	BYTE	PATT
	 POIN2	songFightingOfTheSpirit_3_029
// 286   ----------------------------------------
	BYTE	PATT
	 POIN2	songFightingOfTheSpirit_3_028
// 287   ----------------------------------------
	BYTE	PATT
	 POIN2	songFightingOfTheSpirit_3_029
// 288   ----------------------------------------
	BYTE	PATT
	 POIN2	songFightingOfTheSpirit_3_032
// 289   ----------------------------------------
	BYTE	PATT
	 POIN2	songFightingOfTheSpirit_3_033
// 290   ----------------------------------------
	BYTE	PATT
	 POIN2	songFightingOfTheSpirit_3_034
// 291   ----------------------------------------
	BYTE	PATT
	 POIN2	songFightingOfTheSpirit_3_035
// 292   ----------------------------------------
	BYTE	PATT
	 POIN2	songFightingOfTheSpirit_3_008
// 293   ----------------------------------------
	BYTE	PATT
	 POIN2	songFightingOfTheSpirit_3_037
// 294   ----------------------------------------
	BYTE	PATT
	 POIN2	songFightingOfTheSpirit_3_038
// 295   ----------------------------------------
	BYTE	PATT
	 POIN2	songFightingOfTheSpirit_3_039
// 296   ----------------------------------------
	BYTE	PATT
	 POIN2	songFightingOfTheSpirit_3_040
// 297   ----------------------------------------
	BYTE	PATT
	 POIN2	songFightingOfTheSpirit_3_041
// 298   ----------------------------------------
	BYTE	PATT
	 POIN2	songFightingOfTheSpirit_3_042
// 299   ----------------------------------------
	BYTE	PATT
	 POIN2	songFightingOfTheSpirit_3_023
// 300   ----------------------------------------
	BYTE	PATT
	 POIN2	songFightingOfTheSpirit_3_008
// 301   ----------------------------------------
	BYTE	PATT
	 POIN2	songFightingOfTheSpirit_3_037
// 302   ----------------------------------------
	BYTE	PATT
	 POIN2	songFightingOfTheSpirit_3_038
// 303   ----------------------------------------
	BYTE	PATT
	 POIN2	songFightingOfTheSpirit_3_039
// 304   ----------------------------------------
	BYTE	PATT
	 POIN2	songFightingOfTheSpirit_3_040
// 305   ----------------------------------------
	BYTE	PATT
	 POIN2	songFightingOfTheSpirit_3_041
// 306   ----------------------------------------
	BYTE	PATT
	 POIN2	songFightingOfTheSpirit_3_050
// 307   ----------------------------------------
	BYTE	W92
	BYTE	W03
	BYTE		EOT     En3 
	BYTE		        An3 
	BYTE		        Cn4 
	BYTE	W01
// 308   ----------------------------------------
	BYTE	W96
// 309   ----------------------------------------
	BYTE	W96
// 310   ----------------------------------------
	BYTE	W96
// 311   ----------------------------------------
	BYTE	W96
// 312   ----------------------------------------
	BYTE	W96
// 313   ----------------------------------------
	BYTE	W96
// 314   ----------------------------------------
	BYTE	W96
// 315   ----------------------------------------
	BYTE	W96
// 316   ----------------------------------------
	BYTE		TIE     An2   v096
	BYTE	W96
// 317   ----------------------------------------
	BYTE	W68
	BYTE	W03
	BYTE		EOT   
	BYTE	W01
	BYTE		N23     En3 
	BYTE	W24
// 318   ----------------------------------------
	BYTE		N92     Fn2 
	BYTE	W96
// 319   ----------------------------------------
	BYTE		N44     En3 
	BYTE	W48
	BYTE		        Dn3 
	BYTE	W48
// 320   ----------------------------------------
	BYTE		N92     Gn2 
	BYTE	W96
// 321   ----------------------------------------
	BYTE	PATT
	 POIN2	songFightingOfTheSpirit_3_065
// 322   ----------------------------------------
	BYTE		TIE     An2   v096
	BYTE	W96
// 323   ----------------------------------------
	BYTE	W92
	BYTE	W03
	BYTE		EOT   
	BYTE	W01
// 324   ----------------------------------------
	BYTE	W23
	BYTE	GoTo
	 POIN2	songFightingOfTheSpirit_3_B1
songFightingOfTheSpirit_3_B2:
	BYTE	FINE

//**************** Track 4 (Midi-Chn.4) ****************//

songFightingOfTheSpirit_4:
	BYTE	KEYSH   songFightingOfTheSpirit_key+0
songFightingOfTheSpirit_4_B1:
// 000   ----------------------------------------
	BYTE		VOICE   30
	BYTE		VOL     107*songFightingOfTheSpirit_mvl/mxv
	BYTE		PAN     c_v+0
	BYTE		N11     An2   v096
	BYTE	W12
	BYTE		N23     En2 
	BYTE	W24
	BYTE		        Gn2 
	BYTE	W24
	BYTE		        En2 
	BYTE	W24
	BYTE		        Gn2 
	BYTE	W12
// 001   ----------------------------------------
songFightingOfTheSpirit_4_001:
	BYTE	W12
	BYTE		N11     En2   v096
	BYTE	W12
	BYTE		        Cn3 
	BYTE	W12
	BYTE		        En2 
	BYTE	W12
	BYTE		        Bn2 
	BYTE	W12
	BYTE		        En2 
	BYTE	W12
	BYTE		        Bn2 
	BYTE	W12
	BYTE		        En2 
	BYTE	W12
	BYTE	PEND
// 002   ----------------------------------------
	BYTE		        An2 
	BYTE	W12
	BYTE		N23     En2 
	BYTE	W24
	BYTE		        Gn2 
	BYTE	W24
	BYTE		        En2 
	BYTE	W24
	BYTE		        Gn2 
	BYTE	W12
// 003   ----------------------------------------
	BYTE	PATT
	 POIN2	songFightingOfTheSpirit_4_001
// 004   ----------------------------------------
songFightingOfTheSpirit_4_004:
	BYTE		N11     An2   v096
	BYTE	W12
	BYTE		        En2 
	BYTE	W12
	BYTE		        Gn2 
	BYTE	W12
	BYTE		N23     An2 
	BYTE	W24
	BYTE		N11     En2 
	BYTE	W12
	BYTE		        Gn2 
	BYTE	W12
	BYTE		N23     An2 
	BYTE	W12
	BYTE	PEND
// 005   ----------------------------------------
songFightingOfTheSpirit_4_005:
	BYTE	W12
	BYTE		N11     En2   v096
	BYTE	W12
	BYTE		        Gn2 
	BYTE	W12
	BYTE		N23     An2 
	BYTE	W24
	BYTE		N11     En2 
	BYTE	W12
	BYTE		        Gn2 
	BYTE	W12
	BYTE		        En2 
	BYTE	W12
	BYTE	PEND
// 006   ----------------------------------------
songFightingOfTheSpirit_4_006:
	BYTE		N11     Fn2   v096
	BYTE	W12
	BYTE		        Cn2 
	BYTE	W12
	BYTE		        En2 
	BYTE	W12
	BYTE		N23     Fn2 
	BYTE	W24
	BYTE		N11     Cn2 
	BYTE	W12
	BYTE		        En2 
	BYTE	W12
	BYTE		N23     Fn2 
	BYTE	W12
	BYTE	PEND
// 007   ----------------------------------------
songFightingOfTheSpirit_4_007:
	BYTE	W12
	BYTE		N11     Cn2   v096
	BYTE	W12
	BYTE		        En2 
	BYTE	W12
	BYTE		N23     Fn2 
	BYTE	W24
	BYTE		N11     Cn2 
	BYTE	W12
	BYTE		        En2 
	BYTE	W12
	BYTE		        Cn2 
	BYTE	W12
	BYTE	PEND
// 008   ----------------------------------------
songFightingOfTheSpirit_4_008:
	BYTE		N11     Gn2   v096
	BYTE	W12
	BYTE		        Dn2 
	BYTE	W12
	BYTE		        Fn2 
	BYTE	W12
	BYTE		N23     Gn2 
	BYTE	W24
	BYTE		N11     Dn2 
	BYTE	W12
	BYTE		        Fn2 
	BYTE	W12
	BYTE		N23     Gn2 
	BYTE	W12
	BYTE	PEND
// 009   ----------------------------------------
songFightingOfTheSpirit_4_009:
	BYTE	W12
	BYTE		N11     Dn2   v096
	BYTE	W12
	BYTE		        Fn2 
	BYTE	W12
	BYTE		N23     Gn2 
	BYTE	W24
	BYTE		N11     Dn2 
	BYTE	W12
	BYTE		        Fn2 
	BYTE	W12
	BYTE		        Dn2 
	BYTE	W12
	BYTE	PEND
// 010   ----------------------------------------
	BYTE	PATT
	 POIN2	songFightingOfTheSpirit_4_004
// 011   ----------------------------------------
	BYTE	PATT
	 POIN2	songFightingOfTheSpirit_4_005
// 012   ----------------------------------------
	BYTE	PATT
	 POIN2	songFightingOfTheSpirit_4_004
// 013   ----------------------------------------
	BYTE	PATT
	 POIN2	songFightingOfTheSpirit_4_005
// 014   ----------------------------------------
	BYTE	PATT
	 POIN2	songFightingOfTheSpirit_4_006
// 015   ----------------------------------------
	BYTE	PATT
	 POIN2	songFightingOfTheSpirit_4_007
// 016   ----------------------------------------
	BYTE	PATT
	 POIN2	songFightingOfTheSpirit_4_008
// 017   ----------------------------------------
	BYTE	PATT
	 POIN2	songFightingOfTheSpirit_4_009
// 018   ----------------------------------------
	BYTE	PATT
	 POIN2	songFightingOfTheSpirit_4_004
// 019   ----------------------------------------
	BYTE	PATT
	 POIN2	songFightingOfTheSpirit_4_005
// 020   ----------------------------------------
songFightingOfTheSpirit_4_020:
	BYTE		N23     Dn2   v096
	BYTE	W36
	BYTE		        Fn2 
	BYTE	W36
	BYTE		        Cn3 
	BYTE	W24
	BYTE	PEND
// 021   ----------------------------------------
songFightingOfTheSpirit_4_021:
	BYTE	W12
	BYTE		N23     En3   v096
	BYTE	W36
	BYTE		        Dn3 
	BYTE	W24
	BYTE		        Cn3 
	BYTE	W24
	BYTE	PEND
// 022   ----------------------------------------
songFightingOfTheSpirit_4_022:
	BYTE		N23     Gn2   v096
	BYTE	W36
	BYTE		        Bn2 
	BYTE	W36
	BYTE		        Cn3 
	BYTE	W24
	BYTE	PEND
// 023   ----------------------------------------
songFightingOfTheSpirit_4_023:
	BYTE	W12
	BYTE		N23     Dn3   v096
	BYTE	W36
	BYTE		        Cn3 
	BYTE	W24
	BYTE		        Bn2 
	BYTE	W24
	BYTE	PEND
// 024   ----------------------------------------
	BYTE	PATT
	 POIN2	songFightingOfTheSpirit_4_020
// 025   ----------------------------------------
	BYTE	PATT
	 POIN2	songFightingOfTheSpirit_4_021
// 026   ----------------------------------------
	BYTE	PATT
	 POIN2	songFightingOfTheSpirit_4_022
// 027   ----------------------------------------
	BYTE	PATT
	 POIN2	songFightingOfTheSpirit_4_023
// 028   ----------------------------------------
	BYTE	PATT
	 POIN2	songFightingOfTheSpirit_4_020
// 029   ----------------------------------------
	BYTE	PATT
	 POIN2	songFightingOfTheSpirit_4_021
// 030   ----------------------------------------
	BYTE	PATT
	 POIN2	songFightingOfTheSpirit_4_022
// 031   ----------------------------------------
	BYTE	PATT
	 POIN2	songFightingOfTheSpirit_4_023
// 032   ----------------------------------------
	BYTE	PATT
	 POIN2	songFightingOfTheSpirit_4_020
// 033   ----------------------------------------
	BYTE	PATT
	 POIN2	songFightingOfTheSpirit_4_021
// 034   ----------------------------------------
	BYTE	PATT
	 POIN2	songFightingOfTheSpirit_4_022
// 035   ----------------------------------------
songFightingOfTheSpirit_4_035:
	BYTE	W12
	BYTE		N23     Dn3   v096
	BYTE	W36
	BYTE		        En3 
	BYTE	W24
	BYTE		        Fn3 
	BYTE	W24
	BYTE	PEND
// 036   ----------------------------------------
	BYTE	PATT
	 POIN2	songFightingOfTheSpirit_4_004
// 037   ----------------------------------------
	BYTE	PATT
	 POIN2	songFightingOfTheSpirit_4_005
// 038   ----------------------------------------
	BYTE	PATT
	 POIN2	songFightingOfTheSpirit_4_006
// 039   ----------------------------------------
	BYTE	PATT
	 POIN2	songFightingOfTheSpirit_4_007
// 040   ----------------------------------------
	BYTE	PATT
	 POIN2	songFightingOfTheSpirit_4_008
// 041   ----------------------------------------
	BYTE	PATT
	 POIN2	songFightingOfTheSpirit_4_009
// 042   ----------------------------------------
	BYTE	PATT
	 POIN2	songFightingOfTheSpirit_4_004
// 043   ----------------------------------------
	BYTE	PATT
	 POIN2	songFightingOfTheSpirit_4_005
// 044   ----------------------------------------
	BYTE	PATT
	 POIN2	songFightingOfTheSpirit_4_004
// 045   ----------------------------------------
	BYTE	PATT
	 POIN2	songFightingOfTheSpirit_4_005
// 046   ----------------------------------------
	BYTE	PATT
	 POIN2	songFightingOfTheSpirit_4_006
// 047   ----------------------------------------
	BYTE	PATT
	 POIN2	songFightingOfTheSpirit_4_007
// 048   ----------------------------------------
	BYTE	PATT
	 POIN2	songFightingOfTheSpirit_4_008
// 049   ----------------------------------------
	BYTE	PATT
	 POIN2	songFightingOfTheSpirit_4_009
// 050   ----------------------------------------
	BYTE	PATT
	 POIN2	songFightingOfTheSpirit_4_004
// 051   ----------------------------------------
songFightingOfTheSpirit_4_051:
	BYTE	W12
	BYTE		N11     Gn2   v096
	BYTE	W12
	BYTE		        An2 
	BYTE	W12
	BYTE		        Bn2 
	BYTE	W12
	BYTE		        Cn3 
	BYTE	W12
	BYTE		        An2 
	BYTE	W12
	BYTE		        Dn3 
	BYTE	W12
	BYTE		        An2 
	BYTE	W12
	BYTE	PEND
// 052   ----------------------------------------
songFightingOfTheSpirit_4_052:
	BYTE		N11     Cn3   v096
	BYTE	W12
	BYTE		N11   
	BYTE	W12
	BYTE		        Bn2 
	BYTE	W12
	BYTE		        Cn3 
	BYTE	W24
	BYTE		        Bn2 
	BYTE	W24
	BYTE		        Dn3 
	BYTE	W12
	BYTE	PEND
// 053   ----------------------------------------
songFightingOfTheSpirit_4_053:
	BYTE	W12
	BYTE		N11     Cn3   v096
	BYTE	W12
	BYTE		        Bn2 
	BYTE	W24
	BYTE		N32     Cn3 
	BYTE	W48
	BYTE	PEND
// 054   ----------------------------------------
	BYTE	PATT
	 POIN2	songFightingOfTheSpirit_4_052
// 055   ----------------------------------------
	BYTE	PATT
	 POIN2	songFightingOfTheSpirit_4_053
// 056   ----------------------------------------
songFightingOfTheSpirit_4_056:
	BYTE		N11     Dn3   v096
	BYTE	W12
	BYTE		N11   
	BYTE	W12
	BYTE		        Cn3 
	BYTE	W12
	BYTE		        Dn3 
	BYTE	W24
	BYTE		        Cn3 
	BYTE	W24
	BYTE		        En3 
	BYTE	W12
	BYTE	PEND
// 057   ----------------------------------------
songFightingOfTheSpirit_4_057:
	BYTE	W12
	BYTE		N11     Dn3   v096
	BYTE	W12
	BYTE		        Cn3 
	BYTE	W24
	BYTE		N32     Dn3 
	BYTE	W48
	BYTE	PEND
// 058   ----------------------------------------
	BYTE	PATT
	 POIN2	songFightingOfTheSpirit_4_052
// 059   ----------------------------------------
	BYTE	PATT
	 POIN2	songFightingOfTheSpirit_4_053
// 060   ----------------------------------------
songFightingOfTheSpirit_4_060:
	BYTE		N11     Cn3   v096
	BYTE	W12
	BYTE		N11   
	BYTE	W12
	BYTE		        Bn2 
	BYTE	W12
	BYTE		        Cn3 
	BYTE	W24
	BYTE		        Bn2 
	BYTE	W24
	BYTE		        En3 
	BYTE	W12
	BYTE	PEND
// 061   ----------------------------------------
	BYTE	PATT
	 POIN2	songFightingOfTheSpirit_4_053
// 062   ----------------------------------------
	BYTE	PATT
	 POIN2	songFightingOfTheSpirit_4_052
// 063   ----------------------------------------
	BYTE	PATT
	 POIN2	songFightingOfTheSpirit_4_053
// 064   ----------------------------------------
	BYTE	PATT
	 POIN2	songFightingOfTheSpirit_4_056
// 065   ----------------------------------------
	BYTE	PATT
	 POIN2	songFightingOfTheSpirit_4_057
// 066   ----------------------------------------
	BYTE	PATT
	 POIN2	songFightingOfTheSpirit_4_052
// 067   ----------------------------------------
	BYTE	PATT
	 POIN2	songFightingOfTheSpirit_4_053
// 068   ----------------------------------------
	BYTE	PATT
	 POIN2	songFightingOfTheSpirit_4_004
// 069   ----------------------------------------
	BYTE	PATT
	 POIN2	songFightingOfTheSpirit_4_005
// 070   ----------------------------------------
	BYTE	PATT
	 POIN2	songFightingOfTheSpirit_4_006
// 071   ----------------------------------------
	BYTE	PATT
	 POIN2	songFightingOfTheSpirit_4_007
// 072   ----------------------------------------
	BYTE	PATT
	 POIN2	songFightingOfTheSpirit_4_008
// 073   ----------------------------------------
	BYTE	PATT
	 POIN2	songFightingOfTheSpirit_4_009
// 074   ----------------------------------------
	BYTE	PATT
	 POIN2	songFightingOfTheSpirit_4_004
// 075   ----------------------------------------
	BYTE	PATT
	 POIN2	songFightingOfTheSpirit_4_005
// 076   ----------------------------------------
	BYTE	PATT
	 POIN2	songFightingOfTheSpirit_4_004
// 077   ----------------------------------------
	BYTE	PATT
	 POIN2	songFightingOfTheSpirit_4_005
// 078   ----------------------------------------
	BYTE	PATT
	 POIN2	songFightingOfTheSpirit_4_006
// 079   ----------------------------------------
	BYTE	PATT
	 POIN2	songFightingOfTheSpirit_4_007
// 080   ----------------------------------------
	BYTE	PATT
	 POIN2	songFightingOfTheSpirit_4_008
// 081   ----------------------------------------
	BYTE	PATT
	 POIN2	songFightingOfTheSpirit_4_009
// 082   ----------------------------------------
	BYTE	PATT
	 POIN2	songFightingOfTheSpirit_4_004
// 083   ----------------------------------------
	BYTE	PATT
	 POIN2	songFightingOfTheSpirit_4_005
// 084   ----------------------------------------
	BYTE	PATT
	 POIN2	songFightingOfTheSpirit_4_020
// 085   ----------------------------------------
	BYTE	PATT
	 POIN2	songFightingOfTheSpirit_4_021
// 086   ----------------------------------------
	BYTE	PATT
	 POIN2	songFightingOfTheSpirit_4_022
// 087   ----------------------------------------
	BYTE	PATT
	 POIN2	songFightingOfTheSpirit_4_023
// 088   ----------------------------------------
	BYTE	PATT
	 POIN2	songFightingOfTheSpirit_4_020
// 089   ----------------------------------------
	BYTE	PATT
	 POIN2	songFightingOfTheSpirit_4_021
// 090   ----------------------------------------
	BYTE	PATT
	 POIN2	songFightingOfTheSpirit_4_022
// 091   ----------------------------------------
	BYTE	PATT
	 POIN2	songFightingOfTheSpirit_4_023
// 092   ----------------------------------------
	BYTE	PATT
	 POIN2	songFightingOfTheSpirit_4_020
// 093   ----------------------------------------
	BYTE	PATT
	 POIN2	songFightingOfTheSpirit_4_021
// 094   ----------------------------------------
	BYTE	PATT
	 POIN2	songFightingOfTheSpirit_4_022
// 095   ----------------------------------------
	BYTE	PATT
	 POIN2	songFightingOfTheSpirit_4_023
// 096   ----------------------------------------
	BYTE	PATT
	 POIN2	songFightingOfTheSpirit_4_020
// 097   ----------------------------------------
	BYTE	PATT
	 POIN2	songFightingOfTheSpirit_4_021
// 098   ----------------------------------------
	BYTE	PATT
	 POIN2	songFightingOfTheSpirit_4_022
// 099   ----------------------------------------
	BYTE	PATT
	 POIN2	songFightingOfTheSpirit_4_035
// 100   ----------------------------------------
	BYTE	PATT
	 POIN2	songFightingOfTheSpirit_4_004
// 101   ----------------------------------------
	BYTE	PATT
	 POIN2	songFightingOfTheSpirit_4_005
// 102   ----------------------------------------
	BYTE	PATT
	 POIN2	songFightingOfTheSpirit_4_006
// 103   ----------------------------------------
	BYTE	PATT
	 POIN2	songFightingOfTheSpirit_4_007
// 104   ----------------------------------------
	BYTE	PATT
	 POIN2	songFightingOfTheSpirit_4_008
// 105   ----------------------------------------
	BYTE	PATT
	 POIN2	songFightingOfTheSpirit_4_009
// 106   ----------------------------------------
	BYTE	PATT
	 POIN2	songFightingOfTheSpirit_4_004
// 107   ----------------------------------------
	BYTE	PATT
	 POIN2	songFightingOfTheSpirit_4_005
// 108   ----------------------------------------
	BYTE	PATT
	 POIN2	songFightingOfTheSpirit_4_004
// 109   ----------------------------------------
	BYTE	PATT
	 POIN2	songFightingOfTheSpirit_4_005
// 110   ----------------------------------------
	BYTE	PATT
	 POIN2	songFightingOfTheSpirit_4_006
// 111   ----------------------------------------
	BYTE	PATT
	 POIN2	songFightingOfTheSpirit_4_007
// 112   ----------------------------------------
	BYTE	PATT
	 POIN2	songFightingOfTheSpirit_4_008
// 113   ----------------------------------------
	BYTE	PATT
	 POIN2	songFightingOfTheSpirit_4_009
// 114   ----------------------------------------
	BYTE	PATT
	 POIN2	songFightingOfTheSpirit_4_004
// 115   ----------------------------------------
	BYTE	PATT
	 POIN2	songFightingOfTheSpirit_4_051
// 116   ----------------------------------------
	BYTE	PATT
	 POIN2	songFightingOfTheSpirit_4_052
// 117   ----------------------------------------
	BYTE	PATT
	 POIN2	songFightingOfTheSpirit_4_053
// 118   ----------------------------------------
	BYTE	PATT
	 POIN2	songFightingOfTheSpirit_4_052
// 119   ----------------------------------------
	BYTE	PATT
	 POIN2	songFightingOfTheSpirit_4_053
// 120   ----------------------------------------
	BYTE	PATT
	 POIN2	songFightingOfTheSpirit_4_056
// 121   ----------------------------------------
	BYTE	PATT
	 POIN2	songFightingOfTheSpirit_4_057
// 122   ----------------------------------------
	BYTE	PATT
	 POIN2	songFightingOfTheSpirit_4_052
// 123   ----------------------------------------
	BYTE	PATT
	 POIN2	songFightingOfTheSpirit_4_053
// 124   ----------------------------------------
	BYTE	PATT
	 POIN2	songFightingOfTheSpirit_4_060
// 125   ----------------------------------------
	BYTE	PATT
	 POIN2	songFightingOfTheSpirit_4_053
// 126   ----------------------------------------
	BYTE	PATT
	 POIN2	songFightingOfTheSpirit_4_052
// 127   ----------------------------------------
	BYTE	PATT
	 POIN2	songFightingOfTheSpirit_4_053
// 128   ----------------------------------------
	BYTE	PATT
	 POIN2	songFightingOfTheSpirit_4_056
// 129   ----------------------------------------
	BYTE	PATT
	 POIN2	songFightingOfTheSpirit_4_057
// 130   ----------------------------------------
	BYTE	PATT
	 POIN2	songFightingOfTheSpirit_4_052
// 131   ----------------------------------------
	BYTE	PATT
	 POIN2	songFightingOfTheSpirit_4_053
// 132   ----------------------------------------
	BYTE	PATT
	 POIN2	songFightingOfTheSpirit_4_004
// 133   ----------------------------------------
	BYTE	PATT
	 POIN2	songFightingOfTheSpirit_4_005
// 134   ----------------------------------------
	BYTE	PATT
	 POIN2	songFightingOfTheSpirit_4_006
// 135   ----------------------------------------
	BYTE	PATT
	 POIN2	songFightingOfTheSpirit_4_007
// 136   ----------------------------------------
	BYTE	PATT
	 POIN2	songFightingOfTheSpirit_4_008
// 137   ----------------------------------------
	BYTE	PATT
	 POIN2	songFightingOfTheSpirit_4_009
// 138   ----------------------------------------
	BYTE	PATT
	 POIN2	songFightingOfTheSpirit_4_004
// 139   ----------------------------------------
	BYTE	PATT
	 POIN2	songFightingOfTheSpirit_4_005
// 140   ----------------------------------------
	BYTE	PATT
	 POIN2	songFightingOfTheSpirit_4_004
// 141   ----------------------------------------
	BYTE	PATT
	 POIN2	songFightingOfTheSpirit_4_005
// 142   ----------------------------------------
	BYTE	PATT
	 POIN2	songFightingOfTheSpirit_4_006
// 143   ----------------------------------------
	BYTE	PATT
	 POIN2	songFightingOfTheSpirit_4_007
// 144   ----------------------------------------
	BYTE	PATT
	 POIN2	songFightingOfTheSpirit_4_008
// 145   ----------------------------------------
	BYTE	PATT
	 POIN2	songFightingOfTheSpirit_4_009
// 146   ----------------------------------------
	BYTE	PATT
	 POIN2	songFightingOfTheSpirit_4_004
// 147   ----------------------------------------
	BYTE	PATT
	 POIN2	songFightingOfTheSpirit_4_005
// 148   ----------------------------------------
	BYTE	PATT
	 POIN2	songFightingOfTheSpirit_4_020
// 149   ----------------------------------------
	BYTE	PATT
	 POIN2	songFightingOfTheSpirit_4_021
// 150   ----------------------------------------
	BYTE	PATT
	 POIN2	songFightingOfTheSpirit_4_022
// 151   ----------------------------------------
	BYTE	PATT
	 POIN2	songFightingOfTheSpirit_4_023
// 152   ----------------------------------------
	BYTE	PATT
	 POIN2	songFightingOfTheSpirit_4_020
// 153   ----------------------------------------
	BYTE	PATT
	 POIN2	songFightingOfTheSpirit_4_021
// 154   ----------------------------------------
	BYTE	PATT
	 POIN2	songFightingOfTheSpirit_4_022
// 155   ----------------------------------------
	BYTE	PATT
	 POIN2	songFightingOfTheSpirit_4_023
// 156   ----------------------------------------
	BYTE	PATT
	 POIN2	songFightingOfTheSpirit_4_020
// 157   ----------------------------------------
	BYTE	PATT
	 POIN2	songFightingOfTheSpirit_4_021
// 158   ----------------------------------------
	BYTE	PATT
	 POIN2	songFightingOfTheSpirit_4_022
// 159   ----------------------------------------
	BYTE	PATT
	 POIN2	songFightingOfTheSpirit_4_023
// 160   ----------------------------------------
	BYTE	PATT
	 POIN2	songFightingOfTheSpirit_4_020
// 161   ----------------------------------------
	BYTE	PATT
	 POIN2	songFightingOfTheSpirit_4_021
// 162   ----------------------------------------
	BYTE	PATT
	 POIN2	songFightingOfTheSpirit_4_022
// 163   ----------------------------------------
	BYTE	PATT
	 POIN2	songFightingOfTheSpirit_4_035
// 164   ----------------------------------------
	BYTE	PATT
	 POIN2	songFightingOfTheSpirit_4_004
// 165   ----------------------------------------
	BYTE	PATT
	 POIN2	songFightingOfTheSpirit_4_005
// 166   ----------------------------------------
	BYTE	PATT
	 POIN2	songFightingOfTheSpirit_4_006
// 167   ----------------------------------------
	BYTE	PATT
	 POIN2	songFightingOfTheSpirit_4_007
// 168   ----------------------------------------
	BYTE	PATT
	 POIN2	songFightingOfTheSpirit_4_008
// 169   ----------------------------------------
	BYTE	PATT
	 POIN2	songFightingOfTheSpirit_4_009
// 170   ----------------------------------------
	BYTE	PATT
	 POIN2	songFightingOfTheSpirit_4_004
// 171   ----------------------------------------
	BYTE	PATT
	 POIN2	songFightingOfTheSpirit_4_005
// 172   ----------------------------------------
	BYTE	PATT
	 POIN2	songFightingOfTheSpirit_4_004
// 173   ----------------------------------------
	BYTE	PATT
	 POIN2	songFightingOfTheSpirit_4_005
// 174   ----------------------------------------
	BYTE	PATT
	 POIN2	songFightingOfTheSpirit_4_006
// 175   ----------------------------------------
	BYTE	PATT
	 POIN2	songFightingOfTheSpirit_4_007
// 176   ----------------------------------------
	BYTE	PATT
	 POIN2	songFightingOfTheSpirit_4_008
// 177   ----------------------------------------
	BYTE	PATT
	 POIN2	songFightingOfTheSpirit_4_009
// 178   ----------------------------------------
	BYTE	PATT
	 POIN2	songFightingOfTheSpirit_4_004
// 179   ----------------------------------------
	BYTE	PATT
	 POIN2	songFightingOfTheSpirit_4_051
// 180   ----------------------------------------
	BYTE	PATT
	 POIN2	songFightingOfTheSpirit_4_052
// 181   ----------------------------------------
	BYTE	PATT
	 POIN2	songFightingOfTheSpirit_4_053
// 182   ----------------------------------------
	BYTE	PATT
	 POIN2	songFightingOfTheSpirit_4_052
// 183   ----------------------------------------
	BYTE	PATT
	 POIN2	songFightingOfTheSpirit_4_053
// 184   ----------------------------------------
	BYTE	PATT
	 POIN2	songFightingOfTheSpirit_4_056
// 185   ----------------------------------------
	BYTE	PATT
	 POIN2	songFightingOfTheSpirit_4_057
// 186   ----------------------------------------
	BYTE	PATT
	 POIN2	songFightingOfTheSpirit_4_052
// 187   ----------------------------------------
	BYTE	PATT
	 POIN2	songFightingOfTheSpirit_4_053
// 188   ----------------------------------------
	BYTE	PATT
	 POIN2	songFightingOfTheSpirit_4_060
// 189   ----------------------------------------
	BYTE	PATT
	 POIN2	songFightingOfTheSpirit_4_053
// 190   ----------------------------------------
	BYTE	PATT
	 POIN2	songFightingOfTheSpirit_4_052
// 191   ----------------------------------------
	BYTE	PATT
	 POIN2	songFightingOfTheSpirit_4_053
// 192   ----------------------------------------
	BYTE	PATT
	 POIN2	songFightingOfTheSpirit_4_056
// 193   ----------------------------------------
	BYTE	PATT
	 POIN2	songFightingOfTheSpirit_4_057
// 194   ----------------------------------------
	BYTE	PATT
	 POIN2	songFightingOfTheSpirit_4_052
// 195   ----------------------------------------
	BYTE	PATT
	 POIN2	songFightingOfTheSpirit_4_053
// 196   ----------------------------------------
	BYTE	PATT
	 POIN2	songFightingOfTheSpirit_4_004
// 197   ----------------------------------------
	BYTE	PATT
	 POIN2	songFightingOfTheSpirit_4_005
// 198   ----------------------------------------
	BYTE	PATT
	 POIN2	songFightingOfTheSpirit_4_006
// 199   ----------------------------------------
	BYTE	PATT
	 POIN2	songFightingOfTheSpirit_4_007
// 200   ----------------------------------------
	BYTE	PATT
	 POIN2	songFightingOfTheSpirit_4_008
// 201   ----------------------------------------
	BYTE	PATT
	 POIN2	songFightingOfTheSpirit_4_009
// 202   ----------------------------------------
	BYTE	PATT
	 POIN2	songFightingOfTheSpirit_4_004
// 203   ----------------------------------------
	BYTE	PATT
	 POIN2	songFightingOfTheSpirit_4_005
// 204   ----------------------------------------
	BYTE	PATT
	 POIN2	songFightingOfTheSpirit_4_004
// 205   ----------------------------------------
	BYTE	PATT
	 POIN2	songFightingOfTheSpirit_4_005
// 206   ----------------------------------------
	BYTE	PATT
	 POIN2	songFightingOfTheSpirit_4_006
// 207   ----------------------------------------
	BYTE	PATT
	 POIN2	songFightingOfTheSpirit_4_007
// 208   ----------------------------------------
	BYTE	PATT
	 POIN2	songFightingOfTheSpirit_4_008
// 209   ----------------------------------------
	BYTE	PATT
	 POIN2	songFightingOfTheSpirit_4_009
// 210   ----------------------------------------
	BYTE	PATT
	 POIN2	songFightingOfTheSpirit_4_004
// 211   ----------------------------------------
	BYTE	PATT
	 POIN2	songFightingOfTheSpirit_4_005
// 212   ----------------------------------------
	BYTE	PATT
	 POIN2	songFightingOfTheSpirit_4_020
// 213   ----------------------------------------
	BYTE	PATT
	 POIN2	songFightingOfTheSpirit_4_021
// 214   ----------------------------------------
	BYTE	PATT
	 POIN2	songFightingOfTheSpirit_4_022
// 215   ----------------------------------------
	BYTE	PATT
	 POIN2	songFightingOfTheSpirit_4_023
// 216   ----------------------------------------
	BYTE	PATT
	 POIN2	songFightingOfTheSpirit_4_020
// 217   ----------------------------------------
	BYTE	PATT
	 POIN2	songFightingOfTheSpirit_4_021
// 218   ----------------------------------------
	BYTE	PATT
	 POIN2	songFightingOfTheSpirit_4_022
// 219   ----------------------------------------
	BYTE	PATT
	 POIN2	songFightingOfTheSpirit_4_023
// 220   ----------------------------------------
	BYTE	PATT
	 POIN2	songFightingOfTheSpirit_4_020
// 221   ----------------------------------------
	BYTE	PATT
	 POIN2	songFightingOfTheSpirit_4_021
// 222   ----------------------------------------
	BYTE	PATT
	 POIN2	songFightingOfTheSpirit_4_022
// 223   ----------------------------------------
	BYTE	PATT
	 POIN2	songFightingOfTheSpirit_4_023
// 224   ----------------------------------------
	BYTE	PATT
	 POIN2	songFightingOfTheSpirit_4_020
// 225   ----------------------------------------
	BYTE	PATT
	 POIN2	songFightingOfTheSpirit_4_021
// 226   ----------------------------------------
	BYTE	PATT
	 POIN2	songFightingOfTheSpirit_4_022
// 227   ----------------------------------------
	BYTE	PATT
	 POIN2	songFightingOfTheSpirit_4_035
// 228   ----------------------------------------
	BYTE	PATT
	 POIN2	songFightingOfTheSpirit_4_004
// 229   ----------------------------------------
	BYTE	PATT
	 POIN2	songFightingOfTheSpirit_4_005
// 230   ----------------------------------------
	BYTE	PATT
	 POIN2	songFightingOfTheSpirit_4_006
// 231   ----------------------------------------
	BYTE	PATT
	 POIN2	songFightingOfTheSpirit_4_007
// 232   ----------------------------------------
	BYTE	PATT
	 POIN2	songFightingOfTheSpirit_4_008
// 233   ----------------------------------------
	BYTE	PATT
	 POIN2	songFightingOfTheSpirit_4_009
// 234   ----------------------------------------
	BYTE	PATT
	 POIN2	songFightingOfTheSpirit_4_004
// 235   ----------------------------------------
	BYTE	PATT
	 POIN2	songFightingOfTheSpirit_4_005
// 236   ----------------------------------------
	BYTE	PATT
	 POIN2	songFightingOfTheSpirit_4_004
// 237   ----------------------------------------
	BYTE	PATT
	 POIN2	songFightingOfTheSpirit_4_005
// 238   ----------------------------------------
	BYTE	PATT
	 POIN2	songFightingOfTheSpirit_4_006
// 239   ----------------------------------------
	BYTE	PATT
	 POIN2	songFightingOfTheSpirit_4_007
// 240   ----------------------------------------
	BYTE	PATT
	 POIN2	songFightingOfTheSpirit_4_008
// 241   ----------------------------------------
	BYTE	PATT
	 POIN2	songFightingOfTheSpirit_4_009
// 242   ----------------------------------------
	BYTE	PATT
	 POIN2	songFightingOfTheSpirit_4_004
// 243   ----------------------------------------
	BYTE	PATT
	 POIN2	songFightingOfTheSpirit_4_051
// 244   ----------------------------------------
	BYTE	PATT
	 POIN2	songFightingOfTheSpirit_4_052
// 245   ----------------------------------------
	BYTE	PATT
	 POIN2	songFightingOfTheSpirit_4_053
// 246   ----------------------------------------
	BYTE	PATT
	 POIN2	songFightingOfTheSpirit_4_052
// 247   ----------------------------------------
	BYTE	PATT
	 POIN2	songFightingOfTheSpirit_4_053
// 248   ----------------------------------------
	BYTE	PATT
	 POIN2	songFightingOfTheSpirit_4_056
// 249   ----------------------------------------
	BYTE	PATT
	 POIN2	songFightingOfTheSpirit_4_057
// 250   ----------------------------------------
	BYTE	PATT
	 POIN2	songFightingOfTheSpirit_4_052
// 251   ----------------------------------------
	BYTE	PATT
	 POIN2	songFightingOfTheSpirit_4_053
// 252   ----------------------------------------
	BYTE	PATT
	 POIN2	songFightingOfTheSpirit_4_060
// 253   ----------------------------------------
	BYTE	PATT
	 POIN2	songFightingOfTheSpirit_4_053
// 254   ----------------------------------------
	BYTE	PATT
	 POIN2	songFightingOfTheSpirit_4_052
// 255   ----------------------------------------
	BYTE	PATT
	 POIN2	songFightingOfTheSpirit_4_053
// 256   ----------------------------------------
	BYTE	PATT
	 POIN2	songFightingOfTheSpirit_4_056
// 257   ----------------------------------------
	BYTE	PATT
	 POIN2	songFightingOfTheSpirit_4_057
// 258   ----------------------------------------
	BYTE	PATT
	 POIN2	songFightingOfTheSpirit_4_052
// 259   ----------------------------------------
	BYTE	PATT
	 POIN2	songFightingOfTheSpirit_4_053
// 260   ----------------------------------------
	BYTE	PATT
	 POIN2	songFightingOfTheSpirit_4_004
// 261   ----------------------------------------
	BYTE	PATT
	 POIN2	songFightingOfTheSpirit_4_005
// 262   ----------------------------------------
	BYTE	PATT
	 POIN2	songFightingOfTheSpirit_4_006
// 263   ----------------------------------------
	BYTE	PATT
	 POIN2	songFightingOfTheSpirit_4_007
// 264   ----------------------------------------
	BYTE	PATT
	 POIN2	songFightingOfTheSpirit_4_008
// 265   ----------------------------------------
	BYTE	PATT
	 POIN2	songFightingOfTheSpirit_4_009
// 266   ----------------------------------------
	BYTE	PATT
	 POIN2	songFightingOfTheSpirit_4_004
// 267   ----------------------------------------
	BYTE	PATT
	 POIN2	songFightingOfTheSpirit_4_005
// 268   ----------------------------------------
	BYTE	PATT
	 POIN2	songFightingOfTheSpirit_4_004
// 269   ----------------------------------------
	BYTE	PATT
	 POIN2	songFightingOfTheSpirit_4_005
// 270   ----------------------------------------
	BYTE	PATT
	 POIN2	songFightingOfTheSpirit_4_006
// 271   ----------------------------------------
	BYTE	PATT
	 POIN2	songFightingOfTheSpirit_4_007
// 272   ----------------------------------------
	BYTE	PATT
	 POIN2	songFightingOfTheSpirit_4_008
// 273   ----------------------------------------
	BYTE	PATT
	 POIN2	songFightingOfTheSpirit_4_009
// 274   ----------------------------------------
	BYTE	PATT
	 POIN2	songFightingOfTheSpirit_4_004
// 275   ----------------------------------------
	BYTE	PATT
	 POIN2	songFightingOfTheSpirit_4_005
// 276   ----------------------------------------
	BYTE	PATT
	 POIN2	songFightingOfTheSpirit_4_020
// 277   ----------------------------------------
	BYTE	PATT
	 POIN2	songFightingOfTheSpirit_4_021
// 278   ----------------------------------------
	BYTE	PATT
	 POIN2	songFightingOfTheSpirit_4_022
// 279   ----------------------------------------
	BYTE	PATT
	 POIN2	songFightingOfTheSpirit_4_023
// 280   ----------------------------------------
	BYTE	PATT
	 POIN2	songFightingOfTheSpirit_4_020
// 281   ----------------------------------------
	BYTE	PATT
	 POIN2	songFightingOfTheSpirit_4_021
// 282   ----------------------------------------
	BYTE	PATT
	 POIN2	songFightingOfTheSpirit_4_022
// 283   ----------------------------------------
	BYTE	PATT
	 POIN2	songFightingOfTheSpirit_4_023
// 284   ----------------------------------------
	BYTE	PATT
	 POIN2	songFightingOfTheSpirit_4_020
// 285   ----------------------------------------
	BYTE	PATT
	 POIN2	songFightingOfTheSpirit_4_021
// 286   ----------------------------------------
	BYTE	PATT
	 POIN2	songFightingOfTheSpirit_4_022
// 287   ----------------------------------------
	BYTE	PATT
	 POIN2	songFightingOfTheSpirit_4_023
// 288   ----------------------------------------
	BYTE	PATT
	 POIN2	songFightingOfTheSpirit_4_020
// 289   ----------------------------------------
	BYTE	PATT
	 POIN2	songFightingOfTheSpirit_4_021
// 290   ----------------------------------------
	BYTE	PATT
	 POIN2	songFightingOfTheSpirit_4_022
// 291   ----------------------------------------
	BYTE	PATT
	 POIN2	songFightingOfTheSpirit_4_035
// 292   ----------------------------------------
	BYTE	PATT
	 POIN2	songFightingOfTheSpirit_4_004
// 293   ----------------------------------------
	BYTE	PATT
	 POIN2	songFightingOfTheSpirit_4_005
// 294   ----------------------------------------
	BYTE	PATT
	 POIN2	songFightingOfTheSpirit_4_006
// 295   ----------------------------------------
	BYTE	PATT
	 POIN2	songFightingOfTheSpirit_4_007
// 296   ----------------------------------------
	BYTE	PATT
	 POIN2	songFightingOfTheSpirit_4_008
// 297   ----------------------------------------
	BYTE	PATT
	 POIN2	songFightingOfTheSpirit_4_009
// 298   ----------------------------------------
	BYTE	PATT
	 POIN2	songFightingOfTheSpirit_4_004
// 299   ----------------------------------------
	BYTE	PATT
	 POIN2	songFightingOfTheSpirit_4_005
// 300   ----------------------------------------
	BYTE	PATT
	 POIN2	songFightingOfTheSpirit_4_004
// 301   ----------------------------------------
	BYTE	PATT
	 POIN2	songFightingOfTheSpirit_4_005
// 302   ----------------------------------------
	BYTE	PATT
	 POIN2	songFightingOfTheSpirit_4_006
// 303   ----------------------------------------
	BYTE	PATT
	 POIN2	songFightingOfTheSpirit_4_007
// 304   ----------------------------------------
	BYTE	PATT
	 POIN2	songFightingOfTheSpirit_4_008
// 305   ----------------------------------------
	BYTE	PATT
	 POIN2	songFightingOfTheSpirit_4_009
// 306   ----------------------------------------
	BYTE	PATT
	 POIN2	songFightingOfTheSpirit_4_004
// 307   ----------------------------------------
	BYTE	PATT
	 POIN2	songFightingOfTheSpirit_4_051
// 308   ----------------------------------------
	BYTE	PATT
	 POIN2	songFightingOfTheSpirit_4_052
// 309   ----------------------------------------
	BYTE	PATT
	 POIN2	songFightingOfTheSpirit_4_053
// 310   ----------------------------------------
	BYTE	PATT
	 POIN2	songFightingOfTheSpirit_4_052
// 311   ----------------------------------------
	BYTE	PATT
	 POIN2	songFightingOfTheSpirit_4_053
// 312   ----------------------------------------
	BYTE	PATT
	 POIN2	songFightingOfTheSpirit_4_056
// 313   ----------------------------------------
	BYTE	PATT
	 POIN2	songFightingOfTheSpirit_4_057
// 314   ----------------------------------------
	BYTE	PATT
	 POIN2	songFightingOfTheSpirit_4_052
// 315   ----------------------------------------
	BYTE	PATT
	 POIN2	songFightingOfTheSpirit_4_053
// 316   ----------------------------------------
	BYTE	PATT
	 POIN2	songFightingOfTheSpirit_4_060
// 317   ----------------------------------------
	BYTE	PATT
	 POIN2	songFightingOfTheSpirit_4_053
// 318   ----------------------------------------
	BYTE	PATT
	 POIN2	songFightingOfTheSpirit_4_052
// 319   ----------------------------------------
	BYTE	PATT
	 POIN2	songFightingOfTheSpirit_4_053
// 320   ----------------------------------------
	BYTE	PATT
	 POIN2	songFightingOfTheSpirit_4_056
// 321   ----------------------------------------
	BYTE	PATT
	 POIN2	songFightingOfTheSpirit_4_057
// 322   ----------------------------------------
	BYTE	PATT
	 POIN2	songFightingOfTheSpirit_4_052
// 323   ----------------------------------------
	BYTE	PATT
	 POIN2	songFightingOfTheSpirit_4_053
// 324   ----------------------------------------
	BYTE	W23
	BYTE	GoTo
	 POIN2	songFightingOfTheSpirit_4_B1
songFightingOfTheSpirit_4_B2:
	BYTE	FINE

//**************** Track 5 (Midi-Chn.5) ****************//

songFightingOfTheSpirit_5:
	BYTE	KEYSH   songFightingOfTheSpirit_key+0
songFightingOfTheSpirit_5_B1:
// 000   ----------------------------------------
	BYTE		VOICE   36
	BYTE		VOL     127*songFightingOfTheSpirit_mvl/mxv
	BYTE		PAN     c_v+0
	BYTE		TIE     An1   v096
	BYTE		TIE     En2 
	BYTE	W96
// 001   ----------------------------------------
	BYTE	W92
	BYTE	W03
	BYTE		EOT     An1 
	BYTE		        En2 
	BYTE	W01
// 002   ----------------------------------------
	BYTE		TIE     An1 
	BYTE		TIE     En2 
	BYTE	W96
// 003   ----------------------------------------
	BYTE	W92
	BYTE	W03
	BYTE		EOT     An1 
	BYTE		        En2 
	BYTE	W01
// 004   ----------------------------------------
songFightingOfTheSpirit_5_004:
	BYTE		N11     An2   v096
	BYTE	W12
	BYTE		        En2 
	BYTE	W12
	BYTE		        Gn2 
	BYTE	W12
	BYTE		N23     An2 
	BYTE	W24
	BYTE		N11     En2 
	BYTE	W12
	BYTE		        Gn2 
	BYTE	W12
	BYTE		N23     An2 
	BYTE	W12
	BYTE	PEND
// 005   ----------------------------------------
songFightingOfTheSpirit_5_005:
	BYTE	W12
	BYTE		N11     En2   v096
	BYTE	W12
	BYTE		        Gn2 
	BYTE	W12
	BYTE		N23     An2 
	BYTE	W24
	BYTE		N11     En2 
	BYTE	W12
	BYTE		        Gn2 
	BYTE	W12
	BYTE		        En2 
	BYTE	W12
	BYTE	PEND
// 006   ----------------------------------------
songFightingOfTheSpirit_5_006:
	BYTE		N11     Fn2   v096
	BYTE	W12
	BYTE		        Cn2 
	BYTE	W12
	BYTE		        En2 
	BYTE	W12
	BYTE		N23     Fn2 
	BYTE	W24
	BYTE		N11     Cn2 
	BYTE	W12
	BYTE		        En2 
	BYTE	W12
	BYTE		N23     Fn2 
	BYTE	W12
	BYTE	PEND
// 007   ----------------------------------------
songFightingOfTheSpirit_5_007:
	BYTE	W12
	BYTE		N11     Cn2   v096
	BYTE	W12
	BYTE		        En2 
	BYTE	W12
	BYTE		N23     Fn2 
	BYTE	W24
	BYTE		N11     Cn2 
	BYTE	W12
	BYTE		        En2 
	BYTE	W12
	BYTE		        Cn2 
	BYTE	W12
	BYTE	PEND
// 008   ----------------------------------------
songFightingOfTheSpirit_5_008:
	BYTE		N11     Gn2   v096
	BYTE	W12
	BYTE		        Dn2 
	BYTE	W12
	BYTE		        Fn2 
	BYTE	W12
	BYTE		N23     Gn2 
	BYTE	W24
	BYTE		N11     Dn2 
	BYTE	W12
	BYTE		        Fn2 
	BYTE	W12
	BYTE		N23     Gn2 
	BYTE	W12
	BYTE	PEND
// 009   ----------------------------------------
songFightingOfTheSpirit_5_009:
	BYTE	W12
	BYTE		N11     Dn2   v096
	BYTE	W12
	BYTE		        Fn2 
	BYTE	W12
	BYTE		N23     Gn2 
	BYTE	W24
	BYTE		N11     Dn2 
	BYTE	W12
	BYTE		        Fn2 
	BYTE	W12
	BYTE		        Dn2 
	BYTE	W12
	BYTE	PEND
// 010   ----------------------------------------
	BYTE	PATT
	 POIN2	songFightingOfTheSpirit_5_004
// 011   ----------------------------------------
	BYTE	PATT
	 POIN2	songFightingOfTheSpirit_5_005
// 012   ----------------------------------------
	BYTE	PATT
	 POIN2	songFightingOfTheSpirit_5_004
// 013   ----------------------------------------
	BYTE	PATT
	 POIN2	songFightingOfTheSpirit_5_005
// 014   ----------------------------------------
	BYTE	PATT
	 POIN2	songFightingOfTheSpirit_5_006
// 015   ----------------------------------------
	BYTE	PATT
	 POIN2	songFightingOfTheSpirit_5_007
// 016   ----------------------------------------
	BYTE	PATT
	 POIN2	songFightingOfTheSpirit_5_008
// 017   ----------------------------------------
	BYTE	PATT
	 POIN2	songFightingOfTheSpirit_5_009
// 018   ----------------------------------------
	BYTE	PATT
	 POIN2	songFightingOfTheSpirit_5_004
// 019   ----------------------------------------
	BYTE	PATT
	 POIN2	songFightingOfTheSpirit_5_005
// 020   ----------------------------------------
songFightingOfTheSpirit_5_020:
	BYTE		N11     Fn2   v096
	BYTE	W36
	BYTE		N23   
	BYTE	W24
	BYTE		N11     Cn2 
	BYTE	W12
	BYTE		        En2 
	BYTE	W12
	BYTE		        Cn2 
	BYTE	W12
	BYTE	PEND
// 021   ----------------------------------------
songFightingOfTheSpirit_5_021:
	BYTE		N11     Fn2   v096
	BYTE	W12
	BYTE		N11   
	BYTE	W24
	BYTE		N23   
	BYTE	W24
	BYTE		N11     Cn2 
	BYTE	W12
	BYTE		        En2 
	BYTE	W12
	BYTE		        Cn2 
	BYTE	W12
	BYTE	PEND
// 022   ----------------------------------------
songFightingOfTheSpirit_5_022:
	BYTE		N11     Gn2   v096
	BYTE	W36
	BYTE		N23   
	BYTE	W24
	BYTE		N11     Dn2 
	BYTE	W12
	BYTE		        Fn2 
	BYTE	W12
	BYTE		        Dn2 
	BYTE	W12
	BYTE	PEND
// 023   ----------------------------------------
songFightingOfTheSpirit_5_023:
	BYTE		N11     Gn2   v096
	BYTE	W12
	BYTE		N11   
	BYTE	W24
	BYTE		N23   
	BYTE	W24
	BYTE		N11     Bn2 
	BYTE	W12
	BYTE		        An2 
	BYTE	W12
	BYTE		        Gn2 
	BYTE	W12
	BYTE	PEND
// 024   ----------------------------------------
	BYTE	PATT
	 POIN2	songFightingOfTheSpirit_5_021
// 025   ----------------------------------------
	BYTE	PATT
	 POIN2	songFightingOfTheSpirit_5_021
// 026   ----------------------------------------
	BYTE	PATT
	 POIN2	songFightingOfTheSpirit_5_022
// 027   ----------------------------------------
songFightingOfTheSpirit_5_027:
	BYTE		N11     Gn2   v096
	BYTE	W12
	BYTE		        Dn2 
	BYTE	W12
	BYTE		        Bn2 
	BYTE	W12
	BYTE		        Dn2 
	BYTE	W12
	BYTE		        An2 
	BYTE	W12
	BYTE		        Dn2 
	BYTE	W12
	BYTE		        Gn2 
	BYTE	W12
	BYTE		        Dn2 
	BYTE	W12
	BYTE	PEND
// 028   ----------------------------------------
	BYTE	PATT
	 POIN2	songFightingOfTheSpirit_5_020
// 029   ----------------------------------------
	BYTE	PATT
	 POIN2	songFightingOfTheSpirit_5_021
// 030   ----------------------------------------
	BYTE	PATT
	 POIN2	songFightingOfTheSpirit_5_022
// 031   ----------------------------------------
	BYTE	PATT
	 POIN2	songFightingOfTheSpirit_5_023
// 032   ----------------------------------------
	BYTE	PATT
	 POIN2	songFightingOfTheSpirit_5_020
// 033   ----------------------------------------
	BYTE	PATT
	 POIN2	songFightingOfTheSpirit_5_021
// 034   ----------------------------------------
songFightingOfTheSpirit_5_034:
	BYTE		N11     En2   v096
	BYTE	W36
	BYTE		N23   
	BYTE	W24
	BYTE		N11     Bn1 
	BYTE	W12
	BYTE		        Dn2 
	BYTE	W12
	BYTE		        Bn1 
	BYTE	W12
	BYTE	PEND
// 035   ----------------------------------------
songFightingOfTheSpirit_5_035:
	BYTE		N11     An2   v096
	BYTE	W36
	BYTE		N32   
	BYTE	W36
	BYTE		N23     Bn2 
	BYTE	W24
	BYTE	PEND
// 036   ----------------------------------------
	BYTE	PATT
	 POIN2	songFightingOfTheSpirit_5_004
// 037   ----------------------------------------
	BYTE	PATT
	 POIN2	songFightingOfTheSpirit_5_005
// 038   ----------------------------------------
	BYTE	PATT
	 POIN2	songFightingOfTheSpirit_5_006
// 039   ----------------------------------------
	BYTE	PATT
	 POIN2	songFightingOfTheSpirit_5_007
// 040   ----------------------------------------
	BYTE	PATT
	 POIN2	songFightingOfTheSpirit_5_008
// 041   ----------------------------------------
	BYTE	PATT
	 POIN2	songFightingOfTheSpirit_5_009
// 042   ----------------------------------------
	BYTE	PATT
	 POIN2	songFightingOfTheSpirit_5_004
// 043   ----------------------------------------
	BYTE	PATT
	 POIN2	songFightingOfTheSpirit_5_005
// 044   ----------------------------------------
	BYTE	PATT
	 POIN2	songFightingOfTheSpirit_5_004
// 045   ----------------------------------------
	BYTE	PATT
	 POIN2	songFightingOfTheSpirit_5_005
// 046   ----------------------------------------
	BYTE	PATT
	 POIN2	songFightingOfTheSpirit_5_006
// 047   ----------------------------------------
	BYTE	PATT
	 POIN2	songFightingOfTheSpirit_5_007
// 048   ----------------------------------------
	BYTE	PATT
	 POIN2	songFightingOfTheSpirit_5_008
// 049   ----------------------------------------
	BYTE	PATT
	 POIN2	songFightingOfTheSpirit_5_009
// 050   ----------------------------------------
	BYTE	PATT
	 POIN2	songFightingOfTheSpirit_5_004
// 051   ----------------------------------------
songFightingOfTheSpirit_5_051:
	BYTE	W12
	BYTE		N11     Gn2   v096
	BYTE	W12
	BYTE		        An2 
	BYTE	W12
	BYTE		        Bn2 
	BYTE	W12
	BYTE		        Cn3 
	BYTE	W12
	BYTE		        An2 
	BYTE	W12
	BYTE		        Dn3 
	BYTE	W12
	BYTE		        An2 
	BYTE	W12
	BYTE	PEND
// 052   ----------------------------------------
songFightingOfTheSpirit_5_052:
	BYTE		N11     An2   v096
	BYTE	W12
	BYTE		N11   
	BYTE	W12
	BYTE		N11   
	BYTE	W12
	BYTE		N11   
	BYTE	W24
	BYTE		N11   
	BYTE	W24
	BYTE		N11   
	BYTE	W12
	BYTE	PEND
// 053   ----------------------------------------
songFightingOfTheSpirit_5_053:
	BYTE	W12
	BYTE		N11     An2   v096
	BYTE	W12
	BYTE		N11   
	BYTE	W24
	BYTE		N32   
	BYTE	W48
	BYTE	PEND
// 054   ----------------------------------------
songFightingOfTheSpirit_5_054:
	BYTE		N11     Fn2   v096
	BYTE	W12
	BYTE		N11   
	BYTE	W12
	BYTE		N11   
	BYTE	W12
	BYTE		N11   
	BYTE	W24
	BYTE		N11   
	BYTE	W24
	BYTE		N11   
	BYTE	W12
	BYTE	PEND
// 055   ----------------------------------------
songFightingOfTheSpirit_5_055:
	BYTE	W12
	BYTE		N11     Fn2   v096
	BYTE	W12
	BYTE		N11   
	BYTE	W24
	BYTE		N32   
	BYTE	W48
	BYTE	PEND
// 056   ----------------------------------------
songFightingOfTheSpirit_5_056:
	BYTE		N11     Gn2   v096
	BYTE	W12
	BYTE		N11   
	BYTE	W12
	BYTE		N11   
	BYTE	W12
	BYTE		N11   
	BYTE	W24
	BYTE		N11   
	BYTE	W24
	BYTE		N11   
	BYTE	W12
	BYTE	PEND
// 057   ----------------------------------------
songFightingOfTheSpirit_5_057:
	BYTE	W12
	BYTE		N11     Gn2   v096
	BYTE	W12
	BYTE		N11   
	BYTE	W24
	BYTE		N32   
	BYTE	W48
	BYTE	PEND
// 058   ----------------------------------------
	BYTE	PATT
	 POIN2	songFightingOfTheSpirit_5_052
// 059   ----------------------------------------
	BYTE	PATT
	 POIN2	songFightingOfTheSpirit_5_053
// 060   ----------------------------------------
	BYTE	PATT
	 POIN2	songFightingOfTheSpirit_5_052
// 061   ----------------------------------------
	BYTE	PATT
	 POIN2	songFightingOfTheSpirit_5_053
// 062   ----------------------------------------
	BYTE	PATT
	 POIN2	songFightingOfTheSpirit_5_054
// 063   ----------------------------------------
	BYTE	PATT
	 POIN2	songFightingOfTheSpirit_5_055
// 064   ----------------------------------------
	BYTE	PATT
	 POIN2	songFightingOfTheSpirit_5_056
// 065   ----------------------------------------
	BYTE	PATT
	 POIN2	songFightingOfTheSpirit_5_057
// 066   ----------------------------------------
	BYTE	PATT
	 POIN2	songFightingOfTheSpirit_5_052
// 067   ----------------------------------------
	BYTE	PATT
	 POIN2	songFightingOfTheSpirit_5_053
// 068   ----------------------------------------
	BYTE	PATT
	 POIN2	songFightingOfTheSpirit_5_004
// 069   ----------------------------------------
	BYTE	PATT
	 POIN2	songFightingOfTheSpirit_5_005
// 070   ----------------------------------------
	BYTE	PATT
	 POIN2	songFightingOfTheSpirit_5_006
// 071   ----------------------------------------
	BYTE	PATT
	 POIN2	songFightingOfTheSpirit_5_007
// 072   ----------------------------------------
	BYTE	PATT
	 POIN2	songFightingOfTheSpirit_5_008
// 073   ----------------------------------------
	BYTE	PATT
	 POIN2	songFightingOfTheSpirit_5_009
// 074   ----------------------------------------
	BYTE	PATT
	 POIN2	songFightingOfTheSpirit_5_004
// 075   ----------------------------------------
	BYTE	PATT
	 POIN2	songFightingOfTheSpirit_5_005
// 076   ----------------------------------------
	BYTE	PATT
	 POIN2	songFightingOfTheSpirit_5_004
// 077   ----------------------------------------
	BYTE	PATT
	 POIN2	songFightingOfTheSpirit_5_005
// 078   ----------------------------------------
	BYTE	PATT
	 POIN2	songFightingOfTheSpirit_5_006
// 079   ----------------------------------------
	BYTE	PATT
	 POIN2	songFightingOfTheSpirit_5_007
// 080   ----------------------------------------
	BYTE	PATT
	 POIN2	songFightingOfTheSpirit_5_008
// 081   ----------------------------------------
	BYTE	PATT
	 POIN2	songFightingOfTheSpirit_5_009
// 082   ----------------------------------------
	BYTE	PATT
	 POIN2	songFightingOfTheSpirit_5_004
// 083   ----------------------------------------
	BYTE	PATT
	 POIN2	songFightingOfTheSpirit_5_005
// 084   ----------------------------------------
	BYTE	PATT
	 POIN2	songFightingOfTheSpirit_5_020
// 085   ----------------------------------------
	BYTE	PATT
	 POIN2	songFightingOfTheSpirit_5_021
// 086   ----------------------------------------
	BYTE	PATT
	 POIN2	songFightingOfTheSpirit_5_022
// 087   ----------------------------------------
	BYTE	PATT
	 POIN2	songFightingOfTheSpirit_5_023
// 088   ----------------------------------------
	BYTE	PATT
	 POIN2	songFightingOfTheSpirit_5_021
// 089   ----------------------------------------
	BYTE	PATT
	 POIN2	songFightingOfTheSpirit_5_021
// 090   ----------------------------------------
	BYTE	PATT
	 POIN2	songFightingOfTheSpirit_5_022
// 091   ----------------------------------------
	BYTE	PATT
	 POIN2	songFightingOfTheSpirit_5_027
// 092   ----------------------------------------
	BYTE	PATT
	 POIN2	songFightingOfTheSpirit_5_020
// 093   ----------------------------------------
	BYTE	PATT
	 POIN2	songFightingOfTheSpirit_5_021
// 094   ----------------------------------------
	BYTE	PATT
	 POIN2	songFightingOfTheSpirit_5_022
// 095   ----------------------------------------
	BYTE	PATT
	 POIN2	songFightingOfTheSpirit_5_023
// 096   ----------------------------------------
	BYTE	PATT
	 POIN2	songFightingOfTheSpirit_5_020
// 097   ----------------------------------------
	BYTE	PATT
	 POIN2	songFightingOfTheSpirit_5_021
// 098   ----------------------------------------
	BYTE	PATT
	 POIN2	songFightingOfTheSpirit_5_034
// 099   ----------------------------------------
	BYTE	PATT
	 POIN2	songFightingOfTheSpirit_5_035
// 100   ----------------------------------------
	BYTE	PATT
	 POIN2	songFightingOfTheSpirit_5_004
// 101   ----------------------------------------
	BYTE	PATT
	 POIN2	songFightingOfTheSpirit_5_005
// 102   ----------------------------------------
	BYTE	PATT
	 POIN2	songFightingOfTheSpirit_5_006
// 103   ----------------------------------------
	BYTE	PATT
	 POIN2	songFightingOfTheSpirit_5_007
// 104   ----------------------------------------
	BYTE	PATT
	 POIN2	songFightingOfTheSpirit_5_008
// 105   ----------------------------------------
	BYTE	PATT
	 POIN2	songFightingOfTheSpirit_5_009
// 106   ----------------------------------------
	BYTE	PATT
	 POIN2	songFightingOfTheSpirit_5_004
// 107   ----------------------------------------
	BYTE	PATT
	 POIN2	songFightingOfTheSpirit_5_005
// 108   ----------------------------------------
	BYTE	PATT
	 POIN2	songFightingOfTheSpirit_5_004
// 109   ----------------------------------------
	BYTE	PATT
	 POIN2	songFightingOfTheSpirit_5_005
// 110   ----------------------------------------
	BYTE	PATT
	 POIN2	songFightingOfTheSpirit_5_006
// 111   ----------------------------------------
	BYTE	PATT
	 POIN2	songFightingOfTheSpirit_5_007
// 112   ----------------------------------------
	BYTE	PATT
	 POIN2	songFightingOfTheSpirit_5_008
// 113   ----------------------------------------
	BYTE	PATT
	 POIN2	songFightingOfTheSpirit_5_009
// 114   ----------------------------------------
	BYTE	PATT
	 POIN2	songFightingOfTheSpirit_5_004
// 115   ----------------------------------------
	BYTE	PATT
	 POIN2	songFightingOfTheSpirit_5_051
// 116   ----------------------------------------
	BYTE	PATT
	 POIN2	songFightingOfTheSpirit_5_052
// 117   ----------------------------------------
	BYTE	PATT
	 POIN2	songFightingOfTheSpirit_5_053
// 118   ----------------------------------------
	BYTE	PATT
	 POIN2	songFightingOfTheSpirit_5_054
// 119   ----------------------------------------
	BYTE	PATT
	 POIN2	songFightingOfTheSpirit_5_055
// 120   ----------------------------------------
	BYTE	PATT
	 POIN2	songFightingOfTheSpirit_5_056
// 121   ----------------------------------------
	BYTE	PATT
	 POIN2	songFightingOfTheSpirit_5_057
// 122   ----------------------------------------
	BYTE	PATT
	 POIN2	songFightingOfTheSpirit_5_052
// 123   ----------------------------------------
	BYTE	PATT
	 POIN2	songFightingOfTheSpirit_5_053
// 124   ----------------------------------------
	BYTE	PATT
	 POIN2	songFightingOfTheSpirit_5_052
// 125   ----------------------------------------
	BYTE	PATT
	 POIN2	songFightingOfTheSpirit_5_053
// 126   ----------------------------------------
	BYTE	PATT
	 POIN2	songFightingOfTheSpirit_5_054
// 127   ----------------------------------------
	BYTE	PATT
	 POIN2	songFightingOfTheSpirit_5_055
// 128   ----------------------------------------
	BYTE	PATT
	 POIN2	songFightingOfTheSpirit_5_056
// 129   ----------------------------------------
	BYTE	PATT
	 POIN2	songFightingOfTheSpirit_5_057
// 130   ----------------------------------------
	BYTE	PATT
	 POIN2	songFightingOfTheSpirit_5_052
// 131   ----------------------------------------
	BYTE	PATT
	 POIN2	songFightingOfTheSpirit_5_053
// 132   ----------------------------------------
	BYTE	PATT
	 POIN2	songFightingOfTheSpirit_5_004
// 133   ----------------------------------------
	BYTE	PATT
	 POIN2	songFightingOfTheSpirit_5_005
// 134   ----------------------------------------
	BYTE	PATT
	 POIN2	songFightingOfTheSpirit_5_006
// 135   ----------------------------------------
	BYTE	PATT
	 POIN2	songFightingOfTheSpirit_5_007
// 136   ----------------------------------------
	BYTE	PATT
	 POIN2	songFightingOfTheSpirit_5_008
// 137   ----------------------------------------
	BYTE	PATT
	 POIN2	songFightingOfTheSpirit_5_009
// 138   ----------------------------------------
	BYTE	PATT
	 POIN2	songFightingOfTheSpirit_5_004
// 139   ----------------------------------------
	BYTE	PATT
	 POIN2	songFightingOfTheSpirit_5_005
// 140   ----------------------------------------
	BYTE	PATT
	 POIN2	songFightingOfTheSpirit_5_004
// 141   ----------------------------------------
	BYTE	PATT
	 POIN2	songFightingOfTheSpirit_5_005
// 142   ----------------------------------------
	BYTE	PATT
	 POIN2	songFightingOfTheSpirit_5_006
// 143   ----------------------------------------
	BYTE	PATT
	 POIN2	songFightingOfTheSpirit_5_007
// 144   ----------------------------------------
	BYTE	PATT
	 POIN2	songFightingOfTheSpirit_5_008
// 145   ----------------------------------------
	BYTE	PATT
	 POIN2	songFightingOfTheSpirit_5_009
// 146   ----------------------------------------
	BYTE	PATT
	 POIN2	songFightingOfTheSpirit_5_004
// 147   ----------------------------------------
	BYTE	PATT
	 POIN2	songFightingOfTheSpirit_5_005
// 148   ----------------------------------------
	BYTE	PATT
	 POIN2	songFightingOfTheSpirit_5_020
// 149   ----------------------------------------
	BYTE	PATT
	 POIN2	songFightingOfTheSpirit_5_021
// 150   ----------------------------------------
	BYTE	PATT
	 POIN2	songFightingOfTheSpirit_5_022
// 151   ----------------------------------------
	BYTE	PATT
	 POIN2	songFightingOfTheSpirit_5_023
// 152   ----------------------------------------
	BYTE	PATT
	 POIN2	songFightingOfTheSpirit_5_021
// 153   ----------------------------------------
	BYTE	PATT
	 POIN2	songFightingOfTheSpirit_5_021
// 154   ----------------------------------------
	BYTE	PATT
	 POIN2	songFightingOfTheSpirit_5_022
// 155   ----------------------------------------
	BYTE	PATT
	 POIN2	songFightingOfTheSpirit_5_027
// 156   ----------------------------------------
	BYTE	PATT
	 POIN2	songFightingOfTheSpirit_5_020
// 157   ----------------------------------------
	BYTE	PATT
	 POIN2	songFightingOfTheSpirit_5_021
// 158   ----------------------------------------
	BYTE	PATT
	 POIN2	songFightingOfTheSpirit_5_022
// 159   ----------------------------------------
	BYTE	PATT
	 POIN2	songFightingOfTheSpirit_5_023
// 160   ----------------------------------------
	BYTE	PATT
	 POIN2	songFightingOfTheSpirit_5_020
// 161   ----------------------------------------
	BYTE	PATT
	 POIN2	songFightingOfTheSpirit_5_021
// 162   ----------------------------------------
	BYTE	PATT
	 POIN2	songFightingOfTheSpirit_5_034
// 163   ----------------------------------------
	BYTE	PATT
	 POIN2	songFightingOfTheSpirit_5_035
// 164   ----------------------------------------
	BYTE	PATT
	 POIN2	songFightingOfTheSpirit_5_004
// 165   ----------------------------------------
	BYTE	PATT
	 POIN2	songFightingOfTheSpirit_5_005
// 166   ----------------------------------------
	BYTE	PATT
	 POIN2	songFightingOfTheSpirit_5_006
// 167   ----------------------------------------
	BYTE	PATT
	 POIN2	songFightingOfTheSpirit_5_007
// 168   ----------------------------------------
	BYTE	PATT
	 POIN2	songFightingOfTheSpirit_5_008
// 169   ----------------------------------------
	BYTE	PATT
	 POIN2	songFightingOfTheSpirit_5_009
// 170   ----------------------------------------
	BYTE	PATT
	 POIN2	songFightingOfTheSpirit_5_004
// 171   ----------------------------------------
	BYTE	PATT
	 POIN2	songFightingOfTheSpirit_5_005
// 172   ----------------------------------------
	BYTE	PATT
	 POIN2	songFightingOfTheSpirit_5_004
// 173   ----------------------------------------
	BYTE	PATT
	 POIN2	songFightingOfTheSpirit_5_005
// 174   ----------------------------------------
	BYTE	PATT
	 POIN2	songFightingOfTheSpirit_5_006
// 175   ----------------------------------------
	BYTE	PATT
	 POIN2	songFightingOfTheSpirit_5_007
// 176   ----------------------------------------
	BYTE	PATT
	 POIN2	songFightingOfTheSpirit_5_008
// 177   ----------------------------------------
	BYTE	PATT
	 POIN2	songFightingOfTheSpirit_5_009
// 178   ----------------------------------------
	BYTE	PATT
	 POIN2	songFightingOfTheSpirit_5_004
// 179   ----------------------------------------
	BYTE	PATT
	 POIN2	songFightingOfTheSpirit_5_051
// 180   ----------------------------------------
	BYTE	PATT
	 POIN2	songFightingOfTheSpirit_5_052
// 181   ----------------------------------------
	BYTE	PATT
	 POIN2	songFightingOfTheSpirit_5_053
// 182   ----------------------------------------
	BYTE	PATT
	 POIN2	songFightingOfTheSpirit_5_054
// 183   ----------------------------------------
	BYTE	PATT
	 POIN2	songFightingOfTheSpirit_5_055
// 184   ----------------------------------------
	BYTE	PATT
	 POIN2	songFightingOfTheSpirit_5_056
// 185   ----------------------------------------
	BYTE	PATT
	 POIN2	songFightingOfTheSpirit_5_057
// 186   ----------------------------------------
	BYTE	PATT
	 POIN2	songFightingOfTheSpirit_5_052
// 187   ----------------------------------------
	BYTE	PATT
	 POIN2	songFightingOfTheSpirit_5_053
// 188   ----------------------------------------
	BYTE	PATT
	 POIN2	songFightingOfTheSpirit_5_052
// 189   ----------------------------------------
	BYTE	PATT
	 POIN2	songFightingOfTheSpirit_5_053
// 190   ----------------------------------------
	BYTE	PATT
	 POIN2	songFightingOfTheSpirit_5_054
// 191   ----------------------------------------
	BYTE	PATT
	 POIN2	songFightingOfTheSpirit_5_055
// 192   ----------------------------------------
	BYTE	PATT
	 POIN2	songFightingOfTheSpirit_5_056
// 193   ----------------------------------------
	BYTE	PATT
	 POIN2	songFightingOfTheSpirit_5_057
// 194   ----------------------------------------
	BYTE	PATT
	 POIN2	songFightingOfTheSpirit_5_052
// 195   ----------------------------------------
	BYTE	PATT
	 POIN2	songFightingOfTheSpirit_5_053
// 196   ----------------------------------------
	BYTE	PATT
	 POIN2	songFightingOfTheSpirit_5_004
// 197   ----------------------------------------
	BYTE	PATT
	 POIN2	songFightingOfTheSpirit_5_005
// 198   ----------------------------------------
	BYTE	PATT
	 POIN2	songFightingOfTheSpirit_5_006
// 199   ----------------------------------------
	BYTE	PATT
	 POIN2	songFightingOfTheSpirit_5_007
// 200   ----------------------------------------
	BYTE	PATT
	 POIN2	songFightingOfTheSpirit_5_008
// 201   ----------------------------------------
	BYTE	PATT
	 POIN2	songFightingOfTheSpirit_5_009
// 202   ----------------------------------------
	BYTE	PATT
	 POIN2	songFightingOfTheSpirit_5_004
// 203   ----------------------------------------
	BYTE	PATT
	 POIN2	songFightingOfTheSpirit_5_005
// 204   ----------------------------------------
	BYTE	PATT
	 POIN2	songFightingOfTheSpirit_5_004
// 205   ----------------------------------------
	BYTE	PATT
	 POIN2	songFightingOfTheSpirit_5_005
// 206   ----------------------------------------
	BYTE	PATT
	 POIN2	songFightingOfTheSpirit_5_006
// 207   ----------------------------------------
	BYTE	PATT
	 POIN2	songFightingOfTheSpirit_5_007
// 208   ----------------------------------------
	BYTE	PATT
	 POIN2	songFightingOfTheSpirit_5_008
// 209   ----------------------------------------
	BYTE	PATT
	 POIN2	songFightingOfTheSpirit_5_009
// 210   ----------------------------------------
	BYTE	PATT
	 POIN2	songFightingOfTheSpirit_5_004
// 211   ----------------------------------------
	BYTE	PATT
	 POIN2	songFightingOfTheSpirit_5_005
// 212   ----------------------------------------
	BYTE	PATT
	 POIN2	songFightingOfTheSpirit_5_020
// 213   ----------------------------------------
	BYTE	PATT
	 POIN2	songFightingOfTheSpirit_5_021
// 214   ----------------------------------------
	BYTE	PATT
	 POIN2	songFightingOfTheSpirit_5_022
// 215   ----------------------------------------
	BYTE	PATT
	 POIN2	songFightingOfTheSpirit_5_023
// 216   ----------------------------------------
	BYTE	PATT
	 POIN2	songFightingOfTheSpirit_5_021
// 217   ----------------------------------------
	BYTE	PATT
	 POIN2	songFightingOfTheSpirit_5_021
// 218   ----------------------------------------
	BYTE	PATT
	 POIN2	songFightingOfTheSpirit_5_022
// 219   ----------------------------------------
	BYTE	PATT
	 POIN2	songFightingOfTheSpirit_5_027
// 220   ----------------------------------------
	BYTE	PATT
	 POIN2	songFightingOfTheSpirit_5_020
// 221   ----------------------------------------
	BYTE	PATT
	 POIN2	songFightingOfTheSpirit_5_021
// 222   ----------------------------------------
	BYTE	PATT
	 POIN2	songFightingOfTheSpirit_5_022
// 223   ----------------------------------------
	BYTE	PATT
	 POIN2	songFightingOfTheSpirit_5_023
// 224   ----------------------------------------
	BYTE	PATT
	 POIN2	songFightingOfTheSpirit_5_020
// 225   ----------------------------------------
	BYTE	PATT
	 POIN2	songFightingOfTheSpirit_5_021
// 226   ----------------------------------------
	BYTE	PATT
	 POIN2	songFightingOfTheSpirit_5_034
// 227   ----------------------------------------
	BYTE	PATT
	 POIN2	songFightingOfTheSpirit_5_035
// 228   ----------------------------------------
	BYTE	PATT
	 POIN2	songFightingOfTheSpirit_5_004
// 229   ----------------------------------------
	BYTE	PATT
	 POIN2	songFightingOfTheSpirit_5_005
// 230   ----------------------------------------
	BYTE	PATT
	 POIN2	songFightingOfTheSpirit_5_006
// 231   ----------------------------------------
	BYTE	PATT
	 POIN2	songFightingOfTheSpirit_5_007
// 232   ----------------------------------------
	BYTE	PATT
	 POIN2	songFightingOfTheSpirit_5_008
// 233   ----------------------------------------
	BYTE	PATT
	 POIN2	songFightingOfTheSpirit_5_009
// 234   ----------------------------------------
	BYTE	PATT
	 POIN2	songFightingOfTheSpirit_5_004
// 235   ----------------------------------------
	BYTE	PATT
	 POIN2	songFightingOfTheSpirit_5_005
// 236   ----------------------------------------
	BYTE	PATT
	 POIN2	songFightingOfTheSpirit_5_004
// 237   ----------------------------------------
	BYTE	PATT
	 POIN2	songFightingOfTheSpirit_5_005
// 238   ----------------------------------------
	BYTE	PATT
	 POIN2	songFightingOfTheSpirit_5_006
// 239   ----------------------------------------
	BYTE	PATT
	 POIN2	songFightingOfTheSpirit_5_007
// 240   ----------------------------------------
	BYTE	PATT
	 POIN2	songFightingOfTheSpirit_5_008
// 241   ----------------------------------------
	BYTE	PATT
	 POIN2	songFightingOfTheSpirit_5_009
// 242   ----------------------------------------
	BYTE	PATT
	 POIN2	songFightingOfTheSpirit_5_004
// 243   ----------------------------------------
	BYTE	PATT
	 POIN2	songFightingOfTheSpirit_5_051
// 244   ----------------------------------------
	BYTE	PATT
	 POIN2	songFightingOfTheSpirit_5_052
// 245   ----------------------------------------
	BYTE	PATT
	 POIN2	songFightingOfTheSpirit_5_053
// 246   ----------------------------------------
	BYTE	PATT
	 POIN2	songFightingOfTheSpirit_5_054
// 247   ----------------------------------------
	BYTE	PATT
	 POIN2	songFightingOfTheSpirit_5_055
// 248   ----------------------------------------
	BYTE	PATT
	 POIN2	songFightingOfTheSpirit_5_056
// 249   ----------------------------------------
	BYTE	PATT
	 POIN2	songFightingOfTheSpirit_5_057
// 250   ----------------------------------------
	BYTE	PATT
	 POIN2	songFightingOfTheSpirit_5_052
// 251   ----------------------------------------
	BYTE	PATT
	 POIN2	songFightingOfTheSpirit_5_053
// 252   ----------------------------------------
	BYTE	PATT
	 POIN2	songFightingOfTheSpirit_5_052
// 253   ----------------------------------------
	BYTE	PATT
	 POIN2	songFightingOfTheSpirit_5_053
// 254   ----------------------------------------
	BYTE	PATT
	 POIN2	songFightingOfTheSpirit_5_054
// 255   ----------------------------------------
	BYTE	PATT
	 POIN2	songFightingOfTheSpirit_5_055
// 256   ----------------------------------------
	BYTE	PATT
	 POIN2	songFightingOfTheSpirit_5_056
// 257   ----------------------------------------
	BYTE	PATT
	 POIN2	songFightingOfTheSpirit_5_057
// 258   ----------------------------------------
	BYTE	PATT
	 POIN2	songFightingOfTheSpirit_5_052
// 259   ----------------------------------------
	BYTE	PATT
	 POIN2	songFightingOfTheSpirit_5_053
// 260   ----------------------------------------
	BYTE	PATT
	 POIN2	songFightingOfTheSpirit_5_004
// 261   ----------------------------------------
	BYTE	PATT
	 POIN2	songFightingOfTheSpirit_5_005
// 262   ----------------------------------------
	BYTE	PATT
	 POIN2	songFightingOfTheSpirit_5_006
// 263   ----------------------------------------
	BYTE	PATT
	 POIN2	songFightingOfTheSpirit_5_007
// 264   ----------------------------------------
	BYTE	PATT
	 POIN2	songFightingOfTheSpirit_5_008
// 265   ----------------------------------------
	BYTE	PATT
	 POIN2	songFightingOfTheSpirit_5_009
// 266   ----------------------------------------
	BYTE	PATT
	 POIN2	songFightingOfTheSpirit_5_004
// 267   ----------------------------------------
	BYTE	PATT
	 POIN2	songFightingOfTheSpirit_5_005
// 268   ----------------------------------------
	BYTE	PATT
	 POIN2	songFightingOfTheSpirit_5_004
// 269   ----------------------------------------
	BYTE	PATT
	 POIN2	songFightingOfTheSpirit_5_005
// 270   ----------------------------------------
	BYTE	PATT
	 POIN2	songFightingOfTheSpirit_5_006
// 271   ----------------------------------------
	BYTE	PATT
	 POIN2	songFightingOfTheSpirit_5_007
// 272   ----------------------------------------
	BYTE	PATT
	 POIN2	songFightingOfTheSpirit_5_008
// 273   ----------------------------------------
	BYTE	PATT
	 POIN2	songFightingOfTheSpirit_5_009
// 274   ----------------------------------------
	BYTE	PATT
	 POIN2	songFightingOfTheSpirit_5_004
// 275   ----------------------------------------
	BYTE	PATT
	 POIN2	songFightingOfTheSpirit_5_005
// 276   ----------------------------------------
	BYTE	PATT
	 POIN2	songFightingOfTheSpirit_5_020
// 277   ----------------------------------------
	BYTE	PATT
	 POIN2	songFightingOfTheSpirit_5_021
// 278   ----------------------------------------
	BYTE	PATT
	 POIN2	songFightingOfTheSpirit_5_022
// 279   ----------------------------------------
	BYTE	PATT
	 POIN2	songFightingOfTheSpirit_5_023
// 280   ----------------------------------------
	BYTE	PATT
	 POIN2	songFightingOfTheSpirit_5_021
// 281   ----------------------------------------
	BYTE	PATT
	 POIN2	songFightingOfTheSpirit_5_021
// 282   ----------------------------------------
	BYTE	PATT
	 POIN2	songFightingOfTheSpirit_5_022
// 283   ----------------------------------------
	BYTE	PATT
	 POIN2	songFightingOfTheSpirit_5_027
// 284   ----------------------------------------
	BYTE	PATT
	 POIN2	songFightingOfTheSpirit_5_020
// 285   ----------------------------------------
	BYTE	PATT
	 POIN2	songFightingOfTheSpirit_5_021
// 286   ----------------------------------------
	BYTE	PATT
	 POIN2	songFightingOfTheSpirit_5_022
// 287   ----------------------------------------
	BYTE	PATT
	 POIN2	songFightingOfTheSpirit_5_023
// 288   ----------------------------------------
	BYTE	PATT
	 POIN2	songFightingOfTheSpirit_5_020
// 289   ----------------------------------------
	BYTE	PATT
	 POIN2	songFightingOfTheSpirit_5_021
// 290   ----------------------------------------
	BYTE	PATT
	 POIN2	songFightingOfTheSpirit_5_034
// 291   ----------------------------------------
	BYTE	PATT
	 POIN2	songFightingOfTheSpirit_5_035
// 292   ----------------------------------------
	BYTE	PATT
	 POIN2	songFightingOfTheSpirit_5_004
// 293   ----------------------------------------
	BYTE	PATT
	 POIN2	songFightingOfTheSpirit_5_005
// 294   ----------------------------------------
	BYTE	PATT
	 POIN2	songFightingOfTheSpirit_5_006
// 295   ----------------------------------------
	BYTE	PATT
	 POIN2	songFightingOfTheSpirit_5_007
// 296   ----------------------------------------
	BYTE	PATT
	 POIN2	songFightingOfTheSpirit_5_008
// 297   ----------------------------------------
	BYTE	PATT
	 POIN2	songFightingOfTheSpirit_5_009
// 298   ----------------------------------------
	BYTE	PATT
	 POIN2	songFightingOfTheSpirit_5_004
// 299   ----------------------------------------
	BYTE	PATT
	 POIN2	songFightingOfTheSpirit_5_005
// 300   ----------------------------------------
	BYTE	PATT
	 POIN2	songFightingOfTheSpirit_5_004
// 301   ----------------------------------------
	BYTE	PATT
	 POIN2	songFightingOfTheSpirit_5_005
// 302   ----------------------------------------
	BYTE	PATT
	 POIN2	songFightingOfTheSpirit_5_006
// 303   ----------------------------------------
	BYTE	PATT
	 POIN2	songFightingOfTheSpirit_5_007
// 304   ----------------------------------------
	BYTE	PATT
	 POIN2	songFightingOfTheSpirit_5_008
// 305   ----------------------------------------
	BYTE	PATT
	 POIN2	songFightingOfTheSpirit_5_009
// 306   ----------------------------------------
	BYTE	PATT
	 POIN2	songFightingOfTheSpirit_5_004
// 307   ----------------------------------------
	BYTE	PATT
	 POIN2	songFightingOfTheSpirit_5_051
// 308   ----------------------------------------
	BYTE	PATT
	 POIN2	songFightingOfTheSpirit_5_052
// 309   ----------------------------------------
	BYTE	PATT
	 POIN2	songFightingOfTheSpirit_5_053
// 310   ----------------------------------------
	BYTE	PATT
	 POIN2	songFightingOfTheSpirit_5_054
// 311   ----------------------------------------
	BYTE	PATT
	 POIN2	songFightingOfTheSpirit_5_055
// 312   ----------------------------------------
	BYTE	PATT
	 POIN2	songFightingOfTheSpirit_5_056
// 313   ----------------------------------------
	BYTE	PATT
	 POIN2	songFightingOfTheSpirit_5_057
// 314   ----------------------------------------
	BYTE	PATT
	 POIN2	songFightingOfTheSpirit_5_052
// 315   ----------------------------------------
	BYTE	PATT
	 POIN2	songFightingOfTheSpirit_5_053
// 316   ----------------------------------------
	BYTE	PATT
	 POIN2	songFightingOfTheSpirit_5_052
// 317   ----------------------------------------
	BYTE	PATT
	 POIN2	songFightingOfTheSpirit_5_053
// 318   ----------------------------------------
	BYTE	PATT
	 POIN2	songFightingOfTheSpirit_5_054
// 319   ----------------------------------------
	BYTE	PATT
	 POIN2	songFightingOfTheSpirit_5_055
// 320   ----------------------------------------
	BYTE	PATT
	 POIN2	songFightingOfTheSpirit_5_056
// 321   ----------------------------------------
	BYTE	PATT
	 POIN2	songFightingOfTheSpirit_5_057
// 322   ----------------------------------------
	BYTE	PATT
	 POIN2	songFightingOfTheSpirit_5_052
// 323   ----------------------------------------
	BYTE	PATT
	 POIN2	songFightingOfTheSpirit_5_053
// 324   ----------------------------------------
	BYTE	W23
	BYTE	GoTo
	 POIN2	songFightingOfTheSpirit_5_B1
songFightingOfTheSpirit_5_B2:
	BYTE	FINE

//**************** Track 6 (Midi-Chn.10) ****************//

songFightingOfTheSpirit_6:
	BYTE	KEYSH   songFightingOfTheSpirit_key+0
songFightingOfTheSpirit_6_B1:
// 000   ----------------------------------------
	BYTE		VOICE   124
	BYTE		VOL     119*songFightingOfTheSpirit_mvl/mxv
	BYTE		PAN     c_v+0
	BYTE		N23     Dn1   v096
	BYTE	W48
	BYTE		        Cn1 
	BYTE	W48
// 001   ----------------------------------------
	BYTE		N23   
	BYTE	W48
	BYTE		N23   
	BYTE	W48
// 002   ----------------------------------------
	BYTE		N11     Dn1   v080
	BYTE		N11     Cs2   v072
	BYTE	W12
	BYTE		        Cn1   v084
	BYTE	W12
	BYTE		N11   
	BYTE	W12
	BYTE		        Dn1 
	BYTE	W12
	BYTE		        Cn1 
	BYTE	W12
	BYTE		        Cn1   v088
	BYTE	W12
	BYTE		        Dn1 
	BYTE	W12
	BYTE		        Cn1 
	BYTE	W12
// 003   ----------------------------------------
	BYTE		        Dn1 
	BYTE	W12
	BYTE		        Dn1   v092
	BYTE	W12
	BYTE		N11   
	BYTE	W12
	BYTE		N11   
	BYTE	W12
	BYTE		        Dn1   v112
	BYTE	W12
	BYTE		N11   
	BYTE	W12
	BYTE		N11   
	BYTE	W12
	BYTE		        Dn1   v116
	BYTE	W12
// 004   ----------------------------------------
songFightingOfTheSpirit_6_004:
	BYTE		N11     Cn1   v096
	BYTE		N11     Cs2   v088
	BYTE	W12
	BYTE		        Fs1   v096
	BYTE	W12
	BYTE		        Dn1 
	BYTE		N11     Fs1 
	BYTE	W12
	BYTE		N11   
	BYTE	W12
	BYTE		        Cn1 
	BYTE		N11     Fs1 
	BYTE	W12
	BYTE		        Cn1 
	BYTE		N11     Fs1 
	BYTE	W12
	BYTE		        Dn1 
	BYTE		N11     Fs1 
	BYTE	W12
	BYTE		        Cn1 
	BYTE		N11     Fs1 
	BYTE	W12
	BYTE	PEND
// 005   ----------------------------------------
songFightingOfTheSpirit_6_005:
	BYTE		N11     Fs1   v096
	BYTE	W12
	BYTE		        Cn1 
	BYTE		N11     Fs1 
	BYTE	W12
	BYTE		        Dn1 
	BYTE		N11     Fs1 
	BYTE	W12
	BYTE		N11   
	BYTE	W12
	BYTE		        Cn1 
	BYTE		N11     Fs1 
	BYTE	W12
	BYTE		        Cn1 
	BYTE		N11     Fs1 
	BYTE	W12
	BYTE		        Dn1 
	BYTE		N11     Fs1 
	BYTE	W12
	BYTE		N11   
	BYTE	W12
	BYTE	PEND
// 006   ----------------------------------------
songFightingOfTheSpirit_6_006:
	BYTE		N11     Cn1   v096
	BYTE		N11     Fs1 
	BYTE	W12
	BYTE		N11   
	BYTE	W12
	BYTE		        Dn1 
	BYTE		N11     Fs1 
	BYTE	W12
	BYTE		N11   
	BYTE	W12
	BYTE		        Cn1 
	BYTE		N11     Fs1 
	BYTE	W12
	BYTE		        Cn1 
	BYTE		N11     Fs1 
	BYTE	W12
	BYTE		        Dn1 
	BYTE		N11     Fs1 
	BYTE	W12
	BYTE		        Cn1 
	BYTE		N11     Fs1 
	BYTE	W12
	BYTE	PEND
// 007   ----------------------------------------
	BYTE	PATT
	 POIN2	songFightingOfTheSpirit_6_005
// 008   ----------------------------------------
	BYTE	PATT
	 POIN2	songFightingOfTheSpirit_6_006
// 009   ----------------------------------------
	BYTE	PATT
	 POIN2	songFightingOfTheSpirit_6_005
// 010   ----------------------------------------
	BYTE	PATT
	 POIN2	songFightingOfTheSpirit_6_006
// 011   ----------------------------------------
songFightingOfTheSpirit_6_011:
	BYTE		N11     Fs1   v096
	BYTE	W12
	BYTE		        Cn1 
	BYTE		N11     Fs1 
	BYTE	W12
	BYTE		        Dn1 
	BYTE		N11     Fs1 
	BYTE	W12
	BYTE		N11   
	BYTE	W12
	BYTE		        Cn1 
	BYTE		N11     Fs1 
	BYTE	W12
	BYTE		        Dn1   v116
	BYTE	W12
	BYTE		N11   
	BYTE	W12
	BYTE		N11   
	BYTE	W12
	BYTE	PEND
// 012   ----------------------------------------
	BYTE	PATT
	 POIN2	songFightingOfTheSpirit_6_004
// 013   ----------------------------------------
	BYTE	PATT
	 POIN2	songFightingOfTheSpirit_6_005
// 014   ----------------------------------------
	BYTE	PATT
	 POIN2	songFightingOfTheSpirit_6_006
// 015   ----------------------------------------
	BYTE	PATT
	 POIN2	songFightingOfTheSpirit_6_005
// 016   ----------------------------------------
	BYTE	PATT
	 POIN2	songFightingOfTheSpirit_6_006
// 017   ----------------------------------------
	BYTE	PATT
	 POIN2	songFightingOfTheSpirit_6_005
// 018   ----------------------------------------
	BYTE	PATT
	 POIN2	songFightingOfTheSpirit_6_006
// 019   ----------------------------------------
songFightingOfTheSpirit_6_019:
	BYTE		N11     Fs1   v096
	BYTE	W12
	BYTE		        Cn1 
	BYTE		N11     Fs1 
	BYTE	W12
	BYTE		        Dn1 
	BYTE		N11     Fs1 
	BYTE	W12
	BYTE		        Cn1 
	BYTE		N11     Fs1 
	BYTE	W12
	BYTE		        Dn1 
	BYTE		N11     Fs1 
	BYTE	W12
	BYTE		N11   
	BYTE	W12
	BYTE		        Dn1 
	BYTE	W12
	BYTE		N11   
	BYTE	W12
	BYTE	PEND
// 020   ----------------------------------------
songFightingOfTheSpirit_6_020:
	BYTE		N23     Cn1   v096
	BYTE		N23     Cs2   v088
	BYTE	W24
	BYTE		N11     Dn1   v096
	BYTE	W12
	BYTE		        Cn1 
	BYTE	W12
	BYTE		N23     Fs1 
	BYTE	W24
	BYTE		        Dn1 
	BYTE	W24
	BYTE	PEND
// 021   ----------------------------------------
songFightingOfTheSpirit_6_021:
	BYTE		N23     Cn1   v096
	BYTE	W24
	BYTE		N11     Dn1 
	BYTE	W12
	BYTE		        Cn1 
	BYTE	W12
	BYTE		N23     Fs1 
	BYTE	W24
	BYTE		        Dn1 
	BYTE	W24
	BYTE	PEND
// 022   ----------------------------------------
	BYTE	PATT
	 POIN2	songFightingOfTheSpirit_6_021
// 023   ----------------------------------------
	BYTE	PATT
	 POIN2	songFightingOfTheSpirit_6_021
// 024   ----------------------------------------
	BYTE	PATT
	 POIN2	songFightingOfTheSpirit_6_021
// 025   ----------------------------------------
	BYTE	PATT
	 POIN2	songFightingOfTheSpirit_6_021
// 026   ----------------------------------------
	BYTE	PATT
	 POIN2	songFightingOfTheSpirit_6_021
// 027   ----------------------------------------
songFightingOfTheSpirit_6_027:
	BYTE		N23     Cn1   v096
	BYTE	W24
	BYTE		N11     Dn1 
	BYTE	W12
	BYTE		        Cn1 
	BYTE	W12
	BYTE		        Fs1 
	BYTE	W12
	BYTE		        Dn1 
	BYTE	W24
	BYTE		N11   
	BYTE	W12
	BYTE	PEND
// 028   ----------------------------------------
songFightingOfTheSpirit_6_028:
	BYTE		N23     Cn1   v096
	BYTE		N23     Cs2   v088
	BYTE	W24
	BYTE		        Dn1   v096
	BYTE	W24
	BYTE		N11     Cn1 
	BYTE		N11     Fs1 
	BYTE	W12
	BYTE		        Cn1 
	BYTE	W12
	BYTE		N23     Dn1 
	BYTE	W24
	BYTE	PEND
// 029   ----------------------------------------
songFightingOfTheSpirit_6_029:
	BYTE		N23     Cn1   v096
	BYTE	W24
	BYTE		        Dn1 
	BYTE	W24
	BYTE		N11     Cn1 
	BYTE		N11     Fs1 
	BYTE	W12
	BYTE		        Cn1 
	BYTE	W12
	BYTE		N23     Dn1 
	BYTE	W24
	BYTE	PEND
// 030   ----------------------------------------
	BYTE	PATT
	 POIN2	songFightingOfTheSpirit_6_029
// 031   ----------------------------------------
	BYTE	PATT
	 POIN2	songFightingOfTheSpirit_6_029
// 032   ----------------------------------------
	BYTE	PATT
	 POIN2	songFightingOfTheSpirit_6_029
// 033   ----------------------------------------
	BYTE	PATT
	 POIN2	songFightingOfTheSpirit_6_029
// 034   ----------------------------------------
	BYTE	PATT
	 POIN2	songFightingOfTheSpirit_6_029
// 035   ----------------------------------------
songFightingOfTheSpirit_6_035:
	BYTE		N11     Dn1   v096
	BYTE		N11     Fs1 
	BYTE	W12
	BYTE		        Cn1 
	BYTE		N11     Fs1 
	BYTE	W12
	BYTE		        Cn1 
	BYTE		N11     Fs1 
	BYTE	W12
	BYTE		        Dn1 
	BYTE		N11     Fs1 
	BYTE	W12
	BYTE		        Cn1 
	BYTE		N11     Fs1 
	BYTE	W12
	BYTE		        Cn1 
	BYTE		N11     Fs1 
	BYTE	W12
	BYTE		        Dn1 
	BYTE		N11     Fs1 
	BYTE	W12
	BYTE		        Dn1 
	BYTE		N11     Fs1 
	BYTE	W12
	BYTE	PEND
// 036   ----------------------------------------
	BYTE	PATT
	 POIN2	songFightingOfTheSpirit_6_004
// 037   ----------------------------------------
	BYTE	PATT
	 POIN2	songFightingOfTheSpirit_6_005
// 038   ----------------------------------------
	BYTE	PATT
	 POIN2	songFightingOfTheSpirit_6_006
// 039   ----------------------------------------
	BYTE	PATT
	 POIN2	songFightingOfTheSpirit_6_005
// 040   ----------------------------------------
	BYTE	PATT
	 POIN2	songFightingOfTheSpirit_6_006
// 041   ----------------------------------------
	BYTE	PATT
	 POIN2	songFightingOfTheSpirit_6_005
// 042   ----------------------------------------
	BYTE	PATT
	 POIN2	songFightingOfTheSpirit_6_006
// 043   ----------------------------------------
	BYTE	PATT
	 POIN2	songFightingOfTheSpirit_6_011
// 044   ----------------------------------------
	BYTE	PATT
	 POIN2	songFightingOfTheSpirit_6_006
// 045   ----------------------------------------
	BYTE	PATT
	 POIN2	songFightingOfTheSpirit_6_005
// 046   ----------------------------------------
	BYTE	PATT
	 POIN2	songFightingOfTheSpirit_6_006
// 047   ----------------------------------------
	BYTE	PATT
	 POIN2	songFightingOfTheSpirit_6_005
// 048   ----------------------------------------
	BYTE	PATT
	 POIN2	songFightingOfTheSpirit_6_006
// 049   ----------------------------------------
	BYTE	PATT
	 POIN2	songFightingOfTheSpirit_6_005
// 050   ----------------------------------------
	BYTE	PATT
	 POIN2	songFightingOfTheSpirit_6_006
// 051   ----------------------------------------
	BYTE	PATT
	 POIN2	songFightingOfTheSpirit_6_011
// 052   ----------------------------------------
songFightingOfTheSpirit_6_052:
	BYTE		N23     Cn1   v096
	BYTE		N23     Cs2   v088
	BYTE	W24
	BYTE		        Dn1   v096
	BYTE	W24
	BYTE		N11     Cn1 
	BYTE	W12
	BYTE		N11   
	BYTE	W12
	BYTE		N23     Dn1 
	BYTE	W24
	BYTE	PEND
// 053   ----------------------------------------
songFightingOfTheSpirit_6_053:
	BYTE		N23     Cn1   v096
	BYTE	W24
	BYTE		        Dn1 
	BYTE	W24
	BYTE		N11     Cn1 
	BYTE	W12
	BYTE		N05   
	BYTE	W06
	BYTE		N05   
	BYTE	W06
	BYTE		N23     Dn1 
	BYTE		N23     Cs2   v088
	BYTE	W24
	BYTE	PEND
// 054   ----------------------------------------
	BYTE	PATT
	 POIN2	songFightingOfTheSpirit_6_052
// 055   ----------------------------------------
songFightingOfTheSpirit_6_055:
	BYTE		N23     Cn1   v096
	BYTE	W24
	BYTE		        Dn1 
	BYTE	W24
	BYTE		N11     Cn1 
	BYTE	W12
	BYTE		N05   
	BYTE	W06
	BYTE		N05   
	BYTE	W06
	BYTE		N23     Dn1 
	BYTE	W24
	BYTE	PEND
// 056   ----------------------------------------
	BYTE	PATT
	 POIN2	songFightingOfTheSpirit_6_052
// 057   ----------------------------------------
	BYTE	PATT
	 POIN2	songFightingOfTheSpirit_6_053
// 058   ----------------------------------------
	BYTE	PATT
	 POIN2	songFightingOfTheSpirit_6_052
// 059   ----------------------------------------
songFightingOfTheSpirit_6_059:
	BYTE		N23     Cn1   v096
	BYTE	W24
	BYTE		        Dn1 
	BYTE	W24
	BYTE		N11     Cn1 
	BYTE	W12
	BYTE		        Dn1   v116
	BYTE	W12
	BYTE		N11   
	BYTE	W12
	BYTE		N11   
	BYTE	W12
	BYTE	PEND
// 060   ----------------------------------------
songFightingOfTheSpirit_6_060:
	BYTE		N23     Cn1   v096
	BYTE		N23     Cs2   v088
	BYTE	W24
	BYTE		        Dn1   v096
	BYTE	W24
	BYTE		N11     Cn1 
	BYTE	W12
	BYTE		N11   
	BYTE	W12
	BYTE		        Dn1 
	BYTE	W12
	BYTE		N23     Cn1 
	BYTE	W12
	BYTE	PEND
// 061   ----------------------------------------
songFightingOfTheSpirit_6_061:
	BYTE	W12
	BYTE		N11     Cn1   v096
	BYTE	W12
	BYTE		N23     Dn1 
	BYTE	W24
	BYTE		N11     Cn1 
	BYTE	W12
	BYTE		N11   
	BYTE	W12
	BYTE		N23     Dn1 
	BYTE		N23     Cs2   v088
	BYTE	W24
	BYTE	PEND
// 062   ----------------------------------------
	BYTE	PATT
	 POIN2	songFightingOfTheSpirit_6_060
// 063   ----------------------------------------
songFightingOfTheSpirit_6_063:
	BYTE	W12
	BYTE		N11     Cn1   v096
	BYTE	W12
	BYTE		N23     Dn1 
	BYTE	W24
	BYTE		N11     Cn1 
	BYTE	W12
	BYTE		N11   
	BYTE	W12
	BYTE		N23     Dn1 
	BYTE	W24
	BYTE	PEND
// 064   ----------------------------------------
	BYTE	PATT
	 POIN2	songFightingOfTheSpirit_6_060
// 065   ----------------------------------------
	BYTE	PATT
	 POIN2	songFightingOfTheSpirit_6_061
// 066   ----------------------------------------
	BYTE	PATT
	 POIN2	songFightingOfTheSpirit_6_060
// 067   ----------------------------------------
songFightingOfTheSpirit_6_067:
	BYTE	W12
	BYTE		N11     Cn1   v096
	BYTE	W12
	BYTE		N23     Dn1 
	BYTE	W24
	BYTE		N05     Dn1   v116
	BYTE	W06
	BYTE		N05   
	BYTE	W06
	BYTE		N05   
	BYTE	W06
	BYTE		N05   
	BYTE	W06
	BYTE		N05   
	BYTE	W06
	BYTE		N05   
	BYTE	W06
	BYTE		N05   
	BYTE	W06
	BYTE		N05   
	BYTE	W06
	BYTE	PEND
// 068   ----------------------------------------
	BYTE	PATT
	 POIN2	songFightingOfTheSpirit_6_004
// 069   ----------------------------------------
	BYTE	PATT
	 POIN2	songFightingOfTheSpirit_6_005
// 070   ----------------------------------------
	BYTE	PATT
	 POIN2	songFightingOfTheSpirit_6_006
// 071   ----------------------------------------
	BYTE	PATT
	 POIN2	songFightingOfTheSpirit_6_005
// 072   ----------------------------------------
	BYTE	PATT
	 POIN2	songFightingOfTheSpirit_6_006
// 073   ----------------------------------------
	BYTE	PATT
	 POIN2	songFightingOfTheSpirit_6_005
// 074   ----------------------------------------
	BYTE	PATT
	 POIN2	songFightingOfTheSpirit_6_006
// 075   ----------------------------------------
	BYTE	PATT
	 POIN2	songFightingOfTheSpirit_6_011
// 076   ----------------------------------------
	BYTE	PATT
	 POIN2	songFightingOfTheSpirit_6_004
// 077   ----------------------------------------
	BYTE	PATT
	 POIN2	songFightingOfTheSpirit_6_005
// 078   ----------------------------------------
	BYTE	PATT
	 POIN2	songFightingOfTheSpirit_6_006
// 079   ----------------------------------------
	BYTE	PATT
	 POIN2	songFightingOfTheSpirit_6_005
// 080   ----------------------------------------
	BYTE	PATT
	 POIN2	songFightingOfTheSpirit_6_006
// 081   ----------------------------------------
	BYTE	PATT
	 POIN2	songFightingOfTheSpirit_6_005
// 082   ----------------------------------------
	BYTE	PATT
	 POIN2	songFightingOfTheSpirit_6_006
// 083   ----------------------------------------
	BYTE	PATT
	 POIN2	songFightingOfTheSpirit_6_019
// 084   ----------------------------------------
	BYTE	PATT
	 POIN2	songFightingOfTheSpirit_6_020
// 085   ----------------------------------------
	BYTE	PATT
	 POIN2	songFightingOfTheSpirit_6_021
// 086   ----------------------------------------
	BYTE	PATT
	 POIN2	songFightingOfTheSpirit_6_021
// 087   ----------------------------------------
	BYTE	PATT
	 POIN2	songFightingOfTheSpirit_6_021
// 088   ----------------------------------------
	BYTE	PATT
	 POIN2	songFightingOfTheSpirit_6_021
// 089   ----------------------------------------
	BYTE	PATT
	 POIN2	songFightingOfTheSpirit_6_021
// 090   ----------------------------------------
	BYTE	PATT
	 POIN2	songFightingOfTheSpirit_6_021
// 091   ----------------------------------------
	BYTE	PATT
	 POIN2	songFightingOfTheSpirit_6_027
// 092   ----------------------------------------
	BYTE	PATT
	 POIN2	songFightingOfTheSpirit_6_028
// 093   ----------------------------------------
	BYTE	PATT
	 POIN2	songFightingOfTheSpirit_6_029
// 094   ----------------------------------------
	BYTE	PATT
	 POIN2	songFightingOfTheSpirit_6_029
// 095   ----------------------------------------
	BYTE	PATT
	 POIN2	songFightingOfTheSpirit_6_029
// 096   ----------------------------------------
	BYTE	PATT
	 POIN2	songFightingOfTheSpirit_6_029
// 097   ----------------------------------------
	BYTE	PATT
	 POIN2	songFightingOfTheSpirit_6_029
// 098   ----------------------------------------
	BYTE	PATT
	 POIN2	songFightingOfTheSpirit_6_029
// 099   ----------------------------------------
	BYTE	PATT
	 POIN2	songFightingOfTheSpirit_6_035
// 100   ----------------------------------------
	BYTE	PATT
	 POIN2	songFightingOfTheSpirit_6_004
// 101   ----------------------------------------
	BYTE	PATT
	 POIN2	songFightingOfTheSpirit_6_005
// 102   ----------------------------------------
	BYTE	PATT
	 POIN2	songFightingOfTheSpirit_6_006
// 103   ----------------------------------------
	BYTE	PATT
	 POIN2	songFightingOfTheSpirit_6_005
// 104   ----------------------------------------
	BYTE	PATT
	 POIN2	songFightingOfTheSpirit_6_006
// 105   ----------------------------------------
	BYTE	PATT
	 POIN2	songFightingOfTheSpirit_6_005
// 106   ----------------------------------------
	BYTE	PATT
	 POIN2	songFightingOfTheSpirit_6_006
// 107   ----------------------------------------
	BYTE	PATT
	 POIN2	songFightingOfTheSpirit_6_011
// 108   ----------------------------------------
	BYTE	PATT
	 POIN2	songFightingOfTheSpirit_6_006
// 109   ----------------------------------------
	BYTE	PATT
	 POIN2	songFightingOfTheSpirit_6_005
// 110   ----------------------------------------
	BYTE	PATT
	 POIN2	songFightingOfTheSpirit_6_006
// 111   ----------------------------------------
	BYTE	PATT
	 POIN2	songFightingOfTheSpirit_6_005
// 112   ----------------------------------------
	BYTE	PATT
	 POIN2	songFightingOfTheSpirit_6_006
// 113   ----------------------------------------
	BYTE	PATT
	 POIN2	songFightingOfTheSpirit_6_005
// 114   ----------------------------------------
	BYTE	PATT
	 POIN2	songFightingOfTheSpirit_6_006
// 115   ----------------------------------------
	BYTE	PATT
	 POIN2	songFightingOfTheSpirit_6_011
// 116   ----------------------------------------
	BYTE	PATT
	 POIN2	songFightingOfTheSpirit_6_052
// 117   ----------------------------------------
	BYTE	PATT
	 POIN2	songFightingOfTheSpirit_6_053
// 118   ----------------------------------------
	BYTE	PATT
	 POIN2	songFightingOfTheSpirit_6_052
// 119   ----------------------------------------
	BYTE	PATT
	 POIN2	songFightingOfTheSpirit_6_055
// 120   ----------------------------------------
	BYTE	PATT
	 POIN2	songFightingOfTheSpirit_6_052
// 121   ----------------------------------------
	BYTE	PATT
	 POIN2	songFightingOfTheSpirit_6_053
// 122   ----------------------------------------
	BYTE	PATT
	 POIN2	songFightingOfTheSpirit_6_052
// 123   ----------------------------------------
	BYTE	PATT
	 POIN2	songFightingOfTheSpirit_6_059
// 124   ----------------------------------------
	BYTE	PATT
	 POIN2	songFightingOfTheSpirit_6_060
// 125   ----------------------------------------
	BYTE	PATT
	 POIN2	songFightingOfTheSpirit_6_061
// 126   ----------------------------------------
	BYTE	PATT
	 POIN2	songFightingOfTheSpirit_6_060
// 127   ----------------------------------------
	BYTE	PATT
	 POIN2	songFightingOfTheSpirit_6_063
// 128   ----------------------------------------
	BYTE	PATT
	 POIN2	songFightingOfTheSpirit_6_060
// 129   ----------------------------------------
	BYTE	PATT
	 POIN2	songFightingOfTheSpirit_6_061
// 130   ----------------------------------------
	BYTE	PATT
	 POIN2	songFightingOfTheSpirit_6_060
// 131   ----------------------------------------
	BYTE	PATT
	 POIN2	songFightingOfTheSpirit_6_067
// 132   ----------------------------------------
	BYTE	PATT
	 POIN2	songFightingOfTheSpirit_6_004
// 133   ----------------------------------------
	BYTE	PATT
	 POIN2	songFightingOfTheSpirit_6_005
// 134   ----------------------------------------
	BYTE	PATT
	 POIN2	songFightingOfTheSpirit_6_006
// 135   ----------------------------------------
	BYTE	PATT
	 POIN2	songFightingOfTheSpirit_6_005
// 136   ----------------------------------------
	BYTE	PATT
	 POIN2	songFightingOfTheSpirit_6_006
// 137   ----------------------------------------
	BYTE	PATT
	 POIN2	songFightingOfTheSpirit_6_005
// 138   ----------------------------------------
	BYTE	PATT
	 POIN2	songFightingOfTheSpirit_6_006
// 139   ----------------------------------------
	BYTE	PATT
	 POIN2	songFightingOfTheSpirit_6_011
// 140   ----------------------------------------
	BYTE	PATT
	 POIN2	songFightingOfTheSpirit_6_004
// 141   ----------------------------------------
	BYTE	PATT
	 POIN2	songFightingOfTheSpirit_6_005
// 142   ----------------------------------------
	BYTE	PATT
	 POIN2	songFightingOfTheSpirit_6_006
// 143   ----------------------------------------
	BYTE	PATT
	 POIN2	songFightingOfTheSpirit_6_005
// 144   ----------------------------------------
	BYTE	PATT
	 POIN2	songFightingOfTheSpirit_6_006
// 145   ----------------------------------------
	BYTE	PATT
	 POIN2	songFightingOfTheSpirit_6_005
// 146   ----------------------------------------
	BYTE	PATT
	 POIN2	songFightingOfTheSpirit_6_006
// 147   ----------------------------------------
	BYTE	PATT
	 POIN2	songFightingOfTheSpirit_6_019
// 148   ----------------------------------------
	BYTE	PATT
	 POIN2	songFightingOfTheSpirit_6_020
// 149   ----------------------------------------
	BYTE	PATT
	 POIN2	songFightingOfTheSpirit_6_021
// 150   ----------------------------------------
	BYTE	PATT
	 POIN2	songFightingOfTheSpirit_6_021
// 151   ----------------------------------------
	BYTE	PATT
	 POIN2	songFightingOfTheSpirit_6_021
// 152   ----------------------------------------
	BYTE	PATT
	 POIN2	songFightingOfTheSpirit_6_021
// 153   ----------------------------------------
	BYTE	PATT
	 POIN2	songFightingOfTheSpirit_6_021
// 154   ----------------------------------------
	BYTE	PATT
	 POIN2	songFightingOfTheSpirit_6_021
// 155   ----------------------------------------
	BYTE	PATT
	 POIN2	songFightingOfTheSpirit_6_027
// 156   ----------------------------------------
	BYTE	PATT
	 POIN2	songFightingOfTheSpirit_6_028
// 157   ----------------------------------------
	BYTE	PATT
	 POIN2	songFightingOfTheSpirit_6_029
// 158   ----------------------------------------
	BYTE	PATT
	 POIN2	songFightingOfTheSpirit_6_029
// 159   ----------------------------------------
	BYTE	PATT
	 POIN2	songFightingOfTheSpirit_6_029
// 160   ----------------------------------------
	BYTE	PATT
	 POIN2	songFightingOfTheSpirit_6_029
// 161   ----------------------------------------
	BYTE	PATT
	 POIN2	songFightingOfTheSpirit_6_029
// 162   ----------------------------------------
	BYTE	PATT
	 POIN2	songFightingOfTheSpirit_6_029
// 163   ----------------------------------------
	BYTE	PATT
	 POIN2	songFightingOfTheSpirit_6_035
// 164   ----------------------------------------
	BYTE	PATT
	 POIN2	songFightingOfTheSpirit_6_004
// 165   ----------------------------------------
	BYTE	PATT
	 POIN2	songFightingOfTheSpirit_6_005
// 166   ----------------------------------------
	BYTE	PATT
	 POIN2	songFightingOfTheSpirit_6_006
// 167   ----------------------------------------
	BYTE	PATT
	 POIN2	songFightingOfTheSpirit_6_005
// 168   ----------------------------------------
	BYTE	PATT
	 POIN2	songFightingOfTheSpirit_6_006
// 169   ----------------------------------------
	BYTE	PATT
	 POIN2	songFightingOfTheSpirit_6_005
// 170   ----------------------------------------
	BYTE	PATT
	 POIN2	songFightingOfTheSpirit_6_006
// 171   ----------------------------------------
	BYTE	PATT
	 POIN2	songFightingOfTheSpirit_6_011
// 172   ----------------------------------------
	BYTE	PATT
	 POIN2	songFightingOfTheSpirit_6_006
// 173   ----------------------------------------
	BYTE	PATT
	 POIN2	songFightingOfTheSpirit_6_005
// 174   ----------------------------------------
	BYTE	PATT
	 POIN2	songFightingOfTheSpirit_6_006
// 175   ----------------------------------------
	BYTE	PATT
	 POIN2	songFightingOfTheSpirit_6_005
// 176   ----------------------------------------
	BYTE	PATT
	 POIN2	songFightingOfTheSpirit_6_006
// 177   ----------------------------------------
	BYTE	PATT
	 POIN2	songFightingOfTheSpirit_6_005
// 178   ----------------------------------------
	BYTE	PATT
	 POIN2	songFightingOfTheSpirit_6_006
// 179   ----------------------------------------
	BYTE	PATT
	 POIN2	songFightingOfTheSpirit_6_011
// 180   ----------------------------------------
	BYTE	PATT
	 POIN2	songFightingOfTheSpirit_6_052
// 181   ----------------------------------------
	BYTE	PATT
	 POIN2	songFightingOfTheSpirit_6_053
// 182   ----------------------------------------
	BYTE	PATT
	 POIN2	songFightingOfTheSpirit_6_052
// 183   ----------------------------------------
	BYTE	PATT
	 POIN2	songFightingOfTheSpirit_6_055
// 184   ----------------------------------------
	BYTE	PATT
	 POIN2	songFightingOfTheSpirit_6_052
// 185   ----------------------------------------
	BYTE	PATT
	 POIN2	songFightingOfTheSpirit_6_053
// 186   ----------------------------------------
	BYTE	PATT
	 POIN2	songFightingOfTheSpirit_6_052
// 187   ----------------------------------------
	BYTE	PATT
	 POIN2	songFightingOfTheSpirit_6_059
// 188   ----------------------------------------
	BYTE	PATT
	 POIN2	songFightingOfTheSpirit_6_060
// 189   ----------------------------------------
	BYTE	PATT
	 POIN2	songFightingOfTheSpirit_6_061
// 190   ----------------------------------------
	BYTE	PATT
	 POIN2	songFightingOfTheSpirit_6_060
// 191   ----------------------------------------
	BYTE	PATT
	 POIN2	songFightingOfTheSpirit_6_063
// 192   ----------------------------------------
	BYTE	PATT
	 POIN2	songFightingOfTheSpirit_6_060
// 193   ----------------------------------------
	BYTE	PATT
	 POIN2	songFightingOfTheSpirit_6_061
// 194   ----------------------------------------
	BYTE	PATT
	 POIN2	songFightingOfTheSpirit_6_060
// 195   ----------------------------------------
	BYTE	PATT
	 POIN2	songFightingOfTheSpirit_6_067
// 196   ----------------------------------------
	BYTE	PATT
	 POIN2	songFightingOfTheSpirit_6_004
// 197   ----------------------------------------
	BYTE	PATT
	 POIN2	songFightingOfTheSpirit_6_005
// 198   ----------------------------------------
	BYTE	PATT
	 POIN2	songFightingOfTheSpirit_6_006
// 199   ----------------------------------------
	BYTE	PATT
	 POIN2	songFightingOfTheSpirit_6_005
// 200   ----------------------------------------
	BYTE	PATT
	 POIN2	songFightingOfTheSpirit_6_006
// 201   ----------------------------------------
	BYTE	PATT
	 POIN2	songFightingOfTheSpirit_6_005
// 202   ----------------------------------------
	BYTE	PATT
	 POIN2	songFightingOfTheSpirit_6_006
// 203   ----------------------------------------
	BYTE	PATT
	 POIN2	songFightingOfTheSpirit_6_011
// 204   ----------------------------------------
	BYTE	PATT
	 POIN2	songFightingOfTheSpirit_6_004
// 205   ----------------------------------------
	BYTE	PATT
	 POIN2	songFightingOfTheSpirit_6_005
// 206   ----------------------------------------
	BYTE	PATT
	 POIN2	songFightingOfTheSpirit_6_006
// 207   ----------------------------------------
	BYTE	PATT
	 POIN2	songFightingOfTheSpirit_6_005
// 208   ----------------------------------------
	BYTE	PATT
	 POIN2	songFightingOfTheSpirit_6_006
// 209   ----------------------------------------
	BYTE	PATT
	 POIN2	songFightingOfTheSpirit_6_005
// 210   ----------------------------------------
	BYTE	PATT
	 POIN2	songFightingOfTheSpirit_6_006
// 211   ----------------------------------------
	BYTE	PATT
	 POIN2	songFightingOfTheSpirit_6_019
// 212   ----------------------------------------
	BYTE	PATT
	 POIN2	songFightingOfTheSpirit_6_020
// 213   ----------------------------------------
	BYTE	PATT
	 POIN2	songFightingOfTheSpirit_6_021
// 214   ----------------------------------------
	BYTE	PATT
	 POIN2	songFightingOfTheSpirit_6_021
// 215   ----------------------------------------
	BYTE	PATT
	 POIN2	songFightingOfTheSpirit_6_021
// 216   ----------------------------------------
	BYTE	PATT
	 POIN2	songFightingOfTheSpirit_6_021
// 217   ----------------------------------------
	BYTE	PATT
	 POIN2	songFightingOfTheSpirit_6_021
// 218   ----------------------------------------
	BYTE	PATT
	 POIN2	songFightingOfTheSpirit_6_021
// 219   ----------------------------------------
	BYTE	PATT
	 POIN2	songFightingOfTheSpirit_6_027
// 220   ----------------------------------------
	BYTE	PATT
	 POIN2	songFightingOfTheSpirit_6_028
// 221   ----------------------------------------
	BYTE	PATT
	 POIN2	songFightingOfTheSpirit_6_029
// 222   ----------------------------------------
	BYTE	PATT
	 POIN2	songFightingOfTheSpirit_6_029
// 223   ----------------------------------------
	BYTE	PATT
	 POIN2	songFightingOfTheSpirit_6_029
// 224   ----------------------------------------
	BYTE	PATT
	 POIN2	songFightingOfTheSpirit_6_029
// 225   ----------------------------------------
	BYTE	PATT
	 POIN2	songFightingOfTheSpirit_6_029
// 226   ----------------------------------------
	BYTE	PATT
	 POIN2	songFightingOfTheSpirit_6_029
// 227   ----------------------------------------
	BYTE	PATT
	 POIN2	songFightingOfTheSpirit_6_035
// 228   ----------------------------------------
	BYTE	PATT
	 POIN2	songFightingOfTheSpirit_6_004
// 229   ----------------------------------------
	BYTE	PATT
	 POIN2	songFightingOfTheSpirit_6_005
// 230   ----------------------------------------
	BYTE	PATT
	 POIN2	songFightingOfTheSpirit_6_006
// 231   ----------------------------------------
	BYTE	PATT
	 POIN2	songFightingOfTheSpirit_6_005
// 232   ----------------------------------------
	BYTE	PATT
	 POIN2	songFightingOfTheSpirit_6_006
// 233   ----------------------------------------
	BYTE	PATT
	 POIN2	songFightingOfTheSpirit_6_005
// 234   ----------------------------------------
	BYTE	PATT
	 POIN2	songFightingOfTheSpirit_6_006
// 235   ----------------------------------------
	BYTE	PATT
	 POIN2	songFightingOfTheSpirit_6_011
// 236   ----------------------------------------
	BYTE	PATT
	 POIN2	songFightingOfTheSpirit_6_006
// 237   ----------------------------------------
	BYTE	PATT
	 POIN2	songFightingOfTheSpirit_6_005
// 238   ----------------------------------------
	BYTE	PATT
	 POIN2	songFightingOfTheSpirit_6_006
// 239   ----------------------------------------
	BYTE	PATT
	 POIN2	songFightingOfTheSpirit_6_005
// 240   ----------------------------------------
	BYTE	PATT
	 POIN2	songFightingOfTheSpirit_6_006
// 241   ----------------------------------------
	BYTE	PATT
	 POIN2	songFightingOfTheSpirit_6_005
// 242   ----------------------------------------
	BYTE	PATT
	 POIN2	songFightingOfTheSpirit_6_006
// 243   ----------------------------------------
	BYTE	PATT
	 POIN2	songFightingOfTheSpirit_6_011
// 244   ----------------------------------------
	BYTE	PATT
	 POIN2	songFightingOfTheSpirit_6_052
// 245   ----------------------------------------
	BYTE	PATT
	 POIN2	songFightingOfTheSpirit_6_053
// 246   ----------------------------------------
	BYTE	PATT
	 POIN2	songFightingOfTheSpirit_6_052
// 247   ----------------------------------------
	BYTE	PATT
	 POIN2	songFightingOfTheSpirit_6_055
// 248   ----------------------------------------
	BYTE	PATT
	 POIN2	songFightingOfTheSpirit_6_052
// 249   ----------------------------------------
	BYTE	PATT
	 POIN2	songFightingOfTheSpirit_6_053
// 250   ----------------------------------------
	BYTE	PATT
	 POIN2	songFightingOfTheSpirit_6_052
// 251   ----------------------------------------
	BYTE	PATT
	 POIN2	songFightingOfTheSpirit_6_059
// 252   ----------------------------------------
	BYTE	PATT
	 POIN2	songFightingOfTheSpirit_6_060
// 253   ----------------------------------------
	BYTE	PATT
	 POIN2	songFightingOfTheSpirit_6_061
// 254   ----------------------------------------
	BYTE	PATT
	 POIN2	songFightingOfTheSpirit_6_060
// 255   ----------------------------------------
	BYTE	PATT
	 POIN2	songFightingOfTheSpirit_6_063
// 256   ----------------------------------------
	BYTE	PATT
	 POIN2	songFightingOfTheSpirit_6_060
// 257   ----------------------------------------
	BYTE	PATT
	 POIN2	songFightingOfTheSpirit_6_061
// 258   ----------------------------------------
	BYTE	PATT
	 POIN2	songFightingOfTheSpirit_6_060
// 259   ----------------------------------------
	BYTE	PATT
	 POIN2	songFightingOfTheSpirit_6_067
// 260   ----------------------------------------
	BYTE	PATT
	 POIN2	songFightingOfTheSpirit_6_004
// 261   ----------------------------------------
	BYTE	PATT
	 POIN2	songFightingOfTheSpirit_6_005
// 262   ----------------------------------------
	BYTE	PATT
	 POIN2	songFightingOfTheSpirit_6_006
// 263   ----------------------------------------
	BYTE	PATT
	 POIN2	songFightingOfTheSpirit_6_005
// 264   ----------------------------------------
	BYTE	PATT
	 POIN2	songFightingOfTheSpirit_6_006
// 265   ----------------------------------------
	BYTE	PATT
	 POIN2	songFightingOfTheSpirit_6_005
// 266   ----------------------------------------
	BYTE	PATT
	 POIN2	songFightingOfTheSpirit_6_006
// 267   ----------------------------------------
	BYTE	PATT
	 POIN2	songFightingOfTheSpirit_6_011
// 268   ----------------------------------------
	BYTE	PATT
	 POIN2	songFightingOfTheSpirit_6_004
// 269   ----------------------------------------
	BYTE	PATT
	 POIN2	songFightingOfTheSpirit_6_005
// 270   ----------------------------------------
	BYTE	PATT
	 POIN2	songFightingOfTheSpirit_6_006
// 271   ----------------------------------------
	BYTE	PATT
	 POIN2	songFightingOfTheSpirit_6_005
// 272   ----------------------------------------
	BYTE	PATT
	 POIN2	songFightingOfTheSpirit_6_006
// 273   ----------------------------------------
	BYTE	PATT
	 POIN2	songFightingOfTheSpirit_6_005
// 274   ----------------------------------------
	BYTE	PATT
	 POIN2	songFightingOfTheSpirit_6_006
// 275   ----------------------------------------
	BYTE	PATT
	 POIN2	songFightingOfTheSpirit_6_019
// 276   ----------------------------------------
	BYTE	PATT
	 POIN2	songFightingOfTheSpirit_6_020
// 277   ----------------------------------------
	BYTE	PATT
	 POIN2	songFightingOfTheSpirit_6_021
// 278   ----------------------------------------
	BYTE	PATT
	 POIN2	songFightingOfTheSpirit_6_021
// 279   ----------------------------------------
	BYTE	PATT
	 POIN2	songFightingOfTheSpirit_6_021
// 280   ----------------------------------------
	BYTE	PATT
	 POIN2	songFightingOfTheSpirit_6_021
// 281   ----------------------------------------
	BYTE	PATT
	 POIN2	songFightingOfTheSpirit_6_021
// 282   ----------------------------------------
	BYTE	PATT
	 POIN2	songFightingOfTheSpirit_6_021
// 283   ----------------------------------------
	BYTE	PATT
	 POIN2	songFightingOfTheSpirit_6_027
// 284   ----------------------------------------
	BYTE	PATT
	 POIN2	songFightingOfTheSpirit_6_028
// 285   ----------------------------------------
	BYTE	PATT
	 POIN2	songFightingOfTheSpirit_6_029
// 286   ----------------------------------------
	BYTE	PATT
	 POIN2	songFightingOfTheSpirit_6_029
// 287   ----------------------------------------
	BYTE	PATT
	 POIN2	songFightingOfTheSpirit_6_029
// 288   ----------------------------------------
	BYTE	PATT
	 POIN2	songFightingOfTheSpirit_6_029
// 289   ----------------------------------------
	BYTE	PATT
	 POIN2	songFightingOfTheSpirit_6_029
// 290   ----------------------------------------
	BYTE	PATT
	 POIN2	songFightingOfTheSpirit_6_029
// 291   ----------------------------------------
	BYTE	PATT
	 POIN2	songFightingOfTheSpirit_6_035
// 292   ----------------------------------------
	BYTE	PATT
	 POIN2	songFightingOfTheSpirit_6_004
// 293   ----------------------------------------
	BYTE	PATT
	 POIN2	songFightingOfTheSpirit_6_005
// 294   ----------------------------------------
	BYTE	PATT
	 POIN2	songFightingOfTheSpirit_6_006
// 295   ----------------------------------------
	BYTE	PATT
	 POIN2	songFightingOfTheSpirit_6_005
// 296   ----------------------------------------
	BYTE	PATT
	 POIN2	songFightingOfTheSpirit_6_006
// 297   ----------------------------------------
	BYTE	PATT
	 POIN2	songFightingOfTheSpirit_6_005
// 298   ----------------------------------------
	BYTE	PATT
	 POIN2	songFightingOfTheSpirit_6_006
// 299   ----------------------------------------
	BYTE	PATT
	 POIN2	songFightingOfTheSpirit_6_011
// 300   ----------------------------------------
	BYTE	PATT
	 POIN2	songFightingOfTheSpirit_6_006
// 301   ----------------------------------------
	BYTE	PATT
	 POIN2	songFightingOfTheSpirit_6_005
// 302   ----------------------------------------
	BYTE	PATT
	 POIN2	songFightingOfTheSpirit_6_006
// 303   ----------------------------------------
	BYTE	PATT
	 POIN2	songFightingOfTheSpirit_6_005
// 304   ----------------------------------------
	BYTE	PATT
	 POIN2	songFightingOfTheSpirit_6_006
// 305   ----------------------------------------
	BYTE	PATT
	 POIN2	songFightingOfTheSpirit_6_005
// 306   ----------------------------------------
	BYTE	PATT
	 POIN2	songFightingOfTheSpirit_6_006
// 307   ----------------------------------------
	BYTE	PATT
	 POIN2	songFightingOfTheSpirit_6_011
// 308   ----------------------------------------
	BYTE	PATT
	 POIN2	songFightingOfTheSpirit_6_052
// 309   ----------------------------------------
	BYTE	PATT
	 POIN2	songFightingOfTheSpirit_6_053
// 310   ----------------------------------------
	BYTE	PATT
	 POIN2	songFightingOfTheSpirit_6_052
// 311   ----------------------------------------
	BYTE	PATT
	 POIN2	songFightingOfTheSpirit_6_055
// 312   ----------------------------------------
	BYTE	PATT
	 POIN2	songFightingOfTheSpirit_6_052
// 313   ----------------------------------------
	BYTE	PATT
	 POIN2	songFightingOfTheSpirit_6_053
// 314   ----------------------------------------
	BYTE	PATT
	 POIN2	songFightingOfTheSpirit_6_052
// 315   ----------------------------------------
	BYTE	PATT
	 POIN2	songFightingOfTheSpirit_6_059
// 316   ----------------------------------------
	BYTE	PATT
	 POIN2	songFightingOfTheSpirit_6_060
// 317   ----------------------------------------
	BYTE	PATT
	 POIN2	songFightingOfTheSpirit_6_061
// 318   ----------------------------------------
	BYTE	PATT
	 POIN2	songFightingOfTheSpirit_6_060
// 319   ----------------------------------------
	BYTE	PATT
	 POIN2	songFightingOfTheSpirit_6_063
// 320   ----------------------------------------
	BYTE	PATT
	 POIN2	songFightingOfTheSpirit_6_060
// 321   ----------------------------------------
	BYTE	PATT
	 POIN2	songFightingOfTheSpirit_6_061
// 322   ----------------------------------------
	BYTE	PATT
	 POIN2	songFightingOfTheSpirit_6_060
// 323   ----------------------------------------
	BYTE	PATT
	 POIN2	songFightingOfTheSpirit_6_067
// 324   ----------------------------------------
	BYTE	W23
	BYTE	GoTo
	 POIN2	songFightingOfTheSpirit_6_B1
songFightingOfTheSpirit_6_B2:
	BYTE	FINE

//******************************************************//
	ALIGN 4

songFightingOfTheSpirit:
	BYTE	6	// NumTrks
	BYTE	0	// NumBlks
	BYTE	songFightingOfTheSpirit_pri	// Priority
	BYTE	songFightingOfTheSpirit_rev	// Reverb.

	POIN2	songFightingOfTheSpirit_grp

	POIN2	songFightingOfTheSpirit_1
	POIN2	songFightingOfTheSpirit_2
	POIN2	songFightingOfTheSpirit_3
	POIN2	songFightingOfTheSpirit_4
	POIN2	songFightingOfTheSpirit_5
	POIN2	songFightingOfTheSpirit_6

	
