//Event file generated from Sappy .s format.
	#include "MPlayDef.event"

	#define	FodlanWinds_grp  voicegroup000
	#define	FodlanWinds_pri  0
	#define	FodlanWinds_rev  0
	#define	FodlanWinds_mvl  127
	#define	FodlanWinds_key  0
	#define	FodlanWinds_tbs  1
	#define	FodlanWinds_exg  0
	#define	FodlanWinds_cmp  1

	// .rodata
	//	FodlanWinds
	ALIGN 4


//**************** Track 1 (Midi-Chn.0) ****************//

FodlanWinds_001:
// 000   ----------------------------------------
 BYTE   KEYSH   FodlanWinds_key+0
Label_0_FodlanWinds0144D3FE:
 BYTE   TEMPO   172*FodlanWinds_tbs/2
 BYTE   VOICE   108
 BYTE   MODT 0
 BYTE   CnM2
 BYTE   LFOS 0
 BYTE   Gs1
 BYTE   PAN   c_v+0
 BYTE   VOL   66*FodlanWinds_mvl/mxv
 BYTE   W96
// 001   ----------------------------------------
 BYTE   W96
// 002   ----------------------------------------
 BYTE   W96
// 003   ----------------------------------------
 BYTE   W96
// 004   ----------------------------------------
 BYTE   W96
// 005   ----------------------------------------
 BYTE   W96
// 006   ----------------------------------------
 BYTE   W96
// 007   ----------------------------------------
 BYTE   W96
// 008   ----------------------------------------
Label_0_FodlanWinds0144D412:
 BYTE   N68  Dn4  v088
 BYTE   W72
 BYTE   N11  Ds4
 BYTE   W12
 BYTE   N56  Cn4
 BYTE   W12
 BYTE   PEND 
// 009   ----------------------------------------
 BYTE   W96
// 010   ----------------------------------------
Label_0_FodlanWinds0144D41E:
 BYTE   W24
 BYTE   N22  Gn3  v088
 BYTE   W24
 BYTE   Gn4
 BYTE   W24
 BYTE   N11  Fn4
 BYTE   W12
 BYTE   Ds4
 BYTE   W12
 BYTE   PEND 
// 011   ----------------------------------------
Label_0_FodlanWinds0144D42B:
 BYTE   N44  Dn4  v088
 BYTE   W48
 BYTE   As3
 BYTE   W48
 BYTE   PEND 
// 012   ----------------------------------------
 BYTE   N22  Dn4
 BYTE   W24
 BYTE   N11  Ds4
 BYTE   W12
 BYTE   N32  Cn4
 BYTE   W36
 BYTE   N11  Cn5
 BYTE   W12
 BYTE   Dn5
 BYTE   W12
// 013   ----------------------------------------
 BYTE   N44  Ds5
 BYTE   W60
 BYTE   N11  Dn5
 BYTE   W12
 BYTE   Cn5
 BYTE   W12
 BYTE   N56  As4
 BYTE   W12
// 014   ----------------------------------------
 BYTE   W60
 BYTE   N11
 BYTE   W12
 BYTE   Gs4
 BYTE   W12
 BYTE   Gn4
 BYTE   W12
// 015   ----------------------------------------
 BYTE   Fn4
 BYTE   W12
 BYTE   Gn4
 BYTE   W12
 BYTE   N11
 BYTE   W24
 BYTE   Dn3
 BYTE   W12
 BYTE   Fn3
 BYTE   W12
 BYTE   Gn3
 BYTE   W12
 BYTE   As3
 BYTE   W12
 BYTE   PATT
  POIN2 Label_0_FodlanWinds0144D412
// 016   ----------------------------------------
 BYTE   W96
 BYTE   PATT
  POIN2 Label_0_FodlanWinds0144D41E
 BYTE   PATT
  POIN2 Label_0_FodlanWinds0144D42B
// 017   ----------------------------------------
 BYTE   N22  Dn4  v088
 BYTE   W24
 BYTE   N11  Ds4
 BYTE   W12
 BYTE   TIE  As4
 BYTE   W60
// 018   ----------------------------------------
 BYTE   W88
 BYTE   EOT
 BYTE   W08
// 019   ----------------------------------------
 BYTE   W96
// 020   ----------------------------------------
 BYTE   W60
 BYTE   N11  Dn4
 BYTE   W12
 BYTE   Ds4  v072
 BYTE   W12
 BYTE   Fn4  v060
 BYTE   W12
// 021   ----------------------------------------
 BYTE   N32  Gn4  v048
 BYTE   W36
 BYTE   Fn4
 BYTE   W36
 BYTE   N44  Cn4
 BYTE   W24
// 022   ----------------------------------------
 BYTE   W24
 BYTE   N22  Dn4
 BYTE   W24
 BYTE   Ds4
 BYTE   W24
 BYTE   As4
 BYTE   W24
// 023   ----------------------------------------
 BYTE   N32
 BYTE   W36
 BYTE   Gs4
 BYTE   W36
 BYTE   N44  Gn4
 BYTE   W24
// 024   ----------------------------------------
 BYTE   W24
 BYTE   N22  Fn4
 BYTE   W24
 BYTE   Ds4  v060
 BYTE   W24
 BYTE   Dn4  v072
 BYTE   W24
// 025   ----------------------------------------
 BYTE   N44  Cn4  v088
 BYTE   W60
 BYTE   N11
 BYTE   W12
 BYTE   Dn4
 BYTE   W12
 BYTE   Ds4
 BYTE   W12
// 026   ----------------------------------------
 BYTE   N44  Fn4
 BYTE   W48
 BYTE   N11  Ds4
 BYTE   W12
 BYTE   Fn4
 BYTE   W12
 BYTE   TIE  Gn4
 BYTE   W24
// 027   ----------------------------------------
 BYTE   W88
 BYTE   W01
 BYTE   EOT
 BYTE   W07
// 028   ----------------------------------------
 BYTE   W48
 BYTE   N11  Fn4
 BYTE   W12
 BYTE   N32  Gn4
 BYTE   W36
// 029   ----------------------------------------
 BYTE   N88
 BYTE   W96
// 030   ----------------------------------------
 BYTE   W96
// 031   ----------------------------------------
 BYTE   W96
// 032   ----------------------------------------
 BYTE   W96
// 033   ----------------------------------------
 BYTE   W96
// 034   ----------------------------------------
 BYTE   W96
// 035   ----------------------------------------
 BYTE   W96
// 036   ----------------------------------------
 BYTE   W96
// 037   ----------------------------------------
 BYTE   W96
// 038   ----------------------------------------
 BYTE   W96
// 039   ----------------------------------------
 BYTE   W96
// 040   ----------------------------------------
 BYTE   W96
// 041   ----------------------------------------
 BYTE   W96
// 042   ----------------------------------------
Label_0_FodlanWinds0144D4D8:
 BYTE   W24
 BYTE   N22  Ds4  v088
 BYTE   W24
 BYTE   Fn4
 BYTE   W24
 BYTE   Dn4
 BYTE   W24
 BYTE   PEND 
// 043   ----------------------------------------
 BYTE   N90  Ds4
 BYTE   W96
 BYTE   PATT
  POIN2 Label_0_FodlanWinds0144D4D8
// 044   ----------------------------------------
 BYTE   N32  Dn4  v088
 BYTE   W36
 BYTE   TIE  Cn4
 BYTE   W60
// 045   ----------------------------------------
 BYTE   W88
 BYTE   EOT
 BYTE   W08
// 046   ----------------------------------------
 BYTE   GoTo
  POIN2 Label_0_FodlanWinds0144D3FE
 BYTE   FINE

//**************** Track 2 (Midi-Chn.1) ****************//

FodlanWinds_002:
// 000   ----------------------------------------
 BYTE   KEYSH   FodlanWinds_key+0
Label_1_0144D4FE:
 BYTE   VOICE   107
 BYTE   MODT 0
 BYTE   CnM2
 BYTE   LFOS 0
 BYTE   Gs1
 BYTE   PAN   c_v+0
 BYTE   VOL   66*FodlanWinds_mvl/mxv
 BYTE   W96
// 001   ----------------------------------------
 BYTE   W96
// 002   ----------------------------------------
 BYTE   W96
// 003   ----------------------------------------
 BYTE   W96
// 004   ----------------------------------------
 BYTE   W96
// 005   ----------------------------------------
 BYTE   W96
// 006   ----------------------------------------
 BYTE   W96
// 007   ----------------------------------------
 BYTE   W96
// 008   ----------------------------------------
 BYTE   W96
// 009   ----------------------------------------
 BYTE   W96
// 010   ----------------------------------------
 BYTE   W96
// 011   ----------------------------------------
 BYTE   W96
// 012   ----------------------------------------
 BYTE   W96
// 013   ----------------------------------------
 BYTE   W96
// 014   ----------------------------------------
 BYTE   W96
// 015   ----------------------------------------
 BYTE   W96
// 016   ----------------------------------------
 BYTE   W96
// 017   ----------------------------------------
 BYTE   W96
// 018   ----------------------------------------
 BYTE   W96
// 019   ----------------------------------------
 BYTE   W96
// 020   ----------------------------------------
 BYTE   W96
// 021   ----------------------------------------
 BYTE   W96
// 022   ----------------------------------------
 BYTE   W96
// 023   ----------------------------------------
 BYTE   W96
// 024   ----------------------------------------
 BYTE   W96
// 025   ----------------------------------------
 BYTE   W96
// 026   ----------------------------------------
 BYTE   W96
// 027   ----------------------------------------
 BYTE   W96
// 028   ----------------------------------------
 BYTE   W96
// 029   ----------------------------------------
 BYTE   W96
// 030   ----------------------------------------
 BYTE   W96
// 031   ----------------------------------------
 BYTE   W96
// 032   ----------------------------------------
 BYTE   W96
// 033   ----------------------------------------
Label_1_0144D529:
 BYTE   W24
 BYTE   N22  As3  v088
 BYTE   W24
 BYTE   Ds3
 BYTE   W24
 BYTE   Gn3
 BYTE   W24
 BYTE   PEND 
// 034   ----------------------------------------
 BYTE   N90  Fn3
 BYTE   W96
 BYTE   PATT
  POIN2 Label_1_0144D529
// 035   ----------------------------------------
Label_1_0144D53B:
 BYTE   N32  Fn3  v088
 BYTE   W36
 BYTE   N44  Gn3
 BYTE   W60
 BYTE   PEND 
// 036   ----------------------------------------
 BYTE   W24
 BYTE   N22  Ds3
 BYTE   W24
 BYTE   Fn3
 BYTE   W24
 BYTE   Dn3
 BYTE   W24
// 037   ----------------------------------------
 BYTE   N44  Ds3
 BYTE   W48
 BYTE   N68  As3
 BYTE   W48
// 038   ----------------------------------------
 BYTE   W24
 BYTE   N22  Gs3
 BYTE   W24
 BYTE   Gn3
 BYTE   W24
 BYTE   N11  Fn3
 BYTE   W12
 BYTE   TIE  Gn3
 BYTE   W12
// 039   ----------------------------------------
 BYTE   W90
 BYTE   EOT
 BYTE   W06
 BYTE   PATT
  POIN2 Label_1_0144D529
// 040   ----------------------------------------
 BYTE   N90  Fn3  v088
 BYTE   W96
// 041   ----------------------------------------
 BYTE   W48
 BYTE   N22  Ds3
 BYTE   W24
 BYTE   Gn3
 BYTE   W24
 BYTE   PATT
  POIN2 Label_1_0144D53B
// 042   ----------------------------------------
 BYTE   W96
// 043   ----------------------------------------
 BYTE   W96
// 044   ----------------------------------------
 BYTE   W96
// 045   ----------------------------------------
 BYTE   W96
// 046   ----------------------------------------
 BYTE   W96
// 047   ----------------------------------------
 BYTE   GoTo
  POIN2 Label_1_0144D4FE
 BYTE   FINE

//**************** Track 3 (Midi-Chn.2) ****************//

FodlanWinds_003:
// 000   ----------------------------------------
 BYTE   KEYSH   FodlanWinds_key+0
Label_2_0144D582:
 BYTE   VOICE   107
 BYTE   MODT 0
 BYTE   CnM2
 BYTE   LFOS 0
 BYTE   Gs1
 BYTE   PAN   c_v+0
 BYTE   VOL   66*FodlanWinds_mvl/mxv
 BYTE   N11  Fn3  v076
 BYTE   W12
 BYTE   Gn3
 BYTE   W12
 BYTE   Cn4
 BYTE   W12
 BYTE   Fn3
 BYTE   W12
 BYTE   Gn3
 BYTE   W12
 BYTE   Cn4
 BYTE   W12
 BYTE   Fn3
 BYTE   W12
 BYTE   Gn3
 BYTE   W12
// 001   ----------------------------------------
Label_2_0144D59E:
 BYTE   N11  Cn4  v076
 BYTE   W12
 BYTE   Fn3
 BYTE   W12
 BYTE   Gn3
 BYTE   W12
 BYTE   Cn4
 BYTE   W12
 BYTE   Fn3
 BYTE   W12
 BYTE   Gn3
 BYTE   W12
 BYTE   Cn4
 BYTE   W12
 BYTE   Fn3
 BYTE   W12
 BYTE   PEND 
// 002   ----------------------------------------
 BYTE   Gn3
 BYTE   W12
 BYTE   Cn4
 BYTE   W12
 BYTE   Fn3
 BYTE   W12
 BYTE   Gn3
 BYTE   W12
 BYTE   Cn4
 BYTE   W12
 BYTE   Fn3
 BYTE   W12
 BYTE   Gn3
 BYTE   W12
 BYTE   Cn4
 BYTE   W12
// 003   ----------------------------------------
 BYTE   Fn3
 BYTE   W12
 BYTE   Gn3
 BYTE   W12
 BYTE   Cn4
 BYTE   W12
 BYTE   Dn4
 BYTE   W12
 BYTE   Gn3
 BYTE   W12
 BYTE   Ds4
 BYTE   W12
 BYTE   Dn4
 BYTE   W12
 BYTE   Gn3
 BYTE   W12
// 004   ----------------------------------------
 BYTE   Fn3
 BYTE   W12
 BYTE   Gn3
 BYTE   W12
 BYTE   Cn4
 BYTE   W12
 BYTE   Fn3
 BYTE   W12
 BYTE   Gn3
 BYTE   W12
 BYTE   Cn4
 BYTE   W12
 BYTE   Fn3
 BYTE   W12
 BYTE   Gn3
 BYTE   W12
 BYTE   PATT
  POIN2 Label_2_0144D59E
// 005   ----------------------------------------
 BYTE   N11  Gn3  v076
 BYTE   W12
 BYTE   Cn4  v068
 BYTE   W12
 BYTE   Fn3
 BYTE   W12
 BYTE   Gn3  v072
 BYTE   W12
 BYTE   Cn4
 BYTE   W12
 BYTE   Fn3
 BYTE   W12
 BYTE   Gn3  v076
 BYTE   W12
 BYTE   Cn4
 BYTE   W12
// 006   ----------------------------------------
 BYTE   Fn3
 BYTE   W12
 BYTE   Gn3  v080
 BYTE   W12
 BYTE   Cn4
 BYTE   W12
 BYTE   Fn3
 BYTE   W12
 BYTE   Dn3  v084
 BYTE   W12
 BYTE   Fn3
 BYTE   W12
 BYTE   Gn3
 BYTE   W12
 BYTE   As3  v088
 BYTE   W12
// 007   ----------------------------------------
 BYTE   W96
// 008   ----------------------------------------
 BYTE   W96
// 009   ----------------------------------------
 BYTE   W96
// 010   ----------------------------------------
 BYTE   W96
// 011   ----------------------------------------
 BYTE   W96
// 012   ----------------------------------------
 BYTE   W96
// 013   ----------------------------------------
 BYTE   W96
// 014   ----------------------------------------
 BYTE   W96
// 015   ----------------------------------------
 BYTE   W96
// 016   ----------------------------------------
 BYTE   W96
// 017   ----------------------------------------
 BYTE   W96
// 018   ----------------------------------------
 BYTE   W96
// 019   ----------------------------------------
 BYTE   W96
// 020   ----------------------------------------
 BYTE   W96
// 021   ----------------------------------------
 BYTE   W96
// 022   ----------------------------------------
 BYTE   W96
// 023   ----------------------------------------
 BYTE   W96
// 024   ----------------------------------------
 BYTE   W96
// 025   ----------------------------------------
 BYTE   W96
// 026   ----------------------------------------
 BYTE   W96
// 027   ----------------------------------------
 BYTE   N44  Cn3  v064
 BYTE   W60
 BYTE   N11
 BYTE   W12
 BYTE   Dn3
 BYTE   W12
 BYTE   Ds3
 BYTE   W12
// 028   ----------------------------------------
 BYTE   N44  Fn3
 BYTE   W48
 BYTE   N11  Ds3
 BYTE   W12
 BYTE   Fn3
 BYTE   W12
 BYTE   TIE  Gn3
 BYTE   W24
// 029   ----------------------------------------
 BYTE   W88
 BYTE   W01
 BYTE   EOT
 BYTE   W07
// 030   ----------------------------------------
 BYTE   W96
// 031   ----------------------------------------
 BYTE   W96
// 032   ----------------------------------------
 BYTE   W96
// 033   ----------------------------------------
 BYTE   W96
// 034   ----------------------------------------
 BYTE   W96
// 035   ----------------------------------------
 BYTE   W96
// 036   ----------------------------------------
 BYTE   W96
// 037   ----------------------------------------
 BYTE   W96
// 038   ----------------------------------------
 BYTE   W96
// 039   ----------------------------------------
 BYTE   W96
// 040   ----------------------------------------
 BYTE   W96
// 041   ----------------------------------------
 BYTE   W96
// 042   ----------------------------------------
 BYTE   W96
// 043   ----------------------------------------
 BYTE   W96
// 044   ----------------------------------------
 BYTE   W96
// 045   ----------------------------------------
 BYTE   W96
// 046   ----------------------------------------
 BYTE   W96
// 047   ----------------------------------------
 BYTE   W96
// 048   ----------------------------------------
 BYTE   W96
// 049   ----------------------------------------
 BYTE   GoTo
  POIN2 Label_2_0144D582
 BYTE   FINE

//**************** Track 4 (Midi-Chn.3) ****************//

FodlanWinds_004:
// 000   ----------------------------------------
 BYTE   VOL   100*FodlanWinds_mvl/mxv
 BYTE   KEYSH   FodlanWinds_key+0
Label_3_0144D658:
 BYTE   VOICE   0
 BYTE   MODT 0
 BYTE   CnM2
 BYTE   LFOS 0
 BYTE   Gs1
 BYTE   N32  Cn2  v028
 BYTE   W36
 BYTE   Gn2  v020
 BYTE   W36
 BYTE   Dn3
 BYTE   W24
// 001   ----------------------------------------
Label_3_0144D667:
 BYTE   W12
 BYTE   N32  Ds3  v020
 BYTE   W36
 BYTE   Dn3
 BYTE   W36
 BYTE   N44  Gs1  v028
 BYTE   W12
 BYTE   PEND 
// 002   ----------------------------------------
Label_3_0144D673:
 BYTE   W36
 BYTE   N32  Cn3  v020
 BYTE   W36
 BYTE   N56  As1  v028
 BYTE   W24
 BYTE   PEND 
// 003   ----------------------------------------
 BYTE   W36
 BYTE   N32  As2  v020
 BYTE   W36
 BYTE   N22  Gn2
 BYTE   W24
// 004   ----------------------------------------
 BYTE   N32  Cn2  v028
 BYTE   W36
 BYTE   Gn2  v020
 BYTE   W36
 BYTE   Dn3
 BYTE   W24
 BYTE   PATT
  POIN2 Label_3_0144D667
 BYTE   PATT
  POIN2 Label_3_0144D673
// 005   ----------------------------------------
 BYTE   W36
 BYTE   N32  As2  v024
 BYTE   W36
 BYTE   N22  Gn2
 BYTE   W24
// 006   ----------------------------------------
Label_3_0144D6A0:
 BYTE   N11  Cn2  v036
 BYTE   W12
 BYTE   Gn2  v028
 BYTE   W12
 BYTE   Cn3
 BYTE   W12
 BYTE   Cn2
 BYTE   W12
 BYTE   Gn2
 BYTE   W12
 BYTE   Cn3
 BYTE   W12
 BYTE   Dn3
 BYTE   W12
 BYTE   Gn2
 BYTE   W12
 BYTE   PEND 
// 007   ----------------------------------------
Label_3_0144D6B4:
 BYTE   N11  Cn3  v028
 BYTE   W12
 BYTE   Ds3
 BYTE   W12
 BYTE   Gn2
 BYTE   W12
 BYTE   Cn3
 BYTE   W12
 BYTE   Dn3
 BYTE   W12
 BYTE   Gn2
 BYTE   W12
 BYTE   Cn3
 BYTE   W12
 BYTE   N23  Gs1  v036
 BYTE   W12
 BYTE   PEND 
// 008   ----------------------------------------
Label_3_0144D6C9:
 BYTE   W12
 BYTE   N11  Gn2  v028
 BYTE   W12
 BYTE   Cn3
 BYTE   W12
 BYTE   Ds2
 BYTE   W12
 BYTE   Gn2
 BYTE   W12
 BYTE   Cn3
 BYTE   W12
 BYTE   N32  As1  v036
 BYTE   W24
 BYTE   PEND 
// 009   ----------------------------------------
Label_3_0144D6DB:
 BYTE   W12
 BYTE   N11  Gn2  v028
 BYTE   W12
 BYTE   Cn3
 BYTE   W12
 BYTE   As2
 BYTE   W12
 BYTE   Gn2
 BYTE   W12
 BYTE   Ds3
 BYTE   W12
 BYTE   Dn3
 BYTE   W12
 BYTE   Gn2
 BYTE   W12
 BYTE   PEND 
 BYTE   PATT
  POIN2 Label_3_0144D6A0
 BYTE   PATT
  POIN2 Label_3_0144D6B4
 BYTE   PATT
  POIN2 Label_3_0144D6C9
 BYTE   PATT
  POIN2 Label_3_0144D6DB
 BYTE   PATT
  POIN2 Label_3_0144D6A0
 BYTE   PATT
  POIN2 Label_3_0144D6B4
 BYTE   PATT
  POIN2 Label_3_0144D6C9
 BYTE   PATT
  POIN2 Label_3_0144D6DB
 BYTE   PATT
  POIN2 Label_3_0144D6A0
 BYTE   PATT
  POIN2 Label_3_0144D6B4
 BYTE   PATT
  POIN2 Label_3_0144D6C9
// 010   ----------------------------------------
 BYTE   W12
 BYTE   N11  Gn2  v024
 BYTE   W12
 BYTE   Cn3
 BYTE   W12
 BYTE   As2  v020
 BYTE   W12
 BYTE   Gn2
 BYTE   W12
 BYTE   Ds3
 BYTE   W12
 BYTE   Dn3  v016
 BYTE   W12
 BYTE   Gn2
 BYTE   W12
// 011   ----------------------------------------
 BYTE   Fn1
 BYTE   W12
 BYTE   Cn2
 BYTE   W12
 BYTE   Fn2
 BYTE   W12
 BYTE   Gn2
 BYTE   W12
 BYTE   N22  Gs2
 BYTE   W24
 BYTE   N11  Gn1
 BYTE   W12
 BYTE   Dn2
 BYTE   W12
// 012   ----------------------------------------
 BYTE   Gn2
 BYTE   W12
 BYTE   Gs2
 BYTE   W12
 BYTE   As2
 BYTE   W12
 BYTE   Gn2
 BYTE   W12
 BYTE   Fn2
 BYTE   W12
 BYTE   Dn2
 BYTE   W12
 BYTE   As1
 BYTE   W12
 BYTE   Gn1
 BYTE   W12
// 013   ----------------------------------------
 BYTE   Gs1
 BYTE   W12
 BYTE   Ds2
 BYTE   W12
 BYTE   Gs2
 BYTE   W12
 BYTE   As2
 BYTE   W12
 BYTE   N22  Cn3
 BYTE   W24
 BYTE   N11  As1
 BYTE   W12
 BYTE   Fn2
 BYTE   W12
// 014   ----------------------------------------
 BYTE   As2
 BYTE   W12
 BYTE   Cn3
 BYTE   W12
 BYTE   Dn3
 BYTE   W12
 BYTE   As2
 BYTE   W12
 BYTE   Fn2
 BYTE   W12
 BYTE   Dn2
 BYTE   W12
 BYTE   N22  As1  v020
 BYTE   W24
// 015   ----------------------------------------
 BYTE   N23  Fn2  v028
 BYTE   W24
 BYTE   N11  Fn2  v020
 BYTE   W12
 BYTE   Gs2
 BYTE   W12
 BYTE   Fn2
 BYTE   W12
 BYTE   Cn2
 BYTE   W12
 BYTE   Gs1
 BYTE   W12
 BYTE   Fn1
 BYTE   W12
// 016   ----------------------------------------
 BYTE   N23  Gn2  v028
 BYTE   W24
 BYTE   N11  Gn2  v020
 BYTE   W12
 BYTE   As2
 BYTE   W12
 BYTE   Gn2
 BYTE   W12
 BYTE   Dn2
 BYTE   W12
 BYTE   N32  As2  v028
 BYTE   W24
// 017   ----------------------------------------
 BYTE   W12
 BYTE   N11  Fn2  v020
 BYTE   W12
 BYTE   Gn2
 BYTE   W12
 BYTE   Fn2
 BYTE   W12
 BYTE   As2
 BYTE   W12
 BYTE   Gn2  v024
 BYTE   W12
 BYTE   Fn2
 BYTE   W12
 BYTE   Gn2
 BYTE   W12
// 018   ----------------------------------------
 BYTE   Cn2
 BYTE   W12
 BYTE   Fn2
 BYTE   W12
 BYTE   Gn2
 BYTE   W12
 BYTE   Fn2
 BYTE   W12
 BYTE   As2  v028
 BYTE   W12
 BYTE   Gn2
 BYTE   W12
 BYTE   Fn2
 BYTE   W12
 BYTE   Gn2
 BYTE   W12
// 019   ----------------------------------------
 BYTE   Cn2
 BYTE   W12
 BYTE   Fn2
 BYTE   W12
 BYTE   Gn2  v032
 BYTE   W12
 BYTE   Fn2
 BYTE   W12
 BYTE   N05  Cn2
 BYTE   W06
 BYTE   Fn2
 BYTE   W06
 BYTE   Gn2
 BYTE   W06
 BYTE   Fn2
 BYTE   W06
 BYTE   Gn2
 BYTE   W06
 BYTE   As2
 BYTE   W06
 BYTE   Gn2
 BYTE   W06
 BYTE   As2
 BYTE   W06
// 020   ----------------------------------------
 BYTE   N11  Cn3
 BYTE   W96
// 021   ----------------------------------------
 BYTE   N32  Gs1  v040
 BYTE   W36
 BYTE   N11  Gs1  v032
 BYTE   W12
 BYTE   Ds2
 BYTE   W12
 BYTE   Gs2
 BYTE   W12
 BYTE   N32  Gs1  v040
 BYTE   W24
// 022   ----------------------------------------
Label_3_0144D7EB:
 BYTE   W12
 BYTE   N11  Ds1  v032
 BYTE   W12
 BYTE   Gs1
 BYTE   W12
 BYTE   Ds2
 BYTE   W12
 BYTE   Gs2
 BYTE   W12
 BYTE   Ds2
 BYTE   W12
 BYTE   Cn2
 BYTE   W12
 BYTE   Gs1
 BYTE   W12
 BYTE   PEND 
// 023   ----------------------------------------
 BYTE   N32  Gn1  v040
 BYTE   W36
 BYTE   N11  Gn1  v032
 BYTE   W12
 BYTE   Dn2
 BYTE   W12
 BYTE   Gn2
 BYTE   W12
 BYTE   N32  Cn2  v040
 BYTE   W24
// 024   ----------------------------------------
Label_3_0144D80D:
 BYTE   W12
 BYTE   N11  Gn1  v032
 BYTE   W12
 BYTE   Dn2
 BYTE   W12
 BYTE   Ds2
 BYTE   W12
 BYTE   Fn2
 BYTE   W12
 BYTE   Ds2
 BYTE   W12
 BYTE   Dn2
 BYTE   W12
 BYTE   As1
 BYTE   W12
 BYTE   PEND 
// 025   ----------------------------------------
 BYTE   N32  Gs1  v040
 BYTE   W36
 BYTE   N11  Ds1  v032
 BYTE   W12
 BYTE   Gs1
 BYTE   W12
 BYTE   Cn2
 BYTE   W12
 BYTE   Ds2
 BYTE   W12
 BYTE   Gn2
 BYTE   W12
// 026   ----------------------------------------
 BYTE   N23  As1  v040
 BYTE   W24
 BYTE   N11  Fn2  v032
 BYTE   W12
 BYTE   As2
 BYTE   W12
 BYTE   Dn3
 BYTE   W12
 BYTE   As2
 BYTE   W12
 BYTE   Fn2
 BYTE   W12
 BYTE   Dn2
 BYTE   W12
// 027   ----------------------------------------
 BYTE   N23  Cn2  v040
 BYTE   W24
 BYTE   N11  Dn2  v032
 BYTE   W12
 BYTE   Ds2
 BYTE   W12
 BYTE   Fn2
 BYTE   W12
 BYTE   Dn2
 BYTE   W12
 BYTE   Ds2
 BYTE   W12
 BYTE   Gn2
 BYTE   W12
// 028   ----------------------------------------
 BYTE   As2
 BYTE   W12
 BYTE   Cn3
 BYTE   W12
 BYTE   As2
 BYTE   W12
 BYTE   Gn2
 BYTE   W12
 BYTE   Fn2
 BYTE   W12
 BYTE   Ds2
 BYTE   W12
 BYTE   Dn2
 BYTE   W12
 BYTE   As1
 BYTE   W12
// 029   ----------------------------------------
 BYTE   Gs1  v040
 BYTE   W12
 BYTE   Ds2  v032
 BYTE   W12
 BYTE   Gs2
 BYTE   W12
 BYTE   Gs1
 BYTE   W12
 BYTE   Ds2
 BYTE   W12
 BYTE   Gs2
 BYTE   W12
 BYTE   Gs1  v040
 BYTE   W12
 BYTE   N23
 BYTE   W12
 BYTE   PATT
  POIN2 Label_3_0144D7EB
// 030   ----------------------------------------
 BYTE   N11  Gn1  v040
 BYTE   W12
 BYTE   Dn2  v032
 BYTE   W12
 BYTE   Gn2
 BYTE   W12
 BYTE   Gn1
 BYTE   W12
 BYTE   Dn2
 BYTE   W12
 BYTE   Gn2
 BYTE   W12
 BYTE   Cn2  v040
 BYTE   W12
 BYTE   N22  Cn2  v032
 BYTE   W12
 BYTE   PATT
  POIN2 Label_3_0144D80D
// 031   ----------------------------------------
 BYTE   N32  Gs1  v040
 BYTE   W36
 BYTE   N11  Ds1  v032
 BYTE   W12
 BYTE   Gs1
 BYTE   W12
 BYTE   Cn2
 BYTE   W12
 BYTE   Ds2
 BYTE   W12
 BYTE   Gs2
 BYTE   W12
// 032   ----------------------------------------
 BYTE   N32  As1  v040
 BYTE   W36
 BYTE   N11  Fn1  v032
 BYTE   W12
 BYTE   As1
 BYTE   W12
 BYTE   Dn2
 BYTE   W12
 BYTE   Fn2
 BYTE   W12
 BYTE   As2
 BYTE   W12
// 033   ----------------------------------------
 BYTE   N23  Cn2  v040
 BYTE   W24
 BYTE   N11  Cn2  v032
 BYTE   W12
 BYTE   Ds2
 BYTE   W12
 BYTE   Fn2
 BYTE   W12
 BYTE   Gn2
 BYTE   W12
 BYTE   As2
 BYTE   W12
 BYTE   Cn3
 BYTE   W12
// 034   ----------------------------------------
 BYTE   Dn3
 BYTE   W12
 BYTE   Ds3
 BYTE   W12
 BYTE   As2  v028
 BYTE   W12
 BYTE   Gn2  v024
 BYTE   W12
 BYTE   Fn2
 BYTE   W12
 BYTE   Ds2  v020
 BYTE   W12
 BYTE   Dn2
 BYTE   W12
 BYTE   As1  v016
 BYTE   W12
// 035   ----------------------------------------
 BYTE   GoTo
  POIN2 Label_3_0144D658
 BYTE   FINE

//******************************************************//
	ALIGN 4

songFodlanWinds:
	BYTE	4	// NumTrks
	BYTE	0	// NumBlks
	BYTE	FodlanWinds_pri	// Priority
	BYTE	FodlanWinds_rev	// Reverb.
    
	POIN2	FodlanWinds_grp
    
	POIN2	FodlanWinds_001
	POIN2	FodlanWinds_002
	POIN2	FodlanWinds_003
	POIN2	FodlanWinds_004

	
