//Event file generated from Sappy .s format.
	#include "MPlayDef.event"

	#define	songFullForce_grp  voicegroup000
	#define	songFullForce_pri  0
	#define	songFullForce_rev  0
	#define	songFullForce_mvl  127
	#define	songFullForce_key  0
	#define	songFullForce_tbs  1
	#define	songFullForce_exg  0
	#define	songFullForce_cmp  1

	// .rodata
	//	songFullForce
	ALIGN 4


//**************** Track 1 (Midi-Chn.0) ****************//

songFullForce_001:
// 000   ----------------------------------------
 BYTE   KEYSH   songFullForce_key+0
Label_0_0104EAEA:
 BYTE   TEMPO   118*songFullForce_tbs/2
 BYTE   VOICE   80
 BYTE   VOL   31*songFullForce_mvl/mxv
 BYTE   MODT 0
 BYTE   CnM2
 BYTE   LFOS 0
 BYTE   Gs1
 BYTE   VOL   60*songFullForce_mvl/mxv
 BYTE   PAN   c_v+0
 BYTE   VOL   47*songFullForce_mvl/mxv
 BYTE   N24  Cn4  v127
 BYTE   W24
 BYTE   N06  Gn4
 BYTE   W06
 BYTE   Fn4
 BYTE   W06
 BYTE   Dn4
 BYTE   W06
 BYTE   N30  Ds4
 BYTE   W30
 BYTE   N06
 BYTE   W06
 BYTE   Dn4
 BYTE   W06
 BYTE   Cn4
 BYTE   W06
 BYTE   As3
 BYTE   W06
// 001   ----------------------------------------
 BYTE   N18  Cn4
 BYTE   W18
 BYTE   N02  As3
 BYTE   W02
 BYTE   N03  Cn4
 BYTE   W04
 BYTE   N24  Dn4
 BYTE   W24
 BYTE   N08  Ds4
 BYTE   W08
 BYTE   N07  Dn4
 BYTE   W07
 BYTE   N08  Ds4
 BYTE   W09
 BYTE   N24  Fn4
 BYTE   W24
// 002   ----------------------------------------
 BYTE   Gn4
 BYTE   W24
 BYTE   N06  Fn4
 BYTE   W06
 BYTE   Ds4
 BYTE   W06
 BYTE   Dn4
 BYTE   W06
 BYTE   N30  Ds4
 BYTE   W30
 BYTE   N06
 BYTE   W06
 BYTE   Dn4
 BYTE   W06
 BYTE   Cn4
 BYTE   W06
 BYTE   As3
 BYTE   W06
// 003   ----------------------------------------
 BYTE   N12  Cn4
 BYTE   W12
 BYTE   Gn4
 BYTE   W12
 BYTE   Fn4
 BYTE   W12
 BYTE   As4
 BYTE   W12
 BYTE   N18  Cn5
 BYTE   W18
 BYTE   N02  As4
 BYTE   W02
 BYTE   N03  Cn5
 BYTE   W04
 BYTE   N24  Dn5
 BYTE   W24
// 004   ----------------------------------------
 BYTE   Cn5
 BYTE   W24
 BYTE   N06  As4
 BYTE   W06
 BYTE   Gs4
 BYTE   W06
 BYTE   Gn4
 BYTE   W06
 BYTE   N30  Fn4
 BYTE   W06
 BYTE   W24
 BYTE   N08
 BYTE   W08
 BYTE   N07  Gn4
 BYTE   W07
 BYTE   N08  Gs4
 BYTE   W09
// 005   ----------------------------------------
 BYTE   N48  Gn4
 BYTE   W24
 BYTE   W24
 BYTE   N18  Fn4
 BYTE   W18
 BYTE   Ds4
 BYTE   W18
 BYTE   N12  Dn4
 BYTE   W12
// 006   ----------------------------------------
 BYTE   N48  Ds4
 BYTE   W48
 BYTE   N12  Dn4
 BYTE   W12
 BYTE   Cn4
 BYTE   W12
 BYTE   Dn4
 BYTE   W12
 BYTE   Ds4
 BYTE   W12
// 007   ----------------------------------------
 BYTE   N18  Fn4
 BYTE   W18
 BYTE   N48  Gn4
 BYTE   W30
 BYTE   W18
 BYTE   N18  Fn4
 BYTE   W18
 BYTE   N12  Ds4
 BYTE   W12
// 008   ----------------------------------------
 BYTE   N18  Dn4
 BYTE   W18
 BYTE   Ds4
 BYTE   W06
 BYTE   W12
 BYTE   N12  Fn4
 BYTE   W12
 BYTE   N06  Gn4
 BYTE   W06
 BYTE   Fn4
 BYTE   W06
 BYTE   Ds4
 BYTE   W06
 BYTE   Gs4
 BYTE   W06
 BYTE   Gn4
 BYTE   W06
 BYTE   Fn4
 BYTE   W06
 BYTE   Ds4
 BYTE   W06
 BYTE   Dn4
 BYTE   W06
// 009   ----------------------------------------
 BYTE   N18  Cn4
 BYTE   W18
 BYTE   N03  Bn3
 BYTE   W03
 BYTE   N02  Cn4
 BYTE   W03
 BYTE   N24  Dn4
 BYTE   W24
 BYTE   N08  Ds4
 BYTE   W08
 BYTE   N07  Dn4
 BYTE   W07
 BYTE   N08  Ds4
 BYTE   W09
 BYTE   Fn4
 BYTE   W08
 BYTE   N07  Ds4
 BYTE   W07
 BYTE   N08  Dn4
 BYTE   W09
// 010   ----------------------------------------
 BYTE   N48  Cn4
 BYTE   W48
 BYTE   En3
 BYTE   W72
// 011   ----------------------------------------
 BYTE   W72
 BYTE   W72
// 012   ----------------------------------------
 BYTE   W72
 BYTE   W72
// 013   ----------------------------------------
 BYTE   W72
 BYTE   W72
// 014   ----------------------------------------
 BYTE   W72
 BYTE   W72
// 015   ----------------------------------------
 BYTE   W72
 BYTE   W48
// 016   ----------------------------------------
 BYTE   VOL   17*songFullForce_mvl/mxv
 BYTE   N02
 BYTE   W02
 BYTE   N03  Gn3
 BYTE   W04
 BYTE   N02  Bn3
 BYTE   W02
 BYTE   N03  En4
 BYTE   W04
 BYTE   Gn3
 BYTE   W03
 BYTE   N02  Bn3
 BYTE   W03
 BYTE   N03  En4
 BYTE   W03
 BYTE   N02  Gn4
 BYTE   W03
 BYTE   Bn3
 BYTE   W02
 BYTE   N03  En4
 BYTE   W04
 BYTE   N02  Gn4
 BYTE   W02
 BYTE   N03  Bn4
 BYTE   W04
 BYTE   N02  En4
 BYTE   W02
 BYTE   N03  Gn4
 BYTE   W04
 BYTE   Bn4
 BYTE   W03
 BYTE   N02  En5
 BYTE   W03
 BYTE   GoTo
  POIN2 Label_0_0104EAEA
 BYTE   FINE

//**************** Track 2 (Midi-Chn.1) ****************//

songFullForce_002:
// 000   ----------------------------------------
 BYTE   KEYSH   songFullForce_key+0
Label_1_0104EC0A:
 BYTE   VOICE   29
 BYTE   VOL   47*songFullForce_mvl/mxv
 BYTE   MODT 0
 BYTE   CnM2
 BYTE   LFOS 0
 BYTE   Gs1
 BYTE   VOL   80*songFullForce_mvl/mxv
 BYTE   PAN   c_v+0
 BYTE   VOL   37*songFullForce_mvl/mxv
 BYTE   N06  Gn1  v127
 BYTE   W06
 BYTE   N06
 BYTE   W06
 BYTE   N06
 BYTE   W06
 BYTE   N06
 BYTE   W06
 BYTE   N06
 BYTE   W06
 BYTE   N12  Dn1
 BYTE   W12
 BYTE   Ds1
 BYTE   W12
 BYTE   N06
 BYTE   W06
 BYTE   N12  Ds2
 BYTE   W12
 BYTE   N06  Ds1
 BYTE   W06
 BYTE   N06
 BYTE   W06
 BYTE   N12  Ds2
 BYTE   W12
// 001   ----------------------------------------
 BYTE   N06  Cn1
 BYTE   W06
 BYTE   N06
 BYTE   W06
 BYTE   Cn2
 BYTE   W06
 BYTE   Cn1
 BYTE   W06
 BYTE   Dn1
 BYTE   W06
 BYTE   N06
 BYTE   W06
 BYTE   Dn2
 BYTE   W06
 BYTE   Dn1
 BYTE   W06
 BYTE   Ds1
 BYTE   W06
 BYTE   N06
 BYTE   W06
 BYTE   Ds2
 BYTE   W06
 BYTE   Ds1
 BYTE   W06
 BYTE   Fn1
 BYTE   W06
 BYTE   N06
 BYTE   W06
 BYTE   Fn2
 BYTE   W06
 BYTE   Fn1
 BYTE   W06
// 002   ----------------------------------------
 BYTE   Gn1
 BYTE   W06
 BYTE   N06
 BYTE   W06
 BYTE   N06
 BYTE   W06
 BYTE   N06
 BYTE   W06
 BYTE   N06
 BYTE   W06
 BYTE   N12  Dn1
 BYTE   W12
 BYTE   Ds1
 BYTE   W12
 BYTE   N06
 BYTE   W06
 BYTE   N12  Ds2
 BYTE   W12
 BYTE   N06  Ds1
 BYTE   W06
 BYTE   N06
 BYTE   W06
 BYTE   N12  Ds2
 BYTE   W12
// 003   ----------------------------------------
 BYTE   N06  Cn1
 BYTE   W06
 BYTE   N06
 BYTE   W06
 BYTE   Cn2
 BYTE   W06
 BYTE   Cn1
 BYTE   W06
 BYTE   Dn1
 BYTE   W06
 BYTE   N06
 BYTE   W06
 BYTE   Dn2
 BYTE   W06
 BYTE   Dn1
 BYTE   W06
 BYTE   Ds1
 BYTE   W06
 BYTE   N06
 BYTE   W06
 BYTE   Ds2
 BYTE   W06
 BYTE   Ds1
 BYTE   W06
 BYTE   Fn1
 BYTE   W06
 BYTE   N06
 BYTE   W06
 BYTE   Fn2
 BYTE   W06
 BYTE   Fn1
 BYTE   W06
// 004   ----------------------------------------
 BYTE   Gs2
 BYTE   W06
 BYTE   N06
 BYTE   W12
 BYTE   N06
 BYTE   W06
 BYTE   N06
 BYTE   W06
 BYTE   N06
 BYTE   W12
 BYTE   N06
 BYTE   W06
 BYTE   As2
 BYTE   W06
 BYTE   N06
 BYTE   W12
 BYTE   N06
 BYTE   W06
 BYTE   N06
 BYTE   W06
 BYTE   N06
 BYTE   W12
 BYTE   N06
 BYTE   W06
// 005   ----------------------------------------
 BYTE   Cn3
 BYTE   W06
 BYTE   N06
 BYTE   W12
 BYTE   N06
 BYTE   W06
 BYTE   W06
 BYTE   N06
 BYTE   W12
 BYTE   N06
 BYTE   W06
 BYTE   N06
 BYTE   W06
 BYTE   N06
 BYTE   W12
 BYTE   N06
 BYTE   W12
 BYTE   N06
 BYTE   W12
 BYTE   As2
 BYTE   W06
// 006   ----------------------------------------
 BYTE   Cn3
 BYTE   W06
 BYTE   N06
 BYTE   W12
 BYTE   N06
 BYTE   W12
 BYTE   N06
 BYTE   W12
 BYTE   N06
 BYTE   W06
 BYTE   Fn2
 BYTE   W06
 BYTE   N06
 BYTE   W06
 BYTE   Gn2
 BYTE   W06
 BYTE   N06
 BYTE   W06
 BYTE   Gs2
 BYTE   W06
 BYTE   N06
 BYTE   W06
 BYTE   As2
 BYTE   W06
 BYTE   N06
 BYTE   W06
// 007   ----------------------------------------
 BYTE   Cn3
 BYTE   W06
 BYTE   N06
 BYTE   W12
 BYTE   N06
 BYTE   W12
 BYTE   N06
 BYTE   W12
 BYTE   N06
 BYTE   W06
 BYTE   N06
 BYTE   W06
 BYTE   N06
 BYTE   W12
 BYTE   N06
 BYTE   W12
 BYTE   N06
 BYTE   W12
 BYTE   As2
 BYTE   W06
// 008   ----------------------------------------
 BYTE   Cn3
 BYTE   W06
 BYTE   N06
 BYTE   W12
 BYTE   N06
 BYTE   W06
 BYTE   W06
 BYTE   N06
 BYTE   W12
 BYTE   N06
 BYTE   W06
 BYTE   Gs2
 BYTE   W06
 BYTE   Gn2
 BYTE   W06
 BYTE   Fn2
 BYTE   W06
 BYTE   As2
 BYTE   W06
 BYTE   Gs2
 BYTE   W06
 BYTE   Gn2
 BYTE   W06
 BYTE   Fn2
 BYTE   W06
 BYTE   Ds2
 BYTE   W06
// 009   ----------------------------------------
 BYTE   N48  Gs2
 BYTE   W48
 BYTE   As2
 BYTE   W24
 BYTE   W24
// 010   ----------------------------------------
 BYTE   N06  Cn3
 BYTE   W06
 BYTE   N06
 BYTE   W06
 BYTE   As2
 BYTE   W06
 BYTE   Cn3
 BYTE   W12
 BYTE   N06
 BYTE   W12
 BYTE   N54  En2
 BYTE   W06
 BYTE   W48
// 011   ----------------------------------------
 BYTE   VOL   35*songFullForce_mvl/mxv
 BYTE   N18  En3
 BYTE   W18
 BYTE   N06
 BYTE   W06
Label_1_0104ED26:
 BYTE   N06  En3  v127
 BYTE   W06
 BYTE   N12
 BYTE   W12
 BYTE   N06
 BYTE   W06
 BYTE   N18  Dn3
 BYTE   W18
 BYTE   N06
 BYTE   W06
 BYTE   N06
 BYTE   W06
 BYTE   N12
 BYTE   W12
 BYTE   N06
 BYTE   W06
 BYTE   PEND 
// 012   ----------------------------------------
Label_1_0104ED3A:
 BYTE   N18  En3  v127
 BYTE   W18
 BYTE   N06
 BYTE   W06
 BYTE   N06
 BYTE   W06
 BYTE   N12
 BYTE   W12
 BYTE   N06
 BYTE   W06
 BYTE   N18
 BYTE   W18
 BYTE   N06
 BYTE   W06
 BYTE   PEND 
Label_1_0104ED4B:
 BYTE   N06  En3  v127
 BYTE   W06
 BYTE   N12
 BYTE   W12
 BYTE   N06
 BYTE   W06
// 013   ----------------------------------------
 BYTE   N18
 BYTE   W18
 BYTE   N06
 BYTE   W06
 BYTE   N06
 BYTE   W06
 BYTE   N12
 BYTE   W12
 BYTE   N06
 BYTE   W06
 BYTE   PEND 
 BYTE   N18  Dn3
 BYTE   W18
 BYTE   N06
 BYTE   W06
 BYTE   N06
 BYTE   W06
 BYTE   N12
 BYTE   W12
 BYTE   N06
 BYTE   W06
// 014   ----------------------------------------
 BYTE   N18  En3
 BYTE   W18
 BYTE   N06
 BYTE   W06
 BYTE   PATT
  POIN2 Label_1_0104ED4B
// 015   ----------------------------------------
 BYTE   N18  En3  v127
 BYTE   W18
 BYTE   N06
 BYTE   W06
 BYTE   N06
 BYTE   W06
 BYTE   N12
 BYTE   W12
 BYTE   N06
 BYTE   W06
 BYTE   N18  Dn3
 BYTE   W18
 BYTE   N06
 BYTE   W06
 BYTE   N06
 BYTE   W06
 BYTE   N12
 BYTE   W12
 BYTE   N06
 BYTE   W06
// 016   ----------------------------------------
 BYTE   N18  En3
 BYTE   W18
 BYTE   N06
 BYTE   W06
 BYTE   N06
 BYTE   W06
 BYTE   N12
 BYTE   W12
 BYTE   N06
 BYTE   W06
 BYTE   PATT
  POIN2 Label_1_0104ED3A
 BYTE   PATT
  POIN2 Label_1_0104ED26
// 017   ----------------------------------------
 BYTE   N18  En3  v127
 BYTE   W18
 BYTE   N06
 BYTE   W06
 BYTE   N06
 BYTE   W06
 BYTE   N12
 BYTE   W12
 BYTE   N06
 BYTE   W06
 BYTE   N02  Bn4
 BYTE   W02
 BYTE   N03  Fs4
 BYTE   W04
 BYTE   N02  Dn4
 BYTE   W02
 BYTE   N03  Bn3
 BYTE   W04
 BYTE   Fs4
 BYTE   W03
 BYTE   N02  Dn4
 BYTE   W03
 BYTE   N03  Bn3
 BYTE   W03
 BYTE   N02  Fs3
 BYTE   W03
 BYTE   Dn4
 BYTE   W02
 BYTE   N03  Bn3
 BYTE   W04
 BYTE   N02  As3
 BYTE   W02
 BYTE   N03  Fn3
 BYTE   W04
 BYTE   N02  Dn4
 BYTE   W02
 BYTE   N03  As3
 BYTE   W04
 BYTE   Fn3
 BYTE   W03
 BYTE   N02  Dn3
 BYTE   W03
// 018   ----------------------------------------
 BYTE   GoTo
  POIN2 Label_1_0104EC0A
 BYTE   FINE

//**************** Track 3 (Midi-Chn.2) ****************//

songFullForce_003:
// 000   ----------------------------------------
 BYTE   KEYSH   songFullForce_key+0
Label_2_0104EDE2:
 BYTE   VOICE   29
 BYTE   VOL   47*songFullForce_mvl/mxv
 BYTE   MODT 0
 BYTE   CnM2
 BYTE   LFOS 0
 BYTE   Gs1
 BYTE   VOL   80*songFullForce_mvl/mxv
 BYTE   PAN   c_v+0
 BYTE   VOL   37*songFullForce_mvl/mxv
 BYTE   N06  Cn2  v127
 BYTE   W06
 BYTE   N06
 BYTE   W06
 BYTE   N06
 BYTE   W06
 BYTE   N06
 BYTE   W06
 BYTE   N06
 BYTE   W06
 BYTE   N12  Gn1
 BYTE   W12
 BYTE   Gs1
 BYTE   W12
 BYTE   N06
 BYTE   W06
 BYTE   N12  Gs2
 BYTE   W12
 BYTE   N06  Gs1
 BYTE   W06
 BYTE   N06
 BYTE   W06
 BYTE   N12  Gs2
 BYTE   W12
// 001   ----------------------------------------
 BYTE   N06  Fn1
 BYTE   W06
 BYTE   N06
 BYTE   W06
 BYTE   Fn2
 BYTE   W06
 BYTE   Fn1
 BYTE   W06
 BYTE   Gn1
 BYTE   W06
 BYTE   N06
 BYTE   W06
 BYTE   Gn2
 BYTE   W06
 BYTE   Gn1
 BYTE   W06
 BYTE   Gs1
 BYTE   W06
 BYTE   N06
 BYTE   W06
 BYTE   Gs2
 BYTE   W06
 BYTE   Gs1
 BYTE   W06
 BYTE   As1
 BYTE   W06
 BYTE   N06
 BYTE   W06
 BYTE   As2
 BYTE   W06
 BYTE   As1
 BYTE   W06
// 002   ----------------------------------------
 BYTE   Cn2
 BYTE   W06
 BYTE   N06
 BYTE   W06
 BYTE   N06
 BYTE   W06
 BYTE   N06
 BYTE   W06
 BYTE   N06
 BYTE   W06
 BYTE   N12  Gn1
 BYTE   W12
 BYTE   Gs1
 BYTE   W12
 BYTE   N06
 BYTE   W06
 BYTE   N12  Gs2
 BYTE   W12
 BYTE   N06  Gs1
 BYTE   W06
 BYTE   N06
 BYTE   W06
 BYTE   N12  Gs2
 BYTE   W12
// 003   ----------------------------------------
 BYTE   N06  Fn1
 BYTE   W06
 BYTE   N06
 BYTE   W06
 BYTE   Fn2
 BYTE   W06
 BYTE   Fn1
 BYTE   W06
 BYTE   Gn1
 BYTE   W06
 BYTE   N06
 BYTE   W06
 BYTE   Gn2
 BYTE   W06
 BYTE   Gn1
 BYTE   W06
 BYTE   Gs1
 BYTE   W06
 BYTE   N06
 BYTE   W06
 BYTE   Gs2
 BYTE   W06
 BYTE   Gs1
 BYTE   W06
 BYTE   As1
 BYTE   W06
 BYTE   N06
 BYTE   W06
 BYTE   As2
 BYTE   W06
 BYTE   As1
 BYTE   W06
// 004   ----------------------------------------
 BYTE   Ds1
 BYTE   W06
 BYTE   N06
 BYTE   W12
 BYTE   N06
 BYTE   W06
 BYTE   N06
 BYTE   W06
 BYTE   N06
 BYTE   W12
 BYTE   N06
 BYTE   W06
 BYTE   Fn1
 BYTE   W06
 BYTE   N06
 BYTE   W12
 BYTE   N06
 BYTE   W06
 BYTE   N06
 BYTE   W06
 BYTE   N06
 BYTE   W12
 BYTE   N06
 BYTE   W06
// 005   ----------------------------------------
 BYTE   Gn1
 BYTE   W06
 BYTE   N06
 BYTE   W12
 BYTE   N06
 BYTE   W06
 BYTE   W06
 BYTE   N06
 BYTE   W12
 BYTE   N06
 BYTE   W06
 BYTE   N06
 BYTE   W06
 BYTE   N06
 BYTE   W12
 BYTE   N06
 BYTE   W12
 BYTE   N06
 BYTE   W12
 BYTE   Fn1
 BYTE   W06
// 006   ----------------------------------------
 BYTE   Gn1
 BYTE   W06
 BYTE   N06
 BYTE   W12
 BYTE   N06
 BYTE   W12
 BYTE   N06
 BYTE   W12
 BYTE   N06
 BYTE   W06
 BYTE   Cn1
 BYTE   W06
 BYTE   N06
 BYTE   W06
 BYTE   Dn1
 BYTE   W06
 BYTE   N06
 BYTE   W06
 BYTE   Ds1
 BYTE   W06
 BYTE   N06
 BYTE   W06
 BYTE   Fn1
 BYTE   W06
 BYTE   N06
 BYTE   W06
// 007   ----------------------------------------
 BYTE   Gn1
 BYTE   W06
 BYTE   N06
 BYTE   W12
 BYTE   N06
 BYTE   W12
 BYTE   N06
 BYTE   W12
 BYTE   N06
 BYTE   W06
 BYTE   N06
 BYTE   W06
 BYTE   N06
 BYTE   W12
 BYTE   N06
 BYTE   W12
 BYTE   N06
 BYTE   W12
 BYTE   Fn1
 BYTE   W06
// 008   ----------------------------------------
 BYTE   Gn1
 BYTE   W06
 BYTE   N06
 BYTE   W12
 BYTE   N06
 BYTE   W06
 BYTE   W06
 BYTE   N06
 BYTE   W12
 BYTE   N06
 BYTE   W06
 BYTE   Ds1
 BYTE   W06
 BYTE   Dn1
 BYTE   W06
 BYTE   Cn1
 BYTE   W06
 BYTE   Fn1
 BYTE   W06
 BYTE   Ds1
 BYTE   W06
 BYTE   Dn1
 BYTE   W06
 BYTE   Cn1
 BYTE   W06
 BYTE   As0
 BYTE   W06
// 009   ----------------------------------------
 BYTE   N48  Ds1
 BYTE   W48
 BYTE   Fn1
 BYTE   W24
 BYTE   W24
// 010   ----------------------------------------
 BYTE   N06  Gn1
 BYTE   W06
 BYTE   N06
 BYTE   W06
 BYTE   Fn1
 BYTE   W06
 BYTE   Gn1
 BYTE   W12
 BYTE   N06
 BYTE   W12
 BYTE   N54  Bn0
 BYTE   W06
 BYTE   W48
// 011   ----------------------------------------
 BYTE   VOL   35*songFullForce_mvl/mxv
 BYTE   N18  Bn1
 BYTE   W18
 BYTE   N06
 BYTE   W06
Label_2_0104EEFE:
 BYTE   N06  Bn1  v127
 BYTE   W06
 BYTE   N12
 BYTE   W12
 BYTE   N06
 BYTE   W06
 BYTE   N18  An1
 BYTE   W18
 BYTE   N06
 BYTE   W06
 BYTE   N06
 BYTE   W06
 BYTE   N12
 BYTE   W12
 BYTE   N06
 BYTE   W06
 BYTE   PEND 
// 012   ----------------------------------------
Label_2_0104EF12:
 BYTE   N18  Bn1  v127
 BYTE   W18
 BYTE   N06
 BYTE   W06
 BYTE   N06
 BYTE   W06
 BYTE   N12
 BYTE   W12
 BYTE   N06
 BYTE   W06
 BYTE   N18
 BYTE   W18
 BYTE   N06
 BYTE   W06
 BYTE   PEND 
Label_2_0104EF23:
 BYTE   N06  Bn1  v127
 BYTE   W06
 BYTE   N12
 BYTE   W12
 BYTE   N06
 BYTE   W06
// 013   ----------------------------------------
 BYTE   N18
 BYTE   W18
 BYTE   N06
 BYTE   W06
 BYTE   N06
 BYTE   W06
 BYTE   N12
 BYTE   W12
 BYTE   N06
 BYTE   W06
 BYTE   PEND 
 BYTE   N18  An1
 BYTE   W18
 BYTE   N06
 BYTE   W06
 BYTE   N06
 BYTE   W06
 BYTE   N12
 BYTE   W12
 BYTE   N06
 BYTE   W06
// 014   ----------------------------------------
 BYTE   N18  Bn1
 BYTE   W18
 BYTE   N06
 BYTE   W06
 BYTE   PATT
  POIN2 Label_2_0104EF23
// 015   ----------------------------------------
 BYTE   N18  Bn1  v127
 BYTE   W18
 BYTE   N06
 BYTE   W06
 BYTE   N06
 BYTE   W06
 BYTE   N12
 BYTE   W12
 BYTE   N06
 BYTE   W06
 BYTE   N18  An1
 BYTE   W18
 BYTE   N06
 BYTE   W06
 BYTE   N06
 BYTE   W06
 BYTE   N12
 BYTE   W12
 BYTE   N06
 BYTE   W06
// 016   ----------------------------------------
 BYTE   N18  Bn1
 BYTE   W18
 BYTE   N06
 BYTE   W06
 BYTE   N06
 BYTE   W06
 BYTE   N12
 BYTE   W12
 BYTE   N06
 BYTE   W06
 BYTE   PATT
  POIN2 Label_2_0104EF12
 BYTE   PATT
  POIN2 Label_2_0104EEFE
// 017   ----------------------------------------
 BYTE   N18  Bn1  v127
 BYTE   W18
 BYTE   N06
 BYTE   W06
 BYTE   N06
 BYTE   W06
 BYTE   N12
 BYTE   W12
 BYTE   N06
 BYTE   W06
 BYTE   N02  En5
 BYTE   W02
 BYTE   N03  Bn4
 BYTE   W04
 BYTE   N02  Gn4
 BYTE   W02
 BYTE   N03  En4
 BYTE   W04
 BYTE   Bn4
 BYTE   W03
 BYTE   N02  Gn4
 BYTE   W03
 BYTE   N03  En4
 BYTE   W03
 BYTE   N02  Bn3
 BYTE   W03
 BYTE   Gn4
 BYTE   W02
 BYTE   N03  En4
 BYTE   W04
 BYTE   N02  Bn3
 BYTE   W02
 BYTE   N03  Gn3
 BYTE   W04
 BYTE   N02  En4
 BYTE   W02
 BYTE   N03  Bn3
 BYTE   W04
 BYTE   Gn3
 BYTE   W03
 BYTE   N02  En3
 BYTE   W03
// 018   ----------------------------------------
 BYTE   GoTo
  POIN2 Label_2_0104EDE2
 BYTE   FINE

//**************** Track 4 (Midi-Chn.3) ****************//

songFullForce_004:
// 000   ----------------------------------------
 BYTE   KEYSH   songFullForce_key+0
Label_3_0104EFBA:
 BYTE   VOICE   35
 BYTE   VOL   51*songFullForce_mvl/mxv
 BYTE   MODT 0
 BYTE   CnM2
 BYTE   LFOS 0
 BYTE   Gs1
 BYTE   VOL   80*songFullForce_mvl/mxv
 BYTE   PAN   c_v+0
 BYTE   VOL   67*songFullForce_mvl/mxv
 BYTE   N24  Cn1  v127
 BYTE   W24
 BYTE   N06
 BYTE   W06
 BYTE   N12  Gn0
 BYTE   W12
 BYTE   N30  Gs0
 BYTE   W30
 BYTE   N06
 BYTE   W06
 BYTE   N06
 BYTE   W06
 BYTE   N12  Gs1
 BYTE   W12
// 001   ----------------------------------------
 BYTE   N06  Fn0
 BYTE   W06
 BYTE   N06
 BYTE   W06
 BYTE   Fn1
 BYTE   W06
 BYTE   Fn0
 BYTE   W06
 BYTE   Gn0
 BYTE   W06
 BYTE   N06
 BYTE   W06
 BYTE   Gn1
 BYTE   W06
 BYTE   Gn0
 BYTE   W06
 BYTE   Gs0
 BYTE   W06
 BYTE   N06
 BYTE   W06
 BYTE   Gs1
 BYTE   W06
 BYTE   Gs0
 BYTE   W06
 BYTE   As0
 BYTE   W06
 BYTE   N06
 BYTE   W06
 BYTE   As1
 BYTE   W06
 BYTE   As0
 BYTE   W06
// 002   ----------------------------------------
 BYTE   N24  Cn1
 BYTE   W24
 BYTE   N06
 BYTE   W06
 BYTE   N12  Gn0
 BYTE   W12
 BYTE   N30  Gs0
 BYTE   W30
 BYTE   N06
 BYTE   W06
 BYTE   N06
 BYTE   W06
 BYTE   N12  Gs1
 BYTE   W12
// 003   ----------------------------------------
 BYTE   N06  Fn0
 BYTE   W06
 BYTE   N06
 BYTE   W06
 BYTE   Fn1
 BYTE   W06
 BYTE   Fn0
 BYTE   W06
 BYTE   Gn0
 BYTE   W06
 BYTE   N06
 BYTE   W06
 BYTE   Gn1
 BYTE   W06
 BYTE   Gn0
 BYTE   W06
 BYTE   Gs0
 BYTE   W06
 BYTE   N06
 BYTE   W06
 BYTE   Gs1
 BYTE   W06
 BYTE   Gs0
 BYTE   W06
 BYTE   As0
 BYTE   W06
 BYTE   N06
 BYTE   W06
 BYTE   As1
 BYTE   W06
 BYTE   As0
 BYTE   W06
// 004   ----------------------------------------
 BYTE   Gs0
 BYTE   W06
 BYTE   N06
 BYTE   W06
 BYTE   Gs1
 BYTE   W06
 BYTE   Gs0
 BYTE   W06
 BYTE   N06
 BYTE   W06
 BYTE   N06
 BYTE   W06
 BYTE   N12
 BYTE   W12
 BYTE   N06  As0
 BYTE   W06
 BYTE   N06
 BYTE   W06
 BYTE   As1
 BYTE   W06
 BYTE   As0
 BYTE   W06
 BYTE   N06
 BYTE   W06
 BYTE   As1
 BYTE   W06
 BYTE   Cn1
 BYTE   W06
 BYTE   As1
 BYTE   W06
// 005   ----------------------------------------
 BYTE   Cn1
 BYTE   W06
 BYTE   N06
 BYTE   W06
 BYTE   Cn2
 BYTE   W06
 BYTE   Cn1
 BYTE   W06
 BYTE   Gn1
 BYTE   W06
 BYTE   Cn2
 BYTE   W06
 BYTE   Cn1
 BYTE   W06
 BYTE   N06
 BYTE   W06
 BYTE   N06
 BYTE   W06
 BYTE   N06
 BYTE   W06
 BYTE   Cn2
 BYTE   W06
 BYTE   Cn1
 BYTE   W06
 BYTE   Gn1
 BYTE   W06
 BYTE   Cn2
 BYTE   W06
 BYTE   Cn1
 BYTE   W06
 BYTE   N06
 BYTE   W06
// 006   ----------------------------------------
 BYTE   N06
 BYTE   W06
 BYTE   N06
 BYTE   W06
 BYTE   Cn2
 BYTE   W06
 BYTE   Cn1
 BYTE   W06
 BYTE   Gn1
 BYTE   W06
 BYTE   Cn2
 BYTE   W06
 BYTE   Cn1
 BYTE   W06
 BYTE   N06
 BYTE   W06
 BYTE   Fn0
 BYTE   W06
 BYTE   N06
 BYTE   W06
 BYTE   Gn0
 BYTE   W06
 BYTE   N06
 BYTE   W06
 BYTE   Gs0
 BYTE   W06
 BYTE   N06
 BYTE   W06
 BYTE   As0
 BYTE   W06
 BYTE   N06
 BYTE   W06
// 007   ----------------------------------------
 BYTE   Cn1
 BYTE   W06
 BYTE   N06
 BYTE   W06
 BYTE   Cn2
 BYTE   W06
 BYTE   Cn1
 BYTE   W06
 BYTE   Gn1
 BYTE   W06
 BYTE   Cn2
 BYTE   W06
 BYTE   Cn1
 BYTE   W06
 BYTE   N06
 BYTE   W06
 BYTE   N06
 BYTE   W06
 BYTE   N06
 BYTE   W06
 BYTE   Cn2
 BYTE   W06
 BYTE   Cn1
 BYTE   W06
 BYTE   Gn1
 BYTE   W06
 BYTE   Cn2
 BYTE   W06
 BYTE   Cn1
 BYTE   W06
 BYTE   N06
 BYTE   W06
// 008   ----------------------------------------
 BYTE   N06
 BYTE   W06
 BYTE   N06
 BYTE   W06
 BYTE   Cn2
 BYTE   W06
 BYTE   Cn1
 BYTE   W06
 BYTE   Gn1
 BYTE   W06
 BYTE   Cn2
 BYTE   W06
 BYTE   Cn1
 BYTE   W06
 BYTE   N06
 BYTE   W06
 BYTE   Gs0
 BYTE   W06
 BYTE   Gn0
 BYTE   W06
 BYTE   Fn0
 BYTE   W06
 BYTE   As0
 BYTE   W06
 BYTE   Gs0
 BYTE   W06
 BYTE   Gn0
 BYTE   W06
 BYTE   N12  Fn0
 BYTE   W12
// 009   ----------------------------------------
 BYTE   N06  Gs0
 BYTE   W06
 BYTE   N06
 BYTE   W06
 BYTE   Gs1
 BYTE   W06
 BYTE   Gs0
 BYTE   W06
 BYTE   Fn1
 BYTE   W06
 BYTE   As0
 BYTE   W06
 BYTE   Gs1
 BYTE   W06
 BYTE   Gs0
 BYTE   W06
 BYTE   As0
 BYTE   W06
 BYTE   N06
 BYTE   W06
 BYTE   As1
 BYTE   W06
 BYTE   As0
 BYTE   W06
 BYTE   Gs1
 BYTE   W06
 BYTE   As1
 BYTE   W06
 BYTE   N12  As0
 BYTE   W12
// 010   ----------------------------------------
 BYTE   N06  Cn1
 BYTE   W06
 BYTE   N06
 BYTE   W06
 BYTE   As0
 BYTE   W06
 BYTE   Cn1
 BYTE   W12
 BYTE   N06
 BYTE   W12
 BYTE   N54
 BYTE   W06
 BYTE   W48
// 011   ----------------------------------------
 BYTE   N18  Gs0
 BYTE   W18
 BYTE   N06
 BYTE   W06
 BYTE   N06
 BYTE   W06
 BYTE   N06
 BYTE   W06
 BYTE   Gs1
 BYTE   W06
 BYTE   Gs0
 BYTE   W06
 BYTE   N18  Gn0
 BYTE   W18
 BYTE   N06
 BYTE   W06
 BYTE   N06
 BYTE   W06
 BYTE   N06
 BYTE   W06
 BYTE   Gn1
 BYTE   W06
 BYTE   Gn0
 BYTE   W06
// 012   ----------------------------------------
 BYTE   N18  Fn0
 BYTE   W18
 BYTE   N06
 BYTE   W06
 BYTE   N06
 BYTE   W06
 BYTE   N06
 BYTE   W06
 BYTE   Fn1
 BYTE   W06
 BYTE   Fn0
 BYTE   W06
 BYTE   N18
 BYTE   W18
 BYTE   N06
 BYTE   W06
 BYTE   N06
 BYTE   W06
 BYTE   N06
 BYTE   W06
 BYTE   Fn1
 BYTE   W06
 BYTE   Fn0
 BYTE   W06
// 013   ----------------------------------------
 BYTE   N18  An0
 BYTE   W18
 BYTE   N06
 BYTE   W06
 BYTE   N06
 BYTE   W06
 BYTE   N06
 BYTE   W06
 BYTE   An1
 BYTE   W06
 BYTE   An0
 BYTE   W06
 BYTE   N18  Gn0
 BYTE   W18
 BYTE   N06
 BYTE   W06
 BYTE   N06
 BYTE   W06
 BYTE   N06
 BYTE   W06
 BYTE   Gn1
 BYTE   W06
 BYTE   Gn0
 BYTE   W06
// 014   ----------------------------------------
 BYTE   N18  Fn0
 BYTE   W18
 BYTE   N06
 BYTE   W06
 BYTE   N06
 BYTE   W06
 BYTE   N06
 BYTE   W06
 BYTE   Fn1
 BYTE   W06
 BYTE   Fn0
 BYTE   W06
 BYTE   N18
 BYTE   W18
 BYTE   N06
 BYTE   W06
 BYTE   N06
 BYTE   W06
 BYTE   N06
 BYTE   W06
 BYTE   Fn1
 BYTE   W06
 BYTE   Fn0
 BYTE   W06
// 015   ----------------------------------------
 BYTE   N18  Gs0
 BYTE   W18
 BYTE   N06
 BYTE   W06
 BYTE   N06
 BYTE   W06
 BYTE   N06
 BYTE   W06
 BYTE   Gs1
 BYTE   W06
 BYTE   Gs0
 BYTE   W06
 BYTE   N18  Gn0
 BYTE   W18
 BYTE   N06
 BYTE   W06
 BYTE   N06
 BYTE   W06
 BYTE   N06
 BYTE   W06
 BYTE   Gn1
 BYTE   W06
 BYTE   Gn0
 BYTE   W06
// 016   ----------------------------------------
 BYTE   N18  Fn0
 BYTE   W18
 BYTE   N06
 BYTE   W06
 BYTE   N06
 BYTE   W06
 BYTE   N06
 BYTE   W06
 BYTE   Fn1
 BYTE   W06
 BYTE   Fn0
 BYTE   W06
 BYTE   N18
 BYTE   W18
 BYTE   N06
 BYTE   W06
 BYTE   N06
 BYTE   W06
 BYTE   N06
 BYTE   W06
 BYTE   Fn1
 BYTE   W06
 BYTE   Fn0
 BYTE   W06
// 017   ----------------------------------------
 BYTE   N18  An0
 BYTE   W18
 BYTE   N06
 BYTE   W06
 BYTE   N06
 BYTE   W06
 BYTE   N12
 BYTE   W12
 BYTE   N06
 BYTE   W06
 BYTE   N18  Gn0
 BYTE   W18
 BYTE   N06
 BYTE   W06
 BYTE   N06
 BYTE   W06
 BYTE   N12
 BYTE   W12
 BYTE   N06
 BYTE   W06
// 018   ----------------------------------------
 BYTE   N18  Fn0
 BYTE   W18
 BYTE   N06
 BYTE   W06
 BYTE   N06
 BYTE   W06
 BYTE   N06
 BYTE   W06
 BYTE   Fn1
 BYTE   W06
 BYTE   Fn0
 BYTE   W06
 BYTE   N06
 BYTE   W06
 BYTE   N06
 BYTE   W06
 BYTE   Fn1
 BYTE   W06
 BYTE   Fn0
 BYTE   W06
 BYTE   Dn1
 BYTE   W06
 BYTE   Fn1
 BYTE   W06
 BYTE   Fn0
 BYTE   W06
 BYTE   N06
 BYTE   W06
// 019   ----------------------------------------
 BYTE   GoTo
  POIN2 Label_3_0104EFBA
 BYTE   FINE

//**************** Track 5 (Midi-Chn.4) ****************//

songFullForce_005:
// 000   ----------------------------------------
 BYTE   KEYSH   songFullForce_key+0
Label_4_0104F1D2:
 BYTE   VOICE   62
 BYTE   VOL   42*songFullForce_mvl/mxv
 BYTE   MODT 0
 BYTE   CnM2
 BYTE   LFOS 0
 BYTE   Gs1
 BYTE   VOL   80*songFullForce_mvl/mxv
 BYTE   PAN   c_v+0
 BYTE   VOL   54*songFullForce_mvl/mxv
 BYTE   N42  Cn2  v127
 BYTE   W42
 BYTE   N54  Gs1
 BYTE   W30
 BYTE   W24
// 001   ----------------------------------------
 BYTE   N24  Cn1
 BYTE   W24
 BYTE   Dn1
 BYTE   W24
 BYTE   Ds1
 BYTE   W24
 BYTE   Fn1
 BYTE   W24
// 002   ----------------------------------------
 BYTE   N42  Cn2
 BYTE   W24
 BYTE   W18
 BYTE   N54  Gs1
 BYTE   W54
// 003   ----------------------------------------
 BYTE   N24  Cn1
 BYTE   W24
 BYTE   Dn1
 BYTE   W24
 BYTE   Ds1
 BYTE   W24
 BYTE   Fn1
 BYTE   W24
// 004   ----------------------------------------
 BYTE   N48  Ds1
 BYTE   W48
 BYTE   Fn1
 BYTE   W48
// 005   ----------------------------------------
 BYTE   N96  Cn2
 BYTE   W24
 BYTE   W72
// 006   ----------------------------------------
 BYTE   N48
 BYTE   W48
 BYTE   N24  Cn1
 BYTE   W24
 BYTE   Ds1
 BYTE   W24
// 007   ----------------------------------------
 BYTE   N96  Cn2
 BYTE   W48
 BYTE   W48
// 008   ----------------------------------------
 BYTE   N48  Gn1
 BYTE   W24
 BYTE   W24
 BYTE   N24  Ds1
 BYTE   W24
 BYTE   As1
 BYTE   W24
// 009   ----------------------------------------
 BYTE   N48  Ds1
 BYTE   W48
 BYTE   Fn1
 BYTE   W24
 BYTE   W24
// 010   ----------------------------------------
 BYTE   Cn2
 BYTE   W48
 BYTE   Gn1
 BYTE   W48
// 011   ----------------------------------------
 BYTE   Ds1
 BYTE   W24
 BYTE   W24
 BYTE   Gn1
 BYTE   W48
// 012   ----------------------------------------
Label_4_0104F22D:
 BYTE   N48  Cn1  v127
 BYTE   W48
 BYTE   N48
 BYTE   W24
 BYTE   PEND 
 BYTE   W24
// 013   ----------------------------------------
 BYTE   En1
 BYTE   W48
 BYTE   Dn1
 BYTE   W48
// 014   ----------------------------------------
 BYTE   Cn1
 BYTE   W24
 BYTE   W24
 BYTE   N48
 BYTE   W48
// 015   ----------------------------------------
 BYTE   Ds1
 BYTE   W48
 BYTE   Gn1
 BYTE   W24
 BYTE   W24
// 016   ----------------------------------------
 BYTE   Cn1
 BYTE   W48
 BYTE   N48
 BYTE   W48
// 017   ----------------------------------------
 BYTE   En1
 BYTE   W24
 BYTE   W24
 BYTE   Dn1
 BYTE   W48
 BYTE   PATT
  POIN2 Label_4_0104F22D
// 018   ----------------------------------------
 BYTE   W24
 BYTE   GoTo
  POIN2 Label_4_0104F1D2
 BYTE   FINE

//**************** Track 6 (Midi-Chn.5) ****************//

songFullForce_006:
// 000   ----------------------------------------
 BYTE   KEYSH   songFullForce_key+0
Label_5_0104F25A:
 BYTE   VOICE   62
 BYTE   VOL   42*songFullForce_mvl/mxv
 BYTE   MODT 0
 BYTE   CnM2
 BYTE   LFOS 0
 BYTE   Gs1
 BYTE   VOL   80*songFullForce_mvl/mxv
 BYTE   PAN   c_v+0
 BYTE   VOL   54*songFullForce_mvl/mxv
 BYTE   N42  Gn1  v127
 BYTE   W42
 BYTE   N54  Ds1
 BYTE   W30
 BYTE   W24
// 001   ----------------------------------------
 BYTE   N24  Fn1
 BYTE   W24
 BYTE   Gn1
 BYTE   W24
 BYTE   Gs1
 BYTE   W24
 BYTE   As1
 BYTE   W24
// 002   ----------------------------------------
 BYTE   N42  Gn1
 BYTE   W24
 BYTE   W18
 BYTE   N54  Ds1
 BYTE   W54
// 003   ----------------------------------------
 BYTE   N24  Fn1
 BYTE   W24
 BYTE   Gn1
 BYTE   W24
 BYTE   Gs1
 BYTE   W24
 BYTE   As1
 BYTE   W24
// 004   ----------------------------------------
 BYTE   N48  Gs1
 BYTE   W48
 BYTE   As1
 BYTE   W48
// 005   ----------------------------------------
 BYTE   N96  Gn1
 BYTE   W24
 BYTE   W72
// 006   ----------------------------------------
 BYTE   N48
 BYTE   W48
 BYTE   N24  Fn1
 BYTE   W24
 BYTE   Gs1
 BYTE   W24
// 007   ----------------------------------------
 BYTE   N96  Gn1
 BYTE   W48
 BYTE   W48
// 008   ----------------------------------------
 BYTE   N48  Cn2
 BYTE   W24
 BYTE   W24
 BYTE   N24  Gs1
 BYTE   W24
 BYTE   Fn1
 BYTE   W24
// 009   ----------------------------------------
 BYTE   N48  Gs1
 BYTE   W48
 BYTE   As1
 BYTE   W24
 BYTE   W24
// 010   ----------------------------------------
 BYTE   Gn1
 BYTE   W48
 BYTE   Cn2
 BYTE   W48
// 011   ----------------------------------------
 BYTE   Gs1
 BYTE   W24
 BYTE   W24
 BYTE   Dn1
 BYTE   W48
// 012   ----------------------------------------
Label_5_0104F2B5:
 BYTE   N48  Fn1  v127
 BYTE   W48
 BYTE   N48
 BYTE   W24
 BYTE   PEND 
 BYTE   W24
// 013   ----------------------------------------
 BYTE   An1
 BYTE   W48
 BYTE   Gn1
 BYTE   W48
// 014   ----------------------------------------
 BYTE   Fn1
 BYTE   W24
 BYTE   W24
 BYTE   N48
 BYTE   W48
// 015   ----------------------------------------
 BYTE   Gs1
 BYTE   W48
 BYTE   Dn1
 BYTE   W24
 BYTE   W24
// 016   ----------------------------------------
 BYTE   Fn1
 BYTE   W48
 BYTE   N48
 BYTE   W48
// 017   ----------------------------------------
 BYTE   An1
 BYTE   W24
 BYTE   W24
 BYTE   Gn1
 BYTE   W48
 BYTE   PATT
  POIN2 Label_5_0104F2B5
// 018   ----------------------------------------
 BYTE   W24
 BYTE   GoTo
  POIN2 Label_5_0104F25A
 BYTE   FINE

//**************** Track 7 (Midi-Chn.6) ****************//

songFullForce_007:
// 000   ----------------------------------------
 BYTE   KEYSH   songFullForce_key+0
Label_6_0104F2E2:
 BYTE   VOICE   73
 BYTE   VOL   60*songFullForce_mvl/mxv
 BYTE   MODT 0
 BYTE   CnM2
 BYTE   LFOS 0
 BYTE   Gs1
 BYTE   VOL   80*songFullForce_mvl/mxv
 BYTE   PAN   c_v+0
 BYTE   VOL   80*songFullForce_mvl/mxv
 BYTE   W72
 BYTE   W72
// 001   ----------------------------------------
 BYTE   W72
 BYTE   W72
// 002   ----------------------------------------
 BYTE   W72
 BYTE   W72
// 003   ----------------------------------------
 BYTE   W72
 BYTE   W72
// 004   ----------------------------------------
 BYTE   W72
 BYTE   W72
// 005   ----------------------------------------
 BYTE   W72
 BYTE   W72
// 006   ----------------------------------------
 BYTE   W72
 BYTE   W72
// 007   ----------------------------------------
 BYTE   W48
 BYTE   N48  En4  v127
 BYTE   W24
 BYTE   W24
// 008   ----------------------------------------
 BYTE   N18  Dn4
 BYTE   W18
 BYTE   En4
 BYTE   W18
 BYTE   N12  Fn4
 BYTE   W12
 BYTE   N18  En4
 BYTE   W18
 BYTE   An3
 BYTE   W18
 BYTE   N12  Gn3
 BYTE   W12
// 009   ----------------------------------------
 BYTE   N24  An3
 BYTE   W24
 BYTE   N06
 BYTE   W06
 BYTE   Bn3
 BYTE   W06
 BYTE   Cn4
 BYTE   W06
 BYTE   Dn4
 BYTE   W06
 BYTE   N24  En4
 BYTE   W24
 BYTE   An4
 BYTE   W24
// 010   ----------------------------------------
 BYTE   Bn4
 BYTE   W24
 BYTE   N08
 BYTE   W08
 BYTE   N07  An4
 BYTE   W07
 BYTE   N08  Gn4
 BYTE   W09
 BYTE   N48  An4
 BYTE   W24
 BYTE   W24
// 011   ----------------------------------------
 BYTE   N06  Gn4
 BYTE   W06
 BYTE   An4
 BYTE   W06
 BYTE   Fn4
 BYTE   W06
 BYTE   An4
 BYTE   W06
 BYTE   En4
 BYTE   W06
 BYTE   An4
 BYTE   W06
 BYTE   Dn4
 BYTE   W06
 BYTE   An4
 BYTE   W06
 BYTE   En4
 BYTE   W06
 BYTE   Dn4
 BYTE   W06
 BYTE   Cn4
 BYTE   W06
 BYTE   Fn4
 BYTE   W06
 BYTE   En4
 BYTE   W06
 BYTE   Dn4
 BYTE   W06
 BYTE   Cn4
 BYTE   W06
 BYTE   Bn3
 BYTE   W06
// 012   ----------------------------------------
 BYTE   An3
 BYTE   W06
 BYTE   Bn3
 BYTE   W06
 BYTE   Cn4
 BYTE   W06
 BYTE   Dn4
 BYTE   W06
 BYTE   Cn4
 BYTE   W06
 BYTE   Bn3
 BYTE   W06
 BYTE   An3
 BYTE   W06
 BYTE   Gn3
 BYTE   W06
 BYTE   N24  An3
 BYTE   W24
 BYTE   En4
 BYTE   W24
// 013   ----------------------------------------
 BYTE   Dn4
 BYTE   W24
 BYTE   Gn4
 BYTE   W24
 BYTE   N36  En4
 BYTE   W24
 BYTE   W12
 BYTE   N06  Dn4
 BYTE   W06
 BYTE   En4
 BYTE   W06
// 014   ----------------------------------------
 BYTE   N18  Gn4
 BYTE   W18
 BYTE   Fn4
 BYTE   W18
 BYTE   N12  En4
 BYTE   W12
 BYTE   N18  Dn4
 BYTE   W18
 BYTE   N06  En4
 BYTE   W06
 BYTE   N24  Cn4
 BYTE   W24
// 015   ----------------------------------------
 BYTE   N06
 BYTE   W12
 BYTE   An4
 BYTE   W12
 BYTE   Bn4
 BYTE   W06
 BYTE   An4
 BYTE   W06
 BYTE   Gn4
 BYTE   W06
 BYTE   Fn4
 BYTE   W06
 BYTE   GoTo
  POIN2 Label_6_0104F2E2
 BYTE   FINE

//**************** Track 8 (Midi-Chn.7) ****************//

songFullForce_008:
// 000   ----------------------------------------
 BYTE   KEYSH   songFullForce_key+0
Label_7_0104F39A:
 BYTE   VOICE   127
 BYTE   VOL   47*songFullForce_mvl/mxv
 BYTE   MODT 0
 BYTE   CnM2
 BYTE   LFOS 0
 BYTE   Gs1
 BYTE   VOL   80*songFullForce_mvl/mxv
 BYTE   PAN   c_v+0
 BYTE   VOL   47*songFullForce_mvl/mxv
 BYTE   MODT 0
 BYTE   CnM2
 BYTE   LFOS 0
 BYTE   Gs1
 BYTE   VOL   80*songFullForce_mvl/mxv
 BYTE   PAN   c_v+0
 BYTE   VOL   47*songFullForce_mvl/mxv
 BYTE   MODT 0
 BYTE   CnM2
 BYTE   LFOS 0
 BYTE   Gs1
 BYTE   VOL   80*songFullForce_mvl/mxv
 BYTE   PAN   c_v+0
 BYTE   VOL   47*songFullForce_mvl/mxv
 BYTE   N06  Cn1  v127
 BYTE   N06  Cs2
 BYTE   N03  An2
 BYTE   W12
 BYTE   N06  Dn1
 BYTE   N06  Ds2
 BYTE   W12
 BYTE   Cn1
 BYTE   N06  Ds2
 BYTE   W06
 BYTE   Dn1
 BYTE   W06
 BYTE   Ds2
 BYTE   W06
 BYTE   Cn1
 BYTE   N06  Cs2
 BYTE   N03  An2
 BYTE   W12
 BYTE   N06  Cn1
 BYTE   W06
 BYTE   Dn1
 BYTE   N06  Ds2
 BYTE   W12
 BYTE   Cn1
 BYTE   N06  Ds2
 BYTE   W12
 BYTE   Dn1
 BYTE   N06  Ds2
 BYTE   W12
// 001   ----------------------------------------
 BYTE   Cn1
 BYTE   N06  Ds2
 BYTE   W12
 BYTE   Dn1
 BYTE   N06  Ds2
 BYTE   W12
 BYTE   Cn1
 BYTE   N06  Ds2
 BYTE   W06
 BYTE   Cn1
 BYTE   W06
 BYTE   Dn1
 BYTE   N06  Ds2
 BYTE   W06
 BYTE   Cn1
 BYTE   W06
 BYTE   N06
 BYTE   N06  Ds2
 BYTE   W06
 BYTE   Cn1
 BYTE   W06
 BYTE   Dn1
 BYTE   N06  Ds2
 BYTE   W06
 BYTE   Cn1
 BYTE   W06
 BYTE   Ds2
 BYTE   W06
 BYTE   Cn1
 BYTE   W06
 BYTE   Dn1
 BYTE   N06  Ds2
 BYTE   W12
// 002   ----------------------------------------
 BYTE   Cn1
 BYTE   N06  Cs2
 BYTE   N02  An2
 BYTE   W12
 BYTE   N06  Dn1
 BYTE   N06  Ds2
 BYTE   W12
 BYTE   Cn1
 BYTE   N06  Ds2
 BYTE   W06
 BYTE   Cn1
 BYTE   W06
 BYTE   Dn1
 BYTE   N06  Ds2
 BYTE   W06
 BYTE   Cn1
 BYTE   W06
 BYTE   N06
 BYTE   N06  Ds2
 BYTE   W06
 BYTE   Cn1
 BYTE   W06
 BYTE   Dn1
 BYTE   N06  Ds2
 BYTE   W06
 BYTE   Cn1
 BYTE   W06
 BYTE   Ds2
 BYTE   W06
 BYTE   Cn1
 BYTE   W06
 BYTE   Dn1
 BYTE   N06  Ds2
 BYTE   W12
// 003   ----------------------------------------
 BYTE   Cn1
 BYTE   N06  Ds2
 BYTE   W12
 BYTE   Dn1
 BYTE   N06  Ds2
 BYTE   W12
 BYTE   Cn1
 BYTE   N06  Ds2
 BYTE   W06
 BYTE   Cn1
 BYTE   W06
 BYTE   Dn1
 BYTE   N06  Ds2
 BYTE   W06
 BYTE   Cn1
 BYTE   W06
 BYTE   N06
 BYTE   N06  Ds2
 BYTE   W06
 BYTE   Cn1
 BYTE   W06
 BYTE   Dn1
 BYTE   N06  Ds2
 BYTE   W06
 BYTE   Cn1
 BYTE   W06
 BYTE   Ds2
 BYTE   W06
 BYTE   Cn1
 BYTE   W06
 BYTE   Dn1
 BYTE   N06  Ds2
 BYTE   W12
// 004   ----------------------------------------
 BYTE   Cn1
 BYTE   N06  Cs2
 BYTE   N02  An2
 BYTE   W12
 BYTE   N06  Dn1
 BYTE   N06  Ds2
 BYTE   W12
 BYTE   Cn1
 BYTE   N06  Ds2
 BYTE   W06
 BYTE   Cn1
 BYTE   W06
 BYTE   Dn1
 BYTE   N06  Ds2
 BYTE   W06
 BYTE   Cn1
 BYTE   W06
 BYTE   N06
 BYTE   N06  Ds2
 BYTE   W06
 BYTE   Cn1
 BYTE   W06
 BYTE   Dn1
 BYTE   N06  Ds2
 BYTE   W06
 BYTE   Cn1
 BYTE   W06
 BYTE   Ds2
 BYTE   W06
 BYTE   Cn1
 BYTE   W06
 BYTE   Dn1
 BYTE   N06  Ds2
 BYTE   W12
// 005   ----------------------------------------
 BYTE   Cn1
 BYTE   N06  Fs1
 BYTE   W06
 BYTE   N06
 BYTE   W06
 BYTE   Dn1
 BYTE   N06  Fs1
 BYTE   W06
 BYTE   Cn1
 BYTE   N06  As1
 BYTE   W06
 BYTE   W06
 BYTE   Dn1
 BYTE   N06  Fs1
 BYTE   W06
 BYTE   Cn1
 BYTE   N06  Fs1
 BYTE   W06
 BYTE   N06
 BYTE   W06
 BYTE   Cn1
 BYTE   N06  Fs1
 BYTE   W06
 BYTE   Cn1
 BYTE   N06  Fs1
 BYTE   W06
 BYTE   Dn1
 BYTE   N06  Fs1
 BYTE   W06
 BYTE   N06
 BYTE   W06
 BYTE   Cn1
 BYTE   N06  Fs1
 BYTE   W06
 BYTE   N06
 BYTE   W06
 BYTE   Dn1
 BYTE   N06  Fs1
 BYTE   W06
 BYTE   N06
 BYTE   W06
// 006   ----------------------------------------
 BYTE   Cn1
 BYTE   N06  Fs1
 BYTE   W06
 BYTE   N06
 BYTE   W06
 BYTE   Dn1
 BYTE   N06  Fs1
 BYTE   W06
 BYTE   Cn1
 BYTE   N06  As1
 BYTE   W06
 BYTE   Cn1
 BYTE   W06
 BYTE   Fs1
 BYTE   W06
 BYTE   Dn1
 BYTE   N06  Fs1
 BYTE   W06
 BYTE   N06
 BYTE   W06
 BYTE   N06
 BYTE   N06  Cn2
 BYTE   N03  An2
 BYTE   W06
 BYTE   N06  Cn2
 BYTE   W06
 BYTE   N06
 BYTE   W06
 BYTE   Bn1
 BYTE   W06
 BYTE   N06
 BYTE   W06
 BYTE   N06
 BYTE   W06
 BYTE   Dn1
 BYTE   N06  An1
 BYTE   W06
 BYTE   Dn1
 BYTE   N06  An1
 BYTE   W06
// 007   ----------------------------------------
 BYTE   Cn1
 BYTE   N06  Fs1
 BYTE   W06
 BYTE   N06
 BYTE   W06
 BYTE   Dn1
 BYTE   N06  Fs1
 BYTE   W06
 BYTE   As1
 BYTE   W06
 BYTE   Cn1
 BYTE   W06
 BYTE   N06
 BYTE   N06  Fs1
 BYTE   W06
 BYTE   Dn1
 BYTE   N06  Fs1
 BYTE   W06
 BYTE   N06
 BYTE   W06
 BYTE   Cn1
 BYTE   N06  Fs1
 BYTE   W06
 BYTE   N06
 BYTE   W06
 BYTE   Dn1
 BYTE   N06  Fs1
 BYTE   W06
 BYTE   N06
 BYTE   W06
 BYTE   Cn1
 BYTE   N06  Fs1
 BYTE   W06
 BYTE   Cn1
 BYTE   N06  Fs1
 BYTE   W06
 BYTE   Dn1
 BYTE   N06  Fs1
 BYTE   W06
 BYTE   N06
 BYTE   W06
// 008   ----------------------------------------
 BYTE   Cn1
 BYTE   N06  Fs1
 BYTE   W06
 BYTE   N06
 BYTE   W06
 BYTE   Dn1
 BYTE   N06  Fs1
 BYTE   W06
 BYTE   As1
 BYTE   W06
 BYTE   W06
 BYTE   Cn1
 BYTE   N06  Fs1
 BYTE   W06
 BYTE   Dn1
 BYTE   N06  Fs1
 BYTE   W06
 BYTE   N06
 BYTE   W06
 BYTE   N06
 BYTE   N06  Cn2
 BYTE   N03  An2
 BYTE   W06
 BYTE   N06  Cn2
 BYTE   W06
 BYTE   N06
 BYTE   W06
 BYTE   Bn1
 BYTE   W06
 BYTE   N06
 BYTE   W06
 BYTE   N06
 BYTE   W06
 BYTE   An1
 BYTE   W06
 BYTE   N06
 BYTE   W06
// 009   ----------------------------------------
 BYTE   Dn1
 BYTE   N06  Cs2
 BYTE   N02  An2
 BYTE   W06
 BYTE   N06  Cn1
 BYTE   W06
 BYTE   Dn1
 BYTE   N06  Ds2
 BYTE   W06
 BYTE   Cn1
 BYTE   W06
 BYTE   Dn1
 BYTE   N06  Ds2
 BYTE   W06
 BYTE   Cn1
 BYTE   W06
 BYTE   Dn1
 BYTE   N06  Ds2
 BYTE   W06
 BYTE   Cn1
 BYTE   W06
 BYTE   Ds2
 BYTE   W06
 BYTE   Cn1
 BYTE   W06
 BYTE   Dn1
 BYTE   N06  Ds2
 BYTE   W12
 BYTE   Cn1
 BYTE   N06  Ds2
 BYTE   W12
 BYTE   Dn1
 BYTE   N06  Ds2
 BYTE   W06
 BYTE   Cn1
 BYTE   W06
// 010   ----------------------------------------
 BYTE   Dn1
 BYTE   N06  Ds2
 BYTE   W06
 BYTE   Dn1
 BYTE   N06  Cs2
 BYTE   N02  An2
 BYTE   W06
 BYTE   N06  Cn1
 BYTE   W06
 BYTE   Dn1
 BYTE   W12
 BYTE   Cn1
 BYTE   W12
 BYTE   Dn1
 BYTE   W06
 BYTE   Cn1
 BYTE   W18
 BYTE   N06
 BYTE   W06
 BYTE   Cn2
 BYTE   W06
 BYTE   N06
 BYTE   W06
 BYTE   An1
 BYTE   W06
 BYTE   N06
 BYTE   W06
// 011   ----------------------------------------
 BYTE   Cn1
 BYTE   N06  Cs2
 BYTE   N02  An2
 BYTE   W12
 BYTE   N06  Dn1
 BYTE   N06  Ds2
 BYTE   W12
Label_7_0104F5A5:
 BYTE   N06  Cn1  v127
 BYTE   N06  Ds2
 BYTE   W06
 BYTE   Cn1
 BYTE   W06
 BYTE   Dn1
 BYTE   N06  Ds2
 BYTE   W12
 BYTE   Cn1
 BYTE   N06  Ds2
 BYTE   W12
 BYTE   Dn1
 BYTE   N06  Ds2
 BYTE   W12
 BYTE   Cn1
 BYTE   N06  Ds2
 BYTE   W06
 BYTE   Cn1
 BYTE   W06
 BYTE   Dn1
 BYTE   N06  Ds2
 BYTE   W12
 BYTE   PEND 
// 012   ----------------------------------------
Label_7_0104F5C4:
 BYTE   N06  Cn1  v127
 BYTE   N06  Ds2
 BYTE   W12
 BYTE   Dn1
 BYTE   N06  Ds2
 BYTE   W12
 BYTE   Cn1
 BYTE   N06  Ds2
 BYTE   W06
 BYTE   Cn1
 BYTE   W06
 BYTE   Dn1
 BYTE   N06  Ds2
 BYTE   W12
 BYTE   Cn1
 BYTE   N06  Ds2
 BYTE   W12
 BYTE   Dn1
 BYTE   N06  Ds2
 BYTE   W12
 BYTE   PEND 
 BYTE   Cn1
 BYTE   N06  Ds2
 BYTE   W06
 BYTE   Cn1
 BYTE   W06
 BYTE   Dn1
 BYTE   N06  Ds2
 BYTE   W06
 BYTE   Dn1
 BYTE   W06
// 013   ----------------------------------------
 BYTE   Cn1
 BYTE   N06  Ds2
 BYTE   W12
 BYTE   Dn1
 BYTE   N06  Ds2
 BYTE   W12
 BYTE   Cn1
 BYTE   N06  Ds2
 BYTE   W06
 BYTE   Cn1
 BYTE   W06
 BYTE   Dn1
 BYTE   N06  Ds2
 BYTE   W12
 BYTE   PATT
  POIN2 Label_7_0104F5C4
// 014   ----------------------------------------
 BYTE   N06  Cn1  v127
 BYTE   N06  Ds2
 BYTE   W06
 BYTE   Cn1
 BYTE   W06
 BYTE   Dn1
 BYTE   N06  Ds2
 BYTE   W12
 BYTE   Cn1
 BYTE   N06  Ds2
 BYTE   W12
 BYTE   Dn1
 BYTE   N06  Cs2
 BYTE   N06  Ds2
 BYTE   W06
 BYTE   Cn1
 BYTE   W06
 BYTE   Dn1
 BYTE   W06
 BYTE   N06
 BYTE   W06
 BYTE   N06
 BYTE   W06
 BYTE   N06
 BYTE   W06
 BYTE   PATT
  POIN2 Label_7_0104F5C4
 BYTE   PATT
  POIN2 Label_7_0104F5A5
// 015   ----------------------------------------
 BYTE   N06  Cn1  v127
 BYTE   N06  Ds2
 BYTE   W12
 BYTE   Dn1
 BYTE   N06  Ds2
 BYTE   W12
 BYTE   Cn1
 BYTE   N06  Ds2
 BYTE   W06
 BYTE   Cn1
 BYTE   W06
 BYTE   Dn1
 BYTE   N06  Ds2
 BYTE   W06
 BYTE   Dn1
 BYTE   W06
 BYTE   Cn1
 BYTE   N06  Ds2
 BYTE   W12
 BYTE   Dn1
 BYTE   N06  Ds2
 BYTE   W12
 BYTE   PATT
  POIN2 Label_7_0104F5A5
// 016   ----------------------------------------
 BYTE   N06  Cn1  v127
 BYTE   N06  Ds2
 BYTE   W12
 BYTE   Dn1
 BYTE   N06  Ds2
 BYTE   W12
 BYTE   Cn1
 BYTE   N06  Ds2
 BYTE   W06
 BYTE   Cn1
 BYTE   W06
 BYTE   Dn1
 BYTE   N06  Ds2
 BYTE   W12
 BYTE   Cn1
 BYTE   N06  Ds2
 BYTE   W12
 BYTE   Dn1
 BYTE   N06  Cs2
 BYTE   N06  Ds2
 BYTE   W06
 BYTE   Cn1
 BYTE   W06
 BYTE   Dn1
 BYTE   W06
 BYTE   N06
 BYTE   W06
 BYTE   N06
 BYTE   W06
 BYTE   N06
 BYTE   W06
// 017   ----------------------------------------
 BYTE   GoTo
  POIN2 Label_7_0104F39A
 BYTE   FINE

//******************************************************//
	ALIGN 4

songFullForce:
	BYTE	8	// NumTrks
	BYTE	0	// NumBlks
	BYTE	songFullForce_pri	// Priority
	BYTE	songFullForce_rev	// Reverb.
    
	POIN2	songFullForce_grp
    
	POIN2	songFullForce_001
	POIN2	songFullForce_002
	POIN2	songFullForce_003
	POIN2	songFullForce_004
	POIN2	songFullForce_005
	POIN2	songFullForce_006
	POIN2	songFullForce_007
	POIN2	songFullForce_008

	
