//Event file generated from Sappy .s format.
	#include "MPlayDef.event"

	#define	GoodSong_grp  voicegroup000
	#define	GoodSong_pri  0
	#define	GoodSong_rev  0
	#define	GoodSong_mvl  127
	#define	GoodSong_key  0
	#define	GoodSong_tbs  1
	#define	GoodSong_exg  0
	#define	GoodSong_cmp  1

	// .rodata
	//	song14
	ALIGN 4


//**************** Track 1 (Midi-Chn.0) ****************//

GoodSong_001:
// 000   ----------------------------------------
 BYTE   KEYSH   GoodSong_key+0
GoodSong_Label_0_0145133E:
 BYTE   TEMPO   138*GoodSong_tbs/2
 BYTE   VOICE   10
 BYTE   MODT 0
 BYTE   CnM2
 BYTE   LFOS 0
 BYTE   Gs1
 BYTE   VOL   40*GoodSong_mvl/mxv
 BYTE   PAN   c_v+0
 BYTE   VOL   40*GoodSong_mvl/mxv
 BYTE   PAN   c_v+0
 BYTE   N66  An3  v100
 BYTE   W72
 BYTE   N20  Cn4
 BYTE   W24
// 001   ----------------------------------------
GoodSong_Label_0_01451355:
 BYTE   N66  Dn4  v100
 BYTE   W72
 BYTE   N20  En4
 BYTE   W24
 BYTE   PEND 
// 002   ----------------------------------------
 BYTE   N90  Dn4
 BYTE   W96
// 003   ----------------------------------------
 BYTE   W96
// 004   ----------------------------------------
GoodSong_Label_0_01451361:
 BYTE   N66  An3  v100
 BYTE   W72
 BYTE   N20  Cn4
 BYTE   W24
 BYTE   PEND 
 BYTE   PATT
  POIN2 GoodSong_Label_0_01451355
// 005   ----------------------------------------
 BYTE   N90  Dn4  v100
 BYTE   W96
// 006   ----------------------------------------
 BYTE   W96
// 007   ----------------------------------------
 BYTE   W96
// 008   ----------------------------------------
 BYTE   W96
// 009   ----------------------------------------
 BYTE   W96
// 010   ----------------------------------------
 BYTE   W96
// 011   ----------------------------------------
 BYTE   W96
// 012   ----------------------------------------
 BYTE   W96
// 013   ----------------------------------------
 BYTE   W96
// 014   ----------------------------------------
 BYTE   W96
 BYTE   PATT
  POIN2 GoodSong_Label_0_01451361
 BYTE   PATT
  POIN2 GoodSong_Label_0_01451355
// 015   ----------------------------------------
 BYTE   N90  Dn4  v100
 BYTE   W96
// 016   ----------------------------------------
 BYTE   W96
 BYTE   PATT
  POIN2 GoodSong_Label_0_01451361
// 017   ----------------------------------------
GoodSong_Label_0_0145138F:
 BYTE   N66  Dn4  v100
 BYTE   W72
 BYTE   N20  Gn4
 BYTE   W24
 BYTE   PEND 
// 018   ----------------------------------------
 BYTE   N90  Dn4
 BYTE   W96
// 019   ----------------------------------------
 BYTE   W96
// 020   ----------------------------------------
 BYTE   W96
// 021   ----------------------------------------
 BYTE   W96
// 022   ----------------------------------------
 BYTE   W96
// 023   ----------------------------------------
 BYTE   W96
// 024   ----------------------------------------
 BYTE   W96
// 025   ----------------------------------------
 BYTE   W96
// 026   ----------------------------------------
 BYTE   W96
// 027   ----------------------------------------
 BYTE   W96
// 028   ----------------------------------------
 BYTE   W96
// 029   ----------------------------------------
 BYTE   W96
// 030   ----------------------------------------
 BYTE   W96
// 031   ----------------------------------------
 BYTE   W96
// 032   ----------------------------------------
 BYTE   W96
// 033   ----------------------------------------
 BYTE   W96
// 034   ----------------------------------------
 BYTE   W96
// 035   ----------------------------------------
 BYTE   W96
 BYTE   PATT
  POIN2 GoodSong_Label_0_01451361
 BYTE   PATT
  POIN2 GoodSong_Label_0_01451355
// 036   ----------------------------------------
 BYTE   N90  Dn4  v100
 BYTE   W96
// 037   ----------------------------------------
 BYTE   W96
 BYTE   PATT
  POIN2 GoodSong_Label_0_01451361
 BYTE   PATT
  POIN2 GoodSong_Label_0_0145138F
// 038   ----------------------------------------
 BYTE   N90  Dn4  v100
 BYTE   W96
// 039   ----------------------------------------
 BYTE   W96
// 040   ----------------------------------------
 BYTE   W96
// 041   ----------------------------------------
 BYTE   W96
// 042   ----------------------------------------
 BYTE   W96
// 043   ----------------------------------------
 BYTE   W96
// 044   ----------------------------------------
 BYTE   W96
// 045   ----------------------------------------
 BYTE   GoTo
  POIN2 GoodSong_Label_0_0145133E
// 046   ----------------------------------------
 BYTE   W90
 BYTE   FINE

//**************** Track 2 (Midi-Chn.1) ****************//

GoodSong_002:
// 000   ----------------------------------------
 BYTE   KEYSH   GoodSong_key+0
GoodSong_Label_1_014513DA:
 BYTE   VOICE   28
 BYTE   MODT 0
 BYTE   CnM2
 BYTE   LFOS 0
 BYTE   Gs1
 BYTE   VOL   40*GoodSong_mvl/mxv
 BYTE   PAN   c_v+0
 BYTE   VOL   40*GoodSong_mvl/mxv
 BYTE   PAN   c_v+0
 BYTE   N17  An1  v100
 BYTE   W18
 BYTE   N17
 BYTE   W18
 BYTE   N11  Gn1
 BYTE   W12
 BYTE   N32  An1
 BYTE   W36
 BYTE   N11  Gn1
 BYTE   W12
// 001   ----------------------------------------
GoodSong_Label_1_014513F7:
 BYTE   N17  An1  v100
 BYTE   W18
 BYTE   N17
 BYTE   W18
 BYTE   N11  Gn1
 BYTE   W12
 BYTE   N32  An1
 BYTE   W36
 BYTE   N11  Cn2
 BYTE   W12
 BYTE   PEND 
// 002   ----------------------------------------
GoodSong_Label_1_01451407:
 BYTE   N17  Dn2  v100
 BYTE   W18
 BYTE   N17
 BYTE   W18
 BYTE   N11  Cn2
 BYTE   W12
 BYTE   N32  Dn2
 BYTE   W36
 BYTE   N11  Cn2
 BYTE   W12
 BYTE   PEND 
// 003   ----------------------------------------
GoodSong_Label_1_01451417:
 BYTE   N17  Dn2  v100
 BYTE   W18
 BYTE   N17
 BYTE   W18
 BYTE   N11  Cn2
 BYTE   W12
 BYTE   Dn2
 BYTE   W12
 BYTE   En2
 BYTE   W12
 BYTE   Dn2
 BYTE   W12
 BYTE   Cn2
 BYTE   W12
 BYTE   PEND 
// 004   ----------------------------------------
GoodSong_Label_1_01451429:
 BYTE   N17  An1  v100
 BYTE   W18
 BYTE   N17
 BYTE   W18
 BYTE   N11  Gn1
 BYTE   W12
 BYTE   N32  An1
 BYTE   W36
 BYTE   N11  Gn1
 BYTE   W12
 BYTE   PEND 
 BYTE   PATT
  POIN2 GoodSong_Label_1_014513F7
 BYTE   PATT
  POIN2 GoodSong_Label_1_01451407
 BYTE   PATT
  POIN2 GoodSong_Label_1_01451417
// 005   ----------------------------------------
 BYTE   W96
// 006   ----------------------------------------
 BYTE   W96
// 007   ----------------------------------------
 BYTE   W96
// 008   ----------------------------------------
 BYTE   W96
// 009   ----------------------------------------
 BYTE   W96
// 010   ----------------------------------------
 BYTE   W96
// 011   ----------------------------------------
 BYTE   W96
// 012   ----------------------------------------
 BYTE   W84
 BYTE   N11  Gn1  v100
 BYTE   W12
 BYTE   PATT
  POIN2 GoodSong_Label_1_01451429
 BYTE   PATT
  POIN2 GoodSong_Label_1_014513F7
 BYTE   PATT
  POIN2 GoodSong_Label_1_01451407
 BYTE   PATT
  POIN2 GoodSong_Label_1_01451417
 BYTE   PATT
  POIN2 GoodSong_Label_1_01451429
 BYTE   PATT
  POIN2 GoodSong_Label_1_014513F7
 BYTE   PATT
  POIN2 GoodSong_Label_1_01451407
 BYTE   PATT
  POIN2 GoodSong_Label_1_01451417
// 013   ----------------------------------------
 BYTE   W96
// 014   ----------------------------------------
 BYTE   W96
// 015   ----------------------------------------
 BYTE   W96
// 016   ----------------------------------------
 BYTE   W96
// 017   ----------------------------------------
 BYTE   W96
// 018   ----------------------------------------
 BYTE   W96
// 019   ----------------------------------------
 BYTE   W96
// 020   ----------------------------------------
 BYTE   W24
 BYTE   N03  En1  v100
 BYTE   N03  Bn1
 BYTE   N03  En2
 BYTE   W12
 BYTE   En1
 BYTE   N03  Bn1
 BYTE   N03  En2
 BYTE   W12
 BYTE   En1
 BYTE   N03  Bn1
 BYTE   N03  En2
 BYTE   W12
 BYTE   En1
 BYTE   N03  Bn1
 BYTE   N03  En2
 BYTE   W12
 BYTE   En1
 BYTE   N03  Bn1
 BYTE   N03  En2
 BYTE   W12
 BYTE   En1
 BYTE   N03  Bn1
 BYTE   N03  En2
 BYTE   W12
// 021   ----------------------------------------
 BYTE   W96
// 022   ----------------------------------------
 BYTE   W96
// 023   ----------------------------------------
 BYTE   W96
// 024   ----------------------------------------
 BYTE   W96
// 025   ----------------------------------------
 BYTE   W96
// 026   ----------------------------------------
 BYTE   W96
// 027   ----------------------------------------
 BYTE   W96
// 028   ----------------------------------------
 BYTE   W84
 BYTE   N11  Gn1
 BYTE   W12
 BYTE   PATT
  POIN2 GoodSong_Label_1_01451429
 BYTE   PATT
  POIN2 GoodSong_Label_1_014513F7
 BYTE   PATT
  POIN2 GoodSong_Label_1_01451407
 BYTE   PATT
  POIN2 GoodSong_Label_1_01451417
 BYTE   PATT
  POIN2 GoodSong_Label_1_01451429
 BYTE   PATT
  POIN2 GoodSong_Label_1_014513F7
 BYTE   PATT
  POIN2 GoodSong_Label_1_01451407
 BYTE   PATT
  POIN2 GoodSong_Label_1_01451417
// 029   ----------------------------------------
 BYTE   N11  An2  v100
 BYTE   W12
 BYTE   Gn2
 BYTE   W12
 BYTE   En2
 BYTE   W12
 BYTE   N20  Gn2
 BYTE   W24
 BYTE   N11  Dn2
 BYTE   W12
 BYTE   En2
 BYTE   W12
 BYTE   Dn2
 BYTE   W12
// 030   ----------------------------------------
 BYTE   Cn2
 BYTE   W12
 BYTE   N20  Dn2
 BYTE   W24
 BYTE   N11  An1
 BYTE   W12
 BYTE   Cn2
 BYTE   W12
 BYTE   An1
 BYTE   W12
 BYTE   En1
 BYTE   W12
 BYTE   TIE  Gn1
 BYTE   W12
// 031   ----------------------------------------
 BYTE   W96
// 032   ----------------------------------------
 BYTE   W66
 BYTE   EOT
 BYTE   W06
 BYTE   N11
 BYTE   W12
 BYTE   N11
 BYTE   W12
// 033   ----------------------------------------
 BYTE   N11
 BYTE   W12
 BYTE   N20  An1
 BYTE   W24
 BYTE   N11  Gn1
 BYTE   W12
 BYTE   N20  An1
 BYTE   W24
 BYTE   N11  Gn1
 BYTE   W12
 BYTE   An1
 BYTE   W12
// 034   ----------------------------------------
 BYTE   GoTo
  POIN2 GoodSong_Label_1_014513DA
// 035   ----------------------------------------
 BYTE   W90
 BYTE   FINE

//**************** Track 3 (Midi-Chn.2) ****************//

GoodSong_003:
// 000   ----------------------------------------
 BYTE   KEYSH   GoodSong_key+0
GoodSong_Label_2_01451522:
 BYTE   VOICE   30
 BYTE   MODT 0
 BYTE   CnM2
 BYTE   LFOS 0
 BYTE   Gs1
 BYTE   VOL   40*GoodSong_mvl/mxv
 BYTE   PAN   c_v+0
 BYTE   VOL   40*GoodSong_mvl/mxv
 BYTE   PAN   c_v+0
 BYTE   W96
// 001   ----------------------------------------
 BYTE   W96
// 002   ----------------------------------------
 BYTE   W96
// 003   ----------------------------------------
 BYTE   W96
// 004   ----------------------------------------
 BYTE   W96
// 005   ----------------------------------------
 BYTE   W96
// 006   ----------------------------------------
 BYTE   W96
// 007   ----------------------------------------
 BYTE   W96
// 008   ----------------------------------------
 BYTE   N90  Fn2  v100
 BYTE   W96
// 009   ----------------------------------------
 BYTE   En2
 BYTE   W96
// 010   ----------------------------------------
 BYTE   Fn2
 BYTE   W96
// 011   ----------------------------------------
GoodSong_Label_2_01451540:
 BYTE   N36  En2  v100
 BYTE   W36
 BYTE   N32  An2
 BYTE   W36
 BYTE   N24  Gn2
 BYTE   W24
 BYTE   PEND 
// 012   ----------------------------------------
 BYTE   N90  Fn2
 BYTE   W96
// 013   ----------------------------------------
 BYTE   Fs2
 BYTE   W96
// 014   ----------------------------------------
 BYTE   Gn2
 BYTE   W96
// 015   ----------------------------------------
GoodSong_Label_2_01451552:
 BYTE   N06  En2  v100
 BYTE   W24
 BYTE   N06
 BYTE   W24
 BYTE   N06
 BYTE   W48
 BYTE   PEND 
// 016   ----------------------------------------
 BYTE   W96
// 017   ----------------------------------------
 BYTE   W96
// 018   ----------------------------------------
 BYTE   W96
// 019   ----------------------------------------
 BYTE   W96
// 020   ----------------------------------------
 BYTE   W96
// 021   ----------------------------------------
 BYTE   W96
// 022   ----------------------------------------
 BYTE   W96
// 023   ----------------------------------------
 BYTE   W96
// 024   ----------------------------------------
 BYTE   W96
// 025   ----------------------------------------
 BYTE   W96
// 026   ----------------------------------------
 BYTE   W96
// 027   ----------------------------------------
 BYTE   W96
// 028   ----------------------------------------
 BYTE   W96
// 029   ----------------------------------------
 BYTE   W96
// 030   ----------------------------------------
 BYTE   W96
// 031   ----------------------------------------
 BYTE   W96
// 032   ----------------------------------------
 BYTE   N90  Fn2
 BYTE   W96
// 033   ----------------------------------------
 BYTE   En2
 BYTE   W96
// 034   ----------------------------------------
 BYTE   Fn2
 BYTE   W96
 BYTE   PATT
  POIN2 GoodSong_Label_2_01451540
// 035   ----------------------------------------
 BYTE   N90  Fn2  v100
 BYTE   W96
// 036   ----------------------------------------
 BYTE   Fs2
 BYTE   W96
// 037   ----------------------------------------
 BYTE   Gn2
 BYTE   W96
 BYTE   PATT
  POIN2 GoodSong_Label_2_01451552
// 038   ----------------------------------------
 BYTE   W96
// 039   ----------------------------------------
 BYTE   W96
// 040   ----------------------------------------
 BYTE   W96
// 041   ----------------------------------------
 BYTE   W96
// 042   ----------------------------------------
 BYTE   W96
// 043   ----------------------------------------
 BYTE   W96
// 044   ----------------------------------------
 BYTE   W96
// 045   ----------------------------------------
 BYTE   W96
// 046   ----------------------------------------
 BYTE   N11  An4  v100
 BYTE   W12
 BYTE   Gn4
 BYTE   W12
 BYTE   En4
 BYTE   W12
 BYTE   N20  Gn4
 BYTE   W24
 BYTE   N11  Dn4
 BYTE   W12
 BYTE   En4
 BYTE   W12
 BYTE   Dn4
 BYTE   W12
// 047   ----------------------------------------
 BYTE   Cn4
 BYTE   W12
 BYTE   N20  Dn4
 BYTE   W24
 BYTE   N11  An3
 BYTE   W12
 BYTE   Cn4
 BYTE   W12
 BYTE   An3
 BYTE   W12
 BYTE   En3
 BYTE   W12
 BYTE   TIE  Gn3
 BYTE   W12
// 048   ----------------------------------------
 BYTE   W96
// 049   ----------------------------------------
 BYTE   W66
 BYTE   EOT
 BYTE   W06
 BYTE   N11
 BYTE   W12
 BYTE   N11
 BYTE   W12
// 050   ----------------------------------------
 BYTE   N11
 BYTE   W12
 BYTE   N20  An3
 BYTE   W24
 BYTE   N11  Gn3
 BYTE   W12
 BYTE   N20  An3
 BYTE   W24
 BYTE   N11  Gn3
 BYTE   N11  Gn4
 BYTE   W12
 BYTE   An3
 BYTE   N11  An4
 BYTE   W12
// 051   ----------------------------------------
 BYTE   GoTo
  POIN2 GoodSong_Label_2_01451522
// 052   ----------------------------------------
 BYTE   W90
 BYTE   FINE

//**************** Track 4 (Midi-Chn.3) ****************//

GoodSong_004:
// 000   ----------------------------------------
 BYTE   KEYSH   GoodSong_key+0
GoodSong_Label_3_014515D6:
 BYTE   VOICE   33
 BYTE   MODT 0
 BYTE   CnM2
 BYTE   LFOS 0
 BYTE   Gs1
 BYTE   VOL   40*GoodSong_mvl/mxv
 BYTE   PAN   c_v+0
 BYTE   VOL   40*GoodSong_mvl/mxv
 BYTE   PAN   c_v+0
 BYTE   N06  An1  v100
 BYTE   W18
 BYTE   N06
 BYTE   W18
 BYTE   N03  Gn1
 BYTE   W12
 BYTE   N08  An1
 BYTE   W36
 BYTE   N03  Gn1
 BYTE   W12
// 001   ----------------------------------------
GoodSong_Label_3_014515F3:
 BYTE   N06  An1  v100
 BYTE   W18
 BYTE   N06
 BYTE   W18
 BYTE   N03  Gn1
 BYTE   W12
 BYTE   N08  An1
 BYTE   W36
 BYTE   N03  Cn2
 BYTE   W12
 BYTE   PEND 
// 002   ----------------------------------------
GoodSong_Label_3_01451603:
 BYTE   N06  Dn2  v100
 BYTE   W18
 BYTE   N06
 BYTE   W18
 BYTE   N03  Cn2
 BYTE   W12
 BYTE   N09  Dn2
 BYTE   W36
 BYTE   N03  Cn2
 BYTE   W12
 BYTE   PEND 
// 003   ----------------------------------------
GoodSong_Label_3_01451613:
 BYTE   N06  Dn2  v100
 BYTE   W18
 BYTE   N06
 BYTE   W18
 BYTE   N03  Cn2
 BYTE   W12
 BYTE   Dn2
 BYTE   W12
 BYTE   En2
 BYTE   W12
 BYTE   Dn2
 BYTE   W12
 BYTE   Cn2
 BYTE   W12
 BYTE   PEND 
// 004   ----------------------------------------
GoodSong_Label_3_01451625:
 BYTE   N06  An1  v100
 BYTE   W18
 BYTE   N06
 BYTE   W18
 BYTE   N03  Gn1
 BYTE   W12
 BYTE   N08  An1
 BYTE   W36
 BYTE   N03  Gn1
 BYTE   W12
 BYTE   PEND 
 BYTE   PATT
  POIN2 GoodSong_Label_3_014515F3
 BYTE   PATT
  POIN2 GoodSong_Label_3_01451603
 BYTE   PATT
  POIN2 GoodSong_Label_3_01451613
// 005   ----------------------------------------
GoodSong_Label_3_01451644:
 BYTE   W24
 BYTE   N11  An3  v100
 BYTE   W12
 BYTE   Gn3
 BYTE   W12
 BYTE   N20  An3
 BYTE   W24
 BYTE   En4
 BYTE   W24
 BYTE   PEND 
// 006   ----------------------------------------
GoodSong_Label_3_01451651:
 BYTE   N32  Dn4  v100
 BYTE   W36
 BYTE   N54  Bn3
 BYTE   W60
 BYTE   PEND 
 BYTE   PATT
  POIN2 GoodSong_Label_3_01451644
// 007   ----------------------------------------
GoodSong_Label_3_0145165E:
 BYTE   N20  Dn4  v100
 BYTE   W24
 BYTE   N11  Gn4
 BYTE   W12
 BYTE   N54  En4
 BYTE   W60
 BYTE   PEND 
 BYTE   PATT
  POIN2 GoodSong_Label_3_01451644
// 008   ----------------------------------------
GoodSong_Label_3_0145166E:
 BYTE   N32  Dn4  v100
 BYTE   W36
 BYTE   Cn4
 BYTE   W36
 BYTE   N20  En4
 BYTE   W24
 BYTE   PEND 
// 009   ----------------------------------------
GoodSong_Label_3_01451678:
 BYTE   N32  Dn4  v100
 BYTE   W36
 BYTE   Gn4
 BYTE   W36
 BYTE   N20  An4
 BYTE   W24
 BYTE   PEND 
// 010   ----------------------------------------
GoodSong_Label_3_01451682:
 BYTE   N78  En4  v100
 BYTE   W84
 BYTE   N03  Gn1
 BYTE   W12
 BYTE   PEND 
// 011   ----------------------------------------
GoodSong_Label_3_0145168A:
 BYTE   N06  An1  v100
 BYTE   W18
 BYTE   N06
 BYTE   W18
 BYTE   N03  Gn1
 BYTE   W12
 BYTE   N09  An1
 BYTE   W36
 BYTE   N03  Gn1
 BYTE   W12
 BYTE   PEND 
// 012   ----------------------------------------
GoodSong_Label_3_0145169A:
 BYTE   N06  An1  v100
 BYTE   W18
 BYTE   N06
 BYTE   W18
 BYTE   N03  Gn1
 BYTE   W12
 BYTE   N09  An1
 BYTE   W36
 BYTE   N03  Cn2
 BYTE   W12
 BYTE   PEND 
// 013   ----------------------------------------
GoodSong_Label_3_014516AA:
 BYTE   N06  Dn2  v100
 BYTE   W18
 BYTE   N06
 BYTE   W18
 BYTE   N03  Cn2
 BYTE   W12
 BYTE   N08  Dn2
 BYTE   W36
 BYTE   N03  Cn2
 BYTE   W12
 BYTE   PEND 
 BYTE   PATT
  POIN2 GoodSong_Label_3_01451613
 BYTE   PATT
  POIN2 GoodSong_Label_3_0145168A
 BYTE   PATT
  POIN2 GoodSong_Label_3_0145169A
 BYTE   PATT
  POIN2 GoodSong_Label_3_014516AA
 BYTE   PATT
  POIN2 GoodSong_Label_3_01451613
// 014   ----------------------------------------
GoodSong_Label_3_014516D3:
 BYTE   N11  An1  v100
 BYTE   N11  En2
 BYTE   N11  An2
 BYTE   W12
 BYTE   Gn1
 BYTE   N11  Dn2
 BYTE   N11  Gn2
 BYTE   W12
 BYTE   En1
 BYTE   N11  Bn1
 BYTE   N11  En2
 BYTE   W12
 BYTE   N20  Gn1
 BYTE   N20  Dn2
 BYTE   N20  Gn2
 BYTE   W24
 BYTE   N11  An1
 BYTE   N11  En2
 BYTE   N11  An2
 BYTE   W36
 BYTE   PEND 
// 015   ----------------------------------------
GoodSong_Label_3_014516F6:
 BYTE   W36
 BYTE   N32  Cn2  v100
 BYTE   N32  Gn2
 BYTE   N32  Cn3
 BYTE   W36
 BYTE   N20  Dn2
 BYTE   N20  An2
 BYTE   N20  Dn3
 BYTE   W24
 BYTE   PEND 
 BYTE   PATT
  POIN2 GoodSong_Label_3_014516D3
// 016   ----------------------------------------
 BYTE   W24
 BYTE   N66  Gn1  v100
 BYTE   N66  Dn2
 BYTE   N66  Gn2
 BYTE   W72
 BYTE   PATT
  POIN2 GoodSong_Label_3_014516D3
 BYTE   PATT
  POIN2 GoodSong_Label_3_014516F6
 BYTE   PATT
  POIN2 GoodSong_Label_3_014516D3
// 017   ----------------------------------------
 BYTE   N24  En1  v100
 BYTE   N24  Bn1
 BYTE   N24  En2
 BYTE   W24
 BYTE   N03  En1
 BYTE   N03  Bn1
 BYTE   N03  En2
 BYTE   W12
 BYTE   En1
 BYTE   N03  Bn1
 BYTE   N03  En2
 BYTE   W12
 BYTE   En1
 BYTE   N03  Bn1
 BYTE   N03  En2
 BYTE   W12
 BYTE   En1
 BYTE   N03  Bn1
 BYTE   N03  En2
 BYTE   W12
 BYTE   En1
 BYTE   N03  Bn1
 BYTE   N03  En2
 BYTE   W12
 BYTE   En1
 BYTE   N03  Bn1
 BYTE   N03  En2
 BYTE   W12
 BYTE   PATT
  POIN2 GoodSong_Label_3_01451644
 BYTE   PATT
  POIN2 GoodSong_Label_3_01451651
 BYTE   PATT
  POIN2 GoodSong_Label_3_01451644
 BYTE   PATT
  POIN2 GoodSong_Label_3_0145165E
 BYTE   PATT
  POIN2 GoodSong_Label_3_01451644
 BYTE   PATT
  POIN2 GoodSong_Label_3_0145166E
 BYTE   PATT
  POIN2 GoodSong_Label_3_01451678
 BYTE   PATT
  POIN2 GoodSong_Label_3_01451682
 BYTE   PATT
  POIN2 GoodSong_Label_3_01451625
 BYTE   PATT
  POIN2 GoodSong_Label_3_0145169A
 BYTE   PATT
  POIN2 GoodSong_Label_3_01451603
 BYTE   PATT
  POIN2 GoodSong_Label_3_01451613
 BYTE   PATT
  POIN2 GoodSong_Label_3_01451625
 BYTE   PATT
  POIN2 GoodSong_Label_3_0145169A
 BYTE   PATT
  POIN2 GoodSong_Label_3_01451603
 BYTE   PATT
  POIN2 GoodSong_Label_3_01451613
// 018   ----------------------------------------
 BYTE   N11  An2  v100
 BYTE   W12
 BYTE   Gn2
 BYTE   W12
 BYTE   En2
 BYTE   W12
 BYTE   N20  Gn2
 BYTE   W24
 BYTE   N11  Dn2
 BYTE   W12
 BYTE   En2
 BYTE   W12
 BYTE   Dn2
 BYTE   W12
// 019   ----------------------------------------
 BYTE   Cn2
 BYTE   W12
 BYTE   N20  Dn2
 BYTE   W24
 BYTE   N11  An1
 BYTE   W12
 BYTE   Cn2
 BYTE   W12
 BYTE   An1
 BYTE   W12
 BYTE   En1
 BYTE   W12
 BYTE   TIE  Gn1
 BYTE   W12
// 020   ----------------------------------------
 BYTE   W96
// 021   ----------------------------------------
 BYTE   W66
 BYTE   EOT
 BYTE   W06
 BYTE   N11
 BYTE   W12
 BYTE   N11
 BYTE   W12
// 022   ----------------------------------------
 BYTE   N11
 BYTE   W12
 BYTE   N20  An1
 BYTE   W24
 BYTE   N11  Gn1
 BYTE   W12
 BYTE   N20  An1
 BYTE   W24
 BYTE   N11  Gn2
 BYTE   W12
 BYTE   An2
 BYTE   W12
// 023   ----------------------------------------
 BYTE   GoTo
  POIN2 GoodSong_Label_3_014515D6
// 024   ----------------------------------------
 BYTE   W90
 BYTE   FINE

//**************** Track 5 (Midi-Chn.4) ****************//

GoodSong_005:
// 000   ----------------------------------------
 BYTE   KEYSH   GoodSong_key+0
GoodSong_Label_4_014517E6:
 BYTE   VOICE   70
 BYTE   MODT 0
 BYTE   CnM2
 BYTE   LFOS 0
 BYTE   Gs1
 BYTE   VOL   40*GoodSong_mvl/mxv
 BYTE   PAN   c_v+0
 BYTE   VOL   40*GoodSong_mvl/mxv
 BYTE   PAN   c_v+0
 BYTE   BEND   c_v+0
 BYTE   N17  An0  v100
 BYTE   W18
 BYTE   N17
 BYTE   W18
 BYTE   N11  Gn0
 BYTE   W12
 BYTE   N20  An0
 BYTE   W36
 BYTE   N11  Gn0
 BYTE   W12
// 001   ----------------------------------------
GoodSong_Label_4_01451805:
 BYTE   N17  An0  v100
 BYTE   W18
 BYTE   N17
 BYTE   W18
 BYTE   N11  Gn0
 BYTE   W12
 BYTE   N20  An0
 BYTE   W36
 BYTE   N11  Cn1
 BYTE   W12
 BYTE   PEND 
// 002   ----------------------------------------
GoodSong_Label_4_01451815:
 BYTE   N17  Dn1  v100
 BYTE   W18
 BYTE   N17
 BYTE   W18
 BYTE   N11  Cn1
 BYTE   W12
 BYTE   N20  Dn1
 BYTE   W36
 BYTE   N11  Cn1
 BYTE   W12
 BYTE   PEND 
// 003   ----------------------------------------
GoodSong_Label_4_01451825:
 BYTE   N17  Dn1  v100
 BYTE   W18
 BYTE   N17
 BYTE   W18
 BYTE   N11  Cn1
 BYTE   W12
 BYTE   Dn1
 BYTE   W12
 BYTE   En1
 BYTE   W12
 BYTE   Dn1
 BYTE   W12
 BYTE   Cn1
 BYTE   W12
 BYTE   PEND 
// 004   ----------------------------------------
GoodSong_Label_4_01451837:
 BYTE   N17  An0  v100
 BYTE   W18
 BYTE   N17
 BYTE   W18
 BYTE   N11  Gn0
 BYTE   W12
 BYTE   N20  An0
 BYTE   W36
 BYTE   N11  Gn0
 BYTE   W12
 BYTE   PEND 
 BYTE   PATT
  POIN2 GoodSong_Label_4_01451805
 BYTE   PATT
  POIN2 GoodSong_Label_4_01451815
 BYTE   PATT
  POIN2 GoodSong_Label_4_01451825
// 005   ----------------------------------------
GoodSong_Label_4_01451856:
 BYTE   N17  Fn0  v100
 BYTE   W18
 BYTE   N05
 BYTE   W06
 BYTE   N11
 BYTE   W12
 BYTE   N11
 BYTE   W12
 BYTE   N20
 BYTE   W36
 BYTE   N11
 BYTE   W12
 BYTE   PEND 
// 006   ----------------------------------------
GoodSong_Label_4_01451865:
 BYTE   N17  En0  v100
 BYTE   W18
 BYTE   N05
 BYTE   W06
 BYTE   N11
 BYTE   W12
 BYTE   N11
 BYTE   W12
 BYTE   N20
 BYTE   W36
 BYTE   N11
 BYTE   W12
 BYTE   PEND 
 BYTE   PATT
  POIN2 GoodSong_Label_4_01451856
// 007   ----------------------------------------
GoodSong_Label_4_01451879:
 BYTE   N20  En0  v100
 BYTE   W24
 BYTE   N11
 BYTE   W12
 BYTE   N23  An0
 BYTE   W24
 BYTE   N11
 BYTE   W12
 BYTE   N20  Gn0
 BYTE   W24
 BYTE   PEND 
 BYTE   PATT
  POIN2 GoodSong_Label_4_01451856
// 008   ----------------------------------------
GoodSong_Label_4_0145188D:
 BYTE   N17  Fs0  v100
 BYTE   W18
 BYTE   N05
 BYTE   W06
 BYTE   N11
 BYTE   W12
 BYTE   N11
 BYTE   W12
 BYTE   N11
 BYTE   W12
 BYTE   N11
 BYTE   W24
 BYTE   N11
 BYTE   W12
 BYTE   PEND 
// 009   ----------------------------------------
GoodSong_Label_4_0145189E:
 BYTE   N17  Gn0  v100
 BYTE   W18
 BYTE   N05
 BYTE   W06
 BYTE   N11
 BYTE   W12
 BYTE   N11
 BYTE   W12
 BYTE   N20
 BYTE   W24
 BYTE   N11
 BYTE   W12
 BYTE   N11
 BYTE   W12
 BYTE   PEND 
// 010   ----------------------------------------
GoodSong_Label_4_014518AF:
 BYTE   N20  En0  v100
 BYTE   W24
 BYTE   N20
 BYTE   W24
 BYTE   N20
 BYTE   W48
 BYTE   PEND 
 BYTE   PATT
  POIN2 GoodSong_Label_4_01451837
 BYTE   PATT
  POIN2 GoodSong_Label_4_01451805
 BYTE   PATT
  POIN2 GoodSong_Label_4_01451815
 BYTE   PATT
  POIN2 GoodSong_Label_4_01451825
 BYTE   PATT
  POIN2 GoodSong_Label_4_01451837
 BYTE   PATT
  POIN2 GoodSong_Label_4_01451805
 BYTE   PATT
  POIN2 GoodSong_Label_4_01451815
 BYTE   PATT
  POIN2 GoodSong_Label_4_01451825
// 011   ----------------------------------------
GoodSong_Label_4_014518E0:
 BYTE   N11  An0  v100
 BYTE   W12
 BYTE   Gn0
 BYTE   W12
 BYTE   En0
 BYTE   W12
 BYTE   N20  Gn0
 BYTE   W24
 BYTE   N11  An0
 BYTE   W36
 BYTE   PEND 
// 012   ----------------------------------------
GoodSong_Label_4_014518EF:
 BYTE   W36
 BYTE   N32  Cn1  v100
 BYTE   W36
 BYTE   N20  Dn1
 BYTE   W24
 BYTE   PEND 
 BYTE   PATT
  POIN2 GoodSong_Label_4_014518E0
// 013   ----------------------------------------
 BYTE   W24
 BYTE   N66  Gn0  v100
 BYTE   W72
 BYTE   PATT
  POIN2 GoodSong_Label_4_014518E0
 BYTE   PATT
  POIN2 GoodSong_Label_4_014518EF
 BYTE   PATT
  POIN2 GoodSong_Label_4_014518E0
// 014   ----------------------------------------
 BYTE   N20  En0  v100
 BYTE   W24
 BYTE   N11
 BYTE   W12
 BYTE   N11
 BYTE   W12
 BYTE   N11
 BYTE   W12
 BYTE   N11
 BYTE   W12
 BYTE   N11
 BYTE   W12
 BYTE   N11
 BYTE   W12
 BYTE   PATT
  POIN2 GoodSong_Label_4_01451856
 BYTE   PATT
  POIN2 GoodSong_Label_4_01451865
 BYTE   PATT
  POIN2 GoodSong_Label_4_01451856
 BYTE   PATT
  POIN2 GoodSong_Label_4_01451879
 BYTE   PATT
  POIN2 GoodSong_Label_4_01451856
 BYTE   PATT
  POIN2 GoodSong_Label_4_0145188D
 BYTE   PATT
  POIN2 GoodSong_Label_4_0145189E
 BYTE   PATT
  POIN2 GoodSong_Label_4_014518AF
 BYTE   PATT
  POIN2 GoodSong_Label_4_01451837
 BYTE   PATT
  POIN2 GoodSong_Label_4_01451805
 BYTE   PATT
  POIN2 GoodSong_Label_4_01451815
 BYTE   PATT
  POIN2 GoodSong_Label_4_01451825
 BYTE   PATT
  POIN2 GoodSong_Label_4_01451837
 BYTE   PATT
  POIN2 GoodSong_Label_4_01451805
 BYTE   PATT
  POIN2 GoodSong_Label_4_01451815
 BYTE   PATT
  POIN2 GoodSong_Label_4_01451825
// 015   ----------------------------------------
 BYTE   N11  An0  v100
 BYTE   W12
 BYTE   Gn0
 BYTE   W12
 BYTE   En0
 BYTE   W12
 BYTE   N20  Gn0
 BYTE   W24
 BYTE   N11  Dn1
 BYTE   W12
 BYTE   En1
 BYTE   W12
 BYTE   Dn1
 BYTE   W12
// 016   ----------------------------------------
 BYTE   Cn1
 BYTE   W12
 BYTE   N20  Dn1
 BYTE   W24
 BYTE   N11  An0
 BYTE   W12
 BYTE   Cn1
 BYTE   W12
 BYTE   An0
 BYTE   W12
 BYTE   En0
 BYTE   W12
 BYTE   TIE  Gn0
 BYTE   W12
// 017   ----------------------------------------
 BYTE   W96
// 018   ----------------------------------------
 BYTE   W66
 BYTE   EOT
 BYTE   W06
 BYTE   N11
 BYTE   W12
 BYTE   N11
 BYTE   W12
// 019   ----------------------------------------
 BYTE   N11
 BYTE   W12
 BYTE   N20  An0
 BYTE   W24
 BYTE   N11  Gn0
 BYTE   W12
 BYTE   N20  An0
 BYTE   W24
 BYTE   N11  Gn0
 BYTE   W12
 BYTE   An0
 BYTE   W12
// 020   ----------------------------------------
 BYTE   GoTo
  POIN2 GoodSong_Label_4_014517E6
// 021   ----------------------------------------
 BYTE   W90
 BYTE   FINE

//**************** Track 6 (Midi-Chn.5) ****************//

GoodSong_006:
// 000   ----------------------------------------
 BYTE   KEYSH   GoodSong_key+0
GoodSong_Label_5_014519B6:
 BYTE   VOICE   73
 BYTE   MODT 0
 BYTE   CnM2
 BYTE   LFOS 0
 BYTE   Gs1
 BYTE   VOL   40*GoodSong_mvl/mxv
 BYTE   PAN   c_v+0
 BYTE   VOL   40*GoodSong_mvl/mxv
 BYTE   PAN   c_v+0
 BYTE   N66  An3  v056
 BYTE   W72
 BYTE   N20  Cn4
 BYTE   W24
// 001   ----------------------------------------
GoodSong_Label_5_014519CB:
 BYTE   N66  Dn4  v056
 BYTE   W72
 BYTE   N20  En4
 BYTE   W24
 BYTE   PEND 
// 002   ----------------------------------------
 BYTE   N90  Dn4
 BYTE   W96
// 003   ----------------------------------------
 BYTE   W96
// 004   ----------------------------------------
GoodSong_Label_5_014519D7:
 BYTE   N66  An3  v056
 BYTE   W72
 BYTE   N20  Cn4
 BYTE   W24
 BYTE   PEND 
 BYTE   PATT
  POIN2 GoodSong_Label_5_014519CB
// 005   ----------------------------------------
 BYTE   N90  Dn4  v056
 BYTE   W96
// 006   ----------------------------------------
 BYTE   W96
// 007   ----------------------------------------
 BYTE   An4  v100
 BYTE   W96
// 008   ----------------------------------------
GoodSong_Label_5_014519EC:
 BYTE   N56  Gn4  v100
 BYTE   W60
 BYTE   N11  Dn4
 BYTE   W12
 BYTE   En4
 BYTE   W12
 BYTE   Gn4
 BYTE   W12
 BYTE   PEND 
// 009   ----------------------------------------
 BYTE   N90  An4
 BYTE   W96
// 010   ----------------------------------------
GoodSong_Label_5_014519FB:
 BYTE   N32  Gn4  v100
 BYTE   W36
 BYTE   N11
 BYTE   W12
 BYTE   An4
 BYTE   W12
 BYTE   Gn4
 BYTE   W12
 BYTE   En4
 BYTE   W12
 BYTE   Dn4
 BYTE   W12
 BYTE   PEND 
// 011   ----------------------------------------
 BYTE   N90  En4
 BYTE   W96
// 012   ----------------------------------------
GoodSong_Label_5_01451A0D:
 BYTE   N32  An4  v100
 BYTE   W36
 BYTE   Cn5
 BYTE   W36
 BYTE   N20  En5
 BYTE   W24
 BYTE   PEND 
// 013   ----------------------------------------
 BYTE   N90  Dn5
 BYTE   W96
// 014   ----------------------------------------
GoodSong_Label_5_01451A1A:
 BYTE   N06  En4  v100
 BYTE   N06  En5
 BYTE   W24
 BYTE   En4
 BYTE   N06  En5
 BYTE   W24
 BYTE   En4
 BYTE   N06  En5
 BYTE   W48
 BYTE   PEND 
 BYTE   PATT
  POIN2 GoodSong_Label_5_014519D7
 BYTE   PATT
  POIN2 GoodSong_Label_5_014519CB
// 015   ----------------------------------------
 BYTE   N90  Dn4  v056
 BYTE   W96
// 016   ----------------------------------------
 BYTE   W96
 BYTE   PATT
  POIN2 GoodSong_Label_5_014519D7
// 017   ----------------------------------------
GoodSong_Label_5_01451A3D:
 BYTE   N66  Dn4  v056
 BYTE   W72
 BYTE   N20  Gn4
 BYTE   W24
 BYTE   PEND 
// 018   ----------------------------------------
 BYTE   N90  Dn4
 BYTE   W96
// 019   ----------------------------------------
 BYTE   W96
// 020   ----------------------------------------
GoodSong_Label_5_01451A49:
 BYTE   N11  An3  v100
 BYTE   W12
 BYTE   Gn3
 BYTE   W12
 BYTE   En3
 BYTE   W12
 BYTE   N20  Gn3
 BYTE   W24
 BYTE   N11  An3
 BYTE   W36
 BYTE   PEND 
// 021   ----------------------------------------
GoodSong_Label_5_01451A58:
 BYTE   W36
 BYTE   N32  Cn4  v100
 BYTE   W36
 BYTE   N20  Dn4
 BYTE   W24
 BYTE   PEND 
 BYTE   PATT
  POIN2 GoodSong_Label_5_01451A49
// 022   ----------------------------------------
 BYTE   W24
 BYTE   N66  Gn3  v100
 BYTE   W72
 BYTE   PATT
  POIN2 GoodSong_Label_5_01451A49
 BYTE   PATT
  POIN2 GoodSong_Label_5_01451A58
 BYTE   PATT
  POIN2 GoodSong_Label_5_01451A49
// 023   ----------------------------------------
 BYTE   W96
// 024   ----------------------------------------
 BYTE   N90  An4  v100
 BYTE   W96
 BYTE   PATT
  POIN2 GoodSong_Label_5_014519EC
// 025   ----------------------------------------
 BYTE   N90  An4  v100
 BYTE   W96
 BYTE   PATT
  POIN2 GoodSong_Label_5_014519FB
// 026   ----------------------------------------
 BYTE   N90  En4  v100
 BYTE   W96
 BYTE   PATT
  POIN2 GoodSong_Label_5_01451A0D
// 027   ----------------------------------------
 BYTE   N90  Dn5  v100
 BYTE   W96
 BYTE   PATT
  POIN2 GoodSong_Label_5_01451A1A
 BYTE   PATT
  POIN2 GoodSong_Label_5_014519D7
 BYTE   PATT
  POIN2 GoodSong_Label_5_014519CB
// 028   ----------------------------------------
 BYTE   N90  Dn4  v056
 BYTE   W96
// 029   ----------------------------------------
 BYTE   W96
 BYTE   PATT
  POIN2 GoodSong_Label_5_014519D7
 BYTE   PATT
  POIN2 GoodSong_Label_5_01451A3D
// 030   ----------------------------------------
 BYTE   N90  Dn4  v056
 BYTE   W96
// 031   ----------------------------------------
 BYTE   W96
// 032   ----------------------------------------
 BYTE   N11  An4  v100
 BYTE   W12
 BYTE   Gn4
 BYTE   W12
 BYTE   En4
 BYTE   W12
 BYTE   N20  Gn4
 BYTE   W24
 BYTE   N11  Dn4
 BYTE   W12
 BYTE   En4
 BYTE   W12
 BYTE   Dn4
 BYTE   W12
// 033   ----------------------------------------
 BYTE   Cn4
 BYTE   W12
 BYTE   N20  Dn4
 BYTE   W24
 BYTE   N11  An3
 BYTE   W12
 BYTE   Cn4
 BYTE   W12
 BYTE   An3
 BYTE   W12
 BYTE   En3
 BYTE   W12
 BYTE   TIE  Gn3
 BYTE   W12
// 034   ----------------------------------------
 BYTE   W96
// 035   ----------------------------------------
 BYTE   W66
 BYTE   EOT
 BYTE   W06
 BYTE   N11
 BYTE   W12
 BYTE   N11
 BYTE   W12
// 036   ----------------------------------------
 BYTE   N11
 BYTE   W12
 BYTE   N20  An3
 BYTE   W24
 BYTE   N11  Gn3
 BYTE   W12
 BYTE   N20  An3
 BYTE   W24
 BYTE   N11  Gn3
 BYTE   N11  Gn4
 BYTE   W12
 BYTE   An3
 BYTE   N11  An4
 BYTE   W12
// 037   ----------------------------------------
 BYTE   GoTo
  POIN2 GoodSong_Label_5_014519B6
// 038   ----------------------------------------
 BYTE   W90
 BYTE   FINE

//**************** Track 7 (Midi-Chn.6) ****************//

GoodSong_007:
// 000   ----------------------------------------
 BYTE   KEYSH   GoodSong_key+0
GoodSong_Label_6_01451B06:
 BYTE   VOICE   107
 BYTE   MODT 0
 BYTE   CnM2
 BYTE   LFOS 0
 BYTE   Gs1
 BYTE   VOL   40*GoodSong_mvl/mxv
 BYTE   PAN   c_v+0
 BYTE   VOL   40*GoodSong_mvl/mxv
 BYTE   PAN   c_v+0
 BYTE   N17  An2  v100
 BYTE   W18
 BYTE   N17
 BYTE   W18
 BYTE   N11  Gn2
 BYTE   W12
 BYTE   N32  An2
 BYTE   W36
 BYTE   N11  Gn2
 BYTE   W12
// 001   ----------------------------------------
GoodSong_Label_6_01451B23:
 BYTE   N17  An2  v100
 BYTE   W18
 BYTE   N17
 BYTE   W18
 BYTE   N11  Gn2
 BYTE   W12
 BYTE   N32  An2
 BYTE   W36
 BYTE   N11  Cn3
 BYTE   W12
 BYTE   PEND 
// 002   ----------------------------------------
GoodSong_Label_6_01451B33:
 BYTE   N17  Dn3  v100
 BYTE   W18
 BYTE   N17
 BYTE   W18
 BYTE   N11  Cn3
 BYTE   W12
 BYTE   N32  Dn3
 BYTE   W36
 BYTE   N11  Cn3
 BYTE   W12
 BYTE   PEND 
// 003   ----------------------------------------
GoodSong_Label_6_01451B43:
 BYTE   N17  Dn3  v100
 BYTE   W18
 BYTE   N17
 BYTE   W18
 BYTE   N11  Cn3
 BYTE   W12
 BYTE   Dn3
 BYTE   W12
 BYTE   En3
 BYTE   W12
 BYTE   Dn3
 BYTE   W12
 BYTE   Cn3
 BYTE   W12
 BYTE   PEND 
// 004   ----------------------------------------
GoodSong_Label_6_01451B55:
 BYTE   N17  An2  v100
 BYTE   W18
 BYTE   N17
 BYTE   W18
 BYTE   N11  Gn2
 BYTE   W12
 BYTE   N32  An2
 BYTE   W36
 BYTE   N11  Gn2
 BYTE   W12
 BYTE   PEND 
 BYTE   PATT
  POIN2 GoodSong_Label_6_01451B23
 BYTE   PATT
  POIN2 GoodSong_Label_6_01451B33
 BYTE   PATT
  POIN2 GoodSong_Label_6_01451B43
// 005   ----------------------------------------
 BYTE   W96
// 006   ----------------------------------------
 BYTE   W96
// 007   ----------------------------------------
 BYTE   W96
// 008   ----------------------------------------
 BYTE   W96
// 009   ----------------------------------------
 BYTE   W96
// 010   ----------------------------------------
 BYTE   W96
// 011   ----------------------------------------
 BYTE   W96
// 012   ----------------------------------------
 BYTE   W84
 BYTE   N11  Gn2  v100
 BYTE   W12
 BYTE   PATT
  POIN2 GoodSong_Label_6_01451B55
 BYTE   PATT
  POIN2 GoodSong_Label_6_01451B23
 BYTE   PATT
  POIN2 GoodSong_Label_6_01451B33
 BYTE   PATT
  POIN2 GoodSong_Label_6_01451B43
 BYTE   PATT
  POIN2 GoodSong_Label_6_01451B55
 BYTE   PATT
  POIN2 GoodSong_Label_6_01451B23
 BYTE   PATT
  POIN2 GoodSong_Label_6_01451B33
 BYTE   PATT
  POIN2 GoodSong_Label_6_01451B43
// 013   ----------------------------------------
 BYTE   W96
// 014   ----------------------------------------
 BYTE   W96
// 015   ----------------------------------------
 BYTE   W96
// 016   ----------------------------------------
 BYTE   W96
// 017   ----------------------------------------
 BYTE   W96
// 018   ----------------------------------------
 BYTE   W96
// 019   ----------------------------------------
 BYTE   W96
// 020   ----------------------------------------
 BYTE   W96
// 021   ----------------------------------------
 BYTE   W96
// 022   ----------------------------------------
 BYTE   W96
// 023   ----------------------------------------
 BYTE   W96
// 024   ----------------------------------------
 BYTE   W96
// 025   ----------------------------------------
 BYTE   W96
// 026   ----------------------------------------
 BYTE   W96
// 027   ----------------------------------------
 BYTE   W96
// 028   ----------------------------------------
 BYTE   W84
 BYTE   N11  Gn2  v100
 BYTE   W12
 BYTE   PATT
  POIN2 GoodSong_Label_6_01451B55
 BYTE   PATT
  POIN2 GoodSong_Label_6_01451B23
 BYTE   PATT
  POIN2 GoodSong_Label_6_01451B33
 BYTE   PATT
  POIN2 GoodSong_Label_6_01451B43
 BYTE   PATT
  POIN2 GoodSong_Label_6_01451B55
 BYTE   PATT
  POIN2 GoodSong_Label_6_01451B23
 BYTE   PATT
  POIN2 GoodSong_Label_6_01451B33
 BYTE   PATT
  POIN2 GoodSong_Label_6_01451B43
// 029   ----------------------------------------
 BYTE   N32  Cn3  v076
 BYTE   N32  Cn4
 BYTE   W36
 BYTE   Cn3
 BYTE   N32  Cn4
 BYTE   W36
 BYTE   An2
 BYTE   N32  An3
 BYTE   W24
// 030   ----------------------------------------
 BYTE   W12
 BYTE   An2
 BYTE   N32  An3
 BYTE   W36
 BYTE   Gn2
 BYTE   N32  Gn3
 BYTE   W36
 BYTE   TIE  Gn2
 BYTE   TIE  Gn3
 BYTE   W12
// 031   ----------------------------------------
 BYTE   W96
// 032   ----------------------------------------
 BYTE   W66
 BYTE   EOT
 BYTE   Gn2  v067
 BYTE   W06
 BYTE   N11  Gn2
 BYTE   N11  Gn3
 BYTE   W12
 BYTE   Gn2
 BYTE   N11  Gn3
 BYTE   W12
// 033   ----------------------------------------
 BYTE   Gn2
 BYTE   N11  Gn3
 BYTE   W12
 BYTE   N20  An2
 BYTE   N20  An3
 BYTE   W24
 BYTE   N11  Gn2
 BYTE   N11  Gn3
 BYTE   W12
 BYTE   N20  An2
 BYTE   N20  An3
 BYTE   W24
 BYTE   N11  Gn3
 BYTE   N11  Gn4
 BYTE   W12
 BYTE   An3
 BYTE   N11  An4
 BYTE   W12
// 034   ----------------------------------------
 BYTE   GoTo
  POIN2 GoodSong_Label_6_01451B06
// 035   ----------------------------------------
 BYTE   W90
 BYTE   FINE

//**************** Track 8 (Midi-Chn.7) ****************//

GoodSong_008:
// 000   ----------------------------------------
 BYTE   KEYSH   GoodSong_key+0
GoodSong_Label_7_01451C36:
 BYTE   VOICE   121
 BYTE   MODT 0
 BYTE   CnM2
 BYTE   LFOS 0
 BYTE   Gs1
 BYTE   VOL   40*GoodSong_mvl/mxv
 BYTE   PAN   c_v+0
 BYTE   VOL   40*GoodSong_mvl/mxv
 BYTE   PAN   c_v+0
 BYTE   MODT 0
 BYTE   CnM2
 BYTE   LFOS 0
 BYTE   Gs1
 BYTE   VOL   40*GoodSong_mvl/mxv
 BYTE   PAN   c_v+0
 BYTE   VOL   40*GoodSong_mvl/mxv
 BYTE   PAN   c_v+0
 BYTE   N11  Cn1  v100
 BYTE   N11  An2
 BYTE   W12
 BYTE   N05  Fs1
 BYTE   W06
 BYTE   Cn1
 BYTE   W06
 BYTE   N11  En1
 BYTE   N11  Fs1
 BYTE   W12
 BYTE   Cn1
 BYTE   N11  Fs1
 BYTE   W12
 BYTE   Cn1
 BYTE   N11  Fs1
 BYTE   W12
 BYTE   N11
 BYTE   W12
 BYTE   En1
 BYTE   N11  Fs1
 BYTE   W12
 BYTE   Cn1
 BYTE   N11  Fs1
 BYTE   W12
// 001   ----------------------------------------
GoodSong_Label_7_01451C72:
 BYTE   N11  Cn1  v100
 BYTE   N11  Fs1
 BYTE   W12
 BYTE   N05
 BYTE   W06
 BYTE   Cn1
 BYTE   W06
 BYTE   N11  En1
 BYTE   N11  Fs1
 BYTE   W12
 BYTE   Cn1
 BYTE   N11  Fs1
 BYTE   W12
 BYTE   Cn1
 BYTE   N11  Fs1
 BYTE   W12
 BYTE   N11
 BYTE   W12
 BYTE   En1
 BYTE   N11  Fs1
 BYTE   W12
 BYTE   Cn1
 BYTE   N11  As1
 BYTE   W12
 BYTE   PEND 
 BYTE   PATT
  POIN2 GoodSong_Label_7_01451C72
// 002   ----------------------------------------
GoodSong_Label_7_01451C99:
 BYTE   N11  Cn1  v100
 BYTE   N11  Fs1
 BYTE   W12
 BYTE   N05
 BYTE   W06
 BYTE   Cn1
 BYTE   W06
 BYTE   N11  En1
 BYTE   N11  Fs1
 BYTE   W12
 BYTE   Cn1
 BYTE   N11  Fs1
 BYTE   W12
 BYTE   Cn1
 BYTE   N11  Fs1
 BYTE   W12
 BYTE   As1
 BYTE   W12
 BYTE   En1
 BYTE   N11  Fs1
 BYTE   W12
 BYTE   Cn1
 BYTE   N11  As1
 BYTE   W12
 BYTE   PEND 
// 003   ----------------------------------------
GoodSong_Label_7_01451CBB:
 BYTE   N11  Cn1  v100
 BYTE   N11  Fs1
 BYTE   W12
 BYTE   N05
 BYTE   W06
 BYTE   Cn1
 BYTE   W06
 BYTE   N11  En1
 BYTE   N11  Fs1
 BYTE   W12
 BYTE   Cn1
 BYTE   N11  Fs1
 BYTE   W12
 BYTE   Cn1
 BYTE   N11  Fs1
 BYTE   W12
 BYTE   N11
 BYTE   W12
 BYTE   En1
 BYTE   N11  Fs1
 BYTE   W12
 BYTE   Cn1
 BYTE   N11  Fs1
 BYTE   W12
 BYTE   PEND 
 BYTE   PATT
  POIN2 GoodSong_Label_7_01451C72
 BYTE   PATT
  POIN2 GoodSong_Label_7_01451C72
// 004   ----------------------------------------
 BYTE   N11  Cn1  v100
 BYTE   N11  Fs1
 BYTE   W12
 BYTE   N05
 BYTE   W06
 BYTE   Cn1
 BYTE   W06
 BYTE   N11  En1
 BYTE   N11  Fs1
 BYTE   W12
 BYTE   Cn1
 BYTE   N11  Fs1
 BYTE   W12
 BYTE   N05  Cn1
 BYTE   N05  As1
 BYTE   W06
 BYTE   En1
 BYTE   W06
 BYTE   N11
 BYTE   W12
 BYTE   N11
 BYTE   N11  Fs1
 BYTE   W12
 BYTE   N05  En1
 BYTE   W06
 BYTE   Cn1
 BYTE   N05  En1
 BYTE   W06
// 005   ----------------------------------------
GoodSong_Label_7_01451D0E:
 BYTE   N17  Cn1  v100
 BYTE   N17  An2
 BYTE   W12
 BYTE   N11  Fn2  v036
 BYTE   W06
 BYTE   N05  Cn1  v100
 BYTE   W06
 BYTE   N11  En1
 BYTE   N11  Fn2
 BYTE   W12
 BYTE   Cn1
 BYTE   N11  Fn2  v036
 BYTE   W12
 BYTE   N20  Cn1  v100
 BYTE   N12  Fn2
 BYTE   W12
 BYTE   N11  Fn2  v036
 BYTE   W12
 BYTE   En1  v100
 BYTE   N11  Fn2
 BYTE   W12
 BYTE   Cn1
 BYTE   N11  Fn2  v036
 BYTE   W12
 BYTE   PEND 
// 006   ----------------------------------------
GoodSong_Label_7_01451D3B:
 BYTE   N17  Cn1  v100
 BYTE   N12  Fn2
 BYTE   W12
 BYTE   N11  Fn2  v036
 BYTE   W06
 BYTE   N05  Cn1  v100
 BYTE   W06
 BYTE   N11  En1
 BYTE   N11  Fn2
 BYTE   W12
 BYTE   Cn1
 BYTE   N11  Fn2  v036
 BYTE   W12
 BYTE   N20  Cn1  v100
 BYTE   N12  Fn2
 BYTE   W12
 BYTE   N11  Fn2  v036
 BYTE   W12
 BYTE   En1  v100
 BYTE   N11  Fn2
 BYTE   W12
 BYTE   Cn1
 BYTE   N11  Fn2  v036
 BYTE   W12
 BYTE   PEND 
 BYTE   PATT
  POIN2 GoodSong_Label_7_01451D3B
// 007   ----------------------------------------
GoodSong_Label_7_01451D6D:
 BYTE   N17  Cn1  v100
 BYTE   N12  Fn2
 BYTE   W12
 BYTE   N11  Fn2  v036
 BYTE   W06
 BYTE   N05  Cn1  v100
 BYTE   W06
 BYTE   N11  En1
 BYTE   N11  Fn2
 BYTE   W12
 BYTE   Cn1
 BYTE   N11  Fn2  v036
 BYTE   N11  An2  v100
 BYTE   W12
 BYTE   N05  Fn2
 BYTE   W06
 BYTE   En1
 BYTE   W06
 BYTE   N11
 BYTE   W12
 BYTE   N05
 BYTE   N05  Fn2
 BYTE   W06
 BYTE   En1
 BYTE   W06
 BYTE   N11  Cn1
 BYTE   W12
 BYTE   PEND 
 BYTE   PATT
  POIN2 GoodSong_Label_7_01451D0E
 BYTE   PATT
  POIN2 GoodSong_Label_7_01451D0E
// 008   ----------------------------------------
GoodSong_Label_7_01451DA3:
 BYTE   N17  Cn1  v100
 BYTE   N17  An2
 BYTE   W12
 BYTE   N11  Fn2  v036
 BYTE   W06
 BYTE   N05  Cn1  v100
 BYTE   W06
 BYTE   N11  En1
 BYTE   N11  Fn2
 BYTE   W12
 BYTE   Cn1
 BYTE   N11  Fn2  v036
 BYTE   W12
 BYTE   Cn1  v100
 BYTE   N11  Fn2
 BYTE   W12
 BYTE   Cn1
 BYTE   N11  Fn2  v036
 BYTE   W12
 BYTE   En1  v100
 BYTE   N11  Fn2
 BYTE   W12
 BYTE   Cn1
 BYTE   N11  Fn2  v036
 BYTE   W12
 BYTE   PEND 
// 009   ----------------------------------------
GoodSong_Label_7_01451DD0:
 BYTE   N20  Cn1  v100
 BYTE   N20  En1
 BYTE   N20  Fs1
 BYTE   W24
 BYTE   Cn1
 BYTE   N20  En1
 BYTE   N20  Fs1
 BYTE   W24
 BYTE   N05  Cn1
 BYTE   N05  En1
 BYTE   N05  An1
 BYTE   W06
 BYTE   En1
 BYTE   N05  Gn1
 BYTE   W06
 BYTE   N11  En1
 BYTE   W12
 BYTE   N11
 BYTE   W12
 BYTE   Cn1
 BYTE   N11  En1
 BYTE   W12
 BYTE   PEND 
// 010   ----------------------------------------
GoodSong_Label_7_01451DF3:
 BYTE   N11  Cn1  v100
 BYTE   N11  An2
 BYTE   W12
 BYTE   N05  Fs1
 BYTE   W06
 BYTE   Cn1
 BYTE   W06
 BYTE   N11  En1
 BYTE   N11  Fs1
 BYTE   W12
 BYTE   Cn1
 BYTE   N11  Fs1
 BYTE   W12
 BYTE   Cn1
 BYTE   N11  Fs1
 BYTE   W12
 BYTE   N11
 BYTE   W12
 BYTE   En1
 BYTE   N11  Fs1
 BYTE   W12
 BYTE   Cn1
 BYTE   N11  Fs1
 BYTE   W12
 BYTE   PEND 
 BYTE   PATT
  POIN2 GoodSong_Label_7_01451C72
 BYTE   PATT
  POIN2 GoodSong_Label_7_01451C72
 BYTE   PATT
  POIN2 GoodSong_Label_7_01451C99
 BYTE   PATT
  POIN2 GoodSong_Label_7_01451CBB
 BYTE   PATT
  POIN2 GoodSong_Label_7_01451C72
 BYTE   PATT
  POIN2 GoodSong_Label_7_01451C72
// 011   ----------------------------------------
GoodSong_Label_7_01451E34:
 BYTE   N20  Cn1  v100
 BYTE   N20  As1
 BYTE   N20  An2
 BYTE   W24
 BYTE   En1
 BYTE   N20  Cs2
 BYTE   W24
 BYTE   N05  Cn1
 BYTE   N05  En1
 BYTE   W06
 BYTE   N05
 BYTE   W06
 BYTE   Bn1
 BYTE   W06
 BYTE   An1
 BYTE   W06
 BYTE   Gn1
 BYTE   W06
 BYTE   Fn1
 BYTE   W06
 BYTE   N11  Cn1
 BYTE   N11  Fn1
 BYTE   W12
 BYTE   PEND 
// 012   ----------------------------------------
 BYTE   Cn1
 BYTE   N11  En1
 BYTE   N11  Fs1
 BYTE   N11  An2
 BYTE   W12
 BYTE   Gn1
 BYTE   N11  As1
 BYTE   W12
 BYTE   Fn1
 BYTE   N11  As1
 BYTE   W12
 BYTE   N20  Fn1
 BYTE   N20  As1
 BYTE   W24
 BYTE   N11  Gn1
 BYTE   W12
 BYTE   Fs1
 BYTE   W12
 BYTE   N05
 BYTE   W06
 BYTE   N05
 BYTE   W06
// 013   ----------------------------------------
 BYTE   N11
 BYTE   W12
 BYTE   N05
 BYTE   W06
 BYTE   N05
 BYTE   W06
 BYTE   N11  En1
 BYTE   N11  Fs1
 BYTE   W12
 BYTE   N32  Cn1
 BYTE   N32  As1
 BYTE   W36
 BYTE   N20  Cn1
 BYTE   N20  As1
 BYTE   W24
// 014   ----------------------------------------
 BYTE   N11  Cn1
 BYTE   N11  En1
 BYTE   N11  As1
 BYTE   W12
 BYTE   Gn1
 BYTE   N11  As1
 BYTE   W12
 BYTE   Fn1
 BYTE   N11  As1
 BYTE   W12
 BYTE   N20  Fn1
 BYTE   N20  As1
 BYTE   W24
 BYTE   N11  Gn1
 BYTE   W12
 BYTE   Fs1
 BYTE   W12
 BYTE   N05  Cn1
 BYTE   N05  Fs1
 BYTE   W06
 BYTE   Cn1
 BYTE   N05  Fs1
 BYTE   W06
// 015   ----------------------------------------
 BYTE   N20  En1
 BYTE   W24
 BYTE   N32  Cn1
 BYTE   N32  As1
 BYTE   W36
 BYTE   N11  En1
 BYTE   W12
 BYTE   N11
 BYTE   W12
 BYTE   N11
 BYTE   W12
// 016   ----------------------------------------
 BYTE   Cn1
 BYTE   N11  En1
 BYTE   N11  As1
 BYTE   W12
 BYTE   Gn1
 BYTE   N11  As1
 BYTE   W12
 BYTE   Fn1
 BYTE   N11  As1
 BYTE   W12
 BYTE   N20  En1
 BYTE   N20  Fn1
 BYTE   N20  As1
 BYTE   W24
 BYTE   N11  En1
 BYTE   N11  Gn1
 BYTE   W12
 BYTE   Fs1
 BYTE   W12
 BYTE   N05  An1
 BYTE   W06
 BYTE   N05
 BYTE   W06
// 017   ----------------------------------------
 BYTE   N11  Gn1
 BYTE   N11  As1
 BYTE   W12
 BYTE   Gn1
 BYTE   W12
 BYTE   Fn1
 BYTE   W12
 BYTE   Cn1
 BYTE   N11  Fn1
 BYTE   N11  As1
 BYTE   W12
 BYTE   Gn1
 BYTE   W12
 BYTE   Fn1
 BYTE   W12
 BYTE   N20  Cn1
 BYTE   N20  En1
 BYTE   N20  As1
 BYTE   W24
// 018   ----------------------------------------
 BYTE   N11  Cn1
 BYTE   N11  En1
 BYTE   N11  As1
 BYTE   W12
 BYTE   Gn1
 BYTE   N11  As1
 BYTE   W12
 BYTE   Fn1
 BYTE   N11  As1
 BYTE   W12
 BYTE   N20  En1
 BYTE   N20  Fn1
 BYTE   N20  As1
 BYTE   W24
 BYTE   N11  En1
 BYTE   N11  Gn1
 BYTE   W12
 BYTE   Fs1
 BYTE   W12
 BYTE   N05  Cn1
 BYTE   N05  An1
 BYTE   W06
 BYTE   Cn1
 BYTE   N05  An1
 BYTE   W06
// 019   ----------------------------------------
 BYTE   N20  Cn1
 BYTE   N20  Gn1
 BYTE   W24
 BYTE   N11  Cn1
 BYTE   W12
 BYTE   N11
 BYTE   W12
 BYTE   N11
 BYTE   W12
 BYTE   N11
 BYTE   W12
 BYTE   N11
 BYTE   W12
 BYTE   N11
 BYTE   W12
 BYTE   PATT
  POIN2 GoodSong_Label_7_01451D0E
 BYTE   PATT
  POIN2 GoodSong_Label_7_01451D3B
 BYTE   PATT
  POIN2 GoodSong_Label_7_01451D3B
 BYTE   PATT
  POIN2 GoodSong_Label_7_01451D6D
 BYTE   PATT
  POIN2 GoodSong_Label_7_01451D0E
 BYTE   PATT
  POIN2 GoodSong_Label_7_01451D0E
 BYTE   PATT
  POIN2 GoodSong_Label_7_01451DA3
 BYTE   PATT
  POIN2 GoodSong_Label_7_01451DD0
 BYTE   PATT
  POIN2 GoodSong_Label_7_01451DF3
 BYTE   PATT
  POIN2 GoodSong_Label_7_01451C72
 BYTE   PATT
  POIN2 GoodSong_Label_7_01451C72
 BYTE   PATT
  POIN2 GoodSong_Label_7_01451C99
 BYTE   PATT
  POIN2 GoodSong_Label_7_01451CBB
 BYTE   PATT
  POIN2 GoodSong_Label_7_01451C72
 BYTE   PATT
  POIN2 GoodSong_Label_7_01451C72
 BYTE   PATT
  POIN2 GoodSong_Label_7_01451E34
// 020   ----------------------------------------
 BYTE   N17  Cn1  v100
 BYTE   N17  An2
 BYTE   W18
 BYTE   N05  En1
 BYTE   W06
 BYTE   N11
 BYTE   N11  As1
 BYTE   W12
 BYTE   N20  Cn1
 BYTE   N20  As1
 BYTE   W24
 BYTE   N11  Cn1
 BYTE   N11  As1
 BYTE   W12
 BYTE   N17  Cn1
 BYTE   N17  As1
 BYTE   W18
 BYTE   N05  En1
 BYTE   W06
// 021   ----------------------------------------
 BYTE   N11
 BYTE   N11  As1
 BYTE   W12
 BYTE   Cn1
 BYTE   W12
 BYTE   N11
 BYTE   N11  As1
 BYTE   W12
 BYTE   En1
 BYTE   W12
 BYTE   Cn1
 BYTE   N11  As1
 BYTE   W12
 BYTE   Cn1
 BYTE   W12
 BYTE   N11
 BYTE   N11  As1
 BYTE   W12
 BYTE   En1
 BYTE   W12
// 022   ----------------------------------------
 BYTE   W24
 BYTE   N20  As1
 BYTE   W24
 BYTE   N20
 BYTE   W24
 BYTE   N20
 BYTE   W24
// 023   ----------------------------------------
 BYTE   N11
 BYTE   W12
 BYTE   N05  En1
 BYTE   W06
 BYTE   N11
 BYTE   W12
 BYTE   N05
 BYTE   W06
 BYTE   N11
 BYTE   W12
 BYTE   N05  Gn1
 BYTE   W06
 BYTE   Fn1
 BYTE   W06
 BYTE   N11
 BYTE   W12
 BYTE   Gn1
 BYTE   W12
 BYTE   Fn1
 BYTE   W12
// 024   ----------------------------------------
 BYTE   Cn1
 BYTE   N11  As1
 BYTE   W12
 BYTE   N05  Cn1
 BYTE   W06
 BYTE   En1
 BYTE   W06
 BYTE   N11
 BYTE   N11  As1
 BYTE   W12
 BYTE   N05  En1
 BYTE   W06
 BYTE   N17
 BYTE   W06
 BYTE   N11  As1
 BYTE   W12
 BYTE   N05  En1
 BYTE   W06
 BYTE   N11
 BYTE   W12
 BYTE   N05
 BYTE   W06
 BYTE   N11
 BYTE   TIE  An2
 BYTE   W12
// 025   ----------------------------------------
 BYTE   GoTo
  POIN2 GoodSong_Label_7_01451C36
// 026   ----------------------------------------
 BYTE   W90
 BYTE   EOT
 BYTE   An2
 BYTE   FINE

//******************************************************//
	ALIGN 4

songGoodSong:
	BYTE	8	// NumTrks
	BYTE	0	// NumBlks
	BYTE	GoodSong_pri	// Priority
	BYTE	GoodSong_rev	// Reverb.
    
	POIN2	GoodSong_grp
    
	POIN2	GoodSong_001
	POIN2	GoodSong_002
	POIN2	GoodSong_003
	POIN2	GoodSong_004
	POIN2	GoodSong_005
	POIN2	GoodSong_006
	POIN2	GoodSong_007
	POIN2	GoodSong_008

	
