//Event file generated from Sappy .s format.
	#include "MPlayDef.event"

	#define	HandCombat_grp  voicegroup000
	#define	HandCombat_pri  0
	#define	HandCombat_rev  0
	#define	HandCombat_mvl  127
	#define	HandCombat_key  0
	#define	HandCombat_tbs  1
	#define	HandCombat_exg  0
	#define	HandCombat_cmp  1

	// .rodata
	//	HandCombat
	ALIGN 4


//**************** Track 1 (Midi-Chn.0) ****************//

HandCombat_001:
// 000   ----------------------------------------
 BYTE   KEYSH   HandCombat_key+0
Label_HandCombat0_014632B6:
 BYTE   TEMPO   150*HandCombat_tbs/2
 BYTE   VOICE   81
 BYTE   VOL   60*HandCombat_mvl/mxv
 BYTE   PAN   c_v+0
 BYTE   N68  Cn3  v100
 BYTE   W72
 BYTE   N23  Gn3
 BYTE   W24
// 001   ----------------------------------------
 BYTE   N32  Dn3
 BYTE   W36
 BYTE   Ds3
 BYTE   W36
 BYTE   N23  Dn4
 BYTE   W24
// 002   ----------------------------------------
 BYTE   TIE  An3
 BYTE   W96
// 003   ----------------------------------------
 BYTE   W68
 BYTE   W03
 BYTE   EOT
 BYTE   W01
 BYTE   N11
 BYTE   W12
 BYTE   As3
 BYTE   W12
// 004   ----------------------------------------
Label_HandCombat0_014632D8:
 BYTE   N32  Cn4  v100
 BYTE   W36
 BYTE   An3
 BYTE   W36
 BYTE   N23  Fn3
 BYTE   W24
 BYTE   PEND 
// 005   ----------------------------------------
 BYTE   N32  Dn4
 BYTE   W36
 BYTE   As3
 BYTE   W36
 BYTE   N23  An3
 BYTE   W24
// 006   ----------------------------------------
 BYTE   As3
 BYTE   W24
 BYTE   N11  Gn3
 BYTE   W12
 BYTE   TIE  Dn4
 BYTE   W60
// 007   ----------------------------------------
 BYTE   W68
 BYTE   W03
 BYTE   EOT
 BYTE   W01
 BYTE   N23
 BYTE   W24
// 008   ----------------------------------------
 BYTE   N68  Fn4
 BYTE   W72
 BYTE   N11  Ds4
 BYTE   W12
 BYTE   Dn4
 BYTE   W12
// 009   ----------------------------------------
 BYTE   TIE  Ds4
 BYTE   W96
// 010   ----------------------------------------
 BYTE   W44
 BYTE   W03
 BYTE   EOT
 BYTE   W01
 BYTE   N23
 BYTE   W24
 BYTE   Dn4
 BYTE   W24
 BYTE   PATT
  POIN2 Label_HandCombat0_014632D8
// 011   ----------------------------------------
 BYTE   N32  Dn4  v100
 BYTE   W36
 BYTE   TIE  Gn4
 BYTE   W60
// 012   ----------------------------------------
 BYTE   W68
 BYTE   W03
 BYTE   EOT
 BYTE   W24
 BYTE   W01
// 013   ----------------------------------------
 BYTE   W96
// 014   ----------------------------------------
 BYTE   N23
 BYTE   W36
 BYTE   TIE  Gs4
 BYTE   W60
// 015   ----------------------------------------
 BYTE   W92
 BYTE   W03
 BYTE   EOT
 BYTE   W01
// 016   ----------------------------------------
 BYTE   W96
// 017   ----------------------------------------
 BYTE   W96
// 018   ----------------------------------------
 BYTE   W96
// 019   ----------------------------------------
 BYTE   W96
// 020   ----------------------------------------
 BYTE   W96
// 021   ----------------------------------------
 BYTE   W96
// 022   ----------------------------------------
 BYTE   W96
// 023   ----------------------------------------
 BYTE   W96
// 024   ----------------------------------------
 BYTE   W96
// 025   ----------------------------------------
 BYTE   W96
// 026   ----------------------------------------
 BYTE   W96
// 027   ----------------------------------------
 BYTE   W96
// 028   ----------------------------------------
 BYTE   W96
// 029   ----------------------------------------
 BYTE   W96
// 030   ----------------------------------------
 BYTE   W96
// 031   ----------------------------------------
 BYTE   W96
// 032   ----------------------------------------
 BYTE   W96
// 033   ----------------------------------------
 BYTE   W96
// 034   ----------------------------------------
 BYTE   W96
// 035   ----------------------------------------
 BYTE   W96
// 036   ----------------------------------------
 BYTE   W96
// 037   ----------------------------------------
 BYTE   W96
// 038   ----------------------------------------
 BYTE   W96
// 039   ----------------------------------------
 BYTE   W96
// 040   ----------------------------------------
 BYTE   W96
// 041   ----------------------------------------
 BYTE   W96
// 042   ----------------------------------------
 BYTE   W96
// 043   ----------------------------------------
 BYTE   W96
// 044   ----------------------------------------
 BYTE   W96
// 045   ----------------------------------------
 BYTE   W96
// 046   ----------------------------------------
 BYTE   W96
// 047   ----------------------------------------
 BYTE   W96
// 048   ----------------------------------------
 BYTE   W96
// 049   ----------------------------------------
 BYTE   W96
// 050   ----------------------------------------
 BYTE   W96
// 051   ----------------------------------------
 BYTE   W96
// 052   ----------------------------------------
 BYTE   W96
// 053   ----------------------------------------
 BYTE   W96
// 054   ----------------------------------------
 BYTE   W96
// 055   ----------------------------------------
 BYTE   W96
// 056   ----------------------------------------
 BYTE   W96
// 057   ----------------------------------------
 BYTE   W96
// 058   ----------------------------------------
 BYTE   W96
// 059   ----------------------------------------
 BYTE   W96
// 060   ----------------------------------------
 BYTE   W96
// 061   ----------------------------------------
 BYTE   W96
// 062   ----------------------------------------
 BYTE   W96
// 063   ----------------------------------------
 BYTE   W96
// 064   ----------------------------------------
 BYTE   W96
// 065   ----------------------------------------
 BYTE   W96
// 066   ----------------------------------------
 BYTE   W96
// 067   ----------------------------------------
 BYTE   W96
// 068   ----------------------------------------
 BYTE   W96
// 069   ----------------------------------------
 BYTE   W96
// 070   ----------------------------------------
 BYTE   W96
// 071   ----------------------------------------
 BYTE   W96
// 072   ----------------------------------------
 BYTE   W96
// 073   ----------------------------------------
 BYTE   W96
// 074   ----------------------------------------
 BYTE   W96
// 075   ----------------------------------------
 BYTE   W96
// 076   ----------------------------------------
 BYTE   W96
// 077   ----------------------------------------
 BYTE   GoTo
  POIN2 Label_HandCombat0_014632B6
 BYTE   FINE

//**************** Track 2 (Midi-Chn.1) ****************//

HandCombat_002:
// 000   ----------------------------------------
 BYTE   KEYSH   HandCombat_key+0
Label_HandCombat1_0146336E:
 BYTE   VOICE   48
 BYTE   VOL   60*HandCombat_mvl/mxv
 BYTE   PAN   c_v+0
 BYTE   N68  Cn3  v100
 BYTE   W72
 BYTE   N23  Gn3
 BYTE   W24
// 001   ----------------------------------------
 BYTE   N32  Dn3
 BYTE   W36
 BYTE   Ds3
 BYTE   W36
 BYTE   N23  Dn4
 BYTE   W24
// 002   ----------------------------------------
 BYTE   TIE  An3
 BYTE   W96
// 003   ----------------------------------------
 BYTE   W68
 BYTE   W03
 BYTE   EOT
 BYTE   W01
 BYTE   N11
 BYTE   W12
 BYTE   As3
 BYTE   W12
// 004   ----------------------------------------
Label_HandCombat1_0146338E:
 BYTE   N32  Cn4  v100
 BYTE   W36
 BYTE   An3
 BYTE   W36
 BYTE   N23  Fn3
 BYTE   W24
 BYTE   PEND 
// 005   ----------------------------------------
 BYTE   N32  Dn4
 BYTE   W36
 BYTE   As3
 BYTE   W36
 BYTE   N23  An3
 BYTE   W24
// 006   ----------------------------------------
 BYTE   As3
 BYTE   W24
 BYTE   N11  Gn3
 BYTE   W12
 BYTE   TIE  Dn4
 BYTE   W60
// 007   ----------------------------------------
 BYTE   W68
 BYTE   W03
 BYTE   EOT
 BYTE   W01
 BYTE   N23
 BYTE   W24
// 008   ----------------------------------------
 BYTE   N68  Fn4
 BYTE   W72
 BYTE   N11  Ds4
 BYTE   W12
 BYTE   Dn4
 BYTE   W12
// 009   ----------------------------------------
 BYTE   TIE  Ds4
 BYTE   W96
// 010   ----------------------------------------
 BYTE   W44
 BYTE   W03
 BYTE   EOT
 BYTE   W01
 BYTE   N23
 BYTE   W24
 BYTE   Dn4
 BYTE   W24
 BYTE   PATT
  POIN2 Label_HandCombat1_0146338E
// 011   ----------------------------------------
 BYTE   N32  Dn4  v100
 BYTE   W36
 BYTE   TIE  Gn4
 BYTE   W60
// 012   ----------------------------------------
 BYTE   W96
// 013   ----------------------------------------
 BYTE   W92
 BYTE   W03
 BYTE   EOT
 BYTE   W01
// 014   ----------------------------------------
 BYTE   N11
 BYTE   W36
 BYTE   N56  Gs4
 BYTE   W60
// 015   ----------------------------------------
 BYTE   W24
 BYTE   N05  Dn5
 BYTE   W06
 BYTE   Ds5
 BYTE   W06
 BYTE   As5
 BYTE   W06
 BYTE   Gs5
 BYTE   W06
 BYTE   Gn5
 BYTE   W06
 BYTE   Ds5
 BYTE   W06
 BYTE   Cn5
 BYTE   W06
 BYTE   As4
 BYTE   W06
 BYTE   Gs4
 BYTE   W06
 BYTE   Gn4
 BYTE   W06
 BYTE   Ds4
 BYTE   W06
 BYTE   Cn4
 BYTE   W06
// 016   ----------------------------------------
 BYTE   As3
 BYTE   W06
 BYTE   Gs3
 BYTE   W06
 BYTE   Gn3
 BYTE   W06
 BYTE   Ds3
 BYTE   W06
 BYTE   Cn3
 BYTE   W06
 BYTE   As2
 BYTE   W06
 BYTE   Gs2
 BYTE   W06
 BYTE   Gn2
 BYTE   W06
 BYTE   Ds2
 BYTE   W06
 BYTE   Cn2
 BYTE   W06
 BYTE   As1
 BYTE   W06
 BYTE   Gs1
 BYTE   W06
 BYTE   Gn1
 BYTE   W06
 BYTE   Ds1
 BYTE   W06
 BYTE   Cn1
 BYTE   W06
 BYTE   As0
 BYTE   W06
// 017   ----------------------------------------
 BYTE   W96
// 018   ----------------------------------------
 BYTE   W96
// 019   ----------------------------------------
Label_HandCombat1_01463413:
 BYTE   N11  Cn4  v100
 BYTE   W36
 BYTE   N11
 BYTE   W60
 BYTE   PEND 
 BYTE   PATT
  POIN2 Label_HandCombat1_01463413
// 020   ----------------------------------------
Label_HandCombat1_0146341F:
 BYTE   N32  Cn3  v100
 BYTE   W36
 BYTE   N44  Gn3
 BYTE   W48
 BYTE   N05  Fn3
 BYTE   W06
 BYTE   Ds3
 BYTE   W06
 BYTE   PEND 
// 021   ----------------------------------------
Label_HandCombat1_0146342C:
 BYTE   N32  Dn3  v100
 BYTE   W36
 BYTE   Ds3
 BYTE   W36
 BYTE   N23  Cn4
 BYTE   W24
 BYTE   PEND 
// 022   ----------------------------------------
 BYTE   TIE  Gn3
 BYTE   W96
// 023   ----------------------------------------
 BYTE   W44
 BYTE   W03
 BYTE   EOT
 BYTE   W24
 BYTE   W01
 BYTE   N11
 BYTE   W12
 BYTE   Gs3
 BYTE   W12
// 024   ----------------------------------------
 BYTE   N68  As3
 BYTE   W72
 BYTE   N11  Gs3
 BYTE   W12
 BYTE   Gn3
 BYTE   W12
// 025   ----------------------------------------
 BYTE   TIE  Gs3
 BYTE   W96
// 026   ----------------------------------------
 BYTE   W23
 BYTE   EOT
 BYTE   W01
 BYTE   N32
 BYTE   W36
 BYTE   N11  Gn3
 BYTE   W12
 BYTE   Fn3
 BYTE   W12
 BYTE   Ds3
 BYTE   W12
// 027   ----------------------------------------
 BYTE   N23
 BYTE   W24
 BYTE   Dn3
 BYTE   W24
 BYTE   Gn3
 BYTE   W24
 BYTE   Gn2
 BYTE   W24
 BYTE   PATT
  POIN2 Label_HandCombat1_0146341F
 BYTE   PATT
  POIN2 Label_HandCombat1_0146342C
// 028   ----------------------------------------
 BYTE   TIE  As3  v100
 BYTE   W96
// 029   ----------------------------------------
 BYTE   W23
 BYTE   EOT
 BYTE   W01
 BYTE   N23
 BYTE   W24
 BYTE   Gs3
 BYTE   W24
 BYTE   Gn3
 BYTE   W24
// 030   ----------------------------------------
 BYTE   N17  Gs3
 BYTE   W18
 BYTE   Ds3
 BYTE   W18
 BYTE   N68  Ds4
 BYTE   W60
// 031   ----------------------------------------
 BYTE   W12
 BYTE   N17  Dn4
 BYTE   W18
 BYTE   Ds4
 BYTE   W18
 BYTE   Gn4
 BYTE   W18
 BYTE   Fn4
 BYTE   W18
 BYTE   N11  Ds4
 BYTE   W12
// 032   ----------------------------------------
 BYTE   N92  Dn4
 BYTE   W96
// 033   ----------------------------------------
 BYTE   N44  Ds4
 BYTE   W48
 BYTE   Dn4
 BYTE   W24
 BYTE   N11  Gn4
 BYTE   W12
 BYTE   As4
 BYTE   W12
// 034   ----------------------------------------
 BYTE   N32  Cn5
 BYTE   W36
 BYTE   Cs5
 BYTE   W36
 BYTE   N68  Ds4
 BYTE   W24
// 035   ----------------------------------------
 BYTE   W48
 BYTE   N17  Cs5
 BYTE   W18
 BYTE   Cn5
 BYTE   W18
 BYTE   N11  Gs4
 BYTE   W12
// 036   ----------------------------------------
 BYTE   N32  As4
 BYTE   W36
 BYTE   N80  Ds5
 BYTE   W60
// 037   ----------------------------------------
 BYTE   W24
 BYTE   N23  Cn5
 BYTE   W24
 BYTE   As4
 BYTE   W24
 BYTE   N11  Gs4
 BYTE   W12
 BYTE   Gn4
 BYTE   W12
// 038   ----------------------------------------
 BYTE   N32  Gs4
 BYTE   W36
 BYTE   Cs5
 BYTE   W36
 BYTE   Ds4
 BYTE   W24
// 039   ----------------------------------------
 BYTE   W12
 BYTE   N17
 BYTE   W18
 BYTE   Fn4
 BYTE   W18
 BYTE   Gn4
 BYTE   W18
 BYTE   Gs4
 BYTE   W18
 BYTE   N11  Cn5
 BYTE   W12
// 040   ----------------------------------------
 BYTE   N80  Ds5
 BYTE   W84
 BYTE   N05  Dn5
 BYTE   W06
 BYTE   Ds5
 BYTE   W06
// 041   ----------------------------------------
 BYTE   N32  Fn5
 BYTE   W36
 BYTE   N05  Ds5
 BYTE   W06
 BYTE   Fn5
 BYTE   W06
 BYTE   N32  Gn5
 BYTE   W36
 BYTE   N05  Fn5
 BYTE   W06
 BYTE   Gn5
 BYTE   W06
// 042   ----------------------------------------
 BYTE   TIE  Gs5
 BYTE   W96
// 043   ----------------------------------------
 BYTE   W92
 BYTE   W03
 BYTE   EOT
 BYTE   W01
// 044   ----------------------------------------
 BYTE   W96
// 045   ----------------------------------------
 BYTE   W96
// 046   ----------------------------------------
 BYTE   W96
// 047   ----------------------------------------
 BYTE   W96
// 048   ----------------------------------------
 BYTE   W96
// 049   ----------------------------------------
 BYTE   W24
 BYTE   N23  Gn4  v064
 BYTE   W24
 BYTE   Gs4
 BYTE   W24
 BYTE   N17  Ds5
 BYTE   W18
 BYTE   N02  Dn5
 BYTE   W02
 BYTE   Cs5
 BYTE   W04
// 050   ----------------------------------------
 BYTE   N92  Cn5
 BYTE   W96
// 051   ----------------------------------------
 BYTE   Cs5
 BYTE   W96
// 052   ----------------------------------------
 BYTE   N68  Fn4
 BYTE   W72
 BYTE   N23  Gn4
 BYTE   W24
// 053   ----------------------------------------
 BYTE   N56  Ds4
 BYTE   W60
 BYTE   N11  Cs4
 BYTE   W12
 BYTE   Cn4
 BYTE   W12
 BYTE   Cs4
 BYTE   W12
// 054   ----------------------------------------
 BYTE   N44  Ds4
 BYTE   W48
 BYTE   N11  Gn3
 BYTE   W12
 BYTE   Gs3
 BYTE   W12
 BYTE   As3
 BYTE   W12
 BYTE   Ds4
 BYTE   W12
// 055   ----------------------------------------
 BYTE   Gn4
 BYTE   W12
 BYTE   Ds4
 BYTE   W12
 BYTE   Ds5
 BYTE   W12
 BYTE   Cn5
 BYTE   W12
 BYTE   Cs5
 BYTE   W12
 BYTE   As4
 BYTE   W12
 BYTE   Gs4
 BYTE   W12
 BYTE   Gn4
 BYTE   W12
// 056   ----------------------------------------
 BYTE   N32
 BYTE   W36
 BYTE   Gs4
 BYTE   W36
 BYTE   N80  Ds5
 BYTE   W24
// 057   ----------------------------------------
 BYTE   W60
 BYTE   N11
 BYTE   W12
 BYTE   Cs5
 BYTE   W12
 BYTE   Ds5
 BYTE   W12
// 058   ----------------------------------------
 BYTE   TIE  Fn5
 BYTE   W96
// 059   ----------------------------------------
 BYTE   W23
 BYTE   EOT
 BYTE   W01
 BYTE   N11
 BYTE   W12
 BYTE   Gn5
 BYTE   W12
 BYTE   Gs5
 BYTE   W12
 BYTE   Gn5
 BYTE   W12
 BYTE   Fn5
 BYTE   W12
 BYTE   Ds5
 BYTE   W12
// 060   ----------------------------------------
 BYTE   N92
 BYTE   W96
// 061   ----------------------------------------
 BYTE   As4
 BYTE   W96
// 062   ----------------------------------------
 BYTE   W24
 BYTE   N23
 BYTE   W24
 BYTE   N17
 BYTE   W18
 BYTE   Gs4
 BYTE   W18
 BYTE   N11  Gn4
 BYTE   W12
// 063   ----------------------------------------
 BYTE   N32
 BYTE   W36
 BYTE   N11  Cn4
 BYTE   W12
 BYTE   Cs4
 BYTE   W12
 BYTE   Ds4
 BYTE   W12
 BYTE   Fn4
 BYTE   W12
 BYTE   Gn4
 BYTE   W12
// 064   ----------------------------------------
 BYTE   N32  As4
 BYTE   W36
 BYTE   N05  Gs4
 BYTE   W06
 BYTE   Gn4
 BYTE   W06
 BYTE   N92  Gs4
 BYTE   W48
// 065   ----------------------------------------
 BYTE   W48
 BYTE   N05  Gn4
 BYTE   W06
 BYTE   Gs4
 BYTE   W06
 BYTE   As4
 BYTE   W06
 BYTE   Cn5
 BYTE   W06
 BYTE   N11  Cs5
 BYTE   W12
 BYTE   N08  Fn5
 BYTE   W08
 BYTE   N02  Gn5
 BYTE   W04
// 066   ----------------------------------------
 BYTE   N05  Fn5
 BYTE   W06
 BYTE   Ds5  v060
 BYTE   W06
 BYTE   Cs5
 BYTE   W06
 BYTE   Cn5  v056
 BYTE   W06
 BYTE   As4  v052
 BYTE   W06
 BYTE   Gs4  v048
 BYTE   W06
 BYTE   Gn4  v044
 BYTE   W06
 BYTE   Fn4
 BYTE   W06
 BYTE   Ds4  v036
 BYTE   W06
 BYTE   Cs4  v032
 BYTE   W06
 BYTE   Cn4  v028
 BYTE   W06
 BYTE   As3  v024
 BYTE   W06
 BYTE   Gs3  v020
 BYTE   W06
 BYTE   Gn3  v012
 BYTE   W06
 BYTE   Fn3  v004
 BYTE   W12
// 067   ----------------------------------------
 BYTE   W96
// 068   ----------------------------------------
 BYTE   N11  Cn2  v040
 BYTE   W12
 BYTE   Ds2  v048
 BYTE   W12
 BYTE   Dn2  v060
 BYTE   W12
 BYTE   Ds2  v068
 BYTE   W12
 BYTE   Cn2  v072
 BYTE   W12
 BYTE   Ds2  v068
 BYTE   W12
 BYTE   Dn2  v060
 BYTE   W12
 BYTE   Cn2  v068
 BYTE   W12
// 069   ----------------------------------------
Label_HandCombat1_014635D1:
 BYTE   W12
 BYTE   N11  Ds2  v048
 BYTE   W12
 BYTE   Dn2  v056
 BYTE   W12
 BYTE   Ds2  v072
 BYTE   W12
 BYTE   Cn2  v076
 BYTE   W12
 BYTE   Ds2
 BYTE   W12
 BYTE   Dn2  v068
 BYTE   W12
 BYTE   Cn2  v052
 BYTE   W12
 BYTE   PEND 
// 070   ----------------------------------------
 BYTE   W96
// 071   ----------------------------------------
 BYTE   W96
// 072   ----------------------------------------
 BYTE   Cn2  v040
 BYTE   W12
 BYTE   Ds2  v048
 BYTE   W12
 BYTE   Dn2  v060
 BYTE   W12
 BYTE   Ds2  v068
 BYTE   W24
 BYTE   N11
 BYTE   W12
 BYTE   Dn2  v060
 BYTE   W12
 BYTE   Cn2  v048
 BYTE   W12
 BYTE   PATT
  POIN2 Label_HandCombat1_014635D1
// 073   ----------------------------------------
 BYTE   GoTo
  POIN2 Label_HandCombat1_0146336E
 BYTE   FINE

//**************** Track 3 (Midi-Chn.2) ****************//

HandCombat_003:
// 000   ----------------------------------------
 BYTE   KEYSH   HandCombat_key+0
Label_HandCombat2_0146360E:
 BYTE   VOICE   35
 BYTE   VOL   45*HandCombat_mvl/mxv
 BYTE   PAN   c_v+0
 BYTE   N05  Cn1  v100
 BYTE   W12
 BYTE   N05
 BYTE   W12
 BYTE   N05
 BYTE   W12
 BYTE   N05
 BYTE   W12
 BYTE   N05
 BYTE   W12
 BYTE   N05
 BYTE   W12
 BYTE   N05
 BYTE   W12
 BYTE   N05
 BYTE   W12
// 001   ----------------------------------------
Label_HandCombat2_01463626:
 BYTE   N05  Cn1  v100
 BYTE   W12
 BYTE   N05
 BYTE   W12
 BYTE   N05
 BYTE   W12
 BYTE   N05
 BYTE   W12
 BYTE   N05
 BYTE   W12
 BYTE   N05
 BYTE   W12
 BYTE   N05
 BYTE   W12
 BYTE   N05
 BYTE   W12
 BYTE   PEND 
// 002   ----------------------------------------
Label_HandCombat2_01463639:
 BYTE   N05  Fn1  v100
 BYTE   W12
 BYTE   N05
 BYTE   W12
 BYTE   N05
 BYTE   W12
 BYTE   N05
 BYTE   W12
 BYTE   N05
 BYTE   W12
 BYTE   N05
 BYTE   W12
 BYTE   N05
 BYTE   W12
 BYTE   N05
 BYTE   W12
 BYTE   PEND 
 BYTE   PATT
  POIN2 Label_HandCombat2_01463639
// 003   ----------------------------------------
Label_HandCombat2_01463651:
 BYTE   N05  Dn1  v100
 BYTE   W12
 BYTE   N05
 BYTE   W12
 BYTE   N05
 BYTE   W12
 BYTE   N05
 BYTE   W12
 BYTE   N05
 BYTE   W12
 BYTE   N05
 BYTE   W12
 BYTE   N05
 BYTE   W12
 BYTE   N05
 BYTE   W12
 BYTE   PEND 
 BYTE   PATT
  POIN2 Label_HandCombat2_01463651
// 004   ----------------------------------------
Label_HandCombat2_01463669:
 BYTE   N05  Gn1  v100
 BYTE   W12
 BYTE   N05
 BYTE   W12
 BYTE   N05
 BYTE   W12
 BYTE   N05
 BYTE   W12
 BYTE   N05
 BYTE   W12
 BYTE   N05
 BYTE   W12
 BYTE   N05
 BYTE   W12
 BYTE   N05
 BYTE   W12
 BYTE   PEND 
 BYTE   PATT
  POIN2 Label_HandCombat2_01463669
// 005   ----------------------------------------
Label_HandCombat2_01463681:
 BYTE   N05  Ds1  v100
 BYTE   W12
 BYTE   N05
 BYTE   W12
 BYTE   N05
 BYTE   W12
 BYTE   N05
 BYTE   W12
 BYTE   N05
 BYTE   W12
 BYTE   N05
 BYTE   W12
 BYTE   N05
 BYTE   W12
 BYTE   N05
 BYTE   W12
 BYTE   PEND 
 BYTE   PATT
  POIN2 Label_HandCombat2_01463681
 BYTE   PATT
  POIN2 Label_HandCombat2_01463639
 BYTE   PATT
  POIN2 Label_HandCombat2_01463639
 BYTE   PATT
  POIN2 Label_HandCombat2_01463669
 BYTE   PATT
  POIN2 Label_HandCombat2_01463669
 BYTE   PATT
  POIN2 Label_HandCombat2_01463669
// 006   ----------------------------------------
 BYTE   N32  Gn1  v100
 BYTE   W36
 BYTE   N32
 BYTE   W60
// 007   ----------------------------------------
 BYTE   W96
// 008   ----------------------------------------
 BYTE   W96
 BYTE   PATT
  POIN2 Label_HandCombat2_01463626
 BYTE   PATT
  POIN2 Label_HandCombat2_01463626
 BYTE   PATT
  POIN2 Label_HandCombat2_01463626
 BYTE   PATT
  POIN2 Label_HandCombat2_01463626
// 009   ----------------------------------------
Label_HandCombat2_014636CE:
 BYTE   N05  Cn1  v100
 BYTE   W12
 BYTE   N05
 BYTE   W12
 BYTE   N05
 BYTE   W12
 BYTE   N05
 BYTE   W12
 BYTE   N05
 BYTE   W12
 BYTE   N05
 BYTE   W12
 BYTE   N05
 BYTE   W12
 BYTE   Gn1
 BYTE   W12
 BYTE   PEND 
 BYTE   PATT
  POIN2 Label_HandCombat2_014636CE
// 010   ----------------------------------------
Label_HandCombat2_014636E6:
 BYTE   N05  Ds1  v100
 BYTE   W12
 BYTE   N05
 BYTE   W12
 BYTE   N05
 BYTE   W12
 BYTE   N05
 BYTE   W12
 BYTE   N05
 BYTE   W12
 BYTE   N05
 BYTE   W12
 BYTE   N05
 BYTE   W12
 BYTE   Cn2
 BYTE   W12
 BYTE   PEND 
 BYTE   PATT
  POIN2 Label_HandCombat2_014636E6
// 011   ----------------------------------------
 BYTE   N05  Fn1  v100
 BYTE   W12
 BYTE   N05
 BYTE   W12
 BYTE   N05
 BYTE   W12
 BYTE   N05
 BYTE   W12
 BYTE   N05
 BYTE   W12
 BYTE   N05
 BYTE   W12
 BYTE   N05
 BYTE   W12
 BYTE   Cn2
 BYTE   W12
// 012   ----------------------------------------
Label_HandCombat2_01463710:
 BYTE   N05  Fn1  v100
 BYTE   W12
 BYTE   N05
 BYTE   W12
 BYTE   N05
 BYTE   W12
 BYTE   N05
 BYTE   W12
 BYTE   N05
 BYTE   W12
 BYTE   Ds1
 BYTE   W12
 BYTE   Fn1
 BYTE   W12
 BYTE   Gn1
 BYTE   W12
 BYTE   PEND 
// 013   ----------------------------------------
 BYTE   Gs1
 BYTE   W12
 BYTE   N05
 BYTE   W12
 BYTE   N05
 BYTE   W12
 BYTE   N05
 BYTE   W12
 BYTE   N05
 BYTE   W12
 BYTE   N05
 BYTE   W12
 BYTE   N05
 BYTE   W12
 BYTE   Ds2
 BYTE   W12
// 014   ----------------------------------------
 BYTE   As1
 BYTE   W12
 BYTE   N05
 BYTE   W12
 BYTE   N05
 BYTE   W12
 BYTE   N05
 BYTE   W12
 BYTE   N05
 BYTE   W12
 BYTE   Cn2
 BYTE   W12
 BYTE   Dn2
 BYTE   W12
 BYTE   As1
 BYTE   W12
 BYTE   PATT
  POIN2 Label_HandCombat2_014636CE
 BYTE   PATT
  POIN2 Label_HandCombat2_014636CE
 BYTE   PATT
  POIN2 Label_HandCombat2_014636E6
 BYTE   PATT
  POIN2 Label_HandCombat2_014636E6
 BYTE   PATT
  POIN2 Label_HandCombat2_01463639
 BYTE   PATT
  POIN2 Label_HandCombat2_01463710
// 015   ----------------------------------------
Label_HandCombat2_01463761:
 BYTE   N05  Gs1  v100
 BYTE   W12
 BYTE   N05
 BYTE   W12
 BYTE   N05
 BYTE   W12
 BYTE   N05
 BYTE   W12
 BYTE   N05
 BYTE   W12
 BYTE   N05
 BYTE   W12
 BYTE   N05
 BYTE   W12
 BYTE   N05
 BYTE   W12
 BYTE   PEND 
// 016   ----------------------------------------
Label_HandCombat2_01463774:
 BYTE   N05  As1  v100
 BYTE   W12
 BYTE   N05
 BYTE   W12
 BYTE   N05
 BYTE   W12
 BYTE   N05
 BYTE   W12
 BYTE   N05
 BYTE   W12
 BYTE   N05
 BYTE   W12
 BYTE   N05
 BYTE   W12
 BYTE   N05
 BYTE   W12
 BYTE   PEND 
 BYTE   PATT
  POIN2 Label_HandCombat2_01463761
 BYTE   PATT
  POIN2 Label_HandCombat2_01463761
 BYTE   PATT
  POIN2 Label_HandCombat2_01463774
 BYTE   PATT
  POIN2 Label_HandCombat2_01463774
// 017   ----------------------------------------
Label_HandCombat2_0146379B:
 BYTE   N05  Cs2  v100
 BYTE   W12
 BYTE   N05
 BYTE   W12
 BYTE   N05
 BYTE   W12
 BYTE   N05
 BYTE   W12
 BYTE   N05
 BYTE   W12
 BYTE   N05
 BYTE   W12
 BYTE   N05
 BYTE   W12
 BYTE   N05
 BYTE   W12
 BYTE   PEND 
 BYTE   PATT
  POIN2 Label_HandCombat2_0146379B
 BYTE   PATT
  POIN2 Label_HandCombat2_01463761
 BYTE   PATT
  POIN2 Label_HandCombat2_01463761
// 018   ----------------------------------------
Label_HandCombat2_014637BD:
 BYTE   N05  Cs1  v100
 BYTE   W12
 BYTE   N05
 BYTE   W12
 BYTE   N05
 BYTE   W12
 BYTE   N05
 BYTE   W12
 BYTE   N05
 BYTE   W12
 BYTE   N05
 BYTE   W12
 BYTE   N05
 BYTE   W12
 BYTE   N05
 BYTE   W12
 BYTE   PEND 
 BYTE   PATT
  POIN2 Label_HandCombat2_014637BD
 BYTE   PATT
  POIN2 Label_HandCombat2_014637BD
 BYTE   PATT
  POIN2 Label_HandCombat2_014637BD
 BYTE   PATT
  POIN2 Label_HandCombat2_01463626
 BYTE   PATT
  POIN2 Label_HandCombat2_01463626
 BYTE   PATT
  POIN2 Label_HandCombat2_01463639
// 019   ----------------------------------------
 BYTE   N05  Fn1  v100
 BYTE   W12
 BYTE   N05
 BYTE   W12
 BYTE   N05
 BYTE   W12
 BYTE   N05
 BYTE   W12
 BYTE   Ds1
 BYTE   W12
 BYTE   N05
 BYTE   W12
 BYTE   N05
 BYTE   W12
 BYTE   N05
 BYTE   W12
// 020   ----------------------------------------
Label_HandCombat2_01463800:
 BYTE   N23  Cs1  v100
 BYTE   W24
 BYTE   N05  Cs2
 BYTE   W12
 BYTE   Cs1
 BYTE   W12
 BYTE   N05
 BYTE   W12
 BYTE   N05
 BYTE   W12
 BYTE   N05
 BYTE   W12
 BYTE   Cs2
 BYTE   W12
 BYTE   PEND 
 BYTE   PATT
  POIN2 Label_HandCombat2_01463800
// 021   ----------------------------------------
Label_HandCombat2_01463817:
 BYTE   N23  Cs1  v100
 BYTE   W24
 BYTE   N05  Ds2
 BYTE   W12
 BYTE   Cs1
 BYTE   W12
 BYTE   N05
 BYTE   W12
 BYTE   N05
 BYTE   W12
 BYTE   N05
 BYTE   W12
 BYTE   Ds2
 BYTE   W12
 BYTE   PEND 
 BYTE   PATT
  POIN2 Label_HandCombat2_01463817
// 022   ----------------------------------------
Label_HandCombat2_0146382E:
 BYTE   N23  Cn1  v100
 BYTE   W24
 BYTE   N05  Cn2
 BYTE   W12
 BYTE   Cn1
 BYTE   W12
 BYTE   N05
 BYTE   W12
 BYTE   N05
 BYTE   W12
 BYTE   N05
 BYTE   W12
 BYTE   Cn2
 BYTE   W12
 BYTE   PEND 
 BYTE   PATT
  POIN2 Label_HandCombat2_0146382E
// 023   ----------------------------------------
Label_HandCombat2_01463845:
 BYTE   N23  Fn1  v100
 BYTE   W24
 BYTE   N05  Fn2
 BYTE   W12
 BYTE   Fn1
 BYTE   W12
 BYTE   N05
 BYTE   W12
 BYTE   N05
 BYTE   W12
 BYTE   N05
 BYTE   W12
 BYTE   Fn2
 BYTE   W12
 BYTE   PEND 
 BYTE   PATT
  POIN2 Label_HandCombat2_01463845
 BYTE   PATT
  POIN2 Label_HandCombat2_01463800
 BYTE   PATT
  POIN2 Label_HandCombat2_01463800
 BYTE   PATT
  POIN2 Label_HandCombat2_01463817
 BYTE   PATT
  POIN2 Label_HandCombat2_01463817
 BYTE   PATT
  POIN2 Label_HandCombat2_0146382E
 BYTE   PATT
  POIN2 Label_HandCombat2_0146382E
 BYTE   PATT
  POIN2 Label_HandCombat2_01463845
 BYTE   PATT
  POIN2 Label_HandCombat2_01463845
// 024   ----------------------------------------
 BYTE   N23  Fn1  v076
 BYTE   W24
 BYTE   N05  Fn2
 BYTE   W12
 BYTE   Fn1
 BYTE   W12
 BYTE   N05
 BYTE   W12
 BYTE   N05
 BYTE   W12
 BYTE   Fn1  v072
 BYTE   W12
 BYTE   Fn2
 BYTE   W12
// 025   ----------------------------------------
 BYTE   N23  Fn1
 BYTE   W24
 BYTE   N05  Gn2
 BYTE   W12
 BYTE   Fn1
 BYTE   W12
 BYTE   N05
 BYTE   W12
 BYTE   Fn1  v076
 BYTE   W12
 BYTE   N05
 BYTE   W12
 BYTE   Gn2
 BYTE   W12
// 026   ----------------------------------------
 BYTE   N23  Cn1  v072
 BYTE   W24
 BYTE   N05  Cn2
 BYTE   W12
 BYTE   Cn1
 BYTE   W12
 BYTE   Cn1  v068
 BYTE   W12
 BYTE   N05
 BYTE   W12
 BYTE   N05
 BYTE   W12
 BYTE   Cn2
 BYTE   W12
// 027   ----------------------------------------
 BYTE   N23  Cn1
 BYTE   W24
 BYTE   N05  Cn2
 BYTE   W12
 BYTE   Cn1
 BYTE   W12
 BYTE   N05
 BYTE   W12
 BYTE   Cn1  v072
 BYTE   W12
 BYTE   Cn1  v068
 BYTE   W12
 BYTE   Cn2
 BYTE   W12
// 028   ----------------------------------------
 BYTE   N23  Fn1
 BYTE   W24
 BYTE   N05  Fn2
 BYTE   W12
 BYTE   Fn1
 BYTE   W12
 BYTE   N05
 BYTE   W12
 BYTE   N05
 BYTE   W12
 BYTE   N05
 BYTE   W12
 BYTE   Fn2
 BYTE   W12
// 029   ----------------------------------------
 BYTE   N23  Fn1
 BYTE   W24
 BYTE   N05  Gn2  v072
 BYTE   W12
 BYTE   Fn1  v068
 BYTE   W12
 BYTE   Fn1  v064
 BYTE   W12
 BYTE   N05
 BYTE   W12
 BYTE   Fn1  v060
 BYTE   W12
 BYTE   Gn2
 BYTE   W12
// 030   ----------------------------------------
 BYTE   N23  Cn1  v064
 BYTE   W24
 BYTE   N05  Cn2  v072
 BYTE   W12
 BYTE   Cn1
 BYTE   W12
 BYTE   Cn1  v076
 BYTE   W12
 BYTE   N05
 BYTE   W12
 BYTE   Cn1  v072
 BYTE   W12
 BYTE   Cn2
 BYTE   W12
// 031   ----------------------------------------
 BYTE   N23  Cn1
 BYTE   W24
 BYTE   N05  Cn2
 BYTE   W12
 BYTE   Cn1
 BYTE   W12
 BYTE   N05
 BYTE   W12
 BYTE   N05
 BYTE   W12
 BYTE   N05
 BYTE   W12
 BYTE   Cn2
 BYTE   W12
// 032   ----------------------------------------
 BYTE   GoTo
  POIN2 Label_HandCombat2_0146360E
 BYTE   FINE

//**************** Track 4 (Midi-Chn.3) ****************//

HandCombat_004:
// 000   ----------------------------------------
 BYTE   KEYSH   HandCombat_key+0
Label_HandCombat3_0146391E:
 BYTE   VOICE   48
 BYTE   VOL   45*HandCombat_mvl/mxv
 BYTE   PAN   c_v+0
 BYTE   N11  Cn2  v092
 BYTE   N11  Cn3
 BYTE   W36
 BYTE   Cn2  v088
 BYTE   N11  Cn3
 BYTE   W60
// 001   ----------------------------------------
 BYTE   Cn2  v092
 BYTE   N11  Cn3
 BYTE   W36
 BYTE   Cn2
 BYTE   N11  Cn3
 BYTE   W60
// 002   ----------------------------------------
 BYTE   Fn2
 BYTE   N11  Fn3
 BYTE   W36
 BYTE   Fn2  v096
 BYTE   N11  Fn3
 BYTE   W60
// 003   ----------------------------------------
 BYTE   Fn2
 BYTE   N11  Fn3
 BYTE   W36
 BYTE   Fn2  v104
 BYTE   N11  Fn3
 BYTE   W60
// 004   ----------------------------------------
Label_HandCombat3_0146394A:
 BYTE   N11  Dn2  v104
 BYTE   N11  Dn3
 BYTE   W36
 BYTE   Dn2
 BYTE   N11  Dn3
 BYTE   W60
 BYTE   PEND 
 BYTE   PATT
  POIN2 Label_HandCombat3_0146394A
// 005   ----------------------------------------
Label_HandCombat3_0146395A:
 BYTE   N11  Gn2  v104
 BYTE   N11  Gn3
 BYTE   W36
 BYTE   Gn2
 BYTE   N11  Gn3
 BYTE   W60
 BYTE   PEND 
 BYTE   PATT
  POIN2 Label_HandCombat3_0146395A
// 006   ----------------------------------------
 BYTE   N11  Ds2  v104
 BYTE   N11  Ds3
 BYTE   W36
 BYTE   Ds2
 BYTE   N11  Ds3
 BYTE   W60
// 007   ----------------------------------------
Label_HandCombat3_01463974:
 BYTE   N11  Ds2  v100
 BYTE   N11  Ds3
 BYTE   W36
 BYTE   Ds2
 BYTE   N11  Ds3
 BYTE   W60
 BYTE   PEND 
// 008   ----------------------------------------
Label_HandCombat3_0146397F:
 BYTE   N11  Fn2  v100
 BYTE   N11  Fn3
 BYTE   W36
 BYTE   Fn2
 BYTE   N11  Fn3
 BYTE   W60
 BYTE   PEND 
 BYTE   PATT
  POIN2 Label_HandCombat3_0146397F
// 009   ----------------------------------------
Label_HandCombat3_0146398F:
 BYTE   N11  Gn2  v100
 BYTE   N11  Gn3
 BYTE   W36
 BYTE   Gn2
 BYTE   N11  Gn3
 BYTE   W60
 BYTE   PEND 
 BYTE   PATT
  POIN2 Label_HandCombat3_0146398F
 BYTE   PATT
  POIN2 Label_HandCombat3_0146398F
// 010   ----------------------------------------
 BYTE   N32  Gn2  v100
 BYTE   N32  Gn3
 BYTE   W36
 BYTE   TIE  Gs2
 BYTE   TIE  Gs3
 BYTE   W60
// 011   ----------------------------------------
 BYTE   W96
// 012   ----------------------------------------
 BYTE   W92
 BYTE   W03
 BYTE   EOT
 BYTE   Gs2  v068
 BYTE   W01
// 013   ----------------------------------------
Label_HandCombat3_014639B6:
 BYTE   N11  Cn2  v100
 BYTE   N11  Cn3
 BYTE   W36
 BYTE   Cn2
 BYTE   N11  Cn3
 BYTE   W60
 BYTE   PEND 
 BYTE   PATT
  POIN2 Label_HandCombat3_014639B6
 BYTE   PATT
  POIN2 Label_HandCombat3_014639B6
 BYTE   PATT
  POIN2 Label_HandCombat3_014639B6
 BYTE   PATT
  POIN2 Label_HandCombat3_014639B6
 BYTE   PATT
  POIN2 Label_HandCombat3_014639B6
 BYTE   PATT
  POIN2 Label_HandCombat3_01463974
 BYTE   PATT
  POIN2 Label_HandCombat3_01463974
 BYTE   PATT
  POIN2 Label_HandCombat3_0146397F
 BYTE   PATT
  POIN2 Label_HandCombat3_0146397F
// 014   ----------------------------------------
Label_HandCombat3_014639EE:
 BYTE   N11  Gs2  v100
 BYTE   N11  Gs3
 BYTE   W36
 BYTE   Gs2
 BYTE   N11  Gs3
 BYTE   W60
 BYTE   PEND 
// 015   ----------------------------------------
Label_HandCombat3_014639F9:
 BYTE   N11  As2  v100
 BYTE   N11  As3
 BYTE   W36
 BYTE   As2
 BYTE   N11  As3
 BYTE   W60
 BYTE   PEND 
 BYTE   PATT
  POIN2 Label_HandCombat3_014639B6
 BYTE   PATT
  POIN2 Label_HandCombat3_014639B6
 BYTE   PATT
  POIN2 Label_HandCombat3_01463974
 BYTE   PATT
  POIN2 Label_HandCombat3_01463974
 BYTE   PATT
  POIN2 Label_HandCombat3_0146397F
 BYTE   PATT
  POIN2 Label_HandCombat3_0146397F
 BYTE   PATT
  POIN2 Label_HandCombat3_014639EE
 BYTE   PATT
  POIN2 Label_HandCombat3_014639F9
// 016   ----------------------------------------
 BYTE   W96
// 017   ----------------------------------------
 BYTE   W96
// 018   ----------------------------------------
 BYTE   W96
// 019   ----------------------------------------
 BYTE   W96
// 020   ----------------------------------------
 BYTE   W96
// 021   ----------------------------------------
 BYTE   W96
// 022   ----------------------------------------
 BYTE   W96
// 023   ----------------------------------------
 BYTE   W96
// 024   ----------------------------------------
 BYTE   W96
// 025   ----------------------------------------
 BYTE   W96
// 026   ----------------------------------------
 BYTE   W96
// 027   ----------------------------------------
 BYTE   W96
// 028   ----------------------------------------
 BYTE   W96
// 029   ----------------------------------------
 BYTE   W96
// 030   ----------------------------------------
 BYTE   W96
// 031   ----------------------------------------
 BYTE   W24
 BYTE   N23  Gn3  v064
 BYTE   W24
 BYTE   Gs3
 BYTE   W24
 BYTE   N17  Ds4
 BYTE   W18
 BYTE   N02  Dn4
 BYTE   W02
 BYTE   Cs4
 BYTE   W04
// 032   ----------------------------------------
 BYTE   N92  Cn4
 BYTE   W96
// 033   ----------------------------------------
 BYTE   Cs4
 BYTE   W96
// 034   ----------------------------------------
 BYTE   N68  Fn3
 BYTE   W72
 BYTE   N23  Gn3
 BYTE   W24
// 035   ----------------------------------------
 BYTE   N56  Ds3
 BYTE   W60
 BYTE   N11  Cs3
 BYTE   W12
 BYTE   Cn3
 BYTE   W12
 BYTE   Cs3
 BYTE   W12
// 036   ----------------------------------------
 BYTE   N44  Ds3
 BYTE   W48
 BYTE   N11  Gn2
 BYTE   W12
 BYTE   Gs2
 BYTE   W12
 BYTE   As2
 BYTE   W12
 BYTE   Ds3
 BYTE   W12
// 037   ----------------------------------------
 BYTE   Gn3
 BYTE   W12
 BYTE   Ds3
 BYTE   W12
 BYTE   Ds4
 BYTE   W12
 BYTE   Cn4
 BYTE   W12
 BYTE   Cs4
 BYTE   W12
 BYTE   As3
 BYTE   W12
 BYTE   Gs3
 BYTE   W12
 BYTE   Gn3
 BYTE   W12
// 038   ----------------------------------------
 BYTE   N32
 BYTE   W36
 BYTE   Gs3
 BYTE   W36
 BYTE   N80  Ds4
 BYTE   W24
// 039   ----------------------------------------
 BYTE   W60
 BYTE   N11
 BYTE   W12
 BYTE   Cs4
 BYTE   W12
 BYTE   Ds4
 BYTE   W12
// 040   ----------------------------------------
 BYTE   TIE  Fn4
 BYTE   W96
// 041   ----------------------------------------
 BYTE   W23
 BYTE   EOT
 BYTE   W01
 BYTE   N11
 BYTE   W12
 BYTE   Gn4
 BYTE   W12
 BYTE   Gs4
 BYTE   W12
 BYTE   Gn4
 BYTE   W12
 BYTE   Fn4
 BYTE   W12
 BYTE   Ds4
 BYTE   W12
// 042   ----------------------------------------
 BYTE   N92
 BYTE   W96
// 043   ----------------------------------------
 BYTE   As3
 BYTE   W96
// 044   ----------------------------------------
 BYTE   W24
 BYTE   N23
 BYTE   W24
 BYTE   N17
 BYTE   W18
 BYTE   Gs3
 BYTE   W18
 BYTE   N11  Gn3
 BYTE   W12
// 045   ----------------------------------------
 BYTE   N32
 BYTE   W36
 BYTE   N11  Cn3
 BYTE   W12
 BYTE   Cs3
 BYTE   W12
 BYTE   Ds3
 BYTE   W12
 BYTE   Fn3
 BYTE   W12
 BYTE   Gn3
 BYTE   W12
// 046   ----------------------------------------
 BYTE   N32  As3
 BYTE   W36
 BYTE   N05  Gs3
 BYTE   W06
 BYTE   Gn3
 BYTE   W06
 BYTE   N44  Gs3
 BYTE   W48
// 047   ----------------------------------------
 BYTE   W96
// 048   ----------------------------------------
 BYTE   N92  Cn2  v060
 BYTE   N92  Fn2
 BYTE   W96
// 049   ----------------------------------------
 BYTE   Dn2
 BYTE   N92  Gn2
 BYTE   W96
// 050   ----------------------------------------
Label_HandCombat3_01463ACC:
 BYTE   TIE  Gn1  v060
 BYTE   TIE  Cn2
 BYTE   W96
 BYTE   PEND 
// 051   ----------------------------------------
 BYTE   W92
 BYTE   W03
 BYTE   EOT
 BYTE   Gn1  v048
 BYTE   W01
// 052   ----------------------------------------
 BYTE   N92
 BYTE   N92  Fn2
 BYTE   W96
// 053   ----------------------------------------
 BYTE   Dn2
 BYTE   N92  Gn2
 BYTE   W96
 BYTE   PATT
  POIN2 Label_HandCombat3_01463ACC
// 054   ----------------------------------------
 BYTE   W92
 BYTE   W03
 BYTE   EOT
 BYTE   Gn1  v048
 BYTE   W01
// 055   ----------------------------------------
 BYTE   GoTo
  POIN2 Label_HandCombat3_0146391E
 BYTE   FINE

//**************** Track 5 (Midi-Chn.4) ****************//

HandCombat_005:
// 000   ----------------------------------------
 BYTE   KEYSH   HandCombat_key+0
Label_HandCombat4_01463AF6:
 BYTE   VOICE   56
 BYTE   VOL   60*HandCombat_mvl/mxv
 BYTE   PAN   c_v+0
 BYTE   W96
// 001   ----------------------------------------
 BYTE   W96
// 002   ----------------------------------------
 BYTE   W96
// 003   ----------------------------------------
 BYTE   W96
// 004   ----------------------------------------
 BYTE   W96
// 005   ----------------------------------------
 BYTE   W96
// 006   ----------------------------------------
 BYTE   W96
// 007   ----------------------------------------
 BYTE   W96
// 008   ----------------------------------------
 BYTE   W96
// 009   ----------------------------------------
 BYTE   W96
// 010   ----------------------------------------
 BYTE   W96
// 011   ----------------------------------------
 BYTE   W96
// 012   ----------------------------------------
 BYTE   W96
// 013   ----------------------------------------
 BYTE   W96
// 014   ----------------------------------------
 BYTE   W96
// 015   ----------------------------------------
 BYTE   W96
// 016   ----------------------------------------
 BYTE   W96
// 017   ----------------------------------------
 BYTE   W96
// 018   ----------------------------------------
 BYTE   W96
// 019   ----------------------------------------
 BYTE   W96
// 020   ----------------------------------------
 BYTE   W96
// 021   ----------------------------------------
 BYTE   W72
 BYTE   N23  Gn2  v100
 BYTE   W24
// 022   ----------------------------------------
Label_HandCombat4_01463B16:
 BYTE   N32  Cn3  v100
 BYTE   W36
 BYTE   N44  Gn3
 BYTE   W48
 BYTE   N05  Fn3
 BYTE   W06
 BYTE   Ds3
 BYTE   W06
 BYTE   PEND 
// 023   ----------------------------------------
Label_HandCombat4_01463B23:
 BYTE   N32  Dn3  v100
 BYTE   W36
 BYTE   Ds3
 BYTE   W36
 BYTE   N23  Cn4
 BYTE   W24
 BYTE   PEND 
// 024   ----------------------------------------
 BYTE   TIE  Gn3
 BYTE   W96
// 025   ----------------------------------------
 BYTE   W44
 BYTE   W03
 BYTE   EOT
 BYTE   W24
 BYTE   W01
 BYTE   N11
 BYTE   W12
 BYTE   Gs3
 BYTE   W12
// 026   ----------------------------------------
 BYTE   N68  As3
 BYTE   W72
 BYTE   N11  Gs3
 BYTE   W12
 BYTE   Gn3
 BYTE   W12
// 027   ----------------------------------------
 BYTE   TIE  Gs3
 BYTE   W96
// 028   ----------------------------------------
 BYTE   W23
 BYTE   EOT
 BYTE   W01
 BYTE   N32
 BYTE   W36
 BYTE   N11  Gn3
 BYTE   W12
 BYTE   Fn3
 BYTE   W12
 BYTE   Ds3
 BYTE   W12
// 029   ----------------------------------------
 BYTE   N23
 BYTE   W24
 BYTE   Dn3
 BYTE   W24
 BYTE   Gn3
 BYTE   W24
 BYTE   Gn2
 BYTE   W24
 BYTE   PATT
  POIN2 Label_HandCombat4_01463B16
 BYTE   PATT
  POIN2 Label_HandCombat4_01463B23
// 030   ----------------------------------------
 BYTE   TIE  As3  v100
 BYTE   W96
// 031   ----------------------------------------
 BYTE   W23
 BYTE   EOT
 BYTE   W01
 BYTE   N23
 BYTE   W24
 BYTE   Gs3
 BYTE   W24
 BYTE   Gn3
 BYTE   W24
// 032   ----------------------------------------
 BYTE   N17  Gs3
 BYTE   W18
 BYTE   Ds3
 BYTE   W18
 BYTE   N68  Ds4
 BYTE   W60
// 033   ----------------------------------------
 BYTE   W12
 BYTE   N17  Dn4
 BYTE   W18
 BYTE   Ds4
 BYTE   W18
 BYTE   Gn4
 BYTE   W18
 BYTE   Fn4
 BYTE   W18
 BYTE   N11  Ds4
 BYTE   W12
// 034   ----------------------------------------
 BYTE   N92  Dn4
 BYTE   W96
// 035   ----------------------------------------
 BYTE   N44  Ds4
 BYTE   W48
 BYTE   Dn4
 BYTE   W48
// 036   ----------------------------------------
 BYTE   N32  Gn2
 BYTE   W36
 BYTE   TIE  Fn2
 BYTE   W60
// 037   ----------------------------------------
 BYTE   W44
 BYTE   W03
 BYTE   EOT
 BYTE   W01
 BYTE   N23  Gn2
 BYTE   W24
 BYTE   Gs2
 BYTE   W24
// 038   ----------------------------------------
 BYTE   N32  Cn3
 BYTE   W36
 BYTE   TIE  As2
 BYTE   W60
// 039   ----------------------------------------
 BYTE   W92
 BYTE   W03
 BYTE   EOT
 BYTE   W01
// 040   ----------------------------------------
 BYTE   N44  Cs3
 BYTE   W48
 BYTE   Ds3
 BYTE   W48
// 041   ----------------------------------------
 BYTE   Fn3
 BYTE   W48
 BYTE   As2
 BYTE   W48
// 042   ----------------------------------------
 BYTE   N32  Gn2
 BYTE   W36
 BYTE   Gs2
 BYTE   W36
 BYTE   TIE  Ds2
 BYTE   W24
// 043   ----------------------------------------
 BYTE   W92
 BYTE   W03
 BYTE   EOT
 BYTE   W01
// 044   ----------------------------------------
 BYTE   N92
 BYTE   W96
// 045   ----------------------------------------
 BYTE   Fn2
 BYTE   W96
// 046   ----------------------------------------
 BYTE   As2
 BYTE   W96
// 047   ----------------------------------------
 BYTE   Gn2
 BYTE   W96
// 048   ----------------------------------------
 BYTE   N44  As1
 BYTE   W48
 BYTE   N17  Cn2
 BYTE   W18
 BYTE   Ds2
 BYTE   W18
 BYTE   N32  Gn2
 BYTE   W12
// 049   ----------------------------------------
 BYTE   W24
 BYTE   Cn3
 BYTE   W36
 BYTE   N23  As2
 BYTE   W24
 BYTE   N11  Cn3
 BYTE   W12
// 050   ----------------------------------------
 BYTE   N32  Dn3
 BYTE   W36
 BYTE   Ds3
 BYTE   W36
 BYTE   TIE  Gs2
 BYTE   W24
// 051   ----------------------------------------
 BYTE   W92
 BYTE   W03
 BYTE   EOT
 BYTE   W01
// 052   ----------------------------------------
 BYTE   W96
// 053   ----------------------------------------
 BYTE   W96
// 054   ----------------------------------------
 BYTE   W96
// 055   ----------------------------------------
 BYTE   W96
// 056   ----------------------------------------
 BYTE   N44  Cn2
 BYTE   W48
 BYTE   N68  Gn2
 BYTE   W48
// 057   ----------------------------------------
 BYTE   W24
 BYTE   N56  Ds3
 BYTE   W08
 BYTE   W48
 BYTE   W01
 BYTE   W01
 BYTE   W01
 BYTE   W01
 BYTE   TIE  Fn3
 BYTE   W01
 BYTE   W01
 BYTE   W01
 BYTE   W01
 BYTE   W01
 BYTE   W01
 BYTE   W01
 BYTE   W01
 BYTE   W01
 BYTE   W01
 BYTE   W01
 BYTE   W01
// 058   ----------------------------------------
 BYTE   W01
 BYTE   W01
 BYTE   W01
 BYTE   W01
 BYTE   W01
 BYTE   W01
 BYTE   W01
 BYTE   W88
 BYTE   EOT
 BYTE   W01
// 059   ----------------------------------------
 BYTE   W96
// 060   ----------------------------------------
 BYTE   W96
// 061   ----------------------------------------
 BYTE   W96
// 062   ----------------------------------------
 BYTE   W96
// 063   ----------------------------------------
 BYTE   W96
// 064   ----------------------------------------
 BYTE   W96
// 065   ----------------------------------------
 BYTE   W96
// 066   ----------------------------------------
 BYTE   W96
// 067   ----------------------------------------
 BYTE   W96
// 068   ----------------------------------------
 BYTE   N92  Cn2  v032
 BYTE   N92  Fn2
 BYTE   W96
// 069   ----------------------------------------
 BYTE   Dn2  v028
 BYTE   N92  Gn2
 BYTE   W96
// 070   ----------------------------------------
 BYTE   TIE  Gn1  v040
 BYTE   TIE  Cn2
 BYTE   W96
// 071   ----------------------------------------
 BYTE   W92
 BYTE   W03
 BYTE   EOT
 BYTE   Gn1  v048
 BYTE   W01
// 072   ----------------------------------------
 BYTE   N92
 BYTE   N92  Fn2
 BYTE   W96
// 073   ----------------------------------------
 BYTE   Dn2  v044
 BYTE   N92  Gn2
 BYTE   W96
// 074   ----------------------------------------
 BYTE   Gn1
 BYTE   N92  Cn2
 BYTE   W96
// 075   ----------------------------------------
 BYTE   W96
// 076   ----------------------------------------
 BYTE   GoTo
  POIN2 Label_HandCombat4_01463AF6
 BYTE   FINE

//**************** Track 6 (Midi-Chn.5) ****************//

HandCombat_006:
// 000   ----------------------------------------
 BYTE   KEYSH   HandCombat_key+0
Label_HandCombat5_01463C46:
 BYTE   VOICE   47
 BYTE   VOL   60*HandCombat_mvl/mxv
 BYTE   PAN   c_v+0
 BYTE   N11  Cn2  v100
 BYTE   W96
// 001   ----------------------------------------
 BYTE   W96
// 002   ----------------------------------------
 BYTE   W96
// 003   ----------------------------------------
 BYTE   W96
// 004   ----------------------------------------
 BYTE   W96
// 005   ----------------------------------------
 BYTE   W96
// 006   ----------------------------------------
 BYTE   W96
// 007   ----------------------------------------
 BYTE   W96
// 008   ----------------------------------------
 BYTE   W96
// 009   ----------------------------------------
 BYTE   W96
// 010   ----------------------------------------
 BYTE   W96
// 011   ----------------------------------------
 BYTE   W96
// 012   ----------------------------------------
 BYTE   W96
// 013   ----------------------------------------
 BYTE   W96
// 014   ----------------------------------------
 BYTE   W96
// 015   ----------------------------------------
 BYTE   W96
// 016   ----------------------------------------
 BYTE   W96
// 017   ----------------------------------------
 BYTE   W72
 BYTE   N23  Gn1
 BYTE   W24
// 018   ----------------------------------------
Label_HandCombat5_01463C64:
 BYTE   N11  Cn2  v100
 BYTE   W36
 BYTE   N11
 BYTE   W60
 BYTE   PEND 
// 019   ----------------------------------------
 BYTE   N11
 BYTE   W36
 BYTE   N11
 BYTE   W48
 BYTE   N05  Gs1
 BYTE   W06
 BYTE   N05
 BYTE   W06
 BYTE   PATT
  POIN2 Label_HandCombat5_01463C64
// 020   ----------------------------------------
 BYTE   N11  Cn2  v100
 BYTE   W36
 BYTE   N11
 BYTE   W48
 BYTE   N05  Gn1
 BYTE   W06
 BYTE   N05
 BYTE   W06
// 021   ----------------------------------------
 BYTE   W96
// 022   ----------------------------------------
 BYTE   W96
// 023   ----------------------------------------
 BYTE   W96
// 024   ----------------------------------------
 BYTE   W96
// 025   ----------------------------------------
 BYTE   W96
// 026   ----------------------------------------
 BYTE   W96
// 027   ----------------------------------------
 BYTE   W96
// 028   ----------------------------------------
 BYTE   W96
// 029   ----------------------------------------
 BYTE   W96
// 030   ----------------------------------------
 BYTE   W96
// 031   ----------------------------------------
 BYTE   W96
// 032   ----------------------------------------
 BYTE   W96
// 033   ----------------------------------------
 BYTE   W96
// 034   ----------------------------------------
 BYTE   W96
// 035   ----------------------------------------
 BYTE   W96
// 036   ----------------------------------------
 BYTE   W96
// 037   ----------------------------------------
 BYTE   W96
// 038   ----------------------------------------
 BYTE   W96
// 039   ----------------------------------------
 BYTE   W96
// 040   ----------------------------------------
 BYTE   W96
// 041   ----------------------------------------
 BYTE   W96
// 042   ----------------------------------------
 BYTE   W96
// 043   ----------------------------------------
 BYTE   W96
// 044   ----------------------------------------
 BYTE   W96
// 045   ----------------------------------------
 BYTE   W96
// 046   ----------------------------------------
 BYTE   W96
// 047   ----------------------------------------
 BYTE   W96
// 048   ----------------------------------------
 BYTE   W96
// 049   ----------------------------------------
 BYTE   W96
// 050   ----------------------------------------
 BYTE   W96
// 051   ----------------------------------------
 BYTE   W96
// 052   ----------------------------------------
 BYTE   W96
// 053   ----------------------------------------
 BYTE   W96
// 054   ----------------------------------------
 BYTE   W96
// 055   ----------------------------------------
 BYTE   W96
// 056   ----------------------------------------
 BYTE   W96
// 057   ----------------------------------------
 BYTE   W96
// 058   ----------------------------------------
 BYTE   W96
// 059   ----------------------------------------
 BYTE   W96
// 060   ----------------------------------------
 BYTE   W48
 BYTE   N02  Cn2  v048
 BYTE   W02
 BYTE   Cn2  v052
 BYTE   W04
 BYTE   Cn2  v056
 BYTE   W02
 BYTE   N02
 BYTE   W04
 BYTE   Cn2  v060
 BYTE   W02
 BYTE   Cn2  v064
 BYTE   W04
 BYTE   Cn2  v068
 BYTE   W03
 BYTE   Cn2  v072
 BYTE   W03
 BYTE   N02
 BYTE   W03
 BYTE   Cn2  v076
 BYTE   W03
 BYTE   Cn2  v080
 BYTE   W03
 BYTE   N02
 BYTE   W03
 BYTE   Cn2  v084
 BYTE   W02
 BYTE   Cn2  v092
 BYTE   W04
 BYTE   N02
 BYTE   W02
 BYTE   Cn2  v096
 BYTE   W04
// 061   ----------------------------------------
 BYTE   N05  Cs2  v076
 BYTE   W24
 BYTE   Gs1
 BYTE   W12
 BYTE   Cs2
 BYTE   W24
 BYTE   Gs1
 BYTE   W12
 BYTE   Cs2
 BYTE   W12
 BYTE   Gs1  v080
 BYTE   W06
 BYTE   N05
 BYTE   W06
// 062   ----------------------------------------
 BYTE   Cs2
 BYTE   W24
 BYTE   Gs1
 BYTE   W12
 BYTE   Cs2
 BYTE   W24
 BYTE   Gs1  v076
 BYTE   W12
 BYTE   Cs2
 BYTE   W12
 BYTE   Gs1
 BYTE   W06
 BYTE   N05
 BYTE   W06
// 063   ----------------------------------------
 BYTE   Cs2
 BYTE   W24
 BYTE   Gs1
 BYTE   W12
 BYTE   Cs2
 BYTE   W24
 BYTE   Gs1  v084
 BYTE   W12
 BYTE   Cs2
 BYTE   W12
 BYTE   Gs1
 BYTE   W06
 BYTE   N05
 BYTE   W06
// 064   ----------------------------------------
 BYTE   Cs2
 BYTE   W24
 BYTE   Gs1
 BYTE   W12
 BYTE   Cs2
 BYTE   W24
 BYTE   Gs1  v080
 BYTE   W12
 BYTE   Cs2  v076
 BYTE   W12
 BYTE   Gs1  v072
 BYTE   W06
 BYTE   N05
 BYTE   W06
// 065   ----------------------------------------
 BYTE   N11  Cs2
 BYTE   W96
// 066   ----------------------------------------
 BYTE   W96
// 067   ----------------------------------------
 BYTE   W96
// 068   ----------------------------------------
 BYTE   W96
// 069   ----------------------------------------
 BYTE   W96
// 070   ----------------------------------------
 BYTE   W96
// 071   ----------------------------------------
 BYTE   W96
// 072   ----------------------------------------
 BYTE   W96
// 073   ----------------------------------------
 BYTE   W96
// 074   ----------------------------------------
 BYTE   W96
// 075   ----------------------------------------
 BYTE   W96
// 076   ----------------------------------------
 BYTE   W72
 BYTE   N05  Cn2  v100
 BYTE   W06
 BYTE   N05
 BYTE   W06
 BYTE   N05
 BYTE   W06
 BYTE   N05
 BYTE   W06
// 077   ----------------------------------------
 BYTE   GoTo
  POIN2 Label_HandCombat5_01463C46
 BYTE   FINE

//**************** Track 7 (Midi-Chn.6) ****************//

HandCombat_007:
// 000   ----------------------------------------
 BYTE   KEYSH   HandCombat_key+0
Label_HandCombat6_01463D3A:
 BYTE   VOICE   48
 BYTE   VOL   47*HandCombat_mvl/mxv
 BYTE   PAN   c_v+0
 BYTE   W96
// 001   ----------------------------------------
 BYTE   W96
// 002   ----------------------------------------
 BYTE   W96
// 003   ----------------------------------------
 BYTE   W96
// 004   ----------------------------------------
 BYTE   W96
// 005   ----------------------------------------
 BYTE   W96
// 006   ----------------------------------------
 BYTE   W96
// 007   ----------------------------------------
 BYTE   W96
// 008   ----------------------------------------
 BYTE   W96
// 009   ----------------------------------------
 BYTE   W96
// 010   ----------------------------------------
 BYTE   W96
// 011   ----------------------------------------
 BYTE   W96
// 012   ----------------------------------------
 BYTE   W96
// 013   ----------------------------------------
 BYTE   W96
// 014   ----------------------------------------
 BYTE   W96
// 015   ----------------------------------------
 BYTE   W96
// 016   ----------------------------------------
 BYTE   W96
// 017   ----------------------------------------
 BYTE   W96
// 018   ----------------------------------------
 BYTE   W96
// 019   ----------------------------------------
 BYTE   W96
// 020   ----------------------------------------
 BYTE   W96
// 021   ----------------------------------------
 BYTE   W96
// 022   ----------------------------------------
 BYTE   W96
// 023   ----------------------------------------
 BYTE   W96
// 024   ----------------------------------------
 BYTE   W96
// 025   ----------------------------------------
 BYTE   W96
// 026   ----------------------------------------
 BYTE   W96
// 027   ----------------------------------------
 BYTE   W96
// 028   ----------------------------------------
 BYTE   W96
// 029   ----------------------------------------
 BYTE   W48
 BYTE   N11  As3  v100
 BYTE   W12
 BYTE   Cn4
 BYTE   W12
 BYTE   Dn4
 BYTE   W12
 BYTE   Ds4
 BYTE   W12
// 030   ----------------------------------------
 BYTE   N92  Gn3
 BYTE   N92  Cn4
 BYTE   W96
// 031   ----------------------------------------
 BYTE   Gn3
 BYTE   N92  Dn4
 BYTE   W96
// 032   ----------------------------------------
 BYTE   Gn3
 BYTE   N92  Ds4
 BYTE   W96
// 033   ----------------------------------------
 BYTE   Gn3
 BYTE   N92  Gn4
 BYTE   W96
// 034   ----------------------------------------
 BYTE   TIE  Cn4
 BYTE   TIE  Gs4
 BYTE   W96
// 035   ----------------------------------------
 BYTE   W92
 BYTE   W03
 BYTE   EOT
 BYTE   Cn4  v080
 BYTE   W01
// 036   ----------------------------------------
 BYTE   N92  As3
 BYTE   N92  Dn4
 BYTE   W96
// 037   ----------------------------------------
 BYTE   N44  Gn3
 BYTE   N44  Ds4
 BYTE   W48
 BYTE   As3
 BYTE   N44  Ds4
 BYTE   W48
// 038   ----------------------------------------
 BYTE   W96
// 039   ----------------------------------------
 BYTE   W96
// 040   ----------------------------------------
 BYTE   W96
// 041   ----------------------------------------
 BYTE   W96
// 042   ----------------------------------------
 BYTE   W96
// 043   ----------------------------------------
 BYTE   W96
// 044   ----------------------------------------
 BYTE   W96
// 045   ----------------------------------------
 BYTE   W96
// 046   ----------------------------------------
 BYTE   W96
// 047   ----------------------------------------
 BYTE   W96
// 048   ----------------------------------------
 BYTE   W96
// 049   ----------------------------------------
 BYTE   W96
// 050   ----------------------------------------
 BYTE   W96
// 051   ----------------------------------------
 BYTE   W96
// 052   ----------------------------------------
 BYTE   W96
// 053   ----------------------------------------
 BYTE   W96
// 054   ----------------------------------------
 BYTE   W96
// 055   ----------------------------------------
 BYTE   W96
// 056   ----------------------------------------
 BYTE   W96
// 057   ----------------------------------------
 BYTE   W96
// 058   ----------------------------------------
 BYTE   W96
// 059   ----------------------------------------
 BYTE   W96
// 060   ----------------------------------------
 BYTE   W96
// 061   ----------------------------------------
 BYTE   W96
// 062   ----------------------------------------
 BYTE   W96
// 063   ----------------------------------------
 BYTE   W96
// 064   ----------------------------------------
 BYTE   W96
// 065   ----------------------------------------
 BYTE   W96
// 066   ----------------------------------------
 BYTE   W96
// 067   ----------------------------------------
 BYTE   W96
// 068   ----------------------------------------
 BYTE   W96
// 069   ----------------------------------------
 BYTE   W96
// 070   ----------------------------------------
 BYTE   W96
// 071   ----------------------------------------
 BYTE   W96
// 072   ----------------------------------------
 BYTE   W96
// 073   ----------------------------------------
 BYTE   W96
// 074   ----------------------------------------
 BYTE   W96
// 075   ----------------------------------------
 BYTE   W96
// 076   ----------------------------------------
 BYTE   W96
// 077   ----------------------------------------
 BYTE   W96
// 078   ----------------------------------------
 BYTE   GoTo
  POIN2 Label_HandCombat6_01463D3A
 BYTE   FINE

//**************** Track 8 (Midi-Chn.7) ****************//

HandCombat_008:
// 000   ----------------------------------------
 BYTE   KEYSH   HandCombat_key+0
Label_HandCombat7_01463DC2:
 BYTE   VOICE   52
 BYTE   VOL   60*HandCombat_mvl/mxv
 BYTE   PAN   c_v+0
 BYTE   W96
// 001   ----------------------------------------
 BYTE   W96
// 002   ----------------------------------------
 BYTE   W96
// 003   ----------------------------------------
 BYTE   W96
// 004   ----------------------------------------
 BYTE   W96
// 005   ----------------------------------------
 BYTE   W96
// 006   ----------------------------------------
 BYTE   W96
// 007   ----------------------------------------
 BYTE   W96
// 008   ----------------------------------------
 BYTE   W96
// 009   ----------------------------------------
 BYTE   W96
// 010   ----------------------------------------
 BYTE   W96
// 011   ----------------------------------------
 BYTE   W96
// 012   ----------------------------------------
 BYTE   W96
// 013   ----------------------------------------
 BYTE   W96
// 014   ----------------------------------------
 BYTE   W96
// 015   ----------------------------------------
 BYTE   W96
// 016   ----------------------------------------
 BYTE   W96
// 017   ----------------------------------------
 BYTE   W96
// 018   ----------------------------------------
 BYTE   W96
// 019   ----------------------------------------
 BYTE   W96
// 020   ----------------------------------------
 BYTE   W96
// 021   ----------------------------------------
 BYTE   W96
// 022   ----------------------------------------
 BYTE   W96
// 023   ----------------------------------------
 BYTE   W96
// 024   ----------------------------------------
 BYTE   W96
// 025   ----------------------------------------
 BYTE   W96
// 026   ----------------------------------------
 BYTE   W96
// 027   ----------------------------------------
 BYTE   W96
// 028   ----------------------------------------
 BYTE   W96
// 029   ----------------------------------------
 BYTE   W96
// 030   ----------------------------------------
 BYTE   W96
// 031   ----------------------------------------
 BYTE   W96
// 032   ----------------------------------------
 BYTE   W96
// 033   ----------------------------------------
 BYTE   W96
// 034   ----------------------------------------
 BYTE   W96
// 035   ----------------------------------------
 BYTE   W96
// 036   ----------------------------------------
 BYTE   W96
// 037   ----------------------------------------
 BYTE   W96
// 038   ----------------------------------------
 BYTE   W96
// 039   ----------------------------------------
 BYTE   W96
// 040   ----------------------------------------
 BYTE   W96
// 041   ----------------------------------------
 BYTE   W96
// 042   ----------------------------------------
 BYTE   W96
// 043   ----------------------------------------
 BYTE   W96
// 044   ----------------------------------------
 BYTE   W96
// 045   ----------------------------------------
 BYTE   W96
// 046   ----------------------------------------
 BYTE   W96
// 047   ----------------------------------------
 BYTE   W96
// 048   ----------------------------------------
 BYTE   W96
// 049   ----------------------------------------
 BYTE   W96
// 050   ----------------------------------------
 BYTE   W96
// 051   ----------------------------------------
 BYTE   W96
// 052   ----------------------------------------
 BYTE   W96
// 053   ----------------------------------------
 BYTE   W96
// 054   ----------------------------------------
Label_HandCombat7_01463DFE:
 BYTE   TIE  Gs2  v064
 BYTE   TIE  Cn3
 BYTE   W96
 BYTE   PEND 
// 055   ----------------------------------------
 BYTE   W92
 BYTE   W03
 BYTE   EOT
 BYTE   Gs2  v060
 BYTE   W01
// 056   ----------------------------------------
 BYTE   TIE  Ds2  v060
 BYTE   TIE  As2
 BYTE   W96
// 057   ----------------------------------------
 BYTE   W92
 BYTE   W03
 BYTE   EOT
 BYTE   Ds2  v058
 BYTE   W01
// 058   ----------------------------------------
 BYTE   TIE  Ds2
 BYTE   TIE  Gn2
 BYTE   W96
// 059   ----------------------------------------
 BYTE   W92
 BYTE   W03
 BYTE   EOT
 BYTE   Ds2  v055
 BYTE   W01
 BYTE   PATT
  POIN2 Label_HandCombat7_01463DFE
// 060   ----------------------------------------
 BYTE   W92
 BYTE   W03
 BYTE   EOT
 BYTE   Gs2  v060
 BYTE   W01
// 061   ----------------------------------------
 BYTE   TIE  Gs2  v064
 BYTE   TIE  Cs3
 BYTE   W96
// 062   ----------------------------------------
 BYTE   W92
 BYTE   W03
 BYTE   EOT
 BYTE   Gs2  v061
 BYTE   W01
// 063   ----------------------------------------
 BYTE   TIE  As2
 BYTE   TIE  Ds3
 BYTE   W96
// 064   ----------------------------------------
 BYTE   W92
 BYTE   W03
 BYTE   EOT
 BYTE   As2  v063
 BYTE   W01
// 065   ----------------------------------------
 BYTE   TIE  Ds2
 BYTE   TIE  Gn2
 BYTE   W96
// 066   ----------------------------------------
 BYTE   W92
 BYTE   W03
 BYTE   EOT
 BYTE   Ds2  v055
 BYTE   W01
 BYTE   PATT
  POIN2 Label_HandCombat7_01463DFE
// 067   ----------------------------------------
 BYTE   W92
 BYTE   W03
 BYTE   EOT
 BYTE   Gs2  v060
 BYTE   W01
// 068   ----------------------------------------
 BYTE   W96
// 069   ----------------------------------------
 BYTE   W96
// 070   ----------------------------------------
 BYTE   W96
// 071   ----------------------------------------
 BYTE   W96
// 072   ----------------------------------------
 BYTE   W96
// 073   ----------------------------------------
 BYTE   W96
// 074   ----------------------------------------
 BYTE   W96
// 075   ----------------------------------------
 BYTE   W96
// 076   ----------------------------------------
 BYTE   GoTo
  POIN2 Label_HandCombat7_01463DC2
 BYTE   FINE

//**************** Track 9 (Midi-Chn.8) ****************//

HandCombat_009:
// 000   ----------------------------------------
 BYTE   KEYSH   HandCombat_key+0
Label_HandCombat8_01463E6A:
 BYTE   VOICE   73
 BYTE   VOL   60*HandCombat_mvl/mxv
 BYTE   PAN   c_v+0
 BYTE   W96
// 001   ----------------------------------------
 BYTE   W96
// 002   ----------------------------------------
 BYTE   W96
// 003   ----------------------------------------
 BYTE   W96
// 004   ----------------------------------------
 BYTE   W96
// 005   ----------------------------------------
 BYTE   W96
// 006   ----------------------------------------
 BYTE   W96
// 007   ----------------------------------------
 BYTE   W96
// 008   ----------------------------------------
 BYTE   W96
// 009   ----------------------------------------
 BYTE   W96
// 010   ----------------------------------------
 BYTE   W96
// 011   ----------------------------------------
 BYTE   W96
// 012   ----------------------------------------
 BYTE   W96
// 013   ----------------------------------------
 BYTE   W96
// 014   ----------------------------------------
 BYTE   W96
// 015   ----------------------------------------
 BYTE   W96
// 016   ----------------------------------------
 BYTE   W96
// 017   ----------------------------------------
 BYTE   W96
// 018   ----------------------------------------
 BYTE   W96
// 019   ----------------------------------------
 BYTE   W96
// 020   ----------------------------------------
 BYTE   W96
// 021   ----------------------------------------
 BYTE   W96
// 022   ----------------------------------------
 BYTE   W96
// 023   ----------------------------------------
 BYTE   W96
// 024   ----------------------------------------
 BYTE   W96
// 025   ----------------------------------------
 BYTE   W96
// 026   ----------------------------------------
 BYTE   W96
// 027   ----------------------------------------
 BYTE   W96
// 028   ----------------------------------------
 BYTE   W96
// 029   ----------------------------------------
 BYTE   W96
// 030   ----------------------------------------
 BYTE   W96
// 031   ----------------------------------------
 BYTE   W96
// 032   ----------------------------------------
 BYTE   W96
// 033   ----------------------------------------
 BYTE   W96
// 034   ----------------------------------------
 BYTE   W96
// 035   ----------------------------------------
 BYTE   W96
// 036   ----------------------------------------
 BYTE   W96
// 037   ----------------------------------------
 BYTE   W96
// 038   ----------------------------------------
 BYTE   W96
// 039   ----------------------------------------
 BYTE   W96
// 040   ----------------------------------------
 BYTE   W72
 BYTE   N05  Ds5  v100
 BYTE   W06
 BYTE   Fn5
 BYTE   W06
 BYTE   Gn5
 BYTE   W06
 BYTE   Gs5
 BYTE   W06
// 041   ----------------------------------------
 BYTE   Gn5
 BYTE   W06
 BYTE   Fn5
 BYTE   W06
 BYTE   Gn5
 BYTE   W06
 BYTE   Fn5
 BYTE   W06
 BYTE   Ds5
 BYTE   W06
 BYTE   As4
 BYTE   W06
 BYTE   As5
 BYTE   W06
 BYTE   Gs5
 BYTE   W06
 BYTE   Gn5
 BYTE   W06
 BYTE   Ds5
 BYTE   W06
 BYTE   Cn5
 BYTE   W06
 BYTE   As4
 BYTE   W06
 BYTE   Gs4
 BYTE   W06
 BYTE   Gn4
 BYTE   W06
 BYTE   Ds4
 BYTE   W06
 BYTE   Cn4
 BYTE   W06
// 042   ----------------------------------------
 BYTE   As5  v068
 BYTE   W06
 BYTE   Gs5  v088
 BYTE   W06
 BYTE   Gn5  v084
 BYTE   W06
 BYTE   Ds5  v080
 BYTE   W06
 BYTE   Cn5  v076
 BYTE   W06
 BYTE   As4  v072
 BYTE   W06
 BYTE   Gs4  v068
 BYTE   W06
 BYTE   Gn4
 BYTE   W06
 BYTE   Ds4  v064
 BYTE   W06
 BYTE   Cn4  v060
 BYTE   W06
 BYTE   As3  v056
 BYTE   W06
 BYTE   Gs3  v048
 BYTE   W06
 BYTE   Gn3  v044
 BYTE   W06
 BYTE   Ds3  v040
 BYTE   W06
 BYTE   Cn3
 BYTE   W06
 BYTE   As2
 BYTE   W06
// 043   ----------------------------------------
 BYTE   N02  Gn5  v084
 BYTE   W02
 BYTE   Gs5
 BYTE   W04
 BYTE   Gn5
 BYTE   W03
 BYTE   Gs5
 BYTE   W03
 BYTE   Gn5
 BYTE   W03
 BYTE   Gs5
 BYTE   W03
 BYTE   Gn5  v080
 BYTE   W03
 BYTE   Gs5  v076
 BYTE   W03
 BYTE   Gn5
 BYTE   W02
 BYTE   Gs5
 BYTE   W04
 BYTE   Gn5  v072
 BYTE   W02
 BYTE   Gs5
 BYTE   W04
 BYTE   Gn5
 BYTE   W02
 BYTE   Gs5  v068
 BYTE   W04
 BYTE   Gn5
 BYTE   W03
 BYTE   Gs5  v064
 BYTE   W03
 BYTE   Gn5
 BYTE   W03
 BYTE   Gs5  v060
 BYTE   W03
 BYTE   Gn5  v056
 BYTE   W03
 BYTE   Gs5
 BYTE   W03
 BYTE   Gn5  v052
 BYTE   W02
 BYTE   Gs5
 BYTE   W04
 BYTE   Gn5
 BYTE   W02
 BYTE   Gs5  v048
 BYTE   W04
 BYTE   Gn5
 BYTE   W02
 BYTE   Gs5
 BYTE   W04
 BYTE   Gn5
 BYTE   W02
 BYTE   Gs5  v044
 BYTE   W04
 BYTE   Gn5  v040
 BYTE   W03
 BYTE   Gs5  v036
 BYTE   W03
 BYTE   Gn5
 BYTE   W03
 BYTE   Gs5  v024
 BYTE   W03
// 044   ----------------------------------------
 BYTE   W96
// 045   ----------------------------------------
 BYTE   W96
// 046   ----------------------------------------
 BYTE   W96
// 047   ----------------------------------------
 BYTE   N05  Cs4  v052
 BYTE   W06
 BYTE   Cn4
 BYTE   W06
 BYTE   Cs4
 BYTE   W06
 BYTE   Ds4
 BYTE   W06
 BYTE   Fn4
 BYTE   W06
 BYTE   Ds4
 BYTE   W06
 BYTE   Fn4  v056
 BYTE   W06
 BYTE   Gn4  v060
 BYTE   W06
 BYTE   Gs4  v068
 BYTE   W06
 BYTE   Gn4  v072
 BYTE   W06
 BYTE   Gs4  v076
 BYTE   W06
 BYTE   As4  v080
 BYTE   W06
 BYTE   Cn5
 BYTE   W06
 BYTE   As4
 BYTE   W06
 BYTE   Cn5
 BYTE   W06
 BYTE   Cs5
 BYTE   W06
// 048   ----------------------------------------
 BYTE   Ds5  v076
 BYTE   W06
 BYTE   Cs5
 BYTE   W06
 BYTE   Ds5
 BYTE   W06
 BYTE   Fn5  v072
 BYTE   W06
 BYTE   Gn5
 BYTE   W06
 BYTE   Ds5  v064
 BYTE   W06
 BYTE   Gn5  v060
 BYTE   W06
 BYTE   As5  v052
 BYTE   W06
 BYTE   Cs6  v048
 BYTE   W06
 BYTE   As5
 BYTE   W06
 BYTE   Gn5
 BYTE   W06
 BYTE   As5  v044
 BYTE   W06
 BYTE   Cs6
 BYTE   W06
 BYTE   Fn6
 BYTE   W06
 BYTE   Cs6
 BYTE   W06
 BYTE   As5
 BYTE   W06
// 049   ----------------------------------------
 BYTE   As5  v048
 BYTE   W06
 BYTE   Gn5
 BYTE   W06
 BYTE   Ds5  v052
 BYTE   W06
 BYTE   Cn5
 BYTE   W06
 BYTE   Gn5  v056
 BYTE   W06
 BYTE   Ds5  v060
 BYTE   W06
 BYTE   Cn5  v064
 BYTE   W06
 BYTE   Gn4  v068
 BYTE   W06
 BYTE   Ds5  v076
 BYTE   W06
 BYTE   Cn5
 BYTE   W06
 BYTE   Gn4  v080
 BYTE   W06
 BYTE   Ds4
 BYTE   W06
 BYTE   Cn5
 BYTE   W06
 BYTE   Gn4  v076
 BYTE   W06
 BYTE   Ds4
 BYTE   W06
 BYTE   Cn4  v072
 BYTE   W06
// 050   ----------------------------------------
 BYTE   Gn4  v068
 BYTE   W06
 BYTE   Ds4  v064
 BYTE   W06
 BYTE   Cn4  v056
 BYTE   W06
 BYTE   Gn3
 BYTE   W06
 BYTE   Ds4  v048
 BYTE   W06
 BYTE   Cn4  v044
 BYTE   W06
 BYTE   Gn3  v036
 BYTE   W06
 BYTE   Ds3  v028
 BYTE   W54
// 051   ----------------------------------------
 BYTE   W96
// 052   ----------------------------------------
 BYTE   W96
// 053   ----------------------------------------
 BYTE   W96
// 054   ----------------------------------------
 BYTE   W96
// 055   ----------------------------------------
 BYTE   W96
// 056   ----------------------------------------
 BYTE   W96
// 057   ----------------------------------------
 BYTE   W96
// 058   ----------------------------------------
 BYTE   W96
// 059   ----------------------------------------
 BYTE   W96
// 060   ----------------------------------------
 BYTE   W96
// 061   ----------------------------------------
 BYTE   W96
// 062   ----------------------------------------
 BYTE   W96
// 063   ----------------------------------------
 BYTE   W96
// 064   ----------------------------------------
 BYTE   W96
// 065   ----------------------------------------
 BYTE   W96
// 066   ----------------------------------------
 BYTE   W96
// 067   ----------------------------------------
 BYTE   W96
// 068   ----------------------------------------
 BYTE   W96
// 069   ----------------------------------------
 BYTE   W96
// 070   ----------------------------------------
 BYTE   W96
// 071   ----------------------------------------
 BYTE   W96
// 072   ----------------------------------------
 BYTE   W96
// 073   ----------------------------------------
 BYTE   W96
// 074   ----------------------------------------
 BYTE   W96
// 075   ----------------------------------------
 BYTE   W96
// 076   ----------------------------------------
 BYTE   W96
// 077   ----------------------------------------
 BYTE   W96
// 078   ----------------------------------------
 BYTE   GoTo
  POIN2 Label_HandCombat8_01463E6A
 BYTE   FINE

//**************** Track 10 (Midi-Chn.9) ****************//

HandCombat_010:
// 000   ----------------------------------------
 BYTE   KEYSH   HandCombat_key+0
Label_HandCombat9_01463FF6:
 BYTE   VOICE   46
 BYTE   VOL   60*HandCombat_mvl/mxv
 BYTE   PAN   c_v+0
 BYTE   W96
// 001   ----------------------------------------
 BYTE   W96
// 002   ----------------------------------------
 BYTE   W96
// 003   ----------------------------------------
 BYTE   W96
// 004   ----------------------------------------
 BYTE   W96
// 005   ----------------------------------------
 BYTE   W96
// 006   ----------------------------------------
 BYTE   W96
// 007   ----------------------------------------
 BYTE   W96
// 008   ----------------------------------------
 BYTE   W96
// 009   ----------------------------------------
 BYTE   W96
// 010   ----------------------------------------
 BYTE   W96
// 011   ----------------------------------------
 BYTE   W96
// 012   ----------------------------------------
 BYTE   W96
// 013   ----------------------------------------
 BYTE   W96
// 014   ----------------------------------------
 BYTE   W96
// 015   ----------------------------------------
 BYTE   W96
// 016   ----------------------------------------
 BYTE   W96
// 017   ----------------------------------------
 BYTE   W96
// 018   ----------------------------------------
 BYTE   W96
// 019   ----------------------------------------
 BYTE   W96
// 020   ----------------------------------------
 BYTE   W96
// 021   ----------------------------------------
 BYTE   W96
// 022   ----------------------------------------
 BYTE   W96
// 023   ----------------------------------------
 BYTE   W96
// 024   ----------------------------------------
 BYTE   W96
// 025   ----------------------------------------
 BYTE   W96
// 026   ----------------------------------------
 BYTE   W96
// 027   ----------------------------------------
 BYTE   W96
// 028   ----------------------------------------
 BYTE   W96
// 029   ----------------------------------------
 BYTE   W96
// 030   ----------------------------------------
 BYTE   W96
// 031   ----------------------------------------
 BYTE   W96
// 032   ----------------------------------------
 BYTE   W96
// 033   ----------------------------------------
 BYTE   W96
// 034   ----------------------------------------
 BYTE   W96
// 035   ----------------------------------------
 BYTE   W96
// 036   ----------------------------------------
 BYTE   W96
// 037   ----------------------------------------
 BYTE   W96
// 038   ----------------------------------------
 BYTE   W96
// 039   ----------------------------------------
 BYTE   W96
// 040   ----------------------------------------
 BYTE   W96
// 041   ----------------------------------------
 BYTE   W96
// 042   ----------------------------------------
 BYTE   W96
// 043   ----------------------------------------
 BYTE   W96
// 044   ----------------------------------------
 BYTE   W96
// 045   ----------------------------------------
 BYTE   N02  Cn3  v060
 BYTE   W02
 BYTE   Dn3
 BYTE   W04
 BYTE   En3
 BYTE   W03
 BYTE   Fn3
 BYTE   W03
 BYTE   Gn3  v056
 BYTE   W03
 BYTE   An3
 BYTE   W03
 BYTE   Bn3
 BYTE   W03
 BYTE   Cn4
 BYTE   W03
 BYTE   Dn4
 BYTE   W02
 BYTE   En4
 BYTE   W04
 BYTE   Fn4
 BYTE   W02
 BYTE   Gn4
 BYTE   W04
 BYTE   An4
 BYTE   W02
 BYTE   Bn4
 BYTE   W04
 BYTE   Cn5
 BYTE   W03
 BYTE   Bn4
 BYTE   W03
 BYTE   An4
 BYTE   W03
 BYTE   Gn4
 BYTE   W03
 BYTE   Fn4
 BYTE   W03
 BYTE   En4
 BYTE   W03
 BYTE   Dn4
 BYTE   W02
 BYTE   Cn4
 BYTE   W04
 BYTE   Bn3
 BYTE   W02
 BYTE   An3
 BYTE   W04
 BYTE   Gn3
 BYTE   W02
 BYTE   Fn3
 BYTE   W04
 BYTE   En3
 BYTE   W03
 BYTE   Dn3
 BYTE   W03
 BYTE   Cn3
 BYTE   W03
 BYTE   Bn2
 BYTE   W03
 BYTE   An2
 BYTE   W03
 BYTE   Gn2
 BYTE   W03
// 046   ----------------------------------------
 BYTE   Cn5
 BYTE   W03
 BYTE   Bn4
 BYTE   W03
 BYTE   An4  v052
 BYTE   W02
 BYTE   Gn4
 BYTE   W04
 BYTE   Fn4  v048
 BYTE   W02
 BYTE   En4
 BYTE   W04
 BYTE   Dn4
 BYTE   W02
 BYTE   Cn4  v044
 BYTE   W04
 BYTE   Bn3
 BYTE   W03
 BYTE   An3
 BYTE   W03
 BYTE   Gn3  v040
 BYTE   W03
 BYTE   Fn3
 BYTE   W03
 BYTE   En3  v036
 BYTE   W03
 BYTE   Dn3  v032
 BYTE   W03
 BYTE   Cn3  v028
 BYTE   W02
 BYTE   Bn2
 BYTE   W04
 BYTE   An2
 BYTE   W02
 BYTE   Gn2  v024
 BYTE   W04
 BYTE   Fn2
 BYTE   W02
 BYTE   En2
 BYTE   W04
 BYTE   Dn2  v020
 BYTE   W03
 BYTE   Cn2
 BYTE   W03
 BYTE   Bn1
 BYTE   W03
 BYTE   An1  v016
 BYTE   W03
 BYTE   Gn1
 BYTE   W03
 BYTE   Fn1  v012
 BYTE   W03
 BYTE   En1  v008
 BYTE   W02
 BYTE   Dn1
 BYTE   W04
 BYTE   Cn1
 BYTE   W12
// 047   ----------------------------------------
 BYTE   W96
// 048   ----------------------------------------
 BYTE   W96
// 049   ----------------------------------------
 BYTE   W96
// 050   ----------------------------------------
 BYTE   W96
// 051   ----------------------------------------
 BYTE   W96
// 052   ----------------------------------------
 BYTE   W96
// 053   ----------------------------------------
 BYTE   W96
// 054   ----------------------------------------
 BYTE   W96
// 055   ----------------------------------------
 BYTE   W96
// 056   ----------------------------------------
 BYTE   W96
// 057   ----------------------------------------
 BYTE   W96
// 058   ----------------------------------------
 BYTE   W96
// 059   ----------------------------------------
 BYTE   W96
// 060   ----------------------------------------
 BYTE   W96
// 061   ----------------------------------------
 BYTE   W96
// 062   ----------------------------------------
 BYTE   W96
// 063   ----------------------------------------
 BYTE   W96
// 064   ----------------------------------------
 BYTE   W96
// 065   ----------------------------------------
 BYTE   W96
// 066   ----------------------------------------
 BYTE   W96
// 067   ----------------------------------------
 BYTE   W96
// 068   ----------------------------------------
 BYTE   W96
// 069   ----------------------------------------
 BYTE   W96
// 070   ----------------------------------------
 BYTE   W96
// 071   ----------------------------------------
 BYTE   W96
// 072   ----------------------------------------
 BYTE   W96
// 073   ----------------------------------------
 BYTE   W96
// 074   ----------------------------------------
 BYTE   W96
// 075   ----------------------------------------
 BYTE   W96
// 076   ----------------------------------------
 BYTE   W96
// 077   ----------------------------------------
 BYTE   W96
// 078   ----------------------------------------
 BYTE   GoTo
  POIN2 Label_HandCombat9_01463FF6
 BYTE   FINE

//**************** Track 11 (Midi-Chn.10) ****************//

HandCombat_011:
// 000   ----------------------------------------
 BYTE   KEYSH   HandCombat_key+0
Label_HandCombat10_014640DA:
 BYTE   VOICE   46
 BYTE   VOL   47*HandCombat_mvl/mxv
 BYTE   PAN   c_v+0
 BYTE   W96
// 001   ----------------------------------------
 BYTE   W96
// 002   ----------------------------------------
 BYTE   W96
// 003   ----------------------------------------
 BYTE   W96
// 004   ----------------------------------------
 BYTE   W96
// 005   ----------------------------------------
 BYTE   W96
// 006   ----------------------------------------
 BYTE   W96
// 007   ----------------------------------------
 BYTE   W96
// 008   ----------------------------------------
 BYTE   W96
// 009   ----------------------------------------
 BYTE   W96
// 010   ----------------------------------------
 BYTE   W96
// 011   ----------------------------------------
 BYTE   W96
// 012   ----------------------------------------
 BYTE   W96
// 013   ----------------------------------------
 BYTE   W96
// 014   ----------------------------------------
 BYTE   W96
// 015   ----------------------------------------
 BYTE   W96
// 016   ----------------------------------------
 BYTE   W96
// 017   ----------------------------------------
 BYTE   W96
// 018   ----------------------------------------
 BYTE   W96
// 019   ----------------------------------------
 BYTE   W96
// 020   ----------------------------------------
 BYTE   W96
// 021   ----------------------------------------
 BYTE   W96
// 022   ----------------------------------------
 BYTE   W96
// 023   ----------------------------------------
 BYTE   W96
// 024   ----------------------------------------
 BYTE   W96
// 025   ----------------------------------------
 BYTE   W96
// 026   ----------------------------------------
 BYTE   W96
// 027   ----------------------------------------
 BYTE   W96
// 028   ----------------------------------------
 BYTE   W96
// 029   ----------------------------------------
 BYTE   W96
// 030   ----------------------------------------
 BYTE   W96
// 031   ----------------------------------------
 BYTE   W96
// 032   ----------------------------------------
 BYTE   W96
// 033   ----------------------------------------
 BYTE   W96
// 034   ----------------------------------------
 BYTE   W96
// 035   ----------------------------------------
 BYTE   W96
// 036   ----------------------------------------
 BYTE   W96
// 037   ----------------------------------------
 BYTE   W96
// 038   ----------------------------------------
 BYTE   W96
// 039   ----------------------------------------
 BYTE   W96
// 040   ----------------------------------------
 BYTE   W96
// 041   ----------------------------------------
 BYTE   W96
// 042   ----------------------------------------
 BYTE   W96
// 043   ----------------------------------------
 BYTE   W96
// 044   ----------------------------------------
 BYTE   W96
// 045   ----------------------------------------
 BYTE   W96
// 046   ----------------------------------------
 BYTE   W96
// 047   ----------------------------------------
 BYTE   W96
// 048   ----------------------------------------
 BYTE   W96
// 049   ----------------------------------------
 BYTE   W96
// 050   ----------------------------------------
 BYTE   W96
// 051   ----------------------------------------
 BYTE   W96
// 052   ----------------------------------------
 BYTE   W96
// 053   ----------------------------------------
 BYTE   W96
// 054   ----------------------------------------
 BYTE   W96
// 055   ----------------------------------------
 BYTE   W96
// 056   ----------------------------------------
 BYTE   W96
// 057   ----------------------------------------
 BYTE   W96
// 058   ----------------------------------------
 BYTE   W96
// 059   ----------------------------------------
 BYTE   W96
// 060   ----------------------------------------
 BYTE   W96
// 061   ----------------------------------------
 BYTE   W96
// 062   ----------------------------------------
 BYTE   N05  Cs3  v100
 BYTE   W06
 BYTE   Cn3
 BYTE   W06
 BYTE   Cs3
 BYTE   W06
 BYTE   Ds3
 BYTE   W06
 BYTE   Fn3
 BYTE   W06
 BYTE   Ds3
 BYTE   W06
 BYTE   Cs3
 BYTE   W06
 BYTE   Cn3
 BYTE   W06
 BYTE   Cs3
 BYTE   W06
 BYTE   Cn3
 BYTE   W06
 BYTE   Cs3
 BYTE   W06
 BYTE   Ds3
 BYTE   W06
 BYTE   Fn3
 BYTE   W06
 BYTE   Ds3
 BYTE   W06
 BYTE   Cs3
 BYTE   W06
 BYTE   Cn3
 BYTE   W06
// 063   ----------------------------------------
 BYTE   Gn3
 BYTE   W06
 BYTE   Gs3
 BYTE   W06
 BYTE   As3
 BYTE   W06
 BYTE   Gs3
 BYTE   W06
 BYTE   Gn3
 BYTE   W06
 BYTE   Ds3
 BYTE   W06
 BYTE   Gn3
 BYTE   W06
 BYTE   Ds3
 BYTE   W06
 BYTE   As3
 BYTE   W06
 BYTE   Gs3
 BYTE   W06
 BYTE   Gn3
 BYTE   W06
 BYTE   Ds3
 BYTE   W06
 BYTE   As2
 BYTE   W06
 BYTE   Gs2
 BYTE   W06
 BYTE   Gn2
 BYTE   W06
 BYTE   Ds2
 BYTE   W06
// 064   ----------------------------------------
 BYTE   Ds3
 BYTE   W06
 BYTE   Cs3
 BYTE   W06
 BYTE   Cn3
 BYTE   W06
 BYTE   Cs3
 BYTE   W06
 BYTE   Ds3
 BYTE   W06
 BYTE   Fn3
 BYTE   W06
 BYTE   Gn3
 BYTE   W06
 BYTE   Ds3
 BYTE   W06
 BYTE   Cn3
 BYTE   W06
 BYTE   As2
 BYTE   W06
 BYTE   Gs2
 BYTE   W06
 BYTE   As2
 BYTE   W06
 BYTE   Cn3
 BYTE   W06
 BYTE   As2
 BYTE   W06
 BYTE   Cn3
 BYTE   W06
 BYTE   Ds3
 BYTE   W06
// 065   ----------------------------------------
 BYTE   Fn3
 BYTE   W06
 BYTE   Gn3
 BYTE   W06
 BYTE   Gs3
 BYTE   W06
 BYTE   As3
 BYTE   W06
 BYTE   Cn4
 BYTE   W06
 BYTE   Cs4
 BYTE   W06
 BYTE   Ds4
 BYTE   W06
 BYTE   Fn4
 BYTE   W06
 BYTE   Ds4
 BYTE   W06
 BYTE   Cs4
 BYTE   W06
 BYTE   Cn4
 BYTE   W06
 BYTE   As3
 BYTE   W06
 BYTE   Gs3
 BYTE   W06
 BYTE   Gn3
 BYTE   W06
 BYTE   Fn3
 BYTE   W06
 BYTE   Ds3
 BYTE   W06
// 066   ----------------------------------------
 BYTE   Cs3
 BYTE   W06
 BYTE   Cn3
 BYTE   W06
 BYTE   As2
 BYTE   W06
 BYTE   Cn3
 BYTE   W06
 BYTE   Cs3
 BYTE   W06
 BYTE   Cn3
 BYTE   W06
 BYTE   Fn3
 BYTE   W06
 BYTE   Cs3
 BYTE   W06
 BYTE   N05
 BYTE   W06
 BYTE   Cn3
 BYTE   W06
 BYTE   As2
 BYTE   W06
 BYTE   Cn3
 BYTE   W06
 BYTE   Ds3
 BYTE   W06
 BYTE   Cs3
 BYTE   W06
 BYTE   Cn3
 BYTE   W06
 BYTE   As2
 BYTE   W06
// 067   ----------------------------------------
 BYTE   Cn3
 BYTE   W06
 BYTE   As2
 BYTE   W06
 BYTE   Cn3
 BYTE   W06
 BYTE   Ds3
 BYTE   W06
 BYTE   Fn3
 BYTE   W06
 BYTE   Ds3
 BYTE   W06
 BYTE   Cs3
 BYTE   W06
 BYTE   Cn3
 BYTE   W06
 BYTE   As2
 BYTE   W06
 BYTE   Gs2
 BYTE   W06
 BYTE   Gn2  v096
 BYTE   W06
 BYTE   Gs2
 BYTE   W06
 BYTE   As2
 BYTE   W06
 BYTE   Gs2  v092
 BYTE   W06
 BYTE   Gn2
 BYTE   W06
 BYTE   Ds2
 BYTE   W06
// 068   ----------------------------------------
 BYTE   Fn2
 BYTE   W06
 BYTE   Gn2
 BYTE   W06
 BYTE   Gs2
 BYTE   W06
 BYTE   As2  v088
 BYTE   W06
 BYTE   Cn3  v084
 BYTE   W06
 BYTE   Cs3  v080
 BYTE   W06
 BYTE   Cn3  v076
 BYTE   W06
 BYTE   As2  v072
 BYTE   W06
 BYTE   Gs2  v068
 BYTE   W06
 BYTE   As2  v064
 BYTE   W06
 BYTE   Cn3
 BYTE   W06
 BYTE   As2  v060
 BYTE   W06
 BYTE   Gs2  v052
 BYTE   W06
 BYTE   Gn2  v048
 BYTE   W06
 BYTE   Fn2  v044
 BYTE   W06
 BYTE   Ds2  v036
 BYTE   W06
// 069   ----------------------------------------
 BYTE   W96
// 070   ----------------------------------------
 BYTE   W96
// 071   ----------------------------------------
 BYTE   W96
// 072   ----------------------------------------
 BYTE   W96
// 073   ----------------------------------------
 BYTE   W96
// 074   ----------------------------------------
 BYTE   W96
// 075   ----------------------------------------
 BYTE   W96
// 076   ----------------------------------------
 BYTE   W96
// 077   ----------------------------------------
 BYTE   W96
// 078   ----------------------------------------
 BYTE   GoTo
  POIN2 Label_HandCombat10_014640DA
 BYTE   FINE

//**************** Track 12 (Midi-Chn.11) ****************//

HandCombat_012:
// 000   ----------------------------------------
 BYTE   KEYSH   HandCombat_key+0
Label_HandCombat11_01464222:
 BYTE   VOICE   124
 BYTE   VOL   60*HandCombat_mvl/mxv
 BYTE   PAN   c_v+0
 BYTE   N23  Cn1  v100
 BYTE   N11  Gs1
 BYTE   N12  Ds2  v064
 BYTE   W12
 BYTE   N05  Gs1  v100
 BYTE   N05  Ds2  v064
 BYTE   W06
 BYTE   Gs1  v100
 BYTE   N06  Fs2  v064
 BYTE   W06
 BYTE   N24  Cn1
 BYTE   N11  Dn1  v100
 BYTE   N11  Gs1
 BYTE   N12  Ds2  v064
 BYTE   W12
 BYTE   N05  Gs1  v100
 BYTE   N05  Ds2  v064
 BYTE   W06
 BYTE   Gs1  v100
 BYTE   N06  Fs2  v064
 BYTE   W06
 BYTE   N23  Cn1  v100
 BYTE   N11  Gs1
 BYTE   N11  Ds2  v064
 BYTE   W12
 BYTE   N05  Gs1  v100
 BYTE   N05  Ds2  v064
 BYTE   W06
 BYTE   Gs1  v100
 BYTE   N06  Fs2  v064
 BYTE   W06
 BYTE   N24  Cn1
 BYTE   N11  Dn1  v100
 BYTE   N11  Gs1
 BYTE   N11  Ds2  v064
 BYTE   W12
 BYTE   N05  Gs1  v100
 BYTE   N05  Ds2  v064
 BYTE   W06
 BYTE   Gs1  v100
 BYTE   N06  Fs2  v064
 BYTE   W06
// 001   ----------------------------------------
Label_HandCombat11_01464284:
 BYTE   N23  Cn1  v100
 BYTE   N11  Gs1
 BYTE   N12  Ds2  v064
 BYTE   W12
 BYTE   N05  Gs1  v100
 BYTE   N05  Ds2  v064
 BYTE   W06
 BYTE   Gs1  v100
 BYTE   N06  Fs2  v064
 BYTE   W06
 BYTE   N24  Cn1
 BYTE   N11  Dn1  v100
 BYTE   N11  Gs1
 BYTE   N12  Ds2  v064
 BYTE   W12
 BYTE   N05  Gs1  v100
 BYTE   N05  Ds2  v064
 BYTE   W06
 BYTE   Gs1  v100
 BYTE   N06  Fs2  v064
 BYTE   W06
 BYTE   N23  Cn1  v100
 BYTE   N11  Gs1
 BYTE   N11  Ds2  v064
 BYTE   W12
 BYTE   N05  Gs1  v100
 BYTE   N05  Ds2  v064
 BYTE   W06
 BYTE   Gs1  v100
 BYTE   N06  Fs2  v064
 BYTE   W06
 BYTE   N24  Cn1
 BYTE   N11  Dn1  v100
 BYTE   N11  Gs1
 BYTE   N11  Ds2  v064
 BYTE   W12
 BYTE   N05  Gs1  v100
 BYTE   N05  Ds2  v064
 BYTE   W06
 BYTE   Gs1  v100
 BYTE   N06  Fs2  v064
 BYTE   W06
 BYTE   PEND 
 BYTE   PATT
  POIN2 Label_HandCombat11_01464284
 BYTE   PATT
  POIN2 Label_HandCombat11_01464284
 BYTE   PATT
  POIN2 Label_HandCombat11_01464284
 BYTE   PATT
  POIN2 Label_HandCombat11_01464284
 BYTE   PATT
  POIN2 Label_HandCombat11_01464284
 BYTE   PATT
  POIN2 Label_HandCombat11_01464284
 BYTE   PATT
  POIN2 Label_HandCombat11_01464284
 BYTE   PATT
  POIN2 Label_HandCombat11_01464284
 BYTE   PATT
  POIN2 Label_HandCombat11_01464284
 BYTE   PATT
  POIN2 Label_HandCombat11_01464284
 BYTE   PATT
  POIN2 Label_HandCombat11_01464284
 BYTE   PATT
  POIN2 Label_HandCombat11_01464284
 BYTE   PATT
  POIN2 Label_HandCombat11_01464284
// 002   ----------------------------------------
 BYTE   W96
// 003   ----------------------------------------
 BYTE   W96
// 004   ----------------------------------------
 BYTE   W96
 BYTE   PATT
  POIN2 Label_HandCombat11_01464284
 BYTE   PATT
  POIN2 Label_HandCombat11_01464284
 BYTE   PATT
  POIN2 Label_HandCombat11_01464284
 BYTE   PATT
  POIN2 Label_HandCombat11_01464284
 BYTE   PATT
  POIN2 Label_HandCombat11_01464284
 BYTE   PATT
  POIN2 Label_HandCombat11_01464284
 BYTE   PATT
  POIN2 Label_HandCombat11_01464284
 BYTE   PATT
  POIN2 Label_HandCombat11_01464284
 BYTE   PATT
  POIN2 Label_HandCombat11_01464284
 BYTE   PATT
  POIN2 Label_HandCombat11_01464284
 BYTE   PATT
  POIN2 Label_HandCombat11_01464284
 BYTE   PATT
  POIN2 Label_HandCombat11_01464284
 BYTE   PATT
  POIN2 Label_HandCombat11_01464284
 BYTE   PATT
  POIN2 Label_HandCombat11_01464284
 BYTE   PATT
  POIN2 Label_HandCombat11_01464284
 BYTE   PATT
  POIN2 Label_HandCombat11_01464284
 BYTE   PATT
  POIN2 Label_HandCombat11_01464284
 BYTE   PATT
  POIN2 Label_HandCombat11_01464284
 BYTE   PATT
  POIN2 Label_HandCombat11_01464284
 BYTE   PATT
  POIN2 Label_HandCombat11_01464284
 BYTE   PATT
  POIN2 Label_HandCombat11_01464284
 BYTE   PATT
  POIN2 Label_HandCombat11_01464284
 BYTE   PATT
  POIN2 Label_HandCombat11_01464284
 BYTE   PATT
  POIN2 Label_HandCombat11_01464284
 BYTE   PATT
  POIN2 Label_HandCombat11_01464284
 BYTE   PATT
  POIN2 Label_HandCombat11_01464284
 BYTE   PATT
  POIN2 Label_HandCombat11_01464284
 BYTE   PATT
  POIN2 Label_HandCombat11_01464284
 BYTE   PATT
  POIN2 Label_HandCombat11_01464284
 BYTE   PATT
  POIN2 Label_HandCombat11_01464284
 BYTE   PATT
  POIN2 Label_HandCombat11_01464284
 BYTE   PATT
  POIN2 Label_HandCombat11_01464284
 BYTE   PATT
  POIN2 Label_HandCombat11_01464284
 BYTE   PATT
  POIN2 Label_HandCombat11_01464284
 BYTE   PATT
  POIN2 Label_HandCombat11_01464284
 BYTE   PATT
  POIN2 Label_HandCombat11_01464284
 BYTE   PATT
  POIN2 Label_HandCombat11_01464284
 BYTE   PATT
  POIN2 Label_HandCombat11_01464284
 BYTE   PATT
  POIN2 Label_HandCombat11_01464284
 BYTE   PATT
  POIN2 Label_HandCombat11_01464284
 BYTE   PATT
  POIN2 Label_HandCombat11_01464284
 BYTE   PATT
  POIN2 Label_HandCombat11_01464284
 BYTE   PATT
  POIN2 Label_HandCombat11_01464284
 BYTE   PATT
  POIN2 Label_HandCombat11_01464284
 BYTE   PATT
  POIN2 Label_HandCombat11_01464284
 BYTE   PATT
  POIN2 Label_HandCombat11_01464284
 BYTE   PATT
  POIN2 Label_HandCombat11_01464284
 BYTE   PATT
  POIN2 Label_HandCombat11_01464284
 BYTE   PATT
  POIN2 Label_HandCombat11_01464284
 BYTE   PATT
  POIN2 Label_HandCombat11_01464284
 BYTE   PATT
  POIN2 Label_HandCombat11_01464284
 BYTE   PATT
  POIN2 Label_HandCombat11_01464284
 BYTE   PATT
  POIN2 Label_HandCombat11_01464284
 BYTE   PATT
  POIN2 Label_HandCombat11_01464284
 BYTE   PATT
  POIN2 Label_HandCombat11_01464284
 BYTE   PATT
  POIN2 Label_HandCombat11_01464284
 BYTE   PATT
  POIN2 Label_HandCombat11_01464284
 BYTE   PATT
  POIN2 Label_HandCombat11_01464284
 BYTE   PATT
  POIN2 Label_HandCombat11_01464284
 BYTE   PATT
  POIN2 Label_HandCombat11_01464284
// 005   ----------------------------------------
 BYTE   GoTo
  POIN2 Label_HandCombat11_01464222
 BYTE   FINE

//******************************************************//
	ALIGN 4

songHandCombat:
	BYTE	12	// NumTrks
	BYTE	0	// NumBlks
	BYTE	HandCombat_pri	// Priority
	BYTE	HandCombat_rev	// Reverb.
    
	POIN2	HandCombat_grp
    
	POIN2	HandCombat_001
	POIN2	HandCombat_002
	POIN2	HandCombat_003
	POIN2	HandCombat_004
	POIN2	HandCombat_005
	POIN2	HandCombat_006
	POIN2	HandCombat_007
	POIN2	HandCombat_008
	POIN2	HandCombat_009
	POIN2	HandCombat_010
	POIN2	HandCombat_011
	POIN2	HandCombat_012

	
