//Event file generated from Sappy .s format.
	#include "MPlayDef.event"

	#define	songIDontThinkWeCanTakeEm_grp  voicegroup000
	#define	songIDontThinkWeCanTakeEm_pri  0
	#define	songIDontThinkWeCanTakeEm_rev  0
	#define	songIDontThinkWeCanTakeEm_mvl  127
	#define	songIDontThinkWeCanTakeEm_key  0
	#define	songIDontThinkWeCanTakeEm_tbs  1
	#define	songIDontThinkWeCanTakeEm_exg  0
	#define	songIDontThinkWeCanTakeEm_cmp  1

	// .rodata
	//	songIDontThinkWeCanTakeEm
	ALIGN 4


//**************** Track 1 (Midi-Chn.0) ****************//

songIDontThinkWeCanTakeEm_001:
// 000   ----------------------------------------
 BYTE   VOL   80*songIDontThinkWeCanTakeEm_mvl/mxv
 BYTE   KEYSH   songIDontThinkWeCanTakeEm_key+0
Label_0_01492C40:
 BYTE   TEMPO   140*songIDontThinkWeCanTakeEm_tbs/2
 BYTE   VOICE   48
 BYTE   W12
 BYTE   N03  Gn3  v064
 BYTE   W12
 BYTE   N02  Fn4
 BYTE   W06
 BYTE   N03  Gn4
 BYTE   W12
 BYTE   Dn4
 BYTE   W24
 BYTE   N02  Gn3
 BYTE   W12
 BYTE   Fn3
 BYTE   W12
 BYTE   Gn3
 BYTE   W06
// 001   ----------------------------------------
 BYTE   W12
 BYTE   N02
 BYTE   W12
 BYTE   Fn4
 BYTE   W06
 BYTE   N03  Gn4
 BYTE   W12
 BYTE   Dn4
 BYTE   W12
 BYTE   N02  Gn4
 BYTE   W06
 BYTE   N03  Cn4
 BYTE   W06
 BYTE   N02  Gn3
 BYTE   W12
 BYTE   Dn4
 BYTE   W06
 BYTE   N03  Cn4
 BYTE   W06
 BYTE   Gn3
 BYTE   W06
// 002   ----------------------------------------
 BYTE   W12
 BYTE   N02
 BYTE   W12
 BYTE   As3
 BYTE   W06
 BYTE   N03  Cn4
 BYTE   W12
 BYTE   N02  Dn4
 BYTE   W12
 BYTE   Gn3
 BYTE   W06
 BYTE   N03  Fn3
 BYTE   W06
 BYTE   N02  Gn3
 BYTE   W12
 BYTE   N03  Fn4
 BYTE   W12
 BYTE   Gn4
 BYTE   W06
// 003   ----------------------------------------
 BYTE   W96
// 004   ----------------------------------------
 BYTE   W96
// 005   ----------------------------------------
 BYTE   W96
// 006   ----------------------------------------
 BYTE   W96
// 007   ----------------------------------------
 BYTE   W96
// 008   ----------------------------------------
 BYTE   W96
// 009   ----------------------------------------
 BYTE   W96
// 010   ----------------------------------------
 BYTE   W96
// 011   ----------------------------------------
 BYTE   W96
// 012   ----------------------------------------
 BYTE   W96
// 013   ----------------------------------------
 BYTE   GoTo
  POIN2 Label_0_01492C40
 BYTE   FINE

//**************** Track 2 (Midi-Chn.1) ****************//

songIDontThinkWeCanTakeEm_002:
// 000   ----------------------------------------
 BYTE   VOL   80*songIDontThinkWeCanTakeEm_mvl/mxv
 BYTE   KEYSH   songIDontThinkWeCanTakeEm_key+0
Label_1_01492BFC:
 BYTE   VOICE   61
 BYTE   W96
// 001   ----------------------------------------
 BYTE   W96
// 002   ----------------------------------------
 BYTE   W96
// 003   ----------------------------------------
Label_1_01492C01:
 BYTE   N72  Dn4  v048
 BYTE   N72  Gn4
 BYTE   W78
 BYTE   N06  As3
 BYTE   N06  Gn4
 BYTE   W06
 BYTE   As3  v040
 BYTE   N06  Gn4
 BYTE   W06
 BYTE   As3  v036
 BYTE   N06  Gn4
 BYTE   W06
 BYTE   PEND 
 BYTE   PATT
  POIN2 Label_1_01492C01
// 004   ----------------------------------------
 BYTE   N72  Dn4  v048
 BYTE   N72  Gn4
 BYTE   W96
// 005   ----------------------------------------
 BYTE   W96
// 006   ----------------------------------------
 BYTE   W96
// 007   ----------------------------------------
 BYTE   W96
// 008   ----------------------------------------
 BYTE   W96
// 009   ----------------------------------------
 BYTE   W96
// 010   ----------------------------------------
 BYTE   W96
// 011   ----------------------------------------
 BYTE   W96
// 012   ----------------------------------------
 BYTE   GoTo
  POIN2 Label_1_01492BFC
 BYTE   FINE

//**************** Track 3 (Midi-Chn.2) ****************//

songIDontThinkWeCanTakeEm_003:
// 000   ----------------------------------------
 BYTE   VOL   80*songIDontThinkWeCanTakeEm_mvl/mxv
 BYTE   KEYSH   songIDontThinkWeCanTakeEm_key+0
Label_2_01492EB0:
 BYTE   VOICE   48
 BYTE   W96
// 001   ----------------------------------------
 BYTE   W96
// 002   ----------------------------------------
 BYTE   W96
// 003   ----------------------------------------
 BYTE   W96
// 004   ----------------------------------------
 BYTE   W96
// 005   ----------------------------------------
 BYTE   N24  Gn3  v048
 BYTE   N24  As3
 BYTE   W24
 BYTE   N24
 BYTE   N24  Dn4
 BYTE   W24
 BYTE   Gs3
 BYTE   N24  Bn3
 BYTE   W24
 BYTE   N24
 BYTE   N24  Ds4
 BYTE   W24
// 006   ----------------------------------------
 BYTE   Gn3
 BYTE   N24  As3
 BYTE   W24
 BYTE   Bn3
 BYTE   N24  Gn4
 BYTE   W24
 BYTE   Bn3
 BYTE   N24  Gs4
 BYTE   W24
 BYTE   N18  En4
 BYTE   N18  An4
 BYTE   W24
// 007   ----------------------------------------
Label_2_01492EDA:
 BYTE   N12  En4  v048
 BYTE   N12  An4
 BYTE   W24
 BYTE   En4
 BYTE   N12  An4
 BYTE   W24
 BYTE   En4
 BYTE   N12  An4
 BYTE   W24
 BYTE   N06  Fn4
 BYTE   N06  As4
 BYTE   W06
 BYTE   En4
 BYTE   N06  An4
 BYTE   W18
 BYTE   PEND 
// 008   ----------------------------------------
Label_2_01492EF2:
 BYTE   N12  En4  v048
 BYTE   N12  An4
 BYTE   W24
 BYTE   En4
 BYTE   N12  An4
 BYTE   W24
 BYTE   En4
 BYTE   N12  An4
 BYTE   W24
 BYTE   N06  En4
 BYTE   N06  An4
 BYTE   W06
 BYTE   Fn4
 BYTE   N06  As4
 BYTE   W18
 BYTE   PEND 
 BYTE   PATT
  POIN2 Label_2_01492EDA
 BYTE   PATT
  POIN2 Label_2_01492EF2
// 009   ----------------------------------------
 BYTE   TIE  Dn4  v048
 BYTE   TIE  Gn4
 BYTE   W96
// 010   ----------------------------------------
 BYTE   W96
// 011   ----------------------------------------
 BYTE   EOT
 BYTE   Dn4  v079
 BYTE   GoTo
  POIN2 Label_2_01492EB0
 BYTE   FINE

//**************** Track 4 (Midi-Chn.3) ****************//

songIDontThinkWeCanTakeEm_004:
// 000   ----------------------------------------
 BYTE   VOL   80*songIDontThinkWeCanTakeEm_mvl/mxv
 BYTE   KEYSH   songIDontThinkWeCanTakeEm_key+0
Label_3_01492CA8:
 BYTE   VOICE   48
 BYTE   N96  Gn2  v032
 BYTE   N96  Cn3
 BYTE   N96  Dn3
 BYTE   N96  Fn3
 BYTE   W96
// 001   ----------------------------------------
 BYTE   Gn2
 BYTE   N96  As2
 BYTE   N96  Ds3
 BYTE   N96  Fn3
 BYTE   W96
// 002   ----------------------------------------
 BYTE   An2
 BYTE   N96  Dn3
 BYTE   N96  Gn3
 BYTE   N96  As3
 BYTE   W96
// 003   ----------------------------------------
Label_3_01492CC4:
 BYTE   N48  Gn2  v032
 BYTE   N48  Cn3
 BYTE   N48  Dn3
 BYTE   N48  An3
 BYTE   W48
 BYTE   Gs2
 BYTE   N48  Cs3
 BYTE   N48  Ds3
 BYTE   N48  As3
 BYTE   W48
 BYTE   PEND 
// 004   ----------------------------------------
Label_3_01492CD7:
 BYTE   N48  Gn2  v032
 BYTE   N48  Cn3
 BYTE   N48  Dn3
 BYTE   N48  An3
 BYTE   W48
 BYTE   N24  Gs2
 BYTE   N24  Cs3
 BYTE   N24  Ds3
 BYTE   N24  As3
 BYTE   W24
 BYTE   An2
 BYTE   N24  Dn3
 BYTE   N24  En3
 BYTE   N24  Bn3
 BYTE   W24
 BYTE   PEND 
 BYTE   PATT
  POIN2 Label_3_01492CC4
 BYTE   PATT
  POIN2 Label_3_01492CD7
 BYTE   PATT
  POIN2 Label_3_01492CC4
 BYTE   PATT
  POIN2 Label_3_01492CD7
 BYTE   PATT
  POIN2 Label_3_01492CC4
 BYTE   PATT
  POIN2 Label_3_01492CD7
// 005   ----------------------------------------
 BYTE   TIE  Gn2  v032
 BYTE   TIE  Cn3
 BYTE   TIE  Dn3
 BYTE   TIE  Fn3
 BYTE   W96
// 006   ----------------------------------------
 BYTE   W96
// 007   ----------------------------------------
 BYTE   EOT
 BYTE   Gn2  v060
 BYTE   Dn3  v065
 BYTE   GoTo
  POIN2 Label_3_01492CA8
 BYTE   FINE

//**************** Track 5 (Midi-Chn.4) ****************//

songIDontThinkWeCanTakeEm_005:
// 000   ----------------------------------------
 BYTE   VOL   80*songIDontThinkWeCanTakeEm_mvl/mxv
 BYTE   KEYSH   songIDontThinkWeCanTakeEm_key+0
Label_4_01492D7C:
 BYTE   VOICE   36
 BYTE   N06  Gn1  v064
 BYTE   W06
 BYTE   N06
 BYTE   W12
 BYTE   N06
 BYTE   W18
 BYTE   N06
 BYTE   W12
 BYTE   N06
 BYTE   W06
 BYTE   N06
 BYTE   W06
 BYTE   N06
 BYTE   W12
 BYTE   N06
 BYTE   W12
 BYTE   N06
 BYTE   W12
// 001   ----------------------------------------
Label_4_01492D92:
 BYTE   N06  Gn1  v064
 BYTE   W06
 BYTE   N06
 BYTE   W12
 BYTE   N06
 BYTE   W18
 BYTE   N06
 BYTE   W12
 BYTE   N06
 BYTE   W06
 BYTE   N06
 BYTE   W06
 BYTE   N06
 BYTE   W12
 BYTE   N06
 BYTE   W12
 BYTE   N06
 BYTE   W12
 BYTE   PEND 
 BYTE   PATT
  POIN2 Label_4_01492D92
// 002   ----------------------------------------
Label_4_01492DAC:
 BYTE   N06  Gn1  v064
 BYTE   W06
 BYTE   N06
 BYTE   W12
 BYTE   N06
 BYTE   W18
 BYTE   N06
 BYTE   W12
 BYTE   Gs1
 BYTE   W06
 BYTE   N06
 BYTE   W06
 BYTE   N06
 BYTE   W12
 BYTE   N06
 BYTE   W12
 BYTE   N06
 BYTE   W12
 BYTE   PEND 
// 003   ----------------------------------------
Label_4_01492DC1:
 BYTE   N06  Gn1  v064
 BYTE   W06
 BYTE   N06
 BYTE   W12
 BYTE   N06
 BYTE   W18
 BYTE   N06
 BYTE   W12
 BYTE   Gs1
 BYTE   W06
 BYTE   N06
 BYTE   W06
 BYTE   N06
 BYTE   W12
 BYTE   An1
 BYTE   W12
 BYTE   N06
 BYTE   W12
 BYTE   PEND 
 BYTE   PATT
  POIN2 Label_4_01492DAC
 BYTE   PATT
  POIN2 Label_4_01492DC1
 BYTE   PATT
  POIN2 Label_4_01492DAC
 BYTE   PATT
  POIN2 Label_4_01492DC1
 BYTE   PATT
  POIN2 Label_4_01492DAC
 BYTE   PATT
  POIN2 Label_4_01492DC1
 BYTE   PATT
  POIN2 Label_4_01492D92
 BYTE   PATT
  POIN2 Label_4_01492D92
// 004   ----------------------------------------
 BYTE   GoTo
  POIN2 Label_4_01492D7C
 BYTE   FINE

//**************** Track 6 (Midi-Chn.5) ****************//

songIDontThinkWeCanTakeEm_006:
// 000   ----------------------------------------
 BYTE   VOL   80*songIDontThinkWeCanTakeEm_mvl/mxv
 BYTE   KEYSH   songIDontThinkWeCanTakeEm_key+0
Label_5_0149284C:
 BYTE   VOICE   124
 BYTE   N12  Cn1  v064
 BYTE   N06  Fs1
 BYTE   W12
 BYTE   Cn1
 BYTE   N06  Fs1
 BYTE   W06
 BYTE   Cn1
 BYTE   W06
 BYTE   Fs1
 BYTE   W12
 BYTE   Cn1
 BYTE   N06  Fs1
 BYTE   W06
 BYTE   Cn1
 BYTE   W06
 BYTE   Fs1
 BYTE   W12
 BYTE   N12  Cn1
 BYTE   N06  Fs1
 BYTE   W12
 BYTE   Cn1
 BYTE   N06  Fs1
 BYTE   W06
 BYTE   Cn1
 BYTE   W06
 BYTE   N12
 BYTE   N06  Fs1
 BYTE   W12
// 001   ----------------------------------------
 BYTE   N12  Cn1
 BYTE   N06  Fs1
 BYTE   W12
 BYTE   Cn1
 BYTE   N06  Fs1
 BYTE   W06
 BYTE   Cn1
 BYTE   W06
 BYTE   Fs1
 BYTE   W12
 BYTE   Cn1
 BYTE   N06  Fs1
 BYTE   W06
 BYTE   Cn1
 BYTE   W06
 BYTE   Fs1
 BYTE   W12
 BYTE   N12  Cn1
 BYTE   N06  Fs1
 BYTE   W12
 BYTE   Cn1
 BYTE   N06  Fs1
 BYTE   W06
 BYTE   Cn1
 BYTE   W06
 BYTE   N12
 BYTE   N06  Fs1
 BYTE   W12
// 002   ----------------------------------------
 BYTE   N12  Cn1
 BYTE   N06  Fs1
 BYTE   W12
 BYTE   Cn1
 BYTE   N06  Fs1
 BYTE   W06
 BYTE   Cn1
 BYTE   W06
 BYTE   Fs1
 BYTE   W12
 BYTE   Cn1
 BYTE   N06  Fs1
 BYTE   W06
 BYTE   Cn1
 BYTE   W06
 BYTE   Gn1
 BYTE   W06
 BYTE   Fn1
 BYTE   W06
 BYTE   En1
 BYTE   W06
 BYTE   Dn1
 BYTE   W12
 BYTE   N06
 BYTE   W12
 BYTE   N06
 BYTE   W06
// 003   ----------------------------------------
Label_5_014928B6:
 BYTE   N12  Cn1  v064
 BYTE   N06  Fs1
 BYTE   N06  Cs2
 BYTE   W12
 BYTE   Cn1
 BYTE   N06  Fs1
 BYTE   W06
 BYTE   Cn1
 BYTE   W06
 BYTE   Fs1
 BYTE   W12
 BYTE   Cn1
 BYTE   N06  Fs1
 BYTE   W06
 BYTE   Cn1
 BYTE   W06
 BYTE   Fs1
 BYTE   W12
 BYTE   N12  Cn1
 BYTE   N06  Fs1
 BYTE   W12
 BYTE   Cn1
 BYTE   N06  Fs1
 BYTE   W06
 BYTE   Cn1
 BYTE   W06
 BYTE   N12
 BYTE   N06  Fs1
 BYTE   W12
 BYTE   PEND 
 BYTE   PATT
  POIN2 Label_5_014928B6
 BYTE   PATT
  POIN2 Label_5_014928B6
 BYTE   PATT
  POIN2 Label_5_014928B6
// 004   ----------------------------------------
Label_5_014928ED:
 BYTE   N12  Cn1  v064
 BYTE   N06  Fs1
 BYTE   W06
 BYTE   N06
 BYTE   W06
 BYTE   N06
 BYTE   W06
 BYTE   N06
 BYTE   W06
 BYTE   N12  Cn1
 BYTE   N06  Fs1
 BYTE   W06
 BYTE   N06
 BYTE   W06
 BYTE   N06
 BYTE   W06
 BYTE   N06
 BYTE   W06
 BYTE   N12  Cn1
 BYTE   N06  Fs1
 BYTE   W06
 BYTE   N06
 BYTE   W06
 BYTE   N06
 BYTE   W06
 BYTE   N06
 BYTE   W06
 BYTE   N12  Cn1
 BYTE   N06  Fs1
 BYTE   W06
 BYTE   N06
 BYTE   W06
 BYTE   N06
 BYTE   W06
 BYTE   N06
 BYTE   W06
 BYTE   PEND 
 BYTE   PATT
  POIN2 Label_5_014928ED
 BYTE   PATT
  POIN2 Label_5_014928ED
// 005   ----------------------------------------
 BYTE   N12  Cn1  v064
 BYTE   N06  Fs1
 BYTE   W06
 BYTE   N06
 BYTE   W06
 BYTE   N06
 BYTE   W06
 BYTE   N06
 BYTE   W06
 BYTE   N12  Cn1
 BYTE   N06  Fs1
 BYTE   W06
 BYTE   N06
 BYTE   W06
 BYTE   N06
 BYTE   W06
 BYTE   N06
 BYTE   W06
 BYTE   Gn1
 BYTE   W06
 BYTE   Fn1
 BYTE   W06
 BYTE   En1
 BYTE   W06
 BYTE   Dn1
 BYTE   W12
 BYTE   N06
 BYTE   W12
 BYTE   N06
 BYTE   W06
// 006   ----------------------------------------
 BYTE   N12  Cn1
 BYTE   W12
 BYTE   N06
 BYTE   W06
 BYTE   N06
 BYTE   W18
 BYTE   N06
 BYTE   W06
 BYTE   N06
 BYTE   W18
 BYTE   N12
 BYTE   W12
 BYTE   N06
 BYTE   W06
 BYTE   N06
 BYTE   W06
 BYTE   N12
 BYTE   W12
// 007   ----------------------------------------
 BYTE   N12
 BYTE   W12
 BYTE   N06
 BYTE   W06
 BYTE   N06
 BYTE   W18
 BYTE   N06
 BYTE   W06
 BYTE   N06
 BYTE   W06
 BYTE   Gn1
 BYTE   W06
 BYTE   Fn1
 BYTE   W06
 BYTE   En1
 BYTE   W06
 BYTE   Dn1
 BYTE   W12
 BYTE   N06
 BYTE   W12
 BYTE   N06
 BYTE   W06
// 008   ----------------------------------------
 BYTE   GoTo
  POIN2 Label_5_0149284C
 BYTE   FINE

//******************************************************//
	ALIGN 4

songIDontThinkWeCanTakeEm:
	BYTE	6	// NumTrks
	BYTE	0	// NumBlks
	BYTE	songIDontThinkWeCanTakeEm_pri	// Priority
	BYTE	songIDontThinkWeCanTakeEm_rev	// Reverb.
    
	POIN2	songIDontThinkWeCanTakeEm_grp
    
	POIN2	songIDontThinkWeCanTakeEm_001
	POIN2	songIDontThinkWeCanTakeEm_002
	POIN2	songIDontThinkWeCanTakeEm_003
	POIN2	songIDontThinkWeCanTakeEm_004
	POIN2	songIDontThinkWeCanTakeEm_005
	POIN2	songIDontThinkWeCanTakeEm_006

	
