//Event file generated from Sappy .s format.
	#include "MPlayDef.event"

	#define	InanimateDream_grp  voicegroup000
	#define	InanimateDream_pri  0
	#define	InanimateDream_rev  0
	#define	InanimateDream_mvl  127
	#define	InanimateDream_key  0
	#define	InanimateDream_tbs  1
	#define	InanimateDream_exg  0
	#define	InanimateDream_cmp  1

	// .rodata
	//	InanimateDream
	ALIGN 4


//**************** Track 1 (Midi-Chn.0) ****************//

InanimateDream_001:
// 000   ----------------------------------------
 BYTE   KEYSH   InanimateDream_key+0
InanimateDream_Label_0_01400F52:
 BYTE   TEMPO   156*InanimateDream_tbs/2
 BYTE   VOICE   41
 BYTE   PAN   c_v+0
 BYTE   VOL   54*InanimateDream_mvl/mxv
 BYTE   N48  Cs1  v100
 BYTE   W48
 BYTE   N36  Ds1
 BYTE   W36
 BYTE   N60  En1
 BYTE   W12
// 001   ----------------------------------------
 BYTE   W48
 BYTE   N48  Fs1
 BYTE   W48
// 002   ----------------------------------------
InanimateDream_Label_0_01400F68:
 BYTE   N48  Cs1  v100
 BYTE   W48
 BYTE   N36  Ds1
 BYTE   W36
 BYTE   N60  En1
 BYTE   W12
 BYTE   PEND 
// 003   ----------------------------------------
 BYTE   W48
 BYTE   N48  Fs1
 BYTE   W48
 BYTE   PATT
  POIN2 InanimateDream_Label_0_01400F68
// 004   ----------------------------------------
 BYTE   W48
 BYTE   N48  Fs1  v100
 BYTE   W48
 BYTE   PATT
  POIN2 InanimateDream_Label_0_01400F68
// 005   ----------------------------------------
 BYTE   W48
 BYTE   N48  Fs1  v100
 BYTE   W48
 BYTE   PATT
  POIN2 InanimateDream_Label_0_01400F68
// 006   ----------------------------------------
 BYTE   W48
 BYTE   N48  Fs1  v100
 BYTE   W48
// 007   ----------------------------------------
 BYTE   Cs1
 BYTE   W48
 BYTE   N36  Ds1
 BYTE   W36
 BYTE   N12  En1
 BYTE   W12
// 008   ----------------------------------------
 BYTE   TEMPO   156*InanimateDream_tbs/2
 BYTE   W48
 BYTE   TEMPO   144*InanimateDream_tbs/2
 BYTE   W48
// 009   ----------------------------------------
InanimateDream_Label_0_01400FA3:
 BYTE   TEMPO   160*InanimateDream_tbs/2
 BYTE   N06  Gs1  v100
 BYTE   W06
 BYTE   N06
 BYTE   W06
 BYTE   Ds2
 BYTE   W06
 BYTE   N06
 BYTE   W06
 BYTE   Gs1
 BYTE   W06
 BYTE   N06
 BYTE   W06
 BYTE   Ds2
 BYTE   W06
 BYTE   Gs1
 BYTE   W06
 BYTE   N06
 BYTE   W06
 BYTE   N06
 BYTE   W06
 BYTE   Ds2
 BYTE   W06
 BYTE   N06
 BYTE   W06
 BYTE   Gs1
 BYTE   W06
 BYTE   N06
 BYTE   W06
 BYTE   Ds2
 BYTE   W06
 BYTE   Gs1
 BYTE   W06
 BYTE   PEND 
// 010   ----------------------------------------
InanimateDream_Label_0_01400FC8:
 BYTE   N06  Fs1  v100
 BYTE   W06
 BYTE   N06
 BYTE   W06
 BYTE   Ds2
 BYTE   W06
 BYTE   N06
 BYTE   W06
 BYTE   Fs1
 BYTE   W06
 BYTE   N06
 BYTE   W06
 BYTE   Ds2
 BYTE   W06
 BYTE   Fs1
 BYTE   W06
 BYTE   N06
 BYTE   W06
 BYTE   N06
 BYTE   W06
 BYTE   Ds2
 BYTE   W06
 BYTE   N06
 BYTE   W06
 BYTE   Fs1
 BYTE   W06
 BYTE   N06
 BYTE   W06
 BYTE   Ds2
 BYTE   W06
 BYTE   Fs1
 BYTE   W06
 BYTE   PEND 
// 011   ----------------------------------------
InanimateDream_Label_0_01400FEB:
 BYTE   N06  Fn1  v100
 BYTE   W06
 BYTE   N06
 BYTE   W06
 BYTE   Cs2
 BYTE   W06
 BYTE   N06
 BYTE   W06
 BYTE   Fn1
 BYTE   W06
 BYTE   N06
 BYTE   W06
 BYTE   Cs2
 BYTE   W06
 BYTE   Fn1
 BYTE   W06
 BYTE   N06
 BYTE   W06
 BYTE   N06
 BYTE   W06
 BYTE   Cs2
 BYTE   W06
 BYTE   N06
 BYTE   W06
 BYTE   Fn1
 BYTE   W06
 BYTE   N06
 BYTE   W06
 BYTE   Cs2
 BYTE   W06
 BYTE   Fn1
 BYTE   W06
 BYTE   PEND 
// 012   ----------------------------------------
InanimateDream_Label_0_0140100E:
 BYTE   N06  En1  v100
 BYTE   W06
 BYTE   N06
 BYTE   W06
 BYTE   Bn1
 BYTE   W06
 BYTE   N06
 BYTE   W06
 BYTE   En1
 BYTE   W06
 BYTE   N06
 BYTE   W06
 BYTE   Bn1
 BYTE   W06
 BYTE   En1
 BYTE   W06
 BYTE   Fs2
 BYTE   W06
 BYTE   N06
 BYTE   W06
 BYTE   N06
 BYTE   W06
 BYTE   Cs3
 BYTE   W06
 BYTE   Fs2
 BYTE   W06
 BYTE   Cs3
 BYTE   W06
 BYTE   Fs2
 BYTE   W06
 BYTE   Cs3
 BYTE   W06
 BYTE   PEND 
// 013   ----------------------------------------
InanimateDream_Label_0_01401031:
 BYTE   N06  Gs1  v100
 BYTE   W06
 BYTE   N06
 BYTE   W06
 BYTE   Ds2
 BYTE   W06
 BYTE   N06
 BYTE   W06
 BYTE   Gs1
 BYTE   W06
 BYTE   N06
 BYTE   W06
 BYTE   Ds2
 BYTE   W06
 BYTE   Gs1
 BYTE   W06
 BYTE   N06
 BYTE   W06
 BYTE   N06
 BYTE   W06
 BYTE   Ds2
 BYTE   W06
 BYTE   N06
 BYTE   W06
 BYTE   Gs1
 BYTE   W06
 BYTE   N06
 BYTE   W06
 BYTE   Ds2
 BYTE   W06
 BYTE   Gs1
 BYTE   W06
 BYTE   PEND 
 BYTE   PATT
  POIN2 InanimateDream_Label_0_01400FC8
 BYTE   PATT
  POIN2 InanimateDream_Label_0_01400FEB
 BYTE   PATT
  POIN2 InanimateDream_Label_0_0140100E
 BYTE   PATT
  POIN2 InanimateDream_Label_0_01400FA3
 BYTE   PATT
  POIN2 InanimateDream_Label_0_01400FC8
 BYTE   PATT
  POIN2 InanimateDream_Label_0_01400FEB
 BYTE   PATT
  POIN2 InanimateDream_Label_0_0140100E
 BYTE   PATT
  POIN2 InanimateDream_Label_0_01401031
 BYTE   PATT
  POIN2 InanimateDream_Label_0_01400FC8
 BYTE   PATT
  POIN2 InanimateDream_Label_0_01400FEB
 BYTE   PATT
  POIN2 InanimateDream_Label_0_0140100E
// 014   ----------------------------------------
InanimateDream_Label_0_0140108B:
 BYTE   N06  Gn1  v100
 BYTE   W06
 BYTE   N06
 BYTE   W06
 BYTE   Dn2
 BYTE   W06
 BYTE   N06
 BYTE   W06
 BYTE   Gn1
 BYTE   W06
 BYTE   N06
 BYTE   W06
 BYTE   Dn2
 BYTE   W06
 BYTE   Gn1
 BYTE   W06
 BYTE   As1
 BYTE   W06
 BYTE   N06
 BYTE   W06
 BYTE   En2
 BYTE   W06
 BYTE   N06
 BYTE   W06
 BYTE   As1
 BYTE   W06
 BYTE   N06
 BYTE   W06
 BYTE   En2
 BYTE   W06
 BYTE   As1
 BYTE   W06
 BYTE   PEND 
// 015   ----------------------------------------
InanimateDream_Label_0_014010AE:
 BYTE   N06  Bn1  v100
 BYTE   W06
 BYTE   N06
 BYTE   W06
 BYTE   Fs2
 BYTE   W06
 BYTE   N06
 BYTE   W06
 BYTE   Bn1
 BYTE   W06
 BYTE   N06
 BYTE   W06
 BYTE   Fs2
 BYTE   W06
 BYTE   Bn1
 BYTE   W06
 BYTE   N06
 BYTE   W06
 BYTE   N06
 BYTE   W06
 BYTE   Fs2
 BYTE   W06
 BYTE   N06
 BYTE   W06
 BYTE   An1
 BYTE   W06
 BYTE   N06
 BYTE   W06
 BYTE   En2
 BYTE   W06
 BYTE   An1
 BYTE   W06
 BYTE   PEND 
 BYTE   PATT
  POIN2 InanimateDream_Label_0_0140108B
 BYTE   PATT
  POIN2 InanimateDream_Label_0_014010AE
 BYTE   PATT
  POIN2 InanimateDream_Label_0_0140108B
 BYTE   PATT
  POIN2 InanimateDream_Label_0_014010AE
 BYTE   PATT
  POIN2 InanimateDream_Label_0_0140108B
 BYTE   PATT
  POIN2 InanimateDream_Label_0_014010AE
 BYTE   PATT
  POIN2 InanimateDream_Label_0_0140108B
 BYTE   PATT
  POIN2 InanimateDream_Label_0_014010AE
 BYTE   PATT
  POIN2 InanimateDream_Label_0_0140108B
 BYTE   PATT
  POIN2 InanimateDream_Label_0_014010AE
 BYTE   PATT
  POIN2 InanimateDream_Label_0_0140108B
 BYTE   PATT
  POIN2 InanimateDream_Label_0_014010AE
 BYTE   PATT
  POIN2 InanimateDream_Label_0_0140108B
 BYTE   PATT
  POIN2 InanimateDream_Label_0_014010AE
// 016   ----------------------------------------
 BYTE   W24
 BYTE   TEMPO   156*InanimateDream_tbs/2
 BYTE   N48  Cn1  v100
 BYTE   W48
 BYTE   N36  Dn1
 BYTE   W24
// 017   ----------------------------------------
InanimateDream_Label_0_01401121:
 BYTE   W12
 BYTE   N60  Ds1  v100
 BYTE   W60
 BYTE   N48  Fn1
 BYTE   W24
 BYTE   PEND 
// 018   ----------------------------------------
InanimateDream_Label_0_0140112A:
 BYTE   W24
 BYTE   N48  Cn1  v100
 BYTE   W48
 BYTE   N36  Dn1
 BYTE   W24
 BYTE   PEND 
 BYTE   PATT
  POIN2 InanimateDream_Label_0_01401121
 BYTE   PATT
  POIN2 InanimateDream_Label_0_0140112A
 BYTE   PATT
  POIN2 InanimateDream_Label_0_01401121
 BYTE   PATT
  POIN2 InanimateDream_Label_0_0140112A
 BYTE   PATT
  POIN2 InanimateDream_Label_0_01401121
 BYTE   PATT
  POIN2 InanimateDream_Label_0_0140112A
 BYTE   PATT
  POIN2 InanimateDream_Label_0_01401121
 BYTE   PATT
  POIN2 InanimateDream_Label_0_0140112A
// 019   ----------------------------------------
 BYTE   W12
 BYTE   N12  Ds1  v100
 BYTE   W12
 BYTE   TEMPO   160*InanimateDream_tbs/2
 BYTE   W48
 BYTE   TEMPO   136*InanimateDream_tbs/2
 BYTE   W24
// 020   ----------------------------------------
 BYTE   W24
 BYTE   TEMPO   156*InanimateDream_tbs/2
 BYTE   N06  Fs1
 BYTE   W06
 BYTE   N06
 BYTE   W06
 BYTE   Cs2
 BYTE   W06
 BYTE   N06
 BYTE   W06
 BYTE   Fs1
 BYTE   W06
 BYTE   N06
 BYTE   W06
 BYTE   Cs2
 BYTE   W06
 BYTE   Fs1
 BYTE   W06
 BYTE   An1
 BYTE   W06
 BYTE   N06
 BYTE   W06
 BYTE   Ds2
 BYTE   W06
 BYTE   N06
 BYTE   W06
// 021   ----------------------------------------
InanimateDream_Label_0_01401182:
 BYTE   N06  An1  v100
 BYTE   W06
 BYTE   N06
 BYTE   W06
 BYTE   Ds2
 BYTE   W06
 BYTE   An1
 BYTE   W06
 BYTE   As1
 BYTE   W06
 BYTE   N06
 BYTE   W06
 BYTE   Fn2
 BYTE   W06
 BYTE   N06
 BYTE   W06
 BYTE   As1
 BYTE   W06
 BYTE   N06
 BYTE   W06
 BYTE   Fn2
 BYTE   W06
 BYTE   As1
 BYTE   W06
 BYTE   N06
 BYTE   W06
 BYTE   N06
 BYTE   W06
 BYTE   Fn2
 BYTE   W06
 BYTE   N06
 BYTE   W06
 BYTE   PEND 
// 022   ----------------------------------------
InanimateDream_Label_0_014011A5:
 BYTE   N06  Gs1  v100
 BYTE   W06
 BYTE   N06
 BYTE   W06
 BYTE   Ds2
 BYTE   W06
 BYTE   Gs1
 BYTE   W06
 BYTE   Fs1
 BYTE   W06
 BYTE   N06
 BYTE   W06
 BYTE   Cs2
 BYTE   W06
 BYTE   N06
 BYTE   W06
 BYTE   Fs1
 BYTE   W06
 BYTE   N06
 BYTE   W06
 BYTE   Cs2
 BYTE   W06
 BYTE   Fs1
 BYTE   W06
 BYTE   An1
 BYTE   W06
 BYTE   N06
 BYTE   W06
 BYTE   Ds2
 BYTE   W06
 BYTE   N06
 BYTE   W06
 BYTE   PEND 
 BYTE   PATT
  POIN2 InanimateDream_Label_0_01401182
 BYTE   PATT
  POIN2 InanimateDream_Label_0_014011A5
 BYTE   PATT
  POIN2 InanimateDream_Label_0_01401182
 BYTE   PATT
  POIN2 InanimateDream_Label_0_014011A5
 BYTE   PATT
  POIN2 InanimateDream_Label_0_01401182
 BYTE   PATT
  POIN2 InanimateDream_Label_0_014011A5
 BYTE   PATT
  POIN2 InanimateDream_Label_0_01401182
 BYTE   PATT
  POIN2 InanimateDream_Label_0_014011A5
 BYTE   PATT
  POIN2 InanimateDream_Label_0_01401182
 BYTE   PATT
  POIN2 InanimateDream_Label_0_014011A5
 BYTE   PATT
  POIN2 InanimateDream_Label_0_01401182
 BYTE   PATT
  POIN2 InanimateDream_Label_0_014011A5
 BYTE   PATT
  POIN2 InanimateDream_Label_0_01401182
// 023   ----------------------------------------
 BYTE   N06  Gs1  v100
 BYTE   W06
 BYTE   N06
 BYTE   W06
 BYTE   Ds2
 BYTE   W06
 BYTE   Gs1
 BYTE   W06
 BYTE   As1
 BYTE   W06
 BYTE   N06
 BYTE   W06
 BYTE   Fn2
 BYTE   W06
 BYTE   N06
 BYTE   W06
 BYTE   As1
 BYTE   W06
 BYTE   N06
 BYTE   W06
 BYTE   Fn2
 BYTE   W06
 BYTE   As1
 BYTE   W06
 BYTE   Cs2
 BYTE   W06
 BYTE   N06
 BYTE   W06
 BYTE   Gn2
 BYTE   W06
 BYTE   N06
 BYTE   W06
// 024   ----------------------------------------
InanimateDream_Label_0_0140122B:
 BYTE   N06  Cs2  v100
 BYTE   W06
 BYTE   N06
 BYTE   W06
 BYTE   Gn2
 BYTE   W06
 BYTE   Cs2
 BYTE   W06
 BYTE   Dn2
 BYTE   W06
 BYTE   N06
 BYTE   W06
 BYTE   An2
 BYTE   W06
 BYTE   N06
 BYTE   W06
 BYTE   Dn2
 BYTE   W06
 BYTE   N06
 BYTE   W06
 BYTE   An2
 BYTE   W06
 BYTE   Dn2
 BYTE   W06
 BYTE   N06
 BYTE   W06
 BYTE   N06
 BYTE   W06
 BYTE   An2
 BYTE   W06
 BYTE   N06
 BYTE   W06
 BYTE   PEND 
// 025   ----------------------------------------
InanimateDream_Label_0_0140124E:
 BYTE   N06  Cn2  v100
 BYTE   W06
 BYTE   N06
 BYTE   W06
 BYTE   Gn2
 BYTE   W06
 BYTE   Cn2
 BYTE   W06
 BYTE   As1
 BYTE   W06
 BYTE   N06
 BYTE   W06
 BYTE   Fn2
 BYTE   W06
 BYTE   N06
 BYTE   W06
 BYTE   As1
 BYTE   W06
 BYTE   N06
 BYTE   W06
 BYTE   Fn2
 BYTE   W06
 BYTE   As1
 BYTE   W06
 BYTE   Cs2
 BYTE   W06
 BYTE   N06
 BYTE   W06
 BYTE   Gn2
 BYTE   W06
 BYTE   N06
 BYTE   W06
 BYTE   PEND 
 BYTE   PATT
  POIN2 InanimateDream_Label_0_0140122B
 BYTE   PATT
  POIN2 InanimateDream_Label_0_0140124E
 BYTE   PATT
  POIN2 InanimateDream_Label_0_0140122B
 BYTE   PATT
  POIN2 InanimateDream_Label_0_0140124E
 BYTE   PATT
  POIN2 InanimateDream_Label_0_0140122B
 BYTE   PATT
  POIN2 InanimateDream_Label_0_0140124E
 BYTE   PATT
  POIN2 InanimateDream_Label_0_0140122B
 BYTE   PATT
  POIN2 InanimateDream_Label_0_0140124E
 BYTE   PATT
  POIN2 InanimateDream_Label_0_0140122B
 BYTE   PATT
  POIN2 InanimateDream_Label_0_0140124E
 BYTE   PATT
  POIN2 InanimateDream_Label_0_0140122B
 BYTE   PATT
  POIN2 InanimateDream_Label_0_0140124E
 BYTE   PATT
  POIN2 InanimateDream_Label_0_0140122B
// 026   ----------------------------------------
 BYTE   N06  Cn2  v100
 BYTE   W06
 BYTE   N06
 BYTE   W06
 BYTE   Gn2
 BYTE   W06
 BYTE   Cn2
 BYTE   W06
 BYTE   TEMPO   156*InanimateDream_tbs/2
 BYTE   N12  Cs1
 BYTE   W12
 BYTE   N12
 BYTE   W12
 BYTE   N12
 BYTE   W12
 BYTE   N12
 BYTE   W12
 BYTE   Ds1
 BYTE   W12
 BYTE   N12
 BYTE   W12
// 027   ----------------------------------------
InanimateDream_Label_0_014012CB:
 BYTE   N12  Ds1  v100
 BYTE   W12
 BYTE   En1
 BYTE   W12
 BYTE   N12
 BYTE   W12
 BYTE   N12
 BYTE   W12
 BYTE   N12
 BYTE   W12
 BYTE   N12
 BYTE   W12
 BYTE   Fs1
 BYTE   W12
 BYTE   N12
 BYTE   W12
 BYTE   PEND 
// 028   ----------------------------------------
InanimateDream_Label_0_014012DE:
 BYTE   N12  Fs1  v100
 BYTE   W12
 BYTE   N12
 BYTE   W12
 BYTE   Cs1
 BYTE   W12
 BYTE   N12
 BYTE   W12
 BYTE   N12
 BYTE   W12
 BYTE   N12
 BYTE   W12
 BYTE   Ds1
 BYTE   W12
 BYTE   N12
 BYTE   W12
 BYTE   PEND 
 BYTE   PATT
  POIN2 InanimateDream_Label_0_014012CB
 BYTE   PATT
  POIN2 InanimateDream_Label_0_014012DE
 BYTE   PATT
  POIN2 InanimateDream_Label_0_014012CB
 BYTE   PATT
  POIN2 InanimateDream_Label_0_014012DE
 BYTE   PATT
  POIN2 InanimateDream_Label_0_014012CB
 BYTE   PATT
  POIN2 InanimateDream_Label_0_014012DE
 BYTE   PATT
  POIN2 InanimateDream_Label_0_014012CB
 BYTE   PATT
  POIN2 InanimateDream_Label_0_014012DE
// 029   ----------------------------------------
 BYTE   N12  Ds1  v100
 BYTE   W12
 BYTE   En1
 BYTE   W54
 BYTE   GoTo
  POIN2 InanimateDream_Label_0_01400F52
// 030   ----------------------------------------
 BYTE   W03
 BYTE   FINE

//**************** Track 2 (Midi-Chn.1) ****************//

InanimateDream_002:
// 000   ----------------------------------------
 BYTE   KEYSH   InanimateDream_key+0
InanimateDream_Label_1_0140132A:
 BYTE   VOICE   77
 BYTE   PAN   c_v+0
 BYTE   VOL   54*InanimateDream_mvl/mxv
 BYTE   W96
// 001   ----------------------------------------
 BYTE   W96
// 002   ----------------------------------------
 BYTE   W96
// 003   ----------------------------------------
 BYTE   W96
// 004   ----------------------------------------
 BYTE   W96
// 005   ----------------------------------------
 BYTE   W96
// 006   ----------------------------------------
 BYTE   W96
// 007   ----------------------------------------
 BYTE   W96
// 008   ----------------------------------------
 BYTE   W96
// 009   ----------------------------------------
 BYTE   W96
// 010   ----------------------------------------
 BYTE   W96
// 011   ----------------------------------------
 BYTE   W48
 BYTE   N24  Gs3  v124
 BYTE   W24
 BYTE   As3
 BYTE   W24
// 012   ----------------------------------------
InanimateDream_Label_1_01401342:
 BYTE   N12  Bn3  v124
 BYTE   W12
 BYTE   As3
 BYTE   W12
 BYTE   Gs3
 BYTE   W12
 BYTE   N24  Fs3
 BYTE   W24
 BYTE   N12  Ds4
 BYTE   W12
 BYTE   N24  As3
 BYTE   W24
 BYTE   PEND 
// 013   ----------------------------------------
InanimateDream_Label_1_01401354:
 BYTE   N72  Bn3  v124
 BYTE   W72
 BYTE   N12  Cs4
 BYTE   W12
 BYTE   Ds4
 BYTE   W12
 BYTE   PEND 
// 014   ----------------------------------------
InanimateDream_Label_1_0140135E:
 BYTE   N36  Cs4  v124
 BYTE   W36
 BYTE   Gs3
 BYTE   W36
 BYTE   N24  Cs4
 BYTE   W24
 BYTE   PEND 
// 015   ----------------------------------------
InanimateDream_Label_1_01401368:
 BYTE   N18  Ds4  v124
 BYTE   W18
 BYTE   Gs4
 BYTE   W18
 BYTE   N12  As4
 BYTE   W24
 BYTE   Ds4
 BYTE   W12
 BYTE   Gs4
 BYTE   W12
 BYTE   As4
 BYTE   W12
 BYTE   PEND 
// 016   ----------------------------------------
InanimateDream_Label_1_01401378:
 BYTE   N12  Bn4  v124
 BYTE   W12
 BYTE   As4
 BYTE   W12
 BYTE   Gs4
 BYTE   W12
 BYTE   N24  Fs4
 BYTE   W24
 BYTE   N12  Gs4
 BYTE   W12
 BYTE   Ds4
 BYTE   W24
 BYTE   PEND 
// 017   ----------------------------------------
InanimateDream_Label_1_01401389:
 BYTE   N12  Bn4  v124
 BYTE   W12
 BYTE   As4
 BYTE   W12
 BYTE   Gs4
 BYTE   W12
 BYTE   N24  Fs4
 BYTE   W24
 BYTE   N12  Gs4
 BYTE   W12
 BYTE   N24  Cs4
 BYTE   W24
 BYTE   PEND 
// 018   ----------------------------------------
InanimateDream_Label_1_0140139B:
 BYTE   N12  Ds4  v124
 BYTE   W12
 BYTE   Cs4
 BYTE   W12
 BYTE   Bn3
 BYTE   W12
 BYTE   N24  Gs3
 BYTE   W24
 BYTE   N12  As3
 BYTE   W12
 BYTE   Bn3
 BYTE   W24
 BYTE   PEND 
// 019   ----------------------------------------
InanimateDream_Label_1_014013AC:
 BYTE   N12  Bn3  v124
 BYTE   W12
 BYTE   As3
 BYTE   W12
 BYTE   Gs3
 BYTE   W12
 BYTE   As3
 BYTE   W12
 BYTE   N12
 BYTE   W12
 BYTE   Bn3
 BYTE   W12
 BYTE   Cs4
 BYTE   W12
 BYTE   Ds4
 BYTE   W12
 BYTE   PEND 
 BYTE   PATT
  POIN2 InanimateDream_Label_1_01401342
 BYTE   PATT
  POIN2 InanimateDream_Label_1_01401354
 BYTE   PATT
  POIN2 InanimateDream_Label_1_0140135E
 BYTE   PATT
  POIN2 InanimateDream_Label_1_01401368
 BYTE   PATT
  POIN2 InanimateDream_Label_1_01401378
 BYTE   PATT
  POIN2 InanimateDream_Label_1_01401389
 BYTE   PATT
  POIN2 InanimateDream_Label_1_0140139B
 BYTE   PATT
  POIN2 InanimateDream_Label_1_014013AC
// 020   ----------------------------------------
 BYTE   W96
// 021   ----------------------------------------
 BYTE   W96
// 022   ----------------------------------------
 BYTE   W96
// 023   ----------------------------------------
 BYTE   W96
// 024   ----------------------------------------
 BYTE   W96
// 025   ----------------------------------------
 BYTE   W96
// 026   ----------------------------------------
 BYTE   W96
// 027   ----------------------------------------
 BYTE   W96
// 028   ----------------------------------------
InanimateDream_Label_1_014013EF:
 BYTE   W12
 BYTE   N12  Gn4  v124
 BYTE   W12
 BYTE   An4
 BYTE   W12
 BYTE   Bn4
 BYTE   W12
 BYTE   N18  As4
 BYTE   W18
 BYTE   Bn4
 BYTE   W18
 BYTE   N12  Cs5
 BYTE   W12
 BYTE   PEND 
// 029   ----------------------------------------
InanimateDream_Label_1_01401401:
 BYTE   N18  Dn5  v124
 BYTE   W18
 BYTE   Cs5
 BYTE   W18
 BYTE   N12  Bn4
 BYTE   W12
 BYTE   N48
 BYTE   W48
 BYTE   PEND 
// 030   ----------------------------------------
 BYTE   W12
 BYTE   N12  Gn4
 BYTE   W12
 BYTE   An4
 BYTE   W12
 BYTE   Bn4
 BYTE   W12
 BYTE   N18  As4
 BYTE   W18
 BYTE   Cs5
 BYTE   W18
 BYTE   N12  Fs5
 BYTE   W12
// 031   ----------------------------------------
 BYTE   N96  Dn5
 BYTE   W96
 BYTE   PATT
  POIN2 InanimateDream_Label_1_014013EF
// 032   ----------------------------------------
 BYTE   N18  Dn5  v124
 BYTE   W18
 BYTE   Cs5
 BYTE   W18
 BYTE   N12  Bn4
 BYTE   W12
 BYTE   N18  Fs4
 BYTE   W18
 BYTE   En4
 BYTE   W18
 BYTE   N12  Dn4
 BYTE   W12
// 033   ----------------------------------------
 BYTE   W12
 BYTE   Gn4
 BYTE   W12
 BYTE   An4
 BYTE   W12
 BYTE   Bn4
 BYTE   W12
 BYTE   N18  Cs5
 BYTE   W18
 BYTE   Fs5
 BYTE   W18
 BYTE   N12  En5
 BYTE   W12
 BYTE   PATT
  POIN2 InanimateDream_Label_1_01401401
// 034   ----------------------------------------
 BYTE   W96
// 035   ----------------------------------------
 BYTE   W96
// 036   ----------------------------------------
 BYTE   W96
// 037   ----------------------------------------
 BYTE   W96
// 038   ----------------------------------------
 BYTE   W96
// 039   ----------------------------------------
 BYTE   W96
// 040   ----------------------------------------
 BYTE   W96
// 041   ----------------------------------------
 BYTE   W96
// 042   ----------------------------------------
 BYTE   W96
// 043   ----------------------------------------
 BYTE   W96
// 044   ----------------------------------------
 BYTE   W96
// 045   ----------------------------------------
 BYTE   W96
// 046   ----------------------------------------
 BYTE   W96
// 047   ----------------------------------------
 BYTE   W96
// 048   ----------------------------------------
 BYTE   W96
// 049   ----------------------------------------
 BYTE   W96
// 050   ----------------------------------------
 BYTE   W96
// 051   ----------------------------------------
 BYTE   W96
// 052   ----------------------------------------
 BYTE   W96
// 053   ----------------------------------------
 BYTE   W96
// 054   ----------------------------------------
InanimateDream_Label_1_0140145E:
 BYTE   W36
 BYTE   N12  Fs4  v124
 BYTE   W12
 BYTE   Gs4
 BYTE   W12
 BYTE   As4
 BYTE   W12
 BYTE   N18  An4
 BYTE   W18
 BYTE   As4
 BYTE   W06
 BYTE   PEND 
// 055   ----------------------------------------
 BYTE   W12
 BYTE   N12  Cn5
 BYTE   W12
 BYTE   N18  Cs5
 BYTE   W18
 BYTE   Cn5
 BYTE   W18
 BYTE   N12  As4
 BYTE   W12
 BYTE   N48
 BYTE   W24
// 056   ----------------------------------------
 BYTE   W36
 BYTE   N12  Fs4
 BYTE   W12
 BYTE   Gs4
 BYTE   W12
 BYTE   As4
 BYTE   W12
 BYTE   N18  An4
 BYTE   W18
 BYTE   Cn5
 BYTE   W06
// 057   ----------------------------------------
 BYTE   W12
 BYTE   N12  Fn5
 BYTE   W12
 BYTE   N96  Cs5
 BYTE   W72
 BYTE   PATT
  POIN2 InanimateDream_Label_1_0140145E
// 058   ----------------------------------------
 BYTE   W12
 BYTE   N12  Cn5  v124
 BYTE   W12
 BYTE   N18  Cs5
 BYTE   W18
 BYTE   Cn5
 BYTE   W18
 BYTE   N12  As4
 BYTE   W12
 BYTE   N18  Fn4
 BYTE   W18
 BYTE   Ds4
 BYTE   W06
// 059   ----------------------------------------
 BYTE   W12
 BYTE   N12  Cs4
 BYTE   W24
 BYTE   Fs4
 BYTE   W12
 BYTE   Gs4
 BYTE   W12
 BYTE   As4
 BYTE   W12
 BYTE   N18  Cn5
 BYTE   W18
 BYTE   Fn5
 BYTE   W06
// 060   ----------------------------------------
 BYTE   W12
 BYTE   N12  Ds5
 BYTE   W12
 BYTE   N18  Cs5
 BYTE   W18
 BYTE   Cn5
 BYTE   W18
 BYTE   N12  As4
 BYTE   W12
 BYTE   N48
 BYTE   W24
// 061   ----------------------------------------
 BYTE   W96
// 062   ----------------------------------------
 BYTE   W96
// 063   ----------------------------------------
 BYTE   W96
// 064   ----------------------------------------
 BYTE   W96
// 065   ----------------------------------------
 BYTE   W96
// 066   ----------------------------------------
 BYTE   W96
// 067   ----------------------------------------
 BYTE   W96
// 068   ----------------------------------------
 BYTE   W96
// 069   ----------------------------------------
InanimateDream_Label_1_014014CB:
 BYTE   W36
 BYTE   N12  As4  v124
 BYTE   W12
 BYTE   Cn5
 BYTE   W12
 BYTE   Dn5
 BYTE   W12
 BYTE   N18  Cs5
 BYTE   W18
 BYTE   Dn5
 BYTE   W06
 BYTE   PEND 
// 070   ----------------------------------------
 BYTE   W12
 BYTE   N12  En5
 BYTE   W12
 BYTE   N18  Fn5
 BYTE   W18
 BYTE   En5
 BYTE   W18
 BYTE   N12  Dn5
 BYTE   W12
 BYTE   N48
 BYTE   W24
// 071   ----------------------------------------
 BYTE   W36
 BYTE   N12  As4
 BYTE   W12
 BYTE   Cn5
 BYTE   W12
 BYTE   Dn5
 BYTE   W12
 BYTE   N18  Cs5
 BYTE   W18
 BYTE   En5
 BYTE   W06
// 072   ----------------------------------------
 BYTE   W12
 BYTE   N12  An5
 BYTE   W12
 BYTE   N96  Fn5
 BYTE   W72
 BYTE   PATT
  POIN2 InanimateDream_Label_1_014014CB
// 073   ----------------------------------------
 BYTE   W12
 BYTE   N12  En5  v124
 BYTE   W12
 BYTE   N18  Fn5
 BYTE   W18
 BYTE   En5
 BYTE   W18
 BYTE   N12  Dn5
 BYTE   W12
 BYTE   N18  An4
 BYTE   W18
 BYTE   Gn4
 BYTE   W06
// 074   ----------------------------------------
 BYTE   W12
 BYTE   N12  Fn4
 BYTE   W24
 BYTE   As4
 BYTE   W12
 BYTE   Cn5
 BYTE   W12
 BYTE   Dn5
 BYTE   W12
 BYTE   N18  En5
 BYTE   W18
 BYTE   An5
 BYTE   W06
// 075   ----------------------------------------
 BYTE   W12
 BYTE   N12  Gn5
 BYTE   W12
 BYTE   N18  Fn5
 BYTE   W18
 BYTE   En5
 BYTE   W18
 BYTE   N12  Dn5
 BYTE   W12
 BYTE   N48
 BYTE   W24
// 076   ----------------------------------------
 BYTE   W96
// 077   ----------------------------------------
 BYTE   W96
// 078   ----------------------------------------
 BYTE   W96
// 079   ----------------------------------------
 BYTE   W96
// 080   ----------------------------------------
 BYTE   W96
// 081   ----------------------------------------
 BYTE   W96
// 082   ----------------------------------------
 BYTE   W96
// 083   ----------------------------------------
 BYTE   W96
// 084   ----------------------------------------
 BYTE   W96
// 085   ----------------------------------------
 BYTE   W96
// 086   ----------------------------------------
 BYTE   W96
// 087   ----------------------------------------
 BYTE   W66
 BYTE   GoTo
  POIN2 InanimateDream_Label_1_0140132A
// 088   ----------------------------------------
 BYTE   W03
 BYTE   FINE

//**************** Track 3 (Midi-Chn.2) ****************//

InanimateDream_003:
// 000   ----------------------------------------
 BYTE   KEYSH   InanimateDream_key+0
InanimateDream_Label_2_01401546:
 BYTE   VOICE   51
 BYTE   PAN   c_v-1
 BYTE   VOL   40*InanimateDream_mvl/mxv
 BYTE   PAN   c_v+0
 BYTE   VOL   40*InanimateDream_mvl/mxv
 BYTE   N48  En2  v084
 BYTE   N48  Gs2
 BYTE   W48
 BYTE   N36  Gn2
 BYTE   N36  As2
 BYTE   W36
 BYTE   N60  Gs2
 BYTE   N60  Bn2
 BYTE   W12
// 001   ----------------------------------------
InanimateDream_Label_2_01401560:
 BYTE   W48
 BYTE   N48  As2  v084
 BYTE   N48  Cs3
 BYTE   W48
 BYTE   PEND 
// 002   ----------------------------------------
InanimateDream_Label_2_01401568:
 BYTE   N48  En2  v084
 BYTE   N48  Gs2
 BYTE   W48
 BYTE   N36  Gn2
 BYTE   N36  As2
 BYTE   W36
 BYTE   N60  Gs2
 BYTE   N60  Bn2
 BYTE   W12
 BYTE   PEND 
 BYTE   PATT
  POIN2 InanimateDream_Label_2_01401560
 BYTE   PATT
  POIN2 InanimateDream_Label_2_01401568
 BYTE   PATT
  POIN2 InanimateDream_Label_2_01401560
 BYTE   PATT
  POIN2 InanimateDream_Label_2_01401568
 BYTE   PATT
  POIN2 InanimateDream_Label_2_01401560
 BYTE   PATT
  POIN2 InanimateDream_Label_2_01401568
 BYTE   PATT
  POIN2 InanimateDream_Label_2_01401560
// 003   ----------------------------------------
 BYTE   N48  En2  v084
 BYTE   N48  Gs2
 BYTE   W48
 BYTE   N36  Gn2
 BYTE   N36  As2
 BYTE   W36
 BYTE   N12  Gs2
 BYTE   N12  Bn2
 BYTE   W12
// 004   ----------------------------------------
 BYTE   W96
// 005   ----------------------------------------
 BYTE   N96  Ds3
 BYTE   N96  Gs3
 BYTE   W96
// 006   ----------------------------------------
 BYTE   Ds3
 BYTE   N96  Fs3
 BYTE   W96
// 007   ----------------------------------------
 BYTE   Cs3
 BYTE   N96  Fn3
 BYTE   W96
// 008   ----------------------------------------
InanimateDream_Label_2_014015BA:
 BYTE   N48  Bn2  v084
 BYTE   N48  En3
 BYTE   W48
 BYTE   Cs3
 BYTE   N48  Fs3
 BYTE   W48
 BYTE   PEND 
// 009   ----------------------------------------
 BYTE   N96  Ds3
 BYTE   N96  Gs3
 BYTE   W96
// 010   ----------------------------------------
 BYTE   Ds3
 BYTE   N96  Fs3
 BYTE   W96
// 011   ----------------------------------------
 BYTE   Cs3
 BYTE   N96  Fn3
 BYTE   W96
 BYTE   PATT
  POIN2 InanimateDream_Label_2_014015BA
// 012   ----------------------------------------
 BYTE   N96  Gs3  v084
 BYTE   N96  Ds4
 BYTE   W96
// 013   ----------------------------------------
 BYTE   Fs3
 BYTE   N96  Ds4
 BYTE   W96
// 014   ----------------------------------------
 BYTE   Fn3
 BYTE   N96  Cs4
 BYTE   W96
// 015   ----------------------------------------
InanimateDream_Label_2_014015E5:
 BYTE   N48  En3  v084
 BYTE   N48  Bn3
 BYTE   W48
 BYTE   Fs3
 BYTE   N48  Cs4
 BYTE   W48
 BYTE   PEND 
// 016   ----------------------------------------
 BYTE   N96  Gs3
 BYTE   N96  Ds4
 BYTE   W96
// 017   ----------------------------------------
 BYTE   Fs3
 BYTE   N96  Ds4
 BYTE   W96
// 018   ----------------------------------------
 BYTE   Fn3
 BYTE   N96  Cs4
 BYTE   W96
 BYTE   PATT
  POIN2 InanimateDream_Label_2_014015E5
// 019   ----------------------------------------
InanimateDream_Label_2_01401602:
 BYTE   N48  Gn3  v084
 BYTE   N48  Bn3
 BYTE   W48
 BYTE   As3
 BYTE   N48  Cs4
 BYTE   W48
 BYTE   PEND 
// 020   ----------------------------------------
 BYTE   N96  Bn3
 BYTE   N96  Dn4
 BYTE   W96
 BYTE   PATT
  POIN2 InanimateDream_Label_2_01401602
// 021   ----------------------------------------
InanimateDream_Label_2_01401617:
 BYTE   N48  Bn3  v084
 BYTE   N48  Dn4
 BYTE   W48
 BYTE   Fs3
 BYTE   N48  Bn3
 BYTE   W48
 BYTE   PEND 
 BYTE   PATT
  POIN2 InanimateDream_Label_2_01401602
// 022   ----------------------------------------
 BYTE   N96  Bn3  v084
 BYTE   N96  Dn4
 BYTE   W96
 BYTE   PATT
  POIN2 InanimateDream_Label_2_01401602
 BYTE   PATT
  POIN2 InanimateDream_Label_2_01401617
 BYTE   PATT
  POIN2 InanimateDream_Label_2_01401602
// 023   ----------------------------------------
 BYTE   N96  Bn3  v084
 BYTE   N96  Dn4
 BYTE   W96
 BYTE   PATT
  POIN2 InanimateDream_Label_2_01401602
 BYTE   PATT
  POIN2 InanimateDream_Label_2_01401617
 BYTE   PATT
  POIN2 InanimateDream_Label_2_01401602
// 024   ----------------------------------------
 BYTE   N96  Bn3  v084
 BYTE   N96  Dn4
 BYTE   W96
 BYTE   PATT
  POIN2 InanimateDream_Label_2_01401602
// 025   ----------------------------------------
 BYTE   N48  Bn3  v084
 BYTE   N48  Dn4
 BYTE   W48
 BYTE   N48
 BYTE   N48  Fs4
 BYTE   W48
// 026   ----------------------------------------
InanimateDream_Label_2_01401666:
 BYTE   W24
 BYTE   N48  Gn1  v084
 BYTE   N48  Ds2  v076
 BYTE   W48
 BYTE   N36  An1  v084
 BYTE   N36  Fs2  v076
 BYTE   W24
 BYTE   PEND 
// 027   ----------------------------------------
InanimateDream_Label_2_01401676:
 BYTE   W12
 BYTE   N60  As1  v084
 BYTE   N60  Gn2  v076
 BYTE   W60
 BYTE   N48  Cn2  v084
 BYTE   N48  An2  v076
 BYTE   W24
 BYTE   PEND 
 BYTE   PATT
  POIN2 InanimateDream_Label_2_01401666
 BYTE   PATT
  POIN2 InanimateDream_Label_2_01401676
 BYTE   PATT
  POIN2 InanimateDream_Label_2_01401666
 BYTE   PATT
  POIN2 InanimateDream_Label_2_01401676
 BYTE   PATT
  POIN2 InanimateDream_Label_2_01401666
 BYTE   PATT
  POIN2 InanimateDream_Label_2_01401676
 BYTE   PATT
  POIN2 InanimateDream_Label_2_01401666
 BYTE   PATT
  POIN2 InanimateDream_Label_2_01401676
 BYTE   PATT
  POIN2 InanimateDream_Label_2_01401666
// 028   ----------------------------------------
 BYTE   W12
 BYTE   N12  As1  v084
 BYTE   N12  Gn2  v076
 BYTE   W84
// 029   ----------------------------------------
 BYTE   N24  Cs3  v084
 BYTE   N24  Fn3
 BYTE   W24
 BYTE   N48  Fs3
 BYTE   N48  As3
 BYTE   W48
 BYTE   An3
 BYTE   N48  Cn4
 BYTE   W24
// 030   ----------------------------------------
InanimateDream_Label_2_014016CA:
 BYTE   W24
 BYTE   N96  As3  v084
 BYTE   N96  Cs4
 BYTE   W72
 BYTE   PEND 
// 031   ----------------------------------------
InanimateDream_Label_2_014016D2:
 BYTE   W24
 BYTE   N48  Fs3  v084
 BYTE   N48  As3
 BYTE   W48
 BYTE   An3
 BYTE   N48  Cn4
 BYTE   W24
 BYTE   PEND 
// 032   ----------------------------------------
InanimateDream_Label_2_014016DE:
 BYTE   W24
 BYTE   N48  As3  v084
 BYTE   N48  Cs4
 BYTE   W48
 BYTE   Fn3
 BYTE   N48  As3
 BYTE   W24
 BYTE   PEND 
 BYTE   PATT
  POIN2 InanimateDream_Label_2_014016D2
 BYTE   PATT
  POIN2 InanimateDream_Label_2_014016CA
 BYTE   PATT
  POIN2 InanimateDream_Label_2_014016D2
 BYTE   PATT
  POIN2 InanimateDream_Label_2_014016DE
 BYTE   PATT
  POIN2 InanimateDream_Label_2_014016D2
 BYTE   PATT
  POIN2 InanimateDream_Label_2_014016CA
 BYTE   PATT
  POIN2 InanimateDream_Label_2_014016D2
 BYTE   PATT
  POIN2 InanimateDream_Label_2_014016DE
 BYTE   PATT
  POIN2 InanimateDream_Label_2_014016D2
 BYTE   PATT
  POIN2 InanimateDream_Label_2_014016CA
 BYTE   PATT
  POIN2 InanimateDream_Label_2_014016D2
// 033   ----------------------------------------
 BYTE   W24
 BYTE   N48  As3  v084
 BYTE   N48  Cs4
 BYTE   W48
 BYTE   N48
 BYTE   N48  Fn4
 BYTE   W24
// 034   ----------------------------------------
InanimateDream_Label_2_0140172C:
 BYTE   W24
 BYTE   N48  As3  v084
 BYTE   N48  Dn4
 BYTE   W48
 BYTE   Cs4
 BYTE   N48  En4
 BYTE   W24
 BYTE   PEND 
// 035   ----------------------------------------
InanimateDream_Label_2_01401738:
 BYTE   W24
 BYTE   N96  Dn4  v084
 BYTE   N96  Fn4
 BYTE   W72
 BYTE   PEND 
 BYTE   PATT
  POIN2 InanimateDream_Label_2_0140172C
// 036   ----------------------------------------
InanimateDream_Label_2_01401745:
 BYTE   W24
 BYTE   N48  Dn4  v084
 BYTE   N48  Fn4
 BYTE   W48
 BYTE   An3
 BYTE   N48  Dn4
 BYTE   W24
 BYTE   PEND 
 BYTE   PATT
  POIN2 InanimateDream_Label_2_0140172C
 BYTE   PATT
  POIN2 InanimateDream_Label_2_01401738
 BYTE   PATT
  POIN2 InanimateDream_Label_2_0140172C
 BYTE   PATT
  POIN2 InanimateDream_Label_2_01401745
 BYTE   PATT
  POIN2 InanimateDream_Label_2_0140172C
 BYTE   PATT
  POIN2 InanimateDream_Label_2_01401738
 BYTE   PATT
  POIN2 InanimateDream_Label_2_0140172C
 BYTE   PATT
  POIN2 InanimateDream_Label_2_01401745
 BYTE   PATT
  POIN2 InanimateDream_Label_2_0140172C
 BYTE   PATT
  POIN2 InanimateDream_Label_2_01401738
 BYTE   PATT
  POIN2 InanimateDream_Label_2_0140172C
// 037   ----------------------------------------
 BYTE   W24
 BYTE   N48  Dn4  v084
 BYTE   N48  Fn4
 BYTE   W48
 BYTE   N48
 BYTE   N48  An4
 BYTE   W24
// 038   ----------------------------------------
InanimateDream_Label_2_01401793:
 BYTE   W24
 BYTE   N48  En2  v076
 BYTE   N48  Gs2  v084
 BYTE   W48
 BYTE   N36  Gn2  v076
 BYTE   N36  As2  v084
 BYTE   W24
 BYTE   PEND 
// 039   ----------------------------------------
InanimateDream_Label_2_014017A3:
 BYTE   W12
 BYTE   N60  Gs2  v076
 BYTE   N60  Bn2  v084
 BYTE   W60
 BYTE   N48  As2  v076
 BYTE   N48  Cs3  v084
 BYTE   W24
 BYTE   PEND 
 BYTE   PATT
  POIN2 InanimateDream_Label_2_01401793
 BYTE   PATT
  POIN2 InanimateDream_Label_2_014017A3
 BYTE   PATT
  POIN2 InanimateDream_Label_2_01401793
 BYTE   PATT
  POIN2 InanimateDream_Label_2_014017A3
 BYTE   PATT
  POIN2 InanimateDream_Label_2_01401793
 BYTE   PATT
  POIN2 InanimateDream_Label_2_014017A3
 BYTE   PATT
  POIN2 InanimateDream_Label_2_01401793
 BYTE   PATT
  POIN2 InanimateDream_Label_2_014017A3
 BYTE   PATT
  POIN2 InanimateDream_Label_2_01401793
// 040   ----------------------------------------
 BYTE   W12
 BYTE   N12  Gn2  v076
 BYTE   N12  As2  v084
 BYTE   W54
 BYTE   GoTo
  POIN2 InanimateDream_Label_2_01401546
// 041   ----------------------------------------
 BYTE   W03
 BYTE   FINE

//**************** Track 4 (Midi-Chn.3) ****************//

InanimateDream_004:
// 000   ----------------------------------------
 BYTE   KEYSH   InanimateDream_key+0
InanimateDream_Label_3_014017F2:
 BYTE   VOICE   1
 BYTE   PAN   c_v+0
 BYTE   VOL   54*InanimateDream_mvl/mxv
 BYTE   PAN   c_v+0
 BYTE   VOL   54*InanimateDream_mvl/mxv
 BYTE   TIE  Cs3  v088
 BYTE   TIE  Gs3
 BYTE   W96
// 001   ----------------------------------------
 BYTE   W96
// 002   ----------------------------------------
 BYTE   EOT
 BYTE   Cs3  v068
InanimateDream_Label_3_01401806:
 BYTE   TIE  Gs3  v088
 BYTE   TIE  Ds4
 BYTE   W96
 BYTE   PEND 
// 003   ----------------------------------------
 BYTE   W96
// 004   ----------------------------------------
 BYTE   EOT
 BYTE   Gs3  v075
 BYTE   TIE  Cs3
 BYTE   TIE  Gs3
 BYTE   W96
// 005   ----------------------------------------
 BYTE   W96
// 006   ----------------------------------------
 BYTE   EOT
 BYTE   Cs3  v068
 BYTE   PATT
  POIN2 InanimateDream_Label_3_01401806
// 007   ----------------------------------------
 BYTE   W96
// 008   ----------------------------------------
 BYTE   EOT
 BYTE   Gs3  v075
 BYTE   N48  En3  v088
 BYTE   N48  Gs3
 BYTE   W48
 BYTE   N36  Gn3
 BYTE   N36  As3
 BYTE   W36
 BYTE   N60  Gs3
 BYTE   N60  Bn3
 BYTE   W12
// 009   ----------------------------------------
 BYTE   W48
 BYTE   N48  As3
 BYTE   N48  Cs4
 BYTE   W48
// 010   ----------------------------------------
 BYTE   En3
 BYTE   N48  Gs3
 BYTE   W48
 BYTE   N36  Gn3
 BYTE   N36  As3
 BYTE   W36
 BYTE   N12  Gs3
 BYTE   N12  Bn3
 BYTE   W12
// 011   ----------------------------------------
 BYTE   W96
// 012   ----------------------------------------
InanimateDream_Label_3_01401848:
 BYTE   N24  Gs3  v076
 BYTE   N24  Ds4
 BYTE   W24
 BYTE   Gs3
 BYTE   N24  Ds4
 BYTE   W24
 BYTE   Gs3
 BYTE   N24  Ds4
 BYTE   W24
 BYTE   Gs3
 BYTE   N24  Ds4
 BYTE   W24
 BYTE   PEND 
// 013   ----------------------------------------
InanimateDream_Label_3_0140185B:
 BYTE   N24  Fs3  v076
 BYTE   N24  Ds4
 BYTE   W24
 BYTE   Fs3
 BYTE   N24  Ds4
 BYTE   W24
 BYTE   Fs3
 BYTE   N24  Ds4
 BYTE   W24
 BYTE   Fs3
 BYTE   N24  Ds4
 BYTE   W24
 BYTE   PEND 
// 014   ----------------------------------------
InanimateDream_Label_3_0140186E:
 BYTE   N24  Fn3  v076
 BYTE   N24  Cs4
 BYTE   W24
 BYTE   Fn3
 BYTE   N24  Cs4
 BYTE   W24
 BYTE   Fn3
 BYTE   N24  Cs4
 BYTE   W24
 BYTE   Fn3
 BYTE   N24  Cs4
 BYTE   W24
 BYTE   PEND 
// 015   ----------------------------------------
InanimateDream_Label_3_01401881:
 BYTE   N24  En3  v076
 BYTE   N24  Bn3
 BYTE   W24
 BYTE   En3
 BYTE   N24  Bn3
 BYTE   W24
 BYTE   Fs3
 BYTE   N24  Cs4
 BYTE   W24
 BYTE   Fs3
 BYTE   N24  Cs4
 BYTE   W24
 BYTE   PEND 
 BYTE   PATT
  POIN2 InanimateDream_Label_3_01401848
 BYTE   PATT
  POIN2 InanimateDream_Label_3_0140185B
 BYTE   PATT
  POIN2 InanimateDream_Label_3_0140186E
 BYTE   PATT
  POIN2 InanimateDream_Label_3_01401881
 BYTE   PATT
  POIN2 InanimateDream_Label_3_01401848
 BYTE   PATT
  POIN2 InanimateDream_Label_3_0140185B
 BYTE   PATT
  POIN2 InanimateDream_Label_3_0140186E
 BYTE   PATT
  POIN2 InanimateDream_Label_3_01401881
 BYTE   PATT
  POIN2 InanimateDream_Label_3_01401848
 BYTE   PATT
  POIN2 InanimateDream_Label_3_0140185B
 BYTE   PATT
  POIN2 InanimateDream_Label_3_0140186E
 BYTE   PATT
  POIN2 InanimateDream_Label_3_01401881
// 016   ----------------------------------------
InanimateDream_Label_3_014018D0:
 BYTE   N48  Gn3  v076
 BYTE   N48  Bn3
 BYTE   W48
 BYTE   As3
 BYTE   N48  Cs4
 BYTE   W48
 BYTE   PEND 
// 017   ----------------------------------------
InanimateDream_Label_3_014018DB:
 BYTE   N36  Bn3  v076
 BYTE   N36  Dn4
 BYTE   W36
 BYTE   N60
 BYTE   N60  Fs4
 BYTE   W60
 BYTE   PEND 
// 018   ----------------------------------------
InanimateDream_Label_3_014018E6:
 BYTE   W12
 BYTE   N36  Gn3  v076
 BYTE   N36  Bn3
 BYTE   W36
 BYTE   N24  As3
 BYTE   N24  Cs4
 BYTE   W24
 BYTE   N24
 BYTE   N24  Fs4
 BYTE   W24
 BYTE   PEND 
// 019   ----------------------------------------
InanimateDream_Label_3_014018F7:
 BYTE   N36  Bn3  v076
 BYTE   N36  Dn4
 BYTE   W36
 BYTE   N60  Fs3
 BYTE   N60  Bn3
 BYTE   W60
 BYTE   PEND 
// 020   ----------------------------------------
InanimateDream_Label_3_01401903:
 BYTE   N48  Bn3  v076
 BYTE   N48  Gn4
 BYTE   W48
 BYTE   Cs4
 BYTE   N48  As4
 BYTE   W48
 BYTE   PEND 
// 021   ----------------------------------------
InanimateDream_Label_3_0140190E:
 BYTE   N36  Dn4  v076
 BYTE   N36  Bn4
 BYTE   W36
 BYTE   N60  Fs4
 BYTE   N60  Dn5
 BYTE   W60
 BYTE   PEND 
// 022   ----------------------------------------
InanimateDream_Label_3_0140191A:
 BYTE   W12
 BYTE   N12  Gn4  v076
 BYTE   N12  Bn4
 BYTE   W12
 BYTE   An4
 BYTE   N12  Cs5
 BYTE   W12
 BYTE   Bn4
 BYTE   N12  Dn5
 BYTE   W12
 BYTE   N18  Cs5
 BYTE   N18  En5
 BYTE   W18
 BYTE   Fs5
 BYTE   N18  As5
 BYTE   W18
 BYTE   N12  En5
 BYTE   N12  As5
 BYTE   W12
 BYTE   PEND 
// 023   ----------------------------------------
InanimateDream_Label_3_01401938:
 BYTE   N18  Fs5  v076
 BYTE   N18  Bn5
 BYTE   W18
 BYTE   Cs5
 BYTE   N18  Fs5
 BYTE   W18
 BYTE   N12  Bn4
 BYTE   N12  En5
 BYTE   W12
 BYTE   N48  Bn4
 BYTE   N48  Dn5
 BYTE   W48
 BYTE   PEND 
 BYTE   PATT
  POIN2 InanimateDream_Label_3_014018D0
 BYTE   PATT
  POIN2 InanimateDream_Label_3_014018DB
 BYTE   PATT
  POIN2 InanimateDream_Label_3_014018E6
 BYTE   PATT
  POIN2 InanimateDream_Label_3_014018F7
 BYTE   PATT
  POIN2 InanimateDream_Label_3_01401903
 BYTE   PATT
  POIN2 InanimateDream_Label_3_0140190E
 BYTE   PATT
  POIN2 InanimateDream_Label_3_0140191A
 BYTE   PATT
  POIN2 InanimateDream_Label_3_01401938
// 024   ----------------------------------------
 BYTE   W24
 BYTE   TIE  Cn3  v088
 BYTE   TIE  Gn3
 BYTE   W72
// 025   ----------------------------------------
 BYTE   W96
// 026   ----------------------------------------
 BYTE   W24
 BYTE   EOT
 BYTE   Cn3  v067
 BYTE   TIE
 BYTE   TIE  Dn4
 BYTE   W72
// 027   ----------------------------------------
 BYTE   W96
// 028   ----------------------------------------
 BYTE   W24
 BYTE   EOT
 BYTE   Gn3  v074
 BYTE   TIE  Cn3
 BYTE   TIE  Gn3
 BYTE   W72
// 029   ----------------------------------------
 BYTE   W96
// 030   ----------------------------------------
 BYTE   W24
 BYTE   EOT
 BYTE   Cn3  v067
 BYTE   TIE
 BYTE   TIE  Dn4
 BYTE   W72
// 031   ----------------------------------------
 BYTE   W96
// 032   ----------------------------------------
 BYTE   W24
 BYTE   EOT
 BYTE   Gn3  v074
 BYTE   N48  Ds3
 BYTE   N48  Gn3
 BYTE   W48
 BYTE   N36  Fs3
 BYTE   N36  An3
 BYTE   W24
// 033   ----------------------------------------
 BYTE   W12
 BYTE   N60  Gn3
 BYTE   N60  As3
 BYTE   W60
 BYTE   N48  An3
 BYTE   N48  Cn4
 BYTE   W24
// 034   ----------------------------------------
 BYTE   W24
 BYTE   Ds3
 BYTE   N48  Gn3
 BYTE   W48
 BYTE   N36  Fs3
 BYTE   N36  An3
 BYTE   W24
// 035   ----------------------------------------
 BYTE   W12
 BYTE   N12  Gn3
 BYTE   N12  As3
 BYTE   W84
// 036   ----------------------------------------
 BYTE   N24  Cs3  v076
 BYTE   N24  Fn3
 BYTE   W24
 BYTE   N48  Fs3
 BYTE   N48  As3
 BYTE   W48
 BYTE   An3
 BYTE   N48  Cn4
 BYTE   W24
// 037   ----------------------------------------
InanimateDream_Label_3_014019D1:
 BYTE   W24
 BYTE   N36  As3  v076
 BYTE   N36  Cs4
 BYTE   W36
 BYTE   N60
 BYTE   N60  Fn4
 BYTE   W36
 BYTE   PEND 
// 038   ----------------------------------------
InanimateDream_Label_3_014019DD:
 BYTE   W36
 BYTE   N36  Fs3  v076
 BYTE   N36  As3
 BYTE   W36
 BYTE   N24  An3
 BYTE   N24  Cn4
 BYTE   W24
 BYTE   PEND 
// 039   ----------------------------------------
InanimateDream_Label_3_014019EA:
 BYTE   N24  Cn4  v076
 BYTE   N24  Fn4
 BYTE   W24
 BYTE   N36  As3
 BYTE   N36  Cs4
 BYTE   W36
 BYTE   N60  Fn3
 BYTE   N60  As3
 BYTE   W36
 BYTE   PEND 
// 040   ----------------------------------------
InanimateDream_Label_3_014019FB:
 BYTE   W24
 BYTE   N48  As3  v076
 BYTE   N48  Fs4
 BYTE   W48
 BYTE   Cn4
 BYTE   N48  An4
 BYTE   W24
 BYTE   PEND 
// 041   ----------------------------------------
InanimateDream_Label_3_01401A07:
 BYTE   W24
 BYTE   N36  Cs4  v076
 BYTE   N36  As4
 BYTE   W36
 BYTE   N60  Fn4
 BYTE   N60  Cs5
 BYTE   W36
 BYTE   PEND 
// 042   ----------------------------------------
InanimateDream_Label_3_01401A14:
 BYTE   W36
 BYTE   N12  Fs4  v076
 BYTE   N12  As4
 BYTE   W12
 BYTE   Gs4
 BYTE   N12  Cn5
 BYTE   W12
 BYTE   As4
 BYTE   N12  Cs5
 BYTE   W12
 BYTE   N18  Cn5
 BYTE   N18  Ds5
 BYTE   W18
 BYTE   Fn5
 BYTE   N18  An5
 BYTE   W06
 BYTE   PEND 
// 043   ----------------------------------------
InanimateDream_Label_3_01401A2D:
 BYTE   W12
 BYTE   N12  Ds5  v076
 BYTE   N12  An5
 BYTE   W12
 BYTE   N18  Fn5
 BYTE   N18  As5
 BYTE   W18
 BYTE   Cn5
 BYTE   N18  Fn5
 BYTE   W18
 BYTE   N12  As4
 BYTE   N12  Ds5
 BYTE   W12
 BYTE   N48  As4
 BYTE   N48  Cs5
 BYTE   W24
 BYTE   PEND 
// 044   ----------------------------------------
 BYTE   W24
 BYTE   Fs3
 BYTE   N48  As3
 BYTE   W48
 BYTE   An3
 BYTE   N48  Cn4
 BYTE   W24
 BYTE   PATT
  POIN2 InanimateDream_Label_3_014019D1
 BYTE   PATT
  POIN2 InanimateDream_Label_3_014019DD
 BYTE   PATT
  POIN2 InanimateDream_Label_3_014019EA
 BYTE   PATT
  POIN2 InanimateDream_Label_3_014019FB
 BYTE   PATT
  POIN2 InanimateDream_Label_3_01401A07
 BYTE   PATT
  POIN2 InanimateDream_Label_3_01401A14
 BYTE   PATT
  POIN2 InanimateDream_Label_3_01401A2D
// 045   ----------------------------------------
InanimateDream_Label_3_01401A74:
 BYTE   W24
 BYTE   N48  As3  v076
 BYTE   N48  Dn4
 BYTE   W48
 BYTE   Cs4
 BYTE   N48  En4
 BYTE   W24
 BYTE   PEND 
// 046   ----------------------------------------
InanimateDream_Label_3_01401A80:
 BYTE   W24
 BYTE   N36  Dn4  v076
 BYTE   N36  Fn4
 BYTE   W36
 BYTE   N60
 BYTE   N60  An4
 BYTE   W36
 BYTE   PEND 
// 047   ----------------------------------------
InanimateDream_Label_3_01401A8C:
 BYTE   W36
 BYTE   N36  As3  v076
 BYTE   N36  Dn4
 BYTE   W36
 BYTE   N24  Cs4
 BYTE   N24  En4
 BYTE   W24
 BYTE   PEND 
// 048   ----------------------------------------
InanimateDream_Label_3_01401A99:
 BYTE   N24  En4  v076
 BYTE   N24  An4
 BYTE   W24
 BYTE   N36  Dn4
 BYTE   N36  Fn4
 BYTE   W36
 BYTE   N60  An3
 BYTE   N60  Dn4
 BYTE   W36
 BYTE   PEND 
// 049   ----------------------------------------
InanimateDream_Label_3_01401AAA:
 BYTE   W24
 BYTE   N48  Dn4  v076
 BYTE   N48  As4
 BYTE   W48
 BYTE   En4
 BYTE   N48  Cs5
 BYTE   W24
 BYTE   PEND 
// 050   ----------------------------------------
InanimateDream_Label_3_01401AB6:
 BYTE   W24
 BYTE   N36  Fn4  v076
 BYTE   N36  Dn5
 BYTE   W36
 BYTE   N60  An4
 BYTE   N60  Fn5
 BYTE   W36
 BYTE   PEND 
// 051   ----------------------------------------
InanimateDream_Label_3_01401AC3:
 BYTE   W36
 BYTE   N12  As4  v076
 BYTE   N12  Dn5
 BYTE   W12
 BYTE   Cn5
 BYTE   N12  En5
 BYTE   W12
 BYTE   Dn5
 BYTE   N12  Fn5
 BYTE   W12
 BYTE   N18  En5
 BYTE   N18  Gn5
 BYTE   W18
 BYTE   An5
 BYTE   N18  Cs6
 BYTE   W06
 BYTE   PEND 
// 052   ----------------------------------------
InanimateDream_Label_3_01401ADC:
 BYTE   W12
 BYTE   N12  Gn5  v076
 BYTE   N12  Cs6
 BYTE   W12
 BYTE   N18  An5
 BYTE   N18  Dn6
 BYTE   W18
 BYTE   En5
 BYTE   N18  An5
 BYTE   W18
 BYTE   N12  Dn5
 BYTE   N12  Gn5
 BYTE   W12
 BYTE   N48  Dn5
 BYTE   N48  Fn5
 BYTE   W24
 BYTE   PEND 
 BYTE   PATT
  POIN2 InanimateDream_Label_3_01401A74
 BYTE   PATT
  POIN2 InanimateDream_Label_3_01401A80
 BYTE   PATT
  POIN2 InanimateDream_Label_3_01401A8C
 BYTE   PATT
  POIN2 InanimateDream_Label_3_01401A99
 BYTE   PATT
  POIN2 InanimateDream_Label_3_01401AAA
 BYTE   PATT
  POIN2 InanimateDream_Label_3_01401AB6
 BYTE   PATT
  POIN2 InanimateDream_Label_3_01401AC3
 BYTE   PATT
  POIN2 InanimateDream_Label_3_01401ADC
// 053   ----------------------------------------
 BYTE   W24
 BYTE   TIE  Cs3  v088
 BYTE   TIE  Gs3
 BYTE   W72
// 054   ----------------------------------------
 BYTE   W96
// 055   ----------------------------------------
 BYTE   W24
 BYTE   EOT
 BYTE   Cs3  v068
 BYTE   TIE
 BYTE   TIE  Ds4
 BYTE   W72
// 056   ----------------------------------------
 BYTE   W96
// 057   ----------------------------------------
 BYTE   W24
 BYTE   EOT
 BYTE   Gs3  v075
 BYTE   TIE  Cs3
 BYTE   TIE  Gs3
 BYTE   W72
// 058   ----------------------------------------
 BYTE   W96
// 059   ----------------------------------------
 BYTE   W24
 BYTE   EOT
 BYTE   Cs3  v068
 BYTE   TIE
 BYTE   TIE  Ds4
 BYTE   W72
// 060   ----------------------------------------
 BYTE   W96
// 061   ----------------------------------------
 BYTE   W24
 BYTE   EOT
 BYTE   Gs3  v075
 BYTE   N48  En3
 BYTE   N48  Gs3
 BYTE   W48
 BYTE   N36  Gn3
 BYTE   N36  As3
 BYTE   W24
// 062   ----------------------------------------
 BYTE   W12
 BYTE   N60  Gs3
 BYTE   N60  Bn3
 BYTE   W60
 BYTE   N48  As3
 BYTE   N48  Cs4
 BYTE   W24
// 063   ----------------------------------------
 BYTE   W24
 BYTE   En3
 BYTE   N48  Gs3
 BYTE   W48
 BYTE   N36  Gn3
 BYTE   N36  As3
 BYTE   W24
// 064   ----------------------------------------
 BYTE   W12
 BYTE   N12  Gn3
 BYTE   N12  As3
 BYTE   W54
 BYTE   GoTo
  POIN2 InanimateDream_Label_3_014017F2
// 065   ----------------------------------------
 BYTE   W03
 BYTE   FINE

//**************** Track 5 (Midi-Chn.4) ****************//

InanimateDream_005:
// 000   ----------------------------------------
 BYTE   KEYSH   InanimateDream_key+0
InanimateDream_Label_4_01401B76:
 BYTE   VOICE   1
 BYTE   PAN   c_v+0
 BYTE   VOL   54*InanimateDream_mvl/mxv
 BYTE   W96
// 001   ----------------------------------------
 BYTE   W96
// 002   ----------------------------------------
 BYTE   W96
// 003   ----------------------------------------
 BYTE   W96
// 004   ----------------------------------------
InanimateDream_Label_4_01401B80:
 BYTE   N06  Gs3  v092
 BYTE   W06
 BYTE   Cs4
 BYTE   W06
 BYTE   Ds4
 BYTE   W06
 BYTE   Gs3
 BYTE   W06
 BYTE   N06
 BYTE   W06
 BYTE   Cs4
 BYTE   W06
 BYTE   Ds4
 BYTE   W06
 BYTE   Gs3
 BYTE   W06
 BYTE   Gn3
 BYTE   W06
 BYTE   Cs4
 BYTE   W06
 BYTE   Ds4
 BYTE   W06
 BYTE   Gn3
 BYTE   W06
 BYTE   N06
 BYTE   W06
 BYTE   Cs4
 BYTE   W06
 BYTE   N12  Ds4
 BYTE   W12
 BYTE   PEND 
// 005   ----------------------------------------
InanimateDream_Label_4_01401BA2:
 BYTE   W06
 BYTE   N06  Gs3  v092
 BYTE   W06
 BYTE   As3
 BYTE   W06
 BYTE   Bn3
 BYTE   W06
 BYTE   Ds4
 BYTE   W06
 BYTE   Gs3
 BYTE   W06
 BYTE   As3
 BYTE   W06
 BYTE   Bn3
 BYTE   W06
 BYTE   Ds4
 BYTE   W06
 BYTE   Gs3
 BYTE   W06
 BYTE   As3
 BYTE   W06
 BYTE   Bn3
 BYTE   W06
 BYTE   Ds4
 BYTE   W06
 BYTE   Gs3
 BYTE   W06
 BYTE   As3
 BYTE   W06
 BYTE   Bn3
 BYTE   W06
 BYTE   PEND 
// 006   ----------------------------------------
InanimateDream_Label_4_01401BC4:
 BYTE   N06  Gs2  v092
 BYTE   W06
 BYTE   Cs3
 BYTE   W06
 BYTE   Ds3
 BYTE   W06
 BYTE   Gs2
 BYTE   W06
 BYTE   N06
 BYTE   W06
 BYTE   Cs3
 BYTE   W06
 BYTE   Ds3
 BYTE   W06
 BYTE   Gs2
 BYTE   W06
 BYTE   Gn2
 BYTE   W06
 BYTE   Cs3
 BYTE   W06
 BYTE   Ds3
 BYTE   W06
 BYTE   Gn2
 BYTE   W06
 BYTE   N06
 BYTE   W06
 BYTE   Cs3
 BYTE   W06
 BYTE   N12  Ds3
 BYTE   W12
 BYTE   PEND 
// 007   ----------------------------------------
 BYTE   W06
 BYTE   N06  Gs2
 BYTE   W06
 BYTE   As2
 BYTE   W06
 BYTE   Bn2
 BYTE   W06
 BYTE   Ds3
 BYTE   W06
 BYTE   Gs2
 BYTE   W06
 BYTE   As2
 BYTE   W06
 BYTE   Bn2
 BYTE   W06
 BYTE   Ds3
 BYTE   W06
 BYTE   Gs2
 BYTE   W06
 BYTE   As2
 BYTE   W06
 BYTE   Bn2
 BYTE   W06
 BYTE   Ds3
 BYTE   W06
 BYTE   Gs2
 BYTE   W06
 BYTE   As2
 BYTE   W06
 BYTE   Bn2
 BYTE   W06
 BYTE   PATT
  POIN2 InanimateDream_Label_4_01401B80
 BYTE   PATT
  POIN2 InanimateDream_Label_4_01401BA2
 BYTE   PATT
  POIN2 InanimateDream_Label_4_01401BC4
// 008   ----------------------------------------
 BYTE   W96
// 009   ----------------------------------------
 BYTE   W96
// 010   ----------------------------------------
 BYTE   W96
// 011   ----------------------------------------
 BYTE   W96
// 012   ----------------------------------------
 BYTE   W96
// 013   ----------------------------------------
 BYTE   W96
// 014   ----------------------------------------
 BYTE   W96
// 015   ----------------------------------------
 BYTE   W96
// 016   ----------------------------------------
 BYTE   W96
// 017   ----------------------------------------
InanimateDream_Label_4_01401C1E:
 BYTE   N06  Bn3  v092
 BYTE   W06
 BYTE   Cs4
 BYTE   W06
 BYTE   Ds4
 BYTE   W06
 BYTE   Gs4
 BYTE   W06
 BYTE   Bn3
 BYTE   W06
 BYTE   Cs4
 BYTE   W06
 BYTE   Ds4
 BYTE   W06
 BYTE   Gs4
 BYTE   W06
 BYTE   Bn3
 BYTE   W06
 BYTE   Cs4
 BYTE   W06
 BYTE   Ds4
 BYTE   W06
 BYTE   Gs4
 BYTE   W06
 BYTE   Bn3
 BYTE   W06
 BYTE   Cs4
 BYTE   W06
 BYTE   Ds4
 BYTE   W06
 BYTE   Gs4
 BYTE   W06
 BYTE   PEND 
 BYTE   PATT
  POIN2 InanimateDream_Label_4_01401C1E
// 018   ----------------------------------------
InanimateDream_Label_4_01401C46:
 BYTE   N06  Bn3  v092
 BYTE   W06
 BYTE   Cs4
 BYTE   W06
 BYTE   Ds4
 BYTE   W06
 BYTE   As4
 BYTE   W06
 BYTE   Bn3
 BYTE   W06
 BYTE   Cs4
 BYTE   W06
 BYTE   Ds4
 BYTE   W06
 BYTE   As4
 BYTE   W06
 BYTE   Bn3
 BYTE   W06
 BYTE   Cs4
 BYTE   W06
 BYTE   Ds4
 BYTE   W06
 BYTE   As4
 BYTE   W06
 BYTE   Bn3
 BYTE   W06
 BYTE   Cs4
 BYTE   W06
 BYTE   Ds4
 BYTE   W06
 BYTE   As4
 BYTE   W06
 BYTE   PEND 
 BYTE   PATT
  POIN2 InanimateDream_Label_4_01401C1E
 BYTE   PATT
  POIN2 InanimateDream_Label_4_01401C1E
 BYTE   PATT
  POIN2 InanimateDream_Label_4_01401C1E
 BYTE   PATT
  POIN2 InanimateDream_Label_4_01401C46
 BYTE   PATT
  POIN2 InanimateDream_Label_4_01401C1E
// 019   ----------------------------------------
 BYTE   W96
// 020   ----------------------------------------
InanimateDream_Label_4_01401C83:
 BYTE   W36
 BYTE   N06  Bn3  v092
 BYTE   W06
 BYTE   Cs4
 BYTE   W06
 BYTE   Fs4
 BYTE   W06
 BYTE   Bn3
 BYTE   W06
 BYTE   En4
 BYTE   W06
 BYTE   Bn3
 BYTE   W06
 BYTE   Dn4
 BYTE   W06
 BYTE   Cs4
 BYTE   W06
 BYTE   Bn3
 BYTE   W06
 BYTE   N06
 BYTE   W06
 BYTE   PEND 
// 021   ----------------------------------------
 BYTE   W96
// 022   ----------------------------------------
InanimateDream_Label_4_01401C9C:
 BYTE   W36
 BYTE   N06  Bn3  v092
 BYTE   W06
 BYTE   Cs4
 BYTE   W06
 BYTE   Fs4
 BYTE   W06
 BYTE   Bn3
 BYTE   W06
 BYTE   En4
 BYTE   W06
 BYTE   Bn3
 BYTE   W06
 BYTE   Dn4
 BYTE   W06
 BYTE   En4
 BYTE   W06
 BYTE   Fs4
 BYTE   W06
 BYTE   Bn3
 BYTE   W06
 BYTE   PEND 
// 023   ----------------------------------------
 BYTE   W96
// 024   ----------------------------------------
InanimateDream_Label_4_01401CB5:
 BYTE   W36
 BYTE   N06  Bn4  v092
 BYTE   W06
 BYTE   Cs5
 BYTE   W06
 BYTE   Fs5
 BYTE   W06
 BYTE   Bn4
 BYTE   W06
 BYTE   En5
 BYTE   W06
 BYTE   Bn4
 BYTE   W06
 BYTE   Dn5
 BYTE   W06
 BYTE   Cs5
 BYTE   W06
 BYTE   Bn4
 BYTE   W06
 BYTE   N06
 BYTE   W06
 BYTE   PEND 
// 025   ----------------------------------------
 BYTE   W96
// 026   ----------------------------------------
 BYTE   W48
 BYTE   Dn4
 BYTE   W06
 BYTE   Cs4
 BYTE   W06
 BYTE   Bn3
 BYTE   W06
 BYTE   Dn4
 BYTE   W06
 BYTE   Cs4
 BYTE   W06
 BYTE   Fs3
 BYTE   W06
 BYTE   En3
 BYTE   W06
 BYTE   Dn3
 BYTE   W06
// 027   ----------------------------------------
 BYTE   W96
 BYTE   PATT
  POIN2 InanimateDream_Label_4_01401C83
// 028   ----------------------------------------
 BYTE   W96
 BYTE   PATT
  POIN2 InanimateDream_Label_4_01401C9C
// 029   ----------------------------------------
 BYTE   W96
 BYTE   PATT
  POIN2 InanimateDream_Label_4_01401CB5
// 030   ----------------------------------------
 BYTE   W12
 BYTE   N12  Bn3  v092
 BYTE   W12
 BYTE   Cs4
 BYTE   W12
 BYTE   Dn4
 BYTE   W12
 BYTE   N18  En4
 BYTE   W18
 BYTE   As4
 BYTE   W18
 BYTE   N12
 BYTE   W12
// 031   ----------------------------------------
 BYTE   N18  Bn4
 BYTE   W18
 BYTE   Fs4
 BYTE   W18
 BYTE   N12  En4
 BYTE   W12
 BYTE   N06  Dn4
 BYTE   W06
 BYTE   Cs4
 BYTE   W06
 BYTE   Bn3
 BYTE   W06
 BYTE   Dn4
 BYTE   W06
 BYTE   Cs4
 BYTE   W06
 BYTE   Fs3
 BYTE   W06
 BYTE   En3
 BYTE   W06
 BYTE   Dn3
 BYTE   W06
// 032   ----------------------------------------
 BYTE   W96
// 033   ----------------------------------------
 BYTE   W96
// 034   ----------------------------------------
 BYTE   W96
// 035   ----------------------------------------
 BYTE   W96
// 036   ----------------------------------------
 BYTE   W24
 BYTE   Gn3
 BYTE   W06
 BYTE   Cn4
 BYTE   W06
 BYTE   Dn4
 BYTE   W06
 BYTE   Gn3
 BYTE   W06
 BYTE   N06
 BYTE   W06
 BYTE   Cn4
 BYTE   W06
 BYTE   Dn4
 BYTE   W06
 BYTE   Gn3
 BYTE   W06
 BYTE   Fs3
 BYTE   W06
 BYTE   Cn4
 BYTE   W06
 BYTE   Dn4
 BYTE   W06
 BYTE   Fs3
 BYTE   W06
// 037   ----------------------------------------
InanimateDream_Label_4_01401D37:
 BYTE   N06  Fs3  v092
 BYTE   W06
 BYTE   Cn4
 BYTE   W06
 BYTE   N12  Dn4
 BYTE   W18
 BYTE   N06  Gn3
 BYTE   W06
 BYTE   An3
 BYTE   W06
 BYTE   As3
 BYTE   W06
 BYTE   Dn4
 BYTE   W06
 BYTE   Gn3
 BYTE   W06
 BYTE   An3
 BYTE   W06
 BYTE   As3
 BYTE   W06
 BYTE   Dn4
 BYTE   W06
 BYTE   Gn3
 BYTE   W06
 BYTE   An3
 BYTE   W06
 BYTE   As3
 BYTE   W06
 BYTE   PEND 
// 038   ----------------------------------------
InanimateDream_Label_4_01401D58:
 BYTE   N06  Dn4  v092
 BYTE   W06
 BYTE   Gn3
 BYTE   W06
 BYTE   An3
 BYTE   W06
 BYTE   As3
 BYTE   W06
 BYTE   Gn2
 BYTE   W06
 BYTE   Cn3
 BYTE   W06
 BYTE   Dn3
 BYTE   W06
 BYTE   Gn2
 BYTE   W06
 BYTE   N06
 BYTE   W06
 BYTE   Cn3
 BYTE   W06
 BYTE   Dn3
 BYTE   W06
 BYTE   Gn2
 BYTE   W06
 BYTE   Fs2
 BYTE   W06
 BYTE   Cn3
 BYTE   W06
 BYTE   Dn3
 BYTE   W06
 BYTE   Fs2
 BYTE   W06
 BYTE   PEND 
// 039   ----------------------------------------
 BYTE   N06
 BYTE   W06
 BYTE   Cn3
 BYTE   W06
 BYTE   N12  Dn3
 BYTE   W18
 BYTE   N06  Gn2
 BYTE   W06
 BYTE   An2
 BYTE   W06
 BYTE   As2
 BYTE   W06
 BYTE   Dn3
 BYTE   W06
 BYTE   Gn2
 BYTE   W06
 BYTE   An2
 BYTE   W06
 BYTE   As2
 BYTE   W06
 BYTE   Dn3
 BYTE   W06
 BYTE   Gn2
 BYTE   W06
 BYTE   An2
 BYTE   W06
 BYTE   As2
 BYTE   W06
// 040   ----------------------------------------
 BYTE   Dn3
 BYTE   W06
 BYTE   Gn2
 BYTE   W06
 BYTE   An2
 BYTE   W06
 BYTE   As2
 BYTE   W06
 BYTE   Gn3
 BYTE   W06
 BYTE   Cn4
 BYTE   W06
 BYTE   Dn4
 BYTE   W06
 BYTE   Gn3
 BYTE   W06
 BYTE   N06
 BYTE   W06
 BYTE   Cn4
 BYTE   W06
 BYTE   Dn4
 BYTE   W06
 BYTE   Gn3
 BYTE   W06
 BYTE   Fs3
 BYTE   W06
 BYTE   Cn4
 BYTE   W06
 BYTE   Dn4
 BYTE   W06
 BYTE   Fs3
 BYTE   W06
 BYTE   PATT
  POIN2 InanimateDream_Label_4_01401D37
 BYTE   PATT
  POIN2 InanimateDream_Label_4_01401D58
// 041   ----------------------------------------
 BYTE   N06  Fs2  v092
 BYTE   W06
 BYTE   Cn3
 BYTE   W06
 BYTE   N12  Dn3
 BYTE   W84
// 042   ----------------------------------------
 BYTE   W96
// 043   ----------------------------------------
InanimateDream_Label_4_01401DCD:
 BYTE   W60
 BYTE   N06  As3  v092
 BYTE   W06
 BYTE   Cn4
 BYTE   W06
 BYTE   Fn4
 BYTE   W06
 BYTE   As3
 BYTE   W06
 BYTE   Ds4
 BYTE   W06
 BYTE   As3
 BYTE   W06
 BYTE   PEND 
// 044   ----------------------------------------
InanimateDream_Label_4_01401DDD:
 BYTE   N06  Cs4  v092
 BYTE   W06
 BYTE   Cn4
 BYTE   W06
 BYTE   As3
 BYTE   W06
 BYTE   N06
 BYTE   W78
 BYTE   PEND 
 BYTE   PATT
  POIN2 InanimateDream_Label_4_01401DCD
// 045   ----------------------------------------
InanimateDream_Label_4_01401DED:
 BYTE   N06  Cs4  v092
 BYTE   W06
 BYTE   Ds4
 BYTE   W06
 BYTE   Fn4
 BYTE   W06
 BYTE   As3
 BYTE   W78
 BYTE   PEND 
// 046   ----------------------------------------
InanimateDream_Label_4_01401DF8:
 BYTE   W60
 BYTE   N06  As4  v092
 BYTE   W06
 BYTE   Cn5
 BYTE   W06
 BYTE   Fn5
 BYTE   W06
 BYTE   As4
 BYTE   W06
 BYTE   Ds5
 BYTE   W06
 BYTE   As4
 BYTE   W06
 BYTE   PEND 
// 047   ----------------------------------------
 BYTE   Cs5
 BYTE   W06
 BYTE   Cn5
 BYTE   W06
 BYTE   As4
 BYTE   W06
 BYTE   N06
 BYTE   W78
// 048   ----------------------------------------
 BYTE   W72
 BYTE   Cs4
 BYTE   W06
 BYTE   Cn4
 BYTE   W06
 BYTE   As3
 BYTE   W06
 BYTE   Cs4
 BYTE   W06
// 049   ----------------------------------------
InanimateDream_Label_4_01401E19:
 BYTE   N06  Cn4  v092
 BYTE   W06
 BYTE   Fn3
 BYTE   W06
 BYTE   Ds3
 BYTE   W06
 BYTE   Cs3
 BYTE   W78
 BYTE   PEND 
 BYTE   PATT
  POIN2 InanimateDream_Label_4_01401DCD
 BYTE   PATT
  POIN2 InanimateDream_Label_4_01401DDD
 BYTE   PATT
  POIN2 InanimateDream_Label_4_01401DCD
 BYTE   PATT
  POIN2 InanimateDream_Label_4_01401DED
 BYTE   PATT
  POIN2 InanimateDream_Label_4_01401DF8
// 050   ----------------------------------------
 BYTE   N06  Cs5  v092
 BYTE   W06
 BYTE   Cn5
 BYTE   W06
 BYTE   As4
 BYTE   W06
 BYTE   N06
 BYTE   W18
 BYTE   N12  As3
 BYTE   W12
 BYTE   Cn4
 BYTE   W12
 BYTE   Cs4
 BYTE   W12
 BYTE   N18  Ds4
 BYTE   W18
 BYTE   An4
 BYTE   W06
// 051   ----------------------------------------
 BYTE   W12
 BYTE   N12
 BYTE   W12
 BYTE   N18  As4
 BYTE   W18
 BYTE   Fn4
 BYTE   W18
 BYTE   N12  Ds4
 BYTE   W12
 BYTE   N06  Cs4
 BYTE   W06
 BYTE   Cn4
 BYTE   W06
 BYTE   As3
 BYTE   W06
 BYTE   Cs4
 BYTE   W06
 BYTE   PATT
  POIN2 InanimateDream_Label_4_01401E19
// 052   ----------------------------------------
InanimateDream_Label_4_01401E6C:
 BYTE   W60
 BYTE   N06  Dn4  v092
 BYTE   W06
 BYTE   En4
 BYTE   W06
 BYTE   An4
 BYTE   W06
 BYTE   Dn4
 BYTE   W06
 BYTE   Gn4
 BYTE   W06
 BYTE   Dn4
 BYTE   W06
 BYTE   PEND 
// 053   ----------------------------------------
InanimateDream_Label_4_01401E7C:
 BYTE   N06  Fn4  v092
 BYTE   W06
 BYTE   En4
 BYTE   W06
 BYTE   Dn4
 BYTE   W06
 BYTE   N06
 BYTE   W78
 BYTE   PEND 
 BYTE   PATT
  POIN2 InanimateDream_Label_4_01401E6C
// 054   ----------------------------------------
InanimateDream_Label_4_01401E8C:
 BYTE   N06  Fn4  v092
 BYTE   W06
 BYTE   Gn4
 BYTE   W06
 BYTE   An4
 BYTE   W06
 BYTE   Dn4
 BYTE   W78
 BYTE   PEND 
// 055   ----------------------------------------
InanimateDream_Label_4_01401E97:
 BYTE   W60
 BYTE   N06  Dn5  v092
 BYTE   W06
 BYTE   En5
 BYTE   W06
 BYTE   An5
 BYTE   W06
 BYTE   Dn5
 BYTE   W06
 BYTE   Gn5
 BYTE   W06
 BYTE   Dn5
 BYTE   W06
 BYTE   PEND 
// 056   ----------------------------------------
 BYTE   Fn5
 BYTE   W06
 BYTE   En5
 BYTE   W06
 BYTE   Dn5
 BYTE   W06
 BYTE   N06
 BYTE   W78
// 057   ----------------------------------------
 BYTE   W72
 BYTE   Fn4
 BYTE   W06
 BYTE   En4
 BYTE   W06
 BYTE   Dn4
 BYTE   W06
 BYTE   Fn4
 BYTE   W06
// 058   ----------------------------------------
InanimateDream_Label_4_01401EB8:
 BYTE   N06  En4  v092
 BYTE   W06
 BYTE   An3
 BYTE   W06
 BYTE   Gn3
 BYTE   W06
 BYTE   Fn3
 BYTE   W78
 BYTE   PEND 
 BYTE   PATT
  POIN2 InanimateDream_Label_4_01401E6C
 BYTE   PATT
  POIN2 InanimateDream_Label_4_01401E7C
 BYTE   PATT
  POIN2 InanimateDream_Label_4_01401E6C
 BYTE   PATT
  POIN2 InanimateDream_Label_4_01401E8C
 BYTE   PATT
  POIN2 InanimateDream_Label_4_01401E97
// 059   ----------------------------------------
 BYTE   N06  Fn5  v092
 BYTE   W06
 BYTE   En5
 BYTE   W06
 BYTE   Dn5
 BYTE   W06
 BYTE   N06
 BYTE   W18
 BYTE   N12  Dn4
 BYTE   W12
 BYTE   En4
 BYTE   W12
 BYTE   Fn4
 BYTE   W12
 BYTE   N18  Gn4
 BYTE   W18
 BYTE   Cs5
 BYTE   W06
// 060   ----------------------------------------
 BYTE   W12
 BYTE   N12
 BYTE   W12
 BYTE   N18  Dn5
 BYTE   W18
 BYTE   An4
 BYTE   W18
 BYTE   N12  Gn4
 BYTE   W12
 BYTE   N06  Fn4
 BYTE   W06
 BYTE   En4
 BYTE   W06
 BYTE   Dn4
 BYTE   W06
 BYTE   Fn4
 BYTE   W06
 BYTE   PATT
  POIN2 InanimateDream_Label_4_01401EB8
// 061   ----------------------------------------
 BYTE   W96
// 062   ----------------------------------------
 BYTE   W96
// 063   ----------------------------------------
 BYTE   W96
// 064   ----------------------------------------
 BYTE   W24
 BYTE   N06  Gs3  v092
 BYTE   W06
 BYTE   Cs4
 BYTE   W06
 BYTE   Ds4
 BYTE   W06
 BYTE   Gs3
 BYTE   W06
 BYTE   N06
 BYTE   W06
 BYTE   Cs4
 BYTE   W06
 BYTE   Ds4
 BYTE   W06
 BYTE   Gs3
 BYTE   W06
 BYTE   Gn3
 BYTE   W06
 BYTE   Cs4
 BYTE   W06
 BYTE   Ds4
 BYTE   W06
 BYTE   Gn3
 BYTE   W06
// 065   ----------------------------------------
InanimateDream_Label_4_01401F29:
 BYTE   N06  Gn3  v092
 BYTE   W06
 BYTE   Cs4
 BYTE   W06
 BYTE   N12  Ds4
 BYTE   W18
 BYTE   N06  Gs3
 BYTE   W06
 BYTE   As3
 BYTE   W06
 BYTE   Bn3
 BYTE   W06
 BYTE   Ds4
 BYTE   W06
 BYTE   Gs3
 BYTE   W06
 BYTE   As3
 BYTE   W06
 BYTE   Bn3
 BYTE   W06
 BYTE   Ds4
 BYTE   W06
 BYTE   Gs3
 BYTE   W06
 BYTE   As3
 BYTE   W06
 BYTE   Bn3
 BYTE   W06
 BYTE   PEND 
// 066   ----------------------------------------
InanimateDream_Label_4_01401F4A:
 BYTE   N06  Ds4  v092
 BYTE   W06
 BYTE   Gs3
 BYTE   W06
 BYTE   As3
 BYTE   W06
 BYTE   Bn3
 BYTE   W06
 BYTE   Gs2
 BYTE   W06
 BYTE   Cs3
 BYTE   W06
 BYTE   Ds3
 BYTE   W06
 BYTE   Gs2
 BYTE   W06
 BYTE   N06
 BYTE   W06
 BYTE   Cs3
 BYTE   W06
 BYTE   Ds3
 BYTE   W06
 BYTE   Gs2
 BYTE   W06
 BYTE   Gn2
 BYTE   W06
 BYTE   Cs3
 BYTE   W06
 BYTE   Ds3
 BYTE   W06
 BYTE   Gn2
 BYTE   W06
 BYTE   PEND 
// 067   ----------------------------------------
 BYTE   N06
 BYTE   W06
 BYTE   Cs3
 BYTE   W06
 BYTE   N12  Ds3
 BYTE   W18
 BYTE   N06  Gs2
 BYTE   W06
 BYTE   As2
 BYTE   W06
 BYTE   Bn2
 BYTE   W06
 BYTE   Ds3
 BYTE   W06
 BYTE   Gs2
 BYTE   W06
 BYTE   As2
 BYTE   W06
 BYTE   Bn2
 BYTE   W06
 BYTE   Ds3
 BYTE   W06
 BYTE   Gs2
 BYTE   W06
 BYTE   As2
 BYTE   W06
 BYTE   Bn2
 BYTE   W06
// 068   ----------------------------------------
 BYTE   Ds3
 BYTE   W06
 BYTE   Gs2
 BYTE   W06
 BYTE   As2
 BYTE   W06
 BYTE   Bn2
 BYTE   W06
 BYTE   Gs3
 BYTE   W06
 BYTE   Cs4
 BYTE   W06
 BYTE   Ds4
 BYTE   W06
 BYTE   Gs3
 BYTE   W06
 BYTE   N06
 BYTE   W06
 BYTE   Cs4
 BYTE   W06
 BYTE   Ds4
 BYTE   W06
 BYTE   Gs3
 BYTE   W06
 BYTE   Gn3
 BYTE   W06
 BYTE   Cs4
 BYTE   W06
 BYTE   Ds4
 BYTE   W06
 BYTE   Gn3
 BYTE   W06
 BYTE   PATT
  POIN2 InanimateDream_Label_4_01401F29
 BYTE   PATT
  POIN2 InanimateDream_Label_4_01401F4A
// 069   ----------------------------------------
 BYTE   N06  Gn2  v092
 BYTE   W06
 BYTE   Cs3
 BYTE   W06
 BYTE   N12
 BYTE   W54
 BYTE   GoTo
  POIN2 InanimateDream_Label_4_01401B76
// 070   ----------------------------------------
 BYTE   W03
 BYTE   FINE

//**************** Track 6 (Midi-Chn.5) ****************//

InanimateDream_006:
// 000   ----------------------------------------
 BYTE   KEYSH   InanimateDream_key+0
InanimateDream_Label_5_01401FC6:
 BYTE   VOICE   56
 BYTE   PAN   c_v-8
 BYTE   VOL   54*InanimateDream_mvl/mxv
 BYTE   W96
// 001   ----------------------------------------
 BYTE   W96
// 002   ----------------------------------------
 BYTE   W96
// 003   ----------------------------------------
 BYTE   W96
// 004   ----------------------------------------
 BYTE   W96
// 005   ----------------------------------------
 BYTE   W96
// 006   ----------------------------------------
 BYTE   W96
// 007   ----------------------------------------
 BYTE   W96
// 008   ----------------------------------------
 BYTE   W96
// 009   ----------------------------------------
 BYTE   W96
// 010   ----------------------------------------
 BYTE   W96
// 011   ----------------------------------------
 BYTE   W96
// 012   ----------------------------------------
 BYTE   W96
// 013   ----------------------------------------
 BYTE   W96
// 014   ----------------------------------------
 BYTE   W96
// 015   ----------------------------------------
 BYTE   W96
// 016   ----------------------------------------
 BYTE   W96
// 017   ----------------------------------------
 BYTE   W96
// 018   ----------------------------------------
 BYTE   W96
// 019   ----------------------------------------
 BYTE   W96
// 020   ----------------------------------------
 BYTE   W96
// 021   ----------------------------------------
 BYTE   W96
// 022   ----------------------------------------
 BYTE   W96
// 023   ----------------------------------------
 BYTE   W96
// 024   ----------------------------------------
 BYTE   W96
// 025   ----------------------------------------
 BYTE   W96
// 026   ----------------------------------------
 BYTE   W96
// 027   ----------------------------------------
 BYTE   W96
// 028   ----------------------------------------
InanimateDream_Label_5_01401FE8:
 BYTE   W12
 BYTE   N12  Gn3  v112
 BYTE   W12
 BYTE   An3
 BYTE   W12
 BYTE   Bn3
 BYTE   W12
 BYTE   N18  As3
 BYTE   W18
 BYTE   Bn3
 BYTE   W18
 BYTE   N12  Cs4
 BYTE   W12
 BYTE   PEND 
// 029   ----------------------------------------
InanimateDream_Label_5_01401FFA:
 BYTE   N18  Dn4  v112
 BYTE   W18
 BYTE   Cs4
 BYTE   W18
 BYTE   N12  Bn3
 BYTE   W12
 BYTE   N48
 BYTE   W48
 BYTE   PEND 
// 030   ----------------------------------------
 BYTE   W12
 BYTE   N12  Gn3
 BYTE   W12
 BYTE   An3
 BYTE   W12
 BYTE   Bn3
 BYTE   W12
 BYTE   N18  As3
 BYTE   W18
 BYTE   Cs4
 BYTE   W18
 BYTE   N12  Fs4
 BYTE   W12
// 031   ----------------------------------------
 BYTE   N96  Dn4
 BYTE   W96
 BYTE   PATT
  POIN2 InanimateDream_Label_5_01401FE8
// 032   ----------------------------------------
 BYTE   N18  Dn4  v112
 BYTE   W18
 BYTE   Cs4
 BYTE   W18
 BYTE   N12  Bn3
 BYTE   W12
 BYTE   N18  Fs3
 BYTE   W18
 BYTE   En3
 BYTE   W18
 BYTE   N12  Dn3
 BYTE   W12
// 033   ----------------------------------------
 BYTE   W12
 BYTE   Gn3
 BYTE   W12
 BYTE   An3
 BYTE   W12
 BYTE   Bn3
 BYTE   W12
 BYTE   N18  Cs4
 BYTE   W18
 BYTE   Fs4
 BYTE   W18
 BYTE   N12  En4
 BYTE   W12
 BYTE   PATT
  POIN2 InanimateDream_Label_5_01401FFA
// 034   ----------------------------------------
InanimateDream_Label_5_01402043:
 BYTE   W12
 BYTE   N12  Bn3  v112
 BYTE   W12
 BYTE   Cs4
 BYTE   W12
 BYTE   Dn4
 BYTE   W12
 BYTE   N18  Cs4
 BYTE   W18
 BYTE   Dn4
 BYTE   W18
 BYTE   N12  En4
 BYTE   W12
 BYTE   PEND 
// 035   ----------------------------------------
 BYTE   N18  Fs4
 BYTE   W18
 BYTE   En4
 BYTE   W18
 BYTE   N12  Dn4
 BYTE   W12
 BYTE   N48
 BYTE   W48
 BYTE   PATT
  POIN2 InanimateDream_Label_5_01402043
// 036   ----------------------------------------
 BYTE   N96  Fs4  v112
 BYTE   W96
 BYTE   PATT
  POIN2 InanimateDream_Label_5_01402043
// 037   ----------------------------------------
 BYTE   N18  Fs4  v112
 BYTE   W18
 BYTE   En4
 BYTE   W18
 BYTE   N12  Dn4
 BYTE   W12
 BYTE   N18
 BYTE   W18
 BYTE   Cs4
 BYTE   W18
 BYTE   N12  Bn3
 BYTE   W12
// 038   ----------------------------------------
 BYTE   W12
 BYTE   N12
 BYTE   W12
 BYTE   Cs4
 BYTE   W12
 BYTE   Dn4
 BYTE   W12
 BYTE   N18  En4
 BYTE   W18
 BYTE   As4
 BYTE   W18
 BYTE   N12
 BYTE   W12
// 039   ----------------------------------------
 BYTE   N18  Bn4
 BYTE   W18
 BYTE   Fs4
 BYTE   W18
 BYTE   N12  En4
 BYTE   W12
 BYTE   N18  Dn4
 BYTE   W18
 BYTE   En4
 BYTE   W18
 BYTE   N12
 BYTE   W12
// 040   ----------------------------------------
 BYTE   W96
// 041   ----------------------------------------
 BYTE   W96
// 042   ----------------------------------------
 BYTE   W96
// 043   ----------------------------------------
 BYTE   W96
// 044   ----------------------------------------
 BYTE   W96
// 045   ----------------------------------------
 BYTE   W96
// 046   ----------------------------------------
 BYTE   W96
// 047   ----------------------------------------
 BYTE   W96
// 048   ----------------------------------------
 BYTE   W96
// 049   ----------------------------------------
 BYTE   W96
// 050   ----------------------------------------
 BYTE   W96
// 051   ----------------------------------------
 BYTE   W96
// 052   ----------------------------------------
InanimateDream_Label_5_014020A6:
 BYTE   W36
 BYTE   N12  Fs3  v112
 BYTE   W12
 BYTE   Gs3
 BYTE   W12
 BYTE   As3
 BYTE   W12
 BYTE   N18  An3
 BYTE   W18
 BYTE   As3
 BYTE   W06
 BYTE   PEND 
// 053   ----------------------------------------
 BYTE   W12
 BYTE   N12  Cn4
 BYTE   W12
 BYTE   N18  Cs4
 BYTE   W18
 BYTE   Cn4
 BYTE   W18
 BYTE   N12  As3
 BYTE   W12
 BYTE   N48
 BYTE   W24
// 054   ----------------------------------------
 BYTE   W36
 BYTE   N12  Fs3
 BYTE   W12
 BYTE   Gs3
 BYTE   W12
 BYTE   As3
 BYTE   W12
 BYTE   N18  An3
 BYTE   W18
 BYTE   Cn4
 BYTE   W06
// 055   ----------------------------------------
 BYTE   W12
 BYTE   N12  Fn4
 BYTE   W12
 BYTE   N96  Cs4
 BYTE   W72
 BYTE   PATT
  POIN2 InanimateDream_Label_5_014020A6
// 056   ----------------------------------------
 BYTE   W12
 BYTE   N12  Cn4  v112
 BYTE   W12
 BYTE   N18  Cs4
 BYTE   W18
 BYTE   Cn4
 BYTE   W18
 BYTE   N12  As3
 BYTE   W12
 BYTE   N18  Fn3
 BYTE   W18
 BYTE   Ds3
 BYTE   W06
// 057   ----------------------------------------
 BYTE   W12
 BYTE   N12  Cs3
 BYTE   W24
 BYTE   Fs3
 BYTE   W12
 BYTE   Gs3
 BYTE   W12
 BYTE   As3
 BYTE   W12
 BYTE   N18  Cn4
 BYTE   W18
 BYTE   Fn4
 BYTE   W06
// 058   ----------------------------------------
 BYTE   W12
 BYTE   N12  Ds4
 BYTE   W12
 BYTE   N18  Cs4
 BYTE   W18
 BYTE   Cn4
 BYTE   W18
 BYTE   N12  As3
 BYTE   W12
 BYTE   N48
 BYTE   W24
// 059   ----------------------------------------
InanimateDream_Label_5_0140210B:
 BYTE   W36
 BYTE   N12  As3  v112
 BYTE   W12
 BYTE   Cn4
 BYTE   W12
 BYTE   Cs4
 BYTE   W12
 BYTE   N18  Cn4
 BYTE   W18
 BYTE   Cs4
 BYTE   W06
 BYTE   PEND 
// 060   ----------------------------------------
 BYTE   W12
 BYTE   N12  Ds4
 BYTE   W12
 BYTE   N18  Fn4
 BYTE   W18
 BYTE   Ds4
 BYTE   W18
 BYTE   N12  Cs4
 BYTE   W12
 BYTE   N48
 BYTE   W24
 BYTE   PATT
  POIN2 InanimateDream_Label_5_0140210B
// 061   ----------------------------------------
 BYTE   W12
 BYTE   N12  Ds4  v112
 BYTE   W12
 BYTE   N96  Fn4
 BYTE   W72
 BYTE   PATT
  POIN2 InanimateDream_Label_5_0140210B
// 062   ----------------------------------------
 BYTE   W12
 BYTE   N12  Ds4  v112
 BYTE   W12
 BYTE   N18  Fn4
 BYTE   W18
 BYTE   Ds4
 BYTE   W18
 BYTE   N12  Cs4
 BYTE   W12
 BYTE   N18
 BYTE   W18
 BYTE   Cn4
 BYTE   W06
// 063   ----------------------------------------
 BYTE   W12
 BYTE   N12  As3
 BYTE   W24
 BYTE   N12
 BYTE   W12
 BYTE   Cn4
 BYTE   W12
 BYTE   Cs4
 BYTE   W12
 BYTE   N18  Ds4
 BYTE   W18
 BYTE   An4
 BYTE   W06
// 064   ----------------------------------------
 BYTE   W12
 BYTE   N12
 BYTE   W12
 BYTE   N18  As4
 BYTE   W18
 BYTE   Fn4
 BYTE   W18
 BYTE   N12  Ds4
 BYTE   W12
 BYTE   N18  Cs4
 BYTE   W18
 BYTE   N30  Ds4
 BYTE   W06
// 065   ----------------------------------------
InanimateDream_Label_5_0140216B:
 BYTE   W36
 BYTE   N12  As3  v112
 BYTE   W12
 BYTE   Cn4
 BYTE   W12
 BYTE   Dn4
 BYTE   W12
 BYTE   N18  Cs4
 BYTE   W18
 BYTE   Dn4
 BYTE   W06
 BYTE   PEND 
// 066   ----------------------------------------
 BYTE   W12
 BYTE   N12  En4
 BYTE   W12
 BYTE   N18  Fn4
 BYTE   W18
 BYTE   En4
 BYTE   W18
 BYTE   N12  Dn4
 BYTE   W12
 BYTE   N48
 BYTE   W24
// 067   ----------------------------------------
 BYTE   W36
 BYTE   N12  As3
 BYTE   W12
 BYTE   Cn4
 BYTE   W12
 BYTE   Dn4
 BYTE   W12
 BYTE   N18  Cs4
 BYTE   W18
 BYTE   En4
 BYTE   W06
// 068   ----------------------------------------
 BYTE   W12
 BYTE   N12  An4
 BYTE   W12
 BYTE   N96  Fn4
 BYTE   W72
 BYTE   PATT
  POIN2 InanimateDream_Label_5_0140216B
// 069   ----------------------------------------
 BYTE   W12
 BYTE   N12  En4  v112
 BYTE   W12
 BYTE   N18  Fn4
 BYTE   W18
 BYTE   En4
 BYTE   W18
 BYTE   N12  Dn4
 BYTE   W12
 BYTE   N18  An3
 BYTE   W18
 BYTE   Gn3
 BYTE   W06
// 070   ----------------------------------------
 BYTE   W12
 BYTE   N12  Fn3
 BYTE   W24
 BYTE   As3
 BYTE   W12
 BYTE   Cn4
 BYTE   W12
 BYTE   Dn4
 BYTE   W12
 BYTE   N18  En4
 BYTE   W18
 BYTE   An4
 BYTE   W06
// 071   ----------------------------------------
 BYTE   W12
 BYTE   N12  Gn4
 BYTE   W12
 BYTE   N18  Fn4
 BYTE   W18
 BYTE   En4
 BYTE   W18
 BYTE   N12  Dn4
 BYTE   W12
 BYTE   N48
 BYTE   W24
// 072   ----------------------------------------
InanimateDream_Label_5_014021D0:
 BYTE   W36
 BYTE   N12  Dn4  v112
 BYTE   W12
 BYTE   En4
 BYTE   W12
 BYTE   Fn4
 BYTE   W12
 BYTE   N18  En4
 BYTE   W18
 BYTE   Fn4
 BYTE   W06
 BYTE   PEND 
// 073   ----------------------------------------
 BYTE   W12
 BYTE   N12  Gn4
 BYTE   W12
 BYTE   N18  An4
 BYTE   W18
 BYTE   Gn4
 BYTE   W18
 BYTE   N12  Fn4
 BYTE   W12
 BYTE   N48
 BYTE   W24
 BYTE   PATT
  POIN2 InanimateDream_Label_5_014021D0
// 074   ----------------------------------------
 BYTE   W12
 BYTE   N12  Gn4  v112
 BYTE   W12
 BYTE   N96  An4
 BYTE   W72
 BYTE   PATT
  POIN2 InanimateDream_Label_5_014021D0
// 075   ----------------------------------------
 BYTE   W12
 BYTE   N12  Gn4  v112
 BYTE   W12
 BYTE   N18  An4
 BYTE   W18
 BYTE   Gn4
 BYTE   W18
 BYTE   N12  Fn4
 BYTE   W12
 BYTE   N18
 BYTE   W18
 BYTE   En4
 BYTE   W06
// 076   ----------------------------------------
 BYTE   W12
 BYTE   N12  Dn4
 BYTE   W24
 BYTE   N12
 BYTE   W12
 BYTE   En4
 BYTE   W12
 BYTE   Fn4
 BYTE   W12
 BYTE   N18  Gn4
 BYTE   W18
 BYTE   Cs5
 BYTE   W06
// 077   ----------------------------------------
 BYTE   W12
 BYTE   N12
 BYTE   W12
 BYTE   N18  Dn5
 BYTE   W18
 BYTE   An4
 BYTE   W18
 BYTE   N12  Gn4
 BYTE   W12
 BYTE   N18  Fn4
 BYTE   W18
 BYTE   N30  Gn4
 BYTE   W06
// 078   ----------------------------------------
 BYTE   W96
// 079   ----------------------------------------
 BYTE   W96
// 080   ----------------------------------------
 BYTE   W96
// 081   ----------------------------------------
 BYTE   W96
// 082   ----------------------------------------
 BYTE   W96
// 083   ----------------------------------------
 BYTE   W96
// 084   ----------------------------------------
 BYTE   W96
// 085   ----------------------------------------
 BYTE   W96
// 086   ----------------------------------------
 BYTE   W96
// 087   ----------------------------------------
 BYTE   W96
// 088   ----------------------------------------
 BYTE   W96
// 089   ----------------------------------------
 BYTE   W66
 BYTE   GoTo
  POIN2 InanimateDream_Label_5_01401FC6
// 090   ----------------------------------------
 BYTE   W03
 BYTE   FINE

//**************** Track 7 (Midi-Chn.6) ****************//

InanimateDream_007:
// 000   ----------------------------------------
 BYTE   KEYSH   InanimateDream_key+0
InanimateDream_Label_6_01402246:
 BYTE   VOICE   51
 BYTE   PAN   c_v+0
 BYTE   VOL   40*InanimateDream_mvl/mxv
 BYTE   N48  Gs1  v100
 BYTE   N48  Cs2
 BYTE   W48
 BYTE   N36  As1
 BYTE   N36  Ds2
 BYTE   W36
 BYTE   N60  Bn1
 BYTE   N60  En2
 BYTE   W12
// 001   ----------------------------------------
InanimateDream_Label_6_0140225C:
 BYTE   W48
 BYTE   N48  Cs2  v100
 BYTE   N48  Fs2
 BYTE   W48
 BYTE   PEND 
// 002   ----------------------------------------
InanimateDream_Label_6_01402264:
 BYTE   N48  Gs1  v100
 BYTE   N48  Cs2
 BYTE   W48
 BYTE   N36  As1
 BYTE   N36  Ds2
 BYTE   W36
 BYTE   N60  Bn1
 BYTE   N60  En2
 BYTE   W12
 BYTE   PEND 
 BYTE   PATT
  POIN2 InanimateDream_Label_6_0140225C
 BYTE   PATT
  POIN2 InanimateDream_Label_6_01402264
 BYTE   PATT
  POIN2 InanimateDream_Label_6_0140225C
 BYTE   PATT
  POIN2 InanimateDream_Label_6_01402264
 BYTE   PATT
  POIN2 InanimateDream_Label_6_0140225C
 BYTE   PATT
  POIN2 InanimateDream_Label_6_01402264
 BYTE   PATT
  POIN2 InanimateDream_Label_6_0140225C
// 003   ----------------------------------------
 BYTE   N48  Gs1  v100
 BYTE   N48  Cs2
 BYTE   W48
 BYTE   N36  As1
 BYTE   N36  Ds2
 BYTE   W36
 BYTE   N12  Bn1
 BYTE   N12  En2
 BYTE   W12
// 004   ----------------------------------------
 BYTE   W96
// 005   ----------------------------------------
 BYTE   N96  Gs1
 BYTE   N96  Ds2
 BYTE   W96
// 006   ----------------------------------------
 BYTE   Fs1
 BYTE   N96  Ds2
 BYTE   W96
// 007   ----------------------------------------
 BYTE   Fn1
 BYTE   N96  Cs2
 BYTE   W96
// 008   ----------------------------------------
InanimateDream_Label_6_014022B6:
 BYTE   N48  En1  v100
 BYTE   N48  Bn1
 BYTE   W48
 BYTE   Fs1
 BYTE   N48  Cs2
 BYTE   W48
 BYTE   PEND 
// 009   ----------------------------------------
 BYTE   N96  Gs1
 BYTE   N96  Ds2
 BYTE   W96
// 010   ----------------------------------------
 BYTE   Fs1
 BYTE   N96  Ds2
 BYTE   W96
// 011   ----------------------------------------
 BYTE   Fn1
 BYTE   N96  Cs2
 BYTE   W96
 BYTE   PATT
  POIN2 InanimateDream_Label_6_014022B6
// 012   ----------------------------------------
 BYTE   N96  Gs1  v100
 BYTE   N96  Ds2
 BYTE   W96
// 013   ----------------------------------------
 BYTE   Fs1
 BYTE   N96  Ds2
 BYTE   W96
// 014   ----------------------------------------
 BYTE   Fn1
 BYTE   N96  Cs2
 BYTE   W96
 BYTE   PATT
  POIN2 InanimateDream_Label_6_014022B6
// 015   ----------------------------------------
 BYTE   N96  Gs1  v100
 BYTE   N96  Ds2
 BYTE   W96
// 016   ----------------------------------------
 BYTE   Fs1
 BYTE   N96  Ds2
 BYTE   W96
// 017   ----------------------------------------
 BYTE   Fn1
 BYTE   N96  Cs2
 BYTE   W96
 BYTE   PATT
  POIN2 InanimateDream_Label_6_014022B6
// 018   ----------------------------------------
InanimateDream_Label_6_014022F9:
 BYTE   N48  Gn1  v100
 BYTE   N48  Dn2
 BYTE   W48
 BYTE   As1
 BYTE   N48  En2
 BYTE   W48
 BYTE   PEND 
// 019   ----------------------------------------
 BYTE   N96  Bn1
 BYTE   N96  Fs2
 BYTE   W96
 BYTE   PATT
  POIN2 InanimateDream_Label_6_014022F9
// 020   ----------------------------------------
 BYTE   N96  Bn1  v100
 BYTE   N96  Fs2
 BYTE   W96
 BYTE   PATT
  POIN2 InanimateDream_Label_6_014022F9
// 021   ----------------------------------------
 BYTE   N96  Bn1  v100
 BYTE   N96  Fs2
 BYTE   W96
 BYTE   PATT
  POIN2 InanimateDream_Label_6_014022F9
// 022   ----------------------------------------
 BYTE   N96  Bn1  v100
 BYTE   N96  Fs2
 BYTE   W96
 BYTE   PATT
  POIN2 InanimateDream_Label_6_014022F9
// 023   ----------------------------------------
 BYTE   N96  Bn1  v100
 BYTE   N96  Fs2
 BYTE   W96
 BYTE   PATT
  POIN2 InanimateDream_Label_6_014022F9
// 024   ----------------------------------------
 BYTE   N96  Bn1  v100
 BYTE   N96  Fs2
 BYTE   W96
 BYTE   PATT
  POIN2 InanimateDream_Label_6_014022F9
// 025   ----------------------------------------
 BYTE   N96  Bn1  v100
 BYTE   N96  Fs2
 BYTE   W96
 BYTE   PATT
  POIN2 InanimateDream_Label_6_014022F9
// 026   ----------------------------------------
 BYTE   N96  Bn1  v100
 BYTE   N96  Fs2
 BYTE   W96
// 027   ----------------------------------------
InanimateDream_Label_6_01402356:
 BYTE   W24
 BYTE   N48  Gn1  v100
 BYTE   N48  Cn2
 BYTE   W48
 BYTE   N36  An1
 BYTE   N36  Dn2
 BYTE   W24
 BYTE   PEND 
// 028   ----------------------------------------
InanimateDream_Label_6_01402363:
 BYTE   W12
 BYTE   N60  As1  v100
 BYTE   N60  Ds2
 BYTE   W60
 BYTE   N48  Cn2
 BYTE   N48  Fn2
 BYTE   W24
 BYTE   PEND 
 BYTE   PATT
  POIN2 InanimateDream_Label_6_01402356
 BYTE   PATT
  POIN2 InanimateDream_Label_6_01402363
 BYTE   PATT
  POIN2 InanimateDream_Label_6_01402356
 BYTE   PATT
  POIN2 InanimateDream_Label_6_01402363
 BYTE   PATT
  POIN2 InanimateDream_Label_6_01402356
 BYTE   PATT
  POIN2 InanimateDream_Label_6_01402363
 BYTE   PATT
  POIN2 InanimateDream_Label_6_01402356
 BYTE   PATT
  POIN2 InanimateDream_Label_6_01402363
 BYTE   PATT
  POIN2 InanimateDream_Label_6_01402356
// 029   ----------------------------------------
 BYTE   W12
 BYTE   N12  As1  v100
 BYTE   N12  Ds2
 BYTE   W84
// 030   ----------------------------------------
InanimateDream_Label_6_014023A4:
 BYTE   W24
 BYTE   N48  Fs1  v100
 BYTE   N48  Cs2
 BYTE   W48
 BYTE   An1
 BYTE   N48  Ds2
 BYTE   W24
 BYTE   PEND 
// 031   ----------------------------------------
InanimateDream_Label_6_014023B0:
 BYTE   W24
 BYTE   N96  As1  v100
 BYTE   N96  Fn2
 BYTE   W72
 BYTE   PEND 
 BYTE   PATT
  POIN2 InanimateDream_Label_6_014023A4
 BYTE   PATT
  POIN2 InanimateDream_Label_6_014023B0
 BYTE   PATT
  POIN2 InanimateDream_Label_6_014023A4
 BYTE   PATT
  POIN2 InanimateDream_Label_6_014023B0
 BYTE   PATT
  POIN2 InanimateDream_Label_6_014023A4
 BYTE   PATT
  POIN2 InanimateDream_Label_6_014023B0
 BYTE   PATT
  POIN2 InanimateDream_Label_6_014023A4
 BYTE   PATT
  POIN2 InanimateDream_Label_6_014023B0
 BYTE   PATT
  POIN2 InanimateDream_Label_6_014023A4
 BYTE   PATT
  POIN2 InanimateDream_Label_6_014023B0
 BYTE   PATT
  POIN2 InanimateDream_Label_6_014023A4
 BYTE   PATT
  POIN2 InanimateDream_Label_6_014023B0
 BYTE   PATT
  POIN2 InanimateDream_Label_6_014023A4
 BYTE   PATT
  POIN2 InanimateDream_Label_6_014023B0
// 032   ----------------------------------------
InanimateDream_Label_6_014023FE:
 BYTE   W24
 BYTE   N48  As1  v100
 BYTE   N48  Fn2
 BYTE   W48
 BYTE   Cs2
 BYTE   N48  Gn2
 BYTE   W24
 BYTE   PEND 
// 033   ----------------------------------------
InanimateDream_Label_6_0140240A:
 BYTE   W24
 BYTE   N96  Dn2  v100
 BYTE   N96  An2
 BYTE   W72
 BYTE   PEND 
 BYTE   PATT
  POIN2 InanimateDream_Label_6_014023FE
 BYTE   PATT
  POIN2 InanimateDream_Label_6_0140240A
 BYTE   PATT
  POIN2 InanimateDream_Label_6_014023FE
 BYTE   PATT
  POIN2 InanimateDream_Label_6_0140240A
 BYTE   PATT
  POIN2 InanimateDream_Label_6_014023FE
 BYTE   PATT
  POIN2 InanimateDream_Label_6_0140240A
 BYTE   PATT
  POIN2 InanimateDream_Label_6_014023FE
 BYTE   PATT
  POIN2 InanimateDream_Label_6_0140240A
 BYTE   PATT
  POIN2 InanimateDream_Label_6_014023FE
 BYTE   PATT
  POIN2 InanimateDream_Label_6_0140240A
 BYTE   PATT
  POIN2 InanimateDream_Label_6_014023FE
 BYTE   PATT
  POIN2 InanimateDream_Label_6_0140240A
 BYTE   PATT
  POIN2 InanimateDream_Label_6_014023FE
 BYTE   PATT
  POIN2 InanimateDream_Label_6_0140240A
// 034   ----------------------------------------
InanimateDream_Label_6_01402458:
 BYTE   W24
 BYTE   N48  Gs1  v100
 BYTE   N48  Cs2
 BYTE   W48
 BYTE   N36  As1
 BYTE   N36  Ds2
 BYTE   W24
 BYTE   PEND 
// 035   ----------------------------------------
InanimateDream_Label_6_01402465:
 BYTE   W12
 BYTE   N60  Bn1  v100
 BYTE   N60  En2
 BYTE   W60
 BYTE   N48  Cs2
 BYTE   N48  Fs2
 BYTE   W24
 BYTE   PEND 
 BYTE   PATT
  POIN2 InanimateDream_Label_6_01402458
 BYTE   PATT
  POIN2 InanimateDream_Label_6_01402465
 BYTE   PATT
  POIN2 InanimateDream_Label_6_01402458
 BYTE   PATT
  POIN2 InanimateDream_Label_6_01402465
 BYTE   PATT
  POIN2 InanimateDream_Label_6_01402458
 BYTE   PATT
  POIN2 InanimateDream_Label_6_01402465
 BYTE   PATT
  POIN2 InanimateDream_Label_6_01402458
 BYTE   PATT
  POIN2 InanimateDream_Label_6_01402465
 BYTE   PATT
  POIN2 InanimateDream_Label_6_01402458
// 036   ----------------------------------------
 BYTE   W12
 BYTE   N12  As1  v100
 BYTE   N12  Ds2
 BYTE   W54
 BYTE   GoTo
  POIN2 InanimateDream_Label_6_01402246
// 037   ----------------------------------------
 BYTE   W03
 BYTE   FINE

//**************** Track 8 (Midi-Chn.7) ****************//

InanimateDream_008:
// 000   ----------------------------------------
 BYTE   KEYSH   InanimateDream_key+0
InanimateDream_Label_7_014024B2:
 BYTE   VOICE   121
 BYTE   PAN   c_v+0
 BYTE   VOL   54*InanimateDream_mvl/mxv
 BYTE   PAN   c_v+0
 BYTE   VOL   54*InanimateDream_mvl/mxv
 BYTE   N03  Cn1  v068
 BYTE   N03  En1
 BYTE   N03  Cs2
 BYTE   W48
 BYTE   Cn1
 BYTE   N03  En1
 BYTE   W36
 BYTE   Cn1
 BYTE   N03  En1
 BYTE   W12
// 001   ----------------------------------------
 BYTE   W48
 BYTE   Cn1
 BYTE   N03  En1
 BYTE   W48
// 002   ----------------------------------------
 BYTE   Cn1
 BYTE   N03  En1
 BYTE   W48
 BYTE   Cn1
 BYTE   N03  En1
 BYTE   W36
 BYTE   Cn1
 BYTE   N03  En1
 BYTE   W12
// 003   ----------------------------------------
 BYTE   W48
 BYTE   Cn1
 BYTE   N03  En1
 BYTE   N03  Bn1
 BYTE   W06
 BYTE   N03
 BYTE   W06
 BYTE   N03
 BYTE   W06
 BYTE   N03
 BYTE   W06
 BYTE   Cn1
 BYTE   N03  En1
 BYTE   N03  An1
 BYTE   W03
 BYTE   N03
 BYTE   W03
 BYTE   Cn1
 BYTE   N03  En1
 BYTE   N03  An1
 BYTE   W03
 BYTE   N03
 BYTE   W03
 BYTE   Cn1
 BYTE   N03  En1
 BYTE   N03  Gn1
 BYTE   W03
 BYTE   N03
 BYTE   W03
 BYTE   Cn1
 BYTE   N03  En1
 BYTE   N03  Fn1
 BYTE   W03
 BYTE   N03
 BYTE   W03
// 004   ----------------------------------------
InanimateDream_Label_7_0140250A:
 BYTE   N03  Cn1  v068
 BYTE   N03  Fs1  v076
 BYTE   W06
 BYTE   N03
 BYTE   W06
 BYTE   En1  v068
 BYTE   N03  As1  v076
 BYTE   W06
 BYTE   Fs1
 BYTE   W06
 BYTE   Cn1  v068
 BYTE   N03  Fs1  v076
 BYTE   W06
 BYTE   N03
 BYTE   W06
 BYTE   En1  v068
 BYTE   N03  As1  v076
 BYTE   W06
 BYTE   Fs1
 BYTE   W06
 BYTE   Cn1  v068
 BYTE   N03  Fs1  v076
 BYTE   W06
 BYTE   N03
 BYTE   W06
 BYTE   En1  v068
 BYTE   N03  As1  v076
 BYTE   W06
 BYTE   Fs1
 BYTE   W06
 BYTE   Cn1  v068
 BYTE   N03  Fs1  v076
 BYTE   W06
 BYTE   N03
 BYTE   W06
 BYTE   En1  v068
 BYTE   N03  As1  v076
 BYTE   W06
 BYTE   Fs1
 BYTE   W06
 BYTE   PEND 
 BYTE   PATT
  POIN2 InanimateDream_Label_7_0140250A
 BYTE   PATT
  POIN2 InanimateDream_Label_7_0140250A
 BYTE   PATT
  POIN2 InanimateDream_Label_7_0140250A
// 005   ----------------------------------------
InanimateDream_Label_7_0140255B:
 BYTE   N03  Cn1  v068
 BYTE   N03  En1
 BYTE   N03  Cs2
 BYTE   W48
 BYTE   Cn1
 BYTE   N03  En1
 BYTE   N03  Cs2
 BYTE   W36
 BYTE   Cn1
 BYTE   N03  En1
 BYTE   N03  Cs2
 BYTE   W12
 BYTE   PEND 
// 006   ----------------------------------------
 BYTE   W48
 BYTE   Cn1
 BYTE   N03  En1
 BYTE   N03  Cs2
 BYTE   W48
 BYTE   PATT
  POIN2 InanimateDream_Label_7_0140255B
// 007   ----------------------------------------
 BYTE   N03  Fs1  v076
 BYTE   W06
 BYTE   N03
 BYTE   W06
 BYTE   N03
 BYTE   W06
 BYTE   N03
 BYTE   W06
 BYTE   N03
 BYTE   W06
 BYTE   N03
 BYTE   W06
 BYTE   N03
 BYTE   W06
 BYTE   N03
 BYTE   W06
 BYTE   Bn4  v096
 BYTE   W06
 BYTE   En1  v068
 BYTE   W06
 BYTE   N03
 BYTE   W06
 BYTE   N03
 BYTE   W06
 BYTE   Cn1
 BYTE   W06
 BYTE   En1
 BYTE   W06
 BYTE   N03
 BYTE   W06
 BYTE   N03
 BYTE   W06
// 008   ----------------------------------------
InanimateDream_Label_7_014025A0:
 BYTE   N03  Cn1  v068
 BYTE   N03  Fs1  v076
 BYTE   N03  Cs2  v068
 BYTE   W06
 BYTE   Fs1  v076
 BYTE   W06
 BYTE   N03
 BYTE   W06
 BYTE   N03
 BYTE   W06
 BYTE   En1  v068
 BYTE   N03  As1  v076
 BYTE   W06
 BYTE   Fs1
 BYTE   W06
 BYTE   Cn1  v068
 BYTE   N03  Fs1  v076
 BYTE   W06
 BYTE   N03
 BYTE   W06
 BYTE   Cn1  v068
 BYTE   N03  Fs1  v076
 BYTE   W06
 BYTE   N03
 BYTE   W06
 BYTE   N03
 BYTE   W06
 BYTE   N03
 BYTE   W06
 BYTE   En1  v068
 BYTE   N03  As1  v076
 BYTE   W06
 BYTE   Cn1  v068
 BYTE   N03  Fs1  v076
 BYTE   W06
 BYTE   Cn1  v068
 BYTE   N03  Fs1  v076
 BYTE   W06
 BYTE   Cn1  v068
 BYTE   N03  Fs1  v076
 BYTE   W06
 BYTE   PEND 
// 009   ----------------------------------------
InanimateDream_Label_7_014025E6:
 BYTE   N03  Cn1  v068
 BYTE   N03  Fs1  v076
 BYTE   W06
 BYTE   N03
 BYTE   W06
 BYTE   N03
 BYTE   W06
 BYTE   N03
 BYTE   W06
 BYTE   En1  v068
 BYTE   N03  As1  v076
 BYTE   W06
 BYTE   Fs1
 BYTE   W06
 BYTE   Cn1  v068
 BYTE   N03  Fs1  v076
 BYTE   W06
 BYTE   N03
 BYTE   W06
 BYTE   Cn1  v068
 BYTE   N03  Fs1  v076
 BYTE   W06
 BYTE   N03
 BYTE   W06
 BYTE   N03
 BYTE   W06
 BYTE   N03
 BYTE   W06
 BYTE   En1  v068
 BYTE   N03  As1  v076
 BYTE   W06
 BYTE   Cn1  v068
 BYTE   N03  Fs1  v076
 BYTE   W06
 BYTE   Cn1  v068
 BYTE   N03  Fs1  v076
 BYTE   W06
 BYTE   Cn1  v068
 BYTE   N03  Fs1  v076
 BYTE   W06
 BYTE   PEND 
 BYTE   PATT
  POIN2 InanimateDream_Label_7_014025E6
// 010   ----------------------------------------
 BYTE   N03  Cn1  v068
 BYTE   N03  Fs1  v076
 BYTE   W06
 BYTE   N03
 BYTE   W06
 BYTE   N03
 BYTE   W06
 BYTE   N03
 BYTE   W06
 BYTE   En1  v068
 BYTE   N03  As1  v076
 BYTE   W06
 BYTE   Fs1
 BYTE   W06
 BYTE   Cn1  v068
 BYTE   N03  Fs1  v076
 BYTE   W06
 BYTE   N03
 BYTE   W18
 BYTE   En1  v068
 BYTE   N03  Cs2
 BYTE   W06
 BYTE   Cn1
 BYTE   W06
 BYTE   En1
 BYTE   W06
 BYTE   Cn1
 BYTE   W06
 BYTE   N03
 BYTE   N03  En1
 BYTE   W06
 BYTE   Cn1
 BYTE   N03  En1
 BYTE   W06
 BYTE   PATT
  POIN2 InanimateDream_Label_7_014025A0
 BYTE   PATT
  POIN2 InanimateDream_Label_7_014025E6
 BYTE   PATT
  POIN2 InanimateDream_Label_7_014025E6
// 011   ----------------------------------------
 BYTE   N03  Cn1  v068
 BYTE   N03  Fs1  v076
 BYTE   W06
 BYTE   N03
 BYTE   W06
 BYTE   N03
 BYTE   W06
 BYTE   N03
 BYTE   W06
 BYTE   En1  v068
 BYTE   N03  As1  v076
 BYTE   W06
 BYTE   Fs1
 BYTE   W06
 BYTE   Cn1  v068
 BYTE   N03  Fs1  v076
 BYTE   W06
 BYTE   Cn1  v068
 BYTE   N03  Fs1  v076
 BYTE   W06
 BYTE   Cn1  v068
 BYTE   N03  Bn4  v096
 BYTE   W06
 BYTE   En1  v068
 BYTE   W06
 BYTE   N03
 BYTE   W06
 BYTE   Cn1
 BYTE   W06
 BYTE   En1
 BYTE   W06
 BYTE   Cn1
 BYTE   N03  En1
 BYTE   W06
 BYTE   Cn1
 BYTE   W06
 BYTE   N03
 BYTE   N03  En1
 BYTE   W06
// 012   ----------------------------------------
 BYTE   Cn1
 BYTE   N03  Fs1  v076
 BYTE   N03  Cs2  v068
 BYTE   W06
 BYTE   Fs1  v076
 BYTE   W06
 BYTE   En1  v068
 BYTE   N03  As1  v076
 BYTE   W06
 BYTE   Fs1
 BYTE   W06
 BYTE   Cn1  v068
 BYTE   N03  Fs1  v076
 BYTE   W06
 BYTE   N03
 BYTE   W06
 BYTE   En1  v068
 BYTE   N03  As1  v076
 BYTE   W06
 BYTE   Cn1  v068
 BYTE   N03  Fs1  v076
 BYTE   W06
 BYTE   Cn1  v068
 BYTE   N03  Fs1  v076
 BYTE   W06
 BYTE   N03
 BYTE   W06
 BYTE   En1  v068
 BYTE   N03  As1  v076
 BYTE   W06
 BYTE   Cn1  v068
 BYTE   N03  Fs1  v076
 BYTE   W06
 BYTE   Cn1  v068
 BYTE   N03  Fs1  v076
 BYTE   W06
 BYTE   N03
 BYTE   W06
 BYTE   En1  v068
 BYTE   N03  As1  v076
 BYTE   W06
 BYTE   Fs1
 BYTE   W06
// 013   ----------------------------------------
InanimateDream_Label_7_014026F1:
 BYTE   N03  Cn1  v068
 BYTE   N03  Fs1  v076
 BYTE   W06
 BYTE   N03
 BYTE   W06
 BYTE   En1  v068
 BYTE   N03  As1  v076
 BYTE   W06
 BYTE   Fs1
 BYTE   W06
 BYTE   Cn1  v068
 BYTE   N03  Fs1  v076
 BYTE   W06
 BYTE   N03
 BYTE   W06
 BYTE   En1  v068
 BYTE   N03  As1  v076
 BYTE   W06
 BYTE   Cn1  v068
 BYTE   N03  Fs1  v076
 BYTE   W06
 BYTE   Cn1  v068
 BYTE   N03  Fs1  v076
 BYTE   W06
 BYTE   N03
 BYTE   W06
 BYTE   En1  v068
 BYTE   N03  As1  v076
 BYTE   W06
 BYTE   Cn1  v068
 BYTE   N03  Fs1  v076
 BYTE   W06
 BYTE   Cn1  v068
 BYTE   N03  Fs1  v076
 BYTE   W06
 BYTE   N03
 BYTE   W06
 BYTE   En1  v068
 BYTE   N03  As1  v076
 BYTE   W06
 BYTE   Cn1  v068
 BYTE   N03  Fs1  v076
 BYTE   W06
 BYTE   PEND 
// 014   ----------------------------------------
InanimateDream_Label_7_0140273F:
 BYTE   N03  Cn1  v068
 BYTE   N03  Fs1  v076
 BYTE   W06
 BYTE   N03
 BYTE   W06
 BYTE   En1  v068
 BYTE   N03  As1  v076
 BYTE   W06
 BYTE   Fs1
 BYTE   W06
 BYTE   Cn1  v068
 BYTE   N03  Fs1  v076
 BYTE   W06
 BYTE   N03
 BYTE   W06
 BYTE   En1  v068
 BYTE   N03  As1  v076
 BYTE   W06
 BYTE   Cn1  v068
 BYTE   N03  Fs1  v076
 BYTE   W06
 BYTE   Cn1  v068
 BYTE   N03  Fs1  v076
 BYTE   W06
 BYTE   N03
 BYTE   W06
 BYTE   En1  v068
 BYTE   N03  As1  v076
 BYTE   W06
 BYTE   Cn1  v068
 BYTE   N03  Fs1  v076
 BYTE   W06
 BYTE   Cn1  v068
 BYTE   N03  Fs1  v076
 BYTE   W06
 BYTE   N03
 BYTE   W06
 BYTE   En1  v068
 BYTE   N03  As1  v076
 BYTE   W06
 BYTE   Fs1
 BYTE   W06
 BYTE   PEND 
 BYTE   PATT
  POIN2 InanimateDream_Label_7_014026F1
 BYTE   PATT
  POIN2 InanimateDream_Label_7_0140273F
 BYTE   PATT
  POIN2 InanimateDream_Label_7_014026F1
 BYTE   PATT
  POIN2 InanimateDream_Label_7_0140273F
// 015   ----------------------------------------
 BYTE   N03  Cn1  v068
 BYTE   N03  En1
 BYTE   N03  Cs2
 BYTE   W06
 BYTE   Cn1
 BYTE   W06
 BYTE   N03
 BYTE   W06
 BYTE   N03
 BYTE   W06
 BYTE   N03
 BYTE   N03  En1
 BYTE   N03  Cs2
 BYTE   W06
 BYTE   Cn1
 BYTE   W18
 BYTE   N03
 BYTE   N03  En1
 BYTE   N03  Cs2
 BYTE   W24
 BYTE   Cn1
 BYTE   N03  En1
 BYTE   N03  Cs2
 BYTE   W06
 BYTE   Cn1
 BYTE   N03  En1
 BYTE   W06
 BYTE   Cn1
 BYTE   N03  En1
 BYTE   W06
 BYTE   Cn1
 BYTE   N03  En1
 BYTE   W03
 BYTE   Cn1
 BYTE   W03
// 016   ----------------------------------------
InanimateDream_Label_7_014027CD:
 BYTE   N03  Cn1  v068
 BYTE   N03  Fs1  v076
 BYTE   N03  Cs2  v068
 BYTE   W06
 BYTE   Fs1  v076
 BYTE   W06
 BYTE   En1  v068
 BYTE   N03  As1  v076
 BYTE   W06
 BYTE   Fs1
 BYTE   W06
 BYTE   Cn1  v068
 BYTE   N03  Fs1  v076
 BYTE   W06
 BYTE   N03
 BYTE   W06
 BYTE   En1  v068
 BYTE   N03  As1  v076
 BYTE   W06
 BYTE   Fs1
 BYTE   W06
 BYTE   Cn1  v068
 BYTE   N03  Fs1  v076
 BYTE   W06
 BYTE   N03
 BYTE   W06
 BYTE   En1  v068
 BYTE   N03  As1  v076
 BYTE   W06
 BYTE   Fs1
 BYTE   W06
 BYTE   Cn1  v068
 BYTE   N03  Fs1  v076
 BYTE   W06
 BYTE   N03
 BYTE   W06
 BYTE   En1  v068
 BYTE   N03  As1  v076
 BYTE   W06
 BYTE   Fs1
 BYTE   W06
 BYTE   PEND 
 BYTE   PATT
  POIN2 InanimateDream_Label_7_014026F1
 BYTE   PATT
  POIN2 InanimateDream_Label_7_0140250A
// 017   ----------------------------------------
InanimateDream_Label_7_0140281D:
 BYTE   N03  Cn1  v068
 BYTE   N03  Fs1  v076
 BYTE   W06
 BYTE   N03
 BYTE   W06
 BYTE   En1  v068
 BYTE   N03  As1  v076
 BYTE   W06
 BYTE   Fs1
 BYTE   W06
 BYTE   Cn1  v068
 BYTE   N03  Fs1  v076
 BYTE   W06
 BYTE   N03
 BYTE   W06
 BYTE   En1  v068
 BYTE   N03  As1  v076
 BYTE   W06
 BYTE   Cn1  v068
 BYTE   N03  Fs1  v076
 BYTE   W06
 BYTE   Cn1  v068
 BYTE   N03  Fs1  v076
 BYTE   W06
 BYTE   N03
 BYTE   W06
 BYTE   En1  v068
 BYTE   N03  As1  v076
 BYTE   W06
 BYTE   Cn1  v068
 BYTE   N03  Fs1  v076
 BYTE   W06
 BYTE   Cn1  v068
 BYTE   N03  Fs1  v076
 BYTE   W06
 BYTE   N03
 BYTE   W06
 BYTE   En1  v068
 BYTE   N03  As1  v076
 BYTE   W06
 BYTE   Cn1  v068
 BYTE   N03  En1
 BYTE   N03  Fs1  v076
 BYTE   W06
 BYTE   PEND 
 BYTE   PATT
  POIN2 InanimateDream_Label_7_0140250A
 BYTE   PATT
  POIN2 InanimateDream_Label_7_014026F1
 BYTE   PATT
  POIN2 InanimateDream_Label_7_0140250A
// 018   ----------------------------------------
 BYTE   N03  Cn1  v068
 BYTE   N03  Fs1  v076
 BYTE   W06
 BYTE   N03
 BYTE   W06
 BYTE   En1  v068
 BYTE   N03  As1  v076
 BYTE   W06
 BYTE   Fs1
 BYTE   W06
 BYTE   Cn1  v068
 BYTE   N03  Fs1  v076
 BYTE   W06
 BYTE   N03
 BYTE   W06
 BYTE   En1  v068
 BYTE   N03  As1  v076
 BYTE   W06
 BYTE   Cn1  v068
 BYTE   N03  Fs1  v076
 BYTE   W06
 BYTE   Cn1  v068
 BYTE   N03  Fs1  v076
 BYTE   W06
 BYTE   N03
 BYTE   W06
 BYTE   En1  v068
 BYTE   N03  As1  v076
 BYTE   W06
 BYTE   Cn1  v068
 BYTE   N03  Fs1  v076
 BYTE   W06
 BYTE   Cn1  v068
 BYTE   N03  En1
 BYTE   N03  Fs1  v076
 BYTE   W06
 BYTE   En1  v068
 BYTE   N03  Fs1  v076
 BYTE   W06
 BYTE   Cn1  v068
 BYTE   N03  En1
 BYTE   N03  As1  v076
 BYTE   W03
 BYTE   Cn1  v068
 BYTE   N03  En1
 BYTE   W03
 BYTE   Cn1
 BYTE   N03  En1
 BYTE   N03  Fs1  v076
 BYTE   W03
 BYTE   Cn1  v068
 BYTE   N03  En1
 BYTE   W03
 BYTE   PATT
  POIN2 InanimateDream_Label_7_014027CD
 BYTE   PATT
  POIN2 InanimateDream_Label_7_014026F1
 BYTE   PATT
  POIN2 InanimateDream_Label_7_0140250A
 BYTE   PATT
  POIN2 InanimateDream_Label_7_0140281D
 BYTE   PATT
  POIN2 InanimateDream_Label_7_0140250A
 BYTE   PATT
  POIN2 InanimateDream_Label_7_014026F1
 BYTE   PATT
  POIN2 InanimateDream_Label_7_0140250A
// 019   ----------------------------------------
 BYTE   N03  Cn1  v068
 BYTE   N03  Fs1  v076
 BYTE   W06
 BYTE   N03
 BYTE   W06
 BYTE   En1  v068
 BYTE   N03  As1  v076
 BYTE   W06
 BYTE   Fs1
 BYTE   W06
 BYTE   Cn1  v068
 BYTE   N03  Fs1  v076
 BYTE   W06
 BYTE   N03
 BYTE   W06
 BYTE   En1  v068
 BYTE   N03  As1  v076
 BYTE   W06
 BYTE   Cn1  v068
 BYTE   N03  Fs1  v076
 BYTE   W06
 BYTE   Cn1  v068
 BYTE   N03  Fs1  v076
 BYTE   W06
 BYTE   N03
 BYTE   W06
 BYTE   En1  v068
 BYTE   N03  As1  v076
 BYTE   W06
 BYTE   Cn1  v068
 BYTE   N03  Fs1  v076
 BYTE   W06
 BYTE   Cn1  v068
 BYTE   N03  En1
 BYTE   N03  Fs1  v076
 BYTE   W06
 BYTE   Cn1  v068
 BYTE   N03  En1
 BYTE   N03  Fs1  v076
 BYTE   W06
 BYTE   Cn1  v068
 BYTE   N03  En1
 BYTE   N03  As1  v076
 BYTE   W03
 BYTE   Cn1  v068
 BYTE   N03  En1
 BYTE   W03
 BYTE   Cn1
 BYTE   N03  En1
 BYTE   N03  Fs1  v076
 BYTE   W03
 BYTE   Cn1  v068
 BYTE   N03  En1
 BYTE   W03
// 020   ----------------------------------------
 BYTE   W12
 BYTE   Cn1
 BYTE   W06
 BYTE   N03
 BYTE   W03
 BYTE   N03
 BYTE   W03
 BYTE   N03
 BYTE   N03  Fs1  v076
 BYTE   W12
 BYTE   Fs1  v052
 BYTE   W12
 BYTE   Fs1  v028
 BYTE   W12
 BYTE   Fs1  v004
 BYTE   W36
// 021   ----------------------------------------
InanimateDream_Label_7_01402976:
 BYTE   W24
 BYTE   N03  Cn1  v068
 BYTE   N03  As1  v076
 BYTE   W48
 BYTE   Bn4  v096
 BYTE   W24
 BYTE   PEND 
// 022   ----------------------------------------
InanimateDream_Label_7_01402982:
 BYTE   W24
 BYTE   N03  Cn1  v068
 BYTE   N03  Fs1  v076
 BYTE   W12
 BYTE   Fs1  v052
 BYTE   W12
 BYTE   Fs1  v028
 BYTE   W12
 BYTE   Fs1  v004
 BYTE   W36
 BYTE   PEND 
 BYTE   PATT
  POIN2 InanimateDream_Label_7_01402976
 BYTE   PATT
  POIN2 InanimateDream_Label_7_01402982
 BYTE   PATT
  POIN2 InanimateDream_Label_7_01402976
 BYTE   PATT
  POIN2 InanimateDream_Label_7_01402982
 BYTE   PATT
  POIN2 InanimateDream_Label_7_01402976
 BYTE   PATT
  POIN2 InanimateDream_Label_7_01402982
 BYTE   PATT
  POIN2 InanimateDream_Label_7_01402976
 BYTE   PATT
  POIN2 InanimateDream_Label_7_01402982
// 023   ----------------------------------------
 BYTE   W24
 BYTE   N03  Fs1  v076
 BYTE   N03  An1  v068
 BYTE   W06
 BYTE   Fs1  v076
 BYTE   N03  An1  v068
 BYTE   W06
 BYTE   Fs1  v076
 BYTE   N03  An1  v068
 BYTE   W06
 BYTE   Fs1  v076
 BYTE   N03  An1  v068
 BYTE   W06
 BYTE   Fs1  v076
 BYTE   N03  Bn1  v068
 BYTE   W03
 BYTE   Fs1  v076
 BYTE   W03
 BYTE   N03
 BYTE   N03  Bn1  v068
 BYTE   W03
 BYTE   Fs1  v076
 BYTE   W03
 BYTE   N03
 BYTE   N03  Bn1  v068
 BYTE   W03
 BYTE   Fs1  v076
 BYTE   W03
 BYTE   N03
 BYTE   N03  Bn1  v068
 BYTE   W03
 BYTE   Fs1  v076
 BYTE   W03
 BYTE   Cn1  v068
 BYTE   N03  En1
 BYTE   N03  Fs1  v076
 BYTE   N03  Cn2  v068
 BYTE   W03
 BYTE   Fs1  v076
 BYTE   W03
 BYTE   Cn1  v068
 BYTE   N03  En1
 BYTE   N03  Fs1  v076
 BYTE   N03  Cn2  v068
 BYTE   W03
 BYTE   Fs1  v076
 BYTE   W03
 BYTE   Cn1  v068
 BYTE   N03  En1
 BYTE   N03  Fs1  v076
 BYTE   N03  Cn2  v068
 BYTE   W03
 BYTE   Fs1  v076
 BYTE   W03
 BYTE   Cn1  v068
 BYTE   N03  En1
 BYTE   N03  Fs1  v076
 BYTE   N03  Cn2  v068
 BYTE   W03
 BYTE   Fs1  v076
 BYTE   W03
// 024   ----------------------------------------
 BYTE   Cn1  v068
 BYTE   N03  En1
 BYTE   N03  Fs1  v076
 BYTE   N03  Bn1  v068
 BYTE   W03
 BYTE   N03
 BYTE   W03
 BYTE   Cn1
 BYTE   N03  En1
 BYTE   N03  Fs1  v076
 BYTE   N03  Bn1  v068
 BYTE   W03
 BYTE   N03
 BYTE   W03
 BYTE   Cn1
 BYTE   N03  En1
 BYTE   N03  Fs1  v076
 BYTE   N03  An1  v068
 BYTE   W03
 BYTE   N03
 BYTE   W03
 BYTE   Cn1
 BYTE   N03  En1
 BYTE   N03  Fs1  v076
 BYTE   N03  Gn1  v068
 BYTE   W03
 BYTE   N03
 BYTE   W03
 BYTE   Cn1
 BYTE   N03  Cs2
 BYTE   W24
 BYTE   Cn1
 BYTE   W24
 BYTE   N03
 BYTE   W24
// 025   ----------------------------------------
InanimateDream_Label_7_01402A68:
 BYTE   N03  Cn1  v068
 BYTE   W24
 BYTE   N03
 BYTE   W24
 BYTE   N03
 BYTE   W24
 BYTE   N03
 BYTE   W24
 BYTE   PEND 
 BYTE   PATT
  POIN2 InanimateDream_Label_7_01402A68
 BYTE   PATT
  POIN2 InanimateDream_Label_7_01402A68
 BYTE   PATT
  POIN2 InanimateDream_Label_7_01402A68
 BYTE   PATT
  POIN2 InanimateDream_Label_7_01402A68
 BYTE   PATT
  POIN2 InanimateDream_Label_7_01402A68
 BYTE   PATT
  POIN2 InanimateDream_Label_7_01402A68
// 026   ----------------------------------------
 BYTE   N03  Cn1  v068
 BYTE   N03  En1
 BYTE   W06
 BYTE   N03
 BYTE   W06
 BYTE   Cn1
 BYTE   N03  En1
 BYTE   W03
 BYTE   Cn1
 BYTE   N03  En1
 BYTE   W03
 BYTE   Cn1
 BYTE   N03  En1
 BYTE   W03
 BYTE   Cn1
 BYTE   N03  En1
 BYTE   W03
 BYTE   Cn1
 BYTE   N03  Fs1  v076
 BYTE   N03  Cs2  v068
 BYTE   W06
 BYTE   Fs1  v076
 BYTE   W06
 BYTE   En1  v068
 BYTE   N03  As1  v076
 BYTE   W06
 BYTE   Fs1
 BYTE   W06
 BYTE   Cn1  v068
 BYTE   N03  Fs1  v076
 BYTE   W06
 BYTE   N03
 BYTE   W06
 BYTE   En1  v068
 BYTE   N03  As1  v076
 BYTE   W06
 BYTE   Fs1
 BYTE   W06
 BYTE   Cn1  v068
 BYTE   N03  Fs1  v076
 BYTE   W06
 BYTE   N03
 BYTE   W06
 BYTE   En1  v068
 BYTE   N03  As1  v076
 BYTE   W06
 BYTE   Fs1
 BYTE   W06
// 027   ----------------------------------------
InanimateDream_Label_7_01402ADC:
 BYTE   N03  Cn1  v068
 BYTE   N03  Fs1  v076
 BYTE   W06
 BYTE   N03
 BYTE   W06
 BYTE   En1  v068
 BYTE   N03  As1  v076
 BYTE   W06
 BYTE   Fs1
 BYTE   W06
 BYTE   Cn1  v068
 BYTE   N03  Fs1  v076
 BYTE   W06
 BYTE   N03
 BYTE   W06
 BYTE   En1  v068
 BYTE   N03  As1  v076
 BYTE   W06
 BYTE   Fs1
 BYTE   W06
 BYTE   Cn1  v068
 BYTE   N03  Fs1  v076
 BYTE   W06
 BYTE   N03
 BYTE   W06
 BYTE   En1  v068
 BYTE   N03  As1  v076
 BYTE   W06
 BYTE   Cn1  v068
 BYTE   N03  Fs1  v076
 BYTE   W06
 BYTE   Cn1  v068
 BYTE   N03  Fs1  v076
 BYTE   W06
 BYTE   N03
 BYTE   W06
 BYTE   En1  v068
 BYTE   N03  As1  v076
 BYTE   W06
 BYTE   Cn1  v068
 BYTE   N03  Fs1  v076
 BYTE   W06
 BYTE   PEND 
// 028   ----------------------------------------
InanimateDream_Label_7_01402B26:
 BYTE   N03  Cn1  v068
 BYTE   N03  Fs1  v076
 BYTE   W06
 BYTE   N03
 BYTE   W06
 BYTE   En1  v068
 BYTE   N03  As1  v076
 BYTE   W06
 BYTE   Cn1  v068
 BYTE   N03  Fs1  v076
 BYTE   W06
 BYTE   Cn1  v068
 BYTE   N03  Fs1  v076
 BYTE   W06
 BYTE   N03
 BYTE   W06
 BYTE   En1  v068
 BYTE   N03  As1  v076
 BYTE   W06
 BYTE   Fs1
 BYTE   W06
 BYTE   Cn1  v068
 BYTE   N03  Fs1  v076
 BYTE   W06
 BYTE   N03
 BYTE   W06
 BYTE   En1  v068
 BYTE   N03  As1  v076
 BYTE   W06
 BYTE   Fs1
 BYTE   W06
 BYTE   Cn1  v068
 BYTE   N03  Fs1  v076
 BYTE   W06
 BYTE   N03
 BYTE   W06
 BYTE   En1  v068
 BYTE   N03  As1  v076
 BYTE   W06
 BYTE   Fs1
 BYTE   W06
 BYTE   PEND 
 BYTE   PATT
  POIN2 InanimateDream_Label_7_01402ADC
// 029   ----------------------------------------
InanimateDream_Label_7_01402B71:
 BYTE   N03  Cn1  v068
 BYTE   N03  Fs1  v076
 BYTE   W06
 BYTE   N03
 BYTE   W06
 BYTE   En1  v068
 BYTE   N03  As1  v076
 BYTE   W06
 BYTE   Cn1  v068
 BYTE   N03  En1
 BYTE   N03  Fs1  v076
 BYTE   W06
 BYTE   Cn1  v068
 BYTE   N03  Fs1  v076
 BYTE   W06
 BYTE   N03
 BYTE   W06
 BYTE   En1  v068
 BYTE   N03  As1  v076
 BYTE   W06
 BYTE   Fs1
 BYTE   W06
 BYTE   Cn1  v068
 BYTE   N03  Fs1  v076
 BYTE   W06
 BYTE   N03
 BYTE   W06
 BYTE   En1  v068
 BYTE   N03  As1  v076
 BYTE   W06
 BYTE   Fs1
 BYTE   W06
 BYTE   Cn1  v068
 BYTE   N03  Fs1  v076
 BYTE   W06
 BYTE   N03
 BYTE   W06
 BYTE   En1  v068
 BYTE   N03  As1  v076
 BYTE   W06
 BYTE   Fs1
 BYTE   W06
 BYTE   PEND 
 BYTE   PATT
  POIN2 InanimateDream_Label_7_01402ADC
 BYTE   PATT
  POIN2 InanimateDream_Label_7_01402B26
// 030   ----------------------------------------
 BYTE   N03  Cn1  v068
 BYTE   N03  Fs1  v076
 BYTE   W06
 BYTE   N03
 BYTE   W06
 BYTE   En1  v068
 BYTE   N03  As1  v076
 BYTE   W06
 BYTE   Fs1
 BYTE   W06
 BYTE   En1  v068
 BYTE   N03  Cs2
 BYTE   W06
 BYTE   Cn1
 BYTE   W06
 BYTE   N03
 BYTE   W06
 BYTE   N03
 BYTE   W06
 BYTE   En1
 BYTE   N03  Cs2
 BYTE   W06
 BYTE   Cn1
 BYTE   W06
 BYTE   N03
 BYTE   W06
 BYTE   N03
 BYTE   W06
 BYTE   En1
 BYTE   N03  Cs2
 BYTE   W06
 BYTE   Cn1
 BYTE   W06
 BYTE   N03
 BYTE   W06
 BYTE   N03
 BYTE   W06
// 031   ----------------------------------------
InanimateDream_Label_7_01402BF3:
 BYTE   N03  Cn1  v068
 BYTE   N03  En1
 BYTE   N03  Cs2
 BYTE   W06
 BYTE   Cn1
 BYTE   N03  En1
 BYTE   W06
 BYTE   Cn1
 BYTE   N03  En1
 BYTE   W03
 BYTE   Cn1
 BYTE   N03  En1
 BYTE   W03
 BYTE   Cn1
 BYTE   N03  En1
 BYTE   W03
 BYTE   Cn1
 BYTE   N03  En1
 BYTE   W03
 BYTE   Cn1
 BYTE   N03  Fs1  v076
 BYTE   N03  Cs2  v068
 BYTE   W06
 BYTE   Fs1  v076
 BYTE   W06
 BYTE   En1  v068
 BYTE   N03  As1  v076
 BYTE   W06
 BYTE   Fs1
 BYTE   W06
 BYTE   Cn1  v068
 BYTE   N03  Fs1  v076
 BYTE   W06
 BYTE   N03
 BYTE   W06
 BYTE   En1  v068
 BYTE   N03  As1  v076
 BYTE   W06
 BYTE   Fs1
 BYTE   W06
 BYTE   Cn1  v068
 BYTE   N03  Fs1  v076
 BYTE   W06
 BYTE   N03
 BYTE   W06
 BYTE   En1  v068
 BYTE   N03  As1  v076
 BYTE   W06
 BYTE   Fs1
 BYTE   W06
 BYTE   PEND 
 BYTE   PATT
  POIN2 InanimateDream_Label_7_01402ADC
 BYTE   PATT
  POIN2 InanimateDream_Label_7_01402B26
 BYTE   PATT
  POIN2 InanimateDream_Label_7_01402ADC
 BYTE   PATT
  POIN2 InanimateDream_Label_7_01402B71
 BYTE   PATT
  POIN2 InanimateDream_Label_7_01402ADC
 BYTE   PATT
  POIN2 InanimateDream_Label_7_01402B26
 BYTE   PATT
  POIN2 InanimateDream_Label_7_01402ADC
// 032   ----------------------------------------
 BYTE   N03  Cn1  v068
 BYTE   N03  En1
 BYTE   N03  Fs1  v076
 BYTE   W06
 BYTE   Cn1  v068
 BYTE   N03  En1
 BYTE   N03  Fs1  v076
 BYTE   W06
 BYTE   Cn1  v068
 BYTE   N03  En1
 BYTE   N03  As1  v076
 BYTE   W03
 BYTE   Cn1  v068
 BYTE   N03  En1
 BYTE   W03
 BYTE   Cn1
 BYTE   N03  En1
 BYTE   N03  Fs1  v076
 BYTE   W03
 BYTE   Cn1  v068
 BYTE   N03  En1
 BYTE   W03
 BYTE   Cn1
 BYTE   N03  Fs1  v076
 BYTE   N03  Cs2  v068
 BYTE   W06
 BYTE   Fs1  v076
 BYTE   W06
 BYTE   En1  v068
 BYTE   N03  As1  v076
 BYTE   W06
 BYTE   Fs1
 BYTE   W06
 BYTE   Cn1  v068
 BYTE   N03  Fs1  v076
 BYTE   W06
 BYTE   N03
 BYTE   W06
 BYTE   En1  v068
 BYTE   N03  As1  v076
 BYTE   W06
 BYTE   Fs1
 BYTE   W06
 BYTE   Cn1  v068
 BYTE   N03  Fs1  v076
 BYTE   W06
 BYTE   N03
 BYTE   W06
 BYTE   En1  v068
 BYTE   N03  As1  v076
 BYTE   W06
 BYTE   Fs1
 BYTE   W06
 BYTE   PATT
  POIN2 InanimateDream_Label_7_01402ADC
 BYTE   PATT
  POIN2 InanimateDream_Label_7_01402B26
 BYTE   PATT
  POIN2 InanimateDream_Label_7_01402ADC
 BYTE   PATT
  POIN2 InanimateDream_Label_7_01402B71
 BYTE   PATT
  POIN2 InanimateDream_Label_7_01402ADC
 BYTE   PATT
  POIN2 InanimateDream_Label_7_01402B26
// 033   ----------------------------------------
 BYTE   N03  Cn1  v068
 BYTE   N03  Fs1  v076
 BYTE   W06
 BYTE   N03
 BYTE   W06
 BYTE   En1  v068
 BYTE   N03  As1  v076
 BYTE   W06
 BYTE   Fs1
 BYTE   W06
 BYTE   En1  v068
 BYTE   N03  Cs2
 BYTE   W06
 BYTE   Cn1
 BYTE   W06
 BYTE   N03
 BYTE   W06
 BYTE   En1
 BYTE   N03  Cs2
 BYTE   W06
 BYTE   Cn1
 BYTE   W06
 BYTE   N03
 BYTE   W06
 BYTE   En1
 BYTE   N03  Cs2
 BYTE   W06
 BYTE   Cn1
 BYTE   W06
 BYTE   En1
 BYTE   N03  Cs2
 BYTE   W06
 BYTE   Cn1
 BYTE   W06
 BYTE   N03
 BYTE   W06
 BYTE   N03
 BYTE   W06
 BYTE   PATT
  POIN2 InanimateDream_Label_7_01402BF3
 BYTE   PATT
  POIN2 InanimateDream_Label_7_0140250A
 BYTE   PATT
  POIN2 InanimateDream_Label_7_0140250A
 BYTE   PATT
  POIN2 InanimateDream_Label_7_0140250A
 BYTE   PATT
  POIN2 InanimateDream_Label_7_0140250A
 BYTE   PATT
  POIN2 InanimateDream_Label_7_0140250A
 BYTE   PATT
  POIN2 InanimateDream_Label_7_0140250A
 BYTE   PATT
  POIN2 InanimateDream_Label_7_0140250A
 BYTE   PATT
  POIN2 InanimateDream_Label_7_0140250A
 BYTE   PATT
  POIN2 InanimateDream_Label_7_0140250A
 BYTE   PATT
  POIN2 InanimateDream_Label_7_0140250A
// 034   ----------------------------------------
 BYTE   N03  Cn1  v068
 BYTE   N03  Fs1  v076
 BYTE   W06
 BYTE   N03
 BYTE   W06
 BYTE   En1  v068
 BYTE   N03  As1  v076
 BYTE   W06
 BYTE   Fs1
 BYTE   W06
 BYTE   Cn1  v068
 BYTE   N03  En1
 BYTE   N03  Bn1
 BYTE   W06
 BYTE   N03
 BYTE   W06
 BYTE   N03
 BYTE   W06
 BYTE   N03
 BYTE   W06
 BYTE   Cn1
 BYTE   N03  En1
 BYTE   N03  An1
 BYTE   W03
 BYTE   N03
 BYTE   W03
 BYTE   Cn1
 BYTE   N03  En1
 BYTE   N03  An1
 BYTE   W03
 BYTE   N03
 BYTE   W03
 BYTE   Cn1
 BYTE   N03  En1
 BYTE   N03  Gn1
 BYTE   W03
 BYTE   N03
 BYTE   W03
 BYTE   GoTo
  POIN2 InanimateDream_Label_7_014024B2
// 035   ----------------------------------------
 BYTE   N03  Cn1  v068
 BYTE   N03  En1
 BYTE   N03  Fn1
 BYTE   W03
 BYTE   FINE

//**************** Track 9 (Midi-Chn.8) ****************//

InanimateDream_009:
// 000   ----------------------------------------
 BYTE   KEYSH   InanimateDream_key+0
InanimateDream_Label_8_01402D92:
 BYTE   VOICE   0
 BYTE   PAN   c_v+0
 BYTE   VOL   54*InanimateDream_mvl/mxv
 BYTE   BEND   c_v-64
 BYTE   W96
// 001   ----------------------------------------
 BYTE   W96
// 002   ----------------------------------------
 BYTE   W96
// 003   ----------------------------------------
 BYTE   W96
// 004   ----------------------------------------
 BYTE   W96
// 005   ----------------------------------------
 BYTE   W96
// 006   ----------------------------------------
 BYTE   W96
// 007   ----------------------------------------
 BYTE   W96
// 008   ----------------------------------------
 BYTE   W96
// 009   ----------------------------------------
 BYTE   W96
// 010   ----------------------------------------
 BYTE   W96
// 011   ----------------------------------------
 BYTE   N03  Cs2  v112
 BYTE   N03  En2
 BYTE   W96
// 012   ----------------------------------------
 BYTE   W96
// 013   ----------------------------------------
 BYTE   W96
// 014   ----------------------------------------
 BYTE   W96
// 015   ----------------------------------------
 BYTE   W96
// 016   ----------------------------------------
 BYTE   W96
// 017   ----------------------------------------
 BYTE   W96
// 018   ----------------------------------------
 BYTE   W96
// 019   ----------------------------------------
 BYTE   W96
// 020   ----------------------------------------
 BYTE   W96
// 021   ----------------------------------------
 BYTE   W96
// 022   ----------------------------------------
 BYTE   W96
// 023   ----------------------------------------
 BYTE   W96
// 024   ----------------------------------------
 BYTE   W96
// 025   ----------------------------------------
 BYTE   W96
// 026   ----------------------------------------
 BYTE   W96
// 027   ----------------------------------------
 BYTE   W96
// 028   ----------------------------------------
 BYTE   W96
// 029   ----------------------------------------
 BYTE   W96
// 030   ----------------------------------------
 BYTE   W96
// 031   ----------------------------------------
 BYTE   W96
// 032   ----------------------------------------
 BYTE   W96
// 033   ----------------------------------------
 BYTE   W96
// 034   ----------------------------------------
 BYTE   W96
// 035   ----------------------------------------
 BYTE   W48
 BYTE   Cs2
 BYTE   N03  En2
 BYTE   W48
// 036   ----------------------------------------
 BYTE   W96
// 037   ----------------------------------------
 BYTE   W96
// 038   ----------------------------------------
 BYTE   W96
// 039   ----------------------------------------
 BYTE   W96
// 040   ----------------------------------------
 BYTE   W96
// 041   ----------------------------------------
 BYTE   W96
// 042   ----------------------------------------
 BYTE   W96
// 043   ----------------------------------------
 BYTE   W96
// 044   ----------------------------------------
InanimateDream_Label_8_01402DCF:
 BYTE   W72
 BYTE   N03  Cs2  v112
 BYTE   N03  En2
 BYTE   W24
 BYTE   PEND 
// 045   ----------------------------------------
 BYTE   W96
 BYTE   PATT
  POIN2 InanimateDream_Label_8_01402DCF
// 046   ----------------------------------------
 BYTE   W96
 BYTE   PATT
  POIN2 InanimateDream_Label_8_01402DCF
// 047   ----------------------------------------
 BYTE   W96
 BYTE   PATT
  POIN2 InanimateDream_Label_8_01402DCF
// 048   ----------------------------------------
 BYTE   W96
 BYTE   PATT
  POIN2 InanimateDream_Label_8_01402DCF
// 049   ----------------------------------------
 BYTE   W96
 BYTE   PATT
  POIN2 InanimateDream_Label_8_01402DCF
// 050   ----------------------------------------
 BYTE   W96
// 051   ----------------------------------------
 BYTE   W96
// 052   ----------------------------------------
 BYTE   W96
// 053   ----------------------------------------
 BYTE   W96
// 054   ----------------------------------------
 BYTE   W96
// 055   ----------------------------------------
 BYTE   W96
// 056   ----------------------------------------
 BYTE   W96
// 057   ----------------------------------------
 BYTE   W96
// 058   ----------------------------------------
 BYTE   W96
// 059   ----------------------------------------
 BYTE   W96
// 060   ----------------------------------------
 BYTE   W96
// 061   ----------------------------------------
 BYTE   W96
// 062   ----------------------------------------
 BYTE   W96
// 063   ----------------------------------------
 BYTE   W96
// 064   ----------------------------------------
 BYTE   W96
// 065   ----------------------------------------
 BYTE   W96
// 066   ----------------------------------------
 BYTE   W96
// 067   ----------------------------------------
 BYTE   W96
// 068   ----------------------------------------
 BYTE   W96
// 069   ----------------------------------------
 BYTE   W96
// 070   ----------------------------------------
 BYTE   W96
// 071   ----------------------------------------
 BYTE   W96
// 072   ----------------------------------------
 BYTE   W96
// 073   ----------------------------------------
 BYTE   W96
// 074   ----------------------------------------
 BYTE   W96
// 075   ----------------------------------------
 BYTE   W96
// 076   ----------------------------------------
 BYTE   W96
// 077   ----------------------------------------
 BYTE   W96
// 078   ----------------------------------------
 BYTE   W96
// 079   ----------------------------------------
 BYTE   W96
// 080   ----------------------------------------
 BYTE   W96
// 081   ----------------------------------------
 BYTE   W96
// 082   ----------------------------------------
 BYTE   W96
// 083   ----------------------------------------
 BYTE   W96
// 084   ----------------------------------------
 BYTE   W96
// 085   ----------------------------------------
 BYTE   W96
// 086   ----------------------------------------
 BYTE   W96
// 087   ----------------------------------------
 BYTE   W96
// 088   ----------------------------------------
 BYTE   W96
// 089   ----------------------------------------
 BYTE   W96
// 090   ----------------------------------------
 BYTE   W96
// 091   ----------------------------------------
 BYTE   W96
// 092   ----------------------------------------
 BYTE   W96
// 093   ----------------------------------------
 BYTE   W96
// 094   ----------------------------------------
 BYTE   W66
 BYTE   GoTo
  POIN2 InanimateDream_Label_8_01402D92
// 095   ----------------------------------------
 BYTE   W03
 BYTE   FINE

//**************** Track 10 (Midi-Chn.9) ****************//

InanimateDream_010:
// 000   ----------------------------------------
 BYTE   KEYSH   InanimateDream_key+0
InanimateDream_Label_9_01402E2E:
 BYTE   VOICE   56
 BYTE   PAN   c_v+6
 BYTE   VOL   54*InanimateDream_mvl/mxv
 BYTE   W96
// 001   ----------------------------------------
 BYTE   W96
// 002   ----------------------------------------
 BYTE   W96
// 003   ----------------------------------------
 BYTE   W96
// 004   ----------------------------------------
 BYTE   W96
// 005   ----------------------------------------
 BYTE   W96
// 006   ----------------------------------------
 BYTE   W96
// 007   ----------------------------------------
 BYTE   W96
// 008   ----------------------------------------
 BYTE   W96
// 009   ----------------------------------------
 BYTE   W96
// 010   ----------------------------------------
 BYTE   W96
// 011   ----------------------------------------
 BYTE   W96
// 012   ----------------------------------------
 BYTE   W96
// 013   ----------------------------------------
 BYTE   W96
// 014   ----------------------------------------
 BYTE   W96
// 015   ----------------------------------------
 BYTE   W96
// 016   ----------------------------------------
 BYTE   W96
// 017   ----------------------------------------
 BYTE   W96
// 018   ----------------------------------------
 BYTE   W96
// 019   ----------------------------------------
 BYTE   W96
// 020   ----------------------------------------
 BYTE   W96
// 021   ----------------------------------------
 BYTE   W96
// 022   ----------------------------------------
 BYTE   W96
// 023   ----------------------------------------
 BYTE   W96
// 024   ----------------------------------------
 BYTE   W96
// 025   ----------------------------------------
 BYTE   W96
// 026   ----------------------------------------
 BYTE   W96
// 027   ----------------------------------------
 BYTE   W96
// 028   ----------------------------------------
InanimateDream_Label_9_01402E50:
 BYTE   W12
 BYTE   N12  Gn4  v112
 BYTE   W12
 BYTE   An4
 BYTE   W12
 BYTE   Bn4
 BYTE   W12
 BYTE   N18  As4
 BYTE   W18
 BYTE   Bn4
 BYTE   W18
 BYTE   N12  Cs5
 BYTE   W12
 BYTE   PEND 
// 029   ----------------------------------------
InanimateDream_Label_9_01402E62:
 BYTE   N18  Dn5  v112
 BYTE   W18
 BYTE   Cs5
 BYTE   W18
 BYTE   N12  Bn4
 BYTE   W12
 BYTE   N48
 BYTE   W48
 BYTE   PEND 
// 030   ----------------------------------------
 BYTE   W12
 BYTE   N12  Gn4
 BYTE   W12
 BYTE   An4
 BYTE   W12
 BYTE   Bn4
 BYTE   W12
 BYTE   N18  As4
 BYTE   W18
 BYTE   Cs5
 BYTE   W18
 BYTE   N12  Fs5
 BYTE   W12
// 031   ----------------------------------------
 BYTE   N96  Dn5
 BYTE   W96
 BYTE   PATT
  POIN2 InanimateDream_Label_9_01402E50
// 032   ----------------------------------------
 BYTE   N18  Dn5  v112
 BYTE   W18
 BYTE   Cs5
 BYTE   W18
 BYTE   N12  Bn4
 BYTE   W12
 BYTE   N18  Fs4
 BYTE   W18
 BYTE   En4
 BYTE   W18
 BYTE   N12  Dn4
 BYTE   W12
// 033   ----------------------------------------
 BYTE   W12
 BYTE   Gn4
 BYTE   W12
 BYTE   An4
 BYTE   W12
 BYTE   Bn4
 BYTE   W12
 BYTE   N18  Cs5
 BYTE   W18
 BYTE   Fs5
 BYTE   W18
 BYTE   N12  En5
 BYTE   W12
 BYTE   PATT
  POIN2 InanimateDream_Label_9_01402E62
// 034   ----------------------------------------
InanimateDream_Label_9_01402EAB:
 BYTE   W12
 BYTE   N12  Bn4  v112
 BYTE   W12
 BYTE   Cs5
 BYTE   W12
 BYTE   Dn5
 BYTE   W12
 BYTE   N18  Cs5
 BYTE   W18
 BYTE   Dn5
 BYTE   W18
 BYTE   N12  En5
 BYTE   W12
 BYTE   PEND 
// 035   ----------------------------------------
 BYTE   N18  Fs5
 BYTE   W18
 BYTE   En5
 BYTE   W18
 BYTE   N12  Dn5
 BYTE   W12
 BYTE   N48
 BYTE   W48
 BYTE   PATT
  POIN2 InanimateDream_Label_9_01402EAB
// 036   ----------------------------------------
 BYTE   N96  Fs5  v112
 BYTE   W96
 BYTE   PATT
  POIN2 InanimateDream_Label_9_01402EAB
// 037   ----------------------------------------
 BYTE   N18  Fs5  v112
 BYTE   W18
 BYTE   En5
 BYTE   W18
 BYTE   N12  Dn5
 BYTE   W12
 BYTE   N18
 BYTE   W18
 BYTE   Cs5
 BYTE   W18
 BYTE   N12  Bn4
 BYTE   W12
// 038   ----------------------------------------
 BYTE   W12
 BYTE   N12
 BYTE   W12
 BYTE   Cs5
 BYTE   W12
 BYTE   Dn5
 BYTE   W12
 BYTE   N18  En5
 BYTE   W18
 BYTE   As5
 BYTE   W18
 BYTE   N12
 BYTE   W12
// 039   ----------------------------------------
 BYTE   N18  Bn5
 BYTE   W18
 BYTE   Fs5
 BYTE   W18
 BYTE   N12  En5
 BYTE   W12
 BYTE   N18  Dn5
 BYTE   W18
 BYTE   En5
 BYTE   W18
 BYTE   N12
 BYTE   W12
// 040   ----------------------------------------
 BYTE   W96
// 041   ----------------------------------------
 BYTE   W96
// 042   ----------------------------------------
 BYTE   W96
// 043   ----------------------------------------
 BYTE   W96
// 044   ----------------------------------------
 BYTE   W96
// 045   ----------------------------------------
 BYTE   W96
// 046   ----------------------------------------
 BYTE   W96
// 047   ----------------------------------------
 BYTE   W96
// 048   ----------------------------------------
 BYTE   W96
// 049   ----------------------------------------
 BYTE   W96
// 050   ----------------------------------------
 BYTE   W96
// 051   ----------------------------------------
 BYTE   W96
// 052   ----------------------------------------
InanimateDream_Label_9_01402F0E:
 BYTE   W36
 BYTE   N12  Fs4  v112
 BYTE   W12
 BYTE   Gs4
 BYTE   W12
 BYTE   As4
 BYTE   W12
 BYTE   N18  An4
 BYTE   W18
 BYTE   As4
 BYTE   W06
 BYTE   PEND 
// 053   ----------------------------------------
 BYTE   W12
 BYTE   N12  Cn5
 BYTE   W12
 BYTE   N18  Cs5
 BYTE   W18
 BYTE   Cn5
 BYTE   W18
 BYTE   N12  As4
 BYTE   W12
 BYTE   N48
 BYTE   W24
// 054   ----------------------------------------
 BYTE   W36
 BYTE   N12  Fs4
 BYTE   W12
 BYTE   Gs4
 BYTE   W12
 BYTE   As4
 BYTE   W12
 BYTE   N18  An4
 BYTE   W18
 BYTE   Cn5
 BYTE   W06
// 055   ----------------------------------------
 BYTE   W12
 BYTE   N12  Fn5
 BYTE   W12
 BYTE   N96  Cs5
 BYTE   W72
 BYTE   PATT
  POIN2 InanimateDream_Label_9_01402F0E
// 056   ----------------------------------------
 BYTE   W12
 BYTE   N12  Cn5  v112
 BYTE   W12
 BYTE   N18  Cs5
 BYTE   W18
 BYTE   Cn5
 BYTE   W18
 BYTE   N12  As4
 BYTE   W12
 BYTE   N18  Fn4
 BYTE   W18
 BYTE   Ds4
 BYTE   W06
// 057   ----------------------------------------
 BYTE   W12
 BYTE   N12  Cs4
 BYTE   W24
 BYTE   Fs4
 BYTE   W12
 BYTE   Gs4
 BYTE   W12
 BYTE   As4
 BYTE   W12
 BYTE   N18  Cn5
 BYTE   W18
 BYTE   Fn5
 BYTE   W06
// 058   ----------------------------------------
 BYTE   W12
 BYTE   N12  Ds5
 BYTE   W12
 BYTE   N18  Cs5
 BYTE   W18
 BYTE   Cn5
 BYTE   W18
 BYTE   N12  As4
 BYTE   W12
 BYTE   N48
 BYTE   W24
// 059   ----------------------------------------
InanimateDream_Label_9_01402F73:
 BYTE   W36
 BYTE   N12  As4  v112
 BYTE   W12
 BYTE   Cn5
 BYTE   W12
 BYTE   Cs5
 BYTE   W12
 BYTE   N18  Cn5
 BYTE   W18
 BYTE   Cs5
 BYTE   W06
 BYTE   PEND 
// 060   ----------------------------------------
 BYTE   W12
 BYTE   N12  Ds5
 BYTE   W12
 BYTE   N18  Fn5
 BYTE   W18
 BYTE   Ds5
 BYTE   W18
 BYTE   N12  Cs5
 BYTE   W12
 BYTE   N48
 BYTE   W24
 BYTE   PATT
  POIN2 InanimateDream_Label_9_01402F73
// 061   ----------------------------------------
 BYTE   W12
 BYTE   N12  Ds5  v112
 BYTE   W12
 BYTE   N96  Fn5
 BYTE   W72
 BYTE   PATT
  POIN2 InanimateDream_Label_9_01402F73
// 062   ----------------------------------------
 BYTE   W12
 BYTE   N12  Ds5  v112
 BYTE   W12
 BYTE   N18  Fn5
 BYTE   W18
 BYTE   Ds5
 BYTE   W18
 BYTE   N12  Cs5
 BYTE   W12
 BYTE   N18
 BYTE   W18
 BYTE   Cn5
 BYTE   W06
// 063   ----------------------------------------
 BYTE   W12
 BYTE   N12  As4
 BYTE   W24
 BYTE   N12
 BYTE   W12
 BYTE   Cn5
 BYTE   W12
 BYTE   Cs5
 BYTE   W12
 BYTE   N18  Ds5
 BYTE   W18
 BYTE   An5
 BYTE   W06
// 064   ----------------------------------------
 BYTE   W12
 BYTE   N12
 BYTE   W12
 BYTE   N18  As5
 BYTE   W18
 BYTE   Fn5
 BYTE   W18
 BYTE   N12  Ds5
 BYTE   W12
 BYTE   N18  Cs5
 BYTE   W18
 BYTE   N30  Ds5
 BYTE   W06
// 065   ----------------------------------------
InanimateDream_Label_9_01402FD3:
 BYTE   W36
 BYTE   N12  As4  v112
 BYTE   W12
 BYTE   Cn5
 BYTE   W12
 BYTE   Dn5
 BYTE   W12
 BYTE   N18  Cs5
 BYTE   W18
 BYTE   Dn5
 BYTE   W06
 BYTE   PEND 
// 066   ----------------------------------------
 BYTE   W12
 BYTE   N12  En5
 BYTE   W12
 BYTE   N18  Fn5
 BYTE   W18
 BYTE   En5
 BYTE   W18
 BYTE   N12  Dn5
 BYTE   W12
 BYTE   N48
 BYTE   W24
// 067   ----------------------------------------
 BYTE   W36
 BYTE   N12  As4
 BYTE   W12
 BYTE   Cn5
 BYTE   W12
 BYTE   Dn5
 BYTE   W12
 BYTE   N18  Cs5
 BYTE   W18
 BYTE   En5
 BYTE   W06
// 068   ----------------------------------------
 BYTE   W12
 BYTE   N12  An5
 BYTE   W12
 BYTE   N96  Fn5
 BYTE   W72
 BYTE   PATT
  POIN2 InanimateDream_Label_9_01402FD3
// 069   ----------------------------------------
 BYTE   W12
 BYTE   N12  En5  v112
 BYTE   W12
 BYTE   N18  Fn5
 BYTE   W18
 BYTE   En5
 BYTE   W18
 BYTE   N12  Dn5
 BYTE   W12
 BYTE   N18  An4
 BYTE   W18
 BYTE   Gn4
 BYTE   W06
// 070   ----------------------------------------
 BYTE   W12
 BYTE   N12  Fn4
 BYTE   W24
 BYTE   As4
 BYTE   W12
 BYTE   Cn5
 BYTE   W12
 BYTE   Dn5
 BYTE   W12
 BYTE   N18  En5
 BYTE   W18
 BYTE   An5
 BYTE   W06
// 071   ----------------------------------------
 BYTE   W12
 BYTE   N12  Gn5
 BYTE   W12
 BYTE   N18  Fn5
 BYTE   W18
 BYTE   En5
 BYTE   W18
 BYTE   N12  Dn5
 BYTE   W12
 BYTE   N48
 BYTE   W24
// 072   ----------------------------------------
InanimateDream_Label_9_01403038:
 BYTE   W36
 BYTE   N12  Dn5  v112
 BYTE   W12
 BYTE   En5
 BYTE   W12
 BYTE   Fn5
 BYTE   W12
 BYTE   N18  En5
 BYTE   W18
 BYTE   Fn5
 BYTE   W06
 BYTE   PEND 
// 073   ----------------------------------------
 BYTE   W12
 BYTE   N12  Gn5
 BYTE   W12
 BYTE   N18  An5
 BYTE   W18
 BYTE   Gn5
 BYTE   W18
 BYTE   N12  Fn5
 BYTE   W12
 BYTE   N48
 BYTE   W24
 BYTE   PATT
  POIN2 InanimateDream_Label_9_01403038
// 074   ----------------------------------------
 BYTE   W12
 BYTE   N12  Gn5  v112
 BYTE   W12
 BYTE   N96  An5
 BYTE   W72
 BYTE   PATT
  POIN2 InanimateDream_Label_9_01403038
// 075   ----------------------------------------
 BYTE   W12
 BYTE   N12  Gn5  v112
 BYTE   W12
 BYTE   N18  An5
 BYTE   W18
 BYTE   Gn5
 BYTE   W18
 BYTE   N12  Fn5
 BYTE   W12
 BYTE   N18
 BYTE   W18
 BYTE   En5
 BYTE   W06
// 076   ----------------------------------------
 BYTE   W12
 BYTE   N12  Dn5
 BYTE   W24
 BYTE   N12
 BYTE   W12
 BYTE   En5
 BYTE   W12
 BYTE   Fn5
 BYTE   W12
 BYTE   N18  Gn5
 BYTE   W18
 BYTE   Cs6
 BYTE   W06
// 077   ----------------------------------------
 BYTE   W12
 BYTE   N12
 BYTE   W12
 BYTE   N18  Dn6
 BYTE   W18
 BYTE   An5
 BYTE   W18
 BYTE   N12  Gn5
 BYTE   W12
 BYTE   N18  Fn5
 BYTE   W18
 BYTE   N30  Gn5
 BYTE   W06
// 078   ----------------------------------------
 BYTE   W96
// 079   ----------------------------------------
 BYTE   W96
// 080   ----------------------------------------
 BYTE   W96
// 081   ----------------------------------------
 BYTE   W96
// 082   ----------------------------------------
 BYTE   W96
// 083   ----------------------------------------
 BYTE   W96
// 084   ----------------------------------------
 BYTE   W96
// 085   ----------------------------------------
 BYTE   W96
// 086   ----------------------------------------
 BYTE   W96
// 087   ----------------------------------------
 BYTE   W96
// 088   ----------------------------------------
 BYTE   W96
// 089   ----------------------------------------
 BYTE   W66
 BYTE   GoTo
  POIN2 InanimateDream_Label_9_01402E2E
// 090   ----------------------------------------
 BYTE   W03
 BYTE   FINE

//**************** Track 11 (Midi-Chn.10) ****************//

InanimateDream_011:
// 000   ----------------------------------------
 BYTE   KEYSH   InanimateDream_key+0
InanimateDream_Label_10_014030AE:
 BYTE   VOICE   0
 BYTE   PAN   c_v+0
 BYTE   VOL   54*InanimateDream_mvl/mxv
 BYTE   W96
// 001   ----------------------------------------
 BYTE   W96
// 002   ----------------------------------------
 BYTE   W96
// 003   ----------------------------------------
 BYTE   W96
// 004   ----------------------------------------
InanimateDream_Label_10_014030B8:
 BYTE   N06  Bn4  v112
 BYTE   W06
 BYTE   Ds4
 BYTE   W06
 BYTE   As4
 BYTE   W06
 BYTE   Ds4
 BYTE   W06
 BYTE   Gs4
 BYTE   W06
 BYTE   Cs4
 BYTE   W06
 BYTE   Ds4
 BYTE   W06
 BYTE   Gs3
 BYTE   W06
 BYTE   As4
 BYTE   W06
 BYTE   Ds4
 BYTE   W06
 BYTE   Gs4
 BYTE   W06
 BYTE   Ds4
 BYTE   W06
 BYTE   Gn4
 BYTE   W06
 BYTE   Ds4
 BYTE   W06
 BYTE   N18  Bn3
 BYTE   W12
 BYTE   PEND 
// 005   ----------------------------------------
InanimateDream_Label_10_014030DA:
 BYTE   W06
 BYTE   N06  Ds3  v112
 BYTE   W06
 BYTE   As3
 BYTE   W06
 BYTE   Ds3
 BYTE   W06
 BYTE   Gs3
 BYTE   W06
 BYTE   Cs3
 BYTE   W06
 BYTE   Ds3
 BYTE   W06
 BYTE   Gs2
 BYTE   W06
 BYTE   Cs4
 BYTE   W06
 BYTE   Ds3
 BYTE   W06
 BYTE   Bn3
 BYTE   W06
 BYTE   Ds3
 BYTE   W06
 BYTE   As3
 BYTE   W06
 BYTE   Cs3
 BYTE   W06
 BYTE   Ds3
 BYTE   W06
 BYTE   As2
 BYTE   W06
 BYTE   PEND 
// 006   ----------------------------------------
 BYTE   Bn2
 BYTE   W06
 BYTE   Ds2
 BYTE   W06
 BYTE   As2
 BYTE   W06
 BYTE   Ds2
 BYTE   W06
 BYTE   Gs2
 BYTE   W06
 BYTE   Cs2
 BYTE   W06
 BYTE   Ds2
 BYTE   W06
 BYTE   Gs1
 BYTE   W06
 BYTE   As2
 BYTE   W06
 BYTE   Ds2
 BYTE   W06
 BYTE   Gs2
 BYTE   W06
 BYTE   Ds2
 BYTE   W06
 BYTE   Gn2
 BYTE   W06
 BYTE   Ds2
 BYTE   W06
 BYTE   N18  Bn1
 BYTE   W12
// 007   ----------------------------------------
 BYTE   W06
 BYTE   N06  Ds1
 BYTE   W06
 BYTE   As1
 BYTE   W06
 BYTE   Ds1
 BYTE   W06
 BYTE   Gs1
 BYTE   W06
 BYTE   Cs1
 BYTE   W06
 BYTE   Ds1
 BYTE   W06
 BYTE   Gs0
 BYTE   W06
 BYTE   Cs2
 BYTE   W06
 BYTE   Ds1
 BYTE   W06
 BYTE   Bn1
 BYTE   W06
 BYTE   Ds1
 BYTE   W06
 BYTE   As1
 BYTE   W06
 BYTE   Cs1
 BYTE   W06
 BYTE   N12  Ds1
 BYTE   W12
 BYTE   PATT
  POIN2 InanimateDream_Label_10_014030B8
 BYTE   PATT
  POIN2 InanimateDream_Label_10_014030DA
// 008   ----------------------------------------
 BYTE   N06  Bn2  v112
 BYTE   W06
 BYTE   Ds2
 BYTE   W06
 BYTE   As2
 BYTE   W06
 BYTE   Ds2
 BYTE   W06
 BYTE   Gs2
 BYTE   W06
 BYTE   Cs2
 BYTE   W06
 BYTE   Ds2
 BYTE   W06
 BYTE   Gs1
 BYTE   W06
 BYTE   As2
 BYTE   W06
 BYTE   Ds2
 BYTE   W06
 BYTE   Gs2
 BYTE   W06
 BYTE   Ds2
 BYTE   W06
 BYTE   Gn2
 BYTE   W06
 BYTE   Ds2
 BYTE   W06
 BYTE   N12  Bn1
 BYTE   W12
// 009   ----------------------------------------
 BYTE   W96
// 010   ----------------------------------------
 BYTE   W96
// 011   ----------------------------------------
 BYTE   W96
// 012   ----------------------------------------
 BYTE   W96
// 013   ----------------------------------------
 BYTE   W96
// 014   ----------------------------------------
 BYTE   W96
// 015   ----------------------------------------
 BYTE   W96
// 016   ----------------------------------------
 BYTE   W96
// 017   ----------------------------------------
 BYTE   W96
// 018   ----------------------------------------
InanimateDream_Label_10_0140316E:
 BYTE   N06  Gs3  v112
 BYTE   W06
 BYTE   As3
 BYTE   W06
 BYTE   Bn3
 BYTE   W06
 BYTE   Ds4
 BYTE   W06
 BYTE   Gs3
 BYTE   W06
 BYTE   As3
 BYTE   W06
 BYTE   Bn3
 BYTE   W06
 BYTE   Ds4
 BYTE   W06
 BYTE   Gs3
 BYTE   W06
 BYTE   As3
 BYTE   W06
 BYTE   Bn3
 BYTE   W06
 BYTE   Ds4
 BYTE   W06
 BYTE   Gs3
 BYTE   W06
 BYTE   As3
 BYTE   W06
 BYTE   Bn3
 BYTE   W06
 BYTE   Ds4
 BYTE   W06
 BYTE   PEND 
// 019   ----------------------------------------
 BYTE   Fs3
 BYTE   W06
 BYTE   As3
 BYTE   W06
 BYTE   Bn3
 BYTE   W06
 BYTE   Ds4
 BYTE   W06
 BYTE   Fs3
 BYTE   W06
 BYTE   As3
 BYTE   W06
 BYTE   Bn3
 BYTE   W06
 BYTE   Ds4
 BYTE   W06
 BYTE   Fs3
 BYTE   W06
 BYTE   As3
 BYTE   W06
 BYTE   Bn3
 BYTE   W06
 BYTE   Ds4
 BYTE   W06
 BYTE   Fs3
 BYTE   W06
 BYTE   As3
 BYTE   W06
 BYTE   Bn3
 BYTE   W06
 BYTE   Ds4
 BYTE   W06
// 020   ----------------------------------------
 BYTE   Gs3
 BYTE   W06
 BYTE   As3
 BYTE   W06
 BYTE   Bn3
 BYTE   W06
 BYTE   Fn4
 BYTE   W06
 BYTE   Gs3
 BYTE   W06
 BYTE   As3
 BYTE   W06
 BYTE   Bn3
 BYTE   W06
 BYTE   Fn4
 BYTE   W06
 BYTE   Gs3
 BYTE   W06
 BYTE   As3
 BYTE   W06
 BYTE   Bn3
 BYTE   W06
 BYTE   Fn4
 BYTE   W06
 BYTE   Gs3
 BYTE   W06
 BYTE   As3
 BYTE   W06
 BYTE   Bn3
 BYTE   W06
 BYTE   Fn4
 BYTE   W06
 BYTE   PATT
  POIN2 InanimateDream_Label_10_0140316E
// 021   ----------------------------------------
InanimateDream_Label_10_014031D6:
 BYTE   N06  Gs4  v112
 BYTE   W06
 BYTE   As4
 BYTE   W06
 BYTE   Bn4
 BYTE   W06
 BYTE   Ds5
 BYTE   W06
 BYTE   Gs4
 BYTE   W06
 BYTE   As4
 BYTE   W06
 BYTE   Bn4
 BYTE   W06
 BYTE   Ds5
 BYTE   W06
 BYTE   Gs4
 BYTE   W06
 BYTE   As4
 BYTE   W06
 BYTE   Bn4
 BYTE   W06
 BYTE   Ds5
 BYTE   W06
 BYTE   Gs4
 BYTE   W06
 BYTE   As4
 BYTE   W06
 BYTE   Bn4
 BYTE   W06
 BYTE   Ds5
 BYTE   W06
 BYTE   PEND 
// 022   ----------------------------------------
 BYTE   Fs4
 BYTE   W06
 BYTE   As4
 BYTE   W06
 BYTE   Bn4
 BYTE   W06
 BYTE   Ds5
 BYTE   W06
 BYTE   Fs4
 BYTE   W06
 BYTE   As4
 BYTE   W06
 BYTE   Bn4
 BYTE   W06
 BYTE   Ds5
 BYTE   W06
 BYTE   Fs4
 BYTE   W06
 BYTE   As4
 BYTE   W06
 BYTE   Bn4
 BYTE   W06
 BYTE   Ds5
 BYTE   W06
 BYTE   Fs4
 BYTE   W06
 BYTE   As4
 BYTE   W06
 BYTE   Bn4
 BYTE   W06
 BYTE   Ds5
 BYTE   W06
 BYTE   PATT
  POIN2 InanimateDream_Label_10_014031D6
// 023   ----------------------------------------
 BYTE   N06  Gs4  v112
 BYTE   W06
 BYTE   As4
 BYTE   W06
 BYTE   Bn4
 BYTE   W06
 BYTE   Ds5
 BYTE   W06
 BYTE   Gs4
 BYTE   W06
 BYTE   As4
 BYTE   W06
 BYTE   Bn4
 BYTE   W06
 BYTE   Ds5
 BYTE   W06
 BYTE   Gs5
 BYTE   W06
 BYTE   Bn5
 BYTE   W06
 BYTE   Ds6
 BYTE   W06
 BYTE   Bn5
 BYTE   W06
 BYTE   N06
 BYTE   W06
 BYTE   Gs5
 BYTE   W06
 BYTE   N12  Gn5
 BYTE   W12
// 024   ----------------------------------------
 BYTE   W96
// 025   ----------------------------------------
InanimateDream_Label_10_01403240:
 BYTE   W36
 BYTE   N06  Fs3  v112
 BYTE   W06
 BYTE   Bn3
 BYTE   W06
 BYTE   Dn4
 BYTE   W06
 BYTE   Fs3
 BYTE   W06
 BYTE   Cs4
 BYTE   W06
 BYTE   Fs3
 BYTE   W06
 BYTE   Bn3
 BYTE   W06
 BYTE   An3
 BYTE   W06
 BYTE   Fs3
 BYTE   W06
 BYTE   N06
 BYTE   W06
 BYTE   PEND 
// 026   ----------------------------------------
 BYTE   W96
// 027   ----------------------------------------
 BYTE   W36
 BYTE   N06
 BYTE   W06
 BYTE   Bn3
 BYTE   W06
 BYTE   Dn4
 BYTE   W06
 BYTE   Fs3
 BYTE   W06
 BYTE   Cs4
 BYTE   W06
 BYTE   Fs3
 BYTE   W06
 BYTE   Bn3
 BYTE   W06
 BYTE   Cs4
 BYTE   W06
 BYTE   Dn4
 BYTE   W06
 BYTE   Fs3
 BYTE   W06
// 028   ----------------------------------------
 BYTE   W96
 BYTE   PATT
  POIN2 InanimateDream_Label_10_01403240
// 029   ----------------------------------------
 BYTE   W96
// 030   ----------------------------------------
 BYTE   W48
 BYTE   N06  Bn4  v112
 BYTE   W06
 BYTE   Fs4
 BYTE   W06
 BYTE   Dn4
 BYTE   W06
 BYTE   Bn4
 BYTE   W06
 BYTE   An4
 BYTE   W06
 BYTE   Dn4
 BYTE   W06
 BYTE   Cs4
 BYTE   W06
 BYTE   Bn3
 BYTE   W06
// 031   ----------------------------------------
InanimateDream_Label_10_01403288:
 BYTE   N06  Dn3  v112
 BYTE   W06
 BYTE   Cs3
 BYTE   W06
 BYTE   Bn2
 BYTE   W06
 BYTE   Gn2
 BYTE   W06
 BYTE   An2
 BYTE   W06
 BYTE   Bn2
 BYTE   W06
 BYTE   Cs3
 BYTE   W06
 BYTE   Dn3
 BYTE   W06
 BYTE   En3
 BYTE   W06
 BYTE   Cs3
 BYTE   W06
 BYTE   As2
 BYTE   W06
 BYTE   En3
 BYTE   W06
 BYTE   N06
 BYTE   W06
 BYTE   Cs3
 BYTE   W06
 BYTE   As2
 BYTE   W06
 BYTE   En3
 BYTE   W06
 BYTE   PEND 
// 032   ----------------------------------------
InanimateDream_Label_10_014032AB:
 BYTE   N06  Dn3  v112
 BYTE   W06
 BYTE   Fs3
 BYTE   W06
 BYTE   An3
 BYTE   W06
 BYTE   Dn3
 BYTE   W06
 BYTE   Fs3
 BYTE   W06
 BYTE   An3
 BYTE   W06
 BYTE   Fs3
 BYTE   W06
 BYTE   Bn3
 BYTE   W06
 BYTE   Dn4
 BYTE   W06
 BYTE   Fs3
 BYTE   W06
 BYTE   Cs4
 BYTE   W06
 BYTE   Fs3
 BYTE   W06
 BYTE   Bn3
 BYTE   W06
 BYTE   An3
 BYTE   W06
 BYTE   Fs3
 BYTE   W06
 BYTE   N06
 BYTE   W06
 BYTE   PEND 
 BYTE   PATT
  POIN2 InanimateDream_Label_10_01403288
 BYTE   PATT
  POIN2 InanimateDream_Label_10_014032AB
// 033   ----------------------------------------
 BYTE   N06  Dn4  v112
 BYTE   W06
 BYTE   Cs4
 BYTE   W06
 BYTE   Bn3
 BYTE   W06
 BYTE   Gn3
 BYTE   W06
 BYTE   An3
 BYTE   W06
 BYTE   Bn3
 BYTE   W06
 BYTE   Cs4
 BYTE   W06
 BYTE   Dn4
 BYTE   W06
 BYTE   En4
 BYTE   W06
 BYTE   Cs4
 BYTE   W06
 BYTE   As3
 BYTE   W06
 BYTE   En4
 BYTE   W06
 BYTE   N06
 BYTE   W06
 BYTE   Cs4
 BYTE   W06
 BYTE   As3
 BYTE   W06
 BYTE   En4
 BYTE   W06
// 034   ----------------------------------------
 BYTE   Dn4
 BYTE   W06
 BYTE   Fs4
 BYTE   W06
 BYTE   An4
 BYTE   W06
 BYTE   Dn4
 BYTE   W06
 BYTE   Fs4
 BYTE   W06
 BYTE   An4
 BYTE   W06
 BYTE   Fs4
 BYTE   W06
 BYTE   Bn4
 BYTE   W06
 BYTE   Dn5
 BYTE   W06
 BYTE   Fs4
 BYTE   W06
 BYTE   Cs5
 BYTE   W06
 BYTE   Fs4
 BYTE   W06
 BYTE   Bn4
 BYTE   W06
 BYTE   An4
 BYTE   W06
 BYTE   Fs4
 BYTE   W06
 BYTE   N06
 BYTE   W06
// 035   ----------------------------------------
 BYTE   Gn3
 BYTE   W06
 BYTE   Bn3
 BYTE   W06
 BYTE   Cs4
 BYTE   W06
 BYTE   Bn3
 BYTE   W06
 BYTE   Cs4
 BYTE   W06
 BYTE   En4
 BYTE   W06
 BYTE   Dn4
 BYTE   W06
 BYTE   Fs4
 BYTE   W06
 BYTE   En4
 BYTE   W06
 BYTE   Fs4
 BYTE   W06
 BYTE   As4
 BYTE   W06
 BYTE   Fs4
 BYTE   W06
 BYTE   As4
 BYTE   W06
 BYTE   Bn4
 BYTE   W06
 BYTE   As4
 BYTE   W06
 BYTE   Bn4
 BYTE   W06
// 036   ----------------------------------------
 BYTE   Dn5
 BYTE   W06
 BYTE   Cs5
 BYTE   W06
 BYTE   Dn5
 BYTE   W06
 BYTE   Cs5
 BYTE   W06
 BYTE   Bn4
 BYTE   W06
 BYTE   Cs5
 BYTE   W06
 BYTE   Bn4
 BYTE   W06
 BYTE   Fs4
 BYTE   W06
 BYTE   Bn4
 BYTE   W06
 BYTE   Fs4
 BYTE   W06
 BYTE   Dn4
 BYTE   W06
 BYTE   Bn4
 BYTE   W06
 BYTE   An4
 BYTE   W06
 BYTE   Dn4
 BYTE   W06
 BYTE   Cs4
 BYTE   W06
 BYTE   Bn3
 BYTE   W06
// 037   ----------------------------------------
 BYTE   W96
// 038   ----------------------------------------
 BYTE   W96
// 039   ----------------------------------------
 BYTE   W96
// 040   ----------------------------------------
 BYTE   W96
// 041   ----------------------------------------
 BYTE   W24
 BYTE   As4
 BYTE   W06
 BYTE   Dn4
 BYTE   W06
 BYTE   An4
 BYTE   W06
 BYTE   Dn4
 BYTE   W06
 BYTE   Gn4
 BYTE   W06
 BYTE   Cn4
 BYTE   W06
 BYTE   Dn4
 BYTE   W06
 BYTE   Gn3
 BYTE   W06
 BYTE   An4
 BYTE   W06
 BYTE   Dn4
 BYTE   W06
 BYTE   Gn4
 BYTE   W06
 BYTE   Dn4
 BYTE   W06
// 042   ----------------------------------------
InanimateDream_Label_10_01403377:
 BYTE   N06  Fs4  v112
 BYTE   W06
 BYTE   Dn4
 BYTE   W06
 BYTE   N12  As3
 BYTE   W18
 BYTE   N06  Dn3
 BYTE   W06
 BYTE   An3
 BYTE   W06
 BYTE   Dn3
 BYTE   W06
 BYTE   Gn3
 BYTE   W06
 BYTE   Cn3
 BYTE   W06
 BYTE   Dn3
 BYTE   W06
 BYTE   Gn2
 BYTE   W06
 BYTE   Cn4
 BYTE   W06
 BYTE   Dn3
 BYTE   W06
 BYTE   As3
 BYTE   W06
 BYTE   Dn3
 BYTE   W06
 BYTE   PEND 
// 043   ----------------------------------------
InanimateDream_Label_10_01403398:
 BYTE   N06  An3  v112
 BYTE   W06
 BYTE   Cn3
 BYTE   W06
 BYTE   Dn3
 BYTE   W06
 BYTE   An2
 BYTE   W06
 BYTE   As2
 BYTE   W06
 BYTE   Dn2
 BYTE   W06
 BYTE   An2
 BYTE   W06
 BYTE   Dn2
 BYTE   W06
 BYTE   Gn2
 BYTE   W06
 BYTE   Cn2
 BYTE   W06
 BYTE   Dn2
 BYTE   W06
 BYTE   Gn1
 BYTE   W06
 BYTE   An2
 BYTE   W06
 BYTE   Dn2
 BYTE   W06
 BYTE   Gn2
 BYTE   W06
 BYTE   Dn2
 BYTE   W06
 BYTE   PEND 
// 044   ----------------------------------------
 BYTE   Fs2
 BYTE   W06
 BYTE   Dn2
 BYTE   W06
 BYTE   N12  As1
 BYTE   W18
 BYTE   N06  Dn1
 BYTE   W06
 BYTE   An1
 BYTE   W06
 BYTE   Dn1
 BYTE   W06
 BYTE   Gn1
 BYTE   W06
 BYTE   Cn1
 BYTE   W06
 BYTE   Dn1
 BYTE   W06
 BYTE   Gn0
 BYTE   W06
 BYTE   Cn2
 BYTE   W06
 BYTE   Dn1
 BYTE   W06
 BYTE   As1
 BYTE   W06
 BYTE   Dn1
 BYTE   W06
// 045   ----------------------------------------
 BYTE   An1
 BYTE   W06
 BYTE   Cn1
 BYTE   W06
 BYTE   N12  Dn1
 BYTE   W12
 BYTE   N06  As4
 BYTE   W06
 BYTE   Dn4
 BYTE   W06
 BYTE   An4
 BYTE   W06
 BYTE   Dn4
 BYTE   W06
 BYTE   Gn4
 BYTE   W06
 BYTE   Cn4
 BYTE   W06
 BYTE   Dn4
 BYTE   W06
 BYTE   Gn3
 BYTE   W06
 BYTE   An4
 BYTE   W06
 BYTE   Dn4
 BYTE   W06
 BYTE   Gn4
 BYTE   W06
 BYTE   Dn4
 BYTE   W06
 BYTE   PATT
  POIN2 InanimateDream_Label_10_01403377
 BYTE   PATT
  POIN2 InanimateDream_Label_10_01403398
// 046   ----------------------------------------
 BYTE   N06  Fs2  v112
 BYTE   W06
 BYTE   Dn2
 BYTE   W06
 BYTE   N12  As1
 BYTE   W84
// 047   ----------------------------------------
 BYTE   W96
// 048   ----------------------------------------
InanimateDream_Label_10_0140340D:
 BYTE   W60
 BYTE   N06  Fn3  v112
 BYTE   W06
 BYTE   As3
 BYTE   W06
 BYTE   Cs4
 BYTE   W06
 BYTE   Fn3
 BYTE   W06
 BYTE   Cn4
 BYTE   W06
 BYTE   Fn3
 BYTE   W06
 BYTE   PEND 
// 049   ----------------------------------------
InanimateDream_Label_10_0140341D:
 BYTE   N06  As3  v112
 BYTE   W06
 BYTE   Gs3
 BYTE   W06
 BYTE   Fn3
 BYTE   W06
 BYTE   N06
 BYTE   W78
 BYTE   PEND 
 BYTE   PATT
  POIN2 InanimateDream_Label_10_0140340D
// 050   ----------------------------------------
 BYTE   N06  As3  v112
 BYTE   W06
 BYTE   Cn4
 BYTE   W06
 BYTE   Cs4
 BYTE   W06
 BYTE   Fn3
 BYTE   W78
 BYTE   PATT
  POIN2 InanimateDream_Label_10_0140340D
 BYTE   PATT
  POIN2 InanimateDream_Label_10_0140341D
// 051   ----------------------------------------
 BYTE   W72
 BYTE   N06  As4  v112
 BYTE   W06
 BYTE   Fn4
 BYTE   W06
 BYTE   Cs4
 BYTE   W06
 BYTE   As4
 BYTE   W06
// 052   ----------------------------------------
 BYTE   Gs4
 BYTE   W06
 BYTE   Cs4
 BYTE   W06
 BYTE   Cn4
 BYTE   W06
 BYTE   As3
 BYTE   W06
 BYTE   Cs3
 BYTE   W06
 BYTE   Cn3
 BYTE   W06
 BYTE   As2
 BYTE   W06
 BYTE   Fs2
 BYTE   W06
 BYTE   Gs2
 BYTE   W06
 BYTE   As2
 BYTE   W06
 BYTE   Cn3
 BYTE   W06
 BYTE   Cs3
 BYTE   W06
 BYTE   Ds3
 BYTE   W06
 BYTE   Cn3
 BYTE   W06
 BYTE   An2
 BYTE   W06
 BYTE   Ds3
 BYTE   W06
// 053   ----------------------------------------
InanimateDream_Label_10_0140346C:
 BYTE   N06  Ds3  v112
 BYTE   W06
 BYTE   Cn3
 BYTE   W06
 BYTE   An2
 BYTE   W06
 BYTE   Ds3
 BYTE   W06
 BYTE   Cs3
 BYTE   W06
 BYTE   Fn3
 BYTE   W06
 BYTE   Gs3
 BYTE   W06
 BYTE   Cs3
 BYTE   W06
 BYTE   Fn3
 BYTE   W06
 BYTE   Gs3
 BYTE   W06
 BYTE   Fn3
 BYTE   W06
 BYTE   As3
 BYTE   W06
 BYTE   Cs4
 BYTE   W06
 BYTE   Fn3
 BYTE   W06
 BYTE   Cn4
 BYTE   W06
 BYTE   Fn3
 BYTE   W06
 BYTE   PEND 
// 054   ----------------------------------------
 BYTE   As3
 BYTE   W06
 BYTE   Gs3
 BYTE   W06
 BYTE   Fn3
 BYTE   W06
 BYTE   N06
 BYTE   W06
 BYTE   Cs3
 BYTE   W06
 BYTE   Cn3
 BYTE   W06
 BYTE   As2
 BYTE   W06
 BYTE   Fs2
 BYTE   W06
 BYTE   Gs2
 BYTE   W06
 BYTE   As2
 BYTE   W06
 BYTE   Cn3
 BYTE   W06
 BYTE   Cs3
 BYTE   W06
 BYTE   Ds3
 BYTE   W06
 BYTE   Cn3
 BYTE   W06
 BYTE   An2
 BYTE   W06
 BYTE   Ds3
 BYTE   W06
 BYTE   PATT
  POIN2 InanimateDream_Label_10_0140346C
// 055   ----------------------------------------
 BYTE   N06  As3  v112
 BYTE   W06
 BYTE   Gs3
 BYTE   W06
 BYTE   Fn3
 BYTE   W06
 BYTE   N06
 BYTE   W06
 BYTE   Cs4
 BYTE   W06
 BYTE   Cn4
 BYTE   W06
 BYTE   As3
 BYTE   W06
 BYTE   Fs3
 BYTE   W06
 BYTE   Gs3
 BYTE   W06
 BYTE   As3
 BYTE   W06
 BYTE   Cn4
 BYTE   W06
 BYTE   Cs4
 BYTE   W06
 BYTE   Ds4
 BYTE   W06
 BYTE   Cn4
 BYTE   W06
 BYTE   An3
 BYTE   W06
 BYTE   Ds4
 BYTE   W06
// 056   ----------------------------------------
 BYTE   N06
 BYTE   W06
 BYTE   Cn4
 BYTE   W06
 BYTE   An3
 BYTE   W06
 BYTE   Ds4
 BYTE   W06
 BYTE   Cs4
 BYTE   W06
 BYTE   Fn4
 BYTE   W06
 BYTE   Gs4
 BYTE   W06
 BYTE   Cs4
 BYTE   W06
 BYTE   Fn4
 BYTE   W06
 BYTE   Gs4
 BYTE   W06
 BYTE   Fn4
 BYTE   W06
 BYTE   As4
 BYTE   W06
 BYTE   Cs5
 BYTE   W06
 BYTE   Fn4
 BYTE   W06
 BYTE   Cn5
 BYTE   W06
 BYTE   Fn4
 BYTE   W06
// 057   ----------------------------------------
 BYTE   As4
 BYTE   W06
 BYTE   Gs4
 BYTE   W06
 BYTE   Fn4
 BYTE   W06
 BYTE   N06
 BYTE   W06
 BYTE   Fs3
 BYTE   W06
 BYTE   As3
 BYTE   W06
 BYTE   Cn4
 BYTE   W06
 BYTE   As3
 BYTE   W06
 BYTE   Cn4
 BYTE   W06
 BYTE   Ds4
 BYTE   W06
 BYTE   Cs4
 BYTE   W06
 BYTE   Fn4
 BYTE   W06
 BYTE   Ds4
 BYTE   W06
 BYTE   Fn4
 BYTE   W06
 BYTE   An4
 BYTE   W06
 BYTE   Fn4
 BYTE   W06
// 058   ----------------------------------------
 BYTE   An4
 BYTE   W06
 BYTE   As4
 BYTE   W06
 BYTE   An4
 BYTE   W06
 BYTE   As4
 BYTE   W06
 BYTE   Cs5
 BYTE   W06
 BYTE   Cn5
 BYTE   W06
 BYTE   Cs5
 BYTE   W06
 BYTE   Cn5
 BYTE   W06
 BYTE   As4
 BYTE   W06
 BYTE   Cn5
 BYTE   W06
 BYTE   As4
 BYTE   W06
 BYTE   Fn4
 BYTE   W06
 BYTE   As4
 BYTE   W06
 BYTE   Fn4
 BYTE   W06
 BYTE   Cs4
 BYTE   W06
 BYTE   As4
 BYTE   W06
// 059   ----------------------------------------
 BYTE   Gs4
 BYTE   W06
 BYTE   Cs4
 BYTE   W06
 BYTE   Cn4
 BYTE   W06
 BYTE   As3
 BYTE   W78
// 060   ----------------------------------------
InanimateDream_Label_10_0140353E:
 BYTE   W60
 BYTE   N06  An3  v112
 BYTE   W06
 BYTE   Dn4
 BYTE   W06
 BYTE   Fn4
 BYTE   W06
 BYTE   An3
 BYTE   W06
 BYTE   En4
 BYTE   W06
 BYTE   An3
 BYTE   W06
 BYTE   PEND 
// 061   ----------------------------------------
InanimateDream_Label_10_0140354E:
 BYTE   N06  Dn4  v112
 BYTE   W06
 BYTE   Cn4
 BYTE   W06
 BYTE   An3
 BYTE   W06
 BYTE   N06
 BYTE   W78
 BYTE   PEND 
 BYTE   PATT
  POIN2 InanimateDream_Label_10_0140353E
// 062   ----------------------------------------
 BYTE   N06  Dn4  v112
 BYTE   W06
 BYTE   En4
 BYTE   W06
 BYTE   Fn4
 BYTE   W06
 BYTE   An3
 BYTE   W78
 BYTE   PATT
  POIN2 InanimateDream_Label_10_0140353E
 BYTE   PATT
  POIN2 InanimateDream_Label_10_0140354E
// 063   ----------------------------------------
 BYTE   W72
 BYTE   N06  Dn5  v112
 BYTE   W06
 BYTE   An4
 BYTE   W06
 BYTE   Fn4
 BYTE   W06
 BYTE   Dn5
 BYTE   W06
// 064   ----------------------------------------
 BYTE   Cn5
 BYTE   W06
 BYTE   Fn4
 BYTE   W06
 BYTE   En4
 BYTE   W06
 BYTE   Dn4
 BYTE   W06
 BYTE   Fn3
 BYTE   W06
 BYTE   En3
 BYTE   W06
 BYTE   Dn3
 BYTE   W06
 BYTE   As2
 BYTE   W06
 BYTE   Cn3
 BYTE   W06
 BYTE   Dn3
 BYTE   W06
 BYTE   En3
 BYTE   W06
 BYTE   Fn3
 BYTE   W06
 BYTE   Gn3
 BYTE   W06
 BYTE   En3
 BYTE   W06
 BYTE   Cs3
 BYTE   W06
 BYTE   Gn3
 BYTE   W06
// 065   ----------------------------------------
InanimateDream_Label_10_0140359D:
 BYTE   N06  Gn3  v112
 BYTE   W06
 BYTE   En3
 BYTE   W06
 BYTE   Cs3
 BYTE   W06
 BYTE   Gn3
 BYTE   W06
 BYTE   Fn3
 BYTE   W06
 BYTE   An3
 BYTE   W06
 BYTE   Cn4
 BYTE   W06
 BYTE   Fn3
 BYTE   W06
 BYTE   An3
 BYTE   W06
 BYTE   Cn4
 BYTE   W06
 BYTE   An3
 BYTE   W06
 BYTE   Dn4
 BYTE   W06
 BYTE   Fn4
 BYTE   W06
 BYTE   An3
 BYTE   W06
 BYTE   En4
 BYTE   W06
 BYTE   An3
 BYTE   W06
 BYTE   PEND 
// 066   ----------------------------------------
 BYTE   Dn4
 BYTE   W06
 BYTE   Cn4
 BYTE   W06
 BYTE   An3
 BYTE   W06
 BYTE   N06
 BYTE   W06
 BYTE   Fn3
 BYTE   W06
 BYTE   En3
 BYTE   W06
 BYTE   Dn3
 BYTE   W06
 BYTE   As2
 BYTE   W06
 BYTE   Cn3
 BYTE   W06
 BYTE   Dn3
 BYTE   W06
 BYTE   En3
 BYTE   W06
 BYTE   Fn3
 BYTE   W06
 BYTE   Gn3
 BYTE   W06
 BYTE   En3
 BYTE   W06
 BYTE   Cs3
 BYTE   W06
 BYTE   Gn3
 BYTE   W06
 BYTE   PATT
  POIN2 InanimateDream_Label_10_0140359D
// 067   ----------------------------------------
 BYTE   N06  Dn4  v112
 BYTE   W06
 BYTE   Cn4
 BYTE   W06
 BYTE   An3
 BYTE   W06
 BYTE   N06
 BYTE   W06
 BYTE   Fn4
 BYTE   W06
 BYTE   En4
 BYTE   W06
 BYTE   Dn4
 BYTE   W06
 BYTE   As3
 BYTE   W06
 BYTE   Cn4
 BYTE   W06
 BYTE   Dn4
 BYTE   W06
 BYTE   En4
 BYTE   W06
 BYTE   Fn4
 BYTE   W06
 BYTE   Gn4
 BYTE   W06
 BYTE   En4
 BYTE   W06
 BYTE   Cs4
 BYTE   W06
 BYTE   Gn4
 BYTE   W06
// 068   ----------------------------------------
 BYTE   N06
 BYTE   W06
 BYTE   En4
 BYTE   W06
 BYTE   Cs4
 BYTE   W06
 BYTE   Gn4
 BYTE   W06
 BYTE   Fn4
 BYTE   W06
 BYTE   An4
 BYTE   W06
 BYTE   Cn5
 BYTE   W06
 BYTE   Fn4
 BYTE   W06
 BYTE   An4
 BYTE   W06
 BYTE   Cn5
 BYTE   W06
 BYTE   An4
 BYTE   W06
 BYTE   Dn5
 BYTE   W06
 BYTE   Fn5
 BYTE   W06
 BYTE   An4
 BYTE   W06
 BYTE   En5
 BYTE   W06
 BYTE   An4
 BYTE   W06
// 069   ----------------------------------------
 BYTE   Dn5
 BYTE   W06
 BYTE   Cn5
 BYTE   W06
 BYTE   An4
 BYTE   W06
 BYTE   N06
 BYTE   W06
 BYTE   As3
 BYTE   W06
 BYTE   Dn4
 BYTE   W06
 BYTE   En4
 BYTE   W06
 BYTE   Dn4
 BYTE   W06
 BYTE   En4
 BYTE   W06
 BYTE   Gn4
 BYTE   W06
 BYTE   Fn4
 BYTE   W06
 BYTE   An4
 BYTE   W06
 BYTE   Gn4
 BYTE   W06
 BYTE   An4
 BYTE   W06
 BYTE   Cs5
 BYTE   W06
 BYTE   An4
 BYTE   W06
// 070   ----------------------------------------
 BYTE   Cs5
 BYTE   W06
 BYTE   Dn5
 BYTE   W06
 BYTE   Cs5
 BYTE   W06
 BYTE   Dn5
 BYTE   W06
 BYTE   Fn5
 BYTE   W06
 BYTE   En5
 BYTE   W06
 BYTE   Fn5
 BYTE   W06
 BYTE   En5
 BYTE   W06
 BYTE   Dn5
 BYTE   W06
 BYTE   En5
 BYTE   W06
 BYTE   Dn5
 BYTE   W06
 BYTE   An4
 BYTE   W06
 BYTE   Dn5
 BYTE   W06
 BYTE   An4
 BYTE   W06
 BYTE   Fn4
 BYTE   W06
 BYTE   Dn5
 BYTE   W06
// 071   ----------------------------------------
 BYTE   Cn5
 BYTE   W06
 BYTE   Fn4
 BYTE   W06
 BYTE   En4
 BYTE   W06
 BYTE   Dn4
 BYTE   W78
// 072   ----------------------------------------
 BYTE   W96
// 073   ----------------------------------------
 BYTE   W96
// 074   ----------------------------------------
 BYTE   W96
// 075   ----------------------------------------
 BYTE   W24
 BYTE   Bn4
 BYTE   W06
 BYTE   Ds4
 BYTE   W06
 BYTE   As4
 BYTE   W06
 BYTE   Ds4
 BYTE   W06
 BYTE   Gs4
 BYTE   W06
 BYTE   Cs4
 BYTE   W06
 BYTE   Ds4
 BYTE   W06
 BYTE   Gs3
 BYTE   W06
 BYTE   As4
 BYTE   W06
 BYTE   Ds4
 BYTE   W06
 BYTE   Gs4
 BYTE   W06
 BYTE   Ds4
 BYTE   W06
// 076   ----------------------------------------
InanimateDream_Label_10_0140368B:
 BYTE   N06  Gn4  v112
 BYTE   W06
 BYTE   Ds4
 BYTE   W06
 BYTE   N18  Bn3
 BYTE   W18
 BYTE   N06  Ds3
 BYTE   W06
 BYTE   As3
 BYTE   W06
 BYTE   Ds3
 BYTE   W06
 BYTE   Gs3
 BYTE   W06
 BYTE   Cs3
 BYTE   W06
 BYTE   Ds3
 BYTE   W06
 BYTE   Gs2
 BYTE   W06
 BYTE   Cs4
 BYTE   W06
 BYTE   Ds3
 BYTE   W06
 BYTE   Bn3
 BYTE   W06
 BYTE   Ds3
 BYTE   W06
 BYTE   PEND 
// 077   ----------------------------------------
InanimateDream_Label_10_014036AC:
 BYTE   N06  As3  v112
 BYTE   W06
 BYTE   Cs3
 BYTE   W06
 BYTE   Ds3
 BYTE   W06
 BYTE   As2
 BYTE   W06
 BYTE   Bn2
 BYTE   W06
 BYTE   Ds2
 BYTE   W06
 BYTE   As2
 BYTE   W06
 BYTE   Ds2
 BYTE   W06
 BYTE   Gs2
 BYTE   W06
 BYTE   Cs2
 BYTE   W06
 BYTE   Ds2
 BYTE   W06
 BYTE   Gs1
 BYTE   W06
 BYTE   As2
 BYTE   W06
 BYTE   Ds2
 BYTE   W06
 BYTE   Gs2
 BYTE   W06
 BYTE   Ds2
 BYTE   W06
 BYTE   PEND 
// 078   ----------------------------------------
 BYTE   Gn2
 BYTE   W06
 BYTE   Ds2
 BYTE   W06
 BYTE   N18  Bn1
 BYTE   W18
 BYTE   N06  Ds1
 BYTE   W06
 BYTE   As1
 BYTE   W06
 BYTE   Ds1
 BYTE   W06
 BYTE   Gs1
 BYTE   W06
 BYTE   Cs1
 BYTE   W06
 BYTE   Ds1
 BYTE   W06
 BYTE   Gs0
 BYTE   W06
 BYTE   Cs2
 BYTE   W06
 BYTE   Ds1
 BYTE   W06
 BYTE   Bn1
 BYTE   W06
 BYTE   Ds1
 BYTE   W06
// 079   ----------------------------------------
 BYTE   As1
 BYTE   W06
 BYTE   Cs1
 BYTE   W06
 BYTE   N12  Ds1
 BYTE   W12
 BYTE   N06  Bn4
 BYTE   W06
 BYTE   Ds4
 BYTE   W06
 BYTE   As4
 BYTE   W06
 BYTE   Ds4
 BYTE   W06
 BYTE   Gs4
 BYTE   W06
 BYTE   Cs4
 BYTE   W06
 BYTE   Ds4
 BYTE   W06
 BYTE   Gs3
 BYTE   W06
 BYTE   As4
 BYTE   W06
 BYTE   Ds4
 BYTE   W06
 BYTE   Gs4
 BYTE   W06
 BYTE   Ds4
 BYTE   W06
 BYTE   PATT
  POIN2 InanimateDream_Label_10_0140368B
 BYTE   PATT
  POIN2 InanimateDream_Label_10_014036AC
// 080   ----------------------------------------
 BYTE   N06  Gn2  v112
 BYTE   W06
 BYTE   Ds2
 BYTE   W06
 BYTE   N12  Bn1
 BYTE   W54
 BYTE   GoTo
  POIN2 InanimateDream_Label_10_014030AE
// 081   ----------------------------------------
 BYTE   W03
 BYTE   FINE

//**************** Track 12 (Midi-Chn.11) ****************//

InanimateDream_012:
// 000   ----------------------------------------
 BYTE   KEYSH   InanimateDream_key+0
InanimateDream_Label_11_0140372A:
 BYTE   VOICE   77
 BYTE   PAN   c_v+0
 BYTE   VOL   54*InanimateDream_mvl/mxv
 BYTE   W96
// 001   ----------------------------------------
 BYTE   W96
// 002   ----------------------------------------
 BYTE   W96
// 003   ----------------------------------------
 BYTE   W96
// 004   ----------------------------------------
 BYTE   W96
// 005   ----------------------------------------
 BYTE   W96
// 006   ----------------------------------------
 BYTE   W96
// 007   ----------------------------------------
 BYTE   W96
// 008   ----------------------------------------
 BYTE   W96
// 009   ----------------------------------------
 BYTE   W96
// 010   ----------------------------------------
 BYTE   W96
// 011   ----------------------------------------
 BYTE   W72
 BYTE   N24  Gs3  v064
 BYTE   W24
// 012   ----------------------------------------
 BYTE   As3
 BYTE   W24
 BYTE   N12  Bn3
 BYTE   W12
 BYTE   As3
 BYTE   W12
 BYTE   Gs3
 BYTE   W12
 BYTE   N24  Fs3
 BYTE   W24
 BYTE   N12  Ds4
 BYTE   W12
// 013   ----------------------------------------
InanimateDream_Label_11_0140374F:
 BYTE   N24  As3  v064
 BYTE   W24
 BYTE   N72  Bn3
 BYTE   W72
 BYTE   PEND 
// 014   ----------------------------------------
InanimateDream_Label_11_01403757:
 BYTE   N12  Cs4  v064
 BYTE   W12
 BYTE   Ds4
 BYTE   W12
 BYTE   N36  Cs4
 BYTE   W36
 BYTE   Gs3
 BYTE   W36
 BYTE   PEND 
// 015   ----------------------------------------
InanimateDream_Label_11_01403763:
 BYTE   N24  Cs4  v064
 BYTE   W24
 BYTE   N18  Ds4
 BYTE   W18
 BYTE   Gs4
 BYTE   W18
 BYTE   N12  As4
 BYTE   W24
 BYTE   Ds4
 BYTE   W12
 BYTE   PEND 
// 016   ----------------------------------------
InanimateDream_Label_11_01403772:
 BYTE   N12  Gs4  v064
 BYTE   W12
 BYTE   As4
 BYTE   W12
 BYTE   Bn4
 BYTE   W12
 BYTE   As4
 BYTE   W12
 BYTE   Gs4
 BYTE   W12
 BYTE   N24  Fs4
 BYTE   W24
 BYTE   N12  Gs4
 BYTE   W12
 BYTE   PEND 
// 017   ----------------------------------------
InanimateDream_Label_11_01403785:
 BYTE   N12  Ds4  v064
 BYTE   W24
 BYTE   Bn4
 BYTE   W12
 BYTE   As4
 BYTE   W12
 BYTE   Gs4
 BYTE   W12
 BYTE   N24  Fs4
 BYTE   W24
 BYTE   N12  Gs4
 BYTE   W12
 BYTE   PEND 
// 018   ----------------------------------------
InanimateDream_Label_11_01403796:
 BYTE   N24  Cs4  v064
 BYTE   W24
 BYTE   N12  Ds4
 BYTE   W12
 BYTE   Cs4
 BYTE   W12
 BYTE   Bn3
 BYTE   W12
 BYTE   N24  Gs3
 BYTE   W24
 BYTE   N12  As3
 BYTE   W12
 BYTE   PEND 
// 019   ----------------------------------------
InanimateDream_Label_11_014037A8:
 BYTE   N12  Bn3  v064
 BYTE   W24
 BYTE   N12
 BYTE   W12
 BYTE   As3
 BYTE   W12
 BYTE   Gs3
 BYTE   W12
 BYTE   As3
 BYTE   W12
 BYTE   N12
 BYTE   W12
 BYTE   Bn3
 BYTE   W12
 BYTE   PEND 
// 020   ----------------------------------------
 BYTE   Cs4
 BYTE   W12
 BYTE   Ds4
 BYTE   W12
 BYTE   Bn3
 BYTE   W12
 BYTE   As3
 BYTE   W12
 BYTE   Gs3
 BYTE   W12
 BYTE   N24  Fs3
 BYTE   W24
 BYTE   N12  Ds4
 BYTE   W12
 BYTE   PATT
  POIN2 InanimateDream_Label_11_0140374F
 BYTE   PATT
  POIN2 InanimateDream_Label_11_01403757
 BYTE   PATT
  POIN2 InanimateDream_Label_11_01403763
 BYTE   PATT
  POIN2 InanimateDream_Label_11_01403772
 BYTE   PATT
  POIN2 InanimateDream_Label_11_01403785
 BYTE   PATT
  POIN2 InanimateDream_Label_11_01403796
 BYTE   PATT
  POIN2 InanimateDream_Label_11_014037A8
// 021   ----------------------------------------
 BYTE   N12  Cs4  v064
 BYTE   W12
 BYTE   Ds4
 BYTE   W84
// 022   ----------------------------------------
 BYTE   W96
// 023   ----------------------------------------
 BYTE   W96
// 024   ----------------------------------------
 BYTE   W96
// 025   ----------------------------------------
 BYTE   W96
// 026   ----------------------------------------
 BYTE   W96
// 027   ----------------------------------------
 BYTE   W96
// 028   ----------------------------------------
 BYTE   W96
// 029   ----------------------------------------
 BYTE   W96
// 030   ----------------------------------------
 BYTE   W96
// 031   ----------------------------------------
 BYTE   W96
// 032   ----------------------------------------
 BYTE   W96
// 033   ----------------------------------------
 BYTE   W96
// 034   ----------------------------------------
 BYTE   W96
// 035   ----------------------------------------
 BYTE   W96
// 036   ----------------------------------------
 BYTE   W96
// 037   ----------------------------------------
 BYTE   W96
// 038   ----------------------------------------
 BYTE   W96
// 039   ----------------------------------------
 BYTE   W96
// 040   ----------------------------------------
 BYTE   W96
// 041   ----------------------------------------
 BYTE   W96
// 042   ----------------------------------------
 BYTE   W96
// 043   ----------------------------------------
 BYTE   W96
// 044   ----------------------------------------
 BYTE   W96
// 045   ----------------------------------------
 BYTE   W96
// 046   ----------------------------------------
 BYTE   W96
// 047   ----------------------------------------
 BYTE   W96
// 048   ----------------------------------------
 BYTE   W96
// 049   ----------------------------------------
 BYTE   W96
// 050   ----------------------------------------
 BYTE   W96
// 051   ----------------------------------------
 BYTE   W96
// 052   ----------------------------------------
 BYTE   W96
// 053   ----------------------------------------
 BYTE   W96
// 054   ----------------------------------------
 BYTE   W96
// 055   ----------------------------------------
 BYTE   W96
// 056   ----------------------------------------
 BYTE   W96
// 057   ----------------------------------------
 BYTE   W96
// 058   ----------------------------------------
 BYTE   W96
// 059   ----------------------------------------
 BYTE   W96
// 060   ----------------------------------------
 BYTE   W96
// 061   ----------------------------------------
 BYTE   W96
// 062   ----------------------------------------
 BYTE   W96
// 063   ----------------------------------------
 BYTE   W96
// 064   ----------------------------------------
 BYTE   W96
// 065   ----------------------------------------
 BYTE   W96
// 066   ----------------------------------------
 BYTE   W96
// 067   ----------------------------------------
 BYTE   W96
// 068   ----------------------------------------
 BYTE   W96
// 069   ----------------------------------------
 BYTE   W96
// 070   ----------------------------------------
 BYTE   W96
// 071   ----------------------------------------
 BYTE   W96
// 072   ----------------------------------------
 BYTE   W96
// 073   ----------------------------------------
 BYTE   W96
// 074   ----------------------------------------
 BYTE   W96
// 075   ----------------------------------------
 BYTE   W96
// 076   ----------------------------------------
 BYTE   W96
// 077   ----------------------------------------
 BYTE   W96
// 078   ----------------------------------------
 BYTE   W96
// 079   ----------------------------------------
 BYTE   W96
// 080   ----------------------------------------
 BYTE   W96
// 081   ----------------------------------------
 BYTE   W96
// 082   ----------------------------------------
 BYTE   W96
// 083   ----------------------------------------
 BYTE   W96
// 084   ----------------------------------------
 BYTE   W96
// 085   ----------------------------------------
 BYTE   W96
// 086   ----------------------------------------
 BYTE   W96
// 087   ----------------------------------------
 BYTE   W96
// 088   ----------------------------------------
 BYTE   W96
// 089   ----------------------------------------
 BYTE   W96
// 090   ----------------------------------------
 BYTE   W96
// 091   ----------------------------------------
 BYTE   W96
// 092   ----------------------------------------
 BYTE   W66
 BYTE   GoTo
  POIN2 InanimateDream_Label_11_0140372A
// 093   ----------------------------------------
 BYTE   W03
 BYTE   FINE

//**************** Track 13 (Midi-Chn.12) ****************//

InanimateDream_013:
// 000   ----------------------------------------
 BYTE   KEYSH   InanimateDream_key+0
InanimateDream_Label_12_01403842:
 BYTE   VOICE   30
 BYTE   PAN   c_v+0
 BYTE   VOL   26*InanimateDream_mvl/mxv
 BYTE   N48  Cs1  v100
 BYTE   W48
 BYTE   N36  Ds1
 BYTE   W36
 BYTE   N60  En1
 BYTE   W12
// 001   ----------------------------------------
 BYTE   W48
 BYTE   N48  Fs1
 BYTE   W48
// 002   ----------------------------------------
InanimateDream_Label_12_01403856:
 BYTE   N48  Cs1  v100
 BYTE   W48
 BYTE   N36  Ds1
 BYTE   W36
 BYTE   N60  En1
 BYTE   W12
 BYTE   PEND 
// 003   ----------------------------------------
 BYTE   W48
 BYTE   N48  Fs1
 BYTE   W48
 BYTE   PATT
  POIN2 InanimateDream_Label_12_01403856
// 004   ----------------------------------------
 BYTE   W48
 BYTE   N48  Fs1  v100
 BYTE   W48
 BYTE   PATT
  POIN2 InanimateDream_Label_12_01403856
// 005   ----------------------------------------
 BYTE   W48
 BYTE   N48  Fs1  v100
 BYTE   W48
 BYTE   PATT
  POIN2 InanimateDream_Label_12_01403856
// 006   ----------------------------------------
 BYTE   W48
 BYTE   N48  Fs1  v100
 BYTE   W48
// 007   ----------------------------------------
 BYTE   Cs1
 BYTE   W48
 BYTE   N36  Ds1
 BYTE   W36
 BYTE   N12  En1
 BYTE   W12
// 008   ----------------------------------------
 BYTE   W44
 BYTE   W03
 BYTE   W01
 BYTE   W48
// 009   ----------------------------------------
 BYTE   W96
// 010   ----------------------------------------
 BYTE   W96
// 011   ----------------------------------------
 BYTE   W96
// 012   ----------------------------------------
 BYTE   W96
// 013   ----------------------------------------
 BYTE   W96
// 014   ----------------------------------------
 BYTE   W96
// 015   ----------------------------------------
 BYTE   W96
// 016   ----------------------------------------
 BYTE   W96
// 017   ----------------------------------------
InanimateDream_Label_12_01403897:
 BYTE   N06  Gs1  v060
 BYTE   W06
 BYTE   N06
 BYTE   W06
 BYTE   Ds2  v100
 BYTE   W06
 BYTE   Gs1  v060
 BYTE   W06
 BYTE   N06
 BYTE   W06
 BYTE   N06
 BYTE   W06
 BYTE   Ds2  v100
 BYTE   W06
 BYTE   Gs1  v060
 BYTE   W06
 BYTE   N06
 BYTE   W06
 BYTE   N06
 BYTE   W06
 BYTE   Ds2  v100
 BYTE   W06
 BYTE   Gs1  v060
 BYTE   W06
 BYTE   N06
 BYTE   W06
 BYTE   N06
 BYTE   W06
 BYTE   Ds2  v100
 BYTE   W06
 BYTE   Gs1  v060
 BYTE   W06
 BYTE   PEND 
// 018   ----------------------------------------
InanimateDream_Label_12_014038C2:
 BYTE   N06  Fs1  v060
 BYTE   W06
 BYTE   N06
 BYTE   W06
 BYTE   Ds2  v100
 BYTE   W06
 BYTE   Fs1  v060
 BYTE   W06
 BYTE   N06
 BYTE   W06
 BYTE   N06
 BYTE   W06
 BYTE   Ds2  v100
 BYTE   W06
 BYTE   Fs1  v060
 BYTE   W06
 BYTE   N06
 BYTE   W06
 BYTE   N06
 BYTE   W06
 BYTE   Ds2  v100
 BYTE   W06
 BYTE   Fs1  v060
 BYTE   W06
 BYTE   N06
 BYTE   W06
 BYTE   N06
 BYTE   W06
 BYTE   Ds2  v100
 BYTE   W06
 BYTE   Fs1  v060
 BYTE   W06
 BYTE   PEND 
// 019   ----------------------------------------
InanimateDream_Label_12_014038ED:
 BYTE   N06  Fn1  v060
 BYTE   W06
 BYTE   N06
 BYTE   W06
 BYTE   Cs2  v100
 BYTE   W06
 BYTE   Fn1  v060
 BYTE   W06
 BYTE   N06
 BYTE   W06
 BYTE   N06
 BYTE   W06
 BYTE   Cs2  v100
 BYTE   W06
 BYTE   Fn1  v060
 BYTE   W06
 BYTE   N06
 BYTE   W06
 BYTE   N06
 BYTE   W06
 BYTE   Cs2  v100
 BYTE   W06
 BYTE   Fn1  v060
 BYTE   W06
 BYTE   N06
 BYTE   W06
 BYTE   N06
 BYTE   W06
 BYTE   Cs2  v100
 BYTE   W06
 BYTE   Fn1  v060
 BYTE   W06
 BYTE   PEND 
// 020   ----------------------------------------
 BYTE   En1
 BYTE   W06
 BYTE   N06
 BYTE   W06
 BYTE   Bn1  v100
 BYTE   W06
 BYTE   En1  v060
 BYTE   W06
 BYTE   N06
 BYTE   W06
 BYTE   N06
 BYTE   W06
 BYTE   Bn1  v100
 BYTE   W06
 BYTE   En1  v060
 BYTE   W06
 BYTE   N06
 BYTE   W06
 BYTE   N06
 BYTE   W06
 BYTE   Bn1  v100
 BYTE   W06
 BYTE   En1  v060
 BYTE   W06
 BYTE   N06
 BYTE   W06
 BYTE   N06
 BYTE   W06
 BYTE   Bn1  v100
 BYTE   W06
 BYTE   En1  v060
 BYTE   W06
 BYTE   PATT
  POIN2 InanimateDream_Label_12_01403897
 BYTE   PATT
  POIN2 InanimateDream_Label_12_014038C2
 BYTE   PATT
  POIN2 InanimateDream_Label_12_014038ED
// 021   ----------------------------------------
 BYTE   N06  En1  v060
 BYTE   W06
 BYTE   N06
 BYTE   W06
 BYTE   Bn1  v100
 BYTE   W06
 BYTE   En1  v060
 BYTE   W06
 BYTE   N06
 BYTE   W06
 BYTE   N06
 BYTE   W06
 BYTE   Bn1  v100
 BYTE   W06
 BYTE   En1  v060
 BYTE   W06
 BYTE   BEND   c_v+0
 BYTE   N48  En2  v100
 BYTE   W01
 BYTE   BEND   c_v+0
 BYTE   W01
 BYTE   Dn3
 BYTE   W02
 BYTE   Bn2
 BYTE   W01
 BYTE   As2
 BYTE   W01
 BYTE   An2
 BYTE   W01
 BYTE   Gn2
 BYTE   W02
 BYTE   Fs2
 BYTE   W01
 BYTE   Fn2
 BYTE   W02
 BYTE   Ds2
 BYTE   W01
 BYTE   Cs2
 BYTE   W01
 BYTE   Cn2
 BYTE   W01
 BYTE   As1
 BYTE   W01
 BYTE   An1
 BYTE   W01
 BYTE   Gn1
 BYTE   W01
 BYTE   Fn1
 BYTE   W01
 BYTE   Ds1
 BYTE   W01
 BYTE   Bn0
 BYTE   W01
 BYTE   Gs0
 BYTE   W01
 BYTE   Fs0
 BYTE   W01
 BYTE   En0
 BYTE   W01
 BYTE   Cs0
 BYTE   W01
 BYTE   BnM1
 BYTE   W01
 BYTE   GsM1
 BYTE   W01
 BYTE   FnM1
 BYTE   W01
 BYTE   EnM1
 BYTE   W02
 BYTE   DnM1
 BYTE   W01
 BYTE   CsM1
 BYTE   W01
 BYTE   AnM2
 BYTE   W01
 BYTE   GsM2
 BYTE   W01
 BYTE   GnM2
 BYTE   W01
 BYTE   FnM2
 BYTE   W01
 BYTE   DsM2
 BYTE   W01
 BYTE   CsM2
 BYTE   W10
 BYTE   En3
 BYTE   W01
// 022   ----------------------------------------
InanimateDream_Label_12_014039B0:
 BYTE   N06  Gn1  v060
 BYTE   W06
 BYTE   N06
 BYTE   W06
 BYTE   Dn2  v100
 BYTE   W06
 BYTE   Gn1  v060
 BYTE   W06
 BYTE   N06
 BYTE   W06
 BYTE   Dn2  v100
 BYTE   W06
 BYTE   Gn1  v060
 BYTE   W06
 BYTE   N06
 BYTE   W06
 BYTE   As1
 BYTE   W06
 BYTE   N06
 BYTE   W06
 BYTE   En2  v100
 BYTE   W06
 BYTE   As1  v060
 BYTE   W06
 BYTE   N06
 BYTE   W06
 BYTE   En2  v100
 BYTE   W06
 BYTE   As1  v060
 BYTE   W06
 BYTE   N06
 BYTE   W06
 BYTE   PEND 
// 023   ----------------------------------------
InanimateDream_Label_12_014039DB:
 BYTE   N06  Bn1  v060
 BYTE   W06
 BYTE   N06
 BYTE   W06
 BYTE   Fs2  v100
 BYTE   W06
 BYTE   Bn1  v060
 BYTE   W06
 BYTE   N06
 BYTE   W06
 BYTE   Fs2  v100
 BYTE   W06
 BYTE   Bn1  v060
 BYTE   W06
 BYTE   N06
 BYTE   W06
 BYTE   N06
 BYTE   W06
 BYTE   N06
 BYTE   W06
 BYTE   Fs2  v100
 BYTE   W06
 BYTE   Bn1  v060
 BYTE   W06
 BYTE   An1
 BYTE   W06
 BYTE   En2  v100
 BYTE   W06
 BYTE   An1  v060
 BYTE   W06
 BYTE   N06
 BYTE   W06
 BYTE   PEND 
 BYTE   PATT
  POIN2 InanimateDream_Label_12_014039B0
 BYTE   PATT
  POIN2 InanimateDream_Label_12_014039DB
 BYTE   PATT
  POIN2 InanimateDream_Label_12_014039B0
 BYTE   PATT
  POIN2 InanimateDream_Label_12_014039DB
 BYTE   PATT
  POIN2 InanimateDream_Label_12_014039B0
 BYTE   PATT
  POIN2 InanimateDream_Label_12_014039DB
 BYTE   PATT
  POIN2 InanimateDream_Label_12_014039B0
 BYTE   PATT
  POIN2 InanimateDream_Label_12_014039DB
 BYTE   PATT
  POIN2 InanimateDream_Label_12_014039B0
 BYTE   PATT
  POIN2 InanimateDream_Label_12_014039DB
 BYTE   PATT
  POIN2 InanimateDream_Label_12_014039B0
 BYTE   PATT
  POIN2 InanimateDream_Label_12_014039DB
 BYTE   PATT
  POIN2 InanimateDream_Label_12_014039B0
 BYTE   PATT
  POIN2 InanimateDream_Label_12_014039DB
// 024   ----------------------------------------
 BYTE   W96
// 025   ----------------------------------------
 BYTE   W96
// 026   ----------------------------------------
 BYTE   W96
// 027   ----------------------------------------
 BYTE   W96
// 028   ----------------------------------------
 BYTE   W96
// 029   ----------------------------------------
 BYTE   W96
// 030   ----------------------------------------
 BYTE   W96
// 031   ----------------------------------------
 BYTE   W96
// 032   ----------------------------------------
 BYTE   W96
// 033   ----------------------------------------
 BYTE   W96
// 034   ----------------------------------------
 BYTE   W96
// 035   ----------------------------------------
 BYTE   W72
 BYTE   BEND   c_v+0
 BYTE   N48  Ds2  v100
 BYTE   W01
 BYTE   BEND   c_v+0
 BYTE   W01
 BYTE   Dn3
 BYTE   W02
 BYTE   Bn2
 BYTE   W01
 BYTE   As2
 BYTE   W01
 BYTE   An2
 BYTE   W01
 BYTE   Gn2
 BYTE   W02
 BYTE   Fs2
 BYTE   W01
 BYTE   Fn2
 BYTE   W02
 BYTE   Ds2
 BYTE   W01
 BYTE   Cs2
 BYTE   W01
 BYTE   Cn2
 BYTE   W01
 BYTE   As1
 BYTE   W01
 BYTE   An1
 BYTE   W01
 BYTE   Gn1
 BYTE   W01
 BYTE   Fn1
 BYTE   W01
 BYTE   Ds1
 BYTE   W01
 BYTE   Bn0
 BYTE   W01
 BYTE   Gs0
 BYTE   W01
 BYTE   Fs0
 BYTE   W01
 BYTE   En0
 BYTE   W01
// 036   ----------------------------------------
 BYTE   Cs0
 BYTE   W01
 BYTE   BnM1
 BYTE   W01
 BYTE   GsM1
 BYTE   W01
 BYTE   FnM1
 BYTE   W01
 BYTE   EnM1
 BYTE   W02
 BYTE   DnM1
 BYTE   W01
 BYTE   CsM1
 BYTE   W01
 BYTE   AnM2
 BYTE   W01
 BYTE   GsM2
 BYTE   W01
 BYTE   GnM2
 BYTE   W01
 BYTE   FnM2
 BYTE   W01
 BYTE   DsM2
 BYTE   W01
 BYTE   CsM2
 BYTE   W10
 BYTE   En3
 BYTE   W01
 BYTE   N48  Fs1
 BYTE   W48
 BYTE   An1
 BYTE   W24
// 037   ----------------------------------------
 BYTE   W24
 BYTE   N72  As1
 BYTE   W72
// 038   ----------------------------------------
InanimateDream_Label_12_01403AAC:
 BYTE   N24  Gs1  v100
 BYTE   W24
 BYTE   N48  Fs1
 BYTE   W48
 BYTE   An1
 BYTE   W24
 BYTE   PEND 
// 039   ----------------------------------------
 BYTE   W24
 BYTE   N72  As1
 BYTE   W72
 BYTE   PATT
  POIN2 InanimateDream_Label_12_01403AAC
// 040   ----------------------------------------
 BYTE   W24
 BYTE   N72  As1  v100
 BYTE   W72
 BYTE   PATT
  POIN2 InanimateDream_Label_12_01403AAC
// 041   ----------------------------------------
 BYTE   W24
 BYTE   N72  As1  v100
 BYTE   W72
// 042   ----------------------------------------
 BYTE   N24  Gs1
 BYTE   W24
 BYTE   N06  Fs1  v060
 BYTE   W06
 BYTE   N06
 BYTE   W06
 BYTE   Cs2  v100
 BYTE   W06
 BYTE   Fs1  v060
 BYTE   W06
 BYTE   N06
 BYTE   W06
 BYTE   Cs2  v100
 BYTE   W06
 BYTE   Fs1  v060
 BYTE   W06
 BYTE   N06
 BYTE   W06
 BYTE   An1
 BYTE   W06
 BYTE   N06
 BYTE   W06
 BYTE   Ds2  v100
 BYTE   W06
 BYTE   An1  v060
 BYTE   W06
// 043   ----------------------------------------
InanimateDream_Label_12_01403AF1:
 BYTE   N06  An1  v060
 BYTE   W06
 BYTE   Ds2  v100
 BYTE   W06
 BYTE   An1  v060
 BYTE   W06
 BYTE   N06
 BYTE   W06
 BYTE   As1
 BYTE   W06
 BYTE   N06
 BYTE   W06
 BYTE   Fn2  v100
 BYTE   W06
 BYTE   As1  v060
 BYTE   W06
 BYTE   N06
 BYTE   W06
 BYTE   Fn2  v100
 BYTE   W06
 BYTE   As1  v060
 BYTE   W06
 BYTE   N06
 BYTE   W06
 BYTE   N06
 BYTE   W06
 BYTE   N06
 BYTE   W06
 BYTE   Fn2  v100
 BYTE   W06
 BYTE   As1  v060
 BYTE   W06
 BYTE   PEND 
// 044   ----------------------------------------
InanimateDream_Label_12_01403B1C:
 BYTE   N06  Gs1  v060
 BYTE   W06
 BYTE   Ds2  v100
 BYTE   W06
 BYTE   Gs1  v060
 BYTE   W06
 BYTE   N06
 BYTE   W06
 BYTE   Fs1
 BYTE   W06
 BYTE   N06
 BYTE   W06
 BYTE   Cs2  v100
 BYTE   W06
 BYTE   Fs1  v060
 BYTE   W06
 BYTE   N06
 BYTE   W06
 BYTE   Cs2  v100
 BYTE   W06
 BYTE   Fs1  v060
 BYTE   W06
 BYTE   N06
 BYTE   W06
 BYTE   An1
 BYTE   W06
 BYTE   N06
 BYTE   W06
 BYTE   Ds2  v100
 BYTE   W06
 BYTE   An1  v060
 BYTE   W06
 BYTE   PEND 
 BYTE   PATT
  POIN2 InanimateDream_Label_12_01403AF1
 BYTE   PATT
  POIN2 InanimateDream_Label_12_01403B1C
 BYTE   PATT
  POIN2 InanimateDream_Label_12_01403AF1
 BYTE   PATT
  POIN2 InanimateDream_Label_12_01403B1C
 BYTE   PATT
  POIN2 InanimateDream_Label_12_01403AF1
// 045   ----------------------------------------
 BYTE   N06  Gs1  v060
 BYTE   W06
 BYTE   Ds2  v100
 BYTE   W06
 BYTE   Gs1  v060
 BYTE   W06
 BYTE   N06
 BYTE   W06
 BYTE   As1
 BYTE   W06
 BYTE   N06
 BYTE   W06
 BYTE   Fn2  v100
 BYTE   W06
 BYTE   As1  v060
 BYTE   W06
 BYTE   N06
 BYTE   W06
 BYTE   Fn2  v100
 BYTE   W06
 BYTE   As1  v060
 BYTE   W06
 BYTE   N06
 BYTE   W06
 BYTE   Cs2
 BYTE   W06
 BYTE   N06
 BYTE   W06
 BYTE   Gn2  v100
 BYTE   W06
 BYTE   Cs2  v060
 BYTE   W06
// 046   ----------------------------------------
InanimateDream_Label_12_01403B8A:
 BYTE   N06  Cs2  v060
 BYTE   W06
 BYTE   Gn2  v100
 BYTE   W06
 BYTE   Cs2  v060
 BYTE   W06
 BYTE   N06
 BYTE   W06
 BYTE   Dn2
 BYTE   W06
 BYTE   N06
 BYTE   W06
 BYTE   An2  v100
 BYTE   W06
 BYTE   Dn2  v060
 BYTE   W06
 BYTE   N06
 BYTE   W06
 BYTE   An2  v100
 BYTE   W06
 BYTE   Dn2  v060
 BYTE   W06
 BYTE   N06
 BYTE   W06
 BYTE   N06
 BYTE   W06
 BYTE   N06
 BYTE   W06
 BYTE   An2  v100
 BYTE   W06
 BYTE   Dn2  v060
 BYTE   W06
 BYTE   PEND 
// 047   ----------------------------------------
InanimateDream_Label_12_01403BB5:
 BYTE   N06  Cn2  v060
 BYTE   W06
 BYTE   Gn2  v100
 BYTE   W06
 BYTE   Cn2  v060
 BYTE   W06
 BYTE   N06
 BYTE   W06
 BYTE   As1
 BYTE   W06
 BYTE   N06
 BYTE   W06
 BYTE   Fn2  v100
 BYTE   W06
 BYTE   As1  v060
 BYTE   W06
 BYTE   N06
 BYTE   W06
 BYTE   Fn2  v100
 BYTE   W06
 BYTE   As1  v060
 BYTE   W06
 BYTE   N06
 BYTE   W06
 BYTE   Cs2
 BYTE   W06
 BYTE   N06
 BYTE   W06
 BYTE   Gn2  v100
 BYTE   W06
 BYTE   Cs2  v060
 BYTE   W06
 BYTE   PEND 
 BYTE   PATT
  POIN2 InanimateDream_Label_12_01403B8A
 BYTE   PATT
  POIN2 InanimateDream_Label_12_01403BB5
 BYTE   PATT
  POIN2 InanimateDream_Label_12_01403B8A
 BYTE   PATT
  POIN2 InanimateDream_Label_12_01403BB5
 BYTE   PATT
  POIN2 InanimateDream_Label_12_01403B8A
 BYTE   PATT
  POIN2 InanimateDream_Label_12_01403BB5
 BYTE   PATT
  POIN2 InanimateDream_Label_12_01403B8A
 BYTE   PATT
  POIN2 InanimateDream_Label_12_01403BB5
 BYTE   PATT
  POIN2 InanimateDream_Label_12_01403B8A
 BYTE   PATT
  POIN2 InanimateDream_Label_12_01403BB5
 BYTE   PATT
  POIN2 InanimateDream_Label_12_01403B8A
 BYTE   PATT
  POIN2 InanimateDream_Label_12_01403BB5
 BYTE   PATT
  POIN2 InanimateDream_Label_12_01403B8A
// 048   ----------------------------------------
 BYTE   N06  Cn2  v060
 BYTE   W06
 BYTE   Gn2  v100
 BYTE   W06
 BYTE   Cn2  v060
 BYTE   W06
 BYTE   N06
 BYTE   W06
 BYTE   Cs1
 BYTE   W06
 BYTE   N06
 BYTE   W06
 BYTE   Gs1  v100
 BYTE   W06
 BYTE   Cs1  v060
 BYTE   W06
 BYTE   N06
 BYTE   W06
 BYTE   Gs1  v100
 BYTE   W06
 BYTE   Cs1  v060
 BYTE   W06
 BYTE   N06
 BYTE   W06
 BYTE   Ds1
 BYTE   W06
 BYTE   N06
 BYTE   W06
 BYTE   As1  v100
 BYTE   W06
 BYTE   Ds1  v060
 BYTE   W06
// 049   ----------------------------------------
InanimateDream_Label_12_01403C4B:
 BYTE   N06  Ds1  v060
 BYTE   W06
 BYTE   As1  v100
 BYTE   W06
 BYTE   En1  v060
 BYTE   W06
 BYTE   N06
 BYTE   W06
 BYTE   Bn1  v100
 BYTE   W06
 BYTE   En1  v060
 BYTE   W06
 BYTE   N06
 BYTE   W06
 BYTE   Bn1  v100
 BYTE   W06
 BYTE   En1  v060
 BYTE   W06
 BYTE   N06
 BYTE   W06
 BYTE   N06
 BYTE   W06
 BYTE   N06
 BYTE   W06
 BYTE   Fs1
 BYTE   W06
 BYTE   N06
 BYTE   W06
 BYTE   Cs2  v100
 BYTE   W06
 BYTE   Fs1  v060
 BYTE   W06
 BYTE   PEND 
// 050   ----------------------------------------
InanimateDream_Label_12_01403C76:
 BYTE   N06  Fs1  v060
 BYTE   W06
 BYTE   Cs2  v100
 BYTE   W06
 BYTE   Fs1  v060
 BYTE   W06
 BYTE   N06
 BYTE   W06
 BYTE   Cs1
 BYTE   W06
 BYTE   N06
 BYTE   W06
 BYTE   Gs1  v100
 BYTE   W06
 BYTE   Cs1  v060
 BYTE   W06
 BYTE   N06
 BYTE   W06
 BYTE   Gs1  v100
 BYTE   W06
 BYTE   Cs1  v060
 BYTE   W06
 BYTE   N06
 BYTE   W06
 BYTE   Ds1
 BYTE   W06
 BYTE   N06
 BYTE   W06
 BYTE   As1  v100
 BYTE   W06
 BYTE   Ds1  v060
 BYTE   W06
 BYTE   PEND 
 BYTE   PATT
  POIN2 InanimateDream_Label_12_01403C4B
 BYTE   PATT
  POIN2 InanimateDream_Label_12_01403C76
 BYTE   PATT
  POIN2 InanimateDream_Label_12_01403C4B
 BYTE   PATT
  POIN2 InanimateDream_Label_12_01403C76
 BYTE   PATT
  POIN2 InanimateDream_Label_12_01403C4B
 BYTE   PATT
  POIN2 InanimateDream_Label_12_01403C76
 BYTE   PATT
  POIN2 InanimateDream_Label_12_01403C4B
 BYTE   PATT
  POIN2 InanimateDream_Label_12_01403C76
// 051   ----------------------------------------
 BYTE   N06  Ds1  v060
 BYTE   W06
 BYTE   As1  v100
 BYTE   W06
 BYTE   En1  v060
 BYTE   W06
 BYTE   N06
 BYTE   W48
 BYTE   GoTo
  POIN2 InanimateDream_Label_12_01403842
// 052   ----------------------------------------
 BYTE   W03
 BYTE   FINE

//******************************************************//
	ALIGN 4

songInanimateDream:
	BYTE	13	// NumTrks
	BYTE	0	// NumBlks
	BYTE	InanimateDream_pri	// Priority
	BYTE	InanimateDream_rev	// Reverb.
    
	POIN2	InanimateDream_grp
    
	POIN2	InanimateDream_001
	POIN2	InanimateDream_002
	POIN2	InanimateDream_003
	POIN2	InanimateDream_004
	POIN2	InanimateDream_005
	POIN2	InanimateDream_006
	POIN2	InanimateDream_007
	POIN2	InanimateDream_008
	POIN2	InanimateDream_009
	POIN2	InanimateDream_010
	POIN2	InanimateDream_011
	POIN2	InanimateDream_012
	POIN2	InanimateDream_013

	
