//Event file generated from Sappy .s format.
	#include "MPlayDef.event"

	#define	IsaacBattle_grp  voicegroup000
	#define	IsaacBattle_pri  0
	#define	IsaacBattle_rev  0
	#define	IsaacBattle_mvl  127
	#define	IsaacBattle_key  0
	#define	IsaacBattle_tbs  1
	#define	IsaacBattle_exg  0
	#define	IsaacBattle_cmp  1

	// .rodata
	//	song06
	ALIGN 4


//**************** Track 1 (Midi-Chn.0) ****************//

IsaacBattle_001:
// 000   ----------------------------------------
 BYTE   KEYSH   IsaacBattle_key+0
Label_IsaacBattle_0_01468AEA:
 BYTE   TEMPO   120*IsaacBattle_tbs/2
 BYTE   VOICE   56
 BYTE   VOL   60*IsaacBattle_mvl/mxv
 BYTE   PAN   c_v+0
 BYTE   VOL   52*IsaacBattle_mvl/mxv
 BYTE   N03  Dn3  v112
 BYTE   N03  Fn3
 BYTE   W04
 BYTE   N03
 BYTE   N03  Gs3
 BYTE   W04
 BYTE   N03
 BYTE   N03  Bn3
 BYTE   W04
 BYTE   N03
 BYTE   N03  Fn4
 BYTE   W04
 BYTE   Gs3
 BYTE   N03  Bn3
 BYTE   W04
 BYTE   N03
 BYTE   N03  Fn4
 BYTE   W04
 BYTE   Ds3
 BYTE   N03  Fs3
 BYTE   W04
 BYTE   N03
 BYTE   N03  An3
 BYTE   W04
 BYTE   N03
 BYTE   N03  Cn4
 BYTE   W04
 BYTE   Fs3
 BYTE   N03  An3
 BYTE   W04
 BYTE   N03
 BYTE   N03  Cn4
 BYTE   W04
 BYTE   N03
 BYTE   N03  Fs4
 BYTE   W04
 BYTE   Fn3
 BYTE   N03  Gs3
 BYTE   W04
 BYTE   N03
 BYTE   N03  Bn3
 BYTE   W04
 BYTE   N03
 BYTE   N03  Dn4
 BYTE   W04
 BYTE   Gs3
 BYTE   N03  Bn3
 BYTE   W04
 BYTE   N03
 BYTE   N03  Dn4
 BYTE   W04
 BYTE   N03
 BYTE   N03  Gs4
 BYTE   W04
 BYTE   An3
 BYTE   N03  Cn4
 BYTE   W04
 BYTE   N03
 BYTE   N03  Ds4
 BYTE   W04
 BYTE   N03
 BYTE   N03  An4
 BYTE   W04
 BYTE   N03
 BYTE   N03  Cn5
 BYTE   W04
 BYTE   N03
 BYTE   N03  Ds5
 BYTE   W04
 BYTE   Cn5
 BYTE   N03  Fs5
 BYTE   W04
// 001   ----------------------------------------
Label_IsaacBattle_0_01468B56:
 BYTE   VOL   60*IsaacBattle_mvl/mxv
 BYTE   N30  Cn4  v112
 BYTE   N30  En4
 BYTE   W30
 BYTE   N06  Bn3
 BYTE   N06  Dn4
 BYTE   W06
 BYTE   An3
 BYTE   N06  Cn4
 BYTE   W06
 BYTE   Bn3
 BYTE   N06  Dn4
 BYTE   W06
 BYTE   PEND 
Label_IsaacBattle_0_01468B6C:
 BYTE   N24  Cn4  v112
 BYTE   N24  En4
 BYTE   W24
 BYTE   N24
 BYTE   N24  An4
 BYTE   W24
 BYTE   PEND 
// 002   ----------------------------------------
Label_IsaacBattle_0_01468B77:
 BYTE   N30  Dn4  v112
 BYTE   N30  Gn4
 BYTE   W30
 BYTE   N06  Dn4
 BYTE   N06  Fn4
 BYTE   W06
 BYTE   Cn4
 BYTE   N06  En4
 BYTE   W06
 BYTE   Bn3
 BYTE   N06  Dn4
 BYTE   W06
 BYTE   PEND 
Label_IsaacBattle_0_01468B8B:
 BYTE   N24  An3  v112
 BYTE   N24  Cn4
 BYTE   W24
 BYTE   Bn3
 BYTE   N24  Dn4
 BYTE   W24
 BYTE   PEND 
// 003   ----------------------------------------
Label_IsaacBattle_0_01468B96:
 BYTE   N30  Bn3  v112
 BYTE   N30  Ds4
 BYTE   W30
 BYTE   N06  Bn3
 BYTE   N06  Ds4
 BYTE   W06
 BYTE   Cs4
 BYTE   N06  En4
 BYTE   W06
 BYTE   Ds4
 BYTE   N06  Fs4
 BYTE   W06
 BYTE   PEND 
 BYTE   N48  Bn3
 BYTE   N48  En4
 BYTE   W48
// 004   ----------------------------------------
Label_IsaacBattle_0_01468BAF:
 BYTE   N30  Dn4  v112
 BYTE   N30  Fs4
 BYTE   W30
 BYTE   N06  Dn4
 BYTE   N06  Fs4
 BYTE   W06
 BYTE   Dn4
 BYTE   N06  Gn4
 BYTE   W06
 BYTE   Dn4
 BYTE   N06  An4
 BYTE   W06
 BYTE   PEND 
Label_IsaacBattle_0_01468BC3:
 BYTE   N24  Dn4  v112
 BYTE   N24  Gn4
 BYTE   W24
 BYTE   En4
 BYTE   N24  Gs4
 BYTE   W24
 BYTE   PEND 
// 005   ----------------------------------------
Label_IsaacBattle_0_01468BCE:
 BYTE   N04  En4  v112
 BYTE   N04  An4
 BYTE   W06
 BYTE   Cn4
 BYTE   N04  En4
 BYTE   W06
 BYTE   N04
 BYTE   N04  An4
 BYTE   W06
 BYTE   En4
 BYTE   N04  Bn4
 BYTE   W06
 BYTE   Cn4
 BYTE   N04  En4
 BYTE   W06
 BYTE   N04
 BYTE   N04  Bn4
 BYTE   W06
 BYTE   N17  An4
 BYTE   N17  Cn5
 BYTE   W12
 BYTE   PEND 
Label_IsaacBattle_0_01468BEE:
 BYTE   W06
 BYTE   N04  Cn5  v112
 BYTE   N04  En5
 BYTE   W06
 BYTE   Bn4
 BYTE   N04  Dn5
 BYTE   W06
 BYTE   An4
 BYTE   N04  Cn5
 BYTE   W06
 BYTE   Gn4
 BYTE   N04  Bn4
 BYTE   W06
 BYTE   Fn4
 BYTE   N04  An4
 BYTE   W06
 BYTE   Gn4
 BYTE   N04  Bn4
 BYTE   W06
 BYTE   An4
 BYTE   N04  Cn5
 BYTE   W06
 BYTE   PEND 
// 006   ----------------------------------------
Label_IsaacBattle_0_01468C0E:
 BYTE   N17  Gn4  v112
 BYTE   N17  Dn5
 BYTE   W18
 BYTE   Dn4
 BYTE   N17  Gn4
 BYTE   W18
 BYTE   N11
 BYTE   N11  Dn5
 BYTE   W12
 BYTE   PEND 
Label_IsaacBattle_0_01468C1D:
 BYTE   N17  Fn4  v112
 BYTE   N17  Cn5
 BYTE   W18
 BYTE   Fn4
 BYTE   N17  Bn4
 BYTE   W18
 BYTE   N11  Fn4
 BYTE   N11  An4
 BYTE   W12
 BYTE   PEND 
// 007   ----------------------------------------
 BYTE   N42  En4
 BYTE   N42  Bn4
 BYTE   W48
Label_IsaacBattle_0_01468C32:
 BYTE   N17  En4  v112
 BYTE   N17  Gs4
 BYTE   W18
 BYTE   Fn4
 BYTE   N17  An4
 BYTE   W18
 BYTE   N11  Gs4
 BYTE   N11  Bn4
 BYTE   W12
 BYTE   PEND 
// 008   ----------------------------------------
Label_IsaacBattle_0_01468C42:
 BYTE   N04  An4  v112
 BYTE   N04  Cn5
 BYTE   W06
 BYTE   En4
 BYTE   N04  An4
 BYTE   W06
 BYTE   Cn4
 BYTE   N04  En4
 BYTE   W06
 BYTE   Gn4
 BYTE   N04  Bn4
 BYTE   W06
 BYTE   Dn4
 BYTE   N04  Gn4
 BYTE   W06
 BYTE   Bn3
 BYTE   N04  Dn4
 BYTE   W06
 BYTE   N32  Fn4
 BYTE   N32  An4
 BYTE   W12
 BYTE   PEND 
Label_IsaacBattle_0_01468C62:
 BYTE   W24
 BYTE   N11  En4  v112
 BYTE   N11  Gn4
 BYTE   W12
 BYTE   Fn4
 BYTE   N11  An4
 BYTE   W12
 BYTE   PEND 
 BYTE   PATT
  POIN2 Label_IsaacBattle_0_01468B56
 BYTE   PATT
  POIN2 Label_IsaacBattle_0_01468B6C
 BYTE   PATT
  POIN2 Label_IsaacBattle_0_01468B77
 BYTE   PATT
  POIN2 Label_IsaacBattle_0_01468B8B
 BYTE   PATT
  POIN2 Label_IsaacBattle_0_01468B96
// 009   ----------------------------------------
 BYTE   N48  Bn3  v112
 BYTE   N48  En4
 BYTE   W48
 BYTE   PATT
  POIN2 Label_IsaacBattle_0_01468BAF
 BYTE   PATT
  POIN2 Label_IsaacBattle_0_01468BC3
 BYTE   PATT
  POIN2 Label_IsaacBattle_0_01468BCE
 BYTE   PATT
  POIN2 Label_IsaacBattle_0_01468BEE
 BYTE   PATT
  POIN2 Label_IsaacBattle_0_01468C0E
 BYTE   PATT
  POIN2 Label_IsaacBattle_0_01468C1D
// 010   ----------------------------------------
 BYTE   N42  En4  v112
 BYTE   N42  Bn4
 BYTE   W48
 BYTE   PATT
  POIN2 Label_IsaacBattle_0_01468C32
// 011   ----------------------------------------
 BYTE   W48
 BYTE   W48
// 012   ----------------------------------------
 BYTE   W48
 BYTE   W48
// 013   ----------------------------------------
 BYTE   W48
 BYTE   W48
// 014   ----------------------------------------
 BYTE   W48
 BYTE   W48
// 015   ----------------------------------------
Label_IsaacBattle_0_01468CBE:
 BYTE   N05  Cn4  v112
 BYTE   W06
 BYTE   Bn3
 BYTE   W06
 BYTE   N32  Cn4
 BYTE   W36
 BYTE   PEND 
Label_IsaacBattle_0_01468CC8:
 BYTE   N17  Bn3  v112
 BYTE   W18
 BYTE   An3
 BYTE   W18
 BYTE   N11  Gn3
 BYTE   W12
 BYTE   PEND 
// 016   ----------------------------------------
 BYTE   N90  An3
 BYTE   W48
 BYTE   W48
 BYTE   PATT
  POIN2 Label_IsaacBattle_0_01468CBE
// 017   ----------------------------------------
Label_IsaacBattle_0_01468CDB:
 BYTE   N17  Bn3  v112
 BYTE   W18
 BYTE   Cn4
 BYTE   W18
 BYTE   N11  Dn4
 BYTE   W12
 BYTE   PEND 
 BYTE   N90  An3
 BYTE   W48
// 018   ----------------------------------------
 BYTE   W48
 BYTE   PATT
  POIN2 Label_IsaacBattle_0_01468CBE
 BYTE   PATT
  POIN2 Label_IsaacBattle_0_01468CC8
// 019   ----------------------------------------
 BYTE   N90  An3  v112
 BYTE   W48
 BYTE   W48
 BYTE   PATT
  POIN2 Label_IsaacBattle_0_01468CBE
 BYTE   PATT
  POIN2 Label_IsaacBattle_0_01468CDB
// 020   ----------------------------------------
 BYTE   N90  An3  v112
 BYTE   W48
 BYTE   W48
// 021   ----------------------------------------
 BYTE   W48
 BYTE   W48
// 022   ----------------------------------------
 BYTE   W48
 BYTE   W48
// 023   ----------------------------------------
 BYTE   W48
 BYTE   W48
// 024   ----------------------------------------
 BYTE   W48
 BYTE   W48
// 025   ----------------------------------------
Label_IsaacBattle_0_01468D0F:
 BYTE   BEND   c_v-62
 BYTE   N90  Cs4  v112
 BYTE   W01
 BYTE   BEND   c_v-59
 BYTE   W01
 BYTE   GnM2
 BYTE   W01
 BYTE   AsM2
 BYTE   W01
 BYTE   CsM1
 BYTE   W01
 BYTE   DsM1
 BYTE   W01
 BYTE   FsM1
 BYTE   W01
 BYTE   AnM1
 BYTE   W01
 BYTE   BnM1
 BYTE   W01
 BYTE   Dn0
 BYTE   W01
 BYTE   Fn0
 BYTE   W01
 BYTE   Gn0
 BYTE   W01
 BYTE   As0
 BYTE   W01
 BYTE   Cs1
 BYTE   W01
 BYTE   Ds1
 BYTE   W01
 BYTE   Fs1
 BYTE   W01
 BYTE   An1
 BYTE   W01
 BYTE   Bn1
 BYTE   W01
 BYTE   Dn2
 BYTE   W01
 BYTE   Fn2
 BYTE   W01
 BYTE   Gn2
 BYTE   W01
 BYTE   As2
 BYTE   W01
 BYTE   Cs3
 BYTE   W01
 BYTE   Ds3
 BYTE   W01
 BYTE   En3
 BYTE   W24
 BYTE   PEND 
 BYTE   W48
// 026   ----------------------------------------
Label_IsaacBattle_0_01468D48:
 BYTE   BEND   c_v-62
 BYTE   N90  Bn3  v112
 BYTE   W01
 BYTE   BEND   c_v-59
 BYTE   W01
 BYTE   GnM2
 BYTE   W01
 BYTE   AsM2
 BYTE   W01
 BYTE   CsM1
 BYTE   W01
 BYTE   DsM1
 BYTE   W01
 BYTE   FsM1
 BYTE   W01
 BYTE   AnM1
 BYTE   W01
 BYTE   BnM1
 BYTE   W01
 BYTE   Dn0
 BYTE   W01
 BYTE   Fn0
 BYTE   W01
 BYTE   Gn0
 BYTE   W01
 BYTE   As0
 BYTE   W01
 BYTE   Cs1
 BYTE   W01
 BYTE   Ds1
 BYTE   W01
 BYTE   Fs1
 BYTE   W01
 BYTE   An1
 BYTE   W01
 BYTE   Bn1
 BYTE   W01
 BYTE   Dn2
 BYTE   W01
 BYTE   Fn2
 BYTE   W01
 BYTE   Gn2
 BYTE   W01
 BYTE   As2
 BYTE   W01
 BYTE   Cs3
 BYTE   W01
 BYTE   Ds3
 BYTE   W01
 BYTE   En3
 BYTE   W24
 BYTE   PEND 
 BYTE   W48
// 027   ----------------------------------------
Label_IsaacBattle_0_01468D81:
 BYTE   BEND   c_v-62
 BYTE   N90  An3  v112
 BYTE   W01
 BYTE   BEND   c_v-59
 BYTE   W01
 BYTE   GnM2
 BYTE   W01
 BYTE   AsM2
 BYTE   W01
 BYTE   CsM1
 BYTE   W01
 BYTE   DsM1
 BYTE   W01
 BYTE   FsM1
 BYTE   W01
 BYTE   AnM1
 BYTE   W01
 BYTE   BnM1
 BYTE   W01
 BYTE   Dn0
 BYTE   W01
 BYTE   Fn0
 BYTE   W01
 BYTE   Gn0
 BYTE   W01
 BYTE   As0
 BYTE   W01
 BYTE   Cs1
 BYTE   W01
 BYTE   Ds1
 BYTE   W01
 BYTE   Fs1
 BYTE   W01
 BYTE   An1
 BYTE   W01
 BYTE   Bn1
 BYTE   W01
 BYTE   Dn2
 BYTE   W01
 BYTE   Fn2
 BYTE   W01
 BYTE   Gn2
 BYTE   W01
 BYTE   As2
 BYTE   W01
 BYTE   Cs3
 BYTE   W01
 BYTE   Ds3
 BYTE   W01
 BYTE   En3
 BYTE   W24
 BYTE   PEND 
 BYTE   W48
 BYTE   PATT
  POIN2 Label_IsaacBattle_0_01468D48
// 028   ----------------------------------------
 BYTE   W48
 BYTE   PATT
  POIN2 Label_IsaacBattle_0_01468B56
 BYTE   PATT
  POIN2 Label_IsaacBattle_0_01468B6C
 BYTE   PATT
  POIN2 Label_IsaacBattle_0_01468B77
 BYTE   PATT
  POIN2 Label_IsaacBattle_0_01468B8B
 BYTE   PATT
  POIN2 Label_IsaacBattle_0_01468B96
// 029   ----------------------------------------
 BYTE   N48  Bn3  v112
 BYTE   N48  En4
 BYTE   W48
 BYTE   PATT
  POIN2 Label_IsaacBattle_0_01468BAF
 BYTE   PATT
  POIN2 Label_IsaacBattle_0_01468BC3
 BYTE   PATT
  POIN2 Label_IsaacBattle_0_01468BCE
 BYTE   PATT
  POIN2 Label_IsaacBattle_0_01468BEE
 BYTE   PATT
  POIN2 Label_IsaacBattle_0_01468C0E
 BYTE   PATT
  POIN2 Label_IsaacBattle_0_01468C1D
// 030   ----------------------------------------
 BYTE   N42  En4  v112
 BYTE   N42  Bn4
 BYTE   W48
 BYTE   PATT
  POIN2 Label_IsaacBattle_0_01468C32
 BYTE   PATT
  POIN2 Label_IsaacBattle_0_01468C42
 BYTE   PATT
  POIN2 Label_IsaacBattle_0_01468C62
 BYTE   PATT
  POIN2 Label_IsaacBattle_0_01468B56
 BYTE   PATT
  POIN2 Label_IsaacBattle_0_01468B6C
 BYTE   PATT
  POIN2 Label_IsaacBattle_0_01468B77
 BYTE   PATT
  POIN2 Label_IsaacBattle_0_01468B8B
 BYTE   PATT
  POIN2 Label_IsaacBattle_0_01468B96
// 031   ----------------------------------------
 BYTE   N48  Bn3  v112
 BYTE   N48  En4
 BYTE   W48
 BYTE   PATT
  POIN2 Label_IsaacBattle_0_01468BAF
 BYTE   PATT
  POIN2 Label_IsaacBattle_0_01468BC3
 BYTE   PATT
  POIN2 Label_IsaacBattle_0_01468BCE
 BYTE   PATT
  POIN2 Label_IsaacBattle_0_01468BEE
 BYTE   PATT
  POIN2 Label_IsaacBattle_0_01468C0E
 BYTE   PATT
  POIN2 Label_IsaacBattle_0_01468C1D
// 032   ----------------------------------------
 BYTE   N42  En4  v112
 BYTE   N42  Bn4
 BYTE   W48
 BYTE   PATT
  POIN2 Label_IsaacBattle_0_01468C32
// 033   ----------------------------------------
 BYTE   W48
 BYTE   W48
// 034   ----------------------------------------
 BYTE   W48
 BYTE   W48
// 035   ----------------------------------------
 BYTE   W48
 BYTE   W48
// 036   ----------------------------------------
 BYTE   W48
 BYTE   W48
 BYTE   PATT
  POIN2 Label_IsaacBattle_0_01468CBE
 BYTE   PATT
  POIN2 Label_IsaacBattle_0_01468CC8
// 037   ----------------------------------------
 BYTE   N90  An3  v112
 BYTE   W48
 BYTE   W48
 BYTE   PATT
  POIN2 Label_IsaacBattle_0_01468CBE
 BYTE   PATT
  POIN2 Label_IsaacBattle_0_01468CDB
// 038   ----------------------------------------
 BYTE   N90  An3  v112
 BYTE   W48
 BYTE   W48
 BYTE   PATT
  POIN2 Label_IsaacBattle_0_01468CBE
 BYTE   PATT
  POIN2 Label_IsaacBattle_0_01468CC8
// 039   ----------------------------------------
 BYTE   N90  An3  v112
 BYTE   W48
 BYTE   W48
 BYTE   PATT
  POIN2 Label_IsaacBattle_0_01468CBE
 BYTE   PATT
  POIN2 Label_IsaacBattle_0_01468CDB
// 040   ----------------------------------------
 BYTE   N90  An3  v112
 BYTE   W48
 BYTE   W48
// 041   ----------------------------------------
 BYTE   W48
 BYTE   W48
// 042   ----------------------------------------
 BYTE   W48
 BYTE   W48
// 043   ----------------------------------------
 BYTE   W48
 BYTE   W48
// 044   ----------------------------------------
 BYTE   W48
 BYTE   W48
 BYTE   PATT
  POIN2 Label_IsaacBattle_0_01468D0F
// 045   ----------------------------------------
 BYTE   W48
 BYTE   PATT
  POIN2 Label_IsaacBattle_0_01468D48
// 046   ----------------------------------------
 BYTE   W48
 BYTE   PATT
  POIN2 Label_IsaacBattle_0_01468D81
// 047   ----------------------------------------
 BYTE   W48
 BYTE   PATT
  POIN2 Label_IsaacBattle_0_01468D48
// 048   ----------------------------------------
 BYTE   W48
 BYTE   PATT
  POIN2 Label_IsaacBattle_0_01468B56
 BYTE   PATT
  POIN2 Label_IsaacBattle_0_01468B6C
 BYTE   PATT
  POIN2 Label_IsaacBattle_0_01468B77
 BYTE   PATT
  POIN2 Label_IsaacBattle_0_01468B8B
 BYTE   PATT
  POIN2 Label_IsaacBattle_0_01468B96
// 049   ----------------------------------------
 BYTE   N48  Bn3  v112
 BYTE   N48  En4
 BYTE   W48
 BYTE   PATT
  POIN2 Label_IsaacBattle_0_01468BAF
 BYTE   PATT
  POIN2 Label_IsaacBattle_0_01468BC3
 BYTE   PATT
  POIN2 Label_IsaacBattle_0_01468BCE
 BYTE   PATT
  POIN2 Label_IsaacBattle_0_01468BEE
 BYTE   PATT
  POIN2 Label_IsaacBattle_0_01468C0E
 BYTE   PATT
  POIN2 Label_IsaacBattle_0_01468C1D
// 050   ----------------------------------------
 BYTE   N42  En4  v112
 BYTE   N42  Bn4
 BYTE   W48
 BYTE   PATT
  POIN2 Label_IsaacBattle_0_01468C32
 BYTE   PATT
  POIN2 Label_IsaacBattle_0_01468C42
 BYTE   PATT
  POIN2 Label_IsaacBattle_0_01468C62
 BYTE   PATT
  POIN2 Label_IsaacBattle_0_01468B56
 BYTE   PATT
  POIN2 Label_IsaacBattle_0_01468B6C
 BYTE   PATT
  POIN2 Label_IsaacBattle_0_01468B77
 BYTE   PATT
  POIN2 Label_IsaacBattle_0_01468B8B
 BYTE   PATT
  POIN2 Label_IsaacBattle_0_01468B96
// 051   ----------------------------------------
 BYTE   N48  Bn3  v112
 BYTE   N48  En4
 BYTE   W48
 BYTE   PATT
  POIN2 Label_IsaacBattle_0_01468BAF
 BYTE   PATT
  POIN2 Label_IsaacBattle_0_01468BC3
 BYTE   PATT
  POIN2 Label_IsaacBattle_0_01468BCE
 BYTE   PATT
  POIN2 Label_IsaacBattle_0_01468BEE
 BYTE   PATT
  POIN2 Label_IsaacBattle_0_01468C0E
 BYTE   PATT
  POIN2 Label_IsaacBattle_0_01468C1D
// 052   ----------------------------------------
 BYTE   N42  En4  v112
 BYTE   N42  Bn4
 BYTE   W48
 BYTE   PATT
  POIN2 Label_IsaacBattle_0_01468C32
// 053   ----------------------------------------
 BYTE   W48
 BYTE   W48
// 054   ----------------------------------------
 BYTE   W48
 BYTE   W48
// 055   ----------------------------------------
 BYTE   W48
 BYTE   W48
// 056   ----------------------------------------
 BYTE   W48
 BYTE   W48
 BYTE   PATT
  POIN2 Label_IsaacBattle_0_01468CBE
 BYTE   PATT
  POIN2 Label_IsaacBattle_0_01468CC8
// 057   ----------------------------------------
 BYTE   N90  An3  v112
 BYTE   W48
 BYTE   W48
 BYTE   PATT
  POIN2 Label_IsaacBattle_0_01468CBE
 BYTE   PATT
  POIN2 Label_IsaacBattle_0_01468CDB
// 058   ----------------------------------------
 BYTE   N90  An3  v112
 BYTE   W48
 BYTE   W48
 BYTE   PATT
  POIN2 Label_IsaacBattle_0_01468CBE
 BYTE   PATT
  POIN2 Label_IsaacBattle_0_01468CC8
// 059   ----------------------------------------
 BYTE   N90  An3  v112
 BYTE   W48
 BYTE   W48
 BYTE   PATT
  POIN2 Label_IsaacBattle_0_01468CBE
 BYTE   PATT
  POIN2 Label_IsaacBattle_0_01468CDB
// 060   ----------------------------------------
 BYTE   N90  An3  v112
 BYTE   W48
 BYTE   W48
// 061   ----------------------------------------
 BYTE   VOL   60*IsaacBattle_mvl/mxv
 BYTE   W06
 BYTE   Bn2
 BYTE   W06
 BYTE   Bn2
 BYTE   W06
 BYTE   As2
 BYTE   W06
 BYTE   As2
 BYTE   W06
 BYTE   An2
 BYTE   W06
 BYTE   An2
 BYTE   W06
 BYTE   Gs2
 BYTE   W06
 BYTE   Gs2
 BYTE   W06
 BYTE   Gn2
 BYTE   W06
 BYTE   Gn2
 BYTE   W06
 BYTE   Fs2
 BYTE   W06
 BYTE   Fs2
 BYTE   W06
 BYTE   Fn2
 BYTE   W06
 BYTE   Fn2
 BYTE   W06
 BYTE   En2
 BYTE   W06
// 062   ----------------------------------------
 BYTE   En2
 BYTE   W06
 BYTE   Ds2
 BYTE   W06
 BYTE   Ds2
 BYTE   W06
 BYTE   Ds2
 BYTE   W06
 BYTE   Dn2
 BYTE   W06
 BYTE   Dn2
 BYTE   W07
 BYTE   Cs2
 BYTE   W06
 BYTE   Cs2
 BYTE   W05
 BYTE   W01
 BYTE   Cn2
 BYTE   W06
 BYTE   Cn2
 BYTE   W06
 BYTE   Bn1
 BYTE   W06
 BYTE   Bn1
 BYTE   W06
 BYTE   As1
 BYTE   W06
 BYTE   As1
 BYTE   W06
 BYTE   An1
 BYTE   W06
 BYTE   An1
 BYTE   W05
// 063   ----------------------------------------
 BYTE   W01
 BYTE   Gs1
 BYTE   W06
 BYTE   Gs1
 BYTE   W06
 BYTE   Gn1
 BYTE   W06
 BYTE   Gn1
 BYTE   W06
 BYTE   Fs1
 BYTE   W06
 BYTE   Fs1
 BYTE   W06
 BYTE   Fs1
 BYTE   W06
 BYTE   Fn1
 BYTE   W05
 BYTE   W01
 BYTE   Fn1
 BYTE   W06
 BYTE   En1
 BYTE   W06
 BYTE   En1
 BYTE   W07
 BYTE   Ds1
 BYTE   W06
 BYTE   Ds1
 BYTE   W06
 BYTE   Dn1
 BYTE   W06
 BYTE   Dn1
 BYTE   W06
 BYTE   Cs1
 BYTE   W04
// 064   ----------------------------------------
 BYTE   W02
 BYTE   Cs1
 BYTE   W06
 BYTE   Cn1
 BYTE   W06
 BYTE   Cn1
 BYTE   W06
 BYTE   Bn0
 BYTE   W06
 BYTE   Bn0
 BYTE   W06
 BYTE   As0
 BYTE   W06
 BYTE   As0
 BYTE   W06
 BYTE   As0
 BYTE   W04
 BYTE   W02
 BYTE   An0
 BYTE   W06
 BYTE   An0
 BYTE   W06
 BYTE   Gs0
 BYTE   W06
 BYTE   Gs0
 BYTE   W06
 BYTE   Gn0
 BYTE   W06
 BYTE   Gn0
 BYTE   W06
 BYTE   Fs0
 BYTE   W06
 BYTE   Fs0
 BYTE   W04
// 065   ----------------------------------------
 BYTE   BEND   c_v-62
 BYTE   N90  Cs4
 BYTE   W01
 BYTE   BEND   c_v-59
 BYTE   W01
 BYTE   GnM2
 BYTE   W01
 BYTE   VOL   29*IsaacBattle_mvl/mxv
 BYTE   BEND   c_v-54
 BYTE   W01
 BYTE   CsM1
 BYTE   W01
 BYTE   DsM1
 BYTE   W01
 BYTE   FsM1
 BYTE   W01
 BYTE   AnM1
 BYTE   W01
 BYTE   BnM1
 BYTE   W01
 BYTE   VOL   29*IsaacBattle_mvl/mxv
 BYTE   BEND   c_v-38
 BYTE   W01
 BYTE   Fn0
 BYTE   W01
 BYTE   Gn0
 BYTE   W01
 BYTE   As0
 BYTE   W01
 BYTE   Cs1
 BYTE   W01
 BYTE   Ds1
 BYTE   W01
 BYTE   VOL   28*IsaacBattle_mvl/mxv
 BYTE   BEND   c_v-22
 BYTE   W01
 BYTE   An1
 BYTE   W01
 BYTE   Bn1
 BYTE   W01
 BYTE   Dn2
 BYTE   W01
 BYTE   Fn2
 BYTE   W01
 BYTE   Gn2
 BYTE   W01
 BYTE   VOL   28*IsaacBattle_mvl/mxv
 BYTE   BEND   c_v-6
 BYTE   W01
 BYTE   Cs3
 BYTE   W01
 BYTE   Ds3
 BYTE   W01
 BYTE   En3
 BYTE   W03
 BYTE   VOL   27*IsaacBattle_mvl/mxv
 BYTE   W06
 BYTE   Ds0
 BYTE   W06
 BYTE   Dn0
 BYTE   W06
 BYTE   Dn0
 BYTE   W03
 BYTE   W03
 BYTE   Cs0
 BYTE   W06
 BYTE   Cs0
 BYTE   W06
 BYTE   Cs0
 BYTE   W06
 BYTE   Cn0
 BYTE   W06
 BYTE   Cn0
 BYTE   W06
 BYTE   BnM1
 BYTE   W06
 BYTE   BnM1
 BYTE   W06
 BYTE   AsM1
 BYTE   W03
// 066   ----------------------------------------
 BYTE   BEND   c_v-62
 BYTE   N90  Bn3
 BYTE   W01
 BYTE   BEND   c_v-59
 BYTE   W01
 BYTE   GnM2
 BYTE   W01
 BYTE   VOL   22*IsaacBattle_mvl/mxv
 BYTE   BEND   c_v-54
 BYTE   W01
 BYTE   CsM1
 BYTE   W01
 BYTE   DsM1
 BYTE   W01
 BYTE   FsM1
 BYTE   W01
 BYTE   AnM1
 BYTE   W01
 BYTE   BnM1
 BYTE   W01
 BYTE   VOL   21*IsaacBattle_mvl/mxv
 BYTE   BEND   c_v-38
 BYTE   W01
 BYTE   Fn0
 BYTE   W01
 BYTE   Gn0
 BYTE   W01
 BYTE   As0
 BYTE   W01
 BYTE   Cs1
 BYTE   W01
 BYTE   Ds1
 BYTE   W01
 BYTE   VOL   21*IsaacBattle_mvl/mxv
 BYTE   BEND   c_v-22
 BYTE   W01
 BYTE   An1
 BYTE   W01
 BYTE   Bn1
 BYTE   W01
 BYTE   Dn2
 BYTE   W01
 BYTE   Fn2
 BYTE   W01
 BYTE   Gn2
 BYTE   W01
 BYTE   VOL   20*IsaacBattle_mvl/mxv
 BYTE   BEND   c_v-6
 BYTE   W01
 BYTE   Cs3
 BYTE   W01
 BYTE   Ds3
 BYTE   W01
 BYTE   En3
 BYTE   W03
 BYTE   VOL   20*IsaacBattle_mvl/mxv
 BYTE   W07
 BYTE   GnM1
 BYTE   W06
 BYTE   GnM1
 BYTE   W06
 BYTE   FsM1
 BYTE   W02
 BYTE   W04
 BYTE   FsM1
 BYTE   W06
 BYTE   FnM1
 BYTE   W06
 BYTE   FnM1
 BYTE   W06
 BYTE   FnM1
 BYTE   W06
 BYTE   EnM1
 BYTE   W06
 BYTE   EnM1
 BYTE   W06
 BYTE   DsM1
 BYTE   W06
 BYTE   DsM1
 BYTE   W02
// 067   ----------------------------------------
 BYTE   BEND   c_v-62
 BYTE   N90  An3
 BYTE   W01
 BYTE   BEND   c_v-59
 BYTE   W01
 BYTE   GnM2
 BYTE   W01
 BYTE   AsM2
 BYTE   W01
 BYTE   VOL   14*IsaacBattle_mvl/mxv
 BYTE   BEND   c_v-51
 BYTE   W01
 BYTE   DsM1
 BYTE   W01
 BYTE   FsM1
 BYTE   W01
 BYTE   AnM1
 BYTE   W01
 BYTE   BnM1
 BYTE   W01
 BYTE   Dn0
 BYTE   W01
 BYTE   VOL   14*IsaacBattle_mvl/mxv
 BYTE   BEND   c_v-35
 BYTE   W01
 BYTE   Gn0
 BYTE   W01
 BYTE   As0
 BYTE   W01
 BYTE   Cs1
 BYTE   W01
 BYTE   Ds1
 BYTE   W01
 BYTE   Fs1
 BYTE   W01
 BYTE   VOL   13*IsaacBattle_mvl/mxv
 BYTE   BEND   c_v-19
 BYTE   W01
 BYTE   Bn1
 BYTE   W01
 BYTE   Dn2
 BYTE   W01
 BYTE   Fn2
 BYTE   W01
 BYTE   Gn2
 BYTE   W01
 BYTE   As2
 BYTE   W01
 BYTE   VOL   13*IsaacBattle_mvl/mxv
 BYTE   BEND   c_v-3
 BYTE   W01
 BYTE   Ds3
 BYTE   W01
 BYTE   En3
 BYTE   W04
 BYTE   VOL   12*IsaacBattle_mvl/mxv
 BYTE   W06
 BYTE   CnM1
 BYTE   W06
 BYTE   BnM2
 BYTE   W06
 BYTE   BnM2
 BYTE   W02
 BYTE   W04
 BYTE   AsM2
 BYTE   W06
 BYTE   AsM2
 BYTE   W07
 BYTE   AnM2
 BYTE   W06
 BYTE   AnM2
 BYTE   W06
 BYTE   GsM2
 BYTE   W06
 BYTE   GsM2
 BYTE   W06
 BYTE   GsM2
 BYTE   W06
 BYTE   GnM2
 BYTE   W01
// 068   ----------------------------------------
 BYTE   BEND   c_v-62
 BYTE   N90  Bn3
 BYTE   W01
 BYTE   BEND   c_v-59
 BYTE   W01
 BYTE   GnM2
 BYTE   W01
 BYTE   AsM2
 BYTE   W01
 BYTE   CsM1
 BYTE   W01
 BYTE   VOL   7*IsaacBattle_mvl/mxv
 BYTE   BEND   c_v-49
 BYTE   W01
 BYTE   FsM1
 BYTE   W01
 BYTE   AnM1
 BYTE   W01
 BYTE   BnM1
 BYTE   W01
 BYTE   Dn0
 BYTE   W01
 BYTE   Fn0
 BYTE   W01
 BYTE   VOL   6*IsaacBattle_mvl/mxv
 BYTE   BEND   c_v-33
 BYTE   W01
 BYTE   As0
 BYTE   W01
 BYTE   Cs1
 BYTE   W01
 BYTE   Ds1
 BYTE   W01
 BYTE   Fs1
 BYTE   W01
 BYTE   An1
 BYTE   W01
 BYTE   VOL   6*IsaacBattle_mvl/mxv
 BYTE   BEND   c_v-17
 BYTE   W01
 BYTE   Dn2
 BYTE   W01
 BYTE   Fn2
 BYTE   W01
 BYTE   Gn2
 BYTE   W01
 BYTE   As2
 BYTE   W01
 BYTE   Cs3
 BYTE   W01
 BYTE   VOL   5*IsaacBattle_mvl/mxv
 BYTE   BEND   c_v-1
 BYTE   W01
 BYTE   En3
 BYTE   W05
 BYTE   VOL   5*IsaacBattle_mvl/mxv
 BYTE   W06
 BYTE   EnM2
 BYTE   W06
 BYTE   EnM2
 BYTE   W06
 BYTE   DsM2
 BYTE   W01
 BYTE   W05
 BYTE   DsM2
 BYTE   W06
 BYTE   DnM2
 BYTE   W06
 BYTE   DnM2
 BYTE   W06
 BYTE   CsM2
 BYTE   W06
 BYTE   CsM2
 BYTE   W06
 BYTE   CnM2
 BYTE   W06
 BYTE   CnM2
 BYTE   W07
// 069   ----------------------------------------
 BYTE   GoTo
  POIN2 Label_IsaacBattle_0_01468AEA
// 070   ----------------------------------------
 BYTE   VOL   0*IsaacBattle_mvl/mxv
 BYTE   FINE

//**************** Track 2 (Midi-Chn.1) ****************//

IsaacBattle_002:
// 000   ----------------------------------------
 BYTE   KEYSH   IsaacBattle_key+0
Label_IsaacBattle_1_0146919A:
 BYTE   VOICE   33
 BYTE   VOL   60*IsaacBattle_mvl/mxv
 BYTE   PAN   c_v+0
 BYTE   N05  Dn1  v112
 BYTE   W06
 BYTE   En1
 BYTE   W06
 BYTE   Fn1
 BYTE   W06
 BYTE   Bn1
 BYTE   W06
 BYTE   Fs1
 BYTE   W06
 BYTE   Gs1
 BYTE   W06
 BYTE   An1
 BYTE   W06
 BYTE   Ds1
 BYTE   W06
 BYTE   Gs1
 BYTE   W06
 BYTE   Bn1
 BYTE   W06
 BYTE   Gs1
 BYTE   W06
 BYTE   Dn1
 BYTE   W06
 BYTE   Bn0
 BYTE   W06
 BYTE   Dn1
 BYTE   W06
 BYTE   Fn1
 BYTE   W06
 BYTE   Gs1
 BYTE   W06
// 001   ----------------------------------------
Label_IsaacBattle_1_014691C2:
 BYTE   N05  An0  v112
 BYTE   W06
 BYTE   N05
 BYTE   W06
 BYTE   An1
 BYTE   W06
 BYTE   N11  An0
 BYTE   W12
 BYTE   N05
 BYTE   W06
 BYTE   An1
 BYTE   W06
 BYTE   An0
 BYTE   W06
 BYTE   PEND 
Label_IsaacBattle_1_014691D4:
 BYTE   N05  An1  v112
 BYTE   W06
 BYTE   An0
 BYTE   W06
 BYTE   An1
 BYTE   W06
 BYTE   N11  An0
 BYTE   W12
 BYTE   N05
 BYTE   W06
 BYTE   An1
 BYTE   W06
 BYTE   An0
 BYTE   W06
 BYTE   PEND 
// 002   ----------------------------------------
Label_IsaacBattle_1_014691E6:
 BYTE   N05  Gn0  v112
 BYTE   W06
 BYTE   N05
 BYTE   W06
 BYTE   Gn1
 BYTE   W06
 BYTE   N11  Gn0
 BYTE   W12
 BYTE   N05
 BYTE   W06
 BYTE   Fn0
 BYTE   W06
 BYTE   Gn0
 BYTE   W06
 BYTE   PEND 
Label_IsaacBattle_1_014691F8:
 BYTE   N05  Gn0  v112
 BYTE   W06
 BYTE   N05
 BYTE   W06
 BYTE   Gn1
 BYTE   W06
 BYTE   N11  Gn0
 BYTE   W12
 BYTE   N05
 BYTE   W06
 BYTE   Gn1
 BYTE   W06
 BYTE   Gn0
 BYTE   W06
 BYTE   PEND 
// 003   ----------------------------------------
Label_IsaacBattle_1_0146920A:
 BYTE   N11  Bn0  v112
 BYTE   W12
 BYTE   N05
 BYTE   W06
 BYTE   N11  Bn1
 BYTE   W12
 BYTE   N05  Bn0
 BYTE   W06
 BYTE   Fs1
 BYTE   W06
 BYTE   Bn1
 BYTE   W06
 BYTE   PEND 
Label_IsaacBattle_1_0146921B:
 BYTE   N05  En0  v112
 BYTE   W06
 BYTE   N05
 BYTE   W06
 BYTE   En1
 BYTE   W06
 BYTE   N11  En0
 BYTE   W12
 BYTE   N05
 BYTE   W06
 BYTE   En1
 BYTE   W06
 BYTE   En0
 BYTE   W06
 BYTE   PEND 
// 004   ----------------------------------------
Label_IsaacBattle_1_0146922D:
 BYTE   N05  Dn0  v112
 BYTE   W06
 BYTE   N05
 BYTE   W06
 BYTE   N05
 BYTE   W06
 BYTE   N11  Dn1
 BYTE   W12
 BYTE   N05  Dn0
 BYTE   W06
 BYTE   An0
 BYTE   W06
 BYTE   Dn1
 BYTE   W06
 BYTE   PEND 
Label_IsaacBattle_1_01469240:
 BYTE   N05  Gn0  v112
 BYTE   W06
 BYTE   N05
 BYTE   W06
 BYTE   Gn1
 BYTE   W06
 BYTE   Gn0
 BYTE   W06
 BYTE   Gs0
 BYTE   W06
 BYTE   En1
 BYTE   W06
 BYTE   Gs1
 BYTE   W06
 BYTE   Gs0
 BYTE   W06
 BYTE   PEND 
// 005   ----------------------------------------
Label_IsaacBattle_1_01469253:
 BYTE   N11  An0  v112
 BYTE   W12
 BYTE   N11
 BYTE   W12
 BYTE   N05  Gn0
 BYTE   W06
 BYTE   An0
 BYTE   W06
 BYTE   N11
 BYTE   W12
 BYTE   PEND 
Label_IsaacBattle_1_01469261:
 BYTE   N11  An0  v112
 BYTE   W12
 BYTE   N05  Gn0
 BYTE   W06
 BYTE   An0
 BYTE   W06
 BYTE   Cn2
 BYTE   W06
 BYTE   Bn1
 BYTE   W06
 BYTE   An1
 BYTE   W06
 BYTE   Gn1
 BYTE   W06
 BYTE   PEND 
// 006   ----------------------------------------
Label_IsaacBattle_1_01469273:
 BYTE   N05  Gn0  v112
 BYTE   W06
 BYTE   N05
 BYTE   W06
 BYTE   Gn1
 BYTE   W06
 BYTE   Gn0
 BYTE   W06
 BYTE   Dn1
 BYTE   W06
 BYTE   Gn0
 BYTE   W06
 BYTE   Gn1
 BYTE   W06
 BYTE   Gn0
 BYTE   W06
 BYTE   PEND 
Label_IsaacBattle_1_01469286:
 BYTE   N05  Fn0  v112
 BYTE   W06
 BYTE   N05
 BYTE   W06
 BYTE   Fn1
 BYTE   W06
 BYTE   Fn0
 BYTE   W06
 BYTE   Cn1
 BYTE   W06
 BYTE   Fn1
 BYTE   W06
 BYTE   Fn0
 BYTE   W06
 BYTE   Fn1
 BYTE   W06
 BYTE   PEND 
// 007   ----------------------------------------
Label_IsaacBattle_1_01469299:
 BYTE   N05  En0  v112
 BYTE   W06
 BYTE   N05
 BYTE   W06
 BYTE   En1
 BYTE   W06
 BYTE   En0
 BYTE   W06
 BYTE   Bn0
 BYTE   W06
 BYTE   En0
 BYTE   W06
 BYTE   En1
 BYTE   W06
 BYTE   En0
 BYTE   W06
 BYTE   PEND 
Label_IsaacBattle_1_014692AC:
 BYTE   N05  En1  v112
 BYTE   W06
 BYTE   En0
 BYTE   W06
 BYTE   N05
 BYTE   W06
 BYTE   Dn1
 BYTE   W06
 BYTE   En0
 BYTE   W06
 BYTE   N05
 BYTE   W06
 BYTE   En1
 BYTE   W06
 BYTE   En0
 BYTE   W06
 BYTE   PEND 
// 008   ----------------------------------------
Label_IsaacBattle_1_014692BF:
 BYTE   N05  An0  v112
 BYTE   W06
 BYTE   En1
 BYTE   W06
 BYTE   An1
 BYTE   W06
 BYTE   Gn0
 BYTE   W06
 BYTE   Dn1
 BYTE   W06
 BYTE   Gn1
 BYTE   W06
 BYTE   N11  Fn0
 BYTE   W12
 BYTE   PEND 
Label_IsaacBattle_1_014692D1:
 BYTE   N05  Fn0  v112
 BYTE   W06
 BYTE   N05
 BYTE   W06
 BYTE   Fn1
 BYTE   W06
 BYTE   Fn0
 BYTE   W06
 BYTE   Cn1
 BYTE   W06
 BYTE   Fn0
 BYTE   W06
 BYTE   Fn1
 BYTE   W06
 BYTE   Fn0
 BYTE   W06
 BYTE   PEND 
 BYTE   PATT
  POIN2 Label_IsaacBattle_1_014691C2
 BYTE   PATT
  POIN2 Label_IsaacBattle_1_014691D4
 BYTE   PATT
  POIN2 Label_IsaacBattle_1_014691E6
 BYTE   PATT
  POIN2 Label_IsaacBattle_1_014691F8
 BYTE   PATT
  POIN2 Label_IsaacBattle_1_0146920A
 BYTE   PATT
  POIN2 Label_IsaacBattle_1_0146921B
 BYTE   PATT
  POIN2 Label_IsaacBattle_1_0146922D
 BYTE   PATT
  POIN2 Label_IsaacBattle_1_01469240
 BYTE   PATT
  POIN2 Label_IsaacBattle_1_01469253
 BYTE   PATT
  POIN2 Label_IsaacBattle_1_01469261
 BYTE   PATT
  POIN2 Label_IsaacBattle_1_01469273
 BYTE   PATT
  POIN2 Label_IsaacBattle_1_01469286
 BYTE   PATT
  POIN2 Label_IsaacBattle_1_01469299
 BYTE   PATT
  POIN2 Label_IsaacBattle_1_014692AC
// 009   ----------------------------------------
Label_IsaacBattle_1_0146932A:
 BYTE   N05  Fn0  v112
 BYTE   W06
 BYTE   N05
 BYTE   W06
 BYTE   Fn1
 BYTE   W06
 BYTE   Fn0
 BYTE   W06
 BYTE   N05
 BYTE   W06
 BYTE   N05
 BYTE   W06
 BYTE   Fn1
 BYTE   W06
 BYTE   Fn0
 BYTE   W06
 BYTE   PEND 
Label_IsaacBattle_1_0146933D:
 BYTE   N05  Fn0  v112
 BYTE   W06
 BYTE   N05
 BYTE   W06
 BYTE   Fn1
 BYTE   W06
 BYTE   N11  Fn0
 BYTE   W12
 BYTE   N05
 BYTE   W06
 BYTE   Fn1
 BYTE   W06
 BYTE   Fn0
 BYTE   W06
 BYTE   PEND 
// 010   ----------------------------------------
Label_IsaacBattle_1_0146934F:
 BYTE   N05  En0  v112
 BYTE   W06
 BYTE   N05
 BYTE   W06
 BYTE   En1
 BYTE   W06
 BYTE   En0
 BYTE   W06
 BYTE   N05
 BYTE   W06
 BYTE   N05
 BYTE   W06
 BYTE   En1
 BYTE   W06
 BYTE   En0
 BYTE   W06
 BYTE   PEND 
 BYTE   PATT
  POIN2 Label_IsaacBattle_1_0146921B
 BYTE   PATT
  POIN2 Label_IsaacBattle_1_0146932A
 BYTE   PATT
  POIN2 Label_IsaacBattle_1_0146933D
 BYTE   PATT
  POIN2 Label_IsaacBattle_1_0146934F
 BYTE   PATT
  POIN2 Label_IsaacBattle_1_0146921B
// 011   ----------------------------------------
Label_IsaacBattle_1_0146937B:
 BYTE   N11  An0  v112
 BYTE   W12
 BYTE   N05  An1
 BYTE   W06
 BYTE   An0
 BYTE   W06
 BYTE   N05
 BYTE   W06
 BYTE   N05
 BYTE   W06
 BYTE   Gn0
 BYTE   W06
 BYTE   An0
 BYTE   W06
 BYTE   PEND 
Label_IsaacBattle_1_0146938D:
 BYTE   N11  An0  v112
 BYTE   W12
 BYTE   N05  An1
 BYTE   W06
 BYTE   N11  An0
 BYTE   W12
 BYTE   N05
 BYTE   W06
 BYTE   An1
 BYTE   W06
 BYTE   An0
 BYTE   W06
 BYTE   PEND 
// 012   ----------------------------------------
Label_IsaacBattle_1_0146939E:
 BYTE   N11  Dn1  v112
 BYTE   W12
 BYTE   N05  Dn2
 BYTE   W06
 BYTE   Dn1
 BYTE   W06
 BYTE   N05
 BYTE   W06
 BYTE   N05
 BYTE   W06
 BYTE   Cn1
 BYTE   W06
 BYTE   Dn1
 BYTE   W06
 BYTE   PEND 
Label_IsaacBattle_1_014693B0:
 BYTE   N11  Dn1  v112
 BYTE   W12
 BYTE   N05  Dn2
 BYTE   W06
 BYTE   N11  Dn1
 BYTE   W12
 BYTE   N05
 BYTE   W06
 BYTE   Dn2
 BYTE   W06
 BYTE   Dn1
 BYTE   W06
 BYTE   PEND 
 BYTE   PATT
  POIN2 Label_IsaacBattle_1_0146937B
 BYTE   PATT
  POIN2 Label_IsaacBattle_1_0146938D
// 013   ----------------------------------------
Label_IsaacBattle_1_014693CB:
 BYTE   N11  Fn0  v112
 BYTE   W12
 BYTE   N05  Fn1
 BYTE   W06
 BYTE   Fn0
 BYTE   W06
 BYTE   N05
 BYTE   W06
 BYTE   N05
 BYTE   W06
 BYTE   Fn1
 BYTE   W06
 BYTE   Fn0
 BYTE   W06
 BYTE   PEND 
Label_IsaacBattle_1_014693DD:
 BYTE   N05  Gn0  v112
 BYTE   W06
 BYTE   Dn1
 BYTE   W06
 BYTE   Gn1
 BYTE   W06
 BYTE   Gn0
 BYTE   W06
 BYTE   Dn1
 BYTE   W06
 BYTE   Gn1
 BYTE   W06
 BYTE   Gn0
 BYTE   W06
 BYTE   Dn1
 BYTE   W06
 BYTE   PEND 
// 014   ----------------------------------------
Label_IsaacBattle_1_014693F0:
 BYTE   N05  Fn0  v112
 BYTE   W06
 BYTE   N05
 BYTE   W06
 BYTE   Fn1
 BYTE   W06
 BYTE   Fn0
 BYTE   W06
 BYTE   N05
 BYTE   W06
 BYTE   Fn1
 BYTE   W06
 BYTE   Fn0
 BYTE   W06
 BYTE   N05
 BYTE   W06
 BYTE   PEND 
Label_IsaacBattle_1_01469403:
 BYTE   N05  Gn0  v112
 BYTE   W06
 BYTE   N05
 BYTE   W06
 BYTE   Gn1
 BYTE   W06
 BYTE   Gn0
 BYTE   W06
 BYTE   N05
 BYTE   W06
 BYTE   Gn1
 BYTE   W06
 BYTE   Gn0
 BYTE   W06
 BYTE   N05
 BYTE   W06
 BYTE   PEND 
// 015   ----------------------------------------
Label_IsaacBattle_1_01469416:
 BYTE   N05  An0  v112
 BYTE   W06
 BYTE   N05
 BYTE   W06
 BYTE   An1
 BYTE   W06
 BYTE   An0
 BYTE   W06
 BYTE   Gn1
 BYTE   W06
 BYTE   An0
 BYTE   W06
 BYTE   An1
 BYTE   W06
 BYTE   An0
 BYTE   W06
 BYTE   PEND 
Label_IsaacBattle_1_01469429:
 BYTE   N05  Gn0  v112
 BYTE   W06
 BYTE   N05
 BYTE   W06
 BYTE   Gn1
 BYTE   W06
 BYTE   Gn0
 BYTE   W06
 BYTE   Fn1
 BYTE   W06
 BYTE   Gn0
 BYTE   W06
 BYTE   Gn1
 BYTE   W06
 BYTE   Gn0
 BYTE   W06
 BYTE   PEND 
// 016   ----------------------------------------
Label_IsaacBattle_1_0146943C:
 BYTE   N05  Fn0  v112
 BYTE   W06
 BYTE   N05
 BYTE   W06
 BYTE   Fn1
 BYTE   W06
 BYTE   Fn0
 BYTE   W06
 BYTE   En1
 BYTE   W06
 BYTE   Fn0
 BYTE   W06
 BYTE   Fn1
 BYTE   W06
 BYTE   Fn0
 BYTE   W06
 BYTE   PEND 
 BYTE   PATT
  POIN2 Label_IsaacBattle_1_01469429
// 017   ----------------------------------------
Label_IsaacBattle_1_01469454:
 BYTE   N05  An0  v112
 BYTE   W06
 BYTE   N05
 BYTE   W06
 BYTE   An1
 BYTE   W06
 BYTE   An0
 BYTE   W06
 BYTE   En1
 BYTE   W06
 BYTE   An0
 BYTE   W06
 BYTE   An1
 BYTE   W06
 BYTE   An0
 BYTE   W06
 BYTE   PEND 
Label_IsaacBattle_1_01469467:
 BYTE   N05  An1  v112
 BYTE   W06
 BYTE   En1
 BYTE   W06
 BYTE   An0
 BYTE   W06
 BYTE   An1
 BYTE   W06
 BYTE   En1
 BYTE   W06
 BYTE   An0
 BYTE   W06
 BYTE   An1
 BYTE   W06
 BYTE   An0
 BYTE   W06
 BYTE   PEND 
// 018   ----------------------------------------
Label_IsaacBattle_1_0146947A:
 BYTE   N11  Fs0  v112
 BYTE   W12
 BYTE   N05
 BYTE   W06
 BYTE   N05
 BYTE   W06
 BYTE   Fs1
 BYTE   W06
 BYTE   En1
 BYTE   W06
 BYTE   Fs1
 BYTE   W06
 BYTE   Cs1
 BYTE   W06
 BYTE   PEND 
 BYTE   PATT
  POIN2 Label_IsaacBattle_1_0146947A
 BYTE   PATT
  POIN2 Label_IsaacBattle_1_0146947A
 BYTE   PATT
  POIN2 Label_IsaacBattle_1_0146947A
 BYTE   PATT
  POIN2 Label_IsaacBattle_1_0146947A
 BYTE   PATT
  POIN2 Label_IsaacBattle_1_0146947A
 BYTE   PATT
  POIN2 Label_IsaacBattle_1_0146947A
 BYTE   PATT
  POIN2 Label_IsaacBattle_1_0146947A
 BYTE   PATT
  POIN2 Label_IsaacBattle_1_0146947A
 BYTE   PATT
  POIN2 Label_IsaacBattle_1_0146947A
 BYTE   PATT
  POIN2 Label_IsaacBattle_1_0146947A
 BYTE   PATT
  POIN2 Label_IsaacBattle_1_0146947A
 BYTE   PATT
  POIN2 Label_IsaacBattle_1_0146947A
 BYTE   PATT
  POIN2 Label_IsaacBattle_1_0146947A
 BYTE   PATT
  POIN2 Label_IsaacBattle_1_0146947A
 BYTE   PATT
  POIN2 Label_IsaacBattle_1_0146947A
 BYTE   PATT
  POIN2 Label_IsaacBattle_1_014691C2
 BYTE   PATT
  POIN2 Label_IsaacBattle_1_014691D4
 BYTE   PATT
  POIN2 Label_IsaacBattle_1_014691E6
 BYTE   PATT
  POIN2 Label_IsaacBattle_1_014691F8
 BYTE   PATT
  POIN2 Label_IsaacBattle_1_0146920A
 BYTE   PATT
  POIN2 Label_IsaacBattle_1_0146921B
 BYTE   PATT
  POIN2 Label_IsaacBattle_1_0146922D
 BYTE   PATT
  POIN2 Label_IsaacBattle_1_01469240
 BYTE   PATT
  POIN2 Label_IsaacBattle_1_01469253
 BYTE   PATT
  POIN2 Label_IsaacBattle_1_01469261
 BYTE   PATT
  POIN2 Label_IsaacBattle_1_01469273
 BYTE   PATT
  POIN2 Label_IsaacBattle_1_01469286
 BYTE   PATT
  POIN2 Label_IsaacBattle_1_01469299
 BYTE   PATT
  POIN2 Label_IsaacBattle_1_014692AC
 BYTE   PATT
  POIN2 Label_IsaacBattle_1_014692BF
 BYTE   PATT
  POIN2 Label_IsaacBattle_1_014692D1
 BYTE   PATT
  POIN2 Label_IsaacBattle_1_014691C2
 BYTE   PATT
  POIN2 Label_IsaacBattle_1_014691D4
 BYTE   PATT
  POIN2 Label_IsaacBattle_1_014691E6
 BYTE   PATT
  POIN2 Label_IsaacBattle_1_014691F8
 BYTE   PATT
  POIN2 Label_IsaacBattle_1_0146920A
 BYTE   PATT
  POIN2 Label_IsaacBattle_1_0146921B
 BYTE   PATT
  POIN2 Label_IsaacBattle_1_0146922D
 BYTE   PATT
  POIN2 Label_IsaacBattle_1_01469240
 BYTE   PATT
  POIN2 Label_IsaacBattle_1_01469253
 BYTE   PATT
  POIN2 Label_IsaacBattle_1_01469261
 BYTE   PATT
  POIN2 Label_IsaacBattle_1_01469273
 BYTE   PATT
  POIN2 Label_IsaacBattle_1_01469286
 BYTE   PATT
  POIN2 Label_IsaacBattle_1_01469299
 BYTE   PATT
  POIN2 Label_IsaacBattle_1_014692AC
 BYTE   PATT
  POIN2 Label_IsaacBattle_1_0146932A
 BYTE   PATT
  POIN2 Label_IsaacBattle_1_0146933D
 BYTE   PATT
  POIN2 Label_IsaacBattle_1_0146934F
 BYTE   PATT
  POIN2 Label_IsaacBattle_1_0146921B
 BYTE   PATT
  POIN2 Label_IsaacBattle_1_0146932A
 BYTE   PATT
  POIN2 Label_IsaacBattle_1_0146933D
 BYTE   PATT
  POIN2 Label_IsaacBattle_1_0146934F
 BYTE   PATT
  POIN2 Label_IsaacBattle_1_0146921B
 BYTE   PATT
  POIN2 Label_IsaacBattle_1_0146937B
 BYTE   PATT
  POIN2 Label_IsaacBattle_1_0146938D
 BYTE   PATT
  POIN2 Label_IsaacBattle_1_0146939E
 BYTE   PATT
  POIN2 Label_IsaacBattle_1_014693B0
 BYTE   PATT
  POIN2 Label_IsaacBattle_1_0146937B
 BYTE   PATT
  POIN2 Label_IsaacBattle_1_0146938D
 BYTE   PATT
  POIN2 Label_IsaacBattle_1_014693CB
 BYTE   PATT
  POIN2 Label_IsaacBattle_1_014693DD
 BYTE   PATT
  POIN2 Label_IsaacBattle_1_014693F0
 BYTE   PATT
  POIN2 Label_IsaacBattle_1_01469403
 BYTE   PATT
  POIN2 Label_IsaacBattle_1_01469416
 BYTE   PATT
  POIN2 Label_IsaacBattle_1_01469429
 BYTE   PATT
  POIN2 Label_IsaacBattle_1_0146943C
 BYTE   PATT
  POIN2 Label_IsaacBattle_1_01469429
 BYTE   PATT
  POIN2 Label_IsaacBattle_1_01469454
 BYTE   PATT
  POIN2 Label_IsaacBattle_1_01469467
 BYTE   PATT
  POIN2 Label_IsaacBattle_1_0146947A
 BYTE   PATT
  POIN2 Label_IsaacBattle_1_0146947A
 BYTE   PATT
  POIN2 Label_IsaacBattle_1_0146947A
 BYTE   PATT
  POIN2 Label_IsaacBattle_1_0146947A
 BYTE   PATT
  POIN2 Label_IsaacBattle_1_0146947A
 BYTE   PATT
  POIN2 Label_IsaacBattle_1_0146947A
 BYTE   PATT
  POIN2 Label_IsaacBattle_1_0146947A
 BYTE   PATT
  POIN2 Label_IsaacBattle_1_0146947A
 BYTE   PATT
  POIN2 Label_IsaacBattle_1_0146947A
 BYTE   PATT
  POIN2 Label_IsaacBattle_1_0146947A
 BYTE   PATT
  POIN2 Label_IsaacBattle_1_0146947A
 BYTE   PATT
  POIN2 Label_IsaacBattle_1_0146947A
 BYTE   PATT
  POIN2 Label_IsaacBattle_1_0146947A
 BYTE   PATT
  POIN2 Label_IsaacBattle_1_0146947A
 BYTE   PATT
  POIN2 Label_IsaacBattle_1_0146947A
 BYTE   PATT
  POIN2 Label_IsaacBattle_1_0146947A
 BYTE   PATT
  POIN2 Label_IsaacBattle_1_014691C2
 BYTE   PATT
  POIN2 Label_IsaacBattle_1_014691D4
 BYTE   PATT
  POIN2 Label_IsaacBattle_1_014691E6
 BYTE   PATT
  POIN2 Label_IsaacBattle_1_014691F8
 BYTE   PATT
  POIN2 Label_IsaacBattle_1_0146920A
 BYTE   PATT
  POIN2 Label_IsaacBattle_1_0146921B
 BYTE   PATT
  POIN2 Label_IsaacBattle_1_0146922D
 BYTE   PATT
  POIN2 Label_IsaacBattle_1_01469240
 BYTE   PATT
  POIN2 Label_IsaacBattle_1_01469253
 BYTE   PATT
  POIN2 Label_IsaacBattle_1_01469261
 BYTE   PATT
  POIN2 Label_IsaacBattle_1_01469273
 BYTE   PATT
  POIN2 Label_IsaacBattle_1_01469286
 BYTE   PATT
  POIN2 Label_IsaacBattle_1_01469299
 BYTE   PATT
  POIN2 Label_IsaacBattle_1_014692AC
 BYTE   PATT
  POIN2 Label_IsaacBattle_1_014692BF
 BYTE   PATT
  POIN2 Label_IsaacBattle_1_014692D1
 BYTE   PATT
  POIN2 Label_IsaacBattle_1_014691C2
 BYTE   PATT
  POIN2 Label_IsaacBattle_1_014691D4
 BYTE   PATT
  POIN2 Label_IsaacBattle_1_014691E6
 BYTE   PATT
  POIN2 Label_IsaacBattle_1_014691F8
 BYTE   PATT
  POIN2 Label_IsaacBattle_1_0146920A
 BYTE   PATT
  POIN2 Label_IsaacBattle_1_0146921B
 BYTE   PATT
  POIN2 Label_IsaacBattle_1_0146922D
 BYTE   PATT
  POIN2 Label_IsaacBattle_1_01469240
 BYTE   PATT
  POIN2 Label_IsaacBattle_1_01469253
 BYTE   PATT
  POIN2 Label_IsaacBattle_1_01469261
 BYTE   PATT
  POIN2 Label_IsaacBattle_1_01469273
 BYTE   PATT
  POIN2 Label_IsaacBattle_1_01469286
 BYTE   PATT
  POIN2 Label_IsaacBattle_1_01469299
 BYTE   PATT
  POIN2 Label_IsaacBattle_1_014692AC
 BYTE   PATT
  POIN2 Label_IsaacBattle_1_0146932A
 BYTE   PATT
  POIN2 Label_IsaacBattle_1_0146933D
 BYTE   PATT
  POIN2 Label_IsaacBattle_1_0146934F
 BYTE   PATT
  POIN2 Label_IsaacBattle_1_0146921B
 BYTE   PATT
  POIN2 Label_IsaacBattle_1_0146932A
 BYTE   PATT
  POIN2 Label_IsaacBattle_1_0146933D
 BYTE   PATT
  POIN2 Label_IsaacBattle_1_0146934F
 BYTE   PATT
  POIN2 Label_IsaacBattle_1_0146921B
 BYTE   PATT
  POIN2 Label_IsaacBattle_1_0146937B
 BYTE   PATT
  POIN2 Label_IsaacBattle_1_0146938D
 BYTE   PATT
  POIN2 Label_IsaacBattle_1_0146939E
 BYTE   PATT
  POIN2 Label_IsaacBattle_1_014693B0
 BYTE   PATT
  POIN2 Label_IsaacBattle_1_0146937B
 BYTE   PATT
  POIN2 Label_IsaacBattle_1_0146938D
 BYTE   PATT
  POIN2 Label_IsaacBattle_1_014693CB
 BYTE   PATT
  POIN2 Label_IsaacBattle_1_014693DD
 BYTE   PATT
  POIN2 Label_IsaacBattle_1_014693F0
 BYTE   PATT
  POIN2 Label_IsaacBattle_1_01469403
 BYTE   PATT
  POIN2 Label_IsaacBattle_1_01469416
 BYTE   PATT
  POIN2 Label_IsaacBattle_1_01469429
 BYTE   PATT
  POIN2 Label_IsaacBattle_1_0146943C
 BYTE   PATT
  POIN2 Label_IsaacBattle_1_01469429
 BYTE   PATT
  POIN2 Label_IsaacBattle_1_01469454
 BYTE   PATT
  POIN2 Label_IsaacBattle_1_01469467
// 019   ----------------------------------------
 BYTE   VOL   60*IsaacBattle_mvl/mxv
 BYTE   N11  Fs0  v112
 BYTE   W06
 BYTE   VOL   59*IsaacBattle_mvl/mxv
 BYTE   W06
 BYTE   Bn2
 BYTE   N05
 BYTE   W06
 BYTE   VOL   58*IsaacBattle_mvl/mxv
 BYTE   N05
 BYTE   W06
 BYTE   VOL   58*IsaacBattle_mvl/mxv
 BYTE   N05  Fs1
 BYTE   W06
 BYTE   VOL   57*IsaacBattle_mvl/mxv
 BYTE   N05  En1
 BYTE   W06
 BYTE   VOL   57*IsaacBattle_mvl/mxv
 BYTE   N05  Fs1
 BYTE   W06
 BYTE   VOL   56*IsaacBattle_mvl/mxv
 BYTE   N05  Cs1
 BYTE   W06
 BYTE   VOL   56*IsaacBattle_mvl/mxv
 BYTE   N11  Fs0
 BYTE   W06
 BYTE   VOL   55*IsaacBattle_mvl/mxv
 BYTE   W06
 BYTE   Gn2
 BYTE   N05
 BYTE   W06
 BYTE   VOL   54*IsaacBattle_mvl/mxv
 BYTE   N05
 BYTE   W06
 BYTE   VOL   54*IsaacBattle_mvl/mxv
 BYTE   N05  Fs1
 BYTE   W06
 BYTE   VOL   53*IsaacBattle_mvl/mxv
 BYTE   N05  En1
 BYTE   W06
 BYTE   VOL   53*IsaacBattle_mvl/mxv
 BYTE   N05  Fs1
 BYTE   W06
 BYTE   VOL   52*IsaacBattle_mvl/mxv
 BYTE   N05  Cs1
 BYTE   W06
// 020   ----------------------------------------
 BYTE   VOL   52*IsaacBattle_mvl/mxv
 BYTE   N11  Fs0
 BYTE   W06
 BYTE   VOL   51*IsaacBattle_mvl/mxv
 BYTE   W06
 BYTE   Ds2
 BYTE   N05
 BYTE   W06
 BYTE   VOL   51*IsaacBattle_mvl/mxv
 BYTE   N05
 BYTE   W06
 BYTE   VOL   50*IsaacBattle_mvl/mxv
 BYTE   N05  Fs1
 BYTE   W06
 BYTE   VOL   50*IsaacBattle_mvl/mxv
 BYTE   N05  En1
 BYTE   W06
 BYTE   Fs1
 BYTE   W01
 BYTE   VOL   49*IsaacBattle_mvl/mxv
 BYTE   W05
 BYTE   N05  Cs1
 BYTE   W01
 BYTE   VOL   49*IsaacBattle_mvl/mxv
 BYTE   W05
 BYTE   N11  Fs0
 BYTE   W01
 BYTE   VOL   48*IsaacBattle_mvl/mxv
 BYTE   W06
 BYTE   Cn2
 BYTE   W05
 BYTE   N05
 BYTE   W01
 BYTE   VOL   47*IsaacBattle_mvl/mxv
 BYTE   W05
 BYTE   N05
 BYTE   W01
 BYTE   VOL   47*IsaacBattle_mvl/mxv
 BYTE   W05
 BYTE   N05  Fs1
 BYTE   W01
 BYTE   VOL   46*IsaacBattle_mvl/mxv
 BYTE   W05
 BYTE   N05  En1
 BYTE   W01
 BYTE   VOL   46*IsaacBattle_mvl/mxv
 BYTE   W05
 BYTE   N05  Fs1
 BYTE   W01
 BYTE   VOL   45*IsaacBattle_mvl/mxv
 BYTE   W05
 BYTE   N05  Cs1
 BYTE   W01
 BYTE   VOL   45*IsaacBattle_mvl/mxv
 BYTE   W05
// 021   ----------------------------------------
 BYTE   N11  Fs0
 BYTE   W01
 BYTE   VOL   44*IsaacBattle_mvl/mxv
 BYTE   W06
 BYTE   Gs1
 BYTE   W05
 BYTE   N05
 BYTE   W01
 BYTE   VOL   43*IsaacBattle_mvl/mxv
 BYTE   W05
 BYTE   N05
 BYTE   W01
 BYTE   VOL   43*IsaacBattle_mvl/mxv
 BYTE   W05
 BYTE   N05  Fs1
 BYTE   W01
 BYTE   VOL   42*IsaacBattle_mvl/mxv
 BYTE   W05
 BYTE   N05  En1
 BYTE   W01
 BYTE   VOL   42*IsaacBattle_mvl/mxv
 BYTE   W05
 BYTE   N05  Fs1
 BYTE   W01
 BYTE   VOL   42*IsaacBattle_mvl/mxv
 BYTE   W05
 BYTE   N05  Cs1
 BYTE   W01
 BYTE   VOL   41*IsaacBattle_mvl/mxv
 BYTE   W05
 BYTE   N11  Fs0
 BYTE   W01
 BYTE   VOL   41*IsaacBattle_mvl/mxv
 BYTE   W06
 BYTE   En1
 BYTE   W05
 BYTE   N05
 BYTE   W01
 BYTE   VOL   40*IsaacBattle_mvl/mxv
 BYTE   W05
 BYTE   N05
 BYTE   W02
 BYTE   VOL   39*IsaacBattle_mvl/mxv
 BYTE   W04
 BYTE   N05  Fs1
 BYTE   W02
 BYTE   VOL   39*IsaacBattle_mvl/mxv
 BYTE   W04
 BYTE   N05  En1
 BYTE   W02
 BYTE   VOL   38*IsaacBattle_mvl/mxv
 BYTE   W04
 BYTE   N05  Fs1
 BYTE   W02
 BYTE   VOL   38*IsaacBattle_mvl/mxv
 BYTE   W04
 BYTE   N05  Cs1
 BYTE   W02
 BYTE   VOL   37*IsaacBattle_mvl/mxv
 BYTE   W04
// 022   ----------------------------------------
 BYTE   N11  Fs0
 BYTE   W02
 BYTE   VOL   37*IsaacBattle_mvl/mxv
 BYTE   W06
 BYTE   Cn1
 BYTE   W04
 BYTE   N05
 BYTE   W02
 BYTE   VOL   36*IsaacBattle_mvl/mxv
 BYTE   W04
 BYTE   N05
 BYTE   W02
 BYTE   VOL   35*IsaacBattle_mvl/mxv
 BYTE   W04
 BYTE   N05  Fs1
 BYTE   W02
 BYTE   VOL   35*IsaacBattle_mvl/mxv
 BYTE   W04
 BYTE   N05  En1
 BYTE   W02
 BYTE   VOL   34*IsaacBattle_mvl/mxv
 BYTE   W04
 BYTE   N05  Fs1
 BYTE   W02
 BYTE   VOL   34*IsaacBattle_mvl/mxv
 BYTE   W04
 BYTE   N05  Cs1
 BYTE   W02
 BYTE   VOL   34*IsaacBattle_mvl/mxv
 BYTE   W04
 BYTE   N11  Fs0
 BYTE   W02
 BYTE   VOL   33*IsaacBattle_mvl/mxv
 BYTE   W06
 BYTE   An0
 BYTE   W04
 BYTE   N05
 BYTE   W02
 BYTE   VOL   32*IsaacBattle_mvl/mxv
 BYTE   W04
 BYTE   N05
 BYTE   W02
 BYTE   VOL   32*IsaacBattle_mvl/mxv
 BYTE   W04
 BYTE   N05  Fs1
 BYTE   W02
 BYTE   VOL   31*IsaacBattle_mvl/mxv
 BYTE   W04
 BYTE   N05  En1
 BYTE   W02
 BYTE   VOL   31*IsaacBattle_mvl/mxv
 BYTE   W04
 BYTE   N05  Fs1
 BYTE   W02
 BYTE   VOL   30*IsaacBattle_mvl/mxv
 BYTE   W04
 BYTE   N05  Cs1
 BYTE   W02
 BYTE   VOL   30*IsaacBattle_mvl/mxv
 BYTE   W04
// 023   ----------------------------------------
 BYTE   N11  Fs0
 BYTE   W03
 BYTE   VOL   29*IsaacBattle_mvl/mxv
 BYTE   W06
 BYTE   Fn0
 BYTE   W03
 BYTE   N05
 BYTE   W03
 BYTE   VOL   28*IsaacBattle_mvl/mxv
 BYTE   W03
 BYTE   N05
 BYTE   W03
 BYTE   VOL   28*IsaacBattle_mvl/mxv
 BYTE   W03
 BYTE   N05  Fs1
 BYTE   W03
 BYTE   VOL   27*IsaacBattle_mvl/mxv
 BYTE   W03
 BYTE   N05  En1
 BYTE   W03
 BYTE   VOL   27*IsaacBattle_mvl/mxv
 BYTE   W03
 BYTE   N05  Fs1
 BYTE   W03
 BYTE   VOL   26*IsaacBattle_mvl/mxv
 BYTE   W03
 BYTE   N05  Cs1
 BYTE   W03
 BYTE   VOL   26*IsaacBattle_mvl/mxv
 BYTE   W03
 BYTE   N11  Fs0
 BYTE   W03
 BYTE   VOL   25*IsaacBattle_mvl/mxv
 BYTE   W06
 BYTE   Cs0
 BYTE   W03
 BYTE   N05
 BYTE   W03
 BYTE   VOL   25*IsaacBattle_mvl/mxv
 BYTE   W03
 BYTE   N05
 BYTE   W03
 BYTE   VOL   24*IsaacBattle_mvl/mxv
 BYTE   W03
 BYTE   N05  Fs1
 BYTE   W03
 BYTE   VOL   24*IsaacBattle_mvl/mxv
 BYTE   W03
 BYTE   N05  En1
 BYTE   W03
 BYTE   VOL   23*IsaacBattle_mvl/mxv
 BYTE   W03
 BYTE   N05  Fs1
 BYTE   W03
 BYTE   VOL   23*IsaacBattle_mvl/mxv
 BYTE   W03
 BYTE   N05  Cs1
 BYTE   W03
 BYTE   VOL   22*IsaacBattle_mvl/mxv
 BYTE   W03
// 024   ----------------------------------------
 BYTE   N11  Fs0
 BYTE   W03
 BYTE   VOL   22*IsaacBattle_mvl/mxv
 BYTE   W06
 BYTE   AnM1
 BYTE   W03
 BYTE   N05
 BYTE   W03
 BYTE   VOL   21*IsaacBattle_mvl/mxv
 BYTE   W03
 BYTE   N05
 BYTE   W03
 BYTE   VOL   20*IsaacBattle_mvl/mxv
 BYTE   W03
 BYTE   N05  Fs1
 BYTE   W03
 BYTE   VOL   20*IsaacBattle_mvl/mxv
 BYTE   W03
 BYTE   N05  En1
 BYTE   W04
 BYTE   VOL   19*IsaacBattle_mvl/mxv
 BYTE   W02
 BYTE   N05  Fs1
 BYTE   W04
 BYTE   VOL   19*IsaacBattle_mvl/mxv
 BYTE   W02
 BYTE   N05  Cs1
 BYTE   W04
 BYTE   VOL   18*IsaacBattle_mvl/mxv
 BYTE   W02
 BYTE   N11  Fs0
 BYTE   W04
 BYTE   VOL   18*IsaacBattle_mvl/mxv
 BYTE   W06
 BYTE   FnM1
 BYTE   W02
 BYTE   N05
 BYTE   W04
 BYTE   VOL   17*IsaacBattle_mvl/mxv
 BYTE   W02
 BYTE   N05
 BYTE   W04
 BYTE   VOL   17*IsaacBattle_mvl/mxv
 BYTE   W02
 BYTE   N05  Fs1
 BYTE   W04
 BYTE   VOL   16*IsaacBattle_mvl/mxv
 BYTE   W02
 BYTE   N05  En1
 BYTE   W04
 BYTE   VOL   16*IsaacBattle_mvl/mxv
 BYTE   W02
 BYTE   N05  Fs1
 BYTE   W04
 BYTE   VOL   15*IsaacBattle_mvl/mxv
 BYTE   W02
 BYTE   N05  Cs1
 BYTE   W04
 BYTE   VOL   15*IsaacBattle_mvl/mxv
 BYTE   W02
// 025   ----------------------------------------
 BYTE   N11  Fs0
 BYTE   W04
 BYTE   VOL   14*IsaacBattle_mvl/mxv
 BYTE   W06
 BYTE   DnM1
 BYTE   W02
 BYTE   N05
 BYTE   W04
 BYTE   VOL   13*IsaacBattle_mvl/mxv
 BYTE   W02
 BYTE   N05
 BYTE   W04
 BYTE   VOL   13*IsaacBattle_mvl/mxv
 BYTE   W02
 BYTE   N05  Fs1
 BYTE   W04
 BYTE   VOL   12*IsaacBattle_mvl/mxv
 BYTE   W02
 BYTE   N05  En1
 BYTE   W04
 BYTE   VOL   12*IsaacBattle_mvl/mxv
 BYTE   W02
 BYTE   N05  Fs1
 BYTE   W04
 BYTE   VOL   11*IsaacBattle_mvl/mxv
 BYTE   W02
 BYTE   N05  Cs1
 BYTE   W04
 BYTE   VOL   11*IsaacBattle_mvl/mxv
 BYTE   W02
 BYTE   N11  Fs0
 BYTE   W04
 BYTE   VOL   10*IsaacBattle_mvl/mxv
 BYTE   W06
 BYTE   AsM2
 BYTE   W02
 BYTE   N05
 BYTE   W05
 BYTE   VOL   9*IsaacBattle_mvl/mxv
 BYTE   W01
 BYTE   N05
 BYTE   W05
 BYTE   VOL   9*IsaacBattle_mvl/mxv
 BYTE   W01
 BYTE   N05  Fs1
 BYTE   W05
 BYTE   VOL   8*IsaacBattle_mvl/mxv
 BYTE   W01
 BYTE   N05  En1
 BYTE   W05
 BYTE   VOL   8*IsaacBattle_mvl/mxv
 BYTE   W01
 BYTE   N05  Fs1
 BYTE   W05
 BYTE   VOL   8*IsaacBattle_mvl/mxv
 BYTE   W01
 BYTE   N05  Cs1
 BYTE   W05
 BYTE   VOL   7*IsaacBattle_mvl/mxv
 BYTE   W01
// 026   ----------------------------------------
 BYTE   N11  Fs0
 BYTE   W05
 BYTE   VOL   7*IsaacBattle_mvl/mxv
 BYTE   W06
 BYTE   FsM2
 BYTE   W01
 BYTE   N05
 BYTE   W05
 BYTE   VOL   6*IsaacBattle_mvl/mxv
 BYTE   W01
 BYTE   N05
 BYTE   W05
 BYTE   VOL   5*IsaacBattle_mvl/mxv
 BYTE   W01
 BYTE   N05  Fs1
 BYTE   W05
 BYTE   VOL   5*IsaacBattle_mvl/mxv
 BYTE   W01
 BYTE   N05  En1
 BYTE   W05
 BYTE   VOL   4*IsaacBattle_mvl/mxv
 BYTE   W01
 BYTE   N05  Fs1
 BYTE   W05
 BYTE   VOL   4*IsaacBattle_mvl/mxv
 BYTE   W01
 BYTE   N05  Cs1
 BYTE   W05
 BYTE   VOL   3*IsaacBattle_mvl/mxv
 BYTE   W01
 BYTE   N11  Fs0
 BYTE   W05
 BYTE   VOL   3*IsaacBattle_mvl/mxv
 BYTE   W06
 BYTE   DnM2
 BYTE   W01
 BYTE   N05
 BYTE   W05
 BYTE   VOL   2*IsaacBattle_mvl/mxv
 BYTE   W01
 BYTE   N05
 BYTE   W05
 BYTE   VOL   1*IsaacBattle_mvl/mxv
 BYTE   W01
 BYTE   N05  Fs1
 BYTE   W05
 BYTE   VOL   1*IsaacBattle_mvl/mxv
 BYTE   W01
 BYTE   N05  En1
 BYTE   W05
 BYTE   VOL   0*IsaacBattle_mvl/mxv
 BYTE   W01
 BYTE   N05  Fs1
 BYTE   W05
 BYTE   VOL   0*IsaacBattle_mvl/mxv
 BYTE   W01
 BYTE   N05  Cs1
 BYTE   W06
// 027   ----------------------------------------
 BYTE   GoTo
  POIN2 Label_IsaacBattle_1_0146919A
// 028   ----------------------------------------
 BYTE   VOL   0*IsaacBattle_mvl/mxv
 BYTE   FINE

//**************** Track 3 (Midi-Chn.2) ****************//

IsaacBattle_003:
// 000   ----------------------------------------
 BYTE   KEYSH   IsaacBattle_key+0
Label_IsaacBattle_2_014699D6:
 BYTE   VOICE   19
 BYTE   VOL   60*IsaacBattle_mvl/mxv
 BYTE   PAN   c_v+0
 BYTE   N05  En2  v112
 BYTE   W06
 BYTE   Bn1
 BYTE   W06
 BYTE   N05
 BYTE   W06
 BYTE   Dn2
 BYTE   W06
 BYTE   N05
 BYTE   W06
 BYTE   Cn2
 BYTE   W06
 BYTE   N05
 BYTE   W06
 BYTE   Dn2
 BYTE   W06
 BYTE   N05
 BYTE   W06
 BYTE   N05
 BYTE   W06
 BYTE   Cn2
 BYTE   W06
 BYTE   N05
 BYTE   W06
 BYTE   Bn1
 BYTE   W06
 BYTE   An1
 BYTE   W06
 BYTE   Gn1
 BYTE   W06
 BYTE   Fn1
 BYTE   W06
// 001   ----------------------------------------
Label_IsaacBattle_2_014699FE:
 BYTE   N11  Bn0  v112
 BYTE   W12
 BYTE   N05  En1
 BYTE   W06
 BYTE   N11  Bn0
 BYTE   W12
 BYTE   N05
 BYTE   W06
 BYTE   En1
 BYTE   W06
 BYTE   Bn0
 BYTE   W06
 BYTE   PEND 
Label_IsaacBattle_2_01469A0F:
 BYTE   N05  Bn0  v112
 BYTE   W06
 BYTE   N05
 BYTE   W06
 BYTE   En1
 BYTE   W06
 BYTE   N11  Bn0
 BYTE   W12
 BYTE   N05
 BYTE   W06
 BYTE   En1
 BYTE   W06
 BYTE   Bn0
 BYTE   W06
 BYTE   PEND 
 BYTE   PATT
  POIN2 Label_IsaacBattle_2_014699FE
 BYTE   PATT
  POIN2 Label_IsaacBattle_2_01469A0F
 BYTE   PATT
  POIN2 Label_IsaacBattle_2_014699FE
 BYTE   PATT
  POIN2 Label_IsaacBattle_2_01469A0F
 BYTE   PATT
  POIN2 Label_IsaacBattle_2_014699FE
 BYTE   PATT
  POIN2 Label_IsaacBattle_2_01469A0F
 BYTE   PATT
  POIN2 Label_IsaacBattle_2_014699FE
 BYTE   PATT
  POIN2 Label_IsaacBattle_2_01469A0F
 BYTE   PATT
  POIN2 Label_IsaacBattle_2_014699FE
 BYTE   PATT
  POIN2 Label_IsaacBattle_2_01469A0F
 BYTE   PATT
  POIN2 Label_IsaacBattle_2_014699FE
 BYTE   PATT
  POIN2 Label_IsaacBattle_2_01469A0F
 BYTE   PATT
  POIN2 Label_IsaacBattle_2_014699FE
// 002   ----------------------------------------
Label_IsaacBattle_2_01469A62:
 BYTE   N05  Bn0  v112
 BYTE   W06
 BYTE   N05
 BYTE   W06
 BYTE   En1
 BYTE   W06
 BYTE   Bn0
 BYTE   W06
 BYTE   En1
 BYTE   W06
 BYTE   N05
 BYTE   W06
 BYTE   N05
 BYTE   W06
 BYTE   N05
 BYTE   W06
 BYTE   PEND 
 BYTE   PATT
  POIN2 Label_IsaacBattle_2_014699FE
 BYTE   PATT
  POIN2 Label_IsaacBattle_2_01469A0F
 BYTE   PATT
  POIN2 Label_IsaacBattle_2_014699FE
 BYTE   PATT
  POIN2 Label_IsaacBattle_2_01469A0F
 BYTE   PATT
  POIN2 Label_IsaacBattle_2_014699FE
 BYTE   PATT
  POIN2 Label_IsaacBattle_2_01469A0F
 BYTE   PATT
  POIN2 Label_IsaacBattle_2_014699FE
 BYTE   PATT
  POIN2 Label_IsaacBattle_2_01469A0F
 BYTE   PATT
  POIN2 Label_IsaacBattle_2_014699FE
 BYTE   PATT
  POIN2 Label_IsaacBattle_2_01469A0F
 BYTE   PATT
  POIN2 Label_IsaacBattle_2_014699FE
 BYTE   PATT
  POIN2 Label_IsaacBattle_2_01469A0F
 BYTE   PATT
  POIN2 Label_IsaacBattle_2_014699FE
 BYTE   PATT
  POIN2 Label_IsaacBattle_2_01469A62
 BYTE   PATT
  POIN2 Label_IsaacBattle_2_014699FE
 BYTE   PATT
  POIN2 Label_IsaacBattle_2_01469A0F
 BYTE   PATT
  POIN2 Label_IsaacBattle_2_014699FE
 BYTE   PATT
  POIN2 Label_IsaacBattle_2_01469A0F
 BYTE   PATT
  POIN2 Label_IsaacBattle_2_014699FE
 BYTE   PATT
  POIN2 Label_IsaacBattle_2_01469A0F
 BYTE   PATT
  POIN2 Label_IsaacBattle_2_014699FE
 BYTE   PATT
  POIN2 Label_IsaacBattle_2_01469A0F
 BYTE   PATT
  POIN2 Label_IsaacBattle_2_014699FE
 BYTE   PATT
  POIN2 Label_IsaacBattle_2_01469A0F
 BYTE   PATT
  POIN2 Label_IsaacBattle_2_014699FE
 BYTE   PATT
  POIN2 Label_IsaacBattle_2_01469A0F
 BYTE   PATT
  POIN2 Label_IsaacBattle_2_014699FE
 BYTE   PATT
  POIN2 Label_IsaacBattle_2_01469A0F
 BYTE   PATT
  POIN2 Label_IsaacBattle_2_014699FE
 BYTE   PATT
  POIN2 Label_IsaacBattle_2_01469A62
 BYTE   PATT
  POIN2 Label_IsaacBattle_2_014699FE
 BYTE   PATT
  POIN2 Label_IsaacBattle_2_01469A0F
 BYTE   PATT
  POIN2 Label_IsaacBattle_2_014699FE
 BYTE   PATT
  POIN2 Label_IsaacBattle_2_01469A0F
 BYTE   PATT
  POIN2 Label_IsaacBattle_2_014699FE
 BYTE   PATT
  POIN2 Label_IsaacBattle_2_01469A0F
 BYTE   PATT
  POIN2 Label_IsaacBattle_2_014699FE
 BYTE   PATT
  POIN2 Label_IsaacBattle_2_01469A62
// 003   ----------------------------------------
Label_IsaacBattle_2_01469B33:
 BYTE   N05  En1  v112
 BYTE   W12
 BYTE   Bn0
 BYTE   W06
 BYTE   N05
 BYTE   W06
 BYTE   En1
 BYTE   W06
 BYTE   Bn0
 BYTE   W12
 BYTE   N05
 BYTE   W06
 BYTE   PEND 
 BYTE   PATT
  POIN2 Label_IsaacBattle_2_01469B33
 BYTE   PATT
  POIN2 Label_IsaacBattle_2_01469B33
 BYTE   PATT
  POIN2 Label_IsaacBattle_2_01469B33
 BYTE   PATT
  POIN2 Label_IsaacBattle_2_01469B33
 BYTE   PATT
  POIN2 Label_IsaacBattle_2_01469B33
 BYTE   PATT
  POIN2 Label_IsaacBattle_2_01469B33
// 004   ----------------------------------------
Label_IsaacBattle_2_01469B60:
 BYTE   N05  En1  v112
 BYTE   W12
 BYTE   Bn0
 BYTE   W06
 BYTE   N05
 BYTE   W06
 BYTE   En1
 BYTE   N05  Cn2
 BYTE   N05  Dn2
 BYTE   W06
 BYTE   En1
 BYTE   N05  Bn1
 BYTE   N05  Cn2
 BYTE   W06
 BYTE   En1
 BYTE   N05  An1
 BYTE   N05  Bn1
 BYTE   W06
 BYTE   En1
 BYTE   N05  Gn1
 BYTE   N05  An1
 BYTE   W06
 BYTE   PEND 
 BYTE   PATT
  POIN2 Label_IsaacBattle_2_01469B33
 BYTE   PATT
  POIN2 Label_IsaacBattle_2_01469B33
 BYTE   PATT
  POIN2 Label_IsaacBattle_2_01469B33
 BYTE   PATT
  POIN2 Label_IsaacBattle_2_01469B33
 BYTE   PATT
  POIN2 Label_IsaacBattle_2_01469B33
 BYTE   PATT
  POIN2 Label_IsaacBattle_2_01469B33
 BYTE   PATT
  POIN2 Label_IsaacBattle_2_01469B33
 BYTE   PATT
  POIN2 Label_IsaacBattle_2_01469B60
 BYTE   PATT
  POIN2 Label_IsaacBattle_2_014699FE
 BYTE   PATT
  POIN2 Label_IsaacBattle_2_01469A0F
 BYTE   PATT
  POIN2 Label_IsaacBattle_2_014699FE
 BYTE   PATT
  POIN2 Label_IsaacBattle_2_01469A0F
 BYTE   PATT
  POIN2 Label_IsaacBattle_2_014699FE
 BYTE   PATT
  POIN2 Label_IsaacBattle_2_01469A0F
 BYTE   PATT
  POIN2 Label_IsaacBattle_2_014699FE
 BYTE   PATT
  POIN2 Label_IsaacBattle_2_01469A0F
 BYTE   PATT
  POIN2 Label_IsaacBattle_2_014699FE
 BYTE   PATT
  POIN2 Label_IsaacBattle_2_01469A0F
 BYTE   PATT
  POIN2 Label_IsaacBattle_2_014699FE
 BYTE   PATT
  POIN2 Label_IsaacBattle_2_01469A0F
 BYTE   PATT
  POIN2 Label_IsaacBattle_2_014699FE
 BYTE   PATT
  POIN2 Label_IsaacBattle_2_01469A0F
 BYTE   PATT
  POIN2 Label_IsaacBattle_2_014699FE
 BYTE   PATT
  POIN2 Label_IsaacBattle_2_01469A62
 BYTE   PATT
  POIN2 Label_IsaacBattle_2_014699FE
 BYTE   PATT
  POIN2 Label_IsaacBattle_2_01469A0F
 BYTE   PATT
  POIN2 Label_IsaacBattle_2_014699FE
 BYTE   PATT
  POIN2 Label_IsaacBattle_2_01469A0F
 BYTE   PATT
  POIN2 Label_IsaacBattle_2_014699FE
 BYTE   PATT
  POIN2 Label_IsaacBattle_2_01469A0F
 BYTE   PATT
  POIN2 Label_IsaacBattle_2_014699FE
 BYTE   PATT
  POIN2 Label_IsaacBattle_2_01469A0F
 BYTE   PATT
  POIN2 Label_IsaacBattle_2_014699FE
 BYTE   PATT
  POIN2 Label_IsaacBattle_2_01469A0F
 BYTE   PATT
  POIN2 Label_IsaacBattle_2_014699FE
 BYTE   PATT
  POIN2 Label_IsaacBattle_2_01469A0F
 BYTE   PATT
  POIN2 Label_IsaacBattle_2_014699FE
 BYTE   PATT
  POIN2 Label_IsaacBattle_2_01469A62
 BYTE   PATT
  POIN2 Label_IsaacBattle_2_014699FE
 BYTE   PATT
  POIN2 Label_IsaacBattle_2_01469A0F
 BYTE   PATT
  POIN2 Label_IsaacBattle_2_014699FE
 BYTE   PATT
  POIN2 Label_IsaacBattle_2_01469A0F
 BYTE   PATT
  POIN2 Label_IsaacBattle_2_014699FE
 BYTE   PATT
  POIN2 Label_IsaacBattle_2_01469A0F
 BYTE   PATT
  POIN2 Label_IsaacBattle_2_014699FE
 BYTE   PATT
  POIN2 Label_IsaacBattle_2_01469A0F
 BYTE   PATT
  POIN2 Label_IsaacBattle_2_014699FE
 BYTE   PATT
  POIN2 Label_IsaacBattle_2_01469A0F
 BYTE   PATT
  POIN2 Label_IsaacBattle_2_014699FE
 BYTE   PATT
  POIN2 Label_IsaacBattle_2_01469A0F
 BYTE   PATT
  POIN2 Label_IsaacBattle_2_014699FE
 BYTE   PATT
  POIN2 Label_IsaacBattle_2_01469A0F
 BYTE   PATT
  POIN2 Label_IsaacBattle_2_014699FE
 BYTE   PATT
  POIN2 Label_IsaacBattle_2_01469A62
 BYTE   PATT
  POIN2 Label_IsaacBattle_2_014699FE
 BYTE   PATT
  POIN2 Label_IsaacBattle_2_01469A0F
 BYTE   PATT
  POIN2 Label_IsaacBattle_2_014699FE
 BYTE   PATT
  POIN2 Label_IsaacBattle_2_01469A0F
 BYTE   PATT
  POIN2 Label_IsaacBattle_2_014699FE
 BYTE   PATT
  POIN2 Label_IsaacBattle_2_01469A0F
 BYTE   PATT
  POIN2 Label_IsaacBattle_2_014699FE
 BYTE   PATT
  POIN2 Label_IsaacBattle_2_01469A62
 BYTE   PATT
  POIN2 Label_IsaacBattle_2_01469B33
 BYTE   PATT
  POIN2 Label_IsaacBattle_2_01469B33
 BYTE   PATT
  POIN2 Label_IsaacBattle_2_01469B33
 BYTE   PATT
  POIN2 Label_IsaacBattle_2_01469B33
 BYTE   PATT
  POIN2 Label_IsaacBattle_2_01469B33
 BYTE   PATT
  POIN2 Label_IsaacBattle_2_01469B33
 BYTE   PATT
  POIN2 Label_IsaacBattle_2_01469B33
 BYTE   PATT
  POIN2 Label_IsaacBattle_2_01469B60
 BYTE   PATT
  POIN2 Label_IsaacBattle_2_01469B33
 BYTE   PATT
  POIN2 Label_IsaacBattle_2_01469B33
 BYTE   PATT
  POIN2 Label_IsaacBattle_2_01469B33
 BYTE   PATT
  POIN2 Label_IsaacBattle_2_01469B33
 BYTE   PATT
  POIN2 Label_IsaacBattle_2_01469B33
 BYTE   PATT
  POIN2 Label_IsaacBattle_2_01469B33
 BYTE   PATT
  POIN2 Label_IsaacBattle_2_01469B33
 BYTE   PATT
  POIN2 Label_IsaacBattle_2_01469B60
 BYTE   PATT
  POIN2 Label_IsaacBattle_2_014699FE
 BYTE   PATT
  POIN2 Label_IsaacBattle_2_01469A0F
 BYTE   PATT
  POIN2 Label_IsaacBattle_2_014699FE
 BYTE   PATT
  POIN2 Label_IsaacBattle_2_01469A0F
 BYTE   PATT
  POIN2 Label_IsaacBattle_2_014699FE
 BYTE   PATT
  POIN2 Label_IsaacBattle_2_01469A0F
 BYTE   PATT
  POIN2 Label_IsaacBattle_2_014699FE
 BYTE   PATT
  POIN2 Label_IsaacBattle_2_01469A0F
 BYTE   PATT
  POIN2 Label_IsaacBattle_2_014699FE
 BYTE   PATT
  POIN2 Label_IsaacBattle_2_01469A0F
 BYTE   PATT
  POIN2 Label_IsaacBattle_2_014699FE
 BYTE   PATT
  POIN2 Label_IsaacBattle_2_01469A0F
 BYTE   PATT
  POIN2 Label_IsaacBattle_2_014699FE
 BYTE   PATT
  POIN2 Label_IsaacBattle_2_01469A0F
 BYTE   PATT
  POIN2 Label_IsaacBattle_2_014699FE
 BYTE   PATT
  POIN2 Label_IsaacBattle_2_01469A62
 BYTE   PATT
  POIN2 Label_IsaacBattle_2_014699FE
 BYTE   PATT
  POIN2 Label_IsaacBattle_2_01469A0F
 BYTE   PATT
  POIN2 Label_IsaacBattle_2_014699FE
 BYTE   PATT
  POIN2 Label_IsaacBattle_2_01469A0F
 BYTE   PATT
  POIN2 Label_IsaacBattle_2_014699FE
 BYTE   PATT
  POIN2 Label_IsaacBattle_2_01469A0F
 BYTE   PATT
  POIN2 Label_IsaacBattle_2_014699FE
 BYTE   PATT
  POIN2 Label_IsaacBattle_2_01469A0F
 BYTE   PATT
  POIN2 Label_IsaacBattle_2_014699FE
 BYTE   PATT
  POIN2 Label_IsaacBattle_2_01469A0F
 BYTE   PATT
  POIN2 Label_IsaacBattle_2_014699FE
 BYTE   PATT
  POIN2 Label_IsaacBattle_2_01469A0F
 BYTE   PATT
  POIN2 Label_IsaacBattle_2_014699FE
 BYTE   PATT
  POIN2 Label_IsaacBattle_2_01469A62
 BYTE   PATT
  POIN2 Label_IsaacBattle_2_014699FE
 BYTE   PATT
  POIN2 Label_IsaacBattle_2_01469A0F
 BYTE   PATT
  POIN2 Label_IsaacBattle_2_014699FE
 BYTE   PATT
  POIN2 Label_IsaacBattle_2_01469A0F
 BYTE   PATT
  POIN2 Label_IsaacBattle_2_014699FE
 BYTE   PATT
  POIN2 Label_IsaacBattle_2_01469A0F
 BYTE   PATT
  POIN2 Label_IsaacBattle_2_014699FE
 BYTE   PATT
  POIN2 Label_IsaacBattle_2_01469A0F
 BYTE   PATT
  POIN2 Label_IsaacBattle_2_014699FE
 BYTE   PATT
  POIN2 Label_IsaacBattle_2_01469A0F
 BYTE   PATT
  POIN2 Label_IsaacBattle_2_014699FE
 BYTE   PATT
  POIN2 Label_IsaacBattle_2_01469A0F
 BYTE   PATT
  POIN2 Label_IsaacBattle_2_014699FE
 BYTE   PATT
  POIN2 Label_IsaacBattle_2_01469A0F
 BYTE   PATT
  POIN2 Label_IsaacBattle_2_014699FE
 BYTE   PATT
  POIN2 Label_IsaacBattle_2_01469A62
 BYTE   PATT
  POIN2 Label_IsaacBattle_2_014699FE
 BYTE   PATT
  POIN2 Label_IsaacBattle_2_01469A0F
 BYTE   PATT
  POIN2 Label_IsaacBattle_2_014699FE
 BYTE   PATT
  POIN2 Label_IsaacBattle_2_01469A0F
 BYTE   PATT
  POIN2 Label_IsaacBattle_2_014699FE
 BYTE   PATT
  POIN2 Label_IsaacBattle_2_01469A0F
 BYTE   PATT
  POIN2 Label_IsaacBattle_2_014699FE
 BYTE   PATT
  POIN2 Label_IsaacBattle_2_01469A62
// 005   ----------------------------------------
 BYTE   VOL   60*IsaacBattle_mvl/mxv
 BYTE   N05  En1  v112
 BYTE   W06
 BYTE   VOL   59*IsaacBattle_mvl/mxv
 BYTE   W06
 BYTE   Bn2
 BYTE   N05  Bn0
 BYTE   W06
 BYTE   VOL   58*IsaacBattle_mvl/mxv
 BYTE   N05
 BYTE   W06
 BYTE   VOL   58*IsaacBattle_mvl/mxv
 BYTE   N05  En1
 BYTE   W06
 BYTE   VOL   57*IsaacBattle_mvl/mxv
 BYTE   N05  Bn0
 BYTE   W06
 BYTE   VOL   57*IsaacBattle_mvl/mxv
 BYTE   W06
 BYTE   Gs2
 BYTE   N05
 BYTE   W06
 BYTE   VOL   56*IsaacBattle_mvl/mxv
 BYTE   N05  En1
 BYTE   W06
 BYTE   VOL   55*IsaacBattle_mvl/mxv
 BYTE   W06
 BYTE   Gn2
 BYTE   N05  Bn0
 BYTE   W06
 BYTE   VOL   54*IsaacBattle_mvl/mxv
 BYTE   N05
 BYTE   W06
 BYTE   VOL   54*IsaacBattle_mvl/mxv
 BYTE   N05  En1
 BYTE   W06
 BYTE   VOL   53*IsaacBattle_mvl/mxv
 BYTE   N05  Bn0
 BYTE   W06
 BYTE   VOL   53*IsaacBattle_mvl/mxv
 BYTE   W06
 BYTE   En2
 BYTE   N05
 BYTE   W06
// 006   ----------------------------------------
 BYTE   VOL   52*IsaacBattle_mvl/mxv
 BYTE   N05  En1
 BYTE   W06
 BYTE   VOL   51*IsaacBattle_mvl/mxv
 BYTE   W06
 BYTE   Ds2
 BYTE   N05  Bn0
 BYTE   W06
 BYTE   VOL   51*IsaacBattle_mvl/mxv
 BYTE   N05
 BYTE   W06
 BYTE   VOL   50*IsaacBattle_mvl/mxv
 BYTE   N05  En1
 BYTE   W06
 BYTE   VOL   50*IsaacBattle_mvl/mxv
 BYTE   N05  Bn0
 BYTE   W07
 BYTE   VOL   49*IsaacBattle_mvl/mxv
 BYTE   W05
 BYTE   N05
 BYTE   W01
 BYTE   VOL   49*IsaacBattle_mvl/mxv
 BYTE   W05
 BYTE   N05  En1
 BYTE   W01
 BYTE   VOL   48*IsaacBattle_mvl/mxv
 BYTE   W06
 BYTE   Cn2
 BYTE   W05
 BYTE   N05  Bn0
 BYTE   W01
 BYTE   VOL   47*IsaacBattle_mvl/mxv
 BYTE   W05
 BYTE   N05
 BYTE   W01
 BYTE   VOL   47*IsaacBattle_mvl/mxv
 BYTE   W05
 BYTE   N05  En1
 BYTE   W01
 BYTE   VOL   46*IsaacBattle_mvl/mxv
 BYTE   W05
 BYTE   N05  Bn0
 BYTE   W01
 BYTE   VOL   46*IsaacBattle_mvl/mxv
 BYTE   W06
 BYTE   An1
 BYTE   W05
 BYTE   N05
 BYTE   W01
 BYTE   VOL   45*IsaacBattle_mvl/mxv
 BYTE   W05
// 007   ----------------------------------------
 BYTE   N05  En1
 BYTE   W01
 BYTE   VOL   44*IsaacBattle_mvl/mxv
 BYTE   W06
 BYTE   Gs1
 BYTE   W05
 BYTE   N05  Bn0
 BYTE   W01
 BYTE   VOL   43*IsaacBattle_mvl/mxv
 BYTE   W05
 BYTE   N05
 BYTE   W01
 BYTE   VOL   43*IsaacBattle_mvl/mxv
 BYTE   W05
 BYTE   N05  En1
 BYTE   W01
 BYTE   VOL   42*IsaacBattle_mvl/mxv
 BYTE   W05
 BYTE   N05  Bn0
 BYTE   W01
 BYTE   VOL   42*IsaacBattle_mvl/mxv
 BYTE   W06
 BYTE   Fs1
 BYTE   W05
 BYTE   N05
 BYTE   W01
 BYTE   VOL   41*IsaacBattle_mvl/mxv
 BYTE   W05
 BYTE   N05  En1
 BYTE   W01
 BYTE   VOL   41*IsaacBattle_mvl/mxv
 BYTE   W06
 BYTE   En1
 BYTE   W05
 BYTE   N05  Bn0
 BYTE   W01
 BYTE   VOL   40*IsaacBattle_mvl/mxv
 BYTE   W05
 BYTE   N05
 BYTE   W02
 BYTE   VOL   39*IsaacBattle_mvl/mxv
 BYTE   W04
 BYTE   N05  En1
 BYTE   W02
 BYTE   VOL   39*IsaacBattle_mvl/mxv
 BYTE   W04
 BYTE   N05  Bn0
 BYTE   W02
 BYTE   VOL   38*IsaacBattle_mvl/mxv
 BYTE   W06
 BYTE   Dn1
 BYTE   W04
 BYTE   N05
 BYTE   W02
 BYTE   VOL   37*IsaacBattle_mvl/mxv
 BYTE   W04
// 008   ----------------------------------------
 BYTE   N05  En1
 BYTE   W02
 BYTE   VOL   37*IsaacBattle_mvl/mxv
 BYTE   W06
 BYTE   Cn1
 BYTE   W04
 BYTE   N05  Bn0
 BYTE   W02
 BYTE   VOL   36*IsaacBattle_mvl/mxv
 BYTE   W04
 BYTE   N05
 BYTE   W02
 BYTE   VOL   35*IsaacBattle_mvl/mxv
 BYTE   W04
 BYTE   N05  En1
 BYTE   W02
 BYTE   VOL   35*IsaacBattle_mvl/mxv
 BYTE   W04
 BYTE   N05  Bn0
 BYTE   W02
 BYTE   VOL   34*IsaacBattle_mvl/mxv
 BYTE   W06
 BYTE   As0
 BYTE   W04
 BYTE   N05
 BYTE   W02
 BYTE   VOL   34*IsaacBattle_mvl/mxv
 BYTE   W04
 BYTE   N05  En1
 BYTE   W02
 BYTE   VOL   33*IsaacBattle_mvl/mxv
 BYTE   W06
 BYTE   An0
 BYTE   W04
 BYTE   N05  Bn0
 BYTE   W02
 BYTE   VOL   32*IsaacBattle_mvl/mxv
 BYTE   W04
 BYTE   N05
 BYTE   W02
 BYTE   VOL   32*IsaacBattle_mvl/mxv
 BYTE   W04
 BYTE   N05  En1
 BYTE   N05  Cn2
 BYTE   N05  Dn2
 BYTE   W02
 BYTE   VOL   31*IsaacBattle_mvl/mxv
 BYTE   W04
 BYTE   N05  En1
 BYTE   N05  Bn1
 BYTE   N05  Cn2
 BYTE   W02
 BYTE   VOL   31*IsaacBattle_mvl/mxv
 BYTE   W04
 BYTE   N05  En1
 BYTE   N05  An1
 BYTE   N05  Bn1
 BYTE   W02
 BYTE   VOL   30*IsaacBattle_mvl/mxv
 BYTE   W04
 BYTE   N05  En1
 BYTE   N05  Gn1
 BYTE   N05  An1
 BYTE   W02
 BYTE   VOL   30*IsaacBattle_mvl/mxv
 BYTE   W04
// 009   ----------------------------------------
 BYTE   N05  En1
 BYTE   W03
 BYTE   VOL   29*IsaacBattle_mvl/mxv
 BYTE   W06
 BYTE   Fn0
 BYTE   W03
 BYTE   N05  Bn0
 BYTE   W03
 BYTE   VOL   28*IsaacBattle_mvl/mxv
 BYTE   W03
 BYTE   N05
 BYTE   W03
 BYTE   VOL   28*IsaacBattle_mvl/mxv
 BYTE   W03
 BYTE   N05  En1
 BYTE   W03
 BYTE   VOL   27*IsaacBattle_mvl/mxv
 BYTE   W03
 BYTE   N05  Bn0
 BYTE   W03
 BYTE   VOL   27*IsaacBattle_mvl/mxv
 BYTE   W06
 BYTE   Dn0
 BYTE   W03
 BYTE   N05
 BYTE   W03
 BYTE   VOL   26*IsaacBattle_mvl/mxv
 BYTE   W03
 BYTE   N05  En1
 BYTE   W03
 BYTE   VOL   25*IsaacBattle_mvl/mxv
 BYTE   W06
 BYTE   Cs0
 BYTE   W03
 BYTE   N05  Bn0
 BYTE   W03
 BYTE   VOL   25*IsaacBattle_mvl/mxv
 BYTE   W03
 BYTE   N05
 BYTE   W03
 BYTE   VOL   24*IsaacBattle_mvl/mxv
 BYTE   W03
 BYTE   N05  En1
 BYTE   W03
 BYTE   VOL   24*IsaacBattle_mvl/mxv
 BYTE   W03
 BYTE   N05  Bn0
 BYTE   W03
 BYTE   VOL   23*IsaacBattle_mvl/mxv
 BYTE   W06
 BYTE   BnM1
 BYTE   W03
 BYTE   N05
 BYTE   W03
 BYTE   VOL   22*IsaacBattle_mvl/mxv
 BYTE   W03
// 010   ----------------------------------------
 BYTE   N05  En1
 BYTE   W03
 BYTE   VOL   22*IsaacBattle_mvl/mxv
 BYTE   W06
 BYTE   AnM1
 BYTE   W03
 BYTE   N05  Bn0
 BYTE   W03
 BYTE   VOL   21*IsaacBattle_mvl/mxv
 BYTE   W03
 BYTE   N05
 BYTE   W03
 BYTE   VOL   20*IsaacBattle_mvl/mxv
 BYTE   W03
 BYTE   N05  En1
 BYTE   W03
 BYTE   VOL   20*IsaacBattle_mvl/mxv
 BYTE   W03
 BYTE   N05  Bn0
 BYTE   W04
 BYTE   VOL   19*IsaacBattle_mvl/mxv
 BYTE   W06
 BYTE   GnM1
 BYTE   W02
 BYTE   N05
 BYTE   W04
 BYTE   VOL   18*IsaacBattle_mvl/mxv
 BYTE   W02
 BYTE   N05  En1
 BYTE   W04
 BYTE   VOL   18*IsaacBattle_mvl/mxv
 BYTE   W06
 BYTE   FnM1
 BYTE   W02
 BYTE   N05  Bn0
 BYTE   W04
 BYTE   VOL   17*IsaacBattle_mvl/mxv
 BYTE   W02
 BYTE   N05
 BYTE   W04
 BYTE   VOL   17*IsaacBattle_mvl/mxv
 BYTE   W02
 BYTE   N05  En1
 BYTE   W04
 BYTE   VOL   16*IsaacBattle_mvl/mxv
 BYTE   W02
 BYTE   N05  Bn0
 BYTE   W04
 BYTE   VOL   16*IsaacBattle_mvl/mxv
 BYTE   W06
 BYTE   DsM1
 BYTE   W02
 BYTE   N05
 BYTE   W04
 BYTE   VOL   15*IsaacBattle_mvl/mxv
 BYTE   W02
// 011   ----------------------------------------
 BYTE   N05  En1
 BYTE   W04
 BYTE   VOL   14*IsaacBattle_mvl/mxv
 BYTE   W06
 BYTE   DnM1
 BYTE   W02
 BYTE   N05  Bn0
 BYTE   W04
 BYTE   VOL   13*IsaacBattle_mvl/mxv
 BYTE   W02
 BYTE   N05
 BYTE   W04
 BYTE   VOL   13*IsaacBattle_mvl/mxv
 BYTE   W02
 BYTE   N05  En1
 BYTE   W04
 BYTE   VOL   12*IsaacBattle_mvl/mxv
 BYTE   W02
 BYTE   N05  Bn0
 BYTE   W04
 BYTE   VOL   12*IsaacBattle_mvl/mxv
 BYTE   W06
 BYTE   BnM2
 BYTE   W02
 BYTE   N05
 BYTE   W04
 BYTE   VOL   11*IsaacBattle_mvl/mxv
 BYTE   W02
 BYTE   N05  En1
 BYTE   W04
 BYTE   VOL   10*IsaacBattle_mvl/mxv
 BYTE   W06
 BYTE   AsM2
 BYTE   W02
 BYTE   N05  Bn0
 BYTE   W05
 BYTE   VOL   9*IsaacBattle_mvl/mxv
 BYTE   W01
 BYTE   N05
 BYTE   W05
 BYTE   VOL   9*IsaacBattle_mvl/mxv
 BYTE   W01
 BYTE   N05  En1
 BYTE   W05
 BYTE   VOL   8*IsaacBattle_mvl/mxv
 BYTE   W01
 BYTE   N05  Bn0
 BYTE   W05
 BYTE   VOL   8*IsaacBattle_mvl/mxv
 BYTE   W06
 BYTE   GsM2
 BYTE   W01
 BYTE   N05
 BYTE   W05
 BYTE   VOL   7*IsaacBattle_mvl/mxv
 BYTE   W01
// 012   ----------------------------------------
 BYTE   N05  En1
 BYTE   W05
 BYTE   VOL   7*IsaacBattle_mvl/mxv
 BYTE   W06
 BYTE   FsM2
 BYTE   W01
 BYTE   N05  Bn0
 BYTE   W05
 BYTE   VOL   6*IsaacBattle_mvl/mxv
 BYTE   W01
 BYTE   N05
 BYTE   W05
 BYTE   VOL   5*IsaacBattle_mvl/mxv
 BYTE   W01
 BYTE   N05  En1
 BYTE   W05
 BYTE   VOL   5*IsaacBattle_mvl/mxv
 BYTE   W01
 BYTE   N05  Bn0
 BYTE   W05
 BYTE   VOL   4*IsaacBattle_mvl/mxv
 BYTE   W06
 BYTE   EnM2
 BYTE   W01
 BYTE   N05
 BYTE   W05
 BYTE   VOL   3*IsaacBattle_mvl/mxv
 BYTE   W01
 BYTE   N05  En1
 BYTE   W05
 BYTE   VOL   3*IsaacBattle_mvl/mxv
 BYTE   W06
 BYTE   DnM2
 BYTE   W01
 BYTE   N05  Bn0
 BYTE   W05
 BYTE   VOL   2*IsaacBattle_mvl/mxv
 BYTE   W01
 BYTE   N05
 BYTE   W05
 BYTE   VOL   1*IsaacBattle_mvl/mxv
 BYTE   W01
 BYTE   N05  En1
 BYTE   N05  Cn2
 BYTE   N05  Dn2
 BYTE   W05
 BYTE   VOL   1*IsaacBattle_mvl/mxv
 BYTE   W01
 BYTE   N05  En1
 BYTE   N05  Bn1
 BYTE   N05  Cn2
 BYTE   W05
 BYTE   VOL   0*IsaacBattle_mvl/mxv
 BYTE   W01
 BYTE   N05  En1
 BYTE   N05  An1
 BYTE   N05  Bn1
 BYTE   W05
 BYTE   VOL   0*IsaacBattle_mvl/mxv
 BYTE   W01
 BYTE   N05  En1
 BYTE   N05  Gn1
 BYTE   N05  An1
 BYTE   W06
// 013   ----------------------------------------
 BYTE   GoTo
  POIN2 Label_IsaacBattle_2_014699D6
// 014   ----------------------------------------
 BYTE   VOL   0*IsaacBattle_mvl/mxv
 BYTE   FINE

//**************** Track 4 (Midi-Chn.3) ****************//

IsaacBattle_004:
// 000   ----------------------------------------
 BYTE   KEYSH   IsaacBattle_key+0
Label_IsaacBattle_3_0146A09A:
 BYTE   VOICE   46
 BYTE   VOL   60*IsaacBattle_mvl/mxv
 BYTE   PAN   c_v+0
 BYTE   W48
 BYTE   W48
// 001   ----------------------------------------
Label_IsaacBattle_3_0146A0A2:
 BYTE   VOL   45*IsaacBattle_mvl/mxv
 BYTE   N96  An3  v112
 BYTE   N96  En4
 BYTE   W48
 BYTE   PEND 
 BYTE   W48
// 002   ----------------------------------------
 BYTE   Gn3
 BYTE   N96  Dn4
 BYTE   W48
 BYTE   W48
// 003   ----------------------------------------
 BYTE   N48  Fs3
 BYTE   N48  Bn3
 BYTE   W48
 BYTE   Gn3
 BYTE   N48  Bn3
 BYTE   W48
// 004   ----------------------------------------
 BYTE   Fs3
 BYTE   N48  An3
 BYTE   W48
Label_IsaacBattle_3_0146A0BE:
 BYTE   N24  Gn3  v112
 BYTE   N24  Dn4
 BYTE   W24
 BYTE   Gs3
 BYTE   N24  En4
 BYTE   W24
 BYTE   PEND 
// 005   ----------------------------------------
 BYTE   N90  An3
 BYTE   N90  En4
 BYTE   W48
 BYTE   W48
// 006   ----------------------------------------
 BYTE   N42  Gn3
 BYTE   N42  Dn4
 BYTE   W48
 BYTE   Fn3
 BYTE   N42  Cn4
 BYTE   W48
// 007   ----------------------------------------
 BYTE   An3
 BYTE   N42  En4
 BYTE   W48
 BYTE   Gs3
 BYTE   N42  En4
 BYTE   W48
// 008   ----------------------------------------
Label_IsaacBattle_3_0146A0E0:
 BYTE   N17  An3  v112
 BYTE   N17  En4
 BYTE   W18
 BYTE   Gn3
 BYTE   N17  Dn4
 BYTE   W18
 BYTE   N54  Fn3
 BYTE   N54  Cn4
 BYTE   W12
 BYTE   PEND 
 BYTE   W48
 BYTE   PATT
  POIN2 Label_IsaacBattle_3_0146A0A2
// 009   ----------------------------------------
 BYTE   W48
 BYTE   N96  Gn3  v112
 BYTE   N96  Dn4
 BYTE   W48
// 010   ----------------------------------------
 BYTE   W48
 BYTE   N48  Fs3
 BYTE   N48  Bn3
 BYTE   W48
// 011   ----------------------------------------
 BYTE   Gn3
 BYTE   N48  Bn3
 BYTE   W48
 BYTE   Fs3
 BYTE   N48  An3
 BYTE   W48
 BYTE   PATT
  POIN2 Label_IsaacBattle_3_0146A0BE
// 012   ----------------------------------------
 BYTE   N90  An3  v112
 BYTE   N90  En4
 BYTE   W48
 BYTE   W48
// 013   ----------------------------------------
 BYTE   N42  Gn3
 BYTE   N42  Dn4
 BYTE   W48
 BYTE   Fn3
 BYTE   N42  Cn4
 BYTE   W48
// 014   ----------------------------------------
 BYTE   An3
 BYTE   N42  En4
 BYTE   W48
 BYTE   Gs3
 BYTE   N42  En4
 BYTE   W48
// 015   ----------------------------------------
 BYTE   N90  An3
 BYTE   N90  Fn4
 BYTE   W48
 BYTE   W48
// 016   ----------------------------------------
 BYTE   Gn3
 BYTE   N90  En4
 BYTE   W48
 BYTE   W48
// 017   ----------------------------------------
 BYTE   An3
 BYTE   N90  Fn4
 BYTE   W48
 BYTE   W48
// 018   ----------------------------------------
 BYTE   N42  Bn3
 BYTE   N42  Gn4
 BYTE   W48
 BYTE   Bn3
 BYTE   N42  Gs4
 BYTE   W48
// 019   ----------------------------------------
 BYTE   N48  En3
 BYTE   N48  An3
 BYTE   W48
Label_IsaacBattle_3_0146A146:
 BYTE   N48  Dn3  v112
 BYTE   N48  Gn3
 BYTE   N48  Dn4
 BYTE   W48
 BYTE   PEND 
// 020   ----------------------------------------
Label_IsaacBattle_3_0146A14F:
 BYTE   N96  Dn3  v112
 BYTE   N96  Fs3
 BYTE   N96  Dn4
 BYTE   W48
 BYTE   PEND 
 BYTE   W48
// 021   ----------------------------------------
 BYTE   N48  En3
 BYTE   N48  An3
 BYTE   W48
 BYTE   PATT
  POIN2 Label_IsaacBattle_3_0146A146
// 022   ----------------------------------------
Label_IsaacBattle_3_0146A163:
 BYTE   N48  An3  v112
 BYTE   N48  Cn4
 BYTE   N48  En4
 BYTE   W48
 BYTE   PEND 
Label_IsaacBattle_3_0146A16C:
 BYTE   N48  Gn3  v112
 BYTE   N48  Bn3
 BYTE   N48  Dn4
 BYTE   W48
 BYTE   PEND 
// 023   ----------------------------------------
Label_IsaacBattle_3_0146A175:
 BYTE   N48  An3  v112
 BYTE   N48  Cn4
 BYTE   N48  Fn4
 BYTE   W48
 BYTE   PEND 
Label_IsaacBattle_3_0146A17E:
 BYTE   N48  Bn3  v112
 BYTE   N48  Dn4
 BYTE   N48  Gn4
 BYTE   W48
 BYTE   PEND 
 BYTE   PATT
  POIN2 Label_IsaacBattle_3_0146A163
 BYTE   PATT
  POIN2 Label_IsaacBattle_3_0146A16C
// 024   ----------------------------------------
Label_IsaacBattle_3_0146A191:
 BYTE   N48  Fn3  v112
 BYTE   N48  An3
 BYTE   N48  Cn4
 BYTE   W48
 BYTE   PEND 
 BYTE   PATT
  POIN2 Label_IsaacBattle_3_0146A16C
// 025   ----------------------------------------
Label_IsaacBattle_3_0146A19F:
 BYTE   N90  An3  v112
 BYTE   N48  Dn4
 BYTE   N90  En4
 BYTE   W48
 BYTE   PEND 
 BYTE   N42  Cs4
 BYTE   W48
// 026   ----------------------------------------
 BYTE   N96  En3
 BYTE   N96  An3
 BYTE   N96  Cs4
 BYTE   W48
 BYTE   W48
// 027   ----------------------------------------
 BYTE   En3
 BYTE   N96  Gs3
 BYTE   N96  Bn3
 BYTE   W48
 BYTE   W48
// 028   ----------------------------------------
Label_IsaacBattle_3_0146A1BA:
 BYTE   N96  Dn3  v112
 BYTE   N96  Fs3
 BYTE   N96  An3
 BYTE   W48
 BYTE   PEND 
 BYTE   W48
// 029   ----------------------------------------
 BYTE   En3
 BYTE   N96  Gs3
 BYTE   N96  Bn3
 BYTE   W48
 BYTE   W48
// 030   ----------------------------------------
 BYTE   En3
 BYTE   N96  An3
 BYTE   W48
 BYTE   W48
// 031   ----------------------------------------
 BYTE   En3
 BYTE   N96  Gs3
 BYTE   W48
 BYTE   W48
// 032   ----------------------------------------
 BYTE   Dn3
 BYTE   N96  Fs3
 BYTE   W48
 BYTE   W48
// 033   ----------------------------------------
 BYTE   En3
 BYTE   N96  Gs3
 BYTE   W48
 BYTE   W48
 BYTE   PATT
  POIN2 Label_IsaacBattle_3_0146A0A2
// 034   ----------------------------------------
 BYTE   W48
 BYTE   N96  Gn3  v112
 BYTE   N96  Dn4
 BYTE   W48
// 035   ----------------------------------------
 BYTE   W48
 BYTE   N48  Fs3
 BYTE   N48  Bn3
 BYTE   W48
// 036   ----------------------------------------
 BYTE   Gn3
 BYTE   N48  Bn3
 BYTE   W48
 BYTE   Fs3
 BYTE   N48  An3
 BYTE   W48
 BYTE   PATT
  POIN2 Label_IsaacBattle_3_0146A0BE
// 037   ----------------------------------------
 BYTE   N90  An3  v112
 BYTE   N90  En4
 BYTE   W48
 BYTE   W48
// 038   ----------------------------------------
 BYTE   N42  Gn3
 BYTE   N42  Dn4
 BYTE   W48
 BYTE   Fn3
 BYTE   N42  Cn4
 BYTE   W48
// 039   ----------------------------------------
 BYTE   An3
 BYTE   N42  En4
 BYTE   W48
 BYTE   Gs3
 BYTE   N42  En4
 BYTE   W48
 BYTE   PATT
  POIN2 Label_IsaacBattle_3_0146A0E0
// 040   ----------------------------------------
 BYTE   W48
 BYTE   PATT
  POIN2 Label_IsaacBattle_3_0146A0A2
// 041   ----------------------------------------
 BYTE   W48
 BYTE   N96  Gn3  v112
 BYTE   N96  Dn4
 BYTE   W48
// 042   ----------------------------------------
 BYTE   W48
 BYTE   N48  Fs3
 BYTE   N48  Bn3
 BYTE   W48
// 043   ----------------------------------------
 BYTE   Gn3
 BYTE   N48  Bn3
 BYTE   W48
 BYTE   Fs3
 BYTE   N48  An3
 BYTE   W48
 BYTE   PATT
  POIN2 Label_IsaacBattle_3_0146A0BE
// 044   ----------------------------------------
 BYTE   N90  An3  v112
 BYTE   N90  En4
 BYTE   W48
 BYTE   W48
// 045   ----------------------------------------
 BYTE   N42  Gn3
 BYTE   N42  Dn4
 BYTE   W48
 BYTE   Fn3
 BYTE   N42  Cn4
 BYTE   W48
// 046   ----------------------------------------
 BYTE   An3
 BYTE   N42  En4
 BYTE   W48
 BYTE   Gs3
 BYTE   N42  En4
 BYTE   W48
// 047   ----------------------------------------
 BYTE   N90  An3
 BYTE   N90  Fn4
 BYTE   W48
 BYTE   W48
// 048   ----------------------------------------
 BYTE   Gn3
 BYTE   N90  En4
 BYTE   W48
 BYTE   W48
// 049   ----------------------------------------
 BYTE   An3
 BYTE   N90  Fn4
 BYTE   W48
 BYTE   W48
// 050   ----------------------------------------
 BYTE   N42  Bn3
 BYTE   N42  Gn4
 BYTE   W48
 BYTE   Bn3
 BYTE   N42  Gs4
 BYTE   W48
// 051   ----------------------------------------
 BYTE   N48  En3
 BYTE   N48  An3
 BYTE   W48
 BYTE   PATT
  POIN2 Label_IsaacBattle_3_0146A146
 BYTE   PATT
  POIN2 Label_IsaacBattle_3_0146A14F
// 052   ----------------------------------------
 BYTE   W48
 BYTE   N48  En3  v112
 BYTE   N48  An3
 BYTE   W48
 BYTE   PATT
  POIN2 Label_IsaacBattle_3_0146A146
 BYTE   PATT
  POIN2 Label_IsaacBattle_3_0146A163
 BYTE   PATT
  POIN2 Label_IsaacBattle_3_0146A16C
 BYTE   PATT
  POIN2 Label_IsaacBattle_3_0146A175
 BYTE   PATT
  POIN2 Label_IsaacBattle_3_0146A17E
 BYTE   PATT
  POIN2 Label_IsaacBattle_3_0146A163
 BYTE   PATT
  POIN2 Label_IsaacBattle_3_0146A16C
 BYTE   PATT
  POIN2 Label_IsaacBattle_3_0146A191
 BYTE   PATT
  POIN2 Label_IsaacBattle_3_0146A16C
 BYTE   PATT
  POIN2 Label_IsaacBattle_3_0146A19F
// 053   ----------------------------------------
 BYTE   N42  Cs4  v112
 BYTE   W48
 BYTE   N96  En3
 BYTE   N96  An3
 BYTE   N96  Cs4
 BYTE   W48
// 054   ----------------------------------------
 BYTE   W48
 BYTE   En3
 BYTE   N96  Gs3
 BYTE   N96  Bn3
 BYTE   W48
// 055   ----------------------------------------
 BYTE   W48
 BYTE   PATT
  POIN2 Label_IsaacBattle_3_0146A1BA
// 056   ----------------------------------------
 BYTE   W48
 BYTE   N96  En3  v112
 BYTE   N96  Gs3
 BYTE   N96  Bn3
 BYTE   W48
// 057   ----------------------------------------
 BYTE   W48
 BYTE   En3
 BYTE   N96  An3
 BYTE   W48
// 058   ----------------------------------------
 BYTE   W48
 BYTE   En3
 BYTE   N96  Gs3
 BYTE   W48
// 059   ----------------------------------------
 BYTE   W48
 BYTE   Dn3
 BYTE   N96  Fs3
 BYTE   W48
// 060   ----------------------------------------
 BYTE   W48
 BYTE   En3
 BYTE   N96  Gs3
 BYTE   W48
// 061   ----------------------------------------
 BYTE   W48
 BYTE   PATT
  POIN2 Label_IsaacBattle_3_0146A0A2
// 062   ----------------------------------------
 BYTE   W48
 BYTE   N96  Gn3  v112
 BYTE   N96  Dn4
 BYTE   W48
// 063   ----------------------------------------
 BYTE   W48
 BYTE   N48  Fs3
 BYTE   N48  Bn3
 BYTE   W48
// 064   ----------------------------------------
 BYTE   Gn3
 BYTE   N48  Bn3
 BYTE   W48
 BYTE   Fs3
 BYTE   N48  An3
 BYTE   W48
 BYTE   PATT
  POIN2 Label_IsaacBattle_3_0146A0BE
// 065   ----------------------------------------
 BYTE   N90  An3  v112
 BYTE   N90  En4
 BYTE   W48
 BYTE   W48
// 066   ----------------------------------------
 BYTE   N42  Gn3
 BYTE   N42  Dn4
 BYTE   W48
 BYTE   Fn3
 BYTE   N42  Cn4
 BYTE   W48
// 067   ----------------------------------------
 BYTE   An3
 BYTE   N42  En4
 BYTE   W48
 BYTE   Gs3
 BYTE   N42  En4
 BYTE   W48
 BYTE   PATT
  POIN2 Label_IsaacBattle_3_0146A0E0
// 068   ----------------------------------------
 BYTE   W48
 BYTE   PATT
  POIN2 Label_IsaacBattle_3_0146A0A2
// 069   ----------------------------------------
 BYTE   W48
 BYTE   N96  Gn3  v112
 BYTE   N96  Dn4
 BYTE   W48
// 070   ----------------------------------------
 BYTE   W48
 BYTE   N48  Fs3
 BYTE   N48  Bn3
 BYTE   W48
// 071   ----------------------------------------
 BYTE   Gn3
 BYTE   N48  Bn3
 BYTE   W48
 BYTE   Fs3
 BYTE   N48  An3
 BYTE   W48
 BYTE   PATT
  POIN2 Label_IsaacBattle_3_0146A0BE
// 072   ----------------------------------------
 BYTE   N90  An3  v112
 BYTE   N90  En4
 BYTE   W48
 BYTE   W48
// 073   ----------------------------------------
 BYTE   N42  Gn3
 BYTE   N42  Dn4
 BYTE   W48
 BYTE   Fn3
 BYTE   N42  Cn4
 BYTE   W48
// 074   ----------------------------------------
 BYTE   An3
 BYTE   N42  En4
 BYTE   W48
 BYTE   Gs3
 BYTE   N42  En4
 BYTE   W48
// 075   ----------------------------------------
 BYTE   N90  An3
 BYTE   N90  Fn4
 BYTE   W48
 BYTE   W48
// 076   ----------------------------------------
 BYTE   Gn3
 BYTE   N90  En4
 BYTE   W48
 BYTE   W48
// 077   ----------------------------------------
 BYTE   An3
 BYTE   N90  Fn4
 BYTE   W48
 BYTE   W48
// 078   ----------------------------------------
 BYTE   N42  Bn3
 BYTE   N42  Gn4
 BYTE   W48
 BYTE   Bn3
 BYTE   N42  Gs4
 BYTE   W48
// 079   ----------------------------------------
 BYTE   N48  En3
 BYTE   N48  An3
 BYTE   W48
 BYTE   PATT
  POIN2 Label_IsaacBattle_3_0146A146
 BYTE   PATT
  POIN2 Label_IsaacBattle_3_0146A14F
// 080   ----------------------------------------
 BYTE   W48
 BYTE   N48  En3  v112
 BYTE   N48  An3
 BYTE   W48
 BYTE   PATT
  POIN2 Label_IsaacBattle_3_0146A146
 BYTE   PATT
  POIN2 Label_IsaacBattle_3_0146A163
 BYTE   PATT
  POIN2 Label_IsaacBattle_3_0146A16C
 BYTE   PATT
  POIN2 Label_IsaacBattle_3_0146A175
 BYTE   PATT
  POIN2 Label_IsaacBattle_3_0146A17E
 BYTE   PATT
  POIN2 Label_IsaacBattle_3_0146A163
 BYTE   PATT
  POIN2 Label_IsaacBattle_3_0146A16C
 BYTE   PATT
  POIN2 Label_IsaacBattle_3_0146A191
 BYTE   PATT
  POIN2 Label_IsaacBattle_3_0146A16C
 BYTE   PATT
  POIN2 Label_IsaacBattle_3_0146A19F
// 081   ----------------------------------------
 BYTE   N42  Cs4  v112
 BYTE   W48
 BYTE   VOL   45*IsaacBattle_mvl/mxv
 BYTE   N96  En3
 BYTE   N96  An3
 BYTE   N96  Cs4
 BYTE   W08
 BYTE   VOL   44*IsaacBattle_mvl/mxv
 BYTE   W08
 BYTE   Gs1
 BYTE   W08
 BYTE   Gn1
 BYTE   W08
 BYTE   Gn1
 BYTE   W08
 BYTE   Fs1
 BYTE   W08
// 082   ----------------------------------------
 BYTE   Fs1
 BYTE   W08
 BYTE   Fs1
 BYTE   W08
 BYTE   Fn1
 BYTE   W08
 BYTE   Fn1
 BYTE   W08
 BYTE   En1
 BYTE   W08
 BYTE   En1
 BYTE   W08
 BYTE   Ds1
 BYTE   N96  En3
 BYTE   N96  Gs3
 BYTE   N96  Bn3
 BYTE   W08
 BYTE   VOL   39*IsaacBattle_mvl/mxv
 BYTE   W08
 BYTE   Dn1
 BYTE   W08
 BYTE   Dn1
 BYTE   W08
 BYTE   Cs1
 BYTE   W08
 BYTE   Cs1
 BYTE   W08
// 083   ----------------------------------------
 BYTE   Cn1
 BYTE   W08
 BYTE   Cn1
 BYTE   W08
 BYTE   Bn0
 BYTE   W08
 BYTE   Bn0
 BYTE   W08
 BYTE   As0
 BYTE   W08
 BYTE   As0
 BYTE   W08
 BYTE   As0
 BYTE   N96  Dn3
 BYTE   N96  Fs3
 BYTE   N96  An3
 BYTE   W08
 BYTE   VOL   33*IsaacBattle_mvl/mxv
 BYTE   W08
 BYTE   An0
 BYTE   W08
 BYTE   Gs0
 BYTE   W08
 BYTE   Gs0
 BYTE   W08
 BYTE   Gn0
 BYTE   W08
// 084   ----------------------------------------
 BYTE   Gn0
 BYTE   W08
 BYTE   Fs0
 BYTE   W08
 BYTE   Fs0
 BYTE   W08
 BYTE   Fn0
 BYTE   W08
 BYTE   Fn0
 BYTE   W08
 BYTE   En0
 BYTE   W08
 BYTE   En0
 BYTE   N96  En3
 BYTE   N96  Gs3
 BYTE   N96  Bn3
 BYTE   W08
 BYTE   VOL   27*IsaacBattle_mvl/mxv
 BYTE   W08
 BYTE   Ds0
 BYTE   W08
 BYTE   Dn0
 BYTE   W08
 BYTE   Dn0
 BYTE   W08
 BYTE   Cs0
 BYTE   W08
// 085   ----------------------------------------
 BYTE   Cs0
 BYTE   W08
 BYTE   Cs0
 BYTE   W08
 BYTE   Cn0
 BYTE   W08
 BYTE   Cn0
 BYTE   W08
 BYTE   BnM1
 BYTE   W08
 BYTE   BnM1
 BYTE   W08
 BYTE   AsM1
 BYTE   N96  En3
 BYTE   N96  An3
 BYTE   W08
 BYTE   VOL   22*IsaacBattle_mvl/mxv
 BYTE   W08
 BYTE   AnM1
 BYTE   W08
 BYTE   AnM1
 BYTE   W08
 BYTE   GsM1
 BYTE   W08
 BYTE   GsM1
 BYTE   W08
// 086   ----------------------------------------
 BYTE   GnM1
 BYTE   W08
 BYTE   GnM1
 BYTE   W08
 BYTE   FsM1
 BYTE   W08
 BYTE   FsM1
 BYTE   W08
 BYTE   FnM1
 BYTE   W08
 BYTE   FnM1
 BYTE   W08
 BYTE   FnM1
 BYTE   N96  En3
 BYTE   N96  Gs3
 BYTE   W08
 BYTE   VOL   16*IsaacBattle_mvl/mxv
 BYTE   W08
 BYTE   EnM1
 BYTE   W08
 BYTE   DsM1
 BYTE   W08
 BYTE   DsM1
 BYTE   W08
 BYTE   DnM1
 BYTE   W08
// 087   ----------------------------------------
 BYTE   DnM1
 BYTE   W08
 BYTE   CsM1
 BYTE   W08
 BYTE   CsM1
 BYTE   W08
 BYTE   CnM1
 BYTE   W08
 BYTE   CnM1
 BYTE   W08
 BYTE   BnM2
 BYTE   W08
 BYTE   BnM2
 BYTE   N96  Dn3
 BYTE   N96  Fs3
 BYTE   W08
 BYTE   VOL   10*IsaacBattle_mvl/mxv
 BYTE   W08
 BYTE   AsM2
 BYTE   W08
 BYTE   AnM2
 BYTE   W08
 BYTE   AnM2
 BYTE   W08
 BYTE   GsM2
 BYTE   W08
// 088   ----------------------------------------
 BYTE   GsM2
 BYTE   W08
 BYTE   GsM2
 BYTE   W08
 BYTE   GnM2
 BYTE   W08
 BYTE   GnM2
 BYTE   W08
 BYTE   FsM2
 BYTE   W08
 BYTE   FsM2
 BYTE   W08
 BYTE   FnM2
 BYTE   N96  En3
 BYTE   N96  Gs3
 BYTE   W08
 BYTE   VOL   5*IsaacBattle_mvl/mxv
 BYTE   W08
 BYTE   EnM2
 BYTE   W08
 BYTE   EnM2
 BYTE   W08
 BYTE   DsM2
 BYTE   W08
 BYTE   DsM2
 BYTE   W08
// 089   ----------------------------------------
 BYTE   DnM2
 BYTE   W08
 BYTE   DnM2
 BYTE   W08
 BYTE   CsM2
 BYTE   W08
 BYTE   CsM2
 BYTE   W08
 BYTE   CnM2
 BYTE   W08
 BYTE   CnM2
 BYTE   W08
 BYTE   GoTo
  POIN2 Label_IsaacBattle_3_0146A09A
// 090   ----------------------------------------
 BYTE   VOL   0*IsaacBattle_mvl/mxv
 BYTE   FINE

//**************** Track 5 (Midi-Chn.4) ****************//

IsaacBattle_005:
// 000   ----------------------------------------
 BYTE   KEYSH   IsaacBattle_key+0
Label_IsaacBattle_4_0146A4BE:
 BYTE   VOICE   73
 BYTE   VOL   60*IsaacBattle_mvl/mxv
 BYTE   PAN   c_v+0
 BYTE   W48
 BYTE   W48
// 001   ----------------------------------------
 BYTE   W48
 BYTE   W48
// 002   ----------------------------------------
 BYTE   W48
 BYTE   W48
// 003   ----------------------------------------
 BYTE   W48
 BYTE   W48
// 004   ----------------------------------------
 BYTE   W48
 BYTE   W48
// 005   ----------------------------------------
 BYTE   W48
 BYTE   W48
// 006   ----------------------------------------
 BYTE   W48
 BYTE   W48
// 007   ----------------------------------------
 BYTE   W48
 BYTE   W48
// 008   ----------------------------------------
 BYTE   W48
 BYTE   W48
// 009   ----------------------------------------
 BYTE   W48
 BYTE   W48
// 010   ----------------------------------------
 BYTE   W48
 BYTE   W48
// 011   ----------------------------------------
 BYTE   W48
 BYTE   W48
// 012   ----------------------------------------
 BYTE   W48
 BYTE   W48
// 013   ----------------------------------------
 BYTE   W48
 BYTE   W48
// 014   ----------------------------------------
 BYTE   W48
 BYTE   W48
// 015   ----------------------------------------
 BYTE   W48
 BYTE   W48
// 016   ----------------------------------------
Label_IsaacBattle_4_0146A4E4:
 BYTE   VOL   52*IsaacBattle_mvl/mxv
 BYTE   N05  Fn3  v112
 BYTE   W06
 BYTE   An3
 BYTE   W06
 BYTE   Cn4
 BYTE   W06
 BYTE   En4
 BYTE   W06
 BYTE   Fn4
 BYTE   W06
 BYTE   An4
 BYTE   W06
 BYTE   Cn5
 BYTE   W06
 BYTE   En5
 BYTE   W06
 BYTE   PEND 
Label_IsaacBattle_4_0146A4F9:
 BYTE   N05  Cn5  v112
 BYTE   W06
 BYTE   An4
 BYTE   W06
 BYTE   Fn4
 BYTE   W06
 BYTE   En4
 BYTE   W06
 BYTE   Cn4
 BYTE   W06
 BYTE   An3
 BYTE   W06
 BYTE   Fn3
 BYTE   W06
 BYTE   An3
 BYTE   W06
 BYTE   PEND 
// 017   ----------------------------------------
Label_IsaacBattle_4_0146A50C:
 BYTE   N05  Dn3  v112
 BYTE   W06
 BYTE   Gn3
 BYTE   W06
 BYTE   Bn3
 BYTE   W06
 BYTE   Dn4
 BYTE   W06
 BYTE   Gn4
 BYTE   W06
 BYTE   Bn4
 BYTE   W06
 BYTE   Dn5
 BYTE   W06
 BYTE   Bn4
 BYTE   W06
 BYTE   PEND 
Label_IsaacBattle_4_0146A51F:
 BYTE   N05  Gn5  v112
 BYTE   W06
 BYTE   Dn5
 BYTE   W06
 BYTE   Bn4
 BYTE   W06
 BYTE   Gn4
 BYTE   W06
 BYTE   Dn4
 BYTE   W06
 BYTE   Bn3
 BYTE   W06
 BYTE   Gn3
 BYTE   W06
 BYTE   Bn3
 BYTE   W06
 BYTE   PEND 
// 018   ----------------------------------------
Label_IsaacBattle_4_0146A532:
 BYTE   N05  Fn3  v112
 BYTE   W06
 BYTE   An3
 BYTE   W06
 BYTE   Cn4
 BYTE   W06
 BYTE   En4
 BYTE   W06
 BYTE   Fn4
 BYTE   W06
 BYTE   An4
 BYTE   W06
 BYTE   Cn5
 BYTE   W06
 BYTE   En5
 BYTE   W06
 BYTE   PEND 
Label_IsaacBattle_4_0146A545:
 BYTE   N05  Fn5  v112
 BYTE   W06
 BYTE   En5
 BYTE   W06
 BYTE   Cn5
 BYTE   W06
 BYTE   An4
 BYTE   W06
 BYTE   Fn4
 BYTE   W06
 BYTE   En4
 BYTE   W06
 BYTE   Cn4
 BYTE   W06
 BYTE   An3
 BYTE   W06
 BYTE   PEND 
// 019   ----------------------------------------
Label_IsaacBattle_4_0146A558:
 BYTE   N05  Gn3  v112
 BYTE   W06
 BYTE   Bn3
 BYTE   W06
 BYTE   En4
 BYTE   W06
 BYTE   Gn4
 BYTE   W06
 BYTE   Bn4
 BYTE   W06
 BYTE   En5
 BYTE   W06
 BYTE   Gn5
 BYTE   W06
 BYTE   En5
 BYTE   W06
 BYTE   PEND 
Label_IsaacBattle_4_0146A56B:
 BYTE   N05  Gs5  v112
 BYTE   W06
 BYTE   En5
 BYTE   W06
 BYTE   Bn4
 BYTE   W06
 BYTE   Gs4
 BYTE   W06
 BYTE   En4
 BYTE   W06
 BYTE   Bn3
 BYTE   W06
 BYTE   Gs3
 BYTE   W06
 BYTE   En3
 BYTE   W06
 BYTE   PEND 
// 020   ----------------------------------------
 BYTE   W48
 BYTE   W48
// 021   ----------------------------------------
 BYTE   W48
 BYTE   W48
// 022   ----------------------------------------
 BYTE   W48
 BYTE   W48
// 023   ----------------------------------------
 BYTE   W48
 BYTE   W48
// 024   ----------------------------------------
 BYTE   W48
 BYTE   W48
// 025   ----------------------------------------
 BYTE   W48
 BYTE   W48
// 026   ----------------------------------------
 BYTE   W48
 BYTE   W48
// 027   ----------------------------------------
 BYTE   W48
 BYTE   W48
// 028   ----------------------------------------
 BYTE   W48
 BYTE   W48
// 029   ----------------------------------------
 BYTE   W48
 BYTE   W48
// 030   ----------------------------------------
 BYTE   W48
 BYTE   W48
// 031   ----------------------------------------
 BYTE   W48
 BYTE   W48
// 032   ----------------------------------------
 BYTE   W48
 BYTE   W48
// 033   ----------------------------------------
 BYTE   W48
 BYTE   W48
// 034   ----------------------------------------
 BYTE   W48
 BYTE   W48
// 035   ----------------------------------------
 BYTE   W48
 BYTE   W48
// 036   ----------------------------------------
 BYTE   W48
 BYTE   W48
// 037   ----------------------------------------
 BYTE   W48
 BYTE   W48
// 038   ----------------------------------------
 BYTE   W48
 BYTE   W48
// 039   ----------------------------------------
 BYTE   W48
 BYTE   W48
// 040   ----------------------------------------
 BYTE   W48
 BYTE   W48
// 041   ----------------------------------------
 BYTE   W48
 BYTE   W48
// 042   ----------------------------------------
 BYTE   W48
 BYTE   W48
// 043   ----------------------------------------
 BYTE   W48
 BYTE   W48
// 044   ----------------------------------------
 BYTE   W48
 BYTE   W48
// 045   ----------------------------------------
 BYTE   W48
 BYTE   W48
// 046   ----------------------------------------
 BYTE   W48
 BYTE   W48
// 047   ----------------------------------------
 BYTE   W48
 BYTE   W48
// 048   ----------------------------------------
 BYTE   W48
 BYTE   W48
// 049   ----------------------------------------
 BYTE   W48
 BYTE   W48
// 050   ----------------------------------------
 BYTE   W48
 BYTE   W48
 BYTE   PATT
  POIN2 Label_IsaacBattle_4_0146A4E4
 BYTE   PATT
  POIN2 Label_IsaacBattle_4_0146A4F9
 BYTE   PATT
  POIN2 Label_IsaacBattle_4_0146A50C
 BYTE   PATT
  POIN2 Label_IsaacBattle_4_0146A51F
 BYTE   PATT
  POIN2 Label_IsaacBattle_4_0146A532
 BYTE   PATT
  POIN2 Label_IsaacBattle_4_0146A545
 BYTE   PATT
  POIN2 Label_IsaacBattle_4_0146A558
 BYTE   PATT
  POIN2 Label_IsaacBattle_4_0146A56B
// 051   ----------------------------------------
 BYTE   W48
 BYTE   W48
// 052   ----------------------------------------
 BYTE   W48
 BYTE   W48
// 053   ----------------------------------------
 BYTE   W48
 BYTE   W48
// 054   ----------------------------------------
 BYTE   W48
 BYTE   W48
// 055   ----------------------------------------
 BYTE   W48
 BYTE   W48
// 056   ----------------------------------------
 BYTE   W48
 BYTE   W48
// 057   ----------------------------------------
 BYTE   W48
 BYTE   W48
// 058   ----------------------------------------
 BYTE   W48
 BYTE   W48
// 059   ----------------------------------------
 BYTE   W48
 BYTE   W48
// 060   ----------------------------------------
 BYTE   W48
 BYTE   W48
// 061   ----------------------------------------
 BYTE   W48
 BYTE   W48
// 062   ----------------------------------------
 BYTE   W48
 BYTE   W48
// 063   ----------------------------------------
 BYTE   W48
 BYTE   W48
// 064   ----------------------------------------
 BYTE   W48
 BYTE   W48
// 065   ----------------------------------------
 BYTE   W48
 BYTE   W48
// 066   ----------------------------------------
 BYTE   W48
 BYTE   W48
// 067   ----------------------------------------
 BYTE   W48
 BYTE   W48
// 068   ----------------------------------------
 BYTE   W48
 BYTE   W48
// 069   ----------------------------------------
 BYTE   W48
 BYTE   W48
// 070   ----------------------------------------
 BYTE   W48
 BYTE   W48
// 071   ----------------------------------------
 BYTE   W48
 BYTE   W48
// 072   ----------------------------------------
 BYTE   W48
 BYTE   W48
// 073   ----------------------------------------
 BYTE   W48
 BYTE   W48
// 074   ----------------------------------------
 BYTE   W48
 BYTE   W48
// 075   ----------------------------------------
 BYTE   W48
 BYTE   W48
// 076   ----------------------------------------
 BYTE   W48
 BYTE   W48
// 077   ----------------------------------------
 BYTE   W48
 BYTE   W48
// 078   ----------------------------------------
 BYTE   W48
 BYTE   W48
// 079   ----------------------------------------
 BYTE   W48
 BYTE   W48
// 080   ----------------------------------------
 BYTE   W48
 BYTE   W48
// 081   ----------------------------------------
 BYTE   W48
 BYTE   W48
 BYTE   PATT
  POIN2 Label_IsaacBattle_4_0146A4E4
 BYTE   PATT
  POIN2 Label_IsaacBattle_4_0146A4F9
 BYTE   PATT
  POIN2 Label_IsaacBattle_4_0146A50C
 BYTE   PATT
  POIN2 Label_IsaacBattle_4_0146A51F
 BYTE   PATT
  POIN2 Label_IsaacBattle_4_0146A532
 BYTE   PATT
  POIN2 Label_IsaacBattle_4_0146A545
 BYTE   PATT
  POIN2 Label_IsaacBattle_4_0146A558
 BYTE   PATT
  POIN2 Label_IsaacBattle_4_0146A56B
// 082   ----------------------------------------
 BYTE   W48
 BYTE   W48
// 083   ----------------------------------------
 BYTE   W48
 BYTE   W48
// 084   ----------------------------------------
 BYTE   W48
 BYTE   W48
// 085   ----------------------------------------
 BYTE   W48
 BYTE   W48
// 086   ----------------------------------------
 BYTE   W48
 BYTE   W48
// 087   ----------------------------------------
 BYTE   W48
 BYTE   W48
// 088   ----------------------------------------
 BYTE   W48
 BYTE   W48
// 089   ----------------------------------------
 BYTE   W48
 BYTE   W48
// 090   ----------------------------------------
 BYTE   W48
 BYTE   W48
// 091   ----------------------------------------
 BYTE   W48
 BYTE   W48
// 092   ----------------------------------------
 BYTE   W48
 BYTE   W48
// 093   ----------------------------------------
 BYTE   W48
 BYTE   W48
// 094   ----------------------------------------
 BYTE   W48
 BYTE   W48
// 095   ----------------------------------------
 BYTE   W48
 BYTE   W48
// 096   ----------------------------------------
 BYTE   W48
 BYTE   W48
// 097   ----------------------------------------
 BYTE   W48
 BYTE   W48
// 098   ----------------------------------------
 BYTE   GoTo
  POIN2 Label_IsaacBattle_4_0146A4BE
 BYTE   FINE

//**************** Track 6 (Midi-Chn.5) ****************//

IsaacBattle_006:
// 000   ----------------------------------------
 BYTE   KEYSH   IsaacBattle_key+0
Label_IsaacBattle_5_0146A672:
 BYTE   VOICE   73
 BYTE   VOL   60*IsaacBattle_mvl/mxv
 BYTE   PAN   c_v+0
 BYTE   W48
 BYTE   W48
// 001   ----------------------------------------
 BYTE   W48
 BYTE   W48
// 002   ----------------------------------------
 BYTE   W48
 BYTE   W48
// 003   ----------------------------------------
 BYTE   W48
 BYTE   W48
// 004   ----------------------------------------
 BYTE   W48
 BYTE   W48
// 005   ----------------------------------------
 BYTE   W48
 BYTE   W48
// 006   ----------------------------------------
 BYTE   W48
 BYTE   W48
// 007   ----------------------------------------
 BYTE   W48
 BYTE   W48
// 008   ----------------------------------------
 BYTE   W48
 BYTE   W48
// 009   ----------------------------------------
 BYTE   W48
 BYTE   W48
// 010   ----------------------------------------
 BYTE   W48
 BYTE   W48
// 011   ----------------------------------------
 BYTE   W48
 BYTE   W48
// 012   ----------------------------------------
 BYTE   W48
 BYTE   W48
// 013   ----------------------------------------
 BYTE   W48
 BYTE   W48
// 014   ----------------------------------------
 BYTE   W48
 BYTE   W48
// 015   ----------------------------------------
 BYTE   W48
 BYTE   W48
// 016   ----------------------------------------
 BYTE   N42  En4  v112
 BYTE   W48
Label_IsaacBattle_5_0146A69C:
 BYTE   N20  Dn4  v112
 BYTE   W24
 BYTE   Gn4
 BYTE   W24
 BYTE   PEND 
// 017   ----------------------------------------
 BYTE   N17  En4
 BYTE   W18
 BYTE   N28  Bn3
 BYTE   W30
 BYTE   N17
 BYTE   W18
 BYTE   Cn4
 BYTE   W18
 BYTE   N11  Dn4
 BYTE   W12
// 018   ----------------------------------------
 BYTE   N42  En4
 BYTE   W48
 BYTE   PATT
  POIN2 Label_IsaacBattle_5_0146A69C
// 019   ----------------------------------------
 BYTE   N17  En4  v112
 BYTE   W18
 BYTE   Fs4
 BYTE   W18
 BYTE   N05  Gn4
 BYTE   W12
 BYTE   N17  Gs4
 BYTE   W18
 BYTE   An4
 BYTE   W18
 BYTE   N11  Bn4
 BYTE   W12
// 020   ----------------------------------------
 BYTE   W48
 BYTE   W48
// 021   ----------------------------------------
 BYTE   W48
 BYTE   W48
// 022   ----------------------------------------
 BYTE   W48
 BYTE   W48
// 023   ----------------------------------------
 BYTE   W48
 BYTE   W48
// 024   ----------------------------------------
 BYTE   W48
 BYTE   W48
// 025   ----------------------------------------
 BYTE   W48
 BYTE   W48
// 026   ----------------------------------------
 BYTE   W48
 BYTE   W48
// 027   ----------------------------------------
 BYTE   W48
 BYTE   W48
// 028   ----------------------------------------
 BYTE   W48
 BYTE   W48
// 029   ----------------------------------------
 BYTE   W48
 BYTE   W48
// 030   ----------------------------------------
 BYTE   W48
 BYTE   W48
// 031   ----------------------------------------
 BYTE   W48
 BYTE   W48
// 032   ----------------------------------------
 BYTE   W48
 BYTE   W48
// 033   ----------------------------------------
 BYTE   W48
 BYTE   W48
// 034   ----------------------------------------
 BYTE   W48
 BYTE   W48
// 035   ----------------------------------------
 BYTE   W48
 BYTE   W48
// 036   ----------------------------------------
 BYTE   W48
 BYTE   W48
// 037   ----------------------------------------
 BYTE   W48
 BYTE   W48
// 038   ----------------------------------------
 BYTE   W48
 BYTE   W48
// 039   ----------------------------------------
 BYTE   W48
 BYTE   W48
// 040   ----------------------------------------
 BYTE   W48
 BYTE   W48
// 041   ----------------------------------------
 BYTE   W48
 BYTE   W48
// 042   ----------------------------------------
 BYTE   W48
 BYTE   W48
// 043   ----------------------------------------
 BYTE   W48
 BYTE   W48
// 044   ----------------------------------------
 BYTE   W48
 BYTE   W48
// 045   ----------------------------------------
 BYTE   W48
 BYTE   W48
// 046   ----------------------------------------
 BYTE   W48
 BYTE   W48
// 047   ----------------------------------------
 BYTE   W48
 BYTE   W48
// 048   ----------------------------------------
 BYTE   W48
 BYTE   W48
// 049   ----------------------------------------
 BYTE   W48
 BYTE   W48
// 050   ----------------------------------------
 BYTE   W48
 BYTE   W48
// 051   ----------------------------------------
 BYTE   W48
 BYTE   W48
// 052   ----------------------------------------
 BYTE   W48
 BYTE   W48
// 053   ----------------------------------------
 BYTE   W48
 BYTE   W48
// 054   ----------------------------------------
 BYTE   W48
 BYTE   W48
// 055   ----------------------------------------
 BYTE   W48
 BYTE   W48
// 056   ----------------------------------------
 BYTE   W48
 BYTE   W48
// 057   ----------------------------------------
 BYTE   W48
 BYTE   W48
// 058   ----------------------------------------
 BYTE   W48
 BYTE   W48
// 059   ----------------------------------------
 BYTE   W48
 BYTE   W48
// 060   ----------------------------------------
 BYTE   W48
 BYTE   W48
// 061   ----------------------------------------
 BYTE   W48
 BYTE   W48
// 062   ----------------------------------------
 BYTE   W48
 BYTE   W48
// 063   ----------------------------------------
 BYTE   W48
 BYTE   W48
// 064   ----------------------------------------
 BYTE   W48
 BYTE   W48
// 065   ----------------------------------------
 BYTE   W48
 BYTE   W48
// 066   ----------------------------------------
 BYTE   W48
 BYTE   W48
// 067   ----------------------------------------
 BYTE   W48
 BYTE   W48
// 068   ----------------------------------------
 BYTE   W48
 BYTE   W48
// 069   ----------------------------------------
 BYTE   W48
 BYTE   W48
// 070   ----------------------------------------
 BYTE   W48
 BYTE   W48
// 071   ----------------------------------------
 BYTE   W48
 BYTE   W48
// 072   ----------------------------------------
 BYTE   W48
 BYTE   W48
// 073   ----------------------------------------
 BYTE   W48
 BYTE   W48
// 074   ----------------------------------------
 BYTE   W48
 BYTE   W48
// 075   ----------------------------------------
 BYTE   W48
 BYTE   W48
// 076   ----------------------------------------
 BYTE   W48
 BYTE   W48
// 077   ----------------------------------------
 BYTE   W48
 BYTE   W48
// 078   ----------------------------------------
 BYTE   W48
 BYTE   W48
// 079   ----------------------------------------
 BYTE   W48
 BYTE   W48
// 080   ----------------------------------------
 BYTE   W48
 BYTE   W48
// 081   ----------------------------------------
 BYTE   W48
 BYTE   W48
// 082   ----------------------------------------
 BYTE   W48
 BYTE   W48
// 083   ----------------------------------------
 BYTE   W48
 BYTE   W48
// 084   ----------------------------------------
 BYTE   W48
 BYTE   W48
// 085   ----------------------------------------
 BYTE   W48
 BYTE   W48
// 086   ----------------------------------------
 BYTE   W48
 BYTE   W48
// 087   ----------------------------------------
 BYTE   W48
 BYTE   W48
// 088   ----------------------------------------
 BYTE   W48
 BYTE   W48
// 089   ----------------------------------------
 BYTE   W48
 BYTE   W48
// 090   ----------------------------------------
 BYTE   W48
 BYTE   W48
// 091   ----------------------------------------
 BYTE   W48
 BYTE   W48
// 092   ----------------------------------------
 BYTE   W48
 BYTE   W48
// 093   ----------------------------------------
 BYTE   W48
 BYTE   W48
// 094   ----------------------------------------
 BYTE   W48
 BYTE   W48
// 095   ----------------------------------------
 BYTE   W48
 BYTE   W48
// 096   ----------------------------------------
 BYTE   W48
 BYTE   W48
// 097   ----------------------------------------
 BYTE   W48
 BYTE   W48
// 098   ----------------------------------------
 BYTE   W48
 BYTE   W48
// 099   ----------------------------------------
 BYTE   W48
 BYTE   W48
// 100   ----------------------------------------
 BYTE   W48
 BYTE   W48
// 101   ----------------------------------------
 BYTE   W48
 BYTE   W48
// 102   ----------------------------------------
 BYTE   W48
 BYTE   W48
// 103   ----------------------------------------
 BYTE   W48
 BYTE   W48
// 104   ----------------------------------------
 BYTE   W48
 BYTE   W48
// 105   ----------------------------------------
 BYTE   W48
 BYTE   W48
// 106   ----------------------------------------
 BYTE   GoTo
  POIN2 Label_IsaacBattle_5_0146A672
 BYTE   FINE

//**************** Track 7 (Midi-Chn.6) ****************//

IsaacBattle_007:
// 000   ----------------------------------------
 BYTE   KEYSH   IsaacBattle_key+0
Label_IsaacBattle_6_0146A77E:
 BYTE   VOICE   61
 BYTE   VOL   60*IsaacBattle_mvl/mxv
 BYTE   PAN   c_v+0
 BYTE   W48
 BYTE   W48
// 001   ----------------------------------------
 BYTE   W48
 BYTE   W48
// 002   ----------------------------------------
 BYTE   W48
 BYTE   W48
// 003   ----------------------------------------
 BYTE   W48
 BYTE   W48
// 004   ----------------------------------------
 BYTE   W48
 BYTE   W48
// 005   ----------------------------------------
 BYTE   W48
 BYTE   W48
// 006   ----------------------------------------
 BYTE   W48
 BYTE   W48
// 007   ----------------------------------------
 BYTE   W48
 BYTE   W48
// 008   ----------------------------------------
 BYTE   W48
 BYTE   W48
// 009   ----------------------------------------
 BYTE   W48
 BYTE   W48
// 010   ----------------------------------------
 BYTE   W48
 BYTE   W48
// 011   ----------------------------------------
 BYTE   W48
 BYTE   W48
// 012   ----------------------------------------
 BYTE   W48
 BYTE   W48
// 013   ----------------------------------------
 BYTE   W48
 BYTE   W48
// 014   ----------------------------------------
 BYTE   W48
 BYTE   W48
// 015   ----------------------------------------
 BYTE   W48
 BYTE   W48
// 016   ----------------------------------------
 BYTE   W48
 BYTE   W48
// 017   ----------------------------------------
 BYTE   W48
 BYTE   W48
// 018   ----------------------------------------
 BYTE   W48
 BYTE   W48
// 019   ----------------------------------------
 BYTE   W48
 BYTE   W48
// 020   ----------------------------------------
 BYTE   VOL   45*IsaacBattle_mvl/mxv
 BYTE   W06
 BYTE   N05  Cn4  v112
 BYTE   W06
 BYTE   Bn3
 BYTE   W06
 BYTE   N32  Cn4
 BYTE   W30
Label_IsaacBattle_6_0146A7B8:
 BYTE   W06
 BYTE   N17  Bn3  v112
 BYTE   W18
 BYTE   An3
 BYTE   W18
 BYTE   N11  Gn3
 BYTE   W06
 BYTE   PEND 
// 021   ----------------------------------------
 BYTE   W06
 BYTE   N90  An3
 BYTE   W42
 BYTE   W48
// 022   ----------------------------------------
Label_IsaacBattle_6_0146A7C8:
 BYTE   W06
 BYTE   N05  Cn4  v112
 BYTE   W06
 BYTE   Bn3
 BYTE   W06
 BYTE   N32  Cn4
 BYTE   W30
 BYTE   PEND 
Label_IsaacBattle_6_0146A7D3:
 BYTE   W06
 BYTE   N17  Bn3  v112
 BYTE   W18
 BYTE   Cn4
 BYTE   W18
 BYTE   N11  Dn4
 BYTE   W06
 BYTE   PEND 
// 023   ----------------------------------------
 BYTE   W06
 BYTE   N90  An3
 BYTE   W42
 BYTE   W48
 BYTE   PATT
  POIN2 Label_IsaacBattle_6_0146A7C8
 BYTE   PATT
  POIN2 Label_IsaacBattle_6_0146A7B8
// 024   ----------------------------------------
 BYTE   W06
 BYTE   N90  An3  v112
 BYTE   W42
 BYTE   W48
 BYTE   PATT
  POIN2 Label_IsaacBattle_6_0146A7C8
 BYTE   PATT
  POIN2 Label_IsaacBattle_6_0146A7D3
// 025   ----------------------------------------
 BYTE   W06
 BYTE   N66  An3  v112
 BYTE   W42
 BYTE   W48
// 026   ----------------------------------------
Label_IsaacBattle_6_0146A803:
 BYTE   N11  Fs1  v112
 BYTE   W12
 BYTE   N05
 BYTE   N05  Fs2
 BYTE   W06
 BYTE   Fs1
 BYTE   W06
 BYTE   N11
 BYTE   W12
 BYTE   N05
 BYTE   N05  En2
 BYTE   W06
 BYTE   Fs1
 BYTE   N05  Fs2
 BYTE   W06
 BYTE   PEND 
 BYTE   PATT
  POIN2 Label_IsaacBattle_6_0146A803
// 027   ----------------------------------------
Label_IsaacBattle_6_0146A81D:
 BYTE   N11  Fs1  v112
 BYTE   W12
 BYTE   N05
 BYTE   W06
 BYTE   N05
 BYTE   W06
 BYTE   N11
 BYTE   W12
 BYTE   N05
 BYTE   W06
 BYTE   N05
 BYTE   W06
 BYTE   PEND 
 BYTE   PATT
  POIN2 Label_IsaacBattle_6_0146A81D
 BYTE   PATT
  POIN2 Label_IsaacBattle_6_0146A803
// 028   ----------------------------------------
Label_IsaacBattle_6_0146A836:
 BYTE   N11  Fs1  v112
 BYTE   W12
 BYTE   N05
 BYTE   N05  Fs2
 BYTE   W06
 BYTE   Fs1
 BYTE   W06
 BYTE   N05
 BYTE   W06
 BYTE   En2
 BYTE   W06
 BYTE   Fs1
 BYTE   N05  Fs2
 BYTE   W06
 BYTE   Fs1
 BYTE   N05  En2
 BYTE   W06
 BYTE   PEND 
 BYTE   PATT
  POIN2 Label_IsaacBattle_6_0146A81D
 BYTE   PATT
  POIN2 Label_IsaacBattle_6_0146A81D
 BYTE   PATT
  POIN2 Label_IsaacBattle_6_0146A803
 BYTE   PATT
  POIN2 Label_IsaacBattle_6_0146A803
 BYTE   PATT
  POIN2 Label_IsaacBattle_6_0146A81D
 BYTE   PATT
  POIN2 Label_IsaacBattle_6_0146A81D
 BYTE   PATT
  POIN2 Label_IsaacBattle_6_0146A803
 BYTE   PATT
  POIN2 Label_IsaacBattle_6_0146A836
 BYTE   PATT
  POIN2 Label_IsaacBattle_6_0146A81D
 BYTE   PATT
  POIN2 Label_IsaacBattle_6_0146A81D
// 029   ----------------------------------------
 BYTE   W48
 BYTE   W48
// 030   ----------------------------------------
 BYTE   W48
 BYTE   W48
// 031   ----------------------------------------
 BYTE   W48
 BYTE   W48
// 032   ----------------------------------------
 BYTE   W48
 BYTE   W48
// 033   ----------------------------------------
 BYTE   W48
 BYTE   W48
// 034   ----------------------------------------
 BYTE   W48
 BYTE   W48
// 035   ----------------------------------------
 BYTE   W48
 BYTE   W48
// 036   ----------------------------------------
 BYTE   W48
 BYTE   W48
// 037   ----------------------------------------
 BYTE   W48
 BYTE   W48
// 038   ----------------------------------------
 BYTE   W48
 BYTE   W48
// 039   ----------------------------------------
 BYTE   W48
 BYTE   W48
// 040   ----------------------------------------
 BYTE   W48
 BYTE   W48
// 041   ----------------------------------------
 BYTE   W48
 BYTE   W48
// 042   ----------------------------------------
 BYTE   W48
 BYTE   W48
// 043   ----------------------------------------
 BYTE   W48
 BYTE   W48
// 044   ----------------------------------------
Label_IsaacBattle_6_0146A89D:
 BYTE   VOL   44*IsaacBattle_mvl/mxv
 BYTE   N42  En3  v112
 BYTE   W01
 BYTE   VOL   44*IsaacBattle_mvl/mxv
 BYTE   W01
 BYTE   Gn1
 BYTE   W01
 BYTE   Fs1
 BYTE   W01
 BYTE   Fs1
 BYTE   W01
 BYTE   Fs1
 BYTE   W01
 BYTE   Fn1
 BYTE   W01
 BYTE   En1
 BYTE   W01
 BYTE   En1
 BYTE   W01
 BYTE   Ds1
 BYTE   W01
 BYTE   Dn1
 BYTE   W01
 BYTE   Dn1
 BYTE   W01
 BYTE   Cs1
 BYTE   W01
 BYTE   Cn1
 BYTE   W01
 BYTE   Cn1
 BYTE   W01
 BYTE   Bn0
 BYTE   W01
 BYTE   As0
 BYTE   W01
 BYTE   As0
 BYTE   W01
 BYTE   An0
 BYTE   W01
 BYTE   An0
 BYTE   W01
 BYTE   Gs0
 BYTE   W01
 BYTE   Gn0
 BYTE   W01
 BYTE   Gn0
 BYTE   W01
 BYTE   Fs0
 BYTE   W01
 BYTE   Fs0
 BYTE   W24
 BYTE   PEND 
Label_IsaacBattle_6_0146A8D5:
 BYTE   VOL   44*IsaacBattle_mvl/mxv
 BYTE   N20  Dn3  v112
 BYTE   W01
 BYTE   VOL   44*IsaacBattle_mvl/mxv
 BYTE   W01
 BYTE   Gn1
 BYTE   W01
 BYTE   Fs1
 BYTE   W01
 BYTE   Fs1
 BYTE   W01
 BYTE   Fs1
 BYTE   W01
 BYTE   Fn1
 BYTE   W01
 BYTE   En1
 BYTE   W01
 BYTE   En1
 BYTE   W01
 BYTE   Ds1
 BYTE   W01
 BYTE   Dn1
 BYTE   W01
 BYTE   Dn1
 BYTE   W01
 BYTE   Cs1
 BYTE   W01
 BYTE   Cn1
 BYTE   W01
 BYTE   Cn1
 BYTE   W01
 BYTE   Bn0
 BYTE   W01
 BYTE   As0
 BYTE   W01
 BYTE   As0
 BYTE   W01
 BYTE   An0
 BYTE   W01
 BYTE   An0
 BYTE   W01
 BYTE   Gs0
 BYTE   W01
 BYTE   Gn0
 BYTE   W01
 BYTE   Gn0
 BYTE   W01
 BYTE   Fs0
 BYTE   W01
 BYTE   Gs1
 BYTE   N20  Gn3
 BYTE   W01
 BYTE   VOL   44*IsaacBattle_mvl/mxv
 BYTE   W01
 BYTE   Gn1
 BYTE   W01
 BYTE   Fs1
 BYTE   W01
 BYTE   Fs1
 BYTE   W01
 BYTE   Fs1
 BYTE   W01
 BYTE   Fn1
 BYTE   W01
 BYTE   En1
 BYTE   W01
 BYTE   En1
 BYTE   W01
 BYTE   Ds1
 BYTE   W01
 BYTE   Dn1
 BYTE   W01
 BYTE   Dn1
 BYTE   W01
 BYTE   Cs1
 BYTE   W01
 BYTE   Cn1
 BYTE   W01
 BYTE   Cn1
 BYTE   W01
 BYTE   Bn0
 BYTE   W01
 BYTE   As0
 BYTE   W01
 BYTE   As0
 BYTE   W01
 BYTE   An0
 BYTE   W01
 BYTE   An0
 BYTE   W01
 BYTE   Gs0
 BYTE   W01
 BYTE   Gn0
 BYTE   W01
 BYTE   Gn0
 BYTE   W01
 BYTE   Fs0
 BYTE   W01
 BYTE   PEND 
// 045   ----------------------------------------
Label_IsaacBattle_6_0146A93E:
 BYTE   VOL   44*IsaacBattle_mvl/mxv
 BYTE   N17  En3  v112
 BYTE   W01
 BYTE   VOL   44*IsaacBattle_mvl/mxv
 BYTE   W01
 BYTE   Gn1
 BYTE   W01
 BYTE   Fs1
 BYTE   W01
 BYTE   Fs1
 BYTE   W01
 BYTE   Fs1
 BYTE   W01
 BYTE   Fn1
 BYTE   W01
 BYTE   En1
 BYTE   W01
 BYTE   En1
 BYTE   W01
 BYTE   Ds1
 BYTE   W01
 BYTE   Dn1
 BYTE   W01
 BYTE   Dn1
 BYTE   W01
 BYTE   Cs1
 BYTE   W01
 BYTE   Cn1
 BYTE   W01
 BYTE   Cn1
 BYTE   W01
 BYTE   Bn0
 BYTE   W01
 BYTE   As0
 BYTE   W01
 BYTE   As0
 BYTE   W01
 BYTE   Gs1
 BYTE   N28  Bn2
 BYTE   W01
 BYTE   VOL   44*IsaacBattle_mvl/mxv
 BYTE   W01
 BYTE   Gn1
 BYTE   W01
 BYTE   Fs1
 BYTE   W01
 BYTE   Fs1
 BYTE   W01
 BYTE   Fs1
 BYTE   W01
 BYTE   Fn1
 BYTE   W01
 BYTE   En1
 BYTE   W01
 BYTE   En1
 BYTE   W01
 BYTE   Ds1
 BYTE   W01
 BYTE   Dn1
 BYTE   W01
 BYTE   Dn1
 BYTE   W01
 BYTE   Cs1
 BYTE   W01
 BYTE   Cn1
 BYTE   W01
 BYTE   Cn1
 BYTE   W01
 BYTE   Bn0
 BYTE   W01
 BYTE   As0
 BYTE   W01
 BYTE   As0
 BYTE   W01
 BYTE   An0
 BYTE   W01
 BYTE   An0
 BYTE   W01
 BYTE   Gs0
 BYTE   W01
 BYTE   Gn0
 BYTE   W01
 BYTE   Gn0
 BYTE   W01
 BYTE   Fs0
 BYTE   W01
 BYTE   Fs0
 BYTE   W06
 BYTE   PEND 
Label_IsaacBattle_6_0146A99D:
 BYTE   VOL   44*IsaacBattle_mvl/mxv
 BYTE   N17  Bn2  v112
 BYTE   W01
 BYTE   VOL   44*IsaacBattle_mvl/mxv
 BYTE   W01
 BYTE   Gn1
 BYTE   W01
 BYTE   Fs1
 BYTE   W01
 BYTE   Fs1
 BYTE   W01
 BYTE   Fs1
 BYTE   W01
 BYTE   Fn1
 BYTE   W01
 BYTE   En1
 BYTE   W01
 BYTE   En1
 BYTE   W01
 BYTE   Ds1
 BYTE   W01
 BYTE   Dn1
 BYTE   W01
 BYTE   Dn1
 BYTE   W01
 BYTE   Cs1
 BYTE   W01
 BYTE   Cn1
 BYTE   W01
 BYTE   Cn1
 BYTE   W01
 BYTE   Bn0
 BYTE   W01
 BYTE   As0
 BYTE   W01
 BYTE   As0
 BYTE   W01
 BYTE   Gs1
 BYTE   N17  Cn3
 BYTE   W01
 BYTE   VOL   44*IsaacBattle_mvl/mxv
 BYTE   W01
 BYTE   Gn1
 BYTE   W01
 BYTE   Fs1
 BYTE   W01
 BYTE   Fs1
 BYTE   W01
 BYTE   Fs1
 BYTE   W01
 BYTE   Fn1
 BYTE   W01
 BYTE   En1
 BYTE   W01
 BYTE   En1
 BYTE   W01
 BYTE   Ds1
 BYTE   W01
 BYTE   Dn1
 BYTE   W01
 BYTE   Dn1
 BYTE   W01
 BYTE   Cs1
 BYTE   W01
 BYTE   Cn1
 BYTE   W01
 BYTE   Cn1
 BYTE   W01
 BYTE   Bn0
 BYTE   W01
 BYTE   As0
 BYTE   W01
 BYTE   As0
 BYTE   W01
 BYTE   Gs1
 BYTE   N11  Dn3
 BYTE   W01
 BYTE   VOL   44*IsaacBattle_mvl/mxv
 BYTE   W01
 BYTE   Gn1
 BYTE   W01
 BYTE   Fs1
 BYTE   W01
 BYTE   Fs1
 BYTE   W01
 BYTE   Fs1
 BYTE   W01
 BYTE   Fn1
 BYTE   W01
 BYTE   En1
 BYTE   W01
 BYTE   En1
 BYTE   W01
 BYTE   Ds1
 BYTE   W01
 BYTE   Dn1
 BYTE   W01
 BYTE   Dn1
 BYTE   W01
 BYTE   PEND 
 BYTE   PATT
  POIN2 Label_IsaacBattle_6_0146A89D
 BYTE   PATT
  POIN2 Label_IsaacBattle_6_0146A8D5
// 046   ----------------------------------------
Label_IsaacBattle_6_0146AA13:
 BYTE   VOL   44*IsaacBattle_mvl/mxv
 BYTE   N17  En3  v112
 BYTE   W01
 BYTE   VOL   44*IsaacBattle_mvl/mxv
 BYTE   W01
 BYTE   Gn1
 BYTE   W01
 BYTE   Fs1
 BYTE   W01
 BYTE   Fs1
 BYTE   W01
 BYTE   Fs1
 BYTE   W01
 BYTE   Fn1
 BYTE   W01
 BYTE   En1
 BYTE   W01
 BYTE   En1
 BYTE   W01
 BYTE   Ds1
 BYTE   W01
 BYTE   Dn1
 BYTE   W01
 BYTE   Dn1
 BYTE   W01
 BYTE   Cs1
 BYTE   W01
 BYTE   Cn1
 BYTE   W01
 BYTE   Cn1
 BYTE   W01
 BYTE   Bn0
 BYTE   W01
 BYTE   As0
 BYTE   W01
 BYTE   As0
 BYTE   W01
 BYTE   Gs1
 BYTE   N17  Fs3
 BYTE   W01
 BYTE   VOL   44*IsaacBattle_mvl/mxv
 BYTE   W01
 BYTE   Gn1
 BYTE   W01
 BYTE   Fs1
 BYTE   W01
 BYTE   Fs1
 BYTE   W01
 BYTE   Fs1
 BYTE   W01
 BYTE   Fn1
 BYTE   W01
 BYTE   En1
 BYTE   W01
 BYTE   En1
 BYTE   W01
 BYTE   Ds1
 BYTE   W01
 BYTE   Dn1
 BYTE   W01
 BYTE   Dn1
 BYTE   W01
 BYTE   Cs1
 BYTE   W01
 BYTE   Cn1
 BYTE   W01
 BYTE   Cn1
 BYTE   W01
 BYTE   Bn0
 BYTE   W01
 BYTE   As0
 BYTE   W01
 BYTE   As0
 BYTE   W01
 BYTE   Gs1
 BYTE   N11  Gn3
 BYTE   W01
 BYTE   VOL   44*IsaacBattle_mvl/mxv
 BYTE   W01
 BYTE   Gn1
 BYTE   W01
 BYTE   Fs1
 BYTE   W01
 BYTE   Fs1
 BYTE   W01
 BYTE   Fs1
 BYTE   W01
 BYTE   Fn1
 BYTE   W01
 BYTE   En1
 BYTE   W01
 BYTE   En1
 BYTE   W01
 BYTE   Ds1
 BYTE   W01
 BYTE   Dn1
 BYTE   W01
 BYTE   Dn1
 BYTE   W01
 BYTE   PEND 
Label_IsaacBattle_6_0146AA7F:
 BYTE   VOL   44*IsaacBattle_mvl/mxv
 BYTE   N17  Gs3  v112
 BYTE   W01
 BYTE   VOL   44*IsaacBattle_mvl/mxv
 BYTE   W01
 BYTE   Gn1
 BYTE   W01
 BYTE   Fs1
 BYTE   W01
 BYTE   Fs1
 BYTE   W01
 BYTE   Fs1
 BYTE   W01
 BYTE   Fn1
 BYTE   W01
 BYTE   En1
 BYTE   W01
 BYTE   En1
 BYTE   W01
 BYTE   Ds1
 BYTE   W01
 BYTE   Dn1
 BYTE   W01
 BYTE   Dn1
 BYTE   W01
 BYTE   Cs1
 BYTE   W01
 BYTE   Cn1
 BYTE   W01
 BYTE   Cn1
 BYTE   W01
 BYTE   Bn0
 BYTE   W01
 BYTE   As0
 BYTE   W01
 BYTE   As0
 BYTE   W01
 BYTE   Gs1
 BYTE   N17  An3
 BYTE   W01
 BYTE   VOL   44*IsaacBattle_mvl/mxv
 BYTE   W01
 BYTE   Gn1
 BYTE   W01
 BYTE   Fs1
 BYTE   W01
 BYTE   Fs1
 BYTE   W01
 BYTE   Fs1
 BYTE   W01
 BYTE   Fn1
 BYTE   W01
 BYTE   En1
 BYTE   W01
 BYTE   En1
 BYTE   W01
 BYTE   Ds1
 BYTE   W01
 BYTE   Dn1
 BYTE   W01
 BYTE   Dn1
 BYTE   W01
 BYTE   Cs1
 BYTE   W01
 BYTE   Cn1
 BYTE   W01
 BYTE   Cn1
 BYTE   W01
 BYTE   Bn0
 BYTE   W01
 BYTE   As0
 BYTE   W01
 BYTE   As0
 BYTE   W01
 BYTE   Gs1
 BYTE   N11  Bn3
 BYTE   W01
 BYTE   VOL   44*IsaacBattle_mvl/mxv
 BYTE   W01
 BYTE   Gn1
 BYTE   W01
 BYTE   Fs1
 BYTE   W01
 BYTE   Fs1
 BYTE   W01
 BYTE   Fs1
 BYTE   W01
 BYTE   Fn1
 BYTE   W01
 BYTE   En1
 BYTE   W01
 BYTE   En1
 BYTE   W01
 BYTE   Ds1
 BYTE   W01
 BYTE   Dn1
 BYTE   W01
 BYTE   Dn1
 BYTE   W01
 BYTE   PEND 
// 047   ----------------------------------------
Label_IsaacBattle_6_0146AAEB:
 BYTE   VOL   37*IsaacBattle_mvl/mxv
 BYTE   W01
 BYTE   Cn1
 BYTE   W01
 BYTE   Cn1
 BYTE   W01
 BYTE   Bn0
 BYTE   W01
 BYTE   As0
 BYTE   W01
 BYTE   As0
 BYTE   W01
 BYTE   An0
 BYTE   N05  Cn4  v112
 BYTE   W01
 BYTE   VOL   33*IsaacBattle_mvl/mxv
 BYTE   W01
 BYTE   Gs0
 BYTE   W01
 BYTE   Gn0
 BYTE   W01
 BYTE   Gn0
 BYTE   W01
 BYTE   Fs0
 BYTE   W01
 BYTE   Fs0
 BYTE   N05  Bn3
 BYTE   W06
 BYTE   N32  Cn4
 BYTE   W30
 BYTE   PEND 
 BYTE   PATT
  POIN2 Label_IsaacBattle_6_0146A7B8
// 048   ----------------------------------------
 BYTE   W06
 BYTE   N90  An3  v112
 BYTE   W42
 BYTE   W48
 BYTE   PATT
  POIN2 Label_IsaacBattle_6_0146A7C8
 BYTE   PATT
  POIN2 Label_IsaacBattle_6_0146A7D3
// 049   ----------------------------------------
 BYTE   W06
 BYTE   N90  An3  v112
 BYTE   W42
 BYTE   W48
 BYTE   PATT
  POIN2 Label_IsaacBattle_6_0146A7C8
 BYTE   PATT
  POIN2 Label_IsaacBattle_6_0146A7B8
// 050   ----------------------------------------
 BYTE   W06
 BYTE   N90  An3  v112
 BYTE   W42
 BYTE   W48
 BYTE   PATT
  POIN2 Label_IsaacBattle_6_0146A7C8
 BYTE   PATT
  POIN2 Label_IsaacBattle_6_0146A7D3
// 051   ----------------------------------------
 BYTE   W06
 BYTE   N66  An3  v112
 BYTE   W42
 BYTE   W48
 BYTE   PATT
  POIN2 Label_IsaacBattle_6_0146A803
 BYTE   PATT
  POIN2 Label_IsaacBattle_6_0146A803
 BYTE   PATT
  POIN2 Label_IsaacBattle_6_0146A81D
 BYTE   PATT
  POIN2 Label_IsaacBattle_6_0146A81D
 BYTE   PATT
  POIN2 Label_IsaacBattle_6_0146A803
 BYTE   PATT
  POIN2 Label_IsaacBattle_6_0146A836
 BYTE   PATT
  POIN2 Label_IsaacBattle_6_0146A81D
 BYTE   PATT
  POIN2 Label_IsaacBattle_6_0146A81D
 BYTE   PATT
  POIN2 Label_IsaacBattle_6_0146A803
 BYTE   PATT
  POIN2 Label_IsaacBattle_6_0146A803
 BYTE   PATT
  POIN2 Label_IsaacBattle_6_0146A81D
 BYTE   PATT
  POIN2 Label_IsaacBattle_6_0146A81D
 BYTE   PATT
  POIN2 Label_IsaacBattle_6_0146A803
 BYTE   PATT
  POIN2 Label_IsaacBattle_6_0146A836
 BYTE   PATT
  POIN2 Label_IsaacBattle_6_0146A81D
 BYTE   PATT
  POIN2 Label_IsaacBattle_6_0146A81D
// 052   ----------------------------------------
 BYTE   W48
 BYTE   W48
// 053   ----------------------------------------
 BYTE   W48
 BYTE   W48
// 054   ----------------------------------------
 BYTE   W48
 BYTE   W48
// 055   ----------------------------------------
 BYTE   W48
 BYTE   W48
// 056   ----------------------------------------
 BYTE   W48
 BYTE   W48
// 057   ----------------------------------------
 BYTE   W48
 BYTE   W48
// 058   ----------------------------------------
 BYTE   W48
 BYTE   W48
// 059   ----------------------------------------
 BYTE   W48
 BYTE   W48
// 060   ----------------------------------------
 BYTE   W48
 BYTE   W48
// 061   ----------------------------------------
 BYTE   W48
 BYTE   W48
// 062   ----------------------------------------
 BYTE   W48
 BYTE   W48
// 063   ----------------------------------------
 BYTE   W48
 BYTE   W48
// 064   ----------------------------------------
 BYTE   W48
 BYTE   W48
// 065   ----------------------------------------
 BYTE   W48
 BYTE   W48
// 066   ----------------------------------------
 BYTE   W48
 BYTE   W48
 BYTE   PATT
  POIN2 Label_IsaacBattle_6_0146A89D
 BYTE   PATT
  POIN2 Label_IsaacBattle_6_0146A8D5
 BYTE   PATT
  POIN2 Label_IsaacBattle_6_0146A93E
 BYTE   PATT
  POIN2 Label_IsaacBattle_6_0146A99D
 BYTE   PATT
  POIN2 Label_IsaacBattle_6_0146A89D
 BYTE   PATT
  POIN2 Label_IsaacBattle_6_0146A8D5
 BYTE   PATT
  POIN2 Label_IsaacBattle_6_0146AA13
 BYTE   PATT
  POIN2 Label_IsaacBattle_6_0146AA7F
 BYTE   PATT
  POIN2 Label_IsaacBattle_6_0146AAEB
 BYTE   PATT
  POIN2 Label_IsaacBattle_6_0146A7B8
// 067   ----------------------------------------
 BYTE   W06
 BYTE   N90  An3  v112
 BYTE   W42
 BYTE   W48
 BYTE   PATT
  POIN2 Label_IsaacBattle_6_0146A7C8
 BYTE   PATT
  POIN2 Label_IsaacBattle_6_0146A7D3
// 068   ----------------------------------------
 BYTE   W06
 BYTE   N90  An3  v112
 BYTE   W42
 BYTE   W48
 BYTE   PATT
  POIN2 Label_IsaacBattle_6_0146A7C8
 BYTE   PATT
  POIN2 Label_IsaacBattle_6_0146A7B8
// 069   ----------------------------------------
 BYTE   W06
 BYTE   N90  An3  v112
 BYTE   W42
 BYTE   W48
 BYTE   PATT
  POIN2 Label_IsaacBattle_6_0146A7C8
 BYTE   PATT
  POIN2 Label_IsaacBattle_6_0146A7D3
// 070   ----------------------------------------
 BYTE   W06
 BYTE   N66  An3  v112
 BYTE   W42
 BYTE   W48
// 071   ----------------------------------------
 BYTE   VOL   45*IsaacBattle_mvl/mxv
 BYTE   N11  Fs1
 BYTE   W08
 BYTE   VOL   44*IsaacBattle_mvl/mxv
 BYTE   W04
 BYTE   N05
 BYTE   N05  Fs2
 BYTE   W04
 BYTE   VOL   44*IsaacBattle_mvl/mxv
 BYTE   W02
 BYTE   N05  Fs1
 BYTE   W06
 BYTE   VOL   43*IsaacBattle_mvl/mxv
 BYTE   N11
 BYTE   W08
 BYTE   VOL   43*IsaacBattle_mvl/mxv
 BYTE   W04
 BYTE   N05
 BYTE   N05  En2
 BYTE   W04
 BYTE   VOL   42*IsaacBattle_mvl/mxv
 BYTE   W02
 BYTE   N05  Fs1
 BYTE   N05  Fs2
 BYTE   W06
 BYTE   VOL   42*IsaacBattle_mvl/mxv
 BYTE   N11  Fs1
 BYTE   W08
 BYTE   VOL   42*IsaacBattle_mvl/mxv
 BYTE   W04
 BYTE   N05
 BYTE   N05  Fs2
 BYTE   W04
 BYTE   VOL   41*IsaacBattle_mvl/mxv
 BYTE   W02
 BYTE   N05  Fs1
 BYTE   W06
 BYTE   VOL   41*IsaacBattle_mvl/mxv
 BYTE   N11
 BYTE   W08
 BYTE   VOL   40*IsaacBattle_mvl/mxv
 BYTE   W04
 BYTE   N05
 BYTE   N05  En2
 BYTE   W04
 BYTE   VOL   40*IsaacBattle_mvl/mxv
 BYTE   W02
 BYTE   N05  Fs1
 BYTE   N05  Fs2
 BYTE   W06
// 072   ----------------------------------------
 BYTE   VOL   39*IsaacBattle_mvl/mxv
 BYTE   N11  Fs1
 BYTE   W08
 BYTE   VOL   39*IsaacBattle_mvl/mxv
 BYTE   W04
 BYTE   N05
 BYTE   W04
 BYTE   VOL   38*IsaacBattle_mvl/mxv
 BYTE   W02
 BYTE   N05
 BYTE   W06
 BYTE   VOL   38*IsaacBattle_mvl/mxv
 BYTE   N11
 BYTE   W08
 BYTE   VOL   37*IsaacBattle_mvl/mxv
 BYTE   W04
 BYTE   N05
 BYTE   W04
 BYTE   VOL   37*IsaacBattle_mvl/mxv
 BYTE   W02
 BYTE   N05
 BYTE   W06
 BYTE   VOL   36*IsaacBattle_mvl/mxv
 BYTE   N11
 BYTE   W08
 BYTE   VOL   36*IsaacBattle_mvl/mxv
 BYTE   W04
 BYTE   N05
 BYTE   W04
 BYTE   VOL   35*IsaacBattle_mvl/mxv
 BYTE   W02
 BYTE   N05
 BYTE   W06
 BYTE   VOL   35*IsaacBattle_mvl/mxv
 BYTE   N11
 BYTE   W08
 BYTE   VOL   34*IsaacBattle_mvl/mxv
 BYTE   W04
 BYTE   N05
 BYTE   W04
 BYTE   VOL   34*IsaacBattle_mvl/mxv
 BYTE   W02
 BYTE   N05
 BYTE   W06
// 073   ----------------------------------------
 BYTE   VOL   34*IsaacBattle_mvl/mxv
 BYTE   N11
 BYTE   W08
 BYTE   VOL   33*IsaacBattle_mvl/mxv
 BYTE   W04
 BYTE   N05
 BYTE   N05  Fs2
 BYTE   W04
 BYTE   VOL   33*IsaacBattle_mvl/mxv
 BYTE   W02
 BYTE   N05  Fs1
 BYTE   W06
 BYTE   VOL   32*IsaacBattle_mvl/mxv
 BYTE   N11
 BYTE   W08
 BYTE   VOL   32*IsaacBattle_mvl/mxv
 BYTE   W04
 BYTE   N05
 BYTE   N05  En2
 BYTE   W04
 BYTE   VOL   31*IsaacBattle_mvl/mxv
 BYTE   W02
 BYTE   N05  Fs1
 BYTE   N05  Fs2
 BYTE   W06
 BYTE   VOL   31*IsaacBattle_mvl/mxv
 BYTE   N11  Fs1
 BYTE   W08
 BYTE   VOL   30*IsaacBattle_mvl/mxv
 BYTE   W04
 BYTE   N05
 BYTE   N05  Fs2
 BYTE   W04
 BYTE   VOL   30*IsaacBattle_mvl/mxv
 BYTE   W02
 BYTE   N05  Fs1
 BYTE   W06
 BYTE   VOL   29*IsaacBattle_mvl/mxv
 BYTE   N05
 BYTE   W06
 BYTE   En2
 BYTE   W02
 BYTE   VOL   29*IsaacBattle_mvl/mxv
 BYTE   W04
 BYTE   N05  Fs1
 BYTE   N05  Fs2
 BYTE   W04
 BYTE   VOL   28*IsaacBattle_mvl/mxv
 BYTE   W02
 BYTE   N05  Fs1
 BYTE   N05  En2
 BYTE   W06
// 074   ----------------------------------------
 BYTE   VOL   28*IsaacBattle_mvl/mxv
 BYTE   N11  Fs1
 BYTE   W08
 BYTE   VOL   27*IsaacBattle_mvl/mxv
 BYTE   W04
 BYTE   N05
 BYTE   W04
 BYTE   VOL   27*IsaacBattle_mvl/mxv
 BYTE   W02
 BYTE   N05
 BYTE   W06
 BYTE   VOL   26*IsaacBattle_mvl/mxv
 BYTE   N11
 BYTE   W08
 BYTE   VOL   26*IsaacBattle_mvl/mxv
 BYTE   W04
 BYTE   N05
 BYTE   W04
 BYTE   VOL   25*IsaacBattle_mvl/mxv
 BYTE   W02
 BYTE   N05
 BYTE   W06
 BYTE   VOL   25*IsaacBattle_mvl/mxv
 BYTE   N11
 BYTE   W08
 BYTE   VOL   25*IsaacBattle_mvl/mxv
 BYTE   W04
 BYTE   N05
 BYTE   W04
 BYTE   VOL   24*IsaacBattle_mvl/mxv
 BYTE   W02
 BYTE   N05
 BYTE   W06
 BYTE   VOL   24*IsaacBattle_mvl/mxv
 BYTE   N11
 BYTE   W08
 BYTE   VOL   23*IsaacBattle_mvl/mxv
 BYTE   W04
 BYTE   N05
 BYTE   W04
 BYTE   VOL   23*IsaacBattle_mvl/mxv
 BYTE   W02
 BYTE   N05
 BYTE   W06
// 075   ----------------------------------------
 BYTE   VOL   22*IsaacBattle_mvl/mxv
 BYTE   N11
 BYTE   W08
 BYTE   VOL   22*IsaacBattle_mvl/mxv
 BYTE   W04
 BYTE   N05
 BYTE   N05  Fs2
 BYTE   W04
 BYTE   VOL   21*IsaacBattle_mvl/mxv
 BYTE   W02
 BYTE   N05  Fs1
 BYTE   W06
 BYTE   VOL   21*IsaacBattle_mvl/mxv
 BYTE   N11
 BYTE   W08
 BYTE   VOL   20*IsaacBattle_mvl/mxv
 BYTE   W04
 BYTE   N05
 BYTE   N05  En2
 BYTE   W04
 BYTE   VOL   20*IsaacBattle_mvl/mxv
 BYTE   W02
 BYTE   N05  Fs1
 BYTE   N05  Fs2
 BYTE   W06
 BYTE   VOL   19*IsaacBattle_mvl/mxv
 BYTE   N11  Fs1
 BYTE   W08
 BYTE   VOL   19*IsaacBattle_mvl/mxv
 BYTE   W04
 BYTE   N05
 BYTE   N05  Fs2
 BYTE   W04
 BYTE   VOL   18*IsaacBattle_mvl/mxv
 BYTE   W02
 BYTE   N05  Fs1
 BYTE   W06
 BYTE   VOL   18*IsaacBattle_mvl/mxv
 BYTE   N11
 BYTE   W08
 BYTE   VOL   17*IsaacBattle_mvl/mxv
 BYTE   W04
 BYTE   N05
 BYTE   N05  En2
 BYTE   W04
 BYTE   VOL   17*IsaacBattle_mvl/mxv
 BYTE   W02
 BYTE   N05  Fs1
 BYTE   N05  Fs2
 BYTE   W06
// 076   ----------------------------------------
 BYTE   VOL   17*IsaacBattle_mvl/mxv
 BYTE   N11  Fs1
 BYTE   W08
 BYTE   VOL   16*IsaacBattle_mvl/mxv
 BYTE   W04
 BYTE   N05
 BYTE   W04
 BYTE   VOL   16*IsaacBattle_mvl/mxv
 BYTE   W02
 BYTE   N05
 BYTE   W06
 BYTE   VOL   15*IsaacBattle_mvl/mxv
 BYTE   N11
 BYTE   W08
 BYTE   VOL   15*IsaacBattle_mvl/mxv
 BYTE   W04
 BYTE   N05
 BYTE   W04
 BYTE   VOL   14*IsaacBattle_mvl/mxv
 BYTE   W02
 BYTE   N05
 BYTE   W06
 BYTE   VOL   14*IsaacBattle_mvl/mxv
 BYTE   N11
 BYTE   W08
 BYTE   VOL   13*IsaacBattle_mvl/mxv
 BYTE   W04
 BYTE   N05
 BYTE   W04
 BYTE   VOL   13*IsaacBattle_mvl/mxv
 BYTE   W02
 BYTE   N05
 BYTE   W06
 BYTE   VOL   12*IsaacBattle_mvl/mxv
 BYTE   N11
 BYTE   W08
 BYTE   VOL   12*IsaacBattle_mvl/mxv
 BYTE   W04
 BYTE   N05
 BYTE   W04
 BYTE   VOL   11*IsaacBattle_mvl/mxv
 BYTE   W02
 BYTE   N05
 BYTE   W06
// 077   ----------------------------------------
 BYTE   VOL   11*IsaacBattle_mvl/mxv
 BYTE   N11
 BYTE   W08
 BYTE   VOL   10*IsaacBattle_mvl/mxv
 BYTE   W04
 BYTE   N05
 BYTE   N05  Fs2
 BYTE   W04
 BYTE   VOL   10*IsaacBattle_mvl/mxv
 BYTE   W02
 BYTE   N05  Fs1
 BYTE   W06
 BYTE   VOL   9*IsaacBattle_mvl/mxv
 BYTE   N11
 BYTE   W08
 BYTE   VOL   9*IsaacBattle_mvl/mxv
 BYTE   W04
 BYTE   N05
 BYTE   N05  En2
 BYTE   W04
 BYTE   VOL   8*IsaacBattle_mvl/mxv
 BYTE   W02
 BYTE   N05  Fs1
 BYTE   N05  Fs2
 BYTE   W06
 BYTE   VOL   8*IsaacBattle_mvl/mxv
 BYTE   N11  Fs1
 BYTE   W08
 BYTE   VOL   8*IsaacBattle_mvl/mxv
 BYTE   W04
 BYTE   N05
 BYTE   N05  Fs2
 BYTE   W04
 BYTE   VOL   7*IsaacBattle_mvl/mxv
 BYTE   W02
 BYTE   N05  Fs1
 BYTE   W06
 BYTE   VOL   7*IsaacBattle_mvl/mxv
 BYTE   N05
 BYTE   W06
 BYTE   En2
 BYTE   W02
 BYTE   VOL   6*IsaacBattle_mvl/mxv
 BYTE   W04
 BYTE   N05  Fs1
 BYTE   N05  Fs2
 BYTE   W04
 BYTE   VOL   6*IsaacBattle_mvl/mxv
 BYTE   W02
 BYTE   N05  Fs1
 BYTE   N05  En2
 BYTE   W06
// 078   ----------------------------------------
 BYTE   VOL   5*IsaacBattle_mvl/mxv
 BYTE   N11  Fs1
 BYTE   W08
 BYTE   VOL   5*IsaacBattle_mvl/mxv
 BYTE   W04
 BYTE   N05
 BYTE   W04
 BYTE   VOL   4*IsaacBattle_mvl/mxv
 BYTE   W02
 BYTE   N05
 BYTE   W06
 BYTE   VOL   4*IsaacBattle_mvl/mxv
 BYTE   N11
 BYTE   W08
 BYTE   VOL   3*IsaacBattle_mvl/mxv
 BYTE   W04
 BYTE   N05
 BYTE   W04
 BYTE   VOL   3*IsaacBattle_mvl/mxv
 BYTE   W02
 BYTE   N05
 BYTE   W06
 BYTE   VOL   2*IsaacBattle_mvl/mxv
 BYTE   N11
 BYTE   W08
 BYTE   VOL   2*IsaacBattle_mvl/mxv
 BYTE   W04
 BYTE   N05
 BYTE   W04
 BYTE   VOL   1*IsaacBattle_mvl/mxv
 BYTE   W02
 BYTE   N05
 BYTE   W06
 BYTE   VOL   1*IsaacBattle_mvl/mxv
 BYTE   N11
 BYTE   W08
 BYTE   VOL   0*IsaacBattle_mvl/mxv
 BYTE   W04
 BYTE   N05
 BYTE   W04
 BYTE   VOL   0*IsaacBattle_mvl/mxv
 BYTE   W02
 BYTE   N05
 BYTE   W06
// 079   ----------------------------------------
 BYTE   GoTo
  POIN2 Label_IsaacBattle_6_0146A77E
// 080   ----------------------------------------
 BYTE   VOL   0*IsaacBattle_mvl/mxv
 BYTE   FINE

//******************************************************//
	ALIGN 4

songIsaacsBattleTheme:
	BYTE	7	// NumTrks
	BYTE	0	// NumBlks
	BYTE	IsaacBattle_pri	// Priority
	BYTE	IsaacBattle_rev	// Reverb.
    
	POIN2	IsaacBattle_grp
    
	POIN2	IsaacBattle_001
	POIN2	IsaacBattle_002
	POIN2	IsaacBattle_003
	POIN2	IsaacBattle_004
	POIN2	IsaacBattle_005
	POIN2	IsaacBattle_006
	POIN2	IsaacBattle_007

	
