//Event file generated from Sappy .s format.
	#include "MPlayDef.event"

	#define	Justice_grp  voicegroup000
	#define	Justice_pri  0
	#define	Justice_rev  0
	#define	Justice_mvl  210
	#define	Justice_key  0
	#define	Justice_tbs  1
	#define	Justice_exg  0
	#define	Justice_cmp  1

	// .rodata
	//	Justice
	ALIGN 4


//**************** Track 1 (Midi-Chn.0) ****************//

Justice_001:
// 000   ----------------------------------------
 BYTE   KEYSH   Justice_key+0
Label_Justice0_0146AF86:
 BYTE   TEMPO   124*Justice_tbs/2
 BYTE   VOICE   48
 BYTE   PAN   c_v+0
 BYTE   VOL   29*Justice_mvl/mxv
 BYTE   N21  Fn2  v060
 BYTE   N21  An2
 BYTE   N21  Dn3
 BYTE   W24
 BYTE   N04  Fn2
 BYTE   N04  An2
 BYTE   N04  Dn3
 BYTE   W07
 BYTE   Fn2
 BYTE   N04  An2
 BYTE   N04  Dn3
 BYTE   W08
 BYTE   N06  Fn2
 BYTE   N06  An2
 BYTE   N06  Dn3
 BYTE   W09
 BYTE   N21  Fn2
 BYTE   N21  An2
 BYTE   N21  Dn3
 BYTE   W24
 BYTE   N04  Fn2
 BYTE   N04  An2
 BYTE   N04  Dn3
 BYTE   W07
 BYTE   Fn2
 BYTE   N04  An2
 BYTE   N04  Dn3
 BYTE   W08
 BYTE   N06  Fn2
 BYTE   N06  An2
 BYTE   N06  Dn3
 BYTE   W09
// 001   ----------------------------------------
Label_Justice0_0146AFC5:
 BYTE   N21  Gn2  v060
 BYTE   N21  Bn2
 BYTE   N21  Dn3
 BYTE   N21  Gn3
 BYTE   W24
 BYTE   N04  Bn2
 BYTE   N04  Dn3
 BYTE   N04  Gn3
 BYTE   W07
 BYTE   Bn2
 BYTE   N04  Dn3
 BYTE   N04  Gn3
 BYTE   W08
 BYTE   N06  Bn2
 BYTE   N06  Dn3
 BYTE   N06  Gn3
 BYTE   W09
 BYTE   N21  As2
 BYTE   N21  Dn3
 BYTE   N21  Fn3
 BYTE   W24
 BYTE   Gn2
 BYTE   N21  Cn3
 BYTE   N21  En3
 BYTE   W24
 BYTE   PEND 
// 002   ----------------------------------------
Label_Justice0_0146AFF1:
 BYTE   N21  Fn2  v060
 BYTE   N21  An2
 BYTE   N21  Dn3
 BYTE   W24
 BYTE   N04  Fn2
 BYTE   N04  An2
 BYTE   N04  Dn3
 BYTE   W07
 BYTE   Fn2
 BYTE   N04  An2
 BYTE   N04  Dn3
 BYTE   W08
 BYTE   N06  Fn2
 BYTE   N06  An2
 BYTE   N06  Dn3
 BYTE   W09
 BYTE   N21  Fn2
 BYTE   N21  An2
 BYTE   N21  Dn3
 BYTE   W24
 BYTE   N04  Fn2
 BYTE   N04  An2
 BYTE   N04  Dn3
 BYTE   W07
 BYTE   Fn2
 BYTE   N04  An2
 BYTE   N04  Dn3
 BYTE   W08
 BYTE   N06  Fn2
 BYTE   N06  An2
 BYTE   N06  Dn3
 BYTE   W09
 BYTE   PEND 
// 003   ----------------------------------------
Label_Justice0_0146B029:
 BYTE   N21  Gn2  v060
 BYTE   N21  Bn2
 BYTE   N21  Dn3
 BYTE   N21  Gn3
 BYTE   W24
 BYTE   N04  Bn2
 BYTE   N04  Dn3
 BYTE   N04  Gn3
 BYTE   W07
 BYTE   Bn2
 BYTE   N04  Dn3
 BYTE   N04  Gn3
 BYTE   W08
 BYTE   N06  Bn2
 BYTE   N06  Dn3
 BYTE   N06  Gn3
 BYTE   W09
 BYTE   N21  An2
 BYTE   N21  Dn3
 BYTE   N21  Fn3
 BYTE   N21  An3
 BYTE   W24
 BYTE   Gn2
 BYTE   N21  Cn3
 BYTE   N21  En3
 BYTE   N21  Gn3
 BYTE   W24
 BYTE   PEND 
// 004   ----------------------------------------
Label_Justice0_0146B059:
 BYTE   N21  Fn2  v060
 BYTE   N21  An2
 BYTE   N21  Dn3
 BYTE   N21  Fn3
 BYTE   W24
 BYTE   N04  Fn2
 BYTE   N04  An2
 BYTE   N04  Dn3
 BYTE   W07
 BYTE   Fn2
 BYTE   N04  An2
 BYTE   N04  Dn3
 BYTE   W08
 BYTE   N06  Fn2
 BYTE   N06  An2
 BYTE   N06  Dn3
 BYTE   W09
 BYTE   N21  Fn2
 BYTE   N21  An2
 BYTE   N21  Dn3
 BYTE   N21  Fn3
 BYTE   W24
 BYTE   N04  Fn2
 BYTE   N04  An2
 BYTE   N04  Dn3
 BYTE   W07
 BYTE   Fn2
 BYTE   N04  An2
 BYTE   N04  Dn3
 BYTE   W08
 BYTE   N06  Fn2
 BYTE   N06  An2
 BYTE   N06  Dn3
 BYTE   W09
 BYTE   PEND 
 BYTE   PATT
  POIN2 Label_Justice0_0146AFC5
 BYTE   PATT
  POIN2 Label_Justice0_0146AFF1
 BYTE   PATT
  POIN2 Label_Justice0_0146B029
 BYTE   PATT
  POIN2 Label_Justice0_0146B059
 BYTE   PATT
  POIN2 Label_Justice0_0146AFC5
 BYTE   PATT
  POIN2 Label_Justice0_0146AFF1
 BYTE   PATT
  POIN2 Label_Justice0_0146B029
 BYTE   PATT
  POIN2 Label_Justice0_0146B059
 BYTE   PATT
  POIN2 Label_Justice0_0146AFC5
// 005   ----------------------------------------
Label_Justice0_0146B0C2:
 BYTE   N36  An2  v060
 BYTE   N36  Dn3
 BYTE   N36  Fn3
 BYTE   W48
 BYTE   Gn2
 BYTE   N36  Dn3
 BYTE   N36  Gn3
 BYTE   W48
 BYTE   PEND 
// 006   ----------------------------------------
Label_Justice0_0146B0D1:
 BYTE   N18  An2  v060
 BYTE   N18  Dn3
 BYTE   N18  En3
 BYTE   N18  An3
 BYTE   W24
 BYTE   An2
 BYTE   N18  Dn3
 BYTE   N18  En3
 BYTE   N18  An3
 BYTE   W24
 BYTE   N04  An2
 BYTE   N04  Cs3
 BYTE   N04  En3
 BYTE   N04  An3
 BYTE   W07
 BYTE   An2
 BYTE   N04  Cs3
 BYTE   N04  En3
 BYTE   N04  An3
 BYTE   W08
 BYTE   N06  An2
 BYTE   N06  Cs3
 BYTE   N06  En3
 BYTE   N06  An3
 BYTE   W16
 BYTE   N04  An2
 BYTE   N04  Cs3
 BYTE   W08
 BYTE   An2
 BYTE   N04  Cs3
 BYTE   W09
 BYTE   PEND 
 BYTE   PATT
  POIN2 Label_Justice0_0146AFF1
 BYTE   PATT
  POIN2 Label_Justice0_0146AFC5
 BYTE   PATT
  POIN2 Label_Justice0_0146AFF1
 BYTE   PATT
  POIN2 Label_Justice0_0146B029
 BYTE   PATT
  POIN2 Label_Justice0_0146B059
 BYTE   PATT
  POIN2 Label_Justice0_0146AFC5
 BYTE   PATT
  POIN2 Label_Justice0_0146B0C2
 BYTE   PATT
  POIN2 Label_Justice0_0146B0D1
// 007   ----------------------------------------
 BYTE   W96
// 008   ----------------------------------------
 BYTE   W96
// 009   ----------------------------------------
 BYTE   W96
// 010   ----------------------------------------
 BYTE   W96
// 011   ----------------------------------------
 BYTE   W96
// 012   ----------------------------------------
 BYTE   W96
// 013   ----------------------------------------
 BYTE   W96
// 014   ----------------------------------------
 BYTE   W96
// 015   ----------------------------------------
 BYTE   N44  Fs1  v060
 BYTE   N44  Fs2
 BYTE   N92  Cs3
 BYTE   W48
 BYTE   N44  An1
 BYTE   N44  An2
 BYTE   W48
// 016   ----------------------------------------
 BYTE   Bn1
 BYTE   N92  Bn2
 BYTE   N92  Ds3
 BYTE   W48
 BYTE   N44  Ds2
 BYTE   W48
// 017   ----------------------------------------
 BYTE   Dn2
 BYTE   N44  An2
 BYTE   N44  Dn3
 BYTE   W48
 BYTE   En2
 BYTE   N44  Bn2
 BYTE   N44  En3
 BYTE   W48
// 018   ----------------------------------------
 BYTE   N22  Fs2
 BYTE   N92  An2
 BYTE   N92  Cs3
 BYTE   W07
 BYTE   N04  Cs4
 BYTE   W08
 BYTE   Fs4
 BYTE   W09
 BYTE   N22  Dn2
 BYTE   N04  Cs4
 BYTE   W07
 BYTE   Gs4
 BYTE   W08
 BYTE   Cs4
 BYTE   W09
 BYTE   N22  Cs2
 BYTE   N04  An4
 BYTE   W07
 BYTE   Cs4
 BYTE   W09
 BYTE   Bn4
 BYTE   W08
 BYTE   N22  An1
 BYTE   N04  Cs4
 BYTE   W07
 BYTE   Cs5
 BYTE   W08
 BYTE   Cs4
 BYTE   W09
// 019   ----------------------------------------
 BYTE   N44  Fs2
 BYTE   N92  Cs3
 BYTE   W07
 BYTE   N04  Fs0
 BYTE   W07
 BYTE   Gs0
 BYTE   W08
 BYTE   N30  An0
 BYTE   W24
 BYTE   N44  An2
 BYTE   W09
 BYTE   N04  An0
 BYTE   W07
 BYTE   Bn0
 BYTE   W08
 BYTE   N30  Cs1
 BYTE   W24
 BYTE   W02
// 020   ----------------------------------------
 BYTE   N92  Bn2
 BYTE   N92  Ds3
 BYTE   W07
 BYTE   N04  Ds1
 BYTE   W08
 BYTE   En1
 BYTE   W07
 BYTE   N28  Fs1
 BYTE   W32
 BYTE   W01
 BYTE   N04
 BYTE   W08
 BYTE   An1
 BYTE   W07
 BYTE   N24  Bn1
 BYTE   W24
 BYTE   W02
// 021   ----------------------------------------
Label_Justice0_0146B1AF:
 BYTE   N44  Dn1  v060
 BYTE   N44  An2
 BYTE   N44  Dn3
 BYTE   W48
 BYTE   En1
 BYTE   N44  Bn2
 BYTE   N44  En3
 BYTE   W48
 BYTE   PEND 
// 022   ----------------------------------------
 BYTE   Fs1
 BYTE   N92  An2
 BYTE   N92  Cs3
 BYTE   W48
 BYTE   N22  Cs2
 BYTE   W24
 BYTE   An1
 BYTE   W24
// 023   ----------------------------------------
 BYTE   N44  Fs2
 BYTE   N92  Cs3
 BYTE   W07
 BYTE   N04  Fs0
 BYTE   W07
 BYTE   Gs0
 BYTE   W08
 BYTE   N30  An0
 BYTE   W24
 BYTE   W02
 BYTE   N44  An2
 BYTE   W07
 BYTE   N04  An0
 BYTE   W07
 BYTE   Bn0
 BYTE   W08
 BYTE   N30  Cs1
 BYTE   W24
 BYTE   W02
// 024   ----------------------------------------
 BYTE   N92  Bn2
 BYTE   N92  Ds3
 BYTE   W07
 BYTE   N04  Ds1
 BYTE   W08
 BYTE   En1
 BYTE   W07
 BYTE   N30  Fs1
 BYTE   W32
 BYTE   W01
 BYTE   N04
 BYTE   W08
 BYTE   An1
 BYTE   W07
 BYTE   N24  Bn1
 BYTE   W24
 BYTE   W02
 BYTE   PATT
  POIN2 Label_Justice0_0146B1AF
// 025   ----------------------------------------
 BYTE   N03  Fs3  v060
 BYTE   W07
 BYTE   N03
 BYTE   W08
 BYTE   N02
 BYTE   W09
 BYTE   N03
 BYTE   W07
 BYTE   N03
 BYTE   W08
 BYTE   N02
 BYTE   W09
 BYTE   N03
 BYTE   W07
 BYTE   N03
 BYTE   W08
 BYTE   N02
 BYTE   W09
 BYTE   N03
 BYTE   W07
 BYTE   N03
 BYTE   W08
 BYTE   N02
 BYTE   W09
// 026   ----------------------------------------
 BYTE   N03
 BYTE   N03  An3
 BYTE   W07
 BYTE   Fs3
 BYTE   N03  An3
 BYTE   W08
 BYTE   N02  Fs3
 BYTE   N02  An3
 BYTE   W09
 BYTE   N03  Fs3
 BYTE   N03  An3
 BYTE   W07
 BYTE   Fs3
 BYTE   N03  An3
 BYTE   W08
 BYTE   N02  Fs3
 BYTE   N02  An3
 BYTE   W09
 BYTE   N03  Fs3
 BYTE   N03  An3
 BYTE   W07
 BYTE   Fs3
 BYTE   N03  An3
 BYTE   W08
 BYTE   N02  Fs3
 BYTE   N02  An3
 BYTE   W09
 BYTE   N03  Fs3
 BYTE   N03  An3
 BYTE   W07
 BYTE   Fs3
 BYTE   N03  An3
 BYTE   W08
 BYTE   N02  Fs3
 BYTE   N02  An3
 BYTE   W09
// 027   ----------------------------------------
 BYTE   N03  Fs3
 BYTE   N03  An3
 BYTE   W07
 BYTE   Fs3
 BYTE   N03  An3
 BYTE   W08
 BYTE   N02  Fs3
 BYTE   N02  An3
 BYTE   W09
 BYTE   N03  Fs3
 BYTE   N03  An3
 BYTE   W07
 BYTE   Fs3
 BYTE   N03  An3
 BYTE   W08
 BYTE   N02  Fs3
 BYTE   N02  An3
 BYTE   W09
 BYTE   N03  Fs3
 BYTE   N03  An3
 BYTE   N03  Fs4
 BYTE   W07
 BYTE   Fs3
 BYTE   N03  An3
 BYTE   N03  Fs4
 BYTE   W08
 BYTE   N02  Fs3
 BYTE   N02  An3
 BYTE   N02  Fs4
 BYTE   W09
 BYTE   N03  Fs3
 BYTE   N03  An3
 BYTE   N03  Fs4
 BYTE   W07
 BYTE   Fs3
 BYTE   N03  An3
 BYTE   N03  Fs4
 BYTE   W08
 BYTE   N02  Fs3
 BYTE   N02  An3
 BYTE   N02  Fs4
 BYTE   W09
// 028   ----------------------------------------
 BYTE   N04
 BYTE   W07
 BYTE   En4
 BYTE   W08
 BYTE   Fs4
 BYTE   W09
 BYTE   Cs4
 BYTE   W07
 BYTE   En4
 BYTE   W08
 BYTE   An3
 BYTE   W09
 BYTE   N03  Cs4
 BYTE   W07
 BYTE   N04  Gs3
 BYTE   W08
 BYTE   Cs4
 BYTE   W09
 BYTE   Fs3
 BYTE   W07
 BYTE   N06  Cs4
 BYTE   W08
 BYTE   En2
 BYTE   N06  Gs2
 BYTE   N06  Bn2
 BYTE   N06  En3
 BYTE   W09
// 029   ----------------------------------------
 BYTE   N12  Fs2
 BYTE   N12  An2
 BYTE   N12  Cs3
 BYTE   N12  Fs3
 BYTE   W13
 BYTE   GoTo
  POIN2 Label_Justice0_0146AF86
 BYTE   FINE

//**************** Track 2 (Midi-Chn.1) ****************//

Justice_002:
// 000   ----------------------------------------
 BYTE   KEYSH   Justice_key+0
Label_Justice1_0146B2C6:
 BYTE   VOICE   40
 BYTE   PAN   c_v+0
 BYTE   VOL   28*Justice_mvl/mxv
 BYTE   N21  Fn2  v060
 BYTE   N21  An2
 BYTE   N21  Dn3
 BYTE   W24
 BYTE   N04  Fn2
 BYTE   N04  An2
 BYTE   N04  Dn3
 BYTE   W07
 BYTE   Fn2
 BYTE   N04  An2
 BYTE   N04  Dn3
 BYTE   W08
 BYTE   N06  Fn2
 BYTE   N06  An2
 BYTE   N06  Dn3
 BYTE   W09
 BYTE   N21  Fn2
 BYTE   N21  An2
 BYTE   N21  Dn3
 BYTE   W24
 BYTE   N04  Fn2
 BYTE   N04  An2
 BYTE   N04  Dn3
 BYTE   W07
 BYTE   Fn2
 BYTE   N04  An2
 BYTE   N04  Dn3
 BYTE   W08
 BYTE   N06  Fn2
 BYTE   N06  An2
 BYTE   N06  Dn3
 BYTE   W09
// 001   ----------------------------------------
Label_Justice1_0146B303:
 BYTE   N21  Gn2  v060
 BYTE   N21  Bn2
 BYTE   N21  Dn3
 BYTE   N21  Gn3
 BYTE   W24
 BYTE   N04  Bn2
 BYTE   N04  Dn3
 BYTE   N04  Gn3
 BYTE   W07
 BYTE   Bn2
 BYTE   N04  Dn3
 BYTE   N04  Gn3
 BYTE   W08
 BYTE   N06  Bn2
 BYTE   N06  Dn3
 BYTE   N06  Gn3
 BYTE   W09
 BYTE   N21  As2
 BYTE   N21  Dn3
 BYTE   N21  Fn3
 BYTE   W24
 BYTE   Gn2
 BYTE   N21  Cn3
 BYTE   N21  En3
 BYTE   W24
 BYTE   PEND 
// 002   ----------------------------------------
Label_Justice1_0146B32F:
 BYTE   N21  Fn2  v060
 BYTE   N21  An2
 BYTE   N21  Dn3
 BYTE   W24
 BYTE   N04  Fn2
 BYTE   N04  An2
 BYTE   N04  Dn3
 BYTE   W07
 BYTE   Fn2
 BYTE   N04  An2
 BYTE   N04  Dn3
 BYTE   W08
 BYTE   N06  Fn2
 BYTE   N06  An2
 BYTE   N06  Dn3
 BYTE   W09
 BYTE   N21  Fn2
 BYTE   N21  An2
 BYTE   N21  Dn3
 BYTE   W24
 BYTE   N04  Fn2
 BYTE   N04  An2
 BYTE   N04  Dn3
 BYTE   W07
 BYTE   Fn2
 BYTE   N04  An2
 BYTE   N04  Dn3
 BYTE   W08
 BYTE   N06  Fn2
 BYTE   N06  An2
 BYTE   N06  Dn3
 BYTE   W09
 BYTE   PEND 
// 003   ----------------------------------------
Label_Justice1_0146B367:
 BYTE   N21  Gn2  v060
 BYTE   N21  Bn2
 BYTE   N21  Dn3
 BYTE   N21  Gn3
 BYTE   W24
 BYTE   N04  Bn2
 BYTE   N04  Dn3
 BYTE   N04  Gn3
 BYTE   W07
 BYTE   Bn2
 BYTE   N04  Dn3
 BYTE   N04  Gn3
 BYTE   W08
 BYTE   N06  Bn2
 BYTE   N06  Dn3
 BYTE   N06  Gn3
 BYTE   W09
 BYTE   N21  An2
 BYTE   N21  Dn3
 BYTE   N21  Fn3
 BYTE   N21  An3
 BYTE   W24
 BYTE   Gn2
 BYTE   N21  Cn3
 BYTE   N21  En3
 BYTE   N21  Gn3
 BYTE   W24
 BYTE   PEND 
// 004   ----------------------------------------
Label_Justice1_0146B397:
 BYTE   N21  Fn2  v060
 BYTE   N21  An2
 BYTE   N21  Dn3
 BYTE   N21  Fn3
 BYTE   W24
 BYTE   N04  Fn2
 BYTE   N04  An2
 BYTE   N04  Dn3
 BYTE   W07
 BYTE   Fn2
 BYTE   N04  An2
 BYTE   N04  Dn3
 BYTE   W08
 BYTE   N06  Fn2
 BYTE   N06  An2
 BYTE   N06  Dn3
 BYTE   W09
 BYTE   N21  Fn2
 BYTE   N21  An2
 BYTE   N21  Dn3
 BYTE   N21  Fn3
 BYTE   W24
 BYTE   N04  Fn2
 BYTE   N04  An2
 BYTE   N04  Dn3
 BYTE   W07
 BYTE   Fn2
 BYTE   N04  An2
 BYTE   N04  Dn3
 BYTE   W08
 BYTE   N06  Fn2
 BYTE   N06  An2
 BYTE   N06  Dn3
 BYTE   W09
 BYTE   PEND 
 BYTE   PATT
  POIN2 Label_Justice1_0146B303
 BYTE   PATT
  POIN2 Label_Justice1_0146B32F
 BYTE   PATT
  POIN2 Label_Justice1_0146B367
 BYTE   PATT
  POIN2 Label_Justice1_0146B397
 BYTE   PATT
  POIN2 Label_Justice1_0146B303
 BYTE   PATT
  POIN2 Label_Justice1_0146B32F
 BYTE   PATT
  POIN2 Label_Justice1_0146B367
 BYTE   PATT
  POIN2 Label_Justice1_0146B397
 BYTE   PATT
  POIN2 Label_Justice1_0146B303
// 005   ----------------------------------------
Label_Justice1_0146B400:
 BYTE   N36  An2  v060
 BYTE   N36  Dn3
 BYTE   N36  Fn3
 BYTE   W48
 BYTE   Gn2
 BYTE   N36  Dn3
 BYTE   N36  Gn3
 BYTE   W48
 BYTE   PEND 
// 006   ----------------------------------------
Label_Justice1_0146B40F:
 BYTE   N18  An2  v060
 BYTE   N18  Dn3
 BYTE   N18  En3
 BYTE   N18  An3
 BYTE   W24
 BYTE   An2
 BYTE   N18  Dn3
 BYTE   N18  En3
 BYTE   N18  An3
 BYTE   W24
 BYTE   N04  An2
 BYTE   N04  Cs3
 BYTE   N04  En3
 BYTE   N04  An3
 BYTE   W07
 BYTE   An2
 BYTE   N04  Cs3
 BYTE   N04  En3
 BYTE   N04  An3
 BYTE   W08
 BYTE   N06  An2
 BYTE   N06  Cs3
 BYTE   N06  En3
 BYTE   N06  An3
 BYTE   W16
 BYTE   N04  An2
 BYTE   N04  Cs3
 BYTE   W08
 BYTE   An2
 BYTE   N04  Cs3
 BYTE   W09
 BYTE   PEND 
 BYTE   PATT
  POIN2 Label_Justice1_0146B32F
 BYTE   PATT
  POIN2 Label_Justice1_0146B303
 BYTE   PATT
  POIN2 Label_Justice1_0146B32F
 BYTE   PATT
  POIN2 Label_Justice1_0146B367
 BYTE   PATT
  POIN2 Label_Justice1_0146B397
 BYTE   PATT
  POIN2 Label_Justice1_0146B303
 BYTE   PATT
  POIN2 Label_Justice1_0146B400
 BYTE   PATT
  POIN2 Label_Justice1_0146B40F
// 007   ----------------------------------------
 BYTE   W96
// 008   ----------------------------------------
 BYTE   W96
// 009   ----------------------------------------
 BYTE   W96
// 010   ----------------------------------------
 BYTE   W96
// 011   ----------------------------------------
 BYTE   W96
// 012   ----------------------------------------
 BYTE   W96
// 013   ----------------------------------------
 BYTE   W96
// 014   ----------------------------------------
 BYTE   W96
// 015   ----------------------------------------
 BYTE   N44  Fs1  v060
 BYTE   N44  Fs2
 BYTE   N92  Cs3
 BYTE   W48
 BYTE   N44  An1
 BYTE   N44  An2
 BYTE   W48
// 016   ----------------------------------------
 BYTE   Bn1
 BYTE   N92  Bn2
 BYTE   N92  Ds3
 BYTE   W48
 BYTE   N44  Ds2
 BYTE   W48
// 017   ----------------------------------------
 BYTE   Dn2
 BYTE   N44  An2
 BYTE   N44  Dn3
 BYTE   W48
 BYTE   En2
 BYTE   N44  Bn2
 BYTE   N44  En3
 BYTE   W48
// 018   ----------------------------------------
 BYTE   N22  Fs2
 BYTE   N92  An2
 BYTE   N92  Cs3
 BYTE   W07
 BYTE   N04  Cs4
 BYTE   W08
 BYTE   Fs4
 BYTE   W09
 BYTE   N22  Dn2
 BYTE   N04  Cs4
 BYTE   W07
 BYTE   Gs4
 BYTE   W08
 BYTE   Cs4
 BYTE   W09
 BYTE   N22  Cs2
 BYTE   W01
 BYTE   N04  An4
 BYTE   W06
 BYTE   Cs4
 BYTE   W11
 BYTE   Bn4
 BYTE   W06
 BYTE   N22  An1
 BYTE   N04  Cs4
 BYTE   W07
 BYTE   Cs5
 BYTE   W08
 BYTE   Cs4
 BYTE   W09
// 019   ----------------------------------------
 BYTE   N44  Fs2
 BYTE   N92  Cs3
 BYTE   W07
 BYTE   N04  Fs0
 BYTE   W08
 BYTE   Gs0
 BYTE   W07
 BYTE   N30  An0
 BYTE   W24
 BYTE   N44  An2
 BYTE   W09
 BYTE   N04  An0
 BYTE   W08
 BYTE   Bn0
 BYTE   W07
 BYTE   N30  Cs1
 BYTE   W24
 BYTE   W02
// 020   ----------------------------------------
 BYTE   N92  Bn2
 BYTE   N92  Ds3
 BYTE   W07
 BYTE   N04  Ds1
 BYTE   W08
 BYTE   En1
 BYTE   W07
 BYTE   N28  Fs1
 BYTE   W32
 BYTE   W01
 BYTE   N04
 BYTE   W08
 BYTE   An1
 BYTE   W07
 BYTE   N24  Bn1
 BYTE   W24
 BYTE   W02
// 021   ----------------------------------------
Label_Justice1_0146B4EE:
 BYTE   N44  Dn1  v060
 BYTE   N44  An2
 BYTE   N44  Dn3
 BYTE   W48
 BYTE   En1
 BYTE   N44  Bn2
 BYTE   N44  En3
 BYTE   W48
 BYTE   PEND 
// 022   ----------------------------------------
 BYTE   Fs1
 BYTE   N92  An2
 BYTE   N92  Cs3
 BYTE   W48
 BYTE   N22  Cs2
 BYTE   W24
 BYTE   An1
 BYTE   W24
// 023   ----------------------------------------
 BYTE   N44  Fs2
 BYTE   N92  Cs3
 BYTE   W07
 BYTE   N04  Fs0
 BYTE   W08
 BYTE   Gs0
 BYTE   W07
 BYTE   N30  An0
 BYTE   W24
 BYTE   W02
 BYTE   N44  An2
 BYTE   W07
 BYTE   N04  An0
 BYTE   W08
 BYTE   Bn0
 BYTE   W07
 BYTE   N30  Cs1
 BYTE   W24
 BYTE   W02
// 024   ----------------------------------------
 BYTE   N92  Bn2
 BYTE   N92  Ds3
 BYTE   W07
 BYTE   N04  Ds1
 BYTE   W08
 BYTE   En1
 BYTE   W07
 BYTE   N30  Fs1
 BYTE   W32
 BYTE   W01
 BYTE   N04
 BYTE   W08
 BYTE   An1
 BYTE   W07
 BYTE   N24  Bn1
 BYTE   W24
 BYTE   W02
 BYTE   PATT
  POIN2 Label_Justice1_0146B4EE
// 025   ----------------------------------------
 BYTE   N03  Fs3  v060
 BYTE   W07
 BYTE   N03
 BYTE   W08
 BYTE   N02
 BYTE   W09
 BYTE   N03
 BYTE   W07
 BYTE   N03
 BYTE   W08
 BYTE   N02
 BYTE   W09
 BYTE   N03
 BYTE   W07
 BYTE   N03
 BYTE   W08
 BYTE   N02
 BYTE   W09
 BYTE   N03
 BYTE   W07
 BYTE   N03
 BYTE   W08
 BYTE   N02
 BYTE   W09
// 026   ----------------------------------------
 BYTE   N03
 BYTE   N03  An3
 BYTE   W07
 BYTE   Fs3
 BYTE   N03  An3
 BYTE   W08
 BYTE   N02  Fs3
 BYTE   N02  An3
 BYTE   W09
 BYTE   N03  Fs3
 BYTE   N03  An3
 BYTE   W07
 BYTE   Fs3
 BYTE   N03  An3
 BYTE   W08
 BYTE   N02  Fs3
 BYTE   N02  An3
 BYTE   W09
 BYTE   N03  Fs3
 BYTE   N03  An3
 BYTE   W07
 BYTE   Fs3
 BYTE   N03  An3
 BYTE   W08
 BYTE   N02  Fs3
 BYTE   N02  An3
 BYTE   W09
 BYTE   N03  Fs3
 BYTE   N03  An3
 BYTE   W07
 BYTE   Fs3
 BYTE   N03  An3
 BYTE   W08
 BYTE   N02  Fs3
 BYTE   N02  An3
 BYTE   W09
// 027   ----------------------------------------
 BYTE   N03  Fs3
 BYTE   N03  An3
 BYTE   W07
 BYTE   Fs3
 BYTE   N03  An3
 BYTE   W08
 BYTE   N02  Fs3
 BYTE   N02  An3
 BYTE   W09
 BYTE   N03  Fs3
 BYTE   N03  An3
 BYTE   W07
 BYTE   Fs3
 BYTE   N03  An3
 BYTE   W08
 BYTE   N02  Fs3
 BYTE   N02  An3
 BYTE   W09
 BYTE   N03  Fs3
 BYTE   N03  An3
 BYTE   N03  Fs4
 BYTE   W07
 BYTE   Fs3
 BYTE   N03  An3
 BYTE   N03  Fs4
 BYTE   W08
 BYTE   N02  Fs3
 BYTE   N02  An3
 BYTE   N02  Fs4
 BYTE   W09
 BYTE   N03  Fs3
 BYTE   N03  An3
 BYTE   N03  Fs4
 BYTE   W07
 BYTE   Fs3
 BYTE   N03  An3
 BYTE   N03  Fs4
 BYTE   W08
 BYTE   N02  Fs3
 BYTE   N02  An3
 BYTE   N02  Fs4
 BYTE   W09
// 028   ----------------------------------------
 BYTE   N04
 BYTE   W07
 BYTE   En4
 BYTE   W08
 BYTE   Fs4
 BYTE   W09
 BYTE   Cs4
 BYTE   W07
 BYTE   En4
 BYTE   W08
 BYTE   An3
 BYTE   W09
 BYTE   Cs4
 BYTE   W07
 BYTE   Gs3
 BYTE   W08
 BYTE   Cs4
 BYTE   W09
 BYTE   Fs3
 BYTE   W07
 BYTE   N06  Cs4
 BYTE   W08
 BYTE   En2
 BYTE   N06  Gs2
 BYTE   N06  Bn2
 BYTE   N06  En3
 BYTE   W09
// 029   ----------------------------------------
 BYTE   N12  Fs2
 BYTE   N12  An2
 BYTE   N12  Cs3
 BYTE   N12  Fs3
 BYTE   W13
 BYTE   GoTo
  POIN2 Label_Justice1_0146B2C6
 BYTE   FINE

//**************** Track 3 (Midi-Chn.2) ****************//

Justice_003:
// 000   ----------------------------------------
 BYTE   KEYSH   Justice_key+0
Label_Justice2_0146B602:
 BYTE   VOICE   48
 BYTE   PAN   c_v+0
 BYTE   VOL   60*Justice_mvl/mxv
 BYTE   N22  Dn1  v060
 BYTE   W48
 BYTE   N22
 BYTE   W48
// 001   ----------------------------------------
Label_Justice2_0146B60E:
 BYTE   N22  Gn1  v060
 BYTE   W48
 BYTE   As1
 BYTE   W24
 BYTE   Gn1
 BYTE   W24
 BYTE   PEND 
// 002   ----------------------------------------
Label_Justice2_0146B617:
 BYTE   N22  Dn1  v060
 BYTE   W48
 BYTE   N22
 BYTE   W48
 BYTE   PEND 
// 003   ----------------------------------------
Label_Justice2_0146B61E:
 BYTE   N22  Gn1  v060
 BYTE   W48
 BYTE   An1
 BYTE   W24
 BYTE   Gn1
 BYTE   W24
 BYTE   PEND 
 BYTE   PATT
  POIN2 Label_Justice2_0146B617
 BYTE   PATT
  POIN2 Label_Justice2_0146B60E
 BYTE   PATT
  POIN2 Label_Justice2_0146B617
 BYTE   PATT
  POIN2 Label_Justice2_0146B61E
 BYTE   PATT
  POIN2 Label_Justice2_0146B617
 BYTE   PATT
  POIN2 Label_Justice2_0146B60E
 BYTE   PATT
  POIN2 Label_Justice2_0146B617
 BYTE   PATT
  POIN2 Label_Justice2_0146B61E
 BYTE   PATT
  POIN2 Label_Justice2_0146B617
 BYTE   PATT
  POIN2 Label_Justice2_0146B60E
// 004   ----------------------------------------
 BYTE   N21  Dn1  v060
 BYTE   W24
 BYTE   Cn1
 BYTE   W24
 BYTE   Bn0
 BYTE   W24
 BYTE   As0
 BYTE   W24
// 005   ----------------------------------------
 BYTE   N92  An0
 BYTE   W96
 BYTE   PATT
  POIN2 Label_Justice2_0146B617
 BYTE   PATT
  POIN2 Label_Justice2_0146B60E
 BYTE   PATT
  POIN2 Label_Justice2_0146B617
 BYTE   PATT
  POIN2 Label_Justice2_0146B61E
 BYTE   PATT
  POIN2 Label_Justice2_0146B617
 BYTE   PATT
  POIN2 Label_Justice2_0146B60E
// 006   ----------------------------------------
 BYTE   N19  Dn1  v060
 BYTE   W24
 BYTE   Cn1
 BYTE   W24
 BYTE   Bn0
 BYTE   W24
 BYTE   As0
 BYTE   W24
// 007   ----------------------------------------
 BYTE   N92  An0
 BYTE   W96
// 008   ----------------------------------------
Label_Justice2_0146B691:
 BYTE   W24
 BYTE   N04  Fs1  v060
 BYTE   W24
 BYTE   N04
 BYTE   W07
 BYTE   N04
 BYTE   W08
 BYTE   N04
 BYTE   W32
 BYTE   W01
 BYTE   PEND 
// 009   ----------------------------------------
 BYTE   Bn0
 BYTE   W24
 BYTE   N04
 BYTE   W36
 BYTE   N04
 BYTE   W07
 BYTE   N04
 BYTE   W08
 BYTE   N04
 BYTE   W21
// 010   ----------------------------------------
Label_Justice2_0146B6A8:
 BYTE   W22
 BYTE   N04  Dn1  v060
 BYTE   W08
 BYTE   N04
 BYTE   W07
 BYTE   N04
 BYTE   W28
 BYTE   W01
 BYTE   En1
 BYTE   W07
 BYTE   N04
 BYTE   W08
 BYTE   N04
 BYTE   W15
 BYTE   PEND 
// 011   ----------------------------------------
 BYTE   W24
 BYTE   N06  Fs1
 BYTE   W24
 BYTE   N06
 BYTE   W24
 BYTE   N04  En1
 BYTE   W07
 BYTE   N04
 BYTE   W08
 BYTE   N06
 BYTE   W09
 BYTE   PATT
  POIN2 Label_Justice2_0146B691
// 012   ----------------------------------------
 BYTE   W24
 BYTE   N04  Bn0  v060
 BYTE   W36
 BYTE   N04
 BYTE   W07
 BYTE   N04
 BYTE   W08
 BYTE   N04
 BYTE   W21
 BYTE   PATT
  POIN2 Label_Justice2_0146B6A8
// 013   ----------------------------------------
 BYTE   W24
 BYTE   N06  Fs1  v060
 BYTE   W24
 BYTE   N06
 BYTE   W24
 BYTE   N04  En1
 BYTE   W07
 BYTE   N04
 BYTE   W08
 BYTE   N06
 BYTE   W07
 BYTE   VOL   60*Justice_mvl/mxv
 BYTE   W02
// 014   ----------------------------------------
 BYTE   N44  Fs0
 BYTE   W48
 BYTE   An0
 BYTE   W48
// 015   ----------------------------------------
 BYTE   Bn0
 BYTE   W48
 BYTE   Ds1
 BYTE   W48
// 016   ----------------------------------------
Label_Justice2_0146B6F5:
 BYTE   N44  Dn1  v060
 BYTE   W48
 BYTE   En1
 BYTE   W48
 BYTE   PEND 
// 017   ----------------------------------------
 BYTE   N22  Fs1
 BYTE   W24
 BYTE   Dn1
 BYTE   W24
 BYTE   Cs1
 BYTE   W24
 BYTE   An0
 BYTE   W24
// 018   ----------------------------------------
Label_Justice2_0146B705:
 BYTE   W07
 BYTE   N04  Fs0  v060
 BYTE   W08
 BYTE   Gs0
 BYTE   W07
 BYTE   N30  An0
 BYTE   W32
 BYTE   W01
 BYTE   N04
 BYTE   W08
 BYTE   Bn0
 BYTE   W07
 BYTE   N30  Cs1
 BYTE   W24
 BYTE   W02
 BYTE   PEND 
// 019   ----------------------------------------
Label_Justice2_0146B719:
 BYTE   W07
 BYTE   N04  Ds1  v060
 BYTE   W08
 BYTE   En1
 BYTE   W07
 BYTE   N30  Fs1
 BYTE   W32
 BYTE   W01
 BYTE   N04
 BYTE   W08
 BYTE   An1
 BYTE   W07
 BYTE   N24  Bn1
 BYTE   W24
 BYTE   W02
 BYTE   PEND 
 BYTE   PATT
  POIN2 Label_Justice2_0146B6F5
// 020   ----------------------------------------
 BYTE   N44  Fs1  v060
 BYTE   W48
 BYTE   N22  Cs1
 BYTE   W24
 BYTE   An0
 BYTE   W24
 BYTE   PATT
  POIN2 Label_Justice2_0146B705
 BYTE   PATT
  POIN2 Label_Justice2_0146B719
 BYTE   PATT
  POIN2 Label_Justice2_0146B6F5
// 021   ----------------------------------------
 BYTE   W01
 BYTE   VOL   56*Justice_mvl/mxv
 BYTE   W44
 BYTE   W03
 BYTE   N44  Dn0  v060
 BYTE   W48
// 022   ----------------------------------------
 BYTE   N92  En0
 BYTE   W96
// 023   ----------------------------------------
 BYTE   N96  Fs0
 BYTE   W96
// 024   ----------------------------------------
 BYTE   W88
 BYTE   N06  En0
 BYTE   N06  En1
 BYTE   W08
// 025   ----------------------------------------
 BYTE   N12  Fs0
 BYTE   N12  Fs1
 BYTE   W13
 BYTE   GoTo
  POIN2 Label_Justice2_0146B602
 BYTE   FINE

//**************** Track 4 (Midi-Chn.3) ****************//

Justice_004:
// 000   ----------------------------------------
 BYTE   KEYSH   Justice_key+0
Label_Justice3_0146B76E:
 BYTE   VOICE   48
 BYTE   PAN   c_v+0
 BYTE   VOL   56*Justice_mvl/mxv
 BYTE   W96
// 001   ----------------------------------------
 BYTE   W96
// 002   ----------------------------------------
 BYTE   W96
// 003   ----------------------------------------
 BYTE   W96
// 004   ----------------------------------------
 BYTE   W96
// 005   ----------------------------------------
 BYTE   W96
// 006   ----------------------------------------
 BYTE   W96
// 007   ----------------------------------------
 BYTE   W96
// 008   ----------------------------------------
 BYTE   W96
// 009   ----------------------------------------
 BYTE   W96
// 010   ----------------------------------------
 BYTE   W96
// 011   ----------------------------------------
 BYTE   W96
// 012   ----------------------------------------
 BYTE   W96
// 013   ----------------------------------------
 BYTE   W96
// 014   ----------------------------------------
 BYTE   W96
// 015   ----------------------------------------
 BYTE   W96
// 016   ----------------------------------------
 BYTE   N68  Dn4  v060
 BYTE   W72
 BYTE   N04  Fn4
 BYTE   W16
 BYTE   N06
 BYTE   W08
// 017   ----------------------------------------
 BYTE   N68  Dn4
 BYTE   W72
 BYTE   N04  An3
 BYTE   W07
 BYTE   N03
 BYTE   W08
 BYTE   N04
 BYTE   W09
// 018   ----------------------------------------
 BYTE   N66  Dn4
 BYTE   W72
 BYTE   N04  Fn4
 BYTE   W07
 BYTE   Dn4
 BYTE   W08
 BYTE   Fn4
 BYTE   W09
// 019   ----------------------------------------
 BYTE   N90  Gn4
 BYTE   W96
// 020   ----------------------------------------
 BYTE   N42  An4
 BYTE   W48
 BYTE   N22  Dn4
 BYTE   W24
 BYTE   An4
 BYTE   W24
// 021   ----------------------------------------
 BYTE   N04  Gn4
 BYTE   W07
 BYTE   Fn4
 BYTE   W08
 BYTE   N06  En4
 BYTE   W09
 BYTE   N52  Dn4
 BYTE   W54
 BYTE   W01
 BYTE   N04
 BYTE   W08
 BYTE   N06  En4
 BYTE   W09
// 022   ----------------------------------------
 BYTE   N30  Fn4
 BYTE   W30
 BYTE   W01
 BYTE   N04  En4
 BYTE   W08
 BYTE   Dn4
 BYTE   W07
 BYTE   N32  Gn4
 BYTE   W32
 BYTE   W03
 BYTE   N04  Fn4
 BYTE   W07
 BYTE   En4
 BYTE   W08
// 023   ----------------------------------------
 BYTE   N92  An4
 BYTE   W96
// 024   ----------------------------------------
 BYTE   W96
// 025   ----------------------------------------
 BYTE   W96
// 026   ----------------------------------------
 BYTE   W96
// 027   ----------------------------------------
 BYTE   W48
 BYTE   N24  An3
 BYTE   W24
 BYTE   Cs4
 BYTE   W24
// 028   ----------------------------------------
 BYTE   TIE  Fs4
 BYTE   W96
// 029   ----------------------------------------
 BYTE   W96
// 030   ----------------------------------------
 BYTE   W96
// 031   ----------------------------------------
 BYTE   W24
 BYTE   EOT
 BYTE   N24  Cs4
 BYTE   W24
 BYTE   An3
 BYTE   W24
 BYTE   Gs3
 BYTE   W24
// 032   ----------------------------------------
 BYTE   N66  Fs3
 BYTE   W96
// 033   ----------------------------------------
 BYTE   W96
// 034   ----------------------------------------
 BYTE   W96
// 035   ----------------------------------------
 BYTE   W96
// 036   ----------------------------------------
Label_Justice3_0146B7EF:
 BYTE   N66  Fs4  v060
 BYTE   W72
 BYTE   N04
 BYTE   W07
 BYTE   En4
 BYTE   W08
 BYTE   Fs4
 BYTE   W09
 BYTE   PEND 
// 037   ----------------------------------------
Label_Justice3_0146B7FA:
 BYTE   N21  Bn4  v060
 BYTE   W24
 BYTE   N22  An4
 BYTE   W24
 BYTE   N44  Fs4
 BYTE   W48
 BYTE   PEND 
// 038   ----------------------------------------
Label_Justice3_0146B805:
 BYTE   N21  An4  v060
 BYTE   W24
 BYTE   Gs4
 BYTE   W24
 BYTE   Fs4
 BYTE   W24
 BYTE   En4
 BYTE   W24
 BYTE   PEND 
// 039   ----------------------------------------
 BYTE   N92  An3
 BYTE   N92  Cs4
 BYTE   N92  Fs4
 BYTE   W96
 BYTE   PATT
  POIN2 Label_Justice3_0146B7EF
 BYTE   PATT
  POIN2 Label_Justice3_0146B7FA
 BYTE   PATT
  POIN2 Label_Justice3_0146B805
// 040   ----------------------------------------
 BYTE   W96
// 041   ----------------------------------------
 BYTE   W96
// 042   ----------------------------------------
 BYTE   W96
// 043   ----------------------------------------
 BYTE   W88
 BYTE   N06  En3  v060
 BYTE   W08
// 044   ----------------------------------------
 BYTE   W01
 BYTE   N12  Fs3
 BYTE   W12
 BYTE   GoTo
  POIN2 Label_Justice3_0146B76E
 BYTE   FINE

//**************** Track 5 (Midi-Chn.4) ****************//

Justice_005:
// 000   ----------------------------------------
 BYTE   KEYSH   Justice_key+0
Label_Justice4_0146B83A:
 BYTE   VOICE   48
 BYTE   PAN   c_v+0
 BYTE   VOL   57*Justice_mvl/mxv
 BYTE   W96
// 001   ----------------------------------------
 BYTE   W96
// 002   ----------------------------------------
 BYTE   W96
// 003   ----------------------------------------
 BYTE   W96
// 004   ----------------------------------------
 BYTE   W96
// 005   ----------------------------------------
 BYTE   W96
// 006   ----------------------------------------
 BYTE   W96
// 007   ----------------------------------------
 BYTE   W96
// 008   ----------------------------------------
 BYTE   W96
// 009   ----------------------------------------
 BYTE   W96
// 010   ----------------------------------------
 BYTE   W96
// 011   ----------------------------------------
 BYTE   W96
// 012   ----------------------------------------
 BYTE   W96
// 013   ----------------------------------------
 BYTE   W96
// 014   ----------------------------------------
 BYTE   W96
// 015   ----------------------------------------
 BYTE   W96
// 016   ----------------------------------------
 BYTE   W96
// 017   ----------------------------------------
 BYTE   W96
// 018   ----------------------------------------
 BYTE   W96
// 019   ----------------------------------------
 BYTE   W96
// 020   ----------------------------------------
 BYTE   W96
// 021   ----------------------------------------
 BYTE   W96
// 022   ----------------------------------------
 BYTE   W96
// 023   ----------------------------------------
 BYTE   W96
// 024   ----------------------------------------
 BYTE   W96
// 025   ----------------------------------------
 BYTE   W96
// 026   ----------------------------------------
 BYTE   W96
// 027   ----------------------------------------
 BYTE   W96
// 028   ----------------------------------------
 BYTE   W96
// 029   ----------------------------------------
 BYTE   W96
// 030   ----------------------------------------
 BYTE   W96
// 031   ----------------------------------------
 BYTE   W96
// 032   ----------------------------------------
 BYTE   W96
// 033   ----------------------------------------
 BYTE   W96
// 034   ----------------------------------------
 BYTE   W96
// 035   ----------------------------------------
 BYTE   Dn2
 BYTE   W07
 BYTE   Dn2
 BYTE   N04  Cs3  v060
 BYTE   N04  Cs4
 BYTE   W06
 BYTE   VOL   51*Justice_mvl/mxv
 BYTE   W02
 BYTE   N04  Fs3
 BYTE   N04  Fs4
 BYTE   W04
 BYTE   VOL   51*Justice_mvl/mxv
 BYTE   W05
 BYTE   N04  Cs3
 BYTE   N04  Cs4
 BYTE   W01
 BYTE   VOL   51*Justice_mvl/mxv
 BYTE   W06
 BYTE   En2
 BYTE   N04  Gs3
 BYTE   N04  Gs4
 BYTE   W06
 BYTE   VOL   52*Justice_mvl/mxv
 BYTE   W02
 BYTE   N04  Cs3
 BYTE   N04  Cs4
 BYTE   W04
 BYTE   VOL   53*Justice_mvl/mxv
 BYTE   W05
 BYTE   N04  An3
 BYTE   N04  An4
 BYTE   W03
 BYTE   VOL   53*Justice_mvl/mxv
 BYTE   W04
 BYTE   N04  Cs3
 BYTE   N04  Cs4
 BYTE   W02
 BYTE   VOL   54*Justice_mvl/mxv
 BYTE   W06
 BYTE   Fs2
 BYTE   W01
 BYTE   N04  Bn3
 BYTE   N04  Bn4
 BYTE   W05
 BYTE   VOL   55*Justice_mvl/mxv
 BYTE   W03
 BYTE   N04  Cs3
 BYTE   N04  Cs4
 BYTE   W03
 BYTE   VOL   55*Justice_mvl/mxv
 BYTE   W04
 BYTE   N04
 BYTE   N04  Cs5
 BYTE   W02
 BYTE   VOL   56*Justice_mvl/mxv
 BYTE   W06
 BYTE   Gs2
 BYTE   N04  Cs3
 BYTE   N04  Cs4
 BYTE   W06
 BYTE   VOL   57*Justice_mvl/mxv
 BYTE   W01
 BYTE   Dn2
 BYTE   W02
// 036   ----------------------------------------
 BYTE   W96
// 037   ----------------------------------------
 BYTE   W96
// 038   ----------------------------------------
 BYTE   W96
// 039   ----------------------------------------
 BYTE   W96
// 040   ----------------------------------------
 BYTE   W96
// 041   ----------------------------------------
 BYTE   W96
// 042   ----------------------------------------
 BYTE   W96
// 043   ----------------------------------------
 BYTE   W96
// 044   ----------------------------------------
 BYTE   W96
// 045   ----------------------------------------
 BYTE   N03
 BYTE   W07
 BYTE   N03
 BYTE   W08
 BYTE   N02
 BYTE   W09
 BYTE   N03
 BYTE   W07
 BYTE   N03
 BYTE   W08
 BYTE   N02
 BYTE   W09
 BYTE   N03
 BYTE   W07
 BYTE   N03
 BYTE   W08
 BYTE   N02
 BYTE   W09
 BYTE   N03
 BYTE   W07
 BYTE   N03
 BYTE   W08
 BYTE   N02
 BYTE   W09
// 046   ----------------------------------------
 BYTE   N04  Fs4
 BYTE   W07
 BYTE   En4
 BYTE   W08
 BYTE   Fs4
 BYTE   W09
 BYTE   Cs4
 BYTE   W07
 BYTE   En4
 BYTE   W08
 BYTE   An3
 BYTE   W09
 BYTE   N03  Cs4
 BYTE   W07
 BYTE   N04  Gs3
 BYTE   W08
 BYTE   Cs4
 BYTE   W09
 BYTE   Fs3
 BYTE   W07
 BYTE   N06  Cs4
 BYTE   W17
// 047   ----------------------------------------
 BYTE   W13
 BYTE   GoTo
  POIN2 Label_Justice4_0146B83A
 BYTE   FINE

//**************** Track 6 (Midi-Chn.5) ****************//

Justice_006:
// 000   ----------------------------------------
 BYTE   KEYSH   Justice_key+0
Label_Justice5_0146B90A:
 BYTE   VOICE   56
 BYTE   PAN   c_v+0
 BYTE   VOL   52*Justice_mvl/mxv
 BYTE   W96
// 001   ----------------------------------------
 BYTE   W96
// 002   ----------------------------------------
 BYTE   W96
// 003   ----------------------------------------
 BYTE   W96
// 004   ----------------------------------------
 BYTE   W96
// 005   ----------------------------------------
 BYTE   W96
// 006   ----------------------------------------
 BYTE   W96
// 007   ----------------------------------------
 BYTE   W84
 BYTE   W03
 BYTE   N06  An3  v060
 BYTE   W09
// 008   ----------------------------------------
 BYTE   N68  Dn4
 BYTE   W72
 BYTE   N04  Fn4
 BYTE   W16
 BYTE   N06
 BYTE   W08
// 009   ----------------------------------------
 BYTE   N68  Dn4
 BYTE   W72
 BYTE   N04  An3
 BYTE   W07
 BYTE   N03
 BYTE   W08
 BYTE   N04
 BYTE   W09
// 010   ----------------------------------------
 BYTE   N66  Dn4
 BYTE   W72
 BYTE   N04  Fn4
 BYTE   W07
 BYTE   Dn4
 BYTE   W08
 BYTE   Fn4
 BYTE   W09
// 011   ----------------------------------------
 BYTE   N90  Gn4
 BYTE   W96
// 012   ----------------------------------------
 BYTE   N42  An4
 BYTE   W48
 BYTE   N22  Dn4
 BYTE   W24
 BYTE   An4
 BYTE   W24
// 013   ----------------------------------------
 BYTE   N04  Gn4
 BYTE   W07
 BYTE   Fn4
 BYTE   W08
 BYTE   N06  En4
 BYTE   W09
 BYTE   N48  Dn4
 BYTE   W54
 BYTE   W01
 BYTE   N04
 BYTE   W08
 BYTE   N06  En4
 BYTE   W09
// 014   ----------------------------------------
 BYTE   N30  Fn4
 BYTE   W30
 BYTE   W01
 BYTE   N04  En4
 BYTE   W08
 BYTE   Dn4
 BYTE   W07
 BYTE   N32  Gn4
 BYTE   W32
 BYTE   W03
 BYTE   N04  Fn4
 BYTE   W07
 BYTE   En4
 BYTE   W08
// 015   ----------------------------------------
 BYTE   N92  An4
 BYTE   W96
// 016   ----------------------------------------
 BYTE   W96
// 017   ----------------------------------------
 BYTE   W96
// 018   ----------------------------------------
 BYTE   W96
// 019   ----------------------------------------
 BYTE   W96
// 020   ----------------------------------------
 BYTE   W96
// 021   ----------------------------------------
 BYTE   W96
// 022   ----------------------------------------
 BYTE   W96
// 023   ----------------------------------------
 BYTE   W96
// 024   ----------------------------------------
 BYTE   W96
// 025   ----------------------------------------
 BYTE   W96
// 026   ----------------------------------------
 BYTE   W96
// 027   ----------------------------------------
 BYTE   W96
// 028   ----------------------------------------
 BYTE   W96
// 029   ----------------------------------------
 BYTE   W96
// 030   ----------------------------------------
 BYTE   W96
// 031   ----------------------------------------
 BYTE   W96
// 032   ----------------------------------------
 BYTE   N66  Fs4
 BYTE   W72
 BYTE   N04
 BYTE   W07
 BYTE   En4
 BYTE   W08
 BYTE   Fs4
 BYTE   W09
// 033   ----------------------------------------
 BYTE   N44  An4
 BYTE   W48
 BYTE   Fs4
 BYTE   W48
// 034   ----------------------------------------
 BYTE   N21  An4
 BYTE   W24
 BYTE   Gs4
 BYTE   W24
 BYTE   Fs4
 BYTE   W24
 BYTE   En4
 BYTE   W24
// 035   ----------------------------------------
 BYTE   N92  Cs4
 BYTE   W96
// 036   ----------------------------------------
 BYTE   W96
// 037   ----------------------------------------
 BYTE   W96
// 038   ----------------------------------------
 BYTE   W96
// 039   ----------------------------------------
 BYTE   W96
// 040   ----------------------------------------
 BYTE   N66  Fs4
 BYTE   W96
// 041   ----------------------------------------
 BYTE   W96
// 042   ----------------------------------------
 BYTE   W96
// 043   ----------------------------------------
 BYTE   W96
// 044   ----------------------------------------
 BYTE   W96
// 045   ----------------------------------------
 BYTE   W96
// 046   ----------------------------------------
 BYTE   W88
 BYTE   N06  En3
 BYTE   W08
// 047   ----------------------------------------
 BYTE   N12  Fs3
 BYTE   W13
 BYTE   GoTo
  POIN2 Label_Justice5_0146B90A
 BYTE   FINE

//**************** Track 7 (Midi-Chn.6) ****************//

Justice_007:
// 000   ----------------------------------------
 BYTE   KEYSH   Justice_key+0
Label_Justice6_0146B9B2:
 BYTE   VOICE   57
 BYTE   PAN   c_v+0
 BYTE   VOL   60*Justice_mvl/mxv
 BYTE   W96
// 001   ----------------------------------------
 BYTE   W96
// 002   ----------------------------------------
 BYTE   W96
// 003   ----------------------------------------
 BYTE   W96
// 004   ----------------------------------------
 BYTE   W96
// 005   ----------------------------------------
 BYTE   W96
// 006   ----------------------------------------
 BYTE   W96
// 007   ----------------------------------------
 BYTE   W96
// 008   ----------------------------------------
 BYTE   W96
// 009   ----------------------------------------
 BYTE   W96
// 010   ----------------------------------------
 BYTE   W96
// 011   ----------------------------------------
 BYTE   W96
// 012   ----------------------------------------
 BYTE   W96
// 013   ----------------------------------------
 BYTE   W96
// 014   ----------------------------------------
 BYTE   W96
// 015   ----------------------------------------
 BYTE   W96
// 016   ----------------------------------------
 BYTE   N68  Dn3  v060
 BYTE   W72
 BYTE   N04  Fn3
 BYTE   W16
 BYTE   N04
 BYTE   W08
// 017   ----------------------------------------
 BYTE   N68  Dn3
 BYTE   W72
 BYTE   N04  An2
 BYTE   W07
 BYTE   N03
 BYTE   W08
 BYTE   N04
 BYTE   W09
// 018   ----------------------------------------
 BYTE   N66  Dn3
 BYTE   W72
 BYTE   N04  Fn3
 BYTE   W07
 BYTE   Dn3
 BYTE   W08
 BYTE   Fn3
 BYTE   W09
// 019   ----------------------------------------
 BYTE   N90  Gn3
 BYTE   W96
// 020   ----------------------------------------
 BYTE   N42  An3
 BYTE   W48
 BYTE   N22  Dn3
 BYTE   W24
 BYTE   An3
 BYTE   W24
// 021   ----------------------------------------
 BYTE   N04  Gn3
 BYTE   W07
 BYTE   Fn3
 BYTE   W08
 BYTE   En3
 BYTE   W09
 BYTE   N48  Dn3
 BYTE   W54
 BYTE   W01
 BYTE   N04
 BYTE   W08
 BYTE   En3
 BYTE   W09
// 022   ----------------------------------------
 BYTE   N30  Fn3
 BYTE   W30
 BYTE   N04  En3
 BYTE   W07
 BYTE   Dn3
 BYTE   W09
 BYTE   N30  Gn3
 BYTE   W32
 BYTE   W01
 BYTE   N04  Fn3
 BYTE   W08
 BYTE   En3
 BYTE   W09
// 023   ----------------------------------------
 BYTE   N92  An3
 BYTE   W96
// 024   ----------------------------------------
 BYTE   W96
// 025   ----------------------------------------
 BYTE   W96
// 026   ----------------------------------------
 BYTE   W96
// 027   ----------------------------------------
 BYTE   W96
// 028   ----------------------------------------
 BYTE   W96
// 029   ----------------------------------------
 BYTE   W96
// 030   ----------------------------------------
 BYTE   W96
// 031   ----------------------------------------
 BYTE   W96
// 032   ----------------------------------------
 BYTE   W96
// 033   ----------------------------------------
 BYTE   W96
// 034   ----------------------------------------
 BYTE   W96
// 035   ----------------------------------------
 BYTE   W96
// 036   ----------------------------------------
Label_Justice6_0146BA1F:
 BYTE   W07
 BYTE   N04  Fs1  v060
 BYTE   W08
 BYTE   Gs1
 BYTE   W07
 BYTE   N30  An1
 BYTE   W32
 BYTE   W01
 BYTE   N04
 BYTE   W08
 BYTE   Bn1
 BYTE   W07
 BYTE   N30  Cs2
 BYTE   W24
 BYTE   W02
 BYTE   PEND 
// 037   ----------------------------------------
Label_Justice6_0146BA33:
 BYTE   W07
 BYTE   N04  Ds2  v060
 BYTE   W08
 BYTE   En2
 BYTE   W07
 BYTE   N30  Fs2
 BYTE   W32
 BYTE   W01
 BYTE   N04
 BYTE   W08
 BYTE   An2
 BYTE   W07
 BYTE   N24  Bn2
 BYTE   W24
 BYTE   W02
 BYTE   PEND 
// 038   ----------------------------------------
Label_Justice6_0146BA47:
 BYTE   N21  An2  v060
 BYTE   N21  Cs3
 BYTE   W24
 BYTE   Gs2
 BYTE   N21  Bn2
 BYTE   W24
 BYTE   Fs2
 BYTE   N21  An2
 BYTE   W24
 BYTE   En2
 BYTE   N21  Gs2
 BYTE   W24
 BYTE   PEND 
// 039   ----------------------------------------
 BYTE   N92  Fs2
 BYTE   W48
 BYTE   N22  Cs2
 BYTE   W24
 BYTE   An1
 BYTE   W24
 BYTE   PATT
  POIN2 Label_Justice6_0146BA1F
 BYTE   PATT
  POIN2 Label_Justice6_0146BA33
 BYTE   PATT
  POIN2 Label_Justice6_0146BA47
// 040   ----------------------------------------
 BYTE   W96
// 041   ----------------------------------------
 BYTE   W96
// 042   ----------------------------------------
 BYTE   W96
// 043   ----------------------------------------
 BYTE   W96
// 044   ----------------------------------------
 BYTE   W13
 BYTE   GoTo
  POIN2 Label_Justice6_0146B9B2
 BYTE   FINE

//**************** Track 8 (Midi-Chn.7) ****************//

Justice_008:
// 000   ----------------------------------------
 BYTE   KEYSH   Justice_key+0
Label_Justice7_0146BA7E:
 BYTE   VOICE   56
 BYTE   PAN   c_v+0
 BYTE   VOL   59*Justice_mvl/mxv
 BYTE   W96
// 001   ----------------------------------------
 BYTE   W96
// 002   ----------------------------------------
 BYTE   W96
// 003   ----------------------------------------
 BYTE   W96
// 004   ----------------------------------------
 BYTE   W96
// 005   ----------------------------------------
 BYTE   W96
// 006   ----------------------------------------
 BYTE   W96
// 007   ----------------------------------------
 BYTE   W96
// 008   ----------------------------------------
 BYTE   W96
// 009   ----------------------------------------
 BYTE   W96
// 010   ----------------------------------------
 BYTE   W96
// 011   ----------------------------------------
 BYTE   W96
// 012   ----------------------------------------
 BYTE   W96
// 013   ----------------------------------------
 BYTE   W96
// 014   ----------------------------------------
 BYTE   W96
// 015   ----------------------------------------
 BYTE   N18  En3  v060
 BYTE   W24
 BYTE   N18
 BYTE   W24
 BYTE   N04
 BYTE   W07
 BYTE   N04
 BYTE   W08
 BYTE   N06
 BYTE   W16
 BYTE   N04
 BYTE   W07
 BYTE   N04
 BYTE   W10
// 016   ----------------------------------------
 BYTE   W96
// 017   ----------------------------------------
 BYTE   W96
// 018   ----------------------------------------
 BYTE   W96
// 019   ----------------------------------------
 BYTE   W96
// 020   ----------------------------------------
 BYTE   W96
// 021   ----------------------------------------
 BYTE   W96
// 022   ----------------------------------------
 BYTE   W96
// 023   ----------------------------------------
 BYTE   N18
 BYTE   W24
 BYTE   N18
 BYTE   W24
 BYTE   N04
 BYTE   W07
 BYTE   N04
 BYTE   W08
 BYTE   N06
 BYTE   W16
 BYTE   N04
 BYTE   W08
 BYTE   N04
 BYTE   W09
// 024   ----------------------------------------
Label_Justice7_0146BAB8:
 BYTE   W24
 BYTE   N06  Cs3  v060
 BYTE   W24
 BYTE   N04
 BYTE   W07
 BYTE   N04
 BYTE   W08
 BYTE   N06
 BYTE   W32
 BYTE   W01
 BYTE   PEND 
// 025   ----------------------------------------
 BYTE   Ds3
 BYTE   W24
 BYTE   N06
 BYTE   W36
 BYTE   N04
 BYTE   W07
 BYTE   N04
 BYTE   W08
 BYTE   N06
 BYTE   W21
// 026   ----------------------------------------
 BYTE   W24
 BYTE   N04  En3
 BYTE   W07
 BYTE   N04
 BYTE   W08
 BYTE   N06
 BYTE   W21
 BYTE   N04
 BYTE   W07
 BYTE   N04
 BYTE   W08
 BYTE   N06
 BYTE   W21
// 027   ----------------------------------------
Label_Justice7_0146BADD:
 BYTE   W24
 BYTE   N06  Fs3  v060
 BYTE   W24
 BYTE   N06
 BYTE   W24
 BYTE   N04  En3
 BYTE   W07
 BYTE   N04
 BYTE   W08
 BYTE   N06
 BYTE   W09
 BYTE   PEND 
 BYTE   PATT
  POIN2 Label_Justice7_0146BAB8
// 028   ----------------------------------------
 BYTE   W24
 BYTE   N06  Ds3  v060
 BYTE   W36
 BYTE   N04
 BYTE   W07
 BYTE   N04
 BYTE   W08
 BYTE   N06
 BYTE   W21
// 029   ----------------------------------------
 BYTE   W24
 BYTE   N04  Dn3
 BYTE   W07
 BYTE   N04
 BYTE   W08
 BYTE   N06
 BYTE   W21
 BYTE   N04  En3
 BYTE   W07
 BYTE   N04
 BYTE   W08
 BYTE   N06
 BYTE   W21
 BYTE   PATT
  POIN2 Label_Justice7_0146BADD
// 030   ----------------------------------------
 BYTE   VOL   54*Justice_mvl/mxv
 BYTE   N04  An3  v060
 BYTE   N04  Cs4
 BYTE   W07
 BYTE   An3
 BYTE   N04  Cs4
 BYTE   W08
 BYTE   An3
 BYTE   N04  Cs4
 BYTE   W09
 BYTE   An3
 BYTE   N04  Cs4
 BYTE   W07
 BYTE   An3
 BYTE   N04  Cs4
 BYTE   W08
 BYTE   An3
 BYTE   N04  Cs4
 BYTE   W09
 BYTE   An3
 BYTE   N04  Cs4
 BYTE   W07
 BYTE   An3
 BYTE   N04  Cs4
 BYTE   W08
 BYTE   An3
 BYTE   N04  Cs4
 BYTE   W09
 BYTE   An3
 BYTE   N04  Cs4
 BYTE   W07
 BYTE   An3
 BYTE   N04  Cs4
 BYTE   W08
 BYTE   An3
 BYTE   N04  Cs4
 BYTE   W09
// 031   ----------------------------------------
 BYTE   Bn3
 BYTE   N04  Ds4
 BYTE   W07
 BYTE   Bn3
 BYTE   N04  Ds4
 BYTE   W08
 BYTE   Bn3
 BYTE   N04  Ds4
 BYTE   W09
 BYTE   Bn3
 BYTE   N04  Ds4
 BYTE   W07
 BYTE   Bn3
 BYTE   N04  Ds4
 BYTE   W08
 BYTE   Bn3
 BYTE   N04  Ds4
 BYTE   W09
 BYTE   Bn3
 BYTE   N04  Ds4
 BYTE   W07
 BYTE   Bn3
 BYTE   N04  Ds4
 BYTE   W08
 BYTE   Bn3
 BYTE   N04  Ds4
 BYTE   W09
 BYTE   Bn3
 BYTE   N04  Ds4
 BYTE   W07
 BYTE   Bn3
 BYTE   N04  Ds4
 BYTE   W08
 BYTE   Bn3
 BYTE   N04  Ds4
 BYTE   W09
// 032   ----------------------------------------
 BYTE   An3
 BYTE   N04  Dn4
 BYTE   W07
 BYTE   An3
 BYTE   N04  Dn4
 BYTE   W08
 BYTE   An3
 BYTE   N04  Dn4
 BYTE   W09
 BYTE   An3
 BYTE   N04  Dn4
 BYTE   W07
 BYTE   An3
 BYTE   N04  Dn4
 BYTE   W08
 BYTE   An3
 BYTE   N04  Dn4
 BYTE   W09
 BYTE   Bn3
 BYTE   N04  En4
 BYTE   W07
 BYTE   Bn3
 BYTE   N04  En4
 BYTE   W08
 BYTE   Bn3
 BYTE   N04  En4
 BYTE   W09
 BYTE   Bn3
 BYTE   N04  En4
 BYTE   W07
 BYTE   Bn3
 BYTE   N04  En4
 BYTE   W08
 BYTE   Bn3
 BYTE   N04  En4
 BYTE   W09
// 033   ----------------------------------------
 BYTE   Fs3
 BYTE   N04  An3
 BYTE   W07
 BYTE   Fs3
 BYTE   N04  An3
 BYTE   W08
 BYTE   Fs3
 BYTE   N04  An3
 BYTE   W09
 BYTE   Fs3
 BYTE   N04  An3
 BYTE   W07
 BYTE   Fs3
 BYTE   N04  An3
 BYTE   W08
 BYTE   Fs3
 BYTE   N04  An3
 BYTE   W09
 BYTE   Fs3
 BYTE   N04  An3
 BYTE   W07
 BYTE   Fs3
 BYTE   N04  An3
 BYTE   W08
 BYTE   Fs3
 BYTE   N04  An3
 BYTE   W09
 BYTE   En3
 BYTE   N04  Gs3
 BYTE   W07
 BYTE   En3
 BYTE   N04  Gs3
 BYTE   W08
 BYTE   En3
 BYTE   N04  Gs3
 BYTE   W09
// 034   ----------------------------------------
 BYTE   W01
 BYTE   VOL   60*Justice_mvl/mxv
 BYTE   W92
 BYTE   W03
// 035   ----------------------------------------
 BYTE   W96
// 036   ----------------------------------------
 BYTE   W96
// 037   ----------------------------------------
 BYTE   W96
// 038   ----------------------------------------
 BYTE   W96
// 039   ----------------------------------------
 BYTE   W96
// 040   ----------------------------------------
 BYTE   W96
// 041   ----------------------------------------
 BYTE   W96
// 042   ----------------------------------------
 BYTE   W96
// 043   ----------------------------------------
 BYTE   W96
// 044   ----------------------------------------
 BYTE   W96
// 045   ----------------------------------------
 BYTE   W13
 BYTE   GoTo
  POIN2 Label_Justice7_0146BA7E
 BYTE   FINE

//**************** Track 9 (Midi-Chn.8) ****************//

Justice_009:
// 000   ----------------------------------------
 BYTE   KEYSH   Justice_key+0
Label_Justice8_0146BBEE:
 BYTE   VOICE   61
 BYTE   PAN   c_v+0
 BYTE   VOL   59*Justice_mvl/mxv
 BYTE   W96
// 001   ----------------------------------------
 BYTE   W96
// 002   ----------------------------------------
 BYTE   W96
// 003   ----------------------------------------
 BYTE   W96
// 004   ----------------------------------------
 BYTE   W96
// 005   ----------------------------------------
 BYTE   W96
// 006   ----------------------------------------
 BYTE   W96
// 007   ----------------------------------------
 BYTE   W96
// 008   ----------------------------------------
 BYTE   W96
// 009   ----------------------------------------
 BYTE   W96
// 010   ----------------------------------------
 BYTE   W96
// 011   ----------------------------------------
 BYTE   W96
// 012   ----------------------------------------
 BYTE   W96
// 013   ----------------------------------------
 BYTE   W96
// 014   ----------------------------------------
 BYTE   W96
// 015   ----------------------------------------
Label_Justice8_0146BC03:
 BYTE   N18  An2  v060
 BYTE   N18  Dn3
 BYTE   W24
 BYTE   An2
 BYTE   N18  Dn3
 BYTE   W24
 BYTE   N04  An2
 BYTE   N04  Cs3
 BYTE   W07
 BYTE   An2
 BYTE   N04  Cs3
 BYTE   W08
 BYTE   N06  An2
 BYTE   N06  Cs3
 BYTE   W16
 BYTE   N04  An2
 BYTE   N04  Cs3
 BYTE   W08
 BYTE   An2
 BYTE   N04  Cs3
 BYTE   W09
 BYTE   PEND 
// 016   ----------------------------------------
 BYTE   W96
// 017   ----------------------------------------
 BYTE   W96
// 018   ----------------------------------------
 BYTE   W96
// 019   ----------------------------------------
 BYTE   W96
// 020   ----------------------------------------
 BYTE   W96
// 021   ----------------------------------------
 BYTE   W96
// 022   ----------------------------------------
 BYTE   W96
 BYTE   PATT
  POIN2 Label_Justice8_0146BC03
// 023   ----------------------------------------
Label_Justice8_0146BC31:
 BYTE   W24
 BYTE   N06  An2  v060
 BYTE   N06  Cs3
 BYTE   W24
 BYTE   N04  An2
 BYTE   N04  Cs3
 BYTE   W07
 BYTE   An2
 BYTE   N04  Cs3
 BYTE   W08
 BYTE   N06  An2
 BYTE   N06  Cs3
 BYTE   W32
 BYTE   W01
 BYTE   PEND 
// 024   ----------------------------------------
 BYTE   Bn2
 BYTE   N06  Ds3
 BYTE   W24
 BYTE   Bn2
 BYTE   N06  Ds3
 BYTE   W36
 BYTE   N04  Bn2
 BYTE   N04  Ds3
 BYTE   W07
 BYTE   Bn2
 BYTE   N04  Ds3
 BYTE   W08
 BYTE   N06  Bn2
 BYTE   N06  Ds3
 BYTE   W21
// 025   ----------------------------------------
 BYTE   W24
 BYTE   N04  An2
 BYTE   N04  Dn3
 BYTE   W07
 BYTE   An2
 BYTE   N04  Dn3
 BYTE   W08
 BYTE   N06  An2
 BYTE   N06  Dn3
 BYTE   W21
 BYTE   N04  Bn2
 BYTE   N04  En3
 BYTE   W07
 BYTE   Bn2
 BYTE   N04  En3
 BYTE   W08
 BYTE   N06  Bn2
 BYTE   N06  En3
 BYTE   W21
// 026   ----------------------------------------
Label_Justice8_0146BC7B:
 BYTE   W24
 BYTE   N06  An2  v060
 BYTE   N06  Cs3
 BYTE   W24
 BYTE   An2
 BYTE   N06  Cs3
 BYTE   W24
 BYTE   N04  Gs2
 BYTE   N04  Bn2
 BYTE   W07
 BYTE   Gs2
 BYTE   N04  Bn2
 BYTE   W08
 BYTE   N06  Gs2
 BYTE   N06  Bn2
 BYTE   W09
 BYTE   PEND 
 BYTE   PATT
  POIN2 Label_Justice8_0146BC31
// 027   ----------------------------------------
 BYTE   W24
 BYTE   N06  Bn2  v060
 BYTE   N06  Ds3
 BYTE   W36
 BYTE   N04  Bn2
 BYTE   N04  Ds3
 BYTE   W07
 BYTE   Bn2
 BYTE   N04  Ds3
 BYTE   W08
 BYTE   N06  Bn2
 BYTE   N06  Ds3
 BYTE   W21
// 028   ----------------------------------------
 BYTE   W24
 BYTE   N04  Gs2
 BYTE   N04  Dn3
 BYTE   W07
 BYTE   Gs2
 BYTE   N04  Dn3
 BYTE   W08
 BYTE   N06  Gs2
 BYTE   N06  Dn3
 BYTE   W21
 BYTE   N04  Bn2
 BYTE   N04  En3
 BYTE   W07
 BYTE   Bn2
 BYTE   N04  En3
 BYTE   W08
 BYTE   N06  Bn2
 BYTE   N06  En3
 BYTE   W21
 BYTE   PATT
  POIN2 Label_Justice8_0146BC7B
// 029   ----------------------------------------
 BYTE   W96
// 030   ----------------------------------------
 BYTE   W96
// 031   ----------------------------------------
 BYTE   W96
// 032   ----------------------------------------
 BYTE   W96
// 033   ----------------------------------------
 BYTE   W96
// 034   ----------------------------------------
 BYTE   W96
// 035   ----------------------------------------
 BYTE   W96
// 036   ----------------------------------------
 BYTE   W96
// 037   ----------------------------------------
 BYTE   W96
// 038   ----------------------------------------
 BYTE   W96
// 039   ----------------------------------------
 BYTE   W96
// 040   ----------------------------------------
 BYTE   W96
// 041   ----------------------------------------
 BYTE   W96
// 042   ----------------------------------------
 BYTE   W96
// 043   ----------------------------------------
 BYTE   W88
 BYTE   N06  Gs2  v060
 BYTE   N06  Bn2
 BYTE   W08
// 044   ----------------------------------------
 BYTE   N12  An2
 BYTE   N12  Cs3
 BYTE   W13
 BYTE   GoTo
  POIN2 Label_Justice8_0146BBEE
 BYTE   FINE

//**************** Track 10 (Midi-Chn.9) ****************//

Justice_010:
// 000   ----------------------------------------
 BYTE   KEYSH   Justice_key+0
Label_Justice9_0146BCF6:
 BYTE   VOICE   57
 BYTE   PAN   c_v+0
 BYTE   VOL   49*Justice_mvl/mxv
 BYTE   W96
// 001   ----------------------------------------
 BYTE   W96
// 002   ----------------------------------------
 BYTE   W96
// 003   ----------------------------------------
 BYTE   W96
// 004   ----------------------------------------
 BYTE   W96
// 005   ----------------------------------------
 BYTE   W96
// 006   ----------------------------------------
 BYTE   W96
// 007   ----------------------------------------
 BYTE   W84
 BYTE   W03
 BYTE   N06  An2  v060
 BYTE   W09
// 008   ----------------------------------------
Label_Justice9_0146BD09:
 BYTE   N68  Dn3  v060
 BYTE   W72
 BYTE   N04  Fn3
 BYTE   W16
 BYTE   N06
 BYTE   W08
 BYTE   PEND 
// 009   ----------------------------------------
Label_Justice9_0146BD13:
 BYTE   N68  Dn3  v060
 BYTE   W72
 BYTE   N04  An2
 BYTE   W07
 BYTE   N03
 BYTE   W08
 BYTE   N04
 BYTE   W09
 BYTE   PEND 
// 010   ----------------------------------------
Label_Justice9_0146BD1F:
 BYTE   N66  Dn3  v060
 BYTE   W72
 BYTE   N04  Fn3
 BYTE   W07
 BYTE   Dn3
 BYTE   W08
 BYTE   Fn3
 BYTE   W09
 BYTE   PEND 
// 011   ----------------------------------------
 BYTE   N90  Gn3
 BYTE   W96
// 012   ----------------------------------------
Label_Justice9_0146BD2E:
 BYTE   N42  An3  v060
 BYTE   W48
 BYTE   N22  Dn3
 BYTE   W24
 BYTE   An3
 BYTE   W24
 BYTE   PEND 
// 013   ----------------------------------------
 BYTE   N04  Gn3
 BYTE   W07
 BYTE   Fn3
 BYTE   W08
 BYTE   En3
 BYTE   W09
 BYTE   N52  Dn3
 BYTE   W54
 BYTE   W01
 BYTE   N04
 BYTE   W08
 BYTE   N06  En3
 BYTE   W09
// 014   ----------------------------------------
Label_Justice9_0146BD48:
 BYTE   N30  Fn3  v060
 BYTE   W30
 BYTE   W01
 BYTE   N04  En3
 BYTE   W08
 BYTE   Dn3
 BYTE   W07
 BYTE   N32  Gn3
 BYTE   W32
 BYTE   W03
 BYTE   N04  Fn3
 BYTE   W07
 BYTE   En3
 BYTE   W08
 BYTE   PEND 
// 015   ----------------------------------------
 BYTE   N48  An3
 BYTE   W96
 BYTE   PATT
  POIN2 Label_Justice9_0146BD09
 BYTE   PATT
  POIN2 Label_Justice9_0146BD13
 BYTE   PATT
  POIN2 Label_Justice9_0146BD1F
// 016   ----------------------------------------
 BYTE   N90  Gn3  v060
 BYTE   W96
 BYTE   PATT
  POIN2 Label_Justice9_0146BD2E
// 017   ----------------------------------------
 BYTE   N04  Gn3  v060
 BYTE   W07
 BYTE   Fn3
 BYTE   W08
 BYTE   N06  En3
 BYTE   W09
 BYTE   N52  Dn3
 BYTE   W54
 BYTE   W01
 BYTE   N04
 BYTE   W08
 BYTE   N06  En3
 BYTE   W09
 BYTE   PATT
  POIN2 Label_Justice9_0146BD48
// 018   ----------------------------------------
 BYTE   N92  An3  v060
 BYTE   W96
// 019   ----------------------------------------
 BYTE   VOL   60*Justice_mvl/mxv
 BYTE   N66  Cs3
 BYTE   N66  Fs3
 BYTE   W72
 BYTE   N04  Cs3
 BYTE   N04  Fs3
 BYTE   W07
 BYTE   Bn2
 BYTE   N04  En3
 BYTE   W08
 BYTE   Cs3
 BYTE   N04  Fs3
 BYTE   W09
// 020   ----------------------------------------
 BYTE   N44  Ds3
 BYTE   N44  An3
 BYTE   W48
 BYTE   Bn2
 BYTE   N44  Fs3
 BYTE   W48
// 021   ----------------------------------------
 BYTE   N21  Dn3
 BYTE   N21  An3
 BYTE   W24
 BYTE   Dn3
 BYTE   N21  Gs3
 BYTE   W24
 BYTE   An2
 BYTE   N21  Fs3
 BYTE   W24
 BYTE   Gs2
 BYTE   N21  En3
 BYTE   W24
// 022   ----------------------------------------
 BYTE   N92  Fs2
 BYTE   N92  Cs3
 BYTE   W96
// 023   ----------------------------------------
 BYTE   N66
 BYTE   N66  Fs3
 BYTE   W72
 BYTE   N04  Cs3
 BYTE   N04  Fs3
 BYTE   W07
 BYTE   Bn2
 BYTE   N04  En3
 BYTE   W08
 BYTE   Cs3
 BYTE   N04  Fs3
 BYTE   W09
// 024   ----------------------------------------
 BYTE   N21  Ds3
 BYTE   N21  Bn3
 BYTE   W24
 BYTE   N22  Cs3
 BYTE   N22  An3
 BYTE   W24
 BYTE   N44  Bn2
 BYTE   N44  Fs3
 BYTE   W48
// 025   ----------------------------------------
 BYTE   N21
 BYTE   N21  An3
 BYTE   W24
 BYTE   En3
 BYTE   N21  Gs3
 BYTE   W24
 BYTE   An2
 BYTE   N21  Fs3
 BYTE   W24
 BYTE   Bn2
 BYTE   N21  En3
 BYTE   W24
// 026   ----------------------------------------
 BYTE   N92  Cs3
 BYTE   N92  Fs3
 BYTE   W96
// 027   ----------------------------------------
 BYTE   VOL   54*Justice_mvl/mxv
 BYTE   N44  Fs1
 BYTE   N66  Fs3
 BYTE   W48
 BYTE   N44  An1
 BYTE   W24
 BYTE   N04  Fs3
 BYTE   W07
 BYTE   En3
 BYTE   W08
 BYTE   Fs3
 BYTE   W09
// 028   ----------------------------------------
 BYTE   N44  Bn1
 BYTE   N44  An3
 BYTE   W48
 BYTE   Ds2
 BYTE   N44  Fs3
 BYTE   W48
// 029   ----------------------------------------
 BYTE   Dn2
 BYTE   N21  An3
 BYTE   W24
 BYTE   Gs3
 BYTE   W24
 BYTE   N44  En2
 BYTE   N21  Fs3
 BYTE   W24
 BYTE   En3
 BYTE   W24
// 030   ----------------------------------------
 BYTE   N22  Fs2
 BYTE   N92  Cs3
 BYTE   W24
 BYTE   N22  Dn2
 BYTE   W24
 BYTE   Cs2
 BYTE   W24
 BYTE   An1
 BYTE   W24
// 031   ----------------------------------------
Label_Justice9_0146BE2D:
 BYTE   N66  Fs3  v060
 BYTE   W72
 BYTE   N04
 BYTE   W07
 BYTE   En3
 BYTE   W08
 BYTE   Fs3
 BYTE   W09
 BYTE   PEND 
// 032   ----------------------------------------
Label_Justice9_0146BE38:
 BYTE   N21  Bn3  v060
 BYTE   W24
 BYTE   N22  An3
 BYTE   W24
 BYTE   N44  Fs3
 BYTE   W48
 BYTE   PEND 
// 033   ----------------------------------------
Label_Justice9_0146BE43:
 BYTE   N21  An3  v060
 BYTE   W24
 BYTE   Gs3
 BYTE   W24
 BYTE   Fs3
 BYTE   W24
 BYTE   En3
 BYTE   W24
 BYTE   PEND 
// 034   ----------------------------------------
 BYTE   N92  Fs3
 BYTE   W96
 BYTE   PATT
  POIN2 Label_Justice9_0146BE2D
 BYTE   PATT
  POIN2 Label_Justice9_0146BE38
 BYTE   PATT
  POIN2 Label_Justice9_0146BE43
// 035   ----------------------------------------
 BYTE   W96
// 036   ----------------------------------------
 BYTE   W96
// 037   ----------------------------------------
 BYTE   W96
// 038   ----------------------------------------
 BYTE   W88
 BYTE   N06  En2  v060
 BYTE   W08
// 039   ----------------------------------------
 BYTE   N12  Fs2
 BYTE   W13
 BYTE   GoTo
  POIN2 Label_Justice9_0146BCF6
 BYTE   FINE

//**************** Track 11 (Midi-Chn.10) ****************//

Justice_011:
// 000   ----------------------------------------
 BYTE   KEYSH   Justice_key+0
Label_Justice10_0146BE76:
 BYTE   VOICE   47
 BYTE   PAN   c_v+0
 BYTE   VOL   60*Justice_mvl/mxv
 BYTE   N01  Dn2  v060
 BYTE   W96
// 001   ----------------------------------------
Label_Justice10_0146BE80:
 BYTE   W72
 BYTE   N01  An1  v060
 BYTE   W07
 BYTE   N01
 BYTE   W08
 BYTE   N01
 BYTE   W09
 BYTE   PEND 
// 002   ----------------------------------------
 BYTE   Dn2
 BYTE   W96
 BYTE   PATT
  POIN2 Label_Justice10_0146BE80
// 003   ----------------------------------------
 BYTE   N01  Dn2  v060
 BYTE   W96
// 004   ----------------------------------------
Label_Justice10_0146BE95:
 BYTE   W78
 BYTE   W01
 BYTE   N01  An1  v060
 BYTE   W08
 BYTE   N01
 BYTE   W09
 BYTE   PEND 
// 005   ----------------------------------------
 BYTE   Dn2
 BYTE   W96
 BYTE   PATT
  POIN2 Label_Justice10_0146BE95
// 006   ----------------------------------------
 BYTE   N01  Dn2  v060
 BYTE   W96
 BYTE   PATT
  POIN2 Label_Justice10_0146BE95
// 007   ----------------------------------------
 BYTE   N01  Dn2  v060
 BYTE   W96
 BYTE   PATT
  POIN2 Label_Justice10_0146BE80
// 008   ----------------------------------------
 BYTE   N01  Dn2  v060
 BYTE   W96
 BYTE   PATT
  POIN2 Label_Justice10_0146BE95
// 009   ----------------------------------------
 BYTE   N01  Dn2  v060
 BYTE   W96
// 010   ----------------------------------------
Label_Justice10_0146BEC4:
 BYTE   N01  An1  v060
 BYTE   W24
 BYTE   N01
 BYTE   W24
 BYTE   N01
 BYTE   W07
 BYTE   N01
 BYTE   W08
 BYTE   N01
 BYTE   W16
 BYTE   N01
 BYTE   W08
 BYTE   N01
 BYTE   W09
 BYTE   PEND 
// 011   ----------------------------------------
 BYTE   Dn2
 BYTE   W96
 BYTE   PATT
  POIN2 Label_Justice10_0146BE95
// 012   ----------------------------------------
 BYTE   N01  Dn2  v060
 BYTE   W96
 BYTE   PATT
  POIN2 Label_Justice10_0146BE95
// 013   ----------------------------------------
 BYTE   N01  Dn2  v060
 BYTE   W96
 BYTE   PATT
  POIN2 Label_Justice10_0146BE95
// 014   ----------------------------------------
 BYTE   N01  Dn2  v060
 BYTE   W96
 BYTE   PATT
  POIN2 Label_Justice10_0146BEC4
// 015   ----------------------------------------
Label_Justice10_0146BEF7:
 BYTE   W24
 BYTE   N01  An1  v060
 BYTE   W24
 BYTE   N01
 BYTE   W07
 BYTE   N01
 BYTE   W08
 BYTE   N01
 BYTE   W32
 BYTE   W01
 BYTE   PEND 
// 016   ----------------------------------------
 BYTE   Bn1
 BYTE   W24
 BYTE   N01
 BYTE   W36
 BYTE   N01
 BYTE   W07
 BYTE   N01
 BYTE   W08
 BYTE   N01
 BYTE   W21
// 017   ----------------------------------------
Label_Justice10_0146BF0E:
 BYTE   W24
 BYTE   N01  An1  v060
 BYTE   W07
 BYTE   N01
 BYTE   W08
 BYTE   N01
 BYTE   W21
 BYTE   Bn1
 BYTE   W07
 BYTE   N01
 BYTE   W08
 BYTE   N01
 BYTE   W21
 BYTE   PEND 
// 018   ----------------------------------------
Label_Justice10_0146BF1E:
 BYTE   W24
 BYTE   N01  An1  v060
 BYTE   W24
 BYTE   N01
 BYTE   W24
 BYTE   Gs1
 BYTE   W07
 BYTE   N01
 BYTE   W08
 BYTE   N01
 BYTE   W09
 BYTE   PEND 
 BYTE   PATT
  POIN2 Label_Justice10_0146BEF7
// 019   ----------------------------------------
 BYTE   W24
 BYTE   N01  Bn1  v060
 BYTE   W36
 BYTE   N01
 BYTE   W07
 BYTE   N01
 BYTE   W08
 BYTE   N01
 BYTE   W21
 BYTE   PATT
  POIN2 Label_Justice10_0146BF0E
 BYTE   PATT
  POIN2 Label_Justice10_0146BF1E
// 020   ----------------------------------------
 BYTE   W96
// 021   ----------------------------------------
 BYTE   W96
// 022   ----------------------------------------
 BYTE   W96
// 023   ----------------------------------------
 BYTE   W44
 BYTE   W02
 BYTE   VOL   46*Justice_mvl/mxv
 BYTE   W02
 BYTE   An1
 BYTE   N01  An1  v060
 BYTE   W03
 BYTE   VOL   46*Justice_mvl/mxv
 BYTE   N01
 BYTE   W01
 BYTE   VOL   46*Justice_mvl/mxv
 BYTE   W02
 BYTE   Bn1
 BYTE   N01
 BYTE   W01
 BYTE   VOL   47*Justice_mvl/mxv
 BYTE   W02
 BYTE   Cn2
 BYTE   N01
 BYTE   W01
 BYTE   VOL   48*Justice_mvl/mxv
 BYTE   W02
 BYTE   Cs2
 BYTE   N01
 BYTE   W01
 BYTE   VOL   49*Justice_mvl/mxv
 BYTE   W02
 BYTE   Dn2
 BYTE   N01
 BYTE   W03
 BYTE   VOL   50*Justice_mvl/mxv
 BYTE   N01
 BYTE   W01
 BYTE   VOL   51*Justice_mvl/mxv
 BYTE   W02
 BYTE   Ds2
 BYTE   N01
 BYTE   W01
 BYTE   VOL   51*Justice_mvl/mxv
 BYTE   W02
 BYTE   En2
 BYTE   N01
 BYTE   W01
 BYTE   VOL   52*Justice_mvl/mxv
 BYTE   W02
 BYTE   Fn2
 BYTE   N01
 BYTE   W01
 BYTE   VOL   53*Justice_mvl/mxv
 BYTE   W02
 BYTE   Fs2
 BYTE   N01
 BYTE   W03
 BYTE   VOL   54*Justice_mvl/mxv
 BYTE   N01
 BYTE   W01
 BYTE   VOL   55*Justice_mvl/mxv
 BYTE   W02
 BYTE   Gn2
 BYTE   N01
 BYTE   W01
 BYTE   VOL   56*Justice_mvl/mxv
 BYTE   W02
 BYTE   Gs2
 BYTE   N01
 BYTE   W01
 BYTE   VOL   57*Justice_mvl/mxv
 BYTE   W02
 BYTE   An2
 BYTE   N01
 BYTE   W01
 BYTE   VOL   58*Justice_mvl/mxv
 BYTE   W02
 BYTE   As2
 BYTE   N01
 BYTE   W01
 BYTE   VOL   59*Justice_mvl/mxv
 BYTE   W02
// 024   ----------------------------------------
 BYTE   W96
// 025   ----------------------------------------
 BYTE   W96
// 026   ----------------------------------------
 BYTE   W96
// 027   ----------------------------------------
 BYTE   W96
// 028   ----------------------------------------
 BYTE   W96
// 029   ----------------------------------------
 BYTE   W96
// 030   ----------------------------------------
 BYTE   W96
// 031   ----------------------------------------
 BYTE   W96
// 032   ----------------------------------------
 BYTE   W96
// 033   ----------------------------------------
 BYTE   W44
 BYTE   W02
 BYTE   As1
 BYTE   W02
 BYTE   N01
 BYTE   W01
 BYTE   VOL   45*Justice_mvl/mxv
 BYTE   W02
 BYTE   As1
 BYTE   N01
 BYTE   W01
 BYTE   VOL   46*Justice_mvl/mxv
 BYTE   W02
 BYTE   Bn1
 BYTE   N01
 BYTE   W01
 BYTE   VOL   47*Justice_mvl/mxv
 BYTE   W02
 BYTE   Cn2
 BYTE   N01
 BYTE   W01
 BYTE   VOL   48*Justice_mvl/mxv
 BYTE   W02
 BYTE   Cs2
 BYTE   N01
 BYTE   W01
 BYTE   VOL   49*Justice_mvl/mxv
 BYTE   W02
 BYTE   Dn2
 BYTE   N01
 BYTE   W03
 BYTE   VOL   50*Justice_mvl/mxv
 BYTE   N01
 BYTE   W01
 BYTE   VOL   51*Justice_mvl/mxv
 BYTE   W02
 BYTE   Ds2
 BYTE   N01
 BYTE   W01
 BYTE   VOL   51*Justice_mvl/mxv
 BYTE   W02
 BYTE   En2
 BYTE   N01
 BYTE   W01
 BYTE   VOL   52*Justice_mvl/mxv
 BYTE   W02
 BYTE   Fn2
 BYTE   N01
 BYTE   W01
 BYTE   VOL   53*Justice_mvl/mxv
 BYTE   W02
 BYTE   Fs2
 BYTE   N01
 BYTE   W03
 BYTE   VOL   54*Justice_mvl/mxv
 BYTE   N01
 BYTE   W01
 BYTE   VOL   55*Justice_mvl/mxv
 BYTE   W02
 BYTE   Gn2
 BYTE   N01
 BYTE   W01
 BYTE   VOL   56*Justice_mvl/mxv
 BYTE   W02
 BYTE   Gs2
 BYTE   N01
 BYTE   W01
 BYTE   VOL   57*Justice_mvl/mxv
 BYTE   W02
 BYTE   An2
 BYTE   N01
 BYTE   W01
 BYTE   VOL   58*Justice_mvl/mxv
 BYTE   W02
 BYTE   As2
 BYTE   N01
 BYTE   W01
 BYTE   VOL   59*Justice_mvl/mxv
 BYTE   W02
// 034   ----------------------------------------
 BYTE   Cn3
 BYTE   W88
 BYTE   N01  Fs1
 BYTE   W08
// 035   ----------------------------------------
 BYTE   N01
 BYTE   W13
 BYTE   GoTo
  POIN2 Label_Justice10_0146BE76
 BYTE   FINE

//**************** Track 12 (Midi-Chn.11) ****************//

Justice_012:
// 000   ----------------------------------------
 BYTE   KEYSH   Justice_key+0
Label_Justice11_0146C022:
 BYTE   VOICE   0
 BYTE   VOL   46*Justice_mvl/mxv
 BYTE   N01  Cs2  v060
 BYTE   N01  Fs2
 BYTE   W96
// 001   ----------------------------------------
 BYTE   W96
// 002   ----------------------------------------
 BYTE   W96
// 003   ----------------------------------------
 BYTE   W96
// 004   ----------------------------------------
Label_Justice11_0146C02F:
 BYTE   N01  En1  v060
 BYTE   W24
 BYTE   N01
 BYTE   W07
 BYTE   N01
 BYTE   W08
 BYTE   N01
 BYTE   W09
 BYTE   N01
 BYTE   W24
 BYTE   N01
 BYTE   W07
 BYTE   N01
 BYTE   W08
 BYTE   N01
 BYTE   W09
 BYTE   PEND 
// 005   ----------------------------------------
Label_Justice11_0146C042:
 BYTE   N01  En1  v060
 BYTE   W24
 BYTE   N01
 BYTE   W07
 BYTE   N01
 BYTE   W08
 BYTE   N01
 BYTE   W09
 BYTE   N01
 BYTE   W07
 BYTE   N01
 BYTE   W08
 BYTE   N01
 BYTE   W09
 BYTE   N01
 BYTE   W07
 BYTE   N01
 BYTE   W08
 BYTE   N01
 BYTE   W09
 BYTE   PEND 
 BYTE   PATT
  POIN2 Label_Justice11_0146C02F
 BYTE   PATT
  POIN2 Label_Justice11_0146C042
 BYTE   PATT
  POIN2 Label_Justice11_0146C02F
 BYTE   PATT
  POIN2 Label_Justice11_0146C042
 BYTE   PATT
  POIN2 Label_Justice11_0146C02F
 BYTE   PATT
  POIN2 Label_Justice11_0146C042
 BYTE   PATT
  POIN2 Label_Justice11_0146C02F
 BYTE   PATT
  POIN2 Label_Justice11_0146C042
 BYTE   PATT
  POIN2 Label_Justice11_0146C02F
// 006   ----------------------------------------
Label_Justice11_0146C086:
 BYTE   N01  En1  v060
 BYTE   W24
 BYTE   N01
 BYTE   W24
 BYTE   N01
 BYTE   W07
 BYTE   N01
 BYTE   W08
 BYTE   N01
 BYTE   W09
 BYTE   Cs2
 BYTE   N01  Gn2
 BYTE   W07
 BYTE   En1
 BYTE   W08
 BYTE   N01
 BYTE   W09
 BYTE   PEND 
 BYTE   PATT
  POIN2 Label_Justice11_0146C02F
 BYTE   PATT
  POIN2 Label_Justice11_0146C042
 BYTE   PATT
  POIN2 Label_Justice11_0146C02F
 BYTE   PATT
  POIN2 Label_Justice11_0146C042
 BYTE   PATT
  POIN2 Label_Justice11_0146C02F
 BYTE   PATT
  POIN2 Label_Justice11_0146C042
 BYTE   PATT
  POIN2 Label_Justice11_0146C02F
 BYTE   PATT
  POIN2 Label_Justice11_0146C086
// 007   ----------------------------------------
Label_Justice11_0146C0C3:
 BYTE   W24
 BYTE   N01  Dn1  v060
 BYTE   N01  En1
 BYTE   W24
 BYTE   Dn1
 BYTE   N01  En1
 BYTE   W07
 BYTE   Dn1
 BYTE   N01  En1
 BYTE   W08
 BYTE   Dn1
 BYTE   N01  En1
 BYTE   W32
 BYTE   W01
 BYTE   PEND 
// 008   ----------------------------------------
 BYTE   Dn1
 BYTE   N01  En1
 BYTE   W24
 BYTE   Dn1
 BYTE   N01  En1
 BYTE   W36
 BYTE   Dn1
 BYTE   N01  En1
 BYTE   W07
 BYTE   Dn1
 BYTE   N01  En1
 BYTE   W08
 BYTE   Dn1
 BYTE   N01  En1
 BYTE   W21
// 009   ----------------------------------------
Label_Justice11_0146C0EC:
 BYTE   W24
 BYTE   N01  Dn1  v060
 BYTE   N01  En1
 BYTE   W07
 BYTE   Dn1
 BYTE   N01  En1
 BYTE   W08
 BYTE   Dn1
 BYTE   N01  En1
 BYTE   W21
 BYTE   Dn1
 BYTE   N01  En1
 BYTE   W07
 BYTE   Dn1
 BYTE   N01  En1
 BYTE   W08
 BYTE   Dn1
 BYTE   N01  En1
 BYTE   W21
 BYTE   PEND 
// 010   ----------------------------------------
 BYTE   Cs2
 BYTE   N01  An2
 BYTE   W24
 BYTE   Dn1
 BYTE   N01  En1
 BYTE   W24
 BYTE   Dn1
 BYTE   N01  En1
 BYTE   W24
 BYTE   Dn1
 BYTE   N01  En1
 BYTE   W07
 BYTE   Dn1
 BYTE   N01  En1
 BYTE   W08
 BYTE   Dn1
 BYTE   N01  En1
 BYTE   W09
 BYTE   PATT
  POIN2 Label_Justice11_0146C0C3
// 011   ----------------------------------------
 BYTE   W24
 BYTE   N01  Dn1  v060
 BYTE   N01  En1
 BYTE   W36
 BYTE   Dn1
 BYTE   N01  En1
 BYTE   W07
 BYTE   Dn1
 BYTE   N01  En1
 BYTE   W08
 BYTE   Dn1
 BYTE   N01  En1
 BYTE   W21
 BYTE   PATT
  POIN2 Label_Justice11_0146C0EC
// 012   ----------------------------------------
 BYTE   N01  En1  v060
 BYTE   W02
 BYTE   N01
 BYTE   W01
 BYTE   N01
 BYTE   W03
 BYTE   N01
 BYTE   W02
 BYTE   N01
 BYTE   W01
 BYTE   N01
 BYTE   W03
 BYTE   N01
 BYTE   W02
 BYTE   N01
 BYTE   W01
 BYTE   N01
 BYTE   W03
 BYTE   N01
 BYTE   W02
 BYTE   N01
 BYTE   W01
 BYTE   N01
 BYTE   W03
 BYTE   Dn1
 BYTE   N01  En1
 BYTE   W02
 BYTE   N01
 BYTE   W01
 BYTE   N01
 BYTE   W03
 BYTE   N01
 BYTE   W02
 BYTE   N01
 BYTE   W01
 BYTE   N01
 BYTE   W03
 BYTE   N01
 BYTE   W02
 BYTE   N01
 BYTE   W01
 BYTE   N01
 BYTE   W03
 BYTE   N01
 BYTE   W02
 BYTE   N01
 BYTE   W01
 BYTE   N01
 BYTE   W03
 BYTE   Dn1
 BYTE   N01  En1
 BYTE   W02
 BYTE   N01
 BYTE   W01
 BYTE   N01
 BYTE   W03
 BYTE   N01
 BYTE   W02
 BYTE   N01
 BYTE   W01
 BYTE   N01
 BYTE   W03
 BYTE   N01
 BYTE   W02
 BYTE   N01
 BYTE   W01
 BYTE   N01
 BYTE   W03
 BYTE   N01
 BYTE   W02
 BYTE   N01
 BYTE   W01
 BYTE   N01
 BYTE   W03
 BYTE   Dn1
 BYTE   N01  En1
 BYTE   W02
 BYTE   N01
 BYTE   W01
 BYTE   N01
 BYTE   W03
 BYTE   N01
 BYTE   W01
 BYTE   Dn1
 BYTE   W01
 BYTE   En1
 BYTE   W01
 BYTE   N01
 BYTE   W03
 BYTE   N01
 BYTE   W02
 BYTE   N01
 BYTE   W01
 BYTE   Dn1
 BYTE   N01  En1
 BYTE   W03
 BYTE   N01
 BYTE   W02
 BYTE   N01
 BYTE   W01
 BYTE   N01
 BYTE   W03
// 013   ----------------------------------------
 BYTE   VOL   60*Justice_mvl/mxv
 BYTE   N01
 BYTE   N01  Cs2
 BYTE   N01  Gn2
 BYTE   W24
 BYTE   En1
 BYTE   W07
 BYTE   N01
 BYTE   W08
 BYTE   N01
 BYTE   W09
 BYTE   N01
 BYTE   W24
 BYTE   N01
 BYTE   W07
 BYTE   N01
 BYTE   W08
 BYTE   N01
 BYTE   W09
 BYTE   PATT
  POIN2 Label_Justice11_0146C042
 BYTE   PATT
  POIN2 Label_Justice11_0146C02F
 BYTE   PATT
  POIN2 Label_Justice11_0146C042
// 014   ----------------------------------------
 BYTE   N01  En1  v060
 BYTE   N01  Cs2
 BYTE   W24
 BYTE   En1
 BYTE   W07
 BYTE   N01
 BYTE   W08
 BYTE   N01
 BYTE   W09
 BYTE   N01
 BYTE   W24
 BYTE   N01
 BYTE   W07
 BYTE   N01
 BYTE   W08
 BYTE   N01
 BYTE   W09
 BYTE   PATT
  POIN2 Label_Justice11_0146C042
 BYTE   PATT
  POIN2 Label_Justice11_0146C02F
 BYTE   PATT
  POIN2 Label_Justice11_0146C042
// 015   ----------------------------------------
 BYTE   N01  En1  v060
 BYTE   N01  Cs2
 BYTE   N01  Gn2
 BYTE   W24
 BYTE   En1
 BYTE   W07
 BYTE   N01
 BYTE   W08
 BYTE   N01
 BYTE   W09
 BYTE   N01
 BYTE   W24
 BYTE   N01
 BYTE   W07
 BYTE   N01
 BYTE   W08
 BYTE   N01
 BYTE   W09
 BYTE   PATT
  POIN2 Label_Justice11_0146C042
 BYTE   PATT
  POIN2 Label_Justice11_0146C02F
// 016   ----------------------------------------
 BYTE   N01  Bn0  v060
 BYTE   N01  Cs2
 BYTE   W96
// 017   ----------------------------------------
 BYTE   W96
// 018   ----------------------------------------
 BYTE   Dn1
 BYTE   N01  En1
 BYTE   W07
 BYTE   Dn1
 BYTE   N01  En1
 BYTE   W08
 BYTE   Dn1
 BYTE   N01  En1
 BYTE   W09
 BYTE   Dn1
 BYTE   N01  En1
 BYTE   W07
 BYTE   Dn1
 BYTE   N01  En1
 BYTE   W08
 BYTE   Dn1
 BYTE   N01  En1
 BYTE   W09
 BYTE   Dn1
 BYTE   N01  En1
 BYTE   W07
 BYTE   Dn1
 BYTE   N01  En1
 BYTE   W08
 BYTE   Dn1
 BYTE   N01  En1
 BYTE   W09
 BYTE   Dn1
 BYTE   N01  En1
 BYTE   W07
 BYTE   Dn1
 BYTE   N01  En1
 BYTE   W08
 BYTE   Dn1
 BYTE   N01  En1
 BYTE   W09
// 019   ----------------------------------------
 BYTE   W88
 BYTE   N01
 BYTE   W08
// 020   ----------------------------------------
 BYTE   N01
 BYTE   N01  Gn2
 BYTE   W13
 BYTE   GoTo
  POIN2 Label_Justice11_0146C022
 BYTE   FINE

//******************************************************//
	ALIGN 4

songJustice:
	BYTE	12	// NumTrks
	BYTE	0	// NumBlks
	BYTE	Justice_pri	// Priority
	BYTE	Justice_rev	// Reverb.
    
	POIN2	Justice_grp
    
	POIN2	Justice_001
	POIN2	Justice_002
	POIN2	Justice_003
	POIN2	Justice_004
	POIN2	Justice_005
	POIN2	Justice_006
	POIN2	Justice_007
	POIN2	Justice_008
	POIN2	Justice_009
	POIN2	Justice_010
	POIN2	Justice_011
	POIN2	Justice_012

	
