//Event file generated from Sappy .s format.
	#include "MPlayDef.event"

	#define	songKratos_grp  voicegroup000
	#define	songKratos_pri  0
	#define	songKratos_rev  0
	#define	songKratos_mvl  127
	#define	songKratos_key  0
	#define	songKratos_tbs  1
	#define	songKratos_exg  0
	#define	songKratos_cmp  1

	// .rodata
	//	songKratos
	ALIGN 4


//**************** Track 1 (Midi-Chn.0) ****************//

songKratos_001:
// 000   ----------------------------------------
 BYTE   KEYSH   songKratos_key+0
Label_0_01020052:
 BYTE   TEMPO   120*songKratos_tbs/2
 BYTE   VOICE   71
 BYTE   MODT 0
 BYTE   CnM2  v000
 BYTE   LFOS 0
 BYTE   CnM2  v044
 BYTE   VOL   0*songKratos_mvl/mxv
 BYTE   PAN   c_v+0
 BYTE   W24
 BYTE   N08  En3  v127
 BYTE   W08
 BYTE   N08
 BYTE   W08
 BYTE   N08
 BYTE   W08
 BYTE   N08
 BYTE   W08
 BYTE   N08
 BYTE   W08
 BYTE   N08
 BYTE   W08
 BYTE   N08
 BYTE   W24
// 001   ----------------------------------------
Label_0_01020071:
 BYTE   N08  En3  v127
 BYTE   W08
 BYTE   N08
 BYTE   W08
 BYTE   N08
 BYTE   W08
 BYTE   N08
 BYTE   W08
 BYTE   N08
 BYTE   W08
 BYTE   N08
 BYTE   W08
 BYTE   N08
 BYTE   W24
 BYTE   Cn4
 BYTE   W08
 BYTE   N08
 BYTE   W08
 BYTE   N08
 BYTE   W08
 BYTE   PEND 
// 002   ----------------------------------------
Label_0_01020088:
 BYTE   N08  Cn4  v127
 BYTE   W08
 BYTE   N08
 BYTE   W08
 BYTE   N08
 BYTE   W08
 BYTE   N08
 BYTE   W24
 BYTE   Bn3
 BYTE   W08
 BYTE   N08
 BYTE   W08
 BYTE   N08
 BYTE   W08
 BYTE   N08
 BYTE   W08
 BYTE   N08
 BYTE   W08
 BYTE   N08
 BYTE   W08
 BYTE   PEND 
// 003   ----------------------------------------
Label_0_0102009F:
 BYTE   N08  Bn3  v127
 BYTE   W24
 BYTE   N08
 BYTE   W08
 BYTE   N08
 BYTE   W08
 BYTE   N08
 BYTE   W08
 BYTE   N08
 BYTE   W08
 BYTE   N08
 BYTE   W08
 BYTE   N08
 BYTE   W08
 BYTE   N08
 BYTE   W24
 BYTE   PEND 
// 004   ----------------------------------------
Label_0_010200B2:
 BYTE   N08  Bn3  v127
 BYTE   W08
 BYTE   N08
 BYTE   W08
 BYTE   N08
 BYTE   W08
 BYTE   N08
 BYTE   W08
 BYTE   N08
 BYTE   W08
 BYTE   N08
 BYTE   W08
 BYTE   N08
 BYTE   W24
 BYTE   N08
 BYTE   W08
 BYTE   N08
 BYTE   W08
 BYTE   N08
 BYTE   W08
 BYTE   PEND 
// 005   ----------------------------------------
Label_0_010200C9:
 BYTE   N08  Bn3  v127
 BYTE   W08
 BYTE   N08
 BYTE   W08
 BYTE   N08
 BYTE   W08
 BYTE   N08
 BYTE   W24
 BYTE   An4
 BYTE   W08
 BYTE   N08
 BYTE   W08
 BYTE   N08
 BYTE   W08
 BYTE   N08
 BYTE   W08
 BYTE   N08
 BYTE   W08
 BYTE   N08
 BYTE   W08
 BYTE   PEND 
// 006   ----------------------------------------
 BYTE   N08
 BYTE   W24
 BYTE   En3
 BYTE   W08
 BYTE   N08
 BYTE   W08
 BYTE   N08
 BYTE   W08
 BYTE   N08
 BYTE   W08
 BYTE   N08
 BYTE   W08
 BYTE   N08
 BYTE   W08
 BYTE   N08
 BYTE   W24
 BYTE   PATT
  POIN2 Label_0_01020071
 BYTE   PATT
  POIN2 Label_0_01020088
 BYTE   PATT
  POIN2 Label_0_0102009F
 BYTE   PATT
  POIN2 Label_0_010200B2
 BYTE   PATT
  POIN2 Label_0_010200C9
// 007   ----------------------------------------
 BYTE   N08  An4  v127
 BYTE   W24
 BYTE   Cn4
 BYTE   W08
 BYTE   N08
 BYTE   W08
 BYTE   N08
 BYTE   W08
 BYTE   N08
 BYTE   W08
 BYTE   N08
 BYTE   W08
 BYTE   N08
 BYTE   W08
 BYTE   N08
 BYTE   W24
// 008   ----------------------------------------
Label_0_0102011B:
 BYTE   N08  Cn4  v127
 BYTE   W08
 BYTE   N08
 BYTE   W08
 BYTE   N08
 BYTE   W08
 BYTE   N08
 BYTE   W08
 BYTE   N08
 BYTE   W08
 BYTE   N08
 BYTE   W08
 BYTE   N08
 BYTE   W24
 BYTE   N08
 BYTE   W08
 BYTE   N08
 BYTE   W08
 BYTE   N08
 BYTE   W08
 BYTE   PEND 
// 009   ----------------------------------------
Label_0_01020132:
 BYTE   N08  Cn4  v127
 BYTE   W08
 BYTE   N08
 BYTE   W08
 BYTE   N08
 BYTE   W08
 BYTE   N08
 BYTE   W24
 BYTE   Dn4
 BYTE   W08
 BYTE   N08
 BYTE   W08
 BYTE   N08
 BYTE   W08
 BYTE   N08
 BYTE   W08
 BYTE   N08
 BYTE   W08
 BYTE   N08
 BYTE   W08
 BYTE   PEND 
// 010   ----------------------------------------
Label_0_01020149:
 BYTE   N08  Dn4  v127
 BYTE   W24
 BYTE   Cn4
 BYTE   W08
 BYTE   N08
 BYTE   W08
 BYTE   N08
 BYTE   W08
 BYTE   N08
 BYTE   W08
 BYTE   N08
 BYTE   W08
 BYTE   N08
 BYTE   W08
 BYTE   N08
 BYTE   W24
 BYTE   PEND 
// 011   ----------------------------------------
Label_0_0102015C:
 BYTE   N08  Dn4  v127
 BYTE   W08
 BYTE   N08
 BYTE   W08
 BYTE   N08
 BYTE   W08
 BYTE   N08
 BYTE   W08
 BYTE   N08
 BYTE   W08
 BYTE   N08
 BYTE   W08
 BYTE   N08
 BYTE   W24
 BYTE   Cn4
 BYTE   W08
 BYTE   N08
 BYTE   W08
 BYTE   N08
 BYTE   W08
 BYTE   PEND 
// 012   ----------------------------------------
Label_0_01020173:
 BYTE   N08  Cn4  v127
 BYTE   W08
 BYTE   N08
 BYTE   W08
 BYTE   N08
 BYTE   W08
 BYTE   N08
 BYTE   W24
 BYTE   En4
 BYTE   W08
 BYTE   N08
 BYTE   W08
 BYTE   N08
 BYTE   W08
 BYTE   N08
 BYTE   W08
 BYTE   N08
 BYTE   W08
 BYTE   N08
 BYTE   W08
 BYTE   PEND 
// 013   ----------------------------------------
 BYTE   N08
 BYTE   W24
 BYTE   Cn4
 BYTE   W08
 BYTE   N08
 BYTE   W08
 BYTE   N08
 BYTE   W08
 BYTE   N08
 BYTE   W08
 BYTE   N08
 BYTE   W08
 BYTE   N08
 BYTE   W08
 BYTE   N08
 BYTE   W24
 BYTE   PATT
  POIN2 Label_0_0102011B
 BYTE   PATT
  POIN2 Label_0_01020132
 BYTE   PATT
  POIN2 Label_0_01020149
 BYTE   PATT
  POIN2 Label_0_0102015C
 BYTE   PATT
  POIN2 Label_0_01020173
// 014   ----------------------------------------
 BYTE   N08  En4  v127
 BYTE   W21
 BYTE   GoTo
  POIN2 Label_0_01020052
// 015   ----------------------------------------
 BYTE   W03
 BYTE   FINE

//**************** Track 2 (Midi-Chn.1) ****************//

songKratos_002:
// 000   ----------------------------------------
 BYTE   KEYSH   songKratos_key+0
Label_1_010201C2:
 BYTE   VOICE   71
 BYTE   MODT 0
 BYTE   CnM2  v000
 BYTE   LFOS 0
 BYTE   CnM2  v044
 BYTE   VOL   0*songKratos_mvl/mxv
 BYTE   PAN   c_v+0
 BYTE   W24
 BYTE   N08  En4  v127
 BYTE   W08
 BYTE   N08
 BYTE   W08
 BYTE   N08
 BYTE   W08
 BYTE   N08
 BYTE   W08
 BYTE   N08
 BYTE   W08
 BYTE   N08
 BYTE   W08
 BYTE   N08
 BYTE   W24
// 001   ----------------------------------------
Label_1_010201DF:
 BYTE   N08  En4  v127
 BYTE   W08
 BYTE   N08
 BYTE   W08
 BYTE   N08
 BYTE   W08
 BYTE   N08
 BYTE   W08
 BYTE   N08
 BYTE   W08
 BYTE   N08
 BYTE   W08
 BYTE   N08
 BYTE   W24
 BYTE   Cn5
 BYTE   W08
 BYTE   N08
 BYTE   W08
 BYTE   N08
 BYTE   W08
 BYTE   PEND 
// 002   ----------------------------------------
Label_1_010201F6:
 BYTE   N08  Cn5  v127
 BYTE   W08
 BYTE   N08
 BYTE   W08
 BYTE   N08
 BYTE   W08
 BYTE   N08
 BYTE   W24
 BYTE   Bn4
 BYTE   W08
 BYTE   N08
 BYTE   W08
 BYTE   N08
 BYTE   W08
 BYTE   N08
 BYTE   W08
 BYTE   N08
 BYTE   W08
 BYTE   N08
 BYTE   W08
 BYTE   PEND 
// 003   ----------------------------------------
Label_1_0102020D:
 BYTE   N08  Bn4  v127
 BYTE   W24
 BYTE   N08
 BYTE   W08
 BYTE   N08
 BYTE   W08
 BYTE   N08
 BYTE   W08
 BYTE   N08
 BYTE   W08
 BYTE   N08
 BYTE   W08
 BYTE   N08
 BYTE   W08
 BYTE   N08
 BYTE   W24
 BYTE   PEND 
// 004   ----------------------------------------
Label_1_01020220:
 BYTE   N08  Bn4  v127
 BYTE   W08
 BYTE   N08
 BYTE   W08
 BYTE   N08
 BYTE   W08
 BYTE   N08
 BYTE   W08
 BYTE   N08
 BYTE   W08
 BYTE   N08
 BYTE   W08
 BYTE   N08
 BYTE   W24
 BYTE   N08
 BYTE   W08
 BYTE   N08
 BYTE   W08
 BYTE   N08
 BYTE   W08
 BYTE   PEND 
// 005   ----------------------------------------
Label_1_01020237:
 BYTE   N08  Bn4  v127
 BYTE   W08
 BYTE   N08
 BYTE   W08
 BYTE   N08
 BYTE   W08
 BYTE   N08
 BYTE   W24
 BYTE   An3
 BYTE   W08
 BYTE   N08
 BYTE   W08
 BYTE   N08
 BYTE   W08
 BYTE   N08
 BYTE   W08
 BYTE   N08
 BYTE   W08
 BYTE   N08
 BYTE   W08
 BYTE   PEND 
// 006   ----------------------------------------
 BYTE   N08
 BYTE   W24
 BYTE   En4
 BYTE   W08
 BYTE   N08
 BYTE   W08
 BYTE   N08
 BYTE   W08
 BYTE   N08
 BYTE   W08
 BYTE   N08
 BYTE   W08
 BYTE   N08
 BYTE   W08
 BYTE   N08
 BYTE   W24
 BYTE   PATT
  POIN2 Label_1_010201DF
 BYTE   PATT
  POIN2 Label_1_010201F6
 BYTE   PATT
  POIN2 Label_1_0102020D
 BYTE   PATT
  POIN2 Label_1_01020220
 BYTE   PATT
  POIN2 Label_1_01020237
// 007   ----------------------------------------
 BYTE   N08  An3  v127
 BYTE   W24
 BYTE   Cn5
 BYTE   W08
 BYTE   N08
 BYTE   W08
 BYTE   N08
 BYTE   W08
 BYTE   N08
 BYTE   W08
 BYTE   N08
 BYTE   W08
 BYTE   N08
 BYTE   W08
 BYTE   N08
 BYTE   W24
// 008   ----------------------------------------
Label_1_01020289:
 BYTE   N08  Cn5  v127
 BYTE   W08
 BYTE   N08
 BYTE   W08
 BYTE   N08
 BYTE   W08
 BYTE   N08
 BYTE   W08
 BYTE   N08
 BYTE   W08
 BYTE   N08
 BYTE   W08
 BYTE   N08
 BYTE   W24
 BYTE   N08
 BYTE   W08
 BYTE   N08
 BYTE   W08
 BYTE   N08
 BYTE   W08
 BYTE   PEND 
// 009   ----------------------------------------
Label_1_010202A0:
 BYTE   N08  Cn5  v127
 BYTE   W08
 BYTE   N08
 BYTE   W08
 BYTE   N08
 BYTE   W08
 BYTE   N08
 BYTE   W24
 BYTE   Dn5
 BYTE   W08
 BYTE   N08
 BYTE   W08
 BYTE   N08
 BYTE   W08
 BYTE   N08
 BYTE   W08
 BYTE   N08
 BYTE   W08
 BYTE   N08
 BYTE   W08
 BYTE   PEND 
// 010   ----------------------------------------
Label_1_010202B7:
 BYTE   N08  Dn5  v127
 BYTE   W24
 BYTE   Cn5
 BYTE   W08
 BYTE   N08
 BYTE   W08
 BYTE   N08
 BYTE   W08
 BYTE   N08
 BYTE   W08
 BYTE   N08
 BYTE   W08
 BYTE   N08
 BYTE   W08
 BYTE   N08
 BYTE   W24
 BYTE   PEND 
// 011   ----------------------------------------
Label_1_010202CA:
 BYTE   N08  Dn5  v127
 BYTE   W08
 BYTE   N08
 BYTE   W08
 BYTE   N08
 BYTE   W08
 BYTE   N08
 BYTE   W08
 BYTE   N08
 BYTE   W08
 BYTE   N08
 BYTE   W08
 BYTE   N08
 BYTE   W24
 BYTE   Cn5
 BYTE   W08
 BYTE   N08
 BYTE   W08
 BYTE   N08
 BYTE   W08
 BYTE   PEND 
// 012   ----------------------------------------
Label_1_010202E1:
 BYTE   N08  Cn5  v127
 BYTE   W08
 BYTE   N08
 BYTE   W08
 BYTE   N08
 BYTE   W08
 BYTE   N08
 BYTE   W24
 BYTE   En5
 BYTE   W08
 BYTE   N08
 BYTE   W08
 BYTE   N08
 BYTE   W08
 BYTE   N08
 BYTE   W08
 BYTE   N08
 BYTE   W08
 BYTE   N08
 BYTE   W08
 BYTE   PEND 
// 013   ----------------------------------------
 BYTE   N08
 BYTE   W24
 BYTE   Cn5
 BYTE   W08
 BYTE   N08
 BYTE   W08
 BYTE   N08
 BYTE   W08
 BYTE   N08
 BYTE   W08
 BYTE   N08
 BYTE   W08
 BYTE   N08
 BYTE   W08
 BYTE   N08
 BYTE   W24
 BYTE   PATT
  POIN2 Label_1_01020289
 BYTE   PATT
  POIN2 Label_1_010202A0
 BYTE   PATT
  POIN2 Label_1_010202B7
 BYTE   PATT
  POIN2 Label_1_010202CA
 BYTE   PATT
  POIN2 Label_1_010202E1
// 014   ----------------------------------------
 BYTE   N08  En5  v127
 BYTE   W21
 BYTE   GoTo
  POIN2 Label_1_010201C2
// 015   ----------------------------------------
 BYTE   W03
 BYTE   FINE

//**************** Track 3 (Midi-Chn.2) ****************//

songKratos_003:
// 000   ----------------------------------------
 BYTE   KEYSH   songKratos_key+0
Label_2_0102032E:
 BYTE   VOICE   48
 BYTE   MODT 0
 BYTE   CnM2  v000
 BYTE   LFOS 0
 BYTE   CnM2  v044
 BYTE   VOL   35*songKratos_mvl/mxv
 BYTE   PAN   c_v+0
 BYTE   W24
 BYTE   N72  En3  v127
 BYTE   W72
// 001   ----------------------------------------
Label_2_0102033F:
 BYTE   N24  Fs2  v127
 BYTE   W24
 BYTE   Gn2
 BYTE   W24
 BYTE   Bn2
 BYTE   W24
 BYTE   An2
 BYTE   W24
 BYTE   PEND 
// 002   ----------------------------------------
Label_2_0102034A:
 BYTE   N24  Dn3  v127
 BYTE   W24
 BYTE   Cn3
 BYTE   W24
 BYTE   N72  Bn2
 BYTE   W48
 BYTE   PEND 
// 003   ----------------------------------------
Label_2_01020354:
 BYTE   W24
 BYTE   N48  En4  v127
 BYTE   W48
 BYTE   N24  Bn3
 BYTE   W24
 BYTE   PEND 
// 004   ----------------------------------------
Label_2_0102035D:
 BYTE   N24  Dn3  v127
 BYTE   W24
 BYTE   Cn3
 BYTE   W24
 BYTE   An2
 BYTE   W24
 BYTE   N72  Bn3
 BYTE   W24
 BYTE   PEND 
// 005   ----------------------------------------
 BYTE   W48
 BYTE   N24  An2
 BYTE   W24
 BYTE   Gn2
 BYTE   W24
// 006   ----------------------------------------
 BYTE   Fs2
 BYTE   W24
 BYTE   N72  En3
 BYTE   W72
 BYTE   PATT
  POIN2 Label_2_0102033F
 BYTE   PATT
  POIN2 Label_2_0102034A
 BYTE   PATT
  POIN2 Label_2_01020354
 BYTE   PATT
  POIN2 Label_2_0102035D
// 007   ----------------------------------------
 BYTE   W48
 BYTE   N24  An2  v127
 BYTE   W24
 BYTE   Fs3
 BYTE   W24
// 008   ----------------------------------------
 BYTE   Dn2
 BYTE   W24
 BYTE   N72  Cn4
 BYTE   W72
// 009   ----------------------------------------
 BYTE   N24  Bn2
 BYTE   W24
 BYTE   An2
 BYTE   W24
 BYTE   Gn2
 BYTE   W24
 BYTE   N72  An2
 BYTE   W24
// 010   ----------------------------------------
 BYTE   W48
 BYTE   N24  Fs3
 BYTE   W24
 BYTE   Gn2
 BYTE   W24
// 011   ----------------------------------------
 BYTE   An2
 BYTE   W24
 BYTE   N48  En2
 BYTE   W48
 BYTE   N24  Bn2
 BYTE   W24
// 012   ----------------------------------------
 BYTE   N48  Gn2
 BYTE   W48
 BYTE   N24  Dn3
 BYTE   W24
 BYTE   En3
 BYTE   W24
// 013   ----------------------------------------
 BYTE   Fs3
 BYTE   W24
 BYTE   Gn3
 BYTE   W24
 BYTE   N48  Fs3
 BYTE   W48
// 014   ----------------------------------------
 BYTE   N24  Bn3
 BYTE   W24
 BYTE   N72  Cn4
 BYTE   W72
// 015   ----------------------------------------
 BYTE   N24  Bn2
 BYTE   W24
 BYTE   An2
 BYTE   W24
 BYTE   Gn2
 BYTE   W24
 BYTE   N72  An3
 BYTE   W24
// 016   ----------------------------------------
 BYTE   W48
 BYTE   N24  Fs3
 BYTE   W24
 BYTE   Gn3
 BYTE   W24
// 017   ----------------------------------------
 BYTE   An2
 BYTE   W24
 BYTE   N48  En3
 BYTE   W48
 BYTE   N24  Bn2
 BYTE   W24
// 018   ----------------------------------------
 BYTE   N48  Gn3
 BYTE   W48
 BYTE   N24  Dn4
 BYTE   W24
 BYTE   En3
 BYTE   W24
// 019   ----------------------------------------
 BYTE   Fs4
 BYTE   W24
 BYTE   Gn3
 BYTE   W24
 BYTE   N48  Fs4
 BYTE   W48
// 020   ----------------------------------------
 BYTE   N24  Bn3
 BYTE   W21
 BYTE   GoTo
  POIN2 Label_2_0102032E
// 021   ----------------------------------------
 BYTE   W03
 BYTE   FINE

//**************** Track 4 (Midi-Chn.3) ****************//

songKratos_004:
// 000   ----------------------------------------
 BYTE   KEYSH   songKratos_key+0
Label_3_010203F6:
 BYTE   VOICE   47
 BYTE   MODT 0
 BYTE   CnM2  v000
 BYTE   LFOS 0
 BYTE   CnM2  v044
 BYTE   VOL   35*songKratos_mvl/mxv
 BYTE   PAN   c_v+0
 BYTE   W24
 BYTE   N72  En2  v127
 BYTE   W72
// 001   ----------------------------------------
Label_3_01020407:
 BYTE   N24  Fs3  v127
 BYTE   W24
 BYTE   Gn3
 BYTE   W24
 BYTE   Bn3
 BYTE   W24
 BYTE   An3
 BYTE   W24
 BYTE   PEND 
// 002   ----------------------------------------
Label_3_01020412:
 BYTE   N24  Dn4  v127
 BYTE   W24
 BYTE   Cn4
 BYTE   W24
 BYTE   N72  Bn3
 BYTE   W48
 BYTE   PEND 
// 003   ----------------------------------------
Label_3_0102041C:
 BYTE   W24
 BYTE   N48  En3  v127
 BYTE   W48
 BYTE   N24  Bn2
 BYTE   W24
 BYTE   PEND 
// 004   ----------------------------------------
Label_3_01020425:
 BYTE   N24  Dn4  v127
 BYTE   W24
 BYTE   Cn4
 BYTE   W24
 BYTE   An3
 BYTE   W24
 BYTE   N72  Bn2
 BYTE   W24
 BYTE   PEND 
// 005   ----------------------------------------
 BYTE   W48
 BYTE   N24  An3
 BYTE   W24
 BYTE   Gn3
 BYTE   W24
// 006   ----------------------------------------
 BYTE   Fs3
 BYTE   W24
 BYTE   N72  En2
 BYTE   W72
 BYTE   PATT
  POIN2 Label_3_01020407
 BYTE   PATT
  POIN2 Label_3_01020412
 BYTE   PATT
  POIN2 Label_3_0102041C
 BYTE   PATT
  POIN2 Label_3_01020425
// 007   ----------------------------------------
 BYTE   W48
 BYTE   N24  An3  v127
 BYTE   W24
 BYTE   Fs2
 BYTE   W24
// 008   ----------------------------------------
 BYTE   Dn3
 BYTE   W24
 BYTE   N72  Cn3
 BYTE   W72
// 009   ----------------------------------------
 BYTE   N24  Bn3
 BYTE   W24
 BYTE   An3
 BYTE   W24
 BYTE   Gn3
 BYTE   W24
 BYTE   N72  An3
 BYTE   W24
// 010   ----------------------------------------
 BYTE   W48
 BYTE   N24  Fs2
 BYTE   W24
 BYTE   Gn3
 BYTE   W24
// 011   ----------------------------------------
 BYTE   An3
 BYTE   W24
 BYTE   N48  En3
 BYTE   W48
 BYTE   N24  Bn3
 BYTE   W24
// 012   ----------------------------------------
 BYTE   N48  Gn3
 BYTE   W48
 BYTE   N24  Dn4
 BYTE   W24
 BYTE   En4
 BYTE   W24
// 013   ----------------------------------------
 BYTE   Fs4
 BYTE   W24
 BYTE   Gn4
 BYTE   W24
 BYTE   N48  Fs4
 BYTE   W48
// 014   ----------------------------------------
 BYTE   N24  Bn2
 BYTE   W24
 BYTE   N72  Cn3
 BYTE   W72
// 015   ----------------------------------------
 BYTE   N24  Bn3
 BYTE   W24
 BYTE   An3
 BYTE   W24
 BYTE   Gn3
 BYTE   W24
 BYTE   N72  An2
 BYTE   W24
// 016   ----------------------------------------
 BYTE   W48
 BYTE   N24  Fs2
 BYTE   W24
 BYTE   Gn2
 BYTE   W24
// 017   ----------------------------------------
 BYTE   An3
 BYTE   W24
 BYTE   N48  En2
 BYTE   W48
 BYTE   N24  Bn3
 BYTE   W24
// 018   ----------------------------------------
 BYTE   N48  Gn2
 BYTE   W48
 BYTE   N24  Dn3
 BYTE   W24
 BYTE   En4
 BYTE   W24
// 019   ----------------------------------------
 BYTE   Fs3
 BYTE   W24
 BYTE   Gn4
 BYTE   W24
 BYTE   N48  Fs3
 BYTE   W48
// 020   ----------------------------------------
 BYTE   N24  Bn2
 BYTE   W21
 BYTE   GoTo
  POIN2 Label_3_010203F6
// 021   ----------------------------------------
 BYTE   W03
 BYTE   FINE

//**************** Track 5 (Midi-Chn.4) ****************//

songKratos_005:
// 000   ----------------------------------------
 BYTE   KEYSH   songKratos_key+0
Label_4_010204BE:
 BYTE   VOICE   49
 BYTE   MODT 0
 BYTE   CnM2  v000
 BYTE   LFOS 0
 BYTE   CnM2  v044
 BYTE   VOL   26*songKratos_mvl/mxv
 BYTE   PAN   c_v+0
 BYTE   W24
 BYTE   N72  En3  v127
 BYTE   W72
// 001   ----------------------------------------
Label_4_010204CF:
 BYTE   N24  Fs2  v127
 BYTE   W24
 BYTE   Gn2
 BYTE   W24
 BYTE   Bn2
 BYTE   W24
 BYTE   An2
 BYTE   W24
 BYTE   PEND 
// 002   ----------------------------------------
Label_4_010204DA:
 BYTE   N24  Dn3  v127
 BYTE   W24
 BYTE   Cn3
 BYTE   W24
 BYTE   N72  Bn2
 BYTE   W48
 BYTE   PEND 
// 003   ----------------------------------------
Label_4_010204E4:
 BYTE   W24
 BYTE   N48  En4  v127
 BYTE   W48
 BYTE   N24  Bn2
 BYTE   W24
 BYTE   PEND 
// 004   ----------------------------------------
Label_4_010204ED:
 BYTE   N24  Dn3  v127
 BYTE   W24
 BYTE   Cn3
 BYTE   W24
 BYTE   An2
 BYTE   W24
 BYTE   N72  Bn3
 BYTE   W24
 BYTE   PEND 
// 005   ----------------------------------------
 BYTE   W48
 BYTE   N24  An2
 BYTE   W24
 BYTE   Gn2
 BYTE   W24
// 006   ----------------------------------------
 BYTE   Fs2
 BYTE   W24
 BYTE   N72  En3
 BYTE   W72
 BYTE   PATT
  POIN2 Label_4_010204CF
 BYTE   PATT
  POIN2 Label_4_010204DA
 BYTE   PATT
  POIN2 Label_4_010204E4
 BYTE   PATT
  POIN2 Label_4_010204ED
// 007   ----------------------------------------
 BYTE   W48
 BYTE   N24  An2  v127
 BYTE   W24
 BYTE   Fs3
 BYTE   W24
// 008   ----------------------------------------
 BYTE   Dn2
 BYTE   W24
 BYTE   N72  Cn4
 BYTE   W72
// 009   ----------------------------------------
 BYTE   N24  Bn2
 BYTE   W24
 BYTE   An2
 BYTE   W24
 BYTE   Gn2
 BYTE   W24
 BYTE   N72  An2
 BYTE   W24
// 010   ----------------------------------------
 BYTE   W48
 BYTE   N24  Fs3
 BYTE   W24
 BYTE   Gn2
 BYTE   W24
// 011   ----------------------------------------
 BYTE   An2
 BYTE   W24
 BYTE   N48  En2
 BYTE   W48
 BYTE   N24  Bn2
 BYTE   W24
// 012   ----------------------------------------
 BYTE   N48  Gn2
 BYTE   W48
 BYTE   N24  Dn3
 BYTE   W24
 BYTE   En3
 BYTE   W24
// 013   ----------------------------------------
 BYTE   Fs3
 BYTE   W24
 BYTE   Gn3
 BYTE   W24
 BYTE   N48  Fs3
 BYTE   W48
// 014   ----------------------------------------
 BYTE   N24  Bn3
 BYTE   W24
 BYTE   N72  Cn4
 BYTE   W72
// 015   ----------------------------------------
 BYTE   N24  Bn2
 BYTE   W24
 BYTE   An2
 BYTE   W24
 BYTE   Gn2
 BYTE   W24
 BYTE   N72  An3
 BYTE   W24
// 016   ----------------------------------------
 BYTE   W48
 BYTE   N24  Fs3
 BYTE   W24
 BYTE   Gn3
 BYTE   W24
// 017   ----------------------------------------
 BYTE   An2
 BYTE   W24
 BYTE   N48  En3
 BYTE   W48
 BYTE   N24  Bn2
 BYTE   W24
// 018   ----------------------------------------
 BYTE   N48  Gn3
 BYTE   W48
 BYTE   N24  Dn4
 BYTE   W24
 BYTE   En3
 BYTE   W24
// 019   ----------------------------------------
 BYTE   Fs4
 BYTE   W24
 BYTE   Gn3
 BYTE   W24
 BYTE   N48  Fs4
 BYTE   W48
// 020   ----------------------------------------
 BYTE   N24  Bn3
 BYTE   W21
 BYTE   GoTo
  POIN2 Label_4_010204BE
// 021   ----------------------------------------
 BYTE   W03
 BYTE   FINE

//**************** Track 6 (Midi-Chn.5) ****************//

songKratos_006:
// 000   ----------------------------------------
 BYTE   KEYSH   songKratos_key+0
Label_5_01020586:
 BYTE   VOICE   49
 BYTE   MODT 0
 BYTE   CnM2  v000
 BYTE   LFOS 0
 BYTE   CnM2  v044
 BYTE   VOL   26*songKratos_mvl/mxv
 BYTE   PAN   c_v+0
 BYTE   W24
 BYTE   N72  En2  v127
 BYTE   W72
// 001   ----------------------------------------
Label_5_01020597:
 BYTE   N24  Fs3  v127
 BYTE   W24
 BYTE   Gn3
 BYTE   W24
 BYTE   Bn3
 BYTE   W24
 BYTE   An3
 BYTE   W24
 BYTE   PEND 
// 002   ----------------------------------------
Label_5_010205A2:
 BYTE   N24  Dn4  v127
 BYTE   W24
 BYTE   Cn4
 BYTE   W24
 BYTE   N72  Bn3
 BYTE   W48
 BYTE   PEND 
// 003   ----------------------------------------
Label_5_010205AC:
 BYTE   W24
 BYTE   N48  En3  v127
 BYTE   W48
 BYTE   N24  Bn3
 BYTE   W24
 BYTE   PEND 
// 004   ----------------------------------------
Label_5_010205B5:
 BYTE   N24  Dn4  v127
 BYTE   W24
 BYTE   Cn4
 BYTE   W24
 BYTE   An3
 BYTE   W24
 BYTE   N72  Bn2
 BYTE   W24
 BYTE   PEND 
// 005   ----------------------------------------
 BYTE   W48
 BYTE   N24  An3
 BYTE   W24
 BYTE   Gn3
 BYTE   W24
// 006   ----------------------------------------
 BYTE   Fs3
 BYTE   W24
 BYTE   N72  En2
 BYTE   W72
 BYTE   PATT
  POIN2 Label_5_01020597
 BYTE   PATT
  POIN2 Label_5_010205A2
 BYTE   PATT
  POIN2 Label_5_010205AC
 BYTE   PATT
  POIN2 Label_5_010205B5
// 007   ----------------------------------------
 BYTE   W48
 BYTE   N24  An3  v127
 BYTE   W24
 BYTE   Fs2
 BYTE   W24
// 008   ----------------------------------------
 BYTE   Dn3
 BYTE   W24
 BYTE   N72  Cn3
 BYTE   W72
// 009   ----------------------------------------
 BYTE   N24  Bn3
 BYTE   W24
 BYTE   An3
 BYTE   W24
 BYTE   Gn3
 BYTE   W24
 BYTE   N72  An3
 BYTE   W24
// 010   ----------------------------------------
 BYTE   W48
 BYTE   N24  Fs2
 BYTE   W24
 BYTE   Gn3
 BYTE   W24
// 011   ----------------------------------------
 BYTE   An3
 BYTE   W24
 BYTE   N48  En3
 BYTE   W48
 BYTE   N24  Bn3
 BYTE   W24
// 012   ----------------------------------------
 BYTE   N48  Gn3
 BYTE   W48
 BYTE   N24  Dn4
 BYTE   W24
 BYTE   En4
 BYTE   W24
// 013   ----------------------------------------
 BYTE   Fs4
 BYTE   W24
 BYTE   Gn4
 BYTE   W24
 BYTE   N48  Fs4
 BYTE   W48
// 014   ----------------------------------------
 BYTE   N24  Bn2
 BYTE   W24
 BYTE   N72  Cn3
 BYTE   W72
// 015   ----------------------------------------
 BYTE   N24  Bn3
 BYTE   W24
 BYTE   An3
 BYTE   W24
 BYTE   Gn3
 BYTE   W24
 BYTE   N72  An2
 BYTE   W24
// 016   ----------------------------------------
 BYTE   W48
 BYTE   N24  Fs2
 BYTE   W24
 BYTE   Gn2
 BYTE   W24
// 017   ----------------------------------------
 BYTE   An3
 BYTE   W24
 BYTE   N48  En2
 BYTE   W48
 BYTE   N24  Bn3
 BYTE   W24
// 018   ----------------------------------------
 BYTE   N48  Gn2
 BYTE   W48
 BYTE   N24  Dn3
 BYTE   W24
 BYTE   En4
 BYTE   W24
// 019   ----------------------------------------
 BYTE   Fs3
 BYTE   W24
 BYTE   Gn4
 BYTE   W24
 BYTE   N48  Fs3
 BYTE   W48
// 020   ----------------------------------------
 BYTE   N24  Bn2
 BYTE   W21
 BYTE   GoTo
  POIN2 Label_5_01020586
// 021   ----------------------------------------
 BYTE   W03
 BYTE   FINE

//**************** Track 7 (Midi-Chn.6) ****************//

songKratos_007:
// 000   ----------------------------------------
 BYTE   KEYSH   songKratos_key+0
Label_6_0102064E:
 BYTE   VOICE   30
 BYTE   MODT 0
 BYTE   CnM2  v000
 BYTE   LFOS 0
 BYTE   CnM2  v044
 BYTE   VOL   35*songKratos_mvl/mxv
 BYTE   PAN   c_v+0
 BYTE   W24
 BYTE   N06  En1  v127
 BYTE   W24
 BYTE   N06
 BYTE   W24
 BYTE   N08  En2
 BYTE   W08
 BYTE   N08
 BYTE   W08
 BYTE   N08
 BYTE   W08
// 001   ----------------------------------------
Label_6_01020668:
 BYTE   N06  En1  v127
 BYTE   W24
 BYTE   N06
 BYTE   W24
 BYTE   N06
 BYTE   W24
 BYTE   N06
 BYTE   W24
 BYTE   PEND 
// 002   ----------------------------------------
Label_6_01020673:
 BYTE   N06  En1  v127
 BYTE   W24
 BYTE   N08  En2
 BYTE   W08
 BYTE   N08
 BYTE   W08
 BYTE   N08
 BYTE   W08
 BYTE   N06  En1
 BYTE   W24
 BYTE   N06
 BYTE   W24
 BYTE   PEND 
// 003   ----------------------------------------
Label_6_01020684:
 BYTE   N06  En1  v127
 BYTE   W24
 BYTE   N06
 BYTE   W24
 BYTE   N06
 BYTE   W24
 BYTE   N08  En2
 BYTE   W08
 BYTE   N08
 BYTE   W08
 BYTE   N08
 BYTE   W08
 BYTE   PEND 
 BYTE   PATT
  POIN2 Label_6_01020668
// 004   ----------------------------------------
Label_6_01020699:
 BYTE   N06  En1  v127
 BYTE   W24
 BYTE   N08  En2
 BYTE   W08
 BYTE   N08
 BYTE   W08
 BYTE   N08
 BYTE   W08
 BYTE   N06  Dn1
 BYTE   W24
 BYTE   N06
 BYTE   W24
 BYTE   PEND 
// 005   ----------------------------------------
 BYTE   N06
 BYTE   W24
 BYTE   En1
 BYTE   W24
 BYTE   N06
 BYTE   W24
 BYTE   N08  En2
 BYTE   W08
 BYTE   N08
 BYTE   W08
 BYTE   N08
 BYTE   W08
 BYTE   PATT
  POIN2 Label_6_01020668
 BYTE   PATT
  POIN2 Label_6_01020673
 BYTE   PATT
  POIN2 Label_6_01020684
 BYTE   PATT
  POIN2 Label_6_01020668
 BYTE   PATT
  POIN2 Label_6_01020699
// 006   ----------------------------------------
 BYTE   N06  Dn1  v127
 BYTE   W24
 BYTE   Cn2
 BYTE   W24
 BYTE   N06
 BYTE   W24
 BYTE   N08
 BYTE   W08
 BYTE   N08
 BYTE   W08
 BYTE   N08
 BYTE   W08
// 007   ----------------------------------------
Label_6_010206DE:
 BYTE   N06  Cn2  v127
 BYTE   W24
 BYTE   N06
 BYTE   W24
 BYTE   N06
 BYTE   W24
 BYTE   An1
 BYTE   W24
 BYTE   PEND 
// 008   ----------------------------------------
 BYTE   N06
 BYTE   W24
 BYTE   N08
 BYTE   W08
 BYTE   N08
 BYTE   W08
 BYTE   N08
 BYTE   W08
 BYTE   N06  Fs1
 BYTE   W24
 BYTE   N06
 BYTE   W24
// 009   ----------------------------------------
Label_6_010206F6:
 BYTE   N06  Fs1  v127
 BYTE   W24
 BYTE   Cn2
 BYTE   W24
 BYTE   N06
 BYTE   W24
 BYTE   N08
 BYTE   W08
 BYTE   N08
 BYTE   W08
 BYTE   N08
 BYTE   W08
 BYTE   PEND 
// 010   ----------------------------------------
Label_6_01020705:
 BYTE   N06  Dn2  v127
 BYTE   W24
 BYTE   N06
 BYTE   W24
 BYTE   N06
 BYTE   W24
 BYTE   En2
 BYTE   W24
 BYTE   PEND 
// 011   ----------------------------------------
 BYTE   N06
 BYTE   W24
 BYTE   N08
 BYTE   W08
 BYTE   N08
 BYTE   W08
 BYTE   N08
 BYTE   W08
 BYTE   N06  Fs1
 BYTE   W24
 BYTE   N06
 BYTE   W24
 BYTE   PATT
  POIN2 Label_6_010206F6
 BYTE   PATT
  POIN2 Label_6_010206DE
// 012   ----------------------------------------
 BYTE   N06  An1  v127
 BYTE   W24
 BYTE   N08
 BYTE   W08
 BYTE   N08
 BYTE   W08
 BYTE   N08
 BYTE   W08
 BYTE   N06  Fs0
 BYTE   W24
 BYTE   N06
 BYTE   W24
// 013   ----------------------------------------
 BYTE   N06
 BYTE   W24
 BYTE   Cn2
 BYTE   W24
 BYTE   N06
 BYTE   W24
 BYTE   N08
 BYTE   W08
 BYTE   N08
 BYTE   W08
 BYTE   N08
 BYTE   W08
 BYTE   PATT
  POIN2 Label_6_01020705
// 014   ----------------------------------------
 BYTE   N06  En2  v127
 BYTE   W24
 BYTE   N08
 BYTE   W08
 BYTE   N08
 BYTE   W08
 BYTE   N08
 BYTE   W08
 BYTE   N06  Fs2
 BYTE   W24
 BYTE   N06
 BYTE   W24
// 015   ----------------------------------------
 BYTE   N06
 BYTE   W21
 BYTE   GoTo
  POIN2 Label_6_0102064E
// 016   ----------------------------------------
 BYTE   W03
 BYTE   FINE

//**************** Track 8 (Midi-Chn.7) ****************//

songKratos_008:
// 000   ----------------------------------------
 BYTE   KEYSH   songKratos_key+0
Label_7_01020762:
 BYTE   VOICE   30
 BYTE   MODT 0
 BYTE   CnM2  v000
 BYTE   LFOS 0
 BYTE   CnM2  v044
 BYTE   VOL   35*songKratos_mvl/mxv
 BYTE   PAN   c_v+0
 BYTE   W24
 BYTE   N06  En2  v127
 BYTE   W24
 BYTE   N06
 BYTE   W24
 BYTE   N08  En1
 BYTE   W08
 BYTE   N08
 BYTE   W08
 BYTE   N08
 BYTE   W08
// 001   ----------------------------------------
Label_7_0102077C:
 BYTE   N06  En2  v127
 BYTE   W24
 BYTE   N06
 BYTE   W24
 BYTE   N06
 BYTE   W24
 BYTE   N06
 BYTE   W24
 BYTE   PEND 
// 002   ----------------------------------------
Label_7_01020787:
 BYTE   N06  En2  v127
 BYTE   W24
 BYTE   N08  En1
 BYTE   W08
 BYTE   N08
 BYTE   W08
 BYTE   N08
 BYTE   W08
 BYTE   N06  En2
 BYTE   W24
 BYTE   N06
 BYTE   W24
 BYTE   PEND 
// 003   ----------------------------------------
Label_7_01020798:
 BYTE   N06  En2  v127
 BYTE   W24
 BYTE   N06
 BYTE   W24
 BYTE   N06
 BYTE   W24
 BYTE   N08  En1
 BYTE   W08
 BYTE   N08
 BYTE   W08
 BYTE   N08
 BYTE   W08
 BYTE   PEND 
 BYTE   PATT
  POIN2 Label_7_0102077C
// 004   ----------------------------------------
Label_7_010207AD:
 BYTE   N06  En2  v127
 BYTE   W24
 BYTE   N08  En1
 BYTE   W08
 BYTE   N08
 BYTE   W08
 BYTE   N08
 BYTE   W08
 BYTE   N06  Dn2
 BYTE   W24
 BYTE   N06
 BYTE   W24
 BYTE   PEND 
// 005   ----------------------------------------
 BYTE   N06
 BYTE   W24
 BYTE   En2
 BYTE   W24
 BYTE   N06
 BYTE   W24
 BYTE   N08  En1
 BYTE   W08
 BYTE   N08
 BYTE   W08
 BYTE   N08
 BYTE   W08
 BYTE   PATT
  POIN2 Label_7_0102077C
 BYTE   PATT
  POIN2 Label_7_01020787
 BYTE   PATT
  POIN2 Label_7_01020798
 BYTE   PATT
  POIN2 Label_7_0102077C
 BYTE   PATT
  POIN2 Label_7_010207AD
// 006   ----------------------------------------
 BYTE   N06  Dn2  v127
 BYTE   W24
 BYTE   Cn1
 BYTE   W24
 BYTE   N06
 BYTE   W24
 BYTE   N08
 BYTE   W08
 BYTE   N08
 BYTE   W08
 BYTE   N08
 BYTE   W08
// 007   ----------------------------------------
Label_7_010207F2:
 BYTE   N06  Cn1  v127
 BYTE   W24
 BYTE   N06
 BYTE   W24
 BYTE   N06
 BYTE   W24
 BYTE   An0
 BYTE   W24
 BYTE   PEND 
// 008   ----------------------------------------
 BYTE   N06
 BYTE   W24
 BYTE   N08
 BYTE   W08
 BYTE   N08
 BYTE   W08
 BYTE   N08
 BYTE   W08
 BYTE   N06  Fs0
 BYTE   W24
 BYTE   N06
 BYTE   W24
// 009   ----------------------------------------
 BYTE   N06
 BYTE   W24
 BYTE   Cn1
 BYTE   W24
 BYTE   N06
 BYTE   W24
 BYTE   N08
 BYTE   W08
 BYTE   N08
 BYTE   W08
 BYTE   N08
 BYTE   W08
// 010   ----------------------------------------
Label_7_01020816:
 BYTE   N06  Dn1  v127
 BYTE   W24
 BYTE   N06
 BYTE   W24
 BYTE   N06
 BYTE   W24
 BYTE   En1
 BYTE   W24
 BYTE   PEND 
// 011   ----------------------------------------
 BYTE   N06
 BYTE   W24
 BYTE   N08
 BYTE   W08
 BYTE   N08
 BYTE   W08
 BYTE   N08
 BYTE   W08
 BYTE   N06  Fs2
 BYTE   W24
 BYTE   N06
 BYTE   W24
// 012   ----------------------------------------
 BYTE   N06
 BYTE   W24
 BYTE   Cn1
 BYTE   W24
 BYTE   N06
 BYTE   W24
 BYTE   N08
 BYTE   W08
 BYTE   N08
 BYTE   W08
 BYTE   N08
 BYTE   W08
 BYTE   PATT
  POIN2 Label_7_010207F2
// 013   ----------------------------------------
 BYTE   N06  An0  v127
 BYTE   W24
 BYTE   N08
 BYTE   W08
 BYTE   N08
 BYTE   W08
 BYTE   N08
 BYTE   W08
 BYTE   N06  Fs1
 BYTE   W24
 BYTE   N06
 BYTE   W24
// 014   ----------------------------------------
 BYTE   N06
 BYTE   W24
 BYTE   Cn1
 BYTE   W24
 BYTE   N06
 BYTE   W24
 BYTE   N08
 BYTE   W08
 BYTE   N08
 BYTE   W08
 BYTE   N08
 BYTE   W08
 BYTE   PATT
  POIN2 Label_7_01020816
// 015   ----------------------------------------
 BYTE   N06  En1  v127
 BYTE   W24
 BYTE   N08
 BYTE   W08
 BYTE   N08
 BYTE   W08
 BYTE   N08
 BYTE   W08
 BYTE   N06  Fs1
 BYTE   W24
 BYTE   N06
 BYTE   W24
// 016   ----------------------------------------
 BYTE   N06
 BYTE   W21
 BYTE   GoTo
  POIN2 Label_7_01020762
// 017   ----------------------------------------
 BYTE   W03
 BYTE   FINE

//**************** Track 9 (Midi-Chn.8) ****************//

songKratos_009:
// 000   ----------------------------------------
 BYTE   KEYSH   songKratos_key+0
Label_8_0102087A:
 BYTE   VOICE   35
 BYTE   MODT 0
 BYTE   CnM2  v000
 BYTE   LFOS 0
 BYTE   CnM2  v044
 BYTE   VOL   26*songKratos_mvl/mxv
 BYTE   PAN   c_v+0
 BYTE   W96
// 001   ----------------------------------------
 BYTE   W96
// 002   ----------------------------------------
 BYTE   W96
// 003   ----------------------------------------
 BYTE   W96
// 004   ----------------------------------------
 BYTE   W96
// 005   ----------------------------------------
 BYTE   W96
// 006   ----------------------------------------
 BYTE   W24
 BYTE   N72  En1  v127
 BYTE   W72
// 007   ----------------------------------------
 BYTE   N24  Fs1
 BYTE   W24
 BYTE   Gn2
 BYTE   W24
 BYTE   Bn2
 BYTE   W24
 BYTE   Cn3
 BYTE   W24
// 008   ----------------------------------------
 BYTE   Bn2
 BYTE   W24
 BYTE   An2
 BYTE   W24
 BYTE   N72  Bn2
 BYTE   W48
// 009   ----------------------------------------
 BYTE   W24
 BYTE   N48
 BYTE   W48
 BYTE   N24  Gn1
 BYTE   W24
// 010   ----------------------------------------
 BYTE   N08  Gn2
 BYTE   W08
 BYTE   An2
 BYTE   W08
 BYTE   Gn2
 BYTE   W08
 BYTE   N48  An2
 BYTE   W48
 BYTE   N72  An1
 BYTE   W24
// 011   ----------------------------------------
 BYTE   W48
 BYTE   N08  Bn2
 BYTE   W08
 BYTE   N08
 BYTE   W08
 BYTE   N08
 BYTE   W08
 BYTE   N08
 BYTE   W08
 BYTE   N08
 BYTE   W08
 BYTE   N08
 BYTE   W08
// 012   ----------------------------------------
 BYTE   N08
 BYTE   W96
// 013   ----------------------------------------
 BYTE   W96
// 014   ----------------------------------------
 BYTE   W96
// 015   ----------------------------------------
 BYTE   W96
// 016   ----------------------------------------
 BYTE   W96
// 017   ----------------------------------------
 BYTE   W96
// 018   ----------------------------------------
 BYTE   W96
// 019   ----------------------------------------
 BYTE   W96
// 020   ----------------------------------------
 BYTE   W96
// 021   ----------------------------------------
 BYTE   W96
// 022   ----------------------------------------
 BYTE   W96
// 023   ----------------------------------------
 BYTE   W96
// 024   ----------------------------------------
 BYTE   W21
 BYTE   GoTo
  POIN2 Label_8_0102087A
// 025   ----------------------------------------
 BYTE   W03
 BYTE   FINE

//**************** Track 10 (Midi-Chn.9) ****************//

songKratos_010:
// 000   ----------------------------------------
 BYTE   KEYSH   songKratos_key+0
Label_9_010208DA:
 BYTE   VOICE   35
 BYTE   MODT 0
 BYTE   CnM2  v000
 BYTE   LFOS 0
 BYTE   CnM2  v044
 BYTE   VOL   26*songKratos_mvl/mxv
 BYTE   PAN   c_v+0
 BYTE   W96
// 001   ----------------------------------------
 BYTE   W96
// 002   ----------------------------------------
 BYTE   W96
// 003   ----------------------------------------
 BYTE   W96
// 004   ----------------------------------------
 BYTE   W96
// 005   ----------------------------------------
 BYTE   W96
// 006   ----------------------------------------
 BYTE   W24
 BYTE   N72  En2  v127
 BYTE   W72
// 007   ----------------------------------------
 BYTE   N24  Fs2
 BYTE   W24
 BYTE   Gn1
 BYTE   W24
 BYTE   Bn1
 BYTE   W24
 BYTE   Cn2
 BYTE   W24
// 008   ----------------------------------------
 BYTE   Bn1
 BYTE   W24
 BYTE   An1
 BYTE   W24
 BYTE   N72  Bn1
 BYTE   W48
// 009   ----------------------------------------
 BYTE   W24
 BYTE   N48
 BYTE   W48
 BYTE   N24  Gn2
 BYTE   W24
// 010   ----------------------------------------
 BYTE   N08  Gn1
 BYTE   W08
 BYTE   An1
 BYTE   W08
 BYTE   Gn1
 BYTE   W08
 BYTE   N48  An1
 BYTE   W48
 BYTE   N72  An2
 BYTE   W24
// 011   ----------------------------------------
 BYTE   W48
 BYTE   N08  Bn1
 BYTE   W08
 BYTE   N08
 BYTE   W08
 BYTE   N08
 BYTE   W08
 BYTE   N08
 BYTE   W08
 BYTE   N08
 BYTE   W08
 BYTE   N08
 BYTE   W08
// 012   ----------------------------------------
 BYTE   N08
 BYTE   W96
// 013   ----------------------------------------
 BYTE   W96
// 014   ----------------------------------------
 BYTE   W96
// 015   ----------------------------------------
 BYTE   W96
// 016   ----------------------------------------
 BYTE   W96
// 017   ----------------------------------------
 BYTE   W96
// 018   ----------------------------------------
 BYTE   W96
// 019   ----------------------------------------
 BYTE   W96
// 020   ----------------------------------------
 BYTE   W96
// 021   ----------------------------------------
 BYTE   W96
// 022   ----------------------------------------
 BYTE   W96
// 023   ----------------------------------------
 BYTE   W96
// 024   ----------------------------------------
 BYTE   W21
 BYTE   GoTo
  POIN2 Label_9_010208DA
// 025   ----------------------------------------
 BYTE   W03
 BYTE   FINE

//**************** Track 11 (Midi-Chn.10) ****************//

songKratos_011:
// 000   ----------------------------------------
 BYTE   KEYSH   songKratos_key+0
Label_10_0102093A:
 BYTE   VOICE   121
 BYTE   MODT 0
 BYTE   CnM2  v000
 BYTE   LFOS 0
 BYTE   CnM2  v044
 BYTE   VOL   26*songKratos_mvl/mxv
 BYTE   PAN   c_v+0
 BYTE   W96
// 001   ----------------------------------------
 BYTE   W96
// 002   ----------------------------------------
 BYTE   W96
// 003   ----------------------------------------
 BYTE   W96
// 004   ----------------------------------------
 BYTE   W96
// 005   ----------------------------------------
 BYTE   W96
// 006   ----------------------------------------
 BYTE   W96
// 007   ----------------------------------------
 BYTE   W96
// 008   ----------------------------------------
 BYTE   W96
// 009   ----------------------------------------
 BYTE   W96
// 010   ----------------------------------------
 BYTE   W96
// 011   ----------------------------------------
 BYTE   W96
// 012   ----------------------------------------
 BYTE   W24
 BYTE   N06  Dn1  v127
 BYTE   W24
 BYTE   N06
 BYTE   W24
 BYTE   N08
 BYTE   W08
 BYTE   N08
 BYTE   W08
 BYTE   N08
 BYTE   W08
// 013   ----------------------------------------
Label_10_0102095F:
 BYTE   N06  Dn1  v127
 BYTE   W24
 BYTE   N06
 BYTE   W24
 BYTE   N06
 BYTE   W24
 BYTE   N06
 BYTE   W24
 BYTE   PEND 
// 014   ----------------------------------------
Label_10_0102096A:
 BYTE   N06  Dn1  v127
 BYTE   W24
 BYTE   N08
 BYTE   W08
 BYTE   N08
 BYTE   W08
 BYTE   N08
 BYTE   W08
 BYTE   N08
 BYTE   W08
 BYTE   N08
 BYTE   W08
 BYTE   N08
 BYTE   W08
 BYTE   N08
 BYTE   W08
 BYTE   N08
 BYTE   W08
 BYTE   N08
 BYTE   W08
 BYTE   PEND 
// 015   ----------------------------------------
Label_10_01020981:
 BYTE   N08  Dn1  v127
 BYTE   W08
 BYTE   N08
 BYTE   W08
 BYTE   N08
 BYTE   W08
 BYTE   N06
 BYTE   W24
 BYTE   N06
 BYTE   W24
 BYTE   N08
 BYTE   W08
 BYTE   N08
 BYTE   W08
 BYTE   N08
 BYTE   W08
 BYTE   PEND 
 BYTE   PATT
  POIN2 Label_10_0102095F
 BYTE   PATT
  POIN2 Label_10_0102096A
 BYTE   PATT
  POIN2 Label_10_01020981
 BYTE   PATT
  POIN2 Label_10_0102095F
 BYTE   PATT
  POIN2 Label_10_0102096A
 BYTE   PATT
  POIN2 Label_10_01020981
 BYTE   PATT
  POIN2 Label_10_0102095F
 BYTE   PATT
  POIN2 Label_10_0102096A
// 016   ----------------------------------------
 BYTE   N08  Dn1  v127
 BYTE   W08
 BYTE   N08
 BYTE   W08
 BYTE   N08
 BYTE   W05
 BYTE   GoTo
  POIN2 Label_10_0102093A
// 017   ----------------------------------------
 BYTE   W03
 BYTE   FINE

//******************************************************//
	ALIGN 4

songKratos:
	BYTE	11	// NumTrks
	BYTE	0	// NumBlks
	BYTE	songKratos_pri	// Priority
	BYTE	songKratos_rev	// Reverb.
    
	POIN2	songKratos_grp
    
	POIN2	songKratos_001
	POIN2	songKratos_002
	POIN2	songKratos_003
	POIN2	songKratos_004
	POIN2	songKratos_005
	POIN2	songKratos_006
	POIN2	songKratos_007
	POIN2	songKratos_008
	POIN2	songKratos_009
	POIN2	songKratos_010
	POIN2	songKratos_011

	
