//Event file generated from Sappy .s format.
	#include "MPlayDef.event"

	#define	songLegendsOfAvenir_grp  voicegroup000
	#define	songLegendsOfAvenir_pri  0
	#define	songLegendsOfAvenir_rev  0
	#define	songLegendsOfAvenir_mvl  127
	#define	songLegendsOfAvenir_key  0
	#define	songLegendsOfAvenir_tbs  1
	#define	songLegendsOfAvenir_exg  0
	#define	songLegendsOfAvenir_cmp  1

	// .rodata
	//	songLegendsOfAvenir
	ALIGN 4


//**************** Track 1 (Midi-Chn.0) ****************//

songLegendsOfAvenir_001:
// 000   ----------------------------------------
 BYTE   VOL   80*songLegendsOfAvenir_mvl/mxv
 BYTE   KEYSH   songLegendsOfAvenir_key+0
Label_0_0145A684:
 BYTE   TEMPO   90*songLegendsOfAvenir_tbs/2
 BYTE   VOICE   61
 BYTE   W96
// 001   ----------------------------------------
 BYTE   W96
// 002   ----------------------------------------
 BYTE   W96
// 003   ----------------------------------------
 BYTE   W96
// 004   ----------------------------------------
 BYTE   W96
// 005   ----------------------------------------
 BYTE   W96
// 006   ----------------------------------------
 BYTE   W96
// 007   ----------------------------------------
 BYTE   W96
// 008   ----------------------------------------
 BYTE   W96
// 009   ----------------------------------------
 BYTE   W96
// 010   ----------------------------------------
 BYTE   W96
// 011   ----------------------------------------
Label_0_0145A693:
 BYTE   N48  As3  v048
 BYTE   W48
 BYTE   Bn3
 BYTE   W48
 BYTE   PEND 
// 012   ----------------------------------------
 BYTE   N96  Ds4
 BYTE   W96
// 013   ----------------------------------------
 BYTE   N12  En4
 BYTE   W24
 BYTE   Bn3
 BYTE   W12
 BYTE   N36  As3
 BYTE   W36
 BYTE   N12  Fs3
 BYTE   W24
// 014   ----------------------------------------
 BYTE   N96  Gs3
 BYTE   W96
// 015   ----------------------------------------
 BYTE   PATT
  POIN2 Label_0_0145A693
// 016   ----------------------------------------
 BYTE   N96  Fs3  v048
 BYTE   W96
// 017   ----------------------------------------
 BYTE   N12  En4
 BYTE   W12
 BYTE   Ds4
 BYTE   W24
 BYTE   N36  As3
 BYTE   W36
 BYTE   N12  Fs3
 BYTE   W24
// 018   ----------------------------------------
 BYTE   N48  En3
 BYTE   W48
 BYTE   N24  As3
 BYTE   W24
 BYTE   Bn3
 BYTE   W24
// 019   ----------------------------------------
 BYTE   N48  As3
 BYTE   W48
 BYTE   N24  Ds4
 BYTE   W24
 BYTE   En4
 BYTE   W24
// 020   ----------------------------------------
 BYTE   N96  Ds4
 BYTE   W96
// 021   ----------------------------------------
 BYTE   Gs3
 BYTE   W96
// 022   ----------------------------------------
 BYTE   GoTo
  POIN2 Label_0_0145A684
 BYTE   FINE

//**************** Track 2 (Midi-Chn.1) ****************//

songLegendsOfAvenir_002:
// 000   ----------------------------------------
 BYTE   VOL   80*songLegendsOfAvenir_mvl/mxv
 BYTE   KEYSH   songLegendsOfAvenir_key+0
Label_1_0145A304:
 BYTE   VOICE   71
 BYTE   N48  As3  v048
 BYTE   W48
 BYTE   Bn3
 BYTE   W48
// 001   ----------------------------------------
 BYTE   N96  Ds4
 BYTE   W96
// 002   ----------------------------------------
 BYTE   N12  En4
 BYTE   W24
 BYTE   Bn3
 BYTE   W12
 BYTE   N36  As3
 BYTE   W36
 BYTE   N12  Fs3
 BYTE   W24
// 003   ----------------------------------------
 BYTE   N96  Gs3
 BYTE   W96
// 004   ----------------------------------------
 BYTE   N48  As3
 BYTE   W48
 BYTE   Bn3
 BYTE   W48
// 005   ----------------------------------------
 BYTE   N96  Fs3
 BYTE   W96
// 006   ----------------------------------------
 BYTE   N12  En4
 BYTE   W12
 BYTE   Ds4
 BYTE   W24
 BYTE   N36  As3
 BYTE   W36
 BYTE   N12  Fs3
 BYTE   W24
// 007   ----------------------------------------
 BYTE   N48  En3
 BYTE   W48
 BYTE   N24  As3
 BYTE   W24
 BYTE   Bn3
 BYTE   W24
// 008   ----------------------------------------
 BYTE   N48  As3
 BYTE   W48
 BYTE   N24  Ds4
 BYTE   W24
 BYTE   En4
 BYTE   W24
// 009   ----------------------------------------
 BYTE   N96  Ds4
 BYTE   W96
// 010   ----------------------------------------
 BYTE   Gs3
 BYTE   W96
// 011   ----------------------------------------
 BYTE   W96
// 012   ----------------------------------------
 BYTE   W96
// 013   ----------------------------------------
 BYTE   W96
// 014   ----------------------------------------
 BYTE   W96
// 015   ----------------------------------------
 BYTE   W96
// 016   ----------------------------------------
 BYTE   W96
// 017   ----------------------------------------
 BYTE   W96
// 018   ----------------------------------------
 BYTE   W96
// 019   ----------------------------------------
 BYTE   W96
// 020   ----------------------------------------
 BYTE   W96
// 021   ----------------------------------------
 BYTE   W96
// 022   ----------------------------------------
 BYTE   GoTo
  POIN2 Label_1_0145A304
 BYTE   FINE

//**************** Track 3 (Midi-Chn.2) ****************//

songLegendsOfAvenir_003:
// 000   ----------------------------------------
 BYTE   VOL   80*songLegendsOfAvenir_mvl/mxv
 BYTE   KEYSH   songLegendsOfAvenir_key+0
Label_2_0145A6F4:
 BYTE   VOICE   68
 BYTE   N48  As3  v064
 BYTE   W48
 BYTE   Bn3
 BYTE   W48
// 001   ----------------------------------------
 BYTE   N96  Ds4
 BYTE   W96
// 002   ----------------------------------------
Label_2_0145A6FF:
 BYTE   N12  En4  v064
 BYTE   W24
 BYTE   Bn3
 BYTE   W12
 BYTE   N36  As3
 BYTE   W36
 BYTE   N12  Fs3
 BYTE   W24
 BYTE   PEND 
// 003   ----------------------------------------
 BYTE   N96  Gs3
 BYTE   W96
// 004   ----------------------------------------
Label_2_0145A70F:
 BYTE   N48  As3  v064
 BYTE   W48
 BYTE   Bn3
 BYTE   W48
 BYTE   PEND 
// 005   ----------------------------------------
 BYTE   N96  Fs3
 BYTE   W96
// 006   ----------------------------------------
Label_2_0145A719:
 BYTE   N12  En4  v064
 BYTE   W12
 BYTE   Ds4
 BYTE   W24
 BYTE   N36  As3
 BYTE   W36
 BYTE   N12  Fs3
 BYTE   W24
 BYTE   PEND 
// 007   ----------------------------------------
Label_2_0145A726:
 BYTE   N48  En3  v064
 BYTE   W48
 BYTE   N24  As3
 BYTE   W24
 BYTE   Bn3
 BYTE   W24
 BYTE   PEND 
// 008   ----------------------------------------
Label_2_0145A730:
 BYTE   N48  As3  v064
 BYTE   W48
 BYTE   N24  Ds4
 BYTE   W24
 BYTE   En4
 BYTE   W24
 BYTE   PEND 
// 009   ----------------------------------------
 BYTE   N96  Ds4
 BYTE   W96
// 010   ----------------------------------------
 BYTE   Gs3
 BYTE   W96
// 011   ----------------------------------------
 BYTE   PATT
  POIN2 Label_2_0145A70F
// 012   ----------------------------------------
 BYTE   N96  Ds4  v064
 BYTE   W96
// 013   ----------------------------------------
 BYTE   PATT
  POIN2 Label_2_0145A6FF
// 014   ----------------------------------------
 BYTE   N96  Gs3  v064
 BYTE   W96
// 015   ----------------------------------------
 BYTE   PATT
  POIN2 Label_2_0145A70F
// 016   ----------------------------------------
 BYTE   N96  Fs3  v064
 BYTE   W96
// 017   ----------------------------------------
 BYTE   PATT
  POIN2 Label_2_0145A719
// 018   ----------------------------------------
 BYTE   PATT
  POIN2 Label_2_0145A726
// 019   ----------------------------------------
 BYTE   PATT
  POIN2 Label_2_0145A730
// 020   ----------------------------------------
 BYTE   N96  Ds4  v064
 BYTE   W96
// 021   ----------------------------------------
 BYTE   Gs3
 BYTE   W96
// 022   ----------------------------------------
 BYTE   GoTo
  POIN2 Label_2_0145A6F4
 BYTE   FINE

//**************** Track 4 (Midi-Chn.3) ****************//

songLegendsOfAvenir_004:
// 000   ----------------------------------------
 BYTE   VOL   80*songLegendsOfAvenir_mvl/mxv
 BYTE   KEYSH   songLegendsOfAvenir_key+0
Label_3_0145A380:
 BYTE   VOICE   51
 BYTE   N96  En1  v064
 BYTE   W96
// 001   ----------------------------------------
 BYTE   Cs1
 BYTE   W96
// 002   ----------------------------------------
 BYTE   Ds1
 BYTE   W96
// 003   ----------------------------------------
 BYTE   En1
 BYTE   W96
// 004   ----------------------------------------
 BYTE   N96
 BYTE   W96
// 005   ----------------------------------------
 BYTE   Cs1
 BYTE   W96
// 006   ----------------------------------------
 BYTE   Ds1
 BYTE   W96
// 007   ----------------------------------------
 BYTE   En1
 BYTE   W96
// 008   ----------------------------------------
 BYTE   N96
 BYTE   W96
// 009   ----------------------------------------
 BYTE   Fs1
 BYTE   W96
// 010   ----------------------------------------
 BYTE   En1
 BYTE   W96
// 011   ----------------------------------------
 BYTE   N96
 BYTE   W96
// 012   ----------------------------------------
 BYTE   Cs1
 BYTE   W96
// 013   ----------------------------------------
 BYTE   Ds1
 BYTE   W96
// 014   ----------------------------------------
 BYTE   En1
 BYTE   W96
// 015   ----------------------------------------
 BYTE   N96
 BYTE   W96
// 016   ----------------------------------------
 BYTE   Cs1
 BYTE   W96
// 017   ----------------------------------------
 BYTE   Ds1
 BYTE   W96
// 018   ----------------------------------------
 BYTE   En1
 BYTE   W96
// 019   ----------------------------------------
 BYTE   N96
 BYTE   W96
// 020   ----------------------------------------
 BYTE   Fs1
 BYTE   W96
// 021   ----------------------------------------
 BYTE   En1
 BYTE   W96
// 022   ----------------------------------------
 BYTE   GoTo
  POIN2 Label_3_0145A380
 BYTE   FINE

//**************** Track 5 (Midi-Chn.4) ****************//

songLegendsOfAvenir_005:
// 000   ----------------------------------------
 BYTE   VOL   80*songLegendsOfAvenir_mvl/mxv
 BYTE   KEYSH   songLegendsOfAvenir_key+0
Label_4_0145EB88:
 BYTE   VOICE   48
 BYTE   N96  En2  v040
 BYTE   N96  Gs2
 BYTE   N96  Bn2
 BYTE   W96
// 001   ----------------------------------------
Label_4_0145EB92:
 BYTE   N96  Cs2  v040
 BYTE   N96  En2
 BYTE   N96  Gs2
 BYTE   W96
 BYTE   PEND 
// 002   ----------------------------------------
Label_4_0145EB9B:
 BYTE   N96  Ds2  v040
 BYTE   N96  Fs2
 BYTE   N96  As2
 BYTE   W96
 BYTE   PEND 
// 003   ----------------------------------------
Label_4_0145EBA4:
 BYTE   N96  En2  v040
 BYTE   N96  Gs2
 BYTE   N96  Bn2
 BYTE   W96
 BYTE   PEND 
// 004   ----------------------------------------
 BYTE   PATT
  POIN2 Label_4_0145EBA4
// 005   ----------------------------------------
 BYTE   PATT
  POIN2 Label_4_0145EB92
// 006   ----------------------------------------
 BYTE   PATT
  POIN2 Label_4_0145EB9B
// 007   ----------------------------------------
 BYTE   PATT
  POIN2 Label_4_0145EBA4
// 008   ----------------------------------------
 BYTE   N96  En2  v040
 BYTE   N96  As2
 BYTE   N96  Cs3
 BYTE   W96
// 009   ----------------------------------------
 BYTE   Fs2
 BYTE   N96  Bn2
 BYTE   N96  Ds3
 BYTE   W96
// 010   ----------------------------------------
 BYTE   PATT
  POIN2 Label_4_0145EBA4
// 011   ----------------------------------------
 BYTE   W96
// 012   ----------------------------------------
 BYTE   W96
// 013   ----------------------------------------
 BYTE   W96
// 014   ----------------------------------------
 BYTE   W96
// 015   ----------------------------------------
 BYTE   W96
// 016   ----------------------------------------
 BYTE   W96
// 017   ----------------------------------------
 BYTE   W96
// 018   ----------------------------------------
 BYTE   W96
// 019   ----------------------------------------
 BYTE   W96
// 020   ----------------------------------------
 BYTE   W96
// 021   ----------------------------------------
 BYTE   W96
// 022   ----------------------------------------
 BYTE   GoTo
  POIN2 Label_4_0145EB88
 BYTE   FINE

//**************** Track 6 (Midi-Chn.5) ****************//

songLegendsOfAvenir_006:
// 000   ----------------------------------------
 BYTE   VOL   80*songLegendsOfAvenir_mvl/mxv
 BYTE   KEYSH   songLegendsOfAvenir_key+0
Label_5_0145EBEC:
 BYTE   VOICE   48
 BYTE   W96
// 001   ----------------------------------------
 BYTE   W96
// 002   ----------------------------------------
 BYTE   W96
// 003   ----------------------------------------
 BYTE   W96
// 004   ----------------------------------------
 BYTE   W96
// 005   ----------------------------------------
 BYTE   W96
// 006   ----------------------------------------
 BYTE   W96
// 007   ----------------------------------------
 BYTE   W96
// 008   ----------------------------------------
 BYTE   W96
// 009   ----------------------------------------
 BYTE   W96
// 010   ----------------------------------------
 BYTE   W96
// 011   ----------------------------------------
Label_5_0145EBF9:
 BYTE   N96  En2  v040
 BYTE   N96  Gs2
 BYTE   N96  Bn2
 BYTE   W96
 BYTE   PEND 
// 012   ----------------------------------------
Label_5_0145EC02:
 BYTE   N96  Cs2  v040
 BYTE   N96  En2
 BYTE   N96  Gs2
 BYTE   W96
 BYTE   PEND 
// 013   ----------------------------------------
Label_5_0145EC0B:
 BYTE   N96  Ds2  v040
 BYTE   N96  Fs2
 BYTE   N96  As2
 BYTE   W96
 BYTE   PEND 
// 014   ----------------------------------------
 BYTE   PATT
  POIN2 Label_5_0145EBF9
// 015   ----------------------------------------
 BYTE   PATT
  POIN2 Label_5_0145EBF9
// 016   ----------------------------------------
 BYTE   PATT
  POIN2 Label_5_0145EC02
// 017   ----------------------------------------
 BYTE   PATT
  POIN2 Label_5_0145EC0B
// 018   ----------------------------------------
 BYTE   PATT
  POIN2 Label_5_0145EBF9
// 019   ----------------------------------------
 BYTE   N96  En2  v040
 BYTE   N96  As2
 BYTE   N96  Cs3
 BYTE   W96
// 020   ----------------------------------------
 BYTE   Fs2
 BYTE   N96  Bn2
 BYTE   N96  Ds3
 BYTE   W96
// 021   ----------------------------------------
 BYTE   PATT
  POIN2 Label_5_0145EBF9
// 022   ----------------------------------------
 BYTE   GoTo
  POIN2 Label_5_0145EBEC
 BYTE   FINE

//**************** Track 7 (Midi-Chn.6) ****************//

songLegendsOfAvenir_007:
// 000   ----------------------------------------
 BYTE   VOL   80*songLegendsOfAvenir_mvl/mxv
 BYTE   KEYSH   songLegendsOfAvenir_key+0
Label_6_0145EC4C:
 BYTE   VOICE   124
 BYTE   N12  Dn1  v052
 BYTE   W12
 BYTE   N12
 BYTE   W84
// 001   ----------------------------------------
Label_6_0145EC54:
 BYTE   N12  Dn1  v052
 BYTE   W12
 BYTE   N12
 BYTE   W84
 BYTE   PEND 
// 002   ----------------------------------------
 BYTE   PATT
  POIN2 Label_6_0145EC54
// 003   ----------------------------------------
 BYTE   PATT
  POIN2 Label_6_0145EC54
// 004   ----------------------------------------
 BYTE   PATT
  POIN2 Label_6_0145EC54
// 005   ----------------------------------------
 BYTE   PATT
  POIN2 Label_6_0145EC54
// 006   ----------------------------------------
 BYTE   PATT
  POIN2 Label_6_0145EC54
// 007   ----------------------------------------
 BYTE   PATT
  POIN2 Label_6_0145EC54
// 008   ----------------------------------------
 BYTE   PATT
  POIN2 Label_6_0145EC54
// 009   ----------------------------------------
 BYTE   PATT
  POIN2 Label_6_0145EC54
// 010   ----------------------------------------
 BYTE   PATT
  POIN2 Label_6_0145EC54
// 011   ----------------------------------------
 BYTE   PATT
  POIN2 Label_6_0145EC54
// 012   ----------------------------------------
 BYTE   PATT
  POIN2 Label_6_0145EC54
// 013   ----------------------------------------
 BYTE   PATT
  POIN2 Label_6_0145EC54
// 014   ----------------------------------------
 BYTE   PATT
  POIN2 Label_6_0145EC54
// 015   ----------------------------------------
 BYTE   PATT
  POIN2 Label_6_0145EC54
// 016   ----------------------------------------
 BYTE   PATT
  POIN2 Label_6_0145EC54
// 017   ----------------------------------------
 BYTE   PATT
  POIN2 Label_6_0145EC54
// 018   ----------------------------------------
 BYTE   PATT
  POIN2 Label_6_0145EC54
// 019   ----------------------------------------
 BYTE   PATT
  POIN2 Label_6_0145EC54
// 020   ----------------------------------------
 BYTE   PATT
  POIN2 Label_6_0145EC54
// 021   ----------------------------------------
 BYTE   PATT
  POIN2 Label_6_0145EC54
// 022   ----------------------------------------
 BYTE   GoTo
  POIN2 Label_6_0145EC4C
 BYTE   FINE

//******************************************************//
	ALIGN 4

songLegendsOfAvenir:
	BYTE	7	// NumTrks
	BYTE	0	// NumBlks
	BYTE	songLegendsOfAvenir_pri	// Priority
	BYTE	songLegendsOfAvenir_rev	// Reverb.
    
	POIN2	songLegendsOfAvenir_grp
    
	POIN2	songLegendsOfAvenir_001
	POIN2	songLegendsOfAvenir_002
	POIN2	songLegendsOfAvenir_003
	POIN2	songLegendsOfAvenir_004
	POIN2	songLegendsOfAvenir_005
	POIN2	songLegendsOfAvenir_006
	POIN2	songLegendsOfAvenir_007

	
