//Event file generated from Sappy .s format.
	#include "MPlayDef.event"

	#define	songLifeInTheMilitary_grp  voicegroup000
	#define	songLifeInTheMilitary_pri  0
	#define	songLifeInTheMilitary_rev  0
	#define	songLifeInTheMilitary_mvl  127
	#define	songLifeInTheMilitary_key  0
	#define	songLifeInTheMilitary_tbs  1
	#define	songLifeInTheMilitary_exg  0
	#define	songLifeInTheMilitary_cmp  1

	// .rodata
	//	songLifeInTheMilitary
	ALIGN 4


//**************** Track 1 (Midi-Chn.0) ****************//

songLifeInTheMilitary_001:
// 000   ----------------------------------------
 BYTE   VOL   80*songLifeInTheMilitary_mvl/mxv
 BYTE   KEYSH   songLifeInTheMilitary_key+0
Label_0_0104B3F4:
 BYTE   TEMPO   120*songLifeInTheMilitary_tbs/2
 BYTE   VOICE   107
 BYTE   N96  Cs4  v048
 BYTE   W96
// 001   ----------------------------------------
Label_0_0104B3FC:
 BYTE   W24
 BYTE   N12  Fs4  v056
 BYTE   W12
 BYTE   Gs4
 BYTE   W12
 BYTE   N48  As4
 BYTE   W48
 BYTE   PEND 
// 002   ----------------------------------------
Label_0_0104B407:
 BYTE   N12  Bn4  v056
 BYTE   W24
 BYTE   N24  En4
 BYTE   W24
 BYTE   N48  Ds4
 BYTE   W48
 BYTE   PEND 
// 003   ----------------------------------------
 BYTE   N96  Fs4  v048
 BYTE   W96
// 004   ----------------------------------------
 BYTE   Gs4
 BYTE   W96
// 005   ----------------------------------------
 BYTE   As3
 BYTE   W96
// 006   ----------------------------------------
Label_0_0104B41A:
 BYTE   N24  Fs3  v056
 BYTE   W24
 BYTE   Gs3
 BYTE   W24
 BYTE   N48  As3
 BYTE   W48
 BYTE   PEND 
// 007   ----------------------------------------
Label_0_0104B424:
 BYTE   N24  Cs4  v056
 BYTE   W24
 BYTE   En4
 BYTE   W24
 BYTE   N48  Fs4
 BYTE   W48
 BYTE   PEND 
// 008   ----------------------------------------
 BYTE   N96  Cs4  v048
 BYTE   W96
// 009   ----------------------------------------
 BYTE   PATT
  POIN2 Label_0_0104B3FC
// 010   ----------------------------------------
 BYTE   PATT
  POIN2 Label_0_0104B407
// 011   ----------------------------------------
 BYTE   N96  Fs4  v048
 BYTE   W96
// 012   ----------------------------------------
 BYTE   Gs4
 BYTE   W96
// 013   ----------------------------------------
 BYTE   As3
 BYTE   W96
// 014   ----------------------------------------
 BYTE   PATT
  POIN2 Label_0_0104B41A
// 015   ----------------------------------------
 BYTE   PATT
  POIN2 Label_0_0104B424
// 016   ----------------------------------------
Label_0_0104B44E:
 BYTE   N48  Gs3  v048
 BYTE   W48
 BYTE   N06  Ds4  v056
 BYTE   W06
 BYTE   Cs4
 BYTE   W06
 BYTE   Bn3
 BYTE   W12
 BYTE   N24  As3
 BYTE   W24
 BYTE   PEND 
// 017   ----------------------------------------
 BYTE   N96  Bn3  v048
 BYTE   W96
// 018   ----------------------------------------
 BYTE   Cs4
 BYTE   W96
// 019   ----------------------------------------
 BYTE   N48  Bn3
 BYTE   W48
 BYTE   As3
 BYTE   W48
// 020   ----------------------------------------
 BYTE   PATT
  POIN2 Label_0_0104B44E
// 021   ----------------------------------------
 BYTE   N48  Bn3  v048
 BYTE   W48
 BYTE   N06  Fs4  v056
 BYTE   W06
 BYTE   En4
 BYTE   W06
 BYTE   Ds4
 BYTE   W12
 BYTE   N24  Cs4
 BYTE   W24
// 022   ----------------------------------------
 BYTE   N96  Bn3  v048
 BYTE   W96
// 023   ----------------------------------------
 BYTE   Ds4
 BYTE   W96
// 024   ----------------------------------------
 BYTE   Cs4
 BYTE   W96
// 025   ----------------------------------------
 BYTE   GoTo
  POIN2 Label_0_0104B3F4
 BYTE   FINE

//**************** Track 2 (Midi-Chn.1) ****************//

songLifeInTheMilitary_002:
// 000   ----------------------------------------
 BYTE   VOL   80*songLifeInTheMilitary_mvl/mxv
 BYTE   KEYSH   songLifeInTheMilitary_key+0
Label_1_0104B8B0:
 BYTE   VOICE   57
 BYTE   N36  Fs3  v048
 BYTE   W48
 BYTE   N06  En4  v056
 BYTE   W06
 BYTE   Ds4
 BYTE   W06
 BYTE   Cs4
 BYTE   W12
 BYTE   N24  Bn3
 BYTE   W24
// 001   ----------------------------------------
 BYTE   N96  Cs4  v048
 BYTE   W96
// 002   ----------------------------------------
 BYTE   Bn3
 BYTE   W96
// 003   ----------------------------------------
Label_1_0104B8C7:
 BYTE   W24
 BYTE   N24  As3  v056
 BYTE   W24
 BYTE   Bn3
 BYTE   W24
 BYTE   Ds4
 BYTE   W24
 BYTE   PEND 
// 004   ----------------------------------------
 BYTE   N96  En4  v048
 BYTE   W96
// 005   ----------------------------------------
 BYTE   W48
 BYTE   N48  Gs3
 BYTE   W48
// 006   ----------------------------------------
 BYTE   N96  Fs3
 BYTE   W96
// 007   ----------------------------------------
 BYTE   Cs4
 BYTE   W96
// 008   ----------------------------------------
 BYTE   N36  Fs3
 BYTE   W48
 BYTE   N06  En4  v056
 BYTE   W06
 BYTE   Ds4
 BYTE   W06
 BYTE   Cs4
 BYTE   W12
 BYTE   N24  Bn3
 BYTE   W24
// 009   ----------------------------------------
 BYTE   N96  Cs4  v048
 BYTE   W96
// 010   ----------------------------------------
 BYTE   Bn3
 BYTE   W96
// 011   ----------------------------------------
 BYTE   PATT
  POIN2 Label_1_0104B8C7
// 012   ----------------------------------------
 BYTE   N96  En4  v048
 BYTE   W96
// 013   ----------------------------------------
 BYTE   W48
 BYTE   N48  Gs3
 BYTE   W48
// 014   ----------------------------------------
 BYTE   N96  Fs3
 BYTE   W96
// 015   ----------------------------------------
 BYTE   Cs4
 BYTE   W96
// 016   ----------------------------------------
 BYTE   Ds4
 BYTE   W96
// 017   ----------------------------------------
 BYTE   N48  Fs3
 BYTE   W48
 BYTE   N06  En4  v056
 BYTE   W06
 BYTE   Ds4
 BYTE   W06
 BYTE   Cs4
 BYTE   W12
 BYTE   N24  Bn3
 BYTE   W24
// 018   ----------------------------------------
 BYTE   N96  Cs4  v048
 BYTE   W96
// 019   ----------------------------------------
 BYTE   N48  Bn3
 BYTE   W48
 BYTE   As3
 BYTE   W48
// 020   ----------------------------------------
 BYTE   N96  Gs3
 BYTE   W96
// 021   ----------------------------------------
 BYTE   Bn3
 BYTE   W96
// 022   ----------------------------------------
 BYTE   N48  Fs3
 BYTE   W48
 BYTE   N06  En4  v056
 BYTE   W06
 BYTE   Ds4
 BYTE   W06
 BYTE   Cs4
 BYTE   W12
 BYTE   N24  As3
 BYTE   W24
// 023   ----------------------------------------
 BYTE   N96  Bn3  v048
 BYTE   W96
// 024   ----------------------------------------
 BYTE   Cs4
 BYTE   W96
// 025   ----------------------------------------
 BYTE   GoTo
  POIN2 Label_1_0104B8B0
 BYTE   FINE

//**************** Track 3 (Midi-Chn.2) ****************//

songLifeInTheMilitary_003:
// 000   ----------------------------------------
 BYTE   VOL   80*songLifeInTheMilitary_mvl/mxv
 BYTE   KEYSH   songLifeInTheMilitary_key+0
Label_2_0104B5A4:
 BYTE   VOICE   70
 BYTE   TIE  Fs1  v040
 BYTE   W96
// 001   ----------------------------------------
 BYTE   W96
// 002   ----------------------------------------
 BYTE   W96
// 003   ----------------------------------------
 BYTE   W96
// 004   ----------------------------------------
 BYTE   EOT
 BYTE   TIE  Gs1
 BYTE   W96
// 005   ----------------------------------------
 BYTE   W96
// 006   ----------------------------------------
 BYTE   EOT
 BYTE   TIE  As1
 BYTE   W96
// 007   ----------------------------------------
 BYTE   W96
// 008   ----------------------------------------
 BYTE   EOT
 BYTE   TIE  Fs1
 BYTE   W96
// 009   ----------------------------------------
 BYTE   W96
// 010   ----------------------------------------
 BYTE   W96
// 011   ----------------------------------------
 BYTE   W96
// 012   ----------------------------------------
 BYTE   EOT
 BYTE   TIE  Gs1
 BYTE   W96
// 013   ----------------------------------------
 BYTE   W96
// 014   ----------------------------------------
 BYTE   EOT
 BYTE   TIE  As1
 BYTE   W96
// 015   ----------------------------------------
 BYTE   W96
// 016   ----------------------------------------
 BYTE   W96
// 017   ----------------------------------------
 BYTE   EOT
 BYTE   N96  Bn1
 BYTE   W96
// 018   ----------------------------------------
 BYTE   TIE  As1
 BYTE   W96
// 019   ----------------------------------------
 BYTE   W96
// 020   ----------------------------------------
 BYTE   W96
// 021   ----------------------------------------
 BYTE   W96
// 022   ----------------------------------------
 BYTE   EOT
 BYTE   TIE  Bn1
 BYTE   W96
// 023   ----------------------------------------
 BYTE   W96
// 024   ----------------------------------------
 BYTE   EOT
 BYTE   N96  As1
 BYTE   W96
// 025   ----------------------------------------
 BYTE   GoTo
  POIN2 Label_2_0104B5A4
 BYTE   FINE

//**************** Track 4 (Midi-Chn.3) ****************//

songLifeInTheMilitary_004:
// 000   ----------------------------------------
 BYTE   VOL   80*songLifeInTheMilitary_mvl/mxv
 BYTE   KEYSH   songLifeInTheMilitary_key+0
Label_3_0104B040:
 BYTE   VOICE   60
 BYTE   N96  Fs2  v040
 BYTE   N96  Bn2
 BYTE   N96  Cs3
 BYTE   W96
// 001   ----------------------------------------
Label_3_0104B04A:
 BYTE   N96  Fs2  v040
 BYTE   N48  As2
 BYTE   N96  Cs3
 BYTE   W48
 BYTE   N48  Bn2
 BYTE   W48
 BYTE   PEND 
// 002   ----------------------------------------
Label_3_0104B056:
 BYTE   N96  Fs2  v040
 BYTE   N96  Bn2
 BYTE   N96  Ds3
 BYTE   W96
 BYTE   PEND 
// 003   ----------------------------------------
Label_3_0104B05F:
 BYTE   N96  Fs2  v040
 BYTE   N48  Bn2
 BYTE   N96  Ds3
 BYTE   W48
 BYTE   N48  Cs3
 BYTE   W48
 BYTE   PEND 
// 004   ----------------------------------------
Label_3_0104B06B:
 BYTE   TIE  Gs2  v040
 BYTE   TIE  Cs3
 BYTE   TIE  En3
 BYTE   W96
 BYTE   PEND 
// 005   ----------------------------------------
 BYTE   W96
// 006   ----------------------------------------
 BYTE   EOT
 BYTE   Gs2  v061
 BYTE   En3
Label_3_0104B079:
 BYTE   TIE  As2  v040
 BYTE   TIE  Cs3
 BYTE   TIE  Fs3
 BYTE   W96
 BYTE   PEND 
// 007   ----------------------------------------
 BYTE   W96
// 008   ----------------------------------------
 BYTE   EOT
 BYTE   As2  v061
 BYTE   Fs3
 BYTE   N96  Fs2
 BYTE   N96  Bn2
 BYTE   N96  Cs3
 BYTE   W96
// 009   ----------------------------------------
 BYTE   PATT
  POIN2 Label_3_0104B04A
// 010   ----------------------------------------
 BYTE   PATT
  POIN2 Label_3_0104B056
// 011   ----------------------------------------
 BYTE   PATT
  POIN2 Label_3_0104B05F
// 012   ----------------------------------------
 BYTE   PATT
  POIN2 Label_3_0104B06B
// 013   ----------------------------------------
 BYTE   W96
// 014   ----------------------------------------
 BYTE   EOT
 BYTE   Gs2  v061
 BYTE   En3
// 015   ----------------------------------------
 BYTE   PATT
  POIN2 Label_3_0104B079
// 016   ----------------------------------------
 BYTE   W96
// 017   ----------------------------------------
 BYTE   EOT
 BYTE   As2  v061
 BYTE   Fs3
 BYTE   N96  As2  v040
 BYTE   N96  Ds3
 BYTE   N96  Fs3
 BYTE   W96
// 018   ----------------------------------------
 BYTE   Bn2
 BYTE   N96  En3
 BYTE   N96  Gs3
 BYTE   W96
// 019   ----------------------------------------
Label_3_0104B0BF:
 BYTE   N96  As2  v040
 BYTE   N96  Cs3
 BYTE   N96  Fs3
 BYTE   W96
 BYTE   PEND 
// 020   ----------------------------------------
 BYTE   PATT
  POIN2 Label_3_0104B0BF
// 021   ----------------------------------------
 BYTE   TIE  As2  v040
 BYTE   TIE  Ds3
 BYTE   TIE  Fs3
 BYTE   W96
// 022   ----------------------------------------
 BYTE   W96
// 023   ----------------------------------------
 BYTE   EOT
 BYTE   As2  v063
 BYTE   Fs3
 BYTE   TIE  Bn2
 BYTE   TIE  En3
 BYTE   TIE  Gs3
 BYTE   W96
// 024   ----------------------------------------
 BYTE   W96
// 025   ----------------------------------------
 BYTE   EOT
 BYTE   Bn2  v064
 BYTE   Gs3
// 026   ----------------------------------------
 BYTE   PATT
  POIN2 Label_3_0104B0BF
// 027   ----------------------------------------
 BYTE   GoTo
  POIN2 Label_3_0104B040
 BYTE   FINE

//**************** Track 5 (Midi-Chn.4) ****************//

songLifeInTheMilitary_005:
// 000   ----------------------------------------
 BYTE   VOL   80*songLifeInTheMilitary_mvl/mxv
 BYTE   KEYSH   songLifeInTheMilitary_key+0
Label_4_0145ECCC:
 BYTE   VOICE   124
 BYTE   N24  Dn1  v040
 BYTE   N12  Fs1  v064
 BYTE   N24  An2
 BYTE   W12
 BYTE   N12  Fs1
 BYTE   W12
 BYTE   N24  Dn1  v040
 BYTE   N12  Fs1  v064
 BYTE   W12
 BYTE   N12
 BYTE   W12
 BYTE   Dn1  v040
 BYTE   N12  Fs1  v064
 BYTE   W12
 BYTE   Dn1  v040
 BYTE   N12  Fs1  v064
 BYTE   W12
 BYTE   Dn1  v040
 BYTE   N12  Fs1  v064
 BYTE   W12
 BYTE   Dn1  v040
 BYTE   N12  Fs1  v064
 BYTE   W12
// 001   ----------------------------------------
Label_4_0145ECFB:
 BYTE   N24  En1  v040
 BYTE   N12  Fs1  v064
 BYTE   W12
 BYTE   N12
 BYTE   W12
 BYTE   N24  En1  v040
 BYTE   N12  Fs1  v064
 BYTE   W12
 BYTE   N12
 BYTE   W12
 BYTE   En1  v040
 BYTE   N12  Fs1  v064
 BYTE   W12
 BYTE   En1  v040
 BYTE   N12  Fs1  v064
 BYTE   W12
 BYTE   En1  v040
 BYTE   N12  Fs1  v064
 BYTE   W12
 BYTE   En1  v040
 BYTE   N12  Fs1  v064
 BYTE   W12
 BYTE   PEND 
// 002   ----------------------------------------
Label_4_0145ED26:
 BYTE   N24  Dn1  v040
 BYTE   N12  Fs1  v064
 BYTE   W12
 BYTE   N12
 BYTE   W12
 BYTE   N24  Dn1  v040
 BYTE   N12  Fs1  v064
 BYTE   W12
 BYTE   N12
 BYTE   W12
 BYTE   Dn1  v040
 BYTE   N12  Fs1  v064
 BYTE   W12
 BYTE   Dn1  v040
 BYTE   N12  Fs1  v064
 BYTE   W12
 BYTE   Dn1  v040
 BYTE   N12  Fs1  v064
 BYTE   W12
 BYTE   Dn1  v040
 BYTE   N12  Fs1  v064
 BYTE   W12
 BYTE   PEND 
// 003   ----------------------------------------
 BYTE   PATT
  POIN2 Label_4_0145ECFB
// 004   ----------------------------------------
 BYTE   PATT
  POIN2 Label_4_0145ED26
// 005   ----------------------------------------
 BYTE   PATT
  POIN2 Label_4_0145ECFB
// 006   ----------------------------------------
 BYTE   PATT
  POIN2 Label_4_0145ED26
// 007   ----------------------------------------
Label_4_0145ED65:
 BYTE   N24  En1  v040
 BYTE   N12  Fs1  v064
 BYTE   W12
 BYTE   N12
 BYTE   W12
 BYTE   N24  En1  v040
 BYTE   N12  Fs1  v064
 BYTE   W12
 BYTE   N12
 BYTE   W12
 BYTE   Fn1
 BYTE   W12
 BYTE   N06  Gn1
 BYTE   W06
 BYTE   An1
 BYTE   W06
 BYTE   Gn1
 BYTE   W06
 BYTE   Fn1
 BYTE   W06
 BYTE   N12  En1
 BYTE   W12
 BYTE   PEND 
// 008   ----------------------------------------
Label_4_0145ED86:
 BYTE   N24  Dn1  v040
 BYTE   N12  Fs1  v064
 BYTE   N24  An2
 BYTE   W12
 BYTE   N12  Fs1
 BYTE   W12
 BYTE   N24  Dn1  v040
 BYTE   N12  Fs1  v064
 BYTE   W12
 BYTE   N12
 BYTE   W12
 BYTE   Dn1  v040
 BYTE   N12  Fs1  v064
 BYTE   W12
 BYTE   Dn1  v040
 BYTE   N12  Fs1  v064
 BYTE   W12
 BYTE   Dn1  v040
 BYTE   N12  Fs1  v064
 BYTE   W12
 BYTE   Dn1  v040
 BYTE   N12  Fs1  v064
 BYTE   W12
 BYTE   PEND 
// 009   ----------------------------------------
 BYTE   PATT
  POIN2 Label_4_0145ECFB
// 010   ----------------------------------------
 BYTE   PATT
  POIN2 Label_4_0145ED26
// 011   ----------------------------------------
 BYTE   PATT
  POIN2 Label_4_0145ECFB
// 012   ----------------------------------------
 BYTE   PATT
  POIN2 Label_4_0145ED26
// 013   ----------------------------------------
 BYTE   PATT
  POIN2 Label_4_0145ECFB
// 014   ----------------------------------------
 BYTE   PATT
  POIN2 Label_4_0145ED26
// 015   ----------------------------------------
 BYTE   PATT
  POIN2 Label_4_0145ED65
// 016   ----------------------------------------
 BYTE   PATT
  POIN2 Label_4_0145ED86
// 017   ----------------------------------------
 BYTE   PATT
  POIN2 Label_4_0145ECFB
// 018   ----------------------------------------
 BYTE   PATT
  POIN2 Label_4_0145ED26
// 019   ----------------------------------------
 BYTE   PATT
  POIN2 Label_4_0145ED65
// 020   ----------------------------------------
 BYTE   PATT
  POIN2 Label_4_0145ED26
// 021   ----------------------------------------
 BYTE   PATT
  POIN2 Label_4_0145ECFB
// 022   ----------------------------------------
 BYTE   PATT
  POIN2 Label_4_0145ED26
// 023   ----------------------------------------
 BYTE   PATT
  POIN2 Label_4_0145ED26
// 024   ----------------------------------------
 BYTE   PATT
  POIN2 Label_4_0145ED65
// 025   ----------------------------------------
 BYTE   GoTo
  POIN2 Label_4_0145ECCC
 BYTE   FINE

//******************************************************//
	ALIGN 4

songLifeInTheMilitary:
	BYTE	5	// NumTrks
	BYTE	0	// NumBlks
	BYTE	songLifeInTheMilitary_pri	// Priority
	BYTE	songLifeInTheMilitary_rev	// Reverb.
    
	POIN2	songLifeInTheMilitary_grp
    
	POIN2	songLifeInTheMilitary_001
	POIN2	songLifeInTheMilitary_002
	POIN2	songLifeInTheMilitary_003
	POIN2	songLifeInTheMilitary_004
	POIN2	songLifeInTheMilitary_005

	
