//Event file generated from Sappy .s format.
	#include "MPlayDef.event"

	#define	songLifeOfAMercenary_grp  voicegroup000
	#define	songLifeOfAMercenary_pri  0
	#define	songLifeOfAMercenary_rev  0
	#define	songLifeOfAMercenary_mvl  127
	#define	songLifeOfAMercenary_key  0
	#define	songLifeOfAMercenary_tbs  1
	#define	songLifeOfAMercenary_exg  0
	#define	songLifeOfAMercenary_cmp  1

	// .rodata
	//	songLifeOfAMercenary
	ALIGN 4


//**************** Track 1 (Midi-Chn.0) ****************//

songLifeOfAMercenary_001:
// 000   ----------------------------------------
 BYTE   VOL   80*songLifeOfAMercenary_mvl/mxv
 BYTE   KEYSH   songLifeOfAMercenary_key+0
Label_0_01462208:
 BYTE   TEMPO   100*songLifeOfAMercenary_tbs/2
 BYTE   VOICE   73
 BYTE   W96
// 001   ----------------------------------------
 BYTE   W96
// 002   ----------------------------------------
 BYTE   W96
// 003   ----------------------------------------
 BYTE   N48  As3  v064
 BYTE   W48
 BYTE   N24  Gs3
 BYTE   W24
 BYTE   As3
 BYTE   W24
// 004   ----------------------------------------
 BYTE   N48  Gn4
 BYTE   W48
 BYTE   N12  Gs4
 BYTE   W12
 BYTE   Gn4
 BYTE   W12
 BYTE   N06  Gs4
 BYTE   W06
 BYTE   Gn4
 BYTE   W06
 BYTE   Gs4
 BYTE   W06
 BYTE   Gn4
 BYTE   W06
// 005   ----------------------------------------
 BYTE   N96  Gs4
 BYTE   W96
// 006   ----------------------------------------
 BYTE   W96
// 007   ----------------------------------------
 BYTE   W96
// 008   ----------------------------------------
 BYTE   W96
// 009   ----------------------------------------
 BYTE   W96
// 010   ----------------------------------------
 BYTE   W96
// 011   ----------------------------------------
 BYTE   W96
// 012   ----------------------------------------
 BYTE   W96
// 013   ----------------------------------------
 BYTE   W96
// 014   ----------------------------------------
 BYTE   W96
// 015   ----------------------------------------
 BYTE   W96
// 016   ----------------------------------------
 BYTE   W96
// 017   ----------------------------------------
 BYTE   W96
// 018   ----------------------------------------
 BYTE   GoTo
  POIN2 Label_0_01462208
 BYTE   FINE

//**************** Track 2 (Midi-Chn.1) ****************//

songLifeOfAMercenary_002:
// 000   ----------------------------------------
 BYTE   VOL   80*songLifeOfAMercenary_mvl/mxv
 BYTE   KEYSH   songLifeOfAMercenary_key+0
Label_1_01462244:
 BYTE   VOICE   68
 BYTE   W96
// 001   ----------------------------------------
 BYTE   W96
// 002   ----------------------------------------
 BYTE   W96
// 003   ----------------------------------------
 BYTE   W96
// 004   ----------------------------------------
 BYTE   W96
// 005   ----------------------------------------
 BYTE   W96
// 006   ----------------------------------------
 BYTE   N48  As3  v064
 BYTE   W48
 BYTE   N24  Gs3
 BYTE   W24
 BYTE   As3
 BYTE   W24
// 007   ----------------------------------------
 BYTE   N48  Gn3
 BYTE   W48
 BYTE   N12  Gs3
 BYTE   W12
 BYTE   Gn3
 BYTE   W12
 BYTE   N06  Gs3
 BYTE   W06
 BYTE   Gn3
 BYTE   W06
 BYTE   Gs3
 BYTE   W06
 BYTE   Gn3
 BYTE   W06
// 008   ----------------------------------------
 BYTE   N96  Gs3
 BYTE   W96
// 009   ----------------------------------------
 BYTE   W96
// 010   ----------------------------------------
 BYTE   W96
// 011   ----------------------------------------
 BYTE   W96
// 012   ----------------------------------------
 BYTE   W96
// 013   ----------------------------------------
 BYTE   W96
// 014   ----------------------------------------
 BYTE   W96
// 015   ----------------------------------------
 BYTE   W96
// 016   ----------------------------------------
 BYTE   W96
// 017   ----------------------------------------
 BYTE   W96
// 018   ----------------------------------------
 BYTE   GoTo
  POIN2 Label_1_01462244
 BYTE   FINE

//**************** Track 3 (Midi-Chn.2) ****************//

songLifeOfAMercenary_003:
// 000   ----------------------------------------
 BYTE   VOL   80*songLifeOfAMercenary_mvl/mxv
 BYTE   KEYSH   songLifeOfAMercenary_key+0
Label_2_0146227C:
 BYTE   VOICE   57
 BYTE   W96
// 001   ----------------------------------------
 BYTE   W96
// 002   ----------------------------------------
 BYTE   W96
// 003   ----------------------------------------
 BYTE   W96
// 004   ----------------------------------------
 BYTE   W96
// 005   ----------------------------------------
 BYTE   W96
// 006   ----------------------------------------
 BYTE   W96
// 007   ----------------------------------------
 BYTE   W96
// 008   ----------------------------------------
 BYTE   W96
// 009   ----------------------------------------
 BYTE   N96  As3  v064
 BYTE   W96
// 010   ----------------------------------------
Label_2_0146228B:
 BYTE   N48  Gn4  v064
 BYTE   W48
 BYTE   N24  Fn4
 BYTE   W24
 BYTE   N12  Ds4
 BYTE   W12
 BYTE   N06  Dn4
 BYTE   W06
 BYTE   Cn4
 BYTE   W06
 BYTE   PEND 
// 011   ----------------------------------------
Label_2_0146229B:
 BYTE   N48  Gs4  v064
 BYTE   W48
 BYTE   Gn4
 BYTE   W48
 BYTE   PEND 
// 012   ----------------------------------------
 BYTE   N96  As4
 BYTE   W96
// 013   ----------------------------------------
 BYTE   As3
 BYTE   W96
 BYTE   PATT
  POIN2 Label_2_0146228B
 BYTE   PATT
  POIN2 Label_2_0146229B
// 014   ----------------------------------------
 BYTE   N96  As4  v064
 BYTE   W96
// 015   ----------------------------------------
 BYTE   W96
// 016   ----------------------------------------
 BYTE   GoTo
  POIN2 Label_2_0146227C
 BYTE   FINE

//**************** Track 4 (Midi-Chn.3) ****************//

songLifeOfAMercenary_004:
// 000   ----------------------------------------
 BYTE   VOL   80*songLifeOfAMercenary_mvl/mxv
 BYTE   KEYSH   songLifeOfAMercenary_key+0
Label_3_014620DC:
 BYTE   VOICE   36
 BYTE   N24  As1  v064
 BYTE   W24
 BYTE   N12  Gs2
 BYTE   W12
 BYTE   Gs1
 BYTE   W12
 BYTE   N24  As1
 BYTE   W24
 BYTE   N12  Gs2
 BYTE   W12
 BYTE   Fn2
 BYTE   W12
// 001   ----------------------------------------
Label_3_014620EF:
 BYTE   N24  As1  v064
 BYTE   W24
 BYTE   N12  Gs2
 BYTE   W12
 BYTE   Gs1
 BYTE   W12
 BYTE   N24  As1
 BYTE   W24
 BYTE   As2
 BYTE   W24
 BYTE   PEND 
// 002   ----------------------------------------
Label_3_014620FE:
 BYTE   N12  Cn2  v064
 BYTE   W12
 BYTE   As2
 BYTE   W12
 BYTE   N06  Cn2
 BYTE   W06
 BYTE   N06
 BYTE   W06
 BYTE   N12  As1
 BYTE   W12
 BYTE   Cn2
 BYTE   W12
 BYTE   Cn3
 BYTE   W12
 BYTE   N06  Cn2
 BYTE   W06
 BYTE   N06
 BYTE   W06
 BYTE   N12  Gn2
 BYTE   W12
 BYTE   PEND 
// 003   ----------------------------------------
Label_3_01462119:
 BYTE   N24  As1  v064
 BYTE   W24
 BYTE   N12  Gs2
 BYTE   W12
 BYTE   Gs1
 BYTE   W12
 BYTE   N24  As1
 BYTE   W24
 BYTE   N12  Gs2
 BYTE   W12
 BYTE   Fn2
 BYTE   W12
 BYTE   PEND 
 BYTE   PATT
  POIN2 Label_3_014620EF
// 004   ----------------------------------------
 BYTE   N12  Cn2  v064
 BYTE   W12
 BYTE   As2
 BYTE   W12
 BYTE   N06  Cn2
 BYTE   W06
 BYTE   N06
 BYTE   W06
 BYTE   N12  As1
 BYTE   W12
 BYTE   Cn2
 BYTE   W12
 BYTE   Cn3
 BYTE   W12
 BYTE   N06  Cn2
 BYTE   W06
 BYTE   N06
 BYTE   W06
 BYTE   N12  As1
 BYTE   N12  Gn2
 BYTE   W12
// 005   ----------------------------------------
 BYTE   As1
 BYTE   W12
 BYTE   N06  Gs1
 BYTE   W06
 BYTE   As1
 BYTE   W06
 BYTE   N12  Gs1
 BYTE   W12
 BYTE   As1
 BYTE   W12
 BYTE   As2
 BYTE   W12
 BYTE   N06  As1
 BYTE   W06
 BYTE   N06
 BYTE   W06
 BYTE   N12  Fn2
 BYTE   W12
 BYTE   As1
 BYTE   W12
// 006   ----------------------------------------
 BYTE   N12
 BYTE   W12
 BYTE   N06  Gs1
 BYTE   W06
 BYTE   As1
 BYTE   W06
 BYTE   N12  Gs1
 BYTE   W12
 BYTE   As1
 BYTE   W12
 BYTE   As2
 BYTE   W12
 BYTE   N06  As1
 BYTE   W06
 BYTE   N06
 BYTE   W06
 BYTE   N12  Fn2
 BYTE   W12
 BYTE   Cn2
 BYTE   W12
// 007   ----------------------------------------
 BYTE   N12
 BYTE   W12
 BYTE   N06  As1
 BYTE   W06
 BYTE   Cn2
 BYTE   W06
 BYTE   N12  As1
 BYTE   W12
 BYTE   Cn2
 BYTE   W12
 BYTE   As1
 BYTE   W12
 BYTE   N06  Cn2
 BYTE   W06
 BYTE   N06
 BYTE   W06
 BYTE   N12  Gn2
 BYTE   W24
 BYTE   PATT
  POIN2 Label_3_01462119
 BYTE   PATT
  POIN2 Label_3_014620EF
 BYTE   PATT
  POIN2 Label_3_014620FE
// 008   ----------------------------------------
 BYTE   N06  Dn2  v064
 BYTE   W06
 BYTE   Cn2
 BYTE   W06
 BYTE   Dn2
 BYTE   W06
 BYTE   N06
 BYTE   W12
 BYTE   N06
 BYTE   W06
 BYTE   N12  Cn3
 BYTE   W60
 BYTE   PATT
  POIN2 Label_3_01462119
 BYTE   PATT
  POIN2 Label_3_014620EF
 BYTE   PATT
  POIN2 Label_3_014620FE
// 009   ----------------------------------------
 BYTE   N12  Cn3  v064
 BYTE   W12
 BYTE   Gs2
 BYTE   W12
 BYTE   Fn2
 BYTE   W12
 BYTE   Dn2
 BYTE   W12
 BYTE   Gs2
 BYTE   W12
 BYTE   Fn2
 BYTE   W12
 BYTE   Dn2
 BYTE   W12
 BYTE   Cn2
 BYTE   W12
// 010   ----------------------------------------
 BYTE   N48  As1
 BYTE   W48
 BYTE   N12  Gs1
 BYTE   W12
 BYTE   N24  As1
 BYTE   W24
 BYTE   N12  Gs1
 BYTE   W12
// 011   ----------------------------------------
 BYTE   GoTo
  POIN2 Label_3_014620DC
 BYTE   FINE

//**************** Track 5 (Midi-Chn.4) ****************//

songLifeOfAMercenary_005:
// 000   ----------------------------------------
 BYTE   VOL   80*songLifeOfAMercenary_mvl/mxv
 BYTE   KEYSH   songLifeOfAMercenary_key+0
Label_4_01461F90:
 BYTE   VOICE   75
 BYTE   N96  As2  v032
 BYTE   N96  Dn3
 BYTE   N96  Fn3
 BYTE   W96
// 001   ----------------------------------------
Label_4_01461F9A:
 BYTE   N96  As2  v032
 BYTE   N96  Ds3
 BYTE   N96  Gn3
 BYTE   W96
 BYTE   PEND 
// 002   ----------------------------------------
Label_4_01461FA3:
 BYTE   N96  Cn3  v032
 BYTE   N96  Fn3
 BYTE   N96  Gs3
 BYTE   W96
 BYTE   PEND 
// 003   ----------------------------------------
Label_4_01461FAC:
 BYTE   N96  As2  v032
 BYTE   N96  Dn3
 BYTE   N96  Fn3
 BYTE   W96
 BYTE   PEND 
 BYTE   PATT
  POIN2 Label_4_01461F9A
 BYTE   PATT
  POIN2 Label_4_01461FA3
 BYTE   PATT
  POIN2 Label_4_01461FAC
 BYTE   PATT
  POIN2 Label_4_01461F9A
 BYTE   PATT
  POIN2 Label_4_01461FA3
 BYTE   PATT
  POIN2 Label_4_01461FAC
// 004   ----------------------------------------
Label_4_01461FD3:
 BYTE   N96  As2  v032
 BYTE   N96  Dn3
 BYTE   N96  Gn3
 BYTE   W96
 BYTE   PEND 
// 005   ----------------------------------------
Label_4_01461FDC:
 BYTE   N96  Cn3  v032
 BYTE   N96  Ds3
 BYTE   N96  Gs3
 BYTE   W96
 BYTE   PEND 
// 006   ----------------------------------------
 BYTE   Dn3
 BYTE   N96  Fn3
 BYTE   N96  As3
 BYTE   W96
 BYTE   PATT
  POIN2 Label_4_01461FAC
 BYTE   PATT
  POIN2 Label_4_01461FD3
 BYTE   PATT
  POIN2 Label_4_01461FDC
// 007   ----------------------------------------
 BYTE   TIE  Dn3  v032
 BYTE   TIE  Fn3
 BYTE   TIE  As3
 BYTE   W96
// 008   ----------------------------------------
 BYTE   W96
// 009   ----------------------------------------
 BYTE   EOT
 BYTE   Dn3  v065
 BYTE   As3
 BYTE   GoTo
  POIN2 Label_4_01461F90
 BYTE   FINE

//**************** Track 6 (Midi-Chn.5) ****************//

songLifeOfAMercenary_006:
// 000   ----------------------------------------
 BYTE   VOL   80*songLifeOfAMercenary_mvl/mxv
 BYTE   KEYSH   songLifeOfAMercenary_key+0
Label_5_01495574:
 BYTE   VOICE   121
 BYTE   N24  Cn1  v064
 BYTE   N24  Fs1
 BYTE   W24
 BYTE   Cs1
 BYTE   N24  Fs1
 BYTE   W24
 BYTE   N12  Cn1
 BYTE   N24  Fs1
 BYTE   W12
 BYTE   N12  Cn1
 BYTE   W12
 BYTE   N24  Cs1
 BYTE   N24  Fs1
 BYTE   W24
// 001   ----------------------------------------
Label_5_0149558D:
 BYTE   N24  Cn1  v064
 BYTE   N24  Fs1
 BYTE   W24
 BYTE   Cs1
 BYTE   N24  Fs1
 BYTE   W24
 BYTE   N12  Cn1
 BYTE   N24  Fs1
 BYTE   W12
 BYTE   N12  Cn1
 BYTE   W12
 BYTE   N24  Cs1
 BYTE   N24  Fs1
 BYTE   W24
 BYTE   PEND 
// 002   ----------------------------------------
Label_5_014955A5:
 BYTE   N24  Cn1  v064
 BYTE   N24  Fs1
 BYTE   W24
 BYTE   Cs1
 BYTE   N24  Fs1
 BYTE   W24
 BYTE   N06  Gn1
 BYTE   W06
 BYTE   Fn1
 BYTE   W06
 BYTE   En1
 BYTE   W06
 BYTE   Dn1
 BYTE   W06
 BYTE   N12  Dn1  v052
 BYTE   W12
 BYTE   Dn1  v064
 BYTE   W12
 BYTE   PEND 
// 003   ----------------------------------------
Label_5_014955C0:
 BYTE   N24  Cn1  v064
 BYTE   N24  Fs1
 BYTE   N24  As1
 BYTE   W24
 BYTE   Cs1
 BYTE   N24  Fs1
 BYTE   W24
 BYTE   N12  Cn1
 BYTE   N24  Fs1
 BYTE   W12
 BYTE   N12  Cn1
 BYTE   W12
 BYTE   N24  Cs1
 BYTE   N24  Fs1
 BYTE   W24
 BYTE   PEND 
 BYTE   PATT
  POIN2 Label_5_0149558D
 BYTE   PATT
  POIN2 Label_5_014955A5
 BYTE   PATT
  POIN2 Label_5_014955C0
 BYTE   PATT
  POIN2 Label_5_0149558D
 BYTE   PATT
  POIN2 Label_5_014955A5
 BYTE   PATT
  POIN2 Label_5_014955C0
 BYTE   PATT
  POIN2 Label_5_0149558D
 BYTE   PATT
  POIN2 Label_5_0149558D
 BYTE   PATT
  POIN2 Label_5_014955A5
 BYTE   PATT
  POIN2 Label_5_014955C0
 BYTE   PATT
  POIN2 Label_5_0149558D
 BYTE   PATT
  POIN2 Label_5_0149558D
// 004   ----------------------------------------
 BYTE   N24  Cn1  v064
 BYTE   N06  Fs1
 BYTE   W06
 BYTE   N06
 BYTE   W06
 BYTE   N06
 BYTE   W06
 BYTE   N06
 BYTE   W06
 BYTE   N24  Cs1
 BYTE   N06  Fs1
 BYTE   W06
 BYTE   N06
 BYTE   W06
 BYTE   N06
 BYTE   W06
 BYTE   N06
 BYTE   W06
 BYTE   N12  Cn1
 BYTE   N06  Fs1
 BYTE   W06
 BYTE   N06
 BYTE   W06
 BYTE   N12  Cn1
 BYTE   N06  Fs1
 BYTE   W06
 BYTE   N06
 BYTE   W06
 BYTE   N24  Cs1
 BYTE   N06  Fs1
 BYTE   W06
 BYTE   N06
 BYTE   W06
 BYTE   N06
 BYTE   W06
 BYTE   N06
 BYTE   W06
// 005   ----------------------------------------
 BYTE   N24  Cn1
 BYTE   N06  Fs1
 BYTE   W06
 BYTE   N06
 BYTE   W06
 BYTE   N06
 BYTE   W06
 BYTE   N06
 BYTE   W06
 BYTE   N24  Cs1
 BYTE   N06  Fs1
 BYTE   W06
 BYTE   N06
 BYTE   W06
 BYTE   N06
 BYTE   W06
 BYTE   N06
 BYTE   W06
 BYTE   Gn1
 BYTE   W06
 BYTE   Fn1
 BYTE   W06
 BYTE   En1
 BYTE   W06
 BYTE   Dn1
 BYTE   W06
 BYTE   N12  Dn1  v052
 BYTE   W12
 BYTE   Dn1  v064
 BYTE   W12
// 006   ----------------------------------------
 BYTE   GoTo
  POIN2 Label_5_01495574
 BYTE   FINE

//******************************************************//
	ALIGN 4

songLifeOfAMercenary:
	BYTE	6	// NumTrks
	BYTE	0	// NumBlks
	BYTE	songLifeOfAMercenary_pri	// Priority
	BYTE	songLifeOfAMercenary_rev	// Reverb.
    
	POIN2	songLifeOfAMercenary_grp
    
	POIN2	songLifeOfAMercenary_001
	POIN2	songLifeOfAMercenary_002
	POIN2	songLifeOfAMercenary_003
	POIN2	songLifeOfAMercenary_004
	POIN2	songLifeOfAMercenary_005
	POIN2	songLifeOfAMercenary_006

	
