//Event file generated from Sappy .s format.
	#include "MPlayDef.event"

	#define	songLightEmUp_grp  voicegroup000
	#define	songLightEmUp_pri  0
	#define	songLightEmUp_rev  0
	#define	songLightEmUp_mvl  127
	#define	songLightEmUp_key  0
	#define	songLightEmUp_tbs  1
	#define	songLightEmUp_exg  0
	#define	songLightEmUp_cmp  1

	// .rodata
	//	songLightEmUp
	ALIGN 4


//**************** Track 1 (Midi-Chn.0) ****************//

songLightEmUp_001:
// 000   ----------------------------------------
 BYTE   VOL   80*songLightEmUp_mvl/mxv
 BYTE   KEYSH   songLightEmUp_key+0
Label_0_0146469C:
 BYTE   TEMPO   168*songLightEmUp_tbs/2
 BYTE   VOICE   61
 BYTE   N02  Dn4  v064
 BYTE   W02
 BYTE   N03  Cn4
 BYTE   W04
 BYTE   N02  Bn3
 BYTE   W06
 BYTE   N72  An3
 BYTE   W84
// 001   ----------------------------------------
 BYTE   N48  Cn4
 BYTE   W48
 BYTE   N12  Bn3
 BYTE   W12
 BYTE   Cn4
 BYTE   W12
 BYTE   En4
 BYTE   W12
 BYTE   N06  Gn4
 BYTE   W12
// 002   ----------------------------------------
 BYTE   N96  Fs4  v048
 BYTE   W96
// 003   ----------------------------------------
 BYTE   N36  Fs3  v064
 BYTE   W36
 BYTE   N12  Gn3
 BYTE   W24
 BYTE   Bn3
 BYTE   W12
 BYTE   Cn4
 BYTE   W12
 BYTE   N06  Dn4
 BYTE   W12
// 004   ----------------------------------------
 BYTE   N48  En4
 BYTE   W48
 BYTE   N36  Dn4
 BYTE   W48
// 005   ----------------------------------------
 BYTE   N96  Bn3  v048
 BYTE   W96
// 006   ----------------------------------------
 BYTE   N48  An3  v064
 BYTE   W48
 BYTE   N24  Bn3
 BYTE   W24
 BYTE   Cn4
 BYTE   W24
// 007   ----------------------------------------
 BYTE   N96  An3  v048
 BYTE   W96
// 008   ----------------------------------------
 BYTE   N48  Gn3  v064
 BYTE   W48
 BYTE   N24  An3
 BYTE   W24
 BYTE   Bn3
 BYTE   W24
// 009   ----------------------------------------
 BYTE   N96  Fs3
 BYTE   W96
// 010   ----------------------------------------
 BYTE   Bn3  v056
 BYTE   W96
// 011   ----------------------------------------
 BYTE   Dn4
 BYTE   W96
// 012   ----------------------------------------
 BYTE   W96
// 013   ----------------------------------------
 BYTE   W96
// 014   ----------------------------------------
 BYTE   N36  Bn3  v064
 BYTE   W36
 BYTE   N12  Cn4
 BYTE   W24
 BYTE   En3
 BYTE   W12
 BYTE   Fn3
 BYTE   W12
 BYTE   N06  An3
 BYTE   W12
// 015   ----------------------------------------
 BYTE   N96  Bn3  v048
 BYTE   W96
// 016   ----------------------------------------
Label_0_01464708:
 BYTE   N48  Cn4  v064
 BYTE   W48
 BYTE   N36  Bn3
 BYTE   W48
 BYTE   PEND 
 BYTE   PATT
  POIN2 Label_0_01464708
// 017   ----------------------------------------
 BYTE   N96  An3  v048
 BYTE   W96
// 018   ----------------------------------------
 BYTE   N48  Gn3  v064
 BYTE   W48
 BYTE   Cn4
 BYTE   W48
// 019   ----------------------------------------
 BYTE   N96  An3  v048
 BYTE   W96
// 020   ----------------------------------------
 BYTE   N48  Gn3  v064
 BYTE   W48
 BYTE   Bn3
 BYTE   W48
// 021   ----------------------------------------
 BYTE   N96  Cn4  v056
 BYTE   W96
// 022   ----------------------------------------
 BYTE   Dn4
 BYTE   W96
// 023   ----------------------------------------
 BYTE   GoTo
  POIN2 Label_0_0146469C
 BYTE   FINE

//**************** Track 2 (Midi-Chn.1) ****************//

songLightEmUp_002:
// 000   ----------------------------------------
 BYTE   VOL   80*songLightEmUp_mvl/mxv
 BYTE   KEYSH   songLightEmUp_key+0
Label_1_01464768:
 BYTE   VOICE   48
 BYTE   W96
// 001   ----------------------------------------
 BYTE   W96
// 002   ----------------------------------------
 BYTE   N36  Fs4  v064
 BYTE   W36
 BYTE   N12  Gn4
 BYTE   W24
 BYTE   Bn3
 BYTE   W12
 BYTE   Cn4
 BYTE   W12
 BYTE   N06  En4
 BYTE   W12
// 003   ----------------------------------------
 BYTE   N96  Fs4  v048
 BYTE   W96
// 004   ----------------------------------------
Label_1_0146477E:
 BYTE   N48  Gn4  v064
 BYTE   W48
 BYTE   N36  Fs4
 BYTE   W48
 BYTE   PEND 
 BYTE   PATT
  POIN2 Label_1_0146477E
// 005   ----------------------------------------
 BYTE   N96  En4  v048
 BYTE   W96
// 006   ----------------------------------------
 BYTE   N48  Dn4  v064
 BYTE   W48
 BYTE   Gn4
 BYTE   W48
// 007   ----------------------------------------
 BYTE   N96  En4  v048
 BYTE   W96
// 008   ----------------------------------------
 BYTE   N48  Dn4  v064
 BYTE   W48
 BYTE   Fs4
 BYTE   W48
// 009   ----------------------------------------
 BYTE   N96  Gn4  v056
 BYTE   W96
// 010   ----------------------------------------
 BYTE   An4
 BYTE   W96
// 011   ----------------------------------------
 BYTE   N03  Gn4  v064
 BYTE   W03
 BYTE   N02  Fn4
 BYTE   W03
 BYTE   N03  En4
 BYTE   W06
 BYTE   N72  Dn4
 BYTE   W84
// 012   ----------------------------------------
 BYTE   N48  Fn4
 BYTE   W48
 BYTE   N12  En4
 BYTE   W12
 BYTE   Fn4
 BYTE   W12
 BYTE   An4
 BYTE   W12
 BYTE   N06  Cn5
 BYTE   W12
// 013   ----------------------------------------
 BYTE   N96  Bn4  v048
 BYTE   W96
// 014   ----------------------------------------
 BYTE   N36  Bn3  v064
 BYTE   W36
 BYTE   N12  Cn4
 BYTE   W24
 BYTE   En4
 BYTE   W12
 BYTE   Fn4
 BYTE   W12
 BYTE   N06  Gn4
 BYTE   W12
// 015   ----------------------------------------
 BYTE   N48  An4
 BYTE   W48
 BYTE   N36  Gn4
 BYTE   W48
// 016   ----------------------------------------
 BYTE   N96  En4  v048
 BYTE   W96
// 017   ----------------------------------------
 BYTE   N48  Dn4  v064
 BYTE   W48
 BYTE   N24  En4
 BYTE   W24
 BYTE   Fn4
 BYTE   W24
// 018   ----------------------------------------
 BYTE   N96  Dn4  v048
 BYTE   W96
// 019   ----------------------------------------
 BYTE   N48  Cn4  v064
 BYTE   W48
 BYTE   N24  Dn4
 BYTE   W24
 BYTE   En4
 BYTE   W24
// 020   ----------------------------------------
 BYTE   N96  Bn3
 BYTE   W96
// 021   ----------------------------------------
 BYTE   En4  v056
 BYTE   W96
// 022   ----------------------------------------
 BYTE   Gn4
 BYTE   W96
// 023   ----------------------------------------
 BYTE   GoTo
  POIN2 Label_1_01464768
 BYTE   FINE

//**************** Track 3 (Midi-Chn.2) ****************//

songLightEmUp_003:
// 000   ----------------------------------------
 BYTE   VOL   80*songLightEmUp_mvl/mxv
 BYTE   KEYSH   songLightEmUp_key+0
Label_2_014648AC:
 BYTE   VOICE   100
 BYTE   N96  En2  v048
 BYTE   N96  An2
 BYTE   N96  Cn3
 BYTE   W96
// 001   ----------------------------------------
 BYTE   An2
 BYTE   N96  Cn3
 BYTE   N96  En3
 BYTE   W96
// 002   ----------------------------------------
 BYTE   Gn2
 BYTE   N96  Bn2
 BYTE   N96  En3
 BYTE   W96
// 003   ----------------------------------------
Label_2_014648C2:
 BYTE   N96  Bn2  v048
 BYTE   N96  En3
 BYTE   N96  Fs3
 BYTE   W96
 BYTE   PEND 
// 004   ----------------------------------------
Label_2_014648CB:
 BYTE   N96  Dn3  v048
 BYTE   N96  Fs3
 BYTE   N96  An3
 BYTE   W96
 BYTE   PEND 
// 005   ----------------------------------------
 BYTE   Fs3
 BYTE   N96  An3
 BYTE   N96  Dn4
 BYTE   W96
// 006   ----------------------------------------
 BYTE   En3
 BYTE   N96  An3
 BYTE   N96  Cn4
 BYTE   W96
// 007   ----------------------------------------
Label_2_014648E0:
 BYTE   N96  Cn3  v048
 BYTE   N96  En3
 BYTE   N96  An3
 BYTE   W96
 BYTE   PEND 
// 008   ----------------------------------------
 BYTE   Bn2
 BYTE   N96  En3
 BYTE   N96  Gn3
 BYTE   W96
 BYTE   PATT
  POIN2 Label_2_014648C2
// 009   ----------------------------------------
 BYTE   N96  An2  v048
 BYTE   N96  Dn3
 BYTE   N96  Fs3
 BYTE   W96
 BYTE   PATT
  POIN2 Label_2_014648CB
// 010   ----------------------------------------
 BYTE   N96  An2  v048
 BYTE   N96  Dn3
 BYTE   N96  Fn3
 BYTE   W96
// 011   ----------------------------------------
 BYTE   Dn3
 BYTE   N96  Fn3
 BYTE   N96  An3
 BYTE   W96
 BYTE   PATT
  POIN2 Label_2_014648E0
// 012   ----------------------------------------
 BYTE   N96  En3  v048
 BYTE   N96  An3
 BYTE   N96  Bn3
 BYTE   W96
// 013   ----------------------------------------
Label_2_0146491C:
 BYTE   N96  Gn3  v048
 BYTE   N96  Bn3
 BYTE   N96  Dn4
 BYTE   W96
 BYTE   PEND 
// 014   ----------------------------------------
 BYTE   Bn3
 BYTE   N96  Dn4
 BYTE   N96  Gn4
 BYTE   W96
// 015   ----------------------------------------
 BYTE   An3
 BYTE   N96  Dn4
 BYTE   N96  Fn4
 BYTE   W96
// 016   ----------------------------------------
 BYTE   Fn3
 BYTE   N96  An3
 BYTE   N96  Dn4
 BYTE   W96
// 017   ----------------------------------------
 BYTE   En3
 BYTE   N96  An3
 BYTE   N96  Cn4
 BYTE   W96
// 018   ----------------------------------------
 BYTE   En3
 BYTE   N96  An3
 BYTE   N96  Bn3
 BYTE   W96
// 019   ----------------------------------------
 BYTE   Dn3
 BYTE   N96  Gn3
 BYTE   N96  Bn3
 BYTE   W96
 BYTE   PATT
  POIN2 Label_2_0146491C
// 020   ----------------------------------------
 BYTE   GoTo
  POIN2 Label_2_014648AC
 BYTE   FINE

//**************** Track 4 (Midi-Chn.3) ****************//

songLightEmUp_004:
// 000   ----------------------------------------
 BYTE   VOL   80*songLightEmUp_mvl/mxv
 BYTE   KEYSH   songLightEmUp_key+0
Label_3_01464C5C:
 BYTE   VOICE   4
 BYTE   N12  En1  v064
 BYTE   W12
 BYTE   N06
 BYTE   W06
 BYTE   N06
 BYTE   W06
 BYTE   N12
 BYTE   W12
 BYTE   Dn1
 BYTE   W12
 BYTE   Bn1
 BYTE   W12
 BYTE   Dn1
 BYTE   W12
 BYTE   Fs1
 BYTE   W12
 BYTE   En1
 BYTE   W12
// 001   ----------------------------------------
Label_3_01464C72:
 BYTE   N12  An1  v064
 BYTE   W12
 BYTE   N06
 BYTE   W06
 BYTE   N06
 BYTE   W06
 BYTE   N12
 BYTE   W12
 BYTE   Gn1
 BYTE   W12
 BYTE   En2
 BYTE   W12
 BYTE   Gn1
 BYTE   W12
 BYTE   Bn1
 BYTE   W12
 BYTE   An1
 BYTE   W12
 BYTE   PEND 
// 002   ----------------------------------------
 BYTE   Gn1
 BYTE   W12
 BYTE   N06
 BYTE   W06
 BYTE   N06
 BYTE   W06
 BYTE   N12
 BYTE   W12
 BYTE   Fs1
 BYTE   W12
 BYTE   Dn2
 BYTE   W12
 BYTE   Fs1
 BYTE   W12
 BYTE   An1
 BYTE   W12
 BYTE   Gn1
 BYTE   W12
// 003   ----------------------------------------
Label_3_01464C99:
 BYTE   N12  Bn1  v064
 BYTE   W12
 BYTE   N06
 BYTE   W06
 BYTE   N06
 BYTE   W06
 BYTE   N12
 BYTE   W12
 BYTE   An1
 BYTE   W12
 BYTE   Fs2
 BYTE   W12
 BYTE   An1
 BYTE   W12
 BYTE   Cn2
 BYTE   W12
 BYTE   Bn1
 BYTE   W12
 BYTE   PEND 
// 004   ----------------------------------------
Label_3_01464CAE:
 BYTE   N12  Dn2  v064
 BYTE   W12
 BYTE   N06
 BYTE   W06
 BYTE   N06
 BYTE   W06
 BYTE   N12
 BYTE   W12
 BYTE   Cn2
 BYTE   W12
 BYTE   Dn2
 BYTE   W12
 BYTE   N12
 BYTE   W12
 BYTE   N12
 BYTE   W12
 BYTE   Cn2
 BYTE   W12
 BYTE   PEND 
// 005   ----------------------------------------
 BYTE   Fs2
 BYTE   W12
 BYTE   N06
 BYTE   W06
 BYTE   N06
 BYTE   W06
 BYTE   N12
 BYTE   W12
 BYTE   En2
 BYTE   W12
 BYTE   Fs2
 BYTE   W12
 BYTE   N12
 BYTE   W12
 BYTE   N12
 BYTE   W12
 BYTE   En2
 BYTE   W12
// 006   ----------------------------------------
 BYTE   N12
 BYTE   W12
 BYTE   N06
 BYTE   W06
 BYTE   N06
 BYTE   W06
 BYTE   N12
 BYTE   W12
 BYTE   Dn2
 BYTE   W12
 BYTE   Bn2
 BYTE   W12
 BYTE   Dn2
 BYTE   W12
 BYTE   Fs2
 BYTE   W12
 BYTE   En2
 BYTE   W12
// 007   ----------------------------------------
Label_3_01464CE7:
 BYTE   N12  Cn2  v064
 BYTE   W12
 BYTE   N06
 BYTE   W06
 BYTE   N06
 BYTE   W06
 BYTE   N12
 BYTE   W12
 BYTE   Bn1
 BYTE   W12
 BYTE   Gn2
 BYTE   W12
 BYTE   Bn1
 BYTE   W12
 BYTE   Dn2
 BYTE   W12
 BYTE   Cn2
 BYTE   W12
 BYTE   PEND 
// 008   ----------------------------------------
 BYTE   Bn1
 BYTE   W12
 BYTE   N06
 BYTE   W06
 BYTE   N06
 BYTE   W06
 BYTE   N12
 BYTE   W12
 BYTE   An1
 BYTE   W12
 BYTE   Bn1
 BYTE   W12
 BYTE   N12
 BYTE   W12
 BYTE   N12
 BYTE   W12
 BYTE   An1
 BYTE   W12
 BYTE   PATT
  POIN2 Label_3_01464C99
// 009   ----------------------------------------
 BYTE   N12  An1  v064
 BYTE   W12
 BYTE   N06
 BYTE   W06
 BYTE   N06
 BYTE   W06
 BYTE   N12
 BYTE   W12
 BYTE   Gn1
 BYTE   W12
 BYTE   An1
 BYTE   W12
 BYTE   N12
 BYTE   W12
 BYTE   N12
 BYTE   W12
 BYTE   Gn1
 BYTE   W12
 BYTE   PATT
  POIN2 Label_3_01464CAE
 BYTE   PATT
  POIN2 Label_3_01464C72
// 010   ----------------------------------------
 BYTE   N12  Dn2  v064
 BYTE   W12
 BYTE   N06
 BYTE   W06
 BYTE   N06
 BYTE   W06
 BYTE   N12
 BYTE   W12
 BYTE   Cn2
 BYTE   W12
 BYTE   An2
 BYTE   W12
 BYTE   Cn2
 BYTE   W12
 BYTE   En2
 BYTE   W12
 BYTE   Dn2
 BYTE   W12
 BYTE   PATT
  POIN2 Label_3_01464CE7
// 011   ----------------------------------------
Label_3_01464D4A:
 BYTE   N12  En2  v064
 BYTE   W12
 BYTE   N06
 BYTE   W06
 BYTE   N06
 BYTE   W06
 BYTE   N12
 BYTE   W12
 BYTE   Dn2
 BYTE   W12
 BYTE   Bn2
 BYTE   W12
 BYTE   Dn2
 BYTE   W12
 BYTE   Fn2
 BYTE   W12
 BYTE   En2
 BYTE   W12
 BYTE   PEND 
// 012   ----------------------------------------
Label_3_01464D5F:
 BYTE   N12  Gn2  v064
 BYTE   W12
 BYTE   N06
 BYTE   W06
 BYTE   N06
 BYTE   W06
 BYTE   N12
 BYTE   W12
 BYTE   Fn2
 BYTE   W12
 BYTE   Gn2
 BYTE   W12
 BYTE   N12
 BYTE   W12
 BYTE   N12
 BYTE   W12
 BYTE   Fn2
 BYTE   W12
 BYTE   PEND 
// 013   ----------------------------------------
 BYTE   Bn2
 BYTE   W12
 BYTE   N06
 BYTE   W06
 BYTE   N06
 BYTE   W06
 BYTE   N12
 BYTE   W12
 BYTE   An2
 BYTE   W12
 BYTE   Bn2
 BYTE   W12
 BYTE   N12
 BYTE   W12
 BYTE   N12
 BYTE   W12
 BYTE   An2
 BYTE   W12
// 014   ----------------------------------------
 BYTE   N12
 BYTE   W12
 BYTE   N06
 BYTE   W06
 BYTE   N06
 BYTE   W06
 BYTE   N12
 BYTE   W12
 BYTE   Gn2
 BYTE   W12
 BYTE   En3
 BYTE   W12
 BYTE   Gn2
 BYTE   W12
 BYTE   Bn2
 BYTE   W12
 BYTE   An2
 BYTE   W12
// 015   ----------------------------------------
 BYTE   Fn2
 BYTE   W12
 BYTE   N06
 BYTE   W06
 BYTE   N06
 BYTE   W06
 BYTE   N12
 BYTE   W12
 BYTE   En2
 BYTE   W12
 BYTE   Cn3
 BYTE   W12
 BYTE   En2
 BYTE   W12
 BYTE   Gn2
 BYTE   W12
 BYTE   Fn2
 BYTE   W12
// 016   ----------------------------------------
 BYTE   En2
 BYTE   W12
 BYTE   N06
 BYTE   W06
 BYTE   N06
 BYTE   W06
 BYTE   N12
 BYTE   W12
 BYTE   Dn2
 BYTE   W12
 BYTE   En2
 BYTE   W12
 BYTE   N12
 BYTE   W12
 BYTE   N12
 BYTE   W12
 BYTE   Dn2
 BYTE   W12
 BYTE   PATT
  POIN2 Label_3_01464D4A
 BYTE   PATT
  POIN2 Label_3_01464CAE
 BYTE   PATT
  POIN2 Label_3_01464D5F
// 017   ----------------------------------------
 BYTE   GoTo
  POIN2 Label_3_01464C5C
 BYTE   FINE

//**************** Track 5 (Midi-Chn.4) ****************//

songLightEmUp_005:
// 000   ----------------------------------------
 BYTE   VOL   80*songLightEmUp_mvl/mxv
 BYTE   KEYSH   songLightEmUp_key+0
Label_4_01464498:
 BYTE   VOICE   124
 BYTE   N24  Cs1  v064
 BYTE   N24  Cs2
 BYTE   W24
 BYTE   Dn1
 BYTE   W24
 BYTE   N24
 BYTE   W24
 BYTE   N06  Dn1  v048
 BYTE   W06
 BYTE   Dn1  v052
 BYTE   W06
 BYTE   Dn1  v060
 BYTE   W06
 BYTE   Dn1  v064
 BYTE   W06
// 001   ----------------------------------------
Label_4_014644B1:
 BYTE   N24  Cs1  v064
 BYTE   W24
 BYTE   Dn1
 BYTE   W24
 BYTE   N24
 BYTE   W24
 BYTE   N06  Dn1  v048
 BYTE   W06
 BYTE   Dn1  v052
 BYTE   W06
 BYTE   Dn1  v060
 BYTE   W06
 BYTE   Dn1  v064
 BYTE   W06
 BYTE   PEND 
// 002   ----------------------------------------
Label_4_014644C7:
 BYTE   N24  Cs1  v064
 BYTE   N24  Cs2
 BYTE   W24
 BYTE   Dn1
 BYTE   W24
 BYTE   N24
 BYTE   W24
 BYTE   N06  Dn1  v048
 BYTE   W06
 BYTE   Dn1  v052
 BYTE   W06
 BYTE   Dn1  v060
 BYTE   W06
 BYTE   Dn1  v064
 BYTE   W06
 BYTE   PEND 
 BYTE   PATT
  POIN2 Label_4_014644B1
 BYTE   PATT
  POIN2 Label_4_014644C7
// 003   ----------------------------------------
Label_4_014644E9:
 BYTE   N24  Cs1  v064
 BYTE   W24
 BYTE   Dn1
 BYTE   W24
 BYTE   N12
 BYTE   W12
 BYTE   En1
 BYTE   W12
 BYTE   N12
 BYTE   W12
 BYTE   Dn1
 BYTE   W12
 BYTE   PEND 
 BYTE   PATT
  POIN2 Label_4_014644C7
 BYTE   PATT
  POIN2 Label_4_014644B1
 BYTE   PATT
  POIN2 Label_4_014644C7
 BYTE   PATT
  POIN2 Label_4_014644B1
 BYTE   PATT
  POIN2 Label_4_014644C7
 BYTE   PATT
  POIN2 Label_4_014644E9
 BYTE   PATT
  POIN2 Label_4_014644C7
 BYTE   PATT
  POIN2 Label_4_014644B1
 BYTE   PATT
  POIN2 Label_4_014644C7
 BYTE   PATT
  POIN2 Label_4_014644B1
 BYTE   PATT
  POIN2 Label_4_014644C7
 BYTE   PATT
  POIN2 Label_4_014644E9
 BYTE   PATT
  POIN2 Label_4_014644C7
 BYTE   PATT
  POIN2 Label_4_014644B1
 BYTE   PATT
  POIN2 Label_4_014644C7
 BYTE   PATT
  POIN2 Label_4_014644B1
 BYTE   PATT
  POIN2 Label_4_014644C7
 BYTE   PATT
  POIN2 Label_4_014644E9
// 004   ----------------------------------------
 BYTE   GoTo
  POIN2 Label_4_01464498
 BYTE   FINE

//******************************************************//
	ALIGN 4

songLightEmUp:
	BYTE	5	// NumTrks
	BYTE	0	// NumBlks
	BYTE	songLightEmUp_pri	// Priority
	BYTE	songLightEmUp_rev	// Reverb.
    
	POIN2	songLightEmUp_grp
    
	POIN2	songLightEmUp_001
	POIN2	songLightEmUp_002
	POIN2	songLightEmUp_003
	POIN2	songLightEmUp_004
	POIN2	songLightEmUp_005

	
