//Event file generated from Sappy .s format.
	#include "MPlayDef.event"

	#define	LockedGirl_grp  voicegroup000
	#define	LockedGirl_pri  0
	#define	LockedGirl_rev  0
	#define	LockedGirl_mvl  55
	#define	LockedGirl_key  0
	#define	LockedGirl_tbs  1
	#define	LockedGirl_exg  0
	#define	LockedGirl_cmp  1

	// .rodata
	//	LockedGirl
	ALIGN 4

//**************** Track 1 (Midi-Chn.1) ****************//

LockedGirl_1:
	BYTE	KEYSH   LockedGirl_key+0
LockedGirl_1_B1:
// 000   ----------------------------------------
	BYTE	TEMPO   154*LockedGirl_tbs/2
	BYTE		VOICE   127
	BYTE		BENDR   12
	BYTE		PAN     c_v+0
	BYTE		VOL     88*LockedGirl_mvl/mxv
	BYTE		MODT    0
	BYTE		LFOS    44
	BYTE	W01
	BYTE	TEMPO   149*LockedGirl_tbs/2
	BYTE		N01     Cs2   v076
	BYTE		N92     Cn5   v060
	BYTE	W92
	BYTE	W03
// 001   ----------------------------------------
	BYTE	W96
// 002   ----------------------------------------
	BYTE	W96
// 003   ----------------------------------------
	BYTE	W96
// 004   ----------------------------------------
	BYTE	W96
// 005   ----------------------------------------
	BYTE	W96
// 006   ----------------------------------------
	BYTE	W96
// 007   ----------------------------------------
	BYTE	W01
	BYTE	TEMPO   148*LockedGirl_tbs/2
	BYTE	W06
	BYTE	TEMPO   149*LockedGirl_tbs/2
	BYTE	W12
	BYTE	TEMPO   150*LockedGirl_tbs/2
	BYTE	W16
	BYTE	TEMPO   151*LockedGirl_tbs/2
	BYTE	W14
	BYTE		N01     Fs2   v028
	BYTE	W01
	BYTE	TEMPO   152*LockedGirl_tbs/2
	BYTE	W11
	BYTE		N01   
	BYTE	W01
	BYTE	TEMPO   153*LockedGirl_tbs/2
	BYTE	W11
	BYTE		        Cn1   v044
	BYTE		N01     Dn1   v096
	BYTE		N01     Fs1   v076
	BYTE		N01     Fs2   v056
	BYTE	W12
	BYTE		        Fs1   v076
	BYTE		N01     Fs2   v028
	BYTE	W11
// 008   ----------------------------------------
LockedGirl_1_008:
	BYTE	W01
	BYTE		N01     Cn1   v028
	BYTE		N01     Fs1   v076
	BYTE		N01     Cs2   v056
	BYTE		N01     Fs2   v028
	BYTE	W06
	BYTE		        Fs1   v044
	BYTE		N01     An1   v008
	BYTE	W06
	BYTE		N01   
	BYTE		N01     Fs2   v028
	BYTE	W06
	BYTE		        Fs1   v044
	BYTE	W06
	BYTE		        Cn1   v056
	BYTE		N01     Dn1 
	BYTE		N01     Fs1   v076
	BYTE		N01     Fs2   v056
	BYTE	W06
	BYTE		        Fn1   v016
	BYTE		N01     Fs1   v044
	BYTE	W06
	BYTE		        Cn1   v028
	BYTE		N01     Fn1   v016
	BYTE		N01     Fs2   v028
	BYTE	W06
	BYTE		        Fs1   v076
	BYTE	W06
	BYTE		        Fn1   v044
	BYTE		N01     Fs1   v076
	BYTE		N01     Fs2   v028
	BYTE	W06
	BYTE		        Fn1   v044
	BYTE	W06
	BYTE		        Cn1   v028
	BYTE		N01     Fs1   v076
	BYTE		N01     Fs2   v028
	BYTE	W06
	BYTE		        Fn1   v056
	BYTE	W06
	BYTE		        Cn1 
	BYTE		N01     Dn1 
	BYTE		N01     Fs1   v044
	BYTE		N01     Fs2   v056
	BYTE	W06
	BYTE		        An1 
	BYTE	W06
	BYTE		        Fn1 
	BYTE		N01     Fs1   v076
	BYTE		N01     Fs2   v028
	BYTE	W06
	BYTE		        Fs1   v076
	BYTE	W05
	BYTE	PEND
// 009   ----------------------------------------
LockedGirl_1_009:
	BYTE	W01
	BYTE		N01     Cn1   v028
	BYTE		N01     Fn1 
	BYTE		N01     Fs1   v076
	BYTE		N01     Fs2   v028
	BYTE	W06
	BYTE		        Fn1 
	BYTE		N01     Fs1   v044
	BYTE	W06
	BYTE		N01   
	BYTE		N01     Fs2   v028
	BYTE	W12
	BYTE		        Cn1   v056
	BYTE		N01     Dn1 
	BYTE		N01     Fs1   v076
	BYTE		N01     Fs2   v056
	BYTE	W06
	BYTE		        Fs1   v076
	BYTE		N01     An1   v044
	BYTE	W06
	BYTE		        Cn1   v028
	BYTE		N01     Fn1   v056
	BYTE		N01     Fs1   v044
	BYTE		N01     Fs2   v028
	BYTE	W06
	BYTE		        Cn1 
	BYTE		N01     Fn1   v056
	BYTE		N01     Fs1   v076
	BYTE	W06
	BYTE		        Fs2   v028
	BYTE	W06
	BYTE		        Fs1   v076
	BYTE	W06
	BYTE		        Cn1   v028
	BYTE		N01     Fs1   v076
	BYTE		N01     Cn2 
	BYTE		N01     Fs2   v028
	BYTE	W06
	BYTE		        Fn1   v076
	BYTE		N01     Fs1   v044
	BYTE	W06
	BYTE		        Cn1   v056
	BYTE		N01     Dn1 
	BYTE		N01     Fs1   v076
	BYTE		N01     Fs2   v056
	BYTE	W06
	BYTE		        Fs1   v076
	BYTE		N01     Cn2 
	BYTE	W06
	BYTE		N01   
	BYTE		N01     Fs2   v028
	BYTE	W06
	BYTE		        Fs1   v044
	BYTE	W05
	BYTE	PEND
// 010   ----------------------------------------
LockedGirl_1_010:
	BYTE	W01
	BYTE		N01     Cn1   v028
	BYTE		N01     Fs1   v076
	BYTE		N01     Fs2   v028
	BYTE	W06
	BYTE		        Fs1   v044
	BYTE		N01     An1   v008
	BYTE	W06
	BYTE		N01   
	BYTE		N01     Fs2   v028
	BYTE	W06
	BYTE		        Fs1   v044
	BYTE	W06
	BYTE		        Cn1   v056
	BYTE		N01     Dn1 
	BYTE		N01     Fs1   v076
	BYTE		N01     Fs2   v056
	BYTE	W06
	BYTE		        Fn1   v016
	BYTE		N01     Fs1   v044
	BYTE	W06
	BYTE		        Cn1   v028
	BYTE		N01     Fn1   v016
	BYTE		N01     Fs2   v028
	BYTE	W06
	BYTE		        Fs1   v076
	BYTE	W06
	BYTE		        Fn1   v044
	BYTE		N01     Fs1   v076
	BYTE		N01     Fs2   v028
	BYTE	W06
	BYTE		        Fn1   v044
	BYTE		N01     Fs1   v076
	BYTE	W06
	BYTE		        Cn1   v028
	BYTE		N01     Fs2 
	BYTE	W06
	BYTE		        Fn1   v056
	BYTE		N01     Fs1   v076
	BYTE	W06
	BYTE		        Cn1   v056
	BYTE		N01     Dn1 
	BYTE		N01     Fs1   v076
	BYTE		N01     Fs2   v056
	BYTE	W06
	BYTE		        An1 
	BYTE	W06
	BYTE		        Fn1 
	BYTE		N01     Fs1   v044
	BYTE		N01     Fs2   v028
	BYTE	W06
	BYTE		        Fs1   v076
	BYTE	W05
	BYTE	PEND
// 011   ----------------------------------------
LockedGirl_1_011:
	BYTE	W01
	BYTE		N01     Cn1   v028
	BYTE		N01     Fn1 
	BYTE		N01     Fs1   v076
	BYTE		N01     Fs2   v028
	BYTE	W06
	BYTE		        Fn1 
	BYTE		N01     Fs1   v076
	BYTE	W06
	BYTE		N01   
	BYTE		N01     Fs2   v028
	BYTE	W06
	BYTE		        Fs1   v076
	BYTE	W06
	BYTE		        Cn1   v056
	BYTE		N01     Dn1 
	BYTE		N01     Fs2 
	BYTE	W06
	BYTE		        Fs1   v044
	BYTE		N01     An1 
	BYTE	W06
	BYTE		        Cn1   v028
	BYTE		N01     Fn1   v056
	BYTE		N01     Fs1   v076
	BYTE		N01     Fs2   v028
	BYTE	W06
	BYTE		        Cn1 
	BYTE		N01     Fn1   v056
	BYTE		N01     Fs1   v076
	BYTE	W06
	BYTE		        Fs1   v044
	BYTE		N01     Fs2   v028
	BYTE	W06
	BYTE		        Fs1   v076
	BYTE	W06
	BYTE		        Cn1   v028
	BYTE		N01     Cn2   v076
	BYTE		N01     Fs2   v028
	BYTE	W06
	BYTE		        Fn1   v076
	BYTE	W06
	BYTE		        Cn1   v056
	BYTE		N01     Dn1 
	BYTE		N01     Fs1   v076
	BYTE		N01     Fs2   v056
	BYTE	W06
	BYTE		        Fs1   v044
	BYTE		N01     Cn2   v076
	BYTE	W06
	BYTE		        Fs1 
	BYTE		N01     Cn2 
	BYTE		N01     Fs2   v028
	BYTE	W06
	BYTE		        Fs1   v076
	BYTE	W05
	BYTE	PEND
// 012   ----------------------------------------
	BYTE	PATT
	 POIN2	LockedGirl_1_010
// 013   ----------------------------------------
	BYTE	PATT
	 POIN2	LockedGirl_1_011
// 014   ----------------------------------------
LockedGirl_1_014:
	BYTE	W01
	BYTE		N01     Cn1   v028
	BYTE		N01     Fs1   v076
	BYTE		N01     Fs2   v028
	BYTE	W06
	BYTE		        Fs1   v044
	BYTE		N01     An1   v008
	BYTE	W06
	BYTE		        Fs1   v044
	BYTE		N01     An1   v008
	BYTE		N01     Fs2   v028
	BYTE	W12
	BYTE		        Cn1   v056
	BYTE		N01     Dn1 
	BYTE		N01     Fs1   v044
	BYTE		N01     Fs2   v056
	BYTE	W06
	BYTE		        Fn1   v016
	BYTE		N01     Fs1   v076
	BYTE	W06
	BYTE		        Cn1   v028
	BYTE		N01     Fn1   v016
	BYTE		N01     Fs1   v044
	BYTE		N01     Fs2   v028
	BYTE	W12
	BYTE		        Fn1   v044
	BYTE		N01     Fs2   v028
	BYTE	W06
	BYTE		        Fn1   v044
	BYTE		N01     Fs1 
	BYTE	W06
	BYTE		        Cn1   v028
	BYTE		N01     Fs1   v044
	BYTE		N01     Fs2   v028
	BYTE	W06
	BYTE		        Fn1   v056
	BYTE		N01     Fs1   v076
	BYTE	W06
	BYTE		        Cn1   v056
	BYTE		N01     Dn1 
	BYTE		N01     Fs1   v076
	BYTE		N01     Fs2   v056
	BYTE	W06
	BYTE		        An1 
	BYTE	W06
	BYTE		        Fn1 
	BYTE		N01     Fs1   v076
	BYTE		N01     Fs2   v028
	BYTE	W06
	BYTE		        Fs1   v076
	BYTE	W05
	BYTE	PEND
// 015   ----------------------------------------
LockedGirl_1_015:
	BYTE	W01
	BYTE		N01     Fn1   v028
	BYTE		N01     Fs1   v076
	BYTE		N01     Fs2   v028
	BYTE	W06
	BYTE		        Fn1 
	BYTE	W06
	BYTE		        Dn1   v056
	BYTE		N01     Fs1   v076
	BYTE		N01     Fs2   v028
	BYTE	W06
	BYTE		        Dn1   v056
	BYTE		N01     Fs1   v076
	BYTE	W06
	BYTE		        Cn1   v056
	BYTE		N01     Dn1 
	BYTE		N01     Fs1   v044
	BYTE		N01     Fs2   v056
	BYTE	W06
	BYTE		        Dn1   v096
	BYTE		N01     Fs1   v076
	BYTE		N01     An1   v044
	BYTE	W06
	BYTE		        Cn1   v028
	BYTE		N01     Dn1   v096
	BYTE		N01     Fn1   v056
	BYTE		N01     Fs2   v028
	BYTE	W06
	BYTE		        Cn1 
	BYTE		N01     Fn1   v056
	BYTE	W06
	BYTE		        Dn1   v096
	BYTE		N01     Fs1   v076
	BYTE		N01     Fs2   v028
	BYTE	W06
	BYTE		        Dn1   v096
	BYTE		N01     Fs1   v044
	BYTE	W06
	BYTE		        Cn1   v028
	BYTE		N01     Fs1   v076
	BYTE		N01     Cn2 
	BYTE		N01     Fs2   v028
	BYTE	W06
	BYTE		        Dn1   v096
	BYTE		N01     Fn1   v076
	BYTE	W06
	BYTE		        Cn1   v056
	BYTE		N01     Dn1   v096
	BYTE		N01     Fs1   v044
	BYTE		N01     Fs2   v056
	BYTE	W06
	BYTE		        Dn1   v096
	BYTE		N01     Fs1   v076
	BYTE		N01     Cn2 
	BYTE	W06
	BYTE		        Dn1   v096
	BYTE		N01     Fs1   v076
	BYTE		N01     Cn2 
	BYTE		N01     Fs2   v028
	BYTE	W06
	BYTE		        Dn1   v096
	BYTE		N01     Fs1   v076
	BYTE	W05
	BYTE	PEND
// 016   ----------------------------------------
	BYTE	W01
	BYTE	TEMPO   151*LockedGirl_tbs/2
	BYTE		        Cn1   v096
	BYTE		N01     Cs2   v116
	BYTE	W18
	BYTE		        Ds2   v056
	BYTE	W18
	BYTE		N01   
	BYTE	W18
	BYTE		N01   
	BYTE	W12
	BYTE		N01   
	BYTE	W12
	BYTE		        Gs1   v028
	BYTE	W06
	BYTE		        Ds2   v056
	BYTE	W11
// 017   ----------------------------------------
	BYTE	W01
	BYTE		        Cn1   v096
	BYTE		N01     Cs2   v116
	BYTE	W12
	BYTE		        Fs1   v044
	BYTE	W06
	BYTE		        Ds2   v056
	BYTE	W06
	BYTE		        Fs1   v044
	BYTE	W06
	BYTE		N01   
	BYTE	W06
	BYTE		        Ds2   v056
	BYTE	W06
	BYTE		        Gs1   v028
	BYTE	W06
	BYTE		        Ds2   v056
	BYTE	W06
	BYTE		        Gs1 
	BYTE	W12
	BYTE		        Ds2 
	BYTE	W06
	BYTE		        Cn1 
	BYTE	W12
	BYTE		N01   
	BYTE		N01     Ds2 
	BYTE	W11
// 018   ----------------------------------------
	BYTE	W01
	BYTE		        Cn1   v096
	BYTE		N01     Cs2   v116
	BYTE	W18
	BYTE		        Ds2   v056
	BYTE	W18
	BYTE		N01   
	BYTE	W06
	BYTE		        Gs1   v028
	BYTE	W06
	BYTE		        Cn1   v056
	BYTE		N01     Ds2 
	BYTE	W06
	BYTE		        Gs1 
	BYTE	W06
	BYTE		        Fs1   v044
	BYTE	W06
	BYTE		N01   
	BYTE		N01     Ds2   v056
	BYTE	W18
	BYTE		        Cn1 
	BYTE		N01     Fs1   v044
	BYTE		N01     Ds2   v056
	BYTE	W06
	BYTE		        Fs1   v044
	BYTE	W05
// 019   ----------------------------------------
	BYTE	W01
	BYTE		        Cn1   v096
	BYTE		N01     Cs2   v116
	BYTE	W18
	BYTE		        Fs1   v004
	BYTE		N01     Ds2   v056
	BYTE	W06
	BYTE		        Fs1   v008
	BYTE	W06
	BYTE		        Fs1   v016
	BYTE	W06
	BYTE		        Fs1   v028
	BYTE		N01     Ds2   v056
	BYTE	W06
	BYTE		        Fs1   v044
	BYTE		N01     Gs1   v028
	BYTE	W06
	BYTE		        Fs1   v056
	BYTE		N01     Ds2 
	BYTE	W06
	BYTE		        Fs1   v076
	BYTE		N01     Gs1   v056
	BYTE	W06
	BYTE		        Cn1 
	BYTE		N01     Fs1   v096
	BYTE	W06
	BYTE		        Fs1   v116
	BYTE		N01     Ds2   v056
	BYTE	W06
	BYTE		        Dn1   v096
	BYTE		N01     Fs1   v116
	BYTE		N01     Ds2   v056
	BYTE	W06
	BYTE		        Fs1   v096
	BYTE	W06
	BYTE		        Fs1   v116
	BYTE		N01     Ds2   v056
	BYTE	W06
	BYTE		        Fs1   v116
	BYTE	W05
// 020   ----------------------------------------
	BYTE	W01
	BYTE	TEMPO   154*LockedGirl_tbs/2
	BYTE		        Cn1   v096
	BYTE		N01     Fs1   v116
	BYTE	W06
	BYTE		N01   
	BYTE	W06
	BYTE		        Cn1   v028
	BYTE		N01     As1   v116
	BYTE	W12
	BYTE		        Dn1   v096
	BYTE		N01     Fs1   v116
	BYTE	W06
	BYTE		N01   
	BYTE	W06
	BYTE		        Cn1   v044
	BYTE		N01     As1   v116
	BYTE	W06
	BYTE		        Fs1 
	BYTE	W06
	BYTE		        Cn1   v096
	BYTE	W06
	BYTE		        Fs1   v116
	BYTE	W06
	BYTE		        Cn1   v044
	BYTE		N01     As1   v116
	BYTE	W12
	BYTE		        Dn1   v096
	BYTE		N01     Fs1   v116
	BYTE	W06
	BYTE		N01   
	BYTE	W06
	BYTE		        Cn1   v044
	BYTE		N01     As1   v116
	BYTE	W06
	BYTE		        Cn1   v044
	BYTE	W05
// 021   ----------------------------------------
LockedGirl_1_021:
	BYTE	W01
	BYTE		N01     Cn1   v096
	BYTE		N01     Fs1   v116
	BYTE	W06
	BYTE		N01   
	BYTE	W06
	BYTE		        Cn1   v028
	BYTE		N01     As1   v116
	BYTE	W12
	BYTE		        Dn1   v096
	BYTE		N01     Fs1   v116
	BYTE	W06
	BYTE		N01   
	BYTE	W06
	BYTE		        Cn1   v044
	BYTE		N01     As1   v116
	BYTE	W06
	BYTE		        Fs1 
	BYTE	W06
	BYTE		        Cn1   v096
	BYTE	W06
	BYTE		        Fs1   v116
	BYTE	W06
	BYTE		        Cn1   v044
	BYTE		N01     As1   v116
	BYTE	W12
	BYTE		        Dn1   v096
	BYTE		N01     Fs1   v116
	BYTE	W06
	BYTE		N01   
	BYTE	W06
	BYTE		        Cn1   v044
	BYTE		N01     As1   v116
	BYTE	W06
	BYTE		        Cn1   v044
	BYTE	W05
	BYTE	PEND
// 022   ----------------------------------------
	BYTE	PATT
	 POIN2	LockedGirl_1_021
// 023   ----------------------------------------
LockedGirl_1_023:
	BYTE	W01
	BYTE		N01     Cn1   v096
	BYTE		N01     Fs1   v116
	BYTE	W06
	BYTE		N01   
	BYTE	W06
	BYTE		        Cn1   v028
	BYTE		N01     Dn1   v096
	BYTE		N01     As1   v116
	BYTE	W12
	BYTE		        Dn1   v096
	BYTE		N01     Fs1   v116
	BYTE	W06
	BYTE		N01   
	BYTE	W06
	BYTE		        Cn1   v044
	BYTE		N01     Dn1   v096
	BYTE		N01     As1   v116
	BYTE	W06
	BYTE		        Fs1 
	BYTE	W06
	BYTE		        Cn1   v096
	BYTE		N01     Dn1 
	BYTE	W06
	BYTE		        Fs1   v116
	BYTE	W06
	BYTE		        Cn1   v044
	BYTE		N01     Dn1   v096
	BYTE		N01     As1   v116
	BYTE	W12
	BYTE		        Dn1   v096
	BYTE		N01     Fs1   v116
	BYTE	W06
	BYTE		        Dn1   v096
	BYTE		N01     Fs1   v116
	BYTE	W06
	BYTE		        Cn1   v044
	BYTE		N01     Dn1   v096
	BYTE		N01     As1   v116
	BYTE	W06
	BYTE		        Cn1   v044
	BYTE		N01     Dn1   v096
	BYTE	W05
	BYTE	PEND
// 024   ----------------------------------------
LockedGirl_1_024:
	BYTE	W01
	BYTE		N01     Cn1   v096
	BYTE		N01     Cs2   v116
	BYTE	W06
	BYTE		        Fs1 
	BYTE	W06
	BYTE		        Cn1   v028
	BYTE		N01     As1   v116
	BYTE	W12
	BYTE		        Dn1   v096
	BYTE		N01     Fs1   v116
	BYTE	W06
	BYTE		N01   
	BYTE	W06
	BYTE		        Cn1   v044
	BYTE		N01     As1   v116
	BYTE	W06
	BYTE		        Fs1 
	BYTE	W06
	BYTE		        Cn1   v096
	BYTE	W06
	BYTE		        Fs1   v116
	BYTE	W06
	BYTE		        Cn1   v044
	BYTE		N01     As1   v116
	BYTE	W12
	BYTE		        Dn1   v096
	BYTE		N01     Fs1   v116
	BYTE	W06
	BYTE		N01   
	BYTE	W06
	BYTE		        Cn1   v044
	BYTE		N01     As1   v116
	BYTE	W06
	BYTE		        Cn1   v044
	BYTE	W05
	BYTE	PEND
// 025   ----------------------------------------
	BYTE	PATT
	 POIN2	LockedGirl_1_021
// 026   ----------------------------------------
	BYTE	PATT
	 POIN2	LockedGirl_1_021
// 027   ----------------------------------------
	BYTE	PATT
	 POIN2	LockedGirl_1_023
// 028   ----------------------------------------
	BYTE	PATT
	 POIN2	LockedGirl_1_024
// 029   ----------------------------------------
	BYTE	PATT
	 POIN2	LockedGirl_1_021
// 030   ----------------------------------------
	BYTE	PATT
	 POIN2	LockedGirl_1_021
// 031   ----------------------------------------
	BYTE	PATT
	 POIN2	LockedGirl_1_023
// 032   ----------------------------------------
	BYTE	PATT
	 POIN2	LockedGirl_1_024
// 033   ----------------------------------------
	BYTE	PATT
	 POIN2	LockedGirl_1_021
// 034   ----------------------------------------
	BYTE	PATT
	 POIN2	LockedGirl_1_021
// 035   ----------------------------------------
	BYTE	PATT
	 POIN2	LockedGirl_1_023
// 036   ----------------------------------------
	BYTE	PATT
	 POIN2	LockedGirl_1_024
// 037   ----------------------------------------
	BYTE	PATT
	 POIN2	LockedGirl_1_021
// 038   ----------------------------------------
	BYTE	PATT
	 POIN2	LockedGirl_1_021
// 039   ----------------------------------------
	BYTE	PATT
	 POIN2	LockedGirl_1_023
// 040   ----------------------------------------
	BYTE	W01
	BYTE		N01     Cs2   v076
	BYTE		N92     Cn5   v060
	BYTE	W92
	BYTE	W03
// 041   ----------------------------------------
	BYTE	W96
// 042   ----------------------------------------
	BYTE	W96
// 043   ----------------------------------------
	BYTE	W96
// 044   ----------------------------------------
	BYTE	W96
// 045   ----------------------------------------
	BYTE	W96
// 046   ----------------------------------------
	BYTE	W96
// 047   ----------------------------------------
	BYTE	W48
	BYTE	W01
	BYTE		N01     Fs2   v028
	BYTE	W12
	BYTE		N01   
	BYTE	W12
	BYTE		        Cn1   v044
	BYTE		N01     Dn1   v096
	BYTE		N01     Fs2   v056
	BYTE	W12
	BYTE		        Fs2   v028
	BYTE	W11
// 048   ----------------------------------------
	BYTE	PATT
	 POIN2	LockedGirl_1_008
// 049   ----------------------------------------
	BYTE	PATT
	 POIN2	LockedGirl_1_009
// 050   ----------------------------------------
	BYTE	PATT
	 POIN2	LockedGirl_1_010
// 051   ----------------------------------------
	BYTE	PATT
	 POIN2	LockedGirl_1_011
// 052   ----------------------------------------
	BYTE	PATT
	 POIN2	LockedGirl_1_010
// 053   ----------------------------------------
	BYTE	PATT
	 POIN2	LockedGirl_1_011
// 054   ----------------------------------------
	BYTE	PATT
	 POIN2	LockedGirl_1_014
// 055   ----------------------------------------
	BYTE	PATT
	 POIN2	LockedGirl_1_015
// 056   ----------------------------------------
LockedGirl_1_056:
	BYTE	W01
	BYTE		N01     Cn1   v096
	BYTE		N01     Fs1   v076
	BYTE		N01     Cs2   v056
	BYTE		N01     Fs2   v028
	BYTE	W06
	BYTE		        Fs1   v076
	BYTE		N01     An1   v008
	BYTE	W06
	BYTE		        Cn1   v096
	BYTE		N01     An1   v008
	BYTE		N01     As1   v096
	BYTE		N01     Fs2   v028
	BYTE	W12
	BYTE		        Cn1   v056
	BYTE		N01     Dn1   v096
	BYTE		N01     Fs1   v076
	BYTE		N01     Fs2   v056
	BYTE	W06
	BYTE		        Fn1   v016
	BYTE		N01     Fs1   v076
	BYTE	W06
	BYTE		        Cn1   v096
	BYTE		N01     Fn1   v016
	BYTE		N01     As1   v076
	BYTE		N01     Fs2   v028
	BYTE	W06
	BYTE		        Fs1   v096
	BYTE	W06
	BYTE		        Fn1   v044
	BYTE		N01     Fs1   v096
	BYTE		N01     Fs2   v028
	BYTE	W06
	BYTE		        Fn1   v044
	BYTE		N01     Fs1   v096
	BYTE	W06
	BYTE		        Cn1 
	BYTE		N01     As1 
	BYTE		N01     Fs2   v028
	BYTE	W06
	BYTE		        Fn1   v056
	BYTE	W06
	BYTE		        Cn1 
	BYTE		N01     Dn1   v096
	BYTE		N01     Fs1 
	BYTE		N01     Fs2   v056
	BYTE	W06
	BYTE		        Fs1   v096
	BYTE		N01     An1   v056
	BYTE	W06
	BYTE		        Fn1 
	BYTE		N01     As1   v096
	BYTE		N01     Fs2   v028
	BYTE	W11
	BYTE	PEND
// 057   ----------------------------------------
LockedGirl_1_057:
	BYTE	W01
	BYTE		N01     Cn1   v096
	BYTE		N01     Fn1   v028
	BYTE		N01     Fs1   v096
	BYTE		N01     Fs2   v028
	BYTE	W06
	BYTE		        Fn1 
	BYTE		N01     Fs1   v096
	BYTE	W06
	BYTE		        Cn1 
	BYTE		N01     As1   v076
	BYTE		N01     Fs2   v028
	BYTE	W12
	BYTE		        Cn1   v056
	BYTE		N01     Dn1   v096
	BYTE		N01     Fs1   v076
	BYTE		N01     Fs2   v056
	BYTE	W06
	BYTE		        Fs1   v076
	BYTE		N01     An1   v044
	BYTE	W06
	BYTE		        Cn1   v028
	BYTE		N01     Fn1   v056
	BYTE		N01     As1   v096
	BYTE		N01     Fs2   v028
	BYTE	W06
	BYTE		        Cn1 
	BYTE		N01     Fn1   v056
	BYTE	W06
	BYTE		        Fs1   v096
	BYTE		N01     Fs2   v028
	BYTE	W06
	BYTE		        Fs1   v096
	BYTE	W06
	BYTE		        Cn1   v028
	BYTE		N01     As1   v076
	BYTE		N01     Cn2 
	BYTE		N01     Fs2   v028
	BYTE	W06
	BYTE		        Fn1   v076
	BYTE	W06
	BYTE		        Cn1   v056
	BYTE		N01     Dn1   v096
	BYTE		N01     Fs1 
	BYTE		N01     Fs2   v056
	BYTE	W06
	BYTE		        Fs1   v096
	BYTE		N01     Cn2   v076
	BYTE	W06
	BYTE		        Cn1   v096
	BYTE		N01     As1   v076
	BYTE		N01     Cn2 
	BYTE		N01     Fs2   v028
	BYTE	W11
	BYTE	PEND
// 058   ----------------------------------------
	BYTE	PATT
	 POIN2	LockedGirl_1_056
// 059   ----------------------------------------
	BYTE	PATT
	 POIN2	LockedGirl_1_057
// 060   ----------------------------------------
	BYTE	PATT
	 POIN2	LockedGirl_1_056
// 061   ----------------------------------------
	BYTE	PATT
	 POIN2	LockedGirl_1_057
// 062   ----------------------------------------
	BYTE	PATT
	 POIN2	LockedGirl_1_056
// 063   ----------------------------------------
	BYTE	PATT
	 POIN2	LockedGirl_1_057
// 064   ----------------------------------------
	BYTE	PATT
	 POIN2	LockedGirl_1_056
// 065   ----------------------------------------
	BYTE	PATT
	 POIN2	LockedGirl_1_057
// 066   ----------------------------------------
	BYTE	PATT
	 POIN2	LockedGirl_1_056
// 067   ----------------------------------------
	BYTE	PATT
	 POIN2	LockedGirl_1_057
// 068   ----------------------------------------
	BYTE	PATT
	 POIN2	LockedGirl_1_056
// 069   ----------------------------------------
	BYTE	PATT
	 POIN2	LockedGirl_1_057
// 070   ----------------------------------------
	BYTE	PATT
	 POIN2	LockedGirl_1_056
// 071   ----------------------------------------
	BYTE	W01
	BYTE		N01     Cn1   v096
	BYTE		N01     Fn1   v028
	BYTE		N01     Fs1   v096
	BYTE		N01     Fs2   v028
	BYTE	W06
	BYTE		        Fn1 
	BYTE		N01     Fs1   v096
	BYTE	W06
	BYTE		        Cn1 
	BYTE		N01     As1   v076
	BYTE		N01     Fs2   v028
	BYTE	W12
	BYTE		        Cn1   v056
	BYTE		N01     Dn1   v096
	BYTE		N01     Fs1   v076
	BYTE		N01     Fs2   v056
	BYTE	W06
	BYTE		        Fs1   v076
	BYTE		N01     An1   v044
	BYTE	W06
	BYTE		        Cn1   v028
	BYTE		N01     Fn1   v056
	BYTE		N01     As1   v096
	BYTE		N01     Fs2   v028
	BYTE	W06
	BYTE		        Cn1 
	BYTE		N01     Fn1   v056
	BYTE	W06
	BYTE		        Fs1   v096
	BYTE		N01     Fs2   v028
	BYTE	W06
	BYTE		        Fs1   v096
	BYTE	W06
	BYTE		        Cn1   v028
	BYTE		N01     As1   v076
	BYTE		N01     Cn2 
	BYTE		N01     Fs2   v028
	BYTE	W06
	BYTE		        Fn1   v076
	BYTE	W06
	BYTE		        Cn1   v056
	BYTE		N01     Dn1   v096
	BYTE		N01     Fs1 
	BYTE		N01     Fs2   v056
	BYTE	W06
	BYTE		        Fs1   v096
	BYTE		N01     Cn2   v076
	BYTE	W06
	BYTE		        Cn1   v096
	BYTE		N01     As1   v076
	BYTE		N01     Cn2 
	BYTE		N01     Fs2   v028
	BYTE	W08
	BYTE	GoTo
	 POIN2	LockedGirl_1_B1
LockedGirl_1_B2:
	BYTE	W03
// 072   ----------------------------------------
	BYTE	W96
// 073   ----------------------------------------
	BYTE	W01
	BYTE	TEMPO   155*LockedGirl_tbs/2
	BYTE	FINE

//**************** Track 2 (Midi-Chn.3) ****************//

LockedGirl_2:
	BYTE	KEYSH   LockedGirl_key+0
LockedGirl_2_B1:
// 000   ----------------------------------------
	BYTE		VOICE   4
	BYTE		BENDR   12
	BYTE		PAN     c_v-24
	BYTE		VOL     112*LockedGirl_mvl/mxv
	BYTE		MODT    0
	BYTE		LFOS    44
	BYTE	W01
	BYTE		N32     Gs3   v108
	BYTE	W36
	BYTE		N11     Cs4 
	BYTE	W12
	BYTE		N32     Ds4 
	BYTE	W36
	BYTE		N11     Gs3 
	BYTE	W11
// 001   ----------------------------------------
LockedGirl_2_001:
	BYTE	W01
	BYTE		N32     En4   v108
	BYTE	W36
	BYTE		N11     Gs3 
	BYTE	W12
	BYTE		N44     Fs4 
	BYTE	W44
	BYTE	W03
	BYTE	PEND
// 002   ----------------------------------------
LockedGirl_2_002:
	BYTE	W01
	BYTE		TIE     Gs4   v108
	BYTE	W92
	BYTE	W03
	BYTE	PEND
// 003   ----------------------------------------
	BYTE	W09
	BYTE		EOT   
	BYTE	W01
	BYTE		N02     En4   v056
	BYTE	W03
	BYTE		N11     Gs4   v108
	BYTE	W12
	BYTE		        Cs4 
	BYTE	W12
	BYTE		        Gs4   v080
	BYTE	W12
	BYTE		        Fs4   v108
	BYTE	W12
	BYTE		        Ds4   v080
	BYTE	W12
	BYTE		N23     Bn3   v108
	BYTE	W23
// 004   ----------------------------------------
LockedGirl_2_004:
	BYTE	W01
	BYTE		N32     Cs4   v108
	BYTE	W36
	BYTE		N11     En4 
	BYTE	W12
	BYTE		N32     Ds4 
	BYTE	W36
	BYTE		N11     Bn3 
	BYTE	W11
	BYTE	PEND
// 005   ----------------------------------------
LockedGirl_2_005:
	BYTE	W01
	BYTE		N32     Gs3   v108
	BYTE	W36
	BYTE		N23     Cs4 
	BYTE	W24
	BYTE		N11     Bn3 
	BYTE	W12
	BYTE		N23     An3 
	BYTE	W23
	BYTE	PEND
// 006   ----------------------------------------
LockedGirl_2_006:
	BYTE	W01
	BYTE		N92     Gs3   v108
	BYTE	W92
	BYTE	W03
	BYTE	PEND
// 007   ----------------------------------------
LockedGirl_2_007:
	BYTE	W01
	BYTE		N32     Cn4   v108
	BYTE	W36
	BYTE		N06     Ds3 
	BYTE	W06
	BYTE		N06   
	BYTE	W06
	BYTE		N17   
	BYTE	W18
	BYTE		        En3 
	BYTE	W18
	BYTE		N11     Fs3 
	BYTE	W11
	BYTE	PEND
// 008   ----------------------------------------
LockedGirl_2_008:
	BYTE	W01
	BYTE		N32     Gs3   v108
	BYTE	W36
	BYTE		N11     Cs4 
	BYTE	W12
	BYTE		N32     Ds4 
	BYTE	W36
	BYTE		N11     Gs3 
	BYTE	W11
	BYTE	PEND
// 009   ----------------------------------------
	BYTE	PATT
	 POIN2	LockedGirl_2_001
// 010   ----------------------------------------
	BYTE	PATT
	 POIN2	LockedGirl_2_002
// 011   ----------------------------------------
	BYTE	W09
	BYTE		EOT     Gs4 
	BYTE	W01
	BYTE		N02     En4   v056
	BYTE	W03
	BYTE		N11     Gs4   v108
	BYTE	W12
	BYTE		        Cs4 
	BYTE	W12
	BYTE		        Gs4   v080
	BYTE	W12
	BYTE		        Fs4   v108
	BYTE	W12
	BYTE		        Ds4   v080
	BYTE	W12
	BYTE		N23     Bn3   v108
	BYTE	W23
// 012   ----------------------------------------
	BYTE	PATT
	 POIN2	LockedGirl_2_004
// 013   ----------------------------------------
	BYTE	PATT
	 POIN2	LockedGirl_2_005
// 014   ----------------------------------------
	BYTE	PATT
	 POIN2	LockedGirl_2_006
// 015   ----------------------------------------
LockedGirl_2_015:
	BYTE	W01
	BYTE		N44     Cn4   v108
	BYTE	W48
	BYTE		N02     Bn3   v060
	BYTE	W03
	BYTE		        Fs4   v064
	BYTE	W03
	BYTE		        Bn3   v068
	BYTE	W03
	BYTE		        Fs4   v072
	BYTE	W03
	BYTE		        Bn3   v076
	BYTE	W03
	BYTE		        Fs4 
	BYTE	W03
	BYTE		        Cn4   v080
	BYTE	W03
	BYTE		        Gn4   v084
	BYTE	W03
	BYTE		        Cn4   v088
	BYTE	W03
	BYTE		        Gn4   v092
	BYTE	W03
	BYTE		        Ds4   v096
	BYTE	W03
	BYTE		        An4   v100
	BYTE	W03
	BYTE		        Ds4   v104
	BYTE	W03
	BYTE		        An4   v108
	BYTE	W03
	BYTE		        En4   v112
	BYTE	W03
	BYTE		        Fs4   v116
	BYTE	W02
	BYTE	PEND
// 016   ----------------------------------------
LockedGirl_2_016:
	BYTE	W01
	BYTE		N32     Fs4   v116
	BYTE	W36
	BYTE		N11     Bn3 
	BYTE	W12
	BYTE		N44   
	BYTE		N44     Gn4 
	BYTE	W44
	BYTE	W03
	BYTE	PEND
// 017   ----------------------------------------
LockedGirl_2_017:
	BYTE	W01
	BYTE		N32     An4   v116
	BYTE	W36
	BYTE		N11     Bn3 
	BYTE	W12
	BYTE		N44   
	BYTE		N44     Gn4 
	BYTE	W44
	BYTE	W03
	BYTE	PEND
// 018   ----------------------------------------
	BYTE	PATT
	 POIN2	LockedGirl_2_016
// 019   ----------------------------------------
	BYTE	PATT
	 POIN2	LockedGirl_2_017
// 020   ----------------------------------------
	BYTE	PATT
	 POIN2	LockedGirl_2_016
// 021   ----------------------------------------
	BYTE	PATT
	 POIN2	LockedGirl_2_017
// 022   ----------------------------------------
	BYTE	PATT
	 POIN2	LockedGirl_2_016
// 023   ----------------------------------------
	BYTE	PATT
	 POIN2	LockedGirl_2_017
// 024   ----------------------------------------
	BYTE	W01
	BYTE		N23     En3   v116
	BYTE		N23     Gn3 
	BYTE	W24
	BYTE		        En3 
	BYTE		N23     Gn3 
	BYTE	W24
	BYTE		N17     Ds3 
	BYTE		N17     Fs3 
	BYTE	W18
	BYTE		        Ds3 
	BYTE		N17     Fs3 
	BYTE	W18
	BYTE		N23     En3 
	BYTE		N23     Gn3 
	BYTE	W11
// 025   ----------------------------------------
LockedGirl_2_025:
	BYTE	W13
	BYTE		N11     En3   v116
	BYTE		N11     Gn3 
	BYTE	W12
	BYTE		        En3 
	BYTE		N11     Gn3 
	BYTE	W12
	BYTE		        En3 
	BYTE		N11     Gn3 
	BYTE	W12
	BYTE		N17     Ds3 
	BYTE		N17     Fs3 
	BYTE	W18
	BYTE		        Ds3 
	BYTE		N17     Fs3 
	BYTE	W18
	BYTE		N23     En3 
	BYTE		N23     Gn3 
	BYTE	W11
	BYTE	PEND
// 026   ----------------------------------------
LockedGirl_2_026:
	BYTE	W13
	BYTE		N11     En3   v116
	BYTE		N11     Gn3 
	BYTE	W12
	BYTE		        En3 
	BYTE		N11     Gn3 
	BYTE	W12
	BYTE		        En3 
	BYTE		N11     Gn3 
	BYTE	W12
	BYTE		N17     Ds3 
	BYTE		N17     Fs3 
	BYTE	W18
	BYTE		        Ds3 
	BYTE		N17     Fs3 
	BYTE	W18
	BYTE		N23   
	BYTE		N23     An3 
	BYTE	W11
	BYTE	PEND
// 027   ----------------------------------------
	BYTE	W13
	BYTE		N11     En3 
	BYTE		N11     Gn3 
	BYTE	W12
	BYTE		N23     En3 
	BYTE		N23     Gn3 
	BYTE	W24
	BYTE		N17     Ds3 
	BYTE		N17     Fs3 
	BYTE	W18
	BYTE		        Ds3 
	BYTE		N17     Fs3 
	BYTE	W18
	BYTE		N32     En3 
	BYTE		N32     Gn3 
	BYTE	W11
// 028   ----------------------------------------
	BYTE	W24
	BYTE	W01
	BYTE		N23     En3 
	BYTE		N23     Gn3 
	BYTE	W24
	BYTE		N17     Ds3 
	BYTE		N17     Fs3 
	BYTE	W18
	BYTE		        Ds3 
	BYTE		N17     Fs3 
	BYTE	W18
	BYTE		N23     En3 
	BYTE		N23     Gn3 
	BYTE	W11
// 029   ----------------------------------------
	BYTE	PATT
	 POIN2	LockedGirl_2_025
// 030   ----------------------------------------
	BYTE	PATT
	 POIN2	LockedGirl_2_026
// 031   ----------------------------------------
	BYTE	W13
	BYTE		N11     En3   v116
	BYTE		N11     Gn3 
	BYTE	W12
	BYTE		        Fs3 
	BYTE		N11     An3 
	BYTE	W12
	BYTE		        Gn3 
	BYTE		N11     Bn3 
	BYTE	W12
	BYTE		N17     Ds3 
	BYTE		N17     Fs3 
	BYTE	W18
	BYTE		        En3 
	BYTE		N17     Gn3 
	BYTE	W18
	BYTE		N12     Fs3 
	BYTE		N12     An3 
	BYTE	W11
// 032   ----------------------------------------
	BYTE	W01
	BYTE		N23     Gn3 
	BYTE		N23     En4 
	BYTE	W24
	BYTE		        Gn3 
	BYTE		N23     En4 
	BYTE	W24
	BYTE		N17     Fs3 
	BYTE		N17     Ds4 
	BYTE	W18
	BYTE		        Fs3 
	BYTE		N17     Ds4 
	BYTE	W18
	BYTE		N23     Gn3 
	BYTE		N23     En4 
	BYTE	W11
// 033   ----------------------------------------
LockedGirl_2_033:
	BYTE	W13
	BYTE		N11     Gn3   v116
	BYTE		N11     En4 
	BYTE	W12
	BYTE		        Gn3 
	BYTE		N11     En4 
	BYTE	W12
	BYTE		        Gn3 
	BYTE		N11     En4 
	BYTE	W12
	BYTE		N17     Fs3 
	BYTE		N17     Ds4 
	BYTE	W18
	BYTE		        Fs3 
	BYTE		N17     Ds4 
	BYTE	W18
	BYTE		N23     Gn3 
	BYTE		N23     En4 
	BYTE	W11
	BYTE	PEND
// 034   ----------------------------------------
LockedGirl_2_034:
	BYTE	W13
	BYTE		N11     Gn3   v116
	BYTE		N11     En4 
	BYTE	W12
	BYTE		        Gn3 
	BYTE		N11     En4 
	BYTE	W12
	BYTE		        Gn3 
	BYTE		N11     En4 
	BYTE	W12
	BYTE		N17     Fs3 
	BYTE		N17     Ds4 
	BYTE	W18
	BYTE		        Fs3 
	BYTE		N17     Ds4 
	BYTE	W18
	BYTE		N23     An3 
	BYTE		N23     Fs4 
	BYTE	W11
	BYTE	PEND
// 035   ----------------------------------------
	BYTE	W13
	BYTE		N11     Gn3 
	BYTE		N11     En4 
	BYTE	W12
	BYTE		N23     Gn3 
	BYTE		N23     En4 
	BYTE	W24
	BYTE		N17     Fs3 
	BYTE		N17     Ds4 
	BYTE	W18
	BYTE		        Fs3 
	BYTE		N17     Ds4 
	BYTE	W18
	BYTE		N32     Gn3 
	BYTE		N32     En4 
	BYTE	W11
// 036   ----------------------------------------
	BYTE	W24
	BYTE	W01
	BYTE		N23     Gn3 
	BYTE		N23     En4 
	BYTE	W24
	BYTE		N17     Fs3 
	BYTE		N17     Ds4 
	BYTE	W18
	BYTE		        Fs3 
	BYTE		N17     Ds4 
	BYTE	W18
	BYTE		N23     Gn3 
	BYTE		N23     En4 
	BYTE	W11
// 037   ----------------------------------------
	BYTE	PATT
	 POIN2	LockedGirl_2_033
// 038   ----------------------------------------
	BYTE	PATT
	 POIN2	LockedGirl_2_034
// 039   ----------------------------------------
	BYTE	W13
	BYTE		N11     Fs3   v116
	BYTE		N11     Ds4 
	BYTE	W12
	BYTE		        Gn3 
	BYTE		N11     En4 
	BYTE	W12
	BYTE		        An3 
	BYTE		N11     Fs4 
	BYTE	W12
	BYTE		N17     Fs3 
	BYTE		N17     Ds4 
	BYTE	W18
	BYTE		        Fs3 
	BYTE		N17     Ds4 
	BYTE	W18
	BYTE		N12     Gn3 
	BYTE		N12     En4 
	BYTE	W11
// 040   ----------------------------------------
	BYTE	PATT
	 POIN2	LockedGirl_2_008
// 041   ----------------------------------------
	BYTE	PATT
	 POIN2	LockedGirl_2_001
// 042   ----------------------------------------
	BYTE	PATT
	 POIN2	LockedGirl_2_002
// 043   ----------------------------------------
	BYTE	W09
	BYTE		EOT     Gs4 
	BYTE	W01
	BYTE		N02     En4   v056
	BYTE	W03
	BYTE		N11     Gs4   v108
	BYTE	W12
	BYTE		        Cs4 
	BYTE	W12
	BYTE		        Gs4   v080
	BYTE	W12
	BYTE		        Fs4   v108
	BYTE	W12
	BYTE		        Ds4   v080
	BYTE	W12
	BYTE		N23     Bn3   v108
	BYTE	W23
// 044   ----------------------------------------
	BYTE	PATT
	 POIN2	LockedGirl_2_004
// 045   ----------------------------------------
	BYTE	PATT
	 POIN2	LockedGirl_2_005
// 046   ----------------------------------------
	BYTE	PATT
	 POIN2	LockedGirl_2_006
// 047   ----------------------------------------
	BYTE	PATT
	 POIN2	LockedGirl_2_007
// 048   ----------------------------------------
	BYTE	PATT
	 POIN2	LockedGirl_2_008
// 049   ----------------------------------------
	BYTE	PATT
	 POIN2	LockedGirl_2_001
// 050   ----------------------------------------
	BYTE	PATT
	 POIN2	LockedGirl_2_002
// 051   ----------------------------------------
	BYTE	W09
	BYTE		EOT     Gs4 
	BYTE	W01
	BYTE		N02     En4   v056
	BYTE	W03
	BYTE		N11     Gs4   v108
	BYTE	W12
	BYTE		        Cs4 
	BYTE	W12
	BYTE		        Gs4   v080
	BYTE	W12
	BYTE		        Fs4   v108
	BYTE	W12
	BYTE		        Ds4   v080
	BYTE	W12
	BYTE		N23     Bn3   v108
	BYTE	W23
// 052   ----------------------------------------
	BYTE	PATT
	 POIN2	LockedGirl_2_004
// 053   ----------------------------------------
	BYTE	PATT
	 POIN2	LockedGirl_2_005
// 054   ----------------------------------------
	BYTE	PATT
	 POIN2	LockedGirl_2_006
// 055   ----------------------------------------
	BYTE	PATT
	 POIN2	LockedGirl_2_015
// 056   ----------------------------------------
LockedGirl_2_056:
	BYTE	W01
	BYTE		N32     An3   v108
	BYTE	W36
	BYTE		N11     Dn4 
	BYTE	W12
	BYTE		N32     En4 
	BYTE	W36
	BYTE		N11     An3 
	BYTE	W11
	BYTE	PEND
// 057   ----------------------------------------
LockedGirl_2_057:
	BYTE	W01
	BYTE		N32     Fn4   v108
	BYTE	W36
	BYTE		N11     An3 
	BYTE	W12
	BYTE		N44     Gn4 
	BYTE	W44
	BYTE	W03
	BYTE	PEND
// 058   ----------------------------------------
LockedGirl_2_058:
	BYTE	W01
	BYTE		TIE     An4   v108
	BYTE	W92
	BYTE	W03
	BYTE	PEND
// 059   ----------------------------------------
	BYTE	W09
	BYTE		EOT   
	BYTE	W01
	BYTE		N02     Fn4   v056
	BYTE	W03
	BYTE		N11     An4   v108
	BYTE	W12
	BYTE		        Dn4 
	BYTE	W12
	BYTE		        An4   v080
	BYTE	W12
	BYTE		        Gn4   v108
	BYTE	W12
	BYTE		        En4   v080
	BYTE	W12
	BYTE		N23     Cn4   v108
	BYTE	W23
// 060   ----------------------------------------
LockedGirl_2_060:
	BYTE	W01
	BYTE		N32     Dn4   v108
	BYTE	W36
	BYTE		N11     Fn4 
	BYTE	W12
	BYTE		N32     En4 
	BYTE	W36
	BYTE		N11     Cn4 
	BYTE	W11
	BYTE	PEND
// 061   ----------------------------------------
LockedGirl_2_061:
	BYTE	W01
	BYTE		N32     An3   v108
	BYTE	W36
	BYTE		N23     Dn4 
	BYTE	W24
	BYTE		N11     Cn4 
	BYTE	W12
	BYTE		N23     As3 
	BYTE	W23
	BYTE	PEND
// 062   ----------------------------------------
LockedGirl_2_062:
	BYTE	W01
	BYTE		N92     An3   v108
	BYTE	W92
	BYTE	W03
	BYTE	PEND
// 063   ----------------------------------------
	BYTE	W01
	BYTE		        Cs4 
	BYTE	W92
	BYTE	W03
// 064   ----------------------------------------
	BYTE	PATT
	 POIN2	LockedGirl_2_056
// 065   ----------------------------------------
	BYTE	PATT
	 POIN2	LockedGirl_2_057
// 066   ----------------------------------------
	BYTE	PATT
	 POIN2	LockedGirl_2_058
// 067   ----------------------------------------
	BYTE	W09
	BYTE		EOT     An4 
	BYTE	W01
	BYTE		N02     Fn4   v056
	BYTE	W03
	BYTE		N11     An4   v108
	BYTE	W12
	BYTE		        Dn4 
	BYTE	W12
	BYTE		        An4   v080
	BYTE	W12
	BYTE		        Gn4   v108
	BYTE	W12
	BYTE		        En4   v080
	BYTE	W12
	BYTE		N23     Cn4   v108
	BYTE	W23
// 068   ----------------------------------------
	BYTE	PATT
	 POIN2	LockedGirl_2_060
// 069   ----------------------------------------
	BYTE	PATT
	 POIN2	LockedGirl_2_061
// 070   ----------------------------------------
	BYTE	PATT
	 POIN2	LockedGirl_2_062
// 071   ----------------------------------------
	BYTE	W01
	BYTE		N44     Cs4   v108
	BYTE	W48
	BYTE		N02     Cn4   v060
	BYTE	W03
	BYTE		        Gn4   v064
	BYTE	W03
	BYTE		        Cn4   v068
	BYTE	W03
	BYTE		        Gn4   v072
	BYTE	W03
	BYTE		        Cn4   v076
	BYTE	W03
	BYTE		        Gn4 
	BYTE	W03
	BYTE		        Cs4   v080
	BYTE	W03
	BYTE		        Gs4   v084
	BYTE	W03
	BYTE		        Cs4   v088
	BYTE	W03
	BYTE		        Gs4   v092
	BYTE	W03
	BYTE		        En4   v096
	BYTE	W03
	BYTE		        As4   v100
	BYTE	W03
	BYTE		        En4   v104
	BYTE	W03
	BYTE		        As4   v108
	BYTE	W03
	BYTE		        Fn4   v112
	BYTE	W02
	BYTE	GoTo
	 POIN2	LockedGirl_2_B1
LockedGirl_2_B2:
	BYTE	W01
	BYTE		N02     Gn4   v116
	BYTE	W02
// 072   ----------------------------------------
	BYTE	W96
// 073   ----------------------------------------
	BYTE	W01
	BYTE	FINE

//**************** Track 3 (Midi-Chn.4) ****************//

LockedGirl_3:
	BYTE	KEYSH   LockedGirl_key+0
LockedGirl_3_B1:
// 000   ----------------------------------------
	BYTE		VOICE   0
	BYTE		BENDR   12
	BYTE		PAN     c_v-49
	BYTE		VOL     124*LockedGirl_mvl/mxv
	BYTE		MODT    0
	BYTE		LFOS    44
	BYTE	W01
	BYTE		VOL     82*LockedGirl_mvl/mxv
	BYTE		N24     Cs2   v088
	BYTE	W12
	BYTE		        En2   v060
	BYTE	W12
	BYTE		        Gs2   v088
	BYTE	W12
	BYTE		        Cs3   v060
	BYTE	W12
	BYTE		        Ds3   v088
	BYTE	W12
	BYTE		        En3   v060
	BYTE	W12
	BYTE		        Gs3   v088
	BYTE	W12
	BYTE		        Cs4   v060
	BYTE	W11
// 001   ----------------------------------------
LockedGirl_3_001:
	BYTE	W01
	BYTE		N24     Ds4   v088
	BYTE	W12
	BYTE		        En4   v060
	BYTE	W12
	BYTE		        Gs4   v088
	BYTE	W12
	BYTE		        En4   v060
	BYTE	W12
	BYTE		        Ds4   v088
	BYTE	W12
	BYTE		        Cs4   v060
	BYTE	W12
	BYTE		        Fs3   v088
	BYTE	W12
	BYTE		        Ds3 
	BYTE	W11
	BYTE	PEND
// 002   ----------------------------------------
LockedGirl_3_002:
	BYTE	W01
	BYTE		N24     An1   v088
	BYTE	W12
	BYTE		        Cs2   v060
	BYTE	W12
	BYTE		        En2   v088
	BYTE	W12
	BYTE		        An2   v060
	BYTE	W12
	BYTE		        Bn2   v088
	BYTE	W12
	BYTE		        Cs3   v060
	BYTE	W12
	BYTE		        En3   v088
	BYTE	W12
	BYTE		        Bn3   v060
	BYTE	W11
	BYTE	PEND
// 003   ----------------------------------------
LockedGirl_3_003:
	BYTE	W01
	BYTE		N24     Cs4   v088
	BYTE	W12
	BYTE		        En4   v060
	BYTE	W12
	BYTE		        Cs5   v088
	BYTE	W12
	BYTE		        Ds5   v060
	BYTE	W12
	BYTE		        En5   v088
	BYTE	W12
	BYTE		        Gs4   v060
	BYTE	W12
	BYTE		        Ds5   v088
	BYTE	W12
	BYTE		        Fs4 
	BYTE	W11
	BYTE	PEND
// 004   ----------------------------------------
LockedGirl_3_004:
	BYTE	W01
	BYTE		N24     Bn1   v088
	BYTE	W12
	BYTE		        Ds2   v060
	BYTE	W12
	BYTE		        Fs2   v088
	BYTE	W12
	BYTE		        Bn2   v060
	BYTE	W12
	BYTE		        Ds3   v088
	BYTE	W12
	BYTE		        Fs3   v060
	BYTE	W12
	BYTE		        Bn3   v088
	BYTE	W12
	BYTE		        Ds4   v060
	BYTE	W11
	BYTE	PEND
// 005   ----------------------------------------
LockedGirl_3_005:
	BYTE	W01
	BYTE		N24     Fs4   v088
	BYTE	W12
	BYTE		        Ds4   v060
	BYTE	W12
	BYTE		        Cs4   v088
	BYTE	W12
	BYTE		        Bn3   v060
	BYTE	W12
	BYTE		        Fs3   v088
	BYTE	W12
	BYTE		        Ds3   v060
	BYTE	W12
	BYTE		        Bn2   v088
	BYTE	W12
	BYTE		        An2 
	BYTE	W11
	BYTE	PEND
// 006   ----------------------------------------
LockedGirl_3_006:
	BYTE	W01
	BYTE		N24     Gs2   v088
	BYTE	W12
	BYTE		        Cn3   v060
	BYTE	W12
	BYTE		        Ds3   v088
	BYTE	W12
	BYTE		        Gs3   v060
	BYTE	W12
	BYTE		        Cn4   v088
	BYTE	W12
	BYTE		        Ds4   v060
	BYTE	W12
	BYTE		        Gs4   v088
	BYTE	W12
	BYTE		        Cn5   v060
	BYTE	W11
	BYTE	PEND
// 007   ----------------------------------------
LockedGirl_3_007:
	BYTE	W01
	BYTE		N24     Cn3   v088
	BYTE	W12
	BYTE		        Ds3   v060
	BYTE	W12
	BYTE		        Gs3   v088
	BYTE	W12
	BYTE		        Cn4   v060
	BYTE	W12
	BYTE		        Ds4   v088
	BYTE	W12
	BYTE		        Gs4   v060
	BYTE	W12
	BYTE		        Cn5   v088
	BYTE	W12
	BYTE		        Ds5 
	BYTE	W11
	BYTE	PEND
// 008   ----------------------------------------
LockedGirl_3_008:
	BYTE	W01
	BYTE		N24     Cs2   v088
	BYTE	W12
	BYTE		        En2   v060
	BYTE	W12
	BYTE		        Gs2   v088
	BYTE	W12
	BYTE		        Cs3   v060
	BYTE	W12
	BYTE		        Ds3   v088
	BYTE	W12
	BYTE		        En3   v060
	BYTE	W12
	BYTE		        Gs3   v088
	BYTE	W12
	BYTE		        Cs4   v060
	BYTE	W11
	BYTE	PEND
// 009   ----------------------------------------
	BYTE	PATT
	 POIN2	LockedGirl_3_001
// 010   ----------------------------------------
	BYTE	PATT
	 POIN2	LockedGirl_3_002
// 011   ----------------------------------------
	BYTE	PATT
	 POIN2	LockedGirl_3_003
// 012   ----------------------------------------
	BYTE	PATT
	 POIN2	LockedGirl_3_004
// 013   ----------------------------------------
	BYTE	PATT
	 POIN2	LockedGirl_3_005
// 014   ----------------------------------------
	BYTE	PATT
	 POIN2	LockedGirl_3_006
// 015   ----------------------------------------
LockedGirl_3_015:
	BYTE	W01
	BYTE		N24     Cn3   v088
	BYTE	W12
	BYTE		        Ds3   v060
	BYTE	W12
	BYTE		        Gs3   v088
	BYTE	W12
	BYTE		N06     Cn2   v060
	BYTE	W06
	BYTE		        Ds2   v088
	BYTE	W06
	BYTE		        Fs2 
	BYTE	W06
	BYTE		        Gn2   v092
	BYTE	W06
	BYTE		        An2 
	BYTE	W06
	BYTE		        Ds3 
	BYTE	W06
	BYTE		N02     Fs3   v096
	BYTE	W03
	BYTE		        An3 
	BYTE	W03
	BYTE		        Ds4   v100
	BYTE	W03
	BYTE		        En4 
	BYTE	W03
	BYTE		        Fs4 
	BYTE	W03
	BYTE		        Gn4 
	BYTE	W03
	BYTE		N06     Ds5 
	BYTE	W05
	BYTE	PEND
// 016   ----------------------------------------
	BYTE	W01
	BYTE		VOL     112*LockedGirl_mvl/mxv
	BYTE		N92     En2 
	BYTE		N92     Bn2   v088
	BYTE		N92     Gn3   v116
	BYTE	W92
	BYTE	W03
// 017   ----------------------------------------
LockedGirl_3_017:
	BYTE	W01
	BYTE		N92     En2   v100
	BYTE		N92     Bn2   v088
	BYTE		N92     Gn3   v116
	BYTE	W92
	BYTE	W03
	BYTE	PEND
// 018   ----------------------------------------
	BYTE	PATT
	 POIN2	LockedGirl_3_017
// 019   ----------------------------------------
	BYTE	PATT
	 POIN2	LockedGirl_3_017
// 020   ----------------------------------------
	BYTE	PATT
	 POIN2	LockedGirl_3_017
// 021   ----------------------------------------
	BYTE	PATT
	 POIN2	LockedGirl_3_017
// 022   ----------------------------------------
	BYTE	PATT
	 POIN2	LockedGirl_3_017
// 023   ----------------------------------------
	BYTE	W01
	BYTE		N68     En2   v100
	BYTE		N68     Bn2   v088
	BYTE		N68     Gn3   v116
	BYTE	W72
	BYTE		N06     En3 
	BYTE	W06
	BYTE		        An2 
	BYTE	W06
	BYTE		        Gn2 
	BYTE	W06
	BYTE		        Fs2 
	BYTE	W05
// 024   ----------------------------------------
LockedGirl_3_024:
	BYTE	W01
	BYTE		N09     En2   v116
	BYTE	W12
	BYTE		        Bn2 
	BYTE	W12
	BYTE		        En2 
	BYTE	W12
	BYTE		        Bn2 
	BYTE	W12
	BYTE		        Ds2 
	BYTE	W12
	BYTE		        An2 
	BYTE	W12
	BYTE		        Ds2 
	BYTE	W12
	BYTE		        En2 
	BYTE	W11
	BYTE	PEND
// 025   ----------------------------------------
	BYTE	PATT
	 POIN2	LockedGirl_3_024
// 026   ----------------------------------------
	BYTE	PATT
	 POIN2	LockedGirl_3_024
// 027   ----------------------------------------
	BYTE	PATT
	 POIN2	LockedGirl_3_024
// 028   ----------------------------------------
LockedGirl_3_028:
	BYTE	W01
	BYTE		N09     Gn2   v116
	BYTE	W12
	BYTE		        Cn3 
	BYTE	W12
	BYTE		        Gn2 
	BYTE	W12
	BYTE		        Cn3 
	BYTE	W12
	BYTE		        Fs2 
	BYTE	W12
	BYTE		        Bn2 
	BYTE	W12
	BYTE		        Fs2 
	BYTE	W12
	BYTE		        Gn2 
	BYTE	W11
	BYTE	PEND
// 029   ----------------------------------------
	BYTE	PATT
	 POIN2	LockedGirl_3_028
// 030   ----------------------------------------
	BYTE	PATT
	 POIN2	LockedGirl_3_028
// 031   ----------------------------------------
LockedGirl_3_031:
	BYTE	W01
	BYTE		N09     Gn2   v116
	BYTE	W12
	BYTE		        Cn3 
	BYTE	W12
	BYTE		        Gn2 
	BYTE	W12
	BYTE		        Cn3 
	BYTE	W12
	BYTE		        An2 
	BYTE	W12
	BYTE		        Ds3 
	BYTE	W12
	BYTE		        An2 
	BYTE	W12
	BYTE		        En3 
	BYTE	W11
	BYTE	PEND
// 032   ----------------------------------------
	BYTE	PATT
	 POIN2	LockedGirl_3_024
// 033   ----------------------------------------
	BYTE	PATT
	 POIN2	LockedGirl_3_024
// 034   ----------------------------------------
	BYTE	PATT
	 POIN2	LockedGirl_3_024
// 035   ----------------------------------------
	BYTE	PATT
	 POIN2	LockedGirl_3_024
// 036   ----------------------------------------
	BYTE	PATT
	 POIN2	LockedGirl_3_028
// 037   ----------------------------------------
	BYTE	PATT
	 POIN2	LockedGirl_3_028
// 038   ----------------------------------------
	BYTE	PATT
	 POIN2	LockedGirl_3_028
// 039   ----------------------------------------
	BYTE	PATT
	 POIN2	LockedGirl_3_031
// 040   ----------------------------------------
	BYTE	W01
	BYTE		VOL     69*LockedGirl_mvl/mxv
	BYTE		N24     Cs2   v088
	BYTE	W12
	BYTE		        En2   v060
	BYTE	W12
	BYTE		        Gs2   v088
	BYTE	W12
	BYTE		        Cs3   v060
	BYTE	W12
	BYTE		        Ds3   v088
	BYTE	W12
	BYTE		        En3   v060
	BYTE	W12
	BYTE		        Gs3   v088
	BYTE	W12
	BYTE		        Cs4   v060
	BYTE	W11
// 041   ----------------------------------------
	BYTE	PATT
	 POIN2	LockedGirl_3_001
// 042   ----------------------------------------
	BYTE	PATT
	 POIN2	LockedGirl_3_002
// 043   ----------------------------------------
	BYTE	PATT
	 POIN2	LockedGirl_3_003
// 044   ----------------------------------------
	BYTE	PATT
	 POIN2	LockedGirl_3_004
// 045   ----------------------------------------
	BYTE	PATT
	 POIN2	LockedGirl_3_005
// 046   ----------------------------------------
	BYTE	PATT
	 POIN2	LockedGirl_3_006
// 047   ----------------------------------------
	BYTE	PATT
	 POIN2	LockedGirl_3_007
// 048   ----------------------------------------
	BYTE	PATT
	 POIN2	LockedGirl_3_008
// 049   ----------------------------------------
	BYTE	PATT
	 POIN2	LockedGirl_3_001
// 050   ----------------------------------------
	BYTE	PATT
	 POIN2	LockedGirl_3_002
// 051   ----------------------------------------
	BYTE	PATT
	 POIN2	LockedGirl_3_003
// 052   ----------------------------------------
	BYTE	PATT
	 POIN2	LockedGirl_3_004
// 053   ----------------------------------------
	BYTE	PATT
	 POIN2	LockedGirl_3_005
// 054   ----------------------------------------
	BYTE	PATT
	 POIN2	LockedGirl_3_006
// 055   ----------------------------------------
	BYTE	PATT
	 POIN2	LockedGirl_3_015
// 056   ----------------------------------------
LockedGirl_3_056:
	BYTE	W01
	BYTE		N24     Dn2   v088
	BYTE	W12
	BYTE		        Fn2   v060
	BYTE	W12
	BYTE		        An2   v088
	BYTE	W12
	BYTE		        Dn3   v060
	BYTE	W12
	BYTE		        En3   v088
	BYTE	W12
	BYTE		        Fn3   v060
	BYTE	W12
	BYTE		        An3   v088
	BYTE	W12
	BYTE		        Dn4   v060
	BYTE	W11
	BYTE	PEND
// 057   ----------------------------------------
LockedGirl_3_057:
	BYTE	W01
	BYTE		N24     En4   v088
	BYTE	W12
	BYTE		        Fn4   v060
	BYTE	W12
	BYTE		        An4   v088
	BYTE	W12
	BYTE		        Fn4   v060
	BYTE	W12
	BYTE		        En4   v088
	BYTE	W12
	BYTE		        Dn4   v060
	BYTE	W12
	BYTE		        Gn3   v088
	BYTE	W12
	BYTE		        En3 
	BYTE	W11
	BYTE	PEND
// 058   ----------------------------------------
LockedGirl_3_058:
	BYTE	W01
	BYTE		N24     As1   v088
	BYTE	W12
	BYTE		        Dn2   v060
	BYTE	W12
	BYTE		        Fn2   v088
	BYTE	W12
	BYTE		        As2   v060
	BYTE	W12
	BYTE		        Cn3   v088
	BYTE	W12
	BYTE		        Dn3   v060
	BYTE	W12
	BYTE		        Fn3   v088
	BYTE	W12
	BYTE		        Cn4   v060
	BYTE	W11
	BYTE	PEND
// 059   ----------------------------------------
LockedGirl_3_059:
	BYTE	W01
	BYTE		N24     Dn4   v088
	BYTE	W12
	BYTE		        Fn4   v060
	BYTE	W12
	BYTE		        Dn5   v088
	BYTE	W12
	BYTE		        En5   v060
	BYTE	W12
	BYTE		        Fn5   v088
	BYTE	W12
	BYTE		        An4   v060
	BYTE	W12
	BYTE		        En5   v088
	BYTE	W12
	BYTE		        Gn4 
	BYTE	W11
	BYTE	PEND
// 060   ----------------------------------------
LockedGirl_3_060:
	BYTE	W01
	BYTE		N24     Cn2   v088
	BYTE	W12
	BYTE		        En2   v060
	BYTE	W12
	BYTE		        Gn2   v088
	BYTE	W12
	BYTE		        Cn3   v060
	BYTE	W12
	BYTE		        En3   v088
	BYTE	W12
	BYTE		        Gn3   v060
	BYTE	W12
	BYTE		        Cn4   v088
	BYTE	W12
	BYTE		        En4   v060
	BYTE	W11
	BYTE	PEND
// 061   ----------------------------------------
LockedGirl_3_061:
	BYTE	W01
	BYTE		N24     Gn4   v088
	BYTE	W12
	BYTE		        En4   v060
	BYTE	W12
	BYTE		        Dn4   v088
	BYTE	W12
	BYTE		        Cn4   v060
	BYTE	W12
	BYTE		        Gn3   v088
	BYTE	W12
	BYTE		        En3   v060
	BYTE	W12
	BYTE		        Cn3   v088
	BYTE	W12
	BYTE		        As2 
	BYTE	W11
	BYTE	PEND
// 062   ----------------------------------------
LockedGirl_3_062:
	BYTE	W01
	BYTE		N24     An2   v088
	BYTE	W12
	BYTE		        Cs3   v060
	BYTE	W12
	BYTE		        En3   v088
	BYTE	W12
	BYTE		        An3   v060
	BYTE	W12
	BYTE		        Cs4   v088
	BYTE	W12
	BYTE		        En4   v060
	BYTE	W12
	BYTE		        An4   v088
	BYTE	W12
	BYTE		        Cs5   v060
	BYTE	W11
	BYTE	PEND
// 063   ----------------------------------------
	BYTE	W01
	BYTE		        Cs3   v088
	BYTE	W12
	BYTE		        En3   v060
	BYTE	W12
	BYTE		        An3   v088
	BYTE	W12
	BYTE		N06     Cs3   v060
	BYTE	W06
	BYTE		        En3   v088
	BYTE	W06
	BYTE		        An3 
	BYTE	W06
	BYTE		        Cs3   v092
	BYTE	W06
	BYTE		        En3 
	BYTE	W06
	BYTE		        Cs3 
	BYTE	W06
	BYTE		N02     En3   v096
	BYTE	W03
	BYTE		        An3 
	BYTE	W03
	BYTE		        Cs3   v100
	BYTE	W03
	BYTE		        En3 
	BYTE	W03
	BYTE		        An3 
	BYTE	W03
	BYTE		        Cs3 
	BYTE	W03
	BYTE		N06     An3 
	BYTE	W05
// 064   ----------------------------------------
	BYTE	PATT
	 POIN2	LockedGirl_3_056
// 065   ----------------------------------------
	BYTE	PATT
	 POIN2	LockedGirl_3_057
// 066   ----------------------------------------
	BYTE	PATT
	 POIN2	LockedGirl_3_058
// 067   ----------------------------------------
	BYTE	PATT
	 POIN2	LockedGirl_3_059
// 068   ----------------------------------------
	BYTE	PATT
	 POIN2	LockedGirl_3_060
// 069   ----------------------------------------
	BYTE	PATT
	 POIN2	LockedGirl_3_061
// 070   ----------------------------------------
	BYTE	PATT
	 POIN2	LockedGirl_3_062
// 071   ----------------------------------------
	BYTE	W01
	BYTE		N24     Cs3   v088
	BYTE	W12
	BYTE		        En3   v060
	BYTE	W12
	BYTE		        An3   v088
	BYTE	W12
	BYTE		N06     Cs2   v060
	BYTE	W06
	BYTE		        En2   v088
	BYTE	W06
	BYTE		        Gn2 
	BYTE	W06
	BYTE		        Gs2   v092
	BYTE	W06
	BYTE		        As2 
	BYTE	W06
	BYTE		        En3 
	BYTE	W06
	BYTE		N02     Gn3   v096
	BYTE	W03
	BYTE		        As3 
	BYTE	W03
	BYTE		        En4   v100
	BYTE	W03
	BYTE		        Fn4 
	BYTE	W03
	BYTE		        Gn4 
	BYTE	W03
	BYTE		        Gs4 
	BYTE	W03
	BYTE		N06     En5 
	BYTE	W02
	BYTE	GoTo
	 POIN2	LockedGirl_3_B1
LockedGirl_3_B2:
	BYTE	W03
// 072   ----------------------------------------
	BYTE	W96
// 073   ----------------------------------------
	BYTE	W01
	BYTE	FINE

//**************** Track 4 (Midi-Chn.5) ****************//

LockedGirl_4:
	BYTE	KEYSH   LockedGirl_key+0
LockedGirl_4_B1:
// 000   ----------------------------------------
	BYTE		VOICE   1
	BYTE		BENDR   12
	BYTE		PAN     c_v+46
	BYTE		VOL     124*LockedGirl_mvl/mxv
	BYTE		MODT    0
	BYTE		LFOS    44
	BYTE	W01
	BYTE		N32     En3   v088
	BYTE	W36
	BYTE		N11     Gs3 
	BYTE	W12
	BYTE		N32   
	BYTE	W36
	BYTE		N11     En3 
	BYTE	W11
// 001   ----------------------------------------
LockedGirl_4_001:
	BYTE	W01
	BYTE		N32     Cs4   v088
	BYTE	W36
	BYTE		N11     En3 
	BYTE	W12
	BYTE		N44     Ds4 
	BYTE	W44
	BYTE	W03
	BYTE	PEND
// 002   ----------------------------------------
LockedGirl_4_002:
	BYTE	W01
	BYTE		TIE     En4   v088
	BYTE	W92
	BYTE	W03
	BYTE	PEND
// 003   ----------------------------------------
	BYTE	W09
	BYTE		EOT   
	BYTE	W01
	BYTE		N02     Ds4   v036
	BYTE	W03
	BYTE		N11     En4   v088
	BYTE	W12
	BYTE		        Gs3 
	BYTE	W12
	BYTE		        En4   v060
	BYTE	W12
	BYTE		        Ds4   v088
	BYTE	W12
	BYTE		        Bn3   v060
	BYTE	W12
	BYTE		N23     Fs3   v088
	BYTE	W23
// 004   ----------------------------------------
LockedGirl_4_004:
	BYTE	W01
	BYTE		N32     En3   v088
	BYTE	W36
	BYTE		N11     Gs3 
	BYTE	W12
	BYTE		N32     Fs3 
	BYTE	W36
	BYTE		N11     Ds3 
	BYTE	W11
	BYTE	PEND
// 005   ----------------------------------------
LockedGirl_4_005:
	BYTE	W01
	BYTE		N32     En3   v088
	BYTE	W36
	BYTE		N23     Gs3 
	BYTE	W24
	BYTE		N11     Fs3 
	BYTE	W12
	BYTE		N23     Ds3 
	BYTE	W23
	BYTE	PEND
// 006   ----------------------------------------
LockedGirl_4_006:
	BYTE	W01
	BYTE		N92     Cn3   v088
	BYTE	W92
	BYTE	W03
	BYTE	PEND
// 007   ----------------------------------------
LockedGirl_4_007:
	BYTE	W01
	BYTE		N32     Gs3   v088
	BYTE	W36
	BYTE		N06     Cn3 
	BYTE	W06
	BYTE		N06   
	BYTE	W06
	BYTE		N17   
	BYTE	W18
	BYTE		        Cs3 
	BYTE	W18
	BYTE		N11     Ds3 
	BYTE	W11
	BYTE	PEND
// 008   ----------------------------------------
LockedGirl_4_008:
	BYTE	W01
	BYTE		N32     En3   v088
	BYTE	W36
	BYTE		N11     Gs3 
	BYTE	W12
	BYTE		N32   
	BYTE	W36
	BYTE		N11     En3 
	BYTE	W11
	BYTE	PEND
// 009   ----------------------------------------
	BYTE	PATT
	 POIN2	LockedGirl_4_001
// 010   ----------------------------------------
	BYTE	PATT
	 POIN2	LockedGirl_4_002
// 011   ----------------------------------------
	BYTE	W09
	BYTE		EOT     En4 
	BYTE	W01
	BYTE		N02     Ds4   v036
	BYTE	W03
	BYTE		N11     En4   v088
	BYTE	W12
	BYTE		        Gs3 
	BYTE	W12
	BYTE		        En4   v060
	BYTE	W12
	BYTE		        Ds4   v088
	BYTE	W12
	BYTE		        Bn3   v060
	BYTE	W12
	BYTE		N23     Fs3   v088
	BYTE	W23
// 012   ----------------------------------------
	BYTE	PATT
	 POIN2	LockedGirl_4_004
// 013   ----------------------------------------
	BYTE	PATT
	 POIN2	LockedGirl_4_005
// 014   ----------------------------------------
	BYTE	PATT
	 POIN2	LockedGirl_4_006
// 015   ----------------------------------------
LockedGirl_4_015:
	BYTE	W01
	BYTE		N32     Gs3   v088
	BYTE	W36
	BYTE		N06     Ds3   v060
	BYTE	W06
	BYTE		        En3   v088
	BYTE	W06
	BYTE		        Fs3 
	BYTE	W06
	BYTE		        Gn3   v092
	BYTE	W06
	BYTE		        Ds4 
	BYTE	W06
	BYTE		        En4 
	BYTE	W06
	BYTE		N02     Fs4   v096
	BYTE	W03
	BYTE		        An4 
	BYTE	W03
	BYTE		        Ds5   v100
	BYTE	W03
	BYTE		        En5 
	BYTE	W03
	BYTE		        Fs5 
	BYTE	W03
	BYTE		        Gn5 
	BYTE	W03
	BYTE		N06     Ds6 
	BYTE	W05
	BYTE	PEND
// 016   ----------------------------------------
LockedGirl_4_016:
	BYTE	W01
	BYTE		N92     En2   v100
	BYTE		N92     Bn2   v088
	BYTE		N92     Gn3   v116
	BYTE	W92
	BYTE	W03
	BYTE	PEND
// 017   ----------------------------------------
	BYTE	PATT
	 POIN2	LockedGirl_4_016
// 018   ----------------------------------------
	BYTE	PATT
	 POIN2	LockedGirl_4_016
// 019   ----------------------------------------
	BYTE	PATT
	 POIN2	LockedGirl_4_016
// 020   ----------------------------------------
	BYTE	PATT
	 POIN2	LockedGirl_4_016
// 021   ----------------------------------------
	BYTE	PATT
	 POIN2	LockedGirl_4_016
// 022   ----------------------------------------
	BYTE	PATT
	 POIN2	LockedGirl_4_016
// 023   ----------------------------------------
	BYTE	W01
	BYTE		N68     En2   v100
	BYTE		N68     Bn2   v088
	BYTE		N68     Gn3   v116
	BYTE	W72
	BYTE		N06     Gn4 
	BYTE	W06
	BYTE		        Fs4 
	BYTE	W06
	BYTE		        En4 
	BYTE	W06
	BYTE		        Fs3 
	BYTE	W05
// 024   ----------------------------------------
LockedGirl_4_024:
	BYTE	W01
	BYTE		N09     En3   v116
	BYTE	W12
	BYTE		        Bn3 
	BYTE	W12
	BYTE		        En3 
	BYTE	W12
	BYTE		        Bn3 
	BYTE	W12
	BYTE		        Ds3 
	BYTE	W12
	BYTE		        An3 
	BYTE	W12
	BYTE		        Ds3 
	BYTE	W12
	BYTE		        En3 
	BYTE	W11
	BYTE	PEND
// 025   ----------------------------------------
	BYTE	PATT
	 POIN2	LockedGirl_4_024
// 026   ----------------------------------------
	BYTE	PATT
	 POIN2	LockedGirl_4_024
// 027   ----------------------------------------
	BYTE	PATT
	 POIN2	LockedGirl_4_024
// 028   ----------------------------------------
LockedGirl_4_028:
	BYTE	W01
	BYTE		N09     Gn3   v116
	BYTE	W12
	BYTE		        Cn4 
	BYTE	W12
	BYTE		        Gn3 
	BYTE	W12
	BYTE		        Cn4 
	BYTE	W12
	BYTE		        Fs3 
	BYTE	W12
	BYTE		        Bn3 
	BYTE	W12
	BYTE		        Fs3 
	BYTE	W12
	BYTE		        Gn3 
	BYTE	W11
	BYTE	PEND
// 029   ----------------------------------------
	BYTE	PATT
	 POIN2	LockedGirl_4_028
// 030   ----------------------------------------
	BYTE	PATT
	 POIN2	LockedGirl_4_028
// 031   ----------------------------------------
LockedGirl_4_031:
	BYTE	W01
	BYTE		N09     Gn3   v116
	BYTE	W12
	BYTE		        Cn4 
	BYTE	W12
	BYTE		        Gn3 
	BYTE	W12
	BYTE		        Cn4 
	BYTE	W12
	BYTE		        An3 
	BYTE	W12
	BYTE		        Ds4 
	BYTE	W12
	BYTE		        An3 
	BYTE	W12
	BYTE		        En4 
	BYTE	W11
	BYTE	PEND
// 032   ----------------------------------------
	BYTE	PATT
	 POIN2	LockedGirl_4_024
// 033   ----------------------------------------
	BYTE	PATT
	 POIN2	LockedGirl_4_024
// 034   ----------------------------------------
	BYTE	PATT
	 POIN2	LockedGirl_4_024
// 035   ----------------------------------------
	BYTE	PATT
	 POIN2	LockedGirl_4_024
// 036   ----------------------------------------
	BYTE	PATT
	 POIN2	LockedGirl_4_028
// 037   ----------------------------------------
	BYTE	PATT
	 POIN2	LockedGirl_4_028
// 038   ----------------------------------------
	BYTE	PATT
	 POIN2	LockedGirl_4_028
// 039   ----------------------------------------
	BYTE	PATT
	 POIN2	LockedGirl_4_031
// 040   ----------------------------------------
	BYTE	PATT
	 POIN2	LockedGirl_4_008
// 041   ----------------------------------------
	BYTE	PATT
	 POIN2	LockedGirl_4_001
// 042   ----------------------------------------
	BYTE	PATT
	 POIN2	LockedGirl_4_002
// 043   ----------------------------------------
	BYTE	W09
	BYTE		EOT     En4 
	BYTE	W01
	BYTE		N02     Ds4   v036
	BYTE	W03
	BYTE		N11     En4   v088
	BYTE	W12
	BYTE		        Gs3 
	BYTE	W12
	BYTE		        En4   v060
	BYTE	W12
	BYTE		        Ds4   v088
	BYTE	W12
	BYTE		        Bn3   v060
	BYTE	W12
	BYTE		N23     Fs3   v088
	BYTE	W23
// 044   ----------------------------------------
	BYTE	PATT
	 POIN2	LockedGirl_4_004
// 045   ----------------------------------------
	BYTE	PATT
	 POIN2	LockedGirl_4_005
// 046   ----------------------------------------
	BYTE	PATT
	 POIN2	LockedGirl_4_006
// 047   ----------------------------------------
	BYTE	PATT
	 POIN2	LockedGirl_4_007
// 048   ----------------------------------------
	BYTE	PATT
	 POIN2	LockedGirl_4_008
// 049   ----------------------------------------
	BYTE	PATT
	 POIN2	LockedGirl_4_001
// 050   ----------------------------------------
	BYTE	PATT
	 POIN2	LockedGirl_4_002
// 051   ----------------------------------------
	BYTE	W09
	BYTE		EOT     En4 
	BYTE	W01
	BYTE		N02     Ds4   v036
	BYTE	W03
	BYTE		N11     En4   v088
	BYTE	W12
	BYTE		        Gs3 
	BYTE	W12
	BYTE		        En4   v060
	BYTE	W12
	BYTE		        Ds4   v088
	BYTE	W12
	BYTE		        Bn3   v060
	BYTE	W12
	BYTE		N23     Fs3   v088
	BYTE	W23
// 052   ----------------------------------------
	BYTE	PATT
	 POIN2	LockedGirl_4_004
// 053   ----------------------------------------
	BYTE	PATT
	 POIN2	LockedGirl_4_005
// 054   ----------------------------------------
	BYTE	PATT
	 POIN2	LockedGirl_4_006
// 055   ----------------------------------------
	BYTE	PATT
	 POIN2	LockedGirl_4_015
// 056   ----------------------------------------
LockedGirl_4_056:
	BYTE	W01
	BYTE		N32     Fn3   v088
	BYTE	W36
	BYTE		N11     An3 
	BYTE	W12
	BYTE		N32   
	BYTE	W36
	BYTE		N11     Fn3 
	BYTE	W11
	BYTE	PEND
// 057   ----------------------------------------
LockedGirl_4_057:
	BYTE	W01
	BYTE		N32     Dn4   v088
	BYTE	W36
	BYTE		N11     Fn3 
	BYTE	W12
	BYTE		N44     En4 
	BYTE	W44
	BYTE	W03
	BYTE	PEND
// 058   ----------------------------------------
LockedGirl_4_058:
	BYTE	W01
	BYTE		TIE     Fn4   v088
	BYTE	W92
	BYTE	W03
	BYTE	PEND
// 059   ----------------------------------------
	BYTE	W09
	BYTE		EOT   
	BYTE	W01
	BYTE		N02     En4   v036
	BYTE	W03
	BYTE		N11     Fn4   v088
	BYTE	W12
	BYTE		        An3 
	BYTE	W12
	BYTE		        Fn4   v060
	BYTE	W12
	BYTE		        En4   v088
	BYTE	W12
	BYTE		        Cn4   v060
	BYTE	W12
	BYTE		N23     Gn3   v088
	BYTE	W23
// 060   ----------------------------------------
LockedGirl_4_060:
	BYTE	W01
	BYTE		N32     Fn3   v088
	BYTE	W36
	BYTE		N11     An3 
	BYTE	W12
	BYTE		N32     Gn3 
	BYTE	W36
	BYTE		N11     En3 
	BYTE	W11
	BYTE	PEND
// 061   ----------------------------------------
LockedGirl_4_061:
	BYTE	W01
	BYTE		N32     Fn3   v088
	BYTE	W36
	BYTE		N23     An3 
	BYTE	W24
	BYTE		N11     Gn3 
	BYTE	W12
	BYTE		N23     En3 
	BYTE	W23
	BYTE	PEND
// 062   ----------------------------------------
LockedGirl_4_062:
	BYTE	W01
	BYTE		N92     Cs3   v088
	BYTE	W92
	BYTE	W03
	BYTE	PEND
// 063   ----------------------------------------
	BYTE	W01
	BYTE		N32     An3 
	BYTE	W36
	BYTE		N06     En3   v060
	BYTE	W06
	BYTE		        An3   v088
	BYTE	W06
	BYTE		        Cs4 
	BYTE	W06
	BYTE		        En3   v092
	BYTE	W06
	BYTE		        An3 
	BYTE	W06
	BYTE		        Cs4 
	BYTE	W06
	BYTE		N02     En4   v096
	BYTE	W03
	BYTE		        Cs4 
	BYTE	W03
	BYTE		        An3   v100
	BYTE	W03
	BYTE		        En4 
	BYTE	W03
	BYTE		N02   
	BYTE	W03
	BYTE		        Cs4 
	BYTE	W03
	BYTE		N06     En4 
	BYTE	W05
// 064   ----------------------------------------
	BYTE	PATT
	 POIN2	LockedGirl_4_056
// 065   ----------------------------------------
	BYTE	PATT
	 POIN2	LockedGirl_4_057
// 066   ----------------------------------------
	BYTE	PATT
	 POIN2	LockedGirl_4_058
// 067   ----------------------------------------
	BYTE	W09
	BYTE		EOT     Fn4 
	BYTE	W01
	BYTE		N02     En4   v036
	BYTE	W03
	BYTE		N11     Fn4   v088
	BYTE	W12
	BYTE		        An3 
	BYTE	W12
	BYTE		        Fn4   v060
	BYTE	W12
	BYTE		        En4   v088
	BYTE	W12
	BYTE		        Cn4   v060
	BYTE	W12
	BYTE		N23     Gn3   v088
	BYTE	W23
// 068   ----------------------------------------
	BYTE	PATT
	 POIN2	LockedGirl_4_060
// 069   ----------------------------------------
	BYTE	PATT
	 POIN2	LockedGirl_4_061
// 070   ----------------------------------------
	BYTE	PATT
	 POIN2	LockedGirl_4_062
// 071   ----------------------------------------
	BYTE	W01
	BYTE		N32     An3   v088
	BYTE	W36
	BYTE		N06     En3   v060
	BYTE	W06
	BYTE		        Fn3   v088
	BYTE	W06
	BYTE		        Gn3 
	BYTE	W06
	BYTE		        Gs3   v092
	BYTE	W06
	BYTE		        En4 
	BYTE	W06
	BYTE		        Fn4 
	BYTE	W06
	BYTE		N02     Gn4   v096
	BYTE	W03
	BYTE		        As4 
	BYTE	W03
	BYTE		        En5   v100
	BYTE	W03
	BYTE		        Fn5 
	BYTE	W03
	BYTE		        Gn5 
	BYTE	W03
	BYTE		        Gs5 
	BYTE	W03
	BYTE		N06     En6 
	BYTE	W02
	BYTE	GoTo
	 POIN2	LockedGirl_4_B1
LockedGirl_4_B2:
	BYTE	W03
// 072   ----------------------------------------
	BYTE	W96
// 073   ----------------------------------------
	BYTE	W01
	BYTE	FINE

//**************** Track 5 (Midi-Chn.7) ****************//

LockedGirl_5:
	BYTE	KEYSH   LockedGirl_key+0
LockedGirl_5_B1:
// 000   ----------------------------------------
	BYTE		VOICE   80
	BYTE		BENDR   12
	BYTE		PAN     c_v+26
	BYTE		VOL     116*LockedGirl_mvl/mxv
	BYTE		MODT    0
	BYTE		LFOS    44
	BYTE	W01
	BYTE		N06     Cs2   v036
	BYTE	W06
	BYTE		N06   
	BYTE	W06
	BYTE		        Cs3 
	BYTE	W06
	BYTE		        Cs2 
	BYTE	W06
	BYTE		N06   
	BYTE	W06
	BYTE		        Cs3 
	BYTE	W06
	BYTE		        En3 
	BYTE	W06
	BYTE		        En2 
	BYTE	W06
	BYTE		        Cs2 
	BYTE	W06
	BYTE		N06   
	BYTE	W06
	BYTE		        Cs3 
	BYTE	W06
	BYTE		        Cs2 
	BYTE	W06
	BYTE		        En2 
	BYTE	W06
	BYTE		        Gs2 
	BYTE	W06
	BYTE		        En2 
	BYTE	W06
	BYTE		        Cs2 
	BYTE	W05
// 001   ----------------------------------------
LockedGirl_5_001:
	BYTE	W01
	BYTE		N06     Cs2   v036
	BYTE	W06
	BYTE		N06   
	BYTE	W06
	BYTE		        Cs3 
	BYTE	W06
	BYTE		        Cs2 
	BYTE	W06
	BYTE		N06   
	BYTE	W06
	BYTE		        Cs3 
	BYTE	W06
	BYTE		        En3 
	BYTE	W06
	BYTE		        En2 
	BYTE	W06
	BYTE		        Cs2 
	BYTE	W06
	BYTE		N06   
	BYTE	W06
	BYTE		        Cs3 
	BYTE	W06
	BYTE		        Cs2 
	BYTE	W06
	BYTE		        Bn1 
	BYTE	W06
	BYTE		        Ds2 
	BYTE	W06
	BYTE		        Fs2 
	BYTE	W06
	BYTE		        Ds2 
	BYTE	W05
	BYTE	PEND
// 002   ----------------------------------------
LockedGirl_5_002:
	BYTE	W01
	BYTE		N06     An1   v036
	BYTE	W06
	BYTE		N06   
	BYTE	W06
	BYTE		        An2 
	BYTE	W06
	BYTE		        An1 
	BYTE	W06
	BYTE		N06   
	BYTE	W06
	BYTE		        Cs2 
	BYTE	W06
	BYTE		        En2 
	BYTE	W06
	BYTE		        Cs2 
	BYTE	W06
	BYTE		        An1 
	BYTE	W06
	BYTE		N06   
	BYTE	W06
	BYTE		        An2 
	BYTE	W06
	BYTE		        An1 
	BYTE	W06
	BYTE		        Cs2 
	BYTE	W06
	BYTE		        En2 
	BYTE	W06
	BYTE		        Cs2 
	BYTE	W06
	BYTE		        An1 
	BYTE	W05
	BYTE	PEND
// 003   ----------------------------------------
	BYTE	PATT
	 POIN2	LockedGirl_5_002
// 004   ----------------------------------------
LockedGirl_5_004:
	BYTE	W01
	BYTE		N06     Bn1   v036
	BYTE	W06
	BYTE		N06   
	BYTE	W06
	BYTE		        Bn2 
	BYTE	W06
	BYTE		        Bn1 
	BYTE	W06
	BYTE		        Ds2 
	BYTE	W06
	BYTE		        Fs2 
	BYTE	W06
	BYTE		        Ds2 
	BYTE	W06
	BYTE		        Fs2 
	BYTE	W06
	BYTE		        Bn1 
	BYTE	W06
	BYTE		N06   
	BYTE	W06
	BYTE		        Bn2 
	BYTE	W06
	BYTE		        Ds3 
	BYTE	W06
	BYTE		        Bn2 
	BYTE	W06
	BYTE		        Fs2 
	BYTE	W06
	BYTE		        Ds2 
	BYTE	W06
	BYTE		        Cs2 
	BYTE	W05
	BYTE	PEND
// 005   ----------------------------------------
	BYTE	PATT
	 POIN2	LockedGirl_5_004
// 006   ----------------------------------------
LockedGirl_5_006:
	BYTE	W01
	BYTE		N06     Cn2   v036
	BYTE	W06
	BYTE		N06   
	BYTE	W06
	BYTE		        Cn3 
	BYTE	W06
	BYTE		        Cn2 
	BYTE	W06
	BYTE		        Fs2 
	BYTE	W06
	BYTE		        Cn2 
	BYTE	W06
	BYTE		        Cn3 
	BYTE	W06
	BYTE		        Cn2 
	BYTE	W06
	BYTE		        Ds2 
	BYTE	W06
	BYTE		        Fs2 
	BYTE	W06
	BYTE		        Cn3 
	BYTE	W06
	BYTE		        Fs2 
	BYTE	W06
	BYTE		        Ds2 
	BYTE	W06
	BYTE		        Cn2 
	BYTE	W06
	BYTE		        Ds2 
	BYTE	W06
	BYTE		        Fs2 
	BYTE	W05
	BYTE	PEND
// 007   ----------------------------------------
LockedGirl_5_007:
	BYTE	W01
	BYTE		N06     Gs2   v036
	BYTE	W06
	BYTE		        Cn3 
	BYTE	W06
	BYTE		        Ds3 
	BYTE	W06
	BYTE		        Gs3 
	BYTE	W06
	BYTE		        Ds3 
	BYTE	W06
	BYTE		        Cn3 
	BYTE	W06
	BYTE		        Gs2 
	BYTE	W06
	BYTE		        Ds2 
	BYTE	W06
	BYTE		        Cn2 
	BYTE	W06
	BYTE		N06   
	BYTE	W06
	BYTE		        Gs2 
	BYTE	W06
	BYTE		        Cn2 
	BYTE	W06
	BYTE		        Cn3 
	BYTE	W06
	BYTE		        Cn2 
	BYTE	W06
	BYTE		        Gs2 
	BYTE	W06
	BYTE		        Cn2 
	BYTE	W05
	BYTE	PEND
// 008   ----------------------------------------
LockedGirl_5_008:
	BYTE	W01
	BYTE		N06     Cs2   v036
	BYTE	W06
	BYTE		N06   
	BYTE	W06
	BYTE		        Cs3 
	BYTE	W06
	BYTE		        Cs2 
	BYTE	W06
	BYTE		N06   
	BYTE	W06
	BYTE		        Cs3 
	BYTE	W06
	BYTE		        En3 
	BYTE	W06
	BYTE		        En2 
	BYTE	W06
	BYTE		        Cs2 
	BYTE	W06
	BYTE		N06   
	BYTE	W06
	BYTE		        Cs3 
	BYTE	W06
	BYTE		        Cs2 
	BYTE	W06
	BYTE		        En2 
	BYTE	W06
	BYTE		        Gs2 
	BYTE	W06
	BYTE		        En2 
	BYTE	W06
	BYTE		        Cs2 
	BYTE	W05
	BYTE	PEND
// 009   ----------------------------------------
	BYTE	PATT
	 POIN2	LockedGirl_5_001
// 010   ----------------------------------------
	BYTE	PATT
	 POIN2	LockedGirl_5_002
// 011   ----------------------------------------
	BYTE	PATT
	 POIN2	LockedGirl_5_002
// 012   ----------------------------------------
	BYTE	PATT
	 POIN2	LockedGirl_5_004
// 013   ----------------------------------------
	BYTE	PATT
	 POIN2	LockedGirl_5_004
// 014   ----------------------------------------
	BYTE	PATT
	 POIN2	LockedGirl_5_006
// 015   ----------------------------------------
	BYTE	PATT
	 POIN2	LockedGirl_5_007
// 016   ----------------------------------------
	BYTE	W96
// 017   ----------------------------------------
	BYTE	W96
// 018   ----------------------------------------
	BYTE	W96
// 019   ----------------------------------------
	BYTE	W96
// 020   ----------------------------------------
	BYTE	W96
// 021   ----------------------------------------
	BYTE	W96
// 022   ----------------------------------------
	BYTE	W96
// 023   ----------------------------------------
	BYTE	W96
// 024   ----------------------------------------
	BYTE	W96
// 025   ----------------------------------------
	BYTE	W96
// 026   ----------------------------------------
	BYTE	W96
// 027   ----------------------------------------
	BYTE	W96
// 028   ----------------------------------------
	BYTE	W96
// 029   ----------------------------------------
	BYTE	W96
// 030   ----------------------------------------
	BYTE	W96
// 031   ----------------------------------------
	BYTE	W96
// 032   ----------------------------------------
	BYTE	W96
// 033   ----------------------------------------
	BYTE	W96
// 034   ----------------------------------------
	BYTE	W96
// 035   ----------------------------------------
	BYTE	W96
// 036   ----------------------------------------
	BYTE	W96
// 037   ----------------------------------------
	BYTE	W96
// 038   ----------------------------------------
	BYTE	W96
// 039   ----------------------------------------
	BYTE	W96
// 040   ----------------------------------------
	BYTE	PATT
	 POIN2	LockedGirl_5_008
// 041   ----------------------------------------
	BYTE	PATT
	 POIN2	LockedGirl_5_001
// 042   ----------------------------------------
	BYTE	PATT
	 POIN2	LockedGirl_5_002
// 043   ----------------------------------------
	BYTE	PATT
	 POIN2	LockedGirl_5_002
// 044   ----------------------------------------
	BYTE	PATT
	 POIN2	LockedGirl_5_004
// 045   ----------------------------------------
	BYTE	PATT
	 POIN2	LockedGirl_5_004
// 046   ----------------------------------------
	BYTE	PATT
	 POIN2	LockedGirl_5_006
// 047   ----------------------------------------
	BYTE	PATT
	 POIN2	LockedGirl_5_007
// 048   ----------------------------------------
	BYTE	PATT
	 POIN2	LockedGirl_5_008
// 049   ----------------------------------------
	BYTE	PATT
	 POIN2	LockedGirl_5_001
// 050   ----------------------------------------
	BYTE	PATT
	 POIN2	LockedGirl_5_002
// 051   ----------------------------------------
	BYTE	PATT
	 POIN2	LockedGirl_5_002
// 052   ----------------------------------------
	BYTE	PATT
	 POIN2	LockedGirl_5_004
// 053   ----------------------------------------
	BYTE	PATT
	 POIN2	LockedGirl_5_004
// 054   ----------------------------------------
	BYTE	PATT
	 POIN2	LockedGirl_5_006
// 055   ----------------------------------------
	BYTE	PATT
	 POIN2	LockedGirl_5_007
// 056   ----------------------------------------
LockedGirl_5_056:
	BYTE	W01
	BYTE		N06     Dn2   v036
	BYTE	W06
	BYTE		N06   
	BYTE	W06
	BYTE		        Dn3 
	BYTE	W06
	BYTE		        Dn2 
	BYTE	W06
	BYTE		N06   
	BYTE	W06
	BYTE		        Dn3 
	BYTE	W06
	BYTE		        Fn3 
	BYTE	W06
	BYTE		        Fn2 
	BYTE	W06
	BYTE		        Dn2 
	BYTE	W06
	BYTE		N06   
	BYTE	W06
	BYTE		        Dn3 
	BYTE	W06
	BYTE		        Dn2 
	BYTE	W06
	BYTE		        Fn2 
	BYTE	W06
	BYTE		        An2 
	BYTE	W06
	BYTE		        Fn2 
	BYTE	W06
	BYTE		        Dn2 
	BYTE	W05
	BYTE	PEND
// 057   ----------------------------------------
LockedGirl_5_057:
	BYTE	W01
	BYTE		N06     Dn2   v036
	BYTE	W06
	BYTE		N06   
	BYTE	W06
	BYTE		        Dn3 
	BYTE	W06
	BYTE		        Dn2 
	BYTE	W06
	BYTE		N06   
	BYTE	W06
	BYTE		        Dn3 
	BYTE	W06
	BYTE		        Fn3 
	BYTE	W06
	BYTE		        Fn2 
	BYTE	W06
	BYTE		        Dn2 
	BYTE	W06
	BYTE		N06   
	BYTE	W06
	BYTE		        Dn3 
	BYTE	W06
	BYTE		        Dn2 
	BYTE	W06
	BYTE		        Cn2 
	BYTE	W06
	BYTE		        En2 
	BYTE	W06
	BYTE		        Gn2 
	BYTE	W06
	BYTE		        En2 
	BYTE	W05
	BYTE	PEND
// 058   ----------------------------------------
LockedGirl_5_058:
	BYTE	W01
	BYTE		N06     As1   v036
	BYTE	W06
	BYTE		N06   
	BYTE	W06
	BYTE		        As2 
	BYTE	W06
	BYTE		        As1 
	BYTE	W06
	BYTE		N06   
	BYTE	W06
	BYTE		        Dn2 
	BYTE	W06
	BYTE		        Fn2 
	BYTE	W06
	BYTE		        Dn2 
	BYTE	W06
	BYTE		        As1 
	BYTE	W06
	BYTE		N06   
	BYTE	W06
	BYTE		        As2 
	BYTE	W06
	BYTE		        As1 
	BYTE	W06
	BYTE		        Dn2 
	BYTE	W06
	BYTE		        Fn2 
	BYTE	W06
	BYTE		        Dn2 
	BYTE	W06
	BYTE		        As1 
	BYTE	W05
	BYTE	PEND
// 059   ----------------------------------------
	BYTE	PATT
	 POIN2	LockedGirl_5_058
// 060   ----------------------------------------
LockedGirl_5_060:
	BYTE	W01
	BYTE		N06     Cn2   v036
	BYTE	W06
	BYTE		N06   
	BYTE	W06
	BYTE		        Cn3 
	BYTE	W06
	BYTE		        Cn2 
	BYTE	W06
	BYTE		        En2 
	BYTE	W06
	BYTE		        Gn2 
	BYTE	W06
	BYTE		        En2 
	BYTE	W06
	BYTE		        Gn2 
	BYTE	W06
	BYTE		        Cn2 
	BYTE	W06
	BYTE		N06   
	BYTE	W06
	BYTE		        Cn3 
	BYTE	W06
	BYTE		        En3 
	BYTE	W06
	BYTE		        Cn3 
	BYTE	W06
	BYTE		        Gn2 
	BYTE	W06
	BYTE		        En2 
	BYTE	W06
	BYTE		        Dn2 
	BYTE	W05
	BYTE	PEND
// 061   ----------------------------------------
	BYTE	PATT
	 POIN2	LockedGirl_5_060
// 062   ----------------------------------------
LockedGirl_5_062:
	BYTE	W01
	BYTE		N06     Cs2   v036
	BYTE	W06
	BYTE		N06   
	BYTE	W06
	BYTE		        Cs3 
	BYTE	W06
	BYTE		        Cs2 
	BYTE	W06
	BYTE		        Gn2 
	BYTE	W06
	BYTE		        Cs2 
	BYTE	W06
	BYTE		        Cs3 
	BYTE	W06
	BYTE		        Cs2 
	BYTE	W06
	BYTE		        En2 
	BYTE	W06
	BYTE		        Gn2 
	BYTE	W06
	BYTE		        Cs3 
	BYTE	W06
	BYTE		        Gn2 
	BYTE	W06
	BYTE		        En2 
	BYTE	W06
	BYTE		        Cs2 
	BYTE	W06
	BYTE		        En2 
	BYTE	W06
	BYTE		        Gn2 
	BYTE	W05
	BYTE	PEND
// 063   ----------------------------------------
	BYTE	W01
	BYTE		        An2 
	BYTE	W06
	BYTE		        Cs3 
	BYTE	W06
	BYTE		        En3 
	BYTE	W06
	BYTE		        An3 
	BYTE	W06
	BYTE		        En3 
	BYTE	W06
	BYTE		        Cs3 
	BYTE	W06
	BYTE		        An2 
	BYTE	W06
	BYTE		        En2 
	BYTE	W06
	BYTE		        Cs2 
	BYTE	W06
	BYTE		N06   
	BYTE	W06
	BYTE		        An2 
	BYTE	W06
	BYTE		        Cs2 
	BYTE	W06
	BYTE		        Cs3 
	BYTE	W06
	BYTE		        Cs2 
	BYTE	W06
	BYTE		        An2 
	BYTE	W06
	BYTE		        Cs2 
	BYTE	W05
// 064   ----------------------------------------
	BYTE	PATT
	 POIN2	LockedGirl_5_056
// 065   ----------------------------------------
	BYTE	PATT
	 POIN2	LockedGirl_5_057
// 066   ----------------------------------------
	BYTE	PATT
	 POIN2	LockedGirl_5_058
// 067   ----------------------------------------
	BYTE	PATT
	 POIN2	LockedGirl_5_058
// 068   ----------------------------------------
	BYTE	PATT
	 POIN2	LockedGirl_5_060
// 069   ----------------------------------------
	BYTE	PATT
	 POIN2	LockedGirl_5_060
// 070   ----------------------------------------
	BYTE	PATT
	 POIN2	LockedGirl_5_062
// 071   ----------------------------------------
	BYTE	W01
	BYTE		N06     An2   v036
	BYTE	W06
	BYTE		        Cs3 
	BYTE	W06
	BYTE		        En3 
	BYTE	W06
	BYTE		        An3 
	BYTE	W06
	BYTE		        En3 
	BYTE	W06
	BYTE		        Cs3 
	BYTE	W06
	BYTE		        An2 
	BYTE	W06
	BYTE		        En2 
	BYTE	W06
	BYTE		        Cs2 
	BYTE	W06
	BYTE		N06   
	BYTE	W06
	BYTE		        An2 
	BYTE	W06
	BYTE		        Cs2 
	BYTE	W06
	BYTE		        Cs3 
	BYTE	W06
	BYTE		        Cs2 
	BYTE	W06
	BYTE		        An2 
	BYTE	W06
	BYTE		        Cs2 
	BYTE	W02
	BYTE	GoTo
	 POIN2	LockedGirl_5_B1
LockedGirl_5_B2:
	BYTE	W03
// 072   ----------------------------------------
	BYTE	W96
// 073   ----------------------------------------
	BYTE	W01
	BYTE	FINE

//**************** Track 6 (Midi-Chn.8) ****************//

LockedGirl_6:
	BYTE	KEYSH   LockedGirl_key+0
LockedGirl_6_B1:
// 000   ----------------------------------------
	BYTE		VOICE   0
	BYTE		BENDR   12
	BYTE		PAN     c_v-4
	BYTE		VOL     100*LockedGirl_mvl/mxv
	BYTE		MODT    0
	BYTE		LFOS    44
	BYTE	W01
	BYTE		N32     Gs2   v108
	BYTE	W36
	BYTE		N11     Cs3 
	BYTE	W12
	BYTE		N32     Ds3 
	BYTE	W36
	BYTE		N11     Gs2 
	BYTE	W11
// 001   ----------------------------------------
LockedGirl_6_001:
	BYTE	W01
	BYTE		N32     En3   v108
	BYTE	W36
	BYTE		N11     Gs2 
	BYTE	W12
	BYTE		N44     Fs3 
	BYTE	W44
	BYTE	W03
	BYTE	PEND
// 002   ----------------------------------------
LockedGirl_6_002:
	BYTE	W01
	BYTE		TIE     Gs3   v108
	BYTE	W92
	BYTE	W03
	BYTE	PEND
// 003   ----------------------------------------
	BYTE	W09
	BYTE		EOT   
	BYTE	W01
	BYTE		N02     En3   v056
	BYTE	W03
	BYTE		N11     Gs3   v108
	BYTE	W12
	BYTE		        Cs3 
	BYTE	W12
	BYTE		        Gs3   v080
	BYTE	W12
	BYTE		        Fs3   v108
	BYTE	W12
	BYTE		        Ds3   v080
	BYTE	W12
	BYTE		N23     Bn2   v108
	BYTE	W23
// 004   ----------------------------------------
LockedGirl_6_004:
	BYTE	W01
	BYTE		N32     Cs3   v108
	BYTE	W36
	BYTE		N11     En3 
	BYTE	W12
	BYTE		N32     Ds3 
	BYTE	W36
	BYTE		N11     Bn2 
	BYTE	W11
	BYTE	PEND
// 005   ----------------------------------------
LockedGirl_6_005:
	BYTE	W01
	BYTE		N32     Gs2   v108
	BYTE	W36
	BYTE		N23     Cs3 
	BYTE	W24
	BYTE		N11     Bn2 
	BYTE	W12
	BYTE		N23     An2 
	BYTE	W23
	BYTE	PEND
// 006   ----------------------------------------
LockedGirl_6_006:
	BYTE	W01
	BYTE		N92     Gs2   v108
	BYTE	W92
	BYTE	W03
	BYTE	PEND
// 007   ----------------------------------------
LockedGirl_6_007:
	BYTE	W01
	BYTE		N32     Cn3   v108
	BYTE	W36
	BYTE		N06     Ds2 
	BYTE	W06
	BYTE		N06   
	BYTE	W06
	BYTE		N17   
	BYTE	W18
	BYTE		        En2 
	BYTE	W18
	BYTE		N11     Fs2 
	BYTE	W11
	BYTE	PEND
// 008   ----------------------------------------
LockedGirl_6_008:
	BYTE	W01
	BYTE		N32     Gs2   v108
	BYTE	W36
	BYTE		N11     Cs3 
	BYTE	W12
	BYTE		N32     Ds3 
	BYTE	W36
	BYTE		N11     Gs2 
	BYTE	W11
	BYTE	PEND
// 009   ----------------------------------------
	BYTE	PATT
	 POIN2	LockedGirl_6_001
// 010   ----------------------------------------
	BYTE	PATT
	 POIN2	LockedGirl_6_002
// 011   ----------------------------------------
	BYTE	W09
	BYTE		EOT     Gs3 
	BYTE	W01
	BYTE		N02     En3   v056
	BYTE	W03
	BYTE		N11     Gs3   v108
	BYTE	W12
	BYTE		        Cs3 
	BYTE	W12
	BYTE		        Gs3   v080
	BYTE	W12
	BYTE		        Fs3   v108
	BYTE	W12
	BYTE		        Ds3   v080
	BYTE	W12
	BYTE		N23     Bn2   v108
	BYTE	W23
// 012   ----------------------------------------
	BYTE	PATT
	 POIN2	LockedGirl_6_004
// 013   ----------------------------------------
	BYTE	PATT
	 POIN2	LockedGirl_6_005
// 014   ----------------------------------------
	BYTE	PATT
	 POIN2	LockedGirl_6_006
// 015   ----------------------------------------
LockedGirl_6_015:
	BYTE	W01
	BYTE		N44     Cn3   v108
	BYTE	W48
	BYTE		N02     Bn2   v060
	BYTE	W03
	BYTE		        Fs3   v064
	BYTE	W03
	BYTE		        Bn2   v068
	BYTE	W03
	BYTE		        Fs3   v072
	BYTE	W03
	BYTE		        Bn2   v076
	BYTE	W03
	BYTE		        Fs3 
	BYTE	W03
	BYTE		        Cn3   v080
	BYTE	W03
	BYTE		        Gn3   v084
	BYTE	W03
	BYTE		        Cn3   v088
	BYTE	W03
	BYTE		        Gn3   v092
	BYTE	W03
	BYTE		        Ds3   v096
	BYTE	W03
	BYTE		        An3   v100
	BYTE	W03
	BYTE		        Ds3   v104
	BYTE	W03
	BYTE		        An3   v108
	BYTE	W03
	BYTE		        En3   v112
	BYTE	W03
	BYTE		        Fs3   v116
	BYTE	W02
	BYTE	PEND
// 016   ----------------------------------------
LockedGirl_6_016:
	BYTE	W01
	BYTE		N32     Fs3   v116
	BYTE	W36
	BYTE		N11     Bn2 
	BYTE	W12
	BYTE		N44   
	BYTE		N44     Gn3 
	BYTE	W44
	BYTE	W03
	BYTE	PEND
// 017   ----------------------------------------
LockedGirl_6_017:
	BYTE	W01
	BYTE		N32     An3   v116
	BYTE	W36
	BYTE		N11     Bn2 
	BYTE	W12
	BYTE		N44   
	BYTE		N44     Gn3 
	BYTE	W44
	BYTE	W03
	BYTE	PEND
// 018   ----------------------------------------
	BYTE	PATT
	 POIN2	LockedGirl_6_016
// 019   ----------------------------------------
	BYTE	PATT
	 POIN2	LockedGirl_6_017
// 020   ----------------------------------------
	BYTE	PATT
	 POIN2	LockedGirl_6_016
// 021   ----------------------------------------
	BYTE	PATT
	 POIN2	LockedGirl_6_017
// 022   ----------------------------------------
	BYTE	PATT
	 POIN2	LockedGirl_6_016
// 023   ----------------------------------------
	BYTE	PATT
	 POIN2	LockedGirl_6_017
// 024   ----------------------------------------
	BYTE	W01
	BYTE		N23     En2   v116
	BYTE		N23     Gn2 
	BYTE	W24
	BYTE		        En2 
	BYTE		N23     Gn2 
	BYTE	W24
	BYTE		N17     Ds2 
	BYTE		N17     Fs2 
	BYTE	W18
	BYTE		        Ds2 
	BYTE		N17     Fs2 
	BYTE	W18
	BYTE		N23     En2 
	BYTE		N23     Gn2 
	BYTE	W11
// 025   ----------------------------------------
LockedGirl_6_025:
	BYTE	W13
	BYTE		N11     En2   v116
	BYTE		N11     Gn2 
	BYTE	W12
	BYTE		        En2 
	BYTE		N11     Gn2 
	BYTE	W12
	BYTE		        En2 
	BYTE		N11     Gn2 
	BYTE	W12
	BYTE		N17     Ds2 
	BYTE		N17     Fs2 
	BYTE	W18
	BYTE		        Ds2 
	BYTE		N17     Fs2 
	BYTE	W18
	BYTE		N23     En2 
	BYTE		N23     Gn2 
	BYTE	W11
	BYTE	PEND
// 026   ----------------------------------------
LockedGirl_6_026:
	BYTE	W13
	BYTE		N11     En2   v116
	BYTE		N11     Gn2 
	BYTE	W12
	BYTE		        En2 
	BYTE		N11     Gn2 
	BYTE	W12
	BYTE		        En2 
	BYTE		N11     Gn2 
	BYTE	W12
	BYTE		N17     Ds2 
	BYTE		N17     Fs2 
	BYTE	W18
	BYTE		        Ds2 
	BYTE		N17     Fs2 
	BYTE	W18
	BYTE		N23   
	BYTE		N23     An2 
	BYTE	W11
	BYTE	PEND
// 027   ----------------------------------------
	BYTE	W13
	BYTE		N11     En2 
	BYTE		N11     Gn2 
	BYTE	W12
	BYTE		N23     En2 
	BYTE		N23     Gn2 
	BYTE	W24
	BYTE		N17     Ds2 
	BYTE		N17     Fs2 
	BYTE	W18
	BYTE		        Ds2 
	BYTE		N17     Fs2 
	BYTE	W18
	BYTE		N32     En2 
	BYTE		N32     Gn2 
	BYTE	W11
// 028   ----------------------------------------
	BYTE	W24
	BYTE	W01
	BYTE		N23     En2 
	BYTE		N23     Gn2 
	BYTE	W24
	BYTE		N17     Ds2 
	BYTE		N17     Fs2 
	BYTE	W18
	BYTE		        Ds2 
	BYTE		N17     Fs2 
	BYTE	W18
	BYTE		N23     En2 
	BYTE		N23     Gn2 
	BYTE	W11
// 029   ----------------------------------------
	BYTE	PATT
	 POIN2	LockedGirl_6_025
// 030   ----------------------------------------
	BYTE	PATT
	 POIN2	LockedGirl_6_026
// 031   ----------------------------------------
	BYTE	W13
	BYTE		N11     En2   v116
	BYTE		N11     Gn2 
	BYTE	W12
	BYTE		        Fs2 
	BYTE		N11     An2 
	BYTE	W12
	BYTE		        Gn2 
	BYTE		N11     Bn2 
	BYTE	W12
	BYTE		N17     Ds2 
	BYTE		N17     Fs2 
	BYTE	W18
	BYTE		        En2 
	BYTE		N17     Gn2 
	BYTE	W18
	BYTE		N12     Fs2 
	BYTE		N12     An2 
	BYTE	W11
// 032   ----------------------------------------
	BYTE	W01
	BYTE		N23     Gn2 
	BYTE		N23     En3 
	BYTE	W24
	BYTE		        Gn2 
	BYTE		N23     En3 
	BYTE	W24
	BYTE		N17     Fs2 
	BYTE		N17     Ds3 
	BYTE	W18
	BYTE		        Fs2 
	BYTE		N17     Ds3 
	BYTE	W18
	BYTE		N23     Gn2 
	BYTE		N23     En3 
	BYTE	W11
// 033   ----------------------------------------
LockedGirl_6_033:
	BYTE	W13
	BYTE		N11     Gn2   v116
	BYTE		N11     En3 
	BYTE	W12
	BYTE		        Gn2 
	BYTE		N11     En3 
	BYTE	W12
	BYTE		        Gn2 
	BYTE		N11     En3 
	BYTE	W12
	BYTE		N17     Fs2 
	BYTE		N17     Ds3 
	BYTE	W18
	BYTE		        Fs2 
	BYTE		N17     Ds3 
	BYTE	W18
	BYTE		N23     Gn2 
	BYTE		N23     En3 
	BYTE	W11
	BYTE	PEND
// 034   ----------------------------------------
LockedGirl_6_034:
	BYTE	W13
	BYTE		N11     Gn2   v116
	BYTE		N11     En3 
	BYTE	W12
	BYTE		        Gn2 
	BYTE		N11     En3 
	BYTE	W12
	BYTE		        Gn2 
	BYTE		N11     En3 
	BYTE	W12
	BYTE		N17     Fs2 
	BYTE		N17     Ds3 
	BYTE	W18
	BYTE		        Fs2 
	BYTE		N17     Ds3 
	BYTE	W18
	BYTE		N23     An2 
	BYTE		N23     Fs3 
	BYTE	W11
	BYTE	PEND
// 035   ----------------------------------------
	BYTE	W13
	BYTE		N11     Gn2 
	BYTE		N11     En3 
	BYTE	W12
	BYTE		N23     Gn2 
	BYTE		N23     En3 
	BYTE	W24
	BYTE		N17     Fs2 
	BYTE		N17     Ds3 
	BYTE	W18
	BYTE		        Fs2 
	BYTE		N17     Ds3 
	BYTE	W18
	BYTE		N32     Gn2 
	BYTE		N32     En3 
	BYTE	W11
// 036   ----------------------------------------
	BYTE	W24
	BYTE	W01
	BYTE		N23     Gn2 
	BYTE		N23     En3 
	BYTE	W24
	BYTE		N17     Fs2 
	BYTE		N17     Ds3 
	BYTE	W18
	BYTE		        Fs2 
	BYTE		N17     Ds3 
	BYTE	W18
	BYTE		N23     Gn2 
	BYTE		N23     En3 
	BYTE	W11
// 037   ----------------------------------------
	BYTE	PATT
	 POIN2	LockedGirl_6_033
// 038   ----------------------------------------
	BYTE	PATT
	 POIN2	LockedGirl_6_034
// 039   ----------------------------------------
	BYTE	W13
	BYTE		N11     Fs2   v116
	BYTE		N11     Ds3 
	BYTE	W12
	BYTE		        Gn2 
	BYTE		N11     En3 
	BYTE	W12
	BYTE		        An2 
	BYTE		N11     Fs3 
	BYTE	W12
	BYTE		N17     Fs2 
	BYTE		N17     Ds3 
	BYTE	W18
	BYTE		        Fs2 
	BYTE		N17     Ds3 
	BYTE	W18
	BYTE		N12     Gn2 
	BYTE		N12     En3 
	BYTE	W11
// 040   ----------------------------------------
	BYTE	PATT
	 POIN2	LockedGirl_6_008
// 041   ----------------------------------------
	BYTE	PATT
	 POIN2	LockedGirl_6_001
// 042   ----------------------------------------
	BYTE	PATT
	 POIN2	LockedGirl_6_002
// 043   ----------------------------------------
	BYTE	W09
	BYTE		EOT     Gs3 
	BYTE	W01
	BYTE		N02     En3   v056
	BYTE	W03
	BYTE		N11     Gs3   v108
	BYTE	W12
	BYTE		        Cs3 
	BYTE	W12
	BYTE		        Gs3   v080
	BYTE	W12
	BYTE		        Fs3   v108
	BYTE	W12
	BYTE		        Ds3   v080
	BYTE	W12
	BYTE		N23     Bn2   v108
	BYTE	W23
// 044   ----------------------------------------
	BYTE	PATT
	 POIN2	LockedGirl_6_004
// 045   ----------------------------------------
	BYTE	PATT
	 POIN2	LockedGirl_6_005
// 046   ----------------------------------------
	BYTE	PATT
	 POIN2	LockedGirl_6_006
// 047   ----------------------------------------
	BYTE	PATT
	 POIN2	LockedGirl_6_007
// 048   ----------------------------------------
	BYTE	PATT
	 POIN2	LockedGirl_6_008
// 049   ----------------------------------------
	BYTE	PATT
	 POIN2	LockedGirl_6_001
// 050   ----------------------------------------
	BYTE	PATT
	 POIN2	LockedGirl_6_002
// 051   ----------------------------------------
	BYTE	W09
	BYTE		EOT     Gs3 
	BYTE	W01
	BYTE		N02     En3   v056
	BYTE	W03
	BYTE		N11     Gs3   v108
	BYTE	W12
	BYTE		        Cs3 
	BYTE	W12
	BYTE		        Gs3   v080
	BYTE	W12
	BYTE		        Fs3   v108
	BYTE	W12
	BYTE		        Ds3   v080
	BYTE	W12
	BYTE		N23     Bn2   v108
	BYTE	W23
// 052   ----------------------------------------
	BYTE	PATT
	 POIN2	LockedGirl_6_004
// 053   ----------------------------------------
	BYTE	PATT
	 POIN2	LockedGirl_6_005
// 054   ----------------------------------------
	BYTE	PATT
	 POIN2	LockedGirl_6_006
// 055   ----------------------------------------
	BYTE	PATT
	 POIN2	LockedGirl_6_015
// 056   ----------------------------------------
LockedGirl_6_056:
	BYTE	W01
	BYTE		N32     An2   v108
	BYTE	W36
	BYTE		N11     Dn3 
	BYTE	W12
	BYTE		N32     En3 
	BYTE	W36
	BYTE		N11     An2 
	BYTE	W11
	BYTE	PEND
// 057   ----------------------------------------
LockedGirl_6_057:
	BYTE	W01
	BYTE		N32     Fn3   v108
	BYTE	W36
	BYTE		N11     An2 
	BYTE	W12
	BYTE		N44     Gn3 
	BYTE	W44
	BYTE	W03
	BYTE	PEND
// 058   ----------------------------------------
LockedGirl_6_058:
	BYTE	W01
	BYTE		TIE     An3   v108
	BYTE	W92
	BYTE	W03
	BYTE	PEND
// 059   ----------------------------------------
	BYTE	W09
	BYTE		EOT   
	BYTE	W01
	BYTE		N02     Fn3   v056
	BYTE	W03
	BYTE		N11     An3   v108
	BYTE	W12
	BYTE		        Dn3 
	BYTE	W12
	BYTE		        An3   v080
	BYTE	W12
	BYTE		        Gn3   v108
	BYTE	W12
	BYTE		        En3   v080
	BYTE	W12
	BYTE		N23     Cn3   v108
	BYTE	W23
// 060   ----------------------------------------
LockedGirl_6_060:
	BYTE	W01
	BYTE		N32     Dn3   v108
	BYTE	W36
	BYTE		N11     Fn3 
	BYTE	W12
	BYTE		N32     En3 
	BYTE	W36
	BYTE		N11     Cn3 
	BYTE	W11
	BYTE	PEND
// 061   ----------------------------------------
LockedGirl_6_061:
	BYTE	W01
	BYTE		N32     An2   v108
	BYTE	W36
	BYTE		N23     Dn3 
	BYTE	W24
	BYTE		N11     Cn3 
	BYTE	W12
	BYTE		N23     As2 
	BYTE	W23
	BYTE	PEND
// 062   ----------------------------------------
LockedGirl_6_062:
	BYTE	W01
	BYTE		N92     An2   v108
	BYTE	W92
	BYTE	W03
	BYTE	PEND
// 063   ----------------------------------------
	BYTE	W01
	BYTE		        Cs3 
	BYTE	W92
	BYTE	W03
// 064   ----------------------------------------
	BYTE	PATT
	 POIN2	LockedGirl_6_056
// 065   ----------------------------------------
	BYTE	PATT
	 POIN2	LockedGirl_6_057
// 066   ----------------------------------------
	BYTE	PATT
	 POIN2	LockedGirl_6_058
// 067   ----------------------------------------
	BYTE	W09
	BYTE		EOT     An3 
	BYTE	W01
	BYTE		N02     Fn3   v056
	BYTE	W03
	BYTE		N11     An3   v108
	BYTE	W12
	BYTE		        Dn3 
	BYTE	W12
	BYTE		        An3   v080
	BYTE	W12
	BYTE		        Gn3   v108
	BYTE	W12
	BYTE		        En3   v080
	BYTE	W12
	BYTE		N23     Cn3   v108
	BYTE	W23
// 068   ----------------------------------------
	BYTE	PATT
	 POIN2	LockedGirl_6_060
// 069   ----------------------------------------
	BYTE	PATT
	 POIN2	LockedGirl_6_061
// 070   ----------------------------------------
	BYTE	PATT
	 POIN2	LockedGirl_6_062
// 071   ----------------------------------------
	BYTE	W01
	BYTE		N44     Cs3   v108
	BYTE	W48
	BYTE		N02     Cn3   v060
	BYTE	W03
	BYTE		        Gn3   v064
	BYTE	W03
	BYTE		        Cn3   v068
	BYTE	W03
	BYTE		        Gn3   v072
	BYTE	W03
	BYTE		        Cn3   v076
	BYTE	W03
	BYTE		        Gn3 
	BYTE	W03
	BYTE		        Cs3   v080
	BYTE	W03
	BYTE		        Gs3   v084
	BYTE	W03
	BYTE		        Cs3   v088
	BYTE	W03
	BYTE		        Gs3   v092
	BYTE	W03
	BYTE		        En3   v096
	BYTE	W03
	BYTE		        As3   v100
	BYTE	W03
	BYTE		        En3   v104
	BYTE	W03
	BYTE		        As3   v108
	BYTE	W03
	BYTE		        Fn3   v112
	BYTE	W02
	BYTE	GoTo
	 POIN2	LockedGirl_6_B1
LockedGirl_6_B2:
	BYTE	W01
	BYTE		N02     Gn3   v116
	BYTE	W02
// 072   ----------------------------------------
	BYTE	W96
// 073   ----------------------------------------
	BYTE	W01
	BYTE	FINE

//**************** Track 7 (Midi-Chn.12) ****************//

LockedGirl_7:
	BYTE	KEYSH   LockedGirl_key+0
LockedGirl_7_B1:
// 000   ----------------------------------------
	BYTE		VOICE   110
	BYTE		BENDR   6
	BYTE		PAN     c_v+26
	BYTE		VOL     105*LockedGirl_mvl/mxv
	BYTE		MODT    0
	BYTE		LFOS    44
	BYTE	W96
// 001   ----------------------------------------
	BYTE	W96
// 002   ----------------------------------------
	BYTE	W96
// 003   ----------------------------------------
	BYTE	W96
// 004   ----------------------------------------
	BYTE	W96
// 005   ----------------------------------------
	BYTE	W96
// 006   ----------------------------------------
	BYTE	W96
// 007   ----------------------------------------
	BYTE	W01
	BYTE		VOL     59*LockedGirl_mvl/mxv
	BYTE	W72
	BYTE		N23     Gs3   v072
	BYTE	W23
// 008   ----------------------------------------
	BYTE	W01
	BYTE		N32     Gs3   v060
	BYTE	W36
	BYTE		        Ds4   v072
	BYTE	W36
	BYTE		N44     En4   v088
	BYTE	W23
// 009   ----------------------------------------
	BYTE	W24
	BYTE	W01
	BYTE		N23   
	BYTE	W24
	BYTE		        Bn3   v072
	BYTE	W24
	BYTE		        An3   v060
	BYTE	W23
// 010   ----------------------------------------
	BYTE	W01
	BYTE		TIE     Cs4 
	BYTE	W92
	BYTE	W03
// 011   ----------------------------------------
	BYTE	W44
	BYTE	W03
	BYTE		EOT   
	BYTE	W14
	BYTE		N11     Bn3 
	BYTE	W12
	BYTE		        Cs4   v072
	BYTE	W12
	BYTE		        Bn3   v088
	BYTE	W11
// 012   ----------------------------------------
	BYTE	W01
	BYTE		N32   
	BYTE	W36
	BYTE		N11     Cs4 
	BYTE	W12
	BYTE		N32     Gs3 
	BYTE	W36
	BYTE		N11     En4 
	BYTE	W11
// 013   ----------------------------------------
	BYTE	W01
	BYTE		N44     Cs4 
	BYTE	W48
	BYTE		N11   
	BYTE	W12
	BYTE		        Bn3 
	BYTE	W12
	BYTE		        Cs4 
	BYTE	W12
	BYTE		        Ds4 
	BYTE	W11
// 014   ----------------------------------------
	BYTE	W01
	BYTE		N92   
	BYTE	W92
	BYTE	W03
// 015   ----------------------------------------
	BYTE	W01
	BYTE		        Gs4 
	BYTE	W92
	BYTE	W03
// 016   ----------------------------------------
LockedGirl_7_016:
	BYTE	W01
	BYTE		N92     Gn3   v088
	BYTE		N92     En4 
	BYTE	W92
	BYTE	W03
	BYTE	PEND
// 017   ----------------------------------------
	BYTE	PATT
	 POIN2	LockedGirl_7_016
// 018   ----------------------------------------
LockedGirl_7_018:
	BYTE	W01
	BYTE		N92     Gn4   v048
	BYTE		N92     En5 
	BYTE	W92
	BYTE	W03
	BYTE	PEND
// 019   ----------------------------------------
	BYTE	PATT
	 POIN2	LockedGirl_7_018
// 020   ----------------------------------------
	BYTE	W96
// 021   ----------------------------------------
	BYTE	W96
// 022   ----------------------------------------
	BYTE	W96
// 023   ----------------------------------------
	BYTE	W96
// 024   ----------------------------------------
	BYTE	W96
// 025   ----------------------------------------
	BYTE	W96
// 026   ----------------------------------------
	BYTE	W96
// 027   ----------------------------------------
	BYTE	W96
// 028   ----------------------------------------
	BYTE	W96
// 029   ----------------------------------------
	BYTE	W96
// 030   ----------------------------------------
	BYTE	W96
// 031   ----------------------------------------
	BYTE	W96
// 032   ----------------------------------------
	BYTE	W96
// 033   ----------------------------------------
	BYTE	W96
// 034   ----------------------------------------
	BYTE	W96
// 035   ----------------------------------------
	BYTE	W96
// 036   ----------------------------------------
	BYTE	W96
// 037   ----------------------------------------
	BYTE	W96
// 038   ----------------------------------------
	BYTE	W96
// 039   ----------------------------------------
	BYTE	W96
// 040   ----------------------------------------
	BYTE	W01
	BYTE		N32     Gs3   v080
	BYTE	W36
	BYTE		        Ds4   v092
	BYTE	W36
	BYTE		N44     En4   v108
	BYTE	W23
// 041   ----------------------------------------
	BYTE	W24
	BYTE	W01
	BYTE		N23   
	BYTE	W24
	BYTE		        Bn3   v092
	BYTE	W24
	BYTE		        An3   v080
	BYTE	W23
// 042   ----------------------------------------
	BYTE	W01
	BYTE		TIE     Cs4 
	BYTE	W92
	BYTE	W03
// 043   ----------------------------------------
	BYTE	W44
	BYTE	W03
	BYTE		EOT   
	BYTE	W14
	BYTE		N11     Bn3 
	BYTE	W12
	BYTE		        Cs4   v092
	BYTE	W12
	BYTE		        Bn3   v108
	BYTE	W11
// 044   ----------------------------------------
	BYTE	W01
	BYTE		N32     Ds4 
	BYTE	W36
	BYTE		N11     Cs4 
	BYTE	W12
	BYTE		N44     Bn3 
	BYTE	W44
	BYTE	W03
// 045   ----------------------------------------
	BYTE	W01
	BYTE		N44   
	BYTE	W48
	BYTE		N11     Cs4 
	BYTE	W12
	BYTE		        Bn3 
	BYTE	W12
	BYTE		        Cs4 
	BYTE	W12
	BYTE		        Ds4 
	BYTE	W11
// 046   ----------------------------------------
LockedGirl_7_046:
	BYTE	W01
	BYTE		N92     Ds4   v108
	BYTE	W92
	BYTE	W03
	BYTE	PEND
// 047   ----------------------------------------
LockedGirl_7_047:
	BYTE	W01
	BYTE		N92     Gs4   v108
	BYTE	W92
	BYTE	W03
	BYTE	PEND
// 048   ----------------------------------------
	BYTE	W01
	BYTE		N32     Gs4   v080
	BYTE	W36
	BYTE		        Fs4   v092
	BYTE	W36
	BYTE		N44     En4   v108
	BYTE	W23
// 049   ----------------------------------------
	BYTE	W24
	BYTE	W01
	BYTE		N23     Cs4 
	BYTE	W24
	BYTE		        Gs4   v092
	BYTE	W24
	BYTE		        Fs4   v080
	BYTE	W23
// 050   ----------------------------------------
	BYTE	W01
	BYTE		TIE     En4 
	BYTE	W92
	BYTE	W03
// 051   ----------------------------------------
	BYTE	W44
	BYTE	W03
	BYTE		EOT   
	BYTE	W14
	BYTE		N11     Bn3 
	BYTE	W12
	BYTE		        Cs4   v092
	BYTE	W12
	BYTE		        Bn3   v108
	BYTE	W11
// 052   ----------------------------------------
	BYTE	W01
	BYTE		N32   
	BYTE	W36
	BYTE		N11     Cs4 
	BYTE	W12
	BYTE		N32     Gs3 
	BYTE	W36
	BYTE		N11     En4 
	BYTE	W11
// 053   ----------------------------------------
	BYTE	W01
	BYTE		N44     Cs4 
	BYTE	W48
	BYTE		N11   
	BYTE	W12
	BYTE		        Bn3 
	BYTE	W12
	BYTE		        Cs4 
	BYTE	W12
	BYTE		        Ds4 
	BYTE	W11
// 054   ----------------------------------------
	BYTE	PATT
	 POIN2	LockedGirl_7_046
// 055   ----------------------------------------
	BYTE	PATT
	 POIN2	LockedGirl_7_047
// 056   ----------------------------------------
	BYTE	W01
	BYTE		VOL     105*LockedGirl_mvl/mxv
	BYTE		N32     An3   v108
	BYTE		N32     Fn4 
	BYTE	W36
	BYTE		        En4 
	BYTE		N32     Gn4 
	BYTE	W36
	BYTE		        Fn4 
	BYTE		N32     An4 
	BYTE	W23
// 057   ----------------------------------------
LockedGirl_7_057:
	BYTE	W13
	BYTE		BEND    c_v+0
	BYTE		N32     An4   v108
	BYTE		N32     Dn5 
	BYTE	W13
	BYTE		BEND    c_v-1
	BYTE	W05
	BYTE		        c_v-2
	BYTE	W03
	BYTE		        c_v-3
	BYTE	W01
	BYTE		        c_v-4
	BYTE	W02
	BYTE		        c_v-5
	BYTE	W01
	BYTE		        c_v-6
	BYTE	W01
	BYTE		        c_v-7
	BYTE	W01
	BYTE		        c_v-8
	BYTE	W01
	BYTE		        c_v-9
	BYTE	W01
	BYTE		        c_v-11
	BYTE	W01
	BYTE		        c_v-13
	BYTE	W01
	BYTE		        c_v-16
	BYTE	W01
	BYTE		        c_v-18
	BYTE	W01
	BYTE		        c_v-21
	BYTE	W01
	BYTE		        c_v-25
	BYTE	W01
	BYTE		        c_v-29
	BYTE	W01
	BYTE		        c_v+0
	BYTE		N23     Gn4 
	BYTE		N23     Cn5 
	BYTE	W24
	BYTE		        An4 
	BYTE		N23     Dn5 
	BYTE	W23
	BYTE	PEND
// 058   ----------------------------------------
LockedGirl_7_058:
	BYTE	W01
	BYTE		N92     Fn4   v108
	BYTE		N92     An4 
	BYTE	W92
	BYTE	W03
	BYTE	PEND
// 059   ----------------------------------------
LockedGirl_7_059:
	BYTE	W01
	BYTE		N92     An3   v108
	BYTE		N92     Fn4 
	BYTE	W92
	BYTE	W03
	BYTE	PEND
// 060   ----------------------------------------
LockedGirl_7_060:
	BYTE	W01
	BYTE		N32     Gn3   v108
	BYTE		N32     En4 
	BYTE	W36
	BYTE		        An3 
	BYTE		N32     Fn4 
	BYTE	W36
	BYTE		        Gn3 
	BYTE		N32     En4 
	BYTE	W23
	BYTE	PEND
// 061   ----------------------------------------
LockedGirl_7_061:
	BYTE	W13
	BYTE		N32     An3   v108
	BYTE		N32     Fn4 
	BYTE	W36
	BYTE		N44     Cn3 
	BYTE		N44     En3 
	BYTE	W44
	BYTE	W03
	BYTE	PEND
// 062   ----------------------------------------
LockedGirl_7_062:
	BYTE	W01
	BYTE		N92     An2   v108
	BYTE		N92     En3 
	BYTE	W92
	BYTE	W03
	BYTE	PEND
// 063   ----------------------------------------
	BYTE	W01
	BYTE		BEND    c_v+0
	BYTE		N92     Cs3 
	BYTE		N92     An3 
	BYTE		N92     An4 
	BYTE	W36
	BYTE		BEND    c_v-1
	BYTE	W12
	BYTE		        c_v-2
	BYTE	W07
	BYTE		        c_v-3
	BYTE	W05
	BYTE		        c_v-4
	BYTE	W04
	BYTE		        c_v-5
	BYTE	W03
	BYTE		        c_v-6
	BYTE	W03
	BYTE		        c_v-7
	BYTE	W02
	BYTE		        c_v-8
	BYTE	W02
	BYTE		        c_v-9
	BYTE	W02
	BYTE		        c_v-10
	BYTE	W02
	BYTE		        c_v-11
	BYTE	W01
	BYTE		        c_v-12
	BYTE	W02
	BYTE		        c_v-13
	BYTE	W01
	BYTE		        c_v-14
	BYTE	W01
	BYTE		        c_v-15
	BYTE	W01
	BYTE		        c_v-16
	BYTE	W01
	BYTE		        c_v-17
	BYTE	W01
	BYTE		        c_v-18
	BYTE	W01
	BYTE		        c_v-19
	BYTE	W01
	BYTE		        c_v-20
	BYTE	W01
	BYTE		        c_v-21
	BYTE	W01
	BYTE		        c_v-23
	BYTE	W01
	BYTE		        c_v-24
	BYTE	W01
	BYTE		        c_v-25
	BYTE	W01
	BYTE		        c_v-27
	BYTE	W01
	BYTE		        c_v-29
	BYTE	W01
// 064   ----------------------------------------
	BYTE		        c_v-30
	BYTE	W01
	BYTE		        c_v+0
	BYTE		N32     An3 
	BYTE		N32     Fn4 
	BYTE	W36
	BYTE		        En4 
	BYTE		N32     Gn4 
	BYTE	W36
	BYTE		        Fn4 
	BYTE		N32     An4 
	BYTE	W23
// 065   ----------------------------------------
	BYTE	PATT
	 POIN2	LockedGirl_7_057
// 066   ----------------------------------------
	BYTE	PATT
	 POIN2	LockedGirl_7_058
// 067   ----------------------------------------
	BYTE	PATT
	 POIN2	LockedGirl_7_059
// 068   ----------------------------------------
	BYTE	PATT
	 POIN2	LockedGirl_7_060
// 069   ----------------------------------------
	BYTE	PATT
	 POIN2	LockedGirl_7_061
// 070   ----------------------------------------
	BYTE	PATT
	 POIN2	LockedGirl_7_062
// 071   ----------------------------------------
	BYTE	W01
	BYTE		BEND    c_v+0
	BYTE		N92     Cs3   v108
	BYTE		N92     An3 
	BYTE		N92     An4 
	BYTE	W36
	BYTE		BEND    c_v-1
	BYTE	W12
	BYTE		        c_v-2
	BYTE	W07
	BYTE		        c_v-3
	BYTE	W05
	BYTE		        c_v-4
	BYTE	W04
	BYTE		        c_v-5
	BYTE	W03
	BYTE		        c_v-6
	BYTE	W03
	BYTE		        c_v-7
	BYTE	W02
	BYTE		        c_v-8
	BYTE	W02
	BYTE		        c_v-9
	BYTE	W02
	BYTE		        c_v-10
	BYTE	W02
	BYTE		        c_v-11
	BYTE	W01
	BYTE		        c_v-12
	BYTE	W02
	BYTE		        c_v-13
	BYTE	W01
	BYTE		        c_v-14
	BYTE	W01
	BYTE		        c_v-15
	BYTE	W01
	BYTE		        c_v-16
	BYTE	W01
	BYTE		        c_v-17
	BYTE	W01
	BYTE		        c_v-18
	BYTE	W01
	BYTE		        c_v-19
	BYTE	W01
	BYTE		        c_v-20
	BYTE	W01
	BYTE		        c_v-21
	BYTE	W01
	BYTE		        c_v-23
	BYTE	W01
	BYTE		        c_v-24
	BYTE	W01
	BYTE	GoTo
	 POIN2	LockedGirl_7_B1
LockedGirl_7_B2:
	BYTE		BEND    c_v-25
	BYTE	W01
	BYTE		        c_v-27
	BYTE	W01
	BYTE		        c_v-29
	BYTE	W01
// 072   ----------------------------------------
	BYTE		        c_v-30
	BYTE	W01
	BYTE		        c_v+0
	BYTE	W92
	BYTE	W03
// 073   ----------------------------------------
	BYTE	W01
	BYTE	FINE

//******************************************************//
	ALIGN 4

songLockedGirl:
	BYTE	7	// NumTrks
	BYTE	0	// NumBlks
	BYTE	LockedGirl_pri	// Priority
	BYTE	LockedGirl_rev	// Reverb.

	POIN2	LockedGirl_grp

	POIN2	LockedGirl_1
	POIN2	LockedGirl_2
	POIN2	LockedGirl_3
	POIN2	LockedGirl_4
	POIN2	LockedGirl_5
	POIN2	LockedGirl_6
	POIN2	LockedGirl_7

	
