//Event file generated from Sappy .s format.
	#include "MPlayDef.event"

	#define	MagicCityofVane_grp  voicegroup000
	#define	MagicCityofVane_pri  10
	#define	MagicCityofVane_rev  0
	#define	MagicCityofVane_mvl  127
	#define	MagicCityofVane_key  0
	#define	MagicCityofVane_tbs  1
	#define	MagicCityofVane_exg  0
	#define	MagicCityofVane_cmp  1

	// .rodata
	//	m
	ALIGN 4


//**************** Track 1 (Midi-Chn.0) ****************//

MagicCityofVane_001:
// 000   ----------------------------------------
MagicCityOfVane_Label_0_00:
MagicCityOfVane_Label_0_00:
 BYTE   KEYSH   MagicCityofVane_key+0
 BYTE   VOICE   52
 BYTE   VOL   45*MagicCityofVane_mvl/mxv
 BYTE   LFOS 44
 BYTE   MODT 0
 BYTE   TEMPO   110*MagicCityofVane_tbs/2
 BYTE   PAN   c_v+0
 BYTE   W05
 BYTE   N03  Fs3  v059
 BYTE   W03
 BYTE   Gs3
 BYTE   W03
 BYTE   As3
 BYTE   W03
 BYTE   Bn3
 BYTE   W03
 BYTE   Cs4
 BYTE   W03
 BYTE   Ds4
 BYTE   W03
 BYTE   En4
 BYTE   W03
 BYTE   N90  Fs4  v085
 BYTE   W92
 BYTE   W01
// 001   ----------------------------------------
 BYTE   N03  Fn4  v027
 BYTE   W03
 BYTE   N22  Fs4  v085
 BYTE   W24
 BYTE   En4
 BYTE   W24
 BYTE   Ds4
 BYTE   W24
 BYTE   En4
 BYTE   W24
// 002   ----------------------------------------
 BYTE   N68  Fs4
 BYTE   W03
 BYTE   N03
 BYTE   W80
 BYTE   N12  Ds4
 BYTE   W12
// 003   ----------------------------------------
 BYTE   En4
 BYTE   W12
 BYTE   Ds4
 BYTE   W12
 BYTE   N22  En4
 BYTE   W24
 BYTE   N32  Cs4
 BYTE   W01
 BYTE   N02
 BYTE   W96
 BYTE   W96
 BYTE   W96
 BYTE   W96
 BYTE   W96
 BYTE   W96
 BYTE   W96
 BYTE   W96
 BYTE   W10
// 004   ----------------------------------------
 BYTE   N12  Fs4  v078
 BYTE   W12
 BYTE   Gs4  v082
 BYTE   W12
 BYTE   As4  v073
 BYTE   W12
 BYTE   N24  As4  v076
 BYTE   W24
 BYTE   N12  Bn4  v084
 BYTE   W12
 BYTE   N24  Gs4  v076
 BYTE   W24
// 005   ----------------------------------------
 BYTE   N12  Cs5  v094
 BYTE   W12
 BYTE   N24  Bn4
 BYTE   W24
 BYTE   As4  v069
 BYTE   W24
 BYTE   N12  Gs4  v072
 BYTE   W12
 BYTE   N24  Fs4  v081
 BYTE   W24
// 006   ----------------------------------------
 BYTE   N12  Ds4  v065
 BYTE   W12
 BYTE   En4  v082
 BYTE   W12
 BYTE   Fs4
 BYTE   W12
 BYTE   N24  Fs4  v087
 BYTE   W24
 BYTE   N12  En4  v078
 BYTE   W12
 BYTE   N24  Gs4  v084
 BYTE   W24
// 007   ----------------------------------------
 BYTE   N12  Gs4  v080
 BYTE   W12
 BYTE   Fs4  v090
 BYTE   W12
 BYTE   En4  v082
 BYTE   W12
 BYTE   N48  Fs4  v098
 BYTE   W60
// 008   ----------------------------------------
 BYTE   N12  Fs4  v094
 BYTE   W12
 BYTE   Gs4  v073
 BYTE   W12
 BYTE   As4  v084
 BYTE   W12
 BYTE   N24  As4  v073
 BYTE   W24
 BYTE   N12  Bn4  v087
 BYTE   W12
 BYTE   N24  Gs4  v073
 BYTE   W24
// 009   ----------------------------------------
 BYTE   N12  Cs5  v094
 BYTE   W12
 BYTE   N24  Bn4  v090
 BYTE   W24
 BYTE   As4  v073
 BYTE   W24
 BYTE   N12  Gs4  v082
 BYTE   W12
 BYTE   N24  Fs4  v078
 BYTE   W24
// 010   ----------------------------------------
 BYTE   N12  Ds4  v072
 BYTE   W12
 BYTE   En4  v081
 BYTE   W12
 BYTE   Fs4
 BYTE   W12
 BYTE   Fs4  v077
 BYTE   W12
 BYTE   N20  En4  v082
 BYTE   W20
 BYTE   N08  Ds4  v068
 BYTE   W08
 BYTE   En4  v088
 BYTE   W08
 BYTE   N72  Bn4
 BYTE   W72
// 011   ----------------------------------------
 BYTE   N24  Gs4  v073
 BYTE   W24
 BYTE   As4  v072
 BYTE   W24
 BYTE   Bn4  v090
 BYTE   W24
 BYTE   N96  Cs5  v081
 BYTE   W04
 BYTE   N44
 BYTE   W02
 BYTE   N02
 BYTE   W96
 BYTE   W96
 BYTE   W96
 BYTE   W96
// 012   ----------------------------------------
 BYTE   W96
 BYTE   W96
 BYTE   W96
 BYTE   W04
// 013   ----------------------------------------
 BYTE   W96
 BYTE   W96
 BYTE   W36
 BYTE   W01
// 014   ----------------------------------------
 BYTE   N24  Bn3  v073
 BYTE   W24
 BYTE   As3
 BYTE   W24
 BYTE   N96  Bn3
 BYTE   W04
 BYTE   Bn3
 BYTE   W96
 BYTE   W90
// 015   ----------------------------------------
 BYTE   W01
 BYTE   W96
 BYTE   W56
 BYTE   W02
// 016   ----------------------------------------
 BYTE   W36
 BYTE   W01
// 017   ----------------------------------------
 BYTE   GoTo
  POIN2 MagicCityOfVane_Label_0_00
 BYTE   FINE

//**************** Track 2 (Midi-Chn.1) ****************//

MagicCityofVane_002:
// 000   ----------------------------------------
MagicCityOfVane_Label_1_00:
MagicCityOfVane_Label_1_00:
 BYTE   KEYSH   MagicCityofVane_key+0
 BYTE   VOICE   14
 BYTE   VOL   37*MagicCityofVane_mvl/mxv
 BYTE   LFOS 44
 BYTE   MODT 0
 BYTE   TEMPO   110*MagicCityofVane_tbs/2
 BYTE   PAN   c_v+0
 BYTE   W96
 BYTE   W96
 BYTE   W96
 BYTE   W84
 BYTE   W02
// 001   ----------------------------------------
 BYTE   N12  Fs3  v069
 BYTE   W12
 BYTE   Bn3  v097
 BYTE   W12
 BYTE   Cs4
 BYTE   W12
 BYTE   N24  Cs4  v072
 BYTE   W24
 BYTE   N12  Bn3  v073
 BYTE   W12
 BYTE   N96  Ds4  v072
 BYTE   W04
 BYTE   N12
 BYTE   W96
 BYTE   W19
// 002   ----------------------------------------
 BYTE   Gs3  v076
 BYTE   W12
 BYTE   Cs4  v088
 BYTE   W12
 BYTE   Ds4  v073
 BYTE   W12
 BYTE   N24  Ds4  v072
 BYTE   W24
 BYTE   N12  En4  v078
 BYTE   W12
 BYTE   N96  Cs4  v070
 BYTE   W04
 BYTE   N12
 BYTE   W96
 BYTE   W19
// 003   ----------------------------------------
 BYTE   Fs3  v081
 BYTE   W12
 BYTE   Fs4  v098
 BYTE   W12
 BYTE   En4  v091
 BYTE   W12
 BYTE   N24  Ds4  v073
 BYTE   W24
 BYTE   N12  Cs4  v078
 BYTE   W12
 BYTE   N96  Ds4  v073
 BYTE   W04
 BYTE   N12
 BYTE   W96
 BYTE   W19
// 004   ----------------------------------------
 BYTE   Gs3  v072
 BYTE   W12
 BYTE   Cs4  v082
 BYTE   W12
 BYTE   Ds4  v065
 BYTE   W12
 BYTE   N24  Ds4  v068
 BYTE   W24
 BYTE   N12  En4  v077
 BYTE   W12
 BYTE   N96  Cs4  v073
 BYTE   W04
 BYTE   N12
 BYTE   W96
 BYTE   W96
 BYTE   W96
 BYTE   W96
// 005   ----------------------------------------
 BYTE   W96
 BYTE   W96
 BYTE   W96
 BYTE   W96
 BYTE   W96
 BYTE   W96
 BYTE   W96
 BYTE   W96
 BYTE   W96
 BYTE   W96
 BYTE   W96
 BYTE   W96
 BYTE   W66
// 006   ----------------------------------------
 BYTE   W96
 BYTE   W96
 BYTE   W96
 BYTE   W96
 BYTE   W84
// 007   ----------------------------------------
 BYTE   W01
 BYTE   W96
 BYTE   W56
 BYTE   W02
// 008   ----------------------------------------
 BYTE   W02
 BYTE   N12  Fs3  v069
 BYTE   W12
 BYTE   Bn3  v097
 BYTE   W12
 BYTE   N11  Cs4
 BYTE   W10
 BYTE   W01
// 009   ----------------------------------------
 BYTE   GoTo
  POIN2 MagicCityOfVane_Label_1_00
 BYTE   FINE

//**************** Track 3 (Midi-Chn.2) ****************//

MagicCityofVane_003:
// 000   ----------------------------------------
MagicCityOfVane_Label_2_00:
MagicCityOfVane_Label_2_00:
 BYTE   KEYSH   MagicCityofVane_key+0
 BYTE   VOICE   8
 BYTE   VOL   45*MagicCityofVane_mvl/mxv
 BYTE   LFOS 44
 BYTE   MODT 0
 BYTE   TEMPO   110*MagicCityofVane_tbs/2
 BYTE   PAN   c_v-36
 BYTE   W24
 BYTE   W02
 BYTE   N92  Bn2  v041
 BYTE   N92  Ds3
 BYTE   W04
 BYTE   N03  Bn2
 BYTE   N03  Ds3
 BYTE   W90
 BYTE   W01
// 001   ----------------------------------------
 BYTE   N90  Cs3
 BYTE   N90  En3
 BYTE   W96
// 002   ----------------------------------------
 BYTE   N92  Ds3
 BYTE   N92  Fs3
 BYTE   W04
 BYTE   N03  Ds3
 BYTE   N03  Fs3
 BYTE   W90
 BYTE   W01
// 003   ----------------------------------------
 BYTE   N44  Cs3
 BYTE   N44  En3
 BYTE   W02
 BYTE   N01  Cs3
 BYTE   N01  En3
 BYTE   W44
 BYTE   W01
 BYTE   N44  Cs3
 BYTE   N44  En3
 BYTE   W02
 BYTE   N02  Cs3
 BYTE   N02  En3
 BYTE   W96
 BYTE   W96
 BYTE   W96
 BYTE   W96
 BYTE   W96
 BYTE   W96
 BYTE   W96
 BYTE   W96
 BYTE   W09
// 004   ----------------------------------------
 BYTE   N12  Fs3  v065
 BYTE   W12
 BYTE   Gs3  v069
 BYTE   W12
 BYTE   As3  v060
 BYTE   W12
 BYTE   N24  As3  v063
 BYTE   W24
 BYTE   N12  Bn3  v070
 BYTE   W12
 BYTE   N24  Gs3  v063
 BYTE   W24
// 005   ----------------------------------------
 BYTE   N12  Cs4  v080
 BYTE   W12
 BYTE   N24  Bn3
 BYTE   W24
 BYTE   As3  v056
 BYTE   W24
 BYTE   N12  Gs3  v059
 BYTE   W12
 BYTE   N24  Fs3  v068
 BYTE   W24
// 006   ----------------------------------------
 BYTE   N12  Ds3  v053
 BYTE   W12
 BYTE   En3  v069
 BYTE   W12
 BYTE   Fs3
 BYTE   W12
 BYTE   N24  Fs3  v073
 BYTE   W24
 BYTE   N12  En3  v065
 BYTE   W12
 BYTE   N24  Gs3  v070
 BYTE   W24
// 007   ----------------------------------------
 BYTE   N12  Gs3  v066
 BYTE   W12
 BYTE   Fs3  v076
 BYTE   W12
 BYTE   En3  v069
 BYTE   W12
 BYTE   N48  Fs3  v084
 BYTE   W60
// 008   ----------------------------------------
 BYTE   N12  Fs3  v080
 BYTE   W12
 BYTE   Gs3  v060
 BYTE   W12
 BYTE   As3  v070
 BYTE   W12
 BYTE   N24  As3  v060
 BYTE   W24
 BYTE   N12  Bn3  v073
 BYTE   W12
 BYTE   N24  Gs3  v060
 BYTE   W24
// 009   ----------------------------------------
 BYTE   N12  Cs4  v080
 BYTE   W12
 BYTE   N24  Bn3  v076
 BYTE   W24
 BYTE   As3  v060
 BYTE   W24
 BYTE   N12  Gs3  v069
 BYTE   W12
 BYTE   N24  Fs3  v065
 BYTE   W24
// 010   ----------------------------------------
 BYTE   N12  Ds3  v059
 BYTE   W12
 BYTE   En3  v068
 BYTE   W12
 BYTE   Fs3
 BYTE   W12
 BYTE   Fs3  v064
 BYTE   W12
 BYTE   N20  En3  v069
 BYTE   W20
 BYTE   N08  Ds3  v055
 BYTE   W08
 BYTE   En3  v074
 BYTE   W08
 BYTE   N64  Gs3
 BYTE   N64  Bn3
 BYTE   W72
// 011   ----------------------------------------
 BYTE   N24  En3  v060
 BYTE   N24  Gs3
 BYTE   W24
 BYTE   En3  v059
 BYTE   N24  As3
 BYTE   W24
 BYTE   En3  v076
 BYTE   N24  Bn3
 BYTE   W24
 BYTE   N96  Bn3  v068
 BYTE   N96  En3
 BYTE   W96
// 012   ----------------------------------------
 BYTE   N44  As3
 BYTE   N44  Fs3
 BYTE   W02
 BYTE   N02  As3
 BYTE   N02  Fs3
 BYTE   W96
 BYTE   W96
 BYTE   W96
 BYTE   W96
 BYTE   W96
 BYTE   W96
 BYTE   W08
// 013   ----------------------------------------
 BYTE   W96
 BYTE   W96
 BYTE   W84
 BYTE   W01
// 014   ----------------------------------------
 BYTE   N92  Bn2  v041
 BYTE   N92  Ds3
 BYTE   W04
 BYTE   N03  Bn2
 BYTE   N03  Ds3
 BYTE   W90
 BYTE   W01
// 015   ----------------------------------------
 BYTE   N90  Cs3
 BYTE   N90  En3
 BYTE   W92
 BYTE   W03
 BYTE   W01
// 016   ----------------------------------------
 BYTE   N92  Ds3  v041
 BYTE   N92  Fs3
 BYTE   W04
 BYTE   N03  Ds3  v041
 BYTE   N03  Fs3
 BYTE   W90
 BYTE   W01
// 017   ----------------------------------------
 BYTE   N44  Cs3
 BYTE   N44  En3
 BYTE   W02
 BYTE   N01  Cs3
 BYTE   N01  En3
 BYTE   W44
 BYTE   W01
 BYTE   N44  Cs3
 BYTE   N44  En3
 BYTE   W02
 BYTE   N02  Cs3
 BYTE   N02  En3
 BYTE   W07
 BYTE   W36
 BYTE   W01
// 018   ----------------------------------------
 BYTE   GoTo
  POIN2 MagicCityOfVane_Label_2_00
 BYTE   FINE

//**************** Track 4 (Midi-Chn.3) ****************//

MagicCityofVane_004:
// 000   ----------------------------------------
MagicCityOfVane_Label_3_00:
MagicCityOfVane_Label_3_00:
 BYTE   KEYSH   MagicCityofVane_key+0
 BYTE   VOICE   49
 BYTE   VOL   36*MagicCityofVane_mvl/mxv
 BYTE   LFOS 44
 BYTE   MODT 0
 BYTE   TEMPO   110*MagicCityofVane_tbs/2
 BYTE   PAN   c_v+50
 BYTE   W48
 BYTE   W02
 BYTE   N12  Ds3  v085
 BYTE   N12  Fs3
 BYTE   N12  Bn2
 BYTE   N12  Bn1
 BYTE   N12  Fs2
 BYTE   W36
 BYTE   Ds3
 BYTE   N12  Fs3
 BYTE   N12  Bn2
 BYTE   N12  Bn1
 BYTE   N12  Fs2
 BYTE   W60
// 001   ----------------------------------------
 BYTE   En3
 BYTE   N12  Gs2
 BYTE   W36
 BYTE   En3
 BYTE   N12  Gs2
 BYTE   N12  Cs2
 BYTE   W60
// 002   ----------------------------------------
 BYTE   Fs3
 BYTE   N12  As2
 BYTE   W36
 BYTE   Fs3
 BYTE   N12  As2
 BYTE   N12  Ds2
 BYTE   W60
// 003   ----------------------------------------
 BYTE   En3
 BYTE   N12  Gs2
 BYTE   W23
 BYTE   N48  Fs1
 BYTE   W01
 BYTE   Cs2
 BYTE   W01
 BYTE   Fs2
 BYTE   As2
 BYTE   N48  Cs3
 BYTE   Fs3
 BYTE   W44
 BYTE   W01
 BYTE   N11  Bn1
 BYTE   W12
 BYTE   Fs2
 BYTE   W12
// 004   ----------------------------------------
MagicCityOfVane_Label_3_21FD:
 BYTE   N11  Bn2  v085
 BYTE   W12
 BYTE   N23  Ds3
 BYTE   W24
 BYTE   N11  Fs2
 BYTE   W12
 BYTE   Bn2
 BYTE   W36
 BYTE   Bn2
 BYTE   W12
 BYTE   PEND 
// 005   ----------------------------------------
MagicCityOfVane_Label_3_297D:
 BYTE   N11  Fs2  v085
 BYTE   W12
 BYTE   N23  Bn1
 BYTE   W24
 BYTE   N11  Fs2
 BYTE   W12
 BYTE   Bn2
 BYTE   W12
 BYTE   Fs2
 BYTE   W12
 BYTE   Cs2
 BYTE   W12
 BYTE   Gs2
 BYTE   W12
 BYTE   PEND 
// 006   ----------------------------------------
MagicCityOfVane_Label_3_30FD:
 BYTE   N11  Cs3  v085
 BYTE   W12
 BYTE   N23  En3
 BYTE   W24
 BYTE   N11  Gs2
 BYTE   W12
 BYTE   Cs3
 BYTE   W12
 BYTE   En3
 BYTE   W12
 BYTE   Fs1
 BYTE   W12
 BYTE   As2
 BYTE   W12
 BYTE   PEND 
// 007   ----------------------------------------
MagicCityOfVane_Label_3_387D:
 BYTE   N11  Cs3  v085
 BYTE   W12
 BYTE   N23  Fs3
 BYTE   W24
 BYTE   N11  As2
 BYTE   W12
 BYTE   Cs3
 BYTE   W12
 BYTE   En3
 BYTE   W12
 BYTE   Bn1
 BYTE   W12
 BYTE   Fs2
 BYTE   W12
 BYTE   PEND 
 BYTE   PATT
  POIN2 MagicCityOfVane_Label_3_21FD
 BYTE   PATT
  POIN2 MagicCityOfVane_Label_3_297D
 BYTE   PATT
  POIN2 MagicCityOfVane_Label_3_30FD
// 008   ----------------------------------------
 BYTE   N11  Cs3  v085
 BYTE   W12
 BYTE   N32  Fs3
 BYTE   W01
 BYTE   N02
 BYTE   W32
 BYTE   W02
 BYTE   N22  Cs3
 BYTE   N22  Fs3
 BYTE   N22  As2
 BYTE   N22  Fs1
 BYTE   N22  Fs2
 BYTE   W24
 BYTE   En2
 BYTE   W24
// 009   ----------------------------------------
MagicCityOfVane_Label_3_5DFD:
 BYTE   N12  En3  v085
 BYTE   N12  Gs3
 BYTE   N12  Bn2
 BYTE   N12  En2
 BYTE   N12  Gs2
 BYTE   W36
 BYTE   En3
 BYTE   N12  Gs3
 BYTE   N12  Bn2
 BYTE   N12  En2
 BYTE   N12  Gs2
 BYTE   W24
 BYTE   N11  En2
 BYTE   W12
 BYTE   N22  Ds2
 BYTE   W24
 BYTE   PEND 
// 010   ----------------------------------------
MagicCityOfVane_Label_3_657D:
 BYTE   N12  Ds3  v085
 BYTE   N12  Fs3
 BYTE   N12  Cs3
 BYTE   N12  Ds2
 BYTE   N12  As2
 BYTE   W36
 BYTE   Ds3
 BYTE   N12  Fs3
 BYTE   N12  Cs3
 BYTE   N12  Ds2
 BYTE   N12  As2
 BYTE   W24
 BYTE   N11  Ds2
 BYTE   W12
 BYTE   N22  Cs2
 BYTE   W24
 BYTE   PEND 
// 011   ----------------------------------------
 BYTE   N12  En3  v085
 BYTE   N12  Gs3
 BYTE   N12  Bn2
 BYTE   N12  Cs2
 BYTE   N12  Gs2
 BYTE   W36
 BYTE   En3
 BYTE   N12  Gs3
 BYTE   N12  Bn2
 BYTE   N12  Cs2
 BYTE   N12  Gs2
 BYTE   W24
 BYTE   N11  Cs2
 BYTE   W12
 BYTE   N22  Bn1
 BYTE   W24
// 012   ----------------------------------------
 BYTE   N12  Ds3
 BYTE   N12  Fs3
 BYTE   N12  Bn2
 BYTE   N12  Cs2
 BYTE   N12  Fs2
 BYTE   W36
 BYTE   Ds3
 BYTE   N12  Fs3
 BYTE   N12  Bn2
 BYTE   N12  Bn1
 BYTE   N12  Fs2
 BYTE   W24
 BYTE   N11  Bn1
 BYTE   W12
 BYTE   N22  En2
 BYTE   W24
 BYTE   PATT
  POIN2 MagicCityOfVane_Label_3_5DFD
 BYTE   PATT
  POIN2 MagicCityOfVane_Label_3_657D
// 013   ----------------------------------------
 BYTE   N12  En3  v085
 BYTE   N12  Gs3
 BYTE   N12  Bn2
 BYTE   N12  Cs2
 BYTE   N12  Gs2
 BYTE   W36
 BYTE   En3
 BYTE   N12  Gs3
 BYTE   N12  Bn2
 BYTE   N12  Cs2
 BYTE   N12  Gs2
 BYTE   W24
 BYTE   N11  Cs2
 BYTE   W12
 BYTE   N22
 BYTE   W24
// 014   ----------------------------------------
 BYTE   N12  En3
 BYTE   N12  Gs3
 BYTE   N12  Bn2
 BYTE   N12  Cs2
 BYTE   N12  Gs2
 BYTE   W36
 BYTE   En3
 BYTE   N12  Gs3
 BYTE   N12  Bn2
 BYTE   N12  Cs2
 BYTE   N12  Gs2
 BYTE   W24
 BYTE   N11  Cs2
 BYTE   W12
 BYTE   N22  Fs1
 BYTE   W24
// 015   ----------------------------------------
 BYTE   N12  Cs3
 BYTE   N12  Fs3
 BYTE   N12  Bn2
 BYTE   N12  Fs1
 BYTE   N12  Fs2
 BYTE   W36
 BYTE   Cs3
 BYTE   N12  Fs3
 BYTE   N12  Bn2
 BYTE   N12  Fs1
 BYTE   N12  Fs2
 BYTE   W24
 BYTE   N11  Cs2
 BYTE   W12
 BYTE   N22  Fs1
 BYTE   W24
// 016   ----------------------------------------
 BYTE   N12  En3
 BYTE   N12  Fs3
 BYTE   N12  As2
 BYTE   N12  Fs1
 BYTE   N12  Fs2
 BYTE   W23
 BYTE   N44  Fs1
 BYTE   W01
 BYTE   Cs2
 BYTE   N02  Fs1
 BYTE   N44  Fs2
 BYTE   N02  Cs2
 BYTE   N44  As2
 BYTE   N44  En3
 BYTE   Fs3
 BYTE   N02  Fs2
 BYTE   W01
 BYTE   As2
 BYTE   N02  En3
 BYTE   Fs3
 BYTE   W40
 BYTE   W01
 BYTE   N11  Bn1
 BYTE   W12
 BYTE   Fs2
 BYTE   W12
 BYTE   PATT
  POIN2 MagicCityOfVane_Label_3_21FD
 BYTE   PATT
  POIN2 MagicCityOfVane_Label_3_297D
 BYTE   PATT
  POIN2 MagicCityOfVane_Label_3_30FD
 BYTE   PATT
  POIN2 MagicCityOfVane_Label_3_387D
// 017   ----------------------------------------
 BYTE   N11  Bn2  v085
 BYTE   W12
 BYTE   N23  Ds3
 BYTE   W24
 BYTE   N11  Fs2
 BYTE   W12
 BYTE   Bn2
 BYTE   W32
 BYTE   W03
 BYTE   W01
 BYTE   N11  Bn2  v085
 BYTE   W12
 BYTE   PATT
  POIN2 MagicCityOfVane_Label_3_297D
 BYTE   PATT
  POIN2 MagicCityOfVane_Label_3_30FD
// 018   ----------------------------------------
 BYTE   N22  Cs3  v085
 BYTE   W23
 BYTE   N48  Fs1
 BYTE   W01
 BYTE   Cs2
 BYTE   W01
 BYTE   Fs2
 BYTE   As2
 BYTE   N48  Cs3
 BYTE   Fs3
 BYTE   W68
 BYTE   W01
// 019   ----------------------------------------
 BYTE   N12  Ds3
 BYTE   N12  Fs3
 BYTE   N12  Bn2
 BYTE   N12  Bn1
 BYTE   N12  Fs2
 BYTE   W36
 BYTE   Ds3
 BYTE   N12  Fs3
 BYTE   N12  Bn2
 BYTE   N12  Bn1
 BYTE   N12  Fs2
 BYTE   W60
// 020   ----------------------------------------
 BYTE   En3
 BYTE   N12  Gs3
 BYTE   N12  Cs3
 BYTE   N12  Cs2
 BYTE   N12  Gs2
 BYTE   W36
 BYTE   En3
 BYTE   N12  Gs3
 BYTE   N12  Cs3
 BYTE   N12  Cs2
 BYTE   N12  Gs2
 BYTE   W32
 BYTE   W03
 BYTE   W01
 BYTE   W24
// 021   ----------------------------------------
 BYTE   N12  Fs3  v085
 BYTE   N12  As3
 BYTE   N12  Ds3
 BYTE   N12  Ds2
 BYTE   N12  As2
 BYTE   W36
 BYTE   Fs3
 BYTE   N12  As3
 BYTE   N12  Ds3
 BYTE   N12  Ds2
 BYTE   N12  As2
 BYTE   W60
// 022   ----------------------------------------
 BYTE   En3
 BYTE   N12  Gs3
 BYTE   N12  Cs3
 BYTE   N12  Cs2
 BYTE   N12  Gs2
 BYTE   W23
 BYTE   N48  Fs1
 BYTE   W01
 BYTE   N44  Cs2
 BYTE   W01
 BYTE   Fs2
 BYTE   As2
 BYTE   N44  Cs3
 BYTE   N02  Cs2
 BYTE   N44  Fs3
 BYTE   N01  Fs2
 BYTE   As2
 BYTE   W05
 BYTE   W36
 BYTE   W01
// 023   ----------------------------------------
 BYTE   GoTo
  POIN2 MagicCityOfVane_Label_3_00
 BYTE   FINE

//**************** Track 5 (Midi-Chn.4) ****************//

MagicCityofVane_005:
// 000   ----------------------------------------
MagicCityOfVane_Label_4_00:
MagicCityOfVane_Label_4_00:
 BYTE   KEYSH   MagicCityofVane_key+0
 BYTE   VOICE   85
 BYTE   VOL   41*MagicCityofVane_mvl/mxv
 BYTE   LFOS 44
 BYTE   MODT 0
 BYTE   TEMPO   110*MagicCityofVane_tbs/2
 BYTE   PAN   c_v-30
 BYTE   W36
 BYTE   W02
 BYTE   N10  Fs3  v065
 BYTE   W12
 BYTE   Bn3  v073
 BYTE   W12
 BYTE   Fs3  v065
 BYTE   W12
 BYTE   Ds4  v078
 BYTE   W12
 BYTE   Fs3  v042
 BYTE   W12
// 001   ----------------------------------------
 BYTE   Bn3  v070
 BYTE   W12
 BYTE   Fs3  v046
 BYTE   W24
 BYTE   Gs3  v068
 BYTE   W12
 BYTE   Cs4  v080
 BYTE   W12
 BYTE   Gs3  v052
 BYTE   W12
 BYTE   En4  v087
 BYTE   W12
 BYTE   Gs3  v046
 BYTE   W12
// 002   ----------------------------------------
 BYTE   Cs4  v082
 BYTE   W12
 BYTE   Gs3  v068
 BYTE   W24
 BYTE   As3  v080
 BYTE   W12
 BYTE   Ds4  v064
 BYTE   W12
 BYTE   As3  v073
 BYTE   W12
 BYTE   Fs4  v087
 BYTE   W12
 BYTE   As3  v065
 BYTE   W12
// 003   ----------------------------------------
 BYTE   Ds4  v063
 BYTE   W12
 BYTE   As3  v076
 BYTE   W24
 BYTE   Gs3  v065
 BYTE   W12
 BYTE   Cs4  v063
 BYTE   W12
 BYTE   Gs3  v055
 BYTE   W12
 BYTE   En4  v094
 BYTE   W60
// 004   ----------------------------------------
MagicCityOfVane_Label_4_210D:
 BYTE   N10  Fs3  v065
 BYTE   W12
 BYTE   Bn3  v073
 BYTE   W12
 BYTE   Fs3  v065
 BYTE   W12
 BYTE   Ds4  v078
 BYTE   W12
 BYTE   Fs3  v042
 BYTE   W12
 BYTE   Bn3  v070
 BYTE   W12
 BYTE   Fs3  v046
 BYTE   W24
 BYTE   PEND 
 BYTE   PATT
  POIN2 MagicCityOfVane_Label_4_210D
// 005   ----------------------------------------
MagicCityOfVane_Label_4_300D:
 BYTE   N10  Gs3  v068
 BYTE   W12
 BYTE   Cs4  v080
 BYTE   W12
 BYTE   Gs3  v052
 BYTE   W12
 BYTE   En4  v087
 BYTE   W12
 BYTE   Gs3  v046
 BYTE   W12
 BYTE   Cs4  v082
 BYTE   W12
 BYTE   Gs3  v068
 BYTE   W24
 BYTE   PEND 
// 006   ----------------------------------------
 BYTE   N10  Fs3  v065
 BYTE   W12
 BYTE   As3  v073
 BYTE   W12
 BYTE   Fs3  v065
 BYTE   W12
 BYTE   Cs4  v078
 BYTE   W12
 BYTE   Fs3  v042
 BYTE   W12
 BYTE   As3  v070
 BYTE   W12
 BYTE   Fs3  v046
 BYTE   W24
 BYTE   PATT
  POIN2 MagicCityOfVane_Label_4_210D
 BYTE   PATT
  POIN2 MagicCityOfVane_Label_4_210D
 BYTE   PATT
  POIN2 MagicCityOfVane_Label_4_300D
// 007   ----------------------------------------
 BYTE   N10  Fs3  v065
 BYTE   W12
 BYTE   As3  v073
 BYTE   W12
 BYTE   Fs3  v065
 BYTE   W12
 BYTE   Cs4  v078
 BYTE   W12
 BYTE   Fs3  v042
 BYTE   W12
 BYTE   As3  v070
 BYTE   W12
 BYTE   Fs3  v046
 BYTE   W96
 BYTE   W96
 BYTE   W96
 BYTE   W96
 BYTE   W96
// 008   ----------------------------------------
 BYTE   W96
 BYTE   W96
 BYTE   W96
 BYTE   W96
 BYTE   W96
 BYTE   W96
 BYTE   W96
 BYTE   W96
 BYTE   W96
 BYTE   W96
 BYTE   W23
// 009   ----------------------------------------
 BYTE   W96
 BYTE   W96
 BYTE   W96
 BYTE   W01
 BYTE   PATT
  POIN2 MagicCityOfVane_Label_4_210D
// 010   ----------------------------------------
 BYTE   N10  Gs3  v068
 BYTE   W12
 BYTE   Cs4  v080
 BYTE   W12
 BYTE   Gs3  v052
 BYTE   W12
 BYTE   En4  v087
 BYTE   W12
 BYTE   Gs3  v046
 BYTE   W12
 BYTE   Cs4  v082
 BYTE   W12
 BYTE   Gs3  v068
 BYTE   W11
 BYTE   W01
 BYTE   W12
// 011   ----------------------------------------
 BYTE   N10  As3  v080
 BYTE   W12
 BYTE   Ds4  v064
 BYTE   W12
 BYTE   As3  v073
 BYTE   W12
 BYTE   Fs4  v087
 BYTE   W12
 BYTE   As3  v065
 BYTE   W12
 BYTE   Ds4  v063
 BYTE   W12
 BYTE   As3  v076
 BYTE   W24
// 012   ----------------------------------------
 BYTE   Gs3  v065
 BYTE   W12
 BYTE   Cs4  v063
 BYTE   W12
 BYTE   Gs3  v055
 BYTE   W12
 BYTE   En4  v094
 BYTE   W10
 BYTE   W36
 BYTE   W01
// 013   ----------------------------------------
 BYTE   GoTo
  POIN2 MagicCityOfVane_Label_4_00
 BYTE   FINE

//**************** Track 6 (Midi-Chn.5) ****************//

MagicCityofVane_006:
// 000   ----------------------------------------
MagicCityOfVane_Label_5_00:
MagicCityOfVane_Label_5_00:
 BYTE   KEYSH   MagicCityofVane_key+0
 BYTE   VOICE   20
 BYTE   VOL   46*MagicCityofVane_mvl/mxv
 BYTE   LFOS 44
 BYTE   MODT 0
 BYTE   TEMPO   110*MagicCityofVane_tbs/2
 BYTE   PAN   c_v-20
 BYTE   W96
 BYTE   W96
 BYTE   W96
 BYTE   W96
 BYTE   W96
 BYTE   W96
 BYTE   W96
 BYTE   W96
 BYTE   W96
 BYTE   W96
 BYTE   W96
 BYTE   W96
 BYTE   W24
 BYTE   W02
// 001   ----------------------------------------
MagicCityOfVane_Label_5_5C1D:
 BYTE   N92  Gs3  v041
 BYTE   W04
 BYTE   N03
 BYTE   W90
 BYTE   W01
 BYTE   PEND 
// 002   ----------------------------------------
MagicCityOfVane_Label_5_639D:
 BYTE   N92  Fs3  v041
 BYTE   W04
 BYTE   N03
 BYTE   W90
 BYTE   W01
 BYTE   PEND 
 BYTE   PATT
  POIN2 MagicCityOfVane_Label_5_5C1D
 BYTE   PATT
  POIN2 MagicCityOfVane_Label_5_639D
 BYTE   PATT
  POIN2 MagicCityOfVane_Label_5_5C1D
 BYTE   PATT
  POIN2 MagicCityOfVane_Label_5_639D
 BYTE   PATT
  POIN2 MagicCityOfVane_Label_5_5C1D
 BYTE   PATT
  POIN2 MagicCityOfVane_Label_5_5C1D
 BYTE   PATT
  POIN2 MagicCityOfVane_Label_5_639D
 BYTE   PATT
  POIN2 MagicCityOfVane_Label_5_639D
// 003   ----------------------------------------
MagicCityOfVane_Label_5_A71D:
 BYTE   N44  Ds4  v041
 BYTE   W02
 BYTE   N02
 BYTE   W44
 BYTE   W01
 BYTE   N44  Bn3
 BYTE   W02
 BYTE   N02
 BYTE   W44
 BYTE   W01
 BYTE   PEND 
// 004   ----------------------------------------
 BYTE   N22  Fs4  v041
 BYTE   W24
 BYTE   N11  En4
 BYTE   W12
 BYTE   N56  Ds4
 BYTE   W02
 BYTE   N02
 BYTE   W56
 BYTE   W01
// 005   ----------------------------------------
MagicCityOfVane_Label_5_B61D:
 BYTE   N44  Cs4  v041
 BYTE   W02
 BYTE   N02
 BYTE   W44
 BYTE   W01
 BYTE   N44  Gs3
 BYTE   W02
 BYTE   N02
 BYTE   W44
 BYTE   W01
 BYTE   PEND 
// 006   ----------------------------------------
 BYTE   N22  Bn3  v041
 BYTE   W24
 BYTE   N11  As3
 BYTE   W12
 BYTE   N23
 BYTE   W24
 BYTE   N11  Bn3
 BYTE   W12
 BYTE   N22  Cs4
 BYTE   W24
 BYTE   PATT
  POIN2 MagicCityOfVane_Label_5_A71D
// 007   ----------------------------------------
 BYTE   N22  Fs4  v041
 BYTE   W11
 BYTE   W13
 BYTE   N11  En4  v041
 BYTE   W12
 BYTE   N56  Ds4
 BYTE   W02
 BYTE   N02
 BYTE   W56
 BYTE   W01
 BYTE   PATT
  POIN2 MagicCityOfVane_Label_5_B61D
// 008   ----------------------------------------
 BYTE   N22  Bn3  v041
 BYTE   W24
 BYTE   As3
 BYTE   W24
 BYTE   Gs3
 BYTE   W24
 BYTE   As3
 BYTE   W24
// 009   ----------------------------------------
 BYTE   N96  Bn3
 BYTE   W04
 BYTE   N92
 BYTE   W04
 BYTE   N03
 BYTE   W96
 BYTE   W84
 BYTE   W01
// 010   ----------------------------------------
 BYTE   W01
 BYTE   W96
 BYTE   W56
 BYTE   W02
// 011   ----------------------------------------
 BYTE   W36
 BYTE   W01
// 012   ----------------------------------------
 BYTE   GoTo
  POIN2 MagicCityOfVane_Label_5_00
 BYTE   FINE

//**************** Track 7 (Midi-Chn.6) ****************//

MagicCityofVane_007:
// 000   ----------------------------------------
MagicCityOfVane_Label_6_00:
MagicCityOfVane_Label_6_00:
 BYTE   KEYSH   MagicCityofVane_key+0
 BYTE   VOICE   20
 BYTE   VOL   41*MagicCityofVane_mvl/mxv
 BYTE   LFOS 44
 BYTE   MODT 0
 BYTE   TEMPO   110*MagicCityofVane_tbs/2
 BYTE   PAN   c_v+0
 BYTE   W96
 BYTE   W96
 BYTE   W96
 BYTE   W72
 BYTE   W02
// 001   ----------------------------------------
 BYTE   N44  Fs0  v085
 BYTE   W02
 BYTE   N02
 BYTE   W44
 BYTE   W01
 BYTE   N28  Bn0
 BYTE   W36
 BYTE   N36
 BYTE   W48
// 002   ----------------------------------------
MagicCityOfVane_Label_6_26AD:
 BYTE   N11  Fs0  v085
 BYTE   W12
 BYTE   N28  Bn0
 BYTE   W36
 BYTE   N36
 BYTE   W48
 BYTE   PEND 
// 003   ----------------------------------------
 BYTE   N11  Bn0  v085
 BYTE   W12
 BYTE   N28  Cs1
 BYTE   W36
 BYTE   N36
 BYTE   W48
// 004   ----------------------------------------
 BYTE   N11  Gs0
 BYTE   W12
 BYTE   N28  Fs0
 BYTE   W36
 BYTE   N36
 BYTE   W48
 BYTE   PATT
  POIN2 MagicCityOfVane_Label_6_26AD
 BYTE   PATT
  POIN2 MagicCityOfVane_Label_6_26AD
// 005   ----------------------------------------
 BYTE   N06  Bn0  v085
 BYTE   W06
 BYTE   Cn1
 BYTE   W06
 BYTE   N28  Cs1
 BYTE   W36
 BYTE   N36
 BYTE   W48
// 006   ----------------------------------------
 BYTE   N06  Gs0
 BYTE   W06
 BYTE   Gn0
 BYTE   W06
 BYTE   N36  Fs0
 BYTE   W36
 BYTE   N05  Bn0
 BYTE   W06
 BYTE   Cs1
 BYTE   W06
 BYTE   N22  Fs1
 BYTE   W24
 BYTE   Fn1
 BYTE   W24
// 007   ----------------------------------------
MagicCityOfVane_Label_6_5C1D:
 BYTE   N32  En1  v085
 BYTE   W01
 BYTE   N02
 BYTE   W32
 BYTE   W02
 BYTE   N32  Bn0
 BYTE   W01
 BYTE   N02
 BYTE   W32
 BYTE   W02
 BYTE   N22  En1
 BYTE   W24
 BYTE   PEND 
// 008   ----------------------------------------
 BYTE   N32  Ds1  v085
 BYTE   W01
 BYTE   N02
 BYTE   W32
 BYTE   W02
 BYTE   N32  As1
 BYTE   W01
 BYTE   N02
 BYTE   W32
 BYTE   W02
 BYTE   N22  Ds1
 BYTE   W24
// 009   ----------------------------------------
 BYTE   N32  Cs1
 BYTE   W01
 BYTE   N02
 BYTE   W32
 BYTE   W02
 BYTE   N32  Gs1
 BYTE   W01
 BYTE   N02
 BYTE   W32
 BYTE   W02
 BYTE   N22  Cs1
 BYTE   W24
// 010   ----------------------------------------
 BYTE   Bn0
 BYTE   W24
 BYTE   Cs1
 BYTE   W24
 BYTE   Ds1
 BYTE   W24
 BYTE   Fs1
 BYTE   W24
 BYTE   PATT
  POIN2 MagicCityOfVane_Label_6_5C1D
// 011   ----------------------------------------
 BYTE   N32  Ds1  v085
 BYTE   W01
 BYTE   N02
 BYTE   W32
 BYTE   W02
 BYTE   N32  As0
 BYTE   W01
 BYTE   N02
 BYTE   W32
 BYTE   W02
 BYTE   N22  Ds1
 BYTE   W24
// 012   ----------------------------------------
 BYTE   N32  Cs1
 BYTE   W01
 BYTE   N02
 BYTE   W32
 BYTE   W02
 BYTE   N32
 BYTE   W01
 BYTE   N02
 BYTE   W44
 BYTE   W02
 BYTE   N11  Gs1
 BYTE   W12
// 013   ----------------------------------------
 BYTE   N06  Cs2
 BYTE   W06
 BYTE   Gs1
 BYTE   W06
 BYTE   N22  Cs1
 BYTE   W24
 BYTE   N32
 BYTE   W01
 BYTE   N02
 BYTE   W44
 BYTE   W02
 BYTE   N11
 BYTE   W12
// 014   ----------------------------------------
 BYTE   N28  Fs1
 BYTE   W36
 BYTE   N32
 BYTE   W01
 BYTE   N02
 BYTE   W44
 BYTE   W02
// 015   ----------------------------------------
 BYTE   BEND   c_v-64
 BYTE   N12  Cs1  v085
 BYTE   W06
// 016   ----------------------------------------
 BYTE   BEND   c_v+0
 BYTE   W06
 BYTE   N44  Fs0  v085
 BYTE   W02
 BYTE   N02
 BYTE   W44
 BYTE   W01
 BYTE   N44
 BYTE   W02
 BYTE   N02
 BYTE   W44
 BYTE   W01
 BYTE   N28  Bn0
 BYTE   W36
 BYTE   N36
 BYTE   W48
 BYTE   N11  Fs0
 BYTE   W12
 BYTE   N28  Bn0
 BYTE   W36
 BYTE   N36
 BYTE   W48
 BYTE   N11
 BYTE   W12
 BYTE   N28  Cs1
 BYTE   W36
 BYTE   N36
 BYTE   W48
 BYTE   N11  Gs0
 BYTE   W12
 BYTE   N28  Fs0
 BYTE   W36
 BYTE   N36
 BYTE   W48
 BYTE   N11
 BYTE   W12
 BYTE   N28  Bn0
 BYTE   W36
 BYTE   N36
 BYTE   W48
 BYTE   N11  Fs0
 BYTE   W12
 BYTE   N28  Bn0
 BYTE   W11
 BYTE   W24
 BYTE   W01
 BYTE   N36  Bn0  v085
 BYTE   W48
 BYTE   N06
 BYTE   W06
 BYTE   Cn1
 BYTE   W06
 BYTE   N28  Cs1
 BYTE   W36
 BYTE   N36
 BYTE   W48
 BYTE   N06  Gs0
 BYTE   W06
 BYTE   Gn0
 BYTE   W06
 BYTE   N44  Fs0
 BYTE   W02
 BYTE   N02
 BYTE   W44
 BYTE   W01
 BYTE   N44
 BYTE   W02
 BYTE   N02
 BYTE   W44
 BYTE   W01
 BYTE   N68  Bn0
 BYTE   W03
 BYTE   N03
 BYTE   W80
 BYTE   N11
 BYTE   W12
 BYTE   N68
 BYTE   W03
 BYTE   N03
 BYTE   W80
 BYTE   N11
 BYTE   W11
 BYTE   W01
 BYTE   N68  Bn0  v085
 BYTE   W03
 BYTE   N03  Bn0  v085
 BYTE   W80
 BYTE   N11
 BYTE   W12
 BYTE   N32
 BYTE   W01
 BYTE   N02
 BYTE   W32
 BYTE   W02
 BYTE   N11
 BYTE   W12
 BYTE   N44  Fs0
 BYTE   W02
 BYTE   N02
 BYTE   W07
 BYTE   W36
 BYTE   W01
// 017   ----------------------------------------
 BYTE   GoTo
  POIN2 MagicCityOfVane_Label_6_00
 BYTE   FINE

//**************** Track 8 (Midi-Chn.7) ****************//

MagicCityofVane_008:
// 000   ----------------------------------------
MagicCityOfVane_Label_7_00:
MagicCityOfVane_Label_7_00:
 BYTE   KEYSH   MagicCityofVane_key+0
 BYTE   VOL   49*MagicCityofVane_mvl/mxv
 BYTE   LFOS 44
 BYTE   MODT 0
 BYTE   TEMPO   110*MagicCityofVane_tbs/2
 BYTE   PAN   c_v+50
 BYTE   W01
 BYTE   VOICE   10
 BYTE   W96
 BYTE   W96
 BYTE   W96
 BYTE   W96
 BYTE   W96
 BYTE   W12
// 001   ----------------------------------------
MagicCityOfVane_Label_7_26A3:
 BYTE   BEND   c_v+0
 BYTE   N11  Ds3  v085
 BYTE   BEND   c_v+0
 BYTE   BEND   c_v+1
 BYTE   BEND   c_v+1
 BYTE   BEND   c_v+2
 BYTE   BEND   c_v+2
 BYTE   BEND   c_v+3
 BYTE   PEND 
// 002   ----------------------------------------
MagicCityOfVane_Label_7_270C:
 BYTE   BEND   c_v+4
 BYTE   BEND   c_v+4
 BYTE   BEND   c_v+5
 BYTE   BEND   c_v+4
 BYTE   BEND   c_v+3
 BYTE   BEND   c_v+3
 BYTE   BEND   c_v+2
 BYTE   PEND 
// 003   ----------------------------------------
MagicCityOfVane_Label_7_2770:
 BYTE   BEND   c_v+1
 BYTE   BEND   c_v+1
 BYTE   BEND   c_v+0
 BYTE   BEND   c_v+0
 BYTE   N11  Ds3  v085
 BYTE   BEND   c_v+0
 BYTE   W96
 BYTE   W96
 BYTE   W96
 BYTE   W80
 BYTE   W03
 BYTE   PEND 
 BYTE   PATT
  POIN2 MagicCityOfVane_Label_7_26A3
 BYTE   PATT
  POIN2 MagicCityOfVane_Label_7_270C
// 004   ----------------------------------------
 BYTE   BEND   c_v+1
 BYTE   BEND   c_v+1
 BYTE   BEND   c_v+0
 BYTE   BEND   c_v+0
 BYTE   N11  Ds3  v085
 BYTE   BEND   c_v+0
 BYTE   W96
 BYTE   W96
 BYTE   W96
 BYTE   W96
 BYTE   W96
 BYTE   W96
 BYTE   W96
 BYTE   W96
 BYTE   W96
 BYTE   W96
 BYTE   W96
 BYTE   W96
 BYTE   W96
 BYTE   W80
 BYTE   W03
 BYTE   PATT
  POIN2 MagicCityOfVane_Label_7_26A3
 BYTE   PATT
  POIN2 MagicCityOfVane_Label_7_270C
 BYTE   PATT
  POIN2 MagicCityOfVane_Label_7_2770
 BYTE   PATT
  POIN2 MagicCityOfVane_Label_7_26A3
 BYTE   PATT
  POIN2 MagicCityOfVane_Label_7_270C
// 005   ----------------------------------------
 BYTE   BEND   c_v+1
 BYTE   BEND   c_v+1
 BYTE   BEND   c_v+0
 BYTE   BEND   c_v+0
 BYTE   N11  Ds3  v085
 BYTE   BEND   c_v+0
 BYTE   W10
 BYTE   W96
 BYTE   W96
 BYTE   W96
 BYTE   W96
 BYTE   W84
 BYTE   W01
 BYTE   W96
 BYTE   W56
 BYTE   W02
 BYTE   W36
 BYTE   W01
 BYTE   GoTo
  POIN2 MagicCityOfVane_Label_7_00
 BYTE   FINE

//******************************************************//
	ALIGN 4

songMagicCityOfVane:
	BYTE	8	// NumTrks
	BYTE	0	// NumBlks
	BYTE	MagicCityofVane_pri	// Priority
	BYTE	MagicCityofVane_rev	// Reverb.
    
	POIN2	MagicCityofVane_grp
    
	POIN2	MagicCityofVane_001
	POIN2	MagicCityofVane_002
	POIN2	MagicCityofVane_003
	POIN2	MagicCityofVane_004
	POIN2	MagicCityofVane_005
	POIN2	MagicCityofVane_006
	POIN2	MagicCityofVane_007
	POIN2	MagicCityofVane_008

	
