//Event file generated from Sappy .s format.
	#include "MPlayDef.event"

	#define	songMakeEmPay_grp  voicegroup000
	#define	songMakeEmPay_pri  0
	#define	songMakeEmPay_rev  0
	#define	songMakeEmPay_mvl  127
	#define	songMakeEmPay_key  0
	#define	songMakeEmPay_tbs  1
	#define	songMakeEmPay_exg  0
	#define	songMakeEmPay_cmp  1

	// .rodata
	//	songMakeEmPay
	ALIGN 4


//**************** Track 1 (Midi-Chn.0) ****************//

songMakeEmPay_001:
// 000   ----------------------------------------
 BYTE   VOL   80*songMakeEmPay_mvl/mxv
 BYTE   KEYSH   songMakeEmPay_key+0
Label_0_012C725C:
 BYTE   TEMPO   168*songMakeEmPay_tbs/2
 BYTE   VOICE   61
 BYTE   N06  Bn2  v064
 BYTE   W06
 BYTE   Cs3
 BYTE   W06
 BYTE   Dn3
 BYTE   W06
 BYTE   En3
 BYTE   W06
 BYTE   N24  Bn3
 BYTE   W36
 BYTE   N24
 BYTE   W36
// 001   ----------------------------------------
 BYTE   N72  Fs3
 BYTE   W96
// 002   ----------------------------------------
 BYTE   N06  An2
 BYTE   W06
 BYTE   Bn2
 BYTE   W06
 BYTE   Cs3
 BYTE   W06
 BYTE   Dn3
 BYTE   W06
 BYTE   N24  En3
 BYTE   W36
 BYTE   N24
 BYTE   W36
// 003   ----------------------------------------
 BYTE   N72  Gs3
 BYTE   W96
// 004   ----------------------------------------
 BYTE   N12  Cs4
 BYTE   W12
 BYTE   N72  Dn4
 BYTE   W84
// 005   ----------------------------------------
 BYTE   N24  An3
 BYTE   W24
 BYTE   Cs4
 BYTE   W24
 BYTE   N48  Fs4
 BYTE   W48
// 006   ----------------------------------------
 BYTE   N96  Gs4
 BYTE   W96
// 007   ----------------------------------------
 BYTE   Gs3
 BYTE   W96
// 008   ----------------------------------------
 BYTE   Dn3
 BYTE   W96
// 009   ----------------------------------------
 BYTE   W24
 BYTE   N12  Dn4
 BYTE   W12
 BYTE   En4
 BYTE   W12
 BYTE   N48  Fs3
 BYTE   W48
// 010   ----------------------------------------
 BYTE   N96  Gs3
 BYTE   W96
// 011   ----------------------------------------
 BYTE   W24
 BYTE   N12  En3
 BYTE   W12
 BYTE   Fs3
 BYTE   W12
 BYTE   N48  Gs3
 BYTE   W48
// 012   ----------------------------------------
 BYTE   N12  En4
 BYTE   W12
 BYTE   N72  Bn3
 BYTE   W84
// 013   ----------------------------------------
 BYTE   N96  An3
 BYTE   W96
// 014   ----------------------------------------
 BYTE   Gs3
 BYTE   W96
// 015   ----------------------------------------
 BYTE   N24  Bn2
 BYTE   W24
 BYTE   En3
 BYTE   W24
 BYTE   N48  Gs3
 BYTE   W48
// 016   ----------------------------------------
 BYTE   GoTo
  POIN2 Label_0_012C725C
 BYTE   FINE

//**************** Track 2 (Midi-Chn.1) ****************//

songMakeEmPay_002:
// 000   ----------------------------------------
 BYTE   VOL   80*songMakeEmPay_mvl/mxv
 BYTE   KEYSH   songMakeEmPay_key+0
Label_1_012C7194:
 BYTE   VOICE   42
 BYTE   N96  Dn4  v064
 BYTE   W96
// 001   ----------------------------------------
 BYTE   W24
 BYTE   N12  An4
 BYTE   W12
 BYTE   Gs4
 BYTE   W12
 BYTE   N48  Fs4
 BYTE   W48
// 002   ----------------------------------------
 BYTE   N96  Gs4
 BYTE   W96
// 003   ----------------------------------------
 BYTE   W24
 BYTE   N12  Bn4
 BYTE   W12
 BYTE   An4
 BYTE   W12
 BYTE   N48  Gs4
 BYTE   W48
// 004   ----------------------------------------
 BYTE   N12  En5
 BYTE   W12
 BYTE   N72  Bn4
 BYTE   W84
// 005   ----------------------------------------
 BYTE   N96  An4
 BYTE   W96
// 006   ----------------------------------------
 BYTE   Gs4
 BYTE   W96
// 007   ----------------------------------------
 BYTE   N24  Bn3
 BYTE   W24
 BYTE   En4
 BYTE   W24
 BYTE   N48  Gs4
 BYTE   W48
// 008   ----------------------------------------
 BYTE   Bn4
 BYTE   W48
 BYTE   N24  An4
 BYTE   W24
 BYTE   Gs4
 BYTE   W24
// 009   ----------------------------------------
 BYTE   N72  Fs4
 BYTE   W96
// 010   ----------------------------------------
 BYTE   N48  En4
 BYTE   W48
 BYTE   N24  Fs4
 BYTE   W24
 BYTE   An4
 BYTE   W24
// 011   ----------------------------------------
 BYTE   N72  Gs4
 BYTE   W96
// 012   ----------------------------------------
 BYTE   N12  Cs5
 BYTE   W12
 BYTE   N72  Dn5
 BYTE   W84
// 013   ----------------------------------------
 BYTE   N24  An4
 BYTE   W24
 BYTE   Cs5
 BYTE   W24
 BYTE   N48  Fs5
 BYTE   W48
// 014   ----------------------------------------
 BYTE   N96  Gs5
 BYTE   W96
// 015   ----------------------------------------
 BYTE   Gs4
 BYTE   W96
// 016   ----------------------------------------
 BYTE   GoTo
  POIN2 Label_1_012C7194
 BYTE   FINE

//**************** Track 3 (Midi-Chn.2) ****************//

songMakeEmPay_003:
// 000   ----------------------------------------
 BYTE   VOL   80*songMakeEmPay_mvl/mxv
 BYTE   KEYSH   songMakeEmPay_key+0
Label_2_01495974:
 BYTE   VOICE   33
 BYTE   N06  Bn1  v048
 BYTE   W06
 BYTE   N06
 BYTE   W06
 BYTE   N06
 BYTE   W12
 BYTE   N06
 BYTE   W06
 BYTE   N06
 BYTE   W06
 BYTE   N06
 BYTE   W12
 BYTE   N06
 BYTE   W06
 BYTE   N06
 BYTE   W06
 BYTE   N06
 BYTE   W12
 BYTE   N06
 BYTE   W06
 BYTE   N06
 BYTE   W06
 BYTE   N06
 BYTE   W06
 BYTE   An1
 BYTE   W06
// 001   ----------------------------------------
Label_2_01495992:
 BYTE   N06  Fs1  v048
 BYTE   W06
 BYTE   N06
 BYTE   W06
 BYTE   N06
 BYTE   W12
 BYTE   N06
 BYTE   W06
 BYTE   N06
 BYTE   W06
 BYTE   N06
 BYTE   W12
 BYTE   N06
 BYTE   W06
 BYTE   N06
 BYTE   W06
 BYTE   N06
 BYTE   W12
 BYTE   N06
 BYTE   W06
 BYTE   N06
 BYTE   W06
 BYTE   N06
 BYTE   W06
 BYTE   Gs1
 BYTE   W06
 BYTE   PEND 
// 002   ----------------------------------------
Label_2_014959AF:
 BYTE   N06  En1  v048
 BYTE   W06
 BYTE   N06
 BYTE   W06
 BYTE   N06
 BYTE   W12
 BYTE   N06
 BYTE   W06
 BYTE   N06
 BYTE   W06
 BYTE   N06
 BYTE   W12
 BYTE   N06
 BYTE   W06
 BYTE   N06
 BYTE   W06
 BYTE   N06
 BYTE   W12
 BYTE   N06
 BYTE   W06
 BYTE   N06
 BYTE   W06
 BYTE   N06
 BYTE   W06
 BYTE   Fs1
 BYTE   W06
 BYTE   PEND 
// 003   ----------------------------------------
Label_2_014959CC:
 BYTE   N06  Gs1  v048
 BYTE   W06
 BYTE   N06
 BYTE   W06
 BYTE   N06
 BYTE   W12
 BYTE   N06
 BYTE   W06
 BYTE   N06
 BYTE   W06
 BYTE   N06
 BYTE   W12
 BYTE   N06
 BYTE   W06
 BYTE   N06
 BYTE   W06
 BYTE   N06
 BYTE   W12
 BYTE   N06
 BYTE   W06
 BYTE   N06
 BYTE   W06
 BYTE   N06
 BYTE   W06
 BYTE   An1
 BYTE   W06
 BYTE   PEND 
// 004   ----------------------------------------
Label_2_014959E9:
 BYTE   N06  Bn1  v048
 BYTE   W06
 BYTE   N06
 BYTE   W06
 BYTE   N06
 BYTE   W12
 BYTE   N06
 BYTE   W06
 BYTE   N06
 BYTE   W06
 BYTE   N06
 BYTE   W12
 BYTE   N06
 BYTE   W06
 BYTE   N06
 BYTE   W06
 BYTE   N06
 BYTE   W12
 BYTE   N06
 BYTE   W06
 BYTE   N06
 BYTE   W06
 BYTE   N06
 BYTE   W06
 BYTE   An1
 BYTE   W06
 BYTE   PEND 
 BYTE   PATT
  POIN2 Label_2_01495992
 BYTE   PATT
  POIN2 Label_2_014959AF
 BYTE   PATT
  POIN2 Label_2_014959CC
 BYTE   PATT
  POIN2 Label_2_014959E9
 BYTE   PATT
  POIN2 Label_2_01495992
 BYTE   PATT
  POIN2 Label_2_014959AF
 BYTE   PATT
  POIN2 Label_2_014959CC
 BYTE   PATT
  POIN2 Label_2_014959E9
 BYTE   PATT
  POIN2 Label_2_01495992
 BYTE   PATT
  POIN2 Label_2_014959AF
 BYTE   PATT
  POIN2 Label_2_014959CC
// 005   ----------------------------------------
 BYTE   GoTo
  POIN2 Label_2_01495974
 BYTE   FINE

//**************** Track 4 (Midi-Chn.3) ****************//

songMakeEmPay_004:
// 000   ----------------------------------------
 BYTE   VOL   80*songMakeEmPay_mvl/mxv
 BYTE   KEYSH   songMakeEmPay_key+0
Label_3_012C6FC8:
 BYTE   VOICE   48
 BYTE   N12  Bn2  v040
 BYTE   N12  Cs3
 BYTE   N12  Fs3
 BYTE   W12
 BYTE   N84  Bn2
 BYTE   N84  Dn3
 BYTE   N84  Fs3
 BYTE   W84
// 001   ----------------------------------------
Label_3_012C6FD9:
 BYTE   N96  An2  v040
 BYTE   N96  Cs3
 BYTE   N48  Fs3
 BYTE   W48
 BYTE   Gs3
 BYTE   W48
 BYTE   PEND 
// 002   ----------------------------------------
Label_3_012C6FE4:
 BYTE   TIE  Bn2  v040
 BYTE   TIE  En3
 BYTE   TIE  Gs3
 BYTE   W96
 BYTE   PEND 
// 003   ----------------------------------------
 BYTE   W96
// 004   ----------------------------------------
 BYTE   EOT
 BYTE   Bn2  v064
 BYTE   Gs3
Label_3_012C6FF2:
 BYTE   N12  Bn2  v040
 BYTE   N12  Cs3
 BYTE   N12  Fs3
 BYTE   W12
 BYTE   N84  Bn2
 BYTE   N84  Dn3
 BYTE   N84  Fs3
 BYTE   W84
 BYTE   PEND 
 BYTE   PATT
  POIN2 Label_3_012C6FD9
 BYTE   PATT
  POIN2 Label_3_012C6FE4
// 005   ----------------------------------------
 BYTE   W96
// 006   ----------------------------------------
 BYTE   EOT
 BYTE   Bn2  v064
 BYTE   Gs3
 BYTE   PATT
  POIN2 Label_3_012C6FF2
 BYTE   PATT
  POIN2 Label_3_012C6FD9
 BYTE   PATT
  POIN2 Label_3_012C6FE4
// 007   ----------------------------------------
 BYTE   W96
// 008   ----------------------------------------
 BYTE   EOT
 BYTE   Bn2  v064
 BYTE   Gs3
 BYTE   PATT
  POIN2 Label_3_012C6FF2
 BYTE   PATT
  POIN2 Label_3_012C6FD9
 BYTE   PATT
  POIN2 Label_3_012C6FE4
// 009   ----------------------------------------
 BYTE   W96
// 010   ----------------------------------------
 BYTE   EOT
 BYTE   Bn2  v064
 BYTE   Gs3
 BYTE   GoTo
  POIN2 Label_3_012C6FC8
 BYTE   FINE

//**************** Track 5 (Midi-Chn.4) ****************//

songMakeEmPay_005:
// 000   ----------------------------------------
 BYTE   VOL   80*songMakeEmPay_mvl/mxv
 BYTE   KEYSH   songMakeEmPay_key+0
Label_4_012C6EF8:
 BYTE   VOICE   124
 BYTE   N24  Cn1  v056
 BYTE   W24
 BYTE   Dn1
 BYTE   W24
 BYTE   Cn1
 BYTE   W24
 BYTE   Dn1
 BYTE   W24
// 001   ----------------------------------------
Label_4_012C6F04:
 BYTE   N12  Cn1  v056
 BYTE   W12
 BYTE   Cn1  v048
 BYTE   W12
 BYTE   N24  Dn1  v056
 BYTE   W24
 BYTE   N12  Cn1
 BYTE   W12
 BYTE   Cn1  v048
 BYTE   W12
 BYTE   N24  Dn1  v056
 BYTE   W24
 BYTE   PEND 
// 002   ----------------------------------------
Label_4_012C6F1A:
 BYTE   N24  Cn1  v056
 BYTE   W24
 BYTE   Dn1
 BYTE   W24
 BYTE   Cn1
 BYTE   W24
 BYTE   Dn1
 BYTE   W24
 BYTE   PEND 
 BYTE   PATT
  POIN2 Label_4_012C6F04
// 003   ----------------------------------------
 BYTE   N24  Cn1  v056
 BYTE   N12  En2  v048
 BYTE   W12
 BYTE   N72  En2  v056
 BYTE   W12
 BYTE   N24  Dn1
 BYTE   W24
 BYTE   Cn1
 BYTE   W24
 BYTE   Dn1
 BYTE   W24
 BYTE   PATT
  POIN2 Label_4_012C6F04
 BYTE   PATT
  POIN2 Label_4_012C6F1A
// 004   ----------------------------------------
Label_4_012C6F46:
 BYTE   N24  Cn1  v056
 BYTE   W24
 BYTE   Dn1
 BYTE   W24
 BYTE   N12  Dn1  v036
 BYTE   W12
 BYTE   Dn1  v040
 BYTE   W12
 BYTE   Dn1  v048
 BYTE   W12
 BYTE   Dn1  v056
 BYTE   W12
 BYTE   PEND 
 BYTE   PATT
  POIN2 Label_4_012C6F1A
 BYTE   PATT
  POIN2 Label_4_012C6F04
 BYTE   PATT
  POIN2 Label_4_012C6F1A
 BYTE   PATT
  POIN2 Label_4_012C6F04
// 005   ----------------------------------------
 BYTE   N24  Cn1  v056
 BYTE   N12  En2  v064
 BYTE   W12
 BYTE   N72  En2  v056
 BYTE   W12
 BYTE   N24  Dn1
 BYTE   W24
 BYTE   Cn1
 BYTE   W24
 BYTE   Dn1
 BYTE   W24
 BYTE   PATT
  POIN2 Label_4_012C6F04
 BYTE   PATT
  POIN2 Label_4_012C6F1A
 BYTE   PATT
  POIN2 Label_4_012C6F46
// 006   ----------------------------------------
 BYTE   GoTo
  POIN2 Label_4_012C6EF8
 BYTE   FINE

//******************************************************//
	ALIGN 4

songMakeEmPay:
	BYTE	5	// NumTrks
	BYTE	0	// NumBlks
	BYTE	songMakeEmPay_pri	// Priority
	BYTE	songMakeEmPay_rev	// Reverb.
    
	POIN2	songMakeEmPay_grp
    
	POIN2	songMakeEmPay_001
	POIN2	songMakeEmPay_002
	POIN2	songMakeEmPay_003
	POIN2	songMakeEmPay_004
	POIN2	songMakeEmPay_005

	
