//Event file generated from Sappy .s format.
	#include "MPlayDef.event"

	#define	songMarbleCorridorgrp  voicegroup000
	#define	songMarbleCorridorpri  10
	#define	songMarbleCorridorrev  0
	#define	songMarbleCorridormvl  180
	#define	songMarbleCorridorkey  0
	#define	songMarbleCorridortbs  1
	#define	songMarbleCorridorexg  0
	#define	songMarbleCorridorcmp  1

	// .rodata
	//	m
	ALIGN 4


//**************** Track 1 (Midi-Chn.0) ****************//

songMarbleCorridor001:
// 000   ----------------------------------------
LabelMarbleCorridor_0_00:
 BYTE   TEMPO   112*songMarbleCorridortbs/2
 BYTE   KEYSH   songMarbleCorridorkey+0
 BYTE   VOICE   0
 BYTE   VOL   22*songMarbleCorridormvl/mxv
 BYTE   PAN   c_v+0
 BYTE   PAN   c_v+0
 BYTE   N06  Fs2  v092
 BYTE   W06
 BYTE   En3
 BYTE   W06
 BYTE   Bn2
 BYTE   W06
 BYTE   Cs3
 BYTE   W06
 BYTE   Bn2  v060
 BYTE   W06
 BYTE   Gs3  v092
 BYTE   W06
 BYTE   Bn2  v060
 BYTE   W06
 BYTE   Ds3  v092
 BYTE   W06
 BYTE   Bn2  v060
 BYTE   W06
 BYTE   Fs3  v092
 BYTE   W06
 BYTE   En3
 BYTE   W06
 BYTE   Bn3
 BYTE   W06
 BYTE   Gs3
 BYTE   W06
 BYTE   Ds4
 BYTE   W06
 BYTE   En4
 BYTE   W06
 BYTE   Ds4
 BYTE   W06
// 001   ----------------------------------------
LabelMarbleCorridor_0_0300:
 BYTE   N06  En4  v060
 BYTE   W06
 BYTE   Bn3  v092
 BYTE   W06
 BYTE   Gs3
 BYTE   W06
 BYTE   Gs4
 BYTE   W06
 BYTE   Gs3  v060
 BYTE   W06
 BYTE   Ds4  v092
 BYTE   W06
 BYTE   Gs3  v060
 BYTE   W06
 BYTE   Fs4  v092
 BYTE   W06
 BYTE   Gs3  v060
 BYTE   W06
 BYTE   En4  v092
 BYTE   W06
 BYTE   Bn3
 BYTE   W06
 BYTE   En4  v060
 BYTE   W06
 BYTE   Cs4  v092
 BYTE   W06
 BYTE   Gs4
 BYTE   W06
 BYTE   Ds5
 BYTE   W06
 BYTE   En5
 BYTE   W06
 BYTE   PEND 
// 002   ----------------------------------------
LabelMarbleCorridor_0_0600:
 BYTE   N06  Ds5  v060
 BYTE   W06
 BYTE   Gs4  v092
 BYTE   W06
 BYTE   Cs5
 BYTE   W06
 BYTE   Bn4
 BYTE   W06
 BYTE   Cs5  v060
 BYTE   W06
 BYTE   Cs5  v092
 BYTE   W06
 BYTE   En4
 BYTE   W06
 BYTE   Bn4
 BYTE   W06
 BYTE   Gs4
 BYTE   W06
 BYTE   Cs5
 BYTE   W06
 BYTE   Bn4
 BYTE   W06
 BYTE   Cs5  v060
 BYTE   W06
 BYTE   Bn4
 BYTE   W06
 BYTE   Cs5  v092
 BYTE   W06
 BYTE   En4
 BYTE   W06
 BYTE   Bn4
 BYTE   W06
 BYTE   PEND 
// 003   ----------------------------------------
LabelMarbleCorridor_0_0900:
 BYTE   N06  En4  v060
 BYTE   W06
 BYTE   Cs5
 BYTE   W06
 BYTE   Ds5
 BYTE   W06
 BYTE   Cs5
 BYTE   W06
 BYTE   En5
 BYTE   W06
 BYTE   Fs5
 BYTE   W06
 BYTE   Ds5
 BYTE   W06
 BYTE   Fs5
 BYTE   W06
 BYTE   Ds5  v030
 BYTE   W06
 BYTE   En5  v060
 BYTE   W06
 BYTE   Gs4
 BYTE   W06
 BYTE   En5  v030
 BYTE   W06
 BYTE   Ds5  v060
 BYTE   W06
 BYTE   Gs4
 BYTE   W06
 BYTE   Bn4
 BYTE   W06
 BYTE   Ds5
 BYTE   W06
 BYTE   PEND 
// 004   ----------------------------------------
LabelMarbleCorridor_0_0C00:
 BYTE   N06  Cs5  v060
 BYTE   W06
 BYTE   Ds5
 BYTE   W06
 BYTE   Gs4
 BYTE   W06
 BYTE   Ds5
 BYTE   W06
 BYTE   Gs4
 BYTE   W06
 BYTE   Cs5
 BYTE   W06
 BYTE   Ds5
 BYTE   W06
 BYTE   Gs4
 BYTE   W06
 BYTE   Ds5
 BYTE   W06
 BYTE   Gs4
 BYTE   W06
 BYTE   Cs5
 BYTE   W06
 BYTE   Ds5
 BYTE   W06
 BYTE   Gs4
 BYTE   W06
 BYTE   Ds5
 BYTE   W06
 BYTE   Gs4
 BYTE   W06
 BYTE   En5
 BYTE   W06
 BYTE   PEND 
// 005   ----------------------------------------
LabelMarbleCorridor_0_0F00:
 BYTE   N06  Fs5  v060
 BYTE   W06
 BYTE   An4
 BYTE   W06
 BYTE   Fs5
 BYTE   W06
 BYTE   An4
 BYTE   W06
 BYTE   En5
 BYTE   W06
 BYTE   Fs5
 BYTE   W06
 BYTE   An4
 BYTE   W06
 BYTE   Fs5
 BYTE   W06
 BYTE   An4
 BYTE   W06
 BYTE   En5
 BYTE   W06
 BYTE   Fs5
 BYTE   W06
 BYTE   An4
 BYTE   W06
 BYTE   Fs5
 BYTE   W06
 BYTE   An4
 BYTE   W06
 BYTE   En5
 BYTE   W06
 BYTE   Fs5
 BYTE   W06
 BYTE   PEND 
// 006   ----------------------------------------
LabelMarbleCorridor_0_1200:
 BYTE   N06  An4  v060
 BYTE   W06
 BYTE   Fs5
 BYTE   W06
 BYTE   Cn5
 BYTE   W06
 BYTE   Gs5
 BYTE   W06
 BYTE   Ds5
 BYTE   W06
 BYTE   Gs5
 BYTE   W06
 BYTE   Ds5
 BYTE   W06
 BYTE   Cn5
 BYTE   W06
 BYTE   Gs5
 BYTE   W06
 BYTE   Ds5
 BYTE   W06
 BYTE   Gs5
 BYTE   W06
 BYTE   Ds5
 BYTE   W06
 BYTE   Cn5
 BYTE   W06
 BYTE   Gs5
 BYTE   W06
 BYTE   Ds5
 BYTE   W06
 BYTE   Gs5
 BYTE   W06
 BYTE   PEND 
// 007   ----------------------------------------
LabelMarbleCorridor_0_1500:
 BYTE   N06  Ds5  v060
 BYTE   W06
 BYTE   Cn5
 BYTE   W06
 BYTE   Gs5
 BYTE   W06
 BYTE   Ds5
 BYTE   W06
 BYTE   Fs5
 BYTE   W06
 BYTE   Ds5
 BYTE   W06
 BYTE   Cn5
 BYTE   W06
 BYTE   Gs5
 BYTE   W06
 BYTE   Ds5
 BYTE   W06
 BYTE   Fs5
 BYTE   W06
 BYTE   Ds5
 BYTE   W06
 BYTE   Cn5
 BYTE   W06
 BYTE   Gs5
 BYTE   W06
 BYTE   An4
 BYTE   W06
 BYTE   Fs5
 BYTE   W06
 BYTE   An4
 BYTE   W06
 BYTE   PEND 
// 008   ----------------------------------------
LabelMarbleCorridor_0_1800:
 BYTE   N06  Cn5  v060
 BYTE   W06
 BYTE   Gs5
 BYTE   W06
 BYTE   An4
 BYTE   W06
 BYTE   Fs5
 BYTE   W06
 BYTE   An4
 BYTE   W06
 BYTE   Cn5
 BYTE   W06
 BYTE   Gs5
 BYTE   W06
 BYTE   An4
 BYTE   W06
 BYTE   Fs5
 BYTE   W06
 BYTE   An4
 BYTE   W06
 BYTE   Cn5
 BYTE   W06
 BYTE   Gs5
 BYTE   W06
 BYTE   An4
 BYTE   W06
 BYTE   Fs5
 BYTE   W06
 BYTE   Cn5
 BYTE   W06
 BYTE   Gs5
 BYTE   W06
 BYTE   PEND 
// 009   ----------------------------------------
LabelMarbleCorridor_0_1B00:
 BYTE   N06  Ds5  v060
 BYTE   W06
 BYTE   An4
 BYTE   W06
 BYTE   Fs5
 BYTE   W06
 BYTE   Cn5
 BYTE   W06
 BYTE   Ds4
 BYTE   W06
 BYTE   Ds5
 BYTE   W06
 BYTE   An4
 BYTE   W06
 BYTE   Cn4
 BYTE   W06
 BYTE   Cn5
 BYTE   W06
 BYTE   Ds4
 BYTE   W06
 BYTE   Gs3
 BYTE   W06
 BYTE   Fs4
 BYTE   W06
 BYTE   Cn4
 BYTE   W06
 BYTE   Ds3
 BYTE   W06
 BYTE   Cs4
 BYTE   W06
 BYTE   An3
 BYTE   W06
 BYTE   PEND 
// 010   ----------------------------------------
LabelMarbleCorridor_0_1E00:
 BYTE   N06  Cn3  v060
 BYTE   W06
 BYTE   Cn4
 BYTE   W06
 BYTE   Ds3
 BYTE   W06
 BYTE   An3
 BYTE   W06
 BYTE   En3
 BYTE   W06
 BYTE   Cn3
 BYTE   W06
 BYTE   Gs3
 BYTE   W06
 BYTE   Ds3
 BYTE   W06
 BYTE   Fs2  v075
 BYTE   W06
 BYTE   En3
 BYTE   W06
 BYTE   Bn2
 BYTE   W06
 BYTE   Cs3
 BYTE   W06
 BYTE   Bn2  v045
 BYTE   W06
 BYTE   Gs3  v075
 BYTE   W06
 BYTE   Bn2  v045
 BYTE   W06
 BYTE   Ds3  v075
 BYTE   W06
 BYTE   PEND 
// 011   ----------------------------------------
LabelMarbleCorridor_0_2100:
 BYTE   N06  Bn2  v045
 BYTE   W06
 BYTE   Fs3  v075
 BYTE   W06
 BYTE   En3
 BYTE   W06
 BYTE   Bn3
 BYTE   W06
 BYTE   Gs3
 BYTE   W06
 BYTE   Ds4
 BYTE   W06
 BYTE   En4
 BYTE   W06
 BYTE   Ds4
 BYTE   W06
 BYTE   En4  v045
 BYTE   W06
 BYTE   Bn3  v075
 BYTE   W06
 BYTE   Gs3
 BYTE   W06
 BYTE   Gs4
 BYTE   W06
 BYTE   Gs3  v045
 BYTE   W06
 BYTE   Ds4  v075
 BYTE   W06
 BYTE   Gs3  v045
 BYTE   W06
 BYTE   Fs4  v075
 BYTE   W06
 BYTE   PEND 
// 012   ----------------------------------------
LabelMarbleCorridor_0_2400:
 BYTE   N06  Gs3  v045
 BYTE   W06
 BYTE   En4  v075
 BYTE   W06
 BYTE   Bn3
 BYTE   W06
 BYTE   En4  v045
 BYTE   W06
 BYTE   Cs4  v075
 BYTE   W06
 BYTE   Gs4
 BYTE   W06
 BYTE   Ds5
 BYTE   W06
 BYTE   En5
 BYTE   W06
 BYTE   Ds5  v045
 BYTE   W06
 BYTE   Gs4  v075
 BYTE   W06
 BYTE   Cs5
 BYTE   W06
 BYTE   Bn4
 BYTE   W06
 BYTE   Cs5  v045
 BYTE   W06
 BYTE   Cs5  v075
 BYTE   W06
 BYTE   En4
 BYTE   W06
 BYTE   Bn4
 BYTE   W06
 BYTE   PEND 
// 013   ----------------------------------------
LabelMarbleCorridor_0_2700:
 BYTE   N06  Gs4  v075
 BYTE   W06
 BYTE   Cs5
 BYTE   W06
 BYTE   Bn4
 BYTE   W06
 BYTE   Cs5  v045
 BYTE   W06
 BYTE   Bn4
 BYTE   W06
 BYTE   Cs5
 BYTE   W06
 BYTE   En4
 BYTE   W06
 BYTE   Bn4
 BYTE   W06
 BYTE   En4  v060
 BYTE   W06
 BYTE   Cs5
 BYTE   W06
 BYTE   Ds5
 BYTE   W06
 BYTE   Cs5
 BYTE   W06
 BYTE   En5
 BYTE   W06
 BYTE   Fs5
 BYTE   W06
 BYTE   Ds5
 BYTE   W06
 BYTE   Fs5
 BYTE   W06
 BYTE   PEND 
// 014   ----------------------------------------
LabelMarbleCorridor_0_2A00:
 BYTE   N06  Ds5  v030
 BYTE   W06
 BYTE   En5  v060
 BYTE   W06
 BYTE   Gs4
 BYTE   W06
 BYTE   En5  v030
 BYTE   W06
 BYTE   Ds5  v060
 BYTE   W06
 BYTE   Gs4
 BYTE   W06
 BYTE   Bn4
 BYTE   W06
 BYTE   Ds5
 BYTE   W06
 BYTE   Cs5
 BYTE   W06
 BYTE   Ds5
 BYTE   W06
 BYTE   Gs4
 BYTE   W06
 BYTE   Ds5
 BYTE   W06
 BYTE   Gs4
 BYTE   W06
 BYTE   Cs5
 BYTE   W06
 BYTE   Ds5
 BYTE   W06
 BYTE   Gs4
 BYTE   W06
 BYTE   PEND 
// 015   ----------------------------------------
LabelMarbleCorridor_0_2D00:
 BYTE   N06  Ds5  v060
 BYTE   W06
 BYTE   Gs4
 BYTE   W06
 BYTE   Cs5
 BYTE   W06
 BYTE   Ds5
 BYTE   W06
 BYTE   Gs4
 BYTE   W06
 BYTE   Ds5
 BYTE   W06
 BYTE   Gs4
 BYTE   W06
 BYTE   En5
 BYTE   W06
 BYTE   Fs5
 BYTE   W06
 BYTE   An4
 BYTE   W06
 BYTE   Fs5
 BYTE   W06
 BYTE   An4
 BYTE   W06
 BYTE   En5
 BYTE   W06
 BYTE   Fs5
 BYTE   W06
 BYTE   An4
 BYTE   W06
 BYTE   Fs5
 BYTE   W06
 BYTE   PEND 
// 016   ----------------------------------------
LabelMarbleCorridor_0_3000:
 BYTE   N06  An4  v060
 BYTE   W06
 BYTE   En5
 BYTE   W06
 BYTE   Fs5
 BYTE   W06
 BYTE   An4
 BYTE   W06
 BYTE   Fs5
 BYTE   W06
 BYTE   An4
 BYTE   W06
 BYTE   En5
 BYTE   W06
 BYTE   Fs5
 BYTE   W06
 BYTE   An4
 BYTE   W06
 BYTE   Fs5
 BYTE   W06
 BYTE   Cn5
 BYTE   W06
 BYTE   Gs5
 BYTE   W06
 BYTE   Ds5
 BYTE   W06
 BYTE   Gs5
 BYTE   W06
 BYTE   Ds5
 BYTE   W06
 BYTE   Cn5
 BYTE   W06
 BYTE   PEND 
// 017   ----------------------------------------
LabelMarbleCorridor_0_3300:
 BYTE   N06  Gs5  v060
 BYTE   W06
 BYTE   Ds5
 BYTE   W06
 BYTE   Gs5
 BYTE   W06
 BYTE   Ds5
 BYTE   W06
 BYTE   Cn5
 BYTE   W06
 BYTE   Gs5
 BYTE   W06
 BYTE   Ds5
 BYTE   W06
 BYTE   Gs5
 BYTE   W06
 BYTE   Ds5
 BYTE   W06
 BYTE   Cn5
 BYTE   W06
 BYTE   Gs5
 BYTE   W06
 BYTE   Ds5
 BYTE   W06
 BYTE   Fs5
 BYTE   W06
 BYTE   Ds5
 BYTE   W06
 BYTE   Cn5
 BYTE   W06
 BYTE   Gs5
 BYTE   W06
 BYTE   PEND 
// 018   ----------------------------------------
LabelMarbleCorridor_0_3600:
 BYTE   N06  Ds5  v060
 BYTE   W06
 BYTE   Fs5
 BYTE   W06
 BYTE   Ds5
 BYTE   W06
 BYTE   Cn5
 BYTE   W06
 BYTE   Gs5
 BYTE   W06
 BYTE   An4
 BYTE   W06
 BYTE   Fs5
 BYTE   W06
 BYTE   An4
 BYTE   W06
 BYTE   Cn5
 BYTE   W06
 BYTE   Gs5
 BYTE   W06
 BYTE   An4
 BYTE   W06
 BYTE   Fs5
 BYTE   W06
 BYTE   An4
 BYTE   W06
 BYTE   Cn5
 BYTE   W06
 BYTE   Gs5
 BYTE   W06
 BYTE   An4
 BYTE   W06
 BYTE   PEND 
// 019   ----------------------------------------
LabelMarbleCorridor_0_3900:
 BYTE   N06  Fs5  v060
 BYTE   W06
 BYTE   An4
 BYTE   W06
 BYTE   Cn5
 BYTE   W06
 BYTE   Gs5
 BYTE   W06
 BYTE   An4
 BYTE   W06
 BYTE   Fs5
 BYTE   W06
 BYTE   Cn5
 BYTE   W06
 BYTE   Gs5
 BYTE   W06
 BYTE   Ds5  v075
 BYTE   W06
 BYTE   An4
 BYTE   W06
 BYTE   Fs5
 BYTE   W06
 BYTE   Cn5
 BYTE   W06
 BYTE   Ds4
 BYTE   W06
 BYTE   Ds5
 BYTE   W06
 BYTE   An4
 BYTE   W06
 BYTE   Cn4
 BYTE   W06
 BYTE   PEND 
// 020   ----------------------------------------
LabelMarbleCorridor_0_3C00:
 BYTE   N06  Cn5  v075
 BYTE   W06
 BYTE   Ds4
 BYTE   W06
 BYTE   Gs3
 BYTE   W06
 BYTE   Fs4
 BYTE   W06
 BYTE   Cn4
 BYTE   W06
 BYTE   Ds3
 BYTE   W06
 BYTE   Cs4
 BYTE   W06
 BYTE   An3
 BYTE   W06
 BYTE   Cn3
 BYTE   W06
 BYTE   Cn4
 BYTE   W06
 BYTE   Ds3
 BYTE   W06
 BYTE   An3
 BYTE   W06
 BYTE   En3
 BYTE   W06
 BYTE   Cn3
 BYTE   W06
 BYTE   Gs3
 BYTE   W06
 BYTE   Ds3
 BYTE   W06
 BYTE   PEND 
// 021   ----------------------------------------
LabelMarbleCorridor_0_3F00:
 BYTE   N06  Fs2  v075
 BYTE   W06
 BYTE   En3
 BYTE   W06
 BYTE   Bn2
 BYTE   W06
 BYTE   Cs3
 BYTE   W06
 BYTE   Bn2  v045
 BYTE   W06
 BYTE   Gs3  v075
 BYTE   W06
 BYTE   Bn2  v045
 BYTE   W06
 BYTE   Ds3  v075
 BYTE   W06
 BYTE   Bn2  v045
 BYTE   W06
 BYTE   Fs3  v075
 BYTE   W06
 BYTE   En3
 BYTE   W06
 BYTE   Bn3
 BYTE   W06
 BYTE   Gs3
 BYTE   W06
 BYTE   Ds4
 BYTE   W06
 BYTE   En4
 BYTE   W06
 BYTE   Ds4
 BYTE   W06
 BYTE   PEND 
// 022   ----------------------------------------
LabelMarbleCorridor_0_4200:
 BYTE   N06  En4  v045
 BYTE   W06
 BYTE   Bn3  v075
 BYTE   W06
 BYTE   Gs3
 BYTE   W06
 BYTE   Gs4
 BYTE   W06
 BYTE   Gs3  v045
 BYTE   W06
 BYTE   Ds4  v075
 BYTE   W06
 BYTE   Gs3  v045
 BYTE   W06
 BYTE   Fs4  v075
 BYTE   W06
 BYTE   Gs3  v045
 BYTE   W06
 BYTE   En4  v075
 BYTE   W06
 BYTE   Bn3
 BYTE   W06
 BYTE   En4  v045
 BYTE   W06
 BYTE   Cs4  v075
 BYTE   W06
 BYTE   Gs4
 BYTE   W06
 BYTE   Ds5
 BYTE   W06
 BYTE   En5
 BYTE   W06
 BYTE   PEND 
// 023   ----------------------------------------
LabelMarbleCorridor_0_4500:
 BYTE   N06  Ds5  v045
 BYTE   W06
 BYTE   Gs4  v075
 BYTE   W06
 BYTE   Cs5
 BYTE   W06
 BYTE   Bn4
 BYTE   W06
 BYTE   Cs5  v045
 BYTE   W06
 BYTE   Cs5  v075
 BYTE   W06
 BYTE   En4
 BYTE   W06
 BYTE   Bn4
 BYTE   W06
 BYTE   Gs4
 BYTE   W06
 BYTE   Cs5
 BYTE   W06
 BYTE   Bn4
 BYTE   W06
 BYTE   Cs5  v045
 BYTE   W06
 BYTE   Bn4
 BYTE   W06
 BYTE   Cs5
 BYTE   W06
 BYTE   En4
 BYTE   W06
 BYTE   Bn4
 BYTE   W06
 BYTE   PEND 
 BYTE   PATT
  POIN2 LabelMarbleCorridor_0_0900
 BYTE   PATT
  POIN2 LabelMarbleCorridor_0_0C00
 BYTE   PATT
  POIN2 LabelMarbleCorridor_0_0F00
 BYTE   PATT
  POIN2 LabelMarbleCorridor_0_1200
// 024   ----------------------------------------
LabelMarbleCorridor_0_5400:
 BYTE   N06  Ds5  v060
 BYTE   W06
 BYTE   Cn5
 BYTE   W06
 BYTE   Gs5
 BYTE   W06
 BYTE   Ds5
 BYTE   W06
 BYTE   Fs5
 BYTE   W06
 BYTE   Ds5
 BYTE   W06
 BYTE   Cn5
 BYTE   W06
 BYTE   Gs5
 BYTE   W06
 BYTE   Ds5
 BYTE   W06
 BYTE   An4
 BYTE   W06
 BYTE   Fs5
 BYTE   W06
 BYTE   Cn5
 BYTE   W06
 BYTE   Ds4
 BYTE   W06
 BYTE   Ds5
 BYTE   W06
 BYTE   An4
 BYTE   W06
 BYTE   Cn4
 BYTE   W06
 BYTE   PEND 
// 025   ----------------------------------------
LabelMarbleCorridor_0_5700:
 BYTE   N06  Cn5  v060
 BYTE   W06
 BYTE   Ds4
 BYTE   W06
 BYTE   Gs3
 BYTE   W06
 BYTE   Fs4
 BYTE   W06
 BYTE   Cn4
 BYTE   W06
 BYTE   Ds3
 BYTE   W06
 BYTE   Cs4
 BYTE   W06
 BYTE   An3
 BYTE   W06
 BYTE   Cn3
 BYTE   W06
 BYTE   Cn4
 BYTE   W06
 BYTE   Ds3
 BYTE   W06
 BYTE   An3
 BYTE   W06
 BYTE   En3
 BYTE   W06
 BYTE   Cn3
 BYTE   W06
 BYTE   Gs3
 BYTE   W06
 BYTE   Ds3
 BYTE   W06
 BYTE   PEND 
// 026   ----------------------------------------
LabelMarbleCorridor_0_5A00:
 BYTE   N06  Fs2  v092
 BYTE   W06
 BYTE   En3
 BYTE   W06
 BYTE   Bn2
 BYTE   W06
 BYTE   Cs3
 BYTE   W06
 BYTE   Bn2  v060
 BYTE   W06
 BYTE   Gs3  v092
 BYTE   W06
 BYTE   Bn2  v060
 BYTE   W06
 BYTE   Ds3  v092
 BYTE   W06
 BYTE   Bn2  v060
 BYTE   W06
 BYTE   Fs3  v092
 BYTE   W06
 BYTE   En3
 BYTE   W06
 BYTE   Bn3
 BYTE   W06
 BYTE   Gs3
 BYTE   W06
 BYTE   Ds4
 BYTE   W06
 BYTE   En4
 BYTE   W06
 BYTE   Ds4
 BYTE   W06
 BYTE   PEND 
 BYTE   PATT
  POIN2 LabelMarbleCorridor_0_0300
 BYTE   PATT
  POIN2 LabelMarbleCorridor_0_0600
 BYTE   PATT
  POIN2 LabelMarbleCorridor_0_0900
 BYTE   PATT
  POIN2 LabelMarbleCorridor_0_0C00
 BYTE   PATT
  POIN2 LabelMarbleCorridor_0_0F00
 BYTE   PATT
  POIN2 LabelMarbleCorridor_0_1200
 BYTE   PATT
  POIN2 LabelMarbleCorridor_0_5400
 BYTE   PATT
  POIN2 LabelMarbleCorridor_0_5700
// 027   ----------------------------------------
LabelMarbleCorridor_0_7500:
 BYTE   N06  Fs2  v060
 BYTE   W06
 BYTE   En3
 BYTE   W06
 BYTE   Bn2
 BYTE   W06
 BYTE   Cs3
 BYTE   W06
 BYTE   Bn2  v030
 BYTE   W06
 BYTE   Gs3  v060
 BYTE   W06
 BYTE   Bn2  v030
 BYTE   W06
 BYTE   Ds3  v060
 BYTE   W06
 BYTE   Bn2  v030
 BYTE   W06
 BYTE   Fs3  v060
 BYTE   W06
 BYTE   En3
 BYTE   W06
 BYTE   Bn3
 BYTE   W06
 BYTE   Gs3
 BYTE   W06
 BYTE   Ds4
 BYTE   W06
 BYTE   En4
 BYTE   W06
 BYTE   Ds4
 BYTE   W06
 BYTE   PEND 
// 028   ----------------------------------------
LabelMarbleCorridor_0_7800:
 BYTE   N06  En4  v030
 BYTE   W06
 BYTE   Bn3  v060
 BYTE   W06
 BYTE   Gs3
 BYTE   W06
 BYTE   Gs4
 BYTE   W06
 BYTE   Gs3  v030
 BYTE   W06
 BYTE   Ds4  v060
 BYTE   W06
 BYTE   Gs3  v030
 BYTE   W06
 BYTE   Fs4  v060
 BYTE   W06
 BYTE   Gs3  v030
 BYTE   W06
 BYTE   En4  v060
 BYTE   W06
 BYTE   Bn3
 BYTE   W06
 BYTE   En4  v030
 BYTE   W06
 BYTE   Cs4  v060
 BYTE   W06
 BYTE   Gs4
 BYTE   W06
 BYTE   Ds5
 BYTE   W06
 BYTE   En5
 BYTE   W06
 BYTE   PEND 
// 029   ----------------------------------------
LabelMarbleCorridor_0_7B00:
 BYTE   N06  Ds5  v030
 BYTE   W06
 BYTE   Gs4  v060
 BYTE   W06
 BYTE   Cs5
 BYTE   W06
 BYTE   Bn4
 BYTE   W06
 BYTE   Cs5  v030
 BYTE   W06
 BYTE   Cs5  v060
 BYTE   W06
 BYTE   En4
 BYTE   W06
 BYTE   Bn4
 BYTE   W06
 BYTE   Gs4
 BYTE   W06
 BYTE   Cs5
 BYTE   W06
 BYTE   Bn4
 BYTE   W06
 BYTE   Cs5  v030
 BYTE   W06
 BYTE   Bn4
 BYTE   W06
 BYTE   Cs5  v060
 BYTE   W06
 BYTE   En4
 BYTE   W06
 BYTE   Bn4
 BYTE   W06
 BYTE   PEND 
 BYTE   PATT
  POIN2 LabelMarbleCorridor_0_0900
 BYTE   PATT
  POIN2 LabelMarbleCorridor_0_0C00
 BYTE   PATT
  POIN2 LabelMarbleCorridor_0_0F00
 BYTE   PATT
  POIN2 LabelMarbleCorridor_0_1200
 BYTE   PATT
  POIN2 LabelMarbleCorridor_0_1500
 BYTE   PATT
  POIN2 LabelMarbleCorridor_0_1800
 BYTE   PATT
  POIN2 LabelMarbleCorridor_0_1B00
 BYTE   PATT
  POIN2 LabelMarbleCorridor_0_1E00
 BYTE   PATT
  POIN2 LabelMarbleCorridor_0_2100
 BYTE   PATT
  POIN2 LabelMarbleCorridor_0_2400
 BYTE   PATT
  POIN2 LabelMarbleCorridor_0_2700
 BYTE   PATT
  POIN2 LabelMarbleCorridor_0_2A00
 BYTE   PATT
  POIN2 LabelMarbleCorridor_0_2D00
 BYTE   PATT
  POIN2 LabelMarbleCorridor_0_3000
 BYTE   PATT
  POIN2 LabelMarbleCorridor_0_3300
 BYTE   PATT
  POIN2 LabelMarbleCorridor_0_3600
 BYTE   PATT
  POIN2 LabelMarbleCorridor_0_3900
 BYTE   PATT
  POIN2 LabelMarbleCorridor_0_3C00
 BYTE   PATT
  POIN2 LabelMarbleCorridor_0_3F00
 BYTE   PATT
  POIN2 LabelMarbleCorridor_0_4200
 BYTE   PATT
  POIN2 LabelMarbleCorridor_0_4500
 BYTE   PATT
  POIN2 LabelMarbleCorridor_0_0900
 BYTE   PATT
  POIN2 LabelMarbleCorridor_0_0C00
 BYTE   PATT
  POIN2 LabelMarbleCorridor_0_0F00
 BYTE   PATT
  POIN2 LabelMarbleCorridor_0_1200
 BYTE   PATT
  POIN2 LabelMarbleCorridor_0_5400
 BYTE   PATT
  POIN2 LabelMarbleCorridor_0_5700
 BYTE   PATT
  POIN2 LabelMarbleCorridor_0_5A00
 BYTE   PATT
  POIN2 LabelMarbleCorridor_0_0300
 BYTE   PATT
  POIN2 LabelMarbleCorridor_0_0600
 BYTE   PATT
  POIN2 LabelMarbleCorridor_0_0900
 BYTE   PATT
  POIN2 LabelMarbleCorridor_0_0C00
 BYTE   PATT
  POIN2 LabelMarbleCorridor_0_0F00
 BYTE   PATT
  POIN2 LabelMarbleCorridor_0_1200
 BYTE   PATT
  POIN2 LabelMarbleCorridor_0_5400
 BYTE   PATT
  POIN2 LabelMarbleCorridor_0_5700
 BYTE   PATT
  POIN2 LabelMarbleCorridor_0_7500
 BYTE   PATT
  POIN2 LabelMarbleCorridor_0_7800
 BYTE   PATT
  POIN2 LabelMarbleCorridor_0_7B00
 BYTE   PATT
  POIN2 LabelMarbleCorridor_0_0900
 BYTE   PATT
  POIN2 LabelMarbleCorridor_0_0C00
 BYTE   PATT
  POIN2 LabelMarbleCorridor_0_0F00
 BYTE   PATT
  POIN2 LabelMarbleCorridor_0_1200
 BYTE   PATT
  POIN2 LabelMarbleCorridor_0_1500
 BYTE   PATT
  POIN2 LabelMarbleCorridor_0_1800
 BYTE   PATT
  POIN2 LabelMarbleCorridor_0_1B00
 BYTE   PATT
  POIN2 LabelMarbleCorridor_0_1E00
 BYTE   PATT
  POIN2 LabelMarbleCorridor_0_2100
 BYTE   PATT
  POIN2 LabelMarbleCorridor_0_2400
 BYTE   PATT
  POIN2 LabelMarbleCorridor_0_2700
 BYTE   PATT
  POIN2 LabelMarbleCorridor_0_2A00
 BYTE   PATT
  POIN2 LabelMarbleCorridor_0_2D00
 BYTE   PATT
  POIN2 LabelMarbleCorridor_0_3000
 BYTE   PATT
  POIN2 LabelMarbleCorridor_0_3300
 BYTE   PATT
  POIN2 LabelMarbleCorridor_0_3600
 BYTE   PATT
  POIN2 LabelMarbleCorridor_0_3900
 BYTE   PATT
  POIN2 LabelMarbleCorridor_0_3C00
 BYTE   PATT
  POIN2 LabelMarbleCorridor_0_3F00
 BYTE   PATT
  POIN2 LabelMarbleCorridor_0_4200
 BYTE   PATT
  POIN2 LabelMarbleCorridor_0_4500
 BYTE   PATT
  POIN2 LabelMarbleCorridor_0_0900
 BYTE   PATT
  POIN2 LabelMarbleCorridor_0_0C00
 BYTE   PATT
  POIN2 LabelMarbleCorridor_0_0F00
 BYTE   PATT
  POIN2 LabelMarbleCorridor_0_1200
 BYTE   PATT
  POIN2 LabelMarbleCorridor_0_5400
 BYTE   PATT
  POIN2 LabelMarbleCorridor_0_5700
 BYTE   PATT
  POIN2 LabelMarbleCorridor_0_5A00
 BYTE   PATT
  POIN2 LabelMarbleCorridor_0_0300
 BYTE   PATT
  POIN2 LabelMarbleCorridor_0_0600
 BYTE   PATT
  POIN2 LabelMarbleCorridor_0_0900
 BYTE   PATT
  POIN2 LabelMarbleCorridor_0_0C00
 BYTE   PATT
  POIN2 LabelMarbleCorridor_0_0F00
 BYTE   PATT
  POIN2 LabelMarbleCorridor_0_1200
 BYTE   PATT
  POIN2 LabelMarbleCorridor_0_5400
 BYTE   PATT
  POIN2 LabelMarbleCorridor_0_5700
 BYTE   PATT
  POIN2 LabelMarbleCorridor_0_7500
 BYTE   PATT
  POIN2 LabelMarbleCorridor_0_7800
 BYTE   PATT
  POIN2 LabelMarbleCorridor_0_7B00
// 030   ----------------------------------------
 BYTE   GoTo
  POIN2 LabelMarbleCorridor_0_00
 BYTE   FINE

//**************** Track 2 (Midi-Chn.1) ****************//

songMarbleCorridor002:
// 000   ----------------------------------------
LabelMarbleCorridor_1_00:
 BYTE   TEMPO   112*songMarbleCorridortbs/2
 BYTE   KEYSH   songMarbleCorridorkey+0
 BYTE   VOICE   75
 BYTE   VOL   18*songMarbleCorridormvl/mxv
 BYTE   PAN   c_v+0
 BYTE   PAN   c_v+0
 BYTE   N06  Gs3  v060
 BYTE   W06
 BYTE   Ds3
 BYTE   W06
 BYTE   Fs2
 BYTE   W06
 BYTE   En3
 BYTE   W06
 BYTE   Bn2
 BYTE   W06
 BYTE   Cs3
 BYTE   W06
 BYTE   Bn2  v030
 BYTE   W06
 BYTE   Gs3  v060
 BYTE   W06
 BYTE   Bn2  v030
 BYTE   W06
 BYTE   Ds3  v060
 BYTE   W06
 BYTE   Bn2  v030
 BYTE   W06
 BYTE   Fs3  v060
 BYTE   W06
 BYTE   En3
 BYTE   W06
 BYTE   Bn3
 BYTE   W06
 BYTE   Gs3
 BYTE   W06
 BYTE   Ds4
 BYTE   W06
// 001   ----------------------------------------
 BYTE   En4
 BYTE   W06
 BYTE   Ds4
 BYTE   W06
 BYTE   En4  v030
 BYTE   W06
 BYTE   Bn3  v060
 BYTE   W06
 BYTE   Gs3
 BYTE   W06
 BYTE   Gs4
 BYTE   W06
 BYTE   Gs3  v030
 BYTE   W06
 BYTE   Ds4  v060
 BYTE   W06
 BYTE   Gs3  v030
 BYTE   W06
 BYTE   Fs4  v060
 BYTE   W06
 BYTE   Gs3  v030
 BYTE   W06
 BYTE   En4  v060
 BYTE   W06
 BYTE   Bn3
 BYTE   W06
 BYTE   En4  v030
 BYTE   W06
 BYTE   Cs4  v060
 BYTE   W06
 BYTE   Gs4
 BYTE   W06
// 002   ----------------------------------------
 BYTE   Ds5
 BYTE   W06
 BYTE   En5
 BYTE   W06
 BYTE   Ds5  v030
 BYTE   W06
 BYTE   Gs4  v060
 BYTE   W06
 BYTE   Cs5
 BYTE   W06
 BYTE   Bn4
 BYTE   W06
 BYTE   Cs5  v030
 BYTE   W06
 BYTE   Cs5  v060
 BYTE   W06
 BYTE   En4
 BYTE   W06
 BYTE   Bn4
 BYTE   W06
 BYTE   Gs4
 BYTE   W06
 BYTE   Cs5
 BYTE   W06
 BYTE   Bn4
 BYTE   W06
 BYTE   Cs5  v030
 BYTE   W06
 BYTE   Bn4
 BYTE   W06
 BYTE   Cs5  v092
 BYTE   W06
// 003   ----------------------------------------
 BYTE   N12  Cs1
 BYTE   W12
 BYTE   N03
 BYTE   W03
 BYTE   Gs2
 BYTE   W03
 BYTE   En2
 BYTE   W03
 BYTE   Gs2
 BYTE   W03
 BYTE   Cs1
 BYTE   W03
 BYTE   Gs2
 BYTE   W03
 BYTE   En2
 BYTE   W03
 BYTE   Gs2
 BYTE   W03
 BYTE   Cs1
 BYTE   W03
 BYTE   Gs2
 BYTE   W03
 BYTE   En2
 BYTE   W03
 BYTE   Gs2
 BYTE   W03
 BYTE   Cs1
 BYTE   W03
 BYTE   Gs2
 BYTE   W03
 BYTE   En2
 BYTE   W03
 BYTE   Gs2
 BYTE   W03
 BYTE   Cs1
 BYTE   W03
 BYTE   Gs2
 BYTE   W03
 BYTE   En2
 BYTE   W06
 BYTE   N12  Cs1
 BYTE   W12
 BYTE   N03
 BYTE   W03
 BYTE   Gs2
 BYTE   W03
 BYTE   En2
 BYTE   W03
 BYTE   Gs2
 BYTE   W03
// 004   ----------------------------------------
 BYTE   Cs1
 BYTE   W03
 BYTE   Gs2
 BYTE   W03
 BYTE   En2
 BYTE   W03
 BYTE   Gs2
 BYTE   W03
 BYTE   Cs1
 BYTE   W03
 BYTE   Gs2
 BYTE   W03
 BYTE   En2
 BYTE   W03
 BYTE   Gs2
 BYTE   W03
 BYTE   Cs1
 BYTE   W03
 BYTE   Gs2
 BYTE   W03
 BYTE   En2
 BYTE   W03
 BYTE   Gs2
 BYTE   W03
 BYTE   Cs1
 BYTE   W03
 BYTE   Gs2
 BYTE   W03
 BYTE   En2
 BYTE   W06
 BYTE   N12  Cs1
 BYTE   W12
 BYTE   N03
 BYTE   W03
 BYTE   An2
 BYTE   W03
 BYTE   En2
 BYTE   W03
 BYTE   An2
 BYTE   W03
 BYTE   Cs1
 BYTE   W03
 BYTE   An2
 BYTE   W03
 BYTE   En2
 BYTE   W03
 BYTE   An2
 BYTE   W03
 BYTE   Cs1
 BYTE   W03
 BYTE   An2
 BYTE   W03
 BYTE   En2
 BYTE   W03
 BYTE   An2
 BYTE   W03
// 005   ----------------------------------------
 BYTE   Cs1
 BYTE   W03
 BYTE   An2
 BYTE   W03
 BYTE   En2
 BYTE   W03
 BYTE   An2
 BYTE   W03
 BYTE   Cs1
 BYTE   W03
 BYTE   An2
 BYTE   W03
 BYTE   En2
 BYTE   W06
 BYTE   N12  Cs1
 BYTE   W12
 BYTE   N03
 BYTE   W03
 BYTE   An2
 BYTE   W03
 BYTE   En2
 BYTE   W03
 BYTE   An2
 BYTE   W03
 BYTE   Cs1
 BYTE   W03
 BYTE   An2
 BYTE   W03
 BYTE   En2
 BYTE   W03
 BYTE   An2
 BYTE   W03
 BYTE   Cs1
 BYTE   W03
 BYTE   An2
 BYTE   W03
 BYTE   En2
 BYTE   W03
 BYTE   An2
 BYTE   W03
 BYTE   Cs1
 BYTE   W03
 BYTE   An2
 BYTE   W03
 BYTE   En2
 BYTE   W03
 BYTE   An2
 BYTE   W03
 BYTE   Cs1
 BYTE   W03
 BYTE   An2
 BYTE   W03
 BYTE   En2
 BYTE   W06
// 006   ----------------------------------------
 BYTE   Cs1
 BYTE   W03
 BYTE   An2
 BYTE   W03
 BYTE   En2
 BYTE   W06
 BYTE   N04  Cn2
 BYTE   W04
 BYTE   Ds2
 BYTE   W04
 BYTE   Gs2
 BYTE   W04
 BYTE   N42  Cn3
 BYTE   W42
 BYTE   N06
 BYTE   W06
 BYTE   Gs2
 BYTE   W06
 BYTE   N04  Ds2
 BYTE   W06
 BYTE   Cn2
 BYTE   W06
 BYTE   Gs2
 BYTE   W06
// 007   ----------------------------------------
 BYTE   N54  Cs3
 BYTE   W54
 BYTE   N04  An2
 BYTE   W06
 BYTE   En2
 BYTE   W06
 BYTE   Cs2
 BYTE   W06
 BYTE   N02  An2
 BYTE   W08
 BYTE   N04  En3
 BYTE   W08
 BYTE   Cs3
 BYTE   W08
// 008   ----------------------------------------
 BYTE   N12  An3
 BYTE   W12
 BYTE   N04  Gs3
 BYTE   W04
 BYTE   Gn3
 BYTE   W04
 BYTE   N16  Fs3
 BYTE   W16
 BYTE   N04
 BYTE   W04
 BYTE   Fn3
 BYTE   W04
 BYTE   En3
 BYTE   W04
 BYTE   N06
 BYTE   W06
 BYTE   N02
 BYTE   W02
 BYTE   Ds3
 BYTE   W02
 BYTE   An2
 BYTE   W02
 BYTE   Fs2
 BYTE   W02
 BYTE   Gn2
 BYTE   W02
 BYTE   Gs2
 BYTE   W02
 BYTE   N08  An2
 BYTE   W08
 BYTE   N02
 BYTE   W02
 BYTE   Cs2
 BYTE   W02
 BYTE   Dn2
 BYTE   W02
 BYTE   N08  En2
 BYTE   W08
 BYTE   N02  Fs2
 BYTE   W02
 BYTE   N06  An2
 BYTE   W06
// 009   ----------------------------------------
 BYTE   N18  Ds2
 BYTE   W18
 BYTE   N02  An2
 BYTE   W02
 BYTE   Ds3
 BYTE   W02
 BYTE   Fs3
 BYTE   W02
// 010   ----------------------------------------
LabelMarbleCorridor_1_1BC0:
 BYTE   MOD 0
 BYTE   N66  Gs3  v092
 BYTE   MOD 1
 BYTE   MOD 2
 BYTE   MOD 3
 BYTE   MOD 4
 BYTE   MOD 5
 BYTE   MOD 6
 BYTE   MOD 7
 BYTE   MOD 8
 BYTE   MOD 9
 BYTE   MOD 10
 BYTE   MOD 11
 BYTE   MOD 12
 BYTE   MOD 13
 BYTE   MOD 14
 BYTE   MOD 15
 BYTE   MOD 16
 BYTE   MOD 17
 BYTE   MOD 18
 BYTE   MOD 19
 BYTE   MOD 20
 BYTE   MOD 21
 BYTE   MOD 22
 BYTE   MOD 23
 BYTE   MOD 24
 BYTE   MOD 25
 BYTE   MOD 26
 BYTE   MOD 27
 BYTE   MOD 28
 BYTE   MOD 29
 BYTE   MOD 30
 BYTE   MOD 31
 BYTE   MOD 32
 BYTE   MOD 33
 BYTE   MOD 34
 BYTE   MOD 35
 BYTE   MOD 36
 BYTE   MOD 37
 BYTE   MOD 38
 BYTE   MOD 39
 BYTE   MOD 40
 BYTE   MOD 41
 BYTE   MOD 42
 BYTE   MOD 43
 BYTE   MOD 44
 BYTE   MOD 45
 BYTE   MOD 46
 BYTE   MOD 47
 BYTE   MOD 48
 BYTE   MOD 49
 BYTE   MOD 50
 BYTE   MOD 51
 BYTE   MOD 52
 BYTE   MOD 53
 BYTE   MOD 54
 BYTE   MOD 55
 BYTE   MOD 56
 BYTE   MOD 57
 BYTE   MOD 58
 BYTE   MOD 59
 BYTE   MOD 60
 BYTE   MOD 61
 BYTE   MOD 62
 BYTE   MOD 63
 BYTE   PEND 
// 011   ----------------------------------------
LabelMarbleCorridor_1_1C20:
 BYTE   MOD 64
 BYTE   MOD 65
 BYTE   MOD 66
 BYTE   MOD 67
 BYTE   MOD 68
 BYTE   MOD 69
 BYTE   MOD 70
 BYTE   MOD 71
 BYTE   MOD 72
 BYTE   MOD 73
 BYTE   MOD 74
 BYTE   MOD 75
 BYTE   MOD 76
 BYTE   MOD 77
 BYTE   MOD 78
 BYTE   MOD 79
 BYTE   MOD 80
 BYTE   MOD 81
 BYTE   MOD 82
 BYTE   MOD 83
 BYTE   MOD 84
 BYTE   MOD 85
 BYTE   MOD 86
 BYTE   MOD 87
 BYTE   MOD 88
 BYTE   MOD 89
 BYTE   MOD 90
 BYTE   MOD 91
 BYTE   MOD 92
 BYTE   MOD 93
 BYTE   MOD 94
 BYTE   MOD 95
 BYTE   MOD 96
 BYTE   MOD 97
 BYTE   MOD 98
 BYTE   MOD 99
 BYTE   MOD 100
 BYTE   MOD 101
 BYTE   MOD 102
 BYTE   MOD 103
 BYTE   MOD 104
 BYTE   MOD 105
 BYTE   MOD 106
 BYTE   MOD 107
 BYTE   MOD 108
 BYTE   MOD 109
 BYTE   MOD 110
 BYTE   MOD 111
 BYTE   MOD 112
 BYTE   MOD 113
 BYTE   MOD 114
 BYTE   MOD 115
 BYTE   MOD 116
 BYTE   MOD 117
 BYTE   MOD 118
 BYTE   MOD 119
 BYTE   MOD 120
 BYTE   MOD 121
 BYTE   MOD 122
 BYTE   MOD 123
 BYTE   MOD 124
 BYTE   MOD 125
 BYTE   MOD 126
 BYTE   PEND 
// 012   ----------------------------------------
 BYTE   MOD 127
 BYTE   W42
// 013   ----------------------------------------
LabelMarbleCorridor_1_1DD0:
 BYTE   MOD 0
 BYTE   N02  Gn3  v092
 BYTE   W02
 BYTE   Fn3
 BYTE   W02
 BYTE   Dn3
 BYTE   W02
 BYTE   Bn2
 BYTE   W02
 BYTE   Gn2
 BYTE   W02
 BYTE   Ds2
 BYTE   W02
 BYTE   Bn1
 BYTE   W02
 BYTE   En1
 BYTE   W02
 BYTE   Fs3  v060
 BYTE   W02
 BYTE   En3
 BYTE   W02
 BYTE   Cs3
 BYTE   W02
 BYTE   As2
 BYTE   W02
 BYTE   Fs2
 BYTE   W02
 BYTE   Dn2
 BYTE   W02
 BYTE   As1
 BYTE   W02
 BYTE   Ds1
 BYTE   W02
 BYTE   Fn3  v030
 BYTE   W02
 BYTE   Ds3
 BYTE   W02
 BYTE   Cn3
 BYTE   W02
 BYTE   An2
 BYTE   W02
 BYTE   Fn2
 BYTE   W02
 BYTE   Cs2
 BYTE   W02
 BYTE   An1
 BYTE   W02
 BYTE   Dn1
 BYTE   W14
 BYTE   N06  Fs2  v075
 BYTE   W06
 BYTE   En3
 BYTE   W06
 BYTE   Bn2
 BYTE   W06
 BYTE   Cs3
 BYTE   W06
 BYTE   Bn2  v045
 BYTE   W06
 BYTE   Gs3  v075
 BYTE   W06
 BYTE   Bn2  v045
 BYTE   W06
 BYTE   Ds3  v075
 BYTE   W06
 BYTE   Bn2  v045
 BYTE   W06
 BYTE   Fs3  v075
 BYTE   W06
 BYTE   En3
 BYTE   W06
 BYTE   Bn3
 BYTE   W06
 BYTE   Gs3
 BYTE   W06
 BYTE   Ds4
 BYTE   W06
 BYTE   En4
 BYTE   W06
 BYTE   Ds4
 BYTE   W06
 BYTE   En4  v045
 BYTE   W06
 BYTE   Bn3  v075
 BYTE   W06
 BYTE   Gs3
 BYTE   W06
 BYTE   Gs4
 BYTE   W06
 BYTE   Gs3  v045
 BYTE   W06
 BYTE   Ds4  v075
 BYTE   W06
 BYTE   Gs3  v045
 BYTE   W06
 BYTE   Fs4  v075
 BYTE   W06
 BYTE   Gs3  v045
 BYTE   W06
 BYTE   En4  v075
 BYTE   W06
 BYTE   Bn3
 BYTE   W06
 BYTE   En4  v045
 BYTE   W06
 BYTE   Cs4  v075
 BYTE   W06
 BYTE   Gs4
 BYTE   W06
 BYTE   Ds5
 BYTE   W06
 BYTE   En5
 BYTE   W06
 BYTE   Ds5  v045
 BYTE   W06
 BYTE   Gs4  v075
 BYTE   W06
 BYTE   Cs5
 BYTE   W06
 BYTE   Bn4
 BYTE   W06
 BYTE   Cs5  v045
 BYTE   W06
 BYTE   Cs5  v075
 BYTE   W06
 BYTE   En4
 BYTE   W06
 BYTE   Bn4
 BYTE   W06
 BYTE   Gs4
 BYTE   W06
 BYTE   Cs5
 BYTE   W06
 BYTE   Bn4
 BYTE   W06
 BYTE   Cs5  v045
 BYTE   W06
 BYTE   Bn4
 BYTE   W06
 BYTE   Cs5
 BYTE   W12
 BYTE   Ds3  v092
 BYTE   W06
 BYTE   N04  En3
 BYTE   W06
 BYTE   Fs3
 BYTE   W06
 BYTE   N72  Gs3
 BYTE   W72
 BYTE   Gn3
 BYTE   W72
 BYTE   N24  As2
 BYTE   W24
 BYTE   N96  En3
 BYTE   W12
 BYTE   N12
 BYTE   W96
 BYTE   N04  Ds3
 BYTE   W06
 BYTE   Dn3
 BYTE   W06
 BYTE   N96  Cs3
 BYTE   W12
 BYTE   N36
 BYTE   W96
 BYTE   W24
 BYTE   N04  Cn3
 BYTE   W06
 BYTE   An2
 BYTE   W06
 BYTE   N96  Gs2
 BYTE   W96
 BYTE   N04
 BYTE   W04
 BYTE   Gs2  v075
 BYTE   W04
 BYTE   Gs2  v060
 BYTE   W04
 BYTE   Gs2  v045
 BYTE   W04
 BYTE   Gs2  v030
 BYTE   W04
 BYTE   Gs2  v010
 BYTE   W16
 BYTE   N06  Ds5  v060
 BYTE   W06
 BYTE   An4
 BYTE   W06
 BYTE   Fs5
 BYTE   W06
 BYTE   Cn5
 BYTE   W06
 BYTE   Ds4
 BYTE   W06
 BYTE   Ds5
 BYTE   W06
 BYTE   An4
 BYTE   W06
 BYTE   Cn4
 BYTE   W06
 BYTE   Cn5
 BYTE   W06
 BYTE   Ds4
 BYTE   W06
 BYTE   Gs3
 BYTE   W06
 BYTE   Fs4
 BYTE   W06
 BYTE   Cn4
 BYTE   W06
 BYTE   Ds3
 BYTE   W06
 BYTE   Cs4
 BYTE   W06
 BYTE   An3
 BYTE   W06
 BYTE   Cn3
 BYTE   W06
 BYTE   Cn4
 BYTE   W06
 BYTE   Ds3
 BYTE   W06
 BYTE   An3
 BYTE   W06
 BYTE   En3
 BYTE   W06
 BYTE   Cn3
 BYTE   W06
 BYTE   Gs3
 BYTE   W06
 BYTE   Ds3
 BYTE   W06
 BYTE   Fs2
 BYTE   W06
 BYTE   En3
 BYTE   W06
 BYTE   Bn2
 BYTE   W06
 BYTE   Cs3
 BYTE   W06
 BYTE   Bn2  v030
 BYTE   W06
 BYTE   Gs3  v060
 BYTE   W06
 BYTE   Bn2  v030
 BYTE   W06
 BYTE   Ds3  v060
 BYTE   W06
 BYTE   Bn2  v030
 BYTE   W06
 BYTE   Fs3  v060
 BYTE   W06
 BYTE   En3
 BYTE   W06
 BYTE   Bn3
 BYTE   W06
 BYTE   Gs3
 BYTE   W06
 BYTE   Ds4
 BYTE   W06
 BYTE   En4
 BYTE   W06
 BYTE   Ds4
 BYTE   W06
 BYTE   En4  v030
 BYTE   W06
 BYTE   Bn3  v060
 BYTE   W06
 BYTE   Gs3
 BYTE   W06
 BYTE   Gs4
 BYTE   W06
 BYTE   Gs3  v030
 BYTE   W06
 BYTE   Ds4  v060
 BYTE   W06
 BYTE   Gs3  v030
 BYTE   W06
 BYTE   Fs4  v060
 BYTE   W06
 BYTE   Gs3  v030
 BYTE   W06
 BYTE   En4  v060
 BYTE   W06
 BYTE   Bn3
 BYTE   W06
 BYTE   En4  v030
 BYTE   W06
 BYTE   Cs4  v060
 BYTE   W06
 BYTE   Gs4
 BYTE   W06
 BYTE   Ds5
 BYTE   W06
 BYTE   En5
 BYTE   W06
 BYTE   Ds5  v030
 BYTE   W06
 BYTE   Gs4  v060
 BYTE   W06
 BYTE   Cs5
 BYTE   W06
 BYTE   Bn4
 BYTE   W06
 BYTE   Cs5  v030
 BYTE   W06
 BYTE   Cs5  v060
 BYTE   W06
 BYTE   En4
 BYTE   W06
 BYTE   Bn4
 BYTE   W06
 BYTE   Gs4
 BYTE   W06
 BYTE   Cs5
 BYTE   W06
 BYTE   Bn4
 BYTE   W06
 BYTE   Cs5  v030
 BYTE   W06
 BYTE   Bn4
 BYTE   W06
 BYTE   Cs5
 BYTE   W12
 BYTE   Ds3  v092
 BYTE   W06
 BYTE   N04  En3
 BYTE   W06
 BYTE   Fs3
 BYTE   W06
 BYTE   N72  Gs3
 BYTE   W72
 BYTE   Gn3
 BYTE   W72
 BYTE   N24  As3
 BYTE   W24
 BYTE   N96  En4
 BYTE   W12
 BYTE   N12
 BYTE   W96
 BYTE   N04  Ds4
 BYTE   W06
 BYTE   Dn4
 BYTE   W06
 BYTE   N96  Cs4
 BYTE   W12
 BYTE   N42
 BYTE   W96
 BYTE   W30
 BYTE   N04  An3
 BYTE   W06
 BYTE   N96  Gs3
 BYTE   W96
 BYTE   N06  Ds3  v045
 BYTE   W06
 BYTE   An3
 BYTE   W06
 BYTE   En3
 BYTE   W06
 BYTE   Cn3
 BYTE   W06
 BYTE   Gs3
 BYTE   W06
 BYTE   Ds3
 BYTE   W06
 BYTE   Fs2  v075
 BYTE   W06
 BYTE   En3
 BYTE   W06
 BYTE   Bn2
 BYTE   W06
 BYTE   Cs3
 BYTE   W06
 BYTE   Bn2  v045
 BYTE   W06
 BYTE   Gs3  v075
 BYTE   W06
 BYTE   Bn2  v045
 BYTE   W06
 BYTE   Ds3  v075
 BYTE   W06
 BYTE   Bn2  v045
 BYTE   W06
 BYTE   Fs3  v075
 BYTE   W06
 BYTE   En3
 BYTE   W06
 BYTE   Bn3
 BYTE   W06
 BYTE   Gs3
 BYTE   W06
 BYTE   Ds4
 BYTE   W06
 BYTE   En4
 BYTE   W06
 BYTE   Ds4
 BYTE   W06
 BYTE   En4  v045
 BYTE   W06
 BYTE   Bn3  v075
 BYTE   W06
 BYTE   Gs3
 BYTE   W06
 BYTE   Gs4
 BYTE   W06
 BYTE   Gs3  v045
 BYTE   W06
 BYTE   Ds4  v075
 BYTE   W06
 BYTE   Gs3  v045
 BYTE   W06
 BYTE   Fs4  v075
 BYTE   W06
 BYTE   Gs3  v045
 BYTE   W06
 BYTE   En4  v075
 BYTE   W06
 BYTE   Bn3
 BYTE   W06
 BYTE   En4  v045
 BYTE   W06
 BYTE   Cs4  v075
 BYTE   W06
 BYTE   Gs4
 BYTE   W06
 BYTE   Ds5
 BYTE   W06
 BYTE   En5
 BYTE   W06
 BYTE   Ds5  v045
 BYTE   W06
 BYTE   Gs4  v075
 BYTE   W06
 BYTE   Cs5
 BYTE   W06
 BYTE   Bn4
 BYTE   W06
 BYTE   Cs5  v045
 BYTE   W06
 BYTE   Cs5  v075
 BYTE   W06
 BYTE   En4
 BYTE   W06
 BYTE   Bn4
 BYTE   W06
 BYTE   Gs4
 BYTE   W06
 BYTE   Cs5
 BYTE   W06
 BYTE   Bn4
 BYTE   W06
 BYTE   Cs5  v045
 BYTE   W06
 BYTE   Bn4
 BYTE   W06
 BYTE   Cs5  v075
 BYTE   W06
 BYTE   En4
 BYTE   W06
 BYTE   Bn4
 BYTE   W06
 BYTE   En4  v060
 BYTE   W06
 BYTE   Cs5
 BYTE   W06
 BYTE   Ds5
 BYTE   W06
 BYTE   Cs5
 BYTE   W06
 BYTE   En5
 BYTE   W06
 BYTE   Fs5
 BYTE   W06
 BYTE   Ds5
 BYTE   W06
 BYTE   Fs5
 BYTE   W06
 BYTE   Ds5  v030
 BYTE   W06
 BYTE   En5  v060
 BYTE   W06
 BYTE   Gs4
 BYTE   W06
 BYTE   En5  v030
 BYTE   W06
 BYTE   Ds5  v045
 BYTE   W06
 BYTE   Gs4
 BYTE   W06
 BYTE   Bn4
 BYTE   W06
 BYTE   Ds5
 BYTE   W06
 BYTE   Cs5
 BYTE   W06
 BYTE   Ds5
 BYTE   W06
 BYTE   Gs4
 BYTE   W06
 BYTE   Ds5
 BYTE   W06
 BYTE   Gs4
 BYTE   W06
 BYTE   Cs5
 BYTE   W06
 BYTE   Ds5
 BYTE   W06
 BYTE   Gs4
 BYTE   W06
 BYTE   Ds5
 BYTE   W06
 BYTE   Gs4
 BYTE   W06
 BYTE   Cs5
 BYTE   W06
 BYTE   Ds5
 BYTE   W06
 BYTE   Gs4
 BYTE   W06
 BYTE   Ds5
 BYTE   W06
 BYTE   Gs4
 BYTE   W06
 BYTE   En5
 BYTE   W06
 BYTE   Fs5
 BYTE   W06
 BYTE   An4
 BYTE   W06
 BYTE   Fs5
 BYTE   W06
 BYTE   An4
 BYTE   W06
 BYTE   En5
 BYTE   W06
 BYTE   Fs5
 BYTE   W06
 BYTE   An4
 BYTE   W06
 BYTE   Fs5
 BYTE   W06
 BYTE   An4
 BYTE   W06
 BYTE   En5
 BYTE   W06
 BYTE   Fs5
 BYTE   W06
 BYTE   An4
 BYTE   W06
 BYTE   Fs5
 BYTE   W06
 BYTE   An4
 BYTE   W06
 BYTE   En5
 BYTE   W06
 BYTE   Fs5
 BYTE   W06
 BYTE   An4
 BYTE   W06
 BYTE   Fs5
 BYTE   W06
 BYTE   Cn5
 BYTE   W06
 BYTE   Gs5
 BYTE   W06
 BYTE   Ds5
 BYTE   W06
 BYTE   Gs5
 BYTE   W06
 BYTE   Ds5
 BYTE   W06
 BYTE   Cn5
 BYTE   W06
 BYTE   Gs5
 BYTE   W06
 BYTE   Ds5
 BYTE   W06
 BYTE   Gs5
 BYTE   W06
 BYTE   Ds5
 BYTE   W06
 BYTE   Cn5
 BYTE   W06
 BYTE   Gs5
 BYTE   W06
 BYTE   Ds5
 BYTE   W06
 BYTE   Gs5
 BYTE   W06
 BYTE   Ds5
 BYTE   W06
 BYTE   Cn5
 BYTE   W06
 BYTE   Gs5
 BYTE   W06
 BYTE   Ds5
 BYTE   W06
 BYTE   Fs5
 BYTE   W06
 BYTE   Ds5
 BYTE   W06
 BYTE   Cn5
 BYTE   W06
 BYTE   Gs5
 BYTE   W06
 BYTE   Ds5
 BYTE   W06
 BYTE   An4
 BYTE   W06
 BYTE   Fs5
 BYTE   W06
 BYTE   Cn5
 BYTE   W06
 BYTE   Ds4
 BYTE   W06
 BYTE   Ds5
 BYTE   W06
 BYTE   An4
 BYTE   W06
 BYTE   Cn4
 BYTE   W06
 BYTE   Cn5
 BYTE   W06
 BYTE   Ds4
 BYTE   W06
 BYTE   Gs3
 BYTE   W06
 BYTE   Fs4
 BYTE   W06
 BYTE   Cn4
 BYTE   W06
 BYTE   Ds3
 BYTE   W06
 BYTE   Cs4
 BYTE   W06
 BYTE   An3
 BYTE   W06
 BYTE   Cn3
 BYTE   W06
 BYTE   Cn4
 BYTE   W06
 BYTE   Ds3
 BYTE   W06
 BYTE   An3
 BYTE   W06
 BYTE   En3
 BYTE   W06
 BYTE   Cn3
 BYTE   W06
 BYTE   Gs3
 BYTE   W06
 BYTE   Ds3
 BYTE   W06
 BYTE   Fs2
 BYTE   W06
 BYTE   En3
 BYTE   W06
 BYTE   Bn2
 BYTE   W06
 BYTE   Cs3
 BYTE   W06
 BYTE   Bn2  v010
 BYTE   W06
 BYTE   Gs3  v045
 BYTE   W06
 BYTE   Bn2  v010
 BYTE   W06
 BYTE   Ds3  v045
 BYTE   W06
 BYTE   Bn2  v010
 BYTE   W06
 BYTE   Fs3  v045
 BYTE   W06
 BYTE   En3
 BYTE   W06
 BYTE   Bn3
 BYTE   W06
 BYTE   Gs3
 BYTE   W06
 BYTE   Ds4
 BYTE   W06
 BYTE   En4
 BYTE   W06
 BYTE   Ds4
 BYTE   W06
 BYTE   En4  v010
 BYTE   W06
 BYTE   Bn3  v045
 BYTE   W06
 BYTE   Gs3
 BYTE   W06
 BYTE   Gs4
 BYTE   W06
 BYTE   Gs3  v010
 BYTE   W06
 BYTE   Ds4  v045
 BYTE   W06
 BYTE   Gs3  v010
 BYTE   W06
 BYTE   Fs4  v045
 BYTE   W06
 BYTE   Gs3  v010
 BYTE   W06
 BYTE   En4  v045
 BYTE   W06
 BYTE   Bn3
 BYTE   W06
 BYTE   En4  v010
 BYTE   W06
 BYTE   Cs4  v045
 BYTE   W06
 BYTE   Gs4
 BYTE   W06
 BYTE   Ds5
 BYTE   W06
 BYTE   En5
 BYTE   W06
 BYTE   Ds5  v010
 BYTE   W06
 BYTE   Gs4  v045
 BYTE   W06
 BYTE   Cs5
 BYTE   W06
 BYTE   Bn4
 BYTE   W06
 BYTE   Cs5  v010
 BYTE   W06
 BYTE   Cs5  v045
 BYTE   W06
 BYTE   En4
 BYTE   W06
 BYTE   Bn4
 BYTE   W06
 BYTE   Gs4
 BYTE   W06
 BYTE   Cs5
 BYTE   W06
 BYTE   Bn4
 BYTE   W06
 BYTE   Cs5  v010
 BYTE   W06
 BYTE   Bn4
 BYTE   W06
 BYTE   Cs5  v045
 BYTE   W06
 BYTE   N12  Cs1  v092
 BYTE   W12
 BYTE   N03
 BYTE   W03
 BYTE   Gs2
 BYTE   W03
 BYTE   En2
 BYTE   W03
 BYTE   Gs2
 BYTE   W03
 BYTE   Cs1
 BYTE   W03
 BYTE   Gs2
 BYTE   W03
 BYTE   En2
 BYTE   W03
 BYTE   Gs2
 BYTE   W03
 BYTE   Cs1
 BYTE   W03
 BYTE   Gs2
 BYTE   W03
 BYTE   En2
 BYTE   W03
 BYTE   Gs2
 BYTE   W03
 BYTE   Cs1
 BYTE   W03
 BYTE   Gs2
 BYTE   W03
 BYTE   En2
 BYTE   W03
 BYTE   Gs2
 BYTE   W03
 BYTE   Cs1
 BYTE   W03
 BYTE   Gs2
 BYTE   W03
 BYTE   En2
 BYTE   W06
 BYTE   N12  Cs1
 BYTE   W12
 BYTE   N03
 BYTE   W03
 BYTE   Gs2
 BYTE   W03
 BYTE   En2
 BYTE   W03
 BYTE   Gs2
 BYTE   W03
 BYTE   Cs1
 BYTE   W03
 BYTE   Gs2
 BYTE   W03
 BYTE   En2
 BYTE   W03
 BYTE   Gs2
 BYTE   W03
 BYTE   Cs1
 BYTE   W03
 BYTE   Gs2
 BYTE   W03
 BYTE   En2
 BYTE   W03
 BYTE   Gs2
 BYTE   W03
 BYTE   Cs1
 BYTE   W03
 BYTE   Gs2
 BYTE   W03
 BYTE   En2
 BYTE   W03
 BYTE   Gs2
 BYTE   W03
 BYTE   Cs1
 BYTE   W03
 BYTE   Gs2
 BYTE   W03
 BYTE   En2
 BYTE   W06
 BYTE   N12  Cs1
 BYTE   W12
 BYTE   N03
 BYTE   W03
 BYTE   An2
 BYTE   W03
 BYTE   En2
 BYTE   W03
 BYTE   An2
 BYTE   W03
 BYTE   Cs1
 BYTE   W03
 BYTE   An2
 BYTE   W03
 BYTE   En2
 BYTE   W03
 BYTE   An2
 BYTE   W03
 BYTE   Cs1
 BYTE   W03
 BYTE   An2
 BYTE   W03
 BYTE   En2
 BYTE   W03
 BYTE   An2
 BYTE   W03
 BYTE   Cs1
 BYTE   W03
 BYTE   An2
 BYTE   W03
 BYTE   En2
 BYTE   W03
 BYTE   An2
 BYTE   W03
 BYTE   Cs1
 BYTE   W03
 BYTE   An2
 BYTE   W03
 BYTE   En2
 BYTE   W06
 BYTE   N12  Cs1
 BYTE   W12
 BYTE   N03
 BYTE   W03
 BYTE   An2
 BYTE   W03
 BYTE   En2
 BYTE   W03
 BYTE   An2
 BYTE   W03
 BYTE   Cs1
 BYTE   W03
 BYTE   An2
 BYTE   W03
 BYTE   En2
 BYTE   W03
 BYTE   An2
 BYTE   W03
 BYTE   Cs1
 BYTE   W03
 BYTE   An2
 BYTE   W03
 BYTE   En2
 BYTE   W03
 BYTE   An2
 BYTE   W03
 BYTE   Cs1
 BYTE   W03
 BYTE   An2
 BYTE   W03
 BYTE   En2
 BYTE   W03
 BYTE   An2
 BYTE   W03
 BYTE   Cs1
 BYTE   W03
 BYTE   An2
 BYTE   W03
 BYTE   En2
 BYTE   W06
 BYTE   Cs1
 BYTE   W03
 BYTE   An2
 BYTE   W03
 BYTE   En2
 BYTE   W06
 BYTE   N04  Cn2
 BYTE   W04
 BYTE   Ds2
 BYTE   W04
 BYTE   Gs2
 BYTE   W04
 BYTE   N42  Cn3
 BYTE   W42
 BYTE   N06
 BYTE   W06
 BYTE   Gs2
 BYTE   W06
 BYTE   N04  Ds2
 BYTE   W06
 BYTE   Cn2
 BYTE   W06
 BYTE   Gs2
 BYTE   W06
 BYTE   N54  Cs3
 BYTE   W54
 BYTE   N04  An2
 BYTE   W06
 BYTE   En2
 BYTE   W06
 BYTE   Cs2
 BYTE   W06
 BYTE   N02  An2
 BYTE   W08
 BYTE   N04  En3
 BYTE   W08
 BYTE   Cs3
 BYTE   W08
 BYTE   N12  An3
 BYTE   W12
 BYTE   N04  Gs3
 BYTE   W04
 BYTE   Gn3
 BYTE   W04
 BYTE   N16  Fs3
 BYTE   W16
 BYTE   N04
 BYTE   W04
 BYTE   Fn3
 BYTE   W04
 BYTE   En3
 BYTE   W04
 BYTE   N06
 BYTE   W06
 BYTE   N02
 BYTE   W02
 BYTE   Ds3
 BYTE   W02
 BYTE   An2
 BYTE   W02
 BYTE   Fs2
 BYTE   W02
 BYTE   Gn2
 BYTE   W02
 BYTE   Gs2
 BYTE   W02
 BYTE   N08  An2
 BYTE   W08
 BYTE   N02
 BYTE   W02
 BYTE   Cs2
 BYTE   W02
 BYTE   Dn2
 BYTE   W02
 BYTE   N08  En2
 BYTE   W08
 BYTE   N02  Fs2
 BYTE   W02
 BYTE   N06  An2
 BYTE   W06
 BYTE   N18  Ds2
 BYTE   W18
 BYTE   N02  An2
 BYTE   W02
 BYTE   Ds3
 BYTE   W02
 BYTE   Fs3
 BYTE   W02
 BYTE   PEND 
 BYTE   PATT
  POIN2 LabelMarbleCorridor_1_1BC0
 BYTE   PATT
  POIN2 LabelMarbleCorridor_1_1C20
// 014   ----------------------------------------
 BYTE   MOD 127
 BYTE   W42
 BYTE   PATT
  POIN2 LabelMarbleCorridor_1_1DD0
 BYTE   PATT
  POIN2 LabelMarbleCorridor_1_1BC0
 BYTE   PATT
  POIN2 LabelMarbleCorridor_1_1C20
// 015   ----------------------------------------
 BYTE   MOD 127
 BYTE   W42
// 016   ----------------------------------------
 BYTE   MOD 0
 BYTE   N02  Gn3  v092
 BYTE   W02
 BYTE   Fn3
 BYTE   W02
 BYTE   Dn3
 BYTE   W02
 BYTE   Bn2
 BYTE   W02
 BYTE   Gn2
 BYTE   W02
 BYTE   Ds2
 BYTE   W02
 BYTE   Bn1
 BYTE   W02
 BYTE   En1
 BYTE   W02
 BYTE   Fs3  v060
 BYTE   W02
 BYTE   En3
 BYTE   W02
 BYTE   Cs3
 BYTE   W02
 BYTE   As2
 BYTE   W02
 BYTE   Fs2
 BYTE   W02
 BYTE   Dn2
 BYTE   W02
 BYTE   As1
 BYTE   W02
 BYTE   Ds1
 BYTE   W02
 BYTE   Fn3  v030
 BYTE   W02
 BYTE   Ds3
 BYTE   W02
 BYTE   Cn3
 BYTE   W02
 BYTE   An2
 BYTE   W02
 BYTE   Fn2
 BYTE   W02
 BYTE   Cs2
 BYTE   W02
 BYTE   An1
 BYTE   W02
 BYTE   Dn1
 BYTE   W14
 BYTE   N06  Fs2  v075
 BYTE   W06
 BYTE   En3
 BYTE   W06
 BYTE   Bn2
 BYTE   W06
 BYTE   Cs3
 BYTE   W06
 BYTE   Bn2  v045
 BYTE   W06
 BYTE   Gs3  v075
 BYTE   W06
 BYTE   Bn2  v045
 BYTE   W06
 BYTE   Ds3  v075
 BYTE   W06
 BYTE   Bn2  v045
 BYTE   W06
 BYTE   Fs3  v075
 BYTE   W06
 BYTE   En3
 BYTE   W06
 BYTE   Bn3
 BYTE   W06
 BYTE   Gs3
 BYTE   W06
 BYTE   Ds4
 BYTE   W06
 BYTE   En4
 BYTE   W06
 BYTE   Ds4
 BYTE   W06
 BYTE   En4  v045
 BYTE   W06
 BYTE   Bn3  v075
 BYTE   W06
 BYTE   Gs3
 BYTE   W06
 BYTE   Gs4
 BYTE   W06
 BYTE   Gs3  v045
 BYTE   W06
 BYTE   Ds4  v075
 BYTE   W06
 BYTE   Gs3  v045
 BYTE   W06
 BYTE   Fs4  v075
 BYTE   W06
 BYTE   Gs3  v045
 BYTE   W06
 BYTE   En4  v075
 BYTE   W06
 BYTE   Bn3
 BYTE   W06
 BYTE   En4  v045
 BYTE   W06
 BYTE   Cs4  v075
 BYTE   W06
 BYTE   Gs4
 BYTE   W06
 BYTE   Ds5
 BYTE   W06
 BYTE   En5
 BYTE   W06
 BYTE   Ds5  v045
 BYTE   W06
 BYTE   Gs4  v075
 BYTE   W06
 BYTE   Cs5
 BYTE   W06
 BYTE   Bn4
 BYTE   W06
 BYTE   Cs5  v045
 BYTE   W06
 BYTE   Cs5  v075
 BYTE   W06
 BYTE   En4
 BYTE   W06
 BYTE   Bn4
 BYTE   W06
 BYTE   Gs4
 BYTE   W06
 BYTE   Cs5
 BYTE   W06
 BYTE   Bn4
 BYTE   W06
 BYTE   Cs5  v045
 BYTE   W06
 BYTE   Bn4
 BYTE   W06
 BYTE   Cs5
 BYTE   W12
 BYTE   Ds3  v092
 BYTE   W06
 BYTE   N04  En3
 BYTE   W06
 BYTE   Fs3
 BYTE   W06
 BYTE   N72  Gs3
 BYTE   W72
 BYTE   Gn3
 BYTE   W72
 BYTE   N24  As2
 BYTE   W24
 BYTE   N96  En3
 BYTE   W12
 BYTE   N12
 BYTE   W96
 BYTE   N04  Ds3
 BYTE   W06
 BYTE   Dn3
 BYTE   W06
 BYTE   N96  Cs3
 BYTE   W12
 BYTE   N36
 BYTE   W96
 BYTE   W24
 BYTE   N04  Cn3
 BYTE   W06
 BYTE   An2
 BYTE   W06
 BYTE   N96  Gs2
 BYTE   W96
 BYTE   N04
 BYTE   W04
 BYTE   Gs2  v075
 BYTE   W04
 BYTE   Gs2  v060
 BYTE   W04
 BYTE   Gs2  v045
 BYTE   W04
 BYTE   Gs2  v030
 BYTE   W04
 BYTE   Gs2  v010
 BYTE   W16
 BYTE   N06  Ds5  v060
 BYTE   W06
 BYTE   An4
 BYTE   W06
 BYTE   Fs5
 BYTE   W06
 BYTE   Cn5
 BYTE   W06
 BYTE   Ds4
 BYTE   W06
 BYTE   Ds5
 BYTE   W06
 BYTE   An4
 BYTE   W06
 BYTE   Cn4
 BYTE   W06
 BYTE   Cn5
 BYTE   W06
 BYTE   Ds4
 BYTE   W06
 BYTE   Gs3
 BYTE   W06
 BYTE   Fs4
 BYTE   W06
 BYTE   Cn4
 BYTE   W06
 BYTE   Ds3
 BYTE   W06
 BYTE   Cs4
 BYTE   W06
 BYTE   An3
 BYTE   W06
 BYTE   Cn3
 BYTE   W06
 BYTE   Cn4
 BYTE   W06
 BYTE   Ds3
 BYTE   W06
 BYTE   An3
 BYTE   W06
 BYTE   En3
 BYTE   W06
 BYTE   Cn3
 BYTE   W06
 BYTE   Gs3
 BYTE   W06
 BYTE   Ds3
 BYTE   W06
 BYTE   Fs2
 BYTE   W06
 BYTE   En3
 BYTE   W06
 BYTE   Bn2
 BYTE   W06
 BYTE   Cs3
 BYTE   W06
 BYTE   Bn2  v030
 BYTE   W06
 BYTE   Gs3  v060
 BYTE   W06
 BYTE   Bn2  v030
 BYTE   W06
 BYTE   Ds3  v060
 BYTE   W06
 BYTE   Bn2  v030
 BYTE   W06
 BYTE   Fs3  v060
 BYTE   W06
 BYTE   En3
 BYTE   W06
 BYTE   Bn3
 BYTE   W06
 BYTE   Gs3
 BYTE   W06
 BYTE   Ds4
 BYTE   W06
 BYTE   En4
 BYTE   W06
 BYTE   Ds4
 BYTE   W06
 BYTE   En4  v030
 BYTE   W06
 BYTE   Bn3  v060
 BYTE   W06
 BYTE   Gs3
 BYTE   W06
 BYTE   Gs4
 BYTE   W06
 BYTE   Gs3  v030
 BYTE   W06
 BYTE   Ds4  v060
 BYTE   W06
 BYTE   Gs3  v030
 BYTE   W06
 BYTE   Fs4  v060
 BYTE   W06
 BYTE   Gs3  v030
 BYTE   W06
 BYTE   En4  v060
 BYTE   W06
 BYTE   Bn3
 BYTE   W06
 BYTE   En4  v030
 BYTE   W06
 BYTE   Cs4  v060
 BYTE   W06
 BYTE   Gs4
 BYTE   W06
 BYTE   Ds5
 BYTE   W06
 BYTE   En5
 BYTE   W06
 BYTE   Ds5  v030
 BYTE   W06
 BYTE   Gs4  v060
 BYTE   W06
 BYTE   Cs5
 BYTE   W06
 BYTE   Bn4
 BYTE   W06
 BYTE   Cs5  v030
 BYTE   W06
 BYTE   Cs5  v060
 BYTE   W06
 BYTE   En4
 BYTE   W06
 BYTE   Bn4
 BYTE   W06
 BYTE   Gs4
 BYTE   W06
 BYTE   Cs5
 BYTE   W06
 BYTE   Bn4
 BYTE   W06
 BYTE   Cs5  v030
 BYTE   W06
 BYTE   Bn4
 BYTE   W06
 BYTE   Cs5
 BYTE   W12
 BYTE   Ds3  v092
 BYTE   W06
 BYTE   N04  En3
 BYTE   W06
 BYTE   Fs3
 BYTE   W06
 BYTE   N72  Gs3
 BYTE   W72
 BYTE   Gn3
 BYTE   W72
 BYTE   N24  As3
 BYTE   W24
 BYTE   N96  En4
 BYTE   W12
 BYTE   N12
 BYTE   W96
 BYTE   N04  Ds4
 BYTE   W06
 BYTE   Dn4
 BYTE   W06
 BYTE   N96  Cs4
 BYTE   W12
 BYTE   N42
 BYTE   W96
 BYTE   W30
 BYTE   N04  An3
 BYTE   W06
 BYTE   N96  Gs3
 BYTE   W96
 BYTE   N06  Ds3  v045
 BYTE   W06
 BYTE   An3
 BYTE   W06
 BYTE   En3
 BYTE   W06
 BYTE   Cn3
 BYTE   W06
 BYTE   Gs3
 BYTE   W06
 BYTE   Ds3
 BYTE   W06
 BYTE   Fs2  v075
 BYTE   W06
 BYTE   En3
 BYTE   W06
 BYTE   Bn2
 BYTE   W06
 BYTE   Cs3
 BYTE   W06
 BYTE   Bn2  v045
 BYTE   W06
 BYTE   Gs3  v075
 BYTE   W06
 BYTE   Bn2  v045
 BYTE   W06
 BYTE   Ds3  v075
 BYTE   W06
 BYTE   Bn2  v045
 BYTE   W06
 BYTE   Fs3  v075
 BYTE   W06
 BYTE   En3
 BYTE   W06
 BYTE   Bn3
 BYTE   W06
 BYTE   Gs3
 BYTE   W06
 BYTE   Ds4
 BYTE   W06
 BYTE   En4
 BYTE   W06
 BYTE   Ds4
 BYTE   W06
 BYTE   En4  v045
 BYTE   W06
 BYTE   Bn3  v075
 BYTE   W06
 BYTE   Gs3
 BYTE   W06
 BYTE   Gs4
 BYTE   W06
 BYTE   Gs3  v045
 BYTE   W06
 BYTE   Ds4  v075
 BYTE   W06
 BYTE   Gs3  v045
 BYTE   W06
 BYTE   Fs4  v075
 BYTE   W06
 BYTE   Gs3  v045
 BYTE   W06
 BYTE   En4  v075
 BYTE   W06
 BYTE   Bn3
 BYTE   W06
 BYTE   En4  v045
 BYTE   W06
 BYTE   Cs4  v075
 BYTE   W06
 BYTE   Gs4
 BYTE   W06
 BYTE   Ds5
 BYTE   W06
 BYTE   En5
 BYTE   W06
 BYTE   Ds5  v045
 BYTE   W06
 BYTE   Gs4  v075
 BYTE   W06
 BYTE   Cs5
 BYTE   W06
 BYTE   Bn4
 BYTE   W06
 BYTE   Cs5  v045
 BYTE   W06
 BYTE   Cs5  v075
 BYTE   W06
 BYTE   En4
 BYTE   W06
 BYTE   Bn4
 BYTE   W06
 BYTE   Gs4
 BYTE   W06
 BYTE   Cs5
 BYTE   W06
 BYTE   Bn4
 BYTE   W06
 BYTE   Cs5  v045
 BYTE   W06
 BYTE   Bn4
 BYTE   W06
 BYTE   Cs5  v075
 BYTE   W06
 BYTE   En4
 BYTE   W06
 BYTE   Bn4
 BYTE   W06
 BYTE   En4  v060
 BYTE   W06
 BYTE   Cs5
 BYTE   W06
 BYTE   Ds5
 BYTE   W06
 BYTE   Cs5
 BYTE   W06
 BYTE   En5
 BYTE   W06
 BYTE   Fs5
 BYTE   W06
 BYTE   Ds5
 BYTE   W06
 BYTE   Fs5
 BYTE   W06
 BYTE   Ds5  v030
 BYTE   W06
 BYTE   En5  v060
 BYTE   W06
 BYTE   Gs4
 BYTE   W06
 BYTE   En5  v030
 BYTE   W06
 BYTE   Ds5  v045
 BYTE   W06
 BYTE   Gs4
 BYTE   W06
 BYTE   Bn4
 BYTE   W06
 BYTE   Ds5
 BYTE   W06
 BYTE   Cs5
 BYTE   W06
 BYTE   Ds5
 BYTE   W06
 BYTE   Gs4
 BYTE   W06
 BYTE   Ds5
 BYTE   W06
 BYTE   Gs4
 BYTE   W06
 BYTE   Cs5
 BYTE   W06
 BYTE   Ds5
 BYTE   W06
 BYTE   Gs4
 BYTE   W06
 BYTE   Ds5
 BYTE   W06
 BYTE   Gs4
 BYTE   W06
 BYTE   Cs5
 BYTE   W06
 BYTE   Ds5
 BYTE   W06
 BYTE   Gs4
 BYTE   W06
 BYTE   Ds5
 BYTE   W06
 BYTE   Gs4
 BYTE   W06
 BYTE   En5
 BYTE   W06
 BYTE   Fs5
 BYTE   W06
 BYTE   An4
 BYTE   W06
 BYTE   Fs5
 BYTE   W06
 BYTE   An4
 BYTE   W06
 BYTE   En5
 BYTE   W06
 BYTE   Fs5
 BYTE   W06
 BYTE   An4
 BYTE   W06
 BYTE   Fs5
 BYTE   W06
 BYTE   An4
 BYTE   W06
 BYTE   En5
 BYTE   W06
 BYTE   Fs5
 BYTE   W06
 BYTE   An4
 BYTE   W06
 BYTE   Fs5
 BYTE   W06
 BYTE   An4
 BYTE   W06
 BYTE   En5
 BYTE   W06
 BYTE   Fs5
 BYTE   W06
 BYTE   An4
 BYTE   W06
 BYTE   Fs5
 BYTE   W06
 BYTE   Cn5
 BYTE   W06
 BYTE   Gs5
 BYTE   W06
 BYTE   Ds5
 BYTE   W06
 BYTE   Gs5
 BYTE   W06
 BYTE   Ds5
 BYTE   W06
 BYTE   Cn5
 BYTE   W06
 BYTE   Gs5
 BYTE   W06
 BYTE   Ds5
 BYTE   W06
 BYTE   Gs5
 BYTE   W06
 BYTE   Ds5
 BYTE   W06
 BYTE   Cn5
 BYTE   W06
 BYTE   Gs5
 BYTE   W06
 BYTE   Ds5
 BYTE   W06
 BYTE   Gs5
 BYTE   W06
 BYTE   Ds5
 BYTE   W06
 BYTE   Cn5
 BYTE   W06
 BYTE   Gs5
 BYTE   W06
 BYTE   Ds5
 BYTE   W06
 BYTE   Fs5
 BYTE   W06
 BYTE   Ds5
 BYTE   W06
 BYTE   Cn5
 BYTE   W06
 BYTE   Gs5
 BYTE   W06
 BYTE   Ds5
 BYTE   W06
 BYTE   An4
 BYTE   W06
 BYTE   Fs5
 BYTE   W06
 BYTE   Cn5
 BYTE   W06
 BYTE   Ds4
 BYTE   W06
 BYTE   Ds5
 BYTE   W06
 BYTE   An4
 BYTE   W06
 BYTE   Cn4
 BYTE   W06
 BYTE   Cn5
 BYTE   W06
 BYTE   Ds4
 BYTE   W06
 BYTE   Gs3
 BYTE   W06
 BYTE   Fs4
 BYTE   W06
 BYTE   Cn4
 BYTE   W06
 BYTE   Ds3
 BYTE   W06
 BYTE   Cs4
 BYTE   W06
 BYTE   An3
 BYTE   W06
 BYTE   Cn3
 BYTE   W06
 BYTE   Cn4
 BYTE   W06
 BYTE   Ds3
 BYTE   W06
 BYTE   An3
 BYTE   W06
 BYTE   En3
 BYTE   W06
 BYTE   Cn3
 BYTE   W06
 BYTE   Gs3
 BYTE   W06
 BYTE   Ds3
 BYTE   W06
 BYTE   Fs2
 BYTE   W06
 BYTE   En3
 BYTE   W06
 BYTE   Bn2
 BYTE   W06
 BYTE   Cs3
 BYTE   W06
 BYTE   Bn2  v010
 BYTE   W06
 BYTE   Gs3  v045
 BYTE   W06
 BYTE   Bn2  v010
 BYTE   W06
 BYTE   Ds3  v045
 BYTE   W06
 BYTE   Bn2  v010
 BYTE   W06
 BYTE   Fs3  v045
 BYTE   W06
 BYTE   En3
 BYTE   W06
 BYTE   Bn3
 BYTE   W06
 BYTE   Gs3
 BYTE   W06
 BYTE   Ds4
 BYTE   W06
 BYTE   En4
 BYTE   W06
 BYTE   Ds4
 BYTE   W06
 BYTE   En4  v010
 BYTE   W06
 BYTE   Bn3  v045
 BYTE   W06
 BYTE   Gs3
 BYTE   W06
 BYTE   Gs4
 BYTE   W06
 BYTE   Gs3  v010
 BYTE   W06
 BYTE   Ds4  v045
 BYTE   W06
 BYTE   Gs3  v010
 BYTE   W06
 BYTE   Fs4  v045
 BYTE   W06
 BYTE   Gs3  v010
 BYTE   W06
 BYTE   En4  v045
 BYTE   W06
 BYTE   Bn3
 BYTE   W06
 BYTE   En4  v010
 BYTE   W06
 BYTE   Cs4  v045
 BYTE   W06
 BYTE   Gs4
 BYTE   W06
 BYTE   Ds5
 BYTE   W06
 BYTE   En5
 BYTE   W06
 BYTE   Ds5  v010
 BYTE   W06
 BYTE   Gs4  v045
 BYTE   W06
 BYTE   Cs5
 BYTE   W06
 BYTE   Bn4
 BYTE   W06
 BYTE   Cs5  v010
 BYTE   W06
 BYTE   Cs5  v045
 BYTE   W06
 BYTE   En4
 BYTE   W06
 BYTE   Bn4
 BYTE   W06
 BYTE   Gs4
 BYTE   W06
 BYTE   Cs5
 BYTE   W06
 BYTE   Bn4
 BYTE   W06
 BYTE   Cs5  v010
 BYTE   W06
 BYTE   Bn4
 BYTE   W06
 BYTE   Cs5  v045
 BYTE   W06
 BYTE   GoTo
  POIN2 LabelMarbleCorridor_1_00
 BYTE   FINE

//**************** Track 3 (Midi-Chn.2) ****************//

songMarbleCorridor003:
// 000   ----------------------------------------
LabelMarbleCorridor_2_00:
 BYTE   TEMPO   112*songMarbleCorridortbs/2
 BYTE   KEYSH   songMarbleCorridorkey+0
 BYTE   VOICE   24
 BYTE   VOL   20*songMarbleCorridormvl/mxv
 BYTE   PAN   c_v+0
 BYTE   PAN   c_v+0
 BYTE   N12  Fs1  v092
 BYTE   W12
 BYTE   N06  Fs1  v075
 BYTE   W06
 BYTE   Fs1  v060
 BYTE   W12
 BYTE   Fs1  v045
 BYTE   W42
 BYTE   Fs1  v092
 BYTE   W06
 BYTE   N12  Fs1  v075
 BYTE   W12
 BYTE   N06  Fs1  v045
 BYTE   W54
// 001   ----------------------------------------
 BYTE   Fs1  v092
 BYTE   W06
 BYTE   N12  Fs1  v075
 BYTE   W12
 BYTE   N06  Fs1  v060
 BYTE   W54
 BYTE   Fs1  v092
 BYTE   W06
 BYTE   N12  Fs1  v075
 BYTE   W12
 BYTE   N06  Fs1  v060
 BYTE   W18
// 002   ----------------------------------------
 BYTE   Gs1  v092
 BYTE   W06
 BYTE   N12  Gs1  v075
 BYTE   W12
 BYTE   N06  Gs1  v060
 BYTE   W18
 BYTE   N96  Cs3  v092
 BYTE   W12
 BYTE   N84
 BYTE   W96
 BYTE   W72
// 003   ----------------------------------------
LabelMarbleCorridor_2_0EA0:
 BYTE   N04  An2  v092
 BYTE   W06
 BYTE   En3
 BYTE   W06
 BYTE   N96  Cs3
 BYTE   W12
 BYTE   N12
 BYTE   W96
 BYTE   PEND 
// 004   ----------------------------------------
LabelMarbleCorridor_2_1260:
 BYTE   N04  Ds3  v092
 BYTE   W04
 BYTE   Gs3
 BYTE   W04
 BYTE   Cn4
 BYTE   W04
 BYTE   N72  Ds4
 BYTE   W72
 BYTE   En4
 BYTE   W72
 BYTE   PEND 
// 005   ----------------------------------------
 BYTE   N96  Cs4  v092
 BYTE   W96
// 006   ----------------------------------------
LabelMarbleCorridor_2_1A40:
 BYTE   N05  Cn4  v092
 BYTE   W08
 BYTE   Gs3
 BYTE   W08
 BYTE   Fs3
 BYTE   W08
 BYTE   N96  Ds3
 BYTE   W12
 BYTE   N24
 BYTE   W96
 BYTE   W36
 BYTE   PEND 
// 007   ----------------------------------------
LabelMarbleCorridor_2_1F80:
 BYTE   N96  Cs3  v092
 BYTE   W12
 BYTE   N30
 BYTE   W96
 BYTE   W18
 BYTE   PEND 
// 008   ----------------------------------------
LabelMarbleCorridor_2_2370:
 BYTE   N06  Dn3  v092
 BYTE   W06
 BYTE   N04  Cn3
 BYTE   W06
 BYTE   Dn3
 BYTE   W06
 BYTE   N96  Gs3
 BYTE   W12
 BYTE   N24
 BYTE   W96
 BYTE   W12
 BYTE   PEND 
// 009   ----------------------------------------
LabelMarbleCorridor_2_27C0:
 BYTE   N02  Gs3  v092
 BYTE   W04
 BYTE   Gs3  v075
 BYTE   W04
 BYTE   Gs3  v060
 BYTE   W04
 BYTE   Gs3  v045
 BYTE   W04
 BYTE   Gs3  v030
 BYTE   W04
 BYTE   Gs3  v010
 BYTE   W04
 BYTE   N06  Gs2  v092
 BYTE   W06
 BYTE   N04  Bn2
 BYTE   W06
 BYTE   Cs3
 BYTE   W06
 BYTE   Dn3
 BYTE   W06
 BYTE   N72  En3
 BYTE   W72
 BYTE   PEND 
// 010   ----------------------------------------
LabelMarbleCorridor_2_2B80:
 BYTE   N72  Ds3  v092
 BYTE   W72
 BYTE   N24  Gn2
 BYTE   W24
 BYTE   PEND 
// 011   ----------------------------------------
LabelMarbleCorridor_2_2E80:
 BYTE   N96  Cs3  v092
 BYTE   W12
 BYTE   N12
 BYTE   W96
 BYTE   PEND 
// 012   ----------------------------------------
LabelMarbleCorridor_2_31E0:
 BYTE   N04  Cn3  v092
 BYTE   W06
 BYTE   An2
 BYTE   W06
 BYTE   N96  Gs2
 BYTE   W12
 BYTE   N36
 BYTE   W96
 BYTE   W24
 BYTE   PEND 
// 013   ----------------------------------------
LabelMarbleCorridor_2_3660:
 BYTE   N04  Gn2  v092
 BYTE   W06
 BYTE   Fs2
 BYTE   W06
 BYTE   N96  En2
 BYTE   W96
 BYTE   PEND 
// 014   ----------------------------------------
LabelMarbleCorridor_2_39C0:
 BYTE   N02  En2  v092
 BYTE   W04
 BYTE   En2  v075
 BYTE   W04
 BYTE   En2  v060
 BYTE   W04
 BYTE   En2  v045
 BYTE   W04
 BYTE   En2  v030
 BYTE   W04
 BYTE   En2  v010
 BYTE   W04
 BYTE   N72  An2  v108
 BYTE   W72
 BYTE   PEND 
// 015   ----------------------------------------
LabelMarbleCorridor_2_3CC0:
 BYTE   N72  Cn3  v108
 BYTE   W72
 BYTE   N96  Cs2
 BYTE   W12
 BYTE   N48
 BYTE   W96
// 016   ----------------------------------------
 BYTE   W36
 BYTE   PEND 
// 017   ----------------------------------------
LabelMarbleCorridor_2_4380:
 BYTE   N96  Gs2  v108
 BYTE   W12
 BYTE   N24
 BYTE   W96
 BYTE   W12
 BYTE   PEND 
// 018   ----------------------------------------
LabelMarbleCorridor_2_4740:
 BYTE   N02  Gs2  v092
 BYTE   W04
 BYTE   Gs2  v075
 BYTE   W04
 BYTE   Gs2  v060
 BYTE   W04
 BYTE   Gs2  v045
 BYTE   W04
 BYTE   Gs2  v030
 BYTE   W04
 BYTE   Gs2  v010
 BYTE   W04
 BYTE   N06  Gs2  v092
 BYTE   W06
 BYTE   N04  Bn2
 BYTE   W06
 BYTE   Cs3
 BYTE   W06
 BYTE   Dn3
 BYTE   W06
 BYTE   N72  En3
 BYTE   W72
 BYTE   PEND 
// 019   ----------------------------------------
LabelMarbleCorridor_2_4B00:
 BYTE   N72  Ds3  v092
 BYTE   W72
 BYTE   N24  Gn3
 BYTE   W24
 BYTE   PEND 
// 020   ----------------------------------------
LabelMarbleCorridor_2_4E00:
 BYTE   N48  Cs4  v092
 BYTE   W48
 BYTE   N60  An3
 BYTE   W60
 BYTE   PEND 
// 021   ----------------------------------------
LabelMarbleCorridor_2_5160:
 BYTE   N04  Gs3  v092
 BYTE   W06
 BYTE   Fs3
 BYTE   W06
 BYTE   N96  En3
 BYTE   W12
 BYTE   N42
 BYTE   W96
 BYTE   W30
 BYTE   PEND 
// 022   ----------------------------------------
LabelMarbleCorridor_2_5610:
 BYTE   N04  Cs3  v092
 BYTE   W06
 BYTE   N96  Cn3
 BYTE   W96
 BYTE   W24
 BYTE   PEND 
// 023   ----------------------------------------
LabelMarbleCorridor_2_5A00:
 BYTE   N04  En3  v060
 BYTE   W06
 BYTE   Cn3
 BYTE   W06
 BYTE   Gs3
 BYTE   W12
 BYTE   Fs2
 BYTE   W06
 BYTE   En3
 BYTE   W06
 BYTE   Bn2
 BYTE   W06
 BYTE   Cs3
 BYTE   W12
 BYTE   Gs3
 BYTE   W12
 BYTE   Ds3
 BYTE   W12
 BYTE   Fs3
 BYTE   W06
 BYTE   En3
 BYTE   W06
 BYTE   Bn3
 BYTE   W06
 BYTE   PEND 
// 024   ----------------------------------------
LabelMarbleCorridor_2_5D00:
 BYTE   N04  Gs3  v060
 BYTE   W06
 BYTE   Ds4
 BYTE   W06
 BYTE   En4
 BYTE   W06
 BYTE   Ds4
 BYTE   W12
 BYTE   Ds4
 BYTE   W12
 BYTE   Gs4
 BYTE   W12
 BYTE   N24  Gs1  v092
 BYTE   W24
 BYTE   N06
 BYTE   W06
 BYTE   An1
 BYTE   W06
 BYTE   Bn1
 BYTE   W12
 BYTE   PEND 
// 025   ----------------------------------------
LabelMarbleCorridor_2_6030:
 BYTE   N24  Gs1  v092
 BYTE   W24
 BYTE   N06
 BYTE   W06
 BYTE   As1
 BYTE   W06
 BYTE   Bn1
 BYTE   W12
 BYTE   N24  Gs1
 BYTE   W24
 BYTE   N06  As1
 BYTE   W06
 BYTE   Bn1
 BYTE   W06
 BYTE   As1
 BYTE   W06
 BYTE   N72  Fs4
 BYTE   W72
 BYTE   PEND 
// 026   ----------------------------------------
LabelMarbleCorridor_2_6540:
 BYTE   N72  Ds4  v092
 BYTE   W78
 BYTE   N04  Cs2
 BYTE   W06
 BYTE   Cs2
 BYTE   W06
 BYTE   N12  En2
 BYTE   W12
 BYTE   PEND 
// 027   ----------------------------------------
LabelMarbleCorridor_2_6870:
 BYTE   N04  En2  v092
 BYTE   W12
 BYTE   Cs2
 BYTE   W06
 BYTE   Cs2
 BYTE   W06
 BYTE   N12  En2
 BYTE   W12
 BYTE   N04
 BYTE   W12
 BYTE   Cs2
 BYTE   W06
 BYTE   Cs2
 BYTE   W06
 BYTE   N12  En2
 BYTE   W12
 BYTE   N04
 BYTE   W12
 BYTE   N06  Fs2
 BYTE   W06
 BYTE   En2
 BYTE   W06
 BYTE   PEND 
// 028   ----------------------------------------
LabelMarbleCorridor_2_6B70:
 BYTE   N06  Ds2  v092
 BYTE   W06
 BYTE   Bn1
 BYTE   W06
 BYTE   Cs2
 BYTE   W06
 BYTE   N72  Fs4
 BYTE   W72
 BYTE   Ds4
 BYTE   W72
 BYTE   PEND 
// 029   ----------------------------------------
LabelMarbleCorridor_2_7080:
 BYTE   N72  Cn4  v092
 BYTE   W72
 BYTE   An3
 BYTE   W72
 BYTE   PEND 
// 030   ----------------------------------------
LabelMarbleCorridor_2_7500:
 BYTE   N04  Gs2  v092
 BYTE   W06
 BYTE   Gs2
 BYTE   W06
 BYTE   Gs3
 BYTE   W06
 BYTE   N12
 BYTE   W12
 BYTE   N04  Gs3  v093
 BYTE   W06
 BYTE   Gs2
 BYTE   W06
 BYTE   Gs2  v094
 BYTE   W06
 BYTE   Gs3  v095
 BYTE   W06
 BYTE   N12  Gs3  v096
 BYTE   W12
 BYTE   N04  Gs3  v098
 BYTE   W12
 BYTE   Gs3  v100
 BYTE   W06
 BYTE   Bn3  v101
 BYTE   W06
 BYTE   Fs3  v102
 BYTE   W06
 BYTE   PEND 
// 031   ----------------------------------------
LabelMarbleCorridor_2_7800:
 BYTE   N04  An3  v103
 BYTE   W06
 BYTE   Gs3  v104
 BYTE   W06
 BYTE   Cn3  v105
 BYTE   W06
 BYTE   Ds3  v106
 BYTE   W12
 BYTE   Cs4  v108
 BYTE   W06
 BYTE   N12  Cs3
 BYTE   W12
 BYTE   Cs3
 BYTE   W18
 BYTE   N04  Cs4
 BYTE   W06
 BYTE   N12  Cs3
 BYTE   W12
 BYTE   Cs3
 BYTE   W18
 BYTE   PEND 
// 032   ----------------------------------------
LabelMarbleCorridor_2_7B30:
 BYTE   N04  Cs4  v108
 BYTE   W06
 BYTE   Bn3
 BYTE   W06
 BYTE   Cs4
 BYTE   W06
 BYTE   Gs3
 BYTE   W06
 BYTE   Cs4
 BYTE   W06
 BYTE   Bn3
 BYTE   W06
 BYTE   Cs4
 BYTE   W18
 BYTE   N02  Bn3  v092
 BYTE   W03
 BYTE   Cs4  v093
 BYTE   W03
 BYTE   Bn3  v094
 BYTE   W03
 BYTE   An3  v095
 BYTE   W03
 BYTE   Gs3  v096
 BYTE   W03
 BYTE   An3  v097
 BYTE   W03
 BYTE   Gs3  v098
 BYTE   W03
 BYTE   Fs3  v100
 BYTE   W03
 BYTE   En3  v102
 BYTE   W03
 BYTE   Ds3  v104
 BYTE   W03
 BYTE   En3  v106
 BYTE   W03
 BYTE   Fs3  v108
 BYTE   W03
 BYTE   N96  Cs3  v092
 BYTE   W12
 BYTE   PEND 
// 033   ----------------------------------------
 BYTE   N84  Cs3  v092
 BYTE   W96
 BYTE   W72
 BYTE   PATT
  POIN2 LabelMarbleCorridor_2_0EA0
 BYTE   PATT
  POIN2 LabelMarbleCorridor_2_1260
// 034   ----------------------------------------
 BYTE   N96  Cs4  v092
 BYTE   W96
 BYTE   PATT
  POIN2 LabelMarbleCorridor_2_1A40
 BYTE   PATT
  POIN2 LabelMarbleCorridor_2_1F80
 BYTE   PATT
  POIN2 LabelMarbleCorridor_2_2370
 BYTE   PATT
  POIN2 LabelMarbleCorridor_2_27C0
 BYTE   PATT
  POIN2 LabelMarbleCorridor_2_2B80
 BYTE   PATT
  POIN2 LabelMarbleCorridor_2_2E80
 BYTE   PATT
  POIN2 LabelMarbleCorridor_2_31E0
 BYTE   PATT
  POIN2 LabelMarbleCorridor_2_3660
 BYTE   PATT
  POIN2 LabelMarbleCorridor_2_39C0
 BYTE   PATT
  POIN2 LabelMarbleCorridor_2_3CC0
 BYTE   PATT
  POIN2 LabelMarbleCorridor_2_4380
 BYTE   PATT
  POIN2 LabelMarbleCorridor_2_4740
 BYTE   PATT
  POIN2 LabelMarbleCorridor_2_4B00
 BYTE   PATT
  POIN2 LabelMarbleCorridor_2_4E00
 BYTE   PATT
  POIN2 LabelMarbleCorridor_2_5160
 BYTE   PATT
  POIN2 LabelMarbleCorridor_2_5610
 BYTE   PATT
  POIN2 LabelMarbleCorridor_2_5A00
 BYTE   PATT
  POIN2 LabelMarbleCorridor_2_5D00
 BYTE   PATT
  POIN2 LabelMarbleCorridor_2_6030
 BYTE   PATT
  POIN2 LabelMarbleCorridor_2_6540
 BYTE   PATT
  POIN2 LabelMarbleCorridor_2_6870
 BYTE   PATT
  POIN2 LabelMarbleCorridor_2_6B70
 BYTE   PATT
  POIN2 LabelMarbleCorridor_2_7080
 BYTE   PATT
  POIN2 LabelMarbleCorridor_2_7500
 BYTE   PATT
  POIN2 LabelMarbleCorridor_2_7800
 BYTE   PATT
  POIN2 LabelMarbleCorridor_2_7B30
// 035   ----------------------------------------
 BYTE   N84  Cs3  v092
 BYTE   W96
 BYTE   W72
 BYTE   PATT
  POIN2 LabelMarbleCorridor_2_0EA0
 BYTE   PATT
  POIN2 LabelMarbleCorridor_2_1260
// 036   ----------------------------------------
 BYTE   N96  Cs4  v092
 BYTE   W96
 BYTE   PATT
  POIN2 LabelMarbleCorridor_2_1A40
 BYTE   PATT
  POIN2 LabelMarbleCorridor_2_1F80
 BYTE   PATT
  POIN2 LabelMarbleCorridor_2_2370
 BYTE   PATT
  POIN2 LabelMarbleCorridor_2_27C0
 BYTE   PATT
  POIN2 LabelMarbleCorridor_2_2B80
 BYTE   PATT
  POIN2 LabelMarbleCorridor_2_2E80
 BYTE   PATT
  POIN2 LabelMarbleCorridor_2_31E0
 BYTE   PATT
  POIN2 LabelMarbleCorridor_2_3660
 BYTE   PATT
  POIN2 LabelMarbleCorridor_2_39C0
 BYTE   PATT
  POIN2 LabelMarbleCorridor_2_3CC0
 BYTE   PATT
  POIN2 LabelMarbleCorridor_2_4380
 BYTE   PATT
  POIN2 LabelMarbleCorridor_2_4740
 BYTE   PATT
  POIN2 LabelMarbleCorridor_2_4B00
 BYTE   PATT
  POIN2 LabelMarbleCorridor_2_4E00
 BYTE   PATT
  POIN2 LabelMarbleCorridor_2_5160
 BYTE   PATT
  POIN2 LabelMarbleCorridor_2_5610
 BYTE   PATT
  POIN2 LabelMarbleCorridor_2_5A00
 BYTE   PATT
  POIN2 LabelMarbleCorridor_2_5D00
 BYTE   PATT
  POIN2 LabelMarbleCorridor_2_6030
 BYTE   PATT
  POIN2 LabelMarbleCorridor_2_6540
 BYTE   PATT
  POIN2 LabelMarbleCorridor_2_6870
 BYTE   PATT
  POIN2 LabelMarbleCorridor_2_6B70
 BYTE   PATT
  POIN2 LabelMarbleCorridor_2_7080
 BYTE   PATT
  POIN2 LabelMarbleCorridor_2_7500
 BYTE   PATT
  POIN2 LabelMarbleCorridor_2_7800
// 037   ----------------------------------------
 BYTE   N04  Cs4  v108
 BYTE   W06
 BYTE   Bn3
 BYTE   W06
 BYTE   Cs4
 BYTE   W06
 BYTE   Gs3
 BYTE   W06
 BYTE   Cs4
 BYTE   W06
 BYTE   Bn3
 BYTE   W06
 BYTE   Cs4
 BYTE   W18
 BYTE   N02  Bn3  v092
 BYTE   W03
 BYTE   Cs4  v093
 BYTE   W03
 BYTE   Bn3  v094
 BYTE   W03
 BYTE   An3  v095
 BYTE   W03
 BYTE   Gs3  v096
 BYTE   W03
 BYTE   An3  v097
 BYTE   W03
 BYTE   Gs3  v098
 BYTE   W03
 BYTE   Fs3  v100
 BYTE   W03
 BYTE   En3  v102
 BYTE   W03
 BYTE   Ds3  v104
 BYTE   W03
 BYTE   En3  v106
 BYTE   W03
 BYTE   Fs3  v108
 BYTE   W03
 BYTE   GoTo
  POIN2 LabelMarbleCorridor_2_00
 BYTE   FINE

//**************** Track 4 (Midi-Chn.3) ****************//

songMarbleCorridor004:
// 000   ----------------------------------------
LabelMarbleCorridor_3_00:
 BYTE   TEMPO   112*songMarbleCorridortbs/2
 BYTE   KEYSH   songMarbleCorridorkey+0
 BYTE   VOICE   24
 BYTE   VOL   18*songMarbleCorridormvl/mxv
 BYTE   PAN   c_v+0
 BYTE   PAN   c_v+0
 BYTE   N06  En3  v060
 BYTE   W06
 BYTE   Cn3
 BYTE   W06
 BYTE   Gs3
 BYTE   W06
 BYTE   Ds3
 BYTE   W06
 BYTE   Fs2
 BYTE   W06
 BYTE   En3
 BYTE   W06
 BYTE   Bn2
 BYTE   W06
 BYTE   Cs3
 BYTE   W06
 BYTE   Bn2  v030
 BYTE   W06
 BYTE   Gs3  v060
 BYTE   W06
 BYTE   Bn2  v030
 BYTE   W06
 BYTE   Ds3  v060
 BYTE   W06
 BYTE   Bn2  v030
 BYTE   W06
 BYTE   Fs3  v060
 BYTE   W06
 BYTE   En3
 BYTE   W06
 BYTE   Bn3
 BYTE   W06
// 001   ----------------------------------------
 BYTE   Gs3
 BYTE   W06
 BYTE   Ds4
 BYTE   W06
 BYTE   En4
 BYTE   W06
 BYTE   Ds4
 BYTE   W06
 BYTE   En4  v030
 BYTE   W06
 BYTE   Bn3  v060
 BYTE   W06
 BYTE   Gs3
 BYTE   W06
 BYTE   Gs4
 BYTE   W06
 BYTE   Gs3  v030
 BYTE   W06
 BYTE   Ds4  v060
 BYTE   W06
 BYTE   Gs3  v030
 BYTE   W06
 BYTE   Fs4  v060
 BYTE   W06
 BYTE   Gs3  v030
 BYTE   W06
 BYTE   En4  v060
 BYTE   W06
 BYTE   Bn3
 BYTE   W06
 BYTE   En4  v030
 BYTE   W06
// 002   ----------------------------------------
 BYTE   Cs4  v060
 BYTE   W06
 BYTE   Gs4
 BYTE   W06
 BYTE   Ds5
 BYTE   W06
 BYTE   En5
 BYTE   W06
 BYTE   Ds5  v030
 BYTE   W06
 BYTE   Gs4  v060
 BYTE   W06
 BYTE   Cs5
 BYTE   W06
 BYTE   Bn4
 BYTE   W06
 BYTE   Cs5  v030
 BYTE   W06
 BYTE   Cs5  v060
 BYTE   W06
 BYTE   En4
 BYTE   W06
 BYTE   Bn4
 BYTE   W06
 BYTE   Gs4
 BYTE   W06
 BYTE   Cs5
 BYTE   W06
 BYTE   Bn4
 BYTE   W06
 BYTE   Cs5  v030
 BYTE   W06
// 003   ----------------------------------------
LabelMarbleCorridor_3_0900:
 BYTE   N24  Cs1  v108
 BYTE   W24
 BYTE   Cs1
 BYTE   W24
 BYTE   Cs1
 BYTE   W24
 BYTE   Cs1
 BYTE   W24
 BYTE   PEND 
 BYTE   PATT
  POIN2 LabelMarbleCorridor_3_0900
 BYTE   PATT
  POIN2 LabelMarbleCorridor_3_0900
// 004   ----------------------------------------
 BYTE   N06  Cs1  v108
 BYTE   W06
 BYTE   Cs1
 BYTE   W06
 BYTE   N04  Dn1
 BYTE   W04
 BYTE   En1
 BYTE   W04
 BYTE   Gn1
 BYTE   W04
 BYTE   N72  Gs1
 BYTE   W72
// 005   ----------------------------------------
 BYTE   N32  An1
 BYTE   W32
 BYTE   N05  En1
 BYTE   W08
 BYTE   Cs2
 BYTE   W08
 BYTE   Bn1
 BYTE   W08
 BYTE   An1
 BYTE   W08
 BYTE   Fs1
 BYTE   W08
 BYTE   N96  Gn1
 BYTE   W96
// 006   ----------------------------------------
LabelMarbleCorridor_3_1A40:
 BYTE   N05  Fs1  v108
 BYTE   W08
 BYTE   Ds1
 BYTE   W08
 BYTE   Cn1
 BYTE   W08
 BYTE   N24  Gs0
 BYTE   W24
 BYTE   Gs0
 BYTE   W24
 BYTE   Gs0
 BYTE   W24
 BYTE   PEND 
// 007   ----------------------------------------
LabelMarbleCorridor_3_1D40:
 BYTE   N24  Gs0  v108
 BYTE   W24
 BYTE   Gs0
 BYTE   W48
 BYTE   Cs1
 BYTE   W24
 BYTE   PEND 
// 008   ----------------------------------------
LabelMarbleCorridor_3_2040:
 BYTE   N24  Cs1  v108
 BYTE   W24
 BYTE   Cs1
 BYTE   W24
 BYTE   Cs1
 BYTE   W24
 BYTE   N30
 BYTE   W30
 BYTE   PEND 
// 009   ----------------------------------------
LabelMarbleCorridor_3_2370:
 BYTE   N06  En1  v108
 BYTE   W06
 BYTE   Cn1
 BYTE   W06
 BYTE   Ds1
 BYTE   W06
 BYTE   N24  Cs1
 BYTE   W24
 BYTE   Cs1
 BYTE   W24
 BYTE   Cs1
 BYTE   W24
 BYTE   Cs1
 BYTE   W24
 BYTE   PEND 
// 010   ----------------------------------------
LabelMarbleCorridor_3_2700:
 BYTE   N24  Cs1  v108
 BYTE   W48
 BYTE   N06
 BYTE   W06
 BYTE   Cs1
 BYTE   W06
 BYTE   Ds1
 BYTE   W06
 BYTE   En1
 BYTE   W06
 BYTE   Cs1
 BYTE   W06
 BYTE   Cs1
 BYTE   W06
 BYTE   Ds1
 BYTE   W06
 BYTE   En1
 BYTE   W06
 BYTE   PEND 
// 011   ----------------------------------------
LabelMarbleCorridor_3_2A00:
 BYTE   N06  Cs1  v108
 BYTE   W06
 BYTE   Cs1
 BYTE   W06
 BYTE   Ds1
 BYTE   W06
 BYTE   En1
 BYTE   W06
 BYTE   Cs1
 BYTE   W06
 BYTE   Cs1
 BYTE   W06
 BYTE   Ds1
 BYTE   W06
 BYTE   En1
 BYTE   W06
 BYTE   Cs1
 BYTE   W06
 BYTE   Cs1
 BYTE   W06
 BYTE   Ds1
 BYTE   W06
 BYTE   En1
 BYTE   W06
 BYTE   Cs1
 BYTE   W06
 BYTE   N04  En1
 BYTE   W06
 BYTE   Cn1
 BYTE   W06
 BYTE   Ds1
 BYTE   W06
 BYTE   PEND 
// 012   ----------------------------------------
LabelMarbleCorridor_3_2D00:
 BYTE   N06  Cs1  v108
 BYTE   W06
 BYTE   Cs1
 BYTE   W06
 BYTE   Ds1
 BYTE   W06
 BYTE   En1
 BYTE   W06
 BYTE   Cs1
 BYTE   W06
 BYTE   Cs1
 BYTE   W06
 BYTE   Ds1
 BYTE   W06
 BYTE   En1
 BYTE   W06
 BYTE   Cs1
 BYTE   W06
 BYTE   Cs1
 BYTE   W06
 BYTE   Ds1
 BYTE   W06
 BYTE   En1
 BYTE   W06
 BYTE   Cs1
 BYTE   W06
 BYTE   Cs1
 BYTE   W06
 BYTE   Ds1
 BYTE   W06
 BYTE   En1
 BYTE   W06
 BYTE   PEND 
// 013   ----------------------------------------
LabelMarbleCorridor_3_3000:
 BYTE   N06  Cs1  v108
 BYTE   W06
 BYTE   Cs1
 BYTE   W06
 BYTE   Ds1
 BYTE   W06
 BYTE   En1
 BYTE   W06
 BYTE   Cs1
 BYTE   W06
 BYTE   N04  En1
 BYTE   W06
 BYTE   Cn1
 BYTE   W06
 BYTE   Ds1
 BYTE   W06
 BYTE   N06  Cs1
 BYTE   W06
 BYTE   Cs1
 BYTE   W06
 BYTE   Ds1
 BYTE   W06
 BYTE   En1
 BYTE   W06
 BYTE   Cs1
 BYTE   W06
 BYTE   Cs1
 BYTE   W06
 BYTE   Ds1
 BYTE   W06
 BYTE   En1
 BYTE   W06
 BYTE   PEND 
 BYTE   PATT
  POIN2 LabelMarbleCorridor_3_2A00
 BYTE   PATT
  POIN2 LabelMarbleCorridor_3_2D00
// 014   ----------------------------------------
LabelMarbleCorridor_3_3900:
 BYTE   N06  Cs1  v108
 BYTE   W06
 BYTE   Cs1
 BYTE   W06
 BYTE   Ds1
 BYTE   W06
 BYTE   En1
 BYTE   W30
 BYTE   N72  Fs3
 BYTE   W72
 BYTE   PEND 
// 015   ----------------------------------------
LabelMarbleCorridor_3_3CC0:
 BYTE   N72  Ds3  v108
 BYTE   W72
 BYTE   N24  Cs1
 BYTE   W24
 BYTE   PEND 
 BYTE   PATT
  POIN2 LabelMarbleCorridor_3_2040
// 016   ----------------------------------------
LabelMarbleCorridor_3_42F0:
 BYTE   N04  Gs1  v108
 BYTE   W06
 BYTE   En1
 BYTE   W06
 BYTE   Gs1
 BYTE   W06
 BYTE   N24  Cs1
 BYTE   W24
 BYTE   Cs1
 BYTE   W24
 BYTE   Cs1
 BYTE   W24
 BYTE   Cs1
 BYTE   W24
 BYTE   PEND 
 BYTE   PATT
  POIN2 LabelMarbleCorridor_3_2700
// 017   ----------------------------------------
LabelMarbleCorridor_3_4980:
 BYTE   N06  Cs1  v108
 BYTE   W06
 BYTE   Cs1
 BYTE   W06
 BYTE   Ds1
 BYTE   W06
 BYTE   En1
 BYTE   W06
 BYTE   Cs1
 BYTE   W06
 BYTE   Cs1
 BYTE   W06
 BYTE   Ds1
 BYTE   W06
 BYTE   En1
 BYTE   W06
 BYTE   Cs1
 BYTE   W06
 BYTE   Cs1
 BYTE   W06
 BYTE   Ds1
 BYTE   W06
 BYTE   En1
 BYTE   W06
 BYTE   Cs1
 BYTE   W06
 BYTE   N04  Gs1
 BYTE   W06
 BYTE   En1
 BYTE   W06
 BYTE   En1
 BYTE   W06
 BYTE   PEND 
 BYTE   PATT
  POIN2 LabelMarbleCorridor_3_2D00
// 018   ----------------------------------------
LabelMarbleCorridor_3_4F80:
 BYTE   N06  Cs1  v108
 BYTE   W06
 BYTE   Cs1
 BYTE   W06
 BYTE   Ds1
 BYTE   W06
 BYTE   En1
 BYTE   W06
 BYTE   Cs1
 BYTE   W06
 BYTE   N04  Gs1
 BYTE   W06
 BYTE   En1
 BYTE   W06
 BYTE   Gs1
 BYTE   W06
 BYTE   N06  Cs1
 BYTE   W06
 BYTE   Cs1
 BYTE   W06
 BYTE   Ds1
 BYTE   W06
 BYTE   En1
 BYTE   W06
 BYTE   Cs1
 BYTE   W06
 BYTE   Cs1
 BYTE   W06
 BYTE   Ds1
 BYTE   W06
 BYTE   En1
 BYTE   W06
 BYTE   PEND 
// 019   ----------------------------------------
LabelMarbleCorridor_3_5280:
 BYTE   N06  Cs1  v108
 BYTE   W06
 BYTE   Cs1
 BYTE   W06
 BYTE   Ds1
 BYTE   W06
 BYTE   En1
 BYTE   W06
 BYTE   Cs1
 BYTE   W06
 BYTE   Cs1
 BYTE   W06
 BYTE   Ds1
 BYTE   W06
 BYTE   En1
 BYTE   W06
 BYTE   Cs1
 BYTE   W06
 BYTE   Cs1
 BYTE   W06
 BYTE   Ds1
 BYTE   W06
 BYTE   En1
 BYTE   W06
 BYTE   Cs1
 BYTE   W06
 BYTE   N04  Gs1
 BYTE   W06
 BYTE   En1
 BYTE   W06
 BYTE   Gs1
 BYTE   W06
 BYTE   PEND 
 BYTE   PATT
  POIN2 LabelMarbleCorridor_3_2D00
// 020   ----------------------------------------
LabelMarbleCorridor_3_5880:
 BYTE   N06  Cs1  v108
 BYTE   W06
 BYTE   Cs1
 BYTE   W06
 BYTE   Ds1
 BYTE   W06
 BYTE   En1
 BYTE   W30
 BYTE   N04  En3  v060
 BYTE   W06
 BYTE   Cn3
 BYTE   W06
 BYTE   Gs3
 BYTE   W06
 BYTE   Ds3
 BYTE   W06
 BYTE   Fs2
 BYTE   W06
 BYTE   En3
 BYTE   W06
 BYTE   Bn2
 BYTE   W06
 BYTE   Cs3
 BYTE   W06
 BYTE   PEND 
// 021   ----------------------------------------
LabelMarbleCorridor_3_5B80:
 BYTE   N04  Bn2  v030
 BYTE   W06
 BYTE   Gs3  v060
 BYTE   W06
 BYTE   Bn2  v030
 BYTE   W06
 BYTE   Ds3  v060
 BYTE   W06
 BYTE   Bn2  v030
 BYTE   W06
 BYTE   Fs3  v060
 BYTE   W06
 BYTE   En3
 BYTE   W06
 BYTE   Bn3
 BYTE   W06
 BYTE   Gs3
 BYTE   W06
 BYTE   Ds4
 BYTE   W06
 BYTE   En4
 BYTE   W06
 BYTE   Ds4
 BYTE   W06
 BYTE   En4  v030
 BYTE   W06
 BYTE   Bn3  v060
 BYTE   W06
 BYTE   Gs3
 BYTE   W06
 BYTE   Gs4
 BYTE   W12
 BYTE   PEND 
// 022   ----------------------------------------
LabelMarbleCorridor_3_5EB0:
 BYTE   N24  Cs1  v108
 BYTE   W24
 BYTE   N06
 BYTE   W06
 BYTE   Ds1
 BYTE   W06
 BYTE   En1
 BYTE   W12
 BYTE   N24  Cs1
 BYTE   W24
 BYTE   N06
 BYTE   W06
 BYTE   Ds1
 BYTE   W06
 BYTE   En1
 BYTE   W12
 BYTE   PEND 
// 023   ----------------------------------------
LabelMarbleCorridor_3_61B0:
 BYTE   N24  Cs1  v108
 BYTE   W24
 BYTE   N06  Ds1
 BYTE   W06
 BYTE   En1
 BYTE   W06
 BYTE   Ds1
 BYTE   W06
 BYTE   N72  An3
 BYTE   W72
 BYTE   PEND 
// 024   ----------------------------------------
LabelMarbleCorridor_3_6540:
 BYTE   N72  Cn4  v108
 BYTE   W78
 BYTE   N06  Cs1
 BYTE   W06
 BYTE   Cs1
 BYTE   W06
 BYTE   N12  En1
 BYTE   W12
 BYTE   PEND 
// 025   ----------------------------------------
LabelMarbleCorridor_3_6870:
 BYTE   N06  En1  v108
 BYTE   W12
 BYTE   Cs1
 BYTE   W06
 BYTE   Cs1
 BYTE   W06
 BYTE   N12  En1
 BYTE   W12
 BYTE   N06
 BYTE   W12
 BYTE   Cs1
 BYTE   W06
 BYTE   Cs1
 BYTE   W06
 BYTE   N12  En1
 BYTE   W12
 BYTE   N06
 BYTE   W12
 BYTE   Fs1
 BYTE   W06
 BYTE   En1
 BYTE   W06
 BYTE   PEND 
// 026   ----------------------------------------
LabelMarbleCorridor_3_6B70:
 BYTE   N06  Ds1  v108
 BYTE   W06
 BYTE   Bn0
 BYTE   W06
 BYTE   Cs1
 BYTE   W06
 BYTE   N72  An3
 BYTE   W72
 BYTE   Cn4
 BYTE   W72
 BYTE   PEND 
// 027   ----------------------------------------
LabelMarbleCorridor_3_7080:
 BYTE   N72  Ds3  v108
 BYTE   W72
 BYTE   Fs3
 BYTE   W72
 BYTE   PEND 
// 028   ----------------------------------------
LabelMarbleCorridor_3_7500:
 BYTE   N04  Gs0  v092
 BYTE   W06
 BYTE   Gs0
 BYTE   W06
 BYTE   Gs1
 BYTE   W06
 BYTE   N12
 BYTE   W12
 BYTE   N04  Gs1  v093
 BYTE   W06
 BYTE   Gs0
 BYTE   W06
 BYTE   Gs0  v094
 BYTE   W06
 BYTE   Gs1  v095
 BYTE   W06
 BYTE   N12  Gs1  v096
 BYTE   W12
 BYTE   N04  Gs1  v098
 BYTE   W12
 BYTE   Gs1  v100
 BYTE   W06
 BYTE   Bn1  v101
 BYTE   W06
 BYTE   Fs1  v102
 BYTE   W06
 BYTE   PEND 
// 029   ----------------------------------------
LabelMarbleCorridor_3_7800:
 BYTE   N04  An1  v103
 BYTE   W06
 BYTE   Gs1  v104
 BYTE   W06
 BYTE   Cn1  v105
 BYTE   W06
 BYTE   Ds1  v106
 BYTE   W12
 BYTE   Cs2  v108
 BYTE   W06
 BYTE   N12  Cs1
 BYTE   W12
 BYTE   Cs1
 BYTE   W18
 BYTE   N04  Cs2
 BYTE   W06
 BYTE   N12  Cs1
 BYTE   W12
 BYTE   Cs1
 BYTE   W18
 BYTE   PEND 
// 030   ----------------------------------------
LabelMarbleCorridor_3_7B30:
 BYTE   N04  Cs2  v108
 BYTE   W06
 BYTE   Bn1
 BYTE   W06
 BYTE   Cs2
 BYTE   W06
 BYTE   Gs1
 BYTE   W06
 BYTE   Cs2
 BYTE   W06
 BYTE   Bn1
 BYTE   W06
 BYTE   Cs2
 BYTE   W18
 BYTE   N02  Bn1  v092
 BYTE   W03
 BYTE   Cs2  v093
 BYTE   W03
 BYTE   Bn1  v094
 BYTE   W03
 BYTE   An1  v095
 BYTE   W03
 BYTE   Gs1  v096
 BYTE   W03
 BYTE   An1  v097
 BYTE   W03
 BYTE   Gs1  v098
 BYTE   W03
 BYTE   Fs1  v100
 BYTE   W03
 BYTE   En1  v102
 BYTE   W03
 BYTE   Ds1  v104
 BYTE   W03
 BYTE   En1  v106
 BYTE   W03
 BYTE   Fs1  v108
 BYTE   W03
 BYTE   N24  Cs1
 BYTE   W24
 BYTE   PEND 
 BYTE   PATT
  POIN2 LabelMarbleCorridor_3_0900
 BYTE   PATT
  POIN2 LabelMarbleCorridor_3_0900
// 031   ----------------------------------------
LabelMarbleCorridor_3_84C0:
 BYTE   N24  Cs1  v108
 BYTE   W24
 BYTE   Cs1
 BYTE   W24
 BYTE   Cs1
 BYTE   W24
 BYTE   N06
 BYTE   W06
 BYTE   Cs1
 BYTE   W06
 BYTE   N04  Dn1
 BYTE   W04
 BYTE   En1
 BYTE   W04
 BYTE   Gn1
 BYTE   W04
 BYTE   PEND 
// 032   ----------------------------------------
LabelMarbleCorridor_3_87C0:
 BYTE   N72  Gs1  v108
 BYTE   W72
 BYTE   N32  An1
 BYTE   W32
 BYTE   PEND 
// 033   ----------------------------------------
LabelMarbleCorridor_3_8B00:
 BYTE   N05  En1  v108
 BYTE   W08
 BYTE   Cs2
 BYTE   W08
 BYTE   Bn1
 BYTE   W08
 BYTE   An1
 BYTE   W08
 BYTE   Fs1
 BYTE   W08
 BYTE   N96  Gn1
 BYTE   W96
 BYTE   PEND 
 BYTE   PATT
  POIN2 LabelMarbleCorridor_3_1A40
 BYTE   PATT
  POIN2 LabelMarbleCorridor_3_1D40
 BYTE   PATT
  POIN2 LabelMarbleCorridor_3_2040
 BYTE   PATT
  POIN2 LabelMarbleCorridor_3_2370
 BYTE   PATT
  POIN2 LabelMarbleCorridor_3_2700
 BYTE   PATT
  POIN2 LabelMarbleCorridor_3_2A00
 BYTE   PATT
  POIN2 LabelMarbleCorridor_3_2D00
 BYTE   PATT
  POIN2 LabelMarbleCorridor_3_3000
 BYTE   PATT
  POIN2 LabelMarbleCorridor_3_2A00
 BYTE   PATT
  POIN2 LabelMarbleCorridor_3_2D00
 BYTE   PATT
  POIN2 LabelMarbleCorridor_3_3900
 BYTE   PATT
  POIN2 LabelMarbleCorridor_3_3CC0
 BYTE   PATT
  POIN2 LabelMarbleCorridor_3_2040
 BYTE   PATT
  POIN2 LabelMarbleCorridor_3_42F0
 BYTE   PATT
  POIN2 LabelMarbleCorridor_3_2700
 BYTE   PATT
  POIN2 LabelMarbleCorridor_3_4980
 BYTE   PATT
  POIN2 LabelMarbleCorridor_3_2D00
 BYTE   PATT
  POIN2 LabelMarbleCorridor_3_4F80
 BYTE   PATT
  POIN2 LabelMarbleCorridor_3_5280
 BYTE   PATT
  POIN2 LabelMarbleCorridor_3_2D00
 BYTE   PATT
  POIN2 LabelMarbleCorridor_3_5880
 BYTE   PATT
  POIN2 LabelMarbleCorridor_3_5B80
 BYTE   PATT
  POIN2 LabelMarbleCorridor_3_5EB0
 BYTE   PATT
  POIN2 LabelMarbleCorridor_3_61B0
 BYTE   PATT
  POIN2 LabelMarbleCorridor_3_6540
 BYTE   PATT
  POIN2 LabelMarbleCorridor_3_6870
 BYTE   PATT
  POIN2 LabelMarbleCorridor_3_6B70
 BYTE   PATT
  POIN2 LabelMarbleCorridor_3_7080
 BYTE   PATT
  POIN2 LabelMarbleCorridor_3_7500
 BYTE   PATT
  POIN2 LabelMarbleCorridor_3_7800
 BYTE   PATT
  POIN2 LabelMarbleCorridor_3_7B30
 BYTE   PATT
  POIN2 LabelMarbleCorridor_3_0900
 BYTE   PATT
  POIN2 LabelMarbleCorridor_3_0900
 BYTE   PATT
  POIN2 LabelMarbleCorridor_3_84C0
 BYTE   PATT
  POIN2 LabelMarbleCorridor_3_87C0
 BYTE   PATT
  POIN2 LabelMarbleCorridor_3_8B00
 BYTE   PATT
  POIN2 LabelMarbleCorridor_3_1A40
 BYTE   PATT
  POIN2 LabelMarbleCorridor_3_1D40
 BYTE   PATT
  POIN2 LabelMarbleCorridor_3_2040
 BYTE   PATT
  POIN2 LabelMarbleCorridor_3_2370
 BYTE   PATT
  POIN2 LabelMarbleCorridor_3_2700
 BYTE   PATT
  POIN2 LabelMarbleCorridor_3_2A00
 BYTE   PATT
  POIN2 LabelMarbleCorridor_3_2D00
 BYTE   PATT
  POIN2 LabelMarbleCorridor_3_3000
 BYTE   PATT
  POIN2 LabelMarbleCorridor_3_2A00
 BYTE   PATT
  POIN2 LabelMarbleCorridor_3_2D00
 BYTE   PATT
  POIN2 LabelMarbleCorridor_3_3900
 BYTE   PATT
  POIN2 LabelMarbleCorridor_3_3CC0
 BYTE   PATT
  POIN2 LabelMarbleCorridor_3_2040
 BYTE   PATT
  POIN2 LabelMarbleCorridor_3_42F0
 BYTE   PATT
  POIN2 LabelMarbleCorridor_3_2700
 BYTE   PATT
  POIN2 LabelMarbleCorridor_3_4980
 BYTE   PATT
  POIN2 LabelMarbleCorridor_3_2D00
 BYTE   PATT
  POIN2 LabelMarbleCorridor_3_4F80
 BYTE   PATT
  POIN2 LabelMarbleCorridor_3_5280
 BYTE   PATT
  POIN2 LabelMarbleCorridor_3_2D00
 BYTE   PATT
  POIN2 LabelMarbleCorridor_3_5880
 BYTE   PATT
  POIN2 LabelMarbleCorridor_3_5B80
 BYTE   PATT
  POIN2 LabelMarbleCorridor_3_5EB0
 BYTE   PATT
  POIN2 LabelMarbleCorridor_3_61B0
 BYTE   PATT
  POIN2 LabelMarbleCorridor_3_6540
 BYTE   PATT
  POIN2 LabelMarbleCorridor_3_6870
 BYTE   PATT
  POIN2 LabelMarbleCorridor_3_6B70
 BYTE   PATT
  POIN2 LabelMarbleCorridor_3_7080
 BYTE   PATT
  POIN2 LabelMarbleCorridor_3_7500
 BYTE   PATT
  POIN2 LabelMarbleCorridor_3_7800
// 034   ----------------------------------------
 BYTE   N04  Cs2  v108
 BYTE   W06
 BYTE   Bn1
 BYTE   W06
 BYTE   Cs2
 BYTE   W06
 BYTE   Gs1
 BYTE   W06
 BYTE   Cs2
 BYTE   W06
 BYTE   Bn1
 BYTE   W06
 BYTE   Cs2
 BYTE   W18
 BYTE   N02  Bn1  v092
 BYTE   W03
 BYTE   Cs2  v093
 BYTE   W03
 BYTE   Bn1  v094
 BYTE   W03
 BYTE   An1  v095
 BYTE   W03
 BYTE   Gs1  v096
 BYTE   W03
 BYTE   An1  v097
 BYTE   W03
 BYTE   Gs1  v098
 BYTE   W03
 BYTE   Fs1  v100
 BYTE   W03
 BYTE   En1  v102
 BYTE   W03
 BYTE   Ds1  v104
 BYTE   W03
 BYTE   En1  v106
 BYTE   W03
 BYTE   Fs1  v108
 BYTE   W03
 BYTE   GoTo
  POIN2 LabelMarbleCorridor_3_00
 BYTE   FINE

//**************** Track 5 (Midi-Chn.4) ****************//

songMarbleCorridor005:
// 000   ----------------------------------------
LabelMarbleCorridor_4_00:
 BYTE   TEMPO   112*songMarbleCorridortbs/2
 BYTE   KEYSH   songMarbleCorridorkey+0
 BYTE   VOICE   11
 BYTE   VOL   19*songMarbleCorridormvl/mxv
 BYTE   PAN   c_v+0
 BYTE   PAN   c_v+0
 BYTE   N12  Fs2  v092
 BYTE   W12
 BYTE   N06  Fs2  v075
 BYTE   W06
 BYTE   Fs2  v060
 BYTE   W12
 BYTE   Fs2  v045
 BYTE   W42
 BYTE   Fs2  v092
 BYTE   W06
 BYTE   N12  Fs2  v075
 BYTE   W12
 BYTE   N06  Fs2  v045
 BYTE   W54
// 001   ----------------------------------------
 BYTE   Fs2  v092
 BYTE   W06
 BYTE   N12  Fs2  v075
 BYTE   W12
 BYTE   N06  Fs2  v060
 BYTE   W54
 BYTE   Fs2  v092
 BYTE   W06
 BYTE   N12  Fs2  v075
 BYTE   W12
 BYTE   N06  Fs2  v060
 BYTE   W18
// 002   ----------------------------------------
 BYTE   Gs2  v092
 BYTE   W06
 BYTE   N12  Gs2  v075
 BYTE   W12
 BYTE   N06  Gs2  v060
 BYTE   W30
 BYTE   En4  v045
 BYTE   W06
 BYTE   Cs5
 BYTE   W06
 BYTE   Ds5
 BYTE   W06
 BYTE   Cs5
 BYTE   W06
 BYTE   En5
 BYTE   W06
 BYTE   Fs5
 BYTE   W06
 BYTE   Ds5
 BYTE   W06
 BYTE   Fs5
 BYTE   W06
// 003   ----------------------------------------
 BYTE   Ds5  v010
 BYTE   W06
 BYTE   En5  v045
 BYTE   W06
 BYTE   Gs4
 BYTE   W06
 BYTE   En5  v010
 BYTE   W06
 BYTE   Ds5  v045
 BYTE   W06
 BYTE   Gs4
 BYTE   W06
 BYTE   Bn4
 BYTE   W06
 BYTE   Ds5
 BYTE   W06
 BYTE   Cs5
 BYTE   W06
 BYTE   Ds5
 BYTE   W06
 BYTE   Gs4
 BYTE   W06
 BYTE   Ds5
 BYTE   W06
 BYTE   Gs4
 BYTE   W06
 BYTE   Cs5
 BYTE   W06
 BYTE   Ds5
 BYTE   W06
 BYTE   Gs4
 BYTE   W06
// 004   ----------------------------------------
 BYTE   Ds5
 BYTE   W06
 BYTE   Gs4
 BYTE   W06
 BYTE   Cs5
 BYTE   W06
 BYTE   Ds5
 BYTE   W06
 BYTE   Gs4
 BYTE   W06
 BYTE   Ds5
 BYTE   W06
 BYTE   Gs4
 BYTE   W06
 BYTE   En5
 BYTE   W06
 BYTE   Fs5
 BYTE   W06
 BYTE   An4
 BYTE   W06
 BYTE   Fs5
 BYTE   W06
 BYTE   An4
 BYTE   W06
 BYTE   En5
 BYTE   W06
 BYTE   Fs5
 BYTE   W06
 BYTE   An4
 BYTE   W06
 BYTE   Fs5
 BYTE   W06
// 005   ----------------------------------------
 BYTE   An4
 BYTE   W06
 BYTE   En5
 BYTE   W06
 BYTE   Fs5
 BYTE   W06
 BYTE   An4
 BYTE   W06
 BYTE   Fs5
 BYTE   W06
 BYTE   An4
 BYTE   W06
 BYTE   En5
 BYTE   W06
 BYTE   Fs5
 BYTE   W06
 BYTE   An4
 BYTE   W06
 BYTE   Fs5
 BYTE   W06
 BYTE   Cn5
 BYTE   W06
 BYTE   Gs5
 BYTE   W06
 BYTE   Ds5
 BYTE   W06
 BYTE   Gs5
 BYTE   W06
 BYTE   Ds5
 BYTE   W06
 BYTE   Cn5
 BYTE   W06
// 006   ----------------------------------------
 BYTE   Gs5
 BYTE   W06
 BYTE   Ds5
 BYTE   W06
 BYTE   Gs5
 BYTE   W06
 BYTE   Ds5
 BYTE   W06
 BYTE   Cn5
 BYTE   W06
 BYTE   Gs5
 BYTE   W06
 BYTE   Ds5
 BYTE   W06
 BYTE   Gs5
 BYTE   W06
 BYTE   Ds5
 BYTE   W06
 BYTE   Cn5
 BYTE   W06
 BYTE   Gs5
 BYTE   W06
 BYTE   Ds5
 BYTE   W06
 BYTE   Fs5
 BYTE   W06
 BYTE   Ds5
 BYTE   W06
 BYTE   Cn5
 BYTE   W06
 BYTE   Gs5
 BYTE   W06
// 007   ----------------------------------------
 BYTE   Ds5
 BYTE   W06
 BYTE   Fs5
 BYTE   W06
 BYTE   Ds5
 BYTE   W06
 BYTE   Cn5
 BYTE   W06
 BYTE   Gs5
 BYTE   W06
 BYTE   An4
 BYTE   W06
 BYTE   Fs5
 BYTE   W06
 BYTE   An4
 BYTE   W06
 BYTE   Cn5
 BYTE   W06
 BYTE   Gs5
 BYTE   W06
 BYTE   An4
 BYTE   W06
 BYTE   Fs5
 BYTE   W06
 BYTE   An4
 BYTE   W06
 BYTE   Cn5
 BYTE   W06
 BYTE   Gs5
 BYTE   W06
 BYTE   An4
 BYTE   W06
// 008   ----------------------------------------
 BYTE   Fs5
 BYTE   W06
 BYTE   An4
 BYTE   W06
 BYTE   Cn5
 BYTE   W06
 BYTE   Gs5
 BYTE   W06
 BYTE   An4
 BYTE   W06
 BYTE   Fs5
 BYTE   W06
 BYTE   Cn5
 BYTE   W06
 BYTE   Gs5
 BYTE   W06
 BYTE   Ds5
 BYTE   W06
 BYTE   An4
 BYTE   W06
 BYTE   Fs5
 BYTE   W06
 BYTE   Cn5
 BYTE   W06
 BYTE   Ds4
 BYTE   W06
 BYTE   Ds5
 BYTE   W06
 BYTE   An4
 BYTE   W06
 BYTE   Cn4
 BYTE   W06
// 009   ----------------------------------------
 BYTE   Cn5
 BYTE   W06
 BYTE   Ds4
 BYTE   W06
 BYTE   Gs3
 BYTE   W06
 BYTE   Fs4
 BYTE   W06
 BYTE   Cn4
 BYTE   W06
 BYTE   Ds3
 BYTE   W06
 BYTE   Cs4
 BYTE   W06
 BYTE   An3
 BYTE   W06
 BYTE   Cn3
 BYTE   W06
 BYTE   Cn4
 BYTE   W06
 BYTE   Ds3
 BYTE   W06
 BYTE   An3
 BYTE   W06
 BYTE   En3
 BYTE   W06
 BYTE   Cn3
 BYTE   W06
 BYTE   N96  Cs3  v092
 BYTE   W12
// 010   ----------------------------------------
 BYTE   N30
 BYTE   W96
 BYTE   W36
// 011   ----------------------------------------
LabelMarbleCorridor_4_2400:
 BYTE   N96  Gs3  v092
 BYTE   W12
 BYTE   N24
 BYTE   W96
 BYTE   W48
 BYTE   PEND 
// 012   ----------------------------------------
LabelMarbleCorridor_4_28E0:
 BYTE   N06  En4  v045
 BYTE   W06
 BYTE   Cs5
 BYTE   W06
 BYTE   Ds5
 BYTE   W06
 BYTE   Cs5
 BYTE   W06
 BYTE   En5
 BYTE   W06
 BYTE   Fs5
 BYTE   W06
 BYTE   Ds5
 BYTE   W06
 BYTE   Fs5
 BYTE   W06
 BYTE   Ds5  v010
 BYTE   W06
 BYTE   En5  v045
 BYTE   W06
 BYTE   Gs4
 BYTE   W06
 BYTE   En5  v010
 BYTE   W06
 BYTE   Ds5  v045
 BYTE   W06
 BYTE   Gs4
 BYTE   W06
 BYTE   Bn4
 BYTE   W06
 BYTE   Ds5
 BYTE   W06
 BYTE   PEND 
// 013   ----------------------------------------
LabelMarbleCorridor_4_2BE0:
 BYTE   N06  Cs5  v045
 BYTE   W06
 BYTE   Ds5
 BYTE   W06
 BYTE   Gs4
 BYTE   W06
 BYTE   Ds5
 BYTE   W06
 BYTE   Gs4
 BYTE   W06
 BYTE   Cs5
 BYTE   W06
 BYTE   Ds5
 BYTE   W06
 BYTE   Gs4
 BYTE   W06
 BYTE   Ds5
 BYTE   W06
 BYTE   Gs4
 BYTE   W06
 BYTE   Cs5
 BYTE   W06
 BYTE   Ds5
 BYTE   W06
 BYTE   Gs4
 BYTE   W06
 BYTE   Ds5
 BYTE   W06
 BYTE   Gs4
 BYTE   W06
 BYTE   En5
 BYTE   W06
 BYTE   PEND 
// 014   ----------------------------------------
LabelMarbleCorridor_4_2EE0:
 BYTE   N06  Fs5  v045
 BYTE   W06
 BYTE   An4
 BYTE   W06
 BYTE   Fs5
 BYTE   W06
 BYTE   An4
 BYTE   W06
 BYTE   En5
 BYTE   W06
 BYTE   Fs5
 BYTE   W06
 BYTE   An4
 BYTE   W06
 BYTE   Fs5
 BYTE   W06
 BYTE   An4
 BYTE   W06
 BYTE   En5
 BYTE   W06
 BYTE   Fs5
 BYTE   W06
 BYTE   An4
 BYTE   W06
 BYTE   Fs5
 BYTE   W06
 BYTE   An4
 BYTE   W06
 BYTE   En5
 BYTE   W06
 BYTE   Fs5
 BYTE   W06
 BYTE   PEND 
// 015   ----------------------------------------
LabelMarbleCorridor_4_31E0:
 BYTE   N06  An4  v045
 BYTE   W06
 BYTE   Fs5
 BYTE   W06
 BYTE   Cn5
 BYTE   W06
 BYTE   Gs5
 BYTE   W06
 BYTE   Ds5
 BYTE   W06
 BYTE   Gs5
 BYTE   W06
 BYTE   Ds5
 BYTE   W06
 BYTE   Cn5
 BYTE   W06
 BYTE   Gs5
 BYTE   W06
 BYTE   Ds5
 BYTE   W06
 BYTE   Gs5
 BYTE   W06
 BYTE   Ds5
 BYTE   W06
 BYTE   Cn5
 BYTE   W06
 BYTE   Gs5
 BYTE   W06
 BYTE   Ds5
 BYTE   W06
 BYTE   Gs5
 BYTE   W06
 BYTE   PEND 
// 016   ----------------------------------------
LabelMarbleCorridor_4_34E0:
 BYTE   N06  Ds5  v045
 BYTE   W06
 BYTE   Cn5
 BYTE   W06
 BYTE   Gs5
 BYTE   W06
 BYTE   Ds5
 BYTE   W06
 BYTE   Fs5
 BYTE   W06
 BYTE   Ds5
 BYTE   W06
 BYTE   Cn5
 BYTE   W06
 BYTE   Gs5
 BYTE   W06
 BYTE   Ds5
 BYTE   W06
 BYTE   Fs5
 BYTE   W06
 BYTE   Ds5
 BYTE   W06
 BYTE   Cn5
 BYTE   W06
 BYTE   Gs5
 BYTE   W06
 BYTE   An4
 BYTE   W06
 BYTE   Fs5
 BYTE   W06
 BYTE   An4
 BYTE   W06
 BYTE   PEND 
// 017   ----------------------------------------
LabelMarbleCorridor_4_37E0:
 BYTE   N06  Cn5  v045
 BYTE   W06
 BYTE   Gs5
 BYTE   W06
 BYTE   An4
 BYTE   W06
 BYTE   Fs5
 BYTE   W06
 BYTE   An4
 BYTE   W06
 BYTE   Cn5
 BYTE   W06
 BYTE   Gs5
 BYTE   W06
 BYTE   An4
 BYTE   W06
 BYTE   Fs5
 BYTE   W06
 BYTE   An4
 BYTE   W06
 BYTE   Cn5
 BYTE   W06
 BYTE   Gs5
 BYTE   W06
 BYTE   An4
 BYTE   W06
 BYTE   Fs5
 BYTE   W06
 BYTE   N72  Fs4  v092
 BYTE   W72
 BYTE   PEND 
// 018   ----------------------------------------
LabelMarbleCorridor_4_3CC0:
 BYTE   N72  Ds4  v092
 BYTE   W72
 BYTE   N96  Cs3
 BYTE   W12
 BYTE   N48
 BYTE   W96
// 019   ----------------------------------------
 BYTE   W36
 BYTE   PEND 
// 020   ----------------------------------------
LabelMarbleCorridor_4_4380:
 BYTE   N96  Gs3  v092
 BYTE   W12
 BYTE   N24
 BYTE   W96
 BYTE   W12
 BYTE   PEND 
// 021   ----------------------------------------
LabelMarbleCorridor_4_4740:
 BYTE   N02  Gs3  v092
 BYTE   W04
 BYTE   Gs3  v075
 BYTE   W04
 BYTE   Gs3  v060
 BYTE   W04
 BYTE   Gs3  v045
 BYTE   W04
 BYTE   Gs3  v030
 BYTE   W04
 BYTE   Gs3  v010
 BYTE   W16
 BYTE   N06  En4  v060
 BYTE   W06
 BYTE   Cs5
 BYTE   W06
 BYTE   Ds5
 BYTE   W06
 BYTE   Cs5
 BYTE   W06
 BYTE   En5
 BYTE   W06
 BYTE   Fs5
 BYTE   W06
 BYTE   Ds5
 BYTE   W06
 BYTE   Fs5
 BYTE   W06
 BYTE   Ds5  v030
 BYTE   W06
 BYTE   En5  v060
 BYTE   W06
 BYTE   PEND 
// 022   ----------------------------------------
LabelMarbleCorridor_4_4A40:
 BYTE   N06  Gs4  v060
 BYTE   W06
 BYTE   En5  v030
 BYTE   W06
 BYTE   Ds5  v060
 BYTE   W06
 BYTE   Gs4
 BYTE   W06
 BYTE   Bn4
 BYTE   W06
 BYTE   Ds5
 BYTE   W06
 BYTE   Cs5
 BYTE   W06
 BYTE   Ds5
 BYTE   W06
 BYTE   Gs4
 BYTE   W06
 BYTE   Ds5
 BYTE   W06
 BYTE   Gs4
 BYTE   W06
 BYTE   Cs5
 BYTE   W06
 BYTE   Ds5
 BYTE   W06
 BYTE   Gs4
 BYTE   W06
 BYTE   Ds5
 BYTE   W06
 BYTE   Gs4
 BYTE   W06
 BYTE   PEND 
// 023   ----------------------------------------
LabelMarbleCorridor_4_4D40:
 BYTE   N06  Cs5  v060
 BYTE   W06
 BYTE   Ds5
 BYTE   W06
 BYTE   Gs4
 BYTE   W06
 BYTE   Ds5
 BYTE   W06
 BYTE   Gs4
 BYTE   W06
 BYTE   En5
 BYTE   W06
 BYTE   Fs5
 BYTE   W06
 BYTE   An4
 BYTE   W06
 BYTE   Fs5
 BYTE   W06
 BYTE   An4
 BYTE   W06
 BYTE   En5
 BYTE   W06
 BYTE   Fs5
 BYTE   W06
 BYTE   An4
 BYTE   W06
 BYTE   Fs5
 BYTE   W06
 BYTE   An4
 BYTE   W06
 BYTE   En5
 BYTE   W06
 BYTE   PEND 
// 024   ----------------------------------------
LabelMarbleCorridor_4_5040:
 BYTE   N06  Fs5  v060
 BYTE   W06
 BYTE   An4
 BYTE   W06
 BYTE   Fs5
 BYTE   W06
 BYTE   An4
 BYTE   W06
 BYTE   En5
 BYTE   W06
 BYTE   Fs5
 BYTE   W06
 BYTE   An4
 BYTE   W06
 BYTE   Fs5
 BYTE   W06
 BYTE   Cn5
 BYTE   W06
 BYTE   Gs5
 BYTE   W06
 BYTE   Ds5
 BYTE   W06
 BYTE   Gs5
 BYTE   W06
 BYTE   Ds5
 BYTE   W06
 BYTE   Cn5
 BYTE   W06
 BYTE   Gs5
 BYTE   W06
 BYTE   Ds5
 BYTE   W06
 BYTE   PEND 
// 025   ----------------------------------------
LabelMarbleCorridor_4_5340:
 BYTE   N06  Gs5  v060
 BYTE   W06
 BYTE   Ds5
 BYTE   W06
 BYTE   Cn5
 BYTE   W06
 BYTE   Gs5
 BYTE   W06
 BYTE   Ds5
 BYTE   W06
 BYTE   Gs5
 BYTE   W06
 BYTE   Ds5
 BYTE   W06
 BYTE   Cn5
 BYTE   W06
 BYTE   Gs5
 BYTE   W06
 BYTE   Ds5
 BYTE   W06
 BYTE   Fs5
 BYTE   W06
 BYTE   Ds5
 BYTE   W06
 BYTE   Cn5
 BYTE   W06
 BYTE   Gs5
 BYTE   W06
 BYTE   Ds5
 BYTE   W06
 BYTE   An4
 BYTE   W06
 BYTE   PEND 
// 026   ----------------------------------------
LabelMarbleCorridor_4_5640:
 BYTE   N06  Fs5  v060
 BYTE   W06
 BYTE   Cn5
 BYTE   W06
 BYTE   Ds4
 BYTE   W06
 BYTE   Ds5
 BYTE   W06
 BYTE   An4
 BYTE   W06
 BYTE   Cn4
 BYTE   W06
 BYTE   Cn5
 BYTE   W06
 BYTE   Ds4
 BYTE   W06
 BYTE   Gs3
 BYTE   W06
 BYTE   Fs4
 BYTE   W06
 BYTE   Cn4
 BYTE   W06
 BYTE   Ds3
 BYTE   W06
 BYTE   Cs4
 BYTE   W06
 BYTE   An3
 BYTE   W06
 BYTE   Cn3
 BYTE   W06
 BYTE   Cn4
 BYTE   W06
 BYTE   PEND 
// 027   ----------------------------------------
LabelMarbleCorridor_4_5940:
 BYTE   N06  Ds3  v060
 BYTE   W06
 BYTE   An3
 BYTE   W06
 BYTE   En3
 BYTE   W06
 BYTE   Cn3
 BYTE   W06
 BYTE   N04  Fs3  v092
 BYTE   W06
 BYTE   En4
 BYTE   W06
 BYTE   Bn3
 BYTE   W06
 BYTE   Cs4
 BYTE   W06
 BYTE   Bn3  v060
 BYTE   W06
 BYTE   Gs4  v092
 BYTE   W06
 BYTE   Bn3  v060
 BYTE   W06
 BYTE   Ds4  v092
 BYTE   W06
 BYTE   Bn3  v060
 BYTE   W06
 BYTE   Fs4  v092
 BYTE   W06
 BYTE   En4
 BYTE   W06
 BYTE   Bn4
 BYTE   W06
 BYTE   PEND 
// 028   ----------------------------------------
LabelMarbleCorridor_4_5C40:
 BYTE   N04  Gs4  v092
 BYTE   W06
 BYTE   Ds5
 BYTE   W06
 BYTE   En5
 BYTE   W06
 BYTE   Ds5
 BYTE   W06
 BYTE   En5  v060
 BYTE   W06
 BYTE   Bn4  v092
 BYTE   W06
 BYTE   Gs4
 BYTE   W06
 BYTE   Gs5
 BYTE   W06
 BYTE   Gs4  v060
 BYTE   W06
 BYTE   Ds5  v092
 BYTE   W06
 BYTE   Gs4  v060
 BYTE   W06
 BYTE   Fs5  v092
 BYTE   W12
 BYTE   N30  Gs2  v075
 BYTE   W30
 BYTE   PEND 
// 029   ----------------------------------------
LabelMarbleCorridor_4_5FA0:
 BYTE   N06  Gs2  v075
 BYTE   W06
 BYTE   Gs2
 BYTE   W12
 BYTE   N24
 BYTE   W24
 BYTE   N06
 BYTE   W06
 BYTE   Gs2
 BYTE   W06
 BYTE   Gs2
 BYTE   W12
 BYTE   N24
 BYTE   W24
 BYTE   N06
 BYTE   W06
 BYTE   PEND 
// 030   ----------------------------------------
LabelMarbleCorridor_4_62A0:
 BYTE   N06  Gs2  v075
 BYTE   W06
 BYTE   Gs2
 BYTE   W06
 BYTE   N72  Fs4  v092
 BYTE   W72
 BYTE   Ds4
 BYTE   W78
 BYTE   PEND 
// 031   ----------------------------------------
LabelMarbleCorridor_4_67B0:
 BYTE   N04  Cs4  v092
 BYTE   W06
 BYTE   Cs4
 BYTE   W06
 BYTE   N12  En4
 BYTE   W12
 BYTE   N04
 BYTE   W12
 BYTE   Cs4
 BYTE   W06
 BYTE   Cs4
 BYTE   W06
 BYTE   N12  En4
 BYTE   W12
 BYTE   N04
 BYTE   W12
 BYTE   Cs4
 BYTE   W06
 BYTE   Cs4
 BYTE   W06
 BYTE   N12  En4
 BYTE   W12
 BYTE   PEND 
// 032   ----------------------------------------
LabelMarbleCorridor_4_6AB0:
 BYTE   N04  En4  v092
 BYTE   W12
 BYTE   N06  Fs4
 BYTE   W06
 BYTE   En4
 BYTE   W06
 BYTE   Ds4
 BYTE   W06
 BYTE   Bn3
 BYTE   W06
 BYTE   Cs4
 BYTE   W06
 BYTE   N72  Cn4
 BYTE   W72
 BYTE   PEND 
// 033   ----------------------------------------
LabelMarbleCorridor_4_6E40:
 BYTE   N72  An3  v092
 BYTE   W72
 BYTE   Fs3
 BYTE   W72
 BYTE   PEND 
// 034   ----------------------------------------
LabelMarbleCorridor_4_72C0:
 BYTE   N72  Ds3  v092
 BYTE   W72
 BYTE   N04  Gs2
 BYTE   W06
 BYTE   Gs2
 BYTE   W06
 BYTE   Gs3
 BYTE   W06
 BYTE   N12
 BYTE   W12
 BYTE   PEND 
// 035   ----------------------------------------
LabelMarbleCorridor_4_75F0:
 BYTE   N04  Gs3  v093
 BYTE   W06
 BYTE   Gs2
 BYTE   W06
 BYTE   Gs2  v094
 BYTE   W06
 BYTE   Gs3  v095
 BYTE   W06
 BYTE   N12  Gs3  v096
 BYTE   W12
 BYTE   N04  Gs3  v098
 BYTE   W12
 BYTE   Gs3  v100
 BYTE   W06
 BYTE   Bn3  v101
 BYTE   W06
 BYTE   Fs3  v102
 BYTE   W06
 BYTE   An3  v103
 BYTE   W06
 BYTE   Gs3  v104
 BYTE   W06
 BYTE   Cn3  v105
 BYTE   W06
 BYTE   Ds3  v106
 BYTE   W12
 BYTE   PEND 
// 036   ----------------------------------------
LabelMarbleCorridor_4_78F0:
 BYTE   N04  Cs3  v108
 BYTE   W06
 BYTE   N12  Cs2
 BYTE   W12
 BYTE   Cs2
 BYTE   W18
 BYTE   N04  Cs3
 BYTE   W06
 BYTE   N12  Cs2
 BYTE   W12
 BYTE   Cs2
 BYTE   W18
 BYTE   N04  Cs3
 BYTE   W06
 BYTE   Bn2
 BYTE   W06
 BYTE   Cs3
 BYTE   W06
 BYTE   Gs2
 BYTE   W06
 BYTE   PEND 
// 037   ----------------------------------------
LabelMarbleCorridor_4_7BF0:
 BYTE   N04  Cs3  v108
 BYTE   W06
 BYTE   Bn2
 BYTE   W06
 BYTE   Cs3
 BYTE   W18
 BYTE   N02  Bn2  v092
 BYTE   W03
 BYTE   Cs3  v093
 BYTE   W03
 BYTE   Bn2  v094
 BYTE   W03
 BYTE   An2  v095
 BYTE   W03
 BYTE   Gs2  v096
 BYTE   W03
 BYTE   An2  v097
 BYTE   W03
 BYTE   Gs2  v098
 BYTE   W03
 BYTE   Fs2  v100
 BYTE   W03
 BYTE   En2  v102
 BYTE   W03
 BYTE   Ds2  v104
 BYTE   W03
 BYTE   En2  v106
 BYTE   W03
 BYTE   Fs2  v108
 BYTE   W15
 BYTE   N06  En4  v045
 BYTE   W06
 BYTE   Cs5
 BYTE   W06
 BYTE   Ds5
 BYTE   W06
 BYTE   PEND 
// 038   ----------------------------------------
LabelMarbleCorridor_4_7EF0:
 BYTE   N06  Cs5  v045
 BYTE   W06
 BYTE   En5
 BYTE   W06
 BYTE   Fs5
 BYTE   W06
 BYTE   Ds5
 BYTE   W06
 BYTE   Fs5
 BYTE   W06
 BYTE   Ds5  v010
 BYTE   W06
 BYTE   En5  v045
 BYTE   W06
 BYTE   Gs4
 BYTE   W06
 BYTE   En5  v010
 BYTE   W06
 BYTE   Ds5  v045
 BYTE   W06
 BYTE   Gs4
 BYTE   W06
 BYTE   Bn4
 BYTE   W06
 BYTE   Ds5
 BYTE   W06
 BYTE   Cs5
 BYTE   W06
 BYTE   Ds5
 BYTE   W06
 BYTE   Gs4
 BYTE   W06
 BYTE   PEND 
// 039   ----------------------------------------
LabelMarbleCorridor_4_81F0:
 BYTE   N06  Ds5  v045
 BYTE   W06
 BYTE   Gs4
 BYTE   W06
 BYTE   Cs5
 BYTE   W06
 BYTE   Ds5
 BYTE   W06
 BYTE   Gs4
 BYTE   W06
 BYTE   Ds5
 BYTE   W06
 BYTE   Gs4
 BYTE   W06
 BYTE   Cs5
 BYTE   W06
 BYTE   Ds5
 BYTE   W06
 BYTE   Gs4
 BYTE   W06
 BYTE   Ds5
 BYTE   W06
 BYTE   Gs4
 BYTE   W06
 BYTE   En5
 BYTE   W06
 BYTE   Fs5
 BYTE   W06
 BYTE   An4
 BYTE   W06
 BYTE   Fs5
 BYTE   W06
 BYTE   PEND 
// 040   ----------------------------------------
LabelMarbleCorridor_4_84F0:
 BYTE   N06  An4  v045
 BYTE   W06
 BYTE   En5
 BYTE   W06
 BYTE   Fs5
 BYTE   W06
 BYTE   An4
 BYTE   W06
 BYTE   Fs5
 BYTE   W06
 BYTE   An4
 BYTE   W06
 BYTE   En5
 BYTE   W06
 BYTE   Fs5
 BYTE   W06
 BYTE   An4
 BYTE   W06
 BYTE   Fs5
 BYTE   W06
 BYTE   An4
 BYTE   W06
 BYTE   En5
 BYTE   W06
 BYTE   Fs5
 BYTE   W06
 BYTE   An4
 BYTE   W06
 BYTE   Fs5
 BYTE   W06
 BYTE   Cn5
 BYTE   W06
 BYTE   PEND 
// 041   ----------------------------------------
LabelMarbleCorridor_4_87F0:
 BYTE   N06  Gs5  v045
 BYTE   W06
 BYTE   Ds5
 BYTE   W06
 BYTE   Gs5
 BYTE   W06
 BYTE   Ds5
 BYTE   W06
 BYTE   Cn5
 BYTE   W06
 BYTE   Gs5
 BYTE   W06
 BYTE   Ds5
 BYTE   W06
 BYTE   Gs5
 BYTE   W06
 BYTE   Ds5
 BYTE   W06
 BYTE   Cn5
 BYTE   W06
 BYTE   Gs5
 BYTE   W06
 BYTE   Ds5
 BYTE   W06
 BYTE   Gs5
 BYTE   W06
 BYTE   Ds5
 BYTE   W06
 BYTE   Cn5
 BYTE   W06
 BYTE   Gs5
 BYTE   W06
 BYTE   PEND 
// 042   ----------------------------------------
LabelMarbleCorridor_4_8AF0:
 BYTE   N06  Ds5  v045
 BYTE   W06
 BYTE   Fs5
 BYTE   W06
 BYTE   Ds5
 BYTE   W06
 BYTE   Cn5
 BYTE   W06
 BYTE   Gs5
 BYTE   W06
 BYTE   Ds5
 BYTE   W06
 BYTE   Fs5
 BYTE   W06
 BYTE   Ds5
 BYTE   W06
 BYTE   Cn5
 BYTE   W06
 BYTE   Gs5
 BYTE   W06
 BYTE   An4
 BYTE   W06
 BYTE   Fs5
 BYTE   W06
 BYTE   An4
 BYTE   W06
 BYTE   Cn5
 BYTE   W06
 BYTE   Gs5
 BYTE   W06
 BYTE   An4
 BYTE   W06
 BYTE   PEND 
// 043   ----------------------------------------
LabelMarbleCorridor_4_8DF0:
 BYTE   N06  Fs5  v045
 BYTE   W06
 BYTE   An4
 BYTE   W06
 BYTE   Cn5
 BYTE   W06
 BYTE   Gs5
 BYTE   W06
 BYTE   An4
 BYTE   W06
 BYTE   Fs5
 BYTE   W06
 BYTE   An4
 BYTE   W06
 BYTE   Cn5
 BYTE   W06
 BYTE   Gs5
 BYTE   W06
 BYTE   An4
 BYTE   W06
 BYTE   Fs5
 BYTE   W06
 BYTE   Cn5
 BYTE   W06
 BYTE   Gs5
 BYTE   W06
 BYTE   Ds5
 BYTE   W06
 BYTE   An4
 BYTE   W06
 BYTE   Fs5
 BYTE   W06
 BYTE   PEND 
// 044   ----------------------------------------
LabelMarbleCorridor_4_90F0:
 BYTE   N06  Cn5  v045
 BYTE   W06
 BYTE   Ds4
 BYTE   W06
 BYTE   Ds5
 BYTE   W06
 BYTE   An4
 BYTE   W06
 BYTE   Cn4
 BYTE   W06
 BYTE   Cn5
 BYTE   W06
 BYTE   Ds4
 BYTE   W06
 BYTE   Gs3
 BYTE   W06
 BYTE   Fs4
 BYTE   W06
 BYTE   Cn4
 BYTE   W06
 BYTE   Ds3
 BYTE   W06
 BYTE   Cs4
 BYTE   W06
 BYTE   An3
 BYTE   W06
 BYTE   Cn3
 BYTE   W06
 BYTE   Cn4
 BYTE   W06
 BYTE   Ds3
 BYTE   W06
 BYTE   PEND 
// 045   ----------------------------------------
LabelMarbleCorridor_4_93F0:
 BYTE   N06  An3  v045
 BYTE   W06
 BYTE   En3
 BYTE   W06
 BYTE   Cn3
 BYTE   W06
 BYTE   N96  Cs3  v092
 BYTE   W12
 BYTE   N30
 BYTE   W96
 BYTE   W36
 BYTE   PEND 
 BYTE   PATT
  POIN2 LabelMarbleCorridor_4_2400
 BYTE   PATT
  POIN2 LabelMarbleCorridor_4_28E0
 BYTE   PATT
  POIN2 LabelMarbleCorridor_4_2BE0
 BYTE   PATT
  POIN2 LabelMarbleCorridor_4_2EE0
 BYTE   PATT
  POIN2 LabelMarbleCorridor_4_31E0
 BYTE   PATT
  POIN2 LabelMarbleCorridor_4_34E0
 BYTE   PATT
  POIN2 LabelMarbleCorridor_4_37E0
 BYTE   PATT
  POIN2 LabelMarbleCorridor_4_3CC0
 BYTE   PATT
  POIN2 LabelMarbleCorridor_4_4380
 BYTE   PATT
  POIN2 LabelMarbleCorridor_4_4740
 BYTE   PATT
  POIN2 LabelMarbleCorridor_4_4A40
 BYTE   PATT
  POIN2 LabelMarbleCorridor_4_4D40
 BYTE   PATT
  POIN2 LabelMarbleCorridor_4_5040
 BYTE   PATT
  POIN2 LabelMarbleCorridor_4_5340
 BYTE   PATT
  POIN2 LabelMarbleCorridor_4_5640
 BYTE   PATT
  POIN2 LabelMarbleCorridor_4_5940
 BYTE   PATT
  POIN2 LabelMarbleCorridor_4_5C40
 BYTE   PATT
  POIN2 LabelMarbleCorridor_4_5FA0
 BYTE   PATT
  POIN2 LabelMarbleCorridor_4_62A0
 BYTE   PATT
  POIN2 LabelMarbleCorridor_4_67B0
 BYTE   PATT
  POIN2 LabelMarbleCorridor_4_6AB0
 BYTE   PATT
  POIN2 LabelMarbleCorridor_4_6E40
 BYTE   PATT
  POIN2 LabelMarbleCorridor_4_72C0
 BYTE   PATT
  POIN2 LabelMarbleCorridor_4_75F0
 BYTE   PATT
  POIN2 LabelMarbleCorridor_4_78F0
 BYTE   PATT
  POIN2 LabelMarbleCorridor_4_7BF0
 BYTE   PATT
  POIN2 LabelMarbleCorridor_4_7EF0
 BYTE   PATT
  POIN2 LabelMarbleCorridor_4_81F0
 BYTE   PATT
  POIN2 LabelMarbleCorridor_4_84F0
 BYTE   PATT
  POIN2 LabelMarbleCorridor_4_87F0
 BYTE   PATT
  POIN2 LabelMarbleCorridor_4_8AF0
 BYTE   PATT
  POIN2 LabelMarbleCorridor_4_8DF0
 BYTE   PATT
  POIN2 LabelMarbleCorridor_4_90F0
 BYTE   PATT
  POIN2 LabelMarbleCorridor_4_93F0
 BYTE   PATT
  POIN2 LabelMarbleCorridor_4_2400
 BYTE   PATT
  POIN2 LabelMarbleCorridor_4_28E0
 BYTE   PATT
  POIN2 LabelMarbleCorridor_4_2BE0
 BYTE   PATT
  POIN2 LabelMarbleCorridor_4_2EE0
 BYTE   PATT
  POIN2 LabelMarbleCorridor_4_31E0
 BYTE   PATT
  POIN2 LabelMarbleCorridor_4_34E0
 BYTE   PATT
  POIN2 LabelMarbleCorridor_4_37E0
 BYTE   PATT
  POIN2 LabelMarbleCorridor_4_3CC0
 BYTE   PATT
  POIN2 LabelMarbleCorridor_4_4380
 BYTE   PATT
  POIN2 LabelMarbleCorridor_4_4740
 BYTE   PATT
  POIN2 LabelMarbleCorridor_4_4A40
 BYTE   PATT
  POIN2 LabelMarbleCorridor_4_4D40
 BYTE   PATT
  POIN2 LabelMarbleCorridor_4_5040
 BYTE   PATT
  POIN2 LabelMarbleCorridor_4_5340
 BYTE   PATT
  POIN2 LabelMarbleCorridor_4_5640
 BYTE   PATT
  POIN2 LabelMarbleCorridor_4_5940
 BYTE   PATT
  POIN2 LabelMarbleCorridor_4_5C40
 BYTE   PATT
  POIN2 LabelMarbleCorridor_4_5FA0
 BYTE   PATT
  POIN2 LabelMarbleCorridor_4_62A0
 BYTE   PATT
  POIN2 LabelMarbleCorridor_4_67B0
 BYTE   PATT
  POIN2 LabelMarbleCorridor_4_6AB0
 BYTE   PATT
  POIN2 LabelMarbleCorridor_4_6E40
 BYTE   PATT
  POIN2 LabelMarbleCorridor_4_72C0
 BYTE   PATT
  POIN2 LabelMarbleCorridor_4_75F0
 BYTE   PATT
  POIN2 LabelMarbleCorridor_4_78F0
// 046   ----------------------------------------
 BYTE   N04  Cs3  v108
 BYTE   W06
 BYTE   Bn2
 BYTE   W06
 BYTE   Cs3
 BYTE   W18
 BYTE   N02  Bn2  v092
 BYTE   W03
 BYTE   Cs3  v093
 BYTE   W03
 BYTE   Bn2  v094
 BYTE   W03
 BYTE   An2  v095
 BYTE   W03
 BYTE   Gs2  v096
 BYTE   W03
 BYTE   An2  v097
 BYTE   W03
 BYTE   Gs2  v098
 BYTE   W03
 BYTE   Fs2  v100
 BYTE   W03
 BYTE   En2  v102
 BYTE   W03
 BYTE   Ds2  v104
 BYTE   W03
 BYTE   En2  v106
 BYTE   W03
 BYTE   Fs2  v108
 BYTE   W03
 BYTE   GoTo
  POIN2 LabelMarbleCorridor_4_00
 BYTE   FINE

//**************** Track 6 (Midi-Chn.5) ****************//

songMarbleCorridor006:
// 000   ----------------------------------------
LabelMarbleCorridor_5_00:
 BYTE   TEMPO   112*songMarbleCorridortbs/2
 BYTE   KEYSH   songMarbleCorridorkey+0
 BYTE   VOICE   40
 BYTE   VOL   16*songMarbleCorridormvl/mxv
 BYTE   PAN   c_v+0
 BYTE   PAN   c_v+0
 BYTE   N12  Fs3  v092
 BYTE   W12
 BYTE   N06  Fs3  v075
 BYTE   W06
 BYTE   Fs3  v060
 BYTE   W12
 BYTE   Fs3  v045
 BYTE   W42
 BYTE   Fs3  v092
 BYTE   W06
 BYTE   N12  Fs3  v075
 BYTE   W12
 BYTE   N06  Fs3  v045
 BYTE   W54
// 001   ----------------------------------------
 BYTE   Fs3  v092
 BYTE   W06
 BYTE   N12  Fs3  v075
 BYTE   W12
 BYTE   N06  Fs3  v060
 BYTE   W54
 BYTE   Fs3  v092
 BYTE   W06
 BYTE   N12  Fs3  v075
 BYTE   W12
 BYTE   N06  Fs3  v060
 BYTE   W18
// 002   ----------------------------------------
 BYTE   Gs3  v092
 BYTE   W06
 BYTE   N12  Gs3  v075
 BYTE   W12
 BYTE   N06  Gs3  v060
 BYTE   W18
 BYTE   N96  Cs3  v092
 BYTE   W12
 BYTE   N84
 BYTE   W96
 BYTE   W72
// 003   ----------------------------------------
LabelMarbleCorridor_5_0EA0:
 BYTE   N04  An2  v092
 BYTE   W06
 BYTE   En3
 BYTE   W06
 BYTE   N96  Cs3
 BYTE   W12
 BYTE   N12
 BYTE   W96
 BYTE   PEND 
// 004   ----------------------------------------
LabelMarbleCorridor_5_1260:
 BYTE   N04  Ds3  v092
 BYTE   W04
 BYTE   Gs3
 BYTE   W04
 BYTE   Cn4
 BYTE   W04
 BYTE   N72  Ds4
 BYTE   W72
 BYTE   En4
 BYTE   W72
 BYTE   PEND 
// 005   ----------------------------------------
 BYTE   N96  Cs4  v092
 BYTE   W96
// 006   ----------------------------------------
LabelMarbleCorridor_5_1A40:
 BYTE   N05  Cn4  v092
 BYTE   W08
 BYTE   Gs3
 BYTE   W08
 BYTE   Fs3
 BYTE   W08
 BYTE   N96  Ds3
 BYTE   W12
 BYTE   N24
 BYTE   W96
 BYTE   W36
 BYTE   PEND 
// 007   ----------------------------------------
LabelMarbleCorridor_5_1F80:
 BYTE   N96  Gs2  v075
 BYTE   W12
 BYTE   N30
 BYTE   W96
 BYTE   W36
 BYTE   PEND 
// 008   ----------------------------------------
LabelMarbleCorridor_5_2400:
 BYTE   N96  Cs3  v075
 BYTE   W12
 BYTE   N24
 BYTE   W96
 BYTE   W60
 BYTE   PEND 
// 009   ----------------------------------------
LabelMarbleCorridor_5_2940:
 BYTE   N72  Cs3  v075
 BYTE   W72
 BYTE   As2
 BYTE   W72
 BYTE   PEND 
// 010   ----------------------------------------
LabelMarbleCorridor_5_2DC0:
 BYTE   N24  As1  v075
 BYTE   W24
 BYTE   N96  Fs2
 BYTE   W12
 BYTE   N12
 BYTE   W96
 BYTE   PEND 
// 011   ----------------------------------------
LabelMarbleCorridor_5_31E0:
 BYTE   N04  Ds2  v075
 BYTE   W06
 BYTE   Cn2
 BYTE   W06
 BYTE   N96  Cs2
 BYTE   W12
 BYTE   N36
 BYTE   W96
 BYTE   W36
 BYTE   PEND 
// 012   ----------------------------------------
 BYTE   N84  Gs2  v075
 BYTE   W96
 BYTE   W24
// 013   ----------------------------------------
LabelMarbleCorridor_5_3A80:
 BYTE   N72  Ds3  v075
 BYTE   W72
 BYTE   Gs3
 BYTE   W72
 BYTE   PEND 
// 014   ----------------------------------------
LabelMarbleCorridor_5_3F00:
 BYTE   N96  Gs3  v075
 BYTE   W12
 BYTE   N48
 BYTE   W96
 BYTE   W36
 BYTE   PEND 
// 015   ----------------------------------------
LabelMarbleCorridor_5_4380:
 BYTE   N96  Cs3  v075
 BYTE   W12
 BYTE   N12
 BYTE   W96
 BYTE   W60
 BYTE   PEND 
 BYTE   PATT
  POIN2 LabelMarbleCorridor_5_2940
// 016   ----------------------------------------
LabelMarbleCorridor_5_4D40:
 BYTE   N24  As2  v075
 BYTE   W24
 BYTE   N96  Fs3
 BYTE   W12
 BYTE   N12
 BYTE   W96
 BYTE   PEND 
// 017   ----------------------------------------
LabelMarbleCorridor_5_5160:
 BYTE   N04  Ds3  v075
 BYTE   W06
 BYTE   Cn3
 BYTE   W06
 BYTE   N96  Cs3
 BYTE   W12
 BYTE   N36
 BYTE   W96
 BYTE   W36
 BYTE   PEND 
// 018   ----------------------------------------
 BYTE   N84  Gs3  v075
 BYTE   W96
 BYTE   W24
// 019   ----------------------------------------
LabelMarbleCorridor_5_5A00:
 BYTE   N12  Fs3  v092
 BYTE   W12
 BYTE   N06  Fs3  v075
 BYTE   W06
 BYTE   Fs3  v060
 BYTE   W12
 BYTE   Fs3  v045
 BYTE   W42
 BYTE   Fs3  v092
 BYTE   W06
 BYTE   N12  Fs3  v075
 BYTE   W12
 BYTE   N06  Fs3  v045
 BYTE   W60
 BYTE   PEND 
// 020   ----------------------------------------
LabelMarbleCorridor_5_5EB0:
 BYTE   N24  Cs2  v092
 BYTE   W24
 BYTE   N06
 BYTE   W06
 BYTE   Ds2
 BYTE   W06
 BYTE   En2
 BYTE   W12
 BYTE   N24  Cs2
 BYTE   W24
 BYTE   N06
 BYTE   W06
 BYTE   Ds2
 BYTE   W06
 BYTE   En2
 BYTE   W12
 BYTE   PEND 
// 021   ----------------------------------------
LabelMarbleCorridor_5_61B0:
 BYTE   N24  Cs2  v092
 BYTE   W24
 BYTE   N06  Ds2
 BYTE   W06
 BYTE   En2
 BYTE   W06
 BYTE   Ds2
 BYTE   W06
 BYTE   N72  Ds3
 BYTE   W72
 BYTE   PEND 
// 022   ----------------------------------------
LabelMarbleCorridor_5_6540:
 BYTE   N72  Gs3  v092
 BYTE   W78
 BYTE   N04  Cs2
 BYTE   W06
 BYTE   Cs2
 BYTE   W06
 BYTE   N12  En2
 BYTE   W12
 BYTE   PEND 
// 023   ----------------------------------------
LabelMarbleCorridor_5_6870:
 BYTE   N04  En2  v092
 BYTE   W12
 BYTE   Cs2
 BYTE   W06
 BYTE   Cs2
 BYTE   W06
 BYTE   N12  En2
 BYTE   W12
 BYTE   N04
 BYTE   W12
 BYTE   Cs2
 BYTE   W06
 BYTE   Cs2
 BYTE   W06
 BYTE   N12  En2
 BYTE   W12
 BYTE   N04
 BYTE   W12
 BYTE   N06  Fs2
 BYTE   W06
 BYTE   En2
 BYTE   W06
 BYTE   PEND 
// 024   ----------------------------------------
LabelMarbleCorridor_5_6B70:
 BYTE   N06  Ds2  v092
 BYTE   W06
 BYTE   Bn1
 BYTE   W06
 BYTE   Cs2
 BYTE   W06
 BYTE   N72  Fs4
 BYTE   W72
 BYTE   Ds4
 BYTE   W72
 BYTE   PEND 
// 025   ----------------------------------------
LabelMarbleCorridor_5_7080:
 BYTE   N72  Fs4  v092
 BYTE   W72
 BYTE   Ds4
 BYTE   W96
 BYTE   W96
// 026   ----------------------------------------
 BYTE   W96
 BYTE   W72
 BYTE   PEND 
// 027   ----------------------------------------
LabelMarbleCorridor_5_7E00:
 BYTE   N96  Cs3  v092
 BYTE   W12
 BYTE   N84
 BYTE   W96
 BYTE   W72
 BYTE   PEND 
 BYTE   PATT
  POIN2 LabelMarbleCorridor_5_0EA0
 BYTE   PATT
  POIN2 LabelMarbleCorridor_5_1260
// 028   ----------------------------------------
 BYTE   N96  Cs4  v092
 BYTE   W96
 BYTE   PATT
  POIN2 LabelMarbleCorridor_5_1A40
 BYTE   PATT
  POIN2 LabelMarbleCorridor_5_1F80
 BYTE   PATT
  POIN2 LabelMarbleCorridor_5_2400
 BYTE   PATT
  POIN2 LabelMarbleCorridor_5_2940
 BYTE   PATT
  POIN2 LabelMarbleCorridor_5_2DC0
 BYTE   PATT
  POIN2 LabelMarbleCorridor_5_31E0
// 029   ----------------------------------------
 BYTE   N84  Gs2  v075
 BYTE   W96
 BYTE   W24
 BYTE   PATT
  POIN2 LabelMarbleCorridor_5_3A80
 BYTE   PATT
  POIN2 LabelMarbleCorridor_5_3F00
 BYTE   PATT
  POIN2 LabelMarbleCorridor_5_4380
 BYTE   PATT
  POIN2 LabelMarbleCorridor_5_2940
 BYTE   PATT
  POIN2 LabelMarbleCorridor_5_4D40
 BYTE   PATT
  POIN2 LabelMarbleCorridor_5_5160
// 030   ----------------------------------------
 BYTE   N84  Gs3  v075
 BYTE   W96
 BYTE   W24
 BYTE   PATT
  POIN2 LabelMarbleCorridor_5_5A00
 BYTE   PATT
  POIN2 LabelMarbleCorridor_5_5EB0
 BYTE   PATT
  POIN2 LabelMarbleCorridor_5_61B0
 BYTE   PATT
  POIN2 LabelMarbleCorridor_5_6540
 BYTE   PATT
  POIN2 LabelMarbleCorridor_5_6870
 BYTE   PATT
  POIN2 LabelMarbleCorridor_5_6B70
 BYTE   PATT
  POIN2 LabelMarbleCorridor_5_7080
 BYTE   PATT
  POIN2 LabelMarbleCorridor_5_7E00
 BYTE   PATT
  POIN2 LabelMarbleCorridor_5_0EA0
 BYTE   PATT
  POIN2 LabelMarbleCorridor_5_1260
// 031   ----------------------------------------
 BYTE   N96  Cs4  v092
 BYTE   W96
 BYTE   PATT
  POIN2 LabelMarbleCorridor_5_1A40
 BYTE   PATT
  POIN2 LabelMarbleCorridor_5_1F80
 BYTE   PATT
  POIN2 LabelMarbleCorridor_5_2400
 BYTE   PATT
  POIN2 LabelMarbleCorridor_5_2940
 BYTE   PATT
  POIN2 LabelMarbleCorridor_5_2DC0
 BYTE   PATT
  POIN2 LabelMarbleCorridor_5_31E0
// 032   ----------------------------------------
 BYTE   N84  Gs2  v075
 BYTE   W96
 BYTE   W24
 BYTE   PATT
  POIN2 LabelMarbleCorridor_5_3A80
 BYTE   PATT
  POIN2 LabelMarbleCorridor_5_3F00
 BYTE   PATT
  POIN2 LabelMarbleCorridor_5_4380
 BYTE   PATT
  POIN2 LabelMarbleCorridor_5_2940
 BYTE   PATT
  POIN2 LabelMarbleCorridor_5_4D40
 BYTE   PATT
  POIN2 LabelMarbleCorridor_5_5160
// 033   ----------------------------------------
 BYTE   N84  Gs3  v075
 BYTE   W96
 BYTE   W24
 BYTE   PATT
  POIN2 LabelMarbleCorridor_5_5A00
 BYTE   PATT
  POIN2 LabelMarbleCorridor_5_5EB0
 BYTE   PATT
  POIN2 LabelMarbleCorridor_5_61B0
 BYTE   PATT
  POIN2 LabelMarbleCorridor_5_6540
 BYTE   PATT
  POIN2 LabelMarbleCorridor_5_6870
 BYTE   PATT
  POIN2 LabelMarbleCorridor_5_6B70
 BYTE   PATT
  POIN2 LabelMarbleCorridor_5_7080
// 034   ----------------------------------------
 BYTE   GoTo
  POIN2 LabelMarbleCorridor_5_00
 BYTE   FINE

//**************** Track 7 (Midi-Chn.6) ****************//

songMarbleCorridor007:
// 000   ----------------------------------------
LabelMarbleCorridor_6_00:
 BYTE   TEMPO   112*songMarbleCorridortbs/2
 BYTE   KEYSH   songMarbleCorridorkey+0
 BYTE   VOICE   0
 BYTE   VOL   17*songMarbleCorridormvl/mxv
 BYTE   PAN   c_v+0
 BYTE   PAN   c_v+0
 BYTE   PAN   c_v+0
 BYTE   PAN   c_v+0
 BYTE   W96
 BYTE   W96
 BYTE   W96
// 001   ----------------------------------------
 BYTE   N05  Cn1  v108
 BYTE   N20  Cs2  v127
 BYTE   W06
 BYTE   N05  Cn1  v108
 BYTE   W06
 BYTE   Cn1
 BYTE   W06
 BYTE   Cn1
 BYTE   W12
 BYTE   Dn1
 BYTE   N05  Fs1
 BYTE   W06
 BYTE   Cn1
 BYTE   N05  Gs1
 BYTE   W06
 BYTE   Cn1
 BYTE   N05  Gs1
 BYTE   W06
 BYTE   Bn1
 BYTE   N05  Fs1
 BYTE   W06
 BYTE   Dn1
 BYTE   N05  Fs1
 BYTE   W06
 BYTE   Gs1
 BYTE   W06
 BYTE   Dn1
 BYTE   N05  Gs1
 BYTE   W06
 BYTE   Cn1
 BYTE   N05  Fs1
 BYTE   W06
 BYTE   Fs1
 BYTE   W06
 BYTE   Cn1
 BYTE   N05  Gs1
 BYTE   W06
 BYTE   Gs1
 BYTE   W06
// 002   ----------------------------------------
 BYTE   Dn1
 BYTE   N05  Fs1
 BYTE   W06
 BYTE   Cn1
 BYTE   N05  Fs1
 BYTE   W06
 BYTE   Gs1
 BYTE   W06
 BYTE   Cn1
 BYTE   N05  Gs1
 BYTE   W06
 BYTE   Cn1
 BYTE   N05  Fs1
 BYTE   W06
 BYTE   Dn1
 BYTE   N05  Fs1
 BYTE   W06
 BYTE   Gs1
 BYTE   W06
 BYTE   Cn1
 BYTE   N05  Gs1
 BYTE   W06
 BYTE   Cn1
 BYTE   N05  Fs1
 BYTE   W06
 BYTE   Fs1
 BYTE   W06
 BYTE   Cn1
 BYTE   N05  Gs1
 BYTE   W06
 BYTE   Gs1
 BYTE   W06
 BYTE   Dn1
 BYTE   N05  Fs1
 BYTE   W06
 BYTE   Fs1
 BYTE   W06
 BYTE   Gs1
 BYTE   W06
 BYTE   Dn1
 BYTE   N05  Gs1
 BYTE   W06
// 003   ----------------------------------------
 BYTE   Cn1
 BYTE   N05  Fs1
 BYTE   W06
 BYTE   Cn1
 BYTE   N05  Fs1
 BYTE   W06
 BYTE   Gs1
 BYTE   W06
 BYTE   N02  Cn1
 BYTE   N05  Gs1
 BYTE   W03
 BYTE   N02  Cn1
 BYTE   W03
 BYTE   N05
 BYTE   N05  Fs1
 BYTE   W06
 BYTE   Dn1
 BYTE   N05  Fs1
 BYTE   W06
 BYTE   Cn1
 BYTE   N05  Gs1
 BYTE   W06
 BYTE   Gs1
 BYTE   W06
 BYTE   Dn1
 BYTE   N05  Fs1
 BYTE   W06
 BYTE   Cn1
 BYTE   N05  Fs1
 BYTE   W06
 BYTE   Gs1
 BYTE   W06
 BYTE   Cn1
 BYTE   N05  Gs1
 BYTE   W06
 BYTE   Fs1
 BYTE   W06
 BYTE   Dn1
 BYTE   N05  Fs1
 BYTE   W06
 BYTE   Cn1
 BYTE   N05  As1
 BYTE   W06
 BYTE   Gs1
 BYTE   W06
// 004   ----------------------------------------
 BYTE   N03  Cn1
 BYTE   N05  Fs1
 BYTE   W04
 BYTE   N03  Dn1
 BYTE   W02
 BYTE   N05  Fs1
 BYTE   W02
 BYTE   N03  Dn1
 BYTE   W04
 BYTE   Cn1
 BYTE   N05  As1
 BYTE   W06
 BYTE   Gs1
 BYTE   W02
 BYTE   N03  Cn1
 BYTE   W04
 BYTE   N05  Fs1
 BYTE   N05  Cn1
 BYTE   N23  En2
 BYTE   N23  Gn2
 BYTE   W06
 BYTE   N05  Fs1
 BYTE   W06
 BYTE   As1
 BYTE   W06
 BYTE   Gs1
 BYTE   W06
 BYTE   Fs1
 BYTE   N05  Cn1
 BYTE   N20  En2  v075
 BYTE   N20  Gn2
 BYTE   W06
 BYTE   N05  Fs1  v108
 BYTE   W06
 BYTE   As1
 BYTE   W06
 BYTE   Gs1
 BYTE   W06
 BYTE   Fs1
 BYTE   N20  Cn1
 BYTE   W06
 BYTE   N05  Fs1
 BYTE   W06
 BYTE   As1
 BYTE   W06
 BYTE   Gs1
 BYTE   W06
// 005   ----------------------------------------
 BYTE   Fs1
 BYTE   N23  Cn1
 BYTE   W06
 BYTE   N05  Fs1
 BYTE   W06
 BYTE   As1
 BYTE   W06
 BYTE   Gs1
 BYTE   W06
 BYTE   Fs1
 BYTE   N20  Cn1
 BYTE   W06
 BYTE   N05  Fs1
 BYTE   W06
 BYTE   As1
 BYTE   W06
 BYTE   Gs1
 BYTE   W06
 BYTE   Fs1
 BYTE   N20  Cn1
 BYTE   W06
 BYTE   N05  Fs1
 BYTE   W06
 BYTE   As1
 BYTE   W06
 BYTE   Gs1
 BYTE   W06
 BYTE   Fs1
 BYTE   N23  Cn1
 BYTE   W06
 BYTE   N05  Fs1
 BYTE   W06
 BYTE   As1
 BYTE   W06
 BYTE   Gs1
 BYTE   W06
// 006   ----------------------------------------
 BYTE   Fs1
 BYTE   N20  Cn1
 BYTE   W06
 BYTE   N05  Fs1
 BYTE   W06
 BYTE   As1
 BYTE   W06
 BYTE   Gs1
 BYTE   W06
 BYTE   Fs1
 BYTE   N20  Cn1
 BYTE   W06
 BYTE   N05  Fs1
 BYTE   W06
 BYTE   As1
 BYTE   W06
 BYTE   Gs1
 BYTE   W06
 BYTE   Fs1
 BYTE   N23  Cn1
 BYTE   W06
 BYTE   N05  Fs1
 BYTE   W06
 BYTE   As1
 BYTE   W06
 BYTE   Gs1
 BYTE   W06
 BYTE   Fs1
 BYTE   N07  Cn1
 BYTE   W06
 BYTE   N05  Fs1
 BYTE   W02
 BYTE   N07  Gn1
 BYTE   W04
 BYTE   N05  As1
 BYTE   W04
 BYTE   N07  Fn1
 BYTE   W02
 BYTE   N05  Gs1
 BYTE   W06
// 007   ----------------------------------------
LabelMarbleCorridor_6_1B00:
 BYTE   N17  Cn1  v108
 BYTE   N20  Cs2
 BYTE   W18
 BYTE   N05  Cn1
 BYTE   W06
 BYTE   N23
 BYTE   W06
 BYTE   N05  Fs1
 BYTE   W06
 BYTE   As1
 BYTE   W06
 BYTE   Gs1
 BYTE   W06
 BYTE   Fs1
 BYTE   N17  Cn1
 BYTE   W06
 BYTE   N05  Fs1
 BYTE   W06
 BYTE   As1
 BYTE   W06
 BYTE   Cn1
 BYTE   N05  Gs1
 BYTE   W06
 BYTE   Fs1
 BYTE   N17  Cn1
 BYTE   W06
 BYTE   N05  Fs1
 BYTE   W06
 BYTE   As1
 BYTE   W06
 BYTE   Cn1
 BYTE   N05  Gs1
 BYTE   W06
 BYTE   PEND 
// 008   ----------------------------------------
 BYTE   N05  Fs1  v108
 BYTE   N23  Cn1
 BYTE   W06
 BYTE   N05  Fs1
 BYTE   W06
 BYTE   As1
 BYTE   W06
 BYTE   Gs1
 BYTE   W06
 BYTE   Cn1
 BYTE   N05  Fs1
 BYTE   W06
 BYTE   Dn1
 BYTE   N05  Fs1
 BYTE   W06
 BYTE   Dn1
 BYTE   N05  As1
 BYTE   W06
 BYTE   Dn1
 BYTE   N05  Gs1
 BYTE   W06
 BYTE   N17  Cn1
 BYTE   N20  Cs2
 BYTE   W18
 BYTE   N05  Cn1
 BYTE   W06
 BYTE   N23
 BYTE   W06
 BYTE   N05  Fs1
 BYTE   W06
 BYTE   As1
 BYTE   W06
 BYTE   Gs1
 BYTE   W06
// 009   ----------------------------------------
LabelMarbleCorridor_6_2100:
 BYTE   N05  Fs1  v108
 BYTE   N17  Cn1
 BYTE   W06
 BYTE   N05  Fs1
 BYTE   W06
 BYTE   As1
 BYTE   W06
 BYTE   Cn1
 BYTE   N05  Gs1
 BYTE   W06
 BYTE   Fs1
 BYTE   N17  Cn1
 BYTE   W06
 BYTE   N05  Fs1
 BYTE   W06
 BYTE   As1
 BYTE   W06
 BYTE   Cn1
 BYTE   N05  Gs1
 BYTE   W06
 BYTE   Fs1
 BYTE   N23  Cn1
 BYTE   W06
 BYTE   N05  Fs1
 BYTE   W06
 BYTE   As1
 BYTE   W06
 BYTE   Gs1
 BYTE   W06
 BYTE   Fs1
 BYTE   N17  Cn1
 BYTE   W06
 BYTE   N05  Fs1
 BYTE   W06
 BYTE   As1
 BYTE   W06
 BYTE   Cn1
 BYTE   N05  Gs1
 BYTE   W06
 BYTE   PEND 
// 010   ----------------------------------------
LabelMarbleCorridor_6_2400:
 BYTE   N05  Fs1  v108
 BYTE   N17  Cn1
 BYTE   W06
 BYTE   N05  Fs1
 BYTE   W06
 BYTE   As1
 BYTE   W06
 BYTE   Cn1
 BYTE   N05  Gs1
 BYTE   W06
 BYTE   Fs1
 BYTE   N23  Cn1
 BYTE   W06
 BYTE   N05  Fs1
 BYTE   W06
 BYTE   As1
 BYTE   W06
 BYTE   Gs1
 BYTE   W06
 BYTE   Fs1
 BYTE   N17  Cn1
 BYTE   W06
 BYTE   N05  Fs1
 BYTE   W06
 BYTE   As1
 BYTE   W06
 BYTE   Cn1
 BYTE   N05  Gs1
 BYTE   W06
 BYTE   Fs1
 BYTE   N17  Cn1
 BYTE   W06
 BYTE   N05  Fs1
 BYTE   W06
 BYTE   As1
 BYTE   W06
 BYTE   Cn1
 BYTE   N05  Gs1
 BYTE   W06
 BYTE   PEND 
// 011   ----------------------------------------
 BYTE   N05  Fs1  v108
 BYTE   N23  Cn1
 BYTE   W06
 BYTE   N05  Fs1
 BYTE   W06
 BYTE   As1
 BYTE   W12
 BYTE   N20  Cs1
 BYTE   N20  Cn1
 BYTE   W24
 BYTE   N17
 BYTE   N20  Cs2
 BYTE   W18
 BYTE   N05  Cn1
 BYTE   W06
 BYTE   N23
 BYTE   W06
 BYTE   N05  Fs1
 BYTE   W06
 BYTE   As1
 BYTE   W06
 BYTE   Gs1
 BYTE   W06
 BYTE   PATT
  POIN2 LabelMarbleCorridor_6_2100
 BYTE   PATT
  POIN2 LabelMarbleCorridor_6_2400
// 012   ----------------------------------------
LabelMarbleCorridor_6_3000:
 BYTE   N05  Fs1  v108
 BYTE   N23  Cn1
 BYTE   W06
 BYTE   N05  Fs1
 BYTE   W06
 BYTE   As1
 BYTE   W06
 BYTE   Gs1
 BYTE   W06
 BYTE   Fs1
 BYTE   N17  Cn1
 BYTE   W06
 BYTE   N05  Fs1
 BYTE   W06
 BYTE   As1
 BYTE   W06
 BYTE   Cn1
 BYTE   N05  Gs1
 BYTE   W06
 BYTE   Fs1
 BYTE   N17  Cn1
 BYTE   W06
 BYTE   N05  Fs1
 BYTE   W06
 BYTE   As1
 BYTE   W06
 BYTE   Cn1
 BYTE   N05  Gs1
 BYTE   W06
 BYTE   Fs1
 BYTE   N23  Cn1
 BYTE   W06
 BYTE   N05  Fs1
 BYTE   W06
 BYTE   As1
 BYTE   W06
 BYTE   Gs1
 BYTE   W06
 BYTE   PEND 
 BYTE   PATT
  POIN2 LabelMarbleCorridor_6_2100
 BYTE   PATT
  POIN2 LabelMarbleCorridor_6_2400
 BYTE   PATT
  POIN2 LabelMarbleCorridor_6_3000
// 013   ----------------------------------------
 BYTE   N05  Fs1  v108
 BYTE   N17  Cn1
 BYTE   W06
 BYTE   N05  Fs1
 BYTE   W06
 BYTE   As1
 BYTE   W06
 BYTE   Cn1
 BYTE   N05  Gs1
 BYTE   W06
 BYTE   Fs1
 BYTE   N17  Cn1
 BYTE   W06
 BYTE   N05  Fs1
 BYTE   W06
 BYTE   As1
 BYTE   W06
 BYTE   Cn1
 BYTE   N05  Gs1
 BYTE   W06
 BYTE   Fs1
 BYTE   N23  Cn1
 BYTE   W06
 BYTE   N05  Fs1
 BYTE   W06
 BYTE   As1
 BYTE   W06
 BYTE   Gs1
 BYTE   W06
 BYTE   Cn1
 BYTE   N05  Fs1
 BYTE   W06
 BYTE   Dn1
 BYTE   N05  Fs1
 BYTE   W06
 BYTE   As1
 BYTE   W06
 BYTE   Cn1
 BYTE   N05  Gs1
 BYTE   W06
// 014   ----------------------------------------
LabelMarbleCorridor_6_3F00:
 BYTE   N05  Cn1  v108
 BYTE   N20  Cs2
 BYTE   W18
 BYTE   N05  Dn1
 BYTE   W06
 BYTE   Cn1
 BYTE   W06
 BYTE   Fs1
 BYTE   W06
 BYTE   As1
 BYTE   W06
 BYTE   Gs1
 BYTE   W06
 BYTE   Cn1
 BYTE   N05  Fs1
 BYTE   W06
 BYTE   Fs1
 BYTE   W06
 BYTE   As1
 BYTE   W06
 BYTE   Cn1
 BYTE   N05  Gs1
 BYTE   W06
 BYTE   Cn1
 BYTE   N05  Fs1
 BYTE   W06
 BYTE   Fs1
 BYTE   W06
 BYTE   As1
 BYTE   W06
 BYTE   Cn1
 BYTE   N05  Gs1
 BYTE   W06
 BYTE   PEND 
// 015   ----------------------------------------
LabelMarbleCorridor_6_4200:
 BYTE   N05  Cn1  v108
 BYTE   N05  Fs1
 BYTE   W06
 BYTE   Dn1
 BYTE   N05  Fs1
 BYTE   W06
 BYTE   An1
 BYTE   N05  Cn1
 BYTE   N05  As1
 BYTE   W06
 BYTE   Gs1
 BYTE   W06
 BYTE   Gn1
 BYTE   N05  Cn1
 BYTE   N05  Fs1
 BYTE   W06
 BYTE   Gn1
 BYTE   N05  Cn1
 BYTE   N05  Fs1
 BYTE   W06
 BYTE   Fn1
 BYTE   N05  Cn1
 BYTE   N05  As1
 BYTE   W06
 BYTE   Fn1
 BYTE   N05  Cn1
 BYTE   N05  Gs1
 BYTE   W06
 BYTE   Cn1
 BYTE   N05  Fs1
 BYTE   W06
 BYTE   Fs1
 BYTE   W06
 BYTE   As1
 BYTE   W06
 BYTE   Dn1
 BYTE   N05  Gs1
 BYTE   W06
 BYTE   Cn1
 BYTE   N05  Fs1
 BYTE   W06
 BYTE   Fs1
 BYTE   W06
 BYTE   As1
 BYTE   W06
 BYTE   Gs1
 BYTE   W06
 BYTE   PEND 
// 016   ----------------------------------------
 BYTE   N05  Cn1  v108
 BYTE   N05  Fs1
 BYTE   W06
 BYTE   Fs1
 BYTE   W06
 BYTE   As1
 BYTE   W06
 BYTE   Cn1
 BYTE   N05  Gs1
 BYTE   W06
 BYTE   Cn1
 BYTE   N05  Fs1
 BYTE   W06
 BYTE   Fs1
 BYTE   W06
 BYTE   As1
 BYTE   W06
 BYTE   Cn1
 BYTE   N05  Gs1
 BYTE   W06
 BYTE   Cn1
 BYTE   N05  Fs1
 BYTE   W06
 BYTE   Dn1
 BYTE   N05  Fs1
 BYTE   W06
 BYTE   As1
 BYTE   W12
 BYTE   Fn1
 BYTE   W24
 BYTE   PATT
  POIN2 LabelMarbleCorridor_6_3F00
 BYTE   PATT
  POIN2 LabelMarbleCorridor_6_4200
// 017   ----------------------------------------
 BYTE   N05  Cn1  v108
 BYTE   N05  Fs1
 BYTE   W06
 BYTE   Fs1
 BYTE   W06
 BYTE   As1
 BYTE   W06
 BYTE   Cn1
 BYTE   N05  Gs1
 BYTE   W06
 BYTE   Cn1
 BYTE   N05  Fs1
 BYTE   W06
 BYTE   Fs1
 BYTE   W06
 BYTE   As1
 BYTE   W06
 BYTE   Cn1
 BYTE   N05  Gs1
 BYTE   W06
 BYTE   Cn1
 BYTE   N05  Fs1
 BYTE   W06
 BYTE   Dn1
 BYTE   N05  Fs1
 BYTE   W06
 BYTE   As1
 BYTE   W06
 BYTE   Gs1
 BYTE   W06
 BYTE   Gn1
 BYTE   N05  Cn1
 BYTE   N05  Fs1
 BYTE   W06
 BYTE   Gn1
 BYTE   N05  Cn1
 BYTE   N05  Fs1
 BYTE   W06
 BYTE   Fn1
 BYTE   N05  Cn1
 BYTE   N05  As1
 BYTE   W06
 BYTE   Fn1
 BYTE   N05  Cn1
 BYTE   N05  Gs1
 BYTE   W06
// 018   ----------------------------------------
LabelMarbleCorridor_6_5100:
 BYTE   N05  Cn1  v108
 BYTE   N05  Fs1
 BYTE   W06
 BYTE   Fs1
 BYTE   W06
 BYTE   As1
 BYTE   W06
 BYTE   Dn1
 BYTE   N05  Gs1
 BYTE   W06
 BYTE   Cn1
 BYTE   N05  Fs1
 BYTE   W06
 BYTE   Fs1
 BYTE   W06
 BYTE   As1
 BYTE   W06
 BYTE   Gs1
 BYTE   W06
 BYTE   Cn1
 BYTE   N05  Fs1
 BYTE   W06
 BYTE   Fs1
 BYTE   W06
 BYTE   As1
 BYTE   W06
 BYTE   Cn1
 BYTE   N05  Gs1
 BYTE   W06
 BYTE   Cn1
 BYTE   N05  Fs1
 BYTE   W06
 BYTE   Fs1
 BYTE   W06
 BYTE   As1
 BYTE   W06
 BYTE   Cn1
 BYTE   N05  Gs1
 BYTE   W06
 BYTE   PEND 
 BYTE   PATT
  POIN2 LabelMarbleCorridor_6_4200
// 019   ----------------------------------------
 BYTE   N05  Cn1  v108
 BYTE   N05  Fs1
 BYTE   W06
 BYTE   Fs1
 BYTE   W06
 BYTE   As1
 BYTE   W06
 BYTE   Cn1
 BYTE   N05  Gs1
 BYTE   W06
 BYTE   Cn1
 BYTE   N05  Fs1
 BYTE   W06
 BYTE   Fs1
 BYTE   W06
 BYTE   As1
 BYTE   W06
 BYTE   Cn1
 BYTE   N05  Gs1
 BYTE   W06
 BYTE   Cn1
 BYTE   N05  Fs1
 BYTE   W06
 BYTE   Dn1
 BYTE   N05  Fs1
 BYTE   W06
 BYTE   As1
 BYTE   W06
 BYTE   Gs1
 BYTE   W06
 BYTE   Cn1
 BYTE   W06
 BYTE   Dn1
 BYTE   N05  As1
 BYTE   W06
 BYTE   Dn1
 BYTE   N05  As1
 BYTE   W06
 BYTE   Cn1
 BYTE   N05  As1
 BYTE   W06
// 020   ----------------------------------------
 BYTE   Cn1
 BYTE   N20  Cs2  v092
 BYTE   W18
 BYTE   N05  Dn1  v108
 BYTE   W06
 BYTE   Cn1
 BYTE   W06
 BYTE   Fs1  v092
 BYTE   W06
 BYTE   As1
 BYTE   W06
 BYTE   Gs1
 BYTE   W06
 BYTE   Cn1  v108
 BYTE   N05  Fs1  v092
 BYTE   W06
 BYTE   Fs1
 BYTE   W06
 BYTE   As1
 BYTE   W06
 BYTE   Cn1  v108
 BYTE   N05  Gs1  v092
 BYTE   W06
 BYTE   Cn1  v108
 BYTE   N05  Fs1  v092
 BYTE   W06
 BYTE   Fs1
 BYTE   W06
 BYTE   As1
 BYTE   W06
 BYTE   Cn1  v108
 BYTE   N05  Gs1  v092
 BYTE   W06
// 021   ----------------------------------------
LabelMarbleCorridor_6_5D00:
 BYTE   N05  Cn1  v108
 BYTE   N05  Fs1  v092
 BYTE   W06
 BYTE   Dn1  v108
 BYTE   N05  Fs1  v092
 BYTE   W06
 BYTE   An1  v108
 BYTE   N05  Cn1
 BYTE   N05  As1  v092
 BYTE   W06
 BYTE   Gs1
 BYTE   W06
 BYTE   Gn1  v108
 BYTE   N05  Cn1
 BYTE   N05  Fs1  v092
 BYTE   W06
 BYTE   Gn1  v108
 BYTE   N05  Cn1
 BYTE   N05  Fs1  v092
 BYTE   W06
 BYTE   Fn1  v108
 BYTE   N05  Cn1
 BYTE   N05  As1  v092
 BYTE   W06
 BYTE   Fn1  v108
 BYTE   N05  Cn1
 BYTE   N05  Gs1  v092
 BYTE   W06
 BYTE   Cn1  v108
 BYTE   N05  Fs1  v092
 BYTE   W06
 BYTE   Fs1
 BYTE   W06
 BYTE   As1
 BYTE   W06
 BYTE   Dn1  v108
 BYTE   N05  Gs1  v092
 BYTE   W06
 BYTE   Cn1  v108
 BYTE   N05  Fs1  v092
 BYTE   W06
 BYTE   Fs1
 BYTE   W06
 BYTE   As1
 BYTE   W06
 BYTE   Gs1
 BYTE   W06
 BYTE   PEND 
// 022   ----------------------------------------
 BYTE   N05  Cn1  v108
 BYTE   N05  Fs1  v092
 BYTE   W06
 BYTE   Fs1
 BYTE   W06
 BYTE   As1
 BYTE   W06
 BYTE   Cn1  v108
 BYTE   N05  Gs1  v092
 BYTE   W06
 BYTE   Cn1  v108
 BYTE   N05  Fs1  v092
 BYTE   W06
 BYTE   Fs1
 BYTE   W06
 BYTE   As1
 BYTE   W06
 BYTE   Cn1  v108
 BYTE   N05  Gs1  v092
 BYTE   W06
 BYTE   Cn1  v108
 BYTE   N05  Fs1  v092
 BYTE   W06
 BYTE   Dn1  v108
 BYTE   N05  Fs1  v092
 BYTE   W06
 BYTE   An1  v108
 BYTE   N05  Cn1
 BYTE   N05  As1  v092
 BYTE   W06
 BYTE   Gs1
 BYTE   W06
 BYTE   Gn1  v108
 BYTE   N05  Cn1
 BYTE   W06
 BYTE   Gn1
 BYTE   N05  Cn1
 BYTE   W06
 BYTE   Fn1
 BYTE   N05  Cn1
 BYTE   W06
 BYTE   Fn1
 BYTE   N05  Cn1
 BYTE   W06
// 023   ----------------------------------------
LabelMarbleCorridor_6_6300:
 BYTE   N05  Cn1  v108
 BYTE   N20  Cs2  v092
 BYTE   W06
 BYTE   N05  Gn1  v108
 BYTE   W06
 BYTE   Gn1
 BYTE   W06
 BYTE   Fn1
 BYTE   W06
 BYTE   Cn1
 BYTE   W06
 BYTE   Fs1  v092
 BYTE   W06
 BYTE   As1
 BYTE   W06
 BYTE   Gs1
 BYTE   W06
 BYTE   Cn1  v108
 BYTE   N05  Fs1  v092
 BYTE   W06
 BYTE   Fs1
 BYTE   W06
 BYTE   As1
 BYTE   W06
 BYTE   Cn1  v108
 BYTE   N05  Gs1  v092
 BYTE   W06
 BYTE   Cn1  v108
 BYTE   N05  Fs1  v092
 BYTE   W06
 BYTE   Fs1
 BYTE   W06
 BYTE   As1
 BYTE   W06
 BYTE   Cn1  v108
 BYTE   N05  Gs1  v092
 BYTE   W06
 BYTE   PEND 
 BYTE   PATT
  POIN2 LabelMarbleCorridor_6_5D00
// 024   ----------------------------------------
 BYTE   N05  Cn1  v108
 BYTE   N05  Fs1  v092
 BYTE   W06
 BYTE   Fs1
 BYTE   W06
 BYTE   As1
 BYTE   W06
 BYTE   Cn1  v108
 BYTE   N05  Gs1  v092
 BYTE   W06
 BYTE   Cn1  v108
 BYTE   N05  Fs1  v092
 BYTE   W06
 BYTE   Fs1
 BYTE   W06
 BYTE   As1
 BYTE   W06
 BYTE   Cn1  v108
 BYTE   N05  Gs1  v092
 BYTE   W06
 BYTE   Cn1  v108
 BYTE   N05  Fs1  v092
 BYTE   W06
 BYTE   Dn1  v108
 BYTE   N05  Fs1  v092
 BYTE   W06
 BYTE   As1
 BYTE   W06
 BYTE   Gs1
 BYTE   W06
 BYTE   Cn1  v108
 BYTE   N05  Fs1  v092
 BYTE   W06
 BYTE   Cn1  v108
 BYTE   N05  Fs1  v092
 BYTE   W06
 BYTE   Cn1  v108
 BYTE   N05  As1  v092
 BYTE   W06
 BYTE   Cn1  v108
 BYTE   N05  Gs1  v092
 BYTE   W06
 BYTE   PATT
  POIN2 LabelMarbleCorridor_6_6300
// 025   ----------------------------------------
 BYTE   N05  Cn1  v108
 BYTE   N05  Fs1  v092
 BYTE   W06
 BYTE   Dn1  v108
 BYTE   N05  Fs1  v092
 BYTE   W06
 BYTE   An1  v108
 BYTE   N05  Cn1
 BYTE   N05  As1  v092
 BYTE   W06
 BYTE   Gs1
 BYTE   W06
 BYTE   Gn1  v108
 BYTE   N05  Cn1
 BYTE   N05  Fs1  v092
 BYTE   W06
 BYTE   Gn1  v108
 BYTE   N05  Cn1
 BYTE   N05  Fs1  v092
 BYTE   W06
 BYTE   Fn1  v108
 BYTE   N05  Cn1
 BYTE   N05  As1  v092
 BYTE   W06
 BYTE   Fn1  v108
 BYTE   N05  Cn1
 BYTE   N05  Gs1  v092
 BYTE   W06
 BYTE   Cn1  v108
 BYTE   N20  Cs2  v092
 BYTE   W18
 BYTE   N05  Cn1  v108
 BYTE   W06
 BYTE   Cn1
 BYTE   W06
 BYTE   Fs1  v092
 BYTE   W06
 BYTE   As1
 BYTE   W06
 BYTE   Gs1
 BYTE   W06
// 026   ----------------------------------------
 BYTE   Cn1  v108
 BYTE   N05  Fs1  v092
 BYTE   W06
 BYTE   Fs1
 BYTE   W06
 BYTE   As1
 BYTE   W06
 BYTE   Cn1  v108
 BYTE   N05  Gs1  v092
 BYTE   W06
 BYTE   Cn1  v108
 BYTE   N05  Fs1  v092
 BYTE   W06
 BYTE   Fs1
 BYTE   W06
 BYTE   As1
 BYTE   W06
 BYTE   Cn1  v108
 BYTE   N05  Gs1  v092
 BYTE   W06
 BYTE   Cn1  v108
 BYTE   N05  Fs1  v092
 BYTE   W06
 BYTE   Fs1
 BYTE   W06
 BYTE   As1
 BYTE   W06
 BYTE   Gs1
 BYTE   W06
 BYTE   Cn1  v108
 BYTE   N05  Fs1  v092
 BYTE   W06
 BYTE   Fs1
 BYTE   W06
 BYTE   As1
 BYTE   W06
 BYTE   Gs1
 BYTE   W06
// 027   ----------------------------------------
 BYTE   Cn1  v108
 BYTE   N20  Cs2  v092
 BYTE   W06
 BYTE   N05  Cn1  v108
 BYTE   W06
 BYTE   Dn1
 BYTE   W06
 BYTE   Dn1
 BYTE   W12
 BYTE   Dn1
 BYTE   W06
 BYTE   Cn1
 BYTE   W06
 BYTE   Cn1
 BYTE   W06
 BYTE   Dn1
 BYTE   W06
 BYTE   Dn1
 BYTE   W12
 BYTE   Dn1
 BYTE   W12
 BYTE   Cn1
 BYTE   W06
 BYTE   Dn1
 BYTE   W06
 BYTE   Cn1
 BYTE   W06
// 028   ----------------------------------------
 BYTE   Dn1
 BYTE   W06
 BYTE   Dn1
 BYTE   W06
 BYTE   Cn1
 BYTE   W06
 BYTE   Dn1
 BYTE   W12
 BYTE   Cn1
 BYTE   W06
 BYTE   Dn1
 BYTE   W12
 BYTE   Dn1
 BYTE   N20  Cs2  v092
 BYTE   W18
 BYTE   N05  Dn1  v108
 BYTE   W06
 BYTE   Cn1
 BYTE   W12
 BYTE   Dn1
 BYTE   W18
// 029   ----------------------------------------
 BYTE   Dn1
 BYTE   W06
 BYTE   Dn1
 BYTE   W06
 BYTE   Cn1
 BYTE   W06
 BYTE   Dn1
 BYTE   W06
 BYTE   Dn1
 BYTE   W06
 BYTE   Cn1
 BYTE   W06
 BYTE   Dn1
 BYTE   W18
 BYTE   N02  Cn1  v092
 BYTE   W03
 BYTE   Cn1  v095
 BYTE   W03
 BYTE   Cn1  v098
 BYTE   W03
 BYTE   Cn1  v101
 BYTE   W03
 BYTE   Dn1  v104
 BYTE   W03
 BYTE   Dn1  v107
 BYTE   W03
 BYTE   Dn1  v110
 BYTE   W03
 BYTE   Dn1  v113
 BYTE   W03
 BYTE   Dn1  v116
 BYTE   W03
 BYTE   Dn1  v119
 BYTE   W03
 BYTE   Dn1  v123
 BYTE   W03
 BYTE   Dn1  v127
 BYTE   W03
 BYTE   N05  Cn1  v108
 BYTE   N20  Cs2  v127
 BYTE   W06
// 030   ----------------------------------------
 BYTE   N05  Cn1  v108
 BYTE   W06
 BYTE   Cn1
 BYTE   W06
 BYTE   Cn1
 BYTE   W12
 BYTE   Dn1
 BYTE   N05  Fs1
 BYTE   W06
 BYTE   Cn1
 BYTE   N05  Gs1
 BYTE   W06
 BYTE   Cn1
 BYTE   N05  Gs1
 BYTE   W06
 BYTE   Bn1
 BYTE   N05  Fs1
 BYTE   W06
 BYTE   Dn1
 BYTE   N05  Fs1
 BYTE   W06
 BYTE   Gs1
 BYTE   W06
 BYTE   Dn1
 BYTE   N05  Gs1
 BYTE   W06
 BYTE   Cn1
 BYTE   N05  Fs1
 BYTE   W06
 BYTE   Fs1
 BYTE   W06
 BYTE   Cn1
 BYTE   N05  Gs1
 BYTE   W06
 BYTE   Gs1
 BYTE   W06
 BYTE   Dn1
 BYTE   N05  Fs1
 BYTE   W06
// 031   ----------------------------------------
 BYTE   Cn1
 BYTE   N05  Fs1
 BYTE   W06
 BYTE   Gs1
 BYTE   W06
 BYTE   Cn1
 BYTE   N05  Gs1
 BYTE   W06
 BYTE   Cn1
 BYTE   N05  Fs1
 BYTE   W06
 BYTE   Dn1
 BYTE   N05  Fs1
 BYTE   W06
 BYTE   Gs1
 BYTE   W06
 BYTE   Cn1
 BYTE   N05  Gs1
 BYTE   W06
 BYTE   Cn1
 BYTE   N05  Fs1
 BYTE   W06
 BYTE   Fs1
 BYTE   W06
 BYTE   Cn1
 BYTE   N05  Gs1
 BYTE   W06
 BYTE   Gs1
 BYTE   W06
 BYTE   Dn1
 BYTE   N05  Fs1
 BYTE   W06
 BYTE   Fs1
 BYTE   W06
 BYTE   Gs1
 BYTE   W06
 BYTE   Dn1
 BYTE   N05  Gs1
 BYTE   W06
 BYTE   Cn1
 BYTE   N05  Fs1
 BYTE   W06
// 032   ----------------------------------------
 BYTE   Cn1
 BYTE   N05  Fs1
 BYTE   W06
 BYTE   Gs1
 BYTE   W06
 BYTE   N02  Cn1
 BYTE   N05  Gs1
 BYTE   W03
 BYTE   N02  Cn1
 BYTE   W03
 BYTE   N05
 BYTE   N05  Fs1
 BYTE   W06
 BYTE   Dn1
 BYTE   N05  Fs1
 BYTE   W06
 BYTE   Cn1
 BYTE   N05  Gs1
 BYTE   W06
 BYTE   Gs1
 BYTE   W06
 BYTE   Dn1
 BYTE   N05  Fs1
 BYTE   W06
 BYTE   Cn1
 BYTE   N05  Fs1
 BYTE   W06
 BYTE   Gs1
 BYTE   W06
 BYTE   Cn1
 BYTE   N05  Gs1
 BYTE   W06
 BYTE   Fs1
 BYTE   W06
 BYTE   Dn1
 BYTE   N05  Fs1
 BYTE   W06
 BYTE   Cn1
 BYTE   N05  As1
 BYTE   W06
 BYTE   Gs1
 BYTE   W06
 BYTE   N03  Cn1
 BYTE   N05  Fs1
 BYTE   W04
 BYTE   N03  Dn1
 BYTE   W02
// 033   ----------------------------------------
 BYTE   N05  Fs1
 BYTE   W02
 BYTE   N03  Dn1
 BYTE   W04
 BYTE   Cn1
 BYTE   N05  As1
 BYTE   W06
 BYTE   Gs1
 BYTE   W02
 BYTE   N03  Cn1
 BYTE   W04
 BYTE   N05  Fs1
 BYTE   N05  Cn1
 BYTE   N23  En2
 BYTE   N23  Gn2
 BYTE   W06
 BYTE   N05  Fs1
 BYTE   W06
 BYTE   As1
 BYTE   W06
 BYTE   Gs1
 BYTE   W06
 BYTE   Fs1
 BYTE   N05  Cn1
 BYTE   N20  En2  v075
 BYTE   N20  Gn2
 BYTE   W06
 BYTE   N05  Fs1  v108
 BYTE   W06
 BYTE   As1
 BYTE   W06
 BYTE   Gs1
 BYTE   W06
 BYTE   Fs1
 BYTE   N20  Cn1
 BYTE   W06
 BYTE   N05  Fs1
 BYTE   W06
 BYTE   As1
 BYTE   W06
 BYTE   Gs1
 BYTE   W06
 BYTE   Fs1
 BYTE   N23  Cn1
 BYTE   W06
// 034   ----------------------------------------
 BYTE   N05  Fs1
 BYTE   W06
 BYTE   As1
 BYTE   W06
 BYTE   Gs1
 BYTE   W06
 BYTE   Fs1
 BYTE   N20  Cn1
 BYTE   W06
 BYTE   N05  Fs1
 BYTE   W06
 BYTE   As1
 BYTE   W06
 BYTE   Gs1
 BYTE   W06
 BYTE   Fs1
 BYTE   N20  Cn1
 BYTE   W06
 BYTE   N05  Fs1
 BYTE   W06
 BYTE   As1
 BYTE   W06
 BYTE   Gs1
 BYTE   W06
 BYTE   Fs1
 BYTE   N23  Cn1
 BYTE   W06
 BYTE   N05  Fs1
 BYTE   W06
 BYTE   As1
 BYTE   W06
 BYTE   Gs1
 BYTE   W06
 BYTE   Fs1
 BYTE   N20  Cn1
 BYTE   W06
// 035   ----------------------------------------
 BYTE   N05  Fs1
 BYTE   W06
 BYTE   As1
 BYTE   W06
 BYTE   Gs1
 BYTE   W06
 BYTE   Fs1
 BYTE   N20  Cn1
 BYTE   W06
 BYTE   N05  Fs1
 BYTE   W06
 BYTE   As1
 BYTE   W06
 BYTE   Gs1
 BYTE   W06
 BYTE   Fs1
 BYTE   N23  Cn1
 BYTE   W06
 BYTE   N05  Fs1
 BYTE   W06
 BYTE   As1
 BYTE   W06
 BYTE   Gs1
 BYTE   W06
 BYTE   Fs1
 BYTE   N07  Cn1
 BYTE   W06
 BYTE   N05  Fs1
 BYTE   W02
 BYTE   N07  Gn1
 BYTE   W04
 BYTE   N05  As1
 BYTE   W04
 BYTE   N07  Fn1
 BYTE   W02
 BYTE   N05  Gs1
 BYTE   W06
 BYTE   N17  Cn1
 BYTE   N20  Cs2
 BYTE   W18
// 036   ----------------------------------------
 BYTE   N05  Cn1
 BYTE   W06
 BYTE   N23
 BYTE   W06
 BYTE   N05  Fs1
 BYTE   W06
 BYTE   As1
 BYTE   W06
 BYTE   Gs1
 BYTE   W06
 BYTE   Fs1
 BYTE   N17  Cn1
 BYTE   W06
 BYTE   N05  Fs1
 BYTE   W06
 BYTE   As1
 BYTE   W06
 BYTE   Cn1
 BYTE   N05  Gs1
 BYTE   W06
 BYTE   Fs1
 BYTE   N17  Cn1
 BYTE   W06
 BYTE   N05  Fs1
 BYTE   W06
 BYTE   As1
 BYTE   W06
 BYTE   Cn1
 BYTE   N05  Gs1
 BYTE   W06
 BYTE   Fs1
 BYTE   N23  Cn1
 BYTE   W06
 BYTE   N05  Fs1
 BYTE   W06
 BYTE   As1
 BYTE   W06
// 037   ----------------------------------------
 BYTE   Gs1
 BYTE   W06
 BYTE   Cn1
 BYTE   N05  Fs1
 BYTE   W06
 BYTE   Dn1
 BYTE   N05  Fs1
 BYTE   W06
 BYTE   Dn1
 BYTE   N05  As1
 BYTE   W06
 BYTE   Dn1
 BYTE   N05  Gs1
 BYTE   W06
 BYTE   N17  Cn1
 BYTE   N20  Cs2
 BYTE   W18
 BYTE   N05  Cn1
 BYTE   W06
 BYTE   N23
 BYTE   W06
 BYTE   N05  Fs1
 BYTE   W06
 BYTE   As1
 BYTE   W06
 BYTE   Gs1
 BYTE   W06
 BYTE   Fs1
 BYTE   N17  Cn1
 BYTE   W06
 BYTE   N05  Fs1
 BYTE   W06
 BYTE   As1
 BYTE   W06
// 038   ----------------------------------------
 BYTE   Cn1
 BYTE   N05  Gs1
 BYTE   W06
 BYTE   Fs1
 BYTE   N17  Cn1
 BYTE   W06
 BYTE   N05  Fs1
 BYTE   W06
 BYTE   As1
 BYTE   W06
 BYTE   Cn1
 BYTE   N05  Gs1
 BYTE   W06
 BYTE   Fs1
 BYTE   N23  Cn1
 BYTE   W06
 BYTE   N05  Fs1
 BYTE   W06
 BYTE   As1
 BYTE   W06
 BYTE   Gs1
 BYTE   W06
 BYTE   Fs1
 BYTE   N17  Cn1
 BYTE   W06
 BYTE   N05  Fs1
 BYTE   W06
 BYTE   As1
 BYTE   W06
 BYTE   Cn1
 BYTE   N05  Gs1
 BYTE   W06
 BYTE   Fs1
 BYTE   N17  Cn1
 BYTE   W06
 BYTE   N05  Fs1
 BYTE   W06
 BYTE   As1
 BYTE   W06
// 039   ----------------------------------------
 BYTE   Cn1
 BYTE   N05  Gs1
 BYTE   W06
 BYTE   Fs1
 BYTE   N23  Cn1
 BYTE   W06
 BYTE   N05  Fs1
 BYTE   W06
 BYTE   As1
 BYTE   W06
 BYTE   Gs1
 BYTE   W06
 BYTE   Fs1
 BYTE   N17  Cn1
 BYTE   W06
 BYTE   N05  Fs1
 BYTE   W06
 BYTE   As1
 BYTE   W06
 BYTE   Cn1
 BYTE   N05  Gs1
 BYTE   W06
 BYTE   Fs1
 BYTE   N17  Cn1
 BYTE   W06
 BYTE   N05  Fs1
 BYTE   W06
 BYTE   As1
 BYTE   W06
 BYTE   Cn1
 BYTE   N05  Gs1
 BYTE   W06
 BYTE   Fs1
 BYTE   N23  Cn1
 BYTE   W06
 BYTE   N05  Fs1
 BYTE   W06
 BYTE   As1
 BYTE   W12
// 040   ----------------------------------------
 BYTE   N20  Cs1
 BYTE   N20  Cn1
 BYTE   W24
 BYTE   N17
 BYTE   N20  Cs2
 BYTE   W18
 BYTE   N05  Cn1
 BYTE   W06
 BYTE   N23
 BYTE   W06
 BYTE   N05  Fs1
 BYTE   W06
 BYTE   As1
 BYTE   W06
 BYTE   Gs1
 BYTE   W06
 BYTE   Fs1
 BYTE   N17  Cn1
 BYTE   W06
 BYTE   N05  Fs1
 BYTE   W06
 BYTE   As1
 BYTE   W06
 BYTE   Cn1
 BYTE   N05  Gs1
 BYTE   W06
 BYTE   PATT
  POIN2 LabelMarbleCorridor_6_2400
 BYTE   PATT
  POIN2 LabelMarbleCorridor_6_3000
 BYTE   PATT
  POIN2 LabelMarbleCorridor_6_2100
 BYTE   PATT
  POIN2 LabelMarbleCorridor_6_2400
 BYTE   PATT
  POIN2 LabelMarbleCorridor_6_3000
 BYTE   PATT
  POIN2 LabelMarbleCorridor_6_2100
// 041   ----------------------------------------
 BYTE   N05  Fs1  v108
 BYTE   N17  Cn1
 BYTE   W06
 BYTE   N05  Fs1
 BYTE   W06
 BYTE   As1
 BYTE   W06
 BYTE   Cn1
 BYTE   N05  Gs1
 BYTE   W06
 BYTE   Fs1
 BYTE   N23  Cn1
 BYTE   W06
 BYTE   N05  Fs1
 BYTE   W06
 BYTE   As1
 BYTE   W06
 BYTE   Gs1
 BYTE   W06
 BYTE   Cn1
 BYTE   N05  Fs1
 BYTE   W06
 BYTE   Dn1
 BYTE   N05  Fs1
 BYTE   W06
 BYTE   As1
 BYTE   W06
 BYTE   Cn1
 BYTE   N05  Gs1
 BYTE   W06
 BYTE   Cn1
 BYTE   N20  Cs2
 BYTE   W18
 BYTE   N05  Dn1
 BYTE   W06
// 042   ----------------------------------------
LabelMarbleCorridor_6_B4C0:
 BYTE   N05  Cn1  v108
 BYTE   W06
 BYTE   Fs1
 BYTE   W06
 BYTE   As1
 BYTE   W06
 BYTE   Gs1
 BYTE   W06
 BYTE   Cn1
 BYTE   N05  Fs1
 BYTE   W06
 BYTE   Fs1
 BYTE   W06
 BYTE   As1
 BYTE   W06
 BYTE   Cn1
 BYTE   N05  Gs1
 BYTE   W06
 BYTE   Cn1
 BYTE   N05  Fs1
 BYTE   W06
 BYTE   Fs1
 BYTE   W06
 BYTE   As1
 BYTE   W06
 BYTE   Cn1
 BYTE   N05  Gs1
 BYTE   W06
 BYTE   Cn1
 BYTE   N05  Fs1
 BYTE   W06
 BYTE   Dn1
 BYTE   N05  Fs1
 BYTE   W06
 BYTE   An1
 BYTE   N05  Cn1
 BYTE   N05  As1
 BYTE   W06
 BYTE   Gs1
 BYTE   W06
 BYTE   PEND 
// 043   ----------------------------------------
LabelMarbleCorridor_6_B7C0:
 BYTE   N05  Gn1  v108
 BYTE   N05  Cn1
 BYTE   N05  Fs1
 BYTE   W06
 BYTE   Gn1
 BYTE   N05  Cn1
 BYTE   N05  Fs1
 BYTE   W06
 BYTE   Fn1
 BYTE   N05  Cn1
 BYTE   N05  As1
 BYTE   W06
 BYTE   Fn1
 BYTE   N05  Cn1
 BYTE   N05  Gs1
 BYTE   W06
 BYTE   Cn1
 BYTE   N05  Fs1
 BYTE   W06
 BYTE   Fs1
 BYTE   W06
 BYTE   As1
 BYTE   W06
 BYTE   Dn1
 BYTE   N05  Gs1
 BYTE   W06
 BYTE   Cn1
 BYTE   N05  Fs1
 BYTE   W06
 BYTE   Fs1
 BYTE   W06
 BYTE   As1
 BYTE   W06
 BYTE   Gs1
 BYTE   W06
 BYTE   Cn1
 BYTE   N05  Fs1
 BYTE   W06
 BYTE   Fs1
 BYTE   W06
 BYTE   As1
 BYTE   W06
 BYTE   Cn1
 BYTE   N05  Gs1
 BYTE   W06
 BYTE   PEND 
// 044   ----------------------------------------
 BYTE   N05  Cn1  v108
 BYTE   N05  Fs1
 BYTE   W06
 BYTE   Fs1
 BYTE   W06
 BYTE   As1
 BYTE   W06
 BYTE   Cn1
 BYTE   N05  Gs1
 BYTE   W06
 BYTE   Cn1
 BYTE   N05  Fs1
 BYTE   W06
 BYTE   Dn1
 BYTE   N05  Fs1
 BYTE   W06
 BYTE   As1
 BYTE   W12
 BYTE   Fn1
 BYTE   W24
 BYTE   Cn1
 BYTE   N20  Cs2
 BYTE   W18
 BYTE   N05  Dn1
 BYTE   W06
 BYTE   PATT
  POIN2 LabelMarbleCorridor_6_B4C0
 BYTE   PATT
  POIN2 LabelMarbleCorridor_6_B7C0
// 045   ----------------------------------------
 BYTE   N05  Cn1  v108
 BYTE   N05  Fs1
 BYTE   W06
 BYTE   Fs1
 BYTE   W06
 BYTE   As1
 BYTE   W06
 BYTE   Cn1
 BYTE   N05  Gs1
 BYTE   W06
 BYTE   Cn1
 BYTE   N05  Fs1
 BYTE   W06
 BYTE   Dn1
 BYTE   N05  Fs1
 BYTE   W06
 BYTE   As1
 BYTE   W06
 BYTE   Gs1
 BYTE   W06
 BYTE   Gn1
 BYTE   N05  Cn1
 BYTE   N05  Fs1
 BYTE   W06
 BYTE   Gn1
 BYTE   N05  Cn1
 BYTE   N05  Fs1
 BYTE   W06
 BYTE   Fn1
 BYTE   N05  Cn1
 BYTE   N05  As1
 BYTE   W06
 BYTE   Fn1
 BYTE   N05  Cn1
 BYTE   N05  Gs1
 BYTE   W06
 BYTE   Cn1
 BYTE   N05  Fs1
 BYTE   W06
 BYTE   Fs1
 BYTE   W06
 BYTE   As1
 BYTE   W06
 BYTE   Dn1
 BYTE   N05  Gs1
 BYTE   W06
// 046   ----------------------------------------
 BYTE   Cn1
 BYTE   N05  Fs1
 BYTE   W06
 BYTE   Fs1
 BYTE   W06
 BYTE   As1
 BYTE   W06
 BYTE   Gs1
 BYTE   W06
 BYTE   Cn1
 BYTE   N05  Fs1
 BYTE   W06
 BYTE   Fs1
 BYTE   W06
 BYTE   As1
 BYTE   W06
 BYTE   Cn1
 BYTE   N05  Gs1
 BYTE   W06
 BYTE   Cn1
 BYTE   N05  Fs1
 BYTE   W06
 BYTE   Fs1
 BYTE   W06
 BYTE   As1
 BYTE   W06
 BYTE   Cn1
 BYTE   N05  Gs1
 BYTE   W06
 BYTE   Cn1
 BYTE   N05  Fs1
 BYTE   W06
 BYTE   Dn1
 BYTE   N05  Fs1
 BYTE   W06
 BYTE   An1
 BYTE   N05  Cn1
 BYTE   N05  As1
 BYTE   W06
 BYTE   Gs1
 BYTE   W06
 BYTE   PATT
  POIN2 LabelMarbleCorridor_6_B7C0
// 047   ----------------------------------------
 BYTE   N05  Cn1  v108
 BYTE   N05  Fs1
 BYTE   W06
 BYTE   Fs1
 BYTE   W06
 BYTE   As1
 BYTE   W06
 BYTE   Cn1
 BYTE   N05  Gs1
 BYTE   W06
 BYTE   Cn1
 BYTE   N05  Fs1
 BYTE   W06
 BYTE   Dn1
 BYTE   N05  Fs1
 BYTE   W06
 BYTE   As1
 BYTE   W06
 BYTE   Gs1
 BYTE   W06
 BYTE   Cn1
 BYTE   W06
 BYTE   Dn1
 BYTE   N05  As1
 BYTE   W06
 BYTE   Dn1
 BYTE   N05  As1
 BYTE   W06
 BYTE   Cn1
 BYTE   N05  As1
 BYTE   W06
 BYTE   Cn1
 BYTE   N20  Cs2  v092
 BYTE   W18
 BYTE   N05  Dn1  v108
 BYTE   W06
// 048   ----------------------------------------
LabelMarbleCorridor_6_CFC0:
 BYTE   N05  Cn1  v108
 BYTE   W06
 BYTE   Fs1  v092
 BYTE   W06
 BYTE   As1
 BYTE   W06
 BYTE   Gs1
 BYTE   W06
 BYTE   Cn1  v108
 BYTE   N05  Fs1  v092
 BYTE   W06
 BYTE   Fs1
 BYTE   W06
 BYTE   As1
 BYTE   W06
 BYTE   Cn1  v108
 BYTE   N05  Gs1  v092
 BYTE   W06
 BYTE   Cn1  v108
 BYTE   N05  Fs1  v092
 BYTE   W06
 BYTE   Fs1
 BYTE   W06
 BYTE   As1
 BYTE   W06
 BYTE   Cn1  v108
 BYTE   N05  Gs1  v092
 BYTE   W06
 BYTE   Cn1  v108
 BYTE   N05  Fs1  v092
 BYTE   W06
 BYTE   Dn1  v108
 BYTE   N05  Fs1  v092
 BYTE   W06
 BYTE   An1  v108
 BYTE   N05  Cn1
 BYTE   N05  As1  v092
 BYTE   W06
 BYTE   Gs1
 BYTE   W06
 BYTE   PEND 
// 049   ----------------------------------------
LabelMarbleCorridor_6_D2C0:
 BYTE   N05  Gn1  v108
 BYTE   N05  Cn1
 BYTE   N05  Fs1  v092
 BYTE   W06
 BYTE   Gn1  v108
 BYTE   N05  Cn1
 BYTE   N05  Fs1  v092
 BYTE   W06
 BYTE   Fn1  v108
 BYTE   N05  Cn1
 BYTE   N05  As1  v092
 BYTE   W06
 BYTE   Fn1  v108
 BYTE   N05  Cn1
 BYTE   N05  Gs1  v092
 BYTE   W06
 BYTE   Cn1  v108
 BYTE   N05  Fs1  v092
 BYTE   W06
 BYTE   Fs1
 BYTE   W06
 BYTE   As1
 BYTE   W06
 BYTE   Dn1  v108
 BYTE   N05  Gs1  v092
 BYTE   W06
 BYTE   Cn1  v108
 BYTE   N05  Fs1  v092
 BYTE   W06
 BYTE   Fs1
 BYTE   W06
 BYTE   As1
 BYTE   W06
 BYTE   Gs1
 BYTE   W06
 BYTE   Cn1  v108
 BYTE   N05  Fs1  v092
 BYTE   W06
 BYTE   Fs1
 BYTE   W06
 BYTE   As1
 BYTE   W06
 BYTE   Cn1  v108
 BYTE   N05  Gs1  v092
 BYTE   W06
 BYTE   PEND 
// 050   ----------------------------------------
 BYTE   N05  Cn1  v108
 BYTE   N05  Fs1  v092
 BYTE   W06
 BYTE   Fs1
 BYTE   W06
 BYTE   As1
 BYTE   W06
 BYTE   Cn1  v108
 BYTE   N05  Gs1  v092
 BYTE   W06
 BYTE   Cn1  v108
 BYTE   N05  Fs1  v092
 BYTE   W06
 BYTE   Dn1  v108
 BYTE   N05  Fs1  v092
 BYTE   W06
 BYTE   An1  v108
 BYTE   N05  Cn1
 BYTE   N05  As1  v092
 BYTE   W06
 BYTE   Gs1
 BYTE   W06
 BYTE   Gn1  v108
 BYTE   N05  Cn1
 BYTE   W06
 BYTE   Gn1
 BYTE   N05  Cn1
 BYTE   W06
 BYTE   Fn1
 BYTE   N05  Cn1
 BYTE   W06
 BYTE   Fn1
 BYTE   N05  Cn1
 BYTE   W06
 BYTE   Cn1
 BYTE   N20  Cs2  v092
 BYTE   W06
 BYTE   N05  Gn1  v108
 BYTE   W06
 BYTE   Gn1
 BYTE   W06
 BYTE   Fn1
 BYTE   W06
 BYTE   PATT
  POIN2 LabelMarbleCorridor_6_CFC0
 BYTE   PATT
  POIN2 LabelMarbleCorridor_6_D2C0
// 051   ----------------------------------------
 BYTE   N05  Cn1  v108
 BYTE   N05  Fs1  v092
 BYTE   W06
 BYTE   Fs1
 BYTE   W06
 BYTE   As1
 BYTE   W06
 BYTE   Cn1  v108
 BYTE   N05  Gs1  v092
 BYTE   W06
 BYTE   Cn1  v108
 BYTE   N05  Fs1  v092
 BYTE   W06
 BYTE   Dn1  v108
 BYTE   N05  Fs1  v092
 BYTE   W06
 BYTE   As1
 BYTE   W06
 BYTE   Gs1
 BYTE   W06
 BYTE   Cn1  v108
 BYTE   N05  Fs1  v092
 BYTE   W06
 BYTE   Cn1  v108
 BYTE   N05  Fs1  v092
 BYTE   W06
 BYTE   Cn1  v108
 BYTE   N05  As1  v092
 BYTE   W06
 BYTE   Cn1  v108
 BYTE   N05  Gs1  v092
 BYTE   W06
 BYTE   Cn1  v108
 BYTE   N20  Cs2  v092
 BYTE   W06
 BYTE   N05  Gn1  v108
 BYTE   W06
 BYTE   Gn1
 BYTE   W06
 BYTE   Fn1
 BYTE   W06
 BYTE   PATT
  POIN2 LabelMarbleCorridor_6_CFC0
// 052   ----------------------------------------
 BYTE   N05  Gn1  v108
 BYTE   N05  Cn1
 BYTE   N05  Fs1  v092
 BYTE   W06
 BYTE   Gn1  v108
 BYTE   N05  Cn1
 BYTE   N05  Fs1  v092
 BYTE   W06
 BYTE   Fn1  v108
 BYTE   N05  Cn1
 BYTE   N05  As1  v092
 BYTE   W06
 BYTE   Fn1  v108
 BYTE   N05  Cn1
 BYTE   N05  Gs1  v092
 BYTE   W06
 BYTE   Cn1  v108
 BYTE   N20  Cs2  v092
 BYTE   W18
 BYTE   N05  Cn1  v108
 BYTE   W06
 BYTE   Cn1
 BYTE   W06
 BYTE   Fs1  v092
 BYTE   W06
 BYTE   As1
 BYTE   W06
 BYTE   Gs1
 BYTE   W06
 BYTE   Cn1  v108
 BYTE   N05  Fs1  v092
 BYTE   W06
 BYTE   Fs1
 BYTE   W06
 BYTE   As1
 BYTE   W06
 BYTE   Cn1  v108
 BYTE   N05  Gs1  v092
 BYTE   W06
// 053   ----------------------------------------
 BYTE   Cn1  v108
 BYTE   N05  Fs1  v092
 BYTE   W06
 BYTE   Fs1
 BYTE   W06
 BYTE   As1
 BYTE   W06
 BYTE   Cn1  v108
 BYTE   N05  Gs1  v092
 BYTE   W06
 BYTE   Cn1  v108
 BYTE   N05  Fs1  v092
 BYTE   W06
 BYTE   Fs1
 BYTE   W06
 BYTE   As1
 BYTE   W06
 BYTE   Gs1
 BYTE   W06
 BYTE   Cn1  v108
 BYTE   N05  Fs1  v092
 BYTE   W06
 BYTE   Fs1
 BYTE   W06
 BYTE   As1
 BYTE   W06
 BYTE   Gs1
 BYTE   W06
 BYTE   Cn1  v108
 BYTE   N20  Cs2  v092
 BYTE   W06
 BYTE   N05  Cn1  v108
 BYTE   W06
 BYTE   Dn1
 BYTE   W06
 BYTE   Dn1
 BYTE   W12
// 054   ----------------------------------------
 BYTE   Dn1
 BYTE   W06
 BYTE   Cn1
 BYTE   W06
 BYTE   Cn1
 BYTE   W06
 BYTE   Dn1
 BYTE   W06
 BYTE   Dn1
 BYTE   W12
 BYTE   Dn1
 BYTE   W12
 BYTE   Cn1
 BYTE   W06
 BYTE   Dn1
 BYTE   W06
 BYTE   Cn1
 BYTE   W06
 BYTE   Dn1
 BYTE   W06
 BYTE   Dn1
 BYTE   W06
 BYTE   Cn1
 BYTE   W06
 BYTE   Dn1
 BYTE   W12
// 055   ----------------------------------------
 BYTE   Cn1
 BYTE   W06
 BYTE   Dn1
 BYTE   W12
 BYTE   Dn1
 BYTE   N20  Cs2  v092
 BYTE   W18
 BYTE   N05  Dn1  v108
 BYTE   W06
 BYTE   Cn1
 BYTE   W12
 BYTE   Dn1
 BYTE   W18
 BYTE   Dn1
 BYTE   W06
 BYTE   Dn1
 BYTE   W06
 BYTE   Cn1
 BYTE   W06
 BYTE   Dn1
 BYTE   W06
// 056   ----------------------------------------
 BYTE   Dn1
 BYTE   W06
 BYTE   Cn1
 BYTE   W06
 BYTE   Dn1
 BYTE   W18
 BYTE   N02  Cn1  v092
 BYTE   W03
 BYTE   Cn1  v095
 BYTE   W03
 BYTE   Cn1  v098
 BYTE   W03
 BYTE   Cn1  v101
 BYTE   W03
 BYTE   Dn1  v104
 BYTE   W03
 BYTE   Dn1  v107
 BYTE   W03
 BYTE   Dn1  v110
 BYTE   W03
 BYTE   Dn1  v113
 BYTE   W03
 BYTE   Dn1  v116
 BYTE   W03
 BYTE   Dn1  v119
 BYTE   W03
 BYTE   Dn1  v123
 BYTE   W03
 BYTE   Dn1  v127
 BYTE   W03
 BYTE   N05  Cn1  v108
 BYTE   N20  Cs2  v127
 BYTE   W06
 BYTE   N05  Cn1  v108
 BYTE   W06
 BYTE   Cn1
 BYTE   W06
 BYTE   Cn1
 BYTE   W12
// 057   ----------------------------------------
 BYTE   Dn1
 BYTE   N05  Fs1
 BYTE   W06
 BYTE   Cn1
 BYTE   N05  Gs1
 BYTE   W06
 BYTE   Cn1
 BYTE   N05  Gs1
 BYTE   W06
 BYTE   Bn1
 BYTE   N05  Fs1
 BYTE   W06
 BYTE   Dn1
 BYTE   N05  Fs1
 BYTE   W06
 BYTE   Gs1
 BYTE   W06
 BYTE   Dn1
 BYTE   N05  Gs1
 BYTE   W06
 BYTE   Cn1
 BYTE   N05  Fs1
 BYTE   W06
 BYTE   Fs1
 BYTE   W06
 BYTE   Cn1
 BYTE   N05  Gs1
 BYTE   W06
 BYTE   Gs1
 BYTE   W06
 BYTE   Dn1
 BYTE   N05  Fs1
 BYTE   W06
 BYTE   Cn1
 BYTE   N05  Fs1
 BYTE   W06
 BYTE   Gs1
 BYTE   W06
 BYTE   Cn1
 BYTE   N05  Gs1
 BYTE   W06
 BYTE   Cn1
 BYTE   N05  Fs1
 BYTE   W06
// 058   ----------------------------------------
 BYTE   Dn1
 BYTE   N05  Fs1
 BYTE   W06
 BYTE   Gs1
 BYTE   W06
 BYTE   Cn1
 BYTE   N05  Gs1
 BYTE   W06
 BYTE   Cn1
 BYTE   N05  Fs1
 BYTE   W06
 BYTE   Fs1
 BYTE   W06
 BYTE   Cn1
 BYTE   N05  Gs1
 BYTE   W06
 BYTE   Gs1
 BYTE   W06
 BYTE   Dn1
 BYTE   N05  Fs1
 BYTE   W06
 BYTE   Fs1
 BYTE   W06
 BYTE   Gs1
 BYTE   W06
 BYTE   Dn1
 BYTE   N05  Gs1
 BYTE   W06
 BYTE   Cn1
 BYTE   N05  Fs1
 BYTE   W06
 BYTE   Cn1
 BYTE   N05  Fs1
 BYTE   W06
 BYTE   Gs1
 BYTE   W06
 BYTE   N02  Cn1
 BYTE   N05  Gs1
 BYTE   W03
 BYTE   N02  Cn1
 BYTE   W03
 BYTE   N05
 BYTE   N05  Fs1
 BYTE   W06
// 059   ----------------------------------------
 BYTE   Dn1
 BYTE   N05  Fs1
 BYTE   W06
 BYTE   Cn1
 BYTE   N05  Gs1
 BYTE   W06
 BYTE   Gs1
 BYTE   W06
 BYTE   Dn1
 BYTE   N05  Fs1
 BYTE   W06
 BYTE   Cn1
 BYTE   N05  Fs1
 BYTE   W06
 BYTE   Gs1
 BYTE   W06
 BYTE   Cn1
 BYTE   N05  Gs1
 BYTE   W06
 BYTE   Fs1
 BYTE   W06
 BYTE   Dn1
 BYTE   N05  Fs1
 BYTE   W06
 BYTE   Cn1
 BYTE   N05  As1
 BYTE   W06
 BYTE   Gs1
 BYTE   W06
 BYTE   N03  Cn1
 BYTE   N05  Fs1
 BYTE   W04
 BYTE   N03  Dn1
 BYTE   W02
 BYTE   N05  Fs1
 BYTE   W02
 BYTE   N03  Dn1
 BYTE   W04
 BYTE   Cn1
 BYTE   N05  As1
 BYTE   W06
 BYTE   Gs1
 BYTE   W02
 BYTE   N03  Cn1
 BYTE   W04
 BYTE   N05  Fs1
 BYTE   N05  Cn1
 BYTE   N23  En2
 BYTE   N23  Gn2
 BYTE   W06
// 060   ----------------------------------------
 BYTE   N05  Fs1
 BYTE   W06
 BYTE   As1
 BYTE   W06
 BYTE   Gs1
 BYTE   W06
 BYTE   Fs1
 BYTE   N05  Cn1
 BYTE   N20  En2  v075
 BYTE   N20  Gn2
 BYTE   W06
 BYTE   N05  Fs1  v108
 BYTE   W06
 BYTE   As1
 BYTE   W06
 BYTE   Gs1
 BYTE   W06
 BYTE   Fs1
 BYTE   N20  Cn1
 BYTE   W06
 BYTE   N05  Fs1
 BYTE   W06
 BYTE   As1
 BYTE   W06
 BYTE   Gs1
 BYTE   W06
 BYTE   Fs1
 BYTE   N23  Cn1
 BYTE   W06
 BYTE   N05  Fs1
 BYTE   W06
 BYTE   As1
 BYTE   W06
 BYTE   Gs1
 BYTE   W06
 BYTE   Fs1
 BYTE   N20  Cn1
 BYTE   W06
// 061   ----------------------------------------
 BYTE   N05  Fs1
 BYTE   W06
 BYTE   As1
 BYTE   W06
 BYTE   Gs1
 BYTE   W06
 BYTE   Fs1
 BYTE   N20  Cn1
 BYTE   W06
 BYTE   N05  Fs1
 BYTE   W06
 BYTE   As1
 BYTE   W06
 BYTE   Gs1
 BYTE   W06
 BYTE   Fs1
 BYTE   N23  Cn1
 BYTE   W06
 BYTE   N05  Fs1
 BYTE   W06
 BYTE   As1
 BYTE   W06
 BYTE   Gs1
 BYTE   W06
 BYTE   Fs1
 BYTE   N20  Cn1
 BYTE   W06
 BYTE   N05  Fs1
 BYTE   W06
 BYTE   As1
 BYTE   W06
 BYTE   Gs1
 BYTE   W06
 BYTE   Fs1
 BYTE   N20  Cn1
 BYTE   W06
// 062   ----------------------------------------
 BYTE   N05  Fs1
 BYTE   W06
 BYTE   As1
 BYTE   W06
 BYTE   Gs1
 BYTE   W06
 BYTE   Fs1
 BYTE   N23  Cn1
 BYTE   W06
 BYTE   N05  Fs1
 BYTE   W06
 BYTE   As1
 BYTE   W06
 BYTE   Gs1
 BYTE   W06
 BYTE   Fs1
 BYTE   N07  Cn1
 BYTE   W06
 BYTE   N05  Fs1
 BYTE   W02
 BYTE   N07  Gn1
 BYTE   W04
 BYTE   N05  As1
 BYTE   W04
 BYTE   N07  Fn1
 BYTE   W02
 BYTE   N05  Gs1
 BYTE   W06
 BYTE   N17  Cn1
 BYTE   N20  Cs2
 BYTE   W18
 BYTE   N05  Cn1
 BYTE   W06
 BYTE   N23
 BYTE   W06
// 063   ----------------------------------------
 BYTE   N05  Fs1
 BYTE   W06
 BYTE   As1
 BYTE   W06
 BYTE   Gs1
 BYTE   W06
 BYTE   Fs1
 BYTE   N17  Cn1
 BYTE   W06
 BYTE   N05  Fs1
 BYTE   W06
 BYTE   As1
 BYTE   W06
 BYTE   Cn1
 BYTE   N05  Gs1
 BYTE   W06
 BYTE   Fs1
 BYTE   N17  Cn1
 BYTE   W06
 BYTE   N05  Fs1
 BYTE   W06
 BYTE   As1
 BYTE   W06
 BYTE   Cn1
 BYTE   N05  Gs1
 BYTE   W06
 BYTE   Fs1
 BYTE   N23  Cn1
 BYTE   W06
 BYTE   N05  Fs1
 BYTE   W06
 BYTE   As1
 BYTE   W06
 BYTE   Gs1
 BYTE   W06
 BYTE   Cn1
 BYTE   N05  Fs1
 BYTE   W06
// 064   ----------------------------------------
 BYTE   Dn1
 BYTE   N05  Fs1
 BYTE   W06
 BYTE   Dn1
 BYTE   N05  As1
 BYTE   W06
 BYTE   Dn1
 BYTE   N05  Gs1
 BYTE   W06
 BYTE   N17  Cn1
 BYTE   N20  Cs2
 BYTE   W18
 BYTE   N05  Cn1
 BYTE   W06
 BYTE   N23
 BYTE   W06
 BYTE   N05  Fs1
 BYTE   W06
 BYTE   As1
 BYTE   W06
 BYTE   Gs1
 BYTE   W06
 BYTE   Fs1
 BYTE   N17  Cn1
 BYTE   W06
 BYTE   N05  Fs1
 BYTE   W06
 BYTE   As1
 BYTE   W06
 BYTE   Cn1
 BYTE   N05  Gs1
 BYTE   W06
 BYTE   Fs1
 BYTE   N17  Cn1
 BYTE   W06
// 065   ----------------------------------------
 BYTE   N05  Fs1
 BYTE   W06
 BYTE   As1
 BYTE   W06
 BYTE   Cn1
 BYTE   N05  Gs1
 BYTE   W06
 BYTE   Fs1
 BYTE   N23  Cn1
 BYTE   W06
 BYTE   N05  Fs1
 BYTE   W06
 BYTE   As1
 BYTE   W06
 BYTE   Gs1
 BYTE   W06
 BYTE   Fs1
 BYTE   N17  Cn1
 BYTE   W06
 BYTE   N05  Fs1
 BYTE   W06
 BYTE   As1
 BYTE   W06
 BYTE   Cn1
 BYTE   N05  Gs1
 BYTE   W06
 BYTE   Fs1
 BYTE   N17  Cn1
 BYTE   W06
 BYTE   N05  Fs1
 BYTE   W06
 BYTE   As1
 BYTE   W06
 BYTE   Cn1
 BYTE   N05  Gs1
 BYTE   W06
 BYTE   Fs1
 BYTE   N23  Cn1
 BYTE   W06
// 066   ----------------------------------------
 BYTE   N05  Fs1
 BYTE   W06
 BYTE   As1
 BYTE   W06
 BYTE   Gs1
 BYTE   W06
 BYTE   Fs1
 BYTE   N17  Cn1
 BYTE   W06
 BYTE   N05  Fs1
 BYTE   W06
 BYTE   As1
 BYTE   W06
 BYTE   Cn1
 BYTE   N05  Gs1
 BYTE   W06
 BYTE   Fs1
 BYTE   N17  Cn1
 BYTE   W06
 BYTE   N05  Fs1
 BYTE   W06
 BYTE   As1
 BYTE   W06
 BYTE   Cn1
 BYTE   N05  Gs1
 BYTE   W06
 BYTE   Fs1
 BYTE   N23  Cn1
 BYTE   W06
 BYTE   N05  Fs1
 BYTE   W06
 BYTE   As1
 BYTE   W12
 BYTE   N20  Cs1
 BYTE   N20  Cn1
 BYTE   W24
 BYTE   PATT
  POIN2 LabelMarbleCorridor_6_1B00
 BYTE   PATT
  POIN2 LabelMarbleCorridor_6_3000
 BYTE   PATT
  POIN2 LabelMarbleCorridor_6_2100
 BYTE   PATT
  POIN2 LabelMarbleCorridor_6_2400
 BYTE   PATT
  POIN2 LabelMarbleCorridor_6_3000
 BYTE   PATT
  POIN2 LabelMarbleCorridor_6_2100
 BYTE   PATT
  POIN2 LabelMarbleCorridor_6_2400
// 067   ----------------------------------------
 BYTE   N05  Fs1  v108
 BYTE   N23  Cn1
 BYTE   W06
 BYTE   N05  Fs1
 BYTE   W06
 BYTE   As1
 BYTE   W06
 BYTE   Gs1
 BYTE   W06
 BYTE   Cn1
 BYTE   N05  Fs1
 BYTE   W06
 BYTE   Dn1
 BYTE   N05  Fs1
 BYTE   W06
 BYTE   As1
 BYTE   W06
 BYTE   Cn1
 BYTE   N05  Gs1
 BYTE   W06
 BYTE   Cn1
 BYTE   N20  Cs2
 BYTE   W18
 BYTE   N05  Dn1
 BYTE   W06
 BYTE   Cn1
 BYTE   W06
 BYTE   Fs1
 BYTE   W06
 BYTE   As1
 BYTE   W06
 BYTE   Gs1
 BYTE   W06
// 068   ----------------------------------------
LabelMarbleCorridor_6_012A80:
 BYTE   N05  Cn1  v108
 BYTE   N05  Fs1
 BYTE   W06
 BYTE   Fs1
 BYTE   W06
 BYTE   As1
 BYTE   W06
 BYTE   Cn1
 BYTE   N05  Gs1
 BYTE   W06
 BYTE   Cn1
 BYTE   N05  Fs1
 BYTE   W06
 BYTE   Fs1
 BYTE   W06
 BYTE   As1
 BYTE   W06
 BYTE   Cn1
 BYTE   N05  Gs1
 BYTE   W06
 BYTE   Cn1
 BYTE   N05  Fs1
 BYTE   W06
 BYTE   Dn1
 BYTE   N05  Fs1
 BYTE   W06
 BYTE   An1
 BYTE   N05  Cn1
 BYTE   N05  As1
 BYTE   W06
 BYTE   Gs1
 BYTE   W06
 BYTE   Gn1
 BYTE   N05  Cn1
 BYTE   N05  Fs1
 BYTE   W06
 BYTE   Gn1
 BYTE   N05  Cn1
 BYTE   N05  Fs1
 BYTE   W06
 BYTE   Fn1
 BYTE   N05  Cn1
 BYTE   N05  As1
 BYTE   W06
 BYTE   Fn1
 BYTE   N05  Cn1
 BYTE   N05  Gs1
 BYTE   W06
 BYTE   PEND 
 BYTE   PATT
  POIN2 LabelMarbleCorridor_6_5100
// 069   ----------------------------------------
 BYTE   N05  Cn1  v108
 BYTE   N05  Fs1
 BYTE   W06
 BYTE   Dn1
 BYTE   N05  Fs1
 BYTE   W06
 BYTE   As1
 BYTE   W12
 BYTE   Fn1
 BYTE   W24
 BYTE   Cn1
 BYTE   N20  Cs2
 BYTE   W18
 BYTE   N05  Dn1
 BYTE   W06
 BYTE   Cn1
 BYTE   W06
 BYTE   Fs1
 BYTE   W06
 BYTE   As1
 BYTE   W06
 BYTE   Gs1
 BYTE   W06
 BYTE   PATT
  POIN2 LabelMarbleCorridor_6_012A80
 BYTE   PATT
  POIN2 LabelMarbleCorridor_6_5100
// 070   ----------------------------------------
 BYTE   N05  Cn1  v108
 BYTE   N05  Fs1
 BYTE   W06
 BYTE   Dn1
 BYTE   N05  Fs1
 BYTE   W06
 BYTE   As1
 BYTE   W06
 BYTE   Gs1
 BYTE   W06
 BYTE   Gn1
 BYTE   N05  Cn1
 BYTE   N05  Fs1
 BYTE   W06
 BYTE   Gn1
 BYTE   N05  Cn1
 BYTE   N05  Fs1
 BYTE   W06
 BYTE   Fn1
 BYTE   N05  Cn1
 BYTE   N05  As1
 BYTE   W06
 BYTE   Fn1
 BYTE   N05  Cn1
 BYTE   N05  Gs1
 BYTE   W06
 BYTE   Cn1
 BYTE   N05  Fs1
 BYTE   W06
 BYTE   Fs1
 BYTE   W06
 BYTE   As1
 BYTE   W06
 BYTE   Dn1
 BYTE   N05  Gs1
 BYTE   W06
 BYTE   Cn1
 BYTE   N05  Fs1
 BYTE   W06
 BYTE   Fs1
 BYTE   W06
 BYTE   As1
 BYTE   W06
 BYTE   Gs1
 BYTE   W06
 BYTE   PATT
  POIN2 LabelMarbleCorridor_6_012A80
 BYTE   PATT
  POIN2 LabelMarbleCorridor_6_5100
// 071   ----------------------------------------
 BYTE   N05  Cn1  v108
 BYTE   N05  Fs1
 BYTE   W06
 BYTE   Dn1
 BYTE   N05  Fs1
 BYTE   W06
 BYTE   As1
 BYTE   W06
 BYTE   Gs1
 BYTE   W06
 BYTE   Cn1
 BYTE   W06
 BYTE   Dn1
 BYTE   N05  As1
 BYTE   W06
 BYTE   Dn1
 BYTE   N05  As1
 BYTE   W06
 BYTE   Cn1
 BYTE   N05  As1
 BYTE   W06
 BYTE   Cn1
 BYTE   N20  Cs2  v092
 BYTE   W18
 BYTE   N05  Dn1  v108
 BYTE   W06
 BYTE   Cn1
 BYTE   W06
 BYTE   Fs1  v092
 BYTE   W06
 BYTE   As1
 BYTE   W06
 BYTE   Gs1
 BYTE   W06
// 072   ----------------------------------------
LabelMarbleCorridor_6_014580:
 BYTE   N05  Cn1  v108
 BYTE   N05  Fs1  v092
 BYTE   W06
 BYTE   Fs1
 BYTE   W06
 BYTE   As1
 BYTE   W06
 BYTE   Cn1  v108
 BYTE   N05  Gs1  v092
 BYTE   W06
 BYTE   Cn1  v108
 BYTE   N05  Fs1  v092
 BYTE   W06
 BYTE   Fs1
 BYTE   W06
 BYTE   As1
 BYTE   W06
 BYTE   Cn1  v108
 BYTE   N05  Gs1  v092
 BYTE   W06
 BYTE   Cn1  v108
 BYTE   N05  Fs1  v092
 BYTE   W06
 BYTE   Dn1  v108
 BYTE   N05  Fs1  v092
 BYTE   W06
 BYTE   An1  v108
 BYTE   N05  Cn1
 BYTE   N05  As1  v092
 BYTE   W06
 BYTE   Gs1
 BYTE   W06
 BYTE   Gn1  v108
 BYTE   N05  Cn1
 BYTE   N05  Fs1  v092
 BYTE   W06
 BYTE   Gn1  v108
 BYTE   N05  Cn1
 BYTE   N05  Fs1  v092
 BYTE   W06
 BYTE   Fn1  v108
 BYTE   N05  Cn1
 BYTE   N05  As1  v092
 BYTE   W06
 BYTE   Fn1  v108
 BYTE   N05  Cn1
 BYTE   N05  Gs1  v092
 BYTE   W06
 BYTE   PEND 
// 073   ----------------------------------------
LabelMarbleCorridor_6_014880:
 BYTE   N05  Cn1  v108
 BYTE   N05  Fs1  v092
 BYTE   W06
 BYTE   Fs1
 BYTE   W06
 BYTE   As1
 BYTE   W06
 BYTE   Dn1  v108
 BYTE   N05  Gs1  v092
 BYTE   W06
 BYTE   Cn1  v108
 BYTE   N05  Fs1  v092
 BYTE   W06
 BYTE   Fs1
 BYTE   W06
 BYTE   As1
 BYTE   W06
 BYTE   Gs1
 BYTE   W06
 BYTE   Cn1  v108
 BYTE   N05  Fs1  v092
 BYTE   W06
 BYTE   Fs1
 BYTE   W06
 BYTE   As1
 BYTE   W06
 BYTE   Cn1  v108
 BYTE   N05  Gs1  v092
 BYTE   W06
 BYTE   Cn1  v108
 BYTE   N05  Fs1  v092
 BYTE   W06
 BYTE   Fs1
 BYTE   W06
 BYTE   As1
 BYTE   W06
 BYTE   Cn1  v108
 BYTE   N05  Gs1  v092
 BYTE   W06
 BYTE   PEND 
// 074   ----------------------------------------
 BYTE   N05  Cn1  v108
 BYTE   N05  Fs1  v092
 BYTE   W06
 BYTE   Dn1  v108
 BYTE   N05  Fs1  v092
 BYTE   W06
 BYTE   An1  v108
 BYTE   N05  Cn1
 BYTE   N05  As1  v092
 BYTE   W06
 BYTE   Gs1
 BYTE   W06
 BYTE   Gn1  v108
 BYTE   N05  Cn1
 BYTE   W06
 BYTE   Gn1
 BYTE   N05  Cn1
 BYTE   W06
 BYTE   Fn1
 BYTE   N05  Cn1
 BYTE   W06
 BYTE   Fn1
 BYTE   N05  Cn1
 BYTE   W06
 BYTE   Cn1
 BYTE   N20  Cs2  v092
 BYTE   W06
 BYTE   N05  Gn1  v108
 BYTE   W06
 BYTE   Gn1
 BYTE   W06
 BYTE   Fn1
 BYTE   W06
 BYTE   Cn1
 BYTE   W06
 BYTE   Fs1  v092
 BYTE   W06
 BYTE   As1
 BYTE   W06
 BYTE   Gs1
 BYTE   W06
 BYTE   PATT
  POIN2 LabelMarbleCorridor_6_014580
 BYTE   PATT
  POIN2 LabelMarbleCorridor_6_014880
// 075   ----------------------------------------
 BYTE   N05  Cn1  v108
 BYTE   N05  Fs1  v092
 BYTE   W06
 BYTE   Dn1  v108
 BYTE   N05  Fs1  v092
 BYTE   W06
 BYTE   As1
 BYTE   W06
 BYTE   Gs1
 BYTE   W06
 BYTE   Cn1  v108
 BYTE   N05  Fs1  v092
 BYTE   W06
 BYTE   Cn1  v108
 BYTE   N05  Fs1  v092
 BYTE   W06
 BYTE   Cn1  v108
 BYTE   N05  As1  v092
 BYTE   W06
 BYTE   Cn1  v108
 BYTE   N05  Gs1  v092
 BYTE   W06
 BYTE   Cn1  v108
 BYTE   N20  Cs2  v092
 BYTE   W06
 BYTE   N05  Gn1  v108
 BYTE   W06
 BYTE   Gn1
 BYTE   W06
 BYTE   Fn1
 BYTE   W06
 BYTE   Cn1
 BYTE   W06
 BYTE   Fs1  v092
 BYTE   W06
 BYTE   As1
 BYTE   W06
 BYTE   Gs1
 BYTE   W06
 BYTE   PATT
  POIN2 LabelMarbleCorridor_6_014580
// 076   ----------------------------------------
 BYTE   N05  Cn1  v108
 BYTE   N20  Cs2  v092
 BYTE   W18
 BYTE   N05  Cn1  v108
 BYTE   W06
 BYTE   Cn1
 BYTE   W06
 BYTE   Fs1  v092
 BYTE   W06
 BYTE   As1
 BYTE   W06
 BYTE   Gs1
 BYTE   W06
 BYTE   Cn1  v108
 BYTE   N05  Fs1  v092
 BYTE   W06
 BYTE   Fs1
 BYTE   W06
 BYTE   As1
 BYTE   W06
 BYTE   Cn1  v108
 BYTE   N05  Gs1  v092
 BYTE   W06
 BYTE   Cn1  v108
 BYTE   N05  Fs1  v092
 BYTE   W06
 BYTE   Fs1
 BYTE   W06
 BYTE   As1
 BYTE   W06
 BYTE   Cn1  v108
 BYTE   N05  Gs1  v092
 BYTE   W06
// 077   ----------------------------------------
 BYTE   Cn1  v108
 BYTE   N05  Fs1  v092
 BYTE   W06
 BYTE   Fs1
 BYTE   W06
 BYTE   As1
 BYTE   W06
 BYTE   Gs1
 BYTE   W06
 BYTE   Cn1  v108
 BYTE   N05  Fs1  v092
 BYTE   W06
 BYTE   Fs1
 BYTE   W06
 BYTE   As1
 BYTE   W06
 BYTE   Gs1
 BYTE   W06
 BYTE   Cn1  v108
 BYTE   N20  Cs2  v092
 BYTE   W06
 BYTE   N05  Cn1  v108
 BYTE   W06
 BYTE   Dn1
 BYTE   W06
 BYTE   Dn1
 BYTE   W12
 BYTE   Dn1
 BYTE   W06
 BYTE   Cn1
 BYTE   W06
 BYTE   Cn1
 BYTE   W06
// 078   ----------------------------------------
 BYTE   Dn1
 BYTE   W06
 BYTE   Dn1
 BYTE   W12
 BYTE   Dn1
 BYTE   W12
 BYTE   Cn1
 BYTE   W06
 BYTE   Dn1
 BYTE   W06
 BYTE   Cn1
 BYTE   W06
 BYTE   Dn1
 BYTE   W06
 BYTE   Dn1
 BYTE   W06
 BYTE   Cn1
 BYTE   W06
 BYTE   Dn1
 BYTE   W12
 BYTE   Cn1
 BYTE   W06
 BYTE   Dn1
 BYTE   W12
// 079   ----------------------------------------
 BYTE   Dn1
 BYTE   N20  Cs2  v092
 BYTE   W18
 BYTE   N05  Dn1  v108
 BYTE   W06
 BYTE   Cn1
 BYTE   W12
 BYTE   Dn1
 BYTE   W18
 BYTE   Dn1
 BYTE   W06
 BYTE   Dn1
 BYTE   W06
 BYTE   Cn1
 BYTE   W06
 BYTE   Dn1
 BYTE   W06
 BYTE   Dn1
 BYTE   W06
 BYTE   Cn1
 BYTE   W06
 BYTE   Dn1
 BYTE   W18
// 080   ----------------------------------------
 BYTE   N02  Cn1  v092
 BYTE   W03
 BYTE   Cn1  v095
 BYTE   W03
 BYTE   Cn1  v098
 BYTE   W03
 BYTE   Cn1  v101
 BYTE   W03
 BYTE   Dn1  v104
 BYTE   W03
 BYTE   Dn1  v107
 BYTE   W03
 BYTE   Dn1  v110
 BYTE   W03
 BYTE   Dn1  v113
 BYTE   W03
 BYTE   Dn1  v116
 BYTE   W03
 BYTE   Dn1  v119
 BYTE   W03
 BYTE   Dn1  v123
 BYTE   W03
 BYTE   Dn1  v127
 BYTE   W03
 BYTE   GoTo
  POIN2 LabelMarbleCorridor_6_00
 BYTE   FINE

//******************************************************//
	ALIGN 4

songMarbleCorridor:
	BYTE	7	// NumTrks
	BYTE	0	// NumBlks
	BYTE	songMarbleCorridorpri	// Priority
	BYTE	songMarbleCorridorrev	// Reverb.
    
	POIN2	songMarbleCorridorgrp
    
	POIN2	songMarbleCorridor001
	POIN2	songMarbleCorridor002
	POIN2	songMarbleCorridor003
	POIN2	songMarbleCorridor004
	POIN2	songMarbleCorridor005
	POIN2	songMarbleCorridor006
	POIN2	songMarbleCorridor007

	
