//Event file generated from Sappy .s format.
	#include "MPlayDef.event"

	#define	OverwhelmingAdvance_grp  voicegroup000
	#define	OverwhelmingAdvance_pri  0
	#define	OverwhelmingAdvance_rev  0
	#define	OverwhelmingAdvance_mvl  127
	#define	OverwhelmingAdvance_key  0
	#define	OverwhelmingAdvance_tbs  1
	#define	OverwhelmingAdvance_exg  0
	#define	OverwhelmingAdvance_cmp  1

	// .rodata
	//	OverwhelmingAdvance
	ALIGN 4


//**************** Track 1 (Midi-Chn.0) ****************//

OverwhelmingAdvance_001:
// 000   ----------------------------------------
 BYTE   KEYSH   OverwhelmingAdvance_key+0
Label_0_OverwhelmingAdvance_0115C5AE:
 BYTE   TEMPO   88*OverwhelmingAdvance_tbs/2
 BYTE   VOICE   73
 BYTE   VOL   62*OverwhelmingAdvance_mvl/mxv
 BYTE   PAN   c_v+0
 BYTE   W96
// 001   ----------------------------------------
 BYTE   W96
// 002   ----------------------------------------
 BYTE   W96
// 003   ----------------------------------------
 BYTE   W96
// 004   ----------------------------------------
 BYTE   W96
// 005   ----------------------------------------
 BYTE   W96
// 006   ----------------------------------------
 BYTE   W96
// 007   ----------------------------------------
 BYTE   W24
 BYTE   N22  An4  v080
 BYTE   W24
 BYTE   N32  Gn4
 BYTE   W36
 BYTE   N11  En4
 BYTE   W12
// 008   ----------------------------------------
 BYTE   N44  Fn4
 BYTE   W48
 BYTE   An4
 BYTE   W48
// 009   ----------------------------------------
 BYTE   N22  Dn4
 BYTE   W24
 BYTE   En4
 BYTE   W24
 BYTE   Fn4
 BYTE   W24
 BYTE   Dn4
 BYTE   W24
// 010   ----------------------------------------
 BYTE   N32  An4
 BYTE   W36
 BYTE   N11  Gn4
 BYTE   W12
 BYTE   N22  Fn4
 BYTE   W24
 BYTE   Dn4
 BYTE   W24
// 011   ----------------------------------------
 BYTE   N68  Cs4
 BYTE   W96
// 012   ----------------------------------------
 BYTE   N44  Bn4
 BYTE   W48
 BYTE   N32  Cs5
 BYTE   W36
 BYTE   N11  Dn5
 BYTE   W12
// 013   ----------------------------------------
 BYTE   N44  An4
 BYTE   W48
 BYTE   Dn5
 BYTE   W48
// 014   ----------------------------------------
 BYTE   En5
 BYTE   W48
 BYTE   An5
 BYTE   W48
// 015   ----------------------------------------
 BYTE   N90  Dn5
 BYTE   W96
// 016   ----------------------------------------
 BYTE   N44
 BYTE   W48
 BYTE   En5
 BYTE   W48
// 017   ----------------------------------------
 BYTE   Cn5
 BYTE   W96
// 018   ----------------------------------------
 BYTE   As4
 BYTE   W48
 BYTE   Cn5
 BYTE   W48
// 019   ----------------------------------------
 BYTE   As4
 BYTE   W96
// 020   ----------------------------------------
 BYTE   Gn4
 BYTE   W48
 BYTE   N22  As4
 BYTE   W24
 BYTE   N11  An4
 BYTE   W12
 BYTE   Gn4
 BYTE   W12
// 021   ----------------------------------------
 BYTE   N44  Fn4
 BYTE   W72
 BYTE   N11  Gn4
 BYTE   W12
 BYTE   Fn4
 BYTE   W12
// 022   ----------------------------------------
 BYTE   N44  En4
 BYTE   W48
 BYTE   Cs4
 BYTE   W48
// 023   ----------------------------------------
 BYTE   Fn4
 BYTE   W48
 BYTE   En4
 BYTE   W48
// 024   ----------------------------------------
 BYTE   As4
 BYTE   W48
 BYTE   An4
 BYTE   W48
// 025   ----------------------------------------
 BYTE   As5
 BYTE   W48
 BYTE   An5
 BYTE   W48
// 026   ----------------------------------------
 BYTE   N22  Dn5
 BYTE   W24
 BYTE   En5
 BYTE   W24
 BYTE   Fn5
 BYTE   W24
 BYTE   Dn5
 BYTE   W24
// 027   ----------------------------------------
 BYTE   Cs5
 BYTE   W24
 BYTE   Dn5
 BYTE   W24
 BYTE   En5
 BYTE   W24
 BYTE   Cs5
 BYTE   W24
// 028   ----------------------------------------
 BYTE   Dn5
 BYTE   W24
 BYTE   En5
 BYTE   W24
 BYTE   Fn5
 BYTE   W24
 BYTE   Gn5
 BYTE   W24
// 029   ----------------------------------------
 BYTE   N44  An5
 BYTE   W96
// 030   ----------------------------------------
 BYTE   N22  Gn5
 BYTE   W24
 BYTE   N11  Fn5
 BYTE   W24
 BYTE   N22  En5
 BYTE   W24
 BYTE   N11  Dn5
 BYTE   W24
// 031   ----------------------------------------
 BYTE   N44  Cs5
 BYTE   W48
 BYTE   GoTo
  POIN2 Label_0_OverwhelmingAdvance_0115C5AE
// 032   ----------------------------------------
 BYTE   W44
 BYTE   W03
 BYTE   FINE

//**************** Track 2 (Midi-Chn.1) ****************//

OverwhelmingAdvance_002:
// 000   ----------------------------------------
 BYTE   KEYSH   OverwhelmingAdvance_key+0
Label_1_0115C65E:
 BYTE   VOICE   40
 BYTE   VOL   45*OverwhelmingAdvance_mvl/mxv
 BYTE   PAN   c_v+0
 BYTE   N92  Dn4  v080
 BYTE   W96
// 001   ----------------------------------------
 BYTE   W96
// 002   ----------------------------------------
 BYTE   N92
 BYTE   W96
// 003   ----------------------------------------
 BYTE   Cn4
 BYTE   W96
// 004   ----------------------------------------
 BYTE   Dn4
 BYTE   W96
// 005   ----------------------------------------
 BYTE   W48
 BYTE   N44
 BYTE   W48
// 006   ----------------------------------------
 BYTE   N92
 BYTE   W96
// 007   ----------------------------------------
 BYTE   En4
 BYTE   W96
// 008   ----------------------------------------
 BYTE   W96
// 009   ----------------------------------------
 BYTE   W96
// 010   ----------------------------------------
 BYTE   W96
// 011   ----------------------------------------
 BYTE   N68
 BYTE   W96
// 012   ----------------------------------------
 BYTE   N44  Gn4
 BYTE   W48
 BYTE   An4
 BYTE   W48
// 013   ----------------------------------------
 BYTE   N92  Dn4
 BYTE   W96
// 014   ----------------------------------------
 BYTE   En4
 BYTE   W96
// 015   ----------------------------------------
 BYTE   Fn4
 BYTE   W96
// 016   ----------------------------------------
 BYTE   W96
// 017   ----------------------------------------
 BYTE   W96
// 018   ----------------------------------------
 BYTE   W96
// 019   ----------------------------------------
 BYTE   W96
// 020   ----------------------------------------
 BYTE   W96
// 021   ----------------------------------------
 BYTE   W96
// 022   ----------------------------------------
 BYTE   W96
// 023   ----------------------------------------
 BYTE   W96
// 024   ----------------------------------------
 BYTE   TIE  An4
 BYTE   W96
// 025   ----------------------------------------
 BYTE   W92
 BYTE   W03
 BYTE   EOT
 BYTE   W01
// 026   ----------------------------------------
 BYTE   N92  Fn4
 BYTE   W96
// 027   ----------------------------------------
 BYTE   An4
 BYTE   W96
// 028   ----------------------------------------
 BYTE   Gn4
 BYTE   W96
// 029   ----------------------------------------
 BYTE   N44  Fn4
 BYTE   W48
 BYTE   En4
 BYTE   W48
// 030   ----------------------------------------
 BYTE   TIE
 BYTE   W96
// 031   ----------------------------------------
 BYTE   W48
 BYTE   GoTo
  POIN2 Label_1_0115C65E
// 032   ----------------------------------------
 BYTE   W44
 BYTE   W03
 BYTE   EOT
 BYTE   En4
 BYTE   FINE

//**************** Track 3 (Midi-Chn.2) ****************//

OverwhelmingAdvance_003:
// 000   ----------------------------------------
 BYTE   KEYSH   OverwhelmingAdvance_key+0
Label_2_0115C6B2:
 BYTE   VOICE   56
 BYTE   VOL   62*OverwhelmingAdvance_mvl/mxv
 BYTE   PAN   c_v+0
 BYTE   N23  Dn3  v080
 BYTE   W24
 BYTE   En3
 BYTE   W24
 BYTE   Fn3
 BYTE   W24
 BYTE   Dn3
 BYTE   W24
// 001   ----------------------------------------
Label_2_0115C6C2:
 BYTE   N32  An3  v080
 BYTE   W36
 BYTE   N11  Gn3
 BYTE   W12
 BYTE   N23  Fn3
 BYTE   W24
 BYTE   Dn3
 BYTE   W24
 BYTE   PEND 
// 002   ----------------------------------------
Label_2_0115C6CF:
 BYTE   N23  As3  v080
 BYTE   W24
 BYTE   Cn4
 BYTE   W24
 BYTE   Gn3
 BYTE   W24
 BYTE   Fn3
 BYTE   W24
 BYTE   PEND 
// 003   ----------------------------------------
 BYTE   N92  En3
 BYTE   W96
// 004   ----------------------------------------
 BYTE   N23  Dn3
 BYTE   W24
 BYTE   En3
 BYTE   W24
 BYTE   Fn3
 BYTE   W24
 BYTE   Dn3
 BYTE   W24
 BYTE   PATT
  POIN2 Label_2_0115C6C2
 BYTE   PATT
  POIN2 Label_2_0115C6CF
// 005   ----------------------------------------
 BYTE   N92  En3  v080
 BYTE   W96
// 006   ----------------------------------------
 BYTE   W96
// 007   ----------------------------------------
 BYTE   W96
// 008   ----------------------------------------
 BYTE   W72
 BYTE   N23  Gn3
 BYTE   W24
// 009   ----------------------------------------
 BYTE   N68  An3
 BYTE   W96
// 010   ----------------------------------------
 BYTE   N44  Gn3
 BYTE   W48
 BYTE   N11  Fn3
 BYTE   W12
 BYTE   En3
 BYTE   W12
 BYTE   N23  Fn3
 BYTE   W24
// 011   ----------------------------------------
 BYTE   N44  En3
 BYTE   W48
 BYTE   Dn3
 BYTE   W48
// 012   ----------------------------------------
 BYTE   N44
 BYTE   W48
 BYTE   N23  Cs3
 BYTE   W24
 BYTE   En3
 BYTE   W24
// 013   ----------------------------------------
 BYTE   N92  Dn3
 BYTE   W96
// 014   ----------------------------------------
 BYTE   N44  Fn3
 BYTE   W90
 BYTE   N05  Gn3
 BYTE   W06
// 015   ----------------------------------------
 BYTE   N23
 BYTE   W24
 BYTE   As3
 BYTE   W24
 BYTE   An3
 BYTE   W24
 BYTE   Gn3
 BYTE   W24
// 016   ----------------------------------------
 BYTE   N44  En3
 BYTE   W48
 BYTE   N23  Gn3
 BYTE   W36
 BYTE   N05  Fn3
 BYTE   W06
 BYTE   En3
 BYTE   W06
// 017   ----------------------------------------
 BYTE   N44  Dn3
 BYTE   W72
 BYTE   N23  An3
 BYTE   W24
// 018   ----------------------------------------
 BYTE   As3
 BYTE   W48
 BYTE   Gn3
 BYTE   W42
 BYTE   N05  An3
 BYTE   W06
// 019   ----------------------------------------
 BYTE   N23
 BYTE   W48
 BYTE   Fn3
 BYTE   W48
// 020   ----------------------------------------
 BYTE   N44  En3
 BYTE   W96
// 021   ----------------------------------------
 BYTE   An3
 BYTE   W90
 BYTE   N05  An4
 BYTE   W06
// 022   ----------------------------------------
 BYTE   N44
 BYTE   W96
// 023   ----------------------------------------
 BYTE   Cs4
 BYTE   W48
 BYTE   N23  Bn3
 BYTE   W24
 BYTE   Cs4
 BYTE   W24
// 024   ----------------------------------------
 BYTE   N68  Dn4
 BYTE   W72
 BYTE   N23  En4
 BYTE   W24
// 025   ----------------------------------------
 BYTE   Fn4
 BYTE   W24
 BYTE   Dn4
 BYTE   W24
 BYTE   Cs4
 BYTE   W24
 BYTE   Dn4
 BYTE   W24
// 026   ----------------------------------------
 BYTE   En4
 BYTE   W24
 BYTE   Cs4
 BYTE   W48
 BYTE   En4
 BYTE   W24
// 027   ----------------------------------------
 BYTE   Dn4
 BYTE   W24
 BYTE   En4
 BYTE   W24
 BYTE   N11  Fn4
 BYTE   W12
 BYTE   Dn4
 BYTE   W12
 BYTE   An4
 BYTE   W12
 BYTE   Gn4
 BYTE   W12
// 028   ----------------------------------------
 BYTE   N44  An4
 BYTE   W48
 BYTE   N23  Gn4
 BYTE   W24
 BYTE   As4
 BYTE   W24
// 029   ----------------------------------------
 BYTE   N92  An4
 BYTE   W48
 BYTE   GoTo
  POIN2 Label_2_0115C6B2
// 030   ----------------------------------------
 BYTE   W44
 BYTE   W03
 BYTE   FINE

//**************** Track 4 (Midi-Chn.3) ****************//

OverwhelmingAdvance_004:
// 000   ----------------------------------------
 BYTE   KEYSH   OverwhelmingAdvance_key+0
Label_3_0115C78A:
 BYTE   VOICE   60
 BYTE   VOL   62*OverwhelmingAdvance_mvl/mxv
 BYTE   PAN   c_v+0
 BYTE   W96
// 001   ----------------------------------------
 BYTE   W96
// 002   ----------------------------------------
 BYTE   W96
// 003   ----------------------------------------
 BYTE   W24
 BYTE   N23  Cn3  v080
 BYTE   W24
 BYTE   Fn3
 BYTE   W24
 BYTE   En3
 BYTE   W24
// 004   ----------------------------------------
 BYTE   N44  Fn3
 BYTE   W48
 BYTE   Dn3
 BYTE   W48
// 005   ----------------------------------------
 BYTE   W24
 BYTE   N23  Gn3
 BYTE   W24
 BYTE   N23
 BYTE   W24
 BYTE   Fn3
 BYTE   W24
// 006   ----------------------------------------
 BYTE   N44  En3
 BYTE   W48
 BYTE   Dn3
 BYTE   W48
// 007   ----------------------------------------
 BYTE   N92  Cs3
 BYTE   W96
// 008   ----------------------------------------
 BYTE   N23  Dn3
 BYTE   W24
 BYTE   En3
 BYTE   W24
 BYTE   Fn3
 BYTE   W24
 BYTE   Gn3
 BYTE   W24
// 009   ----------------------------------------
 BYTE   N68  En3
 BYTE   W72
 BYTE   N23  Fn3
 BYTE   W24
// 010   ----------------------------------------
 BYTE   Gn3
 BYTE   W24
 BYTE   An3
 BYTE   W24
 BYTE   As3
 BYTE   W24
 BYTE   Gn3
 BYTE   W24
// 011   ----------------------------------------
 BYTE   N68  En3
 BYTE   W96
// 012   ----------------------------------------
 BYTE   W96
// 013   ----------------------------------------
 BYTE   W48
 BYTE   N44  Fn3
 BYTE   W48
// 014   ----------------------------------------
Label_3_0115C7D0:
 BYTE   N44  Gn3  v080
 BYTE   W48
 BYTE   An3
 BYTE   W48
 BYTE   PEND 
// 015   ----------------------------------------
 BYTE   Fn3
 BYTE   W48
 BYTE   En3
 BYTE   W48
// 016   ----------------------------------------
 BYTE   N23  Dn3
 BYTE   W24
 BYTE   An3
 BYTE   W24
 BYTE   Gn3
 BYTE   W24
 BYTE   Fn3
 BYTE   W24
// 017   ----------------------------------------
 BYTE   N44  En3
 BYTE   W48
 BYTE   Fn3
 BYTE   W48
 BYTE   PATT
  POIN2 Label_3_0115C7D0
// 018   ----------------------------------------
 BYTE   N44  As3  v080
 BYTE   W48
 BYTE   N23  An3
 BYTE   W24
 BYTE   Gn3
 BYTE   W24
// 019   ----------------------------------------
 BYTE   Fn3
 BYTE   W24
 BYTE   N44  En3
 BYTE   W48
 BYTE   N23  Fn3
 BYTE   W24
// 020   ----------------------------------------
 BYTE   Dn3
 BYTE   W24
 BYTE   Fn3
 BYTE   W24
 BYTE   En3
 BYTE   W24
 BYTE   Dn3
 BYTE   W24
// 021   ----------------------------------------
 BYTE   N44  Cs3
 BYTE   W96
// 022   ----------------------------------------
 BYTE   N44
 BYTE   W96
// 023   ----------------------------------------
 BYTE   N23  Dn3
 BYTE   W24
 BYTE   N44  En3
 BYTE   W72
// 024   ----------------------------------------
 BYTE   N92  Gn3
 BYTE   W96
// 025   ----------------------------------------
 BYTE   N44  Fn3
 BYTE   W84
 BYTE   N11  Gn3
 BYTE   W12
// 026   ----------------------------------------
 BYTE   N23
 BYTE   W24
 BYTE   As3
 BYTE   W24
 BYTE   N44  An3
 BYTE   W48
// 027   ----------------------------------------
 BYTE   Gn3
 BYTE   W48
 BYTE   En3
 BYTE   W48
// 028   ----------------------------------------
 BYTE   W24
 BYTE   N23  An3
 BYTE   W24
 BYTE   En3
 BYTE   W24
 BYTE   Gn3
 BYTE   W24
// 029   ----------------------------------------
 BYTE   N44  Fn3
 BYTE   W48
 BYTE   An2
 BYTE   W48
// 030   ----------------------------------------
 BYTE   N68  En3
 BYTE   W48
 BYTE   GoTo
  POIN2 Label_3_0115C78A
// 031   ----------------------------------------
 BYTE   W44
 BYTE   W03
 BYTE   FINE

//**************** Track 5 (Midi-Chn.4) ****************//

OverwhelmingAdvance_005:
// 000   ----------------------------------------
 BYTE   KEYSH   OverwhelmingAdvance_key+0
Label_4_0115C842:
 BYTE   VOICE   41
 BYTE   VOL   44*OverwhelmingAdvance_mvl/mxv
 BYTE   PAN   c_v+0
 BYTE   N92  Fn2  v080
 BYTE   W96
// 001   ----------------------------------------
 BYTE   W96
// 002   ----------------------------------------
Label_4_0115C84D:
 BYTE   N44  Gn2  v080
 BYTE   W48
 BYTE   An2
 BYTE   W48
 BYTE   PEND 
// 003   ----------------------------------------
 BYTE   N92
 BYTE   W96
// 004   ----------------------------------------
 BYTE   N92
 BYTE   W96
// 005   ----------------------------------------
 BYTE   W48
 BYTE   N44  Gn2
 BYTE   W48
 BYTE   PATT
  POIN2 Label_4_0115C84D
// 006   ----------------------------------------
 BYTE   N92  An2  v080
 BYTE   W96
// 007   ----------------------------------------
 BYTE   TIE
 BYTE   W96
// 008   ----------------------------------------
 BYTE   W96
// 009   ----------------------------------------
 BYTE   W96
// 010   ----------------------------------------
 BYTE   W68
 BYTE   W03
 BYTE   EOT
 BYTE   W24
 BYTE   W01
// 011   ----------------------------------------
 BYTE   N44  Fn3
 BYTE   W48
 BYTE   N44
 BYTE   W48
// 012   ----------------------------------------
 BYTE   En3
 BYTE   W48
 BYTE   Dn3
 BYTE   W48
// 013   ----------------------------------------
 BYTE   N44
 BYTE   W48
 BYTE   En3
 BYTE   W48
// 014   ----------------------------------------
 BYTE   N92  Dn3
 BYTE   W96
// 015   ----------------------------------------
 BYTE   N92
 BYTE   W96
// 016   ----------------------------------------
 BYTE   Cn3
 BYTE   W96
// 017   ----------------------------------------
 BYTE   As2
 BYTE   W96
// 018   ----------------------------------------
 BYTE   An2
 BYTE   W96
// 019   ----------------------------------------
 BYTE   As2
 BYTE   W96
// 020   ----------------------------------------
 BYTE   N92
 BYTE   W96
// 021   ----------------------------------------
 BYTE   An2
 BYTE   W96
// 022   ----------------------------------------
 BYTE   N92
 BYTE   W96
// 023   ----------------------------------------
 BYTE   N92
 BYTE   W96
// 024   ----------------------------------------
 BYTE   N92
 BYTE   W96
// 025   ----------------------------------------
 BYTE   Dn3
 BYTE   W96
// 026   ----------------------------------------
 BYTE   N92
 BYTE   W96
// 027   ----------------------------------------
 BYTE   As2
 BYTE   W96
// 028   ----------------------------------------
 BYTE   An2
 BYTE   W96
// 029   ----------------------------------------
 BYTE   N92
 BYTE   W96
// 030   ----------------------------------------
 BYTE   N44
 BYTE   W48
 BYTE   GoTo
  POIN2 Label_4_0115C842
// 031   ----------------------------------------
 BYTE   N44  Gn2  v080
 BYTE   W44
 BYTE   W03
 BYTE   FINE

//**************** Track 6 (Midi-Chn.5) ****************//

OverwhelmingAdvance_006:
// 000   ----------------------------------------
 BYTE   KEYSH   OverwhelmingAdvance_key+0
Label_5_0115C8AE:
 BYTE   VOICE   127
 BYTE   VOL   62*OverwhelmingAdvance_mvl/mxv
 BYTE   PAN   c_v+0
 BYTE   N23  Dn1  v080
 BYTE   W48
 BYTE   Cn1
 BYTE   W36
 BYTE   N03  Dn1
 BYTE   W04
 BYTE   N03
 BYTE   W04
 BYTE   N03
 BYTE   W04
// 001   ----------------------------------------
Label_5_0115C8C1:
 BYTE   N23  Dn1  v080
 BYTE   W48
 BYTE   Cn1
 BYTE   W36
 BYTE   N03  Dn1
 BYTE   W04
 BYTE   N03
 BYTE   W04
 BYTE   N03
 BYTE   W04
 BYTE   PEND 
// 002   ----------------------------------------
Label_5_0115C8CF:
 BYTE   N11  Dn1  v080
 BYTE   W12
 BYTE   N11
 BYTE   W36
 BYTE   N23  Cn1
 BYTE   W36
 BYTE   N03  Dn1
 BYTE   W04
 BYTE   N03
 BYTE   W04
 BYTE   N03
 BYTE   W04
 BYTE   PEND 
// 003   ----------------------------------------
Label_5_0115C8E0:
 BYTE   N23  Dn1  v080
 BYTE   W48
 BYTE   Cn1
 BYTE   W42
 BYTE   N05  Dn1
 BYTE   W06
 BYTE   PEND 
 BYTE   PATT
  POIN2 Label_5_0115C8C1
 BYTE   PATT
  POIN2 Label_5_0115C8C1
 BYTE   PATT
  POIN2 Label_5_0115C8CF
 BYTE   PATT
  POIN2 Label_5_0115C8E0
// 004   ----------------------------------------
Label_5_0115C8FE:
 BYTE   N11  Dn1  v080
 BYTE   W12
 BYTE   N11
 BYTE   W24
 BYTE   N05  Cn1
 BYTE   W06
 BYTE   Dn1
 BYTE   W06
 BYTE   N23
 BYTE   W48
 BYTE   PEND 
 BYTE   PATT
  POIN2 Label_5_0115C8FE
 BYTE   PATT
  POIN2 Label_5_0115C8FE
// 005   ----------------------------------------
 BYTE   N11  Dn1  v080
 BYTE   W12
 BYTE   N11
 BYTE   W24
 BYTE   N05  Cn1
 BYTE   W06
 BYTE   Dn1
 BYTE   W06
 BYTE   N11
 BYTE   W12
 BYTE   N11
 BYTE   W36
// 006   ----------------------------------------
 BYTE   W12
 BYTE   N11
 BYTE   W24
 BYTE   N05
 BYTE   W06
 BYTE   N05
 BYTE   W06
 BYTE   N11
 BYTE   W12
 BYTE   N11
 BYTE   W24
 BYTE   N11
 BYTE   W12
// 007   ----------------------------------------
Label_5_0115C932:
 BYTE   N11  Dn1  v080
 BYTE   W12
 BYTE   N11
 BYTE   W24
 BYTE   N05
 BYTE   W06
 BYTE   N05
 BYTE   W06
 BYTE   N11
 BYTE   W12
 BYTE   N11
 BYTE   W24
 BYTE   N11
 BYTE   W12
 BYTE   PEND 
 BYTE   PATT
  POIN2 Label_5_0115C932
// 008   ----------------------------------------
 BYTE   N11  Dn1  v080
 BYTE   W12
 BYTE   N11
 BYTE   W24
 BYTE   N05
 BYTE   W06
 BYTE   N05
 BYTE   W06
 BYTE   N11
 BYTE   W12
 BYTE   N11
 BYTE   W12
 BYTE   N11
 BYTE   W12
 BYTE   N05
 BYTE   W06
 BYTE   N05
 BYTE   W06
// 009   ----------------------------------------
 BYTE   N11  Cn1
 BYTE   W12
 BYTE   Dn1
 BYTE   W24
 BYTE   N11
 BYTE   W12
 BYTE   Cn1
 BYTE   W12
 BYTE   Dn1
 BYTE   W24
 BYTE   N05
 BYTE   W06
 BYTE   N05
 BYTE   W06
// 010   ----------------------------------------
Label_5_0115C96B:
 BYTE   N11  Dn1  v080
 BYTE   W12
 BYTE   N11
 BYTE   W24
 BYTE   N11
 BYTE   W12
 BYTE   Cn1
 BYTE   W12
 BYTE   Dn1
 BYTE   W24
 BYTE   N05
 BYTE   W06
 BYTE   N05
 BYTE   W06
 BYTE   PEND 
 BYTE   PATT
  POIN2 Label_5_0115C96B
// 011   ----------------------------------------
 BYTE   N11  Dn1  v080
 BYTE   W12
 BYTE   N11
 BYTE   W24
 BYTE   N11
 BYTE   W12
 BYTE   N11
 BYTE   W12
 BYTE   N11
 BYTE   W12
 BYTE   N01
 BYTE   W01
 BYTE   N01
 BYTE   W01
 BYTE   N01
 BYTE   W02
 BYTE   N01
 BYTE   W01
 BYTE   N01
 BYTE   W02
 BYTE   N01
 BYTE   W01
 BYTE   N01
 BYTE   W02
 BYTE   N01
 BYTE   W01
 BYTE   N01
 BYTE   W02
 BYTE   N01
 BYTE   W01
 BYTE   N01
 BYTE   W02
 BYTE   N01
 BYTE   W01
 BYTE   N01
 BYTE   W02
 BYTE   N01
 BYTE   W01
 BYTE   N01
 BYTE   W02
 BYTE   N01
 BYTE   W02
 BYTE   PATT
  POIN2 Label_5_0115C96B
 BYTE   PATT
  POIN2 Label_5_0115C96B
// 012   ----------------------------------------
Label_5_0115C9B7:
 BYTE   N01  Dn1  v080
 BYTE   W01
 BYTE   N01
 BYTE   W01
 BYTE   N01
 BYTE   W02
 BYTE   N01
 BYTE   W01
 BYTE   N01
 BYTE   W02
 BYTE   N01
 BYTE   W01
 BYTE   N01
 BYTE   W02
 BYTE   N01
 BYTE   W01
 BYTE   N01
 BYTE   W02
 BYTE   N01
 BYTE   W01
 BYTE   N01
 BYTE   W02
 BYTE   N01
 BYTE   W01
 BYTE   N01
 BYTE   W02
 BYTE   N01
 BYTE   W01
 BYTE   N01
 BYTE   W02
 BYTE   N01
 BYTE   W02
 BYTE   N11
 BYTE   W24
 BYTE   N11
 BYTE   W24
 BYTE   N11
 BYTE   W24
 BYTE   PEND 
 BYTE   PATT
  POIN2 Label_5_0115C9B7
// 013   ----------------------------------------
 BYTE   N01  Dn1  v080
 BYTE   W01
 BYTE   N01
 BYTE   W01
 BYTE   N01
 BYTE   W02
 BYTE   N01
 BYTE   W01
 BYTE   N01
 BYTE   W02
 BYTE   N01
 BYTE   W01
 BYTE   N01
 BYTE   W02
 BYTE   N01
 BYTE   W01
 BYTE   N01
 BYTE   W02
 BYTE   N01
 BYTE   W01
 BYTE   N01
 BYTE   W02
 BYTE   N01
 BYTE   W01
 BYTE   N01
 BYTE   W02
 BYTE   N01
 BYTE   W01
 BYTE   N01
 BYTE   W02
 BYTE   N01
 BYTE   W02
 BYTE   N11
 BYTE   W24
 BYTE   N11
 BYTE   W24
 BYTE   N11
 BYTE   W18
 BYTE   N05
 BYTE   W06
// 014   ----------------------------------------
 BYTE   N11
 BYTE   W36
 BYTE   N11
 BYTE   W24
 BYTE   N11
 BYTE   W12
 BYTE   N11
 BYTE   W12
 BYTE   N11
 BYTE   W12
// 015   ----------------------------------------
Label_5_0115CA19:
 BYTE   N23  Dn1  v080
 BYTE   W84
 BYTE   N03
 BYTE   W04
 BYTE   N03
 BYTE   W04
 BYTE   N03
 BYTE   W04
 BYTE   PEND 
 BYTE   PATT
  POIN2 Label_5_0115CA19
// 016   ----------------------------------------
 BYTE   N11  Dn1  v080
 BYTE   W12
 BYTE   N11
 BYTE   W72
 BYTE   N03
 BYTE   W04
 BYTE   N03
 BYTE   W04
 BYTE   N03
 BYTE   W04
// 017   ----------------------------------------
 BYTE   N23
 BYTE   W90
 BYTE   N05
 BYTE   W06
// 018   ----------------------------------------
 BYTE   N23
 BYTE   W72
 BYTE   N11
 BYTE   W12
 BYTE   N03
 BYTE   W04
 BYTE   N03
 BYTE   W04
 BYTE   N03
 BYTE   W04
// 019   ----------------------------------------
 BYTE   N11
 BYTE   W12
 BYTE   N11
 BYTE   W24
 BYTE   N11
 BYTE   W12
 BYTE   GoTo
  POIN2 Label_5_0115C8AE
// 020   ----------------------------------------
 BYTE   N11  Dn1  v080
 BYTE   W12
 BYTE   N03
 BYTE   W04
 BYTE   N03
 BYTE   W04
 BYTE   N03
 BYTE   W04
 BYTE   N23
 BYTE   W23
 BYTE   FINE

//**************** Track 7 (Midi-Chn.6) ****************//

OverwhelmingAdvance_007:
// 000   ----------------------------------------
 BYTE   KEYSH   OverwhelmingAdvance_key+0
Label_6_0115CA5E:
 BYTE   VOICE   58
 BYTE   VOL   62*OverwhelmingAdvance_mvl/mxv
 BYTE   PAN   c_v+0
 BYTE   N23  Dn1  v080
 BYTE   W72
 BYTE   An0
 BYTE   W24
// 001   ----------------------------------------
Label_6_0115CA6A:
 BYTE   N23  Dn1  v080
 BYTE   W72
 BYTE   An0
 BYTE   W24
 BYTE   PEND 
// 002   ----------------------------------------
Label_6_0115CA71:
 BYTE   N23  Gn0  v080
 BYTE   W72
 BYTE   As0
 BYTE   W24
 BYTE   PEND 
// 003   ----------------------------------------
Label_6_0115CA78:
 BYTE   N23  An0  v080
 BYTE   W72
 BYTE   N23
 BYTE   W24
 BYTE   PEND 
 BYTE   PATT
  POIN2 Label_6_0115CA6A
 BYTE   PATT
  POIN2 Label_6_0115CA6A
 BYTE   PATT
  POIN2 Label_6_0115CA71
 BYTE   PATT
  POIN2 Label_6_0115CA78
// 004   ----------------------------------------
 BYTE   N23  Dn1  v080
 BYTE   W72
 BYTE   An1
 BYTE   W24
// 005   ----------------------------------------
 BYTE   N23
 BYTE   W48
 BYTE   An0
 BYTE   W48
// 006   ----------------------------------------
 BYTE   As0
 BYTE   W48
 BYTE   Fn0
 BYTE   W24
 BYTE   As0
 BYTE   W24
// 007   ----------------------------------------
 BYTE   An0
 BYTE   W72
 BYTE   Cn2
 BYTE   W24
// 008   ----------------------------------------
 BYTE   N44  Dn2
 BYTE   W48
 BYTE   An1
 BYTE   W48
// 009   ----------------------------------------
 BYTE   Dn1
 BYTE   W48
 BYTE   Fn1
 BYTE   W48
// 010   ----------------------------------------
 BYTE   N23  En1
 BYTE   W72
 BYTE   An1
 BYTE   W24
// 011   ----------------------------------------
 BYTE   Dn1
 BYTE   W48
 BYTE   An0
 BYTE   W48
// 012   ----------------------------------------
 BYTE   As0
 BYTE   W72
 BYTE   Gn0
 BYTE   W24
// 013   ----------------------------------------
 BYTE   An0
 BYTE   W72
 BYTE   Fn0
 BYTE   W24
// 014   ----------------------------------------
 BYTE   Gn0
 BYTE   W72
 BYTE   Cs1
 BYTE   W24
// 015   ----------------------------------------
 BYTE   N44  Dn1
 BYTE   W48
 BYTE   N23  Fn1
 BYTE   W24
 BYTE   Fn0
 BYTE   W24
// 016   ----------------------------------------
 BYTE   N44  Gn0
 BYTE   W96
// 017   ----------------------------------------
 BYTE   N92  An0
 BYTE   W96
// 018   ----------------------------------------
 BYTE   N44  An1
 BYTE   W96
// 019   ----------------------------------------
 BYTE   An0
 BYTE   W96
// 020   ----------------------------------------
 BYTE   W96
// 021   ----------------------------------------
 BYTE   N92  An1
 BYTE   W96
// 022   ----------------------------------------
 BYTE   N23
 BYTE   W48
 BYTE   Dn2
 BYTE   W48
// 023   ----------------------------------------
 BYTE   An1
 BYTE   W48
 BYTE   En2
 BYTE   W48
// 024   ----------------------------------------
 BYTE   An1
 BYTE   W48
 BYTE   Fn2
 BYTE   W24
 BYTE   Dn2
 BYTE   W24
// 025   ----------------------------------------
 BYTE   An2
 BYTE   W48
 BYTE   An1
 BYTE   W48
// 026   ----------------------------------------
 BYTE   As1
 BYTE   W48
 BYTE   An1
 BYTE   W48
// 027   ----------------------------------------
 BYTE   N23
 BYTE   W48
 BYTE   GoTo
  POIN2 Label_6_0115CA5E
// 028   ----------------------------------------
 BYTE   N44  An0  v080
 BYTE   W44
 BYTE   W03
 BYTE   FINE

//******************************************************//
	ALIGN 4

songOverwhelmingAdvance:
	BYTE	7	// NumTrks
	BYTE	0	// NumBlks
	BYTE	OverwhelmingAdvance_pri	// Priority
	BYTE	OverwhelmingAdvance_rev	// Reverb.
    
	POIN2	OverwhelmingAdvance_grp
    
	POIN2	OverwhelmingAdvance_001
	POIN2	OverwhelmingAdvance_002
	POIN2	OverwhelmingAdvance_003
	POIN2	OverwhelmingAdvance_004
	POIN2	OverwhelmingAdvance_005
	POIN2	OverwhelmingAdvance_006
	POIN2	OverwhelmingAdvance_007

	
