	.include "MPlayDef.s"

	.equ	songPorkChopSandwiches_grp, voicegroup000
	.equ	songPorkChopSandwiches_pri, 0
	.equ	songPorkChopSandwiches_rev, 0
	.equ	songPorkChopSandwiches_mvl, 127
	.equ	songPorkChopSandwiches_key, 0
	.equ	songPorkChopSandwiches_tbs, 1
	.equ	songPorkChopSandwiches_exg, 0
	.equ	songPorkChopSandwiches_cmp, 1

	.section .rodata
	.global	songPorkChopSandwiches
	.align	2


@**************** Track 1 (Midi-Chn.0) ****************@

songPorkChopSandwiches_001:
@  #01 @000   ----------------------------------------
 .byte   VOL , 127*songPorkChopSandwiches_mvl/mxv
 .byte   KEYSH , songPorkChopSandwiches_key+0
 .byte   TEMPO , 120*songPorkChopSandwiches_tbs/2
 .byte   VOICE , 86
 .byte   W96
@  #01 @001   ----------------------------------------
 .byte   W96
@  #01 @002   ----------------------------------------
 .byte   W96
@  #01 @003   ----------------------------------------
 .byte   W96
@  #01 @004   ----------------------------------------
Label_555998:
 .byte   N03 ,Cn3 ,v052
 .byte   W03
 .byte   N02
 .byte   W03
 .byte   N03 ,Dn3
 .byte   W03
 .byte   N02 ,Ds3
 .byte   W03
 .byte   N03 ,Fn3
 .byte   W03
 .byte   N02 ,Gn3
 .byte   W03
 .byte   N03 ,Gs3
 .byte   W03
 .byte   N02 ,As3
 .byte   W03
 .byte   N48 ,Cn4
 .byte   W72
@  #01 @005   ----------------------------------------
 .byte   N24 ,Fn4 ,v064
 .byte   W36
 .byte   Ds4 ,v052
 .byte   W36
 .byte   Dn4
 .byte   W24
@  #01 @006   ----------------------------------------
 .byte   N72 ,Gn4
 .byte   W96
@  #01 @007   ----------------------------------------
 .byte   N24 ,Ds4
 .byte   W36
 .byte   Dn4
 .byte   W36
 .byte   Cn4
 .byte   W24
@  #01 @008   ----------------------------------------
 .byte   N06 ,Fn3
 .byte   W06
 .byte   Gn3
 .byte   W06
 .byte   Gs3
 .byte   W06
 .byte   As3
 .byte   W06
 .byte   N48 ,Cn4
 .byte   W72
@  #01 @009   ----------------------------------------
 .byte   N24 ,Dn4
 .byte   W36
 .byte   Ds4
 .byte   W36
 .byte   Fn4
 .byte   W24
@  #01 @010   ----------------------------------------
 .byte   N72 ,Gn4
 .byte   W96
@  #01 @011   ----------------------------------------
 .byte   N24 ,As3
 .byte   W36
 .byte   Gs3
 .byte   W36
 .byte   Gn3
 .byte   W24
@  #01 @012   ----------------------------------------
 .byte   N06 ,Gs3
 .byte   W06
 .byte   As3
 .byte   W06
 .byte   Cn4
 .byte   W06
 .byte   Dn4
 .byte   W06
 .byte   N48 ,Ds4
 .byte   W72
@  #01 @013   ----------------------------------------
 .byte   N24 ,Cn5
 .byte   W36
 .byte   As4
 .byte   W36
 .byte   Gs4
 .byte   W24
@  #01 @014   ----------------------------------------
 .byte   N96 ,Gn4
 .byte   W96
@  #01 @015   ----------------------------------------
 .byte   W96
@  #01 @016   ----------------------------------------
 .byte   W96
@  #01 @017   ----------------------------------------
 .byte   W96
@  #01 @018   ----------------------------------------
 .byte   W96
@  #01 @019   ----------------------------------------
 .byte   W96
@  #01 @020   ----------------------------------------
 .byte   W96
@  #01 @021   ----------------------------------------
 .byte   W96
@  #01 @022   ----------------------------------------
 .byte   W96
@  #01 @023   ----------------------------------------
 .byte   W96
@  #01 @024   ----------------------------------------
 .byte   W96
@  #01 @025   ----------------------------------------
 .byte   W96
@  #01 @026   ----------------------------------------
 .byte   W96
@  #01 @027   ----------------------------------------
 .byte   W96
@  #01 @028   ----------------------------------------
 .byte   W96
@  #01 @029   ----------------------------------------
 .byte   W96
@  #01 @030   ----------------------------------------
 .byte   W96
@  #01 @031   ----------------------------------------
 .byte   W96
@  #01 @032   ----------------------------------------
 .byte   W96
@  #01 @033   ----------------------------------------
 .byte   W96
@  #01 @034   ----------------------------------------
 .byte   W96
@  #01 @035   ----------------------------------------
 .byte   W96
@  #01 @036   ----------------------------------------
 .byte   W96
@  #01 @037   ----------------------------------------
 .byte   W96
@  #01 @038   ----------------------------------------
 .byte   W96
@  #01 @039   ----------------------------------------
 .byte   GOTO
  .word Label_555998
 .byte   FINE

@**************** Track 2 (Midi-Chn.1) ****************@

songPorkChopSandwiches_002:
@  #02 @000   ----------------------------------------
 .byte   VOL , 127*songPorkChopSandwiches_mvl/mxv
 .byte   KEYSH , songPorkChopSandwiches_key+0
 .byte   VOICE , 60
 .byte   W96
@  #02 @001   ----------------------------------------
 .byte   W96
@  #02 @002   ----------------------------------------
 .byte   W96
@  #02 @003   ----------------------------------------
 .byte   W96
@  #02 @004   ----------------------------------------
Label_554B5E:
 .byte   N03 ,Cn3 ,v052
 .byte   W03
 .byte   N02
 .byte   W03
 .byte   N03 ,Dn3
 .byte   W03
 .byte   N02 ,Ds3
 .byte   W03
 .byte   N03 ,Fn3
 .byte   W03
 .byte   N02 ,Gn3
 .byte   W03
 .byte   N03 ,Gs3
 .byte   W03
 .byte   N02 ,As3
 .byte   W03
 .byte   N48 ,Cn4
 .byte   W72
@  #02 @005   ----------------------------------------
 .byte   N24 ,Fn4
 .byte   W36
 .byte   Ds4
 .byte   W36
 .byte   Dn4
 .byte   W24
@  #02 @006   ----------------------------------------
 .byte   N72 ,Gn4
 .byte   W96
@  #02 @007   ----------------------------------------
 .byte   N24 ,Ds4
 .byte   W36
 .byte   Dn4
 .byte   W36
 .byte   Cn4
 .byte   W24
@  #02 @008   ----------------------------------------
 .byte   N06 ,Fn3
 .byte   W06
 .byte   Gn3
 .byte   W06
 .byte   Gs3
 .byte   W06
 .byte   As3
 .byte   W06
 .byte   N48 ,Cn4
 .byte   W72
@  #02 @009   ----------------------------------------
 .byte   N24 ,Dn4
 .byte   W36
 .byte   Ds4
 .byte   W36
 .byte   Fn4
 .byte   W24
@  #02 @010   ----------------------------------------
 .byte   N72 ,Gn4
 .byte   W96
@  #02 @011   ----------------------------------------
 .byte   N24 ,As3
 .byte   W36
 .byte   Gs3
 .byte   W36
 .byte   Gn3
 .byte   W24
@  #02 @012   ----------------------------------------
 .byte   N06 ,Gs3
 .byte   W06
 .byte   As3
 .byte   W06
 .byte   Cn4
 .byte   W06
 .byte   Dn4
 .byte   W06
 .byte   N48 ,Ds4
 .byte   W72
@  #02 @013   ----------------------------------------
 .byte   N24 ,Cn5
 .byte   W36
 .byte   As4
 .byte   W36
 .byte   Gs4
 .byte   W24
@  #02 @014   ----------------------------------------
 .byte   N96 ,Gn4
 .byte   W96
@  #02 @015   ----------------------------------------
 .byte   W96
@  #02 @016   ----------------------------------------
 .byte   W96
@  #02 @017   ----------------------------------------
 .byte   W96
@  #02 @018   ----------------------------------------
 .byte   W96
@  #02 @019   ----------------------------------------
 .byte   W96
@  #02 @020   ----------------------------------------
 .byte   W96
@  #02 @021   ----------------------------------------
 .byte   W96
@  #02 @022   ----------------------------------------
 .byte   W96
@  #02 @023   ----------------------------------------
 .byte   W96
@  #02 @024   ----------------------------------------
 .byte   W96
@  #02 @025   ----------------------------------------
 .byte   W96
@  #02 @026   ----------------------------------------
 .byte   W96
@  #02 @027   ----------------------------------------
 .byte   W96
@  #02 @028   ----------------------------------------
 .byte   W96
@  #02 @029   ----------------------------------------
 .byte   W96
@  #02 @030   ----------------------------------------
 .byte   W96
@  #02 @031   ----------------------------------------
 .byte   W96
@  #02 @032   ----------------------------------------
 .byte   W96
@  #02 @033   ----------------------------------------
 .byte   W96
@  #02 @034   ----------------------------------------
 .byte   W96
@  #02 @035   ----------------------------------------
 .byte   W96
@  #02 @036   ----------------------------------------
 .byte   W96
@  #02 @037   ----------------------------------------
 .byte   W96
@  #02 @038   ----------------------------------------
 .byte   W96
@  #02 @039   ----------------------------------------
 .byte   GOTO
  .word Label_554B5E
 .byte   FINE

@**************** Track 3 (Midi-Chn.2) ****************@

songPorkChopSandwiches_003:
@  #03 @000   ----------------------------------------
 .byte   VOL , 127*songPorkChopSandwiches_mvl/mxv
 .byte   KEYSH , songPorkChopSandwiches_key+0
 .byte   VOICE , 110
 .byte   W96
@  #03 @001   ----------------------------------------
 .byte   W96
@  #03 @002   ----------------------------------------
 .byte   W96
@  #03 @003   ----------------------------------------
 .byte   W96
@  #03 @004   ----------------------------------------
Label_555AAE:
 .byte   W96
@  #03 @005   ----------------------------------------
 .byte   W96
@  #03 @006   ----------------------------------------
 .byte   W96
@  #03 @007   ----------------------------------------
 .byte   W96
@  #03 @008   ----------------------------------------
 .byte   W96
@  #03 @009   ----------------------------------------
 .byte   W96
@  #03 @010   ----------------------------------------
 .byte   W96
@  #03 @011   ----------------------------------------
 .byte   W96
@  #03 @012   ----------------------------------------
 .byte   W96
@  #03 @013   ----------------------------------------
 .byte   W96
@  #03 @014   ----------------------------------------
 .byte   W96
@  #03 @015   ----------------------------------------
 .byte   W96
@  #03 @016   ----------------------------------------
 .byte   W96
@  #03 @017   ----------------------------------------
 .byte   W96
@  #03 @018   ----------------------------------------
 .byte   W96
@  #03 @019   ----------------------------------------
 .byte   W96
@  #03 @020   ----------------------------------------
 .byte   W96
@  #03 @021   ----------------------------------------
 .byte   W96
@  #03 @022   ----------------------------------------
 .byte   W96
@  #03 @023   ----------------------------------------
 .byte   N03 ,Cn3 ,v052
 .byte   W03
 .byte   N02
 .byte   W03
 .byte   N03 ,Dn3
 .byte   W03
 .byte   N02 ,Ds3
 .byte   W03
 .byte   N03 ,Fn3
 .byte   W03
 .byte   N02 ,Gn3
 .byte   W03
 .byte   N03 ,Gs3
 .byte   W03
 .byte   N02 ,As3
 .byte   W03
 .byte   N48 ,Cn4
 .byte   W72
@  #03 @024   ----------------------------------------
 .byte   N24 ,Fn4
 .byte   W36
 .byte   Ds4
 .byte   W36
 .byte   Dn4
 .byte   W24
@  #03 @025   ----------------------------------------
 .byte   N72 ,Gn4
 .byte   W96
@  #03 @026   ----------------------------------------
 .byte   N24 ,Ds4
 .byte   W36
 .byte   Dn4
 .byte   W36
 .byte   Cn4
 .byte   W24
@  #03 @027   ----------------------------------------
 .byte   N06 ,Fn3
 .byte   W06
 .byte   Gn3
 .byte   W06
 .byte   Gs3
 .byte   W06
 .byte   As3
 .byte   W06
 .byte   N48 ,Cn4
 .byte   W72
@  #03 @028   ----------------------------------------
 .byte   N24 ,Dn4
 .byte   W36
 .byte   Ds4
 .byte   W36
 .byte   Fn4
 .byte   W24
@  #03 @029   ----------------------------------------
 .byte   N72 ,Gn4
 .byte   W96
@  #03 @030   ----------------------------------------
 .byte   N24 ,As3
 .byte   W36
 .byte   Gs3
 .byte   W36
 .byte   Gn3
 .byte   W24
@  #03 @031   ----------------------------------------
 .byte   N06 ,Gs3
 .byte   W06
 .byte   As3
 .byte   W06
 .byte   Cn4
 .byte   W06
 .byte   Dn4
 .byte   W06
 .byte   N48 ,Ds4
 .byte   W72
@  #03 @032   ----------------------------------------
 .byte   N24 ,Cn5
 .byte   W36
 .byte   As4
 .byte   W36
 .byte   Gs4
 .byte   W24
@  #03 @033   ----------------------------------------
 .byte   N96 ,Gn4
 .byte   W96
@  #03 @034   ----------------------------------------
 .byte   W96
@  #03 @035   ----------------------------------------
 .byte   W96
@  #03 @036   ----------------------------------------
 .byte   W96
@  #03 @037   ----------------------------------------
 .byte   W96
@  #03 @038   ----------------------------------------
 .byte   W96
@  #03 @039   ----------------------------------------
 .byte   GOTO
  .word Label_555AAE
 .byte   FINE

@**************** Track 4 (Midi-Chn.3) ****************@

songPorkChopSandwiches_004:
@  #04 @000   ----------------------------------------
 .byte   VOL , 127*songPorkChopSandwiches_mvl/mxv
 .byte   KEYSH , songPorkChopSandwiches_key+0
 .byte   VOICE , 109
 .byte   W96
@  #04 @001   ----------------------------------------
 .byte   W96
@  #04 @002   ----------------------------------------
 .byte   W96
@  #04 @003   ----------------------------------------
 .byte   W96
@  #04 @004   ----------------------------------------
Label_555A22:
 .byte   W96
@  #04 @005   ----------------------------------------
 .byte   W96
@  #04 @006   ----------------------------------------
 .byte   W96
@  #04 @007   ----------------------------------------
 .byte   W96
@  #04 @008   ----------------------------------------
 .byte   W96
@  #04 @009   ----------------------------------------
 .byte   W96
@  #04 @010   ----------------------------------------
 .byte   W96
@  #04 @011   ----------------------------------------
 .byte   W96
@  #04 @012   ----------------------------------------
 .byte   W96
@  #04 @013   ----------------------------------------
 .byte   W96
@  #04 @014   ----------------------------------------
 .byte   W96
@  #04 @015   ----------------------------------------
 .byte   W96
@  #04 @016   ----------------------------------------
 .byte   W96
@  #04 @017   ----------------------------------------
 .byte   W96
@  #04 @018   ----------------------------------------
 .byte   W96
@  #04 @019   ----------------------------------------
 .byte   W96
@  #04 @020   ----------------------------------------
 .byte   W96
@  #04 @021   ----------------------------------------
 .byte   W96
@  #04 @022   ----------------------------------------
 .byte   W96
@  #04 @023   ----------------------------------------
 .byte   N03 ,Cn3 ,v052
 .byte   W03
 .byte   N02
 .byte   W03
 .byte   N03 ,Dn3
 .byte   W03
 .byte   N02 ,Ds3
 .byte   W03
 .byte   N03 ,Fn3
 .byte   W03
 .byte   N02 ,Gn3
 .byte   W03
 .byte   N03 ,Gs3
 .byte   W03
 .byte   N02 ,As3
 .byte   W03
 .byte   N48 ,Cn4
 .byte   W72
@  #04 @024   ----------------------------------------
 .byte   N24 ,Fn4
 .byte   W36
 .byte   Ds4
 .byte   W36
 .byte   Dn4
 .byte   W24
@  #04 @025   ----------------------------------------
 .byte   N72 ,Gn4
 .byte   W96
@  #04 @026   ----------------------------------------
 .byte   N24 ,Ds4
 .byte   W36
 .byte   Dn4
 .byte   W36
 .byte   Cn4
 .byte   W24
@  #04 @027   ----------------------------------------
 .byte   N06 ,Fn3
 .byte   W06
 .byte   Gn3
 .byte   W06
 .byte   Gs3
 .byte   W06
 .byte   As3
 .byte   W06
 .byte   N48 ,Cn4
 .byte   W72
@  #04 @028   ----------------------------------------
 .byte   N24 ,Dn4
 .byte   W36
 .byte   Ds4
 .byte   W36
 .byte   Fn4
 .byte   W24
@  #04 @029   ----------------------------------------
 .byte   N72 ,Gn4
 .byte   W96
@  #04 @030   ----------------------------------------
 .byte   N24 ,As3
 .byte   W36
 .byte   Gs3
 .byte   W36
 .byte   Gn3
 .byte   W24
@  #04 @031   ----------------------------------------
 .byte   N06 ,Gs3
 .byte   W06
 .byte   As3
 .byte   W06
 .byte   Cn4
 .byte   W06
 .byte   Dn4
 .byte   W06
 .byte   N48 ,Ds4
 .byte   W72
@  #04 @032   ----------------------------------------
 .byte   N24 ,Cn5
 .byte   W36
 .byte   As4
 .byte   W36
 .byte   Gs4
 .byte   W24
@  #04 @033   ----------------------------------------
 .byte   N96 ,Gn4
 .byte   W96
@  #04 @034   ----------------------------------------
 .byte   W96
@  #04 @035   ----------------------------------------
 .byte   W96
@  #04 @036   ----------------------------------------
 .byte   W96
@  #04 @037   ----------------------------------------
 .byte   W96
@  #04 @038   ----------------------------------------
 .byte   W96
@  #04 @039   ----------------------------------------
 .byte   GOTO
  .word Label_555A22
 .byte   FINE

@**************** Track 5 (Midi-Chn.4) ****************@

songPorkChopSandwiches_005:
@  #05 @000   ----------------------------------------
 .byte   VOL , 127*songPorkChopSandwiches_mvl/mxv
 .byte   KEYSH , songPorkChopSandwiches_key+0
 .byte   VOICE , 101
 .byte   W96
@  #05 @001   ----------------------------------------
 .byte   W96
@  #05 @002   ----------------------------------------
 .byte   W96
@  #05 @003   ----------------------------------------
 .byte   W96
@  #05 @004   ----------------------------------------
Label_554A96:
 .byte   W96
@  #05 @005   ----------------------------------------
 .byte   W96
@  #05 @006   ----------------------------------------
 .byte   W96
@  #05 @007   ----------------------------------------
 .byte   W96
@  #05 @008   ----------------------------------------
 .byte   W96
@  #05 @009   ----------------------------------------
 .byte   W96
@  #05 @010   ----------------------------------------
 .byte   W96
@  #05 @011   ----------------------------------------
 .byte   W96
@  #05 @012   ----------------------------------------
 .byte   W96
@  #05 @013   ----------------------------------------
 .byte   W96
@  #05 @014   ----------------------------------------
 .byte   W96
@  #05 @015   ----------------------------------------
Label_554AA1:
 .byte   N72 ,As3 ,v100
 .byte   W72
 .byte   N24 ,Cn4
 .byte   W24
 .byte   PEND 
@  #05 @016   ----------------------------------------
Label_554AA9:
 .byte   N24 ,Dn4 ,v100
 .byte   W36
 .byte   As3
 .byte   W36
 .byte   Gn3
 .byte   W24
 .byte   PEND 
@  #05 @017   ----------------------------------------
 .byte   N72 ,Cn4
 .byte   W72
 .byte   N24 ,Dn4
 .byte   W24
@  #05 @018   ----------------------------------------
 .byte   N96 ,Gn3
 .byte   W96
@  #05 @019   ----------------------------------------
 .byte   PATT
  .word Label_554AA1
@  #05 @020   ----------------------------------------
 .byte   PATT
  .word Label_554AA9
@  #05 @021   ----------------------------------------
 .byte   N72 ,Cn4 ,v100
 .byte   W72
 .byte   N24 ,As3
 .byte   W24
@  #05 @022   ----------------------------------------
 .byte   N96 ,Ds4
 .byte   W96
@  #05 @023   ----------------------------------------
 .byte   W96
@  #05 @024   ----------------------------------------
 .byte   W96
@  #05 @025   ----------------------------------------
 .byte   W96
@  #05 @026   ----------------------------------------
 .byte   W96
@  #05 @027   ----------------------------------------
 .byte   W96
@  #05 @028   ----------------------------------------
 .byte   W96
@  #05 @029   ----------------------------------------
 .byte   W96
@  #05 @030   ----------------------------------------
 .byte   W96
@  #05 @031   ----------------------------------------
 .byte   W96
@  #05 @032   ----------------------------------------
 .byte   W96
@  #05 @033   ----------------------------------------
 .byte   W96
@  #05 @034   ----------------------------------------
Label_554ADA:
 .byte   N12 ,Cn4 ,v100
 .byte   W12
 .byte   N06 ,Dn4
 .byte   W06
 .byte   N24 ,Ds4
 .byte   W24
 .byte   N06 ,Cn4
 .byte   W06
 .byte   Dn4
 .byte   W06
 .byte   N24 ,Ds4
 .byte   W42
 .byte   PEND 
@  #05 @035   ----------------------------------------
 .byte   N18
 .byte   W24
 .byte   Cn4
 .byte   W24
 .byte   Gs3
 .byte   W24
 .byte   Gn3
 .byte   W24
@  #05 @036   ----------------------------------------
 .byte   PATT
  .word Label_554ADA
@  #05 @037   ----------------------------------------
 .byte   N18 ,Gn4 ,v100
 .byte   W24
 .byte   Fn4
 .byte   W24
 .byte   Ds4
 .byte   W24
 .byte   Dn4
 .byte   W24
@  #05 @038   ----------------------------------------
 .byte   N96 ,Cn4
 .byte   W96
@  #05 @039   ----------------------------------------
 .byte   GOTO
  .word Label_554A96
 .byte   FINE

@**************** Track 6 (Midi-Chn.5) ****************@

songPorkChopSandwiches_006:
@  #06 @000   ----------------------------------------
 .byte   VOL , 127*songPorkChopSandwiches_mvl/mxv
 .byte   KEYSH , songPorkChopSandwiches_key+0
 .byte   VOICE , 98
 .byte   W96
@  #06 @001   ----------------------------------------
 .byte   W96
@  #06 @002   ----------------------------------------
 .byte   W96
@  #06 @003   ----------------------------------------
 .byte   W96
@  #06 @004   ----------------------------------------
Label_555052:
 .byte   W96
@  #06 @005   ----------------------------------------
 .byte   W96
@  #06 @006   ----------------------------------------
 .byte   W96
@  #06 @007   ----------------------------------------
 .byte   W96
@  #06 @008   ----------------------------------------
 .byte   W96
@  #06 @009   ----------------------------------------
 .byte   W96
@  #06 @010   ----------------------------------------
 .byte   W96
@  #06 @011   ----------------------------------------
 .byte   W96
@  #06 @012   ----------------------------------------
 .byte   W96
@  #06 @013   ----------------------------------------
 .byte   W96
@  #06 @014   ----------------------------------------
 .byte   W96
@  #06 @015   ----------------------------------------
Label_55505D:
 .byte   N72 ,As3 ,v052
 .byte   W72
 .byte   N24 ,Cn4
 .byte   W24
 .byte   PEND 
@  #06 @016   ----------------------------------------
Label_555065:
 .byte   N24 ,Dn4 ,v052
 .byte   W36
 .byte   As3
 .byte   W36
 .byte   Gn3
 .byte   W24
 .byte   PEND 
@  #06 @017   ----------------------------------------
 .byte   N72 ,Cn4
 .byte   W72
 .byte   N24 ,Dn4
 .byte   W24
@  #06 @018   ----------------------------------------
 .byte   N96 ,Gn3
 .byte   W96
@  #06 @019   ----------------------------------------
 .byte   PATT
  .word Label_55505D
@  #06 @020   ----------------------------------------
 .byte   PATT
  .word Label_555065
@  #06 @021   ----------------------------------------
 .byte   N72 ,Cn4 ,v052
 .byte   W72
 .byte   N24 ,As3
 .byte   W24
@  #06 @022   ----------------------------------------
 .byte   N96 ,Ds4
 .byte   W96
@  #06 @023   ----------------------------------------
 .byte   W96
@  #06 @024   ----------------------------------------
 .byte   W96
@  #06 @025   ----------------------------------------
 .byte   W96
@  #06 @026   ----------------------------------------
 .byte   W96
@  #06 @027   ----------------------------------------
 .byte   W96
@  #06 @028   ----------------------------------------
 .byte   W96
@  #06 @029   ----------------------------------------
 .byte   W96
@  #06 @030   ----------------------------------------
 .byte   W96
@  #06 @031   ----------------------------------------
 .byte   W96
@  #06 @032   ----------------------------------------
 .byte   W96
@  #06 @033   ----------------------------------------
 .byte   W96
@  #06 @034   ----------------------------------------
Label_555096:
 .byte   N12 ,Cn4 ,v052
 .byte   W12
 .byte   N06 ,Dn4
 .byte   W06
 .byte   N24 ,Ds4
 .byte   W24
 .byte   N06 ,Cn4
 .byte   W06
 .byte   Dn4
 .byte   W06
 .byte   N24 ,Ds4
 .byte   W42
 .byte   PEND 
@  #06 @035   ----------------------------------------
 .byte   N18
 .byte   W24
 .byte   Cn4
 .byte   W24
 .byte   Gs3
 .byte   W24
 .byte   Gn3
 .byte   W24
@  #06 @036   ----------------------------------------
 .byte   PATT
  .word Label_555096
@  #06 @037   ----------------------------------------
 .byte   N18 ,Gn4 ,v052
 .byte   W24
 .byte   Fn4
 .byte   W24
 .byte   Ds4
 .byte   W24
 .byte   Dn4
 .byte   W24
@  #06 @038   ----------------------------------------
 .byte   N96 ,Cn4
 .byte   W96
@  #06 @039   ----------------------------------------
 .byte   GOTO
  .word Label_555052
 .byte   FINE

@**************** Track 7 (Midi-Chn.6) ****************@

songPorkChopSandwiches_007:
@  #07 @000   ----------------------------------------
 .byte   VOL , 127*songPorkChopSandwiches_mvl/mxv
 .byte   KEYSH , songPorkChopSandwiches_key+0
 .byte   VOICE , 36
 .byte   N12 ,Cn2 ,v064
 .byte   W12
 .byte   Cn2 ,v048
 .byte   W12
 .byte   Cn2 ,v052
 .byte   W12
 .byte   Cn2 ,v048
 .byte   W12
 .byte   Cn2 ,v056
 .byte   W12
 .byte   Cn2 ,v048
 .byte   W12
 .byte   Cn2 ,v052
 .byte   W12
 .byte   Cn2 ,v048
 .byte   W12
@  #07 @001   ----------------------------------------
Label_554BFB:
 .byte   N12 ,Gs1 ,v064
 .byte   W12
 .byte   Gs1 ,v048
 .byte   W12
 .byte   Gs1 ,v052
 .byte   W12
 .byte   Gs1 ,v048
 .byte   W12
 .byte   Gs1 ,v056
 .byte   W12
 .byte   Gs1 ,v048
 .byte   W12
 .byte   Gs1 ,v052
 .byte   W12
 .byte   Gs1 ,v048
 .byte   W12
 .byte   PEND 
@  #07 @002   ----------------------------------------
Label_554C15:
 .byte   N12 ,As1 ,v064
 .byte   W12
 .byte   As1 ,v048
 .byte   W12
 .byte   As1 ,v052
 .byte   W12
 .byte   As1 ,v048
 .byte   W12
 .byte   As1 ,v056
 .byte   W12
 .byte   As1 ,v048
 .byte   W12
 .byte   As1 ,v052
 .byte   W12
 .byte   As1 ,v048
 .byte   W12
 .byte   PEND 
@  #07 @003   ----------------------------------------
 .byte   Dn2 ,v064
 .byte   W12
 .byte   Dn2 ,v048
 .byte   W12
 .byte   Dn2 ,v052
 .byte   W12
 .byte   Dn2 ,v048
 .byte   W12
 .byte   Dn2 ,v056
 .byte   W12
 .byte   Dn2 ,v048
 .byte   W12
 .byte   N12
 .byte   W12
 .byte   N12
 .byte   W12
@  #07 @004   ----------------------------------------
Label_554C45:
 .byte   N12 ,Cn2 ,v064
 .byte   W12
 .byte   Cn2 ,v048
 .byte   W12
 .byte   Cn2 ,v052
 .byte   W12
 .byte   Cn2 ,v048
 .byte   W12
 .byte   Cn2 ,v056
 .byte   W12
 .byte   Cn2 ,v048
 .byte   W12
 .byte   Cn2 ,v052
 .byte   W12
 .byte   Cn2 ,v048
 .byte   W12
 .byte   PEND 
@  #07 @005   ----------------------------------------
Label_554C5F:
 .byte   N12 ,Fn2 ,v064
 .byte   W12
 .byte   Fn2 ,v048
 .byte   W12
 .byte   Fn2 ,v052
 .byte   W12
 .byte   Fn2 ,v048
 .byte   W12
 .byte   Fn2 ,v056
 .byte   W12
 .byte   Fn2 ,v048
 .byte   W12
 .byte   Fn2 ,v052
 .byte   W12
 .byte   Fn2 ,v048
 .byte   W12
 .byte   PEND 
@  #07 @006   ----------------------------------------
Label_554C79:
 .byte   N12 ,Gn2 ,v064
 .byte   W12
 .byte   Gn2 ,v048
 .byte   W12
 .byte   Gn2 ,v052
 .byte   W12
 .byte   Gn2 ,v048
 .byte   W12
 .byte   Gn2 ,v056
 .byte   W12
 .byte   Gn2 ,v048
 .byte   W12
 .byte   Gn2 ,v052
 .byte   W12
 .byte   Gn2 ,v048
 .byte   W12
 .byte   PEND 
@  #07 @007   ----------------------------------------
Label_554C93:
 .byte   N12 ,Cn3 ,v064
 .byte   W12
 .byte   As2 ,v048
 .byte   W12
 .byte   Gn2 ,v052
 .byte   W12
 .byte   Cn2 ,v048
 .byte   W12
 .byte   As2 ,v056
 .byte   W12
 .byte   Gn2 ,v048
 .byte   W12
 .byte   Cn2 ,v052
 .byte   W12
 .byte   Cn3 ,v048
 .byte   W12
 .byte   PEND 
@  #07 @008   ----------------------------------------
 .byte   PATT
  .word Label_554C45
@  #07 @009   ----------------------------------------
 .byte   PATT
  .word Label_554C5F
@  #07 @010   ----------------------------------------
 .byte   PATT
  .word Label_554C79
@  #07 @011   ----------------------------------------
 .byte   PATT
  .word Label_554C93
@  #07 @012   ----------------------------------------
 .byte   PATT
  .word Label_554C45
@  #07 @013   ----------------------------------------
 .byte   PATT
  .word Label_554C5F
@  #07 @014   ----------------------------------------
 .byte   PATT
  .word Label_554C79
@  #07 @015   ----------------------------------------
 .byte   PATT
  .word Label_554BFB
@  #07 @016   ----------------------------------------
 .byte   PATT
  .word Label_554C15
@  #07 @017   ----------------------------------------
 .byte   PATT
  .word Label_554C45
@  #07 @018   ----------------------------------------
 .byte   PATT
  .word Label_554C93
@  #07 @019   ----------------------------------------
 .byte   PATT
  .word Label_554BFB
@  #07 @020   ----------------------------------------
 .byte   PATT
  .word Label_554C15
@  #07 @021   ----------------------------------------
 .byte   PATT
  .word Label_554C45
@  #07 @022   ----------------------------------------
 .byte   PATT
  .word Label_554C93
@  #07 @023   ----------------------------------------
 .byte   PATT
  .word Label_554C45
@  #07 @024   ----------------------------------------
 .byte   PATT
  .word Label_554C5F
@  #07 @025   ----------------------------------------
 .byte   PATT
  .word Label_554C79
@  #07 @026   ----------------------------------------
 .byte   PATT
  .word Label_554C93
@  #07 @027   ----------------------------------------
 .byte   PATT
  .word Label_554C45
@  #07 @028   ----------------------------------------
 .byte   PATT
  .word Label_554C5F
@  #07 @029   ----------------------------------------
 .byte   PATT
  .word Label_554C79
@  #07 @030   ----------------------------------------
 .byte   PATT
  .word Label_554C93
@  #07 @031   ----------------------------------------
 .byte   PATT
  .word Label_554C45
@  #07 @032   ----------------------------------------
 .byte   PATT
  .word Label_554C5F
@  #07 @033   ----------------------------------------
 .byte   PATT
  .word Label_554C79
@  #07 @034   ----------------------------------------
 .byte   PATT
  .word Label_554C93
@  #07 @035   ----------------------------------------
 .byte   PATT
  .word Label_554C93
@  #07 @036   ----------------------------------------
 .byte   PATT
  .word Label_554C93
@  #07 @037   ----------------------------------------
 .byte   PATT
  .word Label_554C93
@  #07 @038   ----------------------------------------
 .byte   PATT
  .word Label_554C45
@  #07 @039   ----------------------------------------
 .byte   GOTO
  .word Label_554C45
 .byte   FINE

@**************** Track 8 (Midi-Chn.7) ****************@

songPorkChopSandwiches_008:
@  #08 @000   ----------------------------------------
 .byte   VOL , 127*songPorkChopSandwiches_mvl/mxv
 .byte   KEYSH , songPorkChopSandwiches_key+0
 .byte   VOICE , 61
 .byte   N96 ,Ds2 ,v024
 .byte   N96 ,Gn2
 .byte   N96 ,Cn3
 .byte   W96
@  #08 @001   ----------------------------------------
Label_554D62:
 .byte   N96 ,Gs2 ,v024
 .byte   N96 ,Cn3
 .byte   N96 ,Ds3
 .byte   W96
 .byte   PEND 
@  #08 @002   ----------------------------------------
 .byte   TIE ,Fn2
 .byte   TIE ,As2
 .byte   TIE ,Dn3
 .byte   W96
@  #08 @003   ----------------------------------------
 .byte   W96
@  #08 @004   ----------------------------------------
 .byte   EOT
 .byte   Fn2 ,v058
 .byte   Dn3
Label_554D77:
 .byte   N96 ,Gn2 ,v024
 .byte   N96 ,Cn3
 .byte   N48 ,Ds3
 .byte   W48
 .byte   Fn3
 .byte   W48
 .byte   PEND 
@  #08 @005   ----------------------------------------
Label_554D82:
 .byte   N96 ,Cn3 ,v024
 .byte   N96 ,Fn3
 .byte   N48 ,Gs3
 .byte   W48
 .byte   As3
 .byte   W48
 .byte   PEND 
@  #08 @006   ----------------------------------------
Label_554D8D:
 .byte   N96 ,Dn3 ,v024
 .byte   N96 ,Gn3
 .byte   N48 ,As3
 .byte   W48
 .byte   Cn4
 .byte   W48
 .byte   PEND 
@  #08 @007   ----------------------------------------
Label_554D98:
 .byte   N96 ,Ds3 ,v024
 .byte   N96 ,Gn3
 .byte   N96 ,Cn4
 .byte   W96
 .byte   PEND 
@  #08 @008   ----------------------------------------
 .byte   PATT
  .word Label_554D77
@  #08 @009   ----------------------------------------
 .byte   PATT
  .word Label_554D82
@  #08 @010   ----------------------------------------
 .byte   PATT
  .word Label_554D8D
@  #08 @011   ----------------------------------------
 .byte   PATT
  .word Label_554D98
@  #08 @012   ----------------------------------------
 .byte   PATT
  .word Label_554D77
@  #08 @013   ----------------------------------------
 .byte   PATT
  .word Label_554D82
@  #08 @014   ----------------------------------------
 .byte   PATT
  .word Label_554D8D
@  #08 @015   ----------------------------------------
 .byte   PATT
  .word Label_554D62
@  #08 @016   ----------------------------------------
Label_554DC9:
 .byte   N96 ,As2 ,v024
 .byte   N96 ,Dn3
 .byte   N96 ,Fn3
 .byte   W96
 .byte   PEND 
@  #08 @017   ----------------------------------------
Label_554DD2:
 .byte   N96 ,Gn2 ,v024
 .byte   N96 ,Cn3
 .byte   N96 ,Ds3
 .byte   W96
 .byte   PEND 
@  #08 @018   ----------------------------------------
Label_554DDB:
 .byte   N96 ,Cn3 ,v024
 .byte   N96 ,Ds3
 .byte   N96 ,Gn3
 .byte   W96
 .byte   PEND 
@  #08 @019   ----------------------------------------
 .byte   PATT
  .word Label_554D62
@  #08 @020   ----------------------------------------
 .byte   PATT
  .word Label_554DC9
@  #08 @021   ----------------------------------------
 .byte   PATT
  .word Label_554DD2
@  #08 @022   ----------------------------------------
 .byte   PATT
  .word Label_554DDB
@  #08 @023   ----------------------------------------
 .byte   PATT
  .word Label_554D77
@  #08 @024   ----------------------------------------
 .byte   PATT
  .word Label_554D82
@  #08 @025   ----------------------------------------
 .byte   PATT
  .word Label_554D8D
@  #08 @026   ----------------------------------------
 .byte   PATT
  .word Label_554D98
@  #08 @027   ----------------------------------------
 .byte   PATT
  .word Label_554D77
@  #08 @028   ----------------------------------------
 .byte   PATT
  .word Label_554D82
@  #08 @029   ----------------------------------------
 .byte   PATT
  .word Label_554D8D
@  #08 @030   ----------------------------------------
 .byte   PATT
  .word Label_554D98
@  #08 @031   ----------------------------------------
 .byte   PATT
  .word Label_554D77
@  #08 @032   ----------------------------------------
 .byte   PATT
  .word Label_554D82
@  #08 @033   ----------------------------------------
 .byte   PATT
  .word Label_554D8D
@  #08 @034   ----------------------------------------
 .byte   PATT
  .word Label_554D98
@  #08 @035   ----------------------------------------
 .byte   PATT
  .word Label_554DDB
@  #08 @036   ----------------------------------------
 .byte   PATT
  .word Label_554D98
@  #08 @037   ----------------------------------------
 .byte   TIE ,Cn3 ,v024
 .byte   TIE ,Ds3
 .byte   TIE ,Gn3
 .byte   W96
@  #08 @038   ----------------------------------------
 .byte   W96
@  #08 @039   ----------------------------------------
 .byte   EOT
 .byte   Cn3 ,v063
 .byte   Gn3
 .byte   GOTO
  .word Label_554D77
 .byte   FINE

@**************** Track 9 (Midi-Chn.8) ****************@

songPorkChopSandwiches_009:
@  #09 @000   ----------------------------------------
 .byte   VOL , 127*songPorkChopSandwiches_mvl/mxv
 .byte   KEYSH , songPorkChopSandwiches_key+0
 .byte   VOICE , 48
 .byte   N96 ,Ds2 ,v024
 .byte   N96 ,Gn2
 .byte   N96 ,Cn3
 .byte   W96
@  #09 @001   ----------------------------------------
Label_554E66:
 .byte   N96 ,Gs2 ,v024
 .byte   N96 ,Cn3
 .byte   N96 ,Ds3
 .byte   W96
 .byte   PEND 
@  #09 @002   ----------------------------------------
 .byte   TIE ,Fn2
 .byte   TIE ,As2
 .byte   TIE ,Dn3
 .byte   W96
@  #09 @003   ----------------------------------------
 .byte   W96
@  #09 @004   ----------------------------------------
 .byte   EOT
 .byte   Fn2 ,v058
 .byte   Dn3
Label_554E7B:
 .byte   N96 ,Gn2 ,v024
 .byte   N96 ,Cn3
 .byte   N48 ,Ds3
 .byte   W48
 .byte   Fn3
 .byte   W48
 .byte   PEND 
@  #09 @005   ----------------------------------------
Label_554E86:
 .byte   N96 ,Cn3 ,v024
 .byte   N96 ,Fn3
 .byte   N48 ,Gs3
 .byte   W48
 .byte   As3
 .byte   W48
 .byte   PEND 
@  #09 @006   ----------------------------------------
Label_554E91:
 .byte   N96 ,Dn3 ,v024
 .byte   N96 ,Gn3
 .byte   N48 ,As3
 .byte   W48
 .byte   Cn4
 .byte   W48
 .byte   PEND 
@  #09 @007   ----------------------------------------
Label_554E9C:
 .byte   N96 ,Ds3 ,v024
 .byte   N96 ,Gn3
 .byte   N96 ,Cn4
 .byte   W96
 .byte   PEND 
@  #09 @008   ----------------------------------------
 .byte   PATT
  .word Label_554E7B
@  #09 @009   ----------------------------------------
 .byte   PATT
  .word Label_554E86
@  #09 @010   ----------------------------------------
 .byte   PATT
  .word Label_554E91
@  #09 @011   ----------------------------------------
 .byte   PATT
  .word Label_554E9C
@  #09 @012   ----------------------------------------
 .byte   PATT
  .word Label_554E7B
@  #09 @013   ----------------------------------------
 .byte   PATT
  .word Label_554E86
@  #09 @014   ----------------------------------------
 .byte   PATT
  .word Label_554E91
@  #09 @015   ----------------------------------------
 .byte   PATT
  .word Label_554E66
@  #09 @016   ----------------------------------------
Label_554ECD:
 .byte   N96 ,As2 ,v024
 .byte   N96 ,Dn3
 .byte   N96 ,Fn3
 .byte   W96
 .byte   PEND 
@  #09 @017   ----------------------------------------
Label_554ED6:
 .byte   N96 ,Gn2 ,v024
 .byte   N96 ,Cn3
 .byte   N96 ,Ds3
 .byte   W96
 .byte   PEND 
@  #09 @018   ----------------------------------------
Label_554EDF:
 .byte   N96 ,Cn3 ,v024
 .byte   N96 ,Ds3
 .byte   N96 ,Gn3
 .byte   W96
 .byte   PEND 
@  #09 @019   ----------------------------------------
 .byte   PATT
  .word Label_554E66
@  #09 @020   ----------------------------------------
 .byte   PATT
  .word Label_554ECD
@  #09 @021   ----------------------------------------
 .byte   PATT
  .word Label_554ED6
@  #09 @022   ----------------------------------------
 .byte   PATT
  .word Label_554EDF
@  #09 @023   ----------------------------------------
 .byte   PATT
  .word Label_554E7B
@  #09 @024   ----------------------------------------
 .byte   PATT
  .word Label_554E86
@  #09 @025   ----------------------------------------
 .byte   PATT
  .word Label_554E91
@  #09 @026   ----------------------------------------
 .byte   PATT
  .word Label_554E9C
@  #09 @027   ----------------------------------------
 .byte   PATT
  .word Label_554E7B
@  #09 @028   ----------------------------------------
 .byte   PATT
  .word Label_554E86
@  #09 @029   ----------------------------------------
 .byte   PATT
  .word Label_554E91
@  #09 @030   ----------------------------------------
 .byte   PATT
  .word Label_554E9C
@  #09 @031   ----------------------------------------
 .byte   PATT
  .word Label_554E7B
@  #09 @032   ----------------------------------------
 .byte   PATT
  .word Label_554E86
@  #09 @033   ----------------------------------------
 .byte   PATT
  .word Label_554E91
@  #09 @034   ----------------------------------------
 .byte   PATT
  .word Label_554E9C
@  #09 @035   ----------------------------------------
 .byte   PATT
  .word Label_554EDF
@  #09 @036   ----------------------------------------
 .byte   PATT
  .word Label_554E9C
@  #09 @037   ----------------------------------------
 .byte   TIE ,Cn3 ,v024
 .byte   TIE ,Ds3
 .byte   TIE ,Gn3
 .byte   W96
@  #09 @038   ----------------------------------------
 .byte   W96
@  #09 @039   ----------------------------------------
 .byte   EOT
 .byte   Cn3 ,v063
 .byte   Gn3
 .byte   GOTO
  .word Label_554E7B
 .byte   FINE

@**************** Track 10 (Midi-Chn.9) ****************@

songPorkChopSandwiches_010:
@  #10 @000   ----------------------------------------
 .byte   VOL , 127*songPorkChopSandwiches_mvl/mxv
 .byte   KEYSH , songPorkChopSandwiches_key+0
 .byte   VOICE , 47
 .byte   N12 ,Cn3 ,v064
 .byte   W12
 .byte   Cn3 ,v052
 .byte   W12
 .byte   N06
 .byte   W06
 .byte   N06
 .byte   W30
 .byte   N12
 .byte   W12
 .byte   N06
 .byte   W06
 .byte   N06
 .byte   W18
@  #10 @001   ----------------------------------------
Label_554F73:
 .byte   N12 ,Cn3 ,v064
 .byte   W12
 .byte   Cn3 ,v052
 .byte   W12
 .byte   N06
 .byte   W06
 .byte   N06
 .byte   W30
 .byte   N12
 .byte   W12
 .byte   N06
 .byte   W06
 .byte   N06
 .byte   W18
 .byte   PEND 
@  #10 @002   ----------------------------------------
 .byte   PATT
  .word Label_554F73
@  #10 @003   ----------------------------------------
 .byte   PATT
  .word Label_554F73
@  #10 @004   ----------------------------------------
Label_554F8F:
@  #10 @005   ----------------------------------------
 .byte   PATT
  .word Label_554F73
@  #10 @006   ----------------------------------------
 .byte   PATT
  .word Label_554F73
@  #10 @007   ----------------------------------------
 .byte   PATT
  .word Label_554F73
@  #10 @008   ----------------------------------------
 .byte   PATT
  .word Label_554F73
@  #10 @009   ----------------------------------------
 .byte   PATT
  .word Label_554F73
@  #10 @010   ----------------------------------------
 .byte   PATT
  .word Label_554F73
@  #10 @011   ----------------------------------------
 .byte   PATT
  .word Label_554F73
@  #10 @012   ----------------------------------------
 .byte   PATT
  .word Label_554F73
@  #10 @013   ----------------------------------------
 .byte   PATT
  .word Label_554F73
@  #10 @014   ----------------------------------------
 .byte   PATT
  .word Label_554F73
@  #10 @015   ----------------------------------------
 .byte   PATT
  .word Label_554F73
@  #10 @016   ----------------------------------------
 .byte   PATT
  .word Label_554F73
@  #10 @017   ----------------------------------------
 .byte   PATT
  .word Label_554F73
@  #10 @018   ----------------------------------------
 .byte   PATT
  .word Label_554F73
@  #10 @019   ----------------------------------------
 .byte   PATT
  .word Label_554F73
@  #10 @020   ----------------------------------------
 .byte   PATT
  .word Label_554F73
@  #10 @021   ----------------------------------------
 .byte   PATT
  .word Label_554F73
@  #10 @022   ----------------------------------------
 .byte   PATT
  .word Label_554F73
@  #10 @023   ----------------------------------------
 .byte   PATT
  .word Label_554F73
@  #10 @024   ----------------------------------------
 .byte   PATT
  .word Label_554F73
@  #10 @025   ----------------------------------------
 .byte   PATT
  .word Label_554F73
@  #10 @026   ----------------------------------------
 .byte   PATT
  .word Label_554F73
@  #10 @027   ----------------------------------------
 .byte   PATT
  .word Label_554F73
@  #10 @028   ----------------------------------------
 .byte   PATT
  .word Label_554F73
@  #10 @029   ----------------------------------------
 .byte   PATT
  .word Label_554F73
@  #10 @030   ----------------------------------------
 .byte   PATT
  .word Label_554F73
@  #10 @031   ----------------------------------------
 .byte   PATT
  .word Label_554F73
@  #10 @032   ----------------------------------------
 .byte   PATT
  .word Label_554F73
@  #10 @033   ----------------------------------------
 .byte   PATT
  .word Label_554F73
@  #10 @034   ----------------------------------------
 .byte   PATT
  .word Label_554F73
@  #10 @035   ----------------------------------------
 .byte   PATT
  .word Label_554F73
@  #10 @036   ----------------------------------------
 .byte   PATT
  .word Label_554F73
@  #10 @037   ----------------------------------------
 .byte   PATT
  .word Label_554F73
@  #10 @038   ----------------------------------------
 .byte   PATT
  .word Label_554F73
@  #10 @039   ----------------------------------------
 .byte   PATT
  .word Label_554F73
@  #10 @040   ----------------------------------------
 .byte   GOTO
  .word Label_554F8F
 .byte   FINE

@**************** Track 11 (Midi-Chn.10) ****************@

songPorkChopSandwiches_011:
@  #11 @000   ----------------------------------------
 .byte   VOL , 127*songPorkChopSandwiches_mvl/mxv
 .byte   KEYSH , songPorkChopSandwiches_key+0
 .byte   VOICE , 127
 .byte   N12 ,Cs2 ,v064
 .byte   W12
 .byte   Cs2 ,v044
 .byte   W12
 .byte   Cs2 ,v032
 .byte   W12
 .byte   Cs2 ,v020
 .byte   W60
@  #11 @001   ----------------------------------------
Label_0100D2D7:
 .byte   N12 ,Gn2 ,v064
 .byte   W12
 .byte   Gn2 ,v044
 .byte   W12
 .byte   Gn2 ,v032
 .byte   W12
 .byte   Gn2 ,v020
 .byte   W60
 .byte   PEND 
@  #11 @002   ----------------------------------------
Label_0100D2E5:
 .byte   N12 ,Cs2 ,v064
 .byte   W12
 .byte   Cs2 ,v044
 .byte   W12
 .byte   Cs2 ,v032
 .byte   W12
 .byte   Cs2 ,v020
 .byte   W60
 .byte   PEND 
@  #11 @003   ----------------------------------------
 .byte   PATT
  .word Label_0100D2D7
@  #11 @004   ----------------------------------------
Label_0100D2F8:
@  #11 @005   ----------------------------------------
 .byte   PATT
  .word Label_0100D2E5
@  #11 @006   ----------------------------------------
 .byte   PATT
  .word Label_0100D2D7
@  #11 @007   ----------------------------------------
 .byte   PATT
  .word Label_0100D2E5
@  #11 @008   ----------------------------------------
 .byte   PATT
  .word Label_0100D2D7
@  #11 @009   ----------------------------------------
 .byte   PATT
  .word Label_0100D2E5
@  #11 @010   ----------------------------------------
 .byte   PATT
  .word Label_0100D2D7
@  #11 @011   ----------------------------------------
 .byte   PATT
  .word Label_0100D2E5
@  #11 @012   ----------------------------------------
 .byte   PATT
  .word Label_0100D2D7
@  #11 @013   ----------------------------------------
 .byte   PATT
  .word Label_0100D2E5
@  #11 @014   ----------------------------------------
 .byte   PATT
  .word Label_0100D2D7
@  #11 @015   ----------------------------------------
 .byte   N12 ,Cs2 ,v064
 .byte   W12
 .byte   Cs2 ,v044
 .byte   W12
 .byte   Cs2 ,v032
 .byte   W12
 .byte   Cs2 ,v020
 .byte   W12
 .byte   Cn2 ,v064
 .byte   W12
 .byte   Bn1
 .byte   W12
 .byte   An1
 .byte   W12
 .byte   Gn1
 .byte   W12
@  #11 @016   ----------------------------------------
 .byte   N96 ,En2
 .byte   W96
@  #11 @017   ----------------------------------------
 .byte   Fn2
 .byte   W96
@  #11 @018   ----------------------------------------
 .byte   En2
 .byte   W96
@  #11 @019   ----------------------------------------
 .byte   Fn2
 .byte   W96
@  #11 @020   ----------------------------------------
 .byte   En2
 .byte   W96
@  #11 @021   ----------------------------------------
 .byte   Fn2
 .byte   W96
@  #11 @022   ----------------------------------------
 .byte   En2
 .byte   W96
@  #11 @023   ----------------------------------------
 .byte   Fn2
 .byte   W96
@  #11 @024   ----------------------------------------
 .byte   PATT
  .word Label_0100D2E5
@  #11 @025   ----------------------------------------
 .byte   PATT
  .word Label_0100D2D7
@  #11 @026   ----------------------------------------
 .byte   PATT
  .word Label_0100D2E5
@  #11 @027   ----------------------------------------
 .byte   PATT
  .word Label_0100D2D7
@  #11 @028   ----------------------------------------
 .byte   PATT
  .word Label_0100D2E5
@  #11 @029   ----------------------------------------
 .byte   PATT
  .word Label_0100D2D7
@  #11 @030   ----------------------------------------
 .byte   PATT
  .word Label_0100D2E5
@  #11 @031   ----------------------------------------
 .byte   PATT
  .word Label_0100D2D7
@  #11 @032   ----------------------------------------
 .byte   PATT
  .word Label_0100D2E5
@  #11 @033   ----------------------------------------
 .byte   PATT
  .word Label_0100D2D7
@  #11 @034   ----------------------------------------
 .byte   PATT
  .word Label_0100D2E5
@  #11 @035   ----------------------------------------
 .byte   N96 ,En2 ,v064
 .byte   W96
@  #11 @036   ----------------------------------------
 .byte   Fn2
 .byte   W96
@  #11 @037   ----------------------------------------
 .byte   En2
 .byte   W96
@  #11 @038   ----------------------------------------
 .byte   Fn2
 .byte   W96
@  #11 @039   ----------------------------------------
 .byte   W96
@  #11 @040   ----------------------------------------
 .byte   GOTO
  .word Label_0100D2F8
 .byte   FINE

@******************************************************@
	.align	2

songPorkChopSandwiches:
	.byte	11	@ NumTrks
	.byte	0	@ NumBlks
	.byte	songPorkChopSandwiches_pri	@ Priority
	.byte	songPorkChopSandwiches_rev	@ Reverb.
    
	.word	songPorkChopSandwiches_grp
    
	.word	songPorkChopSandwiches_001
	.word	songPorkChopSandwiches_002
	.word	songPorkChopSandwiches_003
	.word	songPorkChopSandwiches_004
	.word	songPorkChopSandwiches_005
	.word	songPorkChopSandwiches_006
	.word	songPorkChopSandwiches_007
	.word	songPorkChopSandwiches_008
	.word	songPorkChopSandwiches_009
	.word	songPorkChopSandwiches_010
	.word	songPorkChopSandwiches_011

	.end
