//Event file generated from Sappy .s format.
	#include "MPlayDef.event"

	#define	PuppetGanon_grp  voicegroup000
	#define	PuppetGanon_pri  0
	#define	PuppetGanon_rev  0
	#define	PuppetGanon_mvl  127
	#define	PuppetGanon_key  0
	#define	PuppetGanon_tbs  1
	#define	PuppetGanon_exg  0
	#define	PuppetGanon_cmp  1

	// .rodata
	//	PuppetGanon
	ALIGN 4


//**************** Track 1 (Midi-Chn.0) ****************//

PuppetGanon_001:
// 000   ----------------------------------------
 BYTE   KEYSH   PuppetGanon_key+0
 BYTE   TEMPO   78*PuppetGanon_tbs/2
 BYTE   VOICE   48
 BYTE   VOL   33*PuppetGanon_mvl/mxv
 BYTE   N04  Fn3  v100
 BYTE   W06
 BYTE   Fs3
 BYTE   W06
 BYTE   Fn3
 BYTE   W06
 BYTE   Fs3
 BYTE   W06
 BYTE   Fn3
 BYTE   W06
 BYTE   Fs3
 BYTE   W06
 BYTE   Fn3
 BYTE   W06
 BYTE   Fs3
 BYTE   W06
 BYTE   Fn3
 BYTE   W06
 BYTE   Fs3
 BYTE   W06
 BYTE   Fn3
 BYTE   W06
 BYTE   Fs3
 BYTE   W06
 BYTE   Fn3
 BYTE   W06
 BYTE   Fs3
 BYTE   W06
 BYTE   Fn3
 BYTE   W06
 BYTE   Fs3
 BYTE   W06
// 001   ----------------------------------------
 BYTE   Fn3
 BYTE   W06
 BYTE   Fs3
 BYTE   W06
 BYTE   Fn3
 BYTE   W06
 BYTE   Fs3
 BYTE   W06
 BYTE   Fn3
 BYTE   W06
 BYTE   Fs3
 BYTE   W06
 BYTE   Fn3
 BYTE   W06
 BYTE   Fs3
 BYTE   W06
 BYTE   Fn3
 BYTE   W06
 BYTE   Fs3
 BYTE   W06
 BYTE   Fn3
 BYTE   W06
 BYTE   Fs3
 BYTE   W06
 BYTE   Fn3
 BYTE   W06
 BYTE   Fs3
 BYTE   W06
 BYTE   Fn3
 BYTE   W06
 BYTE   Fs3
 BYTE   W06
// 002   ----------------------------------------
PuppetGanon_Label_0_016CE6DE:
 BYTE   VOL   33*PuppetGanon_mvl/mxv
 BYTE   N48  Fs4  v100
 BYTE   W24
 BYTE   N24  Cs5
 BYTE   W24
 BYTE   N48  Fn4
 BYTE   N42  Fn5
 BYTE   W42
 BYTE   N03  Cn5
 BYTE   W03
 BYTE   Cs5
 BYTE   W03
 BYTE   PEND 
// 003   ----------------------------------------
PuppetGanon_Label_0_016CE6F2:
 BYTE   N48  En4  v100
 BYTE   N48  En5
 BYTE   W24
 BYTE   N24  An4
 BYTE   W24
 BYTE   N44  Ds4
 BYTE   N44  Fs4
 BYTE   N44  Ds5
 BYTE   W48
 BYTE   PEND 
 BYTE   PATT
  POIN2 PuppetGanon_Label_0_016CE6DE
 BYTE   PATT
  POIN2 PuppetGanon_Label_0_016CE6F2
// 004   ----------------------------------------
 BYTE   VOL   43*PuppetGanon_mvl/mxv
 BYTE   N03  Cs5  v100
 BYTE   W03
 BYTE   Cn5
 BYTE   W03
 BYTE   Gs4
 BYTE   W03
 BYTE   Fn4
 BYTE   W03
 BYTE   Cs4
 BYTE   W03
 BYTE   Cn4
 BYTE   W03
 BYTE   Gs3
 BYTE   W03
 BYTE   Fn3
 BYTE   W03
 BYTE   Cs3
 BYTE   W03
 BYTE   Cn3
 BYTE   W03
 BYTE   Gs2
 BYTE   W03
 BYTE   Fn2
 BYTE   W03
 BYTE   Cs2
 BYTE   W03
 BYTE   Cn2
 BYTE   W03
 BYTE   Gs1
 BYTE   W54
// 005   ----------------------------------------
 BYTE   Cn5
 BYTE   W03
 BYTE   Bn4
 BYTE   W03
 BYTE   Gn4
 BYTE   W03
 BYTE   En4
 BYTE   W03
 BYTE   Cn4
 BYTE   W03
 BYTE   Bn3
 BYTE   W03
 BYTE   Gn3
 BYTE   W03
 BYTE   En3
 BYTE   W03
 BYTE   Cn3
 BYTE   W03
 BYTE   Bn2
 BYTE   W03
 BYTE   Gn2
 BYTE   W03
 BYTE   En2
 BYTE   W03
 BYTE   Cn2
 BYTE   W03
 BYTE   Bn1
 BYTE   W03
 BYTE   Gn1
 BYTE   W54
// 006   ----------------------------------------
 BYTE   W78
 BYTE   N05  Gs4  v092
 BYTE   W03
 BYTE   N06  Fs4  v104
 BYTE   W03
 BYTE   Gs4  v112
 BYTE   W03
 BYTE   As4  v116
 BYTE   W03
 BYTE   Bn4  v120
 BYTE   W03
 BYTE   N03  Cn5  v124
 BYTE   W03
 BYTE   PATT
  POIN2 PuppetGanon_Label_0_016CE6DE
 BYTE   PATT
  POIN2 PuppetGanon_Label_0_016CE6F2
// 007   ----------------------------------------
 BYTE   VOL   33*PuppetGanon_mvl/mxv
 BYTE   N44  As4  v100
 BYTE   N48  Cs5
 BYTE   W48
 BYTE   N44  As4
 BYTE   N48  Dn5
 BYTE   W48
// 008   ----------------------------------------
 BYTE   N44  As4
 BYTE   N48  Ds5
 BYTE   W48
 BYTE   N44  As4
 BYTE   N48  Fn5
 BYTE   W48
// 009   ----------------------------------------
PuppetGanon_Label_0_016CE784:
 BYTE   N02  Fn3  v127
 BYTE   W03
 BYTE   Fs3
 BYTE   W03
 BYTE   N03
 BYTE   W03
 BYTE   Gn3
 BYTE   W03
 BYTE   N02  Fn3
 BYTE   W03
 BYTE   Fs3
 BYTE   W03
 BYTE   N03
 BYTE   W03
 BYTE   Gn3
 BYTE   W03
 BYTE   N02  Fn3
 BYTE   W03
 BYTE   Fs3
 BYTE   W03
 BYTE   N03
 BYTE   W03
 BYTE   Gn3
 BYTE   W03
 BYTE   N02  Fn3
 BYTE   W03
 BYTE   Fs3
 BYTE   W03
 BYTE   N03
 BYTE   W03
 BYTE   Gn3
 BYTE   W03
 BYTE   N02  Fn3
 BYTE   W03
 BYTE   Fs3
 BYTE   W03
 BYTE   N03
 BYTE   W03
 BYTE   Gn3
 BYTE   W03
 BYTE   N02  Fn3
 BYTE   W03
 BYTE   Fs3
 BYTE   W03
 BYTE   N03
 BYTE   W03
 BYTE   Gn3
 BYTE   W03
 BYTE   N02  Fn3
 BYTE   W03
 BYTE   Fs3
 BYTE   W03
 BYTE   N03
 BYTE   W03
 BYTE   Gn3
 BYTE   W03
 BYTE   N02  Fn3
 BYTE   W03
 BYTE   Fs3
 BYTE   W03
 BYTE   N03
 BYTE   W03
 BYTE   N02  Gn3
 BYTE   W03
 BYTE   PEND 
 BYTE   PATT
  POIN2 PuppetGanon_Label_0_016CE784
 BYTE   PATT
  POIN2 PuppetGanon_Label_0_016CE784
 BYTE   PATT
  POIN2 PuppetGanon_Label_0_016CE784
 BYTE   PATT
  POIN2 PuppetGanon_Label_0_016CE784
 BYTE   PATT
  POIN2 PuppetGanon_Label_0_016CE784
 BYTE   PATT
  POIN2 PuppetGanon_Label_0_016CE784
 BYTE   PATT
  POIN2 PuppetGanon_Label_0_016CE784
 BYTE   PATT
  POIN2 PuppetGanon_Label_0_016CE784
 BYTE   PATT
  POIN2 PuppetGanon_Label_0_016CE784
 BYTE   PATT
  POIN2 PuppetGanon_Label_0_016CE784
 BYTE   PATT
  POIN2 PuppetGanon_Label_0_016CE784
 BYTE   PATT
  POIN2 PuppetGanon_Label_0_016CE784
 BYTE   PATT
  POIN2 PuppetGanon_Label_0_016CE784
// 010   ----------------------------------------
 BYTE   GoTo
  POIN2 PuppetGanon_Label_0_016CE6DE
 BYTE   FINE

//**************** Track 2 (Midi-Chn.1) ****************//

PuppetGanon_002:
// 000   ----------------------------------------
 BYTE   KEYSH   PuppetGanon_key+0
 BYTE   VOICE   60
 BYTE   VOL   33*PuppetGanon_mvl/mxv
 BYTE   W48
 BYTE   N04  As2  v100
 BYTE   N04  Fn3
 BYTE   W06
 BYTE   Bn2
 BYTE   N04  Fs3
 BYTE   W06
 BYTE   As2
 BYTE   N04  Fn3
 BYTE   W06
 BYTE   Bn2
 BYTE   N04  Fs3
 BYTE   W06
 BYTE   As2
 BYTE   N04  Fn3
 BYTE   W06
 BYTE   Bn2
 BYTE   N04  Fs3
 BYTE   W06
 BYTE   As2
 BYTE   N04  Fn3
 BYTE   W06
 BYTE   Bn2
 BYTE   N04  Fs3
 BYTE   W06
// 001   ----------------------------------------
 BYTE   As2
 BYTE   N04  Fn3
 BYTE   W06
 BYTE   Bn2
 BYTE   N04  Fs3
 BYTE   W06
 BYTE   As2
 BYTE   N04  Fn3
 BYTE   W06
 BYTE   Bn2
 BYTE   N04  Fs3
 BYTE   W06
 BYTE   As2
 BYTE   N04  Fn3
 BYTE   W06
 BYTE   Bn2
 BYTE   N04  Fs3
 BYTE   W06
 BYTE   As2
 BYTE   N04  Fn3
 BYTE   W06
 BYTE   Bn2
 BYTE   N04  Fs3
 BYTE   W06
 BYTE   As2
 BYTE   N04  Fn3
 BYTE   W06
 BYTE   Bn2
 BYTE   N04  Fs3
 BYTE   W06
 BYTE   As2
 BYTE   N04  Fn3
 BYTE   W06
 BYTE   Bn2
 BYTE   N04  Fs3
 BYTE   W06
 BYTE   As2
 BYTE   N04  Fn3
 BYTE   W06
 BYTE   Bn2
 BYTE   N04  Fs3
 BYTE   W06
 BYTE   As2
 BYTE   N04  Fn3
 BYTE   W06
 BYTE   Bn2
 BYTE   N04  Fs3
 BYTE   W06
// 002   ----------------------------------------
PuppetGanon_Label_1_016CE881:
 BYTE   VOL   43*PuppetGanon_mvl/mxv
 BYTE   PAN   c_v-32
 BYTE   N06  Fs1  v100
 BYTE   N22  Cs4
 BYTE   W06
 BYTE   N05  Gn1
 BYTE   W06
 BYTE   N06  Fs1
 BYTE   W06
 BYTE   N05  Gn1
 BYTE   W06
 BYTE   N06  Fs1
 BYTE   N10  En4
 BYTE   W06
 BYTE   N05  Gn1
 BYTE   W06
 BYTE   N06  Fs1
 BYTE   N04  En4
 BYTE   W06
 BYTE   N05  Gn1
 BYTE   N04  Ds4
 BYTE   W06
 BYTE   N06  Fs1
 BYTE   N22  Cs4
 BYTE   W06
 BYTE   N05  Gn1
 BYTE   W06
 BYTE   N06  Fs1
 BYTE   W06
 BYTE   N05  Gn1
 BYTE   W06
 BYTE   N06  Fs1
 BYTE   N22  En4
 BYTE   W06
 BYTE   N05  Gn1
 BYTE   W06
 BYTE   N06  Fs1
 BYTE   W06
 BYTE   N05  Gn1
 BYTE   W06
 BYTE   PEND 
// 003   ----------------------------------------
PuppetGanon_Label_1_016CE8C3:
 BYTE   N06  Fs1  v100
 BYTE   N22  Cs4
 BYTE   W06
 BYTE   N05  Gn1
 BYTE   W06
 BYTE   N06  Fs1
 BYTE   W06
 BYTE   N05  Gn1
 BYTE   W06
 BYTE   N06  Fs1
 BYTE   N10  En4
 BYTE   W06
 BYTE   N05  Gn1
 BYTE   W06
 BYTE   N06  Fs1
 BYTE   N04  En4
 BYTE   W06
 BYTE   N05  Gn1
 BYTE   N04  Ds4
 BYTE   W06
 BYTE   N06  Fs1
 BYTE   N44  Cs4
 BYTE   W06
 BYTE   N05  Gn1
 BYTE   W06
 BYTE   N06  Fs1
 BYTE   W06
 BYTE   N05  Gn1
 BYTE   W06
 BYTE   N06  Fs1
 BYTE   W06
 BYTE   N05  Gn1
 BYTE   W06
 BYTE   N06  Fs1
 BYTE   W06
 BYTE   N05  Gn1
 BYTE   W06
 BYTE   PEND 
 BYTE   PATT
  POIN2 PuppetGanon_Label_1_016CE881
 BYTE   PATT
  POIN2 PuppetGanon_Label_1_016CE8C3
// 004   ----------------------------------------
 BYTE   W96
// 005   ----------------------------------------
 BYTE   W96
// 006   ----------------------------------------
 BYTE   VOL   43*PuppetGanon_mvl/mxv
 BYTE   W24
 BYTE   N09  Fn2  v076
 BYTE   W12
 BYTE   N09
 BYTE   W12
 BYTE   Fn2  v096
 BYTE   N09  Cn3
 BYTE   W12
 BYTE   Fn2  v100
 BYTE   N09  Cn3
 BYTE   W12
 BYTE   Fn2  v120
 BYTE   N09  Cn3
 BYTE   N09  Fn3
 BYTE   W12
 BYTE   Fn2  v112
 BYTE   N09  Cn3
 BYTE   N09  Fn3
 BYTE   W12
 BYTE   PATT
  POIN2 PuppetGanon_Label_1_016CE881
 BYTE   PATT
  POIN2 PuppetGanon_Label_1_016CE8C3
// 007   ----------------------------------------
 BYTE   VOL   43*PuppetGanon_mvl/mxv
 BYTE   PAN   c_v-32
 BYTE   N06  Fn1  v100
 BYTE   N22  As3
 BYTE   W06
 BYTE   N05  Fs1
 BYTE   W06
 BYTE   N06  Fn1
 BYTE   W06
 BYTE   N05  Fs1
 BYTE   W06
 BYTE   N06  Fn1
 BYTE   N10  Cs4
 BYTE   W06
 BYTE   N05  Fs1
 BYTE   W06
 BYTE   N06  Fn1
 BYTE   N04  Cs4
 BYTE   W06
 BYTE   N05  Fs1
 BYTE   N04  Bn3
 BYTE   W06
 BYTE   N06  Fn1
 BYTE   N22  As3
 BYTE   W06
 BYTE   N05  Fs1
 BYTE   W06
 BYTE   N06  Fn1
 BYTE   W06
 BYTE   N05  Fs1
 BYTE   W06
 BYTE   N06  Fn1
 BYTE   N22  Cs4
 BYTE   W06
 BYTE   N05  Fs1
 BYTE   W06
 BYTE   N06  Fn1
 BYTE   W06
 BYTE   N05  Fs1
 BYTE   W06
// 008   ----------------------------------------
 BYTE   N06  Fn1
 BYTE   N22  As3
 BYTE   W06
 BYTE   N05  Fs1
 BYTE   W06
 BYTE   N06  Fn1
 BYTE   W06
 BYTE   N05  Fs1
 BYTE   W06
 BYTE   N06  Fn1
 BYTE   N10  Cs4
 BYTE   W06
 BYTE   N05  Fs1
 BYTE   W06
 BYTE   N06  Fn1
 BYTE   N04  Cs4
 BYTE   W06
 BYTE   N05  Fs1
 BYTE   N04  Bn3
 BYTE   W06
 BYTE   N06  Fn1
 BYTE   N48  As3
 BYTE   W06
 BYTE   N05  Fs1
 BYTE   W06
 BYTE   N06  Fn1
 BYTE   W06
 BYTE   N05  Fs1
 BYTE   W06
 BYTE   N06  Fn1
 BYTE   W06
 BYTE   N05  Fs1
 BYTE   W06
 BYTE   N06  Fn1
 BYTE   W06
 BYTE   N05  Fs1
 BYTE   W06
// 009   ----------------------------------------
 BYTE   VOL   43*PuppetGanon_mvl/mxv
 BYTE   PAN   c_v+16
 BYTE   N03  Bn1
 BYTE   W06
 BYTE   Cn2
 BYTE   W06
 BYTE   Bn1
 BYTE   W06
 BYTE   Cn2
 BYTE   W06
 BYTE   Bn1
 BYTE   W06
 BYTE   Cn2
 BYTE   W06
 BYTE   Bn1
 BYTE   W06
 BYTE   Cn2
 BYTE   W06
 BYTE   Bn1
 BYTE   W06
 BYTE   Cn2
 BYTE   W06
 BYTE   Bn1
 BYTE   W06
 BYTE   Cn2
 BYTE   W06
 BYTE   Bn1
 BYTE   W06
 BYTE   Cn2
 BYTE   W06
 BYTE   Bn1
 BYTE   W06
 BYTE   Cn2
 BYTE   W06
// 010   ----------------------------------------
 BYTE   Bn1
 BYTE   W06
 BYTE   Cn2
 BYTE   W06
 BYTE   Bn1
 BYTE   W06
 BYTE   Cn2
 BYTE   W06
 BYTE   Bn1
 BYTE   W06
 BYTE   Cn2
 BYTE   W06
 BYTE   Bn1
 BYTE   W06
 BYTE   Cn2
 BYTE   W06
 BYTE   Bn1
 BYTE   W06
 BYTE   Cn2
 BYTE   W06
 BYTE   Bn1
 BYTE   W06
 BYTE   Cn2
 BYTE   W06
 BYTE   Bn1
 BYTE   W06
 BYTE   Cn2
 BYTE   W06
 BYTE   Bn1
 BYTE   W06
 BYTE   Cn2
 BYTE   W06
// 011   ----------------------------------------
 BYTE   VOL   43*PuppetGanon_mvl/mxv
 BYTE   N03  Bn1
 BYTE   W06
 BYTE   Cn2
 BYTE   W06
 BYTE   Bn1
 BYTE   W06
 BYTE   Cn2
 BYTE   W06
 BYTE   Bn1
 BYTE   N48  Gs3
 BYTE   W06
 BYTE   N03  Cn2
 BYTE   W06
 BYTE   Bn1
 BYTE   W06
 BYTE   Cn2
 BYTE   W06
 BYTE   Bn1
 BYTE   W06
 BYTE   Cn2
 BYTE   W06
 BYTE   Bn1
 BYTE   W06
 BYTE   Cn2
 BYTE   W06
 BYTE   Bn1
 BYTE   N48  Cs3
 BYTE   W06
 BYTE   N03  Cn2
 BYTE   W06
 BYTE   Bn1
 BYTE   W06
 BYTE   Cn2
 BYTE   W06
// 012   ----------------------------------------
 BYTE   Bn1
 BYTE   W06
 BYTE   Cn2
 BYTE   W06
 BYTE   Bn1
 BYTE   W06
 BYTE   Cn2
 BYTE   W06
 BYTE   Bn1
 BYTE   N48  As3
 BYTE   W06
 BYTE   N03  Cn2
 BYTE   W06
 BYTE   Bn1
 BYTE   W06
 BYTE   Cn2
 BYTE   W06
 BYTE   Bn1
 BYTE   W06
 BYTE   Cn2
 BYTE   W06
 BYTE   Bn1
 BYTE   W06
 BYTE   Cn2
 BYTE   W06
 BYTE   Bn1
 BYTE   N48  Ds3
 BYTE   W06
 BYTE   N03  Cn2
 BYTE   W06
 BYTE   Bn1
 BYTE   W06
 BYTE   Cn2
 BYTE   W06
// 013   ----------------------------------------
 BYTE   N05  Cn1
 BYTE   W06
 BYTE   N06  Cs1
 BYTE   W06
 BYTE   En1
 BYTE   W06
 BYTE   Fn1
 BYTE   W06
 BYTE   N05  En1
 BYTE   N48  Fs3  v127
 BYTE   W06
 BYTE   N06  Fn1  v100
 BYTE   W06
 BYTE   Fs1
 BYTE   W06
 BYTE   Gs1
 BYTE   W06
 BYTE   Fn1
 BYTE   W06
 BYTE   Gn1
 BYTE   W06
 BYTE   Gs1
 BYTE   W06
 BYTE   As1
 BYTE   W06
 BYTE   Fs1
 BYTE   N24  Cs3  v127
 BYTE   W06
 BYTE   N06  Gn1  v100
 BYTE   W06
 BYTE   An1
 BYTE   W06
 BYTE   As1
 BYTE   W06
// 014   ----------------------------------------
 BYTE   N05  Cn1
 BYTE   N24  Cn3  v127
 BYTE   W06
 BYTE   N06  Cs1  v100
 BYTE   W06
 BYTE   En1
 BYTE   W06
 BYTE   Fn1
 BYTE   W06
 BYTE   N05  En1
 BYTE   N48  Fs3  v127
 BYTE   W06
 BYTE   N06  Fn1  v100
 BYTE   W06
 BYTE   Fs1
 BYTE   W06
 BYTE   Gs1
 BYTE   W06
 BYTE   Fn1
 BYTE   W06
 BYTE   Gn1
 BYTE   W06
 BYTE   Gs1
 BYTE   W06
 BYTE   As1
 BYTE   W06
 BYTE   Fs1
 BYTE   N24  Cs3  v127
 BYTE   W06
 BYTE   N06  Gn1  v100
 BYTE   W06
 BYTE   An1
 BYTE   W06
 BYTE   As1
 BYTE   W06
// 015   ----------------------------------------
 BYTE   N04  Gn1
 BYTE   W06
 BYTE   Gs1
 BYTE   W06
 BYTE   Gn1
 BYTE   W06
 BYTE   Gs1
 BYTE   W06
 BYTE   Gn1
 BYTE   N48  Gs3
 BYTE   W06
 BYTE   N04  Gs1
 BYTE   W06
 BYTE   Gn1
 BYTE   W06
 BYTE   Gs1
 BYTE   W06
 BYTE   Gn1
 BYTE   W06
 BYTE   Gs1
 BYTE   W06
 BYTE   Gn1
 BYTE   W06
 BYTE   Gs1
 BYTE   W06
 BYTE   Gn1
 BYTE   N48  Cs3
 BYTE   W06
 BYTE   N04  Gs1
 BYTE   W06
 BYTE   Gn1
 BYTE   W06
 BYTE   Gs1
 BYTE   W06
// 016   ----------------------------------------
 BYTE   Gn1
 BYTE   W06
 BYTE   Gs1
 BYTE   W06
 BYTE   Gn1
 BYTE   W06
 BYTE   Gs1
 BYTE   W06
 BYTE   Gn1
 BYTE   N48  As3
 BYTE   W06
 BYTE   N04  Gs1
 BYTE   W06
 BYTE   Gn1
 BYTE   W06
 BYTE   Gs1
 BYTE   W06
 BYTE   Gn1
 BYTE   W06
 BYTE   Gs1
 BYTE   W06
 BYTE   Gn1
 BYTE   W06
 BYTE   Gs1
 BYTE   W06
 BYTE   Gn1
 BYTE   N24  Dn4
 BYTE   W06
 BYTE   N04  Gs1
 BYTE   W06
 BYTE   Gn1
 BYTE   W06
 BYTE   Gs1
 BYTE   W06
// 017   ----------------------------------------
 BYTE   VOL   46*PuppetGanon_mvl/mxv
 BYTE   N06  Gn1
 BYTE   N09  Gn4
 BYTE   W06
 BYTE   N06  An1
 BYTE   W06
 BYTE   As1
 BYTE   N09  Gn4
 BYTE   W06
 BYTE   N06  Bn1
 BYTE   W06
 BYTE   As1
 BYTE   N09  Fs4
 BYTE   W06
 BYTE   N06  Bn1
 BYTE   W06
 BYTE   Cs1
 BYTE   N09  Fs4
 BYTE   W06
 BYTE   N06  Dn1
 BYTE   W06
 BYTE   Bn1
 BYTE   N09  Dn4
 BYTE   W06
 BYTE   N06  Dn1
 BYTE   W06
 BYTE   Ds1
 BYTE   N09  Dn4
 BYTE   W06
 BYTE   N06  En1
 BYTE   W06
 BYTE   Fs1
 BYTE   N09  Cs4
 BYTE   W06
 BYTE   N06  Dn1
 BYTE   W06
 BYTE   Ds1
 BYTE   N09  Cs4
 BYTE   W06
 BYTE   N06  En1
 BYTE   W06
// 018   ----------------------------------------
 BYTE   Gn1
 BYTE   N09  Gn3
 BYTE   W06
 BYTE   N06  An1
 BYTE   W06
 BYTE   As1
 BYTE   N09  Gn3
 BYTE   W06
 BYTE   N06  Bn1
 BYTE   W06
 BYTE   As1
 BYTE   N09  Fs3
 BYTE   W06
 BYTE   N06  Bn1
 BYTE   W06
 BYTE   Cs1
 BYTE   N09  Fs3
 BYTE   W06
 BYTE   N06  Dn1
 BYTE   W06
 BYTE   Bn1
 BYTE   N09  Dn3
 BYTE   W06
 BYTE   N06  Dn1
 BYTE   W06
 BYTE   Ds1
 BYTE   N09  Dn3
 BYTE   W06
 BYTE   N06  En1
 BYTE   W06
 BYTE   Fs1
 BYTE   N09  Cs3
 BYTE   W06
 BYTE   N06  Dn1
 BYTE   W06
 BYTE   Ds1
 BYTE   N09  Cs3
 BYTE   W06
 BYTE   N06  En1
 BYTE   W06
// 019   ----------------------------------------
 BYTE   VOL   40*PuppetGanon_mvl/mxv
 BYTE   N06  Fs1
 BYTE   W18
 BYTE   N06
 BYTE   W18
 BYTE   N06
 BYTE   W12
 BYTE   N06
 BYTE   N06  Cs3
 BYTE   N06  Fs3
 BYTE   W12
 BYTE   Cs3
 BYTE   N06  Fs3
 BYTE   W12
 BYTE   Cs3
 BYTE   N06  Fs3
 BYTE   W12
 BYTE   Cs3
 BYTE   N06  Fs3
 BYTE   W12
// 020   ----------------------------------------
 BYTE   Gs1
 BYTE   N09  Ds3
 BYTE   W12
 BYTE   N09
 BYTE   W06
 BYTE   N06  Gs1
 BYTE   W06
 BYTE   N09  Ds3
 BYTE   W12
 BYTE   N06  Gs1
 BYTE   N09  Ds3
 BYTE   W12
 BYTE   N06  Bn1
 BYTE   N09  Dn3
 BYTE   W12
 BYTE   N09
 BYTE   W12
 BYTE   N09
 BYTE   W12
 BYTE   N09
 BYTE   W12
// 021   ----------------------------------------
 BYTE   VOL   40*PuppetGanon_mvl/mxv
 BYTE   N06  Fs1
 BYTE   W06
 BYTE   An1
 BYTE   W06
 BYTE   Fs1
 BYTE   W06
 BYTE   An1
 BYTE   W06
 BYTE   Fs1
 BYTE   W06
 BYTE   An1
 BYTE   W06
 BYTE   Fs1
 BYTE   W06
 BYTE   An1
 BYTE   W06
 BYTE   Fs1
 BYTE   N06  Cs3
 BYTE   N06  Fs3
 BYTE   W06
 BYTE   An1
 BYTE   W06
 BYTE   Fs1
 BYTE   N06  Cs3
 BYTE   N06  Fs3
 BYTE   W06
 BYTE   An1
 BYTE   W06
 BYTE   Fs1
 BYTE   N06  Cs3
 BYTE   N06  Fs3
 BYTE   W06
 BYTE   An1
 BYTE   W06
 BYTE   Fs1
 BYTE   N06  Cs3
 BYTE   N06  Fs3
 BYTE   W06
 BYTE   An1
 BYTE   W06
// 022   ----------------------------------------
 BYTE   Gs1
 BYTE   N09  Ds3
 BYTE   W06
 BYTE   N06  Bn1
 BYTE   W06
 BYTE   Gs1
 BYTE   N09  Ds3
 BYTE   W06
 BYTE   N06  Bn1
 BYTE   W06
 BYTE   Gs1
 BYTE   N09  Ds3
 BYTE   W06
 BYTE   N06  Bn1
 BYTE   W06
 BYTE   Gs1
 BYTE   N09  Ds3
 BYTE   W06
 BYTE   N06  Bn1
 BYTE   W06
 BYTE   Gn1
 BYTE   N09  Dn3
 BYTE   W06
 BYTE   N06  As1
 BYTE   W06
 BYTE   Gn1
 BYTE   N09  Dn3
 BYTE   W06
 BYTE   N06  As1
 BYTE   W06
 BYTE   Gn1
 BYTE   N09  Dn3
 BYTE   W06
 BYTE   N06  As1
 BYTE   W06
 BYTE   Gn1
 BYTE   N09  Dn3
 BYTE   W06
 BYTE   N05  As1
 BYTE   W06
// 023   ----------------------------------------
 BYTE   GoTo
  POIN2 PuppetGanon_Label_1_016CE881
 BYTE   FINE

//**************** Track 3 (Midi-Chn.2) ****************//

PuppetGanon_003:
// 000   ----------------------------------------
 BYTE   KEYSH   PuppetGanon_key+0
 BYTE   VOICE   57
 BYTE   VOL   36*PuppetGanon_mvl/mxv
 BYTE   W96
// 001   ----------------------------------------
 BYTE   N04  Fn3  v100
 BYTE   W06
 BYTE   Fs3
 BYTE   W06
 BYTE   Fn3
 BYTE   W06
 BYTE   Fs3
 BYTE   W06
 BYTE   Fn3
 BYTE   W06
 BYTE   Fs3
 BYTE   W06
 BYTE   Fn3
 BYTE   W06
 BYTE   Fs3
 BYTE   W06
 BYTE   Fn3
 BYTE   W06
 BYTE   Fs3
 BYTE   W06
 BYTE   Fn3
 BYTE   W06
 BYTE   Fs3
 BYTE   W06
 BYTE   Fn3
 BYTE   W06
 BYTE   Fs3
 BYTE   W06
 BYTE   Fn3
 BYTE   W06
 BYTE   Fs3
 BYTE   W06
// 002   ----------------------------------------
PuppetGanon_Label_2_016CEC35:
 BYTE   VOL   33*PuppetGanon_mvl/mxv
 BYTE   N06  Fs2  v100
 BYTE   N06  An2
 BYTE   N06  Cs3
 BYTE   N06  Fs3
 BYTE   N06  An3
 BYTE   N06  Cs4
 BYTE   W12
 BYTE   Fs2
 BYTE   N06  An2
 BYTE   N06  Cs3
 BYTE   N06  Fs3
 BYTE   N06  An3
 BYTE   N06  Cs4
 BYTE   W12
 BYTE   Fs2
 BYTE   N06  An2
 BYTE   N06  Cs3
 BYTE   N06  Fs3
 BYTE   N06  An3
 BYTE   N06  Cs4
 BYTE   W12
 BYTE   Fs2
 BYTE   N06  An2
 BYTE   N06  Cs3
 BYTE   N06  Fs3
 BYTE   N06  An3
 BYTE   N06  Cs4
 BYTE   W12
 BYTE   Fs2
 BYTE   N06  An2
 BYTE   N06  Cs3
 BYTE   N06  Fs3
 BYTE   N06  An3
 BYTE   N06  Cs4
 BYTE   W12
 BYTE   Fs2
 BYTE   N06  An2
 BYTE   N06  Cs3
 BYTE   N06  Fs3
 BYTE   N06  An3
 BYTE   N06  Cs4
 BYTE   W12
 BYTE   Fs2
 BYTE   N06  An2
 BYTE   N06  Cs3
 BYTE   N06  Fs3
 BYTE   N06  An3
 BYTE   N06  Cs4
 BYTE   W12
 BYTE   Fs2
 BYTE   N06  An2
 BYTE   N06  Cs3
 BYTE   N06  Fs3
 BYTE   N06  An3
 BYTE   N06  Cs4
 BYTE   W12
 BYTE   PEND 
// 003   ----------------------------------------
PuppetGanon_Label_2_016CEC9A:
 BYTE   N06  Fs2  v100
 BYTE   N06  An2
 BYTE   N06  Cs3
 BYTE   N06  Fs3
 BYTE   N06  An3
 BYTE   N06  Cs4
 BYTE   W12
 BYTE   Fs2
 BYTE   N06  An2
 BYTE   N06  Cs3
 BYTE   N06  Fs3
 BYTE   N06  An3
 BYTE   N06  Cs4
 BYTE   W12
 BYTE   Fs2
 BYTE   N06  An2
 BYTE   N06  Cs3
 BYTE   N06  Fs3
 BYTE   N06  An3
 BYTE   N06  Cs4
 BYTE   W12
 BYTE   Fs2
 BYTE   N06  An2
 BYTE   N06  Cs3
 BYTE   N06  Fs3
 BYTE   N06  An3
 BYTE   N06  Cs4
 BYTE   W12
 BYTE   Fs2
 BYTE   N06  An2
 BYTE   N06  Cs3
 BYTE   N06  Fs3
 BYTE   N06  An3
 BYTE   N06  Cs4
 BYTE   W12
 BYTE   Fs2
 BYTE   N06  An2
 BYTE   N06  Cs3
 BYTE   N06  Fs3
 BYTE   N06  An3
 BYTE   N06  Cs4
 BYTE   W12
 BYTE   Fs2
 BYTE   N06  An2
 BYTE   N06  Cs3
 BYTE   N06  Fs3
 BYTE   N06  An3
 BYTE   N06  Cs4
 BYTE   W12
 BYTE   Fs2
 BYTE   N06  An2
 BYTE   N06  Cs3
 BYTE   N06  Fs3
 BYTE   N06  An3
 BYTE   N06  Cs4
 BYTE   W12
 BYTE   PEND 
 BYTE   PATT
  POIN2 PuppetGanon_Label_2_016CEC35
 BYTE   PATT
  POIN2 PuppetGanon_Label_2_016CEC9A
// 004   ----------------------------------------
 BYTE   VOL   43*PuppetGanon_mvl/mxv
 BYTE   N09  Fn2  v100
 BYTE   N09  Gs2
 BYTE   N09  Cs3
 BYTE   N09  Fn3
 BYTE   W12
 BYTE   Fn2
 BYTE   N09  Gs2
 BYTE   N09  Cs3
 BYTE   N09  Fn3
 BYTE   W12
 BYTE   Fn2
 BYTE   N09  Gs2
 BYTE   N09  Cs3
 BYTE   N09  Fn3
 BYTE   W12
 BYTE   Fn2
 BYTE   N09  Gs2
 BYTE   N09  Cs3
 BYTE   N09  Fn3
 BYTE   W60
// 005   ----------------------------------------
 BYTE   En2
 BYTE   N09  Gn2
 BYTE   N09  Cn3
 BYTE   N09  En3
 BYTE   W12
 BYTE   En2
 BYTE   N09  Gn2
 BYTE   N09  Cn3
 BYTE   N09  En3
 BYTE   W12
 BYTE   En2
 BYTE   N09  Gn2
 BYTE   N09  Cn3
 BYTE   N09  En3
 BYTE   W12
 BYTE   En2
 BYTE   N09  Gn2
 BYTE   N09  Cn3
 BYTE   N09  En3
 BYTE   W60
// 006   ----------------------------------------
 BYTE   VOL   46*PuppetGanon_mvl/mxv
 BYTE   N09  Fn1  v120
 BYTE   W12
 BYTE   Fn1  v116
 BYTE   W12
 BYTE   N09
 BYTE   W12
 BYTE   N09
 BYTE   W12
 BYTE   Fn1  v112
 BYTE   N10  Fn2
 BYTE   N10  Cn3
 BYTE   N10  Fn3
 BYTE   W12
 BYTE   N09  Fn1  v116
 BYTE   N10  Ds2
 BYTE   N10  As2
 BYTE   N10  Ds3
 BYTE   W12
 BYTE   N09  Fn1
 BYTE   N10  Gs2
 BYTE   N10  Ds3
 BYTE   N10  Gs3
 BYTE   W12
 BYTE   N09  Fn1  v112
 BYTE   N10  Fn2
 BYTE   N10  Cn3
 BYTE   N10  Fn3
 BYTE   W12
 BYTE   PATT
  POIN2 PuppetGanon_Label_2_016CEC35
 BYTE   PATT
  POIN2 PuppetGanon_Label_2_016CEC9A
// 007   ----------------------------------------
 BYTE   VOL   33*PuppetGanon_mvl/mxv
 BYTE   N06  Cs2  v100
 BYTE   N06  Fn2
 BYTE   N06  As2
 BYTE   N06  Cs3
 BYTE   N06  Fn3
 BYTE   W12
 BYTE   Cs2
 BYTE   N06  Fn2
 BYTE   N06  As2
 BYTE   N06  Cs3
 BYTE   N06  Fn3
 BYTE   W12
 BYTE   Cs2
 BYTE   N06  Fn2
 BYTE   N06  As2
 BYTE   N06  Cs3
 BYTE   N06  Fn3
 BYTE   W12
 BYTE   Cs2
 BYTE   N06  Fn2
 BYTE   N06  As2
 BYTE   N06  Cs3
 BYTE   N06  Fn3
 BYTE   W12
 BYTE   Dn2
 BYTE   N06  Fs2
 BYTE   N06  As2
 BYTE   N06  Dn3
 BYTE   N06  Fs3
 BYTE   W12
 BYTE   Dn2
 BYTE   N06  Fs2
 BYTE   N06  As2
 BYTE   N06  Dn3
 BYTE   N06  Fs3
 BYTE   W12
 BYTE   Dn2
 BYTE   N06  Fs2
 BYTE   N06  As2
 BYTE   N06  Dn3
 BYTE   N06  Fs3
 BYTE   W12
 BYTE   Dn2
 BYTE   N06  Fs2
 BYTE   N06  As2
 BYTE   N06  Dn3
 BYTE   N06  Fs3
 BYTE   W12
// 008   ----------------------------------------
 BYTE   Ds2
 BYTE   N06  Gs2
 BYTE   N06  As2
 BYTE   N06  Ds3
 BYTE   N06  Gs3
 BYTE   W12
 BYTE   Ds2
 BYTE   N06  Gs2
 BYTE   N06  As2
 BYTE   N06  Ds3
 BYTE   N06  Gs3
 BYTE   W12
 BYTE   Ds2
 BYTE   N06  Gs2
 BYTE   N06  As2
 BYTE   N06  Ds3
 BYTE   N06  Gs3
 BYTE   W12
 BYTE   Ds2
 BYTE   N06  Gs2
 BYTE   N06  As2
 BYTE   N06  Ds3
 BYTE   N06  Gs3
 BYTE   W12
 BYTE   Fn2
 BYTE   N06  As2
 BYTE   N06  Fn3
 BYTE   N06  As3
 BYTE   W12
 BYTE   Fn2
 BYTE   N06  As2
 BYTE   N06  Fn3
 BYTE   N06  As3
 BYTE   W12
 BYTE   Fn2
 BYTE   N06  As2
 BYTE   N06  Fn3
 BYTE   N06  As3
 BYTE   W12
 BYTE   Fn2
 BYTE   N06  As2
 BYTE   N06  Fn3
 BYTE   N06  As3
 BYTE   W12
// 009   ----------------------------------------
 BYTE   VOL   46*PuppetGanon_mvl/mxv
 BYTE   N06  Fs2
 BYTE   N06  Bn2
 BYTE   N06  Fs3
 BYTE   N06  Bn3
 BYTE   W12
 BYTE   Fs2
 BYTE   N06  Bn2
 BYTE   N06  Fs3
 BYTE   N06  Bn3
 BYTE   W12
 BYTE   Fs2
 BYTE   N06  Bn2
 BYTE   N06  Fs3
 BYTE   N06  Bn3
 BYTE   W12
 BYTE   Fs2
 BYTE   N06  Bn2
 BYTE   N06  Fs3
 BYTE   N06  Bn3
 BYTE   W12
 BYTE   An2
 BYTE   N06  Dn3
 BYTE   N06  An3
 BYTE   N06  Dn4
 BYTE   W12
 BYTE   An2
 BYTE   N06  Dn3
 BYTE   N06  An3
 BYTE   N06  Dn4
 BYTE   W12
 BYTE   An2
 BYTE   N06  Dn3
 BYTE   N06  An3
 BYTE   N06  Dn4
 BYTE   W12
 BYTE   An2
 BYTE   N06  Dn3
 BYTE   N06  An3
 BYTE   N06  Dn4
 BYTE   W12
// 010   ----------------------------------------
 BYTE   Gs2
 BYTE   N06  Cs3
 BYTE   N06  Gs3
 BYTE   N06  Cs4
 BYTE   W12
 BYTE   Gs2
 BYTE   N06  Cs3
 BYTE   N06  Gs3
 BYTE   N06  Cs4
 BYTE   W12
 BYTE   Gs2
 BYTE   N06  Cs3
 BYTE   N06  Gs3
 BYTE   N06  Cs4
 BYTE   W12
 BYTE   Gs2
 BYTE   N06  Cs3
 BYTE   N06  Gs3
 BYTE   N06  Cs4
 BYTE   W12
 BYTE   Ds2
 BYTE   N06  Gs2
 BYTE   N06  Ds3
 BYTE   N06  Gs3
 BYTE   W12
 BYTE   Ds2
 BYTE   N06  Gs2
 BYTE   N06  Ds3
 BYTE   N06  Gs3
 BYTE   W12
 BYTE   Ds2
 BYTE   N06  Gs2
 BYTE   N06  Ds3
 BYTE   N06  Gs3
 BYTE   W12
 BYTE   Ds2
 BYTE   N06  Gs2
 BYTE   N06  Ds3
 BYTE   N06  Gs3
 BYTE   W12
// 011   ----------------------------------------
 BYTE   VOL   46*PuppetGanon_mvl/mxv
 BYTE   N48  Cn3
 BYTE   N48  Fn3
 BYTE   W48
 BYTE   Ds3
 BYTE   N48  Gs3
 BYTE   W48
// 012   ----------------------------------------
 BYTE   Dn3
 BYTE   N48  Gn3
 BYTE   W48
 BYTE   Cs3
 BYTE   N48  Fs3
 BYTE   W48
// 013   ----------------------------------------
 BYTE   VOL   46*PuppetGanon_mvl/mxv
 BYTE   N09  Gn2
 BYTE   N09  Cn3
 BYTE   N09  Gn3
 BYTE   N09  Cn4
 BYTE   W12
 BYTE   Gn2
 BYTE   N09  Cn3
 BYTE   N09  Gn3
 BYTE   N09  Cn4
 BYTE   W12
 BYTE   Fs2
 BYTE   N09  Bn2
 BYTE   N09  Fs3
 BYTE   N09  Bn3
 BYTE   W12
 BYTE   Fs2
 BYTE   N09  Bn2
 BYTE   N09  Fs3
 BYTE   N09  Bn3
 BYTE   W12
 BYTE   Fn2
 BYTE   N09  As2
 BYTE   N09  Fn3
 BYTE   N09  As3
 BYTE   W12
 BYTE   Fn2
 BYTE   N09  As2
 BYTE   N09  Fn3
 BYTE   N09  As3
 BYTE   W12
 BYTE   En2
 BYTE   N09  An2
 BYTE   N09  En3
 BYTE   N09  An3
 BYTE   W12
 BYTE   En2
 BYTE   N09  An2
 BYTE   N09  En3
 BYTE   N09  An3
 BYTE   W12
// 014   ----------------------------------------
 BYTE   Gn2
 BYTE   N09  Cn3
 BYTE   N09  Gn3
 BYTE   N09  Cn4
 BYTE   W12
 BYTE   Gn2
 BYTE   N09  Cn3
 BYTE   N09  Gn3
 BYTE   N09  Cn4
 BYTE   W12
 BYTE   Fs2
 BYTE   N09  Bn2
 BYTE   N09  Fs3
 BYTE   N09  Bn3
 BYTE   W12
 BYTE   Fs2
 BYTE   N09  Bn2
 BYTE   N09  Fs3
 BYTE   N09  Bn3
 BYTE   W12
 BYTE   Fn2
 BYTE   N09  As2
 BYTE   N09  Fn3
 BYTE   N09  As3
 BYTE   W12
 BYTE   Fn2
 BYTE   N09  As2
 BYTE   N09  Fn3
 BYTE   N09  As3
 BYTE   W12
 BYTE   En2
 BYTE   N09  An2
 BYTE   N09  En3
 BYTE   N09  An3
 BYTE   W12
 BYTE   En2
 BYTE   N09  An2
 BYTE   N09  En3
 BYTE   N09  An3
 BYTE   W12
// 015   ----------------------------------------
 BYTE   VOL   46*PuppetGanon_mvl/mxv
 BYTE   N48  Gs2
 BYTE   N48  Cs3
 BYTE   W48
 BYTE   Bn2
 BYTE   N48  En3
 BYTE   W48
// 016   ----------------------------------------
 BYTE   As2
 BYTE   N48  Ds3
 BYTE   W48
 BYTE   An2
 BYTE   N48  Dn3
 BYTE   W48
// 017   ----------------------------------------
 BYTE   VOL   46*PuppetGanon_mvl/mxv
 BYTE   N09  En3
 BYTE   N09  An3
 BYTE   W12
 BYTE   En3
 BYTE   N09  An3
 BYTE   W12
 BYTE   Ds3
 BYTE   N09  Gs3
 BYTE   W12
 BYTE   Ds3
 BYTE   N09  Gs3
 BYTE   W12
 BYTE   Dn3
 BYTE   N09  Gn3
 BYTE   W12
 BYTE   Dn3
 BYTE   N09  Gn3
 BYTE   W12
 BYTE   Cs3
 BYTE   N09  Fs3
 BYTE   W12
 BYTE   Cs3
 BYTE   N09  Fs3
 BYTE   W12
// 018   ----------------------------------------
 BYTE   En3
 BYTE   N09  An3
 BYTE   W12
 BYTE   En3
 BYTE   N09  An3
 BYTE   W12
 BYTE   Ds3
 BYTE   N09  Gs3
 BYTE   W12
 BYTE   Ds3
 BYTE   N09  Gs3
 BYTE   W12
 BYTE   Dn3
 BYTE   N09  Gn3
 BYTE   W12
 BYTE   Dn3
 BYTE   N09  Gn3
 BYTE   W12
 BYTE   Cs3
 BYTE   N09  Fs3
 BYTE   W12
 BYTE   Cs3
 BYTE   N09  Fs3
 BYTE   W12
// 019   ----------------------------------------
PuppetGanon_Label_2_016CEF93:
 BYTE   VOL   48*PuppetGanon_mvl/mxv
 BYTE   N05  Cs3  v100
 BYTE   N05  Fs3
 BYTE   W06
 BYTE   Cs3
 BYTE   N05  Fs3
 BYTE   W06
 BYTE   Cs3
 BYTE   N05  Fs3
 BYTE   W06
 BYTE   An3  v112
 BYTE   N05  Dn4
 BYTE   W06
 BYTE   Gs3  v116
 BYTE   N05  Cs4
 BYTE   W06
 BYTE   Bn3  v120
 BYTE   N05  En4
 BYTE   W06
 BYTE   Gs3
 BYTE   N05  Cs4
 BYTE   W06
 BYTE   Cs4  v116
 BYTE   N05  Fs4
 BYTE   W06
 BYTE   An1  v100
 BYTE   N05  An2
 BYTE   W12
 BYTE   An1
 BYTE   N05  An2
 BYTE   W12
 BYTE   An1
 BYTE   N05  An2
 BYTE   W12
 BYTE   An1
 BYTE   N05  An2
 BYTE   W12
 BYTE   PEND 
// 020   ----------------------------------------
PuppetGanon_Label_2_016CEFCD:
 BYTE   N05  Ds3  v120
 BYTE   N05  Gs3
 BYTE   W06
 BYTE   Ds3  v116
 BYTE   N05  Gs3
 BYTE   W06
 BYTE   Ds3  v120
 BYTE   N05  Gs3
 BYTE   W06
 BYTE   Ds3
 BYTE   N05  Gs3
 BYTE   W06
 BYTE   Ds3  v116
 BYTE   N05  Gs3
 BYTE   W06
 BYTE   Ds3
 BYTE   N05  Gs3
 BYTE   W06
 BYTE   Ds3
 BYTE   N05  Gs3
 BYTE   W06
 BYTE   Ds3  v112
 BYTE   N05  Gs3
 BYTE   W06
 BYTE   Dn3  v116
 BYTE   N05  Gn3
 BYTE   W06
 BYTE   Dn3  v120
 BYTE   N05  Gn3
 BYTE   W06
 BYTE   Dn3
 BYTE   N05  Gn3
 BYTE   W06
 BYTE   Dn3  v116
 BYTE   N05  Gn3
 BYTE   W06
 BYTE   Dn3  v120
 BYTE   N05  Gn3
 BYTE   W06
 BYTE   Dn3
 BYTE   N05  Gn3
 BYTE   W06
 BYTE   Dn3
 BYTE   N05  Gn3
 BYTE   W06
 BYTE   Dn3
 BYTE   N05  Gn3
 BYTE   W06
 BYTE   PEND 
 BYTE   PATT
  POIN2 PuppetGanon_Label_2_016CEF93
 BYTE   PATT
  POIN2 PuppetGanon_Label_2_016CEFCD
// 021   ----------------------------------------
 BYTE   GoTo
  POIN2 PuppetGanon_Label_2_016CEC35
 BYTE   FINE

//**************** Track 4 (Midi-Chn.3) ****************//

PuppetGanon_004:
// 000   ----------------------------------------
 BYTE   KEYSH   PuppetGanon_key+0
 BYTE   VOICE   48
 BYTE   VOL   33*PuppetGanon_mvl/mxv
 BYTE   W96
// 001   ----------------------------------------
 BYTE   N04  Cs4  v100
 BYTE   W06
 BYTE   Dn4
 BYTE   W06
 BYTE   Cs4
 BYTE   W06
 BYTE   Dn4
 BYTE   W06
 BYTE   Cs4
 BYTE   W06
 BYTE   Dn4
 BYTE   W06
 BYTE   Cs4
 BYTE   W06
 BYTE   Dn4
 BYTE   W06
 BYTE   Cs4
 BYTE   N04  Gn4
 BYTE   W06
 BYTE   Dn4
 BYTE   N03  Gs4
 BYTE   W06
 BYTE   N04  Cs4
 BYTE   N04  Gn4
 BYTE   W06
 BYTE   Dn4
 BYTE   N03  Gs4
 BYTE   W06
 BYTE   N04  Cs4
 BYTE   N04  Gn4
 BYTE   W06
 BYTE   Dn4
 BYTE   N03  Gs4
 BYTE   W06
 BYTE   N04  Cs4
 BYTE   N04  Gn4
 BYTE   W06
 BYTE   Dn4
 BYTE   N03  Gs4
 BYTE   W06
// 002   ----------------------------------------
PuppetGanon_Label_3_016CF064:
 BYTE   W96
// 003   ----------------------------------------
 BYTE   W96
// 004   ----------------------------------------
 BYTE   W96
// 005   ----------------------------------------
 BYTE   W96
// 006   ----------------------------------------
 BYTE   W96
// 007   ----------------------------------------
 BYTE   W96
// 008   ----------------------------------------
 BYTE   W96
// 009   ----------------------------------------
 BYTE   W96
// 010   ----------------------------------------
 BYTE   W96
// 011   ----------------------------------------
 BYTE   W96
// 012   ----------------------------------------
 BYTE   W96
// 013   ----------------------------------------
 BYTE   W96
// 014   ----------------------------------------
 BYTE   W96
// 015   ----------------------------------------
 BYTE   W96
// 016   ----------------------------------------
 BYTE   W96
// 017   ----------------------------------------
 BYTE   W96
// 018   ----------------------------------------
 BYTE   W96
// 019   ----------------------------------------
 BYTE   W96
// 020   ----------------------------------------
 BYTE   W96
// 021   ----------------------------------------
 BYTE   W96
// 022   ----------------------------------------
 BYTE   W96
// 023   ----------------------------------------
 BYTE   W96
// 024   ----------------------------------------
 BYTE   W96
// 025   ----------------------------------------
 BYTE   W96
// 026   ----------------------------------------
 BYTE   W96
// 027   ----------------------------------------
 BYTE   GoTo
  POIN2 PuppetGanon_Label_3_016CF064
 BYTE   FINE

//**************** Track 5 (Midi-Chn.4) ****************//

PuppetGanon_005:
// 000   ----------------------------------------
 BYTE   KEYSH   PuppetGanon_key+0
 BYTE   VOICE   58
 BYTE   VOL   38*PuppetGanon_mvl/mxv
 BYTE   W96
// 001   ----------------------------------------
 BYTE   N06  Cs2  v100
 BYTE   W06
 BYTE   N04  Dn2
 BYTE   W06
 BYTE   N06  Cs2
 BYTE   W06
 BYTE   N04  Dn2
 BYTE   W06
 BYTE   N06  Cs2
 BYTE   W06
 BYTE   N04  Dn2
 BYTE   W06
 BYTE   N06  Cs2
 BYTE   W06
 BYTE   N04  Dn2
 BYTE   W06
 BYTE   N06  Cs2
 BYTE   W06
 BYTE   N04  Dn2
 BYTE   W06
 BYTE   N06  Cs2
 BYTE   W06
 BYTE   N04  Dn2
 BYTE   W06
 BYTE   N06  Cs2
 BYTE   W06
 BYTE   N04  Dn2
 BYTE   W06
 BYTE   N06  Cs2
 BYTE   W06
 BYTE   N04  Dn2
 BYTE   W06
// 002   ----------------------------------------
PuppetGanon_Label_4_016CF0BC:
 BYTE   VOL   46*PuppetGanon_mvl/mxv
 BYTE   N06  Fs0  v100
 BYTE   W12
 BYTE   N06
 BYTE   W12
 BYTE   N06
 BYTE   W12
 BYTE   N06
 BYTE   W12
 BYTE   N06
 BYTE   W12
 BYTE   N06
 BYTE   W12
 BYTE   N06
 BYTE   W12
 BYTE   N06
 BYTE   W12
 BYTE   PEND 
// 003   ----------------------------------------
PuppetGanon_Label_4_016CF0D1:
 BYTE   N06  Fs0  v100
 BYTE   W12
 BYTE   N06
 BYTE   W12
 BYTE   N06
 BYTE   W12
 BYTE   N06
 BYTE   W12
 BYTE   N06
 BYTE   W12
 BYTE   N06
 BYTE   W12
 BYTE   N06
 BYTE   W12
 BYTE   N06
 BYTE   W12
 BYTE   PEND 
 BYTE   PATT
  POIN2 PuppetGanon_Label_4_016CF0BC
 BYTE   PATT
  POIN2 PuppetGanon_Label_4_016CF0D1
// 004   ----------------------------------------
 BYTE   N11  Cs1  v100
 BYTE   W12
 BYTE   N11
 BYTE   W12
 BYTE   N11
 BYTE   W12
 BYTE   N11
 BYTE   W60
// 005   ----------------------------------------
 BYTE   W96
// 006   ----------------------------------------
 BYTE   W96
 BYTE   PATT
  POIN2 PuppetGanon_Label_4_016CF0BC
 BYTE   PATT
  POIN2 PuppetGanon_Label_4_016CF0D1
// 007   ----------------------------------------
 BYTE   VOL   46*PuppetGanon_mvl/mxv
 BYTE   N06  Fn0  v100
 BYTE   W12
 BYTE   N06
 BYTE   W12
 BYTE   N06
 BYTE   W12
 BYTE   N06
 BYTE   W12
 BYTE   Fs0
 BYTE   W12
 BYTE   N06
 BYTE   W12
 BYTE   N06
 BYTE   W12
 BYTE   N06
 BYTE   W12
// 008   ----------------------------------------
 BYTE   Gs0
 BYTE   W12
 BYTE   N06
 BYTE   W12
 BYTE   N06
 BYTE   W12
 BYTE   N06
 BYTE   W12
 BYTE   As0
 BYTE   W12
 BYTE   N06
 BYTE   W12
 BYTE   N06
 BYTE   W12
 BYTE   N06
 BYTE   W12
// 009   ----------------------------------------
 BYTE   W96
// 010   ----------------------------------------
 BYTE   W96
// 011   ----------------------------------------
 BYTE   W96
// 012   ----------------------------------------
 BYTE   W96
// 013   ----------------------------------------
 BYTE   W96
// 014   ----------------------------------------
 BYTE   W96
// 015   ----------------------------------------
 BYTE   W96
// 016   ----------------------------------------
 BYTE   W96
// 017   ----------------------------------------
 BYTE   W96
// 018   ----------------------------------------
 BYTE   W96
// 019   ----------------------------------------
PuppetGanon_Label_4_016CF132:
 BYTE   VOL   46*PuppetGanon_mvl/mxv
 BYTE   W48
 BYTE   N06  An1  v100
 BYTE   W12
 BYTE   N06
 BYTE   W12
 BYTE   N06
 BYTE   W12
 BYTE   N06
 BYTE   W12
 BYTE   PEND 
// 020   ----------------------------------------
 BYTE   W96
 BYTE   PATT
  POIN2 PuppetGanon_Label_4_016CF132
// 021   ----------------------------------------
 BYTE   W96
// 022   ----------------------------------------
 BYTE   GoTo
  POIN2 PuppetGanon_Label_4_016CF0BC
 BYTE   FINE

//**************** Track 6 (Midi-Chn.5) ****************//

PuppetGanon_006:
// 000   ----------------------------------------
 BYTE   KEYSH   PuppetGanon_key+0
 BYTE   VOICE   11
 BYTE   VOL   38*PuppetGanon_mvl/mxv
 BYTE   W96
// 001   ----------------------------------------
 BYTE   W48
 BYTE   N03  Gn4  v100
 BYTE   N03  Gs4
 BYTE   W06
 BYTE   Gn4  v004
 BYTE   N03  Gs4  v100
 BYTE   W06
 BYTE   Gn4
 BYTE   N03  Gs4
 BYTE   W06
 BYTE   Gn4  v004
 BYTE   N03  Gs4  v100
 BYTE   W06
 BYTE   Gn4
 BYTE   N03  Gs4
 BYTE   W06
 BYTE   Gn4  v004
 BYTE   N03  Gs4  v100
 BYTE   W06
 BYTE   Gn4
 BYTE   N03  Gs4
 BYTE   W06
 BYTE   Gn4  v004
 BYTE   N03  Gs4  v100
 BYTE   W06
// 002   ----------------------------------------
PuppetGanon_Label_5_016CF182:
 BYTE   W96
// 003   ----------------------------------------
 BYTE   W96
// 004   ----------------------------------------
PuppetGanon_Label_5_016CF184:
 BYTE   VOL   33*PuppetGanon_mvl/mxv
 BYTE   N03  Fs5  v100
 BYTE   W03
 BYTE   Cs5
 BYTE   W03
 BYTE   Fs5
 BYTE   W03
 BYTE   Cs5
 BYTE   W03
 BYTE   Fs5
 BYTE   W03
 BYTE   Cs5
 BYTE   W03
 BYTE   Fs5
 BYTE   W03
 BYTE   Cs5
 BYTE   W03
 BYTE   Fs5
 BYTE   W03
 BYTE   Cs5
 BYTE   W03
 BYTE   Fs5
 BYTE   W03
 BYTE   Cs5
 BYTE   W03
 BYTE   Fs5
 BYTE   W03
 BYTE   Cs5
 BYTE   W03
 BYTE   Fs5
 BYTE   W03
 BYTE   Cs5
 BYTE   W03
 BYTE   Fn5
 BYTE   W03
 BYTE   Cs5
 BYTE   W03
 BYTE   Fn5
 BYTE   W03
 BYTE   Cs5
 BYTE   W03
 BYTE   Fn5
 BYTE   W03
 BYTE   Cs5
 BYTE   W03
 BYTE   Fn5
 BYTE   W03
 BYTE   Cs5
 BYTE   W03
 BYTE   Fn5
 BYTE   W03
 BYTE   Cs5
 BYTE   W03
 BYTE   Fn5
 BYTE   W03
 BYTE   Cs5
 BYTE   W03
 BYTE   Fn5
 BYTE   W03
 BYTE   Cs5
 BYTE   W03
 BYTE   Fn5
 BYTE   W03
 BYTE   N02  Cs5
 BYTE   W03
 BYTE   PEND 
// 005   ----------------------------------------
PuppetGanon_Label_5_016CF1CA:
 BYTE   N03  En5  v100
 BYTE   W03
 BYTE   An4
 BYTE   W03
 BYTE   En5
 BYTE   W03
 BYTE   An4
 BYTE   W03
 BYTE   En5
 BYTE   W03
 BYTE   An4
 BYTE   W03
 BYTE   En5
 BYTE   W03
 BYTE   An4
 BYTE   W03
 BYTE   En5
 BYTE   W03
 BYTE   An4
 BYTE   W03
 BYTE   En5
 BYTE   W03
 BYTE   An4
 BYTE   W03
 BYTE   En5
 BYTE   W03
 BYTE   An4
 BYTE   W03
 BYTE   En5
 BYTE   W03
 BYTE   An4
 BYTE   W03
 BYTE   En5
 BYTE   W03
 BYTE   An4
 BYTE   W03
 BYTE   En5
 BYTE   W03
 BYTE   An4
 BYTE   W03
 BYTE   En5
 BYTE   W03
 BYTE   An4
 BYTE   W03
 BYTE   En5
 BYTE   W03
 BYTE   An4
 BYTE   W03
 BYTE   En5
 BYTE   W03
 BYTE   An4
 BYTE   W03
 BYTE   En5
 BYTE   W03
 BYTE   An4
 BYTE   W03
 BYTE   En5
 BYTE   W03
 BYTE   An4
 BYTE   W03
 BYTE   En5
 BYTE   W03
 BYTE   An4
 BYTE   W03
 BYTE   PEND 
// 006   ----------------------------------------
 BYTE   W96
// 007   ----------------------------------------
 BYTE   W96
// 008   ----------------------------------------
 BYTE   VOL   33*PuppetGanon_mvl/mxv
 BYTE   N02  Cs4
 BYTE   W03
 BYTE   N02
 BYTE   W03
 BYTE   N02
 BYTE   W06
 BYTE   N02
 BYTE   W03
 BYTE   N02
 BYTE   W03
 BYTE   N02
 BYTE   W06
 BYTE   N02
 BYTE   W03
 BYTE   N02
 BYTE   W03
 BYTE   N02
 BYTE   W06
 BYTE   N02
 BYTE   W03
 BYTE   N02
 BYTE   W03
 BYTE   N02
 BYTE   W06
 BYTE   N02
 BYTE   N02  Gs4
 BYTE   W03
 BYTE   Cs4
 BYTE   N02  Gs4
 BYTE   W03
 BYTE   Cs4
 BYTE   N02  Gs4
 BYTE   W06
 BYTE   Cs4
 BYTE   N02  Gs4
 BYTE   W03
 BYTE   Cs4
 BYTE   N02  Gs4
 BYTE   W03
 BYTE   Cs4
 BYTE   N02  Gs4
 BYTE   W06
 BYTE   Cs4
 BYTE   N02  Gs4
 BYTE   W03
 BYTE   Cs4
 BYTE   N02  Gs4
 BYTE   W03
 BYTE   Cs4
 BYTE   N02  Gs4
 BYTE   W06
 BYTE   Cs4
 BYTE   N02  Gs4
 BYTE   W03
 BYTE   Cs4
 BYTE   N02  Gs4
 BYTE   W03
 BYTE   Cs4
 BYTE   N02  Gs4
 BYTE   W06
 BYTE   PATT
  POIN2 PuppetGanon_Label_5_016CF184
 BYTE   PATT
  POIN2 PuppetGanon_Label_5_016CF1CA
// 009   ----------------------------------------
 BYTE   VOL   28*PuppetGanon_mvl/mxv
 BYTE   N03  Cs5  v100
 BYTE   W03
 BYTE   Gs4
 BYTE   W03
 BYTE   Cs5
 BYTE   W03
 BYTE   Gs4
 BYTE   W03
 BYTE   Cs5
 BYTE   W03
 BYTE   Gs4
 BYTE   W03
 BYTE   Cs5
 BYTE   W03
 BYTE   Gs4
 BYTE   W03
 BYTE   Cs5
 BYTE   W03
 BYTE   Gs4
 BYTE   W03
 BYTE   Cs5
 BYTE   W03
 BYTE   Gs4
 BYTE   W03
 BYTE   Cs5
 BYTE   W03
 BYTE   Gs4
 BYTE   W03
 BYTE   Cs5
 BYTE   W03
 BYTE   Gs4
 BYTE   W03
 BYTE   Dn5
 BYTE   W03
 BYTE   Gs4
 BYTE   W03
 BYTE   Dn5
 BYTE   W03
 BYTE   Gs4
 BYTE   W03
 BYTE   Dn5
 BYTE   W03
 BYTE   Gs4
 BYTE   W03
 BYTE   Dn5
 BYTE   W03
 BYTE   Gs4
 BYTE   W03
 BYTE   Dn5
 BYTE   W03
 BYTE   Gs4
 BYTE   W03
 BYTE   Dn5
 BYTE   W03
 BYTE   Gs4
 BYTE   W03
 BYTE   Dn5
 BYTE   W03
 BYTE   Gs4
 BYTE   W03
 BYTE   Dn5
 BYTE   W03
 BYTE   N02  Gs4
 BYTE   W03
// 010   ----------------------------------------
 BYTE   N03  Ds5
 BYTE   W03
 BYTE   Gs4
 BYTE   W03
 BYTE   Ds5
 BYTE   W03
 BYTE   Gs4
 BYTE   W03
 BYTE   Ds5
 BYTE   W03
 BYTE   Gs4
 BYTE   W03
 BYTE   Ds5
 BYTE   W03
 BYTE   Gs4
 BYTE   W03
 BYTE   Ds5
 BYTE   W03
 BYTE   Gs4
 BYTE   W03
 BYTE   Ds5
 BYTE   W03
 BYTE   Gs4
 BYTE   W03
 BYTE   Ds5
 BYTE   W03
 BYTE   Gs4
 BYTE   W03
 BYTE   Ds5
 BYTE   W03
 BYTE   Gs4
 BYTE   W03
 BYTE   Fn5
 BYTE   W03
 BYTE   Gs4
 BYTE   W03
 BYTE   Fn5
 BYTE   W03
 BYTE   Gs4
 BYTE   W03
 BYTE   Fn5
 BYTE   W03
 BYTE   Gs4
 BYTE   W03
 BYTE   Fn5
 BYTE   W03
 BYTE   Gs4
 BYTE   W03
 BYTE   Fn5
 BYTE   W03
 BYTE   Gs4
 BYTE   W03
 BYTE   Fn5
 BYTE   W03
 BYTE   Gs4
 BYTE   W03
 BYTE   Fn5
 BYTE   W03
 BYTE   Gs4
 BYTE   W03
 BYTE   Fn5
 BYTE   W03
 BYTE   Gs4
 BYTE   W03
// 011   ----------------------------------------
 BYTE   W96
// 012   ----------------------------------------
 BYTE   W96
// 013   ----------------------------------------
 BYTE   W96
// 014   ----------------------------------------
 BYTE   W96
// 015   ----------------------------------------
 BYTE   W96
// 016   ----------------------------------------
 BYTE   W96
// 017   ----------------------------------------
 BYTE   W96
// 018   ----------------------------------------
 BYTE   W96
// 019   ----------------------------------------
 BYTE   W96
// 020   ----------------------------------------
 BYTE   W96
// 021   ----------------------------------------
PuppetGanon_Label_5_016CF2F4:
 BYTE   VOL   38*PuppetGanon_mvl/mxv
 BYTE   N03  Cs4  v100
 BYTE   N03  Fs4
 BYTE   W12
 BYTE   Cs4
 BYTE   N03  Fs4
 BYTE   W12
 BYTE   Cs4
 BYTE   N03  Fs4
 BYTE   W12
 BYTE   Cs4
 BYTE   N03  Fs4
 BYTE   W12
 BYTE   Cs4
 BYTE   N03  Fs4
 BYTE   W06
 BYTE   Cs4
 BYTE   N03  Fs4
 BYTE   W06
 BYTE   Cs4
 BYTE   N03  Fs4
 BYTE   W06
 BYTE   An4
 BYTE   N03  Dn5
 BYTE   W06
 BYTE   Gs4
 BYTE   N03  Cs5
 BYTE   W06
 BYTE   Bn4
 BYTE   N03  En5
 BYTE   W06
 BYTE   Gs4
 BYTE   N03  Cs5
 BYTE   W06
 BYTE   N03
 BYTE   N03  Fs5
 BYTE   W06
 BYTE   PEND 
// 022   ----------------------------------------
PuppetGanon_Label_5_016CF329:
 BYTE   N03  Cs4  v100
 BYTE   N03  Fs4
 BYTE   W12
 BYTE   Cs4
 BYTE   N03  Fs4
 BYTE   W12
 BYTE   Cs4
 BYTE   N03  Fs4
 BYTE   W12
 BYTE   Cs4
 BYTE   N03  Fs4
 BYTE   W12
 BYTE   Cs4
 BYTE   N03  Fs4
 BYTE   W12
 BYTE   Cs4
 BYTE   N03  Fs4
 BYTE   W12
 BYTE   Cs4
 BYTE   N03  Fs4
 BYTE   W12
 BYTE   Cs4
 BYTE   N03  Fs4
 BYTE   W12
 BYTE   PEND 
 BYTE   PATT
  POIN2 PuppetGanon_Label_5_016CF2F4
 BYTE   PATT
  POIN2 PuppetGanon_Label_5_016CF329
// 023   ----------------------------------------
 BYTE   GoTo
  POIN2 PuppetGanon_Label_5_016CF182
 BYTE   FINE

//**************** Track 7 (Midi-Chn.6) ****************//

PuppetGanon_007:
// 000   ----------------------------------------
 BYTE   KEYSH   PuppetGanon_key+0
 BYTE   VOICE   46
 BYTE   VOL   40*PuppetGanon_mvl/mxv
 BYTE   W96
// 001   ----------------------------------------
 BYTE   W96
// 002   ----------------------------------------
PuppetGanon_Label_6_016CF364:
 BYTE   W96
// 003   ----------------------------------------
 BYTE   W96
// 004   ----------------------------------------
 BYTE   W96
// 005   ----------------------------------------
 BYTE   W72
 BYTE   N03  Fs3  v100
 BYTE   W03
 BYTE   Gs3
 BYTE   W03
 BYTE   Cn4
 BYTE   W03
 BYTE   Ds4  v060
 BYTE   W03
 BYTE   Fs4  v100
 BYTE   W03
 BYTE   Gs4
 BYTE   W03
 BYTE   Cn5
 BYTE   W03
 BYTE   Ds5
 BYTE   W03
// 006   ----------------------------------------
 BYTE   Cs5
 BYTE   W48
 BYTE   Cs6  v096
 BYTE   W03
 BYTE   Cn6  v092
 BYTE   W03
 BYTE   Gs5
 BYTE   W03
 BYTE   Fn5  v088
 BYTE   W03
 BYTE   Cs5
 BYTE   W03
 BYTE   Cn5  v084
 BYTE   W03
 BYTE   Gs4  v080
 BYTE   W03
 BYTE   Fn4
 BYTE   W03
 BYTE   Cs4  v076
 BYTE   W03
 BYTE   Cn4  v072
 BYTE   W03
 BYTE   Gs3
 BYTE   W03
 BYTE   Fn3  v068
 BYTE   W03
 BYTE   Cs3  v064
 BYTE   W03
 BYTE   Cn3  v060
 BYTE   W03
 BYTE   Gs2  v056
 BYTE   W03
 BYTE   Fn2  v052
 BYTE   W03
// 007   ----------------------------------------
 BYTE   W48
 BYTE   Cn6  v092
 BYTE   W03
 BYTE   Bn5
 BYTE   W03
 BYTE   Gn5
 BYTE   W03
 BYTE   En5  v088
 BYTE   W03
 BYTE   Cn5  v084
 BYTE   W03
 BYTE   Bn4
 BYTE   W03
 BYTE   Gn4  v080
 BYTE   W03
 BYTE   En4  v076
 BYTE   W03
 BYTE   Cn4
 BYTE   W03
 BYTE   Bn3  v072
 BYTE   W03
 BYTE   Gn3
 BYTE   W03
 BYTE   En3  v068
 BYTE   W03
 BYTE   Cn3  v064
 BYTE   W03
 BYTE   Bn2
 BYTE   W03
 BYTE   Gn2  v060
 BYTE   W03
 BYTE   En2
 BYTE   W03
// 008   ----------------------------------------
 BYTE   W96
// 009   ----------------------------------------
 BYTE   W96
// 010   ----------------------------------------
 BYTE   W96
// 011   ----------------------------------------
 BYTE   W96
// 012   ----------------------------------------
 BYTE   W72
 BYTE   Dn3  v100
 BYTE   W03
 BYTE   En3
 BYTE   W03
 BYTE   Fn3
 BYTE   W03
 BYTE   As3
 BYTE   W03
 BYTE   Dn4
 BYTE   W03
 BYTE   En4
 BYTE   W03
 BYTE   Fn4
 BYTE   W03
 BYTE   As4
 BYTE   W03
// 013   ----------------------------------------
 BYTE   W96
// 014   ----------------------------------------
 BYTE   W96
// 015   ----------------------------------------
 BYTE   W96
// 016   ----------------------------------------
 BYTE   W96
// 017   ----------------------------------------
 BYTE   W96
// 018   ----------------------------------------
 BYTE   W96
// 019   ----------------------------------------
 BYTE   W96
// 020   ----------------------------------------
 BYTE   W96
// 021   ----------------------------------------
 BYTE   W96
// 022   ----------------------------------------
 BYTE   W96
// 023   ----------------------------------------
 BYTE   W96
// 024   ----------------------------------------
 BYTE   W96
// 025   ----------------------------------------
 BYTE   W96
// 026   ----------------------------------------
 BYTE   W96
// 027   ----------------------------------------
 BYTE   GoTo
  POIN2 PuppetGanon_Label_6_016CF364
 BYTE   FINE

//**************** Track 8 (Midi-Chn.7) ****************//

PuppetGanon_008:
// 000   ----------------------------------------
 BYTE   KEYSH   PuppetGanon_key+0
 BYTE   VOICE   60
 BYTE   VOL   32*PuppetGanon_mvl/mxv
 BYTE   PAN   c_v+31
 BYTE   W96
// 001   ----------------------------------------
 BYTE   W96
// 002   ----------------------------------------
PuppetGanon_Label_7_016CF40A:
 BYTE   W01
 BYTE   N06  Fs1  v100
 BYTE   N22  Cs4
 BYTE   W06
 BYTE   N05  Gn1
 BYTE   W06
 BYTE   N06  Fs1
 BYTE   W06
 BYTE   N05  Gn1
 BYTE   W06
 BYTE   N06  Fs1
 BYTE   N10  En4
 BYTE   W06
 BYTE   N05  Gn1
 BYTE   W06
 BYTE   N06  Fs1
 BYTE   N04  En4
 BYTE   W06
 BYTE   N05  Gn1
 BYTE   N04  Ds4
 BYTE   W06
 BYTE   N06  Fs1
 BYTE   N22  Cs4
 BYTE   W06
 BYTE   N05  Gn1
 BYTE   W06
 BYTE   N06  Fs1
 BYTE   W06
 BYTE   N05  Gn1
 BYTE   W06
 BYTE   N06  Fs1
 BYTE   N22  En4
 BYTE   W06
 BYTE   N05  Gn1
 BYTE   W06
 BYTE   N06  Fs1
 BYTE   W06
 BYTE   N05  Gn1
 BYTE   W05
// 003   ----------------------------------------
PuppetGanon_Label_7_016CF448:
 BYTE   W01
 BYTE   N06  Fs1  v100
 BYTE   N22  Cs4
 BYTE   W06
 BYTE   N05  Gn1
 BYTE   W06
 BYTE   N06  Fs1
 BYTE   W06
 BYTE   N05  Gn1
 BYTE   W06
 BYTE   N06  Fs1
 BYTE   N10  En4
 BYTE   W06
 BYTE   N05  Gn1
 BYTE   W06
 BYTE   N06  Fs1
 BYTE   N04  En4
 BYTE   W06
 BYTE   N05  Gn1
 BYTE   N04  Ds4
 BYTE   W06
 BYTE   N06  Fs1
 BYTE   N44  Cs4
 BYTE   W06
 BYTE   N05  Gn1
 BYTE   W06
 BYTE   N06  Fs1
 BYTE   W06
 BYTE   N05  Gn1
 BYTE   W06
 BYTE   N06  Fs1
 BYTE   W06
 BYTE   N05  Gn1
 BYTE   W06
 BYTE   N06  Fs1
 BYTE   W06
 BYTE   N05  Gn1
 BYTE   W05
 BYTE   PEND 
// 004   ----------------------------------------
PuppetGanon_Label_7_016CF485:
 BYTE   W01
 BYTE   VOL   32*PuppetGanon_mvl/mxv
 BYTE   PAN   c_v+31
 BYTE   N06  Fs1  v100
 BYTE   N22  Cs4
 BYTE   W06
 BYTE   N05  Gn1
 BYTE   W06
 BYTE   N06  Fs1
 BYTE   W06
 BYTE   N05  Gn1
 BYTE   W06
 BYTE   N06  Fs1
 BYTE   N10  En4
 BYTE   W06
 BYTE   N05  Gn1
 BYTE   W06
 BYTE   N06  Fs1
 BYTE   N04  En4
 BYTE   W06
 BYTE   N05  Gn1
 BYTE   N04  Ds4
 BYTE   W06
 BYTE   N06  Fs1
 BYTE   N22  Cs4
 BYTE   W06
 BYTE   N05  Gn1
 BYTE   W06
 BYTE   N06  Fs1
 BYTE   W06
 BYTE   N05  Gn1
 BYTE   W06
 BYTE   N06  Fs1
 BYTE   N22  En4
 BYTE   W06
 BYTE   N05  Gn1
 BYTE   W06
 BYTE   N06  Fs1
 BYTE   W06
 BYTE   N05  Gn1
 BYTE   W05
 BYTE   PEND 
 BYTE   PATT
  POIN2 PuppetGanon_Label_7_016CF448
// 005   ----------------------------------------
 BYTE   W96
// 006   ----------------------------------------
 BYTE   W96
// 007   ----------------------------------------
 BYTE   W96
 BYTE   PATT
  POIN2 PuppetGanon_Label_7_016CF485
 BYTE   PATT
  POIN2 PuppetGanon_Label_7_016CF448
// 008   ----------------------------------------
 BYTE   W01
 BYTE   VOL   32*PuppetGanon_mvl/mxv
 BYTE   PAN   c_v+31
 BYTE   N06  Fn1  v100
 BYTE   N22  As3
 BYTE   W06
 BYTE   N05  Fs1
 BYTE   W06
 BYTE   N06  Fn1
 BYTE   W06
 BYTE   N05  Fs1
 BYTE   W06
 BYTE   N06  Fn1
 BYTE   N10  Cs4
 BYTE   W06
 BYTE   N05  Fs1
 BYTE   W06
 BYTE   N06  Fn1
 BYTE   N04  Cs4
 BYTE   W06
 BYTE   N05  Fs1
 BYTE   N04  Bn3
 BYTE   W06
 BYTE   N06  Fn1
 BYTE   N22  As3
 BYTE   W06
 BYTE   N05  Fs1
 BYTE   W06
 BYTE   N06  Fn1
 BYTE   W06
 BYTE   N05  Fs1
 BYTE   W06
 BYTE   N06  Fn1
 BYTE   N22  Cs4
 BYTE   W06
 BYTE   N05  Fs1
 BYTE   W06
 BYTE   N06  Fn1
 BYTE   W06
 BYTE   N05  Fs1
 BYTE   W05
// 009   ----------------------------------------
 BYTE   W01
 BYTE   N06  Fn1
 BYTE   N22  As3
 BYTE   W06
 BYTE   N05  Fs1
 BYTE   W06
 BYTE   N06  Fn1
 BYTE   W06
 BYTE   N05  Fs1
 BYTE   W06
 BYTE   N06  Fn1
 BYTE   N10  Cs4
 BYTE   W06
 BYTE   N05  Fs1
 BYTE   W06
 BYTE   N06  Fn1
 BYTE   N04  Cs4
 BYTE   W06
 BYTE   N05  Fs1
 BYTE   N04  Bn3
 BYTE   W06
 BYTE   N06  Fn1
 BYTE   N48  As3
 BYTE   W06
 BYTE   N05  Fs1
 BYTE   W06
 BYTE   N06  Fn1
 BYTE   W06
 BYTE   N05  Fs1
 BYTE   W06
 BYTE   N06  Fn1
 BYTE   W06
 BYTE   N05  Fs1
 BYTE   W06
 BYTE   N06  Fn1
 BYTE   W06
 BYTE   N05  Fs1
 BYTE   W05
// 010   ----------------------------------------
 BYTE   W96
// 011   ----------------------------------------
 BYTE   W96
// 012   ----------------------------------------
PuppetGanon_Label_7_016CF559:
 BYTE   W01
 BYTE   VOL   35*PuppetGanon_mvl/mxv
 BYTE   PAN   c_v-14
 BYTE   W24
 BYTE   N48  Gs3  v100
 BYTE   W48
 BYTE   Cs3
 BYTE   W23
 BYTE   PEND 
// 013   ----------------------------------------
 BYTE   W24
 BYTE   W01
 BYTE   As3
 BYTE   W48
 BYTE   N24  Ds3
 BYTE   W23
// 014   ----------------------------------------
 BYTE   W01
 BYTE   VOL   38*PuppetGanon_mvl/mxv
 BYTE   PAN   c_v-14
 BYTE   W24
 BYTE   N48  Fs3  v127
 BYTE   W48
 BYTE   N24  Cs3
 BYTE   W23
// 015   ----------------------------------------
 BYTE   W01
 BYTE   Cn3
 BYTE   W24
 BYTE   N48  Fs3
 BYTE   W48
 BYTE   N24  Cs3
 BYTE   W23
 BYTE   PATT
  POIN2 PuppetGanon_Label_7_016CF559
// 016   ----------------------------------------
 BYTE   W24
 BYTE   W01
 BYTE   N48  As3  v100
 BYTE   W48
 BYTE   N24  Dn4
 BYTE   W23
// 017   ----------------------------------------
 BYTE   W01
 BYTE   VOL   46*PuppetGanon_mvl/mxv
 BYTE   PAN   c_v-14
 BYTE   N09  Gn4
 BYTE   W12
 BYTE   N09
 BYTE   W12
 BYTE   Fs4
 BYTE   W12
 BYTE   N09
 BYTE   W12
 BYTE   Dn4
 BYTE   W12
 BYTE   N09
 BYTE   W12
 BYTE   Cs4
 BYTE   W12
 BYTE   N09
 BYTE   W11
// 018   ----------------------------------------
 BYTE   W01
 BYTE   Gn3
 BYTE   W12
 BYTE   N09
 BYTE   W12
 BYTE   Fs3
 BYTE   W12
 BYTE   N09
 BYTE   W12
 BYTE   Dn3
 BYTE   W12
 BYTE   N09
 BYTE   W12
 BYTE   Cs3
 BYTE   W12
 BYTE   N09
 BYTE   W11
// 019   ----------------------------------------
 BYTE   W48
 BYTE   W01
 BYTE   N06
 BYTE   N06  Fs3
 BYTE   W12
 BYTE   Cs3
 BYTE   N06  Fs3
 BYTE   W12
 BYTE   Cs3
 BYTE   N06  Fs3
 BYTE   W12
 BYTE   Cs3
 BYTE   N06  Fs3
 BYTE   W11
// 020   ----------------------------------------
PuppetGanon_Label_7_016CF5CA:
 BYTE   W01
 BYTE   N09  Ds3  v100
 BYTE   W12
 BYTE   N09
 BYTE   W12
 BYTE   N09
 BYTE   W12
 BYTE   N09
 BYTE   W12
 BYTE   Dn3
 BYTE   W12
 BYTE   N09
 BYTE   W12
 BYTE   N09
 BYTE   W12
 BYTE   N09
 BYTE   W11
 BYTE   PEND 
// 021   ----------------------------------------
 BYTE   W01
 BYTE   VOL   38*PuppetGanon_mvl/mxv
 BYTE   PAN   c_v-14
 BYTE   W48
 BYTE   N06  Cs3
 BYTE   N06  Fs3
 BYTE   W12
 BYTE   Cs3
 BYTE   N06  Fs3
 BYTE   W12
 BYTE   Cs3
 BYTE   N06  Fs3
 BYTE   W12
 BYTE   Cs3
 BYTE   N06  Fs3
 BYTE   W11
 BYTE   PATT
  POIN2 PuppetGanon_Label_7_016CF5CA
// 022   ----------------------------------------
 BYTE   GoTo
  POIN2 PuppetGanon_Label_7_016CF40A
 BYTE   FINE

//**************** Track 9 (Midi-Chn.8) ****************//

PuppetGanon_009:
// 000   ----------------------------------------
 BYTE   KEYSH   PuppetGanon_key+0
 BYTE   VOICE   47
 BYTE   VOL   40*PuppetGanon_mvl/mxv
 BYTE   W96
// 001   ----------------------------------------
 BYTE   W96
// 002   ----------------------------------------
PuppetGanon_Label_8_016CF608:
 BYTE   N06  Cs1  v100
 BYTE   W12
 BYTE   N06
 BYTE   W12
 BYTE   N06
 BYTE   W12
 BYTE   N06
 BYTE   W12
 BYTE   N06
 BYTE   W12
 BYTE   N06
 BYTE   W12
 BYTE   N06
 BYTE   W12
 BYTE   N06
 BYTE   W12
 BYTE   PEND 
 BYTE   PATT
  POIN2 PuppetGanon_Label_8_016CF608
 BYTE   PATT
  POIN2 PuppetGanon_Label_8_016CF608
 BYTE   PATT
  POIN2 PuppetGanon_Label_8_016CF608
// 003   ----------------------------------------
 BYTE   N06  Cs1  v127
 BYTE   W12
 BYTE   N06
 BYTE   W12
 BYTE   N06
 BYTE   W12
 BYTE   N06
 BYTE   W12
 BYTE   N02  Gs1  v112
 BYTE   W03
 BYTE   N02
 BYTE   W03
 BYTE   N02
 BYTE   W06
 BYTE   N03  Ds1
 BYTE   W06
 BYTE   N03
 BYTE   W06
 BYTE   N02
 BYTE   W03
 BYTE   N02
 BYTE   W03
 BYTE   N18  Gs1
 BYTE   W18
// 004   ----------------------------------------
 BYTE   N06  Cn1  v127
 BYTE   W12
 BYTE   N06
 BYTE   W12
 BYTE   N06
 BYTE   W12
 BYTE   N06
 BYTE   W12
 BYTE   N02  Gn1  v084
 BYTE   W03
 BYTE   Gn1  v088
 BYTE   W03
 BYTE   N02
 BYTE   W06
 BYTE   N03  Dn1
 BYTE   W06
 BYTE   Dn1  v084
 BYTE   W06
 BYTE   N02
 BYTE   W03
 BYTE   N02
 BYTE   W03
 BYTE   Gn1  v088
 BYTE   W18
// 005   ----------------------------------------
 BYTE   N06  Gs1  v100
 BYTE   W12
 BYTE   N06
 BYTE   W12
 BYTE   N06
 BYTE   W12
 BYTE   N06
 BYTE   W12
 BYTE   N06
 BYTE   W12
 BYTE   N06
 BYTE   W12
 BYTE   N06
 BYTE   W12
 BYTE   N06
 BYTE   W12
 BYTE   PATT
  POIN2 PuppetGanon_Label_8_016CF608
 BYTE   PATT
  POIN2 PuppetGanon_Label_8_016CF608
// 006   ----------------------------------------
PuppetGanon_Label_8_016CF684:
 BYTE   N06  Cn1  v100
 BYTE   W12
 BYTE   N06
 BYTE   W12
 BYTE   N06
 BYTE   W12
 BYTE   N06
 BYTE   W12
 BYTE   N06
 BYTE   W12
 BYTE   N06
 BYTE   W12
 BYTE   N06
 BYTE   W12
 BYTE   N06
 BYTE   W12
 BYTE   PEND 
 BYTE   PATT
  POIN2 PuppetGanon_Label_8_016CF684
// 007   ----------------------------------------
PuppetGanon_Label_8_016CF69C:
 BYTE   N06  Bn1  v100
 BYTE   W12
 BYTE   Fs1
 BYTE   W12
 BYTE   Bn1
 BYTE   W12
 BYTE   Fs1
 BYTE   W12
 BYTE   Bn1
 BYTE   W12
 BYTE   Fs1
 BYTE   W12
 BYTE   Bn1
 BYTE   W12
 BYTE   Fs1
 BYTE   W12
 BYTE   PEND 
 BYTE   PATT
  POIN2 PuppetGanon_Label_8_016CF69C
// 008   ----------------------------------------
 BYTE   VOL   38*PuppetGanon_mvl/mxv
 BYTE   N06  Fs1  v100
 BYTE   W12
 BYTE   N06
 BYTE   W12
 BYTE   N06
 BYTE   W12
 BYTE   N06
 BYTE   W12
 BYTE   N06
 BYTE   W12
 BYTE   N06
 BYTE   W12
 BYTE   N06
 BYTE   W12
 BYTE   N06
 BYTE   W12
// 009   ----------------------------------------
PuppetGanon_Label_8_016CF6C8:
 BYTE   N06  Fs1  v100
 BYTE   W12
 BYTE   N06
 BYTE   W12
 BYTE   N06
 BYTE   W12
 BYTE   N06
 BYTE   W12
 BYTE   N06
 BYTE   W12
 BYTE   N06
 BYTE   W12
 BYTE   N06
 BYTE   W12
 BYTE   N06
 BYTE   W12
 BYTE   PEND 
// 010   ----------------------------------------
PuppetGanon_Label_8_016CF6DB:
 BYTE   N05  Gn1  v100
 BYTE   W06
 BYTE   N05
 BYTE   W06
 BYTE   N05
 BYTE   W06
 BYTE   N05
 BYTE   W06
 BYTE   N05
 BYTE   W06
 BYTE   N05
 BYTE   W06
 BYTE   N05
 BYTE   W06
 BYTE   N05
 BYTE   W06
 BYTE   N05
 BYTE   W06
 BYTE   N05
 BYTE   W06
 BYTE   N05
 BYTE   W06
 BYTE   N05
 BYTE   W06
 BYTE   N05
 BYTE   W06
 BYTE   N05
 BYTE   W06
 BYTE   N05
 BYTE   W06
 BYTE   N05
 BYTE   W06
 BYTE   PEND 
 BYTE   PATT
  POIN2 PuppetGanon_Label_8_016CF6DB
 BYTE   PATT
  POIN2 PuppetGanon_Label_8_016CF6C8
 BYTE   PATT
  POIN2 PuppetGanon_Label_8_016CF6C8
 BYTE   PATT
  POIN2 PuppetGanon_Label_8_016CF6DB
 BYTE   PATT
  POIN2 PuppetGanon_Label_8_016CF6DB
// 011   ----------------------------------------
PuppetGanon_Label_8_016CF717:
 BYTE   N06  Gn1  v100
 BYTE   W18
 BYTE   N06
 BYTE   W18
 BYTE   N06
 BYTE   W12
 BYTE   N06
 BYTE   W48
 BYTE   PEND 
 BYTE   PATT
  POIN2 PuppetGanon_Label_8_016CF717
 BYTE   PATT
  POIN2 PuppetGanon_Label_8_016CF717
 BYTE   PATT
  POIN2 PuppetGanon_Label_8_016CF717
// 012   ----------------------------------------
 BYTE   GoTo
  POIN2 PuppetGanon_Label_8_016CF608
 BYTE   FINE

//**************** Track 10 (Midi-Chn.9) ****************//

PuppetGanon_010:
// 000   ----------------------------------------
 BYTE   KEYSH   PuppetGanon_key+0
 BYTE   VOICE   60
 BYTE   VOL   24*PuppetGanon_mvl/mxv
 BYTE   PAN   c_v+31
 BYTE   W96
// 001   ----------------------------------------
 BYTE   W96
// 002   ----------------------------------------
PuppetGanon_Label_9_016CF742:
 BYTE   W96
// 003   ----------------------------------------
 BYTE   W96
// 004   ----------------------------------------
 BYTE   W96
// 005   ----------------------------------------
 BYTE   W96
// 006   ----------------------------------------
 BYTE   W96
// 007   ----------------------------------------
 BYTE   W96
// 008   ----------------------------------------
 BYTE   W96
// 009   ----------------------------------------
 BYTE   W96
// 010   ----------------------------------------
 BYTE   W96
// 011   ----------------------------------------
 BYTE   N44  As3  v100
 BYTE   N48  Cs4
 BYTE   W48
 BYTE   N44  As3
 BYTE   N48  Dn4
 BYTE   W48
// 012   ----------------------------------------
 BYTE   N44  As3
 BYTE   N48  Ds4
 BYTE   W48
 BYTE   N44  As3
 BYTE   N48  Fn4
 BYTE   W48
// 013   ----------------------------------------
 BYTE   W96
// 014   ----------------------------------------
 BYTE   W96
// 015   ----------------------------------------
 BYTE   W96
// 016   ----------------------------------------
 BYTE   W96
// 017   ----------------------------------------
 BYTE   W96
// 018   ----------------------------------------
 BYTE   W96
// 019   ----------------------------------------
 BYTE   W96
// 020   ----------------------------------------
 BYTE   W96
// 021   ----------------------------------------
 BYTE   W96
// 022   ----------------------------------------
 BYTE   W96
// 023   ----------------------------------------
 BYTE   W96
// 024   ----------------------------------------
 BYTE   W96
// 025   ----------------------------------------
 BYTE   W96
// 026   ----------------------------------------
 BYTE   W96
// 027   ----------------------------------------
 BYTE   GoTo
  POIN2 PuppetGanon_Label_9_016CF742
 BYTE   FINE

//**************** Track 11 (Midi-Chn.10) ****************//

PuppetGanon_011:
// 000   ----------------------------------------
 BYTE   KEYSH   PuppetGanon_key+0
 BYTE   VOICE   127
 BYTE   VOL   38*PuppetGanon_mvl/mxv
 BYTE   W96
// 001   ----------------------------------------
 BYTE   N06  Fs2  v100
 BYTE   W12
 BYTE   N06
 BYTE   W12
 BYTE   N06
 BYTE   W12
 BYTE   N06
 BYTE   W12
 BYTE   N06
 BYTE   W12
 BYTE   N06
 BYTE   W12
 BYTE   N06
 BYTE   W12
 BYTE   N06
 BYTE   W12
// 002   ----------------------------------------
PuppetGanon_Label_10_016CF78D:
 BYTE   VOL   30*PuppetGanon_mvl/mxv
 BYTE   N06  Cs2  v127
 BYTE   N06  Ds2
 BYTE   N06  En2
 BYTE   N06  Fs2  v100
 BYTE   N06  An2  v127
 BYTE   N06  Bn2
 BYTE   W12
 BYTE   Fs2  v100
 BYTE   W12
 BYTE   N06
 BYTE   W12
 BYTE   N06
 BYTE   W12
 BYTE   N06
 BYTE   W12
 BYTE   N06
 BYTE   W09
 BYTE   N01
 BYTE   W01
 BYTE   N01
 BYTE   W02
 BYTE   N03
 BYTE   W12
 BYTE   N06
 BYTE   W12
 BYTE   PEND 
// 003   ----------------------------------------
PuppetGanon_Label_10_016CF7B3:
 BYTE   N06  Fs2  v100
 BYTE   W12
 BYTE   N06
 BYTE   W12
 BYTE   N06
 BYTE   W12
 BYTE   N06
 BYTE   W12
 BYTE   N06
 BYTE   W12
 BYTE   N06
 BYTE   W09
 BYTE   N01
 BYTE   W01
 BYTE   N01
 BYTE   W02
 BYTE   N03
 BYTE   W12
 BYTE   N06
 BYTE   W12
 BYTE   PEND 
 BYTE   PATT
  POIN2 PuppetGanon_Label_10_016CF78D
 BYTE   PATT
  POIN2 PuppetGanon_Label_10_016CF7B3
// 004   ----------------------------------------
 BYTE   VOL   25*PuppetGanon_mvl/mxv
 BYTE   N06  Cs2  v127
 BYTE   N06  Ds2
 BYTE   N06  En2
 BYTE   N06  An2
 BYTE   N06  Bn2
 BYTE   W96
// 005   ----------------------------------------
 BYTE   Cs2
 BYTE   N06  Ds2
 BYTE   N06  En2
 BYTE   N06  An2
 BYTE   N06  Bn2
 BYTE   W96
 BYTE   PATT
  POIN2 PuppetGanon_Label_10_016CF7B3
 BYTE   PATT
  POIN2 PuppetGanon_Label_10_016CF78D
 BYTE   PATT
  POIN2 PuppetGanon_Label_10_016CF7B3
 BYTE   PATT
  POIN2 PuppetGanon_Label_10_016CF78D
 BYTE   PATT
  POIN2 PuppetGanon_Label_10_016CF7B3
// 006   ----------------------------------------
PuppetGanon_Label_10_016CF805:
 BYTE   N06  Cs2  v127
 BYTE   N06  Ds2
 BYTE   N06  En2
 BYTE   N06  An2
 BYTE   N06  Bn2
 BYTE   W06
 BYTE   Fs2
 BYTE   W12
 BYTE   N06
 BYTE   W12
 BYTE   N06
 BYTE   W09
 BYTE   N03
 BYTE   W15
 BYTE   N06
 BYTE   W12
 BYTE   N06
 BYTE   W12
 BYTE   N06
 BYTE   W09
 BYTE   N03
 BYTE   W09
 BYTE   PEND 
// 007   ----------------------------------------
 BYTE   W06
 BYTE   N06
 BYTE   W12
 BYTE   N06
 BYTE   W12
 BYTE   N06
 BYTE   W09
 BYTE   N03
 BYTE   W15
 BYTE   N06  Fs2  v080
 BYTE   W12
 BYTE   Fs2  v076
 BYTE   W12
 BYTE   Fs2  v080
 BYTE   W09
 BYTE   N03  Fs2  v076
 BYTE   W09
// 008   ----------------------------------------
 BYTE   W06
 BYTE   N06  Fs2  v096
 BYTE   W12
 BYTE   Fs2  v092
 BYTE   W12
 BYTE   Fs2  v076
 BYTE   W09
 BYTE   N03  Fs2  v072
 BYTE   W15
 BYTE   N06  Fs2  v092
 BYTE   W12
 BYTE   Fs2  v088
 BYTE   W12
 BYTE   Fs2  v072
 BYTE   W09
 BYTE   N03  Fs2  v064
 BYTE   W09
// 009   ----------------------------------------
PuppetGanon_Label_10_016CF856:
 BYTE   W06
 BYTE   N06  Fs2  v088
 BYTE   W12
 BYTE   Fs2  v092
 BYTE   W12
 BYTE   Fs2  v072
 BYTE   W09
 BYTE   N03  Fs2  v064
 BYTE   W15
 BYTE   N06  Fs2  v092
 BYTE   W12
 BYTE   N06
 BYTE   W12
 BYTE   Fs2  v072
 BYTE   W09
 BYTE   N03  Fs2  v064
 BYTE   W09
 BYTE   PEND 
 BYTE   PATT
  POIN2 PuppetGanon_Label_10_016CF805
// 010   ----------------------------------------
PuppetGanon_Label_10_016CF878:
 BYTE   W06
 BYTE   N06  Fs2  v127
 BYTE   W12
 BYTE   N06
 BYTE   W12
 BYTE   N06
 BYTE   W09
 BYTE   N03
 BYTE   W15
 BYTE   N06
 BYTE   W12
 BYTE   N06
 BYTE   W12
 BYTE   N06
 BYTE   W09
 BYTE   N03
 BYTE   W09
 BYTE   PEND 
// 011   ----------------------------------------
 BYTE   VOL   28*PuppetGanon_mvl/mxv
 BYTE   W06
 BYTE   N06  Fs2  v096
 BYTE   W12
 BYTE   Fs2  v092
 BYTE   W12
 BYTE   Fs2  v076
 BYTE   W09
 BYTE   N03  Fs2  v072
 BYTE   W15
 BYTE   N06  Fs2  v092
 BYTE   W12
 BYTE   Fs2  v088
 BYTE   W12
 BYTE   Fs2  v072
 BYTE   W09
 BYTE   N03  Fs2  v064
 BYTE   W09
 BYTE   PATT
  POIN2 PuppetGanon_Label_10_016CF856
 BYTE   PATT
  POIN2 PuppetGanon_Label_10_016CF805
 BYTE   PATT
  POIN2 PuppetGanon_Label_10_016CF878
 BYTE   PATT
  POIN2 PuppetGanon_Label_10_016CF805
 BYTE   PATT
  POIN2 PuppetGanon_Label_10_016CF878
 BYTE   PATT
  POIN2 PuppetGanon_Label_10_016CF805
 BYTE   PATT
  POIN2 PuppetGanon_Label_10_016CF878
// 012   ----------------------------------------
 BYTE   GoTo
  POIN2 PuppetGanon_Label_10_016CF78D
 BYTE   FINE

//******************************************************//
	ALIGN 4

songPuppetGanon:
	BYTE	11	// NumTrks
	BYTE	0	// NumBlks
	BYTE	PuppetGanon_pri	// Priority
	BYTE	PuppetGanon_rev	// Reverb.
    
	POIN2	PuppetGanon_grp
    
	POIN2	PuppetGanon_001
	POIN2	PuppetGanon_002
	POIN2	PuppetGanon_003
	POIN2	PuppetGanon_004
	POIN2	PuppetGanon_005
	POIN2	PuppetGanon_006
	POIN2	PuppetGanon_007
	POIN2	PuppetGanon_008
	POIN2	PuppetGanon_009
	POIN2	PuppetGanon_010
	POIN2	PuppetGanon_011

	
