//Event file generated from Sappy .s format.
	#include "MPlayDef.event"

	#define	songRestOfTheHeart_grp  voicegroup000
	#define	songRestOfTheHeart_pri  0
	#define	songRestOfTheHeart_rev  0
	#define	songRestOfTheHeart_mvl  127
	#define	songRestOfTheHeart_key  0
	#define	songRestOfTheHeart_tbs  1
	#define	songRestOfTheHeart_exg  0
	#define	songRestOfTheHeart_cmp  1

	// .rodata
	//	songRestOfTheHeart
	ALIGN 4


//**************** Track 1 (Midi-Chn.0) ****************//

songRestOfTheHeart_001:
// 000   ----------------------------------------
 BYTE   KEYSH   songRestOfTheHeart_key+0
Label_0_01035EC6:
 BYTE   TEMPO   240*songRestOfTheHeart_tbs/2
 BYTE   VOICE   64
 BYTE   MODT 0
 BYTE   CnM2
 BYTE   LFOS 0
 BYTE   Gs1
 BYTE   MODT 0
 BYTE   CnM2
 BYTE   LFOS 0
 BYTE   Gs1
 BYTE   PAN   c_v+0
 BYTE   VOL   11*songRestOfTheHeart_mvl/mxv
 BYTE   W18
 BYTE   Gs0
 BYTE   W06
 BYTE   TEMPO   110*songRestOfTheHeart_tbs/2
 BYTE   N12  An3  v127
 BYTE   W12
 BYTE   Bn3
 BYTE   W12
 BYTE   N24  Cs4
 BYTE   W24
 BYTE   Dn4
 BYTE   W24
// 001   ----------------------------------------
Label_0_01035EE6:
 BYTE   N24  En4  v127
 BYTE   W24
 BYTE   N12  Dn4
 BYTE   W12
 BYTE   Cs4
 BYTE   W12
 BYTE   N72  Bn3
 BYTE   W48
 BYTE   PEND 
// 002   ----------------------------------------
 BYTE   W24
 BYTE   N12  Fs3
 BYTE   W12
 BYTE   Gs3
 BYTE   W12
 BYTE   N24  An3
 BYTE   W24
 BYTE   Fs3
 BYTE   W24
// 003   ----------------------------------------
 BYTE   Dn4
 BYTE   W24
 BYTE   N12  Cs4
 BYTE   W12
 BYTE   Bn3
 BYTE   W12
 BYTE   N48  Cs4
 BYTE   W48
// 004   ----------------------------------------
 BYTE   N24  Bn3
 BYTE   W24
 BYTE   N12  An3
 BYTE   W12
 BYTE   Bn3
 BYTE   W12
 BYTE   N24  Cs4
 BYTE   W24
 BYTE   Dn4
 BYTE   W24
 BYTE   PATT
  POIN2 Label_0_01035EE6
// 005   ----------------------------------------
 BYTE   W24
 BYTE   N12  An3  v127
 BYTE   W12
 BYTE   Gs3
 BYTE   W12
 BYTE   N24  Fs3
 BYTE   W24
 BYTE   An3
 BYTE   W24
// 006   ----------------------------------------
 BYTE   Dn4
 BYTE   W24
 BYTE   N12  Cs4
 BYTE   W12
 BYTE   Bn3
 BYTE   W12
 BYTE   N96  An3
 BYTE   W48
// 007   ----------------------------------------
 BYTE   W96
// 008   ----------------------------------------
 BYTE   W96
// 009   ----------------------------------------
 BYTE   W96
// 010   ----------------------------------------
 BYTE   W96
// 011   ----------------------------------------
 BYTE   W96
// 012   ----------------------------------------
 BYTE   W96
// 013   ----------------------------------------
 BYTE   W96
// 014   ----------------------------------------
 BYTE   W92
 BYTE   W01
 BYTE   GoTo
  POIN2 Label_0_01035EC6
// 015   ----------------------------------------
 BYTE   W03
 BYTE   FINE

//**************** Track 2 (Midi-Chn.1) ****************//

songRestOfTheHeart_002:
// 000   ----------------------------------------
 BYTE   KEYSH   songRestOfTheHeart_key+0
Label_1_01035F42:
 BYTE   VOICE   14
 BYTE   MODT 0
 BYTE   CnM2
 BYTE   LFOS 0
 BYTE   Gs1
 BYTE   MODT 0
 BYTE   CnM2
 BYTE   LFOS 0
 BYTE   Gs1
 BYTE   PAN   c_v+0
 BYTE   VOL   0*songRestOfTheHeart_mvl/mxv
 BYTE   W18
 BYTE   Cn0
 BYTE   W30
 BYTE   N48  An4  v127
 BYTE   W48
// 001   ----------------------------------------
Label_1_01035F57:
 BYTE   N48  An4  v127
 BYTE   W48
 BYTE   En4
 BYTE   W48
 BYTE   PEND 
// 002   ----------------------------------------
Label_1_01035F5E:
 BYTE   N48  En4  v127
 BYTE   W48
 BYTE   Dn4
 BYTE   W48
 BYTE   PEND 
// 003   ----------------------------------------
 BYTE   N48
 BYTE   W48
 BYTE   Cs4
 BYTE   W48
// 004   ----------------------------------------
 BYTE   En4
 BYTE   W48
 BYTE   An4
 BYTE   W48
 BYTE   PATT
  POIN2 Label_1_01035F57
 BYTE   PATT
  POIN2 Label_1_01035F5E
// 005   ----------------------------------------
 BYTE   N96  En4  v127
 BYTE   W96
// 006   ----------------------------------------
Label_1_01035F7B:
 BYTE   N72  Cs4  v127
 BYTE   W72
 BYTE   N24  Gn4
 BYTE   W24
 BYTE   PEND 
// 007   ----------------------------------------
Label_1_01035F83:
 BYTE   N72  Cs4  v127
 BYTE   W72
 BYTE   N24  En4
 BYTE   W24
 BYTE   PEND 
// 008   ----------------------------------------
 BYTE   N72  Bn3
 BYTE   W72
 BYTE   N24  Gn4
 BYTE   W24
// 009   ----------------------------------------
 BYTE   N72  Cs4
 BYTE   W72
 BYTE   N24  An4
 BYTE   W24
 BYTE   PATT
  POIN2 Label_1_01035F7B
 BYTE   PATT
  POIN2 Label_1_01035F83
// 010   ----------------------------------------
 BYTE   N72  Bn3  v127
 BYTE   W72
 BYTE   N24  Dn4
 BYTE   W24
// 011   ----------------------------------------
 BYTE   Gs3
 BYTE   W24
 BYTE   An3
 BYTE   W24
 BYTE   N48  Bn3
 BYTE   W44
 BYTE   W01
 BYTE   GoTo
  POIN2 Label_1_01035F42
// 012   ----------------------------------------
 BYTE   W03
 BYTE   FINE

//**************** Track 3 (Midi-Chn.2) ****************//

songRestOfTheHeart_003:
// 000   ----------------------------------------
 BYTE   KEYSH   songRestOfTheHeart_key+0
Label_2_01035FBA:
 BYTE   VOICE   46
 BYTE   MODT 0
 BYTE   CnM2
 BYTE   LFOS 0
 BYTE   Gs1
 BYTE   MODT 0
 BYTE   CnM2
 BYTE   LFOS 0
 BYTE   Gs1
 BYTE   PAN   c_v+0
 BYTE   VOL   0*songRestOfTheHeart_mvl/mxv
 BYTE   W18
 BYTE   GsM2
 BYTE   W30
 BYTE   N12  An3  v127
 BYTE   W12
 BYTE   En4
 BYTE   W12
 BYTE   An4
 BYTE   W12
 BYTE   En4
 BYTE   W12
// 001   ----------------------------------------
Label_2_01035FD5:
 BYTE   N12  Cs4  v127
 BYTE   W12
 BYTE   En4
 BYTE   W12
 BYTE   An3
 BYTE   W12
 BYTE   Cs4
 BYTE   W12
 BYTE   En3
 BYTE   W12
 BYTE   Gs3
 BYTE   W12
 BYTE   En4
 BYTE   W12
 BYTE   Bn3
 BYTE   W12
 BYTE   PEND 
// 002   ----------------------------------------
 BYTE   Gs3
 BYTE   W12
 BYTE   Bn3
 BYTE   W12
 BYTE   En3
 BYTE   W12
 BYTE   Gs3
 BYTE   W12
 BYTE   Dn3
 BYTE   W12
 BYTE   Fs3
 BYTE   W12
 BYTE   Dn4
 BYTE   W12
 BYTE   An3
 BYTE   W12
// 003   ----------------------------------------
 BYTE   Fs3
 BYTE   W12
 BYTE   An3
 BYTE   W12
 BYTE   Dn3
 BYTE   W12
 BYTE   Fs3
 BYTE   W12
 BYTE   En3
 BYTE   W12
 BYTE   An3
 BYTE   W12
 BYTE   An4
 BYTE   W12
 BYTE   En4
 BYTE   W12
// 004   ----------------------------------------
 BYTE   En3
 BYTE   W12
 BYTE   An3
 BYTE   W12
 BYTE   En4
 BYTE   W12
 BYTE   Bn3
 BYTE   W12
 BYTE   An3
 BYTE   W12
 BYTE   En4
 BYTE   W12
 BYTE   An4
 BYTE   W12
 BYTE   En4
 BYTE   W12
 BYTE   PATT
  POIN2 Label_2_01035FD5
// 005   ----------------------------------------
 BYTE   N12  Gs3  v127
 BYTE   W12
 BYTE   Bn3
 BYTE   W12
 BYTE   En3
 BYTE   W12
 BYTE   Gs3
 BYTE   W12
 BYTE   Dn3
 BYTE   W12
 BYTE   Fs3
 BYTE   W12
 BYTE   An3
 BYTE   W12
 BYTE   Fs3
 BYTE   W12
// 006   ----------------------------------------
 BYTE   En3
 BYTE   W12
 BYTE   Gs3
 BYTE   W12
 BYTE   En4
 BYTE   W12
 BYTE   Cs4
 BYTE   W12
 BYTE   En3
 BYTE   W12
 BYTE   Cs4
 BYTE   W12
 BYTE   En4
 BYTE   W12
 BYTE   Cs4
 BYTE   W12
// 007   ----------------------------------------
 BYTE   En4
 BYTE   W12
 BYTE   N12
 BYTE   W12
 BYTE   Cs4
 BYTE   W12
 BYTE   En4
 BYTE   W12
 BYTE   Fs3
 BYTE   W12
 BYTE   Fs4
 BYTE   W12
 BYTE   Cs4
 BYTE   W12
 BYTE   An3
 BYTE   W12
// 008   ----------------------------------------
 BYTE   Cs4
 BYTE   W12
 BYTE   An3
 BYTE   W12
 BYTE   Fs3
 BYTE   W12
 BYTE   An3
 BYTE   W12
 BYTE   En3
 BYTE   W12
 BYTE   En4
 BYTE   W12
 BYTE   Bn3
 BYTE   W12
 BYTE   Gs3
 BYTE   W12
// 009   ----------------------------------------
 BYTE   Bn3
 BYTE   W12
 BYTE   En3
 BYTE   W12
 BYTE   Gs3
 BYTE   W12
 BYTE   Bn3
 BYTE   W12
 BYTE   Dn3
 BYTE   W12
 BYTE   Dn4
 BYTE   W12
 BYTE   An3
 BYTE   W12
 BYTE   Fs3
 BYTE   W12
// 010   ----------------------------------------
 BYTE   En3
 BYTE   W12
 BYTE   Gs3
 BYTE   W12
 BYTE   Bn3
 BYTE   W12
 BYTE   En4
 BYTE   W12
 BYTE   Cs3
 BYTE   W12
 BYTE   Cs4
 BYTE   W12
 BYTE   An3
 BYTE   W12
 BYTE   En3
 BYTE   W12
// 011   ----------------------------------------
 BYTE   Gs3
 BYTE   W12
 BYTE   En3
 BYTE   W12
 BYTE   Fs3
 BYTE   W12
 BYTE   Gs3
 BYTE   W12
 BYTE   Fs3
 BYTE   W12
 BYTE   Fs4
 BYTE   W12
 BYTE   Cs4
 BYTE   W12
 BYTE   An3
 BYTE   W12
// 012   ----------------------------------------
 BYTE   Cs4
 BYTE   W12
 BYTE   An3
 BYTE   W12
 BYTE   Fs3
 BYTE   W12
 BYTE   An3
 BYTE   W12
 BYTE   Fs3
 BYTE   W12
 BYTE   Fs4
 BYTE   W12
 BYTE   Ds4
 BYTE   W12
 BYTE   Bn3
 BYTE   W12
// 013   ----------------------------------------
 BYTE   Ds4
 BYTE   W12
 BYTE   Bn3
 BYTE   W12
 BYTE   Fs3
 BYTE   W12
 BYTE   Bn3
 BYTE   W12
 BYTE   Dn3
 BYTE   W12
 BYTE   Dn4
 BYTE   W12
 BYTE   An3
 BYTE   W12
 BYTE   Fs3
 BYTE   W12
// 014   ----------------------------------------
 BYTE   An3
 BYTE   W12
 BYTE   Fs3
 BYTE   W12
 BYTE   An3
 BYTE   W12
 BYTE   Dn4
 BYTE   W12
 BYTE   En3
 BYTE   W12
 BYTE   Gs3
 BYTE   W12
 BYTE   Bn3
 BYTE   W12
 BYTE   En4
 BYTE   W09
 BYTE   GoTo
  POIN2 Label_2_01035FBA
// 015   ----------------------------------------
 BYTE   W03
 BYTE   FINE

//**************** Track 4 (Midi-Chn.3) ****************//

songRestOfTheHeart_004:
// 000   ----------------------------------------
 BYTE   KEYSH   songRestOfTheHeart_key+0
Label_3_010360CA:
 BYTE   VOICE   48
 BYTE   MODT 0
 BYTE   CnM2
 BYTE   LFOS 0
 BYTE   Gs1
 BYTE   MODT 0
 BYTE   CnM2
 BYTE   LFOS 0
 BYTE   Gs1
 BYTE   PAN   c_v+0
 BYTE   VOL   0*songRestOfTheHeart_mvl/mxv
 BYTE   W18
 BYTE   CnM1
 BYTE   W30
 BYTE   N96  En4  v127
 BYTE   W48
// 001   ----------------------------------------
 BYTE   W48
 BYTE   N96
 BYTE   W48
// 002   ----------------------------------------
 BYTE   W48
 BYTE   Dn4
 BYTE   W48
// 003   ----------------------------------------
 BYTE   W48
 BYTE   N48  En4
 BYTE   W48
// 004   ----------------------------------------
 BYTE   Dn4
 BYTE   W48
 BYTE   N96  En4
 BYTE   W48
// 005   ----------------------------------------
 BYTE   W48
 BYTE   N96
 BYTE   W48
// 006   ----------------------------------------
 BYTE   W48
 BYTE   N48  Dn4
 BYTE   W48
// 007   ----------------------------------------
 BYTE   En4
 BYTE   W48
 BYTE   N96  An4
 BYTE   W48
// 008   ----------------------------------------
 BYTE   W48
 BYTE   VOL   0*songRestOfTheHeart_mvl/mxv
 BYTE   N72  Cs5
 BYTE   W48
// 009   ----------------------------------------
 BYTE   W24
 BYTE   N12  Bn4
 BYTE   W12
 BYTE   An4
 BYTE   W12
 BYTE   N48  Gs4
 BYTE   W48
// 010   ----------------------------------------
 BYTE   N24  En4
 BYTE   W24
 BYTE   N12  Dn4
 BYTE   W12
 BYTE   En4
 BYTE   W12
 BYTE   N48  Fs4
 BYTE   W48
// 011   ----------------------------------------
 BYTE   N24  En4
 BYTE   W24
 BYTE   Dn4
 BYTE   W24
 BYTE   N72  En4
 BYTE   W48
// 012   ----------------------------------------
 BYTE   W24
 BYTE   N24  Dn4
 BYTE   W24
 BYTE   N48  Cs4
 BYTE   W48
// 013   ----------------------------------------
 BYTE   An4
 BYTE   W48
 BYTE   Gs4
 BYTE   W48
// 014   ----------------------------------------
 BYTE   Fs4
 BYTE   W48
 BYTE   N96  En4
 BYTE   W48
// 015   ----------------------------------------
 BYTE   W48
 BYTE   N48
 BYTE   W44
 BYTE   W01
 BYTE   GoTo
  POIN2 Label_3_010360CA
// 016   ----------------------------------------
 BYTE   W03
 BYTE   FINE

//**************** Track 5 (Midi-Chn.4) ****************//

songRestOfTheHeart_005:
// 000   ----------------------------------------
 BYTE   KEYSH   songRestOfTheHeart_key+0
Label_4_0103613A:
 BYTE   VOICE   33
 BYTE   MODT 0
 BYTE   CnM2
 BYTE   LFOS 0
 BYTE   Gs1
 BYTE   MODT 0
 BYTE   CnM2
 BYTE   LFOS 0
 BYTE   Gs1
 BYTE   PAN   c_v+0
 BYTE   VOL   25*songRestOfTheHeart_mvl/mxv
 BYTE   W18
 BYTE   Fn3
 BYTE   W30
 BYTE   N96  An1  v127
 BYTE   W48
// 001   ----------------------------------------
 BYTE   W48
 BYTE   En1
 BYTE   W48
// 002   ----------------------------------------
 BYTE   W48
 BYTE   Dn1
 BYTE   W48
// 003   ----------------------------------------
 BYTE   W48
 BYTE   N48  An1
 BYTE   W48
// 004   ----------------------------------------
 BYTE   En1
 BYTE   W48
 BYTE   N96  An1
 BYTE   W48
// 005   ----------------------------------------
 BYTE   W48
 BYTE   En1
 BYTE   W48
// 006   ----------------------------------------
 BYTE   W48
 BYTE   N48  Dn1
 BYTE   W48
// 007   ----------------------------------------
 BYTE   En1
 BYTE   W48
 BYTE   N72  An1
 BYTE   W48
// 008   ----------------------------------------
 BYTE   W24
 BYTE   N24  Gs1
 BYTE   W24
 BYTE   N96  Fs1
 BYTE   W48
// 009   ----------------------------------------
 BYTE   W48
 BYTE   En1
 BYTE   W48
// 010   ----------------------------------------
 BYTE   W48
 BYTE   N48  Dn1
 BYTE   W48
// 011   ----------------------------------------
 BYTE   En1
 BYTE   W48
 BYTE   An1
 BYTE   W48
// 012   ----------------------------------------
 BYTE   Gs1
 BYTE   W48
 BYTE   N96  Fs1
 BYTE   W48
// 013   ----------------------------------------
 BYTE   W48
 BYTE   Bn1
 BYTE   W48
// 014   ----------------------------------------
 BYTE   W48
 BYTE   Dn1
 BYTE   W48
// 015   ----------------------------------------
 BYTE   W48
 BYTE   N48  En1
 BYTE   W44
 BYTE   W01
 BYTE   GoTo
  POIN2 Label_4_0103613A
// 016   ----------------------------------------
 BYTE   W03
 BYTE   FINE

//******************************************************//
	ALIGN 4

songRestOfTheHeart:
	BYTE	5	// NumTrks
	BYTE	0	// NumBlks
	BYTE	songRestOfTheHeart_pri	// Priority
	BYTE	songRestOfTheHeart_rev	// Reverb.
    
	POIN2	songRestOfTheHeart_grp
    
	POIN2	songRestOfTheHeart_001
	POIN2	songRestOfTheHeart_002
	POIN2	songRestOfTheHeart_003
	POIN2	songRestOfTheHeart_004
	POIN2	songRestOfTheHeart_005

	
