	.include "MPlayDef.s"

	.equ	SatorlMarsh_grp, voicegroup000
	.equ	SatorlMarsh_pri, 10
	.equ	SatorlMarsh_rev, 0
	.equ	SatorlMarsh_mvl, 127
	.equ	SatorlMarsh_key, 0
	.equ	SatorlMarsh_tbs, 1
	.equ	SatorlMarsh_exg, 0
	.equ	SatorlMarsh_cmp, 1

	.section .rodata
	.global	m
	.align	2


@**************** Track 1 (Midi-Chn.0) ****************@

SatorlMarsh_001:
@ 000   ----------------------------------------
SatorlMarsh_Label_0_00:
 .byte   KEYSH , SatorlMarsh_key+0
 .byte   VOICE , 10
 .byte   VOL , 32*SatorlMarsh_mvl/mxv
 .byte   PAN , c_v+0
 .byte   LFOS 44
 .byte   MODT 0
 .byte   TEMPO , 114*SatorlMarsh_tbs/2
 .byte   BENDR, 12
 .byte   BENDR, 12
 .byte   N12 ,As5 ,v031
 .byte   N24 ,As1
 .byte   W12
 .byte   N11 ,Ds5 ,v027
 .byte   W11
 .byte   Fn5 ,v029
 .byte   N24 ,Fn2
 .byte   W11
 .byte   N11 ,Ds5 ,v026
 .byte   W11
 .byte   N96 ,Cs3
 .byte   N11 ,As5
 .byte   N96 ,Fn3 ,v019
 .byte   N96 ,As3
 .byte   W01
 .byte   N01 ,Cs3 ,v026
 .byte   W10
 .byte   N11 ,Ds5
 .byte   W11
 .byte   TEMPO , 114*SatorlMarsh_tbs/2
 .byte   N11 ,Fn5 ,v026
 .byte   W09
 .byte   TEMPO , 114*SatorlMarsh_tbs/2
 .byte   W03
 .byte   N11 ,Ds5 ,v026
 .byte   W06
 .byte   TEMPO , 114*SatorlMarsh_tbs/2
 .byte   W05
@ 001   ----------------------------------------
 .byte   N11 ,As5 ,v026
 .byte   W03
 .byte   TEMPO , 112*SatorlMarsh_tbs/2
 .byte   W08
 .byte   N11 ,Ds5 ,v026
 .byte   W01
 .byte   TEMPO , 112*SatorlMarsh_tbs/2
 .byte   W09
 .byte   TEMPO , 112*SatorlMarsh_tbs/2
 .byte   W01
 .byte   N11 ,Fn5 ,v026
 .byte   W08
 .byte   TEMPO , 112*SatorlMarsh_tbs/2
 .byte   W03
 .byte   N11 ,Ds5 ,v026
 .byte   W06
 .byte   TEMPO , 110*SatorlMarsh_tbs/2
 .byte   W06
 .byte   N12 ,Gs5 ,v031
 .byte   N96 ,Ds3 ,v019
 .byte   N96 ,Cn3
 .byte   N96 ,Gs3 ,v031
 .byte   W02
 .byte   N48 ,Ds3 ,v019
 .byte   N48 ,Cn3
 .byte   N48 ,Gs3 ,v031
 .byte   W01
 .byte   N02 ,Cn3 ,v019
 .byte   N02 ,Gs3 ,v031
 .byte   N02 ,Ds3 ,v019
 .byte   W02
 .byte   TEMPO , 114*SatorlMarsh_tbs/2
 .byte   W07
 .byte   N11 ,Cs5 ,v027
 .byte   W11
 .byte   Ds5 ,v029
 .byte   W11
 .byte   Cs5 ,v026
 .byte   W12
@ 002   ----------------------------------------
 .byte   Gs5
 .byte   W12
 .byte   Cs5
 .byte   W12
 .byte   Ds5
 .byte   W12
 .byte   Cs5
 .byte   W12
 .byte   Gs5
 .byte   W12
 .byte   Cs5
 .byte   W11
 .byte   Ds5
 .byte   W11
 .byte   Cs5
 .byte   W12
@ 003   ----------------------------------------
 .byte   TEMPO , 114*SatorlMarsh_tbs/2
@ 004   ----------------------------------------
 .byte   BENDR, 12
 .byte   BENDR, 12
 .byte   N12 ,As5 ,v031
 .byte   N24 ,As1
 .byte   W12
 .byte   N11 ,Ds5 ,v027
 .byte   W11
 .byte   Fn5 ,v029
 .byte   N24 ,Fn2
 .byte   W11
 .byte   N11 ,Ds5 ,v026
 .byte   W11
 .byte   N96 ,Cs3
 .byte   N11 ,As5
 .byte   N96 ,As3 ,v019
 .byte   N96 ,Fn3
 .byte   W01
 .byte   N01 ,Cs3 ,v026
 .byte   W10
 .byte   N11 ,Ds5
 .byte   W11
 .byte   TEMPO , 114*SatorlMarsh_tbs/2
 .byte   N11 ,Fn5 ,v026
 .byte   W09
 .byte   TEMPO , 114*SatorlMarsh_tbs/2
 .byte   W03
 .byte   N11 ,Ds5 ,v026
 .byte   W06
 .byte   TEMPO , 114*SatorlMarsh_tbs/2
 .byte   W05
 .byte   N11 ,As5 ,v026
 .byte   W03
 .byte   TEMPO , 112*SatorlMarsh_tbs/2
 .byte   W08
 .byte   N11 ,Ds5 ,v026
 .byte   W01
 .byte   TEMPO , 112*SatorlMarsh_tbs/2
 .byte   W09
 .byte   TEMPO , 112*SatorlMarsh_tbs/2
 .byte   W01
 .byte   N11 ,Fn5 ,v026
 .byte   W08
 .byte   TEMPO , 112*SatorlMarsh_tbs/2
 .byte   W03
 .byte   N11 ,Ds5 ,v026
 .byte   W06
 .byte   TEMPO , 110*SatorlMarsh_tbs/2
 .byte   W06
 .byte   N12 ,Gs5 ,v031
 .byte   N96 ,Ds3 ,v019
 .byte   N96 ,Gs3 ,v031
 .byte   N96 ,Cn3 ,v019
 .byte   W02
 .byte   N48 ,Gs3 ,v031
 .byte   N48 ,Cn3 ,v019
 .byte   N48 ,Ds3
 .byte   W01
 .byte   N02 ,Cn3
 .byte   N02 ,Gs3 ,v031
 .byte   N02 ,Ds3 ,v019
 .byte   W02
 .byte   TEMPO , 114*SatorlMarsh_tbs/2
 .byte   W07
 .byte   N11 ,Cs5 ,v027
 .byte   W11
 .byte   Ds5 ,v029
 .byte   W11
 .byte   Cs5 ,v026
 .byte   W12
 .byte   Gs5
 .byte   W12
 .byte   Cs5
 .byte   W12
 .byte   Ds5
 .byte   W12
 .byte   Cs5
 .byte   W12
 .byte   Gs5
 .byte   W12
 .byte   Cs5
 .byte   W11
 .byte   Ds5
 .byte   W11
 .byte   Cs5
 .byte   W08
 .byte   N54 ,As2 ,v019
 .byte   W01
 .byte   N01
 .byte   N52 ,Fn3
 .byte   W01
 .byte   N01
 .byte   N12 ,As5 ,v031
 .byte   N48 ,As3
 .byte   W01
 .byte   N01
 .byte   W11
 .byte   N11 ,Ds5 ,v027
 .byte   W11
 .byte   Fn5 ,v029
 .byte   W11
 .byte   Ds5 ,v026
 .byte   W12
 .byte   As5
 .byte   N48 ,Fn4 ,v031
 .byte   N48 ,Cs4 ,v019
 .byte   W01
 .byte   N02
 .byte   W11
 .byte   N11 ,Ds5 ,v026
 .byte   W12
 .byte   Fn5
 .byte   W12
 .byte   Ds5
 .byte   W12
 .byte   As5
 .byte   N24 ,Ds4 ,v031
 .byte   N24 ,As3 ,v019
 .byte   N01
 .byte   W11
 .byte   N11 ,Ds5 ,v026
 .byte   W11
 .byte   Fn5
 .byte   N24 ,Cs4 ,v019
 .byte   N24 ,Fn4 ,v031
 .byte   N01 ,Cs4 ,v019
 .byte   W11
 .byte   N11 ,Ds5 ,v026
 .byte   W08
 .byte   N54 ,Gs3 ,v019
 .byte   W01
 .byte   N01
 .byte   N52 ,Ds4
 .byte   W01
 .byte   N01
 .byte   N12 ,Gs5 ,v031
 .byte   N48 ,Gs4
 .byte   W01
 .byte   N01
 .byte   W11
 .byte   N11 ,Cs5 ,v027
 .byte   W11
 .byte   Ds5 ,v029
 .byte   W11
 .byte   Cs5 ,v026
 .byte   W12
 .byte   Gs5
 .byte   N92 ,Cn4 ,v016
 .byte   N96 ,Fn4 ,v027
 .byte   W02
 .byte   N03 ,Cn4 ,v016
 .byte   W10
 .byte   N11 ,Cs5 ,v026
 .byte   W12
 .byte   Ds5
 .byte   W12
 .byte   Cs5
 .byte   W12
 .byte   Gs5
 .byte   W12
 .byte   Cs5
 .byte   W11
 .byte   Ds5
 .byte   W11
 .byte   Cs5
 .byte   W08
 .byte   N54 ,As2 ,v019
 .byte   W01
 .byte   N01
 .byte   N52 ,Fn3
 .byte   W01
 .byte   N01
 .byte   N12 ,As5 ,v031
 .byte   N48 ,As3
 .byte   W01
 .byte   N01
 .byte   W11
 .byte   N11 ,Ds5 ,v027
 .byte   W11
 .byte   Fn5 ,v029
 .byte   W11
 .byte   Ds5 ,v026
 .byte   W12
 .byte   As5
 .byte   N48 ,Fn4 ,v031
 .byte   N48 ,Cs4 ,v019
 .byte   W01
 .byte   N02
 .byte   W11
 .byte   N11 ,Ds5 ,v026
 .byte   W12
 .byte   Fn5
 .byte   W12
 .byte   Ds5
 .byte   W12
 .byte   As5
 .byte   N24 ,Ds4 ,v031
 .byte   N24 ,As3 ,v019
 .byte   N01
 .byte   W11
 .byte   N11 ,Ds5 ,v026
 .byte   W11
 .byte   Fn5
 .byte   N24 ,Cs4 ,v019
 .byte   N24 ,Fn4 ,v031
 .byte   N01 ,Cs4 ,v019
 .byte   W11
 .byte   N11 ,Ds5 ,v026
 .byte   W08
 .byte   N30 ,Gs3 ,v019
 .byte   W02
 .byte   N36 ,Ds4
 .byte   N02
 .byte   W01
 .byte   N12 ,Gs5 ,v031
 .byte   N24 ,Gs4
 .byte   N01
 .byte   W12
 .byte   N11 ,Cs5 ,v027
 .byte   W11
 .byte   N24 ,Fn4 ,v019
 .byte   N24 ,As4 ,v031
 .byte   W11
 .byte   N11 ,Cs5 ,v026
 .byte   W12
 .byte   Gs5
 .byte   N92 ,Cn4 ,v016
 .byte   N96 ,Fn4 ,v027
 .byte   W02
 .byte   N03 ,Cn4 ,v016
 .byte   W10
 .byte   N11 ,Cs5 ,v026
 .byte   W12
 .byte   Ds5
 .byte   W12
 .byte   Cs5
 .byte   W12
 .byte   Gs5
 .byte   W12
 .byte   Cs5
 .byte   W11
 .byte   Ds5
 .byte   W11
 .byte   Cs5
 .byte   W08
 .byte   N54 ,As2 ,v019
 .byte   W01
 .byte   N01
 .byte   N52 ,Fn3
 .byte   W01
 .byte   N01
 .byte   N12 ,As5 ,v031
 .byte   N48 ,As3
 .byte   W01
 .byte   N01
 .byte   W11
 .byte   N11 ,Ds5 ,v027
 .byte   W11
 .byte   Fn5 ,v029
 .byte   W11
 .byte   Ds5 ,v026
 .byte   W12
 .byte   As5
 .byte   N48 ,Fn4 ,v031
 .byte   N48 ,Cs4 ,v019
 .byte   W01
 .byte   N02
 .byte   W11
 .byte   N11 ,Ds5 ,v026
 .byte   W12
 .byte   Fn5
 .byte   W12
 .byte   Ds5
 .byte   W12
 .byte   As5
 .byte   N24 ,Ds4 ,v031
 .byte   N24 ,As3 ,v019
 .byte   N01
 .byte   W11
 .byte   N11 ,Ds5 ,v026
 .byte   W11
 .byte   Fn5
 .byte   N24 ,Cs4 ,v019
 .byte   N24 ,Fn4 ,v031
 .byte   N01 ,Cs4 ,v019
 .byte   W11
 .byte   N11 ,Ds5 ,v026
 .byte   W08
 .byte   N30 ,Gs3 ,v019
 .byte   W02
 .byte   N36 ,Ds4
 .byte   N02
 .byte   W01
 .byte   N12 ,Gs5 ,v031
 .byte   N24 ,Gs4
 .byte   N01
 .byte   W12
 .byte   N11 ,Cs5 ,v027
 .byte   W11
 .byte   N24 ,Fn4 ,v019
 .byte   N24 ,As4 ,v031
 .byte   N01 ,Fn4 ,v019
 .byte   W11
 .byte   N11 ,Cs5 ,v026
 .byte   W12
 .byte   Gs5
 .byte   N24 ,Gs3 ,v019
 .byte   N24 ,Ds4 ,v031
 .byte   N01 ,Gs3 ,v019
 .byte   W11
 .byte   N11 ,Cs5 ,v026
 .byte   W12
 .byte   Ds5
 .byte   N24 ,Fn4 ,v031
 .byte   N24 ,Cn4 ,v019
 .byte   W12
 .byte   N11 ,Cs5 ,v026
 .byte   W12
 .byte   Gs5
 .byte   N24 ,Cn4 ,v031
 .byte   N24 ,Gs3 ,v019
 .byte   N01
 .byte   W11
 .byte   N11 ,Cs5 ,v026
 .byte   W11
 .byte   Ds5
 .byte   N24 ,Cs4 ,v031
 .byte   N24 ,As3 ,v019
 .byte   W11
 .byte   N11 ,Cs5 ,v026
 .byte   W12
 .byte   N24 ,Fn3 ,v016
 .byte   N96 ,As3 ,v027
 .byte   N96 ,As2 ,v016
 .byte   W02
 .byte   N48 ,As3 ,v027
 .byte   N48 ,As2 ,v016
 .byte   W01
 .byte   N01
 .byte   N02 ,As3 ,v027
 .byte   W09
 .byte   N96 ,Fn4
 .byte   W02
 .byte   N36
 .byte   W09
 .byte   N11 ,Gs4 ,v029
 .byte   W11
 .byte   As4 ,v026
 .byte   W12
 .byte   Cs5
 .byte   W12
 .byte   Ds5
 .byte   W11
 .byte   TEMPO , 114*SatorlMarsh_tbs/2
 .byte   N11 ,Fn5 ,v026
 .byte   W09
 .byte   TEMPO , 114*SatorlMarsh_tbs/2
 .byte   W03
 .byte   N11 ,Gs5 ,v026
 .byte   W06
 .byte   TEMPO , 114*SatorlMarsh_tbs/2
 .byte   W05
 .byte   N11 ,Fn5 ,v026
 .byte   W03
 .byte   TEMPO , 112*SatorlMarsh_tbs/2
 .byte   W08
 .byte   N11 ,Gs5 ,v026
 .byte   W01
 .byte   TEMPO , 112*SatorlMarsh_tbs/2
 .byte   W09
 .byte   TEMPO , 112*SatorlMarsh_tbs/2
 .byte   W01
 .byte   N11 ,Fn5 ,v026
 .byte   W08
 .byte   TEMPO , 112*SatorlMarsh_tbs/2
 .byte   W03
 .byte   N11 ,Ds5 ,v026
 .byte   W06
 .byte   TEMPO , 110*SatorlMarsh_tbs/2
 .byte   W06
 .byte   N12 ,Cs5 ,v031
 .byte   W06
 .byte   TEMPO , 114*SatorlMarsh_tbs/2
 .byte   W07
 .byte   N11 ,Ds5 ,v026
 .byte   W11
 .byte   Cs5 ,v027
 .byte   W11
 .byte   As4 ,v028
 .byte   W12
 .byte   Gs4 ,v030
 .byte   W12
 .byte   As4 ,v031
 .byte   W12
 .byte   Gs4
 .byte   W12
 .byte   Fn4 ,v032
 .byte   W12
 .byte   Ds4 ,v033
 .byte   W12
 .byte   Fn4 ,v034
 .byte   W11
 .byte   Ds4 ,v035
 .byte   W11
 .byte   Cn4 ,v036
 .byte   W12
 .byte   N24 ,As1 ,v044
 .byte   N48 ,As4
 .byte   N01 ,As1
 .byte   N01 ,As4
 .byte   W11
 .byte   N11 ,Ds4 ,v039
 .byte   W11
 .byte   Fn4 ,v042
 .byte   N24 ,Fn2
 .byte   W11
 .byte   N11 ,Ds4 ,v038
 .byte   W12
 .byte   N48 ,Gs4
 .byte   N96 ,As2 ,v031
 .byte   N96 ,Cs3 ,v045
 .byte   W12
 .byte   N11 ,Ds4 ,v038
 .byte   W12
 .byte   Fn4
 .byte   W12
 .byte   Ds4
 .byte   W12
 .byte   N48 ,As4
 .byte   W12
 .byte   N11 ,Ds4
 .byte   W11
 .byte   Fn4
 .byte   W11
 .byte   Ds4
 .byte   W12
 .byte   N24 ,Gs1 ,v044
 .byte   N96 ,Gs4 ,v038
 .byte   N01 ,Gs1 ,v044
 .byte   W01
 .byte   Gs4 ,v038
 .byte   W10
 .byte   N11 ,Cs4 ,v039
 .byte   W11
 .byte   Ds4 ,v042
 .byte   N24 ,Ds2
 .byte   W11
 .byte   N11 ,Cs4 ,v038
 .byte   W12
 .byte   Gs3
 .byte   N96 ,Gs2 ,v031
 .byte   N96 ,Cn3 ,v045
 .byte   W12
 .byte   N11 ,Cs4 ,v038
 .byte   W12
 .byte   Ds4
 .byte   W12
 .byte   Cs4
 .byte   W12
 .byte   N48 ,Gs4
 .byte   W12
 .byte   N11 ,Cs4
 .byte   W11
 .byte   Ds4
 .byte   W11
 .byte   Cs4
 .byte   W12
 .byte   N24 ,As1 ,v044
 .byte   N48 ,As4
 .byte   N01 ,As1
 .byte   As4
 .byte   W11
 .byte   N11 ,Ds4 ,v039
 .byte   W11
 .byte   Fn4 ,v042
 .byte   N24 ,Fn2
 .byte   W11
 .byte   N11 ,Ds4 ,v038
 .byte   W12
 .byte   N48 ,Gs4
 .byte   N96 ,Cs3 ,v045
 .byte   N96 ,As2 ,v031
 .byte   W12
 .byte   N11 ,Ds4 ,v038
 .byte   W12
 .byte   Fn4
 .byte   W12
 .byte   Ds4
 .byte   W12
 .byte   N48 ,As4
 .byte   W12
 .byte   N11 ,Ds4
 .byte   W11
 .byte   Fn4
 .byte   W11
 .byte   Ds4
 .byte   W12
 .byte   N24 ,Gs1 ,v044
 .byte   N96 ,Cn5 ,v038
 .byte   N01 ,Gs1 ,v044
 .byte   W01
 .byte   Cn5 ,v038
 .byte   W10
 .byte   N11 ,Cs4 ,v039
 .byte   W11
 .byte   Ds4 ,v042
 .byte   N24 ,Ds2
 .byte   W11
 .byte   N11 ,Cs4 ,v038
 .byte   W12
 .byte   Gs3
 .byte   N96 ,Cn3 ,v045
 .byte   N96 ,Gs2 ,v031
 .byte   W12
 .byte   N11 ,Cs4 ,v038
 .byte   W12
 .byte   Ds4
 .byte   W12
 .byte   Cs4
 .byte   W12
 .byte   N48 ,Cn5
 .byte   W12
 .byte   N11 ,Cs4
 .byte   W11
 .byte   Ds4
 .byte   W11
 .byte   Cs4
 .byte   W12
 .byte   N24 ,As1 ,v044
 .byte   N96 ,Cs5 ,v038
 .byte   N01 ,As1 ,v044
 .byte   W01
 .byte   Cs5 ,v038
 .byte   W10
 .byte   N11 ,Ds4 ,v039
 .byte   W11
 .byte   Fn4 ,v042
 .byte   N24 ,Fn2
 .byte   W11
 .byte   N11 ,Ds4 ,v038
 .byte   W12
 .byte   As3
 .byte   N96 ,As2 ,v031
 .byte   N96 ,Cs3 ,v045
 .byte   W12
 .byte   N11 ,Ds4 ,v038
 .byte   W12
 .byte   Fn4
 .byte   W12
 .byte   Ds4
 .byte   W12
 .byte   N48 ,As4
 .byte   W12
 .byte   N11 ,Ds4
 .byte   W11
 .byte   Fn4
 .byte   W11
 .byte   Ds4
 .byte   W12
 .byte   N24 ,Gs1 ,v044
 .byte   N96 ,Gs4 ,v038
 .byte   N01 ,Gs1 ,v044
 .byte   W01
 .byte   Gs4 ,v038
 .byte   W10
 .byte   N11 ,Cs4 ,v039
 .byte   W11
 .byte   Ds4 ,v042
 .byte   N24 ,Ds2
 .byte   W11
 .byte   N11 ,Cs4 ,v038
 .byte   W12
 .byte   Gs3
 .byte   N96 ,Gs2 ,v031
 .byte   N96 ,Cn3 ,v045
 .byte   W12
 .byte   N11 ,Cs4 ,v038
 .byte   W12
 .byte   Ds4
 .byte   W12
 .byte   Cs4
 .byte   W12
 .byte   N48 ,Gs4
 .byte   W12
 .byte   N11 ,Cs4
 .byte   W11
 .byte   Ds4
 .byte   W11
 .byte   Cs4
 .byte   W12
 .byte   N12 ,As4 ,v044
 .byte   N24 ,As1
 .byte   N01
 .byte   W12
 .byte   N11 ,Fn3 ,v039
 .byte   W11
 .byte   Gs3 ,v042
 .byte   N24 ,Fn2
 .byte   W11
 .byte   N11 ,As3 ,v038
 .byte   W12
 .byte   Cs4
 .byte   N96 ,Cs3 ,v045
 .byte   N96 ,As2 ,v031
 .byte   W12
 .byte   N11 ,Ds4 ,v038
 .byte   W12
 .byte   Fn4
 .byte   W12
 .byte   Gs4
 .byte   W12
 .byte   Fn4
 .byte   W12
 .byte   Gs4
 .byte   W11
 .byte   Fn4
 .byte   W11
 .byte   Ds4
 .byte   W12
 .byte   N12 ,Cs4 ,v044
 .byte   N24 ,Gs1
 .byte   N01
 .byte   W12
 .byte   N11 ,Ds4 ,v039
 .byte   W11
 .byte   Cs4 ,v042
 .byte   N24 ,Ds2 ,v043
 .byte   W11
 .byte   N11 ,As3 ,v044
 .byte   W12
 .byte   Gs3 ,v047
 .byte   N84 ,Cn3 ,v054
 .byte   N92 ,Gs2 ,v038
 .byte   W12
 .byte   N11 ,As3 ,v049
 .byte   W12
 .byte   Gs3 ,v052
 .byte   W12
 .byte   Fn3 ,v054
 .byte   W12
 .byte   Ds3 ,v058
 .byte   W12
 .byte   Fn3 ,v060
 .byte   W11
 .byte   Ds3 ,v063
 .byte   W11
 .byte   N08 ,Cn3 ,v065
 .byte   W12
 .byte   N12 ,As2 ,v116
 .byte   N96 ,Fn2 ,v117
 .byte   N96 ,As1 ,v095
 .byte   W02
 .byte   N48 ,Fn2 ,v117
 .byte   N48 ,As1 ,v095
 .byte   W01
 .byte   N02
 .byte   N02 ,Fn2 ,v117
 .byte   W09
 .byte   N11 ,Cn3 ,v070
 .byte   W11
 .byte   Cs3 ,v073
 .byte   W11
 .byte   Fn3 ,v069
 .byte   W12
 .byte   As3
 .byte   N48 ,Fn3 ,v117
 .byte   N48 ,Cs3 ,v095
 .byte   W12
 .byte   N11 ,Cn4 ,v069
 .byte   W12
 .byte   Cs4
 .byte   W12
 .byte   Fn4
 .byte   W12
 .byte   As4
 .byte   N24 ,Ds3 ,v117
 .byte   N24 ,As2 ,v095
 .byte   W12
 .byte   N11 ,Cn5 ,v069
 .byte   W11
 .byte   Cs5
 .byte   N24 ,Cs3 ,v095
 .byte   N24 ,Fn3 ,v117
 .byte   W11
 .byte   N11 ,Fn5 ,v069
 .byte   W12
 .byte   N12 ,Cn3 ,v076
 .byte   N36 ,Gs3
 .byte   N96 ,Ds2 ,v117
 .byte   N96 ,Gs1 ,v095
 .byte   N01 ,Gs3 ,v076
 .byte   W01
 .byte   N48 ,Gs1 ,v095
 .byte   N48 ,Ds2 ,v117
 .byte   W01
 .byte   N02
 .byte   N02 ,Gs1 ,v095
 .byte   W09
 .byte   N11 ,Cs3 ,v070
 .byte   W11
 .byte   Ds3 ,v073
 .byte   W11
 .byte   Gs3 ,v069
 .byte   W12
 .byte   Cn4
 .byte   N96 ,Cn3 ,v112
 .byte   N96 ,Fn3 ,v105
 .byte   W12
 .byte   N11 ,Cs4 ,v069
 .byte   W11
 .byte   TEMPO , 114*SatorlMarsh_tbs/2
 .byte   N11 ,Ds4 ,v069
 .byte   W09
 .byte   TEMPO , 114*SatorlMarsh_tbs/2
 .byte   W03
 .byte   N11 ,Gs4 ,v069
 .byte   W06
 .byte   TEMPO , 114*SatorlMarsh_tbs/2
 .byte   W05
 .byte   N11 ,Cn5 ,v069
 .byte   W03
 .byte   TEMPO , 114*SatorlMarsh_tbs/2
 .byte   W08
 .byte   N11 ,Cs5 ,v069
 .byte   W01
 .byte   TEMPO , 114*SatorlMarsh_tbs/2
 .byte   W09
 .byte   TEMPO , 114*SatorlMarsh_tbs/2
 .byte   W01
 .byte   N11 ,Ds5 ,v069
 .byte   W08
 .byte   TEMPO , 112*SatorlMarsh_tbs/2
 .byte   W03
 .byte   N11 ,Gs5 ,v069
 .byte   W06
 .byte   TEMPO , 112*SatorlMarsh_tbs/2
 .byte   W06
 .byte   TEMPO , 114*SatorlMarsh_tbs/2
 .byte   N12 ,As2 ,v116
 .byte   N96 ,Fn2 ,v117
 .byte   N96 ,As1 ,v095
 .byte   W02
 .byte   N48 ,Fn2 ,v117
 .byte   N48 ,As1 ,v095
 .byte   W01
 .byte   N02
 .byte   N02 ,Fn2 ,v117
 .byte   W09
 .byte   N11 ,Cn3 ,v070
 .byte   W11
 .byte   Cs3 ,v073
 .byte   W11
 .byte   Fn3 ,v069
 .byte   W12
 .byte   As3
 .byte   N48 ,Fn3 ,v117
 .byte   N48 ,Cs3 ,v095
 .byte   W12
 .byte   N11 ,Cn4 ,v069
 .byte   W12
 .byte   Cs4
 .byte   W12
 .byte   Fn4
 .byte   W12
 .byte   As4
 .byte   N24 ,Ds3 ,v117
 .byte   N24 ,As2 ,v095
 .byte   W12
 .byte   N11 ,Cn5 ,v069
 .byte   W11
 .byte   Cs5
 .byte   N24 ,Fn3 ,v117
 .byte   N24 ,Cs3 ,v095
 .byte   W11
 .byte   N11 ,Fn5 ,v069
 .byte   W12
 .byte   N12 ,Cn3 ,v076
 .byte   N24 ,Gs3
 .byte   N96 ,Ds2 ,v117
 .byte   N96 ,Gs1 ,v095
 .byte   N01 ,Gs3 ,v076
 .byte   W01
 .byte   N48 ,Ds2 ,v117
 .byte   N48 ,Gs1 ,v095
 .byte   W01
 .byte   N02 ,Ds2 ,v117
 .byte   N02 ,Gs1 ,v095
 .byte   W09
 .byte   N11 ,Cs3 ,v070
 .byte   W11
 .byte   Ds3 ,v073
 .byte   N24 ,As3
 .byte   W11
 .byte   N11 ,Gs3 ,v069
 .byte   W12
 .byte   Cn4
 .byte   N96 ,Fn3 ,v105
 .byte   N96 ,Cn3 ,v112
 .byte   W12
 .byte   N11 ,Cs4 ,v069
 .byte   W11
 .byte   TEMPO , 114*SatorlMarsh_tbs/2
 .byte   N11 ,Ds4 ,v069
 .byte   W09
 .byte   TEMPO , 114*SatorlMarsh_tbs/2
 .byte   W03
 .byte   N11 ,Gs4 ,v069
 .byte   W06
 .byte   TEMPO , 114*SatorlMarsh_tbs/2
 .byte   W05
 .byte   N11 ,Cn5 ,v069
 .byte   W03
 .byte   TEMPO , 114*SatorlMarsh_tbs/2
 .byte   W08
 .byte   N11 ,Cs5 ,v069
 .byte   W01
 .byte   TEMPO , 114*SatorlMarsh_tbs/2
 .byte   W09
 .byte   TEMPO , 114*SatorlMarsh_tbs/2
 .byte   W01
 .byte   N11 ,Ds5 ,v069
 .byte   W08
 .byte   TEMPO , 112*SatorlMarsh_tbs/2
 .byte   W03
 .byte   N11 ,Gs5 ,v069
 .byte   W06
 .byte   TEMPO , 112*SatorlMarsh_tbs/2
 .byte   W06
 .byte   TEMPO , 114*SatorlMarsh_tbs/2
 .byte   N12 ,As2 ,v116
 .byte   N96 ,As1 ,v095
 .byte   N96 ,Fn2 ,v117
 .byte   W02
 .byte   N48
 .byte   N48 ,As1 ,v095
 .byte   W01
 .byte   N02
 .byte   N02 ,Fn2 ,v117
 .byte   W09
 .byte   N11 ,Cn3 ,v070
 .byte   W11
 .byte   Cs3 ,v073
 .byte   W11
 .byte   Fn3 ,v069
 .byte   W12
 .byte   As3
 .byte   N48 ,Cs3 ,v095
 .byte   N48 ,Fn3 ,v117
 .byte   W12
 .byte   N11 ,Cn4 ,v069
 .byte   W12
 .byte   Cs4
 .byte   W12
 .byte   Fn4
 .byte   W12
 .byte   As4
 .byte   N24 ,As2 ,v095
 .byte   N24 ,Ds3 ,v117
 .byte   W12
 .byte   N11 ,Cn5 ,v069
 .byte   W11
 .byte   Cs5
 .byte   N24 ,Fn3 ,v117
 .byte   N24 ,Cs3 ,v095
 .byte   W11
 .byte   N11 ,Fn5 ,v069
 .byte   W12
 .byte   N12 ,Cn3 ,v076
 .byte   N24 ,Gs3
 .byte   N96 ,Gs1 ,v095
 .byte   N96 ,Ds2 ,v117
 .byte   N01 ,Gs3 ,v076
 .byte   W01
 .byte   N48 ,Ds2 ,v117
 .byte   N48 ,Gs1 ,v095
 .byte   W01
 .byte   N02 ,Ds2 ,v117
 .byte   N02 ,Gs1 ,v095
 .byte   W09
 .byte   N11 ,Cs3 ,v070
 .byte   W11
 .byte   Ds3 ,v073
 .byte   N24 ,As3
 .byte   W11
 .byte   N11 ,Gs3 ,v069
 .byte   W12
 .byte   Cn4
 .byte   N24 ,Ds3 ,v117
 .byte   N24 ,Gs2 ,v095
 .byte   W12
 .byte   N11 ,Cs4 ,v069
 .byte   W11
 .byte   TEMPO , 114*SatorlMarsh_tbs/2
 .byte   N11 ,Ds4 ,v069
 .byte   N24 ,Cn3 ,v095
 .byte   N24 ,Fn3 ,v117
 .byte   W09
 .byte   TEMPO , 114*SatorlMarsh_tbs/2
 .byte   W03
 .byte   N11 ,Gs4 ,v069
 .byte   W06
 .byte   TEMPO , 114*SatorlMarsh_tbs/2
 .byte   W05
 .byte   N11 ,Cn5 ,v069
 .byte   N24 ,Gs2 ,v095
 .byte   N24 ,Cn3 ,v117
 .byte   W03
 .byte   TEMPO , 114*SatorlMarsh_tbs/2
 .byte   W08
 .byte   N11 ,Cs5 ,v069
 .byte   W01
 .byte   TEMPO , 114*SatorlMarsh_tbs/2
 .byte   W09
 .byte   TEMPO , 114*SatorlMarsh_tbs/2
 .byte   W01
 .byte   N11 ,Ds5 ,v069
 .byte   N24 ,Cs3 ,v117
 .byte   N24 ,As2 ,v095
 .byte   W08
 .byte   TEMPO , 112*SatorlMarsh_tbs/2
 .byte   W03
 .byte   N11 ,Gs5 ,v069
 .byte   W06
 .byte   TEMPO , 112*SatorlMarsh_tbs/2
 .byte   W06
 .byte   TEMPO , 114*SatorlMarsh_tbs/2
 .byte   N12 ,As2 ,v117
 .byte   N96 ,As1 ,v095
 .byte   N96 ,Fn2
 .byte   W02
 .byte   N01 ,As1
 .byte   N01 ,Fn2
 .byte   W10
 .byte   N11 ,Cn3 ,v070
 .byte   W11
 .byte   Cs3 ,v073
 .byte   W11
 .byte   Fn3 ,v069
 .byte   W12
 .byte   As3
 .byte   W12
 .byte   Cn4
 .byte   W12
 .byte   Cs4
 .byte   W12
 .byte   Fn4
 .byte   W12
 .byte   As3 ,v108
 .byte   W12
 .byte   Cn4
 .byte   W11
 .byte   Cs4
 .byte   W11
 .byte   Fn4
 .byte   W12
 .byte   N12 ,As4 ,v076
 .byte   W13
 .byte   N11 ,Cn5 ,v070
 .byte   W11
 .byte   Cs5 ,v073
 .byte   W11
 .byte   Fn5 ,v069
 .byte   W12
 .byte   Ds5
 .byte   N48 ,Cn3 ,v059
 .byte   N48 ,Ds3
 .byte   N48 ,Gs3 ,v077
 .byte   W12
 .byte   N11 ,Cn5 ,v069
 .byte   W12
 .byte   Gs4
 .byte   W12
 .byte   Ds4
 .byte   W12
 .byte   Cn4
 .byte   W12
 .byte   Gs3
 .byte   W11
 .byte   Ds3
 .byte   W11
 .byte   Cn3
 .byte   W12
 .byte   N24 ,As1 ,v076
 .byte   N48 ,As2
 .byte   N01 ,As1
 .byte   As2
 .byte   W23
 .byte   N24 ,Fn2 ,v073
 .byte   W24
 .byte   N48 ,Fn4 ,v077
 .byte   N48 ,Cs4 ,v059
 .byte   N48 ,Fn3
 .byte   N96 ,As2
 .byte   N96 ,Cs3 ,v077
 .byte   W48
 .byte   N24 ,Cn4 ,v059
 .byte   N24 ,Ds3
 .byte   N24 ,Ds4 ,v077
 .byte   W24
 .byte   Fn4
 .byte   N24 ,Fn3 ,v059
 .byte   N24 ,Cs4
 .byte   W24
 .byte   Gs4 ,v084
 .byte   N24 ,Gs1 ,v076
 .byte   N24 ,Cn4 ,v065
 .byte   N24 ,Gs3
 .byte   N01 ,Cn4
 .byte   N01 ,Gs1 ,v076
 .byte   N01 ,Gs3 ,v065
 .byte   N01 ,Gs4 ,v084
 .byte   W24
 .byte   N24 ,As4 ,v081
 .byte   N24 ,Ds2 ,v073
 .byte   N24 ,As3 ,v063
 .byte   N24 ,Cs4
 .byte   W24
 .byte   N48 ,Gs4 ,v077
 .byte   N48 ,Cn4 ,v059
 .byte   N48 ,Gs3
 .byte   N96 ,Cn3 ,v077
 .byte   N96 ,Gs2 ,v059
 .byte   W48
 .byte   N24 ,Cs4
 .byte   N24 ,Fn3
 .byte   N24 ,Fn4 ,v077
 .byte   W24
 .byte   Ds4
 .byte   N24 ,Ds3 ,v059
 .byte   N24 ,Cn4
 .byte   W24
 .byte   Cs1 ,v074
 .byte   N48 ,Cn4 ,v065
 .byte   N48 ,Ds4 ,v084
 .byte   N48 ,Ds3 ,v065
 .byte   N01 ,Cs1 ,v074
 .byte   N01 ,Ds4 ,v084
 .byte   N01 ,Ds3 ,v065
 .byte   N01 ,Cn4
 .byte   W23
 .byte   N24 ,Cs2 ,v073
 .byte   W24
 .byte   N48 ,Cn3 ,v077
 .byte   N48 ,Gs2 ,v059
 .byte   N72 ,Fn4 ,v077
 .byte   N72 ,Cs4 ,v059
 .byte   N72 ,Fn3
 .byte   W48
 .byte   N48 ,Fn2 ,v069
 .byte   W24
 .byte   N24 ,Gs3
 .byte   W24
 .byte   Fn1 ,v076
 .byte   N24 ,Cn4
 .byte   N01 ,Fn1
 .byte   N01 ,Cn4
 .byte   W24
 .byte   N11 ,As3 ,v073
 .byte   N24 ,Cn2
 .byte   W11
 .byte   N11 ,Cn4 ,v069
 .byte   W12
 .byte   N24 ,Gs3
 .byte   N96 ,Fn2 ,v059
 .byte   N96 ,Gs2 ,v077
 .byte   W24
 .byte   N24 ,Fn3 ,v069
 .byte   W24
 .byte   Ds3
 .byte   W24
 .byte   Cn3
 .byte   W24
 .byte   Fs1 ,v076
 .byte   N48 ,As2
 .byte   N01 ,Fs1
 .byte   As2
 .byte   W23
 .byte   N24 ,Cs2 ,v073
 .byte   W24
 .byte   N48 ,Fn4 ,v077
 .byte   N48 ,Cs4 ,v059
 .byte   N48 ,Fn3
 .byte   N96 ,As2 ,v077
 .byte   N96 ,Fs2 ,v059
 .byte   W48
 .byte   N24 ,Cn4
 .byte   N24 ,Ds3
 .byte   N24 ,Ds4 ,v077
 .byte   W24
 .byte   Fn4
 .byte   N24 ,Fn3 ,v059
 .byte   N24 ,Cs4
 .byte   W24
 .byte   Cn4 ,v065
 .byte   N24 ,Gs1 ,v076
 .byte   N24 ,Gs3 ,v065
 .byte   N24 ,Gs4 ,v084
 .byte   N01 ,Gs1 ,v076
 .byte   N01 ,Gs4 ,v084
 .byte   N01 ,Gs3 ,v065
 .byte   N01 ,Cn4
 .byte   W24
 .byte   N24 ,As4 ,v081
 .byte   N24 ,Ds2 ,v073
 .byte   N24 ,As3 ,v063
 .byte   N24 ,Cs4
 .byte   W24
 .byte   Gs4 ,v077
 .byte   N24 ,Cn4 ,v059
 .byte   N24 ,Gs3
 .byte   N96 ,Gs2
 .byte   N96 ,Cn3 ,v077
 .byte   W24
 .byte   N24 ,As4
 .byte   N24 ,As3 ,v059
 .byte   N24 ,Cs4
 .byte   W24
 .byte   Fn3
 .byte   N24 ,Cs4
 .byte   N24 ,Fn4 ,v077
 .byte   W24
 .byte   Ds4
 .byte   N24 ,Ds3 ,v059
 .byte   N24 ,Cn4
 .byte   W24
 .byte   Cs1 ,v074
 .byte   N48 ,Cn4 ,v065
 .byte   N48 ,Ds3
 .byte   N48 ,Ds4 ,v084
 .byte   N01 ,Cs1 ,v074
 .byte   N01 ,Ds4 ,v084
 .byte   N01 ,Ds3 ,v065
 .byte   N01 ,Cn4
 .byte   W23
 .byte   N24 ,Cs2 ,v073
 .byte   W24
 .byte   N48 ,Cn3 ,v077
 .byte   N48 ,Gs2 ,v059
 .byte   N72 ,Fn4 ,v077
 .byte   N72 ,Cs4 ,v059
 .byte   N72 ,Fn3
 .byte   W48
 .byte   N48 ,Fn2 ,v069
 .byte   W24
 .byte   N24 ,As3
 .byte   W20
 .byte   N52 ,Cn3 ,v065
 .byte   W01
 .byte   N01
 .byte   N48 ,Fn3
 .byte   W01
 .byte   N03
 .byte   N24 ,Fn1 ,v076
 .byte   N48 ,An3 ,v084
 .byte   N01 ,Fn1 ,v076
 .byte   An3 ,v084
 .byte   W23
 .byte   N24 ,Cn2 ,v073
 .byte   W24
 .byte   Fn3 ,v077
 .byte   N24 ,Ds3 ,v059
 .byte   N24 ,Cn3
 .byte   N48 ,Fn2
 .byte   N48 ,An2 ,v077
 .byte   W24
 .byte   N24 ,An3 ,v059
 .byte   N24 ,Cn4
 .byte   N24 ,An4 ,v077
 .byte   W24
 .byte   As4
 .byte   N24 ,Cs4 ,v059
 .byte   N24 ,As3
 .byte   N48 ,Fn1 ,v069
 .byte   W24
 .byte   N24 ,Cn5 ,v077
 .byte   N24 ,Cn4 ,v059
 .byte   N24 ,Ds4
 .byte   W24
 .byte   Fn4 ,v065
 .byte   N24 ,Fs1 ,v076
 .byte   N24 ,Cs4 ,v065
 .byte   N24 ,Cs5 ,v084
 .byte   N01 ,Fs1 ,v076
 .byte   N01 ,Cs5 ,v084
 .byte   N01 ,Cs4 ,v065
 .byte   N01 ,Fn4
 .byte   W24
 .byte   N24 ,Cn5 ,v081
 .byte   N24 ,Cs2 ,v073
 .byte   N24 ,Cn4 ,v063
 .byte   N24 ,Ds4
 .byte   W24
 .byte   As4 ,v077
 .byte   N24 ,Cs4 ,v059
 .byte   N24 ,As3
 .byte   N96 ,As2 ,v077
 .byte   N96 ,Fs2 ,v059
 .byte   W24
 .byte   N24 ,Cn4
 .byte   N24 ,Gs3
 .byte   N24 ,Gs4 ,v077
 .byte   W24
 .byte   N48 ,Fn4
 .byte   N48 ,Fn3 ,v059
 .byte   N48 ,Gs3
 .byte   W48
 .byte   N24 ,Ds4 ,v084
 .byte   N24 ,Gs1 ,v076
 .byte   N24 ,As3 ,v065
 .byte   N24 ,Ds3
 .byte   N01 ,As3
 .byte   N01 ,Gs1 ,v076
 .byte   N01 ,Ds3 ,v065
 .byte   N01 ,Ds4 ,v084
 .byte   W24
 .byte   N24 ,Fn4 ,v081
 .byte   N24 ,Ds2 ,v073
 .byte   N24 ,Fn3 ,v063
 .byte   N24 ,Gs3
 .byte   W24
 .byte   N48 ,Gs2 ,v059
 .byte   N48 ,Cn3 ,v077
 .byte   N48 ,Gs4
 .byte   N48 ,Gs3 ,v059
 .byte   N48 ,Cn4
 .byte   W48
 .byte   N24 ,Gs4 ,v077
 .byte   N24 ,Cn4 ,v059
 .byte   N24 ,Gs3
 .byte   N48 ,Gs1 ,v069
 .byte   W24
 .byte   N24 ,As4 ,v077
 .byte   N24 ,As3 ,v059
 .byte   N24 ,Cs4
 .byte   W24
 .byte   Cn5 ,v084
 .byte   N24 ,Fn1 ,v076
 .byte   N24 ,Ds4 ,v065
 .byte   N24 ,Cn4
 .byte   N01 ,Ds4
 .byte   N01 ,Fn1 ,v076
 .byte   N01 ,Cn4 ,v065
 .byte   N01 ,Cn5 ,v084
 .byte   W24
 .byte   N24 ,As4 ,v080
 .byte   N24 ,Cn2 ,v073
 .byte   N24 ,As3 ,v061
 .byte   N24 ,Cs4
 .byte   W24
 .byte   Cn5 ,v084
 .byte   N24 ,Ds4 ,v065
 .byte   N24 ,Cn4
 .byte   N96 ,Gs2 ,v085
 .byte   N96 ,Fn2 ,v066
 .byte   W24
 .byte   N24 ,Fn4 ,v069
 .byte   N24 ,Cs4
 .byte   N24 ,Cs5 ,v088
 .byte   W24
 .byte   Ds5 ,v092
 .byte   N24 ,Ds4 ,v073
 .byte   N24 ,As4
 .byte   W24
 .byte   Fn4 ,v077
 .byte   N24 ,Gs4
 .byte   N24 ,Fn5 ,v097
 .byte   W24
 .byte   As1 ,v106
 .byte   N48 ,As4 ,v088
 .byte   N48 ,Ds5 ,v109
 .byte   N48 ,Ds4 ,v088
 .byte   N01 ,As1 ,v106
 .byte   Ds5 ,v109
 .byte   N01 ,Ds4 ,v088
 .byte   N01 ,As4
 .byte   W23
 .byte   N24 ,Fn2 ,v103
 .byte   W24
 .byte   N48 ,Cs3 ,v108
 .byte   N48 ,As2 ,v087
 .byte   N96 ,Cs5 ,v101
 .byte   N96 ,As4 ,v081
 .byte   N96 ,Cs4
 .byte   W23
 .byte   TEMPO , 114*SatorlMarsh_tbs/2
 .byte   W09
 .byte   TEMPO , 114*SatorlMarsh_tbs/2
 .byte   W09
 .byte   TEMPO , 114*SatorlMarsh_tbs/2
 .byte   W05
 .byte   N48 ,As1 ,v098
 .byte   W03
 .byte   TEMPO , 112*SatorlMarsh_tbs/2
 .byte   W09
 .byte   TEMPO , 112*SatorlMarsh_tbs/2
 .byte   W09
 .byte   TEMPO , 112*SatorlMarsh_tbs/2
 .byte   W09
 .byte   TEMPO , 112*SatorlMarsh_tbs/2
 .byte   W09
 .byte   TEMPO , 110*SatorlMarsh_tbs/2
 .byte   W06
 .byte   N24 ,Ds1 ,v105
 .byte   N48 ,Fn4 ,v088
 .byte   N48 ,As3
 .byte   N48 ,As4 ,v109
 .byte   N01 ,Ds1 ,v105
 .byte   N01 ,As4 ,v109
 .byte   N01 ,As3 ,v088
 .byte   N01 ,Fn4
 .byte   W04
 .byte   TEMPO , 114*SatorlMarsh_tbs/2
 .byte   W19
 .byte   N24 ,As1 ,v103
 .byte   W24
 .byte   N48 ,Fn5 ,v101
 .byte   N48 ,As4 ,v081
 .byte   N48 ,Fn4
 .byte   N96 ,As2 ,v108
 .byte   N96 ,Fs2 ,v087
 .byte   N96 ,Ds2
 .byte   W48
 .byte   N24 ,Ds5 ,v101
 .byte   N24 ,Ds4 ,v081
 .byte   N24 ,As4
 .byte   W24
 .byte   Fn4
 .byte   N24 ,As4
 .byte   N24 ,Fn5 ,v101
 .byte   W24
 .byte   Gs5 ,v109
 .byte   N24 ,Fn1 ,v106
 .byte   N24 ,Cn5 ,v088
 .byte   N24 ,Gs4
 .byte   N01 ,Fn1 ,v106
 .byte   N01 ,Gs5 ,v109
 .byte   N01 ,Cn5 ,v088
 .byte   N01 ,Gs4
 .byte   W24
 .byte   N24 ,Cn2 ,v073
 .byte   N24 ,As5 ,v097
 .byte   N24 ,As4 ,v077
 .byte   W24
 .byte   Ds5 ,v092
 .byte   N24 ,Gs4 ,v073
 .byte   N24 ,Ds4
 .byte   N96 ,Fn2 ,v059
 .byte   N96 ,Gs2 ,v077
 .byte   W23
 .byte   TEMPO , 114*SatorlMarsh_tbs/2
 .byte   N24 ,Fn4 ,v068
 .byte   N24 ,Fn5 ,v087
 .byte   W16
 .byte   TEMPO , 110*SatorlMarsh_tbs/2
 .byte   W07
 .byte   N24 ,Cn4 ,v064
 .byte   N24 ,Ds4
 .byte   N24 ,Cn5 ,v082
 .byte   W10
 .byte   TEMPO , 106*SatorlMarsh_tbs/2
 .byte   W14
 .byte   N24 ,Cs4 ,v060
 .byte   N24 ,Cs5 ,v078
 .byte   W03
 .byte   TEMPO , 102*SatorlMarsh_tbs/2
 .byte   W17
 .byte   TEMPO , 98*SatorlMarsh_tbs/2
 .byte   W03
 .byte   N24 ,As1 ,v076
 .byte   N96 ,As3 ,v059
 .byte   N96 ,Fn4
 .byte   N96 ,As4 ,v077
 .byte   N01 ,As1 ,v076
 .byte   W01
 .byte   N48 ,As3 ,v059
 .byte   N48 ,Fn4
 .byte   N48 ,As4 ,v077
 .byte   W01
 .byte   N02
 .byte   N02 ,Fn4 ,v059
 .byte   N02 ,As3
 .byte   W10
 .byte   TEMPO , 94*SatorlMarsh_tbs/2
 .byte   W11
 .byte   N24 ,Fn2 ,v073
 .byte   W06
 .byte   TEMPO , 90*SatorlMarsh_tbs/2
 .byte   W17
 .byte   TEMPO , 66*SatorlMarsh_tbs/2
 .byte   N84 ,As2 ,v059
 .byte   N84 ,Cs3 ,v077
 .byte   W02
 .byte   N02 ,As2 ,v059
 .byte   N02 ,Cs3 ,v077
 .byte   W90
 .byte   N76 ,Cs3 ,v065
 .byte   W01
 .byte   N01
 .byte   N72 ,Fn3
 .byte   W01
 .byte   N03
 .byte   TEMPO , 114*SatorlMarsh_tbs/2
 .byte   N12 ,As5 ,v076
 .byte   N48 ,Cs5
 .byte   N72 ,As3 ,v084
 .byte   W01
 .byte   N01 ,Cs5 ,v076
 .byte   As3 ,v084
 .byte   W11
 .byte   N11 ,Ds5 ,v070
 .byte   W11
 .byte   Fn5 ,v073
 .byte   W11
 .byte   Ds5 ,v069
 .byte   W12
 .byte   As5
 .byte   N48 ,Cs5
 .byte   W12
 .byte   N11 ,Ds5
 .byte   W11
 .byte   TEMPO , 114*SatorlMarsh_tbs/2
 .byte   N11 ,Fn5 ,v069
 .byte   N24 ,As3
 .byte   W09
 .byte   TEMPO , 114*SatorlMarsh_tbs/2
 .byte   W03
 .byte   N11 ,Ds5 ,v069
 .byte   W06
 .byte   TEMPO , 114*SatorlMarsh_tbs/2
 .byte   W05
 .byte   N11 ,As5 ,v069
 .byte   N48 ,Cs5
 .byte   N48 ,As3
 .byte   W03
 .byte   TEMPO , 112*SatorlMarsh_tbs/2
 .byte   W08
 .byte   N11 ,Ds5 ,v069
 .byte   W01
 .byte   TEMPO , 112*SatorlMarsh_tbs/2
 .byte   W09
 .byte   TEMPO , 112*SatorlMarsh_tbs/2
 .byte   W01
 .byte   N11 ,Fn5 ,v069
 .byte   W08
 .byte   TEMPO , 112*SatorlMarsh_tbs/2
 .byte   W03
 .byte   N11 ,Ds5 ,v069
 .byte   W06
 .byte   TEMPO , 110*SatorlMarsh_tbs/2
 .byte   W02
 .byte   N52 ,Cn3 ,v065
 .byte   W01
 .byte   N01
 .byte   N48 ,Ds3
 .byte   W01
 .byte   N03
 .byte   N12 ,Gs5 ,v076
 .byte   N48 ,Gs3 ,v084
 .byte   N48 ,Cn5 ,v076
 .byte   W01
 .byte   N01 ,Gs3 ,v084
 .byte   N01 ,Cn5 ,v076
 .byte   W04
 .byte   TEMPO , 114*SatorlMarsh_tbs/2
 .byte   W07
 .byte   N11 ,Cs5 ,v070
 .byte   W11
 .byte   Ds5 ,v073
 .byte   W11
 .byte   Cs5 ,v069
 .byte   W12
 .byte   Gs5
 .byte   N48 ,Cn5
 .byte   N96 ,Gs3
 .byte   W12
 .byte   N11 ,Cs5
 .byte   W12
 .byte   Ds5
 .byte   W12
 .byte   Cs5
 .byte   W12
 .byte   Gs5
 .byte   N48 ,Cn5
 .byte   W12
 .byte   N11 ,Cs5
 .byte   W11
 .byte   Ds5
 .byte   W11
 .byte   Cs5
 .byte   W08
 .byte   N76 ,Cs3 ,v065
 .byte   W01
 .byte   N01
 .byte   N72 ,Fn3
 .byte   W01
 .byte   N03
 .byte   N12 ,As5 ,v076
 .byte   N48 ,Cs5
 .byte   N72 ,As3 ,v084
 .byte   W01
 .byte   N01 ,Cs5 ,v076
 .byte   N01 ,As3 ,v084
 .byte   W11
 .byte   N11 ,Ds5 ,v070
 .byte   W11
 .byte   Fn5 ,v073
 .byte   W11
 .byte   Ds5 ,v069
 .byte   W12
 .byte   As5
 .byte   N48 ,Cs5
 .byte   W12
 .byte   N11 ,Ds5
 .byte   W11
 .byte   TEMPO , 114*SatorlMarsh_tbs/2
 .byte   N11 ,Fn5 ,v069
 .byte   N24 ,As3
 .byte   W09
 .byte   TEMPO , 114*SatorlMarsh_tbs/2
 .byte   W03
 .byte   N11 ,Ds5 ,v069
 .byte   W06
 .byte   TEMPO , 114*SatorlMarsh_tbs/2
 .byte   W05
 .byte   N11 ,As5 ,v069
 .byte   N48 ,Cs5
 .byte   N48 ,As3
 .byte   W03
 .byte   TEMPO , 112*SatorlMarsh_tbs/2
 .byte   W08
 .byte   N11 ,Ds5 ,v069
 .byte   W01
 .byte   TEMPO , 112*SatorlMarsh_tbs/2
 .byte   W09
 .byte   TEMPO , 112*SatorlMarsh_tbs/2
 .byte   W01
 .byte   N11 ,Fn5 ,v069
 .byte   W08
 .byte   TEMPO , 112*SatorlMarsh_tbs/2
 .byte   W03
 .byte   N11 ,Ds5 ,v069
 .byte   W06
 .byte   TEMPO , 110*SatorlMarsh_tbs/2
 .byte   W02
 .byte   N96 ,Cn3 ,v059
 .byte   W02
 .byte   Ds3
 .byte   N54 ,Cn3
 .byte   W01
 .byte   N12 ,Gs5 ,v076
 .byte   N48 ,Cn5
 .byte   N96 ,Gs3 ,v077
 .byte   N52 ,Ds3 ,v059
 .byte   N01 ,Cn5 ,v076
 .byte   W01
 .byte   N48 ,Gs3 ,v077
 .byte   W01
 .byte   N02
 .byte   W02
 .byte   TEMPO , 114*SatorlMarsh_tbs/2
 .byte   W07
 .byte   N11 ,Cs5 ,v070
 .byte   W11
 .byte   Ds5 ,v073
 .byte   W11
 .byte   Cs5 ,v069
 .byte   W12
 .byte   Gs5
 .byte   N48 ,Cn5
 .byte   W12
 .byte   N11 ,Cs5
 .byte   W12
 .byte   Ds5
 .byte   W12
 .byte   Cs5
 .byte   W12
 .byte   Gs5
 .byte   N48 ,Cn5
 .byte   W12
 .byte   N11 ,Cs5
 .byte   W11
 .byte   Ds5
 .byte   W11
 .byte   Cs5
 .byte   W08
 .byte   N76 ,Cs3 ,v065
 .byte   W01
 .byte   N01
 .byte   N72 ,Fn3
 .byte   W01
 .byte   N03
 .byte   N12 ,As5 ,v076
 .byte   N48 ,Cs5
 .byte   N72 ,As3 ,v084
 .byte   W01
 .byte   N01 ,Cs5 ,v076
 .byte   As3 ,v084
 .byte   W11
 .byte   N11 ,Ds5 ,v070
 .byte   W11
 .byte   Fn5 ,v073
 .byte   W11
 .byte   Ds5 ,v069
 .byte   W12
 .byte   As5
 .byte   N48 ,Cs5
 .byte   W12
 .byte   N11 ,Ds5
 .byte   W11
 .byte   TEMPO , 114*SatorlMarsh_tbs/2
 .byte   N11 ,Fn5 ,v069
 .byte   N24 ,As3
 .byte   W09
 .byte   TEMPO , 114*SatorlMarsh_tbs/2
 .byte   W03
 .byte   N11 ,Ds5 ,v069
 .byte   W06
 .byte   TEMPO , 114*SatorlMarsh_tbs/2
 .byte   W05
 .byte   N11 ,As5 ,v069
 .byte   N48 ,Cs5
 .byte   N48 ,As3
 .byte   W03
 .byte   TEMPO , 112*SatorlMarsh_tbs/2
 .byte   W08
 .byte   N11 ,Ds5 ,v069
 .byte   W01
 .byte   TEMPO , 112*SatorlMarsh_tbs/2
 .byte   W09
 .byte   TEMPO , 112*SatorlMarsh_tbs/2
 .byte   W01
 .byte   N11 ,Fn5 ,v069
 .byte   W08
 .byte   TEMPO , 112*SatorlMarsh_tbs/2
 .byte   W03
 .byte   N11 ,Ds5 ,v069
 .byte   W06
 .byte   TEMPO , 110*SatorlMarsh_tbs/2
 .byte   W02
 .byte   N96 ,Cn3 ,v059
 .byte   W02
 .byte   Ds3
 .byte   N05 ,Cn3
 .byte   W01
 .byte   N12 ,Gs5 ,v076
 .byte   N48 ,Cn5
 .byte   N96 ,Gs3 ,v077
 .byte   N03 ,Ds3 ,v059
 .byte   N01 ,Cn5 ,v076
 .byte   W01
 .byte   Gs3 ,v077
 .byte   W03
 .byte   TEMPO , 114*SatorlMarsh_tbs/2
 .byte   W07
 .byte   N11 ,Cs5 ,v070
 .byte   W11
 .byte   Ds5 ,v073
 .byte   W11
 .byte   Cs5 ,v069
 .byte   W12
 .byte   Gs5
 .byte   N48 ,Cn5
 .byte   W12
 .byte   N11 ,Cs5
 .byte   W12
 .byte   Ds5
 .byte   W12
 .byte   Cs5
 .byte   W12
 .byte   Gs5
 .byte   N48 ,Cn5
 .byte   N48 ,Cn4
 .byte   W12
 .byte   N11 ,Cs5
 .byte   W11
 .byte   Ds5
 .byte   W11
 .byte   Cs5
 .byte   W08
 .byte   N96 ,Cs3 ,v059
 .byte   W02
 .byte   Fn3
 .byte   N96 ,Cs3
 .byte   W01
 .byte   N12 ,As5 ,v076
 .byte   N48 ,Cs5
 .byte   N96 ,As3 ,v072
 .byte   N96 ,Fn3 ,v059
 .byte   N96 ,Cs3
 .byte   N01 ,Cs5 ,v076
 .byte   W01
 .byte   N96 ,As3 ,v072
 .byte   N96 ,Fn3 ,v059
 .byte   N08 ,Cs3
 .byte   W01
 .byte   N96 ,As3 ,v072
 .byte   N06 ,Fn3 ,v059
 .byte   W02
 .byte   N04 ,As3 ,v072
 .byte   W06
 .byte   N11 ,Ds5 ,v070
 .byte   W11
 .byte   Fn5 ,v073
 .byte   W11
 .byte   Ds5 ,v069
 .byte   W12
 .byte   As5
 .byte   N48 ,Cs5
 .byte   W12
 .byte   N11 ,Ds5
 .byte   W11
 .byte   TEMPO , 114*SatorlMarsh_tbs/2
 .byte   N11 ,Fn5 ,v069
 .byte   W09
 .byte   TEMPO , 114*SatorlMarsh_tbs/2
 .byte   W03
 .byte   N11 ,Ds5 ,v069
 .byte   W06
 .byte   TEMPO , 114*SatorlMarsh_tbs/2
 .byte   W05
 .byte   N11 ,As5 ,v069
 .byte   N48 ,Cs5
 .byte   W03
 .byte   TEMPO , 112*SatorlMarsh_tbs/2
 .byte   W08
 .byte   N11 ,Ds5 ,v069
 .byte   W01
 .byte   TEMPO , 112*SatorlMarsh_tbs/2
 .byte   W09
 .byte   TEMPO , 112*SatorlMarsh_tbs/2
 .byte   W01
 .byte   N11 ,Fn5 ,v069
 .byte   W08
 .byte   TEMPO , 112*SatorlMarsh_tbs/2
 .byte   W03
 .byte   N11 ,Ds5 ,v069
 .byte   W06
 .byte   TEMPO , 110*SatorlMarsh_tbs/2
 .byte   W06
 .byte   N12 ,Gs5 ,v076
 .byte   N48 ,Cn5
 .byte   W01
 .byte   N01
 .byte   W04
 .byte   TEMPO , 114*SatorlMarsh_tbs/2
 .byte   W07
 .byte   N11 ,Cs5 ,v070
 .byte   W11
 .byte   Ds5 ,v073
 .byte   W11
 .byte   Cs5 ,v069
 .byte   W12
 .byte   Gs5
 .byte   N48 ,Cn5
 .byte   W12
 .byte   N11 ,Cs5
 .byte   W12
 .byte   Ds5
 .byte   W12
 .byte   Cs5
 .byte   W12
 .byte   Gs5
 .byte   N48 ,Cn5
 .byte   W12
 .byte   N11 ,Cs5
 .byte   W11
 .byte   Ds5
 .byte   W11
 .byte   Cs5
 .byte   W12
 .byte   TEMPO , 114*SatorlMarsh_tbs/2
 .byte   N12 ,As5 ,v076
 .byte   N24 ,As1
 .byte   N01
 .byte   W12
 .byte   N11 ,Ds5 ,v070
 .byte   W11
 .byte   Fn5 ,v073
 .byte   N24 ,Fn2
 .byte   W11
 .byte   N11 ,Ds5 ,v069
 .byte   W11
 .byte   N96 ,Cs3
 .byte   N11 ,As5
 .byte   N96 ,Fn3 ,v059
 .byte   N96 ,As3
 .byte   W01
 .byte   N01 ,Cs3 ,v069
 .byte   W10
 .byte   N11 ,Ds5
 .byte   W11
 .byte   TEMPO , 114*SatorlMarsh_tbs/2
 .byte   N11 ,Fn5 ,v069
 .byte   W09
 .byte   TEMPO , 114*SatorlMarsh_tbs/2
 .byte   W03
 .byte   N11 ,Ds5 ,v069
 .byte   W06
 .byte   TEMPO , 114*SatorlMarsh_tbs/2
 .byte   W05
 .byte   N11 ,As5 ,v069
 .byte   W03
 .byte   TEMPO , 112*SatorlMarsh_tbs/2
 .byte   W08
 .byte   N11 ,Ds5 ,v069
 .byte   W01
 .byte   TEMPO , 112*SatorlMarsh_tbs/2
 .byte   W09
 .byte   TEMPO , 112*SatorlMarsh_tbs/2
 .byte   W01
 .byte   N11 ,Fn5 ,v069
 .byte   W08
 .byte   TEMPO , 112*SatorlMarsh_tbs/2
 .byte   W03
 .byte   N11 ,Ds5 ,v069
 .byte   W06
 .byte   TEMPO , 110*SatorlMarsh_tbs/2
 .byte   W06
 .byte   N12 ,Gs5 ,v076
 .byte   N96 ,Ds3 ,v059
 .byte   N96 ,Cn3
 .byte   N96 ,Gs3 ,v077
 .byte   W02
 .byte   N48 ,Cn3 ,v059
 .byte   N48 ,Ds3
 .byte   N48 ,Gs3 ,v077
 .byte   W01
 .byte   N02 ,Cn3 ,v059
 .byte   N02 ,Ds3
 .byte   N02 ,Gs3 ,v077
 .byte   W02
 .byte   TEMPO , 114*SatorlMarsh_tbs/2
 .byte   W07
 .byte   N11 ,Cs5 ,v070
 .byte   W11
 .byte   Ds5 ,v073
 .byte   W11
 .byte   Cs5 ,v069
 .byte   W12
 .byte   Gs5
 .byte   W12
 .byte   Cs5
 .byte   W12
 .byte   Ds5
 .byte   W12
 .byte   Cs5
 .byte   W12
 .byte   Gs5
 .byte   W12
 .byte   Cs5
 .byte   W11
 .byte   Ds5
 .byte   W11
 .byte   Cs5
 .byte   W12
 .byte   TEMPO , 114*SatorlMarsh_tbs/2
 .byte   N12 ,As5 ,v076
 .byte   N24 ,As1
 .byte   N01
 .byte   W12
 .byte   N11 ,Ds5 ,v070
 .byte   W11
 .byte   Fn5 ,v073
 .byte   N24 ,Fn2
 .byte   W11
 .byte   N11 ,Ds5 ,v069
 .byte   W11
 .byte   N96 ,Cs3
 .byte   N11 ,As5
 .byte   N96 ,As3 ,v059
 .byte   N96 ,Fn3
 .byte   W01
 .byte   N01 ,Cs3 ,v069
 .byte   W10
 .byte   N11 ,Ds5
 .byte   W11
 .byte   TEMPO , 114*SatorlMarsh_tbs/2
 .byte   N11 ,Fn5 ,v069
 .byte   W09
 .byte   TEMPO , 114*SatorlMarsh_tbs/2
 .byte   W03
 .byte   N11 ,Ds5 ,v069
 .byte   W06
 .byte   TEMPO , 114*SatorlMarsh_tbs/2
 .byte   W05
 .byte   N11 ,As5 ,v069
 .byte   W03
 .byte   TEMPO , 112*SatorlMarsh_tbs/2
 .byte   W08
 .byte   N11 ,Ds5 ,v069
 .byte   W01
 .byte   TEMPO , 112*SatorlMarsh_tbs/2
 .byte   W09
 .byte   TEMPO , 112*SatorlMarsh_tbs/2
 .byte   W01
 .byte   N11 ,Fn5 ,v069
 .byte   W08
 .byte   TEMPO , 112*SatorlMarsh_tbs/2
 .byte   W03
 .byte   N11 ,Ds5 ,v069
 .byte   W06
 .byte   TEMPO , 110*SatorlMarsh_tbs/2
 .byte   W06
 .byte   N12 ,Gs5 ,v076
 .byte   N96 ,Gs3 ,v077
 .byte   N96 ,Ds3 ,v059
 .byte   N96 ,Cn3
 .byte   W02
 .byte   N48 ,Ds3
 .byte   N48 ,Cn3
 .byte   N48 ,Gs3 ,v077
 .byte   W01
 .byte   N02 ,Cn3 ,v059
 .byte   N02 ,Gs3 ,v077
 .byte   N02 ,Ds3 ,v059
 .byte   W02
 .byte   TEMPO , 114*SatorlMarsh_tbs/2
 .byte   W07
 .byte   N11 ,Cs5 ,v070
 .byte   W11
 .byte   Ds5 ,v073
 .byte   W11
 .byte   Cs5 ,v069
 .byte   W12
 .byte   Gs5
 .byte   W12
 .byte   Cs5
 .byte   W12
 .byte   Ds5
 .byte   W12
 .byte   Cs5
 .byte   W12
 .byte   Gs5
 .byte   W12
 .byte   Cs5
 .byte   W11
 .byte   Ds5
 .byte   W11
 .byte   Cs5
 .byte   W12
 .byte   N12 ,As2 ,v076
 .byte   N96 ,As1 ,v059
 .byte   N96 ,Fn2 ,v077
 .byte   W02
 .byte   N48
 .byte   N48 ,As1 ,v059
 .byte   W01
 .byte   N02
 .byte   N02 ,Fn2 ,v077
 .byte   W09
 .byte   N11 ,Cn3 ,v070
 .byte   W11
 .byte   Cs3 ,v073
 .byte   W11
 .byte   Fn3 ,v069
 .byte   W12
 .byte   As3
 .byte   N48 ,Cs3 ,v059
 .byte   N48 ,Fn3 ,v077
 .byte   W12
 .byte   N11 ,Cn4 ,v069
 .byte   W12
 .byte   Cs4
 .byte   W12
 .byte   Fn4
 .byte   W12
 .byte   As4
 .byte   N24 ,As2 ,v059
 .byte   N24 ,Ds3 ,v077
 .byte   W12
 .byte   N11 ,Cn5 ,v069
 .byte   W11
 .byte   Cs5
 .byte   N24 ,Fn3 ,v077
 .byte   N24 ,Cs3 ,v059
 .byte   W11
 .byte   N11 ,Fn5 ,v069
 .byte   W12
 .byte   N12 ,Cn3 ,v076
 .byte   N36 ,Gs3
 .byte   N96 ,Ds2 ,v077
 .byte   N96 ,Gs1 ,v059
 .byte   N01 ,Gs3 ,v076
 .byte   W01
 .byte   N48 ,Ds2 ,v077
 .byte   N48 ,Gs1 ,v059
 .byte   W01
 .byte   N02
 .byte   N02 ,Ds2 ,v077
 .byte   W09
 .byte   N11 ,Cs3 ,v070
 .byte   W11
 .byte   Ds3 ,v073
 .byte   W11
 .byte   Gs3 ,v069
 .byte   W12
 .byte   Cn4
 .byte   N96 ,Cn3 ,v073
 .byte   N96 ,Fn3 ,v066
 .byte   W12
 .byte   N11 ,Cs4 ,v069
 .byte   W11
 .byte   TEMPO , 114*SatorlMarsh_tbs/2
 .byte   N11 ,Ds4 ,v069
 .byte   W09
 .byte   TEMPO , 114*SatorlMarsh_tbs/2
 .byte   W03
 .byte   N11 ,Gs4 ,v069
 .byte   W06
 .byte   TEMPO , 114*SatorlMarsh_tbs/2
 .byte   W05
 .byte   N11 ,Cn5 ,v069
 .byte   W03
 .byte   TEMPO , 114*SatorlMarsh_tbs/2
 .byte   W08
 .byte   N11 ,Cs5 ,v069
 .byte   W01
 .byte   TEMPO , 114*SatorlMarsh_tbs/2
 .byte   W09
 .byte   TEMPO , 114*SatorlMarsh_tbs/2
 .byte   W01
 .byte   N11 ,Ds5 ,v069
 .byte   W08
 .byte   TEMPO , 112*SatorlMarsh_tbs/2
 .byte   W03
 .byte   N11 ,Gs5 ,v069
 .byte   W06
 .byte   TEMPO , 112*SatorlMarsh_tbs/2
 .byte   W06
 .byte   TEMPO , 114*SatorlMarsh_tbs/2
 .byte   N12 ,As2 ,v076
 .byte   N96 ,Fn2 ,v077
 .byte   N96 ,As1 ,v059
 .byte   W02
 .byte   N48 ,Fn2 ,v077
 .byte   N48 ,As1 ,v059
 .byte   W01
 .byte   N02
 .byte   N02 ,Fn2 ,v077
 .byte   W09
 .byte   N11 ,Cn3 ,v070
 .byte   W11
 .byte   Cs3 ,v073
 .byte   W11
 .byte   Fn3 ,v069
 .byte   W12
 .byte   As3
 .byte   N48 ,Cs3 ,v059
 .byte   N48 ,Fn3 ,v077
 .byte   W12
 .byte   N11 ,Cn4 ,v069
 .byte   W12
 .byte   Cs4
 .byte   W12
 .byte   Fn4
 .byte   W12
 .byte   As4
 .byte   N24 ,As2 ,v059
 .byte   N24 ,Ds3 ,v077
 .byte   W12
 .byte   N11 ,Cn5 ,v069
 .byte   W11
 .byte   Cs5
 .byte   N24 ,Fn3 ,v077
 .byte   N24 ,Cs3 ,v059
 .byte   W11
 .byte   N11 ,Fn5 ,v069
 .byte   W12
 .byte   N12 ,Cn3 ,v076
 .byte   N24 ,Gs3
 .byte   N96 ,Gs1 ,v059
 .byte   N96 ,Ds2 ,v077
 .byte   N01 ,Gs3 ,v076
 .byte   W01
 .byte   N48 ,Ds2 ,v077
 .byte   N48 ,Gs1 ,v059
 .byte   W01
 .byte   N02 ,Ds2 ,v077
 .byte   N02 ,Gs1 ,v059
 .byte   W09
 .byte   N11 ,Cs3 ,v070
 .byte   W11
 .byte   Ds3 ,v073
 .byte   N24 ,As3
 .byte   W11
 .byte   N11 ,Gs3 ,v069
 .byte   W12
 .byte   Cn4
 .byte   N96 ,Cn3 ,v073
 .byte   N96 ,Fn3 ,v066
 .byte   W12
 .byte   N11 ,Cs4 ,v069
 .byte   W11
 .byte   TEMPO , 114*SatorlMarsh_tbs/2
 .byte   N11 ,Ds4 ,v069
 .byte   W09
 .byte   TEMPO , 114*SatorlMarsh_tbs/2
 .byte   W03
 .byte   N11 ,Gs4 ,v069
 .byte   W06
 .byte   TEMPO , 114*SatorlMarsh_tbs/2
 .byte   W05
 .byte   N11 ,Cn5 ,v069
 .byte   W03
 .byte   TEMPO , 114*SatorlMarsh_tbs/2
 .byte   W08
 .byte   N11 ,Cs5 ,v069
 .byte   W01
 .byte   TEMPO , 114*SatorlMarsh_tbs/2
 .byte   W09
 .byte   TEMPO , 114*SatorlMarsh_tbs/2
 .byte   W01
 .byte   N11 ,Ds5 ,v069
 .byte   W08
 .byte   TEMPO , 112*SatorlMarsh_tbs/2
 .byte   W03
 .byte   N11 ,Gs5 ,v069
 .byte   W06
 .byte   TEMPO , 112*SatorlMarsh_tbs/2
 .byte   W06
 .byte   TEMPO , 114*SatorlMarsh_tbs/2
 .byte   N12 ,As2 ,v076
 .byte   N96 ,As1 ,v059
 .byte   N96 ,Fn2 ,v077
 .byte   W02
 .byte   N48 ,As1 ,v059
 .byte   N48 ,Fn2 ,v077
 .byte   W01
 .byte   N02
 .byte   N02 ,As1 ,v059
 .byte   W09
 .byte   N11 ,Cn3 ,v070
 .byte   W11
 .byte   Cs3 ,v073
 .byte   W11
 .byte   Fn3 ,v069
 .byte   W12
 .byte   As3
 .byte   N48 ,Cs3 ,v059
 .byte   N48 ,Fn3 ,v077
 .byte   W12
 .byte   N11 ,Cn4 ,v069
 .byte   W12
 .byte   Cs4
 .byte   W12
 .byte   Fn4
 .byte   W12
 .byte   As4
 .byte   N24 ,Ds3 ,v077
 .byte   N24 ,As2 ,v059
 .byte   W12
 .byte   N11 ,Cn5 ,v069
 .byte   W11
 .byte   Cs5
 .byte   N24 ,Cs3 ,v059
 .byte   N24 ,Fn3 ,v077
 .byte   W11
 .byte   N11 ,Fn5 ,v069
 .byte   W12
 .byte   N12 ,Cn3 ,v076
 .byte   N24 ,Gs3
 .byte   N96 ,Gs1 ,v059
 .byte   N96 ,Ds2 ,v077
 .byte   N01 ,Gs3 ,v076
 .byte   W01
 .byte   N48 ,Ds2 ,v077
 .byte   N48 ,Gs1 ,v059
 .byte   W01
 .byte   N02
 .byte   N02 ,Ds2 ,v077
 .byte   W09
 .byte   N11 ,Cs3 ,v070
 .byte   W11
 .byte   Ds3 ,v073
 .byte   N24 ,As3
 .byte   W11
 .byte   N11 ,Gs3 ,v069
 .byte   W12
 .byte   Cn4
 .byte   N24 ,Gs2 ,v059
 .byte   N24 ,Ds3 ,v077
 .byte   W12
 .byte   N11 ,Cs4 ,v069
 .byte   W11
 .byte   TEMPO , 114*SatorlMarsh_tbs/2
 .byte   N11 ,Ds4 ,v069
 .byte   N24 ,Fn3 ,v077
 .byte   N24 ,Cn3 ,v059
 .byte   W09
 .byte   TEMPO , 114*SatorlMarsh_tbs/2
 .byte   W03
 .byte   N11 ,Gs4 ,v069
 .byte   W06
 .byte   TEMPO , 114*SatorlMarsh_tbs/2
 .byte   W05
 .byte   N11 ,Cn5 ,v069
 .byte   N24 ,Cn3 ,v077
 .byte   N24 ,Gs2 ,v059
 .byte   W03
 .byte   TEMPO , 114*SatorlMarsh_tbs/2
 .byte   W08
 .byte   N11 ,Cs5 ,v069
 .byte   W01
 .byte   TEMPO , 114*SatorlMarsh_tbs/2
 .byte   W09
 .byte   TEMPO , 114*SatorlMarsh_tbs/2
 .byte   W01
 .byte   N11 ,Ds5 ,v069
 .byte   N24 ,As2 ,v059
 .byte   N24 ,Cs3 ,v077
 .byte   W08
 .byte   TEMPO , 112*SatorlMarsh_tbs/2
 .byte   W03
 .byte   N11 ,Gs5 ,v069
 .byte   W06
 .byte   TEMPO , 112*SatorlMarsh_tbs/2
 .byte   W06
 .byte   TEMPO , 114*SatorlMarsh_tbs/2
 .byte   N12 ,As2 ,v077
 .byte   N96 ,As1 ,v059
 .byte   N96 ,Fn2
 .byte   W02
 .byte   N48
 .byte   N48 ,As1
 .byte   W01
 .byte   N02 ,Fn2
 .byte   N02 ,As1
 .byte   W09
 .byte   N11 ,Cn3 ,v070
 .byte   W11
 .byte   Cs3 ,v073
 .byte   W11
 .byte   Fn3 ,v069
 .byte   W12
 .byte   As3
 .byte   W12
 .byte   Cn4
 .byte   W12
 .byte   Cs4
 .byte   W12
 .byte   Fn4
 .byte   W12
 .byte   As4
 .byte   W12
 .byte   Cn5
 .byte   W11
 .byte   Cs5
 .byte   W11
 .byte   Fn5
 .byte   W12
 .byte   N12 ,As5
 .byte   N96 ,Fn4 ,v059
 .byte   N96 ,Cs4
 .byte   N96 ,As3
 .byte   N96 ,Gs4 ,v077
 .byte   W02
 .byte   N36
 .byte   N36 ,As3 ,v059
 .byte   N36 ,Cs4
 .byte   N36 ,Fn4
 .byte   N01
 .byte   N01 ,Cs4
 .byte   N01 ,As3
 .byte   N01 ,Gs4 ,v077
 .byte   W09
 .byte   N11 ,Ds5 ,v066
 .byte   W11
 .byte   Fn5 ,v063
 .byte   W11
 .byte   Ds5 ,v060
 .byte   W12
 .byte   As5 ,v056
 .byte   W12
 .byte   Ds5 ,v054
 .byte   W12
 .byte   Fn5 ,v050
 .byte   W12
 .byte   Ds5 ,v047
 .byte   W12
 .byte   As5 ,v045
 .byte   W12
 .byte   Ds5 ,v042
 .byte   W11
 .byte   Fn5 ,v039
 .byte   W11
 .byte   GOTO
  .word SatorlMarsh_Label_0_00
 .byte   FINE

@**************** Track 2 (Midi-Chn.1) ****************@

SatorlMarsh_002:
@ 000   ----------------------------------------
SatorlMarsh_Label_1_00:
 .byte   KEYSH , SatorlMarsh_key+0
 .byte   VOICE , 0
 .byte   VOL , 46*SatorlMarsh_mvl/mxv
 .byte   PAN , c_v+0
 .byte   LFOS 44
 .byte   MODT 0
 .byte   TEMPO , 114*SatorlMarsh_tbs/2
 .byte   BENDR, 12
 .byte   BENDR, 12
 .byte   N12 ,As5 ,v031
 .byte   N24 ,As1
 .byte   W12
 .byte   N11 ,Ds5 ,v027
 .byte   W11
 .byte   Fn5 ,v029
 .byte   N24 ,Fn2
 .byte   W11
 .byte   N11 ,Ds5 ,v026
 .byte   W11
 .byte   N96 ,Cs3
 .byte   N11 ,As5
 .byte   N96 ,As3 ,v019
 .byte   N96 ,Fn3
 .byte   W01
 .byte   N01 ,Cs3 ,v026
 .byte   W10
 .byte   N11 ,Ds5
 .byte   W11
 .byte   TEMPO , 114*SatorlMarsh_tbs/2
 .byte   N11 ,Fn5 ,v026
 .byte   W09
 .byte   TEMPO , 114*SatorlMarsh_tbs/2
 .byte   W03
 .byte   N11 ,Ds5 ,v026
 .byte   W06
 .byte   TEMPO , 114*SatorlMarsh_tbs/2
 .byte   W05
@ 001   ----------------------------------------
 .byte   N11 ,As5 ,v026
 .byte   W03
 .byte   TEMPO , 112*SatorlMarsh_tbs/2
 .byte   W08
 .byte   N11 ,Ds5 ,v026
 .byte   W01
 .byte   TEMPO , 112*SatorlMarsh_tbs/2
 .byte   W09
 .byte   TEMPO , 112*SatorlMarsh_tbs/2
 .byte   W01
 .byte   N11 ,Fn5 ,v026
 .byte   W08
 .byte   TEMPO , 112*SatorlMarsh_tbs/2
 .byte   W03
 .byte   N11 ,Ds5 ,v026
 .byte   W06
 .byte   TEMPO , 110*SatorlMarsh_tbs/2
 .byte   W06
 .byte   N12 ,Gs5 ,v031
 .byte   N96 ,Ds3 ,v019
 .byte   N96 ,Gs3 ,v031
 .byte   N96 ,Cn3 ,v019
 .byte   W02
 .byte   N48 ,Ds3
 .byte   N48 ,Gs3 ,v031
 .byte   N48 ,Cn3 ,v019
 .byte   W01
 .byte   N02 ,Gs3 ,v031
 .byte   N02 ,Cn3 ,v019
 .byte   N02 ,Ds3
 .byte   W02
 .byte   TEMPO , 114*SatorlMarsh_tbs/2
 .byte   W07
 .byte   N11 ,Cs5 ,v027
 .byte   W11
 .byte   Ds5 ,v029
 .byte   W11
 .byte   Cs5 ,v026
 .byte   W12
@ 002   ----------------------------------------
 .byte   Gs5
 .byte   W12
 .byte   Cs5
 .byte   W12
 .byte   Ds5
 .byte   W12
 .byte   Cs5
 .byte   W12
 .byte   Gs5
 .byte   W12
 .byte   Cs5
 .byte   W11
 .byte   Ds5
 .byte   W11
 .byte   Cs5
 .byte   W12
@ 003   ----------------------------------------
 .byte   TEMPO , 114*SatorlMarsh_tbs/2
@ 004   ----------------------------------------
 .byte   BENDR, 12
 .byte   BENDR, 12
 .byte   N12 ,As5 ,v031
 .byte   N24 ,As1
 .byte   W12
 .byte   N11 ,Ds5 ,v027
 .byte   W11
 .byte   Fn5 ,v029
 .byte   N24 ,Fn2
 .byte   W11
 .byte   N11 ,Ds5 ,v026
 .byte   W11
 .byte   N96 ,Cs3
 .byte   N11 ,As5
 .byte   N96 ,Fn3 ,v019
 .byte   N96 ,As3
 .byte   W01
 .byte   N01 ,Cs3 ,v026
 .byte   W10
 .byte   N11 ,Ds5
 .byte   W11
 .byte   TEMPO , 114*SatorlMarsh_tbs/2
 .byte   N11 ,Fn5 ,v026
 .byte   W09
 .byte   TEMPO , 114*SatorlMarsh_tbs/2
 .byte   W03
 .byte   N11 ,Ds5 ,v026
 .byte   W06
 .byte   TEMPO , 114*SatorlMarsh_tbs/2
 .byte   W05
 .byte   N11 ,As5 ,v026
 .byte   W03
 .byte   TEMPO , 112*SatorlMarsh_tbs/2
 .byte   W08
 .byte   N11 ,Ds5 ,v026
 .byte   W01
 .byte   TEMPO , 112*SatorlMarsh_tbs/2
 .byte   W09
 .byte   TEMPO , 112*SatorlMarsh_tbs/2
 .byte   W01
 .byte   N11 ,Fn5 ,v026
 .byte   W08
 .byte   TEMPO , 112*SatorlMarsh_tbs/2
 .byte   W03
 .byte   N11 ,Ds5 ,v026
 .byte   W06
 .byte   TEMPO , 110*SatorlMarsh_tbs/2
 .byte   W06
 .byte   N12 ,Gs5 ,v031
 .byte   N96 ,Ds3 ,v019
 .byte   N96 ,Cn3
 .byte   N96 ,Gs3 ,v031
 .byte   W02
 .byte   N48 ,Cn3 ,v019
 .byte   N48 ,Gs3 ,v031
 .byte   N48 ,Ds3 ,v019
 .byte   W01
 .byte   N02
 .byte   N02 ,Cn3
 .byte   N02 ,Gs3 ,v031
 .byte   W02
 .byte   TEMPO , 114*SatorlMarsh_tbs/2
 .byte   W07
 .byte   N11 ,Cs5 ,v027
 .byte   W11
 .byte   Ds5 ,v029
 .byte   W11
 .byte   Cs5 ,v026
 .byte   W12
 .byte   Gs5
 .byte   W12
 .byte   Cs5
 .byte   W12
 .byte   Ds5
 .byte   W12
 .byte   Cs5
 .byte   W12
 .byte   Gs5
 .byte   W12
 .byte   Cs5
 .byte   W11
 .byte   Ds5
 .byte   W11
 .byte   Cs5
 .byte   W08
 .byte   N54 ,As2 ,v019
 .byte   W01
 .byte   N01
 .byte   N52 ,Fn3
 .byte   W01
 .byte   N01
 .byte   N12 ,As5 ,v031
 .byte   N48 ,As3
 .byte   W01
 .byte   N01
 .byte   W11
 .byte   N11 ,Ds5 ,v027
 .byte   W11
 .byte   Fn5 ,v029
 .byte   W11
 .byte   Ds5 ,v026
 .byte   W12
 .byte   As5
 .byte   N48 ,Fn4 ,v031
 .byte   N48 ,Cs4 ,v019
 .byte   W01
 .byte   N02
 .byte   W11
 .byte   N11 ,Ds5 ,v026
 .byte   W12
 .byte   Fn5
 .byte   W12
 .byte   Ds5
 .byte   W12
 .byte   As5
 .byte   N24 ,As3 ,v019
 .byte   N24 ,Ds4 ,v031
 .byte   N01 ,As3 ,v019
 .byte   W11
 .byte   N11 ,Ds5 ,v026
 .byte   W11
 .byte   Fn5
 .byte   N24 ,Fn4 ,v031
 .byte   N24 ,Cs4 ,v019
 .byte   N01
 .byte   W11
 .byte   N11 ,Ds5 ,v026
 .byte   W08
 .byte   N54 ,Gs3 ,v019
 .byte   W01
 .byte   N01
 .byte   N52 ,Ds4
 .byte   W01
 .byte   N01
 .byte   N12 ,Gs5 ,v031
 .byte   N48 ,Gs4
 .byte   W01
 .byte   N01
 .byte   W11
 .byte   N11 ,Cs5 ,v027
 .byte   W11
 .byte   Ds5 ,v029
 .byte   W11
 .byte   Cs5 ,v026
 .byte   W12
 .byte   Gs5
 .byte   N92 ,Cn4 ,v016
 .byte   N96 ,Fn4 ,v027
 .byte   W02
 .byte   N03 ,Cn4 ,v016
 .byte   W10
 .byte   N11 ,Cs5 ,v026
 .byte   W12
 .byte   Ds5
 .byte   W12
 .byte   Cs5
 .byte   W12
 .byte   Gs5
 .byte   W12
 .byte   Cs5
 .byte   W11
 .byte   Ds5
 .byte   W11
 .byte   Cs5
 .byte   W08
 .byte   N54 ,As2 ,v019
 .byte   W01
 .byte   N01
 .byte   N52 ,Fn3
 .byte   W01
 .byte   N01
 .byte   N12 ,As5 ,v031
 .byte   N48 ,As3
 .byte   W01
 .byte   N01
 .byte   W11
 .byte   N11 ,Ds5 ,v027
 .byte   W11
 .byte   Fn5 ,v029
 .byte   W11
 .byte   Ds5 ,v026
 .byte   W12
 .byte   As5
 .byte   N48 ,Cs4 ,v019
 .byte   N48 ,Fn4 ,v031
 .byte   W01
 .byte   N02 ,Cs4 ,v019
 .byte   W11
 .byte   N11 ,Ds5 ,v026
 .byte   W12
 .byte   Fn5
 .byte   W12
 .byte   Ds5
 .byte   W12
 .byte   As5
 .byte   N24 ,As3 ,v019
 .byte   N24 ,Ds4 ,v031
 .byte   N01 ,As3 ,v019
 .byte   W11
 .byte   N11 ,Ds5 ,v026
 .byte   W11
 .byte   Fn5
 .byte   N24 ,Cs4 ,v019
 .byte   N24 ,Fn4 ,v031
 .byte   N01 ,Cs4 ,v019
 .byte   W11
 .byte   N11 ,Ds5 ,v026
 .byte   W08
 .byte   N30 ,Gs3 ,v019
 .byte   W02
 .byte   N36 ,Ds4
 .byte   N02
 .byte   W01
 .byte   N12 ,Gs5 ,v031
 .byte   N24 ,Gs4
 .byte   N01
 .byte   W12
 .byte   N11 ,Cs5 ,v027
 .byte   W11
 .byte   N24 ,As4 ,v031
 .byte   N24 ,Fn4 ,v019
 .byte   W11
 .byte   N11 ,Cs5 ,v026
 .byte   W12
 .byte   Gs5
 .byte   N92 ,Cn4 ,v016
 .byte   N96 ,Fn4 ,v027
 .byte   W02
 .byte   N03 ,Cn4 ,v016
 .byte   W10
 .byte   N11 ,Cs5 ,v026
 .byte   W12
 .byte   Ds5
 .byte   W12
 .byte   Cs5
 .byte   W12
 .byte   Gs5
 .byte   W12
 .byte   Cs5
 .byte   W11
 .byte   Ds5
 .byte   W11
 .byte   Cs5
 .byte   W08
 .byte   N54 ,As2 ,v019
 .byte   W01
 .byte   N01
 .byte   N52 ,Fn3
 .byte   W01
 .byte   N01
 .byte   N12 ,As5 ,v031
 .byte   N48 ,As3
 .byte   W01
 .byte   N01
 .byte   W11
 .byte   N11 ,Ds5 ,v027
 .byte   W11
 .byte   Fn5 ,v029
 .byte   W11
 .byte   Ds5 ,v026
 .byte   W12
 .byte   As5
 .byte   N48 ,Fn4 ,v031
 .byte   N48 ,Cs4 ,v019
 .byte   W01
 .byte   N02
 .byte   W11
 .byte   N11 ,Ds5 ,v026
 .byte   W12
 .byte   Fn5
 .byte   W12
 .byte   Ds5
 .byte   W12
 .byte   As5
 .byte   N24 ,As3 ,v019
 .byte   N24 ,Ds4 ,v031
 .byte   N01 ,As3 ,v019
 .byte   W11
 .byte   N11 ,Ds5 ,v026
 .byte   W11
 .byte   Fn5
 .byte   N24 ,Fn4 ,v031
 .byte   N24 ,Cs4 ,v019
 .byte   N01
 .byte   W11
 .byte   N11 ,Ds5 ,v026
 .byte   W08
 .byte   N30 ,Gs3 ,v019
 .byte   W02
 .byte   N36 ,Ds4
 .byte   N02
 .byte   W01
 .byte   N12 ,Gs5 ,v031
 .byte   N24 ,Gs4
 .byte   N01
 .byte   W12
 .byte   N11 ,Cs5 ,v027
 .byte   W11
 .byte   N24 ,Fn4 ,v019
 .byte   N24 ,As4 ,v031
 .byte   N01 ,Fn4 ,v019
 .byte   W11
 .byte   N11 ,Cs5 ,v026
 .byte   W12
 .byte   Gs5
 .byte   N24 ,Gs3 ,v019
 .byte   N24 ,Ds4 ,v031
 .byte   N01 ,Gs3 ,v019
 .byte   W11
 .byte   N11 ,Cs5 ,v026
 .byte   W12
 .byte   Ds5
 .byte   N24 ,Cn4 ,v019
 .byte   N24 ,Fn4 ,v031
 .byte   W12
 .byte   N11 ,Cs5 ,v026
 .byte   W12
 .byte   Gs5
 .byte   N24 ,Gs3 ,v019
 .byte   N24 ,Cn4 ,v031
 .byte   N01 ,Gs3 ,v019
 .byte   W11
 .byte   N11 ,Cs5 ,v026
 .byte   W11
 .byte   Ds5
 .byte   N24 ,As3 ,v019
 .byte   N24 ,Cs4 ,v031
 .byte   W11
 .byte   N11 ,Cs5 ,v026
 .byte   W12
 .byte   N24 ,Fn3 ,v016
 .byte   N96 ,As3 ,v027
 .byte   N96 ,As2 ,v016
 .byte   W02
 .byte   N48
 .byte   N48 ,As3 ,v027
 .byte   W01
 .byte   N01 ,As2 ,v016
 .byte   N02 ,As3 ,v027
 .byte   W09
 .byte   N96 ,Fn4
 .byte   W02
 .byte   N36
 .byte   W09
 .byte   N11 ,Gs4 ,v029
 .byte   W11
 .byte   As4 ,v026
 .byte   W12
 .byte   Cs5
 .byte   W12
 .byte   Ds5
 .byte   W11
 .byte   TEMPO , 114*SatorlMarsh_tbs/2
 .byte   N11 ,Fn5 ,v026
 .byte   W09
 .byte   TEMPO , 114*SatorlMarsh_tbs/2
 .byte   W03
 .byte   N11 ,Gs5 ,v026
 .byte   W06
 .byte   TEMPO , 114*SatorlMarsh_tbs/2
 .byte   W05
 .byte   N11 ,Fn5 ,v026
 .byte   W03
 .byte   TEMPO , 112*SatorlMarsh_tbs/2
 .byte   W08
 .byte   N11 ,Gs5 ,v026
 .byte   W01
 .byte   TEMPO , 112*SatorlMarsh_tbs/2
 .byte   W09
 .byte   TEMPO , 112*SatorlMarsh_tbs/2
 .byte   W01
 .byte   N11 ,Fn5 ,v026
 .byte   W08
 .byte   TEMPO , 112*SatorlMarsh_tbs/2
 .byte   W03
 .byte   N11 ,Ds5 ,v026
 .byte   W06
 .byte   TEMPO , 110*SatorlMarsh_tbs/2
 .byte   W06
 .byte   N12 ,Cs5 ,v031
 .byte   W06
 .byte   TEMPO , 114*SatorlMarsh_tbs/2
 .byte   W07
 .byte   N11 ,Ds5 ,v026
 .byte   W11
 .byte   Cs5 ,v027
 .byte   W11
 .byte   As4 ,v028
 .byte   W12
 .byte   Gs4 ,v030
 .byte   W12
 .byte   As4 ,v031
 .byte   W12
 .byte   Gs4
 .byte   W12
 .byte   Fn4 ,v032
 .byte   W12
 .byte   Ds4 ,v033
 .byte   W12
 .byte   Fn4 ,v034
 .byte   W11
 .byte   Ds4 ,v035
 .byte   W11
 .byte   Cn4 ,v036
 .byte   W12
 .byte   N24 ,As1 ,v044
 .byte   N48 ,As4
 .byte   N01 ,As1
 .byte   N01 ,As4
 .byte   W11
 .byte   N11 ,Ds4 ,v039
 .byte   W11
 .byte   Fn4 ,v042
 .byte   N24 ,Fn2
 .byte   W11
 .byte   N11 ,Ds4 ,v038
 .byte   W12
 .byte   N48 ,Gs4
 .byte   N96 ,As2 ,v031
 .byte   N96 ,Cs3 ,v045
 .byte   W12
 .byte   N11 ,Ds4 ,v038
 .byte   W12
 .byte   Fn4
 .byte   W12
 .byte   Ds4
 .byte   W12
 .byte   N48 ,As4
 .byte   W12
 .byte   N11 ,Ds4
 .byte   W11
 .byte   Fn4
 .byte   W11
 .byte   Ds4
 .byte   W12
 .byte   N24 ,Gs1 ,v044
 .byte   N96 ,Gs4 ,v038
 .byte   N01 ,Gs1 ,v044
 .byte   W01
 .byte   Gs4 ,v038
 .byte   W10
 .byte   N11 ,Cs4 ,v039
 .byte   W11
 .byte   Ds4 ,v042
 .byte   N24 ,Ds2
 .byte   W11
 .byte   N11 ,Cs4 ,v038
 .byte   W12
 .byte   Gs3
 .byte   N96 ,Cn3 ,v045
 .byte   N96 ,Gs2 ,v031
 .byte   W12
 .byte   N11 ,Cs4 ,v038
 .byte   W12
 .byte   Ds4
 .byte   W12
 .byte   Cs4
 .byte   W12
 .byte   N48 ,Gs4
 .byte   W12
 .byte   N11 ,Cs4
 .byte   W11
 .byte   Ds4
 .byte   W11
 .byte   Cs4
 .byte   W12
 .byte   N24 ,As1 ,v044
 .byte   N48 ,As4
 .byte   N01 ,As1
 .byte   As4
 .byte   W11
 .byte   N11 ,Ds4 ,v039
 .byte   W11
 .byte   Fn4 ,v042
 .byte   N24 ,Fn2
 .byte   W11
 .byte   N11 ,Ds4 ,v038
 .byte   W12
 .byte   N48 ,Gs4
 .byte   N96 ,Cs3 ,v045
 .byte   N96 ,As2 ,v031
 .byte   W12
 .byte   N11 ,Ds4 ,v038
 .byte   W12
 .byte   Fn4
 .byte   W12
 .byte   Ds4
 .byte   W12
 .byte   N48 ,As4
 .byte   W12
 .byte   N11 ,Ds4
 .byte   W11
 .byte   Fn4
 .byte   W11
 .byte   Ds4
 .byte   W12
 .byte   N24 ,Gs1 ,v044
 .byte   N96 ,Cn5 ,v038
 .byte   N01 ,Gs1 ,v044
 .byte   W01
 .byte   Cn5 ,v038
 .byte   W10
 .byte   N11 ,Cs4 ,v039
 .byte   W11
 .byte   Ds4 ,v042
 .byte   N24 ,Ds2
 .byte   W11
 .byte   N11 ,Cs4 ,v038
 .byte   W12
 .byte   Gs3
 .byte   N96 ,Gs2 ,v031
 .byte   N96 ,Cn3 ,v045
 .byte   W12
 .byte   N11 ,Cs4 ,v038
 .byte   W12
 .byte   Ds4
 .byte   W12
 .byte   Cs4
 .byte   W12
 .byte   N48 ,Cn5
 .byte   W12
 .byte   N11 ,Cs4
 .byte   W11
 .byte   Ds4
 .byte   W11
 .byte   Cs4
 .byte   W12
 .byte   N24 ,As1 ,v044
 .byte   N96 ,Cs5 ,v038
 .byte   N01 ,As1 ,v044
 .byte   W01
 .byte   Cs5 ,v038
 .byte   W10
 .byte   N11 ,Ds4 ,v039
 .byte   W11
 .byte   Fn4 ,v042
 .byte   N24 ,Fn2
 .byte   W11
 .byte   N11 ,Ds4 ,v038
 .byte   W12
 .byte   As3
 .byte   N96 ,Cs3 ,v045
 .byte   N96 ,As2 ,v031
 .byte   W12
 .byte   N11 ,Ds4 ,v038
 .byte   W12
 .byte   Fn4
 .byte   W12
 .byte   Ds4
 .byte   W12
 .byte   N48 ,As4
 .byte   W12
 .byte   N11 ,Ds4
 .byte   W11
 .byte   Fn4
 .byte   W11
 .byte   Ds4
 .byte   W12
 .byte   N24 ,Gs1 ,v044
 .byte   N96 ,Gs4 ,v038
 .byte   N01 ,Gs1 ,v044
 .byte   W01
 .byte   Gs4 ,v038
 .byte   W10
 .byte   N11 ,Cs4 ,v039
 .byte   W11
 .byte   Ds4 ,v042
 .byte   N24 ,Ds2
 .byte   W11
 .byte   N11 ,Cs4 ,v038
 .byte   W12
 .byte   Gs3
 .byte   N96 ,Cn3 ,v045
 .byte   N96 ,Gs2 ,v031
 .byte   W12
 .byte   N11 ,Cs4 ,v038
 .byte   W12
 .byte   Ds4
 .byte   W12
 .byte   Cs4
 .byte   W12
 .byte   N48 ,Gs4
 .byte   W12
 .byte   N11 ,Cs4
 .byte   W11
 .byte   Ds4
 .byte   W11
 .byte   Cs4
 .byte   W12
 .byte   N12 ,As4 ,v044
 .byte   N24 ,As1
 .byte   N01
 .byte   W12
 .byte   N11 ,Fn3 ,v039
 .byte   W11
 .byte   Gs3 ,v042
 .byte   N24 ,Fn2
 .byte   W11
 .byte   N11 ,As3 ,v038
 .byte   W12
 .byte   Cs4
 .byte   N96 ,Cs3 ,v045
 .byte   N96 ,As2 ,v031
 .byte   W12
 .byte   N11 ,Ds4 ,v038
 .byte   W12
 .byte   Fn4
 .byte   W12
 .byte   Gs4
 .byte   W12
 .byte   Fn4
 .byte   W12
 .byte   Gs4
 .byte   W11
 .byte   Fn4
 .byte   W11
 .byte   Ds4
 .byte   W12
 .byte   N12 ,Cs4 ,v044
 .byte   N24 ,Gs1
 .byte   N01
 .byte   W12
 .byte   N11 ,Ds4 ,v039
 .byte   W11
 .byte   Cs4 ,v042
 .byte   N24 ,Ds2 ,v043
 .byte   W11
 .byte   N11 ,As3 ,v044
 .byte   W12
 .byte   Gs3 ,v047
 .byte   N84 ,Cn3 ,v054
 .byte   N92 ,Gs2 ,v038
 .byte   W12
 .byte   N11 ,As3 ,v049
 .byte   W12
 .byte   Gs3 ,v052
 .byte   W12
 .byte   Fn3 ,v054
 .byte   W12
 .byte   Ds3 ,v058
 .byte   W12
 .byte   Fn3 ,v060
 .byte   W11
 .byte   Ds3 ,v063
 .byte   W11
 .byte   N08 ,Cn3 ,v065
 .byte   W12
 .byte   N12 ,As2 ,v116
 .byte   N96 ,Fn2 ,v117
 .byte   N96 ,As1 ,v095
 .byte   W02
 .byte   N48
 .byte   N48 ,Fn2 ,v117
 .byte   W01
 .byte   N02 ,As1 ,v095
 .byte   N02 ,Fn2 ,v117
 .byte   W09
 .byte   N11 ,Cn3 ,v070
 .byte   W11
 .byte   Cs3 ,v073
 .byte   W11
 .byte   Fn3 ,v069
 .byte   W12
 .byte   As3
 .byte   N48 ,Fn3 ,v117
 .byte   N48 ,Cs3 ,v095
 .byte   W12
 .byte   N11 ,Cn4 ,v069
 .byte   W12
 .byte   Cs4
 .byte   W12
 .byte   Fn4
 .byte   W12
 .byte   As4
 .byte   N24 ,As2 ,v095
 .byte   N24 ,Ds3 ,v117
 .byte   W12
 .byte   N11 ,Cn5 ,v069
 .byte   W11
 .byte   Cs5
 .byte   N24 ,Fn3 ,v117
 .byte   N24 ,Cs3 ,v095
 .byte   W11
 .byte   N11 ,Fn5 ,v069
 .byte   W12
 .byte   N12 ,Cn3 ,v076
 .byte   N36 ,Gs3
 .byte   N96 ,Gs1 ,v095
 .byte   N96 ,Ds2 ,v117
 .byte   N01 ,Gs3 ,v076
 .byte   W01
 .byte   N48 ,Ds2 ,v117
 .byte   N48 ,Gs1 ,v095
 .byte   W01
 .byte   N02
 .byte   N02 ,Ds2 ,v117
 .byte   W09
 .byte   N11 ,Cs3 ,v070
 .byte   W11
 .byte   Ds3 ,v073
 .byte   W11
 .byte   Gs3 ,v069
 .byte   W12
 .byte   Cn4
 .byte   N96 ,Fn3 ,v105
 .byte   N96 ,Cn3 ,v112
 .byte   W12
 .byte   N11 ,Cs4 ,v069
 .byte   W11
 .byte   TEMPO , 114*SatorlMarsh_tbs/2
 .byte   N11 ,Ds4 ,v069
 .byte   W09
 .byte   TEMPO , 114*SatorlMarsh_tbs/2
 .byte   W03
 .byte   N11 ,Gs4 ,v069
 .byte   W06
 .byte   TEMPO , 114*SatorlMarsh_tbs/2
 .byte   W05
 .byte   N11 ,Cn5 ,v069
 .byte   W03
 .byte   TEMPO , 114*SatorlMarsh_tbs/2
 .byte   W08
 .byte   N11 ,Cs5 ,v069
 .byte   W01
 .byte   TEMPO , 114*SatorlMarsh_tbs/2
 .byte   W09
 .byte   TEMPO , 114*SatorlMarsh_tbs/2
 .byte   W01
 .byte   N11 ,Ds5 ,v069
 .byte   W08
 .byte   TEMPO , 112*SatorlMarsh_tbs/2
 .byte   W03
 .byte   N11 ,Gs5 ,v069
 .byte   W06
 .byte   TEMPO , 112*SatorlMarsh_tbs/2
 .byte   W06
 .byte   TEMPO , 114*SatorlMarsh_tbs/2
 .byte   N12 ,As2 ,v116
 .byte   N96 ,As1 ,v095
 .byte   N96 ,Fn2 ,v117
 .byte   W02
 .byte   N48 ,As1 ,v095
 .byte   N48 ,Fn2 ,v117
 .byte   W01
 .byte   N02
 .byte   N02 ,As1 ,v095
 .byte   W09
 .byte   N11 ,Cn3 ,v070
 .byte   W11
 .byte   Cs3 ,v073
 .byte   W11
 .byte   Fn3 ,v069
 .byte   W12
 .byte   As3
 .byte   N48 ,Fn3 ,v117
 .byte   N48 ,Cs3 ,v095
 .byte   W12
 .byte   N11 ,Cn4 ,v069
 .byte   W12
 .byte   Cs4
 .byte   W12
 .byte   Fn4
 .byte   W12
 .byte   As4
 .byte   N24 ,Ds3 ,v117
 .byte   N24 ,As2 ,v095
 .byte   W12
 .byte   N11 ,Cn5 ,v069
 .byte   W11
 .byte   Cs5
 .byte   N24 ,Cs3 ,v095
 .byte   N24 ,Fn3 ,v117
 .byte   W11
 .byte   N11 ,Fn5 ,v069
 .byte   W12
 .byte   N12 ,Cn3 ,v076
 .byte   N24 ,Gs3
 .byte   N96 ,Ds2 ,v117
 .byte   N96 ,Gs1 ,v095
 .byte   N01 ,Gs3 ,v076
 .byte   W01
 .byte   N48 ,Gs1 ,v095
 .byte   N48 ,Ds2 ,v117
 .byte   W01
 .byte   N02 ,Gs1 ,v095
 .byte   N02 ,Ds2 ,v117
 .byte   W09
 .byte   N11 ,Cs3 ,v070
 .byte   W11
 .byte   Ds3 ,v073
 .byte   N24 ,As3
 .byte   W11
 .byte   N11 ,Gs3 ,v069
 .byte   W12
 .byte   Cn4
 .byte   N96 ,Fn3 ,v105
 .byte   N96 ,Cn3 ,v112
 .byte   W12
 .byte   N11 ,Cs4 ,v069
 .byte   W11
 .byte   TEMPO , 114*SatorlMarsh_tbs/2
 .byte   N11 ,Ds4 ,v069
 .byte   W09
 .byte   TEMPO , 114*SatorlMarsh_tbs/2
 .byte   W03
 .byte   N11 ,Gs4 ,v069
 .byte   W06
 .byte   TEMPO , 114*SatorlMarsh_tbs/2
 .byte   W05
 .byte   N11 ,Cn5 ,v069
 .byte   W03
 .byte   TEMPO , 114*SatorlMarsh_tbs/2
 .byte   W08
 .byte   N11 ,Cs5 ,v069
 .byte   W01
 .byte   TEMPO , 114*SatorlMarsh_tbs/2
 .byte   W09
 .byte   TEMPO , 114*SatorlMarsh_tbs/2
 .byte   W01
 .byte   N11 ,Ds5 ,v069
 .byte   W08
 .byte   TEMPO , 112*SatorlMarsh_tbs/2
 .byte   W03
 .byte   N11 ,Gs5 ,v069
 .byte   W06
 .byte   TEMPO , 112*SatorlMarsh_tbs/2
 .byte   W06
 .byte   TEMPO , 114*SatorlMarsh_tbs/2
 .byte   N12 ,As2 ,v116
 .byte   N96 ,As1 ,v095
 .byte   N96 ,Fn2 ,v117
 .byte   W02
 .byte   N48
 .byte   N48 ,As1 ,v095
 .byte   W01
 .byte   N02 ,Fn2 ,v117
 .byte   N02 ,As1 ,v095
 .byte   W09
 .byte   N11 ,Cn3 ,v070
 .byte   W11
 .byte   Cs3 ,v073
 .byte   W11
 .byte   Fn3 ,v069
 .byte   W12
 .byte   As3
 .byte   N48 ,Fn3 ,v117
 .byte   N48 ,Cs3 ,v095
 .byte   W12
 .byte   N11 ,Cn4 ,v069
 .byte   W12
 .byte   Cs4
 .byte   W12
 .byte   Fn4
 .byte   W12
 .byte   As4
 .byte   N24 ,As2 ,v095
 .byte   N24 ,Ds3 ,v117
 .byte   W12
 .byte   N11 ,Cn5 ,v069
 .byte   W11
 .byte   Cs5
 .byte   N24 ,Cs3 ,v095
 .byte   N24 ,Fn3 ,v117
 .byte   W11
 .byte   N11 ,Fn5 ,v069
 .byte   W12
 .byte   N12 ,Cn3 ,v076
 .byte   N24 ,Gs3
 .byte   N96 ,Ds2 ,v117
 .byte   N96 ,Gs1 ,v095
 .byte   N01 ,Gs3 ,v076
 .byte   W01
 .byte   N48 ,Gs1 ,v095
 .byte   N48 ,Ds2 ,v117
 .byte   W01
 .byte   N02 ,Gs1 ,v095
 .byte   N02 ,Ds2 ,v117
 .byte   W09
 .byte   N11 ,Cs3 ,v070
 .byte   W11
 .byte   Ds3 ,v073
 .byte   N24 ,As3
 .byte   W11
 .byte   N11 ,Gs3 ,v069
 .byte   W12
 .byte   Cn4
 .byte   N24 ,Ds3 ,v117
 .byte   N24 ,Gs2 ,v095
 .byte   W12
 .byte   N11 ,Cs4 ,v069
 .byte   W11
 .byte   TEMPO , 114*SatorlMarsh_tbs/2
 .byte   N11 ,Ds4 ,v069
 .byte   N24 ,Fn3 ,v117
 .byte   N24 ,Cn3 ,v095
 .byte   W09
 .byte   TEMPO , 114*SatorlMarsh_tbs/2
 .byte   W03
 .byte   N11 ,Gs4 ,v069
 .byte   W06
 .byte   TEMPO , 114*SatorlMarsh_tbs/2
 .byte   W05
 .byte   N11 ,Cn5 ,v069
 .byte   N24 ,Cn3 ,v117
 .byte   N24 ,Gs2 ,v095
 .byte   W03
 .byte   TEMPO , 114*SatorlMarsh_tbs/2
 .byte   W08
 .byte   N11 ,Cs5 ,v069
 .byte   W01
 .byte   TEMPO , 114*SatorlMarsh_tbs/2
 .byte   W09
 .byte   TEMPO , 114*SatorlMarsh_tbs/2
 .byte   W01
 .byte   N11 ,Ds5 ,v069
 .byte   N24 ,Cs3 ,v117
 .byte   N24 ,As2 ,v095
 .byte   W08
 .byte   TEMPO , 112*SatorlMarsh_tbs/2
 .byte   W03
 .byte   N11 ,Gs5 ,v069
 .byte   W06
 .byte   TEMPO , 112*SatorlMarsh_tbs/2
 .byte   W06
 .byte   TEMPO , 114*SatorlMarsh_tbs/2
 .byte   N12 ,As2 ,v117
 .byte   N96 ,Fn2 ,v095
 .byte   N96 ,As1
 .byte   W02
 .byte   N01 ,Fn2
 .byte   N01 ,As1
 .byte   W10
 .byte   N11 ,Cn3 ,v070
 .byte   W11
 .byte   Cs3 ,v073
 .byte   W11
 .byte   Fn3 ,v069
 .byte   W12
 .byte   As3
 .byte   W12
 .byte   Cn4
 .byte   W12
 .byte   Cs4
 .byte   W12
 .byte   Fn4
 .byte   W12
 .byte   As3 ,v108
 .byte   W12
 .byte   Cn4
 .byte   W11
 .byte   Cs4
 .byte   W11
 .byte   Fn4
 .byte   W12
 .byte   N12 ,As4 ,v076
 .byte   W13
 .byte   N11 ,Cn5 ,v070
 .byte   W11
 .byte   Cs5 ,v073
 .byte   W11
 .byte   Fn5 ,v069
 .byte   W12
 .byte   Ds5
 .byte   N48 ,Gs3 ,v077
 .byte   N48 ,Ds3 ,v059
 .byte   N48 ,Cn3
 .byte   W12
 .byte   N11 ,Cn5 ,v069
 .byte   W12
 .byte   Gs4
 .byte   W12
 .byte   Ds4
 .byte   W12
 .byte   Cn4
 .byte   W12
 .byte   Gs3
 .byte   W11
 .byte   Ds3
 .byte   W11
 .byte   Cn3
 .byte   W12
 .byte   N24 ,As1 ,v076
 .byte   N48 ,As2
 .byte   N01 ,As1
 .byte   As2
 .byte   W23
 .byte   N24 ,Fn2 ,v073
 .byte   W24
 .byte   N48 ,Fn3 ,v059
 .byte   N48 ,Cs4
 .byte   N48 ,Fn4 ,v077
 .byte   N96 ,Cs3
 .byte   N96 ,As2 ,v059
 .byte   W48
 .byte   N24 ,Ds3
 .byte   N24 ,Ds4 ,v077
 .byte   N24 ,Cn4 ,v059
 .byte   W24
 .byte   Fn3
 .byte   N24 ,Cs4
 .byte   N24 ,Fn4 ,v077
 .byte   W24
 .byte   Gs4 ,v084
 .byte   N24 ,Gs3 ,v065
 .byte   N24 ,Gs1 ,v076
 .byte   N24 ,Cn4 ,v065
 .byte   N01 ,Gs3
 .byte   N01 ,Cn4
 .byte   N01 ,Gs1 ,v076
 .byte   N01 ,Gs4 ,v084
 .byte   W24
 .byte   N24 ,Cs4 ,v063
 .byte   N24 ,As3
 .byte   N24 ,Ds2 ,v073
 .byte   N24 ,As4 ,v081
 .byte   W24
 .byte   N48 ,Gs3 ,v059
 .byte   N48 ,Cn4
 .byte   N48 ,Gs4 ,v077
 .byte   N96 ,Cn3
 .byte   N96 ,Gs2 ,v059
 .byte   W48
 .byte   N24 ,Fn3
 .byte   N24 ,Fn4 ,v077
 .byte   N24 ,Cs4 ,v059
 .byte   W24
 .byte   Ds3
 .byte   N24 ,Cn4
 .byte   N24 ,Ds4 ,v077
 .byte   W24
 .byte   Cs1 ,v074
 .byte   N48 ,Cn4 ,v065
 .byte   N48 ,Ds3
 .byte   N48 ,Ds4 ,v084
 .byte   N01 ,Cs1 ,v074
 .byte   N01 ,Ds3 ,v065
 .byte   N01 ,Cn4
 .byte   N01 ,Ds4 ,v084
 .byte   W23
 .byte   N24 ,Cs2 ,v073
 .byte   W24
 .byte   N48 ,Gs2 ,v059
 .byte   N48 ,Cn3 ,v077
 .byte   N72 ,Fn3 ,v059
 .byte   N72 ,Cs4
 .byte   N72 ,Fn4 ,v077
 .byte   W48
 .byte   N48 ,Fn2 ,v069
 .byte   W24
 .byte   N24 ,Gs3
 .byte   W24
 .byte   Cn4 ,v076
 .byte   N24 ,Fn1
 .byte   N01 ,Cn4
 .byte   N01 ,Fn1
 .byte   W24
 .byte   N11 ,As3 ,v073
 .byte   N24 ,Cn2
 .byte   W11
 .byte   N11 ,Cn4 ,v069
 .byte   W12
 .byte   N24 ,Gs3
 .byte   N96 ,Gs2 ,v077
 .byte   N96 ,Fn2 ,v059
 .byte   W24
 .byte   N24 ,Fn3 ,v069
 .byte   W24
 .byte   Ds3
 .byte   W24
 .byte   Cn3
 .byte   W24
 .byte   Fs1 ,v076
 .byte   N48 ,As2
 .byte   N01 ,Fs1
 .byte   As2
 .byte   W23
 .byte   N24 ,Cs2 ,v073
 .byte   W24
 .byte   N48 ,Fn3 ,v059
 .byte   N48 ,Cs4
 .byte   N48 ,Fn4 ,v077
 .byte   N96 ,As2
 .byte   N96 ,Fs2 ,v059
 .byte   W48
 .byte   N24 ,Ds4 ,v077
 .byte   N24 ,Cn4 ,v059
 .byte   N24 ,Ds3
 .byte   W24
 .byte   Fn3
 .byte   N24 ,Cs4
 .byte   N24 ,Fn4 ,v077
 .byte   W24
 .byte   Gs4 ,v084
 .byte   N24 ,Gs3 ,v065
 .byte   N24 ,Gs1 ,v076
 .byte   N24 ,Cn4 ,v065
 .byte   N01 ,Gs3
 .byte   N01 ,Cn4
 .byte   N01 ,Gs1 ,v076
 .byte   N01 ,Gs4 ,v084
 .byte   W24
 .byte   N24 ,Cs4 ,v063
 .byte   N24 ,As3
 .byte   N24 ,Ds2 ,v073
 .byte   N24 ,As4 ,v081
 .byte   W24
 .byte   Gs3 ,v059
 .byte   N24 ,Cn4
 .byte   N24 ,Gs4 ,v077
 .byte   N96 ,Cn3
 .byte   N96 ,Gs2 ,v059
 .byte   W24
 .byte   N24 ,Cs4
 .byte   N24 ,As4 ,v077
 .byte   N24 ,As3 ,v059
 .byte   W24
 .byte   Fn3
 .byte   N24 ,Fn4 ,v077
 .byte   N24 ,Cs4 ,v059
 .byte   W24
 .byte   Ds3
 .byte   N24 ,Cn4
 .byte   N24 ,Ds4 ,v077
 .byte   W24
 .byte   Cs1 ,v074
 .byte   N48 ,Ds4 ,v084
 .byte   N48 ,Ds3 ,v065
 .byte   N48 ,Cn4
 .byte   N01 ,Cs1 ,v074
 .byte   N01 ,Ds3 ,v065
 .byte   N01 ,Cn4
 .byte   N01 ,Ds4 ,v084
 .byte   W23
 .byte   N24 ,Cs2 ,v073
 .byte   W24
 .byte   N48 ,Gs2 ,v059
 .byte   N48 ,Cn3 ,v077
 .byte   N72 ,Fn3 ,v059
 .byte   N72 ,Cs4
 .byte   N72 ,Fn4 ,v077
 .byte   W48
 .byte   N48 ,Fn2 ,v069
 .byte   W24
 .byte   N24 ,As3
 .byte   W20
 .byte   N52 ,Cn3 ,v065
 .byte   W01
 .byte   N01
 .byte   N48 ,Fn3
 .byte   W01
 .byte   N03
 .byte   N24 ,Fn1 ,v076
 .byte   N48 ,An3 ,v084
 .byte   N01 ,Fn1 ,v076
 .byte   An3 ,v084
 .byte   W23
 .byte   N24 ,Cn2 ,v073
 .byte   W24
 .byte   Cn3 ,v059
 .byte   N24 ,Ds3
 .byte   N24 ,Fn3 ,v077
 .byte   N48 ,Fn2 ,v059
 .byte   N48 ,An2 ,v077
 .byte   W24
 .byte   N24 ,An3 ,v059
 .byte   N24 ,Cn4
 .byte   N24 ,An4 ,v077
 .byte   W24
 .byte   As3 ,v059
 .byte   N24 ,Cs4
 .byte   N24 ,As4 ,v077
 .byte   N48 ,Fn1 ,v069
 .byte   W24
 .byte   N24 ,Cn4 ,v059
 .byte   N24 ,Ds4
 .byte   N24 ,Cn5 ,v077
 .byte   W24
 .byte   Fn4 ,v065
 .byte   N24 ,Cs4
 .byte   N24 ,Cs5 ,v084
 .byte   N24 ,Fs1 ,v076
 .byte   N01 ,Cs5 ,v084
 .byte   N01 ,Cs4 ,v065
 .byte   N01 ,Fs1 ,v076
 .byte   N01 ,Fn4 ,v065
 .byte   W24
 .byte   N24 ,Ds4 ,v063
 .byte   N24 ,Cn4
 .byte   N24 ,Cs2 ,v073
 .byte   N24 ,Cn5 ,v081
 .byte   W24
 .byte   As3 ,v059
 .byte   N24 ,Cs4
 .byte   N24 ,As4 ,v077
 .byte   N96 ,As2
 .byte   N96 ,Fs2 ,v059
 .byte   W24
 .byte   N24 ,Gs3
 .byte   N24 ,Gs4 ,v077
 .byte   N24 ,Cn4 ,v059
 .byte   W24
 .byte   N48 ,Fn3
 .byte   N48 ,Gs3
 .byte   N48 ,Fn4 ,v077
 .byte   W48
 .byte   N24 ,As3 ,v065
 .byte   N24 ,Ds3
 .byte   N24 ,Ds4 ,v084
 .byte   N24 ,Gs1 ,v076
 .byte   N01 ,Ds4 ,v084
 .byte   N01 ,Ds3 ,v065
 .byte   N01 ,Gs1 ,v076
 .byte   N01 ,As3 ,v065
 .byte   W24
 .byte   N24 ,Gs3 ,v063
 .byte   N24 ,Fn3
 .byte   N24 ,Ds2 ,v073
 .byte   N24 ,Fn4 ,v081
 .byte   W24
 .byte   N48 ,Cn4 ,v059
 .byte   N48 ,Gs3
 .byte   N48 ,Gs4 ,v077
 .byte   N48 ,Cn3
 .byte   N48 ,Gs2 ,v059
 .byte   W48
 .byte   N24 ,Gs3
 .byte   N24 ,Cn4
 .byte   N24 ,Gs4 ,v077
 .byte   N48 ,Gs1 ,v069
 .byte   W24
 .byte   N24 ,As3 ,v059
 .byte   N24 ,Cs4
 .byte   N24 ,As4 ,v077
 .byte   W24
 .byte   Ds4 ,v065
 .byte   N24 ,Cn4
 .byte   N24 ,Cn5 ,v084
 .byte   N24 ,Fn1 ,v076
 .byte   N01 ,Cn4 ,v065
 .byte   N01 ,Ds4
 .byte   N01 ,Cn5 ,v084
 .byte   N01 ,Fn1 ,v076
 .byte   W24
 .byte   N24 ,Cs4 ,v061
 .byte   N24 ,As3
 .byte   N24 ,Cn2 ,v073
 .byte   N24 ,As4 ,v080
 .byte   W24
 .byte   Cn4 ,v065
 .byte   N24 ,Ds4
 .byte   N24 ,Cn5 ,v084
 .byte   N96 ,Fn2 ,v066
 .byte   N96 ,Gs2 ,v085
 .byte   W24
 .byte   N24 ,Fn4 ,v069
 .byte   N24 ,Cs5 ,v088
 .byte   N24 ,Cs4 ,v069
 .byte   W24
 .byte   Ds4 ,v073
 .byte   N24 ,Ds5 ,v092
 .byte   N24 ,As4 ,v073
 .byte   W24
 .byte   Fn4 ,v077
 .byte   N24 ,Gs4
 .byte   N24 ,Fn5 ,v097
 .byte   W24
 .byte   As1 ,v106
 .byte   N48 ,Ds5 ,v109
 .byte   N48 ,Ds4 ,v088
 .byte   N48 ,As4
 .byte   N01 ,As1 ,v106
 .byte   Ds4 ,v088
 .byte   N01 ,As4
 .byte   N01 ,Ds5 ,v109
 .byte   W23
 .byte   N24 ,Fn2 ,v103
 .byte   W24
 .byte   N48 ,As2 ,v087
 .byte   N48 ,Cs3 ,v108
 .byte   N96 ,As4 ,v081
 .byte   N96 ,Cs4
 .byte   N96 ,Cs5 ,v101
 .byte   W23
 .byte   TEMPO , 114*SatorlMarsh_tbs/2
 .byte   W09
 .byte   TEMPO , 114*SatorlMarsh_tbs/2
 .byte   W09
 .byte   TEMPO , 114*SatorlMarsh_tbs/2
 .byte   W05
 .byte   N48 ,As1 ,v098
 .byte   W03
 .byte   TEMPO , 112*SatorlMarsh_tbs/2
 .byte   W09
 .byte   TEMPO , 112*SatorlMarsh_tbs/2
 .byte   W09
 .byte   TEMPO , 112*SatorlMarsh_tbs/2
 .byte   W09
 .byte   TEMPO , 112*SatorlMarsh_tbs/2
 .byte   W09
 .byte   TEMPO , 110*SatorlMarsh_tbs/2
 .byte   W06
 .byte   N24 ,Ds1 ,v105
 .byte   N48 ,Fn4 ,v088
 .byte   N48 ,As3
 .byte   N48 ,As4 ,v109
 .byte   N01 ,Ds1 ,v105
 .byte   N01 ,As3 ,v088
 .byte   N01 ,Fn4
 .byte   N01 ,As4 ,v109
 .byte   W04
 .byte   TEMPO , 114*SatorlMarsh_tbs/2
 .byte   W19
 .byte   N24 ,As1 ,v103
 .byte   W24
 .byte   N48 ,Fn4 ,v081
 .byte   N48 ,As4
 .byte   N48 ,Fn5 ,v101
 .byte   N96 ,As2 ,v108
 .byte   N96 ,Fs2 ,v087
 .byte   N96 ,Ds2
 .byte   W48
 .byte   N24 ,Ds5 ,v101
 .byte   N24 ,As4 ,v081
 .byte   N24 ,Ds4
 .byte   W24
 .byte   Fn4
 .byte   N24 ,As4
 .byte   N24 ,Fn5 ,v101
 .byte   W24
 .byte   Gs5 ,v109
 .byte   N24 ,Gs4 ,v088
 .byte   N24 ,Fn1 ,v106
 .byte   N24 ,Cn5 ,v088
 .byte   N01 ,Gs4
 .byte   N01 ,Cn5
 .byte   N01 ,Fn1 ,v106
 .byte   N01 ,Gs5 ,v109
 .byte   W24
 .byte   N24 ,As4 ,v077
 .byte   N24 ,As5 ,v097
 .byte   N24 ,Cn2 ,v073
 .byte   W24
 .byte   Ds4
 .byte   N24 ,Gs4
 .byte   N24 ,Ds5 ,v092
 .byte   N96 ,Gs2 ,v077
 .byte   N96 ,Fn2 ,v059
 .byte   W23
 .byte   TEMPO , 114*SatorlMarsh_tbs/2
 .byte   N24 ,Fn4 ,v068
 .byte   N24 ,Fn5 ,v087
 .byte   W16
 .byte   TEMPO , 110*SatorlMarsh_tbs/2
 .byte   W07
 .byte   N24 ,Cn4 ,v064
 .byte   N24 ,Cn5 ,v082
 .byte   N24 ,Ds4 ,v064
 .byte   W10
 .byte   TEMPO , 106*SatorlMarsh_tbs/2
 .byte   W14
 .byte   N24 ,Cs4 ,v060
 .byte   N24 ,Cs5 ,v078
 .byte   W03
 .byte   TEMPO , 102*SatorlMarsh_tbs/2
 .byte   W17
 .byte   TEMPO , 98*SatorlMarsh_tbs/2
 .byte   W03
 .byte   N24 ,As1 ,v076
 .byte   N96 ,As3 ,v059
 .byte   N96 ,As4 ,v077
 .byte   N96 ,Fn4 ,v059
 .byte   N01 ,As1 ,v076
 .byte   W01
 .byte   N48 ,Fn4 ,v059
 .byte   N48 ,As4 ,v077
 .byte   N48 ,As3 ,v059
 .byte   W01
 .byte   N02 ,As4 ,v077
 .byte   N02 ,Fn4 ,v059
 .byte   N02 ,As3
 .byte   W10
 .byte   TEMPO , 94*SatorlMarsh_tbs/2
 .byte   W11
 .byte   N24 ,Fn2 ,v073
 .byte   W06
 .byte   TEMPO , 90*SatorlMarsh_tbs/2
 .byte   W17
 .byte   TEMPO , 66*SatorlMarsh_tbs/2
 .byte   N84 ,As2 ,v059
 .byte   N84 ,Cs3 ,v077
 .byte   W02
 .byte   N02 ,As2 ,v059
 .byte   N02 ,Cs3 ,v077
 .byte   W90
 .byte   N76 ,Cs3 ,v065
 .byte   W01
 .byte   N01
 .byte   N72 ,Fn3
 .byte   W01
 .byte   N03
 .byte   TEMPO , 114*SatorlMarsh_tbs/2
 .byte   N12 ,As5 ,v076
 .byte   N48 ,Cs5
 .byte   N72 ,As3 ,v084
 .byte   W01
 .byte   N01 ,Cs5 ,v076
 .byte   As3 ,v084
 .byte   W11
 .byte   N11 ,Ds5 ,v070
 .byte   W11
 .byte   Fn5 ,v073
 .byte   W11
 .byte   Ds5 ,v069
 .byte   W12
 .byte   As5
 .byte   N48 ,Cs5
 .byte   W12
 .byte   N11 ,Ds5
 .byte   W11
 .byte   TEMPO , 114*SatorlMarsh_tbs/2
 .byte   N11 ,Fn5 ,v069
 .byte   N24 ,As3
 .byte   W09
 .byte   TEMPO , 114*SatorlMarsh_tbs/2
 .byte   W03
 .byte   N11 ,Ds5 ,v069
 .byte   W06
 .byte   TEMPO , 114*SatorlMarsh_tbs/2
 .byte   W05
 .byte   N11 ,As5 ,v069
 .byte   N48 ,As3
 .byte   N48 ,Cs5
 .byte   W03
 .byte   TEMPO , 112*SatorlMarsh_tbs/2
 .byte   W08
 .byte   N11 ,Ds5 ,v069
 .byte   W01
 .byte   TEMPO , 112*SatorlMarsh_tbs/2
 .byte   W09
 .byte   TEMPO , 112*SatorlMarsh_tbs/2
 .byte   W01
 .byte   N11 ,Fn5 ,v069
 .byte   W08
 .byte   TEMPO , 112*SatorlMarsh_tbs/2
 .byte   W03
 .byte   N11 ,Ds5 ,v069
 .byte   W06
 .byte   TEMPO , 110*SatorlMarsh_tbs/2
 .byte   W02
 .byte   N52 ,Cn3 ,v065
 .byte   W01
 .byte   N01
 .byte   N48 ,Ds3
 .byte   W01
 .byte   N03
 .byte   N12 ,Gs5 ,v076
 .byte   N48 ,Gs3 ,v084
 .byte   N48 ,Cn5 ,v076
 .byte   W01
 .byte   N01
 .byte   N01 ,Gs3 ,v084
 .byte   W04
 .byte   TEMPO , 114*SatorlMarsh_tbs/2
 .byte   W07
 .byte   N11 ,Cs5 ,v070
 .byte   W11
 .byte   Ds5 ,v073
 .byte   W11
 .byte   Cs5 ,v069
 .byte   W12
 .byte   Gs5
 .byte   N48 ,Cn5
 .byte   N96 ,Gs3
 .byte   W12
 .byte   N11 ,Cs5
 .byte   W12
 .byte   Ds5
 .byte   W12
 .byte   Cs5
 .byte   W12
 .byte   Gs5
 .byte   N48 ,Cn5
 .byte   W12
 .byte   N11 ,Cs5
 .byte   W11
 .byte   Ds5
 .byte   W11
 .byte   Cs5
 .byte   W08
 .byte   N76 ,Cs3 ,v065
 .byte   W01
 .byte   N01
 .byte   N72 ,Fn3
 .byte   W01
 .byte   N03
 .byte   N12 ,As5 ,v076
 .byte   N48 ,Cs5
 .byte   N72 ,As3 ,v084
 .byte   W01
 .byte   N01 ,Cs5 ,v076
 .byte   N01 ,As3 ,v084
 .byte   W11
 .byte   N11 ,Ds5 ,v070
 .byte   W11
 .byte   Fn5 ,v073
 .byte   W11
 .byte   Ds5 ,v069
 .byte   W12
 .byte   As5
 .byte   N48 ,Cs5
 .byte   W12
 .byte   N11 ,Ds5
 .byte   W11
 .byte   TEMPO , 114*SatorlMarsh_tbs/2
 .byte   N11 ,Fn5 ,v069
 .byte   N24 ,As3
 .byte   W09
 .byte   TEMPO , 114*SatorlMarsh_tbs/2
 .byte   W03
 .byte   N11 ,Ds5 ,v069
 .byte   W06
 .byte   TEMPO , 114*SatorlMarsh_tbs/2
 .byte   W05
 .byte   N11 ,As5 ,v069
 .byte   N48 ,As3
 .byte   N48 ,Cs5
 .byte   W03
 .byte   TEMPO , 112*SatorlMarsh_tbs/2
 .byte   W08
 .byte   N11 ,Ds5 ,v069
 .byte   W01
 .byte   TEMPO , 112*SatorlMarsh_tbs/2
 .byte   W09
 .byte   TEMPO , 112*SatorlMarsh_tbs/2
 .byte   W01
 .byte   N11 ,Fn5 ,v069
 .byte   W08
 .byte   TEMPO , 112*SatorlMarsh_tbs/2
 .byte   W03
 .byte   N11 ,Ds5 ,v069
 .byte   W06
 .byte   TEMPO , 110*SatorlMarsh_tbs/2
 .byte   W02
 .byte   N96 ,Cn3 ,v059
 .byte   W02
 .byte   Ds3
 .byte   N54 ,Cn3
 .byte   W01
 .byte   N12 ,Gs5 ,v076
 .byte   N48 ,Cn5
 .byte   N96 ,Gs3 ,v077
 .byte   N52 ,Ds3 ,v059
 .byte   N01 ,Cn5 ,v076
 .byte   W01
 .byte   N48 ,Gs3 ,v077
 .byte   W01
 .byte   N02
 .byte   W02
 .byte   TEMPO , 114*SatorlMarsh_tbs/2
 .byte   W07
 .byte   N11 ,Cs5 ,v070
 .byte   W11
 .byte   Ds5 ,v073
 .byte   W11
 .byte   Cs5 ,v069
 .byte   W12
 .byte   Gs5
 .byte   N48 ,Cn5
 .byte   W12
 .byte   N11 ,Cs5
 .byte   W12
 .byte   Ds5
 .byte   W12
 .byte   Cs5
 .byte   W12
 .byte   Gs5
 .byte   N48 ,Cn5
 .byte   W12
 .byte   N11 ,Cs5
 .byte   W11
 .byte   Ds5
 .byte   W11
 .byte   Cs5
 .byte   W08
 .byte   N76 ,Cs3 ,v065
 .byte   W01
 .byte   N01
 .byte   N72 ,Fn3
 .byte   W01
 .byte   N03
 .byte   N12 ,As5 ,v076
 .byte   N48 ,Cs5
 .byte   N72 ,As3 ,v084
 .byte   W01
 .byte   N01 ,Cs5 ,v076
 .byte   As3 ,v084
 .byte   W11
 .byte   N11 ,Ds5 ,v070
 .byte   W11
 .byte   Fn5 ,v073
 .byte   W11
 .byte   Ds5 ,v069
 .byte   W12
 .byte   As5
 .byte   N48 ,Cs5
 .byte   W12
 .byte   N11 ,Ds5
 .byte   W11
 .byte   TEMPO , 114*SatorlMarsh_tbs/2
 .byte   N11 ,Fn5 ,v069
 .byte   N24 ,As3
 .byte   W09
 .byte   TEMPO , 114*SatorlMarsh_tbs/2
 .byte   W03
 .byte   N11 ,Ds5 ,v069
 .byte   W06
 .byte   TEMPO , 114*SatorlMarsh_tbs/2
 .byte   W05
 .byte   N11 ,As5 ,v069
 .byte   N48 ,Cs5
 .byte   N48 ,As3
 .byte   W03
 .byte   TEMPO , 112*SatorlMarsh_tbs/2
 .byte   W08
 .byte   N11 ,Ds5 ,v069
 .byte   W01
 .byte   TEMPO , 112*SatorlMarsh_tbs/2
 .byte   W09
 .byte   TEMPO , 112*SatorlMarsh_tbs/2
 .byte   W01
 .byte   N11 ,Fn5 ,v069
 .byte   W08
 .byte   TEMPO , 112*SatorlMarsh_tbs/2
 .byte   W03
 .byte   N11 ,Ds5 ,v069
 .byte   W06
 .byte   TEMPO , 110*SatorlMarsh_tbs/2
 .byte   W02
 .byte   N96 ,Cn3 ,v059
 .byte   W02
 .byte   Ds3
 .byte   N05 ,Cn3
 .byte   W01
 .byte   N12 ,Gs5 ,v076
 .byte   N48 ,Cn5
 .byte   N96 ,Gs3 ,v077
 .byte   N03 ,Ds3 ,v059
 .byte   N01 ,Cn5 ,v076
 .byte   W01
 .byte   Gs3 ,v077
 .byte   W03
 .byte   TEMPO , 114*SatorlMarsh_tbs/2
 .byte   W07
 .byte   N11 ,Cs5 ,v070
 .byte   W11
 .byte   Ds5 ,v073
 .byte   W11
 .byte   Cs5 ,v069
 .byte   W12
 .byte   Gs5
 .byte   N48 ,Cn5
 .byte   W12
 .byte   N11 ,Cs5
 .byte   W12
 .byte   Ds5
 .byte   W12
 .byte   Cs5
 .byte   W12
 .byte   Gs5
 .byte   N48 ,Cn4
 .byte   N48 ,Cn5
 .byte   W12
 .byte   N11 ,Cs5
 .byte   W11
 .byte   Ds5
 .byte   W11
 .byte   Cs5
 .byte   W08
 .byte   N96 ,Cs3 ,v059
 .byte   W02
 .byte   Fn3
 .byte   N96 ,Cs3
 .byte   W01
 .byte   N12 ,As5 ,v076
 .byte   N48 ,Cs5
 .byte   N96 ,As3 ,v072
 .byte   N96 ,Fn3 ,v059
 .byte   N96 ,Cs3
 .byte   N01 ,Cs5 ,v076
 .byte   W01
 .byte   N96 ,As3 ,v072
 .byte   N96 ,Fn3 ,v059
 .byte   N08 ,Cs3
 .byte   W01
 .byte   N96 ,As3 ,v072
 .byte   N06 ,Fn3 ,v059
 .byte   W02
 .byte   N04 ,As3 ,v072
 .byte   W06
 .byte   N11 ,Ds5 ,v070
 .byte   W11
 .byte   Fn5 ,v073
 .byte   W11
 .byte   Ds5 ,v069
 .byte   W12
 .byte   As5
 .byte   N48 ,Cs5
 .byte   W12
 .byte   N11 ,Ds5
 .byte   W11
 .byte   TEMPO , 114*SatorlMarsh_tbs/2
 .byte   N11 ,Fn5 ,v069
 .byte   W09
 .byte   TEMPO , 114*SatorlMarsh_tbs/2
 .byte   W03
 .byte   N11 ,Ds5 ,v069
 .byte   W06
 .byte   TEMPO , 114*SatorlMarsh_tbs/2
 .byte   W05
 .byte   N11 ,As5 ,v069
 .byte   N48 ,Cs5
 .byte   W03
 .byte   TEMPO , 112*SatorlMarsh_tbs/2
 .byte   W08
 .byte   N11 ,Ds5 ,v069
 .byte   W01
 .byte   TEMPO , 112*SatorlMarsh_tbs/2
 .byte   W09
 .byte   TEMPO , 112*SatorlMarsh_tbs/2
 .byte   W01
 .byte   N11 ,Fn5 ,v069
 .byte   W08
 .byte   TEMPO , 112*SatorlMarsh_tbs/2
 .byte   W03
 .byte   N11 ,Ds5 ,v069
 .byte   W06
 .byte   TEMPO , 110*SatorlMarsh_tbs/2
 .byte   W06
 .byte   N12 ,Gs5 ,v076
 .byte   N48 ,Cn5
 .byte   W01
 .byte   N01
 .byte   W04
 .byte   TEMPO , 114*SatorlMarsh_tbs/2
 .byte   W07
 .byte   N11 ,Cs5 ,v070
 .byte   W11
 .byte   Ds5 ,v073
 .byte   W11
 .byte   Cs5 ,v069
 .byte   W12
 .byte   Gs5
 .byte   N48 ,Cn5
 .byte   W12
 .byte   N11 ,Cs5
 .byte   W12
 .byte   Ds5
 .byte   W12
 .byte   Cs5
 .byte   W12
 .byte   Gs5
 .byte   N48 ,Cn5
 .byte   W12
 .byte   N11 ,Cs5
 .byte   W11
 .byte   Ds5
 .byte   W11
 .byte   Cs5
 .byte   W12
 .byte   TEMPO , 114*SatorlMarsh_tbs/2
 .byte   N12 ,As5 ,v076
 .byte   N24 ,As1
 .byte   N01
 .byte   W12
 .byte   N11 ,Ds5 ,v070
 .byte   W11
 .byte   Fn5 ,v073
 .byte   N24 ,Fn2
 .byte   W11
 .byte   N11 ,Ds5 ,v069
 .byte   W11
 .byte   N96 ,Cs3
 .byte   N11 ,As5
 .byte   N96 ,As3 ,v059
 .byte   N96 ,Fn3
 .byte   W01
 .byte   N01 ,Cs3 ,v069
 .byte   W10
 .byte   N11 ,Ds5
 .byte   W11
 .byte   TEMPO , 114*SatorlMarsh_tbs/2
 .byte   N11 ,Fn5 ,v069
 .byte   W09
 .byte   TEMPO , 114*SatorlMarsh_tbs/2
 .byte   W03
 .byte   N11 ,Ds5 ,v069
 .byte   W06
 .byte   TEMPO , 114*SatorlMarsh_tbs/2
 .byte   W05
 .byte   N11 ,As5 ,v069
 .byte   W03
 .byte   TEMPO , 112*SatorlMarsh_tbs/2
 .byte   W08
 .byte   N11 ,Ds5 ,v069
 .byte   W01
 .byte   TEMPO , 112*SatorlMarsh_tbs/2
 .byte   W09
 .byte   TEMPO , 112*SatorlMarsh_tbs/2
 .byte   W01
 .byte   N11 ,Fn5 ,v069
 .byte   W08
 .byte   TEMPO , 112*SatorlMarsh_tbs/2
 .byte   W03
 .byte   N11 ,Ds5 ,v069
 .byte   W06
 .byte   TEMPO , 110*SatorlMarsh_tbs/2
 .byte   W06
 .byte   N12 ,Gs5 ,v076
 .byte   N96 ,Cn3 ,v059
 .byte   N96 ,Gs3 ,v077
 .byte   N96 ,Ds3 ,v059
 .byte   W02
 .byte   N48 ,Cn3
 .byte   N48 ,Gs3 ,v077
 .byte   N48 ,Ds3 ,v059
 .byte   W01
 .byte   N02 ,Cn3
 .byte   N02 ,Gs3 ,v077
 .byte   N02 ,Ds3 ,v059
 .byte   W02
 .byte   TEMPO , 114*SatorlMarsh_tbs/2
 .byte   W07
 .byte   N11 ,Cs5 ,v070
 .byte   W11
 .byte   Ds5 ,v073
 .byte   W11
 .byte   Cs5 ,v069
 .byte   W12
 .byte   Gs5
 .byte   W12
 .byte   Cs5
 .byte   W12
 .byte   Ds5
 .byte   W12
 .byte   Cs5
 .byte   W12
 .byte   Gs5
 .byte   W12
 .byte   Cs5
 .byte   W11
 .byte   Ds5
 .byte   W11
 .byte   Cs5
 .byte   W12
 .byte   TEMPO , 114*SatorlMarsh_tbs/2
 .byte   N12 ,As5 ,v076
 .byte   N24 ,As1
 .byte   N01
 .byte   W12
 .byte   N11 ,Ds5 ,v070
 .byte   W11
 .byte   Fn5 ,v073
 .byte   N24 ,Fn2
 .byte   W11
 .byte   N11 ,Ds5 ,v069
 .byte   W11
 .byte   N96 ,Cs3
 .byte   N11 ,As5
 .byte   N96 ,As3 ,v059
 .byte   N96 ,Fn3
 .byte   W01
 .byte   N01 ,Cs3 ,v069
 .byte   W10
 .byte   N11 ,Ds5
 .byte   W11
 .byte   TEMPO , 114*SatorlMarsh_tbs/2
 .byte   N11 ,Fn5 ,v069
 .byte   W09
 .byte   TEMPO , 114*SatorlMarsh_tbs/2
 .byte   W03
 .byte   N11 ,Ds5 ,v069
 .byte   W06
 .byte   TEMPO , 114*SatorlMarsh_tbs/2
 .byte   W05
 .byte   N11 ,As5 ,v069
 .byte   W03
 .byte   TEMPO , 112*SatorlMarsh_tbs/2
 .byte   W08
 .byte   N11 ,Ds5 ,v069
 .byte   W01
 .byte   TEMPO , 112*SatorlMarsh_tbs/2
 .byte   W09
 .byte   TEMPO , 112*SatorlMarsh_tbs/2
 .byte   W01
 .byte   N11 ,Fn5 ,v069
 .byte   W08
 .byte   TEMPO , 112*SatorlMarsh_tbs/2
 .byte   W03
 .byte   N11 ,Ds5 ,v069
 .byte   W06
 .byte   TEMPO , 110*SatorlMarsh_tbs/2
 .byte   W06
 .byte   N12 ,Gs5 ,v076
 .byte   N96 ,Ds3 ,v059
 .byte   N96 ,Gs3 ,v077
 .byte   N96 ,Cn3 ,v059
 .byte   W02
 .byte   N48 ,Gs3 ,v077
 .byte   N48 ,Ds3 ,v059
 .byte   N48 ,Cn3
 .byte   W01
 .byte   N02 ,Gs3 ,v077
 .byte   N02 ,Ds3 ,v059
 .byte   N02 ,Cn3
 .byte   W02
 .byte   TEMPO , 114*SatorlMarsh_tbs/2
 .byte   W07
 .byte   N11 ,Cs5 ,v070
 .byte   W11
 .byte   Ds5 ,v073
 .byte   W11
 .byte   Cs5 ,v069
 .byte   W12
 .byte   Gs5
 .byte   W12
 .byte   Cs5
 .byte   W12
 .byte   Ds5
 .byte   W12
 .byte   Cs5
 .byte   W12
 .byte   Gs5
 .byte   W12
 .byte   Cs5
 .byte   W11
 .byte   Ds5
 .byte   W11
 .byte   Cs5
 .byte   W12
 .byte   N12 ,As2 ,v076
 .byte   N96 ,Fn2 ,v077
 .byte   N96 ,As1 ,v059
 .byte   W02
 .byte   N48 ,Fn2 ,v077
 .byte   N48 ,As1 ,v059
 .byte   W01
 .byte   N02 ,Fn2 ,v077
 .byte   N02 ,As1 ,v059
 .byte   W09
 .byte   N11 ,Cn3 ,v070
 .byte   W11
 .byte   Cs3 ,v073
 .byte   W11
 .byte   Fn3 ,v069
 .byte   W12
 .byte   As3
 .byte   N48 ,Fn3 ,v077
 .byte   N48 ,Cs3 ,v059
 .byte   W12
 .byte   N11 ,Cn4 ,v069
 .byte   W12
 .byte   Cs4
 .byte   W12
 .byte   Fn4
 .byte   W12
 .byte   As4
 .byte   N24 ,Ds3 ,v077
 .byte   N24 ,As2 ,v059
 .byte   W12
 .byte   N11 ,Cn5 ,v069
 .byte   W11
 .byte   Cs5
 .byte   N24 ,Cs3 ,v059
 .byte   N24 ,Fn3 ,v077
 .byte   W11
 .byte   N11 ,Fn5 ,v069
 .byte   W12
 .byte   N12 ,Cn3 ,v076
 .byte   N36 ,Gs3
 .byte   N96 ,Gs1 ,v059
 .byte   N96 ,Ds2 ,v077
 .byte   N01 ,Gs3 ,v076
 .byte   W01
 .byte   N48 ,Gs1 ,v059
 .byte   N48 ,Ds2 ,v077
 .byte   W01
 .byte   N02
 .byte   N02 ,Gs1 ,v059
 .byte   W09
 .byte   N11 ,Cs3 ,v070
 .byte   W11
 .byte   Ds3 ,v073
 .byte   W11
 .byte   Gs3 ,v069
 .byte   W12
 .byte   Cn4
 .byte   N96 ,Fn3 ,v066
 .byte   N96 ,Cn3 ,v073
 .byte   W12
 .byte   N11 ,Cs4 ,v069
 .byte   W11
 .byte   TEMPO , 114*SatorlMarsh_tbs/2
 .byte   N11 ,Ds4 ,v069
 .byte   W09
 .byte   TEMPO , 114*SatorlMarsh_tbs/2
 .byte   W03
 .byte   N11 ,Gs4 ,v069
 .byte   W06
 .byte   TEMPO , 114*SatorlMarsh_tbs/2
 .byte   W05
 .byte   N11 ,Cn5 ,v069
 .byte   W03
 .byte   TEMPO , 114*SatorlMarsh_tbs/2
 .byte   W08
 .byte   N11 ,Cs5 ,v069
 .byte   W01
 .byte   TEMPO , 114*SatorlMarsh_tbs/2
 .byte   W09
 .byte   TEMPO , 114*SatorlMarsh_tbs/2
 .byte   W01
 .byte   N11 ,Ds5 ,v069
 .byte   W08
 .byte   TEMPO , 112*SatorlMarsh_tbs/2
 .byte   W03
 .byte   N11 ,Gs5 ,v069
 .byte   W06
 .byte   TEMPO , 112*SatorlMarsh_tbs/2
 .byte   W06
 .byte   TEMPO , 114*SatorlMarsh_tbs/2
 .byte   N12 ,As2 ,v076
 .byte   N96 ,As1 ,v059
 .byte   N96 ,Fn2 ,v077
 .byte   W02
 .byte   N48 ,As1 ,v059
 .byte   N48 ,Fn2 ,v077
 .byte   W01
 .byte   N02
 .byte   N02 ,As1 ,v059
 .byte   W09
 .byte   N11 ,Cn3 ,v070
 .byte   W11
 .byte   Cs3 ,v073
 .byte   W11
 .byte   Fn3 ,v069
 .byte   W12
 .byte   As3
 .byte   N48 ,Fn3 ,v077
 .byte   N48 ,Cs3 ,v059
 .byte   W12
 .byte   N11 ,Cn4 ,v069
 .byte   W12
 .byte   Cs4
 .byte   W12
 .byte   Fn4
 .byte   W12
 .byte   As4
 .byte   N24 ,As2 ,v059
 .byte   N24 ,Ds3 ,v077
 .byte   W12
 .byte   N11 ,Cn5 ,v069
 .byte   W11
 .byte   Cs5
 .byte   N24 ,Fn3 ,v077
 .byte   N24 ,Cs3 ,v059
 .byte   W11
 .byte   N11 ,Fn5 ,v069
 .byte   W12
 .byte   N12 ,Cn3 ,v076
 .byte   N24 ,Gs3
 .byte   N96 ,Gs1 ,v059
 .byte   N96 ,Ds2 ,v077
 .byte   N01 ,Gs3 ,v076
 .byte   W01
 .byte   N48 ,Gs1 ,v059
 .byte   N48 ,Ds2 ,v077
 .byte   W01
 .byte   N02 ,Gs1 ,v059
 .byte   N02 ,Ds2 ,v077
 .byte   W09
 .byte   N11 ,Cs3 ,v070
 .byte   W11
 .byte   Ds3 ,v073
 .byte   N24 ,As3
 .byte   W11
 .byte   N11 ,Gs3 ,v069
 .byte   W12
 .byte   Cn4
 .byte   N96 ,Cn3 ,v073
 .byte   N96 ,Fn3 ,v066
 .byte   W12
 .byte   N11 ,Cs4 ,v069
 .byte   W11
 .byte   TEMPO , 114*SatorlMarsh_tbs/2
 .byte   N11 ,Ds4 ,v069
 .byte   W09
 .byte   TEMPO , 114*SatorlMarsh_tbs/2
 .byte   W03
 .byte   N11 ,Gs4 ,v069
 .byte   W06
 .byte   TEMPO , 114*SatorlMarsh_tbs/2
 .byte   W05
 .byte   N11 ,Cn5 ,v069
 .byte   W03
 .byte   TEMPO , 114*SatorlMarsh_tbs/2
 .byte   W08
 .byte   N11 ,Cs5 ,v069
 .byte   W01
 .byte   TEMPO , 114*SatorlMarsh_tbs/2
 .byte   W09
 .byte   TEMPO , 114*SatorlMarsh_tbs/2
 .byte   W01
 .byte   N11 ,Ds5 ,v069
 .byte   W08
 .byte   TEMPO , 112*SatorlMarsh_tbs/2
 .byte   W03
 .byte   N11 ,Gs5 ,v069
 .byte   W06
 .byte   TEMPO , 112*SatorlMarsh_tbs/2
 .byte   W06
 .byte   TEMPO , 114*SatorlMarsh_tbs/2
 .byte   N12 ,As2 ,v076
 .byte   N96 ,Fn2 ,v077
 .byte   N96 ,As1 ,v059
 .byte   W02
 .byte   N48 ,Fn2 ,v077
 .byte   N48 ,As1 ,v059
 .byte   W01
 .byte   N02
 .byte   N02 ,Fn2 ,v077
 .byte   W09
 .byte   N11 ,Cn3 ,v070
 .byte   W11
 .byte   Cs3 ,v073
 .byte   W11
 .byte   Fn3 ,v069
 .byte   W12
 .byte   As3
 .byte   N48 ,Cs3 ,v059
 .byte   N48 ,Fn3 ,v077
 .byte   W12
 .byte   N11 ,Cn4 ,v069
 .byte   W12
 .byte   Cs4
 .byte   W12
 .byte   Fn4
 .byte   W12
 .byte   As4
 .byte   N24 ,Ds3 ,v077
 .byte   N24 ,As2 ,v059
 .byte   W12
 .byte   N11 ,Cn5 ,v069
 .byte   W11
 .byte   Cs5
 .byte   N24 ,Fn3 ,v077
 .byte   N24 ,Cs3 ,v059
 .byte   W11
 .byte   N11 ,Fn5 ,v069
 .byte   W12
 .byte   N12 ,Cn3 ,v076
 .byte   N24 ,Gs3
 .byte   N96 ,Gs1 ,v059
 .byte   N96 ,Ds2 ,v077
 .byte   N01 ,Gs3 ,v076
 .byte   W01
 .byte   N48 ,Ds2 ,v077
 .byte   N48 ,Gs1 ,v059
 .byte   W01
 .byte   N02
 .byte   N02 ,Ds2 ,v077
 .byte   W09
 .byte   N11 ,Cs3 ,v070
 .byte   W11
 .byte   Ds3 ,v073
 .byte   N24 ,As3
 .byte   W11
 .byte   N11 ,Gs3 ,v069
 .byte   W12
 .byte   Cn4
 .byte   N24 ,Ds3 ,v077
 .byte   N24 ,Gs2 ,v059
 .byte   W12
 .byte   N11 ,Cs4 ,v069
 .byte   W11
 .byte   TEMPO , 114*SatorlMarsh_tbs/2
 .byte   N11 ,Ds4 ,v069
 .byte   N24 ,Cn3 ,v059
 .byte   N24 ,Fn3 ,v077
 .byte   W09
 .byte   TEMPO , 114*SatorlMarsh_tbs/2
 .byte   W03
 .byte   N11 ,Gs4 ,v069
 .byte   W06
 .byte   TEMPO , 114*SatorlMarsh_tbs/2
 .byte   W05
 .byte   N11 ,Cn5 ,v069
 .byte   N24 ,Gs2 ,v059
 .byte   N24 ,Cn3 ,v077
 .byte   W03
 .byte   TEMPO , 114*SatorlMarsh_tbs/2
 .byte   W08
 .byte   N11 ,Cs5 ,v069
 .byte   W01
 .byte   TEMPO , 114*SatorlMarsh_tbs/2
 .byte   W09
 .byte   TEMPO , 114*SatorlMarsh_tbs/2
 .byte   W01
 .byte   N11 ,Ds5 ,v069
 .byte   N24 ,Cs3 ,v077
 .byte   N24 ,As2 ,v059
 .byte   W08
 .byte   TEMPO , 112*SatorlMarsh_tbs/2
 .byte   W03
 .byte   N11 ,Gs5 ,v069
 .byte   W06
 .byte   TEMPO , 112*SatorlMarsh_tbs/2
 .byte   W06
 .byte   TEMPO , 114*SatorlMarsh_tbs/2
 .byte   N12 ,As2 ,v077
 .byte   N96 ,Fn2 ,v059
 .byte   N96 ,As1
 .byte   W02
 .byte   N48
 .byte   N48 ,Fn2
 .byte   W01
 .byte   N02 ,As1
 .byte   N02 ,Fn2
 .byte   W09
 .byte   N11 ,Cn3 ,v070
 .byte   W11
 .byte   Cs3 ,v073
 .byte   W11
 .byte   Fn3 ,v069
 .byte   W12
 .byte   As3
 .byte   W12
 .byte   Cn4
 .byte   W12
 .byte   Cs4
 .byte   W12
 .byte   Fn4
 .byte   W12
 .byte   As4
 .byte   W12
 .byte   Cn5
 .byte   W11
 .byte   Cs5
 .byte   W11
 .byte   Fn5
 .byte   W12
 .byte   N12 ,As5
 .byte   N96 ,Gs4 ,v077
 .byte   N96 ,Cs4 ,v059
 .byte   N96 ,Fn4
 .byte   N96 ,As3
 .byte   W02
 .byte   N36
 .byte   N36 ,Gs4 ,v077
 .byte   N36 ,Cs4 ,v059
 .byte   N36 ,Fn4
 .byte   N01 ,Cs4
 .byte   N01 ,Fn4
 .byte   N01 ,Gs4 ,v077
 .byte   N01 ,As3 ,v059
 .byte   W09
 .byte   N11 ,Ds5 ,v066
 .byte   W11
 .byte   Fn5 ,v063
 .byte   W11
 .byte   Ds5 ,v060
 .byte   W12
 .byte   As5 ,v056
 .byte   W12
 .byte   Ds5 ,v054
 .byte   W12
 .byte   Fn5 ,v050
 .byte   W12
 .byte   Ds5 ,v047
 .byte   W12
 .byte   As5 ,v045
 .byte   W12
 .byte   Ds5 ,v042
 .byte   W11
 .byte   Fn5 ,v039
 .byte   W11
 .byte   GOTO
  .word SatorlMarsh_Label_1_00
 .byte   FINE

@******************************************************@
	.align	2

songSatorlMarsh:
	.byte	2	@ NumTrks
	.byte	0	@ NumBlks
	.byte	SatorlMarsh_pri	@ Priority
	.byte	SatorlMarsh_rev	@ Reverb.
    
	.word	SatorlMarsh_grp
    
	.word	SatorlMarsh_001
	.word	SatorlMarsh_002

	.end
