//Event file generated from Sappy .s format.
	#include "MPlayDef.event"

	#define	songShowEmWhatsWhat_grp  voicegroup000
	#define	songShowEmWhatsWhat_pri  0
	#define	songShowEmWhatsWhat_rev  0
	#define	songShowEmWhatsWhat_mvl  127
	#define	songShowEmWhatsWhat_key  0
	#define	songShowEmWhatsWhat_tbs  1
	#define	songShowEmWhatsWhat_exg  0
	#define	songShowEmWhatsWhat_cmp  1

	// .rodata
	//	songShowEmWhatsWhat
	ALIGN 4


//**************** Track 1 (Midi-Chn.0) ****************//

songShowEmWhatsWhat_001:
// 000   ----------------------------------------
 BYTE   VOL   80*songShowEmWhatsWhat_mvl/mxv
 BYTE   KEYSH   songShowEmWhatsWhat_key+0
Label_0_01482608:
 BYTE   TEMPO   168*songShowEmWhatsWhat_tbs/2
 BYTE   VOICE   61
 BYTE   N06  Gn3  v064
 BYTE   W12
 BYTE   N06
 BYTE   W36
 BYTE   N06
 BYTE   W12
 BYTE   N06
 BYTE   W36
// 001   ----------------------------------------
 BYTE   N06
 BYTE   W12
 BYTE   N06
 BYTE   W12
 BYTE   N12  An3
 BYTE   W12
 BYTE   Gn4
 BYTE   W12
 BYTE   N48  As4
 BYTE   W48
// 002   ----------------------------------------
Label_0_01482622:
 BYTE   N06  Gn4  v064
 BYTE   W06
 BYTE   Fs4
 BYTE   W06
 BYTE   N12  Dn4
 BYTE   W12
 BYTE   N06  As3
 BYTE   W06
 BYTE   An3
 BYTE   W06
 BYTE   N12  Gn3
 BYTE   W12
 BYTE   N48  As4
 BYTE   W48
 BYTE   PEND 
// 003   ----------------------------------------
 BYTE   Dn4
 BYTE   W48
 BYTE   N02  Gn4
 BYTE   W12
 BYTE   N02
 BYTE   W12
 BYTE   N03
 BYTE   W06
 BYTE   N03
 BYTE   W06
 BYTE   N03
 BYTE   W06
 BYTE   N02
 BYTE   W06
 BYTE   PATT
  POIN2 Label_0_01482622
// 004   ----------------------------------------
 BYTE   N48  Ds4  v064
 BYTE   W96
// 005   ----------------------------------------
 BYTE   W96
// 006   ----------------------------------------
 BYTE   W96
// 007   ----------------------------------------
 BYTE   W96
// 008   ----------------------------------------
 BYTE   W96
// 009   ----------------------------------------
 BYTE   W96
// 010   ----------------------------------------
 BYTE   W96
// 011   ----------------------------------------
 BYTE   W96
// 012   ----------------------------------------
 BYTE   W96
// 013   ----------------------------------------
 BYTE   W96
// 014   ----------------------------------------
 BYTE   W96
// 015   ----------------------------------------
 BYTE   W96
// 016   ----------------------------------------
 BYTE   W96
// 017   ----------------------------------------
 BYTE   GoTo
  POIN2 Label_0_01482608
 BYTE   FINE

//**************** Track 2 (Midi-Chn.1) ****************//

songShowEmWhatsWhat_002:
// 000   ----------------------------------------
 BYTE   VOL   80*songShowEmWhatsWhat_mvl/mxv
 BYTE   KEYSH   songShowEmWhatsWhat_key+0
Label_1_01482668:
 BYTE   VOICE   100
 BYTE   W96
// 001   ----------------------------------------
 BYTE   W96
// 002   ----------------------------------------
 BYTE   W96
// 003   ----------------------------------------
 BYTE   W96
// 004   ----------------------------------------
 BYTE   W96
// 005   ----------------------------------------
 BYTE   W96
// 006   ----------------------------------------
 BYTE   W96
// 007   ----------------------------------------
 BYTE   W96
// 008   ----------------------------------------
 BYTE   W96
// 009   ----------------------------------------
 BYTE   W96
// 010   ----------------------------------------
 BYTE   W96
// 011   ----------------------------------------
 BYTE   W96
// 012   ----------------------------------------
 BYTE   W96
// 013   ----------------------------------------
 BYTE   W96
// 014   ----------------------------------------
 BYTE   N96  An3  v064
 BYTE   W96
// 015   ----------------------------------------
 BYTE   As3
 BYTE   W96
// 016   ----------------------------------------
 BYTE   N48  Cn4
 BYTE   W48
 BYTE   Dn4
 BYTE   W48
// 017   ----------------------------------------
 BYTE   N96  Ds4
 BYTE   W96
// 018   ----------------------------------------
 BYTE   GoTo
  POIN2 Label_1_01482668
 BYTE   FINE

//**************** Track 3 (Midi-Chn.2) ****************//

songShowEmWhatsWhat_003:
// 000   ----------------------------------------
 BYTE   VOL   80*songShowEmWhatsWhat_mvl/mxv
 BYTE   KEYSH   songShowEmWhatsWhat_key+0
Label_2_014826B8:
 BYTE   VOICE   104
 BYTE   W96
// 001   ----------------------------------------
 BYTE   W96
// 002   ----------------------------------------
 BYTE   W96
// 003   ----------------------------------------
 BYTE   W96
// 004   ----------------------------------------
 BYTE   W96
// 005   ----------------------------------------
 BYTE   W48
 BYTE   N12  Dn3  v064
 BYTE   W12
 BYTE   Cn3
 BYTE   W12
 BYTE   As2
 BYTE   W12
 BYTE   An2
 BYTE   W12
// 006   ----------------------------------------
 BYTE   N48  Dn3
 BYTE   W48
 BYTE   An2
 BYTE   W48
// 007   ----------------------------------------
 BYTE   N24  Ds3
 BYTE   W24
 BYTE   Gn3
 BYTE   W24
 BYTE   N48  As3
 BYTE   W48
// 008   ----------------------------------------
 BYTE   N96  Fs3
 BYTE   W96
// 009   ----------------------------------------
 BYTE   Gn3
 BYTE   W96
// 010   ----------------------------------------
Label_2_014826DC:
 BYTE   N12  Gn3  v064
 BYTE   W12
 BYTE   N12
 BYTE   W12
 BYTE   N12
 BYTE   W12
 BYTE   As3
 BYTE   W12
 BYTE   An3
 BYTE   W12
 BYTE   N36  Gn3
 BYTE   W36
 BYTE   PEND 
// 011   ----------------------------------------
 BYTE   N24  Ds3
 BYTE   W24
 BYTE   Dn3
 BYTE   W24
 BYTE   N48  Cn4
 BYTE   W48
 BYTE   PATT
  POIN2 Label_2_014826DC
// 012   ----------------------------------------
 BYTE   N24  As3  v064
 BYTE   W24
 BYTE   Gn3
 BYTE   W24
 BYTE   N48  Ds4
 BYTE   W48
// 013   ----------------------------------------
 BYTE   N96  An3
 BYTE   W96
// 014   ----------------------------------------
 BYTE   As3
 BYTE   W96
// 015   ----------------------------------------
 BYTE   N48  Cn4
 BYTE   W48
 BYTE   Dn4
 BYTE   W48
// 016   ----------------------------------------
 BYTE   N96  Ds4
 BYTE   W96
// 017   ----------------------------------------
 BYTE   GoTo
  POIN2 Label_2_014826B8
 BYTE   FINE

//**************** Track 4 (Midi-Chn.3) ****************//

songShowEmWhatsWhat_004:
// 000   ----------------------------------------
 BYTE   VOL   80*songShowEmWhatsWhat_mvl/mxv
 BYTE   KEYSH   songShowEmWhatsWhat_key+0
Label_3_01482764:
 BYTE   VOICE   33
 BYTE   N02  Gn2  v064
 BYTE   W12
 BYTE   N02
 BYTE   W12
 BYTE   N03
 BYTE   W12
 BYTE   Fs2
 BYTE   W12
 BYTE   N02  As2
 BYTE   W12
 BYTE   N03
 BYTE   W12
 BYTE   An2
 BYTE   W12
 BYTE   N02  As2
 BYTE   W12
// 001   ----------------------------------------
 BYTE   Cn3
 BYTE   W12
 BYTE   N03
 BYTE   W12
 BYTE   As2
 BYTE   W12
 BYTE   N02  Cn3
 BYTE   W12
 BYTE   N03  Dn3
 BYTE   W12
 BYTE   N03
 BYTE   W12
 BYTE   N02  Ds3
 BYTE   W12
 BYTE   Dn3
 BYTE   W06
 BYTE   Cn3
 BYTE   W06
// 002   ----------------------------------------
Label_3_0148278F:
 BYTE   N06  Dn3  v064
 BYTE   W12
 BYTE   N06
 BYTE   W12
 BYTE   Ds3
 BYTE   W12
 BYTE   Dn3
 BYTE   W12
 BYTE   N06
 BYTE   W12
 BYTE   N06
 BYTE   W12
 BYTE   Ds3
 BYTE   W12
 BYTE   Dn3
 BYTE   W12
 BYTE   PEND 
 BYTE   PATT
  POIN2 Label_3_0148278F
 BYTE   PATT
  POIN2 Label_3_0148278F
// 003   ----------------------------------------
 BYTE   N06  Dn3  v064
 BYTE   W12
 BYTE   N06
 BYTE   W12
 BYTE   Ds3
 BYTE   W12
 BYTE   Dn3
 BYTE   W12
 BYTE   N12
 BYTE   W12
 BYTE   Cn3
 BYTE   W12
 BYTE   As2
 BYTE   W12
 BYTE   An2
 BYTE   W12
// 004   ----------------------------------------
 BYTE   Dn2
 BYTE   W12
 BYTE   Dn3
 BYTE   W12
 BYTE   Dn2
 BYTE   W12
 BYTE   Dn3
 BYTE   W12
 BYTE   N24  Dn2
 BYTE   W24
 BYTE   Dn3
 BYTE   W24
// 005   ----------------------------------------
 BYTE   N12  Ds2
 BYTE   W12
 BYTE   Ds3
 BYTE   W12
 BYTE   Ds2
 BYTE   W12
 BYTE   Ds3
 BYTE   W12
 BYTE   N24  Ds2
 BYTE   W24
 BYTE   Ds3
 BYTE   W24
// 006   ----------------------------------------
 BYTE   N12  Fs2
 BYTE   W12
 BYTE   Fs3
 BYTE   W12
 BYTE   Fs2
 BYTE   W12
 BYTE   Fs3
 BYTE   W12
 BYTE   N24  Fs2
 BYTE   W24
 BYTE   Fs3
 BYTE   W24
// 007   ----------------------------------------
 BYTE   N12  Gn2
 BYTE   W12
 BYTE   Gn3
 BYTE   W12
 BYTE   Gn2
 BYTE   W12
 BYTE   Gn3
 BYTE   W12
 BYTE   N12
 BYTE   W12
 BYTE   Fs3
 BYTE   W12
 BYTE   Ds3
 BYTE   W12
 BYTE   Dn3
 BYTE   W12
// 008   ----------------------------------------
Label_3_014827F8:
 BYTE   N12  Dn2  v064
 BYTE   W12
 BYTE   Dn3
 BYTE   W12
 BYTE   Dn2
 BYTE   W12
 BYTE   N12
 BYTE   W12
 BYTE   N24  Cn3
 BYTE   W24
 BYTE   As2
 BYTE   W24
 BYTE   PEND 
 BYTE   PATT
  POIN2 Label_3_014827F8
// 009   ----------------------------------------
 BYTE   N12  Ds2  v064
 BYTE   W12
 BYTE   Ds3
 BYTE   W12
 BYTE   Ds2
 BYTE   W12
 BYTE   N12
 BYTE   W12
 BYTE   N24  Dn3
 BYTE   W24
 BYTE   Cn3
 BYTE   W24
// 010   ----------------------------------------
 BYTE   N12  Dn2
 BYTE   W12
 BYTE   Dn3
 BYTE   W12
 BYTE   Dn2
 BYTE   W12
 BYTE   N12
 BYTE   W12
 BYTE   Dn3
 BYTE   W12
 BYTE   Cn3
 BYTE   W12
 BYTE   As2
 BYTE   W12
 BYTE   An2
 BYTE   W12
// 011   ----------------------------------------
Label_3_0148282D:
 BYTE   N12  Dn2  v064
 BYTE   W12
 BYTE   As2
 BYTE   W12
 BYTE   Dn2
 BYTE   W12
 BYTE   As2
 BYTE   W12
 BYTE   N24  Dn2
 BYTE   W24
 BYTE   As2
 BYTE   W24
 BYTE   PEND 
 BYTE   PATT
  POIN2 Label_3_0148282D
// 012   ----------------------------------------
 BYTE   N12  Ds2  v064
 BYTE   W12
 BYTE   Dn2
 BYTE   W12
 BYTE   Ds2
 BYTE   W12
 BYTE   Dn2
 BYTE   W12
 BYTE   N24  Ds2
 BYTE   W24
 BYTE   Ds3
 BYTE   W24
// 013   ----------------------------------------
 BYTE   N12  Dn2
 BYTE   W12
 BYTE   Cn2
 BYTE   W12
 BYTE   Dn2
 BYTE   W12
 BYTE   Cn2
 BYTE   W12
 BYTE   Dn3
 BYTE   W12
 BYTE   Cn3
 BYTE   W12
 BYTE   As2
 BYTE   W12
 BYTE   An2
 BYTE   W12
// 014   ----------------------------------------
 BYTE   GoTo
  POIN2 Label_3_01482764
 BYTE   FINE

//**************** Track 5 (Midi-Chn.4) ****************//

songShowEmWhatsWhat_005:
// 000   ----------------------------------------
 BYTE   VOL   80*songShowEmWhatsWhat_mvl/mxv
 BYTE   KEYSH   songShowEmWhatsWhat_key+0
Label_4_014824A8:
 BYTE   VOICE   48
 BYTE   N48  Gn3  v032
 BYTE   N48  Cn4
 BYTE   N48  Dn4
 BYTE   W48
 BYTE   Gn3
 BYTE   N48  As3
 BYTE   N48  Dn4
 BYTE   W48
// 001   ----------------------------------------
 BYTE   Ds3
 BYTE   N48  Gn3
 BYTE   N48  Cn4
 BYTE   W48
 BYTE   Dn3
 BYTE   N48  Fs3
 BYTE   N48  An3
 BYTE   W48
// 002   ----------------------------------------
Label_4_014824C4:
 BYTE   N96  Dn3  v032
 BYTE   N96  Gn3
 BYTE   N96  As3
 BYTE   W96
 BYTE   PEND 
// 003   ----------------------------------------
Label_4_014824CD:
 BYTE   N96  Dn3  v032
 BYTE   N96  Fs3
 BYTE   N96  An3
 BYTE   W96
 BYTE   PEND 
 BYTE   PATT
  POIN2 Label_4_014824C4
 BYTE   PATT
  POIN2 Label_4_014824CD
 BYTE   PATT
  POIN2 Label_4_014824C4
// 004   ----------------------------------------
 BYTE   N96  Ds3  v032
 BYTE   N96  Gn3
 BYTE   N96  As3
 BYTE   W96
// 005   ----------------------------------------
 BYTE   Fs3
 BYTE   N96  An3
 BYTE   N96  Cn4
 BYTE   W96
// 006   ----------------------------------------
 BYTE   Gn3
 BYTE   N96  As3
 BYTE   N96  Dn4
 BYTE   W96
 BYTE   PATT
  POIN2 Label_4_014824C4
// 007   ----------------------------------------
Label_4_014824FE:
 BYTE   N96  Dn3  v032
 BYTE   N48  Fs3
 BYTE   N96  An3
 BYTE   W48
 BYTE   N48  Gn3
 BYTE   W48
 BYTE   PEND 
// 008   ----------------------------------------
Label_4_0148250A:
 BYTE   N96  Ds3  v032
 BYTE   N96  Gn3
 BYTE   N96  Cn4
 BYTE   W96
 BYTE   PEND 
// 009   ----------------------------------------
Label_4_01482513:
 BYTE   N96  Dn3  v032
 BYTE   N96  Gn3
 BYTE   N96  Cn4
 BYTE   W96
 BYTE   PEND 
 BYTE   PATT
  POIN2 Label_4_014824C4
 BYTE   PATT
  POIN2 Label_4_014824FE
 BYTE   PATT
  POIN2 Label_4_0148250A
 BYTE   PATT
  POIN2 Label_4_01482513
// 010   ----------------------------------------
 BYTE   GoTo
  POIN2 Label_4_014824A8
 BYTE   FINE

//**************** Track 6 (Midi-Chn.5) ****************//

songShowEmWhatsWhat_006:
// 000   ----------------------------------------
 BYTE   VOL   80*songShowEmWhatsWhat_mvl/mxv
 BYTE   KEYSH   songShowEmWhatsWhat_key+0
Label_5_0148255C:
 BYTE   VOICE   100
 BYTE   N48  Gn2  v032
 BYTE   N48  Cn3
 BYTE   N48  Dn3
 BYTE   W48
 BYTE   As2
 BYTE   N48  Dn3
 BYTE   N48  Gn3
 BYTE   W48
// 001   ----------------------------------------
 BYTE   Cn3
 BYTE   N48  Ds3
 BYTE   N48  Gn3
 BYTE   W48
 BYTE   Dn3
 BYTE   N48  Fs3
 BYTE   N48  An3
 BYTE   W48
// 002   ----------------------------------------
Label_5_01482578:
 BYTE   N96  Dn3  v032
 BYTE   N96  Gn3
 BYTE   N96  As3
 BYTE   W96
 BYTE   PEND 
// 003   ----------------------------------------
Label_5_01482581:
 BYTE   N96  Dn3  v032
 BYTE   N96  Fs3
 BYTE   N96  An3
 BYTE   W96
 BYTE   PEND 
 BYTE   PATT
  POIN2 Label_5_01482578
 BYTE   PATT
  POIN2 Label_5_01482581
 BYTE   PATT
  POIN2 Label_5_01482578
// 004   ----------------------------------------
 BYTE   N96  Ds3  v032
 BYTE   N96  Gn3
 BYTE   N96  As3
 BYTE   W96
// 005   ----------------------------------------
 BYTE   Fs3
 BYTE   N96  An3
 BYTE   N96  Cn4
 BYTE   W96
// 006   ----------------------------------------
 BYTE   Gn3
 BYTE   N96  As3
 BYTE   N96  Dn4
 BYTE   W96
 BYTE   PATT
  POIN2 Label_5_01482578
// 007   ----------------------------------------
Label_5_014825B2:
 BYTE   N96  Dn3  v032
 BYTE   N48  Fs3
 BYTE   N96  An3
 BYTE   W48
 BYTE   N48  Gn3
 BYTE   W48
 BYTE   PEND 
// 008   ----------------------------------------
Label_5_014825BE:
 BYTE   N96  Ds3  v032
 BYTE   N96  Gn3
 BYTE   N96  Cn4
 BYTE   W96
 BYTE   PEND 
// 009   ----------------------------------------
Label_5_014825C7:
 BYTE   N96  Dn3  v032
 BYTE   N96  Gn3
 BYTE   N96  Cn4
 BYTE   W96
 BYTE   PEND 
 BYTE   PATT
  POIN2 Label_5_01482578
 BYTE   PATT
  POIN2 Label_5_014825B2
 BYTE   PATT
  POIN2 Label_5_014825BE
 BYTE   PATT
  POIN2 Label_5_014825C7
// 010   ----------------------------------------
 BYTE   GoTo
  POIN2 Label_5_0148255C
 BYTE   FINE

//**************** Track 7 (Midi-Chn.6) ****************//

songShowEmWhatsWhat_007:
// 000   ----------------------------------------
 BYTE   VOL   80*songShowEmWhatsWhat_mvl/mxv
 BYTE   KEYSH   songShowEmWhatsWhat_key+0
Label_6_01494F0C:
 BYTE   VOICE   124
 BYTE   N06  En1  v064
 BYTE   W06
 BYTE   N06
 BYTE   W06
 BYTE   N06
 BYTE   W06
 BYTE   N06
 BYTE   W06
 BYTE   N24
 BYTE   W24
 BYTE   N24
 BYTE   W24
 BYTE   N24
 BYTE   W24
// 001   ----------------------------------------
 BYTE   N06
 BYTE   W06
 BYTE   N06
 BYTE   W06
 BYTE   N06
 BYTE   W06
 BYTE   N06
 BYTE   W06
 BYTE   N24
 BYTE   W24
 BYTE   N12
 BYTE   N12  As1
 BYTE   W12
 BYTE   Dn1
 BYTE   W12
 BYTE   N06  En1
 BYTE   W06
 BYTE   Cn2
 BYTE   W06
 BYTE   Bn1
 BYTE   W06
 BYTE   Gn1
 BYTE   W06
// 002   ----------------------------------------
Label_6_01494F37:
 BYTE   N12  Cn1  v064
 BYTE   N12  Fs1
 BYTE   N24  Cs2
 BYTE   W12
 BYTE   N12  Dn1
 BYTE   N12  Fs1
 BYTE   W12
 BYTE   Cn1
 BYTE   N12  Fs1
 BYTE   W12
 BYTE   En1
 BYTE   N12  Fs1
 BYTE   W12
 BYTE   Cn1
 BYTE   N12  Fs1
 BYTE   W12
 BYTE   Fn1
 BYTE   N12  Fs1
 BYTE   W12
 BYTE   Cn1
 BYTE   N12  Fs1
 BYTE   W12
 BYTE   En1
 BYTE   N12  Fs1
 BYTE   W12
 BYTE   PEND 
// 003   ----------------------------------------
Label_6_01494F5D:
 BYTE   N12  Cn1  v064
 BYTE   N12  Fs1
 BYTE   W12
 BYTE   Dn1
 BYTE   N12  Fs1
 BYTE   W12
 BYTE   Cn1
 BYTE   N12  Fs1
 BYTE   W12
 BYTE   En1
 BYTE   N12  Fs1
 BYTE   W12
 BYTE   Cn1
 BYTE   N12  Fs1
 BYTE   W12
 BYTE   Fn1
 BYTE   N12  Fs1
 BYTE   W12
 BYTE   Cn1
 BYTE   N12  Fs1
 BYTE   W12
 BYTE   En1
 BYTE   N12  Fs1
 BYTE   W12
 BYTE   PEND 
 BYTE   PATT
  POIN2 Label_6_01494F37
// 004   ----------------------------------------
Label_6_01494F85:
 BYTE   N12  Cn1  v064
 BYTE   N12  Fs1
 BYTE   W12
 BYTE   Dn1
 BYTE   N12  Fs1
 BYTE   W12
 BYTE   Cn1
 BYTE   N12  Fs1
 BYTE   W12
 BYTE   En1
 BYTE   N12  Fs1
 BYTE   W12
 BYTE   En1
 BYTE   N12  As1
 BYTE   W12
 BYTE   Dn1
 BYTE   W12
 BYTE   N06  En1
 BYTE   W06
 BYTE   Cn2
 BYTE   W06
 BYTE   Bn1
 BYTE   W06
 BYTE   Gn1
 BYTE   W06
 BYTE   PEND 
 BYTE   PATT
  POIN2 Label_6_01494F37
 BYTE   PATT
  POIN2 Label_6_01494F5D
 BYTE   PATT
  POIN2 Label_6_01494F37
 BYTE   PATT
  POIN2 Label_6_01494F85
 BYTE   PATT
  POIN2 Label_6_01494F37
 BYTE   PATT
  POIN2 Label_6_01494F5D
 BYTE   PATT
  POIN2 Label_6_01494F37
 BYTE   PATT
  POIN2 Label_6_01494F85
 BYTE   PATT
  POIN2 Label_6_01494F37
 BYTE   PATT
  POIN2 Label_6_01494F5D
 BYTE   PATT
  POIN2 Label_6_01494F37
 BYTE   PATT
  POIN2 Label_6_01494F85
// 005   ----------------------------------------
 BYTE   GoTo
  POIN2 Label_6_01494F0C
 BYTE   FINE

//******************************************************//
	ALIGN 4

songShowEmWhatsWhat:
	BYTE	7	// NumTrks
	BYTE	0	// NumBlks
	BYTE	songShowEmWhatsWhat_pri	// Priority
	BYTE	songShowEmWhatsWhat_rev	// Reverb.
    
	POIN2	songShowEmWhatsWhat_grp
    
	POIN2	songShowEmWhatsWhat_001
	POIN2	songShowEmWhatsWhat_002
	POIN2	songShowEmWhatsWhat_003
	POIN2	songShowEmWhatsWhat_004
	POIN2	songShowEmWhatsWhat_005
	POIN2	songShowEmWhatsWhat_006
	POIN2	songShowEmWhatsWhat_007

	
