//Event file generated from Sappy .s format.
	#include "MPlayDef.event"

	#define	songSnowBattle_grp  voicegroup000
	#define	songSnowBattle_pri  0
	#define	songSnowBattle_rev  0
	#define	songSnowBattle_mvl  127
	#define	songSnowBattle_key  0
	#define	songSnowBattle_tbs  1
	#define	songSnowBattle_exg  0
	#define	songSnowBattle_cmp  1

	// .rodata
	//	songSnowBattle
	ALIGN 4


//**************** Track 1 (Midi-Chn.0) ****************//

songSnowBattle_001:
// 000   ----------------------------------------
 BYTE   KEYSH   songSnowBattle_key+0
Label_0_0103FAE2:
 BYTE   TEMPO   136*songSnowBattle_tbs/2
 BYTE   VOICE   72
 BYTE   MODT 0
 BYTE   CnM2
 BYTE   LFOS 0
 BYTE   Gs1
 BYTE   VOL   46*songSnowBattle_mvl/mxv
 BYTE   PAN   c_v-25
 BYTE   W96
// 001   ----------------------------------------
 BYTE   W96
// 002   ----------------------------------------
 BYTE   W96
// 003   ----------------------------------------
 BYTE   W96
// 004   ----------------------------------------
 BYTE   W96
// 005   ----------------------------------------
 BYTE   W96
// 006   ----------------------------------------
 BYTE   W96
// 007   ----------------------------------------
 BYTE   W96
// 008   ----------------------------------------
 BYTE   W96
// 009   ----------------------------------------
 BYTE   W96
// 010   ----------------------------------------
 BYTE   W96
// 011   ----------------------------------------
 BYTE   W96
// 012   ----------------------------------------
 BYTE   W96
// 013   ----------------------------------------
 BYTE   W96
// 014   ----------------------------------------
 BYTE   W96
// 015   ----------------------------------------
Label_0_0103FAFD:
 BYTE   W48
 BYTE   N06  Dn6  v032
 BYTE   W06
 BYTE   Ds6
 BYTE   W06
 BYTE   As5
 BYTE   W12
 BYTE   Gs5
 BYTE   W12
 BYTE   Ds5
 BYTE   W12
 BYTE   PEND 
// 016   ----------------------------------------
 BYTE   W96
// 017   ----------------------------------------
 BYTE   W96
// 018   ----------------------------------------
 BYTE   W96
// 019   ----------------------------------------
 BYTE   W96
// 020   ----------------------------------------
 BYTE   W96
// 021   ----------------------------------------
 BYTE   W96
// 022   ----------------------------------------
 BYTE   W96
// 023   ----------------------------------------
 BYTE   W96
// 024   ----------------------------------------
 BYTE   W96
// 025   ----------------------------------------
 BYTE   W96
// 026   ----------------------------------------
 BYTE   W96
// 027   ----------------------------------------
 BYTE   W96
// 028   ----------------------------------------
 BYTE   W96
// 029   ----------------------------------------
 BYTE   W96
// 030   ----------------------------------------
 BYTE   W96
// 031   ----------------------------------------
 BYTE   W96
// 032   ----------------------------------------
 BYTE   W96
// 033   ----------------------------------------
 BYTE   W96
// 034   ----------------------------------------
 BYTE   W96
// 035   ----------------------------------------
 BYTE   W96
// 036   ----------------------------------------
 BYTE   W96
// 037   ----------------------------------------
 BYTE   W96
// 038   ----------------------------------------
 BYTE   W96
// 039   ----------------------------------------
 BYTE   W96
// 040   ----------------------------------------
 BYTE   W96
// 041   ----------------------------------------
 BYTE   W96
// 042   ----------------------------------------
 BYTE   W96
// 043   ----------------------------------------
 BYTE   W72
 BYTE   N24  Fn5  v044
 BYTE   W24
// 044   ----------------------------------------
Label_0_0103FB2B:
 BYTE   N36  Ds6  v044
 BYTE   W36
 BYTE   N06  Dn6
 BYTE   W06
 BYTE   Cn6
 BYTE   W06
 BYTE   N36  Dn6
 BYTE   W48
 BYTE   PEND 
// 045   ----------------------------------------
Label_0_0103FB38:
 BYTE   N36  Dn6  v044
 BYTE   W36
 BYTE   N06  En6
 BYTE   W06
 BYTE   Dn6
 BYTE   W06
 BYTE   N24  Cs6
 BYTE   W24
 BYTE   An5
 BYTE   W24
 BYTE   PEND 
// 046   ----------------------------------------
 BYTE   W96
// 047   ----------------------------------------
 BYTE   W96
// 048   ----------------------------------------
 BYTE   W96
// 049   ----------------------------------------
 BYTE   W96
// 050   ----------------------------------------
 BYTE   W96
// 051   ----------------------------------------
 BYTE   W96
// 052   ----------------------------------------
 BYTE   W96
// 053   ----------------------------------------
 BYTE   W96
// 054   ----------------------------------------
 BYTE   W96
// 055   ----------------------------------------
 BYTE   W96
// 056   ----------------------------------------
 BYTE   W96
// 057   ----------------------------------------
 BYTE   W96
// 058   ----------------------------------------
 BYTE   W96
// 059   ----------------------------------------
 BYTE   W96
// 060   ----------------------------------------
 BYTE   W96
// 061   ----------------------------------------
 BYTE   W96
// 062   ----------------------------------------
 BYTE   W96
// 063   ----------------------------------------
 BYTE   W96
// 064   ----------------------------------------
 BYTE   W96
// 065   ----------------------------------------
 BYTE   W96
// 066   ----------------------------------------
 BYTE   W96
 BYTE   PATT
  POIN2 Label_0_0103FAFD
// 067   ----------------------------------------
 BYTE   W96
// 068   ----------------------------------------
 BYTE   W96
// 069   ----------------------------------------
 BYTE   W96
// 070   ----------------------------------------
 BYTE   W96
// 071   ----------------------------------------
 BYTE   W96
// 072   ----------------------------------------
 BYTE   W96
// 073   ----------------------------------------
 BYTE   W96
// 074   ----------------------------------------
 BYTE   W96
// 075   ----------------------------------------
 BYTE   W96
// 076   ----------------------------------------
 BYTE   W96
// 077   ----------------------------------------
 BYTE   W96
// 078   ----------------------------------------
 BYTE   W96
// 079   ----------------------------------------
 BYTE   W96
// 080   ----------------------------------------
 BYTE   W96
// 081   ----------------------------------------
 BYTE   W96
// 082   ----------------------------------------
 BYTE   W96
// 083   ----------------------------------------
 BYTE   W96
// 084   ----------------------------------------
 BYTE   W96
// 085   ----------------------------------------
 BYTE   W96
// 086   ----------------------------------------
 BYTE   W96
// 087   ----------------------------------------
 BYTE   W96
// 088   ----------------------------------------
 BYTE   W96
// 089   ----------------------------------------
 BYTE   W96
// 090   ----------------------------------------
 BYTE   W96
// 091   ----------------------------------------
 BYTE   W96
// 092   ----------------------------------------
 BYTE   W96
// 093   ----------------------------------------
 BYTE   W96
// 094   ----------------------------------------
 BYTE   W72
 BYTE   N24  Fn5  v044
 BYTE   W24
 BYTE   PATT
  POIN2 Label_0_0103FB2B
 BYTE   PATT
  POIN2 Label_0_0103FB38
// 095   ----------------------------------------
 BYTE   W96
// 096   ----------------------------------------
 BYTE   W96
// 097   ----------------------------------------
 BYTE   W96
// 098   ----------------------------------------
 BYTE   W96
// 099   ----------------------------------------
 BYTE   W96
// 100   ----------------------------------------
 BYTE   W84
 BYTE   GoTo
  POIN2 Label_0_0103FAE2
// 101   ----------------------------------------
 BYTE   W12
 BYTE   FINE

//**************** Track 2 (Midi-Chn.1) ****************//

songSnowBattle_002:
// 000   ----------------------------------------
 BYTE   KEYSH   songSnowBattle_key+0
Label_1_0103FB9A:
 BYTE   VOICE   73
 BYTE   MODT 0
 BYTE   CnM2
 BYTE   LFOS 0
 BYTE   Gs1
 BYTE   PAN   c_v-22
 BYTE   VOL   46*songSnowBattle_mvl/mxv
 BYTE   W96
// 001   ----------------------------------------
 BYTE   W96
// 002   ----------------------------------------
 BYTE   W96
// 003   ----------------------------------------
 BYTE   W96
// 004   ----------------------------------------
 BYTE   W96
// 005   ----------------------------------------
 BYTE   W96
// 006   ----------------------------------------
 BYTE   W96
// 007   ----------------------------------------
 BYTE   W96
// 008   ----------------------------------------
 BYTE   W96
// 009   ----------------------------------------
 BYTE   W96
// 010   ----------------------------------------
 BYTE   W96
// 011   ----------------------------------------
 BYTE   W96
// 012   ----------------------------------------
Label_1_0103FBB0:
 BYTE   N06  Gs5  v016
 BYTE   W12
 BYTE   As5
 BYTE   W12
 BYTE   Ds5
 BYTE   W24
 BYTE   Gs5
 BYTE   W12
 BYTE   As5
 BYTE   W12
 BYTE   Ds5
 BYTE   W12
 BYTE   As5
 BYTE   W12
 BYTE   PEND 
// 013   ----------------------------------------
Label_1_0103FBC1:
 BYTE   N06  Gs5  v016
 BYTE   W12
 BYTE   As5
 BYTE   W12
 BYTE   Ds5
 BYTE   W12
 BYTE   As5
 BYTE   W12
 BYTE   Gs5
 BYTE   W24
 BYTE   N06
 BYTE   W12
 BYTE   As5
 BYTE   W12
 BYTE   PEND 
// 014   ----------------------------------------
Label_1_0103FBD2:
 BYTE   N06  Gs5  v016
 BYTE   W12
 BYTE   As5
 BYTE   W12
 BYTE   Ds5
 BYTE   W12
 BYTE   As5
 BYTE   W12
 BYTE   Gs5
 BYTE   W06
 BYTE   Gn5
 BYTE   W06
 BYTE   As5
 BYTE   W12
 BYTE   Ds5
 BYTE   W12
 BYTE   As5
 BYTE   W12
 BYTE   PEND 
// 015   ----------------------------------------
Label_1_0103FBE7:
 BYTE   N06  Gs5  v016
 BYTE   W12
 BYTE   Dn5
 BYTE   W12
 BYTE   Gn5
 BYTE   W12
 BYTE   Dn5
 BYTE   W12
 BYTE   Gs5
 BYTE   W12
 BYTE   Ds5
 BYTE   W12
 BYTE   Gs5
 BYTE   W12
 BYTE   Ds5
 BYTE   W12
 BYTE   PEND 
// 016   ----------------------------------------
 BYTE   W96
// 017   ----------------------------------------
 BYTE   W96
// 018   ----------------------------------------
 BYTE   W96
// 019   ----------------------------------------
 BYTE   W96
 BYTE   PATT
  POIN2 Label_1_0103FBB0
 BYTE   PATT
  POIN2 Label_1_0103FBC1
// 020   ----------------------------------------
Label_1_0103FC08:
 BYTE   N06  Gs5  v016
 BYTE   W12
 BYTE   As5
 BYTE   W12
 BYTE   Ds5
 BYTE   W12
 BYTE   As5
 BYTE   W12
 BYTE   Gs5
 BYTE   W12
 BYTE   As5
 BYTE   W12
 BYTE   Ds5
 BYTE   W12
 BYTE   As5
 BYTE   W12
 BYTE   PEND 
// 021   ----------------------------------------
Label_1_0103FC1B:
 BYTE   N06  Cs5  v016
 BYTE   W12
 BYTE   N06
 BYTE   W12
 BYTE   Dn5
 BYTE   W12
 BYTE   N06
 BYTE   W12
 BYTE   N06
 BYTE   W12
 BYTE   N06
 BYTE   W12
 BYTE   Ds5
 BYTE   W12
 BYTE   N06
 BYTE   W12
 BYTE   PEND 
// 022   ----------------------------------------
 BYTE   W96
// 023   ----------------------------------------
 BYTE   W96
// 024   ----------------------------------------
 BYTE   W96
// 025   ----------------------------------------
 BYTE   W96
// 026   ----------------------------------------
 BYTE   W96
// 027   ----------------------------------------
 BYTE   W96
// 028   ----------------------------------------
 BYTE   W96
// 029   ----------------------------------------
 BYTE   W96
// 030   ----------------------------------------
 BYTE   W96
// 031   ----------------------------------------
 BYTE   W96
// 032   ----------------------------------------
 BYTE   W96
// 033   ----------------------------------------
 BYTE   W96
// 034   ----------------------------------------
 BYTE   W96
// 035   ----------------------------------------
 BYTE   W96
// 036   ----------------------------------------
 BYTE   W96
// 037   ----------------------------------------
 BYTE   W96
// 038   ----------------------------------------
 BYTE   W96
// 039   ----------------------------------------
 BYTE   W96
// 040   ----------------------------------------
 BYTE   W96
// 041   ----------------------------------------
 BYTE   W96
// 042   ----------------------------------------
 BYTE   W96
// 043   ----------------------------------------
 BYTE   W96
// 044   ----------------------------------------
 BYTE   W96
// 045   ----------------------------------------
 BYTE   W96
// 046   ----------------------------------------
 BYTE   W96
// 047   ----------------------------------------
 BYTE   W96
// 048   ----------------------------------------
 BYTE   W96
// 049   ----------------------------------------
 BYTE   W96
// 050   ----------------------------------------
 BYTE   W96
// 051   ----------------------------------------
 BYTE   W96
// 052   ----------------------------------------
 BYTE   W96
// 053   ----------------------------------------
 BYTE   W96
// 054   ----------------------------------------
 BYTE   W96
// 055   ----------------------------------------
 BYTE   W96
// 056   ----------------------------------------
 BYTE   W96
// 057   ----------------------------------------
 BYTE   W96
// 058   ----------------------------------------
 BYTE   W96
// 059   ----------------------------------------
 BYTE   W96
// 060   ----------------------------------------
 BYTE   W96
// 061   ----------------------------------------
 BYTE   W96
 BYTE   PATT
  POIN2 Label_1_0103FBB0
 BYTE   PATT
  POIN2 Label_1_0103FBC1
 BYTE   PATT
  POIN2 Label_1_0103FBD2
 BYTE   PATT
  POIN2 Label_1_0103FBE7
// 062   ----------------------------------------
 BYTE   W96
// 063   ----------------------------------------
 BYTE   W96
// 064   ----------------------------------------
 BYTE   W96
// 065   ----------------------------------------
 BYTE   W96
 BYTE   PATT
  POIN2 Label_1_0103FBB0
 BYTE   PATT
  POIN2 Label_1_0103FBC1
 BYTE   PATT
  POIN2 Label_1_0103FC08
 BYTE   PATT
  POIN2 Label_1_0103FC1B
// 066   ----------------------------------------
 BYTE   W96
// 067   ----------------------------------------
 BYTE   W96
// 068   ----------------------------------------
 BYTE   W96
// 069   ----------------------------------------
 BYTE   W96
// 070   ----------------------------------------
 BYTE   W96
// 071   ----------------------------------------
 BYTE   W96
// 072   ----------------------------------------
 BYTE   W96
// 073   ----------------------------------------
 BYTE   W96
// 074   ----------------------------------------
 BYTE   W96
// 075   ----------------------------------------
 BYTE   W96
// 076   ----------------------------------------
 BYTE   W96
// 077   ----------------------------------------
 BYTE   W96
// 078   ----------------------------------------
 BYTE   W96
// 079   ----------------------------------------
 BYTE   W96
// 080   ----------------------------------------
 BYTE   W96
// 081   ----------------------------------------
 BYTE   W96
// 082   ----------------------------------------
 BYTE   W96
// 083   ----------------------------------------
 BYTE   W96
// 084   ----------------------------------------
 BYTE   W96
// 085   ----------------------------------------
 BYTE   W96
// 086   ----------------------------------------
 BYTE   W96
// 087   ----------------------------------------
 BYTE   W96
// 088   ----------------------------------------
 BYTE   W96
// 089   ----------------------------------------
 BYTE   W96
// 090   ----------------------------------------
 BYTE   W96
// 091   ----------------------------------------
 BYTE   W96
// 092   ----------------------------------------
 BYTE   W96
// 093   ----------------------------------------
 BYTE   W84
 BYTE   GoTo
  POIN2 Label_1_0103FB9A
// 094   ----------------------------------------
 BYTE   W12
 BYTE   FINE

//**************** Track 3 (Midi-Chn.2) ****************//

songSnowBattle_003:
// 000   ----------------------------------------
 BYTE   KEYSH   songSnowBattle_key+0
Label_2_0103FCAA:
 BYTE   VOICE   68
 BYTE   MODT 0
 BYTE   CnM2
 BYTE   LFOS 0
 BYTE   Gs1
 BYTE   VOL   60*songSnowBattle_mvl/mxv
 BYTE   PAN   c_v+17
 BYTE   W96
// 001   ----------------------------------------
 BYTE   W96
// 002   ----------------------------------------
 BYTE   W96
// 003   ----------------------------------------
 BYTE   W96
// 004   ----------------------------------------
 BYTE   W96
// 005   ----------------------------------------
 BYTE   W96
// 006   ----------------------------------------
 BYTE   W96
// 007   ----------------------------------------
 BYTE   W96
// 008   ----------------------------------------
 BYTE   W96
// 009   ----------------------------------------
 BYTE   W96
// 010   ----------------------------------------
 BYTE   W96
// 011   ----------------------------------------
 BYTE   W96
// 012   ----------------------------------------
 BYTE   W96
// 013   ----------------------------------------
 BYTE   W96
// 014   ----------------------------------------
 BYTE   W96
// 015   ----------------------------------------
 BYTE   W96
// 016   ----------------------------------------
 BYTE   W96
// 017   ----------------------------------------
 BYTE   W96
// 018   ----------------------------------------
 BYTE   W96
// 019   ----------------------------------------
 BYTE   W96
// 020   ----------------------------------------
 BYTE   W96
// 021   ----------------------------------------
 BYTE   W96
// 022   ----------------------------------------
 BYTE   W96
// 023   ----------------------------------------
 BYTE   W96
// 024   ----------------------------------------
 BYTE   W96
// 025   ----------------------------------------
 BYTE   W96
// 026   ----------------------------------------
 BYTE   W96
// 027   ----------------------------------------
 BYTE   W96
// 028   ----------------------------------------
 BYTE   W96
// 029   ----------------------------------------
 BYTE   W72
 BYTE   N24  Dn4  v044
 BYTE   W24
// 030   ----------------------------------------
Label_2_0103FCD6:
 BYTE   N24  Fs4  v044
 BYTE   W24
 BYTE   Dn4
 BYTE   W24
 BYTE   An4
 BYTE   W24
 BYTE   N09  Gn4
 BYTE   W12
 BYTE   N06  Fs4
 BYTE   W12
 BYTE   PEND 
// 031   ----------------------------------------
Label_2_0103FCE5:
 BYTE   N24  Fs4  v044
 BYTE   W24
 BYTE   Dn4
 BYTE   W24
 BYTE   Gn4
 BYTE   W24
 BYTE   An4
 BYTE   W24
 BYTE   PEND 
// 032   ----------------------------------------
Label_2_0103FCF0:
 BYTE   N24  As4  v044
 BYTE   W24
 BYTE   N72  Ds4
 BYTE   W72
 BYTE   PEND 
// 033   ----------------------------------------
Label_2_0103FCF8:
 BYTE   N24  As4  v044
 BYTE   W24
 BYTE   N48  Cn4
 BYTE   W48
 BYTE   N24  Fn4
 BYTE   W24
 BYTE   PEND 
// 034   ----------------------------------------
Label_2_0103FD03:
 BYTE   N24  Ds4  v044
 BYTE   W24
 BYTE   N48  Dn4
 BYTE   W48
 BYTE   N96  Cn4
 BYTE   W24
 BYTE   PEND 
// 035   ----------------------------------------
 BYTE   W72
 BYTE   N24  Dn4
 BYTE   W24
// 036   ----------------------------------------
 BYTE   N96
 BYTE   W96
// 037   ----------------------------------------
 BYTE   W72
 BYTE   N24
 BYTE   W24
// 038   ----------------------------------------
Label_2_0103FD17:
 BYTE   N24  Fs4  v044
 BYTE   W24
 BYTE   Dn4
 BYTE   W24
 BYTE   An4
 BYTE   W24
 BYTE   N11  Gn4
 BYTE   W12
 BYTE   N06  Fs4
 BYTE   W12
 BYTE   PEND 
 BYTE   PATT
  POIN2 Label_2_0103FCE5
 BYTE   PATT
  POIN2 Label_2_0103FCF0
 BYTE   PATT
  POIN2 Label_2_0103FCF8
// 039   ----------------------------------------
Label_2_0103FD35:
 BYTE   N24  Ds4  v044
 BYTE   W24
 BYTE   N48  Dn4
 BYTE   W48
 BYTE   N24  Cn4
 BYTE   W24
 BYTE   PEND 
// 040   ----------------------------------------
Label_2_0103FD40:
 BYTE   N72  Cn4  v044
 BYTE   W72
 BYTE   N24  Fn4
 BYTE   W24
 BYTE   PEND 
// 041   ----------------------------------------
 BYTE   W96
// 042   ----------------------------------------
 BYTE   W96
// 043   ----------------------------------------
 BYTE   W96
// 044   ----------------------------------------
 BYTE   W96
// 045   ----------------------------------------
 BYTE   W96
// 046   ----------------------------------------
 BYTE   W96
// 047   ----------------------------------------
 BYTE   W96
// 048   ----------------------------------------
 BYTE   W96
// 049   ----------------------------------------
 BYTE   W96
// 050   ----------------------------------------
 BYTE   W96
// 051   ----------------------------------------
 BYTE   W96
// 052   ----------------------------------------
 BYTE   W96
// 053   ----------------------------------------
 BYTE   W96
// 054   ----------------------------------------
 BYTE   W96
// 055   ----------------------------------------
 BYTE   W96
// 056   ----------------------------------------
 BYTE   W96
// 057   ----------------------------------------
 BYTE   W96
// 058   ----------------------------------------
 BYTE   W96
// 059   ----------------------------------------
 BYTE   W96
// 060   ----------------------------------------
 BYTE   W96
// 061   ----------------------------------------
 BYTE   W96
// 062   ----------------------------------------
 BYTE   W96
// 063   ----------------------------------------
 BYTE   W96
// 064   ----------------------------------------
 BYTE   W96
// 065   ----------------------------------------
 BYTE   W96
// 066   ----------------------------------------
 BYTE   W96
// 067   ----------------------------------------
 BYTE   W96
// 068   ----------------------------------------
 BYTE   W96
// 069   ----------------------------------------
 BYTE   W96
// 070   ----------------------------------------
 BYTE   W96
// 071   ----------------------------------------
 BYTE   W96
// 072   ----------------------------------------
 BYTE   W96
// 073   ----------------------------------------
 BYTE   W96
// 074   ----------------------------------------
 BYTE   W96
// 075   ----------------------------------------
 BYTE   W96
// 076   ----------------------------------------
 BYTE   W96
// 077   ----------------------------------------
 BYTE   W96
// 078   ----------------------------------------
 BYTE   W72
 BYTE   Dn4
 BYTE   W24
 BYTE   PATT
  POIN2 Label_2_0103FCD6
 BYTE   PATT
  POIN2 Label_2_0103FCE5
 BYTE   PATT
  POIN2 Label_2_0103FCF0
 BYTE   PATT
  POIN2 Label_2_0103FCF8
 BYTE   PATT
  POIN2 Label_2_0103FD03
// 079   ----------------------------------------
 BYTE   W72
 BYTE   N24  Dn4  v044
 BYTE   W24
// 080   ----------------------------------------
 BYTE   N96
 BYTE   W96
// 081   ----------------------------------------
 BYTE   W72
 BYTE   N24
 BYTE   W24
 BYTE   PATT
  POIN2 Label_2_0103FD17
 BYTE   PATT
  POIN2 Label_2_0103FCE5
 BYTE   PATT
  POIN2 Label_2_0103FCF0
 BYTE   PATT
  POIN2 Label_2_0103FCF8
 BYTE   PATT
  POIN2 Label_2_0103FD35
 BYTE   PATT
  POIN2 Label_2_0103FD40
// 082   ----------------------------------------
 BYTE   W96
// 083   ----------------------------------------
 BYTE   W96
// 084   ----------------------------------------
 BYTE   W96
// 085   ----------------------------------------
 BYTE   W96
// 086   ----------------------------------------
 BYTE   W96
// 087   ----------------------------------------
 BYTE   W96
// 088   ----------------------------------------
 BYTE   W96
// 089   ----------------------------------------
 BYTE   W84
 BYTE   GoTo
  POIN2 Label_2_0103FCAA
// 090   ----------------------------------------
 BYTE   W12
 BYTE   FINE

//**************** Track 4 (Midi-Chn.3) ****************//

songSnowBattle_004:
// 000   ----------------------------------------
 BYTE   KEYSH   songSnowBattle_key+0
Label_3_0103FDC2:
 BYTE   VOICE   71
 BYTE   MODT 0
 BYTE   CnM2
 BYTE   LFOS 0
 BYTE   Gs1
 BYTE   VOL   53*songSnowBattle_mvl/mxv
 BYTE   PAN   c_v-10
 BYTE   W96
// 001   ----------------------------------------
 BYTE   W96
// 002   ----------------------------------------
 BYTE   W96
// 003   ----------------------------------------
 BYTE   W96
// 004   ----------------------------------------
 BYTE   W96
// 005   ----------------------------------------
 BYTE   W96
// 006   ----------------------------------------
 BYTE   W96
// 007   ----------------------------------------
 BYTE   W96
// 008   ----------------------------------------
 BYTE   W96
// 009   ----------------------------------------
 BYTE   W96
// 010   ----------------------------------------
 BYTE   W96
// 011   ----------------------------------------
 BYTE   W96
// 012   ----------------------------------------
 BYTE   W96
// 013   ----------------------------------------
 BYTE   W96
// 014   ----------------------------------------
 BYTE   W96
// 015   ----------------------------------------
 BYTE   W96
// 016   ----------------------------------------
 BYTE   W96
// 017   ----------------------------------------
 BYTE   W96
// 018   ----------------------------------------
 BYTE   W96
// 019   ----------------------------------------
 BYTE   W96
// 020   ----------------------------------------
Label_3_0103FDE0:
 BYTE   N06  Ds4  v040
 BYTE   W12
 BYTE   N06
 BYTE   W12
 BYTE   N06
 BYTE   W12
 BYTE   Cs4
 BYTE   W12
 BYTE   N12  Ds4
 BYTE   W24
 BYTE   N06
 BYTE   W12
 BYTE   Cs4
 BYTE   W12
 BYTE   PEND 
// 021   ----------------------------------------
Label_3_0103FDF2:
 BYTE   N12  Ds4  v040
 BYTE   W24
 BYTE   N06
 BYTE   W12
 BYTE   Cs4
 BYTE   W12
 BYTE   Ds4
 BYTE   W12
 BYTE   Fn4
 BYTE   W12
 BYTE   Fs4
 BYTE   W12
 BYTE   Gs4
 BYTE   W12
 BYTE   PEND 
// 022   ----------------------------------------
Label_3_0103FE03:
 BYTE   N06  As4  v040
 BYTE   W12
 BYTE   Ds4
 BYTE   W12
 BYTE   N48  Dn4
 BYTE   W48
 BYTE   N12  Ds4
 BYTE   W24
 BYTE   PEND 
// 023   ----------------------------------------
Label_3_0103FE10:
 BYTE   N06  Cs5  v040
 BYTE   W12
 BYTE   Fs4
 BYTE   W12
 BYTE   N48  Fn4
 BYTE   W48
 BYTE   N12  Fs4
 BYTE   W24
 BYTE   PEND 
// 024   ----------------------------------------
 BYTE   W96
// 025   ----------------------------------------
 BYTE   W96
// 026   ----------------------------------------
 BYTE   W96
// 027   ----------------------------------------
 BYTE   W96
// 028   ----------------------------------------
 BYTE   W96
// 029   ----------------------------------------
 BYTE   W96
// 030   ----------------------------------------
 BYTE   W96
// 031   ----------------------------------------
 BYTE   W96
// 032   ----------------------------------------
 BYTE   W96
// 033   ----------------------------------------
 BYTE   W96
// 034   ----------------------------------------
 BYTE   W96
// 035   ----------------------------------------
 BYTE   W96
// 036   ----------------------------------------
 BYTE   W96
// 037   ----------------------------------------
 BYTE   W96
// 038   ----------------------------------------
 BYTE   W96
// 039   ----------------------------------------
 BYTE   W96
// 040   ----------------------------------------
 BYTE   W96
// 041   ----------------------------------------
 BYTE   W96
// 042   ----------------------------------------
 BYTE   W96
// 043   ----------------------------------------
 BYTE   W96
// 044   ----------------------------------------
 BYTE   W96
// 045   ----------------------------------------
 BYTE   W96
// 046   ----------------------------------------
 BYTE   W96
// 047   ----------------------------------------
 BYTE   W96
// 048   ----------------------------------------
 BYTE   W96
// 049   ----------------------------------------
 BYTE   W96
// 050   ----------------------------------------
 BYTE   W96
// 051   ----------------------------------------
 BYTE   W96
// 052   ----------------------------------------
 BYTE   W96
// 053   ----------------------------------------
 BYTE   W96
// 054   ----------------------------------------
 BYTE   W96
// 055   ----------------------------------------
 BYTE   W96
// 056   ----------------------------------------
 BYTE   W96
// 057   ----------------------------------------
 BYTE   W96
// 058   ----------------------------------------
 BYTE   W96
// 059   ----------------------------------------
 BYTE   W96
// 060   ----------------------------------------
 BYTE   W96
// 061   ----------------------------------------
 BYTE   W96
// 062   ----------------------------------------
 BYTE   W96
// 063   ----------------------------------------
 BYTE   W96
// 064   ----------------------------------------
 BYTE   W96
// 065   ----------------------------------------
 BYTE   W96
// 066   ----------------------------------------
 BYTE   W96
// 067   ----------------------------------------
 BYTE   W96
// 068   ----------------------------------------
 BYTE   W96
// 069   ----------------------------------------
 BYTE   W96
// 070   ----------------------------------------
 BYTE   W96
// 071   ----------------------------------------
 BYTE   W96
 BYTE   PATT
  POIN2 Label_3_0103FDE0
 BYTE   PATT
  POIN2 Label_3_0103FDF2
 BYTE   PATT
  POIN2 Label_3_0103FE03
 BYTE   PATT
  POIN2 Label_3_0103FE10
// 072   ----------------------------------------
 BYTE   W96
// 073   ----------------------------------------
 BYTE   W96
// 074   ----------------------------------------
 BYTE   W96
// 075   ----------------------------------------
 BYTE   W96
// 076   ----------------------------------------
 BYTE   W96
// 077   ----------------------------------------
 BYTE   W96
// 078   ----------------------------------------
 BYTE   W96
// 079   ----------------------------------------
 BYTE   W96
// 080   ----------------------------------------
 BYTE   W96
// 081   ----------------------------------------
 BYTE   W96
// 082   ----------------------------------------
 BYTE   W96
// 083   ----------------------------------------
 BYTE   W96
// 084   ----------------------------------------
 BYTE   W96
// 085   ----------------------------------------
 BYTE   W96
// 086   ----------------------------------------
 BYTE   W96
// 087   ----------------------------------------
 BYTE   W96
// 088   ----------------------------------------
 BYTE   W96
// 089   ----------------------------------------
 BYTE   W96
// 090   ----------------------------------------
 BYTE   W96
// 091   ----------------------------------------
 BYTE   W96
// 092   ----------------------------------------
 BYTE   W96
// 093   ----------------------------------------
 BYTE   W96
// 094   ----------------------------------------
 BYTE   W96
// 095   ----------------------------------------
 BYTE   W96
// 096   ----------------------------------------
 BYTE   W96
// 097   ----------------------------------------
 BYTE   W96
// 098   ----------------------------------------
 BYTE   W96
// 099   ----------------------------------------
 BYTE   W84
 BYTE   GoTo
  POIN2 Label_3_0103FDC2
// 100   ----------------------------------------
 BYTE   W12
 BYTE   FINE

//**************** Track 5 (Midi-Chn.4) ****************//

songSnowBattle_005:
// 000   ----------------------------------------
 BYTE   KEYSH   songSnowBattle_key+0
Label_4_0103FE86:
 BYTE   VOICE   56
 BYTE   MODT 0
 BYTE   CnM2
 BYTE   LFOS 0
 BYTE   Gs1
 BYTE   VOL   60*songSnowBattle_mvl/mxv
 BYTE   PAN   c_v-19
 BYTE   W96
// 001   ----------------------------------------
 BYTE   W96
// 002   ----------------------------------------
 BYTE   W96
// 003   ----------------------------------------
 BYTE   W96
// 004   ----------------------------------------
 BYTE   W96
// 005   ----------------------------------------
 BYTE   W96
// 006   ----------------------------------------
 BYTE   W96
// 007   ----------------------------------------
 BYTE   W96
// 008   ----------------------------------------
Label_4_0103FE98:
 BYTE   N18  Gs3  v044
 BYTE   N18  Cs4
 BYTE   N18  Fn4
 BYTE   W24
 BYTE   N03  Gs3
 BYTE   N03  Cs4
 BYTE   N03  Fn4
 BYTE   W08
 BYTE   Gs3
 BYTE   N03  Cs4
 BYTE   N03  Fn4
 BYTE   W07
 BYTE   Gs3
 BYTE   N03  Cs4
 BYTE   N03  Fn4
 BYTE   W09
 BYTE   N18  Gs3
 BYTE   N18  Cs4
 BYTE   N18  Fn4
 BYTE   W24
 BYTE   Gs3
 BYTE   N18  Cs4
 BYTE   N18  Fn4
 BYTE   W24
 BYTE   PEND 
// 009   ----------------------------------------
Label_4_0103FEC1:
 BYTE   N03  Gs3  v044
 BYTE   N03  Cs4
 BYTE   N03  Fn4
 BYTE   W08
 BYTE   Gs3
 BYTE   N03  Cs4
 BYTE   N03  Fn4
 BYTE   W07
 BYTE   Gs3
 BYTE   N03  Cs4
 BYTE   N03  Fn4
 BYTE   W09
 BYTE   Gs3
 BYTE   N03  Cs4
 BYTE   N03  Fn4
 BYTE   W08
 BYTE   Gs3
 BYTE   N03  Cs4
 BYTE   N03  Fn4
 BYTE   W07
 BYTE   Gs3
 BYTE   N03  Cs4
 BYTE   N03  Fn4
 BYTE   W09
 BYTE   N18  Gs3
 BYTE   N18  Cs4
 BYTE   N18  Fn4
 BYTE   W24
 BYTE   N03  Gs3
 BYTE   N03  Cs4
 BYTE   N03  Fn4
 BYTE   W08
 BYTE   Gs3
 BYTE   N03  Cs4
 BYTE   N03  Fn4
 BYTE   W07
 BYTE   Gs3
 BYTE   N03  Cs4
 BYTE   N03  Fn4
 BYTE   W09
 BYTE   PEND 
// 010   ----------------------------------------
Label_4_0103FF02:
 BYTE   N18  Gs3  v044
 BYTE   N18  Cs4
 BYTE   N18  Fn4
 BYTE   W24
 BYTE   Gs3
 BYTE   N18  Cs4
 BYTE   N18  Fn4
 BYTE   W24
 BYTE   N03  Gs3
 BYTE   N03  Cs4
 BYTE   N03  Fn4
 BYTE   W08
 BYTE   Gs3
 BYTE   N03  Cs4
 BYTE   N03  Fn4
 BYTE   W07
 BYTE   Gs3
 BYTE   N03  Cs4
 BYTE   N03  Fn4
 BYTE   W09
 BYTE   Gs3
 BYTE   N03  Cs4
 BYTE   N03  Fn4
 BYTE   W08
 BYTE   Gs3
 BYTE   N03  Cs4
 BYTE   N03  Fn4
 BYTE   W07
 BYTE   Gs3
 BYTE   N03  Cs4
 BYTE   N03  Fn4
 BYTE   W09
 BYTE   PEND 
// 011   ----------------------------------------
Label_4_0103FF36:
 BYTE   N18  Bn3  v044
 BYTE   N18  En4
 BYTE   N18  Gs4
 BYTE   W24
 BYTE   N03  Bn3
 BYTE   N03  En4
 BYTE   N03  Gs4
 BYTE   W08
 BYTE   Bn3
 BYTE   N03  En4
 BYTE   N03  Gs4
 BYTE   W07
 BYTE   Bn3
 BYTE   N03  En4
 BYTE   N03  Gs4
 BYTE   W09
 BYTE   N18  As3
 BYTE   N18  Ds4
 BYTE   N18  Gs4
 BYTE   W24
 BYTE   As3
 BYTE   N18  Ds4
 BYTE   N18  Gs4
 BYTE   W24
 BYTE   PEND 
// 012   ----------------------------------------
 BYTE   W96
// 013   ----------------------------------------
 BYTE   W96
// 014   ----------------------------------------
 BYTE   W96
// 015   ----------------------------------------
 BYTE   W96
// 016   ----------------------------------------
 BYTE   W96
// 017   ----------------------------------------
 BYTE   W96
// 018   ----------------------------------------
 BYTE   W96
// 019   ----------------------------------------
 BYTE   W96
// 020   ----------------------------------------
 BYTE   W96
// 021   ----------------------------------------
 BYTE   W96
// 022   ----------------------------------------
 BYTE   W96
// 023   ----------------------------------------
 BYTE   W96
// 024   ----------------------------------------
 BYTE   W96
// 025   ----------------------------------------
 BYTE   W96
// 026   ----------------------------------------
 BYTE   W96
// 027   ----------------------------------------
 BYTE   W96
// 028   ----------------------------------------
 BYTE   W96
// 029   ----------------------------------------
 BYTE   W96
// 030   ----------------------------------------
 BYTE   W96
// 031   ----------------------------------------
 BYTE   W96
// 032   ----------------------------------------
 BYTE   W96
// 033   ----------------------------------------
 BYTE   W96
// 034   ----------------------------------------
 BYTE   W96
// 035   ----------------------------------------
 BYTE   W96
// 036   ----------------------------------------
 BYTE   W96
// 037   ----------------------------------------
 BYTE   W96
// 038   ----------------------------------------
 BYTE   W96
// 039   ----------------------------------------
 BYTE   W96
// 040   ----------------------------------------
 BYTE   W96
// 041   ----------------------------------------
 BYTE   W96
// 042   ----------------------------------------
 BYTE   W96
// 043   ----------------------------------------
 BYTE   W96
// 044   ----------------------------------------
 BYTE   W96
// 045   ----------------------------------------
 BYTE   W96
// 046   ----------------------------------------
 BYTE   W96
// 047   ----------------------------------------
 BYTE   W96
// 048   ----------------------------------------
 BYTE   W96
// 049   ----------------------------------------
 BYTE   W96
// 050   ----------------------------------------
 BYTE   W96
// 051   ----------------------------------------
 BYTE   W96
// 052   ----------------------------------------
 BYTE   W96
// 053   ----------------------------------------
 BYTE   W96
// 054   ----------------------------------------
 BYTE   W96
// 055   ----------------------------------------
 BYTE   W96
// 056   ----------------------------------------
 BYTE   W96
// 057   ----------------------------------------
 BYTE   W96
// 058   ----------------------------------------
 BYTE   W96
// 059   ----------------------------------------
 BYTE   W96
 BYTE   PATT
  POIN2 Label_4_0103FE98
 BYTE   PATT
  POIN2 Label_4_0103FEC1
 BYTE   PATT
  POIN2 Label_4_0103FF02
 BYTE   PATT
  POIN2 Label_4_0103FF36
// 060   ----------------------------------------
 BYTE   W96
// 061   ----------------------------------------
 BYTE   W96
// 062   ----------------------------------------
 BYTE   W96
// 063   ----------------------------------------
 BYTE   W96
// 064   ----------------------------------------
 BYTE   W96
// 065   ----------------------------------------
 BYTE   W96
// 066   ----------------------------------------
 BYTE   W96
// 067   ----------------------------------------
 BYTE   W96
// 068   ----------------------------------------
 BYTE   W96
// 069   ----------------------------------------
 BYTE   W96
// 070   ----------------------------------------
 BYTE   W96
// 071   ----------------------------------------
 BYTE   W96
// 072   ----------------------------------------
 BYTE   W96
// 073   ----------------------------------------
 BYTE   W96
// 074   ----------------------------------------
 BYTE   W96
// 075   ----------------------------------------
 BYTE   W96
// 076   ----------------------------------------
 BYTE   W96
// 077   ----------------------------------------
 BYTE   W96
// 078   ----------------------------------------
 BYTE   W96
// 079   ----------------------------------------
 BYTE   W96
// 080   ----------------------------------------
 BYTE   W96
// 081   ----------------------------------------
 BYTE   W96
// 082   ----------------------------------------
 BYTE   W96
// 083   ----------------------------------------
 BYTE   W96
// 084   ----------------------------------------
 BYTE   W96
// 085   ----------------------------------------
 BYTE   W96
// 086   ----------------------------------------
 BYTE   W96
// 087   ----------------------------------------
 BYTE   W96
// 088   ----------------------------------------
 BYTE   W96
// 089   ----------------------------------------
 BYTE   W96
// 090   ----------------------------------------
 BYTE   W96
// 091   ----------------------------------------
 BYTE   W96
// 092   ----------------------------------------
 BYTE   W96
// 093   ----------------------------------------
 BYTE   W96
// 094   ----------------------------------------
 BYTE   W96
// 095   ----------------------------------------
 BYTE   W96
// 096   ----------------------------------------
 BYTE   W96
// 097   ----------------------------------------
 BYTE   W96
// 098   ----------------------------------------
 BYTE   W96
// 099   ----------------------------------------
 BYTE   W84
 BYTE   GoTo
  POIN2 Label_4_0103FE86
// 100   ----------------------------------------
 BYTE   W12
 BYTE   FINE

//**************** Track 6 (Midi-Chn.5) ****************//

songSnowBattle_006:
// 000   ----------------------------------------
 BYTE   KEYSH   songSnowBattle_key+0
Label_5_0103FFD6:
 BYTE   VOICE   60
 BYTE   MODT 0
 BYTE   CnM2
 BYTE   LFOS 0
 BYTE   Gs1
 BYTE   VOL   74*songSnowBattle_mvl/mxv
 BYTE   PAN   c_v+14
 BYTE   N06  Cn3  v056
 BYTE   N06  Fn3
 BYTE   N06  An3
 BYTE   W24
 BYTE   N24  Fn2
 BYTE   N24  An2
 BYTE   N24  Cn3
 BYTE   W48
 BYTE   Fn2
 BYTE   N24  An2
 BYTE   N24  Cn3
 BYTE   W24
// 001   ----------------------------------------
Label_5_0103FFF5:
 BYTE   W24
 BYTE   N18  Fn2  v056
 BYTE   N18  An2
 BYTE   N18  Cn3
 BYTE   W24
 BYTE   An2
 BYTE   N18  Cn3
 BYTE   N18  En3
 BYTE   W24
 BYTE   Fn2
 BYTE   N18  An2
 BYTE   N18  Cn3
 BYTE   W24
 BYTE   PEND 
// 002   ----------------------------------------
Label_5_0104000B:
 BYTE   N06  Cn3  v056
 BYTE   N06  Ds3
 BYTE   N06  Gs3
 BYTE   W24
 BYTE   N24  Gs2
 BYTE   N24  Cn3
 BYTE   N24  Ds3
 BYTE   W48
 BYTE   Gs2
 BYTE   N24  Cn3
 BYTE   N24  Ds3
 BYTE   W24
 BYTE   PEND 
// 003   ----------------------------------------
Label_5_01040021:
 BYTE   W24
 BYTE   N18  Gs2  v056
 BYTE   N18  Cn3
 BYTE   N18  Ds3
 BYTE   W24
 BYTE   Cn3
 BYTE   N18  Ds3
 BYTE   N18  Gn3
 BYTE   W24
 BYTE   Gs2
 BYTE   N18  Cn3
 BYTE   N18  Ds3
 BYTE   W24
 BYTE   PEND 
// 004   ----------------------------------------
Label_5_01040037:
 BYTE   N18  Cs3  v040
 BYTE   N18  Fn3
 BYTE   N18  Gs3
 BYTE   W24
 BYTE   N03  Cs3
 BYTE   N03  Fn3
 BYTE   N03  Gs3
 BYTE   W08
 BYTE   Cs3
 BYTE   N03  Fn3
 BYTE   N03  Gs3
 BYTE   W07
 BYTE   Cs3
 BYTE   N03  Fn3
 BYTE   N03  Gs3
 BYTE   W09
 BYTE   N18  Cs3
 BYTE   N18  Fn3
 BYTE   N18  Gs3
 BYTE   W24
 BYTE   Cs3
 BYTE   N18  Fn3
 BYTE   N18  Gs3
 BYTE   W24
 BYTE   PEND 
// 005   ----------------------------------------
Label_5_01040060:
 BYTE   N03  Cs3  v040
 BYTE   N03  Fn3
 BYTE   N03  Gs3
 BYTE   W08
 BYTE   Cs3
 BYTE   N03  Fn3
 BYTE   N03  Gs3
 BYTE   W07
 BYTE   Cs3
 BYTE   N03  Fn3
 BYTE   N03  Gs3
 BYTE   W09
 BYTE   Cs3
 BYTE   N03  Fn3
 BYTE   N03  Gs3
 BYTE   W08
 BYTE   Cs3
 BYTE   N03  Fn3
 BYTE   N03  Gs3
 BYTE   W07
 BYTE   Cs3
 BYTE   N03  Fn3
 BYTE   N03  Gs3
 BYTE   W09
 BYTE   N18  Cs3
 BYTE   N18  Fn3
 BYTE   N18  Gs3
 BYTE   W24
 BYTE   N03  Cs3
 BYTE   N03  Fn3
 BYTE   N03  Gs3
 BYTE   W08
 BYTE   Cs3
 BYTE   N03  Fn3
 BYTE   N03  Gs3
 BYTE   W07
 BYTE   Cs3
 BYTE   N03  Fn3
 BYTE   N03  Gs3
 BYTE   W09
 BYTE   PEND 
// 006   ----------------------------------------
Label_5_010400A1:
 BYTE   N18  Cs3  v040
 BYTE   N18  Fn3
 BYTE   N18  Gs3
 BYTE   W24
 BYTE   Cs3
 BYTE   N18  Fn3
 BYTE   N18  Gs3
 BYTE   W24
 BYTE   N03  Cs3
 BYTE   N03  Fn3
 BYTE   N03  Gs3
 BYTE   W08
 BYTE   Cs3
 BYTE   N03  Fn3
 BYTE   N03  Gs3
 BYTE   W07
 BYTE   Cs3
 BYTE   N03  Fn3
 BYTE   N03  Gs3
 BYTE   W09
 BYTE   Cs3
 BYTE   N03  Fn3
 BYTE   N03  Gs3
 BYTE   W08
 BYTE   Cs3
 BYTE   N03  Fn3
 BYTE   N03  Gs3
 BYTE   W07
 BYTE   Cs3
 BYTE   N03  Fn3
 BYTE   N03  Gs3
 BYTE   W09
 BYTE   PEND 
// 007   ----------------------------------------
Label_5_010400D5:
 BYTE   N18  En3  v040
 BYTE   N18  Gs3
 BYTE   N18  Bn3
 BYTE   W24
 BYTE   N03  En3
 BYTE   N03  Gs3
 BYTE   N03  Bn3
 BYTE   W08
 BYTE   En3
 BYTE   N03  Gs3
 BYTE   N03  Bn3
 BYTE   W07
 BYTE   En3
 BYTE   N03  Gs3
 BYTE   N03  Bn3
 BYTE   W09
 BYTE   N18  Ds3
 BYTE   N18  Gs3
 BYTE   N18  As3
 BYTE   W24
 BYTE   Ds3
 BYTE   N18  Gs3
 BYTE   N18  As3
 BYTE   W24
 BYTE   PEND 
// 008   ----------------------------------------
Label_5_010400FE:
 BYTE   N06  Gs2  v072
 BYTE   W12
 BYTE   N18  Gs3
 BYTE   W24
 BYTE   N06  Fn3
 BYTE   W12
 BYTE   N18  Gn3
 BYTE   W24
 BYTE   Ds3
 BYTE   W24
 BYTE   PEND 
// 009   ----------------------------------------
Label_5_0104010E:
 BYTE   N06  Fn3  v072
 BYTE   W18
 BYTE   Cs3
 BYTE   W06
 BYTE   N06
 BYTE   W12
 BYTE   Fn3
 BYTE   W12
 BYTE   N18  Ds3
 BYTE   W24
 BYTE   As2
 BYTE   W24
 BYTE   PEND 
// 010   ----------------------------------------
Label_5_0104011E:
 BYTE   W12
 BYTE   N18  Gs3  v072
 BYTE   W24
 BYTE   N06  Fn3
 BYTE   W12
 BYTE   N18  Gn3
 BYTE   W24
 BYTE   N06  Ds3
 BYTE   W12
 BYTE   As3
 BYTE   W12
 BYTE   PEND 
// 011   ----------------------------------------
Label_5_0104012F:
 BYTE   N06  Bn3  v072
 BYTE   W18
 BYTE   Gs3
 BYTE   W06
 BYTE   N06
 BYTE   W12
 BYTE   Bn3
 BYTE   W12
 BYTE   N18  As3
 BYTE   W24
 BYTE   Fs3
 BYTE   W24
 BYTE   PEND 
// 012   ----------------------------------------
Label_5_0104013F:
 BYTE   N06  Gs2  v032
 BYTE   N06  Cn3
 BYTE   N06  Ds3
 BYTE   W12
 BYTE   Gs2
 BYTE   N06  Cn3
 BYTE   N06  Ds3
 BYTE   W12
 BYTE   Ds2
 BYTE   W12
 BYTE   Cs3
 BYTE   W12
 BYTE   N12  Gs2
 BYTE   N12  Cn3
 BYTE   N12  Ds3
 BYTE   W24
 BYTE   N06  Gs2
 BYTE   N06  Cn3
 BYTE   N06  Ds3
 BYTE   W12
 BYTE   As2
 BYTE   N06  Cs3
 BYTE   N06  Fn3
 BYTE   W12
 BYTE   PEND 
// 013   ----------------------------------------
Label_5_01040166:
 BYTE   N12  Gs2  v032
 BYTE   N12  Cn3
 BYTE   N12  Ds3
 BYTE   W24
 BYTE   N06  Gs2
 BYTE   N06  Cn3
 BYTE   N06  Ds3
 BYTE   W12
 BYTE   As2
 BYTE   N06  Cs3
 BYTE   N06  Fn3
 BYTE   W12
 BYTE   N12  Gs2
 BYTE   N12  Cn3
 BYTE   N12  Ds3
 BYTE   W24
 BYTE   N06  Bn2
 BYTE   N06  Ds3
 BYTE   N06  Fs3
 BYTE   W24
 BYTE   PEND 
// 014   ----------------------------------------
Label_5_0104018A:
 BYTE   W12
 BYTE   N12  Gs2  v032
 BYTE   N12  Cn3
 BYTE   N12  Ds3
 BYTE   W12
 BYTE   N48  Gn2
 BYTE   N48  Bn2
 BYTE   N48  Dn3
 BYTE   W48
 BYTE   N12  Gs2
 BYTE   N12  Cn3
 BYTE   N12  Ds3
 BYTE   W24
 BYTE   PEND 
 BYTE   PATT
  POIN2 Label_5_0104018A
// 015   ----------------------------------------
 BYTE   W96
// 016   ----------------------------------------
 BYTE   W96
// 017   ----------------------------------------
 BYTE   W96
// 018   ----------------------------------------
 BYTE   W96
// 019   ----------------------------------------
Label_5_010401AB:
 BYTE   N06  Gs2  v028
 BYTE   N06  Cn3
 BYTE   N06  Ds3
 BYTE   W12
 BYTE   Gs2
 BYTE   N06  Cn3
 BYTE   N06  Ds3
 BYTE   W12
 BYTE   Ds2
 BYTE   W24
 BYTE   N12  Gs2
 BYTE   N12  Cn3
 BYTE   N12  Ds3
 BYTE   W24
 BYTE   N06  Gs2
 BYTE   N06  Cn3
 BYTE   N06  Ds3
 BYTE   W12
 BYTE   As2
 BYTE   N06  Cs3
 BYTE   N06  Fn3
 BYTE   W12
 BYTE   PEND 
// 020   ----------------------------------------
Label_5_010401D0:
 BYTE   N12  Gs2  v028
 BYTE   N12  Cn3
 BYTE   N12  Ds3
 BYTE   W24
 BYTE   N06  Gs2
 BYTE   N06  Cn3
 BYTE   N06  Ds3
 BYTE   W12
 BYTE   As2
 BYTE   N06  Cs3
 BYTE   N06  Fn3
 BYTE   W12
 BYTE   N12  Gs2
 BYTE   N12  Cn3
 BYTE   N12  Ds3
 BYTE   W24
 BYTE   N06  Bn2
 BYTE   N06  Ds3
 BYTE   N06  Fs3
 BYTE   W24
 BYTE   PEND 
// 021   ----------------------------------------
Label_5_010401F4:
 BYTE   W12
 BYTE   N12  Gs2  v028
 BYTE   N12  Cn3
 BYTE   N12  Ds3
 BYTE   W12
 BYTE   N48  Gn2
 BYTE   N48  Bn2
 BYTE   N48  Dn3
 BYTE   W48
 BYTE   N12  Gs2
 BYTE   N12  Cn3
 BYTE   N12  Ds3
 BYTE   W24
 BYTE   PEND 
 BYTE   PATT
  POIN2 Label_5_010401F4
// 022   ----------------------------------------
Label_5_01040211:
 BYTE   N06  An2  v056
 BYTE   N06  Cn3
 BYTE   N06  Fn3
 BYTE   W24
 BYTE   N24  Fn2
 BYTE   N24  An2
 BYTE   N24  Cn3
 BYTE   W48
 BYTE   Fn2
 BYTE   N24  An2
 BYTE   N24  Cn3
 BYTE   W24
 BYTE   PEND 
// 023   ----------------------------------------
Label_5_01040227:
 BYTE   W24
 BYTE   N12  Fn2  v056
 BYTE   N12  An2
 BYTE   N12  Cn3
 BYTE   W24
 BYTE   An2
 BYTE   N12  Cn3
 BYTE   N12  En3
 BYTE   W24
 BYTE   Fn2
 BYTE   N12  An2
 BYTE   N12  Cn3
 BYTE   W24
 BYTE   PEND 
 BYTE   PATT
  POIN2 Label_5_0104000B
// 024   ----------------------------------------
Label_5_01040242:
 BYTE   W24
 BYTE   N12  Gs2  v056
 BYTE   N12  Cn3
 BYTE   N12  Ds3
 BYTE   W24
 BYTE   Cn3
 BYTE   N12  Ds3
 BYTE   N12  Gn3
 BYTE   W24
 BYTE   Gs2
 BYTE   N12  Cn3
 BYTE   N12  Ds3
 BYTE   W24
 BYTE   PEND 
// 025   ----------------------------------------
Label_5_01040258:
 BYTE   W12
 BYTE   N06  An2  v040
 BYTE   N06  Dn3
 BYTE   N06  Fs3
 BYTE   W12
 BYTE   An2
 BYTE   N06  Dn3
 BYTE   N06  Fs3
 BYTE   W12
 BYTE   An2
 BYTE   N06  Dn3
 BYTE   N06  Fs3
 BYTE   W12
 BYTE   An2
 BYTE   N06  Dn3
 BYTE   N06  Fs3
 BYTE   W12
 BYTE   An2
 BYTE   N06  Dn3
 BYTE   N06  Fs3
 BYTE   W12
 BYTE   An2
 BYTE   N06  Dn3
 BYTE   N06  Fs3
 BYTE   W24
 BYTE   PEND 
// 026   ----------------------------------------
Label_5_01040280:
 BYTE   W12
 BYTE   N06  An2  v036
 BYTE   N06  Dn3
 BYTE   N06  Fs3
 BYTE   W12
 BYTE   An2
 BYTE   N06  Dn3
 BYTE   N06  Fs3
 BYTE   W12
 BYTE   An2
 BYTE   N06  Dn3
 BYTE   N06  Fs3
 BYTE   W12
 BYTE   An2
 BYTE   N06  Dn3
 BYTE   N06  Fs3
 BYTE   W12
 BYTE   An2
 BYTE   N06  Dn3
 BYTE   N06  Fs3
 BYTE   W12
 BYTE   An2
 BYTE   N06  Dn3
 BYTE   N06  Fs3
 BYTE   W24
 BYTE   PEND 
// 027   ----------------------------------------
Label_5_010402A8:
 BYTE   W12
 BYTE   N06  An2  v028
 BYTE   N06  Dn3
 BYTE   N06  Fs3
 BYTE   W12
 BYTE   An2
 BYTE   N06  Dn3
 BYTE   N06  Fs3
 BYTE   W12
 BYTE   An2
 BYTE   N06  Dn3
 BYTE   N06  Fs3
 BYTE   W12
 BYTE   An2
 BYTE   N06  Dn3
 BYTE   N06  Fs3
 BYTE   W12
 BYTE   An2
 BYTE   N06  Dn3
 BYTE   N06  Fs3
 BYTE   W12
 BYTE   An2
 BYTE   N06  Dn3
 BYTE   N06  Fs3
 BYTE   W24
 BYTE   PEND 
 BYTE   PATT
  POIN2 Label_5_010402A8
// 028   ----------------------------------------
Label_5_010402D5:
 BYTE   W12
 BYTE   N06  Ds3  v028
 BYTE   N06  Gn3
 BYTE   N06  As3
 BYTE   W12
 BYTE   Ds3
 BYTE   N06  Gn3
 BYTE   N06  As3
 BYTE   W12
 BYTE   Ds3
 BYTE   N06  Gn3
 BYTE   N06  As3
 BYTE   W12
 BYTE   Ds3
 BYTE   N06  Gn3
 BYTE   N06  As3
 BYTE   W12
 BYTE   Ds3
 BYTE   N06  Gn3
 BYTE   N06  As3
 BYTE   W12
 BYTE   Ds3
 BYTE   N06  Gn3
 BYTE   N06  As3
 BYTE   W24
 BYTE   PEND 
 BYTE   PATT
  POIN2 Label_5_010402D5
 BYTE   PATT
  POIN2 Label_5_010402D5
 BYTE   PATT
  POIN2 Label_5_010402D5
// 029   ----------------------------------------
 BYTE   W96
// 030   ----------------------------------------
 BYTE   W96
 BYTE   PATT
  POIN2 Label_5_010402A8
 BYTE   PATT
  POIN2 Label_5_010402A8
 BYTE   PATT
  POIN2 Label_5_010402D5
 BYTE   PATT
  POIN2 Label_5_010402D5
 BYTE   PATT
  POIN2 Label_5_010402D5
 BYTE   PATT
  POIN2 Label_5_010402D5
// 031   ----------------------------------------
 BYTE   W96
// 032   ----------------------------------------
 BYTE   W96
// 033   ----------------------------------------
Label_5_0104032E:
 BYTE   N24  Dn3  v040
 BYTE   W24
 BYTE   An3
 BYTE   W24
 BYTE   N24
 BYTE   W24
 BYTE   N12  Gn3
 BYTE   W12
 BYTE   Fs3
 BYTE   W12
 BYTE   PEND 
// 034   ----------------------------------------
 BYTE   N24  Gn3
 BYTE   W24
 BYTE   Bn3
 BYTE   W24
 BYTE   N24
 BYTE   W24
 BYTE   N12  Cs4
 BYTE   W12
 BYTE   Dn4
 BYTE   W12
// 035   ----------------------------------------
Label_5_01040348:
 BYTE   N24  Cs4  v040
 BYTE   W24
 BYTE   An3
 BYTE   W24
 BYTE   En4
 BYTE   W24
 BYTE   N12  Dn4
 BYTE   W12
 BYTE   Cs4
 BYTE   W12
 BYTE   PEND 
// 036   ----------------------------------------
Label_5_01040356:
 BYTE   N24  Dn4  v040
 BYTE   W24
 BYTE   As3
 BYTE   W24
 BYTE   Dn4
 BYTE   W24
 BYTE   Fn4
 BYTE   W24
 BYTE   PEND 
// 037   ----------------------------------------
Label_5_01040361:
 BYTE   N06  En2  v056
 BYTE   N06  En3
 BYTE   W12
 BYTE   Fs2
 BYTE   N06  Fs3
 BYTE   W12
 BYTE   N24  Gn2
 BYTE   N24  Bn2
 BYTE   N24  Dn3
 BYTE   W36
 BYTE   N06  Gn2
 BYTE   N06  Bn2
 BYTE   N06  Dn3
 BYTE   W12
 BYTE   Gn2
 BYTE   N06  Bn2
 BYTE   N06  Dn3
 BYTE   W12
 BYTE   Gn2
 BYTE   N06  Bn2
 BYTE   N06  Dn3
 BYTE   W12
 BYTE   PEND 
// 038   ----------------------------------------
 BYTE   N12
 BYTE   N12  Gn3
 BYTE   N12  Bn3
 BYTE   W24
 BYTE   Dn3
 BYTE   N12  Fs3
 BYTE   N12  An3
 BYTE   W24
 BYTE   Dn3
 BYTE   N12  Gn3
 BYTE   N12  Bn3
 BYTE   W24
 BYTE   En3
 BYTE   N12  An3
 BYTE   N12  Cs4
 BYTE   W24
// 039   ----------------------------------------
 BYTE   N06  Cn3
 BYTE   N06  Fn3
 BYTE   N06  An3
 BYTE   W24
 BYTE   N24  Fn2
 BYTE   N24  An2
 BYTE   N24  Cn3
 BYTE   W48
 BYTE   Fn2
 BYTE   N24  An2
 BYTE   N24  Cn3
 BYTE   W24
 BYTE   PATT
  POIN2 Label_5_0103FFF5
 BYTE   PATT
  POIN2 Label_5_0104000B
 BYTE   PATT
  POIN2 Label_5_01040021
 BYTE   PATT
  POIN2 Label_5_01040037
 BYTE   PATT
  POIN2 Label_5_01040060
 BYTE   PATT
  POIN2 Label_5_010400A1
 BYTE   PATT
  POIN2 Label_5_010400D5
 BYTE   PATT
  POIN2 Label_5_010400FE
 BYTE   PATT
  POIN2 Label_5_0104010E
 BYTE   PATT
  POIN2 Label_5_0104011E
 BYTE   PATT
  POIN2 Label_5_0104012F
 BYTE   PATT
  POIN2 Label_5_0104013F
 BYTE   PATT
  POIN2 Label_5_01040166
 BYTE   PATT
  POIN2 Label_5_0104018A
 BYTE   PATT
  POIN2 Label_5_0104018A
// 040   ----------------------------------------
 BYTE   W96
// 041   ----------------------------------------
 BYTE   W96
// 042   ----------------------------------------
 BYTE   W96
// 043   ----------------------------------------
 BYTE   W96
 BYTE   PATT
  POIN2 Label_5_010401AB
 BYTE   PATT
  POIN2 Label_5_010401D0
 BYTE   PATT
  POIN2 Label_5_010401F4
 BYTE   PATT
  POIN2 Label_5_010401F4
 BYTE   PATT
  POIN2 Label_5_01040211
 BYTE   PATT
  POIN2 Label_5_01040227
 BYTE   PATT
  POIN2 Label_5_0104000B
 BYTE   PATT
  POIN2 Label_5_01040242
 BYTE   PATT
  POIN2 Label_5_01040258
 BYTE   PATT
  POIN2 Label_5_01040280
 BYTE   PATT
  POIN2 Label_5_010402A8
 BYTE   PATT
  POIN2 Label_5_010402A8
 BYTE   PATT
  POIN2 Label_5_010402D5
 BYTE   PATT
  POIN2 Label_5_010402D5
 BYTE   PATT
  POIN2 Label_5_010402D5
 BYTE   PATT
  POIN2 Label_5_010402D5
// 044   ----------------------------------------
 BYTE   W96
// 045   ----------------------------------------
 BYTE   W96
 BYTE   PATT
  POIN2 Label_5_010402A8
 BYTE   PATT
  POIN2 Label_5_010402A8
 BYTE   PATT
  POIN2 Label_5_010402D5
 BYTE   PATT
  POIN2 Label_5_010402D5
 BYTE   PATT
  POIN2 Label_5_010402D5
 BYTE   PATT
  POIN2 Label_5_010402D5
// 046   ----------------------------------------
 BYTE   W96
// 047   ----------------------------------------
 BYTE   W96
 BYTE   PATT
  POIN2 Label_5_0104032E
// 048   ----------------------------------------
 BYTE   N24  Gn3  v040
 BYTE   W24
 BYTE   N23  Bn3
 BYTE   W24
 BYTE   N24
 BYTE   W24
 BYTE   N12  Cs4
 BYTE   W12
 BYTE   Dn4
 BYTE   W12
 BYTE   PATT
  POIN2 Label_5_01040348
 BYTE   PATT
  POIN2 Label_5_01040356
 BYTE   PATT
  POIN2 Label_5_01040361
// 049   ----------------------------------------
 BYTE   N12  Dn3  v056
 BYTE   N12  Gn3
 BYTE   N12  Bn3
 BYTE   W24
 BYTE   Dn3
 BYTE   N12  Fs3
 BYTE   N12  An3
 BYTE   W24
 BYTE   Dn3
 BYTE   N12  Gn3
 BYTE   N12  Bn3
 BYTE   W24
 BYTE   En3
 BYTE   N12  An3
 BYTE   N12  Cs4
 BYTE   W12
 BYTE   GoTo
  POIN2 Label_5_0103FFD6
// 050   ----------------------------------------
 BYTE   W12
 BYTE   FINE

//**************** Track 7 (Midi-Chn.6) ****************//

songSnowBattle_007:
// 000   ----------------------------------------
 BYTE   KEYSH   songSnowBattle_key+0
Label_6_010404BA:
 BYTE   VOICE   47
 BYTE   MODT 0
 BYTE   CnM2
 BYTE   LFOS 0
 BYTE   Gs1
 BYTE   PAN   c_v-25
 BYTE   VOL   60*songSnowBattle_mvl/mxv
 BYTE   W96
// 001   ----------------------------------------
 BYTE   W96
// 002   ----------------------------------------
 BYTE   W96
// 003   ----------------------------------------
 BYTE   W96
// 004   ----------------------------------------
 BYTE   W96
// 005   ----------------------------------------
 BYTE   W96
// 006   ----------------------------------------
 BYTE   W96
// 007   ----------------------------------------
 BYTE   W96
// 008   ----------------------------------------
 BYTE   W96
// 009   ----------------------------------------
 BYTE   W96
// 010   ----------------------------------------
 BYTE   W96
// 011   ----------------------------------------
 BYTE   W96
// 012   ----------------------------------------
 BYTE   W96
// 013   ----------------------------------------
 BYTE   W96
// 014   ----------------------------------------
 BYTE   W96
// 015   ----------------------------------------
 BYTE   W72
 BYTE   N03  Dn2  v044
 BYTE   W03
 BYTE   N02
 BYTE   W03
 BYTE   N03
 BYTE   W03
 BYTE   N02
 BYTE   W03
 BYTE   N03
 BYTE   W03
 BYTE   N02
 BYTE   W03
 BYTE   N03
 BYTE   W03
 BYTE   N02
 BYTE   W03
// 016   ----------------------------------------
 BYTE   N12  Gs1
 BYTE   W24
 BYTE   N12
 BYTE   W18
 BYTE   N02
 BYTE   W02
 BYTE   N03
 BYTE   W04
 BYTE   N12
 BYTE   W24
 BYTE   N12
 BYTE   W24
// 017   ----------------------------------------
 BYTE   N12
 BYTE   W24
 BYTE   N12
 BYTE   W24
 BYTE   N12
 BYTE   W24
 BYTE   N12
 BYTE   W18
 BYTE   N02
 BYTE   W02
 BYTE   N03
 BYTE   W04
// 018   ----------------------------------------
Label_6_010404FF:
 BYTE   N12  Gs1  v044
 BYTE   W24
 BYTE   N12
 BYTE   W18
 BYTE   N03
 BYTE   W03
 BYTE   N02
 BYTE   W03
 BYTE   N12
 BYTE   W24
 BYTE   N12
 BYTE   W24
 BYTE   PEND 
// 019   ----------------------------------------
 BYTE   N12
 BYTE   W24
 BYTE   N12
 BYTE   W18
 BYTE   N02
 BYTE   W02
 BYTE   N03
 BYTE   W04
 BYTE   N08
 BYTE   W08
 BYTE   N07
 BYTE   W07
 BYTE   N08
 BYTE   W09
 BYTE   N08
 BYTE   W08
 BYTE   N07
 BYTE   W07
 BYTE   N08
 BYTE   W09
// 020   ----------------------------------------
 BYTE   N24
 BYTE   W96
// 021   ----------------------------------------
 BYTE   W96
// 022   ----------------------------------------
 BYTE   W96
// 023   ----------------------------------------
 BYTE   W96
// 024   ----------------------------------------
 BYTE   W96
// 025   ----------------------------------------
 BYTE   W96
// 026   ----------------------------------------
 BYTE   W96
// 027   ----------------------------------------
 BYTE   W96
// 028   ----------------------------------------
 BYTE   W96
// 029   ----------------------------------------
 BYTE   W96
// 030   ----------------------------------------
 BYTE   W96
// 031   ----------------------------------------
 BYTE   W96
// 032   ----------------------------------------
 BYTE   W96
// 033   ----------------------------------------
 BYTE   W96
// 034   ----------------------------------------
 BYTE   W96
// 035   ----------------------------------------
 BYTE   W96
// 036   ----------------------------------------
 BYTE   W96
// 037   ----------------------------------------
 BYTE   W96
// 038   ----------------------------------------
 BYTE   W96
// 039   ----------------------------------------
 BYTE   W96
// 040   ----------------------------------------
 BYTE   W96
// 041   ----------------------------------------
 BYTE   W96
// 042   ----------------------------------------
 BYTE   W96
// 043   ----------------------------------------
 BYTE   W96
// 044   ----------------------------------------
 BYTE   W96
// 045   ----------------------------------------
 BYTE   W96
// 046   ----------------------------------------
Label_6_0104053D:
 BYTE   N24  Dn2  v024
 BYTE   W24
 BYTE   N24
 BYTE   W24
 BYTE   N24
 BYTE   W24
 BYTE   N24
 BYTE   W24
 BYTE   PEND 
 BYTE   PATT
  POIN2 Label_6_0104053D
 BYTE   PATT
  POIN2 Label_6_0104053D
 BYTE   PATT
  POIN2 Label_6_0104053D
// 047   ----------------------------------------
Label_6_01040557:
 BYTE   N24  An1  v044
 BYTE   W24
 BYTE   N24
 BYTE   W48
 BYTE   N24
 BYTE   W24
 BYTE   PEND 
// 048   ----------------------------------------
 BYTE   W24
 BYTE   N24
 BYTE   W48
 BYTE   N24
 BYTE   W24
// 049   ----------------------------------------
 BYTE   W96
// 050   ----------------------------------------
 BYTE   W96
// 051   ----------------------------------------
 BYTE   W96
// 052   ----------------------------------------
 BYTE   W96
// 053   ----------------------------------------
 BYTE   W96
// 054   ----------------------------------------
 BYTE   W96
// 055   ----------------------------------------
 BYTE   W96
// 056   ----------------------------------------
 BYTE   W96
// 057   ----------------------------------------
 BYTE   W96
// 058   ----------------------------------------
 BYTE   W96
// 059   ----------------------------------------
 BYTE   W96
// 060   ----------------------------------------
 BYTE   W96
// 061   ----------------------------------------
 BYTE   W96
// 062   ----------------------------------------
 BYTE   W96
// 063   ----------------------------------------
 BYTE   W96
// 064   ----------------------------------------
 BYTE   W72
 BYTE   N02  Dn2
 BYTE   W02
 BYTE   N03
 BYTE   W04
 BYTE   N02
 BYTE   W02
 BYTE   N03
 BYTE   W04
 BYTE   N02
 BYTE   W02
 BYTE   N03
 BYTE   W04
 BYTE   N02
 BYTE   W02
 BYTE   N03
 BYTE   W04
 BYTE   PATT
  POIN2 Label_6_010404FF
// 065   ----------------------------------------
 BYTE   N12  Gs1  v044
 BYTE   W24
 BYTE   N12
 BYTE   W24
 BYTE   N12
 BYTE   W24
 BYTE   N12
 BYTE   W18
 BYTE   N03
 BYTE   W03
 BYTE   N02
 BYTE   W03
 BYTE   PATT
  POIN2 Label_6_010404FF
// 066   ----------------------------------------
 BYTE   N12  Gs1  v044
 BYTE   W24
 BYTE   N12
 BYTE   W18
 BYTE   N03
 BYTE   W03
 BYTE   N02
 BYTE   W03
 BYTE   N08
 BYTE   W08
 BYTE   N07
 BYTE   W07
 BYTE   N08
 BYTE   W09
 BYTE   N08
 BYTE   W08
 BYTE   N07
 BYTE   W07
 BYTE   N08
 BYTE   W09
// 067   ----------------------------------------
 BYTE   N24
 BYTE   W96
// 068   ----------------------------------------
 BYTE   W96
// 069   ----------------------------------------
 BYTE   W96
// 070   ----------------------------------------
 BYTE   W96
// 071   ----------------------------------------
 BYTE   W96
// 072   ----------------------------------------
 BYTE   W96
// 073   ----------------------------------------
 BYTE   W96
// 074   ----------------------------------------
 BYTE   W96
// 075   ----------------------------------------
 BYTE   W96
// 076   ----------------------------------------
 BYTE   W96
// 077   ----------------------------------------
 BYTE   W96
// 078   ----------------------------------------
 BYTE   W96
// 079   ----------------------------------------
 BYTE   W96
// 080   ----------------------------------------
 BYTE   W96
// 081   ----------------------------------------
 BYTE   W96
// 082   ----------------------------------------
 BYTE   W96
// 083   ----------------------------------------
 BYTE   W96
// 084   ----------------------------------------
 BYTE   W96
// 085   ----------------------------------------
 BYTE   W96
// 086   ----------------------------------------
 BYTE   W96
// 087   ----------------------------------------
 BYTE   W96
// 088   ----------------------------------------
 BYTE   W96
// 089   ----------------------------------------
 BYTE   W96
// 090   ----------------------------------------
 BYTE   W96
// 091   ----------------------------------------
 BYTE   W96
// 092   ----------------------------------------
 BYTE   W96
 BYTE   PATT
  POIN2 Label_6_0104053D
 BYTE   PATT
  POIN2 Label_6_0104053D
 BYTE   PATT
  POIN2 Label_6_0104053D
 BYTE   PATT
  POIN2 Label_6_0104053D
 BYTE   PATT
  POIN2 Label_6_01040557
// 093   ----------------------------------------
 BYTE   W24
 BYTE   N24  An1  v044
 BYTE   W48
 BYTE   N24
 BYTE   W12
 BYTE   GoTo
  POIN2 Label_6_010404BA
// 094   ----------------------------------------
 BYTE   W12
 BYTE   FINE

//**************** Track 8 (Midi-Chn.7) ****************//

songSnowBattle_008:
// 000   ----------------------------------------
 BYTE   KEYSH   songSnowBattle_key+0
Label_7_010405FA:
 BYTE   VOICE   8
 BYTE   MODT 0
 BYTE   CnM2
 BYTE   LFOS 0
 BYTE   Gs1
 BYTE   VOL   49*songSnowBattle_mvl/mxv
 BYTE   PAN   c_v-28
 BYTE   W96
// 001   ----------------------------------------
 BYTE   W96
// 002   ----------------------------------------
 BYTE   W96
// 003   ----------------------------------------
 BYTE   W96
// 004   ----------------------------------------
 BYTE   W96
// 005   ----------------------------------------
 BYTE   W96
// 006   ----------------------------------------
 BYTE   W96
// 007   ----------------------------------------
 BYTE   W96
// 008   ----------------------------------------
 BYTE   W96
// 009   ----------------------------------------
 BYTE   W96
// 010   ----------------------------------------
 BYTE   W96
// 011   ----------------------------------------
 BYTE   W96
// 012   ----------------------------------------
 BYTE   W96
// 013   ----------------------------------------
 BYTE   W96
// 014   ----------------------------------------
 BYTE   W96
// 015   ----------------------------------------
 BYTE   W96
// 016   ----------------------------------------
 BYTE   W96
// 017   ----------------------------------------
 BYTE   W96
// 018   ----------------------------------------
 BYTE   W96
// 019   ----------------------------------------
 BYTE   W96
// 020   ----------------------------------------
 BYTE   W96
// 021   ----------------------------------------
 BYTE   W96
// 022   ----------------------------------------
 BYTE   W96
// 023   ----------------------------------------
 BYTE   W96
// 024   ----------------------------------------
 BYTE   W96
// 025   ----------------------------------------
 BYTE   W96
// 026   ----------------------------------------
 BYTE   W96
// 027   ----------------------------------------
 BYTE   W96
// 028   ----------------------------------------
 BYTE   W96
// 029   ----------------------------------------
 BYTE   W72
 BYTE   N24  Dn6  v044
 BYTE   W24
// 030   ----------------------------------------
Label_7_01040626:
 BYTE   N24  Fs6  v044
 BYTE   W24
 BYTE   Dn6
 BYTE   W24
 BYTE   An6
 BYTE   W24
 BYTE   N06  Gn6
 BYTE   W12
 BYTE   Fs6
 BYTE   W12
 BYTE   PEND 
// 031   ----------------------------------------
Label_7_01040634:
 BYTE   N24  Fs6  v044
 BYTE   W24
 BYTE   Dn6
 BYTE   W24
 BYTE   Gn6
 BYTE   W24
 BYTE   An6
 BYTE   W24
 BYTE   PEND 
// 032   ----------------------------------------
Label_7_0104063F:
 BYTE   N24  As6  v044
 BYTE   W24
 BYTE   N72  Ds6
 BYTE   W72
 BYTE   PEND 
// 033   ----------------------------------------
Label_7_01040647:
 BYTE   N24  As6  v044
 BYTE   W24
 BYTE   N48  Cn6
 BYTE   W48
 BYTE   N24  Fn6
 BYTE   W24
 BYTE   PEND 
// 034   ----------------------------------------
Label_7_01040652:
 BYTE   N24  Ds6  v044
 BYTE   W24
 BYTE   N48  Dn6
 BYTE   W48
 BYTE   N96  Cn6
 BYTE   W24
 BYTE   PEND 
// 035   ----------------------------------------
 BYTE   W72
 BYTE   N24  Dn6
 BYTE   W24
// 036   ----------------------------------------
 BYTE   N96
 BYTE   W96
// 037   ----------------------------------------
 BYTE   W72
 BYTE   N24
 BYTE   W24
 BYTE   PATT
  POIN2 Label_7_01040626
 BYTE   PATT
  POIN2 Label_7_01040634
 BYTE   PATT
  POIN2 Label_7_0104063F
 BYTE   PATT
  POIN2 Label_7_01040647
// 038   ----------------------------------------
Label_7_0104067A:
 BYTE   N24  Ds6  v044
 BYTE   W24
 BYTE   N48  Dn6
 BYTE   W48
 BYTE   N24  Cn6
 BYTE   W24
 BYTE   PEND 
// 039   ----------------------------------------
Label_7_01040685:
 BYTE   N72  Cn6  v044
 BYTE   N72  Cn7
 BYTE   W72
 BYTE   N24  Fn6
 BYTE   W24
 BYTE   PEND 
// 040   ----------------------------------------
 BYTE   W96
// 041   ----------------------------------------
 BYTE   W96
// 042   ----------------------------------------
 BYTE   W96
// 043   ----------------------------------------
 BYTE   W96
// 044   ----------------------------------------
 BYTE   W96
// 045   ----------------------------------------
 BYTE   W96
// 046   ----------------------------------------
 BYTE   W96
// 047   ----------------------------------------
 BYTE   W96
// 048   ----------------------------------------
 BYTE   W96
// 049   ----------------------------------------
 BYTE   W96
// 050   ----------------------------------------
 BYTE   W96
// 051   ----------------------------------------
 BYTE   W96
// 052   ----------------------------------------
 BYTE   W96
// 053   ----------------------------------------
 BYTE   W96
// 054   ----------------------------------------
 BYTE   W96
// 055   ----------------------------------------
 BYTE   W96
// 056   ----------------------------------------
 BYTE   W96
// 057   ----------------------------------------
 BYTE   W96
// 058   ----------------------------------------
 BYTE   W96
// 059   ----------------------------------------
 BYTE   W96
// 060   ----------------------------------------
 BYTE   W96
// 061   ----------------------------------------
 BYTE   W96
// 062   ----------------------------------------
 BYTE   W96
// 063   ----------------------------------------
 BYTE   W96
// 064   ----------------------------------------
 BYTE   W96
// 065   ----------------------------------------
 BYTE   W96
// 066   ----------------------------------------
 BYTE   W96
// 067   ----------------------------------------
 BYTE   W96
// 068   ----------------------------------------
 BYTE   W96
// 069   ----------------------------------------
 BYTE   W96
// 070   ----------------------------------------
 BYTE   W96
// 071   ----------------------------------------
 BYTE   W96
// 072   ----------------------------------------
 BYTE   W96
// 073   ----------------------------------------
 BYTE   W96
// 074   ----------------------------------------
 BYTE   W96
// 075   ----------------------------------------
 BYTE   W96
// 076   ----------------------------------------
 BYTE   W96
// 077   ----------------------------------------
 BYTE   W72
 BYTE   Dn6
 BYTE   W24
 BYTE   PATT
  POIN2 Label_7_01040626
 BYTE   PATT
  POIN2 Label_7_01040634
 BYTE   PATT
  POIN2 Label_7_0104063F
 BYTE   PATT
  POIN2 Label_7_01040647
 BYTE   PATT
  POIN2 Label_7_01040652
// 078   ----------------------------------------
 BYTE   W72
 BYTE   N24  Dn6  v044
 BYTE   W24
// 079   ----------------------------------------
 BYTE   N96
 BYTE   W96
// 080   ----------------------------------------
 BYTE   W72
 BYTE   N24
 BYTE   W24
 BYTE   PATT
  POIN2 Label_7_01040626
 BYTE   PATT
  POIN2 Label_7_01040634
 BYTE   PATT
  POIN2 Label_7_0104063F
 BYTE   PATT
  POIN2 Label_7_01040647
 BYTE   PATT
  POIN2 Label_7_0104067A
 BYTE   PATT
  POIN2 Label_7_01040685
// 081   ----------------------------------------
 BYTE   W96
// 082   ----------------------------------------
 BYTE   W96
// 083   ----------------------------------------
 BYTE   W96
// 084   ----------------------------------------
 BYTE   W96
// 085   ----------------------------------------
 BYTE   W96
// 086   ----------------------------------------
 BYTE   W96
// 087   ----------------------------------------
 BYTE   W96
// 088   ----------------------------------------
 BYTE   W84
 BYTE   GoTo
  POIN2 Label_7_010405FA
// 089   ----------------------------------------
 BYTE   W12
 BYTE   FINE

//**************** Track 9 (Midi-Chn.8) ****************//

songSnowBattle_009:
// 000   ----------------------------------------
 BYTE   KEYSH   songSnowBattle_key+0
Label_8_0104070A:
 BYTE   VOICE   48
 BYTE   MODT 0
 BYTE   CnM2
 BYTE   LFOS 0
 BYTE   Gs1
 BYTE   VOL   60*songSnowBattle_mvl/mxv
 BYTE   PAN   c_v-43
 BYTE   N06  Cn4  v072
 BYTE   N06  Cn5
 BYTE   W12
 BYTE   An3
 BYTE   N06  An4
 BYTE   W12
 BYTE   N13  Dn4
 BYTE   N12  Dn5
 BYTE   W24
 BYTE   N24  Gn3
 BYTE   N24  Gn4
 BYTE   W36
 BYTE   N06  Cn4
 BYTE   N06  Cn5
 BYTE   W12
// 001   ----------------------------------------
Label_8_0104072D:
 BYTE   N06  An3  v072
 BYTE   N06  An4
 BYTE   W12
 BYTE   Dn4
 BYTE   N06  Dn5
 BYTE   W12
 BYTE   Gn3
 BYTE   N06  Gn4
 BYTE   W12
 BYTE   Cn4
 BYTE   N06  Cn5
 BYTE   W12
 BYTE   N12  An3
 BYTE   N12  An4
 BYTE   W12
 BYTE   N06  Dn4
 BYTE   N06  Dn5
 BYTE   W12
 BYTE   Gn3
 BYTE   N06  Gn4
 BYTE   W06
 BYTE   An3
 BYTE   N06  An4
 BYTE   W06
 BYTE   Bn3
 BYTE   N06  Bn4
 BYTE   W06
 BYTE   Dn4
 BYTE   N06  Dn5
 BYTE   W06
 BYTE   PEND 
// 002   ----------------------------------------
Label_8_0104075A:
 BYTE   N06  As2  v072
 BYTE   N06  Ds4
 BYTE   N06  Ds5
 BYTE   W12
 BYTE   Cn4
 BYTE   N06  Cn5
 BYTE   W12
 BYTE   N15  Fn4
 BYTE   N15  Fn5
 BYTE   W24
 BYTE   N24  As3
 BYTE   N24  As4
 BYTE   W36
 BYTE   N06  Ds4
 BYTE   N06  Ds5
 BYTE   W12
 BYTE   PEND 
// 003   ----------------------------------------
Label_8_01040776:
 BYTE   N06  Cn4  v072
 BYTE   N06  Cn5
 BYTE   W12
 BYTE   Fn4
 BYTE   N06  Fn5
 BYTE   W12
 BYTE   As3
 BYTE   N06  As4
 BYTE   W12
 BYTE   Ds4
 BYTE   N06  Ds5
 BYTE   W12
 BYTE   N12  Cn4
 BYTE   N12  Cn5
 BYTE   W12
 BYTE   N06  Fn4
 BYTE   N06  Fn5
 BYTE   W12
 BYTE   As3
 BYTE   N06  As4
 BYTE   W06
 BYTE   Cn4
 BYTE   N06  Cn5
 BYTE   W06
 BYTE   Dn4
 BYTE   N06  Dn5
 BYTE   W06
 BYTE   Fn4
 BYTE   N06  Fn5
 BYTE   W06
 BYTE   PEND 
// 004   ----------------------------------------
Label_8_010407A3:
 BYTE   N06  Gs5  v036
 BYTE   W06
 BYTE   Gn5
 BYTE   W06
 BYTE   N18  Gs3  v084
 BYTE   N06  Fn5  v036
 BYTE   W06
 BYTE   Ds5
 BYTE   W06
 BYTE   Gs5
 BYTE   W06
 BYTE   Gn5
 BYTE   W06
 BYTE   Fn3  v084
 BYTE   N06  Fn5  v036
 BYTE   W06
 BYTE   Ds5
 BYTE   W06
 BYTE   N18  Gn3  v084
 BYTE   N06  Gs5  v036
 BYTE   W06
 BYTE   Gn5
 BYTE   W06
 BYTE   Fn5
 BYTE   W06
 BYTE   Ds5
 BYTE   W06
 BYTE   N18  Ds3  v084
 BYTE   N06  Gs5  v036
 BYTE   W06
 BYTE   Gn5
 BYTE   W06
 BYTE   Fn5
 BYTE   W06
 BYTE   Ds5
 BYTE   W06
 BYTE   PEND 
// 005   ----------------------------------------
Label_8_010407D9:
 BYTE   N06  Fn3  v084
 BYTE   N06  Gs5  v036
 BYTE   W06
 BYTE   Gn5
 BYTE   W06
 BYTE   Fn5
 BYTE   W06
 BYTE   Cs3  v084
 BYTE   N06  Ds5  v036
 BYTE   W06
 BYTE   Cs3  v084
 BYTE   N06  Gs5  v036
 BYTE   W06
 BYTE   Gn5
 BYTE   W06
 BYTE   Fn3  v084
 BYTE   N06  Fn5  v036
 BYTE   W06
 BYTE   Ds5
 BYTE   W06
 BYTE   N18  Ds3  v084
 BYTE   N06  Gs5  v036
 BYTE   W06
 BYTE   Gn5
 BYTE   W06
 BYTE   Fn5
 BYTE   W06
 BYTE   Ds5
 BYTE   W06
 BYTE   N18  As2  v084
 BYTE   N06  Gs5  v036
 BYTE   W06
 BYTE   Gn5
 BYTE   W06
 BYTE   Fn5
 BYTE   W06
 BYTE   Ds5
 BYTE   W06
 BYTE   PEND 
// 006   ----------------------------------------
Label_8_01040815:
 BYTE   N06  Gs5  v036
 BYTE   W06
 BYTE   Gn5
 BYTE   W06
 BYTE   N18  Gs3  v084
 BYTE   N06  Fn5  v036
 BYTE   W06
 BYTE   Ds5
 BYTE   W06
 BYTE   Gs5
 BYTE   W06
 BYTE   Gn5
 BYTE   W06
 BYTE   Fn3  v084
 BYTE   N06  Fn5  v036
 BYTE   W06
 BYTE   Ds5
 BYTE   W06
 BYTE   N18  Gn3  v084
 BYTE   N06  Gs5  v036
 BYTE   W06
 BYTE   Gn5
 BYTE   W06
 BYTE   Fn5
 BYTE   W06
 BYTE   Ds5
 BYTE   W06
 BYTE   Ds3  v084
 BYTE   N06  Gs5  v036
 BYTE   W06
 BYTE   Gn5
 BYTE   W06
 BYTE   As3  v084
 BYTE   N06  Fn5  v036
 BYTE   W06
 BYTE   Ds5
 BYTE   W06
 BYTE   PEND 
// 007   ----------------------------------------
Label_8_0104084E:
 BYTE   N06  Bn3  v084
 BYTE   N06  En5  v036
 BYTE   W06
 BYTE   Ds5
 BYTE   W06
 BYTE   Cs5
 BYTE   W06
 BYTE   Gs3  v084
 BYTE   N06  Bn4  v036
 BYTE   W06
 BYTE   Gs3  v084
 BYTE   N06  Bn5  v036
 BYTE   W06
 BYTE   As5
 BYTE   W06
 BYTE   Bn3  v084
 BYTE   N06  Gs5  v036
 BYTE   W06
 BYTE   Fs5
 BYTE   W06
 BYTE   N18  As3  v084
 BYTE   N06  As5  v036
 BYTE   W06
 BYTE   Gs5
 BYTE   W06
 BYTE   Fs5
 BYTE   W06
 BYTE   Cs5
 BYTE   W06
 BYTE   N18  Fs3  v084
 BYTE   N06  Fs5  v036
 BYTE   W06
 BYTE   Cs5
 BYTE   W06
 BYTE   Bn4
 BYTE   W06
 BYTE   As4
 BYTE   W06
 BYTE   PEND 
// 008   ----------------------------------------
Label_8_0104088A:
 BYTE   N06  Gs5  v036
 BYTE   W06
 BYTE   Gn5
 BYTE   W06
 BYTE   Fn5
 BYTE   W06
 BYTE   Ds5
 BYTE   W06
 BYTE   Gs5
 BYTE   W06
 BYTE   Gn5
 BYTE   W06
 BYTE   Fn5
 BYTE   W06
 BYTE   Ds5
 BYTE   W06
 BYTE   Gs5
 BYTE   W06
 BYTE   Gn5
 BYTE   W06
 BYTE   Fn5
 BYTE   W06
 BYTE   Ds5
 BYTE   W06
 BYTE   Gs5
 BYTE   W06
 BYTE   Gn5
 BYTE   W06
 BYTE   Fn5
 BYTE   W06
 BYTE   Ds5
 BYTE   W06
 BYTE   PEND 
 BYTE   PATT
  POIN2 Label_8_0104088A
 BYTE   PATT
  POIN2 Label_8_0104088A
// 009   ----------------------------------------
Label_8_010408B7:
 BYTE   N06  En5  v036
 BYTE   W06
 BYTE   Ds5
 BYTE   W06
 BYTE   Cs5
 BYTE   W06
 BYTE   Bn4
 BYTE   W06
 BYTE   Bn5
 BYTE   W06
 BYTE   As5
 BYTE   W06
 BYTE   Gs5
 BYTE   W06
 BYTE   Fs5
 BYTE   W06
 BYTE   As5
 BYTE   W06
 BYTE   Gs5
 BYTE   W06
 BYTE   Fs5
 BYTE   W06
 BYTE   Cs5
 BYTE   W06
 BYTE   Fs5
 BYTE   W06
 BYTE   Cs5
 BYTE   W06
 BYTE   Bn4
 BYTE   W06
 BYTE   As4
 BYTE   W06
 BYTE   PEND 
// 010   ----------------------------------------
 BYTE   W96
// 011   ----------------------------------------
 BYTE   W96
// 012   ----------------------------------------
 BYTE   W96
// 013   ----------------------------------------
 BYTE   W96
// 014   ----------------------------------------
Label_8_010408DE:
 BYTE   N03  Gs2  v068
 BYTE   N03  As2
 BYTE   N03  Ds3
 BYTE   N06  Gs5  v036
 BYTE   W06
 BYTE   Ds5
 BYTE   W06
 BYTE   Cs5
 BYTE   W03
 BYTE   N03  Gs2  v068
 BYTE   N03  As2
 BYTE   N03  Ds3
 BYTE   W03
 BYTE   N06  Gs4  v036
 BYTE   W06
 BYTE   Gs5
 BYTE   W06
 BYTE   Ds5
 BYTE   W02
 BYTE   N03  Gs2  v068
 BYTE   N03  As2
 BYTE   N03  Ds3
 BYTE   W04
 BYTE   N06  Cs5  v036
 BYTE   W03
 BYTE   N03  Gs2  v068
 BYTE   N03  As2
 BYTE   N03  Ds3
 BYTE   W03
 BYTE   N06  Gs4  v036
 BYTE   W06
 BYTE   N03  Gs2  v068
 BYTE   N03  As2
 BYTE   N03  Ds3
 BYTE   N06  Gs5  v036
 BYTE   W06
 BYTE   Ds5
 BYTE   W06
 BYTE   Cs5
 BYTE   W03
 BYTE   N03  Gs2  v068
 BYTE   N03  As2
 BYTE   N03  Ds3
 BYTE   W03
 BYTE   N06  Gs4  v036
 BYTE   W06
 BYTE   Gs5
 BYTE   W06
 BYTE   Ds5
 BYTE   W02
 BYTE   N03  Gs2  v068
 BYTE   N03  As2
 BYTE   N03  Ds3
 BYTE   W04
 BYTE   N06  Cs5  v036
 BYTE   W03
 BYTE   N03  Gs2  v068
 BYTE   N03  As2
 BYTE   N03  Ds3
 BYTE   W03
 BYTE   N06  Gs4  v036
 BYTE   W06
 BYTE   PEND 
// 015   ----------------------------------------
Label_8_0104094D:
 BYTE   N03  Gs2  v068
 BYTE   N03  As2
 BYTE   N03  Ds3
 BYTE   N06  Gs5  v036
 BYTE   W06
 BYTE   Ds5
 BYTE   W06
 BYTE   Cs5
 BYTE   W03
 BYTE   N03  Gs2  v068
 BYTE   N03  As2
 BYTE   N03  Ds3
 BYTE   W03
 BYTE   N06  Gs4  v036
 BYTE   W06
 BYTE   Gs5
 BYTE   W06
 BYTE   Ds5
 BYTE   W02
 BYTE   N03  Gs2  v068
 BYTE   N03  As2
 BYTE   N03  Ds3
 BYTE   W04
 BYTE   N06  Cs5  v036
 BYTE   W03
 BYTE   N03  Gs2  v068
 BYTE   N03  As2
 BYTE   N03  Ds3
 BYTE   W03
 BYTE   N06  Gs4  v036
 BYTE   W06
 BYTE   N03  Gs2  v068
 BYTE   N03  As2
 BYTE   N03  Ds3
 BYTE   N06  Gs5  v036
 BYTE   W06
 BYTE   Ds5
 BYTE   W02
 BYTE   N03  Gs2  v068
 BYTE   N03  As2
 BYTE   N03  Ds3
 BYTE   W04
 BYTE   N06  Cs5  v036
 BYTE   W03
 BYTE   N03  As2  v068
 BYTE   N03  Cn3
 BYTE   N03  Fn3
 BYTE   W03
 BYTE   N06  Gs4  v036
 BYTE   W06
 BYTE   N03  Bn2  v068
 BYTE   N03  Cs3
 BYTE   N03  Fs3
 BYTE   N06  Gs5  v036
 BYTE   W06
 BYTE   Ds5
 BYTE   W02
 BYTE   N03  Bn2  v068
 BYTE   N03  Cs3
 BYTE   N03  Fs3
 BYTE   W04
 BYTE   N06  Cs5  v036
 BYTE   W03
 BYTE   N03  Cs3  v068
 BYTE   N03  Ds3
 BYTE   N03  Gs3
 BYTE   W03
 BYTE   N06  Gs4  v036
 BYTE   W06
 BYTE   PEND 
// 016   ----------------------------------------
Label_8_010409CF:
 BYTE   N03  Ds3  v068
 BYTE   N03  Fn3
 BYTE   N03  As3
 BYTE   N06  Gs5  v036
 BYTE   W06
 BYTE   Ds5
 BYTE   W06
 BYTE   Cs5
 BYTE   W03
 BYTE   N03  Gs2  v068
 BYTE   N03  As2
 BYTE   N03  Ds3
 BYTE   W03
 BYTE   N06  Gs4  v036
 BYTE   W06
 BYTE   Gs5
 BYTE   W06
 BYTE   Ds5
 BYTE   W02
 BYTE   N03  Gs2  v068
 BYTE   N03  As2
 BYTE   N03  Ds3
 BYTE   W04
 BYTE   N06  Cs5  v036
 BYTE   W03
 BYTE   N03  Gs2  v068
 BYTE   N03  As2
 BYTE   N03  Ds3
 BYTE   W03
 BYTE   N06  Gs4  v036
 BYTE   W06
 BYTE   N03  Gs2  v068
 BYTE   N03  As2
 BYTE   N03  Ds3
 BYTE   N06  Gs5  v036
 BYTE   W06
 BYTE   Ds5
 BYTE   W06
 BYTE   Cs5
 BYTE   W03
 BYTE   N03  As2  v068
 BYTE   N03  Cn3
 BYTE   N03  Fn3
 BYTE   W03
 BYTE   N06  Gs4  v036
 BYTE   W06
 BYTE   Gs5
 BYTE   W06
 BYTE   Ds5
 BYTE   W02
 BYTE   N03  Bn2  v068
 BYTE   N03  Cs3
 BYTE   N03  Fs3
 BYTE   W04
 BYTE   N06  Cs5  v036
 BYTE   W03
 BYTE   N03  Cs3  v068
 BYTE   N03  Ds3
 BYTE   N03  Gs3
 BYTE   W03
 BYTE   N06  Gs4  v036
 BYTE   W06
 BYTE   PEND 
// 017   ----------------------------------------
Label_8_01040A3E:
 BYTE   N03  Ds3  v068
 BYTE   N03  Fn3
 BYTE   N03  As3
 BYTE   N06  Gs5  v036
 BYTE   W06
 BYTE   Ds5
 BYTE   W02
 BYTE   N03  Ds3  v068
 BYTE   N03  Fn3
 BYTE   N03  As3
 BYTE   W04
 BYTE   N06  Cs5  v036
 BYTE   W03
 BYTE   N03  Ds3  v068
 BYTE   N03  Fn3
 BYTE   N03  As3
 BYTE   W03
 BYTE   N06  Gs4  v036
 BYTE   W06
 BYTE   N03  Gs2  v068
 BYTE   N03  As2
 BYTE   N03  Ds3
 BYTE   N06  Gs5  v036
 BYTE   W06
 BYTE   Ds5
 BYTE   W02
 BYTE   N03  Gs2  v068
 BYTE   N03  As2
 BYTE   N03  Ds3
 BYTE   W04
 BYTE   N06  Cs5  v036
 BYTE   W03
 BYTE   N03  Gs2  v068
 BYTE   N03  As2
 BYTE   N03  Ds3
 BYTE   W03
 BYTE   N06  Gs4  v036
 BYTE   W06
 BYTE   N03  Bn2  v068
 BYTE   N03  En3
 BYTE   N03  Gs3
 BYTE   N06  Gs5  v036
 BYTE   W06
 BYTE   Ds5
 BYTE   W02
 BYTE   N03  Bn2  v068
 BYTE   N03  En3
 BYTE   N03  Gs3
 BYTE   W04
 BYTE   N06  Cs5  v036
 BYTE   W03
 BYTE   N03  Bn2  v068
 BYTE   N03  En3
 BYTE   N03  Gs3
 BYTE   W03
 BYTE   N06  Gs4  v036
 BYTE   W06
 BYTE   N03  Fs2  v068
 BYTE   N03  As2
 BYTE   N03  Cs3
 BYTE   N06  Gs5  v036
 BYTE   W06
 BYTE   Ds5
 BYTE   W02
 BYTE   N03  Fs2  v068
 BYTE   N03  As2
 BYTE   N03  Cs3
 BYTE   W04
 BYTE   N06  Cs5  v036
 BYTE   W03
 BYTE   N03  Fs2  v068
 BYTE   N03  As2
 BYTE   N03  Cs3
 BYTE   W03
 BYTE   N06  Gs4  v036
 BYTE   W06
 BYTE   PEND 
// 018   ----------------------------------------
 BYTE   W96
// 019   ----------------------------------------
 BYTE   W96
// 020   ----------------------------------------
 BYTE   W96
// 021   ----------------------------------------
Label_8_01040AD6:
 BYTE   W48
 BYTE   N06  Dn4  v072
 BYTE   W06
 BYTE   Ds4
 BYTE   W06
 BYTE   Fn4
 BYTE   W06
 BYTE   Fs4
 BYTE   W06
 BYTE   Fn4
 BYTE   W06
 BYTE   Fs4
 BYTE   W06
 BYTE   Gs4
 BYTE   W06
 BYTE   As4
 BYTE   W06
 BYTE   PEND 
// 022   ----------------------------------------
Label_8_01040AEA:
 BYTE   N06  Cn4  v072
 BYTE   N06  Cn5
 BYTE   W12
 BYTE   An3
 BYTE   N06  An4
 BYTE   W12
 BYTE   N18  Dn4
 BYTE   N18  Dn5
 BYTE   W24
 BYTE   N24  Gn3
 BYTE   N24  Gn4
 BYTE   W36
 BYTE   N06  Cn4
 BYTE   N06  Cn5
 BYTE   W12
 BYTE   PEND 
 BYTE   PATT
  POIN2 Label_8_0104072D
// 023   ----------------------------------------
Label_8_01040B09:
 BYTE   N06  Ds4  v072
 BYTE   N06  Ds5
 BYTE   W12
 BYTE   Cn4
 BYTE   N06  Cn5
 BYTE   W12
 BYTE   N18  Fn4
 BYTE   N18  Fn5
 BYTE   W24
 BYTE   N24  As3
 BYTE   N24  As4
 BYTE   W36
 BYTE   N06  Ds4
 BYTE   N06  Ds5
 BYTE   W12
 BYTE   PEND 
 BYTE   PATT
  POIN2 Label_8_01040776
// 024   ----------------------------------------
Label_8_01040B28:
 BYTE   N01  Dn3  v060
 BYTE   N96  Fs5  v040
 BYTE   W12
 BYTE   N01  Dn3  v060
 BYTE   W03
 BYTE   N01
 BYTE   W05
 BYTE   N01
 BYTE   W04
 BYTE   N01
 BYTE   W12
 BYTE   N01
 BYTE   W03
 BYTE   N01
 BYTE   W05
 BYTE   N01
 BYTE   W04
 BYTE   N01
 BYTE   W12
 BYTE   N01
 BYTE   W03
 BYTE   N01
 BYTE   W05
 BYTE   N01
 BYTE   W04
 BYTE   N02
 BYTE   W12
 BYTE   N02
 BYTE   W12
 BYTE   PEND 
// 025   ----------------------------------------
Label_8_01040B4C:
 BYTE   N01  Dn3  v060
 BYTE   W12
 BYTE   N01
 BYTE   W03
 BYTE   N01
 BYTE   W05
 BYTE   N01
 BYTE   W04
 BYTE   N01
 BYTE   W12
 BYTE   N01
 BYTE   W03
 BYTE   N01
 BYTE   W05
 BYTE   N01
 BYTE   W04
 BYTE   N01
 BYTE   W12
 BYTE   N01
 BYTE   W03
 BYTE   N01
 BYTE   W05
 BYTE   N01
 BYTE   W04
 BYTE   N02
 BYTE   W12
 BYTE   N02
 BYTE   W12
 BYTE   PEND 
 BYTE   PATT
  POIN2 Label_8_01040B4C
 BYTE   PATT
  POIN2 Label_8_01040B4C
 BYTE   PATT
  POIN2 Label_8_01040B4C
 BYTE   PATT
  POIN2 Label_8_01040B4C
 BYTE   PATT
  POIN2 Label_8_01040B4C
 BYTE   PATT
  POIN2 Label_8_01040B4C
 BYTE   PATT
  POIN2 Label_8_01040B4C
 BYTE   PATT
  POIN2 Label_8_01040B4C
 BYTE   PATT
  POIN2 Label_8_01040B4C
 BYTE   PATT
  POIN2 Label_8_01040B4C
 BYTE   PATT
  POIN2 Label_8_01040B4C
 BYTE   PATT
  POIN2 Label_8_01040B4C
 BYTE   PATT
  POIN2 Label_8_01040B4C
 BYTE   PATT
  POIN2 Label_8_01040B4C
// 026   ----------------------------------------
Label_8_01040BB1:
 BYTE   W12
 BYTE   N06  Fn3  v056
 BYTE   N06  As3
 BYTE   W12
 BYTE   Fn3
 BYTE   N06  As3
 BYTE   W12
 BYTE   Fn3
 BYTE   N06  As3
 BYTE   W12
 BYTE   Fn3
 BYTE   N06  An3
 BYTE   W12
 BYTE   Fn3
 BYTE   N06  An3
 BYTE   W12
 BYTE   Fn3
 BYTE   N06  An3
 BYTE   W24
 BYTE   PEND 
// 027   ----------------------------------------
Label_8_01040BCD:
 BYTE   W12
 BYTE   N06  Dn3  v056
 BYTE   N06  En3
 BYTE   W12
 BYTE   Dn3
 BYTE   N06  En3
 BYTE   W12
 BYTE   Dn3
 BYTE   N06  En3
 BYTE   W12
 BYTE   Cs3
 BYTE   N06  En3
 BYTE   W12
 BYTE   Cs3
 BYTE   N06  En3
 BYTE   W12
 BYTE   Cs3
 BYTE   N06  En3
 BYTE   W24
 BYTE   PEND 
// 028   ----------------------------------------
 BYTE   W96
// 029   ----------------------------------------
 BYTE   W96
// 030   ----------------------------------------
 BYTE   W96
// 031   ----------------------------------------
Label_8_01040BEC:
 BYTE   W48
 BYTE   N06  As3  v072
 BYTE   W06
 BYTE   Cn4
 BYTE   W06
 BYTE   Dn4
 BYTE   W06
 BYTE   Fn3
 BYTE   W06
 BYTE   Dn4
 BYTE   W06
 BYTE   En4
 BYTE   W06
 BYTE   Fn4
 BYTE   W06
 BYTE   As4
 BYTE   W06
 BYTE   PEND 
// 032   ----------------------------------------
Label_8_01040C00:
 BYTE   N06  En4  v072
 BYTE   W12
 BYTE   Fs4
 BYTE   W12
 BYTE   N24  Gn4
 BYTE   W36
 BYTE   N06  En4
 BYTE   W12
 BYTE   Fs4
 BYTE   W12
 BYTE   Gn4
 BYTE   W12
 BYTE   PEND 
// 033   ----------------------------------------
 BYTE   N12  Bn4
 BYTE   W24
 BYTE   An4
 BYTE   W24
 BYTE   Bn4
 BYTE   W24
 BYTE   Cs5
 BYTE   W24
// 034   ----------------------------------------
 BYTE   N06  Cn4
 BYTE   N06  Cn5
 BYTE   W12
 BYTE   An3
 BYTE   N06  An4
 BYTE   W12
 BYTE   N13  Dn4
 BYTE   N12  Dn5
 BYTE   W24
 BYTE   N24  Gn3
 BYTE   N24  Gn4
 BYTE   W36
 BYTE   N06  Cn4
 BYTE   N06  Cn5
 BYTE   W12
 BYTE   PATT
  POIN2 Label_8_0104072D
 BYTE   PATT
  POIN2 Label_8_0104075A
 BYTE   PATT
  POIN2 Label_8_01040776
 BYTE   PATT
  POIN2 Label_8_010407A3
 BYTE   PATT
  POIN2 Label_8_010407D9
 BYTE   PATT
  POIN2 Label_8_01040815
 BYTE   PATT
  POIN2 Label_8_0104084E
 BYTE   PATT
  POIN2 Label_8_0104088A
 BYTE   PATT
  POIN2 Label_8_0104088A
 BYTE   PATT
  POIN2 Label_8_0104088A
 BYTE   PATT
  POIN2 Label_8_010408B7
// 035   ----------------------------------------
 BYTE   W96
// 036   ----------------------------------------
 BYTE   W96
// 037   ----------------------------------------
 BYTE   W96
// 038   ----------------------------------------
 BYTE   W96
 BYTE   PATT
  POIN2 Label_8_010408DE
 BYTE   PATT
  POIN2 Label_8_0104094D
 BYTE   PATT
  POIN2 Label_8_010409CF
 BYTE   PATT
  POIN2 Label_8_01040A3E
// 039   ----------------------------------------
 BYTE   W96
// 040   ----------------------------------------
 BYTE   W96
// 041   ----------------------------------------
 BYTE   W96
 BYTE   PATT
  POIN2 Label_8_01040AD6
 BYTE   PATT
  POIN2 Label_8_01040AEA
 BYTE   PATT
  POIN2 Label_8_0104072D
 BYTE   PATT
  POIN2 Label_8_01040B09
 BYTE   PATT
  POIN2 Label_8_01040776
 BYTE   PATT
  POIN2 Label_8_01040B28
 BYTE   PATT
  POIN2 Label_8_01040B4C
 BYTE   PATT
  POIN2 Label_8_01040B4C
 BYTE   PATT
  POIN2 Label_8_01040B4C
 BYTE   PATT
  POIN2 Label_8_01040B4C
 BYTE   PATT
  POIN2 Label_8_01040B4C
 BYTE   PATT
  POIN2 Label_8_01040B4C
 BYTE   PATT
  POIN2 Label_8_01040B4C
 BYTE   PATT
  POIN2 Label_8_01040B4C
 BYTE   PATT
  POIN2 Label_8_01040B4C
 BYTE   PATT
  POIN2 Label_8_01040B4C
 BYTE   PATT
  POIN2 Label_8_01040B4C
 BYTE   PATT
  POIN2 Label_8_01040B4C
 BYTE   PATT
  POIN2 Label_8_01040B4C
 BYTE   PATT
  POIN2 Label_8_01040B4C
 BYTE   PATT
  POIN2 Label_8_01040B4C
 BYTE   PATT
  POIN2 Label_8_01040BB1
 BYTE   PATT
  POIN2 Label_8_01040BCD
// 042   ----------------------------------------
 BYTE   W96
// 043   ----------------------------------------
 BYTE   W96
// 044   ----------------------------------------
 BYTE   W96
 BYTE   PATT
  POIN2 Label_8_01040BEC
 BYTE   PATT
  POIN2 Label_8_01040C00
// 045   ----------------------------------------
 BYTE   N12  Bn4  v072
 BYTE   W24
 BYTE   An4
 BYTE   W24
 BYTE   Bn4
 BYTE   W24
 BYTE   Cs5
 BYTE   W12
 BYTE   GoTo
  POIN2 Label_8_0104070A
// 046   ----------------------------------------
 BYTE   W12
 BYTE   FINE

//**************** Track 10 (Midi-Chn.9) ****************//

songSnowBattle_010:
// 000   ----------------------------------------
 BYTE   KEYSH   songSnowBattle_key+0
Label_9_01040D1A:
 BYTE   VOICE   48
 BYTE   MODT 0
 BYTE   CnM2
 BYTE   LFOS 0
 BYTE   Gs1
 BYTE   VOL   49*songSnowBattle_mvl/mxv
 BYTE   PAN   c_v-1
 BYTE   W24
 BYTE   N23  An2  v088
 BYTE   W72
// 001   ----------------------------------------
 BYTE   W96
// 002   ----------------------------------------
 BYTE   W96
// 003   ----------------------------------------
 BYTE   W96
// 004   ----------------------------------------
 BYTE   W96
// 005   ----------------------------------------
 BYTE   W96
// 006   ----------------------------------------
 BYTE   W96
// 007   ----------------------------------------
 BYTE   W96
// 008   ----------------------------------------
 BYTE   W96
// 009   ----------------------------------------
 BYTE   W96
// 010   ----------------------------------------
 BYTE   W96
// 011   ----------------------------------------
 BYTE   W96
// 012   ----------------------------------------
Label_9_01040D34:
 BYTE   W24
 BYTE   N23  An3  v024
 BYTE   N23  Ds4
 BYTE   W48
 BYTE   An3
 BYTE   N23  Ds4
 BYTE   W24
 BYTE   PEND 
 BYTE   PATT
  POIN2 Label_9_01040D34
 BYTE   PATT
  POIN2 Label_9_01040D34
 BYTE   PATT
  POIN2 Label_9_01040D34
// 013   ----------------------------------------
Label_9_01040D4F:
 BYTE   N72  An2  v076
 BYTE   W84
 BYTE   W03
 BYTE   N03  An2  v040
 BYTE   W05
 BYTE   An2  v060
 BYTE   W04
 BYTE   PEND 
// 014   ----------------------------------------
Label_9_01040D5C:
 BYTE   N68  An2  v076
 BYTE   W84
 BYTE   W03
 BYTE   N03  An2  v040
 BYTE   W05
 BYTE   An2  v060
 BYTE   W04
 BYTE   PEND 
 BYTE   PATT
  POIN2 Label_9_01040D5C
 BYTE   PATT
  POIN2 Label_9_01040D5C
 BYTE   PATT
  POIN2 Label_9_01040D34
 BYTE   PATT
  POIN2 Label_9_01040D34
 BYTE   PATT
  POIN2 Label_9_01040D34
 BYTE   PATT
  POIN2 Label_9_01040D34
// 015   ----------------------------------------
 BYTE   W96
// 016   ----------------------------------------
 BYTE   W96
// 017   ----------------------------------------
 BYTE   W96
// 018   ----------------------------------------
 BYTE   W96
// 019   ----------------------------------------
 BYTE   W96
// 020   ----------------------------------------
 BYTE   W96
// 021   ----------------------------------------
 BYTE   W96
// 022   ----------------------------------------
 BYTE   W96
// 023   ----------------------------------------
 BYTE   W96
// 024   ----------------------------------------
 BYTE   W96
// 025   ----------------------------------------
 BYTE   W96
// 026   ----------------------------------------
 BYTE   W96
// 027   ----------------------------------------
 BYTE   W96
// 028   ----------------------------------------
 BYTE   W96
// 029   ----------------------------------------
 BYTE   W96
// 030   ----------------------------------------
 BYTE   W96
// 031   ----------------------------------------
 BYTE   W96
// 032   ----------------------------------------
 BYTE   W96
// 033   ----------------------------------------
 BYTE   W96
// 034   ----------------------------------------
 BYTE   W96
// 035   ----------------------------------------
 BYTE   W96
// 036   ----------------------------------------
 BYTE   W96
// 037   ----------------------------------------
 BYTE   W96
// 038   ----------------------------------------
 BYTE   W96
// 039   ----------------------------------------
 BYTE   W96
// 040   ----------------------------------------
 BYTE   W96
// 041   ----------------------------------------
 BYTE   W96
// 042   ----------------------------------------
 BYTE   W96
// 043   ----------------------------------------
 BYTE   W96
// 044   ----------------------------------------
 BYTE   W96
// 045   ----------------------------------------
 BYTE   W96
// 046   ----------------------------------------
 BYTE   W96
// 047   ----------------------------------------
 BYTE   W96
// 048   ----------------------------------------
 BYTE   W96
// 049   ----------------------------------------
 BYTE   W96
// 050   ----------------------------------------
 BYTE   W96
// 051   ----------------------------------------
 BYTE   W96
// 052   ----------------------------------------
 BYTE   W96
// 053   ----------------------------------------
 BYTE   W96
// 054   ----------------------------------------
 BYTE   W96
 BYTE   PATT
  POIN2 Label_9_01040D34
 BYTE   PATT
  POIN2 Label_9_01040D34
 BYTE   PATT
  POIN2 Label_9_01040D34
 BYTE   PATT
  POIN2 Label_9_01040D34
 BYTE   PATT
  POIN2 Label_9_01040D4F
 BYTE   PATT
  POIN2 Label_9_01040D5C
 BYTE   PATT
  POIN2 Label_9_01040D5C
 BYTE   PATT
  POIN2 Label_9_01040D5C
 BYTE   PATT
  POIN2 Label_9_01040D34
 BYTE   PATT
  POIN2 Label_9_01040D34
 BYTE   PATT
  POIN2 Label_9_01040D34
 BYTE   PATT
  POIN2 Label_9_01040D34
// 055   ----------------------------------------
 BYTE   W96
// 056   ----------------------------------------
 BYTE   W96
// 057   ----------------------------------------
 BYTE   W96
// 058   ----------------------------------------
 BYTE   W96
// 059   ----------------------------------------
 BYTE   W96
// 060   ----------------------------------------
 BYTE   W96
// 061   ----------------------------------------
 BYTE   W96
// 062   ----------------------------------------
 BYTE   W96
// 063   ----------------------------------------
 BYTE   W96
// 064   ----------------------------------------
 BYTE   W96
// 065   ----------------------------------------
 BYTE   W96
// 066   ----------------------------------------
 BYTE   W96
// 067   ----------------------------------------
 BYTE   W96
// 068   ----------------------------------------
 BYTE   W96
// 069   ----------------------------------------
 BYTE   W96
// 070   ----------------------------------------
 BYTE   W96
// 071   ----------------------------------------
 BYTE   W96
// 072   ----------------------------------------
 BYTE   W96
// 073   ----------------------------------------
 BYTE   W96
// 074   ----------------------------------------
 BYTE   W96
// 075   ----------------------------------------
 BYTE   W96
// 076   ----------------------------------------
 BYTE   W96
// 077   ----------------------------------------
 BYTE   W96
// 078   ----------------------------------------
 BYTE   W96
// 079   ----------------------------------------
 BYTE   W96
// 080   ----------------------------------------
 BYTE   W96
// 081   ----------------------------------------
 BYTE   W96
// 082   ----------------------------------------
 BYTE   W84
 BYTE   GoTo
  POIN2 Label_9_01040D1A
// 083   ----------------------------------------
 BYTE   W12
 BYTE   FINE

//**************** Track 11 (Midi-Chn.10) ****************//

songSnowBattle_011:
// 000   ----------------------------------------
 BYTE   KEYSH   songSnowBattle_key+0
Label_10_01040E12:
 BYTE   VOICE   46
 BYTE   MODT 0
 BYTE   CnM2
 BYTE   LFOS 0
 BYTE   Gs1
 BYTE   VOL   55*songSnowBattle_mvl/mxv
 BYTE   PAN   c_v-23
 BYTE   W96
// 001   ----------------------------------------
 BYTE   W96
// 002   ----------------------------------------
 BYTE   W96
// 003   ----------------------------------------
 BYTE   W96
// 004   ----------------------------------------
 BYTE   W96
// 005   ----------------------------------------
 BYTE   W96
// 006   ----------------------------------------
 BYTE   W96
// 007   ----------------------------------------
 BYTE   W96
// 008   ----------------------------------------
 BYTE   W96
// 009   ----------------------------------------
 BYTE   W96
// 010   ----------------------------------------
 BYTE   W96
// 011   ----------------------------------------
 BYTE   W96
// 012   ----------------------------------------
 BYTE   W96
// 013   ----------------------------------------
 BYTE   W96
// 014   ----------------------------------------
 BYTE   W96
// 015   ----------------------------------------
 BYTE   W96
// 016   ----------------------------------------
 BYTE   W96
// 017   ----------------------------------------
 BYTE   W96
// 018   ----------------------------------------
 BYTE   W96
// 019   ----------------------------------------
 BYTE   W96
// 020   ----------------------------------------
 BYTE   W96
// 021   ----------------------------------------
 BYTE   W96
// 022   ----------------------------------------
 BYTE   W96
// 023   ----------------------------------------
 BYTE   W96
// 024   ----------------------------------------
 BYTE   W96
// 025   ----------------------------------------
 BYTE   W96
// 026   ----------------------------------------
 BYTE   W96
// 027   ----------------------------------------
 BYTE   W96
// 028   ----------------------------------------
 BYTE   W96
// 029   ----------------------------------------
 BYTE   W96
// 030   ----------------------------------------
 BYTE   W96
// 031   ----------------------------------------
 BYTE   W96
// 032   ----------------------------------------
 BYTE   W96
// 033   ----------------------------------------
 BYTE   W96
// 034   ----------------------------------------
 BYTE   W96
// 035   ----------------------------------------
 BYTE   W96
// 036   ----------------------------------------
Label_10_01040E40:
 BYTE   N06  Bn4  v044
 BYTE   W06
 BYTE   An4
 BYTE   W06
 BYTE   Gn4
 BYTE   W06
 BYTE   Dn4
 BYTE   W06
 BYTE   Bn3
 BYTE   W06
 BYTE   An3
 BYTE   W06
 BYTE   Gn3
 BYTE   W06
 BYTE   Dn3
 BYTE   W06
 BYTE   As4
 BYTE   W06
 BYTE   An4
 BYTE   W06
 BYTE   Gn4
 BYTE   W06
 BYTE   Ds4
 BYTE   W06
 BYTE   As3
 BYTE   W06
 BYTE   An3
 BYTE   W06
 BYTE   Gn3
 BYTE   W06
 BYTE   Ds3
 BYTE   W06
 BYTE   PEND 
// 037   ----------------------------------------
Label_10_01040E63:
 BYTE   N06  Fn4  v044
 BYTE   W06
 BYTE   En4
 BYTE   W06
 BYTE   Dn4
 BYTE   W06
 BYTE   As3
 BYTE   W06
 BYTE   Fn3
 BYTE   W06
 BYTE   En3
 BYTE   W06
 BYTE   Dn3
 BYTE   W06
 BYTE   As2
 BYTE   W06
 BYTE   Cn3
 BYTE   W06
 BYTE   Dn3
 BYTE   W06
 BYTE   En3
 BYTE   W06
 BYTE   Gn3
 BYTE   W06
 BYTE   Cn4
 BYTE   W06
 BYTE   Dn4
 BYTE   W06
 BYTE   En4
 BYTE   W06
 BYTE   Gn4
 BYTE   W06
 BYTE   PEND 
// 038   ----------------------------------------
 BYTE   W96
// 039   ----------------------------------------
 BYTE   W96
// 040   ----------------------------------------
 BYTE   W96
// 041   ----------------------------------------
 BYTE   W96
// 042   ----------------------------------------
 BYTE   W96
// 043   ----------------------------------------
 BYTE   W96
// 044   ----------------------------------------
 BYTE   W96
// 045   ----------------------------------------
 BYTE   W96
// 046   ----------------------------------------
 BYTE   W96
// 047   ----------------------------------------
 BYTE   W96
// 048   ----------------------------------------
 BYTE   W96
// 049   ----------------------------------------
 BYTE   W96
// 050   ----------------------------------------
 BYTE   W96
// 051   ----------------------------------------
 BYTE   W96
// 052   ----------------------------------------
 BYTE   W96
// 053   ----------------------------------------
 BYTE   W96
// 054   ----------------------------------------
 BYTE   W96
// 055   ----------------------------------------
 BYTE   W96
// 056   ----------------------------------------
 BYTE   W96
// 057   ----------------------------------------
 BYTE   W96
// 058   ----------------------------------------
 BYTE   W96
// 059   ----------------------------------------
 BYTE   W96
// 060   ----------------------------------------
 BYTE   W96
// 061   ----------------------------------------
 BYTE   W96
// 062   ----------------------------------------
 BYTE   W96
// 063   ----------------------------------------
 BYTE   W96
// 064   ----------------------------------------
 BYTE   W96
// 065   ----------------------------------------
 BYTE   W96
// 066   ----------------------------------------
 BYTE   W96
// 067   ----------------------------------------
 BYTE   W96
// 068   ----------------------------------------
 BYTE   W96
// 069   ----------------------------------------
 BYTE   W96
// 070   ----------------------------------------
 BYTE   W96
// 071   ----------------------------------------
 BYTE   W96
// 072   ----------------------------------------
 BYTE   W96
// 073   ----------------------------------------
 BYTE   W96
// 074   ----------------------------------------
 BYTE   W96
// 075   ----------------------------------------
 BYTE   W96
// 076   ----------------------------------------
 BYTE   W96
// 077   ----------------------------------------
 BYTE   W96
// 078   ----------------------------------------
 BYTE   W96
// 079   ----------------------------------------
 BYTE   W96
// 080   ----------------------------------------
 BYTE   W96
// 081   ----------------------------------------
 BYTE   W96
// 082   ----------------------------------------
 BYTE   W96
// 083   ----------------------------------------
 BYTE   W96
// 084   ----------------------------------------
 BYTE   W96
// 085   ----------------------------------------
 BYTE   W96
// 086   ----------------------------------------
 BYTE   W96
// 087   ----------------------------------------
 BYTE   W96
 BYTE   PATT
  POIN2 Label_10_01040E40
 BYTE   PATT
  POIN2 Label_10_01040E63
// 088   ----------------------------------------
 BYTE   W96
// 089   ----------------------------------------
 BYTE   W96
// 090   ----------------------------------------
 BYTE   W96
// 091   ----------------------------------------
 BYTE   W96
// 092   ----------------------------------------
 BYTE   W96
// 093   ----------------------------------------
 BYTE   W96
// 094   ----------------------------------------
 BYTE   W96
// 095   ----------------------------------------
 BYTE   W96
// 096   ----------------------------------------
 BYTE   W96
// 097   ----------------------------------------
 BYTE   W96
// 098   ----------------------------------------
 BYTE   W96
// 099   ----------------------------------------
 BYTE   W96
// 100   ----------------------------------------
 BYTE   W96
// 101   ----------------------------------------
 BYTE   W84
 BYTE   GoTo
  POIN2 Label_10_01040E12
// 102   ----------------------------------------
 BYTE   W12
 BYTE   FINE

//**************** Track 12 (Midi-Chn.11) ****************//

songSnowBattle_012:
// 000   ----------------------------------------
 BYTE   KEYSH   songSnowBattle_key+0
Label_11_01040EDA:
 BYTE   VOICE   45
 BYTE   MODT 0
 BYTE   CnM2
 BYTE   LFOS 0
 BYTE   Gs1
 BYTE   VOL   60*songSnowBattle_mvl/mxv
 BYTE   PAN   c_v+35
 BYTE   W96
// 001   ----------------------------------------
 BYTE   W96
// 002   ----------------------------------------
 BYTE   W96
// 003   ----------------------------------------
 BYTE   W96
// 004   ----------------------------------------
 BYTE   W96
// 005   ----------------------------------------
 BYTE   W96
// 006   ----------------------------------------
 BYTE   W96
// 007   ----------------------------------------
 BYTE   W96
// 008   ----------------------------------------
 BYTE   W96
// 009   ----------------------------------------
 BYTE   W96
// 010   ----------------------------------------
 BYTE   W96
// 011   ----------------------------------------
 BYTE   W96
// 012   ----------------------------------------
Label_11_01040EF0:
 BYTE   N06  Gs1  v044
 BYTE   W12
 BYTE   Gs2
 BYTE   N06  Ds3
 BYTE   W12
 BYTE   Ds2
 BYTE   W12
 BYTE   Fs2
 BYTE   N06  Cs3
 BYTE   W12
 BYTE   Gs1
 BYTE   W12
 BYTE   Gs2
 BYTE   N06  Ds3
 BYTE   W12
 BYTE   Ds2
 BYTE   W12
 BYTE   As2
 BYTE   N06  Fn3
 BYTE   W12
 BYTE   PEND 
// 013   ----------------------------------------
Label_11_01040F0B:
 BYTE   N06  Gs1  v044
 BYTE   W12
 BYTE   Gs2
 BYTE   N06  Ds3
 BYTE   W12
 BYTE   Ds2
 BYTE   W12
 BYTE   As2
 BYTE   N06  Fn3
 BYTE   W12
 BYTE   Gs1
 BYTE   W12
 BYTE   Bn2  v060
 BYTE   N06  Fs3  v080
 BYTE   W12
 BYTE   Ds2  v044
 BYTE   W12
 BYTE   Cs3  v060
 BYTE   N06  Gs3  v088
 BYTE   W12
 BYTE   PEND 
// 014   ----------------------------------------
Label_11_01040F2B:
 BYTE   N06  Gs1  v044
 BYTE   N12  As3  v080
 BYTE   W12
 BYTE   N06  Dn3  v044
 BYTE   N06  Gn3
 BYTE   W12
 BYTE   Ds2
 BYTE   W12
 BYTE   Dn3
 BYTE   N06  Gn3
 BYTE   W12
 BYTE   Gs1
 BYTE   W12
 BYTE   Ds3
 BYTE   N06  Gs3
 BYTE   W12
 BYTE   Ds2
 BYTE   W12
 BYTE   Fn3
 BYTE   N06  As3  v060
 BYTE   W12
 BYTE   PEND 
// 015   ----------------------------------------
Label_11_01040F4C:
 BYTE   N06  Gs1  v044
 BYTE   N12  As3  v080
 BYTE   W12
 BYTE   N06  Dn3  v044
 BYTE   N06  Gn3
 BYTE   W12
 BYTE   Ds2
 BYTE   W12
 BYTE   Dn3
 BYTE   N06  As3
 BYTE   W12
 BYTE   Gs1
 BYTE   W12
 BYTE   Fn3
 BYTE   N06  As3
 BYTE   W12
 BYTE   Ds2
 BYTE   W12
 BYTE   Ds3
 BYTE   N06  Gs3
 BYTE   W12
 BYTE   PEND 
// 016   ----------------------------------------
 BYTE   W96
// 017   ----------------------------------------
 BYTE   W96
// 018   ----------------------------------------
 BYTE   W96
// 019   ----------------------------------------
 BYTE   W96
 BYTE   PATT
  POIN2 Label_11_01040EF0
// 020   ----------------------------------------
Label_11_01040F75:
 BYTE   N06  Gs1  v044
 BYTE   W12
 BYTE   Gs2
 BYTE   N06  Ds3
 BYTE   W12
 BYTE   Ds2
 BYTE   W12
 BYTE   As2
 BYTE   N06  Fn3
 BYTE   W12
 BYTE   Gs1
 BYTE   W12
 BYTE   Bn2  v060
 BYTE   N06  Fs3  v072
 BYTE   W12
 BYTE   Ds2  v044
 BYTE   W12
 BYTE   Cs3  v060
 BYTE   N06  Gs3  v080
 BYTE   W12
 BYTE   PEND 
// 021   ----------------------------------------
Label_11_01040F95:
 BYTE   N06  Gs1  v044
 BYTE   N11  As3  v080
 BYTE   W12
 BYTE   N06  Dn3  v044
 BYTE   N06  Gn3
 BYTE   W12
 BYTE   Ds2
 BYTE   W12
 BYTE   Dn3
 BYTE   N06  Gn3
 BYTE   W12
 BYTE   Gs1
 BYTE   W12
 BYTE   Ds3
 BYTE   N06  Gs3
 BYTE   W12
 BYTE   Ds2
 BYTE   W12
 BYTE   Fn3
 BYTE   N06  As3  v072
 BYTE   W12
 BYTE   PEND 
// 022   ----------------------------------------
Label_11_01040FB6:
 BYTE   N06  Gs1  v044
 BYTE   N06  As3  v080
 BYTE   W12
 BYTE   Dn3  v072
 BYTE   N06  Gn3
 BYTE   W12
 BYTE   Ds2  v044
 BYTE   W12
 BYTE   Dn3  v072
 BYTE   N06  As3
 BYTE   W12
 BYTE   Gs1  v044
 BYTE   W12
 BYTE   Fn3  v072
 BYTE   N06  As3
 BYTE   W12
 BYTE   Ds2  v044
 BYTE   W12
 BYTE   Ds3  v072
 BYTE   N06  Gs3
 BYTE   W12
 BYTE   PEND 
// 023   ----------------------------------------
 BYTE   W96
// 024   ----------------------------------------
 BYTE   W96
// 025   ----------------------------------------
 BYTE   W96
// 026   ----------------------------------------
 BYTE   W96
// 027   ----------------------------------------
 BYTE   W84
 BYTE   Dn2  v040
 BYTE   W12
// 028   ----------------------------------------
Label_11_01040FE3:
 BYTE   N12  Gn2  v040
 BYTE   W84
 BYTE   N06  Dn2
 BYTE   W12
 BYTE   PEND 
// 029   ----------------------------------------
Label_11_01040FEB:
 BYTE   N06  Gn2  v040
 BYTE   W84
 BYTE   Dn2
 BYTE   W12
 BYTE   PEND 
 BYTE   PATT
  POIN2 Label_11_01040FEB
// 030   ----------------------------------------
Label_11_01040FF7:
 BYTE   N06  Gn2  v056
 BYTE   W84
 BYTE   Dn2
 BYTE   W12
 BYTE   PEND 
 BYTE   PATT
  POIN2 Label_11_01040FF7
 BYTE   PATT
  POIN2 Label_11_01040FF7
// 031   ----------------------------------------
Label_11_01041008:
 BYTE   N06  Cn2  v056
 BYTE   W84
 BYTE   Dn2
 BYTE   W12
 BYTE   PEND 
 BYTE   PATT
  POIN2 Label_11_01040FF7
 BYTE   PATT
  POIN2 Label_11_01040FF7
 BYTE   PATT
  POIN2 Label_11_01040FF7
 BYTE   PATT
  POIN2 Label_11_01040FF7
 BYTE   PATT
  POIN2 Label_11_01040FF7
 BYTE   PATT
  POIN2 Label_11_01040FF7
 BYTE   PATT
  POIN2 Label_11_01040FF7
// 032   ----------------------------------------
 BYTE   N06  Gn2  v056
 BYTE   W96
// 033   ----------------------------------------
 BYTE   W96
// 034   ----------------------------------------
 BYTE   W96
// 035   ----------------------------------------
 BYTE   W96
// 036   ----------------------------------------
 BYTE   W96
// 037   ----------------------------------------
 BYTE   W96
// 038   ----------------------------------------
 BYTE   W96
// 039   ----------------------------------------
 BYTE   W96
// 040   ----------------------------------------
 BYTE   W96
// 041   ----------------------------------------
 BYTE   W96
// 042   ----------------------------------------
 BYTE   W96
// 043   ----------------------------------------
 BYTE   W96
// 044   ----------------------------------------
 BYTE   W96
// 045   ----------------------------------------
 BYTE   W96
// 046   ----------------------------------------
 BYTE   W96
// 047   ----------------------------------------
 BYTE   W96
// 048   ----------------------------------------
 BYTE   W96
// 049   ----------------------------------------
 BYTE   W96
// 050   ----------------------------------------
 BYTE   W96
// 051   ----------------------------------------
 BYTE   W96
// 052   ----------------------------------------
 BYTE   W96
 BYTE   PATT
  POIN2 Label_11_01040EF0
 BYTE   PATT
  POIN2 Label_11_01040F0B
 BYTE   PATT
  POIN2 Label_11_01040F2B
 BYTE   PATT
  POIN2 Label_11_01040F4C
// 053   ----------------------------------------
 BYTE   W96
// 054   ----------------------------------------
 BYTE   W96
// 055   ----------------------------------------
 BYTE   W96
// 056   ----------------------------------------
 BYTE   W96
 BYTE   PATT
  POIN2 Label_11_01040EF0
 BYTE   PATT
  POIN2 Label_11_01040F75
 BYTE   PATT
  POIN2 Label_11_01040F95
 BYTE   PATT
  POIN2 Label_11_01040FB6
// 057   ----------------------------------------
 BYTE   W96
// 058   ----------------------------------------
 BYTE   W96
// 059   ----------------------------------------
 BYTE   W96
// 060   ----------------------------------------
 BYTE   W96
// 061   ----------------------------------------
 BYTE   W84
 BYTE   N06  Dn2  v040
 BYTE   W12
 BYTE   PATT
  POIN2 Label_11_01040FE3
 BYTE   PATT
  POIN2 Label_11_01040FEB
 BYTE   PATT
  POIN2 Label_11_01040FEB
 BYTE   PATT
  POIN2 Label_11_01040FF7
 BYTE   PATT
  POIN2 Label_11_01040FF7
 BYTE   PATT
  POIN2 Label_11_01040FF7
 BYTE   PATT
  POIN2 Label_11_01041008
 BYTE   PATT
  POIN2 Label_11_01040FF7
 BYTE   PATT
  POIN2 Label_11_01040FF7
 BYTE   PATT
  POIN2 Label_11_01040FF7
 BYTE   PATT
  POIN2 Label_11_01040FF7
 BYTE   PATT
  POIN2 Label_11_01040FF7
 BYTE   PATT
  POIN2 Label_11_01040FF7
 BYTE   PATT
  POIN2 Label_11_01040FF7
// 062   ----------------------------------------
 BYTE   N06  Gn2  v056
 BYTE   W96
// 063   ----------------------------------------
 BYTE   W96
// 064   ----------------------------------------
 BYTE   W96
// 065   ----------------------------------------
 BYTE   W96
// 066   ----------------------------------------
 BYTE   W96
// 067   ----------------------------------------
 BYTE   W96
// 068   ----------------------------------------
 BYTE   W96
// 069   ----------------------------------------
 BYTE   W96
// 070   ----------------------------------------
 BYTE   W84
 BYTE   GoTo
  POIN2 Label_11_01040EDA
// 071   ----------------------------------------
 BYTE   W12
 BYTE   FINE

//**************** Track 13 (Midi-Chn.12) ****************//

songSnowBattle_013:
// 000   ----------------------------------------
 BYTE   KEYSH   songSnowBattle_key+0
Label_12_010410DA:
 BYTE   VOICE   58
 BYTE   MODT 0
 BYTE   CnM2
 BYTE   LFOS 0
 BYTE   Gs1
 BYTE   PAN   c_v+24
 BYTE   VOL   49*songSnowBattle_mvl/mxv
 BYTE   N12  Gn2  v072
 BYTE   W24
 BYTE   N24  Gn1
 BYTE   W48
 BYTE   N24
 BYTE   W24
// 001   ----------------------------------------
Label_12_010410ED:
 BYTE   W24
 BYTE   N24  Gn1  v072
 BYTE   W48
 BYTE   N24
 BYTE   W24
 BYTE   PEND 
// 002   ----------------------------------------
Label_12_010410F5:
 BYTE   N06  As1  v072
 BYTE   W24
 BYTE   N24
 BYTE   W48
 BYTE   N24
 BYTE   W24
 BYTE   PEND 
// 003   ----------------------------------------
Label_12_010410FE:
 BYTE   W24
 BYTE   N24  As1  v072
 BYTE   W48
 BYTE   N24
 BYTE   W24
 BYTE   PEND 
// 004   ----------------------------------------
Label_12_01041106:
 BYTE   N18  Ds2  v040
 BYTE   W24
 BYTE   Ds2  v072
 BYTE   W24
 BYTE   N18
 BYTE   W24
 BYTE   N18
 BYTE   W24
 BYTE   PEND 
// 005   ----------------------------------------
Label_12_01041112:
 BYTE   N18  Ds1  v072
 BYTE   W24
 BYTE   N18
 BYTE   W24
 BYTE   N18
 BYTE   W24
 BYTE   N18
 BYTE   W24
 BYTE   PEND 
// 006   ----------------------------------------
Label_12_0104111D:
 BYTE   N18  Ds2  v072
 BYTE   W24
 BYTE   N18
 BYTE   W24
 BYTE   Ds1
 BYTE   W24
 BYTE   N18
 BYTE   W24
 BYTE   PEND 
// 007   ----------------------------------------
Label_12_01041128:
 BYTE   N18  Ds2  v072
 BYTE   W24
 BYTE   N18
 BYTE   W24
 BYTE   N18
 BYTE   W24
 BYTE   N18
 BYTE   W24
 BYTE   PEND 
// 008   ----------------------------------------
Label_12_01041133:
 BYTE   N06  As1  v072
 BYTE   W12
 BYTE   Cn2
 BYTE   W12
 BYTE   N24  Cs2
 BYTE   W36
 BYTE   N06  As1
 BYTE   W12
 BYTE   Cn2
 BYTE   W12
 BYTE   Cs2
 BYTE   W12
 BYTE   PEND 
// 009   ----------------------------------------
Label_12_01041144:
 BYTE   N06  Fn2  v072
 BYTE   W12
 BYTE   Ds2
 BYTE   W12
 BYTE   N24  Fn2
 BYTE   W36
 BYTE   N06  Gn2
 BYTE   W12
 BYTE   Gs2
 BYTE   W12
 BYTE   As2
 BYTE   W12
 BYTE   PEND 
// 010   ----------------------------------------
Label_12_01041155:
 BYTE   N06  Gs2  v072
 BYTE   W12
 BYTE   Gn2
 BYTE   W12
 BYTE   N12  Ds2
 BYTE   W24
 BYTE   N24  Cs3
 BYTE   W36
 BYTE   N06  Cn3
 BYTE   W06
 BYTE   Gs2
 BYTE   W06
 BYTE   PEND 
// 011   ----------------------------------------
Label_12_01041167:
 BYTE   N18  Cs2  v072
 BYTE   W24
 BYTE   N08
 BYTE   W08
 BYTE   N07  Ds2
 BYTE   W07
 BYTE   N08  En2
 BYTE   W09
 BYTE   N18  Ds2
 BYTE   W24
 BYTE   N18
 BYTE   W24
 BYTE   PEND 
// 012   ----------------------------------------
Label_12_01041179:
 BYTE   N06  Gs1  v044
 BYTE   W24
 BYTE   Ds2
 BYTE   W24
 BYTE   Gs1
 BYTE   W24
 BYTE   Ds2
 BYTE   W24
 BYTE   PEND 
 BYTE   PATT
  POIN2 Label_12_01041179
 BYTE   PATT
  POIN2 Label_12_01041179
 BYTE   PATT
  POIN2 Label_12_01041179
// 013   ----------------------------------------
 BYTE   W96
// 014   ----------------------------------------
 BYTE   W96
// 015   ----------------------------------------
 BYTE   W96
// 016   ----------------------------------------
 BYTE   W96
 BYTE   PATT
  POIN2 Label_12_01041179
 BYTE   PATT
  POIN2 Label_12_01041179
 BYTE   PATT
  POIN2 Label_12_01041179
// 017   ----------------------------------------
Label_12_010411A6:
 BYTE   N06  Gs1  v072
 BYTE   W24
 BYTE   Ds2
 BYTE   W24
 BYTE   Gs1
 BYTE   W24
 BYTE   Ds2
 BYTE   W24
 BYTE   PEND 
// 018   ----------------------------------------
Label_12_010411B1:
 BYTE   N12  Gn2  v072
 BYTE   W24
 BYTE   N24  Gn1
 BYTE   W48
 BYTE   N24
 BYTE   W24
 BYTE   PEND 
 BYTE   PATT
  POIN2 Label_12_010410ED
// 019   ----------------------------------------
Label_12_010411C0:
 BYTE   N12  As1  v072
 BYTE   W24
 BYTE   N24
 BYTE   W48
 BYTE   N24
 BYTE   W24
 BYTE   PEND 
 BYTE   PATT
  POIN2 Label_12_010410FE
// 020   ----------------------------------------
Label_12_010411CE:
 BYTE   N12  Gn1  v040
 BYTE   W24
 BYTE   N12
 BYTE   W24
 BYTE   N12
 BYTE   W48
 BYTE   PEND 
// 021   ----------------------------------------
 BYTE   W96
// 022   ----------------------------------------
 BYTE   W96
// 023   ----------------------------------------
 BYTE   W96
// 024   ----------------------------------------
 BYTE   W96
// 025   ----------------------------------------
 BYTE   W96
// 026   ----------------------------------------
 BYTE   W96
// 027   ----------------------------------------
 BYTE   W96
// 028   ----------------------------------------
 BYTE   W96
// 029   ----------------------------------------
 BYTE   W96
// 030   ----------------------------------------
 BYTE   W96
// 031   ----------------------------------------
 BYTE   W96
// 032   ----------------------------------------
 BYTE   W96
// 033   ----------------------------------------
 BYTE   W96
// 034   ----------------------------------------
 BYTE   W96
// 035   ----------------------------------------
 BYTE   W96
// 036   ----------------------------------------
Label_12_010411E6:
 BYTE   N24  As1  v056
 BYTE   W36
 BYTE   N24
 BYTE   W36
 BYTE   N15
 BYTE   W24
 BYTE   PEND 
// 037   ----------------------------------------
Label_12_010411EF:
 BYTE   N24  An1  v056
 BYTE   W36
 BYTE   N24
 BYTE   W36
 BYTE   N15
 BYTE   W24
 BYTE   PEND 
// 038   ----------------------------------------
 BYTE   W96
// 039   ----------------------------------------
 BYTE   W96
// 040   ----------------------------------------
 BYTE   W96
// 041   ----------------------------------------
 BYTE   W96
// 042   ----------------------------------------
Label_12_010411FC:
 BYTE   W24
 BYTE   N24  An1  v072
 BYTE   W48
 BYTE   N24
 BYTE   W24
 BYTE   PEND 
 BYTE   PATT
  POIN2 Label_12_010411FC
 BYTE   PATT
  POIN2 Label_12_010411B1
 BYTE   PATT
  POIN2 Label_12_010410ED
 BYTE   PATT
  POIN2 Label_12_010410F5
 BYTE   PATT
  POIN2 Label_12_010410FE
 BYTE   PATT
  POIN2 Label_12_01041106
 BYTE   PATT
  POIN2 Label_12_01041112
 BYTE   PATT
  POIN2 Label_12_0104111D
 BYTE   PATT
  POIN2 Label_12_01041128
 BYTE   PATT
  POIN2 Label_12_01041133
 BYTE   PATT
  POIN2 Label_12_01041144
 BYTE   PATT
  POIN2 Label_12_01041155
 BYTE   PATT
  POIN2 Label_12_01041167
 BYTE   PATT
  POIN2 Label_12_01041179
 BYTE   PATT
  POIN2 Label_12_01041179
 BYTE   PATT
  POIN2 Label_12_01041179
 BYTE   PATT
  POIN2 Label_12_01041179
// 043   ----------------------------------------
 BYTE   W96
// 044   ----------------------------------------
 BYTE   W96
// 045   ----------------------------------------
 BYTE   W96
// 046   ----------------------------------------
 BYTE   W96
 BYTE   PATT
  POIN2 Label_12_01041179
 BYTE   PATT
  POIN2 Label_12_01041179
 BYTE   PATT
  POIN2 Label_12_01041179
 BYTE   PATT
  POIN2 Label_12_010411A6
 BYTE   PATT
  POIN2 Label_12_010411B1
 BYTE   PATT
  POIN2 Label_12_010410ED
 BYTE   PATT
  POIN2 Label_12_010411C0
 BYTE   PATT
  POIN2 Label_12_010410FE
 BYTE   PATT
  POIN2 Label_12_010411CE
// 047   ----------------------------------------
 BYTE   W96
// 048   ----------------------------------------
 BYTE   W96
// 049   ----------------------------------------
 BYTE   W96
// 050   ----------------------------------------
 BYTE   W96
// 051   ----------------------------------------
 BYTE   W96
// 052   ----------------------------------------
 BYTE   W96
// 053   ----------------------------------------
 BYTE   W96
// 054   ----------------------------------------
 BYTE   W96
// 055   ----------------------------------------
 BYTE   W96
// 056   ----------------------------------------
 BYTE   W96
// 057   ----------------------------------------
 BYTE   W96
// 058   ----------------------------------------
 BYTE   W96
// 059   ----------------------------------------
 BYTE   W96
// 060   ----------------------------------------
 BYTE   W96
// 061   ----------------------------------------
 BYTE   W96
 BYTE   PATT
  POIN2 Label_12_010411E6
 BYTE   PATT
  POIN2 Label_12_010411EF
// 062   ----------------------------------------
 BYTE   W96
// 063   ----------------------------------------
 BYTE   W96
// 064   ----------------------------------------
 BYTE   W96
// 065   ----------------------------------------
 BYTE   W96
 BYTE   PATT
  POIN2 Label_12_010411FC
// 066   ----------------------------------------
 BYTE   W24
 BYTE   N24  An1  v072
 BYTE   W48
 BYTE   N24
 BYTE   W12
 BYTE   GoTo
  POIN2 Label_12_010410DA
// 067   ----------------------------------------
 BYTE   W12
 BYTE   FINE

//**************** Track 14 (Midi-Chn.13) ****************//

songSnowBattle_014:
// 000   ----------------------------------------
 BYTE   KEYSH   songSnowBattle_key+0
Label_13_010412BE:
 BYTE   VOICE   48
 BYTE   MODT 0
 BYTE   CnM2
 BYTE   LFOS 0
 BYTE   Gs1
 BYTE   PAN   c_v+35
 BYTE   VOL   72*songSnowBattle_mvl/mxv
 BYTE   N12  Gn1  v072
 BYTE   N12  Gn2
 BYTE   W24
 BYTE   N24  Gn0
 BYTE   N24  Gn1
 BYTE   W48
 BYTE   Gn0
 BYTE   N24  Gn1
 BYTE   W24
// 001   ----------------------------------------
Label_13_010412D7:
 BYTE   W24
 BYTE   N24  Gn0  v072
 BYTE   N24  Gn1
 BYTE   W48
 BYTE   Gn0
 BYTE   N24  Gn1
 BYTE   W24
 BYTE   PEND 
// 002   ----------------------------------------
Label_13_010412E3:
 BYTE   N06  As1  v072
 BYTE   W24
 BYTE   N24  As0
 BYTE   N24  As1
 BYTE   W48
 BYTE   As0
 BYTE   N24  As1
 BYTE   W24
 BYTE   PEND 
// 003   ----------------------------------------
Label_13_010412F1:
 BYTE   W24
 BYTE   N24  As0  v072
 BYTE   N24  As1
 BYTE   W48
 BYTE   As0
 BYTE   N24  As1
 BYTE   W24
 BYTE   PEND 
// 004   ----------------------------------------
Label_13_010412FD:
 BYTE   N18  Ds1  v040
 BYTE   N18  Ds2
 BYTE   W24
 BYTE   Ds1  v072
 BYTE   N18  Ds2
 BYTE   W24
 BYTE   Ds1
 BYTE   N18  Ds2
 BYTE   W24
 BYTE   Ds1
 BYTE   N18  Ds2
 BYTE   W24
 BYTE   PEND 
// 005   ----------------------------------------
Label_13_01041311:
 BYTE   N18  Ds0  v072
 BYTE   N18  Ds1
 BYTE   W24
 BYTE   Ds0
 BYTE   N18  Ds1
 BYTE   W24
 BYTE   Ds0
 BYTE   N18  Ds1
 BYTE   W24
 BYTE   Ds0
 BYTE   N18  Ds1
 BYTE   W24
 BYTE   PEND 
// 006   ----------------------------------------
Label_13_01041324:
 BYTE   N18  Ds1  v072
 BYTE   N18  Ds2
 BYTE   W24
 BYTE   Ds1
 BYTE   N18  Ds2
 BYTE   W24
 BYTE   Ds0
 BYTE   N18  Ds1
 BYTE   W24
 BYTE   Ds0
 BYTE   N18  Ds1
 BYTE   W24
 BYTE   PEND 
// 007   ----------------------------------------
Label_13_01041337:
 BYTE   N18  Ds1  v072
 BYTE   N18  Ds2
 BYTE   W24
 BYTE   Ds1
 BYTE   N18  Ds2
 BYTE   W24
 BYTE   Ds1
 BYTE   N18  Ds2
 BYTE   W24
 BYTE   Ds1
 BYTE   N18  Ds2
 BYTE   W24
 BYTE   PEND 
// 008   ----------------------------------------
Label_13_0104134A:
 BYTE   N06  As0  v072
 BYTE   W12
 BYTE   Cn1
 BYTE   W12
 BYTE   N24  Cs1
 BYTE   W36
 BYTE   N06  As0
 BYTE   W12
 BYTE   Cn1
 BYTE   W12
 BYTE   Cs1
 BYTE   W12
 BYTE   PEND 
// 009   ----------------------------------------
Label_13_0104135B:
 BYTE   N06  Fn1  v072
 BYTE   W12
 BYTE   Ds1
 BYTE   W12
 BYTE   N24  Fn1
 BYTE   W36
 BYTE   N06  Gn1
 BYTE   W12
 BYTE   Gs1
 BYTE   W12
 BYTE   As1
 BYTE   W12
 BYTE   PEND 
// 010   ----------------------------------------
Label_13_0104136C:
 BYTE   N06  Gs1  v072
 BYTE   W12
 BYTE   Gn1
 BYTE   W12
 BYTE   N12  Ds1
 BYTE   W24
 BYTE   N24  Cs2
 BYTE   W36
 BYTE   N06  Cn2
 BYTE   W06
 BYTE   Gs1
 BYTE   W06
 BYTE   PEND 
// 011   ----------------------------------------
Label_13_0104137E:
 BYTE   N18  Cs1  v072
 BYTE   W24
 BYTE   N08
 BYTE   W08
 BYTE   N07  Ds1
 BYTE   W07
 BYTE   N08  En1
 BYTE   W09
 BYTE   N18  Ds1
 BYTE   W24
 BYTE   N18
 BYTE   W24
 BYTE   PEND 
// 012   ----------------------------------------
 BYTE   W96
// 013   ----------------------------------------
 BYTE   W96
// 014   ----------------------------------------
 BYTE   W96
// 015   ----------------------------------------
 BYTE   W96
// 016   ----------------------------------------
Label_13_01041394:
 BYTE   N12  Gs0  v060
 BYTE   N12  Gs1
 BYTE   W24
 BYTE   Gs0
 BYTE   N12  Gs1
 BYTE   W24
 BYTE   Gs0
 BYTE   N12  Gs1
 BYTE   W24
 BYTE   Gs0
 BYTE   N12  Gs1
 BYTE   W24
 BYTE   PEND 
 BYTE   PATT
  POIN2 Label_13_01041394
 BYTE   PATT
  POIN2 Label_13_01041394
 BYTE   PATT
  POIN2 Label_13_01041394
// 017   ----------------------------------------
 BYTE   W96
// 018   ----------------------------------------
 BYTE   W96
// 019   ----------------------------------------
 BYTE   W96
// 020   ----------------------------------------
 BYTE   W96
// 021   ----------------------------------------
Label_13_010413BA:
 BYTE   N12  Gn1  v072
 BYTE   N12  Gn2
 BYTE   W24
 BYTE   N24  Gn0
 BYTE   N24  Gn1
 BYTE   W48
 BYTE   Gn0
 BYTE   N24  Gn1
 BYTE   W24
 BYTE   PEND 
 BYTE   PATT
  POIN2 Label_13_010412D7
// 022   ----------------------------------------
Label_13_010413CF:
 BYTE   N12  As0  v072
 BYTE   N12  As1
 BYTE   W24
 BYTE   N24  As0
 BYTE   N24  As1
 BYTE   W48
 BYTE   As0
 BYTE   N24  As1
 BYTE   W24
 BYTE   PEND 
 BYTE   PATT
  POIN2 Label_13_010412F1
// 023   ----------------------------------------
Label_13_010413E4:
 BYTE   N12  Gn0  v040
 BYTE   N12  Gn1
 BYTE   W24
 BYTE   Gn0
 BYTE   N12  Gn1
 BYTE   W24
 BYTE   Gn0
 BYTE   N12  Gn1
 BYTE   W24
 BYTE   N06
 BYTE   W12
 BYTE   N06
 BYTE   W12
 BYTE   PEND 
// 024   ----------------------------------------
Label_13_010413F7:
 BYTE   N12  Gn1  v040
 BYTE   W24
 BYTE   N12
 BYTE   W72
 BYTE   PEND 
// 025   ----------------------------------------
 BYTE   W96
// 026   ----------------------------------------
 BYTE   W96
// 027   ----------------------------------------
 BYTE   W96
// 028   ----------------------------------------
 BYTE   W96
// 029   ----------------------------------------
 BYTE   W96
// 030   ----------------------------------------
 BYTE   W96
// 031   ----------------------------------------
 BYTE   TIE  Gn0  v056
 BYTE   W96
// 032   ----------------------------------------
 BYTE   W96
// 033   ----------------------------------------
 BYTE   EOT
 BYTE   W96
// 034   ----------------------------------------
 BYTE   W96
// 035   ----------------------------------------
 BYTE   W96
// 036   ----------------------------------------
 BYTE   W96
// 037   ----------------------------------------
 BYTE   W96
// 038   ----------------------------------------
Label_13_0104140F:
 BYTE   W84
 BYTE   N08  Fn0  v056
 BYTE   N08  Fn1
 BYTE   W12
 BYTE   PEND 
// 039   ----------------------------------------
Label_13_01041417:
 BYTE   N24  As0  v056
 BYTE   N24  As1
 BYTE   W36
 BYTE   As0
 BYTE   N24  As1
 BYTE   W36
 BYTE   N14  As0
 BYTE   N14  As1
 BYTE   W24
 BYTE   PEND 
// 040   ----------------------------------------
Label_13_01041427:
 BYTE   N24  An0  v056
 BYTE   N24  An1
 BYTE   W36
 BYTE   An0
 BYTE   N24  An1
 BYTE   W36
 BYTE   N14  An0
 BYTE   N14  An1
 BYTE   W24
 BYTE   PEND 
// 041   ----------------------------------------
Label_13_01041437:
 BYTE   N15  Dn2  v040
 BYTE   N15  Cs3
 BYTE   W15
 BYTE   N16  Cs2
 BYTE   N16  An2
 BYTE   W17
 BYTE   N15  En2
 BYTE   N15  Cs3
 BYTE   W16
 BYTE   An1
 BYTE   N15  En2
 BYTE   W15
 BYTE   N16  Dn2
 BYTE   N16  An2
 BYTE   W17
 BYTE   N15  An1
 BYTE   N15  En2
 BYTE   W16
 BYTE   PEND 
// 042   ----------------------------------------
Label_13_01041456:
 BYTE   N15  Gn2  v040
 BYTE   N15  Dn3
 BYTE   W15
 BYTE   N16  Dn2
 BYTE   N16  Bn2
 BYTE   W17
 BYTE   N15  Gn2
 BYTE   N15  Dn3
 BYTE   W16
 BYTE   Dn2
 BYTE   W15
 BYTE   N16  Bn1
 BYTE   N16  Gn2
 BYTE   W17
 BYTE   N15
 BYTE   N15  Dn3
 BYTE   W16
 BYTE   PEND 
// 043   ----------------------------------------
Label_13_01041472:
 BYTE   N15  En2  v040
 BYTE   N15  Cs3
 BYTE   W15
 BYTE   N16  Cs2
 BYTE   N16  An2
 BYTE   W17
 BYTE   N15  En2
 BYTE   N15  Cs3
 BYTE   W16
 BYTE   An2
 BYTE   N15  En3
 BYTE   W15
 BYTE   N16  En2
 BYTE   N16  Cs3
 BYTE   W17
 BYTE   N15  Cs2
 BYTE   N15  An2
 BYTE   W16
 BYTE   PEND 
// 044   ----------------------------------------
Label_13_01041491:
 BYTE   N15  Fn2  v040
 BYTE   N15  Dn3
 BYTE   W15
 BYTE   N16  Dn2
 BYTE   N16  As2
 BYTE   W17
 BYTE   N15  Fn2
 BYTE   N15  Dn3
 BYTE   W16
 BYTE   As2
 BYTE   N15  Fn3
 BYTE   W15
 BYTE   N16  Fn2
 BYTE   N16  Dn3
 BYTE   W17
 BYTE   N15  Dn2
 BYTE   N15  As2
 BYTE   W16
 BYTE   PEND 
// 045   ----------------------------------------
Label_13_010414B0:
 BYTE   N12  An1  v072
 BYTE   W24
 BYTE   N24  An0
 BYTE   N24  An1
 BYTE   W48
 BYTE   An0
 BYTE   N24  An1
 BYTE   W24
 BYTE   PEND 
// 046   ----------------------------------------
 BYTE   W24
 BYTE   An0
 BYTE   N24  An1
 BYTE   W48
 BYTE   An0
 BYTE   N24  An1
 BYTE   W24
 BYTE   PATT
  POIN2 Label_13_010413BA
 BYTE   PATT
  POIN2 Label_13_010412D7
 BYTE   PATT
  POIN2 Label_13_010412E3
 BYTE   PATT
  POIN2 Label_13_010412F1
 BYTE   PATT
  POIN2 Label_13_010412FD
 BYTE   PATT
  POIN2 Label_13_01041311
 BYTE   PATT
  POIN2 Label_13_01041324
 BYTE   PATT
  POIN2 Label_13_01041337
 BYTE   PATT
  POIN2 Label_13_0104134A
 BYTE   PATT
  POIN2 Label_13_0104135B
 BYTE   PATT
  POIN2 Label_13_0104136C
 BYTE   PATT
  POIN2 Label_13_0104137E
// 047   ----------------------------------------
 BYTE   W96
// 048   ----------------------------------------
 BYTE   W96
// 049   ----------------------------------------
 BYTE   W96
// 050   ----------------------------------------
 BYTE   W96
 BYTE   PATT
  POIN2 Label_13_01041394
 BYTE   PATT
  POIN2 Label_13_01041394
 BYTE   PATT
  POIN2 Label_13_01041394
 BYTE   PATT
  POIN2 Label_13_01041394
// 051   ----------------------------------------
 BYTE   W96
// 052   ----------------------------------------
 BYTE   W96
// 053   ----------------------------------------
 BYTE   W96
// 054   ----------------------------------------
 BYTE   W96
 BYTE   PATT
  POIN2 Label_13_010413BA
 BYTE   PATT
  POIN2 Label_13_010412D7
 BYTE   PATT
  POIN2 Label_13_010413CF
 BYTE   PATT
  POIN2 Label_13_010412F1
 BYTE   PATT
  POIN2 Label_13_010413E4
 BYTE   PATT
  POIN2 Label_13_010413F7
// 055   ----------------------------------------
 BYTE   W96
// 056   ----------------------------------------
 BYTE   W96
// 057   ----------------------------------------
 BYTE   W96
// 058   ----------------------------------------
 BYTE   W96
// 059   ----------------------------------------
 BYTE   W96
// 060   ----------------------------------------
 BYTE   W96
// 061   ----------------------------------------
 BYTE   TIE  Gn0  v056
 BYTE   W96
// 062   ----------------------------------------
 BYTE   W96
// 063   ----------------------------------------
 BYTE   EOT
 BYTE   W96
// 064   ----------------------------------------
 BYTE   W96
// 065   ----------------------------------------
 BYTE   W96
// 066   ----------------------------------------
 BYTE   W96
// 067   ----------------------------------------
 BYTE   W96
 BYTE   PATT
  POIN2 Label_13_0104140F
 BYTE   PATT
  POIN2 Label_13_01041417
 BYTE   PATT
  POIN2 Label_13_01041427
 BYTE   PATT
  POIN2 Label_13_01041437
 BYTE   PATT
  POIN2 Label_13_01041456
 BYTE   PATT
  POIN2 Label_13_01041472
 BYTE   PATT
  POIN2 Label_13_01041491
 BYTE   PATT
  POIN2 Label_13_010414B0
// 068   ----------------------------------------
 BYTE   W24
 BYTE   N24  An0  v072
 BYTE   N24  An1
 BYTE   W48
 BYTE   An0
 BYTE   N24  An1
 BYTE   W12
 BYTE   GoTo
  POIN2 Label_13_010412BE
// 069   ----------------------------------------
 BYTE   W12
 BYTE   FINE

//**************** Track 15 (Midi-Chn.14) ****************//

songSnowBattle_015:
// 000   ----------------------------------------
 BYTE   KEYSH   songSnowBattle_key+0
Label_14_0104158A:
 BYTE   VOICE   49
 BYTE   MODT 0
 BYTE   CnM2
 BYTE   LFOS 0
 BYTE   Gs1
 BYTE   PAN   c_v-37
 BYTE   VOL   60*songSnowBattle_mvl/mxv
 BYTE   W96
// 001   ----------------------------------------
 BYTE   W96
// 002   ----------------------------------------
 BYTE   W96
// 003   ----------------------------------------
 BYTE   W96
// 004   ----------------------------------------
 BYTE   W96
// 005   ----------------------------------------
 BYTE   W96
// 006   ----------------------------------------
 BYTE   W96
// 007   ----------------------------------------
 BYTE   W96
// 008   ----------------------------------------
 BYTE   W96
// 009   ----------------------------------------
 BYTE   W96
// 010   ----------------------------------------
 BYTE   W96
// 011   ----------------------------------------
 BYTE   W96
// 012   ----------------------------------------
 BYTE   W96
// 013   ----------------------------------------
 BYTE   W96
// 014   ----------------------------------------
 BYTE   W96
// 015   ----------------------------------------
 BYTE   W96
// 016   ----------------------------------------
 BYTE   W96
// 017   ----------------------------------------
 BYTE   W96
// 018   ----------------------------------------
 BYTE   W96
// 019   ----------------------------------------
 BYTE   W96
// 020   ----------------------------------------
 BYTE   W96
// 021   ----------------------------------------
 BYTE   W96
// 022   ----------------------------------------
 BYTE   W96
// 023   ----------------------------------------
 BYTE   W96
// 024   ----------------------------------------
 BYTE   W96
// 025   ----------------------------------------
 BYTE   W96
// 026   ----------------------------------------
 BYTE   W96
// 027   ----------------------------------------
 BYTE   W96
// 028   ----------------------------------------
 BYTE   W96
// 029   ----------------------------------------
 BYTE   W96
// 030   ----------------------------------------
 BYTE   W96
// 031   ----------------------------------------
 BYTE   W96
// 032   ----------------------------------------
 BYTE   W48
 BYTE   N48  Gn2  v056
 BYTE   W48
// 033   ----------------------------------------
Label_14_010415B9:
 BYTE   N72  Dn3  v056
 BYTE   W72
 BYTE   Cn3
 BYTE   W24
 BYTE   PEND 
// 034   ----------------------------------------
 BYTE   W48
 BYTE   N48  As2
 BYTE   W48
// 035   ----------------------------------------
Label_14_010415C4:
 BYTE   N48  An2  v056
 BYTE   W48
 BYTE   Gn2
 BYTE   W48
 BYTE   PEND 
// 036   ----------------------------------------
Label_14_010415CB:
 BYTE   TIE  Dn2  v052
 BYTE   N36  Dn4  v056
 BYTE   N36  Gn4
 BYTE   N36  Bn4
 BYTE   W48
 BYTE   Ds4
 BYTE   N36  Gn4
 BYTE   N36  As4
 BYTE   W48
 BYTE   PEND 
// 037   ----------------------------------------
Label_14_010415DD:
 BYTE   N36  As3  v056
 BYTE   N36  Dn4
 BYTE   N36  Fn4
 BYTE   W23
 BYTE   PEND 
 BYTE   EOT
 BYTE   Dn2
 BYTE   W24
 BYTE   W01
 BYTE   N36  Gn3  v040
 BYTE   N36  Cn4
 BYTE   N36  En4
 BYTE   W48
// 038   ----------------------------------------
 BYTE   W96
// 039   ----------------------------------------
 BYTE   W96
// 040   ----------------------------------------
 BYTE   W48
 BYTE   N48  Gn2  v056
 BYTE   W48
 BYTE   PATT
  POIN2 Label_14_010415B9
// 041   ----------------------------------------
 BYTE   W48
 BYTE   N48  As2  v056
 BYTE   W48
// 042   ----------------------------------------
Label_14_01041603:
 BYTE   N48  An2  v056
 BYTE   W72
 BYTE   N72  Cn3
 BYTE   W24
 BYTE   PEND 
// 043   ----------------------------------------
 BYTE   W48
 BYTE   N48  As2
 BYTE   W48
// 044   ----------------------------------------
Label_14_0104160F:
 BYTE   N48  An2  v056
 BYTE   W48
 BYTE   En2
 BYTE   W48
 BYTE   PEND 
// 045   ----------------------------------------
 BYTE   W96
// 046   ----------------------------------------
 BYTE   W96
// 047   ----------------------------------------
 BYTE   W96
// 048   ----------------------------------------
 BYTE   W96
// 049   ----------------------------------------
 BYTE   W96
// 050   ----------------------------------------
 BYTE   W96
// 051   ----------------------------------------
 BYTE   W96
// 052   ----------------------------------------
 BYTE   W96
// 053   ----------------------------------------
 BYTE   W96
// 054   ----------------------------------------
 BYTE   W96
// 055   ----------------------------------------
 BYTE   W96
// 056   ----------------------------------------
 BYTE   W96
// 057   ----------------------------------------
 BYTE   W96
// 058   ----------------------------------------
 BYTE   W96
// 059   ----------------------------------------
 BYTE   W96
// 060   ----------------------------------------
 BYTE   W96
// 061   ----------------------------------------
 BYTE   W96
// 062   ----------------------------------------
 BYTE   W96
// 063   ----------------------------------------
 BYTE   W96
// 064   ----------------------------------------
 BYTE   W96
// 065   ----------------------------------------
 BYTE   W96
// 066   ----------------------------------------
 BYTE   W96
// 067   ----------------------------------------
 BYTE   W96
// 068   ----------------------------------------
 BYTE   W96
// 069   ----------------------------------------
 BYTE   W96
// 070   ----------------------------------------
 BYTE   W96
// 071   ----------------------------------------
 BYTE   W96
// 072   ----------------------------------------
 BYTE   W96
// 073   ----------------------------------------
 BYTE   W96
// 074   ----------------------------------------
 BYTE   W96
// 075   ----------------------------------------
 BYTE   W96
// 076   ----------------------------------------
 BYTE   W96
// 077   ----------------------------------------
 BYTE   W96
// 078   ----------------------------------------
 BYTE   W96
// 079   ----------------------------------------
 BYTE   W96
// 080   ----------------------------------------
 BYTE   W96
// 081   ----------------------------------------
 BYTE   W96
// 082   ----------------------------------------
 BYTE   W96
// 083   ----------------------------------------
 BYTE   W48
 BYTE   Gn2
 BYTE   W48
 BYTE   PATT
  POIN2 Label_14_010415B9
// 084   ----------------------------------------
 BYTE   W48
 BYTE   N48  As2  v056
 BYTE   W48
 BYTE   PATT
  POIN2 Label_14_010415C4
 BYTE   PATT
  POIN2 Label_14_010415CB
 BYTE   PATT
  POIN2 Label_14_010415DD
// 085   ----------------------------------------
 BYTE   EOT
 BYTE   Dn2
 BYTE   W24
 BYTE   W01
 BYTE   N36  Gn3  v040
 BYTE   N36  Cn4
 BYTE   N36  En4
 BYTE   W48
 BYTE   W96
// 086   ----------------------------------------
 BYTE   W96
// 087   ----------------------------------------
 BYTE   W48
 BYTE   N48  Gn2  v056
 BYTE   W48
 BYTE   PATT
  POIN2 Label_14_010415B9
// 088   ----------------------------------------
 BYTE   W48
 BYTE   N48  As2  v056
 BYTE   W48
 BYTE   PATT
  POIN2 Label_14_01041603
// 089   ----------------------------------------
 BYTE   W48
 BYTE   N48  As2  v056
 BYTE   W48
 BYTE   PATT
  POIN2 Label_14_0104160F
// 090   ----------------------------------------
 BYTE   W96
// 091   ----------------------------------------
 BYTE   W96
// 092   ----------------------------------------
 BYTE   W96
// 093   ----------------------------------------
 BYTE   W96
// 094   ----------------------------------------
 BYTE   W96
// 095   ----------------------------------------
 BYTE   W84
 BYTE   GoTo
  POIN2 Label_14_0104158A
// 096   ----------------------------------------
 BYTE   W12
 BYTE   FINE

//******************************************************//
	ALIGN 4

songSnowBattle:
	BYTE	15	// NumTrks
	BYTE	0	// NumBlks
	BYTE	songSnowBattle_pri	// Priority
	BYTE	songSnowBattle_rev	// Reverb.
    
	POIN2	songSnowBattle_grp
    
	POIN2	songSnowBattle_001
	POIN2	songSnowBattle_002
	POIN2	songSnowBattle_003
	POIN2	songSnowBattle_004
	POIN2	songSnowBattle_005
	POIN2	songSnowBattle_006
	POIN2	songSnowBattle_007
	POIN2	songSnowBattle_008
	POIN2	songSnowBattle_009
	POIN2	songSnowBattle_010
	POIN2	songSnowBattle_011
	POIN2	songSnowBattle_012
	POIN2	songSnowBattle_013
	POIN2	songSnowBattle_014
	POIN2	songSnowBattle_015

	
