//Event file generated from Sappy .s format.
	#include "MPlayDef.event"

	#define	songStageOne_grp  voicegroup000
	#define	songStageOne_pri  0
	#define	songStageOne_rev  0
	#define	songStageOne_mvl  127
	#define	songStageOne_key  0
	#define	songStageOne_tbs  1
	#define	songStageOne_exg  0
	#define	songStageOne_cmp  1

	// .rodata
	//	songStageOne
	ALIGN 4


//**************** Track 1 (Midi-Chn.0) ****************//

songStageOne_001:
// 000   ----------------------------------------
 BYTE   KEYSH   songStageOne_key+0
LabelStageOne_0_01201562:
 BYTE   TEMPO   126*songStageOne_tbs/2
 BYTE   VOICE   81
 BYTE   MODT 0
 BYTE   CnM2
 BYTE   LFOS 0
 BYTE   Gs1
 BYTE   VOL   50*songStageOne_mvl/mxv
 BYTE   PAN   c_v+0
 BYTE   N06  An3  v116
 BYTE   W06
 BYTE   N06
 BYTE   W12
 BYTE   Gn3
 BYTE   W12
 BYTE   N36
 BYTE   W36
 BYTE   N12  Dn3
 BYTE   W12
 BYTE   N06
 BYTE   W06
 BYTE   Cn3
 BYTE   W06
 BYTE   N06
 BYTE   W06
// 001   ----------------------------------------
LabelStageOne_0_01201581:
 BYTE   N18  Dn3  v116
 BYTE   W18
 BYTE   As2
 BYTE   W18
 BYTE   N12  Dn3
 BYTE   W12
 BYTE   N06  Cn3
 BYTE   W06
 BYTE   N42  Gn3
 BYTE   W42
 BYTE   PEND 
// 002   ----------------------------------------
LabelStageOne_0_01201591:
 BYTE   N06  An3  v116
 BYTE   W06
 BYTE   N06
 BYTE   W12
 BYTE   Gn3
 BYTE   W12
 BYTE   N36
 BYTE   W36
 BYTE   N12  Dn3
 BYTE   W12
 BYTE   N06
 BYTE   W06
 BYTE   Cn3
 BYTE   W06
 BYTE   N06
 BYTE   W06
 BYTE   PEND 
 BYTE   PATT
  POIN2 LabelStageOne_0_01201581
// 003   ----------------------------------------
LabelStageOne_0_012015AA:
 BYTE   W12
 BYTE   N06  An3  v116
 BYTE   W18
 BYTE   Dn4
 BYTE   W18
 BYTE   Cs4
 BYTE   W06
 BYTE   Dn4
 BYTE   W06
 BYTE   Cs4
 BYTE   W06
 BYTE   Cn4
 BYTE   W30
 BYTE   PEND 
// 004   ----------------------------------------
LabelStageOne_0_012015BA:
 BYTE   W12
 BYTE   N06  Fn4  v116
 BYTE   W06
 BYTE   Dn4
 BYTE   W18
 BYTE   Fn3
 BYTE   W06
 BYTE   Dn3
 BYTE   W12
 BYTE   Fn4
 BYTE   W06
 BYTE   Dn4
 BYTE   W06
 BYTE   Fn4
 BYTE   W06
 BYTE   Dn4
 BYTE   W06
 BYTE   Fn4
 BYTE   W06
 BYTE   Dn4
 BYTE   W06
 BYTE   Fn4
 BYTE   W06
 BYTE   PEND 
 BYTE   PATT
  POIN2 LabelStageOne_0_012015AA
 BYTE   PATT
  POIN2 LabelStageOne_0_012015BA
// 005   ----------------------------------------
 BYTE   W96
// 006   ----------------------------------------
 BYTE   W96
// 007   ----------------------------------------
 BYTE   W96
// 008   ----------------------------------------
 BYTE   W96
// 009   ----------------------------------------
LabelStageOne_0_012015E2:
 BYTE   N06  An4  v088
 BYTE   W06
 BYTE   N06
 BYTE   W06
 BYTE   An3
 BYTE   W06
 BYTE   N78
 BYTE   W78
 BYTE   PEND 
// 010   ----------------------------------------
LabelStageOne_0_012015ED:
 BYTE   N06  Fn2  v088
 BYTE   W12
 BYTE   N06
 BYTE   W12
 BYTE   As2
 BYTE   W06
 BYTE   N12  Dn3
 BYTE   W18
 BYTE   N06  Gn2
 BYTE   W12
 BYTE   N06
 BYTE   W12
 BYTE   Cn3
 BYTE   W06
 BYTE   N12  En3
 BYTE   W18
 BYTE   PEND 
 BYTE   PATT
  POIN2 LabelStageOne_0_012015E2
// 011   ----------------------------------------
LabelStageOne_0_01201608:
 BYTE   N06  Fn2  v088
 BYTE   W12
 BYTE   N06
 BYTE   W12
 BYTE   As2
 BYTE   W06
 BYTE   N12  Dn3
 BYTE   W18
 BYTE   N06  Gn2
 BYTE   W48
 BYTE   PEND 
 BYTE   PATT
  POIN2 LabelStageOne_0_01201591
 BYTE   PATT
  POIN2 LabelStageOne_0_01201581
 BYTE   PATT
  POIN2 LabelStageOne_0_01201591
 BYTE   PATT
  POIN2 LabelStageOne_0_01201581
 BYTE   PATT
  POIN2 LabelStageOne_0_012015AA
 BYTE   PATT
  POIN2 LabelStageOne_0_012015BA
 BYTE   PATT
  POIN2 LabelStageOne_0_012015AA
 BYTE   PATT
  POIN2 LabelStageOne_0_012015BA
// 012   ----------------------------------------
 BYTE   W96
// 013   ----------------------------------------
 BYTE   W96
// 014   ----------------------------------------
 BYTE   W96
// 015   ----------------------------------------
 BYTE   W96
 BYTE   PATT
  POIN2 LabelStageOne_0_012015E2
 BYTE   PATT
  POIN2 LabelStageOne_0_012015ED
 BYTE   PATT
  POIN2 LabelStageOne_0_012015E2
 BYTE   PATT
  POIN2 LabelStageOne_0_01201608
// 016   ----------------------------------------
 BYTE   GoTo
  POIN2 LabelStageOne_0_01201562
 BYTE   FINE

//**************** Track 2 (Midi-Chn.1) ****************//

songStageOne_002:
// 000   ----------------------------------------
 BYTE   KEYSH   songStageOne_key+0
LabelStageOne_1_01201662:
 BYTE   VOICE   48
 BYTE   MODT 0
 BYTE   CnM2
 BYTE   LFOS 0
 BYTE   Gs1
 BYTE   VOL   50*songStageOne_mvl/mxv
 BYTE   PAN   c_v+0
 BYTE   N06  Dn4  v116
 BYTE   W06
 BYTE   N06
 BYTE   W12
 BYTE   Cn4
 BYTE   W12
 BYTE   N36  Bn3
 BYTE   W36
 BYTE   N12  Dn3
 BYTE   W12
 BYTE   N06  En3
 BYTE   W06
 BYTE   Fn3
 BYTE   W06
 BYTE   Gn3
 BYTE   W06
// 001   ----------------------------------------
LabelStageOne_1_01201681:
 BYTE   N18  An3  v116
 BYTE   W18
 BYTE   Dn3
 BYTE   W18
 BYTE   N12  An3
 BYTE   W12
 BYTE   N06  Gn3
 BYTE   W06
 BYTE   N42  Cn4
 BYTE   W42
 BYTE   PEND 
// 002   ----------------------------------------
LabelStageOne_1_01201691:
 BYTE   N06  Dn4  v116
 BYTE   W06
 BYTE   N06
 BYTE   W12
 BYTE   Cn4
 BYTE   W12
 BYTE   N36  Bn3
 BYTE   W36
 BYTE   N12  Dn3
 BYTE   W12
 BYTE   N06  En3
 BYTE   W06
 BYTE   Fn3
 BYTE   W06
 BYTE   Gn3
 BYTE   W06
 BYTE   PEND 
// 003   ----------------------------------------
LabelStageOne_1_012016A7:
 BYTE   N18  An3  v116
 BYTE   W18
 BYTE   Dn3
 BYTE   W18
 BYTE   N12  An3
 BYTE   W12
 BYTE   N06  Gn3
 BYTE   W06
 BYTE   N42  Cn3
 BYTE   W42
 BYTE   PEND 
// 004   ----------------------------------------
LabelStageOne_1_012016B7:
 BYTE   W12
 BYTE   N06  Dn4  v116
 BYTE   W18
 BYTE   An4
 BYTE   W18
 BYTE   Gs4
 BYTE   W06
 BYTE   An4
 BYTE   W06
 BYTE   Gs4
 BYTE   W06
 BYTE   Fn4
 BYTE   W30
 BYTE   PEND 
// 005   ----------------------------------------
LabelStageOne_1_012016C7:
 BYTE   N06  An4  v116
 BYTE   W12
 BYTE   N06
 BYTE   W06
 BYTE   Gs4
 BYTE   W12
 BYTE   N06
 BYTE   W06
 BYTE   Gn4
 BYTE   W12
 BYTE   An4
 BYTE   W12
 BYTE   N06
 BYTE   W06
 BYTE   Gs4
 BYTE   W12
 BYTE   N06
 BYTE   W06
 BYTE   Gn4
 BYTE   W12
 BYTE   PEND 
 BYTE   PATT
  POIN2 LabelStageOne_1_012016B7
 BYTE   PATT
  POIN2 LabelStageOne_1_012016C7
// 006   ----------------------------------------
LabelStageOne_1_012016E8:
 BYTE   N18  Cs4  v116
 BYTE   W18
 BYTE   En4
 BYTE   W18
 BYTE   N12  As4
 BYTE   W12
 BYTE   N18  An4
 BYTE   W18
 BYTE   Fn4
 BYTE   W18
 BYTE   N12  Dn4
 BYTE   W12
 BYTE   PEND 
// 007   ----------------------------------------
 BYTE   N18  Cs4
 BYTE   W18
 BYTE   En4
 BYTE   W18
 BYTE   N12  As4
 BYTE   W12
 BYTE   N18  An4
 BYTE   W18
 BYTE   N08  Dn4
 BYTE   W30
 BYTE   PATT
  POIN2 LabelStageOne_1_012016E8
// 008   ----------------------------------------
LabelStageOne_1_0120170D:
 BYTE   N18  En4  v116
 BYTE   W18
 BYTE   Gn4
 BYTE   W18
 BYTE   N12  As4
 BYTE   W12
 BYTE   N18  An4
 BYTE   W18
 BYTE   Bn4
 BYTE   W18
 BYTE   N12  Cs5
 BYTE   W12
 BYTE   PEND 
// 009   ----------------------------------------
LabelStageOne_1_0120171F:
 BYTE   N06  Dn5  v116
 BYTE   W06
 BYTE   N06
 BYTE   W06
 BYTE   Dn4
 BYTE   W06
 BYTE   N78
 BYTE   W78
 BYTE   PEND 
// 010   ----------------------------------------
LabelStageOne_1_0120172A:
 BYTE   N06  As2  v116
 BYTE   W12
 BYTE   N06
 BYTE   W12
 BYTE   Dn3
 BYTE   W06
 BYTE   N12  Fn3
 BYTE   W18
 BYTE   N06  Cn3
 BYTE   W12
 BYTE   N06
 BYTE   W12
 BYTE   En3
 BYTE   W06
 BYTE   N12  Gn3
 BYTE   W18
 BYTE   PEND 
 BYTE   PATT
  POIN2 LabelStageOne_1_0120171F
// 011   ----------------------------------------
LabelStageOne_1_01201745:
 BYTE   N06  As2  v116
 BYTE   W12
 BYTE   N06
 BYTE   W12
 BYTE   Dn3
 BYTE   W06
 BYTE   N12  Fn3
 BYTE   W18
 BYTE   N06  Cn3
 BYTE   W24
 BYTE   An1
 BYTE   W06
 BYTE   N12  Cn2
 BYTE   W18
 BYTE   PEND 
 BYTE   PATT
  POIN2 LabelStageOne_1_01201691
 BYTE   PATT
  POIN2 LabelStageOne_1_01201681
 BYTE   PATT
  POIN2 LabelStageOne_1_01201691
 BYTE   PATT
  POIN2 LabelStageOne_1_012016A7
 BYTE   PATT
  POIN2 LabelStageOne_1_012016B7
 BYTE   PATT
  POIN2 LabelStageOne_1_012016C7
 BYTE   PATT
  POIN2 LabelStageOne_1_012016B7
 BYTE   PATT
  POIN2 LabelStageOne_1_012016C7
 BYTE   PATT
  POIN2 LabelStageOne_1_012016E8
// 012   ----------------------------------------
 BYTE   N18  Cs4  v116
 BYTE   W18
 BYTE   En4
 BYTE   W18
 BYTE   N12  As4
 BYTE   W12
 BYTE   N18  An4
 BYTE   W18
 BYTE   N09  Dn4
 BYTE   W30
 BYTE   PATT
  POIN2 LabelStageOne_1_012016E8
 BYTE   PATT
  POIN2 LabelStageOne_1_0120170D
 BYTE   PATT
  POIN2 LabelStageOne_1_0120171F
 BYTE   PATT
  POIN2 LabelStageOne_1_0120172A
 BYTE   PATT
  POIN2 LabelStageOne_1_0120171F
 BYTE   PATT
  POIN2 LabelStageOne_1_01201745
// 013   ----------------------------------------
 BYTE   GoTo
  POIN2 LabelStageOne_1_01201662
 BYTE   FINE

//**************** Track 3 (Midi-Chn.2) ****************//

songStageOne_003:
// 000   ----------------------------------------
 BYTE   KEYSH   songStageOne_key+0
LabelStageOne_2_012017BE:
 BYTE   VOICE   49
 BYTE   MODT 0
 BYTE   CnM2
 BYTE   LFOS 0
 BYTE   Gs1
 BYTE   VOL   50*songStageOne_mvl/mxv
 BYTE   PAN   c_v+0
 BYTE   W96
// 001   ----------------------------------------
 BYTE   W96
// 002   ----------------------------------------
 BYTE   W96
// 003   ----------------------------------------
 BYTE   W96
// 004   ----------------------------------------
 BYTE   W96
// 005   ----------------------------------------
 BYTE   W96
// 006   ----------------------------------------
 BYTE   W96
// 007   ----------------------------------------
 BYTE   W96
// 008   ----------------------------------------
LabelStageOne_2_012017D0:
 BYTE   N18  As3  v116
 BYTE   W18
 BYTE   Cs4
 BYTE   W18
 BYTE   N12  En4
 BYTE   W12
 BYTE   N18  Dn4
 BYTE   W18
 BYTE   An3
 BYTE   W18
 BYTE   N12  Fn3
 BYTE   W12
 BYTE   PEND 
// 009   ----------------------------------------
 BYTE   N18  As3
 BYTE   W18
 BYTE   Cs4
 BYTE   W18
 BYTE   N12  En4
 BYTE   W12
 BYTE   N18  Dn4
 BYTE   W18
 BYTE   N08  An3
 BYTE   W30
 BYTE   PATT
  POIN2 LabelStageOne_2_012017D0
// 010   ----------------------------------------
LabelStageOne_2_012017F5:
 BYTE   N18  As3  v116
 BYTE   W18
 BYTE   Cs4
 BYTE   W18
 BYTE   N12  En4
 BYTE   W12
 BYTE   N18  Cs4
 BYTE   W18
 BYTE   En4
 BYTE   W18
 BYTE   N12  Gn4
 BYTE   W12
 BYTE   PEND 
// 011   ----------------------------------------
 BYTE   W96
// 012   ----------------------------------------
 BYTE   W96
// 013   ----------------------------------------
 BYTE   W96
// 014   ----------------------------------------
 BYTE   W96
// 015   ----------------------------------------
 BYTE   W96
// 016   ----------------------------------------
 BYTE   W96
// 017   ----------------------------------------
 BYTE   W96
// 018   ----------------------------------------
 BYTE   W96
// 019   ----------------------------------------
 BYTE   W96
// 020   ----------------------------------------
 BYTE   W96
// 021   ----------------------------------------
 BYTE   W96
// 022   ----------------------------------------
 BYTE   W96
 BYTE   PATT
  POIN2 LabelStageOne_2_012017D0
// 023   ----------------------------------------
 BYTE   N18  As3  v116
 BYTE   W18
 BYTE   Cs4
 BYTE   W18
 BYTE   N12  En4
 BYTE   W12
 BYTE   N18  Dn4
 BYTE   W18
 BYTE   N09  An3
 BYTE   W30
 BYTE   PATT
  POIN2 LabelStageOne_2_012017D0
 BYTE   PATT
  POIN2 LabelStageOne_2_012017F5
// 024   ----------------------------------------
 BYTE   W96
// 025   ----------------------------------------
 BYTE   W96
// 026   ----------------------------------------
 BYTE   W96
// 027   ----------------------------------------
 BYTE   W96
// 028   ----------------------------------------
 BYTE   GoTo
  POIN2 LabelStageOne_2_012017BE
 BYTE   FINE

//**************** Track 4 (Midi-Chn.3) ****************//

songStageOne_004:
// 000   ----------------------------------------
 BYTE   KEYSH   songStageOne_key+0
LabelStageOne_3_0120183E:
 BYTE   VOICE   34
 BYTE   MODT 0
 BYTE   CnM2
 BYTE   LFOS 0
 BYTE   Gs1
 BYTE   VOL   30*songStageOne_mvl/mxv
 BYTE   PAN   c_v+0
 BYTE   N06  Dn1  v116
 BYTE   W12
 BYTE   N06
 BYTE   W06
 BYTE   N06
 BYTE   W06
 BYTE   N06
 BYTE   W18
 BYTE   N06
 BYTE   W06
 BYTE   N06
 BYTE   W12
 BYTE   N06
 BYTE   W06
 BYTE   N06
 BYTE   W06
 BYTE   N06
 BYTE   W06
 BYTE   N06
 BYTE   W06
 BYTE   N06
 BYTE   W06
 BYTE   N06
 BYTE   W06
// 001   ----------------------------------------
LabelStageOne_3_01201862:
 BYTE   N06  As0  v116
 BYTE   W12
 BYTE   N06
 BYTE   W06
 BYTE   N06
 BYTE   W06
 BYTE   As1
 BYTE   W24
 BYTE   Cn1
 BYTE   W06
 BYTE   N06
 BYTE   W06
 BYTE   Cn2
 BYTE   W06
 BYTE   Cn1
 BYTE   W06
 BYTE   N06
 BYTE   W06
 BYTE   N06
 BYTE   W06
 BYTE   N06
 BYTE   W06
 BYTE   N06
 BYTE   W06
 BYTE   PEND 
// 002   ----------------------------------------
LabelStageOne_3_0120187D:
 BYTE   N06  Dn1  v116
 BYTE   W12
 BYTE   N06
 BYTE   W06
 BYTE   N06
 BYTE   W06
 BYTE   N06
 BYTE   W18
 BYTE   N06
 BYTE   W06
 BYTE   N06
 BYTE   W12
 BYTE   N06
 BYTE   W06
 BYTE   N06
 BYTE   W06
 BYTE   N06
 BYTE   W06
 BYTE   N06
 BYTE   W06
 BYTE   N06
 BYTE   W06
 BYTE   N06
 BYTE   W06
 BYTE   PEND 
 BYTE   PATT
  POIN2 LabelStageOne_3_01201862
 BYTE   PATT
  POIN2 LabelStageOne_3_0120187D
// 003   ----------------------------------------
LabelStageOne_3_012018A2:
 BYTE   N06  As0  v116
 BYTE   W12
 BYTE   N06
 BYTE   W06
 BYTE   N06
 BYTE   W06
 BYTE   As1
 BYTE   W06
 BYTE   As0
 BYTE   W12
 BYTE   N06
 BYTE   W06
 BYTE   N12
 BYTE   W12
 BYTE   N06  As1
 BYTE   W12
 BYTE   N06
 BYTE   W12
 BYTE   N06
 BYTE   W12
 BYTE   PEND 
 BYTE   PATT
  POIN2 LabelStageOne_3_0120187D
 BYTE   PATT
  POIN2 LabelStageOne_3_012018A2
// 004   ----------------------------------------
LabelStageOne_3_012018C4:
 BYTE   N48  Cs1  v116
 BYTE   W48
 BYTE   Dn1
 BYTE   W48
 BYTE   PEND 
// 005   ----------------------------------------
LabelStageOne_3_012018CB:
 BYTE   N48  En1  v116
 BYTE   W48
 BYTE   Dn1
 BYTE   W48
 BYTE   PEND 
 BYTE   PATT
  POIN2 LabelStageOne_3_012018C4
// 006   ----------------------------------------
LabelStageOne_3_012018D7:
 BYTE   N48  En1  v116
 BYTE   W48
 BYTE   An1
 BYTE   W48
 BYTE   PEND 
// 007   ----------------------------------------
LabelStageOne_3_012018DE:
 BYTE   N06  Dn1  v116
 BYTE   W06
 BYTE   N12
 BYTE   W12
 BYTE   N18
 BYTE   W18
 BYTE   N12  Cn1
 BYTE   W12
 BYTE   N06  Dn1
 BYTE   W12
 BYTE   N36
 BYTE   W36
 BYTE   PEND 
// 008   ----------------------------------------
LabelStageOne_3_012018EF:
 BYTE   N06  As0  v116
 BYTE   W06
 BYTE   N12
 BYTE   W12
 BYTE   N30
 BYTE   W30
 BYTE   N06  Cn1
 BYTE   W06
 BYTE   N12
 BYTE   W12
 BYTE   N30
 BYTE   W30
 BYTE   PEND 
 BYTE   PATT
  POIN2 LabelStageOne_3_012018DE
// 009   ----------------------------------------
LabelStageOne_3_01201904:
 BYTE   N06  As0  v116
 BYTE   W06
 BYTE   N12
 BYTE   W12
 BYTE   N30
 BYTE   W30
 BYTE   N06  Cn1
 BYTE   W06
 BYTE   N12
 BYTE   W12
 BYTE   N06
 BYTE   W06
 BYTE   An0
 BYTE   W06
 BYTE   N18  Cn1
 BYTE   W18
 BYTE   PEND 
 BYTE   PATT
  POIN2 LabelStageOne_3_0120187D
 BYTE   PATT
  POIN2 LabelStageOne_3_01201862
 BYTE   PATT
  POIN2 LabelStageOne_3_0120187D
 BYTE   PATT
  POIN2 LabelStageOne_3_01201862
 BYTE   PATT
  POIN2 LabelStageOne_3_0120187D
 BYTE   PATT
  POIN2 LabelStageOne_3_012018A2
 BYTE   PATT
  POIN2 LabelStageOne_3_0120187D
 BYTE   PATT
  POIN2 LabelStageOne_3_012018A2
 BYTE   PATT
  POIN2 LabelStageOne_3_012018C4
 BYTE   PATT
  POIN2 LabelStageOne_3_012018CB
 BYTE   PATT
  POIN2 LabelStageOne_3_012018C4
 BYTE   PATT
  POIN2 LabelStageOne_3_012018D7
 BYTE   PATT
  POIN2 LabelStageOne_3_012018DE
 BYTE   PATT
  POIN2 LabelStageOne_3_012018EF
 BYTE   PATT
  POIN2 LabelStageOne_3_012018DE
 BYTE   PATT
  POIN2 LabelStageOne_3_01201904
// 010   ----------------------------------------
 BYTE   GoTo
  POIN2 LabelStageOne_3_0120183E
 BYTE   FINE

//**************** Track 5 (Midi-Chn.4) ****************//

songStageOne_005:
// 000   ----------------------------------------
 BYTE   KEYSH   songStageOne_key+0
LabelStageOne_4_01201972:
 BYTE   VOICE   121
 BYTE   MODT 0
 BYTE   CnM2
 BYTE   LFOS 0
 BYTE   Gs1
 BYTE   VOL   20*songStageOne_mvl/mxv
 BYTE   PAN   c_v+0
 BYTE   N06  Bn0  v124
 BYTE   N06  Fs1
 BYTE   W12
 BYTE   Bn0
 BYTE   N06  Fs1
 BYTE   W06
 BYTE   Bn0
 BYTE   N06  Fs1
 BYTE   W06
 BYTE   Dn1  v116
 BYTE   W24
 BYTE   Bn0  v124
 BYTE   N06  Fs1
 BYTE   W12
 BYTE   Bn0
 BYTE   N06  Fs1
 BYTE   W06
 BYTE   Bn0
 BYTE   N06  Fs1
 BYTE   W06
 BYTE   Dn1  v116
 BYTE   W12
 BYTE   Bn0  v124
 BYTE   N06  Fs1
 BYTE   W06
 BYTE   Bn0
 BYTE   N06  Fs1
 BYTE   W06
// 001   ----------------------------------------
LabelStageOne_4_012019A6:
 BYTE   N06  Bn0  v124
 BYTE   N06  Fs1
 BYTE   W12
 BYTE   Bn0
 BYTE   N06  Fs1
 BYTE   W06
 BYTE   Bn0
 BYTE   N06  Fs1
 BYTE   W06
 BYTE   Dn1  v116
 BYTE   W24
 BYTE   Bn0  v124
 BYTE   N06  Fs1
 BYTE   W06
 BYTE   Bn0
 BYTE   N06  Fs1
 BYTE   W06
 BYTE   Dn1  v116
 BYTE   W12
 BYTE   N06
 BYTE   W06
 BYTE   N06
 BYTE   W06
 BYTE   N06
 BYTE   W12
 BYTE   PEND 
// 002   ----------------------------------------
LabelStageOne_4_012019CA:
 BYTE   N06  Bn0  v124
 BYTE   N06  Fs1
 BYTE   W12
 BYTE   Bn0
 BYTE   N06  Fs1
 BYTE   W06
 BYTE   Bn0
 BYTE   N06  Fs1
 BYTE   W06
 BYTE   Dn1  v116
 BYTE   W24
 BYTE   Bn0  v124
 BYTE   N06  Fs1
 BYTE   W12
 BYTE   Bn0
 BYTE   N06  Fs1
 BYTE   W06
 BYTE   Bn0
 BYTE   N06  Fs1
 BYTE   W06
 BYTE   Dn1  v116
 BYTE   W12
 BYTE   Bn0  v124
 BYTE   N06  Fs1
 BYTE   W06
 BYTE   Bn0
 BYTE   N06  Fs1
 BYTE   W06
 BYTE   PEND 
 BYTE   PATT
  POIN2 LabelStageOne_4_012019A6
 BYTE   PATT
  POIN2 LabelStageOne_4_012019CA
// 003   ----------------------------------------
LabelStageOne_4_012019FF:
 BYTE   N06  Bn0  v124
 BYTE   N06  Fs1
 BYTE   W12
 BYTE   Bn0
 BYTE   N06  Fs1
 BYTE   W06
 BYTE   Bn0
 BYTE   N06  Fs1
 BYTE   W06
 BYTE   Dn1  v116
 BYTE   W18
 BYTE   Bn0  v124
 BYTE   N06  Fs1
 BYTE   W06
 BYTE   Bn0
 BYTE   N06  Fs1
 BYTE   W06
 BYTE   Bn0
 BYTE   N06  Fs1
 BYTE   W06
 BYTE   Dn1  v116
 BYTE   W12
 BYTE   N06
 BYTE   W12
 BYTE   N06
 BYTE   W12
 BYTE   PEND 
 BYTE   PATT
  POIN2 LabelStageOne_4_012019CA
 BYTE   PATT
  POIN2 LabelStageOne_4_012019FF
// 004   ----------------------------------------
LabelStageOne_4_01201A2F:
 BYTE   N06  Bn0  v124
 BYTE   N06  Fs1
 BYTE   W12
 BYTE   Bn0
 BYTE   N06  Fs1
 BYTE   W06
 BYTE   Bn0
 BYTE   N06  Fs1
 BYTE   W06
 BYTE   N06
 BYTE   W06
 BYTE   N06
 BYTE   W06
 BYTE   Dn1  v116
 BYTE   W12
 BYTE   Bn0  v124
 BYTE   N06  Fs1
 BYTE   W12
 BYTE   Bn0
 BYTE   N06  Fs1
 BYTE   W06
 BYTE   Bn0
 BYTE   N06  Fs1
 BYTE   W06
 BYTE   N06
 BYTE   W06
 BYTE   N06
 BYTE   W06
 BYTE   Dn1  v116
 BYTE   W12
 BYTE   PEND 
// 005   ----------------------------------------
LabelStageOne_4_01201A59:
 BYTE   N06  Bn0  v124
 BYTE   N06  Fs1
 BYTE   W12
 BYTE   Bn0
 BYTE   N06  Fs1
 BYTE   W06
 BYTE   Bn0
 BYTE   N06  Fs1
 BYTE   W06
 BYTE   N06
 BYTE   W06
 BYTE   N06
 BYTE   W06
 BYTE   Dn1  v116
 BYTE   W12
 BYTE   Bn0  v124
 BYTE   N06  Fs1
 BYTE   W12
 BYTE   Bn0
 BYTE   N06  Fs1
 BYTE   W06
 BYTE   Bn0
 BYTE   N06  Fs1
 BYTE   W06
 BYTE   N06
 BYTE   W06
 BYTE   N06
 BYTE   W06
 BYTE   Dn1  v116
 BYTE   W06
 BYTE   N06
 BYTE   W06
 BYTE   PEND 
 BYTE   PATT
  POIN2 LabelStageOne_4_01201A2F
// 006   ----------------------------------------
LabelStageOne_4_01201A8A:
 BYTE   N06  Bn0  v124
 BYTE   N06  Fs1
 BYTE   W12
 BYTE   Bn0
 BYTE   N06  Fs1
 BYTE   W06
 BYTE   Bn0
 BYTE   N06  Fs1
 BYTE   W06
 BYTE   Bn0
 BYTE   N06  Fs1
 BYTE   W06
 BYTE   Bn0
 BYTE   N06  Fs1
 BYTE   W06
 BYTE   Dn1  v116
 BYTE   W12
 BYTE   N06
 BYTE   W12
 BYTE   N06
 BYTE   W06
 BYTE   N06
 BYTE   W12
 BYTE   N06
 BYTE   W06
 BYTE   N06
 BYTE   W06
 BYTE   N06
 BYTE   W06
 BYTE   PEND 
// 007   ----------------------------------------
LabelStageOne_4_01201AB0:
 BYTE   W06
 BYTE   N06  Bn0  v124
 BYTE   N06  Fs1
 BYTE   W06
 BYTE   Dn1  v116
 BYTE   W12
 BYTE   Bn0  v124
 BYTE   N06  Fs1
 BYTE   W06
 BYTE   Dn1  v116
 BYTE   W12
 BYTE   N06
 BYTE   W18
 BYTE   Bn0  v124
 BYTE   N06  Fs1
 BYTE   W06
 BYTE   Bn0
 BYTE   N06  Fs1
 BYTE   W06
 BYTE   Bn0
 BYTE   N06  Fs1
 BYTE   W06
 BYTE   Bn0
 BYTE   N06  Fs1
 BYTE   W06
 BYTE   Bn0
 BYTE   N06  Fs1
 BYTE   W06
 BYTE   Bn0
 BYTE   N06  Fs1
 BYTE   W06
 BYTE   PEND 
// 008   ----------------------------------------
LabelStageOne_4_01201ADE:
 BYTE   N06  Dn1  v116
 BYTE   W12
 BYTE   N06
 BYTE   W12
 BYTE   Bn0  v124
 BYTE   N06  Fs1
 BYTE   W06
 BYTE   Dn1  v116
 BYTE   W06
 BYTE   N06
 BYTE   W06
 BYTE   N06
 BYTE   W06
 BYTE   N06
 BYTE   W12
 BYTE   N06
 BYTE   W12
 BYTE   Bn0  v124
 BYTE   N06  Fs1
 BYTE   W06
 BYTE   Dn1  v116
 BYTE   W06
 BYTE   N06
 BYTE   W06
 BYTE   N06
 BYTE   W06
 BYTE   PEND 
 BYTE   PATT
  POIN2 LabelStageOne_4_01201AB0
 BYTE   PATT
  POIN2 LabelStageOne_4_01201ADE
 BYTE   PATT
  POIN2 LabelStageOne_4_012019CA
 BYTE   PATT
  POIN2 LabelStageOne_4_012019A6
 BYTE   PATT
  POIN2 LabelStageOne_4_012019CA
 BYTE   PATT
  POIN2 LabelStageOne_4_012019A6
 BYTE   PATT
  POIN2 LabelStageOne_4_012019CA
 BYTE   PATT
  POIN2 LabelStageOne_4_012019FF
 BYTE   PATT
  POIN2 LabelStageOne_4_012019CA
 BYTE   PATT
  POIN2 LabelStageOne_4_012019FF
 BYTE   PATT
  POIN2 LabelStageOne_4_01201A2F
 BYTE   PATT
  POIN2 LabelStageOne_4_01201A59
 BYTE   PATT
  POIN2 LabelStageOne_4_01201A2F
 BYTE   PATT
  POIN2 LabelStageOne_4_01201A8A
 BYTE   PATT
  POIN2 LabelStageOne_4_01201AB0
 BYTE   PATT
  POIN2 LabelStageOne_4_01201ADE
 BYTE   PATT
  POIN2 LabelStageOne_4_01201AB0
 BYTE   PATT
  POIN2 LabelStageOne_4_01201ADE
// 009   ----------------------------------------
 BYTE   GoTo
  POIN2 LabelStageOne_4_01201972
 BYTE   FINE

//******************************************************//
	ALIGN 4

songStageOne:
	BYTE	5	// NumTrks
	BYTE	0	// NumBlks
	BYTE	songStageOne_pri	// Priority
	BYTE	songStageOne_rev	// Reverb.
    
	POIN2	songStageOne_grp
    
	POIN2	songStageOne_001
	POIN2	songStageOne_002
	POIN2	songStageOne_003
	POIN2	songStageOne_004
	POIN2	songStageOne_005

	
