//Event file generated from Sappy .s format.
	#include "MPlayDef.event"

	#define	StageOneConquest_grp  voicegroup000
	#define	StageOneConquest_pri  0
	#define	StageOneConquest_rev  0
	#define	StageOneConquest_mvl  127
	#define	StageOneConquest_key  0
	#define	StageOneConquest_tbs  1
	#define	StageOneConquest_exg  0
	#define	StageOneConquest_cmp  1

	// .rodata
	//	song38
	ALIGN 4


//**************** Track 1 (Midi-Chn.0) ****************//

StageOneConquest_001:
// 000   ----------------------------------------
 BYTE   KEYSH   StageOneConquest_key+0
StageOneConquest_Label_0_0100379E:
 BYTE   TEMPO   128*StageOneConquest_tbs/2
 BYTE   VOICE   18
 BYTE   MODT 0
 BYTE   CnM2
 BYTE   LFOS 0
 BYTE   Gs1
 BYTE   PAN   c_v-64
 BYTE   VOL   22*StageOneConquest_mvl/mxv
 BYTE   N06  An2  v127
 BYTE   W12
 BYTE   N06
 BYTE   W06
 BYTE   N06
 BYTE   W06
 BYTE   N06
 BYTE   W12
 BYTE   N06
 BYTE   W06
 BYTE   N06
 BYTE   W06
 BYTE   N06
 BYTE   W12
 BYTE   N06
 BYTE   W06
 BYTE   N06
 BYTE   W06
 BYTE   N06
 BYTE   W06
 BYTE   N06
 BYTE   W06
 BYTE   Bn2
 BYTE   W06
 BYTE   Cn3
 BYTE   W06
// 001   ----------------------------------------
StageOneConquest_Label_0_010037C6:
 BYTE   N06  Dn3  v127
 BYTE   W12
 BYTE   N06
 BYTE   W06
 BYTE   N06
 BYTE   W06
 BYTE   N06
 BYTE   W12
 BYTE   N06
 BYTE   W06
 BYTE   N06
 BYTE   W06
 BYTE   N06
 BYTE   W12
 BYTE   N06
 BYTE   W06
 BYTE   N06
 BYTE   W06
 BYTE   N06
 BYTE   W06
 BYTE   N06
 BYTE   W06
 BYTE   Cn3
 BYTE   W06
 BYTE   Bn2
 BYTE   W06
 BYTE   PEND 
// 002   ----------------------------------------
 BYTE   An2
 BYTE   W12
 BYTE   N06
 BYTE   W06
 BYTE   N06
 BYTE   W06
 BYTE   N06
 BYTE   W12
 BYTE   N06
 BYTE   W06
 BYTE   N06
 BYTE   W06
 BYTE   N06
 BYTE   W12
 BYTE   N06
 BYTE   W06
 BYTE   N06
 BYTE   W06
 BYTE   N06
 BYTE   W06
 BYTE   N06
 BYTE   W06
 BYTE   Bn2
 BYTE   W06
 BYTE   Cn3
 BYTE   W06
 BYTE   PATT
  POIN2 StageOneConquest_Label_0_010037C6
// 003   ----------------------------------------
 BYTE   N36  Cn3  v127
 BYTE   W48
 BYTE   N36
 BYTE   W48
// 004   ----------------------------------------
 BYTE   An2
 BYTE   W48
 BYTE   N24  En3
 BYTE   W24
 BYTE   N06  Cn3
 BYTE   W12
 BYTE   Bn2
 BYTE   W12
// 005   ----------------------------------------
 BYTE   N36  Gn2
 BYTE   W48
 BYTE   N36
 BYTE   W48
// 006   ----------------------------------------
 BYTE   N24
 BYTE   W24
 BYTE   N06  Bn2
 BYTE   W12
 BYTE   N06
 BYTE   W12
 BYTE   TIE  Cs3
 BYTE   W48
// 007   ----------------------------------------
 BYTE   W96
// 008   ----------------------------------------
 BYTE   EOT
 BYTE   N24  An2
 BYTE   W24
 BYTE   Gn2
 BYTE   W24
 BYTE   N72  Gn3
 BYTE   W48
// 009   ----------------------------------------
 BYTE   W24
 BYTE   N12  Cn4
 BYTE   W24
 BYTE   N96  Gn3
 BYTE   W48
// 010   ----------------------------------------
 BYTE   W48
 BYTE   N72  An3
 BYTE   W48
// 011   ----------------------------------------
 BYTE   W24
 BYTE   N24  Gn3
 BYTE   W24
 BYTE   N72  Fs3
 BYTE   W48
// 012   ----------------------------------------
StageOneConquest_Label_0_0100383D:
 BYTE   W24
 BYTE   N24  Fs3  v127
 BYTE   W24
 BYTE   N96  Fn3
 BYTE   W48
 BYTE   PEND 
// 013   ----------------------------------------
 BYTE   W48
 BYTE   Gn3
 BYTE   W48
// 014   ----------------------------------------
StageOneConquest_Label_0_01003849:
 BYTE   W48
 BYTE   N12  An3  v127
 BYTE   W12
 BYTE   Cn4
 BYTE   W12
 BYTE   An3
 BYTE   W12
 BYTE   Gn3
 BYTE   W12
 BYTE   PEND 
// 015   ----------------------------------------
 BYTE   En3
 BYTE   W12
 BYTE   Gn3
 BYTE   W12
 BYTE   En3
 BYTE   W12
 BYTE   Cn3
 BYTE   W12
 BYTE   N48  An2
 BYTE   W48
// 016   ----------------------------------------
 BYTE   N24
 BYTE   W24
 BYTE   Gn2
 BYTE   W24
 BYTE   Gn3
 BYTE   W36
 BYTE   N12
 BYTE   W12
// 017   ----------------------------------------
 BYTE   An3
 BYTE   W12
 BYTE   Cn4
 BYTE   W12
 BYTE   An3
 BYTE   W12
 BYTE   Gn3
 BYTE   W12
 BYTE   N24  En3
 BYTE   W36
 BYTE   N12  Gn3
 BYTE   W12
// 018   ----------------------------------------
 BYTE   An3
 BYTE   W12
 BYTE   Cn4
 BYTE   W12
 BYTE   Dn4
 BYTE   W12
 BYTE   Cn4
 BYTE   W12
 BYTE   N24  An3
 BYTE   W36
 BYTE   N12  Gn3
 BYTE   W12
// 019   ----------------------------------------
 BYTE   An3
 BYTE   W24
 BYTE   N12
 BYTE   W12
 BYTE   Gn3
 BYTE   W12
 BYTE   N72  Fs3
 BYTE   W48
 BYTE   PATT
  POIN2 StageOneConquest_Label_0_0100383D
// 020   ----------------------------------------
 BYTE   W48
 BYTE   N96  Gn3  v127
 BYTE   W48
 BYTE   PATT
  POIN2 StageOneConquest_Label_0_01003849
// 021   ----------------------------------------
 BYTE   N12  En3  v127
 BYTE   W12
 BYTE   Gn3
 BYTE   W12
 BYTE   En3
 BYTE   W12
 BYTE   Cn3
 BYTE   W12
 BYTE   N96  An2
 BYTE   W48
// 022   ----------------------------------------
 BYTE   W48
 BYTE   GoTo
  POIN2 StageOneConquest_Label_0_0100379E
 BYTE   FINE

//**************** Track 2 (Midi-Chn.1) ****************//

StageOneConquest_002:
// 000   ----------------------------------------
 BYTE   KEYSH   StageOneConquest_key+0
StageOneConquest_Label_1_0100A6B6:
 BYTE   VOICE   67
 BYTE   MODT 0
 BYTE   CnM2
 BYTE   LFOS 0
 BYTE   Gs1
 BYTE   PAN   c_v+63
 BYTE   VOL   22*StageOneConquest_mvl/mxv
 BYTE   N06  An2  v127
 BYTE   W12
 BYTE   N06
 BYTE   W06
 BYTE   N06
 BYTE   W06
 BYTE   N06
 BYTE   W12
 BYTE   N06
 BYTE   W06
 BYTE   N06
 BYTE   W06
 BYTE   N06
 BYTE   W12
 BYTE   N06
 BYTE   W06
 BYTE   N06
 BYTE   W06
 BYTE   N06
 BYTE   W06
 BYTE   N06
 BYTE   W06
 BYTE   Bn2
 BYTE   W06
 BYTE   Cn3
 BYTE   W06
// 001   ----------------------------------------
StageOneConquest_Label_1_0100A6DC:
 BYTE   N06  Dn3  v127
 BYTE   W12
 BYTE   N06
 BYTE   W06
 BYTE   N06
 BYTE   W06
 BYTE   N06
 BYTE   W12
 BYTE   N06
 BYTE   W06
 BYTE   N06
 BYTE   W06
 BYTE   N06
 BYTE   W12
 BYTE   N06
 BYTE   W06
 BYTE   N06
 BYTE   W06
 BYTE   N06
 BYTE   W06
 BYTE   N06
 BYTE   W06
 BYTE   Cn3
 BYTE   W06
 BYTE   Bn2
 BYTE   W06
 BYTE   PEND 
// 002   ----------------------------------------
 BYTE   An2
 BYTE   W12
 BYTE   N06
 BYTE   W06
 BYTE   N06
 BYTE   W06
 BYTE   N06
 BYTE   W12
 BYTE   N06
 BYTE   W06
 BYTE   N06
 BYTE   W06
 BYTE   N06
 BYTE   W12
 BYTE   N06
 BYTE   W06
 BYTE   N06
 BYTE   W06
 BYTE   N06
 BYTE   W06
 BYTE   N06
 BYTE   W06
 BYTE   Bn2
 BYTE   W06
 BYTE   Cn3
 BYTE   W06
 BYTE   PATT
  POIN2 StageOneConquest_Label_1_0100A6DC
// 003   ----------------------------------------
 BYTE   N36  Cn3  v127
 BYTE   W48
 BYTE   N36
 BYTE   W48
// 004   ----------------------------------------
 BYTE   An2
 BYTE   W48
 BYTE   N24  En3
 BYTE   W24
 BYTE   N06  Cn3
 BYTE   W12
 BYTE   Bn2
 BYTE   W12
// 005   ----------------------------------------
 BYTE   N36  Gn2
 BYTE   W48
 BYTE   N36
 BYTE   W48
// 006   ----------------------------------------
 BYTE   N24
 BYTE   W24
 BYTE   N06  Bn2
 BYTE   W12
 BYTE   N06
 BYTE   W12
 BYTE   TIE  Cs3
 BYTE   W48
// 007   ----------------------------------------
 BYTE   W96
// 008   ----------------------------------------
 BYTE   EOT
 BYTE   N24  An2
 BYTE   W24
 BYTE   Gn2
 BYTE   W24
 BYTE   N72  Gn3
 BYTE   W48
// 009   ----------------------------------------
 BYTE   W24
 BYTE   N12  Cn4
 BYTE   W24
 BYTE   N96  Gn3
 BYTE   W48
// 010   ----------------------------------------
 BYTE   W48
 BYTE   N72  An3
 BYTE   W48
// 011   ----------------------------------------
 BYTE   W24
 BYTE   N24  Gn3
 BYTE   W24
 BYTE   N72  Fs3
 BYTE   W48
// 012   ----------------------------------------
StageOneConquest_Label_1_0100A753:
 BYTE   W24
 BYTE   N24  Fs3  v127
 BYTE   W24
 BYTE   N96  Fn3
 BYTE   W48
 BYTE   PEND 
// 013   ----------------------------------------
 BYTE   W48
 BYTE   Gn3
 BYTE   W48
// 014   ----------------------------------------
StageOneConquest_Label_1_0100A75F:
 BYTE   W48
 BYTE   N12  An3  v127
 BYTE   W12
 BYTE   Cn4
 BYTE   W12
 BYTE   An3
 BYTE   W12
 BYTE   Gn3
 BYTE   W12
 BYTE   PEND 
// 015   ----------------------------------------
 BYTE   En3
 BYTE   W12
 BYTE   Gn3
 BYTE   W12
 BYTE   En3
 BYTE   W12
 BYTE   Cn3
 BYTE   W12
 BYTE   N48  An2
 BYTE   W48
// 016   ----------------------------------------
 BYTE   N24
 BYTE   W24
 BYTE   Gn2
 BYTE   W24
 BYTE   Gn3
 BYTE   W36
 BYTE   N12
 BYTE   W12
// 017   ----------------------------------------
 BYTE   An3
 BYTE   W12
 BYTE   Cn4
 BYTE   W12
 BYTE   An3
 BYTE   W12
 BYTE   Gn3
 BYTE   W12
 BYTE   N24  En3
 BYTE   W36
 BYTE   N12  Gn3
 BYTE   W12
// 018   ----------------------------------------
 BYTE   An3
 BYTE   W12
 BYTE   Cn4
 BYTE   W12
 BYTE   Dn4
 BYTE   W12
 BYTE   Cn4
 BYTE   W12
 BYTE   N24  An3
 BYTE   W36
 BYTE   N12  Gn3
 BYTE   W12
// 019   ----------------------------------------
 BYTE   An3
 BYTE   W24
 BYTE   N12
 BYTE   W12
 BYTE   Gn3
 BYTE   W12
 BYTE   N72  Fs3
 BYTE   W48
 BYTE   PATT
  POIN2 StageOneConquest_Label_1_0100A753
// 020   ----------------------------------------
 BYTE   W48
 BYTE   N96  Gn3  v127
 BYTE   W48
 BYTE   PATT
  POIN2 StageOneConquest_Label_1_0100A75F
// 021   ----------------------------------------
 BYTE   N12  En3  v127
 BYTE   W12
 BYTE   Gn3
 BYTE   W12
 BYTE   En3
 BYTE   W12
 BYTE   Cn3
 BYTE   W12
 BYTE   N96  An2
 BYTE   W48
// 022   ----------------------------------------
 BYTE   W48
 BYTE   GoTo
  POIN2 StageOneConquest_Label_1_0100A6B6
 BYTE   FINE

//**************** Track 3 (Midi-Chn.2) ****************//

StageOneConquest_003:
// 000   ----------------------------------------
 BYTE   KEYSH   StageOneConquest_key+0
StageOneConquest_Label_2_0100A7DA:
 BYTE   VOICE   34
 BYTE   MODT 0
 BYTE   CnM2
 BYTE   LFOS 0
 BYTE   Gs1
 BYTE   PAN   c_v+0
 BYTE   VOL   30*StageOneConquest_mvl/mxv
 BYTE   N06  An0  v127
 BYTE   W12
 BYTE   N06
 BYTE   W06
 BYTE   N06
 BYTE   W06
 BYTE   N06
 BYTE   W12
 BYTE   N06
 BYTE   W06
 BYTE   N06
 BYTE   W06
 BYTE   N06
 BYTE   W12
 BYTE   N06
 BYTE   W06
 BYTE   N06
 BYTE   W06
 BYTE   N06
 BYTE   W06
 BYTE   N06
 BYTE   W06
 BYTE   Bn0
 BYTE   W06
 BYTE   Cn1
 BYTE   W06
// 001   ----------------------------------------
StageOneConquest_Label_2_0100A800:
 BYTE   N06  Dn1  v127
 BYTE   W12
 BYTE   N06
 BYTE   W06
 BYTE   N06
 BYTE   W06
 BYTE   N06
 BYTE   W12
 BYTE   N06
 BYTE   W06
 BYTE   N06
 BYTE   W06
 BYTE   N06
 BYTE   W12
 BYTE   N06
 BYTE   W06
 BYTE   N06
 BYTE   W06
 BYTE   N06
 BYTE   W06
 BYTE   N06
 BYTE   W06
 BYTE   Cn1
 BYTE   W06
 BYTE   Bn0
 BYTE   W06
 BYTE   PEND 
// 002   ----------------------------------------
 BYTE   An0
 BYTE   W12
 BYTE   N06
 BYTE   W06
 BYTE   N06
 BYTE   W06
 BYTE   N06
 BYTE   W12
 BYTE   N06
 BYTE   W06
 BYTE   N06
 BYTE   W06
 BYTE   N06
 BYTE   W12
 BYTE   N06
 BYTE   W06
 BYTE   N06
 BYTE   W06
 BYTE   N06
 BYTE   W06
 BYTE   N06
 BYTE   W06
 BYTE   Bn0
 BYTE   W06
 BYTE   Cn1
 BYTE   W06
 BYTE   PATT
  POIN2 StageOneConquest_Label_2_0100A800
// 003   ----------------------------------------
 BYTE   N06  An0  v127
 BYTE   W12
 BYTE   N06
 BYTE   W06
 BYTE   N06
 BYTE   W06
 BYTE   N06
 BYTE   W12
 BYTE   N06
 BYTE   W06
 BYTE   N06
 BYTE   W06
 BYTE   N06
 BYTE   W12
 BYTE   N06
 BYTE   W06
 BYTE   N06
 BYTE   W06
 BYTE   N06
 BYTE   W12
 BYTE   Bn0
 BYTE   W06
 BYTE   Cn1
 BYTE   W06
// 004   ----------------------------------------
 BYTE   Dn1
 BYTE   W12
 BYTE   N06
 BYTE   W06
 BYTE   N06
 BYTE   W06
 BYTE   N06
 BYTE   W12
 BYTE   En1
 BYTE   W12
 BYTE   N12  An0
 BYTE   W24
 BYTE   N06  Cn1
 BYTE   W12
 BYTE   Bn0
 BYTE   W12
// 005   ----------------------------------------
 BYTE   Cn1
 BYTE   W12
 BYTE   N06
 BYTE   W06
 BYTE   N06
 BYTE   W06
 BYTE   N06
 BYTE   W12
 BYTE   N06
 BYTE   W06
 BYTE   N06
 BYTE   W06
 BYTE   En1
 BYTE   W12
 BYTE   N06
 BYTE   W06
 BYTE   N06
 BYTE   W06
 BYTE   N06
 BYTE   W12
 BYTE   Bn0
 BYTE   W06
 BYTE   Cn1
 BYTE   W06
// 006   ----------------------------------------
 BYTE   Dn1
 BYTE   W12
 BYTE   N06
 BYTE   W06
 BYTE   N06
 BYTE   W06
 BYTE   N06
 BYTE   W12
 BYTE   En1
 BYTE   W06
 BYTE   N06
 BYTE   W06
 BYTE   An0
 BYTE   W12
 BYTE   N06
 BYTE   W06
 BYTE   N06
 BYTE   W06
 BYTE   N06
 BYTE   W12
 BYTE   N06
 BYTE   W06
 BYTE   N06
 BYTE   W06
// 007   ----------------------------------------
StageOneConquest_Label_2_0100A898:
 BYTE   N06  An0  v127
 BYTE   W12
 BYTE   N06
 BYTE   W06
 BYTE   N06
 BYTE   W06
 BYTE   N06
 BYTE   W12
 BYTE   N06
 BYTE   W06
 BYTE   N06
 BYTE   W06
 BYTE   N06
 BYTE   W12
 BYTE   N06
 BYTE   W06
 BYTE   N06
 BYTE   W06
 BYTE   N06
 BYTE   W12
 BYTE   N06
 BYTE   W06
 BYTE   N06
 BYTE   W06
 BYTE   PEND 
// 008   ----------------------------------------
StageOneConquest_Label_2_0100A8B3:
 BYTE   N06  An0  v127
 BYTE   W12
 BYTE   N06
 BYTE   W06
 BYTE   N06
 BYTE   W06
 BYTE   Gn0
 BYTE   W12
 BYTE   N06
 BYTE   W06
 BYTE   N06
 BYTE   W06
 BYTE   Cn1
 BYTE   W12
 BYTE   N06
 BYTE   W06
 BYTE   N06
 BYTE   W06
 BYTE   N06
 BYTE   W12
 BYTE   N06
 BYTE   W06
 BYTE   N06
 BYTE   W06
 BYTE   PEND 
// 009   ----------------------------------------
StageOneConquest_Label_2_0100A8CE:
 BYTE   N06  Cn1  v127
 BYTE   W12
 BYTE   N06
 BYTE   W06
 BYTE   N06
 BYTE   W06
 BYTE   N06
 BYTE   W12
 BYTE   N06
 BYTE   W06
 BYTE   N06
 BYTE   W06
 BYTE   En1
 BYTE   W12
 BYTE   N06
 BYTE   W06
 BYTE   N06
 BYTE   W06
 BYTE   N06
 BYTE   W12
 BYTE   N06
 BYTE   W06
 BYTE   N06
 BYTE   W06
 BYTE   PEND 
// 010   ----------------------------------------
StageOneConquest_Label_2_0100A8E9:
 BYTE   N06  En1  v127
 BYTE   W12
 BYTE   N06
 BYTE   W06
 BYTE   N06
 BYTE   W06
 BYTE   N06
 BYTE   W12
 BYTE   N06
 BYTE   W06
 BYTE   N06
 BYTE   W06
 BYTE   Fn1
 BYTE   W12
 BYTE   N06
 BYTE   W06
 BYTE   N06
 BYTE   W06
 BYTE   N06
 BYTE   W12
 BYTE   N06
 BYTE   W06
 BYTE   N06
 BYTE   W06
 BYTE   PEND 
// 011   ----------------------------------------
StageOneConquest_Label_2_0100A904:
 BYTE   N06  Fn1  v127
 BYTE   W12
 BYTE   N06
 BYTE   W06
 BYTE   N06
 BYTE   W06
 BYTE   N06
 BYTE   W12
 BYTE   N06
 BYTE   W06
 BYTE   N06
 BYTE   W06
 BYTE   Dn1
 BYTE   W12
 BYTE   N06
 BYTE   W06
 BYTE   N06
 BYTE   W06
 BYTE   N06
 BYTE   W12
 BYTE   N06
 BYTE   W06
 BYTE   N06
 BYTE   W06
 BYTE   PEND 
// 012   ----------------------------------------
StageOneConquest_Label_2_0100A91F:
 BYTE   N06  Dn1  v127
 BYTE   W12
 BYTE   N06
 BYTE   W06
 BYTE   N06
 BYTE   W06
 BYTE   N06
 BYTE   W12
 BYTE   N06
 BYTE   W06
 BYTE   N06
 BYTE   W06
 BYTE   N06
 BYTE   W12
 BYTE   N06
 BYTE   W06
 BYTE   N06
 BYTE   W06
 BYTE   N06
 BYTE   W12
 BYTE   N06
 BYTE   W06
 BYTE   N06
 BYTE   W06
 BYTE   PEND 
// 013   ----------------------------------------
StageOneConquest_Label_2_0100A93A:
 BYTE   N06  Dn1  v127
 BYTE   W12
 BYTE   N06
 BYTE   W06
 BYTE   N06
 BYTE   W06
 BYTE   N06
 BYTE   W12
 BYTE   N06
 BYTE   W06
 BYTE   N06
 BYTE   W06
 BYTE   En1
 BYTE   W12
 BYTE   N06
 BYTE   W06
 BYTE   N06
 BYTE   W06
 BYTE   N06
 BYTE   W12
 BYTE   N06
 BYTE   W06
 BYTE   N06
 BYTE   W06
 BYTE   PEND 
// 014   ----------------------------------------
StageOneConquest_Label_2_0100A955:
 BYTE   N06  En1  v127
 BYTE   W12
 BYTE   N06
 BYTE   W06
 BYTE   N06
 BYTE   W06
 BYTE   N06
 BYTE   W12
 BYTE   N06
 BYTE   W06
 BYTE   N06
 BYTE   W06
 BYTE   An0
 BYTE   W12
 BYTE   N06
 BYTE   W06
 BYTE   N06
 BYTE   W06
 BYTE   N06
 BYTE   W12
 BYTE   N06
 BYTE   W06
 BYTE   N06
 BYTE   W06
 BYTE   PEND 
 BYTE   PATT
  POIN2 StageOneConquest_Label_2_0100A898
 BYTE   PATT
  POIN2 StageOneConquest_Label_2_0100A8B3
 BYTE   PATT
  POIN2 StageOneConquest_Label_2_0100A8CE
 BYTE   PATT
  POIN2 StageOneConquest_Label_2_0100A8E9
 BYTE   PATT
  POIN2 StageOneConquest_Label_2_0100A904
 BYTE   PATT
  POIN2 StageOneConquest_Label_2_0100A91F
 BYTE   PATT
  POIN2 StageOneConquest_Label_2_0100A93A
 BYTE   PATT
  POIN2 StageOneConquest_Label_2_0100A955
 BYTE   PATT
  POIN2 StageOneConquest_Label_2_0100A898
// 015   ----------------------------------------
 BYTE   N06  An0  v127
 BYTE   W12
 BYTE   N06
 BYTE   W06
 BYTE   N06
 BYTE   W06
 BYTE   N06
 BYTE   W12
 BYTE   N06
 BYTE   W06
 BYTE   N06
 BYTE   W06
 BYTE   GoTo
  POIN2 StageOneConquest_Label_2_0100A7DA
 BYTE   FINE

//**************** Track 4 (Midi-Chn.3) ****************//

StageOneConquest_004:
// 000   ----------------------------------------
 BYTE   KEYSH   StageOneConquest_key+0
StageOneConquest_Label_3_0100A9C6:
 BYTE   VOICE   73
 BYTE   MODT 0
 BYTE   CnM2
 BYTE   LFOS 0
 BYTE   Gs1
 BYTE   PAN   c_v-64
 BYTE   VOL   19*StageOneConquest_mvl/mxv
 BYTE   W96
// 001   ----------------------------------------
 BYTE   W96
// 002   ----------------------------------------
 BYTE   W96
// 003   ----------------------------------------
 BYTE   W96
// 004   ----------------------------------------
StageOneConquest_Label_3_0100A9D4:
 BYTE   N12  En4  v127
 BYTE   W12
 BYTE   N06
 BYTE   W06
 BYTE   Gn4
 BYTE   W06
 BYTE   En4
 BYTE   W06
 BYTE   Dn4
 BYTE   W06
 BYTE   Cn4
 BYTE   W06
 BYTE   Dn4
 BYTE   W06
 BYTE   N12  En4
 BYTE   W12
 BYTE   N06
 BYTE   W06
 BYTE   Gn4
 BYTE   W06
 BYTE   An4
 BYTE   W06
 BYTE   En4
 BYTE   W06
 BYTE   Dn4
 BYTE   W06
 BYTE   Cn4
 BYTE   W06
 BYTE   PEND 
// 005   ----------------------------------------
 BYTE   N12  Dn4
 BYTE   W12
 BYTE   N06
 BYTE   W06
 BYTE   En4
 BYTE   W06
 BYTE   Dn4
 BYTE   W06
 BYTE   Bn3
 BYTE   W06
 BYTE   Gn3
 BYTE   W12
 BYTE   N18  An3
 BYTE   W24
 BYTE   N06  Cn4
 BYTE   W12
 BYTE   Dn4
 BYTE   W12
 BYTE   PATT
  POIN2 StageOneConquest_Label_3_0100A9D4
// 006   ----------------------------------------
 BYTE   N12  Dn4  v127
 BYTE   W12
 BYTE   N06
 BYTE   W06
 BYTE   En4
 BYTE   W06
 BYTE   Dn4
 BYTE   W06
 BYTE   Bn3
 BYTE   W06
 BYTE   Gn3
 BYTE   W12
 BYTE   N72  An3
 BYTE   W48
// 007   ----------------------------------------
 BYTE   W24
 BYTE   N02  Bn3
 BYTE   W02
 BYTE   N03  Cn4
 BYTE   W04
 BYTE   N02  Dn4
 BYTE   W02
 BYTE   N03  Ds4
 BYTE   W04
 BYTE   N02  Fn4
 BYTE   W02
 BYTE   N03  Fs4
 BYTE   W04
 BYTE   N02  Gn4
 BYTE   W02
 BYTE   N03  Gs4
 BYTE   W04
 BYTE   N48  An4
 BYTE   W48
// 008   ----------------------------------------
 BYTE   N12
 BYTE   W24
 BYTE   Gn4
 BYTE   W24
 BYTE   N36  En4
 BYTE   W36
 BYTE   N12  Dn4
 BYTE   W12
// 009   ----------------------------------------
StageOneConquest_Label_3_0100AA45:
 BYTE   N12  En4  v127
 BYTE   W12
 BYTE   Gn4
 BYTE   W12
 BYTE   En4
 BYTE   W12
 BYTE   Dn4
 BYTE   W12
 BYTE   N36  En4
 BYTE   W36
 BYTE   N12  Dn4
 BYTE   W12
 BYTE   PEND 
// 010   ----------------------------------------
StageOneConquest_Label_3_0100AA56:
 BYTE   N12  En4  v127
 BYTE   W12
 BYTE   Gn4
 BYTE   W12
 BYTE   An4
 BYTE   W12
 BYTE   Gn4
 BYTE   W12
 BYTE   N36  Fn4
 BYTE   W36
 BYTE   N12  En4
 BYTE   W12
 BYTE   PEND 
// 011   ----------------------------------------
StageOneConquest_Label_3_0100AA67:
 BYTE   N12  Fn4  v127
 BYTE   W12
 BYTE   En4
 BYTE   W12
 BYTE   Dn4
 BYTE   W12
 BYTE   Cn4
 BYTE   W12
 BYTE   N72  An3
 BYTE   W48
 BYTE   PEND 
// 012   ----------------------------------------
StageOneConquest_Label_3_0100AA75:
 BYTE   W24
 BYTE   N12  Bn3  v127
 BYTE   W24
 BYTE   N36  Cn4
 BYTE   W36
 BYTE   N12  Bn3
 BYTE   W12
 BYTE   PEND 
// 013   ----------------------------------------
StageOneConquest_Label_3_0100AA81:
 BYTE   N12  Cn4  v127
 BYTE   W12
 BYTE   Dn4
 BYTE   W12
 BYTE   Cn4
 BYTE   W12
 BYTE   Dn4
 BYTE   W12
 BYTE   N24  En4
 BYTE   W24
 BYTE   Dn4
 BYTE   W24
 BYTE   PEND 
// 014   ----------------------------------------
StageOneConquest_Label_3_0100AA91:
 BYTE   N24  Cn4  v127
 BYTE   W24
 BYTE   Bn3
 BYTE   W24
 BYTE   TIE  An3
 BYTE   W48
 BYTE   PEND 
// 015   ----------------------------------------
 BYTE   W96
// 016   ----------------------------------------
 BYTE   EOT
 BYTE   N12  Cn4
 BYTE   W24
 BYTE   Dn4
 BYTE   W24
 BYTE   N36  En4
 BYTE   W36
 BYTE   N12  Dn4
 BYTE   W12
 BYTE   PATT
  POIN2 StageOneConquest_Label_3_0100AA45
 BYTE   PATT
  POIN2 StageOneConquest_Label_3_0100AA56
 BYTE   PATT
  POIN2 StageOneConquest_Label_3_0100AA67
 BYTE   PATT
  POIN2 StageOneConquest_Label_3_0100AA75
 BYTE   PATT
  POIN2 StageOneConquest_Label_3_0100AA81
 BYTE   PATT
  POIN2 StageOneConquest_Label_3_0100AA91
// 017   ----------------------------------------
 BYTE   W96
// 018   ----------------------------------------
 BYTE   W48
 BYTE   EOT
 BYTE   An3
 BYTE   GoTo
  POIN2 StageOneConquest_Label_3_0100A9C6
 BYTE   FINE

//**************** Track 5 (Midi-Chn.4) ****************//

StageOneConquest_005:
// 000   ----------------------------------------
 BYTE   KEYSH   StageOneConquest_key+0
StageOneConquest_Label_4_0100AAE6:
 BYTE   VOICE   41
 BYTE   MODT 0
 BYTE   CnM2
 BYTE   LFOS 0
 BYTE   Gs1
 BYTE   PAN   c_v+63
 BYTE   VOL   17*StageOneConquest_mvl/mxv
 BYTE   W96
// 001   ----------------------------------------
 BYTE   W96
// 002   ----------------------------------------
 BYTE   W96
// 003   ----------------------------------------
 BYTE   W96
// 004   ----------------------------------------
StageOneConquest_Label_4_0100AAF4:
 BYTE   N12  En4  v127
 BYTE   W12
 BYTE   N06
 BYTE   W06
 BYTE   Gn4
 BYTE   W06
 BYTE   En4
 BYTE   W06
 BYTE   Dn4
 BYTE   W06
 BYTE   Cn4
 BYTE   W06
 BYTE   Dn4
 BYTE   W06
 BYTE   N12  En4
 BYTE   W12
 BYTE   N06
 BYTE   W06
 BYTE   Gn4
 BYTE   W06
 BYTE   An4
 BYTE   W06
 BYTE   En4
 BYTE   W06
 BYTE   Dn4
 BYTE   W06
 BYTE   Cn4
 BYTE   W06
 BYTE   PEND 
// 005   ----------------------------------------
 BYTE   N12  Dn4
 BYTE   W12
 BYTE   N06
 BYTE   W06
 BYTE   En4
 BYTE   W06
 BYTE   Dn4
 BYTE   W06
 BYTE   Bn3
 BYTE   W06
 BYTE   Gn3
 BYTE   W12
 BYTE   N18  An3
 BYTE   W24
 BYTE   N06  Cn4
 BYTE   W12
 BYTE   Dn4
 BYTE   W12
 BYTE   PATT
  POIN2 StageOneConquest_Label_4_0100AAF4
// 006   ----------------------------------------
 BYTE   N12  Dn4  v127
 BYTE   W12
 BYTE   N06
 BYTE   W06
 BYTE   En4
 BYTE   W06
 BYTE   Dn4
 BYTE   W06
 BYTE   Bn3
 BYTE   W06
 BYTE   Gn3
 BYTE   W12
 BYTE   N72  An3
 BYTE   W48
// 007   ----------------------------------------
 BYTE   W24
 BYTE   N02  Bn3
 BYTE   W02
 BYTE   N03  Cn4
 BYTE   W04
 BYTE   N02  Dn4
 BYTE   W02
 BYTE   N03  Ds4
 BYTE   W04
 BYTE   N02  Fn4
 BYTE   W02
 BYTE   N03  Fs4
 BYTE   W04
 BYTE   N02  Gn4
 BYTE   W02
 BYTE   N03  Gs4
 BYTE   W04
 BYTE   N48  An4
 BYTE   W48
// 008   ----------------------------------------
 BYTE   N12
 BYTE   W24
 BYTE   Gn4
 BYTE   W24
 BYTE   N36  En4
 BYTE   W36
 BYTE   N12  Dn4
 BYTE   W12
// 009   ----------------------------------------
StageOneConquest_Label_4_0100AB65:
 BYTE   N12  En4  v127
 BYTE   W12
 BYTE   Gn4
 BYTE   W12
 BYTE   En4
 BYTE   W12
 BYTE   Dn4
 BYTE   W12
 BYTE   N36  En4
 BYTE   W36
 BYTE   N12  Dn4
 BYTE   W12
 BYTE   PEND 
// 010   ----------------------------------------
StageOneConquest_Label_4_0100AB76:
 BYTE   N12  En4  v127
 BYTE   W12
 BYTE   Gn4
 BYTE   W12
 BYTE   An4
 BYTE   W12
 BYTE   Gn4
 BYTE   W12
 BYTE   N36  Fn4
 BYTE   W36
 BYTE   N12  En4
 BYTE   W12
 BYTE   PEND 
// 011   ----------------------------------------
StageOneConquest_Label_4_0100AB87:
 BYTE   N12  Fn4  v127
 BYTE   W12
 BYTE   En4
 BYTE   W12
 BYTE   Dn4
 BYTE   W12
 BYTE   Cn4
 BYTE   W12
 BYTE   N72  An3
 BYTE   W48
 BYTE   PEND 
// 012   ----------------------------------------
StageOneConquest_Label_4_0100AB95:
 BYTE   W24
 BYTE   N12  Bn3  v127
 BYTE   W24
 BYTE   N36  Cn4
 BYTE   W36
 BYTE   N12  Bn3
 BYTE   W12
 BYTE   PEND 
// 013   ----------------------------------------
StageOneConquest_Label_4_0100ABA1:
 BYTE   N12  Cn4  v127
 BYTE   W12
 BYTE   Dn4
 BYTE   W12
 BYTE   Cn4
 BYTE   W12
 BYTE   Dn4
 BYTE   W12
 BYTE   N24  En4
 BYTE   W24
 BYTE   Dn4
 BYTE   W24
 BYTE   PEND 
// 014   ----------------------------------------
StageOneConquest_Label_4_0100ABB1:
 BYTE   N24  Cn4  v127
 BYTE   W24
 BYTE   Bn3
 BYTE   W24
 BYTE   TIE  An3
 BYTE   W48
 BYTE   PEND 
// 015   ----------------------------------------
 BYTE   W96
// 016   ----------------------------------------
 BYTE   EOT
 BYTE   N12  Cn4
 BYTE   W24
 BYTE   Dn4
 BYTE   W24
 BYTE   N36  En4
 BYTE   W36
 BYTE   N12  Dn4
 BYTE   W12
 BYTE   PATT
  POIN2 StageOneConquest_Label_4_0100AB65
 BYTE   PATT
  POIN2 StageOneConquest_Label_4_0100AB76
 BYTE   PATT
  POIN2 StageOneConquest_Label_4_0100AB87
 BYTE   PATT
  POIN2 StageOneConquest_Label_4_0100AB95
 BYTE   PATT
  POIN2 StageOneConquest_Label_4_0100ABA1
 BYTE   PATT
  POIN2 StageOneConquest_Label_4_0100ABB1
// 017   ----------------------------------------
 BYTE   W96
// 018   ----------------------------------------
 BYTE   W48
 BYTE   EOT
 BYTE   An3
 BYTE   GoTo
  POIN2 StageOneConquest_Label_4_0100AAE6
 BYTE   FINE

//**************** Track 6 (Midi-Chn.5) ****************//

StageOneConquest_006:
// 000   ----------------------------------------
 BYTE   KEYSH   StageOneConquest_key+0
StageOneConquest_Label_5_0100AC06:
 BYTE   VOICE   51
 BYTE   MODT 0
 BYTE   CnM2
 BYTE   LFOS 0
 BYTE   Gs1
 BYTE   PAN   c_v+27
 BYTE   VOL   14*StageOneConquest_mvl/mxv
 BYTE   W96
// 001   ----------------------------------------
 BYTE   W96
// 002   ----------------------------------------
 BYTE   W96
// 003   ----------------------------------------
 BYTE   W96
// 004   ----------------------------------------
 BYTE   N96  An2  v127
 BYTE   N96  Cn3
 BYTE   N96  En3
 BYTE   W96
// 005   ----------------------------------------
 BYTE   N48  An2
 BYTE   N48  Dn3
 BYTE   N48  Fs3
 BYTE   W48
 BYTE   An2
 BYTE   N48  Cn3
 BYTE   N48  En3
 BYTE   W48
// 006   ----------------------------------------
 BYTE   N96  Gn2
 BYTE   N96  Cn3
 BYTE   N96  En3
 BYTE   W96
// 007   ----------------------------------------
 BYTE   N48  Gn2
 BYTE   N48  Bn2
 BYTE   N48  Dn3
 BYTE   W48
 BYTE   TIE  An2
 BYTE   TIE  En3
 BYTE   W48
// 008   ----------------------------------------
 BYTE   W48
 BYTE   N48  An3
 BYTE   W48
// 009   ----------------------------------------
 BYTE   EOT
 BYTE   An2  v064
StageOneConquest_Label_5_0100AC43:
 BYTE   W48
 BYTE   N96  Cn3  v127
 BYTE   N96  En3
 BYTE   N96  Gn3
 BYTE   W48
 BYTE   PEND 
// 010   ----------------------------------------
 BYTE   W48
 BYTE   En3
 BYTE   N96  Gn3
 BYTE   W48
// 011   ----------------------------------------
StageOneConquest_Label_5_0100AC52:
 BYTE   W48
 BYTE   N96  Fn3  v127
 BYTE   N96  An3
 BYTE   W48
 BYTE   PEND 
// 012   ----------------------------------------
StageOneConquest_Label_5_0100AC5A:
 BYTE   W48
 BYTE   N96  Dn3  v127
 BYTE   N96  Fs3
 BYTE   W48
 BYTE   PEND 
// 013   ----------------------------------------
StageOneConquest_Label_5_0100AC62:
 BYTE   W48
 BYTE   N96  Dn3  v127
 BYTE   N96  Fn3
 BYTE   W48
 BYTE   PEND 
// 014   ----------------------------------------
StageOneConquest_Label_5_0100AC6A:
 BYTE   W48
 BYTE   N96  Bn2  v127
 BYTE   N96  En3
 BYTE   N96  Gn3
 BYTE   W48
 BYTE   PEND 
// 015   ----------------------------------------
StageOneConquest_Label_5_0100AC74:
 BYTE   W48
 BYTE   TIE  Cn3  v127
 BYTE   TIE  En3
 BYTE   TIE  An3
 BYTE   W48
 BYTE   PEND 
// 016   ----------------------------------------
 BYTE   W96
// 017   ----------------------------------------
 BYTE   EOT
 BYTE   Cn3  v064
 BYTE   An3
 BYTE   PATT
  POIN2 StageOneConquest_Label_5_0100AC43
// 018   ----------------------------------------
 BYTE   W48
 BYTE   N96  En3  v127
 BYTE   N96  Gn3
 BYTE   W48
 BYTE   PATT
  POIN2 StageOneConquest_Label_5_0100AC52
 BYTE   PATT
  POIN2 StageOneConquest_Label_5_0100AC5A
 BYTE   PATT
  POIN2 StageOneConquest_Label_5_0100AC62
 BYTE   PATT
  POIN2 StageOneConquest_Label_5_0100AC6A
 BYTE   PATT
  POIN2 StageOneConquest_Label_5_0100AC74
// 019   ----------------------------------------
 BYTE   W96
// 020   ----------------------------------------
 BYTE   EOT
 BYTE   Cn3  v064
 BYTE   An3
 BYTE   W48
 BYTE   GoTo
  POIN2 StageOneConquest_Label_5_0100AC06
 BYTE   FINE

//**************** Track 7 (Midi-Chn.6) ****************//

StageOneConquest_007:
// 000   ----------------------------------------
 BYTE   KEYSH   StageOneConquest_key+0
StageOneConquest_Label_6_0100ACCA:
 BYTE   VOICE   121
 BYTE   MODT 0
 BYTE   CnM2
 BYTE   LFOS 0
 BYTE   Gs1
 BYTE   PAN   c_v-14
 BYTE   VOL   15*StageOneConquest_mvl/mxv
 BYTE   N06  Cn1  v127
 BYTE   W24
 BYTE   N06
 BYTE   W36
 BYTE   N06
 BYTE   W18
 BYTE   Gs1
 BYTE   W06
 BYTE   Cn1
 BYTE   N06  As1
 BYTE   W12
// 001   ----------------------------------------
StageOneConquest_Label_6_0100ACE2:
 BYTE   N06  Cn1  v127
 BYTE   W24
 BYTE   N06
 BYTE   W36
 BYTE   N06
 BYTE   W18
 BYTE   Gs1
 BYTE   W06
 BYTE   Cn1
 BYTE   N06  As1
 BYTE   W12
 BYTE   PEND 
 BYTE   PATT
  POIN2 StageOneConquest_Label_6_0100ACE2
// 002   ----------------------------------------
 BYTE   N06  Cn1  v127
 BYTE   W24
 BYTE   N06
 BYTE   W36
 BYTE   N06
 BYTE   W12
 BYTE   Dn1
 BYTE   N06  En1
 BYTE   W06
 BYTE   Gs1
 BYTE   W06
 BYTE   Cn1
 BYTE   N06  Dn1
 BYTE   N06  En1
 BYTE   N06  As1
 BYTE   W06
 BYTE   Dn1
 BYTE   N06  En1
 BYTE   W06
// 003   ----------------------------------------
 BYTE   Cn1
 BYTE   N06  Cs1
 BYTE   N06  Cs2
 BYTE   N06  Fs2
 BYTE   W06
 BYTE   Gs1
 BYTE   W06
 BYTE   As1
 BYTE   N06  Fs2
 BYTE   W06
 BYTE   Cn1
 BYTE   N06  Fs2
 BYTE   W06
 BYTE   Cs1
 BYTE   N06  Dn1
 BYTE   N06  En1
 BYTE   N06  Fs2
 BYTE   W06
 BYTE   N06
 BYTE   W06
 BYTE   Cn1
 BYTE   N06  Fs2
 BYTE   W06
 BYTE   N06
 BYTE   W06
 BYTE   Cn1
 BYTE   N06  Cs1
 BYTE   N06  Fs2
 BYTE   W06
 BYTE   As1
 BYTE   W06
 BYTE   Cn1
 BYTE   N06  Fs2
 BYTE   W06
 BYTE   N06
 BYTE   W06
 BYTE   Cs1
 BYTE   N06  Dn1
 BYTE   N06  En1
 BYTE   N06  Fs2
 BYTE   W06
 BYTE   Cs1
 BYTE   N06  Gs1
 BYTE   N06  Fs2
 BYTE   W06
 BYTE   Cs1
 BYTE   N06  Fs2
 BYTE   W06
 BYTE   Cs1
 BYTE   N06  Gs1
 BYTE   N06  Fs2
 BYTE   W06
// 004   ----------------------------------------
StageOneConquest_Label_6_0100AD58:
 BYTE   N06  Cn1  v127
 BYTE   N06  Cs1
 BYTE   N06  Fs2
 BYTE   W06
 BYTE   Gs1
 BYTE   W06
 BYTE   As1
 BYTE   N06  Fs2
 BYTE   W06
 BYTE   Cn1
 BYTE   N06  Fs2
 BYTE   W06
 BYTE   Cs1
 BYTE   N06  Dn1
 BYTE   N06  En1
 BYTE   N06  Fs2
 BYTE   W06
 BYTE   N06
 BYTE   W06
 BYTE   Cn1
 BYTE   N06  Fs2
 BYTE   W06
 BYTE   N06
 BYTE   W06
 BYTE   Cn1
 BYTE   N06  Cs1
 BYTE   N06  Fs2
 BYTE   W06
 BYTE   As1
 BYTE   W06
 BYTE   Cn1
 BYTE   N06  Fs2
 BYTE   W06
 BYTE   N06
 BYTE   W06
 BYTE   Cs1
 BYTE   N06  Dn1
 BYTE   N06  En1
 BYTE   N06  Fs2
 BYTE   W06
 BYTE   Cs1
 BYTE   N06  Gs1
 BYTE   N06  Fs2
 BYTE   W06
 BYTE   Cs1
 BYTE   N06  Fs2
 BYTE   W06
 BYTE   Cs1
 BYTE   N06  Gs1
 BYTE   N06  Fs2
 BYTE   W06
 BYTE   PEND 
 BYTE   PATT
  POIN2 StageOneConquest_Label_6_0100AD58
 BYTE   PATT
  POIN2 StageOneConquest_Label_6_0100AD58
 BYTE   PATT
  POIN2 StageOneConquest_Label_6_0100AD58
// 005   ----------------------------------------
StageOneConquest_Label_6_0100ADB0:
 BYTE   N06  Cn1  v127
 BYTE   N06  Cs1
 BYTE   N06  Dn1
 BYTE   N06  En1
 BYTE   W06
 BYTE   Gs1
 BYTE   W06
 BYTE   Dn1
 BYTE   N06  En1
 BYTE   N06  Gs1
 BYTE   W06
 BYTE   Dn1
 BYTE   N06  En1
 BYTE   W06
 BYTE   Cn1
 BYTE   N06  Cs1
 BYTE   N06  Dn1
 BYTE   N06  En1
 BYTE   N06  Cs2
 BYTE   W06
 BYTE   Gs1
 BYTE   W06
 BYTE   Dn1
 BYTE   N06  En1
 BYTE   N06  Gs1
 BYTE   W06
 BYTE   Dn1
 BYTE   N06  En1
 BYTE   W06
 BYTE   Cn1
 BYTE   N06  Cs1
 BYTE   N06  Cs2
 BYTE   N06  Fs2
 BYTE   W06
 BYTE   Gs1
 BYTE   W06
 BYTE   As1
 BYTE   N06  Fs2
 BYTE   W06
 BYTE   Cn1
 BYTE   N06  Fs2
 BYTE   W06
 BYTE   Cs1
 BYTE   N06  Dn1
 BYTE   N06  En1
 BYTE   N06  Fs2
 BYTE   W06
 BYTE   N06
 BYTE   W06
 BYTE   Cn1
 BYTE   N06  Fs2
 BYTE   W06
 BYTE   N06
 BYTE   W06
 BYTE   PEND 
// 006   ----------------------------------------
StageOneConquest_Label_6_0100ADFF:
 BYTE   N06  Cn1  v127
 BYTE   N06  Cs1
 BYTE   N06  Fs2
 BYTE   W06
 BYTE   As1
 BYTE   W06
 BYTE   Cn1
 BYTE   N06  Fs2
 BYTE   W06
 BYTE   N06
 BYTE   W06
 BYTE   Cs1
 BYTE   N06  Dn1
 BYTE   N06  En1
 BYTE   N06  Fs2
 BYTE   W06
 BYTE   Cs1
 BYTE   N06  Gs1
 BYTE   N06  Fs2
 BYTE   W06
 BYTE   Cs1
 BYTE   N06  Fs2
 BYTE   W06
 BYTE   Cs1
 BYTE   N06  Gs1
 BYTE   N06  Fs2
 BYTE   W06
 BYTE   Cn1
 BYTE   N06  Cs1
 BYTE   N06  Fs2
 BYTE   W06
 BYTE   Gs1
 BYTE   W06
 BYTE   As1
 BYTE   N06  Fs2
 BYTE   W06
 BYTE   Cn1
 BYTE   N06  Fs2
 BYTE   W06
 BYTE   Cs1
 BYTE   N06  Dn1
 BYTE   N06  En1
 BYTE   N06  Fs2
 BYTE   W06
 BYTE   N06
 BYTE   W06
 BYTE   Cn1
 BYTE   N06  Fs2
 BYTE   W06
 BYTE   N06
 BYTE   W06
 BYTE   PEND 
 BYTE   PATT
  POIN2 StageOneConquest_Label_6_0100ADFF
 BYTE   PATT
  POIN2 StageOneConquest_Label_6_0100ADFF
 BYTE   PATT
  POIN2 StageOneConquest_Label_6_0100ADFF
 BYTE   PATT
  POIN2 StageOneConquest_Label_6_0100ADFF
 BYTE   PATT
  POIN2 StageOneConquest_Label_6_0100ADFF
 BYTE   PATT
  POIN2 StageOneConquest_Label_6_0100ADFF
 BYTE   PATT
  POIN2 StageOneConquest_Label_6_0100ADB0
 BYTE   PATT
  POIN2 StageOneConquest_Label_6_0100ADFF
 BYTE   PATT
  POIN2 StageOneConquest_Label_6_0100ADFF
 BYTE   PATT
  POIN2 StageOneConquest_Label_6_0100ADFF
 BYTE   PATT
  POIN2 StageOneConquest_Label_6_0100ADFF
 BYTE   PATT
  POIN2 StageOneConquest_Label_6_0100ADFF
 BYTE   PATT
  POIN2 StageOneConquest_Label_6_0100ADFF
 BYTE   PATT
  POIN2 StageOneConquest_Label_6_0100ADFF
// 007   ----------------------------------------
 BYTE   N06  Cn1  v127
 BYTE   N06  Cs1
 BYTE   N06  Fs2
 BYTE   W06
 BYTE   As1
 BYTE   W06
 BYTE   Cn1
 BYTE   N06  Dn1
 BYTE   N06  En1
 BYTE   N06  Fs2
 BYTE   W06
 BYTE   N06
 BYTE   W06
 BYTE   Cs1
 BYTE   N06  Dn1
 BYTE   N06  En1
 BYTE   N06  Fs2
 BYTE   W06
 BYTE   Cs1
 BYTE   N06  Gs1
 BYTE   N06  Fs2
 BYTE   W06
 BYTE   Cs1
 BYTE   N06  Dn1
 BYTE   N06  En1
 BYTE   N06  Fs2
 BYTE   W06
 BYTE   Cs1
 BYTE   N06  Dn1
 BYTE   N06  En1
 BYTE   N06  Gs1
 BYTE   N06  Fs2
 BYTE   W06
 BYTE   GoTo
  POIN2 StageOneConquest_Label_6_0100ACCA
 BYTE   FINE

//******************************************************//
	ALIGN 4

songStageOneConquest:
	BYTE	7	// NumTrks
	BYTE	0	// NumBlks
	BYTE	StageOneConquest_pri	// Priority
	BYTE	StageOneConquest_rev	// Reverb.
    
	POIN2	StageOneConquest_grp
    
	POIN2	StageOneConquest_001
	POIN2	StageOneConquest_002
	POIN2	StageOneConquest_003
	POIN2	StageOneConquest_004
	POIN2	StageOneConquest_005
	POIN2	StageOneConquest_006
	POIN2	StageOneConquest_007

	
