//Event file generated from Sappy .s format.
	#include "MPlayDef.event"

	#define	twofirstcampaigntest_grp  voicegroup000
	#define	twofirstcampaigntest_pri  0
	#define	twofirstcampaigntest_rev  0
	#define	twofirstcampaigntest_mvl  124
	#define	twofirstcampaigntest_key  0
	#define	twofirstcampaigntest_tbs  1
	#define	twofirstcampaigntest_exg  0
	#define	twofirstcampaigntest_cmp  1

	// .rodata
	//	twofirstcampaigntest
	ALIGN 4

//**************** Track 1 (Midi-Chn.1) ****************//

twofirstcampaigntest_1:
	BYTE	KEYSH   twofirstcampaigntest_key+0
// 000   ----------------------------------------
	BYTE	TEMPO   170*twofirstcampaigntest_tbs/2
	BYTE		VOICE   104
	BYTE		MODT    0
	BYTE		LFOS    44
	BYTE		VOL     65*twofirstcampaigntest_mvl/mxv
	BYTE		PAN     c_v+0
	BYTE		N12     An3   v076
	BYTE	W12
	BYTE		N24     Cn3   v052
	BYTE	W12
	BYTE		N16     En3   v056
	BYTE	W12
	BYTE		N24     Bn3   v068
	BYTE	W24
	BYTE		N12     Cn3   v036
	BYTE	W12
	BYTE		N15     En3   v068
	BYTE	W12
	BYTE		N14     Gn3   v044
	BYTE	W12
// 001   ----------------------------------------
	BYTE		N11     An3   v056
	BYTE		N11     Cn4 
	BYTE	W12
	BYTE		N13     Dn3   v052
	BYTE		N11     Bn3   v056
	BYTE	W12
	BYTE		N12     En3   v076
	BYTE		N11     Cn4   v056
	BYTE	W12
	BYTE		N23     Bn3   v096
	BYTE		N23     Dn4   v056
	BYTE	W24
	BYTE		N11     Dn3   v052
	BYTE		N11     Bn3   v056
	BYTE	W12
	BYTE		        En3 
	BYTE		N11     Cn4 
	BYTE	W12
	BYTE		        Gn3   v052
	BYTE		N11     Dn4   v056
	BYTE	W12
// 002   ----------------------------------------
	BYTE		        An3   v068
	BYTE		N11     En4   v056
	BYTE	W12
	BYTE		N16     Cn3   v052
	BYTE		N11     An3   v056
	BYTE	W12
	BYTE		N15     En3   v044
	BYTE		N11     Cn4   v056
	BYTE	W12
	BYTE		N24     Bn3   v088
	BYTE		N23     Gn4   v056
	BYTE	W24
	BYTE		N14     Cn3   v052
	BYTE		N11     Fn4   v056
	BYTE	W12
	BYTE		        En3 
	BYTE		N11     Cn4 
	BYTE	W12
	BYTE		N12     An3   v036
	BYTE		N11     Fn4   v056
	BYTE	W12
// 003   ----------------------------------------
	BYTE		N06     Dn3   v084
	BYTE		N06     Gn3 
	BYTE		N05     En4   v056
	BYTE	W12
	BYTE		N07     Dn3   v072
	BYTE		N07     Gn3 
	BYTE		N05     En4   v056
	BYTE	W24
	BYTE		N06     Dn3   v004
	BYTE		N06     Gn3 
	BYTE		N06     En4 
	BYTE	W56
	BYTE	W03
	BYTE		MOD     1
	BYTE	W01
twofirstcampaigntest_1_B1:
// 004   ----------------------------------------
twofirstcampaigntest_1_004:
	BYTE		N36     Cn3   v076
	BYTE		N36     En3 
	BYTE	W48
	BYTE		N11     Cn3 
	BYTE		N11     En3 
	BYTE	W12
	BYTE		N10     Bn2 
	BYTE		N10     Dn3 
	BYTE	W12
	BYTE		N07     Cn3 
	BYTE		N07     En3 
	BYTE	W12
	BYTE		N24     An2 
	BYTE		N24     Cn3 
	BYTE	W12
	BYTE	PEND
// 005   ----------------------------------------
twofirstcampaigntest_1_005:
	BYTE	W24
	BYTE		N20     Fn3   v076
	BYTE		N20     An3 
	BYTE	W24
	BYTE		        En3 
	BYTE		N20     Gn3 
	BYTE	W24
	BYTE		        Dn3 
	BYTE		N20     Fn3 
	BYTE	W24
	BYTE	PEND
// 006   ----------------------------------------
twofirstcampaigntest_1_006:
	BYTE		N36     Cn3   v076
	BYTE		N36     En3 
	BYTE	W48
	BYTE		N11     Cn3 
	BYTE		N11     En3 
	BYTE	W12
	BYTE		N10     Bn2 
	BYTE		N10     Dn3 
	BYTE	W12
	BYTE		N07     An2 
	BYTE		N07     Cn3 
	BYTE	W12
	BYTE		N60     Bn2 
	BYTE		N60     Dn3 
	BYTE	W12
	BYTE	PEND
// 007   ----------------------------------------
twofirstcampaigntest_1_007:
	BYTE	W60
	BYTE		N08     An2   v076
	BYTE		N08     Cn3 
	BYTE	W12
	BYTE		        Bn2 
	BYTE		N08     Dn3 
	BYTE	W12
	BYTE		N48     Cn3 
	BYTE		N48     En3 
	BYTE	W12
	BYTE	PEND
// 008   ----------------------------------------
twofirstcampaigntest_1_008:
	BYTE	W48
	BYTE		N11     Cn3   v076
	BYTE		N11     En3 
	BYTE	W12
	BYTE		N10     Bn2 
	BYTE		N10     Dn3 
	BYTE	W12
	BYTE		N07     Cn3 
	BYTE		N07     En3 
	BYTE	W12
	BYTE		N24     An2 
	BYTE		N24     Cn3 
	BYTE	W12
	BYTE	PEND
// 009   ----------------------------------------
twofirstcampaigntest_1_009:
	BYTE	W24
	BYTE		N20     An3   v076
	BYTE		N20     Cn4 
	BYTE	W24
	BYTE		        Gn3 
	BYTE		N20     Bn3 
	BYTE	W24
	BYTE		        Fn3 
	BYTE		N20     An3 
	BYTE	W24
	BYTE	PEND
// 010   ----------------------------------------
twofirstcampaigntest_1_010:
	BYTE		N32     Gn3   v076
	BYTE		N32     Bn3 
	BYTE	W48
	BYTE		N10     Gn3 
	BYTE		N10     Bn3 
	BYTE	W12
	BYTE		        En3 
	BYTE		N10     Gn3 
	BYTE	W12
	BYTE		N07   
	BYTE		N07     Bn3 
	BYTE	W12
	BYTE		N80     Fn3 
	BYTE		N80     An3 
	BYTE	W12
	BYTE	PEND
// 011   ----------------------------------------
	BYTE	W96
// 012   ----------------------------------------
	BYTE	PATT
	 POIN2	twofirstcampaigntest_1_004
// 013   ----------------------------------------
twofirstcampaigntest_1_013:
	BYTE	W24
	BYTE		N21     Fn3   v076
	BYTE		N21     An3 
	BYTE	W24
	BYTE		        En3 
	BYTE		N21     Gn3 
	BYTE	W24
	BYTE		        Dn3 
	BYTE		N21     Fn3 
	BYTE	W24
	BYTE	PEND
// 014   ----------------------------------------
twofirstcampaigntest_1_014:
	BYTE		N36     Cn3   v076
	BYTE		N36     En3 
	BYTE	W48
	BYTE		N11     Cn3 
	BYTE		N11     En3 
	BYTE	W12
	BYTE		N09     Bn2 
	BYTE		N09     Dn3 
	BYTE	W12
	BYTE		N07     An2 
	BYTE		N07     Cn3 
	BYTE	W12
	BYTE		N60     Bn2 
	BYTE		N60     Dn3 
	BYTE	W12
	BYTE	PEND
// 015   ----------------------------------------
twofirstcampaigntest_1_015:
	BYTE	W60
	BYTE		N11     An2   v076
	BYTE		N11     Cn3 
	BYTE	W12
	BYTE		        Bn2 
	BYTE		N11     Dn3 
	BYTE	W12
	BYTE		N48     Cn3 
	BYTE		N48     En3 
	BYTE	W12
	BYTE	PEND
// 016   ----------------------------------------
	BYTE	PATT
	 POIN2	twofirstcampaigntest_1_008
// 017   ----------------------------------------
twofirstcampaigntest_1_017:
	BYTE	W24
	BYTE		N21     An3   v076
	BYTE		N21     Cn4 
	BYTE	W24
	BYTE		        Gn3 
	BYTE		N21     Bn3 
	BYTE	W24
	BYTE		        Fn3 
	BYTE		N21     An3 
	BYTE	W24
	BYTE	PEND
// 018   ----------------------------------------
twofirstcampaigntest_1_018:
	BYTE		N36     Gn3   v076
	BYTE		N36     Bn3 
	BYTE	W48
	BYTE		N09     Gn3 
	BYTE		N09     Bn3 
	BYTE	W12
	BYTE		        En3 
	BYTE		N09     Gn3 
	BYTE	W12
	BYTE		N07   
	BYTE		N07     Bn3 
	BYTE	W12
	BYTE		N32     Dn3 
	BYTE		N92     An3 
	BYTE	W12
	BYTE	PEND
// 019   ----------------------------------------
	BYTE	W36
	BYTE		N44     Cs3 
	BYTE	W60
// 020   ----------------------------------------
twofirstcampaigntest_1_020:
	BYTE		N09     An3   v096
	BYTE	W12
	BYTE		N07     An3   v076
	BYTE	W24
	BYTE		N05   
	BYTE	W24
	BYTE		N05   
	BYTE	W24
	BYTE		N05   
	BYTE	W12
	BYTE	PEND
// 021   ----------------------------------------
twofirstcampaigntest_1_021:
	BYTE	W12
	BYTE		N05     An3   v004
	BYTE	W12
	BYTE		N56     As3   v088
	BYTE	W72
	BYTE	PEND
// 022   ----------------------------------------
twofirstcampaigntest_1_022:
	BYTE		N09     An3   v092
	BYTE	W12
	BYTE		N07     An3   v076
	BYTE	W24
	BYTE		N05   
	BYTE	W24
	BYTE		N05   
	BYTE	W24
	BYTE		N05   
	BYTE	W12
	BYTE	PEND
// 023   ----------------------------------------
twofirstcampaigntest_1_023:
	BYTE	W12
	BYTE		N05     An3   v004
	BYTE	W12
	BYTE		N56     Cn4   v092
	BYTE	W72
	BYTE	PEND
// 024   ----------------------------------------
	BYTE	PATT
	 POIN2	twofirstcampaigntest_1_022
// 025   ----------------------------------------
	BYTE	PATT
	 POIN2	twofirstcampaigntest_1_021
// 026   ----------------------------------------
	BYTE	PATT
	 POIN2	twofirstcampaigntest_1_022
// 027   ----------------------------------------
	BYTE	W12
	BYTE		N05     An3   v004
	BYTE	W12
	BYTE		TIE     Cn4   v092
	BYTE	W72
// 028   ----------------------------------------
	BYTE	W68
	BYTE	W03
	BYTE		EOT   
	BYTE	W24
	BYTE	W01
// 029   ----------------------------------------
	BYTE	PATT
	 POIN2	twofirstcampaigntest_1_004
// 030   ----------------------------------------
	BYTE	PATT
	 POIN2	twofirstcampaigntest_1_005
// 031   ----------------------------------------
	BYTE	PATT
	 POIN2	twofirstcampaigntest_1_006
// 032   ----------------------------------------
	BYTE	PATT
	 POIN2	twofirstcampaigntest_1_007
// 033   ----------------------------------------
	BYTE	PATT
	 POIN2	twofirstcampaigntest_1_008
// 034   ----------------------------------------
	BYTE	PATT
	 POIN2	twofirstcampaigntest_1_009
// 035   ----------------------------------------
	BYTE	PATT
	 POIN2	twofirstcampaigntest_1_010
// 036   ----------------------------------------
	BYTE	W96
// 037   ----------------------------------------
	BYTE	PATT
	 POIN2	twofirstcampaigntest_1_004
// 038   ----------------------------------------
	BYTE	PATT
	 POIN2	twofirstcampaigntest_1_013
// 039   ----------------------------------------
	BYTE	PATT
	 POIN2	twofirstcampaigntest_1_014
// 040   ----------------------------------------
	BYTE	PATT
	 POIN2	twofirstcampaigntest_1_015
// 041   ----------------------------------------
	BYTE	PATT
	 POIN2	twofirstcampaigntest_1_008
// 042   ----------------------------------------
	BYTE	PATT
	 POIN2	twofirstcampaigntest_1_017
// 043   ----------------------------------------
	BYTE	PATT
	 POIN2	twofirstcampaigntest_1_018
// 044   ----------------------------------------
	BYTE	W36
	BYTE		N44     Cs3   v076
	BYTE	W60
// 045   ----------------------------------------
	BYTE	PATT
	 POIN2	twofirstcampaigntest_1_020
// 046   ----------------------------------------
	BYTE	PATT
	 POIN2	twofirstcampaigntest_1_021
// 047   ----------------------------------------
	BYTE	PATT
	 POIN2	twofirstcampaigntest_1_022
// 048   ----------------------------------------
	BYTE	PATT
	 POIN2	twofirstcampaigntest_1_023
// 049   ----------------------------------------
	BYTE	PATT
	 POIN2	twofirstcampaigntest_1_022
// 050   ----------------------------------------
	BYTE	PATT
	 POIN2	twofirstcampaigntest_1_021
// 051   ----------------------------------------
	BYTE	PATT
	 POIN2	twofirstcampaigntest_1_022
// 052   ----------------------------------------
	BYTE	W12
	BYTE		N05     An3   v004
	BYTE	W12
	BYTE		N64     Cn4   v092
	BYTE	W72
// 053   ----------------------------------------
twofirstcampaigntest_1_053:
	BYTE		N36     Bn2   v076
	BYTE		N36     En3 
	BYTE		N36     Gs3 
	BYTE	W48
	BYTE		N08     Bn2 
	BYTE		N08     En3 
	BYTE		N08     Gs3 
	BYTE	W12
	BYTE		        Bn2 
	BYTE		N08     En3 
	BYTE		N08     Fs3 
	BYTE	W12
	BYTE		N05     Bn2 
	BYTE		N05     En3 
	BYTE		N05     Gs3 
	BYTE	W12
	BYTE		TIE     Bn2 
	BYTE		N28     En3 
	BYTE	W12
	BYTE	PEND
// 054   ----------------------------------------
	BYTE	W24
	BYTE		N23     Gs3 
	BYTE		N23     Bn3 
	BYTE	W24
	BYTE		        Fs3 
	BYTE		N23     An3 
	BYTE	W24
	BYTE		N20     Gs3 
	BYTE		N20     Bn3 
	BYTE	W17
	BYTE		EOT     Bn2 
	BYTE	W07
// 055   ----------------------------------------
	BYTE	PATT
	 POIN2	twofirstcampaigntest_1_053
// 056   ----------------------------------------
	BYTE	W24
	BYTE		N23     Gs3   v076
	BYTE		N23     Bn3 
	BYTE	W24
	BYTE		        Fs3 
	BYTE		N23     An3 
	BYTE	W24
	BYTE		N20     En3 
	BYTE		N20     Gs3 
	BYTE	W17
	BYTE		EOT     Bn2 
	BYTE	W07
// 057   ----------------------------------------
	BYTE		N36   
	BYTE		N36     En3 
	BYTE		N36     An3 
	BYTE	W48
	BYTE		N08     Bn2 
	BYTE		N08     En3 
	BYTE		N08     An3 
	BYTE	W12
	BYTE		        Bn2 
	BYTE		N08     En3 
	BYTE		N08     Gn3 
	BYTE	W12
	BYTE		N05     Bn2 
	BYTE		N05     En3 
	BYTE		N05     An3 
	BYTE	W12
	BYTE		TIE     En3 
	BYTE		N56     An3 
	BYTE		N32     Dn4 
	BYTE	W12
// 058   ----------------------------------------
	BYTE	W24
	BYTE		N23     Cn4 
	BYTE	W24
	BYTE		        Bn3 
	BYTE	W24
	BYTE		N20     An3 
	BYTE	W20
	BYTE		EOT     En3 
	BYTE	W04
// 059   ----------------------------------------
	BYTE		N08     Fs3 
	BYTE		N08     Bn3 
	BYTE		N08     En4 
	BYTE	W12
	BYTE		N05     Fs3 
	BYTE		N05     Bn3 
	BYTE		N05     En4 
	BYTE	W24
	BYTE		        Fs3 
	BYTE		N05     Bn3 
	BYTE		N05     En4 
	BYTE	W24
	BYTE		        Fs3 
	BYTE		N05     Bn3 
	BYTE		N05     En4 
	BYTE	W24
	BYTE		N17     Fs3 
	BYTE		N17     Bn3 
	BYTE		N17     En4 
	BYTE	W12
// 060   ----------------------------------------
	BYTE	W36
	BYTE		N48     Fs3 
	BYTE		N48     An3 
	BYTE		N48     En4 
	BYTE	W60
// 061   ----------------------------------------
	BYTE	PATT
	 POIN2	twofirstcampaigntest_1_053
// 062   ----------------------------------------
	BYTE	W24
	BYTE		N23     Gs3   v076
	BYTE		N23     Bn3 
	BYTE	W24
	BYTE		        Fs3 
	BYTE		N23     An3 
	BYTE	W24
	BYTE		N20     Gs3 
	BYTE		N20     Bn3 
	BYTE	W20
	BYTE		EOT     Bn2 
	BYTE	W04
// 063   ----------------------------------------
	BYTE	PATT
	 POIN2	twofirstcampaigntest_1_053
// 064   ----------------------------------------
	BYTE	W24
	BYTE		N23     Gs3   v076
	BYTE		N23     Bn3 
	BYTE	W24
	BYTE		        Fs3 
	BYTE		N23     An3 
	BYTE	W24
	BYTE		N20     En3 
	BYTE		N20     Gs3 
	BYTE	W20
	BYTE		EOT     Bn2 
	BYTE	W04
// 065   ----------------------------------------
	BYTE		N40   
	BYTE		N40     En3 
	BYTE		N40     An3 
	BYTE	W48
	BYTE		N08     Bn2 
	BYTE		N08     En3 
	BYTE		N08     An3 
	BYTE	W12
	BYTE		        Bn2 
	BYTE		N08     En3 
	BYTE		N08     Gn3 
	BYTE	W12
	BYTE		N05     Bn2 
	BYTE		N05     En3 
	BYTE		N05     An3 
	BYTE	W12
	BYTE		N20     En3 
	BYTE		N20     An3 
	BYTE		N20     Dn4 
	BYTE	W12
// 066   ----------------------------------------
	BYTE	W12
	BYTE		N05     En3 
	BYTE		N05     An3 
	BYTE		N05     Cn4 
	BYTE	W12
	BYTE		        En3 
	BYTE		N05     An3 
	BYTE		N05     Dn4 
	BYTE	W12
	BYTE		N17     An3 
	BYTE		N17     Dn4 
	BYTE		N17     Gn4 
	BYTE	W24
	BYTE		N05     An3 
	BYTE		N05     Dn4 
	BYTE		N05     Fn4 
	BYTE	W12
	BYTE		        An3 
	BYTE		N05     Dn4 
	BYTE		N05     Gn4 
	BYTE	W12
	BYTE		N17     Bn3 
	BYTE		N17     En4 
	BYTE		N17     An4 
	BYTE	W12
// 067   ----------------------------------------
	BYTE	W12
	BYTE		N05     Bn3 
	BYTE		N05     En4 
	BYTE		N05     An4 
	BYTE	W12
	BYTE		        Bn3 
	BYTE		N05     En4 
	BYTE		N05     An4 
	BYTE	W12
	BYTE		        Bn3 
	BYTE		N05     En4 
	BYTE		N05     An4 
	BYTE	W24
	BYTE		        Bn3 
	BYTE		N05     En4 
	BYTE		N05     An4 
	BYTE	W24
	BYTE		        Fn3 
	BYTE		N05     Dn4 
	BYTE		N05     An4 
	BYTE	W12
// 068   ----------------------------------------
	BYTE	W24
	BYTE		N52     Dn4 
	BYTE		N52     Gn4 
	BYTE		N52     Cn5 
	BYTE	W72
	BYTE	GoTo
	 POIN2	twofirstcampaigntest_1_B1
twofirstcampaigntest_1_B2:
// 069   ----------------------------------------
	BYTE	FINE

//**************** Track 2 (Midi-Chn.2) ****************//

twofirstcampaigntest_2:
	BYTE	KEYSH   twofirstcampaigntest_key+0
// 000   ----------------------------------------
	BYTE		VOICE   40
	BYTE		PAN     c_v+32
	BYTE		VOL     40*twofirstcampaigntest_mvl/mxv
	BYTE		BEND    c_v+0
	BYTE		N05     Bn3   v064
	BYTE		N05     En4 
	BYTE	W12
	BYTE		        Bn3   v044
	BYTE		N05     En4 
	BYTE	W12
	BYTE		        Bn3 
	BYTE		N04     En4   v032
	BYTE	W12
	BYTE		N05     Bn3   v108
	BYTE		N05     En4   v076
	BYTE	W12
	BYTE		        Bn3   v056
	BYTE		N05     En4   v016
	BYTE	W12
	BYTE		        Bn3   v032
	BYTE		N05     En4   v036
	BYTE	W12
	BYTE		        Bn3   v044
	BYTE		N04     En4   v016
	BYTE	W12
	BYTE		N05     Bn3   v068
	BYTE		N03     En4   v056
	BYTE	W12
// 001   ----------------------------------------
	BYTE		N04     An3   v096
	BYTE		N05     Dn4   v056
	BYTE	W12
	BYTE		        An3   v044
	BYTE		N05     Dn4   v032
	BYTE	W12
	BYTE		        An3   v044
	BYTE		N04     Dn4   v016
	BYTE	W12
	BYTE		N05     An3   v096
	BYTE		N06     Dn4   v076
	BYTE	W12
	BYTE		        An3   v016
	BYTE		N06     Dn4   v032
	BYTE	W12
	BYTE		N05     An3   v036
	BYTE		N04     Dn4   v004
	BYTE	W12
	BYTE		N05     An3   v068
	BYTE		N05     Dn4   v024
	BYTE	W12
	BYTE		        An3 
	BYTE		N03     Dn4   v004
	BYTE	W12
// 002   ----------------------------------------
	BYTE		N04     Gn3   v044
	BYTE		N05     Cn4 
	BYTE	W12
	BYTE		        Gn3   v016
	BYTE		N03     Cn4   v032
	BYTE	W12
	BYTE		N04     Gn3   v016
	BYTE		N03     Cn4   v004
	BYTE	W12
	BYTE		N05     Gn3   v076
	BYTE		N05     Cn4   v032
	BYTE	W12
	BYTE		        Gn3   v012
	BYTE		N05     Cn4   v056
	BYTE	W12
	BYTE		        Gn3   v012
	BYTE		N04     Cn4 
	BYTE	W12
	BYTE		N05     Gn3   v024
	BYTE		N04     Cn4   v012
	BYTE	W12
	BYTE		        Gn3   v004
	BYTE		N03     Cn4 
	BYTE	W12
// 003   ----------------------------------------
	BYTE		N05     Gn3   v076
	BYTE		N04     Dn4 
	BYTE	W12
	BYTE		        Gn3   v064
	BYTE		N04     Dn4 
	BYTE	W84
twofirstcampaigntest_2_B1:
// 004   ----------------------------------------
	BYTE	W96
// 005   ----------------------------------------
	BYTE	W96
// 006   ----------------------------------------
	BYTE	W96
// 007   ----------------------------------------
	BYTE	W96
// 008   ----------------------------------------
	BYTE	W96
// 009   ----------------------------------------
	BYTE	W96
// 010   ----------------------------------------
	BYTE	W96
// 011   ----------------------------------------
	BYTE		VOL     30*twofirstcampaigntest_mvl/mxv
	BYTE	W68
	BYTE	W03
	BYTE		PAN     c_v+32
	BYTE	W01
	BYTE		VOICE   41
	BYTE		N10     An3   v112
	BYTE	W06
	BYTE		N11     Bn3 
	BYTE	W06
	BYTE		        Cn4 
	BYTE	W06
	BYTE		N07     Dn4 
	BYTE	W06
// 012   ----------------------------------------
	BYTE		N40     En4 
	BYTE	W12
	BYTE		MOD     0
	BYTE	W36
	BYTE		N11   
	BYTE	W12
	BYTE		N07     Dn4 
	BYTE	W12
	BYTE		N04     En4 
	BYTE	W12
	BYTE		N30     Cn4 
	BYTE	W12
// 013   ----------------------------------------
twofirstcampaigntest_2_013:
	BYTE	W24
	BYTE		N24     An4   v112
	BYTE	W24
	BYTE		        Gn4 
	BYTE	W24
	BYTE		        Fn4 
	BYTE	W24
	BYTE	PEND
// 014   ----------------------------------------
twofirstcampaigntest_2_014:
	BYTE		N42     En4   v112
	BYTE	W48
	BYTE		N11   
	BYTE	W12
	BYTE		N07     Dn4 
	BYTE	W12
	BYTE		N04     Cn4 
	BYTE	W12
	BYTE		N64     Dn4 
	BYTE	W12
	BYTE	PEND
// 015   ----------------------------------------
twofirstcampaigntest_2_015:
	BYTE	W60
	BYTE		N13     Cn4   v112
	BYTE	W12
	BYTE		N06     Dn4 
	BYTE	W12
	BYTE		N52     En4 
	BYTE	W12
	BYTE	PEND
// 016   ----------------------------------------
twofirstcampaigntest_2_016:
	BYTE	W48
	BYTE		N13     En4   v112
	BYTE	W12
	BYTE		N07     Dn4 
	BYTE	W12
	BYTE		N04     En4 
	BYTE	W12
	BYTE		N24     Cn4 
	BYTE	W12
	BYTE	PEND
// 017   ----------------------------------------
twofirstcampaigntest_2_017:
	BYTE	W24
	BYTE		N24     Cn5   v112
	BYTE	W24
	BYTE		        Bn4 
	BYTE	W24
	BYTE		N23     An4 
	BYTE	W24
	BYTE	PEND
// 018   ----------------------------------------
twofirstcampaigntest_2_018:
	BYTE		N42     Bn4   v112
	BYTE	W48
	BYTE		N09   
	BYTE	W12
	BYTE		N07     Gn4 
	BYTE	W12
	BYTE		N04     Bn4 
	BYTE	W12
	BYTE		N96     An4 
	BYTE	W12
	BYTE	PEND
// 019   ----------------------------------------
	BYTE	W96
// 020   ----------------------------------------
	BYTE		VOICE   40
	BYTE		VOL     56*twofirstcampaigntest_mvl/mxv
	BYTE		N09     Dn3   v080
	BYTE		N09     En3 
	BYTE	W12
	BYTE		N07     Dn3   v060
	BYTE		N07     En3 
	BYTE	W24
	BYTE		N05     Dn3 
	BYTE		N05     En3 
	BYTE	W24
	BYTE		        Dn3 
	BYTE		N05     En3 
	BYTE	W24
	BYTE		        Dn3 
	BYTE		N05     En3 
	BYTE	W12
// 021   ----------------------------------------
twofirstcampaigntest_2_021:
	BYTE	W12
	BYTE		N05     Dn3   v004
	BYTE		N05     En3 
	BYTE	W12
	BYTE		N56     Ds3   v072
	BYTE		N56     Gn3 
	BYTE	W17
	BYTE		MOD     2
	BYTE	W12
	BYTE		        4
	BYTE	W12
	BYTE		        6
	BYTE	W30
	BYTE		        0
	BYTE	W01
	BYTE	PEND
// 022   ----------------------------------------
	BYTE		N09     Dn3   v080
	BYTE		N09     En3 
	BYTE	W12
	BYTE		N07     Dn3   v060
	BYTE		N07     En3 
	BYTE	W24
	BYTE		N05     Dn3 
	BYTE		N05     En3 
	BYTE	W24
	BYTE		        Dn3 
	BYTE		N05     En3 
	BYTE	W24
	BYTE		        Dn3 
	BYTE		N05     En3 
	BYTE	W12
// 023   ----------------------------------------
twofirstcampaigntest_2_023:
	BYTE	W12
	BYTE		N05     Dn3   v004
	BYTE		N05     En3 
	BYTE	W12
	BYTE		N56     Ds3   v076
	BYTE		N56     Gn3 
	BYTE	W17
	BYTE		MOD     2
	BYTE	W12
	BYTE		        4
	BYTE	W12
	BYTE		        6
	BYTE	W30
	BYTE		        0
	BYTE	W01
	BYTE	PEND
// 024   ----------------------------------------
twofirstcampaigntest_2_024:
	BYTE		N09     Dn3   v076
	BYTE		N09     En3 
	BYTE	W12
	BYTE		N07     Dn3   v060
	BYTE		N07     En3 
	BYTE	W24
	BYTE		N05     Dn3 
	BYTE		N05     En3 
	BYTE	W24
	BYTE		        Dn3 
	BYTE		N05     En3 
	BYTE	W24
	BYTE		        Dn3 
	BYTE		N05     En3 
	BYTE	W12
	BYTE	PEND
// 025   ----------------------------------------
	BYTE	PATT
	 POIN2	twofirstcampaigntest_2_023
// 026   ----------------------------------------
	BYTE	PATT
	 POIN2	twofirstcampaigntest_2_024
// 027   ----------------------------------------
	BYTE	W12
	BYTE		N05     Dn3   v004
	BYTE		N05     En3 
	BYTE	W12
	BYTE		TIE     Ds3   v068
	BYTE		TIE     Gn3 
	BYTE	W44
	BYTE	W03
	BYTE		MOD     2
	BYTE	W24
	BYTE		        4
	BYTE	W01
// 028   ----------------------------------------
	BYTE	W23
	BYTE		        6
	BYTE	W12
	BYTE		        8
	BYTE	W36
	BYTE		EOT     Ds3 
	BYTE		        Gn3 
	BYTE	W19
	BYTE		VOL     30*twofirstcampaigntest_mvl/mxv
	BYTE	W06
// 029   ----------------------------------------
	BYTE	W96
// 030   ----------------------------------------
	BYTE	W96
// 031   ----------------------------------------
	BYTE	W96
// 032   ----------------------------------------
	BYTE	W96
// 033   ----------------------------------------
	BYTE	W96
// 034   ----------------------------------------
	BYTE	W96
// 035   ----------------------------------------
	BYTE	W96
// 036   ----------------------------------------
	BYTE	W68
	BYTE	W03
	BYTE		MOD     0
	BYTE	W01
	BYTE		VOICE   41
	BYTE		N10     An3   v112
	BYTE	W06
	BYTE		N11     Bn3 
	BYTE	W06
	BYTE		        Cn4 
	BYTE	W06
	BYTE		N07     Dn4 
	BYTE	W06
// 037   ----------------------------------------
	BYTE		N40     En4 
	BYTE	W48
	BYTE		N11   
	BYTE	W12
	BYTE		N07     Dn4 
	BYTE	W12
	BYTE		N04     En4 
	BYTE	W12
	BYTE		N30     Cn4 
	BYTE	W12
// 038   ----------------------------------------
	BYTE	PATT
	 POIN2	twofirstcampaigntest_2_013
// 039   ----------------------------------------
	BYTE	PATT
	 POIN2	twofirstcampaigntest_2_014
// 040   ----------------------------------------
	BYTE	PATT
	 POIN2	twofirstcampaigntest_2_015
// 041   ----------------------------------------
	BYTE	PATT
	 POIN2	twofirstcampaigntest_2_016
// 042   ----------------------------------------
	BYTE	PATT
	 POIN2	twofirstcampaigntest_2_017
// 043   ----------------------------------------
	BYTE	PATT
	 POIN2	twofirstcampaigntest_2_018
// 044   ----------------------------------------
	BYTE	W96
// 045   ----------------------------------------
	BYTE		VOICE   40
	BYTE		VOL     56*twofirstcampaigntest_mvl/mxv
	BYTE		N09     Dn3   v092
	BYTE		N09     En3 
	BYTE	W12
	BYTE		N07     Dn3   v072
	BYTE		N07     En3 
	BYTE	W24
	BYTE		N05     Dn3 
	BYTE		N05     En3 
	BYTE	W24
	BYTE		        Dn3 
	BYTE		N05     En3 
	BYTE	W24
	BYTE		        Dn3 
	BYTE		N05     En3 
	BYTE	W12
// 046   ----------------------------------------
	BYTE	PATT
	 POIN2	twofirstcampaigntest_2_021
// 047   ----------------------------------------
	BYTE		N09     Dn3   v092
	BYTE		N09     En3 
	BYTE	W12
	BYTE		N07     Dn3   v072
	BYTE		N07     En3 
	BYTE	W24
	BYTE		N05     Dn3 
	BYTE		N05     En3 
	BYTE	W24
	BYTE		        Dn3 
	BYTE		N05     En3 
	BYTE	W24
	BYTE		        Dn3 
	BYTE		N05     En3 
	BYTE	W12
// 048   ----------------------------------------
	BYTE	PATT
	 POIN2	twofirstcampaigntest_2_023
// 049   ----------------------------------------
twofirstcampaigntest_2_049:
	BYTE		N09     Dn3   v088
	BYTE		N09     En3 
	BYTE	W12
	BYTE		N07     Dn3   v072
	BYTE		N07     En3 
	BYTE	W24
	BYTE		N05     Dn3 
	BYTE		N05     En3 
	BYTE	W24
	BYTE		        Dn3 
	BYTE		N05     En3 
	BYTE	W24
	BYTE		        Dn3 
	BYTE		N05     En3 
	BYTE	W12
	BYTE	PEND
// 050   ----------------------------------------
	BYTE	W12
	BYTE		        Dn3   v004
	BYTE		N05     En3 
	BYTE	W12
	BYTE		N56     Ds3   v076
	BYTE		N56     Gn3 
	BYTE	W17
	BYTE		MOD     2
	BYTE	W12
	BYTE		        4
	BYTE	W12
	BYTE		        6
	BYTE	W30
	BYTE	W01
// 051   ----------------------------------------
	BYTE	PATT
	 POIN2	twofirstcampaigntest_2_049
// 052   ----------------------------------------
	BYTE	W12
	BYTE		N05     Dn3   v004
	BYTE		N05     En3 
	BYTE	W12
	BYTE		N44     Ds3   v080
	BYTE		N44     Gn3 
	BYTE	W17
	BYTE		MOD     2
	BYTE	W12
	BYTE		        4
	BYTE	W12
	BYTE		        6
	BYTE	W06
	BYTE		        0
	BYTE	W01
	BYTE		VOICE   41
	BYTE		VOL     30*twofirstcampaigntest_mvl/mxv
	BYTE		N09     Cn4   v072
	BYTE	W06
	BYTE		N11     Dn4   v076
	BYTE	W06
	BYTE		N08     En4 
	BYTE	W06
	BYTE		N06     Fs4   v108
	BYTE	W06
// 053   ----------------------------------------
	BYTE		TIE     Gs4   v112
	BYTE	W96
// 054   ----------------------------------------
	BYTE	W05
	BYTE		EOT   
	BYTE	W07
	BYTE		N05     Bn3   v104
	BYTE	W12
	BYTE		        En4   v108
	BYTE	W12
	BYTE		N20     An4   v104
	BYTE	W24
	BYTE		N28     Gs4 
	BYTE	W36
// 055   ----------------------------------------
	BYTE		TIE     Gs4   v100
	BYTE	W96
// 056   ----------------------------------------
	BYTE	W05
	BYTE		EOT   
	BYTE	W07
	BYTE		N05     Bn3   v104
	BYTE	W12
	BYTE		        En4 
	BYTE	W12
	BYTE		N20     An4   v108
	BYTE	W24
	BYTE		N28     Gs4   v112
	BYTE	W36
// 057   ----------------------------------------
	BYTE		N36     An4   v104
	BYTE	W48
	BYTE		N08   
	BYTE	W12
	BYTE		        En4 
	BYTE	W12
	BYTE		        Bn3 
	BYTE	W12
	BYTE		N28     An4 
	BYTE	W12
// 058   ----------------------------------------
	BYTE	W24
	BYTE		N17     Gn4   v127
	BYTE	W24
	BYTE		N23     Dn5   v104
	BYTE	W24
	BYTE		N22     Cn5   v092
	BYTE	W24
// 059   ----------------------------------------
	BYTE		N11     Bn4   v116
	BYTE	W12
	BYTE		        Fs4 
	BYTE	W12
	BYTE		N05     Bn3 
	BYTE	W12
	BYTE		N14     Bn4 
	BYTE	W24
	BYTE		N05     Fs4 
	BYTE	W12
	BYTE		        Bn3 
	BYTE	W12
	BYTE		N20     Bn4 
	BYTE	W12
// 060   ----------------------------------------
	BYTE	W12
	BYTE		N05     Fs4 
	BYTE	W12
	BYTE		        Bn3 
	BYTE	W12
	BYTE		N20     An4 
	BYTE	W24
	BYTE		N08     Fs4 
	BYTE	W12
	BYTE		N05     Bn3 
	BYTE	W12
	BYTE		N08     An4 
	BYTE	W12
// 061   ----------------------------------------
	BYTE		TIE     Gs4   v112
	BYTE	W96
// 062   ----------------------------------------
	BYTE	W02
	BYTE		EOT   
	BYTE	W10
	BYTE		N11     Bn3   v104
	BYTE	W12
	BYTE		        En4   v108
	BYTE	W12
	BYTE		N23     An4   v104
	BYTE	W24
	BYTE		N28     Gs4 
	BYTE	W36
// 063   ----------------------------------------
	BYTE		TIE     Gs4   v100
	BYTE	W96
// 064   ----------------------------------------
	BYTE	W02
	BYTE		EOT   
	BYTE	W10
	BYTE		N11     Bn3   v104
	BYTE	W12
	BYTE		        En4 
	BYTE	W12
	BYTE		N23     An4   v108
	BYTE	W24
	BYTE		N28     Gs4   v112
	BYTE	W36
// 065   ----------------------------------------
	BYTE		N40     An4   v104
	BYTE	W48
	BYTE		N05     An4   v108
	BYTE	W12
	BYTE		        En4   v104
	BYTE	W12
	BYTE		        Bn3 
	BYTE	W12
	BYTE		N32     An4 
	BYTE	W12
// 066   ----------------------------------------
	BYTE	W24
	BYTE		N08     Gn4   v112
	BYTE	W12
	BYTE		N28     Cn5   v092
	BYTE	W36
	BYTE		N08     Dn5   v080
	BYTE	W12
	BYTE		N17     Bn4   v124
	BYTE	W12
// 067   ----------------------------------------
	BYTE	W12
	BYTE		N05     Bn4   v116
	BYTE	W12
	BYTE		N07     Bn4   v100
	BYTE	W12
	BYTE		N05     Bn4   v104
	BYTE	W24
	BYTE		N06     Bn4   v100
	BYTE	W24
	BYTE		N09     An4   v104
	BYTE	W12
// 068   ----------------------------------------
	BYTE	W23
	BYTE		PAN     c_v+48
	BYTE	W01
	BYTE		VOICE   80
	BYTE		N05     Gn4 
	BYTE	W05
	BYTE		PAN     c_v+40
	BYTE	W01
	BYTE		N05     Fn4   v100
	BYTE	W05
	BYTE		PAN     c_v+32
	BYTE	W01
	BYTE		N05     En4   v096
	BYTE	W05
	BYTE		PAN     c_v+24
	BYTE	W01
	BYTE		N05     Dn4   v092
	BYTE	W05
	BYTE		PAN     c_v+16
	BYTE	W01
	BYTE		N05     Cn4   v088
	BYTE	W05
	BYTE		PAN     c_v+8
	BYTE	W01
	BYTE		N05     Bn3 
	BYTE	W05
	BYTE		PAN     c_v+0
	BYTE	W01
	BYTE		N05     Gn3 
	BYTE	W05
	BYTE		PAN     c_v-8
	BYTE	W01
	BYTE		N05     En3 
	BYTE	W05
	BYTE		PAN     c_v-16
	BYTE	W01
	BYTE		N05     Dn3   v084
	BYTE	W05
	BYTE		PAN     c_v-24
	BYTE	W01
	BYTE		N05     Cn3 
	BYTE	W05
	BYTE		PAN     c_v-32
	BYTE	W01
	BYTE		N05     Bn2 
	BYTE	W05
	BYTE		PAN     c_v-40
	BYTE	W01
	BYTE		N05     Gn2 
	BYTE	W06
	BYTE	GoTo
	 POIN2	twofirstcampaigntest_2_B1
twofirstcampaigntest_2_B2:
// 069   ----------------------------------------
	BYTE	FINE

//**************** Track 3 (Midi-Chn.3) ****************//

twofirstcampaigntest_3:
	BYTE	KEYSH   twofirstcampaigntest_key+0
// 000   ----------------------------------------
	BYTE		VOICE   2
	BYTE		VOL     32*twofirstcampaigntest_mvl/mxv
	BYTE		MODT    0
	BYTE		LFOS    44
	BYTE		PAN     c_v-32
	BYTE		N15     An1   v116
	BYTE	W12
	BYTE		N06     An0 
	BYTE	W12
	BYTE		N13   
	BYTE	W12
	BYTE		N24     An1 
	BYTE	W24
	BYTE		N10     An0 
	BYTE	W12
	BYTE		N13     An1 
	BYTE	W12
	BYTE		N06     An0 
	BYTE	W12
// 001   ----------------------------------------
	BYTE		N14     Gn1 
	BYTE	W12
	BYTE		N06     Gn0 
	BYTE	W12
	BYTE		N07   
	BYTE	W12
	BYTE		N24     Gn1 
	BYTE	W24
	BYTE		N08     Gn0 
	BYTE	W12
	BYTE		N12     Gn1 
	BYTE	W12
	BYTE		N07     Gn0 
	BYTE	W12
// 002   ----------------------------------------
	BYTE		N13     Fn1 
	BYTE	W12
	BYTE		N05     Fn0 
	BYTE	W12
	BYTE		N07   
	BYTE	W12
	BYTE		N24     Fn1 
	BYTE	W24
	BYTE		N10     Fn0 
	BYTE	W12
	BYTE		        Fn1 
	BYTE	W12
	BYTE		N13     Fn0 
	BYTE	W12
// 003   ----------------------------------------
	BYTE		N14     Gn1 
	BYTE	W12
	BYTE		N07     Gn0 
	BYTE	W84
twofirstcampaigntest_3_B1:
// 004   ----------------------------------------
twofirstcampaigntest_3_004:
	BYTE		N10     An0   v116
	BYTE	W12
	BYTE		N10   
	BYTE	W12
	BYTE		N10   
	BYTE	W12
	BYTE		N10   
	BYTE	W12
	BYTE		N10   
	BYTE	W12
	BYTE		N10   
	BYTE	W12
	BYTE		N10   
	BYTE	W12
	BYTE		N21     Fn0 
	BYTE	W12
	BYTE	PEND
// 005   ----------------------------------------
twofirstcampaigntest_3_005:
	BYTE	W12
	BYTE		N09     Fn0   v116
	BYTE	W12
	BYTE		N09   
	BYTE	W12
	BYTE		N09   
	BYTE	W12
	BYTE		N09   
	BYTE	W12
	BYTE		N12     Fn1 
	BYTE	W12
	BYTE		N23     Fn0 
	BYTE	W24
	BYTE	PEND
// 006   ----------------------------------------
twofirstcampaigntest_3_006:
	BYTE		N10     Cn1   v116
	BYTE	W12
	BYTE		N10   
	BYTE	W12
	BYTE		N10   
	BYTE	W12
	BYTE		N10   
	BYTE	W12
	BYTE		N10   
	BYTE	W12
	BYTE		N10   
	BYTE	W12
	BYTE		N10   
	BYTE	W12
	BYTE		N22     Gn0 
	BYTE	W12
	BYTE	PEND
// 007   ----------------------------------------
twofirstcampaigntest_3_007:
	BYTE	W12
	BYTE		N10     Gn0   v116
	BYTE	W12
	BYTE		N10   
	BYTE	W12
	BYTE		N10   
	BYTE	W12
	BYTE		N11   
	BYTE	W12
	BYTE		        Gn1 
	BYTE	W12
	BYTE		        Gn0 
	BYTE	W12
	BYTE		N22     An0 
	BYTE	W12
	BYTE	PEND
// 008   ----------------------------------------
twofirstcampaigntest_3_008:
	BYTE	W12
	BYTE		N09     An1   v116
	BYTE	W12
	BYTE		N10     An0 
	BYTE	W12
	BYTE		N10   
	BYTE	W12
	BYTE		N10   
	BYTE	W12
	BYTE		N10   
	BYTE	W12
	BYTE		N10   
	BYTE	W12
	BYTE		N22     Fn0 
	BYTE	W12
	BYTE	PEND
// 009   ----------------------------------------
twofirstcampaigntest_3_009:
	BYTE	W12
	BYTE		N10     Fn0   v116
	BYTE	W12
	BYTE		N10   
	BYTE	W12
	BYTE		N10   
	BYTE	W12
	BYTE		N10   
	BYTE	W12
	BYTE		        Fn1 
	BYTE	W12
	BYTE		N22     Fn0 
	BYTE	W24
	BYTE	PEND
// 010   ----------------------------------------
twofirstcampaigntest_3_010:
	BYTE		N10     En0   v116
	BYTE	W12
	BYTE		N10   
	BYTE	W12
	BYTE		N10   
	BYTE	W12
	BYTE		N10   
	BYTE	W12
	BYTE		N10   
	BYTE	W12
	BYTE		        En1 
	BYTE	W12
	BYTE		        En0 
	BYTE	W12
	BYTE		N22     Fn0 
	BYTE	W12
	BYTE	PEND
// 011   ----------------------------------------
twofirstcampaigntest_3_011:
	BYTE	W12
	BYTE		N10     Fn0   v116
	BYTE	W12
	BYTE		N10   
	BYTE	W12
	BYTE		        Fn1 
	BYTE	W12
	BYTE		        Fn0 
	BYTE	W12
	BYTE		        Fn1 
	BYTE	W12
	BYTE		N22     Fn0 
	BYTE	W24
	BYTE	PEND
// 012   ----------------------------------------
	BYTE	PATT
	 POIN2	twofirstcampaigntest_3_004
// 013   ----------------------------------------
	BYTE	PATT
	 POIN2	twofirstcampaigntest_3_005
// 014   ----------------------------------------
	BYTE	PATT
	 POIN2	twofirstcampaigntest_3_006
// 015   ----------------------------------------
	BYTE	PATT
	 POIN2	twofirstcampaigntest_3_007
// 016   ----------------------------------------
	BYTE	PATT
	 POIN2	twofirstcampaigntest_3_008
// 017   ----------------------------------------
	BYTE	PATT
	 POIN2	twofirstcampaigntest_3_009
// 018   ----------------------------------------
twofirstcampaigntest_3_018:
	BYTE		N10     En0   v116
	BYTE	W12
	BYTE		N10   
	BYTE	W12
	BYTE		N10   
	BYTE	W12
	BYTE		N10   
	BYTE	W12
	BYTE		N10   
	BYTE	W12
	BYTE		        En1 
	BYTE	W12
	BYTE		        En0 
	BYTE	W12
	BYTE		N22     An0 
	BYTE	W12
	BYTE	PEND
// 019   ----------------------------------------
twofirstcampaigntest_3_019:
	BYTE	W12
	BYTE		N10     An0   v116
	BYTE	W12
	BYTE		N10   
	BYTE	W12
	BYTE		N10   
	BYTE	W12
	BYTE		N10   
	BYTE	W12
	BYTE		        An1 
	BYTE	W12
	BYTE		        An0 
	BYTE	W12
	BYTE		N10   
	BYTE	W12
	BYTE	PEND
// 020   ----------------------------------------
twofirstcampaigntest_3_020:
	BYTE		N05     Dn1   v116
	BYTE	W12
	BYTE		N05   
	BYTE	W12
	BYTE		N05   
	BYTE	W12
	BYTE		N05   
	BYTE	W12
	BYTE		N05   
	BYTE	W12
	BYTE		N05   
	BYTE	W12
	BYTE		N05   
	BYTE	W12
	BYTE		N05   
	BYTE	W12
	BYTE	PEND
// 021   ----------------------------------------
twofirstcampaigntest_3_021:
	BYTE		N05     Dn1   v116
	BYTE	W24
	BYTE		N28     Cn1 
	BYTE	W36
	BYTE		N05     Cn2 
	BYTE	W12
	BYTE		        Cn1 
	BYTE	W12
	BYTE		        Cn2 
	BYTE	W12
	BYTE	PEND
// 022   ----------------------------------------
	BYTE	PATT
	 POIN2	twofirstcampaigntest_3_020
// 023   ----------------------------------------
twofirstcampaigntest_3_023:
	BYTE		N05     Dn1   v116
	BYTE	W24
	BYTE		N28     Gs0 
	BYTE	W36
	BYTE		N05     Gs1 
	BYTE	W12
	BYTE		        Gs0 
	BYTE	W12
	BYTE		        Gs1 
	BYTE	W12
	BYTE	PEND
// 024   ----------------------------------------
	BYTE	PATT
	 POIN2	twofirstcampaigntest_3_020
// 025   ----------------------------------------
	BYTE	PATT
	 POIN2	twofirstcampaigntest_3_021
// 026   ----------------------------------------
	BYTE	PATT
	 POIN2	twofirstcampaigntest_3_020
// 027   ----------------------------------------
	BYTE		N05     Dn1   v116
	BYTE	W24
	BYTE		N32     Gs0 
	BYTE	W36
	BYTE		N23   
	BYTE	W24
	BYTE		N23   
	BYTE	W12
// 028   ----------------------------------------
	BYTE	W12
	BYTE		N23   
	BYTE	W24
	BYTE		N23   
	BYTE	W24
	BYTE		N05   
	BYTE	W12
	BYTE		N23   
	BYTE	W24
// 029   ----------------------------------------
	BYTE	PATT
	 POIN2	twofirstcampaigntest_3_004
// 030   ----------------------------------------
	BYTE	PATT
	 POIN2	twofirstcampaigntest_3_005
// 031   ----------------------------------------
	BYTE	PATT
	 POIN2	twofirstcampaigntest_3_006
// 032   ----------------------------------------
	BYTE	PATT
	 POIN2	twofirstcampaigntest_3_007
// 033   ----------------------------------------
	BYTE	PATT
	 POIN2	twofirstcampaigntest_3_008
// 034   ----------------------------------------
	BYTE	PATT
	 POIN2	twofirstcampaigntest_3_009
// 035   ----------------------------------------
	BYTE	PATT
	 POIN2	twofirstcampaigntest_3_010
// 036   ----------------------------------------
	BYTE	PATT
	 POIN2	twofirstcampaigntest_3_011
// 037   ----------------------------------------
	BYTE	PATT
	 POIN2	twofirstcampaigntest_3_004
// 038   ----------------------------------------
	BYTE	PATT
	 POIN2	twofirstcampaigntest_3_005
// 039   ----------------------------------------
	BYTE	PATT
	 POIN2	twofirstcampaigntest_3_006
// 040   ----------------------------------------
	BYTE	PATT
	 POIN2	twofirstcampaigntest_3_007
// 041   ----------------------------------------
	BYTE	PATT
	 POIN2	twofirstcampaigntest_3_008
// 042   ----------------------------------------
	BYTE	PATT
	 POIN2	twofirstcampaigntest_3_009
// 043   ----------------------------------------
	BYTE	PATT
	 POIN2	twofirstcampaigntest_3_018
// 044   ----------------------------------------
	BYTE	PATT
	 POIN2	twofirstcampaigntest_3_019
// 045   ----------------------------------------
	BYTE	PATT
	 POIN2	twofirstcampaigntest_3_020
// 046   ----------------------------------------
	BYTE	PATT
	 POIN2	twofirstcampaigntest_3_021
// 047   ----------------------------------------
	BYTE	PATT
	 POIN2	twofirstcampaigntest_3_020
// 048   ----------------------------------------
	BYTE	PATT
	 POIN2	twofirstcampaigntest_3_023
// 049   ----------------------------------------
	BYTE	PATT
	 POIN2	twofirstcampaigntest_3_020
// 050   ----------------------------------------
	BYTE	PATT
	 POIN2	twofirstcampaigntest_3_021
// 051   ----------------------------------------
	BYTE	PATT
	 POIN2	twofirstcampaigntest_3_020
// 052   ----------------------------------------
	BYTE		N05     Dn1   v116
	BYTE	W24
	BYTE		N28     Fs0 
	BYTE	W36
	BYTE		N05     Gs1 
	BYTE	W12
	BYTE		        Fs0 
	BYTE	W12
	BYTE		        Gs1 
	BYTE	W12
// 053   ----------------------------------------
twofirstcampaigntest_3_053:
	BYTE		N05     Dn1   v116
	BYTE	W12
	BYTE		N05   
	BYTE	W12
	BYTE		        Dn2 
	BYTE	W12
	BYTE		        Dn1 
	BYTE	W12
	BYTE		N05   
	BYTE	W12
	BYTE		N05   
	BYTE	W12
	BYTE		        Dn2 
	BYTE	W12
	BYTE		        Dn1 
	BYTE	W12
	BYTE	PEND
// 054   ----------------------------------------
	BYTE	PATT
	 POIN2	twofirstcampaigntest_3_053
// 055   ----------------------------------------
twofirstcampaigntest_3_055:
	BYTE		N05     Cs1   v116
	BYTE	W12
	BYTE		N05   
	BYTE	W12
	BYTE		        Cs2 
	BYTE	W12
	BYTE		        Cs1 
	BYTE	W12
	BYTE		N05   
	BYTE	W12
	BYTE		N05   
	BYTE	W12
	BYTE		        Cs2 
	BYTE	W12
	BYTE		        Cs1 
	BYTE	W12
	BYTE	PEND
// 056   ----------------------------------------
	BYTE	PATT
	 POIN2	twofirstcampaigntest_3_055
// 057   ----------------------------------------
twofirstcampaigntest_3_057:
	BYTE		N05     Cn1   v116
	BYTE	W12
	BYTE		N05   
	BYTE	W12
	BYTE		        Cn2 
	BYTE	W12
	BYTE		        Cn1 
	BYTE	W12
	BYTE		N05   
	BYTE	W12
	BYTE		        Cn2 
	BYTE	W12
	BYTE		        Cn1 
	BYTE	W12
	BYTE		N23     Fn1 
	BYTE	W12
	BYTE	PEND
// 058   ----------------------------------------
	BYTE	W12
	BYTE		N05   
	BYTE	W12
	BYTE		        Fn2 
	BYTE	W12
	BYTE		        Fn1 
	BYTE	W12
	BYTE		N05   
	BYTE	W12
	BYTE		        Fn2 
	BYTE	W12
	BYTE		        Fn1 
	BYTE	W12
	BYTE		        Fn2 
	BYTE	W12
// 059   ----------------------------------------
	BYTE		        Fs1 
	BYTE	W12
	BYTE		N05   
	BYTE	W12
	BYTE		        Fs2 
	BYTE	W12
	BYTE		        Fs1 
	BYTE	W12
	BYTE		N05   
	BYTE	W12
	BYTE		N05   
	BYTE	W12
	BYTE		        Fs2 
	BYTE	W12
	BYTE		        Fs1 
	BYTE	W12
// 060   ----------------------------------------
	BYTE		        Bn0 
	BYTE	W12
	BYTE		N05   
	BYTE	W12
	BYTE		        Bn1 
	BYTE	W12
	BYTE		        Bn0 
	BYTE	W12
	BYTE		N05   
	BYTE	W12
	BYTE		N05   
	BYTE	W12
	BYTE		        Bn1 
	BYTE	W12
	BYTE		        Bn0 
	BYTE	W12
// 061   ----------------------------------------
	BYTE	PATT
	 POIN2	twofirstcampaigntest_3_053
// 062   ----------------------------------------
	BYTE	PATT
	 POIN2	twofirstcampaigntest_3_053
// 063   ----------------------------------------
	BYTE	PATT
	 POIN2	twofirstcampaigntest_3_055
// 064   ----------------------------------------
	BYTE	PATT
	 POIN2	twofirstcampaigntest_3_055
// 065   ----------------------------------------
	BYTE	PATT
	 POIN2	twofirstcampaigntest_3_057
// 066   ----------------------------------------
	BYTE	W12
	BYTE		N05     Fn1   v116
	BYTE	W12
	BYTE		        Fn2 
	BYTE	W12
	BYTE		N17     As0 
	BYTE	W24
	BYTE		N05     As1 
	BYTE	W12
	BYTE		        As0 
	BYTE	W12
	BYTE		N23     Bn0 
	BYTE	W12
// 067   ----------------------------------------
	BYTE	W12
	BYTE		N05     Bn1 
	BYTE	W12
	BYTE		        Bn0 
	BYTE	W12
	BYTE		N23     Fn0 
	BYTE	W24
	BYTE		N05     Fn1 
	BYTE	W12
	BYTE		        Fn0 
	BYTE	W12
	BYTE		        Fn1 
	BYTE	W12
// 068   ----------------------------------------
	BYTE		        As0 
	BYTE	W12
	BYTE		        As1 
	BYTE	W12
	BYTE		N23     En1 
	BYTE	W24
	BYTE		N05   
	BYTE	W12
	BYTE		        En2 
	BYTE	W12
	BYTE		        En1 
	BYTE	W12
	BYTE		        En2 
	BYTE	W12
	BYTE	GoTo
	 POIN2	twofirstcampaigntest_3_B1
twofirstcampaigntest_3_B2:
// 069   ----------------------------------------
	BYTE	FINE

//**************** Track 4 (Midi-Chn.4) ****************//

twofirstcampaigntest_4:
	BYTE	KEYSH   twofirstcampaigntest_key+0
// 000   ----------------------------------------
	BYTE		VOICE   4
	BYTE		VOL     48*twofirstcampaigntest_mvl/mxv
	BYTE		PAN     c_v+20
	BYTE		MODT    0
	BYTE		LFOS    44
	BYTE		N11     An3   v032
	BYTE	W12
	BYTE		        En3   v052
	BYTE	W12
	BYTE		        An2 
	BYTE	W12
	BYTE		N23     An2   v072
	BYTE	W24
	BYTE		N30     An2   v060
	BYTE	W12
	BYTE		N18     En3   v064
	BYTE	W12
	BYTE		N11     An3 
	BYTE	W12
// 001   ----------------------------------------
	BYTE		        Gn3   v052
	BYTE	W12
	BYTE		        Dn3 
	BYTE	W12
	BYTE		        Gn2 
	BYTE	W12
	BYTE		N23     Gn2   v072
	BYTE	W24
	BYTE		N30     Gn2   v060
	BYTE	W12
	BYTE		N18     Dn3   v064
	BYTE	W12
	BYTE		N11     Gn3 
	BYTE	W12
// 002   ----------------------------------------
	BYTE		        Fn3   v052
	BYTE	W12
	BYTE		        Cn3 
	BYTE	W12
	BYTE		        Fn2 
	BYTE	W12
	BYTE		N23     Fn2   v072
	BYTE	W24
	BYTE		N30     Fn2   v060
	BYTE	W12
	BYTE		N18     Cn3   v064
	BYTE	W12
	BYTE		N11     Fn3 
	BYTE	W12
// 003   ----------------------------------------
	BYTE		        Dn3 
	BYTE		N11     Gn3 
	BYTE	W12
	BYTE		N07     Dn3 
	BYTE		N07     Gn3 
	BYTE	W84
twofirstcampaigntest_4_B1:
// 004   ----------------------------------------
twofirstcampaigntest_4_004:
	BYTE		N11     An2   v044
	BYTE		N03     Cn3 
	BYTE	W12
	BYTE		N11   
	BYTE		N03     En3 
	BYTE	W12
	BYTE		N23     An3 
	BYTE		N23     Cn4 
	BYTE	W24
	BYTE		N11     An3 
	BYTE		N11     Cn4 
	BYTE	W12
	BYTE		N23     Gn3 
	BYTE		N23     Bn3 
	BYTE	W24
	BYTE		        Fn3 
	BYTE		N23     An3 
	BYTE	W12
	BYTE	PEND
// 005   ----------------------------------------
twofirstcampaigntest_4_005:
	BYTE	W12
	BYTE		N11     Fn3   v044
	BYTE		N03     An3 
	BYTE	W12
	BYTE		N23     Cn3 
	BYTE		N23     Fn3 
	BYTE	W24
	BYTE		N03     Cn3 
	BYTE		N11     Fn3 
	BYTE	W12
	BYTE		N23     Cn3 
	BYTE		N23     Fn3 
	BYTE	W24
	BYTE		N03     Cn3 
	BYTE		N11     Fn3 
	BYTE	W12
	BYTE	PEND
// 006   ----------------------------------------
twofirstcampaigntest_4_006:
	BYTE		N11     Cn3   v044
	BYTE		N03     Gn3 
	BYTE	W12
	BYTE		N11     Cn3 
	BYTE		N03     Gn3 
	BYTE	W12
	BYTE		N23   
	BYTE		N23     Cn4 
	BYTE	W24
	BYTE		N04     Gn3 
	BYTE		N11     Cn4 
	BYTE	W12
	BYTE		N23     Gn3 
	BYTE		N23     Cn4 
	BYTE	W24
	BYTE		        Gn3 
	BYTE		N23     Bn3 
	BYTE	W12
	BYTE	PEND
// 007   ----------------------------------------
twofirstcampaigntest_4_007:
	BYTE	W12
	BYTE		N11     Gn2   v044
	BYTE		N03     Gn3 
	BYTE	W12
	BYTE		N23     Gn2 
	BYTE		N23     Dn3 
	BYTE		N11     Gn3 
	BYTE	W12
	BYTE		        Bn3 
	BYTE	W12
	BYTE		        Gn2 
	BYTE		N03     Dn3 
	BYTE		N11     Dn4 
	BYTE	W12
	BYTE		N23     Gn2 
	BYTE		N23     Dn3 
	BYTE	W12
	BYTE		N11     Gn3 
	BYTE	W12
	BYTE		        An2 
	BYTE		N17     En3 
	BYTE		N23     An3 
	BYTE	W12
	BYTE	PEND
// 008   ----------------------------------------
twofirstcampaigntest_4_008:
	BYTE	W12
	BYTE		N03     En3   v044
	BYTE		N11     An3 
	BYTE	W12
	BYTE		N23   
	BYTE		N03     Cn4 
	BYTE	W12
	BYTE		N11   
	BYTE	W12
	BYTE		        An3 
	BYTE		N04     Cn4 
	BYTE	W12
	BYTE		N23     Gn3 
	BYTE		N23     Bn3 
	BYTE	W24
	BYTE		        Fn3 
	BYTE		N23     An3 
	BYTE	W12
	BYTE	PEND
// 009   ----------------------------------------
twofirstcampaigntest_4_009:
	BYTE	W12
	BYTE		N11     Fn3   v044
	BYTE		N03     An3 
	BYTE	W12
	BYTE		N23     Cn4 
	BYTE		N23     Fn4 
	BYTE	W24
	BYTE		N11     An3 
	BYTE		N03     Cn4 
	BYTE	W12
	BYTE		N23     Fn3 
	BYTE		N23     An3 
	BYTE	W24
	BYTE		N11     Fn3 
	BYTE		N03     An3 
	BYTE	W12
	BYTE	PEND
// 010   ----------------------------------------
twofirstcampaigntest_4_010:
	BYTE		N11     En3   v044
	BYTE		N03     Gn3 
	BYTE	W12
	BYTE		N11     En3 
	BYTE		N03     Gn3 
	BYTE	W12
	BYTE		N23     En3 
	BYTE		N23     Gn3 
	BYTE	W24
	BYTE		N11     En3 
	BYTE		N04     Gn3 
	BYTE	W12
	BYTE		N23     En3 
	BYTE		N23     Gn3 
	BYTE	W24
	BYTE		        Cn3 
	BYTE		N23     Fn3 
	BYTE	W12
	BYTE	PEND
// 011   ----------------------------------------
twofirstcampaigntest_4_011:
	BYTE	W12
	BYTE		N03     Cn3   v044
	BYTE		N11     Fn3 
	BYTE	W12
	BYTE		N23     Cn3 
	BYTE		N23     Fn3 
	BYTE	W24
	BYTE		N03     Cn3 
	BYTE		N11     Fn3 
	BYTE	W12
	BYTE		N23     Cn3 
	BYTE		N23     Fn3 
	BYTE	W24
	BYTE		N03     Cn3 
	BYTE		N11     Fn3 
	BYTE	W12
	BYTE	PEND
// 012   ----------------------------------------
	BYTE	PATT
	 POIN2	twofirstcampaigntest_4_004
// 013   ----------------------------------------
	BYTE	PATT
	 POIN2	twofirstcampaigntest_4_005
// 014   ----------------------------------------
	BYTE	PATT
	 POIN2	twofirstcampaigntest_4_006
// 015   ----------------------------------------
	BYTE	PATT
	 POIN2	twofirstcampaigntest_4_007
// 016   ----------------------------------------
	BYTE	PATT
	 POIN2	twofirstcampaigntest_4_008
// 017   ----------------------------------------
	BYTE	PATT
	 POIN2	twofirstcampaigntest_4_009
// 018   ----------------------------------------
twofirstcampaigntest_4_018:
	BYTE		N03     Bn2   v044
	BYTE		N11     En3 
	BYTE	W12
	BYTE		N11   
	BYTE		N03     Gn3 
	BYTE	W12
	BYTE		N23   
	BYTE		N23     Dn4 
	BYTE	W24
	BYTE		N04     Gn3 
	BYTE		N11     Dn4 
	BYTE	W12
	BYTE		N23     En3 
	BYTE		N23     Gn3 
	BYTE	W24
	BYTE		        An3 
	BYTE		N23     Dn4 
	BYTE	W12
	BYTE	PEND
// 019   ----------------------------------------
twofirstcampaigntest_4_019:
	BYTE	W12
	BYTE		N11     An3   v044
	BYTE		N03     Dn4 
	BYTE	W12
	BYTE		N23     An3 
	BYTE		N23     Cs4 
	BYTE	W24
	BYTE		N11     An3 
	BYTE		N03     Bn3 
	BYTE	W12
	BYTE		N23     An3 
	BYTE		N23     Cs4 
	BYTE	W24
	BYTE		N11     An3 
	BYTE		N03     Cs4 
	BYTE	W12
	BYTE	PEND
// 020   ----------------------------------------
twofirstcampaigntest_4_020:
	BYTE		N64     Dn3   v060
	BYTE	W12
	BYTE		N11     An3 
	BYTE	W12
	BYTE		        Dn4 
	BYTE	W12
	BYTE		        An3 
	BYTE	W12
	BYTE		        Dn4 
	BYTE	W12
	BYTE		        An3 
	BYTE	W12
	BYTE		N40     Dn3 
	BYTE	W12
	BYTE		N11     An3 
	BYTE	W12
	BYTE	PEND
// 021   ----------------------------------------
twofirstcampaigntest_4_021:
	BYTE		N11     Dn4   v060
	BYTE	W12
	BYTE		        An3 
	BYTE	W12
	BYTE		N64     Cn3 
	BYTE		N44     Gn3 
	BYTE	W12
	BYTE		N11     Cn4 
	BYTE	W12
	BYTE		        Gn4 
	BYTE	W12
	BYTE		        Cn4 
	BYTE	W12
	BYTE		        Gn3 
	BYTE	W12
	BYTE		        Cn4 
	BYTE	W12
	BYTE	PEND
// 022   ----------------------------------------
	BYTE	PATT
	 POIN2	twofirstcampaigntest_4_020
// 023   ----------------------------------------
	BYTE		N11     Dn4   v060
	BYTE	W12
	BYTE		        An3 
	BYTE	W12
	BYTE		N64     Gs2 
	BYTE		N44     Fn3 
	BYTE	W12
	BYTE		N11     Gn4 
	BYTE	W12
	BYTE		N11   
	BYTE	W12
	BYTE		        Cn4 
	BYTE	W12
	BYTE		        Fn3 
	BYTE	W12
	BYTE		        Gs3 
	BYTE	W12
// 024   ----------------------------------------
	BYTE	PATT
	 POIN2	twofirstcampaigntest_4_020
// 025   ----------------------------------------
	BYTE	PATT
	 POIN2	twofirstcampaigntest_4_021
// 026   ----------------------------------------
	BYTE	PATT
	 POIN2	twofirstcampaigntest_4_020
// 027   ----------------------------------------
	BYTE		N11     Dn4   v060
	BYTE	W12
	BYTE		        An3 
	BYTE	W12
	BYTE		TIE     Gs2 
	BYTE		N44     Fn3 
	BYTE	W12
	BYTE		N11     Fn4 
	BYTE	W12
	BYTE		N11   
	BYTE	W12
	BYTE		        Cn4 
	BYTE	W12
	BYTE		        Fn3 
	BYTE	W12
	BYTE		        Cn3 
	BYTE	W12
// 028   ----------------------------------------
	BYTE		        Gs3 
	BYTE	W12
	BYTE		        Fn3 
	BYTE	W12
	BYTE		        Gs3 
	BYTE	W12
	BYTE		        Cn4 
	BYTE	W12
	BYTE		        Fn4 
	BYTE	W12
	BYTE		        Cn4 
	BYTE	W12
	BYTE		        Gs3 
	BYTE	W12
	BYTE		        Fn3 
	BYTE	W05
	BYTE		EOT     Gs2 
	BYTE	W07
// 029   ----------------------------------------
	BYTE	PATT
	 POIN2	twofirstcampaigntest_4_004
// 030   ----------------------------------------
	BYTE	PATT
	 POIN2	twofirstcampaigntest_4_005
// 031   ----------------------------------------
	BYTE	PATT
	 POIN2	twofirstcampaigntest_4_006
// 032   ----------------------------------------
	BYTE	PATT
	 POIN2	twofirstcampaigntest_4_007
// 033   ----------------------------------------
	BYTE	PATT
	 POIN2	twofirstcampaigntest_4_008
// 034   ----------------------------------------
	BYTE	PATT
	 POIN2	twofirstcampaigntest_4_009
// 035   ----------------------------------------
	BYTE	PATT
	 POIN2	twofirstcampaigntest_4_010
// 036   ----------------------------------------
	BYTE	PATT
	 POIN2	twofirstcampaigntest_4_011
// 037   ----------------------------------------
	BYTE	PATT
	 POIN2	twofirstcampaigntest_4_004
// 038   ----------------------------------------
	BYTE	PATT
	 POIN2	twofirstcampaigntest_4_005
// 039   ----------------------------------------
	BYTE	PATT
	 POIN2	twofirstcampaigntest_4_006
// 040   ----------------------------------------
	BYTE	PATT
	 POIN2	twofirstcampaigntest_4_007
// 041   ----------------------------------------
	BYTE	PATT
	 POIN2	twofirstcampaigntest_4_008
// 042   ----------------------------------------
	BYTE	PATT
	 POIN2	twofirstcampaigntest_4_009
// 043   ----------------------------------------
	BYTE	PATT
	 POIN2	twofirstcampaigntest_4_018
// 044   ----------------------------------------
	BYTE	PATT
	 POIN2	twofirstcampaigntest_4_019
// 045   ----------------------------------------
	BYTE	PATT
	 POIN2	twofirstcampaigntest_4_020
// 046   ----------------------------------------
	BYTE	PATT
	 POIN2	twofirstcampaigntest_4_021
// 047   ----------------------------------------
	BYTE	PATT
	 POIN2	twofirstcampaigntest_4_020
// 048   ----------------------------------------
	BYTE		N11     Dn4   v060
	BYTE	W12
	BYTE		        An3 
	BYTE	W12
	BYTE		N64     Gs2 
	BYTE		N44     Fn3 
	BYTE		N56     Cn5 
	BYTE	W12
	BYTE		N11     Fn4 
	BYTE	W12
	BYTE		N11   
	BYTE	W12
	BYTE		        Cn4 
	BYTE	W12
	BYTE		        Fn3 
	BYTE	W12
	BYTE		        Gn3 
	BYTE	W12
// 049   ----------------------------------------
	BYTE	PATT
	 POIN2	twofirstcampaigntest_4_020
// 050   ----------------------------------------
	BYTE	PATT
	 POIN2	twofirstcampaigntest_4_021
// 051   ----------------------------------------
	BYTE	PATT
	 POIN2	twofirstcampaigntest_4_020
// 052   ----------------------------------------
	BYTE		N11     Dn4   v060
	BYTE	W12
	BYTE		        An3 
	BYTE	W12
	BYTE		N64     Fn2 
	BYTE		N44     Fn3 
	BYTE		N56     As4 
	BYTE	W12
	BYTE		N11     Fn4 
	BYTE	W12
	BYTE		N11   
	BYTE	W12
	BYTE		        Cn4 
	BYTE	W12
	BYTE		        Fn3 
	BYTE	W12
	BYTE		        Cn4 
	BYTE	W12
// 053   ----------------------------------------
twofirstcampaigntest_4_053:
	BYTE		N23     En3   v068
	BYTE		N05     Bn3 
	BYTE	W12
	BYTE		N05   
	BYTE	W12
	BYTE		N23     En3 
	BYTE		N23     Bn3 
	BYTE	W24
	BYTE		N11     En3 
	BYTE		N05     Bn3 
	BYTE	W12
	BYTE		N23     En3 
	BYTE		N23     Bn3 
	BYTE	W24
	BYTE		        En3 
	BYTE		N23     Bn3 
	BYTE	W12
	BYTE	PEND
// 054   ----------------------------------------
twofirstcampaigntest_4_054:
	BYTE	W12
	BYTE		N11     En3   v068
	BYTE		N23     Bn3 
	BYTE	W12
	BYTE		N64     En3 
	BYTE	W12
	BYTE		N11     En4 
	BYTE	W12
	BYTE		        Gs4 
	BYTE	W12
	BYTE		        En4 
	BYTE	W12
	BYTE		        Gs4 
	BYTE	W12
	BYTE		        Bn4 
	BYTE	W12
	BYTE	PEND
// 055   ----------------------------------------
twofirstcampaigntest_4_055:
	BYTE		N23     Cs3   v068
	BYTE		N05     Gs3 
	BYTE	W12
	BYTE		N05   
	BYTE	W12
	BYTE		N23     Cs3 
	BYTE		N23     Gs3 
	BYTE	W24
	BYTE		N11     Cs3 
	BYTE		N05     Gs3 
	BYTE	W12
	BYTE		N23     Cs3 
	BYTE		N23     Gs3 
	BYTE	W24
	BYTE		        Cs3 
	BYTE		N23     Gs3 
	BYTE	W12
	BYTE	PEND
// 056   ----------------------------------------
twofirstcampaigntest_4_056:
	BYTE	W12
	BYTE		N11     Cs3   v068
	BYTE		N23     Gs3 
	BYTE	W12
	BYTE		N64     Cs3 
	BYTE	W12
	BYTE		N11     Cs4 
	BYTE	W12
	BYTE		        En4 
	BYTE	W12
	BYTE		        Cs4 
	BYTE	W12
	BYTE		        En4 
	BYTE	W12
	BYTE		        Gs4 
	BYTE	W12
	BYTE	PEND
// 057   ----------------------------------------
twofirstcampaigntest_4_057:
	BYTE		N23     Cn3   v068
	BYTE		N05     Gn3 
	BYTE	W12
	BYTE		N05   
	BYTE	W12
	BYTE		N23     Cn3 
	BYTE		N23     Gn3 
	BYTE	W24
	BYTE		N11     Cn3 
	BYTE		N05     Gn3 
	BYTE	W12
	BYTE		N23     Cn3 
	BYTE		N11     Gn3 
	BYTE	W12
	BYTE		N11   
	BYTE	W12
	BYTE		N23     Fn3 
	BYTE		N23     An3 
	BYTE	W12
	BYTE	PEND
// 058   ----------------------------------------
	BYTE	W12
	BYTE		N80     Fn3 
	BYTE	W12
	BYTE		N11     An3 
	BYTE	W12
	BYTE		        Cn4 
	BYTE	W12
	BYTE		        Fn4 
	BYTE	W12
	BYTE		        Cn4 
	BYTE	W12
	BYTE		        Fn4 
	BYTE	W12
	BYTE		        An4 
	BYTE	W12
// 059   ----------------------------------------
	BYTE		N92     Bn3 
	BYTE		N11     En4   v052
	BYTE		N11     Fs4 
	BYTE		N11     Bn4 
	BYTE	W12
	BYTE		        En4 
	BYTE		N11     Fs4 
	BYTE		N11     Bn4 
	BYTE	W12
	BYTE		        En4 
	BYTE		N11     Fs4 
	BYTE		N11     Bn4 
	BYTE	W12
	BYTE		N23     En4 
	BYTE		N23     Fs4 
	BYTE		N23     Bn4 
	BYTE	W24
	BYTE		N11     En4 
	BYTE		N11     Fs4 
	BYTE	W12
	BYTE		        En4 
	BYTE		N11     Fs4 
	BYTE		N11     Bn4 
	BYTE	W12
	BYTE		        En4 
	BYTE		N11     Fs4 
	BYTE	W12
// 060   ----------------------------------------
	BYTE		N92     Bn3   v068
	BYTE		N23     En4   v052
	BYTE		N23     Fs4 
	BYTE		N23     Bn4 
	BYTE	W24
	BYTE		N11     En4 
	BYTE		N11     Fs4 
	BYTE		N11     Bn4 
	BYTE	W12
	BYTE		N56     En4 
	BYTE		N56     Fs4 
	BYTE		N56     An4 
	BYTE	W60
// 061   ----------------------------------------
	BYTE	PATT
	 POIN2	twofirstcampaigntest_4_053
// 062   ----------------------------------------
	BYTE	PATT
	 POIN2	twofirstcampaigntest_4_054
// 063   ----------------------------------------
	BYTE	PATT
	 POIN2	twofirstcampaigntest_4_055
// 064   ----------------------------------------
	BYTE	PATT
	 POIN2	twofirstcampaigntest_4_056
// 065   ----------------------------------------
	BYTE	PATT
	 POIN2	twofirstcampaigntest_4_057
// 066   ----------------------------------------
	BYTE	W12
	BYTE		N68     Fn3   v068
	BYTE	W12
	BYTE		N11     An3 
	BYTE	W12
	BYTE		        Dn4 
	BYTE	W12
	BYTE		        Fn4 
	BYTE	W12
	BYTE		        Dn4 
	BYTE	W12
	BYTE		        Fn4 
	BYTE	W12
	BYTE		N44     Bn3 
	BYTE		N23     En4   v052
	BYTE		N23     Fs4 
	BYTE		N23     Bn4 
	BYTE	W12
// 067   ----------------------------------------
	BYTE	W12
	BYTE		N11     En4 
	BYTE		N11     Fs4 
	BYTE		N11     Bn4 
	BYTE	W12
	BYTE		        En4 
	BYTE		N11     Fs4 
	BYTE		N11     Bn4 
	BYTE	W12
	BYTE		N23     Fn3   v068
	BYTE		N23     Cn4 
	BYTE		N23     En4   v052
	BYTE		N23     Bn4 
	BYTE	W24
	BYTE		N11     Fn3   v068
	BYTE		N11     Cn4 
	BYTE		N11     En4   v052
	BYTE	W12
	BYTE		        Fn3   v068
	BYTE		N11     Cn4 
	BYTE		N11     En4   v052
	BYTE		N11     Bn4 
	BYTE	W12
	BYTE		N17     As2   v068
	BYTE		N17     An3 
	BYTE		N17     Dn4   v052
	BYTE		N17     Fn4 
	BYTE	W12
// 068   ----------------------------------------
	BYTE	W12
	BYTE		N05     As2   v068
	BYTE	W12
	BYTE		N68     En3 
	BYTE		N68     Dn4 
	BYTE		N68     An4 
	BYTE	W72
	BYTE	GoTo
	 POIN2	twofirstcampaigntest_4_B1
twofirstcampaigntest_4_B2:
// 069   ----------------------------------------
	BYTE	FINE

//**************** Track 5 (Midi-Chn.5) ****************//

twofirstcampaigntest_5:
	BYTE	KEYSH   twofirstcampaigntest_key+0
// 000   ----------------------------------------
	BYTE		VOICE   104
	BYTE		MODT    0
	BYTE		LFOS    44
	BYTE		VOL     32*twofirstcampaigntest_mvl/mxv
	BYTE		PAN     c_v+0
	BYTE	W12
	BYTE		N12     An3   v092
	BYTE	W12
	BYTE		N24     Cn3   v060
	BYTE	W12
	BYTE		N16     En3   v072
	BYTE	W12
	BYTE		N24     Bn3   v084
	BYTE	W24
	BYTE		N12     Cn3   v048
	BYTE	W12
	BYTE		N15     En3   v084
	BYTE	W12
// 001   ----------------------------------------
	BYTE		N14     Gn3   v052
	BYTE	W12
	BYTE		N11     An3   v072
	BYTE	W12
	BYTE		N13     Dn3   v060
	BYTE	W12
	BYTE		N12     En3   v092
	BYTE	W12
	BYTE		N24     Bn3   v112
	BYTE	W24
	BYTE		N11     Dn3   v060
	BYTE	W12
	BYTE		N16     En3   v072
	BYTE	W12
// 002   ----------------------------------------
	BYTE		N14     Gn3   v060
	BYTE	W12
	BYTE		N13     An3   v084
	BYTE	W12
	BYTE		N16     Cn3   v060
	BYTE	W12
	BYTE		N15     En3   v052
	BYTE	W12
	BYTE		N24     Bn3   v104
	BYTE	W24
	BYTE		N14     Cn3   v060
	BYTE	W12
	BYTE		N16     En3   v072
	BYTE	W12
// 003   ----------------------------------------
	BYTE		N12     An3   v048
	BYTE	W12
	BYTE		N06     Dn3   v100
	BYTE		N06     Gn3 
	BYTE	W12
	BYTE		N07     Dn3   v088
	BYTE		N07     Gn3 
	BYTE	W68
	BYTE	W03
	BYTE		MOD     2
	BYTE	W01
twofirstcampaigntest_5_B1:
// 004   ----------------------------------------
	BYTE	W06
	BYTE		N36     En3   v076
	BYTE	W01
	BYTE		BEND    c_v+1
	BYTE	W44
	BYTE	W03
	BYTE		N11   
	BYTE	W12
	BYTE		N10     Dn3 
	BYTE	W12
	BYTE		N07     En3 
	BYTE	W18
// 005   ----------------------------------------
twofirstcampaigntest_5_005:
	BYTE	W30
	BYTE		N20     An3   v076
	BYTE	W24
	BYTE		        Gn3 
	BYTE	W24
	BYTE		        Fn3 
	BYTE	W18
	BYTE	PEND
// 006   ----------------------------------------
twofirstcampaigntest_5_006:
	BYTE	W06
	BYTE		N36     En3   v076
	BYTE	W48
	BYTE		N11   
	BYTE	W12
	BYTE		N10     Dn3 
	BYTE	W12
	BYTE		N07     Cn3 
	BYTE	W12
	BYTE		N60     Dn3 
	BYTE	W06
	BYTE	PEND
// 007   ----------------------------------------
	BYTE	W66
	BYTE		N08     Cn3 
	BYTE	W12
	BYTE		        Bn2 
	BYTE		N08     Dn3 
	BYTE	W12
	BYTE		N48     En3 
	BYTE	W06
// 008   ----------------------------------------
twofirstcampaigntest_5_008:
	BYTE	W54
	BYTE		N11     En3   v076
	BYTE	W12
	BYTE		N10     Dn3 
	BYTE	W12
	BYTE		N07     En3 
	BYTE	W18
	BYTE	PEND
// 009   ----------------------------------------
twofirstcampaigntest_5_009:
	BYTE	W30
	BYTE		N20     Cn4   v076
	BYTE	W24
	BYTE		        Bn3 
	BYTE	W24
	BYTE		        An3 
	BYTE	W18
	BYTE	PEND
// 010   ----------------------------------------
twofirstcampaigntest_5_010:
	BYTE	W06
	BYTE		N32     Bn3   v076
	BYTE	W48
	BYTE		N10   
	BYTE	W12
	BYTE		        Gn3 
	BYTE	W12
	BYTE		N07     Bn3 
	BYTE	W12
	BYTE		N80     An3 
	BYTE	W06
	BYTE	PEND
// 011   ----------------------------------------
	BYTE	W96
// 012   ----------------------------------------
	BYTE	W96
// 013   ----------------------------------------
	BYTE	W96
// 014   ----------------------------------------
	BYTE	W96
// 015   ----------------------------------------
	BYTE	W96
// 016   ----------------------------------------
	BYTE	W96
// 017   ----------------------------------------
	BYTE	W96
// 018   ----------------------------------------
	BYTE	W96
// 019   ----------------------------------------
	BYTE	W96
// 020   ----------------------------------------
twofirstcampaigntest_5_020:
	BYTE	W12
	BYTE		N09     An3   v096
	BYTE	W12
	BYTE		N07     An3   v076
	BYTE	W24
	BYTE		N05   
	BYTE	W24
	BYTE		N05   
	BYTE	W24
	BYTE	PEND
// 021   ----------------------------------------
twofirstcampaigntest_5_021:
	BYTE		N05     An3   v076
	BYTE	W36
	BYTE		N56     As3   v088
	BYTE	W60
	BYTE	PEND
// 022   ----------------------------------------
twofirstcampaigntest_5_022:
	BYTE	W12
	BYTE		N09     An3   v092
	BYTE	W12
	BYTE		N07     An3   v076
	BYTE	W24
	BYTE		N05   
	BYTE	W24
	BYTE		N05   
	BYTE	W24
	BYTE	PEND
// 023   ----------------------------------------
twofirstcampaigntest_5_023:
	BYTE		N05     An3   v076
	BYTE	W36
	BYTE		N56     Cn4   v092
	BYTE	W60
	BYTE	PEND
// 024   ----------------------------------------
	BYTE	PATT
	 POIN2	twofirstcampaigntest_5_022
// 025   ----------------------------------------
	BYTE	PATT
	 POIN2	twofirstcampaigntest_5_021
// 026   ----------------------------------------
	BYTE	PATT
	 POIN2	twofirstcampaigntest_5_022
// 027   ----------------------------------------
	BYTE		N05     An3   v076
	BYTE	W36
	BYTE		TIE     Cn4   v092
	BYTE	W60
// 028   ----------------------------------------
	BYTE	W80
	BYTE	W03
	BYTE		EOT   
	BYTE	W13
// 029   ----------------------------------------
	BYTE	W06
	BYTE		N36     En3   v076
	BYTE	W48
	BYTE		N11   
	BYTE	W12
	BYTE		N10     Dn3 
	BYTE	W12
	BYTE		N07     En3 
	BYTE	W18
// 030   ----------------------------------------
	BYTE	PATT
	 POIN2	twofirstcampaigntest_5_005
// 031   ----------------------------------------
	BYTE	PATT
	 POIN2	twofirstcampaigntest_5_006
// 032   ----------------------------------------
	BYTE	W66
	BYTE		N08     Cn3   v076
	BYTE	W12
	BYTE		        Dn3 
	BYTE	W12
	BYTE		N48     En3 
	BYTE	W06
// 033   ----------------------------------------
	BYTE	PATT
	 POIN2	twofirstcampaigntest_5_008
// 034   ----------------------------------------
	BYTE	PATT
	 POIN2	twofirstcampaigntest_5_009
// 035   ----------------------------------------
	BYTE	PATT
	 POIN2	twofirstcampaigntest_5_010
// 036   ----------------------------------------
	BYTE	W96
// 037   ----------------------------------------
	BYTE	W96
// 038   ----------------------------------------
	BYTE	W96
// 039   ----------------------------------------
	BYTE	W96
// 040   ----------------------------------------
	BYTE	W96
// 041   ----------------------------------------
	BYTE	W96
// 042   ----------------------------------------
	BYTE	W96
// 043   ----------------------------------------
	BYTE	W96
// 044   ----------------------------------------
	BYTE	W96
// 045   ----------------------------------------
	BYTE	PATT
	 POIN2	twofirstcampaigntest_5_020
// 046   ----------------------------------------
	BYTE	PATT
	 POIN2	twofirstcampaigntest_5_021
// 047   ----------------------------------------
	BYTE	PATT
	 POIN2	twofirstcampaigntest_5_022
// 048   ----------------------------------------
	BYTE	PATT
	 POIN2	twofirstcampaigntest_5_023
// 049   ----------------------------------------
	BYTE	PATT
	 POIN2	twofirstcampaigntest_5_022
// 050   ----------------------------------------
	BYTE	PATT
	 POIN2	twofirstcampaigntest_5_021
// 051   ----------------------------------------
	BYTE	PATT
	 POIN2	twofirstcampaigntest_5_022
// 052   ----------------------------------------
	BYTE		N05     An3   v076
	BYTE	W36
	BYTE		N52     Cn4   v092
	BYTE	W60
// 053   ----------------------------------------
	BYTE	W96
// 054   ----------------------------------------
	BYTE	W96
// 055   ----------------------------------------
	BYTE	W96
// 056   ----------------------------------------
	BYTE	W96
// 057   ----------------------------------------
	BYTE	W96
// 058   ----------------------------------------
	BYTE	W96
// 059   ----------------------------------------
	BYTE	W96
// 060   ----------------------------------------
	BYTE	W96
// 061   ----------------------------------------
	BYTE	W96
// 062   ----------------------------------------
	BYTE	W96
// 063   ----------------------------------------
	BYTE	W96
// 064   ----------------------------------------
	BYTE	W96
// 065   ----------------------------------------
	BYTE	W96
// 066   ----------------------------------------
	BYTE	W96
// 067   ----------------------------------------
	BYTE	W96
// 068   ----------------------------------------
	BYTE	W96
	BYTE	GoTo
	 POIN2	twofirstcampaigntest_5_B1
twofirstcampaigntest_5_B2:
// 069   ----------------------------------------
	BYTE	FINE

//**************** Track 6 (Midi-Chn.6) ****************//

twofirstcampaigntest_6:
	BYTE	KEYSH   twofirstcampaigntest_key+0
// 000   ----------------------------------------
	BYTE		VOICE   61
	BYTE		PAN     c_v-32
	BYTE		VOL     32*twofirstcampaigntest_mvl/mxv
	BYTE		N11     En3   v072
	BYTE	W12
	BYTE		        An2   v084
	BYTE	W12
	BYTE		N32     Cn3   v072
	BYTE	W12
	BYTE		        Gn3   v092
	BYTE	W24
	BYTE		N11     An2 
	BYTE	W12
	BYTE		        Cn3 
	BYTE	W12
	BYTE		        En3 
	BYTE	W12
// 001   ----------------------------------------
	BYTE		N12     En3   v072
	BYTE	W12
	BYTE		N11     An2 
	BYTE	W12
	BYTE		N44     Dn3   v064
	BYTE	W12
	BYTE		N42     Gn3   v084
	BYTE	W24
	BYTE		N11     An2   v092
	BYTE	W12
	BYTE		        Dn3 
	BYTE	W12
	BYTE		        En3 
	BYTE	W12
// 002   ----------------------------------------
	BYTE		N13     En3   v084
	BYTE	W12
	BYTE		N12     An2 
	BYTE	W12
	BYTE		N32     Cn3   v064
	BYTE	W12
	BYTE		        Gn3   v084
	BYTE	W24
	BYTE		N11     An2   v092
	BYTE	W12
	BYTE		        Bn2 
	BYTE	W12
	BYTE		        Cn3 
	BYTE	W12
// 003   ----------------------------------------
	BYTE		N07     Bn2   v072
	BYTE		N06     Dn3   v064
	BYTE	W12
	BYTE		        Bn2 
	BYTE		N05     Dn3   v084
	BYTE	W12
	BYTE		N07     Bn2   v004
	BYTE		N06     Dn3 
	BYTE	W12
	BYTE		        Bn2 
	BYTE		N05     Dn3 
	BYTE	W24
	BYTE		N07     Bn2 
	BYTE		N06     Dn3 
	BYTE	W12
	BYTE		        Bn2 
	BYTE		N05     Dn3 
	BYTE	W24
twofirstcampaigntest_6_B1:
// 004   ----------------------------------------
	BYTE	W96
// 005   ----------------------------------------
	BYTE	W96
// 006   ----------------------------------------
	BYTE	W96
// 007   ----------------------------------------
	BYTE	W96
// 008   ----------------------------------------
	BYTE	W96
// 009   ----------------------------------------
	BYTE	W96
// 010   ----------------------------------------
	BYTE	W12
	BYTE		BEND    c_v-2
	BYTE	W84
// 011   ----------------------------------------
	BYTE	W68
	BYTE	W03
	BYTE		PAN     c_v-16
	BYTE		VOL     20*twofirstcampaigntest_mvl/mxv
	BYTE	W01
	BYTE		VOICE   41
	BYTE	W12
	BYTE		N10     An3   v100
	BYTE	W06
	BYTE		N11     Bn3 
	BYTE	W06
// 012   ----------------------------------------
	BYTE		        Cn4 
	BYTE	W06
	BYTE		N07     Dn4 
	BYTE	W06
	BYTE		N32     En4 
	BYTE	W48
	BYTE		N11   
	BYTE	W12
	BYTE		N07     Dn4 
	BYTE	W12
	BYTE		N04     En4 
	BYTE	W12
// 013   ----------------------------------------
twofirstcampaigntest_6_013:
	BYTE		N30     Cn4   v100
	BYTE	W36
	BYTE		N24     An4 
	BYTE	W24
	BYTE		        Gn4 
	BYTE	W24
	BYTE		        Fn4 
	BYTE	W12
	BYTE	PEND
// 014   ----------------------------------------
twofirstcampaigntest_6_014:
	BYTE	W12
	BYTE		N42     En4   v100
	BYTE	W48
	BYTE		N11   
	BYTE	W12
	BYTE		N07     Dn4 
	BYTE	W12
	BYTE		N04     Cn4 
	BYTE	W12
	BYTE	PEND
// 015   ----------------------------------------
twofirstcampaigntest_6_015:
	BYTE		N64     Dn4   v100
	BYTE	W72
	BYTE		N13     Cn4 
	BYTE	W12
	BYTE		N06     Dn4 
	BYTE	W12
	BYTE	PEND
// 016   ----------------------------------------
twofirstcampaigntest_6_016:
	BYTE		N52     En4   v100
	BYTE	W60
	BYTE		N13   
	BYTE	W12
	BYTE		N07     Dn4 
	BYTE	W12
	BYTE		N04     En4 
	BYTE	W12
	BYTE	PEND
// 017   ----------------------------------------
twofirstcampaigntest_6_017:
	BYTE		N24     Cn4   v100
	BYTE	W36
	BYTE		        Cn5 
	BYTE	W24
	BYTE		        Bn4 
	BYTE	W24
	BYTE		N23     An4 
	BYTE	W12
	BYTE	PEND
// 018   ----------------------------------------
twofirstcampaigntest_6_018:
	BYTE	W12
	BYTE		N42     Bn4   v100
	BYTE	W48
	BYTE		N09   
	BYTE	W12
	BYTE		N07     Gn4 
	BYTE	W12
	BYTE		N04     Bn4 
	BYTE	W12
	BYTE	PEND
// 019   ----------------------------------------
	BYTE		N96     An4 
	BYTE	W96
// 020   ----------------------------------------
	BYTE		VOICE   40
	BYTE	W12
	BYTE		N09     Dn3   v096
	BYTE		N09     En3 
	BYTE	W12
	BYTE		N07     Dn3   v076
	BYTE		N07     En3 
	BYTE	W24
	BYTE		N05     Dn3 
	BYTE		N05     En3 
	BYTE	W24
	BYTE		        Dn3 
	BYTE		N05     En3 
	BYTE	W24
// 021   ----------------------------------------
	BYTE		        Dn3 
	BYTE		N05     En3 
	BYTE	W24
	BYTE		        Dn3   v004
	BYTE		N05     En3 
	BYTE	W12
	BYTE		N56     Ds3   v072
	BYTE		N56     Gn3 
	BYTE	W17
	BYTE		MOD     2
	BYTE	W12
	BYTE		        4
	BYTE	W12
	BYTE		        6
	BYTE	W15
	BYTE		        0
	BYTE	W04
// 022   ----------------------------------------
twofirstcampaigntest_6_022:
	BYTE	W12
	BYTE		N09     Dn3   v092
	BYTE		N09     En3 
	BYTE	W12
	BYTE		N07     Dn3   v076
	BYTE		N07     En3 
	BYTE	W24
	BYTE		N05     Dn3 
	BYTE		N05     En3 
	BYTE	W24
	BYTE		        Dn3 
	BYTE		N05     En3 
	BYTE	W24
	BYTE	PEND
// 023   ----------------------------------------
twofirstcampaigntest_6_023:
	BYTE		N05     Dn3   v076
	BYTE		N05     En3 
	BYTE	W24
	BYTE		        Dn3   v004
	BYTE		N05     En3 
	BYTE	W12
	BYTE		N56     Ds3   v076
	BYTE		N56     Gn3 
	BYTE	W17
	BYTE		MOD     2
	BYTE	W12
	BYTE		        4
	BYTE	W12
	BYTE		        6
	BYTE	W15
	BYTE		        0
	BYTE	W04
	BYTE	PEND
// 024   ----------------------------------------
	BYTE	PATT
	 POIN2	twofirstcampaigntest_6_022
// 025   ----------------------------------------
	BYTE	PATT
	 POIN2	twofirstcampaigntest_6_023
// 026   ----------------------------------------
	BYTE	PATT
	 POIN2	twofirstcampaigntest_6_022
// 027   ----------------------------------------
	BYTE		N05     Dn3   v076
	BYTE		N05     En3 
	BYTE	W24
	BYTE		        Dn3   v004
	BYTE		N05     En3 
	BYTE	W12
	BYTE		TIE     Ds3   v044
	BYTE		TIE     Gn3 
	BYTE	W60
// 028   ----------------------------------------
	BYTE	W80
	BYTE	W03
	BYTE		EOT     Ds3 
	BYTE		        Gn3 
	BYTE	W13
// 029   ----------------------------------------
	BYTE	W06
	BYTE		VOL     6*twofirstcampaigntest_mvl/mxv
	BYTE	W90
// 030   ----------------------------------------
	BYTE	W96
// 031   ----------------------------------------
	BYTE	W96
// 032   ----------------------------------------
	BYTE	W96
// 033   ----------------------------------------
	BYTE	W96
// 034   ----------------------------------------
	BYTE	W96
// 035   ----------------------------------------
	BYTE	W96
// 036   ----------------------------------------
	BYTE	W72
	BYTE		VOICE   41
	BYTE	W12
	BYTE		N10     An3   v100
	BYTE	W06
	BYTE		N11     Bn3 
	BYTE	W06
// 037   ----------------------------------------
	BYTE		        Cn4 
	BYTE	W06
	BYTE		N07     Dn4 
	BYTE	W06
	BYTE		N40     En4 
	BYTE	W48
	BYTE		N11   
	BYTE	W12
	BYTE		N07     Dn4 
	BYTE	W12
	BYTE		N04     En4 
	BYTE	W12
// 038   ----------------------------------------
	BYTE	PATT
	 POIN2	twofirstcampaigntest_6_013
// 039   ----------------------------------------
	BYTE	PATT
	 POIN2	twofirstcampaigntest_6_014
// 040   ----------------------------------------
	BYTE	PATT
	 POIN2	twofirstcampaigntest_6_015
// 041   ----------------------------------------
	BYTE	PATT
	 POIN2	twofirstcampaigntest_6_016
// 042   ----------------------------------------
	BYTE	PATT
	 POIN2	twofirstcampaigntest_6_017
// 043   ----------------------------------------
	BYTE	PATT
	 POIN2	twofirstcampaigntest_6_018
// 044   ----------------------------------------
	BYTE		N96     An4   v100
	BYTE	W96
// 045   ----------------------------------------
	BYTE		VOICE   40
	BYTE	W12
	BYTE		N09     Dn3   v108
	BYTE		N09     En3 
	BYTE	W12
	BYTE		N07     Dn3   v088
	BYTE		N07     En3 
	BYTE	W24
	BYTE		N05     Dn3 
	BYTE		N05     En3 
	BYTE	W24
	BYTE		        Dn3 
	BYTE		N05     En3 
	BYTE	W24
// 046   ----------------------------------------
twofirstcampaigntest_6_046:
	BYTE		N05     Dn3   v088
	BYTE		N05     En3 
	BYTE	W24
	BYTE		        Dn3   v008
	BYTE		N05     En3 
	BYTE	W12
	BYTE		N56     Ds3   v088
	BYTE		N56     Gn3 
	BYTE	W17
	BYTE		MOD     2
	BYTE	W12
	BYTE		        4
	BYTE	W12
	BYTE		        6
	BYTE	W15
	BYTE		        0
	BYTE	W04
	BYTE	PEND
// 047   ----------------------------------------
twofirstcampaigntest_6_047:
	BYTE	W12
	BYTE		N09     Dn3   v104
	BYTE		N09     En3 
	BYTE	W12
	BYTE		N07     Dn3   v088
	BYTE		N07     En3 
	BYTE	W24
	BYTE		N05     Dn3 
	BYTE		N05     En3 
	BYTE	W24
	BYTE		        Dn3 
	BYTE		N05     En3 
	BYTE	W24
	BYTE	PEND
// 048   ----------------------------------------
	BYTE		        Dn3 
	BYTE		N05     En3 
	BYTE	W24
	BYTE		        Dn3   v008
	BYTE		N05     En3 
	BYTE	W12
	BYTE		N56     Ds3   v092
	BYTE		N56     Gn3 
	BYTE	W17
	BYTE		MOD     2
	BYTE	W12
	BYTE		        4
	BYTE	W12
	BYTE		        6
	BYTE	W15
	BYTE		        0
	BYTE	W04
// 049   ----------------------------------------
	BYTE	PATT
	 POIN2	twofirstcampaigntest_6_047
// 050   ----------------------------------------
	BYTE	PATT
	 POIN2	twofirstcampaigntest_6_046
// 051   ----------------------------------------
	BYTE	PATT
	 POIN2	twofirstcampaigntest_6_047
// 052   ----------------------------------------
	BYTE		N05     Dn3   v088
	BYTE		N05     En3 
	BYTE	W24
	BYTE		        Dn3   v008
	BYTE		N05     En3 
	BYTE	W12
	BYTE		N44     Ds3   v092
	BYTE		N44     Gn3 
	BYTE	W17
	BYTE		MOD     2
	BYTE	W12
	BYTE		        4
	BYTE	W12
	BYTE		        6
	BYTE	W06
	BYTE		        0
	BYTE	W01
	BYTE		VOICE   41
	BYTE		N09     Cn4   v072
	BYTE	W06
	BYTE		N11     Dn4   v076
	BYTE	W06
// 053   ----------------------------------------
	BYTE		N08     En4 
	BYTE	W06
	BYTE		N06     Fs4   v108
	BYTE	W06
	BYTE		TIE     Gs4   v112
	BYTE	W84
// 054   ----------------------------------------
	BYTE	W17
	BYTE		EOT   
	BYTE	W07
	BYTE		N05     Bn3   v104
	BYTE	W12
	BYTE		        En4   v108
	BYTE	W12
	BYTE		N20     An4   v104
	BYTE	W24
	BYTE		N28     Gs4 
	BYTE	W24
// 055   ----------------------------------------
twofirstcampaigntest_6_055:
	BYTE	W12
	BYTE		TIE     Gs4   v100
	BYTE	W84
	BYTE	PEND
// 056   ----------------------------------------
	BYTE	W17
	BYTE		EOT   
	BYTE	W07
	BYTE		N05     Bn3   v104
	BYTE	W12
	BYTE		        En4 
	BYTE	W12
	BYTE		N20     An4   v108
	BYTE	W24
	BYTE		N28     Gs4   v112
	BYTE	W24
// 057   ----------------------------------------
	BYTE	W12
	BYTE		N36     An4   v104
	BYTE	W48
	BYTE		N08   
	BYTE	W12
	BYTE		        En4 
	BYTE	W12
	BYTE		        Bn3 
	BYTE	W12
// 058   ----------------------------------------
	BYTE		N28     An4 
	BYTE	W36
	BYTE		N17     Gn4   v127
	BYTE	W24
	BYTE		N23     Dn5   v104
	BYTE	W24
	BYTE		N22     Cn5   v092
	BYTE	W12
// 059   ----------------------------------------
	BYTE	W12
	BYTE		N11     Bn4   v116
	BYTE	W12
	BYTE		        Fs4 
	BYTE	W12
	BYTE		N05     Bn3 
	BYTE	W12
	BYTE		N14     Bn4 
	BYTE	W24
	BYTE		N05     Fs4 
	BYTE	W12
	BYTE		        Bn3 
	BYTE	W12
// 060   ----------------------------------------
	BYTE		N20     Bn4 
	BYTE	W24
	BYTE		N05     Fs4 
	BYTE	W12
	BYTE		        Bn3 
	BYTE	W12
	BYTE		N20     An4 
	BYTE	W24
	BYTE		N08     Fs4 
	BYTE	W12
	BYTE		N05     Bn3 
	BYTE	W12
// 061   ----------------------------------------
	BYTE		N08     An4 
	BYTE	W12
	BYTE		TIE     Gs4   v112
	BYTE	W84
// 062   ----------------------------------------
	BYTE	W14
	BYTE		EOT   
	BYTE	W10
	BYTE		N11     Bn3   v104
	BYTE	W12
	BYTE		        En4   v108
	BYTE	W12
	BYTE		N23     An4   v104
	BYTE	W24
	BYTE		N28     Gs4 
	BYTE	W24
// 063   ----------------------------------------
	BYTE	PATT
	 POIN2	twofirstcampaigntest_6_055
// 064   ----------------------------------------
	BYTE	W14
	BYTE		EOT     Gs4 
	BYTE	W10
	BYTE		N11     Bn3   v104
	BYTE	W12
	BYTE		        En4 
	BYTE	W12
	BYTE		N23     An4   v108
	BYTE	W24
	BYTE		N28     Gs4   v112
	BYTE	W24
// 065   ----------------------------------------
	BYTE	W12
	BYTE		N40     An4   v104
	BYTE	W48
	BYTE		N05     An4   v108
	BYTE	W12
	BYTE		        En4   v104
	BYTE	W12
	BYTE		        Bn3 
	BYTE	W12
// 066   ----------------------------------------
	BYTE		N32     An4 
	BYTE	W36
	BYTE		N08     Gn4   v112
	BYTE	W12
	BYTE		N28     Cn5   v092
	BYTE	W36
	BYTE		N08     Dn5   v080
	BYTE	W12
// 067   ----------------------------------------
	BYTE		N17     Bn4   v124
	BYTE	W24
	BYTE		N05     Bn4   v116
	BYTE	W12
	BYTE		N07     Bn4   v100
	BYTE	W12
	BYTE		N05     Bn4   v104
	BYTE	W24
	BYTE		N06     Bn4   v100
	BYTE	W24
// 068   ----------------------------------------
	BYTE		N09     An4   v104
	BYTE	W32
	BYTE	W03
	BYTE		PAN     c_v+48
	BYTE	W01
	BYTE		VOICE   80
	BYTE		N05     Gn4   v100
	BYTE	W05
	BYTE		PAN     c_v+40
	BYTE	W01
	BYTE		N05     Fn4   v096
	BYTE	W05
	BYTE		PAN     c_v+32
	BYTE	W01
	BYTE		N05     En4   v092
	BYTE	W05
	BYTE		PAN     c_v+24
	BYTE	W01
	BYTE		N05     Dn4   v088
	BYTE	W05
	BYTE		PAN     c_v+16
	BYTE	W01
	BYTE		N05     Cn4   v084
	BYTE	W05
	BYTE		PAN     c_v+8
	BYTE	W01
	BYTE		N05     Bn3   v080
	BYTE	W05
	BYTE		PAN     c_v+0
	BYTE	W01
	BYTE		N05     Gn3   v076
	BYTE	W05
	BYTE		PAN     c_v-8
	BYTE	W01
	BYTE		N05     En3   v072
	BYTE	W05
	BYTE		PAN     c_v-16
	BYTE	W01
	BYTE		N05     Dn3   v068
	BYTE	W05
	BYTE		PAN     c_v-24
	BYTE	W01
	BYTE		N05     Cn3   v064
	BYTE	W06
	BYTE	GoTo
	 POIN2	twofirstcampaigntest_6_B1
twofirstcampaigntest_6_B2:
// 069   ----------------------------------------
	BYTE	FINE

//**************** Track 7 (Midi-Chn.7) ****************//

twofirstcampaigntest_7:
	BYTE	KEYSH   twofirstcampaigntest_key+0
// 000   ----------------------------------------
	BYTE		VOICE   127
	BYTE		VOL     54*twofirstcampaigntest_mvl/mxv
	BYTE		MODT    0
	BYTE		LFOS    44
	BYTE		PAN     c_v+0
	BYTE		N48     An2   v080
	BYTE	W96
// 001   ----------------------------------------
	BYTE	W96
// 002   ----------------------------------------
	BYTE	W96
// 003   ----------------------------------------
	BYTE		N48   
	BYTE	W96
twofirstcampaigntest_7_B1:
// 004   ----------------------------------------
	BYTE		N48     An2   v108
	BYTE	W96
// 005   ----------------------------------------
	BYTE	W96
// 006   ----------------------------------------
	BYTE	W96
// 007   ----------------------------------------
	BYTE	W96
// 008   ----------------------------------------
	BYTE	W96
// 009   ----------------------------------------
	BYTE	W96
// 010   ----------------------------------------
	BYTE	W96
// 011   ----------------------------------------
	BYTE	W96
// 012   ----------------------------------------
	BYTE		N48   
	BYTE	W96
// 013   ----------------------------------------
	BYTE	W96
// 014   ----------------------------------------
	BYTE	W96
// 015   ----------------------------------------
	BYTE	W96
// 016   ----------------------------------------
	BYTE	W96
// 017   ----------------------------------------
	BYTE	W96
// 018   ----------------------------------------
	BYTE	W96
// 019   ----------------------------------------
	BYTE	W96
// 020   ----------------------------------------
	BYTE		N48   
	BYTE	W96
// 021   ----------------------------------------
	BYTE	W24
	BYTE		N48   
	BYTE	W72
// 022   ----------------------------------------
	BYTE		N48   
	BYTE	W96
// 023   ----------------------------------------
twofirstcampaigntest_7_023:
	BYTE	W24
	BYTE		N48     An2   v108
	BYTE	W24
	BYTE		N03     Fs2   v036
	BYTE	W06
	BYTE		        Dn1 
	BYTE	W06
	BYTE		        Dn1   v088
	BYTE	W06
	BYTE		        Dn1   v056
	BYTE	W06
	BYTE		        Dn1   v100
	BYTE		N03     Fs2   v036
	BYTE	W06
	BYTE		        Dn1   v100
	BYTE	W06
	BYTE		        Dn1   v104
	BYTE	W06
	BYTE		        Dn1   v124
	BYTE	W06
	BYTE	PEND
// 024   ----------------------------------------
	BYTE		N48     An2   v108
	BYTE	W96
// 025   ----------------------------------------
	BYTE	W24
	BYTE		N48   
	BYTE	W72
// 026   ----------------------------------------
	BYTE		N48   
	BYTE	W96
// 027   ----------------------------------------
	BYTE	W23
	BYTE		PAN     c_v+48
	BYTE	W01
	BYTE		VOICE   80
	BYTE		N07     Cn5   v064
	BYTE	W06
	BYTE		        As4   v060
	BYTE	W05
	BYTE		PAN     c_v+40
	BYTE	W01
	BYTE		N07     Fn4   v056
	BYTE	W06
	BYTE		        Cn4   v052
	BYTE	W05
	BYTE		PAN     c_v+32
	BYTE	W01
	BYTE		N07     As3   v064
	BYTE	W06
	BYTE		        Fn3   v060
	BYTE	W05
	BYTE		PAN     c_v+24
	BYTE	W01
	BYTE		N07     Cn3   v056
	BYTE	W06
	BYTE		        Fn2   v052
	BYTE	W05
	BYTE		PAN     c_v+16
	BYTE	W01
	BYTE		N07     Cn5   v056
	BYTE	W05
	BYTE		PAN     c_v+8
	BYTE	W01
	BYTE		N07     As4   v052
	BYTE	W05
	BYTE		PAN     c_v+0
	BYTE	W01
	BYTE		N07     Fn4   v048
	BYTE	W05
	BYTE		PAN     c_v-8
	BYTE	W01
	BYTE		N07     Cn4   v040
	BYTE	W06
// 028   ----------------------------------------
	BYTE		        As3   v016
	BYTE	W05
	BYTE		PAN     c_v-16
	BYTE	W01
	BYTE		N07     Fn3   v044
	BYTE	W06
	BYTE		        Cn3   v040
	BYTE	W05
	BYTE		PAN     c_v-24
	BYTE	W01
	BYTE		N07     Fn2   v036
	BYTE	W06
	BYTE		        Cn5   v032
	BYTE	W05
	BYTE		PAN     c_v-32
	BYTE	W01
	BYTE		N07     As4   v036
	BYTE	W06
	BYTE		        Fn4   v032
	BYTE	W05
	BYTE		PAN     c_v-40
	BYTE	W01
	BYTE		N07     Cn4   v028
	BYTE	W06
	BYTE		        As3   v024
	BYTE	W06
	BYTE		        Fn3 
	BYTE	W06
	BYTE		        Cn3   v020
	BYTE	W06
	BYTE		        Fn2 
	BYTE	W06
	BYTE		        Cn5   v016
	BYTE	W06
	BYTE		        As4 
	BYTE	W06
	BYTE		        Fn4   v012
	BYTE	W06
	BYTE		N06     Cn4 
	BYTE	W05
	BYTE		PAN     c_v+0
	BYTE	W01
// 029   ----------------------------------------
	BYTE		VOICE   127
	BYTE		N48     An2   v108
	BYTE	W96
// 030   ----------------------------------------
	BYTE	W96
// 031   ----------------------------------------
	BYTE	W96
// 032   ----------------------------------------
	BYTE	W96
// 033   ----------------------------------------
	BYTE	W96
// 034   ----------------------------------------
	BYTE	W96
// 035   ----------------------------------------
	BYTE	W96
// 036   ----------------------------------------
	BYTE	W96
// 037   ----------------------------------------
	BYTE		N48   
	BYTE	W96
// 038   ----------------------------------------
	BYTE	W96
// 039   ----------------------------------------
	BYTE	W96
// 040   ----------------------------------------
	BYTE	W96
// 041   ----------------------------------------
	BYTE	W96
// 042   ----------------------------------------
	BYTE	W96
// 043   ----------------------------------------
	BYTE	W96
// 044   ----------------------------------------
	BYTE	W96
// 045   ----------------------------------------
	BYTE		N48   
	BYTE	W96
// 046   ----------------------------------------
	BYTE	W24
	BYTE		N48   
	BYTE	W72
// 047   ----------------------------------------
	BYTE		N48   
	BYTE	W96
// 048   ----------------------------------------
	BYTE	PATT
	 POIN2	twofirstcampaigntest_7_023
// 049   ----------------------------------------
	BYTE		N48     An2   v108
	BYTE	W96
// 050   ----------------------------------------
	BYTE	W24
	BYTE		N48   
	BYTE	W72
// 051   ----------------------------------------
	BYTE		N48   
	BYTE	W96
// 052   ----------------------------------------
	BYTE	W24
	BYTE		N48   
	BYTE	W72
// 053   ----------------------------------------
	BYTE		N48   
	BYTE	W96
// 054   ----------------------------------------
	BYTE	W96
// 055   ----------------------------------------
	BYTE	W96
// 056   ----------------------------------------
	BYTE	W96
// 057   ----------------------------------------
	BYTE	W96
// 058   ----------------------------------------
	BYTE	W96
// 059   ----------------------------------------
	BYTE	W96
// 060   ----------------------------------------
	BYTE	W96
// 061   ----------------------------------------
	BYTE		N48   
	BYTE	W96
// 062   ----------------------------------------
	BYTE	W96
// 063   ----------------------------------------
	BYTE	W96
// 064   ----------------------------------------
	BYTE	W96
// 065   ----------------------------------------
	BYTE	W96
// 066   ----------------------------------------
	BYTE	W96
// 067   ----------------------------------------
	BYTE		N03     Dn1   v096
	BYTE		N24     Cs2   v068
	BYTE	W24
	BYTE		N03     Dn1   v116
	BYTE	W12
	BYTE		N36     An2   v108
	BYTE	W12
	BYTE		N03     Dn1   v088
	BYTE	W24
	BYTE		        Dn1   v112
	BYTE		N12     An2   v116
	BYTE	W24
// 068   ----------------------------------------
	BYTE		N03     Dn1   v096
	BYTE		N24     Cs2   v068
	BYTE	W24
	BYTE		N03     Dn1   v116
	BYTE		N36     An2   v108
	BYTE	W24
	BYTE		N03     Dn1   v088
	BYTE	W06
	BYTE		N06     An1   v092
	BYTE	W18
	BYTE		N03     Fn1   v100
	BYTE		N06     Fs2   v044
	BYTE	W06
	BYTE		        Fn1   v092
	BYTE	W18
	BYTE	GoTo
	 POIN2	twofirstcampaigntest_7_B1
twofirstcampaigntest_7_B2:
// 069   ----------------------------------------
	BYTE	FINE

//**************** Track 8 (Midi-Chn.8) ****************//

twofirstcampaigntest_8:
	BYTE	KEYSH   twofirstcampaigntest_key+0
// 000   ----------------------------------------
	BYTE		VOICE   124
	BYTE		VOL     54*twofirstcampaigntest_mvl/mxv
	BYTE		MODT    0
	BYTE		LFOS    44
	BYTE		PAN     c_v+0
	BYTE		N03     Cn1   v112
	BYTE	W12
	BYTE		        Cn2   v100
	BYTE	W03
	BYTE		N03   
	BYTE	W09
	BYTE		        An1   v116
	BYTE	W12
	BYTE		        Dn1   v084
	BYTE		N03     Fn1   v112
	BYTE	W24
	BYTE		        Cn1 
	BYTE	W12
	BYTE		        Dn1   v084
	BYTE		N03     As1   v032
	BYTE	W24
// 001   ----------------------------------------
	BYTE		        Cn1   v112
	BYTE	W24
	BYTE		        An1   v116
	BYTE	W12
	BYTE		        Dn1   v084
	BYTE		N03     Fn1   v112
	BYTE	W30
	BYTE		        Cn1 
	BYTE	W03
	BYTE		        Fn1   v100
	BYTE	W03
	BYTE		        Fn1   v120
	BYTE	W24
// 002   ----------------------------------------
	BYTE	W03
	BYTE		        Dn1   v084
	BYTE	W06
	BYTE		N03   
	BYTE	W06
	BYTE		N03   
	BYTE	W09
	BYTE		        Gs1   v048
	BYTE		N06     Cn2   v092
	BYTE	W09
	BYTE		N06   
	BYTE	W06
	BYTE		        Cn2   v116
	BYTE	W09
	BYTE		N03     Gs1   v048
	BYTE		N06     An1   v104
	BYTE	W09
	BYTE		        An1   v100
	BYTE	W06
	BYTE		        An1   v104
	BYTE	W09
	BYTE		        Fn1 
	BYTE		N03     Gs1   v048
	BYTE	W09
	BYTE		N06     Fn1   v116
	BYTE	W06
	BYTE		N09     Fn1   v104
	BYTE	W09
// 003   ----------------------------------------
	BYTE		N03     Dn1   v084
	BYTE	W03
	BYTE		        Fs1   v040
	BYTE	W09
	BYTE		        Cn1   v112
	BYTE		N03     Dn1   v084
	BYTE	W12
	BYTE		        Fs1   v040
	BYTE	W12
	BYTE		        Cn2   v100
	BYTE	W03
	BYTE		N06   
	BYTE	W03
	BYTE		        An1   v104
	BYTE	W06
	BYTE		        An1   v116
	BYTE	W06
	BYTE		        Fn1   v096
	BYTE	W06
	BYTE		N03     Cn1   v112
	BYTE		N12     Fn1 
	BYTE	W12
	BYTE		N03     Dn1   v084
	BYTE	W24
twofirstcampaigntest_8_B1:
// 004   ----------------------------------------
twofirstcampaigntest_8_004:
	BYTE		N06     Cn1   v112
	BYTE	W12
	BYTE		N12     As1   v032
	BYTE	W12
	BYTE		N06     Dn1   v084
	BYTE	W12
	BYTE		N12     As1   v032
	BYTE	W12
	BYTE		N06     Cn1   v112
	BYTE	W12
	BYTE		N06   
	BYTE		N12     As1   v032
	BYTE	W12
	BYTE		N06     Dn1   v084
	BYTE	W12
	BYTE		        Cn1   v112
	BYTE		N12     As1   v032
	BYTE	W12
	BYTE	PEND
// 005   ----------------------------------------
twofirstcampaigntest_8_005:
	BYTE	W12
	BYTE		N06     Cn1   v112
	BYTE		N12     As1   v032
	BYTE	W12
	BYTE		N06     Dn1   v084
	BYTE	W12
	BYTE		N12     As1   v032
	BYTE	W12
	BYTE		N06     Cn1   v112
	BYTE	W12
	BYTE		N06   
	BYTE		N12     As1   v032
	BYTE	W12
	BYTE		N06     Dn1   v084
	BYTE	W12
	BYTE		N12     As1   v032
	BYTE	W12
	BYTE	PEND
// 006   ----------------------------------------
	BYTE	PATT
	 POIN2	twofirstcampaigntest_8_004
// 007   ----------------------------------------
	BYTE	PATT
	 POIN2	twofirstcampaigntest_8_005
// 008   ----------------------------------------
	BYTE	PATT
	 POIN2	twofirstcampaigntest_8_004
// 009   ----------------------------------------
	BYTE	PATT
	 POIN2	twofirstcampaigntest_8_005
// 010   ----------------------------------------
	BYTE	PATT
	 POIN2	twofirstcampaigntest_8_004
// 011   ----------------------------------------
	BYTE	PATT
	 POIN2	twofirstcampaigntest_8_005
// 012   ----------------------------------------
	BYTE	PATT
	 POIN2	twofirstcampaigntest_8_004
// 013   ----------------------------------------
	BYTE	PATT
	 POIN2	twofirstcampaigntest_8_005
// 014   ----------------------------------------
	BYTE	PATT
	 POIN2	twofirstcampaigntest_8_004
// 015   ----------------------------------------
	BYTE	PATT
	 POIN2	twofirstcampaigntest_8_005
// 016   ----------------------------------------
	BYTE	PATT
	 POIN2	twofirstcampaigntest_8_004
// 017   ----------------------------------------
	BYTE	PATT
	 POIN2	twofirstcampaigntest_8_005
// 018   ----------------------------------------
	BYTE	PATT
	 POIN2	twofirstcampaigntest_8_004
// 019   ----------------------------------------
twofirstcampaigntest_8_019:
	BYTE	W12
	BYTE		N06     Cn1   v112
	BYTE		N12     As1   v032
	BYTE	W12
	BYTE		N06     Dn1   v084
	BYTE	W12
	BYTE		N12     As1   v032
	BYTE	W12
	BYTE		N06     Dn1   v084
	BYTE		N06     Gs1   v048
	BYTE	W06
	BYTE		        Dn1   v084
	BYTE	W06
	BYTE		N06   
	BYTE	W06
	BYTE		N06   
	BYTE	W06
	BYTE		        Gs1   v048
	BYTE		N06     Cn2   v100
	BYTE	W06
	BYTE		        Cn2   v084
	BYTE	W06
	BYTE		        Cn1   v112
	BYTE	W06
	BYTE		        Fn1   v040
	BYTE	W06
	BYTE	PEND
// 020   ----------------------------------------
twofirstcampaigntest_8_020:
	BYTE		N03     Dn1   v084
	BYTE		N03     Fs1   v040
	BYTE	W12
	BYTE		N06     As1   v032
	BYTE	W12
	BYTE		N03     Dn1   v084
	BYTE		N03     Fs1   v040
	BYTE	W12
	BYTE		N06     As1   v032
	BYTE	W12
	BYTE		N03     Dn1   v084
	BYTE		N03     Fs1   v040
	BYTE	W12
	BYTE		        Cn1   v112
	BYTE		N06     As1   v032
	BYTE	W12
	BYTE		N03     Dn1   v084
	BYTE		N03     Fs1   v040
	BYTE	W12
	BYTE		        Cn1   v112
	BYTE		N06     As1   v032
	BYTE	W12
	BYTE	PEND
// 021   ----------------------------------------
	BYTE	PATT
	 POIN2	twofirstcampaigntest_8_004
// 022   ----------------------------------------
twofirstcampaigntest_8_022:
	BYTE		N06     Dn1   v084
	BYTE		N06     Fs1   v040
	BYTE	W12
	BYTE		N12     As1   v032
	BYTE	W12
	BYTE		N06     Dn1   v084
	BYTE		N06     Fs1   v040
	BYTE	W12
	BYTE		N12     As1   v032
	BYTE	W12
	BYTE		N06     Dn1   v084
	BYTE		N06     Fs1   v040
	BYTE	W12
	BYTE		        Cn1   v112
	BYTE		N12     As1   v032
	BYTE	W12
	BYTE		N06     Dn1   v084
	BYTE		N06     Fs1   v040
	BYTE	W12
	BYTE		        Cn1   v112
	BYTE		N12     As1   v032
	BYTE	W12
	BYTE	PEND
// 023   ----------------------------------------
twofirstcampaigntest_8_023:
	BYTE	W12
	BYTE		N06     Cn1   v112
	BYTE		N12     As1   v032
	BYTE	W12
	BYTE		N06     Dn1   v084
	BYTE	W12
	BYTE		N12     As1   v032
	BYTE	W12
	BYTE		N06     Cn1   v112
	BYTE	W24
	BYTE		N03   
	BYTE	W24
	BYTE	PEND
// 024   ----------------------------------------
	BYTE	PATT
	 POIN2	twofirstcampaigntest_8_020
// 025   ----------------------------------------
	BYTE	PATT
	 POIN2	twofirstcampaigntest_8_004
// 026   ----------------------------------------
	BYTE	PATT
	 POIN2	twofirstcampaigntest_8_020
// 027   ----------------------------------------
	BYTE		N06     Cn1   v112
	BYTE	W12
	BYTE		N12     As1   v032
	BYTE	W12
	BYTE		N06     Dn1   v084
	BYTE		N48     Gn2   v080
	BYTE	W12
	BYTE		N12     As1   v032
	BYTE	W12
	BYTE		N06     Cn1   v112
	BYTE	W12
	BYTE		N06   
	BYTE		N12     As1   v032
	BYTE	W12
	BYTE		N06     Dn1   v084
	BYTE	W12
	BYTE		        Cn1   v112
	BYTE		N12     As1   v032
	BYTE	W12
// 028   ----------------------------------------
	BYTE	W12
	BYTE		N06     Cn1   v112
	BYTE		N12     As1   v032
	BYTE	W12
	BYTE		N06     Dn1   v084
	BYTE	W12
	BYTE		N12     As1   v032
	BYTE	W12
	BYTE		N06     Cn1   v112
	BYTE		N06     Dn1   v084
	BYTE		N06     Gs1   v048
	BYTE	W06
	BYTE		        Dn1   v084
	BYTE	W06
	BYTE		N06   
	BYTE	W06
	BYTE		N06   
	BYTE	W06
	BYTE		        Gs1   v048
	BYTE		N06     Cn2   v100
	BYTE	W06
	BYTE		        Cn2   v084
	BYTE	W06
	BYTE		        Cn1   v112
	BYTE	W06
	BYTE		        Fn1   v040
	BYTE	W06
// 029   ----------------------------------------
	BYTE	PATT
	 POIN2	twofirstcampaigntest_8_004
// 030   ----------------------------------------
	BYTE	PATT
	 POIN2	twofirstcampaigntest_8_005
// 031   ----------------------------------------
	BYTE	PATT
	 POIN2	twofirstcampaigntest_8_004
// 032   ----------------------------------------
	BYTE	PATT
	 POIN2	twofirstcampaigntest_8_005
// 033   ----------------------------------------
	BYTE	PATT
	 POIN2	twofirstcampaigntest_8_004
// 034   ----------------------------------------
	BYTE	PATT
	 POIN2	twofirstcampaigntest_8_005
// 035   ----------------------------------------
	BYTE	PATT
	 POIN2	twofirstcampaigntest_8_004
// 036   ----------------------------------------
	BYTE	PATT
	 POIN2	twofirstcampaigntest_8_005
// 037   ----------------------------------------
	BYTE	PATT
	 POIN2	twofirstcampaigntest_8_004
// 038   ----------------------------------------
	BYTE	PATT
	 POIN2	twofirstcampaigntest_8_005
// 039   ----------------------------------------
	BYTE	PATT
	 POIN2	twofirstcampaigntest_8_004
// 040   ----------------------------------------
	BYTE	PATT
	 POIN2	twofirstcampaigntest_8_005
// 041   ----------------------------------------
	BYTE	PATT
	 POIN2	twofirstcampaigntest_8_004
// 042   ----------------------------------------
	BYTE	PATT
	 POIN2	twofirstcampaigntest_8_005
// 043   ----------------------------------------
	BYTE	PATT
	 POIN2	twofirstcampaigntest_8_004
// 044   ----------------------------------------
	BYTE	PATT
	 POIN2	twofirstcampaigntest_8_019
// 045   ----------------------------------------
	BYTE	PATT
	 POIN2	twofirstcampaigntest_8_020
// 046   ----------------------------------------
	BYTE	PATT
	 POIN2	twofirstcampaigntest_8_004
// 047   ----------------------------------------
	BYTE	PATT
	 POIN2	twofirstcampaigntest_8_022
// 048   ----------------------------------------
	BYTE	PATT
	 POIN2	twofirstcampaigntest_8_023
// 049   ----------------------------------------
	BYTE	PATT
	 POIN2	twofirstcampaigntest_8_020
// 050   ----------------------------------------
	BYTE	PATT
	 POIN2	twofirstcampaigntest_8_004
// 051   ----------------------------------------
	BYTE	PATT
	 POIN2	twofirstcampaigntest_8_020
// 052   ----------------------------------------
	BYTE		N06     Cn1   v112
	BYTE	W12
	BYTE		N12     As1   v032
	BYTE	W12
	BYTE		N06     Dn1   v084
	BYTE	W12
	BYTE		N12     As1   v032
	BYTE	W12
	BYTE		N06     Dn1   v084
	BYTE		N06     Gs1   v048
	BYTE	W06
	BYTE		        Dn1   v084
	BYTE	W06
	BYTE		N06   
	BYTE	W06
	BYTE		N06   
	BYTE	W06
	BYTE		        Gs1   v048
	BYTE		N06     Cn2   v100
	BYTE	W06
	BYTE		        Cn2   v084
	BYTE	W06
	BYTE		        Cn1   v112
	BYTE	W06
	BYTE		        Fn1   v040
	BYTE	W06
// 053   ----------------------------------------
twofirstcampaigntest_8_053:
	BYTE		N06     Cn1   v112
	BYTE		N12     As1   v032
	BYTE	W24
	BYTE		N06     Dn1   v084
	BYTE		N12     As1   v032
	BYTE	W24
	BYTE		N06     Cn1   v112
	BYTE		N12     As1   v032
	BYTE	W12
	BYTE		N06     Cn1   v112
	BYTE	W12
	BYTE		        Dn1   v084
	BYTE		N12     As1   v032
	BYTE	W12
	BYTE		N06     Cn1   v112
	BYTE	W12
	BYTE	PEND
// 054   ----------------------------------------
twofirstcampaigntest_8_054:
	BYTE		N12     As1   v032
	BYTE	W12
	BYTE		N06     Cn1   v112
	BYTE	W12
	BYTE		        Dn1   v084
	BYTE		N12     As1   v032
	BYTE	W24
	BYTE		N06     Cn1   v112
	BYTE		N12     As1   v032
	BYTE	W24
	BYTE		N06     Dn1   v084
	BYTE		N12     As1   v032
	BYTE	W24
	BYTE	PEND
// 055   ----------------------------------------
	BYTE	PATT
	 POIN2	twofirstcampaigntest_8_053
// 056   ----------------------------------------
	BYTE	PATT
	 POIN2	twofirstcampaigntest_8_054
// 057   ----------------------------------------
	BYTE	PATT
	 POIN2	twofirstcampaigntest_8_053
// 058   ----------------------------------------
	BYTE	PATT
	 POIN2	twofirstcampaigntest_8_054
// 059   ----------------------------------------
	BYTE	PATT
	 POIN2	twofirstcampaigntest_8_053
// 060   ----------------------------------------
	BYTE	PATT
	 POIN2	twofirstcampaigntest_8_054
// 061   ----------------------------------------
	BYTE	PATT
	 POIN2	twofirstcampaigntest_8_053
// 062   ----------------------------------------
	BYTE	PATT
	 POIN2	twofirstcampaigntest_8_054
// 063   ----------------------------------------
	BYTE	PATT
	 POIN2	twofirstcampaigntest_8_053
// 064   ----------------------------------------
	BYTE	PATT
	 POIN2	twofirstcampaigntest_8_054
// 065   ----------------------------------------
	BYTE	PATT
	 POIN2	twofirstcampaigntest_8_053
// 066   ----------------------------------------
	BYTE	PATT
	 POIN2	twofirstcampaigntest_8_054
// 067   ----------------------------------------
	BYTE		N03     Cn1   v112
	BYTE	W06
	BYTE		N03   
	BYTE	W12
	BYTE		N03   
	BYTE	W06
	BYTE		N12     Gn2   v127
	BYTE	W06
	BYTE		N03     Cn1   v112
	BYTE	W12
	BYTE		N03   
	BYTE	W12
	BYTE		N03   
	BYTE	W12
	BYTE		N03   
	BYTE	W18
	BYTE		N03   
	BYTE	W12
// 068   ----------------------------------------
	BYTE	W06
	BYTE		N03   
	BYTE	W12
	BYTE		N03   
	BYTE	W06
	BYTE		N03   
	BYTE	W36
	BYTE		N03   
	BYTE	W06
	BYTE		N03   
	BYTE	W18
	BYTE		N03   
	BYTE	W06
	BYTE		N03   
	BYTE	W06
	BYTE	GoTo
	 POIN2	twofirstcampaigntest_8_B1
twofirstcampaigntest_8_B2:
// 069   ----------------------------------------
	BYTE	FINE

//******************************************************//
	ALIGN 4

songTheFirstCampaign:
	BYTE	8	// NumTrks
	BYTE	0	// NumBlks
	BYTE	twofirstcampaigntest_pri	// Priority
	BYTE	twofirstcampaigntest_rev	// Reverb.

	POIN2	twofirstcampaigntest_grp

	POIN2	twofirstcampaigntest_1
	POIN2	twofirstcampaigntest_2
	POIN2	twofirstcampaigntest_3
	POIN2	twofirstcampaigntest_4
	POIN2	twofirstcampaigntest_5
	POIN2	twofirstcampaigntest_6
	POIN2	twofirstcampaigntest_7
	POIN2	twofirstcampaigntest_8

	
