//Event file generated from Sappy .s format.
	#include "MPlayDef.event"

	#define	songTheLawOfBattle_grp  voicegroup000
	#define	songTheLawOfBattle_pri  0
	#define	songTheLawOfBattle_rev  0
	#define	songTheLawOfBattle_mvl  150
	#define	songTheLawOfBattle_key  0
	#define	songTheLawOfBattle_tbs  1
	#define	songTheLawOfBattle_exg  0
	#define	songTheLawOfBattle_cmp  1

	// .rodata
	//	songTheLawOfBattle
	ALIGN 4


//**************** Track 1 (Midi-Chn.0) ****************//

songTheLawOfBattle_001:
// 000   ----------------------------------------
 BYTE   KEYSH   songTheLawOfBattle_key+0
LabelTheLawOfBattle_0_01058EE6:
 BYTE   TEMPO   200*songTheLawOfBattle_tbs/2
 BYTE   VOICE   29
 BYTE   VOL   18*songTheLawOfBattle_mvl/mxv
 BYTE   MODT 0
 BYTE   CnM2
 BYTE   LFOS 0
 BYTE   Gs1
 BYTE   VOL   28*songTheLawOfBattle_mvl/mxv
 BYTE   PAN   c_v+0
 BYTE   VOL   18*songTheLawOfBattle_mvl/mxv
 BYTE   MODT 0
 BYTE   CnM2
 BYTE   LFOS 0
 BYTE   Gs1
 BYTE   VOL   28*songTheLawOfBattle_mvl/mxv
 BYTE   PAN   c_v+0
 BYTE   VOL   28*songTheLawOfBattle_mvl/mxv
 BYTE   N48  En1  v127
 BYTE   N24  Bn1
 BYTE   W24
 BYTE   N12
 BYTE   W12
 BYTE   N12
 BYTE   W12
 BYTE   N48  En1
 BYTE   N24  Bn1
 BYTE   W24
 BYTE   N12
 BYTE   W12
 BYTE   N12
 BYTE   W12
// 001   ----------------------------------------
LabelTheLawOfBattle_0_01058F13:
 BYTE   N48  En1  v127
 BYTE   N24  Bn1
 BYTE   W24
 BYTE   N12
 BYTE   W12
 BYTE   N12
 BYTE   W12
 BYTE   En1
 BYTE   N12  Bn1
 BYTE   W12
 BYTE   N36  Fn1
 BYTE   N36  Cn2
 BYTE   W36
 BYTE   PEND 
// 002   ----------------------------------------
LabelTheLawOfBattle_0_01058F27:
 BYTE   N48  En1  v127
 BYTE   N24  Bn1
 BYTE   W24
 BYTE   N12
 BYTE   W12
 BYTE   N12
 BYTE   W12
 BYTE   N48  En1
 BYTE   N24  Bn1
 BYTE   W24
 BYTE   N12
 BYTE   W12
 BYTE   N12
 BYTE   W12
 BYTE   PEND 
 BYTE   PATT
  POIN2 LabelTheLawOfBattle_0_01058F13
 BYTE   PATT
  POIN2 LabelTheLawOfBattle_0_01058F27
 BYTE   PATT
  POIN2 LabelTheLawOfBattle_0_01058F13
 BYTE   PATT
  POIN2 LabelTheLawOfBattle_0_01058F27
// 003   ----------------------------------------
LabelTheLawOfBattle_0_01058F4F:
 BYTE   N12  En1  v127
 BYTE   N12  Bn1
 BYTE   W12
 BYTE   N24  Gn1
 BYTE   N24  Dn2
 BYTE   W24
 BYTE   Fs1
 BYTE   N24  Cs2
 BYTE   W24
 BYTE   N36  Fn1
 BYTE   N36  Cn2
 BYTE   W36
 BYTE   PEND 
 BYTE   PATT
  POIN2 LabelTheLawOfBattle_0_01058F27
 BYTE   PATT
  POIN2 LabelTheLawOfBattle_0_01058F13
 BYTE   PATT
  POIN2 LabelTheLawOfBattle_0_01058F27
// 004   ----------------------------------------
LabelTheLawOfBattle_0_01058F73:
 BYTE   N48  En1  v127
 BYTE   N24  Bn1
 BYTE   W24
 BYTE   N12
 BYTE   W12
 BYTE   N12
 BYTE   W12
 BYTE   En1
 BYTE   N12  Bn1
 BYTE   W12
 BYTE   N36  Gn1
 BYTE   N36  Dn2
 BYTE   W36
 BYTE   PEND 
 BYTE   PATT
  POIN2 LabelTheLawOfBattle_0_01058F27
 BYTE   PATT
  POIN2 LabelTheLawOfBattle_0_01058F13
 BYTE   PATT
  POIN2 LabelTheLawOfBattle_0_01058F27
 BYTE   PATT
  POIN2 LabelTheLawOfBattle_0_01058F4F
// 005   ----------------------------------------
 BYTE   N96  En1  v127
 BYTE   N96  An1
 BYTE   W96
// 006   ----------------------------------------
 BYTE   Dn1
 BYTE   N96  Gn1
 BYTE   W96
 BYTE   PATT
  POIN2 LabelTheLawOfBattle_0_01058F27
 BYTE   PATT
  POIN2 LabelTheLawOfBattle_0_01058F73
// 007   ----------------------------------------
 BYTE   N96  Fn1  v127
 BYTE   N96  Cn2
 BYTE   W96
// 008   ----------------------------------------
 BYTE   Gn1
 BYTE   N96  Dn2
 BYTE   W96
 BYTE   PATT
  POIN2 LabelTheLawOfBattle_0_01058F27
 BYTE   PATT
  POIN2 LabelTheLawOfBattle_0_01058F13
 BYTE   PATT
  POIN2 LabelTheLawOfBattle_0_01058F27
 BYTE   PATT
  POIN2 LabelTheLawOfBattle_0_01058F4F
 BYTE   PATT
  POIN2 LabelTheLawOfBattle_0_01058F27
 BYTE   PATT
  POIN2 LabelTheLawOfBattle_0_01058F13
 BYTE   PATT
  POIN2 LabelTheLawOfBattle_0_01058F27
 BYTE   PATT
  POIN2 LabelTheLawOfBattle_0_01058F73
 BYTE   PATT
  POIN2 LabelTheLawOfBattle_0_01058F27
 BYTE   PATT
  POIN2 LabelTheLawOfBattle_0_01058F13
 BYTE   PATT
  POIN2 LabelTheLawOfBattle_0_01058F27
 BYTE   PATT
  POIN2 LabelTheLawOfBattle_0_01058F4F
// 009   ----------------------------------------
 BYTE   N96  En1  v127
 BYTE   N96  An1
 BYTE   W96
// 010   ----------------------------------------
 BYTE   Dn1
 BYTE   N96  Gn1
 BYTE   W96
 BYTE   PATT
  POIN2 LabelTheLawOfBattle_0_01058F27
 BYTE   PATT
  POIN2 LabelTheLawOfBattle_0_01058F73
// 011   ----------------------------------------
LabelTheLawOfBattle_0_01059009:
 BYTE   N12  Dn1  v127
 BYTE   N12  An1
 BYTE   W12
 BYTE   En1
 BYTE   N12  Bn1
 BYTE   W24
 BYTE   En1
 BYTE   N12  Bn1
 BYTE   W24
 BYTE   Dn1
 BYTE   N12  An1
 BYTE   W12
 BYTE   En1
 BYTE   N12  Bn1
 BYTE   W24
 BYTE   PEND 
// 012   ----------------------------------------
LabelTheLawOfBattle_0_01059020:
 BYTE   N12  En1  v127
 BYTE   N12  Bn1
 BYTE   W12
 BYTE   Dn1
 BYTE   N12  An1
 BYTE   W12
 BYTE   En1
 BYTE   N12  Bn1
 BYTE   W12
 BYTE   Dn1
 BYTE   N12  An1
 BYTE   W12
 BYTE   Cn1
 BYTE   N12  Gn1
 BYTE   W12
 BYTE   Bn0
 BYTE   N12  Fs1
 BYTE   W12
 BYTE   N24  An0
 BYTE   N24  Fn1
 BYTE   W24
 BYTE   PEND 
 BYTE   PATT
  POIN2 LabelTheLawOfBattle_0_01059009
// 013   ----------------------------------------
LabelTheLawOfBattle_0_01059045:
 BYTE   N12  En1  v127
 BYTE   N12  Bn1
 BYTE   W12
 BYTE   N24  Cn1
 BYTE   N24  Gn1
 BYTE   W24
 BYTE   Dn1
 BYTE   N24  Gs1
 BYTE   W24
 BYTE   N36  Ds1
 BYTE   N36  An1
 BYTE   W36
 BYTE   PEND 
 BYTE   PATT
  POIN2 LabelTheLawOfBattle_0_01059009
 BYTE   PATT
  POIN2 LabelTheLawOfBattle_0_01059020
 BYTE   PATT
  POIN2 LabelTheLawOfBattle_0_01059009
 BYTE   PATT
  POIN2 LabelTheLawOfBattle_0_01059045
 BYTE   PATT
  POIN2 LabelTheLawOfBattle_0_01059009
 BYTE   PATT
  POIN2 LabelTheLawOfBattle_0_01059020
 BYTE   PATT
  POIN2 LabelTheLawOfBattle_0_01059009
 BYTE   PATT
  POIN2 LabelTheLawOfBattle_0_01059045
 BYTE   PATT
  POIN2 LabelTheLawOfBattle_0_01059009
 BYTE   PATT
  POIN2 LabelTheLawOfBattle_0_01059020
 BYTE   PATT
  POIN2 LabelTheLawOfBattle_0_01059009
 BYTE   PATT
  POIN2 LabelTheLawOfBattle_0_01059045
// 014   ----------------------------------------
 BYTE   N96  En1  v127
 BYTE   N96  An1
 BYTE   W96
// 015   ----------------------------------------
 BYTE   Dn1
 BYTE   N96  Gn1
 BYTE   W96
 BYTE   PATT
  POIN2 LabelTheLawOfBattle_0_01058F27
 BYTE   PATT
  POIN2 LabelTheLawOfBattle_0_01058F73
// 016   ----------------------------------------
 BYTE   N96  En1  v127
 BYTE   N96  An1
 BYTE   W96
// 017   ----------------------------------------
 BYTE   Dn1
 BYTE   N96  Gn1
 BYTE   W96
// 018   ----------------------------------------
 BYTE   An0
 BYTE   N96  Dn1
 BYTE   W96
// 019   ----------------------------------------
 BYTE   Bn0
 BYTE   N96  En1
 BYTE   W96
// 020   ----------------------------------------
 BYTE   Fn1
 BYTE   N96  Cn2
 BYTE   W96
// 021   ----------------------------------------
 BYTE   Gn1
 BYTE   N96  Dn2
 BYTE   W96
// 022   ----------------------------------------
 BYTE   W24
 BYTE   GoTo
  POIN2 LabelTheLawOfBattle_0_01058EE6
 BYTE   FINE

//**************** Track 2 (Midi-Chn.1) ****************//

songTheLawOfBattle_002:
// 000   ----------------------------------------
 BYTE   KEYSH   songTheLawOfBattle_key+0
LabelTheLawOfBattle_1_010590CE:
 BYTE   VOICE   32
 BYTE   VOL   12*songTheLawOfBattle_mvl/mxv
 BYTE   MODT 0
 BYTE   CnM2
 BYTE   LFOS 0
 BYTE   Gs1
 BYTE   VOL   18*songTheLawOfBattle_mvl/mxv
 BYTE   PAN   c_v+0
 BYTE   VOL   18*songTheLawOfBattle_mvl/mxv
 BYTE   N12  En1  v127
 BYTE   W48
 BYTE   N12
 BYTE   W48
// 001   ----------------------------------------
LabelTheLawOfBattle_1_010590E2:
 BYTE   N12  En1  v127
 BYTE   W24
 BYTE   En2
 BYTE   W24
 BYTE   Dn2
 BYTE   W24
 BYTE   En2
 BYTE   W24
 BYTE   PEND 
// 002   ----------------------------------------
LabelTheLawOfBattle_1_010590ED:
 BYTE   N12  En1  v127
 BYTE   W48
 BYTE   N12
 BYTE   W48
 BYTE   PEND 
// 003   ----------------------------------------
 BYTE   N12
 BYTE   W24
 BYTE   En2
 BYTE   W12
 BYTE   N12
 BYTE   W12
 BYTE   N12
 BYTE   W48
 BYTE   PATT
  POIN2 LabelTheLawOfBattle_1_010590ED
// 004   ----------------------------------------
LabelTheLawOfBattle_1_01059101:
 BYTE   N12  En1  v127
 BYTE   W24
 BYTE   En2
 BYTE   W24
 BYTE   Dn2
 BYTE   W12
 BYTE   Gn2
 BYTE   W36
 BYTE   PEND 
 BYTE   PATT
  POIN2 LabelTheLawOfBattle_1_010590ED
 BYTE   PATT
  POIN2 LabelTheLawOfBattle_1_010590ED
 BYTE   PATT
  POIN2 LabelTheLawOfBattle_1_010590ED
 BYTE   PATT
  POIN2 LabelTheLawOfBattle_1_010590E2
 BYTE   PATT
  POIN2 LabelTheLawOfBattle_1_010590ED
// 005   ----------------------------------------
LabelTheLawOfBattle_1_01059125:
 BYTE   N12  En1  v127
 BYTE   W24
 BYTE   En2
 BYTE   W12
 BYTE   N12
 BYTE   W12
 BYTE   Gn2
 BYTE   W48
 BYTE   PEND 
 BYTE   PATT
  POIN2 LabelTheLawOfBattle_1_010590ED
 BYTE   PATT
  POIN2 LabelTheLawOfBattle_1_01059101
 BYTE   PATT
  POIN2 LabelTheLawOfBattle_1_010590ED
 BYTE   PATT
  POIN2 LabelTheLawOfBattle_1_010590ED
// 006   ----------------------------------------
LabelTheLawOfBattle_1_01059144:
 BYTE   W48
 BYTE   N12  An2  v127
 BYTE   W24
 BYTE   N12
 BYTE   W24
 BYTE   PEND 
// 007   ----------------------------------------
LabelTheLawOfBattle_1_0105914C:
 BYTE   W48
 BYTE   N12  Gn2  v127
 BYTE   W24
 BYTE   N12
 BYTE   W24
 BYTE   PEND 
// 008   ----------------------------------------
LabelTheLawOfBattle_1_01059154:
 BYTE   N12  Dn1  v127
 BYTE   W24
 BYTE   Dn2
 BYTE   W24
 BYTE   Cn2
 BYTE   W24
 BYTE   Dn2
 BYTE   W24
 BYTE   PEND 
 BYTE   PATT
  POIN2 LabelTheLawOfBattle_1_010590E2
// 009   ----------------------------------------
LabelTheLawOfBattle_1_01059164:
 BYTE   N36  Fn1  v127
 BYTE   W36
 BYTE   Cn2
 BYTE   W36
 BYTE   N24  Fn2
 BYTE   W24
 BYTE   PEND 
// 010   ----------------------------------------
LabelTheLawOfBattle_1_0105916E:
 BYTE   N36  Gn2  v127
 BYTE   W36
 BYTE   Dn2
 BYTE   W36
 BYTE   N24  Gn2
 BYTE   W24
 BYTE   PEND 
 BYTE   PATT
  POIN2 LabelTheLawOfBattle_1_010590ED
 BYTE   PATT
  POIN2 LabelTheLawOfBattle_1_01059101
 BYTE   PATT
  POIN2 LabelTheLawOfBattle_1_010590ED
 BYTE   PATT
  POIN2 LabelTheLawOfBattle_1_010590ED
 BYTE   PATT
  POIN2 LabelTheLawOfBattle_1_010590ED
 BYTE   PATT
  POIN2 LabelTheLawOfBattle_1_010590E2
 BYTE   PATT
  POIN2 LabelTheLawOfBattle_1_010590ED
 BYTE   PATT
  POIN2 LabelTheLawOfBattle_1_01059125
 BYTE   PATT
  POIN2 LabelTheLawOfBattle_1_010590ED
 BYTE   PATT
  POIN2 LabelTheLawOfBattle_1_01059101
 BYTE   PATT
  POIN2 LabelTheLawOfBattle_1_010590ED
 BYTE   PATT
  POIN2 LabelTheLawOfBattle_1_010590ED
 BYTE   PATT
  POIN2 LabelTheLawOfBattle_1_01059144
 BYTE   PATT
  POIN2 LabelTheLawOfBattle_1_0105914C
 BYTE   PATT
  POIN2 LabelTheLawOfBattle_1_01059154
 BYTE   PATT
  POIN2 LabelTheLawOfBattle_1_010590E2
// 011   ----------------------------------------
 BYTE   W48
 BYTE   N12  Gn1  v127
 BYTE   W48
// 012   ----------------------------------------
 BYTE   W48
 BYTE   N12
 BYTE   W48
// 013   ----------------------------------------
LabelTheLawOfBattle_1_010591D0:
 BYTE   W24
 BYTE   N12  Gn1  v127
 BYTE   W48
 BYTE   N12
 BYTE   W24
 BYTE   PEND 
// 014   ----------------------------------------
 BYTE   W48
 BYTE   N12
 BYTE   W48
 BYTE   PATT
  POIN2 LabelTheLawOfBattle_1_010591D0
 BYTE   PATT
  POIN2 LabelTheLawOfBattle_1_010591D0
 BYTE   PATT
  POIN2 LabelTheLawOfBattle_1_010591D0
// 015   ----------------------------------------
 BYTE   N36  Dn1  v127
 BYTE   W36
 BYTE   Ds1
 BYTE   W36
 BYTE   N24  En1
 BYTE   W24
// 016   ----------------------------------------
 BYTE   W48
 BYTE   N12  Gn1
 BYTE   W48
// 017   ----------------------------------------
 BYTE   W48
 BYTE   N12
 BYTE   W48
// 018   ----------------------------------------
 BYTE   W96
// 019   ----------------------------------------
 BYTE   W48
 BYTE   En1
 BYTE   W24
 BYTE   Dn1
 BYTE   W12
 BYTE   En1
 BYTE   W12
// 020   ----------------------------------------
 BYTE   N12
 BYTE   W24
 BYTE   N12
 BYTE   W24
 BYTE   Dn1
 BYTE   W12
 BYTE   En1
 BYTE   W36
 BYTE   PATT
  POIN2 LabelTheLawOfBattle_1_010591D0
 BYTE   PATT
  POIN2 LabelTheLawOfBattle_1_010591D0
// 021   ----------------------------------------
 BYTE   W12
 BYTE   N12  Gn1  v127
 BYTE   W24
 BYTE   N12
 BYTE   W12
 BYTE   N12
 BYTE   W12
 BYTE   N12
 BYTE   W36
 BYTE   PATT
  POIN2 LabelTheLawOfBattle_1_01059144
 BYTE   PATT
  POIN2 LabelTheLawOfBattle_1_0105914C
 BYTE   PATT
  POIN2 LabelTheLawOfBattle_1_01059154
 BYTE   PATT
  POIN2 LabelTheLawOfBattle_1_010590E2
// 022   ----------------------------------------
 BYTE   W48
 BYTE   N12  An1  v127
 BYTE   W24
 BYTE   N12
 BYTE   W24
// 023   ----------------------------------------
 BYTE   W48
 BYTE   Gn1
 BYTE   W24
 BYTE   N12
 BYTE   W24
// 024   ----------------------------------------
 BYTE   W48
 BYTE   N12
 BYTE   W48
// 025   ----------------------------------------
 BYTE   N12
 BYTE   W48
 BYTE   N12
 BYTE   W48
 BYTE   PATT
  POIN2 LabelTheLawOfBattle_1_01059164
 BYTE   PATT
  POIN2 LabelTheLawOfBattle_1_0105916E
// 026   ----------------------------------------
 BYTE   W24
 BYTE   GoTo
  POIN2 LabelTheLawOfBattle_1_010590CE
 BYTE   FINE

//**************** Track 3 (Midi-Chn.2) ****************//

songTheLawOfBattle_003:
// 000   ----------------------------------------
 BYTE   KEYSH   songTheLawOfBattle_key+0
LabelTheLawOfBattle_2_0105925A:
 BYTE   VOICE   20
 BYTE   VOL   25*songTheLawOfBattle_mvl/mxv
 BYTE   MODT 0
 BYTE   CnM2
 BYTE   LFOS 0
 BYTE   Gs1
 BYTE   VOL   39*songTheLawOfBattle_mvl/mxv
 BYTE   PAN   c_v+0
 BYTE   VOL   25*songTheLawOfBattle_mvl/mxv
 BYTE   MODT 0
 BYTE   CnM2
 BYTE   LFOS 0
 BYTE   Gs1
 BYTE   VOL   39*songTheLawOfBattle_mvl/mxv
 BYTE   PAN   c_v+0
 BYTE   VOL   39*songTheLawOfBattle_mvl/mxv
 BYTE   W96
// 001   ----------------------------------------
 BYTE   W96
// 002   ----------------------------------------
 BYTE   W96
// 003   ----------------------------------------
 BYTE   W96
// 004   ----------------------------------------
 BYTE   TIE  En3  v127
 BYTE   W96
// 005   ----------------------------------------
 BYTE   W24
 BYTE   EOT
 BYTE   N12  Fs3
 BYTE   W12
 BYTE   Gn3
 BYTE   W12
 BYTE   N48  En4
 BYTE   W48
// 006   ----------------------------------------
 BYTE   TIE  Dn4
 BYTE   W96
// 007   ----------------------------------------
 BYTE   W24
 BYTE   EOT
 BYTE   N48  Gn4
 BYTE   W48
 BYTE   N12  Fs4
 BYTE   W12
 BYTE   En4
 BYTE   W12
// 008   ----------------------------------------
LabelTheLawOfBattle_2_01059291:
 BYTE   N24  Dn4  v127
 BYTE   W24
 BYTE   N08  En4
 BYTE   W08
 BYTE   Fs4
 BYTE   W08
 BYTE   Gn4
 BYTE   W08
 BYTE   N06  An4
 BYTE   W06
 BYTE   Bn4
 BYTE   W06
 BYTE   An4
 BYTE   W06
 BYTE   Gn4
 BYTE   W06
 BYTE   Fs4
 BYTE   W06
 BYTE   En4
 BYTE   W06
 BYTE   Dn4
 BYTE   W06
 BYTE   Gn4
 BYTE   W06
 BYTE   PEND 
// 009   ----------------------------------------
LabelTheLawOfBattle_2_010592AE:
 BYTE   N06  Fs4  v127
 BYTE   W06
 BYTE   En4
 BYTE   W06
 BYTE   Dn4
 BYTE   W06
 BYTE   Cn4
 BYTE   W06
 BYTE   Bn3
 BYTE   W06
 BYTE   N30  Cn4
 BYTE   W30
 BYTE   N06  Bn3
 BYTE   W06
 BYTE   Cn4
 BYTE   W06
 BYTE   N24  Bn3
 BYTE   W24
 BYTE   PEND 
// 010   ----------------------------------------
 BYTE   N96  An3
 BYTE   W96
// 011   ----------------------------------------
 BYTE   Bn3
 BYTE   W96
// 012   ----------------------------------------
 BYTE   TIE  En3
 BYTE   W96
// 013   ----------------------------------------
 BYTE   W24
 BYTE   EOT
 BYTE   N12  Fs3
 BYTE   W12
 BYTE   Gn3
 BYTE   W12
 BYTE   N48  En4
 BYTE   W48
// 014   ----------------------------------------
 BYTE   TIE  Dn4
 BYTE   W96
// 015   ----------------------------------------
 BYTE   W24
 BYTE   EOT
 BYTE   N48  Gn4
 BYTE   W48
 BYTE   N12  Fs4
 BYTE   W12
 BYTE   En4
 BYTE   W12
// 016   ----------------------------------------
LabelTheLawOfBattle_2_010592E5:
 BYTE   N06  En4  v127
 BYTE   W06
 BYTE   Fs4
 BYTE   W06
 BYTE   Gn4
 BYTE   W06
 BYTE   An4
 BYTE   W06
 BYTE   Bn4
 BYTE   W06
 BYTE   An4
 BYTE   W06
 BYTE   Gn4
 BYTE   W06
 BYTE   Fs4
 BYTE   W06
 BYTE   En4
 BYTE   W06
 BYTE   Dn4
 BYTE   W06
 BYTE   Gn4
 BYTE   W06
 BYTE   Fs4
 BYTE   W06
 BYTE   En4
 BYTE   W06
 BYTE   Dn4
 BYTE   W06
 BYTE   Cn4
 BYTE   W06
 BYTE   Bn3
 BYTE   W06
 BYTE   PEND 
// 017   ----------------------------------------
LabelTheLawOfBattle_2_01059308:
 BYTE   N06  Bn3  v127
 BYTE   W06
 BYTE   Gn3
 BYTE   W06
 BYTE   Cn4
 BYTE   W06
 BYTE   Bn3
 BYTE   W06
 BYTE   An3
 BYTE   W06
 BYTE   Gn3
 BYTE   W06
 BYTE   Fs3
 BYTE   W06
 BYTE   Gn3
 BYTE   W06
 BYTE   An3
 BYTE   W06
 BYTE   Bn3
 BYTE   W06
 BYTE   Cn4
 BYTE   W06
 BYTE   Bn3
 BYTE   W06
 BYTE   An3
 BYTE   W06
 BYTE   Gn3
 BYTE   W06
 BYTE   Fs3
 BYTE   W06
 BYTE   En3
 BYTE   W06
 BYTE   PEND 
// 018   ----------------------------------------
LabelTheLawOfBattle_2_0105932B:
 BYTE   N36  Dn3  v127
 BYTE   W36
 BYTE   An3
 BYTE   W36
 BYTE   N24  Dn4
 BYTE   W24
 BYTE   PEND 
// 019   ----------------------------------------
LabelTheLawOfBattle_2_01059335:
 BYTE   N06  En4  v127
 BYTE   W06
 BYTE   Fs4
 BYTE   W06
 BYTE   Gn4
 BYTE   W06
 BYTE   An4
 BYTE   W06
 BYTE   Bn4
 BYTE   W06
 BYTE   An4
 BYTE   W06
 BYTE   Gn4
 BYTE   W06
 BYTE   Fs4
 BYTE   W06
 BYTE   An4
 BYTE   W06
 BYTE   Gn4
 BYTE   W06
 BYTE   Fs4
 BYTE   W06
 BYTE   En4
 BYTE   W06
 BYTE   Gn4
 BYTE   W06
 BYTE   Fs4
 BYTE   W06
 BYTE   En4
 BYTE   W06
 BYTE   Dn4
 BYTE   W06
 BYTE   PEND 
// 020   ----------------------------------------
LabelTheLawOfBattle_2_01059358:
 BYTE   N48  Fn3  v127
 BYTE   W48
 BYTE   N16  En4
 BYTE   W16
 BYTE   Dn4
 BYTE   W16
 BYTE   Cn4
 BYTE   W16
 BYTE   PEND 
// 021   ----------------------------------------
LabelTheLawOfBattle_2_01059364:
 BYTE   N16  Bn3  v127
 BYTE   W16
 BYTE   Cn4
 BYTE   W16
 BYTE   Dn4
 BYTE   W16
 BYTE   N48  Gn4
 BYTE   W48
 BYTE   PEND 
// 022   ----------------------------------------
 BYTE   TIE  En3
 BYTE   W96
// 023   ----------------------------------------
 BYTE   W24
 BYTE   EOT
 BYTE   N12  Fs3
 BYTE   W12
 BYTE   Gn3
 BYTE   W12
 BYTE   N48  En4
 BYTE   W48
// 024   ----------------------------------------
 BYTE   TIE  Dn4
 BYTE   W96
// 025   ----------------------------------------
 BYTE   W24
 BYTE   EOT
 BYTE   N48  Gn4
 BYTE   W48
 BYTE   N12  Fs4
 BYTE   W12
 BYTE   En4
 BYTE   W12
 BYTE   PATT
  POIN2 LabelTheLawOfBattle_2_01059291
 BYTE   PATT
  POIN2 LabelTheLawOfBattle_2_010592AE
// 026   ----------------------------------------
 BYTE   N96  An3  v127
 BYTE   W96
// 027   ----------------------------------------
 BYTE   Bn3
 BYTE   W96
// 028   ----------------------------------------
 BYTE   TIE  En3
 BYTE   W96
// 029   ----------------------------------------
 BYTE   W24
 BYTE   EOT
 BYTE   N12  Fs3
 BYTE   W12
 BYTE   Gn3
 BYTE   W12
 BYTE   N48  En4
 BYTE   W48
// 030   ----------------------------------------
 BYTE   TIE  Dn4
 BYTE   W96
// 031   ----------------------------------------
 BYTE   W24
 BYTE   EOT
 BYTE   N48  Gn4
 BYTE   W48
 BYTE   N12  Fs4
 BYTE   W12
 BYTE   En4
 BYTE   W12
 BYTE   PATT
  POIN2 LabelTheLawOfBattle_2_010592E5
 BYTE   PATT
  POIN2 LabelTheLawOfBattle_2_01059308
 BYTE   PATT
  POIN2 LabelTheLawOfBattle_2_0105932B
 BYTE   PATT
  POIN2 LabelTheLawOfBattle_2_01059335
// 032   ----------------------------------------
 BYTE   W96
// 033   ----------------------------------------
 BYTE   W96
// 034   ----------------------------------------
 BYTE   W96
// 035   ----------------------------------------
 BYTE   W96
// 036   ----------------------------------------
 BYTE   N48  En3  v127
 BYTE   W48
 BYTE   N12  Bn3
 BYTE   W12
 BYTE   N60  En3
 BYTE   W36
// 037   ----------------------------------------
 BYTE   W24
 BYTE   Gn3
 BYTE   W60
 BYTE   N06  Fs3
 BYTE   W06
 BYTE   En3
 BYTE   W06
// 038   ----------------------------------------
 BYTE   Dn3
 BYTE   W06
 BYTE   En3
 BYTE   W06
 BYTE   Fs3
 BYTE   W06
 BYTE   Gn3
 BYTE   W06
 BYTE   N84  An3
 BYTE   W72
// 039   ----------------------------------------
 BYTE   W12
 BYTE   N36  Gn3
 BYTE   W36
 BYTE   N12  Bn3
 BYTE   W12
 BYTE   An3
 BYTE   W12
 BYTE   Bn3
 BYTE   W12
 BYTE   N36  Cn4
 BYTE   W12
// 040   ----------------------------------------
 BYTE   W24
 BYTE   N06  Bn3
 BYTE   W06
 BYTE   An3
 BYTE   W06
 BYTE   Cn4
 BYTE   W06
 BYTE   Bn3
 BYTE   W06
 BYTE   An3
 BYTE   W06
 BYTE   Gn3
 BYTE   W06
 BYTE   Fs3
 BYTE   W06
 BYTE   En3
 BYTE   W06
 BYTE   An3
 BYTE   W06
 BYTE   Gn3
 BYTE   W06
 BYTE   Fs3
 BYTE   W06
 BYTE   En3
 BYTE   W06
// 041   ----------------------------------------
 BYTE   Dn3
 BYTE   W06
 BYTE   Cn3
 BYTE   W06
 BYTE   Fs3
 BYTE   W06
 BYTE   En3
 BYTE   W06
 BYTE   Dn3
 BYTE   W06
 BYTE   Cn3
 BYTE   W06
 BYTE   Bn2
 BYTE   W06
 BYTE   An2
 BYTE   W06
 BYTE   Gn2
 BYTE   W06
 BYTE   An2
 BYTE   W06
 BYTE   Bn2
 BYTE   W06
 BYTE   Cn3
 BYTE   W06
 BYTE   Bn2
 BYTE   W06
 BYTE   An2
 BYTE   W06
 BYTE   Gn2
 BYTE   W06
 BYTE   Fs2
 BYTE   W06
// 042   ----------------------------------------
 BYTE   N24  En2
 BYTE   W24
 BYTE   N12  Dn2
 BYTE   W12
 BYTE   En2
 BYTE   W12
 BYTE   Fs2
 BYTE   W12
 BYTE   Gn2
 BYTE   W12
 BYTE   N06  An2
 BYTE   W06
 BYTE   Bn2
 BYTE   W06
 BYTE   An2
 BYTE   W06
 BYTE   Gn2
 BYTE   W06
// 043   ----------------------------------------
 BYTE   Bn2
 BYTE   W06
 BYTE   Cn3
 BYTE   W06
 BYTE   Bn2
 BYTE   W06
 BYTE   An2
 BYTE   W06
 BYTE   Cn3
 BYTE   W06
 BYTE   Dn3
 BYTE   W06
 BYTE   Cn3
 BYTE   W06
 BYTE   Bn2
 BYTE   W06
 BYTE   Dn3
 BYTE   W06
 BYTE   En3
 BYTE   W06
 BYTE   Dn3
 BYTE   W06
 BYTE   Cn3
 BYTE   W06
 BYTE   N36  Fs3
 BYTE   W24
// 044   ----------------------------------------
 BYTE   W12
 BYTE   N12  Dn3
 BYTE   W12
 BYTE   En3
 BYTE   W12
 BYTE   Fs3
 BYTE   W12
 BYTE   Gn3
 BYTE   W12
 BYTE   An3
 BYTE   W12
 BYTE   Bn3
 BYTE   W12
 BYTE   N60  Cn4
 BYTE   W12
// 045   ----------------------------------------
 BYTE   W48
 BYTE   N06  Bn3
 BYTE   W06
 BYTE   Cn4
 BYTE   W06
 BYTE   Bn3
 BYTE   W06
 BYTE   An3
 BYTE   W06
 BYTE   Cn4
 BYTE   W06
 BYTE   Bn3
 BYTE   W06
 BYTE   An3
 BYTE   W06
 BYTE   Gn3
 BYTE   W06
// 046   ----------------------------------------
 BYTE   N60  Fs3
 BYTE   W60
 BYTE   N12  En3
 BYTE   W12
 BYTE   Fs3
 BYTE   W12
 BYTE   Dn3
 BYTE   W12
// 047   ----------------------------------------
 BYTE   N06  Fs3
 BYTE   W06
 BYTE   En3
 BYTE   W06
 BYTE   Dn3
 BYTE   W06
 BYTE   Cn3
 BYTE   W06
 BYTE   En3
 BYTE   W06
 BYTE   Dn3
 BYTE   W06
 BYTE   Cn3
 BYTE   W06
 BYTE   Bn2
 BYTE   W06
 BYTE   An2
 BYTE   W06
 BYTE   Bn2
 BYTE   W06
 BYTE   Cn3
 BYTE   W06
 BYTE   Dn3
 BYTE   W06
 BYTE   En3
 BYTE   W06
 BYTE   Dn3
 BYTE   W06
 BYTE   Cn3
 BYTE   W06
 BYTE   Bn2
 BYTE   W06
 BYTE   PATT
  POIN2 LabelTheLawOfBattle_2_010592E5
 BYTE   PATT
  POIN2 LabelTheLawOfBattle_2_01059308
 BYTE   PATT
  POIN2 LabelTheLawOfBattle_2_0105932B
 BYTE   PATT
  POIN2 LabelTheLawOfBattle_2_01059335
// 048   ----------------------------------------
 BYTE   N36  An2  v127
 BYTE   N12  Bn2
 BYTE   W12
 BYTE   Cn3
 BYTE   W24
 BYTE   N12
 BYTE   N36  En3
 BYTE   W24
 BYTE   N12  Cn3
 BYTE   W12
 BYTE   N24  An2
 BYTE   W24
// 049   ----------------------------------------
 BYTE   N36  Bn3
 BYTE   W36
 BYTE   Cn4
 BYTE   W36
 BYTE   N12  Cn3
 BYTE   N24  Dn4
 BYTE   W12
 BYTE   N12  Bn2
 BYTE   W12
// 050   ----------------------------------------
 BYTE   An2
 BYTE   N48  En4
 BYTE   W48
 BYTE   N12  An2
 BYTE   N16  En4
 BYTE   W16
 BYTE   Fn4
 BYTE   W16
 BYTE   Gn4
 BYTE   W16
// 051   ----------------------------------------
 BYTE   N12  Bn2
 BYTE   N96  En4
 BYTE   W48
 BYTE   N12  Bn2
 BYTE   W48
 BYTE   PATT
  POIN2 LabelTheLawOfBattle_2_01059358
 BYTE   PATT
  POIN2 LabelTheLawOfBattle_2_01059364
// 052   ----------------------------------------
 BYTE   W24
 BYTE   GoTo
  POIN2 LabelTheLawOfBattle_2_0105925A
 BYTE   FINE

//**************** Track 4 (Midi-Chn.3) ****************//

songTheLawOfBattle_004:
// 000   ----------------------------------------
 BYTE   KEYSH   songTheLawOfBattle_key+0
LabelTheLawOfBattle_3_0105950A:
 BYTE   VOICE   29
 BYTE   VOL   18*songTheLawOfBattle_mvl/mxv
 BYTE   MODT 0
 BYTE   CnM2
 BYTE   LFOS 0
 BYTE   Gs1
 BYTE   VOL   28*songTheLawOfBattle_mvl/mxv
 BYTE   PAN   c_v+0
 BYTE   VOL   18*songTheLawOfBattle_mvl/mxv
 BYTE   MODT 0
 BYTE   CnM2
 BYTE   LFOS 0
 BYTE   Gs1
 BYTE   VOL   28*songTheLawOfBattle_mvl/mxv
 BYTE   PAN   c_v+0
 BYTE   VOL   28*songTheLawOfBattle_mvl/mxv
 BYTE   W96
// 001   ----------------------------------------
 BYTE   W96
// 002   ----------------------------------------
 BYTE   W96
// 003   ----------------------------------------
 BYTE   W96
// 004   ----------------------------------------
 BYTE   TIE  En3  v127
 BYTE   W96
// 005   ----------------------------------------
 BYTE   W24
 BYTE   EOT
 BYTE   N12  Fs3
 BYTE   W12
 BYTE   Gn3
 BYTE   W12
 BYTE   N48  En4
 BYTE   W48
// 006   ----------------------------------------
 BYTE   TIE  Dn4
 BYTE   W96
// 007   ----------------------------------------
 BYTE   W24
 BYTE   EOT
 BYTE   N48  Gn4
 BYTE   W48
 BYTE   N12  Fs4
 BYTE   W12
 BYTE   En4
 BYTE   W12
// 008   ----------------------------------------
 BYTE   N24  Dn4
 BYTE   W24
 BYTE   N08  En4
 BYTE   W08
 BYTE   Fs4
 BYTE   W08
 BYTE   Gn4
 BYTE   W08
 BYTE   N06  An4
 BYTE   W06
 BYTE   Bn4
 BYTE   W06
 BYTE   An4
 BYTE   W06
 BYTE   Gn4
 BYTE   W06
 BYTE   Fs4
 BYTE   W06
 BYTE   En4
 BYTE   W06
 BYTE   Dn4
 BYTE   W06
 BYTE   Gn4
 BYTE   W06
// 009   ----------------------------------------
 BYTE   Fs4
 BYTE   W06
 BYTE   En4
 BYTE   W06
 BYTE   Dn4
 BYTE   W06
 BYTE   Cn4
 BYTE   W06
 BYTE   Bn3
 BYTE   W06
 BYTE   N30  Cn4
 BYTE   W30
 BYTE   N06  Bn3
 BYTE   W06
 BYTE   Cn4
 BYTE   W06
 BYTE   N24  Bn3
 BYTE   W24
// 010   ----------------------------------------
 BYTE   N96  An3
 BYTE   W96
// 011   ----------------------------------------
 BYTE   Bn3
 BYTE   W96
// 012   ----------------------------------------
LabelTheLawOfBattle_3_01059576:
 BYTE   TIE  Bn2  v127
 BYTE   TIE  En3
 BYTE   W96
 BYTE   PEND 
// 013   ----------------------------------------
 BYTE   W24
 BYTE   EOT
 BYTE   Bn2  v064
 BYTE   N12  Dn3
 BYTE   N12  Fs3
 BYTE   W12
 BYTE   En3
 BYTE   N12  Gn3
 BYTE   W12
 BYTE   N48
 BYTE   N48  En4
 BYTE   W48
// 014   ----------------------------------------
LabelTheLawOfBattle_3_0105958E:
 BYTE   TIE  Bn3  v127
 BYTE   TIE  Dn4
 BYTE   W96
 BYTE   PEND 
// 015   ----------------------------------------
 BYTE   W24
 BYTE   EOT
 BYTE   Bn3  v074
 BYTE   N48  En4
 BYTE   N48  Gn4
 BYTE   W48
 BYTE   N12  Dn4
 BYTE   N12  Fs4
 BYTE   W12
 BYTE   Cn4
 BYTE   N12  En4
 BYTE   W12
// 016   ----------------------------------------
LabelTheLawOfBattle_3_010595A7:
 BYTE   N06  Cn4  v127
 BYTE   N06  En4
 BYTE   W06
 BYTE   Dn4
 BYTE   N06  Fs4
 BYTE   W06
 BYTE   En4
 BYTE   N06  Gn4
 BYTE   W06
 BYTE   Fs4
 BYTE   N06  An4
 BYTE   W06
 BYTE   Gn4
 BYTE   N06  Bn4
 BYTE   W06
 BYTE   Fs4
 BYTE   N06  An4
 BYTE   W06
 BYTE   En4
 BYTE   N06  Gn4
 BYTE   W06
 BYTE   Dn4
 BYTE   N06  Fs4
 BYTE   W06
 BYTE   Cn4
 BYTE   N06  En4
 BYTE   W06
 BYTE   Bn3
 BYTE   N06  Dn4
 BYTE   W06
 BYTE   En4
 BYTE   N06  Gn4
 BYTE   W06
 BYTE   Dn4
 BYTE   N06  Fs4
 BYTE   W06
 BYTE   Cn4
 BYTE   N06  En4
 BYTE   W06
 BYTE   Bn3
 BYTE   N06  Dn4
 BYTE   W06
 BYTE   An3
 BYTE   N06  Cn4
 BYTE   W06
 BYTE   Gn3
 BYTE   N06  Bn3
 BYTE   W06
 BYTE   PEND 
// 017   ----------------------------------------
LabelTheLawOfBattle_3_010595EA:
 BYTE   N06  Gn3  v127
 BYTE   N06  Bn3
 BYTE   W06
 BYTE   Fs3
 BYTE   N06  Gn3
 BYTE   W06
 BYTE   An3
 BYTE   N06  Cn4
 BYTE   W06
 BYTE   Gn3
 BYTE   N06  Bn3
 BYTE   W06
 BYTE   Fs3
 BYTE   N06  An3
 BYTE   W06
 BYTE   En3
 BYTE   N06  Gn3
 BYTE   W06
 BYTE   Dn3
 BYTE   N06  Fs3
 BYTE   W06
 BYTE   En3
 BYTE   N06  Gn3
 BYTE   W06
 BYTE   Fs3
 BYTE   N06  An3
 BYTE   W06
 BYTE   Gn3
 BYTE   N06  Bn3
 BYTE   W06
 BYTE   An3
 BYTE   N06  Cn4
 BYTE   W06
 BYTE   Gn3
 BYTE   N06  Bn3
 BYTE   W06
 BYTE   Fs3
 BYTE   N06  An3
 BYTE   W06
 BYTE   En3
 BYTE   N06  Gn3
 BYTE   W06
 BYTE   Dn3
 BYTE   N06  Fs3
 BYTE   W06
 BYTE   Cn3
 BYTE   N06  En3
 BYTE   W06
 BYTE   PEND 
// 018   ----------------------------------------
LabelTheLawOfBattle_3_0105962D:
 BYTE   N36  An2  v127
 BYTE   N36  Dn3
 BYTE   W36
 BYTE   En3
 BYTE   N36  An3
 BYTE   W36
 BYTE   N24
 BYTE   N24  Dn4
 BYTE   W24
 BYTE   PEND 
// 019   ----------------------------------------
LabelTheLawOfBattle_3_0105963C:
 BYTE   N06  Cn4  v127
 BYTE   N06  En4
 BYTE   W06
 BYTE   Dn4
 BYTE   N06  Fs4
 BYTE   W06
 BYTE   En4
 BYTE   N06  Gn4
 BYTE   W06
 BYTE   Fs4
 BYTE   N06  An4
 BYTE   W06
 BYTE   Gn4
 BYTE   N06  Bn4
 BYTE   W06
 BYTE   Fs4
 BYTE   N06  An4
 BYTE   W06
 BYTE   En4
 BYTE   N06  Gn4
 BYTE   W06
 BYTE   Dn4
 BYTE   N06  Fs4
 BYTE   W06
 BYTE   N06
 BYTE   N06  An4
 BYTE   W06
 BYTE   En4
 BYTE   N06  Gn4
 BYTE   W06
 BYTE   Dn4
 BYTE   N06  Fs4
 BYTE   W06
 BYTE   Cn4
 BYTE   N06  En4
 BYTE   W06
 BYTE   N06
 BYTE   N06  Gn4
 BYTE   W06
 BYTE   Dn4
 BYTE   N06  Fs4
 BYTE   W06
 BYTE   Cn4
 BYTE   N06  En4
 BYTE   W06
 BYTE   Bn3
 BYTE   N06  Dn4
 BYTE   W06
 BYTE   PEND 
// 020   ----------------------------------------
LabelTheLawOfBattle_3_0105967F:
 BYTE   N48  Cn3  v127
 BYTE   N48  Fn3
 BYTE   W48
 BYTE   N16  Cn4
 BYTE   N16  En4
 BYTE   W16
 BYTE   Bn3
 BYTE   N16  Dn4
 BYTE   W16
 BYTE   An3
 BYTE   N16  Cn4
 BYTE   W16
 BYTE   PEND 
// 021   ----------------------------------------
LabelTheLawOfBattle_3_01059693:
 BYTE   N16  Gn3  v127
 BYTE   N16  Bn3
 BYTE   W16
 BYTE   An3
 BYTE   N16  Cn4
 BYTE   W16
 BYTE   Bn3
 BYTE   N16  Dn4
 BYTE   W16
 BYTE   N48
 BYTE   N48  Gn4
 BYTE   W48
 BYTE   PEND 
 BYTE   PATT
  POIN2 LabelTheLawOfBattle_3_01059576
// 022   ----------------------------------------
 BYTE   W24
 BYTE   EOT
 BYTE   Bn2  v064
 BYTE   N12  Dn3  v127
 BYTE   N12  Fs3
 BYTE   W12
 BYTE   En3
 BYTE   N12  Gn3
 BYTE   W12
 BYTE   N48
 BYTE   N48  En4
 BYTE   W48
 BYTE   PATT
  POIN2 LabelTheLawOfBattle_3_0105958E
// 023   ----------------------------------------
 BYTE   W24
 BYTE   EOT
 BYTE   Bn3  v074
 BYTE   N48  En4  v127
 BYTE   N48  Gn4
 BYTE   W48
 BYTE   N12  Dn4
 BYTE   N12  Fs4
 BYTE   W12
 BYTE   Cn4
 BYTE   N12  En4
 BYTE   W12
// 024   ----------------------------------------
 BYTE   N24  Bn3
 BYTE   N24  Dn4
 BYTE   W24
 BYTE   N08  Cn4
 BYTE   N08  En4
 BYTE   W08
 BYTE   Dn4
 BYTE   N08  Fs4
 BYTE   W08
 BYTE   En4
 BYTE   N08  Gn4
 BYTE   W08
 BYTE   N06  Fs4
 BYTE   N06  An4
 BYTE   W06
 BYTE   Gn4
 BYTE   N06  Bn4
 BYTE   W06
 BYTE   Fs4
 BYTE   N06  An4
 BYTE   W06
 BYTE   En4
 BYTE   N06  Gn4
 BYTE   W06
 BYTE   Dn4
 BYTE   N06  Fs4
 BYTE   W06
 BYTE   Cn4
 BYTE   N06  En4
 BYTE   W06
 BYTE   Bn3
 BYTE   N06  Dn4
 BYTE   W06
 BYTE   En4
 BYTE   N06  Gn4
 BYTE   W06
// 025   ----------------------------------------
 BYTE   Dn4
 BYTE   N06  Fs4
 BYTE   W06
 BYTE   Cn4
 BYTE   N06  En4
 BYTE   W06
 BYTE   Bn3
 BYTE   N06  Dn4
 BYTE   W06
 BYTE   An3
 BYTE   N06  Cn4
 BYTE   W06
 BYTE   Gn3
 BYTE   N06  Bn3
 BYTE   W06
 BYTE   N30  An3
 BYTE   N30  Cn4
 BYTE   W30
 BYTE   N06  Gn3
 BYTE   N06  Bn3
 BYTE   W06
 BYTE   An3
 BYTE   N06  Cn4
 BYTE   W06
 BYTE   N24  Gn3
 BYTE   N24  Bn3
 BYTE   W24
// 026   ----------------------------------------
 BYTE   N96  En3
 BYTE   N96  An3
 BYTE   W96
// 027   ----------------------------------------
 BYTE   Gn3
 BYTE   N96  Bn3
 BYTE   W96
 BYTE   PATT
  POIN2 LabelTheLawOfBattle_3_01059576
// 028   ----------------------------------------
 BYTE   W24
 BYTE   EOT
 BYTE   Bn2  v064
 BYTE   N12  Dn3  v127
 BYTE   N12  Fs3
 BYTE   W12
 BYTE   En3
 BYTE   N12  Gn3
 BYTE   W12
 BYTE   N48
 BYTE   N48  En4
 BYTE   W48
 BYTE   PATT
  POIN2 LabelTheLawOfBattle_3_0105958E
// 029   ----------------------------------------
 BYTE   W24
 BYTE   EOT
 BYTE   Bn3  v074
 BYTE   N48  En4  v127
 BYTE   N48  Gn4
 BYTE   W48
 BYTE   N12  Dn4
 BYTE   N12  Fs4
 BYTE   W12
 BYTE   Cn4
 BYTE   N12  En4
 BYTE   W12
 BYTE   PATT
  POIN2 LabelTheLawOfBattle_3_010595A7
 BYTE   PATT
  POIN2 LabelTheLawOfBattle_3_010595EA
 BYTE   PATT
  POIN2 LabelTheLawOfBattle_3_0105962D
 BYTE   PATT
  POIN2 LabelTheLawOfBattle_3_0105963C
// 030   ----------------------------------------
 BYTE   W96
// 031   ----------------------------------------
 BYTE   W96
// 032   ----------------------------------------
 BYTE   W96
// 033   ----------------------------------------
 BYTE   W96
// 034   ----------------------------------------
 BYTE   N48  En3  v127
 BYTE   W48
 BYTE   N12  Bn3
 BYTE   W12
 BYTE   N60  En3
 BYTE   W36
// 035   ----------------------------------------
 BYTE   W24
 BYTE   Gn3
 BYTE   W60
 BYTE   N06  Fs3
 BYTE   W06
 BYTE   En3
 BYTE   W06
// 036   ----------------------------------------
 BYTE   Dn3
 BYTE   W06
 BYTE   En3
 BYTE   W06
 BYTE   Fs3
 BYTE   W06
 BYTE   Gn3
 BYTE   W06
 BYTE   N84  An3
 BYTE   W72
// 037   ----------------------------------------
 BYTE   W12
 BYTE   N36  Gn3
 BYTE   W36
 BYTE   N12  Bn3
 BYTE   W12
 BYTE   An3
 BYTE   W12
 BYTE   Bn3
 BYTE   W12
 BYTE   N36  Cn4
 BYTE   W12
// 038   ----------------------------------------
 BYTE   W24
 BYTE   N06  Bn3
 BYTE   W06
 BYTE   An3
 BYTE   W06
 BYTE   Cn4
 BYTE   W06
 BYTE   Bn3
 BYTE   W06
 BYTE   An3
 BYTE   W06
 BYTE   Gn3
 BYTE   W06
 BYTE   Fs3
 BYTE   W06
 BYTE   En3
 BYTE   W06
 BYTE   An3
 BYTE   W06
 BYTE   Gn3
 BYTE   W06
 BYTE   Fs3
 BYTE   W06
 BYTE   En3
 BYTE   W06
// 039   ----------------------------------------
 BYTE   Dn3
 BYTE   W06
 BYTE   Cn3
 BYTE   W06
 BYTE   Fs3
 BYTE   W06
 BYTE   En3
 BYTE   W06
 BYTE   Dn3
 BYTE   W06
 BYTE   Cn3
 BYTE   W06
 BYTE   Bn2
 BYTE   W06
 BYTE   An2
 BYTE   W06
 BYTE   Gn2
 BYTE   W06
 BYTE   An2
 BYTE   W06
 BYTE   Bn2
 BYTE   W06
 BYTE   Cn3
 BYTE   W06
 BYTE   Bn2
 BYTE   W06
 BYTE   An2
 BYTE   W06
 BYTE   Gn2
 BYTE   W06
 BYTE   Fs2
 BYTE   W06
// 040   ----------------------------------------
 BYTE   N24  En2
 BYTE   W24
 BYTE   N12  Dn2
 BYTE   W12
 BYTE   En2
 BYTE   W12
 BYTE   Fs2
 BYTE   W12
 BYTE   Gn2
 BYTE   W12
 BYTE   N06  An2
 BYTE   W06
 BYTE   Bn2
 BYTE   W06
 BYTE   An2
 BYTE   W06
 BYTE   Gn2
 BYTE   W06
// 041   ----------------------------------------
 BYTE   Bn2
 BYTE   W06
 BYTE   Cn3
 BYTE   W06
 BYTE   Bn2
 BYTE   W06
 BYTE   An2
 BYTE   W06
 BYTE   Cn3
 BYTE   W06
 BYTE   Dn3
 BYTE   W06
 BYTE   Cn3
 BYTE   W06
 BYTE   Bn2
 BYTE   W06
 BYTE   Dn3
 BYTE   W06
 BYTE   En3
 BYTE   W06
 BYTE   Dn3
 BYTE   W06
 BYTE   Cn3
 BYTE   W06
 BYTE   N36  Fs3
 BYTE   W24
// 042   ----------------------------------------
 BYTE   W12
 BYTE   N12  Dn3
 BYTE   W12
 BYTE   En3
 BYTE   W12
 BYTE   Fs3
 BYTE   W12
 BYTE   Gn3
 BYTE   W12
 BYTE   An3
 BYTE   W12
 BYTE   Bn3
 BYTE   W12
 BYTE   N60  Cn4
 BYTE   W12
// 043   ----------------------------------------
 BYTE   W48
 BYTE   N06  Bn3
 BYTE   W06
 BYTE   Cn4
 BYTE   W06
 BYTE   Bn3
 BYTE   W06
 BYTE   An3
 BYTE   W06
 BYTE   Cn4
 BYTE   W06
 BYTE   Bn3
 BYTE   W06
 BYTE   An3
 BYTE   W06
 BYTE   Gn3
 BYTE   W06
// 044   ----------------------------------------
 BYTE   N60  Fs3
 BYTE   W60
 BYTE   N12  En3
 BYTE   W12
 BYTE   Fs3
 BYTE   W12
 BYTE   Dn3
 BYTE   W12
// 045   ----------------------------------------
 BYTE   N06  Fs3
 BYTE   W06
 BYTE   En3
 BYTE   W06
 BYTE   Dn3
 BYTE   W06
 BYTE   Cn3
 BYTE   W06
 BYTE   En3
 BYTE   W06
 BYTE   Dn3
 BYTE   W06
 BYTE   Cn3
 BYTE   W06
 BYTE   Bn2
 BYTE   W06
 BYTE   An2
 BYTE   W06
 BYTE   Bn2
 BYTE   W06
 BYTE   Cn3
 BYTE   W06
 BYTE   Dn3
 BYTE   W06
 BYTE   En3
 BYTE   W06
 BYTE   Dn3
 BYTE   W06
 BYTE   Cn3
 BYTE   W06
 BYTE   Bn2
 BYTE   W06
 BYTE   PATT
  POIN2 LabelTheLawOfBattle_3_010595A7
 BYTE   PATT
  POIN2 LabelTheLawOfBattle_3_010595EA
 BYTE   PATT
  POIN2 LabelTheLawOfBattle_3_0105962D
 BYTE   PATT
  POIN2 LabelTheLawOfBattle_3_0105963C
// 046   ----------------------------------------
 BYTE   N36  En2  v127
 BYTE   N36  An2
 BYTE   W36
 BYTE   N36
 BYTE   N36  En3
 BYTE   W36
 BYTE   N24  En2
 BYTE   N24  An2
 BYTE   W24
// 047   ----------------------------------------
 BYTE   N36  Gn3
 BYTE   N36  Bn3
 BYTE   W36
 BYTE   An3
 BYTE   N36  Cn4
 BYTE   W36
 BYTE   N24  Bn3
 BYTE   N24  Dn4
 BYTE   W24
// 048   ----------------------------------------
 BYTE   N48  Bn3
 BYTE   N48  En4
 BYTE   W48
 BYTE   N16  Bn3
 BYTE   N16  En4
 BYTE   W16
 BYTE   Cn4
 BYTE   N16  Fn4
 BYTE   W16
 BYTE   Dn4
 BYTE   N16  Gn4
 BYTE   W16
// 049   ----------------------------------------
 BYTE   N96  Bn3
 BYTE   N96  En4
 BYTE   W96
 BYTE   PATT
  POIN2 LabelTheLawOfBattle_3_0105967F
 BYTE   PATT
  POIN2 LabelTheLawOfBattle_3_01059693
// 050   ----------------------------------------
 BYTE   W24
 BYTE   GoTo
  POIN2 LabelTheLawOfBattle_3_0105950A
 BYTE   FINE

//**************** Track 5 (Midi-Chn.4) ****************//

songTheLawOfBattle_005:
// 000   ----------------------------------------
 BYTE   KEYSH   songTheLawOfBattle_key+0
LabelTheLawOfBattle_4_010598BE:
 BYTE   VOICE   121
 BYTE   VOL   18*songTheLawOfBattle_mvl/mxv
 BYTE   MODT 0
 BYTE   CnM2
 BYTE   LFOS 0
 BYTE   Gs1
 BYTE   VOL   18*songTheLawOfBattle_mvl/mxv
 BYTE   PAN   c_v+0
 BYTE   VOL   18*songTheLawOfBattle_mvl/mxv
 BYTE   MODT 0
 BYTE   CnM2
 BYTE   LFOS 0
 BYTE   Gs1
 BYTE   VOL   18*songTheLawOfBattle_mvl/mxv
 BYTE   PAN   c_v+0
 BYTE   VOL   18*songTheLawOfBattle_mvl/mxv
 BYTE   MODT 0
 BYTE   CnM2
 BYTE   LFOS 0
 BYTE   Gs1
 BYTE   VOL   18*songTheLawOfBattle_mvl/mxv
 BYTE   PAN   c_v+0
 BYTE   VOL   18*songTheLawOfBattle_mvl/mxv
 BYTE   N48  Cs2  v127
 BYTE   W48
 BYTE   N12  Gs1
 BYTE   W48
// 001   ----------------------------------------
 BYTE   W48
 BYTE   N12
 BYTE   W48
// 002   ----------------------------------------
 BYTE   W48
 BYTE   N12
 BYTE   W48
// 003   ----------------------------------------
 BYTE   W48
 BYTE   En1
 BYTE   W12
 BYTE   N12
 BYTE   W12
 BYTE   N12
 BYTE   W12
 BYTE   N12
 BYTE   W12
// 004   ----------------------------------------
LabelTheLawOfBattle_4_010598F6:
 BYTE   N48  Bn0  v127
 BYTE   N06  As1
 BYTE   N48  Cs2
 BYTE   W24
 BYTE   N06  As1
 BYTE   W24
 BYTE   N48  En1
 BYTE   N06  As1
 BYTE   W24
 BYTE   N06
 BYTE   W24
 BYTE   PEND 
// 005   ----------------------------------------
LabelTheLawOfBattle_4_01059909:
 BYTE   N48  Bn0  v127
 BYTE   N06  As1
 BYTE   W24
 BYTE   N06
 BYTE   W24
 BYTE   N48  En1
 BYTE   N06  As1
 BYTE   W12
 BYTE   N12  Bn0
 BYTE   W12
 BYTE   N12
 BYTE   N06  As1
 BYTE   W12
 BYTE   N12  Bn0
 BYTE   W12
 BYTE   PEND 
// 006   ----------------------------------------
LabelTheLawOfBattle_4_01059921:
 BYTE   N48  Bn0  v127
 BYTE   N06  As1
 BYTE   W24
 BYTE   N06
 BYTE   W24
 BYTE   N48  En1
 BYTE   N06  As1
 BYTE   W24
 BYTE   N06
 BYTE   W24
 BYTE   PEND 
// 007   ----------------------------------------
LabelTheLawOfBattle_4_01059931:
 BYTE   N12  Bn0  v127
 BYTE   N06  As1
 BYTE   W12
 BYTE   N24  En1
 BYTE   W12
 BYTE   N06  As1
 BYTE   W12
 BYTE   N24  En1
 BYTE   W12
 BYTE   N06  As1
 BYTE   W12
 BYTE   N12  Bn0
 BYTE   W12
 BYTE   N12
 BYTE   N06  As1
 BYTE   W12
 BYTE   N12  Bn0
 BYTE   W12
 BYTE   PEND 
 BYTE   PATT
  POIN2 LabelTheLawOfBattle_4_010598F6
 BYTE   PATT
  POIN2 LabelTheLawOfBattle_4_01059909
// 008   ----------------------------------------
LabelTheLawOfBattle_4_01059958:
 BYTE   N12  Bn0  v127
 BYTE   N06  As1
 BYTE   W12
 BYTE   N12  Bn0
 BYTE   W12
 BYTE   N24  En1
 BYTE   N06  As1
 BYTE   W12
 BYTE   N12  Bn0
 BYTE   W12
 BYTE   N12
 BYTE   N06  As1
 BYTE   W12
 BYTE   N12  Bn0
 BYTE   W12
 BYTE   N24  En1
 BYTE   N06  As1
 BYTE   W12
 BYTE   N12  Bn0
 BYTE   W12
 BYTE   PEND 
// 009   ----------------------------------------
LabelTheLawOfBattle_4_01059979:
 BYTE   N48  Bn0  v127
 BYTE   N06  As1
 BYTE   W24
 BYTE   N06
 BYTE   W24
 BYTE   N12  En1
 BYTE   N06  As1
 BYTE   W12
 BYTE   N12  En1
 BYTE   W12
 BYTE   N12
 BYTE   W12
 BYTE   N12
 BYTE   W12
 BYTE   PEND 
 BYTE   PATT
  POIN2 LabelTheLawOfBattle_4_010598F6
 BYTE   PATT
  POIN2 LabelTheLawOfBattle_4_01059909
 BYTE   PATT
  POIN2 LabelTheLawOfBattle_4_01059921
 BYTE   PATT
  POIN2 LabelTheLawOfBattle_4_01059931
 BYTE   PATT
  POIN2 LabelTheLawOfBattle_4_010598F6
// 010   ----------------------------------------
LabelTheLawOfBattle_4_010599A7:
 BYTE   N24  Bn0  v127
 BYTE   N06  As1
 BYTE   W24
 BYTE   N12  Bn0
 BYTE   N06  As1
 BYTE   W12
 BYTE   N12  Bn0
 BYTE   W12
 BYTE   En1
 BYTE   N06  As1
 BYTE   W12
 BYTE   N36  Bn0
 BYTE   W12
 BYTE   N06  As1
 BYTE   W24
 BYTE   PEND 
 BYTE   PATT
  POIN2 LabelTheLawOfBattle_4_01059958
// 011   ----------------------------------------
LabelTheLawOfBattle_4_010599C5:
 BYTE   N48  Bn0  v127
 BYTE   N06  As1
 BYTE   W24
 BYTE   N06
 BYTE   W24
 BYTE   N12  En1
 BYTE   N06  As1
 BYTE   W12
 BYTE   N12  En1
 BYTE   W12
 BYTE   N12
 BYTE   N06  As1
 BYTE   W12
 BYTE   N12  En1
 BYTE   W12
 BYTE   PEND 
// 012   ----------------------------------------
LabelTheLawOfBattle_4_010599DD:
 BYTE   N24  En1  v127
 BYTE   N36  Cs2
 BYTE   W24
 BYTE   N12  En1
 BYTE   W12
 BYTE   N24
 BYTE   N36  Cs2
 BYTE   W24
 BYTE   N12  En1
 BYTE   W12
 BYTE   Bn0
 BYTE   W24
 BYTE   PEND 
// 013   ----------------------------------------
LabelTheLawOfBattle_4_010599F0:
 BYTE   N12  Bn0  v127
 BYTE   N12  Dn2
 BYTE   W12
 BYTE   Bn0
 BYTE   N12  Dn2
 BYTE   W12
 BYTE   Bn0
 BYTE   N12  Cn2
 BYTE   W12
 BYTE   Bn0
 BYTE   N12  Cn2
 BYTE   W12
 BYTE   Bn0
 BYTE   N12  Bn1
 BYTE   W12
 BYTE   Bn0
 BYTE   N12  Bn1
 BYTE   W12
 BYTE   En1
 BYTE   W12
 BYTE   N12
 BYTE   W12
 BYTE   PEND 
 BYTE   PATT
  POIN2 LabelTheLawOfBattle_4_010598F6
 BYTE   PATT
  POIN2 LabelTheLawOfBattle_4_01059909
 BYTE   PATT
  POIN2 LabelTheLawOfBattle_4_01059921
 BYTE   PATT
  POIN2 LabelTheLawOfBattle_4_01059931
 BYTE   PATT
  POIN2 LabelTheLawOfBattle_4_010598F6
 BYTE   PATT
  POIN2 LabelTheLawOfBattle_4_01059909
 BYTE   PATT
  POIN2 LabelTheLawOfBattle_4_01059958
 BYTE   PATT
  POIN2 LabelTheLawOfBattle_4_01059979
 BYTE   PATT
  POIN2 LabelTheLawOfBattle_4_010598F6
 BYTE   PATT
  POIN2 LabelTheLawOfBattle_4_01059909
 BYTE   PATT
  POIN2 LabelTheLawOfBattle_4_01059921
 BYTE   PATT
  POIN2 LabelTheLawOfBattle_4_01059931
 BYTE   PATT
  POIN2 LabelTheLawOfBattle_4_010598F6
 BYTE   PATT
  POIN2 LabelTheLawOfBattle_4_010599A7
 BYTE   PATT
  POIN2 LabelTheLawOfBattle_4_01059958
 BYTE   PATT
  POIN2 LabelTheLawOfBattle_4_010599C5
 BYTE   PATT
  POIN2 LabelTheLawOfBattle_4_010598F6
 BYTE   PATT
  POIN2 LabelTheLawOfBattle_4_010599A7
 BYTE   PATT
  POIN2 LabelTheLawOfBattle_4_01059958
// 014   ----------------------------------------
LabelTheLawOfBattle_4_01059A6E:
 BYTE   N24  Bn0  v127
 BYTE   N06  As1
 BYTE   W24
 BYTE   N24  Bn0
 BYTE   N06  As1
 BYTE   W24
 BYTE   N12  En1
 BYTE   N06  As1
 BYTE   W12
 BYTE   N12  En1
 BYTE   W12
 BYTE   N12
 BYTE   N06  As1
 BYTE   W12
 BYTE   N12  En1
 BYTE   W12
 BYTE   PEND 
// 015   ----------------------------------------
LabelTheLawOfBattle_4_01059A89:
 BYTE   N24  Bn0  v127
 BYTE   N06  As1
 BYTE   N48  Cs2
 BYTE   W24
 BYTE   N24  En1
 BYTE   N06  As1
 BYTE   W24
 BYTE   N12  Bn0
 BYTE   N06  As1
 BYTE   W12
 BYTE   N12  Bn0
 BYTE   W12
 BYTE   N24  En1
 BYTE   N06  As1
 BYTE   W24
 BYTE   PEND 
// 016   ----------------------------------------
LabelTheLawOfBattle_4_01059AA4:
 BYTE   N12  Bn0  v127
 BYTE   N06  As1
 BYTE   W12
 BYTE   N12  Bn0
 BYTE   W12
 BYTE   N24  En1
 BYTE   N06  As1
 BYTE   W24
 BYTE   N12  Bn0
 BYTE   N06  As1
 BYTE   W12
 BYTE   N12  Bn0
 BYTE   W12
 BYTE   N24  En1
 BYTE   N06  As1
 BYTE   W24
 BYTE   PEND 
 BYTE   PATT
  POIN2 LabelTheLawOfBattle_4_01059AA4
// 017   ----------------------------------------
 BYTE   N36  En1  v127
 BYTE   N48  Cs2
 BYTE   W36
 BYTE   N24  En1
 BYTE   N06  As1
 BYTE   W24
 BYTE   N12  En1
 BYTE   W12
 BYTE   Bn0
 BYTE   N12  Bn1
 BYTE   W12
 BYTE   Bn0
 BYTE   N12  An1
 BYTE   W12
 BYTE   PATT
  POIN2 LabelTheLawOfBattle_4_010598F6
// 018   ----------------------------------------
LabelTheLawOfBattle_4_01059AE0:
 BYTE   N24  Bn0  v127
 BYTE   N06  As1
 BYTE   W24
 BYTE   N12  Bn0
 BYTE   N06  As1
 BYTE   W12
 BYTE   N12  Bn0
 BYTE   W12
 BYTE   En1
 BYTE   N06  As1
 BYTE   W12
 BYTE   N12  Bn0
 BYTE   W12
 BYTE   N24
 BYTE   N06  As1
 BYTE   W24
 BYTE   PEND 
 BYTE   PATT
  POIN2 LabelTheLawOfBattle_4_01059958
 BYTE   PATT
  POIN2 LabelTheLawOfBattle_4_01059A6E
 BYTE   PATT
  POIN2 LabelTheLawOfBattle_4_01059A89
 BYTE   PATT
  POIN2 LabelTheLawOfBattle_4_01059AA4
 BYTE   PATT
  POIN2 LabelTheLawOfBattle_4_01059AA4
// 019   ----------------------------------------
 BYTE   N36  En1  v127
 BYTE   N48  Cs2
 BYTE   W36
 BYTE   N24  En1
 BYTE   N06  As1
 BYTE   W24
 BYTE   N12  En1
 BYTE   W12
 BYTE   Bn0
 BYTE   N12  Cn2
 BYTE   W12
 BYTE   Bn0
 BYTE   N12  Bn1
 BYTE   W12
 BYTE   PATT
  POIN2 LabelTheLawOfBattle_4_010598F6
 BYTE   PATT
  POIN2 LabelTheLawOfBattle_4_010599A7
 BYTE   PATT
  POIN2 LabelTheLawOfBattle_4_01059958
 BYTE   PATT
  POIN2 LabelTheLawOfBattle_4_010599C5
 BYTE   PATT
  POIN2 LabelTheLawOfBattle_4_01059921
 BYTE   PATT
  POIN2 LabelTheLawOfBattle_4_01059AE0
// 020   ----------------------------------------
 BYTE   N24  Bn0  v127
 BYTE   N06  As1
 BYTE   W24
 BYTE   N12  Bn0
 BYTE   N06  As1
 BYTE   W12
 BYTE   N12  Bn0
 BYTE   W12
 BYTE   En1
 BYTE   N06  As1
 BYTE   W12
 BYTE   N24  Bn0
 BYTE   W12
 BYTE   N06  As1
 BYTE   W12
 BYTE   N12  Bn0
 BYTE   W12
// 021   ----------------------------------------
 BYTE   N24  En1
 BYTE   N06  As1
 BYTE   N48  Cs2
 BYTE   W24
 BYTE   N12  Bn0
 BYTE   N06  As1
 BYTE   W12
 BYTE   N12  Bn0
 BYTE   W12
 BYTE   En1
 BYTE   N06  As1
 BYTE   W12
 BYTE   N12  En1
 BYTE   W12
 BYTE   N12
 BYTE   N06  As1
 BYTE   W12
 BYTE   N12  En1
 BYTE   W12
 BYTE   PATT
  POIN2 LabelTheLawOfBattle_4_010599DD
 BYTE   PATT
  POIN2 LabelTheLawOfBattle_4_010599F0
// 022   ----------------------------------------
 BYTE   W24
 BYTE   GoTo
  POIN2 LabelTheLawOfBattle_4_010598BE
 BYTE   FINE

//******************************************************//
	ALIGN 4

songTheLawOfBattle:
	BYTE	5	// NumTrks
	BYTE	0	// NumBlks
	BYTE	songTheLawOfBattle_pri	// Priority
	BYTE	songTheLawOfBattle_rev	// Reverb.
    
	POIN2	songTheLawOfBattle_grp
    
	POIN2	songTheLawOfBattle_001
	POIN2	songTheLawOfBattle_002
	POIN2	songTheLawOfBattle_003
	POIN2	songTheLawOfBattle_004
	POIN2	songTheLawOfBattle_005

	
