//Event file generated from Sappy .s format.
	#include "MPlayDef.event"

	#define	songThrashEm_grp  voicegroup000
	#define	songThrashEm_pri  0
	#define	songThrashEm_rev  0
	#define	songThrashEm_mvl  127
	#define	songThrashEm_key  0
	#define	songThrashEm_tbs  1
	#define	songThrashEm_exg  0
	#define	songThrashEm_cmp  1

	// .rodata
	//	songThrashEm
	ALIGN 4


//**************** Track 1 (Midi-Chn.0) ****************//

songThrashEm_001:
// 000   ----------------------------------------
 BYTE   VOL   80*songThrashEm_mvl/mxv
 BYTE   KEYSH   songThrashEm_key+0
Label_0_01461E24:
 BYTE   TEMPO   168*songThrashEm_tbs/2
 BYTE   VOICE   100
 BYTE   N96  Bn4  v056
 BYTE   W96
// 001   ----------------------------------------
 BYTE   An4
 BYTE   W96
// 002   ----------------------------------------
 BYTE   N48  Cs5
 BYTE   W48
 BYTE   N24  Bn4
 BYTE   W24
 BYTE   An4
 BYTE   W24
// 003   ----------------------------------------
 BYTE   TIE  Fs4
 BYTE   W96
// 004   ----------------------------------------
 BYTE   W96
// 005   ----------------------------------------
 BYTE   EOT
 BYTE   W96
// 006   ----------------------------------------
 BYTE   W96
// 007   ----------------------------------------
 BYTE   W96
// 008   ----------------------------------------
 BYTE   W96
// 009   ----------------------------------------
 BYTE   TIE  Gn4
 BYTE   W96
// 010   ----------------------------------------
 BYTE   W96
// 011   ----------------------------------------
 BYTE   EOT
 BYTE   W96
// 012   ----------------------------------------
 BYTE   W96
// 013   ----------------------------------------
 BYTE   W96
// 014   ----------------------------------------
 BYTE   W96
// 015   ----------------------------------------
 BYTE   W96
// 016   ----------------------------------------
 BYTE   W96
// 017   ----------------------------------------
 BYTE   W96
// 018   ----------------------------------------
 BYTE   W96
// 019   ----------------------------------------
 BYTE   W96
// 020   ----------------------------------------
 BYTE   W96
// 021   ----------------------------------------
 BYTE   W96
// 022   ----------------------------------------
 BYTE   GoTo
  POIN2 Label_0_01461E24
 BYTE   FINE

//**************** Track 2 (Midi-Chn.1) ****************//

songThrashEm_002:
// 000   ----------------------------------------
 BYTE   VOL   80*songThrashEm_mvl/mxv
 BYTE   KEYSH   songThrashEm_key+0
Label_1_01461E5C:
 BYTE   VOICE   68
 BYTE   W96
// 001   ----------------------------------------
 BYTE   W96
// 002   ----------------------------------------
 BYTE   W96
// 003   ----------------------------------------
 BYTE   W96
// 004   ----------------------------------------
 BYTE   W96
// 005   ----------------------------------------
 BYTE   W96
// 006   ----------------------------------------
 BYTE   W96
// 007   ----------------------------------------
 BYTE   W96
// 008   ----------------------------------------
 BYTE   W96
// 009   ----------------------------------------
 BYTE   W96
// 010   ----------------------------------------
 BYTE   W96
// 011   ----------------------------------------
 BYTE   N96  Bn3  v064
 BYTE   W96
// 012   ----------------------------------------
 BYTE   An3
 BYTE   W96
// 013   ----------------------------------------
 BYTE   N24  Fs4
 BYTE   W24
 BYTE   Gn4
 BYTE   W24
 BYTE   N48  An4
 BYTE   W48
// 014   ----------------------------------------
 BYTE   N96  Bn3
 BYTE   W96
// 015   ----------------------------------------
 BYTE   N24  Gn4
 BYTE   W24
 BYTE   Fs4
 BYTE   W24
 BYTE   N48  En4
 BYTE   W48
// 016   ----------------------------------------
 BYTE   N96  Fs4
 BYTE   W96
// 017   ----------------------------------------
 BYTE   Gn4
 BYTE   W96
// 018   ----------------------------------------
 BYTE   N24  An4
 BYTE   W24
 BYTE   Bn4
 BYTE   W24
 BYTE   N48  Cs5
 BYTE   W48
// 019   ----------------------------------------
 BYTE   N96  Bn4
 BYTE   W96
// 020   ----------------------------------------
 BYTE   TIE  Cs5
 BYTE   W96
// 021   ----------------------------------------
 BYTE   W96
// 022   ----------------------------------------
 BYTE   EOT
 BYTE   GoTo
  POIN2 Label_1_01461E5C
 BYTE   FINE

//**************** Track 3 (Midi-Chn.2) ****************//

songThrashEm_003:
// 000   ----------------------------------------
 BYTE   VOL   80*songThrashEm_mvl/mxv
 BYTE   KEYSH   songThrashEm_key+0
Label_2_01461EF0:
 BYTE   VOICE   86
 BYTE   W96
// 001   ----------------------------------------
 BYTE   W96
// 002   ----------------------------------------
 BYTE   W96
// 003   ----------------------------------------
 BYTE   W96
// 004   ----------------------------------------
 BYTE   W96
// 005   ----------------------------------------
 BYTE   N96  En4  v064
 BYTE   W96
// 006   ----------------------------------------
 BYTE   Gn4
 BYTE   W96
// 007   ----------------------------------------
 BYTE   N48  Fs4
 BYTE   W48
 BYTE   N24  Gn4
 BYTE   W24
 BYTE   An4
 BYTE   W24
// 008   ----------------------------------------
 BYTE   N96  Bn4
 BYTE   W96
// 009   ----------------------------------------
 BYTE   TIE  Gn4  v056
 BYTE   W96
// 010   ----------------------------------------
 BYTE   W96
// 011   ----------------------------------------
 BYTE   EOT
 BYTE   W96
// 012   ----------------------------------------
 BYTE   W96
// 013   ----------------------------------------
 BYTE   W96
// 014   ----------------------------------------
 BYTE   W96
// 015   ----------------------------------------
 BYTE   W96
// 016   ----------------------------------------
 BYTE   W96
// 017   ----------------------------------------
 BYTE   W96
// 018   ----------------------------------------
 BYTE   W96
// 019   ----------------------------------------
 BYTE   W96
// 020   ----------------------------------------
 BYTE   W96
// 021   ----------------------------------------
 BYTE   W96
// 022   ----------------------------------------
 BYTE   GoTo
  POIN2 Label_2_01461EF0
 BYTE   FINE

//**************** Track 4 (Midi-Chn.3) ****************//

songThrashEm_004:
// 000   ----------------------------------------
 BYTE   VOL   80*songThrashEm_mvl/mxv
 BYTE   KEYSH   songThrashEm_key+0
Label_3_01461CF8:
 BYTE   VOICE   39
 BYTE   N12  Bn1  v064
 BYTE   W12
 BYTE   Bn2
 BYTE   W12
 BYTE   An2
 BYTE   W12
 BYTE   N06  Bn1
 BYTE   W06
 BYTE   N06
 BYTE   W06
 BYTE   N12
 BYTE   W12
 BYTE   Fs2
 BYTE   W12
 BYTE   Bn2
 BYTE   W12
 BYTE   N06  Bn1
 BYTE   W06
 BYTE   N06
 BYTE   W06
// 001   ----------------------------------------
Label_3_01461D12:
 BYTE   N12  Bn1  v064
 BYTE   W12
 BYTE   Bn2
 BYTE   W12
 BYTE   An2
 BYTE   W12
 BYTE   N06  Bn1
 BYTE   W06
 BYTE   N06
 BYTE   W06
 BYTE   N12
 BYTE   W12
 BYTE   Fs2
 BYTE   W12
 BYTE   Bn2
 BYTE   W12
 BYTE   N06  Bn1
 BYTE   W06
 BYTE   N06
 BYTE   W06
 BYTE   PEND 
// 002   ----------------------------------------
Label_3_01461D2B:
 BYTE   N24  Cs2  v064
 BYTE   W24
 BYTE   N12
 BYTE   W12
 BYTE   Bn2
 BYTE   W12
 BYTE   N06  Cs2
 BYTE   W06
 BYTE   N06
 BYTE   W06
 BYTE   N06
 BYTE   W06
 BYTE   N06
 BYTE   W06
 BYTE   N24
 BYTE   W24
 BYTE   PEND 
// 003   ----------------------------------------
Label_3_01461D3F:
 BYTE   N12  Dn2  v064
 BYTE   W12
 BYTE   N12
 BYTE   W12
 BYTE   Cs2
 BYTE   W12
 BYTE   Dn3
 BYTE   W12
 BYTE   Cs3
 BYTE   W12
 BYTE   Dn2
 BYTE   W12
 BYTE   An2
 BYTE   W12
 BYTE   N06  Dn2
 BYTE   W06
 BYTE   N06
 BYTE   W06
 BYTE   PEND 
 BYTE   PATT
  POIN2 Label_3_01461D3F
 BYTE   PATT
  POIN2 Label_3_01461D12
 BYTE   PATT
  POIN2 Label_3_01461D12
 BYTE   PATT
  POIN2 Label_3_01461D2B
 BYTE   PATT
  POIN2 Label_3_01461D3F
 BYTE   PATT
  POIN2 Label_3_01461D3F
 BYTE   PATT
  POIN2 Label_3_01461D3F
 BYTE   PATT
  POIN2 Label_3_01461D12
 BYTE   PATT
  POIN2 Label_3_01461D12
 BYTE   PATT
  POIN2 Label_3_01461D2B
 BYTE   PATT
  POIN2 Label_3_01461D3F
 BYTE   PATT
  POIN2 Label_3_01461D3F
 BYTE   PATT
  POIN2 Label_3_01461D12
 BYTE   PATT
  POIN2 Label_3_01461D12
 BYTE   PATT
  POIN2 Label_3_01461D2B
 BYTE   PATT
  POIN2 Label_3_01461D3F
 BYTE   PATT
  POIN2 Label_3_01461D3F
 BYTE   PATT
  POIN2 Label_3_01461D3F
// 004   ----------------------------------------
 BYTE   GoTo
  POIN2 Label_3_01461CF8
 BYTE   FINE

//**************** Track 5 (Midi-Chn.4) ****************//

songThrashEm_005:
// 000   ----------------------------------------
 BYTE   VOL   80*songThrashEm_mvl/mxv
 BYTE   KEYSH   songThrashEm_key+0
Label_4_01461BAC:
 BYTE   VOICE   49
 BYTE   N96  Bn3  v032
 BYTE   N96  Dn4
 BYTE   N96  Fs4
 BYTE   W96
// 001   ----------------------------------------
Label_4_01461BB6:
 BYTE   N96  Bn3  v032
 BYTE   N96  En4
 BYTE   N48  Gn4
 BYTE   W48
 BYTE   An4
 BYTE   W48
 BYTE   PEND 
// 002   ----------------------------------------
Label_4_01461BC1:
 BYTE   N96  Cs4  v032
 BYTE   N96  Fs4
 BYTE   N96  An4
 BYTE   W96
 BYTE   PEND 
// 003   ----------------------------------------
Label_4_01461BCA:
 BYTE   TIE  Dn4  v032
 BYTE   TIE  Fs4
 BYTE   TIE  Bn4
 BYTE   W96
 BYTE   PEND 
// 004   ----------------------------------------
 BYTE   W96
// 005   ----------------------------------------
 BYTE   EOT
 BYTE   Dn4  v078
 BYTE   Bn4
Label_4_01461BD8:
 BYTE   N96  Bn3  v032
 BYTE   N96  Dn4
 BYTE   N96  Fs4
 BYTE   W96
 BYTE   PEND 
 BYTE   PATT
  POIN2 Label_4_01461BB6
 BYTE   PATT
  POIN2 Label_4_01461BC1
// 006   ----------------------------------------
Label_4_01461BEB:
 BYTE   N96  Dn4  v032
 BYTE   N96  Fs4
 BYTE   N96  Bn4
 BYTE   W96
 BYTE   PEND 
// 007   ----------------------------------------
Label_4_01461BF4:
 BYTE   N96  Dn4  v032
 BYTE   N96  Gn4
 BYTE   N48  Bn4
 BYTE   W48
 BYTE   An4
 BYTE   W48
 BYTE   PEND 
// 008   ----------------------------------------
Label_4_01461BFF:
 BYTE   N96  Cs4  v032
 BYTE   N96  En4
 BYTE   N96  An4
 BYTE   W96
 BYTE   PEND 
 BYTE   PATT
  POIN2 Label_4_01461BD8
 BYTE   PATT
  POIN2 Label_4_01461BB6
 BYTE   PATT
  POIN2 Label_4_01461BC1
 BYTE   PATT
  POIN2 Label_4_01461BCA
// 009   ----------------------------------------
 BYTE   W96
// 010   ----------------------------------------
 BYTE   EOT
 BYTE   Dn4  v078
 BYTE   Bn4
 BYTE   PATT
  POIN2 Label_4_01461BD8
 BYTE   PATT
  POIN2 Label_4_01461BB6
 BYTE   PATT
  POIN2 Label_4_01461BC1
 BYTE   PATT
  POIN2 Label_4_01461BEB
 BYTE   PATT
  POIN2 Label_4_01461BF4
 BYTE   PATT
  POIN2 Label_4_01461BFF
// 011   ----------------------------------------
 BYTE   GoTo
  POIN2 Label_4_01461BAC
 BYTE   FINE

//**************** Track 6 (Midi-Chn.5) ****************//

songThrashEm_006:
// 000   ----------------------------------------
 BYTE   VOL   80*songThrashEm_mvl/mxv
 BYTE   KEYSH   songThrashEm_key+0
Label_5_01494FF0:
 BYTE   VOICE   124
 BYTE   N06  Cs1  v064
 BYTE   N12  Fs1
 BYTE   N24  Cs2
 BYTE   W06
 BYTE   N06  Cs1
 BYTE   W06
 BYTE   Dn1
 BYTE   N12  Fs1
 BYTE   W12
 BYTE   N24  Dn1
 BYTE   N12  Fs1
 BYTE   W12
 BYTE   N12
 BYTE   W12
 BYTE   Cs1
 BYTE   N12  Fs1
 BYTE   W12
 BYTE   Dn1
 BYTE   N12  Fs1
 BYTE   W12
 BYTE   N24  Dn1
 BYTE   N12  Fs1
 BYTE   W12
 BYTE   N12
 BYTE   W12
// 001   ----------------------------------------
Label_5_01495017:
 BYTE   N06  Cs1  v064
 BYTE   N12  Fs1
 BYTE   W06
 BYTE   N06  Cs1
 BYTE   W06
 BYTE   Dn1
 BYTE   N12  Fs1
 BYTE   W12
 BYTE   N24  Dn1
 BYTE   N12  Fs1
 BYTE   W12
 BYTE   N12
 BYTE   W12
 BYTE   Cs1
 BYTE   N12  Fs1
 BYTE   W12
 BYTE   Dn1
 BYTE   N12  Fs1
 BYTE   W12
 BYTE   N24  Dn1
 BYTE   N12  Fs1
 BYTE   W12
 BYTE   N12
 BYTE   W12
 BYTE   PEND 
 BYTE   PATT
  POIN2 Label_5_01495017
// 002   ----------------------------------------
Label_5_01495040:
 BYTE   N24  En1  v064
 BYTE   N12  Fs1
 BYTE   W12
 BYTE   N12
 BYTE   W12
 BYTE   N24  Dn1
 BYTE   N12  Fs1
 BYTE   W12
 BYTE   N12
 BYTE   W12
 BYTE   Dn1
 BYTE   N12  Fs1
 BYTE   W12
 BYTE   En1
 BYTE   N12  Fs1
 BYTE   W12
 BYTE   N06  Dn1
 BYTE   N12  Fs1
 BYTE   W06
 BYTE   N06  En1
 BYTE   W06
 BYTE   Dn1
 BYTE   N12  Fs1
 BYTE   W06
 BYTE   N06  En1
 BYTE   W06
 BYTE   PEND 
// 003   ----------------------------------------
Label_5_01495067:
 BYTE   N24  En1  v064
 BYTE   W24
 BYTE   Dn1
 BYTE   W24
 BYTE   N12
 BYTE   W12
 BYTE   En1
 BYTE   W12
 BYTE   N06  Dn1
 BYTE   W06
 BYTE   En1
 BYTE   W06
 BYTE   Dn1
 BYTE   W06
 BYTE   En1
 BYTE   W06
 BYTE   PEND 
// 004   ----------------------------------------
Label_5_0149507B:
 BYTE   N06  Cs1  v064
 BYTE   N12  Fs1
 BYTE   N24  Cs2
 BYTE   W06
 BYTE   N06  Cs1
 BYTE   W06
 BYTE   Dn1
 BYTE   N12  Fs1
 BYTE   W12
 BYTE   N24  Dn1
 BYTE   N12  Fs1
 BYTE   W12
 BYTE   N12
 BYTE   W12
 BYTE   Cs1
 BYTE   N12  Fs1
 BYTE   W12
 BYTE   Dn1
 BYTE   N12  Fs1
 BYTE   W12
 BYTE   N24  Dn1
 BYTE   N12  Fs1
 BYTE   W12
 BYTE   N12
 BYTE   W12
 BYTE   PEND 
 BYTE   PATT
  POIN2 Label_5_01495017
 BYTE   PATT
  POIN2 Label_5_01495017
// 005   ----------------------------------------
Label_5_014950AB:
 BYTE   N24  En1  v064
 BYTE   N12  Fs1
 BYTE   W12
 BYTE   N12
 BYTE   W12
 BYTE   N24  Dn1
 BYTE   N12  Fs1
 BYTE   W12
 BYTE   N12
 BYTE   W12
 BYTE   Cs1
 BYTE   N12  Fs1
 BYTE   W12
 BYTE   Dn1
 BYTE   N12  Fs1
 BYTE   W12
 BYTE   N06  Cs1
 BYTE   N12  Fs1
 BYTE   W06
 BYTE   N06  Dn1
 BYTE   W06
 BYTE   Cs1
 BYTE   N12  Fs1
 BYTE   W06
 BYTE   N06  Dn1
 BYTE   W06
 BYTE   PEND 
// 006   ----------------------------------------
Label_5_014950D2:
 BYTE   N24  En1  v064
 BYTE   N06  Fs1
 BYTE   W06
 BYTE   Fs1  v052
 BYTE   W06
 BYTE   Fs1  v064
 BYTE   W06
 BYTE   Fs1  v052
 BYTE   W06
 BYTE   N24  Dn1  v064
 BYTE   N06  Fs1
 BYTE   W06
 BYTE   Fs1  v052
 BYTE   W06
 BYTE   Fs1  v064
 BYTE   W06
 BYTE   Fs1  v052
 BYTE   W06
 BYTE   N24  En1  v064
 BYTE   N06  Fs1
 BYTE   W06
 BYTE   Fs1  v052
 BYTE   W06
 BYTE   Fs1  v064
 BYTE   W06
 BYTE   Fs1  v052
 BYTE   W06
 BYTE   N24  Dn1  v064
 BYTE   N06  Fs1
 BYTE   W06
 BYTE   Fs1  v052
 BYTE   W06
 BYTE   Fs1  v064
 BYTE   W06
 BYTE   Fs1  v052
 BYTE   W06
 BYTE   PEND 
// 007   ----------------------------------------
Label_5_0149510F:
 BYTE   N24  En1  v064
 BYTE   N06  Fs1
 BYTE   W06
 BYTE   Fs1  v052
 BYTE   W06
 BYTE   Fs1  v064
 BYTE   W06
 BYTE   Fs1  v052
 BYTE   W06
 BYTE   N24  Dn1  v064
 BYTE   N06  Fs1
 BYTE   W06
 BYTE   Fs1  v052
 BYTE   W06
 BYTE   Fs1  v064
 BYTE   W06
 BYTE   Fs1  v052
 BYTE   W06
 BYTE   N12  Dn1  v064
 BYTE   N06  Fs1
 BYTE   W06
 BYTE   Fs1  v052
 BYTE   W06
 BYTE   N12  En1  v064
 BYTE   N06  Fs1
 BYTE   W06
 BYTE   Fs1  v052
 BYTE   W06
 BYTE   Dn1  v064
 BYTE   N06  Fs1
 BYTE   W06
 BYTE   En1
 BYTE   N06  Fs1  v052
 BYTE   W06
 BYTE   Dn1  v064
 BYTE   N06  Fs1
 BYTE   W06
 BYTE   En1
 BYTE   N06  Fs1  v052
 BYTE   W06
 BYTE   PEND 
 BYTE   PATT
  POIN2 Label_5_0149507B
 BYTE   PATT
  POIN2 Label_5_01495017
 BYTE   PATT
  POIN2 Label_5_01495017
 BYTE   PATT
  POIN2 Label_5_01495040
 BYTE   PATT
  POIN2 Label_5_01495067
 BYTE   PATT
  POIN2 Label_5_0149507B
 BYTE   PATT
  POIN2 Label_5_01495017
 BYTE   PATT
  POIN2 Label_5_01495017
 BYTE   PATT
  POIN2 Label_5_014950AB
 BYTE   PATT
  POIN2 Label_5_014950D2
 BYTE   PATT
  POIN2 Label_5_0149510F
// 008   ----------------------------------------
 BYTE   GoTo
  POIN2 Label_5_01494FF0
 BYTE   FINE

//******************************************************//
	ALIGN 4

songThrashEm:
	BYTE	6	// NumTrks
	BYTE	0	// NumBlks
	BYTE	songThrashEm_pri	// Priority
	BYTE	songThrashEm_rev	// Reverb.
    
	POIN2	songThrashEm_grp
    
	POIN2	songThrashEm_001
	POIN2	songThrashEm_002
	POIN2	songThrashEm_003
	POIN2	songThrashEm_004
	POIN2	songThrashEm_005
	POIN2	songThrashEm_006

	
