//Event file generated from Sappy .s format.
	#include "MPlayDef.event"

	#define	songTownOfWindsAndRuins_grp  voicegroup000
	#define	songTownOfWindsAndRuins_pri  0
	#define	songTownOfWindsAndRuins_rev  0
	#define	songTownOfWindsAndRuins_mvl  127
	#define	songTownOfWindsAndRuins_key  0
	#define	songTownOfWindsAndRuins_tbs  1
	#define	songTownOfWindsAndRuins_exg  0
	#define	songTownOfWindsAndRuins_cmp  1

	// .rodata
	//	songTownOfWindsAndRuins
	ALIGN 4


//**************** Track 1 (Midi-Chn.0) ****************//

songTownOfWindsAndRuins_001:
// 000   ----------------------------------------
 BYTE   KEYSH   songTownOfWindsAndRuins_key+0
LabelTownOfWindsAndRuins0_01059BCA:
 BYTE   TEMPO   90*songTownOfWindsAndRuins_tbs/2
 BYTE   VOICE   75
 BYTE   VOL   22*songTownOfWindsAndRuins_mvl/mxv
 BYTE   MODT 0
 BYTE   CnM2
 BYTE   LFOS 0
 BYTE   Gs1
 BYTE   VOL   33*songTownOfWindsAndRuins_mvl/mxv
 BYTE   PAN   c_v+0
 BYTE   VOL   33*songTownOfWindsAndRuins_mvl/mxv
 BYTE   N12  Dn5  v127
 BYTE   W12
 BYTE   N24  An4
 BYTE   W24
 BYTE   Gn4
 BYTE   W24
 BYTE   N36  An4
 BYTE   W36
// 001   ----------------------------------------
LabelTownOfWindsAndRuins0_01059BE6:
 BYTE   N12  Cn5  v127
 BYTE   W12
 BYTE   N24  Gn4
 BYTE   W24
 BYTE   Fn4
 BYTE   W24
 BYTE   N36  Gn4
 BYTE   W36
 BYTE   PEND 
// 002   ----------------------------------------
LabelTownOfWindsAndRuins0_01059BF3:
 BYTE   N12  Dn5  v127
 BYTE   W12
 BYTE   N24  An4
 BYTE   W24
 BYTE   Gn4
 BYTE   W24
 BYTE   N36  An4
 BYTE   W36
 BYTE   PEND 
// 003   ----------------------------------------
LabelTownOfWindsAndRuins0_01059C00:
 BYTE   N12  Cn5  v127
 BYTE   W12
 BYTE   N24  Gn4
 BYTE   W24
 BYTE   Fn4
 BYTE   W24
 BYTE   N12  En4
 BYTE   W12
 BYTE   N24  Cn4
 BYTE   W24
 BYTE   PEND 
 BYTE   PATT
  POIN2 LabelTownOfWindsAndRuins0_01059BF3
 BYTE   PATT
  POIN2 LabelTownOfWindsAndRuins0_01059BE6
 BYTE   PATT
  POIN2 LabelTownOfWindsAndRuins0_01059BF3
 BYTE   PATT
  POIN2 LabelTownOfWindsAndRuins0_01059C00
// 004   ----------------------------------------
 BYTE   VOL   33*songTownOfWindsAndRuins_mvl/mxv
 BYTE   W96
// 005   ----------------------------------------
 BYTE   W96
// 006   ----------------------------------------
 BYTE   W96
// 007   ----------------------------------------
 BYTE   W96
// 008   ----------------------------------------
 BYTE   W96
// 009   ----------------------------------------
 BYTE   W96
// 010   ----------------------------------------
 BYTE   W96
// 011   ----------------------------------------
 BYTE   W96
// 012   ----------------------------------------
 BYTE   W96
// 013   ----------------------------------------
 BYTE   W96
// 014   ----------------------------------------
 BYTE   W96
// 015   ----------------------------------------
 BYTE   W96
// 016   ----------------------------------------
 BYTE   W96
// 017   ----------------------------------------
 BYTE   W96
// 018   ----------------------------------------
 BYTE   W96
// 019   ----------------------------------------
 BYTE   W96
// 020   ----------------------------------------
 BYTE   GoTo
  POIN2 LabelTownOfWindsAndRuins0_01059BCA
 BYTE   FINE

//**************** Track 2 (Midi-Chn.1) ****************//

songTownOfWindsAndRuins_002:
// 000   ----------------------------------------
 BYTE   KEYSH   songTownOfWindsAndRuins_key+0
LabelTownOfWindsAndRuins1_01059C3E:
 BYTE   VOICE   78
 BYTE   PAN   c_v+0
 BYTE   VOL   9*songTownOfWindsAndRuins_mvl/mxv
 BYTE   MODT 0
 BYTE   CnM2
 BYTE   LFOS 0
 BYTE   Gs1
 BYTE   N12  Dn3  v127
 BYTE   W12
 BYTE   An3
 BYTE   W12
 BYTE   N12
 BYTE   W12
 BYTE   Gn3
 BYTE   W12
 BYTE   N12
 BYTE   W12
 BYTE   N36  An3
 BYTE   W36
// 001   ----------------------------------------
LabelTownOfWindsAndRuins1_01059C57:
 BYTE   N12  Cn3  v127
 BYTE   W12
 BYTE   Gn3
 BYTE   W12
 BYTE   N12
 BYTE   W12
 BYTE   Fn3
 BYTE   W12
 BYTE   N12
 BYTE   W12
 BYTE   N36  Gn3
 BYTE   W36
 BYTE   PEND 
// 002   ----------------------------------------
LabelTownOfWindsAndRuins1_01059C67:
 BYTE   N12  Dn3  v127
 BYTE   W12
 BYTE   An3
 BYTE   W12
 BYTE   N12
 BYTE   W12
 BYTE   Gn3
 BYTE   W12
 BYTE   N12
 BYTE   W12
 BYTE   N36  An3
 BYTE   W36
 BYTE   PEND 
 BYTE   PATT
  POIN2 LabelTownOfWindsAndRuins1_01059C57
 BYTE   PATT
  POIN2 LabelTownOfWindsAndRuins1_01059C67
 BYTE   PATT
  POIN2 LabelTownOfWindsAndRuins1_01059C57
 BYTE   PATT
  POIN2 LabelTownOfWindsAndRuins1_01059C67
// 003   ----------------------------------------
 BYTE   N12  Cn3  v127
 BYTE   W12
 BYTE   Gn3
 BYTE   W12
 BYTE   N12
 BYTE   W12
 BYTE   Fn3
 BYTE   W12
 BYTE   N12
 BYTE   W12
 BYTE   Gn3
 BYTE   W12
 BYTE   N06  Fn3
 BYTE   W06
 BYTE   En3
 BYTE   W06
 BYTE   Dn3
 BYTE   W06
 BYTE   Cn3
 BYTE   W06
// 004   ----------------------------------------
 BYTE   VOL   14*songTownOfWindsAndRuins_mvl/mxv
 BYTE   W96
// 005   ----------------------------------------
 BYTE   W96
// 006   ----------------------------------------
 BYTE   W96
// 007   ----------------------------------------
 BYTE   W96
// 008   ----------------------------------------
 BYTE   W96
// 009   ----------------------------------------
 BYTE   W96
// 010   ----------------------------------------
 BYTE   W96
// 011   ----------------------------------------
 BYTE   W96
// 012   ----------------------------------------
 BYTE   W96
// 013   ----------------------------------------
 BYTE   W96
// 014   ----------------------------------------
 BYTE   W96
// 015   ----------------------------------------
 BYTE   W96
// 016   ----------------------------------------
 BYTE   W96
// 017   ----------------------------------------
 BYTE   W96
// 018   ----------------------------------------
 BYTE   W96
// 019   ----------------------------------------
 BYTE   W96
// 020   ----------------------------------------
 BYTE   GoTo
  POIN2 LabelTownOfWindsAndRuins1_01059C3E
 BYTE   FINE

//**************** Track 3 (Midi-Chn.2) ****************//

songTownOfWindsAndRuins_003:
// 000   ----------------------------------------
 BYTE   KEYSH   songTownOfWindsAndRuins_key+0
LabelTownOfWindsAndRuins2_01059CBE:
 BYTE   VOICE   6
 BYTE   PAN   c_v+0
 BYTE   VOL   14*songTownOfWindsAndRuins_mvl/mxv
 BYTE   MODT 0
 BYTE   CnM2
 BYTE   LFOS 0
 BYTE   Gs1
 BYTE   VOL   10*songTownOfWindsAndRuins_mvl/mxv
 BYTE   W36
 BYTE   N12  An3  v127
 BYTE   W12
 BYTE   Fn3
 BYTE   W12
 BYTE   Gn3
 BYTE   W12
 BYTE   En3
 BYTE   W12
 BYTE   Fn3
 BYTE   W12
// 001   ----------------------------------------
LabelTownOfWindsAndRuins2_01059CD7:
 BYTE   W36
 BYTE   N12  Gn3  v127
 BYTE   W12
 BYTE   En3
 BYTE   W12
 BYTE   Fn3
 BYTE   W12
 BYTE   Dn3
 BYTE   W12
 BYTE   En3
 BYTE   W12
 BYTE   PEND 
// 002   ----------------------------------------
LabelTownOfWindsAndRuins2_01059CE5:
 BYTE   W36
 BYTE   N12  An3  v127
 BYTE   W12
 BYTE   Fn3
 BYTE   W12
 BYTE   Gn3
 BYTE   W12
 BYTE   En3
 BYTE   W12
 BYTE   Fn3
 BYTE   W12
 BYTE   PEND 
 BYTE   PATT
  POIN2 LabelTownOfWindsAndRuins2_01059CD7
 BYTE   PATT
  POIN2 LabelTownOfWindsAndRuins2_01059CE5
 BYTE   PATT
  POIN2 LabelTownOfWindsAndRuins2_01059CD7
 BYTE   PATT
  POIN2 LabelTownOfWindsAndRuins2_01059CE5
// 003   ----------------------------------------
 BYTE   W36
 BYTE   N12  Gn3  v127
 BYTE   W12
 BYTE   Fn3
 BYTE   W12
 BYTE   En3
 BYTE   W12
 BYTE   Dn3
 BYTE   W12
 BYTE   Cn3
 BYTE   W12
// 004   ----------------------------------------
 BYTE   VOL   14*songTownOfWindsAndRuins_mvl/mxv
 BYTE   N12  Dn3
 BYTE   W12
 BYTE   Fn3
 BYTE   W12
 BYTE   An3
 BYTE   W12
 BYTE   Dn4
 BYTE   W12
 BYTE   Dn3
 BYTE   W12
 BYTE   Fn3
 BYTE   W12
 BYTE   An3
 BYTE   W12
 BYTE   Dn4
 BYTE   W12
// 005   ----------------------------------------
LabelTownOfWindsAndRuins2_01059D27:
 BYTE   N12  En3  v127
 BYTE   W12
 BYTE   Gn3
 BYTE   W12
 BYTE   Cn4
 BYTE   W12
 BYTE   En4
 BYTE   W12
 BYTE   En3
 BYTE   W12
 BYTE   Gn3
 BYTE   W12
 BYTE   Cn4
 BYTE   W12
 BYTE   En4
 BYTE   W12
 BYTE   PEND 
// 006   ----------------------------------------
LabelTownOfWindsAndRuins2_01059D3A:
 BYTE   N12  Fn3  v127
 BYTE   W12
 BYTE   An3
 BYTE   W12
 BYTE   Dn4
 BYTE   W12
 BYTE   Fn4
 BYTE   W12
 BYTE   Fn3
 BYTE   W12
 BYTE   An3
 BYTE   W12
 BYTE   Dn4
 BYTE   W12
 BYTE   Fn4
 BYTE   W12
 BYTE   PEND 
// 007   ----------------------------------------
LabelTownOfWindsAndRuins2_01059D4D:
 BYTE   N12  Dn3  v127
 BYTE   W12
 BYTE   Fn3
 BYTE   W12
 BYTE   An3
 BYTE   W12
 BYTE   Dn4
 BYTE   W12
 BYTE   Dn3
 BYTE   W12
 BYTE   Fn3
 BYTE   W12
 BYTE   An3
 BYTE   W12
 BYTE   Dn4
 BYTE   W12
 BYTE   PEND 
 BYTE   PATT
  POIN2 LabelTownOfWindsAndRuins2_01059D4D
 BYTE   PATT
  POIN2 LabelTownOfWindsAndRuins2_01059D27
 BYTE   PATT
  POIN2 LabelTownOfWindsAndRuins2_01059D4D
 BYTE   PATT
  POIN2 LabelTownOfWindsAndRuins2_01059D4D
 BYTE   PATT
  POIN2 LabelTownOfWindsAndRuins2_01059D4D
 BYTE   PATT
  POIN2 LabelTownOfWindsAndRuins2_01059D27
 BYTE   PATT
  POIN2 LabelTownOfWindsAndRuins2_01059D3A
 BYTE   PATT
  POIN2 LabelTownOfWindsAndRuins2_01059D4D
 BYTE   PATT
  POIN2 LabelTownOfWindsAndRuins2_01059D4D
 BYTE   PATT
  POIN2 LabelTownOfWindsAndRuins2_01059D27
 BYTE   PATT
  POIN2 LabelTownOfWindsAndRuins2_01059D4D
// 008   ----------------------------------------
 BYTE   N12  Gn3  v127
 BYTE   W12
 BYTE   An3
 BYTE   W12
 BYTE   Fn3
 BYTE   W12
 BYTE   Gn3
 BYTE   W12
 BYTE   En3
 BYTE   W12
 BYTE   Fn3
 BYTE   W12
 BYTE   Dn3
 BYTE   W12
 BYTE   En3
 BYTE   W12
// 009   ----------------------------------------
 BYTE   GoTo
  POIN2 LabelTownOfWindsAndRuins2_01059CBE
 BYTE   FINE

//**************** Track 4 (Midi-Chn.3) ****************//

songTownOfWindsAndRuins_004:
// 000   ----------------------------------------
 BYTE   KEYSH   songTownOfWindsAndRuins_key+0
LabelTownOfWindsAndRuins3_01059DB2:
 BYTE   VOICE   71
 BYTE   PAN   c_v+0
 BYTE   VOL   18*songTownOfWindsAndRuins_mvl/mxv
 BYTE   MODT 0
 BYTE   CnM2
 BYTE   LFOS 0
 BYTE   Gs1
 BYTE   W96
// 001   ----------------------------------------
 BYTE   W96
// 002   ----------------------------------------
 BYTE   N12  Dn4  v127
 BYTE   W12
 BYTE   N06  An3
 BYTE   W06
 BYTE   Bn3
 BYTE   W06
 BYTE   N12  Cn4
 BYTE   W12
 BYTE   N24  Dn4
 BYTE   W24
 BYTE   N06  Cn4
 BYTE   W06
 BYTE   Bn3
 BYTE   W06
 BYTE   N12  An3
 BYTE   W12
 BYTE   Bn3
 BYTE   W12
// 003   ----------------------------------------
 BYTE   N60  Gn3
 BYTE   W60
 BYTE   N06  Fn3
 BYTE   W06
 BYTE   En3
 BYTE   W06
 BYTE   N12  Dn3
 BYTE   W12
 BYTE   En3
 BYTE   W12
// 004   ----------------------------------------
LabelTownOfWindsAndRuins3_01059DE4:
 BYTE   N84  Dn3  v127
 BYTE   W84
 BYTE   N06  En3
 BYTE   W06
 BYTE   Fn3
 BYTE   W06
 BYTE   PEND 
// 005   ----------------------------------------
 BYTE   N60  Gn3
 BYTE   W60
 BYTE   N06  Fn3
 BYTE   W06
 BYTE   En3
 BYTE   W06
 BYTE   Dn3
 BYTE   W06
 BYTE   En3
 BYTE   W06
 BYTE   N12  Cn3
 BYTE   W12
// 006   ----------------------------------------
 BYTE   Dn3
 BYTE   W12
 BYTE   N06
 BYTE   W06
 BYTE   En3
 BYTE   W06
 BYTE   N12  Fn3
 BYTE   W12
 BYTE   Gn3
 BYTE   W12
 BYTE   N36  An3
 BYTE   W36
 BYTE   N06  Gn3
 BYTE   W06
 BYTE   Fn3
 BYTE   W06
// 007   ----------------------------------------
 BYTE   N60  En3
 BYTE   W60
 BYTE   N06  Fn3
 BYTE   W06
 BYTE   En3
 BYTE   W06
 BYTE   N12  Dn3
 BYTE   W12
 BYTE   Cn3
 BYTE   W12
// 008   ----------------------------------------
 BYTE   VOL   25*songTownOfWindsAndRuins_mvl/mxv
 BYTE   N84  Dn3
 BYTE   W84
 BYTE   N06  En3
 BYTE   W06
 BYTE   Fn3
 BYTE   W06
// 009   ----------------------------------------
LabelTownOfWindsAndRuins3_01059E27:
 BYTE   N84  En3  v127
 BYTE   W84
 BYTE   N06  Fn3
 BYTE   W06
 BYTE   Gn3
 BYTE   W06
 BYTE   PEND 
// 010   ----------------------------------------
LabelTownOfWindsAndRuins3_01059E31:
 BYTE   N72  An3  v127
 BYTE   W72
 BYTE   N06  Gn3
 BYTE   W06
 BYTE   Fn3
 BYTE   W06
 BYTE   N12  En3
 BYTE   W12
 BYTE   PEND 
// 011   ----------------------------------------
 BYTE   N96  Fn3
 BYTE   W96
// 012   ----------------------------------------
LabelTownOfWindsAndRuins3_01059E41:
 BYTE   N84  Dn4  v127
 BYTE   W84
 BYTE   N06  En4
 BYTE   W06
 BYTE   Fn4
 BYTE   W06
 BYTE   PEND 
// 013   ----------------------------------------
LabelTownOfWindsAndRuins3_01059E4B:
 BYTE   N84  En4  v127
 BYTE   W84
 BYTE   N06  Dn4
 BYTE   W06
 BYTE   Cn4
 BYTE   W06
 BYTE   PEND 
// 014   ----------------------------------------
 BYTE   N60  Dn4
 BYTE   W60
 BYTE   N24  An3
 BYTE   W24
 BYTE   N12  Gn3
 BYTE   W12
// 015   ----------------------------------------
 BYTE   N96  Fn3
 BYTE   W96
 BYTE   PATT
  POIN2 LabelTownOfWindsAndRuins3_01059DE4
 BYTE   PATT
  POIN2 LabelTownOfWindsAndRuins3_01059E27
 BYTE   PATT
  POIN2 LabelTownOfWindsAndRuins3_01059E31
// 016   ----------------------------------------
 BYTE   N96  Fn3  v127
 BYTE   W96
 BYTE   PATT
  POIN2 LabelTownOfWindsAndRuins3_01059E41
 BYTE   PATT
  POIN2 LabelTownOfWindsAndRuins3_01059E4B
// 017   ----------------------------------------
 BYTE   TIE  Dn4  v127
 BYTE   W96
// 018   ----------------------------------------
 BYTE   W96
// 019   ----------------------------------------
 BYTE   EOT
 BYTE   GoTo
  POIN2 LabelTownOfWindsAndRuins3_01059DB2
 BYTE   FINE

//**************** Track 5 (Midi-Chn.4) ****************//

songTownOfWindsAndRuins_005:
// 000   ----------------------------------------
 BYTE   KEYSH   songTownOfWindsAndRuins_key+0
LabelTownOfWindsAndRuins4_01059E8E:
 BYTE   VOICE   48
 BYTE   PAN   c_v+0
 BYTE   VOL   8*songTownOfWindsAndRuins_mvl/mxv
 BYTE   MODT 0
 BYTE   CnM2
 BYTE   LFOS 0
 BYTE   Gs1
 BYTE   W96
// 001   ----------------------------------------
 BYTE   W96
// 002   ----------------------------------------
 BYTE   W96
// 003   ----------------------------------------
 BYTE   W96
// 004   ----------------------------------------
 BYTE   W96
// 005   ----------------------------------------
 BYTE   W96
// 006   ----------------------------------------
 BYTE   W96
// 007   ----------------------------------------
 BYTE   W96
// 008   ----------------------------------------
 BYTE   N96  An3  v127
 BYTE   N96  Dn4
 BYTE   W96
// 009   ----------------------------------------
 BYTE   Bn3
 BYTE   N96  En4
 BYTE   W96
// 010   ----------------------------------------
 BYTE   Cn4
 BYTE   N96  Fn4
 BYTE   W96
// 011   ----------------------------------------
 BYTE   An3
 BYTE   N96  Dn4
 BYTE   W96
// 012   ----------------------------------------
 BYTE   An3
 BYTE   N96  Dn4
 BYTE   W96
// 013   ----------------------------------------
 BYTE   Bn3
 BYTE   N96  En4
 BYTE   W96
// 014   ----------------------------------------
 BYTE   An3
 BYTE   N96  Dn4
 BYTE   W96
// 015   ----------------------------------------
 BYTE   An3
 BYTE   N96  Dn4
 BYTE   W96
// 016   ----------------------------------------
 BYTE   An3
 BYTE   N96  Dn4
 BYTE   W96
// 017   ----------------------------------------
 BYTE   Bn3
 BYTE   N96  En4
 BYTE   W96
// 018   ----------------------------------------
 BYTE   Cn4
 BYTE   N96  Fn4
 BYTE   W96
// 019   ----------------------------------------
 BYTE   An3
 BYTE   N96  Dn4
 BYTE   W96
// 020   ----------------------------------------
 BYTE   An3
 BYTE   W96
// 021   ----------------------------------------
 BYTE   Bn3
 BYTE   N96  En4
 BYTE   W96
// 022   ----------------------------------------
 BYTE   An3
 BYTE   N96  Dn4
 BYTE   W96
// 023   ----------------------------------------
 BYTE   An3
 BYTE   N96  Dn4
 BYTE   W96
// 024   ----------------------------------------
 BYTE   GoTo
  POIN2 LabelTownOfWindsAndRuins4_01059E8E
 BYTE   FINE

//**************** Track 6 (Midi-Chn.5) ****************//

songTownOfWindsAndRuins_006:
// 000   ----------------------------------------
 BYTE   KEYSH   songTownOfWindsAndRuins_key+0
LabelTownOfWindsAndRuins5_01059EEA:
 BYTE   VOICE   54
 BYTE   PAN   c_v+0
 BYTE   VOL   12*songTownOfWindsAndRuins_mvl/mxv
 BYTE   MODT 0
 BYTE   CnM2
 BYTE   LFOS 0
 BYTE   Gs1
 BYTE   W96
// 001   ----------------------------------------
 BYTE   W96
// 002   ----------------------------------------
 BYTE   W96
// 003   ----------------------------------------
 BYTE   W96
// 004   ----------------------------------------
 BYTE   W96
// 005   ----------------------------------------
 BYTE   W96
// 006   ----------------------------------------
 BYTE   W96
// 007   ----------------------------------------
 BYTE   W96
// 008   ----------------------------------------
 BYTE   N96  An2  v127
 BYTE   N96  Dn3
 BYTE   W96
// 009   ----------------------------------------
 BYTE   Bn2
 BYTE   N96  En3
 BYTE   W96
// 010   ----------------------------------------
 BYTE   Cn3
 BYTE   N96  Fn3
 BYTE   W96
// 011   ----------------------------------------
 BYTE   An2
 BYTE   N96  Dn3
 BYTE   W96
// 012   ----------------------------------------
 BYTE   An2
 BYTE   N96  Dn3
 BYTE   W96
// 013   ----------------------------------------
 BYTE   Bn2
 BYTE   N96  En3
 BYTE   W96
// 014   ----------------------------------------
 BYTE   An2
 BYTE   N96  Dn3
 BYTE   W96
// 015   ----------------------------------------
 BYTE   An2
 BYTE   N96  Dn3
 BYTE   W96
// 016   ----------------------------------------
 BYTE   An2
 BYTE   N96  Dn3
 BYTE   W96
// 017   ----------------------------------------
 BYTE   Bn2
 BYTE   N96  En3
 BYTE   W96
// 018   ----------------------------------------
 BYTE   Cn3
 BYTE   N96  Fn3
 BYTE   W96
// 019   ----------------------------------------
 BYTE   An2
 BYTE   N96  Dn3
 BYTE   W96
// 020   ----------------------------------------
 BYTE   An2
 BYTE   W96
// 021   ----------------------------------------
 BYTE   Bn2
 BYTE   N96  En3
 BYTE   W96
// 022   ----------------------------------------
 BYTE   An2
 BYTE   N96  Dn3
 BYTE   W96
// 023   ----------------------------------------
 BYTE   An2
 BYTE   N96  Dn3
 BYTE   W96
// 024   ----------------------------------------
 BYTE   GoTo
  POIN2 LabelTownOfWindsAndRuins5_01059EEA
 BYTE   FINE

//**************** Track 7 (Midi-Chn.6) ****************//

songTownOfWindsAndRuins_007:
// 000   ----------------------------------------
 BYTE   KEYSH   songTownOfWindsAndRuins_key+0
LabelTownOfWindsAndRuins6_01059F46:
 BYTE   VOICE   121
 BYTE   PAN   c_v+0
 BYTE   VOL   12*songTownOfWindsAndRuins_mvl/mxv
 BYTE   MODT 0
 BYTE   CnM2
 BYTE   LFOS 0
 BYTE   Gs1
 BYTE   VOL   18*songTownOfWindsAndRuins_mvl/mxv
 BYTE   N06  En3  v127
 BYTE   W12
 BYTE   Ds4
 BYTE   W12
 BYTE   Ds3
 BYTE   W12
 BYTE   En3
 BYTE   W12
 BYTE   N06
 BYTE   W12
 BYTE   Ds3
 BYTE   W12
 BYTE   Ds4
 BYTE   W12
 BYTE   Ds3
 BYTE   W12
// 001   ----------------------------------------
LabelTownOfWindsAndRuins6_01059F64:
 BYTE   N06  En3  v127
 BYTE   W12
 BYTE   Ds4
 BYTE   W12
 BYTE   Ds3
 BYTE   W12
 BYTE   En3
 BYTE   W12
 BYTE   N06
 BYTE   W12
 BYTE   Ds3
 BYTE   W12
 BYTE   Ds4
 BYTE   W12
 BYTE   Ds3
 BYTE   W12
 BYTE   PEND 
 BYTE   PATT
  POIN2 LabelTownOfWindsAndRuins6_01059F64
 BYTE   PATT
  POIN2 LabelTownOfWindsAndRuins6_01059F64
 BYTE   PATT
  POIN2 LabelTownOfWindsAndRuins6_01059F64
 BYTE   PATT
  POIN2 LabelTownOfWindsAndRuins6_01059F64
 BYTE   PATT
  POIN2 LabelTownOfWindsAndRuins6_01059F64
 BYTE   PATT
  POIN2 LabelTownOfWindsAndRuins6_01059F64
 BYTE   PATT
  POIN2 LabelTownOfWindsAndRuins6_01059F64
 BYTE   PATT
  POIN2 LabelTownOfWindsAndRuins6_01059F64
 BYTE   PATT
  POIN2 LabelTownOfWindsAndRuins6_01059F64
 BYTE   PATT
  POIN2 LabelTownOfWindsAndRuins6_01059F64
 BYTE   PATT
  POIN2 LabelTownOfWindsAndRuins6_01059F64
 BYTE   PATT
  POIN2 LabelTownOfWindsAndRuins6_01059F64
 BYTE   PATT
  POIN2 LabelTownOfWindsAndRuins6_01059F64
 BYTE   PATT
  POIN2 LabelTownOfWindsAndRuins6_01059F64
 BYTE   PATT
  POIN2 LabelTownOfWindsAndRuins6_01059F64
 BYTE   PATT
  POIN2 LabelTownOfWindsAndRuins6_01059F64
 BYTE   PATT
  POIN2 LabelTownOfWindsAndRuins6_01059F64
 BYTE   PATT
  POIN2 LabelTownOfWindsAndRuins6_01059F64
 BYTE   PATT
  POIN2 LabelTownOfWindsAndRuins6_01059F64
 BYTE   PATT
  POIN2 LabelTownOfWindsAndRuins6_01059F64
 BYTE   PATT
  POIN2 LabelTownOfWindsAndRuins6_01059F64
 BYTE   PATT
  POIN2 LabelTownOfWindsAndRuins6_01059F64
// 002   ----------------------------------------
 BYTE   GoTo
  POIN2 LabelTownOfWindsAndRuins6_01059F46
 BYTE   FINE

//******************************************************//
	ALIGN 4

songTownOfWindsAndRuins:
	BYTE	7	// NumTrks
	BYTE	0	// NumBlks
	BYTE	songTownOfWindsAndRuins_pri	// Priority
	BYTE	songTownOfWindsAndRuins_rev	// Reverb.
    
	POIN2	songTownOfWindsAndRuins_grp
    
	POIN2	songTownOfWindsAndRuins_001
	POIN2	songTownOfWindsAndRuins_002
	POIN2	songTownOfWindsAndRuins_003
	POIN2	songTownOfWindsAndRuins_004
	POIN2	songTownOfWindsAndRuins_005
	POIN2	songTownOfWindsAndRuins_006
	POIN2	songTownOfWindsAndRuins_007

	
