//Event file generated from Sappy .s format.
	#include "MPlayDef.event"

	#define	songTownOfWindsAndRuin_grp  voicegroup000
	#define	songTownOfWindsAndRuin_pri  0
	#define	songTownOfWindsAndRuin_rev  0
	#define	songTownOfWindsAndRuin_mvl  127
	#define	songTownOfWindsAndRuin_key  0
	#define	songTownOfWindsAndRuin_tbs  1
	#define	songTownOfWindsAndRuin_exg  0
	#define	songTownOfWindsAndRuin_cmp  1

	// .rodata
	//	songTownOfWindsAndRuin
	ALIGN 4


//**************** Track 1 (Midi-Chn.0) ****************//

songTownOfWindsAndRuin_001:
// 000   ----------------------------------------
 BYTE   KEYSH   songTownOfWindsAndRuin_key+0
 BYTE   TEMPO   240*songTownOfWindsAndRuin_tbs/2
 BYTE   VOICE   75
 BYTE   MODT 0
 BYTE   CnM2
 BYTE   LFOS 0
 BYTE   Gs1
 BYTE   VOL   50*songTownOfWindsAndRuin_mvl/mxv
 BYTE   PAN   c_v+0
 BYTE   VOL   50*songTownOfWindsAndRuin_mvl/mxv
 BYTE   W18
 BYTE   Gs2
 BYTE   W06
 BYTE   TEMPO   90*songTownOfWindsAndRuin_tbs/2
 BYTE   N12  Dn5  v127
 BYTE   W12
 BYTE   N24  An4
 BYTE   W24
 BYTE   Gn4
 BYTE   W24
 BYTE   N36  An4
 BYTE   W12
// 001   ----------------------------------------
Label_0_0100B96D:
 BYTE   W24
 BYTE   N12  Cn5  v127
 BYTE   W12
 BYTE   N24  Gn4
 BYTE   W24
 BYTE   Fn4
 BYTE   W24
 BYTE   N36  Gn4
 BYTE   W12
 BYTE   PEND 
// 002   ----------------------------------------
Label_0_0100B97B:
 BYTE   W24
 BYTE   N12  Dn5  v127
 BYTE   W12
 BYTE   N24  An4
 BYTE   W24
 BYTE   Gn4
 BYTE   W24
 BYTE   N36  An4
 BYTE   W12
 BYTE   PEND 
// 003   ----------------------------------------
Label_0_0100B989:
 BYTE   W24
 BYTE   N12  Cn5  v127
 BYTE   W12
 BYTE   N24  Gn4
 BYTE   W24
 BYTE   Fn4
 BYTE   W24
 BYTE   N12  En4
 BYTE   W12
 BYTE   PEND 
// 004   ----------------------------------------
 BYTE   N24  Cn4
 BYTE   W24
 BYTE   N12  Dn5
 BYTE   W12
 BYTE   N24  An4
 BYTE   W24
 BYTE   Gn4
 BYTE   W24
 BYTE   N36  An4
 BYTE   W12
 BYTE   PATT
  POIN2 Label_0_0100B96D
 BYTE   PATT
  POIN2 Label_0_0100B97B
 BYTE   PATT
  POIN2 Label_0_0100B989
// 005   ----------------------------------------
 BYTE   N24  Cn4  v127
 BYTE   W24
 BYTE   VOL   50*songTownOfWindsAndRuin_mvl/mxv
 BYTE   W72
// 006   ----------------------------------------
 BYTE   W96
// 007   ----------------------------------------
 BYTE   W96
// 008   ----------------------------------------
 BYTE   W96
// 009   ----------------------------------------
 BYTE   W96
// 010   ----------------------------------------
 BYTE   W96
// 011   ----------------------------------------
 BYTE   W96
// 012   ----------------------------------------
 BYTE   W96
// 013   ----------------------------------------
 BYTE   W96
// 014   ----------------------------------------
 BYTE   W96
// 015   ----------------------------------------
 BYTE   W96
// 016   ----------------------------------------
 BYTE   W96
// 017   ----------------------------------------
 BYTE   W96
// 018   ----------------------------------------
 BYTE   W96
// 019   ----------------------------------------
 BYTE   W96
// 020   ----------------------------------------
 BYTE   W96
// 021   ----------------------------------------
 BYTE   W24
 BYTE   FINE

//**************** Track 2 (Midi-Chn.1) ****************//

songTownOfWindsAndRuin_002:
// 000   ----------------------------------------
 BYTE   KEYSH   songTownOfWindsAndRuin_key+0
 BYTE   VOICE   78
 BYTE   MODT 0
 BYTE   CnM2
 BYTE   LFOS 0
 BYTE   Gs1
 BYTE   VOL   37*songTownOfWindsAndRuin_mvl/mxv
 BYTE   PAN   c_v+0
 BYTE   VOL   37*songTownOfWindsAndRuin_mvl/mxv
 BYTE   W18
 BYTE   Cn0
 BYTE   W06
 BYTE   N12  Dn3  v127
 BYTE   W12
 BYTE   An3
 BYTE   W12
 BYTE   N12
 BYTE   W12
 BYTE   Gn3
 BYTE   W12
 BYTE   N12
 BYTE   W12
 BYTE   N36  An3
 BYTE   W12
// 001   ----------------------------------------
Label_1_0100B9EC:
 BYTE   W24
 BYTE   N12  Cn3  v127
 BYTE   W12
 BYTE   Gn3
 BYTE   W12
 BYTE   N12
 BYTE   W12
 BYTE   Fn3
 BYTE   W12
 BYTE   N12
 BYTE   W12
 BYTE   N36  Gn3
 BYTE   W12
 BYTE   PEND 
// 002   ----------------------------------------
Label_1_0100B9FD:
 BYTE   W24
 BYTE   N12  Dn3  v127
 BYTE   W12
 BYTE   An3
 BYTE   W12
 BYTE   N12
 BYTE   W12
 BYTE   Gn3
 BYTE   W12
 BYTE   N12
 BYTE   W12
 BYTE   N36  An3
 BYTE   W12
 BYTE   PEND 
 BYTE   PATT
  POIN2 Label_1_0100B9EC
 BYTE   PATT
  POIN2 Label_1_0100B9FD
 BYTE   PATT
  POIN2 Label_1_0100B9EC
 BYTE   PATT
  POIN2 Label_1_0100B9FD
// 003   ----------------------------------------
 BYTE   W24
 BYTE   N12  Cn3  v127
 BYTE   W12
 BYTE   Gn3
 BYTE   W12
 BYTE   N12
 BYTE   W12
 BYTE   Fn3
 BYTE   W12
 BYTE   N12
 BYTE   W12
 BYTE   Gn3
 BYTE   W12
// 004   ----------------------------------------
 BYTE   N06  Fn3
 BYTE   W06
 BYTE   En3
 BYTE   W06
 BYTE   Dn3
 BYTE   W06
 BYTE   Cn3
 BYTE   W06
 BYTE   VOL   37*songTownOfWindsAndRuin_mvl/mxv
 BYTE   FINE

//**************** Track 3 (Midi-Chn.2) ****************//

songTownOfWindsAndRuin_003:
// 000   ----------------------------------------
 BYTE   KEYSH   songTownOfWindsAndRuin_key+0
 BYTE   VOICE   6
 BYTE   MODT 0
 BYTE   CnM2
 BYTE   LFOS 0
 BYTE   Gs1
 BYTE   VOL   37*songTownOfWindsAndRuin_mvl/mxv
 BYTE   PAN   c_v+0
 BYTE   VOL   37*songTownOfWindsAndRuin_mvl/mxv
 BYTE   W18
 BYTE   Dn1
 BYTE   W06
 BYTE   Ds0
 BYTE   W36
 BYTE   N12  An3  v127
 BYTE   W12
 BYTE   Fn3
 BYTE   W12
 BYTE   Gn3
 BYTE   W12
// 001   ----------------------------------------
Label_2_0100BA5B:
 BYTE   N12  En3  v127
 BYTE   W12
 BYTE   Fn3
 BYTE   W48
 BYTE   Gn3
 BYTE   W12
 BYTE   En3
 BYTE   W12
 BYTE   Fn3
 BYTE   W12
 BYTE   PEND 
// 002   ----------------------------------------
Label_2_0100BA68:
 BYTE   N12  Dn3  v127
 BYTE   W12
 BYTE   En3
 BYTE   W48
 BYTE   An3
 BYTE   W12
 BYTE   Fn3
 BYTE   W12
 BYTE   Gn3
 BYTE   W12
 BYTE   PEND 
 BYTE   PATT
  POIN2 Label_2_0100BA5B
 BYTE   PATT
  POIN2 Label_2_0100BA68
 BYTE   PATT
  POIN2 Label_2_0100BA5B
 BYTE   PATT
  POIN2 Label_2_0100BA68
// 003   ----------------------------------------
 BYTE   N12  En3  v127
 BYTE   W12
 BYTE   Fn3
 BYTE   W48
 BYTE   Gn3
 BYTE   W12
 BYTE   Fn3
 BYTE   W12
 BYTE   En3
 BYTE   W12
// 004   ----------------------------------------
 BYTE   Dn3
 BYTE   W12
 BYTE   Cn3
 BYTE   W12
 BYTE   VOL   16*songTownOfWindsAndRuin_mvl/mxv
 BYTE   N12  Dn3
 BYTE   W12
 BYTE   Fn3
 BYTE   W12
 BYTE   An3
 BYTE   W12
 BYTE   Dn4
 BYTE   W12
 BYTE   Dn3
 BYTE   W12
 BYTE   Fn3
 BYTE   W12
// 005   ----------------------------------------
Label_2_0100BAA8:
 BYTE   N12  An3  v127
 BYTE   W12
 BYTE   Dn4
 BYTE   W12
 BYTE   En3
 BYTE   W12
 BYTE   Gn3
 BYTE   W12
 BYTE   Cn4
 BYTE   W12
 BYTE   En4
 BYTE   W12
 BYTE   En3
 BYTE   W12
 BYTE   Gn3
 BYTE   W12
 BYTE   PEND 
// 006   ----------------------------------------
Label_2_0100BABB:
 BYTE   N12  Cn4  v127
 BYTE   W12
 BYTE   En4
 BYTE   W12
 BYTE   Fn3
 BYTE   W12
 BYTE   An3
 BYTE   W12
 BYTE   Dn4
 BYTE   W12
 BYTE   Fn4
 BYTE   W12
 BYTE   Fn3
 BYTE   W12
 BYTE   An3
 BYTE   W12
 BYTE   PEND 
// 007   ----------------------------------------
Label_2_0100BACE:
 BYTE   N12  Dn4  v127
 BYTE   W12
 BYTE   Fn4
 BYTE   W12
 BYTE   Dn3
 BYTE   W12
 BYTE   Fn3
 BYTE   W12
 BYTE   An3
 BYTE   W12
 BYTE   Dn4
 BYTE   W12
 BYTE   Dn3
 BYTE   W12
 BYTE   Fn3
 BYTE   W12
 BYTE   PEND 
// 008   ----------------------------------------
Label_2_0100BAE1:
 BYTE   N12  An3  v127
 BYTE   W12
 BYTE   Dn4
 BYTE   W12
 BYTE   Dn3
 BYTE   W12
 BYTE   Fn3
 BYTE   W12
 BYTE   An3
 BYTE   W12
 BYTE   Dn4
 BYTE   W12
 BYTE   Dn3
 BYTE   W12
 BYTE   Fn3
 BYTE   W12
 BYTE   PEND 
 BYTE   PATT
  POIN2 Label_2_0100BAA8
// 009   ----------------------------------------
Label_2_0100BAF9:
 BYTE   N12  Cn4  v127
 BYTE   W12
 BYTE   En4
 BYTE   W12
 BYTE   Dn3
 BYTE   W12
 BYTE   Fn3
 BYTE   W12
 BYTE   An3
 BYTE   W12
 BYTE   Dn4
 BYTE   W12
 BYTE   Dn3
 BYTE   W12
 BYTE   Fn3
 BYTE   W12
 BYTE   PEND 
 BYTE   PATT
  POIN2 Label_2_0100BAE1
 BYTE   PATT
  POIN2 Label_2_0100BAE1
 BYTE   PATT
  POIN2 Label_2_0100BAA8
 BYTE   PATT
  POIN2 Label_2_0100BABB
 BYTE   PATT
  POIN2 Label_2_0100BACE
 BYTE   PATT
  POIN2 Label_2_0100BAE1
 BYTE   PATT
  POIN2 Label_2_0100BAA8
 BYTE   PATT
  POIN2 Label_2_0100BAF9
// 010   ----------------------------------------
 BYTE   N12  An3  v127
 BYTE   W12
 BYTE   Dn4
 BYTE   W12
 BYTE   Gn3
 BYTE   W12
 BYTE   An3
 BYTE   W12
 BYTE   Fn3
 BYTE   W12
 BYTE   Gn3
 BYTE   W12
 BYTE   En3
 BYTE   W12
 BYTE   Fn3
 BYTE   W12
// 011   ----------------------------------------
 BYTE   Dn3
 BYTE   W12
 BYTE   En3
 BYTE   W12
 BYTE   FINE

//**************** Track 4 (Midi-Chn.3) ****************//

songTownOfWindsAndRuin_004:
// 000   ----------------------------------------
 BYTE   KEYSH   songTownOfWindsAndRuin_key+0
 BYTE   VOICE   71
 BYTE   MODT 0
 BYTE   CnM2
 BYTE   LFOS 0
 BYTE   Gs1
 BYTE   VOL   50*songTownOfWindsAndRuin_mvl/mxv
 BYTE   PAN   c_v+0
 BYTE   VOL   50*songTownOfWindsAndRuin_mvl/mxv
 BYTE   W18
 BYTE   Bn1
 BYTE   W78
// 001   ----------------------------------------
 BYTE   W96
// 002   ----------------------------------------
 BYTE   W24
 BYTE   N12  Dn4  v127
 BYTE   W12
 BYTE   N06  An3
 BYTE   W06
 BYTE   Bn3
 BYTE   W06
 BYTE   N12  Cn4
 BYTE   W12
 BYTE   N24  Dn4
 BYTE   W24
 BYTE   N06  Cn4
 BYTE   W06
 BYTE   Bn3
 BYTE   W06
// 003   ----------------------------------------
 BYTE   N12  An3
 BYTE   W12
 BYTE   Bn3
 BYTE   W12
 BYTE   N60  Gn3
 BYTE   W60
 BYTE   N06  Fn3
 BYTE   W06
 BYTE   En3
 BYTE   W06
// 004   ----------------------------------------
 BYTE   N12  Dn3
 BYTE   W12
 BYTE   En3
 BYTE   W12
 BYTE   N84  Dn3
 BYTE   W72
// 005   ----------------------------------------
 BYTE   W12
 BYTE   N06  En3
 BYTE   W06
 BYTE   Fn3
 BYTE   W06
 BYTE   N60  Gn3
 BYTE   W60
 BYTE   N06  Fn3
 BYTE   W06
 BYTE   En3
 BYTE   W06
// 006   ----------------------------------------
 BYTE   Dn3
 BYTE   W06
 BYTE   En3
 BYTE   W06
 BYTE   N12  Cn3
 BYTE   W12
 BYTE   Dn3
 BYTE   W12
 BYTE   N06
 BYTE   W06
 BYTE   En3
 BYTE   W06
 BYTE   N12  Fn3
 BYTE   W12
 BYTE   Gn3
 BYTE   W12
 BYTE   N36  An3
 BYTE   W24
// 007   ----------------------------------------
 BYTE   W12
 BYTE   N06  Gn3
 BYTE   W06
 BYTE   Fn3
 BYTE   W06
 BYTE   N60  En3
 BYTE   W60
 BYTE   N06  Fn3
 BYTE   W06
 BYTE   En3
 BYTE   W06
// 008   ----------------------------------------
 BYTE   N12  Dn3
 BYTE   W12
 BYTE   Cn3
 BYTE   W12
 BYTE   VOL   43*songTownOfWindsAndRuin_mvl/mxv
 BYTE   N84  Dn3
 BYTE   W72
// 009   ----------------------------------------
Label_3_0100BBC3:
 BYTE   W12
 BYTE   N06  En3  v127
 BYTE   W06
 BYTE   Fn3
 BYTE   W06
 BYTE   N84  En3
 BYTE   W72
 BYTE   PEND 
// 010   ----------------------------------------
Label_3_0100BBCE:
 BYTE   W12
 BYTE   N06  Fn3  v127
 BYTE   W06
 BYTE   Gn3
 BYTE   W06
 BYTE   N72  An3
 BYTE   W72
 BYTE   PEND 
// 011   ----------------------------------------
Label_3_0100BBD9:
 BYTE   N06  Gn3  v127
 BYTE   W06
 BYTE   Fn3
 BYTE   W06
 BYTE   N12  En3
 BYTE   W12
 BYTE   N96  Fn3
 BYTE   W72
 BYTE   PEND 
// 012   ----------------------------------------
 BYTE   W24
 BYTE   N84  Dn4
 BYTE   W72
// 013   ----------------------------------------
Label_3_0100BBEA:
 BYTE   W12
 BYTE   N06  En4  v127
 BYTE   W06
 BYTE   Fn4
 BYTE   W06
 BYTE   N84  En4
 BYTE   W72
 BYTE   PEND 
// 014   ----------------------------------------
 BYTE   W12
 BYTE   N06  Dn4
 BYTE   W06
 BYTE   Cn4
 BYTE   W06
 BYTE   N60  Dn4
 BYTE   W60
 BYTE   N24  An3
 BYTE   W12
// 015   ----------------------------------------
 BYTE   W12
 BYTE   N12  Gn3
 BYTE   W12
 BYTE   N96  Fn3
 BYTE   W72
// 016   ----------------------------------------
 BYTE   W24
 BYTE   N84  Dn3
 BYTE   W72
 BYTE   PATT
  POIN2 Label_3_0100BBC3
 BYTE   PATT
  POIN2 Label_3_0100BBCE
 BYTE   PATT
  POIN2 Label_3_0100BBD9
// 017   ----------------------------------------
 BYTE   W24
 BYTE   N84  Dn4  v127
 BYTE   W72
 BYTE   PATT
  POIN2 Label_3_0100BBEA
// 018   ----------------------------------------
 BYTE   W12
 BYTE   N06  Dn4  v127
 BYTE   W06
 BYTE   Cn4
 BYTE   W06
 BYTE   TIE  Dn4
 BYTE   W72
// 019   ----------------------------------------
 BYTE   W96
// 020   ----------------------------------------
 BYTE   W24
 BYTE   EOT
 BYTE   FINE

//**************** Track 5 (Midi-Chn.4) ****************//

songTownOfWindsAndRuin_005:
// 000   ----------------------------------------
 BYTE   KEYSH   songTownOfWindsAndRuin_key+0
 BYTE   VOICE   48
 BYTE   MODT 0
 BYTE   CnM2
 BYTE   LFOS 0
 BYTE   Gs1
 BYTE   VOL   37*songTownOfWindsAndRuin_mvl/mxv
 BYTE   PAN   c_v+0
 BYTE   VOL   37*songTownOfWindsAndRuin_mvl/mxv
 BYTE   PAN   c_v+0
 BYTE   VOL   37*songTownOfWindsAndRuin_mvl/mxv
 BYTE   W18
 BYTE   AnM1
 BYTE   W78
// 001   ----------------------------------------
 BYTE   W96
// 002   ----------------------------------------
 BYTE   W96
// 003   ----------------------------------------
 BYTE   W96
// 004   ----------------------------------------
 BYTE   W96
// 005   ----------------------------------------
 BYTE   W96
// 006   ----------------------------------------
 BYTE   W96
// 007   ----------------------------------------
 BYTE   W96
// 008   ----------------------------------------
Label_4_0100BC50:
 BYTE   W24
 BYTE   N96  An3  v127
 BYTE   N96  Dn4
 BYTE   W72
 BYTE   PEND 
// 009   ----------------------------------------
Label_4_0100BC58:
 BYTE   W24
 BYTE   N96  Bn3  v127
 BYTE   N96  En4
 BYTE   W72
 BYTE   PEND 
// 010   ----------------------------------------
Label_4_0100BC60:
 BYTE   W24
 BYTE   N96  Cn4  v127
 BYTE   N96  Fn4
 BYTE   W72
 BYTE   PEND 
 BYTE   PATT
  POIN2 Label_4_0100BC50
 BYTE   PATT
  POIN2 Label_4_0100BC50
 BYTE   PATT
  POIN2 Label_4_0100BC58
 BYTE   PATT
  POIN2 Label_4_0100BC50
 BYTE   PATT
  POIN2 Label_4_0100BC50
 BYTE   PATT
  POIN2 Label_4_0100BC50
 BYTE   PATT
  POIN2 Label_4_0100BC58
 BYTE   PATT
  POIN2 Label_4_0100BC60
 BYTE   PATT
  POIN2 Label_4_0100BC50
// 011   ----------------------------------------
 BYTE   W24
 BYTE   N96  An3  v127
 BYTE   W72
 BYTE   PATT
  POIN2 Label_4_0100BC58
 BYTE   PATT
  POIN2 Label_4_0100BC50
 BYTE   PATT
  POIN2 Label_4_0100BC50
// 012   ----------------------------------------
 BYTE   W24
 BYTE   FINE

//**************** Track 6 (Midi-Chn.5) ****************//

songTownOfWindsAndRuin_006:
// 000   ----------------------------------------
 BYTE   KEYSH   songTownOfWindsAndRuin_key+0
 BYTE   VOICE   54
 BYTE   MODT 0
 BYTE   CnM2
 BYTE   LFOS 0
 BYTE   Gs1
 BYTE   VOL   37*songTownOfWindsAndRuin_mvl/mxv
 BYTE   PAN   c_v+0
 BYTE   VOL   37*songTownOfWindsAndRuin_mvl/mxv
 BYTE   PAN   c_v+0
 BYTE   VOL   37*songTownOfWindsAndRuin_mvl/mxv
 BYTE   W18
 BYTE   Gn0
 BYTE   W78
// 001   ----------------------------------------
 BYTE   W96
// 002   ----------------------------------------
 BYTE   W96
// 003   ----------------------------------------
 BYTE   W96
// 004   ----------------------------------------
 BYTE   W96
// 005   ----------------------------------------
 BYTE   W96
// 006   ----------------------------------------
 BYTE   W96
// 007   ----------------------------------------
 BYTE   W96
// 008   ----------------------------------------
Label_5_0100BCC8:
 BYTE   W24
 BYTE   N96  An2  v127
 BYTE   N96  Dn3
 BYTE   W72
 BYTE   PEND 
// 009   ----------------------------------------
Label_5_0100BCD0:
 BYTE   W24
 BYTE   N96  Bn2  v127
 BYTE   N96  En3
 BYTE   W72
 BYTE   PEND 
// 010   ----------------------------------------
Label_5_0100BCD8:
 BYTE   W24
 BYTE   N96  Cn3  v127
 BYTE   N96  Fn3
 BYTE   W72
 BYTE   PEND 
 BYTE   PATT
  POIN2 Label_5_0100BCC8
 BYTE   PATT
  POIN2 Label_5_0100BCC8
 BYTE   PATT
  POIN2 Label_5_0100BCD0
 BYTE   PATT
  POIN2 Label_5_0100BCC8
 BYTE   PATT
  POIN2 Label_5_0100BCC8
 BYTE   PATT
  POIN2 Label_5_0100BCC8
 BYTE   PATT
  POIN2 Label_5_0100BCD0
 BYTE   PATT
  POIN2 Label_5_0100BCD8
 BYTE   PATT
  POIN2 Label_5_0100BCC8
// 011   ----------------------------------------
 BYTE   W24
 BYTE   N96  An2  v127
 BYTE   W72
 BYTE   PATT
  POIN2 Label_5_0100BCD0
 BYTE   PATT
  POIN2 Label_5_0100BCC8
 BYTE   PATT
  POIN2 Label_5_0100BCC8
// 012   ----------------------------------------
 BYTE   W24
 BYTE   FINE

//**************** Track 7 (Midi-Chn.6) ****************//

songTownOfWindsAndRuin_007:
// 000   ----------------------------------------
 BYTE   KEYSH   songTownOfWindsAndRuin_key+0
 BYTE   VOICE   121
 BYTE   MODT 0
 BYTE   CnM2
 BYTE   LFOS 0
 BYTE   Gs1
 BYTE   VOL   37*songTownOfWindsAndRuin_mvl/mxv
 BYTE   PAN   c_v+0
 BYTE   VOL   37*songTownOfWindsAndRuin_mvl/mxv
 BYTE   W18
 BYTE   Gn0
 BYTE   W06
 BYTE   Bn1
 BYTE   N06  En3  v127
 BYTE   W12
 BYTE   Ds4
 BYTE   W12
 BYTE   Ds3
 BYTE   W12
 BYTE   En3
 BYTE   W12
 BYTE   N06
 BYTE   W12
 BYTE   Ds3
 BYTE   W12
// 001   ----------------------------------------
Label_6_0100BD44:
 BYTE   N06  Ds4  v127
 BYTE   W12
 BYTE   Ds3
 BYTE   W12
 BYTE   En3
 BYTE   W12
 BYTE   Ds4
 BYTE   W12
 BYTE   Ds3
 BYTE   W12
 BYTE   En3
 BYTE   W12
 BYTE   N06
 BYTE   W12
 BYTE   Ds3
 BYTE   W12
 BYTE   PEND 
 BYTE   PATT
  POIN2 Label_6_0100BD44
 BYTE   PATT
  POIN2 Label_6_0100BD44
 BYTE   PATT
  POIN2 Label_6_0100BD44
 BYTE   PATT
  POIN2 Label_6_0100BD44
 BYTE   PATT
  POIN2 Label_6_0100BD44
 BYTE   PATT
  POIN2 Label_6_0100BD44
 BYTE   PATT
  POIN2 Label_6_0100BD44
 BYTE   PATT
  POIN2 Label_6_0100BD44
 BYTE   PATT
  POIN2 Label_6_0100BD44
 BYTE   PATT
  POIN2 Label_6_0100BD44
 BYTE   PATT
  POIN2 Label_6_0100BD44
 BYTE   PATT
  POIN2 Label_6_0100BD44
 BYTE   PATT
  POIN2 Label_6_0100BD44
 BYTE   PATT
  POIN2 Label_6_0100BD44
 BYTE   PATT
  POIN2 Label_6_0100BD44
 BYTE   PATT
  POIN2 Label_6_0100BD44
 BYTE   PATT
  POIN2 Label_6_0100BD44
 BYTE   PATT
  POIN2 Label_6_0100BD44
 BYTE   PATT
  POIN2 Label_6_0100BD44
 BYTE   PATT
  POIN2 Label_6_0100BD44
 BYTE   PATT
  POIN2 Label_6_0100BD44
 BYTE   PATT
  POIN2 Label_6_0100BD44
// 002   ----------------------------------------
 BYTE   N06  Ds4  v127
 BYTE   W12
 BYTE   Ds3
 BYTE   W06
 BYTE   FINE

//******************************************************//
	ALIGN 4

songTownOfWindsAndRuin:
	BYTE	7	// NumTrks
	BYTE	0	// NumBlks
	BYTE	songTownOfWindsAndRuin_pri	// Priority
	BYTE	songTownOfWindsAndRuin_rev	// Reverb.
    
	POIN2	songTownOfWindsAndRuin_grp
    
	POIN2	songTownOfWindsAndRuin_001
	POIN2	songTownOfWindsAndRuin_002
	POIN2	songTownOfWindsAndRuin_003
	POIN2	songTownOfWindsAndRuin_004
	POIN2	songTownOfWindsAndRuin_005
	POIN2	songTownOfWindsAndRuin_006
	POIN2	songTownOfWindsAndRuin_007

	
