//Event file generated from Sappy .s format.
	#include "MPlayDef.event"

	#define	songVenusLighthouse_grp  voicegroup000
	#define	songVenusLighthouse_pri  0
	#define	songVenusLighthouse_rev  0
	#define	songVenusLighthouse_mvl  127
	#define	songVenusLighthouse_key  0
	#define	songVenusLighthouse_tbs  1
	#define	songVenusLighthouse_exg  0
	#define	songVenusLighthouse_cmp  1

	// .rodata
	//	songVenusLighthouse
	ALIGN 4


//**************** Track 1 (Midi-Chn.0) ****************//

songVenusLighthouse_001:
// 000   ----------------------------------------
 BYTE   KEYSH   songVenusLighthouse_key+0
Label_0_01034BE6:
 BYTE   TEMPO   132*songVenusLighthouse_tbs/2
 BYTE   VOICE   56
 BYTE   MODT 0
 BYTE   CnM2
 BYTE   LFOS 0
 BYTE   Gs1
 BYTE   PAN   c_v-32
 BYTE   VOL   36*songVenusLighthouse_mvl/mxv
 BYTE   N48  Fs3  v127
 BYTE   W48
 BYTE   N12  Gs3
 BYTE   W12
 BYTE   N04  An3
 BYTE   W12
 BYTE   Bn3
 BYTE   W12
 BYTE   En4
 BYTE   W12
// 001   ----------------------------------------
Label_0_01034C00:
 BYTE   PAN   c_v-32
 BYTE   VOL   36*songVenusLighthouse_mvl/mxv
 BYTE   N96  Cs4  v127
 BYTE   W96
 BYTE   PEND 
// 002   ----------------------------------------
Label_0_01034C09:
 BYTE   PAN   c_v-32
 BYTE   VOL   36*songVenusLighthouse_mvl/mxv
 BYTE   N36  Dn4  v127
 BYTE   W36
 BYTE   N06  En4
 BYTE   W06
 BYTE   Fs4
 BYTE   W06
 BYTE   N24  En4
 BYTE   W24
 BYTE   Bn3
 BYTE   W24
 BYTE   PEND 
 BYTE   PATT
  POIN2 Label_0_01034C00
// 003   ----------------------------------------
Label_0_01034C21:
 BYTE   PAN   c_v-32
 BYTE   VOL   36*songVenusLighthouse_mvl/mxv
 BYTE   N12  Bn3  v127
 BYTE   W12
 BYTE   N04  Cs4
 BYTE   W12
 BYTE   N36  Fs3
 BYTE   W36
 BYTE   N12  En3
 BYTE   W12
 BYTE   N24  Fs3
 BYTE   W24
 BYTE   PEND 
// 004   ----------------------------------------
Label_0_01034C36:
 BYTE   PAN   c_v-32
 BYTE   VOL   36*songVenusLighthouse_mvl/mxv
 BYTE   N12  Bn3  v127
 BYTE   W12
 BYTE   N04  Cs4
 BYTE   W12
 BYTE   N36  Fs3
 BYTE   W36
 BYTE   N12  En3
 BYTE   W12
 BYTE   N04  Fs3
 BYTE   W12
 BYTE   Gs3
 BYTE   W12
 BYTE   PEND 
// 005   ----------------------------------------
Label_0_01034C4D:
 BYTE   PAN   c_v-32
 BYTE   VOL   36*songVenusLighthouse_mvl/mxv
 BYTE   N96  Fs3  v127
 BYTE   W96
 BYTE   PEND 
// 006   ----------------------------------------
 BYTE   PAN   c_v-32
 BYTE   VOL   36*songVenusLighthouse_mvl/mxv
 BYTE   N48
 BYTE   W48
 BYTE   N18
 BYTE   W18
 BYTE   Gs3
 BYTE   W18
 BYTE   N12  An3
 BYTE   W12
// 007   ----------------------------------------
Label_0_01034C63:
 BYTE   PAN   c_v-32
 BYTE   VOL   36*songVenusLighthouse_mvl/mxv
 BYTE   N48  Fs3  v127
 BYTE   W48
 BYTE   N12  Gs3
 BYTE   W12
 BYTE   N04  An3
 BYTE   W12
 BYTE   Bn3
 BYTE   W12
 BYTE   En4
 BYTE   W12
 BYTE   PEND 
 BYTE   PATT
  POIN2 Label_0_01034C00
 BYTE   PATT
  POIN2 Label_0_01034C09
 BYTE   PATT
  POIN2 Label_0_01034C00
 BYTE   PATT
  POIN2 Label_0_01034C21
 BYTE   PATT
  POIN2 Label_0_01034C36
 BYTE   PATT
  POIN2 Label_0_01034C4D
// 008   ----------------------------------------
Label_0_01034C94:
 BYTE   PAN   c_v-32
 BYTE   VOL   36*songVenusLighthouse_mvl/mxv
 BYTE   N48  Fs3  v127
 BYTE   W48
 BYTE   En3
 BYTE   W48
 BYTE   PEND 
// 009   ----------------------------------------
 BYTE   PAN   c_v-32
 BYTE   VOL   36*songVenusLighthouse_mvl/mxv
 BYTE   N36  Fs3
 BYTE   W36
 BYTE   N24  Fs4
 BYTE   W24
 BYTE   N12  En4
 BYTE   W12
 BYTE   Dn4
 BYTE   W12
 BYTE   Cs4
 BYTE   W12
// 010   ----------------------------------------
 BYTE   PAN   c_v-32
 BYTE   N48  Bn3
 BYTE   W48
 BYTE   N18
 BYTE   W18
 BYTE   Cs4
 BYTE   W18
 BYTE   N12  Dn4
 BYTE   W12
// 011   ----------------------------------------
 BYTE   PAN   c_v-32
 BYTE   N36  Cs4
 BYTE   W36
 BYTE   N12  Fs3
 BYTE   W12
 BYTE   N48
 BYTE   W48
// 012   ----------------------------------------
 BYTE   PAN   c_v-32
 BYTE   N48
 BYTE   W48
 BYTE   N18
 BYTE   W18
 BYTE   Gs3
 BYTE   W18
 BYTE   N12  An3
 BYTE   W12
// 013   ----------------------------------------
 BYTE   PAN   c_v-32
 BYTE   N36  Fs3
 BYTE   W36
 BYTE   N24  Fs4
 BYTE   W24
 BYTE   N12  En4
 BYTE   W12
 BYTE   Dn4
 BYTE   W12
 BYTE   Cs4
 BYTE   W12
// 014   ----------------------------------------
 BYTE   PAN   c_v-32
 BYTE   N48  Bn3
 BYTE   W48
 BYTE   N24  Cs4
 BYTE   W24
 BYTE   Dn4
 BYTE   W24
// 015   ----------------------------------------
 BYTE   PAN   c_v-32
 BYTE   N36  Cs4
 BYTE   W36
 BYTE   N60  Fs4
 BYTE   W60
// 016   ----------------------------------------
 BYTE   PAN   c_v-32
 BYTE   N36  Fn4
 BYTE   W36
 BYTE   Fs4
 BYTE   W36
 BYTE   N24  Gs4
 BYTE   W24
 BYTE   PATT
  POIN2 Label_0_01034C63
 BYTE   PATT
  POIN2 Label_0_01034C00
 BYTE   PATT
  POIN2 Label_0_01034C09
 BYTE   PATT
  POIN2 Label_0_01034C00
 BYTE   PATT
  POIN2 Label_0_01034C21
 BYTE   PATT
  POIN2 Label_0_01034C36
 BYTE   PATT
  POIN2 Label_0_01034C4D
 BYTE   PATT
  POIN2 Label_0_01034C94
// 017   ----------------------------------------
Label_0_01034D24:
 BYTE   N12  Cn4  v127
 BYTE   N12  Ds4
 BYTE   W12
 BYTE   N02  Dn4
 BYTE   N04  Fn4
 BYTE   W12
 BYTE   N02  As3
 BYTE   N04  Dn4
 BYTE   W12
 BYTE   N02  Cn4
 BYTE   N04  Ds4
 BYTE   W12
 BYTE   N24  Dn4
 BYTE   N24  Fn4
 BYTE   W24
 BYTE   N12  Cn4
 BYTE   N12  Ds4
 BYTE   W12
 BYTE   N02  Dn4
 BYTE   N04  Fn4
 BYTE   W12
 BYTE   PEND 
// 018   ----------------------------------------
Label_0_01034D49:
 BYTE   N02  As3  v127
 BYTE   N04  Dn4
 BYTE   W12
 BYTE   N02  Cn4
 BYTE   N04  Ds4
 BYTE   W12
 BYTE   N24  Dn4
 BYTE   N24  Fn4
 BYTE   W24
 BYTE   N12  Cn4
 BYTE   N12  Ds4
 BYTE   W12
 BYTE   N02  Dn4
 BYTE   N04  Fn4
 BYTE   W12
 BYTE   N02  As3
 BYTE   N04  Dn4
 BYTE   W12
 BYTE   N02  Cn4
 BYTE   N04  Ds4
 BYTE   W12
 BYTE   PEND 
 BYTE   PATT
  POIN2 Label_0_01034D24
 BYTE   PATT
  POIN2 Label_0_01034D49
 BYTE   PATT
  POIN2 Label_0_01034D24
 BYTE   PATT
  POIN2 Label_0_01034D49
 BYTE   PATT
  POIN2 Label_0_01034D24
 BYTE   PATT
  POIN2 Label_0_01034D49
// 019   ----------------------------------------
 BYTE   N48  Cn4  v108
 BYTE   N48  En4
 BYTE   N48  Gn4
 BYTE   W48
 BYTE   N18  Cn4
 BYTE   N18  En4
 BYTE   N18  Gn4
 BYTE   W18
 BYTE   An3
 BYTE   N18  Dn4
 BYTE   N18  Fs4
 BYTE   W18
 BYTE   N12  Cn4
 BYTE   N12  En4
 BYTE   N12  Gn4
 BYTE   W12
// 020   ----------------------------------------
 BYTE   N96  Dn4
 BYTE   N96  Fs4
 BYTE   N96  An4
 BYTE   W96
// 021   ----------------------------------------
 BYTE   N48  Ds4
 BYTE   N48  Gs4
 BYTE   N48  Cn5
 BYTE   W48
 BYTE   N18  Ds4
 BYTE   N18  Gs4
 BYTE   N18  Cn5
 BYTE   W18
 BYTE   Dn4
 BYTE   N18  Fn4
 BYTE   N18  As4
 BYTE   W18
 BYTE   N12  Ds4
 BYTE   N12  Gs4
 BYTE   N12  Cn5
 BYTE   W12
// 022   ----------------------------------------
 BYTE   N48  Fn4
 BYTE   N48  As4
 BYTE   N48  Dn5
 BYTE   W48
 BYTE   Gn4
 BYTE   N48  Bn4
 BYTE   N48  Dn5
 BYTE   W40
 BYTE   W01
 BYTE   GoTo
  POIN2 Label_0_01034BE6
// 023   ----------------------------------------
 BYTE   W07
 BYTE   FINE

//**************** Track 2 (Midi-Chn.1) ****************//

songVenusLighthouse_002:
// 000   ----------------------------------------
 BYTE   KEYSH   songVenusLighthouse_key+0
Label_1_01034DE2:
 BYTE   VOICE   51
 BYTE   MODT 0
 BYTE   CnM2
 BYTE   LFOS 0
 BYTE   Gs1
 BYTE   PAN   c_v+32
 BYTE   VOL   25*songVenusLighthouse_mvl/mxv
 BYTE   N48  Fs3  v127
 BYTE   W48
 BYTE   N12  Gs3
 BYTE   W12
 BYTE   N04  An3
 BYTE   W12
 BYTE   Bn3
 BYTE   W12
 BYTE   En4
 BYTE   W12
// 001   ----------------------------------------
Label_1_01034DFA:
 BYTE   PAN   c_v+32
 BYTE   VOL   25*songVenusLighthouse_mvl/mxv
 BYTE   N96  Cs4  v127
 BYTE   W96
 BYTE   PEND 
// 002   ----------------------------------------
Label_1_01034E03:
 BYTE   PAN   c_v+32
 BYTE   VOL   25*songVenusLighthouse_mvl/mxv
 BYTE   N36  Dn4  v127
 BYTE   W36
 BYTE   N06  En4
 BYTE   W06
 BYTE   Fs4
 BYTE   W06
 BYTE   N24  En4
 BYTE   W24
 BYTE   Bn3
 BYTE   W24
 BYTE   PEND 
 BYTE   PATT
  POIN2 Label_1_01034DFA
// 003   ----------------------------------------
Label_1_01034E1B:
 BYTE   PAN   c_v+32
 BYTE   VOL   25*songVenusLighthouse_mvl/mxv
 BYTE   N12  Bn3  v127
 BYTE   W12
 BYTE   N04  Cs4
 BYTE   W12
 BYTE   N36  Fs3
 BYTE   W36
 BYTE   N12  En3
 BYTE   W12
 BYTE   N24  Fs3
 BYTE   W24
 BYTE   PEND 
// 004   ----------------------------------------
Label_1_01034E30:
 BYTE   PAN   c_v+32
 BYTE   VOL   25*songVenusLighthouse_mvl/mxv
 BYTE   N12  Bn3  v127
 BYTE   W12
 BYTE   N04  Cs4
 BYTE   W12
 BYTE   N36  Fs3
 BYTE   W36
 BYTE   N12  En3
 BYTE   W12
 BYTE   N04  Fs3
 BYTE   W12
 BYTE   Gs3
 BYTE   W12
 BYTE   PEND 
// 005   ----------------------------------------
Label_1_01034E47:
 BYTE   PAN   c_v+32
 BYTE   VOL   25*songVenusLighthouse_mvl/mxv
 BYTE   N96  Fs3  v127
 BYTE   W96
 BYTE   PEND 
// 006   ----------------------------------------
 BYTE   PAN   c_v+32
 BYTE   VOL   25*songVenusLighthouse_mvl/mxv
 BYTE   N48
 BYTE   W48
 BYTE   N18
 BYTE   W18
 BYTE   Gs3
 BYTE   W18
 BYTE   N12  An3
 BYTE   W12
// 007   ----------------------------------------
Label_1_01034E5D:
 BYTE   PAN   c_v+32
 BYTE   VOL   25*songVenusLighthouse_mvl/mxv
 BYTE   N48  Fs3  v127
 BYTE   W48
 BYTE   N12  Gs3
 BYTE   W12
 BYTE   N04  An3
 BYTE   W12
 BYTE   Bn3
 BYTE   W12
 BYTE   En4
 BYTE   W12
 BYTE   PEND 
 BYTE   PATT
  POIN2 Label_1_01034DFA
 BYTE   PATT
  POIN2 Label_1_01034E03
 BYTE   PATT
  POIN2 Label_1_01034DFA
 BYTE   PATT
  POIN2 Label_1_01034E1B
 BYTE   PATT
  POIN2 Label_1_01034E30
 BYTE   PATT
  POIN2 Label_1_01034E47
// 008   ----------------------------------------
Label_1_01034E8E:
 BYTE   PAN   c_v+32
 BYTE   VOL   25*songVenusLighthouse_mvl/mxv
 BYTE   N48  Fs3  v127
 BYTE   W48
 BYTE   En3
 BYTE   W48
 BYTE   PEND 
// 009   ----------------------------------------
 BYTE   PAN   c_v+32
 BYTE   VOL   25*songVenusLighthouse_mvl/mxv
 BYTE   N36  Fs5  v088
 BYTE   W36
 BYTE   N24  Fs6
 BYTE   W24
 BYTE   N12  En6
 BYTE   W12
 BYTE   Dn6
 BYTE   W12
 BYTE   Cs6
 BYTE   W12
// 010   ----------------------------------------
 BYTE   PAN   c_v+32
 BYTE   N48  Bn5
 BYTE   W48
 BYTE   N18
 BYTE   W18
 BYTE   Cs6
 BYTE   W18
 BYTE   N12  Dn6
 BYTE   W12
// 011   ----------------------------------------
 BYTE   PAN   c_v+32
 BYTE   N36  Cs6
 BYTE   W36
 BYTE   N12  Fs5
 BYTE   W12
 BYTE   N48
 BYTE   W48
// 012   ----------------------------------------
 BYTE   PAN   c_v+32
 BYTE   N48
 BYTE   W48
 BYTE   N18
 BYTE   W18
 BYTE   Gs5
 BYTE   W18
 BYTE   N12  An5
 BYTE   W12
// 013   ----------------------------------------
 BYTE   PAN   c_v+32
 BYTE   N36  Fs5
 BYTE   W36
 BYTE   N24  Fs6
 BYTE   W24
 BYTE   N12  En6
 BYTE   W12
 BYTE   Dn6
 BYTE   W12
 BYTE   Cs6
 BYTE   W12
// 014   ----------------------------------------
 BYTE   PAN   c_v+32
 BYTE   N48  Bn5
 BYTE   W48
 BYTE   N24  Cs6
 BYTE   W24
 BYTE   Dn6
 BYTE   W24
// 015   ----------------------------------------
 BYTE   PAN   c_v+32
 BYTE   N36  Cs6
 BYTE   W36
 BYTE   N60  Fs6
 BYTE   W60
// 016   ----------------------------------------
 BYTE   PAN   c_v+32
 BYTE   N36  Fn6
 BYTE   W36
 BYTE   Fs6
 BYTE   W36
 BYTE   N24  Gs6
 BYTE   W24
 BYTE   PATT
  POIN2 Label_1_01034E5D
 BYTE   PATT
  POIN2 Label_1_01034DFA
 BYTE   PATT
  POIN2 Label_1_01034E03
 BYTE   PATT
  POIN2 Label_1_01034DFA
 BYTE   PATT
  POIN2 Label_1_01034E1B
 BYTE   PATT
  POIN2 Label_1_01034E30
 BYTE   PATT
  POIN2 Label_1_01034E47
 BYTE   PATT
  POIN2 Label_1_01034E8E
// 017   ----------------------------------------
 BYTE   W96
// 018   ----------------------------------------
 BYTE   W96
// 019   ----------------------------------------
 BYTE   W96
// 020   ----------------------------------------
 BYTE   W96
// 021   ----------------------------------------
 BYTE   W96
// 022   ----------------------------------------
 BYTE   W96
// 023   ----------------------------------------
 BYTE   W96
// 024   ----------------------------------------
 BYTE   W96
// 025   ----------------------------------------
 BYTE   W96
// 026   ----------------------------------------
 BYTE   W96
// 027   ----------------------------------------
 BYTE   W96
// 028   ----------------------------------------
 BYTE   W88
 BYTE   W01
 BYTE   GoTo
  POIN2 Label_1_01034DE2
// 029   ----------------------------------------
 BYTE   W07
 BYTE   FINE

//**************** Track 3 (Midi-Chn.2) ****************//

songVenusLighthouse_003:
// 000   ----------------------------------------
 BYTE   KEYSH   songVenusLighthouse_key+0
Label_2_01034F36:
 BYTE   VOICE   52
 BYTE   MODT 0
 BYTE   CnM2
 BYTE   LFOS 0
 BYTE   Gs1
 BYTE   VOL   25*songVenusLighthouse_mvl/mxv
 BYTE   N48  Fs2  v127
 BYTE   N48  An2
 BYTE   N48  Cs3
 BYTE   W48
 BYTE   Gs2
 BYTE   N48  Bn2
 BYTE   N48  Dn3
 BYTE   W48
// 001   ----------------------------------------
Label_2_01034F4C:
 BYTE   VOL   25*songVenusLighthouse_mvl/mxv
 BYTE   N48  Fs2  v127
 BYTE   N48  An2
 BYTE   N48  Cs3
 BYTE   W48
 BYTE   Gs2
 BYTE   N48  Bn2
 BYTE   N48  En3
 BYTE   W48
 BYTE   PEND 
// 002   ----------------------------------------
Label_2_01034F5D:
 BYTE   VOL   25*songVenusLighthouse_mvl/mxv
 BYTE   N48  Fs2  v127
 BYTE   N48  An2
 BYTE   N48  Dn3
 BYTE   W48
 BYTE   Gs2
 BYTE   N48  Bn2
 BYTE   N48  En3
 BYTE   W48
 BYTE   PEND 
// 003   ----------------------------------------
Label_2_01034F6E:
 BYTE   VOL   25*songVenusLighthouse_mvl/mxv
 BYTE   N36  Fs2  v127
 BYTE   N36  An2
 BYTE   N36  Cs3
 BYTE   W36
 BYTE   N60  Fn2
 BYTE   N60  Gs2
 BYTE   N60  Cs3
 BYTE   W60
 BYTE   PEND 
// 004   ----------------------------------------
Label_2_01034F80:
 BYTE   VOL   25*songVenusLighthouse_mvl/mxv
 BYTE   N96  Dn2  v127
 BYTE   N96  Fs2
 BYTE   N96  An2
 BYTE   N96  Cs3
 BYTE   W96
 BYTE   PEND 
// 005   ----------------------------------------
Label_2_01034F8D:
 BYTE   VOL   25*songVenusLighthouse_mvl/mxv
 BYTE   N96  En2  v127
 BYTE   N96  Gs2
 BYTE   N96  Bn2
 BYTE   N96  Cs3
 BYTE   W96
 BYTE   PEND 
// 006   ----------------------------------------
 BYTE   VOL   25*songVenusLighthouse_mvl/mxv
 BYTE   N48  Fs2
 BYTE   N48  An2
 BYTE   N48  Cs3
 BYTE   W48
 BYTE   An2
 BYTE   N48  Cs3
 BYTE   N48  Fs3
 BYTE   W48
// 007   ----------------------------------------
 BYTE   VOL   25*songVenusLighthouse_mvl/mxv
 BYTE   N48  Cs3
 BYTE   N48  En3
 BYTE   N48  Fs3
 BYTE   N48  An3
 BYTE   W48
 BYTE   N24  Bn2
 BYTE   N24  En3
 BYTE   N24  Gs3
 BYTE   W24
 BYTE   Gs2
 BYTE   N24  Bn2
 BYTE   N24  En3
 BYTE   W24
// 008   ----------------------------------------
Label_2_01034FC1:
 BYTE   VOL   25*songVenusLighthouse_mvl/mxv
 BYTE   N48  Fs2  v127
 BYTE   N48  An2
 BYTE   N48  Cs3
 BYTE   W48
 BYTE   Gs2
 BYTE   N48  Bn2
 BYTE   N48  Dn3
 BYTE   W48
 BYTE   PEND 
 BYTE   PATT
  POIN2 Label_2_01034F4C
 BYTE   PATT
  POIN2 Label_2_01034F5D
 BYTE   PATT
  POIN2 Label_2_01034F6E
 BYTE   PATT
  POIN2 Label_2_01034F80
 BYTE   PATT
  POIN2 Label_2_01034F8D
// 009   ----------------------------------------
Label_2_01034FEB:
 BYTE   VOL   25*songVenusLighthouse_mvl/mxv
 BYTE   N96  Fs2  v127
 BYTE   N96  As2
 BYTE   N96  Cs3
 BYTE   W96
 BYTE   PEND 
// 010   ----------------------------------------
Label_2_01034FF6:
 BYTE   VOL   25*songVenusLighthouse_mvl/mxv
 BYTE   N96  En2  v127
 BYTE   N96  Gs2
 BYTE   N96  Bn2
 BYTE   N96  Fs3
 BYTE   W96
 BYTE   PEND 
// 011   ----------------------------------------
Label_2_01035003:
 BYTE   VOL   25*songVenusLighthouse_mvl/mxv
 BYTE   N96  Dn2  v127
 BYTE   N48  Cs3
 BYTE   W48
 BYTE   Dn3
 BYTE   W48
 BYTE   PEND 
// 012   ----------------------------------------
Label_2_0103500E:
 BYTE   N96  En2  v127
 BYTE   N48  En3
 BYTE   W48
 BYTE   Bn2
 BYTE   W48
 BYTE   PEND 
// 013   ----------------------------------------
 BYTE   N96  Fs2
 BYTE   N48  Cs3
 BYTE   W48
 BYTE   Dn3
 BYTE   W48
// 014   ----------------------------------------
 BYTE   N96  En2
 BYTE   N48  En3
 BYTE   W48
 BYTE   N24  Fs3
 BYTE   W24
 BYTE   Bn2
 BYTE   W24
 BYTE   PATT
  POIN2 Label_2_01035003
 BYTE   PATT
  POIN2 Label_2_0103500E
// 015   ----------------------------------------
 BYTE   N96  Fs2  v127
 BYTE   N48  Cs3
 BYTE   W48
 BYTE   Bn2
 BYTE   W48
// 016   ----------------------------------------
 BYTE   N96  Cs2
 BYTE   N48  Gs2
 BYTE   W48
 BYTE   Cs3
 BYTE   W48
 BYTE   PATT
  POIN2 Label_2_01034FC1
 BYTE   PATT
  POIN2 Label_2_01034F4C
 BYTE   PATT
  POIN2 Label_2_01034F5D
 BYTE   PATT
  POIN2 Label_2_01034F6E
 BYTE   PATT
  POIN2 Label_2_01034F80
 BYTE   PATT
  POIN2 Label_2_01034F8D
 BYTE   PATT
  POIN2 Label_2_01034FEB
 BYTE   PATT
  POIN2 Label_2_01034FF6
// 017   ----------------------------------------
Label_2_01035069:
 BYTE   TIE  Cn3  v127
 BYTE   TIE  Ds3
 BYTE   TIE  Gs3
 BYTE   W96
 BYTE   PEND 
// 018   ----------------------------------------
 BYTE   W96
// 019   ----------------------------------------
 BYTE   EOT
 BYTE   Cn3  v063
 BYTE   Gs3
Label_2_01035077:
 BYTE   N96  As2  v127
 BYTE   N96  Dn3
 BYTE   N96  Fn3
 BYTE   W96
 BYTE   PEND 
// 020   ----------------------------------------
Label_2_01035080:
 BYTE   N96  Dn3  v127
 BYTE   N96  Fn3
 BYTE   N96  As3
 BYTE   W96
 BYTE   PEND 
 BYTE   PATT
  POIN2 Label_2_01035069
// 021   ----------------------------------------
 BYTE   W96
// 022   ----------------------------------------
 BYTE   EOT
 BYTE   Cn3  v063
 BYTE   Gs3
 BYTE   PATT
  POIN2 Label_2_01035077
 BYTE   PATT
  POIN2 Label_2_01035080
// 023   ----------------------------------------
 BYTE   W96
// 024   ----------------------------------------
 BYTE   W96
// 025   ----------------------------------------
 BYTE   W96
// 026   ----------------------------------------
 BYTE   W88
 BYTE   W01
 BYTE   GoTo
  POIN2 Label_2_01034F36
// 027   ----------------------------------------
 BYTE   W07
 BYTE   FINE

//**************** Track 4 (Midi-Chn.3) ****************//

songVenusLighthouse_004:
// 000   ----------------------------------------
 BYTE   KEYSH   songVenusLighthouse_key+0
Label_3_010350AE:
 BYTE   VOICE   35
 BYTE   MODT 0
 BYTE   CnM2
 BYTE   LFOS 0
 BYTE   Gs1
 BYTE   VOL   25*songVenusLighthouse_mvl/mxv
 BYTE   N04  Fs0  v127
 BYTE   W12
 BYTE   N04
 BYTE   W12
 BYTE   N04
 BYTE   W12
 BYTE   N04
 BYTE   W12
 BYTE   Gs0
 BYTE   W12
 BYTE   N04
 BYTE   W12
 BYTE   N04
 BYTE   W12
 BYTE   N04
 BYTE   W12
// 001   ----------------------------------------
Label_3_010350C8:
 BYTE   VOL   25*songVenusLighthouse_mvl/mxv
 BYTE   N04  Fs0  v127
 BYTE   W12
 BYTE   N04
 BYTE   W12
 BYTE   N04
 BYTE   W12
 BYTE   N04
 BYTE   W12
 BYTE   N04
 BYTE   W12
 BYTE   N04
 BYTE   W12
 BYTE   N04
 BYTE   W12
 BYTE   N04
 BYTE   W12
 BYTE   PEND 
// 002   ----------------------------------------
Label_3_010350DD:
 BYTE   VOL   25*songVenusLighthouse_mvl/mxv
 BYTE   N04  Dn0  v127
 BYTE   W12
 BYTE   N04
 BYTE   W12
 BYTE   N04
 BYTE   W12
 BYTE   N04
 BYTE   W12
 BYTE   En0
 BYTE   W12
 BYTE   N04
 BYTE   W12
 BYTE   N04
 BYTE   W12
 BYTE   N04
 BYTE   W12
 BYTE   PEND 
// 003   ----------------------------------------
Label_3_010350F2:
 BYTE   VOL   25*songVenusLighthouse_mvl/mxv
 BYTE   N04  Fs0  v127
 BYTE   W12
 BYTE   N04
 BYTE   W12
 BYTE   N04
 BYTE   W12
 BYTE   Cs0
 BYTE   W12
 BYTE   N04
 BYTE   W12
 BYTE   N04
 BYTE   W12
 BYTE   N04
 BYTE   W12
 BYTE   N04
 BYTE   W12
 BYTE   PEND 
// 004   ----------------------------------------
Label_3_01035107:
 BYTE   VOL   25*songVenusLighthouse_mvl/mxv
 BYTE   N04  Dn0  v127
 BYTE   W12
 BYTE   N04
 BYTE   W12
 BYTE   N04
 BYTE   W12
 BYTE   N04
 BYTE   W12
 BYTE   N04
 BYTE   W12
 BYTE   N04
 BYTE   W12
 BYTE   N04
 BYTE   W12
 BYTE   N04
 BYTE   W12
 BYTE   PEND 
// 005   ----------------------------------------
Label_3_0103511C:
 BYTE   VOL   25*songVenusLighthouse_mvl/mxv
 BYTE   N04  En0  v127
 BYTE   W12
 BYTE   N04
 BYTE   W12
 BYTE   N04
 BYTE   W12
 BYTE   N04
 BYTE   W12
 BYTE   N04
 BYTE   W12
 BYTE   N04
 BYTE   W12
 BYTE   N04
 BYTE   W12
 BYTE   N04
 BYTE   W12
 BYTE   PEND 
 BYTE   PATT
  POIN2 Label_3_010350C8
 BYTE   PATT
  POIN2 Label_3_010350DD
// 006   ----------------------------------------
Label_3_0103513B:
 BYTE   VOL   25*songVenusLighthouse_mvl/mxv
 BYTE   N04  Fs0  v127
 BYTE   W12
 BYTE   N04
 BYTE   W12
 BYTE   N04
 BYTE   W12
 BYTE   N04
 BYTE   W12
 BYTE   Gs0
 BYTE   W12
 BYTE   N04
 BYTE   W12
 BYTE   N04
 BYTE   W12
 BYTE   N04
 BYTE   W12
 BYTE   PEND 
 BYTE   PATT
  POIN2 Label_3_010350C8
 BYTE   PATT
  POIN2 Label_3_010350DD
 BYTE   PATT
  POIN2 Label_3_010350F2
 BYTE   PATT
  POIN2 Label_3_01035107
 BYTE   PATT
  POIN2 Label_3_0103511C
 BYTE   PATT
  POIN2 Label_3_010350C8
 BYTE   PATT
  POIN2 Label_3_0103511C
// 007   ----------------------------------------
 BYTE   VOL   25*songVenusLighthouse_mvl/mxv
 BYTE   N04  Dn0  v127
 BYTE   W12
 BYTE   N04
 BYTE   W24
 BYTE   N04
 BYTE   W12
 BYTE   N04
 BYTE   W12
 BYTE   N04
 BYTE   W12
 BYTE   N04
 BYTE   W12
 BYTE   N04
 BYTE   W12
// 008   ----------------------------------------
 BYTE   En0
 BYTE   W12
 BYTE   N04
 BYTE   W24
 BYTE   N04
 BYTE   W12
 BYTE   N04
 BYTE   W12
 BYTE   N04
 BYTE   W12
 BYTE   N04
 BYTE   W12
 BYTE   N04
 BYTE   W12
// 009   ----------------------------------------
 BYTE   Fs0
 BYTE   W12
 BYTE   N04
 BYTE   W12
 BYTE   N04
 BYTE   W12
 BYTE   N24
 BYTE   W24
 BYTE   N04
 BYTE   W12
 BYTE   N04
 BYTE   W12
 BYTE   N24
 BYTE   W12
// 010   ----------------------------------------
 BYTE   W12
 BYTE   N04
 BYTE   W12
 BYTE   N04
 BYTE   W12
 BYTE   N12
 BYTE   W12
 BYTE   N04
 BYTE   W12
 BYTE   N04
 BYTE   W12
 BYTE   N12
 BYTE   W12
 BYTE   N04
 BYTE   W12
// 011   ----------------------------------------
 BYTE   Dn0
 BYTE   W12
 BYTE   N04
 BYTE   W12
 BYTE   N04
 BYTE   W12
 BYTE   N04
 BYTE   W12
 BYTE   N04
 BYTE   W12
 BYTE   N04
 BYTE   W12
 BYTE   N04
 BYTE   W12
 BYTE   N04
 BYTE   W12
// 012   ----------------------------------------
 BYTE   En0
 BYTE   W12
 BYTE   N04
 BYTE   W12
 BYTE   N04
 BYTE   W12
 BYTE   N04
 BYTE   W12
 BYTE   N04
 BYTE   W12
 BYTE   N04
 BYTE   W12
 BYTE   N04
 BYTE   W12
 BYTE   N04
 BYTE   W12
// 013   ----------------------------------------
 BYTE   N12  Fs0
 BYTE   W12
 BYTE   N02  Fs1
 BYTE   W12
 BYTE   N12  Fs0
 BYTE   W12
 BYTE   N02  Fs1
 BYTE   W12
 BYTE   N12  Fs0
 BYTE   W12
 BYTE   N02  Fs1
 BYTE   W12
 BYTE   N12  Fs0
 BYTE   W12
 BYTE   N02  Fs1
 BYTE   W12
// 014   ----------------------------------------
 BYTE   N12  Cs0
 BYTE   W12
 BYTE   N02  Cs1
 BYTE   W12
 BYTE   N12  Cs0
 BYTE   W12
 BYTE   N02  Cs1
 BYTE   W12
 BYTE   N12  Cs0
 BYTE   W12
 BYTE   N02  Cs1
 BYTE   W12
 BYTE   N12  Cs0
 BYTE   W12
 BYTE   N02  Cs1
 BYTE   W12
 BYTE   PATT
  POIN2 Label_3_0103513B
 BYTE   PATT
  POIN2 Label_3_010350C8
 BYTE   PATT
  POIN2 Label_3_010350DD
 BYTE   PATT
  POIN2 Label_3_010350F2
 BYTE   PATT
  POIN2 Label_3_01035107
 BYTE   PATT
  POIN2 Label_3_0103511C
 BYTE   PATT
  POIN2 Label_3_010350C8
 BYTE   PATT
  POIN2 Label_3_0103511C
// 015   ----------------------------------------
Label_3_01035228:
 BYTE   N12  Gs0  v127
 BYTE   W12
 BYTE   N04
 BYTE   W12
 BYTE   N04
 BYTE   W12
 BYTE   N12
 BYTE   W12
 BYTE   N04
 BYTE   W12
 BYTE   N04
 BYTE   W12
 BYTE   N12
 BYTE   W12
 BYTE   N04
 BYTE   W12
 BYTE   PEND 
// 016   ----------------------------------------
Label_3_0103523B:
 BYTE   N12  Gs0  v127
 BYTE   W12
 BYTE   N04  Gs1
 BYTE   W12
 BYTE   N12  Gs0
 BYTE   W12
 BYTE   N04  Gn1
 BYTE   W12
 BYTE   N12  Gs0
 BYTE   W12
 BYTE   N04  Fn1
 BYTE   W12
 BYTE   N12  Gs0
 BYTE   W12
 BYTE   N04  Ds1
 BYTE   W12
 BYTE   PEND 
// 017   ----------------------------------------
Label_3_01035255:
 BYTE   N12  As0  v127
 BYTE   W12
 BYTE   N04  As1
 BYTE   W12
 BYTE   Fn1
 BYTE   W12
 BYTE   N12  As0
 BYTE   W12
 BYTE   N04  Fn1
 BYTE   W12
 BYTE   As1
 BYTE   W12
 BYTE   N12  Fn1
 BYTE   W12
 BYTE   N04  As0
 BYTE   W12
 BYTE   PEND 
// 018   ----------------------------------------
Label_3_0103526D:
 BYTE   N04  As0  v127
 BYTE   W12
 BYTE   N04
 BYTE   W12
 BYTE   N04
 BYTE   W12
 BYTE   N12
 BYTE   W12
 BYTE   N04
 BYTE   W12
 BYTE   N04
 BYTE   W12
 BYTE   N12  As1
 BYTE   W12
 BYTE   N04  Fn1
 BYTE   W12
 BYTE   PEND 
 BYTE   PATT
  POIN2 Label_3_01035228
 BYTE   PATT
  POIN2 Label_3_0103523B
 BYTE   PATT
  POIN2 Label_3_01035255
 BYTE   PATT
  POIN2 Label_3_0103526D
// 019   ----------------------------------------
 BYTE   N36  Cn1  v127
 BYTE   W36
 BYTE   N06
 BYTE   W06
 BYTE   N06
 BYTE   W06
 BYTE   N18  Cn2
 BYTE   W18
 BYTE   Gn1
 BYTE   W18
 BYTE   N12  Cn2
 BYTE   W12
// 020   ----------------------------------------
 BYTE   N36  Dn1
 BYTE   W36
 BYTE   Gs0
 BYTE   W36
 BYTE   N24  Dn1
 BYTE   W24
// 021   ----------------------------------------
 BYTE   N36  Gs0
 BYTE   W36
 BYTE   N06
 BYTE   W06
 BYTE   N06
 BYTE   W06
 BYTE   N18  Gs1
 BYTE   W18
 BYTE   Ds1
 BYTE   W18
 BYTE   N12  Gs1
 BYTE   W12
// 022   ----------------------------------------
 BYTE   N24  As0
 BYTE   W24
 BYTE   N12  As1
 BYTE   W12
 BYTE   As0
 BYTE   W12
 BYTE   Gn1
 BYTE   W12
 BYTE   Gn0
 BYTE   W12
 BYTE   Dn1
 BYTE   W12
 BYTE   Gn1
 BYTE   W05
 BYTE   GoTo
  POIN2 Label_3_010350AE
// 023   ----------------------------------------
 BYTE   W07
 BYTE   FINE

//**************** Track 5 (Midi-Chn.4) ****************//

songVenusLighthouse_005:
// 000   ----------------------------------------
 BYTE   KEYSH   songVenusLighthouse_key+0
Label_4_010352D6:
 BYTE   VOICE   121
 BYTE   MODT 0
 BYTE   CnM2
 BYTE   LFOS 0
 BYTE   Gs1
 BYTE   VOL   25*songVenusLighthouse_mvl/mxv
 BYTE   W96
// 001   ----------------------------------------
 BYTE   Gn8
 BYTE   W96
// 002   ----------------------------------------
 BYTE   Gn8
 BYTE   W96
// 003   ----------------------------------------
 BYTE   Gn8
 BYTE   W96
// 004   ----------------------------------------
 BYTE   Gn8
 BYTE   W96
// 005   ----------------------------------------
 BYTE   Gn8
 BYTE   W96
// 006   ----------------------------------------
 BYTE   PAN   c_v+32
 BYTE   VOL   0*songVenusLighthouse_mvl/mxv
 BYTE   N96  Fs2  v127
 BYTE   N96  Cs3
 BYTE   N96  Fs3
 BYTE   N96  Cs4
 BYTE   W01
 BYTE   VOL   0*songVenusLighthouse_mvl/mxv
 BYTE   W01
 BYTE   CnM2
 BYTE   W01
 BYTE   CsM2
 BYTE   W01
 BYTE   CsM2
 BYTE   W01
 BYTE   CsM2
 BYTE   W01
 BYTE   DnM2
 BYTE   W01
 BYTE   DnM2
 BYTE   W01
 BYTE   DnM2
 BYTE   W01
 BYTE   DsM2
 BYTE   W01
 BYTE   DsM2
 BYTE   W01
 BYTE   EnM2
 BYTE   W01
 BYTE   EnM2
 BYTE   W01
 BYTE   FnM2
 BYTE   W01
 BYTE   FnM2
 BYTE   W01
 BYTE   FsM2
 BYTE   W01
 BYTE   GnM2
 BYTE   W01
 BYTE   GnM2
 BYTE   W01
 BYTE   GsM2
 BYTE   W01
 BYTE   AnM2
 BYTE   W01
 BYTE   AsM2
 BYTE   W01
 BYTE   BnM2
 BYTE   W01
 BYTE   BnM2
 BYTE   W01
 BYTE   CnM1
 BYTE   W01
 BYTE   CsM1
 BYTE   W01
 BYTE   DnM1
 BYTE   W01
 BYTE   DsM1
 BYTE   W01
 BYTE   EnM1
 BYTE   W01
 BYTE   FnM1
 BYTE   W01
 BYTE   FsM1
 BYTE   W01
 BYTE   GnM1
 BYTE   W01
 BYTE   GsM1
 BYTE   W01
 BYTE   AnM1
 BYTE   W01
 BYTE   AsM1
 BYTE   W01
 BYTE   BnM1
 BYTE   W01
 BYTE   Cn0
 BYTE   W01
 BYTE   Cs0
 BYTE   W01
 BYTE   Ds0
 BYTE   W01
 BYTE   En0
 BYTE   W01
 BYTE   Fn0
 BYTE   W01
 BYTE   Gn0
 BYTE   W01
 BYTE   Gn0
 BYTE   W01
 BYTE   Gs0
 BYTE   W01
 BYTE   As0
 BYTE   W01
 BYTE   Bn0
 BYTE   W01
 BYTE   Cn1
 BYTE   W01
 BYTE   Dn1
 BYTE   W01
 BYTE   Ds1
 BYTE   W01
 BYTE   Fn1
 BYTE   W01
 BYTE   Gn1
 BYTE   W01
 BYTE   Gs1
 BYTE   W01
 BYTE   An1
 BYTE   W01
 BYTE   Bn1
 BYTE   W01
 BYTE   Cn2
 BYTE   W01
 BYTE   Cs2
 BYTE   W01
 BYTE   En2
 BYTE   W01
 BYTE   Fn2
 BYTE   W01
 BYTE   Fs2
 BYTE   W01
 BYTE   Gs2
 BYTE   W01
 BYTE   As2
 BYTE   W01
 BYTE   Bn2
 BYTE   W01
 BYTE   Cn3
 BYTE   W01
 BYTE   Ds3
 BYTE   W01
 BYTE   En3
 BYTE   W01
 BYTE   Fs3
 BYTE   W01
 BYTE   Gs3
 BYTE   W01
 BYTE   An3
 BYTE   W01
 BYTE   As3
 BYTE   W01
 BYTE   Cs4
 BYTE   W01
 BYTE   Dn4
 BYTE   W01
 BYTE   En4
 BYTE   W01
 BYTE   Fs4
 BYTE   W01
 BYTE   Gs4
 BYTE   W01
 BYTE   An4
 BYTE   W01
 BYTE   Cn5
 BYTE   W01
 BYTE   Cs5
 BYTE   W01
 BYTE   Ds5
 BYTE   W01
 BYTE   Fs5
 BYTE   W01
 BYTE   Gn5
 BYTE   W01
 BYTE   Gs5
 BYTE   W01
 BYTE   Bn5
 BYTE   W01
 BYTE   Cs6
 BYTE   W01
 BYTE   Dn6
 BYTE   W01
 BYTE   Fn6
 BYTE   W01
 BYTE   Gn6
 BYTE   W01
 BYTE   An6
 BYTE   W01
 BYTE   Cn7
 BYTE   W01
 BYTE   Cs7
 BYTE   W01
 BYTE   Ds7
 BYTE   W01
 BYTE   Fs7
 BYTE   W01
 BYTE   Gs7
 BYTE   W01
 BYTE   An7
 BYTE   W01
 BYTE   Cn8
 BYTE   W01
 BYTE   Dn8
 BYTE   W01
 BYTE   En8
 BYTE   W01
 BYTE   Fn8
 BYTE   W01
// 007   ----------------------------------------
 BYTE   PAN   c_v-64
 BYTE   VOL   25*songVenusLighthouse_mvl/mxv
 BYTE   N48  Fs2
 BYTE   N48  An2
 BYTE   N48  Dn3
 BYTE   N48  Cs4
 BYTE   W44
 BYTE   W03
 BYTE   PAN   c_v+0
 BYTE   W01
 BYTE   N48  En2
 BYTE   N48  Gs2
 BYTE   N48  Gs3
 BYTE   N48  Bn3
 BYTE   W48
// 008   ----------------------------------------
 BYTE   PAN   c_v+63
 BYTE   VOL   25*songVenusLighthouse_mvl/mxv
 BYTE   PAN   c_v+61
 BYTE   N06  Cs4
 BYTE   N06  Fs4
 BYTE   W01
 BYTE   PAN   c_v+58
 BYTE   W01
 BYTE   Bn7
 BYTE   W01
 BYTE   Gs7
 BYTE   W01
 BYTE   Fn7
 BYTE   W01
 BYTE   Dn7
 BYTE   W01
 BYTE   Bn6
 BYTE   N06  An3
 BYTE   N06  Cs4
 BYTE   W01
 BYTE   PAN   c_v+40
 BYTE   W01
 BYTE   Fn6
 BYTE   W01
 BYTE   Dn6
 BYTE   W01
 BYTE   Bn5
 BYTE   W01
 BYTE   Gs5
 BYTE   W01
 BYTE   Fn5
 BYTE   N06  Fs3
 BYTE   N06  An3
 BYTE   W01
 BYTE   PAN   c_v+22
 BYTE   W01
 BYTE   Bn4
 BYTE   W01
 BYTE   Gs4
 BYTE   W01
 BYTE   Fn4
 BYTE   W01
 BYTE   Dn4
 BYTE   W01
 BYTE   Bn3
 BYTE   N06  Cs3
 BYTE   N06  Fs3
 BYTE   W01
 BYTE   PAN   c_v+4
 BYTE   W01
 BYTE   Fn3
 BYTE   W01
 BYTE   Dn3
 BYTE   W01
 BYTE   Bn2
 BYTE   W01
 BYTE   Gs2
 BYTE   W01
 BYTE   Fn2
 BYTE   N06  An2
 BYTE   N06  Cs3
 BYTE   W01
 BYTE   PAN   c_v-14
 BYTE   W01
 BYTE   Bn1
 BYTE   W01
 BYTE   An1
 BYTE   W01
 BYTE   Fs1
 BYTE   W01
 BYTE   Ds1
 BYTE   W01
 BYTE   Cn1
 BYTE   N06  Fs2
 BYTE   N06  An2
 BYTE   W01
 BYTE   PAN   c_v-31
 BYTE   W01
 BYTE   Fs0
 BYTE   W01
 BYTE   Ds0
 BYTE   W01
 BYTE   Cn0
 BYTE   W01
 BYTE   AnM1
 BYTE   W01
 BYTE   FsM1
 BYTE   N06  Cs2
 BYTE   N06  Fs2
 BYTE   W01
 BYTE   PAN   c_v-49
 BYTE   W01
 BYTE   CnM1
 BYTE   W01
 BYTE   AnM2
 BYTE   W01
 BYTE   FsM2
 BYTE   W01
 BYTE   DsM2
 BYTE   W01
 BYTE   CnM2
 BYTE   N06  An1
 BYTE   N06  Cs2
 BYTE   W54
// 009   ----------------------------------------
 BYTE   VOL   25*songVenusLighthouse_mvl/mxv
 BYTE   PAN   c_v-62
 BYTE   N06  Cs4
 BYTE   N06  Fs4
 BYTE   W01
 BYTE   PAN   c_v-59
 BYTE   W01
 BYTE   AnM2
 BYTE   W01
 BYTE   CnM1
 BYTE   W01
 BYTE   DsM1
 BYTE   W01
 BYTE   FnM1
 BYTE   W01
 BYTE   GsM1
 BYTE   N06  An3
 BYTE   N06  Cs4
 BYTE   W01
 BYTE   PAN   c_v-41
 BYTE   W01
 BYTE   Dn0
 BYTE   W01
 BYTE   Fs0
 BYTE   W01
 BYTE   An0
 BYTE   W01
 BYTE   Cn1
 BYTE   W01
 BYTE   Ds1
 BYTE   N06  Fs3
 BYTE   N06  An3
 BYTE   W01
 BYTE   PAN   c_v-22
 BYTE   W01
 BYTE   An1
 BYTE   W01
 BYTE   Cn2
 BYTE   W01
 BYTE   Ds2
 BYTE   W01
 BYTE   Fn2
 BYTE   W01
 BYTE   Gs2
 BYTE   N06  Cs3
 BYTE   N06  Fs3
 BYTE   W01
 BYTE   PAN   c_v-4
 BYTE   W01
 BYTE   Ds3
 BYTE   W01
 BYTE   Fs3
 BYTE   W01
 BYTE   An3
 BYTE   W01
 BYTE   Cn4
 BYTE   W01
 BYTE   Ds4
 BYTE   N06  An2
 BYTE   N06  Cs3
 BYTE   W01
 BYTE   PAN   c_v+14
 BYTE   W01
 BYTE   An4
 BYTE   W01
 BYTE   Cn5
 BYTE   W01
 BYTE   Ds5
 BYTE   W01
 BYTE   Fs5
 BYTE   W01
 BYTE   An5
 BYTE   N06  Fs2
 BYTE   N06  An2
 BYTE   W01
 BYTE   PAN   c_v+32
 BYTE   W01
 BYTE   Ds6
 BYTE   W01
 BYTE   Fs6
 BYTE   W01
 BYTE   An6
 BYTE   W01
 BYTE   Cn7
 BYTE   W01
 BYTE   Ds7
 BYTE   N06  Cs2
 BYTE   N06  Fs2
 BYTE   W01
 BYTE   PAN   c_v+50
 BYTE   W01
 BYTE   An7
 BYTE   W01
 BYTE   Cn8
 BYTE   W01
 BYTE   Ds8
 BYTE   W01
 BYTE   Fs8
 BYTE   W01
 BYTE   Gn8
 BYTE   N06  An1
 BYTE   N06  Cs2
 BYTE   W54
// 010   ----------------------------------------
 BYTE   VOL   25*songVenusLighthouse_mvl/mxv
 BYTE   PAN   c_v+61
 BYTE   N06  An3
 BYTE   N06  Dn4
 BYTE   W01
 BYTE   PAN   c_v+58
 BYTE   W01
 BYTE   Bn7
 BYTE   W01
 BYTE   Gs7
 BYTE   W01
 BYTE   Fn7
 BYTE   W01
 BYTE   Dn7
 BYTE   W01
 BYTE   Bn6
 BYTE   N06  Fs3
 BYTE   N06  An3
 BYTE   W01
 BYTE   PAN   c_v+40
 BYTE   W01
 BYTE   Fn6
 BYTE   W01
 BYTE   Dn6
 BYTE   W01
 BYTE   Bn5
 BYTE   W01
 BYTE   Gs5
 BYTE   W01
 BYTE   Fn5
 BYTE   N06  Dn3
 BYTE   N06  Fs3
 BYTE   W01
 BYTE   PAN   c_v+22
 BYTE   W01
 BYTE   Bn4
 BYTE   W01
 BYTE   Gs4
 BYTE   W01
 BYTE   Fn4
 BYTE   W01
 BYTE   Dn4
 BYTE   W01
 BYTE   Bn3
 BYTE   N06  An2
 BYTE   N06  Dn3
 BYTE   W01
 BYTE   PAN   c_v+4
 BYTE   W01
 BYTE   Fn3
 BYTE   W01
 BYTE   Dn3
 BYTE   W01
 BYTE   Bn2
 BYTE   W01
 BYTE   An2
 BYTE   W01
 BYTE   Fs2
 BYTE   N06  Fs2
 BYTE   N06  An2
 BYTE   W01
 BYTE   PAN   c_v-13
 BYTE   W01
 BYTE   Cn2
 BYTE   W01
 BYTE   An1
 BYTE   W01
 BYTE   Fs1
 BYTE   W01
 BYTE   Ds1
 BYTE   W01
 BYTE   Cn1
 BYTE   N06  Dn2
 BYTE   N06  Fs2
 BYTE   W01
 BYTE   PAN   c_v-31
 BYTE   W01
 BYTE   Fs0
 BYTE   W01
 BYTE   Ds0
 BYTE   W01
 BYTE   Cn0
 BYTE   W01
 BYTE   AnM1
 BYTE   W01
 BYTE   FsM1
 BYTE   N06  An1
 BYTE   N06  Dn2
 BYTE   W01
 BYTE   PAN   c_v-49
 BYTE   W01
 BYTE   CnM1
 BYTE   W01
 BYTE   AnM2
 BYTE   W01
 BYTE   FsM2
 BYTE   W01
 BYTE   DsM2
 BYTE   W01
 BYTE   CnM2
 BYTE   N06  Fs1
 BYTE   N06  An1
 BYTE   W06
 BYTE   Bn3
 BYTE   N06  En4
 BYTE   W01
 BYTE   PAN   c_v+45
 BYTE   W01
 BYTE   Bn6
 BYTE   W01
 BYTE   An6
 BYTE   W01
 BYTE   Fs6
 BYTE   W01
 BYTE   En6
 BYTE   W01
 BYTE   Cs6
 BYTE   N06  Gs3
 BYTE   N06  Bn3
 BYTE   W01
 BYTE   PAN   c_v+31
 BYTE   W01
 BYTE   An5
 BYTE   W01
 BYTE   Fs5
 BYTE   W01
 BYTE   En5
 BYTE   W01
 BYTE   Dn5
 BYTE   W01
 BYTE   Bn4
 BYTE   N06  En3
 BYTE   N06  Gs3
 BYTE   W01
 BYTE   PAN   c_v+17
 BYTE   W01
 BYTE   Gn4
 BYTE   W01
 BYTE   En4
 BYTE   W01
 BYTE   Dn4
 BYTE   W01
 BYTE   Cn4
 BYTE   W01
 BYTE   An3
 BYTE   N06  Bn2
 BYTE   N06  En3
 BYTE   W01
 BYTE   PAN   c_v+3
 BYTE   W01
 BYTE   En3
 BYTE   W01
 BYTE   Dn3
 BYTE   W01
 BYTE   Cn3
 BYTE   W01
 BYTE   An2
 BYTE   W01
 BYTE   Gn2
 BYTE   N06  Gs2
 BYTE   N06  Bn2
 BYTE   W01
 BYTE   PAN   c_v-11
 BYTE   W01
 BYTE   Dn2
 BYTE   W01
 BYTE   Cn2
 BYTE   W01
 BYTE   An1
 BYTE   W01
 BYTE   Gn1
 BYTE   W01
 BYTE   Fn1
 BYTE   N06  En2
 BYTE   N06  Gs2
 BYTE   W01
 BYTE   PAN   c_v-26
 BYTE   W01
 BYTE   Cn1
 BYTE   W01
 BYTE   As0
 BYTE   W01
 BYTE   Gn0
 BYTE   W01
 BYTE   Fn0
 BYTE   W01
 BYTE   Ds0
 BYTE   N06  Bn1
 BYTE   N06  En2
 BYTE   W01
 BYTE   PAN   c_v-40
 BYTE   W01
 BYTE   AsM1
 BYTE   W01
 BYTE   GnM1
 BYTE   W01
 BYTE   FnM1
 BYTE   W01
 BYTE   DsM1
 BYTE   W01
 BYTE   CnM1
 BYTE   N06  Gs1
 BYTE   N06  Bn1
 BYTE   W01
 BYTE   PAN   c_v-54
 BYTE   W01
 BYTE   GsM2
 BYTE   W01
 BYTE   FnM2
 BYTE   W01
 BYTE   DsM2
 BYTE   W01
 BYTE   CsM2
 BYTE   W01
// 011   ----------------------------------------
 BYTE   VOL   25*songVenusLighthouse_mvl/mxv
 BYTE   PAN   c_v+61
 BYTE   N06  Cs4
 BYTE   N06  Fs4
 BYTE   W01
 BYTE   PAN   c_v+58
 BYTE   W01
 BYTE   Bn7
 BYTE   W01
 BYTE   Gs7
 BYTE   W01
 BYTE   Fn7
 BYTE   W01
 BYTE   Dn7
 BYTE   W01
 BYTE   Bn6
 BYTE   N06  An3
 BYTE   N06  Cs4
 BYTE   W01
 BYTE   PAN   c_v+40
 BYTE   W01
 BYTE   Fn6
 BYTE   W01
 BYTE   Ds6
 BYTE   W01
 BYTE   Cn6
 BYTE   W01
 BYTE   An5
 BYTE   W01
 BYTE   Fs5
 BYTE   N06  Fs3
 BYTE   N06  An3
 BYTE   W01
 BYTE   PAN   c_v+23
 BYTE   W01
 BYTE   Cn5
 BYTE   W01
 BYTE   An4
 BYTE   W01
 BYTE   Fs4
 BYTE   W01
 BYTE   En4
 BYTE   W01
 BYTE   Cs4
 BYTE   N06  Cs3
 BYTE   N06  Fs3
 BYTE   W01
 BYTE   PAN   c_v+6
 BYTE   W01
 BYTE   Gn3
 BYTE   W01
 BYTE   En3
 BYTE   W01
 BYTE   Cs3
 BYTE   W01
 BYTE   As2
 BYTE   W01
 BYTE   Gn2
 BYTE   N06  An2
 BYTE   N06  Cs3
 BYTE   W01
 BYTE   PAN   c_v-12
 BYTE   W01
 BYTE   Dn2
 BYTE   W01
 BYTE   Bn1
 BYTE   W01
 BYTE   Gs1
 BYTE   W01
 BYTE   Fn1
 BYTE   W01
 BYTE   Dn1
 BYTE   N06  Fs2
 BYTE   N06  An2
 BYTE   W01
 BYTE   PAN   c_v-29
 BYTE   W01
 BYTE   Gs0
 BYTE   W01
 BYTE   Fn0
 BYTE   W01
 BYTE   Dn0
 BYTE   W01
 BYTE   Cn0
 BYTE   W01
 BYTE   AnM1
 BYTE   N06  Cs2
 BYTE   N06  Fn2
 BYTE   W01
 BYTE   PAN   c_v-46
 BYTE   W01
 BYTE   DsM1
 BYTE   W01
 BYTE   CnM1
 BYTE   W01
 BYTE   AnM2
 BYTE   W01
 BYTE   FsM2
 BYTE   W01
 BYTE   DsM2
 BYTE   N06
 BYTE   N06  Gs2
 BYTE   W01
 BYTE   PAN   c_v-63
 BYTE   W01
 BYTE   CnM2
 BYTE   W04
 BYTE   N06
 BYTE   N06  Cs3
 BYTE   W01
 BYTE   PAN   c_v-46
 BYTE   W01
 BYTE   GsM1
 BYTE   W01
 BYTE   AsM1
 BYTE   W01
 BYTE   Cs0
 BYTE   W01
 BYTE   Ds0
 BYTE   W01
 BYTE   Fs0
 BYTE   N06
 BYTE   N06  Fn3
 BYTE   W01
 BYTE   PAN   c_v-32
 BYTE   W01
 BYTE   As0
 BYTE   W01
 BYTE   Cs1
 BYTE   W01
 BYTE   Ds1
 BYTE   W01
 BYTE   Fn1
 BYTE   W01
 BYTE   Gs1
 BYTE   N06
 BYTE   N06  Gs3
 BYTE   W01
 BYTE   PAN   c_v-18
 BYTE   W01
 BYTE   Cn2
 BYTE   W01
 BYTE   Ds2
 BYTE   W01
 BYTE   Fn2
 BYTE   W01
 BYTE   Gs2
 BYTE   W01
 BYTE   As2
 BYTE   N06
 BYTE   N06  Cs4
 BYTE   W01
 BYTE   PAN   c_v-4
 BYTE   W01
 BYTE   Ds3
 BYTE   W01
 BYTE   Fn3
 BYTE   W01
 BYTE   Gn3
 BYTE   W01
 BYTE   As3
 BYTE   W01
 BYTE   Cn4
 BYTE   N06
 BYTE   N06  Fn4
 BYTE   W01
 BYTE   PAN   c_v+10
 BYTE   W01
 BYTE   Fn4
 BYTE   W01
 BYTE   Gn4
 BYTE   W01
 BYTE   As4
 BYTE   W01
 BYTE   Cn5
 BYTE   W01
 BYTE   Dn5
 BYTE   N06
 BYTE   N06  Gs4
 BYTE   W01
 BYTE   PAN   c_v+25
 BYTE   W01
 BYTE   Gn5
 BYTE   W01
 BYTE   An5
 BYTE   W01
 BYTE   Cn6
 BYTE   W01
 BYTE   Dn6
 BYTE   W01
 BYTE   En6
 BYTE   N06  Cs4
 BYTE   N06  Fn4
 BYTE   W01
 BYTE   PAN   c_v+39
 BYTE   W01
 BYTE   An6
 BYTE   W01
 BYTE   Cn7
 BYTE   W01
 BYTE   Dn7
 BYTE   W01
 BYTE   En7
 BYTE   W01
 BYTE   Gn7
 BYTE   N06  Gs3
 BYTE   N06  Cs4
 BYTE   W01
 BYTE   PAN   c_v+53
 BYTE   W01
 BYTE   Bn7
 BYTE   W01
 BYTE   Dn8
 BYTE   W01
 BYTE   En8
 BYTE   W01
 BYTE   Fs8
 BYTE   W01
// 012   ----------------------------------------
Label_4_010356DD:
 BYTE   PAN   c_v+0
 BYTE   VOL   25*songVenusLighthouse_mvl/mxv
 BYTE   N96  Dn3  v127
 BYTE   N96  Fs3
 BYTE   N96  An3
 BYTE   N96  Cs4
 BYTE   W96
 BYTE   PEND 
// 013   ----------------------------------------
Label_4_010356EC:
 BYTE   VOL   25*songVenusLighthouse_mvl/mxv
 BYTE   N96  Gs3  v127
 BYTE   N96  Bn3
 BYTE   N96  En4
 BYTE   W96
 BYTE   PEND 
// 014   ----------------------------------------
Label_4_010356F7:
 BYTE   VOL   25*songVenusLighthouse_mvl/mxv
 BYTE   N96  As3  v127
 BYTE   N96  Cs4
 BYTE   N96  Fs4
 BYTE   W96
 BYTE   PEND 
// 015   ----------------------------------------
Label_4_01035702:
 BYTE   VOL   25*songVenusLighthouse_mvl/mxv
 BYTE   N48  Gs3  v127
 BYTE   N48  Bn3
 BYTE   N48  Fs4
 BYTE   W48
 BYTE   Cs4
 BYTE   N48  Gs4
 BYTE   W48
 BYTE   PEND 
// 016   ----------------------------------------
 BYTE   VOL   25*songVenusLighthouse_mvl/mxv
 BYTE   N96  Dn3
 BYTE   N96  Fs3
 BYTE   N96  An3
 BYTE   N96  Cs4
 BYTE   W96
// 017   ----------------------------------------
 BYTE   En3
 BYTE   N96  Gs3
 BYTE   N96  Bn3
 BYTE   W96
// 018   ----------------------------------------
Label_4_01035722:
 BYTE   N96  Fs3  v127
 BYTE   N96  An3
 BYTE   N96  Cs4
 BYTE   W96
 BYTE   PEND 
// 019   ----------------------------------------
 BYTE   Fs3
 BYTE   N96  Gs3
 BYTE   N96  Bn3
 BYTE   W96
// 020   ----------------------------------------
 BYTE   Dn3
 BYTE   N96  Fs3
 BYTE   N96  An3
 BYTE   N96  Cs4
 BYTE   W96
// 021   ----------------------------------------
 BYTE   En3
 BYTE   N96  Gs3
 BYTE   N96  Bn3
 BYTE   W96
 BYTE   PATT
  POIN2 Label_4_01035722
// 022   ----------------------------------------
 BYTE   N96  Fn3  v127
 BYTE   N96  Gs3
 BYTE   N96  Cs4
 BYTE   W96
// 023   ----------------------------------------
 BYTE   PAN   c_v+63
 BYTE   VOL   25*songVenusLighthouse_mvl/mxv
 BYTE   PAN   c_v+61
 BYTE   N06
 BYTE   N06  Fs4
 BYTE   W01
 BYTE   PAN   c_v+58
 BYTE   W01
 BYTE   Bn7
 BYTE   W01
 BYTE   Gs7
 BYTE   W01
 BYTE   Fn7
 BYTE   W01
 BYTE   Dn7
 BYTE   W01
 BYTE   Bn6
 BYTE   N06  An3
 BYTE   N06  Cs4
 BYTE   W01
 BYTE   PAN   c_v+40
 BYTE   W01
 BYTE   Fn6
 BYTE   W01
 BYTE   Dn6
 BYTE   W01
 BYTE   Bn5
 BYTE   W01
 BYTE   Gs5
 BYTE   W01
 BYTE   Fn5
 BYTE   N06  Fs3
 BYTE   N06  An3
 BYTE   W01
 BYTE   PAN   c_v+22
 BYTE   W01
 BYTE   Bn4
 BYTE   W01
 BYTE   Gs4
 BYTE   W01
 BYTE   Fn4
 BYTE   W01
 BYTE   Dn4
 BYTE   W01
 BYTE   Bn3
 BYTE   N06  Cs3
 BYTE   N06  Fs3
 BYTE   W01
 BYTE   PAN   c_v+4
 BYTE   W01
 BYTE   Fn3
 BYTE   W01
 BYTE   Dn3
 BYTE   W01
 BYTE   Bn2
 BYTE   W01
 BYTE   Gs2
 BYTE   W01
 BYTE   Fn2
 BYTE   N06  An2
 BYTE   N06  Cs3
 BYTE   W01
 BYTE   PAN   c_v-13
 BYTE   W01
 BYTE   Cn2
 BYTE   W01
 BYTE   An1
 BYTE   W01
 BYTE   Fs1
 BYTE   W01
 BYTE   Ds1
 BYTE   W01
 BYTE   Cn1
 BYTE   N06  Fs2
 BYTE   N06  An2
 BYTE   W01
 BYTE   PAN   c_v-31
 BYTE   W01
 BYTE   Fs0
 BYTE   W01
 BYTE   Ds0
 BYTE   W01
 BYTE   Cn0
 BYTE   W01
 BYTE   AnM1
 BYTE   W01
 BYTE   FsM1
 BYTE   N06  Cs2
 BYTE   N06  Fs2
 BYTE   W01
 BYTE   PAN   c_v-49
 BYTE   W01
 BYTE   CnM1
 BYTE   W01
 BYTE   AnM2
 BYTE   W01
 BYTE   FsM2
 BYTE   W01
 BYTE   DsM2
 BYTE   W01
 BYTE   CnM2
 BYTE   N06  An1
 BYTE   N06  Cs2
 BYTE   W54
// 024   ----------------------------------------
 BYTE   VOL   25*songVenusLighthouse_mvl/mxv
 BYTE   PAN   c_v-62
 BYTE   N06  Cs4
 BYTE   N06  Fs4
 BYTE   W01
 BYTE   PAN   c_v-58
 BYTE   W01
 BYTE   AnM2
 BYTE   W01
 BYTE   CnM1
 BYTE   W01
 BYTE   DsM1
 BYTE   W01
 BYTE   FnM1
 BYTE   W01
 BYTE   GsM1
 BYTE   N06  An3
 BYTE   N06  Cs4
 BYTE   W01
 BYTE   PAN   c_v-41
 BYTE   W01
 BYTE   Dn0
 BYTE   W01
 BYTE   Fs0
 BYTE   W01
 BYTE   An0
 BYTE   W01
 BYTE   Cn1
 BYTE   W01
 BYTE   Ds1
 BYTE   N06  Fs3
 BYTE   N06  An3
 BYTE   W01
 BYTE   PAN   c_v-23
 BYTE   W01
 BYTE   An1
 BYTE   W01
 BYTE   Cn2
 BYTE   W01
 BYTE   Ds2
 BYTE   W01
 BYTE   Fn2
 BYTE   W01
 BYTE   Gs2
 BYTE   N06  Cs3
 BYTE   N06  Fs3
 BYTE   W01
 BYTE   PAN   c_v-4
 BYTE   W01
 BYTE   Ds3
 BYTE   W01
 BYTE   Fs3
 BYTE   W01
 BYTE   An3
 BYTE   W01
 BYTE   Bn3
 BYTE   W01
 BYTE   Ds4
 BYTE   N06  An2
 BYTE   N06  Cs3
 BYTE   W01
 BYTE   PAN   c_v+14
 BYTE   W01
 BYTE   An4
 BYTE   W01
 BYTE   Cn5
 BYTE   W01
 BYTE   Ds5
 BYTE   W01
 BYTE   Fs5
 BYTE   W01
 BYTE   An5
 BYTE   N06  Fs2
 BYTE   N06  An2
 BYTE   W01
 BYTE   PAN   c_v+32
 BYTE   W01
 BYTE   Ds6
 BYTE   W01
 BYTE   Fs6
 BYTE   W01
 BYTE   An6
 BYTE   W01
 BYTE   Cn7
 BYTE   W01
 BYTE   Ds7
 BYTE   N06  Cs2
 BYTE   N06  Fs2
 BYTE   W01
 BYTE   PAN   c_v+50
 BYTE   W01
 BYTE   An7
 BYTE   W01
 BYTE   Cn8
 BYTE   W01
 BYTE   Ds8
 BYTE   W01
 BYTE   Fs8
 BYTE   W01
 BYTE   Gn8
 BYTE   N06  An1
 BYTE   N06  Cs2
 BYTE   W54
// 025   ----------------------------------------
 BYTE   VOL   25*songVenusLighthouse_mvl/mxv
 BYTE   PAN   c_v+61
 BYTE   N06  An3
 BYTE   N06  Dn4
 BYTE   W01
 BYTE   PAN   c_v+58
 BYTE   W01
 BYTE   Bn7
 BYTE   W01
 BYTE   Gs7
 BYTE   W01
 BYTE   Fn7
 BYTE   W01
 BYTE   Dn7
 BYTE   W01
 BYTE   Bn6
 BYTE   N06  Fs3
 BYTE   N06  An3
 BYTE   W01
 BYTE   PAN   c_v+40
 BYTE   W01
 BYTE   Fn6
 BYTE   W01
 BYTE   Dn6
 BYTE   W01
 BYTE   Bn5
 BYTE   W01
 BYTE   Gs5
 BYTE   W01
 BYTE   Fn5
 BYTE   N06  Dn3
 BYTE   N06  Fs3
 BYTE   W01
 BYTE   PAN   c_v+22
 BYTE   W01
 BYTE   Bn4
 BYTE   W01
 BYTE   Gs4
 BYTE   W01
 BYTE   Fn4
 BYTE   W01
 BYTE   Dn4
 BYTE   W01
 BYTE   Bn3
 BYTE   N06  An2
 BYTE   N06  Dn3
 BYTE   W01
 BYTE   PAN   c_v+4
 BYTE   W01
 BYTE   Fn3
 BYTE   W01
 BYTE   Dn3
 BYTE   W01
 BYTE   Bn2
 BYTE   W01
 BYTE   An2
 BYTE   W01
 BYTE   Fs2
 BYTE   N06  Fs2
 BYTE   N06  An2
 BYTE   W01
 BYTE   PAN   c_v-13
 BYTE   W01
 BYTE   Bn1
 BYTE   W01
 BYTE   Gs1
 BYTE   W01
 BYTE   Fs1
 BYTE   W01
 BYTE   Ds1
 BYTE   W01
 BYTE   Cn1
 BYTE   N06  Dn2
 BYTE   N06  Fs2
 BYTE   W01
 BYTE   PAN   c_v-31
 BYTE   W01
 BYTE   Fs0
 BYTE   W01
 BYTE   Ds0
 BYTE   W01
 BYTE   Cn0
 BYTE   W01
 BYTE   AnM1
 BYTE   W01
 BYTE   FsM1
 BYTE   N06  An1
 BYTE   N06  Dn2
 BYTE   W01
 BYTE   PAN   c_v-49
 BYTE   W01
 BYTE   CnM1
 BYTE   W01
 BYTE   AnM2
 BYTE   W01
 BYTE   FsM2
 BYTE   W01
 BYTE   DsM2
 BYTE   W01
 BYTE   CnM2
 BYTE   N06  Fs1
 BYTE   N06  An1
 BYTE   W06
 BYTE   Bn3
 BYTE   N06  En4
 BYTE   W01
 BYTE   PAN   c_v+45
 BYTE   W01
 BYTE   Bn6
 BYTE   W01
 BYTE   An6
 BYTE   W01
 BYTE   Fs6
 BYTE   W01
 BYTE   En6
 BYTE   W01
 BYTE   Cs6
 BYTE   N06  Gs3
 BYTE   N06  Bn3
 BYTE   W01
 BYTE   PAN   c_v+31
 BYTE   W01
 BYTE   An5
 BYTE   W01
 BYTE   Fs5
 BYTE   W01
 BYTE   En5
 BYTE   W01
 BYTE   Dn5
 BYTE   W01
 BYTE   Bn4
 BYTE   N06  En3
 BYTE   N06  Gs3
 BYTE   W01
 BYTE   PAN   c_v+17
 BYTE   W01
 BYTE   Gn4
 BYTE   W01
 BYTE   En4
 BYTE   W01
 BYTE   Dn4
 BYTE   W01
 BYTE   Bn3
 BYTE   W01
 BYTE   An3
 BYTE   N06  Bn2
 BYTE   N06  En3
 BYTE   W01
 BYTE   PAN   c_v+3
 BYTE   W01
 BYTE   En3
 BYTE   W01
 BYTE   Dn3
 BYTE   W01
 BYTE   Cn3
 BYTE   W01
 BYTE   An2
 BYTE   W01
 BYTE   Gn2
 BYTE   N06  Gs2
 BYTE   N06  Bn2
 BYTE   W01
 BYTE   PAN   c_v-11
 BYTE   W01
 BYTE   Dn2
 BYTE   W01
 BYTE   Cn2
 BYTE   W01
 BYTE   An1
 BYTE   W01
 BYTE   Gn1
 BYTE   W01
 BYTE   Fn1
 BYTE   N06  En2
 BYTE   N06  Gs2
 BYTE   W01
 BYTE   PAN   c_v-26
 BYTE   W01
 BYTE   Cn1
 BYTE   W01
 BYTE   As0
 BYTE   W01
 BYTE   Gn0
 BYTE   W01
 BYTE   Fn0
 BYTE   W01
 BYTE   Ds0
 BYTE   N06  Bn1
 BYTE   N06  En2
 BYTE   W01
 BYTE   PAN   c_v-40
 BYTE   W01
 BYTE   AsM1
 BYTE   W01
 BYTE   GnM1
 BYTE   W01
 BYTE   FnM1
 BYTE   W01
 BYTE   DsM1
 BYTE   W01
 BYTE   CnM1
 BYTE   N06  Gs1
 BYTE   N06  Bn1
 BYTE   W01
 BYTE   PAN   c_v-54
 BYTE   W01
 BYTE   GsM2
 BYTE   W01
 BYTE   FnM2
 BYTE   W01
 BYTE   DsM2
 BYTE   W01
 BYTE   CsM2
 BYTE   W01
// 026   ----------------------------------------
 BYTE   VOL   25*songVenusLighthouse_mvl/mxv
 BYTE   PAN   c_v+61
 BYTE   N06  Cs4
 BYTE   N06  Fs4
 BYTE   W01
 BYTE   PAN   c_v+58
 BYTE   W01
 BYTE   Bn7
 BYTE   W01
 BYTE   Gs7
 BYTE   W01
 BYTE   Fn7
 BYTE   W01
 BYTE   Dn7
 BYTE   W01
 BYTE   Bn6
 BYTE   N06  An3
 BYTE   N06  Cs4
 BYTE   W01
 BYTE   PAN   c_v+40
 BYTE   W01
 BYTE   Fn6
 BYTE   W01
 BYTE   Ds6
 BYTE   W01
 BYTE   Cn6
 BYTE   W01
 BYTE   An5
 BYTE   W01
 BYTE   Fs5
 BYTE   N06  Fs3
 BYTE   N06  An3
 BYTE   W01
 BYTE   PAN   c_v+23
 BYTE   W01
 BYTE   Cn5
 BYTE   W01
 BYTE   An4
 BYTE   W01
 BYTE   Fs4
 BYTE   W01
 BYTE   En4
 BYTE   W01
 BYTE   Cs4
 BYTE   N06  Cs3
 BYTE   N06  Fs3
 BYTE   W01
 BYTE   PAN   c_v+6
 BYTE   W01
 BYTE   Gn3
 BYTE   W01
 BYTE   En3
 BYTE   W01
 BYTE   Cs3
 BYTE   W01
 BYTE   As2
 BYTE   W01
 BYTE   Gn2
 BYTE   N06  An2
 BYTE   N06  Cs3
 BYTE   W01
 BYTE   PAN   c_v-12
 BYTE   W01
 BYTE   Dn2
 BYTE   W01
 BYTE   Bn1
 BYTE   W01
 BYTE   Gs1
 BYTE   W01
 BYTE   Fn1
 BYTE   W01
 BYTE   Dn1
 BYTE   N06  Fs2
 BYTE   N06  An2
 BYTE   W01
 BYTE   PAN   c_v-29
 BYTE   W01
 BYTE   Gs0
 BYTE   W01
 BYTE   Fn0
 BYTE   W01
 BYTE   Dn0
 BYTE   W01
 BYTE   Cn0
 BYTE   W01
 BYTE   AnM1
 BYTE   N06  Cs2
 BYTE   N06  Fn2
 BYTE   W01
 BYTE   PAN   c_v-46
 BYTE   W01
 BYTE   DsM1
 BYTE   W01
 BYTE   CnM1
 BYTE   W01
 BYTE   AnM2
 BYTE   W01
 BYTE   FsM2
 BYTE   W01
 BYTE   DsM2
 BYTE   N06
 BYTE   N06  Gs2
 BYTE   W01
 BYTE   PAN   c_v-64
 BYTE   W05
 BYTE   N06
 BYTE   N06  Cs3
 BYTE   W01
 BYTE   PAN   c_v-46
 BYTE   W01
 BYTE   GsM1
 BYTE   W01
 BYTE   AsM1
 BYTE   W01
 BYTE   Cs0
 BYTE   W01
 BYTE   Ds0
 BYTE   W01
 BYTE   Fs0
 BYTE   N06
 BYTE   N06  Fn3
 BYTE   W01
 BYTE   PAN   c_v-32
 BYTE   W01
 BYTE   As0
 BYTE   W01
 BYTE   Cs1
 BYTE   W01
 BYTE   Ds1
 BYTE   W01
 BYTE   Fn1
 BYTE   W01
 BYTE   Gs1
 BYTE   N06
 BYTE   N06  Gs3
 BYTE   W01
 BYTE   PAN   c_v-18
 BYTE   W01
 BYTE   Cs2
 BYTE   W01
 BYTE   Ds2
 BYTE   W01
 BYTE   Fn2
 BYTE   W01
 BYTE   Gs2
 BYTE   W01
 BYTE   As2
 BYTE   N06
 BYTE   N06  Cs4
 BYTE   W01
 BYTE   PAN   c_v-4
 BYTE   W01
 BYTE   Ds3
 BYTE   W01
 BYTE   Fn3
 BYTE   W01
 BYTE   Gn3
 BYTE   W01
 BYTE   As3
 BYTE   W01
 BYTE   Cn4
 BYTE   N06
 BYTE   N06  Fn4
 BYTE   W01
 BYTE   PAN   c_v+10
 BYTE   W01
 BYTE   Fn4
 BYTE   W01
 BYTE   Gn4
 BYTE   W01
 BYTE   As4
 BYTE   W01
 BYTE   Cn5
 BYTE   W01
 BYTE   Dn5
 BYTE   N06
 BYTE   N06  Gs4
 BYTE   W01
 BYTE   PAN   c_v+25
 BYTE   W01
 BYTE   Gn5
 BYTE   W01
 BYTE   An5
 BYTE   W01
 BYTE   Cn6
 BYTE   W01
 BYTE   Dn6
 BYTE   W01
 BYTE   En6
 BYTE   N06  Cs4
 BYTE   N06  Fn4
 BYTE   W01
 BYTE   PAN   c_v+39
 BYTE   W01
 BYTE   An6
 BYTE   W01
 BYTE   Cn7
 BYTE   W01
 BYTE   Dn7
 BYTE   W01
 BYTE   En7
 BYTE   W01
 BYTE   Gn7
 BYTE   N06  Gs3
 BYTE   N06  Cs4
 BYTE   W01
 BYTE   PAN   c_v+53
 BYTE   W01
 BYTE   Bn7
 BYTE   W01
 BYTE   Dn8
 BYTE   W01
 BYTE   En8
 BYTE   W01
 BYTE   Fs8
 BYTE   W01
 BYTE   PATT
  POIN2 Label_4_010356DD
 BYTE   PATT
  POIN2 Label_4_010356EC
 BYTE   PATT
  POIN2 Label_4_010356F7
 BYTE   PATT
  POIN2 Label_4_01035702
// 027   ----------------------------------------
 BYTE   N48  Cn5  v127
 BYTE   W48
 BYTE   As4
 BYTE   W48
// 028   ----------------------------------------
 BYTE   Gs4
 BYTE   W48
 BYTE   Gn4
 BYTE   W48
// 029   ----------------------------------------
 BYTE   N36  Fn4
 BYTE   W36
 BYTE   Gn4
 BYTE   W36
 BYTE   N24  Gs4
 BYTE   W24
// 030   ----------------------------------------
 BYTE   N36  Gn4
 BYTE   N36  As4
 BYTE   W36
 BYTE   Gs4
 BYTE   N36  Cn5
 BYTE   W36
 BYTE   N24  As4
 BYTE   N24  Dn5
 BYTE   W24
// 031   ----------------------------------------
 BYTE   N48  Cn5
 BYTE   N48  Ds5
 BYTE   W48
 BYTE   As4
 BYTE   N48  Dn5
 BYTE   W48
// 032   ----------------------------------------
 BYTE   Gs4
 BYTE   N48  Cn5
 BYTE   W48
 BYTE   Gn4
 BYTE   N48  As4
 BYTE   W48
// 033   ----------------------------------------
 BYTE   N36  Dn4
 BYTE   N36  Fn4
 BYTE   W36
 BYTE   Ds4
 BYTE   N36  Gn4
 BYTE   W36
 BYTE   N24  Fn4
 BYTE   N24  Gs4
 BYTE   W24
// 034   ----------------------------------------
 BYTE   N48  Fn4
 BYTE   N48  Gs4
 BYTE   N48  Cn5
 BYTE   W48
 BYTE   Gn4
 BYTE   N48  As4
 BYTE   W48
// 035   ----------------------------------------
 BYTE   W96
// 036   ----------------------------------------
 BYTE   W96
// 037   ----------------------------------------
 BYTE   W96
// 038   ----------------------------------------
 BYTE   W88
 BYTE   W01
 BYTE   GoTo
  POIN2 Label_4_010352D6
// 039   ----------------------------------------
 BYTE   W07
 BYTE   FINE

//**************** Track 6 (Midi-Chn.5) ****************//

songVenusLighthouse_006:
// 000   ----------------------------------------
 BYTE   KEYSH   songVenusLighthouse_key+0
Label_5_01035AC2:
 BYTE   VOICE   121
 BYTE   MODT 0
 BYTE   CnM2
 BYTE   LFOS 0
 BYTE   Gs1
 BYTE   PAN   c_v+0
 BYTE   VOL   15*songVenusLighthouse_mvl/mxv
 BYTE   N12  Bn0  v127
 BYTE   N12  Fs1
 BYTE   N12  An2
 BYTE   W12
 BYTE   Fs1
 BYTE   W12
 BYTE   Dn1
 BYTE   N12  Fs1
 BYTE   W12
 BYTE   N12
 BYTE   W12
 BYTE   Bn0
 BYTE   N12  Fs1
 BYTE   W12
 BYTE   Bn0
 BYTE   N12  Fs1
 BYTE   W12
 BYTE   Dn1
 BYTE   N12  Fs1
 BYTE   W12
 BYTE   N12
 BYTE   W12
// 001   ----------------------------------------
Label_5_01035AEA:
 BYTE   PAN   c_v+0
 BYTE   VOL   15*songVenusLighthouse_mvl/mxv
 BYTE   N12  Bn0  v127
 BYTE   N12  Fs1
 BYTE   W12
 BYTE   N12
 BYTE   W12
 BYTE   Dn1
 BYTE   N12  Fs1
 BYTE   W12
 BYTE   N12
 BYTE   W12
 BYTE   Bn0
 BYTE   N12  Fs1
 BYTE   W12
 BYTE   N06
 BYTE   W06
 BYTE   Bn0
 BYTE   W06
 BYTE   N12  Dn1
 BYTE   N12  Fs1
 BYTE   W12
 BYTE   As1
 BYTE   W12
 BYTE   PEND 
// 002   ----------------------------------------
Label_5_01035B0C:
 BYTE   PAN   c_v+0
 BYTE   VOL   15*songVenusLighthouse_mvl/mxv
 BYTE   N12  Bn0  v127
 BYTE   N12  Fs1
 BYTE   W12
 BYTE   N12
 BYTE   W12
 BYTE   Dn1
 BYTE   N12  Fs1
 BYTE   W12
 BYTE   N12
 BYTE   W12
 BYTE   Bn0
 BYTE   N12  Fs1
 BYTE   W12
 BYTE   Bn0
 BYTE   N12  Fs1
 BYTE   W12
 BYTE   Dn1
 BYTE   N12  Fs1
 BYTE   W12
 BYTE   N12
 BYTE   W12
 BYTE   PEND 
// 003   ----------------------------------------
Label_5_01035B2D:
 BYTE   PAN   c_v+0
 BYTE   VOL   15*songVenusLighthouse_mvl/mxv
 BYTE   N12  Bn0  v127
 BYTE   N12  Fs1
 BYTE   W12
 BYTE   N12
 BYTE   W12
 BYTE   Dn1
 BYTE   N12  Fs1
 BYTE   W12
 BYTE   N12
 BYTE   W12
 BYTE   N06  Bn0
 BYTE   N06  Fs1
 BYTE   W06
 BYTE   Bn0
 BYTE   W06
 BYTE   N12
 BYTE   N12  Fs1
 BYTE   W12
 BYTE   Dn1
 BYTE   N12  Fs1
 BYTE   W12
 BYTE   Dn1
 BYTE   N12  Fs1
 BYTE   W12
 BYTE   PEND 
 BYTE   PATT
  POIN2 Label_5_01035B0C
// 004   ----------------------------------------
 BYTE   PAN   c_v+0
 BYTE   VOL   15*songVenusLighthouse_mvl/mxv
 BYTE   N12  Bn0  v127
 BYTE   N12  Fs1
 BYTE   W12
 BYTE   N12
 BYTE   W12
 BYTE   Dn1
 BYTE   N12  Fs1
 BYTE   W12
 BYTE   N12
 BYTE   W12
 BYTE   Bn0
 BYTE   N12  Fs1
 BYTE   W12
 BYTE   N06
 BYTE   W06
 BYTE   Bn0
 BYTE   W06
 BYTE   Dn1
 BYTE   N06  Fs1
 BYTE   W06
 BYTE   Dn1
 BYTE   W06
 BYTE   N06
 BYTE   N06  As1
 BYTE   W06
 BYTE   Dn1
 BYTE   W06
 BYTE   PATT
  POIN2 Label_5_01035B0C
// 005   ----------------------------------------
 BYTE   PAN   c_v+0
 BYTE   VOL   15*songVenusLighthouse_mvl/mxv
 BYTE   N12  Bn0  v127
 BYTE   N12  Fs1
 BYTE   W12
 BYTE   N06
 BYTE   W06
 BYTE   Bn0
 BYTE   W06
 BYTE   N12  Dn1
 BYTE   N12  Fs1
 BYTE   W12
 BYTE   Bn0
 BYTE   N12  Fs1
 BYTE   W12
 BYTE   N06
 BYTE   N06  Dn2
 BYTE   W06
 BYTE   Fs1
 BYTE   N06  Dn2
 BYTE   W06
 BYTE   As1
 BYTE   N06  Bn1
 BYTE   W06
 BYTE   Fs1
 BYTE   N06  Gn1
 BYTE   W06
 BYTE   Fn1
 BYTE   N06  Fs1
 BYTE   W06
 BYTE   As1
 BYTE   N06  Dn2
 BYTE   W06
 BYTE   Fs1
 BYTE   N06  Bn1
 BYTE   W06
 BYTE   Fs1
 BYTE   N06  Gn1
 BYTE   W06
// 006   ----------------------------------------
Label_5_01035BBA:
 BYTE   PAN   c_v+0
 BYTE   VOL   15*songVenusLighthouse_mvl/mxv
 BYTE   N12  Bn0  v127
 BYTE   N12  Fs1
 BYTE   N12  An2
 BYTE   W12
 BYTE   Fs1
 BYTE   W12
 BYTE   Dn1
 BYTE   N12  Fs1
 BYTE   W12
 BYTE   N12
 BYTE   W12
 BYTE   Bn0
 BYTE   N12  Fs1
 BYTE   W12
 BYTE   Bn0
 BYTE   N12  Fs1
 BYTE   W12
 BYTE   Dn1
 BYTE   N12  Fs1
 BYTE   W12
 BYTE   N12
 BYTE   W12
 BYTE   PEND 
 BYTE   PATT
  POIN2 Label_5_01035AEA
 BYTE   PATT
  POIN2 Label_5_01035B0C
 BYTE   PATT
  POIN2 Label_5_01035B2D
 BYTE   PATT
  POIN2 Label_5_01035B0C
// 007   ----------------------------------------
Label_5_01035BF1:
 BYTE   PAN   c_v+0
 BYTE   VOL   15*songVenusLighthouse_mvl/mxv
 BYTE   N12  Bn0  v127
 BYTE   N12  Fs1
 BYTE   W12
 BYTE   N12
 BYTE   W12
 BYTE   Dn1
 BYTE   N12  Fs1
 BYTE   W12
 BYTE   N12
 BYTE   W12
 BYTE   Bn0
 BYTE   N12  Fs1
 BYTE   W12
 BYTE   N06
 BYTE   W06
 BYTE   Bn0
 BYTE   W06
 BYTE   Dn1
 BYTE   N06  Fs1
 BYTE   W06
 BYTE   Dn1
 BYTE   W06
 BYTE   N06
 BYTE   N06  Fs1
 BYTE   W06
 BYTE   Dn1
 BYTE   W06
 BYTE   PEND 
 BYTE   PATT
  POIN2 Label_5_01035B0C
// 008   ----------------------------------------
Label_5_01035C1D:
 BYTE   PAN   c_v+0
 BYTE   VOL   15*songVenusLighthouse_mvl/mxv
 BYTE   N12  Bn0  v127
 BYTE   W12
 BYTE   N06  Fs1
 BYTE   W06
 BYTE   Bn0
 BYTE   W06
 BYTE   N12  Dn1
 BYTE   N12  Fs1
 BYTE   N12  En2
 BYTE   W12
 BYTE   Bn0
 BYTE   N12  Fs1
 BYTE   W12
 BYTE   N06  Dn1
 BYTE   N06  Fs1
 BYTE   N06  Dn2
 BYTE   W06
 BYTE   Bn0
 BYTE   N06  Fs1
 BYTE   N06  Dn2
 BYTE   W06
 BYTE   As1
 BYTE   N06  Bn1
 BYTE   W06
 BYTE   Bn0
 BYTE   N06  Fs1
 BYTE   N06  Gn1
 BYTE   W06
 BYTE   Bn0
 BYTE   N06  Fn1
 BYTE   N06  Fs1
 BYTE   W06
 BYTE   As1
 BYTE   N06  Dn2
 BYTE   W06
 BYTE   Dn1
 BYTE   N06  Fs1
 BYTE   N06  Bn1
 BYTE   W06
 BYTE   Dn1
 BYTE   N06  Fs1
 BYTE   N06  Gn1
 BYTE   W06
 BYTE   PEND 
// 009   ----------------------------------------
 BYTE   PAN   c_v+0
 BYTE   VOL   15*songVenusLighthouse_mvl/mxv
 BYTE   N24  Bn0
 BYTE   N24  Gs1
 BYTE   N24  Cs2
 BYTE   W24
 BYTE   N12  Gs1
 BYTE   W12
 BYTE   Bn0
 BYTE   W12
 BYTE   N24  Dn1
 BYTE   N24  Gs1
 BYTE   W24
 BYTE   N12
 BYTE   W12
 BYTE   N06  Fs1
 BYTE   W06
 BYTE   N06
 BYTE   W06
// 010   ----------------------------------------
 BYTE   N12  Bn0
 BYTE   N12  Gs1
 BYTE   W12
 BYTE   Bn0
 BYTE   W12
 BYTE   Gs1
 BYTE   W12
 BYTE   Bn0
 BYTE   W12
 BYTE   Dn1
 BYTE   N12  Gs1
 BYTE   W12
 BYTE   Bn0
 BYTE   W12
 BYTE   Dn1
 BYTE   N12  Gs1
 BYTE   W12
 BYTE   Dn1
 BYTE   W12
// 011   ----------------------------------------
 BYTE   PAN   c_v+0
 BYTE   VOL   15*songVenusLighthouse_mvl/mxv
 BYTE   N24  Bn0
 BYTE   N24  Gs1
 BYTE   W24
 BYTE   N12
 BYTE   W12
 BYTE   Bn0
 BYTE   W12
 BYTE   N24  Dn1
 BYTE   N24  Gs1
 BYTE   W24
 BYTE   N12
 BYTE   W12
 BYTE   N06  Fs1
 BYTE   W06
 BYTE   N06
 BYTE   W06
// 012   ----------------------------------------
 BYTE   N12  Bn0
 BYTE   N12  Gs1
 BYTE   W12
 BYTE   Bn0
 BYTE   W12
 BYTE   Gs1
 BYTE   W12
 BYTE   Bn0
 BYTE   W12
 BYTE   Dn1
 BYTE   N12  Gs1
 BYTE   W12
 BYTE   Bn0
 BYTE   W12
 BYTE   Dn1
 BYTE   N12  Gs1
 BYTE   W12
 BYTE   N06  Dn1
 BYTE   W06
 BYTE   N06
 BYTE   W06
// 013   ----------------------------------------
Label_5_01035CC9:
 BYTE   N12  Bn0  v127
 BYTE   N12  Gs1
 BYTE   N12  An2
 BYTE   W12
 BYTE   Gs1
 BYTE   W12
 BYTE   Dn1
 BYTE   N12  Gs1
 BYTE   W12
 BYTE   N12
 BYTE   W12
 BYTE   Bn0
 BYTE   N12  Gs1
 BYTE   W12
 BYTE   Bn0
 BYTE   N12  Gs1
 BYTE   W12
 BYTE   Dn1
 BYTE   N12  Gs1
 BYTE   W12
 BYTE   N12
 BYTE   W12
 BYTE   PEND 
// 014   ----------------------------------------
 BYTE   Bn0
 BYTE   N12  Gs1
 BYTE   W12
 BYTE   N12
 BYTE   W12
 BYTE   Dn1
 BYTE   N12  Gs1
 BYTE   W12
 BYTE   N06
 BYTE   W06
 BYTE   Bn0
 BYTE   W06
 BYTE   N12
 BYTE   N12  Gs1
 BYTE   W12
 BYTE   N06
 BYTE   W06
 BYTE   Bn0
 BYTE   W06
 BYTE   N12  Dn1
 BYTE   N12  Gs1
 BYTE   W12
 BYTE   Bn0
 BYTE   N12  Gs1
 BYTE   W12
 BYTE   PATT
  POIN2 Label_5_01035CC9
// 015   ----------------------------------------
 BYTE   N12  Bn0  v127
 BYTE   N12  Gs1
 BYTE   W12
 BYTE   N12
 BYTE   W12
 BYTE   Dn1
 BYTE   N12  Gs1
 BYTE   W12
 BYTE   N06
 BYTE   W06
 BYTE   Bn0
 BYTE   W06
 BYTE   N12
 BYTE   N12  Gs1
 BYTE   W12
 BYTE   N06
 BYTE   W06
 BYTE   Bn0
 BYTE   W06
 BYTE   N06
 BYTE   N06  Dn1
 BYTE   N06  Gs1
 BYTE   W06
 BYTE   Bn0
 BYTE   N06  Dn1
 BYTE   W06
 BYTE   Bn0
 BYTE   N06  Dn1
 BYTE   N06  Gs1
 BYTE   W06
 BYTE   Bn0
 BYTE   N06  Dn1
 BYTE   W06
 BYTE   PATT
  POIN2 Label_5_01035BBA
 BYTE   PATT
  POIN2 Label_5_01035AEA
 BYTE   PATT
  POIN2 Label_5_01035B0C
 BYTE   PATT
  POIN2 Label_5_01035B2D
 BYTE   PATT
  POIN2 Label_5_01035B0C
 BYTE   PATT
  POIN2 Label_5_01035BF1
 BYTE   PATT
  POIN2 Label_5_01035B0C
 BYTE   PATT
  POIN2 Label_5_01035C1D
// 016   ----------------------------------------
 BYTE   N12  Gs1  v127
 BYTE   N12  An2
 BYTE   W12
 BYTE   Gs1
 BYTE   W12
 BYTE   Bn0
 BYTE   N12  Gs1
 BYTE   W12
 BYTE   Dn1
 BYTE   N12  Gs1
 BYTE   W12
 BYTE   N12
 BYTE   W12
 BYTE   Bn0
 BYTE   N12  Gs1
 BYTE   W12
 BYTE   Dn1
 BYTE   N12  Gs1
 BYTE   W12
 BYTE   N12
 BYTE   W12
// 017   ----------------------------------------
 BYTE   Bn0
 BYTE   N12  Gs1
 BYTE   W12
 BYTE   Bn0
 BYTE   N12  Gs1
 BYTE   W12
 BYTE   Dn1
 BYTE   N12  Gs1
 BYTE   W12
 BYTE   As1
 BYTE   W12
 BYTE   Bn0
 BYTE   N12  Gs1
 BYTE   W12
 BYTE   Bn0
 BYTE   N12  Gs1
 BYTE   W12
 BYTE   Dn1
 BYTE   N12  Gs1
 BYTE   W12
 BYTE   As1
 BYTE   W12
// 018   ----------------------------------------
Label_5_01035D98:
 BYTE   N12  Gs1  v127
 BYTE   W12
 BYTE   N12
 BYTE   W12
 BYTE   Bn0
 BYTE   N12  Gs1
 BYTE   W12
 BYTE   Dn1
 BYTE   N12  Gs1
 BYTE   W12
 BYTE   N12
 BYTE   W12
 BYTE   Bn0
 BYTE   N12  Gs1
 BYTE   W12
 BYTE   Dn1
 BYTE   N12  Gs1
 BYTE   W12
 BYTE   N12
 BYTE   W12
 BYTE   PEND 
// 019   ----------------------------------------
 BYTE   Bn0
 BYTE   N12  Gs1
 BYTE   W12
 BYTE   Bn0
 BYTE   N12  Gs1
 BYTE   W12
 BYTE   Dn1
 BYTE   N12  Gs1
 BYTE   W12
 BYTE   As1
 BYTE   W12
 BYTE   Bn0
 BYTE   N12  Gs1
 BYTE   W12
 BYTE   Bn0
 BYTE   N12  Gs1
 BYTE   W12
 BYTE   N06  Cn2
 BYTE   N06  Dn2
 BYTE   W06
 BYTE   Bn1
 BYTE   N06  Cn2
 BYTE   W06
 BYTE   An1
 BYTE   N06  Bn1
 BYTE   W06
 BYTE   Gn1
 BYTE   N06  An1
 BYTE   W06
// 020   ----------------------------------------
 BYTE   N12  Gs1
 BYTE   N12  Cs2
 BYTE   W12
 BYTE   Gs1
 BYTE   W12
 BYTE   Bn0
 BYTE   N12  Gs1
 BYTE   W12
 BYTE   Dn1
 BYTE   N12  Gs1
 BYTE   W12
 BYTE   N12
 BYTE   W12
 BYTE   Bn0
 BYTE   N12  Gs1
 BYTE   W12
 BYTE   Dn1
 BYTE   N12  Gs1
 BYTE   W12
 BYTE   N12
 BYTE   W12
// 021   ----------------------------------------
 BYTE   Bn0
 BYTE   N12  Gs1
 BYTE   W12
 BYTE   Bn0
 BYTE   N12  Gs1
 BYTE   W12
 BYTE   Dn1
 BYTE   N12  Gs1
 BYTE   W12
 BYTE   As1
 BYTE   W12
 BYTE   Bn0
 BYTE   N12  Gs1
 BYTE   W12
 BYTE   Bn0
 BYTE   N12  Gs1
 BYTE   W12
 BYTE   Dn1
 BYTE   N12  Gs1
 BYTE   W12
 BYTE   N06  Dn1
 BYTE   N06  As1
 BYTE   W06
 BYTE   Dn1
 BYTE   W06
 BYTE   PATT
  POIN2 Label_5_01035D98
// 022   ----------------------------------------
 BYTE   N06  Dn2  v127
 BYTE   W06
 BYTE   N06
 BYTE   W06
 BYTE   N06
 BYTE   W06
 BYTE   N06
 BYTE   W06
 BYTE   Bn1
 BYTE   W06
 BYTE   N06
 BYTE   W06
 BYTE   N06
 BYTE   W06
 BYTE   N06
 BYTE   W06
 BYTE   Gn1
 BYTE   W06
 BYTE   N06
 BYTE   W06
 BYTE   N06
 BYTE   W06
 BYTE   N06
 BYTE   W06
 BYTE   Bn0
 BYTE   N06  Dn1
 BYTE   W06
 BYTE   Bn0
 BYTE   N06  Dn1
 BYTE   W06
 BYTE   Bn0
 BYTE   N06  Dn1
 BYTE   W06
 BYTE   Bn0
 BYTE   N06  Dn1
 BYTE   W06
// 023   ----------------------------------------
 BYTE   N48  Bn0
 BYTE   N48  An2
 BYTE   W48
 BYTE   N18  Bn0
 BYTE   N18  Gn2
 BYTE   W18
 BYTE   Bn0
 BYTE   N18  Cs2
 BYTE   W18
 BYTE   N12  Bn0
 BYTE   N12  Dn1
 BYTE   N12  An2
 BYTE   W12
// 024   ----------------------------------------
 BYTE   N48  En0
 BYTE   N48  Cs2
 BYTE   W48
 BYTE   N24  Cn1
 BYTE   N24  En2
 BYTE   W24
 BYTE   Dn1
 BYTE   W24
// 025   ----------------------------------------
 BYTE   N48  Bn0
 BYTE   N48  An2
 BYTE   W48
 BYTE   N18  Bn0
 BYTE   N18  En2
 BYTE   W18
 BYTE   Bn0
 BYTE   N18  Gn2
 BYTE   W18
 BYTE   N12  Bn0
 BYTE   N12  Dn1
 BYTE   N12  Cs2
 BYTE   W12
// 026   ----------------------------------------
 BYTE   N06  Dn2
 BYTE   W06
 BYTE   N06
 BYTE   W06
 BYTE   N06
 BYTE   W06
 BYTE   N06
 BYTE   W06
 BYTE   An1
 BYTE   W06
 BYTE   N06
 BYTE   W06
 BYTE   N06
 BYTE   W06
 BYTE   N06
 BYTE   W06
 BYTE   Fn1
 BYTE   W06
 BYTE   N06
 BYTE   W06
 BYTE   N06
 BYTE   W06
 BYTE   N06
 BYTE   W06
 BYTE   N12  Dn1
 BYTE   W12
 BYTE   N12
 BYTE   W05
 BYTE   GoTo
  POIN2 Label_5_01035AC2
// 027   ----------------------------------------
 BYTE   W07
 BYTE   FINE

//******************************************************//
	ALIGN 4

songVenusLighthouse:
	BYTE	6	// NumTrks
	BYTE	0	// NumBlks
	BYTE	songVenusLighthouse_pri	// Priority
	BYTE	songVenusLighthouse_rev	// Reverb.
    
	POIN2	songVenusLighthouse_grp
    
	POIN2	songVenusLighthouse_001
	POIN2	songVenusLighthouse_002
	POIN2	songVenusLighthouse_003
	POIN2	songVenusLighthouse_004
	POIN2	songVenusLighthouse_005
	POIN2	songVenusLighthouse_006

	
