//Event file generated from Sappy .s format.
	#include "MPlayDef.event"

	#define	songVictorysDelightgrp  voicegroup000
	#define	songVictorysDelightpri  10
	#define	songVictorysDelightrev  0
	#define	songVictorysDelightmvl  127
	#define	songVictorysDelightkey  0
	#define	songVictorysDelighttbs  1
	#define	songVictorysDelightexg  0
	#define	songVictorysDelightcmp  1

	// .rodata
	//	m
	ALIGN 4


//**************** Track 1 (Midi-Chn.0) ****************//

songVictorysDelight001:
// 000   ----------------------------------------
LabelVictorysDelight_0_00:
 BYTE   TEMPO   138*songVictorysDelighttbs/2
 BYTE   KEYSH   songVictorysDelightkey+0
 BYTE   VOICE   24
 BYTE   VOL   23*songVictorysDelightmvl/mxv
 BYTE   PAN   c_v+0
 BYTE   N24  En4  v099
 BYTE   N24  Cn4  v085
 BYTE   N24  Gn3
 BYTE   N48  Cn2  v093
 BYTE   W01
 BYTE   N01
 BYTE   W23
 BYTE   N07  En3  v081
 BYTE   N08  Gn3  v095
 BYTE   W08
 BYTE   N07  Gn3  v080
 BYTE   N07  Cn4  v094
 BYTE   W07
 BYTE   Cn4  v080
 BYTE   N08  En4  v094
 BYTE   W08
 BYTE   N24  Dn4  v097
 BYTE   N24  Bn3  v083
 BYTE   N24  Gn3
 BYTE   N48  Bn1  v091
 BYTE   W24
 BYTE   N03  Dn4  v069
 BYTE   N03  Bn3
 BYTE   N03  Gn4  v083
 BYTE   W15
 BYTE   N08  Bn3  v068
 BYTE   N08  Dn4
 BYTE   N08  Gn4  v082
 BYTE   W08
// 001   ----------------------------------------
 BYTE   N48  As1  v093
 BYTE   N72  Fn4  v094
 BYTE   N72  As3  v080
 BYTE   N72  Dn4
 BYTE   W01
 BYTE   N01  As1  v093
 BYTE   Fn4  v094
 BYTE   N01  As3  v080
 BYTE   N01  Dn4
 BYTE   W44
 BYTE   W03
 BYTE   N24  Fn2  v097
 BYTE   N24  Cn2  v083
 BYTE   N24  Fn1
 BYTE   W24
 BYTE   Gn2  v095
 BYTE   N24  Dn2  v081
 BYTE   N24  Gn1
 BYTE   W24
// 002   ----------------------------------------
 BYTE   TEMPO   138*songVictorysDelighttbs/2
 BYTE   N12  An1  v093
 BYTE   N12  An3
 BYTE   W12
 BYTE   N05  Cn4  v088
 BYTE   N11  Cn3  v080
 BYTE   N12  En3  v094
 BYTE   W05
 BYTE   N05  En4  v088
 BYTE   W06
 BYTE   N04  An4  v089
 BYTE   N11  En2
 BYTE   W12
 BYTE   N04  Gn4  v088
 BYTE   N11  Cn3  v080
 BYTE   N12  En3  v094
 BYTE   W11
 BYTE   N04  Fs4  v091
 BYTE   N11  Dn2
 BYTE   W03
 BYTE   N04  Gn4  v088
 BYTE   W03
 BYTE   Fs4
 BYTE   W04
 BYTE   En4
 BYTE   N11  An2  v080
 BYTE   N12  Dn3  v094
 BYTE   W12
 BYTE   N11  An1  v089
 BYTE   N11  Dn4
 BYTE   W12
 BYTE   N05  An3  v088
 BYTE   N11  An2  v080
 BYTE   N12  Dn3  v094
 BYTE   W05
 BYTE   N05  Bn3  v088
 BYTE   W06
// 003   ----------------------------------------
 BYTE   Cn4  v093
 BYTE   N12  Fn1
 BYTE   W12
 BYTE   N04  Cn4  v088
 BYTE   N11  An2  v080
 BYTE   N12  Cn3  v094
 BYTE   W12
 BYTE   N11  Cn2  v089
 BYTE   N11  Dn4
 BYTE   W11
 BYTE   N04  Cn4  v088
 BYTE   N11  An2  v080
 BYTE   N12  Cn3  v094
 BYTE   W03
 BYTE   N04  Dn4  v088
 BYTE   W03
 BYTE   Cn4
 BYTE   W04
 BYTE   N11  Gn1  v091
 BYTE   N11  Bn3
 BYTE   W11
 BYTE   N04  An3  v088
 BYTE   N11  Bn1
 BYTE   W03
 BYTE   N04  Bn3
 BYTE   W03
 BYTE   An3
 BYTE   W04
 BYTE   Gn3  v089
 BYTE   N11  Dn2
 BYTE   W12
 BYTE   N04  Bn3  v088
 BYTE   N11  Gn1
 BYTE   W12
// 004   ----------------------------------------
 BYTE   N12  An1  v093
 BYTE   N12  An3
 BYTE   W12
 BYTE   N05  Cn4  v088
 BYTE   N11  Cn3  v080
 BYTE   N12  En3  v094
 BYTE   W05
 BYTE   N05  En4  v088
 BYTE   W06
 BYTE   N04  An4  v089
 BYTE   N11  En2
 BYTE   W12
 BYTE   N04  Gn4  v088
 BYTE   N11  Cn3  v080
 BYTE   N12  En3  v094
 BYTE   W11
 BYTE   N04  Fs4  v091
 BYTE   N11  Dn2
 BYTE   W03
 BYTE   N04  Gn4  v088
 BYTE   W03
 BYTE   Fs4
 BYTE   W04
 BYTE   En4
 BYTE   N11  An2  v080
 BYTE   N12  Dn3  v094
 BYTE   W12
 BYTE   N11  An1  v089
 BYTE   N11  Dn4
 BYTE   W12
 BYTE   N05  An3  v088
 BYTE   N11  An2  v080
 BYTE   N12  Dn3  v094
 BYTE   W05
 BYTE   N05  Bn3  v088
 BYTE   W06
// 005   ----------------------------------------
 BYTE   Cn4  v093
 BYTE   N12  Fn1
 BYTE   W12
 BYTE   N04  Cn4  v088
 BYTE   N11  An2  v080
 BYTE   N12  Cn3  v094
 BYTE   W12
 BYTE   N11  Cn2  v089
 BYTE   N11  Dn4
 BYTE   W11
 BYTE   N04  Cn4  v088
 BYTE   N11  An2  v080
 BYTE   N12  Cn3  v094
 BYTE   W03
 BYTE   N04  Dn4  v088
 BYTE   W03
 BYTE   Cn4
 BYTE   W04
 BYTE   N11  Gn1  v091
 BYTE   N11  Bn3
 BYTE   W12
 BYTE   Bn1  v088
 BYTE   W11
 BYTE   N04  Gn4  v089
 BYTE   N11  Dn2
 BYTE   W03
 BYTE   N04  An4  v088
 BYTE   W04
 BYTE   Gn4
 BYTE   W04
 BYTE   An4
 BYTE   N11  Gn1
 BYTE   W03
 BYTE   N04  Gn4
 BYTE   W04
 BYTE   An4
 BYTE   W04
// 006   ----------------------------------------
 BYTE   N12  An3  v099
 BYTE   N12  An1  v093
 BYTE   N12  En3  v085
 BYTE   W12
 BYTE   N05  Cn4  v088
 BYTE   N11  Cn3  v080
 BYTE   N11  An3  v088
 BYTE   N12  En3  v094
 BYTE   W05
 BYTE   N05  En4  v088
 BYTE   W06
 BYTE   N04  An4  v095
 BYTE   N04  Cn4  v081
 BYTE   N11  En2  v089
 BYTE   W12
 BYTE   N04  Bn3  v080
 BYTE   N04  Gn4  v094
 BYTE   N11  Cn3  v080
 BYTE   N12  En3  v094
 BYTE   W11
 BYTE   N04  Fs4  v083
 BYTE   N12  An3  v080
 BYTE   N11  Dn2  v091
 BYTE   W03
 BYTE   N04  Gn4  v094
 BYTE   W03
 BYTE   Fs4  v080
 BYTE   W04
 BYTE   En4
 BYTE   N04  Gn3  v094
 BYTE   N11  An2  v080
 BYTE   N12  Dn3  v094
 BYTE   W12
 BYTE   N11  An1  v089
 BYTE   N11  Fs3  v095
 BYTE   N12  Dn4  v081
 BYTE   W12
 BYTE   N05  An3  v080
 BYTE   N05  En3  v094
 BYTE   N11  An2  v080
 BYTE   N12  Dn3  v094
 BYTE   W05
 BYTE   N05  Gn3
 BYTE   N06  Bn3  v091
 BYTE   W06
// 007   ----------------------------------------
LabelVictorysDelight_0_7004:
 BYTE   N05  Cn4  v085
 BYTE   N05  An3  v091
 BYTE   N12  Fn1  v093
 BYTE   W12
 BYTE   N04  Cn4  v080
 BYTE   N04  An3  v094
 BYTE   N11  An2  v080
 BYTE   N12  Cn3  v094
 BYTE   W12
 BYTE   N11  Cn2  v089
 BYTE   N11  Dn4  v081
 BYTE   N11  Bn3  v095
 BYTE   W11
 BYTE   N04  Cn4  v094
 BYTE   N12  An3
 BYTE   N11  An2  v080
 BYTE   N12  Cn3  v094
 BYTE   W03
 BYTE   N04  Dn4  v080
 BYTE   W03
 BYTE   Cn4  v094
 BYTE   W04
 BYTE   N11  Gn1  v091
 BYTE   N11  Bn3  v097
 BYTE   N11  Gn3  v083
 BYTE   W11
 BYTE   N04  An3  v080
 BYTE   N12  En3
 BYTE   N11  Bn1  v088
 BYTE   W03
 BYTE   N04  Bn3  v094
 BYTE   W03
 BYTE   An3  v080
 BYTE   W04
 BYTE   Gn3  v081
 BYTE   N04  Dn3  v095
 BYTE   N11  Dn2  v089
 BYTE   W12
 BYTE   N04  Bn3  v080
 BYTE   N04  Gn3  v094
 BYTE   N11  Gn1  v088
 BYTE   W12
 BYTE   PEND 
// 008   ----------------------------------------
LabelVictorysDelight_0_8004:
 BYTE   N12  An3  v085
 BYTE   N12  An1  v093
 BYTE   N12  En3  v099
 BYTE   W12
 BYTE   N05  Cn4  v094
 BYTE   N11  Cn3  v080
 BYTE   N11  An3  v088
 BYTE   N12  En3  v094
 BYTE   W05
 BYTE   N05  En4  v088
 BYTE   W06
 BYTE   N04  An4  v095
 BYTE   N04  Cn4  v081
 BYTE   N11  En2  v089
 BYTE   W12
 BYTE   N04  Bn3  v080
 BYTE   N04  Gn4  v094
 BYTE   N11  Cn3  v080
 BYTE   N12  En3  v094
 BYTE   W11
 BYTE   N04  Fs4  v083
 BYTE   N12  An3  v080
 BYTE   N11  Dn2  v091
 BYTE   W03
 BYTE   N04  Gn4  v094
 BYTE   W03
 BYTE   Fs4  v080
 BYTE   W04
 BYTE   En4
 BYTE   N04  Gn3  v094
 BYTE   N11  An2  v080
 BYTE   N12  Dn3  v094
 BYTE   W12
 BYTE   N11  An1  v089
 BYTE   N11  Fs3  v095
 BYTE   N12  Dn4  v081
 BYTE   W12
 BYTE   N05  An3  v080
 BYTE   N05  En3  v094
 BYTE   N11  An2  v080
 BYTE   N12  Dn3  v094
 BYTE   W05
 BYTE   N05  Gn3
 BYTE   N06  Bn3  v091
 BYTE   W06
 BYTE   PEND 
// 009   ----------------------------------------
LabelVictorysDelight_0_9004:
 BYTE   N05  Cn4  v085
 BYTE   N05  An3  v091
 BYTE   N12  Fn1  v093
 BYTE   W12
 BYTE   N04  Cn4  v080
 BYTE   N04  An3  v094
 BYTE   N11  An2  v080
 BYTE   N12  Cn3  v094
 BYTE   W12
 BYTE   N11  Fs1  v089
 BYTE   N11  Dn4  v081
 BYTE   N11  Bn3  v095
 BYTE   W11
 BYTE   N04  Cn4  v094
 BYTE   N12  An3
 BYTE   N11  An2  v080
 BYTE   N12  Cn3  v094
 BYTE   W03
 BYTE   N04  Dn4  v080
 BYTE   W03
 BYTE   Cn4  v094
 BYTE   W04
 BYTE   Bn3  v097
 BYTE   N04  Gn3  v083
 BYTE   N11  Gn1  v091
 BYTE   W12
 BYTE   N04  Bn3  v094
 BYTE   N04  Gn3  v080
 BYTE   N11  Bn2
 BYTE   N12  Dn3  v094
 BYTE   W12
 BYTE   N11  Gs1  v089
 BYTE   N11  En4  v095
 BYTE   N11  Cn4  v081
 BYTE   W11
 BYTE   N04  Dn4  v080
 BYTE   N12  Bn3
 BYTE   N11  Bn2
 BYTE   N12  En3  v094
 BYTE   W03
 BYTE   N04  En4
 BYTE   W03
 BYTE   Dn4  v080
 BYTE   W04
 BYTE   PEND 
// 010   ----------------------------------------
 BYTE   N05  Cn4  v085
 BYTE   N05  An3  v099
 BYTE   N12  An1  v093
 BYTE   W12
 BYTE   N04  En4  v080
 BYTE   N04  Cn4  v094
 BYTE   N11  Cn3  v080
 BYTE   N12  En3  v094
 BYTE   W12
 BYTE   N11  Bn1  v089
 BYTE   N11  Gn4  v081
 BYTE   N11  En4  v095
 BYTE   W11
 BYTE   N04  Fn4  v094
 BYTE   N12  Dn4
 BYTE   N11  Dn3  v080
 BYTE   N12  Fn3  v094
 BYTE   W03
 BYTE   N04  Gn4  v080
 BYTE   W03
 BYTE   Fn4  v094
 BYTE   W04
 BYTE   Cn2  v083
 BYTE   N04  Gn2  v097
 BYTE   N04  Cn4  v083
 BYTE   N04  En4  v097
 BYTE   W12
 BYTE   Gn1  v080
 BYTE   N04  Gn2  v094
 BYTE   N04  En3  v080
 BYTE   N04  Gn3  v094
 BYTE   W12
 BYTE   N03  Gn2  v081
 BYTE   N03  Cn3  v095
 BYTE   N03  Gn4  v081
 BYTE   N03  Cn5  v095
 BYTE   N04  Cn2  v081
 BYTE   N04  En4  v100
 BYTE   W24
// 011   ----------------------------------------
 BYTE   TEMPO   138*songVictorysDelighttbs/2
 BYTE   N12  An1  v093
 BYTE   N12  An3
 BYTE   W12
 BYTE   N05  Cn4  v088
 BYTE   N11  Cn3  v080
 BYTE   N12  En3  v094
 BYTE   W05
 BYTE   N05  En4  v088
 BYTE   W06
 BYTE   N04  An4  v089
 BYTE   N11  En2
 BYTE   W12
 BYTE   N04  Gn4  v088
 BYTE   N11  Cn3  v080
 BYTE   N12  En3  v094
 BYTE   W11
 BYTE   N04  Fs4  v091
 BYTE   N11  Dn2
 BYTE   W03
 BYTE   N04  Gn4  v088
 BYTE   W03
 BYTE   Fs4
 BYTE   W04
 BYTE   En4
 BYTE   N11  An2  v080
 BYTE   N12  Dn3  v094
 BYTE   W12
 BYTE   N11  An1  v089
 BYTE   N11  Dn4
 BYTE   W12
 BYTE   N05  An3  v088
 BYTE   N11  An2  v080
 BYTE   N12  Dn3  v094
 BYTE   W05
 BYTE   N05  Bn3  v088
 BYTE   W06
// 012   ----------------------------------------
 BYTE   Cn4  v093
 BYTE   N12  Fn1
 BYTE   W12
 BYTE   N04  Cn4  v088
 BYTE   N11  An2  v080
 BYTE   N12  Cn3  v094
 BYTE   W12
 BYTE   N11  Cn2  v089
 BYTE   N11  Dn4
 BYTE   W11
 BYTE   N04  Cn4  v088
 BYTE   N11  An2  v080
 BYTE   N12  Cn3  v094
 BYTE   W03
 BYTE   N04  Dn4  v088
 BYTE   W03
 BYTE   Cn4
 BYTE   W04
 BYTE   N11  Gn1  v091
 BYTE   N11  Bn3
 BYTE   W11
 BYTE   N04  An3  v088
 BYTE   N11  Bn1
 BYTE   W03
 BYTE   N04  Bn3
 BYTE   W03
 BYTE   An3
 BYTE   W04
 BYTE   Gn3  v089
 BYTE   N11  Dn2
 BYTE   W12
 BYTE   N04  Bn3  v088
 BYTE   N11  Gn1
 BYTE   W12
// 013   ----------------------------------------
 BYTE   N12  An1  v093
 BYTE   N12  An3
 BYTE   W12
 BYTE   N05  Cn4  v088
 BYTE   N11  Cn3  v080
 BYTE   N12  En3  v094
 BYTE   W05
 BYTE   N05  En4  v088
 BYTE   W06
 BYTE   N04  An4  v089
 BYTE   N11  En2
 BYTE   W12
 BYTE   N04  Gn4  v088
 BYTE   N11  Cn3  v080
 BYTE   N12  En3  v094
 BYTE   W11
 BYTE   N04  Fs4  v091
 BYTE   N11  Dn2
 BYTE   W03
 BYTE   N04  Gn4  v088
 BYTE   W03
 BYTE   Fs4
 BYTE   W04
 BYTE   En4
 BYTE   N11  An2  v080
 BYTE   N12  Dn3  v094
 BYTE   W12
 BYTE   N11  An1  v089
 BYTE   N11  Dn4
 BYTE   W12
 BYTE   N05  An3  v088
 BYTE   N11  An2  v080
 BYTE   N12  Dn3  v094
 BYTE   W05
 BYTE   N05  Bn3  v088
 BYTE   W06
// 014   ----------------------------------------
 BYTE   Cn4  v093
 BYTE   N12  Fn1
 BYTE   W12
 BYTE   N04  Cn4  v088
 BYTE   N11  An2  v080
 BYTE   N12  Cn3  v094
 BYTE   W12
 BYTE   N11  Cn2  v089
 BYTE   N11  Dn4
 BYTE   W11
 BYTE   N04  Cn4  v088
 BYTE   N11  An2  v080
 BYTE   N12  Cn3  v094
 BYTE   W03
 BYTE   N04  Dn4  v088
 BYTE   W03
 BYTE   Cn4
 BYTE   W04
 BYTE   N11  Gn1  v091
 BYTE   N11  Bn3
 BYTE   W12
 BYTE   Bn1  v088
 BYTE   W11
 BYTE   N04  Gn4  v089
 BYTE   N11  Dn2
 BYTE   W03
 BYTE   N04  An4  v088
 BYTE   W04
 BYTE   Gn4
 BYTE   W04
 BYTE   An4
 BYTE   N11  Gn1
 BYTE   W03
 BYTE   N04  Gn4
 BYTE   W04
 BYTE   An4
 BYTE   W04
// 015   ----------------------------------------
 BYTE   N12  An3  v099
 BYTE   N12  An1  v093
 BYTE   N12  En3  v085
 BYTE   W12
 BYTE   N05  Cn4  v088
 BYTE   N11  Cn3  v080
 BYTE   N11  An3  v088
 BYTE   N12  En3  v094
 BYTE   W05
 BYTE   N05  En4  v088
 BYTE   W06
 BYTE   N04  An4  v095
 BYTE   N04  Cn4  v081
 BYTE   N11  En2  v089
 BYTE   W12
 BYTE   N04  Bn3  v080
 BYTE   N04  Gn4  v094
 BYTE   N11  Cn3  v080
 BYTE   N12  En3  v094
 BYTE   W11
 BYTE   N04  Fs4  v083
 BYTE   N12  An3  v080
 BYTE   N11  Dn2  v091
 BYTE   W03
 BYTE   N04  Gn4  v094
 BYTE   W03
 BYTE   Fs4  v080
 BYTE   W04
 BYTE   En4
 BYTE   N04  Gn3  v094
 BYTE   N11  An2  v080
 BYTE   N12  Dn3  v094
 BYTE   W12
 BYTE   N11  An1  v089
 BYTE   N11  Fs3  v095
 BYTE   N12  Dn4  v081
 BYTE   W12
 BYTE   N05  An3  v080
 BYTE   N05  En3  v094
 BYTE   N11  An2  v080
 BYTE   N12  Dn3  v094
 BYTE   W05
 BYTE   N05  Gn3
 BYTE   N06  Bn3  v091
 BYTE   W06
 BYTE   PATT
  POIN2 LabelVictorysDelight_0_7004
 BYTE   PATT
  POIN2 LabelVictorysDelight_0_8004
 BYTE   PATT
  POIN2 LabelVictorysDelight_0_9004
// 016   ----------------------------------------
 BYTE   N05  Cn4  v085
 BYTE   N05  An3  v099
 BYTE   N12  An1  v093
 BYTE   W12
 BYTE   N04  En4  v080
 BYTE   N04  Cn4  v094
 BYTE   N11  Cn3  v080
 BYTE   N12  En3  v094
 BYTE   W12
 BYTE   N11  Bn1  v089
 BYTE   N11  Gn4  v081
 BYTE   N11  En4  v095
 BYTE   W11
 BYTE   N04  Fn4  v094
 BYTE   N12  Dn4
 BYTE   N11  Dn3  v080
 BYTE   N12  Fn3  v094
 BYTE   W03
 BYTE   N04  Gn4  v080
 BYTE   W03
 BYTE   Fn4  v094
 BYTE   W04
 BYTE   Cn2  v083
 BYTE   N04  Gn2  v097
 BYTE   N04  Cn4  v083
 BYTE   N04  En4  v097
 BYTE   W12
 BYTE   Gn1  v080
 BYTE   N04  Gn2  v094
 BYTE   N04  En3  v080
 BYTE   N04  Gn3  v094
 BYTE   W12
 BYTE   N03  Gn2  v081
 BYTE   N03  Cn3  v095
 BYTE   N03  Gn4  v081
 BYTE   N03  Cn5  v095
 BYTE   N04  Cn2  v081
 BYTE   N04  En4  v100
 BYTE   W04
 BYTE   GoTo
  POIN2 LabelVictorysDelight_0_00
 BYTE   FINE

//**************** Track 2 (Midi-Chn.1) ****************//

songVictorysDelight002:
// 000   ----------------------------------------
LabelVictorysDelight_1_00:
 BYTE   TEMPO   138*songVictorysDelighttbs/2
 BYTE   KEYSH   songVictorysDelightkey+0
 BYTE   VOICE   0
 BYTE   VOL   19*songVictorysDelightmvl/mxv
 BYTE   PAN   c_v+0
 BYTE   N24  Gn3  v085
 BYTE   N24  Cn4
 BYTE   N24  En4  v099
 BYTE   N48  Cn2  v093
 BYTE   W01
 BYTE   N01
 BYTE   W23
 BYTE   N07  En3  v081
 BYTE   N08  Gn3  v095
 BYTE   W08
 BYTE   N07  Gn3  v080
 BYTE   N07  Cn4  v094
 BYTE   W07
 BYTE   Cn4  v080
 BYTE   N08  En4  v094
 BYTE   W08
 BYTE   N24  Gn3  v083
 BYTE   N24  Bn3
 BYTE   N24  Dn4  v097
 BYTE   N48  Bn1  v091
 BYTE   W24
 BYTE   N03  Dn4  v069
 BYTE   N03  Gn4  v083
 BYTE   N03  Bn3  v069
 BYTE   W15
 BYTE   N08  Bn3  v068
 BYTE   N08  Dn4
 BYTE   N08  Gn4  v082
 BYTE   W08
// 001   ----------------------------------------
 BYTE   N48  As1  v093
 BYTE   N72  As3  v080
 BYTE   N72  Fn4  v094
 BYTE   N72  Dn4  v080
 BYTE   W01
 BYTE   N01  As1  v093
 BYTE   As3  v080
 BYTE   N01  Dn4
 BYTE   N01  Fn4  v094
 BYTE   W44
 BYTE   W03
 BYTE   N24  Fn2  v097
 BYTE   N24  Cn2  v083
 BYTE   N24  Fn1
 BYTE   W24
 BYTE   Gn1  v081
 BYTE   N24  Dn2
 BYTE   N24  Gn2  v095
 BYTE   W24
// 002   ----------------------------------------
 BYTE   TEMPO   138*songVictorysDelighttbs/2
 BYTE   N12  An3  v093
 BYTE   N12  An1
 BYTE   W12
 BYTE   N05  Cn4  v088
 BYTE   N11  Cn3  v080
 BYTE   N12  En3  v094
 BYTE   W05
 BYTE   N05  En4  v088
 BYTE   W06
 BYTE   N04  An4  v089
 BYTE   N11  En2
 BYTE   W12
 BYTE   N04  Gn4  v088
 BYTE   N11  Cn3  v080
 BYTE   N12  En3  v094
 BYTE   W11
 BYTE   N04  Fs4  v091
 BYTE   N11  Dn2
 BYTE   W03
 BYTE   N04  Gn4  v088
 BYTE   W03
 BYTE   Fs4
 BYTE   W04
 BYTE   En4
 BYTE   N11  An2  v080
 BYTE   N12  Dn3  v094
 BYTE   W12
 BYTE   N11  Dn4  v089
 BYTE   N11  An1
 BYTE   W12
 BYTE   N05  An3  v088
 BYTE   N11  An2  v080
 BYTE   N12  Dn3  v094
 BYTE   W05
 BYTE   N05  Bn3  v088
 BYTE   W06
// 003   ----------------------------------------
 BYTE   Cn4  v093
 BYTE   N12  Fn1
 BYTE   W12
 BYTE   N04  Cn4  v088
 BYTE   N11  An2  v080
 BYTE   N12  Cn3  v094
 BYTE   W12
 BYTE   N11  Dn4  v089
 BYTE   N11  Cn2
 BYTE   W11
 BYTE   N04  Cn4  v088
 BYTE   N11  An2  v080
 BYTE   N12  Cn3  v094
 BYTE   W03
 BYTE   N04  Dn4  v088
 BYTE   W03
 BYTE   Cn4
 BYTE   W04
 BYTE   N11  Bn3  v091
 BYTE   N11  Gn1
 BYTE   W11
 BYTE   N04  An3  v088
 BYTE   N11  Bn1
 BYTE   W03
 BYTE   N04  Bn3
 BYTE   W03
 BYTE   An3
 BYTE   W04
 BYTE   Gn3  v089
 BYTE   N11  Dn2
 BYTE   W12
 BYTE   N04  Bn3  v088
 BYTE   N11  Gn1
 BYTE   W12
// 004   ----------------------------------------
 BYTE   N12  An3  v093
 BYTE   N12  An1
 BYTE   W12
 BYTE   N05  Cn4  v088
 BYTE   N11  Cn3  v080
 BYTE   N12  En3  v094
 BYTE   W05
 BYTE   N05  En4  v088
 BYTE   W06
 BYTE   N04  An4  v089
 BYTE   N11  En2
 BYTE   W12
 BYTE   N04  Gn4  v088
 BYTE   N11  Cn3  v080
 BYTE   N12  En3  v094
 BYTE   W11
 BYTE   N04  Fs4  v091
 BYTE   N11  Dn2
 BYTE   W03
 BYTE   N04  Gn4  v088
 BYTE   W03
 BYTE   Fs4
 BYTE   W04
 BYTE   En4
 BYTE   N11  An2  v080
 BYTE   N12  Dn3  v094
 BYTE   W12
 BYTE   N11  Dn4  v089
 BYTE   N11  An1
 BYTE   W12
 BYTE   N05  An3  v088
 BYTE   N11  An2  v080
 BYTE   N12  Dn3  v094
 BYTE   W05
 BYTE   N05  Bn3  v088
 BYTE   W06
// 005   ----------------------------------------
 BYTE   Cn4  v093
 BYTE   N12  Fn1
 BYTE   W12
 BYTE   N04  Cn4  v088
 BYTE   N11  An2  v080
 BYTE   N12  Cn3  v094
 BYTE   W12
 BYTE   N11  Dn4  v089
 BYTE   N11  Cn2
 BYTE   W11
 BYTE   N04  Cn4  v088
 BYTE   N11  An2  v080
 BYTE   N12  Cn3  v094
 BYTE   W03
 BYTE   N04  Dn4  v088
 BYTE   W03
 BYTE   Cn4
 BYTE   W04
 BYTE   N11  Bn3  v091
 BYTE   N11  Gn1
 BYTE   W12
 BYTE   Bn1  v088
 BYTE   W11
 BYTE   N04  Gn4  v089
 BYTE   N11  Dn2
 BYTE   W03
 BYTE   N04  An4  v088
 BYTE   W04
 BYTE   Gn4
 BYTE   W04
 BYTE   An4
 BYTE   N11  Gn1
 BYTE   W03
 BYTE   N04  Gn4
 BYTE   W04
 BYTE   An4
 BYTE   W04
// 006   ----------------------------------------
 BYTE   N12  An3  v099
 BYTE   N12  En3  v085
 BYTE   N12  An1  v093
 BYTE   W12
 BYTE   N05  Cn4  v088
 BYTE   N11  An3
 BYTE   N11  Cn3  v080
 BYTE   N12  En3  v094
 BYTE   W05
 BYTE   N05  En4  v088
 BYTE   W06
 BYTE   N04  Cn4  v081
 BYTE   N04  An4  v095
 BYTE   N11  En2  v089
 BYTE   W12
 BYTE   N04  Bn3  v080
 BYTE   N04  Gn4  v094
 BYTE   N11  Cn3  v080
 BYTE   N12  En3  v094
 BYTE   W11
 BYTE   N04  Fs4  v083
 BYTE   N12  An3  v080
 BYTE   N11  Dn2  v091
 BYTE   W03
 BYTE   N04  Gn4  v094
 BYTE   W03
 BYTE   Fs4  v080
 BYTE   W04
 BYTE   Gn3  v094
 BYTE   N04  En4  v080
 BYTE   N11  An2
 BYTE   N12  Dn3  v094
 BYTE   W12
 BYTE   N11  Fs3  v095
 BYTE   N11  An1  v089
 BYTE   N12  Dn4  v081
 BYTE   W12
 BYTE   N05  An3  v080
 BYTE   N05  En3  v094
 BYTE   N11  An2  v080
 BYTE   N12  Dn3  v094
 BYTE   W05
 BYTE   N05  Gn3
 BYTE   N06  Bn3  v091
 BYTE   W06
// 007   ----------------------------------------
LabelVictorysDelight_1_7004:
 BYTE   N05  An3  v091
 BYTE   N05  Cn4  v085
 BYTE   N12  Fn1  v093
 BYTE   W12
 BYTE   N04  An3  v094
 BYTE   N04  Cn4  v080
 BYTE   N11  An2
 BYTE   N12  Cn3  v094
 BYTE   W12
 BYTE   N11  Bn3  v095
 BYTE   N11  Dn4  v081
 BYTE   N11  Cn2  v089
 BYTE   W11
 BYTE   N04  Cn4  v094
 BYTE   N12  An3
 BYTE   N11  An2  v080
 BYTE   N12  Cn3  v094
 BYTE   W03
 BYTE   N04  Dn4  v080
 BYTE   W03
 BYTE   Cn4  v094
 BYTE   W04
 BYTE   N11  Gn3  v083
 BYTE   N11  Bn3  v097
 BYTE   N11  Gn1  v091
 BYTE   W11
 BYTE   N04  An3  v080
 BYTE   N12  En3
 BYTE   N11  Bn1  v088
 BYTE   W03
 BYTE   N04  Bn3  v094
 BYTE   W03
 BYTE   An3  v080
 BYTE   W04
 BYTE   Dn3  v095
 BYTE   N04  Gn3  v081
 BYTE   N11  Dn2  v089
 BYTE   W12
 BYTE   N04  Gn3  v094
 BYTE   N04  Bn3  v080
 BYTE   N11  Gn1  v088
 BYTE   W12
 BYTE   PEND 
// 008   ----------------------------------------
LabelVictorysDelight_1_8004:
 BYTE   N12  An3  v085
 BYTE   N12  En3  v099
 BYTE   N12  An1  v093
 BYTE   W12
 BYTE   N05  Cn4  v094
 BYTE   N11  An3  v088
 BYTE   N11  Cn3  v080
 BYTE   N12  En3  v094
 BYTE   W05
 BYTE   N05  En4  v088
 BYTE   W06
 BYTE   N04  Cn4  v081
 BYTE   N04  An4  v095
 BYTE   N11  En2  v089
 BYTE   W12
 BYTE   N04  Bn3  v080
 BYTE   N04  Gn4  v094
 BYTE   N11  Cn3  v080
 BYTE   N12  En3  v094
 BYTE   W11
 BYTE   N04  Fs4  v083
 BYTE   N12  An3  v080
 BYTE   N11  Dn2  v091
 BYTE   W03
 BYTE   N04  Gn4  v094
 BYTE   W03
 BYTE   Fs4  v080
 BYTE   W04
 BYTE   Gn3  v094
 BYTE   N04  En4  v080
 BYTE   N11  An2
 BYTE   N12  Dn3  v094
 BYTE   W12
 BYTE   N11  Fs3  v095
 BYTE   N11  An1  v089
 BYTE   N12  Dn4  v081
 BYTE   W12
 BYTE   N05  An3  v080
 BYTE   N05  En3  v094
 BYTE   N11  An2  v080
 BYTE   N12  Dn3  v094
 BYTE   W05
 BYTE   N05  Gn3
 BYTE   N06  Bn3  v091
 BYTE   W06
 BYTE   PEND 
// 009   ----------------------------------------
LabelVictorysDelight_1_9004:
 BYTE   N05  An3  v091
 BYTE   N05  Cn4  v085
 BYTE   N12  Fn1  v093
 BYTE   W12
 BYTE   N04  An3  v094
 BYTE   N04  Cn4  v080
 BYTE   N11  An2
 BYTE   N12  Cn3  v094
 BYTE   W12
 BYTE   N11  Bn3  v095
 BYTE   N11  Dn4  v081
 BYTE   N11  Fs1  v089
 BYTE   W11
 BYTE   N04  Cn4  v094
 BYTE   N12  An3
 BYTE   N11  An2  v080
 BYTE   N12  Cn3  v094
 BYTE   W03
 BYTE   N04  Dn4  v080
 BYTE   W03
 BYTE   Cn4  v094
 BYTE   W04
 BYTE   Gn3  v083
 BYTE   N04  Bn3  v097
 BYTE   N11  Gn1  v091
 BYTE   W12
 BYTE   N04  Gn3  v080
 BYTE   N04  Bn3  v094
 BYTE   N11  Bn2  v080
 BYTE   N12  Dn3  v094
 BYTE   W12
 BYTE   N11  Cn4  v081
 BYTE   N11  En4  v095
 BYTE   N11  Gs1  v089
 BYTE   W11
 BYTE   N04  Dn4  v080
 BYTE   N12  Bn3
 BYTE   N11  Bn2
 BYTE   N12  En3  v094
 BYTE   W03
 BYTE   N04  En4
 BYTE   W03
 BYTE   Dn4  v080
 BYTE   W04
 BYTE   PEND 
// 010   ----------------------------------------
 BYTE   N05  An3  v099
 BYTE   N05  Cn4  v085
 BYTE   N12  An1  v093
 BYTE   W12
 BYTE   N04  Cn4  v094
 BYTE   N04  En4  v080
 BYTE   N11  Cn3
 BYTE   N12  En3  v094
 BYTE   W12
 BYTE   N11  En4  v095
 BYTE   N11  Gn4  v081
 BYTE   N11  Bn1  v089
 BYTE   W11
 BYTE   N04  Fn4  v094
 BYTE   N12  Dn4
 BYTE   N11  Dn3  v080
 BYTE   N12  Fn3  v094
 BYTE   W03
 BYTE   N04  Gn4  v080
 BYTE   W03
 BYTE   Fn4  v094
 BYTE   W04
 BYTE   En4  v097
 BYTE   N04  Cn4  v083
 BYTE   N04  Gn2  v097
 BYTE   N04  Cn2  v083
 BYTE   W12
 BYTE   Gn3  v094
 BYTE   N04  En3  v080
 BYTE   N04  Gn2  v094
 BYTE   N04  Gn1  v080
 BYTE   W12
 BYTE   N03  Cn5  v095
 BYTE   N03  Gn4  v081
 BYTE   N03  Cn3  v095
 BYTE   N03  Gn2  v081
 BYTE   N04  En4  v100
 BYTE   N04  Cn2  v081
 BYTE   W24
// 011   ----------------------------------------
 BYTE   TEMPO   138*songVictorysDelighttbs/2
 BYTE   N12  An3  v093
 BYTE   N12  An1
 BYTE   W12
 BYTE   N05  Cn4  v088
 BYTE   N11  Cn3  v080
 BYTE   N12  En3  v094
 BYTE   W05
 BYTE   N05  En4  v088
 BYTE   W06
 BYTE   N04  An4  v089
 BYTE   N11  En2
 BYTE   W12
 BYTE   N04  Gn4  v088
 BYTE   N11  Cn3  v080
 BYTE   N12  En3  v094
 BYTE   W11
 BYTE   N04  Fs4  v091
 BYTE   N11  Dn2
 BYTE   W03
 BYTE   N04  Gn4  v088
 BYTE   W03
 BYTE   Fs4
 BYTE   W04
 BYTE   En4
 BYTE   N11  An2  v080
 BYTE   N12  Dn3  v094
 BYTE   W12
 BYTE   N11  Dn4  v089
 BYTE   N11  An1
 BYTE   W12
 BYTE   N05  An3  v088
 BYTE   N11  An2  v080
 BYTE   N12  Dn3  v094
 BYTE   W05
 BYTE   N05  Bn3  v088
 BYTE   W06
// 012   ----------------------------------------
 BYTE   Cn4  v093
 BYTE   N12  Fn1
 BYTE   W12
 BYTE   N04  Cn4  v088
 BYTE   N11  An2  v080
 BYTE   N12  Cn3  v094
 BYTE   W12
 BYTE   N11  Dn4  v089
 BYTE   N11  Cn2
 BYTE   W11
 BYTE   N04  Cn4  v088
 BYTE   N11  An2  v080
 BYTE   N12  Cn3  v094
 BYTE   W03
 BYTE   N04  Dn4  v088
 BYTE   W03
 BYTE   Cn4
 BYTE   W04
 BYTE   N11  Bn3  v091
 BYTE   N11  Gn1
 BYTE   W11
 BYTE   N04  An3  v088
 BYTE   N11  Bn1
 BYTE   W03
 BYTE   N04  Bn3
 BYTE   W03
 BYTE   An3
 BYTE   W04
 BYTE   Gn3  v089
 BYTE   N11  Dn2
 BYTE   W12
 BYTE   N04  Bn3  v088
 BYTE   N11  Gn1
 BYTE   W12
// 013   ----------------------------------------
 BYTE   N12  An3  v093
 BYTE   N12  An1
 BYTE   W12
 BYTE   N05  Cn4  v088
 BYTE   N11  Cn3  v080
 BYTE   N12  En3  v094
 BYTE   W05
 BYTE   N05  En4  v088
 BYTE   W06
 BYTE   N04  An4  v089
 BYTE   N11  En2
 BYTE   W12
 BYTE   N04  Gn4  v088
 BYTE   N11  Cn3  v080
 BYTE   N12  En3  v094
 BYTE   W11
 BYTE   N04  Fs4  v091
 BYTE   N11  Dn2
 BYTE   W03
 BYTE   N04  Gn4  v088
 BYTE   W03
 BYTE   Fs4
 BYTE   W04
 BYTE   En4
 BYTE   N11  An2  v080
 BYTE   N12  Dn3  v094
 BYTE   W12
 BYTE   N11  Dn4  v089
 BYTE   N11  An1
 BYTE   W12
 BYTE   N05  An3  v088
 BYTE   N11  An2  v080
 BYTE   N12  Dn3  v094
 BYTE   W05
 BYTE   N05  Bn3  v088
 BYTE   W06
// 014   ----------------------------------------
 BYTE   Cn4  v093
 BYTE   N12  Fn1
 BYTE   W12
 BYTE   N04  Cn4  v088
 BYTE   N11  An2  v080
 BYTE   N12  Cn3  v094
 BYTE   W12
 BYTE   N11  Dn4  v089
 BYTE   N11  Cn2
 BYTE   W11
 BYTE   N04  Cn4  v088
 BYTE   N11  An2  v080
 BYTE   N12  Cn3  v094
 BYTE   W03
 BYTE   N04  Dn4  v088
 BYTE   W03
 BYTE   Cn4
 BYTE   W04
 BYTE   N11  Bn3  v091
 BYTE   N11  Gn1
 BYTE   W12
 BYTE   Bn1  v088
 BYTE   W11
 BYTE   N04  Gn4  v089
 BYTE   N11  Dn2
 BYTE   W03
 BYTE   N04  An4  v088
 BYTE   W04
 BYTE   Gn4
 BYTE   W04
 BYTE   An4
 BYTE   N11  Gn1
 BYTE   W03
 BYTE   N04  Gn4
 BYTE   W04
 BYTE   An4
 BYTE   W04
// 015   ----------------------------------------
 BYTE   N12  An3  v099
 BYTE   N12  En3  v085
 BYTE   N12  An1  v093
 BYTE   W12
 BYTE   N05  Cn4  v088
 BYTE   N11  An3
 BYTE   N11  Cn3  v080
 BYTE   N12  En3  v094
 BYTE   W05
 BYTE   N05  En4  v088
 BYTE   W06
 BYTE   N04  Cn4  v081
 BYTE   N04  An4  v095
 BYTE   N11  En2  v089
 BYTE   W12
 BYTE   N04  Bn3  v080
 BYTE   N04  Gn4  v094
 BYTE   N11  Cn3  v080
 BYTE   N12  En3  v094
 BYTE   W11
 BYTE   N04  Fs4  v083
 BYTE   N12  An3  v080
 BYTE   N11  Dn2  v091
 BYTE   W03
 BYTE   N04  Gn4  v094
 BYTE   W03
 BYTE   Fs4  v080
 BYTE   W04
 BYTE   Gn3  v094
 BYTE   N04  En4  v080
 BYTE   N11  An2
 BYTE   N12  Dn3  v094
 BYTE   W12
 BYTE   N11  Fs3  v095
 BYTE   N11  An1  v089
 BYTE   N12  Dn4  v081
 BYTE   W12
 BYTE   N05  An3  v080
 BYTE   N05  En3  v094
 BYTE   N11  An2  v080
 BYTE   N12  Dn3  v094
 BYTE   W05
 BYTE   N05  Gn3
 BYTE   N06  Bn3  v091
 BYTE   W06
 BYTE   PATT
  POIN2 LabelVictorysDelight_1_7004
 BYTE   PATT
  POIN2 LabelVictorysDelight_1_8004
 BYTE   PATT
  POIN2 LabelVictorysDelight_1_9004
// 016   ----------------------------------------
 BYTE   N05  An3  v099
 BYTE   N05  Cn4  v085
 BYTE   N12  An1  v093
 BYTE   W12
 BYTE   N04  Cn4  v094
 BYTE   N04  En4  v080
 BYTE   N11  Cn3
 BYTE   N12  En3  v094
 BYTE   W12
 BYTE   N11  En4  v095
 BYTE   N11  Gn4  v081
 BYTE   N11  Bn1  v089
 BYTE   W11
 BYTE   N04  Fn4  v094
 BYTE   N12  Dn4
 BYTE   N11  Dn3  v080
 BYTE   N12  Fn3  v094
 BYTE   W03
 BYTE   N04  Gn4  v080
 BYTE   W03
 BYTE   Fn4  v094
 BYTE   W04
 BYTE   En4  v097
 BYTE   N04  Cn4  v083
 BYTE   N04  Gn2  v097
 BYTE   N04  Cn2  v083
 BYTE   W12
 BYTE   Gn3  v094
 BYTE   N04  En3  v080
 BYTE   N04  Gn2  v094
 BYTE   N04  Gn1  v080
 BYTE   W12
 BYTE   N03  Cn5  v095
 BYTE   N03  Gn4  v081
 BYTE   N03  Cn3  v095
 BYTE   N03  Gn2  v081
 BYTE   N04  En4  v100
 BYTE   N04  Cn2  v081
 BYTE   W04
 BYTE   GoTo
  POIN2 LabelVictorysDelight_1_00
 BYTE   FINE

//**************** Track 3 (Midi-Chn.2) ****************//

songVictorysDelight003:
// 000   ----------------------------------------
LabelVictorysDelight_2_00:
 BYTE   TEMPO   138*songVictorysDelighttbs/2
 BYTE   KEYSH   songVictorysDelightkey+0
 BYTE   VOICE   52
 BYTE   VOL   15*songVictorysDelightmvl/mxv
 BYTE   PAN   c_v+0
 BYTE   N24  En4  v099
 BYTE   N24  Cn4  v085
 BYTE   N24  Gn3
 BYTE   N48  Cn2  v093
 BYTE   W01
 BYTE   N01
 BYTE   W23
 BYTE   N07  En3  v081
 BYTE   N08  Gn3  v095
 BYTE   W08
 BYTE   N07  Gn3  v080
 BYTE   N07  Cn4  v094
 BYTE   W07
 BYTE   Cn4  v080
 BYTE   N08  En4  v094
 BYTE   W08
 BYTE   N24  Dn4  v097
 BYTE   N24  Bn3  v083
 BYTE   N24  Gn3
 BYTE   N48  Bn1  v091
 BYTE   W24
 BYTE   N03  Dn4  v069
 BYTE   N03  Bn3
 BYTE   N03  Gn4  v083
 BYTE   W15
 BYTE   N08  Bn3  v068
 BYTE   N08  Dn4
 BYTE   N08  Gn4  v082
 BYTE   W08
// 001   ----------------------------------------
 BYTE   N48  As1  v093
 BYTE   N72  Fn4  v094
 BYTE   N72  As3  v080
 BYTE   N72  Dn4
 BYTE   W01
 BYTE   N01  As1  v093
 BYTE   Fn4  v094
 BYTE   N01  As3  v080
 BYTE   N01  Dn4
 BYTE   W44
 BYTE   W03
 BYTE   N24  Fn2  v097
 BYTE   N24  Cn2  v083
 BYTE   N24  Fn1
 BYTE   W24
 BYTE   Gn2  v095
 BYTE   N24  Dn2  v081
 BYTE   N24  Gn1
 BYTE   W24
// 002   ----------------------------------------
 BYTE   TEMPO   138*songVictorysDelighttbs/2
 BYTE   N12  An1  v093
 BYTE   N12  An3
 BYTE   W12
 BYTE   N05  Cn4  v088
 BYTE   N11  Cn3  v080
 BYTE   N12  En3  v094
 BYTE   W05
 BYTE   N05  En4  v088
 BYTE   W06
 BYTE   N04  An4  v089
 BYTE   N11  En2
 BYTE   W12
 BYTE   N04  Gn4  v088
 BYTE   N11  Cn3  v080
 BYTE   N12  En3  v094
 BYTE   W11
 BYTE   N04  Fs4  v091
 BYTE   N11  Dn2
 BYTE   W03
 BYTE   N04  Gn4  v088
 BYTE   W03
 BYTE   Fs4
 BYTE   W04
 BYTE   En4
 BYTE   N11  An2  v080
 BYTE   N12  Dn3  v094
 BYTE   W12
 BYTE   N11  An1  v089
 BYTE   N11  Dn4
 BYTE   W12
 BYTE   N05  An3  v088
 BYTE   N11  An2  v080
 BYTE   N12  Dn3  v094
 BYTE   W05
 BYTE   N05  Bn3  v088
 BYTE   W06
// 003   ----------------------------------------
 BYTE   Cn4  v093
 BYTE   N12  Fn1
 BYTE   W12
 BYTE   N04  Cn4  v088
 BYTE   N11  An2  v080
 BYTE   N12  Cn3  v094
 BYTE   W12
 BYTE   N11  Cn2  v089
 BYTE   N11  Dn4
 BYTE   W11
 BYTE   N04  Cn4  v088
 BYTE   N11  An2  v080
 BYTE   N12  Cn3  v094
 BYTE   W03
 BYTE   N04  Dn4  v088
 BYTE   W03
 BYTE   Cn4
 BYTE   W04
 BYTE   N11  Gn1  v091
 BYTE   N11  Bn3
 BYTE   W11
 BYTE   N04  An3  v088
 BYTE   N11  Bn1
 BYTE   W03
 BYTE   N04  Bn3
 BYTE   W03
 BYTE   An3
 BYTE   W04
 BYTE   Gn3  v089
 BYTE   N11  Dn2
 BYTE   W12
 BYTE   N04  Bn3  v088
 BYTE   N11  Gn1
 BYTE   W12
// 004   ----------------------------------------
 BYTE   N12  An1  v093
 BYTE   N12  An3
 BYTE   W12
 BYTE   N05  Cn4  v088
 BYTE   N11  Cn3  v080
 BYTE   N12  En3  v094
 BYTE   W05
 BYTE   N05  En4  v088
 BYTE   W06
 BYTE   N04  An4  v089
 BYTE   N11  En2
 BYTE   W12
 BYTE   N04  Gn4  v088
 BYTE   N11  Cn3  v080
 BYTE   N12  En3  v094
 BYTE   W11
 BYTE   N04  Fs4  v091
 BYTE   N11  Dn2
 BYTE   W03
 BYTE   N04  Gn4  v088
 BYTE   W03
 BYTE   Fs4
 BYTE   W04
 BYTE   En4
 BYTE   N11  An2  v080
 BYTE   N12  Dn3  v094
 BYTE   W12
 BYTE   N11  An1  v089
 BYTE   N11  Dn4
 BYTE   W12
 BYTE   N05  An3  v088
 BYTE   N11  An2  v080
 BYTE   N12  Dn3  v094
 BYTE   W05
 BYTE   N05  Bn3  v088
 BYTE   W06
// 005   ----------------------------------------
 BYTE   Cn4  v093
 BYTE   N12  Fn1
 BYTE   W12
 BYTE   N04  Cn4  v088
 BYTE   N11  An2  v080
 BYTE   N12  Cn3  v094
 BYTE   W12
 BYTE   N11  Cn2  v089
 BYTE   N11  Dn4
 BYTE   W11
 BYTE   N04  Cn4  v088
 BYTE   N11  An2  v080
 BYTE   N12  Cn3  v094
 BYTE   W03
 BYTE   N04  Dn4  v088
 BYTE   W03
 BYTE   Cn4
 BYTE   W04
 BYTE   N11  Gn1  v091
 BYTE   N11  Bn3
 BYTE   W12
 BYTE   Bn1  v088
 BYTE   W11
 BYTE   N04  Gn4  v089
 BYTE   N11  Dn2
 BYTE   W03
 BYTE   N04  An4  v088
 BYTE   W04
 BYTE   Gn4
 BYTE   W04
 BYTE   An4
 BYTE   N11  Gn1
 BYTE   W03
 BYTE   N04  Gn4
 BYTE   W04
 BYTE   An4
 BYTE   W04
// 006   ----------------------------------------
 BYTE   N12  An3  v099
 BYTE   N12  An1  v093
 BYTE   N12  En3  v085
 BYTE   W12
 BYTE   N05  Cn4  v088
 BYTE   N11  Cn3  v080
 BYTE   N11  An3  v088
 BYTE   N12  En3  v094
 BYTE   W05
 BYTE   N05  En4  v088
 BYTE   W06
 BYTE   N04  An4  v095
 BYTE   N04  Cn4  v081
 BYTE   N11  En2  v089
 BYTE   W12
 BYTE   N04  Bn3  v080
 BYTE   N04  Gn4  v094
 BYTE   N11  Cn3  v080
 BYTE   N12  En3  v094
 BYTE   W11
 BYTE   N04  Fs4  v083
 BYTE   N12  An3  v080
 BYTE   N11  Dn2  v091
 BYTE   W03
 BYTE   N04  Gn4  v094
 BYTE   W03
 BYTE   Fs4  v080
 BYTE   W04
 BYTE   En4
 BYTE   N04  Gn3  v094
 BYTE   N11  An2  v080
 BYTE   N12  Dn3  v094
 BYTE   W12
 BYTE   N11  An1  v089
 BYTE   N11  Fs3  v095
 BYTE   N12  Dn4  v081
 BYTE   W12
 BYTE   N05  An3  v080
 BYTE   N05  En3  v094
 BYTE   N11  An2  v080
 BYTE   N12  Dn3  v094
 BYTE   W05
 BYTE   N05  Gn3
 BYTE   N06  Bn3  v091
 BYTE   W06
// 007   ----------------------------------------
LabelVictorysDelight_2_7004:
 BYTE   N05  Cn4  v085
 BYTE   N05  An3  v091
 BYTE   N12  Fn1  v093
 BYTE   W12
 BYTE   N04  Cn4  v080
 BYTE   N04  An3  v094
 BYTE   N11  An2  v080
 BYTE   N12  Cn3  v094
 BYTE   W12
 BYTE   N11  Cn2  v089
 BYTE   N11  Dn4  v081
 BYTE   N11  Bn3  v095
 BYTE   W11
 BYTE   N04  Cn4  v094
 BYTE   N12  An3
 BYTE   N11  An2  v080
 BYTE   N12  Cn3  v094
 BYTE   W03
 BYTE   N04  Dn4  v080
 BYTE   W03
 BYTE   Cn4  v094
 BYTE   W04
 BYTE   N11  Gn1  v091
 BYTE   N11  Bn3  v097
 BYTE   N11  Gn3  v083
 BYTE   W11
 BYTE   N04  An3  v080
 BYTE   N12  En3
 BYTE   N11  Bn1  v088
 BYTE   W03
 BYTE   N04  Bn3  v094
 BYTE   W03
 BYTE   An3  v080
 BYTE   W04
 BYTE   Gn3  v081
 BYTE   N04  Dn3  v095
 BYTE   N11  Dn2  v089
 BYTE   W12
 BYTE   N04  Bn3  v080
 BYTE   N04  Gn3  v094
 BYTE   N11  Gn1  v088
 BYTE   W12
 BYTE   PEND 
// 008   ----------------------------------------
LabelVictorysDelight_2_8004:
 BYTE   N12  An3  v085
 BYTE   N12  An1  v093
 BYTE   N12  En3  v099
 BYTE   W12
 BYTE   N05  Cn4  v094
 BYTE   N11  Cn3  v080
 BYTE   N11  An3  v088
 BYTE   N12  En3  v094
 BYTE   W05
 BYTE   N05  En4  v088
 BYTE   W06
 BYTE   N04  An4  v095
 BYTE   N04  Cn4  v081
 BYTE   N11  En2  v089
 BYTE   W12
 BYTE   N04  Bn3  v080
 BYTE   N04  Gn4  v094
 BYTE   N11  Cn3  v080
 BYTE   N12  En3  v094
 BYTE   W11
 BYTE   N04  Fs4  v083
 BYTE   N12  An3  v080
 BYTE   N11  Dn2  v091
 BYTE   W03
 BYTE   N04  Gn4  v094
 BYTE   W03
 BYTE   Fs4  v080
 BYTE   W04
 BYTE   En4
 BYTE   N04  Gn3  v094
 BYTE   N11  An2  v080
 BYTE   N12  Dn3  v094
 BYTE   W12
 BYTE   N11  An1  v089
 BYTE   N11  Fs3  v095
 BYTE   N12  Dn4  v081
 BYTE   W12
 BYTE   N05  An3  v080
 BYTE   N05  En3  v094
 BYTE   N11  An2  v080
 BYTE   N12  Dn3  v094
 BYTE   W05
 BYTE   N05  Gn3
 BYTE   N06  Bn3  v091
 BYTE   W06
 BYTE   PEND 
// 009   ----------------------------------------
LabelVictorysDelight_2_9004:
 BYTE   N05  Cn4  v085
 BYTE   N05  An3  v091
 BYTE   N12  Fn1  v093
 BYTE   W12
 BYTE   N04  Cn4  v080
 BYTE   N04  An3  v094
 BYTE   N11  An2  v080
 BYTE   N12  Cn3  v094
 BYTE   W12
 BYTE   N11  Fs1  v089
 BYTE   N11  Dn4  v081
 BYTE   N11  Bn3  v095
 BYTE   W11
 BYTE   N04  Cn4  v094
 BYTE   N12  An3
 BYTE   N11  An2  v080
 BYTE   N12  Cn3  v094
 BYTE   W03
 BYTE   N04  Dn4  v080
 BYTE   W03
 BYTE   Cn4  v094
 BYTE   W04
 BYTE   Bn3  v097
 BYTE   N04  Gn3  v083
 BYTE   N11  Gn1  v091
 BYTE   W12
 BYTE   N04  Bn3  v094
 BYTE   N04  Gn3  v080
 BYTE   N11  Bn2
 BYTE   N12  Dn3  v094
 BYTE   W12
 BYTE   N11  Gs1  v089
 BYTE   N11  En4  v095
 BYTE   N11  Cn4  v081
 BYTE   W11
 BYTE   N04  Dn4  v080
 BYTE   N12  Bn3
 BYTE   N11  Bn2
 BYTE   N12  En3  v094
 BYTE   W03
 BYTE   N04  En4
 BYTE   W03
 BYTE   Dn4  v080
 BYTE   W04
 BYTE   PEND 
// 010   ----------------------------------------
 BYTE   N05  Cn4  v085
 BYTE   N05  An3  v099
 BYTE   N12  An1  v093
 BYTE   W12
 BYTE   N04  En4  v080
 BYTE   N04  Cn4  v094
 BYTE   N11  Cn3  v080
 BYTE   N12  En3  v094
 BYTE   W12
 BYTE   N11  Bn1  v089
 BYTE   N11  Gn4  v081
 BYTE   N11  En4  v095
 BYTE   W11
 BYTE   N04  Fn4  v094
 BYTE   N12  Dn4
 BYTE   N11  Dn3  v080
 BYTE   N12  Fn3  v094
 BYTE   W03
 BYTE   N04  Gn4  v080
 BYTE   W03
 BYTE   Fn4  v094
 BYTE   W04
 BYTE   Cn2  v083
 BYTE   N04  Gn2  v097
 BYTE   N04  Cn4  v083
 BYTE   N04  En4  v097
 BYTE   W12
 BYTE   Gn1  v080
 BYTE   N04  Gn2  v094
 BYTE   N04  En3  v080
 BYTE   N04  Gn3  v094
 BYTE   W12
 BYTE   N03  Gn2  v081
 BYTE   N03  Cn3  v095
 BYTE   N03  Gn4  v081
 BYTE   N03  Cn5  v095
 BYTE   N04  Cn2  v081
 BYTE   N04  En4  v100
 BYTE   W24
// 011   ----------------------------------------
 BYTE   TEMPO   138*songVictorysDelighttbs/2
 BYTE   N12  An1  v093
 BYTE   N12  An3
 BYTE   W12
 BYTE   N05  Cn4  v088
 BYTE   N11  Cn3  v080
 BYTE   N12  En3  v094
 BYTE   W05
 BYTE   N05  En4  v088
 BYTE   W06
 BYTE   N04  An4  v089
 BYTE   N11  En2
 BYTE   W12
 BYTE   N04  Gn4  v088
 BYTE   N11  Cn3  v080
 BYTE   N12  En3  v094
 BYTE   W11
 BYTE   N04  Fs4  v091
 BYTE   N11  Dn2
 BYTE   W03
 BYTE   N04  Gn4  v088
 BYTE   W03
 BYTE   Fs4
 BYTE   W04
 BYTE   En4
 BYTE   N11  An2  v080
 BYTE   N12  Dn3  v094
 BYTE   W12
 BYTE   N11  An1  v089
 BYTE   N11  Dn4
 BYTE   W12
 BYTE   N05  An3  v088
 BYTE   N11  An2  v080
 BYTE   N12  Dn3  v094
 BYTE   W05
 BYTE   N05  Bn3  v088
 BYTE   W06
// 012   ----------------------------------------
 BYTE   Cn4  v093
 BYTE   N12  Fn1
 BYTE   W12
 BYTE   N04  Cn4  v088
 BYTE   N11  An2  v080
 BYTE   N12  Cn3  v094
 BYTE   W12
 BYTE   N11  Cn2  v089
 BYTE   N11  Dn4
 BYTE   W11
 BYTE   N04  Cn4  v088
 BYTE   N11  An2  v080
 BYTE   N12  Cn3  v094
 BYTE   W03
 BYTE   N04  Dn4  v088
 BYTE   W03
 BYTE   Cn4
 BYTE   W04
 BYTE   N11  Gn1  v091
 BYTE   N11  Bn3
 BYTE   W11
 BYTE   N04  An3  v088
 BYTE   N11  Bn1
 BYTE   W03
 BYTE   N04  Bn3
 BYTE   W03
 BYTE   An3
 BYTE   W04
 BYTE   Gn3  v089
 BYTE   N11  Dn2
 BYTE   W12
 BYTE   N04  Bn3  v088
 BYTE   N11  Gn1
 BYTE   W12
// 013   ----------------------------------------
 BYTE   N12  An1  v093
 BYTE   N12  An3
 BYTE   W12
 BYTE   N05  Cn4  v088
 BYTE   N11  Cn3  v080
 BYTE   N12  En3  v094
 BYTE   W05
 BYTE   N05  En4  v088
 BYTE   W06
 BYTE   N04  An4  v089
 BYTE   N11  En2
 BYTE   W12
 BYTE   N04  Gn4  v088
 BYTE   N11  Cn3  v080
 BYTE   N12  En3  v094
 BYTE   W11
 BYTE   N04  Fs4  v091
 BYTE   N11  Dn2
 BYTE   W03
 BYTE   N04  Gn4  v088
 BYTE   W03
 BYTE   Fs4
 BYTE   W04
 BYTE   En4
 BYTE   N11  An2  v080
 BYTE   N12  Dn3  v094
 BYTE   W12
 BYTE   N11  An1  v089
 BYTE   N11  Dn4
 BYTE   W12
 BYTE   N05  An3  v088
 BYTE   N11  An2  v080
 BYTE   N12  Dn3  v094
 BYTE   W05
 BYTE   N05  Bn3  v088
 BYTE   W06
// 014   ----------------------------------------
 BYTE   Cn4  v093
 BYTE   N12  Fn1
 BYTE   W12
 BYTE   N04  Cn4  v088
 BYTE   N11  An2  v080
 BYTE   N12  Cn3  v094
 BYTE   W12
 BYTE   N11  Cn2  v089
 BYTE   N11  Dn4
 BYTE   W11
 BYTE   N04  Cn4  v088
 BYTE   N11  An2  v080
 BYTE   N12  Cn3  v094
 BYTE   W03
 BYTE   N04  Dn4  v088
 BYTE   W03
 BYTE   Cn4
 BYTE   W04
 BYTE   N11  Gn1  v091
 BYTE   N11  Bn3
 BYTE   W12
 BYTE   Bn1  v088
 BYTE   W11
 BYTE   N04  Gn4  v089
 BYTE   N11  Dn2
 BYTE   W03
 BYTE   N04  An4  v088
 BYTE   W04
 BYTE   Gn4
 BYTE   W04
 BYTE   An4
 BYTE   N11  Gn1
 BYTE   W03
 BYTE   N04  Gn4
 BYTE   W04
 BYTE   An4
 BYTE   W04
// 015   ----------------------------------------
 BYTE   N12  An3  v099
 BYTE   N12  An1  v093
 BYTE   N12  En3  v085
 BYTE   W12
 BYTE   N05  Cn4  v088
 BYTE   N11  Cn3  v080
 BYTE   N11  An3  v088
 BYTE   N12  En3  v094
 BYTE   W05
 BYTE   N05  En4  v088
 BYTE   W06
 BYTE   N04  An4  v095
 BYTE   N04  Cn4  v081
 BYTE   N11  En2  v089
 BYTE   W12
 BYTE   N04  Bn3  v080
 BYTE   N04  Gn4  v094
 BYTE   N11  Cn3  v080
 BYTE   N12  En3  v094
 BYTE   W11
 BYTE   N04  Fs4  v083
 BYTE   N12  An3  v080
 BYTE   N11  Dn2  v091
 BYTE   W03
 BYTE   N04  Gn4  v094
 BYTE   W03
 BYTE   Fs4  v080
 BYTE   W04
 BYTE   En4
 BYTE   N04  Gn3  v094
 BYTE   N11  An2  v080
 BYTE   N12  Dn3  v094
 BYTE   W12
 BYTE   N11  An1  v089
 BYTE   N11  Fs3  v095
 BYTE   N12  Dn4  v081
 BYTE   W12
 BYTE   N05  An3  v080
 BYTE   N05  En3  v094
 BYTE   N11  An2  v080
 BYTE   N12  Dn3  v094
 BYTE   W05
 BYTE   N05  Gn3
 BYTE   N06  Bn3  v091
 BYTE   W06
 BYTE   PATT
  POIN2 LabelVictorysDelight_2_7004
 BYTE   PATT
  POIN2 LabelVictorysDelight_2_8004
 BYTE   PATT
  POIN2 LabelVictorysDelight_2_9004
// 016   ----------------------------------------
 BYTE   N05  Cn4  v085
 BYTE   N05  An3  v099
 BYTE   N12  An1  v093
 BYTE   W12
 BYTE   N04  En4  v080
 BYTE   N04  Cn4  v094
 BYTE   N11  Cn3  v080
 BYTE   N12  En3  v094
 BYTE   W12
 BYTE   N11  Bn1  v089
 BYTE   N11  Gn4  v081
 BYTE   N11  En4  v095
 BYTE   W11
 BYTE   N04  Fn4  v094
 BYTE   N12  Dn4
 BYTE   N11  Dn3  v080
 BYTE   N12  Fn3  v094
 BYTE   W03
 BYTE   N04  Gn4  v080
 BYTE   W03
 BYTE   Fn4  v094
 BYTE   W04
 BYTE   Cn2  v083
 BYTE   N04  Gn2  v097
 BYTE   N04  Cn4  v083
 BYTE   N04  En4  v097
 BYTE   W12
 BYTE   Gn1  v080
 BYTE   N04  Gn2  v094
 BYTE   N04  En3  v080
 BYTE   N04  Gn3  v094
 BYTE   W12
 BYTE   N03  Gn2  v081
 BYTE   N03  Cn3  v095
 BYTE   N03  Gn4  v081
 BYTE   N03  Cn5  v095
 BYTE   N04  Cn2  v081
 BYTE   N04  En4  v100
 BYTE   W04
 BYTE   GoTo
  POIN2 LabelVictorysDelight_2_00
 BYTE   FINE

//******************************************************//
	ALIGN 4

songVictorysDelight:
	BYTE	3	// NumTrks
	BYTE	0	// NumBlks
	BYTE	songVictorysDelightpri	// Priority
	BYTE	songVictorysDelightrev	// Reverb.
    
	POIN2	songVictorysDelightgrp
    
	POIN2	songVictorysDelight001
	POIN2	songVictorysDelight002
	POIN2	songVictorysDelight003

	
