//Event file generated from Sappy .s format.
	#include "MPlayDef.event"

	#define	WeCanHandleEm_grp  voicegroup000
	#define	WeCanHandleEm_pri  0
	#define	WeCanHandleEm_rev  0
	#define	WeCanHandleEm_mvl  127
	#define	WeCanHandleEm_key  0
	#define	WeCanHandleEm_tbs  1
	#define	WeCanHandleEm_exg  0
	#define	WeCanHandleEm_cmp  1

	// .rodata
	//	song19
	ALIGN 4


//**************** Track 1 (Midi-Chn.0) ****************//

WeCanHandleEm_001:
// 000   ----------------------------------------
 BYTE   KEYSH   WeCanHandleEm_key+0
 BYTE   TEMPO   160*WeCanHandleEm_tbs/2
 BYTE   VOICE   56
 BYTE   VOL   62*WeCanHandleEm_mvl/mxv
 BYTE   PAN   c_v+0
 BYTE   W24
Label_0_WeCanHandleEm_011529B7:
 BYTE   W72
// 001   ----------------------------------------
 BYTE   W96
// 002   ----------------------------------------
 BYTE   W96
// 003   ----------------------------------------
 BYTE   W96
// 004   ----------------------------------------
 BYTE   W96
// 005   ----------------------------------------
 BYTE   W96
// 006   ----------------------------------------
 BYTE   W96
// 007   ----------------------------------------
 BYTE   W96
// 008   ----------------------------------------
 BYTE   W48
 BYTE   N11  Cs4  v064
 BYTE   N11  Fn4
 BYTE   W24
 BYTE   N05  Cs4
 BYTE   N05  Fn4
 BYTE   W12
 BYTE   Cs4
 BYTE   N05  Fn4
 BYTE   W12
// 009   ----------------------------------------
 BYTE   W24
 BYTE   N11  Cs4
 BYTE   N11  Fn4
 BYTE   W36
 BYTE   N05  Cs4
 BYTE   N05  Fn4
 BYTE   W24
 BYTE   N32  Cs4
 BYTE   N32  Fn4
 BYTE   W12
// 010   ----------------------------------------
 BYTE   W48
 BYTE   N11  Cn4
 BYTE   N11  Ds4
 BYTE   W24
 BYTE   N05  Cn4
 BYTE   N05  Ds4
 BYTE   W12
 BYTE   Cn4
 BYTE   N05  Ds4
 BYTE   W12
// 011   ----------------------------------------
 BYTE   W36
 BYTE   Cn4
 BYTE   N05  Ds4
 BYTE   W24
 BYTE   Cn4
 BYTE   N05  Ds4
 BYTE   W24
 BYTE   N32  Cn4
 BYTE   N32  Ds4
 BYTE   W12
// 012   ----------------------------------------
 BYTE   W48
 BYTE   N11  As3
 BYTE   N11  Gn4
 BYTE   W24
 BYTE   N05  As3
 BYTE   N05  Gn4
 BYTE   W12
 BYTE   As3
 BYTE   N05  Gn4
 BYTE   W12
// 013   ----------------------------------------
 BYTE   W36
 BYTE   As3
 BYTE   N05  Gn4
 BYTE   W12
 BYTE   N11  As3
 BYTE   N11  Gn4
 BYTE   W12
 BYTE   N05  As3
 BYTE   N05  Gn4
 BYTE   W24
 BYTE   As3
 BYTE   N05  Fn4
 BYTE   W12
// 014   ----------------------------------------
 BYTE   W12
 BYTE   TIE  Cn4
 BYTE   N80  Gn4
 BYTE   W84
// 015   ----------------------------------------
 BYTE   N92
 BYTE   W23
 BYTE   EOT
 BYTE   Cn4
 BYTE   W01
 BYTE   N92  En4
 BYTE   W72
// 016   ----------------------------------------
 BYTE   W24
 BYTE   Cn4
 BYTE   N92  Fn4
 BYTE   W72
// 017   ----------------------------------------
 BYTE   W96
// 018   ----------------------------------------
 BYTE   W96
// 019   ----------------------------------------
 BYTE   W36
 BYTE   N05  Dn4
 BYTE   N05  Gn4
 BYTE   W24
 BYTE   Dn4
 BYTE   N05  Gn4
 BYTE   W24
 BYTE   N11  Dn4
 BYTE   N28  Gn4
 BYTE   W12
// 020   ----------------------------------------
 BYTE   N11  Dn4
 BYTE   W12
 BYTE   N05  Fs4
 BYTE   W06
 BYTE   Fn4
 BYTE   W06
 BYTE   N92  Cn4
 BYTE   N92  En4
 BYTE   W72
// 021   ----------------------------------------
 BYTE   W96
// 022   ----------------------------------------
 BYTE   W24
 BYTE   GoTo
  POIN2 Label_0_WeCanHandleEm_011529B7
 BYTE   FINE

//**************** Track 2 (Midi-Chn.1) ****************//

WeCanHandleEm_002:
// 000   ----------------------------------------
 BYTE   KEYSH   WeCanHandleEm_key+0
 BYTE   VOICE   33
 BYTE   VOL   127*WeCanHandleEm_mvl/mxv
 BYTE   PAN   c_v+0
 BYTE   W24
Label_1_01156BD9:
 BYTE   N11  Cn1  v044
 BYTE   W12
 BYTE   Cn2
 BYTE   W12
 BYTE   As1
 BYTE   W12
 BYTE   Cn2
 BYTE   W12
 BYTE   Cn1
 BYTE   W12
 BYTE   Cn2
 BYTE   W12
// 001   ----------------------------------------
Label_1_01156BE7:
 BYTE   N11  As1  v044
 BYTE   W12
 BYTE   Cn2
 BYTE   W12
 BYTE   Cn1
 BYTE   W12
 BYTE   Cn2
 BYTE   W12
 BYTE   Gs1
 BYTE   W12
 BYTE   Cn2
 BYTE   W12
 BYTE   Cn1
 BYTE   W12
 BYTE   Cn2
 BYTE   W12
 BYTE   PEND 
// 002   ----------------------------------------
Label_1_01156BFA:
 BYTE   N11  As1  v044
 BYTE   W12
 BYTE   Gn1
 BYTE   W12
 BYTE   Fn0
 BYTE   W12
 BYTE   Fn1
 BYTE   W12
 BYTE   Ds1
 BYTE   W12
 BYTE   Fn1
 BYTE   W12
 BYTE   Fn0
 BYTE   W12
 BYTE   Fn1
 BYTE   W12
 BYTE   PEND 
// 003   ----------------------------------------
 BYTE   Ds1
 BYTE   W12
 BYTE   Fn1
 BYTE   W12
 BYTE   Fn0
 BYTE   W12
 BYTE   Cn1
 BYTE   W12
 BYTE   Fn1
 BYTE   W12
 BYTE   Cn2
 BYTE   W12
 BYTE   As1
 BYTE   W12
 BYTE   Gs1
 BYTE   W12
// 004   ----------------------------------------
 BYTE   Gn1
 BYTE   W12
 BYTE   Fn1
 BYTE   W12
 BYTE   Cn1
 BYTE   W12
 BYTE   Cn2
 BYTE   W12
 BYTE   As1
 BYTE   W12
 BYTE   Cn2
 BYTE   W12
 BYTE   Cn1
 BYTE   W12
 BYTE   Cn2
 BYTE   W12
 BYTE   PATT
  POIN2 Label_1_01156BE7
 BYTE   PATT
  POIN2 Label_1_01156BFA
// 005   ----------------------------------------
 BYTE   N11  Ds1  v044
 BYTE   W12
 BYTE   Fn1
 BYTE   W12
 BYTE   Fn0
 BYTE   W12
 BYTE   Cn1
 BYTE   W12
 BYTE   Fn1
 BYTE   W12
 BYTE   Cn1
 BYTE   W12
 BYTE   An1
 BYTE   W12
 BYTE   Gn1
 BYTE   W12
// 006   ----------------------------------------
 BYTE   Fn1
 BYTE   W12
 BYTE   Ds1
 BYTE   W12
 BYTE   Cs1
 BYTE   W12
 BYTE   Cs2
 BYTE   W12
 BYTE   Bn1
 BYTE   W12
 BYTE   Cs2
 BYTE   W12
 BYTE   Cs1
 BYTE   W12
 BYTE   Cs2
 BYTE   W12
// 007   ----------------------------------------
 BYTE   Bn1
 BYTE   W12
 BYTE   Cs2
 BYTE   W12
 BYTE   Cs1
 BYTE   W12
 BYTE   Gs1
 BYTE   W12
 BYTE   Cs2
 BYTE   W12
 BYTE   Cs1
 BYTE   W12
 BYTE   Gs1
 BYTE   W12
 BYTE   Cs2
 BYTE   W12
// 008   ----------------------------------------
 BYTE   Gs1
 BYTE   W12
 BYTE   Cs1
 BYTE   W12
 BYTE   Gs0
 BYTE   W12
 BYTE   Gs1
 BYTE   W12
 BYTE   Ds1
 BYTE   W12
 BYTE   Gs1
 BYTE   W12
 BYTE   Gs0
 BYTE   W12
 BYTE   Gs1
 BYTE   W12
// 009   ----------------------------------------
 BYTE   Ds1
 BYTE   W12
 BYTE   Gs1
 BYTE   W12
 BYTE   Gs0
 BYTE   W12
 BYTE   Ds1
 BYTE   W12
 BYTE   Gs1
 BYTE   W12
 BYTE   Gs0
 BYTE   W12
 BYTE   Ds1
 BYTE   W12
 BYTE   Gs1
 BYTE   W12
// 010   ----------------------------------------
 BYTE   Gs0
 BYTE   W12
 BYTE   Cn1
 BYTE   W12
 BYTE   Ds1
 BYTE   W12
 BYTE   As1
 BYTE   W12
 BYTE   Gn1
 BYTE   W12
 BYTE   As1
 BYTE   W12
 BYTE   Ds1
 BYTE   W12
 BYTE   As1
 BYTE   W12
// 011   ----------------------------------------
 BYTE   Gn1
 BYTE   W12
 BYTE   As1
 BYTE   W12
 BYTE   Ds1
 BYTE   W12
 BYTE   As1
 BYTE   W12
 BYTE   Gn1
 BYTE   W12
 BYTE   As1
 BYTE   W12
 BYTE   Ds1
 BYTE   W12
 BYTE   Gs1
 BYTE   W12
// 012   ----------------------------------------
 BYTE   Fn1
 BYTE   W12
 BYTE   Gn1
 BYTE   W12
 BYTE   Cn1
 BYTE   W12
 BYTE   Gn1
 BYTE   W12
 BYTE   Fn1
 BYTE   W12
 BYTE   Gn1
 BYTE   W12
 BYTE   Cn1
 BYTE   W12
 BYTE   Gn1
 BYTE   W12
// 013   ----------------------------------------
 BYTE   Fn1
 BYTE   W12
 BYTE   Gn1
 BYTE   W12
 BYTE   Cn1
 BYTE   W12
 BYTE   Gn1
 BYTE   W12
 BYTE   Cn2
 BYTE   W12
 BYTE   Cn1
 BYTE   W12
 BYTE   Cn2
 BYTE   W12
 BYTE   As1
 BYTE   W12
// 014   ----------------------------------------
 BYTE   Gs1
 BYTE   W12
 BYTE   Gn1
 BYTE   W12
 BYTE   Fn1
 BYTE   W12
 BYTE   Cn2
 BYTE   W12
 BYTE   Fn2
 BYTE   W12
 BYTE   Fn1
 BYTE   W12
 BYTE   Cn2
 BYTE   W12
 BYTE   Fn2
 BYTE   W12
// 015   ----------------------------------------
 BYTE   Fn1
 BYTE   W12
 BYTE   Cn2
 BYTE   W12
 BYTE   Fn1
 BYTE   W12
 BYTE   Fn2
 BYTE   W12
 BYTE   Ds2
 BYTE   W12
 BYTE   Cs2
 BYTE   W12
 BYTE   Cn2
 BYTE   W12
 BYTE   As1
 BYTE   W12
// 016   ----------------------------------------
 BYTE   Gs1
 BYTE   W12
 BYTE   Gn1
 BYTE   W12
 BYTE   Fn0
 BYTE   W12
 BYTE   Fn1
 BYTE   W12
 BYTE   Ds1
 BYTE   W12
 BYTE   Fn1
 BYTE   W12
 BYTE   Fn0
 BYTE   W12
 BYTE   Fn1
 BYTE   W12
// 017   ----------------------------------------
 BYTE   Cn1
 BYTE   W12
 BYTE   Gs0
 BYTE   W12
 BYTE   Gn0
 BYTE   W12
 BYTE   Gn1
 BYTE   W12
 BYTE   Gn0
 BYTE   W12
 BYTE   Gn1
 BYTE   W12
 BYTE   Gn0
 BYTE   W12
 BYTE   Dn1
 BYTE   W12
// 018   ----------------------------------------
 BYTE   Gn1
 BYTE   W12
 BYTE   Gn0
 BYTE   W12
 BYTE   Cn1
 BYTE   W12
 BYTE   Cn2
 BYTE   W12
 BYTE   As1
 BYTE   W12
 BYTE   Cn2
 BYTE   W12
 BYTE   Cn1
 BYTE   W12
 BYTE   Cn2
 BYTE   W12
// 019   ----------------------------------------
 BYTE   Gn1
 BYTE   W12
 BYTE   Ds1
 BYTE   W12
 BYTE   Cn1
 BYTE   W12
 BYTE   Cn2
 BYTE   W12
 BYTE   As1
 BYTE   W12
 BYTE   Gs1
 BYTE   W12
 BYTE   Gn1
 BYTE   W12
 BYTE   Fn1
 BYTE   W12
// 020   ----------------------------------------
 BYTE   Ds1
 BYTE   W12
 BYTE   Dn1
 BYTE   W12
 BYTE   GoTo
  POIN2 Label_1_01156BD9
 BYTE   FINE

//**************** Track 3 (Midi-Chn.2) ****************//

WeCanHandleEm_003:
// 000   ----------------------------------------
 BYTE   KEYSH   WeCanHandleEm_key+0
 BYTE   VOICE   73
 BYTE   VOL   62*WeCanHandleEm_mvl/mxv
 BYTE   PAN   c_v+0
 BYTE   W24
Label_2_01152A75:
 BYTE   W72
// 001   ----------------------------------------
 BYTE   W96
// 002   ----------------------------------------
 BYTE   W96
// 003   ----------------------------------------
 BYTE   W96
// 004   ----------------------------------------
 BYTE   W36
 BYTE   N05  Gn3  v064
 BYTE   N05  Cn4
 BYTE   W12
 BYTE   As3
 BYTE   N05  Dn4
 BYTE   W12
 BYTE   Cn4
 BYTE   N05  Ds4
 BYTE   W12
 BYTE   N32
 BYTE   N32  Gn4
 BYTE   W24
// 005   ----------------------------------------
 BYTE   W12
 BYTE   N05  Gn3
 BYTE   N05  Cn4
 BYTE   W12
 BYTE   As3
 BYTE   N05  Dn4
 BYTE   W12
 BYTE   Cn4
 BYTE   N05  Ds4
 BYTE   W12
 BYTE   N32
 BYTE   N32  Gs4
 BYTE   W36
 BYTE   N05  Gn3
 BYTE   N05  Cn4
 BYTE   W12
// 006   ----------------------------------------
 BYTE   As3
 BYTE   N05  Dn4
 BYTE   W12
 BYTE   Cn4
 BYTE   N05  Ds4
 BYTE   W12
 BYTE   N32  Fn4
 BYTE   N32  As4
 BYTE   W36
 BYTE   N22  Cn4
 BYTE   N22  An4
 BYTE   W24
 BYTE   N05  As3
 BYTE   N05  Gn4
 BYTE   W12
// 007   ----------------------------------------
 BYTE   TIE  An3
 BYTE   TIE  Fn4
 BYTE   W96
// 008   ----------------------------------------
 BYTE   W17
 BYTE   EOT
 BYTE   An3  v077
 BYTE   W78
 BYTE   W01
// 009   ----------------------------------------
 BYTE   W96
// 010   ----------------------------------------
 BYTE   W96
// 011   ----------------------------------------
 BYTE   W96
// 012   ----------------------------------------
 BYTE   W96
// 013   ----------------------------------------
 BYTE   W96
// 014   ----------------------------------------
 BYTE   W96
// 015   ----------------------------------------
 BYTE   W96
// 016   ----------------------------------------
 BYTE   W96
// 017   ----------------------------------------
 BYTE   W96
// 018   ----------------------------------------
 BYTE   W96
// 019   ----------------------------------------
 BYTE   W96
// 020   ----------------------------------------
 BYTE   W96
// 021   ----------------------------------------
 BYTE   W96
// 022   ----------------------------------------
 BYTE   W24
 BYTE   GoTo
  POIN2 Label_2_01152A75
 BYTE   FINE

//**************** Track 4 (Midi-Chn.3) ****************//

WeCanHandleEm_004:
// 000   ----------------------------------------
 BYTE   KEYSH   WeCanHandleEm_key+0
 BYTE   VOICE   48
 BYTE   VOL   62*WeCanHandleEm_mvl/mxv
 BYTE   PAN   c_v+0
 BYTE   N02  Cn3  v064
 BYTE   N02  Cn4
 BYTE   W03
 BYTE   Dn3
 BYTE   N02  Dn4
 BYTE   W03
 BYTE   Ds3
 BYTE   N02  Ds4
 BYTE   W03
 BYTE   Fn3
 BYTE   N02  Fn4
 BYTE   W03
 BYTE   Gn3
 BYTE   N02  Gn4
 BYTE   W03
 BYTE   Gs3
 BYTE   N02  Gs4
 BYTE   W03
 BYTE   As3
 BYTE   N02  As4
 BYTE   W03
 BYTE   Bn3
 BYTE   N02  Bn4
 BYTE   W03
Label_3_01152B16:
 BYTE   N05  Cn4  v064
 BYTE   N05  Cn5
 BYTE   W12
 BYTE   Cn3
 BYTE   N05  Cn4
 BYTE   W12
 BYTE   Dn3
 BYTE   N05  Dn4
 BYTE   W12
 BYTE   Ds3
 BYTE   N05  Ds4
 BYTE   W12
 BYTE   N32  Gn3
 BYTE   N32  Gn4
 BYTE   W24
// 001   ----------------------------------------
 BYTE   W12
 BYTE   N05  Cn3
 BYTE   N05  Cn4
 BYTE   W12
 BYTE   Dn3
 BYTE   N05  Dn4
 BYTE   W12
 BYTE   Ds3
 BYTE   N05  Ds4
 BYTE   W12
 BYTE   N32  Gs3
 BYTE   N32  Gs4
 BYTE   W36
 BYTE   N05  Cn3
 BYTE   N05  Cn4
 BYTE   W12
// 002   ----------------------------------------
 BYTE   Dn3
 BYTE   N05  Dn4
 BYTE   W12
 BYTE   Ds3
 BYTE   N05  Ds4
 BYTE   W12
 BYTE   N32  As3
 BYTE   N32  As4
 BYTE   W36
 BYTE   N23  An3
 BYTE   N23  An4
 BYTE   W24
 BYTE   N05  Gn3
 BYTE   N05  Gn4
 BYTE   W12
// 003   ----------------------------------------
 BYTE   TIE  Fn3
 BYTE   TIE  Fn4
 BYTE   W96
// 004   ----------------------------------------
 BYTE   W23
 BYTE   EOT
 BYTE   Fn3  v077
 BYTE   W72
 BYTE   W01
// 005   ----------------------------------------
 BYTE   W96
// 006   ----------------------------------------
 BYTE   W96
// 007   ----------------------------------------
 BYTE   W96
// 008   ----------------------------------------
 BYTE   W96
// 009   ----------------------------------------
 BYTE   W96
// 010   ----------------------------------------
 BYTE   W96
// 011   ----------------------------------------
 BYTE   W96
// 012   ----------------------------------------
 BYTE   W96
// 013   ----------------------------------------
 BYTE   W96
// 014   ----------------------------------------
 BYTE   W96
// 015   ----------------------------------------
 BYTE   W96
// 016   ----------------------------------------
 BYTE   W96
// 017   ----------------------------------------
 BYTE   W96
// 018   ----------------------------------------
 BYTE   W96
// 019   ----------------------------------------
 BYTE   W96
// 020   ----------------------------------------
 BYTE   W96
// 021   ----------------------------------------
 BYTE   W96
// 022   ----------------------------------------
 BYTE   N05  As3
 BYTE   N05  As4
 BYTE   W06
 BYTE   An3
 BYTE   N05  An4
 BYTE   W06
 BYTE   As3
 BYTE   N05  As4
 BYTE   W06
 BYTE   Bn3
 BYTE   N05  Bn4
 BYTE   W06
 BYTE   GoTo
  POIN2 Label_3_01152B16
 BYTE   FINE

//**************** Track 5 (Midi-Chn.4) ****************//

WeCanHandleEm_005:
// 000   ----------------------------------------
 BYTE   KEYSH   WeCanHandleEm_key+0
 BYTE   VOICE   48
 BYTE   VOL   62*WeCanHandleEm_mvl/mxv
 BYTE   PAN   c_v+0
 BYTE   W24
Label_4_01156D3D:
 BYTE   N92  Cn3  v052
 BYTE   N92  Gn3
 BYTE   W72
// 001   ----------------------------------------
Label_4_01156D43:
 BYTE   W24
 BYTE   N92  Cn3  v052
 BYTE   N92  Gs3
 BYTE   W72
 BYTE   PEND 
// 002   ----------------------------------------
Label_4_01156D4B:
 BYTE   W24
 BYTE   N68  Fn3  v052
 BYTE   N68  Cn4
 BYTE   W72
 BYTE   PEND 
// 003   ----------------------------------------
 BYTE   N23  Fn3
 BYTE   N68  Cn4
 BYTE   W48
 BYTE   N05  Fn3
 BYTE   W06
 BYTE   Gn3
 BYTE   W06
 BYTE   Gs3
 BYTE   W06
 BYTE   As3
 BYTE   W06
 BYTE   N23  Cn4
 BYTE   W24
// 004   ----------------------------------------
 BYTE   N05  Cn3
 BYTE   W06
 BYTE   Dn3
 BYTE   W06
 BYTE   Ds3
 BYTE   W06
 BYTE   Fn3
 BYTE   W06
 BYTE   N92  Cn3
 BYTE   N92  Gn3
 BYTE   W72
 BYTE   PATT
  POIN2 Label_4_01156D43
 BYTE   PATT
  POIN2 Label_4_01156D4B
// 005   ----------------------------------------
 BYTE   N23  Fn3  v052
 BYTE   N68  Cn4
 BYTE   W48
 BYTE   N05  Fn3
 BYTE   W06
 BYTE   Gn3
 BYTE   W06
 BYTE   An3
 BYTE   W06
 BYTE   As3
 BYTE   W06
 BYTE   N23  Cn4
 BYTE   W06
 BYTE   N05  As3
 BYTE   W06
 BYTE   An3
 BYTE   W06
 BYTE   Gn3
 BYTE   W06
// 006   ----------------------------------------
 BYTE   An3
 BYTE   W06
 BYTE   Gn3
 BYTE   W06
 BYTE   Fn3
 BYTE   W06
 BYTE   Ds3
 BYTE   W06
 BYTE   N11  Cs3
 BYTE   W72
// 007   ----------------------------------------
 BYTE   W96
// 008   ----------------------------------------
 BYTE   N05  Gs3
 BYTE   W06
 BYTE   Gn3
 BYTE   W06
 BYTE   Gs3
 BYTE   W06
 BYTE   As3
 BYTE   W06
 BYTE   N11  Cn4
 BYTE   W72
// 009   ----------------------------------------
 BYTE   W96
// 010   ----------------------------------------
 BYTE   N05  As3
 BYTE   W06
 BYTE   Gs3
 BYTE   W06
 BYTE   Gn3
 BYTE   W06
 BYTE   Fn3
 BYTE   W06
 BYTE   N80  As2
 BYTE   N80  Ds3
 BYTE   W72
// 011   ----------------------------------------
 BYTE   W12
 BYTE   N11
 BYTE   N05  Gn3
 BYTE   W06
 BYTE   As3
 BYTE   W06
 BYTE   N44
 BYTE   N44  Ds4
 BYTE   W48
 BYTE   N32  Gs3
 BYTE   N32  Cs4
 BYTE   W24
// 012   ----------------------------------------
 BYTE   W12
 BYTE   N05  As3
 BYTE   N05  Ds4
 BYTE   W06
 BYTE   Gs3
 BYTE   N05  Fn4
 BYTE   W06
 BYTE   Gn3
 BYTE   N05  Gn4
 BYTE   W06
 BYTE   Cn3
 BYTE   N05  Cn4
 BYTE   W06
 BYTE   Fn3
 BYTE   N05  Fn4
 BYTE   W06
 BYTE   Gn3
 BYTE   N05  Gn4
 BYTE   W06
 BYTE   Cn4
 BYTE   N05  Cn5
 BYTE   W06
 BYTE   Gn3
 BYTE   N05  Gn4
 BYTE   W06
 BYTE   Fn3
 BYTE   N05  Fn4
 BYTE   W06
 BYTE   Cn3
 BYTE   N05  Cn4
 BYTE   W06
 BYTE   Gn3
 BYTE   N05  Gn4
 BYTE   W06
 BYTE   Cn3
 BYTE   N05  Cn4
 BYTE   W06
 BYTE   Fn3
 BYTE   N05  Fn4
 BYTE   W06
 BYTE   Gn3
 BYTE   N05  Gn4
 BYTE   W06
// 013   ----------------------------------------
 BYTE   Cn4
 BYTE   N05  Cn5
 BYTE   W06
 BYTE   Gn3
 BYTE   N05  Gn4
 BYTE   W06
 BYTE   Fn3
 BYTE   N05  Fn4
 BYTE   W06
 BYTE   Cn3
 BYTE   N05  Cn4
 BYTE   W06
 BYTE   Gn3
 BYTE   N05  Gn4
 BYTE   W06
 BYTE   Cn3
 BYTE   N05  Cn4
 BYTE   W06
 BYTE   En3
 BYTE   N05  En4
 BYTE   W06
 BYTE   Gn3
 BYTE   N05  Gn4
 BYTE   W06
 BYTE   Cn4
 BYTE   N05  Cn5
 BYTE   W06
 BYTE   Gn3
 BYTE   N05  Gn4
 BYTE   W06
 BYTE   En3
 BYTE   N05  En4
 BYTE   W06
 BYTE   Cn3
 BYTE   N05  Cn4
 BYTE   W06
 BYTE   Gn3
 BYTE   N05  Gn4
 BYTE   W06
 BYTE   Cn3
 BYTE   N05  Cn4
 BYTE   W06
 BYTE   En3
 BYTE   N05  En4
 BYTE   W06
 BYTE   Gn3
 BYTE   N05  Gn4
 BYTE   W06
// 014   ----------------------------------------
 BYTE   Cn4
 BYTE   N05  Cn5
 BYTE   W06
 BYTE   Gn3
 BYTE   N05  Gn4
 BYTE   W06
 BYTE   En3
 BYTE   N05  En4
 BYTE   W06
 BYTE   Cn3
 BYTE   N05  Cn4
 BYTE   W06
 BYTE   N92  Cn3
 BYTE   N92  Fn3
 BYTE   W72
// 015   ----------------------------------------
 BYTE   W24
 BYTE   N05
 BYTE   W06
 BYTE   Fs3
 BYTE   W06
 BYTE   Fn3
 BYTE   W06
 BYTE   Fs3
 BYTE   W06
 BYTE   Fn3
 BYTE   W06
 BYTE   Fs3
 BYTE   W06
 BYTE   Fn3
 BYTE   W06
 BYTE   Fs3
 BYTE   W06
 BYTE   Fn3
 BYTE   W06
 BYTE   Fs3
 BYTE   W06
 BYTE   Fn3
 BYTE   W06
 BYTE   Fs3
 BYTE   W06
// 016   ----------------------------------------
 BYTE   Fn3
 BYTE   W06
 BYTE   Fs3
 BYTE   W06
 BYTE   Fn3
 BYTE   W06
 BYTE   Fs3
 BYTE   W06
 BYTE   N32  Fn3
 BYTE   N32  Fn4
 BYTE   W36
 BYTE   N05  Fs3
 BYTE   N05  Fs4
 BYTE   W06
 BYTE   Gn3
 BYTE   N05  Gn4
 BYTE   W06
 BYTE   N32  Gs3
 BYTE   N32  Gs4
 BYTE   W24
// 017   ----------------------------------------
 BYTE   W12
 BYTE   N05  Fn3
 BYTE   N05  As3
 BYTE   N05  Gn4
 BYTE   W06
 BYTE   Fs3
 BYTE   N05  Bn3
 BYTE   N05  Fs4
 BYTE   W06
 BYTE   N44  Gn3
 BYTE   N44  Cn4
 BYTE   W48
 BYTE   Gn3
 BYTE   N44  Bn3
 BYTE   W24
// 018   ----------------------------------------
 BYTE   W24
 BYTE   N92  Gn3
 BYTE   N92  Cn4
 BYTE   W72
// 019   ----------------------------------------
 BYTE   W24
 BYTE   Gn2
 BYTE   N92  Cn3
 BYTE   W72
// 020   ----------------------------------------
 BYTE   W24
 BYTE   GoTo
  POIN2 Label_4_01156D3D
 BYTE   FINE

//**************** Track 6 (Midi-Chn.5) ****************//

WeCanHandleEm_006:
// 000   ----------------------------------------
 BYTE   KEYSH   WeCanHandleEm_key+0
 BYTE   VOICE   124
 BYTE   VOL   47*WeCanHandleEm_mvl/mxv
 BYTE   PAN   c_v+0
 BYTE   W24
Label_5_01152BAD:
 BYTE   N11  Cs2  v080
 BYTE   W12
 BYTE   As1
 BYTE   W24
 BYTE   N11
 BYTE   W24
 BYTE   N11
 BYTE   W12
// 001   ----------------------------------------
Label_5_01152BB7:
 BYTE   W12
 BYTE   N11  As1  v080
 BYTE   W24
 BYTE   N11
 BYTE   W24
 BYTE   N11
 BYTE   W24
 BYTE   N03  Dn1
 BYTE   W04
 BYTE   N03
 BYTE   W04
 BYTE   N03
 BYTE   W04
 BYTE   PEND 
// 002   ----------------------------------------
Label_5_01152BC8:
 BYTE   W12
 BYTE   N11  As1  v080
 BYTE   W24
 BYTE   N11
 BYTE   W24
 BYTE   N11
 BYTE   W24
 BYTE   N11
 BYTE   W12
 BYTE   PEND 
// 003   ----------------------------------------
Label_5_01152BD4:
 BYTE   W12
 BYTE   N11  As1  v080
 BYTE   W24
 BYTE   Fn1
 BYTE   W12
 BYTE   N03  Dn1
 BYTE   W04
 BYTE   N03
 BYTE   W04
 BYTE   En1
 BYTE   W04
 BYTE   N11  As1
 BYTE   W12
 BYTE   Fn1
 BYTE   W12
 BYTE   N11
 BYTE   W12
 BYTE   PEND 
// 004   ----------------------------------------
Label_5_01152BEA:
 BYTE   N11  An1  v080
 BYTE   W12
 BYTE   Fn1
 BYTE   W12
 BYTE   Cs2
 BYTE   W12
 BYTE   As1
 BYTE   W24
 BYTE   N11
 BYTE   W24
 BYTE   N11
 BYTE   W12
 BYTE   PEND 
 BYTE   PATT
  POIN2 Label_5_01152BB7
 BYTE   PATT
  POIN2 Label_5_01152BC8
 BYTE   PATT
  POIN2 Label_5_01152BD4
 BYTE   PATT
  POIN2 Label_5_01152BEA
 BYTE   PATT
  POIN2 Label_5_01152BB7
 BYTE   PATT
  POIN2 Label_5_01152BC8
 BYTE   PATT
  POIN2 Label_5_01152BD4
 BYTE   PATT
  POIN2 Label_5_01152BEA
 BYTE   PATT
  POIN2 Label_5_01152BB7
 BYTE   PATT
  POIN2 Label_5_01152BC8
 BYTE   PATT
  POIN2 Label_5_01152BD4
 BYTE   PATT
  POIN2 Label_5_01152BEA
 BYTE   PATT
  POIN2 Label_5_01152BB7
// 005   ----------------------------------------
 BYTE   W12
 BYTE   N11  As1  v080
 BYTE   W12
 BYTE   Cs2
 BYTE   W12
 BYTE   As1
 BYTE   W24
 BYTE   N11
 BYTE   W24
 BYTE   N11
 BYTE   W12
// 006   ----------------------------------------
 BYTE   W12
 BYTE   N11
 BYTE   W12
 BYTE   Cs2
 BYTE   W12
 BYTE   Fn1
 BYTE   W12
 BYTE   N03  Dn1
 BYTE   W04
 BYTE   N03
 BYTE   W04
 BYTE   En1
 BYTE   W04
 BYTE   N11  As1
 BYTE   W12
 BYTE   Cs2
 BYTE   W12
 BYTE   Fn1
 BYTE   W12
 BYTE   PATT
  POIN2 Label_5_01152BEA
 BYTE   PATT
  POIN2 Label_5_01152BB7
// 007   ----------------------------------------
 BYTE   W12
 BYTE   N11  As1  v080
 BYTE   W12
 BYTE   GoTo
  POIN2 Label_5_01152BAD
 BYTE   FINE

//******************************************************//
	ALIGN 4

songWeCanHandleEm:
	BYTE	6	// NumTrks
	BYTE	0	// NumBlks
	BYTE	WeCanHandleEm_pri	// Priority
	BYTE	WeCanHandleEm_rev	// Reverb.
    
	POIN2	WeCanHandleEm_grp
    
	POIN2	WeCanHandleEm_001
	POIN2	WeCanHandleEm_002
	POIN2	WeCanHandleEm_003
	POIN2	WeCanHandleEm_004
	POIN2	WeCanHandleEm_005
	POIN2	WeCanHandleEm_006

	
