//Event file generated from Sappy .s format.
	#include "MPlayDef.event"

	#define	songWeStand_grp  voicegroup000
	#define	songWeStand_pri  0
	#define	songWeStand_rev  0
	#define	songWeStand_mvl  150
	#define	songWeStand_key  0
	#define	songWeStand_tbs  1
	#define	songWeStand_exg  0
	#define	songWeStand_cmp  1

	// .rodata
	//	songWeStand
	ALIGN 4


//**************** Track 1 (Midi-Chn.0) ****************//

songWeStand_001:
// 000   ----------------------------------------
 BYTE   VOL   80*songWeStand_mvl/mxv
 BYTE   KEYSH   songWeStand_key+0
Label_0_01449708:
 BYTE   TEMPO   144*songWeStand_tbs/2
 BYTE   VOICE   61
 BYTE   N24  An3  v064
 BYTE   W24
 BYTE   N12  Gn3
 BYTE   W12
 BYTE   Fn3
 BYTE   W12
 BYTE   N48  En3
 BYTE   W48
// 001   ----------------------------------------
 BYTE   N96  Dn3
 BYTE   W96
// 002   ----------------------------------------
 BYTE   Bn2
 BYTE   W96
// 003   ----------------------------------------
 BYTE   N72  Cn3
 BYTE   W96
// 004   ----------------------------------------
 BYTE   N24  An3
 BYTE   W24
 BYTE   N12  Gn3
 BYTE   W12
 BYTE   Fn3
 BYTE   W12
 BYTE   N48  Dn4
 BYTE   W48
// 005   ----------------------------------------
 BYTE   N96  Cn4
 BYTE   W96
// 006   ----------------------------------------
 BYTE   N24  Bn3
 BYTE   W24
 BYTE   N12  An3
 BYTE   W12
 BYTE   Gn3
 BYTE   W12
 BYTE   N30  En3
 BYTE   W48
// 007   ----------------------------------------
 BYTE   N12  Bn3
 BYTE   W12
 BYTE   An3
 BYTE   W12
 BYTE   N24  Fn3
 BYTE   W24
 BYTE   N12  Cn4
 BYTE   W12
 BYTE   Bn3
 BYTE   W12
 BYTE   N24  An3
 BYTE   W24
// 008   ----------------------------------------
 BYTE   N12  Gn3
 BYTE   W12
 BYTE   Dn3
 BYTE   W12
 BYTE   Bn2
 BYTE   W12
 BYTE   Cn3
 BYTE   W12
 BYTE   Bn3
 BYTE   W12
 BYTE   Cn4
 BYTE   W12
 BYTE   En4
 BYTE   W12
 BYTE   Fn4
 BYTE   W12
// 009   ----------------------------------------
 BYTE   N24  Dn4
 BYTE   W24
 BYTE   N12  Cn4
 BYTE   W12
 BYTE   Bn3
 BYTE   W12
 BYTE   N96  An3
 BYTE   W48
// 010   ----------------------------------------
 BYTE   W96
// 011   ----------------------------------------
 BYTE   Dn4
 BYTE   W96
// 012   ----------------------------------------
 BYTE   N48  En4
 BYTE   W48
 BYTE   Fn4
 BYTE   W48
// 013   ----------------------------------------
 BYTE   N24  En4
 BYTE   W24
 BYTE   N12  Dn4
 BYTE   W12
 BYTE   Cn4
 BYTE   W12
 BYTE   N48  Bn3
 BYTE   W48
// 014   ----------------------------------------
 BYTE   GoTo
  POIN2 Label_0_01449708
 BYTE   FINE

//**************** Track 2 (Midi-Chn.1) ****************//

songWeStand_002:
// 000   ----------------------------------------
 BYTE   VOL   80*songWeStand_mvl/mxv
 BYTE   KEYSH   songWeStand_key+0
Label_1_014497D0:
 BYTE   VOICE   36
 BYTE   N12  An1  v064
 BYTE   W24
 BYTE   N12
 BYTE   W12
 BYTE   N06  Gn1
 BYTE   W12
 BYTE   N12  An1
 BYTE   W24
 BYTE   N12
 BYTE   W12
 BYTE   N06  Gn1
 BYTE   W12
// 001   ----------------------------------------
Label_1_014497E3:
 BYTE   N12  An1  v064
 BYTE   W24
 BYTE   N12
 BYTE   W12
 BYTE   N06  Gn1
 BYTE   W12
 BYTE   N12  An1
 BYTE   W24
 BYTE   N12
 BYTE   W12
 BYTE   N06  Gn1
 BYTE   W12
 BYTE   PEND 
// 002   ----------------------------------------
Label_1_014497F5:
 BYTE   N12  Bn1  v064
 BYTE   W24
 BYTE   N12
 BYTE   W12
 BYTE   N06  An1
 BYTE   W12
 BYTE   N12  Bn1
 BYTE   W24
 BYTE   N12
 BYTE   W12
 BYTE   N06  An1
 BYTE   W12
 BYTE   PEND 
// 003   ----------------------------------------
 BYTE   N12  Cn2
 BYTE   W24
 BYTE   N12
 BYTE   W12
 BYTE   N06  Bn1
 BYTE   W12
 BYTE   N12  Cn2
 BYTE   W12
 BYTE   Bn2
 BYTE   W12
 BYTE   Gn2
 BYTE   W12
 BYTE   En2
 BYTE   W12
 BYTE   PATT
  POIN2 Label_1_014497E3
 BYTE   PATT
  POIN2 Label_1_014497E3
 BYTE   PATT
  POIN2 Label_1_014497E3
 BYTE   PATT
  POIN2 Label_1_014497E3
 BYTE   PATT
  POIN2 Label_1_014497F5
 BYTE   PATT
  POIN2 Label_1_014497E3
 BYTE   PATT
  POIN2 Label_1_014497E3
// 004   ----------------------------------------
 BYTE   N12  Dn2  v064
 BYTE   W24
 BYTE   N12
 BYTE   W12
 BYTE   N06  Cn2
 BYTE   W12
 BYTE   N12  Dn2
 BYTE   W24
 BYTE   N12
 BYTE   W12
 BYTE   N06  Cn2
 BYTE   W12
 BYTE   PATT
  POIN2 Label_1_014497F5
 BYTE   PATT
  POIN2 Label_1_014497E3
// 005   ----------------------------------------
 BYTE   GoTo
  POIN2 Label_1_014497D0
 BYTE   FINE

//**************** Track 3 (Midi-Chn.2) ****************//

songWeStand_003:
// 000   ----------------------------------------
 BYTE   VOL   80*songWeStand_mvl/mxv
 BYTE   KEYSH   songWeStand_key+0
Label_2_01449860:
 BYTE   VOICE   86
 BYTE   N96  An1  v032
 BYTE   N96  Dn2
 BYTE   N96  En2
 BYTE   W96
// 001   ----------------------------------------
 BYTE   An1
 BYTE   N96  Dn2
 BYTE   N96  Gn2
 BYTE   W96
// 002   ----------------------------------------
Label_2_01449870:
 BYTE   N96  Bn1  v032
 BYTE   N96  En2
 BYTE   N96  Gn2
 BYTE   W96
 BYTE   PEND 
// 003   ----------------------------------------
 BYTE   Cn2
 BYTE   N96  En2
 BYTE   N96  An2
 BYTE   W96
// 004   ----------------------------------------
Label_2_0144987F:
 BYTE   N96  An1  v032
 BYTE   N96  Dn2
 BYTE   N96  En2
 BYTE   W96
 BYTE   PEND 
// 005   ----------------------------------------
Label_2_01449888:
 BYTE   N96  An1  v032
 BYTE   N96  Cn2
 BYTE   N96  Fn2
 BYTE   W96
 BYTE   PEND 
 BYTE   PATT
  POIN2 Label_2_0144987F
 BYTE   PATT
  POIN2 Label_2_01449888
// 006   ----------------------------------------
 BYTE   N96  Bn1  v032
 BYTE   N96  Dn2
 BYTE   N96  Gn2
 BYTE   W96
// 007   ----------------------------------------
Label_2_014498A3:
 BYTE   N96  An1  v032
 BYTE   N96  Cn2
 BYTE   N96  En2
 BYTE   W96
 BYTE   PEND 
 BYTE   PATT
  POIN2 Label_2_0144987F
// 008   ----------------------------------------
 BYTE   N96  Dn2  v032
 BYTE   N96  Fn2
 BYTE   N96  An2
 BYTE   W96
 BYTE   PATT
  POIN2 Label_2_01449870
 BYTE   PATT
  POIN2 Label_2_014498A3
// 009   ----------------------------------------
 BYTE   GoTo
  POIN2 Label_2_01449860
 BYTE   FINE

//**************** Track 4 (Midi-Chn.3) ****************//

songWeStand_004:
// 000   ----------------------------------------
 BYTE   VOL   80*songWeStand_mvl/mxv
 BYTE   KEYSH   songWeStand_key+0
Label_3_014491D4:
 BYTE   VOICE   124
 BYTE   N24  Dn1  v064
 BYTE   N12  Gs1
 BYTE   W24
 BYTE   N24  En1
 BYTE   N12  Gs1
 BYTE   W24
 BYTE   N12
 BYTE   W24
 BYTE   N12
 BYTE   W24
// 001   ----------------------------------------
Label_3_014491E5:
 BYTE   N24  Dn1  v064
 BYTE   N12  Gs1
 BYTE   W24
 BYTE   N24  En1
 BYTE   N12  Gs1
 BYTE   W24
 BYTE   N12
 BYTE   W24
 BYTE   N12
 BYTE   W24
 BYTE   PEND 
 BYTE   PATT
  POIN2 Label_3_014491E5
// 002   ----------------------------------------
Label_3_014491FA:
 BYTE   N24  Dn1  v064
 BYTE   N12  Gs1
 BYTE   W24
 BYTE   N24  En1
 BYTE   N12  Gs1
 BYTE   W24
 BYTE   An1
 BYTE   N12  Bn1
 BYTE   W12
 BYTE   Gn1
 BYTE   N12  An1
 BYTE   W24
 BYTE   En1
 BYTE   N12  Fn1
 BYTE   W12
 BYTE   PEND 
// 003   ----------------------------------------
 BYTE   N24  Dn1
 BYTE   N12  Gs1
 BYTE   N12  Cs2
 BYTE   W24
 BYTE   N24  En1
 BYTE   N12  Gs1
 BYTE   W24
 BYTE   Dn1
 BYTE   N12  Gs1
 BYTE   W12
 BYTE   Dn1
 BYTE   W12
 BYTE   N24  En1
 BYTE   N12  Gs1
 BYTE   W24
// 004   ----------------------------------------
Label_3_01449229:
 BYTE   N24  Dn1  v064
 BYTE   N12  Gs1
 BYTE   W24
 BYTE   N24  En1
 BYTE   N12  Gs1
 BYTE   W24
 BYTE   Dn1
 BYTE   N12  Gs1
 BYTE   W12
 BYTE   Dn1
 BYTE   W12
 BYTE   N24  En1
 BYTE   N12  Gs1
 BYTE   W24
 BYTE   PEND 
 BYTE   PATT
  POIN2 Label_3_01449229
 BYTE   PATT
  POIN2 Label_3_01449229
 BYTE   PATT
  POIN2 Label_3_01449229
 BYTE   PATT
  POIN2 Label_3_01449229
 BYTE   PATT
  POIN2 Label_3_014491FA
 BYTE   PATT
  POIN2 Label_3_01449229
 BYTE   PATT
  POIN2 Label_3_01449229
 BYTE   PATT
  POIN2 Label_3_014491FA
// 005   ----------------------------------------
 BYTE   GoTo
  POIN2 Label_3_014491D4
 BYTE   FINE

//******************************************************//
	ALIGN 4

songWeStand:
	BYTE	4	// NumTrks
	BYTE	0	// NumBlks
	BYTE	songWeStand_pri	// Priority
	BYTE	songWeStand_rev	// Reverb.
    
	POIN2	songWeStand_grp
    
	POIN2	songWeStand_001
	POIN2	songWeStand_002
	POIN2	songWeStand_003
	POIN2	songWeStand_004

	
