//Event file generated from Sappy .s format.
	#include "MPlayDef.event"

	#define	songWeWillEndure_grp  voicegroup000
	#define	songWeWillEndure_pri  0
	#define	songWeWillEndure_rev  0
	#define	songWeWillEndure_mvl  127
	#define	songWeWillEndure_key  0
	#define	songWeWillEndure_tbs  1
	#define	songWeWillEndure_exg  0
	#define	songWeWillEndure_cmp  1

	// .rodata
	//	songWeWillEndure
	ALIGN 4


//**************** Track 1 (Midi-Chn.0) ****************//

songWeWillEndure_001:
// 000   ----------------------------------------
 BYTE   VOL   80*songWeWillEndure_mvl/mxv
 BYTE   KEYSH   songWeWillEndure_key+0
Label_0_01208B2C:
 BYTE   TEMPO   90*songWeWillEndure_tbs/2
 BYTE   VOICE   61
 BYTE   N24  Bn2  v064
 BYTE   W24
 BYTE   N12  Cn3
 BYTE   W12
 BYTE   N48  Fs2
 BYTE   W60
// 001   ----------------------------------------
 BYTE   N72  Dn3
 BYTE   W96
// 002   ----------------------------------------
 BYTE   N48  Cn3
 BYTE   W48
 BYTE   N24  Bn2
 BYTE   W24
 BYTE   An2
 BYTE   W24
// 003   ----------------------------------------
 BYTE   N48  Fs2
 BYTE   W48
 BYTE   En3
 BYTE   W48
// 004   ----------------------------------------
 BYTE   N96  Gn3
 BYTE   W96
// 005   ----------------------------------------
 BYTE   N24  Bn3
 BYTE   W24
 BYTE   N72  Cn4
 BYTE   W72
// 006   ----------------------------------------
 BYTE   N96  Dn3
 BYTE   W96
// 007   ----------------------------------------
 BYTE   GoTo
  POIN2 Label_0_01208B2C
 BYTE   FINE

//**************** Track 2 (Midi-Chn.1) ****************//

songWeWillEndure_002:
// 000   ----------------------------------------
 BYTE   VOL   80*songWeWillEndure_mvl/mxv
 BYTE   KEYSH   songWeWillEndure_key+0
Label_1_01206F5C:
 BYTE   VOICE   36
 BYTE   N12  Bn2  v064
 BYTE   W12
 BYTE   N12
 BYTE   W12
 BYTE   An2
 BYTE   W12
 BYTE   N06  Bn2
 BYTE   W06
 BYTE   Cn3
 BYTE   W12
 BYTE   N06
 BYTE   W12
 BYTE   N06
 BYTE   W06
 BYTE   N12  Bn2
 BYTE   W12
 BYTE   N06  An2
 BYTE   W06
 BYTE   Bn2
 BYTE   W06
// 001   ----------------------------------------
Label_1_01206F77:
 BYTE   N12  Cn3  v064
 BYTE   W12
 BYTE   N12
 BYTE   W12
 BYTE   Bn2
 BYTE   W12
 BYTE   N06  Cn3
 BYTE   W06
 BYTE   Dn3
 BYTE   W12
 BYTE   N06
 BYTE   W12
 BYTE   N06
 BYTE   W06
 BYTE   N12  Cn3
 BYTE   W12
 BYTE   N06  Bn2
 BYTE   W06
 BYTE   Cn3
 BYTE   W06
 BYTE   PEND 
 BYTE   PATT
  POIN2 Label_1_01206F77
// 002   ----------------------------------------
 BYTE   N12  Bn2  v064
 BYTE   W12
 BYTE   N12
 BYTE   W12
 BYTE   An2
 BYTE   W12
 BYTE   N06  Bn2
 BYTE   W06
 BYTE   Cn3
 BYTE   W12
 BYTE   N06
 BYTE   W12
 BYTE   N06
 BYTE   W06
 BYTE   N12  Bn2
 BYTE   W12
 BYTE   N06  An2
 BYTE   W06
 BYTE   Bn2
 BYTE   W06
 BYTE   PATT
  POIN2 Label_1_01206F77
 BYTE   PATT
  POIN2 Label_1_01206F77
// 003   ----------------------------------------
 BYTE   N12  Dn3  v064
 BYTE   W12
 BYTE   N12
 BYTE   W12
 BYTE   Cn3
 BYTE   W12
 BYTE   N06  Dn3
 BYTE   W06
 BYTE   En3
 BYTE   W12
 BYTE   N06
 BYTE   W12
 BYTE   N06
 BYTE   W06
 BYTE   N12  Dn3
 BYTE   W12
 BYTE   N06  Cn3
 BYTE   W06
 BYTE   Dn3
 BYTE   W06
// 004   ----------------------------------------
 BYTE   GoTo
  POIN2 Label_1_01206F5C
 BYTE   FINE

//**************** Track 3 (Midi-Chn.2) ****************//

songWeWillEndure_003:
// 000   ----------------------------------------
 BYTE   VOL   80*songWeWillEndure_mvl/mxv
 BYTE   KEYSH   songWeWillEndure_key+0
Label_2_01207244:
 BYTE   VOICE   66
 BYTE   N96  Bn1  v032
 BYTE   N96  En2
 BYTE   N96  Fs2
 BYTE   W96
// 001   ----------------------------------------
Label_2_0120724E:
 BYTE   N96  Cn2  v032
 BYTE   N96  Dn2
 BYTE   N96  Gn2
 BYTE   W96
 BYTE   PEND 
// 002   ----------------------------------------
Label_2_01207257:
 BYTE   N96  Cn2  v032
 BYTE   N96  En2
 BYTE   N96  An2
 BYTE   W96
 BYTE   PEND 
// 003   ----------------------------------------
 BYTE   Bn1
 BYTE   N96  En2
 BYTE   N96  Fs2
 BYTE   W96
 BYTE   PATT
  POIN2 Label_2_0120724E
 BYTE   PATT
  POIN2 Label_2_01207257
// 004   ----------------------------------------
 BYTE   N96  Dn2  v032
 BYTE   N96  Fs2
 BYTE   N96  Bn2
 BYTE   W96
// 005   ----------------------------------------
 BYTE   GoTo
  POIN2 Label_2_01207244
 BYTE   FINE

//**************** Track 4 (Midi-Chn.3) ****************//

songWeWillEndure_004:
// 000   ----------------------------------------
 BYTE   VOL   80*songWeWillEndure_mvl/mxv
 BYTE   KEYSH   songWeWillEndure_key+0
Label_3_0120829C:
 BYTE   VOICE   124
 BYTE   N06  Dn1  v040
 BYTE   N06  Fs1  v064
 BYTE   W06
 BYTE   Dn1  v052
 BYTE   W06
 BYTE   N12  Dn1  v064
 BYTE   N06  Fs1
 BYTE   W12
 BYTE   N24  En1
 BYTE   N06  Fs1
 BYTE   W12
 BYTE   N06
 BYTE   W12
 BYTE   N24  Dn1
 BYTE   N06  Fs1
 BYTE   W12
 BYTE   N06
 BYTE   W12
 BYTE   N24  En1
 BYTE   N06  Fs1
 BYTE   W12
 BYTE   N06
 BYTE   W12
// 001   ----------------------------------------
Label_3_012082C3:
 BYTE   N06  Dn1  v040
 BYTE   N06  Fs1  v064
 BYTE   W06
 BYTE   Dn1  v052
 BYTE   W06
 BYTE   N12  Dn1  v064
 BYTE   N06  Fs1
 BYTE   W12
 BYTE   N24  En1
 BYTE   N06  Fs1
 BYTE   W12
 BYTE   N06
 BYTE   W12
 BYTE   N24  Dn1
 BYTE   N06  Fs1
 BYTE   W12
 BYTE   N06
 BYTE   W12
 BYTE   N24  En1
 BYTE   N06  Fs1
 BYTE   W12
 BYTE   N06
 BYTE   W12
 BYTE   PEND 
// 002   ----------------------------------------
Label_3_012082E9:
 BYTE   N06  Dn1  v040
 BYTE   N06  Fs1  v064
 BYTE   W06
 BYTE   Dn1  v052
 BYTE   W06
 BYTE   N12  Dn1  v064
 BYTE   N06  Fs1
 BYTE   W12
 BYTE   N24  En1
 BYTE   N06  Fs1
 BYTE   W12
 BYTE   N06
 BYTE   W12
 BYTE   N24  Dn1
 BYTE   N06  Fs1
 BYTE   W12
 BYTE   N06
 BYTE   W12
 BYTE   Dn1
 BYTE   N06  Fs1
 BYTE   W06
 BYTE   En1
 BYTE   W06
 BYTE   Dn1
 BYTE   N06  Fs1
 BYTE   W06
 BYTE   En1
 BYTE   W06
 BYTE   PEND 
 BYTE   PATT
  POIN2 Label_3_012082C3
 BYTE   PATT
  POIN2 Label_3_012082C3
 BYTE   PATT
  POIN2 Label_3_012082E9
// 003   ----------------------------------------
 BYTE   N24  En1  v064
 BYTE   N06  Fs1
 BYTE   W06
 BYTE   N06
 BYTE   W06
 BYTE   N06
 BYTE   W06
 BYTE   N06
 BYTE   W06
 BYTE   N24  En1
 BYTE   N06  Fs1
 BYTE   W06
 BYTE   N06
 BYTE   W06
 BYTE   N06
 BYTE   W06
 BYTE   N06
 BYTE   W06
 BYTE   N24  En1
 BYTE   N06  Fs1
 BYTE   W06
 BYTE   N06
 BYTE   W06
 BYTE   N06
 BYTE   W06
 BYTE   N06
 BYTE   W06
 BYTE   N12  En1
 BYTE   N06  Fs1
 BYTE   W06
 BYTE   N06
 BYTE   W06
 BYTE   En1
 BYTE   N06  Fs1
 BYTE   W06
 BYTE   En1
 BYTE   N06  Fs1
 BYTE   W06
// 004   ----------------------------------------
 BYTE   GoTo
  POIN2 Label_3_0120829C
 BYTE   FINE

//******************************************************//
	ALIGN 4

songWeWillEndure:
	BYTE	4	// NumTrks
	BYTE	0	// NumBlks
	BYTE	songWeWillEndure_pri	// Priority
	BYTE	songWeWillEndure_rev	// Reverb.
    
	POIN2	songWeWillEndure_grp
    
	POIN2	songWeWillEndure_001
	POIN2	songWeWillEndure_002
	POIN2	songWeWillEndure_003
	POIN2	songWeWillEndure_004

	
