//Event file generated from Sappy .s format.
	#include "MPlayDef.event"

	#define	songWeWillHoldTheLine_grp  voicegroup000
	#define	songWeWillHoldTheLine_pri  0
	#define	songWeWillHoldTheLine_rev  0
	#define	songWeWillHoldTheLine_mvl  127
	#define	songWeWillHoldTheLine_key  0
	#define	songWeWillHoldTheLine_tbs  1
	#define	songWeWillHoldTheLine_exg  0
	#define	songWeWillHoldTheLine_cmp  1

	// .rodata
	//	songWeWillHoldTheLine
	ALIGN 4


//**************** Track 1 (Midi-Chn.0) ****************//

songWeWillHoldTheLine_001:
// 000   ----------------------------------------
 BYTE   VOL   64*songWeWillHoldTheLine_mvl/mxv
 BYTE   KEYSH   songWeWillHoldTheLine_key+0
Label_0_0148EEF4:
 BYTE   TEMPO   168*songWeWillHoldTheLine_tbs/2
 BYTE   VOICE   61
 BYTE   N24  En2  v064
 BYTE   W24
 BYTE   N48  Fn2
 BYTE   W48
 BYTE   N12  Gn2
 BYTE   W24
// 001   ----------------------------------------
 BYTE   N72  Cn3
 BYTE   W96
// 002   ----------------------------------------
 BYTE   N24  En3
 BYTE   W24
 BYTE   N72  Fn3
 BYTE   W72
// 003   ----------------------------------------
 BYTE   N96  Bn2
 BYTE   W96
// 004   ----------------------------------------
 BYTE   N24  Dn3
 BYTE   W24
 BYTE   N72  Cn3
 BYTE   W72
// 005   ----------------------------------------
 BYTE   N24  Dn3
 BYTE   W24
 BYTE   En3
 BYTE   W24
 BYTE   N36  Fn3
 BYTE   W48
// 006   ----------------------------------------
 BYTE   N12  En2
 BYTE   W12
 BYTE   Fn2
 BYTE   W12
 BYTE   Bn2
 BYTE   W12
 BYTE   Cn3
 BYTE   W12
 BYTE   En2
 BYTE   W12
 BYTE   Fn2
 BYTE   W12
 BYTE   Bn2
 BYTE   W12
 BYTE   Cn3
 BYTE   W12
// 007   ----------------------------------------
 BYTE   Gn2
 BYTE   W12
 BYTE   An2
 BYTE   W12
 BYTE   Cn3
 BYTE   W12
 BYTE   Dn3
 BYTE   W12
 BYTE   Gn2
 BYTE   W12
 BYTE   An2
 BYTE   W12
 BYTE   Cn3
 BYTE   W12
 BYTE   Dn3
 BYTE   W12
// 008   ----------------------------------------
 BYTE   Fn2
 BYTE   W12
 BYTE   Gn2
 BYTE   W12
 BYTE   Dn3
 BYTE   W12
 BYTE   En3
 BYTE   W12
 BYTE   Fn2
 BYTE   W12
 BYTE   Gn2
 BYTE   W12
 BYTE   Dn3
 BYTE   W12
 BYTE   En3
 BYTE   W12
// 009   ----------------------------------------
 BYTE   N24  En2
 BYTE   W24
 BYTE   N48  Fn3
 BYTE   W72
// 010   ----------------------------------------
 BYTE   En3
 BYTE   W48
 BYTE   Gn2
 BYTE   W48
// 011   ----------------------------------------
 BYTE   N96  An2
 BYTE   W96
// 012   ----------------------------------------
 BYTE   GoTo
  POIN2 Label_0_0148EEF4
 BYTE   FINE

//**************** Track 2 (Midi-Chn.1) ****************//

songWeWillHoldTheLine_002:
// 000   ----------------------------------------
 BYTE   VOL   64*songWeWillHoldTheLine_mvl/mxv
 BYTE   KEYSH   songWeWillHoldTheLine_key+0
Label_1_0148EF64:
 BYTE   VOICE   39
 BYTE   N12  Bn0  v064
 BYTE   W12
 BYTE   N12
 BYTE   W12
 BYTE   N12
 BYTE   W24
 BYTE   N12
 BYTE   W24
 BYTE   N12
 BYTE   W24
// 001   ----------------------------------------
Label_1_0148EF72:
 BYTE   N12  Cn1  v064
 BYTE   W12
 BYTE   N12
 BYTE   W12
 BYTE   N12
 BYTE   W24
 BYTE   N12
 BYTE   W24
 BYTE   N12
 BYTE   W24
 BYTE   PEND 
// 002   ----------------------------------------
Label_1_0148EF7F:
 BYTE   N12  Dn1  v064
 BYTE   W12
 BYTE   N12
 BYTE   W12
 BYTE   N12
 BYTE   W24
 BYTE   N12
 BYTE   W24
 BYTE   N12
 BYTE   W24
 BYTE   PEND 
// 003   ----------------------------------------
Label_1_0148EF8C:
 BYTE   N12  Bn0  v064
 BYTE   W12
 BYTE   N12
 BYTE   W12
 BYTE   N12
 BYTE   W24
 BYTE   N12
 BYTE   W24
 BYTE   N12
 BYTE   W24
 BYTE   PEND 
 BYTE   PATT
  POIN2 Label_1_0148EF72
 BYTE   PATT
  POIN2 Label_1_0148EF7F
 BYTE   PATT
  POIN2 Label_1_0148EF8C
 BYTE   PATT
  POIN2 Label_1_0148EF72
 BYTE   PATT
  POIN2 Label_1_0148EF7F
 BYTE   PATT
  POIN2 Label_1_0148EF8C
 BYTE   PATT
  POIN2 Label_1_0148EF72
 BYTE   PATT
  POIN2 Label_1_0148EF7F
// 004   ----------------------------------------
 BYTE   GoTo
  POIN2 Label_1_0148EF64
 BYTE   FINE

//**************** Track 3 (Midi-Chn.2) ****************//

songWeWillHoldTheLine_003:
// 000   ----------------------------------------
 BYTE   VOL   64*songWeWillHoldTheLine_mvl/mxv
 BYTE   KEYSH   songWeWillHoldTheLine_key+0
Label_2_0148EFCC:
 BYTE   VOICE   30
 BYTE   N24  Bn0  v048
 BYTE   N24  En1
 BYTE   N24  Gn1
 BYTE   W24
 BYTE   Bn0
 BYTE   N24  En1
 BYTE   N24  Gn1
 BYTE   W24
 BYTE   Bn0
 BYTE   N24  En1
 BYTE   N24  Gn1
 BYTE   W24
 BYTE   Bn0
 BYTE   N24  En1
 BYTE   N24  Gn1
 BYTE   W24
// 001   ----------------------------------------
Label_2_0148EFE8:
 BYTE   N24  Cn1  v048
 BYTE   N24  En1
 BYTE   N24  Gn1
 BYTE   W24
 BYTE   Cn1
 BYTE   N24  En1
 BYTE   N24  Gn1
 BYTE   W24
 BYTE   Cn1
 BYTE   N24  En1
 BYTE   N24  Gn1
 BYTE   W24
 BYTE   Cn1
 BYTE   N24  En1
 BYTE   N24  Gn1
 BYTE   W24
 BYTE   PEND 
// 002   ----------------------------------------
Label_2_0148F003:
 BYTE   N24  Dn1  v048
 BYTE   N24  Fn1
 BYTE   N24  An1
 BYTE   W24
 BYTE   Dn1
 BYTE   N24  Fn1
 BYTE   N24  An1
 BYTE   W24
 BYTE   Dn1
 BYTE   N24  Fn1
 BYTE   N24  An1
 BYTE   W24
 BYTE   Dn1
 BYTE   N24  Fn1
 BYTE   N24  An1
 BYTE   W24
 BYTE   PEND 
// 003   ----------------------------------------
Label_2_0148F01E:
 BYTE   N24  En1  v048
 BYTE   N24  Gn1
 BYTE   N24  Bn1
 BYTE   W24
 BYTE   En1
 BYTE   N24  Gn1
 BYTE   N24  Bn1
 BYTE   W24
 BYTE   En1
 BYTE   N24  Gn1
 BYTE   N24  Bn1
 BYTE   W24
 BYTE   En1
 BYTE   N24  Gn1
 BYTE   N24  Bn1
 BYTE   W24
 BYTE   PEND 
// 004   ----------------------------------------
Label_2_0148F039:
 BYTE   N24  En1  v048
 BYTE   N24  Gn1
 BYTE   N24  Cn2
 BYTE   W24
 BYTE   En1
 BYTE   N24  Gn1
 BYTE   N24  Cn2
 BYTE   W24
 BYTE   En1
 BYTE   N24  Gn1
 BYTE   N24  Cn2
 BYTE   W24
 BYTE   En1
 BYTE   N24  Gn1
 BYTE   N24  Cn2
 BYTE   W24
 BYTE   PEND 
// 005   ----------------------------------------
Label_2_0148F054:
 BYTE   N24  Fn1  v048
 BYTE   N24  An1
 BYTE   N24  Dn2
 BYTE   W24
 BYTE   Fn1
 BYTE   N24  An1
 BYTE   N24  Dn2
 BYTE   W24
 BYTE   Fn1
 BYTE   N24  An1
 BYTE   N24  Dn2
 BYTE   W24
 BYTE   Fn1
 BYTE   N24  An1
 BYTE   N24  Dn2
 BYTE   W24
 BYTE   PEND 
// 006   ----------------------------------------
 BYTE   Bn0
 BYTE   N24  En1
 BYTE   N24  Gn1
 BYTE   W24
 BYTE   Bn0
 BYTE   N24  En1
 BYTE   N24  Gn1
 BYTE   W24
 BYTE   Bn0
 BYTE   N24  En1
 BYTE   N24  Gn1
 BYTE   W24
 BYTE   Bn0
 BYTE   N24  En1
 BYTE   N24  Gn1
 BYTE   W24
 BYTE   PATT
  POIN2 Label_2_0148EFE8
 BYTE   PATT
  POIN2 Label_2_0148F003
 BYTE   PATT
  POIN2 Label_2_0148F01E
 BYTE   PATT
  POIN2 Label_2_0148F039
 BYTE   PATT
  POIN2 Label_2_0148F054
// 007   ----------------------------------------
 BYTE   GoTo
  POIN2 Label_2_0148EFCC
 BYTE   FINE

//**************** Track 4 (Midi-Chn.3) ****************//

songWeWillHoldTheLine_004:
// 000   ----------------------------------------
 BYTE   VOL   64*songWeWillHoldTheLine_mvl/mxv
 BYTE   KEYSH   songWeWillHoldTheLine_key+0
Label_3_0148F0AC:
 BYTE   VOICE   51
 BYTE   N96  Bn0  v048
 BYTE   N96  En1
 BYTE   N96  Gn1
 BYTE   W96
// 001   ----------------------------------------
Label_3_0148F0B6:
 BYTE   N96  Cn1  v048
 BYTE   N96  En1
 BYTE   N96  Gn1
 BYTE   W96
 BYTE   PEND 
// 002   ----------------------------------------
Label_3_0148F0BF:
 BYTE   N96  Dn1  v048
 BYTE   N96  Fn1
 BYTE   N96  An1
 BYTE   W96
 BYTE   PEND 
// 003   ----------------------------------------
Label_3_0148F0C8:
 BYTE   N96  En1  v048
 BYTE   N96  Gn1
 BYTE   N96  Bn1
 BYTE   W96
 BYTE   PEND 
// 004   ----------------------------------------
Label_3_0148F0D1:
 BYTE   N96  En1  v048
 BYTE   N96  Gn1
 BYTE   N96  Cn2
 BYTE   W96
 BYTE   PEND 
// 005   ----------------------------------------
Label_3_0148F0DA:
 BYTE   N96  Fn1  v048
 BYTE   N96  An1
 BYTE   N96  Dn2
 BYTE   W96
 BYTE   PEND 
// 006   ----------------------------------------
 BYTE   Bn0
 BYTE   N96  En1
 BYTE   N96  Gn1
 BYTE   W96
 BYTE   PATT
  POIN2 Label_3_0148F0B6
 BYTE   PATT
  POIN2 Label_3_0148F0BF
 BYTE   PATT
  POIN2 Label_3_0148F0C8
 BYTE   PATT
  POIN2 Label_3_0148F0D1
 BYTE   PATT
  POIN2 Label_3_0148F0DA
// 007   ----------------------------------------
 BYTE   GoTo
  POIN2 Label_3_0148F0AC
 BYTE   FINE

//**************** Track 5 (Midi-Chn.4) ****************//

songWeWillHoldTheLine_005:
// 000   ----------------------------------------
 BYTE   VOL   64*songWeWillHoldTheLine_mvl/mxv
 BYTE   KEYSH   songWeWillHoldTheLine_key+0
Label_4_0148F10C:
 BYTE   VOICE   124
 BYTE   N06  Dn1  v064
 BYTE   N24  En1
 BYTE   W06
 BYTE   N06  Dn1
 BYTE   W06
 BYTE   N06
 BYTE   W06
 BYTE   N06
 BYTE   W06
 BYTE   N12  Cs1
 BYTE   N24  En1
 BYTE   W12
 BYTE   N12  Dn1
 BYTE   W12
 BYTE   N24  Cs1
 BYTE   N24  En1
 BYTE   W24
 BYTE   N12  Dn1
 BYTE   N24  En1
 BYTE   W12
 BYTE   N12  Dn1
 BYTE   W12
// 001   ----------------------------------------
Label_4_0148F130:
 BYTE   N06  Cs1  v064
 BYTE   N24  En1
 BYTE   W06
 BYTE   N06  Cs1
 BYTE   W06
 BYTE   N06
 BYTE   W06
 BYTE   N06
 BYTE   W06
 BYTE   N12  Dn1
 BYTE   N24  En1
 BYTE   W12
 BYTE   N12  Cs1
 BYTE   W12
 BYTE   N24  Dn1
 BYTE   N24  En1
 BYTE   W24
 BYTE   N12  Cs1
 BYTE   N24  En1
 BYTE   W12
 BYTE   N12  Cs1
 BYTE   W12
 BYTE   PEND 
// 002   ----------------------------------------
Label_4_0148F153:
 BYTE   N06  Dn1  v064
 BYTE   N24  En1
 BYTE   W06
 BYTE   N06  Dn1
 BYTE   W06
 BYTE   N06
 BYTE   W06
 BYTE   N06
 BYTE   W06
 BYTE   N12  Cs1
 BYTE   N24  En1
 BYTE   W12
 BYTE   N12  Dn1
 BYTE   W12
 BYTE   N24  Cs1
 BYTE   N24  En1
 BYTE   W24
 BYTE   N12  Dn1
 BYTE   N24  En1
 BYTE   W12
 BYTE   N12  Dn1
 BYTE   W12
 BYTE   PEND 
 BYTE   PATT
  POIN2 Label_4_0148F153
 BYTE   PATT
  POIN2 Label_4_0148F130
 BYTE   PATT
  POIN2 Label_4_0148F153
 BYTE   PATT
  POIN2 Label_4_0148F153
 BYTE   PATT
  POIN2 Label_4_0148F130
 BYTE   PATT
  POIN2 Label_4_0148F153
 BYTE   PATT
  POIN2 Label_4_0148F153
 BYTE   PATT
  POIN2 Label_4_0148F130
 BYTE   PATT
  POIN2 Label_4_0148F153
// 003   ----------------------------------------
 BYTE   GoTo
  POIN2 Label_4_0148F10C
 BYTE   FINE

//******************************************************//
	ALIGN 4

songWeWillHoldTheLine:
	BYTE	5	// NumTrks
	BYTE	0	// NumBlks
	BYTE	songWeWillHoldTheLine_pri	// Priority
	BYTE	songWeWillHoldTheLine_rev	// Reverb.
    
	POIN2	songWeWillHoldTheLine_grp
    
	POIN2	songWeWillHoldTheLine_001
	POIN2	songWeWillHoldTheLine_002
	POIN2	songWeWillHoldTheLine_003
	POIN2	songWeWillHoldTheLine_004
	POIN2	songWeWillHoldTheLine_005

	
