//Event file generated from Sappy .s format.
	#include "MPlayDef.event"

	#define	WickedChild_grp  voicegroup000
	#define	WickedChild_pri  10
	#define	WickedChild_rev  0
	#define	WickedChild_mvl  127
	#define	WickedChild_key  0
	#define	WickedChild_tbs  1
	#define	WickedChild_exg  0
	#define	WickedChild_cmp  1

	// .rodata
	//	m
	ALIGN 4


//**************** Track 1 (Midi-Chn.0) ****************//

WickedChild_001:
// 000   ----------------------------------------
Label_0_00:
 BYTE   TEMPO   180*WickedChild_tbs/2
 BYTE   TEMPO   180*WickedChild_tbs/2
 BYTE   TEMPO   180*WickedChild_tbs/2
 BYTE   TEMPO   180*WickedChild_tbs/2
 BYTE   TEMPO   180*WickedChild_tbs/2
 BYTE   TEMPO   180*WickedChild_tbs/2
 BYTE   TEMPO   180*WickedChild_tbs/2
 BYTE   TEMPO   180*WickedChild_tbs/2
 BYTE   TEMPO   180*WickedChild_tbs/2
 BYTE   TEMPO   180*WickedChild_tbs/2
 BYTE   TEMPO   180*WickedChild_tbs/2
 BYTE   TEMPO   180*WickedChild_tbs/2
 BYTE   KEYSH   WickedChild_key+0
 BYTE   VOICE   2
 BYTE   VOL   19*WickedChild_mvl/mxv
 BYTE   W60
 BYTE   N08  An2  v127
 BYTE   W12
 BYTE   Cn3
 BYTE   W12
 BYTE   N23  Dn3
 BYTE   W24
// 001   ----------------------------------------
Label_0_01B0:
 BYTE   N08  Fn3  v127
 BYTE   W12
 BYTE   Fn3
 BYTE   W12
 BYTE   Fn3
 BYTE   W12
 BYTE   En3
 BYTE   W12
 BYTE   N16  Fn3
 BYTE   W24
 BYTE   Gn3
 BYTE   W24
 BYTE   PEND 
// 002   ----------------------------------------
Label_0_0330:
 BYTE   N08  Fn3  v127
 BYTE   W12
 BYTE   Fn3
 BYTE   W12
 BYTE   Fn3
 BYTE   W12
 BYTE   En3
 BYTE   W12
 BYTE   N32  Fn3
 BYTE   W48
 BYTE   PEND 
 BYTE   PATT
  POIN2 Label_0_01B0
 BYTE   PATT
  POIN2 Label_0_0330
 BYTE   PATT
  POIN2 Label_0_01B0
 BYTE   PATT
  POIN2 Label_0_0330
// 003   ----------------------------------------
 BYTE   N08  Fn3  v127
 BYTE   W12
 BYTE   Fn3
 BYTE   W12
 BYTE   N05
 BYTE   W12
 BYTE   N08  En3
 BYTE   W12
 BYTE   N16  Fn3
 BYTE   W24
 BYTE   Gn3
 BYTE   W24
// 004   ----------------------------------------
 BYTE   N08  Fn3
 BYTE   W12
 BYTE   Fn3
 BYTE   W12
 BYTE   Fn3
 BYTE   W12
 BYTE   En3
 BYTE   W12
 BYTE   N16  Fn3
 BYTE   W24
 BYTE   N08
 BYTE   W36
// 005   ----------------------------------------
Label_0_0DE0:
 BYTE   N16  En4  v127
 BYTE   W36
 BYTE   N24  Ds4
 BYTE   W36
 BYTE   N16  Dn4
 BYTE   W36
 BYTE   PEND 
// 006   ----------------------------------------
Label_0_0F90:
 BYTE   N48  Cs4  v127
 BYTE   W84
 BYTE   N16  En4
 BYTE   W36
 BYTE   PEND 
// 007   ----------------------------------------
 BYTE   N24  Ds4  v127
 BYTE   W36
 BYTE   N16  Dn4
 BYTE   W36
 BYTE   N48  Cs4
 BYTE   W84
 BYTE   PATT
  POIN2 Label_0_0DE0
 BYTE   PATT
  POIN2 Label_0_0F90
// 008   ----------------------------------------
 BYTE   N24  Ds4  v127
 BYTE   W36
 BYTE   N16  Dn4
 BYTE   W36
 BYTE   N48  Cs4
 BYTE   W60
// 009   ----------------------------------------
Label_0_1980:
 BYTE   N08  An3  v127
 BYTE   W12
 BYTE   Gs3
 BYTE   W12
 BYTE   An3
 BYTE   W12
 BYTE   Gs3
 BYTE   W12
 BYTE   An3
 BYTE   W12
 BYTE   Dn3
 BYTE   W12
 BYTE   Fn3
 BYTE   W12
 BYTE   An3
 BYTE   W24
 BYTE   PEND 
// 010   ----------------------------------------
Label_0_1B30:
 BYTE   N08  An3  v127
 BYTE   W12
 BYTE   Gs3
 BYTE   W12
 BYTE   An3
 BYTE   W12
 BYTE   Dn3
 BYTE   W12
 BYTE   Fn3
 BYTE   W24
 BYTE   An3
 BYTE   W12
 BYTE   Dn3
 BYTE   W12
 BYTE   PEND 
// 011   ----------------------------------------
Label_0_1CB0:
 BYTE   N08  Fn3  v127
 BYTE   W12
 BYTE   N16  Cn4
 BYTE   W36
 BYTE   N08  Dn3
 BYTE   W12
 BYTE   Fn3
 BYTE   W12
 BYTE   N96  Cn4
 BYTE   W24
 BYTE   PEND 
// 012   ----------------------------------------
Label_0_1E30:
 BYTE   N08  Cn4  v127
 BYTE   W84
 BYTE   An3
 BYTE   W12
 BYTE   PEND 
// 013   ----------------------------------------
Label_0_1FB0:
 BYTE   N08  Gs3  v127
 BYTE   W12
 BYTE   An3
 BYTE   W12
 BYTE   Gs3
 BYTE   W12
 BYTE   An3
 BYTE   W12
 BYTE   Dn3
 BYTE   W12
 BYTE   Fn3
 BYTE   W12
 BYTE   An3
 BYTE   W24
 BYTE   PEND 
 BYTE   PATT
  POIN2 Label_0_1B30
// 014   ----------------------------------------
Label_0_22B0:
 BYTE   N08  Fn3  v127
 BYTE   W12
 BYTE   N16  Cn4
 BYTE   W36
 BYTE   N08  Dn3
 BYTE   W12
 BYTE   Fn3
 BYTE   W12
 BYTE   N56  Cn4
 BYTE   W60
 BYTE   PEND 
// 015   ----------------------------------------
Label_0_24C0:
 BYTE   N16  Fn4  v127
 BYTE   W24
 BYTE   En4
 BYTE   W24
 BYTE   N10
 BYTE   W12
 BYTE   N11  Cn4
 BYTE   W12
 BYTE   Gn3
 BYTE   W12
 BYTE   Cn4
 BYTE   W12
 BYTE   PEND 
// 016   ----------------------------------------
Label_0_2640:
 BYTE   N11  Gn3  v127
 BYTE   W12
 BYTE   N16  En3
 BYTE   W24
 BYTE   N17  En4
 BYTE   W24
 BYTE   N11  Cn4
 BYTE   W12
 BYTE   Gn3
 BYTE   W12
 BYTE   Cn4
 BYTE   W12
 BYTE   PEND 
// 017   ----------------------------------------
Label_0_27C0:
 BYTE   N11  Gn3  v127
 BYTE   W12
 BYTE   N23  En3
 BYTE   W36
 BYTE   N10  Dn3
 BYTE   W12
 BYTE   N11  Fn3
 BYTE   W12
 BYTE   An3
 BYTE   W12
 BYTE   Fn3
 BYTE   W12
 BYTE   PEND 
// 018   ----------------------------------------
Label_0_2940:
 BYTE   N11  An3  v127
 BYTE   W12
 BYTE   N16  Dn4
 BYTE   W24
 BYTE   N17  Dn3
 BYTE   W24
 BYTE   N11  Fn3
 BYTE   W12
 BYTE   An3
 BYTE   W12
 BYTE   Fn3
 BYTE   W12
 BYTE   PEND 
// 019   ----------------------------------------
Label_0_2AC0:
 BYTE   N11  An3  v127
 BYTE   W12
 BYTE   N23  Dn4
 BYTE   W36
 BYTE   N10  En4
 BYTE   W12
 BYTE   N11  Cn4
 BYTE   W12
 BYTE   Gn3
 BYTE   W12
 BYTE   Cn4
 BYTE   W12
 BYTE   PEND 
 BYTE   PATT
  POIN2 Label_0_2640
 BYTE   PATT
  POIN2 Label_0_27C0
 BYTE   PATT
  POIN2 Label_0_2940
// 020   ----------------------------------------
Label_0_30C0:
 BYTE   N11  An3  v127
 BYTE   W12
 BYTE   N23  Dn4
 BYTE   W36
 BYTE   N30  Fn3
 BYTE   W36
 BYTE   Gn3
 BYTE   W36
 BYTE   PEND 
// 021   ----------------------------------------
Label_0_32A0:
 BYTE   N44  An3  v127
 BYTE   W48
 BYTE   N23  Fn4
 BYTE   W24
 BYTE   N22  Gn4
 BYTE   W24
 BYTE   PEND 
// 022   ----------------------------------------
Label_0_3423:
 BYTE   N22  An4  v127
 BYTE   W23
 BYTE   N30  En3
 BYTE   W36
 BYTE   Fn3
 BYTE   W36
 BYTE   PEND 
// 023   ----------------------------------------
Label_0_35A0:
 BYTE   N44  Gn3  v127
 BYTE   W48
 BYTE   N23  En4
 BYTE   W24
 BYTE   N22  Fn4
 BYTE   W24
 BYTE   PEND 
// 024   ----------------------------------------
Label_0_3723:
 BYTE   N22  Gn4  v127
 BYTE   W23
 BYTE   N30  Dn3
 BYTE   W36
 BYTE   En3
 BYTE   W36
 BYTE   PEND 
// 025   ----------------------------------------
Label_0_38A0:
 BYTE   N44  Fn3  v127
 BYTE   W48
 BYTE   N23  Dn4
 BYTE   W24
 BYTE   N22  En4
 BYTE   W24
 BYTE   PEND 
// 026   ----------------------------------------
Label_0_3A23:
 BYTE   N22  Fn4  v127
 BYTE   W23
 BYTE   N30  Cs4
 BYTE   W36
 BYTE   Dn4
 BYTE   W36
 BYTE   PEND 
// 027   ----------------------------------------
Label_0_3BA0:
 BYTE   N96  En4  v127
 BYTE   W24
 BYTE   N23
 BYTE   W96
 BYTE   PEND 
// 028   ----------------------------------------
Label_0_3D80:
 BYTE   N30  Fn3  v127
 BYTE   W36
 BYTE   Gn3
 BYTE   W36
 BYTE   N44  An3
 BYTE   W48
 BYTE   PEND 
// 029   ----------------------------------------
Label_0_3F60:
 BYTE   N23  Fn4  v127
 BYTE   W24
 BYTE   N22  Gn4
 BYTE   W24
 BYTE   An4
 BYTE   W23
 BYTE   N30  En3
 BYTE   W36
 BYTE   PEND 
// 030   ----------------------------------------
Label_0_4110:
 BYTE   N30  Fn3  v127
 BYTE   W36
 BYTE   N44  Gn3
 BYTE   W48
 BYTE   N23  En4
 BYTE   W24
 BYTE   PEND 
// 031   ----------------------------------------
Label_0_42C3:
 BYTE   N22  Fn4  v127
 BYTE   W24
 BYTE   Gn4
 BYTE   W23
 BYTE   N30  Dn3
 BYTE   W36
 BYTE   En3
 BYTE   W36
 BYTE   PEND 
 BYTE   PATT
  POIN2 Label_0_38A0
 BYTE   PATT
  POIN2 Label_0_3A23
 BYTE   PATT
  POIN2 Label_0_3BA0
// 032   ----------------------------------------
Label_0_4980:
 BYTE   N30  En4  v127
 BYTE   W36
 BYTE   Fn4
 BYTE   W36
 BYTE   N96  Gn4
 BYTE   W24
 BYTE   PEND 
// 033   ----------------------------------------
 BYTE   N23  Gn4  v127
 BYTE   W96
 BYTE   PATT
  POIN2 Label_0_1980
 BYTE   PATT
  POIN2 Label_0_1B30
 BYTE   PATT
  POIN2 Label_0_1CB0
 BYTE   PATT
  POIN2 Label_0_1E30
 BYTE   PATT
  POIN2 Label_0_1FB0
 BYTE   PATT
  POIN2 Label_0_1B30
 BYTE   PATT
  POIN2 Label_0_22B0
 BYTE   PATT
  POIN2 Label_0_24C0
 BYTE   PATT
  POIN2 Label_0_2640
 BYTE   PATT
  POIN2 Label_0_27C0
 BYTE   PATT
  POIN2 Label_0_2940
 BYTE   PATT
  POIN2 Label_0_2AC0
 BYTE   PATT
  POIN2 Label_0_2640
 BYTE   PATT
  POIN2 Label_0_27C0
 BYTE   PATT
  POIN2 Label_0_2940
 BYTE   PATT
  POIN2 Label_0_30C0
 BYTE   PATT
  POIN2 Label_0_32A0
 BYTE   PATT
  POIN2 Label_0_3423
 BYTE   PATT
  POIN2 Label_0_35A0
 BYTE   PATT
  POIN2 Label_0_3723
 BYTE   PATT
  POIN2 Label_0_38A0
 BYTE   PATT
  POIN2 Label_0_3A23
 BYTE   PATT
  POIN2 Label_0_3BA0
 BYTE   PATT
  POIN2 Label_0_3D80
 BYTE   PATT
  POIN2 Label_0_3F60
 BYTE   PATT
  POIN2 Label_0_4110
 BYTE   PATT
  POIN2 Label_0_42C3
 BYTE   PATT
  POIN2 Label_0_38A0
 BYTE   PATT
  POIN2 Label_0_3A23
 BYTE   PATT
  POIN2 Label_0_3BA0
 BYTE   PATT
  POIN2 Label_0_4980
// 034   ----------------------------------------
 BYTE   N23  Gn4  v127
 BYTE   W92
 BYTE   W03
 BYTE   GoTo
  POIN2 Label_0_00
 BYTE   FINE

//**************** Track 2 (Midi-Chn.1) ****************//

WickedChild_002:
// 000   ----------------------------------------
Label_1_00:
 BYTE   TEMPO   180*WickedChild_tbs/2
 BYTE   TEMPO   180*WickedChild_tbs/2
 BYTE   TEMPO   180*WickedChild_tbs/2
 BYTE   TEMPO   180*WickedChild_tbs/2
 BYTE   TEMPO   180*WickedChild_tbs/2
 BYTE   TEMPO   180*WickedChild_tbs/2
 BYTE   TEMPO   180*WickedChild_tbs/2
 BYTE   TEMPO   180*WickedChild_tbs/2
 BYTE   TEMPO   180*WickedChild_tbs/2
 BYTE   TEMPO   180*WickedChild_tbs/2
 BYTE   TEMPO   180*WickedChild_tbs/2
 BYTE   TEMPO   180*WickedChild_tbs/2
 BYTE   KEYSH   WickedChild_key+0
 BYTE   VOICE   0
 BYTE   VOL   22*WickedChild_mvl/mxv
 BYTE   W60
 BYTE   N08  An2  v120
 BYTE   W12
 BYTE   Cn3
 BYTE   W12
 BYTE   N23  Dn3
 BYTE   W24
// 001   ----------------------------------------
Label_1_01B0:
 BYTE   N08  An2  v120
 BYTE   W12
 BYTE   An2
 BYTE   W12
 BYTE   An2
 BYTE   W12
 BYTE   An2
 BYTE   W12
 BYTE   N16
 BYTE   W24
 BYTE   An2
 BYTE   W24
 BYTE   PEND 
// 002   ----------------------------------------
Label_1_0330:
 BYTE   N08  An2  v120
 BYTE   W12
 BYTE   An2
 BYTE   W12
 BYTE   An2
 BYTE   W12
 BYTE   An2
 BYTE   W12
 BYTE   Dn3
 BYTE   W12
 BYTE   Cn3
 BYTE   W12
 BYTE   N23  As2
 BYTE   W24
 BYTE   PEND 
// 003   ----------------------------------------
Label_1_04B0:
 BYTE   N08  As2  v120
 BYTE   W12
 BYTE   As2
 BYTE   W12
 BYTE   As2
 BYTE   W12
 BYTE   As2
 BYTE   W12
 BYTE   N16
 BYTE   W24
 BYTE   As2
 BYTE   W24
 BYTE   PEND 
// 004   ----------------------------------------
 BYTE   N08  As2  v120
 BYTE   W12
 BYTE   As2
 BYTE   W12
 BYTE   As2
 BYTE   W12
 BYTE   As2
 BYTE   W12
 BYTE   An2
 BYTE   W12
 BYTE   Cn3
 BYTE   W12
 BYTE   N23  Dn3
 BYTE   W24
 BYTE   PATT
  POIN2 Label_1_01B0
 BYTE   PATT
  POIN2 Label_1_0330
 BYTE   PATT
  POIN2 Label_1_04B0
// 005   ----------------------------------------
 BYTE   N08  As2  v120
 BYTE   W12
 BYTE   As2
 BYTE   W12
 BYTE   As2
 BYTE   W12
 BYTE   As2
 BYTE   W12
 BYTE   N16
 BYTE   W24
 BYTE   N08
 BYTE   W36
// 006   ----------------------------------------
 BYTE   N16  Cn4
 BYTE   W36
 BYTE   N24  Bn3
 BYTE   W36
 BYTE   N16  As3
 BYTE   W36
// 007   ----------------------------------------
 BYTE   An3
 BYTE   W24
 BYTE   N08  An2
 BYTE   W12
 BYTE   Cn3
 BYTE   W12
 BYTE   Dn3
 BYTE   W36
 BYTE   N16  Cn4
 BYTE   W36
// 008   ----------------------------------------
Label_1_1170:
 BYTE   N24  Bn3  v120
 BYTE   W36
 BYTE   N16  As3
 BYTE   W36
 BYTE   An3
 BYTE   W24
 BYTE   PEND 
// 009   ----------------------------------------
 BYTE   N08  An2  v120
 BYTE   W12
 BYTE   Cn3
 BYTE   W12
 BYTE   Gn2
 BYTE   W36
 BYTE   N16  Cn4
 BYTE   W36
 BYTE   PATT
  POIN2 Label_1_1170
// 010   ----------------------------------------
 BYTE   N08  An2  v120
 BYTE   W12
 BYTE   Cn3
 BYTE   W12
 BYTE   Dn3
 BYTE   W36
 BYTE   N16  Cn4
 BYTE   W36
 BYTE   PATT
  POIN2 Label_1_1170
// 011   ----------------------------------------
 BYTE   N08  An2  v120
 BYTE   W12
 BYTE   Cn3
 BYTE   W12
 BYTE   Gn2
 BYTE   W12
 BYTE   Dn3
 BYTE   W12
 BYTE   Dn3
 BYTE   W12
 BYTE   Dn3
 BYTE   W12
 BYTE   Dn3
 BYTE   W12
 BYTE   Dn3
 BYTE   W12
// 012   ----------------------------------------
 BYTE   An2
 BYTE   W12
 BYTE   Dn3
 BYTE   W12
 BYTE   Fn3
 BYTE   W24
 BYTE   Dn3
 BYTE   W12
 BYTE   Dn3
 BYTE   W12
 BYTE   Dn3
 BYTE   W12
 BYTE   An2
 BYTE   W12
// 013   ----------------------------------------
 BYTE   Dn3
 BYTE   W24
 BYTE   Fn3
 BYTE   W12
 BYTE   As2
 BYTE   W12
 BYTE   Dn3
 BYTE   W12
 BYTE   N16  Fn3
 BYTE   W36
// 014   ----------------------------------------
 BYTE   N08  As2
 BYTE   W12
 BYTE   Dn3
 BYTE   W12
 BYTE   N32  Fn3
 BYTE   W36
 BYTE   N16  As2
 BYTE   W24
 BYTE   Cn3
 BYTE   W24
// 015   ----------------------------------------
 BYTE   Cs3
 BYTE   W24
 BYTE   N08  Dn3
 BYTE   W12
 BYTE   Dn3
 BYTE   W12
 BYTE   Dn3
 BYTE   W12
 BYTE   Dn3
 BYTE   W12
 BYTE   Dn3
 BYTE   W12
 BYTE   An2
 BYTE   W12
// 016   ----------------------------------------
 BYTE   Dn3
 BYTE   W12
 BYTE   Fn3
 BYTE   W24
 BYTE   Dn3
 BYTE   W12
 BYTE   Dn3
 BYTE   W12
 BYTE   Dn3
 BYTE   W12
 BYTE   An2
 BYTE   W12
 BYTE   Dn3
 BYTE   W24
// 017   ----------------------------------------
 BYTE   Fn3
 BYTE   W12
 BYTE   As2
 BYTE   W12
 BYTE   Dn3
 BYTE   W12
 BYTE   N16  Fn3
 BYTE   W36
 BYTE   N08  As2
 BYTE   W12
 BYTE   Dn3
 BYTE   W12
// 018   ----------------------------------------
 BYTE   N56  Fn3
 BYTE   W60
 BYTE   N16  Dn4
 BYTE   W24
 BYTE   Cn4
 BYTE   W24
 BYTE   W02
// 019   ----------------------------------------
 BYTE   N10  En4
 BYTE   W12
 BYTE   N11  Cn4
 BYTE   W12
 BYTE   Gn3
 BYTE   W12
 BYTE   Cn4
 BYTE   W12
 BYTE   Gn3
 BYTE   W12
 BYTE   N16  En3
 BYTE   W24
 BYTE   N17  En4
 BYTE   W24
// 020   ----------------------------------------
Label_1_273B:
 BYTE   N11  Cn4  v120
 BYTE   W12
 BYTE   Gn3
 BYTE   W12
 BYTE   Cn4
 BYTE   W12
 BYTE   Gn3
 BYTE   W12
 BYTE   N23  En3
 BYTE   W36
 BYTE   N10  Dn3
 BYTE   W12
 BYTE   PEND 
// 021   ----------------------------------------
Label_1_28BB:
 BYTE   N11  Fn3  v120
 BYTE   W12
 BYTE   An3
 BYTE   W12
 BYTE   Fn3
 BYTE   W12
 BYTE   An3
 BYTE   W12
 BYTE   N16  Dn4
 BYTE   W24
 BYTE   N17  Dn3
 BYTE   W24
 BYTE   PEND 
// 022   ----------------------------------------
 BYTE   N11  Fn3  v120
 BYTE   W12
 BYTE   An3
 BYTE   W12
 BYTE   Fn3
 BYTE   W12
 BYTE   An3
 BYTE   W12
 BYTE   N23  Dn4
 BYTE   W36
 BYTE   N10  En4
 BYTE   W12
// 023   ----------------------------------------
 BYTE   N11  Cn4
 BYTE   W12
 BYTE   Gn3
 BYTE   W12
 BYTE   Cn4
 BYTE   W12
 BYTE   Gn3
 BYTE   W12
 BYTE   N16  En3
 BYTE   W24
 BYTE   N17  En4
 BYTE   W24
 BYTE   PATT
  POIN2 Label_1_273B
 BYTE   PATT
  POIN2 Label_1_28BB
// 024   ----------------------------------------
 BYTE   N11  Fn3  v120
 BYTE   W12
 BYTE   An3
 BYTE   W12
 BYTE   Fn3
 BYTE   W12
 BYTE   An3
 BYTE   W12
 BYTE   N23  Dn4
 BYTE   W32
 BYTE   W01
 BYTE   N30  Dn3
 BYTE   W36
// 025   ----------------------------------------
 BYTE   En3
 BYTE   W36
 BYTE   N44  Fn3
 BYTE   W48
 BYTE   W02
 BYTE   N23  Fn4
 BYTE   W24
// 026   ----------------------------------------
 BYTE   N22  Gn4
 BYTE   W24
 BYTE   N23  An4
 BYTE   W21
 BYTE   N30  Cn3
 BYTE   W36
 BYTE   Dn3
 BYTE   W36
// 027   ----------------------------------------
 BYTE   N44  En3
 BYTE   W48
 BYTE   W02
 BYTE   N23  En4
 BYTE   W24
 BYTE   N22  Fn4
 BYTE   W24
// 028   ----------------------------------------
 BYTE   N23  Gn4
 BYTE   W21
 BYTE   N30  As2
 BYTE   W36
 BYTE   Cn3
 BYTE   W36
 BYTE   N44  Dn3
 BYTE   W48
// 029   ----------------------------------------
 BYTE   W02
 BYTE   N23  Dn4
 BYTE   W24
 BYTE   N22  En4
 BYTE   W24
 BYTE   N23  Fn4
 BYTE   W21
// 030   ----------------------------------------
 BYTE   N30  An2
 BYTE   W36
 BYTE   Bn2
 BYTE   W36
 BYTE   N96  Cs3
 BYTE   W24
// 031   ----------------------------------------
 BYTE   N23
 BYTE   W96
// 032   ----------------------------------------
Label_1_3D80:
 BYTE   N30  Dn3  v120
 BYTE   W36
 BYTE   En3
 BYTE   W36
 BYTE   N44  Fn3
 BYTE   W48
 BYTE   W02
 BYTE   PEND 
// 033   ----------------------------------------
Label_1_3F6B:
 BYTE   N23  Fn4  v120
 BYTE   W24
 BYTE   N22  Gn4
 BYTE   W24
 BYTE   N23  An4
 BYTE   W21
 BYTE   N30  Cn3
 BYTE   W36
 BYTE   PEND 
// 034   ----------------------------------------
Label_1_4110:
 BYTE   N30  Dn3  v120
 BYTE   W36
 BYTE   N44  En3
 BYTE   W48
 BYTE   W02
 BYTE   N23  En4
 BYTE   W24
 BYTE   PEND 
// 035   ----------------------------------------
Label_1_42CB:
 BYTE   N22  Fn4  v120
 BYTE   W24
 BYTE   N23  Gn4
 BYTE   W21
 BYTE   N30  As2
 BYTE   W36
 BYTE   Cn3
 BYTE   W36
 BYTE   PEND 
// 036   ----------------------------------------
Label_1_44A0:
 BYTE   N44  Dn3  v120
 BYTE   W48
 BYTE   W02
 BYTE   N23  Dn4
 BYTE   W24
 BYTE   N22  En4
 BYTE   W24
 BYTE   PEND 
// 037   ----------------------------------------
Label_1_462B:
 BYTE   N23  Fn4  v120
 BYTE   W21
 BYTE   N30  An2
 BYTE   W36
 BYTE   Bn2
 BYTE   W36
 BYTE   N96  Cs3
 BYTE   W24
 BYTE   PEND 
// 038   ----------------------------------------
 BYTE   N23  Cs3  v120
 BYTE   W96
// 039   ----------------------------------------
Label_1_4980:
 BYTE   N30  Cs3  v120
 BYTE   W36
 BYTE   Dn3
 BYTE   W36
 BYTE   N96  En3
 BYTE   W24
 BYTE   PEND 
// 040   ----------------------------------------
 BYTE   N23  En3  v120
 BYTE   W96
// 041   ----------------------------------------
 BYTE   N08  Dn3
 BYTE   W12
 BYTE   Dn3
 BYTE   W12
 BYTE   Dn3
 BYTE   W12
 BYTE   Dn3
 BYTE   W12
 BYTE   Dn3
 BYTE   W12
 BYTE   An2
 BYTE   W12
 BYTE   Dn3
 BYTE   W12
 BYTE   Fn3
 BYTE   W24
// 042   ----------------------------------------
 BYTE   Dn3
 BYTE   W12
 BYTE   Dn3
 BYTE   W12
 BYTE   Dn3
 BYTE   W12
 BYTE   An2
 BYTE   W12
 BYTE   Dn3
 BYTE   W24
 BYTE   Fn3
 BYTE   W12
 BYTE   As2
 BYTE   W12
// 043   ----------------------------------------
 BYTE   Dn3
 BYTE   W12
 BYTE   N16  Fn3
 BYTE   W36
 BYTE   N08  As2
 BYTE   W12
 BYTE   Dn3
 BYTE   W12
 BYTE   N32  Fn3
 BYTE   W36
// 044   ----------------------------------------
 BYTE   N16  As2
 BYTE   W24
 BYTE   Cn3
 BYTE   W24
 BYTE   Cs3
 BYTE   W24
 BYTE   N08  Dn3
 BYTE   W12
 BYTE   Dn3
 BYTE   W12
// 045   ----------------------------------------
 BYTE   Dn3
 BYTE   W12
 BYTE   Dn3
 BYTE   W12
 BYTE   Dn3
 BYTE   W12
 BYTE   An2
 BYTE   W12
 BYTE   Dn3
 BYTE   W12
 BYTE   Fn3
 BYTE   W24
 BYTE   Dn3
 BYTE   W12
// 046   ----------------------------------------
 BYTE   Dn3
 BYTE   W12
 BYTE   Dn3
 BYTE   W12
 BYTE   An2
 BYTE   W12
 BYTE   Dn3
 BYTE   W24
 BYTE   Fn3
 BYTE   W12
 BYTE   As2
 BYTE   W12
 BYTE   Dn3
 BYTE   W12
// 047   ----------------------------------------
 BYTE   N16  Fn3
 BYTE   W36
 BYTE   N08  As2
 BYTE   W12
 BYTE   Dn3
 BYTE   W12
 BYTE   N56  Fn3
 BYTE   W60
// 048   ----------------------------------------
 BYTE   N16  Dn4
 BYTE   W24
 BYTE   Cn4
 BYTE   W24
 BYTE   W02
 BYTE   N10  En4
 BYTE   W12
 BYTE   N11  Cn4
 BYTE   W12
 BYTE   Gn3
 BYTE   W12
 BYTE   Cn4
 BYTE   W12
// 049   ----------------------------------------
Label_1_594B:
 BYTE   N11  Gn3  v120
 BYTE   W12
 BYTE   N16  En3
 BYTE   W24
 BYTE   N17  En4
 BYTE   W24
 BYTE   N11  Cn4
 BYTE   W12
 BYTE   Gn3
 BYTE   W12
 BYTE   Cn4
 BYTE   W12
 BYTE   PEND 
// 050   ----------------------------------------
Label_1_5ACB:
 BYTE   N11  Gn3  v120
 BYTE   W12
 BYTE   N23  En3
 BYTE   W36
 BYTE   N10  Dn3
 BYTE   W12
 BYTE   N11  Fn3
 BYTE   W12
 BYTE   An3
 BYTE   W12
 BYTE   Fn3
 BYTE   W12
 BYTE   PEND 
// 051   ----------------------------------------
Label_1_5C4B:
 BYTE   N11  An3  v120
 BYTE   W12
 BYTE   N16  Dn4
 BYTE   W24
 BYTE   N17  Dn3
 BYTE   W24
 BYTE   N11  Fn3
 BYTE   W12
 BYTE   An3
 BYTE   W12
 BYTE   Fn3
 BYTE   W12
 BYTE   PEND 
// 052   ----------------------------------------
 BYTE   N11  An3  v120
 BYTE   W12
 BYTE   N23  Dn4
 BYTE   W36
 BYTE   N10  En4
 BYTE   W12
 BYTE   N11  Cn4
 BYTE   W12
 BYTE   Gn3
 BYTE   W12
 BYTE   Cn4
 BYTE   W12
 BYTE   PATT
  POIN2 Label_1_594B
 BYTE   PATT
  POIN2 Label_1_5ACB
 BYTE   PATT
  POIN2 Label_1_5C4B
// 053   ----------------------------------------
 BYTE   N11  An3  v120
 BYTE   W12
 BYTE   N23  Dn4
 BYTE   W32
 BYTE   W01
 BYTE   N30  Dn3
 BYTE   W36
 BYTE   En3
 BYTE   W36
// 054   ----------------------------------------
 BYTE   N44  Fn3
 BYTE   W48
 BYTE   W02
 BYTE   N23  Fn4
 BYTE   W24
 BYTE   N22  Gn4
 BYTE   W24
// 055   ----------------------------------------
 BYTE   N23  An4
 BYTE   W21
 BYTE   N30  Cn3
 BYTE   W36
 BYTE   Dn3
 BYTE   W36
 BYTE   N44  En3
 BYTE   W48
// 056   ----------------------------------------
 BYTE   W02
 BYTE   N23  En4
 BYTE   W24
 BYTE   N22  Fn4
 BYTE   W24
 BYTE   N23  Gn4
 BYTE   W21
// 057   ----------------------------------------
 BYTE   N30  As2
 BYTE   W36
 BYTE   Cn3
 BYTE   W36
 BYTE   N44  Dn3
 BYTE   W48
 BYTE   W02
// 058   ----------------------------------------
 BYTE   N23  Dn4
 BYTE   W24
 BYTE   N22  En4
 BYTE   W24
 BYTE   N23  Fn4
 BYTE   W21
 BYTE   N30  An2
 BYTE   W36
// 059   ----------------------------------------
 BYTE   Bn2
 BYTE   W36
 BYTE   N96  Cs3
 BYTE   W24
 BYTE   N23
 BYTE   W96
 BYTE   PATT
  POIN2 Label_1_3D80
 BYTE   PATT
  POIN2 Label_1_3F6B
 BYTE   PATT
  POIN2 Label_1_4110
 BYTE   PATT
  POIN2 Label_1_42CB
 BYTE   PATT
  POIN2 Label_1_44A0
 BYTE   PATT
  POIN2 Label_1_462B
// 060   ----------------------------------------
 BYTE   N23  Cs3  v120
 BYTE   W96
 BYTE   PATT
  POIN2 Label_1_4980
// 061   ----------------------------------------
 BYTE   N23  En3  v120
 BYTE   W92
 BYTE   W03
 BYTE   GoTo
  POIN2 Label_1_00
 BYTE   FINE

//**************** Track 3 (Midi-Chn.2) ****************//

WickedChild_003:
// 000   ----------------------------------------
Label_2_00:
 BYTE   TEMPO   180*WickedChild_tbs/2
 BYTE   KEYSH   WickedChild_key+0
 BYTE   VOICE   57
 BYTE   VOL   20*WickedChild_mvl/mxv
 BYTE   W60
 BYTE   N08  An1  v127
 BYTE   W12
 BYTE   Cn2
 BYTE   W12
 BYTE   N96  Dn2
 BYTE   W24
// 001   ----------------------------------------
 BYTE   N48
 BYTE   W96
 BYTE   W48
// 002   ----------------------------------------
 BYTE   N08
 BYTE   W12
 BYTE   Cn2
 BYTE   W12
 BYTE   N96  As1
 BYTE   W24
 BYTE   N48
 BYTE   W96
 BYTE   W48
// 003   ----------------------------------------
 BYTE   N08  An1
 BYTE   W12
 BYTE   Cn2
 BYTE   W12
 BYTE   N96  Dn2
 BYTE   W24
 BYTE   N48
 BYTE   W96
 BYTE   W48
// 004   ----------------------------------------
 BYTE   N08
 BYTE   W12
 BYTE   Cn2
 BYTE   W12
 BYTE   N96  As1
 BYTE   W24
 BYTE   N60
 BYTE   W96
 BYTE   W48
// 005   ----------------------------------------
 BYTE   N16
 BYTE   W24
 BYTE   N08
 BYTE   W12
 BYTE   An1
 BYTE   W36
 BYTE   N04
 BYTE   W12
 BYTE   An1
 BYTE   W48
// 006   ----------------------------------------
 BYTE   N08
 BYTE   W36
 BYTE   N04
 BYTE   W12
 BYTE   An1
 BYTE   W12
 BYTE   An1
 BYTE   W12
 BYTE   Cn2
 BYTE   W12
 BYTE   Dn2
 BYTE   W12
// 007   ----------------------------------------
 BYTE   N08  An1
 BYTE   W36
 BYTE   N04
 BYTE   W12
 BYTE   An1
 BYTE   W48
// 008   ----------------------------------------
 BYTE   N08
 BYTE   W36
 BYTE   N04
 BYTE   W12
 BYTE   An1
 BYTE   W12
 BYTE   An1
 BYTE   W12
 BYTE   Cn2
 BYTE   W12
 BYTE   Gn1
 BYTE   W12
// 009   ----------------------------------------
Label_2_1380:
 BYTE   N04  An1  v127
 BYTE   W06
 BYTE   An1
 BYTE   W06
 BYTE   An1
 BYTE   W12
 BYTE   An1
 BYTE   W12
 BYTE   An1
 BYTE   W12
 BYTE   An1
 BYTE   W06
 BYTE   An1
 BYTE   W06
 BYTE   An1
 BYTE   W12
 BYTE   An1
 BYTE   W12
 BYTE   An1
 BYTE   W12
 BYTE   PEND 
// 010   ----------------------------------------
 BYTE   N04  An1  v127
 BYTE   W06
 BYTE   An1
 BYTE   W06
 BYTE   An1
 BYTE   W12
 BYTE   An1
 BYTE   W12
 BYTE   An1
 BYTE   W12
 BYTE   An1
 BYTE   W06
 BYTE   An1
 BYTE   W06
 BYTE   An1
 BYTE   W12
 BYTE   Cn2
 BYTE   W12
 BYTE   Dn2
 BYTE   W12
 BYTE   PATT
  POIN2 Label_2_1380
// 011   ----------------------------------------
 BYTE   N04  An1  v127
 BYTE   W06
 BYTE   An1
 BYTE   W06
 BYTE   An1
 BYTE   W12
 BYTE   An1
 BYTE   W12
 BYTE   An1
 BYTE   W12
 BYTE   An1
 BYTE   W06
 BYTE   An1
 BYTE   W06
 BYTE   An1
 BYTE   W12
 BYTE   Cn2
 BYTE   W12
 BYTE   Gn1
 BYTE   W12
// 012   ----------------------------------------
Label_2_1980:
 BYTE   N08  Dn2  v127
 BYTE   W12
 BYTE   Dn3
 BYTE   W12
 BYTE   Dn2
 BYTE   W12
 BYTE   Dn3
 BYTE   W12
 BYTE   Dn2
 BYTE   W12
 BYTE   Dn3
 BYTE   W12
 BYTE   Dn2
 BYTE   W12
 BYTE   Dn3
 BYTE   W12
 BYTE   PEND 
 BYTE   PATT
  POIN2 Label_2_1980
// 013   ----------------------------------------
Label_2_1C80:
 BYTE   N08  As1  v127
 BYTE   W12
 BYTE   As2
 BYTE   W12
 BYTE   As1
 BYTE   W12
 BYTE   As2
 BYTE   W12
 BYTE   As1
 BYTE   W12
 BYTE   As2
 BYTE   W12
 BYTE   As1
 BYTE   W12
 BYTE   As2
 BYTE   W12
 BYTE   PEND 
// 014   ----------------------------------------
Label_2_1E00:
 BYTE   N08  As1  v127
 BYTE   W12
 BYTE   As2
 BYTE   W12
 BYTE   As1
 BYTE   W12
 BYTE   As2
 BYTE   W12
 BYTE   As1
 BYTE   W12
 BYTE   As2
 BYTE   W12
 BYTE   Cn2
 BYTE   W12
 BYTE   Cs2
 BYTE   W12
 BYTE   PEND 
 BYTE   PATT
  POIN2 Label_2_1980
 BYTE   PATT
  POIN2 Label_2_1980
 BYTE   PATT
  POIN2 Label_2_1C80
// 015   ----------------------------------------
Label_2_2400:
 BYTE   N08  As1  v127
 BYTE   W12
 BYTE   As2
 BYTE   W12
 BYTE   As1
 BYTE   W12
 BYTE   As2
 BYTE   W12
 BYTE   As1
 BYTE   W24
 BYTE   As1
 BYTE   W24
 BYTE   PEND 
// 016   ----------------------------------------
Label_2_2580:
 BYTE   N08  Cn2  v127
 BYTE   W36
 BYTE   Cn2
 BYTE   W12
 BYTE   Cn2
 BYTE   W12
 BYTE   Cn2
 BYTE   W12
 BYTE   Dn2
 BYTE   W12
 BYTE   En2
 BYTE   W12
 BYTE   PEND 
 BYTE   PATT
  POIN2 Label_2_2580
// 017   ----------------------------------------
Label_2_2880:
 BYTE   N08  Dn2  v127
 BYTE   W36
 BYTE   Dn2
 BYTE   W12
 BYTE   Dn2
 BYTE   W12
 BYTE   Dn2
 BYTE   W12
 BYTE   En2
 BYTE   W12
 BYTE   Fn2
 BYTE   W12
 BYTE   PEND 
 BYTE   PATT
  POIN2 Label_2_2880
 BYTE   PATT
  POIN2 Label_2_2580
 BYTE   PATT
  POIN2 Label_2_2580
 BYTE   PATT
  POIN2 Label_2_2880
 BYTE   PATT
  POIN2 Label_2_2880
// 018   ----------------------------------------
Label_2_3180:
 BYTE   N08  Dn2  v127
 BYTE   W12
 BYTE   Dn2
 BYTE   W12
 BYTE   Dn2
 BYTE   W12
 BYTE   Dn2
 BYTE   W12
 BYTE   Dn2
 BYTE   W12
 BYTE   Dn2
 BYTE   W12
 BYTE   Dn2
 BYTE   W12
 BYTE   Dn2
 BYTE   W12
 BYTE   PEND 
 BYTE   PATT
  POIN2 Label_2_3180
// 019   ----------------------------------------
Label_2_3480:
 BYTE   N08  Cn2  v127
 BYTE   W12
 BYTE   Cn2
 BYTE   W12
 BYTE   Cn2
 BYTE   W12
 BYTE   Cn2
 BYTE   W12
 BYTE   Cn2
 BYTE   W12
 BYTE   Cn2
 BYTE   W12
 BYTE   Cn2
 BYTE   W12
 BYTE   Cn2
 BYTE   W12
 BYTE   PEND 
 BYTE   PATT
  POIN2 Label_2_3480
// 020   ----------------------------------------
Label_2_3780:
 BYTE   N08  As1  v127
 BYTE   W12
 BYTE   As1
 BYTE   W12
 BYTE   As1
 BYTE   W12
 BYTE   As1
 BYTE   W12
 BYTE   As1
 BYTE   W12
 BYTE   As1
 BYTE   W12
 BYTE   As1
 BYTE   W12
 BYTE   As1
 BYTE   W12
 BYTE   PEND 
 BYTE   PATT
  POIN2 Label_2_3780
// 021   ----------------------------------------
Label_2_3A80:
 BYTE   N08  An1  v127
 BYTE   W12
 BYTE   An1
 BYTE   W12
 BYTE   An1
 BYTE   W12
 BYTE   An1
 BYTE   W12
 BYTE   An1
 BYTE   W12
 BYTE   An1
 BYTE   W12
 BYTE   An1
 BYTE   W12
 BYTE   An1
 BYTE   W12
 BYTE   PEND 
// 022   ----------------------------------------
Label_2_3C00:
 BYTE   N08  An1  v127
 BYTE   W12
 BYTE   An1
 BYTE   W12
 BYTE   An1
 BYTE   W12
 BYTE   An1
 BYTE   W12
 BYTE   An1
 BYTE   W12
 BYTE   An1
 BYTE   W12
 BYTE   Bn1
 BYTE   W12
 BYTE   Cs2
 BYTE   W12
 BYTE   PEND 
 BYTE   PATT
  POIN2 Label_2_3180
 BYTE   PATT
  POIN2 Label_2_3180
 BYTE   PATT
  POIN2 Label_2_3480
 BYTE   PATT
  POIN2 Label_2_3480
 BYTE   PATT
  POIN2 Label_2_3780
 BYTE   PATT
  POIN2 Label_2_3780
 BYTE   PATT
  POIN2 Label_2_3A80
 BYTE   PATT
  POIN2 Label_2_3A80
 BYTE   PATT
  POIN2 Label_2_3A80
 BYTE   PATT
  POIN2 Label_2_3C00
 BYTE   PATT
  POIN2 Label_2_1980
 BYTE   PATT
  POIN2 Label_2_1980
 BYTE   PATT
  POIN2 Label_2_1C80
 BYTE   PATT
  POIN2 Label_2_1E00
 BYTE   PATT
  POIN2 Label_2_1980
 BYTE   PATT
  POIN2 Label_2_1980
 BYTE   PATT
  POIN2 Label_2_1C80
 BYTE   PATT
  POIN2 Label_2_2400
 BYTE   PATT
  POIN2 Label_2_2580
 BYTE   PATT
  POIN2 Label_2_2580
 BYTE   PATT
  POIN2 Label_2_2880
 BYTE   PATT
  POIN2 Label_2_2880
 BYTE   PATT
  POIN2 Label_2_2580
 BYTE   PATT
  POIN2 Label_2_2580
 BYTE   PATT
  POIN2 Label_2_2880
 BYTE   PATT
  POIN2 Label_2_2880
 BYTE   PATT
  POIN2 Label_2_3180
 BYTE   PATT
  POIN2 Label_2_3180
 BYTE   PATT
  POIN2 Label_2_3480
 BYTE   PATT
  POIN2 Label_2_3480
 BYTE   PATT
  POIN2 Label_2_3780
 BYTE   PATT
  POIN2 Label_2_3780
 BYTE   PATT
  POIN2 Label_2_3A80
 BYTE   PATT
  POIN2 Label_2_3C00
 BYTE   PATT
  POIN2 Label_2_3180
 BYTE   PATT
  POIN2 Label_2_3180
 BYTE   PATT
  POIN2 Label_2_3480
 BYTE   PATT
  POIN2 Label_2_3480
 BYTE   PATT
  POIN2 Label_2_3780
 BYTE   PATT
  POIN2 Label_2_3780
 BYTE   PATT
  POIN2 Label_2_3A80
 BYTE   PATT
  POIN2 Label_2_3A80
 BYTE   PATT
  POIN2 Label_2_3A80
// 023   ----------------------------------------
 BYTE   N08  An1  v127
 BYTE   W12
 BYTE   An1
 BYTE   W12
 BYTE   An1
 BYTE   W12
 BYTE   An1
 BYTE   W12
 BYTE   An1
 BYTE   W12
 BYTE   An1
 BYTE   W12
 BYTE   Bn1
 BYTE   W12
 BYTE   Cs2
 BYTE   W11
 BYTE   GoTo
  POIN2 Label_2_00
 BYTE   FINE

//**************** Track 4 (Midi-Chn.3) ****************//

WickedChild_004:
// 000   ----------------------------------------
Label_3_00:
 BYTE   TEMPO   180*WickedChild_tbs/2
 BYTE   KEYSH   WickedChild_key+0
 BYTE   VOICE   57
 BYTE   VOL   20*WickedChild_mvl/mxv
 BYTE   N04  Fs1  v112
 BYTE   N04  Gs1  v127
 BYTE   W06
 BYTE   Fs1  v112
 BYTE   N04  Gs1  v127
 BYTE   W06
 BYTE   Fs1  v112
 BYTE   N04  Gs1  v127
 BYTE   W06
 BYTE   Fs1  v112
 BYTE   N04  Gs1  v127
 BYTE   W06
 BYTE   Fs1  v112
 BYTE   N04  Gs1  v127
 BYTE   W06
 BYTE   Fs1  v112
 BYTE   N04  Gs1  v127
 BYTE   W06
 BYTE   Fs1  v112
 BYTE   N04  Gs1  v127
 BYTE   W06
 BYTE   Fs1  v112
 BYTE   N04  Gs1  v127
 BYTE   W06
 BYTE   Fs1  v112
 BYTE   N04  Gs1  v127
 BYTE   W12
 BYTE   Dn1  v112
 BYTE   N04  Ds1  v127
 BYTE   W12
 BYTE   Cn1  v112
 BYTE   N04  Fs1  v127
 BYTE   W12
 BYTE   Cn1  v112
 BYTE   N04  Fs1  v127
 BYTE   W12
// 001   ----------------------------------------
Label_3_0180:
 BYTE   N04  Bn0  v112
 BYTE   N04  Gs1  v127
 BYTE   W12
 BYTE   Cn1  v112
 BYTE   N04  Fs1  v127
 BYTE   W12
 BYTE   Dn1  v112
 BYTE   N04  Ds1  v127
 BYTE   W12
 BYTE   Cn1  v112
 BYTE   N04  Fs1  v127
 BYTE   W12
 BYTE   Bn0  v112
 BYTE   N04  Gs1  v127
 BYTE   W12
 BYTE   Cn1  v112
 BYTE   N04  Fs1  v127
 BYTE   W12
 BYTE   Dn1  v112
 BYTE   N04  Ds1  v127
 BYTE   W12
 BYTE   Cn1  v112
 BYTE   N04  Fs1  v127
 BYTE   W12
 BYTE   PEND 
 BYTE   PATT
  POIN2 Label_3_0180
 BYTE   PATT
  POIN2 Label_3_0180
// 002   ----------------------------------------
 BYTE   N04  Bn0  v112
 BYTE   N04  Gs1  v127
 BYTE   W12
 BYTE   Dn1  v112
 BYTE   N04  Ds1  v127
 BYTE   W12
 BYTE   Dn1  v112
 BYTE   N04  Ds1  v127
 BYTE   W12
 BYTE   Cn1  v112
 BYTE   N04  Fs1  v127
 BYTE   W12
 BYTE   Cn1  v112
 BYTE   N04  Fs1  v127
 BYTE   W06
 BYTE   Bn0  v112
 BYTE   N04  Gs1  v127
 BYTE   W06
 BYTE   Dn1  v112
 BYTE   N04  Ds1  v127
 BYTE   W12
 BYTE   Cn1  v112
 BYTE   N04  Fs1  v127
 BYTE   W12
 BYTE   Cn1  v112
 BYTE   N04  Fs1  v127
 BYTE   W12
 BYTE   PATT
  POIN2 Label_3_0180
// 003   ----------------------------------------
 BYTE   N04  Bn0  v112
 BYTE   N04  Gs1  v127
 BYTE   W12
 BYTE   Cn1  v112
 BYTE   N04  Fs1  v127
 BYTE   W12
 BYTE   Dn1  v112
 BYTE   N04  Ds1  v127
 BYTE   W12
 BYTE   Cn1  v112
 BYTE   N04  Fs1  v127
 BYTE   W12
 BYTE   Bn0  v112
 BYTE   N04  Gs1  v127
 BYTE   W12
 BYTE   Dn1  v112
 BYTE   N04  Ds1  v127
 BYTE   W12
 BYTE   Dn1  v112
 BYTE   N04  Ds1  v127
 BYTE   W12
 BYTE   Cn1  v112
 BYTE   N04  Fs1  v127
 BYTE   W12
 BYTE   PATT
  POIN2 Label_3_0180
// 004   ----------------------------------------
 BYTE   N04  Bn0  v112
 BYTE   N04  Gs1  v127
 BYTE   W12
 BYTE   Dn1  v112
 BYTE   N04  Ds1  v127
 BYTE   W12
 BYTE   Dn1  v112
 BYTE   N04  Ds1  v127
 BYTE   W12
 BYTE   Cn1  v112
 BYTE   N04  Fs1  v127
 BYTE   W12
 BYTE   Cn1  v112
 BYTE   N04  Fs1  v127
 BYTE   W06
 BYTE   Bn0  v112
 BYTE   N04  Gs1  v127
 BYTE   W06
 BYTE   Cn1  v112
 BYTE   N04  Fs1  v127
 BYTE   W12
 BYTE   Dn1  v112
 BYTE   N04  Ds1  v127
 BYTE   W12
 BYTE   Dn1  v112
 BYTE   N04  Ds1  v127
 BYTE   W12
// 005   ----------------------------------------
Label_3_0D80:
 BYTE   N04  Dn1  v096
 BYTE   N04  Ds1  v127
 BYTE   W12
 BYTE   Bn0  v096
 BYTE   N04  Fs1  v127
 BYTE   W12
 BYTE   Bn0  v096
 BYTE   N04  Gs1  v127
 BYTE   W12
 BYTE   Dn1  v096
 BYTE   N04  Ds1  v127
 BYTE   W12
 BYTE   Dn1  v096
 BYTE   N04  Ds1  v127
 BYTE   W12
 BYTE   Bn0  v096
 BYTE   N04  Fs1  v127
 BYTE   W12
 BYTE   Bn0  v096
 BYTE   N04  Gs1  v127
 BYTE   W12
 BYTE   Cn1  v096
 BYTE   N04  Fs1  v127
 BYTE   W12
 BYTE   PEND 
 BYTE   PATT
  POIN2 Label_3_0D80
 BYTE   PATT
  POIN2 Label_3_0D80
 BYTE   PATT
  POIN2 Label_3_0D80
// 006   ----------------------------------------
Label_3_1380:
 BYTE   N04  Bn0  v096
 BYTE   N04  Fs1  v127
 BYTE   W06
 BYTE   Bn0  v096
 BYTE   N04  Fs1  v127
 BYTE   W06
 BYTE   Cn1  v096
 BYTE   N04  Gs1  v127
 BYTE   W12
 BYTE   Dn1  v096
 BYTE   N04  Ds1  v127
 BYTE   W12
 BYTE   Cn1  v096
 BYTE   N04  Fs1  v127
 BYTE   W12
 BYTE   Bn0  v096
 BYTE   N04  Fs1  v127
 BYTE   W06
 BYTE   Bn0  v096
 BYTE   N04  Fs1  v127
 BYTE   W06
 BYTE   Cn1  v096
 BYTE   N04  Gs1  v127
 BYTE   W12
 BYTE   Dn1  v096
 BYTE   N04  Ds1  v127
 BYTE   W12
 BYTE   Cn1  v096
 BYTE   N04  Fs1  v127
 BYTE   W12
 BYTE   PEND 
 BYTE   PATT
  POIN2 Label_3_1380
 BYTE   PATT
  POIN2 Label_3_1380
 BYTE   PATT
  POIN2 Label_3_1380
// 007   ----------------------------------------
Label_3_1980:
 BYTE   N04  Cn1  v112
 BYTE   N04  Fs1  v127
 BYTE   W12
 BYTE   Bn0  v112
 BYTE   N04  Gs1  v127
 BYTE   W12
 BYTE   Dn1  v112
 BYTE   N04  Ds1  v127
 BYTE   W12
 BYTE   Bn0  v112
 BYTE   N04  Gs1  v127
 BYTE   W12
 BYTE   Cn1  v112
 BYTE   N04  Fs1  v127
 BYTE   W12
 BYTE   Bn0  v112
 BYTE   N04  Gs1  v127
 BYTE   W12
 BYTE   Dn1  v112
 BYTE   N04  Ds1  v127
 BYTE   W12
 BYTE   Bn0  v112
 BYTE   N04  Gs1  v127
 BYTE   W12
 BYTE   PEND 
 BYTE   PATT
  POIN2 Label_3_1980
 BYTE   PATT
  POIN2 Label_3_1980
// 008   ----------------------------------------
Label_3_1E00:
 BYTE   N04  Cn1  v112
 BYTE   N04  Fs1  v127
 BYTE   W12
 BYTE   Bn0  v112
 BYTE   N04  Gs1  v127
 BYTE   W12
 BYTE   Dn1  v112
 BYTE   N04  Ds1  v127
 BYTE   W12
 BYTE   Bn0  v112
 BYTE   N04  Gs1  v127
 BYTE   W12
 BYTE   Dn1  v112
 BYTE   N04  Ds1  v127
 BYTE   W12
 BYTE   Cn1  v112
 BYTE   N04  Fs1  v127
 BYTE   W12
 BYTE   Dn1  v112
 BYTE   N04  Ds1  v127
 BYTE   W12
 BYTE   Dn1  v112
 BYTE   N04  Ds1  v127
 BYTE   W12
 BYTE   PEND 
 BYTE   PATT
  POIN2 Label_3_1980
 BYTE   PATT
  POIN2 Label_3_1980
 BYTE   PATT
  POIN2 Label_3_1980
// 009   ----------------------------------------
Label_3_2400:
 BYTE   N04  Cn1  v112
 BYTE   N04  Fs1  v127
 BYTE   W12
 BYTE   Bn0  v112
 BYTE   N04  Gs1  v127
 BYTE   W12
 BYTE   Dn1  v112
 BYTE   N04  Ds1  v127
 BYTE   W12
 BYTE   Bn0  v112
 BYTE   N04  Gs1  v127
 BYTE   W12
 BYTE   Dn1  v112
 BYTE   N04  Ds1  v127
 BYTE   W12
 BYTE   Cn1  v112
 BYTE   N04  Fs1  v127
 BYTE   W06
 BYTE   Bn0  v112
 BYTE   N04  Gs1  v127
 BYTE   W06
 BYTE   Dn1  v112
 BYTE   N04  Ds1  v127
 BYTE   W12
 BYTE   Dn1  v112
 BYTE   N04  Ds1  v127
 BYTE   W06
 BYTE   Dn1  v112
 BYTE   N04  Ds1  v127
 BYTE   W06
 BYTE   PEND 
// 010   ----------------------------------------
Label_3_2580:
 BYTE   N04  Cn1  v112
 BYTE   N04  Fs1  v127
 BYTE   W06
 BYTE   Cn1  v112
 BYTE   N04  Fs1  v127
 BYTE   W06
 BYTE   Bn0  v112
 BYTE   N04  Gs1  v127
 BYTE   W12
 BYTE   Dn1  v112
 BYTE   N04  Ds1  v127
 BYTE   W12
 BYTE   Cn1  v112
 BYTE   N04  Fs1  v127
 BYTE   W12
 BYTE   Cn1  v112
 BYTE   N04  Fs1  v127
 BYTE   W12
 BYTE   Dn1  v112
 BYTE   N04  Ds1  v127
 BYTE   W06
 BYTE   Dn1  v112
 BYTE   N04  Ds1  v127
 BYTE   W06
 BYTE   Bn0  v112
 BYTE   N04  Gs1  v127
 BYTE   W12
 BYTE   Dn1  v112
 BYTE   N04  Ds1  v127
 BYTE   W12
 BYTE   PEND 
 BYTE   PATT
  POIN2 Label_3_2580
 BYTE   PATT
  POIN2 Label_3_2580
 BYTE   PATT
  POIN2 Label_3_2580
 BYTE   PATT
  POIN2 Label_3_2580
 BYTE   PATT
  POIN2 Label_3_2580
 BYTE   PATT
  POIN2 Label_3_2580
 BYTE   PATT
  POIN2 Label_3_2580
// 011   ----------------------------------------
Label_3_3180:
 BYTE   N04  Bn0  v112
 BYTE   N04  Fs1  v104
 BYTE   W12
 BYTE   Cn1  v112
 BYTE   N04  Gs1  v104
 BYTE   W12
 BYTE   Dn1  v112
 BYTE   N04  Ds1  v104
 BYTE   W12
 BYTE   Cn1  v112
 BYTE   N04  Fs1  v104
 BYTE   W12
 BYTE   Bn0  v112
 BYTE   N04  Fs1  v104
 BYTE   W12
 BYTE   Cn1  v112
 BYTE   N04  Gs1  v104
 BYTE   W12
 BYTE   Dn1  v112
 BYTE   N04  Ds1  v104
 BYTE   W12
 BYTE   Bn0  v112
 BYTE   N04  Gs1  v104
 BYTE   W12
 BYTE   PEND 
 BYTE   PATT
  POIN2 Label_3_3180
 BYTE   PATT
  POIN2 Label_3_3180
 BYTE   PATT
  POIN2 Label_3_3180
 BYTE   PATT
  POIN2 Label_3_3180
 BYTE   PATT
  POIN2 Label_3_3180
 BYTE   PATT
  POIN2 Label_3_3180
 BYTE   PATT
  POIN2 Label_3_3180
 BYTE   PATT
  POIN2 Label_3_3180
 BYTE   PATT
  POIN2 Label_3_3180
 BYTE   PATT
  POIN2 Label_3_3180
 BYTE   PATT
  POIN2 Label_3_3180
 BYTE   PATT
  POIN2 Label_3_3180
 BYTE   PATT
  POIN2 Label_3_3180
 BYTE   PATT
  POIN2 Label_3_3180
 BYTE   PATT
  POIN2 Label_3_3180
 BYTE   PATT
  POIN2 Label_3_3180
// 012   ----------------------------------------
 BYTE   N04  Bn0  v112
 BYTE   N04  Fs1  v104
 BYTE   W12
 BYTE   Cn1  v127
 BYTE   N04  Gs1  v104
 BYTE   W12
 BYTE   Dn1  v127
 BYTE   N04  Ds1  v104
 BYTE   W12
 BYTE   Cn1  v127
 BYTE   N04  Fs1  v104
 BYTE   W12
 BYTE   Bn0  v127
 BYTE   N04  Fs1  v104
 BYTE   W12
 BYTE   Cn1  v127
 BYTE   N04  Gs1  v104
 BYTE   W12
 BYTE   Dn1  v127
 BYTE   N04  Ds1  v104
 BYTE   W12
 BYTE   Dn1  v127
 BYTE   N04  Ds1  v104
 BYTE   W06
 BYTE   Dn1  v127
 BYTE   N04  Ds1  v104
 BYTE   W06
 BYTE   PATT
  POIN2 Label_3_1980
 BYTE   PATT
  POIN2 Label_3_1980
 BYTE   PATT
  POIN2 Label_3_1980
 BYTE   PATT
  POIN2 Label_3_1E00
 BYTE   PATT
  POIN2 Label_3_1980
 BYTE   PATT
  POIN2 Label_3_1980
 BYTE   PATT
  POIN2 Label_3_1980
 BYTE   PATT
  POIN2 Label_3_2400
 BYTE   PATT
  POIN2 Label_3_2580
 BYTE   PATT
  POIN2 Label_3_2580
 BYTE   PATT
  POIN2 Label_3_2580
 BYTE   PATT
  POIN2 Label_3_2580
 BYTE   PATT
  POIN2 Label_3_2580
 BYTE   PATT
  POIN2 Label_3_2580
 BYTE   PATT
  POIN2 Label_3_2580
 BYTE   PATT
  POIN2 Label_3_2580
 BYTE   PATT
  POIN2 Label_3_3180
 BYTE   PATT
  POIN2 Label_3_3180
 BYTE   PATT
  POIN2 Label_3_3180
 BYTE   PATT
  POIN2 Label_3_3180
 BYTE   PATT
  POIN2 Label_3_3180
 BYTE   PATT
  POIN2 Label_3_3180
 BYTE   PATT
  POIN2 Label_3_3180
 BYTE   PATT
  POIN2 Label_3_3180
 BYTE   PATT
  POIN2 Label_3_3180
 BYTE   PATT
  POIN2 Label_3_3180
 BYTE   PATT
  POIN2 Label_3_3180
 BYTE   PATT
  POIN2 Label_3_3180
 BYTE   PATT
  POIN2 Label_3_3180
 BYTE   PATT
  POIN2 Label_3_3180
 BYTE   PATT
  POIN2 Label_3_3180
 BYTE   PATT
  POIN2 Label_3_3180
 BYTE   PATT
  POIN2 Label_3_3180
// 013   ----------------------------------------
 BYTE   N04  Bn0  v112
 BYTE   N04  Fs1  v104
 BYTE   W12
 BYTE   Cn1  v127
 BYTE   N04  Gs1  v104
 BYTE   W12
 BYTE   Dn1  v127
 BYTE   N04  Ds1  v104
 BYTE   W12
 BYTE   Cn1  v127
 BYTE   N04  Fs1  v104
 BYTE   W12
 BYTE   Bn0  v127
 BYTE   N04  Fs1  v104
 BYTE   W12
 BYTE   Cn1  v127
 BYTE   N04  Gs1  v104
 BYTE   W12
 BYTE   Dn1  v127
 BYTE   N04  Ds1  v104
 BYTE   W12
 BYTE   Dn1  v127
 BYTE   N04  Ds1  v104
 BYTE   W06
 BYTE   Dn1  v127
 BYTE   N04  Ds1  v104
 BYTE   W05
 BYTE   GoTo
  POIN2 Label_3_00
 BYTE   FINE

//******************************************************//
	ALIGN 4

songWickedChild:
	BYTE	4	// NumTrks
	BYTE	0	// NumBlks
	BYTE	WickedChild_pri	// Priority
	BYTE	WickedChild_rev	// Reverb.
    
	POIN2	WickedChild_grp
    
	POIN2	WickedChild_001
	POIN2	WickedChild_002
	POIN2	WickedChild_003
	POIN2	WickedChild_004

	
