//Event file generated from Sappy .s format.
	#include "MPlayDef.event"

	#define	songWindsAcrossThePlainsOfAvenir_grp  voicegroup000
	#define	songWindsAcrossThePlainsOfAvenir_pri  0
	#define	songWindsAcrossThePlainsOfAvenir_rev  0
	#define	songWindsAcrossThePlainsOfAvenir_mvl  127
	#define	songWindsAcrossThePlainsOfAvenir_key  0
	#define	songWindsAcrossThePlainsOfAvenir_tbs  1
	#define	songWindsAcrossThePlainsOfAvenir_exg  0
	#define	songWindsAcrossThePlainsOfAvenir_cmp  1

	// .rodata
	//	songWindsAcrossThePlainsOfAvenir
	ALIGN 4


//**************** Track 1 (Midi-Chn.0) ****************//

songWindsAcrossThePlainsOfAvenir_001:
// 000   ----------------------------------------
 BYTE   VOL   80*songWindsAcrossThePlainsOfAvenir_mvl/mxv
 BYTE   KEYSH   songWindsAcrossThePlainsOfAvenir_key+0
Label_0_012C8B90:
 BYTE   TEMPO   120*songWindsAcrossThePlainsOfAvenir_tbs/2
 BYTE   VOICE   48
 BYTE   N48  An3  v064
 BYTE   W48
 BYTE   Gs3
 BYTE   W48
// 001   ----------------------------------------
Label_0_012C8B9A:
 BYTE   N24  En4  v064
 BYTE   W24
 BYTE   Dn4
 BYTE   W24
 BYTE   An3
 BYTE   W24
 BYTE   N12  Gs3
 BYTE   W12
 BYTE   Fs3
 BYTE   W12
 BYTE   PEND 
// 002   ----------------------------------------
 BYTE   N96  Dn4
 BYTE   W96
// 003   ----------------------------------------
Label_0_012C8BAB:
 BYTE   N48  En3  v064
 BYTE   W48
 BYTE   N24  Gs3
 BYTE   W24
 BYTE   N12  An3
 BYTE   W12
 BYTE   Bn3
 BYTE   W12
 BYTE   PEND 
// 004   ----------------------------------------
 BYTE   N48  An3
 BYTE   W48
 BYTE   Gs3
 BYTE   W48
 BYTE   PATT
  POIN2 Label_0_012C8B9A
// 005   ----------------------------------------
 BYTE   N96  Dn4  v064
 BYTE   W96
 BYTE   PATT
  POIN2 Label_0_012C8BAB
// 006   ----------------------------------------
 BYTE   N12  An3  v064
 BYTE   W12
 BYTE   Cs4
 BYTE   W12
 BYTE   N06  Dn4
 BYTE   W12
 BYTE   N12  En4
 BYTE   W12
 BYTE   N48  Cs4
 BYTE   W48
// 007   ----------------------------------------
Label_0_012C8BDA:
 BYTE   N24  Bn3  v064
 BYTE   W24
 BYTE   An3
 BYTE   W24
 BYTE   N48  Dn3
 BYTE   W48
 BYTE   PEND 
// 008   ----------------------------------------
 BYTE   N12  En3
 BYTE   W12
 BYTE   Gs3
 BYTE   W12
 BYTE   N06  An3
 BYTE   W12
 BYTE   N12  Bn3
 BYTE   W12
 BYTE   N48  Gs3
 BYTE   W48
// 009   ----------------------------------------
 BYTE   N24  Fs3
 BYTE   W24
 BYTE   Gs3
 BYTE   W24
 BYTE   N48  Dn4
 BYTE   W48
// 010   ----------------------------------------
 BYTE   N12  An3
 BYTE   W12
 BYTE   Cs4
 BYTE   W12
 BYTE   N06  Dn4
 BYTE   W24
 BYTE   N48  Gs3
 BYTE   W48
 BYTE   PATT
  POIN2 Label_0_012C8BDA
// 011   ----------------------------------------
 BYTE   N12  En3  v064
 BYTE   W12
 BYTE   Gs3
 BYTE   W12
 BYTE   N06  An3
 BYTE   W12
 BYTE   N12  Bn3
 BYTE   W12
 BYTE   En3
 BYTE   W12
 BYTE   Fs3
 BYTE   W12
 BYTE   N06  Gs3
 BYTE   W12
 BYTE   N12  Bn3
 BYTE   W12
// 012   ----------------------------------------
 BYTE   GoTo
  POIN2 Label_0_012C8B90
 BYTE   FINE

//**************** Track 2 (Midi-Chn.1) ****************//

songWindsAcrossThePlainsOfAvenir_002:
// 000   ----------------------------------------
 BYTE   VOL   80*songWindsAcrossThePlainsOfAvenir_mvl/mxv
 BYTE   KEYSH   songWindsAcrossThePlainsOfAvenir_key+0
Label_1_012C8C2C:
 BYTE   VOICE   60
 BYTE   W96
// 001   ----------------------------------------
 BYTE   W96
// 002   ----------------------------------------
 BYTE   W96
// 003   ----------------------------------------
 BYTE   W96
// 004   ----------------------------------------
 BYTE   W96
// 005   ----------------------------------------
 BYTE   W96
// 006   ----------------------------------------
 BYTE   W96
// 007   ----------------------------------------
 BYTE   W96
// 008   ----------------------------------------
 BYTE   N96  An3  v064
 BYTE   W96
// 009   ----------------------------------------
 BYTE   N48  Bn3
 BYTE   W48
 BYTE   Cs4
 BYTE   W48
// 010   ----------------------------------------
 BYTE   N96  Gs3
 BYTE   W96
// 011   ----------------------------------------
 BYTE   N48  An3
 BYTE   W48
 BYTE   Bn3
 BYTE   W48
// 012   ----------------------------------------
 BYTE   N96  An3
 BYTE   W96
// 013   ----------------------------------------
 BYTE   N48  Fs3
 BYTE   W48
 BYTE   An3
 BYTE   W48
// 014   ----------------------------------------
 BYTE   N96  Gs3
 BYTE   W96
// 015   ----------------------------------------
 BYTE   GoTo
  POIN2 Label_1_012C8C2C
 BYTE   FINE

//**************** Track 3 (Midi-Chn.2) ****************//

songWindsAcrossThePlainsOfAvenir_003:
// 000   ----------------------------------------
 BYTE   VOL   80*songWindsAcrossThePlainsOfAvenir_mvl/mxv
 BYTE   KEYSH   songWindsAcrossThePlainsOfAvenir_key+0
Label_2_012C8E8C:
 BYTE   VOICE   68
 BYTE   W96
// 001   ----------------------------------------
 BYTE   W96
// 002   ----------------------------------------
 BYTE   W48
 BYTE   N06  An3  v064
 BYTE   W06
 BYTE   Bn3
 BYTE   W06
 BYTE   Cs4
 BYTE   W06
 BYTE   Dn4
 BYTE   W06
 BYTE   N96  En4
 BYTE   W24
// 003   ----------------------------------------
 BYTE   W96
// 004   ----------------------------------------
 BYTE   W96
// 005   ----------------------------------------
 BYTE   W96
// 006   ----------------------------------------
 BYTE   W48
 BYTE   N12  Cs4
 BYTE   W12
 BYTE   Bn3
 BYTE   W12
 BYTE   An3
 BYTE   W12
 BYTE   Gs3
 BYTE   W12
// 007   ----------------------------------------
 BYTE   N96  En3
 BYTE   W96
// 008   ----------------------------------------
 BYTE   W96
// 009   ----------------------------------------
 BYTE   W96
// 010   ----------------------------------------
 BYTE   W96
// 011   ----------------------------------------
 BYTE   W96
// 012   ----------------------------------------
 BYTE   W96
// 013   ----------------------------------------
 BYTE   W96
// 014   ----------------------------------------
 BYTE   W96
// 015   ----------------------------------------
 BYTE   GoTo
  POIN2 Label_2_012C8E8C
 BYTE   FINE

//**************** Track 4 (Midi-Chn.3) ****************//

songWindsAcrossThePlainsOfAvenir_004:
// 000   ----------------------------------------
 BYTE   VOL   80*songWindsAcrossThePlainsOfAvenir_mvl/mxv
 BYTE   KEYSH   songWindsAcrossThePlainsOfAvenir_key+0
Label_3_012C8EC0:
 BYTE   VOICE   58
 BYTE   N06  En2  v064
 BYTE   W12
 BYTE   N06
 BYTE   W24
 BYTE   N12  Dn2
 BYTE   W12
 BYTE   N06  En2
 BYTE   W12
 BYTE   N06
 BYTE   W24
 BYTE   N12  Dn2
 BYTE   W12
// 001   ----------------------------------------
Label_3_012C8ED3:
 BYTE   N06  Cs2  v064
 BYTE   W12
 BYTE   N06
 BYTE   W24
 BYTE   N12  Bn1
 BYTE   W12
 BYTE   N06  Cs2
 BYTE   W12
 BYTE   N06
 BYTE   W24
 BYTE   N12  Bn1
 BYTE   W12
 BYTE   PEND 
// 002   ----------------------------------------
Label_3_012C8EE5:
 BYTE   N06  Dn2  v064
 BYTE   W12
 BYTE   N06
 BYTE   W24
 BYTE   N12  Cs2
 BYTE   W12
 BYTE   N06  Dn2
 BYTE   W12
 BYTE   N06
 BYTE   W24
 BYTE   N12  Cs2
 BYTE   W12
 BYTE   PEND 
// 003   ----------------------------------------
Label_3_012C8EF7:
 BYTE   N06  En2  v064
 BYTE   W12
 BYTE   N06
 BYTE   W24
 BYTE   N12  Dn2
 BYTE   W12
 BYTE   N06  En2
 BYTE   W12
 BYTE   N06
 BYTE   W24
 BYTE   N12  Dn2
 BYTE   W12
 BYTE   PEND 
 BYTE   PATT
  POIN2 Label_3_012C8EF7
 BYTE   PATT
  POIN2 Label_3_012C8ED3
 BYTE   PATT
  POIN2 Label_3_012C8EE5
 BYTE   PATT
  POIN2 Label_3_012C8EF7
 BYTE   PATT
  POIN2 Label_3_012C8ED3
 BYTE   PATT
  POIN2 Label_3_012C8EE5
// 004   ----------------------------------------
Label_3_012C8F27:
 BYTE   N06  Fs2  v064
 BYTE   W12
 BYTE   N06
 BYTE   W24
 BYTE   N12  En2
 BYTE   W12
 BYTE   N06  Fs2
 BYTE   W12
 BYTE   N06
 BYTE   W24
 BYTE   N12  En2
 BYTE   W12
 BYTE   PEND 
 BYTE   PATT
  POIN2 Label_3_012C8F27
 BYTE   PATT
  POIN2 Label_3_012C8ED3
 BYTE   PATT
  POIN2 Label_3_012C8EE5
 BYTE   PATT
  POIN2 Label_3_012C8EF7
// 005   ----------------------------------------
 BYTE   GoTo
  POIN2 Label_3_012C8EC0
 BYTE   FINE

//**************** Track 5 (Midi-Chn.4) ****************//

songWindsAcrossThePlainsOfAvenir_005:
// 000   ----------------------------------------
 BYTE   VOL   80*songWindsAcrossThePlainsOfAvenir_mvl/mxv
 BYTE   KEYSH   songWindsAcrossThePlainsOfAvenir_key+0
Label_4_012C8F58:
 BYTE   VOICE   60
 BYTE   N96  En2  v032
 BYTE   N96  Gs2
 BYTE   N96  Bn2
 BYTE   W96
// 001   ----------------------------------------
Label_4_012C8F62:
 BYTE   N96  Cs2  v032
 BYTE   N96  En2
 BYTE   N96  Gs2
 BYTE   W96
 BYTE   PEND 
// 002   ----------------------------------------
Label_4_012C8F6B:
 BYTE   N96  Dn2  v032
 BYTE   N96  Fs2
 BYTE   N96  An2
 BYTE   W96
 BYTE   PEND 
// 003   ----------------------------------------
Label_4_012C8F74:
 BYTE   N96  En2  v032
 BYTE   N48  An2
 BYTE   N96  Bn2
 BYTE   W48
 BYTE   N48  Gs2
 BYTE   W48
 BYTE   PEND 
// 004   ----------------------------------------
Label_4_012C8F80:
 BYTE   N96  En2  v032
 BYTE   N96  Gs2
 BYTE   N96  Bn2
 BYTE   W96
 BYTE   PEND 
 BYTE   PATT
  POIN2 Label_4_012C8F62
 BYTE   PATT
  POIN2 Label_4_012C8F6B
 BYTE   PATT
  POIN2 Label_4_012C8F74
// 005   ----------------------------------------
Label_4_012C8F98:
 BYTE   N96  Cs2  v032
 BYTE   N96  En2
 BYTE   N96  An2
 BYTE   W96
 BYTE   PEND 
// 006   ----------------------------------------
Label_4_012C8FA1:
 BYTE   N96  Dn2  v032
 BYTE   N96  Fs2
 BYTE   N96  Bn2
 BYTE   W96
 BYTE   PEND 
 BYTE   PATT
  POIN2 Label_4_012C8F80
// 007   ----------------------------------------
 BYTE   N96  Fs2  v032
 BYTE   N96  An2
 BYTE   N96  Cs3
 BYTE   W96
 BYTE   PATT
  POIN2 Label_4_012C8F98
 BYTE   PATT
  POIN2 Label_4_012C8FA1
 BYTE   PATT
  POIN2 Label_4_012C8F80
// 008   ----------------------------------------
 BYTE   GoTo
  POIN2 Label_4_012C8F58
 BYTE   FINE

//******************************************************//
	ALIGN 4

songWindsAcrossThePlainsOfAvenir:
	BYTE	5	// NumTrks
	BYTE	0	// NumBlks
	BYTE	songWindsAcrossThePlainsOfAvenir_pri	// Priority
	BYTE	songWindsAcrossThePlainsOfAvenir_rev	// Reverb.
    
	POIN2	songWindsAcrossThePlainsOfAvenir_grp
    
	POIN2	songWindsAcrossThePlainsOfAvenir_001
	POIN2	songWindsAcrossThePlainsOfAvenir_002
	POIN2	songWindsAcrossThePlainsOfAvenir_003
	POIN2	songWindsAcrossThePlainsOfAvenir_004
	POIN2	songWindsAcrossThePlainsOfAvenir_005

	
