//Event file generated from Sappy .s format.
	#include "MPlayDef.event"

	#define	songZelos_grp  voicegroup000
	#define	songZelos_pri  0
	#define	songZelos_rev  0
	#define	songZelos_mvl  127
	#define	songZelos_key  0
	#define	songZelos_tbs  1
	#define	songZelos_exg  0
	#define	songZelos_cmp  1

	// .rodata
	//	songZelos
	ALIGN 4


//**************** Track 1 (Midi-Chn.0) ****************//

songZelos_001:
// 000   ----------------------------------------
 BYTE   KEYSH   songZelos_key+0
Label_0_012794BA:
 BYTE   TEMPO   124*songZelos_tbs/2
 BYTE   VOICE   24
 BYTE   VOL   45*songZelos_mvl/mxv
 BYTE   MODT 0
 BYTE   CnM2  v000
 BYTE   LFOS 0
 BYTE   CnM2  v044
 BYTE   VOL   88*songZelos_mvl/mxv
 BYTE   PAN   c_v+0
 BYTE   VOL   88*songZelos_mvl/mxv
 BYTE   N06  Dn3  v040
 BYTE   W06
 BYTE   Dn4
 BYTE   W06
 BYTE   N12
 BYTE   W12
 BYTE   N06  Cs4
 BYTE   W06
 BYTE   N12
 BYTE   W12
 BYTE   N06  Cn4
 BYTE   W12
 BYTE   N06
 BYTE   W12
 BYTE   N06
 BYTE   W06
 BYTE   N12  Bn3
 BYTE   W12
 BYTE   N12
 BYTE   W12
// 001   ----------------------------------------
Label_0_012794E5:
 BYTE   N06  An3  v040
 BYTE   W12
 BYTE   N06
 BYTE   W20
 BYTE   N07
 BYTE   W07
 BYTE   N08
 BYTE   W09
 BYTE   N08
 BYTE   W48
 BYTE   PEND 
// 002   ----------------------------------------
Label_0_012794F2:
 BYTE   N12  Fs3  v040
 BYTE   W18
 BYTE   N06  Dn3
 BYTE   W06
 BYTE   Fs3
 BYTE   W06
 BYTE   An3
 BYTE   W12
 BYTE   Fs3
 BYTE   W12
 BYTE   N06
 BYTE   W12
 BYTE   N06
 BYTE   W06
 BYTE   N12  Dn3
 BYTE   W24
 BYTE   PEND 
// 003   ----------------------------------------
Label_0_01279507:
 BYTE   N12  Bn3  v040
 BYTE   W18
 BYTE   N06  Dn3
 BYTE   W06
 BYTE   Gn3
 BYTE   W06
 BYTE   Bn3
 BYTE   W12
 BYTE   Gn3
 BYTE   W12
 BYTE   N06
 BYTE   W12
 BYTE   N06
 BYTE   W06
 BYTE   N12  Dn3
 BYTE   W24
 BYTE   PEND 
// 004   ----------------------------------------
Label_0_0127951C:
 BYTE   N12  An3  v040
 BYTE   W18
 BYTE   N06  En3
 BYTE   W06
 BYTE   An3
 BYTE   W06
 BYTE   Cs4
 BYTE   W12
 BYTE   An3
 BYTE   W12
 BYTE   N06
 BYTE   W12
 BYTE   N06
 BYTE   W06
 BYTE   N12  En3
 BYTE   W24
 BYTE   PEND 
// 005   ----------------------------------------
Label_0_01279531:
 BYTE   N12  Dn3  v040
 BYTE   W24
 BYTE   Cs3
 BYTE   W24
 BYTE   Cn3
 BYTE   W24
 BYTE   Bn2
 BYTE   W24
 BYTE   PEND 
 BYTE   PATT
  POIN2 Label_0_012794F2
 BYTE   PATT
  POIN2 Label_0_01279507
 BYTE   PATT
  POIN2 Label_0_0127951C
// 006   ----------------------------------------
Label_0_0127954B:
 BYTE   N72  Dn4  v040
 BYTE   W72
 BYTE   N12  Cs4
 BYTE   W12
 BYTE   Dn4
 BYTE   W12
 BYTE   PEND 
// 007   ----------------------------------------
Label_0_01279555:
 BYTE   N48  En4  v040
 BYTE   W54
 BYTE   N18
 BYTE   W18
 BYTE   N12  Gn3
 BYTE   W12
 BYTE   En4
 BYTE   W12
 BYTE   PEND 
// 008   ----------------------------------------
Label_0_01279561:
 BYTE   N60  An3  v040
 BYTE   W60
 BYTE   N12  Dn4
 BYTE   W12
 BYTE   Cs4
 BYTE   W12
 BYTE   Bn3
 BYTE   W12
 BYTE   PEND 
// 009   ----------------------------------------
Label_0_0127956D:
 BYTE   N48  An3  v040
 BYTE   W54
 BYTE   N18
 BYTE   W18
 BYTE   N12  Cs3
 BYTE   W12
 BYTE   En3
 BYTE   W12
 BYTE   PEND 
// 010   ----------------------------------------
Label_0_01279579:
 BYTE   N60  Dn3  v040
 BYTE   W60
 BYTE   N12  Gn3
 BYTE   W12
 BYTE   N12
 BYTE   W12
 BYTE   N12
 BYTE   W12
 BYTE   PEND 
// 011   ----------------------------------------
Label_0_01279585:
 BYTE   N60  Fs3  v040
 BYTE   W60
 BYTE   N12
 BYTE   W12
 BYTE   Fs4
 BYTE   W12
 BYTE   En4
 BYTE   W12
 BYTE   PEND 
// 012   ----------------------------------------
Label_0_01279590:
 BYTE   N18  Dn4  v040
 BYTE   W18
 BYTE   Cs4
 BYTE   W18
 BYTE   N60  Fs3
 BYTE   W60
 BYTE   PEND 
// 013   ----------------------------------------
Label_0_0127959A:
 BYTE   W12
 BYTE   N12  Bn3  v040
 BYTE   W12
 BYTE   N12
 BYTE   W12
 BYTE   N06  Cs4
 BYTE   W06
 BYTE   N12  Dn4
 BYTE   W12
 BYTE   N12
 BYTE   W12
 BYTE   N06  Gn3
 BYTE   W06
 BYTE   N08  Fs4
 BYTE   W08
 BYTE   N07  En4
 BYTE   W07
 BYTE   N08  Dn4
 BYTE   W09
 BYTE   PEND 
// 014   ----------------------------------------
Label_0_012795B6:
 BYTE   N72  En4  v040
 BYTE   W72
 BYTE   N08  Gs4
 BYTE   W08
 BYTE   N07  Fs4
 BYTE   W07
 BYTE   N08  En4
 BYTE   W09
 BYTE   PEND 
// 015   ----------------------------------------
 BYTE   N72  Fs4
 BYTE   W96
 BYTE   PATT
  POIN2 Label_0_012794E5
 BYTE   PATT
  POIN2 Label_0_012794F2
 BYTE   PATT
  POIN2 Label_0_01279507
 BYTE   PATT
  POIN2 Label_0_0127951C
 BYTE   PATT
  POIN2 Label_0_01279531
 BYTE   PATT
  POIN2 Label_0_012794F2
 BYTE   PATT
  POIN2 Label_0_01279507
 BYTE   PATT
  POIN2 Label_0_0127951C
 BYTE   PATT
  POIN2 Label_0_0127954B
 BYTE   PATT
  POIN2 Label_0_01279555
 BYTE   PATT
  POIN2 Label_0_01279561
 BYTE   PATT
  POIN2 Label_0_0127956D
 BYTE   PATT
  POIN2 Label_0_01279579
 BYTE   PATT
  POIN2 Label_0_01279585
 BYTE   PATT
  POIN2 Label_0_01279590
 BYTE   PATT
  POIN2 Label_0_0127959A
 BYTE   PATT
  POIN2 Label_0_012795B6
// 016   ----------------------------------------
 BYTE   N72  Fs4  v040
 BYTE   W72
 BYTE   VOL   88*songZelos_mvl/mxv
 BYTE   W24
// 017   ----------------------------------------
 BYTE   GoTo
  POIN2 Label_0_012794BA
 BYTE   FINE

//**************** Track 2 (Midi-Chn.1) ****************//

songZelos_002:
// 000   ----------------------------------------
 BYTE   KEYSH   songZelos_key+0
Label_1_0127962E:
 BYTE   VOICE   24
 BYTE   VOL   45*songZelos_mvl/mxv
 BYTE   MODT 0
 BYTE   CnM2  v000
 BYTE   LFOS 0
 BYTE   CnM2  v044
 BYTE   VOL   85*songZelos_mvl/mxv
 BYTE   PAN   c_v+0
 BYTE   VOL   85*songZelos_mvl/mxv
 BYTE   N06  Fs3  v040
 BYTE   W12
 BYTE   N12  Dn3
 BYTE   W12
 BYTE   N06  Cs3
 BYTE   W06
 BYTE   N12
 BYTE   W12
 BYTE   N06  Cn3
 BYTE   W12
 BYTE   N06
 BYTE   W12
 BYTE   N06
 BYTE   W06
 BYTE   N12  Bn2
 BYTE   W12
 BYTE   N12
 BYTE   W12
// 001   ----------------------------------------
Label_1_01279656:
 BYTE   N06  An2  v040
 BYTE   W12
 BYTE   N06
 BYTE   W20
 BYTE   N07
 BYTE   W07
 BYTE   N08
 BYTE   W09
 BYTE   N08
 BYTE   W48
 BYTE   PEND 
// 002   ----------------------------------------
Label_1_01279663:
 BYTE   N12  An3  v040
 BYTE   W42
 BYTE   N06
 BYTE   W12
 BYTE   N06
 BYTE   W42
 BYTE   PEND 
// 003   ----------------------------------------
Label_1_0127966C:
 BYTE   N12  Gn3  v040
 BYTE   W42
 BYTE   N06  Bn3
 BYTE   W12
 BYTE   N06
 BYTE   W42
 BYTE   PEND 
// 004   ----------------------------------------
Label_1_01279676:
 BYTE   N12  Cs4  v040
 BYTE   W42
 BYTE   N06
 BYTE   W12
 BYTE   N06
 BYTE   W42
 BYTE   PEND 
// 005   ----------------------------------------
Label_1_0127967F:
 BYTE   N12  An3  v040
 BYTE   W24
 BYTE   N12
 BYTE   W24
 BYTE   N12
 BYTE   W24
 BYTE   N12
 BYTE   W24
 BYTE   PEND 
 BYTE   PATT
  POIN2 Label_1_01279663
 BYTE   PATT
  POIN2 Label_1_0127966C
 BYTE   PATT
  POIN2 Label_1_01279676
// 006   ----------------------------------------
 BYTE   N72  An3  v040
 BYTE   W96
// 007   ----------------------------------------
Label_1_0127969D:
 BYTE   W54
 BYTE   N18  Bn3  v040
 BYTE   W30
 BYTE   N12
 BYTE   W12
 BYTE   PEND 
// 008   ----------------------------------------
 BYTE   N60  Dn4
 BYTE   W96
// 009   ----------------------------------------
Label_1_012796A8:
 BYTE   W54
 BYTE   N18  En3  v040
 BYTE   W30
 BYTE   N12  An3
 BYTE   W12
 BYTE   PEND 
// 010   ----------------------------------------
 BYTE   N60  Fs3
 BYTE   W96
// 011   ----------------------------------------
 BYTE   Cs3
 BYTE   W96
// 012   ----------------------------------------
Label_1_012796B6:
 BYTE   N18  Fs3  v040
 BYTE   W36
 BYTE   N60  Bn3
 BYTE   W60
 BYTE   PEND 
// 013   ----------------------------------------
 BYTE   W96
// 014   ----------------------------------------
 BYTE   W96
// 015   ----------------------------------------
 BYTE   W96
 BYTE   PATT
  POIN2 Label_1_01279656
 BYTE   PATT
  POIN2 Label_1_01279663
 BYTE   PATT
  POIN2 Label_1_0127966C
 BYTE   PATT
  POIN2 Label_1_01279676
 BYTE   PATT
  POIN2 Label_1_0127967F
 BYTE   PATT
  POIN2 Label_1_01279663
 BYTE   PATT
  POIN2 Label_1_0127966C
 BYTE   PATT
  POIN2 Label_1_01279676
// 016   ----------------------------------------
 BYTE   N72  An3  v040
 BYTE   W96
 BYTE   PATT
  POIN2 Label_1_0127969D
// 017   ----------------------------------------
 BYTE   N60  Dn4  v040
 BYTE   W96
 BYTE   PATT
  POIN2 Label_1_012796A8
// 018   ----------------------------------------
 BYTE   N60  Fs3  v040
 BYTE   W96
// 019   ----------------------------------------
 BYTE   Cs3
 BYTE   W96
 BYTE   PATT
  POIN2 Label_1_012796B6
// 020   ----------------------------------------
 BYTE   W96
// 021   ----------------------------------------
 BYTE   W96
// 022   ----------------------------------------
 BYTE   W72
 BYTE   VOL   85*songZelos_mvl/mxv
 BYTE   W24
// 023   ----------------------------------------
 BYTE   GoTo
  POIN2 Label_1_0127962E
 BYTE   FINE

//**************** Track 3 (Midi-Chn.2) ****************//

songZelos_003:
// 000   ----------------------------------------
 BYTE   KEYSH   songZelos_key+0
Label_2_01279716:
 BYTE   VOICE   24
 BYTE   VOL   56*songZelos_mvl/mxv
 BYTE   MODT 0
 BYTE   CnM2  v000
 BYTE   LFOS 0
 BYTE   CnM2  v044
 BYTE   VOL   85*songZelos_mvl/mxv
 BYTE   PAN   c_v+0
 BYTE   VOL   85*songZelos_mvl/mxv
 BYTE   W03
 BYTE   N06  An3  v060
 BYTE   W09
 BYTE   N12
 BYTE   W12
 BYTE   N06
 BYTE   W06
 BYTE   N12
 BYTE   W12
 BYTE   N06
 BYTE   W12
 BYTE   N06
 BYTE   W12
 BYTE   N06
 BYTE   W06
 BYTE   N12
 BYTE   W12
 BYTE   N12
 BYTE   W12
// 001   ----------------------------------------
Label_2_0127973B:
 BYTE   N06  En3  v060
 BYTE   W12
 BYTE   N06
 BYTE   W20
 BYTE   N07
 BYTE   W07
 BYTE   N08
 BYTE   W09
 BYTE   N08
 BYTE   W48
 BYTE   PEND 
// 002   ----------------------------------------
 BYTE   W96
// 003   ----------------------------------------
 BYTE   W96
// 004   ----------------------------------------
 BYTE   W96
// 005   ----------------------------------------
Label_2_0127974B:
 BYTE   N12  Dn4  v060
 BYTE   W24
 BYTE   Cs4
 BYTE   W24
 BYTE   Cn4
 BYTE   W24
 BYTE   Bn3
 BYTE   W24
 BYTE   PEND 
// 006   ----------------------------------------
 BYTE   W96
// 007   ----------------------------------------
 BYTE   W96
// 008   ----------------------------------------
 BYTE   W96
// 009   ----------------------------------------
 BYTE   N72  Dn3
 BYTE   W96
// 010   ----------------------------------------
 BYTE   W96
// 011   ----------------------------------------
 BYTE   W96
// 012   ----------------------------------------
 BYTE   W96
// 013   ----------------------------------------
 BYTE   W96
// 014   ----------------------------------------
 BYTE   W96
// 015   ----------------------------------------
 BYTE   W96
// 016   ----------------------------------------
 BYTE   W96
// 017   ----------------------------------------
 BYTE   W96
// 018   ----------------------------------------
 BYTE   W96
 BYTE   PATT
  POIN2 Label_2_0127973B
// 019   ----------------------------------------
 BYTE   W96
// 020   ----------------------------------------
 BYTE   W96
// 021   ----------------------------------------
 BYTE   W96
 BYTE   PATT
  POIN2 Label_2_0127974B
// 022   ----------------------------------------
 BYTE   W96
// 023   ----------------------------------------
 BYTE   W96
// 024   ----------------------------------------
 BYTE   W96
// 025   ----------------------------------------
 BYTE   N72  Dn3  v060
 BYTE   W96
// 026   ----------------------------------------
 BYTE   W96
// 027   ----------------------------------------
 BYTE   W96
// 028   ----------------------------------------
 BYTE   W96
// 029   ----------------------------------------
 BYTE   W96
// 030   ----------------------------------------
 BYTE   W96
// 031   ----------------------------------------
 BYTE   W96
// 032   ----------------------------------------
 BYTE   W96
// 033   ----------------------------------------
 BYTE   W96
// 034   ----------------------------------------
 BYTE   W72
 BYTE   VOL   85*songZelos_mvl/mxv
 BYTE   W24
// 035   ----------------------------------------
 BYTE   GoTo
  POIN2 Label_2_01279716
 BYTE   FINE

//**************** Track 4 (Midi-Chn.3) ****************//

songZelos_004:
// 000   ----------------------------------------
 BYTE   KEYSH   songZelos_key+0
Label_3_0127978E:
 BYTE   VOICE   65
 BYTE   VOL   25*songZelos_mvl/mxv
 BYTE   MODT 0
 BYTE   CnM2  v000
 BYTE   LFOS 0
 BYTE   CnM2  v044
 BYTE   VOL   60*songZelos_mvl/mxv
 BYTE   PAN   c_v+0
 BYTE   VOL   60*songZelos_mvl/mxv
 BYTE   W96
// 001   ----------------------------------------
 BYTE   N06  An3  v080
 BYTE   W12
 BYTE   N06
 BYTE   W20
 BYTE   N07
 BYTE   W07
 BYTE   N08
 BYTE   W09
 BYTE   N08
 BYTE   W18
 BYTE   N06
 BYTE   W06
 BYTE   Bn3
 BYTE   W12
 BYTE   Cs4
 BYTE   W12
// 002   ----------------------------------------
Label_3_012797B1:
 BYTE   N60  Dn4  v080
 BYTE   W60
 BYTE   N06
 BYTE   W12
 BYTE   Cs4
 BYTE   W12
 BYTE   Dn4
 BYTE   W12
 BYTE   PEND 
// 003   ----------------------------------------
Label_3_012797BC:
 BYTE   N12  En4  v080
 BYTE   W12
 BYTE   N06
 BYTE   W06
 BYTE   N84  Bn3
 BYTE   W78
 BYTE   PEND 
// 004   ----------------------------------------
Label_3_012797C6:
 BYTE   W12
 BYTE   N06  Cs4  v080
 BYTE   W12
 BYTE   An3
 BYTE   W12
 BYTE   Bn3
 BYTE   W06
 BYTE   Cs4
 BYTE   W12
 BYTE   N06
 BYTE   W12
 BYTE   Dn4
 BYTE   W06
 BYTE   N12  En4
 BYTE   W12
 BYTE   Cs4
 BYTE   W12
 BYTE   PEND 
// 005   ----------------------------------------
Label_3_012797DB:
 BYTE   N12  Bn3  v080
 BYTE   W12
 BYTE   N06
 BYTE   W06
 BYTE   N78  An3
 BYTE   W78
 BYTE   PEND 
 BYTE   PATT
  POIN2 Label_3_012797B1
 BYTE   PATT
  POIN2 Label_3_012797BC
// 006   ----------------------------------------
Label_3_012797EF:
 BYTE   W12
 BYTE   N06  Cs4  v080
 BYTE   W12
 BYTE   An3
 BYTE   W12
 BYTE   Bn3
 BYTE   W06
 BYTE   Cs4
 BYTE   W12
 BYTE   N06
 BYTE   W12
 BYTE   Dn4
 BYTE   W06
 BYTE   N12  An4
 BYTE   W12
 BYTE   Fs4
 BYTE   W12
 BYTE   PEND 
// 007   ----------------------------------------
Label_3_01279804:
 BYTE   N12  En4  v080
 BYTE   W12
 BYTE   N06
 BYTE   W06
 BYTE   N78  Dn4
 BYTE   W78
 BYTE   PEND 
// 008   ----------------------------------------
 BYTE   W96
// 009   ----------------------------------------
 BYTE   W96
// 010   ----------------------------------------
 BYTE   W96
// 011   ----------------------------------------
 BYTE   W96
// 012   ----------------------------------------
 BYTE   W96
// 013   ----------------------------------------
 BYTE   W96
// 014   ----------------------------------------
 BYTE   W96
// 015   ----------------------------------------
 BYTE   W96
// 016   ----------------------------------------
 BYTE   W96
// 017   ----------------------------------------
 BYTE   W66
 BYTE   N06  An3
 BYTE   W06
 BYTE   Bn3
 BYTE   W12
 BYTE   Cs4
 BYTE   W12
 BYTE   PATT
  POIN2 Label_3_012797B1
 BYTE   PATT
  POIN2 Label_3_012797BC
 BYTE   PATT
  POIN2 Label_3_012797C6
 BYTE   PATT
  POIN2 Label_3_012797DB
 BYTE   PATT
  POIN2 Label_3_012797B1
 BYTE   PATT
  POIN2 Label_3_012797BC
 BYTE   PATT
  POIN2 Label_3_012797EF
 BYTE   PATT
  POIN2 Label_3_01279804
// 018   ----------------------------------------
 BYTE   VOL   60*songZelos_mvl/mxv
 BYTE   W96
// 019   ----------------------------------------
 BYTE   W96
// 020   ----------------------------------------
 BYTE   W96
// 021   ----------------------------------------
 BYTE   W96
// 022   ----------------------------------------
 BYTE   W96
// 023   ----------------------------------------
 BYTE   W96
// 024   ----------------------------------------
 BYTE   W96
// 025   ----------------------------------------
 BYTE   W96
// 026   ----------------------------------------
 BYTE   W96
// 027   ----------------------------------------
 BYTE   GoTo
  POIN2 Label_3_0127978E
 BYTE   FINE

//**************** Track 5 (Midi-Chn.4) ****************//

songZelos_005:
// 000   ----------------------------------------
 BYTE   KEYSH   songZelos_key+0
Label_4_0127985A:
 BYTE   VOICE   38
 BYTE   VOL   18*songZelos_mvl/mxv
 BYTE   MODT 0
 BYTE   CnM2  v000
 BYTE   LFOS 0
 BYTE   CnM2  v044
 BYTE   VOL   60*songZelos_mvl/mxv
 BYTE   PAN   c_v+0
 BYTE   VOL   60*songZelos_mvl/mxv
 BYTE   N06  Dn2  v060
 BYTE   W12
 BYTE   N12
 BYTE   W12
 BYTE   N06  Cs2
 BYTE   W06
 BYTE   N12
 BYTE   W12
 BYTE   N06  Cn2
 BYTE   W12
 BYTE   N06
 BYTE   W12
 BYTE   N06
 BYTE   W06
 BYTE   N12  Bn1
 BYTE   W12
 BYTE   N12
 BYTE   W12
// 001   ----------------------------------------
Label_4_01279881:
 BYTE   N06  An1  v060
 BYTE   W12
 BYTE   N06
 BYTE   W20
 BYTE   N07
 BYTE   W07
 BYTE   N08
 BYTE   W09
 BYTE   N08
 BYTE   W48
 BYTE   PEND 
// 002   ----------------------------------------
Label_4_0127988E:
 BYTE   N24  Dn2  v060
 BYTE   W24
 BYTE   N18  An1
 BYTE   W18
 BYTE   N12  Dn2
 BYTE   W12
 BYTE   N12
 BYTE   W12
 BYTE   N06
 BYTE   W06
 BYTE   N24  An1
 BYTE   W24
 BYTE   PEND 
// 003   ----------------------------------------
Label_4_012798A0:
 BYTE   N24  Gn1  v060
 BYTE   W24
 BYTE   N18  Dn2
 BYTE   W18
 BYTE   N12  Gn1
 BYTE   W12
 BYTE   N12
 BYTE   W12
 BYTE   N06
 BYTE   W06
 BYTE   N24  Dn2
 BYTE   W24
 BYTE   PEND 
// 004   ----------------------------------------
Label_4_012798B2:
 BYTE   N24  An1  v060
 BYTE   W24
 BYTE   N18  En2
 BYTE   W18
 BYTE   N12  An1
 BYTE   W12
 BYTE   N12
 BYTE   W12
 BYTE   N06
 BYTE   W06
 BYTE   N24  En1
 BYTE   W24
 BYTE   PEND 
// 005   ----------------------------------------
Label_4_012798C4:
 BYTE   N48  Dn2  v060
 BYTE   W48
 BYTE   N24  Fs2
 BYTE   W24
 BYTE   An1
 BYTE   W24
 BYTE   PEND 
 BYTE   PATT
  POIN2 Label_4_0127988E
 BYTE   PATT
  POIN2 Label_4_012798A0
 BYTE   PATT
  POIN2 Label_4_012798B2
// 006   ----------------------------------------
Label_4_012798DD:
 BYTE   N48  Dn2  v060
 BYTE   W48
 BYTE   N24  Fn1
 BYTE   W24
 BYTE   Dn2
 BYTE   W24
 BYTE   PEND 
// 007   ----------------------------------------
Label_4_012798E7:
 BYTE   N18  Gn2  v060
 BYTE   W18
 BYTE   N06
 BYTE   W06
 BYTE   N18  Dn2
 BYTE   W18
 BYTE   N06
 BYTE   W06
 BYTE   N18  Gn2
 BYTE   W18
 BYTE   N06  Bn1
 BYTE   W06
 BYTE   N12  Dn2
 BYTE   W12
 BYTE   Gn2
 BYTE   W12
 BYTE   PEND 
// 008   ----------------------------------------
Label_4_012798FE:
 BYTE   N18  Gn2  v060
 BYTE   W18
 BYTE   N06  Fs2
 BYTE   W06
 BYTE   N18  Cs2
 BYTE   W18
 BYTE   N06
 BYTE   W06
 BYTE   N18  Fs2
 BYTE   W18
 BYTE   N06  Cs2
 BYTE   W06
 BYTE   N12  Dn2
 BYTE   W12
 BYTE   Fs2
 BYTE   W12
 BYTE   PEND 
// 009   ----------------------------------------
Label_4_01279916:
 BYTE   N18  En2  v060
 BYTE   W18
 BYTE   N06
 BYTE   W06
 BYTE   N18  Bn1
 BYTE   W18
 BYTE   N06
 BYTE   W06
 BYTE   N18  En2
 BYTE   W18
 BYTE   N06  Bn1
 BYTE   W06
 BYTE   N12  Dn2
 BYTE   W12
 BYTE   Fs2
 BYTE   W12
 BYTE   PEND 
// 010   ----------------------------------------
Label_4_0127992D:
 BYTE   N24  Cs2  v060
 BYTE   W24
 BYTE   An2
 BYTE   W24
 BYTE   Fs2
 BYTE   W24
 BYTE   N12  Cs2
 BYTE   W12
 BYTE   En2
 BYTE   W12
 BYTE   PEND 
// 011   ----------------------------------------
Label_4_0127993B:
 BYTE   N24  Fs2  v060
 BYTE   W24
 BYTE   N12
 BYTE   W12
 BYTE   N12
 BYTE   W12
 BYTE   N48  Cs3
 BYTE   W48
 BYTE   PEND 
// 012   ----------------------------------------
Label_4_01279947:
 BYTE   N24  Bn2  v060
 BYTE   W24
 BYTE   Fs2
 BYTE   W24
 BYTE   N18  Bn2
 BYTE   W18
 BYTE   Fs2
 BYTE   W18
 BYTE   N12  Dn2
 BYTE   W12
 BYTE   PEND 
// 013   ----------------------------------------
Label_4_01279956:
 BYTE   N18  En2  v060
 BYTE   W18
 BYTE   N06
 BYTE   W06
 BYTE   N18  Bn1
 BYTE   W18
 BYTE   N06
 BYTE   W06
 BYTE   N18  En2
 BYTE   W18
 BYTE   N06  Bn1
 BYTE   W06
 BYTE   N12  Dn2
 BYTE   W12
 BYTE   En2
 BYTE   W12
 BYTE   PEND 
// 014   ----------------------------------------
Label_4_0127996D:
 BYTE   N18  An2  v060
 BYTE   W18
 BYTE   N06
 BYTE   W06
 BYTE   N18  En2
 BYTE   W18
 BYTE   N06
 BYTE   W06
 BYTE   N18  An2
 BYTE   W18
 BYTE   N06  En2
 BYTE   W06
 BYTE   N12  Gs2
 BYTE   W12
 BYTE   An2
 BYTE   W12
 BYTE   PEND 
// 015   ----------------------------------------
Label_4_01279984:
 BYTE   N18  Bn2  v060
 BYTE   W18
 BYTE   N06
 BYTE   W06
 BYTE   N18  Fs2
 BYTE   W18
 BYTE   N06
 BYTE   W06
 BYTE   N18  Ds2
 BYTE   W18
 BYTE   N06
 BYTE   W06
 BYTE   N12  Bn1
 BYTE   W12
 BYTE   Bn2
 BYTE   W12
 BYTE   PEND 
 BYTE   PATT
  POIN2 Label_4_01279881
 BYTE   PATT
  POIN2 Label_4_0127988E
 BYTE   PATT
  POIN2 Label_4_012798A0
 BYTE   PATT
  POIN2 Label_4_012798B2
 BYTE   PATT
  POIN2 Label_4_012798C4
 BYTE   PATT
  POIN2 Label_4_0127988E
 BYTE   PATT
  POIN2 Label_4_012798A0
 BYTE   PATT
  POIN2 Label_4_012798B2
 BYTE   PATT
  POIN2 Label_4_012798DD
 BYTE   PATT
  POIN2 Label_4_012798E7
 BYTE   PATT
  POIN2 Label_4_012798FE
 BYTE   PATT
  POIN2 Label_4_01279916
 BYTE   PATT
  POIN2 Label_4_0127992D
 BYTE   PATT
  POIN2 Label_4_0127993B
 BYTE   PATT
  POIN2 Label_4_01279947
 BYTE   PATT
  POIN2 Label_4_01279956
 BYTE   PATT
  POIN2 Label_4_0127996D
 BYTE   PATT
  POIN2 Label_4_01279984
// 016   ----------------------------------------
 BYTE   GoTo
  POIN2 Label_4_0127985A
 BYTE   FINE

//**************** Track 6 (Midi-Chn.5) ****************//

songZelos_006:
// 000   ----------------------------------------
 BYTE   KEYSH   songZelos_key+0
Label_5_012799FE:
 BYTE   VOICE   51
 BYTE   VOL   10*songZelos_mvl/mxv
 BYTE   MODT 0
 BYTE   CnM2  v000
 BYTE   LFOS 0
 BYTE   CnM2  v044
 BYTE   VOL   40*songZelos_mvl/mxv
 BYTE   PAN   c_v+0
 BYTE   W96
// 001   ----------------------------------------
 BYTE   W96
// 002   ----------------------------------------
 BYTE   W96
// 003   ----------------------------------------
 BYTE   W96
// 004   ----------------------------------------
 BYTE   W96
// 005   ----------------------------------------
 BYTE   W96
// 006   ----------------------------------------
 BYTE   W96
// 007   ----------------------------------------
 BYTE   W96
// 008   ----------------------------------------
 BYTE   W96
// 009   ----------------------------------------
 BYTE   W96
// 010   ----------------------------------------
 BYTE   N96  Gn4  v040
 BYTE   W96
// 011   ----------------------------------------
 BYTE   Fs4
 BYTE   W96
// 012   ----------------------------------------
 BYTE   En4
 BYTE   W96
// 013   ----------------------------------------
 BYTE   Cs4
 BYTE   W96
// 014   ----------------------------------------
 BYTE   An3
 BYTE   W96
// 015   ----------------------------------------
 BYTE   N92  Bn3
 BYTE   W96
// 016   ----------------------------------------
 BYTE   N96
 BYTE   W96
// 017   ----------------------------------------
 BYTE   Cs4
 BYTE   W96
// 018   ----------------------------------------
Label_5_01279A2B:
 BYTE   N48  En4  v060
 BYTE   W48
 BYTE   Ds4
 BYTE   W48
 BYTE   PEND 
// 019   ----------------------------------------
 BYTE   W96
// 020   ----------------------------------------
 BYTE   W96
// 021   ----------------------------------------
 BYTE   W96
// 022   ----------------------------------------
 BYTE   W96
// 023   ----------------------------------------
 BYTE   W96
// 024   ----------------------------------------
 BYTE   W96
// 025   ----------------------------------------
 BYTE   W96
// 026   ----------------------------------------
 BYTE   W96
// 027   ----------------------------------------
 BYTE   W96
// 028   ----------------------------------------
 BYTE   N96  Gn4
 BYTE   W96
// 029   ----------------------------------------
 BYTE   Fs4
 BYTE   W96
// 030   ----------------------------------------
 BYTE   En4
 BYTE   W96
// 031   ----------------------------------------
 BYTE   Cs4
 BYTE   W96
// 032   ----------------------------------------
 BYTE   An3
 BYTE   W96
// 033   ----------------------------------------
 BYTE   N92  Bn3
 BYTE   W96
// 034   ----------------------------------------
 BYTE   N96
 BYTE   W96
// 035   ----------------------------------------
 BYTE   Cs4
 BYTE   W96
 BYTE   PATT
  POIN2 Label_5_01279A2B
// 036   ----------------------------------------
 BYTE   GoTo
  POIN2 Label_5_012799FE
 BYTE   FINE

//**************** Track 7 (Midi-Chn.6) ****************//

songZelos_007:
// 000   ----------------------------------------
 BYTE   KEYSH   songZelos_key+0
Label_6_01279A5A:
 BYTE   VOICE   56
 BYTE   VOL   30*songZelos_mvl/mxv
 BYTE   MODT 0
 BYTE   CnM2  v000
 BYTE   LFOS 0
 BYTE   CnM2  v044
 BYTE   VOL   80*songZelos_mvl/mxv
 //BYTE   PAN   c_v+0
 BYTE   W96
// 001   ----------------------------------------
 BYTE   W96
// 002   ----------------------------------------
 BYTE   W96
// 003   ----------------------------------------
 BYTE   W96
// 004   ----------------------------------------
 BYTE   W96
// 005   ----------------------------------------
 BYTE   W96
// 006   ----------------------------------------
 BYTE   W96
// 007   ----------------------------------------
 BYTE   W96
// 008   ----------------------------------------
 BYTE   W96
// 009   ----------------------------------------
 BYTE   W96
// 010   ----------------------------------------
Label_6_01279A74:
 BYTE   N06  Gn4  v115
 BYTE   W48
 BYTE   N12
 BYTE   W12
 BYTE   N06
 BYTE   W36
// BYTE   PEND 
// 011   ----------------------------------------
Label_6_01279A7D:
 BYTE   W12
 BYTE   N06  Fs4  v115
 BYTE   W12
 BYTE   N06
 BYTE   W12
 BYTE   En4
 BYTE   W12
 BYTE   Fs4
 BYTE   W06
 BYTE   En4
 BYTE   W12
 BYTE   N12  Dn4
 BYTE   W30
// BYTE   PEND 
// 012   ----------------------------------------
Label_6_01279A8E:
 BYTE   N06  En4  v115
 BYTE   W48
 BYTE   N12
 BYTE   W12
 BYTE   N06
 BYTE   W36
// BYTE   PEND 
// 013   ----------------------------------------
Label_6_01279A97:
 BYTE   W06
 BYTE   N06  Dn4  v115
 BYTE   W06
 BYTE   En4
 BYTE   W06
 BYTE   Fs4
 BYTE   W12
 BYTE   N06
 BYTE   W06
 BYTE   Gn4
 BYTE   W06
 BYTE   An4
 BYTE   W12
 BYTE   N06
 BYTE   W12
 BYTE   Gs4
 BYTE   W12
 BYTE   N18  Gn4
 BYTE   W18
// BYTE   PEND 
// 014   ----------------------------------------
Label_6_01279AAE:
 BYTE   N06  Fs4  v115
 BYTE   W18
 BYTE   N06
 BYTE   W78
// BYTE   PEND 
// 015   ----------------------------------------
Label_6_01279AB5:
 BYTE   W12
 BYTE   N06  Dn4  v115
 BYTE   W12
 BYTE   En4
 BYTE   W06
 BYTE   Fs4
 BYTE   W12
 BYTE   N06
 BYTE   W30
 BYTE   N06
 BYTE   W12
 BYTE   Dn4
 BYTE   W12
// BYTE   PEND 
// 016   ----------------------------------------
Label_6_01279AC5:
 BYTE   N72  En4  v115
 BYTE   W72
 BYTE   N03
 BYTE   W08
 BYTE   Fs4
 BYTE   W07
 BYTE   N04  Gn4
 BYTE   W09
// BYTE   PEND 
// 017   ----------------------------------------
Label_6_01279AD1:
 BYTE   N72  An4  v115
 BYTE   W72
 BYTE   N03  Gs4
 BYTE   W08
 BYTE   An4
 BYTE   W07
 BYTE   N04  As4
 BYTE   W09
// BYTE   PEND 
// 018   ----------------------------------------
 BYTE   N96  Bn4
 BYTE   W96
// 019   ----------------------------------------
 BYTE   W96
// 020   ----------------------------------------
 BYTE   W96
// 021   ----------------------------------------
 BYTE   W96
// 022   ----------------------------------------
 BYTE   W96
// 023   ----------------------------------------
 BYTE   W96
// 024   ----------------------------------------
 BYTE   W96
// 025   ----------------------------------------
 BYTE   W96
// 026   ----------------------------------------
 BYTE   W96
// 027   ----------------------------------------
 BYTE   W96
 BYTE   PATT
  POIN2 Label_6_01279A74
 BYTE   PATT
  POIN2 Label_6_01279A7D
 BYTE   PATT
  POIN2 Label_6_01279A8E
 BYTE   PATT
  POIN2 Label_6_01279A97
 BYTE   PATT
  POIN2 Label_6_01279AAE
 BYTE   PATT
  POIN2 Label_6_01279AB5
 BYTE   PATT
  POIN2 Label_6_01279AC5
 BYTE   PATT
  POIN2 Label_6_01279AD1
// 028   ----------------------------------------
 BYTE   N96  Bn4  v115
 BYTE   W96
// 029   ----------------------------------------
 BYTE   GoTo
  POIN2 Label_6_01279A5A
 BYTE   FINE

//**************** Track 8 (Midi-Chn.7) ****************//

songZelos_008:
// 000   ----------------------------------------
 BYTE   KEYSH   songZelos_key+0
Label_7_01279B1E:
 BYTE   VOICE   121
 BYTE   VOL   60*songZelos_mvl/mxv
 BYTE   MODT 0
 BYTE   CnM2  v000
 BYTE   LFOS 0
 BYTE   CnM2  v044
 BYTE   VOL   60*songZelos_mvl/mxv
 BYTE   PAN   c_v+0
 BYTE   VOL   60*songZelos_mvl/mxv
 BYTE   MODT 0
 BYTE   CnM2  v000
 BYTE   LFOS 0
 BYTE   CnM2  v044
 BYTE   VOL   60*songZelos_mvl/mxv
 BYTE   PAN   c_v+0
 BYTE   VOL   60*songZelos_mvl/mxv
 BYTE   MODT 0
 BYTE   CnM2  v000
 BYTE   LFOS 0
 BYTE   CnM2  v044
 BYTE   VOL   60*songZelos_mvl/mxv
 BYTE   PAN   c_v+0
 BYTE   VOL   60*songZelos_mvl/mxv
 BYTE   N06  Cn1  v060
 BYTE   N06  Fs2
 BYTE   W06
 BYTE   N06
 BYTE   W06
 BYTE   Cn1
 BYTE   N06  Fs2
 BYTE   W06
 BYTE   N06
 BYTE   W06
 BYTE   Dn1
 BYTE   N06  En1
 BYTE   N06  An1
 BYTE   W06
 BYTE   Fs2
 BYTE   W06
 BYTE   Cn1
 BYTE   N06  Fs2
 BYTE   W06
 BYTE   N06
 BYTE   W06
 BYTE   Cn1
 BYTE   N06  Fs2
 BYTE   W06
 BYTE   N06
 BYTE   W06
 BYTE   Cn1
 BYTE   N06  Fs2
 BYTE   W06
 BYTE   N06
 BYTE   W06
 BYTE   Dn1
 BYTE   N06  En1
 BYTE   N06  An1
 BYTE   W06
 BYTE   Fs2
 BYTE   W06
 BYTE   Cn1
 BYTE   N06  Fs2
 BYTE   N03  Fn3
 BYTE   W03
 BYTE   N02
 BYTE   W03
 BYTE   N06  Fs2
 BYTE   N03  Fn3
 BYTE   W03
 BYTE   N02
 BYTE   W03
// 001   ----------------------------------------
Label_7_01279B85:
 BYTE   N06  Dn1  v060
 BYTE   N06  En1
 BYTE   N06  An1
 BYTE   W12
 BYTE   Dn1
 BYTE   N06  En1
 BYTE   N06  An1
 BYTE   W20
 BYTE   N07  Dn1
 BYTE   N07  En1
 BYTE   N07  An1
 BYTE   W07
 BYTE   N08  Dn1
 BYTE   N08  En1
 BYTE   N08  An1
 BYTE   W09
 BYTE   Dn1
 BYTE   N08  En1
 BYTE   N08  An1
 BYTE   W48
 BYTE   PEND 
// 002   ----------------------------------------
Label_7_01279BA8:
 BYTE   N06  Cn1  v060
 BYTE   N48  Cs2
 BYTE   N06  Fs2
 BYTE   W06
 BYTE   N06
 BYTE   W06
 BYTE   Cn1
 BYTE   N06  Fs2
 BYTE   W06
 BYTE   N06
 BYTE   W06
 BYTE   Dn1
 BYTE   N06  En1
 BYTE   W06
 BYTE   Fs2
 BYTE   W06
 BYTE   Cn1
 BYTE   N06  Fs2
 BYTE   W06
 BYTE   N06
 BYTE   W06
 BYTE   Cn1
 BYTE   N06  Fs2
 BYTE   W06
 BYTE   N06
 BYTE   W06
 BYTE   Cn1
 BYTE   N06  Fs2
 BYTE   W06
 BYTE   N06
 BYTE   W06
 BYTE   Dn1
 BYTE   N06  En1
 BYTE   N06  Fs2
 BYTE   W06
 BYTE   N06
 BYTE   W06
 BYTE   Cn1
 BYTE   N06  Fs2
 BYTE   W06
 BYTE   N06
 BYTE   W06
 BYTE   PEND 
// 003   ----------------------------------------
Label_7_01279BDF:
 BYTE   N06  Cn1  v060
 BYTE   N06  Fs2
 BYTE   W06
 BYTE   N06
 BYTE   W06
 BYTE   Cn1
 BYTE   N06  Fs2
 BYTE   W06
 BYTE   N06
 BYTE   W06
 BYTE   Dn1
 BYTE   N06  En1
 BYTE   N06  Fs2
 BYTE   W06
 BYTE   N06
 BYTE   W06
 BYTE   Cn1
 BYTE   N06  Fs2
 BYTE   W06
 BYTE   N06
 BYTE   W06
 BYTE   Cn1
 BYTE   N06  Fs2
 BYTE   W06
 BYTE   Dn1
 BYTE   N06  En1
 BYTE   N06  Fs2
 BYTE   W06
 BYTE   Cn1
 BYTE   N06  Fs2
 BYTE   W06
 BYTE   N06
 BYTE   W06
 BYTE   Dn1
 BYTE   N06  En1
 BYTE   N06  Fs2
 BYTE   W06
 BYTE   N06
 BYTE   W06
 BYTE   Cn1
 BYTE   N06  Fs2
 BYTE   W06
 BYTE   N06
 BYTE   W06
 BYTE   PEND 
// 004   ----------------------------------------
Label_7_01279C1A:
 BYTE   N06  Cn1  v060
 BYTE   N06  Fs2
 BYTE   W06
 BYTE   N06
 BYTE   W06
 BYTE   Cn1
 BYTE   N06  Fs2
 BYTE   W06
 BYTE   N06
 BYTE   W06
 BYTE   Dn1
 BYTE   N06  En1
 BYTE   N06  Fs2
 BYTE   W06
 BYTE   N06
 BYTE   W06
 BYTE   Cn1
 BYTE   N06  Fs2
 BYTE   W06
 BYTE   N06
 BYTE   W06
 BYTE   Cn1
 BYTE   N06  Fs2
 BYTE   W06
 BYTE   N06
 BYTE   W06
 BYTE   Cn1
 BYTE   N06  Fs2
 BYTE   W06
 BYTE   N06
 BYTE   W06
 BYTE   Dn1
 BYTE   N06  En1
 BYTE   N06  Fs2
 BYTE   W06
 BYTE   N06
 BYTE   W06
 BYTE   Cn1
 BYTE   N06  Fs2
 BYTE   W06
 BYTE   N06
 BYTE   W06
 BYTE   PEND 
// 005   ----------------------------------------
Label_7_01279C51:
 BYTE   N06  Cn1  v060
 BYTE   N06  Fs2
 BYTE   W06
 BYTE   N06
 BYTE   W06
 BYTE   Cn1
 BYTE   N06  Fs2
 BYTE   W06
 BYTE   N06
 BYTE   W06
 BYTE   Dn1
 BYTE   N06  En1
 BYTE   N06  Fs2
 BYTE   W06
 BYTE   N06
 BYTE   W06
 BYTE   Cn1
 BYTE   N06  Fs2
 BYTE   W06
 BYTE   N06
 BYTE   W06
 BYTE   Cn1
 BYTE   N06  Fs2
 BYTE   W06
 BYTE   N06
 BYTE   W06
 BYTE   Cn1
 BYTE   N06  Fs2
 BYTE   W06
 BYTE   N06
 BYTE   W06
 BYTE   Dn1
 BYTE   N06  En1
 BYTE   N06  Fs2
 BYTE   W06
 BYTE   N06
 BYTE   W06
 BYTE   Dn1
 BYTE   N06  En1
 BYTE   N06  Fs2
 BYTE   W06
 BYTE   Dn1
 BYTE   N06  En1
 BYTE   N06  Fs2
 BYTE   W06
 BYTE   PEND 
 BYTE   PATT
  POIN2 Label_7_01279BA8
 BYTE   PATT
  POIN2 Label_7_01279BDF
 BYTE   PATT
  POIN2 Label_7_01279C1A
 BYTE   PATT
  POIN2 Label_7_01279C51
 BYTE   PATT
  POIN2 Label_7_01279BA8
 BYTE   PATT
  POIN2 Label_7_01279BDF
 BYTE   PATT
  POIN2 Label_7_01279C1A
 BYTE   PATT
  POIN2 Label_7_01279C51
 BYTE   PATT
  POIN2 Label_7_01279BA8
 BYTE   PATT
  POIN2 Label_7_01279C51
 BYTE   PATT
  POIN2 Label_7_01279C1A
// 006   ----------------------------------------
Label_7_01279CC5:
 BYTE   N06  Cn1  v060
 BYTE   N48  Cs2
 BYTE   N06  Fs2
 BYTE   W06
 BYTE   N06
 BYTE   W06
 BYTE   Cn1
 BYTE   N06  Fs2
 BYTE   W06
 BYTE   N06
 BYTE   W06
 BYTE   Dn1
 BYTE   N06  En1
 BYTE   W06
 BYTE   Fs2
 BYTE   W06
 BYTE   Cn1
 BYTE   N06  Fs2
 BYTE   W06
 BYTE   N06
 BYTE   W06
 BYTE   Cn1
 BYTE   N06  Fs2
 BYTE   W06
 BYTE   N06
 BYTE   W06
 BYTE   Cn1
 BYTE   N06  Fs2
 BYTE   W06
 BYTE   N06
 BYTE   W06
 BYTE   Dn1
 BYTE   N06  En1
 BYTE   N06  Fs2
 BYTE   W06
 BYTE   N06
 BYTE   W06
 BYTE   Dn1
 BYTE   N06  En1
 BYTE   N06  Fs2
 BYTE   W06
 BYTE   Dn1
 BYTE   N06  En1
 BYTE   N06  Fs2
 BYTE   W06
 BYTE   PEND 
// 007   ----------------------------------------
Label_7_01279D02:
 BYTE   N06  Cn1  v060
 BYTE   N48  Cs2
 BYTE   N06  Fs2
 BYTE   W06
 BYTE   N06
 BYTE   W06
 BYTE   Cn1
 BYTE   N06  Fs2
 BYTE   W06
 BYTE   N06
 BYTE   W06
 BYTE   Dn1
 BYTE   N06  En1
 BYTE   W06
 BYTE   Fs2
 BYTE   W06
 BYTE   Cn1
 BYTE   N06  Fs2
 BYTE   W06
 BYTE   N06
 BYTE   W06
 BYTE   Cn1
 BYTE   N48  Cs2
 BYTE   N06  Fs2
 BYTE   W06
 BYTE   N06
 BYTE   W06
 BYTE   Cn1
 BYTE   N06  Fs2
 BYTE   W06
 BYTE   N06
 BYTE   W06
 BYTE   Dn1
 BYTE   N06  En1
 BYTE   W06
 BYTE   Fs2
 BYTE   W06
 BYTE   En1
 BYTE   N06  Fs2
 BYTE   W06
 BYTE   En1
 BYTE   N06  Fs2
 BYTE   W06
 BYTE   PEND 
 BYTE   PATT
  POIN2 Label_7_01279B85
 BYTE   PATT
  POIN2 Label_7_01279BA8
 BYTE   PATT
  POIN2 Label_7_01279BDF
 BYTE   PATT
  POIN2 Label_7_01279C1A
 BYTE   PATT
  POIN2 Label_7_01279C51
 BYTE   PATT
  POIN2 Label_7_01279BA8
 BYTE   PATT
  POIN2 Label_7_01279BDF
 BYTE   PATT
  POIN2 Label_7_01279C1A
 BYTE   PATT
  POIN2 Label_7_01279C51
 BYTE   PATT
  POIN2 Label_7_01279BA8
 BYTE   PATT
  POIN2 Label_7_01279BDF
 BYTE   PATT
  POIN2 Label_7_01279C1A
 BYTE   PATT
  POIN2 Label_7_01279C51
 BYTE   PATT
  POIN2 Label_7_01279BA8
 BYTE   PATT
  POIN2 Label_7_01279C51
 BYTE   PATT
  POIN2 Label_7_01279C1A
 BYTE   PATT
  POIN2 Label_7_01279CC5
 BYTE   PATT
  POIN2 Label_7_01279D02
// 008   ----------------------------------------
 BYTE   GoTo
  POIN2 Label_7_01279B1E
 BYTE   FINE

//******************************************************//
	ALIGN 4

songZelos:
	BYTE	8	// NumTrks
	BYTE	0	// NumBlks
	BYTE	songZelos_pri	// Priority
	BYTE	songZelos_rev	// Reverb.
    
	POIN2	songZelos_grp
    
	POIN2	songZelos_001
	POIN2	songZelos_002
	POIN2	songZelos_003
	POIN2	songZelos_004
	POIN2	songZelos_005
	POIN2	songZelos_006
	POIN2	songZelos_007
	POIN2	songZelos_008

	
